<?xml version="1.0" encoding="UTF-8" standalone="no"?>
<!DOCTYPE svg PUBLIC "-//W3C//DTD SVG 1.1//EN"
 "http://www.w3.org/Graphics/SVG/1.1/DTD/svg11.dtd">
<!-- Generated by graphviz version 14.1.4 (0)
 -->
<!-- Title: source/application.c Pages: 1 -->
<!--zoomable 313 -->

<svg id="main" version="1.1" xmlns="http://www.w3.org/2000/svg" xmlns:xlink="http://www.w3.org/1999/xlink" xml:space="preserve" onload="init(evt)">

<style type="text/css"><![CDATA[
.node, .edge {opacity: 0.7;}
.node.selected, .edge.selected {opacity: 1;}
.edge:hover path { stroke: red; }
.edge:hover polygon { stroke: red; fill: red; }
]]></style>

<defs>
  <circle id="rim" cx="0" cy="0" r="7"/>
  <circle id="rim2" cx="0" cy="0" r="3.5"/>
  <g id="zoomPlus">
    <use xlink:href="#rim" fill="#404040"><set attributeName="fill" to="#808080" begin="zoomplus.mouseover" end="zoomplus.mouseout"/></use>
    <path d="M-4,0h8M0,-4v8" fill="none" stroke="white" stroke-width="1.5" pointer-events="none"/>
  </g>
  <g id="zoomMin">
    <use xlink:href="#rim" fill="#404040"><set attributeName="fill" to="#808080" begin="zoomminus.mouseover" end="zoomminus.mouseout"/></use>
    <path d="M-4,0h8" fill="none" stroke="white" stroke-width="1.5" pointer-events="none"/>
  </g>
  <g id="arrowUp" transform="translate(30 24)">
    <use xlink:href="#rim"/>
    <path pointer-events="none" fill="none" stroke="white" stroke-width="1.5" d="M0,-3.0v7 M-2.5,-0.5L0,-3.0L2.5,-0.5"/>
  </g>
  <g id="arrowRight" transform="rotate(90) translate(36 -43)">
    <use xlink:href="#rim"/>
    <path pointer-events="none" fill="none" stroke="white" stroke-width="1.5" d="M0,-3.0v7 M-2.5,-0.5L0,-3.0L2.5,-0.5"/>
  </g>
  <g id="arrowDown" transform="rotate(180) translate(-30 -48)">
    <use xlink:href="#rim"/>
    <path pointer-events="none" fill="none" stroke="white" stroke-width="1.5" d="M0,-3.0v7 M-2.5,-0.5L0,-3.0L2.5,-0.5"/>
  </g>
  <g id="arrowLeft" transform="rotate(270) translate(-36 17)">
    <use xlink:href="#rim"/>
    <path pointer-events="none" fill="none" stroke="white" stroke-width="1.5" d="M0,-3.0v7 M-2.5,-0.5L0,-3.0L2.5,-0.5"/>
  </g>
  <g id="resetDef">
    <use xlink:href="#rim2" fill="#404040"><set attributeName="fill" to="#808080" begin="reset.mouseover" end="reset.mouseout"/></use>
  </g>
</defs>
<script type="application/ecmascript">
var viewWidth = 2039;
var viewHeight = 313;
var sectionId = 'dynsection-0';
</script>
<script type="application/ecmascript" xlink:href="svg.min.js"/>
<svg id="graph" class="graph">
<g id="viewport">
<title>source/application.c</title>
<!-- Node1 -->
<g id="Node000001" class="node">
<title>Node1</title>
<g id="a_Node000001"><a xlink:title=" ">
<polygon fill="#999999" stroke="#666666" points="1347.12,-304.5 1233.62,-304.5 1233.62,-283.75 1347.12,-283.75 1347.12,-304.5"/>
<text xml:space="preserve" text-anchor="middle" x="1290.38" y="-291" font-family="Helvetica,sans-Serif" font-size="10.00">source/application.c</text>
</a>
</g>
</g>
<!-- Node2 -->
<g id="Node000002" class="node">
<title>Node2</title>
<g id="a_Node000002"><a xlink:href="pca9555a_8h.html" target="_top" xlink:title=" ">
<polygon fill="white" stroke="#666666" points="999.38,-77.5 845.38,-77.5 845.38,-56.75 999.38,-56.75 999.38,-77.5"/>
<text xml:space="preserve" text-anchor="middle" x="922.38" y="-64" font-family="Helvetica,sans-Serif" font-size="10.00">driver/pca9555a/pca9555a.h</text>
</a>
</g>
</g>
<!-- Node1&#45;&gt;Node2 -->
<g id="edge1_Node000001_Node000002" class="edge">
<title>Node1&#45;&gt;Node2</title>
<g id="a_edge1_Node000001_Node000002"><a xlink:title=" ">
<path fill="none" stroke="#63b8ff" d="M1244.54,-283.31C1215.36,-275.95 1177.36,-264.3 1146.38,-247.75 1060.44,-201.85 975.16,-121.34 939.62,-85.82"/>
<polygon fill="#63b8ff" stroke="#63b8ff" points="942.28,-83.53 932.76,-78.88 937.3,-88.45 942.28,-83.53"/>
</a>
</g>
</g>
<!-- Node4 -->
<g id="Node000004" class="node">
<title>Node4</title>
<g id="a_Node000004"><a xlink:title=" ">
<polygon fill="#e0e0e0" stroke="#999999" points="1412.25,-20.75 1332.5,-20.75 1332.5,0 1412.25,0 1412.25,-20.75"/>
<text xml:space="preserve" text-anchor="middle" x="1372.38" y="-7.25" font-family="Helvetica,sans-Serif" font-size="10.00">peripherals.h</text>
</a>
</g>
</g>
<!-- Node1&#45;&gt;Node4 -->
<g id="edge11_Node000001_Node000004" class="edge">
<title>Node1&#45;&gt;Node4</title>
<g id="a_edge11_Node000001_Node000004"><a xlink:title=" ">
<path fill="none" stroke="#63b8ff" d="M1302.63,-283.32C1320.45,-269.4 1354.96,-243.74 1387.38,-227 1428.23,-205.89 1458.12,-228.75 1484.38,-191 1525.05,-132.52 1439.91,-59.61 1396.17,-27.66"/>
<polygon fill="#63b8ff" stroke="#63b8ff" points="1398.44,-24.97 1388.26,-22.01 1394.37,-30.67 1398.44,-24.97"/>
</a>
</g>
</g>
<!-- Node5 -->
<g id="Node000005" class="node">
<title>Node5</title>
<g id="a_Node000005"><a xlink:href="application_8h.html" target="_top" xlink:title=" ">
<polygon fill="white" stroke="#666666" points="1474.88,-247.75 1395.88,-247.75 1395.88,-227 1474.88,-227 1474.88,-247.75"/>
<text xml:space="preserve" text-anchor="middle" x="1435.38" y="-234.25" font-family="Helvetica,sans-Serif" font-size="10.00">application.h</text>
</a>
</g>
</g>
<!-- Node1&#45;&gt;Node5 -->
<g id="edge4_Node000001_Node000005" class="edge">
<title>Node1&#45;&gt;Node5</title>
<g id="a_edge4_Node000001_Node000005"><a xlink:title=" ">
<path fill="none" stroke="#63b8ff" d="M1316.3,-283.34C1339.39,-274.62 1373.42,-261.77 1399.19,-252.04"/>
<polygon fill="#63b8ff" stroke="#63b8ff" points="1400.14,-255.42 1408.26,-248.61 1397.67,-248.87 1400.14,-255.42"/>
</a>
</g>
</g>
<!-- Node6 -->
<g id="Node000006" class="node">
<title>Node6</title>
<g id="a_Node000006"><a xlink:href="log_8h.html" target="_top" xlink:title=" ">
<polygon fill="white" stroke="#666666" points="506.38,-134.25 466.38,-134.25 466.38,-113.5 506.38,-113.5 506.38,-134.25"/>
<text xml:space="preserve" text-anchor="middle" x="486.38" y="-120.75" font-family="Helvetica,sans-Serif" font-size="10.00">log.h</text>
</a>
</g>
</g>
<!-- Node1&#45;&gt;Node6 -->
<g id="edge5_Node000001_Node000006" class="edge">
<title>Node1&#45;&gt;Node6</title>
<g id="a_edge5_Node000001_Node000006"><a xlink:title=" ">
<path fill="none" stroke="#63b8ff" d="M1233.19,-291.84C1137.74,-288.86 940.25,-279.12 776.38,-247.75 689.82,-231.18 666.21,-228.32 586.38,-191 557.34,-177.43 527.05,-156.26 507.53,-141.54"/>
<polygon fill="#63b8ff" stroke="#63b8ff" points="509.87,-138.93 499.81,-135.62 505.62,-144.49 509.87,-138.93"/>
</a>
</g>
</g>
<!-- Node7 -->
<g id="Node000007" class="node">
<title>Node7</title>
<g id="a_Node000007"><a xlink:title=" ">
<polygon fill="#e0e0e0" stroke="#999999" points="1089.12,-77.5 1017.62,-77.5 1017.62,-56.75 1089.12,-56.75 1089.12,-77.5"/>
<text xml:space="preserve" text-anchor="middle" x="1053.38" y="-64" font-family="Helvetica,sans-Serif" font-size="10.00">FreeRTOS.h</text>
</a>
</g>
</g>
<!-- Node1&#45;&gt;Node7 -->
<g id="edge14_Node000001_Node000007" class="edge">
<title>Node1&#45;&gt;Node7</title>
<g id="a_edge14_Node000001_Node000007"><a xlink:title=" ">
<path fill="none" stroke="#63b8ff" d="M1260.55,-283.32C1220.8,-268.88 1150.45,-238.38 1107.38,-191 1080.17,-161.09 1065.04,-115.27 1058.11,-88.86"/>
<polygon fill="#63b8ff" stroke="#63b8ff" points="1061.56,-88.25 1055.78,-79.37 1054.77,-89.92 1061.56,-88.25"/>
</a>
</g>
</g>
<!-- Node8 -->
<g id="Node000008" class="node">
<title>Node8</title>
<g id="a_Node000008"><a xlink:title=" ">
<polygon fill="#e0e0e0" stroke="#999999" points="1545.75,-247.75 1493,-247.75 1493,-227 1545.75,-227 1545.75,-247.75"/>
<text xml:space="preserve" text-anchor="middle" x="1519.38" y="-234.25" font-family="Helvetica,sans-Serif" font-size="10.00">board.h</text>
</a>
</g>
</g>
<!-- Node1&#45;&gt;Node8 -->
<g id="edge8_Node000001_Node000008" class="edge">
<title>Node1&#45;&gt;Node8</title>
<g id="a_edge8_Node000001_Node000008"><a xlink:title=" ">
<path fill="none" stroke="#63b8ff" d="M1334.39,-283.25C1371.31,-274.88 1425.71,-262.32 1481.48,-248.42"/>
<polygon fill="#63b8ff" stroke="#63b8ff" points="1482.33,-251.82 1491.18,-246 1480.63,-245.03 1482.33,-251.82"/>
</a>
</g>
</g>
<!-- Node9 -->
<g id="Node000009" class="node">
<title>Node9</title>
<g id="a_Node000009"><a xlink:title=" ">
<polygon fill="#e0e0e0" stroke="#999999" points="1648.88,-247.75 1563.88,-247.75 1563.88,-227 1648.88,-227 1648.88,-247.75"/>
<text xml:space="preserve" text-anchor="middle" x="1606.38" y="-234.25" font-family="Helvetica,sans-Serif" font-size="10.00">clock_config.h</text>
</a>
</g>
</g>
<!-- Node1&#45;&gt;Node9 -->
<g id="edge9_Node000001_Node000009" class="edge">
<title>Node1&#45;&gt;Node9</title>
<g id="a_edge9_Node000001_Node000009"><a xlink:title=" ">
<path fill="none" stroke="#63b8ff" d="M1347.56,-283.43C1398.54,-274.76 1475.52,-261.6 1552.22,-248.12"/>
<polygon fill="#63b8ff" stroke="#63b8ff" points="1552.8,-251.57 1562.04,-246.39 1551.59,-244.68 1552.8,-251.57"/>
</a>
</g>
</g>
<!-- Node10 -->
<g id="Node000010" class="node">
<title>Node10</title>
<g id="a_Node000010"><a xlink:title=" ">
<polygon fill="#e0e0e0" stroke="#999999" points="1781.88,-247.75 1666.88,-247.75 1666.88,-227 1781.88,-227 1781.88,-247.75"/>
<text xml:space="preserve" text-anchor="middle" x="1724.38" y="-234.25" font-family="Helvetica,sans-Serif" font-size="10.00">fsl_debug_console.h</text>
</a>
</g>
</g>
<!-- Node1&#45;&gt;Node10 -->
<g id="edge10_Node000001_Node000010" class="edge">
<title>Node1&#45;&gt;Node10</title>
<g id="a_edge10_Node000001_Node000010"><a xlink:title=" ">
<path fill="none" stroke="#63b8ff" d="M1347.47,-286.42C1417.59,-278.1 1540.47,-263.29 1655.35,-248.13"/>
<polygon fill="#63b8ff" stroke="#63b8ff" points="1655.48,-251.65 1664.93,-246.87 1654.56,-244.71 1655.48,-251.65"/>
</a>
</g>
</g>
<!-- Node11 -->
<g id="Node000011" class="node">
<title>Node11</title>
<g id="a_Node000011"><a xlink:title=" ">
<polygon fill="#e0e0e0" stroke="#999999" points="1866.88,-247.75 1799.88,-247.75 1799.88,-227 1866.88,-227 1866.88,-247.75"/>
<text xml:space="preserve" text-anchor="middle" x="1833.38" y="-234.25" font-family="Helvetica,sans-Serif" font-size="10.00">pin_mux.h</text>
</a>
</g>
</g>
<!-- Node1&#45;&gt;Node11 -->
<g id="edge12_Node000001_Node000011" class="edge">
<title>Node1&#45;&gt;Node11</title>
<g id="a_edge12_Node000001_Node000011"><a xlink:title=" ">
<path fill="none" stroke="#63b8ff" d="M1347.39,-290.37C1438.58,-285.43 1623,-273.28 1788.17,-248.08"/>
<polygon fill="#63b8ff" stroke="#63b8ff" points="1788.68,-251.55 1798.02,-246.56 1787.61,-244.63 1788.68,-251.55"/>
</a>
</g>
</g>
<!-- Node12 -->
<g id="Node000012" class="node">
<title>Node12</title>
<g id="a_Node000012"><a xlink:title=" ">
<polygon fill="#e0e0e0" stroke="#999999" points="1933.88,-247.75 1884.88,-247.75 1884.88,-227 1933.88,-227 1933.88,-247.75"/>
<text xml:space="preserve" text-anchor="middle" x="1909.38" y="-234.25" font-family="Helvetica,sans-Serif" font-size="10.00">stdio.h</text>
</a>
</g>
</g>
<!-- Node1&#45;&gt;Node12 -->
<g id="edge13_Node000001_Node000012" class="edge">
<title>Node1&#45;&gt;Node12</title>
<g id="a_edge13_Node000001_Node000012"><a xlink:title=" ">
<path fill="none" stroke="#63b8ff" d="M1347.42,-292.47C1450.8,-290.48 1675.97,-282.38 1873.46,-247.96"/>
<polygon fill="#63b8ff" stroke="#63b8ff" points="1873.91,-251.43 1883.14,-246.24 1872.69,-244.54 1873.91,-251.43"/>
</a>
</g>
</g>
<!-- Node13 -->
<g id="Node000013" class="node">
<title>Node13</title>
<g id="a_Node000013"><a xlink:title=" ">
<polygon fill="#e0e0e0" stroke="#999999" points="894.38,-134.25 848.38,-134.25 848.38,-113.5 894.38,-113.5 894.38,-134.25"/>
<text xml:space="preserve" text-anchor="middle" x="871.38" y="-120.75" font-family="Helvetica,sans-Serif" font-size="10.00">task.h</text>
</a>
</g>
</g>
<!-- Node1&#45;&gt;Node13 -->
<g id="edge15_Node000001_Node000013" class="edge">
<title>Node1&#45;&gt;Node13</title>
<g id="a_edge15_Node000001_Node000013"><a xlink:title=" ">
<path fill="none" stroke="#63b8ff" d="M1233.22,-289.03C1157.61,-282.86 1029.04,-269.52 987.38,-247.75 940.34,-223.18 901.86,-171.98 883.33,-144.05"/>
<polygon fill="#63b8ff" stroke="#63b8ff" points="886.41,-142.37 878.04,-135.87 880.52,-146.17 886.41,-142.37"/>
</a>
</g>
</g>
<!-- Node14 -->
<g id="Node000014" class="node">
<title>Node14</title>
<g id="a_Node000014"><a xlink:href="cli_8h.html" target="_top" xlink:title=" ">
<polygon fill="white" stroke="#666666" points="1357.5,-134.25 1321.25,-134.25 1321.25,-113.5 1357.5,-113.5 1357.5,-134.25"/>
<text xml:space="preserve" text-anchor="middle" x="1339.38" y="-120.75" font-family="Helvetica,sans-Serif" font-size="10.00">cli.h</text>
</a>
</g>
</g>
<!-- Node1&#45;&gt;Node14 -->
<g id="edge16_Node000001_Node000014" class="edge">
<title>Node1&#45;&gt;Node14</title>
<g id="a_edge16_Node000001_Node000014"><a xlink:title=" ">
<path fill="none" stroke="#63b8ff" d="M1287.53,-283.55C1284.11,-270.55 1279.41,-246.67 1284.38,-227 1292.26,-195.72 1311.82,-163.59 1325.35,-143.93"/>
<polygon fill="#63b8ff" stroke="#63b8ff" points="1328.15,-146.03 1331.08,-135.85 1322.44,-141.98 1328.15,-146.03"/>
</a>
</g>
</g>
<!-- Node16 -->
<g id="Node000016" class="node">
<title>Node16</title>
<g id="a_Node000016"><a xlink:href="disk_8h.html" target="_top" xlink:title=" ">
<polygon fill="white" stroke="#666666" points="1339,-247.75 1293.75,-247.75 1293.75,-227 1339,-227 1339,-247.75"/>
<text xml:space="preserve" text-anchor="middle" x="1316.38" y="-234.25" font-family="Helvetica,sans-Serif" font-size="10.00">disk.h</text>
</a>
</g>
</g>
<!-- Node1&#45;&gt;Node16 -->
<g id="edge20_Node000001_Node000016" class="edge">
<title>Node1&#45;&gt;Node16</title>
<g id="a_edge20_Node000001_Node000016"><a xlink:title=" ">
<path fill="none" stroke="#63b8ff" d="M1295.02,-283.34C1298.31,-276.41 1302.84,-266.87 1306.88,-258.36"/>
<polygon fill="#63b8ff" stroke="#63b8ff" points="1309.99,-259.98 1311.12,-249.45 1303.67,-256.98 1309.99,-259.98"/>
</a>
</g>
</g>
<!-- Node19 -->
<g id="Node000019" class="node">
<title>Node19</title>
<g id="a_Node000019"><a xlink:href="motor__test_8h.html" target="_top" xlink:title=" ">
<polygon fill="white" stroke="#666666" points="2030.5,-247.75 1952.25,-247.75 1952.25,-227 2030.5,-227 2030.5,-247.75"/>
<text xml:space="preserve" text-anchor="middle" x="1991.38" y="-234.25" font-family="Helvetica,sans-Serif" font-size="10.00">motor_test.h</text>
</a>
</g>
</g>
<!-- Node1&#45;&gt;Node19 -->
<g id="edge24_Node000001_Node000019" class="edge">
<title>Node1&#45;&gt;Node19</title>
<g id="a_edge24_Node000001_Node000019"><a xlink:title=" ">
<path fill="none" stroke="#63b8ff" d="M1347.39,-291.53C1459.26,-287.89 1715.55,-277.02 1940.52,-247.98"/>
<polygon fill="#63b8ff" stroke="#63b8ff" points="1940.92,-251.45 1950.39,-246.69 1940.02,-244.51 1940.92,-251.45"/>
</a>
</g>
</g>
<!-- Node20 -->
<g id="Node000020" class="node">
<title>Node20</title>
<g id="a_Node000020"><a xlink:href="step__core_8h.html" target="_top" xlink:title=" ">
<polygon fill="white" stroke="#666666" points="667.5,-191 595.25,-191 595.25,-170.25 667.5,-170.25 667.5,-191"/>
<text xml:space="preserve" text-anchor="middle" x="631.38" y="-177.5" font-family="Helvetica,sans-Serif" font-size="10.00">step_core.h</text>
</a>
</g>
</g>
<!-- Node1&#45;&gt;Node20 -->
<g id="edge25_Node000001_Node000020" class="edge">
<title>Node1&#45;&gt;Node20</title>
<g id="a_edge25_Node000001_Node000020"><a xlink:title=" ">
<path fill="none" stroke="#63b8ff" d="M1233.41,-290.15C1151.28,-285.16 995.08,-273.07 864.38,-247.75 795.16,-234.34 716.65,-210.13 670.72,-195.02"/>
<polygon fill="#63b8ff" stroke="#63b8ff" points="672.08,-191.78 661.49,-191.96 669.88,-198.43 672.08,-191.78"/>
</a>
</g>
</g>
<!-- Node30 -->
<g id="Node000030" class="node">
<title>Node30</title>
<g id="a_Node000030"><a xlink:href="tmc2209__core_8h.html" target="_top" xlink:title=" ">
<polygon fill="white" stroke="#666666" points="1210.38,-191 1116.38,-191 1116.38,-170.25 1210.38,-170.25 1210.38,-191"/>
<text xml:space="preserve" text-anchor="middle" x="1163.38" y="-177.5" font-family="Helvetica,sans-Serif" font-size="10.00">tmc2209_core.h</text>
</a>
</g>
</g>
<!-- Node1&#45;&gt;Node30 -->
<g id="edge46_Node000001_Node000030" class="edge">
<title>Node1&#45;&gt;Node30</title>
<g id="a_edge46_Node000001_Node000030"><a xlink:title=" ">
<path fill="none" stroke="#63b8ff" d="M1279.55,-283.62C1258.1,-264.79 1209.95,-222.51 1182.85,-198.72"/>
<polygon fill="#63b8ff" stroke="#63b8ff" points="1185.5,-196.39 1175.67,-192.42 1180.88,-201.65 1185.5,-196.39"/>
</a>
</g>
</g>
<!-- Node33 -->
<g id="Node000033" class="node">
<title>Node33</title>
<g id="a_Node000033"><a xlink:href="motor_8h.html" target="_top" xlink:title=" ">
<polygon fill="white" stroke="#666666" points="539.12,-247.75 485.62,-247.75 485.62,-227 539.12,-227 539.12,-247.75"/>
<text xml:space="preserve" text-anchor="middle" x="512.38" y="-234.25" font-family="Helvetica,sans-Serif" font-size="10.00">motor.h</text>
</a>
</g>
</g>
<!-- Node1&#45;&gt;Node33 -->
<g id="edge52_Node000001_Node000033" class="edge">
<title>Node1&#45;&gt;Node33</title>
<g id="a_edge52_Node000001_Node000033"><a xlink:title=" ">
<path fill="none" stroke="#63b8ff" d="M1233.18,-292.77C1108.86,-291.32 804.92,-284 553.38,-247.75 552.53,-247.63 551.69,-247.5 550.83,-247.36"/>
<polygon fill="#63b8ff" stroke="#63b8ff" points="551.57,-243.94 541.09,-245.53 550.28,-250.82 551.57,-243.94"/>
</a>
</g>
</g>
<!-- Node34 -->
<g id="Node000034" class="node">
<title>Node34</title>
<g id="a_Node000034"><a xlink:href="motorCmd_8h.html" target="_top" xlink:title=" ">
<polygon fill="white" stroke="#666666" points="76.75,-191 0,-191 0,-170.25 76.75,-170.25 76.75,-191"/>
<text xml:space="preserve" text-anchor="middle" x="38.38" y="-177.5" font-family="Helvetica,sans-Serif" font-size="10.00">motorCmd.h</text>
</a>
</g>
</g>
<!-- Node1&#45;&gt;Node34 -->
<g id="edge59_Node000001_Node000034" class="edge">
<title>Node1&#45;&gt;Node34</title>
<g id="a_edge59_Node000001_Node000034"><a xlink:title=" ">
<path fill="none" stroke="#63b8ff" d="M1233.49,-291.72C1100.65,-288.06 759.78,-276.42 476.38,-247.75 334.79,-233.43 169.04,-205.26 88.03,-190.75"/>
<polygon fill="#63b8ff" stroke="#63b8ff" points="89.13,-187.39 78.67,-189.06 87.89,-194.28 89.13,-187.39"/>
</a>
</g>
</g>
<!-- Node3 -->
<g id="Node000003" class="node">
<title>Node3</title>
<g id="a_Node000003"><a xlink:title=" ">
<polygon fill="#e0e0e0" stroke="#999999" points="590.88,-20.75 505.88,-20.75 505.88,0 590.88,0 590.88,-20.75"/>
<text xml:space="preserve" text-anchor="middle" x="548.38" y="-7.25" font-family="Helvetica,sans-Serif" font-size="10.00">fsl_common.h</text>
</a>
</g>
</g>
<!-- Node2&#45;&gt;Node3 -->
<g id="edge2_Node000002_Node000003" class="edge">
<title>Node2&#45;&gt;Node3</title>
<g id="a_edge2_Node000002_Node000003"><a xlink:title=" ">
<path fill="none" stroke="#63b8ff" d="M855.08,-56.27C782.71,-45.68 669.09,-29.05 602.35,-19.28"/>
<polygon fill="#63b8ff" stroke="#63b8ff" points="603.15,-15.86 592.75,-17.87 602.14,-22.78 603.15,-15.86"/>
</a>
</g>
</g>
<!-- Node2&#45;&gt;Node4 -->
<g id="edge3_Node000002_Node000004" class="edge">
<title>Node2&#45;&gt;Node4</title>
<g id="a_edge3_Node000002_Node000004"><a xlink:title=" ">
<path fill="none" stroke="#63b8ff" d="M999.73,-56.71C1091.71,-45.52 1242.61,-27.16 1321.19,-17.6"/>
<polygon fill="#63b8ff" stroke="#63b8ff" points="1321.24,-21.12 1330.74,-16.44 1320.39,-14.17 1321.24,-21.12"/>
</a>
</g>
</g>
<!-- Node6&#45;&gt;Node3 -->
<g id="edge7_Node000006_Node000003" class="edge">
<title>Node6&#45;&gt;Node3</title>
<g id="a_edge7_Node000006_Node000003"><a xlink:title=" ">
<path fill="none" stroke="#63b8ff" d="M489.88,-113.14C494.8,-99.96 504.39,-75.88 515.38,-56.75 520.63,-47.6 527.34,-38.08 533.34,-30.13"/>
<polygon fill="#63b8ff" stroke="#63b8ff" points="536.09,-32.29 539.46,-22.24 530.56,-27.99 536.09,-32.29"/>
</a>
</g>
</g>
<!-- Node6&#45;&gt;Node7 -->
<g id="edge6_Node000006_Node000007" class="edge">
<title>Node6&#45;&gt;Node7</title>
<g id="a_edge6_Node000006_Node000007"><a xlink:title=" ">
<path fill="none" stroke="#63b8ff" d="M506.87,-121.97C575.81,-118.74 805.68,-106.5 1006.24,-77.64"/>
<polygon fill="#63b8ff" stroke="#63b8ff" points="1006.69,-81.11 1016.08,-76.2 1005.68,-74.18 1006.69,-81.11"/>
</a>
</g>
</g>
<!-- Node14&#45;&gt;Node4 -->
<g id="edge19_Node000014_Node000004" class="edge">
<title>Node14&#45;&gt;Node4</title>
<g id="a_edge19_Node000014_Node000004"><a xlink:title=" ">
<path fill="none" stroke="#63b8ff" d="M1357.88,-116.52C1374.46,-109.73 1397.76,-97.19 1408.38,-77.5 1417.23,-61.08 1405.02,-42.41 1392.48,-29.11"/>
<polygon fill="#63b8ff" stroke="#63b8ff" points="1395.09,-26.77 1385.49,-22.28 1390.2,-31.77 1395.09,-26.77"/>
</a>
</g>
</g>
<!-- Node14&#45;&gt;Node7 -->
<g id="edge17_Node000014_Node000007" class="edge">
<title>Node14&#45;&gt;Node7</title>
<g id="a_edge17_Node000014_Node000007"><a xlink:title=" ">
<path fill="none" stroke="#63b8ff" d="M1321.05,-119.37C1277.09,-110.95 1164.52,-89.4 1100.24,-77.1"/>
<polygon fill="#63b8ff" stroke="#63b8ff" points="1101.17,-73.71 1090.69,-75.27 1099.86,-80.59 1101.17,-73.71"/>
</a>
</g>
</g>
<!-- Node15 -->
<g id="Node000015" class="node">
<title>Node15</title>
<g id="a_Node000015"><a xlink:title=" ">
<polygon fill="#e0e0e0" stroke="#999999" points="1399.25,-77.5 1307.5,-77.5 1307.5,-56.75 1399.25,-56.75 1399.25,-77.5"/>
<text xml:space="preserve" text-anchor="middle" x="1353.38" y="-64" font-family="Helvetica,sans-Serif" font-size="10.00">FreeRTOS_CLI.h</text>
</a>
</g>
</g>
<!-- Node14&#45;&gt;Node15 -->
<g id="edge18_Node000014_Node000015" class="edge">
<title>Node14&#45;&gt;Node15</title>
<g id="a_edge18_Node000014_Node000015"><a xlink:title=" ">
<path fill="none" stroke="#63b8ff" d="M1341.88,-113.09C1343.59,-106.39 1345.92,-97.26 1348.04,-88.98"/>
<polygon fill="#63b8ff" stroke="#63b8ff" points="1351.43,-89.85 1350.52,-79.29 1344.65,-88.12 1351.43,-89.85"/>
</a>
</g>
</g>
<!-- Node16&#45;&gt;Node3 -->
<g id="edge22_Node000016_Node000003" class="edge">
<title>Node16&#45;&gt;Node3</title>
<g id="a_edge22_Node000016_Node000003"><a xlink:title=" ">
<path fill="none" stroke="#63b8ff" d="M1322.82,-226.8C1342.27,-197.67 1399.61,-110.13 1408.38,-77.5 1410.77,-68.59 1414.72,-63.44 1408.38,-56.75 1380.58,-27.45 786.81,-15.28 602.47,-12.2"/>
<polygon fill="#63b8ff" stroke="#63b8ff" points="602.76,-8.71 592.7,-12.04 602.64,-15.71 602.76,-8.71"/>
</a>
</g>
</g>
<!-- Node17 -->
<g id="Node000017" class="node">
<title>Node17</title>
<g id="a_Node000017"><a xlink:title=" ">
<polygon fill="#e0e0e0" stroke="#999999" points="1403.25,-191 1371.5,-191 1371.5,-170.25 1403.25,-170.25 1403.25,-191"/>
<text xml:space="preserve" text-anchor="middle" x="1387.38" y="-177.5" font-family="Helvetica,sans-Serif" font-size="10.00">ff.h</text>
</a>
</g>
</g>
<!-- Node16&#45;&gt;Node17 -->
<g id="edge21_Node000016_Node000017" class="edge">
<title>Node16&#45;&gt;Node17</title>
<g id="a_edge21_Node000016_Node000017"><a xlink:title=" ">
<path fill="none" stroke="#63b8ff" d="M1329.07,-226.59C1339.27,-218.72 1353.82,-207.5 1365.83,-198.24"/>
<polygon fill="#63b8ff" stroke="#63b8ff" points="1367.81,-201.13 1373.59,-192.25 1363.54,-195.59 1367.81,-201.13"/>
</a>
</g>
</g>
<!-- Node18 -->
<g id="Node000018" class="node">
<title>Node18</title>
<g id="a_Node000018"><a xlink:title=" ">
<polygon fill="#e0e0e0" stroke="#999999" points="1475.5,-191 1421.25,-191 1421.25,-170.25 1475.5,-170.25 1475.5,-191"/>
<text xml:space="preserve" text-anchor="middle" x="1448.38" y="-177.5" font-family="Helvetica,sans-Serif" font-size="10.00">diskio.h</text>
</a>
</g>
</g>
<!-- Node16&#45;&gt;Node18 -->
<g id="edge23_Node000016_Node000018" class="edge">
<title>Node16&#45;&gt;Node18</title>
<g id="a_edge23_Node000016_Node000018"><a xlink:title=" ">
<path fill="none" stroke="#63b8ff" d="M1339.37,-226.84C1360.03,-218.27 1390.65,-205.57 1414.18,-195.81"/>
<polygon fill="#63b8ff" stroke="#63b8ff" points="1415.46,-199.07 1423.36,-192 1412.78,-192.6 1415.46,-199.07"/>
</a>
</g>
</g>
<!-- Node20&#45;&gt;Node2 -->
<g id="edge26_Node000020_Node000002" class="edge">
<title>Node20&#45;&gt;Node2</title>
<g id="a_edge26_Node000020_Node000002"><a xlink:title=" ">
<path fill="none" stroke="#63b8ff" d="M663.51,-169.76C690.48,-161.19 729.87,-148.04 763.38,-134.25 783,-126.18 786.92,-121.98 806.38,-113.5 832.44,-102.13 862.33,-90.47 885.24,-81.82"/>
<polygon fill="#63b8ff" stroke="#63b8ff" points="886.33,-85.15 894.46,-78.36 883.87,-78.6 886.33,-85.15"/>
</a>
</g>
</g>
<!-- Node20&#45;&gt;Node3 -->
<g id="edge29_Node000020_Node000003" class="edge">
<title>Node20&#45;&gt;Node3</title>
<g id="a_edge29_Node000020_Node000003"><a xlink:title=" ">
<path fill="none" stroke="#63b8ff" d="M623.47,-169.81C609.73,-152.3 581.38,-114.05 565.38,-77.5 559.03,-63.02 554.69,-45.68 551.98,-32.39"/>
<polygon fill="#63b8ff" stroke="#63b8ff" points="555.42,-31.79 550.14,-22.6 548.54,-33.07 555.42,-31.79"/>
</a>
</g>
</g>
<!-- Node20&#45;&gt;Node7 -->
<g id="edge27_Node000020_Node000007" class="edge">
<title>Node20&#45;&gt;Node7</title>
<g id="a_edge27_Node000020_Node000007"><a xlink:title=" ">
<path fill="none" stroke="#63b8ff" d="M667.82,-172.16C702.34,-164.54 755.31,-151.4 799.38,-134.25 818.04,-126.99 820.52,-120.25 839.38,-113.5 843.34,-112.08 944.64,-90.83 1006.42,-77.92"/>
<polygon fill="#63b8ff" stroke="#63b8ff" points="1006.91,-81.39 1015.98,-75.92 1005.48,-74.54 1006.91,-81.39"/>
</a>
</g>
</g>
<!-- Node20&#45;&gt;Node13 -->
<g id="edge28_Node000020_Node000013" class="edge">
<title>Node20&#45;&gt;Node13</title>
<g id="a_edge28_Node000020_Node000013"><a xlink:title=" ">
<path fill="none" stroke="#63b8ff" d="M667.75,-171.82C708.43,-163.01 776.24,-148.11 834.38,-134.25 835.2,-134.05 836.03,-133.85 836.87,-133.65"/>
<polygon fill="#63b8ff" stroke="#63b8ff" points="837.57,-137.08 846.44,-131.29 835.89,-130.29 837.57,-137.08"/>
</a>
</g>
</g>
<!-- Node21 -->
<g id="Node000021" class="node">
<title>Node21</title>
<g id="a_Node000021"><a xlink:title=" ">
<polygon fill="#e0e0e0" stroke="#999999" points="285.75,-77.5 227,-77.5 227,-56.75 285.75,-56.75 285.75,-77.5"/>
<text xml:space="preserve" text-anchor="middle" x="256.38" y="-64" font-family="Helvetica,sans-Serif" font-size="10.00">fsl_ftm.h</text>
</a>
</g>
</g>
<!-- Node20&#45;&gt;Node21 -->
<g id="edge30_Node000020_Node000021" class="edge">
<title>Node20&#45;&gt;Node21</title>
<g id="a_edge30_Node000020_Node000021"><a xlink:title=" ">
<path fill="none" stroke="#63b8ff" d="M594.78,-177.62C521.85,-173.11 361.26,-160.44 313.38,-134.25 293.5,-123.38 277.4,-102.65 267.44,-87.29"/>
<polygon fill="#63b8ff" stroke="#63b8ff" points="270.56,-85.68 262.35,-78.99 264.59,-89.34 270.56,-85.68"/>
</a>
</g>
</g>
<!-- Node22 -->
<g id="Node000022" class="node">
<title>Node22</title>
<g id="a_Node000022"><a xlink:title=" ">
<polygon fill="#e0e0e0" stroke="#999999" points="129,-77.5 65.75,-77.5 65.75,-56.75 129,-56.75 129,-77.5"/>
<text xml:space="preserve" text-anchor="middle" x="97.38" y="-64" font-family="Helvetica,sans-Serif" font-size="10.00">fsl_gpio.h</text>
</a>
</g>
</g>
<!-- Node20&#45;&gt;Node22 -->
<g id="edge31_Node000020_Node000022" class="edge">
<title>Node20&#45;&gt;Node22</title>
<g id="a_edge31_Node000020_Node000022"><a xlink:title=" ">
<path fill="none" stroke="#63b8ff" d="M594.89,-179.18C524.98,-177.49 367.89,-169.69 241.38,-134.25 198.39,-122.21 152.04,-98.86 123.86,-83.38"/>
<polygon fill="#63b8ff" stroke="#63b8ff" points="125.76,-80.43 115.32,-78.61 122.35,-86.54 125.76,-80.43"/>
</a>
</g>
</g>
<!-- Node23 -->
<g id="Node000023" class="node">
<title>Node23</title>
<g id="a_Node000023"><a xlink:title=" ">
<polygon fill="#e0e0e0" stroke="#999999" points="209.25,-77.5 147.5,-77.5 147.5,-56.75 209.25,-56.75 209.25,-77.5"/>
<text xml:space="preserve" text-anchor="middle" x="178.38" y="-64" font-family="Helvetica,sans-Serif" font-size="10.00">fsl_port.h</text>
</a>
</g>
</g>
<!-- Node20&#45;&gt;Node23 -->
<g id="edge32_Node000020_Node000023" class="edge">
<title>Node20&#45;&gt;Node23</title>
<g id="a_edge32_Node000020_Node000023"><a xlink:title=" ">
<path fill="none" stroke="#63b8ff" d="M594.85,-179.82C530.43,-179.08 393.25,-172.65 285.38,-134.25 253.02,-122.73 220.04,-100.41 199.41,-84.91"/>
<polygon fill="#63b8ff" stroke="#63b8ff" points="201.59,-82.17 191.53,-78.84 197.32,-87.72 201.59,-82.17"/>
</a>
</g>
</g>
<!-- Node24 -->
<g id="Node000024" class="node">
<title>Node24</title>
<g id="a_Node000024"><a xlink:href="cmd__handle_8h.html" target="_top" xlink:title=" ">
<polygon fill="white" stroke="#666666" points="754.5,-134.25 670.25,-134.25 670.25,-113.5 754.5,-113.5 754.5,-134.25"/>
<text xml:space="preserve" text-anchor="middle" x="712.38" y="-120.75" font-family="Helvetica,sans-Serif" font-size="10.00">cmd_handle.h</text>
</a>
</g>
</g>
<!-- Node20&#45;&gt;Node24 -->
<g id="edge33_Node000020_Node000024" class="edge">
<title>Node20&#45;&gt;Node24</title>
<g id="a_edge33_Node000020_Node000024"><a xlink:title=" ">
<path fill="none" stroke="#63b8ff" d="M645.86,-169.84C657.72,-161.82 674.75,-150.31 688.61,-140.94"/>
<polygon fill="#63b8ff" stroke="#63b8ff" points="690.44,-143.93 696.77,-135.43 686.52,-138.13 690.44,-143.93"/>
</a>
</g>
</g>
<!-- Node28 -->
<g id="Node000028" class="node">
<title>Node28</title>
<g id="a_Node000028"><a xlink:href="step__shared_8h.html" target="_top" xlink:title=" ">
<polygon fill="white" stroke="#666666" points="406.5,-134.25 322.25,-134.25 322.25,-113.5 406.5,-113.5 406.5,-134.25"/>
<text xml:space="preserve" text-anchor="middle" x="364.38" y="-120.75" font-family="Helvetica,sans-Serif" font-size="10.00">step_shared.h</text>
</a>
</g>
</g>
<!-- Node20&#45;&gt;Node28 -->
<g id="edge39_Node000020_Node000028" class="edge">
<title>Node20&#45;&gt;Node28</title>
<g id="a_edge39_Node000020_Node000028"><a xlink:title=" ">
<path fill="none" stroke="#63b8ff" d="M594.81,-172.13C549.04,-162.74 470.28,-146.59 417.77,-135.82"/>
<polygon fill="#63b8ff" stroke="#63b8ff" points="418.64,-132.43 408.14,-133.85 417.23,-139.29 418.64,-132.43"/>
</a>
</g>
</g>
<!-- Node24&#45;&gt;Node3 -->
<g id="edge37_Node000024_Node000003" class="edge">
<title>Node24&#45;&gt;Node3</title>
<g id="a_edge37_Node000024_Node000003"><a xlink:title=" ">
<path fill="none" stroke="#63b8ff" d="M669.89,-115.1C643.81,-108.6 611,-97.12 587.38,-77.5 572.65,-65.27 562.17,-45.95 555.81,-31.35"/>
<polygon fill="#63b8ff" stroke="#63b8ff" points="559.14,-30.24 552.16,-22.28 552.65,-32.86 559.14,-30.24"/>
</a>
</g>
</g>
<!-- Node24&#45;&gt;Node7 -->
<g id="edge35_Node000024_Node000007" class="edge">
<title>Node24&#45;&gt;Node7</title>
<g id="a_edge35_Node000024_Node000007"><a xlink:title=" ">
<path fill="none" stroke="#63b8ff" d="M754.65,-117.12C810.06,-109.41 910.52,-94.9 1006.48,-77.76"/>
<polygon fill="#63b8ff" stroke="#63b8ff" points="1006.84,-81.25 1016.06,-76.04 1005.6,-74.36 1006.84,-81.25"/>
</a>
</g>
</g>
<!-- Node25 -->
<g id="Node000025" class="node">
<title>Node25</title>
<g id="a_Node000025"><a xlink:title=" ">
<polygon fill="#e0e0e0" stroke="#999999" points="827.75,-77.5 775,-77.5 775,-56.75 827.75,-56.75 827.75,-77.5"/>
<text xml:space="preserve" text-anchor="middle" x="801.38" y="-64" font-family="Helvetica,sans-Serif" font-size="10.00">stdint.h</text>
</a>
</g>
</g>
<!-- Node24&#45;&gt;Node25 -->
<g id="edge34_Node000024_Node000025" class="edge">
<title>Node24&#45;&gt;Node25</title>
<g id="a_edge34_Node000024_Node000025"><a xlink:title=" ">
<path fill="none" stroke="#63b8ff" d="M728.29,-113.09C741.58,-104.91 760.76,-93.11 776.14,-83.65"/>
<polygon fill="#63b8ff" stroke="#63b8ff" points="777.63,-86.84 784.31,-78.62 773.96,-80.88 777.63,-86.84"/>
</a>
</g>
</g>
<!-- Node26 -->
<g id="Node000026" class="node">
<title>Node26</title>
<g id="a_Node000026"><a xlink:title=" ">
<polygon fill="#e0e0e0" stroke="#999999" points="686.88,-77.5 595.88,-77.5 595.88,-56.75 686.88,-56.75 686.88,-77.5"/>
<text xml:space="preserve" text-anchor="middle" x="641.38" y="-64" font-family="Helvetica,sans-Serif" font-size="10.00">event_groups.h</text>
</a>
</g>
</g>
<!-- Node24&#45;&gt;Node26 -->
<g id="edge36_Node000024_Node000026" class="edge">
<title>Node24&#45;&gt;Node26</title>
<g id="a_edge36_Node000024_Node000026"><a xlink:title=" ">
<path fill="none" stroke="#63b8ff" d="M699.68,-113.09C689.48,-105.22 674.93,-94 662.92,-84.74"/>
<polygon fill="#63b8ff" stroke="#63b8ff" points="665.21,-82.09 655.16,-78.75 660.94,-87.63 665.21,-82.09"/>
</a>
</g>
</g>
<!-- Node27 -->
<g id="Node000027" class="node">
<title>Node27</title>
<g id="a_Node000027"><a xlink:title=" ">
<polygon fill="#e0e0e0" stroke="#999999" points="757.38,-77.5 705.38,-77.5 705.38,-56.75 757.38,-56.75 757.38,-77.5"/>
<text xml:space="preserve" text-anchor="middle" x="731.38" y="-64" font-family="Helvetica,sans-Serif" font-size="10.00">stdlib.h</text>
</a>
</g>
</g>
<!-- Node24&#45;&gt;Node27 -->
<g id="edge38_Node000024_Node000027" class="edge">
<title>Node24&#45;&gt;Node27</title>
<g id="a_edge38_Node000024_Node000027"><a xlink:title=" ">
<path fill="none" stroke="#63b8ff" d="M715.77,-113.09C718.12,-106.31 721.34,-97.05 724.24,-88.69"/>
<polygon fill="#63b8ff" stroke="#63b8ff" points="727.54,-89.85 727.51,-79.26 720.93,-87.56 727.54,-89.85"/>
</a>
</g>
</g>
<!-- Node28&#45;&gt;Node2 -->
<g id="edge40_Node000028_Node000002" class="edge">
<title>Node28&#45;&gt;Node2</title>
<g id="a_edge40_Node000028_Node000002"><a xlink:title=" ">
<path fill="none" stroke="#63b8ff" d="M406.96,-118.53C422.79,-116.93 440.9,-115.11 457.38,-113.5 622.15,-97.37 666.17,-94.78 833.8,-77.75"/>
<polygon fill="#63b8ff" stroke="#63b8ff" points="833.93,-81.26 843.52,-76.76 833.22,-74.29 833.93,-81.26"/>
</a>
</g>
</g>
<!-- Node28&#45;&gt;Node3 -->
<g id="edge42_Node000028_Node000003" class="edge">
<title>Node28&#45;&gt;Node3</title>
<g id="a_edge42_Node000028_Node000003"><a xlink:title=" ">
<path fill="none" stroke="#63b8ff" d="M353.29,-113.11C339.13,-99.46 318.07,-74.38 332.38,-56.75 352.37,-32.12 436.87,-20.37 494.07,-15.14"/>
<polygon fill="#63b8ff" stroke="#63b8ff" points="494.3,-18.63 503.96,-14.28 493.69,-11.66 494.3,-18.63"/>
</a>
</g>
</g>
<!-- Node28&#45;&gt;Node21 -->
<g id="edge43_Node000028_Node000021" class="edge">
<title>Node28&#45;&gt;Node21</title>
<g id="a_edge43_Node000028_Node000021"><a xlink:title=" ">
<path fill="none" stroke="#63b8ff" d="M345.07,-113.09C328.56,-104.72 304.54,-92.54 285.67,-82.97"/>
<polygon fill="#63b8ff" stroke="#63b8ff" points="287.37,-79.91 276.87,-78.51 284.2,-86.16 287.37,-79.91"/>
</a>
</g>
</g>
<!-- Node28&#45;&gt;Node22 -->
<g id="edge44_Node000028_Node000022" class="edge">
<title>Node28&#45;&gt;Node22</title>
<g id="a_edge44_Node000028_Node000022"><a xlink:title=" ">
<path fill="none" stroke="#63b8ff" d="M321.82,-114.68C278.65,-106.29 209.61,-92.66 140.27,-77.86"/>
<polygon fill="#63b8ff" stroke="#63b8ff" points="141.13,-74.47 130.62,-75.79 139.66,-81.31 141.13,-74.47"/>
</a>
</g>
</g>
<!-- Node28&#45;&gt;Node23 -->
<g id="edge45_Node000028_Node000023" class="edge">
<title>Node28&#45;&gt;Node23</title>
<g id="a_edge45_Node000028_Node000023"><a xlink:title=" ">
<path fill="none" stroke="#63b8ff" d="M331.12,-113.09C300.14,-103.97 253.82,-90.33 220.32,-80.47"/>
<polygon fill="#63b8ff" stroke="#63b8ff" points="221.52,-77.18 210.94,-77.71 219.54,-83.89 221.52,-77.18"/>
</a>
</g>
</g>
<!-- Node29 -->
<g id="Node000029" class="node">
<title>Node29</title>
<g id="a_Node000029"><a xlink:title=" ">
<polygon fill="#e0e0e0" stroke="#999999" points="463.62,-77.5 341.12,-77.5 341.12,-56.75 463.62,-56.75 463.62,-77.5"/>
<text xml:space="preserve" text-anchor="middle" x="402.38" y="-64" font-family="Helvetica,sans-Serif" font-size="10.00">fsl_device_registers.h</text>
</a>
</g>
</g>
<!-- Node28&#45;&gt;Node29 -->
<g id="edge41_Node000028_Node000029" class="edge">
<title>Node28&#45;&gt;Node29</title>
<g id="a_edge41_Node000028_Node000029"><a xlink:title=" ">
<path fill="none" stroke="#63b8ff" d="M371.17,-113.09C376.14,-105.92 383.04,-95.98 389.1,-87.26"/>
<polygon fill="#63b8ff" stroke="#63b8ff" points="391.95,-89.28 394.78,-79.07 386.2,-85.29 391.95,-89.28"/>
</a>
</g>
</g>
<!-- Node30&#45;&gt;Node3 -->
<g id="edge49_Node000030_Node000003" class="edge">
<title>Node30&#45;&gt;Node3</title>
<g id="a_edge49_Node000030_Node000003"><a xlink:title=" ">
<path fill="none" stroke="#63b8ff" d="M1157.35,-170.02C1151.72,-160.92 1143.18,-146.82 1136.38,-134.25 1118.11,-100.52 1130.07,-78.37 1098.38,-56.75 1058.04,-29.24 733.21,-16.77 602.53,-12.83"/>
<polygon fill="#63b8ff" stroke="#63b8ff" points="602.85,-9.34 592.76,-12.54 602.65,-16.34 602.85,-9.34"/>
</a>
</g>
</g>
<!-- Node30&#45;&gt;Node4 -->
<g id="edge51_Node000030_Node000004" class="edge">
<title>Node30&#45;&gt;Node4</title>
<g id="a_edge51_Node000030_Node000004"><a xlink:title=" ">
<path fill="none" stroke="#63b8ff" d="M1198.2,-169.78C1218.38,-162.62 1243.13,-151.18 1260.38,-134.25 1287.75,-107.37 1272.56,-85.12 1298.38,-56.75 1309.88,-44.1 1325.73,-33.75 1339.8,-26.15"/>
<polygon fill="#63b8ff" stroke="#63b8ff" points="1341,-29.47 1348.3,-21.79 1337.81,-23.24 1341,-29.47"/>
</a>
</g>
</g>
<!-- Node30&#45;&gt;Node24 -->
<g id="edge50_Node000030_Node000024" class="edge">
<title>Node30&#45;&gt;Node24</title>
<g id="a_edge50_Node000030_Node000024"><a xlink:title=" ">
<path fill="none" stroke="#63b8ff" d="M1115.96,-173.87C1031.36,-163.6 854.92,-142.18 766.02,-131.39"/>
<polygon fill="#63b8ff" stroke="#63b8ff" points="766.7,-127.94 756.35,-130.21 765.86,-134.89 766.7,-127.94"/>
</a>
</g>
</g>
<!-- Node31 -->
<g id="Node000031" class="node">
<title>Node31</title>
<g id="a_Node000031"><a xlink:href="tmc2209__shared_8h.html" target="_top" xlink:title=" ">
<polygon fill="white" stroke="#666666" points="1251.38,-134.25 1145.38,-134.25 1145.38,-113.5 1251.38,-113.5 1251.38,-134.25"/>
<text xml:space="preserve" text-anchor="middle" x="1198.38" y="-120.75" font-family="Helvetica,sans-Serif" font-size="10.00">tmc2209_shared.h</text>
</a>
</g>
</g>
<!-- Node30&#45;&gt;Node31 -->
<g id="edge47_Node000030_Node000031" class="edge">
<title>Node30&#45;&gt;Node31</title>
<g id="a_edge47_Node000030_Node000031"><a xlink:title=" ">
<path fill="none" stroke="#63b8ff" d="M1169.63,-169.84C1174.21,-162.67 1180.57,-152.73 1186.14,-144.01"/>
<polygon fill="#63b8ff" stroke="#63b8ff" points="1188.92,-146.16 1191.36,-135.85 1183.02,-142.39 1188.92,-146.16"/>
</a>
</g>
</g>
<!-- Node32 -->
<g id="Node000032" class="node">
<title>Node32</title>
<g id="a_Node000032"><a xlink:title=" ">
<polygon fill="#e0e0e0" stroke="#999999" points="1251,-77.5 1145.75,-77.5 1145.75,-56.75 1251,-56.75 1251,-77.5"/>
<text xml:space="preserve" text-anchor="middle" x="1198.38" y="-64" font-family="Helvetica,sans-Serif" font-size="10.00">fsl_uart_freertos.h</text>
</a>
</g>
</g>
<!-- Node31&#45;&gt;Node32 -->
<g id="edge48_Node000031_Node000032" class="edge">
<title>Node31&#45;&gt;Node32</title>
<g id="a_edge48_Node000031_Node000032"><a xlink:title=" ">
<path fill="none" stroke="#63b8ff" d="M1198.38,-113.09C1198.38,-106.47 1198.38,-97.47 1198.38,-89.27"/>
<polygon fill="#63b8ff" stroke="#63b8ff" points="1201.88,-89.34 1198.38,-79.34 1194.88,-89.34 1201.88,-89.34"/>
</a>
</g>
</g>
<!-- Node33&#45;&gt;Node2 -->
<g id="edge53_Node000033_Node000002" class="edge">
<title>Node33&#45;&gt;Node2</title>
<g id="a_edge53_Node000033_Node000002"><a xlink:title=" ">
<path fill="none" stroke="#63b8ff" d="M539.46,-232.81C619.13,-221.8 850.4,-185.95 903.38,-134.25 915.41,-122.51 919.95,-103.68 921.61,-89.12"/>
<polygon fill="#63b8ff" stroke="#63b8ff" points="925.09,-89.44 922.32,-79.21 918.11,-88.93 925.09,-89.44"/>
</a>
</g>
</g>
<!-- Node33&#45;&gt;Node20 -->
<g id="edge54_Node000033_Node000020" class="edge">
<title>Node33&#45;&gt;Node20</title>
<g id="a_edge54_Node000033_Node000020"><a xlink:title=" ">
<path fill="none" stroke="#63b8ff" d="M533.65,-226.59C552.09,-218.1 579.04,-205.7 599.97,-196.08"/>
<polygon fill="#63b8ff" stroke="#63b8ff" points="601.29,-199.32 608.91,-191.96 598.36,-192.96 601.29,-199.32"/>
</a>
</g>
</g>
<!-- Node33&#45;&gt;Node21 -->
<g id="edge56_Node000033_Node000021" class="edge">
<title>Node33&#45;&gt;Node21</title>
<g id="a_edge56_Node000033_Node000021"><a xlink:title=" ">
<path fill="none" stroke="#63b8ff" d="M485.31,-230.89C438.68,-220.14 342.7,-192.12 285.38,-134.25 272.97,-121.73 265.44,-103.01 261.18,-88.68"/>
<polygon fill="#63b8ff" stroke="#63b8ff" points="264.66,-88.14 258.71,-79.37 257.89,-89.94 264.66,-88.14"/>
</a>
</g>
</g>
<!-- Node33&#45;&gt;Node22 -->
<g id="edge57_Node000033_Node000022" class="edge">
<title>Node33&#45;&gt;Node22</title>
<g id="a_edge57_Node000033_Node000022"><a xlink:title=" ">
<path fill="none" stroke="#63b8ff" d="M485.28,-233.81C441.78,-229.08 354.16,-216.97 284.38,-191 236.48,-173.17 227.03,-162.39 184.38,-134.25 160.72,-118.65 135.06,-98.75 117.78,-84.87"/>
<polygon fill="#63b8ff" stroke="#63b8ff" points="120.26,-82.38 110.28,-78.8 115.85,-87.81 120.26,-82.38"/>
</a>
</g>
</g>
<!-- Node33&#45;&gt;Node23 -->
<g id="edge58_Node000033_Node000023" class="edge">
<title>Node33&#45;&gt;Node23</title>
<g id="a_edge58_Node000033_Node000023"><a xlink:title=" ">
<path fill="none" stroke="#63b8ff" d="M485.28,-232.43C448.93,-226.52 382.88,-213.57 330.38,-191 287.28,-172.47 277.6,-164.06 241.38,-134.25 223.67,-119.68 205.86,-100.47 193.72,-86.51"/>
<polygon fill="#63b8ff" stroke="#63b8ff" points="196.43,-84.29 187.27,-78.96 191.1,-88.83 196.43,-84.29"/>
</a>
</g>
</g>
<!-- Node33&#45;&gt;Node30 -->
<g id="edge55_Node000033_Node000030" class="edge">
<title>Node33&#45;&gt;Node30</title>
<g id="a_edge55_Node000033_Node000030"><a xlink:title=" ">
<path fill="none" stroke="#63b8ff" d="M539.52,-234.09C636.67,-225.92 968.52,-198.01 1104.52,-186.57"/>
<polygon fill="#63b8ff" stroke="#63b8ff" points="1104.72,-190.07 1114.39,-185.74 1104.13,-183.1 1104.72,-190.07"/>
</a>
</g>
</g>
<!-- Node34&#45;&gt;Node3 -->
<g id="edge60_Node000034_Node000003" class="edge">
<title>Node34&#45;&gt;Node3</title>
<g id="a_edge60_Node000034_Node000003"><a xlink:title=" ">
<path fill="none" stroke="#63b8ff" d="M36.29,-169.88C31.9,-146.48 24.61,-86.86 56.38,-56.75 87.66,-27.09 373.16,-16.03 494.36,-12.65"/>
<polygon fill="#63b8ff" stroke="#63b8ff" points="494.15,-16.16 504.05,-12.39 493.96,-9.16 494.15,-16.16"/>
</a>
</g>
</g>
</g>
</svg>

<g id="navigator" transform="translate(0 0)" fill="#404254">
  <rect fill="#f2f5e9" fill-opacity="0.5" stroke="#606060" stroke-width=".5" x="0" y="0" width="60" height="60"/>
  <use id="zoomplus" xlink:href="#zoomPlus" x="17" y="9" onmousedown="handleZoom(evt,'in')"/>
  <use id="zoomminus" xlink:href="#zoomMin" x="42" y="9" onmousedown="handleZoom(evt,'out')"/>
  <use id="reset" xlink:href="#resetDef" x="30" y="36" onmousedown="handleReset()"/>
   <use id="arrowup" xlink:href="#arrowUp" x="0" y="0" onmousedown="handlePan(0,-1)"/>
  <use id="arrowright" xlink:href="#arrowRight" x="0" y="0" onmousedown="handlePan(1,0)"/>
  <use id="arrowdown" xlink:href="#arrowDown" x="0" y="0" onmousedown="handlePan(0,1)"/>
  <use id="arrowleft" xlink:href="#arrowLeft" x="0" y="0" onmousedown="handlePan(-1,0)"/>
</g>
<svg viewBox="0 0 15 15" width="100%" height="30px" preserveAspectRatio="xMaxYMin meet">
 <g id="arrow_out" transform="scale(0.3 0.3)">
  <a xlink:href="application_8c__incl_org.svg" target="_base">
   <rect id="button" ry="5" rx="5" y="6" x="6" height="38" width="38"
        fill="#f2f5e9" fill-opacity="0.5" stroke="#606060" stroke-width="1.0"/>
   <path id="arrow"
     d="M 11.500037,31.436501 C 11.940474,20.09759 22.043105,11.32322 32.158766,21.979434 L 37.068811,17.246167 C 37.068811,17.246167 37.088388,32 37.088388,32 L 22.160133,31.978069 C 22.160133,31.978069 26.997745,27.140456 26.997745,27.140456 C 18.528582,18.264221 13.291696,25.230495 11.500037,31.436501 z"
     style="fill:#404040;"/>
  </a>
 </g>
</svg>

<style type='text/css'>
<![CDATA[
[data-mouse-over-selected='false'] { opacity: 0.7; }
[data-mouse-over-selected='true']  { opacity: 1.0; }
]]>
</style>
<script type="application/ecmascript"><![CDATA[
document.addEventListener('DOMContentLoaded', (event) => {
  highlightEdges();
  highlightAdjacentNodes();
});
]]></script>
</svg>
