<?xml version="1.0" encoding="UTF-8" standalone="no"?>
<!DOCTYPE svg PUBLIC "-//W3C//DTD SVG 1.1//EN"
 "http://www.w3.org/Graphics/SVG/1.1/DTD/svg11.dtd">
<!-- Generated by graphviz version 14.1.3 (0)
 -->
<!-- Title: source/application.h Pages: 1 -->
<svg width="224pt" height="86pt"
 viewBox="0.00 0.00 224.00 86.00" xmlns="http://www.w3.org/2000/svg" xmlns:xlink="http://www.w3.org/1999/xlink">
<g id="graph0" class="graph" transform="scale(1 1) rotate(0) translate(4 81.5)">
<title>source/application.h</title>
<!-- Node1 -->
<g id="Node000001" class="node">
<title>Node1</title>
<g id="a_Node000001"><a xlink:title=" ">
<polygon fill="#999999" stroke="#666666" points="171.88,-77.5 57.62,-77.5 57.62,-56.75 171.88,-56.75 171.88,-77.5"/>
<text xml:space="preserve" text-anchor="middle" x="114.75" y="-64" font-family="Helvetica,sans-Serif" font-size="10.00">source/application.h</text>
</a>
</g>
</g>
<!-- Node2 -->
<g id="Node000002" class="node">
<title>Node2</title>
<g id="a_Node000002"><a xlink:href="application_8c.html" target="_top" xlink:title=" ">
<polygon fill="white" stroke="#666666" points="113.5,-20.75 0,-20.75 0,0 113.5,0 113.5,-20.75"/>
<text xml:space="preserve" text-anchor="middle" x="56.75" y="-7.25" font-family="Helvetica,sans-Serif" font-size="10.00">source/application.c</text>
</a>
</g>
</g>
<!-- Node1&#45;&gt;Node2 -->
<g id="edge1_Node000001_Node000002" class="edge">
<title>Node1&#45;&gt;Node2</title>
<g id="a_edge1_Node000001_Node000002"><a xlink:title=" ">
<path fill="none" stroke="#63b8ff" d="M96.16,-48.58C86.51,-39.47 75.09,-28.68 67.03,-21.08"/>
<polygon fill="#63b8ff" stroke="#63b8ff" points="93.61,-50.98 103.28,-55.3 98.41,-45.89 93.61,-50.98"/>
</a>
</g>
</g>
<!-- Node3 -->
<g id="Node000003" class="node">
<title>Node3</title>
<g id="a_Node000003"><a xlink:href="main_8c.html" target="_top" xlink:title=" ">
<polygon fill="white" stroke="#666666" points="215.88,-20.75 131.62,-20.75 131.62,0 215.88,0 215.88,-20.75"/>
<text xml:space="preserve" text-anchor="middle" x="173.75" y="-7.25" font-family="Helvetica,sans-Serif" font-size="10.00">source/main.c</text>
</a>
</g>
</g>
<!-- Node1&#45;&gt;Node3 -->
<g id="edge2_Node000001_Node000003" class="edge">
<title>Node1&#45;&gt;Node3</title>
<g id="a_edge2_Node000001_Node000003"><a xlink:title=" ">
<path fill="none" stroke="#63b8ff" d="M133.66,-48.58C143.47,-39.47 155.1,-28.68 163.29,-21.08"/>
<polygon fill="#63b8ff" stroke="#63b8ff" points="131.36,-45.94 126.41,-55.31 136.12,-51.07 131.36,-45.94"/>
</a>
</g>
</g>
</g>
</svg>
