<?xml version="1.0" encoding="UTF-8" standalone="no"?>
<!DOCTYPE svg PUBLIC "-//W3C//DTD SVG 1.1//EN"
 "http://www.w3.org/Graphics/SVG/1.1/DTD/svg11.dtd">
<!-- Generated by graphviz version 14.1.4 (0)
 -->
<!-- Title: source/application.c Pages: 1 -->
<svg width="1617pt" height="313pt"
 viewBox="0.00 0.00 1617.00 313.00" xmlns="http://www.w3.org/2000/svg" xmlns:xlink="http://www.w3.org/1999/xlink">
<g id="graph0" class="graph" transform="scale(1 1) rotate(0) translate(4 308.5)">
<title>source/application.c</title>
<!-- Node1 -->
<g id="Node000001" class="node">
<title>Node1</title>
<g id="a_Node000001"><a xlink:title=" ">
<polygon fill="#999999" stroke="#666666" points="674.75,-304.5 561.25,-304.5 561.25,-283.75 674.75,-283.75 674.75,-304.5"/>
<text xml:space="preserve" text-anchor="middle" x="618" y="-291" font-family="Helvetica,sans-Serif" font-size="10.00">source/application.c</text>
</a>
</g>
</g>
<!-- Node2 -->
<g id="Node000002" class="node">
<title>Node2</title>
<g id="a_Node000002"><a xlink:href="pca9555a_8h.html" target="_top" xlink:title=" ">
<polygon fill="white" stroke="#666666" points="659,-77.5 505,-77.5 505,-56.75 659,-56.75 659,-77.5"/>
<text xml:space="preserve" text-anchor="middle" x="582" y="-64" font-family="Helvetica,sans-Serif" font-size="10.00">driver/pca9555a/pca9555a.h</text>
</a>
</g>
</g>
<!-- Node1&#45;&gt;Node2 -->
<g id="edge1_Node000001_Node000002" class="edge">
<title>Node1&#45;&gt;Node2</title>
<g id="a_edge1_Node000001_Node000002"><a xlink:title=" ">
<path fill="none" stroke="#63b8ff" d="M650.99,-283.34C684.22,-271.84 727.83,-251.23 707,-227 637.55,-146.2 539.45,-271.8 470,-191 435.84,-151.26 506.45,-106.1 550.41,-83.18"/>
<polygon fill="#63b8ff" stroke="#63b8ff" points="551.98,-86.31 559.32,-78.67 548.82,-80.06 551.98,-86.31"/>
</a>
</g>
</g>
<!-- Node4 -->
<g id="Node000004" class="node">
<title>Node4</title>
<g id="a_Node000004"><a xlink:title=" ">
<polygon fill="#e0e0e0" stroke="#999999" points="352.88,-20.75 273.12,-20.75 273.12,0 352.88,0 352.88,-20.75"/>
<text xml:space="preserve" text-anchor="middle" x="313" y="-7.25" font-family="Helvetica,sans-Serif" font-size="10.00">peripherals.h</text>
</a>
</g>
</g>
<!-- Node1&#45;&gt;Node4 -->
<g id="edge11_Node000001_Node000004" class="edge">
<title>Node1&#45;&gt;Node4</title>
<g id="a_edge11_Node000001_Node000004"><a xlink:title=" ">
<path fill="none" stroke="#63b8ff" d="M560.9,-291.47C424.3,-287.1 86.79,-273.79 43,-247.75 12.87,-229.83 0,-216.68 0,-181.62 0,-181.62 0,-181.62 0,-122.88 0,-83.78 23.95,-75.95 58,-56.75 121.68,-20.84 207.32,-12.24 261.34,-10.75"/>
<polygon fill="#63b8ff" stroke="#63b8ff" points="261.26,-14.25 271.19,-10.55 261.12,-7.25 261.26,-14.25"/>
</a>
</g>
</g>
<!-- Node5 -->
<g id="Node000005" class="node">
<title>Node5</title>
<g id="a_Node000005"><a xlink:href="application_8h.html" target="_top" xlink:title=" ">
<polygon fill="white" stroke="#666666" points="145.5,-247.75 66.5,-247.75 66.5,-227 145.5,-227 145.5,-247.75"/>
<text xml:space="preserve" text-anchor="middle" x="106" y="-234.25" font-family="Helvetica,sans-Serif" font-size="10.00">application.h</text>
</a>
</g>
</g>
<!-- Node1&#45;&gt;Node5 -->
<g id="edge4_Node000001_Node000005" class="edge">
<title>Node1&#45;&gt;Node5</title>
<g id="a_edge4_Node000001_Node000005"><a xlink:title=" ">
<path fill="none" stroke="#63b8ff" d="M561.08,-288.83C474.32,-281.99 303.9,-267.34 160,-247.75 158.99,-247.61 157.97,-247.47 156.94,-247.32"/>
<polygon fill="#63b8ff" stroke="#63b8ff" points="157.67,-243.89 147.26,-245.85 156.61,-250.81 157.67,-243.89"/>
</a>
</g>
</g>
<!-- Node6 -->
<g id="Node000006" class="node">
<title>Node6</title>
<g id="a_Node000006"><a xlink:href="log_8h.html" target="_top" xlink:title=" ">
<polygon fill="white" stroke="#666666" points="208,-134.25 168,-134.25 168,-113.5 208,-113.5 208,-134.25"/>
<text xml:space="preserve" text-anchor="middle" x="188" y="-120.75" font-family="Helvetica,sans-Serif" font-size="10.00">log.h</text>
</a>
</g>
</g>
<!-- Node1&#45;&gt;Node6 -->
<g id="edge5_Node000001_Node000006" class="edge">
<title>Node1&#45;&gt;Node6</title>
<g id="a_edge5_Node000001_Node000006"><a xlink:title=" ">
<path fill="none" stroke="#63b8ff" d="M642.83,-283.35C670.51,-271.06 709.02,-248.92 690,-227 652.78,-184.11 492.65,-202.31 437,-191 357.8,-174.91 266.36,-148.59 219.41,-134.5"/>
<polygon fill="#63b8ff" stroke="#63b8ff" points="220.5,-131.17 209.91,-131.63 218.47,-137.87 220.5,-131.17"/>
</a>
</g>
</g>
<!-- Node7 -->
<g id="Node000007" class="node">
<title>Node7</title>
<g id="a_Node000007"><a xlink:title=" ">
<polygon fill="#e0e0e0" stroke="#999999" points="296.75,-77.5 225.25,-77.5 225.25,-56.75 296.75,-56.75 296.75,-77.5"/>
<text xml:space="preserve" text-anchor="middle" x="261" y="-64" font-family="Helvetica,sans-Serif" font-size="10.00">FreeRTOS.h</text>
</a>
</g>
</g>
<!-- Node1&#45;&gt;Node7 -->
<g id="edge14_Node000001_Node000007" class="edge">
<title>Node1&#45;&gt;Node7</title>
<g id="a_edge14_Node000001_Node000007"><a xlink:title=" ">
<path fill="none" stroke="#63b8ff" d="M560.97,-290.68C457.17,-285.64 246.02,-272.45 224,-247.75 183.12,-201.89 224.88,-123.12 247.93,-87.1"/>
<polygon fill="#63b8ff" stroke="#63b8ff" points="250.68,-89.29 253.28,-79.02 244.84,-85.43 250.68,-89.29"/>
</a>
</g>
</g>
<!-- Node8 -->
<g id="Node000008" class="node">
<title>Node8</title>
<g id="a_Node000008"><a xlink:title=" ">
<polygon fill="#e0e0e0" stroke="#999999" points="292.38,-247.75 239.62,-247.75 239.62,-227 292.38,-227 292.38,-247.75"/>
<text xml:space="preserve" text-anchor="middle" x="266" y="-234.25" font-family="Helvetica,sans-Serif" font-size="10.00">board.h</text>
</a>
</g>
</g>
<!-- Node1&#45;&gt;Node8 -->
<g id="edge8_Node000001_Node000008" class="edge">
<title>Node1&#45;&gt;Node8</title>
<g id="a_edge8_Node000001_Node000008"><a xlink:title=" ">
<path fill="none" stroke="#63b8ff" d="M560.96,-287.04C499.65,-280.04 399.16,-267.23 303.96,-248.17"/>
<polygon fill="#63b8ff" stroke="#63b8ff" points="304.65,-244.74 294.16,-246.17 303.26,-251.6 304.65,-244.74"/>
</a>
</g>
</g>
<!-- Node9 -->
<g id="Node000009" class="node">
<title>Node9</title>
<g id="a_Node000009"><a xlink:title=" ">
<polygon fill="#e0e0e0" stroke="#999999" points="395.5,-247.75 310.5,-247.75 310.5,-227 395.5,-227 395.5,-247.75"/>
<text xml:space="preserve" text-anchor="middle" x="353" y="-234.25" font-family="Helvetica,sans-Serif" font-size="10.00">clock_config.h</text>
</a>
</g>
</g>
<!-- Node1&#45;&gt;Node9 -->
<g id="edge9_Node000001_Node000009" class="edge">
<title>Node1&#45;&gt;Node9</title>
<g id="a_edge9_Node000001_Node000009"><a xlink:title=" ">
<path fill="none" stroke="#63b8ff" d="M570.32,-283.27C524.38,-273.78 454.97,-259.44 407.02,-249.53"/>
<polygon fill="#63b8ff" stroke="#63b8ff" points="407.9,-246.14 397.4,-247.55 406.49,-253 407.9,-246.14"/>
</a>
</g>
</g>
<!-- Node10 -->
<g id="Node000010" class="node">
<title>Node10</title>
<g id="a_Node000010"><a xlink:title=" ">
<polygon fill="#e0e0e0" stroke="#999999" points="528.5,-247.75 413.5,-247.75 413.5,-227 528.5,-227 528.5,-247.75"/>
<text xml:space="preserve" text-anchor="middle" x="471" y="-234.25" font-family="Helvetica,sans-Serif" font-size="10.00">fsl_debug_console.h</text>
</a>
</g>
</g>
<!-- Node1&#45;&gt;Node10 -->
<g id="edge10_Node000001_Node000010" class="edge">
<title>Node1&#45;&gt;Node10</title>
<g id="a_edge10_Node000001_Node000010"><a xlink:title=" ">
<path fill="none" stroke="#63b8ff" d="M591.72,-283.34C568.31,-274.62 533.81,-261.77 507.68,-252.04"/>
<polygon fill="#63b8ff" stroke="#63b8ff" points="509.06,-248.82 498.47,-248.61 506.62,-255.38 509.06,-248.82"/>
</a>
</g>
</g>
<!-- Node11 -->
<g id="Node000011" class="node">
<title>Node11</title>
<g id="a_Node000011"><a xlink:title=" ">
<polygon fill="#e0e0e0" stroke="#999999" points="613.5,-247.75 546.5,-247.75 546.5,-227 613.5,-227 613.5,-247.75"/>
<text xml:space="preserve" text-anchor="middle" x="580" y="-234.25" font-family="Helvetica,sans-Serif" font-size="10.00">pin_mux.h</text>
</a>
</g>
</g>
<!-- Node1&#45;&gt;Node11 -->
<g id="edge12_Node000001_Node000011" class="edge">
<title>Node1&#45;&gt;Node11</title>
<g id="a_edge12_Node000001_Node000011"><a xlink:title=" ">
<path fill="none" stroke="#63b8ff" d="M611.21,-283.34C606.23,-276.17 599.33,-266.23 593.28,-257.51"/>
<polygon fill="#63b8ff" stroke="#63b8ff" points="596.18,-255.54 587.6,-249.32 590.42,-259.53 596.18,-255.54"/>
</a>
</g>
</g>
<!-- Node12 -->
<g id="Node000012" class="node">
<title>Node12</title>
<g id="a_Node000012"><a xlink:title=" ">
<polygon fill="#e0e0e0" stroke="#999999" points="680.5,-247.75 631.5,-247.75 631.5,-227 680.5,-227 680.5,-247.75"/>
<text xml:space="preserve" text-anchor="middle" x="656" y="-234.25" font-family="Helvetica,sans-Serif" font-size="10.00">stdio.h</text>
</a>
</g>
</g>
<!-- Node1&#45;&gt;Node12 -->
<g id="edge13_Node000001_Node000012" class="edge">
<title>Node1&#45;&gt;Node12</title>
<g id="a_edge13_Node000001_Node000012"><a xlink:title=" ">
<path fill="none" stroke="#63b8ff" d="M624.79,-283.34C629.77,-276.17 636.67,-266.23 642.72,-257.51"/>
<polygon fill="#63b8ff" stroke="#63b8ff" points="645.58,-259.53 648.4,-249.32 639.82,-255.54 645.58,-259.53"/>
</a>
</g>
</g>
<!-- Node13 -->
<g id="Node000013" class="node">
<title>Node13</title>
<g id="a_Node000013"><a xlink:title=" ">
<polygon fill="#e0e0e0" stroke="#999999" points="321,-134.25 275,-134.25 275,-113.5 321,-113.5 321,-134.25"/>
<text xml:space="preserve" text-anchor="middle" x="298" y="-120.75" font-family="Helvetica,sans-Serif" font-size="10.00">task.h</text>
</a>
</g>
</g>
<!-- Node1&#45;&gt;Node13 -->
<g id="edge15_Node000001_Node000013" class="edge">
<title>Node1&#45;&gt;Node13</title>
<g id="a_edge15_Node000001_Node000013"><a xlink:title=" ">
<path fill="none" stroke="#63b8ff" d="M560.78,-290.54C458.4,-285.33 252.53,-271.95 231,-247.75 215.92,-230.8 258.51,-173.17 282.65,-143.25"/>
<polygon fill="#63b8ff" stroke="#63b8ff" points="285.15,-145.72 288.78,-135.76 279.73,-141.28 285.15,-145.72"/>
</a>
</g>
</g>
<!-- Node14 -->
<g id="Node000014" class="node">
<title>Node14</title>
<g id="a_Node000014"><a xlink:href="cli_8h.html" target="_top" xlink:title=" ">
<polygon fill="white" stroke="#666666" points="104.12,-134.25 67.88,-134.25 67.88,-113.5 104.12,-113.5 104.12,-134.25"/>
<text xml:space="preserve" text-anchor="middle" x="86" y="-120.75" font-family="Helvetica,sans-Serif" font-size="10.00">cli.h</text>
</a>
</g>
</g>
<!-- Node1&#45;&gt;Node14 -->
<g id="edge16_Node000001_Node000014" class="edge">
<title>Node1&#45;&gt;Node14</title>
<g id="a_edge16_Node000001_Node000014"><a xlink:title=" ">
<path fill="none" stroke="#63b8ff" d="M560.9,-292.79C424.91,-291.4 90.68,-284.27 57,-247.75 30.5,-219.02 54.99,-170.69 72.29,-144.01"/>
<polygon fill="#63b8ff" stroke="#63b8ff" points="75.09,-146.12 77.82,-135.88 69.3,-142.18 75.09,-146.12"/>
</a>
</g>
</g>
<!-- Node16 -->
<g id="Node000016" class="node">
<title>Node16</title>
<g id="a_Node000016"><a xlink:href="disk_8h.html" target="_top" xlink:title=" ">
<polygon fill="white" stroke="#666666" points="820.62,-247.75 775.38,-247.75 775.38,-227 820.62,-227 820.62,-247.75"/>
<text xml:space="preserve" text-anchor="middle" x="798" y="-234.25" font-family="Helvetica,sans-Serif" font-size="10.00">disk.h</text>
</a>
</g>
</g>
<!-- Node1&#45;&gt;Node16 -->
<g id="edge20_Node000001_Node000016" class="edge">
<title>Node1&#45;&gt;Node16</title>
<g id="a_edge20_Node000001_Node000016"><a xlink:title=" ">
<path fill="none" stroke="#63b8ff" d="M650.18,-283.34C682.29,-273.57 731.44,-258.62 764.13,-248.68"/>
<polygon fill="#63b8ff" stroke="#63b8ff" points="764.96,-252.08 773.5,-245.83 762.92,-245.39 764.96,-252.08"/>
</a>
</g>
</g>
<!-- Node19 -->
<g id="Node000019" class="node">
<title>Node19</title>
<g id="a_Node000019"><a xlink:href="motor__test_8h.html" target="_top" xlink:title=" ">
<polygon fill="white" stroke="#666666" points="917.12,-247.75 838.88,-247.75 838.88,-227 917.12,-227 917.12,-247.75"/>
<text xml:space="preserve" text-anchor="middle" x="878" y="-234.25" font-family="Helvetica,sans-Serif" font-size="10.00">motor_test.h</text>
</a>
</g>
</g>
<!-- Node1&#45;&gt;Node19 -->
<g id="edge24_Node000001_Node000019" class="edge">
<title>Node1&#45;&gt;Node19</title>
<g id="a_edge24_Node000001_Node000019"><a xlink:title=" ">
<path fill="none" stroke="#63b8ff" d="M664.78,-283.27C710.57,-273.63 780.12,-258.99 827.23,-249.07"/>
<polygon fill="#63b8ff" stroke="#63b8ff" points="827.85,-252.51 836.92,-247.03 826.41,-245.66 827.85,-252.51"/>
</a>
</g>
</g>
<!-- Node20 -->
<g id="Node000020" class="node">
<title>Node20</title>
<g id="a_Node000020"><a xlink:href="step__core_8h.html" target="_top" xlink:title=" ">
<polygon fill="white" stroke="#666666" points="977.12,-191 904.88,-191 904.88,-170.25 977.12,-170.25 977.12,-191"/>
<text xml:space="preserve" text-anchor="middle" x="941" y="-177.5" font-family="Helvetica,sans-Serif" font-size="10.00">step_core.h</text>
</a>
</g>
</g>
<!-- Node1&#45;&gt;Node20 -->
<g id="edge25_Node000001_Node000020" class="edge">
<title>Node1&#45;&gt;Node20</title>
<g id="a_edge25_Node000001_Node000020"><a xlink:title=" ">
<path fill="none" stroke="#63b8ff" d="M675.2,-292.2C754.07,-289.71 890.51,-280.62 926,-247.75 938.28,-236.38 941.55,-217.24 942.02,-202.47"/>
<polygon fill="#63b8ff" stroke="#63b8ff" points="945.53,-202.83 941.92,-192.87 938.53,-202.91 945.53,-202.83"/>
</a>
</g>
</g>
<!-- Node30 -->
<g id="Node000030" class="node">
<title>Node30</title>
<g id="a_Node000030"><a xlink:href="tmc2209__core_8h.html" target="_top" xlink:title=" ">
<polygon fill="white" stroke="#666666" points="1279,-191 1185,-191 1185,-170.25 1279,-170.25 1279,-191"/>
<text xml:space="preserve" text-anchor="middle" x="1232" y="-177.5" font-family="Helvetica,sans-Serif" font-size="10.00">tmc2209_core.h</text>
</a>
</g>
</g>
<!-- Node1&#45;&gt;Node30 -->
<g id="edge46_Node000001_Node000030" class="edge">
<title>Node1&#45;&gt;Node30</title>
<g id="a_edge46_Node000001_Node000030"><a xlink:title=" ">
<path fill="none" stroke="#63b8ff" d="M675.24,-292.17C760.61,-289.65 925.84,-280.55 1062,-247.75 1112.84,-235.5 1168.82,-211.54 1202.16,-196.08"/>
<polygon fill="#63b8ff" stroke="#63b8ff" points="1203.23,-199.44 1210.79,-192.02 1200.25,-193.11 1203.23,-199.44"/>
</a>
</g>
</g>
<!-- Node33 -->
<g id="Node000033" class="node">
<title>Node33</title>
<g id="a_Node000033"><a xlink:href="motor__core_8h.html" target="_top" xlink:title=" ">
<polygon fill="white" stroke="#666666" points="1053.25,-247.75 972.75,-247.75 972.75,-227 1053.25,-227 1053.25,-247.75"/>
<text xml:space="preserve" text-anchor="middle" x="1013" y="-234.25" font-family="Helvetica,sans-Serif" font-size="10.00">motor_core.h</text>
</a>
</g>
</g>
<!-- Node1&#45;&gt;Node33 -->
<g id="edge52_Node000001_Node000033" class="edge">
<title>Node1&#45;&gt;Node33</title>
<g id="a_edge52_Node000001_Node000033"><a xlink:title=" ">
<path fill="none" stroke="#63b8ff" d="M675.12,-286.23C742.92,-277.87 859.38,-263.02 959,-247.75 959.68,-247.65 960.36,-247.54 961.04,-247.43"/>
<polygon fill="#63b8ff" stroke="#63b8ff" points="961.53,-250.9 970.84,-245.85 960.41,-243.99 961.53,-250.9"/>
</a>
</g>
</g>
<!-- Node35 -->
<g id="Node000035" class="node">
<title>Node35</title>
<g id="a_Node000035"><a xlink:href="motorCmd_8h.html" target="_top" xlink:title=" ">
<polygon fill="white" stroke="#666666" points="1512.38,-191 1435.62,-191 1435.62,-170.25 1512.38,-170.25 1512.38,-191"/>
<text xml:space="preserve" text-anchor="middle" x="1474" y="-177.5" font-family="Helvetica,sans-Serif" font-size="10.00">motorCmd.h</text>
</a>
</g>
</g>
<!-- Node1&#45;&gt;Node35 -->
<g id="edge60_Node000001_Node000035" class="edge">
<title>Node1&#45;&gt;Node35</title>
<g id="a_edge60_Node000001_Node000035"><a xlink:title=" ">
<path fill="none" stroke="#63b8ff" d="M675.02,-289.43C766.44,-283.14 951.35,-268.95 1107,-247.75 1221.09,-232.21 1353.79,-206.35 1424.17,-192"/>
<polygon fill="#63b8ff" stroke="#63b8ff" points="1424.76,-195.46 1433.85,-190.02 1423.35,-188.6 1424.76,-195.46"/>
</a>
</g>
</g>
<!-- Node3 -->
<g id="Node000003" class="node">
<title>Node3</title>
<g id="a_Node000003"><a xlink:title=" ">
<polygon fill="#e0e0e0" stroke="#999999" points="1208.5,-20.75 1123.5,-20.75 1123.5,0 1208.5,0 1208.5,-20.75"/>
<text xml:space="preserve" text-anchor="middle" x="1166" y="-7.25" font-family="Helvetica,sans-Serif" font-size="10.00">fsl_common.h</text>
</a>
</g>
</g>
<!-- Node2&#45;&gt;Node3 -->
<g id="edge2_Node000002_Node000003" class="edge">
<title>Node2&#45;&gt;Node3</title>
<g id="a_edge2_Node000002_Node000003"><a xlink:title=" ">
<path fill="none" stroke="#63b8ff" d="M659.35,-57.63C662.27,-57.33 665.16,-57.03 668,-56.75 829.17,-40.62 1019.93,-23.9 1111.54,-16.02"/>
<polygon fill="#63b8ff" stroke="#63b8ff" points="1111.84,-19.51 1121.5,-15.16 1111.24,-12.53 1111.84,-19.51"/>
</a>
</g>
</g>
<!-- Node2&#45;&gt;Node4 -->
<g id="edge3_Node000002_Node000004" class="edge">
<title>Node2&#45;&gt;Node4</title>
<g id="a_edge3_Node000002_Node000004"><a xlink:title=" ">
<path fill="none" stroke="#63b8ff" d="M533.6,-56.27C485.85,-46.55 413.11,-31.75 364.36,-21.83"/>
<polygon fill="#63b8ff" stroke="#63b8ff" points="365.1,-18.41 354.61,-19.84 363.71,-25.27 365.1,-18.41"/>
</a>
</g>
</g>
<!-- Node6&#45;&gt;Node3 -->
<g id="edge7_Node000006_Node000003" class="edge">
<title>Node6&#45;&gt;Node3</title>
<g id="a_edge7_Node000006_Node000003"><a xlink:title=" ">
<path fill="none" stroke="#63b8ff" d="M188.93,-113.24C190.95,-98.29 197.18,-69.87 216,-56.75 252.89,-31.02 915.39,-16.22 1111.65,-12.38"/>
<polygon fill="#63b8ff" stroke="#63b8ff" points="1111.64,-15.88 1121.57,-12.19 1111.51,-8.88 1111.64,-15.88"/>
</a>
</g>
</g>
<!-- Node6&#45;&gt;Node7 -->
<g id="edge6_Node000006_Node000007" class="edge">
<title>Node6&#45;&gt;Node7</title>
<g id="a_edge6_Node000006_Node000007"><a xlink:title=" ">
<path fill="none" stroke="#63b8ff" d="M201.05,-113.09C211.64,-105.15 226.79,-93.78 239.22,-84.46"/>
<polygon fill="#63b8ff" stroke="#63b8ff" points="240.95,-87.54 246.85,-78.74 236.75,-81.94 240.95,-87.54"/>
</a>
</g>
</g>
<!-- Node14&#45;&gt;Node4 -->
<g id="edge19_Node000014_Node000004" class="edge">
<title>Node14&#45;&gt;Node4</title>
<g id="a_edge19_Node000014_Node000004"><a xlink:title=" ">
<path fill="none" stroke="#63b8ff" d="M78.56,-113.2C68.77,-99.22 54.3,-73.21 68,-56.75 92.14,-27.73 197.23,-17.19 261.68,-13.42"/>
<polygon fill="#63b8ff" stroke="#63b8ff" points="261.52,-16.93 271.31,-12.89 261.13,-9.94 261.52,-16.93"/>
</a>
</g>
</g>
<!-- Node14&#45;&gt;Node7 -->
<g id="edge17_Node000014_Node000007" class="edge">
<title>Node14&#45;&gt;Node7</title>
<g id="a_edge17_Node000014_Node000007"><a xlink:title=" ">
<path fill="none" stroke="#63b8ff" d="M104.4,-117.12C131.36,-108.68 182.35,-92.73 218.82,-81.32"/>
<polygon fill="#63b8ff" stroke="#63b8ff" points="219.69,-84.72 228.19,-78.39 217.6,-78.04 219.69,-84.72"/>
</a>
</g>
</g>
<!-- Node15 -->
<g id="Node000015" class="node">
<title>Node15</title>
<g id="a_Node000015"><a xlink:title=" ">
<polygon fill="#e0e0e0" stroke="#999999" points="168.88,-77.5 77.12,-77.5 77.12,-56.75 168.88,-56.75 168.88,-77.5"/>
<text xml:space="preserve" text-anchor="middle" x="123" y="-64" font-family="Helvetica,sans-Serif" font-size="10.00">FreeRTOS_CLI.h</text>
</a>
</g>
</g>
<!-- Node14&#45;&gt;Node15 -->
<g id="edge18_Node000014_Node000015" class="edge">
<title>Node14&#45;&gt;Node15</title>
<g id="a_edge18_Node000014_Node000015"><a xlink:title=" ">
<path fill="none" stroke="#63b8ff" d="M92.61,-113.09C97.46,-105.92 104.18,-95.98 110.07,-87.26"/>
<polygon fill="#63b8ff" stroke="#63b8ff" points="112.9,-89.33 115.59,-79.08 107.1,-85.41 112.9,-89.33"/>
</a>
</g>
</g>
<!-- Node16&#45;&gt;Node3 -->
<g id="edge22_Node000016_Node000003" class="edge">
<title>Node16&#45;&gt;Node3</title>
<g id="a_edge22_Node000016_Node000003"><a xlink:title=" ">
<path fill="none" stroke="#63b8ff" d="M774.89,-228.11C696.94,-199.67 451.01,-104.89 496,-56.75 537.7,-12.13 960.02,-10.15 1111.93,-10.91"/>
<polygon fill="#63b8ff" stroke="#63b8ff" points="1111.71,-14.41 1121.73,-10.96 1111.75,-7.41 1111.71,-14.41"/>
</a>
</g>
</g>
<!-- Node17 -->
<g id="Node000017" class="node">
<title>Node17</title>
<g id="a_Node000017"><a xlink:title=" ">
<polygon fill="#e0e0e0" stroke="#999999" points="582.88,-191 551.12,-191 551.12,-170.25 582.88,-170.25 582.88,-191"/>
<text xml:space="preserve" text-anchor="middle" x="567" y="-177.5" font-family="Helvetica,sans-Serif" font-size="10.00">ff.h</text>
</a>
</g>
</g>
<!-- Node16&#45;&gt;Node17 -->
<g id="edge21_Node000016_Node000017" class="edge">
<title>Node16&#45;&gt;Node17</title>
<g id="a_edge21_Node000016_Node000017"><a xlink:title=" ">
<path fill="none" stroke="#63b8ff" d="M774.94,-230.41C770.33,-229.25 765.51,-228.07 761,-227 688.38,-209.83 669.13,-210.15 597,-191 596.01,-190.74 595,-190.46 593.98,-190.18"/>
<polygon fill="#63b8ff" stroke="#63b8ff" points="595.15,-186.87 584.57,-187.38 593.15,-193.58 595.15,-186.87"/>
</a>
</g>
</g>
<!-- Node18 -->
<g id="Node000018" class="node">
<title>Node18</title>
<g id="a_Node000018"><a xlink:title=" ">
<polygon fill="#e0e0e0" stroke="#999999" points="533.12,-191 478.88,-191 478.88,-170.25 533.12,-170.25 533.12,-191"/>
<text xml:space="preserve" text-anchor="middle" x="506" y="-177.5" font-family="Helvetica,sans-Serif" font-size="10.00">diskio.h</text>
</a>
</g>
</g>
<!-- Node16&#45;&gt;Node18 -->
<g id="edge23_Node000016_Node000018" class="edge">
<title>Node16&#45;&gt;Node18</title>
<g id="a_edge23_Node000016_Node000018"><a xlink:title=" ">
<path fill="none" stroke="#63b8ff" d="M774.98,-230.22C770.37,-229.08 765.54,-227.95 761,-227 667.93,-207.6 640.46,-211.15 544.54,-191.38"/>
<polygon fill="#63b8ff" stroke="#63b8ff" points="545.44,-187.99 534.94,-189.36 544.01,-194.84 545.44,-187.99"/>
</a>
</g>
</g>
<!-- Node20&#45;&gt;Node2 -->
<g id="edge26_Node000020_Node000002" class="edge">
<title>Node20&#45;&gt;Node2</title>
<g id="a_edge26_Node000020_Node000002"><a xlink:title=" ">
<path fill="none" stroke="#63b8ff" d="M904.72,-172.44C866.38,-164.5 804.33,-150.63 752,-134.25 703.32,-119.02 648.6,-96.78 614.71,-82.38"/>
<polygon fill="#63b8ff" stroke="#63b8ff" points="616.44,-79.31 605.87,-78.59 613.68,-85.74 616.44,-79.31"/>
</a>
</g>
</g>
<!-- Node20&#45;&gt;Node3 -->
<g id="edge29_Node000020_Node000003" class="edge">
<title>Node20&#45;&gt;Node3</title>
<g id="a_edge29_Node000020_Node000003"><a xlink:title=" ">
<path fill="none" stroke="#63b8ff" d="M977.61,-175.52C1059.86,-166.19 1254.35,-143.48 1283,-134.25 1333.86,-117.86 1361.54,-123.34 1389,-77.5 1393.74,-69.59 1394.83,-63.89 1389,-56.75 1368.08,-31.15 1279.22,-19.63 1220.19,-14.72"/>
<polygon fill="#63b8ff" stroke="#63b8ff" points="1220.56,-11.24 1210.31,-13.94 1220.01,-18.22 1220.56,-11.24"/>
</a>
</g>
</g>
<!-- Node20&#45;&gt;Node7 -->
<g id="edge27_Node000020_Node000007" class="edge">
<title>Node20&#45;&gt;Node7</title>
<g id="a_edge27_Node000020_Node000007"><a xlink:title=" ">
<path fill="none" stroke="#63b8ff" d="M904.44,-173.63C789.68,-154.81 436.61,-96.92 308.26,-75.88"/>
<polygon fill="#63b8ff" stroke="#63b8ff" points="308.84,-72.42 298.41,-74.26 307.71,-79.33 308.84,-72.42"/>
</a>
</g>
</g>
<!-- Node20&#45;&gt;Node13 -->
<g id="edge28_Node000020_Node000013" class="edge">
<title>Node20&#45;&gt;Node13</title>
<g id="a_edge28_Node000020_Node000013"><a xlink:title=" ">
<path fill="none" stroke="#63b8ff" d="M904.4,-177.14C814.62,-170.93 576.34,-153.86 378,-134.25 363.11,-132.78 346.68,-130.9 332.61,-129.21"/>
<polygon fill="#63b8ff" stroke="#63b8ff" points="333.28,-125.76 322.93,-128.03 332.44,-132.71 333.28,-125.76"/>
</a>
</g>
</g>
<!-- Node21 -->
<g id="Node000021" class="node">
<title>Node21</title>
<g id="a_Node000021"><a xlink:title=" ">
<polygon fill="#e0e0e0" stroke="#999999" points="735.38,-77.5 676.62,-77.5 676.62,-56.75 735.38,-56.75 735.38,-77.5"/>
<text xml:space="preserve" text-anchor="middle" x="706" y="-64" font-family="Helvetica,sans-Serif" font-size="10.00">fsl_ftm.h</text>
</a>
</g>
</g>
<!-- Node20&#45;&gt;Node21 -->
<g id="edge30_Node000020_Node000021" class="edge">
<title>Node20&#45;&gt;Node21</title>
<g id="a_edge30_Node000020_Node000021"><a xlink:title=" ">
<path fill="none" stroke="#63b8ff" d="M904.59,-173.17C872.36,-166.47 824.72,-154.15 787,-134.25 762.57,-121.36 738.57,-100.44 723.12,-85.58"/>
<polygon fill="#63b8ff" stroke="#63b8ff" points="725.72,-83.23 716.14,-78.7 720.81,-88.22 725.72,-83.23"/>
</a>
</g>
</g>
<!-- Node22 -->
<g id="Node000022" class="node">
<title>Node22</title>
<g id="a_Node000022"><a xlink:title=" ">
<polygon fill="#e0e0e0" stroke="#999999" points="1032.62,-77.5 969.38,-77.5 969.38,-56.75 1032.62,-56.75 1032.62,-77.5"/>
<text xml:space="preserve" text-anchor="middle" x="1001" y="-64" font-family="Helvetica,sans-Serif" font-size="10.00">fsl_gpio.h</text>
</a>
</g>
</g>
<!-- Node20&#45;&gt;Node22 -->
<g id="edge31_Node000020_Node000022" class="edge">
<title>Node20&#45;&gt;Node22</title>
<g id="a_edge31_Node000020_Node000022"><a xlink:title=" ">
<path fill="none" stroke="#63b8ff" d="M943.5,-169.79C947.1,-156.48 954.52,-132.27 965,-113.5 970.3,-104.01 977.54,-94.45 984.14,-86.57"/>
<polygon fill="#63b8ff" stroke="#63b8ff" points="986.77,-88.88 990.7,-79.04 981.49,-84.28 986.77,-88.88"/>
</a>
</g>
</g>
<!-- Node23 -->
<g id="Node000023" class="node">
<title>Node23</title>
<g id="a_Node000023"><a xlink:title=" ">
<polygon fill="#e0e0e0" stroke="#999999" points="1112.88,-77.5 1051.12,-77.5 1051.12,-56.75 1112.88,-56.75 1112.88,-77.5"/>
<text xml:space="preserve" text-anchor="middle" x="1082" y="-64" font-family="Helvetica,sans-Serif" font-size="10.00">fsl_port.h</text>
</a>
</g>
</g>
<!-- Node20&#45;&gt;Node23 -->
<g id="edge32_Node000020_Node000023" class="edge">
<title>Node20&#45;&gt;Node23</title>
<g id="a_edge32_Node000020_Node000023"><a xlink:title=" ">
<path fill="none" stroke="#63b8ff" d="M953.02,-170.12C976.94,-151.21 1030.76,-108.64 1060.77,-84.91"/>
<polygon fill="#63b8ff" stroke="#63b8ff" points="1062.75,-87.81 1068.42,-78.86 1058.4,-82.32 1062.75,-87.81"/>
</a>
</g>
</g>
<!-- Node24 -->
<g id="Node000024" class="node">
<title>Node24</title>
<g id="a_Node000024"><a xlink:href="cmd__handle_8h.html" target="_top" xlink:title=" ">
<polygon fill="white" stroke="#666666" points="1274.12,-134.25 1189.88,-134.25 1189.88,-113.5 1274.12,-113.5 1274.12,-134.25"/>
<text xml:space="preserve" text-anchor="middle" x="1232" y="-120.75" font-family="Helvetica,sans-Serif" font-size="10.00">cmd_handle.h</text>
</a>
</g>
</g>
<!-- Node20&#45;&gt;Node24 -->
<g id="edge33_Node000020_Node000024" class="edge">
<title>Node20&#45;&gt;Node24</title>
<g id="a_edge33_Node000020_Node000024"><a xlink:title=" ">
<path fill="none" stroke="#63b8ff" d="M977.56,-172.75C1028.22,-163.21 1120.11,-145.93 1178.49,-134.94"/>
<polygon fill="#63b8ff" stroke="#63b8ff" points="1179.03,-138.4 1188.21,-133.11 1177.74,-131.52 1179.03,-138.4"/>
</a>
</g>
</g>
<!-- Node28 -->
<g id="Node000028" class="node">
<title>Node28</title>
<g id="a_Node000028"><a xlink:href="step__shared_8h.html" target="_top" xlink:title=" ">
<polygon fill="white" stroke="#666666" points="913.12,-134.25 828.88,-134.25 828.88,-113.5 913.12,-113.5 913.12,-134.25"/>
<text xml:space="preserve" text-anchor="middle" x="871" y="-120.75" font-family="Helvetica,sans-Serif" font-size="10.00">step_shared.h</text>
</a>
</g>
</g>
<!-- Node20&#45;&gt;Node28 -->
<g id="edge39_Node000020_Node000028" class="edge">
<title>Node20&#45;&gt;Node28</title>
<g id="a_edge39_Node000020_Node000028"><a xlink:title=" ">
<path fill="none" stroke="#63b8ff" d="M928.49,-169.84C918.43,-161.97 904.09,-150.75 892.24,-141.49"/>
<polygon fill="#63b8ff" stroke="#63b8ff" points="894.63,-138.91 884.6,-135.51 890.32,-144.43 894.63,-138.91"/>
</a>
</g>
</g>
<!-- Node24&#45;&gt;Node3 -->
<g id="edge37_Node000024_Node000003" class="edge">
<title>Node24&#45;&gt;Node3</title>
<g id="a_edge37_Node000024_Node000003"><a xlink:title=" ">
<path fill="none" stroke="#63b8ff" d="M1274.47,-118.15C1325.66,-110.75 1401.38,-93.31 1372,-56.75 1353.26,-33.43 1274.54,-21.4 1220.02,-15.74"/>
<polygon fill="#63b8ff" stroke="#63b8ff" points="1220.59,-12.28 1210.3,-14.78 1219.9,-19.24 1220.59,-12.28"/>
</a>
</g>
</g>
<!-- Node24&#45;&gt;Node7 -->
<g id="edge35_Node000024_Node000007" class="edge">
<title>Node24&#45;&gt;Node7</title>
<g id="a_edge35_Node000024_Node000007"><a xlink:title=" ">
<path fill="none" stroke="#63b8ff" d="M1189.65,-120.49C1031.38,-111.56 475.17,-80.2 308.53,-70.8"/>
<polygon fill="#63b8ff" stroke="#63b8ff" points="308.91,-67.32 298.73,-70.25 308.51,-74.31 308.91,-67.32"/>
</a>
</g>
</g>
<!-- Node25 -->
<g id="Node000025" class="node">
<title>Node25</title>
<g id="a_Node000025"><a xlink:title=" ">
<polygon fill="#e0e0e0" stroke="#999999" points="1183.38,-77.5 1130.62,-77.5 1130.62,-56.75 1183.38,-56.75 1183.38,-77.5"/>
<text xml:space="preserve" text-anchor="middle" x="1157" y="-64" font-family="Helvetica,sans-Serif" font-size="10.00">stdint.h</text>
</a>
</g>
</g>
<!-- Node24&#45;&gt;Node25 -->
<g id="edge34_Node000024_Node000025" class="edge">
<title>Node24&#45;&gt;Node25</title>
<g id="a_edge34_Node000024_Node000025"><a xlink:title=" ">
<path fill="none" stroke="#63b8ff" d="M1218.59,-113.09C1207.71,-105.15 1192.14,-93.78 1179.38,-84.46"/>
<polygon fill="#63b8ff" stroke="#63b8ff" points="1181.66,-81.79 1171.51,-78.72 1177.53,-87.44 1181.66,-81.79"/>
</a>
</g>
</g>
<!-- Node26 -->
<g id="Node000026" class="node">
<title>Node26</title>
<g id="a_Node000026"><a xlink:title=" ">
<polygon fill="#e0e0e0" stroke="#999999" points="1292.5,-77.5 1201.5,-77.5 1201.5,-56.75 1292.5,-56.75 1292.5,-77.5"/>
<text xml:space="preserve" text-anchor="middle" x="1247" y="-64" font-family="Helvetica,sans-Serif" font-size="10.00">event_groups.h</text>
</a>
</g>
</g>
<!-- Node24&#45;&gt;Node26 -->
<g id="edge36_Node000024_Node000026" class="edge">
<title>Node24&#45;&gt;Node26</title>
<g id="a_edge36_Node000024_Node000026"><a xlink:title=" ">
<path fill="none" stroke="#63b8ff" d="M1234.68,-113.09C1236.54,-106.31 1239.08,-97.05 1241.37,-88.69"/>
<polygon fill="#63b8ff" stroke="#63b8ff" points="1244.67,-89.86 1243.94,-79.29 1237.92,-88.01 1244.67,-89.86"/>
</a>
</g>
</g>
<!-- Node27 -->
<g id="Node000027" class="node">
<title>Node27</title>
<g id="a_Node000027"><a xlink:title=" ">
<polygon fill="#e0e0e0" stroke="#999999" points="1363,-77.5 1311,-77.5 1311,-56.75 1363,-56.75 1363,-77.5"/>
<text xml:space="preserve" text-anchor="middle" x="1337" y="-64" font-family="Helvetica,sans-Serif" font-size="10.00">stdlib.h</text>
</a>
</g>
</g>
<!-- Node24&#45;&gt;Node27 -->
<g id="edge38_Node000024_Node000027" class="edge">
<title>Node24&#45;&gt;Node27</title>
<g id="a_edge38_Node000024_Node000027"><a xlink:title=" ">
<path fill="none" stroke="#63b8ff" d="M1250.77,-113.09C1266.75,-104.76 1289.95,-92.66 1308.26,-83.11"/>
<polygon fill="#63b8ff" stroke="#63b8ff" points="1309.8,-86.26 1317.05,-78.53 1306.56,-80.05 1309.8,-86.26"/>
</a>
</g>
</g>
<!-- Node28&#45;&gt;Node2 -->
<g id="edge40_Node000028_Node000002" class="edge">
<title>Node28&#45;&gt;Node2</title>
<g id="a_edge40_Node000028_Node000002"><a xlink:title=" ">
<path fill="none" stroke="#63b8ff" d="M828.67,-114.86C780.34,-105.7 700.79,-90.63 645.13,-80.09"/>
<polygon fill="#63b8ff" stroke="#63b8ff" points="645.95,-76.68 635.47,-78.26 644.65,-83.56 645.95,-76.68"/>
</a>
</g>
</g>
<!-- Node28&#45;&gt;Node3 -->
<g id="edge42_Node000028_Node000003" class="edge">
<title>Node28&#45;&gt;Node3</title>
<g id="a_edge42_Node000028_Node000003"><a xlink:title=" ">
<path fill="none" stroke="#63b8ff" d="M881.02,-113.14C896.59,-98.58 928.12,-71.29 960,-56.75 1008.83,-34.48 1069.27,-22.84 1112.02,-16.95"/>
<polygon fill="#63b8ff" stroke="#63b8ff" points="1112.35,-20.44 1121.81,-15.67 1111.44,-13.5 1112.35,-20.44"/>
</a>
</g>
</g>
<!-- Node28&#45;&gt;Node21 -->
<g id="edge43_Node000028_Node000021" class="edge">
<title>Node28&#45;&gt;Node21</title>
<g id="a_edge43_Node000028_Node000021"><a xlink:title=" ">
<path fill="none" stroke="#63b8ff" d="M841.5,-113.09C814.95,-104.28 775.7,-91.25 746.27,-81.49"/>
<polygon fill="#63b8ff" stroke="#63b8ff" points="747.55,-78.22 736.96,-78.4 745.35,-84.87 747.55,-78.22"/>
</a>
</g>
</g>
<!-- Node28&#45;&gt;Node22 -->
<g id="edge44_Node000028_Node000022" class="edge">
<title>Node28&#45;&gt;Node22</title>
<g id="a_edge44_Node000028_Node000022"><a xlink:title=" ">
<path fill="none" stroke="#63b8ff" d="M894.24,-113.09C914.67,-104.48 944.64,-91.86 967.63,-82.18"/>
<polygon fill="#63b8ff" stroke="#63b8ff" points="968.71,-85.52 976.56,-78.42 965.99,-79.07 968.71,-85.52"/>
</a>
</g>
</g>
<!-- Node28&#45;&gt;Node23 -->
<g id="edge45_Node000028_Node000023" class="edge">
<title>Node28&#45;&gt;Node23</title>
<g id="a_edge45_Node000028_Node000023"><a xlink:title=" ">
<path fill="none" stroke="#63b8ff" d="M908.72,-113.09C945.62,-103.51 1001.7,-88.96 1040,-79.02"/>
<polygon fill="#63b8ff" stroke="#63b8ff" points="1040.52,-82.5 1049.32,-76.6 1038.76,-75.73 1040.52,-82.5"/>
</a>
</g>
</g>
<!-- Node29 -->
<g id="Node000029" class="node">
<title>Node29</title>
<g id="a_Node000029"><a xlink:title=" ">
<polygon fill="#e0e0e0" stroke="#999999" points="913.25,-77.5 790.75,-77.5 790.75,-56.75 913.25,-56.75 913.25,-77.5"/>
<text xml:space="preserve" text-anchor="middle" x="852" y="-64" font-family="Helvetica,sans-Serif" font-size="10.00">fsl_device_registers.h</text>
</a>
</g>
</g>
<!-- Node28&#45;&gt;Node29 -->
<g id="edge41_Node000028_Node000029" class="edge">
<title>Node28&#45;&gt;Node29</title>
<g id="a_edge41_Node000028_Node000029"><a xlink:title=" ">
<path fill="none" stroke="#63b8ff" d="M867.6,-113.09C865.25,-106.31 862.04,-97.05 859.14,-88.69"/>
<polygon fill="#63b8ff" stroke="#63b8ff" points="862.45,-87.56 855.86,-79.26 855.84,-89.85 862.45,-87.56"/>
</a>
</g>
</g>
<!-- Node30&#45;&gt;Node3 -->
<g id="edge49_Node000030_Node000003" class="edge">
<title>Node30&#45;&gt;Node3</title>
<g id="a_edge49_Node000030_Node000003"><a xlink:title=" ">
<path fill="none" stroke="#63b8ff" d="M1279.16,-176.73C1368.01,-170.8 1553,-155.95 1572,-134.25 1594.69,-108.33 1594.96,-82.42 1572,-56.75 1548.93,-30.95 1325.03,-18.12 1219.95,-13.47"/>
<polygon fill="#63b8ff" stroke="#63b8ff" points="1220.3,-9.99 1210.16,-13.05 1220,-16.98 1220.3,-9.99"/>
</a>
</g>
</g>
<!-- Node30&#45;&gt;Node4 -->
<g id="edge51_Node000030_Node000004" class="edge">
<title>Node30&#45;&gt;Node4</title>
<g id="a_edge51_Node000030_Node000004"><a xlink:title=" ">
<path fill="none" stroke="#63b8ff" d="M1184.64,-174.83C1078.1,-163.98 828.14,-138.21 820,-134.25 776.61,-113.16 787.44,-77.74 744,-56.75 678.18,-24.95 463.98,-15.28 364.56,-12.47"/>
<polygon fill="#63b8ff" stroke="#63b8ff" points="364.91,-8.98 354.82,-12.21 364.72,-15.98 364.91,-8.98"/>
</a>
</g>
</g>
<!-- Node30&#45;&gt;Node24 -->
<g id="edge50_Node000030_Node000024" class="edge">
<title>Node30&#45;&gt;Node24</title>
<g id="a_edge50_Node000030_Node000024"><a xlink:title=" ">
<path fill="none" stroke="#63b8ff" d="M1232,-169.84C1232,-163.22 1232,-154.22 1232,-146.02"/>
<polygon fill="#63b8ff" stroke="#63b8ff" points="1235.5,-146.09 1232,-136.09 1228.5,-146.09 1235.5,-146.09"/>
</a>
</g>
</g>
<!-- Node31 -->
<g id="Node000031" class="node">
<title>Node31</title>
<g id="a_Node000031"><a xlink:href="tmc2209__shared_8h.html" target="_top" xlink:title=" ">
<polygon fill="white" stroke="#666666" points="1563,-134.25 1457,-134.25 1457,-113.5 1563,-113.5 1563,-134.25"/>
<text xml:space="preserve" text-anchor="middle" x="1510" y="-120.75" font-family="Helvetica,sans-Serif" font-size="10.00">tmc2209_shared.h</text>
</a>
</g>
</g>
<!-- Node30&#45;&gt;Node31 -->
<g id="edge47_Node000030_Node000031" class="edge">
<title>Node30&#45;&gt;Node31</title>
<g id="a_edge47_Node000030_Node000031"><a xlink:title=" ">
<path fill="none" stroke="#63b8ff" d="M1279.47,-170.28C1326.19,-161.08 1397.72,-146.99 1448.71,-136.95"/>
<polygon fill="#63b8ff" stroke="#63b8ff" points="1449.29,-140.4 1458.42,-135.03 1447.93,-133.53 1449.29,-140.4"/>
</a>
</g>
</g>
<!-- Node32 -->
<g id="Node000032" class="node">
<title>Node32</title>
<g id="a_Node000032"><a xlink:title=" ">
<polygon fill="#e0e0e0" stroke="#999999" points="1562.62,-77.5 1457.38,-77.5 1457.38,-56.75 1562.62,-56.75 1562.62,-77.5"/>
<text xml:space="preserve" text-anchor="middle" x="1510" y="-64" font-family="Helvetica,sans-Serif" font-size="10.00">fsl_uart_freertos.h</text>
</a>
</g>
</g>
<!-- Node31&#45;&gt;Node32 -->
<g id="edge48_Node000031_Node000032" class="edge">
<title>Node31&#45;&gt;Node32</title>
<g id="a_edge48_Node000031_Node000032"><a xlink:title=" ">
<path fill="none" stroke="#63b8ff" d="M1510,-113.09C1510,-106.47 1510,-97.47 1510,-89.27"/>
<polygon fill="#63b8ff" stroke="#63b8ff" points="1513.5,-89.34 1510,-79.34 1506.5,-89.34 1513.5,-89.34"/>
</a>
</g>
</g>
<!-- Node33&#45;&gt;Node2 -->
<g id="edge53_Node000033_Node000002" class="edge">
<title>Node33&#45;&gt;Node2</title>
<g id="a_edge53_Node000033_Node000002"><a xlink:title=" ">
<path fill="none" stroke="#63b8ff" d="M972.36,-230.82C930.29,-224.28 863.14,-211.62 808,-191 730.08,-161.86 645.89,-110.06 605.82,-84.02"/>
<polygon fill="#63b8ff" stroke="#63b8ff" points="607.93,-81.22 597.65,-78.66 604.09,-87.07 607.93,-81.22"/>
</a>
</g>
</g>
<!-- Node33&#45;&gt;Node20 -->
<g id="edge55_Node000033_Node000020" class="edge">
<title>Node33&#45;&gt;Node20</title>
<g id="a_edge55_Node000033_Node000020"><a xlink:title=" ">
<path fill="none" stroke="#63b8ff" d="M1000.13,-226.59C989.79,-218.72 975.03,-207.5 962.85,-198.24"/>
<polygon fill="#63b8ff" stroke="#63b8ff" points="965.04,-195.51 954.97,-192.24 960.81,-201.08 965.04,-195.51"/>
</a>
</g>
</g>
<!-- Node33&#45;&gt;Node21 -->
<g id="edge57_Node000033_Node000021" class="edge">
<title>Node33&#45;&gt;Node21</title>
<g id="a_edge57_Node000033_Node000021"><a xlink:title=" ">
<path fill="none" stroke="#63b8ff" d="M972.61,-228.36C917.9,-215.88 819.36,-187.53 752,-134.25 736.09,-121.67 723.45,-102.12 715.47,-87.54"/>
<polygon fill="#63b8ff" stroke="#63b8ff" points="718.7,-86.17 711,-78.89 712.49,-89.38 718.7,-86.17"/>
</a>
</g>
</g>
<!-- Node33&#45;&gt;Node22 -->
<g id="edge58_Node000033_Node000022" class="edge">
<title>Node33&#45;&gt;Node22</title>
<g id="a_edge58_Node000033_Node000022"><a xlink:title=" ">
<path fill="none" stroke="#63b8ff" d="M1012.32,-226.85C1010.44,-200.48 1005.13,-126.08 1002.51,-89.28"/>
<polygon fill="#63b8ff" stroke="#63b8ff" points="1006.01,-89.2 1001.81,-79.48 999.03,-89.7 1006.01,-89.2"/>
</a>
</g>
</g>
<!-- Node33&#45;&gt;Node23 -->
<g id="edge59_Node000033_Node000023" class="edge">
<title>Node33&#45;&gt;Node23</title>
<g id="a_edge59_Node000033_Node000023"><a xlink:title=" ">
<path fill="none" stroke="#63b8ff" d="M1053.46,-227.02C1086.03,-218.58 1127.96,-205.32 1138,-191 1162.07,-156.65 1125.15,-110.3 1100.73,-85.5"/>
<polygon fill="#63b8ff" stroke="#63b8ff" points="1103.41,-83.23 1093.81,-78.74 1098.51,-88.23 1103.41,-83.23"/>
</a>
</g>
</g>
<!-- Node33&#45;&gt;Node30 -->
<g id="edge56_Node000033_Node000030" class="edge">
<title>Node33&#45;&gt;Node30</title>
<g id="a_edge56_Node000033_Node000030"><a xlink:title=" ">
<path fill="none" stroke="#63b8ff" d="M1052.41,-226.52C1088.57,-217.48 1142.34,-204.04 1181.62,-194.22"/>
<polygon fill="#63b8ff" stroke="#63b8ff" points="1182.22,-197.68 1191.07,-191.86 1180.52,-190.89 1182.22,-197.68"/>
</a>
</g>
</g>
<!-- Node34 -->
<g id="Node000034" class="node">
<title>Node34</title>
<g id="a_Node000034"><a xlink:title=" ">
<polygon fill="#e0e0e0" stroke="#999999" points="1129.38,-191 1040.62,-191 1040.62,-170.25 1129.38,-170.25 1129.38,-191"/>
<text xml:space="preserve" text-anchor="middle" x="1085" y="-177.5" font-family="Helvetica,sans-Serif" font-size="10.00">MK22F51212.h</text>
</a>
</g>
</g>
<!-- Node33&#45;&gt;Node34 -->
<g id="edge54_Node000033_Node000034" class="edge">
<title>Node33&#45;&gt;Node34</title>
<g id="a_edge54_Node000033_Node000034"><a xlink:title=" ">
<path fill="none" stroke="#63b8ff" d="M1025.87,-226.59C1036.21,-218.72 1050.97,-207.5 1063.15,-198.24"/>
<polygon fill="#63b8ff" stroke="#63b8ff" points="1065.19,-201.08 1071.03,-192.24 1060.96,-195.51 1065.19,-201.08"/>
</a>
</g>
</g>
<!-- Node35&#45;&gt;Node3 -->
<g id="edge61_Node000035_Node000003" class="edge">
<title>Node35&#45;&gt;Node3</title>
<g id="a_edge61_Node000035_Node000003"><a xlink:title=" ">
<path fill="none" stroke="#63b8ff" d="M1512.6,-176.13C1540.03,-171.39 1575.06,-160.29 1593,-134.25 1612.54,-105.89 1616.03,-82.36 1593,-56.75 1568.5,-29.51 1329.83,-17.35 1220.36,-13.17"/>
<polygon fill="#63b8ff" stroke="#63b8ff" points="1220.56,-9.68 1210.44,-12.8 1220.3,-16.67 1220.56,-9.68"/>
</a>
</g>
</g>
</g>
</svg>
