<?xml version="1.0" encoding="UTF-8" standalone="no"?>
<!DOCTYPE svg PUBLIC "-//W3C//DTD SVG 1.1//EN"
 "http://www.w3.org/Graphics/SVG/1.1/DTD/svg11.dtd">
<!-- Generated by graphviz version 14.1.2 (0)
 -->
<!-- Title: source/application.c Pages: 1 -->
<!--zoomable 142 -->

<svg id="main" version="1.1" xmlns="http://www.w3.org/2000/svg" xmlns:xlink="http://www.w3.org/1999/xlink" xml:space="preserve" onload="init(evt)">

<style type="text/css"><![CDATA[
.node, .edge {opacity: 0.7;}
.node.selected, .edge.selected {opacity: 1;}
.edge:hover path { stroke: red; }
.edge:hover polygon { stroke: red; fill: red; }
]]></style>

<defs>
  <circle id="rim" cx="0" cy="0" r="7"/>
  <circle id="rim2" cx="0" cy="0" r="3.5"/>
  <g id="zoomPlus">
    <use xlink:href="#rim" fill="#404040"><set attributeName="fill" to="#808080" begin="zoomplus.mouseover" end="zoomplus.mouseout"/></use>
    <path d="M-4,0h8M0,-4v8" fill="none" stroke="white" stroke-width="1.5" pointer-events="none"/>
  </g>
  <g id="zoomMin">
    <use xlink:href="#rim" fill="#404040"><set attributeName="fill" to="#808080" begin="zoomminus.mouseover" end="zoomminus.mouseout"/></use>
    <path d="M-4,0h8" fill="none" stroke="white" stroke-width="1.5" pointer-events="none"/>
  </g>
  <g id="arrowUp" transform="translate(30 24)">
    <use xlink:href="#rim"/>
    <path pointer-events="none" fill="none" stroke="white" stroke-width="1.5" d="M0,-3.0v7 M-2.5,-0.5L0,-3.0L2.5,-0.5"/>
  </g>
  <g id="arrowRight" transform="rotate(90) translate(36 -43)">
    <use xlink:href="#rim"/>
    <path pointer-events="none" fill="none" stroke="white" stroke-width="1.5" d="M0,-3.0v7 M-2.5,-0.5L0,-3.0L2.5,-0.5"/>
  </g>
  <g id="arrowDown" transform="rotate(180) translate(-30 -48)">
    <use xlink:href="#rim"/>
    <path pointer-events="none" fill="none" stroke="white" stroke-width="1.5" d="M0,-3.0v7 M-2.5,-0.5L0,-3.0L2.5,-0.5"/>
  </g>
  <g id="arrowLeft" transform="rotate(270) translate(-36 17)">
    <use xlink:href="#rim"/>
    <path pointer-events="none" fill="none" stroke="white" stroke-width="1.5" d="M0,-3.0v7 M-2.5,-0.5L0,-3.0L2.5,-0.5"/>
  </g>
  <g id="resetDef">
    <use xlink:href="#rim2" fill="#404040"><set attributeName="fill" to="#808080" begin="reset.mouseover" end="reset.mouseout"/></use>
  </g>
</defs>
<script type="application/ecmascript">
var viewWidth = 1218;
var viewHeight = 142;
var sectionId = 'dynsection-0';
</script>
<script type="application/ecmascript" xlink:href="svg.min.js"/>
<svg id="graph" class="graph">
<g id="viewport">
<title>source/application.c</title>
<!-- Node1 -->
<g id="Node000001" class="node">
<title>Node1</title>
<g id="a_Node000001"><a xlink:title=" ">
<polygon fill="#999999" stroke="#666666" points="538.62,-134.25 425.12,-134.25 425.12,-113.5 538.62,-113.5 538.62,-134.25"/>
<text xml:space="preserve" text-anchor="middle" x="481.88" y="-120.75" font-family="Helvetica,sans-Serif" font-size="10.00">source/application.c</text>
</a>
</g>
</g>
<!-- Node2 -->
<g id="Node000002" class="node">
<title>Node2</title>
<g id="a_Node000002"><a xlink:href="application_8h.html" target="_top" xlink:title=" ">
<polygon fill="white" stroke="#666666" points="99.38,-77.5 20.38,-77.5 20.38,-56.75 99.38,-56.75 99.38,-77.5"/>
<text xml:space="preserve" text-anchor="middle" x="59.88" y="-64" font-family="Helvetica,sans-Serif" font-size="10.00">application.h</text>
</a>
</g>
</g>
<!-- Node1&#45;&gt;Node2 -->
<g id="edge1_Node000001_Node000002" class="edge">
<title>Node1&#45;&gt;Node2</title>
<g id="a_edge1_Node000001_Node000002"><a xlink:title=" ">
<path fill="none" stroke="#63b8ff" d="M424.84,-117.15C353.81,-109.76 228.52,-95.83 111.03,-77.74"/>
<polygon fill="#63b8ff" stroke="#63b8ff" points="111.6,-74.29 101.18,-76.21 110.52,-81.2 111.6,-74.29"/>
</a>
</g>
</g>
<!-- Node3 -->
<g id="Node000003" class="node">
<title>Node3</title>
<g id="a_Node000003"><a xlink:href="log_8h.html" target="_top" xlink:title=" ">
<polygon fill="white" stroke="#666666" points="249.88,-77.5 209.88,-77.5 209.88,-56.75 249.88,-56.75 249.88,-77.5"/>
<text xml:space="preserve" text-anchor="middle" x="229.88" y="-64" font-family="Helvetica,sans-Serif" font-size="10.00">log.h</text>
</a>
</g>
</g>
<!-- Node1&#45;&gt;Node3 -->
<g id="edge2_Node000001_Node000003" class="edge">
<title>Node1&#45;&gt;Node3</title>
<g id="a_edge2_Node000001_Node000003"><a xlink:title=" ">
<path fill="none" stroke="#63b8ff" d="M430.13,-113.07C385.83,-104.45 320.43,-91.17 263.88,-77.5 263.05,-77.3 262.21,-77.09 261.37,-76.88"/>
<polygon fill="#63b8ff" stroke="#63b8ff" points="262.34,-73.52 251.78,-74.37 260.57,-80.29 262.34,-73.52"/>
</a>
</g>
</g>
<!-- Node4 -->
<g id="Node000004" class="node">
<title>Node4</title>
<g id="a_Node000004"><a xlink:title=" ">
<polygon fill="#e0e0e0" stroke="#999999" points="181.62,-20.75 110.12,-20.75 110.12,0 181.62,0 181.62,-20.75"/>
<text xml:space="preserve" text-anchor="middle" x="145.88" y="-7.25" font-family="Helvetica,sans-Serif" font-size="10.00">FreeRTOS.h</text>
</a>
</g>
</g>
<!-- Node1&#45;&gt;Node4 -->
<g id="edge11_Node000001_Node000004" class="edge">
<title>Node1&#45;&gt;Node4</title>
<g id="a_edge11_Node000001_Node000004"><a xlink:title=" ">
<path fill="none" stroke="#63b8ff" d="M424.74,-118.39C353.94,-112.04 238.11,-98.75 200.88,-77.5 181.49,-66.44 165.99,-45.74 156.44,-30.44"/>
<polygon fill="#63b8ff" stroke="#63b8ff" points="159.68,-29.03 151.59,-22.2 153.65,-32.59 159.68,-29.03"/>
</a>
</g>
</g>
<!-- Node6 -->
<g id="Node000006" class="node">
<title>Node6</title>
<g id="a_Node000006"><a xlink:title=" ">
<polygon fill="#e0e0e0" stroke="#999999" points="508.25,-77.5 455.5,-77.5 455.5,-56.75 508.25,-56.75 508.25,-77.5"/>
<text xml:space="preserve" text-anchor="middle" x="481.88" y="-64" font-family="Helvetica,sans-Serif" font-size="10.00">board.h</text>
</a>
</g>
</g>
<!-- Node1&#45;&gt;Node6 -->
<g id="edge5_Node000001_Node000006" class="edge">
<title>Node1&#45;&gt;Node6</title>
<g id="a_edge5_Node000001_Node000006"><a xlink:title=" ">
<path fill="none" stroke="#63b8ff" d="M481.88,-113.09C481.88,-106.47 481.88,-97.47 481.88,-89.27"/>
<polygon fill="#63b8ff" stroke="#63b8ff" points="485.38,-89.34 481.88,-79.34 478.38,-89.34 485.38,-89.34"/>
</a>
</g>
</g>
<!-- Node7 -->
<g id="Node000007" class="node">
<title>Node7</title>
<g id="a_Node000007"><a xlink:title=" ">
<polygon fill="#e0e0e0" stroke="#999999" points="611.38,-77.5 526.38,-77.5 526.38,-56.75 611.38,-56.75 611.38,-77.5"/>
<text xml:space="preserve" text-anchor="middle" x="568.88" y="-64" font-family="Helvetica,sans-Serif" font-size="10.00">clock_config.h</text>
</a>
</g>
</g>
<!-- Node1&#45;&gt;Node7 -->
<g id="edge6_Node000001_Node000007" class="edge">
<title>Node1&#45;&gt;Node7</title>
<g id="a_edge6_Node000001_Node000007"><a xlink:title=" ">
<path fill="none" stroke="#63b8ff" d="M497.43,-113.09C510.3,-104.99 528.82,-93.33 543.78,-83.92"/>
<polygon fill="#63b8ff" stroke="#63b8ff" points="545.58,-86.92 552.17,-78.63 541.85,-81 545.58,-86.92"/>
</a>
</g>
</g>
<!-- Node8 -->
<g id="Node000008" class="node">
<title>Node8</title>
<g id="a_Node000008"><a xlink:title=" ">
<polygon fill="#e0e0e0" stroke="#999999" points="744.38,-77.5 629.38,-77.5 629.38,-56.75 744.38,-56.75 744.38,-77.5"/>
<text xml:space="preserve" text-anchor="middle" x="686.88" y="-64" font-family="Helvetica,sans-Serif" font-size="10.00">fsl_debug_console.h</text>
</a>
</g>
</g>
<!-- Node1&#45;&gt;Node8 -->
<g id="edge7_Node000001_Node000008" class="edge">
<title>Node1&#45;&gt;Node8</title>
<g id="a_edge7_Node000001_Node000008"><a xlink:title=" ">
<path fill="none" stroke="#63b8ff" d="M518.52,-113.09C552.24,-104.08 602.43,-90.68 639.24,-80.85"/>
<polygon fill="#63b8ff" stroke="#63b8ff" points="639.98,-84.27 648.74,-78.31 638.17,-77.51 639.98,-84.27"/>
</a>
</g>
</g>
<!-- Node9 -->
<g id="Node000009" class="node">
<title>Node9</title>
<g id="a_Node000009"><a xlink:title=" ">
<polygon fill="#e0e0e0" stroke="#999999" points="279.75,-20.75 200,-20.75 200,0 279.75,0 279.75,-20.75"/>
<text xml:space="preserve" text-anchor="middle" x="239.88" y="-7.25" font-family="Helvetica,sans-Serif" font-size="10.00">peripherals.h</text>
</a>
</g>
</g>
<!-- Node1&#45;&gt;Node9 -->
<g id="edge8_Node000001_Node000009" class="edge">
<title>Node1&#45;&gt;Node9</title>
<g id="a_edge8_Node000001_Node000009"><a xlink:title=" ">
<path fill="none" stroke="#63b8ff" d="M424.99,-118.04C386.5,-112.67 335.78,-101.35 296.88,-77.5 277.77,-65.79 261.72,-45.54 251.56,-30.53"/>
<polygon fill="#63b8ff" stroke="#63b8ff" points="254.69,-28.92 246.33,-22.41 248.81,-32.72 254.69,-28.92"/>
</a>
</g>
</g>
<!-- Node10 -->
<g id="Node000010" class="node">
<title>Node10</title>
<g id="a_Node000010"><a xlink:title=" ">
<polygon fill="#e0e0e0" stroke="#999999" points="829.38,-77.5 762.38,-77.5 762.38,-56.75 829.38,-56.75 829.38,-77.5"/>
<text xml:space="preserve" text-anchor="middle" x="795.88" y="-64" font-family="Helvetica,sans-Serif" font-size="10.00">pin_mux.h</text>
</a>
</g>
</g>
<!-- Node1&#45;&gt;Node10 -->
<g id="edge9_Node000001_Node000010" class="edge">
<title>Node1&#45;&gt;Node10</title>
<g id="a_edge9_Node000001_Node000010"><a xlink:title=" ">
<path fill="none" stroke="#63b8ff" d="M539.08,-114.26C591.76,-106.11 672.34,-93.13 750.91,-78"/>
<polygon fill="#63b8ff" stroke="#63b8ff" points="751.35,-81.49 760.5,-76.14 750.01,-74.61 751.35,-81.49"/>
</a>
</g>
</g>
<!-- Node11 -->
<g id="Node000011" class="node">
<title>Node11</title>
<g id="a_Node000011"><a xlink:title=" ">
<polygon fill="#e0e0e0" stroke="#999999" points="896.38,-77.5 847.38,-77.5 847.38,-56.75 896.38,-56.75 896.38,-77.5"/>
<text xml:space="preserve" text-anchor="middle" x="871.88" y="-64" font-family="Helvetica,sans-Serif" font-size="10.00">stdio.h</text>
</a>
</g>
</g>
<!-- Node1&#45;&gt;Node11 -->
<g id="edge10_Node000001_Node000011" class="edge">
<title>Node1&#45;&gt;Node11</title>
<g id="a_edge10_Node000001_Node000011"><a xlink:title=" ">
<path fill="none" stroke="#63b8ff" d="M538.88,-118.29C607.43,-112.19 726.09,-99.76 836.14,-77.82"/>
<polygon fill="#63b8ff" stroke="#63b8ff" points="836.52,-81.31 845.62,-75.89 835.13,-74.45 836.52,-81.31"/>
</a>
</g>
</g>
<!-- Node12 -->
<g id="Node000012" class="node">
<title>Node12</title>
<g id="a_Node000012"><a xlink:title=" ">
<polygon fill="#e0e0e0" stroke="#999999" points="960.88,-77.5 914.88,-77.5 914.88,-56.75 960.88,-56.75 960.88,-77.5"/>
<text xml:space="preserve" text-anchor="middle" x="937.88" y="-64" font-family="Helvetica,sans-Serif" font-size="10.00">task.h</text>
</a>
</g>
</g>
<!-- Node1&#45;&gt;Node12 -->
<g id="edge12_Node000001_Node000012" class="edge">
<title>Node1&#45;&gt;Node12</title>
<g id="a_edge12_Node000001_Node000012"><a xlink:title=" ">
<path fill="none" stroke="#63b8ff" d="M538.94,-120.01C618.66,-115.29 767.94,-103.87 903.59,-77.64"/>
<polygon fill="#63b8ff" stroke="#63b8ff" points="903.96,-81.13 913.09,-75.77 902.6,-74.26 903.96,-81.13"/>
</a>
</g>
</g>
<!-- Node13 -->
<g id="Node000013" class="node">
<title>Node13</title>
<g id="a_Node000013"><a xlink:href="cli_8h.html" target="_top" xlink:title=" ">
<polygon fill="white" stroke="#666666" points="154,-77.5 117.75,-77.5 117.75,-56.75 154,-56.75 154,-77.5"/>
<text xml:space="preserve" text-anchor="middle" x="135.88" y="-64" font-family="Helvetica,sans-Serif" font-size="10.00">cli.h</text>
</a>
</g>
</g>
<!-- Node1&#45;&gt;Node13 -->
<g id="edge13_Node000001_Node000013" class="edge">
<title>Node1&#45;&gt;Node13</title>
<g id="a_edge13_Node000001_Node000013"><a xlink:title=" ">
<path fill="none" stroke="#63b8ff" d="M424.72,-117.08C361.45,-110.09 256.68,-96.82 167.88,-77.5 167.05,-77.32 166.21,-77.13 165.37,-76.93"/>
<polygon fill="#63b8ff" stroke="#63b8ff" points="166.4,-73.58 155.84,-74.41 164.61,-80.35 166.4,-73.58"/>
</a>
</g>
</g>
<!-- Node15 -->
<g id="Node000015" class="node">
<title>Node15</title>
<g id="a_Node000015"><a xlink:href="disk_8h.html" target="_top" xlink:title=" ">
<polygon fill="white" stroke="#666666" points="437.5,-77.5 392.25,-77.5 392.25,-56.75 437.5,-56.75 437.5,-77.5"/>
<text xml:space="preserve" text-anchor="middle" x="414.88" y="-64" font-family="Helvetica,sans-Serif" font-size="10.00">disk.h</text>
</a>
</g>
</g>
<!-- Node1&#45;&gt;Node15 -->
<g id="edge17_Node000001_Node000015" class="edge">
<title>Node1&#45;&gt;Node15</title>
<g id="a_edge17_Node000001_Node000015"><a xlink:title=" ">
<path fill="none" stroke="#63b8ff" d="M469.9,-113.09C460.37,-105.3 446.81,-94.22 435.54,-85.01"/>
<polygon fill="#63b8ff" stroke="#63b8ff" points="437.88,-82.4 427.92,-78.79 433.45,-87.82 437.88,-82.4"/>
</a>
</g>
</g>
<!-- Node18 -->
<g id="Node000018" class="node">
<title>Node18</title>
<g id="a_Node000018"><a xlink:href="motor__test_8h.html" target="_top" xlink:title=" ">
<polygon fill="white" stroke="#666666" points="1057,-77.5 978.75,-77.5 978.75,-56.75 1057,-56.75 1057,-77.5"/>
<text xml:space="preserve" text-anchor="middle" x="1017.88" y="-64" font-family="Helvetica,sans-Serif" font-size="10.00">motor_test.h</text>
</a>
</g>
</g>
<!-- Node1&#45;&gt;Node18 -->
<g id="edge21_Node000001_Node000018" class="edge">
<title>Node1&#45;&gt;Node18</title>
<g id="a_edge21_Node000001_Node000018"><a xlink:title=" ">
<path fill="none" stroke="#63b8ff" d="M538.82,-119.44C628.05,-113.64 806.45,-100.42 967.32,-77.74"/>
<polygon fill="#63b8ff" stroke="#63b8ff" points="967.47,-81.26 976.88,-76.38 966.48,-74.33 967.47,-81.26"/>
</a>
</g>
</g>
<!-- Node19 -->
<g id="Node000019" class="node">
<title>Node19</title>
<g id="a_Node000019"><a xlink:href="step_8h.html" target="_top" xlink:title=" ">
<polygon fill="white" stroke="#666666" points="1120.88,-77.5 1074.88,-77.5 1074.88,-56.75 1120.88,-56.75 1120.88,-77.5"/>
<text xml:space="preserve" text-anchor="middle" x="1097.88" y="-64" font-family="Helvetica,sans-Serif" font-size="10.00">step.h</text>
</a>
</g>
</g>
<!-- Node1&#45;&gt;Node19 -->
<g id="edge22_Node000001_Node000019" class="edge">
<title>Node1&#45;&gt;Node19</title>
<g id="a_edge22_Node000001_Node000019"><a xlink:title=" ">
<path fill="none" stroke="#63b8ff" d="M538.75,-122.36C641.82,-120.57 866.29,-112.81 1063.44,-77.58"/>
<polygon fill="#63b8ff" stroke="#63b8ff" points="1063.89,-81.06 1073.1,-75.82 1062.64,-74.17 1063.89,-81.06"/>
</a>
</g>
</g>
<!-- Node23 -->
<g id="Node000023" class="node">
<title>Node23</title>
<g id="a_Node000023"><a xlink:href="tmc2209_8h.html" target="_top" xlink:title=" ">
<polygon fill="white" stroke="#666666" points="373.75,-77.5 306,-77.5 306,-56.75 373.75,-56.75 373.75,-77.5"/>
<text xml:space="preserve" text-anchor="middle" x="339.88" y="-64" font-family="Helvetica,sans-Serif" font-size="10.00">tmc2209.h</text>
</a>
</g>
</g>
<!-- Node1&#45;&gt;Node23 -->
<g id="edge26_Node000001_Node000023" class="edge">
<title>Node1&#45;&gt;Node23</title>
<g id="a_edge26_Node000001_Node000023"><a xlink:title=" ">
<path fill="none" stroke="#63b8ff" d="M456.49,-113.09C433.97,-104.41 400.85,-91.63 375.65,-81.92"/>
<polygon fill="#63b8ff" stroke="#63b8ff" points="377.04,-78.7 366.45,-78.37 374.53,-85.24 377.04,-78.7"/>
</a>
</g>
</g>
<!-- Node3&#45;&gt;Node4 -->
<g id="edge3_Node000003_Node000004" class="edge">
<title>Node3&#45;&gt;Node4</title>
<g id="a_edge3_Node000003_Node000004"><a xlink:title=" ">
<path fill="none" stroke="#63b8ff" d="M214.86,-56.34C202.43,-48.24 184.55,-36.58 170.1,-27.17"/>
<polygon fill="#63b8ff" stroke="#63b8ff" points="172.32,-24.43 162.03,-21.9 168.5,-30.3 172.32,-24.43"/>
</a>
</g>
</g>
<!-- Node5 -->
<g id="Node000005" class="node">
<title>Node5</title>
<g id="a_Node000005"><a xlink:title=" ">
<polygon fill="#e0e0e0" stroke="#999999" points="382.38,-20.75 297.38,-20.75 297.38,0 382.38,0 382.38,-20.75"/>
<text xml:space="preserve" text-anchor="middle" x="339.88" y="-7.25" font-family="Helvetica,sans-Serif" font-size="10.00">fsl_common.h</text>
</a>
</g>
</g>
<!-- Node3&#45;&gt;Node5 -->
<g id="edge4_Node000003_Node000005" class="edge">
<title>Node3&#45;&gt;Node5</title>
<g id="a_edge4_Node000003_Node000005"><a xlink:title=" ">
<path fill="none" stroke="#63b8ff" d="M249.54,-56.34C266.43,-47.93 291.04,-35.68 310.31,-26.09"/>
<polygon fill="#63b8ff" stroke="#63b8ff" points="311.63,-29.34 319.02,-21.75 308.51,-23.08 311.63,-29.34"/>
</a>
</g>
</g>
<!-- Node13&#45;&gt;Node4 -->
<g id="edge14_Node000013_Node000004" class="edge">
<title>Node13&#45;&gt;Node4</title>
<g id="a_edge14_Node000013_Node000004"><a xlink:title=" ">
<path fill="none" stroke="#63b8ff" d="M137.66,-56.34C138.89,-49.64 140.55,-40.51 142.07,-32.23"/>
<polygon fill="#63b8ff" stroke="#63b8ff" points="145.48,-33.03 143.83,-22.57 138.59,-31.78 145.48,-33.03"/>
</a>
</g>
</g>
<!-- Node13&#45;&gt;Node9 -->
<g id="edge16_Node000013_Node000009" class="edge">
<title>Node13&#45;&gt;Node9</title>
<g id="a_edge16_Node000013_Node000009"><a xlink:title=" ">
<path fill="none" stroke="#63b8ff" d="M154.47,-56.34C170.29,-48.01 193.27,-35.91 211.41,-26.36"/>
<polygon fill="#63b8ff" stroke="#63b8ff" points="212.89,-29.54 220.1,-21.78 209.62,-23.34 212.89,-29.54"/>
</a>
</g>
</g>
<!-- Node14 -->
<g id="Node000014" class="node">
<title>Node14</title>
<g id="a_Node000014"><a xlink:title=" ">
<polygon fill="#e0e0e0" stroke="#999999" points="91.75,-20.75 0,-20.75 0,0 91.75,0 91.75,-20.75"/>
<text xml:space="preserve" text-anchor="middle" x="45.88" y="-7.25" font-family="Helvetica,sans-Serif" font-size="10.00">FreeRTOS_CLI.h</text>
</a>
</g>
</g>
<!-- Node13&#45;&gt;Node14 -->
<g id="edge15_Node000013_Node000014" class="edge">
<title>Node13&#45;&gt;Node14</title>
<g id="a_edge15_Node000013_Node000014"><a xlink:title=" ">
<path fill="none" stroke="#63b8ff" d="M119.78,-56.34C106.35,-48.16 86.94,-36.36 71.39,-26.9"/>
<polygon fill="#63b8ff" stroke="#63b8ff" points="73.48,-24.07 63.12,-21.87 69.84,-30.05 73.48,-24.07"/>
</a>
</g>
</g>
<!-- Node15&#45;&gt;Node5 -->
<g id="edge19_Node000015_Node000005" class="edge">
<title>Node15&#45;&gt;Node5</title>
<g id="a_edge19_Node000015_Node000005"><a xlink:title=" ">
<path fill="none" stroke="#63b8ff" d="M401.47,-56.34C390.59,-48.4 375.02,-37.03 362.26,-27.71"/>
<polygon fill="#63b8ff" stroke="#63b8ff" points="364.53,-25.04 354.39,-21.97 360.4,-30.69 364.53,-25.04"/>
</a>
</g>
</g>
<!-- Node16 -->
<g id="Node000016" class="node">
<title>Node16</title>
<g id="a_Node000016"><a xlink:title=" ">
<polygon fill="#e0e0e0" stroke="#999999" points="502.75,-20.75 471,-20.75 471,0 502.75,0 502.75,-20.75"/>
<text xml:space="preserve" text-anchor="middle" x="486.88" y="-7.25" font-family="Helvetica,sans-Serif" font-size="10.00">ff.h</text>
</a>
</g>
</g>
<!-- Node15&#45;&gt;Node16 -->
<g id="edge18_Node000015_Node000016" class="edge">
<title>Node15&#45;&gt;Node16</title>
<g id="a_edge18_Node000015_Node000016"><a xlink:title=" ">
<path fill="none" stroke="#63b8ff" d="M427.75,-56.34C438.09,-48.47 452.84,-37.25 465.03,-27.99"/>
<polygon fill="#63b8ff" stroke="#63b8ff" points="467.07,-30.83 472.91,-21.99 462.83,-25.26 467.07,-30.83"/>
</a>
</g>
</g>
<!-- Node17 -->
<g id="Node000017" class="node">
<title>Node17</title>
<g id="a_Node000017"><a xlink:title=" ">
<polygon fill="#e0e0e0" stroke="#999999" points="575,-20.75 520.75,-20.75 520.75,0 575,0 575,-20.75"/>
<text xml:space="preserve" text-anchor="middle" x="547.88" y="-7.25" font-family="Helvetica,sans-Serif" font-size="10.00">diskio.h</text>
</a>
</g>
</g>
<!-- Node15&#45;&gt;Node17 -->
<g id="edge20_Node000015_Node000017" class="edge">
<title>Node15&#45;&gt;Node17</title>
<g id="a_edge20_Node000015_Node000017"><a xlink:title=" ">
<path fill="none" stroke="#63b8ff" d="M437.74,-56.71C458.61,-48.12 489.74,-35.31 513.58,-25.49"/>
<polygon fill="#63b8ff" stroke="#63b8ff" points="514.65,-28.84 522.57,-21.79 511.99,-22.36 514.65,-28.84"/>
</a>
</g>
</g>
<!-- Node20 -->
<g id="Node000020" class="node">
<title>Node20</title>
<g id="a_Node000020"><a xlink:title=" ">
<polygon fill="#e0e0e0" stroke="#999999" points="1048.25,-20.75 989.5,-20.75 989.5,0 1048.25,0 1048.25,-20.75"/>
<text xml:space="preserve" text-anchor="middle" x="1018.88" y="-7.25" font-family="Helvetica,sans-Serif" font-size="10.00">fsl_ftm.h</text>
</a>
</g>
</g>
<!-- Node19&#45;&gt;Node20 -->
<g id="edge23_Node000019_Node000020" class="edge">
<title>Node19&#45;&gt;Node20</title>
<g id="a_edge23_Node000019_Node000020"><a xlink:title=" ">
<path fill="none" stroke="#63b8ff" d="M1083.75,-56.34C1072.18,-48.32 1055.57,-36.81 1042.06,-27.44"/>
<polygon fill="#63b8ff" stroke="#63b8ff" points="1044.33,-24.76 1034.12,-21.94 1040.35,-30.51 1044.33,-24.76"/>
</a>
</g>
</g>
<!-- Node21 -->
<g id="Node000021" class="node">
<title>Node21</title>
<g id="a_Node000021"><a xlink:title=" ">
<polygon fill="#e0e0e0" stroke="#999999" points="1129.5,-20.75 1066.25,-20.75 1066.25,0 1129.5,0 1129.5,-20.75"/>
<text xml:space="preserve" text-anchor="middle" x="1097.88" y="-7.25" font-family="Helvetica,sans-Serif" font-size="10.00">fsl_gpio.h</text>
</a>
</g>
</g>
<!-- Node19&#45;&gt;Node21 -->
<g id="edge24_Node000019_Node000021" class="edge">
<title>Node19&#45;&gt;Node21</title>
<g id="a_edge24_Node000019_Node000021"><a xlink:title=" ">
<path fill="none" stroke="#63b8ff" d="M1097.88,-56.34C1097.88,-49.72 1097.88,-40.72 1097.88,-32.52"/>
<polygon fill="#63b8ff" stroke="#63b8ff" points="1101.38,-32.59 1097.88,-22.59 1094.38,-32.59 1101.38,-32.59"/>
</a>
</g>
</g>
<!-- Node22 -->
<g id="Node000022" class="node">
<title>Node22</title>
<g id="a_Node000022"><a xlink:title=" ">
<polygon fill="#e0e0e0" stroke="#999999" points="1209.75,-20.75 1148,-20.75 1148,0 1209.75,0 1209.75,-20.75"/>
<text xml:space="preserve" text-anchor="middle" x="1178.88" y="-7.25" font-family="Helvetica,sans-Serif" font-size="10.00">fsl_port.h</text>
</a>
</g>
</g>
<!-- Node19&#45;&gt;Node22 -->
<g id="edge25_Node000019_Node000022" class="edge">
<title>Node19&#45;&gt;Node22</title>
<g id="a_edge25_Node000019_Node000022"><a xlink:title=" ">
<path fill="none" stroke="#63b8ff" d="M1112.36,-56.34C1124.22,-48.32 1141.25,-36.81 1155.11,-27.44"/>
<polygon fill="#63b8ff" stroke="#63b8ff" points="1156.94,-30.43 1163.27,-21.93 1153.02,-24.63 1156.94,-30.43"/>
</a>
</g>
</g>
<!-- Node23&#45;&gt;Node5 -->
<g id="edge27_Node000023_Node000005" class="edge">
<title>Node23&#45;&gt;Node5</title>
<g id="a_edge27_Node000023_Node000005"><a xlink:title=" ">
<path fill="none" stroke="#63b8ff" d="M339.88,-56.34C339.88,-49.72 339.88,-40.72 339.88,-32.52"/>
<polygon fill="#63b8ff" stroke="#63b8ff" points="343.38,-32.59 339.88,-22.59 336.38,-32.59 343.38,-32.59"/>
</a>
</g>
</g>
<!-- Node23&#45;&gt;Node9 -->
<g id="edge28_Node000023_Node000009" class="edge">
<title>Node23&#45;&gt;Node9</title>
<g id="a_edge28_Node000023_Node000009"><a xlink:title=" ">
<path fill="none" stroke="#63b8ff" d="M322,-56.34C306.78,-48.01 284.68,-35.91 267.24,-26.36"/>
<polygon fill="#63b8ff" stroke="#63b8ff" points="269.38,-23.54 258.93,-21.81 266.02,-29.68 269.38,-23.54"/>
</a>
</g>
</g>
<!-- Node24 -->
<g id="Node000024" class="node">
<title>Node24</title>
<g id="a_Node000024"><a xlink:title=" ">
<polygon fill="#e0e0e0" stroke="#999999" points="453.25,-20.75 400.5,-20.75 400.5,0 453.25,0 453.25,-20.75"/>
<text xml:space="preserve" text-anchor="middle" x="426.88" y="-7.25" font-family="Helvetica,sans-Serif" font-size="10.00">stdint.h</text>
</a>
</g>
</g>
<!-- Node23&#45;&gt;Node24 -->
<g id="edge29_Node000023_Node000024" class="edge">
<title>Node23&#45;&gt;Node24</title>
<g id="a_edge29_Node000023_Node000024"><a xlink:title=" ">
<path fill="none" stroke="#63b8ff" d="M355.43,-56.34C368.3,-48.24 386.82,-36.58 401.78,-27.17"/>
<polygon fill="#63b8ff" stroke="#63b8ff" points="403.58,-30.17 410.17,-21.88 399.85,-24.25 403.58,-30.17"/>
</a>
</g>
</g>
</g>
</svg>

<g id="navigator" transform="translate(0 0)" fill="#404254">
  <rect fill="#f2f5e9" fill-opacity="0.5" stroke="#606060" stroke-width=".5" x="0" y="0" width="60" height="60"/>
  <use id="zoomplus" xlink:href="#zoomPlus" x="17" y="9" onmousedown="handleZoom(evt,'in')"/>
  <use id="zoomminus" xlink:href="#zoomMin" x="42" y="9" onmousedown="handleZoom(evt,'out')"/>
  <use id="reset" xlink:href="#resetDef" x="30" y="36" onmousedown="handleReset()"/>
   <use id="arrowup" xlink:href="#arrowUp" x="0" y="0" onmousedown="handlePan(0,-1)"/>
  <use id="arrowright" xlink:href="#arrowRight" x="0" y="0" onmousedown="handlePan(1,0)"/>
  <use id="arrowdown" xlink:href="#arrowDown" x="0" y="0" onmousedown="handlePan(0,1)"/>
  <use id="arrowleft" xlink:href="#arrowLeft" x="0" y="0" onmousedown="handlePan(-1,0)"/>
</g>
<svg viewBox="0 0 15 15" width="100%" height="30px" preserveAspectRatio="xMaxYMin meet">
 <g id="arrow_out" transform="scale(0.3 0.3)">
  <a xlink:href="application_8c__incl_org.svg" target="_base">
   <rect id="button" ry="5" rx="5" y="6" x="6" height="38" width="38"
        fill="#f2f5e9" fill-opacity="0.5" stroke="#606060" stroke-width="1.0"/>
   <path id="arrow"
     d="M 11.500037,31.436501 C 11.940474,20.09759 22.043105,11.32322 32.158766,21.979434 L 37.068811,17.246167 C 37.068811,17.246167 37.088388,32 37.088388,32 L 22.160133,31.978069 C 22.160133,31.978069 26.997745,27.140456 26.997745,27.140456 C 18.528582,18.264221 13.291696,25.230495 11.500037,31.436501 z"
     style="fill:#404040;"/>
  </a>
 </g>
</svg>

<style type='text/css'>
<![CDATA[
[data-mouse-over-selected='false'] { opacity: 0.7; }
[data-mouse-over-selected='true']  { opacity: 1.0; }
]]>
</style>
<script type="application/ecmascript"><![CDATA[
document.addEventListener('DOMContentLoaded', (event) => {
  highlightEdges();
  highlightAdjacentNodes();
});
]]></script>
</svg>
