<?xml version="1.0" encoding="UTF-8" standalone="no"?>
<!DOCTYPE svg PUBLIC "-//W3C//DTD SVG 1.1//EN"
 "http://www.w3.org/Graphics/SVG/1.1/DTD/svg11.dtd">
<!-- Generated by graphviz version 14.1.2 (0)
 -->
<!-- Title: source/application.h Pages: 1 -->
<svg width="280pt" height="86pt"
 viewBox="0.00 0.00 280.00 86.00" xmlns="http://www.w3.org/2000/svg" xmlns:xlink="http://www.w3.org/1999/xlink">
<g id="graph0" class="graph" transform="scale(1 1) rotate(0) translate(4 81.5)">
<title>source/application.h</title>
<!-- Node1 -->
<g id="Node000001" class="node">
<title>Node1</title>
<g id="a_Node000001"><a xlink:title=" ">
<polygon fill="#999999" stroke="#666666" points="199,-77.5 84.75,-77.5 84.75,-56.75 199,-56.75 199,-77.5"/>
<text xml:space="preserve" text-anchor="middle" x="141.88" y="-64" font-family="Helvetica,sans-Serif" font-size="10.00">source/application.h</text>
</a>
</g>
</g>
<!-- Node2 -->
<g id="Node000002" class="node">
<title>Node2</title>
<g id="a_Node000002"><a xlink:href="TMC2209__Driver_8c.html" target="_top" xlink:title="Application entry point.">
<polygon fill="white" stroke="#666666" points="139.75,-20.75 0,-20.75 0,0 139.75,0 139.75,-20.75"/>
<text xml:space="preserve" text-anchor="middle" x="69.88" y="-7.25" font-family="Helvetica,sans-Serif" font-size="10.00">source/TMC2209_Driver.c</text>
</a>
</g>
</g>
<!-- Node1&#45;&gt;Node2 -->
<g id="edge1_Node000001_Node000002" class="edge">
<title>Node1&#45;&gt;Node2</title>
<g id="a_edge1_Node000001_Node000002"><a xlink:title=" ">
<path fill="none" stroke="#63b8ff" d="M119.9,-49.41C107.69,-40.13 92.94,-28.92 82.64,-21.08"/>
<polygon fill="#63b8ff" stroke="#63b8ff" points="117.72,-52.15 127.8,-55.42 121.96,-46.58 117.72,-52.15"/>
</a>
</g>
</g>
<!-- Node3 -->
<g id="Node000003" class="node">
<title>Node3</title>
<g id="a_Node000003"><a xlink:href="application_8c.html" target="_top" xlink:title=" ">
<polygon fill="white" stroke="#666666" points="271.62,-20.75 158.12,-20.75 158.12,0 271.62,0 271.62,-20.75"/>
<text xml:space="preserve" text-anchor="middle" x="214.88" y="-7.25" font-family="Helvetica,sans-Serif" font-size="10.00">source/application.c</text>
</a>
</g>
</g>
<!-- Node1&#45;&gt;Node3 -->
<g id="edge2_Node000001_Node000003" class="edge">
<title>Node1&#45;&gt;Node3</title>
<g id="a_edge2_Node000001_Node000003"><a xlink:title=" ">
<path fill="none" stroke="#63b8ff" d="M163.79,-49.69C176.23,-40.36 191.38,-29 201.94,-21.08"/>
<polygon fill="#63b8ff" stroke="#63b8ff" points="162.04,-46.63 156.14,-55.43 166.24,-52.23 162.04,-46.63"/>
</a>
</g>
</g>
</g>
</svg>
