<?xml version="1.0" encoding="UTF-8" standalone="no"?>
<!DOCTYPE svg PUBLIC "-//W3C//DTD SVG 1.1//EN"
 "http://www.w3.org/Graphics/SVG/1.1/DTD/svg11.dtd">
<!-- Generated by graphviz version 14.1.3 (0)
 -->
<!-- Title: source/application.c Pages: 1 -->
<svg width="1189pt" height="199pt"
 viewBox="0.00 0.00 1189.00 199.00" xmlns="http://www.w3.org/2000/svg" xmlns:xlink="http://www.w3.org/1999/xlink">
<g id="graph0" class="graph" transform="scale(1 1) rotate(0) translate(4 195)">
<title>source/application.c</title>
<!-- Node1 -->
<g id="Node000001" class="node">
<title>Node1</title>
<g id="a_Node000001"><a xlink:title=" ">
<polygon fill="#999999" stroke="#666666" points="570.62,-191 457.12,-191 457.12,-170.25 570.62,-170.25 570.62,-191"/>
<text xml:space="preserve" text-anchor="middle" x="513.88" y="-177.5" font-family="Helvetica,sans-Serif" font-size="10.00">source/application.c</text>
</a>
</g>
</g>
<!-- Node2 -->
<g id="Node000002" class="node">
<title>Node2</title>
<g id="a_Node000002"><a xlink:href="application_8h.html" target="_top" xlink:title=" ">
<polygon fill="white" stroke="#666666" points="119.38,-134.25 40.38,-134.25 40.38,-113.5 119.38,-113.5 119.38,-134.25"/>
<text xml:space="preserve" text-anchor="middle" x="79.88" y="-120.75" font-family="Helvetica,sans-Serif" font-size="10.00">application.h</text>
</a>
</g>
</g>
<!-- Node1&#45;&gt;Node2 -->
<g id="edge1_Node000001_Node000002" class="edge">
<title>Node1&#45;&gt;Node2</title>
<g id="a_edge1_Node000001_Node000002"><a xlink:title=" ">
<path fill="none" stroke="#63b8ff" d="M456.78,-173.76C382.32,-165.9 248.1,-150.97 133.88,-134.25 132.87,-134.1 131.85,-133.95 130.82,-133.8"/>
<polygon fill="#63b8ff" stroke="#63b8ff" points="131.57,-130.37 121.14,-132.26 130.47,-137.28 131.57,-130.37"/>
</a>
</g>
</g>
<!-- Node3 -->
<g id="Node000003" class="node">
<title>Node3</title>
<g id="a_Node000003"><a xlink:href="log_8h.html" target="_top" xlink:title=" ">
<polygon fill="white" stroke="#666666" points="307.88,-77.5 267.88,-77.5 267.88,-56.75 307.88,-56.75 307.88,-77.5"/>
<text xml:space="preserve" text-anchor="middle" x="287.88" y="-64" font-family="Helvetica,sans-Serif" font-size="10.00">log.h</text>
</a>
</g>
</g>
<!-- Node1&#45;&gt;Node3 -->
<g id="edge2_Node000001_Node000003" class="edge">
<title>Node1&#45;&gt;Node3</title>
<g id="a_edge2_Node000001_Node000003"><a xlink:title=" ">
<path fill="none" stroke="#63b8ff" d="M462.78,-169.82C432.73,-162.7 394.71,-151.29 363.88,-134.25 340.8,-121.5 318.56,-100.84 304.16,-86.01"/>
<polygon fill="#63b8ff" stroke="#63b8ff" points="306.72,-83.62 297.31,-78.75 301.63,-88.42 306.72,-83.62"/>
</a>
</g>
</g>
<!-- Node4 -->
<g id="Node000004" class="node">
<title>Node4</title>
<g id="a_Node000004"><a xlink:title=" ">
<polygon fill="#e0e0e0" stroke="#999999" points="181.62,-20.75 110.12,-20.75 110.12,0 181.62,0 181.62,-20.75"/>
<text xml:space="preserve" text-anchor="middle" x="145.88" y="-7.25" font-family="Helvetica,sans-Serif" font-size="10.00">FreeRTOS.h</text>
</a>
</g>
</g>
<!-- Node1&#45;&gt;Node4 -->
<g id="edge11_Node000001_Node000004" class="edge">
<title>Node1&#45;&gt;Node4</title>
<g id="a_edge11_Node000001_Node000004"><a xlink:title=" ">
<path fill="none" stroke="#63b8ff" d="M456.66,-176.73C379.13,-171.89 245.68,-160.02 204.88,-134.25 169.15,-111.69 154.55,-60.81 149,-32.1"/>
<polygon fill="#63b8ff" stroke="#63b8ff" points="152.48,-31.73 147.34,-22.47 145.59,-32.92 152.48,-31.73"/>
</a>
</g>
</g>
<!-- Node6 -->
<g id="Node000006" class="node">
<title>Node6</title>
<g id="a_Node000006"><a xlink:title=" ">
<polygon fill="#e0e0e0" stroke="#999999" points="696.25,-134.25 643.5,-134.25 643.5,-113.5 696.25,-113.5 696.25,-134.25"/>
<text xml:space="preserve" text-anchor="middle" x="669.88" y="-120.75" font-family="Helvetica,sans-Serif" font-size="10.00">board.h</text>
</a>
</g>
</g>
<!-- Node1&#45;&gt;Node6 -->
<g id="edge5_Node000001_Node000006" class="edge">
<title>Node1&#45;&gt;Node6</title>
<g id="a_edge5_Node000001_Node000006"><a xlink:title=" ">
<path fill="none" stroke="#63b8ff" d="M541.76,-169.84C567.06,-160.96 604.56,-147.8 632.46,-138.01"/>
<polygon fill="#63b8ff" stroke="#63b8ff" points="633.3,-141.42 641.58,-134.81 630.99,-134.81 633.3,-141.42"/>
</a>
</g>
</g>
<!-- Node7 -->
<g id="Node000007" class="node">
<title>Node7</title>
<g id="a_Node000007"><a xlink:title=" ">
<polygon fill="#e0e0e0" stroke="#999999" points="799.38,-134.25 714.38,-134.25 714.38,-113.5 799.38,-113.5 799.38,-134.25"/>
<text xml:space="preserve" text-anchor="middle" x="756.88" y="-120.75" font-family="Helvetica,sans-Serif" font-size="10.00">clock_config.h</text>
</a>
</g>
</g>
<!-- Node1&#45;&gt;Node7 -->
<g id="edge6_Node000001_Node000007" class="edge">
<title>Node1&#45;&gt;Node7</title>
<g id="a_edge6_Node000001_Node000007"><a xlink:title=" ">
<path fill="none" stroke="#63b8ff" d="M557.6,-169.77C598.33,-160.6 659.17,-146.89 702.9,-137.04"/>
<polygon fill="#63b8ff" stroke="#63b8ff" points="703.45,-140.5 712.43,-134.89 701.91,-133.67 703.45,-140.5"/>
</a>
</g>
</g>
<!-- Node8 -->
<g id="Node000008" class="node">
<title>Node8</title>
<g id="a_Node000008"><a xlink:title=" ">
<polygon fill="#e0e0e0" stroke="#999999" points="932.38,-134.25 817.38,-134.25 817.38,-113.5 932.38,-113.5 932.38,-134.25"/>
<text xml:space="preserve" text-anchor="middle" x="874.88" y="-120.75" font-family="Helvetica,sans-Serif" font-size="10.00">fsl_debug_console.h</text>
</a>
</g>
</g>
<!-- Node1&#45;&gt;Node8 -->
<g id="edge7_Node000001_Node000008" class="edge">
<title>Node1&#45;&gt;Node8</title>
<g id="a_edge7_Node000001_Node000008"><a xlink:title=" ">
<path fill="none" stroke="#63b8ff" d="M571.08,-170.95C634.83,-161.28 737.88,-145.65 806.01,-135.32"/>
<polygon fill="#63b8ff" stroke="#63b8ff" points="806.19,-138.83 815.55,-133.87 805.14,-131.91 806.19,-138.83"/>
</a>
</g>
</g>
<!-- Node9 -->
<g id="Node000009" class="node">
<title>Node9</title>
<g id="a_Node000009"><a xlink:title=" ">
<polygon fill="#e0e0e0" stroke="#999999" points="279.75,-20.75 200,-20.75 200,0 279.75,0 279.75,-20.75"/>
<text xml:space="preserve" text-anchor="middle" x="239.88" y="-7.25" font-family="Helvetica,sans-Serif" font-size="10.00">peripherals.h</text>
</a>
</g>
</g>
<!-- Node1&#45;&gt;Node9 -->
<g id="edge8_Node000001_Node000009" class="edge">
<title>Node1&#45;&gt;Node9</title>
<g id="a_edge8_Node000001_Node000009"><a xlink:title=" ">
<path fill="none" stroke="#63b8ff" d="M456.89,-171.89C419.64,-165.32 370.71,-153.75 330.88,-134.25 294.28,-116.33 281.6,-111.32 258.88,-77.5 249.8,-63.99 245,-46.12 242.5,-32.37"/>
<polygon fill="#63b8ff" stroke="#63b8ff" points="245.98,-31.99 241.02,-22.63 239.06,-33.04 245.98,-31.99"/>
</a>
</g>
</g>
<!-- Node10 -->
<g id="Node000010" class="node">
<title>Node10</title>
<g id="a_Node000010"><a xlink:title=" ">
<polygon fill="#e0e0e0" stroke="#999999" points="1017.38,-134.25 950.38,-134.25 950.38,-113.5 1017.38,-113.5 1017.38,-134.25"/>
<text xml:space="preserve" text-anchor="middle" x="983.88" y="-120.75" font-family="Helvetica,sans-Serif" font-size="10.00">pin_mux.h</text>
</a>
</g>
</g>
<!-- Node1&#45;&gt;Node10 -->
<g id="edge9_Node000001_Node000010" class="edge">
<title>Node1&#45;&gt;Node10</title>
<g id="a_edge9_Node000001_Node000010"><a xlink:title=" ">
<path fill="none" stroke="#63b8ff" d="M570.92,-175.66C651.05,-169.62 801.68,-156.61 938.9,-134.59"/>
<polygon fill="#63b8ff" stroke="#63b8ff" points="939.21,-138.09 948.52,-133.02 938.09,-131.18 939.21,-138.09"/>
</a>
</g>
</g>
<!-- Node11 -->
<g id="Node000011" class="node">
<title>Node11</title>
<g id="a_Node000011"><a xlink:title=" ">
<polygon fill="#e0e0e0" stroke="#999999" points="1084.38,-134.25 1035.38,-134.25 1035.38,-113.5 1084.38,-113.5 1084.38,-134.25"/>
<text xml:space="preserve" text-anchor="middle" x="1059.88" y="-120.75" font-family="Helvetica,sans-Serif" font-size="10.00">stdio.h</text>
</a>
</g>
</g>
<!-- Node1&#45;&gt;Node11 -->
<g id="edge10_Node000001_Node000011" class="edge">
<title>Node1&#45;&gt;Node11</title>
<g id="a_edge10_Node000001_Node000011"><a xlink:title=" ">
<path fill="none" stroke="#63b8ff" d="M570.9,-178.09C664.06,-174.81 854.7,-164.91 1024.01,-134.48"/>
<polygon fill="#63b8ff" stroke="#63b8ff" points="1024.43,-137.96 1033.64,-132.72 1023.17,-131.08 1024.43,-137.96"/>
</a>
</g>
</g>
<!-- Node12 -->
<g id="Node000012" class="node">
<title>Node12</title>
<g id="a_Node000012"><a xlink:title=" ">
<polygon fill="#e0e0e0" stroke="#999999" points="684.88,-20.75 638.88,-20.75 638.88,0 684.88,0 684.88,-20.75"/>
<text xml:space="preserve" text-anchor="middle" x="661.88" y="-7.25" font-family="Helvetica,sans-Serif" font-size="10.00">task.h</text>
</a>
</g>
</g>
<!-- Node1&#45;&gt;Node12 -->
<g id="edge12_Node000001_Node000012" class="edge">
<title>Node1&#45;&gt;Node12</title>
<g id="a_edge12_Node000001_Node000012"><a xlink:title=" ">
<path fill="none" stroke="#63b8ff" d="M531.87,-169.78C565.43,-151.43 634.22,-113.81 634.88,-113.5 672.22,-95.54 697.92,-112 720.88,-77.5 733.4,-58.68 712.1,-39.68 691.69,-26.9"/>
<polygon fill="#63b8ff" stroke="#63b8ff" points="693.59,-23.96 683.2,-21.93 690.05,-30 693.59,-23.96"/>
</a>
</g>
</g>
<!-- Node13 -->
<g id="Node000013" class="node">
<title>Node13</title>
<g id="a_Node000013"><a xlink:href="cli_8h.html" target="_top" xlink:title=" ">
<polygon fill="white" stroke="#666666" points="212,-77.5 175.75,-77.5 175.75,-56.75 212,-56.75 212,-77.5"/>
<text xml:space="preserve" text-anchor="middle" x="193.88" y="-64" font-family="Helvetica,sans-Serif" font-size="10.00">cli.h</text>
</a>
</g>
</g>
<!-- Node1&#45;&gt;Node13 -->
<g id="edge13_Node000001_Node000013" class="edge">
<title>Node1&#45;&gt;Node13</title>
<g id="a_edge13_Node000001_Node000013"><a xlink:title=" ">
<path fill="none" stroke="#63b8ff" d="M456.93,-176.84C383.66,-172.22 261.55,-160.71 225.88,-134.25 211,-123.22 202.71,-103.43 198.31,-88.37"/>
<polygon fill="#63b8ff" stroke="#63b8ff" points="201.79,-87.86 195.94,-79.02 195.01,-89.58 201.79,-87.86"/>
</a>
</g>
</g>
<!-- Node15 -->
<g id="Node000015" class="node">
<title>Node15</title>
<g id="a_Node000015"><a xlink:href="disk_8h.html" target="_top" xlink:title=" ">
<polygon fill="white" stroke="#666666" points="587.5,-134.25 542.25,-134.25 542.25,-113.5 587.5,-113.5 587.5,-134.25"/>
<text xml:space="preserve" text-anchor="middle" x="564.88" y="-120.75" font-family="Helvetica,sans-Serif" font-size="10.00">disk.h</text>
</a>
</g>
</g>
<!-- Node1&#45;&gt;Node15 -->
<g id="edge17_Node000001_Node000015" class="edge">
<title>Node1&#45;&gt;Node15</title>
<g id="a_edge17_Node000001_Node000015"><a xlink:title=" ">
<path fill="none" stroke="#63b8ff" d="M522.99,-169.84C529.96,-162.36 539.74,-151.86 548.11,-142.88"/>
<polygon fill="#63b8ff" stroke="#63b8ff" points="550.55,-145.39 554.8,-135.69 545.43,-140.62 550.55,-145.39"/>
</a>
</g>
</g>
<!-- Node18 -->
<g id="Node000018" class="node">
<title>Node18</title>
<g id="a_Node000018"><a xlink:href="motor__test_8h.html" target="_top" xlink:title=" ">
<polygon fill="white" stroke="#666666" points="1181,-134.25 1102.75,-134.25 1102.75,-113.5 1181,-113.5 1181,-134.25"/>
<text xml:space="preserve" text-anchor="middle" x="1141.88" y="-120.75" font-family="Helvetica,sans-Serif" font-size="10.00">motor_test.h</text>
</a>
</g>
</g>
<!-- Node1&#45;&gt;Node18 -->
<g id="edge21_Node000001_Node000018" class="edge">
<title>Node1&#45;&gt;Node18</title>
<g id="a_edge21_Node000001_Node000018"><a xlink:title=" ">
<path fill="none" stroke="#63b8ff" d="M570.91,-177.34C673.16,-172.76 894.59,-160.71 1090.97,-134.5"/>
<polygon fill="#63b8ff" stroke="#63b8ff" points="1091.44,-137.97 1100.88,-133.16 1090.5,-131.04 1091.44,-137.97"/>
</a>
</g>
</g>
<!-- Node19 -->
<g id="Node000019" class="node">
<title>Node19</title>
<g id="a_Node000019"><a xlink:href="step_8h.html" target="_top" xlink:title=" ">
<polygon fill="white" stroke="#666666" points="371.88,-77.5 325.88,-77.5 325.88,-56.75 371.88,-56.75 371.88,-77.5"/>
<text xml:space="preserve" text-anchor="middle" x="348.88" y="-64" font-family="Helvetica,sans-Serif" font-size="10.00">step.h</text>
</a>
</g>
</g>
<!-- Node1&#45;&gt;Node19 -->
<g id="edge22_Node000001_Node000019" class="edge">
<title>Node1&#45;&gt;Node19</title>
<g id="a_edge22_Node000001_Node000019"><a xlink:title=" ">
<path fill="none" stroke="#63b8ff" d="M459.15,-169.77C434.3,-163.09 405.85,-152.1 384.88,-134.25 370.58,-122.08 361,-102.76 355.33,-88.13"/>
<polygon fill="#63b8ff" stroke="#63b8ff" points="358.76,-87.33 352.12,-79.07 352.16,-89.66 358.76,-87.33"/>
</a>
</g>
</g>
<!-- Node23 -->
<g id="Node000023" class="node">
<title>Node23</title>
<g id="a_Node000023"><a xlink:href="tmc2209_8h.html" target="_top" xlink:title=" ">
<polygon fill="white" stroke="#666666" points="457.75,-77.5 390,-77.5 390,-56.75 457.75,-56.75 457.75,-77.5"/>
<text xml:space="preserve" text-anchor="middle" x="423.88" y="-64" font-family="Helvetica,sans-Serif" font-size="10.00">tmc2209.h</text>
</a>
</g>
</g>
<!-- Node1&#45;&gt;Node23 -->
<g id="edge29_Node000001_Node000023" class="edge">
<title>Node1&#45;&gt;Node23</title>
<g id="a_edge29_Node000001_Node000023"><a xlink:title=" ">
<path fill="none" stroke="#63b8ff" d="M506.2,-170.12C491.33,-151.7 458.35,-110.84 438.95,-86.8"/>
<polygon fill="#63b8ff" stroke="#63b8ff" points="441.74,-84.69 432.74,-79.1 436.29,-89.08 441.74,-84.69"/>
</a>
</g>
</g>
<!-- Node25 -->
<g id="Node000025" class="node">
<title>Node25</title>
<g id="a_Node000025"><a xlink:href="motor_8h.html" target="_top" xlink:title=" ">
<polygon fill="white" stroke="#666666" points="447.62,-134.25 394.12,-134.25 394.12,-113.5 447.62,-113.5 447.62,-134.25"/>
<text xml:space="preserve" text-anchor="middle" x="420.88" y="-120.75" font-family="Helvetica,sans-Serif" font-size="10.00">motor.h</text>
</a>
</g>
</g>
<!-- Node1&#45;&gt;Node25 -->
<g id="edge33_Node000001_Node000025" class="edge">
<title>Node1&#45;&gt;Node25</title>
<g id="a_edge33_Node000001_Node000025"><a xlink:title=" ">
<path fill="none" stroke="#63b8ff" d="M497.25,-169.84C483.36,-161.66 463.31,-149.86 447.24,-140.4"/>
<polygon fill="#63b8ff" stroke="#63b8ff" points="449.06,-137.4 438.66,-135.35 445.5,-143.44 449.06,-137.4"/>
</a>
</g>
</g>
<!-- Node26 -->
<g id="Node000026" class="node">
<title>Node26</title>
<g id="a_Node000026"><a xlink:href="motorCmd_8h.html" target="_top" xlink:title=" ">
<polygon fill="white" stroke="#666666" points="552.25,-77.5 475.5,-77.5 475.5,-56.75 552.25,-56.75 552.25,-77.5"/>
<text xml:space="preserve" text-anchor="middle" x="513.88" y="-64" font-family="Helvetica,sans-Serif" font-size="10.00">motorCmd.h</text>
</a>
</g>
</g>
<!-- Node1&#45;&gt;Node26 -->
<g id="edge36_Node000001_Node000026" class="edge">
<title>Node1&#45;&gt;Node26</title>
<g id="a_edge36_Node000001_Node000026"><a xlink:title=" ">
<path fill="none" stroke="#63b8ff" d="M513.88,-170.12C513.88,-152.35 513.88,-113.72 513.88,-89.43"/>
<polygon fill="#63b8ff" stroke="#63b8ff" points="517.38,-89.44 513.88,-79.44 510.38,-89.44 517.38,-89.44"/>
</a>
</g>
</g>
<!-- Node3&#45;&gt;Node4 -->
<g id="edge3_Node000003_Node000004" class="edge">
<title>Node3&#45;&gt;Node4</title>
<g id="a_edge3_Node000003_Node000004"><a xlink:title=" ">
<path fill="none" stroke="#63b8ff" d="M267.53,-58.28C245.29,-49.7 209.21,-35.79 182.1,-25.34"/>
<polygon fill="#63b8ff" stroke="#63b8ff" points="183.47,-22.12 172.88,-21.79 180.95,-28.65 183.47,-22.12"/>
</a>
</g>
</g>
<!-- Node5 -->
<g id="Node000005" class="node">
<title>Node5</title>
<g id="a_Node000005"><a xlink:title=" ">
<polygon fill="#e0e0e0" stroke="#999999" points="620.38,-20.75 535.38,-20.75 535.38,0 620.38,0 620.38,-20.75"/>
<text xml:space="preserve" text-anchor="middle" x="577.88" y="-7.25" font-family="Helvetica,sans-Serif" font-size="10.00">fsl_common.h</text>
</a>
</g>
</g>
<!-- Node3&#45;&gt;Node5 -->
<g id="edge4_Node000003_Node000005" class="edge">
<title>Node3&#45;&gt;Node5</title>
<g id="a_edge4_Node000003_Node000005"><a xlink:title=" ">
<path fill="none" stroke="#63b8ff" d="M308.37,-59.1C311.21,-58.24 314.1,-57.43 316.88,-56.75 405.33,-34.99 431.65,-37.11 523.77,-21.26"/>
<polygon fill="#63b8ff" stroke="#63b8ff" points="524.29,-24.72 533.54,-19.55 523.08,-17.83 524.29,-24.72"/>
</a>
</g>
</g>
<!-- Node13&#45;&gt;Node4 -->
<g id="edge14_Node000013_Node000004" class="edge">
<title>Node13&#45;&gt;Node4</title>
<g id="a_edge14_Node000013_Node000004"><a xlink:title=" ">
<path fill="none" stroke="#63b8ff" d="M185.29,-56.34C178.81,-48.94 169.72,-38.57 161.9,-29.66"/>
<polygon fill="#63b8ff" stroke="#63b8ff" points="164.6,-27.43 155.38,-22.22 159.34,-32.04 164.6,-27.43"/>
</a>
</g>
</g>
<!-- Node13&#45;&gt;Node9 -->
<g id="edge16_Node000013_Node000009" class="edge">
<title>Node13&#45;&gt;Node9</title>
<g id="a_edge16_Node000013_Node000009"><a xlink:title=" ">
<path fill="none" stroke="#63b8ff" d="M202.1,-56.34C208.31,-48.94 217.02,-38.57 224.51,-29.66"/>
<polygon fill="#63b8ff" stroke="#63b8ff" points="227,-32.15 230.75,-22.24 221.64,-27.64 227,-32.15"/>
</a>
</g>
</g>
<!-- Node14 -->
<g id="Node000014" class="node">
<title>Node14</title>
<g id="a_Node000014"><a xlink:title=" ">
<polygon fill="#e0e0e0" stroke="#999999" points="91.75,-20.75 0,-20.75 0,0 91.75,0 91.75,-20.75"/>
<text xml:space="preserve" text-anchor="middle" x="45.88" y="-7.25" font-family="Helvetica,sans-Serif" font-size="10.00">FreeRTOS_CLI.h</text>
</a>
</g>
</g>
<!-- Node13&#45;&gt;Node14 -->
<g id="edge15_Node000013_Node000014" class="edge">
<title>Node13&#45;&gt;Node14</title>
<g id="a_edge15_Node000013_Node000014"><a xlink:title=" ">
<path fill="none" stroke="#63b8ff" d="M175.43,-59.3C152.41,-50.79 112.49,-36.02 83.03,-25.12"/>
<polygon fill="#63b8ff" stroke="#63b8ff" points="84.33,-21.87 73.73,-21.68 81.9,-28.43 84.33,-21.87"/>
</a>
</g>
</g>
<!-- Node15&#45;&gt;Node5 -->
<g id="edge19_Node000015_Node000005" class="edge">
<title>Node15&#45;&gt;Node5</title>
<g id="a_edge19_Node000015_Node000005"><a xlink:title=" ">
<path fill="none" stroke="#63b8ff" d="M565.98,-113.37C568.06,-95.52 572.6,-56.61 575.43,-32.34"/>
<polygon fill="#63b8ff" stroke="#63b8ff" points="578.88,-33.02 576.56,-22.68 571.92,-32.21 578.88,-33.02"/>
</a>
</g>
</g>
<!-- Node16 -->
<g id="Node000016" class="node">
<title>Node16</title>
<g id="a_Node000016"><a xlink:title=" ">
<polygon fill="#e0e0e0" stroke="#999999" points="639.75,-77.5 608,-77.5 608,-56.75 639.75,-56.75 639.75,-77.5"/>
<text xml:space="preserve" text-anchor="middle" x="623.88" y="-64" font-family="Helvetica,sans-Serif" font-size="10.00">ff.h</text>
</a>
</g>
</g>
<!-- Node15&#45;&gt;Node16 -->
<g id="edge18_Node000015_Node000016" class="edge">
<title>Node15&#45;&gt;Node16</title>
<g id="a_edge18_Node000015_Node000016"><a xlink:title=" ">
<path fill="none" stroke="#63b8ff" d="M575.42,-113.09C583.65,-105.46 595.27,-94.67 605.08,-85.57"/>
<polygon fill="#63b8ff" stroke="#63b8ff" points="607.36,-88.23 612.31,-78.86 602.6,-83.09 607.36,-88.23"/>
</a>
</g>
</g>
<!-- Node17 -->
<g id="Node000017" class="node">
<title>Node17</title>
<g id="a_Node000017"><a xlink:title=" ">
<polygon fill="#e0e0e0" stroke="#999999" points="712,-77.5 657.75,-77.5 657.75,-56.75 712,-56.75 712,-77.5"/>
<text xml:space="preserve" text-anchor="middle" x="684.88" y="-64" font-family="Helvetica,sans-Serif" font-size="10.00">diskio.h</text>
</a>
</g>
</g>
<!-- Node15&#45;&gt;Node17 -->
<g id="edge20_Node000015_Node000017" class="edge">
<title>Node15&#45;&gt;Node17</title>
<g id="a_edge20_Node000015_Node000017"><a xlink:title=" ">
<path fill="none" stroke="#63b8ff" d="M586.33,-113.09C604.93,-104.6 632.1,-92.2 653.2,-82.58"/>
<polygon fill="#63b8ff" stroke="#63b8ff" points="654.59,-85.79 662.23,-78.46 651.68,-79.42 654.59,-85.79"/>
</a>
</g>
</g>
<!-- Node19&#45;&gt;Node4 -->
<g id="edge23_Node000019_Node000004" class="edge">
<title>Node19&#45;&gt;Node4</title>
<g id="a_edge23_Node000019_Node000004"><a xlink:title=" ">
<path fill="none" stroke="#63b8ff" d="M325.48,-59.19C322.58,-58.36 319.66,-57.53 316.88,-56.75 275.15,-45.1 227.49,-32.52 193.1,-23.56"/>
<polygon fill="#63b8ff" stroke="#63b8ff" points="194,-20.18 183.44,-21.05 192.24,-26.95 194,-20.18"/>
</a>
</g>
</g>
<!-- Node19&#45;&gt;Node5 -->
<g id="edge25_Node000019_Node000005" class="edge">
<title>Node19&#45;&gt;Node5</title>
<g id="a_edge25_Node000019_Node000005"><a xlink:title=" ">
<path fill="none" stroke="#63b8ff" d="M372.25,-59.11C375.15,-58.29 378.07,-57.48 380.88,-56.75 429.04,-44.16 484.3,-31.59 524.02,-22.89"/>
<polygon fill="#63b8ff" stroke="#63b8ff" points="524.54,-26.36 533.56,-20.8 523.05,-19.52 524.54,-26.36"/>
</a>
</g>
</g>
<!-- Node19&#45;&gt;Node12 -->
<g id="edge24_Node000019_Node000012" class="edge">
<title>Node19&#45;&gt;Node12</title>
<g id="a_edge24_Node000019_Node000012"><a xlink:title=" ">
<path fill="none" stroke="#63b8ff" d="M372.2,-58.88C375.1,-58.1 378.05,-57.37 380.88,-56.75 486.61,-33.74 518.57,-43.82 627.42,-21.01"/>
<polygon fill="#63b8ff" stroke="#63b8ff" points="628.03,-24.46 637.07,-18.94 626.56,-17.62 628.03,-24.46"/>
</a>
</g>
</g>
<!-- Node20 -->
<g id="Node000020" class="node">
<title>Node20</title>
<g id="a_Node000020"><a xlink:title=" ">
<polygon fill="#e0e0e0" stroke="#999999" points="356.25,-20.75 297.5,-20.75 297.5,0 356.25,0 356.25,-20.75"/>
<text xml:space="preserve" text-anchor="middle" x="326.88" y="-7.25" font-family="Helvetica,sans-Serif" font-size="10.00">fsl_ftm.h</text>
</a>
</g>
</g>
<!-- Node19&#45;&gt;Node20 -->
<g id="edge26_Node000019_Node000020" class="edge">
<title>Node19&#45;&gt;Node20</title>
<g id="a_edge26_Node000019_Node000020"><a xlink:title=" ">
<path fill="none" stroke="#63b8ff" d="M344.94,-56.34C342.19,-49.49 338.41,-40.09 335.02,-31.65"/>
<polygon fill="#63b8ff" stroke="#63b8ff" points="338.31,-30.46 331.34,-22.48 331.82,-33.07 338.31,-30.46"/>
</a>
</g>
</g>
<!-- Node21 -->
<g id="Node000021" class="node">
<title>Node21</title>
<g id="a_Node000021"><a xlink:title=" ">
<polygon fill="#e0e0e0" stroke="#999999" points="437.5,-20.75 374.25,-20.75 374.25,0 437.5,0 437.5,-20.75"/>
<text xml:space="preserve" text-anchor="middle" x="405.88" y="-7.25" font-family="Helvetica,sans-Serif" font-size="10.00">fsl_gpio.h</text>
</a>
</g>
</g>
<!-- Node19&#45;&gt;Node21 -->
<g id="edge27_Node000019_Node000021" class="edge">
<title>Node19&#45;&gt;Node21</title>
<g id="a_edge27_Node000019_Node000021"><a xlink:title=" ">
<path fill="none" stroke="#63b8ff" d="M359.07,-56.34C367.01,-48.71 378.24,-37.92 387.71,-28.82"/>
<polygon fill="#63b8ff" stroke="#63b8ff" points="389.89,-31.58 394.68,-22.13 385.04,-26.53 389.89,-31.58"/>
</a>
</g>
</g>
<!-- Node22 -->
<g id="Node000022" class="node">
<title>Node22</title>
<g id="a_Node000022"><a xlink:title=" ">
<polygon fill="#e0e0e0" stroke="#999999" points="517.75,-20.75 456,-20.75 456,0 517.75,0 517.75,-20.75"/>
<text xml:space="preserve" text-anchor="middle" x="486.88" y="-7.25" font-family="Helvetica,sans-Serif" font-size="10.00">fsl_port.h</text>
</a>
</g>
</g>
<!-- Node19&#45;&gt;Node22 -->
<g id="edge28_Node000019_Node000022" class="edge">
<title>Node19&#45;&gt;Node22</title>
<g id="a_edge28_Node000019_Node000022"><a xlink:title=" ">
<path fill="none" stroke="#63b8ff" d="M372.28,-56.84C394.12,-48.17 426.99,-35.13 451.93,-25.24"/>
<polygon fill="#63b8ff" stroke="#63b8ff" points="453.01,-28.58 461.01,-21.64 450.43,-22.07 453.01,-28.58"/>
</a>
</g>
</g>
<!-- Node23&#45;&gt;Node5 -->
<g id="edge30_Node000023_Node000005" class="edge">
<title>Node23&#45;&gt;Node5</title>
<g id="a_edge30_Node000023_Node000005"><a xlink:title=" ">
<path fill="none" stroke="#63b8ff" d="M451.41,-56.34C475.97,-47.61 512.17,-34.73 539.56,-25"/>
<polygon fill="#63b8ff" stroke="#63b8ff" points="540.65,-28.33 548.9,-21.68 538.3,-21.73 540.65,-28.33"/>
</a>
</g>
</g>
<!-- Node23&#45;&gt;Node9 -->
<g id="edge31_Node000023_Node000009" class="edge">
<title>Node23&#45;&gt;Node9</title>
<g id="a_edge31_Node000023_Node000009"><a xlink:title=" ">
<path fill="none" stroke="#63b8ff" d="M390.98,-56.34C360.98,-47.41 316.45,-34.16 283.49,-24.35"/>
<polygon fill="#63b8ff" stroke="#63b8ff" points="284.83,-21.1 274.25,-21.6 282.83,-27.81 284.83,-21.1"/>
</a>
</g>
</g>
<!-- Node24 -->
<g id="Node000024" class="node">
<title>Node24</title>
<g id="a_Node000024"><a xlink:title=" ">
<polygon fill="#e0e0e0" stroke="#999999" points="755.25,-20.75 702.5,-20.75 702.5,0 755.25,0 755.25,-20.75"/>
<text xml:space="preserve" text-anchor="middle" x="728.88" y="-7.25" font-family="Helvetica,sans-Serif" font-size="10.00">stdint.h</text>
</a>
</g>
</g>
<!-- Node23&#45;&gt;Node24 -->
<g id="edge32_Node000023_Node000024" class="edge">
<title>Node23&#45;&gt;Node24</title>
<g id="a_edge32_Node000023_Node000024"><a xlink:title=" ">
<path fill="none" stroke="#63b8ff" d="M458.11,-58.48C461.07,-57.87 464.02,-57.29 466.88,-56.75 563.73,-38.53 591.99,-41.73 691.07,-21.17"/>
<polygon fill="#63b8ff" stroke="#63b8ff" points="691.65,-24.63 700.71,-19.14 690.2,-17.78 691.65,-24.63"/>
</a>
</g>
</g>
<!-- Node25&#45;&gt;Node19 -->
<g id="edge34_Node000025_Node000019" class="edge">
<title>Node25&#45;&gt;Node19</title>
<g id="a_edge34_Node000025_Node000019"><a xlink:title=" ">
<path fill="none" stroke="#63b8ff" d="M408,-113.09C397.66,-105.22 382.91,-94 370.72,-84.74"/>
<polygon fill="#63b8ff" stroke="#63b8ff" points="372.92,-82.01 362.84,-78.74 368.68,-87.58 372.92,-82.01"/>
</a>
</g>
</g>
<!-- Node25&#45;&gt;Node23 -->
<g id="edge35_Node000025_Node000023" class="edge">
<title>Node25&#45;&gt;Node23</title>
<g id="a_edge35_Node000025_Node000023"><a xlink:title=" ">
<path fill="none" stroke="#63b8ff" d="M421.41,-113.09C421.77,-106.47 422.27,-97.47 422.72,-89.27"/>
<polygon fill="#63b8ff" stroke="#63b8ff" points="426.21,-89.52 423.26,-79.34 419.22,-89.13 426.21,-89.52"/>
</a>
</g>
</g>
<!-- Node26&#45;&gt;Node5 -->
<g id="edge37_Node000026_Node000005" class="edge">
<title>Node26&#45;&gt;Node5</title>
<g id="a_edge37_Node000026_Node000005"><a xlink:title=" ">
<path fill="none" stroke="#63b8ff" d="M525.32,-56.34C534.33,-48.63 547.11,-37.7 557.81,-28.54"/>
<polygon fill="#63b8ff" stroke="#63b8ff" points="560.06,-31.22 565.38,-22.06 555.51,-25.9 560.06,-31.22"/>
</a>
</g>
</g>
</g>
</svg>
