<?xml version="1.0" encoding="UTF-8" standalone="no"?>
<!DOCTYPE svg PUBLIC "-//W3C//DTD SVG 1.1//EN"
 "http://www.w3.org/Graphics/SVG/1.1/DTD/svg11.dtd">
<!-- Generated by graphviz version 14.1.4 (0)
 -->
<!-- Title: source/application.c Pages: 1 -->
<svg width="1553pt" height="313pt"
 viewBox="0.00 0.00 1553.00 313.00" xmlns="http://www.w3.org/2000/svg" xmlns:xlink="http://www.w3.org/1999/xlink">
<g id="graph0" class="graph" transform="scale(1 1) rotate(0) translate(4 308.5)">
<title>source/application.c</title>
<!-- Node1 -->
<g id="Node000001" class="node">
<title>Node1</title>
<g id="a_Node000001"><a xlink:title=" ">
<polygon fill="#999999" stroke="#666666" points="906.25,-304.5 792.75,-304.5 792.75,-283.75 906.25,-283.75 906.25,-304.5"/>
<text xml:space="preserve" text-anchor="middle" x="849.5" y="-291" font-family="Helvetica,sans-Serif" font-size="10.00">source/application.c</text>
</a>
</g>
</g>
<!-- Node2 -->
<g id="Node000002" class="node">
<title>Node2</title>
<g id="a_Node000002"><a xlink:href="application_8h.html" target="_top" xlink:title=" ">
<polygon fill="white" stroke="#666666" points="79,-247.75 0,-247.75 0,-227 79,-227 79,-247.75"/>
<text xml:space="preserve" text-anchor="middle" x="39.5" y="-234.25" font-family="Helvetica,sans-Serif" font-size="10.00">application.h</text>
</a>
</g>
</g>
<!-- Node1&#45;&gt;Node2 -->
<g id="edge1_Node000001_Node000002" class="edge">
<title>Node1&#45;&gt;Node2</title>
<g id="a_edge1_Node000001_Node000002"><a xlink:title=" ">
<path fill="none" stroke="#63b8ff" d="M792.41,-291.88C666.06,-288.65 353.4,-278.01 93.5,-247.75 92.49,-247.63 91.46,-247.51 90.43,-247.38"/>
<polygon fill="#63b8ff" stroke="#63b8ff" points="91.13,-243.94 80.74,-246.01 90.15,-250.87 91.13,-243.94"/>
</a>
</g>
</g>
<!-- Node3 -->
<g id="Node000003" class="node">
<title>Node3</title>
<g id="a_Node000003"><a xlink:href="log_8h.html" target="_top" xlink:title=" ">
<polygon fill="white" stroke="#666666" points="459.5,-77.5 419.5,-77.5 419.5,-56.75 459.5,-56.75 459.5,-77.5"/>
<text xml:space="preserve" text-anchor="middle" x="439.5" y="-64" font-family="Helvetica,sans-Serif" font-size="10.00">log.h</text>
</a>
</g>
</g>
<!-- Node1&#45;&gt;Node3 -->
<g id="edge2_Node000001_Node000003" class="edge">
<title>Node1&#45;&gt;Node3</title>
<g id="a_edge2_Node000001_Node000003"><a xlink:title=" ">
<path fill="none" stroke="#63b8ff" d="M792.31,-293.13C727.65,-291.28 620.35,-282.56 535.5,-247.75 461.71,-217.48 428.64,-207.24 396.5,-134.25 388.64,-116.4 402.84,-97.94 416.98,-85.08"/>
<polygon fill="#63b8ff" stroke="#63b8ff" points="419.02,-87.94 424.42,-78.82 414.52,-82.58 419.02,-87.94"/>
</a>
</g>
</g>
<!-- Node4 -->
<g id="Node000004" class="node">
<title>Node4</title>
<g id="a_Node000004"><a xlink:title=" ">
<polygon fill="#e0e0e0" stroke="#999999" points="427.25,-20.75 355.75,-20.75 355.75,0 427.25,0 427.25,-20.75"/>
<text xml:space="preserve" text-anchor="middle" x="391.5" y="-7.25" font-family="Helvetica,sans-Serif" font-size="10.00">FreeRTOS.h</text>
</a>
</g>
</g>
<!-- Node1&#45;&gt;Node4 -->
<g id="edge11_Node000001_Node000004" class="edge">
<title>Node1&#45;&gt;Node4</title>
<g id="a_edge11_Node000001_Node000004"><a xlink:title=" ">
<path fill="none" stroke="#63b8ff" d="M792.66,-290.99C666.27,-285.86 365.33,-271.51 266.5,-247.75 192.09,-229.86 107.5,-258.16 107.5,-181.62 107.5,-181.62 107.5,-181.62 107.5,-122.88 107.5,-92.3 103.72,-77.15 126.5,-56.75 157.89,-28.64 276.82,-17.61 344.2,-13.55"/>
<polygon fill="#63b8ff" stroke="#63b8ff" points="344.05,-17.06 353.83,-13 343.65,-10.08 344.05,-17.06"/>
</a>
</g>
</g>
<!-- Node6 -->
<g id="Node000006" class="node">
<title>Node6</title>
<g id="a_Node000006"><a xlink:title=" ">
<polygon fill="#e0e0e0" stroke="#999999" points="1059.88,-247.75 1007.12,-247.75 1007.12,-227 1059.88,-227 1059.88,-247.75"/>
<text xml:space="preserve" text-anchor="middle" x="1033.5" y="-234.25" font-family="Helvetica,sans-Serif" font-size="10.00">board.h</text>
</a>
</g>
</g>
<!-- Node1&#45;&gt;Node6 -->
<g id="edge5_Node000001_Node000006" class="edge">
<title>Node1&#45;&gt;Node6</title>
<g id="a_edge5_Node000001_Node000006"><a xlink:title=" ">
<path fill="none" stroke="#63b8ff" d="M882.4,-283.34C914.34,-273.83 962.78,-259.42 996.16,-249.49"/>
<polygon fill="#63b8ff" stroke="#63b8ff" points="996.82,-252.94 1005.4,-246.73 994.82,-246.23 996.82,-252.94"/>
</a>
</g>
</g>
<!-- Node7 -->
<g id="Node000007" class="node">
<title>Node7</title>
<g id="a_Node000007"><a xlink:title=" ">
<polygon fill="#e0e0e0" stroke="#999999" points="1163,-247.75 1078,-247.75 1078,-227 1163,-227 1163,-247.75"/>
<text xml:space="preserve" text-anchor="middle" x="1120.5" y="-234.25" font-family="Helvetica,sans-Serif" font-size="10.00">clock_config.h</text>
</a>
</g>
</g>
<!-- Node1&#45;&gt;Node7 -->
<g id="edge6_Node000001_Node000007" class="edge">
<title>Node1&#45;&gt;Node7</title>
<g id="a_edge6_Node000001_Node000007"><a xlink:title=" ">
<path fill="none" stroke="#63b8ff" d="M898.26,-283.27C945.76,-273.68 1017.8,-259.12 1066.89,-249.21"/>
<polygon fill="#63b8ff" stroke="#63b8ff" points="1067.33,-252.69 1076.44,-247.28 1065.94,-245.83 1067.33,-252.69"/>
</a>
</g>
</g>
<!-- Node8 -->
<g id="Node000008" class="node">
<title>Node8</title>
<g id="a_Node000008"><a xlink:title=" ">
<polygon fill="#e0e0e0" stroke="#999999" points="1296,-247.75 1181,-247.75 1181,-227 1296,-227 1296,-247.75"/>
<text xml:space="preserve" text-anchor="middle" x="1238.5" y="-234.25" font-family="Helvetica,sans-Serif" font-size="10.00">fsl_debug_console.h</text>
</a>
</g>
</g>
<!-- Node1&#45;&gt;Node8 -->
<g id="edge7_Node000001_Node000008" class="edge">
<title>Node1&#45;&gt;Node8</title>
<g id="a_edge7_Node000001_Node000008"><a xlink:title=" ">
<path fill="none" stroke="#63b8ff" d="M906.68,-285.12C968.85,-276.41 1071.45,-262.02 1169.27,-248.21"/>
<polygon fill="#63b8ff" stroke="#63b8ff" points="1169.64,-251.69 1179.05,-246.82 1168.66,-244.76 1169.64,-251.69"/>
</a>
</g>
</g>
<!-- Node9 -->
<g id="Node000009" class="node">
<title>Node9</title>
<g id="a_Node000009"><a xlink:title=" ">
<polygon fill="#e0e0e0" stroke="#999999" points="363.38,-77.5 283.62,-77.5 283.62,-56.75 363.38,-56.75 363.38,-77.5"/>
<text xml:space="preserve" text-anchor="middle" x="323.5" y="-64" font-family="Helvetica,sans-Serif" font-size="10.00">peripherals.h</text>
</a>
</g>
</g>
<!-- Node1&#45;&gt;Node9 -->
<g id="edge8_Node000001_Node000009" class="edge">
<title>Node1&#45;&gt;Node9</title>
<g id="a_edge8_Node000001_Node000009"><a xlink:title=" ">
<path fill="none" stroke="#63b8ff" d="M792.36,-289.91C703.57,-284.27 537,-270.93 482.5,-247.75 407.34,-215.79 354.03,-127.39 333.2,-87.77"/>
<polygon fill="#63b8ff" stroke="#63b8ff" points="336.44,-86.44 328.78,-79.12 330.21,-89.62 336.44,-86.44"/>
</a>
</g>
</g>
<!-- Node10 -->
<g id="Node000010" class="node">
<title>Node10</title>
<g id="a_Node000010"><a xlink:title=" ">
<polygon fill="#e0e0e0" stroke="#999999" points="1381,-247.75 1314,-247.75 1314,-227 1381,-227 1381,-247.75"/>
<text xml:space="preserve" text-anchor="middle" x="1347.5" y="-234.25" font-family="Helvetica,sans-Serif" font-size="10.00">pin_mux.h</text>
</a>
</g>
</g>
<!-- Node1&#45;&gt;Node10 -->
<g id="edge9_Node000001_Node000010" class="edge">
<title>Node1&#45;&gt;Node10</title>
<g id="a_edge9_Node000001_Node000010"><a xlink:title=" ">
<path fill="none" stroke="#63b8ff" d="M906.66,-289.66C991.19,-284.04 1154.7,-271.31 1302.57,-248.07"/>
<polygon fill="#63b8ff" stroke="#63b8ff" points="1302.82,-251.57 1312.15,-246.54 1301.72,-244.66 1302.82,-251.57"/>
</a>
</g>
</g>
<!-- Node11 -->
<g id="Node000011" class="node">
<title>Node11</title>
<g id="a_Node000011"><a xlink:title=" ">
<polygon fill="#e0e0e0" stroke="#999999" points="1448,-247.75 1399,-247.75 1399,-227 1448,-227 1448,-247.75"/>
<text xml:space="preserve" text-anchor="middle" x="1423.5" y="-234.25" font-family="Helvetica,sans-Serif" font-size="10.00">stdio.h</text>
</a>
</g>
</g>
<!-- Node1&#45;&gt;Node11 -->
<g id="edge10_Node000001_Node000011" class="edge">
<title>Node1&#45;&gt;Node11</title>
<g id="a_edge10_Node000001_Node000011"><a xlink:title=" ">
<path fill="none" stroke="#63b8ff" d="M906.44,-291.96C1003.53,-289.18 1207.36,-279.95 1387.47,-248"/>
<polygon fill="#63b8ff" stroke="#63b8ff" points="1388.05,-251.45 1397.27,-246.23 1386.8,-244.56 1388.05,-251.45"/>
</a>
</g>
</g>
<!-- Node12 -->
<g id="Node000012" class="node">
<title>Node12</title>
<g id="a_Node000012"><a xlink:title=" ">
<polygon fill="#e0e0e0" stroke="#999999" points="966.5,-77.5 920.5,-77.5 920.5,-56.75 966.5,-56.75 966.5,-77.5"/>
<text xml:space="preserve" text-anchor="middle" x="943.5" y="-64" font-family="Helvetica,sans-Serif" font-size="10.00">task.h</text>
</a>
</g>
</g>
<!-- Node1&#45;&gt;Node12 -->
<g id="edge12_Node000001_Node000012" class="edge">
<title>Node1&#45;&gt;Node12</title>
<g id="a_edge12_Node000001_Node000012"><a xlink:title=" ">
<path fill="none" stroke="#63b8ff" d="M855.68,-283.31C864.22,-270.03 880.4,-245.85 896.5,-227 919.93,-199.58 924.01,-189.51 954.5,-170.25 993.73,-145.47 1025.94,-172.3 1052.5,-134.25 1074.29,-103.03 1017.58,-83.91 978.03,-74.72"/>
<polygon fill="#63b8ff" stroke="#63b8ff" points="978.91,-71.33 968.39,-72.62 977.41,-78.17 978.91,-71.33"/>
</a>
</g>
</g>
<!-- Node13 -->
<g id="Node000013" class="node">
<title>Node13</title>
<g id="a_Node000013"><a xlink:href="cli_8h.html" target="_top" xlink:title=" ">
<polygon fill="white" stroke="#666666" points="273.62,-134.25 237.38,-134.25 237.38,-113.5 273.62,-113.5 273.62,-134.25"/>
<text xml:space="preserve" text-anchor="middle" x="255.5" y="-120.75" font-family="Helvetica,sans-Serif" font-size="10.00">cli.h</text>
</a>
</g>
</g>
<!-- Node1&#45;&gt;Node13 -->
<g id="edge13_Node000001_Node000013" class="edge">
<title>Node1&#45;&gt;Node13</title>
<g id="a_edge13_Node000001_Node000013"><a xlink:title=" ">
<path fill="none" stroke="#63b8ff" d="M792.6,-292.21C657.46,-289.53 325.6,-279.73 287.5,-247.75 257.63,-222.68 253.76,-173.58 254.22,-145.64"/>
<polygon fill="#63b8ff" stroke="#63b8ff" points="257.71,-146.09 254.6,-135.96 250.71,-145.81 257.71,-146.09"/>
</a>
</g>
</g>
<!-- Node15 -->
<g id="Node000015" class="node">
<title>Node15</title>
<g id="a_Node000015"><a xlink:href="disk_8h.html" target="_top" xlink:title=" ">
<polygon fill="white" stroke="#666666" points="951.12,-247.75 905.88,-247.75 905.88,-227 951.12,-227 951.12,-247.75"/>
<text xml:space="preserve" text-anchor="middle" x="928.5" y="-234.25" font-family="Helvetica,sans-Serif" font-size="10.00">disk.h</text>
</a>
</g>
</g>
<!-- Node1&#45;&gt;Node15 -->
<g id="edge17_Node000001_Node000015" class="edge">
<title>Node1&#45;&gt;Node15</title>
<g id="a_edge17_Node000001_Node000015"><a xlink:title=" ">
<path fill="none" stroke="#63b8ff" d="M863.62,-283.34C875.19,-275.32 891.8,-263.81 905.32,-254.44"/>
<polygon fill="#63b8ff" stroke="#63b8ff" points="907.03,-257.51 913.25,-248.94 903.04,-251.76 907.03,-257.51"/>
</a>
</g>
</g>
<!-- Node18 -->
<g id="Node000018" class="node">
<title>Node18</title>
<g id="a_Node000018"><a xlink:href="motor__test_8h.html" target="_top" xlink:title=" ">
<polygon fill="white" stroke="#666666" points="1544.62,-247.75 1466.38,-247.75 1466.38,-227 1544.62,-227 1544.62,-247.75"/>
<text xml:space="preserve" text-anchor="middle" x="1505.5" y="-234.25" font-family="Helvetica,sans-Serif" font-size="10.00">motor_test.h</text>
</a>
</g>
</g>
<!-- Node1&#45;&gt;Node18 -->
<g id="edge21_Node000001_Node000018" class="edge">
<title>Node1&#45;&gt;Node18</title>
<g id="a_edge21_Node000001_Node000018"><a xlink:title=" ">
<path fill="none" stroke="#63b8ff" d="M906.73,-291.11C1012.84,-286.9 1247.41,-275.27 1454.6,-247.99"/>
<polygon fill="#63b8ff" stroke="#63b8ff" points="1455.06,-251.46 1464.51,-246.67 1454.13,-244.53 1455.06,-251.46"/>
</a>
</g>
</g>
<!-- Node19 -->
<g id="Node000019" class="node">
<title>Node19</title>
<g id="a_Node000019"><a xlink:href="step_8h.html" target="_top" xlink:title=" ">
<polygon fill="white" stroke="#666666" points="792.5,-191 746.5,-191 746.5,-170.25 792.5,-170.25 792.5,-191"/>
<text xml:space="preserve" text-anchor="middle" x="769.5" y="-177.5" font-family="Helvetica,sans-Serif" font-size="10.00">step.h</text>
</a>
</g>
</g>
<!-- Node1&#45;&gt;Node19 -->
<g id="edge22_Node000001_Node000019" class="edge">
<title>Node1&#45;&gt;Node19</title>
<g id="a_edge22_Node000001_Node000019"><a xlink:title=" ">
<path fill="none" stroke="#63b8ff" d="M829.27,-283.38C815.24,-275.62 797.22,-263.45 786.5,-247.75 777.39,-234.41 773.16,-216.53 771.2,-202.73"/>
<polygon fill="#63b8ff" stroke="#63b8ff" points="774.7,-202.51 770.12,-192.95 767.74,-203.27 774.7,-202.51"/>
</a>
</g>
</g>
<!-- Node27 -->
<g id="Node000027" class="node">
<title>Node27</title>
<g id="a_Node000027"><a xlink:href="pca9555a_8h.html" target="_top" xlink:title=" ">
<polygon fill="white" stroke="#666666" points="585.62,-134.25 513.38,-134.25 513.38,-113.5 585.62,-113.5 585.62,-134.25"/>
<text xml:space="preserve" text-anchor="middle" x="549.5" y="-120.75" font-family="Helvetica,sans-Serif" font-size="10.00">pca9555a.h</text>
</a>
</g>
</g>
<!-- Node1&#45;&gt;Node27 -->
<g id="edge54_Node000001_Node000027" class="edge">
<title>Node1&#45;&gt;Node27</title>
<g id="a_edge54_Node000001_Node000027"><a xlink:title=" ">
<path fill="none" stroke="#63b8ff" d="M830.21,-283.36C795.38,-265.61 719.78,-226.59 657.5,-191 628.5,-174.43 595.88,-154.23 574.15,-140.56"/>
<polygon fill="#63b8ff" stroke="#63b8ff" points="576.31,-137.78 565.99,-135.4 572.57,-143.7 576.31,-137.78"/>
</a>
</g>
</g>
<!-- Node28 -->
<g id="Node000028" class="node">
<title>Node28</title>
<g id="a_Node000028"><a xlink:href="tmc2209_8h.html" target="_top" xlink:title=" ">
<polygon fill="white" stroke="#666666" points="535.38,-191 467.62,-191 467.62,-170.25 535.38,-170.25 535.38,-191"/>
<text xml:space="preserve" text-anchor="middle" x="501.5" y="-177.5" font-family="Helvetica,sans-Serif" font-size="10.00">tmc2209.h</text>
</a>
</g>
</g>
<!-- Node1&#45;&gt;Node28 -->
<g id="edge40_Node000001_Node000028" class="edge">
<title>Node1&#45;&gt;Node28</title>
<g id="a_edge40_Node000001_Node000028"><a xlink:title=" ">
<path fill="none" stroke="#63b8ff" d="M792.3,-288.29C721.05,-281.53 603.97,-267.78 565.5,-247.75 544.11,-236.61 525.7,-215.62 514.18,-200.27"/>
<polygon fill="#63b8ff" stroke="#63b8ff" points="517.2,-198.47 508.53,-192.38 511.51,-202.55 517.2,-198.47"/>
</a>
</g>
</g>
<!-- Node30 -->
<g id="Node000030" class="node">
<title>Node30</title>
<g id="a_Node000030"><a xlink:href="motor_8h.html" target="_top" xlink:title=" ">
<polygon fill="white" stroke="#666666" points="849.25,-247.75 795.75,-247.75 795.75,-227 849.25,-227 849.25,-247.75"/>
<text xml:space="preserve" text-anchor="middle" x="822.5" y="-234.25" font-family="Helvetica,sans-Serif" font-size="10.00">motor.h</text>
</a>
</g>
</g>
<!-- Node1&#45;&gt;Node30 -->
<g id="edge45_Node000001_Node000030" class="edge">
<title>Node1&#45;&gt;Node30</title>
<g id="a_edge45_Node000001_Node000030"><a xlink:title=" ">
<path fill="none" stroke="#63b8ff" d="M844.67,-283.34C841.26,-276.41 836.55,-266.87 832.36,-258.36"/>
<polygon fill="#63b8ff" stroke="#63b8ff" points="835.52,-256.86 827.95,-249.44 829.24,-259.95 835.52,-256.86"/>
</a>
</g>
</g>
<!-- Node31 -->
<g id="Node000031" class="node">
<title>Node31</title>
<g id="a_Node000031"><a xlink:href="motorCmd_8h.html" target="_top" xlink:title=" ">
<polygon fill="white" stroke="#666666" points="1213.88,-191 1137.12,-191 1137.12,-170.25 1213.88,-170.25 1213.88,-191"/>
<text xml:space="preserve" text-anchor="middle" x="1175.5" y="-177.5" font-family="Helvetica,sans-Serif" font-size="10.00">motorCmd.h</text>
</a>
</g>
</g>
<!-- Node1&#45;&gt;Node31 -->
<g id="edge52_Node000001_Node000031" class="edge">
<title>Node1&#45;&gt;Node31</title>
<g id="a_edge52_Node000001_Node000031"><a xlink:title=" ">
<path fill="none" stroke="#63b8ff" d="M875.87,-283.3C898.59,-274.61 932.11,-261.25 960.5,-247.75 977.88,-239.49 980.6,-234.05 998.5,-227 1040.05,-210.63 1089.42,-198.54 1125.45,-190.98"/>
<polygon fill="#63b8ff" stroke="#63b8ff" points="1126.08,-194.42 1135.17,-188.99 1124.67,-187.57 1126.08,-194.42"/>
</a>
</g>
</g>
<!-- Node3&#45;&gt;Node4 -->
<g id="edge3_Node000003_Node000004" class="edge">
<title>Node3&#45;&gt;Node4</title>
<g id="a_edge3_Node000003_Node000004"><a xlink:title=" ">
<path fill="none" stroke="#63b8ff" d="M430.92,-56.34C424.43,-48.94 415.35,-38.57 407.53,-29.66"/>
<polygon fill="#63b8ff" stroke="#63b8ff" points="410.23,-27.43 401,-22.22 404.97,-32.04 410.23,-27.43"/>
</a>
</g>
</g>
<!-- Node5 -->
<g id="Node000005" class="node">
<title>Node5</title>
<g id="a_Node000005"><a xlink:title=" ">
<polygon fill="#e0e0e0" stroke="#999999" points="897,-20.75 812,-20.75 812,0 897,0 897,-20.75"/>
<text xml:space="preserve" text-anchor="middle" x="854.5" y="-7.25" font-family="Helvetica,sans-Serif" font-size="10.00">fsl_common.h</text>
</a>
</g>
</g>
<!-- Node3&#45;&gt;Node5 -->
<g id="edge4_Node000003_Node000005" class="edge">
<title>Node3&#45;&gt;Node5</title>
<g id="a_edge4_Node000003_Node000005"><a xlink:title=" ">
<path fill="none" stroke="#63b8ff" d="M459.88,-59.97C464.34,-58.77 469.05,-57.62 473.5,-56.75 588.75,-34.13 725.98,-21.15 800.24,-15.25"/>
<polygon fill="#63b8ff" stroke="#63b8ff" points="800.4,-18.75 810.1,-14.48 799.85,-11.77 800.4,-18.75"/>
</a>
</g>
</g>
<!-- Node13&#45;&gt;Node4 -->
<g id="edge14_Node000013_Node000004" class="edge">
<title>Node13&#45;&gt;Node4</title>
<g id="a_edge14_Node000013_Node000004"><a xlink:title=" ">
<path fill="none" stroke="#63b8ff" d="M255.69,-113.05C256.5,-98.87 260,-72.62 274.5,-56.75 292.64,-36.89 320.49,-25.64 344.47,-19.3"/>
<polygon fill="#63b8ff" stroke="#63b8ff" points="345.14,-22.74 354.05,-17 343.51,-15.93 345.14,-22.74"/>
</a>
</g>
</g>
<!-- Node13&#45;&gt;Node9 -->
<g id="edge16_Node000013_Node000009" class="edge">
<title>Node13&#45;&gt;Node9</title>
<g id="a_edge16_Node000013_Node000009"><a xlink:title=" ">
<path fill="none" stroke="#63b8ff" d="M267.66,-113.09C277.33,-105.3 291.08,-94.22 302.52,-85.01"/>
<polygon fill="#63b8ff" stroke="#63b8ff" points="304.68,-87.78 310.27,-78.78 300.29,-82.32 304.68,-87.78"/>
</a>
</g>
</g>
<!-- Node14 -->
<g id="Node000014" class="node">
<title>Node14</title>
<g id="a_Node000014"><a xlink:title=" ">
<polygon fill="#e0e0e0" stroke="#999999" points="227.38,-77.5 135.62,-77.5 135.62,-56.75 227.38,-56.75 227.38,-77.5"/>
<text xml:space="preserve" text-anchor="middle" x="181.5" y="-64" font-family="Helvetica,sans-Serif" font-size="10.00">FreeRTOS_CLI.h</text>
</a>
</g>
</g>
<!-- Node13&#45;&gt;Node14 -->
<g id="edge15_Node000013_Node000014" class="edge">
<title>Node13&#45;&gt;Node14</title>
<g id="a_edge15_Node000013_Node000014"><a xlink:title=" ">
<path fill="none" stroke="#63b8ff" d="M242.27,-113.09C231.54,-105.15 216.18,-93.78 203.58,-84.46"/>
<polygon fill="#63b8ff" stroke="#63b8ff" points="205.95,-81.86 195.83,-78.73 201.79,-87.49 205.95,-81.86"/>
</a>
</g>
</g>
<!-- Node15&#45;&gt;Node5 -->
<g id="edge19_Node000015_Node000005" class="edge">
<title>Node15&#45;&gt;Node5</title>
<g id="a_edge19_Node000015_Node000005"><a xlink:title=" ">
<path fill="none" stroke="#63b8ff" d="M951.4,-228.64C953.12,-228.08 954.84,-227.53 956.5,-227 1009.57,-210.16 1039.86,-232.92 1076.5,-191 1099.32,-164.89 1103.54,-143.11 1085.5,-113.5 1048.15,-52.2 964.09,-27.53 908.35,-17.72"/>
<polygon fill="#63b8ff" stroke="#63b8ff" points="909.18,-14.31 898.75,-16.14 908.04,-21.22 909.18,-14.31"/>
</a>
</g>
</g>
<!-- Node16 -->
<g id="Node000016" class="node">
<title>Node16</title>
<g id="a_Node000016"><a xlink:title=" ">
<polygon fill="#e0e0e0" stroke="#999999" points="995.38,-191 963.62,-191 963.62,-170.25 995.38,-170.25 995.38,-191"/>
<text xml:space="preserve" text-anchor="middle" x="979.5" y="-177.5" font-family="Helvetica,sans-Serif" font-size="10.00">ff.h</text>
</a>
</g>
</g>
<!-- Node15&#45;&gt;Node16 -->
<g id="edge18_Node000015_Node000016" class="edge">
<title>Node15&#45;&gt;Node16</title>
<g id="a_edge18_Node000015_Node000016"><a xlink:title=" ">
<path fill="none" stroke="#63b8ff" d="M937.62,-226.59C944.58,-219.11 954.37,-208.61 962.73,-199.63"/>
<polygon fill="#63b8ff" stroke="#63b8ff" points="965.17,-202.14 969.43,-192.44 960.05,-197.37 965.17,-202.14"/>
</a>
</g>
</g>
<!-- Node17 -->
<g id="Node000017" class="node">
<title>Node17</title>
<g id="a_Node000017"><a xlink:title=" ">
<polygon fill="#e0e0e0" stroke="#999999" points="1067.62,-191 1013.38,-191 1013.38,-170.25 1067.62,-170.25 1067.62,-191"/>
<text xml:space="preserve" text-anchor="middle" x="1040.5" y="-177.5" font-family="Helvetica,sans-Serif" font-size="10.00">diskio.h</text>
</a>
</g>
</g>
<!-- Node15&#45;&gt;Node17 -->
<g id="edge20_Node000015_Node000017" class="edge">
<title>Node15&#45;&gt;Node17</title>
<g id="a_edge20_Node000015_Node000017"><a xlink:title=" ">
<path fill="none" stroke="#63b8ff" d="M948.52,-226.59C965.72,-218.18 990.78,-205.93 1010.4,-196.34"/>
<polygon fill="#63b8ff" stroke="#63b8ff" points="1011.84,-199.53 1019.29,-191.99 1008.77,-193.24 1011.84,-199.53"/>
</a>
</g>
</g>
<!-- Node19&#45;&gt;Node4 -->
<g id="edge23_Node000019_Node000004" class="edge">
<title>Node19&#45;&gt;Node4</title>
<g id="a_edge23_Node000019_Node000004"><a xlink:title=" ">
<path fill="none" stroke="#63b8ff" d="M746.24,-173.31C718.6,-165.49 671.34,-151.12 632.5,-134.25 614.85,-126.58 612.6,-120.04 594.5,-113.5 516.12,-85.2 471.92,-133.82 410.5,-77.5 397.98,-66.02 393.51,-46.9 392,-32.16"/>
<polygon fill="#63b8ff" stroke="#63b8ff" points="395.52,-32.35 391.42,-22.58 388.54,-32.78 395.52,-32.35"/>
</a>
</g>
</g>
<!-- Node19&#45;&gt;Node5 -->
<g id="edge25_Node000019_Node000005" class="edge">
<title>Node19&#45;&gt;Node5</title>
<g id="a_edge25_Node000019_Node000005"><a xlink:title=" ">
<path fill="none" stroke="#63b8ff" d="M770.32,-170.04C771.96,-156.15 776.76,-130.27 790.5,-113.5 811.43,-87.95 838.73,-105.95 855.5,-77.5 863.52,-63.88 862.63,-45.79 860.09,-31.97"/>
<polygon fill="#63b8ff" stroke="#63b8ff" points="863.59,-31.59 857.95,-22.62 856.77,-33.15 863.59,-31.59"/>
</a>
</g>
</g>
<!-- Node19&#45;&gt;Node12 -->
<g id="edge24_Node000019_Node000012" class="edge">
<title>Node19&#45;&gt;Node12</title>
<g id="a_edge24_Node000019_Node000012"><a xlink:title=" ">
<path fill="none" stroke="#63b8ff" d="M773.59,-170.11C780.18,-155.83 794.47,-128.91 814.5,-113.5 829.56,-101.91 876.25,-87.07 909.11,-77.57"/>
<polygon fill="#63b8ff" stroke="#63b8ff" points="909.96,-80.97 918.62,-74.87 908.05,-74.24 909.96,-80.97"/>
</a>
</g>
</g>
<!-- Node20 -->
<g id="Node000020" class="node">
<title>Node20</title>
<g id="a_Node000020"><a xlink:title=" ">
<polygon fill="#e0e0e0" stroke="#999999" points="961.88,-134.25 903.12,-134.25 903.12,-113.5 961.88,-113.5 961.88,-134.25"/>
<text xml:space="preserve" text-anchor="middle" x="932.5" y="-120.75" font-family="Helvetica,sans-Serif" font-size="10.00">fsl_ftm.h</text>
</a>
</g>
</g>
<!-- Node19&#45;&gt;Node20 -->
<g id="edge26_Node000019_Node000020" class="edge">
<title>Node19&#45;&gt;Node20</title>
<g id="a_edge26_Node000019_Node000020"><a xlink:title=" ">
<path fill="none" stroke="#63b8ff" d="M792.85,-171.78C818.84,-163.05 861.28,-148.8 892.57,-138.29"/>
<polygon fill="#63b8ff" stroke="#63b8ff" points="893.32,-141.73 901.69,-135.23 891.09,-135.09 893.32,-141.73"/>
</a>
</g>
</g>
<!-- Node21 -->
<g id="Node000021" class="node">
<title>Node21</title>
<g id="a_Node000021"><a xlink:title=" ">
<polygon fill="#e0e0e0" stroke="#999999" points="1043.12,-134.25 979.88,-134.25 979.88,-113.5 1043.12,-113.5 1043.12,-134.25"/>
<text xml:space="preserve" text-anchor="middle" x="1011.5" y="-120.75" font-family="Helvetica,sans-Serif" font-size="10.00">fsl_gpio.h</text>
</a>
</g>
</g>
<!-- Node19&#45;&gt;Node21 -->
<g id="edge27_Node000019_Node000021" class="edge">
<title>Node19&#45;&gt;Node21</title>
<g id="a_edge27_Node000019_Node000021"><a xlink:title=" ">
<path fill="none" stroke="#63b8ff" d="M792.72,-174.41C828.24,-166.41 898.52,-150.59 968.5,-134.7"/>
<polygon fill="#63b8ff" stroke="#63b8ff" points="969.27,-138.11 978.24,-132.49 967.72,-131.29 969.27,-138.11"/>
</a>
</g>
</g>
<!-- Node22 -->
<g id="Node000022" class="node">
<title>Node22</title>
<g id="a_Node000022"><a xlink:title=" ">
<polygon fill="#e0e0e0" stroke="#999999" points="885.38,-134.25 823.62,-134.25 823.62,-113.5 885.38,-113.5 885.38,-134.25"/>
<text xml:space="preserve" text-anchor="middle" x="854.5" y="-120.75" font-family="Helvetica,sans-Serif" font-size="10.00">fsl_port.h</text>
</a>
</g>
</g>
<!-- Node19&#45;&gt;Node22 -->
<g id="edge28_Node000019_Node000022" class="edge">
<title>Node19&#45;&gt;Node22</title>
<g id="a_edge28_Node000019_Node000022"><a xlink:title=" ">
<path fill="none" stroke="#63b8ff" d="M784.7,-169.84C797.27,-161.74 815.36,-150.08 829.98,-140.67"/>
<polygon fill="#63b8ff" stroke="#63b8ff" points="831.65,-143.76 838.16,-135.4 827.86,-137.87 831.65,-143.76"/>
</a>
</g>
</g>
<!-- Node23 -->
<g id="Node000023" class="node">
<title>Node23</title>
<g id="a_Node000023"><a xlink:href="task__helpers_8h.html" target="_top" xlink:title=" ">
<polygon fill="white" stroke="#666666" points="729.12,-134.25 641.88,-134.25 641.88,-113.5 729.12,-113.5 729.12,-134.25"/>
<text xml:space="preserve" text-anchor="middle" x="685.5" y="-120.75" font-family="Helvetica,sans-Serif" font-size="10.00">task_helpers.h</text>
</a>
</g>
</g>
<!-- Node19&#45;&gt;Node23 -->
<g id="edge29_Node000019_Node000023" class="edge">
<title>Node19&#45;&gt;Node23</title>
<g id="a_edge29_Node000019_Node000023"><a xlink:title=" ">
<path fill="none" stroke="#63b8ff" d="M754.48,-169.84C742.06,-161.74 724.18,-150.08 709.73,-140.67"/>
<polygon fill="#63b8ff" stroke="#63b8ff" points="711.94,-137.93 701.66,-135.4 708.12,-143.8 711.94,-137.93"/>
</a>
</g>
</g>
<!-- Node19&#45;&gt;Node27 -->
<g id="edge37_Node000019_Node000027" class="edge">
<title>Node19&#45;&gt;Node27</title>
<g id="a_edge37_Node000019_Node000027"><a xlink:title=" ">
<path fill="none" stroke="#63b8ff" d="M746.37,-173.87C711.01,-165.07 642.75,-148.08 596.65,-136.61"/>
<polygon fill="#63b8ff" stroke="#63b8ff" points="597.75,-133.28 587.2,-134.26 596.06,-140.07 597.75,-133.28"/>
</a>
</g>
</g>
<!-- Node23&#45;&gt;Node3 -->
<g id="edge33_Node000023_Node000003" class="edge">
<title>Node23&#45;&gt;Node3</title>
<g id="a_edge33_Node000023_Node000003"><a xlink:title=" ">
<path fill="none" stroke="#63b8ff" d="M641.52,-113.09C592.4,-102.16 514.13,-84.73 470.85,-75.1"/>
<polygon fill="#63b8ff" stroke="#63b8ff" points="471.87,-71.74 461.35,-72.99 470.35,-78.58 471.87,-71.74"/>
</a>
</g>
</g>
<!-- Node23&#45;&gt;Node4 -->
<g id="edge30_Node000023_Node000004" class="edge">
<title>Node23&#45;&gt;Node4</title>
<g id="a_edge30_Node000023_Node000004"><a xlink:title=" ">
<path fill="none" stroke="#63b8ff" d="M659.67,-113.08C607.17,-93.17 487.9,-47.93 427.69,-25.1"/>
<polygon fill="#63b8ff" stroke="#63b8ff" points="429.18,-21.92 418.58,-21.65 426.69,-28.47 429.18,-21.92"/>
</a>
</g>
</g>
<!-- Node23&#45;&gt;Node5 -->
<g id="edge32_Node000023_Node000005" class="edge">
<title>Node23&#45;&gt;Node5</title>
<g id="a_edge32_Node000023_Node000005"><a xlink:title=" ">
<path fill="none" stroke="#63b8ff" d="M729.46,-114.43C768.16,-106.15 820.6,-92.61 835.5,-77.5 847.31,-65.53 851.87,-46.73 853.59,-32.23"/>
<polygon fill="#63b8ff" stroke="#63b8ff" points="857.07,-32.63 854.36,-22.39 850.09,-32.08 857.07,-32.63"/>
</a>
</g>
</g>
<!-- Node23&#45;&gt;Node12 -->
<g id="edge31_Node000023_Node000012" class="edge">
<title>Node23&#45;&gt;Node12</title>
<g id="a_edge31_Node000023_Node000012"><a xlink:title=" ">
<path fill="none" stroke="#63b8ff" d="M729.56,-113.53C780.27,-102.76 862.5,-85.31 908.85,-75.48"/>
<polygon fill="#63b8ff" stroke="#63b8ff" points="909.56,-78.91 918.62,-73.41 908.11,-72.06 909.56,-78.91"/>
</a>
</g>
</g>
<!-- Node24 -->
<g id="Node000024" class="node">
<title>Node24</title>
<g id="a_Node000024"><a xlink:title=" ">
<polygon fill="#e0e0e0" stroke="#999999" points="826.88,-77.5 774.12,-77.5 774.12,-56.75 826.88,-56.75 826.88,-77.5"/>
<text xml:space="preserve" text-anchor="middle" x="800.5" y="-64" font-family="Helvetica,sans-Serif" font-size="10.00">string.h</text>
</a>
</g>
</g>
<!-- Node23&#45;&gt;Node24 -->
<g id="edge34_Node000023_Node000024" class="edge">
<title>Node23&#45;&gt;Node24</title>
<g id="a_edge34_Node000023_Node000024"><a xlink:title=" ">
<path fill="none" stroke="#63b8ff" d="M706.06,-113.09C723.8,-104.64 749.68,-92.32 769.87,-82.71"/>
<polygon fill="#63b8ff" stroke="#63b8ff" points="771.23,-85.94 778.75,-78.48 768.22,-79.62 771.23,-85.94"/>
</a>
</g>
</g>
<!-- Node25 -->
<g id="Node000025" class="node">
<title>Node25</title>
<g id="a_Node000025"><a xlink:title=" ">
<polygon fill="#e0e0e0" stroke="#999999" points="683,-77.5 592,-77.5 592,-56.75 683,-56.75 683,-77.5"/>
<text xml:space="preserve" text-anchor="middle" x="637.5" y="-64" font-family="Helvetica,sans-Serif" font-size="10.00">event_groups.h</text>
</a>
</g>
</g>
<!-- Node23&#45;&gt;Node25 -->
<g id="edge35_Node000023_Node000025" class="edge">
<title>Node23&#45;&gt;Node25</title>
<g id="a_edge35_Node000023_Node000025"><a xlink:title=" ">
<path fill="none" stroke="#63b8ff" d="M676.92,-113.09C670.43,-105.69 661.35,-95.32 653.53,-86.41"/>
<polygon fill="#63b8ff" stroke="#63b8ff" points="656.23,-84.18 647,-78.97 650.97,-88.79 656.23,-84.18"/>
</a>
</g>
</g>
<!-- Node26 -->
<g id="Node000026" class="node">
<title>Node26</title>
<g id="a_Node000026"><a xlink:title=" ">
<polygon fill="#e0e0e0" stroke="#999999" points="756,-77.5 701,-77.5 701,-56.75 756,-56.75 756,-77.5"/>
<text xml:space="preserve" text-anchor="middle" x="728.5" y="-64" font-family="Helvetica,sans-Serif" font-size="10.00">queue.h</text>
</a>
</g>
</g>
<!-- Node23&#45;&gt;Node26 -->
<g id="edge36_Node000023_Node000026" class="edge">
<title>Node23&#45;&gt;Node26</title>
<g id="a_edge36_Node000023_Node000026"><a xlink:title=" ">
<path fill="none" stroke="#63b8ff" d="M693.19,-113.09C698.94,-105.77 706.97,-95.54 713.92,-86.69"/>
<polygon fill="#63b8ff" stroke="#63b8ff" points="716.52,-89.05 719.94,-79.02 711.01,-84.72 716.52,-89.05"/>
</a>
</g>
</g>
<!-- Node27&#45;&gt;Node5 -->
<g id="edge38_Node000027_Node000005" class="edge">
<title>Node27&#45;&gt;Node5</title>
<g id="a_edge38_Node000027_Node000005"><a xlink:title=" ">
<path fill="none" stroke="#63b8ff" d="M551.5,-113.45C555.15,-98.79 564.32,-70.76 583.5,-56.75 617.25,-32.09 731.79,-19.93 800.69,-14.71"/>
<polygon fill="#63b8ff" stroke="#63b8ff" points="800.52,-18.23 810.24,-14.01 800.01,-11.25 800.52,-18.23"/>
</a>
</g>
</g>
<!-- Node27&#45;&gt;Node9 -->
<g id="edge39_Node000027_Node000009" class="edge">
<title>Node27&#45;&gt;Node9</title>
<g id="a_edge39_Node000027_Node000009"><a xlink:title=" ">
<path fill="none" stroke="#63b8ff" d="M512.94,-114.02C475.52,-104.95 417.04,-90.79 374.96,-80.59"/>
<polygon fill="#63b8ff" stroke="#63b8ff" points="375.84,-77.2 365.3,-78.25 374.19,-84.01 375.84,-77.2"/>
</a>
</g>
</g>
<!-- Node28&#45;&gt;Node5 -->
<g id="edge41_Node000028_Node000005" class="edge">
<title>Node28&#45;&gt;Node5</title>
<g id="a_edge41_Node000028_Node000005"><a xlink:title=" ">
<path fill="none" stroke="#63b8ff" d="M499.84,-170.15C497.96,-156.85 496.14,-132.17 504.5,-113.5 519.23,-80.58 530.25,-72.9 562.5,-56.75 603.21,-36.36 727.85,-22.43 800.46,-15.81"/>
<polygon fill="#63b8ff" stroke="#63b8ff" points="800.49,-19.32 810.14,-14.94 799.86,-12.35 800.49,-19.32"/>
</a>
</g>
</g>
<!-- Node28&#45;&gt;Node9 -->
<g id="edge42_Node000028_Node000009" class="edge">
<title>Node28&#45;&gt;Node9</title>
<g id="a_edge42_Node000028_Node000009"><a xlink:title=" ">
<path fill="none" stroke="#63b8ff" d="M472.14,-169.89C450.34,-161.98 420.38,-149.62 396.5,-134.25 375.07,-120.45 353.84,-100.3 339.85,-85.88"/>
<polygon fill="#63b8ff" stroke="#63b8ff" points="342.6,-83.69 333.18,-78.84 337.52,-88.51 342.6,-83.69"/>
</a>
</g>
</g>
<!-- Node28&#45;&gt;Node23 -->
<g id="edge44_Node000028_Node000023" class="edge">
<title>Node28&#45;&gt;Node23</title>
<g id="a_edge44_Node000028_Node000023"><a xlink:title=" ">
<path fill="none" stroke="#63b8ff" d="M534.4,-169.84C564.39,-160.91 608.93,-147.66 641.88,-137.85"/>
<polygon fill="#63b8ff" stroke="#63b8ff" points="642.54,-141.31 651.13,-135.1 640.55,-134.6 642.54,-141.31"/>
</a>
</g>
</g>
<!-- Node29 -->
<g id="Node000029" class="node">
<title>Node29</title>
<g id="a_Node000029"><a xlink:title=" ">
<polygon fill="#e0e0e0" stroke="#999999" points="457.88,-134.25 405.12,-134.25 405.12,-113.5 457.88,-113.5 457.88,-134.25"/>
<text xml:space="preserve" text-anchor="middle" x="431.5" y="-120.75" font-family="Helvetica,sans-Serif" font-size="10.00">stdint.h</text>
</a>
</g>
</g>
<!-- Node28&#45;&gt;Node29 -->
<g id="edge43_Node000028_Node000029" class="edge">
<title>Node28&#45;&gt;Node29</title>
<g id="a_edge43_Node000028_Node000029"><a xlink:title=" ">
<path fill="none" stroke="#63b8ff" d="M488.99,-169.84C478.93,-161.97 464.59,-150.75 452.74,-141.49"/>
<polygon fill="#63b8ff" stroke="#63b8ff" points="455.13,-138.91 445.1,-135.51 450.82,-144.43 455.13,-138.91"/>
</a>
</g>
</g>
<!-- Node30&#45;&gt;Node19 -->
<g id="edge46_Node000030_Node000019" class="edge">
<title>Node30&#45;&gt;Node19</title>
<g id="a_edge46_Node000030_Node000019"><a xlink:title=" ">
<path fill="none" stroke="#63b8ff" d="M813.02,-226.59C805.71,-219.03 795.41,-208.39 786.66,-199.35"/>
<polygon fill="#63b8ff" stroke="#63b8ff" points="789.42,-197.17 779.95,-192.42 784.39,-202.04 789.42,-197.17"/>
</a>
</g>
</g>
<!-- Node30&#45;&gt;Node20 -->
<g id="edge48_Node000030_Node000020" class="edge">
<title>Node30&#45;&gt;Node20</title>
<g id="a_edge48_Node000030_Node000020"><a xlink:title=" ">
<path fill="none" stroke="#63b8ff" d="M830.96,-226.74C842.53,-213.66 864.08,-189.71 883.5,-170.25 892.96,-160.77 903.86,-150.61 912.97,-142.31"/>
<polygon fill="#63b8ff" stroke="#63b8ff" points="915.17,-145.04 920.25,-135.74 910.48,-139.85 915.17,-145.04"/>
</a>
</g>
</g>
<!-- Node30&#45;&gt;Node21 -->
<g id="edge49_Node000030_Node000021" class="edge">
<title>Node30&#45;&gt;Node21</title>
<g id="a_edge49_Node000030_Node000021"><a xlink:title=" ">
<path fill="none" stroke="#63b8ff" d="M835.94,-226.64C854.67,-213.23 889.9,-188.68 921.5,-170.25 940.53,-159.15 962.6,-148 980.13,-139.53"/>
<polygon fill="#63b8ff" stroke="#63b8ff" points="981.51,-142.75 989.02,-135.28 978.49,-136.43 981.51,-142.75"/>
</a>
</g>
</g>
<!-- Node30&#45;&gt;Node22 -->
<g id="edge50_Node000030_Node000022" class="edge">
<title>Node30&#45;&gt;Node22</title>
<g id="a_edge50_Node000030_Node000022"><a xlink:title=" ">
<path fill="none" stroke="#63b8ff" d="M825.23,-226.87C830.37,-208.94 841.62,-169.75 848.58,-145.51"/>
<polygon fill="#63b8ff" stroke="#63b8ff" points="851.88,-146.71 851.27,-136.13 845.15,-144.78 851.88,-146.71"/>
</a>
</g>
</g>
<!-- Node30&#45;&gt;Node27 -->
<g id="edge51_Node000030_Node000027" class="edge">
<title>Node30&#45;&gt;Node27</title>
<g id="a_edge51_Node000030_Node000027"><a xlink:title=" ">
<path fill="none" stroke="#63b8ff" d="M798.75,-226.68C750.35,-206.91 640.12,-161.89 583.88,-138.92"/>
<polygon fill="#63b8ff" stroke="#63b8ff" points="585.37,-135.75 574.79,-135.2 582.72,-142.23 585.37,-135.75"/>
</a>
</g>
</g>
<!-- Node30&#45;&gt;Node28 -->
<g id="edge47_Node000030_Node000028" class="edge">
<title>Node30&#45;&gt;Node28</title>
<g id="a_edge47_Node000030_Node000028"><a xlink:title=" ">
<path fill="none" stroke="#63b8ff" d="M795.41,-231.75C740.26,-222.35 614.44,-200.89 546.69,-189.33"/>
<polygon fill="#63b8ff" stroke="#63b8ff" points="547.48,-185.92 537.03,-187.69 546.3,-192.82 547.48,-185.92"/>
</a>
</g>
</g>
<!-- Node31&#45;&gt;Node5 -->
<g id="edge53_Node000031_Node000005" class="edge">
<title>Node31&#45;&gt;Node5</title>
<g id="a_edge53_Node000031_Node000005"><a xlink:title=" ">
<path fill="none" stroke="#63b8ff" d="M1174.48,-169.75C1171.47,-146.09 1160.39,-85.91 1123.5,-56.75 1091.05,-31.11 977.68,-19.33 908.9,-14.44"/>
<polygon fill="#63b8ff" stroke="#63b8ff" points="909.16,-10.95 898.95,-13.76 908.69,-17.93 909.16,-10.95"/>
</a>
</g>
</g>
</g>
</svg>
