<?xml version="1.0" encoding="UTF-8" standalone="no"?>
<!DOCTYPE svg PUBLIC "-//W3C//DTD SVG 1.1//EN"
 "http://www.w3.org/Graphics/SVG/1.1/DTD/svg11.dtd">
<!-- Generated by graphviz version 14.1.3 (0)
 -->
<!-- Title: source/cli_utilities.c Pages: 1 -->
<svg width="324pt" height="142pt"
 viewBox="0.00 0.00 324.00 142.00" xmlns="http://www.w3.org/2000/svg" xmlns:xlink="http://www.w3.org/1999/xlink">
<g id="graph0" class="graph" transform="scale(1 1) rotate(0) translate(4 138.25)">
<title>source/cli_utilities.c</title>
<!-- Node1 -->
<g id="Node000001" class="node">
<title>Node1</title>
<g id="a_Node000001"><a xlink:title=" ">
<polygon fill="#999999" stroke="#666666" points="276.12,-134.25 163.38,-134.25 163.38,-113.5 276.12,-113.5 276.12,-134.25"/>
<text xml:space="preserve" text-anchor="middle" x="219.75" y="-120.75" font-family="Helvetica,sans-Serif" font-size="10.00">source/cli_utilities.c</text>
</a>
</g>
</g>
<!-- Node2 -->
<g id="Node000002" class="node">
<title>Node2</title>
<g id="a_Node000002"><a xlink:href="cli__utilities_8h.html" target="_top" xlink:title=" ">
<polygon fill="white" stroke="#666666" points="174.88,-77.5 96.62,-77.5 96.62,-56.75 174.88,-56.75 174.88,-77.5"/>
<text xml:space="preserve" text-anchor="middle" x="135.75" y="-64" font-family="Helvetica,sans-Serif" font-size="10.00">cli_utilities.h</text>
</a>
</g>
</g>
<!-- Node1&#45;&gt;Node2 -->
<g id="edge1_Node000001_Node000002" class="edge">
<title>Node1&#45;&gt;Node2</title>
<g id="a_edge1_Node000001_Node000002"><a xlink:title=" ">
<path fill="none" stroke="#63b8ff" d="M204.73,-113.09C192.31,-104.99 174.43,-93.33 159.98,-83.92"/>
<polygon fill="#63b8ff" stroke="#63b8ff" points="162.19,-81.18 151.91,-78.65 158.37,-87.05 162.19,-81.18"/>
</a>
</g>
</g>
<!-- Node6 -->
<g id="Node000006" class="node">
<title>Node6</title>
<g id="a_Node000006"><a xlink:title=" ">
<polygon fill="#e0e0e0" stroke="#999999" points="246.12,-77.5 193.38,-77.5 193.38,-56.75 246.12,-56.75 246.12,-77.5"/>
<text xml:space="preserve" text-anchor="middle" x="219.75" y="-64" font-family="Helvetica,sans-Serif" font-size="10.00">string.h</text>
</a>
</g>
</g>
<!-- Node1&#45;&gt;Node6 -->
<g id="edge5_Node000001_Node000006" class="edge">
<title>Node1&#45;&gt;Node6</title>
<g id="a_edge5_Node000001_Node000006"><a xlink:title=" ">
<path fill="none" stroke="#63b8ff" d="M219.75,-113.09C219.75,-106.47 219.75,-97.47 219.75,-89.27"/>
<polygon fill="#63b8ff" stroke="#63b8ff" points="223.25,-89.34 219.75,-79.34 216.25,-89.34 223.25,-89.34"/>
</a>
</g>
</g>
<!-- Node7 -->
<g id="Node000007" class="node">
<title>Node7</title>
<g id="a_Node000007"><a xlink:title=" ">
<polygon fill="#e0e0e0" stroke="#999999" points="315.75,-77.5 263.75,-77.5 263.75,-56.75 315.75,-56.75 315.75,-77.5"/>
<text xml:space="preserve" text-anchor="middle" x="289.75" y="-64" font-family="Helvetica,sans-Serif" font-size="10.00">stdlib.h</text>
</a>
</g>
</g>
<!-- Node1&#45;&gt;Node7 -->
<g id="edge6_Node000001_Node000007" class="edge">
<title>Node1&#45;&gt;Node7</title>
<g id="a_edge6_Node000001_Node000007"><a xlink:title=" ">
<path fill="none" stroke="#63b8ff" d="M232.26,-113.09C242.32,-105.22 256.66,-94 268.51,-84.74"/>
<polygon fill="#63b8ff" stroke="#63b8ff" points="270.43,-87.68 276.15,-78.76 266.12,-82.16 270.43,-87.68"/>
</a>
</g>
</g>
<!-- Node3 -->
<g id="Node000003" class="node">
<title>Node3</title>
<g id="a_Node000003"><a xlink:title=" ">
<polygon fill="#e0e0e0" stroke="#999999" points="71.5,-20.75 0,-20.75 0,0 71.5,0 71.5,-20.75"/>
<text xml:space="preserve" text-anchor="middle" x="35.75" y="-7.25" font-family="Helvetica,sans-Serif" font-size="10.00">FreeRTOS.h</text>
</a>
</g>
</g>
<!-- Node2&#45;&gt;Node3 -->
<g id="edge2_Node000002_Node000003" class="edge">
<title>Node2&#45;&gt;Node3</title>
<g id="a_edge2_Node000002_Node000003"><a xlink:title=" ">
<path fill="none" stroke="#63b8ff" d="M117.87,-56.34C102.66,-48.01 80.56,-35.91 63.12,-26.36"/>
<polygon fill="#63b8ff" stroke="#63b8ff" points="65.25,-23.54 54.8,-21.81 61.89,-29.68 65.25,-23.54"/>
</a>
</g>
</g>
<!-- Node4 -->
<g id="Node000004" class="node">
<title>Node4</title>
<g id="a_Node000004"><a xlink:title=" ">
<polygon fill="#e0e0e0" stroke="#999999" points="181.62,-20.75 89.88,-20.75 89.88,0 181.62,0 181.62,-20.75"/>
<text xml:space="preserve" text-anchor="middle" x="135.75" y="-7.25" font-family="Helvetica,sans-Serif" font-size="10.00">FreeRTOS_CLI.h</text>
</a>
</g>
</g>
<!-- Node2&#45;&gt;Node4 -->
<g id="edge3_Node000002_Node000004" class="edge">
<title>Node2&#45;&gt;Node4</title>
<g id="a_edge3_Node000002_Node000004"><a xlink:title=" ">
<path fill="none" stroke="#63b8ff" d="M135.75,-56.34C135.75,-49.72 135.75,-40.72 135.75,-32.52"/>
<polygon fill="#63b8ff" stroke="#63b8ff" points="139.25,-32.59 135.75,-22.59 132.25,-32.59 139.25,-32.59"/>
</a>
</g>
</g>
<!-- Node5 -->
<g id="Node000005" class="node">
<title>Node5</title>
<g id="a_Node000005"><a xlink:title=" ">
<polygon fill="#e0e0e0" stroke="#999999" points="284.25,-20.75 199.25,-20.75 199.25,0 284.25,0 284.25,-20.75"/>
<text xml:space="preserve" text-anchor="middle" x="241.75" y="-7.25" font-family="Helvetica,sans-Serif" font-size="10.00">fsl_common.h</text>
</a>
</g>
</g>
<!-- Node2&#45;&gt;Node5 -->
<g id="edge4_Node000002_Node000005" class="edge">
<title>Node2&#45;&gt;Node5</title>
<g id="a_edge4_Node000002_Node000005"><a xlink:title=" ">
<path fill="none" stroke="#63b8ff" d="M154.7,-56.34C170.83,-48.01 194.25,-35.91 212.74,-26.36"/>
<polygon fill="#63b8ff" stroke="#63b8ff" points="214.34,-29.47 221.62,-21.77 211.13,-23.25 214.34,-29.47"/>
</a>
</g>
</g>
</g>
</svg>
