<?xml version="1.0" encoding="UTF-8" standalone="no"?>
<!DOCTYPE svg PUBLIC "-//W3C//DTD SVG 1.1//EN"
 "http://www.w3.org/Graphics/SVG/1.1/DTD/svg11.dtd">
<!-- Generated by graphviz version 14.1.3 (0)
 -->
<!-- Title: source/cli_utilities.h Pages: 1 -->
<svg width="474pt" height="86pt"
 viewBox="0.00 0.00 474.00 86.00" xmlns="http://www.w3.org/2000/svg" xmlns:xlink="http://www.w3.org/1999/xlink">
<g id="graph0" class="graph" transform="scale(1 1) rotate(0) translate(4 81.5)">
<title>source/cli_utilities.h</title>
<!-- Node1 -->
<g id="Node000001" class="node">
<title>Node1</title>
<g id="a_Node000001"><a xlink:title=" ">
<polygon fill="#999999" stroke="#666666" points="280.12,-77.5 166.62,-77.5 166.62,-56.75 280.12,-56.75 280.12,-77.5"/>
<text xml:space="preserve" text-anchor="middle" x="223.38" y="-64" font-family="Helvetica,sans-Serif" font-size="10.00">source/cli_utilities.h</text>
</a>
</g>
</g>
<!-- Node2 -->
<g id="Node000002" class="node">
<title>Node2</title>
<g id="a_Node000002"><a xlink:href="cli__utilities_8c.html" target="_top" xlink:title=" ">
<polygon fill="white" stroke="#666666" points="112.75,-20.75 0,-20.75 0,0 112.75,0 112.75,-20.75"/>
<text xml:space="preserve" text-anchor="middle" x="56.38" y="-7.25" font-family="Helvetica,sans-Serif" font-size="10.00">source/cli_utilities.c</text>
</a>
</g>
</g>
<!-- Node1&#45;&gt;Node2 -->
<g id="edge1_Node000001_Node000002" class="edge">
<title>Node1&#45;&gt;Node2</title>
<g id="a_edge1_Node000001_Node000002"><a xlink:title=" ">
<path fill="none" stroke="#63b8ff" d="M182.64,-52.77C152.86,-43.01 113.13,-29.98 86.25,-21.17"/>
<polygon fill="#63b8ff" stroke="#63b8ff" points="181.49,-56.08 192.08,-55.87 183.67,-49.42 181.49,-56.08"/>
</a>
</g>
</g>
<!-- Node3 -->
<g id="Node000003" class="node">
<title>Node3</title>
<g id="a_Node000003"><a xlink:href="log_8c.html" target="_top" xlink:title=" ">
<polygon fill="white" stroke="#666666" points="205.62,-20.75 131.12,-20.75 131.12,0 205.62,0 205.62,-20.75"/>
<text xml:space="preserve" text-anchor="middle" x="168.38" y="-7.25" font-family="Helvetica,sans-Serif" font-size="10.00">source/log.c</text>
</a>
</g>
</g>
<!-- Node1&#45;&gt;Node3 -->
<g id="edge2_Node000001_Node000003" class="edge">
<title>Node1&#45;&gt;Node3</title>
<g id="a_edge2_Node000001_Node000003"><a xlink:title=" ">
<path fill="none" stroke="#63b8ff" d="M205.47,-48.3C196.38,-39.25 185.69,-28.61 178.12,-21.08"/>
<polygon fill="#63b8ff" stroke="#63b8ff" points="202.91,-50.69 212.47,-55.27 207.85,-45.73 202.91,-50.69"/>
</a>
</g>
</g>
<!-- Node4 -->
<g id="Node000004" class="node">
<title>Node4</title>
<g id="a_Node000004"><a xlink:href="motorCmd_8c.html" target="_top" xlink:title=" ">
<polygon fill="white" stroke="#666666" points="335,-20.75 223.75,-20.75 223.75,0 335,0 335,-20.75"/>
<text xml:space="preserve" text-anchor="middle" x="279.38" y="-7.25" font-family="Helvetica,sans-Serif" font-size="10.00">source/motorCmd.c</text>
</a>
</g>
</g>
<!-- Node1&#45;&gt;Node4 -->
<g id="edge3_Node000001_Node000004" class="edge">
<title>Node1&#45;&gt;Node4</title>
<g id="a_edge3_Node000001_Node000004"><a xlink:title=" ">
<path fill="none" stroke="#63b8ff" d="M241.61,-48.3C250.86,-39.25 261.75,-28.61 269.45,-21.08"/>
<polygon fill="#63b8ff" stroke="#63b8ff" points="239.17,-45.79 234.47,-55.28 244.07,-50.79 239.17,-45.79"/>
</a>
</g>
</g>
<!-- Node5 -->
<g id="Node000005" class="node">
<title>Node5</title>
<g id="a_Node000005"><a xlink:href="motor__test_8c.html" target="_top" xlink:title=" ">
<polygon fill="white" stroke="#666666" points="465.75,-20.75 353,-20.75 353,0 465.75,0 465.75,-20.75"/>
<text xml:space="preserve" text-anchor="middle" x="409.38" y="-7.25" font-family="Helvetica,sans-Serif" font-size="10.00">source/motor_test.c</text>
</a>
</g>
</g>
<!-- Node1&#45;&gt;Node5 -->
<g id="edge4_Node000001_Node000005" class="edge">
<title>Node1&#45;&gt;Node5</title>
<g id="a_edge4_Node000001_Node000005"><a xlink:title=" ">
<path fill="none" stroke="#63b8ff" d="M267.44,-53.16C300.75,-43.35 345.77,-30.1 376.1,-21.17"/>
<polygon fill="#63b8ff" stroke="#63b8ff" points="266.68,-49.73 258.08,-55.91 268.66,-56.44 266.68,-49.73"/>
</a>
</g>
</g>
</g>
</svg>
