<?xml version="1.0" encoding="UTF-8" standalone="no"?>
<!DOCTYPE svg PUBLIC "-//W3C//DTD SVG 1.1//EN"
 "http://www.w3.org/Graphics/SVG/1.1/DTD/svg11.dtd">
<!-- Generated by graphviz version 14.1.5 (0)
 -->
<!-- Title: source/infrastructure/cli_utilities.c Pages: 1 -->
<svg width="333pt" height="168pt"
 viewBox="0.00 0.00 333.00 168.00" xmlns="http://www.w3.org/2000/svg" xmlns:xlink="http://www.w3.org/1999/xlink">

<svg id="main" version="1.1" xmlns="http://www.w3.org/2000/svg" xmlns:xlink="http://www.w3.org/1999/xlink" xml:space="preserve">

<style type="text/css"><![CDATA[
.node, .edge {opacity: 0.7;}
.node.selected, .edge.selected {opacity: 1;}
.edge:hover path { stroke: red; }
.edge:hover polygon { stroke: red; fill: red; }
]]></style>
<script type="application/ecmascript" xlink:href="svg.min.js"/>
<svg id="graph" class="graph">
<g id="graph0" class="graph" transform="scale(1 1) rotate(0) translate(4 163.75)">
<title>source/infrastructure/cli_utilities.c</title>
<!-- Node1 -->
<g id="Node000001" class="node">
<title>Node1</title>
<g id="a_Node000001"><a xlink:title=" ">
<polygon fill="#999999" stroke="#666666" points="287.38,-159.75 170.12,-159.75 170.12,-126.25 287.38,-126.25 287.38,-159.75"/>
<text xml:space="preserve" text-anchor="start" x="178.12" y="-146.25" font-family="Helvetica,sans-Serif" font-size="10.00">source/infrastructure</text>
<text xml:space="preserve" text-anchor="middle" x="228.75" y="-133.5" font-family="Helvetica,sans-Serif" font-size="10.00">/cli_utilities.c</text>
</a>
</g>
</g>
<!-- Node2 -->
<g id="Node000002" class="node">
<title>Node2</title>
<g id="a_Node000002"><a xlink:href="cli__utilities_8h.html" target="_top" xlink:title=" ">
<polygon fill="white" stroke="#666666" points="183.88,-90.25 87.62,-90.25 87.62,-56.75 183.88,-56.75 183.88,-90.25"/>
<text xml:space="preserve" text-anchor="start" x="95.62" y="-76.75" font-family="Helvetica,sans-Serif" font-size="10.00">infrastructure/cli</text>
<text xml:space="preserve" text-anchor="middle" x="135.75" y="-64" font-family="Helvetica,sans-Serif" font-size="10.00">_utilities.h</text>
</a>
</g>
</g>
<!-- Node1&#45;&gt;Node2 -->
<g id="edge1_Node000001_Node000002" class="edge">
<title>Node1&#45;&gt;Node2</title>
<g id="a_edge1_Node000001_Node000002"><a xlink:title=" ">
<path fill="none" stroke="#63b8ff" d="M206.71,-126C194.87,-117.41 180.07,-106.66 167.05,-97.22"/>
<polygon fill="#63b8ff" stroke="#63b8ff" points="169.33,-94.55 159.18,-91.5 165.22,-100.21 169.33,-94.55"/>
</a>
</g>
</g>
<!-- Node6 -->
<g id="Node000006" class="node">
<title>Node6</title>
<g id="a_Node000006"><a xlink:title=" ">
<polygon fill="#e0e0e0" stroke="#999999" points="255.12,-83.88 202.38,-83.88 202.38,-63.12 255.12,-63.12 255.12,-83.88"/>
<text xml:space="preserve" text-anchor="middle" x="228.75" y="-70.38" font-family="Helvetica,sans-Serif" font-size="10.00">string.h</text>
</a>
</g>
</g>
<!-- Node1&#45;&gt;Node6 -->
<g id="edge5_Node000001_Node000006" class="edge">
<title>Node1&#45;&gt;Node6</title>
<g id="a_edge5_Node000001_Node000006"><a xlink:title=" ">
<path fill="none" stroke="#63b8ff" d="M228.75,-126C228.75,-116.9 228.75,-105.39 228.75,-95.57"/>
<polygon fill="#63b8ff" stroke="#63b8ff" points="232.25,-95.84 228.75,-85.84 225.25,-95.84 232.25,-95.84"/>
</a>
</g>
</g>
<!-- Node7 -->
<g id="Node000007" class="node">
<title>Node7</title>
<g id="a_Node000007"><a xlink:title=" ">
<polygon fill="#e0e0e0" stroke="#999999" points="324.75,-83.88 272.75,-83.88 272.75,-63.12 324.75,-63.12 324.75,-83.88"/>
<text xml:space="preserve" text-anchor="middle" x="298.75" y="-70.38" font-family="Helvetica,sans-Serif" font-size="10.00">stdlib.h</text>
</a>
</g>
</g>
<!-- Node1&#45;&gt;Node7 -->
<g id="edge6_Node000001_Node000007" class="edge">
<title>Node1&#45;&gt;Node7</title>
<g id="a_edge6_Node000001_Node000007"><a xlink:title=" ">
<path fill="none" stroke="#63b8ff" d="M245.34,-126C255.93,-115.79 269.67,-102.55 280.56,-92.04"/>
<polygon fill="#63b8ff" stroke="#63b8ff" points="282.71,-94.83 287.47,-85.37 277.85,-89.79 282.71,-94.83"/>
</a>
</g>
</g>
<!-- Node3 -->
<g id="Node000003" class="node">
<title>Node3</title>
<g id="a_Node000003"><a xlink:title=" ">
<polygon fill="#e0e0e0" stroke="#999999" points="71.5,-20.75 0,-20.75 0,0 71.5,0 71.5,-20.75"/>
<text xml:space="preserve" text-anchor="middle" x="35.75" y="-7.25" font-family="Helvetica,sans-Serif" font-size="10.00">FreeRTOS.h</text>
</a>
</g>
</g>
<!-- Node2&#45;&gt;Node3 -->
<g id="edge2_Node000002_Node000003" class="edge">
<title>Node2&#45;&gt;Node3</title>
<g id="a_edge2_Node000002_Node000003"><a xlink:title=" ">
<path fill="none" stroke="#63b8ff" d="M109.21,-56.28C94.36,-47.2 75.93,-35.93 61.24,-26.96"/>
<polygon fill="#63b8ff" stroke="#63b8ff" points="63.42,-24.18 53.06,-21.95 59.76,-30.16 63.42,-24.18"/>
</a>
</g>
</g>
<!-- Node4 -->
<g id="Node000004" class="node">
<title>Node4</title>
<g id="a_Node000004"><a xlink:title=" ">
<polygon fill="#e0e0e0" stroke="#999999" points="181.62,-20.75 89.88,-20.75 89.88,0 181.62,0 181.62,-20.75"/>
<text xml:space="preserve" text-anchor="middle" x="135.75" y="-7.25" font-family="Helvetica,sans-Serif" font-size="10.00">FreeRTOS_CLI.h</text>
</a>
</g>
</g>
<!-- Node2&#45;&gt;Node4 -->
<g id="edge3_Node000002_Node000004" class="edge">
<title>Node2&#45;&gt;Node4</title>
<g id="a_edge3_Node000002_Node000004"><a xlink:title=" ">
<path fill="none" stroke="#63b8ff" d="M135.75,-56.44C135.75,-49.1 135.75,-40.32 135.75,-32.46"/>
<polygon fill="#63b8ff" stroke="#63b8ff" points="139.25,-32.73 135.75,-22.73 132.25,-32.73 139.25,-32.73"/>
</a>
</g>
</g>
<!-- Node5 -->
<g id="Node000005" class="node">
<title>Node5</title>
<g id="a_Node000005"><a xlink:title=" ">
<polygon fill="#e0e0e0" stroke="#999999" points="284.25,-20.75 199.25,-20.75 199.25,0 284.25,0 284.25,-20.75"/>
<text xml:space="preserve" text-anchor="middle" x="241.75" y="-7.25" font-family="Helvetica,sans-Serif" font-size="10.00">fsl_common.h</text>
</a>
</g>
</g>
<!-- Node2&#45;&gt;Node5 -->
<g id="edge4_Node000002_Node000005" class="edge">
<title>Node2&#45;&gt;Node5</title>
<g id="a_edge4_Node000002_Node000005"><a xlink:title=" ">
<path fill="none" stroke="#63b8ff" d="M163.88,-56.28C179.78,-47.11 199.54,-35.72 215.17,-26.7"/>
<polygon fill="#63b8ff" stroke="#63b8ff" points="216.55,-29.95 223.46,-21.92 213.05,-23.88 216.55,-29.95"/>
</a>
</g>
</g>
</g>
</svg>
</svg>

<style type='text/css'>
<![CDATA[
[data-mouse-over-selected='false'] { opacity: 0.7; }
[data-mouse-over-selected='true']  { opacity: 1.0; }
]]>
</style>
<script type="application/ecmascript"><![CDATA[
document.addEventListener('DOMContentLoaded', (event) => {
  highlightEdges();
  highlightAdjacentNodes();
});
]]></script>
</svg>
