<?xml version="1.0" encoding="UTF-8" standalone="no"?>
<!DOCTYPE svg PUBLIC "-//W3C//DTD SVG 1.1//EN"
 "http://www.w3.org/Graphics/SVG/1.1/DTD/svg11.dtd">
<!-- Generated by graphviz version 14.1.2 (0)
 -->
<!-- Title: source/cli.c Pages: 1 -->
<svg width="390pt" height="142pt"
 viewBox="0.00 0.00 390.00 142.00" xmlns="http://www.w3.org/2000/svg" xmlns:xlink="http://www.w3.org/1999/xlink">

<svg id="main" version="1.1" xmlns="http://www.w3.org/2000/svg" xmlns:xlink="http://www.w3.org/1999/xlink" xml:space="preserve">

<style type="text/css"><![CDATA[
.node, .edge {opacity: 0.7;}
.node.selected, .edge.selected {opacity: 1;}
.edge:hover path { stroke: red; }
.edge:hover polygon { stroke: red; fill: red; }
]]></style>
<script type="application/ecmascript" xlink:href="svg.min.js"/>
<svg id="graph" class="graph">
<g id="graph0" class="graph" transform="scale(1 1) rotate(0) translate(4 138.25)">
<title>source/cli.c</title>
<!-- Node1 -->
<g id="Node000001" class="node">
<title>Node1</title>
<g id="a_Node000001"><a xlink:title=" ">
<polygon fill="#999999" stroke="#666666" points="270.88,-134.25 200.12,-134.25 200.12,-113.5 270.88,-113.5 270.88,-134.25"/>
<text xml:space="preserve" text-anchor="middle" x="235.5" y="-120.75" font-family="Helvetica,sans-Serif" font-size="10.00">source/cli.c</text>
</a>
</g>
</g>
<!-- Node2 -->
<g id="Node000002" class="node">
<title>Node2</title>
<g id="a_Node000002"><a xlink:href="cli_8h.html" target="_top" xlink:title=" ">
<polygon fill="white" stroke="#666666" points="230.62,-77.5 194.38,-77.5 194.38,-56.75 230.62,-56.75 230.62,-77.5"/>
<text xml:space="preserve" text-anchor="middle" x="212.5" y="-64" font-family="Helvetica,sans-Serif" font-size="10.00">cli.h</text>
</a>
</g>
</g>
<!-- Node1&#45;&gt;Node2 -->
<g id="edge1_Node000001_Node000002" class="edge">
<title>Node1&#45;&gt;Node2</title>
<g id="a_edge1_Node000001_Node000002"><a xlink:title=" ">
<path fill="none" stroke="#63b8ff" d="M231.39,-113.09C228.51,-106.24 224.56,-96.84 221.02,-88.4"/>
<polygon fill="#63b8ff" stroke="#63b8ff" points="224.26,-87.09 217.16,-79.22 217.81,-89.8 224.26,-87.09"/>
</a>
</g>
</g>
<!-- Node3 -->
<g id="Node000003" class="node">
<title>Node3</title>
<g id="a_Node000003"><a xlink:title=" ">
<polygon fill="#e0e0e0" stroke="#999999" points="174.25,-20.75 102.75,-20.75 102.75,0 174.25,0 174.25,-20.75"/>
<text xml:space="preserve" text-anchor="middle" x="138.5" y="-7.25" font-family="Helvetica,sans-Serif" font-size="10.00">FreeRTOS.h</text>
</a>
</g>
</g>
<!-- Node1&#45;&gt;Node3 -->
<g id="edge5_Node000001_Node000003" class="edge">
<title>Node1&#45;&gt;Node3</title>
<g id="a_edge5_Node000001_Node000003"><a xlink:title=" ">
<path fill="none" stroke="#63b8ff" d="M223.3,-113.09C212.74,-104.32 197.33,-90.83 185.5,-77.5 172.24,-62.56 159.24,-43.87 150.29,-30.18"/>
<polygon fill="#63b8ff" stroke="#63b8ff" points="153.46,-28.63 145.11,-22.1 147.56,-32.41 153.46,-28.63"/>
</a>
</g>
</g>
<!-- Node4 -->
<g id="Node000004" class="node">
<title>Node4</title>
<g id="a_Node000004"><a xlink:title=" ">
<polygon fill="#e0e0e0" stroke="#999999" points="284.38,-20.75 192.62,-20.75 192.62,0 284.38,0 284.38,-20.75"/>
<text xml:space="preserve" text-anchor="middle" x="238.5" y="-7.25" font-family="Helvetica,sans-Serif" font-size="10.00">FreeRTOS_CLI.h</text>
</a>
</g>
</g>
<!-- Node1&#45;&gt;Node4 -->
<g id="edge6_Node000001_Node000004" class="edge">
<title>Node1&#45;&gt;Node4</title>
<g id="a_edge6_Node000001_Node000004"><a xlink:title=" ">
<path fill="none" stroke="#63b8ff" d="M236.61,-113.15C237.59,-103.98 238.96,-89.82 239.5,-77.5 240.16,-62.53 239.89,-45.64 239.46,-32.68"/>
<polygon fill="#63b8ff" stroke="#63b8ff" points="242.96,-32.61 239.07,-22.75 235.97,-32.88 242.96,-32.61"/>
</a>
</g>
</g>
<!-- Node5 -->
<g id="Node000005" class="node">
<title>Node5</title>
<g id="a_Node000005"><a xlink:title=" ">
<polygon fill="#e0e0e0" stroke="#999999" points="382.38,-20.75 302.62,-20.75 302.62,0 382.38,0 382.38,-20.75"/>
<text xml:space="preserve" text-anchor="middle" x="342.5" y="-7.25" font-family="Helvetica,sans-Serif" font-size="10.00">peripherals.h</text>
</a>
</g>
</g>
<!-- Node1&#45;&gt;Node5 -->
<g id="edge7_Node000001_Node000005" class="edge">
<title>Node1&#45;&gt;Node5</title>
<g id="a_edge7_Node000001_Node000005"><a xlink:title=" ">
<path fill="none" stroke="#63b8ff" d="M244.62,-113.37C262.46,-94.78 302.21,-53.36 325.19,-29.41"/>
<polygon fill="#63b8ff" stroke="#63b8ff" points="327.65,-31.91 332.05,-22.27 322.6,-27.06 327.65,-31.91"/>
</a>
</g>
</g>
<!-- Node6 -->
<g id="Node000006" class="node">
<title>Node6</title>
<g id="a_Node000006"><a xlink:title=" ">
<polygon fill="#e0e0e0" stroke="#999999" points="374,-77.5 325,-77.5 325,-56.75 374,-56.75 374,-77.5"/>
<text xml:space="preserve" text-anchor="middle" x="349.5" y="-64" font-family="Helvetica,sans-Serif" font-size="10.00">stdio.h</text>
</a>
</g>
</g>
<!-- Node1&#45;&gt;Node6 -->
<g id="edge8_Node000001_Node000006" class="edge">
<title>Node1&#45;&gt;Node6</title>
<g id="a_edge8_Node000001_Node000006"><a xlink:title=" ">
<path fill="none" stroke="#63b8ff" d="M255.88,-113.09C273.47,-104.64 299.13,-92.32 319.13,-82.71"/>
<polygon fill="#63b8ff" stroke="#63b8ff" points="320.43,-85.97 327.93,-78.48 317.4,-79.66 320.43,-85.97"/>
</a>
</g>
</g>
<!-- Node7 -->
<g id="Node000007" class="node">
<title>Node7</title>
<g id="a_Node000007"><a xlink:href="log_8h.html" target="_top" xlink:title=" ">
<polygon fill="white" stroke="#666666" points="138.5,-77.5 98.5,-77.5 98.5,-56.75 138.5,-56.75 138.5,-77.5"/>
<text xml:space="preserve" text-anchor="middle" x="118.5" y="-64" font-family="Helvetica,sans-Serif" font-size="10.00">log.h</text>
</a>
</g>
</g>
<!-- Node1&#45;&gt;Node7 -->
<g id="edge9_Node000001_Node000007" class="edge">
<title>Node1&#45;&gt;Node7</title>
<g id="a_edge9_Node000001_Node000007"><a xlink:title=" ">
<path fill="none" stroke="#63b8ff" d="M214.58,-113.09C196.34,-104.55 169.63,-92.05 149,-82.4"/>
<polygon fill="#63b8ff" stroke="#63b8ff" points="150.76,-79.35 140.22,-78.29 147.79,-85.7 150.76,-79.35"/>
</a>
</g>
</g>
<!-- Node2&#45;&gt;Node3 -->
<g id="edge2_Node000002_Node000003" class="edge">
<title>Node2&#45;&gt;Node3</title>
<g id="a_edge2_Node000002_Node000003"><a xlink:title=" ">
<path fill="none" stroke="#63b8ff" d="M199.27,-56.34C188.54,-48.4 173.18,-37.03 160.58,-27.71"/>
<polygon fill="#63b8ff" stroke="#63b8ff" points="162.95,-25.11 152.83,-21.98 158.79,-30.74 162.95,-25.11"/>
</a>
</g>
</g>
<!-- Node2&#45;&gt;Node4 -->
<g id="edge3_Node000002_Node000004" class="edge">
<title>Node2&#45;&gt;Node4</title>
<g id="a_edge3_Node000002_Node000004"><a xlink:title=" ">
<path fill="none" stroke="#63b8ff" d="M217.15,-56.34C220.44,-49.41 224.97,-39.87 229.01,-31.36"/>
<polygon fill="#63b8ff" stroke="#63b8ff" points="232.11,-32.98 233.24,-22.45 225.79,-29.98 232.11,-32.98"/>
</a>
</g>
</g>
<!-- Node2&#45;&gt;Node5 -->
<g id="edge4_Node000002_Node000005" class="edge">
<title>Node2&#45;&gt;Node5</title>
<g id="a_edge4_Node000002_Node000005"><a xlink:title=" ">
<path fill="none" stroke="#63b8ff" d="M230.85,-58.4C251.09,-49.87 284.09,-35.98 308.97,-25.49"/>
<polygon fill="#63b8ff" stroke="#63b8ff" points="310.17,-28.79 318.03,-21.68 307.45,-22.34 310.17,-28.79"/>
</a>
</g>
</g>
<!-- Node7&#45;&gt;Node3 -->
<g id="edge10_Node000007_Node000003" class="edge">
<title>Node7&#45;&gt;Node3</title>
<g id="a_edge10_Node000007_Node000003"><a xlink:title=" ">
<path fill="none" stroke="#63b8ff" d="M122.08,-56.34C124.58,-49.49 128.01,-40.09 131.09,-31.65"/>
<polygon fill="#63b8ff" stroke="#63b8ff" points="134.29,-33.09 134.44,-22.5 127.72,-30.69 134.29,-33.09"/>
</a>
</g>
</g>
<!-- Node8 -->
<g id="Node000008" class="node">
<title>Node8</title>
<g id="a_Node000008"><a xlink:title=" ">
<polygon fill="#e0e0e0" stroke="#999999" points="85,-20.75 0,-20.75 0,0 85,0 85,-20.75"/>
<text xml:space="preserve" text-anchor="middle" x="42.5" y="-7.25" font-family="Helvetica,sans-Serif" font-size="10.00">fsl_common.h</text>
</a>
</g>
</g>
<!-- Node7&#45;&gt;Node8 -->
<g id="edge11_Node000007_Node000008" class="edge">
<title>Node7&#45;&gt;Node8</title>
<g id="a_edge11_Node000007_Node000008"><a xlink:title=" ">
<path fill="none" stroke="#63b8ff" d="M104.91,-56.34C93.89,-48.4 78.11,-37.03 65.18,-27.71"/>
<polygon fill="#63b8ff" stroke="#63b8ff" points="67.36,-24.97 57.2,-21.96 63.27,-30.65 67.36,-24.97"/>
</a>
</g>
</g>
</g>
</svg>
</svg>

<style type='text/css'>
<![CDATA[
[data-mouse-over-selected='false'] { opacity: 0.7; }
[data-mouse-over-selected='true']  { opacity: 1.0; }
]]>
</style>
<script type="application/ecmascript"><![CDATA[
document.addEventListener('DOMContentLoaded', (event) => {
  highlightEdges();
  highlightAdjacentNodes();
});
]]></script>
</svg>
