<?xml version="1.0" encoding="UTF-8" standalone="no"?>
<!DOCTYPE svg PUBLIC "-//W3C//DTD SVG 1.1//EN"
 "http://www.w3.org/Graphics/SVG/1.1/DTD/svg11.dtd">
<!-- Generated by graphviz version 14.1.3 (0)
 -->
<!-- Title: source/cli.h Pages: 1 -->
<svg width="563pt" height="86pt"
 viewBox="0.00 0.00 563.00 86.00" xmlns="http://www.w3.org/2000/svg" xmlns:xlink="http://www.w3.org/1999/xlink">
<g id="graph0" class="graph" transform="scale(1 1) rotate(0) translate(4 81.5)">
<title>source/cli.h</title>
<!-- Node1 -->
<g id="Node000001" class="node">
<title>Node1</title>
<g id="a_Node000001"><a xlink:title=" ">
<polygon fill="#999999" stroke="#666666" points="293.5,-77.5 222,-77.5 222,-56.75 293.5,-56.75 293.5,-77.5"/>
<text xml:space="preserve" text-anchor="middle" x="257.75" y="-64" font-family="Helvetica,sans-Serif" font-size="10.00">source/cli.h</text>
</a>
</g>
</g>
<!-- Node2 -->
<g id="Node000002" class="node">
<title>Node2</title>
<g id="a_Node000002"><a xlink:href="application_8c.html" target="_top" xlink:title=" ">
<polygon fill="white" stroke="#666666" points="113.5,-20.75 0,-20.75 0,0 113.5,0 113.5,-20.75"/>
<text xml:space="preserve" text-anchor="middle" x="56.75" y="-7.25" font-family="Helvetica,sans-Serif" font-size="10.00">source/application.c</text>
</a>
</g>
</g>
<!-- Node1&#45;&gt;Node2 -->
<g id="edge1_Node000001_Node000002" class="edge">
<title>Node1&#45;&gt;Node2</title>
<g id="a_edge1_Node000001_Node000002"><a xlink:title=" ">
<path fill="none" stroke="#63b8ff" d="M211.07,-53.41C174.99,-43.58 125.77,-30.18 92.71,-21.17"/>
<polygon fill="#63b8ff" stroke="#63b8ff" points="209.79,-56.69 220.35,-55.94 211.63,-49.93 209.79,-56.69"/>
</a>
</g>
</g>
<!-- Node3 -->
<g id="Node000003" class="node">
<title>Node3</title>
<g id="a_Node000003"><a xlink:href="cli_8c.html" target="_top" xlink:title=" ">
<polygon fill="white" stroke="#666666" points="202.12,-20.75 131.38,-20.75 131.38,0 202.12,0 202.12,-20.75"/>
<text xml:space="preserve" text-anchor="middle" x="166.75" y="-7.25" font-family="Helvetica,sans-Serif" font-size="10.00">source/cli.c</text>
</a>
</g>
</g>
<!-- Node1&#45;&gt;Node3 -->
<g id="edge2_Node000001_Node000003" class="edge">
<title>Node1&#45;&gt;Node3</title>
<g id="a_edge2_Node000001_Node000003"><a xlink:title=" ">
<path fill="none" stroke="#63b8ff" d="M231.79,-50.51C216.03,-41.03 196.42,-29.23 182.88,-21.08"/>
<polygon fill="#63b8ff" stroke="#63b8ff" points="229.81,-53.4 240.18,-55.56 233.42,-47.4 229.81,-53.4"/>
</a>
</g>
</g>
<!-- Node4 -->
<g id="Node000004" class="node">
<title>Node4</title>
<g id="a_Node000004"><a xlink:href="log_8c.html" target="_top" xlink:title=" ">
<polygon fill="white" stroke="#666666" points="295,-20.75 220.5,-20.75 220.5,0 295,0 295,-20.75"/>
<text xml:space="preserve" text-anchor="middle" x="257.75" y="-7.25" font-family="Helvetica,sans-Serif" font-size="10.00">source/log.c</text>
</a>
</g>
</g>
<!-- Node1&#45;&gt;Node4 -->
<g id="edge3_Node000001_Node000004" class="edge">
<title>Node1&#45;&gt;Node4</title>
<g id="a_edge3_Node000001_Node000004"><a xlink:title=" ">
<path fill="none" stroke="#63b8ff" d="M257.75,-44.88C257.75,-36.66 257.75,-27.68 257.75,-21.08"/>
<polygon fill="#63b8ff" stroke="#63b8ff" points="254.25,-44.82 257.75,-54.82 261.25,-44.82 254.25,-44.82"/>
</a>
</g>
</g>
<!-- Node5 -->
<g id="Node000005" class="node">
<title>Node5</title>
<g id="a_Node000005"><a xlink:href="motorCmd_8c.html" target="_top" xlink:title=" ">
<polygon fill="white" stroke="#666666" points="424.38,-20.75 313.12,-20.75 313.12,0 424.38,0 424.38,-20.75"/>
<text xml:space="preserve" text-anchor="middle" x="368.75" y="-7.25" font-family="Helvetica,sans-Serif" font-size="10.00">source/motorCmd.c</text>
</a>
</g>
</g>
<!-- Node1&#45;&gt;Node5 -->
<g id="edge4_Node000001_Node000005" class="edge">
<title>Node1&#45;&gt;Node5</title>
<g id="a_edge4_Node000001_Node000005"><a xlink:title=" ">
<path fill="none" stroke="#63b8ff" d="M287.78,-51.31C307.26,-41.7 332.08,-29.46 349.08,-21.08"/>
<polygon fill="#63b8ff" stroke="#63b8ff" points="286.37,-48.1 278.95,-55.67 289.47,-54.38 286.37,-48.1"/>
</a>
</g>
</g>
<!-- Node6 -->
<g id="Node000006" class="node">
<title>Node6</title>
<g id="a_Node000006"><a xlink:href="motor__test_8c.html" target="_top" xlink:title=" ">
<polygon fill="white" stroke="#666666" points="555.12,-20.75 442.38,-20.75 442.38,0 555.12,0 555.12,-20.75"/>
<text xml:space="preserve" text-anchor="middle" x="498.75" y="-7.25" font-family="Helvetica,sans-Serif" font-size="10.00">source/motor_test.c</text>
</a>
</g>
</g>
<!-- Node1&#45;&gt;Node6 -->
<g id="edge5_Node000001_Node000006" class="edge">
<title>Node1&#45;&gt;Node6</title>
<g id="a_edge5_Node000001_Node000006"><a xlink:title=" ">
<path fill="none" stroke="#63b8ff" d="M305.02,-55.39C348.72,-45.46 413.11,-30.83 455.48,-21.2"/>
<polygon fill="#63b8ff" stroke="#63b8ff" points="304.28,-51.96 295.31,-57.59 305.83,-58.79 304.28,-51.96"/>
</a>
</g>
</g>
</g>
</svg>
