<?xml version="1.0" encoding="UTF-8" standalone="no"?>
<!DOCTYPE svg PUBLIC "-//W3C//DTD SVG 1.1//EN"
 "http://www.w3.org/Graphics/SVG/1.1/DTD/svg11.dtd">
<!-- Generated by graphviz version 14.1.5 (0)
 -->
<!-- Title: source/infrastructure/cli_utilities.h Pages: 1 -->
<svg width="292pt" height="98pt"
 viewBox="0.00 0.00 292.00 98.00" xmlns="http://www.w3.org/2000/svg" xmlns:xlink="http://www.w3.org/1999/xlink">
<g id="graph0" class="graph" transform="scale(1 1) rotate(0) translate(4 94.25)">
<title>source/infrastructure/cli_utilities.h</title>
<!-- Node1 -->
<g id="Node000001" class="node">
<title>Node1</title>
<g id="a_Node000001"><a xlink:title=" ">
<polygon fill="#999999" stroke="#666666" points="194.38,-90.25 77.12,-90.25 77.12,-56.75 194.38,-56.75 194.38,-90.25"/>
<text xml:space="preserve" text-anchor="start" x="85.12" y="-76.75" font-family="Helvetica,sans-Serif" font-size="10.00">source/infrastructure</text>
<text xml:space="preserve" text-anchor="middle" x="135.75" y="-64" font-family="Helvetica,sans-Serif" font-size="10.00">/cli_utilities.h</text>
</a>
</g>
</g>
<!-- Node2 -->
<g id="Node000002" class="node">
<title>Node2</title>
<g id="a_Node000002"><a xlink:title=" ">
<polygon fill="#e0e0e0" stroke="#999999" points="71.5,-20.75 0,-20.75 0,0 71.5,0 71.5,-20.75"/>
<text xml:space="preserve" text-anchor="middle" x="35.75" y="-7.25" font-family="Helvetica,sans-Serif" font-size="10.00">FreeRTOS.h</text>
</a>
</g>
</g>
<!-- Node1&#45;&gt;Node2 -->
<g id="edge1_Node000001_Node000002" class="edge">
<title>Node1&#45;&gt;Node2</title>
<g id="a_edge1_Node000001_Node000002"><a xlink:title=" ">
<path fill="none" stroke="#63b8ff" d="M109.21,-56.28C94.36,-47.2 75.93,-35.93 61.24,-26.96"/>
<polygon fill="#63b8ff" stroke="#63b8ff" points="63.42,-24.18 53.06,-21.95 59.76,-30.16 63.42,-24.18"/>
</a>
</g>
</g>
<!-- Node3 -->
<g id="Node000003" class="node">
<title>Node3</title>
<g id="a_Node000003"><a xlink:title=" ">
<polygon fill="#e0e0e0" stroke="#999999" points="181.62,-20.75 89.88,-20.75 89.88,0 181.62,0 181.62,-20.75"/>
<text xml:space="preserve" text-anchor="middle" x="135.75" y="-7.25" font-family="Helvetica,sans-Serif" font-size="10.00">FreeRTOS_CLI.h</text>
</a>
</g>
</g>
<!-- Node1&#45;&gt;Node3 -->
<g id="edge2_Node000001_Node000003" class="edge">
<title>Node1&#45;&gt;Node3</title>
<g id="a_edge2_Node000001_Node000003"><a xlink:title=" ">
<path fill="none" stroke="#63b8ff" d="M135.75,-56.44C135.75,-49.1 135.75,-40.32 135.75,-32.46"/>
<polygon fill="#63b8ff" stroke="#63b8ff" points="139.25,-32.73 135.75,-22.73 132.25,-32.73 139.25,-32.73"/>
</a>
</g>
</g>
<!-- Node4 -->
<g id="Node000004" class="node">
<title>Node4</title>
<g id="a_Node000004"><a xlink:title=" ">
<polygon fill="#e0e0e0" stroke="#999999" points="284.25,-20.75 199.25,-20.75 199.25,0 284.25,0 284.25,-20.75"/>
<text xml:space="preserve" text-anchor="middle" x="241.75" y="-7.25" font-family="Helvetica,sans-Serif" font-size="10.00">fsl_common.h</text>
</a>
</g>
</g>
<!-- Node1&#45;&gt;Node4 -->
<g id="edge3_Node000001_Node000004" class="edge">
<title>Node1&#45;&gt;Node4</title>
<g id="a_edge3_Node000001_Node000004"><a xlink:title=" ">
<path fill="none" stroke="#63b8ff" d="M163.88,-56.28C179.78,-47.11 199.54,-35.72 215.17,-26.7"/>
<polygon fill="#63b8ff" stroke="#63b8ff" points="216.55,-29.95 223.46,-21.92 213.05,-23.88 216.55,-29.95"/>
</a>
</g>
</g>
</g>
</svg>
