<?xml version="1.0" encoding="UTF-8" standalone="no"?>
<!DOCTYPE svg PUBLIC "-//W3C//DTD SVG 1.1//EN"
 "http://www.w3.org/Graphics/SVG/1.1/DTD/svg11.dtd">
<!-- Generated by graphviz version 14.1.5 (0)
 -->
<!-- Title: source/infrastructure/cli_utilities.h Pages: 1 -->
<svg width="520pt" height="111pt"
 viewBox="0.00 0.00 520.00 111.00" xmlns="http://www.w3.org/2000/svg" xmlns:xlink="http://www.w3.org/1999/xlink">
<g id="graph0" class="graph" transform="scale(1 1) rotate(0) translate(4 107)">
<title>source/infrastructure/cli_utilities.h</title>
<!-- Node1 -->
<g id="Node000001" class="node">
<title>Node1</title>
<g id="a_Node000001"><a xlink:title=" ">
<polygon fill="#999999" stroke="#666666" points="318.25,-103 201,-103 201,-69.5 318.25,-69.5 318.25,-103"/>
<text xml:space="preserve" text-anchor="start" x="209" y="-89.5" font-family="Helvetica,sans-Serif" font-size="10.00">source/infrastructure</text>
<text xml:space="preserve" text-anchor="middle" x="259.62" y="-76.75" font-family="Helvetica,sans-Serif" font-size="10.00">/cli_utilities.h</text>
</a>
</g>
</g>
<!-- Node2 -->
<g id="Node000002" class="node">
<title>Node2</title>
<g id="a_Node000002"><a xlink:href="cli__utilities_8c.html" target="_top" xlink:title=" ">
<polygon fill="white" stroke="#666666" points="117.25,-33.5 0,-33.5 0,0 117.25,0 117.25,-33.5"/>
<text xml:space="preserve" text-anchor="start" x="8" y="-20" font-family="Helvetica,sans-Serif" font-size="10.00">source/infrastructure</text>
<text xml:space="preserve" text-anchor="middle" x="58.62" y="-7.25" font-family="Helvetica,sans-Serif" font-size="10.00">/cli_utilities.c</text>
</a>
</g>
</g>
<!-- Node1&#45;&gt;Node2 -->
<g id="edge1_Node000001_Node000002" class="edge">
<title>Node1&#45;&gt;Node2</title>
<g id="a_edge1_Node000001_Node000002"><a xlink:title=" ">
<path fill="none" stroke="#63b8ff" d="M200.76,-65.48C170.84,-55.44 134.96,-43.38 106.72,-33.9"/>
<polygon fill="#63b8ff" stroke="#63b8ff" points="199.45,-68.73 210.05,-68.6 201.68,-62.1 199.45,-68.73"/>
</a>
</g>
</g>
<!-- Node3 -->
<g id="Node000003" class="node">
<title>Node3</title>
<g id="a_Node000003"><a xlink:href="log_8c.html" target="_top" xlink:title=" ">
<polygon fill="white" stroke="#666666" points="252.25,-33.5 135,-33.5 135,0 252.25,0 252.25,-33.5"/>
<text xml:space="preserve" text-anchor="start" x="143" y="-20" font-family="Helvetica,sans-Serif" font-size="10.00">source/infrastructure</text>
<text xml:space="preserve" text-anchor="middle" x="193.62" y="-7.25" font-family="Helvetica,sans-Serif" font-size="10.00">/log.c</text>
</a>
</g>
</g>
<!-- Node1&#45;&gt;Node3 -->
<g id="edge2_Node000001_Node000003" class="edge">
<title>Node1&#45;&gt;Node3</title>
<g id="a_edge2_Node000001_Node000003"><a xlink:title=" ">
<path fill="none" stroke="#63b8ff" d="M236.13,-61.22C227.17,-52.06 217.19,-41.85 209.15,-33.63"/>
<polygon fill="#63b8ff" stroke="#63b8ff" points="233.43,-63.47 242.93,-68.17 238.44,-58.57 233.43,-63.47"/>
</a>
</g>
</g>
<!-- Node4 -->
<g id="Node000004" class="node">
<title>Node4</title>
<g id="a_Node000004"><a xlink:href="motorCmd_8c.html" target="_top" xlink:title=" ">
<polygon fill="white" stroke="#666666" points="381.25,-27.12 270,-27.12 270,-6.38 381.25,-6.38 381.25,-27.12"/>
<text xml:space="preserve" text-anchor="middle" x="325.62" y="-13.62" font-family="Helvetica,sans-Serif" font-size="10.00">source/motorCmd.c</text>
</a>
</g>
</g>
<!-- Node1&#45;&gt;Node4 -->
<g id="edge3_Node000001_Node000004" class="edge">
<title>Node1&#45;&gt;Node4</title>
<g id="a_edge3_Node000001_Node000004"><a xlink:title=" ">
<path fill="none" stroke="#63b8ff" d="M283.14,-61.2C294.47,-49.61 307.43,-36.36 316.02,-27.57"/>
<polygon fill="#63b8ff" stroke="#63b8ff" points="280.81,-58.57 276.32,-68.17 285.82,-63.47 280.81,-58.57"/>
</a>
</g>
</g>
<!-- Node5 -->
<g id="Node000005" class="node">
<title>Node5</title>
<g id="a_Node000005"><a xlink:href="motor__test_8c.html" target="_top" xlink:title=" ">
<polygon fill="white" stroke="#666666" points="512,-27.12 399.25,-27.12 399.25,-6.38 512,-6.38 512,-27.12"/>
<text xml:space="preserve" text-anchor="middle" x="455.62" y="-13.62" font-family="Helvetica,sans-Serif" font-size="10.00">source/motor_test.c</text>
</a>
</g>
</g>
<!-- Node1&#45;&gt;Node5 -->
<g id="edge4_Node000001_Node000005" class="edge">
<title>Node1&#45;&gt;Node5</title>
<g id="a_edge4_Node000001_Node000005"><a xlink:title=" ">
<path fill="none" stroke="#63b8ff" d="M317.45,-65.34C353.51,-52.92 398.33,-37.48 426.97,-27.62"/>
<polygon fill="#63b8ff" stroke="#63b8ff" points="316.32,-62.02 308,-68.59 318.6,-68.64 316.32,-62.02"/>
</a>
</g>
</g>
</g>
</svg>
