<?xml version="1.0" encoding="UTF-8" standalone="no"?>
<!DOCTYPE svg PUBLIC "-//W3C//DTD SVG 1.1//EN"
 "http://www.w3.org/Graphics/SVG/1.1/DTD/svg11.dtd">
<!-- Generated by graphviz version 14.1.2 (0)
 -->
<!-- Title: source/cli_utilities.h Pages: 1 -->
<svg width="292pt" height="86pt"
 viewBox="0.00 0.00 292.00 86.00" xmlns="http://www.w3.org/2000/svg" xmlns:xlink="http://www.w3.org/1999/xlink">

<svg id="main" version="1.1" xmlns="http://www.w3.org/2000/svg" xmlns:xlink="http://www.w3.org/1999/xlink" xml:space="preserve">

<style type="text/css"><![CDATA[
.node, .edge {opacity: 0.7;}
.node.selected, .edge.selected {opacity: 1;}
.edge:hover path { stroke: red; }
.edge:hover polygon { stroke: red; fill: red; }
]]></style>
<script type="application/ecmascript" xlink:href="svg.min.js"/>
<svg id="graph" class="graph">
<g id="graph0" class="graph" transform="scale(1 1) rotate(0) translate(4 81.5)">
<title>source/cli_utilities.h</title>
<!-- Node1 -->
<g id="Node000001" class="node">
<title>Node1</title>
<g id="a_Node000001"><a xlink:title=" ">
<polygon fill="#999999" stroke="#666666" points="192.5,-77.5 79,-77.5 79,-56.75 192.5,-56.75 192.5,-77.5"/>
<text xml:space="preserve" text-anchor="middle" x="135.75" y="-64" font-family="Helvetica,sans-Serif" font-size="10.00">source/cli_utilities.h</text>
</a>
</g>
</g>
<!-- Node2 -->
<g id="Node000002" class="node">
<title>Node2</title>
<g id="a_Node000002"><a xlink:title=" ">
<polygon fill="#e0e0e0" stroke="#999999" points="71.5,-20.75 0,-20.75 0,0 71.5,0 71.5,-20.75"/>
<text xml:space="preserve" text-anchor="middle" x="35.75" y="-7.25" font-family="Helvetica,sans-Serif" font-size="10.00">FreeRTOS.h</text>
</a>
</g>
</g>
<!-- Node1&#45;&gt;Node2 -->
<g id="edge1_Node000001_Node000002" class="edge">
<title>Node1&#45;&gt;Node2</title>
<g id="a_edge1_Node000001_Node000002"><a xlink:title=" ">
<path fill="none" stroke="#63b8ff" d="M117.87,-56.34C102.66,-48.01 80.56,-35.91 63.12,-26.36"/>
<polygon fill="#63b8ff" stroke="#63b8ff" points="65.25,-23.54 54.8,-21.81 61.89,-29.68 65.25,-23.54"/>
</a>
</g>
</g>
<!-- Node3 -->
<g id="Node000003" class="node">
<title>Node3</title>
<g id="a_Node000003"><a xlink:title=" ">
<polygon fill="#e0e0e0" stroke="#999999" points="181.62,-20.75 89.88,-20.75 89.88,0 181.62,0 181.62,-20.75"/>
<text xml:space="preserve" text-anchor="middle" x="135.75" y="-7.25" font-family="Helvetica,sans-Serif" font-size="10.00">FreeRTOS_CLI.h</text>
</a>
</g>
</g>
<!-- Node1&#45;&gt;Node3 -->
<g id="edge2_Node000001_Node000003" class="edge">
<title>Node1&#45;&gt;Node3</title>
<g id="a_edge2_Node000001_Node000003"><a xlink:title=" ">
<path fill="none" stroke="#63b8ff" d="M135.75,-56.34C135.75,-49.72 135.75,-40.72 135.75,-32.52"/>
<polygon fill="#63b8ff" stroke="#63b8ff" points="139.25,-32.59 135.75,-22.59 132.25,-32.59 139.25,-32.59"/>
</a>
</g>
</g>
<!-- Node4 -->
<g id="Node000004" class="node">
<title>Node4</title>
<g id="a_Node000004"><a xlink:title=" ">
<polygon fill="#e0e0e0" stroke="#999999" points="284.25,-20.75 199.25,-20.75 199.25,0 284.25,0 284.25,-20.75"/>
<text xml:space="preserve" text-anchor="middle" x="241.75" y="-7.25" font-family="Helvetica,sans-Serif" font-size="10.00">fsl_common.h</text>
</a>
</g>
</g>
<!-- Node1&#45;&gt;Node4 -->
<g id="edge3_Node000001_Node000004" class="edge">
<title>Node1&#45;&gt;Node4</title>
<g id="a_edge3_Node000001_Node000004"><a xlink:title=" ">
<path fill="none" stroke="#63b8ff" d="M154.7,-56.34C170.83,-48.01 194.25,-35.91 212.74,-26.36"/>
<polygon fill="#63b8ff" stroke="#63b8ff" points="214.34,-29.47 221.62,-21.77 211.13,-23.25 214.34,-29.47"/>
</a>
</g>
</g>
</g>
</svg>
</svg>

<style type='text/css'>
<![CDATA[
[data-mouse-over-selected='false'] { opacity: 0.7; }
[data-mouse-over-selected='true']  { opacity: 1.0; }
]]>
</style>
<script type="application/ecmascript"><![CDATA[
document.addEventListener('DOMContentLoaded', (event) => {
  highlightEdges();
  highlightAdjacentNodes();
});
]]></script>
</svg>
