<?xml version="1.0" encoding="UTF-8" standalone="no"?>
<!DOCTYPE svg PUBLIC "-//W3C//DTD SVG 1.1//EN"
 "http://www.w3.org/Graphics/SVG/1.1/DTD/svg11.dtd">
<!-- Generated by graphviz version 14.1.5 (0)
 -->
<!-- Title: source/infrastructure/cli.c Pages: 1 -->
<svg width="531pt" height="155pt"
 viewBox="0.00 0.00 531.00 155.00" xmlns="http://www.w3.org/2000/svg" xmlns:xlink="http://www.w3.org/1999/xlink">
<g id="graph0" class="graph" transform="scale(1 1) rotate(0) translate(4 151)">
<title>source/infrastructure/cli.c</title>
<!-- Node1 -->
<g id="Node000001" class="node">
<title>Node1</title>
<g id="a_Node000001"><a xlink:title=" ">
<polygon fill="#999999" stroke="#666666" points="318.12,-147 200.88,-147 200.88,-113.5 318.12,-113.5 318.12,-147"/>
<text xml:space="preserve" text-anchor="start" x="208.88" y="-133.5" font-family="Helvetica,sans-Serif" font-size="10.00">source/infrastructure</text>
<text xml:space="preserve" text-anchor="middle" x="259.5" y="-120.75" font-family="Helvetica,sans-Serif" font-size="10.00">/cli.c</text>
</a>
</g>
</g>
<!-- Node2 -->
<g id="Node000002" class="node">
<title>Node2</title>
<g id="a_Node000002"><a xlink:href="cli_8h.html" target="_top" xlink:title=" ">
<polygon fill="white" stroke="#666666" points="312.12,-77.5 206.88,-77.5 206.88,-56.75 312.12,-56.75 312.12,-77.5"/>
<text xml:space="preserve" text-anchor="middle" x="259.5" y="-64" font-family="Helvetica,sans-Serif" font-size="10.00">infrastructure/cli.h</text>
</a>
</g>
</g>
<!-- Node1&#45;&gt;Node2 -->
<g id="edge1_Node000001_Node000002" class="edge">
<title>Node1&#45;&gt;Node2</title>
<g id="a_edge1_Node000001_Node000002"><a xlink:title=" ">
<path fill="none" stroke="#63b8ff" d="M259.5,-113.19C259.5,-105.85 259.5,-97.07 259.5,-89.21"/>
<polygon fill="#63b8ff" stroke="#63b8ff" points="263,-89.48 259.5,-79.48 256,-89.48 263,-89.48"/>
</a>
</g>
</g>
<!-- Node3 -->
<g id="Node000003" class="node">
<title>Node3</title>
<g id="a_Node000003"><a xlink:title=" ">
<polygon fill="#e0e0e0" stroke="#999999" points="174.25,-20.75 102.75,-20.75 102.75,0 174.25,0 174.25,-20.75"/>
<text xml:space="preserve" text-anchor="middle" x="138.5" y="-7.25" font-family="Helvetica,sans-Serif" font-size="10.00">FreeRTOS.h</text>
</a>
</g>
</g>
<!-- Node1&#45;&gt;Node3 -->
<g id="edge8_Node000001_Node000003" class="edge">
<title>Node1&#45;&gt;Node3</title>
<g id="a_edge8_Node000001_Node000003"><a xlink:title=" ">
<path fill="none" stroke="#63b8ff" d="M235.38,-113.09C221.83,-103.49 204.99,-90.65 191.5,-77.5 176.41,-62.79 161.62,-43.84 151.51,-30"/>
<polygon fill="#63b8ff" stroke="#63b8ff" points="154.59,-28.29 145.92,-22.19 148.89,-32.36 154.59,-28.29"/>
</a>
</g>
</g>
<!-- Node4 -->
<g id="Node000004" class="node">
<title>Node4</title>
<g id="a_Node000004"><a xlink:title=" ">
<polygon fill="#e0e0e0" stroke="#999999" points="284.38,-20.75 192.62,-20.75 192.62,0 284.38,0 284.38,-20.75"/>
<text xml:space="preserve" text-anchor="middle" x="238.5" y="-7.25" font-family="Helvetica,sans-Serif" font-size="10.00">FreeRTOS_CLI.h</text>
</a>
</g>
</g>
<!-- Node1&#45;&gt;Node4 -->
<g id="edge9_Node000001_Node000004" class="edge">
<title>Node1&#45;&gt;Node4</title>
<g id="a_edge9_Node000001_Node000004"><a xlink:title=" ">
<path fill="none" stroke="#63b8ff" d="M230.66,-113.19C218,-104.44 204.45,-92.36 197.5,-77.5 189.3,-59.97 203.12,-41.35 216.88,-28.35"/>
<polygon fill="#63b8ff" stroke="#63b8ff" points="218.87,-31.26 224.1,-22.04 214.27,-25.99 218.87,-31.26"/>
</a>
</g>
</g>
<!-- Node5 -->
<g id="Node000005" class="node">
<title>Node5</title>
<g id="a_Node000005"><a xlink:title=" ">
<polygon fill="#e0e0e0" stroke="#999999" points="382.38,-20.75 302.62,-20.75 302.62,0 382.38,0 382.38,-20.75"/>
<text xml:space="preserve" text-anchor="middle" x="342.5" y="-7.25" font-family="Helvetica,sans-Serif" font-size="10.00">peripherals.h</text>
</a>
</g>
</g>
<!-- Node1&#45;&gt;Node5 -->
<g id="edge10_Node000001_Node000005" class="edge">
<title>Node1&#45;&gt;Node5</title>
<g id="a_edge10_Node000001_Node000005"><a xlink:title=" ">
<path fill="none" stroke="#63b8ff" d="M285.15,-113C297.67,-103.92 312.04,-91.58 321.5,-77.5 330.65,-63.87 336.01,-46.01 339.02,-32.29"/>
<polygon fill="#63b8ff" stroke="#63b8ff" points="342.44,-33.06 340.88,-22.58 335.56,-31.74 342.44,-33.06"/>
</a>
</g>
</g>
<!-- Node6 -->
<g id="Node000006" class="node">
<title>Node6</title>
<g id="a_Node000006"><a xlink:href="log_8h.html" target="_top" xlink:title=" ">
<polygon fill="white" stroke="#666666" points="112,-77.5 3,-77.5 3,-56.75 112,-56.75 112,-77.5"/>
<text xml:space="preserve" text-anchor="middle" x="57.5" y="-64" font-family="Helvetica,sans-Serif" font-size="10.00">infrastructure/log.h</text>
</a>
</g>
</g>
<!-- Node1&#45;&gt;Node6 -->
<g id="edge5_Node000001_Node000006" class="edge">
<title>Node1&#45;&gt;Node6</title>
<g id="a_edge5_Node000001_Node000006"><a xlink:title=" ">
<path fill="none" stroke="#63b8ff" d="M205.9,-113.03C173,-103.08 131.43,-90.5 100.66,-81.19"/>
<polygon fill="#63b8ff" stroke="#63b8ff" points="101.89,-77.9 91.3,-78.35 99.86,-84.6 101.89,-77.9"/>
</a>
</g>
</g>
<!-- Node8 -->
<g id="Node000008" class="node">
<title>Node8</title>
<g id="a_Node000008"><a xlink:title=" ">
<polygon fill="#e0e0e0" stroke="#999999" points="418,-77.5 369,-77.5 369,-56.75 418,-56.75 418,-77.5"/>
<text xml:space="preserve" text-anchor="middle" x="393.5" y="-64" font-family="Helvetica,sans-Serif" font-size="10.00">stdio.h</text>
</a>
</g>
</g>
<!-- Node1&#45;&gt;Node8 -->
<g id="edge11_Node000001_Node000008" class="edge">
<title>Node1&#45;&gt;Node8</title>
<g id="a_edge11_Node000001_Node000008"><a xlink:title=" ">
<path fill="none" stroke="#63b8ff" d="M295.06,-113.03C315.73,-103.6 341.57,-91.81 361.59,-82.68"/>
<polygon fill="#63b8ff" stroke="#63b8ff" points="363.02,-85.88 370.66,-78.54 360.11,-79.51 363.02,-85.88"/>
</a>
</g>
</g>
<!-- Node9 -->
<g id="Node000009" class="node">
<title>Node9</title>
<g id="a_Node000009"><a xlink:title=" ">
<polygon fill="#e0e0e0" stroke="#999999" points="523.12,-77.5 435.88,-77.5 435.88,-56.75 523.12,-56.75 523.12,-77.5"/>
<text xml:space="preserve" text-anchor="middle" x="479.5" y="-64" font-family="Helvetica,sans-Serif" font-size="10.00">SEGGER_RTT.h</text>
</a>
</g>
</g>
<!-- Node1&#45;&gt;Node9 -->
<g id="edge12_Node000001_Node000009" class="edge">
<title>Node1&#45;&gt;Node9</title>
<g id="a_edge12_Node000001_Node000009"><a xlink:title=" ">
<path fill="none" stroke="#63b8ff" d="M317.88,-113.03C354.02,-102.99 399.77,-90.28 433.37,-80.94"/>
<polygon fill="#63b8ff" stroke="#63b8ff" points="434.11,-84.37 442.81,-78.32 432.23,-77.63 434.11,-84.37"/>
</a>
</g>
</g>
<!-- Node2&#45;&gt;Node3 -->
<g id="edge2_Node000002_Node000003" class="edge">
<title>Node2&#45;&gt;Node3</title>
<g id="a_edge2_Node000002_Node000003"><a xlink:title=" ">
<path fill="none" stroke="#63b8ff" d="M237.87,-56.34C219.03,-47.81 191.46,-35.34 170.14,-25.69"/>
<polygon fill="#63b8ff" stroke="#63b8ff" points="171.88,-22.64 161.32,-21.7 168.99,-29.01 171.88,-22.64"/>
</a>
</g>
</g>
<!-- Node2&#45;&gt;Node4 -->
<g id="edge3_Node000002_Node000004" class="edge">
<title>Node2&#45;&gt;Node4</title>
<g id="a_edge3_Node000002_Node000004"><a xlink:title=" ">
<path fill="none" stroke="#63b8ff" d="M255.75,-56.34C253.12,-49.49 249.51,-40.09 246.28,-31.65"/>
<polygon fill="#63b8ff" stroke="#63b8ff" points="249.61,-30.57 242.76,-22.49 243.08,-33.08 249.61,-30.57"/>
</a>
</g>
</g>
<!-- Node2&#45;&gt;Node5 -->
<g id="edge4_Node000002_Node000005" class="edge">
<title>Node2&#45;&gt;Node5</title>
<g id="a_edge4_Node000002_Node000005"><a xlink:title=" ">
<path fill="none" stroke="#63b8ff" d="M274.34,-56.34C286.61,-48.24 304.29,-36.58 318.56,-27.17"/>
<polygon fill="#63b8ff" stroke="#63b8ff" points="320.11,-30.34 326.53,-21.91 316.25,-24.5 320.11,-30.34"/>
</a>
</g>
</g>
<!-- Node6&#45;&gt;Node3 -->
<g id="edge6_Node000006_Node000003" class="edge">
<title>Node6&#45;&gt;Node3</title>
<g id="a_edge6_Node000006_Node000003"><a xlink:title=" ">
<path fill="none" stroke="#63b8ff" d="M71.98,-56.34C83.85,-48.32 100.87,-36.81 114.73,-27.44"/>
<polygon fill="#63b8ff" stroke="#63b8ff" points="116.57,-30.43 122.89,-21.93 112.65,-24.63 116.57,-30.43"/>
</a>
</g>
</g>
<!-- Node7 -->
<g id="Node000007" class="node">
<title>Node7</title>
<g id="a_Node000007"><a xlink:title=" ">
<polygon fill="#e0e0e0" stroke="#999999" points="85,-20.75 0,-20.75 0,0 85,0 85,-20.75"/>
<text xml:space="preserve" text-anchor="middle" x="42.5" y="-7.25" font-family="Helvetica,sans-Serif" font-size="10.00">fsl_common.h</text>
</a>
</g>
</g>
<!-- Node6&#45;&gt;Node7 -->
<g id="edge7_Node000006_Node000007" class="edge">
<title>Node6&#45;&gt;Node7</title>
<g id="a_edge7_Node000006_Node000007"><a xlink:title=" ">
<path fill="none" stroke="#63b8ff" d="M54.82,-56.34C52.96,-49.56 50.42,-40.3 48.13,-31.94"/>
<polygon fill="#63b8ff" stroke="#63b8ff" points="51.58,-31.26 45.56,-22.54 44.83,-33.11 51.58,-31.26"/>
</a>
</g>
</g>
</g>
</svg>
