<?xml version="1.0" encoding="UTF-8" standalone="no"?>
<!DOCTYPE svg PUBLIC "-//W3C//DTD SVG 1.1//EN"
 "http://www.w3.org/Graphics/SVG/1.1/DTD/svg11.dtd">
<!-- Generated by graphviz version 14.1.4 (0)
 -->
<!-- Title: source/cli.c Pages: 1 -->
<svg width="491pt" height="142pt"
 viewBox="0.00 0.00 491.00 142.00" xmlns="http://www.w3.org/2000/svg" xmlns:xlink="http://www.w3.org/1999/xlink">

<svg id="main" version="1.1" xmlns="http://www.w3.org/2000/svg" xmlns:xlink="http://www.w3.org/1999/xlink" xml:space="preserve">

<style type="text/css"><![CDATA[
.node, .edge {opacity: 0.7;}
.node.selected, .edge.selected {opacity: 1;}
.edge:hover path { stroke: red; }
.edge:hover polygon { stroke: red; fill: red; }
]]></style>
<script type="application/ecmascript" xlink:href="svg.min.js"/>
<svg id="graph" class="graph">
<g id="graph0" class="graph" transform="scale(1 1) rotate(0) translate(4 138.25)">
<title>source/cli.c</title>
<!-- Node1 -->
<g id="Node000001" class="node">
<title>Node1</title>
<g id="a_Node000001"><a xlink:title=" ">
<polygon fill="#999999" stroke="#666666" points="289.88,-134.25 219.12,-134.25 219.12,-113.5 289.88,-113.5 289.88,-134.25"/>
<text xml:space="preserve" text-anchor="middle" x="254.5" y="-120.75" font-family="Helvetica,sans-Serif" font-size="10.00">source/cli.c</text>
</a>
</g>
</g>
<!-- Node2 -->
<g id="Node000002" class="node">
<title>Node2</title>
<g id="a_Node000002"><a xlink:href="cli_8h.html" target="_top" xlink:title=" ">
<polygon fill="white" stroke="#666666" points="272.62,-77.5 236.38,-77.5 236.38,-56.75 272.62,-56.75 272.62,-77.5"/>
<text xml:space="preserve" text-anchor="middle" x="254.5" y="-64" font-family="Helvetica,sans-Serif" font-size="10.00">cli.h</text>
</a>
</g>
</g>
<!-- Node1&#45;&gt;Node2 -->
<g id="edge1_Node000001_Node000002" class="edge">
<title>Node1&#45;&gt;Node2</title>
<g id="a_edge1_Node000001_Node000002"><a xlink:title=" ">
<path fill="none" stroke="#63b8ff" d="M254.5,-113.09C254.5,-106.47 254.5,-97.47 254.5,-89.27"/>
<polygon fill="#63b8ff" stroke="#63b8ff" points="258,-89.34 254.5,-79.34 251,-89.34 258,-89.34"/>
</a>
</g>
</g>
<!-- Node3 -->
<g id="Node000003" class="node">
<title>Node3</title>
<g id="a_Node000003"><a xlink:title=" ">
<polygon fill="#e0e0e0" stroke="#999999" points="174.25,-20.75 102.75,-20.75 102.75,0 174.25,0 174.25,-20.75"/>
<text xml:space="preserve" text-anchor="middle" x="138.5" y="-7.25" font-family="Helvetica,sans-Serif" font-size="10.00">FreeRTOS.h</text>
</a>
</g>
</g>
<!-- Node1&#45;&gt;Node3 -->
<g id="edge5_Node000001_Node000003" class="edge">
<title>Node1&#45;&gt;Node3</title>
<g id="a_edge5_Node000001_Node000003"><a xlink:title=" ">
<path fill="none" stroke="#63b8ff" d="M244.61,-113.37C225.19,-94.7 181.8,-52.99 156.94,-29.1"/>
<polygon fill="#63b8ff" stroke="#63b8ff" points="159.42,-26.63 149.79,-22.22 154.57,-31.68 159.42,-26.63"/>
</a>
</g>
</g>
<!-- Node4 -->
<g id="Node000004" class="node">
<title>Node4</title>
<g id="a_Node000004"><a xlink:title=" ">
<polygon fill="#e0e0e0" stroke="#999999" points="284.38,-20.75 192.62,-20.75 192.62,0 284.38,0 284.38,-20.75"/>
<text xml:space="preserve" text-anchor="middle" x="238.5" y="-7.25" font-family="Helvetica,sans-Serif" font-size="10.00">FreeRTOS_CLI.h</text>
</a>
</g>
</g>
<!-- Node1&#45;&gt;Node4 -->
<g id="edge6_Node000001_Node000004" class="edge">
<title>Node1&#45;&gt;Node4</title>
<g id="a_edge6_Node000001_Node000004"><a xlink:title=" ">
<path fill="none" stroke="#63b8ff" d="M246.58,-113.15C240.02,-104.41 231.19,-90.93 227.5,-77.5 223.34,-62.38 226.61,-44.86 230.64,-31.65"/>
<polygon fill="#63b8ff" stroke="#63b8ff" points="233.89,-32.95 233.86,-22.36 227.28,-30.66 233.89,-32.95"/>
</a>
</g>
</g>
<!-- Node5 -->
<g id="Node000005" class="node">
<title>Node5</title>
<g id="a_Node000005"><a xlink:title=" ">
<polygon fill="#e0e0e0" stroke="#999999" points="382.38,-20.75 302.62,-20.75 302.62,0 382.38,0 382.38,-20.75"/>
<text xml:space="preserve" text-anchor="middle" x="342.5" y="-7.25" font-family="Helvetica,sans-Serif" font-size="10.00">peripherals.h</text>
</a>
</g>
</g>
<!-- Node1&#45;&gt;Node5 -->
<g id="edge7_Node000001_Node000005" class="edge">
<title>Node1&#45;&gt;Node5</title>
<g id="a_edge7_Node000001_Node000005"><a xlink:title=" ">
<path fill="none" stroke="#63b8ff" d="M262,-113.37C276.54,-94.95 308.79,-54.09 327.76,-30.05"/>
<polygon fill="#63b8ff" stroke="#63b8ff" points="330.38,-32.38 333.83,-22.36 324.88,-28.04 330.38,-32.38"/>
</a>
</g>
</g>
<!-- Node6 -->
<g id="Node000006" class="node">
<title>Node6</title>
<g id="a_Node000006"><a xlink:title=" ">
<polygon fill="#e0e0e0" stroke="#999999" points="378,-77.5 329,-77.5 329,-56.75 378,-56.75 378,-77.5"/>
<text xml:space="preserve" text-anchor="middle" x="353.5" y="-64" font-family="Helvetica,sans-Serif" font-size="10.00">stdio.h</text>
</a>
</g>
</g>
<!-- Node1&#45;&gt;Node6 -->
<g id="edge8_Node000001_Node000006" class="edge">
<title>Node1&#45;&gt;Node6</title>
<g id="a_edge8_Node000001_Node000006"><a xlink:title=" ">
<path fill="none" stroke="#63b8ff" d="M272.2,-113.09C287.12,-104.83 308.73,-92.88 325.92,-83.38"/>
<polygon fill="#63b8ff" stroke="#63b8ff" points="327.57,-86.46 334.63,-78.56 324.18,-80.34 327.57,-86.46"/>
</a>
</g>
</g>
<!-- Node7 -->
<g id="Node000007" class="node">
<title>Node7</title>
<g id="a_Node000007"><a xlink:href="log_8h.html" target="_top" xlink:title=" ">
<polygon fill="white" stroke="#666666" points="142.5,-77.5 102.5,-77.5 102.5,-56.75 142.5,-56.75 142.5,-77.5"/>
<text xml:space="preserve" text-anchor="middle" x="122.5" y="-64" font-family="Helvetica,sans-Serif" font-size="10.00">log.h</text>
</a>
</g>
</g>
<!-- Node1&#45;&gt;Node7 -->
<g id="edge9_Node000001_Node000007" class="edge">
<title>Node1&#45;&gt;Node7</title>
<g id="a_edge9_Node000001_Node000007"><a xlink:title=" ">
<path fill="none" stroke="#63b8ff" d="M230.9,-113.09C209.26,-104.11 177.08,-90.76 153.4,-80.94"/>
<polygon fill="#63b8ff" stroke="#63b8ff" points="154.84,-77.75 144.26,-77.15 152.16,-84.22 154.84,-77.75"/>
</a>
</g>
</g>
<!-- Node9 -->
<g id="Node000009" class="node">
<title>Node9</title>
<g id="a_Node000009"><a xlink:title=" ">
<polygon fill="#e0e0e0" stroke="#999999" points="483.12,-77.5 395.88,-77.5 395.88,-56.75 483.12,-56.75 483.12,-77.5"/>
<text xml:space="preserve" text-anchor="middle" x="439.5" y="-64" font-family="Helvetica,sans-Serif" font-size="10.00">SEGGER_RTT.h</text>
</a>
</g>
</g>
<!-- Node1&#45;&gt;Node9 -->
<g id="edge12_Node000001_Node000009" class="edge">
<title>Node1&#45;&gt;Node9</title>
<g id="a_edge12_Node000001_Node000009"><a xlink:title=" ">
<path fill="none" stroke="#63b8ff" d="M287.57,-113.09C317.73,-104.16 362.51,-90.91 395.65,-81.1"/>
<polygon fill="#63b8ff" stroke="#63b8ff" points="396.35,-84.54 404.95,-78.35 394.37,-77.83 396.35,-84.54"/>
</a>
</g>
</g>
<!-- Node2&#45;&gt;Node3 -->
<g id="edge2_Node000002_Node000003" class="edge">
<title>Node2&#45;&gt;Node3</title>
<g id="a_edge2_Node000002_Node000003"><a xlink:title=" ">
<path fill="none" stroke="#63b8ff" d="M236.12,-57.45C218.19,-48.99 190.6,-35.96 169.31,-25.92"/>
<polygon fill="#63b8ff" stroke="#63b8ff" points="171.05,-22.87 160.51,-21.76 168.06,-29.2 171.05,-22.87"/>
</a>
</g>
</g>
<!-- Node2&#45;&gt;Node4 -->
<g id="edge3_Node000002_Node000004" class="edge">
<title>Node2&#45;&gt;Node4</title>
<g id="a_edge3_Node000002_Node000004"><a xlink:title=" ">
<path fill="none" stroke="#63b8ff" d="M251.64,-56.34C249.66,-49.56 246.95,-40.3 244.51,-31.94"/>
<polygon fill="#63b8ff" stroke="#63b8ff" points="247.92,-31.15 241.76,-22.53 241.21,-33.11 247.92,-31.15"/>
</a>
</g>
</g>
<!-- Node2&#45;&gt;Node5 -->
<g id="edge4_Node000002_Node000005" class="edge">
<title>Node2&#45;&gt;Node5</title>
<g id="a_edge4_Node000002_Node000005"><a xlink:title=" ">
<path fill="none" stroke="#63b8ff" d="M270.23,-56.34C283.37,-48.16 302.34,-36.36 317.55,-26.9"/>
<polygon fill="#63b8ff" stroke="#63b8ff" points="318.98,-30.13 325.62,-21.88 315.28,-24.19 318.98,-30.13"/>
</a>
</g>
</g>
<!-- Node7&#45;&gt;Node3 -->
<g id="edge10_Node000007_Node000003" class="edge">
<title>Node7&#45;&gt;Node3</title>
<g id="a_edge10_Node000007_Node000003"><a xlink:title=" ">
<path fill="none" stroke="#63b8ff" d="M125.36,-56.34C127.34,-49.56 130.05,-40.3 132.49,-31.94"/>
<polygon fill="#63b8ff" stroke="#63b8ff" points="135.79,-33.11 135.24,-22.53 129.08,-31.15 135.79,-33.11"/>
</a>
</g>
</g>
<!-- Node8 -->
<g id="Node000008" class="node">
<title>Node8</title>
<g id="a_Node000008"><a xlink:title=" ">
<polygon fill="#e0e0e0" stroke="#999999" points="85,-20.75 0,-20.75 0,0 85,0 85,-20.75"/>
<text xml:space="preserve" text-anchor="middle" x="42.5" y="-7.25" font-family="Helvetica,sans-Serif" font-size="10.00">fsl_common.h</text>
</a>
</g>
</g>
<!-- Node7&#45;&gt;Node8 -->
<g id="edge11_Node000007_Node000008" class="edge">
<title>Node7&#45;&gt;Node8</title>
<g id="a_edge11_Node000007_Node000008"><a xlink:title=" ">
<path fill="none" stroke="#63b8ff" d="M108.2,-56.34C96.48,-48.32 79.66,-36.81 65.97,-27.44"/>
<polygon fill="#63b8ff" stroke="#63b8ff" points="68.16,-24.69 57.93,-21.93 64.2,-30.47 68.16,-24.69"/>
</a>
</g>
</g>
</g>
</svg>
</svg>

<style type='text/css'>
<![CDATA[
[data-mouse-over-selected='false'] { opacity: 0.7; }
[data-mouse-over-selected='true']  { opacity: 1.0; }
]]>
</style>
<script type="application/ecmascript"><![CDATA[
document.addEventListener('DOMContentLoaded', (event) => {
  highlightEdges();
  highlightAdjacentNodes();
});
]]></script>
</svg>
