<?xml version="1.0" encoding="UTF-8" standalone="no"?>
<!DOCTYPE svg PUBLIC "-//W3C//DTD SVG 1.1//EN"
 "http://www.w3.org/Graphics/SVG/1.1/DTD/svg11.dtd">
<!-- Generated by graphviz version 14.1.2 (0)
 -->
<!-- Title: source/cli.h Pages: 1 -->
<svg width="434pt" height="86pt"
 viewBox="0.00 0.00 434.00 86.00" xmlns="http://www.w3.org/2000/svg" xmlns:xlink="http://www.w3.org/1999/xlink">
<g id="graph0" class="graph" transform="scale(1 1) rotate(0) translate(4 81.5)">
<title>source/cli.h</title>
<!-- Node1 -->
<g id="Node000001" class="node">
<title>Node1</title>
<g id="a_Node000001"><a xlink:title=" ">
<polygon fill="#999999" stroke="#666666" points="247.5,-77.5 176,-77.5 176,-56.75 247.5,-56.75 247.5,-77.5"/>
<text xml:space="preserve" text-anchor="middle" x="211.75" y="-64" font-family="Helvetica,sans-Serif" font-size="10.00">source/cli.h</text>
</a>
</g>
</g>
<!-- Node2 -->
<g id="Node000002" class="node">
<title>Node2</title>
<g id="a_Node000002"><a xlink:href="application_8c.html" target="_top" xlink:title=" ">
<polygon fill="white" stroke="#666666" points="113.5,-20.75 0,-20.75 0,0 113.5,0 113.5,-20.75"/>
<text xml:space="preserve" text-anchor="middle" x="56.75" y="-7.25" font-family="Helvetica,sans-Serif" font-size="10.00">source/application.c</text>
</a>
</g>
</g>
<!-- Node1&#45;&gt;Node2 -->
<g id="edge1_Node000001_Node000002" class="edge">
<title>Node1&#45;&gt;Node2</title>
<g id="a_edge1_Node000001_Node000002"><a xlink:title=" ">
<path fill="none" stroke="#63b8ff" d="M173.21,-52.51C145.65,-42.78 109.21,-29.9 84.48,-21.17"/>
<polygon fill="#63b8ff" stroke="#63b8ff" points="172.02,-55.8 182.61,-55.83 174.35,-49.2 172.02,-55.8"/>
</a>
</g>
</g>
<!-- Node3 -->
<g id="Node000003" class="node">
<title>Node3</title>
<g id="a_Node000003"><a xlink:href="cli_8c.html" target="_top" xlink:title=" ">
<polygon fill="white" stroke="#666666" points="202.12,-20.75 131.38,-20.75 131.38,0 202.12,0 202.12,-20.75"/>
<text xml:space="preserve" text-anchor="middle" x="166.75" y="-7.25" font-family="Helvetica,sans-Serif" font-size="10.00">source/cli.c</text>
</a>
</g>
</g>
<!-- Node1&#45;&gt;Node3 -->
<g id="edge2_Node000001_Node000003" class="edge">
<title>Node1&#45;&gt;Node3</title>
<g id="a_edge2_Node000001_Node000003"><a xlink:title=" ">
<path fill="none" stroke="#63b8ff" d="M196.41,-47.46C189.12,-38.59 180.72,-28.37 174.73,-21.08"/>
<polygon fill="#63b8ff" stroke="#63b8ff" points="193.69,-49.66 202.74,-55.17 199.1,-45.22 193.69,-49.66"/>
</a>
</g>
</g>
<!-- Node4 -->
<g id="Node000004" class="node">
<title>Node4</title>
<g id="a_Node000004"><a xlink:href="log_8c.html" target="_top" xlink:title=" ">
<polygon fill="white" stroke="#666666" points="295,-20.75 220.5,-20.75 220.5,0 295,0 295,-20.75"/>
<text xml:space="preserve" text-anchor="middle" x="257.75" y="-7.25" font-family="Helvetica,sans-Serif" font-size="10.00">source/log.c</text>
</a>
</g>
</g>
<!-- Node1&#45;&gt;Node4 -->
<g id="edge3_Node000001_Node000004" class="edge">
<title>Node1&#45;&gt;Node4</title>
<g id="a_edge3_Node000001_Node000004"><a xlink:title=" ">
<path fill="none" stroke="#63b8ff" d="M227.2,-47.74C234.7,-38.81 243.4,-28.45 249.6,-21.08"/>
<polygon fill="#63b8ff" stroke="#63b8ff" points="224.7,-45.27 220.95,-55.18 230.06,-49.77 224.7,-45.27"/>
</a>
</g>
</g>
<!-- Node5 -->
<g id="Node000005" class="node">
<title>Node5</title>
<g id="a_Node000005"><a xlink:href="motor__test_8c.html" target="_top" xlink:title=" ">
<polygon fill="white" stroke="#666666" points="426.12,-20.75 313.38,-20.75 313.38,0 426.12,0 426.12,-20.75"/>
<text xml:space="preserve" text-anchor="middle" x="369.75" y="-7.25" font-family="Helvetica,sans-Serif" font-size="10.00">source/motor_test.c</text>
</a>
</g>
</g>
<!-- Node1&#45;&gt;Node5 -->
<g id="edge4_Node000001_Node000005" class="edge">
<title>Node1&#45;&gt;Node5</title>
<g id="a_edge4_Node000001_Node000005"><a xlink:title=" ">
<path fill="none" stroke="#63b8ff" d="M250.66,-52.64C278.8,-42.89 316.16,-29.94 341.48,-21.17"/>
<polygon fill="#63b8ff" stroke="#63b8ff" points="249.73,-49.26 241.43,-55.84 252.02,-55.87 249.73,-49.26"/>
</a>
</g>
</g>
</g>
</svg>
