<?xml version="1.0" encoding="UTF-8" standalone="no"?>
<!DOCTYPE svg PUBLIC "-//W3C//DTD SVG 1.1//EN"
 "http://www.w3.org/Graphics/SVG/1.1/DTD/svg11.dtd">
<!-- Generated by graphviz version 14.1.5 (0)
 -->
<!-- Title: source/task_helpers/cmd_dispatch.h Pages: 1 -->
<svg width="980pt" height="111pt"
 viewBox="0.00 0.00 980.00 111.00" xmlns="http://www.w3.org/2000/svg" xmlns:xlink="http://www.w3.org/1999/xlink">
<g id="graph0" class="graph" transform="scale(1 1) rotate(0) translate(4 107)">
<title>source/task_helpers/cmd_dispatch.h</title>
<!-- Node1 -->
<g id="Node000001" class="node">
<title>Node1</title>
<g id="a_Node000001"><a xlink:title=" ">
<polygon fill="#999999" stroke="#666666" points="535.5,-103 422,-103 422,-69.5 535.5,-69.5 535.5,-103"/>
<text xml:space="preserve" text-anchor="start" x="430" y="-89.5" font-family="Helvetica,sans-Serif" font-size="10.00">source/task_helpers</text>
<text xml:space="preserve" text-anchor="middle" x="478.75" y="-76.75" font-family="Helvetica,sans-Serif" font-size="10.00">/cmd_dispatch.h</text>
</a>
</g>
</g>
<!-- Node2 -->
<g id="Node000002" class="node">
<title>Node2</title>
<g id="a_Node000002"><a xlink:href="tmc2209__process_8c.html" target="_top" xlink:title=" ">
<polygon fill="white" stroke="#666666" points="125.5,-33.5 0,-33.5 0,0 125.5,0 125.5,-33.5"/>
<text xml:space="preserve" text-anchor="start" x="8" y="-20" font-family="Helvetica,sans-Serif" font-size="10.00">source/driver/tmc2209</text>
<text xml:space="preserve" text-anchor="middle" x="62.75" y="-7.25" font-family="Helvetica,sans-Serif" font-size="10.00">/tmc2209_process.c</text>
</a>
</g>
</g>
<!-- Node1&#45;&gt;Node2 -->
<g id="edge1_Node000001_Node000002" class="edge">
<title>Node1&#45;&gt;Node2</title>
<g id="a_edge1_Node000001_Node000002"><a xlink:title=" ">
<path fill="none" stroke="#63b8ff" d="M410.42,-76.33C340.85,-66.92 229.97,-51.06 134.75,-33.5 131.86,-32.97 128.9,-32.4 125.92,-31.82"/>
<polygon fill="#63b8ff" stroke="#63b8ff" points="409.77,-79.77 420.15,-77.63 410.7,-72.83 409.77,-79.77"/>
</a>
</g>
</g>
<!-- Node3 -->
<g id="Node000003" class="node">
<title>Node3</title>
<g id="a_Node000003"><a xlink:href="motor__core_8c.html" target="_top" xlink:title=" ">
<polygon fill="white" stroke="#666666" points="261.75,-33.5 143.75,-33.5 143.75,0 261.75,0 261.75,-33.5"/>
<text xml:space="preserve" text-anchor="start" x="151.75" y="-20" font-family="Helvetica,sans-Serif" font-size="10.00">source/motion/motor</text>
<text xml:space="preserve" text-anchor="middle" x="202.75" y="-7.25" font-family="Helvetica,sans-Serif" font-size="10.00">/motor_core.c</text>
</a>
</g>
</g>
<!-- Node1&#45;&gt;Node3 -->
<g id="edge2_Node000001_Node000003" class="edge">
<title>Node1&#45;&gt;Node3</title>
<g id="a_edge2_Node000001_Node000003"><a xlink:title=" ">
<path fill="none" stroke="#63b8ff" d="M410.6,-68.58C365.1,-57.46 305.84,-42.96 262.25,-32.3"/>
<polygon fill="#63b8ff" stroke="#63b8ff" points="409.55,-71.93 420.09,-70.9 411.21,-65.13 409.55,-71.93"/>
</a>
</g>
</g>
<!-- Node4 -->
<g id="Node000004" class="node">
<title>Node4</title>
<g id="a_Node000004"><a xlink:href="motor__process_8c.html" target="_top" xlink:title=" ">
<polygon fill="white" stroke="#666666" points="397.75,-33.5 279.75,-33.5 279.75,0 397.75,0 397.75,-33.5"/>
<text xml:space="preserve" text-anchor="start" x="287.75" y="-20" font-family="Helvetica,sans-Serif" font-size="10.00">source/motion/motor</text>
<text xml:space="preserve" text-anchor="middle" x="338.75" y="-7.25" font-family="Helvetica,sans-Serif" font-size="10.00">/motor_process.c</text>
</a>
</g>
</g>
<!-- Node1&#45;&gt;Node4 -->
<g id="edge3_Node000001_Node000004" class="edge">
<title>Node1&#45;&gt;Node4</title>
<g id="a_edge3_Node000001_Node000004"><a xlink:title=" ">
<path fill="none" stroke="#63b8ff" d="M434.94,-64.13C414.61,-54.33 390.84,-42.86 372.01,-33.79"/>
<polygon fill="#63b8ff" stroke="#63b8ff" points="433.33,-67.23 443.85,-68.42 436.37,-60.93 433.33,-67.23"/>
</a>
</g>
</g>
<!-- Node5 -->
<g id="Node000005" class="node">
<title>Node5</title>
<g id="a_Node000005"><a xlink:href="step__process_8c.html" target="_top" xlink:title=" ">
<polygon fill="white" stroke="#666666" points="541.5,-33.5 416,-33.5 416,0 541.5,0 541.5,-33.5"/>
<text xml:space="preserve" text-anchor="start" x="424" y="-20" font-family="Helvetica,sans-Serif" font-size="10.00">source/motion/stepper</text>
<text xml:space="preserve" text-anchor="middle" x="478.75" y="-7.25" font-family="Helvetica,sans-Serif" font-size="10.00">/step_process.c</text>
</a>
</g>
</g>
<!-- Node1&#45;&gt;Node5 -->
<g id="edge4_Node000001_Node000005" class="edge">
<title>Node1&#45;&gt;Node5</title>
<g id="a_edge4_Node000001_Node000005"><a xlink:title=" ">
<path fill="none" stroke="#63b8ff" d="M478.75,-57.81C478.75,-49.59 478.75,-40.84 478.75,-33.63"/>
<polygon fill="#63b8ff" stroke="#63b8ff" points="475.25,-57.74 478.75,-67.74 482.25,-57.74 475.25,-57.74"/>
</a>
</g>
</g>
<!-- Node6 -->
<g id="Node000006" class="node">
<title>Node6</title>
<g id="a_Node000006"><a xlink:href="step__timing_8c.html" target="_top" xlink:title=" ">
<polygon fill="white" stroke="#666666" points="685.5,-33.5 560,-33.5 560,0 685.5,0 685.5,-33.5"/>
<text xml:space="preserve" text-anchor="start" x="568" y="-20" font-family="Helvetica,sans-Serif" font-size="10.00">source/motion/stepper</text>
<text xml:space="preserve" text-anchor="middle" x="622.75" y="-7.25" font-family="Helvetica,sans-Serif" font-size="10.00">/step_timing.c</text>
</a>
</g>
</g>
<!-- Node1&#45;&gt;Node6 -->
<g id="edge5_Node000001_Node000006" class="edge">
<title>Node1&#45;&gt;Node6</title>
<g id="a_edge5_Node000001_Node000006"><a xlink:title=" ">
<path fill="none" stroke="#63b8ff" d="M523.52,-64.26C544.5,-54.43 569.09,-42.91 588.54,-33.79"/>
<polygon fill="#63b8ff" stroke="#63b8ff" points="522.18,-61.03 514.61,-68.44 525.15,-67.36 522.18,-61.03"/>
</a>
</g>
</g>
<!-- Node7 -->
<g id="Node000007" class="node">
<title>Node7</title>
<g id="a_Node000007"><a xlink:href="scara__kinematics__process_8c.html" target="_top" xlink:title=" ">
<polygon fill="white" stroke="#666666" points="840.12,-33.5 703.38,-33.5 703.38,0 840.12,0 840.12,-33.5"/>
<text xml:space="preserve" text-anchor="start" x="711.38" y="-20" font-family="Helvetica,sans-Serif" font-size="10.00">source/scara_kinematics</text>
<text xml:space="preserve" text-anchor="middle" x="771.75" y="-7.25" font-family="Helvetica,sans-Serif" font-size="10.00">_process.c</text>
</a>
</g>
</g>
<!-- Node1&#45;&gt;Node7 -->
<g id="edge6_Node000001_Node000007" class="edge">
<title>Node1&#45;&gt;Node7</title>
<g id="a_edge6_Node000001_Node000007"><a xlink:title=" ">
<path fill="none" stroke="#63b8ff" d="M546.92,-69.54C593.88,-58.73 656.05,-44.4 703.11,-33.56"/>
<polygon fill="#63b8ff" stroke="#63b8ff" points="546.37,-66.08 537.41,-71.74 547.94,-72.9 546.37,-66.08"/>
</a>
</g>
</g>
<!-- Node8 -->
<g id="Node000008" class="node">
<title>Node8</title>
<g id="a_Node000008"><a xlink:href="cmd__dispatch_8c.html" target="_top" xlink:title=" ">
<polygon fill="white" stroke="#666666" points="971.5,-33.5 858,-33.5 858,0 971.5,0 971.5,-33.5"/>
<text xml:space="preserve" text-anchor="start" x="866" y="-20" font-family="Helvetica,sans-Serif" font-size="10.00">source/task_helpers</text>
<text xml:space="preserve" text-anchor="middle" x="914.75" y="-7.25" font-family="Helvetica,sans-Serif" font-size="10.00">/cmd_dispatch.c</text>
</a>
</g>
</g>
<!-- Node1&#45;&gt;Node8 -->
<g id="edge7_Node000001_Node000008" class="edge">
<title>Node1&#45;&gt;Node8</title>
<g id="a_edge7_Node000001_Node000008"><a xlink:title=" ">
<path fill="none" stroke="#63b8ff" d="M546.83,-77.7C621.3,-68.98 744.02,-53.27 848.75,-33.5 851.64,-32.95 854.6,-32.36 857.58,-31.74"/>
<polygon fill="#63b8ff" stroke="#63b8ff" points="546.79,-74.18 537.26,-78.81 547.6,-81.13 546.79,-74.18"/>
</a>
</g>
</g>
</g>
</svg>
