<?xml version="1.0" encoding="UTF-8" standalone="no"?>
<!DOCTYPE svg PUBLIC "-//W3C//DTD SVG 1.1//EN"
 "http://www.w3.org/Graphics/SVG/1.1/DTD/svg11.dtd">
<!-- Generated by graphviz version 14.1.4 (0)
 -->
<!-- Title: source/task_helpers/cmd_dispatch.h Pages: 1 -->
<svg width="432pt" height="155pt"
 viewBox="0.00 0.00 432.00 155.00" xmlns="http://www.w3.org/2000/svg" xmlns:xlink="http://www.w3.org/1999/xlink">

<svg id="main" version="1.1" xmlns="http://www.w3.org/2000/svg" xmlns:xlink="http://www.w3.org/1999/xlink" xml:space="preserve">

<style type="text/css"><![CDATA[
.node, .edge {opacity: 0.7;}
.node.selected, .edge.selected {opacity: 1;}
.edge:hover path { stroke: red; }
.edge:hover polygon { stroke: red; fill: red; }
]]></style>
<script type="application/ecmascript" xlink:href="svg.min.js"/>
<svg id="graph" class="graph">
<g id="graph0" class="graph" transform="scale(1 1) rotate(0) translate(4 151)">
<title>source/task_helpers/cmd_dispatch.h</title>
<!-- Node1 -->
<g id="Node000001" class="node">
<title>Node1</title>
<g id="a_Node000001"><a xlink:title=" ">
<polygon fill="#999999" stroke="#666666" points="198.12,-147 84.62,-147 84.62,-113.5 198.12,-113.5 198.12,-147"/>
<text xml:space="preserve" text-anchor="start" x="92.62" y="-133.5" font-family="Helvetica,sans-Serif" font-size="10.00">source/task_helpers</text>
<text xml:space="preserve" text-anchor="middle" x="141.38" y="-120.75" font-family="Helvetica,sans-Serif" font-size="10.00">/cmd_dispatch.h</text>
</a>
</g>
</g>
<!-- Node2 -->
<g id="Node000002" class="node">
<title>Node2</title>
<g id="a_Node000002"><a xlink:title=" ">
<polygon fill="#e0e0e0" stroke="#999999" points="52.75,-20.75 0,-20.75 0,0 52.75,0 52.75,-20.75"/>
<text xml:space="preserve" text-anchor="middle" x="26.38" y="-7.25" font-family="Helvetica,sans-Serif" font-size="10.00">stdint.h</text>
</a>
</g>
</g>
<!-- Node1&#45;&gt;Node2 -->
<g id="edge1_Node000001_Node000002" class="edge">
<title>Node1&#45;&gt;Node2</title>
<g id="a_edge1_Node000001_Node000002"><a xlink:title=" ">
<path fill="none" stroke="#63b8ff" d="M125.87,-113.35C104.54,-91.49 66.27,-52.27 43.92,-29.36"/>
<polygon fill="#63b8ff" stroke="#63b8ff" points="46.49,-26.98 37,-22.27 41.48,-31.87 46.49,-26.98"/>
</a>
</g>
</g>
<!-- Node3 -->
<g id="Node000003" class="node">
<title>Node3</title>
<g id="a_Node000003"><a xlink:title=" ">
<polygon fill="#e0e0e0" stroke="#999999" points="142.12,-20.75 70.62,-20.75 70.62,0 142.12,0 142.12,-20.75"/>
<text xml:space="preserve" text-anchor="middle" x="106.38" y="-7.25" font-family="Helvetica,sans-Serif" font-size="10.00">FreeRTOS.h</text>
</a>
</g>
</g>
<!-- Node1&#45;&gt;Node3 -->
<g id="edge2_Node000001_Node000003" class="edge">
<title>Node1&#45;&gt;Node3</title>
<g id="a_edge2_Node000001_Node000003"><a xlink:title=" ">
<path fill="none" stroke="#63b8ff" d="M136.39,-113.42C133.19,-103.19 128.98,-89.58 125.38,-77.5 120.82,-62.23 115.86,-44.93 112.14,-31.85"/>
<polygon fill="#63b8ff" stroke="#63b8ff" points="115.52,-30.94 109.43,-22.27 108.79,-32.84 115.52,-30.94"/>
</a>
</g>
</g>
<!-- Node4 -->
<g id="Node000004" class="node">
<title>Node4</title>
<g id="a_Node000004"><a xlink:title=" ">
<polygon fill="#e0e0e0" stroke="#999999" points="291.88,-77.5 236.88,-77.5 236.88,-56.75 291.88,-56.75 291.88,-77.5"/>
<text xml:space="preserve" text-anchor="middle" x="264.38" y="-64" font-family="Helvetica,sans-Serif" font-size="10.00">queue.h</text>
</a>
</g>
</g>
<!-- Node1&#45;&gt;Node4 -->
<g id="edge3_Node000001_Node000004" class="edge">
<title>Node1&#45;&gt;Node4</title>
<g id="a_edge3_Node000001_Node000004"><a xlink:title=" ">
<path fill="none" stroke="#63b8ff" d="M174.01,-113.03C192.81,-103.69 216.27,-92.03 234.57,-82.94"/>
<polygon fill="#63b8ff" stroke="#63b8ff" points="235.92,-86.17 243.32,-78.59 232.81,-79.9 235.92,-86.17"/>
</a>
</g>
</g>
<!-- Node5 -->
<g id="Node000005" class="node">
<title>Node5</title>
<g id="a_Node000005"><a xlink:href="cmd__handle_8h.html" target="_top" xlink:title=" ">
<polygon fill="white" stroke="#666666" points="218.5,-77.5 134.25,-77.5 134.25,-56.75 218.5,-56.75 218.5,-77.5"/>
<text xml:space="preserve" text-anchor="middle" x="176.38" y="-64" font-family="Helvetica,sans-Serif" font-size="10.00">cmd_handle.h</text>
</a>
</g>
</g>
<!-- Node1&#45;&gt;Node5 -->
<g id="edge4_Node000001_Node000005" class="edge">
<title>Node1&#45;&gt;Node5</title>
<g id="a_edge4_Node000001_Node000005"><a xlink:title=" ">
<path fill="none" stroke="#63b8ff" d="M150.57,-113.19C155.02,-105.42 160.4,-96.02 165.1,-87.82"/>
<polygon fill="#63b8ff" stroke="#63b8ff" points="168.06,-89.7 169.99,-79.28 161.98,-86.22 168.06,-89.7"/>
</a>
</g>
</g>
<!-- Node5&#45;&gt;Node2 -->
<g id="edge5_Node000005_Node000002" class="edge">
<title>Node5&#45;&gt;Node2</title>
<g id="a_edge5_Node000005_Node000002"><a xlink:title=" ">
<path fill="none" stroke="#63b8ff" d="M149.56,-56.34C125.64,-47.61 90.37,-34.73 63.7,-25"/>
<polygon fill="#63b8ff" stroke="#63b8ff" points="65.23,-21.83 54.63,-21.69 62.83,-28.41 65.23,-21.83"/>
</a>
</g>
</g>
<!-- Node5&#45;&gt;Node3 -->
<g id="edge6_Node000005_Node000003" class="edge">
<title>Node5&#45;&gt;Node3</title>
<g id="a_edge6_Node000005_Node000003"><a xlink:title=" ">
<path fill="none" stroke="#63b8ff" d="M163.86,-56.34C153.81,-48.47 139.46,-37.25 127.62,-27.99"/>
<polygon fill="#63b8ff" stroke="#63b8ff" points="130.01,-25.41 119.97,-22.01 125.69,-30.93 130.01,-25.41"/>
</a>
</g>
</g>
<!-- Node6 -->
<g id="Node000006" class="node">
<title>Node6</title>
<g id="a_Node000006"><a xlink:title=" ">
<polygon fill="#e0e0e0" stroke="#999999" points="250.88,-20.75 159.88,-20.75 159.88,0 250.88,0 250.88,-20.75"/>
<text xml:space="preserve" text-anchor="middle" x="205.38" y="-7.25" font-family="Helvetica,sans-Serif" font-size="10.00">event_groups.h</text>
</a>
</g>
</g>
<!-- Node5&#45;&gt;Node6 -->
<g id="edge7_Node000005_Node000006" class="edge">
<title>Node5&#45;&gt;Node6</title>
<g id="a_edge7_Node000005_Node000006"><a xlink:title=" ">
<path fill="none" stroke="#63b8ff" d="M181.56,-56.34C185.27,-49.33 190.39,-39.66 194.94,-31.08"/>
<polygon fill="#63b8ff" stroke="#63b8ff" points="197.94,-32.89 199.53,-22.42 191.75,-29.61 197.94,-32.89"/>
</a>
</g>
</g>
<!-- Node7 -->
<g id="Node000007" class="node">
<title>Node7</title>
<g id="a_Node000007"><a xlink:title=" ">
<polygon fill="#e0e0e0" stroke="#999999" points="353.88,-20.75 268.88,-20.75 268.88,0 353.88,0 353.88,-20.75"/>
<text xml:space="preserve" text-anchor="middle" x="311.38" y="-7.25" font-family="Helvetica,sans-Serif" font-size="10.00">fsl_common.h</text>
</a>
</g>
</g>
<!-- Node5&#45;&gt;Node7 -->
<g id="edge8_Node000005_Node000007" class="edge">
<title>Node5&#45;&gt;Node7</title>
<g id="a_edge8_Node000005_Node000007"><a xlink:title=" ">
<path fill="none" stroke="#63b8ff" d="M200.51,-56.34C221.82,-47.69 253.13,-35 277.04,-25.3"/>
<polygon fill="#63b8ff" stroke="#63b8ff" points="278.09,-28.65 286.05,-21.65 275.46,-22.16 278.09,-28.65"/>
</a>
</g>
</g>
<!-- Node8 -->
<g id="Node000008" class="node">
<title>Node8</title>
<g id="a_Node000008"><a xlink:title=" ">
<polygon fill="#e0e0e0" stroke="#999999" points="424.38,-20.75 372.38,-20.75 372.38,0 424.38,0 424.38,-20.75"/>
<text xml:space="preserve" text-anchor="middle" x="398.38" y="-7.25" font-family="Helvetica,sans-Serif" font-size="10.00">stdlib.h</text>
</a>
</g>
</g>
<!-- Node5&#45;&gt;Node8 -->
<g id="edge9_Node000005_Node000008" class="edge">
<title>Node5&#45;&gt;Node8</title>
<g id="a_edge9_Node000005_Node000008"><a xlink:title=" ">
<path fill="none" stroke="#63b8ff" d="M218.04,-56.31C253.61,-47.87 306.41,-35.18 361.07,-21.3"/>
<polygon fill="#63b8ff" stroke="#63b8ff" points="361.73,-24.74 370.55,-18.88 360,-17.96 361.73,-24.74"/>
</a>
</g>
</g>
</g>
</svg>
</svg>

<style type='text/css'>
<![CDATA[
[data-mouse-over-selected='false'] { opacity: 0.7; }
[data-mouse-over-selected='true']  { opacity: 1.0; }
]]>
</style>
<script type="application/ecmascript"><![CDATA[
document.addEventListener('DOMContentLoaded', (event) => {
  highlightEdges();
  highlightAdjacentNodes();
});
]]></script>
</svg>
