<?xml version="1.0" encoding="UTF-8" standalone="no"?>
<!DOCTYPE svg PUBLIC "-//W3C//DTD SVG 1.1//EN"
 "http://www.w3.org/Graphics/SVG/1.1/DTD/svg11.dtd">
<!-- Generated by graphviz version 14.1.5 (0)
 -->
<!-- Title: source/task_helpers/cmd_dispatch.c Pages: 1 -->
<svg width="452pt" height="212pt"
 viewBox="0.00 0.00 452.00 212.00" xmlns="http://www.w3.org/2000/svg" xmlns:xlink="http://www.w3.org/1999/xlink">

<svg id="main" version="1.1" xmlns="http://www.w3.org/2000/svg" xmlns:xlink="http://www.w3.org/1999/xlink" xml:space="preserve">

<style type="text/css"><![CDATA[
.node, .edge {opacity: 0.7;}
.node.selected, .edge.selected {opacity: 1;}
.edge:hover path { stroke: red; }
.edge:hover polygon { stroke: red; fill: red; }
]]></style>
<script type="application/ecmascript" xlink:href="svg.min.js"/>
<svg id="graph" class="graph">
<g id="graph0" class="graph" transform="scale(1 1) rotate(0) translate(4 207.75)">
<title>source/task_helpers/cmd_dispatch.c</title>
<!-- Node1 -->
<g id="Node000001" class="node">
<title>Node1</title>
<g id="a_Node000001"><a xlink:title=" ">
<polygon fill="#999999" stroke="#666666" points="189.25,-203.75 75.75,-203.75 75.75,-170.25 189.25,-170.25 189.25,-203.75"/>
<text xml:space="preserve" text-anchor="start" x="83.75" y="-190.25" font-family="Helvetica,sans-Serif" font-size="10.00">source/task_helpers</text>
<text xml:space="preserve" text-anchor="middle" x="132.5" y="-177.5" font-family="Helvetica,sans-Serif" font-size="10.00">/cmd_dispatch.c</text>
</a>
</g>
</g>
<!-- Node2 -->
<g id="Node000002" class="node">
<title>Node2</title>
<g id="a_Node000002"><a xlink:href="log_8h.html" target="_top" xlink:title=" ">
<polygon fill="white" stroke="#666666" points="109,-77.5 0,-77.5 0,-56.75 109,-56.75 109,-77.5"/>
<text xml:space="preserve" text-anchor="middle" x="54.5" y="-64" font-family="Helvetica,sans-Serif" font-size="10.00">infrastructure/log.h</text>
</a>
</g>
</g>
<!-- Node1&#45;&gt;Node2 -->
<g id="edge1_Node000001_Node000002" class="edge">
<title>Node1&#45;&gt;Node2</title>
<g id="a_edge1_Node000001_Node000002"><a xlink:title=" ">
<path fill="none" stroke="#63b8ff" d="M121.98,-170.1C107.77,-148.63 82.48,-110.4 67.22,-87.35"/>
<polygon fill="#63b8ff" stroke="#63b8ff" points="70.26,-85.6 61.83,-79.2 64.42,-89.47 70.26,-85.6"/>
</a>
</g>
</g>
<!-- Node5 -->
<g id="Node000005" class="node">
<title>Node5</title>
<g id="a_Node000005"><a xlink:href="cmd__dispatch_8h.html" target="_top" xlink:title=" ">
<polygon fill="white" stroke="#666666" points="256.75,-134.25 164.25,-134.25 164.25,-113.5 256.75,-113.5 256.75,-134.25"/>
<text xml:space="preserve" text-anchor="middle" x="210.5" y="-120.75" font-family="Helvetica,sans-Serif" font-size="10.00">cmd_dispatch.h</text>
</a>
</g>
</g>
<!-- Node1&#45;&gt;Node5 -->
<g id="edge4_Node000001_Node000005" class="edge">
<title>Node1&#45;&gt;Node5</title>
<g id="a_edge4_Node000001_Node000005"><a xlink:title=" ">
<path fill="none" stroke="#63b8ff" d="M152.99,-169.94C164.14,-161.21 177.9,-150.42 189.17,-141.59"/>
<polygon fill="#63b8ff" stroke="#63b8ff" points="191.04,-144.57 196.75,-135.65 186.72,-139.06 191.04,-144.57"/>
</a>
</g>
</g>
<!-- Node3 -->
<g id="Node000003" class="node">
<title>Node3</title>
<g id="a_Node000003"><a xlink:title=" ">
<polygon fill="#e0e0e0" stroke="#999999" points="90.25,-20.75 18.75,-20.75 18.75,0 90.25,0 90.25,-20.75"/>
<text xml:space="preserve" text-anchor="middle" x="54.5" y="-7.25" font-family="Helvetica,sans-Serif" font-size="10.00">FreeRTOS.h</text>
</a>
</g>
</g>
<!-- Node2&#45;&gt;Node3 -->
<g id="edge2_Node000002_Node000003" class="edge">
<title>Node2&#45;&gt;Node3</title>
<g id="a_edge2_Node000002_Node000003"><a xlink:title=" ">
<path fill="none" stroke="#63b8ff" d="M54.5,-56.34C54.5,-49.72 54.5,-40.72 54.5,-32.52"/>
<polygon fill="#63b8ff" stroke="#63b8ff" points="58,-32.59 54.5,-22.59 51,-32.59 58,-32.59"/>
</a>
</g>
</g>
<!-- Node4 -->
<g id="Node000004" class="node">
<title>Node4</title>
<g id="a_Node000004"><a xlink:title=" ">
<polygon fill="#e0e0e0" stroke="#999999" points="193,-20.75 108,-20.75 108,0 193,0 193,-20.75"/>
<text xml:space="preserve" text-anchor="middle" x="150.5" y="-7.25" font-family="Helvetica,sans-Serif" font-size="10.00">fsl_common.h</text>
</a>
</g>
</g>
<!-- Node2&#45;&gt;Node4 -->
<g id="edge3_Node000002_Node000004" class="edge">
<title>Node2&#45;&gt;Node4</title>
<g id="a_edge3_Node000002_Node000004"><a xlink:title=" ">
<path fill="none" stroke="#63b8ff" d="M71.66,-56.34C86.13,-48.08 107.09,-36.13 123.76,-26.63"/>
<polygon fill="#63b8ff" stroke="#63b8ff" points="125.22,-29.82 132.17,-21.83 121.75,-23.74 125.22,-29.82"/>
</a>
</g>
</g>
<!-- Node5&#45;&gt;Node3 -->
<g id="edge6_Node000005_Node000003" class="edge">
<title>Node5&#45;&gt;Node3</title>
<g id="a_edge6_Node000005_Node000003"><a xlink:title=" ">
<path fill="none" stroke="#63b8ff" d="M210.43,-113.42C209.81,-99.23 206.56,-72.43 191.5,-56.75 178.81,-43.54 135.94,-30.62 101.5,-21.97"/>
<polygon fill="#63b8ff" stroke="#63b8ff" points="102.68,-18.66 92.13,-19.68 101.01,-25.45 102.68,-18.66"/>
</a>
</g>
</g>
<!-- Node6 -->
<g id="Node000006" class="node">
<title>Node6</title>
<g id="a_Node000006"><a xlink:title=" ">
<polygon fill="#e0e0e0" stroke="#999999" points="443.88,-20.75 391.12,-20.75 391.12,0 443.88,0 443.88,-20.75"/>
<text xml:space="preserve" text-anchor="middle" x="417.5" y="-7.25" font-family="Helvetica,sans-Serif" font-size="10.00">stdint.h</text>
</a>
</g>
</g>
<!-- Node5&#45;&gt;Node6 -->
<g id="edge5_Node000005_Node000006" class="edge">
<title>Node5&#45;&gt;Node6</title>
<g id="a_edge5_Node000005_Node000006"><a xlink:title=" ">
<path fill="none" stroke="#63b8ff" d="M244.81,-113.02C269.71,-105.15 303.75,-92.92 331.5,-77.5 356.5,-63.61 382.11,-42.93 398.8,-28.4"/>
<polygon fill="#63b8ff" stroke="#63b8ff" points="400.8,-31.3 405.96,-22.05 396.16,-26.06 400.8,-31.3"/>
</a>
</g>
</g>
<!-- Node7 -->
<g id="Node000007" class="node">
<title>Node7</title>
<g id="a_Node000007"><a xlink:title=" ">
<polygon fill="#e0e0e0" stroke="#999999" points="182,-77.5 127,-77.5 127,-56.75 182,-56.75 182,-77.5"/>
<text xml:space="preserve" text-anchor="middle" x="154.5" y="-64" font-family="Helvetica,sans-Serif" font-size="10.00">queue.h</text>
</a>
</g>
</g>
<!-- Node5&#45;&gt;Node7 -->
<g id="edge7_Node000005_Node000007" class="edge">
<title>Node5&#45;&gt;Node7</title>
<g id="a_edge7_Node000005_Node000007"><a xlink:title=" ">
<path fill="none" stroke="#63b8ff" d="M200.49,-113.09C192.76,-105.53 181.87,-94.89 172.63,-85.85"/>
<polygon fill="#63b8ff" stroke="#63b8ff" points="175.1,-83.37 165.51,-78.89 170.21,-88.38 175.1,-83.37"/>
</a>
</g>
</g>
<!-- Node8 -->
<g id="Node000008" class="node">
<title>Node8</title>
<g id="a_Node000008"><a xlink:href="cmd__handle_8h.html" target="_top" xlink:title=" ">
<polygon fill="white" stroke="#666666" points="322.62,-77.5 238.38,-77.5 238.38,-56.75 322.62,-56.75 322.62,-77.5"/>
<text xml:space="preserve" text-anchor="middle" x="280.5" y="-64" font-family="Helvetica,sans-Serif" font-size="10.00">cmd_handle.h</text>
</a>
</g>
</g>
<!-- Node5&#45;&gt;Node8 -->
<g id="edge8_Node000005_Node000008" class="edge">
<title>Node5&#45;&gt;Node8</title>
<g id="a_edge8_Node000005_Node000008"><a xlink:title=" ">
<path fill="none" stroke="#63b8ff" d="M223.01,-113.09C233.07,-105.22 247.41,-94 259.26,-84.74"/>
<polygon fill="#63b8ff" stroke="#63b8ff" points="261.18,-87.68 266.9,-78.76 256.87,-82.16 261.18,-87.68"/>
</a>
</g>
</g>
<!-- Node8&#45;&gt;Node3 -->
<g id="edge10_Node000008_Node000003" class="edge">
<title>Node8&#45;&gt;Node3</title>
<g id="a_edge10_Node000008_Node000003"><a xlink:title=" ">
<path fill="none" stroke="#63b8ff" d="M239.83,-56.27C201.04,-46.87 142.61,-32.72 101.76,-22.82"/>
<polygon fill="#63b8ff" stroke="#63b8ff" points="102.75,-19.46 92.21,-20.51 101.1,-26.27 102.75,-19.46"/>
</a>
</g>
</g>
<!-- Node8&#45;&gt;Node4 -->
<g id="edge12_Node000008_Node000004" class="edge">
<title>Node8&#45;&gt;Node4</title>
<g id="a_edge12_Node000008_Node000004"><a xlink:title=" ">
<path fill="none" stroke="#63b8ff" d="M257.26,-56.34C236.83,-47.73 206.86,-35.11 183.87,-25.43"/>
<polygon fill="#63b8ff" stroke="#63b8ff" points="185.51,-22.32 174.94,-21.67 182.79,-28.77 185.51,-22.32"/>
</a>
</g>
</g>
<!-- Node8&#45;&gt;Node6 -->
<g id="edge9_Node000008_Node000006" class="edge">
<title>Node8&#45;&gt;Node6</title>
<g id="a_edge9_Node000008_Node000006"><a xlink:title=" ">
<path fill="none" stroke="#63b8ff" d="M304.99,-56.34C326.62,-47.69 358.39,-35 382.66,-25.3"/>
<polygon fill="#63b8ff" stroke="#63b8ff" points="383.83,-28.6 391.81,-21.64 381.23,-22.1 383.83,-28.6"/>
</a>
</g>
</g>
<!-- Node9 -->
<g id="Node000009" class="node">
<title>Node9</title>
<g id="a_Node000009"><a xlink:title=" ">
<polygon fill="#e0e0e0" stroke="#999999" points="373,-20.75 282,-20.75 282,0 373,0 373,-20.75"/>
<text xml:space="preserve" text-anchor="middle" x="327.5" y="-7.25" font-family="Helvetica,sans-Serif" font-size="10.00">event_groups.h</text>
</a>
</g>
</g>
<!-- Node8&#45;&gt;Node9 -->
<g id="edge11_Node000008_Node000009" class="edge">
<title>Node8&#45;&gt;Node9</title>
<g id="a_edge11_Node000008_Node000009"><a xlink:title=" ">
<path fill="none" stroke="#63b8ff" d="M288.9,-56.34C295.25,-48.94 304.15,-38.57 311.8,-29.66"/>
<polygon fill="#63b8ff" stroke="#63b8ff" points="314.33,-32.09 318.18,-22.23 309.01,-27.53 314.33,-32.09"/>
</a>
</g>
</g>
<!-- Node10 -->
<g id="Node000010" class="node">
<title>Node10</title>
<g id="a_Node000010"><a xlink:title=" ">
<polygon fill="#e0e0e0" stroke="#999999" points="263.5,-20.75 211.5,-20.75 211.5,0 263.5,0 263.5,-20.75"/>
<text xml:space="preserve" text-anchor="middle" x="237.5" y="-7.25" font-family="Helvetica,sans-Serif" font-size="10.00">stdlib.h</text>
</a>
</g>
</g>
<!-- Node8&#45;&gt;Node10 -->
<g id="edge13_Node000008_Node000010" class="edge">
<title>Node8&#45;&gt;Node10</title>
<g id="a_edge13_Node000008_Node000010"><a xlink:title=" ">
<path fill="none" stroke="#63b8ff" d="M272.81,-56.34C267.06,-49.02 259.03,-38.79 252.08,-29.94"/>
<polygon fill="#63b8ff" stroke="#63b8ff" points="254.99,-27.97 246.06,-22.27 249.48,-32.3 254.99,-27.97"/>
</a>
</g>
</g>
</g>
</svg>
</svg>

<style type='text/css'>
<![CDATA[
[data-mouse-over-selected='false'] { opacity: 0.7; }
[data-mouse-over-selected='true']  { opacity: 1.0; }
]]>
</style>
<script type="application/ecmascript"><![CDATA[
document.addEventListener('DOMContentLoaded', (event) => {
  highlightEdges();
  highlightAdjacentNodes();
});
]]></script>
</svg>
