<?xml version="1.0" encoding="UTF-8" standalone="no"?>
<!DOCTYPE svg PUBLIC "-//W3C//DTD SVG 1.1//EN"
 "http://www.w3.org/Graphics/SVG/1.1/DTD/svg11.dtd">
<!-- Generated by graphviz version 14.1.5 (0)
 -->
<!-- Title: source/task_helpers/cmd_dispatch.h Pages: 1 -->
<svg width="1008pt" height="124pt"
 viewBox="0.00 0.00 1008.00 124.00" xmlns="http://www.w3.org/2000/svg" xmlns:xlink="http://www.w3.org/1999/xlink">
<g id="graph0" class="graph" transform="scale(1 1) rotate(0) translate(4 119.75)">
<title>source/task_helpers/cmd_dispatch.h</title>
<!-- Node1 -->
<g id="Node000001" class="node">
<title>Node1</title>
<g id="a_Node000001"><a xlink:title=" ">
<polygon fill="#999999" stroke="#666666" points="554.5,-115.75 441,-115.75 441,-82.25 554.5,-82.25 554.5,-115.75"/>
<text xml:space="preserve" text-anchor="start" x="449" y="-102.25" font-family="Helvetica,sans-Serif" font-size="10.00">source/task_helpers</text>
<text xml:space="preserve" text-anchor="middle" x="497.75" y="-89.5" font-family="Helvetica,sans-Serif" font-size="10.00">/cmd_dispatch.h</text>
</a>
</g>
</g>
<!-- Node2 -->
<g id="Node000002" class="node">
<title>Node2</title>
<g id="a_Node000002"><a xlink:href="tmc2209__process_8c.html" target="_top" xlink:title=" ">
<polygon fill="white" stroke="#666666" points="125.5,-39.88 0,-39.88 0,-6.38 125.5,-6.38 125.5,-39.88"/>
<text xml:space="preserve" text-anchor="start" x="8" y="-26.38" font-family="Helvetica,sans-Serif" font-size="10.00">source/driver/tmc2209</text>
<text xml:space="preserve" text-anchor="middle" x="62.75" y="-13.62" font-family="Helvetica,sans-Serif" font-size="10.00">/tmc2209_process.c</text>
</a>
</g>
</g>
<!-- Node1&#45;&gt;Node2 -->
<g id="edge1_Node000001_Node000002" class="edge">
<title>Node1&#45;&gt;Node2</title>
<g id="a_edge1_Node000001_Node000002"><a xlink:title=" ">
<path fill="none" stroke="#63b8ff" d="M429.29,-91.47C355.88,-83.72 236.18,-68.92 134.75,-46.25 127.22,-44.57 119.34,-42.48 111.66,-40.28"/>
<polygon fill="#63b8ff" stroke="#63b8ff" points="428.85,-94.94 439.16,-92.5 429.57,-87.98 428.85,-94.94"/>
</a>
</g>
</g>
<!-- Node3 -->
<g id="Node000003" class="node">
<title>Node3</title>
<g id="a_Node000003"><a xlink:href="motor__core_8c.html" target="_top" xlink:title=" ">
<polygon fill="white" stroke="#666666" points="261.75,-39.88 143.75,-39.88 143.75,-6.38 261.75,-6.38 261.75,-39.88"/>
<text xml:space="preserve" text-anchor="start" x="151.75" y="-26.38" font-family="Helvetica,sans-Serif" font-size="10.00">source/motion/motor</text>
<text xml:space="preserve" text-anchor="middle" x="202.75" y="-13.62" font-family="Helvetica,sans-Serif" font-size="10.00">/motor_core.c</text>
</a>
</g>
</g>
<!-- Node1&#45;&gt;Node3 -->
<g id="edge2_Node000001_Node000003" class="edge">
<title>Node1&#45;&gt;Node3</title>
<g id="a_edge2_Node000001_Node000003"><a xlink:title=" ">
<path fill="none" stroke="#63b8ff" d="M429.78,-84.19C384.47,-74.56 323.73,-60.88 270.75,-46.25 264.17,-44.43 257.28,-42.38 250.51,-40.26"/>
<polygon fill="#63b8ff" stroke="#63b8ff" points="428.97,-87.59 439.48,-86.23 430.41,-80.74 428.97,-87.59"/>
</a>
</g>
</g>
<!-- Node4 -->
<g id="Node000004" class="node">
<title>Node4</title>
<g id="a_Node000004"><a xlink:href="motor__process_8c.html" target="_top" xlink:title=" ">
<polygon fill="white" stroke="#666666" points="397.75,-39.88 279.75,-39.88 279.75,-6.38 397.75,-6.38 397.75,-39.88"/>
<text xml:space="preserve" text-anchor="start" x="287.75" y="-26.38" font-family="Helvetica,sans-Serif" font-size="10.00">source/motion/motor</text>
<text xml:space="preserve" text-anchor="middle" x="338.75" y="-13.62" font-family="Helvetica,sans-Serif" font-size="10.00">/motor_process.c</text>
</a>
</g>
</g>
<!-- Node1&#45;&gt;Node4 -->
<g id="edge3_Node000001_Node000004" class="edge">
<title>Node1&#45;&gt;Node4</title>
<g id="a_edge3_Node000001_Node000004"><a xlink:title=" ">
<path fill="none" stroke="#63b8ff" d="M452.5,-76.97C427.43,-65.33 396.74,-51.07 373.56,-40.3"/>
<polygon fill="#63b8ff" stroke="#63b8ff" points="450.94,-80.11 461.48,-81.15 453.89,-73.76 450.94,-80.11"/>
</a>
</g>
</g>
<!-- Node5 -->
<g id="Node000005" class="node">
<title>Node5</title>
<g id="a_Node000005"><a xlink:href="scara__kinematics__process_8c.html" target="_top" xlink:title=" ">
<polygon fill="white" stroke="#666666" points="579.62,-46.25 415.88,-46.25 415.88,0 579.62,0 579.62,-46.25"/>
<text xml:space="preserve" text-anchor="start" x="423.88" y="-32.75" font-family="Helvetica,sans-Serif" font-size="10.00">source/motion/scara</text>
<text xml:space="preserve" text-anchor="start" x="423.88" y="-20" font-family="Helvetica,sans-Serif" font-size="10.00">_kinematics/scara_kinematics</text>
<text xml:space="preserve" text-anchor="middle" x="497.75" y="-7.25" font-family="Helvetica,sans-Serif" font-size="10.00">_process.c</text>
</a>
</g>
</g>
<!-- Node1&#45;&gt;Node5 -->
<g id="edge4_Node000001_Node000005" class="edge">
<title>Node1&#45;&gt;Node5</title>
<g id="a_edge4_Node000001_Node000005"><a xlink:title=" ">
<path fill="none" stroke="#63b8ff" d="M497.75,-70.64C497.75,-62.71 497.75,-54.16 497.75,-46.57"/>
<polygon fill="#63b8ff" stroke="#63b8ff" points="494.25,-70.46 497.75,-80.46 501.25,-70.46 494.25,-70.46"/>
</a>
</g>
</g>
<!-- Node6 -->
<g id="Node000006" class="node">
<title>Node6</title>
<g id="a_Node000006"><a xlink:href="step__process_8c.html" target="_top" xlink:title=" ">
<polygon fill="white" stroke="#666666" points="723.5,-39.88 598,-39.88 598,-6.38 723.5,-6.38 723.5,-39.88"/>
<text xml:space="preserve" text-anchor="start" x="606" y="-26.38" font-family="Helvetica,sans-Serif" font-size="10.00">source/motion/stepper</text>
<text xml:space="preserve" text-anchor="middle" x="660.75" y="-13.62" font-family="Helvetica,sans-Serif" font-size="10.00">/step_process.c</text>
</a>
</g>
</g>
<!-- Node1&#45;&gt;Node6 -->
<g id="edge5_Node000001_Node000006" class="edge">
<title>Node1&#45;&gt;Node6</title>
<g id="a_edge5_Node000001_Node000006"><a xlink:title=" ">
<path fill="none" stroke="#63b8ff" d="M543.8,-77.13C569.56,-65.45 601.19,-51.12 625.06,-40.3"/>
<polygon fill="#63b8ff" stroke="#63b8ff" points="542.56,-73.85 534.9,-81.16 545.45,-80.22 542.56,-73.85"/>
</a>
</g>
</g>
<!-- Node7 -->
<g id="Node000007" class="node">
<title>Node7</title>
<g id="a_Node000007"><a xlink:href="step__timing_8c.html" target="_top" xlink:title=" ">
<polygon fill="white" stroke="#666666" points="867.5,-39.88 742,-39.88 742,-6.38 867.5,-6.38 867.5,-39.88"/>
<text xml:space="preserve" text-anchor="start" x="750" y="-26.38" font-family="Helvetica,sans-Serif" font-size="10.00">source/motion/stepper</text>
<text xml:space="preserve" text-anchor="middle" x="804.75" y="-13.62" font-family="Helvetica,sans-Serif" font-size="10.00">/step_timing.c</text>
</a>
</g>
</g>
<!-- Node1&#45;&gt;Node7 -->
<g id="edge6_Node000001_Node000007" class="edge">
<title>Node1&#45;&gt;Node7</title>
<g id="a_edge6_Node000001_Node000007"><a xlink:title=" ">
<path fill="none" stroke="#63b8ff" d="M565.56,-84.59C612.69,-74.9 676.84,-60.97 732.75,-46.25 739.58,-44.45 746.73,-42.43 753.76,-40.35"/>
<polygon fill="#63b8ff" stroke="#63b8ff" points="565.14,-81.1 556.05,-86.54 566.55,-87.96 565.14,-81.1"/>
</a>
</g>
</g>
<!-- Node8 -->
<g id="Node000008" class="node">
<title>Node8</title>
<g id="a_Node000008"><a xlink:href="cmd__dispatch_8c.html" target="_top" xlink:title=" ">
<polygon fill="white" stroke="#666666" points="999.5,-39.88 886,-39.88 886,-6.38 999.5,-6.38 999.5,-39.88"/>
<text xml:space="preserve" text-anchor="start" x="894" y="-26.38" font-family="Helvetica,sans-Serif" font-size="10.00">source/task_helpers</text>
<text xml:space="preserve" text-anchor="middle" x="942.75" y="-13.62" font-family="Helvetica,sans-Serif" font-size="10.00">/cmd_dispatch.c</text>
</a>
</g>
</g>
<!-- Node1&#45;&gt;Node8 -->
<g id="edge7_Node000001_Node000008" class="edge">
<title>Node1&#45;&gt;Node8</title>
<g id="a_edge7_Node000001_Node000008"><a xlink:title=" ">
<path fill="none" stroke="#63b8ff" d="M566.23,-92.55C642.68,-85.56 769.72,-71.26 876.75,-46.25 883.81,-44.6 891.19,-42.51 898.34,-40.27"/>
<polygon fill="#63b8ff" stroke="#63b8ff" points="566.02,-89.05 556.37,-93.43 566.64,-96.02 566.02,-89.05"/>
</a>
</g>
</g>
</g>
</svg>
