<?xml version="1.0" encoding="UTF-8" standalone="no"?>
<!DOCTYPE svg PUBLIC "-//W3C//DTD SVG 1.1//EN"
 "http://www.w3.org/Graphics/SVG/1.1/DTD/svg11.dtd">
<!-- Generated by graphviz version 14.1.4 (0)
 -->
<!-- Title: source/task_helpers/cmd_dispatch.c Pages: 1 -->
<svg width="433pt" height="212pt"
 viewBox="0.00 0.00 433.00 212.00" xmlns="http://www.w3.org/2000/svg" xmlns:xlink="http://www.w3.org/1999/xlink">
<g id="graph0" class="graph" transform="scale(1 1) rotate(0) translate(4 207.75)">
<title>source/task_helpers/cmd_dispatch.c</title>
<!-- Node1 -->
<g id="Node000001" class="node">
<title>Node1</title>
<g id="a_Node000001"><a xlink:title=" ">
<polygon fill="#999999" stroke="#666666" points="300.12,-203.75 186.62,-203.75 186.62,-170.25 300.12,-170.25 300.12,-203.75"/>
<text xml:space="preserve" text-anchor="start" x="194.62" y="-190.25" font-family="Helvetica,sans-Serif" font-size="10.00">source/task_helpers</text>
<text xml:space="preserve" text-anchor="middle" x="243.38" y="-177.5" font-family="Helvetica,sans-Serif" font-size="10.00">/cmd_dispatch.c</text>
</a>
</g>
</g>
<!-- Node2 -->
<g id="Node000002" class="node">
<title>Node2</title>
<g id="a_Node000002"><a xlink:href="cmd__dispatch_8h.html" target="_top" xlink:title=" ">
<polygon fill="white" stroke="#666666" points="252.62,-134.25 160.12,-134.25 160.12,-113.5 252.62,-113.5 252.62,-134.25"/>
<text xml:space="preserve" text-anchor="middle" x="206.38" y="-120.75" font-family="Helvetica,sans-Serif" font-size="10.00">cmd_dispatch.h</text>
</a>
</g>
</g>
<!-- Node1&#45;&gt;Node2 -->
<g id="edge1_Node000001_Node000002" class="edge">
<title>Node1&#45;&gt;Node2</title>
<g id="a_edge1_Node000001_Node000002"><a xlink:title=" ">
<path fill="none" stroke="#63b8ff" d="M233.65,-169.94C228.9,-162.08 223.13,-152.56 218.13,-144.29"/>
<polygon fill="#63b8ff" stroke="#63b8ff" points="221.29,-142.75 213.12,-136.01 215.3,-146.38 221.29,-142.75"/>
</a>
</g>
</g>
<!-- Node10 -->
<g id="Node000010" class="node">
<title>Node10</title>
<g id="a_Node000010"><a xlink:href="log_8h.html" target="_top" xlink:title=" ">
<polygon fill="white" stroke="#666666" points="344.38,-77.5 304.38,-77.5 304.38,-56.75 344.38,-56.75 344.38,-77.5"/>
<text xml:space="preserve" text-anchor="middle" x="324.38" y="-64" font-family="Helvetica,sans-Serif" font-size="10.00">log.h</text>
</a>
</g>
</g>
<!-- Node1&#45;&gt;Node10 -->
<g id="edge11_Node000001_Node000010" class="edge">
<title>Node1&#45;&gt;Node10</title>
<g id="a_edge11_Node000001_Node000010"><a xlink:title=" ">
<path fill="none" stroke="#63b8ff" d="M254.3,-170.1C269.05,-148.63 295.32,-110.4 311.17,-87.35"/>
<polygon fill="#63b8ff" stroke="#63b8ff" points="314,-89.4 316.78,-79.18 308.23,-85.44 314,-89.4"/>
</a>
</g>
</g>
<!-- Node3 -->
<g id="Node000003" class="node">
<title>Node3</title>
<g id="a_Node000003"><a xlink:title=" ">
<polygon fill="#e0e0e0" stroke="#999999" points="52.75,-20.75 0,-20.75 0,0 52.75,0 52.75,-20.75"/>
<text xml:space="preserve" text-anchor="middle" x="26.38" y="-7.25" font-family="Helvetica,sans-Serif" font-size="10.00">stdint.h</text>
</a>
</g>
</g>
<!-- Node2&#45;&gt;Node3 -->
<g id="edge2_Node000002_Node000003" class="edge">
<title>Node2&#45;&gt;Node3</title>
<g id="a_edge2_Node000002_Node000003"><a xlink:title=" ">
<path fill="none" stroke="#63b8ff" d="M162.3,-113.01C137.05,-105.92 105.65,-94.56 81.38,-77.5 63.48,-64.93 48.06,-45.1 38.14,-30.43"/>
<polygon fill="#63b8ff" stroke="#63b8ff" points="41.13,-28.6 32.75,-22.11 35.25,-32.41 41.13,-28.6"/>
</a>
</g>
</g>
<!-- Node4 -->
<g id="Node000004" class="node">
<title>Node4</title>
<g id="a_Node000004"><a xlink:title=" ">
<polygon fill="#e0e0e0" stroke="#999999" points="322.12,-20.75 250.62,-20.75 250.62,0 322.12,0 322.12,-20.75"/>
<text xml:space="preserve" text-anchor="middle" x="286.38" y="-7.25" font-family="Helvetica,sans-Serif" font-size="10.00">FreeRTOS.h</text>
</a>
</g>
</g>
<!-- Node2&#45;&gt;Node4 -->
<g id="edge3_Node000002_Node000004" class="edge">
<title>Node2&#45;&gt;Node4</title>
<g id="a_edge3_Node000002_Node000004"><a xlink:title=" ">
<path fill="none" stroke="#63b8ff" d="M220.44,-113.04C231.63,-104.64 247.06,-91.69 257.38,-77.5 267.52,-63.54 275.14,-45.47 280.02,-31.75"/>
<polygon fill="#63b8ff" stroke="#63b8ff" points="283.27,-33.05 283.11,-22.46 276.63,-30.84 283.27,-33.05"/>
</a>
</g>
</g>
<!-- Node5 -->
<g id="Node000005" class="node">
<title>Node5</title>
<g id="a_Node000005"><a xlink:title=" ">
<polygon fill="#e0e0e0" stroke="#999999" points="145.88,-77.5 90.88,-77.5 90.88,-56.75 145.88,-56.75 145.88,-77.5"/>
<text xml:space="preserve" text-anchor="middle" x="118.38" y="-64" font-family="Helvetica,sans-Serif" font-size="10.00">queue.h</text>
</a>
</g>
</g>
<!-- Node2&#45;&gt;Node5 -->
<g id="edge4_Node000002_Node000005" class="edge">
<title>Node2&#45;&gt;Node5</title>
<g id="a_edge4_Node000002_Node000005"><a xlink:title=" ">
<path fill="none" stroke="#63b8ff" d="M190.64,-113.09C177.5,-104.91 158.53,-93.11 143.32,-83.65"/>
<polygon fill="#63b8ff" stroke="#63b8ff" points="145.6,-80.94 135.26,-78.63 141.9,-86.88 145.6,-80.94"/>
</a>
</g>
</g>
<!-- Node6 -->
<g id="Node000006" class="node">
<title>Node6</title>
<g id="a_Node000006"><a xlink:href="cmd__handle_8h.html" target="_top" xlink:title=" ">
<polygon fill="white" stroke="#666666" points="248.5,-77.5 164.25,-77.5 164.25,-56.75 248.5,-56.75 248.5,-77.5"/>
<text xml:space="preserve" text-anchor="middle" x="206.38" y="-64" font-family="Helvetica,sans-Serif" font-size="10.00">cmd_handle.h</text>
</a>
</g>
</g>
<!-- Node2&#45;&gt;Node6 -->
<g id="edge5_Node000002_Node000006" class="edge">
<title>Node2&#45;&gt;Node6</title>
<g id="a_edge5_Node000002_Node000006"><a xlink:title=" ">
<path fill="none" stroke="#63b8ff" d="M206.38,-113.09C206.38,-106.47 206.38,-97.47 206.38,-89.27"/>
<polygon fill="#63b8ff" stroke="#63b8ff" points="209.88,-89.34 206.38,-79.34 202.88,-89.34 209.88,-89.34"/>
</a>
</g>
</g>
<!-- Node6&#45;&gt;Node3 -->
<g id="edge6_Node000006_Node000003" class="edge">
<title>Node6&#45;&gt;Node3</title>
<g id="a_edge6_Node000006_Node000003"><a xlink:title=" ">
<path fill="none" stroke="#63b8ff" d="M174.19,-56.34C143.26,-46.93 96.52,-32.71 63.9,-22.79"/>
<polygon fill="#63b8ff" stroke="#63b8ff" points="65.04,-19.48 54.45,-19.92 63,-26.17 65.04,-19.48"/>
</a>
</g>
</g>
<!-- Node6&#45;&gt;Node4 -->
<g id="edge7_Node000006_Node000004" class="edge">
<title>Node6&#45;&gt;Node4</title>
<g id="a_edge7_Node000006_Node000004"><a xlink:title=" ">
<path fill="none" stroke="#63b8ff" d="M220.68,-56.34C232.39,-48.32 249.21,-36.81 262.9,-27.44"/>
<polygon fill="#63b8ff" stroke="#63b8ff" points="264.67,-30.47 270.95,-21.93 260.72,-24.69 264.67,-30.47"/>
</a>
</g>
</g>
<!-- Node7 -->
<g id="Node000007" class="node">
<title>Node7</title>
<g id="a_Node000007"><a xlink:title=" ">
<polygon fill="#e0e0e0" stroke="#999999" points="161.88,-20.75 70.88,-20.75 70.88,0 161.88,0 161.88,-20.75"/>
<text xml:space="preserve" text-anchor="middle" x="116.38" y="-7.25" font-family="Helvetica,sans-Serif" font-size="10.00">event_groups.h</text>
</a>
</g>
</g>
<!-- Node6&#45;&gt;Node7 -->
<g id="edge8_Node000006_Node000007" class="edge">
<title>Node6&#45;&gt;Node7</title>
<g id="a_edge8_Node000006_Node000007"><a xlink:title=" ">
<path fill="none" stroke="#63b8ff" d="M190.28,-56.34C176.85,-48.16 157.44,-36.36 141.89,-26.9"/>
<polygon fill="#63b8ff" stroke="#63b8ff" points="143.98,-24.07 133.62,-21.87 140.34,-30.05 143.98,-24.07"/>
</a>
</g>
</g>
<!-- Node8 -->
<g id="Node000008" class="node">
<title>Node8</title>
<g id="a_Node000008"><a xlink:title=" ">
<polygon fill="#e0e0e0" stroke="#999999" points="424.88,-20.75 339.88,-20.75 339.88,0 424.88,0 424.88,-20.75"/>
<text xml:space="preserve" text-anchor="middle" x="382.38" y="-7.25" font-family="Helvetica,sans-Serif" font-size="10.00">fsl_common.h</text>
</a>
</g>
</g>
<!-- Node6&#45;&gt;Node8 -->
<g id="edge9_Node000006_Node000008" class="edge">
<title>Node6&#45;&gt;Node8</title>
<g id="a_edge9_Node000006_Node000008"><a xlink:title=" ">
<path fill="none" stroke="#63b8ff" d="M237.84,-56.34C266.41,-47.45 308.76,-34.27 340.24,-24.48"/>
<polygon fill="#63b8ff" stroke="#63b8ff" points="340.93,-27.93 349.44,-21.62 338.85,-21.25 340.93,-27.93"/>
</a>
</g>
</g>
<!-- Node9 -->
<g id="Node000009" class="node">
<title>Node9</title>
<g id="a_Node000009"><a xlink:title=" ">
<polygon fill="#e0e0e0" stroke="#999999" points="232.38,-20.75 180.38,-20.75 180.38,0 232.38,0 232.38,-20.75"/>
<text xml:space="preserve" text-anchor="middle" x="206.38" y="-7.25" font-family="Helvetica,sans-Serif" font-size="10.00">stdlib.h</text>
</a>
</g>
</g>
<!-- Node6&#45;&gt;Node9 -->
<g id="edge10_Node000006_Node000009" class="edge">
<title>Node6&#45;&gt;Node9</title>
<g id="a_edge10_Node000006_Node000009"><a xlink:title=" ">
<path fill="none" stroke="#63b8ff" d="M206.38,-56.34C206.38,-49.72 206.38,-40.72 206.38,-32.52"/>
<polygon fill="#63b8ff" stroke="#63b8ff" points="209.88,-32.59 206.38,-22.59 202.88,-32.59 209.88,-32.59"/>
</a>
</g>
</g>
<!-- Node10&#45;&gt;Node4 -->
<g id="edge12_Node000010_Node000004" class="edge">
<title>Node10&#45;&gt;Node4</title>
<g id="a_edge12_Node000010_Node000004"><a xlink:title=" ">
<path fill="none" stroke="#63b8ff" d="M317.58,-56.34C312.61,-49.17 305.71,-39.23 299.65,-30.51"/>
<polygon fill="#63b8ff" stroke="#63b8ff" points="302.55,-28.54 293.97,-22.32 296.8,-32.53 302.55,-28.54"/>
</a>
</g>
</g>
<!-- Node10&#45;&gt;Node8 -->
<g id="edge13_Node000010_Node000008" class="edge">
<title>Node10&#45;&gt;Node8</title>
<g id="a_edge13_Node000010_Node000008"><a xlink:title=" ">
<path fill="none" stroke="#63b8ff" d="M334.74,-56.34C342.83,-48.71 354.26,-37.92 363.9,-28.82"/>
<polygon fill="#63b8ff" stroke="#63b8ff" points="366.13,-31.53 370.99,-22.12 361.32,-26.44 366.13,-31.53"/>
</a>
</g>
</g>
</g>
</svg>
