<?xml version="1.0" encoding="UTF-8" standalone="no"?>
<!DOCTYPE svg PUBLIC "-//W3C//DTD SVG 1.1//EN"
 "http://www.w3.org/Graphics/SVG/1.1/DTD/svg11.dtd">
<!-- Generated by graphviz version 14.1.4 (0)
 -->
<!-- Title: source/task_helpers/cmd_handle.c Pages: 1 -->
<svg width="433pt" height="155pt"
 viewBox="0.00 0.00 433.00 155.00" xmlns="http://www.w3.org/2000/svg" xmlns:xlink="http://www.w3.org/1999/xlink">
<g id="graph0" class="graph" transform="scale(1 1) rotate(0) translate(4 151)">
<title>source/task_helpers/cmd_handle.c</title>
<!-- Node1 -->
<g id="Node000001" class="node">
<title>Node1</title>
<g id="a_Node000001"><a xlink:title=" ">
<polygon fill="#999999" stroke="#666666" points="275.25,-147 161.75,-147 161.75,-113.5 275.25,-113.5 275.25,-147"/>
<text xml:space="preserve" text-anchor="start" x="169.75" y="-133.5" font-family="Helvetica,sans-Serif" font-size="10.00">source/task_helpers</text>
<text xml:space="preserve" text-anchor="middle" x="218.5" y="-120.75" font-family="Helvetica,sans-Serif" font-size="10.00">/cmd_handle.c</text>
</a>
</g>
</g>
<!-- Node2 -->
<g id="Node000002" class="node">
<title>Node2</title>
<g id="a_Node000002"><a xlink:href="cmd__handle_8h.html" target="_top" xlink:title=" ">
<polygon fill="white" stroke="#666666" points="260.62,-77.5 176.38,-77.5 176.38,-56.75 260.62,-56.75 260.62,-77.5"/>
<text xml:space="preserve" text-anchor="middle" x="218.5" y="-64" font-family="Helvetica,sans-Serif" font-size="10.00">cmd_handle.h</text>
</a>
</g>
</g>
<!-- Node1&#45;&gt;Node2 -->
<g id="edge1_Node000001_Node000002" class="edge">
<title>Node1&#45;&gt;Node2</title>
<g id="a_edge1_Node000001_Node000002"><a xlink:title=" ">
<path fill="none" stroke="#63b8ff" d="M218.5,-113.19C218.5,-105.85 218.5,-97.07 218.5,-89.21"/>
<polygon fill="#63b8ff" stroke="#63b8ff" points="222,-89.48 218.5,-79.48 215,-89.48 222,-89.48"/>
</a>
</g>
</g>
<!-- Node8 -->
<g id="Node000008" class="node">
<title>Node8</title>
<g id="a_Node000008"><a xlink:href="log_8h.html" target="_top" xlink:title=" ">
<polygon fill="white" stroke="#666666" points="158.5,-77.5 118.5,-77.5 118.5,-56.75 158.5,-56.75 158.5,-77.5"/>
<text xml:space="preserve" text-anchor="middle" x="138.5" y="-64" font-family="Helvetica,sans-Serif" font-size="10.00">log.h</text>
</a>
</g>
</g>
<!-- Node1&#45;&gt;Node8 -->
<g id="edge7_Node000001_Node000008" class="edge">
<title>Node1&#45;&gt;Node8</title>
<g id="a_edge7_Node000001_Node000008"><a xlink:title=" ">
<path fill="none" stroke="#63b8ff" d="M197.48,-113.19C186.05,-104.46 171.93,-93.67 160.37,-84.84"/>
<polygon fill="#63b8ff" stroke="#63b8ff" points="162.65,-82.18 152.58,-78.89 158.4,-87.74 162.65,-82.18"/>
</a>
</g>
</g>
<!-- Node9 -->
<g id="Node000009" class="node">
<title>Node9</title>
<g id="a_Node000009"><a xlink:title=" ">
<polygon fill="#e0e0e0" stroke="#999999" points="331.88,-77.5 279.12,-77.5 279.12,-56.75 331.88,-56.75 331.88,-77.5"/>
<text xml:space="preserve" text-anchor="middle" x="305.5" y="-64" font-family="Helvetica,sans-Serif" font-size="10.00">string.h</text>
</a>
</g>
</g>
<!-- Node1&#45;&gt;Node9 -->
<g id="edge10_Node000001_Node000009" class="edge">
<title>Node1&#45;&gt;Node9</title>
<g id="a_edge10_Node000001_Node000009"><a xlink:title=" ">
<path fill="none" stroke="#63b8ff" d="M241.36,-113.19C253.91,-104.37 269.45,-93.45 282.09,-84.57"/>
<polygon fill="#63b8ff" stroke="#63b8ff" points="284.08,-87.45 290.25,-78.84 280.06,-81.72 284.08,-87.45"/>
</a>
</g>
</g>
<!-- Node3 -->
<g id="Node000003" class="node">
<title>Node3</title>
<g id="a_Node000003"><a xlink:title=" ">
<polygon fill="#e0e0e0" stroke="#999999" points="244.88,-20.75 192.12,-20.75 192.12,0 244.88,0 244.88,-20.75"/>
<text xml:space="preserve" text-anchor="middle" x="218.5" y="-7.25" font-family="Helvetica,sans-Serif" font-size="10.00">stdint.h</text>
</a>
</g>
</g>
<!-- Node2&#45;&gt;Node3 -->
<g id="edge2_Node000002_Node000003" class="edge">
<title>Node2&#45;&gt;Node3</title>
<g id="a_edge2_Node000002_Node000003"><a xlink:title=" ">
<path fill="none" stroke="#63b8ff" d="M218.5,-56.34C218.5,-49.72 218.5,-40.72 218.5,-32.52"/>
<polygon fill="#63b8ff" stroke="#63b8ff" points="222,-32.59 218.5,-22.59 215,-32.59 222,-32.59"/>
</a>
</g>
</g>
<!-- Node4 -->
<g id="Node000004" class="node">
<title>Node4</title>
<g id="a_Node000004"><a xlink:title=" ">
<polygon fill="#e0e0e0" stroke="#999999" points="174.25,-20.75 102.75,-20.75 102.75,0 174.25,0 174.25,-20.75"/>
<text xml:space="preserve" text-anchor="middle" x="138.5" y="-7.25" font-family="Helvetica,sans-Serif" font-size="10.00">FreeRTOS.h</text>
</a>
</g>
</g>
<!-- Node2&#45;&gt;Node4 -->
<g id="edge3_Node000002_Node000004" class="edge">
<title>Node2&#45;&gt;Node4</title>
<g id="a_edge3_Node000002_Node000004"><a xlink:title=" ">
<path fill="none" stroke="#63b8ff" d="M204.2,-56.34C192.48,-48.32 175.66,-36.81 161.97,-27.44"/>
<polygon fill="#63b8ff" stroke="#63b8ff" points="164.16,-24.69 153.93,-21.93 160.2,-30.47 164.16,-24.69"/>
</a>
</g>
</g>
<!-- Node5 -->
<g id="Node000005" class="node">
<title>Node5</title>
<g id="a_Node000005"><a xlink:title=" ">
<polygon fill="#e0e0e0" stroke="#999999" points="354,-20.75 263,-20.75 263,0 354,0 354,-20.75"/>
<text xml:space="preserve" text-anchor="middle" x="308.5" y="-7.25" font-family="Helvetica,sans-Serif" font-size="10.00">event_groups.h</text>
</a>
</g>
</g>
<!-- Node2&#45;&gt;Node5 -->
<g id="edge4_Node000002_Node000005" class="edge">
<title>Node2&#45;&gt;Node5</title>
<g id="a_edge4_Node000002_Node000005"><a xlink:title=" ">
<path fill="none" stroke="#63b8ff" d="M234.59,-56.34C248.03,-48.16 267.43,-36.36 282.99,-26.9"/>
<polygon fill="#63b8ff" stroke="#63b8ff" points="284.53,-30.05 291.26,-21.87 280.89,-24.07 284.53,-30.05"/>
</a>
</g>
</g>
<!-- Node6 -->
<g id="Node000006" class="node">
<title>Node6</title>
<g id="a_Node000006"><a xlink:title=" ">
<polygon fill="#e0e0e0" stroke="#999999" points="85,-20.75 0,-20.75 0,0 85,0 85,-20.75"/>
<text xml:space="preserve" text-anchor="middle" x="42.5" y="-7.25" font-family="Helvetica,sans-Serif" font-size="10.00">fsl_common.h</text>
</a>
</g>
</g>
<!-- Node2&#45;&gt;Node6 -->
<g id="edge5_Node000002_Node000006" class="edge">
<title>Node2&#45;&gt;Node6</title>
<g id="a_edge5_Node000002_Node000006"><a xlink:title=" ">
<path fill="none" stroke="#63b8ff" d="M187.03,-56.34C158.47,-47.45 116.11,-34.27 84.63,-24.48"/>
<polygon fill="#63b8ff" stroke="#63b8ff" points="86.02,-21.25 75.43,-21.62 83.94,-27.93 86.02,-21.25"/>
</a>
</g>
</g>
<!-- Node7 -->
<g id="Node000007" class="node">
<title>Node7</title>
<g id="a_Node000007"><a xlink:title=" ">
<polygon fill="#e0e0e0" stroke="#999999" points="424.5,-20.75 372.5,-20.75 372.5,0 424.5,0 424.5,-20.75"/>
<text xml:space="preserve" text-anchor="middle" x="398.5" y="-7.25" font-family="Helvetica,sans-Serif" font-size="10.00">stdlib.h</text>
</a>
</g>
</g>
<!-- Node2&#45;&gt;Node7 -->
<g id="edge6_Node000002_Node000007" class="edge">
<title>Node2&#45;&gt;Node7</title>
<g id="a_edge6_Node000002_Node000007"><a xlink:title=" ">
<path fill="none" stroke="#63b8ff" d="M250.68,-56.34C281.71,-46.9 328.63,-32.63 361.26,-22.7"/>
<polygon fill="#63b8ff" stroke="#63b8ff" points="362.16,-26.09 370.71,-19.83 360.12,-19.39 362.16,-26.09"/>
</a>
</g>
</g>
<!-- Node8&#45;&gt;Node4 -->
<g id="edge8_Node000008_Node000004" class="edge">
<title>Node8&#45;&gt;Node4</title>
<g id="a_edge8_Node000008_Node000004"><a xlink:title=" ">
<path fill="none" stroke="#63b8ff" d="M138.5,-56.34C138.5,-49.72 138.5,-40.72 138.5,-32.52"/>
<polygon fill="#63b8ff" stroke="#63b8ff" points="142,-32.59 138.5,-22.59 135,-32.59 142,-32.59"/>
</a>
</g>
</g>
<!-- Node8&#45;&gt;Node6 -->
<g id="edge9_Node000008_Node000006" class="edge">
<title>Node8&#45;&gt;Node6</title>
<g id="a_edge9_Node000008_Node000006"><a xlink:title=" ">
<path fill="none" stroke="#63b8ff" d="M121.34,-56.34C106.87,-48.08 85.91,-36.13 69.24,-26.63"/>
<polygon fill="#63b8ff" stroke="#63b8ff" points="71.25,-23.74 60.83,-21.83 67.78,-29.82 71.25,-23.74"/>
</a>
</g>
</g>
</g>
</svg>
