<?xml version="1.0" encoding="UTF-8" standalone="no"?>
<!DOCTYPE svg PUBLIC "-//W3C//DTD SVG 1.1//EN"
 "http://www.w3.org/Graphics/SVG/1.1/DTD/svg11.dtd">
<!-- Generated by graphviz version 14.1.5 (0)
 -->
<!-- Title: source/task_helpers/cmd_dispatch.h Pages: 1 -->
<!--zoomable 124 -->

<svg id="main" version="1.1" xmlns="http://www.w3.org/2000/svg" xmlns:xlink="http://www.w3.org/1999/xlink" xml:space="preserve" onload="init(evt)">

<style type="text/css"><![CDATA[
.node, .edge {opacity: 0.7;}
.node.selected, .edge.selected {opacity: 1;}
.edge:hover path { stroke: red; }
.edge:hover polygon { stroke: red; fill: red; }
]]></style>

<defs>
  <circle id="rim" cx="0" cy="0" r="7"/>
  <circle id="rim2" cx="0" cy="0" r="3.5"/>
  <g id="zoomPlus">
    <use xlink:href="#rim" fill="#404040"><set attributeName="fill" to="#808080" begin="zoomplus.mouseover" end="zoomplus.mouseout"/></use>
    <path d="M-4,0h8M0,-4v8" fill="none" stroke="white" stroke-width="1.5" pointer-events="none"/>
  </g>
  <g id="zoomMin">
    <use xlink:href="#rim" fill="#404040"><set attributeName="fill" to="#808080" begin="zoomminus.mouseover" end="zoomminus.mouseout"/></use>
    <path d="M-4,0h8" fill="none" stroke="white" stroke-width="1.5" pointer-events="none"/>
  </g>
  <g id="arrowUp" transform="translate(30 24)">
    <use xlink:href="#rim"/>
    <path pointer-events="none" fill="none" stroke="white" stroke-width="1.5" d="M0,-3.0v7 M-2.5,-0.5L0,-3.0L2.5,-0.5"/>
  </g>
  <g id="arrowRight" transform="rotate(90) translate(36 -43)">
    <use xlink:href="#rim"/>
    <path pointer-events="none" fill="none" stroke="white" stroke-width="1.5" d="M0,-3.0v7 M-2.5,-0.5L0,-3.0L2.5,-0.5"/>
  </g>
  <g id="arrowDown" transform="rotate(180) translate(-30 -48)">
    <use xlink:href="#rim"/>
    <path pointer-events="none" fill="none" stroke="white" stroke-width="1.5" d="M0,-3.0v7 M-2.5,-0.5L0,-3.0L2.5,-0.5"/>
  </g>
  <g id="arrowLeft" transform="rotate(270) translate(-36 17)">
    <use xlink:href="#rim"/>
    <path pointer-events="none" fill="none" stroke="white" stroke-width="1.5" d="M0,-3.0v7 M-2.5,-0.5L0,-3.0L2.5,-0.5"/>
  </g>
  <g id="resetDef">
    <use xlink:href="#rim2" fill="#404040"><set attributeName="fill" to="#808080" begin="reset.mouseover" end="reset.mouseout"/></use>
  </g>
</defs>
<script type="application/ecmascript">
var viewWidth = 1008;
var viewHeight = 124;
var sectionId = 'dynsection-1';
</script>
<script type="application/ecmascript" xlink:href="svg.min.js"/>
<svg id="graph" class="graph">
<g id="viewport">
<title>source/task_helpers/cmd_dispatch.h</title>
<!-- Node1 -->
<g id="Node000001" class="node">
<title>Node1</title>
<g id="a_Node000001"><a xlink:title=" ">
<polygon fill="#999999" stroke="#666666" points="554.5,-115.75 441,-115.75 441,-82.25 554.5,-82.25 554.5,-115.75"/>
<text xml:space="preserve" text-anchor="start" x="449" y="-102.25" font-family="Helvetica,sans-Serif" font-size="10.00">source/task_helpers</text>
<text xml:space="preserve" text-anchor="middle" x="497.75" y="-89.5" font-family="Helvetica,sans-Serif" font-size="10.00">/cmd_dispatch.h</text>
</a>
</g>
</g>
<!-- Node2 -->
<g id="Node000002" class="node">
<title>Node2</title>
<g id="a_Node000002"><a xlink:href="tmc2209__process_8c.html" target="_top" xlink:title=" ">
<polygon fill="white" stroke="#666666" points="125.5,-39.88 0,-39.88 0,-6.38 125.5,-6.38 125.5,-39.88"/>
<text xml:space="preserve" text-anchor="start" x="8" y="-26.38" font-family="Helvetica,sans-Serif" font-size="10.00">source/driver/tmc2209</text>
<text xml:space="preserve" text-anchor="middle" x="62.75" y="-13.62" font-family="Helvetica,sans-Serif" font-size="10.00">/tmc2209_process.c</text>
</a>
</g>
</g>
<!-- Node1&#45;&gt;Node2 -->
<g id="edge1_Node000001_Node000002" class="edge">
<title>Node1&#45;&gt;Node2</title>
<g id="a_edge1_Node000001_Node000002"><a xlink:title=" ">
<path fill="none" stroke="#63b8ff" d="M429.29,-91.47C355.88,-83.72 236.18,-68.92 134.75,-46.25 127.22,-44.57 119.34,-42.48 111.66,-40.28"/>
<polygon fill="#63b8ff" stroke="#63b8ff" points="428.85,-94.94 439.16,-92.5 429.57,-87.98 428.85,-94.94"/>
</a>
</g>
</g>
<!-- Node3 -->
<g id="Node000003" class="node">
<title>Node3</title>
<g id="a_Node000003"><a xlink:href="motor__core_8c.html" target="_top" xlink:title=" ">
<polygon fill="white" stroke="#666666" points="261.75,-39.88 143.75,-39.88 143.75,-6.38 261.75,-6.38 261.75,-39.88"/>
<text xml:space="preserve" text-anchor="start" x="151.75" y="-26.38" font-family="Helvetica,sans-Serif" font-size="10.00">source/motion/motor</text>
<text xml:space="preserve" text-anchor="middle" x="202.75" y="-13.62" font-family="Helvetica,sans-Serif" font-size="10.00">/motor_core.c</text>
</a>
</g>
</g>
<!-- Node1&#45;&gt;Node3 -->
<g id="edge2_Node000001_Node000003" class="edge">
<title>Node1&#45;&gt;Node3</title>
<g id="a_edge2_Node000001_Node000003"><a xlink:title=" ">
<path fill="none" stroke="#63b8ff" d="M429.78,-84.19C384.47,-74.56 323.73,-60.88 270.75,-46.25 264.17,-44.43 257.28,-42.38 250.51,-40.26"/>
<polygon fill="#63b8ff" stroke="#63b8ff" points="428.97,-87.59 439.48,-86.23 430.41,-80.74 428.97,-87.59"/>
</a>
</g>
</g>
<!-- Node4 -->
<g id="Node000004" class="node">
<title>Node4</title>
<g id="a_Node000004"><a xlink:href="motor__process_8c.html" target="_top" xlink:title=" ">
<polygon fill="white" stroke="#666666" points="397.75,-39.88 279.75,-39.88 279.75,-6.38 397.75,-6.38 397.75,-39.88"/>
<text xml:space="preserve" text-anchor="start" x="287.75" y="-26.38" font-family="Helvetica,sans-Serif" font-size="10.00">source/motion/motor</text>
<text xml:space="preserve" text-anchor="middle" x="338.75" y="-13.62" font-family="Helvetica,sans-Serif" font-size="10.00">/motor_process.c</text>
</a>
</g>
</g>
<!-- Node1&#45;&gt;Node4 -->
<g id="edge3_Node000001_Node000004" class="edge">
<title>Node1&#45;&gt;Node4</title>
<g id="a_edge3_Node000001_Node000004"><a xlink:title=" ">
<path fill="none" stroke="#63b8ff" d="M452.5,-76.97C427.43,-65.33 396.74,-51.07 373.56,-40.3"/>
<polygon fill="#63b8ff" stroke="#63b8ff" points="450.94,-80.11 461.48,-81.15 453.89,-73.76 450.94,-80.11"/>
</a>
</g>
</g>
<!-- Node5 -->
<g id="Node000005" class="node">
<title>Node5</title>
<g id="a_Node000005"><a xlink:href="scara__kinematics__process_8c.html" target="_top" xlink:title=" ">
<polygon fill="white" stroke="#666666" points="579.62,-46.25 415.88,-46.25 415.88,0 579.62,0 579.62,-46.25"/>
<text xml:space="preserve" text-anchor="start" x="423.88" y="-32.75" font-family="Helvetica,sans-Serif" font-size="10.00">source/motion/scara</text>
<text xml:space="preserve" text-anchor="start" x="423.88" y="-20" font-family="Helvetica,sans-Serif" font-size="10.00">_kinematics/scara_kinematics</text>
<text xml:space="preserve" text-anchor="middle" x="497.75" y="-7.25" font-family="Helvetica,sans-Serif" font-size="10.00">_process.c</text>
</a>
</g>
</g>
<!-- Node1&#45;&gt;Node5 -->
<g id="edge4_Node000001_Node000005" class="edge">
<title>Node1&#45;&gt;Node5</title>
<g id="a_edge4_Node000001_Node000005"><a xlink:title=" ">
<path fill="none" stroke="#63b8ff" d="M497.75,-70.64C497.75,-62.71 497.75,-54.16 497.75,-46.57"/>
<polygon fill="#63b8ff" stroke="#63b8ff" points="494.25,-70.46 497.75,-80.46 501.25,-70.46 494.25,-70.46"/>
</a>
</g>
</g>
<!-- Node6 -->
<g id="Node000006" class="node">
<title>Node6</title>
<g id="a_Node000006"><a xlink:href="step__process_8c.html" target="_top" xlink:title=" ">
<polygon fill="white" stroke="#666666" points="723.5,-39.88 598,-39.88 598,-6.38 723.5,-6.38 723.5,-39.88"/>
<text xml:space="preserve" text-anchor="start" x="606" y="-26.38" font-family="Helvetica,sans-Serif" font-size="10.00">source/motion/stepper</text>
<text xml:space="preserve" text-anchor="middle" x="660.75" y="-13.62" font-family="Helvetica,sans-Serif" font-size="10.00">/step_process.c</text>
</a>
</g>
</g>
<!-- Node1&#45;&gt;Node6 -->
<g id="edge5_Node000001_Node000006" class="edge">
<title>Node1&#45;&gt;Node6</title>
<g id="a_edge5_Node000001_Node000006"><a xlink:title=" ">
<path fill="none" stroke="#63b8ff" d="M543.8,-77.13C569.56,-65.45 601.19,-51.12 625.06,-40.3"/>
<polygon fill="#63b8ff" stroke="#63b8ff" points="542.56,-73.85 534.9,-81.16 545.45,-80.22 542.56,-73.85"/>
</a>
</g>
</g>
<!-- Node7 -->
<g id="Node000007" class="node">
<title>Node7</title>
<g id="a_Node000007"><a xlink:href="step__timing_8c.html" target="_top" xlink:title=" ">
<polygon fill="white" stroke="#666666" points="867.5,-39.88 742,-39.88 742,-6.38 867.5,-6.38 867.5,-39.88"/>
<text xml:space="preserve" text-anchor="start" x="750" y="-26.38" font-family="Helvetica,sans-Serif" font-size="10.00">source/motion/stepper</text>
<text xml:space="preserve" text-anchor="middle" x="804.75" y="-13.62" font-family="Helvetica,sans-Serif" font-size="10.00">/step_timing.c</text>
</a>
</g>
</g>
<!-- Node1&#45;&gt;Node7 -->
<g id="edge6_Node000001_Node000007" class="edge">
<title>Node1&#45;&gt;Node7</title>
<g id="a_edge6_Node000001_Node000007"><a xlink:title=" ">
<path fill="none" stroke="#63b8ff" d="M565.56,-84.59C612.69,-74.9 676.84,-60.97 732.75,-46.25 739.58,-44.45 746.73,-42.43 753.76,-40.35"/>
<polygon fill="#63b8ff" stroke="#63b8ff" points="565.14,-81.1 556.05,-86.54 566.55,-87.96 565.14,-81.1"/>
</a>
</g>
</g>
<!-- Node8 -->
<g id="Node000008" class="node">
<title>Node8</title>
<g id="a_Node000008"><a xlink:href="cmd__dispatch_8c.html" target="_top" xlink:title=" ">
<polygon fill="white" stroke="#666666" points="999.5,-39.88 886,-39.88 886,-6.38 999.5,-6.38 999.5,-39.88"/>
<text xml:space="preserve" text-anchor="start" x="894" y="-26.38" font-family="Helvetica,sans-Serif" font-size="10.00">source/task_helpers</text>
<text xml:space="preserve" text-anchor="middle" x="942.75" y="-13.62" font-family="Helvetica,sans-Serif" font-size="10.00">/cmd_dispatch.c</text>
</a>
</g>
</g>
<!-- Node1&#45;&gt;Node8 -->
<g id="edge7_Node000001_Node000008" class="edge">
<title>Node1&#45;&gt;Node8</title>
<g id="a_edge7_Node000001_Node000008"><a xlink:title=" ">
<path fill="none" stroke="#63b8ff" d="M566.23,-92.55C642.68,-85.56 769.72,-71.26 876.75,-46.25 883.81,-44.6 891.19,-42.51 898.34,-40.27"/>
<polygon fill="#63b8ff" stroke="#63b8ff" points="566.02,-89.05 556.37,-93.43 566.64,-96.02 566.02,-89.05"/>
</a>
</g>
</g>
</g>
</svg>

<g id="navigator" transform="translate(0 0)" fill="#404254">
  <rect fill="#f2f5e9" fill-opacity="0.5" stroke="#606060" stroke-width=".5" x="0" y="0" width="60" height="60"/>
  <use id="zoomplus" xlink:href="#zoomPlus" x="17" y="9" onmousedown="handleZoom(evt,'in')"/>
  <use id="zoomminus" xlink:href="#zoomMin" x="42" y="9" onmousedown="handleZoom(evt,'out')"/>
  <use id="reset" xlink:href="#resetDef" x="30" y="36" onmousedown="handleReset()"/>
   <use id="arrowup" xlink:href="#arrowUp" x="0" y="0" onmousedown="handlePan(0,-1)"/>
  <use id="arrowright" xlink:href="#arrowRight" x="0" y="0" onmousedown="handlePan(1,0)"/>
  <use id="arrowdown" xlink:href="#arrowDown" x="0" y="0" onmousedown="handlePan(0,1)"/>
  <use id="arrowleft" xlink:href="#arrowLeft" x="0" y="0" onmousedown="handlePan(-1,0)"/>
</g>
<svg viewBox="0 0 15 15" width="100%" height="30px" preserveAspectRatio="xMaxYMin meet">
 <g id="arrow_out" transform="scale(0.3 0.3)">
  <a xlink:href="cmd__dispatch_8h__dep__incl_org.svg" target="_base">
   <rect id="button" ry="5" rx="5" y="6" x="6" height="38" width="38"
        fill="#f2f5e9" fill-opacity="0.5" stroke="#606060" stroke-width="1.0"/>
   <path id="arrow"
     d="M 11.500037,31.436501 C 11.940474,20.09759 22.043105,11.32322 32.158766,21.979434 L 37.068811,17.246167 C 37.068811,17.246167 37.088388,32 37.088388,32 L 22.160133,31.978069 C 22.160133,31.978069 26.997745,27.140456 26.997745,27.140456 C 18.528582,18.264221 13.291696,25.230495 11.500037,31.436501 z"
     style="fill:#404040;"/>
  </a>
 </g>
</svg>

<style type='text/css'>
<![CDATA[
[data-mouse-over-selected='false'] { opacity: 0.7; }
[data-mouse-over-selected='true']  { opacity: 1.0; }
]]>
</style>
<script type="application/ecmascript"><![CDATA[
document.addEventListener('DOMContentLoaded', (event) => {
  highlightEdges();
  highlightAdjacentNodes();
});
]]></script>
</svg>
