<?xml version="1.0" encoding="UTF-8" standalone="no"?>
<!DOCTYPE svg PUBLIC "-//W3C//DTD SVG 1.1//EN"
 "http://www.w3.org/Graphics/SVG/1.1/DTD/svg11.dtd">
<!-- Generated by graphviz version 14.1.4 (0)
 -->
<!-- Title: source/task_helpers/cmd_dispatch.h Pages: 1 -->
<svg width="826pt" height="111pt"
 viewBox="0.00 0.00 826.00 111.00" xmlns="http://www.w3.org/2000/svg" xmlns:xlink="http://www.w3.org/1999/xlink">
<g id="graph0" class="graph" transform="scale(1 1) rotate(0) translate(4 107)">
<title>source/task_helpers/cmd_dispatch.h</title>
<!-- Node1 -->
<g id="Node000001" class="node">
<title>Node1</title>
<g id="a_Node000001"><a xlink:title=" ">
<polygon fill="#999999" stroke="#666666" points="465.5,-103 352,-103 352,-69.5 465.5,-69.5 465.5,-103"/>
<text xml:space="preserve" text-anchor="start" x="360" y="-89.5" font-family="Helvetica,sans-Serif" font-size="10.00">source/task_helpers</text>
<text xml:space="preserve" text-anchor="middle" x="408.75" y="-76.75" font-family="Helvetica,sans-Serif" font-size="10.00">/cmd_dispatch.h</text>
</a>
</g>
</g>
<!-- Node2 -->
<g id="Node000002" class="node">
<title>Node2</title>
<g id="a_Node000002"><a xlink:href="tmc2209__process_8c.html" target="_top" xlink:title=" ">
<polygon fill="white" stroke="#666666" points="125.5,-33.5 0,-33.5 0,0 125.5,0 125.5,-33.5"/>
<text xml:space="preserve" text-anchor="start" x="8" y="-20" font-family="Helvetica,sans-Serif" font-size="10.00">source/driver/tmc2209</text>
<text xml:space="preserve" text-anchor="middle" x="62.75" y="-7.25" font-family="Helvetica,sans-Serif" font-size="10.00">/tmc2209_process.c</text>
</a>
</g>
</g>
<!-- Node1&#45;&gt;Node2 -->
<g id="edge1_Node000001_Node000002" class="edge">
<title>Node1&#45;&gt;Node2</title>
<g id="a_edge1_Node000001_Node000002"><a xlink:title=" ">
<path fill="none" stroke="#63b8ff" d="M340.61,-72.94C285.11,-62.78 204.76,-47.76 134.75,-33.5 131.87,-32.91 128.92,-32.3 125.94,-31.68"/>
<polygon fill="#63b8ff" stroke="#63b8ff" points="339.76,-76.34 350.23,-74.7 341.02,-69.46 339.76,-76.34"/>
</a>
</g>
</g>
<!-- Node3 -->
<g id="Node000003" class="node">
<title>Node3</title>
<g id="a_Node000003"><a xlink:href="motor__core_8c.html" target="_top" xlink:title=" ">
<polygon fill="white" stroke="#666666" points="261.75,-33.5 143.75,-33.5 143.75,0 261.75,0 261.75,-33.5"/>
<text xml:space="preserve" text-anchor="start" x="151.75" y="-20" font-family="Helvetica,sans-Serif" font-size="10.00">source/motion/motor</text>
<text xml:space="preserve" text-anchor="middle" x="202.75" y="-7.25" font-family="Helvetica,sans-Serif" font-size="10.00">/motor_core.c</text>
</a>
</g>
</g>
<!-- Node1&#45;&gt;Node3 -->
<g id="edge2_Node000001_Node000003" class="edge">
<title>Node1&#45;&gt;Node3</title>
<g id="a_edge2_Node000001_Node000003"><a xlink:title=" ">
<path fill="none" stroke="#63b8ff" d="M348.82,-65.61C318.08,-55.54 281.11,-43.42 252.05,-33.9"/>
<polygon fill="#63b8ff" stroke="#63b8ff" points="347.38,-68.82 357.97,-68.61 349.56,-62.17 347.38,-68.82"/>
</a>
</g>
</g>
<!-- Node4 -->
<g id="Node000004" class="node">
<title>Node4</title>
<g id="a_Node000004"><a xlink:href="motor__process_8c.html" target="_top" xlink:title=" ">
<polygon fill="white" stroke="#666666" points="397.75,-33.5 279.75,-33.5 279.75,0 397.75,0 397.75,-33.5"/>
<text xml:space="preserve" text-anchor="start" x="287.75" y="-20" font-family="Helvetica,sans-Serif" font-size="10.00">source/motion/motor</text>
<text xml:space="preserve" text-anchor="middle" x="338.75" y="-7.25" font-family="Helvetica,sans-Serif" font-size="10.00">/motor_process.c</text>
</a>
</g>
</g>
<!-- Node1&#45;&gt;Node4 -->
<g id="edge3_Node000001_Node000004" class="edge">
<title>Node1&#45;&gt;Node4</title>
<g id="a_edge3_Node000001_Node000004"><a xlink:title=" ">
<path fill="none" stroke="#63b8ff" d="M384.12,-61.5C374.55,-52.27 363.83,-41.94 355.22,-33.63"/>
<polygon fill="#63b8ff" stroke="#63b8ff" points="381.44,-63.78 391.07,-68.2 386.3,-58.74 381.44,-63.78"/>
</a>
</g>
</g>
<!-- Node5 -->
<g id="Node000005" class="node">
<title>Node5</title>
<g id="a_Node000005"><a xlink:href="step__process_8c.html" target="_top" xlink:title=" ">
<polygon fill="white" stroke="#666666" points="541.5,-33.5 416,-33.5 416,0 541.5,0 541.5,-33.5"/>
<text xml:space="preserve" text-anchor="start" x="424" y="-20" font-family="Helvetica,sans-Serif" font-size="10.00">source/motion/stepper</text>
<text xml:space="preserve" text-anchor="middle" x="478.75" y="-7.25" font-family="Helvetica,sans-Serif" font-size="10.00">/step_process.c</text>
</a>
</g>
</g>
<!-- Node1&#45;&gt;Node5 -->
<g id="edge4_Node000001_Node000005" class="edge">
<title>Node1&#45;&gt;Node5</title>
<g id="a_edge4_Node000001_Node000005"><a xlink:title=" ">
<path fill="none" stroke="#63b8ff" d="M433.38,-61.5C442.95,-52.27 453.67,-41.94 462.28,-33.63"/>
<polygon fill="#63b8ff" stroke="#63b8ff" points="431.2,-58.74 426.43,-68.2 436.06,-63.78 431.2,-58.74"/>
</a>
</g>
</g>
<!-- Node6 -->
<g id="Node000006" class="node">
<title>Node6</title>
<g id="a_Node000006"><a xlink:href="step__timing_8c.html" target="_top" xlink:title=" ">
<polygon fill="white" stroke="#666666" points="685.5,-33.5 560,-33.5 560,0 685.5,0 685.5,-33.5"/>
<text xml:space="preserve" text-anchor="start" x="568" y="-20" font-family="Helvetica,sans-Serif" font-size="10.00">source/motion/stepper</text>
<text xml:space="preserve" text-anchor="middle" x="622.75" y="-7.25" font-family="Helvetica,sans-Serif" font-size="10.00">/step_timing.c</text>
</a>
</g>
</g>
<!-- Node1&#45;&gt;Node6 -->
<g id="edge5_Node000001_Node000006" class="edge">
<title>Node1&#45;&gt;Node6</title>
<g id="a_edge5_Node000001_Node000006"><a xlink:title=" ">
<path fill="none" stroke="#63b8ff" d="M470.59,-65.74C502.6,-55.65 541.22,-43.47 571.54,-33.9"/>
<polygon fill="#63b8ff" stroke="#63b8ff" points="469.94,-62.28 461.45,-68.63 472.04,-68.96 469.94,-62.28"/>
</a>
</g>
</g>
<!-- Node7 -->
<g id="Node000007" class="node">
<title>Node7</title>
<g id="a_Node000007"><a xlink:href="cmd__dispatch_8c.html" target="_top" xlink:title=" ">
<polygon fill="white" stroke="#666666" points="817.5,-33.5 704,-33.5 704,0 817.5,0 817.5,-33.5"/>
<text xml:space="preserve" text-anchor="start" x="712" y="-20" font-family="Helvetica,sans-Serif" font-size="10.00">source/task_helpers</text>
<text xml:space="preserve" text-anchor="middle" x="760.75" y="-7.25" font-family="Helvetica,sans-Serif" font-size="10.00">/cmd_dispatch.c</text>
</a>
</g>
</g>
<!-- Node1&#45;&gt;Node7 -->
<g id="edge6_Node000001_Node000007" class="edge">
<title>Node1&#45;&gt;Node7</title>
<g id="a_edge6_Node000001_Node000007"><a xlink:title=" ">
<path fill="none" stroke="#63b8ff" d="M477.14,-73.97C535.21,-64.13 620.67,-49.03 694.75,-33.5 697.63,-32.9 700.58,-32.26 703.56,-31.6"/>
<polygon fill="#63b8ff" stroke="#63b8ff" points="476.68,-70.5 467.4,-75.61 477.84,-77.4 476.68,-70.5"/>
</a>
</g>
</g>
</g>
</svg>
