<?xml version="1.0" encoding="UTF-8" standalone="no"?>
<!DOCTYPE svg PUBLIC "-//W3C//DTD SVG 1.1//EN"
 "http://www.w3.org/Graphics/SVG/1.1/DTD/svg11.dtd">
<!-- Generated by graphviz version 14.1.5 (0)
 -->
<!-- Title: source/motion Pages: 1 -->
<svg width="280pt" height="317pt"
 viewBox="0.00 0.00 280.00 317.00" xmlns="http://www.w3.org/2000/svg" xmlns:xlink="http://www.w3.org/1999/xlink">
<g id="graph0" class="graph" transform="scale(1 1) rotate(0) translate(4 312.5)">
<title>source/motion</title>
<g id="clust1" class="cluster">
<title>clusterdir_b2f33c71d4aa5e7af42a1ca61ff5af1b</title>
<g id="a_clust1"><a xlink:href="dir_b2f33c71d4aa5e7af42a1ca61ff5af1b.html" target="_top" xlink:title="source">
<polygon fill="#edf0f7" stroke="#404040" stroke-dasharray="5,2" points="8,-8 8,-300.5 264,-300.5 264,-8 8,-8"/>
<text xml:space="preserve" text-anchor="middle" x="136" y="-287" font-family="Helvetica,sans-Serif" font-size="10.00">source</text>
</a>
</g>
</g>
<g id="clust2" class="cluster">
<title>clusterdir_5a3d89802b01ed76e7fc7a2cae772f73</title>
<g id="a_clust2"><a xlink:href="dir_5a3d89802b01ed76e7fc7a2cae772f73.html" target="_top">
<polygon fill="#edf0f7" stroke="#404040" stroke-width="2" points="16,-64.75 16,-271.75 202,-271.75 202,-64.75 16,-64.75"/>
</a>
</g>
</g>
<!-- dir_063a8e477bb5eba1f14d72f72f0c5d08 -->
<g id="node1" class="node">
<title>dir_063a8e477bb5eba1f14d72f72f0c5d08</title>
<g id="a_node1"><a xlink:href="dir_063a8e477bb5eba1f14d72f72f0c5d08.html" target="_top" xlink:title="task_helpers">
<polygon fill="#a2b4d6" stroke="#404040" points="94.12,-36.75 15.88,-36.75 15.88,-16 94.12,-16 94.12,-36.75"/>
<text xml:space="preserve" text-anchor="middle" x="55" y="-23.25" font-family="Helvetica,sans-Serif" font-size="10.00">task_helpers</text>
</a>
</g>
</g>
<!-- dir_71ba2ac0ad0bf0fcc30e9b425f69c132 -->
<g id="node2" class="node">
<title>dir_71ba2ac0ad0bf0fcc30e9b425f69c132</title>
<g id="a_node2"><a xlink:href="dir_71ba2ac0ad0bf0fcc30e9b425f69c132.html" target="_top" xlink:title="infrastructure">
<polygon fill="#a2b4d6" stroke="#404040" points="256,-36.75 174,-36.75 174,-16 256,-16 256,-36.75"/>
<text xml:space="preserve" text-anchor="middle" x="215" y="-23.25" font-family="Helvetica,sans-Serif" font-size="10.00">infrastructure</text>
</a>
</g>
</g>
<!-- dir_994f02ce98b4f4f84e2e327b8cbd211b -->
<g id="node3" class="node">
<title>dir_994f02ce98b4f4f84e2e327b8cbd211b</title>
<g id="a_node3"><a xlink:href="dir_994f02ce98b4f4f84e2e327b8cbd211b.html" target="_top" xlink:title="driver">
<polygon fill="#a2b4d6" stroke="red" points="156.25,-36.75 111.75,-36.75 111.75,-16 156.25,-16 156.25,-36.75"/>
<text xml:space="preserve" text-anchor="middle" x="134" y="-23.25" font-family="Helvetica,sans-Serif" font-size="10.00">driver</text>
</a>
</g>
</g>
<!-- dir_5a3d89802b01ed76e7fc7a2cae772f73 -->
<g id="node4" class="node">
<title>dir_5a3d89802b01ed76e7fc7a2cae772f73</title>
<text xml:space="preserve" text-anchor="middle" x="49" y="-250.25" font-family="Helvetica,sans-Serif" font-size="10.00">motion</text>
</g>
<!-- dir_f8edfacacf09bb2dfb7f63a0445394d9 -->
<g id="node5" class="node">
<title>dir_f8edfacacf09bb2dfb7f63a0445394d9</title>
<g id="a_node5"><a xlink:href="dir_f8edfacacf09bb2dfb7f63a0445394d9.html" target="_top" xlink:title="grabber">
<polygon fill="#a2b4d6" stroke="#404040" points="100.75,-207 47.25,-207 47.25,-186.25 100.75,-186.25 100.75,-207"/>
<text xml:space="preserve" text-anchor="middle" x="74" y="-193.5" font-family="Helvetica,sans-Serif" font-size="10.00">grabber</text>
</a>
</g>
</g>
<!-- dir_f8edfacacf09bb2dfb7f63a0445394d9&#45;&gt;dir_063a8e477bb5eba1f14d72f72f0c5d08 -->
<g id="edge1" class="edge">
<title>dir_f8edfacacf09bb2dfb7f63a0445394d9&#45;&gt;dir_063a8e477bb5eba1f14d72f72f0c5d08</title>
<g id="a_edge1"><a xlink:href="dir_000003_000015.html" target="_top">
<path fill="none" stroke="#63b8ff" d="M72.92,-186.1C69.95,-159.73 61.54,-85.33 57.39,-48.53"/>
<polygon fill="#63b8ff" stroke="#63b8ff" points="60.88,-48.27 56.28,-38.72 53.93,-49.05 60.88,-48.27"/>
</a>
</g>
<g id="a_edge1&#45;headlabel"><a xlink:href="dir_000003_000015.html" target="_top" xlink:title="2">
<text xml:space="preserve" text-anchor="middle" x="63.94" y="-46.89" font-family="Helvetica,sans-Serif" font-size="10.00" fill="#63b8ff">2</text>
</a>
</g>
</g>
<!-- dir_96b085d16f662e42933169fc37827faf -->
<g id="node7" class="node">
<title>dir_96b085d16f662e42933169fc37827faf</title>
<g id="a_node7"><a xlink:href="dir_96b085d16f662e42933169fc37827faf.html" target="_top" xlink:title="motor">
<polygon fill="#a2b4d6" stroke="#404040" points="142.62,-150.25 97.38,-150.25 97.38,-129.5 142.62,-129.5 142.62,-150.25"/>
<text xml:space="preserve" text-anchor="middle" x="120" y="-136.75" font-family="Helvetica,sans-Serif" font-size="10.00">motor</text>
</a>
</g>
</g>
<!-- dir_f8edfacacf09bb2dfb7f63a0445394d9&#45;&gt;dir_96b085d16f662e42933169fc37827faf -->
<g id="edge2" class="edge">
<title>dir_f8edfacacf09bb2dfb7f63a0445394d9&#45;&gt;dir_96b085d16f662e42933169fc37827faf</title>
<g id="a_edge2"><a xlink:href="dir_000003_000009.html" target="_top">
<path fill="none" stroke="#63b8ff" d="M82.22,-185.84C88.44,-178.44 97.15,-168.07 104.64,-159.16"/>
<polygon fill="#63b8ff" stroke="#63b8ff" points="107.12,-161.65 110.87,-151.74 101.76,-157.14 107.12,-161.65"/>
</a>
</g>
<g id="a_edge2&#45;headlabel"><a xlink:href="dir_000003_000009.html" target="_top" xlink:title="1">
<text xml:space="preserve" text-anchor="middle" x="107.96" y="-161.94" font-family="Helvetica,sans-Serif" font-size="10.00" fill="#63b8ff">1</text>
</a>
</g>
</g>
<!-- dir_0b36604d44e25621966b959dc0f86d1e -->
<g id="node6" class="node">
<title>dir_0b36604d44e25621966b959dc0f86d1e</title>
<g id="a_node6"><a xlink:href="dir_0b36604d44e25621966b959dc0f86d1e.html" target="_top" xlink:title="homing">
<polygon fill="#a2b4d6" stroke="#404040" points="191.38,-207 138.62,-207 138.62,-186.25 191.38,-186.25 191.38,-207"/>
<text xml:space="preserve" text-anchor="middle" x="165" y="-193.5" font-family="Helvetica,sans-Serif" font-size="10.00">homing</text>
</a>
</g>
</g>
<!-- dir_0b36604d44e25621966b959dc0f86d1e&#45;&gt;dir_063a8e477bb5eba1f14d72f72f0c5d08 -->
<g id="edge3" class="edge">
<title>dir_0b36604d44e25621966b959dc0f86d1e&#45;&gt;dir_063a8e477bb5eba1f14d72f72f0c5d08</title>
<g id="a_edge3"><a xlink:href="dir_000004_000015.html" target="_top">
<path fill="none" stroke="#63b8ff" d="M138.47,-186.18C121.63,-178.86 100.69,-167.11 88,-150.25 64.41,-118.9 76.43,-102.58 66,-64.75 64.5,-59.32 62.82,-53.47 61.22,-48.05"/>
<polygon fill="#63b8ff" stroke="#63b8ff" points="64.63,-47.22 58.42,-38.64 57.92,-49.22 64.63,-47.22"/>
</a>
</g>
<g id="a_edge3&#45;headlabel"><a xlink:href="dir_000004_000015.html" target="_top" xlink:title="1">
<text xml:space="preserve" text-anchor="middle" x="67.94" y="-45.28" font-family="Helvetica,sans-Serif" font-size="10.00" fill="#63b8ff">1</text>
</a>
</g>
</g>
<!-- dir_0b36604d44e25621966b959dc0f86d1e&#45;&gt;dir_71ba2ac0ad0bf0fcc30e9b425f69c132 -->
<g id="edge5" class="edge">
<title>dir_0b36604d44e25621966b959dc0f86d1e&#45;&gt;dir_71ba2ac0ad0bf0fcc30e9b425f69c132</title>
<g id="a_edge5"><a xlink:href="dir_000004_000006.html" target="_top">
<path fill="none" stroke="#63b8ff" d="M170.1,-185.79C179.12,-167.93 197.8,-128.74 207,-93.5 210.89,-78.58 212.9,-61.25 213.93,-48.08"/>
<polygon fill="#63b8ff" stroke="#63b8ff" points="217.4,-48.66 214.55,-38.45 210.42,-48.21 217.4,-48.66"/>
</a>
</g>
<g id="a_edge5&#45;headlabel"><a xlink:href="dir_000004_000006.html" target="_top" xlink:title="1">
<text xml:space="preserve" text-anchor="middle" x="220.1" y="-47.79" font-family="Helvetica,sans-Serif" font-size="10.00" fill="#63b8ff">1</text>
</a>
</g>
</g>
<!-- dir_0b36604d44e25621966b959dc0f86d1e&#45;&gt;dir_96b085d16f662e42933169fc37827faf -->
<g id="edge6" class="edge">
<title>dir_0b36604d44e25621966b959dc0f86d1e&#45;&gt;dir_96b085d16f662e42933169fc37827faf</title>
<g id="a_edge6"><a xlink:href="dir_000004_000009.html" target="_top">
<path fill="none" stroke="#63b8ff" d="M156.95,-185.84C150.94,-178.52 142.53,-168.29 135.26,-159.44"/>
<polygon fill="#63b8ff" stroke="#63b8ff" points="137.99,-157.25 128.94,-151.75 132.58,-161.7 137.99,-157.25"/>
</a>
</g>
<g id="a_edge6&#45;headlabel"><a xlink:href="dir_000004_000009.html" target="_top" xlink:title="3">
<text xml:space="preserve" text-anchor="middle" x="141.5" y="-153.93" font-family="Helvetica,sans-Serif" font-size="10.00" fill="#63b8ff">3</text>
</a>
</g>
</g>
<!-- dir_128d28582ed126cd861229530891efad -->
<g id="node9" class="node">
<title>dir_128d28582ed126cd861229530891efad</title>
<g id="a_node9"><a xlink:href="dir_128d28582ed126cd861229530891efad.html" target="_top" xlink:title="stepper">
<polygon fill="#a2b4d6" stroke="#404040" points="186.38,-93.5 133.62,-93.5 133.62,-72.75 186.38,-72.75 186.38,-93.5"/>
<text xml:space="preserve" text-anchor="middle" x="160" y="-80" font-family="Helvetica,sans-Serif" font-size="10.00">stepper</text>
</a>
</g>
</g>
<!-- dir_0b36604d44e25621966b959dc0f86d1e&#45;&gt;dir_128d28582ed126cd861229530891efad -->
<g id="edge4" class="edge">
<title>dir_0b36604d44e25621966b959dc0f86d1e&#45;&gt;dir_128d28582ed126cd861229530891efad</title>
<g id="a_edge4"><a xlink:href="dir_000004_000014.html" target="_top">
<path fill="none" stroke="#63b8ff" d="M164.57,-186.12C163.78,-168.35 162.04,-129.72 160.96,-105.43"/>
<polygon fill="#63b8ff" stroke="#63b8ff" points="164.45,-105.27 160.51,-95.44 157.46,-105.58 164.45,-105.27"/>
</a>
</g>
<g id="a_edge4&#45;headlabel"><a xlink:href="dir_000004_000014.html" target="_top" xlink:title="1">
<text xml:space="preserve" text-anchor="middle" x="167.38" y="-104.1" font-family="Helvetica,sans-Serif" font-size="10.00" fill="#63b8ff">1</text>
</a>
</g>
</g>
<!-- dir_96b085d16f662e42933169fc37827faf&#45;&gt;dir_063a8e477bb5eba1f14d72f72f0c5d08 -->
<g id="edge7" class="edge">
<title>dir_96b085d16f662e42933169fc37827faf&#45;&gt;dir_063a8e477bb5eba1f14d72f72f0c5d08</title>
<g id="a_edge7"><a xlink:href="dir_000009_000015.html" target="_top">
<path fill="none" stroke="#63b8ff" d="M115.11,-129.12C107.84,-114.78 93.58,-87.3 80,-64.75 76.37,-58.73 72.21,-52.33 68.33,-46.55"/>
<polygon fill="#63b8ff" stroke="#63b8ff" points="71.22,-44.58 62.69,-38.3 65.44,-48.53 71.22,-44.58"/>
</a>
</g>
<g id="a_edge7&#45;headlabel"><a xlink:href="dir_000009_000015.html" target="_top" xlink:title="7">
<text xml:space="preserve" text-anchor="middle" x="74.74" y="-41.57" font-family="Helvetica,sans-Serif" font-size="10.00" fill="#63b8ff">7</text>
</a>
</g>
</g>
<!-- dir_96b085d16f662e42933169fc37827faf&#45;&gt;dir_71ba2ac0ad0bf0fcc30e9b425f69c132 -->
<g id="edge9" class="edge">
<title>dir_96b085d16f662e42933169fc37827faf&#45;&gt;dir_71ba2ac0ad0bf0fcc30e9b425f69c132</title>
<g id="a_edge9"><a xlink:href="dir_000009_000006.html" target="_top">
<path fill="none" stroke="#63b8ff" d="M142.79,-130.36C159.51,-123 181.56,-110.81 195,-93.5 205.24,-80.31 210.26,-61.91 212.7,-47.87"/>
<polygon fill="#63b8ff" stroke="#63b8ff" points="216.11,-48.78 214.05,-38.39 209.18,-47.8 216.11,-48.78"/>
</a>
</g>
<g id="a_edge9&#45;headlabel"><a xlink:href="dir_000009_000006.html" target="_top" xlink:title="6">
<text xml:space="preserve" text-anchor="middle" x="218.63" y="-48.11" font-family="Helvetica,sans-Serif" font-size="10.00" fill="#63b8ff">6</text>
</a>
</g>
</g>
<!-- dir_96b085d16f662e42933169fc37827faf&#45;&gt;dir_994f02ce98b4f4f84e2e327b8cbd211b -->
<g id="edge10" class="edge">
<title>dir_96b085d16f662e42933169fc37827faf&#45;&gt;dir_994f02ce98b4f4f84e2e327b8cbd211b</title>
<g id="a_edge10"><a xlink:href="dir_000009_000002.html" target="_top">
<path fill="none" stroke="#63b8ff" d="M120.13,-129.22C120.44,-115.02 121.49,-87.7 125,-64.75 125.84,-59.26 127.09,-53.38 128.38,-47.96"/>
<polygon fill="#63b8ff" stroke="#63b8ff" points="131.69,-49.14 130.8,-38.59 124.91,-47.4 131.69,-49.14"/>
</a>
</g>
<g id="a_edge10&#45;headlabel"><a xlink:href="dir_000009_000002.html" target="_top" xlink:title="4">
<text xml:space="preserve" text-anchor="middle" x="133.92" y="-48.74" font-family="Helvetica,sans-Serif" font-size="10.00" fill="#63b8ff">4</text>
</a>
</g>
</g>
<!-- dir_96b085d16f662e42933169fc37827faf&#45;&gt;dir_128d28582ed126cd861229530891efad -->
<g id="edge8" class="edge">
<title>dir_96b085d16f662e42933169fc37827faf&#45;&gt;dir_128d28582ed126cd861229530891efad</title>
<g id="a_edge8"><a xlink:href="dir_000009_000014.html" target="_top">
<path fill="none" stroke="#63b8ff" d="M127.15,-129.09C132.44,-121.85 139.81,-111.76 146.23,-102.97"/>
<polygon fill="#63b8ff" stroke="#63b8ff" points="148.94,-105.19 152.02,-95.05 143.29,-101.06 148.94,-105.19"/>
</a>
</g>
<g id="a_edge8&#45;headlabel"><a xlink:href="dir_000009_000014.html" target="_top" xlink:title="4">
<text xml:space="preserve" text-anchor="middle" x="150.01" y="-105.42" font-family="Helvetica,sans-Serif" font-size="10.00" fill="#63b8ff">4</text>
</a>
</g>
</g>
<!-- dir_e568dbef1fcdfc4eff65c2f9ba8a4aab -->
<g id="node8" class="node">
<title>dir_e568dbef1fcdfc4eff65c2f9ba8a4aab</title>
<g id="a_node8"><a xlink:href="dir_e568dbef1fcdfc4eff65c2f9ba8a4aab.html" target="_top" xlink:title="scara_kinematics">
<polygon fill="#a2b4d6" stroke="#404040" points="193.75,-263.75 92.25,-263.75 92.25,-243 193.75,-243 193.75,-263.75"/>
<text xml:space="preserve" text-anchor="middle" x="143" y="-250.25" font-family="Helvetica,sans-Serif" font-size="10.00">scara_kinematics</text>
</a>
</g>
</g>
<!-- dir_e568dbef1fcdfc4eff65c2f9ba8a4aab&#45;&gt;dir_063a8e477bb5eba1f14d72f72f0c5d08 -->
<g id="edge11" class="edge">
<title>dir_e568dbef1fcdfc4eff65c2f9ba8a4aab&#45;&gt;dir_063a8e477bb5eba1f14d72f72f0c5d08</title>
<g id="a_edge11"><a xlink:href="dir_000011_000015.html" target="_top">
<path fill="none" stroke="#63b8ff" d="M91.75,-242.92C71.45,-236.4 50.11,-225.42 38,-207 5.39,-157.38 30.4,-82.75 45.57,-47.36"/>
<polygon fill="#63b8ff" stroke="#63b8ff" points="48.72,-48.89 49.62,-38.34 42.33,-46.02 48.72,-48.89"/>
</a>
</g>
<g id="a_edge11&#45;headlabel"><a xlink:href="dir_000011_000015.html" target="_top" xlink:title="5">
<text xml:space="preserve" text-anchor="middle" x="50.46" y="-48.83" font-family="Helvetica,sans-Serif" font-size="10.00" fill="#63b8ff">5</text>
</a>
</g>
</g>
<!-- dir_e568dbef1fcdfc4eff65c2f9ba8a4aab&#45;&gt;dir_0b36604d44e25621966b959dc0f86d1e -->
<g id="edge12" class="edge">
<title>dir_e568dbef1fcdfc4eff65c2f9ba8a4aab&#45;&gt;dir_0b36604d44e25621966b959dc0f86d1e</title>
<g id="a_edge12"><a xlink:href="dir_000011_000004.html" target="_top">
<path fill="none" stroke="#63b8ff" d="M146.93,-242.59C149.69,-235.74 153.46,-226.34 156.85,-217.9"/>
<polygon fill="#63b8ff" stroke="#63b8ff" points="160.06,-219.32 160.54,-208.73 153.56,-216.71 160.06,-219.32"/>
</a>
</g>
<g id="a_edge12&#45;headlabel"><a xlink:href="dir_000011_000004.html" target="_top" xlink:title="1">
<text xml:space="preserve" text-anchor="middle" x="161.91" y="-219.18" font-family="Helvetica,sans-Serif" font-size="10.00" fill="#63b8ff">1</text>
</a>
</g>
</g>
<!-- dir_e568dbef1fcdfc4eff65c2f9ba8a4aab&#45;&gt;dir_96b085d16f662e42933169fc37827faf -->
<g id="edge13" class="edge">
<title>dir_e568dbef1fcdfc4eff65c2f9ba8a4aab&#45;&gt;dir_96b085d16f662e42933169fc37827faf</title>
<g id="a_edge13"><a xlink:href="dir_000011_000009.html" target="_top">
<path fill="none" stroke="#63b8ff" d="M139.84,-242.73C136.95,-233.61 132.72,-219.49 130,-207 126.7,-191.87 124.13,-174.56 122.42,-161.44"/>
<polygon fill="#63b8ff" stroke="#63b8ff" points="125.93,-161.36 121.23,-151.86 118.99,-162.22 125.93,-161.36"/>
</a>
</g>
<g id="a_edge13&#45;headlabel"><a xlink:href="dir_000011_000009.html" target="_top" xlink:title="2">
<text xml:space="preserve" text-anchor="middle" x="129.01" y="-159.95" font-family="Helvetica,sans-Serif" font-size="10.00" fill="#63b8ff">2</text>
</a>
</g>
</g>
<!-- dir_128d28582ed126cd861229530891efad&#45;&gt;dir_063a8e477bb5eba1f14d72f72f0c5d08 -->
<g id="edge14" class="edge">
<title>dir_128d28582ed126cd861229530891efad&#45;&gt;dir_063a8e477bb5eba1f14d72f72f0c5d08</title>
<g id="a_edge14"><a xlink:href="dir_000014_000015.html" target="_top">
<path fill="none" stroke="#63b8ff" d="M143.6,-72.38C139.21,-69.84 134.45,-67.15 130,-64.75 115.65,-57.03 99.49,-48.9 85.86,-42.21"/>
<polygon fill="#63b8ff" stroke="#63b8ff" points="87.43,-39.09 76.91,-37.85 84.36,-45.38 87.43,-39.09"/>
</a>
</g>
<g id="a_edge14&#45;headlabel"><a xlink:href="dir_000014_000015.html" target="_top" xlink:title="4">
<text xml:space="preserve" text-anchor="middle" x="90.55" y="-34.32" font-family="Helvetica,sans-Serif" font-size="10.00" fill="#63b8ff">4</text>
</a>
</g>
</g>
<!-- dir_128d28582ed126cd861229530891efad&#45;&gt;dir_71ba2ac0ad0bf0fcc30e9b425f69c132 -->
<g id="edge15" class="edge">
<title>dir_128d28582ed126cd861229530891efad&#45;&gt;dir_71ba2ac0ad0bf0fcc30e9b425f69c132</title>
<g id="a_edge15"><a xlink:href="dir_000014_000006.html" target="_top">
<path fill="none" stroke="#63b8ff" d="M169.83,-72.34C177.42,-64.78 188.12,-54.14 197.2,-45.1"/>
<polygon fill="#63b8ff" stroke="#63b8ff" points="199.56,-47.68 204.18,-38.15 194.62,-42.72 199.56,-47.68"/>
</a>
</g>
<g id="a_edge15&#45;headlabel"><a xlink:href="dir_000014_000006.html" target="_top" xlink:title="4">
<text xml:space="preserve" text-anchor="middle" x="200.09" y="-48.04" font-family="Helvetica,sans-Serif" font-size="10.00" fill="#63b8ff">4</text>
</a>
</g>
</g>
<!-- dir_128d28582ed126cd861229530891efad&#45;&gt;dir_994f02ce98b4f4f84e2e327b8cbd211b -->
<g id="edge16" class="edge">
<title>dir_128d28582ed126cd861229530891efad&#45;&gt;dir_994f02ce98b4f4f84e2e327b8cbd211b</title>
<g id="a_edge16"><a xlink:href="dir_000014_000002.html" target="_top">
<path fill="none" stroke="#63b8ff" d="M155.35,-72.34C152.06,-65.41 147.53,-55.87 143.49,-47.36"/>
<polygon fill="#63b8ff" stroke="#63b8ff" points="146.71,-45.98 139.26,-38.45 140.39,-48.98 146.71,-45.98"/>
</a>
</g>
<g id="a_edge16&#45;headlabel"><a xlink:href="dir_000014_000002.html" target="_top" xlink:title="2">
<text xml:space="preserve" text-anchor="middle" x="150.17" y="-43.51" font-family="Helvetica,sans-Serif" font-size="10.00" fill="#63b8ff">2</text>
</a>
</g>
</g>
</g>
</svg>
