<?xml version="1.0" encoding="UTF-8" standalone="no"?>
<!DOCTYPE svg PUBLIC "-//W3C//DTD SVG 1.1//EN"
 "http://www.w3.org/Graphics/SVG/1.1/DTD/svg11.dtd">
<!-- Generated by graphviz version 14.1.5 (0)
 -->
<!-- Title: source Pages: 1 -->
<svg width="234pt" height="288pt"
 viewBox="0.00 0.00 234.00 288.00" xmlns="http://www.w3.org/2000/svg" xmlns:xlink="http://www.w3.org/1999/xlink">
<g id="graph0" class="graph" transform="scale(1 1) rotate(0) translate(4 283.75)">
<title>source</title>
<g id="clust1" class="cluster">
<title>clusterdir_b2f33c71d4aa5e7af42a1ca61ff5af1b</title>
<g id="a_clust1"><a xlink:href="dir_b2f33c71d4aa5e7af42a1ca61ff5af1b.html" target="_top">
<polygon fill="#edf0f7" stroke="#404040" stroke-width="2" points="8,-8 8,-271.75 218,-271.75 218,-8 8,-8"/>
</a>
</g>
</g>
<!-- dir_b2f33c71d4aa5e7af42a1ca61ff5af1b -->
<g id="node1" class="node">
<title>dir_b2f33c71d4aa5e7af42a1ca61ff5af1b</title>
<text xml:space="preserve" text-anchor="middle" x="44" y="-250.25" font-family="Helvetica,sans-Serif" font-size="10.00">source</text>
</g>
<!-- dir_dc717eb83389032121409e4c35ccad0a -->
<g id="node3" class="node">
<title>dir_dc717eb83389032121409e4c35ccad0a</title>
<g id="a_node3"><a xlink:href="dir_dc717eb83389032121409e4c35ccad0a.html" target="_top" xlink:title="display">
<polygon fill="#a2b4d6" stroke="#404040" points="67.62,-150.25 16.38,-150.25 16.38,-129.5 67.62,-129.5 67.62,-150.25"/>
<text xml:space="preserve" text-anchor="middle" x="42" y="-136.75" font-family="Helvetica,sans-Serif" font-size="10.00">display</text>
</a>
</g>
</g>
<!-- dir_b2f33c71d4aa5e7af42a1ca61ff5af1b&#45;&gt;dir_dc717eb83389032121409e4c35ccad0a -->
<g id="edge5" class="edge">
<title>dir_b2f33c71d4aa5e7af42a1ca61ff5af1b&#45;&gt;dir_dc717eb83389032121409e4c35ccad0a</title>
<g id="a_edge5"><a xlink:href="dir_000013_000001.html" target="_top">
<path fill="none" stroke="#63b8ff" d="M43.84,-243.25C43.52,-225.53 42.81,-186.08 42.37,-161.65"/>
<polygon fill="#63b8ff" stroke="#63b8ff" points="45.88,-161.89 42.2,-151.95 38.88,-162.02 45.88,-161.89"/>
</a>
</g>
<g id="a_edge5&#45;headlabel"><a xlink:href="dir_000013_000001.html" target="_top" xlink:title="4">
<text xml:space="preserve" text-anchor="middle" x="48.75" y="-160.8" font-family="Helvetica,sans-Serif" font-size="10.00" fill="#63b8ff">4</text>
</a>
</g>
</g>
<!-- dir_994f02ce98b4f4f84e2e327b8cbd211b -->
<g id="node4" class="node">
<title>dir_994f02ce98b4f4f84e2e327b8cbd211b</title>
<g id="a_node4"><a xlink:href="dir_994f02ce98b4f4f84e2e327b8cbd211b.html" target="_top" xlink:title="driver">
<polygon fill="#a2b4d6" stroke="#404040" points="150.25,-150.25 105.75,-150.25 105.75,-129.5 150.25,-129.5 150.25,-150.25"/>
<text xml:space="preserve" text-anchor="middle" x="128" y="-136.75" font-family="Helvetica,sans-Serif" font-size="10.00">driver</text>
</a>
</g>
</g>
<!-- dir_b2f33c71d4aa5e7af42a1ca61ff5af1b&#45;&gt;dir_994f02ce98b4f4f84e2e327b8cbd211b -->
<g id="edge4" class="edge">
<title>dir_b2f33c71d4aa5e7af42a1ca61ff5af1b&#45;&gt;dir_994f02ce98b4f4f84e2e327b8cbd211b</title>
<g id="a_edge4"><a xlink:href="dir_000013_000002.html" target="_top">
<path fill="none" stroke="#63b8ff" d="M55.66,-243.17C66.05,-234.57 81.23,-220.99 92,-207 103.09,-192.6 112.75,-174.33 119.27,-160.65"/>
<polygon fill="#63b8ff" stroke="#63b8ff" points="122.34,-162.34 123.33,-151.79 115.98,-159.42 122.34,-162.34"/>
</a>
</g>
<g id="a_edge4&#45;headlabel"><a xlink:href="dir_000013_000002.html" target="_top" xlink:title="10">
<text xml:space="preserve" text-anchor="middle" x="124.05" y="-162.29" font-family="Helvetica,sans-Serif" font-size="10.00" fill="#63b8ff">10</text>
</a>
</g>
</g>
<!-- dir_71ba2ac0ad0bf0fcc30e9b425f69c132 -->
<g id="node5" class="node">
<title>dir_71ba2ac0ad0bf0fcc30e9b425f69c132</title>
<g id="a_node5"><a xlink:href="dir_71ba2ac0ad0bf0fcc30e9b425f69c132.html" target="_top" xlink:title="infrastructure">
<polygon fill="#a2b4d6" stroke="#404040" points="134,-36.75 52,-36.75 52,-16 134,-16 134,-36.75"/>
<text xml:space="preserve" text-anchor="middle" x="93" y="-23.25" font-family="Helvetica,sans-Serif" font-size="10.00">infrastructure</text>
</a>
</g>
</g>
<!-- dir_b2f33c71d4aa5e7af42a1ca61ff5af1b&#45;&gt;dir_71ba2ac0ad0bf0fcc30e9b425f69c132 -->
<g id="edge3" class="edge">
<title>dir_b2f33c71d4aa5e7af42a1ca61ff5af1b&#45;&gt;dir_71ba2ac0ad0bf0fcc30e9b425f69c132</title>
<g id="a_edge3"><a xlink:href="dir_000013_000006.html" target="_top">
<path fill="none" stroke="#63b8ff" d="M47.58,-243.24C54.36,-225.56 69.12,-185.34 77,-150.25 84.95,-114.86 89.37,-72.79 91.46,-48.18"/>
<polygon fill="#63b8ff" stroke="#63b8ff" points="94.92,-48.79 92.23,-38.55 87.94,-48.24 94.92,-48.79"/>
</a>
</g>
<g id="a_edge3&#45;headlabel"><a xlink:href="dir_000013_000006.html" target="_top" xlink:title="29">
<text xml:space="preserve" text-anchor="middle" x="97.59" y="-47.97" font-family="Helvetica,sans-Serif" font-size="10.00" fill="#63b8ff">29</text>
</a>
</g>
</g>
<!-- dir_5a3d89802b01ed76e7fc7a2cae772f73 -->
<g id="node6" class="node">
<title>dir_5a3d89802b01ed76e7fc7a2cae772f73</title>
<g id="a_node6"><a xlink:href="dir_5a3d89802b01ed76e7fc7a2cae772f73.html" target="_top" xlink:title="motion">
<polygon fill="#a2b4d6" stroke="#404040" points="187.25,-207 136.75,-207 136.75,-186.25 187.25,-186.25 187.25,-207"/>
<text xml:space="preserve" text-anchor="middle" x="162" y="-193.5" font-family="Helvetica,sans-Serif" font-size="10.00">motion</text>
</a>
</g>
</g>
<!-- dir_b2f33c71d4aa5e7af42a1ca61ff5af1b&#45;&gt;dir_5a3d89802b01ed76e7fc7a2cae772f73 -->
<g id="edge2" class="edge">
<title>dir_b2f33c71d4aa5e7af42a1ca61ff5af1b&#45;&gt;dir_5a3d89802b01ed76e7fc7a2cae772f73</title>
<g id="a_edge2"><a xlink:href="dir_000013_000008.html" target="_top">
<path fill="none" stroke="#63b8ff" d="M64.02,-243.09C82.27,-234.62 109.54,-221.97 130.67,-212.16"/>
<polygon fill="#63b8ff" stroke="#63b8ff" points="132.12,-215.35 139.72,-207.96 129.17,-209 132.12,-215.35"/>
</a>
</g>
<g id="a_edge2&#45;headlabel"><a xlink:href="dir_000013_000008.html" target="_top" xlink:title="27">
<text xml:space="preserve" text-anchor="middle" x="131.42" y="-215.67" font-family="Helvetica,sans-Serif" font-size="10.00" fill="#63b8ff">27</text>
</a>
</g>
</g>
<!-- dir_063a8e477bb5eba1f14d72f72f0c5d08 -->
<g id="node7" class="node">
<title>dir_063a8e477bb5eba1f14d72f72f0c5d08</title>
<g id="a_node7"><a xlink:href="dir_063a8e477bb5eba1f14d72f72f0c5d08.html" target="_top" xlink:title="task_helpers">
<polygon fill="#a2b4d6" stroke="#404040" points="210.12,-93.5 131.88,-93.5 131.88,-72.75 210.12,-72.75 210.12,-93.5"/>
<text xml:space="preserve" text-anchor="middle" x="171" y="-80" font-family="Helvetica,sans-Serif" font-size="10.00">task_helpers</text>
</a>
</g>
</g>
<!-- dir_b2f33c71d4aa5e7af42a1ca61ff5af1b&#45;&gt;dir_063a8e477bb5eba1f14d72f72f0c5d08 -->
<g id="edge1" class="edge">
<title>dir_b2f33c71d4aa5e7af42a1ca61ff5af1b&#45;&gt;dir_063a8e477bb5eba1f14d72f72f0c5d08</title>
<g id="a_edge1"><a xlink:href="dir_000013_000015.html" target="_top">
<path fill="none" stroke="#63b8ff" d="M67.9,-245.44C110.45,-233.06 195.02,-208.32 196,-207 218.88,-176.3 198.52,-129.79 183.54,-103.68"/>
<polygon fill="#63b8ff" stroke="#63b8ff" points="186.54,-101.88 178.37,-95.14 180.55,-105.51 186.54,-101.88"/>
</a>
</g>
<g id="a_edge1&#45;headlabel"><a xlink:href="dir_000013_000015.html" target="_top" xlink:title="28">
<text xml:space="preserve" text-anchor="middle" x="190.05" y="-99.07" font-family="Helvetica,sans-Serif" font-size="10.00" fill="#63b8ff">28</text>
</a>
</g>
</g>
<!-- dir_ba20024af6d0b0711272f59d7b39445a -->
<g id="node2" class="node">
<title>dir_ba20024af6d0b0711272f59d7b39445a</title>
<g id="a_node2"><a xlink:href="dir_ba20024af6d0b0711272f59d7b39445a.html" target="_top" xlink:title="config">
<polygon fill="#a2b4d6" stroke="#404040" points="131.62,-263.75 86.38,-263.75 86.38,-243 131.62,-243 131.62,-263.75"/>
<text xml:space="preserve" text-anchor="middle" x="109" y="-250.25" font-family="Helvetica,sans-Serif" font-size="10.00">config</text>
</a>
</g>
</g>
<!-- dir_dc717eb83389032121409e4c35ccad0a&#45;&gt;dir_71ba2ac0ad0bf0fcc30e9b425f69c132 -->
<g id="edge6" class="edge">
<title>dir_dc717eb83389032121409e4c35ccad0a&#45;&gt;dir_71ba2ac0ad0bf0fcc30e9b425f69c132</title>
<g id="a_edge6"><a xlink:href="dir_000001_000006.html" target="_top">
<path fill="none" stroke="#63b8ff" d="M45.33,-129.3C49.94,-116.29 58.77,-92.4 68,-72.75 72.1,-64.02 77.15,-54.64 81.64,-46.69"/>
<polygon fill="#63b8ff" stroke="#63b8ff" points="84.55,-48.65 86.51,-38.23 78.49,-45.15 84.55,-48.65"/>
</a>
</g>
<g id="a_edge6&#45;headlabel"><a xlink:href="dir_000001_000006.html" target="_top" xlink:title="1">
<text xml:space="preserve" text-anchor="middle" x="85.97" y="-48.74" font-family="Helvetica,sans-Serif" font-size="10.00" fill="#63b8ff">1</text>
</a>
</g>
</g>
<!-- dir_994f02ce98b4f4f84e2e327b8cbd211b&#45;&gt;dir_71ba2ac0ad0bf0fcc30e9b425f69c132 -->
<g id="edge7" class="edge">
<title>dir_994f02ce98b4f4f84e2e327b8cbd211b&#45;&gt;dir_71ba2ac0ad0bf0fcc30e9b425f69c132</title>
<g id="a_edge7"><a xlink:href="dir_000002_000006.html" target="_top">
<path fill="none" stroke="#63b8ff" d="M122.99,-129C118.55,-119.95 112.16,-106.09 108,-93.5 103.07,-78.59 99.21,-61.27 96.64,-48.09"/>
<polygon fill="#63b8ff" stroke="#63b8ff" points="100.11,-47.63 94.85,-38.44 93.23,-48.91 100.11,-47.63"/>
</a>
</g>
<g id="a_edge7&#45;headlabel"><a xlink:href="dir_000002_000006.html" target="_top" xlink:title="5">
<text xml:space="preserve" text-anchor="middle" x="103.28" y="-46.04" font-family="Helvetica,sans-Serif" font-size="10.00" fill="#63b8ff">5</text>
</a>
</g>
</g>
<!-- dir_994f02ce98b4f4f84e2e327b8cbd211b&#45;&gt;dir_063a8e477bb5eba1f14d72f72f0c5d08 -->
<g id="edge8" class="edge">
<title>dir_994f02ce98b4f4f84e2e327b8cbd211b&#45;&gt;dir_063a8e477bb5eba1f14d72f72f0c5d08</title>
<g id="a_edge8"><a xlink:href="dir_000002_000015.html" target="_top">
<path fill="none" stroke="#63b8ff" d="M135.69,-129.09C141.44,-121.77 149.47,-111.54 156.42,-102.69"/>
<polygon fill="#63b8ff" stroke="#63b8ff" points="159.02,-105.05 162.44,-95.02 153.51,-100.72 159.02,-105.05"/>
</a>
</g>
<g id="a_edge8&#45;headlabel"><a xlink:href="dir_000002_000015.html" target="_top" xlink:title="5">
<text xml:space="preserve" text-anchor="middle" x="159.97" y="-105.31" font-family="Helvetica,sans-Serif" font-size="10.00" fill="#63b8ff">5</text>
</a>
</g>
</g>
<!-- dir_5a3d89802b01ed76e7fc7a2cae772f73&#45;&gt;dir_994f02ce98b4f4f84e2e327b8cbd211b -->
<g id="edge11" class="edge">
<title>dir_5a3d89802b01ed76e7fc7a2cae772f73&#45;&gt;dir_994f02ce98b4f4f84e2e327b8cbd211b</title>
<g id="a_edge11"><a xlink:href="dir_000008_000002.html" target="_top">
<path fill="none" stroke="#63b8ff" d="M155.92,-185.84C151.52,-178.75 145.43,-168.94 140.06,-160.29"/>
<polygon fill="#63b8ff" stroke="#63b8ff" points="143.07,-158.51 134.82,-151.86 137.13,-162.21 143.07,-158.51"/>
</a>
</g>
<g id="a_edge11&#45;headlabel"><a xlink:href="dir_000008_000002.html" target="_top" xlink:title="6">
<text xml:space="preserve" text-anchor="middle" x="146.58" y="-155.66" font-family="Helvetica,sans-Serif" font-size="10.00" fill="#63b8ff">6</text>
</a>
</g>
</g>
<!-- dir_5a3d89802b01ed76e7fc7a2cae772f73&#45;&gt;dir_71ba2ac0ad0bf0fcc30e9b425f69c132 -->
<g id="edge10" class="edge">
<title>dir_5a3d89802b01ed76e7fc7a2cae772f73&#45;&gt;dir_71ba2ac0ad0bf0fcc30e9b425f69c132</title>
<g id="a_edge10"><a xlink:href="dir_000008_000006.html" target="_top">
<path fill="none" stroke="#63b8ff" d="M163.63,-186.16C165.48,-172.87 167.25,-148.22 159,-129.5 149.87,-108.8 135.88,-112.1 123,-93.5 113.12,-79.23 105.19,-61.19 99.97,-47.55"/>
<polygon fill="#63b8ff" stroke="#63b8ff" points="103.33,-46.54 96.62,-38.33 96.75,-48.93 103.33,-46.54"/>
</a>
</g>
<g id="a_edge10&#45;headlabel"><a xlink:href="dir_000008_000006.html" target="_top" xlink:title="11">
<text xml:space="preserve" text-anchor="middle" x="106.7" y="-44.4" font-family="Helvetica,sans-Serif" font-size="10.00" fill="#63b8ff">11</text>
</a>
</g>
</g>
<!-- dir_5a3d89802b01ed76e7fc7a2cae772f73&#45;&gt;dir_063a8e477bb5eba1f14d72f72f0c5d08 -->
<g id="edge9" class="edge">
<title>dir_5a3d89802b01ed76e7fc7a2cae772f73&#45;&gt;dir_063a8e477bb5eba1f14d72f72f0c5d08</title>
<g id="a_edge9"><a xlink:href="dir_000008_000015.html" target="_top">
<path fill="none" stroke="#63b8ff" d="M165.31,-186.03C168.26,-176.95 172.36,-162.86 174,-150.25 175.98,-135.05 175.08,-117.74 173.77,-104.64"/>
<polygon fill="#63b8ff" stroke="#63b8ff" points="177.29,-104.61 172.64,-95.09 170.33,-105.43 177.29,-104.61"/>
</a>
</g>
<g id="a_edge9&#45;headlabel"><a xlink:href="dir_000008_000015.html" target="_top" xlink:title="19">
<text xml:space="preserve" text-anchor="middle" x="180.35" y="-103.22" font-family="Helvetica,sans-Serif" font-size="10.00" fill="#63b8ff">19</text>
</a>
</g>
</g>
<!-- dir_063a8e477bb5eba1f14d72f72f0c5d08&#45;&gt;dir_71ba2ac0ad0bf0fcc30e9b425f69c132 -->
<g id="edge12" class="edge">
<title>dir_063a8e477bb5eba1f14d72f72f0c5d08&#45;&gt;dir_71ba2ac0ad0bf0fcc30e9b425f69c132</title>
<g id="a_edge12"><a xlink:href="dir_000015_000006.html" target="_top">
<path fill="none" stroke="#63b8ff" d="M157.06,-72.34C145.63,-64.32 129.23,-52.81 115.89,-43.44"/>
<polygon fill="#63b8ff" stroke="#63b8ff" points="118.26,-40.83 108.06,-37.95 114.24,-46.56 118.26,-40.83"/>
</a>
</g>
<g id="a_edge12&#45;headlabel"><a xlink:href="dir_000015_000006.html" target="_top" xlink:title="2">
<text xml:space="preserve" text-anchor="middle" x="121.59" y="-36.58" font-family="Helvetica,sans-Serif" font-size="10.00" fill="#63b8ff">2</text>
</a>
</g>
</g>
<!-- dir_2d9f98fa70bbafc3e12475d4c13448c2 -->
<g id="node8" class="node">
<title>dir_2d9f98fa70bbafc3e12475d4c13448c2</title>
<g id="a_node8"><a xlink:href="dir_2d9f98fa70bbafc3e12475d4c13448c2.html" target="_top" xlink:title="template">
<polygon fill="#a2b4d6" stroke="#404040" points="210.12,-263.75 149.88,-263.75 149.88,-243 210.12,-243 210.12,-263.75"/>
<text xml:space="preserve" text-anchor="middle" x="180" y="-250.25" font-family="Helvetica,sans-Serif" font-size="10.00">template</text>
</a>
</g>
</g>
</g>
</svg>
