<?xml version="1.0" encoding="UTF-8" standalone="no"?>
<!DOCTYPE svg PUBLIC "-//W3C//DTD SVG 1.1//EN"
 "http://www.w3.org/Graphics/SVG/1.1/DTD/svg11.dtd">
<!-- Generated by graphviz version 14.1.5 (0)
 -->
<!-- Title: source/infrastructure/disk.c Pages: 1 -->
<svg width="263pt" height="155pt"
 viewBox="0.00 0.00 263.00 155.00" xmlns="http://www.w3.org/2000/svg" xmlns:xlink="http://www.w3.org/1999/xlink">
<g id="graph0" class="graph" transform="scale(1 1) rotate(0) translate(4 151)">
<title>source/infrastructure/disk.c</title>
<!-- Node1 -->
<g id="Node000001" class="node">
<title>Node1</title>
<g id="a_Node000001"><a xlink:title=" ">
<polygon fill="#999999" stroke="#666666" points="209.5,-147 92.25,-147 92.25,-113.5 209.5,-113.5 209.5,-147"/>
<text xml:space="preserve" text-anchor="start" x="100.25" y="-133.5" font-family="Helvetica,sans-Serif" font-size="10.00">source/infrastructure</text>
<text xml:space="preserve" text-anchor="middle" x="150.88" y="-120.75" font-family="Helvetica,sans-Serif" font-size="10.00">/disk.c</text>
</a>
</g>
</g>
<!-- Node2 -->
<g id="Node000002" class="node">
<title>Node2</title>
<g id="a_Node000002"><a xlink:href="disk_8h.html" target="_top" xlink:title=" ">
<polygon fill="white" stroke="#666666" points="149,-77.5 34.75,-77.5 34.75,-56.75 149,-56.75 149,-77.5"/>
<text xml:space="preserve" text-anchor="middle" x="91.88" y="-64" font-family="Helvetica,sans-Serif" font-size="10.00">infrastructure/disk.h</text>
</a>
</g>
</g>
<!-- Node1&#45;&gt;Node2 -->
<g id="edge1_Node000001_Node000002" class="edge">
<title>Node1&#45;&gt;Node2</title>
<g id="a_edge1_Node000001_Node000002"><a xlink:title=" ">
<path fill="none" stroke="#63b8ff" d="M135.37,-113.19C127.37,-104.89 117.57,-94.74 109.3,-86.18"/>
<polygon fill="#63b8ff" stroke="#63b8ff" points="111.89,-83.82 102.43,-79.06 106.85,-88.68 111.89,-83.82"/>
</a>
</g>
</g>
<!-- Node6 -->
<g id="Node000006" class="node">
<title>Node6</title>
<g id="a_Node000006"><a xlink:title=" ">
<polygon fill="#e0e0e0" stroke="#999999" points="254.5,-77.5 167.25,-77.5 167.25,-56.75 254.5,-56.75 254.5,-77.5"/>
<text xml:space="preserve" text-anchor="middle" x="210.88" y="-64" font-family="Helvetica,sans-Serif" font-size="10.00">SEGGER_RTT.h</text>
</a>
</g>
</g>
<!-- Node1&#45;&gt;Node6 -->
<g id="edge5_Node000001_Node000006" class="edge">
<title>Node1&#45;&gt;Node6</title>
<g id="a_edge5_Node000001_Node000006"><a xlink:title=" ">
<path fill="none" stroke="#63b8ff" d="M166.64,-113.19C174.78,-104.89 184.75,-94.74 193.16,-86.18"/>
<polygon fill="#63b8ff" stroke="#63b8ff" points="195.65,-88.64 200.15,-79.05 190.65,-83.73 195.65,-88.64"/>
</a>
</g>
</g>
<!-- Node3 -->
<g id="Node000003" class="node">
<title>Node3</title>
<g id="a_Node000003"><a xlink:title=" ">
<polygon fill="#e0e0e0" stroke="#999999" points="31.75,-20.75 0,-20.75 0,0 31.75,0 31.75,-20.75"/>
<text xml:space="preserve" text-anchor="middle" x="15.88" y="-7.25" font-family="Helvetica,sans-Serif" font-size="10.00">ff.h</text>
</a>
</g>
</g>
<!-- Node2&#45;&gt;Node3 -->
<g id="edge2_Node000002_Node000003" class="edge">
<title>Node2&#45;&gt;Node3</title>
<g id="a_edge2_Node000002_Node000003"><a xlink:title=" ">
<path fill="none" stroke="#63b8ff" d="M78.29,-56.34C67.26,-48.4 51.49,-37.03 38.55,-27.71"/>
<polygon fill="#63b8ff" stroke="#63b8ff" points="40.73,-24.97 30.57,-21.96 36.64,-30.65 40.73,-24.97"/>
</a>
</g>
</g>
<!-- Node4 -->
<g id="Node000004" class="node">
<title>Node4</title>
<g id="a_Node000004"><a xlink:title=" ">
<polygon fill="#e0e0e0" stroke="#999999" points="134.38,-20.75 49.38,-20.75 49.38,0 134.38,0 134.38,-20.75"/>
<text xml:space="preserve" text-anchor="middle" x="91.88" y="-7.25" font-family="Helvetica,sans-Serif" font-size="10.00">fsl_common.h</text>
</a>
</g>
</g>
<!-- Node2&#45;&gt;Node4 -->
<g id="edge3_Node000002_Node000004" class="edge">
<title>Node2&#45;&gt;Node4</title>
<g id="a_edge3_Node000002_Node000004"><a xlink:title=" ">
<path fill="none" stroke="#63b8ff" d="M91.88,-56.34C91.88,-49.72 91.88,-40.72 91.88,-32.52"/>
<polygon fill="#63b8ff" stroke="#63b8ff" points="95.38,-32.59 91.88,-22.59 88.38,-32.59 95.38,-32.59"/>
</a>
</g>
</g>
<!-- Node5 -->
<g id="Node000005" class="node">
<title>Node5</title>
<g id="a_Node000005"><a xlink:title=" ">
<polygon fill="#e0e0e0" stroke="#999999" points="207,-20.75 152.75,-20.75 152.75,0 207,0 207,-20.75"/>
<text xml:space="preserve" text-anchor="middle" x="179.88" y="-7.25" font-family="Helvetica,sans-Serif" font-size="10.00">diskio.h</text>
</a>
</g>
</g>
<!-- Node2&#45;&gt;Node5 -->
<g id="edge4_Node000002_Node000005" class="edge">
<title>Node2&#45;&gt;Node5</title>
<g id="a_edge4_Node000002_Node000005"><a xlink:title=" ">
<path fill="none" stroke="#63b8ff" d="M107.61,-56.34C120.75,-48.16 139.72,-36.36 154.93,-26.9"/>
<polygon fill="#63b8ff" stroke="#63b8ff" points="156.35,-30.13 162.99,-21.88 152.65,-24.19 156.35,-30.13"/>
</a>
</g>
</g>
</g>
</svg>
