<?xml version="1.0" encoding="UTF-8" standalone="no"?>
<!DOCTYPE svg PUBLIC "-//W3C//DTD SVG 1.1//EN"
 "http://www.w3.org/Graphics/SVG/1.1/DTD/svg11.dtd">
<!-- Generated by graphviz version 14.1.2 (0)
 -->
<!-- Title: source/disk.h Pages: 1 -->
<svg width="215pt" height="86pt"
 viewBox="0.00 0.00 215.00 86.00" xmlns="http://www.w3.org/2000/svg" xmlns:xlink="http://www.w3.org/1999/xlink">
<g id="graph0" class="graph" transform="scale(1 1) rotate(0) translate(4 81.5)">
<title>source/disk.h</title>
<!-- Node1 -->
<g id="Node000001" class="node">
<title>Node1</title>
<g id="a_Node000001"><a xlink:title=" ">
<polygon fill="#999999" stroke="#666666" points="132.12,-77.5 51.62,-77.5 51.62,-56.75 132.12,-56.75 132.12,-77.5"/>
<text xml:space="preserve" text-anchor="middle" x="91.88" y="-64" font-family="Helvetica,sans-Serif" font-size="10.00">source/disk.h</text>
</a>
</g>
</g>
<!-- Node2 -->
<g id="Node000002" class="node">
<title>Node2</title>
<g id="a_Node000002"><a xlink:title=" ">
<polygon fill="#e0e0e0" stroke="#999999" points="31.75,-20.75 0,-20.75 0,0 31.75,0 31.75,-20.75"/>
<text xml:space="preserve" text-anchor="middle" x="15.88" y="-7.25" font-family="Helvetica,sans-Serif" font-size="10.00">ff.h</text>
</a>
</g>
</g>
<!-- Node1&#45;&gt;Node2 -->
<g id="edge1_Node000001_Node000002" class="edge">
<title>Node1&#45;&gt;Node2</title>
<g id="a_edge1_Node000001_Node000002"><a xlink:title=" ">
<path fill="none" stroke="#63b8ff" d="M78.29,-56.34C67.26,-48.4 51.49,-37.03 38.55,-27.71"/>
<polygon fill="#63b8ff" stroke="#63b8ff" points="40.73,-24.97 30.57,-21.96 36.64,-30.65 40.73,-24.97"/>
</a>
</g>
</g>
<!-- Node3 -->
<g id="Node000003" class="node">
<title>Node3</title>
<g id="a_Node000003"><a xlink:title=" ">
<polygon fill="#e0e0e0" stroke="#999999" points="134.38,-20.75 49.38,-20.75 49.38,0 134.38,0 134.38,-20.75"/>
<text xml:space="preserve" text-anchor="middle" x="91.88" y="-7.25" font-family="Helvetica,sans-Serif" font-size="10.00">fsl_common.h</text>
</a>
</g>
</g>
<!-- Node1&#45;&gt;Node3 -->
<g id="edge2_Node000001_Node000003" class="edge">
<title>Node1&#45;&gt;Node3</title>
<g id="a_edge2_Node000001_Node000003"><a xlink:title=" ">
<path fill="none" stroke="#63b8ff" d="M91.88,-56.34C91.88,-49.72 91.88,-40.72 91.88,-32.52"/>
<polygon fill="#63b8ff" stroke="#63b8ff" points="95.38,-32.59 91.88,-22.59 88.38,-32.59 95.38,-32.59"/>
</a>
</g>
</g>
<!-- Node4 -->
<g id="Node000004" class="node">
<title>Node4</title>
<g id="a_Node000004"><a xlink:title=" ">
<polygon fill="#e0e0e0" stroke="#999999" points="207,-20.75 152.75,-20.75 152.75,0 207,0 207,-20.75"/>
<text xml:space="preserve" text-anchor="middle" x="179.88" y="-7.25" font-family="Helvetica,sans-Serif" font-size="10.00">diskio.h</text>
</a>
</g>
</g>
<!-- Node1&#45;&gt;Node4 -->
<g id="edge3_Node000001_Node000004" class="edge">
<title>Node1&#45;&gt;Node4</title>
<g id="a_edge3_Node000001_Node000004"><a xlink:title=" ">
<path fill="none" stroke="#63b8ff" d="M107.61,-56.34C120.75,-48.16 139.72,-36.36 154.93,-26.9"/>
<polygon fill="#63b8ff" stroke="#63b8ff" points="156.35,-30.13 162.99,-21.88 152.65,-24.19 156.35,-30.13"/>
</a>
</g>
</g>
</g>
</svg>
