<?xml version="1.0" encoding="UTF-8" standalone="no"?>
<!DOCTYPE svg PUBLIC "-//W3C//DTD SVG 1.1//EN"
 "http://www.w3.org/Graphics/SVG/1.1/DTD/svg11.dtd">
<!-- Generated by graphviz version 14.1.5 (0)
 -->
<!-- Title: source/infrastructure/disk.h Pages: 1 -->
<svg width="391pt" height="111pt"
 viewBox="0.00 0.00 391.00 111.00" xmlns="http://www.w3.org/2000/svg" xmlns:xlink="http://www.w3.org/1999/xlink">
<g id="graph0" class="graph" transform="scale(1 1) rotate(0) translate(4 107)">
<title>source/infrastructure/disk.h</title>
<!-- Node1 -->
<g id="Node000001" class="node">
<title>Node1</title>
<g id="a_Node000001"><a xlink:title=" ">
<polygon fill="#999999" stroke="#666666" points="248.38,-103 131.12,-103 131.12,-69.5 248.38,-69.5 248.38,-103"/>
<text xml:space="preserve" text-anchor="start" x="139.12" y="-89.5" font-family="Helvetica,sans-Serif" font-size="10.00">source/infrastructure</text>
<text xml:space="preserve" text-anchor="middle" x="189.75" y="-76.75" font-family="Helvetica,sans-Serif" font-size="10.00">/disk.h</text>
</a>
</g>
</g>
<!-- Node2 -->
<g id="Node000002" class="node">
<title>Node2</title>
<g id="a_Node000002"><a xlink:href="application_8c.html" target="_top" xlink:title=" ">
<polygon fill="white" stroke="#666666" points="113.5,-27.12 0,-27.12 0,-6.38 113.5,-6.38 113.5,-27.12"/>
<text xml:space="preserve" text-anchor="middle" x="56.75" y="-13.62" font-family="Helvetica,sans-Serif" font-size="10.00">source/application.c</text>
</a>
</g>
</g>
<!-- Node1&#45;&gt;Node2 -->
<g id="edge1_Node000001_Node000002" class="edge">
<title>Node1&#45;&gt;Node2</title>
<g id="a_edge1_Node000001_Node000002"><a xlink:title=" ">
<path fill="none" stroke="#63b8ff" d="M147.93,-64.02C123.85,-51.81 94.75,-37.03 76,-27.52"/>
<polygon fill="#63b8ff" stroke="#63b8ff" points="146.04,-66.99 156.54,-68.4 149.21,-60.75 146.04,-66.99"/>
</a>
</g>
</g>
<!-- Node3 -->
<g id="Node000003" class="node">
<title>Node3</title>
<g id="a_Node000003"><a xlink:href="disk_8c.html" target="_top" xlink:title=" ">
<polygon fill="white" stroke="#666666" points="248.38,-33.5 131.12,-33.5 131.12,0 248.38,0 248.38,-33.5"/>
<text xml:space="preserve" text-anchor="start" x="139.12" y="-20" font-family="Helvetica,sans-Serif" font-size="10.00">source/infrastructure</text>
<text xml:space="preserve" text-anchor="middle" x="189.75" y="-7.25" font-family="Helvetica,sans-Serif" font-size="10.00">/disk.c</text>
</a>
</g>
</g>
<!-- Node1&#45;&gt;Node3 -->
<g id="edge2_Node000001_Node000003" class="edge">
<title>Node1&#45;&gt;Node3</title>
<g id="a_edge2_Node000001_Node000003"><a xlink:title=" ">
<path fill="none" stroke="#63b8ff" d="M189.75,-57.81C189.75,-49.59 189.75,-40.84 189.75,-33.63"/>
<polygon fill="#63b8ff" stroke="#63b8ff" points="186.25,-57.74 189.75,-67.74 193.25,-57.74 186.25,-57.74"/>
</a>
</g>
</g>
<!-- Node4 -->
<g id="Node000004" class="node">
<title>Node4</title>
<g id="a_Node000004"><a xlink:href="log_8c.html" target="_top" xlink:title=" ">
<polygon fill="white" stroke="#666666" points="383.38,-33.5 266.12,-33.5 266.12,0 383.38,0 383.38,-33.5"/>
<text xml:space="preserve" text-anchor="start" x="274.12" y="-20" font-family="Helvetica,sans-Serif" font-size="10.00">source/infrastructure</text>
<text xml:space="preserve" text-anchor="middle" x="324.75" y="-7.25" font-family="Helvetica,sans-Serif" font-size="10.00">/log.c</text>
</a>
</g>
</g>
<!-- Node1&#45;&gt;Node4 -->
<g id="edge3_Node000001_Node000004" class="edge">
<title>Node1&#45;&gt;Node4</title>
<g id="a_edge3_Node000001_Node000004"><a xlink:title=" ">
<path fill="none" stroke="#63b8ff" d="M232.26,-63.99C251.81,-54.22 274.61,-42.82 292.68,-33.79"/>
<polygon fill="#63b8ff" stroke="#63b8ff" points="230.82,-60.8 223.44,-68.41 233.95,-67.06 230.82,-60.8"/>
</a>
</g>
</g>
</g>
</svg>
