<?xml version="1.0" encoding="UTF-8" standalone="no"?>
<!DOCTYPE svg PUBLIC "-//W3C//DTD SVG 1.1//EN"
 "http://www.w3.org/Graphics/SVG/1.1/DTD/svg11.dtd">
<!-- Generated by graphviz version 14.1.5 (0)
 -->
<!-- Title: source/estop.h Pages: 1 -->
<svg width="643pt" height="98pt"
 viewBox="0.00 0.00 643.00 98.00" xmlns="http://www.w3.org/2000/svg" xmlns:xlink="http://www.w3.org/1999/xlink">
<g id="graph0" class="graph" transform="scale(1 1) rotate(0) translate(4 94.25)">
<title>source/estop.h</title>
<!-- Node1 -->
<g id="Node000001" class="node">
<title>Node1</title>
<g id="a_Node000001"><a xlink:title=" ">
<polygon fill="#999999" stroke="#666666" points="342.38,-90.25 255.12,-90.25 255.12,-69.5 342.38,-69.5 342.38,-90.25"/>
<text xml:space="preserve" text-anchor="middle" x="298.75" y="-76.75" font-family="Helvetica,sans-Serif" font-size="10.00">source/estop.h</text>
</a>
</g>
</g>
<!-- Node2 -->
<g id="Node000002" class="node">
<title>Node2</title>
<g id="a_Node000002"><a xlink:href="application_8c.html" target="_top" xlink:title=" ">
<polygon fill="white" stroke="#666666" points="113.5,-27.12 0,-27.12 0,-6.38 113.5,-6.38 113.5,-27.12"/>
<text xml:space="preserve" text-anchor="middle" x="56.75" y="-13.62" font-family="Helvetica,sans-Serif" font-size="10.00">source/application.c</text>
</a>
</g>
</g>
<!-- Node1&#45;&gt;Node2 -->
<g id="edge1_Node000001_Node000002" class="edge">
<title>Node1&#45;&gt;Node2</title>
<g id="a_edge1_Node000001_Node000002"><a xlink:title=" ">
<path fill="none" stroke="#63b8ff" d="M248.78,-66.25C203.31,-54.77 137.13,-38.05 95.53,-27.55"/>
<polygon fill="#63b8ff" stroke="#63b8ff" points="247.85,-69.63 258.4,-68.68 249.56,-62.84 247.85,-69.63"/>
</a>
</g>
</g>
<!-- Node3 -->
<g id="Node000003" class="node">
<title>Node3</title>
<g id="a_Node000003"><a xlink:href="estop_8c.html" target="_top" xlink:title=" ">
<polygon fill="white" stroke="#666666" points="218,-27.12 131.5,-27.12 131.5,-6.38 218,-6.38 218,-27.12"/>
<text xml:space="preserve" text-anchor="middle" x="174.75" y="-13.62" font-family="Helvetica,sans-Serif" font-size="10.00">source/estop.c</text>
</a>
</g>
</g>
<!-- Node1&#45;&gt;Node3 -->
<g id="edge2_Node000001_Node000003" class="edge">
<title>Node1&#45;&gt;Node3</title>
<g id="a_edge2_Node000001_Node000003"><a xlink:title=" ">
<path fill="none" stroke="#63b8ff" d="M268.58,-64C245.59,-52.67 214.58,-37.38 194.62,-27.55"/>
<polygon fill="#63b8ff" stroke="#63b8ff" points="266.95,-67.1 277.47,-68.39 270.05,-60.82 266.95,-67.1"/>
</a>
</g>
</g>
<!-- Node4 -->
<g id="Node000004" class="node">
<title>Node4</title>
<g id="a_Node000004"><a xlink:href="step__timing_8c.html" target="_top" xlink:title=" ">
<polygon fill="white" stroke="#666666" points="361.5,-33.5 236,-33.5 236,0 361.5,0 361.5,-33.5"/>
<text xml:space="preserve" text-anchor="start" x="244" y="-20" font-family="Helvetica,sans-Serif" font-size="10.00">source/motion/stepper</text>
<text xml:space="preserve" text-anchor="middle" x="298.75" y="-7.25" font-family="Helvetica,sans-Serif" font-size="10.00">/step_timing.c</text>
</a>
</g>
</g>
<!-- Node1&#45;&gt;Node4 -->
<g id="edge3_Node000001_Node000004" class="edge">
<title>Node1&#45;&gt;Node4</title>
<g id="a_edge3_Node000001_Node000004"><a xlink:title=" ">
<path fill="none" stroke="#63b8ff" d="M298.75,-57.59C298.75,-49.85 298.75,-41.22 298.75,-33.98"/>
<polygon fill="#63b8ff" stroke="#63b8ff" points="295.25,-57.54 298.75,-67.54 302.25,-57.54 295.25,-57.54"/>
</a>
</g>
</g>
<!-- Node5 -->
<g id="Node000005" class="node">
<title>Node5</title>
<g id="a_Node000005"><a xlink:href="motorCmd_8c.html" target="_top" xlink:title=" ">
<polygon fill="white" stroke="#666666" points="490.38,-27.12 379.12,-27.12 379.12,-6.38 490.38,-6.38 490.38,-27.12"/>
<text xml:space="preserve" text-anchor="middle" x="434.75" y="-13.62" font-family="Helvetica,sans-Serif" font-size="10.00">source/motorCmd.c</text>
</a>
</g>
</g>
<!-- Node1&#45;&gt;Node5 -->
<g id="edge4_Node000001_Node000005" class="edge">
<title>Node1&#45;&gt;Node5</title>
<g id="a_edge4_Node000001_Node000005"><a xlink:title=" ">
<path fill="none" stroke="#63b8ff" d="M330.82,-64.46C356.13,-53.09 390.77,-37.52 412.95,-27.55"/>
<polygon fill="#63b8ff" stroke="#63b8ff" points="329.67,-61.14 321.98,-68.43 332.54,-67.53 329.67,-61.14"/>
</a>
</g>
</g>
<!-- Node6 -->
<g id="Node000006" class="node">
<title>Node6</title>
<g id="a_Node000006"><a xlink:href="statemachine_8c.html" target="_top" xlink:title=" ">
<polygon fill="white" stroke="#666666" points="634.88,-27.12 508.62,-27.12 508.62,-6.38 634.88,-6.38 634.88,-27.12"/>
<text xml:space="preserve" text-anchor="middle" x="571.75" y="-13.62" font-family="Helvetica,sans-Serif" font-size="10.00">source/statemachine.c</text>
</a>
</g>
</g>
<!-- Node1&#45;&gt;Node6 -->
<g id="edge5_Node000001_Node000006" class="edge">
<title>Node1&#45;&gt;Node6</title>
<g id="a_edge5_Node000001_Node000006"><a xlink:title=" ">
<path fill="none" stroke="#63b8ff" d="M353.82,-66.54C405.14,-55.05 480.68,-38.14 528,-27.55"/>
<polygon fill="#63b8ff" stroke="#63b8ff" points="353.08,-63.12 344.09,-68.72 354.61,-69.95 353.08,-63.12"/>
</a>
</g>
</g>
</g>
</svg>
