<?xml version="1.0" encoding="UTF-8" standalone="no"?>
<!DOCTYPE svg PUBLIC "-//W3C//DTD SVG 1.1//EN"
 "http://www.w3.org/Graphics/SVG/1.1/DTD/svg11.dtd">
<!-- Generated by graphviz version 14.1.5 (0)
 -->
<!-- Title: source/estop.c Pages: 1 -->
<svg width="146pt" height="142pt"
 viewBox="0.00 0.00 146.00 142.00" xmlns="http://www.w3.org/2000/svg" xmlns:xlink="http://www.w3.org/1999/xlink">
<g id="graph0" class="graph" transform="scale(1 1) rotate(0) translate(4 138.25)">
<title>source/estop.c</title>
<!-- Node1 -->
<g id="Node000001" class="node">
<title>Node1</title>
<g id="a_Node000001"><a xlink:title=" ">
<polygon fill="#999999" stroke="#666666" points="111.75,-134.25 25.25,-134.25 25.25,-113.5 111.75,-113.5 111.75,-134.25"/>
<text xml:space="preserve" text-anchor="middle" x="68.5" y="-120.75" font-family="Helvetica,sans-Serif" font-size="10.00">source/estop.c</text>
</a>
</g>
</g>
<!-- Node2 -->
<g id="Node000002" class="node">
<title>Node2</title>
<g id="a_Node000002"><a xlink:href="estop_8h.html" target="_top" xlink:title=" ">
<polygon fill="white" stroke="#666666" points="56.5,-77.5 4.5,-77.5 4.5,-56.75 56.5,-56.75 56.5,-77.5"/>
<text xml:space="preserve" text-anchor="middle" x="30.5" y="-64" font-family="Helvetica,sans-Serif" font-size="10.00">estop.h</text>
</a>
</g>
</g>
<!-- Node1&#45;&gt;Node2 -->
<g id="edge1_Node000001_Node000002" class="edge">
<title>Node1&#45;&gt;Node2</title>
<g id="a_edge1_Node000001_Node000002"><a xlink:title=" ">
<path fill="none" stroke="#63b8ff" d="M61.71,-113.09C56.73,-105.92 49.83,-95.98 43.78,-87.26"/>
<polygon fill="#63b8ff" stroke="#63b8ff" points="46.68,-85.29 38.1,-79.07 40.92,-89.28 46.68,-85.29"/>
</a>
</g>
</g>
<!-- Node4 -->
<g id="Node000004" class="node">
<title>Node4</title>
<g id="a_Node000004"><a xlink:title=" ">
<polygon fill="#e0e0e0" stroke="#999999" points="138.12,-77.5 74.88,-77.5 74.88,-56.75 138.12,-56.75 138.12,-77.5"/>
<text xml:space="preserve" text-anchor="middle" x="106.5" y="-64" font-family="Helvetica,sans-Serif" font-size="10.00">fsl_gpio.h</text>
</a>
</g>
</g>
<!-- Node1&#45;&gt;Node4 -->
<g id="edge3_Node000001_Node000004" class="edge">
<title>Node1&#45;&gt;Node4</title>
<g id="a_edge3_Node000001_Node000004"><a xlink:title=" ">
<path fill="none" stroke="#63b8ff" d="M75.29,-113.09C80.27,-105.92 87.17,-95.98 93.22,-87.26"/>
<polygon fill="#63b8ff" stroke="#63b8ff" points="96.08,-89.28 98.9,-79.07 90.32,-85.29 96.08,-89.28"/>
</a>
</g>
</g>
<!-- Node3 -->
<g id="Node000003" class="node">
<title>Node3</title>
<g id="a_Node000003"><a xlink:title=" ">
<polygon fill="#e0e0e0" stroke="#999999" points="61,-20.75 0,-20.75 0,0 61,0 61,-20.75"/>
<text xml:space="preserve" text-anchor="middle" x="30.5" y="-7.25" font-family="Helvetica,sans-Serif" font-size="10.00">stdbool.h</text>
</a>
</g>
</g>
<!-- Node2&#45;&gt;Node3 -->
<g id="edge2_Node000002_Node000003" class="edge">
<title>Node2&#45;&gt;Node3</title>
<g id="a_edge2_Node000002_Node000003"><a xlink:title=" ">
<path fill="none" stroke="#63b8ff" d="M30.5,-56.34C30.5,-49.72 30.5,-40.72 30.5,-32.52"/>
<polygon fill="#63b8ff" stroke="#63b8ff" points="34,-32.59 30.5,-22.59 27,-32.59 34,-32.59"/>
</a>
</g>
</g>
</g>
</svg>
