<?xml version="1.0" encoding="UTF-8" standalone="no"?>
<!DOCTYPE svg PUBLIC "-//W3C//DTD SVG 1.1//EN"
 "http://www.w3.org/Graphics/SVG/1.1/DTD/svg11.dtd">
<!-- Generated by graphviz version 14.1.2 (0)
 -->
<!-- Title: drivers/fsl_clock.h Pages: 1 -->
<svg width="621pt" height="142pt"
 viewBox="0.00 0.00 621.00 142.00" xmlns="http://www.w3.org/2000/svg" xmlns:xlink="http://www.w3.org/1999/xlink">
<g id="graph0" class="graph" transform="scale(1 1) rotate(0) translate(4 138.25)">
<title>drivers/fsl_clock.h</title>
<!-- Node1 -->
<g id="Node000001" class="node">
<title>Node1</title>
<g id="a_Node000001"><a xlink:title=" ">
<polygon fill="#999999" stroke="#666666" points="371.75,-134.25 267.25,-134.25 267.25,-113.5 371.75,-113.5 371.75,-134.25"/>
<text xml:space="preserve" text-anchor="middle" x="319.5" y="-120.75" font-family="Helvetica,sans-Serif" font-size="10.00">drivers/fsl_clock.h</text>
</a>
</g>
</g>
<!-- Node2 -->
<g id="Node000002" class="node">
<title>Node2</title>
<g id="a_Node000002"><a xlink:href="fsl__common_8h_source.html" target="_top" xlink:title=" ">
<polygon fill="white" stroke="#666666" points="327,-77.5 242,-77.5 242,-56.75 327,-56.75 327,-77.5"/>
<text xml:space="preserve" text-anchor="middle" x="284.5" y="-64" font-family="Helvetica,sans-Serif" font-size="10.00">fsl_common.h</text>
</a>
</g>
</g>
<!-- Node1&#45;&gt;Node2 -->
<g id="edge1_Node000001_Node000002" class="edge">
<title>Node1&#45;&gt;Node2</title>
<g id="a_edge1_Node000001_Node000002"><a xlink:title=" ">
<path fill="none" stroke="#63b8ff" d="M313.24,-113.09C308.66,-105.92 302.3,-95.98 296.73,-87.26"/>
<polygon fill="#63b8ff" stroke="#63b8ff" points="299.85,-85.64 291.52,-79.1 293.96,-89.41 299.85,-85.64"/>
</a>
</g>
</g>
<!-- Node3 -->
<g id="Node000003" class="node">
<title>Node3</title>
<g id="a_Node000003"><a xlink:title=" ">
<polygon fill="#e0e0e0" stroke="#999999" points="55,-20.75 0,-20.75 0,0 55,0 55,-20.75"/>
<text xml:space="preserve" text-anchor="middle" x="27.5" y="-7.25" font-family="Helvetica,sans-Serif" font-size="10.00">assert.h</text>
</a>
</g>
</g>
<!-- Node2&#45;&gt;Node3 -->
<g id="edge2_Node000002_Node000003" class="edge">
<title>Node2&#45;&gt;Node3</title>
<g id="a_edge2_Node000002_Node000003"><a xlink:title=" ">
<path fill="none" stroke="#63b8ff" d="M241.58,-58C199.29,-49.85 132.61,-36.58 66.42,-21.35"/>
<polygon fill="#63b8ff" stroke="#63b8ff" points="67.38,-17.98 56.85,-19.13 65.8,-24.8 67.38,-17.98"/>
</a>
</g>
</g>
<!-- Node4 -->
<g id="Node000004" class="node">
<title>Node4</title>
<g id="a_Node000004"><a xlink:title=" ">
<polygon fill="#e0e0e0" stroke="#999999" points="134,-20.75 73,-20.75 73,0 134,0 134,-20.75"/>
<text xml:space="preserve" text-anchor="middle" x="103.5" y="-7.25" font-family="Helvetica,sans-Serif" font-size="10.00">stdbool.h</text>
</a>
</g>
</g>
<!-- Node2&#45;&gt;Node4 -->
<g id="edge3_Node000002_Node000004" class="edge">
<title>Node2&#45;&gt;Node4</title>
<g id="a_edge3_Node000002_Node000004"><a xlink:title=" ">
<path fill="none" stroke="#63b8ff" d="M252.14,-56.34C222.31,-47.31 177.85,-33.87 145.33,-24.03"/>
<polygon fill="#63b8ff" stroke="#63b8ff" points="146.4,-20.7 135.82,-21.15 144.38,-27.4 146.4,-20.7"/>
</a>
</g>
</g>
<!-- Node5 -->
<g id="Node000005" class="node">
<title>Node5</title>
<g id="a_Node000005"><a xlink:title=" ">
<polygon fill="#e0e0e0" stroke="#999999" points="204.88,-20.75 152.12,-20.75 152.12,0 204.88,0 204.88,-20.75"/>
<text xml:space="preserve" text-anchor="middle" x="178.5" y="-7.25" font-family="Helvetica,sans-Serif" font-size="10.00">stdint.h</text>
</a>
</g>
</g>
<!-- Node2&#45;&gt;Node5 -->
<g id="edge4_Node000002_Node000005" class="edge">
<title>Node2&#45;&gt;Node5</title>
<g id="a_edge4_Node000002_Node000005"><a xlink:title=" ">
<path fill="none" stroke="#63b8ff" d="M265.55,-56.34C249.42,-48.01 226,-35.91 207.51,-26.36"/>
<polygon fill="#63b8ff" stroke="#63b8ff" points="209.12,-23.25 198.63,-21.77 205.91,-29.47 209.12,-23.25"/>
</a>
</g>
</g>
<!-- Node6 -->
<g id="Node000006" class="node">
<title>Node6</title>
<g id="a_Node000006"><a xlink:title=" ">
<polygon fill="#e0e0e0" stroke="#999999" points="275.88,-20.75 223.12,-20.75 223.12,0 275.88,0 275.88,-20.75"/>
<text xml:space="preserve" text-anchor="middle" x="249.5" y="-7.25" font-family="Helvetica,sans-Serif" font-size="10.00">string.h</text>
</a>
</g>
</g>
<!-- Node2&#45;&gt;Node6 -->
<g id="edge5_Node000002_Node000006" class="edge">
<title>Node2&#45;&gt;Node6</title>
<g id="a_edge5_Node000002_Node000006"><a xlink:title=" ">
<path fill="none" stroke="#63b8ff" d="M278.24,-56.34C273.66,-49.17 267.3,-39.23 261.73,-30.51"/>
<polygon fill="#63b8ff" stroke="#63b8ff" points="264.85,-28.89 256.52,-22.35 258.96,-32.66 264.85,-28.89"/>
</a>
</g>
</g>
<!-- Node7 -->
<g id="Node000007" class="node">
<title>Node7</title>
<g id="a_Node000007"><a xlink:title=" ">
<polygon fill="#e0e0e0" stroke="#999999" points="345.5,-20.75 293.5,-20.75 293.5,0 345.5,0 345.5,-20.75"/>
<text xml:space="preserve" text-anchor="middle" x="319.5" y="-7.25" font-family="Helvetica,sans-Serif" font-size="10.00">stdlib.h</text>
</a>
</g>
</g>
<!-- Node2&#45;&gt;Node7 -->
<g id="edge6_Node000002_Node000007" class="edge">
<title>Node2&#45;&gt;Node7</title>
<g id="a_edge6_Node000002_Node000007"><a xlink:title=" ">
<path fill="none" stroke="#63b8ff" d="M290.76,-56.34C295.34,-49.17 301.7,-39.23 307.27,-30.51"/>
<polygon fill="#63b8ff" stroke="#63b8ff" points="310.04,-32.66 312.48,-22.35 304.15,-28.89 310.04,-32.66"/>
</a>
</g>
</g>
<!-- Node8 -->
<g id="Node000008" class="node">
<title>Node8</title>
<g id="a_Node000008"><a xlink:href="fsl__device__registers_8h_source.html" target="_top" xlink:title=" ">
<polygon fill="white" stroke="#666666" points="485.75,-20.75 363.25,-20.75 363.25,0 485.75,0 485.75,-20.75"/>
<text xml:space="preserve" text-anchor="middle" x="424.5" y="-7.25" font-family="Helvetica,sans-Serif" font-size="10.00">fsl_device_registers.h</text>
</a>
</g>
</g>
<!-- Node2&#45;&gt;Node8 -->
<g id="edge7_Node000002_Node000008" class="edge">
<title>Node2&#45;&gt;Node8</title>
<g id="a_edge7_Node000002_Node000008"><a xlink:title=" ">
<path fill="none" stroke="#63b8ff" d="M309.53,-56.34C331.73,-47.66 364.39,-34.88 389.23,-25.17"/>
<polygon fill="#63b8ff" stroke="#63b8ff" points="390.24,-28.53 398.28,-21.63 387.69,-22.01 390.24,-28.53"/>
</a>
</g>
</g>
<!-- Node9 -->
<g id="Node000009" class="node">
<title>Node9</title>
<g id="a_Node000009"><a xlink:href="fsl__common__arm_8h_source.html" target="_top" xlink:title=" ">
<polygon fill="white" stroke="#666666" points="613.38,-20.75 503.62,-20.75 503.62,0 613.38,0 613.38,-20.75"/>
<text xml:space="preserve" text-anchor="middle" x="558.5" y="-7.25" font-family="Helvetica,sans-Serif" font-size="10.00">fsl_common_arm.h</text>
</a>
</g>
</g>
<!-- Node2&#45;&gt;Node9 -->
<g id="edge8_Node000002_Node000009" class="edge">
<title>Node2&#45;&gt;Node9</title>
<g id="a_edge8_Node000002_Node000009"><a xlink:title=" ">
<path fill="none" stroke="#63b8ff" d="M327.31,-57.57C373.31,-48.38 446.75,-33.7 498.49,-23.37"/>
<polygon fill="#63b8ff" stroke="#63b8ff" points="498.91,-26.85 508.03,-21.46 497.54,-19.99 498.91,-26.85"/>
</a>
</g>
</g>
<!-- Node9&#45;&gt;Node1 -->
<g id="edge9_Node000009_Node000001" class="edge">
<title>Node9&#45;&gt;Node1</title>
<g id="a_edge9_Node000009_Node000001"><a xlink:title=" ">
<path fill="none" stroke="#63b8ff" d="M537.59,-21.13C495.46,-40.78 400.2,-85.22 350.7,-108.32"/>
<polygon fill="#63b8ff" stroke="#63b8ff" points="349.25,-105.14 341.66,-112.54 352.21,-111.48 349.25,-105.14"/>
</a>
</g>
</g>
</g>
</svg>
