<?xml version="1.0" encoding="UTF-8" standalone="no"?>
<!DOCTYPE svg PUBLIC "-//W3C//DTD SVG 1.1//EN"
 "http://www.w3.org/Graphics/SVG/1.1/DTD/svg11.dtd">
<!-- Generated by graphviz version 14.1.5 (0)
 -->
<!-- Title: source/grabber.c Pages: 1 -->
<svg width="1245pt" height="369pt"
 viewBox="0.00 0.00 1245.00 369.00" xmlns="http://www.w3.org/2000/svg" xmlns:xlink="http://www.w3.org/1999/xlink">
<g id="graph0" class="graph" transform="scale(1 1) rotate(0) translate(4 365.25)">
<title>source/grabber.c</title>
<!-- Node1 -->
<g id="Node000001" class="node">
<title>Node1</title>
<g id="a_Node000001"><a xlink:title=" ">
<polygon fill="#999999" stroke="#666666" points="373.25,-361.25 277,-361.25 277,-340.5 373.25,-340.5 373.25,-361.25"/>
<text xml:space="preserve" text-anchor="middle" x="325.13" y="-347.75" font-family="Helvetica,sans-Serif" font-size="10.00">source/grabber.c</text>
</a>
</g>
</g>
<!-- Node2 -->
<g id="Node000002" class="node">
<title>Node2</title>
<g id="a_Node000002"><a xlink:href="grabber_8h.html" target="_top" xlink:title=" ">
<polygon fill="white" stroke="#666666" points="259,-304.5 197.25,-304.5 197.25,-283.75 259,-283.75 259,-304.5"/>
<text xml:space="preserve" text-anchor="middle" x="228.13" y="-291" font-family="Helvetica,sans-Serif" font-size="10.00">grabber.h</text>
</a>
</g>
</g>
<!-- Node1&#45;&gt;Node2 -->
<g id="edge1_Node000001_Node000002" class="edge">
<title>Node1&#45;&gt;Node2</title>
<g id="a_edge1_Node000001_Node000002"><a xlink:title=" ">
<path fill="none" stroke="#63b8ff" d="M307.79,-340.09C293.17,-331.83 271.99,-319.88 255.15,-310.38"/>
<polygon fill="#63b8ff" stroke="#63b8ff" points="257.07,-307.44 246.64,-305.57 253.63,-313.54 257.07,-307.44"/>
</a>
</g>
</g>
<!-- Node3 -->
<g id="Node000003" class="node">
<title>Node3</title>
<g id="a_Node000003"><a xlink:href="motor__core_8h.html" target="_top" xlink:title=" ">
<polygon fill="white" stroke="#666666" points="969.38,-247.75 888.88,-247.75 888.88,-227 969.38,-227 969.38,-247.75"/>
<text xml:space="preserve" text-anchor="middle" x="929.13" y="-234.25" font-family="Helvetica,sans-Serif" font-size="10.00">motor_core.h</text>
</a>
</g>
</g>
<!-- Node1&#45;&gt;Node3 -->
<g id="edge2_Node000001_Node000003" class="edge">
<title>Node1&#45;&gt;Node3</title>
<g id="a_edge2_Node000001_Node000003"><a xlink:title=" ">
<path fill="none" stroke="#63b8ff" d="M373.54,-340.94C485.58,-320.26 761.98,-269.23 877.3,-247.94"/>
<polygon fill="#63b8ff" stroke="#63b8ff" points="877.91,-251.39 887.11,-246.13 876.64,-244.51 877.91,-251.39"/>
</a>
</g>
</g>
<!-- Node14 -->
<g id="Node000014" class="node">
<title>Node14</title>
<g id="a_Node000014"><a xlink:href="cmd__handle_8h.html" target="_top" xlink:title=" ">
<polygon fill="white" stroke="#666666" points="269.25,-134.25 185,-134.25 185,-113.5 269.25,-113.5 269.25,-134.25"/>
<text xml:space="preserve" text-anchor="middle" x="227.13" y="-120.75" font-family="Helvetica,sans-Serif" font-size="10.00">cmd_handle.h</text>
</a>
</g>
</g>
<!-- Node1&#45;&gt;Node14 -->
<g id="edge50_Node000001_Node000014" class="edge">
<title>Node1&#45;&gt;Node14</title>
<g id="a_edge50_Node000001_Node000014"><a xlink:title=" ">
<path fill="none" stroke="#63b8ff" d="M320.92,-340.21C306.09,-306.17 256.11,-191.4 235.81,-144.8"/>
<polygon fill="#63b8ff" stroke="#63b8ff" points="239.13,-143.67 231.93,-135.89 232.71,-146.46 239.13,-143.67"/>
</a>
</g>
</g>
<!-- Node23 -->
<g id="Node000023" class="node">
<title>Node23</title>
<g id="a_Node000023"><a xlink:href="motor__configs_8h.html" target="_top" xlink:title=" ">
<polygon fill="white" stroke="#666666" points="1124.13,-304.5 1030.13,-304.5 1030.13,-283.75 1124.13,-283.75 1124.13,-304.5"/>
<text xml:space="preserve" text-anchor="middle" x="1077.13" y="-291" font-family="Helvetica,sans-Serif" font-size="10.00">motor_configs.h</text>
</a>
</g>
</g>
<!-- Node1&#45;&gt;Node23 -->
<g id="edge40_Node000001_Node000023" class="edge">
<title>Node1&#45;&gt;Node23</title>
<g id="a_edge40_Node000001_Node000023"><a xlink:title=" ">
<path fill="none" stroke="#63b8ff" d="M373.6,-346.35C506.27,-336.69 874.98,-309.84 1018.71,-299.38"/>
<polygon fill="#63b8ff" stroke="#63b8ff" points="1018.65,-302.89 1028.37,-298.67 1018.14,-295.91 1018.65,-302.89"/>
</a>
</g>
</g>
<!-- Node24 -->
<g id="Node000024" class="node">
<title>Node24</title>
<g id="a_Node000024"><a xlink:href="sync__wait_8h.html" target="_top" xlink:title=" ">
<polygon fill="white" stroke="#666666" points="229,-191 155.25,-191 155.25,-170.25 229,-170.25 229,-191"/>
<text xml:space="preserve" text-anchor="middle" x="192.13" y="-177.5" font-family="Helvetica,sans-Serif" font-size="10.00">sync_wait.h</text>
</a>
</g>
</g>
<!-- Node1&#45;&gt;Node24 -->
<g id="edge44_Node000001_Node000024" class="edge">
<title>Node1&#45;&gt;Node24</title>
<g id="a_edge44_Node000001_Node000024"><a xlink:title=" ">
<path fill="none" stroke="#63b8ff" d="M317.6,-340.35C296.3,-313.41 235.35,-236.31 206.99,-200.42"/>
<polygon fill="#63b8ff" stroke="#63b8ff" points="209.8,-198.33 200.85,-192.65 204.3,-202.67 209.8,-198.33"/>
</a>
</g>
</g>
<!-- Node4 -->
<g id="Node000004" class="node">
<title>Node4</title>
<g id="a_Node000004"><a xlink:href="pca9555a_8h.html" target="_top" xlink:title=" ">
<polygon fill="white" stroke="#666666" points="1209.13,-77.5 1055.13,-77.5 1055.13,-56.75 1209.13,-56.75 1209.13,-77.5"/>
<text xml:space="preserve" text-anchor="middle" x="1132.13" y="-64" font-family="Helvetica,sans-Serif" font-size="10.00">driver/pca9555a/pca9555a.h</text>
</a>
</g>
</g>
<!-- Node3&#45;&gt;Node4 -->
<g id="edge3_Node000003_Node000004" class="edge">
<title>Node3&#45;&gt;Node4</title>
<g id="a_edge3_Node000003_Node000004"><a xlink:title=" ">
<path fill="none" stroke="#63b8ff" d="M940.92,-226.6C974.21,-199.01 1069.21,-120.27 1111.45,-85.27"/>
<polygon fill="#63b8ff" stroke="#63b8ff" points="1113.67,-87.97 1119.14,-78.89 1109.21,-82.58 1113.67,-87.97"/>
</a>
</g>
</g>
<!-- Node7 -->
<g id="Node000007" class="node">
<title>Node7</title>
<g id="a_Node000007"><a xlink:title=" ">
<polygon fill="#e0e0e0" stroke="#999999" points="1197.5,-191 1108.75,-191 1108.75,-170.25 1197.5,-170.25 1197.5,-191"/>
<text xml:space="preserve" text-anchor="middle" x="1153.13" y="-177.5" font-family="Helvetica,sans-Serif" font-size="10.00">MK22F51212.h</text>
</a>
</g>
</g>
<!-- Node3&#45;&gt;Node7 -->
<g id="edge6_Node000003_Node000007" class="edge">
<title>Node3&#45;&gt;Node7</title>
<g id="a_edge6_Node000003_Node000007"><a xlink:title=" ">
<path fill="none" stroke="#63b8ff" d="M969.44,-226.52C1006.43,-217.48 1061.43,-204.04 1101.6,-194.22"/>
<polygon fill="#63b8ff" stroke="#63b8ff" points="1102.42,-197.62 1111.3,-191.85 1100.76,-190.82 1102.42,-197.62"/>
</a>
</g>
</g>
<!-- Node8 -->
<g id="Node000008" class="node">
<title>Node8</title>
<g id="a_Node000008"><a xlink:href="step__core_8h.html" target="_top" xlink:title=" ">
<polygon fill="white" stroke="#666666" points="786.25,-191 714,-191 714,-170.25 786.25,-170.25 786.25,-191"/>
<text xml:space="preserve" text-anchor="middle" x="750.13" y="-177.5" font-family="Helvetica,sans-Serif" font-size="10.00">step_core.h</text>
</a>
</g>
</g>
<!-- Node3&#45;&gt;Node8 -->
<g id="edge7_Node000003_Node000008" class="edge">
<title>Node3&#45;&gt;Node8</title>
<g id="a_edge7_Node000003_Node000008"><a xlink:title=" ">
<path fill="none" stroke="#63b8ff" d="M897.13,-226.59C868.07,-217.7 825,-204.52 792.98,-194.73"/>
<polygon fill="#63b8ff" stroke="#63b8ff" points="794.19,-191.44 783.6,-191.86 792.14,-198.14 794.19,-191.44"/>
</a>
</g>
</g>
<!-- Node11 -->
<g id="Node000011" class="node">
<title>Node11</title>
<g id="a_Node000011"><a xlink:title=" ">
<polygon fill="#e0e0e0" stroke="#999999" points="697.5,-77.5 638.75,-77.5 638.75,-56.75 697.5,-56.75 697.5,-77.5"/>
<text xml:space="preserve" text-anchor="middle" x="668.13" y="-64" font-family="Helvetica,sans-Serif" font-size="10.00">fsl_ftm.h</text>
</a>
</g>
</g>
<!-- Node3&#45;&gt;Node11 -->
<g id="edge37_Node000003_Node000011" class="edge">
<title>Node3&#45;&gt;Node11</title>
<g id="a_edge37_Node000003_Node000011"><a xlink:title=" ">
<path fill="none" stroke="#63b8ff" d="M888.6,-233.11C831.54,-227.72 731.52,-215.06 705.13,-191 676.27,-164.7 669.59,-116.83 668.24,-89.24"/>
<polygon fill="#63b8ff" stroke="#63b8ff" points="671.74,-89.24 667.97,-79.34 664.74,-89.43 671.74,-89.24"/>
</a>
</g>
</g>
<!-- Node12 -->
<g id="Node000012" class="node">
<title>Node12</title>
<g id="a_Node000012"><a xlink:title=" ">
<polygon fill="#e0e0e0" stroke="#999999" points="956.75,-77.5 893.5,-77.5 893.5,-56.75 956.75,-56.75 956.75,-77.5"/>
<text xml:space="preserve" text-anchor="middle" x="925.13" y="-64" font-family="Helvetica,sans-Serif" font-size="10.00">fsl_gpio.h</text>
</a>
</g>
</g>
<!-- Node3&#45;&gt;Node12 -->
<g id="edge38_Node000003_Node000012" class="edge">
<title>Node3&#45;&gt;Node12</title>
<g id="a_edge38_Node000003_Node000012"><a xlink:title=" ">
<path fill="none" stroke="#63b8ff" d="M928.9,-226.85C928.28,-200.48 926.51,-126.08 925.63,-89.28"/>
<polygon fill="#63b8ff" stroke="#63b8ff" points="929.14,-89.39 925.4,-79.48 922.14,-89.56 929.14,-89.39"/>
</a>
</g>
</g>
<!-- Node13 -->
<g id="Node000013" class="node">
<title>Node13</title>
<g id="a_Node000013"><a xlink:title=" ">
<polygon fill="#e0e0e0" stroke="#999999" points="1037,-77.5 975.25,-77.5 975.25,-56.75 1037,-56.75 1037,-77.5"/>
<text xml:space="preserve" text-anchor="middle" x="1006.13" y="-64" font-family="Helvetica,sans-Serif" font-size="10.00">fsl_port.h</text>
</a>
</g>
</g>
<!-- Node3&#45;&gt;Node13 -->
<g id="edge39_Node000003_Node000013" class="edge">
<title>Node3&#45;&gt;Node13</title>
<g id="a_edge39_Node000003_Node000013"><a xlink:title=" ">
<path fill="none" stroke="#63b8ff" d="M933.49,-226.85C945.66,-200.25 980.2,-124.77 996.89,-88.32"/>
<polygon fill="#63b8ff" stroke="#63b8ff" points="1000.02,-89.89 1001,-79.34 993.65,-86.98 1000.02,-89.89"/>
</a>
</g>
</g>
<!-- Node20 -->
<g id="Node000020" class="node">
<title>Node20</title>
<g id="a_Node000020"><a xlink:href="tmc2209__core_8h.html" target="_top" xlink:title=" ">
<polygon fill="white" stroke="#666666" points="480.13,-191 386.13,-191 386.13,-170.25 480.13,-170.25 480.13,-191"/>
<text xml:space="preserve" text-anchor="middle" x="433.13" y="-177.5" font-family="Helvetica,sans-Serif" font-size="10.00">tmc2209_core.h</text>
</a>
</g>
</g>
<!-- Node3&#45;&gt;Node20 -->
<g id="edge29_Node000003_Node000020" class="edge">
<title>Node3&#45;&gt;Node20</title>
<g id="a_edge29_Node000003_Node000020"><a xlink:title=" ">
<path fill="none" stroke="#63b8ff" d="M888.54,-231.89C800.88,-222.22 593.56,-199.33 491.69,-188.09"/>
<polygon fill="#63b8ff" stroke="#63b8ff" points="492.22,-184.63 481.9,-187.01 491.45,-191.58 492.22,-184.63"/>
</a>
</g>
</g>
<!-- Node5 -->
<g id="Node000005" class="node">
<title>Node5</title>
<g id="a_Node000005"><a xlink:title=" ">
<polygon fill="#e0e0e0" stroke="#999999" points="498.63,-20.75 413.63,-20.75 413.63,0 498.63,0 498.63,-20.75"/>
<text xml:space="preserve" text-anchor="middle" x="456.13" y="-7.25" font-family="Helvetica,sans-Serif" font-size="10.00">fsl_common.h</text>
</a>
</g>
</g>
<!-- Node4&#45;&gt;Node5 -->
<g id="edge4_Node000004_Node000005" class="edge">
<title>Node4&#45;&gt;Node5</title>
<g id="a_edge4_Node000004_Node000005"><a xlink:title=" ">
<path fill="none" stroke="#63b8ff" d="M1054.79,-57.58C1051.86,-57.29 1048.97,-57.01 1046.13,-56.75 849.14,-38.44 614.65,-22 510.55,-14.98"/>
<polygon fill="#63b8ff" stroke="#63b8ff" points="510.83,-11.49 500.62,-14.31 510.36,-18.47 510.83,-11.49"/>
</a>
</g>
</g>
<!-- Node6 -->
<g id="Node000006" class="node">
<title>Node6</title>
<g id="a_Node000006"><a xlink:title=" ">
<polygon fill="#e0e0e0" stroke="#999999" points="1172,-20.75 1092.25,-20.75 1092.25,0 1172,0 1172,-20.75"/>
<text xml:space="preserve" text-anchor="middle" x="1132.13" y="-7.25" font-family="Helvetica,sans-Serif" font-size="10.00">peripherals.h</text>
</a>
</g>
</g>
<!-- Node4&#45;&gt;Node6 -->
<g id="edge5_Node000004_Node000006" class="edge">
<title>Node4&#45;&gt;Node6</title>
<g id="a_edge5_Node000004_Node000006"><a xlink:title=" ">
<path fill="none" stroke="#63b8ff" d="M1132.13,-56.34C1132.13,-49.72 1132.13,-40.72 1132.13,-32.52"/>
<polygon fill="#63b8ff" stroke="#63b8ff" points="1135.63,-32.59 1132.13,-22.59 1128.63,-32.59 1135.63,-32.59"/>
</a>
</g>
</g>
<!-- Node8&#45;&gt;Node4 -->
<g id="edge8_Node000008_Node000004" class="edge">
<title>Node8&#45;&gt;Node4</title>
<g id="a_edge8_Node000008_Node000004"><a xlink:title=" ">
<path fill="none" stroke="#63b8ff" d="M786.51,-172.19C825.35,-163.99 888.53,-149.87 942.13,-134.25 996.46,-118.42 1058.11,-96.15 1096.07,-81.92"/>
<polygon fill="#63b8ff" stroke="#63b8ff" points="1097.05,-85.29 1105.17,-78.49 1094.58,-78.74 1097.05,-85.29"/>
</a>
</g>
</g>
<!-- Node8&#45;&gt;Node5 -->
<g id="edge11_Node000008_Node000005" class="edge">
<title>Node8&#45;&gt;Node5</title>
<g id="a_edge11_Node000008_Node000005"><a xlink:title=" ">
<path fill="none" stroke="#63b8ff" d="M736.23,-170.05C704.65,-148.5 624.74,-95.03 554.13,-56.75 533.23,-45.42 508.98,-34.18 489.84,-25.72"/>
<polygon fill="#63b8ff" stroke="#63b8ff" points="491.46,-22.61 480.89,-21.81 488.65,-29.02 491.46,-22.61"/>
</a>
</g>
</g>
<!-- Node9 -->
<g id="Node000009" class="node">
<title>Node9</title>
<g id="a_Node000009"><a xlink:title=" ">
<polygon fill="#e0e0e0" stroke="#999999" points="271.88,-77.5 200.38,-77.5 200.38,-56.75 271.88,-56.75 271.88,-77.5"/>
<text xml:space="preserve" text-anchor="middle" x="236.13" y="-64" font-family="Helvetica,sans-Serif" font-size="10.00">FreeRTOS.h</text>
</a>
</g>
</g>
<!-- Node8&#45;&gt;Node9 -->
<g id="edge9_Node000008_Node000009" class="edge">
<title>Node8&#45;&gt;Node9</title>
<g id="a_edge9_Node000008_Node000009"><a xlink:title=" ">
<path fill="none" stroke="#63b8ff" d="M713.72,-176.7C653.91,-171.41 531.36,-158.45 430.13,-134.25 373.12,-120.62 309.14,-97.15 270.78,-82.15"/>
<polygon fill="#63b8ff" stroke="#63b8ff" points="272.19,-78.94 261.61,-78.53 269.62,-85.45 272.19,-78.94"/>
</a>
</g>
</g>
<!-- Node10 -->
<g id="Node000010" class="node">
<title>Node10</title>
<g id="a_Node000010"><a xlink:title=" ">
<polygon fill="#e0e0e0" stroke="#999999" points="799.13,-134.25 753.13,-134.25 753.13,-113.5 799.13,-113.5 799.13,-134.25"/>
<text xml:space="preserve" text-anchor="middle" x="776.13" y="-120.75" font-family="Helvetica,sans-Serif" font-size="10.00">task.h</text>
</a>
</g>
</g>
<!-- Node8&#45;&gt;Node10 -->
<g id="edge10_Node000008_Node000010" class="edge">
<title>Node8&#45;&gt;Node10</title>
<g id="a_edge10_Node000008_Node000010"><a xlink:title=" ">
<path fill="none" stroke="#63b8ff" d="M754.78,-169.84C758.07,-162.91 762.6,-153.37 766.64,-144.86"/>
<polygon fill="#63b8ff" stroke="#63b8ff" points="769.74,-146.48 770.87,-135.95 763.42,-143.48 769.74,-146.48"/>
</a>
</g>
</g>
<!-- Node8&#45;&gt;Node11 -->
<g id="edge12_Node000008_Node000011" class="edge">
<title>Node8&#45;&gt;Node11</title>
<g id="a_edge12_Node000008_Node000011"><a xlink:title=" ">
<path fill="none" stroke="#63b8ff" d="M741.06,-169.85C732.89,-160.87 720.73,-147.05 711.13,-134.25 699.72,-119.03 688.04,-100.87 679.73,-87.43"/>
<polygon fill="#63b8ff" stroke="#63b8ff" points="682.85,-85.82 674.66,-79.1 676.87,-89.46 682.85,-85.82"/>
</a>
</g>
</g>
<!-- Node8&#45;&gt;Node12 -->
<g id="edge13_Node000008_Node000012" class="edge">
<title>Node8&#45;&gt;Node12</title>
<g id="a_edge13_Node000008_Node000012"><a xlink:title=" ">
<path fill="none" stroke="#63b8ff" d="M745.48,-169.93C739.52,-155.9 731.37,-129.86 744.13,-113.5 746.3,-110.72 829.34,-90.71 882.18,-78.21"/>
<polygon fill="#63b8ff" stroke="#63b8ff" points="882.88,-81.64 891.81,-75.93 881.27,-74.83 882.88,-81.64"/>
</a>
</g>
</g>
<!-- Node8&#45;&gt;Node13 -->
<g id="edge14_Node000008_Node000013" class="edge">
<title>Node8&#45;&gt;Node13</title>
<g id="a_edge14_Node000008_Node000013"><a xlink:title=" ">
<path fill="none" stroke="#63b8ff" d="M786.61,-172.84C819.84,-165.84 869.77,-153.24 910.13,-134.25 938.36,-120.97 967.39,-99.71 986.03,-84.9"/>
<polygon fill="#63b8ff" stroke="#63b8ff" points="988.03,-87.78 993.6,-78.76 983.62,-82.34 988.03,-87.78"/>
</a>
</g>
</g>
<!-- Node8&#45;&gt;Node14 -->
<g id="edge15_Node000008_Node000014" class="edge">
<title>Node8&#45;&gt;Node14</title>
<g id="a_edge15_Node000008_Node000014"><a xlink:title=" ">
<path fill="none" stroke="#63b8ff" d="M713.77,-175.82C623.34,-166.35 387.92,-141.71 281.16,-130.53"/>
<polygon fill="#63b8ff" stroke="#63b8ff" points="281.53,-127.05 271.22,-129.49 280.8,-134.01 281.53,-127.05"/>
</a>
</g>
</g>
<!-- Node18 -->
<g id="Node000018" class="node">
<title>Node18</title>
<g id="a_Node000018"><a xlink:href="step__shared_8h.html" target="_top" xlink:title=" ">
<polygon fill="white" stroke="#666666" points="901.25,-134.25 817,-134.25 817,-113.5 901.25,-113.5 901.25,-134.25"/>
<text xml:space="preserve" text-anchor="middle" x="859.13" y="-120.75" font-family="Helvetica,sans-Serif" font-size="10.00">step_shared.h</text>
</a>
</g>
</g>
<!-- Node8&#45;&gt;Node18 -->
<g id="edge21_Node000008_Node000018" class="edge">
<title>Node8&#45;&gt;Node18</title>
<g id="a_edge21_Node000008_Node000018"><a xlink:title=" ">
<path fill="none" stroke="#63b8ff" d="M769.62,-169.84C786.28,-161.47 810.51,-149.29 829.57,-139.72"/>
<polygon fill="#63b8ff" stroke="#63b8ff" points="831.09,-142.87 838.46,-135.26 827.95,-136.62 831.09,-142.87"/>
</a>
</g>
</g>
<!-- Node14&#45;&gt;Node5 -->
<g id="edge19_Node000014_Node000005" class="edge">
<title>Node14&#45;&gt;Node5</title>
<g id="a_edge19_Node000014_Node000005"><a xlink:title=" ">
<path fill="none" stroke="#63b8ff" d="M239.03,-113.2C256.7,-99.2 291.33,-73.19 324.13,-56.75 350.93,-43.32 382.64,-32.27 408.27,-24.44"/>
<polygon fill="#63b8ff" stroke="#63b8ff" points="409.18,-27.82 417.76,-21.61 407.18,-21.12 409.18,-27.82"/>
</a>
</g>
</g>
<!-- Node14&#45;&gt;Node9 -->
<g id="edge17_Node000014_Node000009" class="edge">
<title>Node14&#45;&gt;Node9</title>
<g id="a_edge17_Node000014_Node000009"><a xlink:title=" ">
<path fill="none" stroke="#63b8ff" d="M228.74,-113.09C229.84,-106.39 231.34,-97.26 232.7,-88.98"/>
<polygon fill="#63b8ff" stroke="#63b8ff" points="236.12,-89.76 234.29,-79.32 229.21,-88.62 236.12,-89.76"/>
</a>
</g>
</g>
<!-- Node15 -->
<g id="Node000015" class="node">
<title>Node15</title>
<g id="a_Node000015"><a xlink:title=" ">
<polygon fill="#e0e0e0" stroke="#999999" points="418.5,-77.5 365.75,-77.5 365.75,-56.75 418.5,-56.75 418.5,-77.5"/>
<text xml:space="preserve" text-anchor="middle" x="392.13" y="-64" font-family="Helvetica,sans-Serif" font-size="10.00">stdint.h</text>
</a>
</g>
</g>
<!-- Node14&#45;&gt;Node15 -->
<g id="edge16_Node000014_Node000015" class="edge">
<title>Node14&#45;&gt;Node15</title>
<g id="a_edge16_Node000014_Node000015"><a xlink:title=" ">
<path fill="none" stroke="#63b8ff" d="M256.63,-113.09C284,-104 324.87,-90.44 354.56,-80.59"/>
<polygon fill="#63b8ff" stroke="#63b8ff" points="355.52,-83.96 363.91,-77.49 353.31,-77.32 355.52,-83.96"/>
</a>
</g>
</g>
<!-- Node16 -->
<g id="Node000016" class="node">
<title>Node16</title>
<g id="a_Node000016"><a xlink:title=" ">
<polygon fill="#e0e0e0" stroke="#999999" points="111.63,-77.5 20.63,-77.5 20.63,-56.75 111.63,-56.75 111.63,-77.5"/>
<text xml:space="preserve" text-anchor="middle" x="66.13" y="-64" font-family="Helvetica,sans-Serif" font-size="10.00">event_groups.h</text>
</a>
</g>
</g>
<!-- Node14&#45;&gt;Node16 -->
<g id="edge18_Node000014_Node000016" class="edge">
<title>Node14&#45;&gt;Node16</title>
<g id="a_edge18_Node000014_Node000016"><a xlink:title=" ">
<path fill="none" stroke="#63b8ff" d="M198.35,-113.09C172.56,-104.32 134.48,-91.37 105.81,-81.62"/>
<polygon fill="#63b8ff" stroke="#63b8ff" points="106.96,-78.31 96.37,-78.41 104.71,-84.94 106.96,-78.31"/>
</a>
</g>
</g>
<!-- Node17 -->
<g id="Node000017" class="node">
<title>Node17</title>
<g id="a_Node000017"><a xlink:title=" ">
<polygon fill="#e0e0e0" stroke="#999999" points="182.13,-77.5 130.13,-77.5 130.13,-56.75 182.13,-56.75 182.13,-77.5"/>
<text xml:space="preserve" text-anchor="middle" x="156.13" y="-64" font-family="Helvetica,sans-Serif" font-size="10.00">stdlib.h</text>
</a>
</g>
</g>
<!-- Node14&#45;&gt;Node17 -->
<g id="edge20_Node000014_Node000017" class="edge">
<title>Node14&#45;&gt;Node17</title>
<g id="a_edge20_Node000014_Node000017"><a xlink:title=" ">
<path fill="none" stroke="#63b8ff" d="M214.44,-113.09C204.24,-105.22 189.69,-94 177.67,-84.74"/>
<polygon fill="#63b8ff" stroke="#63b8ff" points="179.97,-82.09 169.91,-78.75 175.69,-87.63 179.97,-82.09"/>
</a>
</g>
</g>
<!-- Node18&#45;&gt;Node4 -->
<g id="edge23_Node000018_Node000004" class="edge">
<title>Node18&#45;&gt;Node4</title>
<g id="a_edge23_Node000018_Node000004"><a xlink:title=" ">
<path fill="none" stroke="#63b8ff" d="M901.49,-114.38C947.25,-105.2 1020.55,-90.5 1072.21,-80.14"/>
<polygon fill="#63b8ff" stroke="#63b8ff" points="1072.61,-83.63 1081.73,-78.23 1071.23,-76.77 1072.61,-83.63"/>
</a>
</g>
</g>
<!-- Node18&#45;&gt;Node5 -->
<g id="edge25_Node000018_Node000005" class="edge">
<title>Node18&#45;&gt;Node5</title>
<g id="a_edge25_Node000018_Node000005"><a xlink:title=" ">
<path fill="none" stroke="#63b8ff" d="M831.77,-113.17C808.22,-104.56 773.48,-91.24 744.13,-77.5 726.7,-69.34 724.27,-63.16 706.13,-56.75 640.78,-33.66 561.48,-21.82 509.96,-16.12"/>
<polygon fill="#63b8ff" stroke="#63b8ff" points="510.59,-12.67 500.28,-15.09 509.85,-19.63 510.59,-12.67"/>
</a>
</g>
</g>
<!-- Node18&#45;&gt;Node11 -->
<g id="edge26_Node000018_Node000011" class="edge">
<title>Node18&#45;&gt;Node11</title>
<g id="a_edge26_Node000018_Node000011"><a xlink:title=" ">
<path fill="none" stroke="#63b8ff" d="M824.98,-113.09C792.35,-103.73 743.15,-89.63 708.58,-79.72"/>
<polygon fill="#63b8ff" stroke="#63b8ff" points="709.94,-76.47 699.36,-77.08 708.01,-83.2 709.94,-76.47"/>
</a>
</g>
</g>
<!-- Node18&#45;&gt;Node12 -->
<g id="edge27_Node000018_Node000012" class="edge">
<title>Node18&#45;&gt;Node12</title>
<g id="a_edge27_Node000018_Node000012"><a xlink:title=" ">
<path fill="none" stroke="#63b8ff" d="M870.93,-113.09C880.31,-105.3 893.67,-94.22 904.77,-85.01"/>
<polygon fill="#63b8ff" stroke="#63b8ff" points="906.81,-87.87 912.27,-78.79 902.34,-82.49 906.81,-87.87"/>
</a>
</g>
</g>
<!-- Node18&#45;&gt;Node13 -->
<g id="edge28_Node000018_Node000013" class="edge">
<title>Node18&#45;&gt;Node13</title>
<g id="a_edge28_Node000018_Node000013"><a xlink:title=" ">
<path fill="none" stroke="#63b8ff" d="M885.41,-113.09C908.82,-104.37 943.32,-91.52 969.45,-81.79"/>
<polygon fill="#63b8ff" stroke="#63b8ff" points="970.51,-85.13 978.66,-78.36 968.07,-78.57 970.51,-85.13"/>
</a>
</g>
</g>
<!-- Node18&#45;&gt;Node15 -->
<g id="edge22_Node000018_Node000015" class="edge">
<title>Node18&#45;&gt;Node15</title>
<g id="a_edge22_Node000018_Node000015"><a xlink:title=" ">
<path fill="none" stroke="#63b8ff" d="M816.6,-114.77C813.74,-114.31 810.89,-113.88 808.13,-113.5 640.98,-90.22 596.5,-105.79 430.13,-77.5 430.01,-77.48 429.9,-77.46 429.78,-77.44"/>
<polygon fill="#63b8ff" stroke="#63b8ff" points="430.58,-74.03 420.08,-75.48 429.19,-80.89 430.58,-74.03"/>
</a>
</g>
</g>
<!-- Node19 -->
<g id="Node000019" class="node">
<title>Node19</title>
<g id="a_Node000019"><a xlink:title=" ">
<polygon fill="#e0e0e0" stroke="#999999" points="875.38,-77.5 752.88,-77.5 752.88,-56.75 875.38,-56.75 875.38,-77.5"/>
<text xml:space="preserve" text-anchor="middle" x="814.13" y="-64" font-family="Helvetica,sans-Serif" font-size="10.00">fsl_device_registers.h</text>
</a>
</g>
</g>
<!-- Node18&#45;&gt;Node19 -->
<g id="edge24_Node000018_Node000019" class="edge">
<title>Node18&#45;&gt;Node19</title>
<g id="a_edge24_Node000018_Node000019"><a xlink:title=" ">
<path fill="none" stroke="#63b8ff" d="M851.08,-113.09C845.07,-105.77 836.66,-95.54 829.39,-86.69"/>
<polygon fill="#63b8ff" stroke="#63b8ff" points="832.12,-84.5 823.07,-79 826.71,-88.95 832.12,-84.5"/>
</a>
</g>
</g>
<!-- Node20&#45;&gt;Node5 -->
<g id="edge34_Node000020_Node000005" class="edge">
<title>Node20&#45;&gt;Node5</title>
<g id="a_edge34_Node000020_Node000005"><a xlink:title=" ">
<path fill="none" stroke="#63b8ff" d="M419.06,-170C390.44,-149.19 330.31,-98.55 357.13,-56.75 367.4,-40.74 384.89,-30.3 402.34,-23.54"/>
<polygon fill="#63b8ff" stroke="#63b8ff" points="403.41,-26.87 411.71,-20.28 401.11,-20.26 403.41,-26.87"/>
</a>
</g>
</g>
<!-- Node20&#45;&gt;Node6 -->
<g id="edge36_Node000020_Node000006" class="edge">
<title>Node20&#45;&gt;Node6</title>
<g id="a_edge36_Node000020_Node000006"><a xlink:title=" ">
<path fill="none" stroke="#63b8ff" d="M471.93,-169.79C496.72,-162.4 528.84,-150.71 554.13,-134.25 594.56,-107.93 586.54,-77.41 630.13,-56.75 708.89,-19.42 969.03,-12.71 1080.59,-11.57"/>
<polygon fill="#63b8ff" stroke="#63b8ff" points="1080.38,-15.07 1090.35,-11.48 1080.32,-8.07 1080.38,-15.07"/>
</a>
</g>
</g>
<!-- Node20&#45;&gt;Node14 -->
<g id="edge35_Node000020_Node000014" class="edge">
<title>Node20&#45;&gt;Node14</title>
<g id="a_edge35_Node000020_Node000014"><a xlink:title=" ">
<path fill="none" stroke="#63b8ff" d="M396.3,-169.84C362.43,-160.83 311.99,-147.43 275,-137.6"/>
<polygon fill="#63b8ff" stroke="#63b8ff" points="276.01,-134.25 265.45,-135.06 274.21,-141.01 276.01,-134.25"/>
</a>
</g>
</g>
<!-- Node20&#45;&gt;Node15 -->
<g id="edge30_Node000020_Node000015" class="edge">
<title>Node20&#45;&gt;Node15</title>
<g id="a_edge30_Node000020_Node000015"><a xlink:title=" ">
<path fill="none" stroke="#63b8ff" d="M429.63,-170.12C423.01,-152.11 408.5,-112.64 399.6,-88.43"/>
<polygon fill="#63b8ff" stroke="#63b8ff" points="402.99,-87.52 396.26,-79.35 396.42,-89.94 402.99,-87.52"/>
</a>
</g>
</g>
<!-- Node21 -->
<g id="Node000021" class="node">
<title>Node21</title>
<g id="a_Node000021"><a xlink:href="tmc2209__shared_8h.html" target="_top" xlink:title=" ">
<polygon fill="white" stroke="#666666" points="545.13,-134.25 439.13,-134.25 439.13,-113.5 545.13,-113.5 545.13,-134.25"/>
<text xml:space="preserve" text-anchor="middle" x="492.13" y="-120.75" font-family="Helvetica,sans-Serif" font-size="10.00">tmc2209_shared.h</text>
</a>
</g>
</g>
<!-- Node20&#45;&gt;Node21 -->
<g id="edge31_Node000020_Node000021" class="edge">
<title>Node20&#45;&gt;Node21</title>
<g id="a_edge31_Node000020_Node000021"><a xlink:title=" ">
<path fill="none" stroke="#63b8ff" d="M443.68,-169.84C451.9,-162.21 463.53,-151.42 473.33,-142.32"/>
<polygon fill="#63b8ff" stroke="#63b8ff" points="475.61,-144.98 480.56,-135.61 470.85,-139.84 475.61,-144.98"/>
</a>
</g>
</g>
<!-- Node21&#45;&gt;Node15 -->
<g id="edge32_Node000021_Node000015" class="edge">
<title>Node21&#45;&gt;Node15</title>
<g id="a_edge32_Node000021_Node000015"><a xlink:title=" ">
<path fill="none" stroke="#63b8ff" d="M474.25,-113.09C459.04,-104.76 436.94,-92.66 419.5,-83.11"/>
<polygon fill="#63b8ff" stroke="#63b8ff" points="421.63,-80.29 411.18,-78.56 418.27,-86.43 421.63,-80.29"/>
</a>
</g>
</g>
<!-- Node22 -->
<g id="Node000022" class="node">
<title>Node22</title>
<g id="a_Node000022"><a xlink:title=" ">
<polygon fill="#e0e0e0" stroke="#999999" points="544.75,-77.5 439.5,-77.5 439.5,-56.75 544.75,-56.75 544.75,-77.5"/>
<text xml:space="preserve" text-anchor="middle" x="492.13" y="-64" font-family="Helvetica,sans-Serif" font-size="10.00">fsl_uart_freertos.h</text>
</a>
</g>
</g>
<!-- Node21&#45;&gt;Node22 -->
<g id="edge33_Node000021_Node000022" class="edge">
<title>Node21&#45;&gt;Node22</title>
<g id="a_edge33_Node000021_Node000022"><a xlink:title=" ">
<path fill="none" stroke="#63b8ff" d="M492.13,-113.09C492.13,-106.47 492.13,-97.47 492.13,-89.27"/>
<polygon fill="#63b8ff" stroke="#63b8ff" points="495.63,-89.34 492.13,-79.34 488.63,-89.34 495.63,-89.34"/>
</a>
</g>
</g>
<!-- Node23&#45;&gt;Node3 -->
<g id="edge42_Node000023_Node000003" class="edge">
<title>Node23&#45;&gt;Node3</title>
<g id="a_edge42_Node000023_Node000003"><a xlink:title=" ">
<path fill="none" stroke="#63b8ff" d="M1050.67,-283.34C1027.1,-274.62 992.37,-261.77 966.06,-252.04"/>
<polygon fill="#63b8ff" stroke="#63b8ff" points="967.37,-248.79 956.78,-248.6 964.94,-255.36 967.37,-248.79"/>
</a>
</g>
</g>
<!-- Node23&#45;&gt;Node6 -->
<g id="edge43_Node000023_Node000006" class="edge">
<title>Node23&#45;&gt;Node6</title>
<g id="a_edge43_Node000023_Node000006"><a xlink:title=" ">
<path fill="none" stroke="#63b8ff" d="M1119.17,-283.32C1166.57,-269.47 1237.13,-239.18 1237.13,-181.62 1237.13,-181.62 1237.13,-181.62 1237.13,-122.88 1237.13,-92.3 1237.42,-80.48 1218.13,-56.75 1206.88,-42.91 1190.28,-32.77 1174.65,-25.63"/>
<polygon fill="#63b8ff" stroke="#63b8ff" points="1176.03,-22.41 1165.46,-21.74 1173.3,-28.86 1176.03,-22.41"/>
</a>
</g>
</g>
<!-- Node23&#45;&gt;Node7 -->
<g id="edge41_Node000023_Node000007" class="edge">
<title>Node23&#45;&gt;Node7</title>
<g id="a_edge41_Node000023_Node000007"><a xlink:title=" ">
<path fill="none" stroke="#63b8ff" d="M1083.61,-283.62C1096.11,-265.28 1123.77,-224.7 1140.18,-200.62"/>
<polygon fill="#63b8ff" stroke="#63b8ff" points="1142.86,-202.91 1145.6,-192.68 1137.07,-198.97 1142.86,-202.91"/>
</a>
</g>
</g>
<!-- Node24&#45;&gt;Node5 -->
<g id="edge48_Node000024_Node000005" class="edge">
<title>Node24&#45;&gt;Node5</title>
<g id="a_edge48_Node000024_Node000005"><a xlink:title=" ">
<path fill="none" stroke="#63b8ff" d="M154.94,-170.64C88.83,-153.03 -37.81,-110.94 11.13,-56.75 36.9,-28.22 288.99,-16.68 401.91,-12.91"/>
<polygon fill="#63b8ff" stroke="#63b8ff" points="401.97,-16.41 411.85,-12.59 401.74,-9.42 401.97,-16.41"/>
</a>
</g>
</g>
<!-- Node24&#45;&gt;Node9 -->
<g id="edge46_Node000024_Node000009" class="edge">
<title>Node24&#45;&gt;Node9</title>
<g id="a_edge46_Node000024_Node000009"><a xlink:title=" ">
<path fill="none" stroke="#63b8ff" d="M185.97,-170.19C178.16,-156.94 166.77,-132.32 176.13,-113.5 182.34,-101.02 193.8,-91.06 205.06,-83.69"/>
<polygon fill="#63b8ff" stroke="#63b8ff" points="206.68,-86.79 213.46,-78.65 203.08,-80.79 206.68,-86.79"/>
</a>
</g>
</g>
<!-- Node24&#45;&gt;Node14 -->
<g id="edge49_Node000024_Node000014" class="edge">
<title>Node24&#45;&gt;Node14</title>
<g id="a_edge49_Node000024_Node000014"><a xlink:title=" ">
<path fill="none" stroke="#63b8ff" d="M198.39,-169.84C202.97,-162.67 209.33,-152.73 214.9,-144.01"/>
<polygon fill="#63b8ff" stroke="#63b8ff" points="217.67,-146.16 220.11,-135.85 211.78,-142.39 217.67,-146.16"/>
</a>
</g>
</g>
<!-- Node24&#45;&gt;Node15 -->
<g id="edge45_Node000024_Node000015" class="edge">
<title>Node24&#45;&gt;Node15</title>
<g id="a_edge45_Node000024_Node000015"><a xlink:title=" ">
<path fill="none" stroke="#63b8ff" d="M211.38,-169.75C228.88,-160.7 255.38,-146.84 278.13,-134.25 308.51,-117.43 342.93,-97.32 365.93,-83.72"/>
<polygon fill="#63b8ff" stroke="#63b8ff" points="367.51,-86.85 374.33,-78.74 363.95,-80.83 367.51,-86.85"/>
</a>
</g>
</g>
<!-- Node24&#45;&gt;Node16 -->
<g id="edge47_Node000024_Node000016" class="edge">
<title>Node24&#45;&gt;Node16</title>
<g id="a_edge47_Node000024_Node000016"><a xlink:title=" ">
<path fill="none" stroke="#63b8ff" d="M181.39,-170.12C160.2,-151.37 112.75,-109.38 85.8,-85.53"/>
<polygon fill="#63b8ff" stroke="#63b8ff" points="88.15,-82.93 78.34,-78.93 83.51,-88.18 88.15,-82.93"/>
</a>
</g>
</g>
</g>
</svg>
