<?xml version="1.0" encoding="UTF-8" standalone="no"?>
<!DOCTYPE svg PUBLIC "-//W3C//DTD SVG 1.1//EN"
 "http://www.w3.org/Graphics/SVG/1.1/DTD/svg11.dtd">
<!-- Generated by graphviz version 14.1.5 (0)
 -->
<!-- Title: source/grabber.h Pages: 1 -->
<svg width="234pt" height="86pt"
 viewBox="0.00 0.00 234.00 86.00" xmlns="http://www.w3.org/2000/svg" xmlns:xlink="http://www.w3.org/1999/xlink">
<g id="graph0" class="graph" transform="scale(1 1) rotate(0) translate(4 81.5)">
<title>source/grabber.h</title>
<!-- Node1 -->
<g id="Node000001" class="node">
<title>Node1</title>
<g id="a_Node000001"><a xlink:title=" ">
<polygon fill="#999999" stroke="#666666" points="157.62,-77.5 60.62,-77.5 60.62,-56.75 157.62,-56.75 157.62,-77.5"/>
<text xml:space="preserve" text-anchor="middle" x="109.12" y="-64" font-family="Helvetica,sans-Serif" font-size="10.00">source/grabber.h</text>
</a>
</g>
</g>
<!-- Node2 -->
<g id="Node000002" class="node">
<title>Node2</title>
<g id="a_Node000002"><a xlink:href="grabber_8c.html" target="_top" xlink:title=" ">
<polygon fill="white" stroke="#666666" points="96.25,-20.75 0,-20.75 0,0 96.25,0 96.25,-20.75"/>
<text xml:space="preserve" text-anchor="middle" x="48.12" y="-7.25" font-family="Helvetica,sans-Serif" font-size="10.00">source/grabber.c</text>
</a>
</g>
</g>
<!-- Node1&#45;&gt;Node2 -->
<g id="edge1_Node000001_Node000002" class="edge">
<title>Node1&#45;&gt;Node2</title>
<g id="a_edge1_Node000001_Node000002"><a xlink:title=" ">
<path fill="none" stroke="#63b8ff" d="M89.89,-48.86C79.67,-39.69 67.5,-28.76 58.94,-21.08"/>
<polygon fill="#63b8ff" stroke="#63b8ff" points="87.31,-51.25 97.09,-55.33 91.99,-46.04 87.31,-51.25"/>
</a>
</g>
</g>
<!-- Node3 -->
<g id="Node000003" class="node">
<title>Node3</title>
<g id="a_Node000003"><a xlink:href="motorCmd_8c.html" target="_top" xlink:title=" ">
<polygon fill="white" stroke="#666666" points="225.75,-20.75 114.5,-20.75 114.5,0 225.75,0 225.75,-20.75"/>
<text xml:space="preserve" text-anchor="middle" x="170.12" y="-7.25" font-family="Helvetica,sans-Serif" font-size="10.00">source/motorCmd.c</text>
</a>
</g>
</g>
<!-- Node1&#45;&gt;Node3 -->
<g id="edge2_Node000001_Node000003" class="edge">
<title>Node1&#45;&gt;Node3</title>
<g id="a_edge2_Node000001_Node000003"><a xlink:title=" ">
<path fill="none" stroke="#63b8ff" d="M128.36,-48.86C138.58,-39.69 150.75,-28.76 159.31,-21.08"/>
<polygon fill="#63b8ff" stroke="#63b8ff" points="126.26,-46.04 121.16,-55.33 130.94,-51.25 126.26,-46.04"/>
</a>
</g>
</g>
</g>
</svg>
