<?xml version="1.0" encoding="UTF-8" standalone="no"?>
<!DOCTYPE svg PUBLIC "-//W3C//DTD SVG 1.1//EN"
 "http://www.w3.org/Graphics/SVG/1.1/DTD/svg11.dtd">
<!-- Generated by graphviz version 14.1.5 (0)
 -->
<!-- Title: source/motion/grabber/grabber.c Pages: 1 -->
<svg width="1298pt" height="382pt"
 viewBox="0.00 0.00 1298.00 382.00" xmlns="http://www.w3.org/2000/svg" xmlns:xlink="http://www.w3.org/1999/xlink">
<g id="graph0" class="graph" transform="scale(1 1) rotate(0) translate(4 378)">
<title>source/motion/grabber/grabber.c</title>
<!-- Node1 -->
<g id="Node000001" class="node">
<title>Node1</title>
<g id="a_Node000001"><a xlink:title=" ">
<polygon fill="#999999" stroke="#666666" points="342,-374 215.75,-374 215.75,-340.5 342,-340.5 342,-374"/>
<text xml:space="preserve" text-anchor="start" x="223.75" y="-360.5" font-family="Helvetica,sans-Serif" font-size="10.00">source/motion/grabber</text>
<text xml:space="preserve" text-anchor="middle" x="278.88" y="-347.75" font-family="Helvetica,sans-Serif" font-size="10.00">/grabber.c</text>
</a>
</g>
</g>
<!-- Node2 -->
<g id="Node000002" class="node">
<title>Node2</title>
<g id="a_Node000002"><a xlink:href="grabber_8h.html" target="_top" xlink:title=" ">
<polygon fill="white" stroke="#666666" points="139.75,-247.75 0,-247.75 0,-227 139.75,-227 139.75,-247.75"/>
<text xml:space="preserve" text-anchor="middle" x="69.88" y="-234.25" font-family="Helvetica,sans-Serif" font-size="10.00">motion/grabber/grabber.h</text>
</a>
</g>
</g>
<!-- Node1&#45;&gt;Node2 -->
<g id="edge1_Node000001_Node000002" class="edge">
<title>Node1&#45;&gt;Node2</title>
<g id="a_edge1_Node000001_Node000002"><a xlink:title=" ">
<path fill="none" stroke="#63b8ff" d="M250.25,-340.11C209.9,-317.35 136.81,-276.13 97.19,-253.78"/>
<polygon fill="#63b8ff" stroke="#63b8ff" points="98.93,-250.74 88.5,-248.88 95.49,-256.84 98.93,-250.74"/>
</a>
</g>
</g>
<!-- Node4 -->
<g id="Node000004" class="node">
<title>Node4</title>
<g id="a_Node000004"><a xlink:href="motor__core_8h.html" target="_top" xlink:title=" ">
<polygon fill="white" stroke="#666666" points="1065.12,-247.75 984.62,-247.75 984.62,-227 1065.12,-227 1065.12,-247.75"/>
<text xml:space="preserve" text-anchor="middle" x="1024.88" y="-234.25" font-family="Helvetica,sans-Serif" font-size="10.00">motor_core.h</text>
</a>
</g>
</g>
<!-- Node1&#45;&gt;Node4 -->
<g id="edge3_Node000001_Node000004" class="edge">
<title>Node1&#45;&gt;Node4</title>
<g id="a_edge3_Node000001_Node000004"><a xlink:title=" ">
<path fill="none" stroke="#63b8ff" d="M342.48,-346.2C487.47,-323.29 840.21,-267.55 973.09,-246.56"/>
<polygon fill="#63b8ff" stroke="#63b8ff" points="973.31,-250.07 982.64,-245.05 972.21,-243.15 973.31,-250.07"/>
</a>
</g>
</g>
<!-- Node14 -->
<g id="Node000014" class="node">
<title>Node14</title>
<g id="a_Node000014"><a xlink:href="cmd__handle_8h.html" target="_top" xlink:title=" ">
<polygon fill="white" stroke="#666666" points="321,-134.25 236.75,-134.25 236.75,-113.5 321,-113.5 321,-134.25"/>
<text xml:space="preserve" text-anchor="middle" x="278.88" y="-120.75" font-family="Helvetica,sans-Serif" font-size="10.00">cmd_handle.h</text>
</a>
</g>
</g>
<!-- Node1&#45;&gt;Node14 -->
<g id="edge51_Node000001_Node000014" class="edge">
<title>Node1&#45;&gt;Node14</title>
<g id="a_edge51_Node000001_Node000014"><a xlink:title=" ">
<path fill="none" stroke="#63b8ff" d="M278.88,-340.35C278.88,-299.56 278.88,-191.24 278.88,-145.6"/>
<polygon fill="#63b8ff" stroke="#63b8ff" points="282.38,-145.79 278.88,-135.79 275.38,-145.79 282.38,-145.79"/>
</a>
</g>
</g>
<!-- Node23 -->
<g id="Node000023" class="node">
<title>Node23</title>
<g id="a_Node000023"><a xlink:href="motor__configs_8h.html" target="_top" xlink:title=" ">
<polygon fill="white" stroke="#666666" points="1134.88,-304.5 1040.88,-304.5 1040.88,-283.75 1134.88,-283.75 1134.88,-304.5"/>
<text xml:space="preserve" text-anchor="middle" x="1087.88" y="-291" font-family="Helvetica,sans-Serif" font-size="10.00">motor_configs.h</text>
</a>
</g>
</g>
<!-- Node1&#45;&gt;Node23 -->
<g id="edge41_Node000001_Node000023" class="edge">
<title>Node1&#45;&gt;Node23</title>
<g id="a_edge41_Node000001_Node000023"><a xlink:title=" ">
<path fill="none" stroke="#63b8ff" d="M342.36,-351.45C495.19,-339.91 881.86,-310.69 1029.42,-299.54"/>
<polygon fill="#63b8ff" stroke="#63b8ff" points="1029.24,-303.07 1038.95,-298.82 1028.71,-296.09 1029.24,-303.07"/>
</a>
</g>
</g>
<!-- Node24 -->
<g id="Node000024" class="node">
<title>Node24</title>
<g id="a_Node000024"><a xlink:href="sync__wait_8h.html" target="_top" xlink:title=" ">
<polygon fill="white" stroke="#666666" points="248.75,-191 175,-191 175,-170.25 248.75,-170.25 248.75,-191"/>
<text xml:space="preserve" text-anchor="middle" x="211.88" y="-177.5" font-family="Helvetica,sans-Serif" font-size="10.00">sync_wait.h</text>
</a>
</g>
</g>
<!-- Node1&#45;&gt;Node24 -->
<g id="edge45_Node000001_Node000024" class="edge">
<title>Node1&#45;&gt;Node24</title>
<g id="a_edge45_Node000001_Node000024"><a xlink:title=" ">
<path fill="none" stroke="#63b8ff" d="M272.69,-340.13C260.41,-308.12 232.97,-236.6 219.55,-201.64"/>
<polygon fill="#63b8ff" stroke="#63b8ff" points="222.98,-200.79 216.13,-192.71 216.44,-203.3 222.98,-200.79"/>
</a>
</g>
</g>
<!-- Node3 -->
<g id="Node000003" class="node">
<title>Node3</title>
<g id="a_Node000003"><a xlink:title=" ">
<polygon fill="#e0e0e0" stroke="#999999" points="629.38,-20.75 544.38,-20.75 544.38,0 629.38,0 629.38,-20.75"/>
<text xml:space="preserve" text-anchor="middle" x="586.88" y="-7.25" font-family="Helvetica,sans-Serif" font-size="10.00">fsl_common.h</text>
</a>
</g>
</g>
<!-- Node2&#45;&gt;Node3 -->
<g id="edge2_Node000002_Node000003" class="edge">
<title>Node2&#45;&gt;Node3</title>
<g id="a_edge2_Node000002_Node000003"><a xlink:title=" ">
<path fill="none" stroke="#63b8ff" d="M64.48,-226.62C48.77,-196.75 6.92,-105.68 51.88,-56.75 83.98,-21.81 403.43,-13.75 532.85,-11.91"/>
<polygon fill="#63b8ff" stroke="#63b8ff" points="532.57,-15.41 542.52,-11.78 532.48,-8.41 532.57,-15.41"/>
</a>
</g>
</g>
<!-- Node5 -->
<g id="Node000005" class="node">
<title>Node5</title>
<g id="a_Node000005"><a xlink:href="pca9555a_8h.html" target="_top" xlink:title=" ">
<polygon fill="white" stroke="#666666" points="1184.88,-77.5 1030.88,-77.5 1030.88,-56.75 1184.88,-56.75 1184.88,-77.5"/>
<text xml:space="preserve" text-anchor="middle" x="1107.88" y="-64" font-family="Helvetica,sans-Serif" font-size="10.00">driver/pca9555a/pca9555a.h</text>
</a>
</g>
</g>
<!-- Node4&#45;&gt;Node5 -->
<g id="edge4_Node000004_Node000005" class="edge">
<title>Node4&#45;&gt;Node5</title>
<g id="a_edge4_Node000004_Node000005"><a xlink:title=" ">
<path fill="none" stroke="#63b8ff" d="M1029.58,-226.85C1042.75,-200.14 1080.25,-124.12 1098.14,-87.85"/>
<polygon fill="#63b8ff" stroke="#63b8ff" points="1101.06,-89.84 1102.35,-79.32 1094.79,-86.74 1101.06,-89.84"/>
</a>
</g>
</g>
<!-- Node7 -->
<g id="Node000007" class="node">
<title>Node7</title>
<g id="a_Node000007"><a xlink:title=" ">
<polygon fill="#e0e0e0" stroke="#999999" points="1255.25,-191 1166.5,-191 1166.5,-170.25 1255.25,-170.25 1255.25,-191"/>
<text xml:space="preserve" text-anchor="middle" x="1210.88" y="-177.5" font-family="Helvetica,sans-Serif" font-size="10.00">MK22F51212.h</text>
</a>
</g>
</g>
<!-- Node4&#45;&gt;Node7 -->
<g id="edge7_Node000004_Node000007" class="edge">
<title>Node4&#45;&gt;Node7</title>
<g id="a_edge7_Node000004_Node000007"><a xlink:title=" ">
<path fill="none" stroke="#63b8ff" d="M1058.13,-226.59C1088.45,-217.66 1133.47,-204.41 1166.79,-194.6"/>
<polygon fill="#63b8ff" stroke="#63b8ff" points="1167.54,-198.03 1176.14,-191.85 1165.56,-191.31 1167.54,-198.03"/>
</a>
</g>
</g>
<!-- Node8 -->
<g id="Node000008" class="node">
<title>Node8</title>
<g id="a_Node000008"><a xlink:href="step__core_8h.html" target="_top" xlink:title=" ">
<polygon fill="white" stroke="#666666" points="886,-191 813.75,-191 813.75,-170.25 886,-170.25 886,-191"/>
<text xml:space="preserve" text-anchor="middle" x="849.88" y="-177.5" font-family="Helvetica,sans-Serif" font-size="10.00">step_core.h</text>
</a>
</g>
</g>
<!-- Node4&#45;&gt;Node8 -->
<g id="edge8_Node000004_Node000008" class="edge">
<title>Node4&#45;&gt;Node8</title>
<g id="a_edge8_Node000004_Node000008"><a xlink:title=" ">
<path fill="none" stroke="#63b8ff" d="M993.59,-226.59C965.18,-217.7 923.07,-204.52 891.77,-194.73"/>
<polygon fill="#63b8ff" stroke="#63b8ff" points="893.22,-191.52 882.63,-191.87 891.13,-198.2 893.22,-191.52"/>
</a>
</g>
</g>
<!-- Node11 -->
<g id="Node000011" class="node">
<title>Node11</title>
<g id="a_Node000011"><a xlink:title=" ">
<polygon fill="#e0e0e0" stroke="#999999" points="1261.25,-77.5 1202.5,-77.5 1202.5,-56.75 1261.25,-56.75 1261.25,-77.5"/>
<text xml:space="preserve" text-anchor="middle" x="1231.88" y="-64" font-family="Helvetica,sans-Serif" font-size="10.00">fsl_ftm.h</text>
</a>
</g>
</g>
<!-- Node4&#45;&gt;Node11 -->
<g id="edge38_Node000004_Node000011" class="edge">
<title>Node4&#45;&gt;Node11</title>
<g id="a_edge38_Node000004_Node000011"><a xlink:title=" ">
<path fill="none" stroke="#63b8ff" d="M1036.9,-226.6C1070.91,-198.96 1168.12,-119.94 1211.06,-85.04"/>
<polygon fill="#63b8ff" stroke="#63b8ff" points="1213.09,-87.9 1218.64,-78.88 1208.68,-82.47 1213.09,-87.9"/>
</a>
</g>
</g>
<!-- Node12 -->
<g id="Node000012" class="node">
<title>Node12</title>
<g id="a_Node000012"><a xlink:title=" ">
<polygon fill="#e0e0e0" stroke="#999999" points="716.5,-77.5 653.25,-77.5 653.25,-56.75 716.5,-56.75 716.5,-77.5"/>
<text xml:space="preserve" text-anchor="middle" x="684.88" y="-64" font-family="Helvetica,sans-Serif" font-size="10.00">fsl_gpio.h</text>
</a>
</g>
</g>
<!-- Node4&#45;&gt;Node12 -->
<g id="edge39_Node000004_Node000012" class="edge">
<title>Node4&#45;&gt;Node12</title>
<g id="a_edge39_Node000004_Node000012"><a xlink:title=" ">
<path fill="none" stroke="#63b8ff" d="M984.44,-231.99C939.46,-226.22 865.19,-213.99 804.88,-191 757.84,-173.07 738.66,-173.27 706.88,-134.25 696.24,-121.19 690.66,-102.78 687.79,-88.7"/>
<polygon fill="#63b8ff" stroke="#63b8ff" points="691.3,-88.44 686.16,-79.18 684.4,-89.62 691.3,-88.44"/>
</a>
</g>
</g>
<!-- Node13 -->
<g id="Node000013" class="node">
<title>Node13</title>
<g id="a_Node000013"><a xlink:title=" ">
<polygon fill="#e0e0e0" stroke="#999999" points="1012.75,-77.5 951,-77.5 951,-56.75 1012.75,-56.75 1012.75,-77.5"/>
<text xml:space="preserve" text-anchor="middle" x="981.88" y="-64" font-family="Helvetica,sans-Serif" font-size="10.00">fsl_port.h</text>
</a>
</g>
</g>
<!-- Node4&#45;&gt;Node13 -->
<g id="edge40_Node000004_Node000013" class="edge">
<title>Node4&#45;&gt;Node13</title>
<g id="a_edge40_Node000004_Node000013"><a xlink:title=" ">
<path fill="none" stroke="#63b8ff" d="M1024.46,-226.56C1023.33,-205.39 1019.32,-154.07 1005.88,-113.5 1002.94,-104.65 998.39,-95.45 994.04,-87.66"/>
<polygon fill="#63b8ff" stroke="#63b8ff" points="997.08,-85.92 988.98,-79.09 991.05,-89.48 997.08,-85.92"/>
</a>
</g>
</g>
<!-- Node20 -->
<g id="Node000020" class="node">
<title>Node20</title>
<g id="a_Node000020"><a xlink:href="tmc2209__core_8h.html" target="_top" xlink:title=" ">
<polygon fill="white" stroke="#666666" points="593.88,-191 499.88,-191 499.88,-170.25 593.88,-170.25 593.88,-191"/>
<text xml:space="preserve" text-anchor="middle" x="546.88" y="-177.5" font-family="Helvetica,sans-Serif" font-size="10.00">tmc2209_core.h</text>
</a>
</g>
</g>
<!-- Node4&#45;&gt;Node20 -->
<g id="edge30_Node000004_Node000020" class="edge">
<title>Node4&#45;&gt;Node20</title>
<g id="a_edge30_Node000004_Node000020"><a xlink:title=" ">
<path fill="none" stroke="#63b8ff" d="M984.53,-231.75C899.99,-222.07 703.93,-199.61 605.49,-188.34"/>
<polygon fill="#63b8ff" stroke="#63b8ff" points="606.1,-184.89 595.77,-187.23 605.31,-191.84 606.1,-184.89"/>
</a>
</g>
</g>
<!-- Node5&#45;&gt;Node3 -->
<g id="edge5_Node000005_Node000003" class="edge">
<title>Node5&#45;&gt;Node3</title>
<g id="a_edge5_Node000005_Node000003"><a xlink:title=" ">
<path fill="none" stroke="#63b8ff" d="M1030.52,-57.68C1027.6,-57.36 1024.71,-57.05 1021.88,-56.75 884.82,-42.13 723.43,-25.43 641.11,-16.95"/>
<polygon fill="#63b8ff" stroke="#63b8ff" points="641.6,-13.48 631.3,-15.94 640.89,-20.45 641.6,-13.48"/>
</a>
</g>
</g>
<!-- Node6 -->
<g id="Node000006" class="node">
<title>Node6</title>
<g id="a_Node000006"><a xlink:title=" ">
<polygon fill="#e0e0e0" stroke="#999999" points="1147.75,-20.75 1068,-20.75 1068,0 1147.75,0 1147.75,-20.75"/>
<text xml:space="preserve" text-anchor="middle" x="1107.88" y="-7.25" font-family="Helvetica,sans-Serif" font-size="10.00">peripherals.h</text>
</a>
</g>
</g>
<!-- Node5&#45;&gt;Node6 -->
<g id="edge6_Node000005_Node000006" class="edge">
<title>Node5&#45;&gt;Node6</title>
<g id="a_edge6_Node000005_Node000006"><a xlink:title=" ">
<path fill="none" stroke="#63b8ff" d="M1107.88,-56.34C1107.88,-49.72 1107.88,-40.72 1107.88,-32.52"/>
<polygon fill="#63b8ff" stroke="#63b8ff" points="1111.38,-32.59 1107.88,-22.59 1104.38,-32.59 1111.38,-32.59"/>
</a>
</g>
</g>
<!-- Node8&#45;&gt;Node3 -->
<g id="edge12_Node000008_Node000003" class="edge">
<title>Node8&#45;&gt;Node3</title>
<g id="a_edge12_Node000008_Node000003"><a xlink:title=" ">
<path fill="none" stroke="#63b8ff" d="M821.04,-169.76C802.8,-162.33 779.75,-150.6 763.88,-134.25 737.15,-106.73 754.84,-81.91 725.88,-56.75 702.21,-36.19 669.03,-24.91 641.03,-18.74"/>
<polygon fill="#63b8ff" stroke="#63b8ff" points="641.76,-15.32 631.27,-16.77 640.38,-22.18 641.76,-15.32"/>
</a>
</g>
</g>
<!-- Node8&#45;&gt;Node5 -->
<g id="edge9_Node000008_Node000005" class="edge">
<title>Node8&#45;&gt;Node5</title>
<g id="a_edge9_Node000008_Node000005"><a xlink:title=" ">
<path fill="none" stroke="#63b8ff" d="M862.37,-169.79C883.39,-153.39 925.19,-121.46 941.88,-113.5 973.34,-98.49 1010.6,-87.74 1041.84,-80.48"/>
<polygon fill="#63b8ff" stroke="#63b8ff" points="1042.59,-83.9 1051.58,-78.3 1041.06,-77.07 1042.59,-83.9"/>
</a>
</g>
</g>
<!-- Node9 -->
<g id="Node000009" class="node">
<title>Node9</title>
<g id="a_Node000009"><a xlink:title=" ">
<polygon fill="#e0e0e0" stroke="#999999" points="364.62,-77.5 293.12,-77.5 293.12,-56.75 364.62,-56.75 364.62,-77.5"/>
<text xml:space="preserve" text-anchor="middle" x="328.88" y="-64" font-family="Helvetica,sans-Serif" font-size="10.00">FreeRTOS.h</text>
</a>
</g>
</g>
<!-- Node8&#45;&gt;Node9 -->
<g id="edge10_Node000008_Node000009" class="edge">
<title>Node8&#45;&gt;Node9</title>
<g id="a_edge10_Node000008_Node000009"><a xlink:title=" ">
<path fill="none" stroke="#63b8ff" d="M813.26,-180.46C740.8,-181.07 574.8,-177.14 443.88,-134.25 409.14,-122.87 373.28,-100.19 351.03,-84.59"/>
<polygon fill="#63b8ff" stroke="#63b8ff" points="353.22,-81.85 343.06,-78.87 349.14,-87.54 353.22,-81.85"/>
</a>
</g>
</g>
<!-- Node10 -->
<g id="Node000010" class="node">
<title>Node10</title>
<g id="a_Node000010"><a xlink:title=" ">
<polygon fill="#e0e0e0" stroke="#999999" points="996.88,-134.25 950.88,-134.25 950.88,-113.5 996.88,-113.5 996.88,-134.25"/>
<text xml:space="preserve" text-anchor="middle" x="973.88" y="-120.75" font-family="Helvetica,sans-Serif" font-size="10.00">task.h</text>
</a>
</g>
</g>
<!-- Node8&#45;&gt;Node10 -->
<g id="edge11_Node000008_Node000010" class="edge">
<title>Node8&#45;&gt;Node10</title>
<g id="a_edge11_Node000008_Node000010"><a xlink:title=" ">
<path fill="none" stroke="#63b8ff" d="M872.04,-169.84C891.35,-161.31 919.6,-148.84 941.45,-139.19"/>
<polygon fill="#63b8ff" stroke="#63b8ff" points="942.78,-142.43 950.51,-135.19 939.95,-136.03 942.78,-142.43"/>
</a>
</g>
</g>
<!-- Node8&#45;&gt;Node11 -->
<g id="edge13_Node000008_Node000011" class="edge">
<title>Node8&#45;&gt;Node11</title>
<g id="a_edge13_Node000008_Node000011"><a xlink:title=" ">
<path fill="none" stroke="#63b8ff" d="M883.66,-169.82C915.26,-160.64 963.77,-146.53 1005.88,-134.25 1070.82,-115.3 1146.23,-93.22 1191.44,-79.98"/>
<polygon fill="#63b8ff" stroke="#63b8ff" points="1192.2,-83.4 1200.81,-77.23 1190.23,-76.68 1192.2,-83.4"/>
</a>
</g>
</g>
<!-- Node8&#45;&gt;Node12 -->
<g id="edge14_Node000008_Node000012" class="edge">
<title>Node8&#45;&gt;Node12</title>
<g id="a_edge14_Node000008_Node000012"><a xlink:title=" ">
<path fill="none" stroke="#63b8ff" d="M813.47,-171.79C788.33,-165.02 755.17,-153.25 730.88,-134.25 714.9,-121.76 702.26,-102.2 694.31,-87.59"/>
<polygon fill="#63b8ff" stroke="#63b8ff" points="697.54,-86.21 689.85,-78.92 691.31,-89.42 697.54,-86.21"/>
</a>
</g>
</g>
<!-- Node8&#45;&gt;Node13 -->
<g id="edge15_Node000008_Node000013" class="edge">
<title>Node8&#45;&gt;Node13</title>
<g id="a_edge15_Node000008_Node000013"><a xlink:title=" ">
<path fill="none" stroke="#63b8ff" d="M857.13,-169.86C867.58,-156.21 887.91,-131.13 908.88,-113.5 922.48,-102.06 939.22,-91.45 953.24,-83.36"/>
<polygon fill="#63b8ff" stroke="#63b8ff" points="954.56,-86.64 961.57,-78.69 951.13,-80.53 954.56,-86.64"/>
</a>
</g>
</g>
<!-- Node8&#45;&gt;Node14 -->
<g id="edge16_Node000008_Node000014" class="edge">
<title>Node8&#45;&gt;Node14</title>
<g id="a_edge16_Node000008_Node000014"><a xlink:title=" ">
<path fill="none" stroke="#63b8ff" d="M813.37,-176.21C733.49,-168.72 537.22,-150.26 372.88,-134.25 359.87,-132.98 345.86,-131.6 332.72,-130.29"/>
<polygon fill="#63b8ff" stroke="#63b8ff" points="333.26,-126.82 322.96,-129.31 332.56,-133.79 333.26,-126.82"/>
</a>
</g>
</g>
<!-- Node18 -->
<g id="Node000018" class="node">
<title>Node18</title>
<g id="a_Node000018"><a xlink:href="step__shared_8h.html" target="_top" xlink:title=" ">
<polygon fill="white" stroke="#666666" points="857,-134.25 772.75,-134.25 772.75,-113.5 857,-113.5 857,-134.25"/>
<text xml:space="preserve" text-anchor="middle" x="814.88" y="-120.75" font-family="Helvetica,sans-Serif" font-size="10.00">step_shared.h</text>
</a>
</g>
</g>
<!-- Node8&#45;&gt;Node18 -->
<g id="edge22_Node000008_Node000018" class="edge">
<title>Node8&#45;&gt;Node18</title>
<g id="a_edge22_Node000008_Node000018"><a xlink:title=" ">
<path fill="none" stroke="#63b8ff" d="M843.62,-169.84C839.04,-162.67 832.68,-152.73 827.11,-144.01"/>
<polygon fill="#63b8ff" stroke="#63b8ff" points="830.23,-142.39 821.89,-135.85 824.33,-146.16 830.23,-142.39"/>
</a>
</g>
</g>
<!-- Node14&#45;&gt;Node3 -->
<g id="edge20_Node000014_Node000003" class="edge">
<title>Node14&#45;&gt;Node3</title>
<g id="a_edge20_Node000014_Node000003"><a xlink:title=" ">
<path fill="none" stroke="#63b8ff" d="M276.31,-113.34C273.1,-99.04 269.61,-72.1 283.88,-56.75 316.71,-21.42 455.05,-13.38 532.96,-11.69"/>
<polygon fill="#63b8ff" stroke="#63b8ff" points="532.55,-15.2 542.48,-11.51 532.42,-8.2 532.55,-15.2"/>
</a>
</g>
</g>
<!-- Node14&#45;&gt;Node9 -->
<g id="edge18_Node000014_Node000009" class="edge">
<title>Node14&#45;&gt;Node9</title>
<g id="a_edge18_Node000014_Node000009"><a xlink:title=" ">
<path fill="none" stroke="#63b8ff" d="M287.81,-113.09C294.64,-105.61 304.24,-95.11 312.43,-86.13"/>
<polygon fill="#63b8ff" stroke="#63b8ff" points="314.83,-88.69 318.99,-78.95 309.66,-83.97 314.83,-88.69"/>
</a>
</g>
</g>
<!-- Node15 -->
<g id="Node000015" class="node">
<title>Node15</title>
<g id="a_Node000015"><a xlink:title=" ">
<polygon fill="#e0e0e0" stroke="#999999" points="435.25,-77.5 382.5,-77.5 382.5,-56.75 435.25,-56.75 435.25,-77.5"/>
<text xml:space="preserve" text-anchor="middle" x="408.88" y="-64" font-family="Helvetica,sans-Serif" font-size="10.00">stdint.h</text>
</a>
</g>
</g>
<!-- Node14&#45;&gt;Node15 -->
<g id="edge17_Node000014_Node000015" class="edge">
<title>Node14&#45;&gt;Node15</title>
<g id="a_edge17_Node000014_Node000015"><a xlink:title=" ">
<path fill="none" stroke="#63b8ff" d="M302.12,-113.09C322.54,-104.48 352.51,-91.86 375.5,-82.18"/>
<polygon fill="#63b8ff" stroke="#63b8ff" points="376.58,-85.52 384.44,-78.42 373.87,-79.07 376.58,-85.52"/>
</a>
</g>
</g>
<!-- Node16 -->
<g id="Node000016" class="node">
<title>Node16</title>
<g id="a_Node000016"><a xlink:title=" ">
<polygon fill="#e0e0e0" stroke="#999999" points="166.38,-77.5 75.38,-77.5 75.38,-56.75 166.38,-56.75 166.38,-77.5"/>
<text xml:space="preserve" text-anchor="middle" x="120.88" y="-64" font-family="Helvetica,sans-Serif" font-size="10.00">event_groups.h</text>
</a>
</g>
</g>
<!-- Node14&#45;&gt;Node16 -->
<g id="edge19_Node000014_Node000016" class="edge">
<title>Node14&#45;&gt;Node16</title>
<g id="a_edge19_Node000014_Node000016"><a xlink:title=" ">
<path fill="none" stroke="#63b8ff" d="M250.63,-113.09C225.32,-104.32 187.95,-91.37 159.81,-81.62"/>
<polygon fill="#63b8ff" stroke="#63b8ff" points="161.17,-78.38 150.57,-78.42 158.88,-85 161.17,-78.38"/>
</a>
</g>
</g>
<!-- Node17 -->
<g id="Node000017" class="node">
<title>Node17</title>
<g id="a_Node000017"><a xlink:title=" ">
<polygon fill="#e0e0e0" stroke="#999999" points="236.88,-77.5 184.88,-77.5 184.88,-56.75 236.88,-56.75 236.88,-77.5"/>
<text xml:space="preserve" text-anchor="middle" x="210.88" y="-64" font-family="Helvetica,sans-Serif" font-size="10.00">stdlib.h</text>
</a>
</g>
</g>
<!-- Node14&#45;&gt;Node17 -->
<g id="edge21_Node000014_Node000017" class="edge">
<title>Node14&#45;&gt;Node17</title>
<g id="a_edge21_Node000014_Node000017"><a xlink:title=" ">
<path fill="none" stroke="#63b8ff" d="M266.72,-113.09C257.05,-105.3 243.29,-94.22 231.85,-85.01"/>
<polygon fill="#63b8ff" stroke="#63b8ff" points="234.09,-82.32 224.11,-78.78 229.7,-87.78 234.09,-82.32"/>
</a>
</g>
</g>
<!-- Node18&#45;&gt;Node3 -->
<g id="edge26_Node000018_Node000003" class="edge">
<title>Node18&#45;&gt;Node3</title>
<g id="a_edge26_Node000018_Node000003"><a xlink:title=" ">
<path fill="none" stroke="#63b8ff" d="M809.35,-113.16C800.56,-98.62 782.03,-71.36 758.88,-56.75 723.17,-34.22 676.55,-22.81 640.86,-17.07"/>
<polygon fill="#63b8ff" stroke="#63b8ff" points="641.58,-13.64 631.18,-15.62 640.55,-20.56 641.58,-13.64"/>
</a>
</g>
</g>
<!-- Node18&#45;&gt;Node5 -->
<g id="edge24_Node000018_Node000005" class="edge">
<title>Node18&#45;&gt;Node5</title>
<g id="a_edge24_Node000018_Node000005"><a xlink:title=" ">
<path fill="none" stroke="#63b8ff" d="M857.48,-114.91C906.51,-105.75 987.52,-90.61 1044.08,-80.05"/>
<polygon fill="#63b8ff" stroke="#63b8ff" points="1044.37,-83.55 1053.56,-78.27 1043.09,-76.67 1044.37,-83.55"/>
</a>
</g>
</g>
<!-- Node18&#45;&gt;Node11 -->
<g id="edge27_Node000018_Node000011" class="edge">
<title>Node18&#45;&gt;Node11</title>
<g id="a_edge27_Node000018_Node000011"><a xlink:title=" ">
<path fill="none" stroke="#63b8ff" d="M857.47,-119.49C925.89,-113.69 1064.63,-100.38 1191.06,-77.84"/>
<polygon fill="#63b8ff" stroke="#63b8ff" points="1191.37,-81.34 1200.59,-76.11 1190.13,-74.45 1191.37,-81.34"/>
</a>
</g>
</g>
<!-- Node18&#45;&gt;Node12 -->
<g id="edge28_Node000018_Node000012" class="edge">
<title>Node18&#45;&gt;Node12</title>
<g id="a_edge28_Node000018_Node000012"><a xlink:title=" ">
<path fill="none" stroke="#63b8ff" d="M791.63,-113.09C771.21,-104.48 741.24,-91.86 718.25,-82.18"/>
<polygon fill="#63b8ff" stroke="#63b8ff" points="719.88,-79.07 709.31,-78.42 717.17,-85.52 719.88,-79.07"/>
</a>
</g>
</g>
<!-- Node18&#45;&gt;Node13 -->
<g id="edge29_Node000018_Node000013" class="edge">
<title>Node18&#45;&gt;Node13</title>
<g id="a_edge29_Node000018_Node000013"><a xlink:title=" ">
<path fill="none" stroke="#63b8ff" d="M844.73,-113.09C871.6,-104.28 911.33,-91.25 941.11,-81.49"/>
<polygon fill="#63b8ff" stroke="#63b8ff" points="942.15,-84.83 950.56,-78.39 939.97,-78.18 942.15,-84.83"/>
</a>
</g>
</g>
<!-- Node18&#45;&gt;Node15 -->
<g id="edge23_Node000018_Node000015" class="edge">
<title>Node18&#45;&gt;Node15</title>
<g id="a_edge23_Node000018_Node000015"><a xlink:title=" ">
<path fill="none" stroke="#63b8ff" d="M772.29,-119.62C705.02,-114.05 569.94,-101.16 446.67,-77.82"/>
<polygon fill="#63b8ff" stroke="#63b8ff" points="447.51,-74.42 437.02,-75.97 446.18,-81.29 447.51,-74.42"/>
</a>
</g>
</g>
<!-- Node19 -->
<g id="Node000019" class="node">
<title>Node19</title>
<g id="a_Node000019"><a xlink:title=" ">
<polygon fill="#e0e0e0" stroke="#999999" points="933.12,-77.5 810.62,-77.5 810.62,-56.75 933.12,-56.75 933.12,-77.5"/>
<text xml:space="preserve" text-anchor="middle" x="871.88" y="-64" font-family="Helvetica,sans-Serif" font-size="10.00">fsl_device_registers.h</text>
</a>
</g>
</g>
<!-- Node18&#45;&gt;Node19 -->
<g id="edge25_Node000018_Node000019" class="edge">
<title>Node18&#45;&gt;Node19</title>
<g id="a_edge25_Node000018_Node000019"><a xlink:title=" ">
<path fill="none" stroke="#63b8ff" d="M825.07,-113.09C833.01,-105.46 844.24,-94.67 853.71,-85.57"/>
<polygon fill="#63b8ff" stroke="#63b8ff" points="855.89,-88.33 860.68,-78.88 851.04,-83.28 855.89,-88.33"/>
</a>
</g>
</g>
<!-- Node20&#45;&gt;Node3 -->
<g id="edge35_Node000020_Node000003" class="edge">
<title>Node20&#45;&gt;Node3</title>
<g id="a_edge35_Node000020_Node000003"><a xlink:title=" ">
<path fill="none" stroke="#63b8ff" d="M552.38,-169.85C557.19,-160.87 564.01,-147.05 567.88,-134.25 578.4,-99.41 583.3,-57.16 585.42,-32.38"/>
<polygon fill="#63b8ff" stroke="#63b8ff" points="588.9,-32.89 586.18,-22.65 581.92,-32.35 588.9,-32.89"/>
</a>
</g>
</g>
<!-- Node20&#45;&gt;Node6 -->
<g id="edge37_Node000020_Node000006" class="edge">
<title>Node20&#45;&gt;Node6</title>
<g id="a_edge37_Node000020_Node000006"><a xlink:title=" ">
<path fill="none" stroke="#63b8ff" d="M554.89,-169.95C562.43,-160.8 574.01,-146.66 583.88,-134.25 610.97,-100.15 605.75,-77.81 643.88,-56.75 713.61,-18.22 950.5,-12.12 1056.21,-11.35"/>
<polygon fill="#63b8ff" stroke="#63b8ff" points="1056.03,-14.85 1066.01,-11.3 1055.99,-7.85 1056.03,-14.85"/>
</a>
</g>
</g>
<!-- Node20&#45;&gt;Node14 -->
<g id="edge36_Node000020_Node000014" class="edge">
<title>Node20&#45;&gt;Node14</title>
<g id="a_edge36_Node000020_Node000014"><a xlink:title=" ">
<path fill="none" stroke="#63b8ff" d="M499.58,-169.96C452.74,-160.39 381.12,-145.76 332.27,-135.78"/>
<polygon fill="#63b8ff" stroke="#63b8ff" points="333.27,-132.41 322.77,-133.84 331.86,-139.27 333.27,-132.41"/>
</a>
</g>
</g>
<!-- Node20&#45;&gt;Node15 -->
<g id="edge31_Node000020_Node000015" class="edge">
<title>Node20&#45;&gt;Node15</title>
<g id="a_edge31_Node000020_Node000015"><a xlink:title=" ">
<path fill="none" stroke="#63b8ff" d="M509.6,-169.88C488.34,-162.81 462.33,-151.42 443.88,-134.25 430.5,-121.81 421.26,-103.08 415.65,-88.73"/>
<polygon fill="#63b8ff" stroke="#63b8ff" points="418.96,-87.59 412.28,-79.36 412.37,-89.96 418.96,-87.59"/>
</a>
</g>
</g>
<!-- Node21 -->
<g id="Node000021" class="node">
<title>Node21</title>
<g id="a_Node000021"><a xlink:href="tmc2209__shared_8h.html" target="_top" xlink:title=" ">
<polygon fill="white" stroke="#666666" points="558.88,-134.25 452.88,-134.25 452.88,-113.5 558.88,-113.5 558.88,-134.25"/>
<text xml:space="preserve" text-anchor="middle" x="505.88" y="-120.75" font-family="Helvetica,sans-Serif" font-size="10.00">tmc2209_shared.h</text>
</a>
</g>
</g>
<!-- Node20&#45;&gt;Node21 -->
<g id="edge32_Node000020_Node000021" class="edge">
<title>Node20&#45;&gt;Node21</title>
<g id="a_edge32_Node000020_Node000021"><a xlink:title=" ">
<path fill="none" stroke="#63b8ff" d="M539.55,-169.84C534.12,-162.6 526.57,-152.51 519.99,-143.72"/>
<polygon fill="#63b8ff" stroke="#63b8ff" points="522.84,-141.7 514.05,-135.79 517.24,-145.89 522.84,-141.7"/>
</a>
</g>
</g>
<!-- Node21&#45;&gt;Node15 -->
<g id="edge33_Node000021_Node000015" class="edge">
<title>Node21&#45;&gt;Node15</title>
<g id="a_edge33_Node000021_Node000015"><a xlink:title=" ">
<path fill="none" stroke="#63b8ff" d="M488.53,-113.09C473.91,-104.83 452.74,-92.88 435.9,-83.38"/>
<polygon fill="#63b8ff" stroke="#63b8ff" points="437.81,-80.44 427.38,-78.57 434.37,-86.54 437.81,-80.44"/>
</a>
</g>
</g>
<!-- Node22 -->
<g id="Node000022" class="node">
<title>Node22</title>
<g id="a_Node000022"><a xlink:title=" ">
<polygon fill="#e0e0e0" stroke="#999999" points="558.5,-77.5 453.25,-77.5 453.25,-56.75 558.5,-56.75 558.5,-77.5"/>
<text xml:space="preserve" text-anchor="middle" x="505.88" y="-64" font-family="Helvetica,sans-Serif" font-size="10.00">fsl_uart_freertos.h</text>
</a>
</g>
</g>
<!-- Node21&#45;&gt;Node22 -->
<g id="edge34_Node000021_Node000022" class="edge">
<title>Node21&#45;&gt;Node22</title>
<g id="a_edge34_Node000021_Node000022"><a xlink:title=" ">
<path fill="none" stroke="#63b8ff" d="M505.88,-113.09C505.88,-106.47 505.88,-97.47 505.88,-89.27"/>
<polygon fill="#63b8ff" stroke="#63b8ff" points="509.38,-89.34 505.88,-79.34 502.38,-89.34 509.38,-89.34"/>
</a>
</g>
</g>
<!-- Node23&#45;&gt;Node4 -->
<g id="edge43_Node000023_Node000004" class="edge">
<title>Node23&#45;&gt;Node4</title>
<g id="a_edge43_Node000023_Node000004"><a xlink:title=" ">
<path fill="none" stroke="#63b8ff" d="M1076.61,-283.34C1067.74,-275.63 1055.16,-264.7 1044.63,-255.54"/>
<polygon fill="#63b8ff" stroke="#63b8ff" points="1047.03,-252.99 1037.18,-249.07 1042.44,-258.27 1047.03,-252.99"/>
</a>
</g>
</g>
<!-- Node23&#45;&gt;Node6 -->
<g id="edge44_Node000023_Node000006" class="edge">
<title>Node23&#45;&gt;Node6</title>
<g id="a_edge44_Node000023_Node000006"><a xlink:title=" ">
<path fill="none" stroke="#63b8ff" d="M1135.25,-287.72C1194.68,-278 1288.88,-251.56 1288.88,-181.62 1288.88,-181.62 1288.88,-181.62 1288.88,-122.88 1288.88,-92.3 1291.57,-78.3 1269.88,-56.75 1240.71,-27.78 1194.63,-16.95 1159.07,-13.07"/>
<polygon fill="#63b8ff" stroke="#63b8ff" points="1159.71,-9.61 1149.43,-12.18 1159.07,-16.58 1159.71,-9.61"/>
</a>
</g>
</g>
<!-- Node23&#45;&gt;Node7 -->
<g id="edge42_Node000023_Node000007" class="edge">
<title>Node23&#45;&gt;Node7</title>
<g id="a_edge42_Node000023_Node000007"><a xlink:title=" ">
<path fill="none" stroke="#63b8ff" d="M1098.36,-283.62C1119.05,-264.87 1165.37,-222.88 1191.67,-199.03"/>
<polygon fill="#63b8ff" stroke="#63b8ff" points="1193.88,-201.75 1198.94,-192.44 1189.18,-196.56 1193.88,-201.75"/>
</a>
</g>
</g>
<!-- Node24&#45;&gt;Node3 -->
<g id="edge49_Node000024_Node000003" class="edge">
<title>Node24&#45;&gt;Node3</title>
<g id="a_edge49_Node000024_Node000003"><a xlink:title=" ">
<path fill="none" stroke="#63b8ff" d="M182.69,-169.83C128.68,-150.26 22.44,-104.13 65.88,-56.75 96.96,-22.84 405.38,-14.18 532.52,-12.05"/>
<polygon fill="#63b8ff" stroke="#63b8ff" points="532.43,-15.55 542.37,-11.89 532.31,-8.55 532.43,-15.55"/>
</a>
</g>
</g>
<!-- Node24&#45;&gt;Node9 -->
<g id="edge47_Node000024_Node000009" class="edge">
<title>Node24&#45;&gt;Node9</title>
<g id="a_edge47_Node000024_Node000009"><a xlink:title=" ">
<path fill="none" stroke="#63b8ff" d="M211.68,-169.93C211.9,-155.9 214.29,-129.86 227.88,-113.5 241.59,-96.98 262.57,-86.24 281.86,-79.38"/>
<polygon fill="#63b8ff" stroke="#63b8ff" points="282.78,-82.76 291.2,-76.33 280.61,-76.1 282.78,-82.76"/>
</a>
</g>
</g>
<!-- Node24&#45;&gt;Node14 -->
<g id="edge50_Node000024_Node000014" class="edge">
<title>Node24&#45;&gt;Node14</title>
<g id="a_edge50_Node000024_Node000014"><a xlink:title=" ">
<path fill="none" stroke="#63b8ff" d="M223.85,-169.84C233.38,-162.05 246.94,-150.97 258.21,-141.76"/>
<polygon fill="#63b8ff" stroke="#63b8ff" points="260.3,-144.57 265.83,-135.54 255.87,-139.15 260.3,-144.57"/>
</a>
</g>
</g>
<!-- Node24&#45;&gt;Node15 -->
<g id="edge46_Node000024_Node000015" class="edge">
<title>Node24&#45;&gt;Node15</title>
<g id="a_edge46_Node000024_Node000015"><a xlink:title=" ">
<path fill="none" stroke="#63b8ff" d="M246.03,-169.8C270.35,-162.03 303.3,-149.89 329.88,-134.25 353.07,-120.6 376.29,-100.15 391.49,-85.61"/>
<polygon fill="#63b8ff" stroke="#63b8ff" points="393.67,-88.38 398.37,-78.89 388.78,-83.37 393.67,-88.38"/>
</a>
</g>
</g>
<!-- Node24&#45;&gt;Node16 -->
<g id="edge48_Node000024_Node000016" class="edge">
<title>Node24&#45;&gt;Node16</title>
<g id="a_edge48_Node000024_Node000016"><a xlink:title=" ">
<path fill="none" stroke="#63b8ff" d="M204.12,-170.12C189.08,-151.7 155.74,-110.84 136.12,-86.8"/>
<polygon fill="#63b8ff" stroke="#63b8ff" points="138.86,-84.63 129.83,-79.1 133.44,-89.06 138.86,-84.63"/>
</a>
</g>
</g>
</g>
</svg>
