<?xml version="1.0" encoding="UTF-8" standalone="no"?>
<!DOCTYPE svg PUBLIC "-//W3C//DTD SVG 1.1//EN"
 "http://www.w3.org/Graphics/SVG/1.1/DTD/svg11.dtd">
<!-- Generated by graphviz version 14.1.2 (0)
 -->
<!-- Title: DMA Peripheral Access Layer Pages: 1 -->
<svg width="465pt" height="42pt"
 viewBox="0.00 0.00 465.00 42.00" xmlns="http://www.w3.org/2000/svg" xmlns:xlink="http://www.w3.org/1999/xlink">
<g id="graph0" class="graph" transform="scale(1 1) rotate(0) translate(4 37.5)">
<title>DMA Peripheral Access Layer</title>
<!-- Node1 -->
<g id="Node000001" class="node">
<title>Node1</title>
<g id="a_Node000001"><a xlink:title=" ">
<polygon fill="#999999" stroke="#666666" points="303.5,-33.5 175,-33.5 175,0 303.5,0 303.5,-33.5"/>
<text xml:space="preserve" text-anchor="start" x="183" y="-20" font-family="Helvetica,sans-Serif" font-size="10.00">DMA Peripheral Access</text>
<text xml:space="preserve" text-anchor="middle" x="239.25" y="-7.25" font-family="Helvetica,sans-Serif" font-size="10.00"> Layer</text>
</a>
</g>
</g>
<!-- Node3 -->
<g id="Node000003" class="node">
<title>Node3</title>
<g id="a_Node000003"><a xlink:href="group__DMA__Register__Masks.html" target="_top" xlink:title=" ">
<polygon fill="white" stroke="#666666" points="456.75,-27.12 339.5,-27.12 339.5,-6.38 456.75,-6.38 456.75,-27.12"/>
<text xml:space="preserve" text-anchor="middle" x="398.12" y="-13.62" font-family="Helvetica,sans-Serif" font-size="10.00">DMA Register Masks</text>
</a>
</g>
</g>
<!-- Node1&#45;&gt;Node3 -->
<g id="edge2" class="edge">
<title>Node1&#45;&gt;Node3</title>
<path fill="none" stroke="black" d="M314.99,-16.75C323.09,-16.75 331.25,-16.75 339.11,-16.75"/>
<polygon fill="black" stroke="black" points="315.12,-13.25 305.12,-16.75 315.12,-20.25 315.12,-13.25"/>
</g>
<!-- Node2 -->
<g id="Node000002" class="node">
<title>Node2</title>
<g id="a_Node000002"><a xlink:href="group__Peripheral__access__layer.html" target="_top" xlink:title=" ">
<polygon fill="white" stroke="#666666" points="139,-33.5 0,-33.5 0,0 139,0 139,-33.5"/>
<text xml:space="preserve" text-anchor="start" x="8" y="-20" font-family="Helvetica,sans-Serif" font-size="10.00">Device Peripheral Access</text>
<text xml:space="preserve" text-anchor="middle" x="69.5" y="-7.25" font-family="Helvetica,sans-Serif" font-size="10.00"> Layer</text>
</a>
</g>
</g>
<!-- Node2&#45;&gt;Node1 -->
<g id="edge1" class="edge">
<title>Node2&#45;&gt;Node1</title>
<path fill="none" stroke="black" d="M150.52,-16.75C158.57,-16.75 166.66,-16.75 174.5,-16.75"/>
<polygon fill="black" stroke="black" points="150.73,-13.25 140.73,-16.75 150.73,-20.25 150.73,-13.25"/>
</g>
</g>
</svg>
