<?xml version="1.0" encoding="UTF-8" standalone="no"?>
<!DOCTYPE svg PUBLIC "-//W3C//DTD SVG 1.1//EN"
 "http://www.w3.org/Graphics/SVG/1.1/DTD/svg11.dtd">
<!-- Generated by graphviz version 14.1.2 (0)
 -->
<!-- Title: Device Peripheral Access Layer Pages: 1 -->
<svg width="489pt" height="1914pt"
 viewBox="0.00 0.00 489.00 1914.00" xmlns="http://www.w3.org/2000/svg" xmlns:xlink="http://www.w3.org/1999/xlink">
<g id="graph0" class="graph" transform="scale(1 1) rotate(0) translate(4 1909.5)">
<title>Device Peripheral Access Layer</title>
<!-- Node3 -->
<g id="Node000003" class="node">
<title>Node3</title>
<g id="a_Node000003"><a xlink:href="group__ADC__Peripheral__Access__Layer.html" target="_top" xlink:title=" ">
<polygon fill="white" stroke="#666666" points="468,-1905.5 341.75,-1905.5 341.75,-1872 468,-1872 468,-1905.5"/>
<text xml:space="preserve" text-anchor="start" x="349.75" y="-1892" font-family="Helvetica,sans-Serif" font-size="10.00">ADC Peripheral Access</text>
<text xml:space="preserve" text-anchor="middle" x="404.88" y="-1879.25" font-family="Helvetica,sans-Serif" font-size="10.00"> Layer</text>
</a>
</g>
</g>
<!-- Node4 -->
<g id="Node000004" class="node">
<title>Node4</title>
<g id="a_Node000004"><a xlink:href="group__CMP__Peripheral__Access__Layer.html" target="_top" xlink:title=" ">
<polygon fill="white" stroke="#666666" points="468.38,-1853.5 341.38,-1853.5 341.38,-1820 468.38,-1820 468.38,-1853.5"/>
<text xml:space="preserve" text-anchor="start" x="349.38" y="-1840" font-family="Helvetica,sans-Serif" font-size="10.00">CMP Peripheral Access</text>
<text xml:space="preserve" text-anchor="middle" x="404.88" y="-1827.25" font-family="Helvetica,sans-Serif" font-size="10.00"> Layer</text>
</a>
</g>
</g>
<!-- Node5 -->
<g id="Node000005" class="node">
<title>Node5</title>
<g id="a_Node000005"><a xlink:href="group__CRC__Peripheral__Access__Layer.html" target="_top" xlink:title=" ">
<polygon fill="white" stroke="#666666" points="467.62,-1801.5 342.12,-1801.5 342.12,-1768 467.62,-1768 467.62,-1801.5"/>
<text xml:space="preserve" text-anchor="start" x="350.12" y="-1788" font-family="Helvetica,sans-Serif" font-size="10.00">CRC Peripheral Access</text>
<text xml:space="preserve" text-anchor="middle" x="404.88" y="-1775.25" font-family="Helvetica,sans-Serif" font-size="10.00"> Layer</text>
</a>
</g>
</g>
<!-- Node6 -->
<g id="Node000006" class="node">
<title>Node6</title>
<g id="a_Node000006"><a xlink:href="group__DAC__Peripheral__Access__Layer.html" target="_top" xlink:title=" ">
<polygon fill="white" stroke="#666666" points="468,-1749.5 341.75,-1749.5 341.75,-1716 468,-1716 468,-1749.5"/>
<text xml:space="preserve" text-anchor="start" x="349.75" y="-1736" font-family="Helvetica,sans-Serif" font-size="10.00">DAC Peripheral Access</text>
<text xml:space="preserve" text-anchor="middle" x="404.88" y="-1723.25" font-family="Helvetica,sans-Serif" font-size="10.00"> Layer</text>
</a>
</g>
</g>
<!-- Node8 -->
<g id="Node000008" class="node">
<title>Node8</title>
<g id="a_Node000008"><a xlink:href="group__DMAMUX__Peripheral__Access__Layer.html" target="_top" xlink:title=" ">
<polygon fill="white" stroke="#666666" points="480.75,-1697.5 329,-1697.5 329,-1664 480.75,-1664 480.75,-1697.5"/>
<text xml:space="preserve" text-anchor="start" x="337" y="-1684" font-family="Helvetica,sans-Serif" font-size="10.00">DMAMUX Peripheral Access</text>
<text xml:space="preserve" text-anchor="middle" x="404.88" y="-1671.25" font-family="Helvetica,sans-Serif" font-size="10.00"> Layer</text>
</a>
</g>
</g>
<!-- Node7 -->
<g id="Node000007" class="node">
<title>Node7</title>
<g id="a_Node000007"><a xlink:href="group__DMA__Peripheral__Access__Layer.html" target="_top" xlink:title=" ">
<polygon fill="white" stroke="#666666" points="469.12,-1645.5 340.62,-1645.5 340.62,-1612 469.12,-1612 469.12,-1645.5"/>
<text xml:space="preserve" text-anchor="start" x="348.62" y="-1632" font-family="Helvetica,sans-Serif" font-size="10.00">DMA Peripheral Access</text>
<text xml:space="preserve" text-anchor="middle" x="404.88" y="-1619.25" font-family="Helvetica,sans-Serif" font-size="10.00"> Layer</text>
</a>
</g>
</g>
<!-- Node9 -->
<g id="Node000009" class="node">
<title>Node9</title>
<g id="a_Node000009"><a xlink:href="group__EWM__Peripheral__Access__Layer.html" target="_top" xlink:title=" ">
<polygon fill="white" stroke="#666666" points="469.88,-1593.5 339.88,-1593.5 339.88,-1560 469.88,-1560 469.88,-1593.5"/>
<text xml:space="preserve" text-anchor="start" x="347.88" y="-1580" font-family="Helvetica,sans-Serif" font-size="10.00">EWM Peripheral Access</text>
<text xml:space="preserve" text-anchor="middle" x="404.88" y="-1567.25" font-family="Helvetica,sans-Serif" font-size="10.00"> Layer</text>
</a>
</g>
</g>
<!-- Node10 -->
<g id="Node000010" class="node">
<title>Node10</title>
<g id="a_Node000010"><a xlink:href="group__FB__Peripheral__Access__Layer.html" target="_top" xlink:title=" ">
<polygon fill="white" stroke="#666666" points="463.88,-1541.5 345.88,-1541.5 345.88,-1508 463.88,-1508 463.88,-1541.5"/>
<text xml:space="preserve" text-anchor="start" x="353.88" y="-1528" font-family="Helvetica,sans-Serif" font-size="10.00">FB Peripheral Access</text>
<text xml:space="preserve" text-anchor="middle" x="404.88" y="-1515.25" font-family="Helvetica,sans-Serif" font-size="10.00"> Layer</text>
</a>
</g>
</g>
<!-- Node11 -->
<g id="Node000011" class="node">
<title>Node11</title>
<g id="a_Node000011"><a xlink:href="group__FMC__Peripheral__Access__Layer.html" target="_top" xlink:title=" ">
<polygon fill="white" stroke="#666666" points="468.38,-1489.5 341.38,-1489.5 341.38,-1456 468.38,-1456 468.38,-1489.5"/>
<text xml:space="preserve" text-anchor="start" x="349.38" y="-1476" font-family="Helvetica,sans-Serif" font-size="10.00">FMC Peripheral Access</text>
<text xml:space="preserve" text-anchor="middle" x="404.88" y="-1463.25" font-family="Helvetica,sans-Serif" font-size="10.00"> Layer</text>
</a>
</g>
</g>
<!-- Node12 -->
<g id="Node000012" class="node">
<title>Node12</title>
<g id="a_Node000012"><a xlink:href="group__FTFA__Peripheral__Access__Layer.html" target="_top" xlink:title=" ">
<polygon fill="white" stroke="#666666" points="468.75,-1437.5 341,-1437.5 341,-1404 468.75,-1404 468.75,-1437.5"/>
<text xml:space="preserve" text-anchor="start" x="349" y="-1424" font-family="Helvetica,sans-Serif" font-size="10.00">FTFA Peripheral Access</text>
<text xml:space="preserve" text-anchor="middle" x="404.88" y="-1411.25" font-family="Helvetica,sans-Serif" font-size="10.00"> Layer</text>
</a>
</g>
</g>
<!-- Node13 -->
<g id="Node000013" class="node">
<title>Node13</title>
<g id="a_Node000013"><a xlink:href="group__FTM__Peripheral__Access__Layer.html" target="_top" xlink:title=" ">
<polygon fill="white" stroke="#666666" points="467.62,-1385.5 342.12,-1385.5 342.12,-1352 467.62,-1352 467.62,-1385.5"/>
<text xml:space="preserve" text-anchor="start" x="350.12" y="-1372" font-family="Helvetica,sans-Serif" font-size="10.00">FTM Peripheral Access</text>
<text xml:space="preserve" text-anchor="middle" x="404.88" y="-1359.25" font-family="Helvetica,sans-Serif" font-size="10.00"> Layer</text>
</a>
</g>
</g>
<!-- Node14 -->
<g id="Node000014" class="node">
<title>Node14</title>
<g id="a_Node000014"><a xlink:href="group__GPIO__Peripheral__Access__Layer.html" target="_top" xlink:title=" ">
<polygon fill="white" stroke="#666666" points="469.5,-1333.5 340.25,-1333.5 340.25,-1300 469.5,-1300 469.5,-1333.5"/>
<text xml:space="preserve" text-anchor="start" x="348.25" y="-1320" font-family="Helvetica,sans-Serif" font-size="10.00">GPIO Peripheral Access</text>
<text xml:space="preserve" text-anchor="middle" x="404.88" y="-1307.25" font-family="Helvetica,sans-Serif" font-size="10.00"> Layer</text>
</a>
</g>
</g>
<!-- Node15 -->
<g id="Node000015" class="node">
<title>Node15</title>
<g id="a_Node000015"><a xlink:href="group__I2C__Peripheral__Access__Layer.html" target="_top" xlink:title=" ">
<polygon fill="white" stroke="#666666" points="465.38,-1281.5 344.38,-1281.5 344.38,-1248 465.38,-1248 465.38,-1281.5"/>
<text xml:space="preserve" text-anchor="start" x="352.38" y="-1268" font-family="Helvetica,sans-Serif" font-size="10.00">I2C Peripheral Access</text>
<text xml:space="preserve" text-anchor="middle" x="404.88" y="-1255.25" font-family="Helvetica,sans-Serif" font-size="10.00"> Layer</text>
</a>
</g>
</g>
<!-- Node16 -->
<g id="Node000016" class="node">
<title>Node16</title>
<g id="a_Node000016"><a xlink:href="group__I2S__Peripheral__Access__Layer.html" target="_top" xlink:title=" ">
<polygon fill="white" stroke="#666666" points="465,-1229.5 344.75,-1229.5 344.75,-1196 465,-1196 465,-1229.5"/>
<text xml:space="preserve" text-anchor="start" x="352.75" y="-1216" font-family="Helvetica,sans-Serif" font-size="10.00">I2S Peripheral Access</text>
<text xml:space="preserve" text-anchor="middle" x="404.88" y="-1203.25" font-family="Helvetica,sans-Serif" font-size="10.00"> Layer</text>
</a>
</g>
</g>
<!-- Node17 -->
<g id="Node000017" class="node">
<title>Node17</title>
<g id="a_Node000017"><a xlink:href="group__LLWU__Peripheral__Access__Layer.html" target="_top" xlink:title=" ">
<polygon fill="white" stroke="#666666" points="471,-1177.5 338.75,-1177.5 338.75,-1144 471,-1144 471,-1177.5"/>
<text xml:space="preserve" text-anchor="start" x="346.75" y="-1164" font-family="Helvetica,sans-Serif" font-size="10.00">LLWU Peripheral Access</text>
<text xml:space="preserve" text-anchor="middle" x="404.88" y="-1151.25" font-family="Helvetica,sans-Serif" font-size="10.00"> Layer</text>
</a>
</g>
</g>
<!-- Node18 -->
<g id="Node000018" class="node">
<title>Node18</title>
<g id="a_Node000018"><a xlink:href="group__LPTMR__Peripheral__Access__Layer.html" target="_top" xlink:title=" ">
<polygon fill="white" stroke="#666666" points="474,-1125.5 335.75,-1125.5 335.75,-1092 474,-1092 474,-1125.5"/>
<text xml:space="preserve" text-anchor="start" x="343.75" y="-1112" font-family="Helvetica,sans-Serif" font-size="10.00">LPTMR Peripheral Access</text>
<text xml:space="preserve" text-anchor="middle" x="404.88" y="-1099.25" font-family="Helvetica,sans-Serif" font-size="10.00"> Layer</text>
</a>
</g>
</g>
<!-- Node19 -->
<g id="Node000019" class="node">
<title>Node19</title>
<g id="a_Node000019"><a xlink:href="group__LPUART__Peripheral__Access__Layer.html" target="_top" xlink:title=" ">
<polygon fill="white" stroke="#666666" points="476.25,-1073.5 333.5,-1073.5 333.5,-1040 476.25,-1040 476.25,-1073.5"/>
<text xml:space="preserve" text-anchor="start" x="341.5" y="-1060" font-family="Helvetica,sans-Serif" font-size="10.00">LPUART Peripheral Access</text>
<text xml:space="preserve" text-anchor="middle" x="404.88" y="-1047.25" font-family="Helvetica,sans-Serif" font-size="10.00"> Layer</text>
</a>
</g>
</g>
<!-- Node20 -->
<g id="Node000020" class="node">
<title>Node20</title>
<g id="a_Node000020"><a xlink:href="group__MCG__Peripheral__Access__Layer.html" target="_top" xlink:title=" ">
<polygon fill="white" stroke="#666666" points="469.12,-1021.5 340.62,-1021.5 340.62,-988 469.12,-988 469.12,-1021.5"/>
<text xml:space="preserve" text-anchor="start" x="348.62" y="-1008" font-family="Helvetica,sans-Serif" font-size="10.00">MCG Peripheral Access</text>
<text xml:space="preserve" text-anchor="middle" x="404.88" y="-995.25" font-family="Helvetica,sans-Serif" font-size="10.00"> Layer</text>
</a>
</g>
</g>
<!-- Node21 -->
<g id="Node000021" class="node">
<title>Node21</title>
<g id="a_Node000021"><a xlink:href="group__MCM__Peripheral__Access__Layer.html" target="_top" xlink:title=" ">
<polygon fill="white" stroke="#666666" points="469.88,-969.5 339.88,-969.5 339.88,-936 469.88,-936 469.88,-969.5"/>
<text xml:space="preserve" text-anchor="start" x="347.88" y="-956" font-family="Helvetica,sans-Serif" font-size="10.00">MCM Peripheral Access</text>
<text xml:space="preserve" text-anchor="middle" x="404.88" y="-943.25" font-family="Helvetica,sans-Serif" font-size="10.00"> Layer</text>
</a>
</g>
</g>
<!-- Node2 -->
<g id="Node000002" class="node">
<title>Node2</title>
<g id="a_Node000002"><a xlink:href="group__Mapping__Information.html" target="_top" xlink:title=" ">
<polygon fill="white" stroke="#666666" points="118,-963.12 0,-963.12 0,-942.38 118,-942.38 118,-963.12"/>
<text xml:space="preserve" text-anchor="middle" x="59" y="-949.62" font-family="Helvetica,sans-Serif" font-size="10.00">Mapping Information</text>
</a>
</g>
</g>
<!-- Node1 -->
<g id="Node000001" class="node">
<title>Node1</title>
<g id="a_Node000001"><a xlink:title=" ">
<polygon fill="#999999" stroke="#666666" points="293,-969.5 154,-969.5 154,-936 293,-936 293,-969.5"/>
<text xml:space="preserve" text-anchor="start" x="162" y="-956" font-family="Helvetica,sans-Serif" font-size="10.00">Device Peripheral Access</text>
<text xml:space="preserve" text-anchor="middle" x="223.5" y="-943.25" font-family="Helvetica,sans-Serif" font-size="10.00"> Layer</text>
</a>
</g>
</g>
<!-- Node2&#45;&gt;Node1 -->
<g id="edge1" class="edge">
<title>Node2&#45;&gt;Node1</title>
<path fill="none" stroke="black" d="M129.68,-952.75C137.61,-952.75 145.69,-952.75 153.61,-952.75"/>
<polygon fill="black" stroke="black" points="129.72,-949.25 119.72,-952.75 129.72,-956.25 129.72,-949.25"/>
</g>
<!-- Node22 -->
<g id="Node000022" class="node">
<title>Node22</title>
<g id="a_Node000022"><a xlink:href="group__NV__Peripheral__Access__Layer.html" target="_top" xlink:title=" ">
<polygon fill="white" stroke="#666666" points="464.62,-917.5 345.12,-917.5 345.12,-884 464.62,-884 464.62,-917.5"/>
<text xml:space="preserve" text-anchor="start" x="353.12" y="-904" font-family="Helvetica,sans-Serif" font-size="10.00">NV Peripheral Access</text>
<text xml:space="preserve" text-anchor="middle" x="404.88" y="-891.25" font-family="Helvetica,sans-Serif" font-size="10.00"> Layer</text>
</a>
</g>
</g>
<!-- Node23 -->
<g id="Node000023" class="node">
<title>Node23</title>
<g id="a_Node000023"><a xlink:href="group__OSC__Peripheral__Access__Layer.html" target="_top" xlink:title=" ">
<polygon fill="white" stroke="#666666" points="467.62,-865.5 342.12,-865.5 342.12,-832 467.62,-832 467.62,-865.5"/>
<text xml:space="preserve" text-anchor="start" x="350.12" y="-852" font-family="Helvetica,sans-Serif" font-size="10.00">OSC Peripheral Access</text>
<text xml:space="preserve" text-anchor="middle" x="404.88" y="-839.25" font-family="Helvetica,sans-Serif" font-size="10.00"> Layer</text>
</a>
</g>
</g>
<!-- Node24 -->
<g id="Node000024" class="node">
<title>Node24</title>
<g id="a_Node000024"><a xlink:href="group__PDB__Peripheral__Access__Layer.html" target="_top" xlink:title=" ">
<polygon fill="white" stroke="#666666" points="467.62,-813.5 342.12,-813.5 342.12,-780 467.62,-780 467.62,-813.5"/>
<text xml:space="preserve" text-anchor="start" x="350.12" y="-800" font-family="Helvetica,sans-Serif" font-size="10.00">PDB Peripheral Access</text>
<text xml:space="preserve" text-anchor="middle" x="404.88" y="-787.25" font-family="Helvetica,sans-Serif" font-size="10.00"> Layer</text>
</a>
</g>
</g>
<!-- Node25 -->
<g id="Node000025" class="node">
<title>Node25</title>
<g id="a_Node000025"><a xlink:href="group__PIT__Peripheral__Access__Layer.html" target="_top" xlink:title=" ">
<polygon fill="white" stroke="#666666" points="465,-761.5 344.75,-761.5 344.75,-728 465,-728 465,-761.5"/>
<text xml:space="preserve" text-anchor="start" x="352.75" y="-748" font-family="Helvetica,sans-Serif" font-size="10.00">PIT Peripheral Access</text>
<text xml:space="preserve" text-anchor="middle" x="404.88" y="-735.25" font-family="Helvetica,sans-Serif" font-size="10.00"> Layer</text>
</a>
</g>
</g>
<!-- Node26 -->
<g id="Node000026" class="node">
<title>Node26</title>
<g id="a_Node000026"><a xlink:href="group__PMC__Peripheral__Access__Layer.html" target="_top" xlink:title=" ">
<polygon fill="white" stroke="#666666" points="468.38,-709.5 341.38,-709.5 341.38,-676 468.38,-676 468.38,-709.5"/>
<text xml:space="preserve" text-anchor="start" x="349.38" y="-696" font-family="Helvetica,sans-Serif" font-size="10.00">PMC Peripheral Access</text>
<text xml:space="preserve" text-anchor="middle" x="404.88" y="-683.25" font-family="Helvetica,sans-Serif" font-size="10.00"> Layer</text>
</a>
</g>
</g>
<!-- Node27 -->
<g id="Node000027" class="node">
<title>Node27</title>
<g id="a_Node000027"><a xlink:href="group__PORT__Peripheral__Access__Layer.html" target="_top" xlink:title=" ">
<polygon fill="white" stroke="#666666" points="470.25,-657.5 339.5,-657.5 339.5,-624 470.25,-624 470.25,-657.5"/>
<text xml:space="preserve" text-anchor="start" x="347.5" y="-644" font-family="Helvetica,sans-Serif" font-size="10.00">PORT Peripheral Access</text>
<text xml:space="preserve" text-anchor="middle" x="404.88" y="-631.25" font-family="Helvetica,sans-Serif" font-size="10.00"> Layer</text>
</a>
</g>
</g>
<!-- Node1&#45;&gt;Node3 -->
<g id="edge2" class="edge">
<title>Node1&#45;&gt;Node3</title>
<path fill="none" stroke="black" d="M225.98,-981.23C233.84,-1127.7 272.42,-1792.13 329,-1862.75 332.44,-1867.05 336.64,-1870.63 341.26,-1873.63"/>
<polygon fill="black" stroke="black" points="229.48,-981.08 225.45,-971.28 222.49,-981.45 229.48,-981.08"/>
</g>
<!-- Node1&#45;&gt;Node4 -->
<g id="edge3" class="edge">
<title>Node1&#45;&gt;Node4</title>
<path fill="none" stroke="black" d="M224.07,-980.85C222.6,-1113.83 222.78,-1679.1 329,-1810.75 332.37,-1814.93 336.45,-1818.43 340.95,-1821.38"/>
<polygon fill="black" stroke="black" points="227.57,-981.24 224.19,-971.19 220.57,-981.15 227.57,-981.24"/>
</g>
<!-- Node1&#45;&gt;Node5 -->
<g id="edge4" class="edge">
<title>Node1&#45;&gt;Node5</title>
<path fill="none" stroke="black" d="M224.32,-981.15C224.05,-1109.68 229.17,-1635.99 329,-1758.75 332.56,-1763.13 336.9,-1766.77 341.68,-1769.8"/>
<polygon fill="black" stroke="black" points="227.82,-981.19 224.35,-971.18 220.82,-981.16 227.82,-981.19"/>
</g>
<!-- Node1&#45;&gt;Node6 -->
<g id="edge5" class="edge">
<title>Node1&#45;&gt;Node6</title>
<path fill="none" stroke="black" d="M224.6,-981.28C225.6,-1104.86 235.49,-1592.79 329,-1706.75 332.49,-1711.01 336.72,-1714.57 341.37,-1717.54"/>
<polygon fill="black" stroke="black" points="228.1,-981.36 224.54,-971.38 221.1,-981.4 228.1,-981.36"/>
</g>
<!-- Node1&#45;&gt;Node8 -->
<g id="edge7" class="edge">
<title>Node1&#45;&gt;Node8</title>
<path fill="none" stroke="black" d="M224.92,-981.2C227.24,-1099.28 241.75,-1549.5 329,-1654.75 331.81,-1658.14 335.09,-1661.09 338.67,-1663.65"/>
<polygon fill="black" stroke="black" points="228.43,-981.39 224.75,-971.46 221.43,-981.52 228.43,-981.39"/>
</g>
<!-- Node1&#45;&gt;Node7 -->
<g id="edge6" class="edge">
<title>Node1&#45;&gt;Node7</title>
<path fill="none" stroke="black" d="M225.3,-981.24C229.01,-1093.81 248.02,-1506.21 329,-1602.75 332.27,-1606.65 336.16,-1609.97 340.42,-1612.79"/>
<polygon fill="black" stroke="black" points="228.8,-981.27 224.99,-971.39 221.81,-981.49 228.8,-981.27"/>
</g>
<!-- Node1&#45;&gt;Node9 -->
<g id="edge8" class="edge">
<title>Node1&#45;&gt;Node9</title>
<path fill="none" stroke="black" d="M225.74,-981.35C230.95,-1088.27 254.29,-1462.91 329,-1550.75 332.03,-1554.31 335.58,-1557.39 339.45,-1560.04"/>
<polygon fill="black" stroke="black" points="229.24,-981.28 225.28,-971.45 222.25,-981.6 229.24,-981.28"/>
</g>
<!-- Node1&#45;&gt;Node10 -->
<g id="edge9" class="edge">
<title>Node1&#45;&gt;Node10</title>
<path fill="none" stroke="black" d="M226.25,-981.12C233,-1081.71 260.46,-1419.46 329,-1498.75 333.59,-1504.06 339.32,-1508.28 345.56,-1511.65"/>
<polygon fill="black" stroke="black" points="229.76,-981.07 225.61,-971.32 222.77,-981.53 229.76,-981.07"/>
</g>
<!-- Node1&#45;&gt;Node11 -->
<g id="edge10" class="edge">
<title>Node1&#45;&gt;Node11</title>
<path fill="none" stroke="black" d="M226.9,-981.46C235.37,-1076.08 266.73,-1376.11 329,-1446.75 332.46,-1450.67 336.54,-1454 340.98,-1456.83"/>
<polygon fill="black" stroke="black" points="230.39,-981.16 226.03,-971.5 223.42,-981.77 230.39,-981.16"/>
</g>
<!-- Node1&#45;&gt;Node12 -->
<g id="edge11" class="edge">
<title>Node1&#45;&gt;Node12</title>
<path fill="none" stroke="black" d="M227.63,-980.99C237.83,-1068.41 272.79,-1332.49 329,-1394.75 332.41,-1398.53 336.4,-1401.76 340.73,-1404.52"/>
<polygon fill="black" stroke="black" points="231.11,-980.68 226.5,-971.14 224.16,-981.47 231.11,-980.68"/>
</g>
<!-- Node1&#45;&gt;Node13 -->
<g id="edge12" class="edge">
<title>Node1&#45;&gt;Node13</title>
<path fill="none" stroke="black" d="M223.63,-981.28C223.06,-1052.13 231.5,-1237.92 329,-1342.75 332.75,-1346.78 337.15,-1350.19 341.92,-1353.06"/>
<polygon fill="black" stroke="black" points="227.13,-981.37 223.79,-971.32 220.13,-981.26 227.13,-981.37"/>
</g>
<!-- Node1&#45;&gt;Node14 -->
<g id="edge13" class="edge">
<title>Node1&#45;&gt;Node14</title>
<path fill="none" stroke="black" d="M225.04,-980.96C227.78,-1044.9 243.4,-1202.15 329,-1290.75 332.25,-1294.11 335.96,-1297.04 339.95,-1299.59"/>
<polygon fill="black" stroke="black" points="228.55,-981.19 224.7,-971.32 221.55,-981.43 228.55,-981.19"/>
</g>
<!-- Node1&#45;&gt;Node15 -->
<g id="edge14" class="edge">
<title>Node1&#45;&gt;Node15</title>
<path fill="none" stroke="black" d="M226.94,-981.25C233.31,-1038.12 255.46,-1166.38 329,-1238.75 333.41,-1243.09 338.59,-1246.71 344.12,-1249.73"/>
<polygon fill="black" stroke="black" points="230.44,-981.04 225.93,-971.45 223.47,-981.75 230.44,-981.04"/>
</g>
<!-- Node1&#45;&gt;Node16 -->
<g id="edge15" class="edge">
<title>Node1&#45;&gt;Node16</title>
<path fill="none" stroke="black" d="M229.57,-981.13C239.75,-1029.95 267.2,-1130.04 329,-1186.75 333.56,-1190.94 338.83,-1194.46 344.43,-1197.41"/>
<polygon fill="black" stroke="black" points="233.01,-980.5 227.64,-971.37 226.15,-981.85 233.01,-980.5"/>
</g>
<!-- Node1&#45;&gt;Node17 -->
<g id="edge16" class="edge">
<title>Node1&#45;&gt;Node17</title>
<path fill="none" stroke="black" d="M233.47,-980.75C247.59,-1020.49 278.69,-1093.07 329,-1134.75 333.03,-1138.09 337.51,-1141 342.22,-1143.56"/>
<polygon fill="black" stroke="black" points="236.83,-979.75 230.28,-971.43 230.21,-982.02 236.83,-979.75"/>
</g>
<!-- Node1&#45;&gt;Node18 -->
<g id="edge17" class="edge">
<title>Node1&#45;&gt;Node18</title>
<path fill="none" stroke="black" d="M239.47,-979.18C257.29,-1008.4 289.62,-1054.99 329,-1082.75 333.72,-1086.08 338.91,-1089.02 344.29,-1091.6"/>
<polygon fill="black" stroke="black" points="242.69,-977.74 234.57,-970.93 236.67,-981.32 242.69,-977.74"/>
</g>
<!-- Node1&#45;&gt;Node19 -->
<g id="edge18" class="edge">
<title>Node1&#45;&gt;Node19</title>
<path fill="none" stroke="black" d="M252.34,-977.27C272.53,-994.08 301.08,-1015.94 329,-1030.75 335.08,-1033.97 341.64,-1036.93 348.26,-1039.6"/>
<polygon fill="black" stroke="black" points="254.74,-974.71 244.84,-970.92 250.22,-980.06 254.74,-974.71"/>
</g>
<!-- Node1&#45;&gt;Node20 -->
<g id="edge19" class="edge">
<title>Node1&#45;&gt;Node20</title>
<path fill="none" stroke="black" d="M294.42,-973.02C310.94,-977.81 328.4,-982.87 344.4,-987.51"/>
<polygon fill="black" stroke="black" points="295.76,-969.77 285.18,-970.34 293.81,-976.49 295.76,-969.77"/>
</g>
<!-- Node1&#45;&gt;Node21 -->
<g id="edge20" class="edge">
<title>Node1&#45;&gt;Node21</title>
<path fill="none" stroke="black" d="M304.51,-952.75C316.27,-952.75 328.25,-952.75 339.64,-952.75"/>
<polygon fill="black" stroke="black" points="304.85,-949.25 294.85,-952.75 304.85,-956.25 304.85,-949.25"/>
</g>
<!-- Node1&#45;&gt;Node22 -->
<g id="edge21" class="edge">
<title>Node1&#45;&gt;Node22</title>
<path fill="none" stroke="black" d="M294.48,-932.46C311.09,-927.65 328.64,-922.56 344.71,-917.9"/>
<polygon fill="black" stroke="black" points="293.81,-929.01 285.18,-935.16 295.76,-935.73 293.81,-929.01"/>
</g>
<!-- Node1&#45;&gt;Node23 -->
<g id="edge22" class="edge">
<title>Node1&#45;&gt;Node23</title>
<path fill="none" stroke="black" d="M252.34,-928.23C272.53,-911.42 301.08,-889.56 329,-874.75 335.08,-871.53 341.64,-868.57 348.26,-865.9"/>
<polygon fill="black" stroke="black" points="250.22,-925.44 244.84,-934.58 254.74,-930.79 250.22,-925.44"/>
</g>
<!-- Node1&#45;&gt;Node24 -->
<g id="edge23" class="edge">
<title>Node1&#45;&gt;Node24</title>
<path fill="none" stroke="black" d="M239.47,-926.32C257.29,-897.1 289.62,-850.51 329,-822.75 333.72,-819.42 338.91,-816.48 344.29,-813.9"/>
<polygon fill="black" stroke="black" points="236.67,-924.18 234.57,-934.57 242.69,-927.76 236.67,-924.18"/>
</g>
<!-- Node1&#45;&gt;Node25 -->
<g id="edge24" class="edge">
<title>Node1&#45;&gt;Node25</title>
<path fill="none" stroke="black" d="M233.47,-924.75C247.59,-885.01 278.69,-812.43 329,-770.75 333.66,-766.89 338.93,-763.58 344.47,-760.76"/>
<polygon fill="black" stroke="black" points="230.21,-923.48 230.28,-934.07 236.83,-925.75 230.21,-923.48"/>
</g>
<!-- Node1&#45;&gt;Node26 -->
<g id="edge25" class="edge">
<title>Node1&#45;&gt;Node26</title>
<path fill="none" stroke="black" d="M229.57,-924.37C239.75,-875.55 267.2,-775.46 329,-718.75 332.65,-715.4 336.75,-712.48 341.11,-709.93"/>
<polygon fill="black" stroke="black" points="226.15,-923.65 227.64,-934.13 233.01,-925 226.15,-923.65"/>
</g>
<!-- Node1&#45;&gt;Node27 -->
<g id="edge26" class="edge">
<title>Node1&#45;&gt;Node27</title>
<path fill="none" stroke="black" d="M226.94,-924.25C233.31,-867.38 255.46,-739.12 329,-666.75 332.43,-663.37 336.33,-660.43 340.49,-657.87"/>
<polygon fill="black" stroke="black" points="223.47,-923.75 225.93,-934.05 230.44,-924.46 223.47,-923.75"/>
</g>
<!-- Node28 -->
<g id="Node000028" class="node">
<title>Node28</title>
<g id="a_Node000028"><a xlink:href="group__RCM__Peripheral__Access__Layer.html" target="_top" xlink:title=" ">
<polygon fill="white" stroke="#666666" points="468.75,-605.5 341,-605.5 341,-572 468.75,-572 468.75,-605.5"/>
<text xml:space="preserve" text-anchor="start" x="349" y="-592" font-family="Helvetica,sans-Serif" font-size="10.00">RCM Peripheral Access</text>
<text xml:space="preserve" text-anchor="middle" x="404.88" y="-579.25" font-family="Helvetica,sans-Serif" font-size="10.00"> Layer</text>
</a>
</g>
</g>
<!-- Node1&#45;&gt;Node28 -->
<g id="edge27" class="edge">
<title>Node1&#45;&gt;Node28</title>
<path fill="none" stroke="black" d="M225.04,-924.54C227.78,-860.6 243.4,-703.35 329,-614.75 332.44,-611.19 336.4,-608.11 340.65,-605.46"/>
<polygon fill="black" stroke="black" points="221.55,-924.07 224.7,-934.18 228.55,-924.31 221.55,-924.07"/>
</g>
<!-- Node29 -->
<g id="Node000029" class="node">
<title>Node29</title>
<g id="a_Node000029"><a xlink:href="group__RFSYS__Peripheral__Access__Layer.html" target="_top" xlink:title=" ">
<polygon fill="white" stroke="#666666" points="472.5,-553.5 337.25,-553.5 337.25,-520 472.5,-520 472.5,-553.5"/>
<text xml:space="preserve" text-anchor="start" x="345.25" y="-540" font-family="Helvetica,sans-Serif" font-size="10.00">RFSYS Peripheral Access</text>
<text xml:space="preserve" text-anchor="middle" x="404.88" y="-527.25" font-family="Helvetica,sans-Serif" font-size="10.00"> Layer</text>
</a>
</g>
</g>
<!-- Node1&#45;&gt;Node29 -->
<g id="edge28" class="edge">
<title>Node1&#45;&gt;Node29</title>
<path fill="none" stroke="black" d="M223.63,-924.22C223.06,-853.37 231.5,-667.58 329,-562.75 332.09,-559.42 335.63,-556.53 339.45,-554"/>
<polygon fill="black" stroke="black" points="220.13,-924.24 223.79,-934.18 227.13,-924.13 220.13,-924.24"/>
</g>
<!-- Node30 -->
<g id="Node000030" class="node">
<title>Node30</title>
<g id="a_Node000030"><a xlink:href="group__RFVBAT__Peripheral__Access__Layer.html" target="_top" xlink:title=" ">
<polygon fill="white" stroke="#666666" points="476.62,-501.5 333.12,-501.5 333.12,-468 476.62,-468 476.62,-501.5"/>
<text xml:space="preserve" text-anchor="start" x="341.12" y="-488" font-family="Helvetica,sans-Serif" font-size="10.00">RFVBAT Peripheral Access</text>
<text xml:space="preserve" text-anchor="middle" x="404.88" y="-475.25" font-family="Helvetica,sans-Serif" font-size="10.00"> Layer</text>
</a>
</g>
</g>
<!-- Node1&#45;&gt;Node30 -->
<g id="edge29" class="edge">
<title>Node1&#45;&gt;Node30</title>
<path fill="none" stroke="black" d="M227.63,-924.51C237.83,-837.09 272.79,-573.01 329,-510.75 332.04,-507.38 335.55,-504.45 339.34,-501.89"/>
<polygon fill="black" stroke="black" points="224.16,-924.03 226.5,-934.36 231.11,-924.82 224.16,-924.03"/>
</g>
<!-- Node31 -->
<g id="Node000031" class="node">
<title>Node31</title>
<g id="a_Node000031"><a xlink:href="group__RNG__Peripheral__Access__Layer.html" target="_top" xlink:title=" ">
<polygon fill="white" stroke="#666666" points="468.38,-449.5 341.38,-449.5 341.38,-416 468.38,-416 468.38,-449.5"/>
<text xml:space="preserve" text-anchor="start" x="349.38" y="-436" font-family="Helvetica,sans-Serif" font-size="10.00">RNG Peripheral Access</text>
<text xml:space="preserve" text-anchor="middle" x="404.88" y="-423.25" font-family="Helvetica,sans-Serif" font-size="10.00"> Layer</text>
</a>
</g>
</g>
<!-- Node1&#45;&gt;Node31 -->
<g id="edge30" class="edge">
<title>Node1&#45;&gt;Node31</title>
<path fill="none" stroke="black" d="M226.9,-924.04C235.37,-829.42 266.73,-529.39 329,-458.75 332.46,-454.83 336.54,-451.5 340.98,-448.67"/>
<polygon fill="black" stroke="black" points="223.42,-923.73 226.03,-934 230.39,-924.34 223.42,-923.73"/>
</g>
<!-- Node32 -->
<g id="Node000032" class="node">
<title>Node32</title>
<g id="a_Node000032"><a xlink:href="group__RTC__Peripheral__Access__Layer.html" target="_top" xlink:title=" ">
<polygon fill="white" stroke="#666666" points="466.5,-397.5 343.25,-397.5 343.25,-364 466.5,-364 466.5,-397.5"/>
<text xml:space="preserve" text-anchor="start" x="351.25" y="-384" font-family="Helvetica,sans-Serif" font-size="10.00">RTC Peripheral Access</text>
<text xml:space="preserve" text-anchor="middle" x="404.88" y="-371.25" font-family="Helvetica,sans-Serif" font-size="10.00"> Layer</text>
</a>
</g>
</g>
<!-- Node1&#45;&gt;Node32 -->
<g id="edge31" class="edge">
<title>Node1&#45;&gt;Node32</title>
<path fill="none" stroke="black" d="M226.25,-924.38C233,-823.79 260.46,-486.04 329,-406.75 332.96,-402.17 337.77,-398.4 343.02,-395.29"/>
<polygon fill="black" stroke="black" points="222.77,-923.97 225.61,-934.18 229.76,-924.43 222.77,-923.97"/>
</g>
<!-- Node33 -->
<g id="Node000033" class="node">
<title>Node33</title>
<g id="a_Node000033"><a xlink:href="group__SIM__Peripheral__Access__Layer.html" target="_top" xlink:title=" ">
<polygon fill="white" stroke="#666666" points="466.5,-345.5 343.25,-345.5 343.25,-312 466.5,-312 466.5,-345.5"/>
<text xml:space="preserve" text-anchor="start" x="351.25" y="-332" font-family="Helvetica,sans-Serif" font-size="10.00">SIM Peripheral Access</text>
<text xml:space="preserve" text-anchor="middle" x="404.88" y="-319.25" font-family="Helvetica,sans-Serif" font-size="10.00"> Layer</text>
</a>
</g>
</g>
<!-- Node1&#45;&gt;Node33 -->
<g id="edge32" class="edge">
<title>Node1&#45;&gt;Node33</title>
<path fill="none" stroke="black" d="M225.74,-924.15C230.95,-817.23 254.29,-442.59 329,-354.75 332.92,-350.14 337.71,-346.34 342.95,-343.22"/>
<polygon fill="black" stroke="black" points="222.25,-923.9 225.28,-934.05 229.24,-924.22 222.25,-923.9"/>
</g>
<!-- Node34 -->
<g id="Node000034" class="node">
<title>Node34</title>
<g id="a_Node000034"><a xlink:href="group__SMC__Peripheral__Access__Layer.html" target="_top" xlink:title=" ">
<polygon fill="white" stroke="#666666" points="468.38,-293.5 341.38,-293.5 341.38,-260 468.38,-260 468.38,-293.5"/>
<text xml:space="preserve" text-anchor="start" x="349.38" y="-280" font-family="Helvetica,sans-Serif" font-size="10.00">SMC Peripheral Access</text>
<text xml:space="preserve" text-anchor="middle" x="404.88" y="-267.25" font-family="Helvetica,sans-Serif" font-size="10.00"> Layer</text>
</a>
</g>
</g>
<!-- Node1&#45;&gt;Node34 -->
<g id="edge33" class="edge">
<title>Node1&#45;&gt;Node34</title>
<path fill="none" stroke="black" d="M225.3,-924.26C229.01,-811.69 248.02,-399.29 329,-302.75 332.45,-298.64 336.58,-295.18 341.12,-292.26"/>
<polygon fill="black" stroke="black" points="221.81,-924.01 224.99,-934.11 228.8,-924.23 221.81,-924.01"/>
</g>
<!-- Node35 -->
<g id="Node000035" class="node">
<title>Node35</title>
<g id="a_Node000035"><a xlink:href="group__SPI__Peripheral__Access__Layer.html" target="_top" xlink:title=" ">
<polygon fill="white" stroke="#666666" points="465,-241.5 344.75,-241.5 344.75,-208 465,-208 465,-241.5"/>
<text xml:space="preserve" text-anchor="start" x="352.75" y="-228" font-family="Helvetica,sans-Serif" font-size="10.00">SPI Peripheral Access</text>
<text xml:space="preserve" text-anchor="middle" x="404.88" y="-215.25" font-family="Helvetica,sans-Serif" font-size="10.00"> Layer</text>
</a>
</g>
</g>
<!-- Node1&#45;&gt;Node35 -->
<g id="edge34" class="edge">
<title>Node1&#45;&gt;Node35</title>
<path fill="none" stroke="black" d="M224.92,-924.3C227.24,-806.22 241.75,-356 329,-250.75 333.22,-245.67 338.48,-241.57 344.26,-238.28"/>
<polygon fill="black" stroke="black" points="221.43,-923.98 224.75,-934.04 228.43,-924.11 221.43,-923.98"/>
</g>
<!-- Node36 -->
<g id="Node000036" class="node">
<title>Node36</title>
<g id="a_Node000036"><a xlink:href="group__UART__Peripheral__Access__Layer.html" target="_top" xlink:title=" ">
<polygon fill="white" stroke="#666666" points="470.62,-189.5 339.12,-189.5 339.12,-156 470.62,-156 470.62,-189.5"/>
<text xml:space="preserve" text-anchor="start" x="347.12" y="-176" font-family="Helvetica,sans-Serif" font-size="10.00">UART Peripheral Access</text>
<text xml:space="preserve" text-anchor="middle" x="404.88" y="-163.25" font-family="Helvetica,sans-Serif" font-size="10.00"> Layer</text>
</a>
</g>
</g>
<!-- Node1&#45;&gt;Node36 -->
<g id="edge35" class="edge">
<title>Node1&#45;&gt;Node36</title>
<path fill="none" stroke="black" d="M224.6,-924.22C225.6,-800.64 235.49,-312.71 329,-198.75 331.79,-195.35 335.06,-192.39 338.63,-189.81"/>
<polygon fill="black" stroke="black" points="221.1,-924.1 224.54,-934.12 228.1,-924.14 221.1,-924.1"/>
</g>
<!-- Node37 -->
<g id="Node000037" class="node">
<title>Node37</title>
<g id="a_Node000037"><a xlink:href="group__USB__Peripheral__Access__Layer.html" target="_top" xlink:title=" ">
<polygon fill="white" stroke="#666666" points="467.62,-137.5 342.12,-137.5 342.12,-104 467.62,-104 467.62,-137.5"/>
<text xml:space="preserve" text-anchor="start" x="350.12" y="-124" font-family="Helvetica,sans-Serif" font-size="10.00">USB Peripheral Access</text>
<text xml:space="preserve" text-anchor="middle" x="404.88" y="-111.25" font-family="Helvetica,sans-Serif" font-size="10.00"> Layer</text>
</a>
</g>
</g>
<!-- Node1&#45;&gt;Node37 -->
<g id="edge36" class="edge">
<title>Node1&#45;&gt;Node37</title>
<path fill="none" stroke="black" d="M224.32,-924.35C224.05,-795.82 229.17,-269.51 329,-146.75 332.56,-142.37 336.9,-138.73 341.68,-135.7"/>
<polygon fill="black" stroke="black" points="220.82,-924.34 224.35,-934.32 227.82,-924.31 220.82,-924.34"/>
</g>
<!-- Node38 -->
<g id="Node000038" class="node">
<title>Node38</title>
<g id="a_Node000038"><a xlink:href="group__VREF__Peripheral__Access__Layer.html" target="_top" xlink:title=" ">
<polygon fill="white" stroke="#666666" points="470.25,-85.5 339.5,-85.5 339.5,-52 470.25,-52 470.25,-85.5"/>
<text xml:space="preserve" text-anchor="start" x="347.5" y="-72" font-family="Helvetica,sans-Serif" font-size="10.00">VREF Peripheral Access</text>
<text xml:space="preserve" text-anchor="middle" x="404.88" y="-59.25" font-family="Helvetica,sans-Serif" font-size="10.00"> Layer</text>
</a>
</g>
</g>
<!-- Node1&#45;&gt;Node38 -->
<g id="edge37" class="edge">
<title>Node1&#45;&gt;Node38</title>
<path fill="none" stroke="black" d="M224.07,-924.65C222.6,-791.67 222.78,-226.4 329,-94.75 331.94,-91.11 335.42,-87.98 339.24,-85.28"/>
<polygon fill="black" stroke="black" points="220.57,-924.35 224.19,-934.31 227.57,-924.26 220.57,-924.35"/>
</g>
<!-- Node39 -->
<g id="Node000039" class="node">
<title>Node39</title>
<g id="a_Node000039"><a xlink:href="group__WDOG__Peripheral__Access__Layer.html" target="_top" xlink:title=" ">
<polygon fill="white" stroke="#666666" points="473.62,-33.5 336.12,-33.5 336.12,0 473.62,0 473.62,-33.5"/>
<text xml:space="preserve" text-anchor="start" x="344.12" y="-20" font-family="Helvetica,sans-Serif" font-size="10.00">WDOG Peripheral Access</text>
<text xml:space="preserve" text-anchor="middle" x="404.88" y="-7.25" font-family="Helvetica,sans-Serif" font-size="10.00"> Layer</text>
</a>
</g>
</g>
<!-- Node1&#45;&gt;Node39 -->
<g id="edge38" class="edge">
<title>Node1&#45;&gt;Node39</title>
<path fill="none" stroke="black" d="M225.98,-924.27C233.84,-777.8 272.42,-113.37 329,-42.75 331.67,-39.42 334.79,-36.52 338.21,-33.98"/>
<polygon fill="black" stroke="black" points="222.49,-924.05 225.45,-934.22 229.48,-924.42 222.49,-924.05"/>
</g>
</g>
</svg>
