<?xml version="1.0" encoding="UTF-8" standalone="no"?>
<!DOCTYPE svg PUBLIC "-//W3C//DTD SVG 1.1//EN"
 "http://www.w3.org/Graphics/SVG/1.1/DTD/svg11.dtd">
<!-- Generated by graphviz version 14.1.4 (0)
 -->
<!-- Title: Motor Module Pages: 1 -->
<svg width="254pt" height="263pt"
 viewBox="0.00 0.00 254.00 263.00" xmlns="http://www.w3.org/2000/svg" xmlns:xlink="http://www.w3.org/1999/xlink">
<g id="graph0" class="graph" transform="scale(1 1) rotate(0) translate(4 258.75)">
<title>Motor Module</title>
<!-- Node2 -->
<g id="Node000002" class="node">
<title>Node2</title>
<g id="a_Node000002"><a xlink:href="group__MOTOR__Convert__Internal.html" target="_top" xlink:title="Internal helpers for converting between step and angle domains.">
<polygon fill="white" stroke="#666666" points="245.75,-254.75 119.5,-254.75 119.5,-234 245.75,-234 245.75,-254.75"/>
<text xml:space="preserve" text-anchor="middle" x="182.62" y="-241.25" font-family="Helvetica,sans-Serif" font-size="10.00">Motor Convert Internal</text>
</a>
</g>
</g>
<!-- Node1 -->
<g id="Node000001" class="node">
<title>Node1</title>
<g id="a_Node000001"><a xlink:title="Public task&#45;safe motor API for queued motion and driver commands.">
<polygon fill="#999999" stroke="#666666" points="83.5,-137.75 0,-137.75 0,-117 83.5,-117 83.5,-137.75"/>
<text xml:space="preserve" text-anchor="middle" x="41.75" y="-124.25" font-family="Helvetica,sans-Serif" font-size="10.00">Motor Module</text>
</a>
</g>
</g>
<!-- Node1&#45;&gt;Node2 -->
<g id="edge1" class="edge">
<title>Node1&#45;&gt;Node2</title>
<path fill="none" stroke="black" d="M54.09,-148.08C67.13,-170.04 90.52,-204.27 119.5,-224.38 124.81,-228.06 130.83,-231.09 136.99,-233.58"/>
<polygon fill="black" stroke="black" points="57.15,-146.38 49.14,-139.44 51.08,-149.86 57.15,-146.38"/>
</g>
<!-- Node3 -->
<g id="Node000003" class="node">
<title>Node3</title>
<g id="a_Node000003"><a xlink:href="group__MOTOR__Init__Internal.html" target="_top" xlink:title="Internal helpers for creating and configuring motor handles.">
<polygon fill="white" stroke="#666666" points="234.5,-215.75 130.75,-215.75 130.75,-195 234.5,-195 234.5,-215.75"/>
<text xml:space="preserve" text-anchor="middle" x="182.62" y="-202.25" font-family="Helvetica,sans-Serif" font-size="10.00">Motor Init Internal</text>
</a>
</g>
</g>
<!-- Node1&#45;&gt;Node3 -->
<g id="edge2" class="edge">
<title>Node1&#45;&gt;Node3</title>
<path fill="none" stroke="black" d="M62.72,-145.46C77.51,-158.07 98.64,-174.53 119.5,-185.38 126.34,-188.93 133.92,-192 141.38,-194.61"/>
<polygon fill="black" stroke="black" points="65.36,-143.12 55.53,-139.18 60.76,-148.39 65.36,-143.12"/>
</g>
<!-- Node4 -->
<g id="Node000004" class="node">
<title>Node4</title>
<g id="a_Node000004"><a xlink:href="group__MOTOR__Internal.html" target="_top" xlink:title="Internal command types, queue payloads, and shared subsystem state.">
<polygon fill="white" stroke="#666666" points="225.12,-176.75 140.12,-176.75 140.12,-156 225.12,-156 225.12,-176.75"/>
<text xml:space="preserve" text-anchor="middle" x="182.62" y="-163.25" font-family="Helvetica,sans-Serif" font-size="10.00">Motor Internal</text>
</a>
</g>
</g>
<!-- Node1&#45;&gt;Node4 -->
<g id="edge3" class="edge">
<title>Node1&#45;&gt;Node4</title>
<path fill="none" stroke="black" d="M92.15,-141.25C108.91,-145.96 127.37,-151.14 143.15,-155.57"/>
<polygon fill="black" stroke="black" points="93.47,-137.98 82.89,-138.65 91.57,-144.72 93.47,-137.98"/>
</g>
<!-- Node5 -->
<g id="Node000005" class="node">
<title>Node5</title>
<g id="a_Node000005"><a xlink:href="group__MOTOR__Motion__Internal.html" target="_top" xlink:title="Internal handlers for movement&#45;related motor commands.">
<polygon fill="white" stroke="#666666" points="243.5,-137.75 121.75,-137.75 121.75,-117 243.5,-117 243.5,-137.75"/>
<text xml:space="preserve" text-anchor="middle" x="182.62" y="-124.25" font-family="Helvetica,sans-Serif" font-size="10.00">Motor Motion Internal</text>
</a>
</g>
</g>
<!-- Node1&#45;&gt;Node5 -->
<g id="edge4" class="edge">
<title>Node1&#45;&gt;Node5</title>
<path fill="none" stroke="black" d="M95.11,-127.38C103.7,-127.38 112.67,-127.38 121.44,-127.38"/>
<polygon fill="black" stroke="black" points="95.18,-123.88 85.18,-127.38 95.18,-130.88 95.18,-123.88"/>
</g>
<!-- Node6 -->
<g id="Node000006" class="node">
<title>Node6</title>
<g id="a_Node000006"><a xlink:href="group__MOTOR__Process__Internal.html" target="_top" xlink:title="Internal queue send/dequeue and command dispatch logic.">
<polygon fill="white" stroke="#666666" points="245.38,-98.75 119.88,-98.75 119.88,-78 245.38,-78 245.38,-98.75"/>
<text xml:space="preserve" text-anchor="middle" x="182.62" y="-85.25" font-family="Helvetica,sans-Serif" font-size="10.00">Motor Process Internal</text>
</a>
</g>
</g>
<!-- Node1&#45;&gt;Node6 -->
<g id="edge5" class="edge">
<title>Node1&#45;&gt;Node6</title>
<path fill="none" stroke="black" d="M92.15,-113.5C108.91,-108.79 127.37,-103.61 143.15,-99.18"/>
<polygon fill="black" stroke="black" points="91.57,-110.03 82.89,-116.1 93.47,-116.77 91.57,-110.03"/>
</g>
<!-- Node7 -->
<g id="Node000007" class="node">
<title>Node7</title>
<g id="a_Node000007"><a xlink:href="group__MOTOR__Sync__Internal.html" target="_top" xlink:title="Internal synchronized movement command handlers.">
<polygon fill="white" stroke="#666666" points="238.25,-59.75 127,-59.75 127,-39 238.25,-39 238.25,-59.75"/>
<text xml:space="preserve" text-anchor="middle" x="182.62" y="-46.25" font-family="Helvetica,sans-Serif" font-size="10.00">Motor Sync Internal</text>
</a>
</g>
</g>
<!-- Node1&#45;&gt;Node7 -->
<g id="edge6" class="edge">
<title>Node1&#45;&gt;Node7</title>
<path fill="none" stroke="black" d="M62.72,-109.29C77.51,-96.68 98.64,-80.22 119.5,-69.38 126.34,-65.82 133.92,-62.75 141.38,-60.14"/>
<polygon fill="black" stroke="black" points="60.76,-106.36 55.53,-115.57 65.36,-111.63 60.76,-106.36"/>
</g>
<!-- Node8 -->
<g id="Node000008" class="node">
<title>Node8</title>
<g id="a_Node000008"><a xlink:href="group__MOTOR__TMC__Internal.html" target="_top" xlink:title="Internal handlers for TMC current and freewheeling commands.">
<polygon fill="white" stroke="#666666" points="237.5,-20.75 127.75,-20.75 127.75,0 237.5,0 237.5,-20.75"/>
<text xml:space="preserve" text-anchor="middle" x="182.62" y="-7.25" font-family="Helvetica,sans-Serif" font-size="10.00">Motor TMC Internal</text>
</a>
</g>
</g>
<!-- Node1&#45;&gt;Node8 -->
<g id="edge7" class="edge">
<title>Node1&#45;&gt;Node8</title>
<path fill="none" stroke="black" d="M54.09,-106.67C67.13,-84.71 90.52,-50.48 119.5,-30.38 124.81,-26.69 130.83,-23.66 136.99,-21.17"/>
<polygon fill="black" stroke="black" points="51.08,-104.89 49.14,-115.31 57.15,-108.37 51.08,-104.89"/>
</g>
</g>
</svg>
