<?xml version="1.0" encoding="UTF-8" standalone="no"?>
<!DOCTYPE svg PUBLIC "-//W3C//DTD SVG 1.1//EN"
 "http://www.w3.org/Graphics/SVG/1.1/DTD/svg11.dtd">
<!-- Generated by graphviz version 14.1.2 (0)
 -->
<!-- Title: RFVBAT Peripheral Access Layer Pages: 1 -->
<svg width="495pt" height="42pt"
 viewBox="0.00 0.00 495.00 42.00" xmlns="http://www.w3.org/2000/svg" xmlns:xlink="http://www.w3.org/1999/xlink">
<g id="graph0" class="graph" transform="scale(1 1) rotate(0) translate(4 37.5)">
<title>RFVBAT Peripheral Access Layer</title>
<!-- Node2 -->
<g id="Node000002" class="node">
<title>Node2</title>
<g id="a_Node000002"><a xlink:href="group__Peripheral__access__layer.html" target="_top" xlink:title=" ">
<polygon fill="white" stroke="#666666" points="139,-33.5 0,-33.5 0,0 139,0 139,-33.5"/>
<text xml:space="preserve" text-anchor="start" x="8" y="-20" font-family="Helvetica,sans-Serif" font-size="10.00">Device Peripheral Access</text>
<text xml:space="preserve" text-anchor="middle" x="69.5" y="-7.25" font-family="Helvetica,sans-Serif" font-size="10.00"> Layer</text>
</a>
</g>
</g>
<!-- Node1 -->
<g id="Node000001" class="node">
<title>Node1</title>
<g id="a_Node000001"><a xlink:title=" ">
<polygon fill="#999999" stroke="#666666" points="318.5,-33.5 175,-33.5 175,0 318.5,0 318.5,-33.5"/>
<text xml:space="preserve" text-anchor="start" x="183" y="-20" font-family="Helvetica,sans-Serif" font-size="10.00">RFVBAT Peripheral Access</text>
<text xml:space="preserve" text-anchor="middle" x="246.75" y="-7.25" font-family="Helvetica,sans-Serif" font-size="10.00"> Layer</text>
</a>
</g>
</g>
<!-- Node2&#45;&gt;Node1 -->
<g id="edge1" class="edge">
<title>Node2&#45;&gt;Node1</title>
<path fill="none" stroke="black" d="M150.52,-16.75C158.55,-16.75 166.67,-16.75 174.59,-16.75"/>
<polygon fill="black" stroke="black" points="150.77,-13.25 140.77,-16.75 150.77,-20.25 150.77,-13.25"/>
</g>
<!-- Node3 -->
<g id="Node000003" class="node">
<title>Node3</title>
<g id="a_Node000003"><a xlink:href="group__RFVBAT__Register__Masks.html" target="_top" xlink:title=" ">
<polygon fill="white" stroke="#666666" points="486.75,-27.12 354.5,-27.12 354.5,-6.38 486.75,-6.38 486.75,-27.12"/>
<text xml:space="preserve" text-anchor="middle" x="420.62" y="-13.62" font-family="Helvetica,sans-Serif" font-size="10.00">RFVBAT Register Masks</text>
</a>
</g>
</g>
<!-- Node1&#45;&gt;Node3 -->
<g id="edge2" class="edge">
<title>Node1&#45;&gt;Node3</title>
<path fill="none" stroke="black" d="M330.02,-16.75C338.11,-16.75 346.24,-16.75 354.13,-16.75"/>
<polygon fill="black" stroke="black" points="330.16,-13.25 320.16,-16.75 330.16,-20.25 330.16,-13.25"/>
</g>
</g>
</svg>
