<?xml version="1.0" encoding="UTF-8" standalone="no"?>
<!DOCTYPE svg PUBLIC "-//W3C//DTD SVG 1.1//EN"
 "http://www.w3.org/Graphics/SVG/1.1/DTD/svg11.dtd">
<!-- Generated by graphviz version 14.1.4 (0)
 -->
<!-- Title: TMC2209 Module Pages: 1 -->
<svg width="288pt" height="146pt"
 viewBox="0.00 0.00 288.00 146.00" xmlns="http://www.w3.org/2000/svg" xmlns:xlink="http://www.w3.org/1999/xlink">

<svg id="main" version="1.1" xmlns="http://www.w3.org/2000/svg" xmlns:xlink="http://www.w3.org/1999/xlink" xml:space="preserve">

<style type="text/css"><![CDATA[
.node, .edge {opacity: 0.7;}
.node.selected, .edge.selected {opacity: 1;}
.edge:hover path { stroke: red; }
.edge:hover polygon { stroke: red; fill: red; }
]]></style>
<script type="application/ecmascript" xlink:href="svg.min.js"/>
<svg id="graph" class="graph">
<g id="graph0" class="graph" transform="scale(1 1) rotate(0) translate(4 141.75)">
<title>TMC2209 Module</title>
<!-- Node2 -->
<g id="Node000002" class="node">
<title>Node2</title>
<g id="a_Node000002"><a xlink:href="group__TMC2209__Internal.html" target="_top" xlink:title="Internal command payload types and shared subsystem state.">
<polygon fill="white" stroke="#666666" points="259.25,-137.75 157,-137.75 157,-117 259.25,-117 259.25,-137.75"/>
<text xml:space="preserve" text-anchor="middle" x="208.12" y="-124.25" font-family="Helvetica,sans-Serif" font-size="10.00">TMC2209 Internal</text>
</a>
</g>
</g>
<!-- Node1 -->
<g id="Node000001" class="node">
<title>Node1</title>
<g id="a_Node000001"><a xlink:title="Public task&#45;safe API for controlling TMC2209 driver settings.">
<polygon fill="#999999" stroke="#666666" points="100.75,-78.75 0,-78.75 0,-58 100.75,-58 100.75,-78.75"/>
<text xml:space="preserve" text-anchor="middle" x="50.38" y="-65.25" font-family="Helvetica,sans-Serif" font-size="10.00">TMC2209 Module</text>
</a>
</g>
</g>
<!-- Node1&#45;&gt;Node2 -->
<g id="edge1" class="edge">
<title>Node1&#45;&gt;Node2</title>
<path fill="none" stroke="black" d="M83.07,-84.25C98.95,-91.83 118.61,-100.7 136.75,-107.38 145.81,-110.71 155.69,-113.83 165.11,-116.56"/>
<polygon fill="black" stroke="black" points="84.64,-81.11 74.11,-79.9 81.58,-87.41 84.64,-81.11"/>
</g>
<!-- Node3 -->
<g id="Node000003" class="node">
<title>Node3</title>
<g id="a_Node000003"><a xlink:href="group__TMC2209__Process__Internal.html" target="_top" xlink:title="Internal queue send/dequeue and command dispatch helpers.">
<polygon fill="white" stroke="#666666" points="279.5,-98.75 136.75,-98.75 136.75,-78 279.5,-78 279.5,-98.75"/>
<text xml:space="preserve" text-anchor="middle" x="208.12" y="-85.25" font-family="Helvetica,sans-Serif" font-size="10.00">TMC2209 Process Internal</text>
</a>
</g>
</g>
<!-- Node1&#45;&gt;Node3 -->
<g id="edge2" class="edge">
<title>Node1&#45;&gt;Node3</title>
<path fill="none" stroke="black" d="M112.38,-76.21C120.23,-77.22 128.32,-78.26 136.32,-79.28"/>
<polygon fill="black" stroke="black" points="112.95,-72.75 102.58,-74.95 112.06,-79.7 112.95,-72.75"/>
</g>
<!-- Node4 -->
<g id="Node000004" class="node">
<title>Node4</title>
<g id="a_Node000004"><a xlink:href="group__TMC2209__Setup__Internal.html" target="_top" xlink:title="Internal helpers that directly apply configuration to TMC handles.">
<polygon fill="white" stroke="#666666" points="274.62,-59.75 141.62,-59.75 141.62,-39 274.62,-39 274.62,-59.75"/>
<text xml:space="preserve" text-anchor="middle" x="208.12" y="-46.25" font-family="Helvetica,sans-Serif" font-size="10.00">TMC2209 Setup Internal</text>
</a>
</g>
</g>
<!-- Node1&#45;&gt;Node4 -->
<g id="edge3" class="edge">
<title>Node1&#45;&gt;Node4</title>
<path fill="none" stroke="black" d="M112.46,-60.92C121.95,-59.77 131.8,-58.56 141.4,-57.39"/>
<polygon fill="black" stroke="black" points="112.09,-57.44 102.59,-62.13 112.94,-64.39 112.09,-57.44"/>
</g>
<!-- Node5 -->
<g id="Node000005" class="node">
<title>Node5</title>
<g id="a_Node000005"><a xlink:href="group__TMC2209__UART__Internal.html" target="_top" xlink:title="Internal UART read/write primitives used by TMC setup/process layers.">
<polygon fill="white" stroke="#666666" points="273.88,-20.75 142.38,-20.75 142.38,0 273.88,0 273.88,-20.75"/>
<text xml:space="preserve" text-anchor="middle" x="208.12" y="-7.25" font-family="Helvetica,sans-Serif" font-size="10.00">TMC2209 UART Internal</text>
</a>
</g>
</g>
<!-- Node1&#45;&gt;Node5 -->
<g id="edge4" class="edge">
<title>Node1&#45;&gt;Node5</title>
<path fill="none" stroke="black" d="M83.44,-52.81C99.27,-45.46 118.78,-36.89 136.75,-30.38 145.94,-27.04 155.97,-23.9 165.51,-21.15"/>
<polygon fill="black" stroke="black" points="82.06,-49.59 74.5,-57.02 85.04,-55.92 82.06,-49.59"/>
</g>
</g>
</svg>
</svg>

<style type='text/css'>
<![CDATA[
[data-mouse-over-selected='false'] { opacity: 0.7; }
[data-mouse-over-selected='true']  { opacity: 1.0; }
]]>
</style>
<script type="application/ecmascript"><![CDATA[
document.addEventListener('DOMContentLoaded', (event) => {
  highlightEdges();
  highlightAdjacentNodes();
});
]]></script>
</svg>
