<?xml version="1.0" encoding="UTF-8" standalone="no"?>
<!DOCTYPE svg PUBLIC "-//W3C//DTD SVG 1.1//EN"
 "http://www.w3.org/Graphics/SVG/1.1/DTD/svg11.dtd">
<!-- Generated by graphviz version 14.1.2 (0)
 -->
<!-- Title: DMAMUX Peripheral Access Layer Pages: 1 -->
<svg width="511pt" height="42pt"
 viewBox="0.00 0.00 511.00 42.00" xmlns="http://www.w3.org/2000/svg" xmlns:xlink="http://www.w3.org/1999/xlink">
<g id="graph0" class="graph" transform="scale(1 1) rotate(0) translate(4 37.5)">
<title>DMAMUX Peripheral Access Layer</title>
<!-- Node1 -->
<g id="Node000001" class="node">
<title>Node1</title>
<g id="a_Node000001"><a xlink:title=" ">
<polygon fill="#999999" stroke="#666666" points="326.75,-33.5 175,-33.5 175,0 326.75,0 326.75,-33.5"/>
<text xml:space="preserve" text-anchor="start" x="183" y="-20" font-family="Helvetica,sans-Serif" font-size="10.00">DMAMUX Peripheral Access</text>
<text xml:space="preserve" text-anchor="middle" x="250.88" y="-7.25" font-family="Helvetica,sans-Serif" font-size="10.00"> Layer</text>
</a>
</g>
</g>
<!-- Node3 -->
<g id="Node000003" class="node">
<title>Node3</title>
<g id="a_Node000003"><a xlink:href="group__DMAMUX__Register__Masks.html" target="_top" xlink:title=" ">
<polygon fill="white" stroke="#666666" points="503.25,-27.12 362.75,-27.12 362.75,-6.38 503.25,-6.38 503.25,-27.12"/>
<text xml:space="preserve" text-anchor="middle" x="433" y="-13.62" font-family="Helvetica,sans-Serif" font-size="10.00">DMAMUX Register Masks</text>
</a>
</g>
</g>
<!-- Node1&#45;&gt;Node3 -->
<g id="edge2" class="edge">
<title>Node1&#45;&gt;Node3</title>
<path fill="none" stroke="black" d="M338.51,-16.75C346.53,-16.75 354.58,-16.75 362.42,-16.75"/>
<polygon fill="black" stroke="black" points="338.73,-13.25 328.73,-16.75 338.73,-20.25 338.73,-13.25"/>
</g>
<!-- Node2 -->
<g id="Node000002" class="node">
<title>Node2</title>
<g id="a_Node000002"><a xlink:href="group__Peripheral__access__layer.html" target="_top" xlink:title=" ">
<polygon fill="white" stroke="#666666" points="139,-33.5 0,-33.5 0,0 139,0 139,-33.5"/>
<text xml:space="preserve" text-anchor="start" x="8" y="-20" font-family="Helvetica,sans-Serif" font-size="10.00">Device Peripheral Access</text>
<text xml:space="preserve" text-anchor="middle" x="69.5" y="-7.25" font-family="Helvetica,sans-Serif" font-size="10.00"> Layer</text>
</a>
</g>
</g>
<!-- Node2&#45;&gt;Node1 -->
<g id="edge1" class="edge">
<title>Node2&#45;&gt;Node1</title>
<path fill="none" stroke="black" d="M150.85,-16.75C158.77,-16.75 166.79,-16.75 174.66,-16.75"/>
<polygon fill="black" stroke="black" points="150.85,-13.25 140.85,-16.75 150.85,-20.25 150.85,-13.25"/>
</g>
</g>
</svg>
