<?xml version="1.0" encoding="UTF-8" standalone="no"?>
<!DOCTYPE svg PUBLIC "-//W3C//DTD SVG 1.1//EN"
 "http://www.w3.org/Graphics/SVG/1.1/DTD/svg11.dtd">
<!-- Generated by graphviz version 14.1.4 (0)
 -->
<!-- Title: Stepper Module Pages: 1 -->
<svg width="271pt" height="146pt"
 viewBox="0.00 0.00 271.00 146.00" xmlns="http://www.w3.org/2000/svg" xmlns:xlink="http://www.w3.org/1999/xlink">
<g id="graph0" class="graph" transform="scale(1 1) rotate(0) translate(4 141.75)">
<title>Stepper Module</title>
<!-- Node2 -->
<g id="Node000002" class="node">
<title>Node2</title>
<g id="a_Node000002"><a xlink:href="group__STEPPER__Internal.html" target="_top" xlink:title="Internal command payloads and shared subsystem state.">
<polygon fill="white" stroke="#666666" points="242.75,-137.75 148.75,-137.75 148.75,-117 242.75,-117 242.75,-137.75"/>
<text xml:space="preserve" text-anchor="middle" x="195.75" y="-124.25" font-family="Helvetica,sans-Serif" font-size="10.00">Stepper Internal</text>
</a>
</g>
</g>
<!-- Node1 -->
<g id="Node000001" class="node">
<title>Node1</title>
<g id="a_Node000001"><a xlink:title="Public task&#45;safe API for stepper movement and configuration commands.">
<polygon fill="#999999" stroke="#666666" points="92.5,-78.75 0,-78.75 0,-58 92.5,-58 92.5,-78.75"/>
<text xml:space="preserve" text-anchor="middle" x="46.25" y="-65.25" font-family="Helvetica,sans-Serif" font-size="10.00">Stepper Module</text>
</a>
</g>
</g>
<!-- Node1&#45;&gt;Node2 -->
<g id="edge1" class="edge">
<title>Node1&#45;&gt;Node2</title>
<path fill="none" stroke="black" d="M77.82,-84.43C92.84,-91.96 111.36,-100.72 128.5,-107.38 137.01,-110.68 146.31,-113.79 155.17,-116.52"/>
<polygon fill="black" stroke="black" points="79.42,-81.31 68.92,-79.9 76.24,-87.55 79.42,-81.31"/>
</g>
<!-- Node3 -->
<g id="Node000003" class="node">
<title>Node3</title>
<g id="a_Node000003"><a xlink:href="group__STEPPER__Process__Internal.html" target="_top" xlink:title="Internal queue send/dequeue and stepper command dispatch helpers.">
<polygon fill="white" stroke="#666666" points="263,-98.75 128.5,-98.75 128.5,-78 263,-78 263,-98.75"/>
<text xml:space="preserve" text-anchor="middle" x="195.75" y="-85.25" font-family="Helvetica,sans-Serif" font-size="10.00">Stepper Process Internal</text>
</a>
</g>
</g>
<!-- Node1&#45;&gt;Node3 -->
<g id="edge2" class="edge">
<title>Node1&#45;&gt;Node3</title>
<path fill="none" stroke="black" d="M103.99,-76.07C111.86,-77.14 120,-78.24 128.02,-79.33"/>
<polygon fill="black" stroke="black" points="104.59,-72.62 94.21,-74.74 103.65,-79.55 104.59,-72.62"/>
</g>
<!-- Node4 -->
<g id="Node000004" class="node">
<title>Node4</title>
<g id="a_Node000004"><a xlink:href="group__STEPPER__Profile__Internal.html" target="_top" xlink:title="Internal acceleration/deceleration profile planning utilities.">
<polygon fill="white" stroke="#666666" points="259.62,-59.75 131.88,-59.75 131.88,-39 259.62,-39 259.62,-59.75"/>
<text xml:space="preserve" text-anchor="middle" x="195.75" y="-46.25" font-family="Helvetica,sans-Serif" font-size="10.00">Stepper Profile Internal</text>
</a>
</g>
</g>
<!-- Node1&#45;&gt;Node4 -->
<g id="edge3" class="edge">
<title>Node1&#45;&gt;Node4</title>
<path fill="none" stroke="black" d="M103.92,-61.07C112.96,-59.91 122.36,-58.7 131.54,-57.52"/>
<polygon fill="black" stroke="black" points="103.68,-57.58 94.21,-62.33 104.57,-64.52 103.68,-57.58"/>
</g>
<!-- Node5 -->
<g id="Node000005" class="node">
<title>Node5</title>
<g id="a_Node000005"><a xlink:href="group__STEPPER__Timing__Internal.html" target="_top" xlink:title="Internal helpers for movement completion checks and ISR handle cache.">
<polygon fill="white" stroke="#666666" points="261.12,-20.75 130.38,-20.75 130.38,0 261.12,0 261.12,-20.75"/>
<text xml:space="preserve" text-anchor="middle" x="195.75" y="-7.25" font-family="Helvetica,sans-Serif" font-size="10.00">Stepper Timing Internal</text>
</a>
</g>
</g>
<!-- Node1&#45;&gt;Node5 -->
<g id="edge4" class="edge">
<title>Node1&#45;&gt;Node5</title>
<path fill="none" stroke="black" d="M78.48,-52.48C93.4,-45.22 111.65,-36.82 128.5,-30.38 137.14,-27.07 146.58,-23.94 155.55,-21.19"/>
<polygon fill="black" stroke="black" points="77.05,-49.28 69.63,-56.85 80.14,-55.56 77.05,-49.28"/>
</g>
</g>
</svg>
