<?xml version="1.0" encoding="UTF-8" standalone="no"?>
<!DOCTYPE svg PUBLIC "-//W3C//DTD SVG 1.1//EN"
 "http://www.w3.org/Graphics/SVG/1.1/DTD/svg11.dtd">
<!-- Generated by graphviz version 14.1.4 (0)
 -->
<!-- Title: Motor Facade Module Pages: 1 -->
<svg width="291pt" height="263pt"
 viewBox="0.00 0.00 291.00 263.00" xmlns="http://www.w3.org/2000/svg" xmlns:xlink="http://www.w3.org/1999/xlink">

<svg id="main" version="1.1" xmlns="http://www.w3.org/2000/svg" xmlns:xlink="http://www.w3.org/1999/xlink" xml:space="preserve">

<style type="text/css"><![CDATA[
.node, .edge {opacity: 0.7;}
.node.selected, .edge.selected {opacity: 1;}
.edge:hover path { stroke: red; }
.edge:hover polygon { stroke: red; fill: red; }
]]></style>
<script type="application/ecmascript" xlink:href="svg.min.js"/>
<svg id="graph" class="graph">
<g id="graph0" class="graph" transform="scale(1 1) rotate(0) translate(4 258.75)">
<title>Motor Facade Module</title>
<!-- Node2 -->
<g id="Node000002" class="node">
<title>Node2</title>
<g id="a_Node000002"><a xlink:href="group__MOTOR__Convert__Internal.html" target="_top" xlink:title="Internal helpers for converting between step and angle domains.">
<polygon fill="white" stroke="#666666" points="282.5,-254.75 156.25,-254.75 156.25,-234 282.5,-234 282.5,-254.75"/>
<text xml:space="preserve" text-anchor="middle" x="219.38" y="-241.25" font-family="Helvetica,sans-Serif" font-size="10.00">Motor Convert Internal</text>
</a>
</g>
</g>
<!-- Node1 -->
<g id="Node000001" class="node">
<title>Node1</title>
<g id="a_Node000001"><a xlink:title="Public task&#45;safe motor API for queued motion and driver commands.">
<polygon fill="#999999" stroke="#666666" points="120.25,-137.75 0,-137.75 0,-117 120.25,-117 120.25,-137.75"/>
<text xml:space="preserve" text-anchor="middle" x="60.12" y="-124.25" font-family="Helvetica,sans-Serif" font-size="10.00">Motor Facade Module</text>
</a>
</g>
</g>
<!-- Node1&#45;&gt;Node2 -->
<g id="edge1" class="edge">
<title>Node1&#45;&gt;Node2</title>
<path fill="none" stroke="black" d="M75.62,-147.09C92.65,-168.91 122.84,-203.74 156.25,-224.38 162.13,-228.01 168.74,-231.04 175.39,-233.56"/>
<polygon fill="black" stroke="black" points="78.52,-145.11 69.68,-139.27 72.95,-149.35 78.52,-145.11"/>
</g>
<!-- Node3 -->
<g id="Node000003" class="node">
<title>Node3</title>
<g id="a_Node000003"><a xlink:href="group__MOTOR__Init__Internal.html" target="_top" xlink:title="Internal helpers for creating and configuring motor handles.">
<polygon fill="white" stroke="#666666" points="271.25,-215.75 167.5,-215.75 167.5,-195 271.25,-195 271.25,-215.75"/>
<text xml:space="preserve" text-anchor="middle" x="219.38" y="-202.25" font-family="Helvetica,sans-Serif" font-size="10.00">Motor Init Internal</text>
</a>
</g>
</g>
<!-- Node1&#45;&gt;Node3 -->
<g id="edge2" class="edge">
<title>Node1&#45;&gt;Node3</title>
<path fill="none" stroke="black" d="M85.83,-144.68C104.52,-157.2 131.17,-173.89 156.25,-185.38 163.77,-188.82 172.05,-191.93 180.05,-194.61"/>
<polygon fill="black" stroke="black" points="87.81,-141.79 77.57,-139.05 83.87,-147.58 87.81,-141.79"/>
</g>
<!-- Node4 -->
<g id="Node000004" class="node">
<title>Node4</title>
<g id="a_Node000004"><a xlink:href="group__MOTOR__Internal.html" target="_top" xlink:title="Internal command types, queue payloads, and shared subsystem state.">
<polygon fill="white" stroke="#666666" points="261.88,-176.75 176.88,-176.75 176.88,-156 261.88,-156 261.88,-176.75"/>
<text xml:space="preserve" text-anchor="middle" x="219.38" y="-163.25" font-family="Helvetica,sans-Serif" font-size="10.00">Motor Internal</text>
</a>
</g>
</g>
<!-- Node1&#45;&gt;Node4 -->
<g id="edge3" class="edge">
<title>Node1&#45;&gt;Node4</title>
<path fill="none" stroke="black" d="M115.99,-140.98C135.82,-145.9 157.88,-151.37 176.43,-155.97"/>
<polygon fill="black" stroke="black" points="116.95,-137.61 106.4,-138.6 115.26,-144.41 116.95,-137.61"/>
</g>
<!-- Node5 -->
<g id="Node000005" class="node">
<title>Node5</title>
<g id="a_Node000005"><a xlink:href="group__MOTOR__Motion__Internal.html" target="_top" xlink:title="Internal handlers for movement&#45;related motor commands.">
<polygon fill="white" stroke="#666666" points="280.25,-137.75 158.5,-137.75 158.5,-117 280.25,-117 280.25,-137.75"/>
<text xml:space="preserve" text-anchor="middle" x="219.38" y="-124.25" font-family="Helvetica,sans-Serif" font-size="10.00">Motor Motion Internal</text>
</a>
</g>
</g>
<!-- Node1&#45;&gt;Node5 -->
<g id="edge4" class="edge">
<title>Node1&#45;&gt;Node5</title>
<path fill="none" stroke="black" d="M131.93,-127.38C140.66,-127.38 149.51,-127.38 158.06,-127.38"/>
<polygon fill="black" stroke="black" points="132.09,-123.88 122.09,-127.38 132.09,-130.88 132.09,-123.88"/>
</g>
<!-- Node6 -->
<g id="Node000006" class="node">
<title>Node6</title>
<g id="a_Node000006"><a xlink:href="group__MOTOR__Process__Internal.html" target="_top" xlink:title="Internal queue send/dequeue and command dispatch logic.">
<polygon fill="white" stroke="#666666" points="282.12,-98.75 156.62,-98.75 156.62,-78 282.12,-78 282.12,-98.75"/>
<text xml:space="preserve" text-anchor="middle" x="219.38" y="-85.25" font-family="Helvetica,sans-Serif" font-size="10.00">Motor Process Internal</text>
</a>
</g>
</g>
<!-- Node1&#45;&gt;Node6 -->
<g id="edge5" class="edge">
<title>Node1&#45;&gt;Node6</title>
<path fill="none" stroke="black" d="M115.94,-113.78C135.11,-109.03 156.37,-103.75 174.53,-99.25"/>
<polygon fill="black" stroke="black" points="115.26,-110.34 106.4,-116.15 116.95,-117.14 115.26,-110.34"/>
</g>
<!-- Node7 -->
<g id="Node000007" class="node">
<title>Node7</title>
<g id="a_Node000007"><a xlink:href="group__MOTOR__Sync__Internal.html" target="_top" xlink:title="Internal synchronized movement command handlers.">
<polygon fill="white" stroke="#666666" points="275,-59.75 163.75,-59.75 163.75,-39 275,-39 275,-59.75"/>
<text xml:space="preserve" text-anchor="middle" x="219.38" y="-46.25" font-family="Helvetica,sans-Serif" font-size="10.00">Motor Sync Internal</text>
</a>
</g>
</g>
<!-- Node1&#45;&gt;Node7 -->
<g id="edge6" class="edge">
<title>Node1&#45;&gt;Node7</title>
<path fill="none" stroke="black" d="M85.83,-110.07C104.52,-97.55 131.17,-80.86 156.25,-69.38 163.77,-65.93 172.05,-62.82 180.05,-60.14"/>
<polygon fill="black" stroke="black" points="83.87,-107.17 77.57,-115.7 87.81,-112.96 83.87,-107.17"/>
</g>
<!-- Node8 -->
<g id="Node000008" class="node">
<title>Node8</title>
<g id="a_Node000008"><a xlink:href="group__MOTOR__TMC__Internal.html" target="_top" xlink:title="Internal handlers for TMC current and freewheeling commands.">
<polygon fill="white" stroke="#666666" points="274.25,-20.75 164.5,-20.75 164.5,0 274.25,0 274.25,-20.75"/>
<text xml:space="preserve" text-anchor="middle" x="219.38" y="-7.25" font-family="Helvetica,sans-Serif" font-size="10.00">Motor TMC Internal</text>
</a>
</g>
</g>
<!-- Node1&#45;&gt;Node8 -->
<g id="edge7" class="edge">
<title>Node1&#45;&gt;Node8</title>
<path fill="none" stroke="black" d="M75.62,-107.66C92.65,-85.84 122.84,-51.01 156.25,-30.38 162.13,-26.74 168.74,-23.71 175.39,-21.19"/>
<polygon fill="black" stroke="black" points="72.95,-105.4 69.68,-115.48 78.52,-109.64 72.95,-105.4"/>
</g>
</g>
</svg>
</svg>

<style type='text/css'>
<![CDATA[
[data-mouse-over-selected='false'] { opacity: 0.7; }
[data-mouse-over-selected='true']  { opacity: 1.0; }
]]>
</style>
<script type="application/ecmascript"><![CDATA[
document.addEventListener('DOMContentLoaded', (event) => {
  highlightEdges();
  highlightAdjacentNodes();
});
]]></script>
</svg>
