<?xml version="1.0" encoding="UTF-8" standalone="no"?>
<!DOCTYPE svg PUBLIC "-//W3C//DTD SVG 1.1//EN"
 "http://www.w3.org/Graphics/SVG/1.1/DTD/svg11.dtd">
<!-- Generated by graphviz version 14.1.5 (0)
 -->
<!-- Title: source/led.c Pages: 1 -->
<svg width="481pt" height="142pt"
 viewBox="0.00 0.00 481.00 142.00" xmlns="http://www.w3.org/2000/svg" xmlns:xlink="http://www.w3.org/1999/xlink">
<g id="graph0" class="graph" transform="scale(1 1) rotate(0) translate(4 138.25)">
<title>source/led.c</title>
<!-- Node1 -->
<g id="Node000001" class="node">
<title>Node1</title>
<g id="a_Node000001"><a xlink:title=" ">
<polygon fill="#999999" stroke="#666666" points="207.25,-134.25 132.75,-134.25 132.75,-113.5 207.25,-113.5 207.25,-134.25"/>
<text xml:space="preserve" text-anchor="middle" x="170" y="-120.75" font-family="Helvetica,sans-Serif" font-size="10.00">source/led.c</text>
</a>
</g>
</g>
<!-- Node2 -->
<g id="Node000002" class="node">
<title>Node2</title>
<g id="a_Node000002"><a xlink:href="led_8h.html" target="_top" xlink:title="Simple LED control interface.">
<polygon fill="white" stroke="#666666" points="40,-77.5 0,-77.5 0,-56.75 40,-56.75 40,-77.5"/>
<text xml:space="preserve" text-anchor="middle" x="20" y="-64" font-family="Helvetica,sans-Serif" font-size="10.00">led.h</text>
</a>
</g>
</g>
<!-- Node1&#45;&gt;Node2 -->
<g id="edge1_Node000001_Node000002" class="edge">
<title>Node1&#45;&gt;Node2</title>
<g id="a_edge1_Node000001_Node000002"><a xlink:title=" ">
<path fill="none" stroke="#63b8ff" d="M143.18,-113.09C117.26,-103.63 78.02,-89.3 50.82,-79.38"/>
<polygon fill="#63b8ff" stroke="#63b8ff" points="52.35,-76.21 41.76,-76.07 49.95,-82.78 52.35,-76.21"/>
</a>
</g>
</g>
<!-- Node3 -->
<g id="Node000003" class="node">
<title>Node3</title>
<g id="a_Node000003"><a xlink:title=" ">
<polygon fill="#e0e0e0" stroke="#999999" points="86.5,-20.75 1.5,-20.75 1.5,0 86.5,0 86.5,-20.75"/>
<text xml:space="preserve" text-anchor="middle" x="44" y="-7.25" font-family="Helvetica,sans-Serif" font-size="10.00">fsl_common.h</text>
</a>
</g>
</g>
<!-- Node1&#45;&gt;Node3 -->
<g id="edge6_Node000001_Node000003" class="edge">
<title>Node1&#45;&gt;Node3</title>
<g id="a_edge6_Node000001_Node000003"><a xlink:title=" ">
<path fill="none" stroke="#63b8ff" d="M145.08,-113.16C127.44,-105.4 103.99,-93.24 87,-77.5 72.73,-64.28 61.06,-45.38 53.5,-31.16"/>
<polygon fill="#63b8ff" stroke="#63b8ff" points="56.66,-29.66 49.02,-22.32 50.41,-32.82 56.66,-29.66"/>
</a>
</g>
</g>
<!-- Node4 -->
<g id="Node000004" class="node">
<title>Node4</title>
<g id="a_Node000004"><a xlink:title=" ">
<polygon fill="#e0e0e0" stroke="#999999" points="159.62,-77.5 96.38,-77.5 96.38,-56.75 159.62,-56.75 159.62,-77.5"/>
<text xml:space="preserve" text-anchor="middle" x="128" y="-64" font-family="Helvetica,sans-Serif" font-size="10.00">fsl_gpio.h</text>
</a>
</g>
</g>
<!-- Node1&#45;&gt;Node4 -->
<g id="edge3_Node000001_Node000004" class="edge">
<title>Node1&#45;&gt;Node4</title>
<g id="a_edge3_Node000001_Node000004"><a xlink:title=" ">
<path fill="none" stroke="#63b8ff" d="M162.49,-113.09C156.88,-105.77 149.03,-95.54 142.24,-86.69"/>
<polygon fill="#63b8ff" stroke="#63b8ff" points="145.23,-84.83 136.36,-79.03 139.67,-89.09 145.23,-84.83"/>
</a>
</g>
</g>
<!-- Node5 -->
<g id="Node000005" class="node">
<title>Node5</title>
<g id="a_Node000005"><a xlink:title=" ">
<polygon fill="#e0e0e0" stroke="#999999" points="248.75,-77.5 177.25,-77.5 177.25,-56.75 248.75,-56.75 248.75,-77.5"/>
<text xml:space="preserve" text-anchor="middle" x="213" y="-64" font-family="Helvetica,sans-Serif" font-size="10.00">FreeRTOS.h</text>
</a>
</g>
</g>
<!-- Node1&#45;&gt;Node5 -->
<g id="edge4_Node000001_Node000005" class="edge">
<title>Node1&#45;&gt;Node5</title>
<g id="a_edge4_Node000001_Node000005"><a xlink:title=" ">
<path fill="none" stroke="#63b8ff" d="M177.69,-113.09C183.44,-105.77 191.47,-95.54 198.42,-86.69"/>
<polygon fill="#63b8ff" stroke="#63b8ff" points="201.02,-89.05 204.44,-79.02 195.51,-84.72 201.02,-89.05"/>
</a>
</g>
</g>
<!-- Node6 -->
<g id="Node000006" class="node">
<title>Node6</title>
<g id="a_Node000006"><a xlink:title=" ">
<polygon fill="#e0e0e0" stroke="#999999" points="313,-77.5 267,-77.5 267,-56.75 313,-56.75 313,-77.5"/>
<text xml:space="preserve" text-anchor="middle" x="290" y="-64" font-family="Helvetica,sans-Serif" font-size="10.00">task.h</text>
</a>
</g>
</g>
<!-- Node1&#45;&gt;Node6 -->
<g id="edge5_Node000001_Node000006" class="edge">
<title>Node1&#45;&gt;Node6</title>
<g id="a_edge5_Node000001_Node000006"><a xlink:title=" ">
<path fill="none" stroke="#63b8ff" d="M191.45,-113.09C210.05,-104.6 237.22,-92.2 258.33,-82.58"/>
<polygon fill="#63b8ff" stroke="#63b8ff" points="259.71,-85.79 267.36,-78.46 256.8,-79.42 259.71,-85.79"/>
</a>
</g>
</g>
<!-- Node7 -->
<g id="Node000007" class="node">
<title>Node7</title>
<g id="a_Node000007"><a xlink:title=" ">
<polygon fill="#e0e0e0" stroke="#999999" points="472.62,-77.5 331.38,-77.5 331.38,-56.75 472.62,-56.75 472.62,-77.5"/>
<text xml:space="preserve" text-anchor="middle" x="402" y="-64" font-family="Helvetica,sans-Serif" font-size="10.00">MK22F51212_COMMON.h</text>
</a>
</g>
</g>
<!-- Node1&#45;&gt;Node7 -->
<g id="edge7_Node000001_Node000007" class="edge">
<title>Node1&#45;&gt;Node7</title>
<g id="a_edge7_Node000001_Node000007"><a xlink:title=" ">
<path fill="none" stroke="#63b8ff" d="M207.53,-114.02C245.91,-104.96 305.86,-90.81 349.05,-80.62"/>
<polygon fill="#63b8ff" stroke="#63b8ff" points="349.8,-84.04 358.73,-78.34 348.2,-77.23 349.8,-84.04"/>
</a>
</g>
</g>
<!-- Node2&#45;&gt;Node3 -->
<g id="edge2_Node000002_Node000003" class="edge">
<title>Node2&#45;&gt;Node3</title>
<g id="a_edge2_Node000002_Node000003"><a xlink:title=" ">
<path fill="none" stroke="#63b8ff" d="M24.29,-56.34C27.33,-49.41 31.51,-39.87 35.24,-31.36"/>
<polygon fill="#63b8ff" stroke="#63b8ff" points="38.33,-33.03 39.14,-22.46 31.92,-30.22 38.33,-33.03"/>
</a>
</g>
</g>
</g>
</svg>
