<?xml version="1.0" encoding="UTF-8" standalone="no"?>
<!DOCTYPE svg PUBLIC "-//W3C//DTD SVG 1.1//EN"
 "http://www.w3.org/Graphics/SVG/1.1/DTD/svg11.dtd">
<!-- Generated by graphviz version 14.1.2 (0)
 -->
<!-- Title: source/log.c Pages: 1 -->
<svg width="595pt" height="142pt"
 viewBox="0.00 0.00 595.00 142.00" xmlns="http://www.w3.org/2000/svg" xmlns:xlink="http://www.w3.org/1999/xlink">
<g id="graph0" class="graph" transform="scale(1 1) rotate(0) translate(4 138.25)">
<title>source/log.c</title>
<!-- Node1 -->
<g id="Node000001" class="node">
<title>Node1</title>
<g id="a_Node000001"><a xlink:title=" ">
<polygon fill="#999999" stroke="#666666" points="318.12,-134.25 243.62,-134.25 243.62,-113.5 318.12,-113.5 318.12,-134.25"/>
<text xml:space="preserve" text-anchor="middle" x="280.88" y="-120.75" font-family="Helvetica,sans-Serif" font-size="10.00">source/log.c</text>
</a>
</g>
</g>
<!-- Node2 -->
<g id="Node000002" class="node">
<title>Node2</title>
<g id="a_Node000002"><a xlink:title=" ">
<polygon fill="#e0e0e0" stroke="#999999" points="279.62,-20.75 208.12,-20.75 208.12,0 279.62,0 279.62,-20.75"/>
<text xml:space="preserve" text-anchor="middle" x="243.88" y="-7.25" font-family="Helvetica,sans-Serif" font-size="10.00">FreeRTOS.h</text>
</a>
</g>
</g>
<!-- Node1&#45;&gt;Node2 -->
<g id="edge1_Node000001_Node000002" class="edge">
<title>Node1&#45;&gt;Node2</title>
<g id="a_edge1_Node000001_Node000002"><a xlink:title=" ">
<path fill="none" stroke="#63b8ff" d="M278.46,-113.37C275.1,-100.44 268.66,-76.65 261.88,-56.75 259.04,-48.44 255.55,-39.43 252.4,-31.64"/>
<polygon fill="#63b8ff" stroke="#63b8ff" points="255.64,-30.31 248.59,-22.41 249.17,-32.99 255.64,-30.31"/>
</a>
</g>
</g>
<!-- Node3 -->
<g id="Node000003" class="node">
<title>Node3</title>
<g id="a_Node000003"><a xlink:title=" ">
<polygon fill="#e0e0e0" stroke="#999999" points="189.75,-20.75 98,-20.75 98,0 189.75,0 189.75,-20.75"/>
<text xml:space="preserve" text-anchor="middle" x="143.88" y="-7.25" font-family="Helvetica,sans-Serif" font-size="10.00">FreeRTOS_CLI.h</text>
</a>
</g>
</g>
<!-- Node1&#45;&gt;Node3 -->
<g id="edge2_Node000001_Node000003" class="edge">
<title>Node1&#45;&gt;Node3</title>
<g id="a_edge2_Node000001_Node000003"><a xlink:title=" ">
<path fill="none" stroke="#63b8ff" d="M243.36,-118.12C198.6,-111.59 127.77,-98.23 111.88,-77.5 100.54,-62.72 112.55,-43.29 124.96,-29.32"/>
<polygon fill="#63b8ff" stroke="#63b8ff" points="127.47,-31.76 131.88,-22.12 122.42,-26.91 127.47,-31.76"/>
</a>
</g>
</g>
<!-- Node4 -->
<g id="Node000004" class="node">
<title>Node4</title>
<g id="a_Node000004"><a xlink:href="cli_8h.html" target="_top" xlink:title=" ">
<polygon fill="white" stroke="#666666" points="157,-77.5 120.75,-77.5 120.75,-56.75 157,-56.75 157,-77.5"/>
<text xml:space="preserve" text-anchor="middle" x="138.88" y="-64" font-family="Helvetica,sans-Serif" font-size="10.00">cli.h</text>
</a>
</g>
</g>
<!-- Node1&#45;&gt;Node4 -->
<g id="edge3_Node000001_Node000004" class="edge">
<title>Node1&#45;&gt;Node4</title>
<g id="a_edge3_Node000001_Node000004"><a xlink:title=" ">
<path fill="none" stroke="#63b8ff" d="M255.49,-113.09C230.89,-103.6 193.62,-89.23 167.87,-79.3"/>
<polygon fill="#63b8ff" stroke="#63b8ff" points="169.27,-76.09 158.68,-75.76 166.75,-82.62 169.27,-76.09"/>
</a>
</g>
</g>
<!-- Node5 -->
<g id="Node000005" class="node">
<title>Node5</title>
<g id="a_Node000005"><a xlink:title=" ">
<polygon fill="#e0e0e0" stroke="#999999" points="79.75,-20.75 0,-20.75 0,0 79.75,0 79.75,-20.75"/>
<text xml:space="preserve" text-anchor="middle" x="39.88" y="-7.25" font-family="Helvetica,sans-Serif" font-size="10.00">peripherals.h</text>
</a>
</g>
</g>
<!-- Node1&#45;&gt;Node5 -->
<g id="edge15_Node000001_Node000005" class="edge">
<title>Node1&#45;&gt;Node5</title>
<g id="a_edge15_Node000001_Node000005"><a xlink:title=" ">
<path fill="none" stroke="#63b8ff" d="M243.13,-119.39C205.43,-114.56 146.91,-103.28 102.88,-77.5 82.45,-65.54 64.42,-45.04 52.94,-30.03"/>
<polygon fill="#63b8ff" stroke="#63b8ff" points="56.02,-28.31 47.28,-22.32 50.38,-32.45 56.02,-28.31"/>
</a>
</g>
</g>
<!-- Node6 -->
<g id="Node000006" class="node">
<title>Node6</title>
<g id="a_Node000006"><a xlink:href="cli__utilities_8h.html" target="_top" xlink:title=" ">
<polygon fill="white" stroke="#666666" points="253,-77.5 174.75,-77.5 174.75,-56.75 253,-56.75 253,-77.5"/>
<text xml:space="preserve" text-anchor="middle" x="213.88" y="-64" font-family="Helvetica,sans-Serif" font-size="10.00">cli_utilities.h</text>
</a>
</g>
</g>
<!-- Node1&#45;&gt;Node6 -->
<g id="edge7_Node000001_Node000006" class="edge">
<title>Node1&#45;&gt;Node6</title>
<g id="a_edge7_Node000001_Node000006"><a xlink:title=" ">
<path fill="none" stroke="#63b8ff" d="M268.9,-113.09C259.37,-105.3 245.81,-94.22 234.54,-85.01"/>
<polygon fill="#63b8ff" stroke="#63b8ff" points="236.88,-82.4 226.92,-78.79 232.45,-87.82 236.88,-82.4"/>
</a>
</g>
</g>
<!-- Node8 -->
<g id="Node000008" class="node">
<title>Node8</title>
<g id="a_Node000008"><a xlink:href="disk_8h.html" target="_top" xlink:title=" ">
<polygon fill="white" stroke="#666666" points="552.5,-77.5 507.25,-77.5 507.25,-56.75 552.5,-56.75 552.5,-77.5"/>
<text xml:space="preserve" text-anchor="middle" x="529.88" y="-64" font-family="Helvetica,sans-Serif" font-size="10.00">disk.h</text>
</a>
</g>
</g>
<!-- Node1&#45;&gt;Node8 -->
<g id="edge11_Node000001_Node000008" class="edge">
<title>Node1&#45;&gt;Node8</title>
<g id="a_edge11_Node000001_Node000008"><a xlink:title=" ">
<path fill="none" stroke="#63b8ff" d="M318.52,-116.09C359.95,-108.39 428.69,-94.94 496.11,-78.05"/>
<polygon fill="#63b8ff" stroke="#63b8ff" points="496.62,-81.54 505.45,-75.69 494.89,-74.75 496.62,-81.54"/>
</a>
</g>
</g>
<!-- Node11 -->
<g id="Node000011" class="node">
<title>Node11</title>
<g id="a_Node000011"><a xlink:title=" ">
<polygon fill="#e0e0e0" stroke="#999999" points="422.38,-77.5 367.38,-77.5 367.38,-56.75 422.38,-56.75 422.38,-77.5"/>
<text xml:space="preserve" text-anchor="middle" x="394.88" y="-64" font-family="Helvetica,sans-Serif" font-size="10.00">queue.h</text>
</a>
</g>
</g>
<!-- Node1&#45;&gt;Node11 -->
<g id="edge16_Node000001_Node000011" class="edge">
<title>Node1&#45;&gt;Node11</title>
<g id="a_edge16_Node000001_Node000011"><a xlink:title=" ">
<path fill="none" stroke="#63b8ff" d="M301.26,-113.09C318.84,-104.64 344.5,-92.32 364.51,-82.71"/>
<polygon fill="#63b8ff" stroke="#63b8ff" points="365.81,-85.97 373.31,-78.48 362.78,-79.66 365.81,-85.97"/>
</a>
</g>
</g>
<!-- Node12 -->
<g id="Node000012" class="node">
<title>Node12</title>
<g id="a_Node000012"><a xlink:title=" ">
<polygon fill="#e0e0e0" stroke="#999999" points="489.38,-77.5 440.38,-77.5 440.38,-56.75 489.38,-56.75 489.38,-77.5"/>
<text xml:space="preserve" text-anchor="middle" x="464.88" y="-64" font-family="Helvetica,sans-Serif" font-size="10.00">stdio.h</text>
</a>
</g>
</g>
<!-- Node1&#45;&gt;Node12 -->
<g id="edge17_Node000001_Node000012" class="edge">
<title>Node1&#45;&gt;Node12</title>
<g id="a_edge17_Node000001_Node000012"><a xlink:title=" ">
<path fill="none" stroke="#63b8ff" d="M313.77,-113.09C346.28,-103.41 395.85,-88.66 429.27,-78.72"/>
<polygon fill="#63b8ff" stroke="#63b8ff" points="429.89,-82.19 438.48,-75.98 427.9,-75.48 429.89,-82.19"/>
</a>
</g>
</g>
<!-- Node13 -->
<g id="Node000013" class="node">
<title>Node13</title>
<g id="a_Node000013"><a xlink:href="log_8h.html" target="_top" xlink:title=" ">
<polygon fill="white" stroke="#666666" points="348.88,-77.5 308.88,-77.5 308.88,-56.75 348.88,-56.75 348.88,-77.5"/>
<text xml:space="preserve" text-anchor="middle" x="328.88" y="-64" font-family="Helvetica,sans-Serif" font-size="10.00">log.h</text>
</a>
</g>
</g>
<!-- Node1&#45;&gt;Node13 -->
<g id="edge18_Node000001_Node000013" class="edge">
<title>Node1&#45;&gt;Node13</title>
<g id="a_edge18_Node000001_Node000013"><a xlink:title=" ">
<path fill="none" stroke="#63b8ff" d="M289.46,-113.09C295.94,-105.69 305.03,-95.32 312.85,-86.41"/>
<polygon fill="#63b8ff" stroke="#63b8ff" points="315.41,-88.79 319.37,-78.97 310.15,-84.18 315.41,-88.79"/>
</a>
</g>
</g>
<!-- Node4&#45;&gt;Node2 -->
<g id="edge4_Node000004_Node000002" class="edge">
<title>Node4&#45;&gt;Node2</title>
<g id="a_edge4_Node000004_Node000002"><a xlink:title=" ">
<path fill="none" stroke="#63b8ff" d="M157.16,-56.59C173.15,-48.25 196.64,-36.01 215.14,-26.36"/>
<polygon fill="#63b8ff" stroke="#63b8ff" points="216.5,-29.6 223.75,-21.87 213.26,-23.39 216.5,-29.6"/>
</a>
</g>
</g>
<!-- Node4&#45;&gt;Node3 -->
<g id="edge5_Node000004_Node000003" class="edge">
<title>Node4&#45;&gt;Node3</title>
<g id="a_edge5_Node000004_Node000003"><a xlink:title=" ">
<path fill="none" stroke="#63b8ff" d="M139.77,-56.34C140.37,-49.72 141.19,-40.72 141.94,-32.52"/>
<polygon fill="#63b8ff" stroke="#63b8ff" points="145.43,-32.86 142.85,-22.59 138.46,-32.23 145.43,-32.86"/>
</a>
</g>
</g>
<!-- Node4&#45;&gt;Node5 -->
<g id="edge6_Node000004_Node000005" class="edge">
<title>Node4&#45;&gt;Node5</title>
<g id="a_edge6_Node000004_Node000005"><a xlink:title=" ">
<path fill="none" stroke="#63b8ff" d="M121.18,-56.34C106.25,-48.08 84.64,-36.13 67.45,-26.63"/>
<polygon fill="#63b8ff" stroke="#63b8ff" points="69.19,-23.59 58.75,-21.81 65.8,-29.71 69.19,-23.59"/>
</a>
</g>
</g>
<!-- Node6&#45;&gt;Node2 -->
<g id="edge8_Node000006_Node000002" class="edge">
<title>Node6&#45;&gt;Node2</title>
<g id="a_edge8_Node000006_Node000002"><a xlink:title=" ">
<path fill="none" stroke="#63b8ff" d="M219.24,-56.34C223.08,-49.33 228.38,-39.66 233.08,-31.08"/>
<polygon fill="#63b8ff" stroke="#63b8ff" points="236.09,-32.86 237.83,-22.41 229.96,-29.49 236.09,-32.86"/>
</a>
</g>
</g>
<!-- Node6&#45;&gt;Node3 -->
<g id="edge9_Node000006_Node000003" class="edge">
<title>Node6&#45;&gt;Node3</title>
<g id="a_edge9_Node000006_Node000003"><a xlink:title=" ">
<path fill="none" stroke="#63b8ff" d="M201.36,-56.34C191.31,-48.47 176.96,-37.25 165.12,-27.99"/>
<polygon fill="#63b8ff" stroke="#63b8ff" points="167.51,-25.41 157.47,-22.01 163.19,-30.93 167.51,-25.41"/>
</a>
</g>
</g>
<!-- Node7 -->
<g id="Node000007" class="node">
<title>Node7</title>
<g id="a_Node000007"><a xlink:title=" ">
<polygon fill="#e0e0e0" stroke="#999999" points="382.38,-20.75 297.38,-20.75 297.38,0 382.38,0 382.38,-20.75"/>
<text xml:space="preserve" text-anchor="middle" x="339.88" y="-7.25" font-family="Helvetica,sans-Serif" font-size="10.00">fsl_common.h</text>
</a>
</g>
</g>
<!-- Node6&#45;&gt;Node7 -->
<g id="edge10_Node000006_Node000007" class="edge">
<title>Node6&#45;&gt;Node7</title>
<g id="a_edge10_Node000006_Node000007"><a xlink:title=" ">
<path fill="none" stroke="#63b8ff" d="M236.4,-56.34C256.11,-47.77 284.98,-35.23 307.23,-25.56"/>
<polygon fill="#63b8ff" stroke="#63b8ff" points="308.38,-28.88 316.16,-21.68 305.59,-22.46 308.38,-28.88"/>
</a>
</g>
</g>
<!-- Node8&#45;&gt;Node7 -->
<g id="edge13_Node000008_Node000007" class="edge">
<title>Node8&#45;&gt;Node7</title>
<g id="a_edge13_Node000008_Node000007"><a xlink:title=" ">
<path fill="none" stroke="#63b8ff" d="M506.86,-59.12C504.17,-58.32 501.46,-57.51 498.88,-56.75 460.81,-45.56 417.5,-33.23 385.71,-24.25"/>
<polygon fill="#63b8ff" stroke="#63b8ff" points="387,-20.98 376.43,-21.63 385.1,-27.72 387,-20.98"/>
</a>
</g>
</g>
<!-- Node9 -->
<g id="Node000009" class="node">
<title>Node9</title>
<g id="a_Node000009"><a xlink:title=" ">
<polygon fill="#e0e0e0" stroke="#999999" points="514.75,-20.75 483,-20.75 483,0 514.75,0 514.75,-20.75"/>
<text xml:space="preserve" text-anchor="middle" x="498.88" y="-7.25" font-family="Helvetica,sans-Serif" font-size="10.00">ff.h</text>
</a>
</g>
</g>
<!-- Node8&#45;&gt;Node9 -->
<g id="edge12_Node000008_Node000009" class="edge">
<title>Node8&#45;&gt;Node9</title>
<g id="a_edge12_Node000008_Node000009"><a xlink:title=" ">
<path fill="none" stroke="#63b8ff" d="M524.33,-56.34C520.37,-49.33 514.89,-39.66 510.03,-31.08"/>
<polygon fill="#63b8ff" stroke="#63b8ff" points="513.09,-29.37 505.11,-22.4 507,-32.82 513.09,-29.37"/>
</a>
</g>
</g>
<!-- Node10 -->
<g id="Node000010" class="node">
<title>Node10</title>
<g id="a_Node000010"><a xlink:title=" ">
<polygon fill="#e0e0e0" stroke="#999999" points="587,-20.75 532.75,-20.75 532.75,0 587,0 587,-20.75"/>
<text xml:space="preserve" text-anchor="middle" x="559.88" y="-7.25" font-family="Helvetica,sans-Serif" font-size="10.00">diskio.h</text>
</a>
</g>
</g>
<!-- Node8&#45;&gt;Node10 -->
<g id="edge14_Node000008_Node000010" class="edge">
<title>Node8&#45;&gt;Node10</title>
<g id="a_edge14_Node000008_Node000010"><a xlink:title=" ">
<path fill="none" stroke="#63b8ff" d="M535.24,-56.34C539.08,-49.33 544.38,-39.66 549.08,-31.08"/>
<polygon fill="#63b8ff" stroke="#63b8ff" points="552.09,-32.86 553.83,-22.41 545.96,-29.49 552.09,-32.86"/>
</a>
</g>
</g>
<!-- Node13&#45;&gt;Node2 -->
<g id="edge19_Node000013_Node000002" class="edge">
<title>Node13&#45;&gt;Node2</title>
<g id="a_edge19_Node000013_Node000002"><a xlink:title=" ">
<path fill="none" stroke="#63b8ff" d="M313.68,-56.34C301.11,-48.24 283.01,-36.58 268.39,-27.17"/>
<polygon fill="#63b8ff" stroke="#63b8ff" points="270.51,-24.37 260.21,-21.9 266.72,-30.26 270.51,-24.37"/>
</a>
</g>
</g>
<!-- Node13&#45;&gt;Node7 -->
<g id="edge20_Node000013_Node000007" class="edge">
<title>Node13&#45;&gt;Node7</title>
<g id="a_edge20_Node000013_Node000007"><a xlink:title=" ">
<path fill="none" stroke="#63b8ff" d="M330.84,-56.34C332.19,-49.64 334.02,-40.51 335.69,-32.23"/>
<polygon fill="#63b8ff" stroke="#63b8ff" points="339.09,-33.06 337.63,-22.56 332.23,-31.68 339.09,-33.06"/>
</a>
</g>
</g>
</g>
</svg>
