<?xml version="1.0" encoding="UTF-8" standalone="no"?>
<!DOCTYPE svg PUBLIC "-//W3C//DTD SVG 1.1//EN"
 "http://www.w3.org/Graphics/SVG/1.1/DTD/svg11.dtd">
<!-- Generated by graphviz version 14.1.5 (0)
 -->
<!-- Title: source/infrastructure/log.h Pages: 1 -->
<!--zoomable 111 -->

<svg id="main" version="1.1" xmlns="http://www.w3.org/2000/svg" xmlns:xlink="http://www.w3.org/1999/xlink" xml:space="preserve" onload="init(evt)">

<style type="text/css"><![CDATA[
.node, .edge {opacity: 0.7;}
.node.selected, .edge.selected {opacity: 1;}
.edge:hover path { stroke: red; }
.edge:hover polygon { stroke: red; fill: red; }
]]></style>

<defs>
  <circle id="rim" cx="0" cy="0" r="7"/>
  <circle id="rim2" cx="0" cy="0" r="3.5"/>
  <g id="zoomPlus">
    <use xlink:href="#rim" fill="#404040"><set attributeName="fill" to="#808080" begin="zoomplus.mouseover" end="zoomplus.mouseout"/></use>
    <path d="M-4,0h8M0,-4v8" fill="none" stroke="white" stroke-width="1.5" pointer-events="none"/>
  </g>
  <g id="zoomMin">
    <use xlink:href="#rim" fill="#404040"><set attributeName="fill" to="#808080" begin="zoomminus.mouseover" end="zoomminus.mouseout"/></use>
    <path d="M-4,0h8" fill="none" stroke="white" stroke-width="1.5" pointer-events="none"/>
  </g>
  <g id="arrowUp" transform="translate(30 24)">
    <use xlink:href="#rim"/>
    <path pointer-events="none" fill="none" stroke="white" stroke-width="1.5" d="M0,-3.0v7 M-2.5,-0.5L0,-3.0L2.5,-0.5"/>
  </g>
  <g id="arrowRight" transform="rotate(90) translate(36 -43)">
    <use xlink:href="#rim"/>
    <path pointer-events="none" fill="none" stroke="white" stroke-width="1.5" d="M0,-3.0v7 M-2.5,-0.5L0,-3.0L2.5,-0.5"/>
  </g>
  <g id="arrowDown" transform="rotate(180) translate(-30 -48)">
    <use xlink:href="#rim"/>
    <path pointer-events="none" fill="none" stroke="white" stroke-width="1.5" d="M0,-3.0v7 M-2.5,-0.5L0,-3.0L2.5,-0.5"/>
  </g>
  <g id="arrowLeft" transform="rotate(270) translate(-36 17)">
    <use xlink:href="#rim"/>
    <path pointer-events="none" fill="none" stroke="white" stroke-width="1.5" d="M0,-3.0v7 M-2.5,-0.5L0,-3.0L2.5,-0.5"/>
  </g>
  <g id="resetDef">
    <use xlink:href="#rim2" fill="#404040"><set attributeName="fill" to="#808080" begin="reset.mouseover" end="reset.mouseout"/></use>
  </g>
</defs>
<script type="application/ecmascript">
var viewWidth = 3499;
var viewHeight = 111;
var sectionId = 'dynsection-1';
</script>
<script type="application/ecmascript" xlink:href="svg.min.js"/>
<svg id="graph" class="graph">
<g id="viewport">
<title>source/infrastructure/log.h</title>
<!-- Node1 -->
<g id="Node000001" class="node">
<title>Node1</title>
<g id="a_Node000001"><a xlink:title=" ">
<polygon fill="#999999" stroke="#666666" points="1838.38,-103 1721.12,-103 1721.12,-69.5 1838.38,-69.5 1838.38,-103"/>
<text xml:space="preserve" text-anchor="start" x="1729.12" y="-89.5" font-family="Helvetica,sans-Serif" font-size="10.00">source/infrastructure</text>
<text xml:space="preserve" text-anchor="middle" x="1779.75" y="-76.75" font-family="Helvetica,sans-Serif" font-size="10.00">/log.h</text>
</a>
</g>
</g>
<!-- Node2 -->
<g id="Node000002" class="node">
<title>Node2</title>
<g id="a_Node000002"><a xlink:href="application_8c.html" target="_top" xlink:title=" ">
<polygon fill="white" stroke="#666666" points="113.5,-27.12 0,-27.12 0,-6.38 113.5,-6.38 113.5,-27.12"/>
<text xml:space="preserve" text-anchor="middle" x="56.75" y="-13.62" font-family="Helvetica,sans-Serif" font-size="10.00">source/application.c</text>
</a>
</g>
</g>
<!-- Node1&#45;&gt;Node2 -->
<g id="edge1_Node000001_Node000002" class="edge">
<title>Node1&#45;&gt;Node2</title>
<g id="a_edge1_Node000001_Node000002"><a xlink:title=" ">
<path fill="none" stroke="#63b8ff" d="M1709.61,-84.96C1435.55,-83.51 436.69,-75.42 122.75,-33.5 112.71,-32.16 101.96,-29.94 92.12,-27.59"/>
<polygon fill="#63b8ff" stroke="#63b8ff" points="1709.44,-88.45 1719.45,-85.01 1709.47,-81.45 1709.44,-88.45"/>
</a>
</g>
</g>
<!-- Node3 -->
<g id="Node000003" class="node">
<title>Node3</title>
<g id="a_Node000003"><a xlink:href="McuSSD1306_8c.html" target="_top" xlink:title=" ">
<polygon fill="white" stroke="#666666" points="293.5,-27.12 132,-27.12 132,-6.38 293.5,-6.38 293.5,-27.12"/>
<text xml:space="preserve" text-anchor="middle" x="212.75" y="-13.62" font-family="Helvetica,sans-Serif" font-size="10.00">source/display/McuSSD1306.c</text>
</a>
</g>
</g>
<!-- Node1&#45;&gt;Node3 -->
<g id="edge2_Node000001_Node000003" class="edge">
<title>Node1&#45;&gt;Node3</title>
<g id="a_edge2_Node000001_Node000003"><a xlink:title=" ">
<path fill="none" stroke="#63b8ff" d="M1709.39,-84.08C1454.6,-79.62 580.62,-62.54 302.75,-33.5 289.34,-32.1 274.91,-29.89 261.62,-27.57"/>
<polygon fill="#63b8ff" stroke="#63b8ff" points="1709.12,-87.57 1719.18,-84.25 1709.24,-80.57 1709.12,-87.57"/>
</a>
</g>
</g>
<!-- Node4 -->
<g id="Node000004" class="node">
<title>Node4</title>
<g id="a_Node000004"><a xlink:href="pca9555a_8c.html" target="_top" xlink:title=" ">
<polygon fill="white" stroke="#666666" points="441.75,-33.5 311.75,-33.5 311.75,0 441.75,0 441.75,-33.5"/>
<text xml:space="preserve" text-anchor="start" x="319.75" y="-20" font-family="Helvetica,sans-Serif" font-size="10.00">source/driver/pca9555a</text>
<text xml:space="preserve" text-anchor="middle" x="376.75" y="-7.25" font-family="Helvetica,sans-Serif" font-size="10.00">/pca9555a.c</text>
</a>
</g>
</g>
<!-- Node1&#45;&gt;Node4 -->
<g id="edge3_Node000001_Node000004" class="edge">
<title>Node1&#45;&gt;Node4</title>
<g id="a_edge3_Node000001_Node000004"><a xlink:title=" ">
<path fill="none" stroke="#63b8ff" d="M1709.74,-84.1C1472.18,-79.96 697.88,-64.38 450.75,-33.5 447.88,-33.14 444.96,-32.73 442.02,-32.27"/>
<polygon fill="#63b8ff" stroke="#63b8ff" points="1709.41,-87.6 1719.46,-84.27 1709.53,-80.6 1709.41,-87.6"/>
</a>
</g>
</g>
<!-- Node5 -->
<g id="Node000005" class="node">
<title>Node5</title>
<g id="a_Node000005"><a xlink:href="tmc2209__core_8c.html" target="_top" xlink:title=" ">
<polygon fill="white" stroke="#666666" points="585.5,-33.5 460,-33.5 460,0 585.5,0 585.5,-33.5"/>
<text xml:space="preserve" text-anchor="start" x="468" y="-20" font-family="Helvetica,sans-Serif" font-size="10.00">source/driver/tmc2209</text>
<text xml:space="preserve" text-anchor="middle" x="522.75" y="-7.25" font-family="Helvetica,sans-Serif" font-size="10.00">/tmc2209_core.c</text>
</a>
</g>
</g>
<!-- Node1&#45;&gt;Node5 -->
<g id="edge4_Node000001_Node000005" class="edge">
<title>Node1&#45;&gt;Node5</title>
<g id="a_edge4_Node000001_Node000005"><a xlink:title=" ">
<path fill="none" stroke="#63b8ff" d="M1709.28,-83.76C1488.55,-78.85 812.29,-61.83 594.75,-33.5 591.83,-33.12 588.86,-32.68 585.86,-32.2"/>
<polygon fill="#63b8ff" stroke="#63b8ff" points="1709.1,-87.26 1719.18,-83.98 1709.26,-80.26 1709.1,-87.26"/>
</a>
</g>
</g>
<!-- Node6 -->
<g id="Node000006" class="node">
<title>Node6</title>
<g id="a_Node000006"><a xlink:href="tmc2209__process_8c.html" target="_top" xlink:title=" ">
<polygon fill="white" stroke="#666666" points="729.5,-33.5 604,-33.5 604,0 729.5,0 729.5,-33.5"/>
<text xml:space="preserve" text-anchor="start" x="612" y="-20" font-family="Helvetica,sans-Serif" font-size="10.00">source/driver/tmc2209</text>
<text xml:space="preserve" text-anchor="middle" x="666.75" y="-7.25" font-family="Helvetica,sans-Serif" font-size="10.00">/tmc2209_process.c</text>
</a>
</g>
</g>
<!-- Node1&#45;&gt;Node6 -->
<g id="edge5_Node000001_Node000006" class="edge">
<title>Node1&#45;&gt;Node6</title>
<g id="a_edge5_Node000001_Node000006"><a xlink:title=" ">
<path fill="none" stroke="#63b8ff" d="M1709.32,-85.76C1540.83,-86.11 1101.52,-81.86 738.75,-33.5 735.83,-33.11 732.86,-32.67 729.86,-32.18"/>
<polygon fill="#63b8ff" stroke="#63b8ff" points="1709.24,-89.26 1719.23,-85.73 1709.22,-82.26 1709.24,-89.26"/>
</a>
</g>
</g>
<!-- Node7 -->
<g id="Node000007" class="node">
<title>Node7</title>
<g id="a_Node000007"><a xlink:href="tmc2209__setup_8c.html" target="_top" xlink:title=" ">
<polygon fill="white" stroke="#666666" points="873.5,-33.5 748,-33.5 748,0 873.5,0 873.5,-33.5"/>
<text xml:space="preserve" text-anchor="start" x="756" y="-20" font-family="Helvetica,sans-Serif" font-size="10.00">source/driver/tmc2209</text>
<text xml:space="preserve" text-anchor="middle" x="810.75" y="-7.25" font-family="Helvetica,sans-Serif" font-size="10.00">/tmc2209_setup.c</text>
</a>
</g>
</g>
<!-- Node1&#45;&gt;Node7 -->
<g id="edge6_Node000001_Node000007" class="edge">
<title>Node1&#45;&gt;Node7</title>
<g id="a_edge6_Node000001_Node000007"><a xlink:title=" ">
<path fill="none" stroke="#63b8ff" d="M1709.25,-84.95C1557.41,-83.49 1188.5,-75.49 882.75,-33.5 879.83,-33.1 876.86,-32.64 873.87,-32.15"/>
<polygon fill="#63b8ff" stroke="#63b8ff" points="1709.12,-88.45 1719.15,-85.04 1709.18,-81.45 1709.12,-88.45"/>
</a>
</g>
</g>
<!-- Node8 -->
<g id="Node000008" class="node">
<title>Node8</title>
<g id="a_Node000008"><a xlink:href="tmc2209__uart_8c.html" target="_top" xlink:title=" ">
<polygon fill="white" stroke="#666666" points="1017.5,-33.5 892,-33.5 892,0 1017.5,0 1017.5,-33.5"/>
<text xml:space="preserve" text-anchor="start" x="900" y="-20" font-family="Helvetica,sans-Serif" font-size="10.00">source/driver/tmc2209</text>
<text xml:space="preserve" text-anchor="middle" x="954.75" y="-7.25" font-family="Helvetica,sans-Serif" font-size="10.00">/tmc2209_uart.c</text>
</a>
</g>
</g>
<!-- Node1&#45;&gt;Node8 -->
<g id="edge7_Node000001_Node000008" class="edge">
<title>Node1&#45;&gt;Node8</title>
<g id="a_edge7_Node000001_Node000008"><a xlink:title=" ">
<path fill="none" stroke="#63b8ff" d="M1709.51,-83.94C1575.77,-80.66 1275.6,-69.58 1025.75,-33.5 1023.13,-33.12 1020.45,-32.7 1017.76,-32.24"/>
<polygon fill="#63b8ff" stroke="#63b8ff" points="1709.18,-87.43 1719.26,-84.17 1709.35,-80.43 1709.18,-87.43"/>
</a>
</g>
</g>
<!-- Node9 -->
<g id="Node000009" class="node">
<title>Node9</title>
<g id="a_Node000009"><a xlink:href="cli_8c.html" target="_top" xlink:title=" ">
<polygon fill="white" stroke="#666666" points="1152.38,-33.5 1035.12,-33.5 1035.12,0 1152.38,0 1152.38,-33.5"/>
<text xml:space="preserve" text-anchor="start" x="1043.12" y="-20" font-family="Helvetica,sans-Serif" font-size="10.00">source/infrastructure</text>
<text xml:space="preserve" text-anchor="middle" x="1093.75" y="-7.25" font-family="Helvetica,sans-Serif" font-size="10.00">/cli.c</text>
</a>
</g>
</g>
<!-- Node1&#45;&gt;Node9 -->
<g id="edge8_Node000001_Node000009" class="edge">
<title>Node1&#45;&gt;Node9</title>
<g id="a_edge8_Node000001_Node000009"><a xlink:title=" ">
<path fill="none" stroke="#63b8ff" d="M1709.51,-82.75C1594.29,-77.9 1358.2,-64.79 1160.75,-33.5 1158.15,-33.09 1155.51,-32.63 1152.84,-32.14"/>
<polygon fill="#63b8ff" stroke="#63b8ff" points="1709.3,-86.25 1719.43,-83.16 1709.58,-79.25 1709.3,-86.25"/>
</a>
</g>
</g>
<!-- Node10 -->
<g id="Node000010" class="node">
<title>Node10</title>
<g id="a_Node000010"><a xlink:href="log_8c.html" target="_top" xlink:title=" ">
<polygon fill="white" stroke="#666666" points="1287.38,-33.5 1170.12,-33.5 1170.12,0 1287.38,0 1287.38,-33.5"/>
<text xml:space="preserve" text-anchor="start" x="1178.12" y="-20" font-family="Helvetica,sans-Serif" font-size="10.00">source/infrastructure</text>
<text xml:space="preserve" text-anchor="middle" x="1228.75" y="-7.25" font-family="Helvetica,sans-Serif" font-size="10.00">/log.c</text>
</a>
</g>
</g>
<!-- Node1&#45;&gt;Node10 -->
<g id="edge9_Node000001_Node000010" class="edge">
<title>Node1&#45;&gt;Node10</title>
<g id="a_edge9_Node000001_Node000010"><a xlink:title=" ">
<path fill="none" stroke="#63b8ff" d="M1709.54,-80.5C1615.03,-73.47 1441.9,-58.39 1295.75,-33.5 1293.16,-33.06 1290.52,-32.58 1287.86,-32.06"/>
<polygon fill="#63b8ff" stroke="#63b8ff" points="1709.2,-83.98 1719.43,-81.22 1709.72,-77 1709.2,-83.98"/>
</a>
</g>
</g>
<!-- Node11 -->
<g id="Node000011" class="node">
<title>Node11</title>
<g id="a_Node000011"><a xlink:href="motor__homing_8c.html" target="_top" xlink:title=" ">
<polygon fill="white" stroke="#666666" points="1430.5,-33.5 1305,-33.5 1305,0 1430.5,0 1430.5,-33.5"/>
<text xml:space="preserve" text-anchor="start" x="1313" y="-20" font-family="Helvetica,sans-Serif" font-size="10.00">source/motion/homing</text>
<text xml:space="preserve" text-anchor="middle" x="1367.75" y="-7.25" font-family="Helvetica,sans-Serif" font-size="10.00">/motor_homing.c</text>
</a>
</g>
</g>
<!-- Node1&#45;&gt;Node11 -->
<g id="edge10_Node000001_Node000011" class="edge">
<title>Node1&#45;&gt;Node11</title>
<g id="a_edge10_Node000001_Node000011"><a xlink:title=" ">
<path fill="none" stroke="#63b8ff" d="M1709.76,-75.94C1640.87,-66.46 1532.76,-50.73 1439.75,-33.5 1436.86,-32.96 1433.9,-32.4 1430.92,-31.81"/>
<polygon fill="#63b8ff" stroke="#63b8ff" points="1709.01,-79.37 1719.4,-77.26 1709.96,-72.43 1709.01,-79.37"/>
</a>
</g>
</g>
<!-- Node12 -->
<g id="Node000012" class="node">
<title>Node12</title>
<g id="a_Node000012"><a xlink:href="motor__core_8c.html" target="_top" xlink:title=" ">
<polygon fill="white" stroke="#666666" points="1566.75,-33.5 1448.75,-33.5 1448.75,0 1566.75,0 1566.75,-33.5"/>
<text xml:space="preserve" text-anchor="start" x="1456.75" y="-20" font-family="Helvetica,sans-Serif" font-size="10.00">source/motion/motor</text>
<text xml:space="preserve" text-anchor="middle" x="1507.75" y="-7.25" font-family="Helvetica,sans-Serif" font-size="10.00">/motor_core.c</text>
</a>
</g>
</g>
<!-- Node1&#45;&gt;Node12 -->
<g id="edge11_Node000001_Node000012" class="edge">
<title>Node1&#45;&gt;Node12</title>
<g id="a_edge11_Node000001_Node000012"><a xlink:title=" ">
<path fill="none" stroke="#63b8ff" d="M1709.78,-67.89C1665.59,-56.92 1609.12,-42.91 1567.12,-32.48"/>
<polygon fill="#63b8ff" stroke="#63b8ff" points="1708.71,-71.23 1719.26,-70.24 1710.4,-64.43 1708.71,-71.23"/>
</a>
</g>
</g>
<!-- Node13 -->
<g id="Node000013" class="node">
<title>Node13</title>
<g id="a_Node000013"><a xlink:href="motor__init_8c.html" target="_top" xlink:title=" ">
<polygon fill="white" stroke="#666666" points="1702.75,-33.5 1584.75,-33.5 1584.75,0 1702.75,0 1702.75,-33.5"/>
<text xml:space="preserve" text-anchor="start" x="1592.75" y="-20" font-family="Helvetica,sans-Serif" font-size="10.00">source/motion/motor</text>
<text xml:space="preserve" text-anchor="middle" x="1643.75" y="-7.25" font-family="Helvetica,sans-Serif" font-size="10.00">/motor_init.c</text>
</a>
</g>
</g>
<!-- Node1&#45;&gt;Node13 -->
<g id="edge12_Node000001_Node000013" class="edge">
<title>Node1&#45;&gt;Node13</title>
<g id="a_edge12_Node000001_Node000013"><a xlink:title=" ">
<path fill="none" stroke="#63b8ff" d="M1736.92,-63.99C1717.23,-54.22 1694.26,-42.82 1676.06,-33.79"/>
<polygon fill="#63b8ff" stroke="#63b8ff" points="1735.31,-67.1 1745.82,-68.41 1738.42,-60.83 1735.31,-67.1"/>
</a>
</g>
</g>
<!-- Node14 -->
<g id="Node000014" class="node">
<title>Node14</title>
<g id="a_Node000014"><a xlink:href="motor__motion_8c.html" target="_top" xlink:title=" ">
<polygon fill="white" stroke="#666666" points="1838.75,-33.5 1720.75,-33.5 1720.75,0 1838.75,0 1838.75,-33.5"/>
<text xml:space="preserve" text-anchor="start" x="1728.75" y="-20" font-family="Helvetica,sans-Serif" font-size="10.00">source/motion/motor</text>
<text xml:space="preserve" text-anchor="middle" x="1779.75" y="-7.25" font-family="Helvetica,sans-Serif" font-size="10.00">/motor_motion.c</text>
</a>
</g>
</g>
<!-- Node1&#45;&gt;Node14 -->
<g id="edge13_Node000001_Node000014" class="edge">
<title>Node1&#45;&gt;Node14</title>
<g id="a_edge13_Node000001_Node000014"><a xlink:title=" ">
<path fill="none" stroke="#63b8ff" d="M1779.75,-57.81C1779.75,-49.59 1779.75,-40.84 1779.75,-33.63"/>
<polygon fill="#63b8ff" stroke="#63b8ff" points="1776.25,-57.74 1779.75,-67.74 1783.25,-57.74 1776.25,-57.74"/>
</a>
</g>
</g>
<!-- Node15 -->
<g id="Node000015" class="node">
<title>Node15</title>
<g id="a_Node000015"><a xlink:href="motor__process_8c.html" target="_top" xlink:title=" ">
<polygon fill="white" stroke="#666666" points="1974.75,-33.5 1856.75,-33.5 1856.75,0 1974.75,0 1974.75,-33.5"/>
<text xml:space="preserve" text-anchor="start" x="1864.75" y="-20" font-family="Helvetica,sans-Serif" font-size="10.00">source/motion/motor</text>
<text xml:space="preserve" text-anchor="middle" x="1915.75" y="-7.25" font-family="Helvetica,sans-Serif" font-size="10.00">/motor_process.c</text>
</a>
</g>
</g>
<!-- Node1&#45;&gt;Node15 -->
<g id="edge14_Node000001_Node000015" class="edge">
<title>Node1&#45;&gt;Node15</title>
<g id="a_edge14_Node000001_Node000015"><a xlink:title=" ">
<path fill="none" stroke="#63b8ff" d="M1822.58,-63.99C1842.27,-54.22 1865.24,-42.82 1883.44,-33.79"/>
<polygon fill="#63b8ff" stroke="#63b8ff" points="1821.08,-60.83 1813.68,-68.41 1824.19,-67.1 1821.08,-60.83"/>
</a>
</g>
</g>
<!-- Node16 -->
<g id="Node000016" class="node">
<title>Node16</title>
<g id="a_Node000016"><a xlink:href="motor__sync_8c.html" target="_top" xlink:title=" ">
<polygon fill="white" stroke="#666666" points="2110.75,-33.5 1992.75,-33.5 1992.75,0 2110.75,0 2110.75,-33.5"/>
<text xml:space="preserve" text-anchor="start" x="2000.75" y="-20" font-family="Helvetica,sans-Serif" font-size="10.00">source/motion/motor</text>
<text xml:space="preserve" text-anchor="middle" x="2051.75" y="-7.25" font-family="Helvetica,sans-Serif" font-size="10.00">/motor_sync.c</text>
</a>
</g>
</g>
<!-- Node1&#45;&gt;Node16 -->
<g id="edge15_Node000001_Node000016" class="edge">
<title>Node1&#45;&gt;Node16</title>
<g id="a_edge15_Node000001_Node000016"><a xlink:title=" ">
<path fill="none" stroke="#63b8ff" d="M1849.72,-67.89C1893.91,-56.92 1950.38,-42.91 1992.38,-32.48"/>
<polygon fill="#63b8ff" stroke="#63b8ff" points="1849.1,-64.43 1840.24,-70.24 1850.79,-71.23 1849.1,-64.43"/>
</a>
</g>
</g>
<!-- Node17 -->
<g id="Node000017" class="node">
<title>Node17</title>
<g id="a_Node000017"><a xlink:href="motor__tmc_8c.html" target="_top" xlink:title=" ">
<polygon fill="white" stroke="#666666" points="2246.75,-33.5 2128.75,-33.5 2128.75,0 2246.75,0 2246.75,-33.5"/>
<text xml:space="preserve" text-anchor="start" x="2136.75" y="-20" font-family="Helvetica,sans-Serif" font-size="10.00">source/motion/motor</text>
<text xml:space="preserve" text-anchor="middle" x="2187.75" y="-7.25" font-family="Helvetica,sans-Serif" font-size="10.00">/motor_tmc.c</text>
</a>
</g>
</g>
<!-- Node1&#45;&gt;Node17 -->
<g id="edge16_Node000001_Node000017" class="edge">
<title>Node1&#45;&gt;Node17</title>
<g id="a_edge16_Node000001_Node000017"><a xlink:title=" ">
<path fill="none" stroke="#63b8ff" d="M1849.78,-76.19C1918.71,-66.89 2026.85,-51.3 2119.75,-33.5 2122.61,-32.95 2125.52,-32.37 2128.47,-31.76"/>
<polygon fill="#63b8ff" stroke="#63b8ff" points="1849.59,-72.68 1840.15,-77.48 1850.52,-79.62 1849.59,-72.68"/>
</a>
</g>
</g>
<!-- Node18 -->
<g id="Node000018" class="node">
<title>Node18</title>
<g id="a_Node000018"><a xlink:href="step__core_8c.html" target="_top" xlink:title=" ">
<polygon fill="white" stroke="#666666" points="2390.5,-33.5 2265,-33.5 2265,0 2390.5,0 2390.5,-33.5"/>
<text xml:space="preserve" text-anchor="start" x="2273" y="-20" font-family="Helvetica,sans-Serif" font-size="10.00">source/motion/stepper</text>
<text xml:space="preserve" text-anchor="middle" x="2327.75" y="-7.25" font-family="Helvetica,sans-Serif" font-size="10.00">/step_core.c</text>
</a>
</g>
</g>
<!-- Node1&#45;&gt;Node18 -->
<g id="edge17_Node000001_Node000018" class="edge">
<title>Node1&#45;&gt;Node18</title>
<g id="a_edge17_Node000001_Node000018"><a xlink:title=" ">
<path fill="none" stroke="#63b8ff" d="M1849.89,-79.99C1943.02,-72.46 2112.42,-56.9 2255.75,-33.5 2258.65,-33.03 2261.62,-32.51 2264.61,-31.96"/>
<polygon fill="#63b8ff" stroke="#63b8ff" points="1849.85,-76.48 1840.16,-80.77 1850.4,-83.46 1849.85,-76.48"/>
</a>
</g>
</g>
<!-- Node19 -->
<g id="Node000019" class="node">
<title>Node19</title>
<g id="a_Node000019"><a xlink:href="step__process_8c.html" target="_top" xlink:title=" ">
<polygon fill="white" stroke="#666666" points="2534.5,-33.5 2409,-33.5 2409,0 2534.5,0 2534.5,-33.5"/>
<text xml:space="preserve" text-anchor="start" x="2417" y="-20" font-family="Helvetica,sans-Serif" font-size="10.00">source/motion/stepper</text>
<text xml:space="preserve" text-anchor="middle" x="2471.75" y="-7.25" font-family="Helvetica,sans-Serif" font-size="10.00">/step_process.c</text>
</a>
</g>
</g>
<!-- Node1&#45;&gt;Node19 -->
<g id="edge18_Node000001_Node000019" class="edge">
<title>Node1&#45;&gt;Node19</title>
<g id="a_edge18_Node000001_Node000019"><a xlink:title=" ">
<path fill="none" stroke="#63b8ff" d="M1850.05,-82.41C1965.38,-77.07 2201.74,-63.29 2399.75,-33.5 2402.66,-33.06 2405.63,-32.58 2408.62,-32.05"/>
<polygon fill="#63b8ff" stroke="#63b8ff" points="1849.95,-78.91 1840.12,-82.86 1850.27,-85.9 1849.95,-78.91"/>
</a>
</g>
</g>
<!-- Node20 -->
<g id="Node000020" class="node">
<title>Node20</title>
<g id="a_Node000020"><a xlink:href="step__profile_8c.html" target="_top" xlink:title=" ">
<polygon fill="white" stroke="#666666" points="2678.5,-33.5 2553,-33.5 2553,0 2678.5,0 2678.5,-33.5"/>
<text xml:space="preserve" text-anchor="start" x="2561" y="-20" font-family="Helvetica,sans-Serif" font-size="10.00">source/motion/stepper</text>
<text xml:space="preserve" text-anchor="middle" x="2615.75" y="-7.25" font-family="Helvetica,sans-Serif" font-size="10.00">/step_profile.c</text>
</a>
</g>
</g>
<!-- Node1&#45;&gt;Node20 -->
<g id="edge19_Node000001_Node000020" class="edge">
<title>Node1&#45;&gt;Node20</title>
<g id="a_edge19_Node000001_Node000020"><a xlink:title=" ">
<path fill="none" stroke="#63b8ff" d="M1849.89,-83.96C1984.87,-80.71 2289.89,-69.66 2543.75,-33.5 2546.66,-33.08 2549.63,-32.62 2552.63,-32.11"/>
<polygon fill="#63b8ff" stroke="#63b8ff" points="1849.95,-80.46 1840.04,-84.19 1850.12,-87.45 1849.95,-80.46"/>
</a>
</g>
</g>
<!-- Node21 -->
<g id="Node000021" class="node">
<title>Node21</title>
<g id="a_Node000021"><a xlink:href="step__timing_8c.html" target="_top" xlink:title=" ">
<polygon fill="white" stroke="#666666" points="2822.5,-33.5 2697,-33.5 2697,0 2822.5,0 2822.5,-33.5"/>
<text xml:space="preserve" text-anchor="start" x="2705" y="-20" font-family="Helvetica,sans-Serif" font-size="10.00">source/motion/stepper</text>
<text xml:space="preserve" text-anchor="middle" x="2759.75" y="-7.25" font-family="Helvetica,sans-Serif" font-size="10.00">/step_timing.c</text>
</a>
</g>
</g>
<!-- Node1&#45;&gt;Node21 -->
<g id="edge20_Node000001_Node000021" class="edge">
<title>Node1&#45;&gt;Node21</title>
<g id="a_edge20_Node000001_Node000021"><a xlink:title=" ">
<path fill="none" stroke="#63b8ff" d="M1849.81,-85.03C2002.68,-83.72 2377.37,-76.02 2687.75,-33.5 2690.67,-33.1 2693.64,-32.65 2696.64,-32.15"/>
<polygon fill="#63b8ff" stroke="#63b8ff" points="1850.24,-81.52 1840.27,-85.1 1850.29,-88.52 1850.24,-81.52"/>
</a>
</g>
</g>
<!-- Node22 -->
<g id="Node000022" class="node">
<title>Node22</title>
<g id="a_Node000022"><a xlink:href="motorCmd_8c.html" target="_top" xlink:title=" ">
<polygon fill="white" stroke="#666666" points="2951.38,-27.12 2840.12,-27.12 2840.12,-6.38 2951.38,-6.38 2951.38,-27.12"/>
<text xml:space="preserve" text-anchor="middle" x="2895.75" y="-13.62" font-family="Helvetica,sans-Serif" font-size="10.00">source/motorCmd.c</text>
</a>
</g>
</g>
<!-- Node1&#45;&gt;Node22 -->
<g id="edge21_Node000001_Node000022" class="edge">
<title>Node1&#45;&gt;Node22</title>
<g id="a_edge21_Node000001_Node000022"><a xlink:title=" ">
<path fill="none" stroke="#63b8ff" d="M1850.19,-83.55C2053.94,-78.36 2641.5,-61.32 2831.75,-33.5 2841.37,-32.09 2851.66,-29.88 2861.11,-27.56"/>
<polygon fill="#63b8ff" stroke="#63b8ff" points="1850.18,-80.05 1840.27,-83.8 1850.36,-87.05 1850.18,-80.05"/>
</a>
</g>
</g>
<!-- Node23 -->
<g id="Node000023" class="node">
<title>Node23</title>
<g id="a_Node000023"><a xlink:href="motor__test_8c.html" target="_top" xlink:title=" ">
<polygon fill="white" stroke="#666666" points="3082.12,-27.12 2969.38,-27.12 2969.38,-6.38 3082.12,-6.38 3082.12,-27.12"/>
<text xml:space="preserve" text-anchor="middle" x="3025.75" y="-13.62" font-family="Helvetica,sans-Serif" font-size="10.00">source/motor_test.c</text>
</a>
</g>
</g>
<!-- Node1&#45;&gt;Node23 -->
<g id="edge22_Node000001_Node000023" class="edge">
<title>Node1&#45;&gt;Node23</title>
<g id="a_edge22_Node000001_Node000023"><a xlink:title=" ">
<path fill="none" stroke="#63b8ff" d="M1850.01,-83.96C2070.07,-79.64 2744.28,-64.17 2960.75,-33.5 2970.52,-32.12 2980.97,-29.91 2990.57,-27.59"/>
<polygon fill="#63b8ff" stroke="#63b8ff" points="1850.08,-80.46 1840.15,-84.15 1850.21,-87.46 1850.08,-80.46"/>
</a>
</g>
</g>
<!-- Node24 -->
<g id="Node000024" class="node">
<title>Node24</title>
<g id="a_Node000024"><a xlink:href="statemachine_8c.html" target="_top" xlink:title=" ">
<polygon fill="white" stroke="#666666" points="3226.88,-27.12 3100.62,-27.12 3100.62,-6.38 3226.88,-6.38 3226.88,-27.12"/>
<text xml:space="preserve" text-anchor="middle" x="3163.75" y="-13.62" font-family="Helvetica,sans-Serif" font-size="10.00">source/statemachine.c</text>
</a>
</g>
</g>
<!-- Node1&#45;&gt;Node24 -->
<g id="edge23_Node000001_Node000024" class="edge">
<title>Node1&#45;&gt;Node24</title>
<g id="a_edge23_Node000001_Node000024"><a xlink:title=" ">
<path fill="none" stroke="#63b8ff" d="M1850.37,-84.07C2086.53,-79.89 2847.55,-64.3 3090.75,-33.5 3101.68,-32.12 3113.4,-29.91 3124.18,-27.59"/>
<polygon fill="#63b8ff" stroke="#63b8ff" points="1850.31,-80.57 1840.38,-84.25 1850.44,-87.57 1850.31,-80.57"/>
</a>
</g>
</g>
<!-- Node25 -->
<g id="Node000025" class="node">
<title>Node25</title>
<g id="a_Node000025"><a xlink:href="cmd__dispatch_8c.html" target="_top" xlink:title=" ">
<polygon fill="white" stroke="#666666" points="3358.5,-33.5 3245,-33.5 3245,0 3358.5,0 3358.5,-33.5"/>
<text xml:space="preserve" text-anchor="start" x="3253" y="-20" font-family="Helvetica,sans-Serif" font-size="10.00">source/task_helpers</text>
<text xml:space="preserve" text-anchor="middle" x="3301.75" y="-7.25" font-family="Helvetica,sans-Serif" font-size="10.00">/cmd_dispatch.c</text>
</a>
</g>
</g>
<!-- Node1&#45;&gt;Node25 -->
<g id="edge24_Node000001_Node000025" class="edge">
<title>Node1&#45;&gt;Node25</title>
<g id="a_edge24_Node000001_Node000025"><a xlink:title=" ">
<path fill="none" stroke="#63b8ff" d="M1850.03,-84.6C2102.52,-81.98 2963.14,-70.5 3235.75,-33.5 3238.67,-33.1 3241.65,-32.64 3244.64,-32.11"/>
<polygon fill="#63b8ff" stroke="#63b8ff" points="1850.3,-81.1 1840.34,-84.7 1850.37,-88.1 1850.3,-81.1"/>
</a>
</g>
</g>
<!-- Node26 -->
<g id="Node000026" class="node">
<title>Node26</title>
<g id="a_Node000026"><a xlink:href="cmd__handle_8c.html" target="_top" xlink:title=" ">
<polygon fill="white" stroke="#666666" points="3490.5,-33.5 3377,-33.5 3377,0 3490.5,0 3490.5,-33.5"/>
<text xml:space="preserve" text-anchor="start" x="3385" y="-20" font-family="Helvetica,sans-Serif" font-size="10.00">source/task_helpers</text>
<text xml:space="preserve" text-anchor="middle" x="3433.75" y="-7.25" font-family="Helvetica,sans-Serif" font-size="10.00">/cmd_handle.c</text>
</a>
</g>
</g>
<!-- Node1&#45;&gt;Node26 -->
<g id="edge25_Node000001_Node000026" class="edge">
<title>Node1&#45;&gt;Node26</title>
<g id="a_edge25_Node000001_Node000026"><a xlink:title=" ">
<path fill="none" stroke="#63b8ff" d="M1850.04,-84.84C2116.99,-83.01 3068.06,-73.72 3367.75,-33.5 3370.67,-33.11 3373.65,-32.64 3376.65,-32.12"/>
<polygon fill="#63b8ff" stroke="#63b8ff" points="1850.08,-81.34 1840.1,-84.91 1850.12,-88.34 1850.08,-81.34"/>
</a>
</g>
</g>
</g>
</svg>

<g id="navigator" transform="translate(0 0)" fill="#404254">
  <rect fill="#f2f5e9" fill-opacity="0.5" stroke="#606060" stroke-width=".5" x="0" y="0" width="60" height="60"/>
  <use id="zoomplus" xlink:href="#zoomPlus" x="17" y="9" onmousedown="handleZoom(evt,'in')"/>
  <use id="zoomminus" xlink:href="#zoomMin" x="42" y="9" onmousedown="handleZoom(evt,'out')"/>
  <use id="reset" xlink:href="#resetDef" x="30" y="36" onmousedown="handleReset()"/>
   <use id="arrowup" xlink:href="#arrowUp" x="0" y="0" onmousedown="handlePan(0,-1)"/>
  <use id="arrowright" xlink:href="#arrowRight" x="0" y="0" onmousedown="handlePan(1,0)"/>
  <use id="arrowdown" xlink:href="#arrowDown" x="0" y="0" onmousedown="handlePan(0,1)"/>
  <use id="arrowleft" xlink:href="#arrowLeft" x="0" y="0" onmousedown="handlePan(-1,0)"/>
</g>
<svg viewBox="0 0 15 15" width="100%" height="30px" preserveAspectRatio="xMaxYMin meet">
 <g id="arrow_out" transform="scale(0.3 0.3)">
  <a xlink:href="log_8h__dep__incl_org.svg" target="_base">
   <rect id="button" ry="5" rx="5" y="6" x="6" height="38" width="38"
        fill="#f2f5e9" fill-opacity="0.5" stroke="#606060" stroke-width="1.0"/>
   <path id="arrow"
     d="M 11.500037,31.436501 C 11.940474,20.09759 22.043105,11.32322 32.158766,21.979434 L 37.068811,17.246167 C 37.068811,17.246167 37.088388,32 37.088388,32 L 22.160133,31.978069 C 22.160133,31.978069 26.997745,27.140456 26.997745,27.140456 C 18.528582,18.264221 13.291696,25.230495 11.500037,31.436501 z"
     style="fill:#404040;"/>
  </a>
 </g>
</svg>

<style type='text/css'>
<![CDATA[
[data-mouse-over-selected='false'] { opacity: 0.7; }
[data-mouse-over-selected='true']  { opacity: 1.0; }
]]>
</style>
<script type="application/ecmascript"><![CDATA[
document.addEventListener('DOMContentLoaded', (event) => {
  highlightEdges();
  highlightAdjacentNodes();
});
]]></script>
</svg>
