<?xml version="1.0" encoding="UTF-8" standalone="no"?>
<!DOCTYPE svg PUBLIC "-//W3C//DTD SVG 1.1//EN"
 "http://www.w3.org/Graphics/SVG/1.1/DTD/svg11.dtd">
<!-- Generated by graphviz version 14.1.4 (0)
 -->
<!-- Title: source/log.h Pages: 1 -->
<svg width="3090pt" height="98pt"
 viewBox="0.00 0.00 3090.00 98.00" xmlns="http://www.w3.org/2000/svg" xmlns:xlink="http://www.w3.org/1999/xlink">
<g id="graph0" class="graph" transform="scale(1 1) rotate(0) translate(4 94.25)">
<title>source/log.h</title>
<!-- Node1 -->
<g id="Node000001" class="node">
<title>Node1</title>
<g id="a_Node000001"><a xlink:title=" ">
<polygon fill="#999999" stroke="#666666" points="1540.38,-90.25 1465.12,-90.25 1465.12,-69.5 1540.38,-69.5 1540.38,-90.25"/>
<text xml:space="preserve" text-anchor="middle" x="1502.75" y="-76.75" font-family="Helvetica,sans-Serif" font-size="10.00">source/log.h</text>
</a>
</g>
</g>
<!-- Node2 -->
<g id="Node000002" class="node">
<title>Node2</title>
<g id="a_Node000002"><a xlink:href="application_8c.html" target="_top" xlink:title=" ">
<polygon fill="white" stroke="#666666" points="113.5,-27.12 0,-27.12 0,-6.38 113.5,-6.38 113.5,-27.12"/>
<text xml:space="preserve" text-anchor="middle" x="56.75" y="-13.62" font-family="Helvetica,sans-Serif" font-size="10.00">source/application.c</text>
</a>
</g>
</g>
<!-- Node1&#45;&gt;Node2 -->
<g id="edge1_Node000001_Node000002" class="edge">
<title>Node1&#45;&gt;Node2</title>
<g id="a_edge1_Node000001_Node000002"><a xlink:title=" ">
<path fill="none" stroke="#63b8ff" d="M1453.17,-78.58C1238.45,-77.11 387.69,-69.1 122.75,-33.5 112.71,-32.15 101.97,-29.93 92.13,-27.58"/>
<polygon fill="#63b8ff" stroke="#63b8ff" points="1453.12,-82.08 1463.14,-78.65 1453.17,-75.08 1453.12,-82.08"/>
</a>
</g>
</g>
<!-- Node3 -->
<g id="Node000003" class="node">
<title>Node3</title>
<g id="a_Node000003"><a xlink:href="cli_8c.html" target="_top" xlink:title=" ">
<polygon fill="white" stroke="#666666" points="202.12,-27.12 131.38,-27.12 131.38,-6.38 202.12,-6.38 202.12,-27.12"/>
<text xml:space="preserve" text-anchor="middle" x="166.75" y="-13.62" font-family="Helvetica,sans-Serif" font-size="10.00">source/cli.c</text>
</a>
</g>
</g>
<!-- Node1&#45;&gt;Node3 -->
<g id="edge2_Node000001_Node000003" class="edge">
<title>Node1&#45;&gt;Node3</title>
<g id="a_edge2_Node000001_Node000003"><a xlink:title=" ">
<path fill="none" stroke="#63b8ff" d="M1453.56,-79.17C1247.8,-80.08 455.5,-80.42 210.75,-33.5 203.9,-32.19 196.68,-29.98 190.12,-27.62"/>
<polygon fill="#63b8ff" stroke="#63b8ff" points="1453.37,-82.67 1463.36,-79.12 1453.34,-75.67 1453.37,-82.67"/>
</a>
</g>
</g>
<!-- Node4 -->
<g id="Node000004" class="node">
<title>Node4</title>
<g id="a_Node000004"><a xlink:href="pca9555a_8c.html" target="_top" xlink:title=" ">
<polygon fill="white" stroke="#666666" points="349.75,-33.5 219.75,-33.5 219.75,0 349.75,0 349.75,-33.5"/>
<text xml:space="preserve" text-anchor="start" x="227.75" y="-20" font-family="Helvetica,sans-Serif" font-size="10.00">source/driver/pca9555a</text>
<text xml:space="preserve" text-anchor="middle" x="284.75" y="-7.25" font-family="Helvetica,sans-Serif" font-size="10.00">/pca9555a.c</text>
</a>
</g>
</g>
<!-- Node1&#45;&gt;Node4 -->
<g id="edge3_Node000001_Node000004" class="edge">
<title>Node1&#45;&gt;Node4</title>
<g id="a_edge3_Node000001_Node000004"><a xlink:title=" ">
<path fill="none" stroke="#63b8ff" d="M1453.53,-78.04C1263.22,-74.63 575.47,-60.66 358.75,-33.5 355.88,-33.14 352.96,-32.73 350.02,-32.27"/>
<polygon fill="#63b8ff" stroke="#63b8ff" points="1453.24,-81.53 1463.3,-78.21 1453.37,-74.53 1453.24,-81.53"/>
</a>
</g>
</g>
<!-- Node5 -->
<g id="Node000005" class="node">
<title>Node5</title>
<g id="a_Node000005"><a xlink:href="tmc2209__core_8c.html" target="_top" xlink:title=" ">
<polygon fill="white" stroke="#666666" points="493.5,-33.5 368,-33.5 368,0 493.5,0 493.5,-33.5"/>
<text xml:space="preserve" text-anchor="start" x="376" y="-20" font-family="Helvetica,sans-Serif" font-size="10.00">source/driver/tmc2209</text>
<text xml:space="preserve" text-anchor="middle" x="430.75" y="-7.25" font-family="Helvetica,sans-Serif" font-size="10.00">/tmc2209_core.c</text>
</a>
</g>
</g>
<!-- Node1&#45;&gt;Node5 -->
<g id="edge4_Node000001_Node000005" class="edge">
<title>Node1&#45;&gt;Node5</title>
<g id="a_edge4_Node000001_Node000005"><a xlink:title=" ">
<path fill="none" stroke="#63b8ff" d="M1453.25,-77.74C1278.31,-73.57 689.72,-58.01 502.75,-33.5 499.83,-33.12 496.86,-32.68 493.86,-32.19"/>
<polygon fill="#63b8ff" stroke="#63b8ff" points="1453.05,-81.24 1463.13,-77.98 1453.21,-74.24 1453.05,-81.24"/>
</a>
</g>
</g>
<!-- Node6 -->
<g id="Node000006" class="node">
<title>Node6</title>
<g id="a_Node000006"><a xlink:href="tmc2209__process_8c.html" target="_top" xlink:title=" ">
<polygon fill="white" stroke="#666666" points="637.5,-33.5 512,-33.5 512,0 637.5,0 637.5,-33.5"/>
<text xml:space="preserve" text-anchor="start" x="520" y="-20" font-family="Helvetica,sans-Serif" font-size="10.00">source/driver/tmc2209</text>
<text xml:space="preserve" text-anchor="middle" x="574.75" y="-7.25" font-family="Helvetica,sans-Serif" font-size="10.00">/tmc2209_process.c</text>
</a>
</g>
</g>
<!-- Node1&#45;&gt;Node6 -->
<g id="edge5_Node000001_Node000006" class="edge">
<title>Node1&#45;&gt;Node6</title>
<g id="a_edge5_Node000001_Node000006"><a xlink:title=" ">
<path fill="none" stroke="#63b8ff" d="M1453.77,-79.05C1322.43,-78.93 951.68,-74.66 646.75,-33.5 643.83,-33.11 640.86,-32.66 637.86,-32.16"/>
<polygon fill="#63b8ff" stroke="#63b8ff" points="1453.49,-82.55 1463.49,-79.05 1453.49,-75.55 1453.49,-82.55"/>
</a>
</g>
</g>
<!-- Node7 -->
<g id="Node000007" class="node">
<title>Node7</title>
<g id="a_Node000007"><a xlink:href="tmc2209__setup_8c.html" target="_top" xlink:title=" ">
<polygon fill="white" stroke="#666666" points="781.5,-33.5 656,-33.5 656,0 781.5,0 781.5,-33.5"/>
<text xml:space="preserve" text-anchor="start" x="664" y="-20" font-family="Helvetica,sans-Serif" font-size="10.00">source/driver/tmc2209</text>
<text xml:space="preserve" text-anchor="middle" x="718.75" y="-7.25" font-family="Helvetica,sans-Serif" font-size="10.00">/tmc2209_setup.c</text>
</a>
</g>
</g>
<!-- Node1&#45;&gt;Node7 -->
<g id="edge6_Node000001_Node000007" class="edge">
<title>Node1&#45;&gt;Node7</title>
<g id="a_edge6_Node000001_Node000007"><a xlink:title=" ">
<path fill="none" stroke="#63b8ff" d="M1453.42,-78.3C1337.33,-76.39 1038,-68.22 790.75,-33.5 787.84,-33.09 784.86,-32.63 781.87,-32.12"/>
<polygon fill="#63b8ff" stroke="#63b8ff" points="1453.16,-81.8 1463.21,-78.45 1453.27,-74.8 1453.16,-81.8"/>
</a>
</g>
</g>
<!-- Node8 -->
<g id="Node000008" class="node">
<title>Node8</title>
<g id="a_Node000008"><a xlink:href="tmc2209__uart_8c.html" target="_top" xlink:title=" ">
<polygon fill="white" stroke="#666666" points="925.5,-33.5 800,-33.5 800,0 925.5,0 925.5,-33.5"/>
<text xml:space="preserve" text-anchor="start" x="808" y="-20" font-family="Helvetica,sans-Serif" font-size="10.00">source/driver/tmc2209</text>
<text xml:space="preserve" text-anchor="middle" x="862.75" y="-7.25" font-family="Helvetica,sans-Serif" font-size="10.00">/tmc2209_uart.c</text>
</a>
</g>
</g>
<!-- Node1&#45;&gt;Node8 -->
<g id="edge7_Node000001_Node000008" class="edge">
<title>Node1&#45;&gt;Node8</title>
<g id="a_edge7_Node000001_Node000008"><a xlink:title=" ">
<path fill="none" stroke="#63b8ff" d="M1453.25,-77.18C1354.28,-73.29 1125.16,-61.8 934.75,-33.5 931.84,-33.07 928.87,-32.59 925.88,-32.07"/>
<polygon fill="#63b8ff" stroke="#63b8ff" points="1453.02,-80.67 1463.15,-77.56 1453.29,-73.68 1453.02,-80.67"/>
</a>
</g>
</g>
<!-- Node9 -->
<g id="Node000009" class="node">
<title>Node9</title>
<g id="a_Node000009"><a xlink:href="log_8c.html" target="_top" xlink:title=" ">
<polygon fill="white" stroke="#666666" points="1018,-27.12 943.5,-27.12 943.5,-6.38 1018,-6.38 1018,-27.12"/>
<text xml:space="preserve" text-anchor="middle" x="980.75" y="-13.62" font-family="Helvetica,sans-Serif" font-size="10.00">source/log.c</text>
</a>
</g>
</g>
<!-- Node1&#45;&gt;Node9 -->
<g id="edge8_Node000001_Node000009" class="edge">
<title>Node1&#45;&gt;Node9</title>
<g id="a_edge8_Node000001_Node000009"><a xlink:title=" ">
<path fill="none" stroke="#63b8ff" d="M1453.27,-77.97C1366.12,-75.53 1179.97,-66.55 1026.75,-33.5 1019.82,-32 1012.48,-29.8 1005.76,-27.5"/>
<polygon fill="#63b8ff" stroke="#63b8ff" points="1453.05,-81.46 1463.13,-78.23 1453.23,-74.47 1453.05,-81.46"/>
</a>
</g>
</g>
<!-- Node10 -->
<g id="Node000010" class="node">
<title>Node10</title>
<g id="a_Node000010"><a xlink:href="motor__core_8c.html" target="_top" xlink:title=" ">
<polygon fill="white" stroke="#666666" points="1153.75,-33.5 1035.75,-33.5 1035.75,0 1153.75,0 1153.75,-33.5"/>
<text xml:space="preserve" text-anchor="start" x="1043.75" y="-20" font-family="Helvetica,sans-Serif" font-size="10.00">source/motion/motor</text>
<text xml:space="preserve" text-anchor="middle" x="1094.75" y="-7.25" font-family="Helvetica,sans-Serif" font-size="10.00">/motor_core.c</text>
</a>
</g>
</g>
<!-- Node1&#45;&gt;Node10 -->
<g id="edge9_Node000001_Node000010" class="edge">
<title>Node1&#45;&gt;Node10</title>
<g id="a_edge9_Node000001_Node000010"><a xlink:title=" ">
<path fill="none" stroke="#63b8ff" d="M1453.5,-73.79C1387.16,-66.6 1265.55,-52.22 1162.75,-33.5 1159.89,-32.98 1156.97,-32.42 1154.02,-31.83"/>
<polygon fill="#63b8ff" stroke="#63b8ff" points="1453.01,-77.25 1463.33,-74.84 1453.76,-70.29 1453.01,-77.25"/>
</a>
</g>
</g>
<!-- Node11 -->
<g id="Node000011" class="node">
<title>Node11</title>
<g id="a_Node000011"><a xlink:href="motor__init_8c.html" target="_top" xlink:title=" ">
<polygon fill="white" stroke="#666666" points="1289.75,-33.5 1171.75,-33.5 1171.75,0 1289.75,0 1289.75,-33.5"/>
<text xml:space="preserve" text-anchor="start" x="1179.75" y="-20" font-family="Helvetica,sans-Serif" font-size="10.00">source/motion/motor</text>
<text xml:space="preserve" text-anchor="middle" x="1230.75" y="-7.25" font-family="Helvetica,sans-Serif" font-size="10.00">/motor_init.c</text>
</a>
</g>
</g>
<!-- Node1&#45;&gt;Node11 -->
<g id="edge10_Node000001_Node000011" class="edge">
<title>Node1&#45;&gt;Node11</title>
<g id="a_edge10_Node000001_Node000011"><a xlink:title=" ">
<path fill="none" stroke="#63b8ff" d="M1453.63,-68.08C1412.29,-58.96 1351.63,-45.5 1298.75,-33.5 1295.91,-32.86 1293.01,-32.19 1290.08,-31.52"/>
<polygon fill="#63b8ff" stroke="#63b8ff" points="1452.76,-71.47 1463.28,-70.2 1454.26,-64.63 1452.76,-71.47"/>
</a>
</g>
</g>
<!-- Node12 -->
<g id="Node000012" class="node">
<title>Node12</title>
<g id="a_Node000012"><a xlink:href="motor__motion_8c.html" target="_top" xlink:title=" ">
<polygon fill="white" stroke="#666666" points="1425.75,-33.5 1307.75,-33.5 1307.75,0 1425.75,0 1425.75,-33.5"/>
<text xml:space="preserve" text-anchor="start" x="1315.75" y="-20" font-family="Helvetica,sans-Serif" font-size="10.00">source/motion/motor</text>
<text xml:space="preserve" text-anchor="middle" x="1366.75" y="-7.25" font-family="Helvetica,sans-Serif" font-size="10.00">/motor_motion.c</text>
</a>
</g>
</g>
<!-- Node1&#45;&gt;Node12 -->
<g id="edge11_Node000001_Node000012" class="edge">
<title>Node1&#45;&gt;Node12</title>
<g id="a_edge11_Node000001_Node000012"><a xlink:title=" ">
<path fill="none" stroke="#63b8ff" d="M1470.58,-64.42C1450.24,-55.28 1423.92,-43.45 1402.87,-33.98"/>
<polygon fill="#63b8ff" stroke="#63b8ff" points="1468.96,-67.53 1479.52,-68.43 1471.83,-61.14 1468.96,-67.53"/>
</a>
</g>
</g>
<!-- Node13 -->
<g id="Node000013" class="node">
<title>Node13</title>
<g id="a_Node000013"><a xlink:href="motor__process_8c.html" target="_top" xlink:title=" ">
<polygon fill="white" stroke="#666666" points="1561.75,-33.5 1443.75,-33.5 1443.75,0 1561.75,0 1561.75,-33.5"/>
<text xml:space="preserve" text-anchor="start" x="1451.75" y="-20" font-family="Helvetica,sans-Serif" font-size="10.00">source/motion/motor</text>
<text xml:space="preserve" text-anchor="middle" x="1502.75" y="-7.25" font-family="Helvetica,sans-Serif" font-size="10.00">/motor_process.c</text>
</a>
</g>
</g>
<!-- Node1&#45;&gt;Node13 -->
<g id="edge12_Node000001_Node000013" class="edge">
<title>Node1&#45;&gt;Node13</title>
<g id="a_edge12_Node000001_Node000013"><a xlink:title=" ">
<path fill="none" stroke="#63b8ff" d="M1502.75,-57.59C1502.75,-49.85 1502.75,-41.22 1502.75,-33.98"/>
<polygon fill="#63b8ff" stroke="#63b8ff" points="1499.25,-57.54 1502.75,-67.54 1506.25,-57.54 1499.25,-57.54"/>
</a>
</g>
</g>
<!-- Node14 -->
<g id="Node000014" class="node">
<title>Node14</title>
<g id="a_Node000014"><a xlink:href="motor__sync_8c.html" target="_top" xlink:title=" ">
<polygon fill="white" stroke="#666666" points="1697.75,-33.5 1579.75,-33.5 1579.75,0 1697.75,0 1697.75,-33.5"/>
<text xml:space="preserve" text-anchor="start" x="1587.75" y="-20" font-family="Helvetica,sans-Serif" font-size="10.00">source/motion/motor</text>
<text xml:space="preserve" text-anchor="middle" x="1638.75" y="-7.25" font-family="Helvetica,sans-Serif" font-size="10.00">/motor_sync.c</text>
</a>
</g>
</g>
<!-- Node1&#45;&gt;Node14 -->
<g id="edge13_Node000001_Node000014" class="edge">
<title>Node1&#45;&gt;Node14</title>
<g id="a_edge13_Node000001_Node000014"><a xlink:title=" ">
<path fill="none" stroke="#63b8ff" d="M1534.92,-64.42C1555.26,-55.28 1581.58,-43.45 1602.63,-33.98"/>
<polygon fill="#63b8ff" stroke="#63b8ff" points="1533.67,-61.14 1525.98,-68.43 1536.54,-67.53 1533.67,-61.14"/>
</a>
</g>
</g>
<!-- Node15 -->
<g id="Node000015" class="node">
<title>Node15</title>
<g id="a_Node000015"><a xlink:href="motor__tmc_8c.html" target="_top" xlink:title=" ">
<polygon fill="white" stroke="#666666" points="1833.75,-33.5 1715.75,-33.5 1715.75,0 1833.75,0 1833.75,-33.5"/>
<text xml:space="preserve" text-anchor="start" x="1723.75" y="-20" font-family="Helvetica,sans-Serif" font-size="10.00">source/motion/motor</text>
<text xml:space="preserve" text-anchor="middle" x="1774.75" y="-7.25" font-family="Helvetica,sans-Serif" font-size="10.00">/motor_tmc.c</text>
</a>
</g>
</g>
<!-- Node1&#45;&gt;Node15 -->
<g id="edge14_Node000001_Node000015" class="edge">
<title>Node1&#45;&gt;Node15</title>
<g id="a_edge14_Node000001_Node000015"><a xlink:title=" ">
<path fill="none" stroke="#63b8ff" d="M1551.87,-68.08C1593.21,-58.96 1653.87,-45.5 1706.75,-33.5 1709.59,-32.86 1712.49,-32.19 1715.42,-31.52"/>
<polygon fill="#63b8ff" stroke="#63b8ff" points="1551.24,-64.63 1542.22,-70.2 1552.74,-71.47 1551.24,-64.63"/>
</a>
</g>
</g>
<!-- Node16 -->
<g id="Node000016" class="node">
<title>Node16</title>
<g id="a_Node000016"><a xlink:href="step__core_8c.html" target="_top" xlink:title=" ">
<polygon fill="white" stroke="#666666" points="1977.5,-33.5 1852,-33.5 1852,0 1977.5,0 1977.5,-33.5"/>
<text xml:space="preserve" text-anchor="start" x="1860" y="-20" font-family="Helvetica,sans-Serif" font-size="10.00">source/motion/stepper</text>
<text xml:space="preserve" text-anchor="middle" x="1914.75" y="-7.25" font-family="Helvetica,sans-Serif" font-size="10.00">/step_core.c</text>
</a>
</g>
</g>
<!-- Node1&#45;&gt;Node16 -->
<g id="edge15_Node000001_Node000016" class="edge">
<title>Node1&#45;&gt;Node16</title>
<g id="a_edge15_Node000001_Node000016"><a xlink:title=" ">
<path fill="none" stroke="#63b8ff" d="M1551.97,-73.6C1618.27,-66.2 1739.84,-51.59 1842.75,-33.5 1845.65,-32.99 1848.61,-32.45 1851.59,-31.88"/>
<polygon fill="#63b8ff" stroke="#63b8ff" points="1551.7,-70.11 1542.15,-74.69 1552.47,-77.07 1551.7,-70.11"/>
</a>
</g>
</g>
<!-- Node17 -->
<g id="Node000017" class="node">
<title>Node17</title>
<g id="a_Node000017"><a xlink:href="step__process_8c.html" target="_top" xlink:title=" ">
<polygon fill="white" stroke="#666666" points="2121.5,-33.5 1996,-33.5 1996,0 2121.5,0 2121.5,-33.5"/>
<text xml:space="preserve" text-anchor="start" x="2004" y="-20" font-family="Helvetica,sans-Serif" font-size="10.00">source/motion/stepper</text>
<text xml:space="preserve" text-anchor="middle" x="2058.75" y="-7.25" font-family="Helvetica,sans-Serif" font-size="10.00">/step_process.c</text>
</a>
</g>
</g>
<!-- Node1&#45;&gt;Node17 -->
<g id="edge16_Node000001_Node000017" class="edge">
<title>Node1&#45;&gt;Node17</title>
<g id="a_edge16_Node000001_Node000017"><a xlink:title=" ">
<path fill="none" stroke="#63b8ff" d="M1552.05,-76.24C1639.85,-71.11 1828.89,-58.07 1986.75,-33.5 1989.66,-33.05 1992.62,-32.55 1995.62,-32.02"/>
<polygon fill="#63b8ff" stroke="#63b8ff" points="1551.89,-72.75 1542.11,-76.81 1552.29,-79.74 1551.89,-72.75"/>
</a>
</g>
</g>
<!-- Node18 -->
<g id="Node000018" class="node">
<title>Node18</title>
<g id="a_Node000018"><a xlink:href="step__profile_8c.html" target="_top" xlink:title=" ">
<polygon fill="white" stroke="#666666" points="2265.5,-33.5 2140,-33.5 2140,0 2265.5,0 2265.5,-33.5"/>
<text xml:space="preserve" text-anchor="start" x="2148" y="-20" font-family="Helvetica,sans-Serif" font-size="10.00">source/motion/stepper</text>
<text xml:space="preserve" text-anchor="middle" x="2202.75" y="-7.25" font-family="Helvetica,sans-Serif" font-size="10.00">/step_profile.c</text>
</a>
</g>
</g>
<!-- Node1&#45;&gt;Node18 -->
<g id="edge17_Node000001_Node000018" class="edge">
<title>Node1&#45;&gt;Node18</title>
<g id="a_edge17_Node000001_Node000018"><a xlink:title=" ">
<path fill="none" stroke="#63b8ff" d="M1552.13,-77.71C1658.45,-74.68 1916.72,-64.48 2130.75,-33.5 2133.66,-33.08 2136.63,-32.61 2139.63,-32.09"/>
<polygon fill="#63b8ff" stroke="#63b8ff" points="1552.24,-74.21 1542.34,-77.98 1552.43,-81.2 1552.24,-74.21"/>
</a>
</g>
</g>
<!-- Node19 -->
<g id="Node000019" class="node">
<title>Node19</title>
<g id="a_Node000019"><a xlink:href="step__timing_8c.html" target="_top" xlink:title=" ">
<polygon fill="white" stroke="#666666" points="2409.5,-33.5 2284,-33.5 2284,0 2409.5,0 2409.5,-33.5"/>
<text xml:space="preserve" text-anchor="start" x="2292" y="-20" font-family="Helvetica,sans-Serif" font-size="10.00">source/motion/stepper</text>
<text xml:space="preserve" text-anchor="middle" x="2346.75" y="-7.25" font-family="Helvetica,sans-Serif" font-size="10.00">/step_timing.c</text>
</a>
</g>
</g>
<!-- Node1&#45;&gt;Node19 -->
<g id="edge18_Node000001_Node000019" class="edge">
<title>Node1&#45;&gt;Node19</title>
<g id="a_edge18_Node000001_Node000019"><a xlink:title=" ">
<path fill="none" stroke="#63b8ff" d="M1551.92,-78.65C1674.55,-77.51 2003.53,-70.9 2274.75,-33.5 2277.67,-33.1 2280.64,-32.64 2283.63,-32.14"/>
<polygon fill="#63b8ff" stroke="#63b8ff" points="1552.19,-75.15 1542.22,-78.73 1552.25,-82.15 1552.19,-75.15"/>
</a>
</g>
</g>
<!-- Node20 -->
<g id="Node000020" class="node">
<title>Node20</title>
<g id="a_Node000020"><a xlink:href="motorCmd_8c.html" target="_top" xlink:title=" ">
<polygon fill="white" stroke="#666666" points="2538.38,-27.12 2427.12,-27.12 2427.12,-6.38 2538.38,-6.38 2538.38,-27.12"/>
<text xml:space="preserve" text-anchor="middle" x="2482.75" y="-13.62" font-family="Helvetica,sans-Serif" font-size="10.00">source/motorCmd.c</text>
</a>
</g>
</g>
<!-- Node1&#45;&gt;Node20 -->
<g id="edge19_Node000001_Node000020" class="edge">
<title>Node1&#45;&gt;Node20</title>
<g id="a_edge19_Node000001_Node000020"><a xlink:title=" ">
<path fill="none" stroke="#63b8ff" d="M1551.91,-77.68C1716.77,-73.49 2249.13,-58.34 2418.75,-33.5 2428.37,-32.09 2438.66,-29.88 2448.11,-27.56"/>
<polygon fill="#63b8ff" stroke="#63b8ff" points="1552.11,-74.18 1542.2,-77.93 1552.29,-81.18 1552.11,-74.18"/>
</a>
</g>
</g>
<!-- Node21 -->
<g id="Node000021" class="node">
<title>Node21</title>
<g id="a_Node000021"><a xlink:href="motor__homing_8c.html" target="_top" xlink:title=" ">
<polygon fill="white" stroke="#666666" points="2687.12,-27.12 2556.38,-27.12 2556.38,-6.38 2687.12,-6.38 2687.12,-27.12"/>
<text xml:space="preserve" text-anchor="middle" x="2621.75" y="-13.62" font-family="Helvetica,sans-Serif" font-size="10.00">source/motor_homing.c</text>
</a>
</g>
</g>
<!-- Node1&#45;&gt;Node21 -->
<g id="edge20_Node000001_Node000021" class="edge">
<title>Node1&#45;&gt;Node21</title>
<g id="a_edge20_Node000001_Node000021"><a xlink:title=" ">
<path fill="none" stroke="#63b8ff" d="M1552.07,-77.82C1731.79,-73.82 2351.41,-58.48 2547.75,-33.5 2558.83,-32.09 2570.7,-29.88 2581.63,-27.56"/>
<polygon fill="#63b8ff" stroke="#63b8ff" points="1552.06,-74.32 1542.14,-78.04 1552.22,-81.32 1552.06,-74.32"/>
</a>
</g>
</g>
<!-- Node22 -->
<g id="Node000022" class="node">
<title>Node22</title>
<g id="a_Node000022"><a xlink:href="motor__test_8c.html" target="_top" xlink:title=" ">
<polygon fill="white" stroke="#666666" points="2818.12,-27.12 2705.38,-27.12 2705.38,-6.38 2818.12,-6.38 2818.12,-27.12"/>
<text xml:space="preserve" text-anchor="middle" x="2761.75" y="-13.62" font-family="Helvetica,sans-Serif" font-size="10.00">source/motor_test.c</text>
</a>
</g>
</g>
<!-- Node1&#45;&gt;Node22 -->
<g id="edge21_Node000001_Node000022" class="edge">
<title>Node1&#45;&gt;Node22</title>
<g id="a_edge21_Node000001_Node000022"><a xlink:title=" ">
<path fill="none" stroke="#63b8ff" d="M1552.16,-78.29C1747.92,-75.76 2469.36,-64.51 2695.75,-33.5 2705.67,-32.14 2716.28,-29.95 2726.03,-27.62"/>
<polygon fill="#63b8ff" stroke="#63b8ff" points="1552.3,-74.79 1542.35,-78.41 1552.39,-81.79 1552.3,-74.79"/>
</a>
</g>
</g>
<!-- Node23 -->
<g id="Node000023" class="node">
<title>Node23</title>
<g id="a_Node000023"><a xlink:href="cmd__dispatch_8c.html" target="_top" xlink:title=" ">
<polygon fill="white" stroke="#666666" points="2949.5,-33.5 2836,-33.5 2836,0 2949.5,0 2949.5,-33.5"/>
<text xml:space="preserve" text-anchor="start" x="2844" y="-20" font-family="Helvetica,sans-Serif" font-size="10.00">source/task_helpers</text>
<text xml:space="preserve" text-anchor="middle" x="2892.75" y="-7.25" font-family="Helvetica,sans-Serif" font-size="10.00">/cmd_dispatch.c</text>
</a>
</g>
</g>
<!-- Node1&#45;&gt;Node23 -->
<g id="edge22_Node000001_Node000023" class="edge">
<title>Node1&#45;&gt;Node23</title>
<g id="a_edge22_Node000001_Node000023"><a xlink:title=" ">
<path fill="none" stroke="#63b8ff" d="M1552.34,-78.5C1761.62,-76.72 2573.4,-67.72 2826.75,-33.5 2829.67,-33.11 2832.65,-32.64 2835.64,-32.12"/>
<polygon fill="#63b8ff" stroke="#63b8ff" points="1552.33,-75 1542.36,-78.59 1552.39,-82 1552.33,-75"/>
</a>
</g>
</g>
<!-- Node24 -->
<g id="Node000024" class="node">
<title>Node24</title>
<g id="a_Node000024"><a xlink:href="cmd__handle_8c.html" target="_top" xlink:title=" ">
<polygon fill="white" stroke="#666666" points="3081.5,-33.5 2968,-33.5 2968,0 3081.5,0 3081.5,-33.5"/>
<text xml:space="preserve" text-anchor="start" x="2976" y="-20" font-family="Helvetica,sans-Serif" font-size="10.00">source/task_helpers</text>
<text xml:space="preserve" text-anchor="middle" x="3024.75" y="-7.25" font-family="Helvetica,sans-Serif" font-size="10.00">/cmd_handle.c</text>
</a>
</g>
</g>
<!-- Node1&#45;&gt;Node24 -->
<g id="edge23_Node000001_Node000024" class="edge">
<title>Node1&#45;&gt;Node24</title>
<g id="a_edge23_Node000001_Node000024"><a xlink:title=" ">
<path fill="none" stroke="#63b8ff" d="M1551.81,-78.68C1772.88,-77.62 2677.85,-71 2958.75,-33.5 2961.67,-33.11 2964.65,-32.65 2967.65,-32.13"/>
<polygon fill="#63b8ff" stroke="#63b8ff" points="1552.11,-75.18 1542.12,-78.73 1552.14,-82.18 1552.11,-75.18"/>
</a>
</g>
</g>
</g>
</svg>
