<?xml version="1.0" encoding="UTF-8" standalone="no"?>
<!DOCTYPE svg PUBLIC "-//W3C//DTD SVG 1.1//EN"
 "http://www.w3.org/Graphics/SVG/1.1/DTD/svg11.dtd">
<!-- Generated by graphviz version 14.1.5 (0)
 -->
<!-- Title: source/infrastructure/log.c Pages: 1 -->
<svg width="934pt" height="168pt"
 viewBox="0.00 0.00 934.00 168.00" xmlns="http://www.w3.org/2000/svg" xmlns:xlink="http://www.w3.org/1999/xlink">
<g id="graph0" class="graph" transform="scale(1 1) rotate(0) translate(4 163.75)">
<title>source/infrastructure/log.c</title>
<!-- Node1 -->
<g id="Node000001" class="node">
<title>Node1</title>
<g id="a_Node000001"><a xlink:title=" ">
<polygon fill="#999999" stroke="#666666" points="488.24,-159.75 370.99,-159.75 370.99,-126.25 488.24,-126.25 488.24,-159.75"/>
<text xml:space="preserve" text-anchor="start" x="378.99" y="-146.25" font-family="Helvetica,sans-Serif" font-size="10.00">source/infrastructure</text>
<text xml:space="preserve" text-anchor="middle" x="429.61" y="-133.5" font-family="Helvetica,sans-Serif" font-size="10.00">/log.c</text>
</a>
</g>
</g>
<!-- Node2 -->
<g id="Node000002" class="node">
<title>Node2</title>
<g id="a_Node000002"><a xlink:href="cli_8h.html" target="_top" xlink:title=" ">
<polygon fill="white" stroke="#666666" points="401.24,-83.88 295.99,-83.88 295.99,-63.12 401.24,-63.12 401.24,-83.88"/>
<text xml:space="preserve" text-anchor="middle" x="348.61" y="-70.38" font-family="Helvetica,sans-Serif" font-size="10.00">infrastructure/cli.h</text>
</a>
</g>
</g>
<!-- Node1&#45;&gt;Node2 -->
<g id="edge1_Node000001_Node000002" class="edge">
<title>Node1&#45;&gt;Node2</title>
<g id="a_edge1_Node000001_Node000002"><a xlink:title=" ">
<path fill="none" stroke="#63b8ff" d="M410.42,-126C397.92,-115.59 381.64,-102.02 368.92,-91.42"/>
<polygon fill="#63b8ff" stroke="#63b8ff" points="371.49,-89 361.56,-85.29 367,-94.38 371.49,-89"/>
</a>
</g>
</g>
<!-- Node3 -->
<g id="Node000003" class="node">
<title>Node3</title>
<g id="a_Node000003"><a xlink:title=" ">
<polygon fill="#e0e0e0" stroke="#999999" points="118.36,-20.75 46.86,-20.75 46.86,0 118.36,0 118.36,-20.75"/>
<text xml:space="preserve" text-anchor="middle" x="82.61" y="-7.25" font-family="Helvetica,sans-Serif" font-size="10.00">FreeRTOS.h</text>
</a>
</g>
</g>
<!-- Node1&#45;&gt;Node3 -->
<g id="edge16_Node000001_Node000003" class="edge">
<title>Node1&#45;&gt;Node3</title>
<g id="a_edge16_Node000001_Node000003"><a xlink:title=" ">
<path fill="none" stroke="#63b8ff" d="M370.53,-139.04C259.87,-132.9 30.34,-117.05 6.61,-90.25 -3.25,-79.1 -0.74,-69.7 6.61,-56.75 14.35,-43.12 27.99,-33.15 41.6,-26.08"/>
<polygon fill="#63b8ff" stroke="#63b8ff" points="42.97,-29.3 50.53,-21.88 39.99,-22.97 42.97,-29.3"/>
</a>
</g>
</g>
<!-- Node4 -->
<g id="Node000004" class="node">
<title>Node4</title>
<g id="a_Node000004"><a xlink:title=" ">
<polygon fill="#e0e0e0" stroke="#999999" points="331.49,-20.75 239.74,-20.75 239.74,0 331.49,0 331.49,-20.75"/>
<text xml:space="preserve" text-anchor="middle" x="285.61" y="-7.25" font-family="Helvetica,sans-Serif" font-size="10.00">FreeRTOS_CLI.h</text>
</a>
</g>
</g>
<!-- Node1&#45;&gt;Node4 -->
<g id="edge17_Node000001_Node000004" class="edge">
<title>Node1&#45;&gt;Node4</title>
<g id="a_edge17_Node000001_Node000004"><a xlink:title=" ">
<path fill="none" stroke="#63b8ff" d="M370.63,-136.34C340.28,-130.11 305.74,-117.15 286.61,-90.25 274.74,-73.55 276.41,-49.41 279.84,-32.25"/>
<polygon fill="#63b8ff" stroke="#63b8ff" points="283.21,-33.2 282.13,-22.66 276.4,-31.57 283.21,-33.2"/>
</a>
</g>
</g>
<!-- Node5 -->
<g id="Node000005" class="node">
<title>Node5</title>
<g id="a_Node000005"><a xlink:title=" ">
<polygon fill="#e0e0e0" stroke="#999999" points="430.49,-20.75 350.74,-20.75 350.74,0 430.49,0 430.49,-20.75"/>
<text xml:space="preserve" text-anchor="middle" x="390.61" y="-7.25" font-family="Helvetica,sans-Serif" font-size="10.00">peripherals.h</text>
</a>
</g>
</g>
<!-- Node1&#45;&gt;Node5 -->
<g id="edge19_Node000001_Node000005" class="edge">
<title>Node1&#45;&gt;Node5</title>
<g id="a_edge19_Node000001_Node000005"><a xlink:title=" ">
<path fill="none" stroke="#63b8ff" d="M427.02,-126.04C423.99,-108.72 418.37,-80.38 410.61,-56.75 407.84,-48.29 404.04,-39.25 400.49,-31.49"/>
<polygon fill="#63b8ff" stroke="#63b8ff" points="403.73,-30.15 396.29,-22.61 397.41,-33.15 403.73,-30.15"/>
</a>
</g>
</g>
<!-- Node6 -->
<g id="Node000006" class="node">
<title>Node6</title>
<g id="a_Node000006"><a xlink:href="cli__utilities_8h.html" target="_top" xlink:title=" ">
<polygon fill="white" stroke="#666666" points="239.74,-90.25 143.49,-90.25 143.49,-56.75 239.74,-56.75 239.74,-90.25"/>
<text xml:space="preserve" text-anchor="start" x="151.49" y="-76.75" font-family="Helvetica,sans-Serif" font-size="10.00">infrastructure/cli</text>
<text xml:space="preserve" text-anchor="middle" x="191.61" y="-64" font-family="Helvetica,sans-Serif" font-size="10.00">_utilities.h</text>
</a>
</g>
</g>
<!-- Node1&#45;&gt;Node6 -->
<g id="edge5_Node000001_Node000006" class="edge">
<title>Node1&#45;&gt;Node6</title>
<g id="a_edge5_Node000001_Node000006"><a xlink:title=" ">
<path fill="none" stroke="#63b8ff" d="M372.61,-125.83C335.81,-115.4 288.04,-101.85 250.81,-91.29"/>
<polygon fill="#63b8ff" stroke="#63b8ff" points="252.15,-88.03 241.58,-88.67 250.24,-94.77 252.15,-88.03"/>
</a>
</g>
</g>
<!-- Node8 -->
<g id="Node000008" class="node">
<title>Node8</title>
<g id="a_Node000008"><a xlink:href="disk_8h.html" target="_top" xlink:title=" ">
<polygon fill="white" stroke="#666666" points="571.74,-83.88 457.49,-83.88 457.49,-63.12 571.74,-63.12 571.74,-83.88"/>
<text xml:space="preserve" text-anchor="middle" x="514.61" y="-70.38" font-family="Helvetica,sans-Serif" font-size="10.00">infrastructure/disk.h</text>
</a>
</g>
</g>
<!-- Node1&#45;&gt;Node8 -->
<g id="edge9_Node000001_Node000008" class="edge">
<title>Node1&#45;&gt;Node8</title>
<g id="a_edge9_Node000001_Node000008"><a xlink:title=" ">
<path fill="none" stroke="#63b8ff" d="M449.76,-126C462.87,-115.59 479.96,-102.02 493.3,-91.42"/>
<polygon fill="#63b8ff" stroke="#63b8ff" points="495.41,-94.22 501.06,-85.26 491.05,-88.74 495.41,-94.22"/>
</a>
</g>
</g>
<!-- Node11 -->
<g id="Node000011" class="node">
<title>Node11</title>
<g id="a_Node000011"><a xlink:href="log_8h.html" target="_top" xlink:title=" ">
<polygon fill="white" stroke="#666666" points="125.11,-83.88 16.11,-83.88 16.11,-63.12 125.11,-63.12 125.11,-83.88"/>
<text xml:space="preserve" text-anchor="middle" x="70.61" y="-70.38" font-family="Helvetica,sans-Serif" font-size="10.00">infrastructure/log.h</text>
</a>
</g>
</g>
<!-- Node1&#45;&gt;Node11 -->
<g id="edge13_Node000001_Node000011" class="edge">
<title>Node1&#45;&gt;Node11</title>
<g id="a_edge13_Node000001_Node000011"><a xlink:title=" ">
<path fill="none" stroke="#63b8ff" d="M370.62,-132.86C310.91,-123.32 216.03,-107.39 134.61,-90.25 129.76,-89.23 124.71,-88.1 119.68,-86.93"/>
<polygon fill="#63b8ff" stroke="#63b8ff" points="120.77,-83.59 110.23,-84.69 119.15,-90.4 120.77,-83.59"/>
</a>
</g>
</g>
<!-- Node12 -->
<g id="Node000012" class="node">
<title>Node12</title>
<g id="a_Node000012"><a xlink:title=" ">
<polygon fill="#e0e0e0" stroke="#999999" points="681.11,-83.88 590.11,-83.88 590.11,-63.12 681.11,-63.12 681.11,-83.88"/>
<text xml:space="preserve" text-anchor="middle" x="635.61" y="-70.38" font-family="Helvetica,sans-Serif" font-size="10.00">event_groups.h</text>
</a>
</g>
</g>
<!-- Node1&#45;&gt;Node12 -->
<g id="edge18_Node000001_Node000012" class="edge">
<title>Node1&#45;&gt;Node12</title>
<g id="a_edge18_Node000001_Node000012"><a xlink:title=" ">
<path fill="none" stroke="#63b8ff" d="M478.96,-125.83C514.35,-114.23 561.48,-98.79 594.77,-87.88"/>
<polygon fill="#63b8ff" stroke="#63b8ff" points="595.64,-91.28 604.06,-84.84 593.46,-84.63 595.64,-91.28"/>
</a>
</g>
</g>
<!-- Node13 -->
<g id="Node000013" class="node">
<title>Node13</title>
<g id="a_Node000013"><a xlink:title=" ">
<polygon fill="#e0e0e0" stroke="#999999" points="754.11,-83.88 699.11,-83.88 699.11,-63.12 754.11,-63.12 754.11,-83.88"/>
<text xml:space="preserve" text-anchor="middle" x="726.61" y="-70.38" font-family="Helvetica,sans-Serif" font-size="10.00">queue.h</text>
</a>
</g>
</g>
<!-- Node1&#45;&gt;Node13 -->
<g id="edge20_Node000001_Node000013" class="edge">
<title>Node1&#45;&gt;Node13</title>
<g id="a_edge20_Node000001_Node000013"><a xlink:title=" ">
<path fill="none" stroke="#63b8ff" d="M488.57,-134.04C542.08,-125.95 622.74,-111.55 690.61,-90.25 692.4,-89.69 694.22,-89.07 696.05,-88.4"/>
<polygon fill="#63b8ff" stroke="#63b8ff" points="696.96,-91.81 704.94,-84.84 694.36,-85.31 696.96,-91.81"/>
</a>
</g>
</g>
<!-- Node14 -->
<g id="Node000014" class="node">
<title>Node14</title>
<g id="a_Node000014"><a xlink:title=" ">
<polygon fill="#e0e0e0" stroke="#999999" points="821.11,-83.88 772.11,-83.88 772.11,-63.12 821.11,-63.12 821.11,-83.88"/>
<text xml:space="preserve" text-anchor="middle" x="796.61" y="-70.38" font-family="Helvetica,sans-Serif" font-size="10.00">stdio.h</text>
</a>
</g>
</g>
<!-- Node1&#45;&gt;Node14 -->
<g id="edge21_Node000001_Node000014" class="edge">
<title>Node1&#45;&gt;Node14</title>
<g id="a_edge21_Node000001_Node000014"><a xlink:title=" ">
<path fill="none" stroke="#63b8ff" d="M488.7,-138.07C556.38,-132.38 669.98,-119.16 763.61,-90.25 765.17,-89.77 766.74,-89.23 768.32,-88.64"/>
<polygon fill="#63b8ff" stroke="#63b8ff" points="769.27,-92.04 777.1,-84.9 766.53,-85.6 769.27,-92.04"/>
</a>
</g>
</g>
<!-- Node15 -->
<g id="Node000015" class="node">
<title>Node15</title>
<g id="a_Node000015"><a xlink:title=" ">
<polygon fill="#e0e0e0" stroke="#999999" points="926.24,-83.88 838.99,-83.88 838.99,-63.12 926.24,-63.12 926.24,-83.88"/>
<text xml:space="preserve" text-anchor="middle" x="882.61" y="-70.38" font-family="Helvetica,sans-Serif" font-size="10.00">SEGGER_RTT.h</text>
</a>
</g>
</g>
<!-- Node1&#45;&gt;Node15 -->
<g id="edge22_Node000001_Node000015" class="edge">
<title>Node1&#45;&gt;Node15</title>
<g id="a_edge22_Node000001_Node000015"><a xlink:title=" ">
<path fill="none" stroke="#63b8ff" d="M488.57,-137.47C567.22,-130.73 710.5,-116 830.61,-90.25 834.42,-89.43 838.35,-88.47 842.26,-87.43"/>
<polygon fill="#63b8ff" stroke="#63b8ff" points="843.01,-90.86 851.68,-84.77 841.11,-84.12 843.01,-90.86"/>
</a>
</g>
</g>
<!-- Node2&#45;&gt;Node3 -->
<g id="edge2_Node000002_Node000003" class="edge">
<title>Node2&#45;&gt;Node3</title>
<g id="a_edge2_Node000002_Node000003"><a xlink:title=" ">
<path fill="none" stroke="#63b8ff" d="M305.88,-62.68C257.78,-51.63 179.87,-33.72 129.96,-22.26"/>
<polygon fill="#63b8ff" stroke="#63b8ff" points="130.84,-18.87 120.31,-20.04 129.27,-25.69 130.84,-18.87"/>
</a>
</g>
</g>
<!-- Node2&#45;&gt;Node4 -->
<g id="edge3_Node000002_Node000004" class="edge">
<title>Node2&#45;&gt;Node4</title>
<g id="a_edge3_Node000002_Node000004"><a xlink:title=" ">
<path fill="none" stroke="#63b8ff" d="M338.49,-62.68C329.07,-53.54 314.81,-39.7 303.47,-28.7"/>
<polygon fill="#63b8ff" stroke="#63b8ff" points="306.2,-26.48 296.59,-22.02 301.33,-31.5 306.2,-26.48"/>
</a>
</g>
</g>
<!-- Node2&#45;&gt;Node5 -->
<g id="edge4_Node000002_Node000005" class="edge">
<title>Node2&#45;&gt;Node5</title>
<g id="a_edge4_Node000002_Node000005"><a xlink:title=" ">
<path fill="none" stroke="#63b8ff" d="M355.36,-62.68C361.34,-53.98 370.23,-41.05 377.58,-30.34"/>
<polygon fill="#63b8ff" stroke="#63b8ff" points="380.39,-32.44 383.16,-22.22 374.62,-28.48 380.39,-32.44"/>
</a>
</g>
</g>
<!-- Node6&#45;&gt;Node3 -->
<g id="edge6_Node000006_Node000003" class="edge">
<title>Node6&#45;&gt;Node3</title>
<g id="a_edge6_Node000006_Node000003"><a xlink:title=" ">
<path fill="none" stroke="#63b8ff" d="M162.69,-56.28C146.34,-47.11 126.02,-35.72 109.94,-26.7"/>
<polygon fill="#63b8ff" stroke="#63b8ff" points="111.83,-23.74 101.39,-21.91 108.4,-29.85 111.83,-23.74"/>
</a>
</g>
</g>
<!-- Node6&#45;&gt;Node4 -->
<g id="edge7_Node000006_Node000004" class="edge">
<title>Node6&#45;&gt;Node4</title>
<g id="a_edge7_Node000006_Node000004"><a xlink:title=" ">
<path fill="none" stroke="#63b8ff" d="M216.31,-56.44C230.14,-47.45 247.33,-36.27 261.13,-27.3"/>
<polygon fill="#63b8ff" stroke="#63b8ff" points="262.73,-30.43 269.21,-22.04 258.92,-24.56 262.73,-30.43"/>
</a>
</g>
</g>
<!-- Node7 -->
<g id="Node000007" class="node">
<title>Node7</title>
<g id="a_Node000007"><a xlink:title=" ">
<polygon fill="#e0e0e0" stroke="#999999" points="222.11,-20.75 137.11,-20.75 137.11,0 222.11,0 222.11,-20.75"/>
<text xml:space="preserve" text-anchor="middle" x="179.61" y="-7.25" font-family="Helvetica,sans-Serif" font-size="10.00">fsl_common.h</text>
</a>
</g>
</g>
<!-- Node6&#45;&gt;Node7 -->
<g id="edge8_Node000006_Node000007" class="edge">
<title>Node6&#45;&gt;Node7</title>
<g id="a_edge8_Node000006_Node000007"><a xlink:title=" ">
<path fill="none" stroke="#63b8ff" d="M188.46,-56.44C187.02,-49.1 185.3,-40.32 183.75,-32.46"/>
<polygon fill="#63b8ff" stroke="#63b8ff" points="187.2,-31.84 181.84,-22.7 180.33,-33.19 187.2,-31.84"/>
</a>
</g>
</g>
<!-- Node8&#45;&gt;Node7 -->
<g id="edge11_Node000008_Node000007" class="edge">
<title>Node8&#45;&gt;Node7</title>
<g id="a_edge11_Node000008_Node000007"><a xlink:title=" ">
<path fill="none" stroke="#63b8ff" d="M460.43,-62.65C405.68,-52.7 318.32,-36.79 233.59,-21.29"/>
<polygon fill="#63b8ff" stroke="#63b8ff" points="234.42,-17.89 223.95,-19.53 233.16,-24.77 234.42,-17.89"/>
</a>
</g>
</g>
<!-- Node9 -->
<g id="Node000009" class="node">
<title>Node9</title>
<g id="a_Node000009"><a xlink:title=" ">
<polygon fill="#e0e0e0" stroke="#999999" points="480.49,-20.75 448.74,-20.75 448.74,0 480.49,0 480.49,-20.75"/>
<text xml:space="preserve" text-anchor="middle" x="464.61" y="-7.25" font-family="Helvetica,sans-Serif" font-size="10.00">ff.h</text>
</a>
</g>
</g>
<!-- Node8&#45;&gt;Node9 -->
<g id="edge10_Node000008_Node000009" class="edge">
<title>Node8&#45;&gt;Node9</title>
<g id="a_edge10_Node000008_Node000009"><a xlink:title=" ">
<path fill="none" stroke="#63b8ff" d="M506.58,-62.68C499.32,-53.8 488.45,-40.51 479.59,-29.68"/>
<polygon fill="#63b8ff" stroke="#63b8ff" points="482.46,-27.67 473.42,-22.14 477.04,-32.1 482.46,-27.67"/>
</a>
</g>
</g>
<!-- Node10 -->
<g id="Node000010" class="node">
<title>Node10</title>
<g id="a_Node000010"><a xlink:title=" ">
<polygon fill="#e0e0e0" stroke="#999999" points="552.74,-20.75 498.49,-20.75 498.49,0 552.74,0 552.74,-20.75"/>
<text xml:space="preserve" text-anchor="middle" x="525.61" y="-7.25" font-family="Helvetica,sans-Serif" font-size="10.00">diskio.h</text>
</a>
</g>
</g>
<!-- Node8&#45;&gt;Node10 -->
<g id="edge12_Node000008_Node000010" class="edge">
<title>Node8&#45;&gt;Node10</title>
<g id="a_edge12_Node000008_Node000010"><a xlink:title=" ">
<path fill="none" stroke="#63b8ff" d="M516.38,-62.68C517.87,-54.43 520.04,-42.37 521.9,-32.01"/>
<polygon fill="#63b8ff" stroke="#63b8ff" points="525.29,-32.92 523.62,-22.46 518.4,-31.68 525.29,-32.92"/>
</a>
</g>
</g>
<!-- Node11&#45;&gt;Node3 -->
<g id="edge14_Node000011_Node000003" class="edge">
<title>Node11&#45;&gt;Node3</title>
<g id="a_edge14_Node000011_Node000003"><a xlink:title=" ">
<path fill="none" stroke="#63b8ff" d="M72.54,-62.68C74.16,-54.43 76.53,-42.37 78.56,-32.01"/>
<polygon fill="#63b8ff" stroke="#63b8ff" points="81.95,-32.94 80.44,-22.46 75.08,-31.59 81.95,-32.94"/>
</a>
</g>
</g>
<!-- Node11&#45;&gt;Node7 -->
<g id="edge15_Node000011_Node000007" class="edge">
<title>Node11&#45;&gt;Node7</title>
<g id="a_edge15_Node000011_Node000007"><a xlink:title=" ">
<path fill="none" stroke="#63b8ff" d="M88.13,-62.68C105.45,-52.97 132.21,-37.96 152.32,-26.68"/>
<polygon fill="#63b8ff" stroke="#63b8ff" points="153.81,-29.86 160.82,-21.91 150.39,-23.75 153.81,-29.86"/>
</a>
</g>
</g>
</g>
</svg>
