<?xml version="1.0" encoding="UTF-8" standalone="no"?>
<!DOCTYPE svg PUBLIC "-//W3C//DTD SVG 1.1//EN"
 "http://www.w3.org/Graphics/SVG/1.1/DTD/svg11.dtd">
<!-- Generated by graphviz version 14.1.4 (0)
 -->
<!-- Title: source/log.h Pages: 1 -->
<!--zoomable 313 -->

<svg id="main" version="1.1" xmlns="http://www.w3.org/2000/svg" xmlns:xlink="http://www.w3.org/1999/xlink" xml:space="preserve" onload="init(evt)">

<style type="text/css"><![CDATA[
.node, .edge {opacity: 0.7;}
.node.selected, .edge.selected {opacity: 1;}
.edge:hover path { stroke: red; }
.edge:hover polygon { stroke: red; fill: red; }
]]></style>

<defs>
  <circle id="rim" cx="0" cy="0" r="7"/>
  <circle id="rim2" cx="0" cy="0" r="3.5"/>
  <g id="zoomPlus">
    <use xlink:href="#rim" fill="#404040"><set attributeName="fill" to="#808080" begin="zoomplus.mouseover" end="zoomplus.mouseout"/></use>
    <path d="M-4,0h8M0,-4v8" fill="none" stroke="white" stroke-width="1.5" pointer-events="none"/>
  </g>
  <g id="zoomMin">
    <use xlink:href="#rim" fill="#404040"><set attributeName="fill" to="#808080" begin="zoomminus.mouseover" end="zoomminus.mouseout"/></use>
    <path d="M-4,0h8" fill="none" stroke="white" stroke-width="1.5" pointer-events="none"/>
  </g>
  <g id="arrowUp" transform="translate(30 24)">
    <use xlink:href="#rim"/>
    <path pointer-events="none" fill="none" stroke="white" stroke-width="1.5" d="M0,-3.0v7 M-2.5,-0.5L0,-3.0L2.5,-0.5"/>
  </g>
  <g id="arrowRight" transform="rotate(90) translate(36 -43)">
    <use xlink:href="#rim"/>
    <path pointer-events="none" fill="none" stroke="white" stroke-width="1.5" d="M0,-3.0v7 M-2.5,-0.5L0,-3.0L2.5,-0.5"/>
  </g>
  <g id="arrowDown" transform="rotate(180) translate(-30 -48)">
    <use xlink:href="#rim"/>
    <path pointer-events="none" fill="none" stroke="white" stroke-width="1.5" d="M0,-3.0v7 M-2.5,-0.5L0,-3.0L2.5,-0.5"/>
  </g>
  <g id="arrowLeft" transform="rotate(270) translate(-36 17)">
    <use xlink:href="#rim"/>
    <path pointer-events="none" fill="none" stroke="white" stroke-width="1.5" d="M0,-3.0v7 M-2.5,-0.5L0,-3.0L2.5,-0.5"/>
  </g>
  <g id="resetDef">
    <use xlink:href="#rim2" fill="#404040"><set attributeName="fill" to="#808080" begin="reset.mouseover" end="reset.mouseout"/></use>
  </g>
</defs>
<script type="application/ecmascript">
var viewWidth = 840;
var viewHeight = 313;
var sectionId = 'dynsection-1';
</script>
<script type="application/ecmascript" xlink:href="svg.min.js"/>
<svg id="graph" class="graph">
<g id="viewport">
<title>source/log.h</title>
<!-- Node1 -->
<g id="Node000001" class="node">
<title>Node1</title>
<g id="a_Node000001"><a xlink:title=" ">
<polygon fill="#999999" stroke="#666666" points="419.68,-304.5 344.43,-304.5 344.43,-283.75 419.68,-283.75 419.68,-304.5"/>
<text xml:space="preserve" text-anchor="middle" x="382.06" y="-291" font-family="Helvetica,sans-Serif" font-size="10.00">source/log.h</text>
</a>
</g>
</g>
<!-- Node2 -->
<g id="Node000002" class="node">
<title>Node2</title>
<g id="a_Node000002"><a xlink:href="application_8c.html" target="_top" xlink:title=" ">
<polygon fill="white" stroke="#666666" points="368.81,-77.5 255.31,-77.5 255.31,-56.75 368.81,-56.75 368.81,-77.5"/>
<text xml:space="preserve" text-anchor="middle" x="312.06" y="-64" font-family="Helvetica,sans-Serif" font-size="10.00">source/application.c</text>
</a>
</g>
</g>
<!-- Node1&#45;&gt;Node2 -->
<g id="edge1_Node000001_Node000002" class="edge">
<title>Node1&#45;&gt;Node2</title>
<g id="a_edge1_Node000001_Node000002"><a xlink:title=" ">
<path fill="none" stroke="#63b8ff" d="M355.4,-277.52C342.97,-269.52 328.45,-259.09 317.06,-247.75 273.32,-204.21 255.71,-193.08 237.06,-134.25 234.27,-125.46 232.53,-121.53 237.06,-113.5 246.7,-96.4 265.67,-85.01 282.12,-77.92"/>
<polygon fill="#63b8ff" stroke="#63b8ff" points="353.2,-280.27 363.54,-282.58 356.89,-274.33 353.2,-280.27"/>
</a>
</g>
</g>
<!-- Node3 -->
<g id="Node000003" class="node">
<title>Node3</title>
<g id="a_Node000003"><a xlink:href="cli_8c.html" target="_top" xlink:title=" ">
<polygon fill="white" stroke="#666666" points="99.43,-247.75 28.68,-247.75 28.68,-227 99.43,-227 99.43,-247.75"/>
<text xml:space="preserve" text-anchor="middle" x="64.06" y="-234.25" font-family="Helvetica,sans-Serif" font-size="10.00">source/cli.c</text>
</a>
</g>
</g>
<!-- Node1&#45;&gt;Node3 -->
<g id="edge2_Node000001_Node000003" class="edge">
<title>Node1&#45;&gt;Node3</title>
<g id="a_edge2_Node000001_Node000003"><a xlink:title=" ">
<path fill="none" stroke="#63b8ff" d="M332.88,-285.57C278.14,-277.01 187.1,-262.36 109.06,-247.75 106.08,-247.19 102.99,-246.59 99.89,-245.98"/>
<polygon fill="#63b8ff" stroke="#63b8ff" points="332.08,-288.99 342.5,-287.07 333.15,-282.07 332.08,-288.99"/>
</a>
</g>
</g>
<!-- Node4 -->
<g id="Node000004" class="node">
<title>Node4</title>
<g id="a_Node000004"><a xlink:href="log_8c.html" target="_top" xlink:title=" ">
<polygon fill="white" stroke="#666666" points="192.31,-247.75 117.81,-247.75 117.81,-227 192.31,-227 192.31,-247.75"/>
<text xml:space="preserve" text-anchor="middle" x="155.06" y="-234.25" font-family="Helvetica,sans-Serif" font-size="10.00">source/log.c</text>
</a>
</g>
</g>
<!-- Node1&#45;&gt;Node4 -->
<g id="edge3_Node000001_Node000004" class="edge">
<title>Node1&#45;&gt;Node4</title>
<g id="a_edge3_Node000001_Node000004"><a xlink:title=" ">
<path fill="none" stroke="#63b8ff" d="M332.97,-281.29C290.91,-271.14 231.2,-256.74 192.8,-247.48"/>
<polygon fill="#63b8ff" stroke="#63b8ff" points="332.05,-284.66 342.59,-283.61 333.69,-277.86 332.05,-284.66"/>
</a>
</g>
</g>
<!-- Node5 -->
<g id="Node000005" class="node">
<title>Node5</title>
<g id="a_Node000005"><a xlink:href="motor_8c.html" target="_top" xlink:title=" ">
<polygon fill="white" stroke="#666666" points="669.06,-77.5 581.06,-77.5 581.06,-56.75 669.06,-56.75 669.06,-77.5"/>
<text xml:space="preserve" text-anchor="middle" x="625.06" y="-64" font-family="Helvetica,sans-Serif" font-size="10.00">source/motor.c</text>
</a>
</g>
</g>
<!-- Node1&#45;&gt;Node5 -->
<g id="edge4_Node000001_Node000005" class="edge">
<title>Node1&#45;&gt;Node5</title>
<g id="a_edge4_Node000001_Node000005"><a xlink:title=" ">
<path fill="none" stroke="#63b8ff" d="M431.29,-293.51C492.27,-292.25 598.12,-284.31 680.06,-247.75 744.21,-219.13 768.44,-201.09 790.06,-134.25 792.9,-125.48 795.65,-120.83 790.06,-113.5 775.43,-94.3 712.89,-81.19 669.16,-74.18"/>
<polygon fill="#63b8ff" stroke="#63b8ff" points="431.54,-290.01 421.59,-293.65 431.64,-297.01 431.54,-290.01"/>
</a>
</g>
</g>
<!-- Node6 -->
<g id="Node000006" class="node">
<title>Node6</title>
<g id="a_Node000006"><a xlink:href="motorCmd_8c.html" target="_top" xlink:title=" ">
<polygon fill="white" stroke="#666666" points="831.68,-77.5 720.43,-77.5 720.43,-56.75 831.68,-56.75 831.68,-77.5"/>
<text xml:space="preserve" text-anchor="middle" x="776.06" y="-64" font-family="Helvetica,sans-Serif" font-size="10.00">source/motorCmd.c</text>
</a>
</g>
</g>
<!-- Node1&#45;&gt;Node6 -->
<g id="edge5_Node000001_Node000006" class="edge">
<title>Node1&#45;&gt;Node6</title>
<g id="a_edge5_Node000001_Node000006"><a xlink:title=" ">
<path fill="none" stroke="#63b8ff" d="M431.38,-289.66C511.09,-283.51 664.32,-269.28 714.06,-247.75 773.65,-221.95 794.12,-198.08 806.06,-134.25 807.75,-125.18 808.71,-122.33 806.06,-113.5 801.92,-99.75 792.12,-86.33 784.84,-77.7"/>
<polygon fill="#63b8ff" stroke="#63b8ff" points="431.39,-286.15 421.69,-290.39 431.92,-293.13 431.39,-286.15"/>
</a>
</g>
</g>
<!-- Node7 -->
<g id="Node000007" class="node">
<title>Node7</title>
<g id="a_Node000007"><a xlink:href="motor__test_8c.html" target="_top" xlink:title=" ">
<polygon fill="white" stroke="#666666" points="371.43,-20.75 258.68,-20.75 258.68,0 371.43,0 371.43,-20.75"/>
<text xml:space="preserve" text-anchor="middle" x="315.06" y="-7.25" font-family="Helvetica,sans-Serif" font-size="10.00">source/motor_test.c</text>
</a>
</g>
</g>
<!-- Node1&#45;&gt;Node7 -->
<g id="edge6_Node000001_Node000007" class="edge">
<title>Node1&#45;&gt;Node7</title>
<g id="a_edge6_Node000001_Node000007"><a xlink:title=" ">
<path fill="none" stroke="#63b8ff" d="M332.69,-293.44C244.77,-292.98 66,-287.06 20.06,-247.75 -3.17,-227.87 1.06,-212.2 1.06,-181.62 1.06,-181.62 1.06,-181.62 1.06,-122.88 1.06,-68.93 167.71,-34.41 258.19,-19.64"/>
<polygon fill="#63b8ff" stroke="#63b8ff" points="332.43,-296.94 342.44,-293.47 332.45,-289.94 332.43,-296.94"/>
</a>
</g>
</g>
<!-- Node8 -->
<g id="Node000008" class="node">
<title>Node8</title>
<g id="a_Node000008"><a xlink:href="pca9555a_8c.html" target="_top" xlink:title=" ">
<polygon fill="white" stroke="#666666" points="630.43,-247.75 523.68,-247.75 523.68,-227 630.43,-227 630.43,-247.75"/>
<text xml:space="preserve" text-anchor="middle" x="577.06" y="-234.25" font-family="Helvetica,sans-Serif" font-size="10.00">source/pca9555a.c</text>
</a>
</g>
</g>
<!-- Node1&#45;&gt;Node8 -->
<g id="edge7_Node000001_Node000008" class="edge">
<title>Node1&#45;&gt;Node8</title>
<g id="a_edge7_Node000001_Node000008"><a xlink:title=" ">
<path fill="none" stroke="#63b8ff" d="M427.8,-280.28C462.76,-270.47 510.23,-257.14 542.17,-248.17"/>
<polygon fill="#63b8ff" stroke="#63b8ff" points="427.06,-276.85 418.38,-282.93 428.95,-283.59 427.06,-276.85"/>
</a>
</g>
</g>
<!-- Node9 -->
<g id="Node000009" class="node">
<title>Node9</title>
<g id="a_Node000009"><a xlink:href="step_8c.html" target="_top" xlink:title=" ">
<polygon fill="white" stroke="#666666" points="781.31,-134.25 700.81,-134.25 700.81,-113.5 781.31,-113.5 781.31,-134.25"/>
<text xml:space="preserve" text-anchor="middle" x="741.06" y="-120.75" font-family="Helvetica,sans-Serif" font-size="10.00">source/step.c</text>
</a>
</g>
</g>
<!-- Node1&#45;&gt;Node9 -->
<g id="edge8_Node000001_Node000009" class="edge">
<title>Node1&#45;&gt;Node9</title>
<g id="a_edge8_Node000001_Node000009"><a xlink:title=" ">
<path fill="none" stroke="#63b8ff" d="M431.23,-289.97C484.07,-285.32 569.77,-274.13 639.06,-247.75 683.96,-230.66 704.57,-231.08 731.06,-191 742.45,-173.76 742.84,-148.53 742.01,-134.75"/>
<polygon fill="#63b8ff" stroke="#63b8ff" points="431.02,-286.47 421.34,-290.79 431.59,-293.45 431.02,-286.47"/>
</a>
</g>
</g>
<!-- Node10 -->
<g id="Node000010" class="node">
<title>Node10</title>
<g id="a_Node000010"><a xlink:href="task__helpers_8h.html" target="_top" xlink:title=" ">
<polygon fill="white" stroke="#666666" points="505.31,-247.75 382.81,-247.75 382.81,-227 505.31,-227 505.31,-247.75"/>
<text xml:space="preserve" text-anchor="middle" x="444.06" y="-234.25" font-family="Helvetica,sans-Serif" font-size="10.00">source/task_helpers.h</text>
</a>
</g>
</g>
<!-- Node1&#45;&gt;Node10 -->
<g id="edge9_Node000001_Node000010" class="edge">
<title>Node1&#45;&gt;Node10</title>
<g id="a_edge9_Node000001_Node000010"><a xlink:title=" ">
<path fill="none" stroke="#63b8ff" d="M401.61,-275.86C411.99,-266.69 424.37,-255.76 433.07,-248.08"/>
<polygon fill="#63b8ff" stroke="#63b8ff" points="399.46,-273.09 394.28,-282.33 404.09,-278.34 399.46,-273.09"/>
</a>
</g>
</g>
<!-- Node15 -->
<g id="Node000015" class="node">
<title>Node15</title>
<g id="a_Node000015"><a xlink:href="tmc2209_8c.html" target="_top" xlink:title=" ">
<polygon fill="white" stroke="#666666" points="348.18,-134.25 245.93,-134.25 245.93,-113.5 348.18,-113.5 348.18,-134.25"/>
<text xml:space="preserve" text-anchor="middle" x="297.06" y="-120.75" font-family="Helvetica,sans-Serif" font-size="10.00">source/tmc2209.c</text>
</a>
</g>
</g>
<!-- Node1&#45;&gt;Node15 -->
<g id="edge32_Node000001_Node000015" class="edge">
<title>Node1&#45;&gt;Node15</title>
<g id="a_edge32_Node000001_Node000015"><a xlink:title=" ">
<path fill="none" stroke="#63b8ff" d="M362.01,-275.62C342.19,-256.93 313.01,-225.31 300.06,-191 292.92,-172.08 294.18,-147.92 295.66,-134.67"/>
<polygon fill="#63b8ff" stroke="#63b8ff" points="359.51,-278.08 369.25,-282.25 364.24,-272.91 359.51,-278.08"/>
</a>
</g>
</g>
<!-- Node10&#45;&gt;Node5 -->
<g id="edge10_Node000010_Node000005" class="edge">
<title>Node10&#45;&gt;Node5</title>
<g id="a_edge10_Node000010_Node000005"><a xlink:title=" ">
<path fill="none" stroke="#63b8ff" d="M515.56,-224.64C581.79,-213.43 670.85,-197.33 676.06,-191 705.57,-155.16 657.3,-99.85 635.19,-77.74"/>
<polygon fill="#63b8ff" stroke="#63b8ff" points="515.09,-221.17 505.81,-226.28 516.26,-228.07 515.09,-221.17"/>
</a>
</g>
</g>
<!-- Node10&#45;&gt;Node6 -->
<g id="edge11_Node000010_Node000006" class="edge">
<title>Node10&#45;&gt;Node6</title>
<g id="a_edge11_Node000010_Node000006"><a xlink:title=" ">
<path fill="none" stroke="#63b8ff" d="M516.9,-225.97C598.73,-214.11 721.49,-195.76 731.06,-191 763.64,-174.8 775.81,-167.73 790.06,-134.25 798.15,-115.25 788.5,-91.12 781.67,-77.89"/>
<polygon fill="#63b8ff" stroke="#63b8ff" points="516.53,-222.49 507.14,-227.38 517.54,-229.41 516.53,-222.49"/>
</a>
</g>
</g>
<!-- Node10&#45;&gt;Node7 -->
<g id="edge12_Node000010_Node000007" class="edge">
<title>Node10&#45;&gt;Node7</title>
<g id="a_edge12_Node000010_Node000007"><a xlink:title=" ">
<path fill="none" stroke="#63b8ff" d="M371.25,-224.59C321.36,-211.98 260.2,-186.24 237.06,-134.25 229.13,-116.43 237.54,-69.95 246.06,-56.75 256.63,-40.37 275.45,-28.59 290.76,-21.14"/>
<polygon fill="#63b8ff" stroke="#63b8ff" points="370.34,-227.97 380.88,-226.88 371.96,-221.16 370.34,-227.97"/>
</a>
</g>
</g>
<!-- Node10&#45;&gt;Node9 -->
<g id="edge13_Node000010_Node000009" class="edge">
<title>Node10&#45;&gt;Node9</title>
<g id="a_edge13_Node000010_Node000009"><a xlink:title=" ">
<path fill="none" stroke="#63b8ff" d="M516.63,-225.62C592.4,-214.14 701.32,-196.82 709.06,-191 727.81,-176.89 736.14,-148.91 739.34,-134.28"/>
<polygon fill="#63b8ff" stroke="#63b8ff" points="516.57,-222.09 507.21,-227.04 517.62,-229.01 516.57,-222.09"/>
</a>
</g>
</g>
<!-- Node11 -->
<g id="Node000011" class="node">
<title>Node11</title>
<g id="a_Node000011"><a xlink:href="step_8h.html" target="_top" xlink:title=" ">
<polygon fill="white" stroke="#666666" points="666.68,-191 585.43,-191 585.43,-170.25 666.68,-170.25 666.68,-191"/>
<text xml:space="preserve" text-anchor="middle" x="626.06" y="-177.5" font-family="Helvetica,sans-Serif" font-size="10.00">source/step.h</text>
</a>
</g>
</g>
<!-- Node10&#45;&gt;Node11 -->
<g id="edge14_Node000010_Node000011" class="edge">
<title>Node10&#45;&gt;Node11</title>
<g id="a_edge14_Node000010_Node000011"><a xlink:title=" ">
<path fill="none" stroke="#63b8ff" d="M487.6,-223.28C520.15,-213.49 563.95,-200.31 593.5,-191.42"/>
<polygon fill="#63b8ff" stroke="#63b8ff" points="486.61,-219.92 478.05,-226.15 488.63,-226.62 486.61,-219.92"/>
</a>
</g>
</g>
<!-- Node14 -->
<g id="Node000014" class="node">
<title>Node14</title>
<g id="a_Node000014"><a xlink:href="task__helpers_8c.html" target="_top" xlink:title=" ">
<polygon fill="white" stroke="#666666" points="566.93,-191 445.18,-191 445.18,-170.25 566.93,-170.25 566.93,-191"/>
<text xml:space="preserve" text-anchor="middle" x="506.06" y="-177.5" font-family="Helvetica,sans-Serif" font-size="10.00">source/task_helpers.c</text>
</a>
</g>
</g>
<!-- Node10&#45;&gt;Node14 -->
<g id="edge26_Node000010_Node000014" class="edge">
<title>Node10&#45;&gt;Node14</title>
<g id="a_edge26_Node000010_Node000014"><a xlink:title=" ">
<path fill="none" stroke="#63b8ff" d="M463.61,-219.11C473.99,-209.94 486.37,-199.01 495.07,-191.33"/>
<polygon fill="#63b8ff" stroke="#63b8ff" points="461.46,-216.34 456.28,-225.58 466.09,-221.59 461.46,-216.34"/>
</a>
</g>
</g>
<!-- Node10&#45;&gt;Node15 -->
<g id="edge27_Node000010_Node000015" class="edge">
<title>Node10&#45;&gt;Node15</title>
<g id="a_edge27_Node000010_Node000015"><a xlink:title=" ">
<path fill="none" stroke="#63b8ff" d="M371.49,-223.63C351.24,-216.9 330.78,-206.65 316.06,-191 301.16,-175.17 297.84,-148.43 297.17,-134.29"/>
<polygon fill="#63b8ff" stroke="#63b8ff" points="370.31,-226.93 380.9,-226.48 372.34,-220.23 370.31,-226.93"/>
</a>
</g>
</g>
<!-- Node16 -->
<g id="Node000016" class="node">
<title>Node16</title>
<g id="a_Node000016"><a xlink:href="tmc2209_8h.html" target="_top" xlink:title=" ">
<polygon fill="white" stroke="#666666" points="427.56,-191 324.56,-191 324.56,-170.25 427.56,-170.25 427.56,-191"/>
<text xml:space="preserve" text-anchor="middle" x="376.06" y="-177.5" font-family="Helvetica,sans-Serif" font-size="10.00">source/tmc2209.h</text>
</a>
</g>
</g>
<!-- Node10&#45;&gt;Node16 -->
<g id="edge28_Node000010_Node000016" class="edge">
<title>Node10&#45;&gt;Node16</title>
<g id="a_edge28_Node000010_Node000016"><a xlink:title=" ">
<path fill="none" stroke="#63b8ff" d="M422.96,-219.39C411.5,-210.16 397.75,-199.09 388.11,-191.33"/>
<polygon fill="#63b8ff" stroke="#63b8ff" points="420.74,-222.09 430.72,-225.64 425.13,-216.64 420.74,-222.09"/>
</a>
</g>
</g>
<!-- Node11&#45;&gt;Node2 -->
<g id="edge15_Node000011_Node000002" class="edge">
<title>Node11&#45;&gt;Node2</title>
<g id="a_edge15_Node000011_Node000002"><a xlink:title=" ">
<path fill="none" stroke="#63b8ff" d="M577.88,-166.84C547.31,-158.38 507.05,-146.6 472.06,-134.25 421.75,-116.5 364.28,-91.57 333.77,-77.96"/>
<polygon fill="#63b8ff" stroke="#63b8ff" points="576.65,-170.13 587.22,-169.4 578.5,-163.38 576.65,-170.13"/>
</a>
</g>
</g>
<!-- Node11&#45;&gt;Node5 -->
<g id="edge16_Node000011_Node000005" class="edge">
<title>Node11&#45;&gt;Node5</title>
<g id="a_edge16_Node000011_Node000005"><a xlink:title=" ">
<path fill="none" stroke="#63b8ff" d="M623.27,-158.69C622.37,-151.02 621.5,-142.25 621.06,-134.25 619.96,-114.27 622.2,-90.9 623.75,-77.98"/>
<polygon fill="#63b8ff" stroke="#63b8ff" points="619.77,-158.93 624.49,-168.41 626.71,-158.05 619.77,-158.93"/>
</a>
</g>
</g>
<!-- Node11&#45;&gt;Node6 -->
<g id="edge24_Node000011_Node000006" class="edge">
<title>Node11&#45;&gt;Node6</title>
<g id="a_edge24_Node000011_Node000006"><a xlink:title=" ">
<path fill="none" stroke="#63b8ff" d="M641.62,-161.34C654.27,-147.18 673.07,-127.66 692.06,-113.5 711.59,-98.93 736.39,-86.13 753.96,-77.88"/>
<polygon fill="#63b8ff" stroke="#63b8ff" points="639.21,-158.79 635.26,-168.62 644.47,-163.39 639.21,-158.79"/>
</a>
</g>
</g>
<!-- Node11&#45;&gt;Node9 -->
<g id="edge25_Node000011_Node000009" class="edge">
<title>Node11&#45;&gt;Node9</title>
<g id="a_edge25_Node000011_Node000009"><a xlink:title=" ">
<path fill="none" stroke="#63b8ff" d="M656.89,-164.95C677.11,-155.32 702.99,-143 720.68,-134.58"/>
<polygon fill="#63b8ff" stroke="#63b8ff" points="655.51,-161.73 647.98,-169.19 658.52,-168.05 655.51,-161.73"/>
</a>
</g>
</g>
<!-- Node12 -->
<g id="Node000012" class="node">
<title>Node12</title>
<g id="a_Node000012"><a xlink:href="motor_8h.html" target="_top" xlink:title=" ">
<polygon fill="white" stroke="#666666" points="569.43,-134.25 480.68,-134.25 480.68,-113.5 569.43,-113.5 569.43,-134.25"/>
<text xml:space="preserve" text-anchor="middle" x="525.06" y="-120.75" font-family="Helvetica,sans-Serif" font-size="10.00">source/motor.h</text>
</a>
</g>
</g>
<!-- Node11&#45;&gt;Node12 -->
<g id="edge17_Node000011_Node000012" class="edge">
<title>Node11&#45;&gt;Node12</title>
<g id="a_edge17_Node000011_Node000012"><a xlink:title=" ">
<path fill="none" stroke="#63b8ff" d="M598.24,-164.54C580.59,-154.98 558.28,-142.88 542.96,-134.58"/>
<polygon fill="#63b8ff" stroke="#63b8ff" points="596.21,-167.43 606.67,-169.12 599.55,-161.27 596.21,-167.43"/>
</a>
</g>
</g>
<!-- Node12&#45;&gt;Node2 -->
<g id="edge18_Node000012_Node000002" class="edge">
<title>Node12&#45;&gt;Node2</title>
<g id="a_edge18_Node000012_Node000002"><a xlink:title=" ">
<path fill="none" stroke="#63b8ff" d="M476.09,-110.29C437.8,-100.45 385.35,-86.97 350.17,-77.92"/>
<polygon fill="#63b8ff" stroke="#63b8ff" points="474.96,-113.61 485.51,-112.71 476.7,-106.83 474.96,-113.61"/>
</a>
</g>
</g>
<!-- Node12&#45;&gt;Node5 -->
<g id="edge19_Node000012_Node000005" class="edge">
<title>Node12&#45;&gt;Node5</title>
<g id="a_edge19_Node000012_Node000005"><a xlink:title=" ">
<path fill="none" stroke="#63b8ff" d="M552.6,-107.79C570.08,-98.23 592.17,-86.13 607.33,-77.83"/>
<polygon fill="#63b8ff" stroke="#63b8ff" points="551.35,-104.49 544.26,-112.36 554.72,-110.63 551.35,-104.49"/>
</a>
</g>
</g>
<!-- Node12&#45;&gt;Node6 -->
<g id="edge20_Node000012_Node000006" class="edge">
<title>Node12&#45;&gt;Node6</title>
<g id="a_edge20_Node000012_Node000006"><a xlink:title=" ">
<path fill="none" stroke="#63b8ff" d="M581.03,-110.67C626.28,-100.8 689.15,-87.08 731.15,-77.92"/>
<polygon fill="#63b8ff" stroke="#63b8ff" points="580.43,-107.21 571.41,-112.76 581.93,-114.05 580.43,-107.21"/>
</a>
</g>
</g>
<!-- Node12&#45;&gt;Node7 -->
<g id="edge23_Node000012_Node000007" class="edge">
<title>Node12&#45;&gt;Node7</title>
<g id="a_edge23_Node000012_Node000007"><a xlink:title=" ">
<path fill="none" stroke="#63b8ff" d="M531.24,-102.34C534.2,-88.03 535.2,-69.31 525.06,-56.75 506.11,-33.27 427.27,-21.35 371.79,-15.75"/>
<polygon fill="#63b8ff" stroke="#63b8ff" points="527.95,-101.08 528.86,-111.64 534.73,-102.81 527.95,-101.08"/>
</a>
</g>
</g>
<!-- Node13 -->
<g id="Node000013" class="node">
<title>Node13</title>
<g id="a_Node000013"><a xlink:href="motor__configs_8h.html" target="_top" xlink:title=" ">
<polygon fill="white" stroke="#666666" points="515.68,-77.5 386.43,-77.5 386.43,-56.75 515.68,-56.75 515.68,-77.5"/>
<text xml:space="preserve" text-anchor="middle" x="451.06" y="-64" font-family="Helvetica,sans-Serif" font-size="10.00">source/motor_configs.h</text>
</a>
</g>
</g>
<!-- Node12&#45;&gt;Node13 -->
<g id="edge21_Node000012_Node000013" class="edge">
<title>Node12&#45;&gt;Node13</title>
<g id="a_edge21_Node000012_Node000013"><a xlink:title=" ">
<path fill="none" stroke="#63b8ff" d="M502.84,-106.44C490.23,-97.11 474.87,-85.75 464.17,-77.83"/>
<polygon fill="#63b8ff" stroke="#63b8ff" points="500.49,-109.05 510.61,-112.19 504.65,-103.43 500.49,-109.05"/>
</a>
</g>
</g>
<!-- Node13&#45;&gt;Node7 -->
<g id="edge22_Node000013_Node000007" class="edge">
<title>Node13&#45;&gt;Node7</title>
<g id="a_edge22_Node000013_Node000007"><a xlink:title=" ">
<path fill="none" stroke="#63b8ff" d="M416.23,-52.11C392.09,-42.39 360.56,-29.69 339.16,-21.08"/>
<polygon fill="#63b8ff" stroke="#63b8ff" points="414.76,-55.28 425.34,-55.77 417.37,-48.79 414.76,-55.28"/>
</a>
</g>
</g>
<!-- Node16&#45;&gt;Node2 -->
<g id="edge29_Node000016_Node000002" class="edge">
<title>Node16&#45;&gt;Node2</title>
<g id="a_edge29_Node000016_Node000002"><a xlink:title=" ">
<path fill="none" stroke="#63b8ff" d="M372.88,-158.98C370.15,-145.37 365.29,-127.54 357.06,-113.5 348.75,-99.34 335.01,-86.38 324.89,-77.98"/>
<polygon fill="#63b8ff" stroke="#63b8ff" points="369.39,-159.33 374.57,-168.57 376.28,-158.11 369.39,-159.33"/>
</a>
</g>
</g>
<!-- Node16&#45;&gt;Node12 -->
<g id="edge30_Node000016_Node000012" class="edge">
<title>Node16&#45;&gt;Node12</title>
<g id="a_edge30_Node000016_Node000012"><a xlink:title=" ">
<path fill="none" stroke="#63b8ff" d="M413.46,-165.88C439.91,-156.16 474.74,-143.37 498.4,-134.67"/>
<polygon fill="#63b8ff" stroke="#63b8ff" points="412.3,-162.58 404.12,-169.31 414.71,-169.15 412.3,-162.58"/>
</a>
</g>
</g>
<!-- Node16&#45;&gt;Node15 -->
<g id="edge31_Node000016_Node000015" class="edge">
<title>Node16&#45;&gt;Node15</title>
<g id="a_edge31_Node000016_Node000015"><a xlink:title=" ">
<path fill="none" stroke="#63b8ff" d="M352.73,-163.46C339.2,-154.08 322.59,-142.57 311.06,-134.58"/>
<polygon fill="#63b8ff" stroke="#63b8ff" points="350.48,-166.16 360.69,-168.97 354.46,-160.4 350.48,-166.16"/>
</a>
</g>
</g>
</g>
</svg>

<g id="navigator" transform="translate(0 0)" fill="#404254">
  <rect fill="#f2f5e9" fill-opacity="0.5" stroke="#606060" stroke-width=".5" x="0" y="0" width="60" height="60"/>
  <use id="zoomplus" xlink:href="#zoomPlus" x="17" y="9" onmousedown="handleZoom(evt,'in')"/>
  <use id="zoomminus" xlink:href="#zoomMin" x="42" y="9" onmousedown="handleZoom(evt,'out')"/>
  <use id="reset" xlink:href="#resetDef" x="30" y="36" onmousedown="handleReset()"/>
   <use id="arrowup" xlink:href="#arrowUp" x="0" y="0" onmousedown="handlePan(0,-1)"/>
  <use id="arrowright" xlink:href="#arrowRight" x="0" y="0" onmousedown="handlePan(1,0)"/>
  <use id="arrowdown" xlink:href="#arrowDown" x="0" y="0" onmousedown="handlePan(0,1)"/>
  <use id="arrowleft" xlink:href="#arrowLeft" x="0" y="0" onmousedown="handlePan(-1,0)"/>
</g>
<svg viewBox="0 0 15 15" width="100%" height="30px" preserveAspectRatio="xMaxYMin meet">
 <g id="arrow_out" transform="scale(0.3 0.3)">
  <a xlink:href="log_8h__dep__incl_org.svg" target="_base">
   <rect id="button" ry="5" rx="5" y="6" x="6" height="38" width="38"
        fill="#f2f5e9" fill-opacity="0.5" stroke="#606060" stroke-width="1.0"/>
   <path id="arrow"
     d="M 11.500037,31.436501 C 11.940474,20.09759 22.043105,11.32322 32.158766,21.979434 L 37.068811,17.246167 C 37.068811,17.246167 37.088388,32 37.088388,32 L 22.160133,31.978069 C 22.160133,31.978069 26.997745,27.140456 26.997745,27.140456 C 18.528582,18.264221 13.291696,25.230495 11.500037,31.436501 z"
     style="fill:#404040;"/>
  </a>
 </g>
</svg>

<style type='text/css'>
<![CDATA[
[data-mouse-over-selected='false'] { opacity: 0.7; }
[data-mouse-over-selected='true']  { opacity: 1.0; }
]]>
</style>
<script type="application/ecmascript"><![CDATA[
document.addEventListener('DOMContentLoaded', (event) => {
  highlightEdges();
  highlightAdjacentNodes();
});
]]></script>
</svg>
