<?xml version="1.0" encoding="UTF-8" standalone="no"?>
<!DOCTYPE svg PUBLIC "-//W3C//DTD SVG 1.1//EN"
 "http://www.w3.org/Graphics/SVG/1.1/DTD/svg11.dtd">
<!-- Generated by graphviz version 14.1.5 (0)
 -->
<!-- Title: source/infrastructure/log.h Pages: 1 -->
<svg width="182pt" height="98pt"
 viewBox="0.00 0.00 182.00 98.00" xmlns="http://www.w3.org/2000/svg" xmlns:xlink="http://www.w3.org/1999/xlink">
<g id="graph0" class="graph" transform="scale(1 1) rotate(0) translate(4 94.25)">
<title>source/infrastructure/log.h</title>
<!-- Node1 -->
<g id="Node000001" class="node">
<title>Node1</title>
<g id="a_Node000001"><a xlink:title=" ">
<polygon fill="#999999" stroke="#666666" points="142.38,-90.25 25.13,-90.25 25.13,-56.75 142.38,-56.75 142.38,-90.25"/>
<text xml:space="preserve" text-anchor="start" x="33.12" y="-76.75" font-family="Helvetica,sans-Serif" font-size="10.00">source/infrastructure</text>
<text xml:space="preserve" text-anchor="middle" x="83.75" y="-64" font-family="Helvetica,sans-Serif" font-size="10.00">/log.h</text>
</a>
</g>
</g>
<!-- Node2 -->
<g id="Node000002" class="node">
<title>Node2</title>
<g id="a_Node000002"><a xlink:title=" ">
<polygon fill="#e0e0e0" stroke="#999999" points="71.5,-20.75 0,-20.75 0,0 71.5,0 71.5,-20.75"/>
<text xml:space="preserve" text-anchor="middle" x="35.75" y="-7.25" font-family="Helvetica,sans-Serif" font-size="10.00">FreeRTOS.h</text>
</a>
</g>
</g>
<!-- Node1&#45;&gt;Node2 -->
<g id="edge1_Node000001_Node000002" class="edge">
<title>Node1&#45;&gt;Node2</title>
<g id="a_edge1_Node000001_Node000002"><a xlink:title=" ">
<path fill="none" stroke="#63b8ff" d="M71.14,-56.44C64.83,-48.41 57.15,-38.63 50.57,-30.24"/>
<polygon fill="#63b8ff" stroke="#63b8ff" points="53.34,-28.11 44.41,-22.41 47.84,-32.43 53.34,-28.11"/>
</a>
</g>
</g>
<!-- Node3 -->
<g id="Node000003" class="node">
<title>Node3</title>
<g id="a_Node000003"><a xlink:title=" ">
<polygon fill="#e0e0e0" stroke="#999999" points="174.25,-20.75 89.25,-20.75 89.25,0 174.25,0 174.25,-20.75"/>
<text xml:space="preserve" text-anchor="middle" x="131.75" y="-7.25" font-family="Helvetica,sans-Serif" font-size="10.00">fsl_common.h</text>
</a>
</g>
</g>
<!-- Node1&#45;&gt;Node3 -->
<g id="edge2_Node000001_Node000003" class="edge">
<title>Node1&#45;&gt;Node3</title>
<g id="a_edge2_Node000001_Node000003"><a xlink:title=" ">
<path fill="none" stroke="#63b8ff" d="M96.36,-56.44C102.67,-48.41 110.35,-38.63 116.93,-30.24"/>
<polygon fill="#63b8ff" stroke="#63b8ff" points="119.66,-32.43 123.09,-22.41 114.16,-28.11 119.66,-32.43"/>
</a>
</g>
</g>
</g>
</svg>
