<?xml version="1.0" encoding="UTF-8" standalone="no"?>
<!DOCTYPE svg PUBLIC "-//W3C//DTD SVG 1.1//EN"
 "http://www.w3.org/Graphics/SVG/1.1/DTD/svg11.dtd">
<!-- Generated by graphviz version 14.1.4 (0)
 -->
<!-- Title: source/log.h Pages: 1 -->
<svg width="2941pt" height="98pt"
 viewBox="0.00 0.00 2941.00 98.00" xmlns="http://www.w3.org/2000/svg" xmlns:xlink="http://www.w3.org/1999/xlink">
<g id="graph0" class="graph" transform="scale(1 1) rotate(0) translate(4 94.25)">
<title>source/log.h</title>
<!-- Node1 -->
<g id="Node000001" class="node">
<title>Node1</title>
<g id="a_Node000001"><a xlink:title=" ">
<polygon fill="#999999" stroke="#666666" points="1472.38,-90.25 1397.12,-90.25 1397.12,-69.5 1472.38,-69.5 1472.38,-90.25"/>
<text xml:space="preserve" text-anchor="middle" x="1434.75" y="-76.75" font-family="Helvetica,sans-Serif" font-size="10.00">source/log.h</text>
</a>
</g>
</g>
<!-- Node2 -->
<g id="Node000002" class="node">
<title>Node2</title>
<g id="a_Node000002"><a xlink:href="application_8c.html" target="_top" xlink:title=" ">
<polygon fill="white" stroke="#666666" points="113.5,-27.12 0,-27.12 0,-6.38 113.5,-6.38 113.5,-27.12"/>
<text xml:space="preserve" text-anchor="middle" x="56.75" y="-13.62" font-family="Helvetica,sans-Serif" font-size="10.00">source/application.c</text>
</a>
</g>
</g>
<!-- Node1&#45;&gt;Node2 -->
<g id="edge1_Node000001_Node000002" class="edge">
<title>Node1&#45;&gt;Node2</title>
<g id="a_edge1_Node000001_Node000002"><a xlink:title=" ">
<path fill="none" stroke="#63b8ff" d="M1385.26,-78.49C1177.34,-76.64 373.66,-67.43 122.75,-33.5 112.71,-32.14 101.97,-29.92 92.13,-27.57"/>
<polygon fill="#63b8ff" stroke="#63b8ff" points="1385.15,-81.98 1395.18,-78.57 1385.21,-74.98 1385.15,-81.98"/>
</a>
</g>
</g>
<!-- Node3 -->
<g id="Node000003" class="node">
<title>Node3</title>
<g id="a_Node000003"><a xlink:href="cli_8c.html" target="_top" xlink:title=" ">
<polygon fill="white" stroke="#666666" points="202.12,-27.12 131.38,-27.12 131.38,-6.38 202.12,-6.38 202.12,-27.12"/>
<text xml:space="preserve" text-anchor="middle" x="166.75" y="-13.62" font-family="Helvetica,sans-Serif" font-size="10.00">source/cli.c</text>
</a>
</g>
</g>
<!-- Node1&#45;&gt;Node3 -->
<g id="edge2_Node000001_Node000003" class="edge">
<title>Node1&#45;&gt;Node3</title>
<g id="a_edge2_Node000001_Node000003"><a xlink:title=" ">
<path fill="none" stroke="#63b8ff" d="M1385.57,-79.06C1186.68,-79.48 441.58,-77.99 210.75,-33.5 203.9,-32.18 196.68,-29.97 190.13,-27.61"/>
<polygon fill="#63b8ff" stroke="#63b8ff" points="1385.29,-82.56 1395.28,-79.03 1385.27,-75.56 1385.29,-82.56"/>
</a>
</g>
</g>
<!-- Node4 -->
<g id="Node000004" class="node">
<title>Node4</title>
<g id="a_Node000004"><a xlink:href="pca9555a_8c.html" target="_top" xlink:title=" ">
<polygon fill="white" stroke="#666666" points="349.75,-33.5 219.75,-33.5 219.75,0 349.75,0 349.75,-33.5"/>
<text xml:space="preserve" text-anchor="start" x="227.75" y="-20" font-family="Helvetica,sans-Serif" font-size="10.00">source/driver/pca9555a</text>
<text xml:space="preserve" text-anchor="middle" x="284.75" y="-7.25" font-family="Helvetica,sans-Serif" font-size="10.00">/pca9555a.c</text>
</a>
</g>
</g>
<!-- Node1&#45;&gt;Node4 -->
<g id="edge3_Node000001_Node000004" class="edge">
<title>Node1&#45;&gt;Node4</title>
<g id="a_edge3_Node000001_Node000004"><a xlink:title=" ">
<path fill="none" stroke="#63b8ff" d="M1385.48,-77.89C1202.42,-74.08 561.47,-59.16 358.75,-33.5 355.88,-33.14 352.96,-32.72 350.02,-32.26"/>
<polygon fill="#63b8ff" stroke="#63b8ff" points="1385.29,-81.39 1395.36,-78.1 1385.43,-74.39 1385.29,-81.39"/>
</a>
</g>
</g>
<!-- Node5 -->
<g id="Node000005" class="node">
<title>Node5</title>
<g id="a_Node000005"><a xlink:href="tmc2209__core_8c.html" target="_top" xlink:title=" ">
<polygon fill="white" stroke="#666666" points="493.5,-33.5 368,-33.5 368,0 493.5,0 493.5,-33.5"/>
<text xml:space="preserve" text-anchor="start" x="376" y="-20" font-family="Helvetica,sans-Serif" font-size="10.00">source/driver/tmc2209</text>
<text xml:space="preserve" text-anchor="middle" x="430.75" y="-7.25" font-family="Helvetica,sans-Serif" font-size="10.00">/tmc2209_core.c</text>
</a>
</g>
</g>
<!-- Node1&#45;&gt;Node5 -->
<g id="edge4_Node000001_Node000005" class="edge">
<title>Node1&#45;&gt;Node5</title>
<g id="a_edge4_Node000001_Node000005"><a xlink:title=" ">
<path fill="none" stroke="#63b8ff" d="M1385.32,-79.36C1245.89,-80.1 837.85,-77.99 502.75,-33.5 499.83,-33.11 496.86,-32.67 493.86,-32.18"/>
<polygon fill="#63b8ff" stroke="#63b8ff" points="1385.32,-82.86 1395.3,-79.3 1385.28,-75.86 1385.32,-82.86"/>
</a>
</g>
</g>
<!-- Node6 -->
<g id="Node000006" class="node">
<title>Node6</title>
<g id="a_Node000006"><a xlink:href="tmc2209__process_8c.html" target="_top" xlink:title=" ">
<polygon fill="white" stroke="#666666" points="637.5,-33.5 512,-33.5 512,0 637.5,0 637.5,-33.5"/>
<text xml:space="preserve" text-anchor="start" x="520" y="-20" font-family="Helvetica,sans-Serif" font-size="10.00">source/driver/tmc2209</text>
<text xml:space="preserve" text-anchor="middle" x="574.75" y="-7.25" font-family="Helvetica,sans-Serif" font-size="10.00">/tmc2209_process.c</text>
</a>
</g>
</g>
<!-- Node1&#45;&gt;Node6 -->
<g id="edge5_Node000001_Node000006" class="edge">
<title>Node1&#45;&gt;Node6</title>
<g id="a_edge5_Node000001_Node000006"><a xlink:title=" ">
<path fill="none" stroke="#63b8ff" d="M1385.45,-78.73C1260.99,-77.78 924.25,-71.6 646.75,-33.5 643.83,-33.1 640.86,-32.64 637.87,-32.15"/>
<polygon fill="#63b8ff" stroke="#63b8ff" points="1385.28,-82.23 1395.3,-78.8 1385.33,-75.23 1385.28,-82.23"/>
</a>
</g>
</g>
<!-- Node7 -->
<g id="Node000007" class="node">
<title>Node7</title>
<g id="a_Node000007"><a xlink:href="tmc2209__setup_8c.html" target="_top" xlink:title=" ">
<polygon fill="white" stroke="#666666" points="781.5,-33.5 656,-33.5 656,0 781.5,0 781.5,-33.5"/>
<text xml:space="preserve" text-anchor="start" x="664" y="-20" font-family="Helvetica,sans-Serif" font-size="10.00">source/driver/tmc2209</text>
<text xml:space="preserve" text-anchor="middle" x="718.75" y="-7.25" font-family="Helvetica,sans-Serif" font-size="10.00">/tmc2209_setup.c</text>
</a>
</g>
</g>
<!-- Node1&#45;&gt;Node7 -->
<g id="edge6_Node000001_Node000007" class="edge">
<title>Node1&#45;&gt;Node7</title>
<g id="a_edge6_Node000001_Node000007"><a xlink:title=" ">
<path fill="none" stroke="#63b8ff" d="M1385.3,-77.83C1277.02,-75.01 1011.03,-65.18 790.75,-33.5 787.84,-33.08 784.87,-32.61 781.87,-32.1"/>
<polygon fill="#63b8ff" stroke="#63b8ff" points="1385.2,-81.33 1395.29,-78.08 1385.38,-74.33 1385.2,-81.33"/>
</a>
</g>
</g>
<!-- Node8 -->
<g id="Node000008" class="node">
<title>Node8</title>
<g id="a_Node000008"><a xlink:href="tmc2209__uart_8c.html" target="_top" xlink:title=" ">
<polygon fill="white" stroke="#666666" points="925.5,-33.5 800,-33.5 800,0 925.5,0 925.5,-33.5"/>
<text xml:space="preserve" text-anchor="start" x="808" y="-20" font-family="Helvetica,sans-Serif" font-size="10.00">source/driver/tmc2209</text>
<text xml:space="preserve" text-anchor="middle" x="862.75" y="-7.25" font-family="Helvetica,sans-Serif" font-size="10.00">/tmc2209_uart.c</text>
</a>
</g>
</g>
<!-- Node1&#45;&gt;Node8 -->
<g id="edge7_Node000001_Node000008" class="edge">
<title>Node1&#45;&gt;Node8</title>
<g id="a_edge7_Node000001_Node000008"><a xlink:title=" ">
<path fill="none" stroke="#63b8ff" d="M1385.46,-76.45C1295.49,-71.56 1098.81,-58.79 934.75,-33.5 931.84,-33.05 928.87,-32.56 925.88,-32.03"/>
<polygon fill="#63b8ff" stroke="#63b8ff" points="1385.24,-79.94 1395.41,-76.98 1385.61,-72.95 1385.24,-79.94"/>
</a>
</g>
</g>
<!-- Node9 -->
<g id="Node000009" class="node">
<title>Node9</title>
<g id="a_Node000009"><a xlink:href="log_8c.html" target="_top" xlink:title=" ">
<polygon fill="white" stroke="#666666" points="1018,-27.12 943.5,-27.12 943.5,-6.38 1018,-6.38 1018,-27.12"/>
<text xml:space="preserve" text-anchor="middle" x="980.75" y="-13.62" font-family="Helvetica,sans-Serif" font-size="10.00">source/log.c</text>
</a>
</g>
</g>
<!-- Node1&#45;&gt;Node9 -->
<g id="edge8_Node000001_Node000009" class="edge">
<title>Node1&#45;&gt;Node9</title>
<g id="a_edge8_Node000001_Node000009"><a xlink:title=" ">
<path fill="none" stroke="#63b8ff" d="M1385.62,-76.89C1308.39,-72.98 1154.26,-62.06 1026.75,-33.5 1020,-31.99 1012.85,-29.83 1006.25,-27.59"/>
<polygon fill="#63b8ff" stroke="#63b8ff" points="1385.22,-80.37 1395.38,-77.36 1385.56,-73.38 1385.22,-80.37"/>
</a>
</g>
</g>
<!-- Node10 -->
<g id="Node000010" class="node">
<title>Node10</title>
<g id="a_Node000010"><a xlink:href="motor__core_8c.html" target="_top" xlink:title=" ">
<polygon fill="white" stroke="#666666" points="1153.75,-33.5 1035.75,-33.5 1035.75,0 1153.75,0 1153.75,-33.5"/>
<text xml:space="preserve" text-anchor="start" x="1043.75" y="-20" font-family="Helvetica,sans-Serif" font-size="10.00">source/motion/motor</text>
<text xml:space="preserve" text-anchor="middle" x="1094.75" y="-7.25" font-family="Helvetica,sans-Serif" font-size="10.00">/motor_core.c</text>
</a>
</g>
</g>
<!-- Node1&#45;&gt;Node10 -->
<g id="edge9_Node000001_Node000010" class="edge">
<title>Node1&#45;&gt;Node10</title>
<g id="a_edge9_Node000001_Node000010"><a xlink:title=" ">
<path fill="none" stroke="#63b8ff" d="M1385.69,-71.63C1331.09,-63.35 1240.34,-48.94 1162.75,-33.5 1159.9,-32.93 1156.98,-32.33 1154.04,-31.71"/>
<polygon fill="#63b8ff" stroke="#63b8ff" points="1384.87,-75.05 1395.28,-73.08 1385.91,-68.13 1384.87,-75.05"/>
</a>
</g>
</g>
<!-- Node11 -->
<g id="Node000011" class="node">
<title>Node11</title>
<g id="a_Node000011"><a xlink:href="motor__init_8c.html" target="_top" xlink:title=" ">
<polygon fill="white" stroke="#666666" points="1289.75,-33.5 1171.75,-33.5 1171.75,0 1289.75,0 1289.75,-33.5"/>
<text xml:space="preserve" text-anchor="start" x="1179.75" y="-20" font-family="Helvetica,sans-Serif" font-size="10.00">source/motion/motor</text>
<text xml:space="preserve" text-anchor="middle" x="1230.75" y="-7.25" font-family="Helvetica,sans-Serif" font-size="10.00">/motor_init.c</text>
</a>
</g>
</g>
<!-- Node1&#45;&gt;Node11 -->
<g id="edge10_Node000001_Node000011" class="edge">
<title>Node1&#45;&gt;Node11</title>
<g id="a_edge10_Node000001_Node000011"><a xlink:title=" ">
<path fill="none" stroke="#63b8ff" d="M1391.06,-65.78C1360.01,-56.48 1318.11,-43.93 1284.93,-33.98"/>
<polygon fill="#63b8ff" stroke="#63b8ff" points="1389.94,-69.1 1400.52,-68.62 1391.95,-62.4 1389.94,-69.1"/>
</a>
</g>
</g>
<!-- Node12 -->
<g id="Node000012" class="node">
<title>Node12</title>
<g id="a_Node000012"><a xlink:href="motor__motion_8c.html" target="_top" xlink:title=" ">
<polygon fill="white" stroke="#666666" points="1425.75,-33.5 1307.75,-33.5 1307.75,0 1425.75,0 1425.75,-33.5"/>
<text xml:space="preserve" text-anchor="start" x="1315.75" y="-20" font-family="Helvetica,sans-Serif" font-size="10.00">source/motion/motor</text>
<text xml:space="preserve" text-anchor="middle" x="1366.75" y="-7.25" font-family="Helvetica,sans-Serif" font-size="10.00">/motor_motion.c</text>
</a>
</g>
</g>
<!-- Node1&#45;&gt;Node12 -->
<g id="edge11_Node000001_Node000012" class="edge">
<title>Node1&#45;&gt;Node12</title>
<g id="a_edge11_Node000001_Node000012"><a xlink:title=" ">
<path fill="none" stroke="#63b8ff" d="M1415.34,-61.43C1405.74,-52.8 1394.22,-42.44 1384.81,-33.98"/>
<polygon fill="#63b8ff" stroke="#63b8ff" points="1412.92,-63.96 1422.7,-68.04 1417.6,-58.75 1412.92,-63.96"/>
</a>
</g>
</g>
<!-- Node13 -->
<g id="Node000013" class="node">
<title>Node13</title>
<g id="a_Node000013"><a xlink:href="motor__process_8c.html" target="_top" xlink:title=" ">
<polygon fill="white" stroke="#666666" points="1561.75,-33.5 1443.75,-33.5 1443.75,0 1561.75,0 1561.75,-33.5"/>
<text xml:space="preserve" text-anchor="start" x="1451.75" y="-20" font-family="Helvetica,sans-Serif" font-size="10.00">source/motion/motor</text>
<text xml:space="preserve" text-anchor="middle" x="1502.75" y="-7.25" font-family="Helvetica,sans-Serif" font-size="10.00">/motor_process.c</text>
</a>
</g>
</g>
<!-- Node1&#45;&gt;Node13 -->
<g id="edge12_Node000001_Node000013" class="edge">
<title>Node1&#45;&gt;Node13</title>
<g id="a_edge12_Node000001_Node000013"><a xlink:title=" ">
<path fill="none" stroke="#63b8ff" d="M1454.16,-61.43C1463.76,-52.8 1475.28,-42.44 1484.69,-33.98"/>
<polygon fill="#63b8ff" stroke="#63b8ff" points="1451.9,-58.75 1446.8,-68.04 1456.58,-63.96 1451.9,-58.75"/>
</a>
</g>
</g>
<!-- Node14 -->
<g id="Node000014" class="node">
<title>Node14</title>
<g id="a_Node000014"><a xlink:href="motor__sync_8c.html" target="_top" xlink:title=" ">
<polygon fill="white" stroke="#666666" points="1697.75,-33.5 1579.75,-33.5 1579.75,0 1697.75,0 1697.75,-33.5"/>
<text xml:space="preserve" text-anchor="start" x="1587.75" y="-20" font-family="Helvetica,sans-Serif" font-size="10.00">source/motion/motor</text>
<text xml:space="preserve" text-anchor="middle" x="1638.75" y="-7.25" font-family="Helvetica,sans-Serif" font-size="10.00">/motor_sync.c</text>
</a>
</g>
</g>
<!-- Node1&#45;&gt;Node14 -->
<g id="edge13_Node000001_Node000014" class="edge">
<title>Node1&#45;&gt;Node14</title>
<g id="a_edge13_Node000001_Node000014"><a xlink:title=" ">
<path fill="none" stroke="#63b8ff" d="M1478.44,-65.78C1509.49,-56.48 1551.39,-43.93 1584.57,-33.98"/>
<polygon fill="#63b8ff" stroke="#63b8ff" points="1477.55,-62.4 1468.98,-68.62 1479.56,-69.1 1477.55,-62.4"/>
</a>
</g>
</g>
<!-- Node15 -->
<g id="Node000015" class="node">
<title>Node15</title>
<g id="a_Node000015"><a xlink:href="motor__tmc_8c.html" target="_top" xlink:title=" ">
<polygon fill="white" stroke="#666666" points="1833.75,-33.5 1715.75,-33.5 1715.75,0 1833.75,0 1833.75,-33.5"/>
<text xml:space="preserve" text-anchor="start" x="1723.75" y="-20" font-family="Helvetica,sans-Serif" font-size="10.00">source/motion/motor</text>
<text xml:space="preserve" text-anchor="middle" x="1774.75" y="-7.25" font-family="Helvetica,sans-Serif" font-size="10.00">/motor_tmc.c</text>
</a>
</g>
</g>
<!-- Node1&#45;&gt;Node15 -->
<g id="edge14_Node000001_Node000015" class="edge">
<title>Node1&#45;&gt;Node15</title>
<g id="a_edge14_Node000001_Node000015"><a xlink:title=" ">
<path fill="none" stroke="#63b8ff" d="M1483.81,-71.63C1538.41,-63.35 1629.16,-48.94 1706.75,-33.5 1709.6,-32.93 1712.52,-32.33 1715.46,-31.71"/>
<polygon fill="#63b8ff" stroke="#63b8ff" points="1483.59,-68.13 1474.22,-73.08 1484.63,-75.05 1483.59,-68.13"/>
</a>
</g>
</g>
<!-- Node16 -->
<g id="Node000016" class="node">
<title>Node16</title>
<g id="a_Node000016"><a xlink:href="step__core_8c.html" target="_top" xlink:title=" ">
<polygon fill="white" stroke="#666666" points="1977.5,-33.5 1852,-33.5 1852,0 1977.5,0 1977.5,-33.5"/>
<text xml:space="preserve" text-anchor="start" x="1860" y="-20" font-family="Helvetica,sans-Serif" font-size="10.00">source/motion/stepper</text>
<text xml:space="preserve" text-anchor="middle" x="1914.75" y="-7.25" font-family="Helvetica,sans-Serif" font-size="10.00">/step_core.c</text>
</a>
</g>
</g>
<!-- Node1&#45;&gt;Node16 -->
<g id="edge15_Node000001_Node000016" class="edge">
<title>Node1&#45;&gt;Node16</title>
<g id="a_edge15_Node000001_Node000016"><a xlink:title=" ">
<path fill="none" stroke="#63b8ff" d="M1483.84,-75.09C1560.7,-68.78 1713.99,-54.68 1842.75,-33.5 1845.65,-33.02 1848.62,-32.5 1851.61,-31.95"/>
<polygon fill="#63b8ff" stroke="#63b8ff" points="1483.81,-71.58 1474.13,-75.87 1484.38,-78.55 1483.81,-71.58"/>
</a>
</g>
</g>
<!-- Node17 -->
<g id="Node000017" class="node">
<title>Node17</title>
<g id="a_Node000017"><a xlink:href="step__process_8c.html" target="_top" xlink:title=" ">
<polygon fill="white" stroke="#666666" points="2121.5,-33.5 1996,-33.5 1996,0 2121.5,0 2121.5,-33.5"/>
<text xml:space="preserve" text-anchor="start" x="2004" y="-20" font-family="Helvetica,sans-Serif" font-size="10.00">source/motion/stepper</text>
<text xml:space="preserve" text-anchor="middle" x="2058.75" y="-7.25" font-family="Helvetica,sans-Serif" font-size="10.00">/step_process.c</text>
</a>
</g>
</g>
<!-- Node1&#45;&gt;Node17 -->
<g id="edge16_Node000001_Node000017" class="edge">
<title>Node1&#45;&gt;Node17</title>
<g id="a_edge16_Node000001_Node000017"><a xlink:title=" ">
<path fill="none" stroke="#63b8ff" d="M1484.23,-77.02C1581.14,-72.9 1802.58,-61.09 1986.75,-33.5 1989.66,-33.06 1992.63,-32.58 1995.62,-32.06"/>
<polygon fill="#63b8ff" stroke="#63b8ff" points="1484.12,-73.52 1474.28,-77.43 1484.41,-80.52 1484.12,-73.52"/>
</a>
</g>
</g>
<!-- Node18 -->
<g id="Node000018" class="node">
<title>Node18</title>
<g id="a_Node000018"><a xlink:href="step__profile_8c.html" target="_top" xlink:title=" ">
<polygon fill="white" stroke="#666666" points="2265.5,-33.5 2140,-33.5 2140,0 2265.5,0 2265.5,-33.5"/>
<text xml:space="preserve" text-anchor="start" x="2148" y="-20" font-family="Helvetica,sans-Serif" font-size="10.00">source/motion/stepper</text>
<text xml:space="preserve" text-anchor="middle" x="2202.75" y="-7.25" font-family="Helvetica,sans-Serif" font-size="10.00">/step_profile.c</text>
</a>
</g>
</g>
<!-- Node1&#45;&gt;Node18 -->
<g id="edge17_Node000001_Node000018" class="edge">
<title>Node1&#45;&gt;Node18</title>
<g id="a_edge17_Node000001_Node000018"><a xlink:title=" ">
<path fill="none" stroke="#63b8ff" d="M1484.14,-78.2C1598.45,-76.08 1889.88,-67.5 2130.75,-33.5 2133.66,-33.09 2136.64,-32.62 2139.63,-32.12"/>
<polygon fill="#63b8ff" stroke="#63b8ff" points="1484.13,-74.7 1474.19,-78.37 1484.25,-81.7 1484.13,-74.7"/>
</a>
</g>
</g>
<!-- Node19 -->
<g id="Node000019" class="node">
<title>Node19</title>
<g id="a_Node000019"><a xlink:href="step__timing_8c.html" target="_top" xlink:title=" ">
<polygon fill="white" stroke="#666666" points="2409.5,-33.5 2284,-33.5 2284,0 2409.5,0 2409.5,-33.5"/>
<text xml:space="preserve" text-anchor="start" x="2292" y="-20" font-family="Helvetica,sans-Serif" font-size="10.00">source/motion/stepper</text>
<text xml:space="preserve" text-anchor="middle" x="2346.75" y="-7.25" font-family="Helvetica,sans-Serif" font-size="10.00">/step_timing.c</text>
</a>
</g>
</g>
<!-- Node1&#45;&gt;Node19 -->
<g id="edge18_Node000001_Node000019" class="edge">
<title>Node1&#45;&gt;Node19</title>
<g id="a_edge18_Node000001_Node000019"><a xlink:title=" ">
<path fill="none" stroke="#63b8ff" d="M1484.12,-78.98C1614.14,-78.66 1976.52,-73.9 2274.75,-33.5 2277.67,-33.1 2280.64,-32.65 2283.64,-32.16"/>
<polygon fill="#63b8ff" stroke="#63b8ff" points="1484.14,-75.48 1474.14,-79 1484.15,-82.48 1484.14,-75.48"/>
</a>
</g>
</g>
<!-- Node20 -->
<g id="Node000020" class="node">
<title>Node20</title>
<g id="a_Node000020"><a xlink:href="motorCmd_8c.html" target="_top" xlink:title=" ">
<polygon fill="white" stroke="#666666" points="2538.38,-27.12 2427.12,-27.12 2427.12,-6.38 2538.38,-6.38 2538.38,-27.12"/>
<text xml:space="preserve" text-anchor="middle" x="2482.75" y="-13.62" font-family="Helvetica,sans-Serif" font-size="10.00">source/motorCmd.c</text>
</a>
</g>
</g>
<!-- Node1&#45;&gt;Node20 -->
<g id="edge19_Node000001_Node000020" class="edge">
<title>Node1&#45;&gt;Node20</title>
<g id="a_edge19_Node000001_Node000020"><a xlink:title=" ">
<path fill="none" stroke="#63b8ff" d="M1484.07,-77.87C1657,-74.17 2235.31,-60.04 2418.75,-33.5 2428.38,-32.11 2438.67,-29.9 2448.12,-27.58"/>
<polygon fill="#63b8ff" stroke="#63b8ff" points="1484.24,-74.37 1474.31,-78.08 1484.38,-81.37 1484.24,-74.37"/>
</a>
</g>
</g>
<!-- Node21 -->
<g id="Node000021" class="node">
<title>Node21</title>
<g id="a_Node000021"><a xlink:href="motor__test_8c.html" target="_top" xlink:title=" ">
<polygon fill="white" stroke="#666666" points="2669.12,-27.12 2556.38,-27.12 2556.38,-6.38 2669.12,-6.38 2669.12,-27.12"/>
<text xml:space="preserve" text-anchor="middle" x="2612.75" y="-13.62" font-family="Helvetica,sans-Serif" font-size="10.00">source/motor_test.c</text>
</a>
</g>
</g>
<!-- Node1&#45;&gt;Node21 -->
<g id="edge20_Node000001_Node000021" class="edge">
<title>Node1&#45;&gt;Node21</title>
<g id="a_edge20_Node000001_Node000021"><a xlink:title=" ">
<path fill="none" stroke="#63b8ff" d="M1484.19,-78.15C1671.55,-75.22 2337.87,-62.91 2547.75,-33.5 2557.52,-32.13 2567.97,-29.93 2577.57,-27.61"/>
<polygon fill="#63b8ff" stroke="#63b8ff" points="1484.26,-74.65 1474.32,-78.31 1484.37,-81.65 1484.26,-74.65"/>
</a>
</g>
</g>
<!-- Node22 -->
<g id="Node000022" class="node">
<title>Node22</title>
<g id="a_Node000022"><a xlink:href="cmd__dispatch_8c.html" target="_top" xlink:title=" ">
<polygon fill="white" stroke="#666666" points="2800.5,-33.5 2687,-33.5 2687,0 2800.5,0 2800.5,-33.5"/>
<text xml:space="preserve" text-anchor="start" x="2695" y="-20" font-family="Helvetica,sans-Serif" font-size="10.00">source/task_helpers</text>
<text xml:space="preserve" text-anchor="middle" x="2743.75" y="-7.25" font-family="Helvetica,sans-Serif" font-size="10.00">/cmd_dispatch.c</text>
</a>
</g>
</g>
<!-- Node1&#45;&gt;Node22 -->
<g id="edge21_Node000001_Node000022" class="edge">
<title>Node1&#45;&gt;Node22</title>
<g id="a_edge21_Node000001_Node000022"><a xlink:title=" ">
<path fill="none" stroke="#63b8ff" d="M1483.91,-78.38C1684.42,-76.15 2440.95,-65.75 2677.75,-33.5 2680.67,-33.1 2683.65,-32.63 2686.64,-32.11"/>
<polygon fill="#63b8ff" stroke="#63b8ff" points="1484.07,-74.88 1474.11,-78.49 1484.15,-81.88 1484.07,-74.88"/>
</a>
</g>
</g>
<!-- Node23 -->
<g id="Node000023" class="node">
<title>Node23</title>
<g id="a_Node000023"><a xlink:href="cmd__handle_8c.html" target="_top" xlink:title=" ">
<polygon fill="white" stroke="#666666" points="2932.5,-33.5 2819,-33.5 2819,0 2932.5,0 2932.5,-33.5"/>
<text xml:space="preserve" text-anchor="start" x="2827" y="-20" font-family="Helvetica,sans-Serif" font-size="10.00">source/task_helpers</text>
<text xml:space="preserve" text-anchor="middle" x="2875.75" y="-7.25" font-family="Helvetica,sans-Serif" font-size="10.00">/cmd_handle.c</text>
</a>
</g>
</g>
<!-- Node1&#45;&gt;Node23 -->
<g id="edge22_Node000001_Node000023" class="edge">
<title>Node1&#45;&gt;Node23</title>
<g id="a_edge22_Node000001_Node000023"><a xlink:title=" ">
<path fill="none" stroke="#63b8ff" d="M1484.15,-78.58C1698.09,-77.08 2545.77,-68.98 2809.75,-33.5 2812.67,-33.11 2815.65,-32.64 2818.64,-32.12"/>
<polygon fill="#63b8ff" stroke="#63b8ff" points="1484.19,-75.08 1474.22,-78.64 1484.24,-82.08 1484.19,-75.08"/>
</a>
</g>
</g>
</g>
</svg>
