<?xml version="1.0" encoding="UTF-8" standalone="no"?>
<!DOCTYPE svg PUBLIC "-//W3C//DTD SVG 1.1//EN"
 "http://www.w3.org/Graphics/SVG/1.1/DTD/svg11.dtd">
<!-- Generated by graphviz version 14.1.2 (0)
 -->
<!-- Title: source/log.h Pages: 1 -->
<svg width="653pt" height="86pt"
 viewBox="0.00 0.00 653.00 86.00" xmlns="http://www.w3.org/2000/svg" xmlns:xlink="http://www.w3.org/1999/xlink">
<g id="graph0" class="graph" transform="scale(1 1) rotate(0) translate(4 81.5)">
<title>source/log.h</title>
<!-- Node1 -->
<g id="Node000001" class="node">
<title>Node1</title>
<g id="a_Node000001"><a xlink:title=" ">
<polygon fill="#999999" stroke="#666666" points="351.38,-77.5 276.12,-77.5 276.12,-56.75 351.38,-56.75 351.38,-77.5"/>
<text xml:space="preserve" text-anchor="middle" x="313.75" y="-64" font-family="Helvetica,sans-Serif" font-size="10.00">source/log.h</text>
</a>
</g>
</g>
<!-- Node2 -->
<g id="Node000002" class="node">
<title>Node2</title>
<g id="a_Node000002"><a xlink:href="application_8c.html" target="_top" xlink:title=" ">
<polygon fill="white" stroke="#666666" points="113.5,-20.75 0,-20.75 0,0 113.5,0 113.5,-20.75"/>
<text xml:space="preserve" text-anchor="middle" x="56.75" y="-7.25" font-family="Helvetica,sans-Serif" font-size="10.00">source/application.c</text>
</a>
</g>
</g>
<!-- Node1&#45;&gt;Node2 -->
<g id="edge1_Node000001_Node000002" class="edge">
<title>Node1&#45;&gt;Node2</title>
<g id="a_edge1_Node000001_Node000002"><a xlink:title=" ">
<path fill="none" stroke="#63b8ff" d="M264.81,-55.7C218.27,-45.78 148.77,-30.98 103.1,-21.25"/>
<polygon fill="#63b8ff" stroke="#63b8ff" points="263.84,-59.07 274.35,-57.73 265.3,-52.22 263.84,-59.07"/>
</a>
</g>
</g>
<!-- Node3 -->
<g id="Node000003" class="node">
<title>Node3</title>
<g id="a_Node000003"><a xlink:href="cli_8c.html" target="_top" xlink:title=" ">
<polygon fill="white" stroke="#666666" points="202.12,-20.75 131.38,-20.75 131.38,0 202.12,0 202.12,-20.75"/>
<text xml:space="preserve" text-anchor="middle" x="166.75" y="-7.25" font-family="Helvetica,sans-Serif" font-size="10.00">source/cli.c</text>
</a>
</g>
</g>
<!-- Node1&#45;&gt;Node3 -->
<g id="edge2_Node000001_Node000003" class="edge">
<title>Node1&#45;&gt;Node3</title>
<g id="a_edge2_Node000001_Node000003"><a xlink:title=" ">
<path fill="none" stroke="#63b8ff" d="M276.81,-52.37C250.63,-42.62 216.14,-29.77 192.8,-21.08"/>
<polygon fill="#63b8ff" stroke="#63b8ff" points="275.46,-55.6 286.05,-55.81 277.9,-49.04 275.46,-55.6"/>
</a>
</g>
</g>
<!-- Node4 -->
<g id="Node000004" class="node">
<title>Node4</title>
<g id="a_Node000004"><a xlink:href="log_8c.html" target="_top" xlink:title=" ">
<polygon fill="white" stroke="#666666" points="295,-20.75 220.5,-20.75 220.5,0 295,0 295,-20.75"/>
<text xml:space="preserve" text-anchor="middle" x="257.75" y="-7.25" font-family="Helvetica,sans-Serif" font-size="10.00">source/log.c</text>
</a>
</g>
</g>
<!-- Node1&#45;&gt;Node4 -->
<g id="edge3_Node000001_Node000004" class="edge">
<title>Node1&#45;&gt;Node4</title>
<g id="a_edge3_Node000001_Node000004"><a xlink:title=" ">
<path fill="none" stroke="#63b8ff" d="M295.52,-48.3C286.26,-39.25 275.38,-28.61 267.68,-21.08"/>
<polygon fill="#63b8ff" stroke="#63b8ff" points="293.06,-50.79 302.66,-55.28 297.95,-45.79 293.06,-50.79"/>
</a>
</g>
</g>
<!-- Node5 -->
<g id="Node000005" class="node">
<title>Node5</title>
<g id="a_Node000005"><a xlink:href="motor__test_8c.html" target="_top" xlink:title=" ">
<polygon fill="white" stroke="#666666" points="426.12,-20.75 313.38,-20.75 313.38,0 426.12,0 426.12,-20.75"/>
<text xml:space="preserve" text-anchor="middle" x="369.75" y="-7.25" font-family="Helvetica,sans-Serif" font-size="10.00">source/motor_test.c</text>
</a>
</g>
</g>
<!-- Node1&#45;&gt;Node5 -->
<g id="edge4_Node000001_Node000005" class="edge">
<title>Node1&#45;&gt;Node5</title>
<g id="a_edge4_Node000001_Node000005"><a xlink:title=" ">
<path fill="none" stroke="#63b8ff" d="M331.98,-48.3C341.24,-39.25 352.12,-28.61 359.82,-21.08"/>
<polygon fill="#63b8ff" stroke="#63b8ff" points="329.55,-45.79 324.84,-55.28 334.44,-50.79 329.55,-45.79"/>
</a>
</g>
</g>
<!-- Node6 -->
<g id="Node000006" class="node">
<title>Node6</title>
<g id="a_Node000006"><a xlink:href="step_8c.html" target="_top" xlink:title=" ">
<polygon fill="white" stroke="#666666" points="525,-20.75 444.5,-20.75 444.5,0 525,0 525,-20.75"/>
<text xml:space="preserve" text-anchor="middle" x="484.75" y="-7.25" font-family="Helvetica,sans-Serif" font-size="10.00">source/step.c</text>
</a>
</g>
</g>
<!-- Node1&#45;&gt;Node6 -->
<g id="edge5_Node000001_Node000006" class="edge">
<title>Node1&#45;&gt;Node6</title>
<g id="a_edge5_Node000001_Node000006"><a xlink:title=" ">
<path fill="none" stroke="#63b8ff" d="M355.06,-52.9C385.6,-43.12 426.51,-30.02 454.16,-21.17"/>
<polygon fill="#63b8ff" stroke="#63b8ff" points="354.22,-49.49 345.76,-55.88 356.35,-56.16 354.22,-49.49"/>
</a>
</g>
</g>
<!-- Node7 -->
<g id="Node000007" class="node">
<title>Node7</title>
<g id="a_Node000007"><a xlink:href="tmc2209_8c.html" target="_top" xlink:title=" ">
<polygon fill="white" stroke="#666666" points="644.88,-20.75 542.62,-20.75 542.62,0 644.88,0 644.88,-20.75"/>
<text xml:space="preserve" text-anchor="middle" x="593.75" y="-7.25" font-family="Helvetica,sans-Serif" font-size="10.00">source/tmc2209.c</text>
</a>
</g>
</g>
<!-- Node1&#45;&gt;Node7 -->
<g id="edge6_Node000001_Node000007" class="edge">
<title>Node1&#45;&gt;Node7</title>
<g id="a_edge6_Node000001_Node000007"><a xlink:title=" ">
<path fill="none" stroke="#63b8ff" d="M362.8,-56.53C413.52,-46.62 492.31,-31.21 543.47,-21.21"/>
<polygon fill="#63b8ff" stroke="#63b8ff" points="362.43,-53.04 353.29,-58.39 363.77,-59.91 362.43,-53.04"/>
</a>
</g>
</g>
</g>
</svg>
