<?xml version="1.0" encoding="UTF-8" standalone="no"?>
<!DOCTYPE svg PUBLIC "-//W3C//DTD SVG 1.1//EN"
 "http://www.w3.org/Graphics/SVG/1.1/DTD/svg11.dtd">
<!-- Generated by graphviz version 14.1.4 (0)
 -->
<!-- Title: source/log.c Pages: 1 -->
<svg width="769pt" height="142pt"
 viewBox="0.00 0.00 769.00 142.00" xmlns="http://www.w3.org/2000/svg" xmlns:xlink="http://www.w3.org/1999/xlink">
<g id="graph0" class="graph" transform="scale(1 1) rotate(0) translate(4 138.25)">
<title>source/log.c</title>
<!-- Node1 -->
<g id="Node000001" class="node">
<title>Node1</title>
<g id="a_Node000001"><a xlink:title=" ">
<polygon fill="#999999" stroke="#666666" points="360.12,-134.25 285.62,-134.25 285.62,-113.5 360.12,-113.5 360.12,-134.25"/>
<text xml:space="preserve" text-anchor="middle" x="322.88" y="-120.75" font-family="Helvetica,sans-Serif" font-size="10.00">source/log.c</text>
</a>
</g>
</g>
<!-- Node2 -->
<g id="Node000002" class="node">
<title>Node2</title>
<g id="a_Node000002"><a xlink:title=" ">
<polygon fill="#e0e0e0" stroke="#999999" points="279.62,-20.75 208.12,-20.75 208.12,0 279.62,0 279.62,-20.75"/>
<text xml:space="preserve" text-anchor="middle" x="243.88" y="-7.25" font-family="Helvetica,sans-Serif" font-size="10.00">FreeRTOS.h</text>
</a>
</g>
</g>
<!-- Node1&#45;&gt;Node2 -->
<g id="edge1_Node000001_Node000002" class="edge">
<title>Node1&#45;&gt;Node2</title>
<g id="a_edge1_Node000001_Node000002"><a xlink:title=" ">
<path fill="none" stroke="#63b8ff" d="M316.14,-113.37C303.15,-95.03 274.4,-54.45 257.33,-30.37"/>
<polygon fill="#63b8ff" stroke="#63b8ff" points="260.33,-28.55 251.69,-22.41 254.62,-32.59 260.33,-28.55"/>
</a>
</g>
</g>
<!-- Node3 -->
<g id="Node000003" class="node">
<title>Node3</title>
<g id="a_Node000003"><a xlink:title=" ">
<polygon fill="#e0e0e0" stroke="#999999" points="189.75,-20.75 98,-20.75 98,0 189.75,0 189.75,-20.75"/>
<text xml:space="preserve" text-anchor="middle" x="143.88" y="-7.25" font-family="Helvetica,sans-Serif" font-size="10.00">FreeRTOS_CLI.h</text>
</a>
</g>
</g>
<!-- Node1&#45;&gt;Node3 -->
<g id="edge2_Node000001_Node000003" class="edge">
<title>Node1&#45;&gt;Node3</title>
<g id="a_edge2_Node000001_Node000003"><a xlink:title=" ">
<path fill="none" stroke="#63b8ff" d="M285.43,-122.8C248.39,-120.63 192.64,-111.4 159.88,-77.5 148.32,-65.54 144.64,-46.74 143.66,-32.24"/>
<polygon fill="#63b8ff" stroke="#63b8ff" points="147.16,-32.3 143.41,-22.39 140.16,-32.48 147.16,-32.3"/>
</a>
</g>
</g>
<!-- Node4 -->
<g id="Node000004" class="node">
<title>Node4</title>
<g id="a_Node000004"><a xlink:href="cli_8h.html" target="_top" xlink:title=" ">
<polygon fill="white" stroke="#666666" points="113,-77.5 76.75,-77.5 76.75,-56.75 113,-56.75 113,-77.5"/>
<text xml:space="preserve" text-anchor="middle" x="94.88" y="-64" font-family="Helvetica,sans-Serif" font-size="10.00">cli.h</text>
</a>
</g>
</g>
<!-- Node1&#45;&gt;Node4 -->
<g id="edge3_Node000001_Node000004" class="edge">
<title>Node1&#45;&gt;Node4</title>
<g id="a_edge3_Node000001_Node000004"><a xlink:title=" ">
<path fill="none" stroke="#63b8ff" d="M285.14,-114.82C245.56,-106.2 181.61,-91.84 126.88,-77.5 126.06,-77.29 125.23,-77.06 124.39,-76.84"/>
<polygon fill="#63b8ff" stroke="#63b8ff" points="125.47,-73.51 114.89,-74.17 123.57,-80.25 125.47,-73.51"/>
</a>
</g>
</g>
<!-- Node5 -->
<g id="Node000005" class="node">
<title>Node5</title>
<g id="a_Node000005"><a xlink:title=" ">
<polygon fill="#e0e0e0" stroke="#999999" points="79.75,-20.75 0,-20.75 0,0 79.75,0 79.75,-20.75"/>
<text xml:space="preserve" text-anchor="middle" x="39.88" y="-7.25" font-family="Helvetica,sans-Serif" font-size="10.00">peripherals.h</text>
</a>
</g>
</g>
<!-- Node1&#45;&gt;Node5 -->
<g id="edge16_Node000001_Node000005" class="edge">
<title>Node1&#45;&gt;Node5</title>
<g id="a_edge16_Node000001_Node000005"><a xlink:title=" ">
<path fill="none" stroke="#63b8ff" d="M285.2,-120.53C222.63,-115.94 100.88,-103.82 67.88,-77.5 54.02,-66.45 46.91,-47.27 43.34,-32.41"/>
<polygon fill="#63b8ff" stroke="#63b8ff" points="46.79,-31.81 41.39,-22.69 39.93,-33.19 46.79,-31.81"/>
</a>
</g>
</g>
<!-- Node6 -->
<g id="Node000006" class="node">
<title>Node6</title>
<g id="a_Node000006"><a xlink:href="cli__utilities_8h.html" target="_top" xlink:title=" ">
<polygon fill="white" stroke="#666666" points="247,-77.5 168.75,-77.5 168.75,-56.75 247,-56.75 247,-77.5"/>
<text xml:space="preserve" text-anchor="middle" x="207.88" y="-64" font-family="Helvetica,sans-Serif" font-size="10.00">cli_utilities.h</text>
</a>
</g>
</g>
<!-- Node1&#45;&gt;Node6 -->
<g id="edge7_Node000001_Node000006" class="edge">
<title>Node1&#45;&gt;Node6</title>
<g id="a_edge7_Node000001_Node000006"><a xlink:title=" ">
<path fill="none" stroke="#63b8ff" d="M302.32,-113.09C284.57,-104.64 258.69,-92.32 238.51,-82.71"/>
<polygon fill="#63b8ff" stroke="#63b8ff" points="240.16,-79.62 229.62,-78.48 237.15,-85.94 240.16,-79.62"/>
</a>
</g>
</g>
<!-- Node8 -->
<g id="Node000008" class="node">
<title>Node8</title>
<g id="a_Node000008"><a xlink:href="disk_8h.html" target="_top" xlink:title=" ">
<polygon fill="white" stroke="#666666" points="655.5,-77.5 610.25,-77.5 610.25,-56.75 655.5,-56.75 655.5,-77.5"/>
<text xml:space="preserve" text-anchor="middle" x="632.88" y="-64" font-family="Helvetica,sans-Serif" font-size="10.00">disk.h</text>
</a>
</g>
</g>
<!-- Node1&#45;&gt;Node8 -->
<g id="edge11_Node000001_Node000008" class="edge">
<title>Node1&#45;&gt;Node8</title>
<g id="a_edge11_Node000001_Node000008"><a xlink:title=" ">
<path fill="none" stroke="#63b8ff" d="M360.19,-118.41C411.89,-111.87 508.38,-98.41 598.93,-77.96"/>
<polygon fill="#63b8ff" stroke="#63b8ff" points="599.51,-81.42 608.47,-75.77 597.94,-74.6 599.51,-81.42"/>
</a>
</g>
</g>
<!-- Node11 -->
<g id="Node000011" class="node">
<title>Node11</title>
<g id="a_Node000011"><a xlink:title=" ">
<polygon fill="#e0e0e0" stroke="#999999" points="452.38,-77.5 361.38,-77.5 361.38,-56.75 452.38,-56.75 452.38,-77.5"/>
<text xml:space="preserve" text-anchor="middle" x="406.88" y="-64" font-family="Helvetica,sans-Serif" font-size="10.00">event_groups.h</text>
</a>
</g>
</g>
<!-- Node1&#45;&gt;Node11 -->
<g id="edge15_Node000001_Node000011" class="edge">
<title>Node1&#45;&gt;Node11</title>
<g id="a_edge15_Node000001_Node000011"><a xlink:title=" ">
<path fill="none" stroke="#63b8ff" d="M337.89,-113.09C350.32,-104.99 368.2,-93.33 382.65,-83.92"/>
<polygon fill="#63b8ff" stroke="#63b8ff" points="384.25,-87.05 390.72,-78.65 380.43,-81.18 384.25,-87.05"/>
</a>
</g>
</g>
<!-- Node12 -->
<g id="Node000012" class="node">
<title>Node12</title>
<g id="a_Node000012"><a xlink:title=" ">
<polygon fill="#e0e0e0" stroke="#999999" points="525.38,-77.5 470.38,-77.5 470.38,-56.75 525.38,-56.75 525.38,-77.5"/>
<text xml:space="preserve" text-anchor="middle" x="497.88" y="-64" font-family="Helvetica,sans-Serif" font-size="10.00">queue.h</text>
</a>
</g>
</g>
<!-- Node1&#45;&gt;Node12 -->
<g id="edge17_Node000001_Node000012" class="edge">
<title>Node1&#45;&gt;Node12</title>
<g id="a_edge17_Node000001_Node000012"><a xlink:title=" ">
<path fill="none" stroke="#63b8ff" d="M354.16,-113.09C383.62,-103.87 427.83,-90.04 459.43,-80.15"/>
<polygon fill="#63b8ff" stroke="#63b8ff" points="460.09,-83.61 468.59,-77.29 458,-76.93 460.09,-83.61"/>
</a>
</g>
</g>
<!-- Node13 -->
<g id="Node000013" class="node">
<title>Node13</title>
<g id="a_Node000013"><a xlink:title=" ">
<polygon fill="#e0e0e0" stroke="#999999" points="592.38,-77.5 543.38,-77.5 543.38,-56.75 592.38,-56.75 592.38,-77.5"/>
<text xml:space="preserve" text-anchor="middle" x="567.88" y="-64" font-family="Helvetica,sans-Serif" font-size="10.00">stdio.h</text>
</a>
</g>
</g>
<!-- Node1&#45;&gt;Node13 -->
<g id="edge18_Node000001_Node000013" class="edge">
<title>Node1&#45;&gt;Node13</title>
<g id="a_edge18_Node000001_Node000013"><a xlink:title=" ">
<path fill="none" stroke="#63b8ff" d="M360.58,-115.59C400.86,-107.63 466.82,-94.11 532.15,-78.07"/>
<polygon fill="#63b8ff" stroke="#63b8ff" points="532.72,-81.53 541.59,-75.73 531.04,-74.74 532.72,-81.53"/>
</a>
</g>
</g>
<!-- Node14 -->
<g id="Node000014" class="node">
<title>Node14</title>
<g id="a_Node000014"><a xlink:href="log_8h.html" target="_top" xlink:title=" ">
<polygon fill="white" stroke="#666666" points="342.88,-77.5 302.88,-77.5 302.88,-56.75 342.88,-56.75 342.88,-77.5"/>
<text xml:space="preserve" text-anchor="middle" x="322.88" y="-64" font-family="Helvetica,sans-Serif" font-size="10.00">log.h</text>
</a>
</g>
</g>
<!-- Node1&#45;&gt;Node14 -->
<g id="edge19_Node000001_Node000014" class="edge">
<title>Node1&#45;&gt;Node14</title>
<g id="a_edge19_Node000001_Node000014"><a xlink:title=" ">
<path fill="none" stroke="#63b8ff" d="M322.88,-113.09C322.88,-106.47 322.88,-97.47 322.88,-89.27"/>
<polygon fill="#63b8ff" stroke="#63b8ff" points="326.38,-89.34 322.88,-79.34 319.38,-89.34 326.38,-89.34"/>
</a>
</g>
</g>
<!-- Node15 -->
<g id="Node000015" class="node">
<title>Node15</title>
<g id="a_Node000015"><a xlink:title=" ">
<polygon fill="#e0e0e0" stroke="#999999" points="760.5,-77.5 673.25,-77.5 673.25,-56.75 760.5,-56.75 760.5,-77.5"/>
<text xml:space="preserve" text-anchor="middle" x="716.88" y="-64" font-family="Helvetica,sans-Serif" font-size="10.00">SEGGER_RTT.h</text>
</a>
</g>
</g>
<!-- Node1&#45;&gt;Node15 -->
<g id="edge22_Node000001_Node000015" class="edge">
<title>Node1&#45;&gt;Node15</title>
<g id="a_edge22_Node000001_Node000015"><a xlink:title=" ">
<path fill="none" stroke="#63b8ff" d="M360.41,-118.47C421.47,-111.19 546.39,-95.76 661.79,-77.93"/>
<polygon fill="#63b8ff" stroke="#63b8ff" points="662.09,-81.43 671.43,-76.43 661.01,-74.51 662.09,-81.43"/>
</a>
</g>
</g>
<!-- Node4&#45;&gt;Node2 -->
<g id="edge4_Node000004_Node000002" class="edge">
<title>Node4&#45;&gt;Node2</title>
<g id="a_edge4_Node000004_Node000002"><a xlink:title=" ">
<path fill="none" stroke="#63b8ff" d="M113.44,-59.3C136.62,-50.79 176.81,-36.02 206.46,-25.12"/>
<polygon fill="#63b8ff" stroke="#63b8ff" points="207.66,-28.41 215.84,-21.68 205.24,-21.84 207.66,-28.41"/>
</a>
</g>
</g>
<!-- Node4&#45;&gt;Node3 -->
<g id="edge5_Node000004_Node000003" class="edge">
<title>Node4&#45;&gt;Node3</title>
<g id="a_edge5_Node000004_Node000003"><a xlink:title=" ">
<path fill="none" stroke="#63b8ff" d="M103.64,-56.34C110.32,-48.86 119.73,-38.36 127.76,-29.38"/>
<polygon fill="#63b8ff" stroke="#63b8ff" points="130.12,-31.99 134.18,-22.21 124.9,-27.32 130.12,-31.99"/>
</a>
</g>
</g>
<!-- Node4&#45;&gt;Node5 -->
<g id="edge6_Node000004_Node000005" class="edge">
<title>Node4&#45;&gt;Node5</title>
<g id="a_edge6_Node000004_Node000005"><a xlink:title=" ">
<path fill="none" stroke="#63b8ff" d="M85.04,-56.34C77.46,-48.78 66.76,-38.14 57.68,-29.1"/>
<polygon fill="#63b8ff" stroke="#63b8ff" points="60.25,-26.72 50.7,-22.15 55.31,-31.68 60.25,-26.72"/>
</a>
</g>
</g>
<!-- Node6&#45;&gt;Node2 -->
<g id="edge8_Node000006_Node000002" class="edge">
<title>Node6&#45;&gt;Node2</title>
<g id="a_edge8_Node000006_Node000002"><a xlink:title=" ">
<path fill="none" stroke="#63b8ff" d="M214.31,-56.34C219.02,-49.17 225.56,-39.23 231.29,-30.51"/>
<polygon fill="#63b8ff" stroke="#63b8ff" points="234.09,-32.62 236.66,-22.34 228.24,-28.78 234.09,-32.62"/>
</a>
</g>
</g>
<!-- Node6&#45;&gt;Node3 -->
<g id="edge9_Node000006_Node000003" class="edge">
<title>Node6&#45;&gt;Node3</title>
<g id="a_edge9_Node000006_Node000003"><a xlink:title=" ">
<path fill="none" stroke="#63b8ff" d="M196.43,-56.34C187.42,-48.63 174.64,-37.7 163.94,-28.54"/>
<polygon fill="#63b8ff" stroke="#63b8ff" points="166.24,-25.9 156.37,-22.06 161.69,-31.22 166.24,-25.9"/>
</a>
</g>
</g>
<!-- Node7 -->
<g id="Node000007" class="node">
<title>Node7</title>
<g id="a_Node000007"><a xlink:title=" ">
<polygon fill="#e0e0e0" stroke="#999999" points="382.38,-20.75 297.38,-20.75 297.38,0 382.38,0 382.38,-20.75"/>
<text xml:space="preserve" text-anchor="middle" x="339.88" y="-7.25" font-family="Helvetica,sans-Serif" font-size="10.00">fsl_common.h</text>
</a>
</g>
</g>
<!-- Node6&#45;&gt;Node7 -->
<g id="edge10_Node000006_Node000007" class="edge">
<title>Node6&#45;&gt;Node7</title>
<g id="a_edge10_Node000006_Node000007"><a xlink:title=" ">
<path fill="none" stroke="#63b8ff" d="M231.47,-56.34C252.22,-47.73 282.65,-35.11 305.99,-25.43"/>
<polygon fill="#63b8ff" stroke="#63b8ff" points="307.19,-28.72 315.08,-21.66 304.5,-22.26 307.19,-28.72"/>
</a>
</g>
</g>
<!-- Node8&#45;&gt;Node7 -->
<g id="edge13_Node000008_Node000007" class="edge">
<title>Node8&#45;&gt;Node7</title>
<g id="a_edge13_Node000008_Node000007"><a xlink:title=" ">
<path fill="none" stroke="#63b8ff" d="M609.94,-58.85C607.23,-58.09 604.5,-57.37 601.88,-56.75 530.73,-39.9 447.34,-26.53 394.08,-18.79"/>
<polygon fill="#63b8ff" stroke="#63b8ff" points="394.75,-15.35 384.36,-17.39 393.76,-22.28 394.75,-15.35"/>
</a>
</g>
</g>
<!-- Node9 -->
<g id="Node000009" class="node">
<title>Node9</title>
<g id="a_Node000009"><a xlink:title=" ">
<polygon fill="#e0e0e0" stroke="#999999" points="617.75,-20.75 586,-20.75 586,0 617.75,0 617.75,-20.75"/>
<text xml:space="preserve" text-anchor="middle" x="601.88" y="-7.25" font-family="Helvetica,sans-Serif" font-size="10.00">ff.h</text>
</a>
</g>
</g>
<!-- Node8&#45;&gt;Node9 -->
<g id="edge12_Node000008_Node000009" class="edge">
<title>Node8&#45;&gt;Node9</title>
<g id="a_edge12_Node000008_Node000009"><a xlink:title=" ">
<path fill="none" stroke="#63b8ff" d="M627.33,-56.34C623.37,-49.33 617.89,-39.66 613.03,-31.08"/>
<polygon fill="#63b8ff" stroke="#63b8ff" points="616.09,-29.37 608.11,-22.4 610,-32.82 616.09,-29.37"/>
</a>
</g>
</g>
<!-- Node10 -->
<g id="Node000010" class="node">
<title>Node10</title>
<g id="a_Node000010"><a xlink:title=" ">
<polygon fill="#e0e0e0" stroke="#999999" points="690,-20.75 635.75,-20.75 635.75,0 690,0 690,-20.75"/>
<text xml:space="preserve" text-anchor="middle" x="662.88" y="-7.25" font-family="Helvetica,sans-Serif" font-size="10.00">diskio.h</text>
</a>
</g>
</g>
<!-- Node8&#45;&gt;Node10 -->
<g id="edge14_Node000008_Node000010" class="edge">
<title>Node8&#45;&gt;Node10</title>
<g id="a_edge14_Node000008_Node000010"><a xlink:title=" ">
<path fill="none" stroke="#63b8ff" d="M638.24,-56.34C642.08,-49.33 647.38,-39.66 652.08,-31.08"/>
<polygon fill="#63b8ff" stroke="#63b8ff" points="655.09,-32.86 656.83,-22.41 648.96,-29.49 655.09,-32.86"/>
</a>
</g>
</g>
<!-- Node14&#45;&gt;Node2 -->
<g id="edge20_Node000014_Node000002" class="edge">
<title>Node14&#45;&gt;Node2</title>
<g id="a_edge20_Node000014_Node000002"><a xlink:title=" ">
<path fill="none" stroke="#63b8ff" d="M308.75,-56.34C297.18,-48.32 280.57,-36.81 267.06,-27.44"/>
<polygon fill="#63b8ff" stroke="#63b8ff" points="269.33,-24.76 259.12,-21.94 265.35,-30.51 269.33,-24.76"/>
</a>
</g>
</g>
<!-- Node14&#45;&gt;Node7 -->
<g id="edge21_Node000014_Node000007" class="edge">
<title>Node14&#45;&gt;Node7</title>
<g id="a_edge21_Node000014_Node000007"><a xlink:title=" ">
<path fill="none" stroke="#63b8ff" d="M325.91,-56.34C328.02,-49.56 330.89,-40.3 333.49,-31.94"/>
<polygon fill="#63b8ff" stroke="#63b8ff" points="336.79,-33.11 336.41,-22.52 330.11,-31.04 336.79,-33.11"/>
</a>
</g>
</g>
</g>
</svg>
