<?xml version="1.0" encoding="UTF-8" standalone="no"?>
<!DOCTYPE svg PUBLIC "-//W3C//DTD SVG 1.1//EN"
 "http://www.w3.org/Graphics/SVG/1.1/DTD/svg11.dtd">
<!-- Generated by graphviz version 14.1.3 (0)
 -->
<!-- Title: source/main.c Pages: 1 -->
<svg width="643pt" height="86pt"
 viewBox="0.00 0.00 643.00 86.00" xmlns="http://www.w3.org/2000/svg" xmlns:xlink="http://www.w3.org/1999/xlink">
<g id="graph0" class="graph" transform="scale(1 1) rotate(0) translate(4 81.5)">
<title>source/main.c</title>
<!-- Node1 -->
<g id="Node000001" class="node">
<title>Node1</title>
<g id="a_Node000001"><a xlink:title=" ">
<polygon fill="#999999" stroke="#666666" points="370.62,-77.5 286.38,-77.5 286.38,-56.75 370.62,-56.75 370.62,-77.5"/>
<text xml:space="preserve" text-anchor="middle" x="328.5" y="-64" font-family="Helvetica,sans-Serif" font-size="10.00">source/main.c</text>
</a>
</g>
</g>
<!-- Node2 -->
<g id="Node000002" class="node">
<title>Node2</title>
<g id="a_Node000002"><a xlink:href="application_8h.html" target="_top" xlink:title=" ">
<polygon fill="white" stroke="#666666" points="79,-20.75 0,-20.75 0,0 79,0 79,-20.75"/>
<text xml:space="preserve" text-anchor="middle" x="39.5" y="-7.25" font-family="Helvetica,sans-Serif" font-size="10.00">application.h</text>
</a>
</g>
</g>
<!-- Node1&#45;&gt;Node2 -->
<g id="edge1_Node000001_Node000002" class="edge">
<title>Node1&#45;&gt;Node2</title>
<g id="a_edge1_Node000001_Node000002"><a xlink:title=" ">
<path fill="none" stroke="#63b8ff" d="M286.01,-58.12C240.28,-49.5 165.12,-35.31 90.37,-21.1"/>
<polygon fill="#63b8ff" stroke="#63b8ff" points="91.31,-17.72 80.83,-19.29 90,-24.6 91.31,-17.72"/>
</a>
</g>
</g>
<!-- Node3 -->
<g id="Node000003" class="node">
<title>Node3</title>
<g id="a_Node000003"><a xlink:title=" ">
<polygon fill="#e0e0e0" stroke="#999999" points="149.88,-20.75 97.12,-20.75 97.12,0 149.88,0 149.88,-20.75"/>
<text xml:space="preserve" text-anchor="middle" x="123.5" y="-7.25" font-family="Helvetica,sans-Serif" font-size="10.00">board.h</text>
</a>
</g>
</g>
<!-- Node1&#45;&gt;Node3 -->
<g id="edge2_Node000001_Node000003" class="edge">
<title>Node1&#45;&gt;Node3</title>
<g id="a_edge2_Node000001_Node000003"><a xlink:title=" ">
<path fill="none" stroke="#63b8ff" d="M291.69,-56.31C259.61,-47.75 211.53,-34.93 161.33,-21.51"/>
<polygon fill="#63b8ff" stroke="#63b8ff" points="162.28,-18.14 151.71,-18.93 160.47,-24.9 162.28,-18.14"/>
</a>
</g>
</g>
<!-- Node4 -->
<g id="Node000004" class="node">
<title>Node4</title>
<g id="a_Node000004"><a xlink:title=" ">
<polygon fill="#e0e0e0" stroke="#999999" points="253,-20.75 168,-20.75 168,0 253,0 253,-20.75"/>
<text xml:space="preserve" text-anchor="middle" x="210.5" y="-7.25" font-family="Helvetica,sans-Serif" font-size="10.00">clock_config.h</text>
</a>
</g>
</g>
<!-- Node1&#45;&gt;Node4 -->
<g id="edge3_Node000001_Node000004" class="edge">
<title>Node1&#45;&gt;Node4</title>
<g id="a_edge3_Node000001_Node000004"><a xlink:title=" ">
<path fill="none" stroke="#63b8ff" d="M307.4,-56.34C289.11,-47.85 262.4,-35.45 241.64,-25.83"/>
<polygon fill="#63b8ff" stroke="#63b8ff" points="243.33,-22.75 232.79,-21.72 240.38,-29.1 243.33,-22.75"/>
</a>
</g>
</g>
<!-- Node5 -->
<g id="Node000005" class="node">
<title>Node5</title>
<g id="a_Node000005"><a xlink:title=" ">
<polygon fill="#e0e0e0" stroke="#999999" points="386,-20.75 271,-20.75 271,0 386,0 386,-20.75"/>
<text xml:space="preserve" text-anchor="middle" x="328.5" y="-7.25" font-family="Helvetica,sans-Serif" font-size="10.00">fsl_debug_console.h</text>
</a>
</g>
</g>
<!-- Node1&#45;&gt;Node5 -->
<g id="edge4_Node000001_Node000005" class="edge">
<title>Node1&#45;&gt;Node5</title>
<g id="a_edge4_Node000001_Node000005"><a xlink:title=" ">
<path fill="none" stroke="#63b8ff" d="M328.5,-56.34C328.5,-49.72 328.5,-40.72 328.5,-32.52"/>
<polygon fill="#63b8ff" stroke="#63b8ff" points="332,-32.59 328.5,-22.59 325,-32.59 332,-32.59"/>
</a>
</g>
</g>
<!-- Node6 -->
<g id="Node000006" class="node">
<title>Node6</title>
<g id="a_Node000006"><a xlink:title=" ">
<polygon fill="#e0e0e0" stroke="#999999" points="483.38,-20.75 403.62,-20.75 403.62,0 483.38,0 483.38,-20.75"/>
<text xml:space="preserve" text-anchor="middle" x="443.5" y="-7.25" font-family="Helvetica,sans-Serif" font-size="10.00">peripherals.h</text>
</a>
</g>
</g>
<!-- Node1&#45;&gt;Node6 -->
<g id="edge5_Node000001_Node000006" class="edge">
<title>Node1&#45;&gt;Node6</title>
<g id="a_edge5_Node000001_Node000006"><a xlink:title=" ">
<path fill="none" stroke="#63b8ff" d="M349.06,-56.34C366.8,-47.89 392.68,-35.57 412.87,-25.96"/>
<polygon fill="#63b8ff" stroke="#63b8ff" points="414.23,-29.19 421.75,-21.73 411.22,-22.87 414.23,-29.19"/>
</a>
</g>
</g>
<!-- Node7 -->
<g id="Node000007" class="node">
<title>Node7</title>
<g id="a_Node000007"><a xlink:title=" ">
<polygon fill="#e0e0e0" stroke="#999999" points="568,-20.75 501,-20.75 501,0 568,0 568,-20.75"/>
<text xml:space="preserve" text-anchor="middle" x="534.5" y="-7.25" font-family="Helvetica,sans-Serif" font-size="10.00">pin_mux.h</text>
</a>
</g>
</g>
<!-- Node1&#45;&gt;Node7 -->
<g id="edge6_Node000001_Node000007" class="edge">
<title>Node1&#45;&gt;Node7</title>
<g id="a_edge6_Node000001_Node000007"><a xlink:title=" ">
<path fill="none" stroke="#63b8ff" d="M365.33,-56.34C400.15,-47.08 452.46,-33.18 489.69,-23.28"/>
<polygon fill="#63b8ff" stroke="#63b8ff" points="490.49,-26.69 499.26,-20.74 488.69,-19.93 490.49,-26.69"/>
</a>
</g>
</g>
<!-- Node8 -->
<g id="Node000008" class="node">
<title>Node8</title>
<g id="a_Node000008"><a xlink:title=" ">
<polygon fill="#e0e0e0" stroke="#999999" points="635,-20.75 586,-20.75 586,0 635,0 635,-20.75"/>
<text xml:space="preserve" text-anchor="middle" x="610.5" y="-7.25" font-family="Helvetica,sans-Serif" font-size="10.00">stdio.h</text>
</a>
</g>
</g>
<!-- Node1&#45;&gt;Node8 -->
<g id="edge7_Node000001_Node000008" class="edge">
<title>Node1&#45;&gt;Node8</title>
<g id="a_edge7_Node000001_Node000008"><a xlink:title=" ">
<path fill="none" stroke="#63b8ff" d="M371.05,-59.65C418.6,-52.14 498.05,-38.75 574.88,-21.2"/>
<polygon fill="#63b8ff" stroke="#63b8ff" points="575.27,-24.7 584.23,-19.04 573.69,-17.88 575.27,-24.7"/>
</a>
</g>
</g>
</g>
</svg>
