<?xml version="1.0" encoding="UTF-8" standalone="no"?>
<!DOCTYPE svg PUBLIC "-//W3C//DTD SVG 1.1//EN"
 "http://www.w3.org/Graphics/SVG/1.1/DTD/svg11.dtd">
<!-- Generated by graphviz version 14.1.5 (0)
 -->
<!-- Title: source/display/McuFontDisplay.h Pages: 1 -->
<svg width="543pt" height="256pt"
 viewBox="0.00 0.00 543.00 256.00" xmlns="http://www.w3.org/2000/svg" xmlns:xlink="http://www.w3.org/1999/xlink">
<g id="graph0" class="graph" transform="scale(1 1) rotate(0) translate(4 251.75)">
<title>source/display/McuFontDisplay.h</title>
<!-- Node1 -->
<g id="Node000001" class="node">
<title>Node1</title>
<g id="a_Node000001"><a xlink:title="Driver to write fonts using GFont component.">
<polygon fill="#999999" stroke="#666666" points="361.75,-247.75 186.75,-247.75 186.75,-227 361.75,-227 361.75,-247.75"/>
<text xml:space="preserve" text-anchor="middle" x="274.25" y="-234.25" font-family="Helvetica,sans-Serif" font-size="10.00">source/display/McuFontDisplay.h</text>
</a>
</g>
</g>
<!-- Node2 -->
<g id="Node000002" class="node">
<title>Node2</title>
<g id="a_Node000002"><a xlink:href="McuFontDisplayconfig_8h.html" target="_top" xlink:title="Configuration header file for FontDisplay Copyright (c) 2020, Erich Styger SPDX&#45;License&#45;Identifier: B...">
<polygon fill="white" stroke="#666666" points="170.5,-191 0,-191 0,-170.25 170.5,-170.25 170.5,-191"/>
<text xml:space="preserve" text-anchor="middle" x="85.25" y="-177.5" font-family="Helvetica,sans-Serif" font-size="10.00">display/McuFontDisplayconfig.h</text>
</a>
</g>
</g>
<!-- Node1&#45;&gt;Node2 -->
<g id="edge1_Node000001_Node000002" class="edge">
<title>Node1&#45;&gt;Node2</title>
<g id="a_edge1_Node000001_Node000002"><a xlink:title=" ">
<path fill="none" stroke="#63b8ff" d="M240.46,-226.59C209.65,-217.66 163.9,-204.41 130.05,-194.6"/>
<polygon fill="#63b8ff" stroke="#63b8ff" points="131.1,-191.26 120.52,-191.84 129.15,-197.99 131.1,-191.26"/>
</a>
</g>
</g>
<!-- Node3 -->
<g id="Node000003" class="node">
<title>Node3</title>
<g id="a_Node000003"><a xlink:href="McuGDisplaySSD1306_8h.html" target="_top" xlink:title="Graphical display driver for LCD or other displays.">
<polygon fill="white" stroke="#666666" points="359.88,-191 188.62,-191 188.62,-170.25 359.88,-170.25 359.88,-191"/>
<text xml:space="preserve" text-anchor="middle" x="274.25" y="-177.5" font-family="Helvetica,sans-Serif" font-size="10.00">display/McuGDisplaySSD1306.h</text>
</a>
</g>
</g>
<!-- Node1&#45;&gt;Node3 -->
<g id="edge2_Node000001_Node000003" class="edge">
<title>Node1&#45;&gt;Node3</title>
<g id="a_edge2_Node000001_Node000003"><a xlink:title=" ">
<path fill="none" stroke="#63b8ff" d="M274.25,-226.59C274.25,-219.97 274.25,-210.97 274.25,-202.77"/>
<polygon fill="#63b8ff" stroke="#63b8ff" points="277.75,-202.84 274.25,-192.84 270.75,-202.84 277.75,-202.84"/>
</a>
</g>
</g>
<!-- Node10 -->
<g id="Node000010" class="node">
<title>Node10</title>
<g id="a_Node000010"><a xlink:href="McuGFont_8h.html" target="_top" xlink:title="Driver for graphical fonts.">
<polygon fill="white" stroke="#666666" points="490.25,-191 378.25,-191 378.25,-170.25 490.25,-170.25 490.25,-191"/>
<text xml:space="preserve" text-anchor="middle" x="434.25" y="-177.5" font-family="Helvetica,sans-Serif" font-size="10.00">display/McuGFont.h</text>
</a>
</g>
</g>
<!-- Node1&#45;&gt;Node10 -->
<g id="edge10_Node000001_Node000010" class="edge">
<title>Node1&#45;&gt;Node10</title>
<g id="a_edge10_Node000001_Node000010"><a xlink:title=" ">
<path fill="none" stroke="#63b8ff" d="M302.85,-226.59C328.49,-217.82 366.32,-204.87 394.82,-195.12"/>
<polygon fill="#63b8ff" stroke="#63b8ff" points="395.86,-198.46 404.19,-191.91 393.6,-191.84 395.86,-198.46"/>
</a>
</g>
</g>
<!-- Node4 -->
<g id="Node000004" class="node">
<title>Node4</title>
<g id="a_Node000004"><a xlink:href="McuGDisplaySSD1306config_8h.html" target="_top" xlink:title="Configuration header file for GDisplay Copyright (c) 2020, Erich Styger SPDX&#45;License&#45;Identifier: BSD&#45;...">
<polygon fill="white" stroke="#666666" points="272.5,-134.25 72,-134.25 72,-113.5 272.5,-113.5 272.5,-134.25"/>
<text xml:space="preserve" text-anchor="middle" x="172.25" y="-120.75" font-family="Helvetica,sans-Serif" font-size="10.00">display/McuGDisplaySSD1306config.h</text>
</a>
</g>
</g>
<!-- Node3&#45;&gt;Node4 -->
<g id="edge3_Node000003_Node000004" class="edge">
<title>Node3&#45;&gt;Node4</title>
<g id="a_edge3_Node000003_Node000004"><a xlink:title=" ">
<path fill="none" stroke="#63b8ff" d="M256.01,-169.84C240.57,-161.55 218.16,-149.52 200.41,-139.99"/>
<polygon fill="#63b8ff" stroke="#63b8ff" points="202.13,-136.94 191.66,-135.29 198.82,-143.11 202.13,-136.94"/>
</a>
</g>
</g>
<!-- Node5 -->
<g id="Node000005" class="node">
<title>Node5</title>
<g id="a_Node000005"><a xlink:href="McuSSD1306_8h.html" target="_top" xlink:title="Display driver for the SSD1306 OLED module.">
<polygon fill="white" stroke="#666666" points="306.75,-77.5 179.75,-77.5 179.75,-56.75 306.75,-56.75 306.75,-77.5"/>
<text xml:space="preserve" text-anchor="middle" x="243.25" y="-64" font-family="Helvetica,sans-Serif" font-size="10.00">display/McuSSD1306.h</text>
</a>
</g>
</g>
<!-- Node3&#45;&gt;Node5 -->
<g id="edge9_Node000003_Node000005" class="edge">
<title>Node3&#45;&gt;Node5</title>
<g id="a_edge9_Node000003_Node000005"><a xlink:title=" ">
<path fill="none" stroke="#63b8ff" d="M277.91,-169.88C282.28,-156.69 288.19,-132.6 281.25,-113.5 277.52,-103.23 270.32,-93.66 263.19,-85.98"/>
<polygon fill="#63b8ff" stroke="#63b8ff" points="265.7,-83.53 256.13,-78.97 260.77,-88.5 265.7,-83.53"/>
</a>
</g>
</g>
<!-- Node4&#45;&gt;Node5 -->
<g id="edge4_Node000004_Node000005" class="edge">
<title>Node4&#45;&gt;Node5</title>
<g id="a_edge4_Node000004_Node000005"><a xlink:title=" ">
<path fill="none" stroke="#63b8ff" d="M184.94,-113.09C195.14,-105.22 209.69,-94 221.71,-84.74"/>
<polygon fill="#63b8ff" stroke="#63b8ff" points="223.69,-87.63 229.47,-78.75 219.41,-82.09 223.69,-87.63"/>
</a>
</g>
</g>
<!-- Node6 -->
<g id="Node000006" class="node">
<title>Node6</title>
<g id="a_Node000006"><a xlink:href="display__config_8h.html" target="_top" xlink:title="Application configuration file for SSD1306 display driver Copyright (c) 2020, Erich Styger SPDX&#45;Licen...">
<polygon fill="white" stroke="#666666" points="168.62,-20.75 73.88,-20.75 73.88,0 168.62,0 168.62,-20.75"/>
<text xml:space="preserve" text-anchor="middle" x="121.25" y="-7.25" font-family="Helvetica,sans-Serif" font-size="10.00">display_config.h</text>
</a>
</g>
</g>
<!-- Node5&#45;&gt;Node6 -->
<g id="edge5_Node000005_Node000006" class="edge">
<title>Node5&#45;&gt;Node6</title>
<g id="a_edge5_Node000005_Node000006"><a xlink:title=" ">
<path fill="none" stroke="#63b8ff" d="M221.44,-56.34C202.44,-47.81 174.65,-35.34 153.16,-25.69"/>
<polygon fill="#63b8ff" stroke="#63b8ff" points="154.81,-22.6 144.25,-21.7 151.94,-28.99 154.81,-22.6"/>
</a>
</g>
</g>
<!-- Node7 -->
<g id="Node000007" class="node">
<title>Node7</title>
<g id="a_Node000007"><a xlink:title=" ">
<polygon fill="#e0e0e0" stroke="#999999" points="241.75,-20.75 186.75,-20.75 186.75,0 241.75,0 241.75,-20.75"/>
<text xml:space="preserve" text-anchor="middle" x="214.25" y="-7.25" font-family="Helvetica,sans-Serif" font-size="10.00">stddef.h</text>
</a>
</g>
</g>
<!-- Node5&#45;&gt;Node7 -->
<g id="edge6_Node000005_Node000007" class="edge">
<title>Node5&#45;&gt;Node7</title>
<g id="a_edge6_Node000005_Node000007"><a xlink:title=" ">
<path fill="none" stroke="#63b8ff" d="M238.07,-56.34C234.35,-49.33 229.23,-39.66 224.69,-31.08"/>
<polygon fill="#63b8ff" stroke="#63b8ff" points="227.87,-29.61 220.1,-22.42 221.69,-32.89 227.87,-29.61"/>
</a>
</g>
</g>
<!-- Node8 -->
<g id="Node000008" class="node">
<title>Node8</title>
<g id="a_Node000008"><a xlink:title=" ">
<polygon fill="#e0e0e0" stroke="#999999" points="320.75,-20.75 259.75,-20.75 259.75,0 320.75,0 320.75,-20.75"/>
<text xml:space="preserve" text-anchor="middle" x="290.25" y="-7.25" font-family="Helvetica,sans-Serif" font-size="10.00">stdbool.h</text>
</a>
</g>
</g>
<!-- Node5&#45;&gt;Node8 -->
<g id="edge7_Node000005_Node000008" class="edge">
<title>Node5&#45;&gt;Node8</title>
<g id="a_edge7_Node000005_Node000008"><a xlink:title=" ">
<path fill="none" stroke="#63b8ff" d="M251.65,-56.34C258,-48.94 266.9,-38.57 274.55,-29.66"/>
<polygon fill="#63b8ff" stroke="#63b8ff" points="277.08,-32.09 280.93,-22.23 271.76,-27.53 277.08,-32.09"/>
</a>
</g>
</g>
<!-- Node9 -->
<g id="Node000009" class="node">
<title>Node9</title>
<g id="a_Node000009"><a xlink:title=" ">
<polygon fill="#e0e0e0" stroke="#999999" points="391.62,-20.75 338.88,-20.75 338.88,0 391.62,0 391.62,-20.75"/>
<text xml:space="preserve" text-anchor="middle" x="365.25" y="-7.25" font-family="Helvetica,sans-Serif" font-size="10.00">stdint.h</text>
</a>
</g>
</g>
<!-- Node5&#45;&gt;Node9 -->
<g id="edge8_Node000005_Node000009" class="edge">
<title>Node5&#45;&gt;Node9</title>
<g id="a_edge8_Node000005_Node000009"><a xlink:title=" ">
<path fill="none" stroke="#63b8ff" d="M265.06,-56.34C284.06,-47.81 311.85,-35.34 333.34,-25.69"/>
<polygon fill="#63b8ff" stroke="#63b8ff" points="334.56,-28.99 342.25,-21.7 331.69,-22.6 334.56,-28.99"/>
</a>
</g>
</g>
<!-- Node10&#45;&gt;Node9 -->
<g id="edge12_Node000010_Node000009" class="edge">
<title>Node10&#45;&gt;Node9</title>
<g id="a_edge12_Node000010_Node000009"><a xlink:title=" ">
<path fill="none" stroke="#63b8ff" d="M418.98,-170.04C407.48,-161.96 392.36,-149.32 384.25,-134.25 366.75,-101.73 364.16,-57.79 364.36,-32.23"/>
<polygon fill="#63b8ff" stroke="#63b8ff" points="367.85,-32.58 364.6,-22.5 360.85,-32.41 367.85,-32.58"/>
</a>
</g>
</g>
<!-- Node11 -->
<g id="Node000011" class="node">
<title>Node11</title>
<g id="a_Node000011"><a xlink:href="McuGFontconfig_8h.html" target="_top" xlink:title="Configuration header file for GFont Copyright (c) 2020, Erich Styger SPDX&#45;License&#45;Identifier: BSD&#45;3&#45;C...">
<polygon fill="white" stroke="#666666" points="534.88,-134.25 393.62,-134.25 393.62,-113.5 534.88,-113.5 534.88,-134.25"/>
<text xml:space="preserve" text-anchor="middle" x="464.25" y="-120.75" font-family="Helvetica,sans-Serif" font-size="10.00">display/McuGFontconfig.h</text>
</a>
</g>
</g>
<!-- Node10&#45;&gt;Node11 -->
<g id="edge11_Node000010_Node000011" class="edge">
<title>Node10&#45;&gt;Node11</title>
<g id="a_edge11_Node000010_Node000011"><a xlink:title=" ">
<path fill="none" stroke="#63b8ff" d="M439.61,-169.84C443.45,-162.83 448.75,-153.16 453.45,-144.58"/>
<polygon fill="#63b8ff" stroke="#63b8ff" points="456.47,-146.36 458.21,-135.91 450.33,-142.99 456.47,-146.36"/>
</a>
</g>
</g>
</g>
</svg>
