<?xml version="1.0" encoding="UTF-8" standalone="no"?>
<!DOCTYPE svg PUBLIC "-//W3C//DTD SVG 1.1//EN"
 "http://www.w3.org/Graphics/SVG/1.1/DTD/svg11.dtd">
<!-- Generated by graphviz version 14.1.5 (0)
 -->
<!-- Title: source/display/McuFontCour10Normalconfig.h Pages: 1 -->
<svg width="310pt" height="181pt"
 viewBox="0.00 0.00 310.00 181.00" xmlns="http://www.w3.org/2000/svg" xmlns:xlink="http://www.w3.org/1999/xlink">
<g id="graph0" class="graph" transform="scale(1 1) rotate(0) translate(4 176.5)">
<title>source/display/McuFontCour10Normalconfig.h</title>
<!-- Node1 -->
<g id="Node000001" class="node">
<title>Node1</title>
<g id="a_Node000001"><a xlink:title="Configuration header file for GFont Copyright (c) 2020, Erich Styger SPDX&#45;License&#45;Identifier: BSD&#45;3&#45;C...">
<polygon fill="#999999" stroke="#666666" points="245.25,-172.5 80,-172.5 80,-139 245.25,-139 245.25,-172.5"/>
<text xml:space="preserve" text-anchor="start" x="88" y="-159" font-family="Helvetica,sans-Serif" font-size="10.00">source/display/McuFontCour10</text>
<text xml:space="preserve" text-anchor="middle" x="162.62" y="-146.25" font-family="Helvetica,sans-Serif" font-size="10.00">Normalconfig.h</text>
</a>
</g>
</g>
<!-- Node2 -->
<g id="Node000002" class="node">
<title>Node2</title>
<g id="a_Node000002"><a xlink:href="McuFontCour10Normal_8h.html" target="_top" xlink:title="Driver for graphical fonts.">
<polygon fill="white" stroke="#666666" points="245.25,-103 80,-103 80,-69.5 245.25,-69.5 245.25,-103"/>
<text xml:space="preserve" text-anchor="start" x="88" y="-89.5" font-family="Helvetica,sans-Serif" font-size="10.00">source/display/McuFontCour10</text>
<text xml:space="preserve" text-anchor="middle" x="162.62" y="-76.75" font-family="Helvetica,sans-Serif" font-size="10.00">Normal.h</text>
</a>
</g>
</g>
<!-- Node1&#45;&gt;Node2 -->
<g id="edge1_Node000001_Node000002" class="edge">
<title>Node1&#45;&gt;Node2</title>
<g id="a_edge1_Node000001_Node000002"><a xlink:title=" ">
<path fill="none" stroke="#63b8ff" d="M162.62,-127.31C162.62,-119.09 162.62,-110.34 162.62,-103.13"/>
<polygon fill="#63b8ff" stroke="#63b8ff" points="159.13,-127.24 162.63,-137.24 166.13,-127.24 159.13,-127.24"/>
</a>
</g>
</g>
<!-- Node3 -->
<g id="Node000003" class="node">
<title>Node3</title>
<g id="a_Node000003"><a xlink:href="McuFontCour10Normal_8c.html" target="_top" xlink:title=" ">
<polygon fill="white" stroke="#666666" points="165.25,-33.5 0,-33.5 0,0 165.25,0 165.25,-33.5"/>
<text xml:space="preserve" text-anchor="start" x="8" y="-20" font-family="Helvetica,sans-Serif" font-size="10.00">source/display/McuFontCour10</text>
<text xml:space="preserve" text-anchor="middle" x="82.62" y="-7.25" font-family="Helvetica,sans-Serif" font-size="10.00">Normal.c</text>
</a>
</g>
</g>
<!-- Node2&#45;&gt;Node3 -->
<g id="edge2_Node000002_Node000003" class="edge">
<title>Node2&#45;&gt;Node3</title>
<g id="a_edge2_Node000002_Node000003"><a xlink:title=" ">
<path fill="none" stroke="#63b8ff" d="M134.88,-61.84C123.93,-52.6 111.64,-42.23 101.73,-33.87"/>
<polygon fill="#63b8ff" stroke="#63b8ff" points="132.61,-64.5 142.51,-68.28 137.12,-59.15 132.61,-64.5"/>
</a>
</g>
</g>
<!-- Node4 -->
<g id="Node000004" class="node">
<title>Node4</title>
<g id="a_Node000004"><a xlink:href="statemachine__helpers_8c.html" target="_top" xlink:title="Command parsing and helper implementations for the state machine.">
<polygon fill="white" stroke="#666666" points="301.62,-33.5 183.62,-33.5 183.62,0 301.62,0 301.62,-33.5"/>
<text xml:space="preserve" text-anchor="start" x="191.62" y="-20" font-family="Helvetica,sans-Serif" font-size="10.00">source/statemachine</text>
<text xml:space="preserve" text-anchor="middle" x="242.62" y="-7.25" font-family="Helvetica,sans-Serif" font-size="10.00">_helpers.c</text>
</a>
</g>
</g>
<!-- Node2&#45;&gt;Node4 -->
<g id="edge3_Node000002_Node000004" class="edge">
<title>Node2&#45;&gt;Node4</title>
<g id="a_edge3_Node000002_Node000004"><a xlink:title=" ">
<path fill="none" stroke="#63b8ff" d="M190.37,-61.84C201.32,-52.6 213.61,-42.23 223.52,-33.87"/>
<polygon fill="#63b8ff" stroke="#63b8ff" points="188.13,-59.15 182.74,-68.28 192.64,-64.5 188.13,-59.15"/>
</a>
</g>
</g>
</g>
</svg>
