<?xml version="1.0" encoding="UTF-8" standalone="no"?>
<!DOCTYPE svg PUBLIC "-//W3C//DTD SVG 1.1//EN"
 "http://www.w3.org/Graphics/SVG/1.1/DTD/svg11.dtd">
<!-- Generated by graphviz version 14.1.5 (0)
 -->
<!-- Title: source/display/McuFontDisplay.c Pages: 1 -->
<svg width="570pt" height="313pt"
 viewBox="0.00 0.00 570.00 313.00" xmlns="http://www.w3.org/2000/svg" xmlns:xlink="http://www.w3.org/1999/xlink">
<g id="graph0" class="graph" transform="scale(1 1) rotate(0) translate(4 308.5)">
<title>source/display/McuFontDisplay.c</title>
<!-- Node1 -->
<g id="Node000001" class="node">
<title>Node1</title>
<g id="a_Node000001"><a xlink:title=" ">
<polygon fill="#999999" stroke="#666666" points="518.38,-304.5 344.12,-304.5 344.12,-283.75 518.38,-283.75 518.38,-304.5"/>
<text xml:space="preserve" text-anchor="middle" x="431.25" y="-291" font-family="Helvetica,sans-Serif" font-size="10.00">source/display/McuFontDisplay.c</text>
</a>
</g>
</g>
<!-- Node2 -->
<g id="Node000002" class="node">
<title>Node2</title>
<g id="a_Node000002"><a xlink:href="McuFontDisplay_8h.html" target="_top" xlink:title="Driver to write fonts using GFont component.">
<polygon fill="white" stroke="#666666" points="394.12,-247.75 254.38,-247.75 254.38,-227 394.12,-227 394.12,-247.75"/>
<text xml:space="preserve" text-anchor="middle" x="324.25" y="-234.25" font-family="Helvetica,sans-Serif" font-size="10.00">display/McuFontDisplay.h</text>
</a>
</g>
</g>
<!-- Node1&#45;&gt;Node2 -->
<g id="edge1_Node000001_Node000002" class="edge">
<title>Node1&#45;&gt;Node2</title>
<g id="a_edge1_Node000001_Node000002"><a xlink:title=" ">
<path fill="none" stroke="#63b8ff" d="M412.12,-283.34C395.76,-274.97 371.97,-262.79 353.27,-253.22"/>
<polygon fill="#63b8ff" stroke="#63b8ff" points="355.06,-250.21 344.56,-248.77 351.87,-256.44 355.06,-250.21"/>
</a>
</g>
</g>
<!-- Node8 -->
<g id="Node000008" class="node">
<title>Node8</title>
<g id="a_Node000008"><a xlink:title=" ">
<polygon fill="#e0e0e0" stroke="#999999" points="561.75,-20.75 506.75,-20.75 506.75,0 561.75,0 561.75,-20.75"/>
<text xml:space="preserve" text-anchor="middle" x="534.25" y="-7.25" font-family="Helvetica,sans-Serif" font-size="10.00">stddef.h</text>
</a>
</g>
</g>
<!-- Node1&#45;&gt;Node8 -->
<g id="edge14_Node000001_Node000008" class="edge">
<title>Node1&#45;&gt;Node8</title>
<g id="a_edge14_Node000001_Node000008"><a xlink:title=" ">
<path fill="none" stroke="#63b8ff" d="M451.88,-283.34C482.97,-266.99 538.25,-230.99 538.25,-181.62 538.25,-181.62 538.25,-181.62 538.25,-122.88 538.25,-91.46 536.64,-55.1 535.47,-32.67"/>
<polygon fill="#63b8ff" stroke="#63b8ff" points="538.97,-32.52 534.92,-22.73 531.98,-32.9 538.97,-32.52"/>
</a>
</g>
</g>
<!-- Node3 -->
<g id="Node000003" class="node">
<title>Node3</title>
<g id="a_Node000003"><a xlink:href="McuFontDisplayconfig_8h.html" target="_top" xlink:title="Configuration header file for FontDisplay Copyright (c) 2020, Erich Styger SPDX&#45;License&#45;Identifier: B...">
<polygon fill="white" stroke="#666666" points="170.5,-191 0,-191 0,-170.25 170.5,-170.25 170.5,-191"/>
<text xml:space="preserve" text-anchor="middle" x="85.25" y="-177.5" font-family="Helvetica,sans-Serif" font-size="10.00">display/McuFontDisplayconfig.h</text>
</a>
</g>
</g>
<!-- Node2&#45;&gt;Node3 -->
<g id="edge2_Node000002_Node000003" class="edge">
<title>Node2&#45;&gt;Node3</title>
<g id="a_edge2_Node000002_Node000003"><a xlink:title=" ">
<path fill="none" stroke="#63b8ff" d="M281.25,-226.52C241.52,-217.42 182.34,-203.87 139.41,-194.03"/>
<polygon fill="#63b8ff" stroke="#63b8ff" points="140.32,-190.65 129.79,-191.83 138.75,-197.47 140.32,-190.65"/>
</a>
</g>
</g>
<!-- Node4 -->
<g id="Node000004" class="node">
<title>Node4</title>
<g id="a_Node000004"><a xlink:href="McuGDisplaySSD1306_8h.html" target="_top" xlink:title="Graphical display driver for LCD or other displays.">
<polygon fill="white" stroke="#666666" points="489.88,-191 318.62,-191 318.62,-170.25 489.88,-170.25 489.88,-191"/>
<text xml:space="preserve" text-anchor="middle" x="404.25" y="-177.5" font-family="Helvetica,sans-Serif" font-size="10.00">display/McuGDisplaySSD1306.h</text>
</a>
</g>
</g>
<!-- Node2&#45;&gt;Node4 -->
<g id="edge3_Node000002_Node000004" class="edge">
<title>Node2&#45;&gt;Node4</title>
<g id="a_edge3_Node000002_Node000004"><a xlink:title=" ">
<path fill="none" stroke="#63b8ff" d="M338.55,-226.59C350.27,-218.57 367.09,-207.06 380.78,-197.69"/>
<polygon fill="#63b8ff" stroke="#63b8ff" points="382.55,-200.72 388.82,-192.18 378.59,-194.94 382.55,-200.72"/>
</a>
</g>
</g>
<!-- Node11 -->
<g id="Node000011" class="node">
<title>Node11</title>
<g id="a_Node000011"><a xlink:href="McuGFont_8h.html" target="_top" xlink:title="Driver for graphical fonts.">
<polygon fill="white" stroke="#666666" points="300.25,-191 188.25,-191 188.25,-170.25 300.25,-170.25 300.25,-191"/>
<text xml:space="preserve" text-anchor="middle" x="244.25" y="-177.5" font-family="Helvetica,sans-Serif" font-size="10.00">display/McuGFont.h</text>
</a>
</g>
</g>
<!-- Node2&#45;&gt;Node11 -->
<g id="edge11_Node000002_Node000011" class="edge">
<title>Node2&#45;&gt;Node11</title>
<g id="a_edge11_Node000002_Node000011"><a xlink:title=" ">
<path fill="none" stroke="#63b8ff" d="M309.95,-226.59C298.23,-218.57 281.41,-207.06 267.72,-197.69"/>
<polygon fill="#63b8ff" stroke="#63b8ff" points="269.91,-194.94 259.68,-192.18 265.95,-200.72 269.91,-194.94"/>
</a>
</g>
</g>
<!-- Node5 -->
<g id="Node000005" class="node">
<title>Node5</title>
<g id="a_Node000005"><a xlink:href="McuGDisplaySSD1306config_8h.html" target="_top" xlink:title="Configuration header file for GDisplay Copyright (c) 2020, Erich Styger SPDX&#45;License&#45;Identifier: BSD&#45;...">
<polygon fill="white" stroke="#666666" points="472.5,-134.25 272,-134.25 272,-113.5 472.5,-113.5 472.5,-134.25"/>
<text xml:space="preserve" text-anchor="middle" x="372.25" y="-120.75" font-family="Helvetica,sans-Serif" font-size="10.00">display/McuGDisplaySSD1306config.h</text>
</a>
</g>
</g>
<!-- Node4&#45;&gt;Node5 -->
<g id="edge4_Node000004_Node000005" class="edge">
<title>Node4&#45;&gt;Node5</title>
<g id="a_edge4_Node000004_Node000005"><a xlink:title=" ">
<path fill="none" stroke="#63b8ff" d="M398.53,-169.84C394.39,-162.75 388.65,-152.94 383.6,-144.29"/>
<polygon fill="#63b8ff" stroke="#63b8ff" points="386.75,-142.75 378.69,-135.89 380.71,-146.28 386.75,-142.75"/>
</a>
</g>
</g>
<!-- Node6 -->
<g id="Node000006" class="node">
<title>Node6</title>
<g id="a_Node000006"><a xlink:href="McuSSD1306_8h.html" target="_top" xlink:title="Display driver for the SSD1306 OLED module.">
<polygon fill="white" stroke="#666666" points="472.75,-77.5 345.75,-77.5 345.75,-56.75 472.75,-56.75 472.75,-77.5"/>
<text xml:space="preserve" text-anchor="middle" x="409.25" y="-64" font-family="Helvetica,sans-Serif" font-size="10.00">display/McuSSD1306.h</text>
</a>
</g>
</g>
<!-- Node4&#45;&gt;Node6 -->
<g id="edge10_Node000004_Node000006" class="edge">
<title>Node4&#45;&gt;Node6</title>
<g id="a_edge10_Node000004_Node000006"><a xlink:title=" ">
<path fill="none" stroke="#63b8ff" d="M435.36,-169.87C452.15,-162.84 471.4,-151.49 481.25,-134.25 493.43,-112.94 468.87,-94.61 445.2,-82.69"/>
<polygon fill="#63b8ff" stroke="#63b8ff" points="446.78,-79.56 436.24,-78.47 443.8,-85.9 446.78,-79.56"/>
</a>
</g>
</g>
<!-- Node5&#45;&gt;Node6 -->
<g id="edge5_Node000005_Node000006" class="edge">
<title>Node5&#45;&gt;Node6</title>
<g id="a_edge5_Node000005_Node000006"><a xlink:title=" ">
<path fill="none" stroke="#63b8ff" d="M378.86,-113.09C383.71,-105.92 390.43,-95.98 396.32,-87.26"/>
<polygon fill="#63b8ff" stroke="#63b8ff" points="399.15,-89.33 401.84,-79.08 393.35,-85.41 399.15,-89.33"/>
</a>
</g>
</g>
<!-- Node7 -->
<g id="Node000007" class="node">
<title>Node7</title>
<g id="a_Node000007"><a xlink:href="display__config_8h.html" target="_top" xlink:title="Application configuration file for SSD1306 display driver Copyright (c) 2020, Erich Styger SPDX&#45;Licen...">
<polygon fill="white" stroke="#666666" points="402.62,-20.75 307.88,-20.75 307.88,0 402.62,0 402.62,-20.75"/>
<text xml:space="preserve" text-anchor="middle" x="355.25" y="-7.25" font-family="Helvetica,sans-Serif" font-size="10.00">display_config.h</text>
</a>
</g>
</g>
<!-- Node6&#45;&gt;Node7 -->
<g id="edge6_Node000006_Node000007" class="edge">
<title>Node6&#45;&gt;Node7</title>
<g id="a_edge6_Node000006_Node000007"><a xlink:title=" ">
<path fill="none" stroke="#63b8ff" d="M399.6,-56.34C392.15,-48.78 381.64,-38.14 372.73,-29.1"/>
<polygon fill="#63b8ff" stroke="#63b8ff" points="375.4,-26.82 365.88,-22.16 370.41,-31.73 375.4,-26.82"/>
</a>
</g>
</g>
<!-- Node6&#45;&gt;Node8 -->
<g id="edge7_Node000006_Node000008" class="edge">
<title>Node6&#45;&gt;Node8</title>
<g id="a_edge7_Node000006_Node000008"><a xlink:title=" ">
<path fill="none" stroke="#63b8ff" d="M431.6,-56.34C451.06,-47.81 479.54,-35.34 501.56,-25.69"/>
<polygon fill="#63b8ff" stroke="#63b8ff" points="502.95,-28.9 510.71,-21.69 500.15,-22.49 502.95,-28.9"/>
</a>
</g>
</g>
<!-- Node9 -->
<g id="Node000009" class="node">
<title>Node9</title>
<g id="a_Node000009"><a xlink:title=" ">
<polygon fill="#e0e0e0" stroke="#999999" points="481.75,-20.75 420.75,-20.75 420.75,0 481.75,0 481.75,-20.75"/>
<text xml:space="preserve" text-anchor="middle" x="451.25" y="-7.25" font-family="Helvetica,sans-Serif" font-size="10.00">stdbool.h</text>
</a>
</g>
</g>
<!-- Node6&#45;&gt;Node9 -->
<g id="edge8_Node000006_Node000009" class="edge">
<title>Node6&#45;&gt;Node9</title>
<g id="a_edge8_Node000006_Node000009"><a xlink:title=" ">
<path fill="none" stroke="#63b8ff" d="M416.76,-56.34C422.37,-49.02 430.22,-38.79 437.01,-29.94"/>
<polygon fill="#63b8ff" stroke="#63b8ff" points="439.58,-32.34 442.89,-22.28 434.02,-28.08 439.58,-32.34"/>
</a>
</g>
</g>
<!-- Node10 -->
<g id="Node000010" class="node">
<title>Node10</title>
<g id="a_Node000010"><a xlink:title=" ">
<polygon fill="#e0e0e0" stroke="#999999" points="274.62,-20.75 221.88,-20.75 221.88,0 274.62,0 274.62,-20.75"/>
<text xml:space="preserve" text-anchor="middle" x="248.25" y="-7.25" font-family="Helvetica,sans-Serif" font-size="10.00">stdint.h</text>
</a>
</g>
</g>
<!-- Node6&#45;&gt;Node10 -->
<g id="edge9_Node000006_Node000010" class="edge">
<title>Node6&#45;&gt;Node10</title>
<g id="a_edge9_Node000006_Node000010"><a xlink:title=" ">
<path fill="none" stroke="#63b8ff" d="M380.47,-56.34C353.92,-47.31 314.36,-33.86 285.43,-24.02"/>
<polygon fill="#63b8ff" stroke="#63b8ff" points="286.94,-20.84 276.35,-20.93 284.69,-27.46 286.94,-20.84"/>
</a>
</g>
</g>
<!-- Node11&#45;&gt;Node10 -->
<g id="edge13_Node000011_Node000010" class="edge">
<title>Node11&#45;&gt;Node10</title>
<g id="a_edge13_Node000011_Node000010"><a xlink:title=" ">
<path fill="none" stroke="#63b8ff" d="M244.48,-170.1C245.1,-143.73 246.87,-69.33 247.75,-32.53"/>
<polygon fill="#63b8ff" stroke="#63b8ff" points="251.24,-32.81 247.98,-22.73 244.24,-32.64 251.24,-32.81"/>
</a>
</g>
</g>
<!-- Node12 -->
<g id="Node000012" class="node">
<title>Node12</title>
<g id="a_Node000012"><a xlink:href="McuGFontconfig_8h.html" target="_top" xlink:title="Configuration header file for GFont Copyright (c) 2020, Erich Styger SPDX&#45;License&#45;Identifier: BSD&#45;3&#45;C...">
<polygon fill="white" stroke="#666666" points="215.88,-134.25 74.62,-134.25 74.62,-113.5 215.88,-113.5 215.88,-134.25"/>
<text xml:space="preserve" text-anchor="middle" x="145.25" y="-120.75" font-family="Helvetica,sans-Serif" font-size="10.00">display/McuGFontconfig.h</text>
</a>
</g>
</g>
<!-- Node11&#45;&gt;Node12 -->
<g id="edge12_Node000011_Node000012" class="edge">
<title>Node11&#45;&gt;Node12</title>
<g id="a_edge12_Node000011_Node000012"><a xlink:title=" ">
<path fill="none" stroke="#63b8ff" d="M226.55,-169.84C211.63,-161.58 190.02,-149.63 172.83,-140.13"/>
<polygon fill="#63b8ff" stroke="#63b8ff" points="174.57,-137.09 164.12,-135.31 171.18,-143.21 174.57,-137.09"/>
</a>
</g>
</g>
</g>
</svg>
