<?xml version="1.0" encoding="UTF-8" standalone="no"?>
<!DOCTYPE svg PUBLIC "-//W3C//DTD SVG 1.1//EN"
 "http://www.w3.org/Graphics/SVG/1.1/DTD/svg11.dtd">
<!-- Generated by graphviz version 14.1.5 (0)
 -->
<!-- Title: source/display/McuFontDisplay.h Pages: 1 -->
<svg width="318pt" height="98pt"
 viewBox="0.00 0.00 318.00 98.00" xmlns="http://www.w3.org/2000/svg" xmlns:xlink="http://www.w3.org/1999/xlink">
<g id="graph0" class="graph" transform="scale(1 1) rotate(0) translate(4 94.25)">
<title>source/display/McuFontDisplay.h</title>
<!-- Node1 -->
<g id="Node000001" class="node">
<title>Node1</title>
<g id="a_Node000001"><a xlink:title="Driver to write fonts using GFont component.">
<polygon fill="#999999" stroke="#666666" points="256.62,-90.25 81.62,-90.25 81.62,-69.5 256.62,-69.5 256.62,-90.25"/>
<text xml:space="preserve" text-anchor="middle" x="169.12" y="-76.75" font-family="Helvetica,sans-Serif" font-size="10.00">source/display/McuFontDisplay.h</text>
</a>
</g>
</g>
<!-- Node2 -->
<g id="Node000002" class="node">
<title>Node2</title>
<g id="a_Node000002"><a xlink:href="McuFontDisplay_8c.html" target="_top" xlink:title=" ">
<polygon fill="white" stroke="#666666" points="174.25,-27.12 0,-27.12 0,-6.38 174.25,-6.38 174.25,-27.12"/>
<text xml:space="preserve" text-anchor="middle" x="87.12" y="-13.62" font-family="Helvetica,sans-Serif" font-size="10.00">source/display/McuFontDisplay.c</text>
</a>
</g>
</g>
<!-- Node1&#45;&gt;Node2 -->
<g id="edge1_Node000001_Node000002" class="edge">
<title>Node1&#45;&gt;Node2</title>
<g id="a_edge1_Node000001_Node000002"><a xlink:title=" ">
<path fill="none" stroke="#63b8ff" d="M146.87,-62.28C131.95,-51.16 112.81,-36.89 100.27,-27.55"/>
<polygon fill="#63b8ff" stroke="#63b8ff" points="144.63,-64.98 154.74,-68.15 148.81,-59.37 144.63,-64.98"/>
</a>
</g>
</g>
<!-- Node3 -->
<g id="Node000003" class="node">
<title>Node3</title>
<g id="a_Node000003"><a xlink:href="statemachine__helpers_8c.html" target="_top" xlink:title="Command parsing and helper implementations for the state machine.">
<polygon fill="white" stroke="#666666" points="310.12,-33.5 192.12,-33.5 192.12,0 310.12,0 310.12,-33.5"/>
<text xml:space="preserve" text-anchor="start" x="200.12" y="-20" font-family="Helvetica,sans-Serif" font-size="10.00">source/statemachine</text>
<text xml:space="preserve" text-anchor="middle" x="251.12" y="-7.25" font-family="Helvetica,sans-Serif" font-size="10.00">_helpers.c</text>
</a>
</g>
</g>
<!-- Node1&#45;&gt;Node3 -->
<g id="edge2_Node000001_Node000003" class="edge">
<title>Node1&#45;&gt;Node3</title>
<g id="a_edge2_Node000001_Node000003"><a xlink:title=" ">
<path fill="none" stroke="#63b8ff" d="M191.47,-62.22C203.25,-53.44 217.65,-42.71 229.35,-33.98"/>
<polygon fill="#63b8ff" stroke="#63b8ff" points="189.44,-59.37 183.51,-68.15 193.62,-64.98 189.44,-59.37"/>
</a>
</g>
</g>
</g>
</svg>
