<?xml version="1.0" encoding="UTF-8" standalone="no"?>
<!DOCTYPE svg PUBLIC "-//W3C//DTD SVG 1.1//EN"
 "http://www.w3.org/Graphics/SVG/1.1/DTD/svg11.dtd">
<!-- Generated by graphviz version 14.1.5 (0)
 -->
<!-- Title: source/display/McuGDisplaySSD1306.h Pages: 1 -->
<svg width="326pt" height="212pt"
 viewBox="0.00 0.00 326.00 212.00" xmlns="http://www.w3.org/2000/svg" xmlns:xlink="http://www.w3.org/1999/xlink">
<g id="graph0" class="graph" transform="scale(1 1) rotate(0) translate(4 207.75)">
<title>source/display/McuGDisplaySSD1306.h</title>
<!-- Node1 -->
<g id="Node000001" class="node">
<title>Node1</title>
<g id="a_Node000001"><a xlink:title="Graphical display driver for LCD or other displays.">
<polygon fill="#999999" stroke="#666666" points="255.38,-203.75 101.38,-203.75 101.38,-170.25 255.38,-170.25 255.38,-203.75"/>
<text xml:space="preserve" text-anchor="start" x="109.38" y="-190.25" font-family="Helvetica,sans-Serif" font-size="10.00">source/display/McuGDisplay</text>
<text xml:space="preserve" text-anchor="middle" x="178.38" y="-177.5" font-family="Helvetica,sans-Serif" font-size="10.00">SSD1306.h</text>
</a>
</g>
</g>
<!-- Node2 -->
<g id="Node000002" class="node">
<title>Node2</title>
<g id="a_Node000002"><a xlink:href="McuGDisplaySSD1306config_8h.html" target="_top" xlink:title="Configuration header file for GDisplay Copyright (c) 2020, Erich Styger SPDX&#45;License&#45;Identifier: BSD&#45;...">
<polygon fill="white" stroke="#666666" points="214.62,-134.25 14.12,-134.25 14.12,-113.5 214.62,-113.5 214.62,-134.25"/>
<text xml:space="preserve" text-anchor="middle" x="114.38" y="-120.75" font-family="Helvetica,sans-Serif" font-size="10.00">display/McuGDisplaySSD1306config.h</text>
</a>
</g>
</g>
<!-- Node1&#45;&gt;Node2 -->
<g id="edge1_Node000001_Node000002" class="edge">
<title>Node1&#45;&gt;Node2</title>
<g id="a_edge1_Node000001_Node000002"><a xlink:title=" ">
<path fill="none" stroke="#63b8ff" d="M161.56,-169.94C152.78,-161.56 142.02,-151.28 132.99,-142.66"/>
<polygon fill="#63b8ff" stroke="#63b8ff" points="135.42,-140.14 125.77,-135.76 130.59,-145.2 135.42,-140.14"/>
</a>
</g>
</g>
<!-- Node3 -->
<g id="Node000003" class="node">
<title>Node3</title>
<g id="a_Node000003"><a xlink:href="McuSSD1306_8h.html" target="_top" xlink:title="Display driver for the SSD1306 OLED module.">
<polygon fill="white" stroke="#666666" points="241.88,-77.5 114.88,-77.5 114.88,-56.75 241.88,-56.75 241.88,-77.5"/>
<text xml:space="preserve" text-anchor="middle" x="178.38" y="-64" font-family="Helvetica,sans-Serif" font-size="10.00">display/McuSSD1306.h</text>
</a>
</g>
</g>
<!-- Node1&#45;&gt;Node3 -->
<g id="edge7_Node000001_Node000003" class="edge">
<title>Node1&#45;&gt;Node3</title>
<g id="a_edge7_Node000001_Node000003"><a xlink:title=" ">
<path fill="none" stroke="#63b8ff" d="M197.8,-169.94C207.48,-160.65 218.2,-148.08 223.38,-134.25 226.61,-125.61 226.89,-122.03 223.38,-113.5 218.8,-102.38 210.03,-92.55 201.45,-84.9"/>
<polygon fill="#63b8ff" stroke="#63b8ff" points="203.87,-82.36 193.91,-78.72 199.43,-87.77 203.87,-82.36"/>
</a>
</g>
</g>
<!-- Node2&#45;&gt;Node3 -->
<g id="edge2_Node000002_Node000003" class="edge">
<title>Node2&#45;&gt;Node3</title>
<g id="a_edge2_Node000002_Node000003"><a xlink:title=" ">
<path fill="none" stroke="#63b8ff" d="M125.82,-113.09C134.83,-105.38 147.61,-94.45 158.31,-85.29"/>
<polygon fill="#63b8ff" stroke="#63b8ff" points="160.56,-87.97 165.88,-78.81 156.01,-82.65 160.56,-87.97"/>
</a>
</g>
</g>
<!-- Node4 -->
<g id="Node000004" class="node">
<title>Node4</title>
<g id="a_Node000004"><a xlink:href="display__config_8h.html" target="_top" xlink:title="Application configuration file for SSD1306 display driver Copyright (c) 2020, Erich Styger SPDX&#45;Licen...">
<polygon fill="white" stroke="#666666" points="94.75,-20.75 0,-20.75 0,0 94.75,0 94.75,-20.75"/>
<text xml:space="preserve" text-anchor="middle" x="47.38" y="-7.25" font-family="Helvetica,sans-Serif" font-size="10.00">display_config.h</text>
</a>
</g>
</g>
<!-- Node3&#45;&gt;Node4 -->
<g id="edge3_Node000003_Node000004" class="edge">
<title>Node3&#45;&gt;Node4</title>
<g id="a_edge3_Node000003_Node000004"><a xlink:title=" ">
<path fill="none" stroke="#63b8ff" d="M154.95,-56.34C134.37,-47.73 104.17,-35.11 81,-25.43"/>
<polygon fill="#63b8ff" stroke="#63b8ff" points="82.57,-22.29 71.99,-21.66 79.87,-28.75 82.57,-22.29"/>
</a>
</g>
</g>
<!-- Node5 -->
<g id="Node000005" class="node">
<title>Node5</title>
<g id="a_Node000005"><a xlink:title=" ">
<polygon fill="#e0e0e0" stroke="#999999" points="167.88,-20.75 112.88,-20.75 112.88,0 167.88,0 167.88,-20.75"/>
<text xml:space="preserve" text-anchor="middle" x="140.38" y="-7.25" font-family="Helvetica,sans-Serif" font-size="10.00">stddef.h</text>
</a>
</g>
</g>
<!-- Node3&#45;&gt;Node5 -->
<g id="edge4_Node000003_Node000005" class="edge">
<title>Node3&#45;&gt;Node5</title>
<g id="a_edge4_Node000003_Node000005"><a xlink:title=" ">
<path fill="none" stroke="#63b8ff" d="M171.58,-56.34C166.61,-49.17 159.71,-39.23 153.65,-30.51"/>
<polygon fill="#63b8ff" stroke="#63b8ff" points="156.55,-28.54 147.97,-22.32 150.8,-32.53 156.55,-28.54"/>
</a>
</g>
</g>
<!-- Node6 -->
<g id="Node000006" class="node">
<title>Node6</title>
<g id="a_Node000006"><a xlink:title=" ">
<polygon fill="#e0e0e0" stroke="#999999" points="246.88,-20.75 185.88,-20.75 185.88,0 246.88,0 246.88,-20.75"/>
<text xml:space="preserve" text-anchor="middle" x="216.38" y="-7.25" font-family="Helvetica,sans-Serif" font-size="10.00">stdbool.h</text>
</a>
</g>
</g>
<!-- Node3&#45;&gt;Node6 -->
<g id="edge5_Node000003_Node000006" class="edge">
<title>Node3&#45;&gt;Node6</title>
<g id="a_edge5_Node000003_Node000006"><a xlink:title=" ">
<path fill="none" stroke="#63b8ff" d="M185.17,-56.34C190.14,-49.17 197.04,-39.23 203.1,-30.51"/>
<polygon fill="#63b8ff" stroke="#63b8ff" points="205.95,-32.53 208.78,-22.32 200.2,-28.54 205.95,-32.53"/>
</a>
</g>
</g>
<!-- Node7 -->
<g id="Node000007" class="node">
<title>Node7</title>
<g id="a_Node000007"><a xlink:title=" ">
<polygon fill="#e0e0e0" stroke="#999999" points="317.75,-20.75 265,-20.75 265,0 317.75,0 317.75,-20.75"/>
<text xml:space="preserve" text-anchor="middle" x="291.38" y="-7.25" font-family="Helvetica,sans-Serif" font-size="10.00">stdint.h</text>
</a>
</g>
</g>
<!-- Node3&#45;&gt;Node7 -->
<g id="edge6_Node000003_Node000007" class="edge">
<title>Node3&#45;&gt;Node7</title>
<g id="a_edge6_Node000003_Node000007"><a xlink:title=" ">
<path fill="none" stroke="#63b8ff" d="M198.58,-56.34C215.93,-47.93 241.21,-35.68 261,-26.09"/>
<polygon fill="#63b8ff" stroke="#63b8ff" points="262.51,-29.25 269.99,-21.74 259.46,-22.95 262.51,-29.25"/>
</a>
</g>
</g>
</g>
</svg>
