<?xml version="1.0" encoding="UTF-8" standalone="no"?>
<!DOCTYPE svg PUBLIC "-//W3C//DTD SVG 1.1//EN"
 "http://www.w3.org/Graphics/SVG/1.1/DTD/svg11.dtd">
<!-- Generated by graphviz version 14.1.5 (0)
 -->
<!-- Title: source/display/McuGFontconfig.h Pages: 1 -->
<svg width="429pt" height="212pt"
 viewBox="0.00 0.00 429.00 212.00" xmlns="http://www.w3.org/2000/svg" xmlns:xlink="http://www.w3.org/1999/xlink">
<g id="graph0" class="graph" transform="scale(1 1) rotate(0) translate(4 207.75)">
<title>source/display/McuGFontconfig.h</title>
<!-- Node1 -->
<g id="Node000001" class="node">
<title>Node1</title>
<g id="a_Node000001"><a xlink:title="Configuration header file for GFont Copyright (c) 2020, Erich Styger SPDX&#45;License&#45;Identifier: BSD&#45;3&#45;C...">
<polygon fill="#999999" stroke="#666666" points="346.38,-203.75 169.88,-203.75 169.88,-183 346.38,-183 346.38,-203.75"/>
<text xml:space="preserve" text-anchor="middle" x="258.12" y="-190.25" font-family="Helvetica,sans-Serif" font-size="10.00">source/display/McuGFontconfig.h</text>
</a>
</g>
</g>
<!-- Node2 -->
<g id="Node000002" class="node">
<title>Node2</title>
<g id="a_Node000002"><a xlink:href="McuGFont_8h.html" target="_top" xlink:title="Driver for graphical fonts.">
<polygon fill="white" stroke="#666666" points="331.75,-147 184.5,-147 184.5,-126.25 331.75,-126.25 331.75,-147"/>
<text xml:space="preserve" text-anchor="middle" x="258.12" y="-133.5" font-family="Helvetica,sans-Serif" font-size="10.00">source/display/McuGFont.h</text>
</a>
</g>
</g>
<!-- Node1&#45;&gt;Node2 -->
<g id="edge1_Node000001_Node000002" class="edge">
<title>Node1&#45;&gt;Node2</title>
<g id="a_edge1_Node000001_Node000002"><a xlink:title=" ">
<path fill="none" stroke="#63b8ff" d="M258.12,-171.13C258.12,-162.91 258.12,-153.93 258.12,-147.33"/>
<polygon fill="#63b8ff" stroke="#63b8ff" points="254.63,-171.07 258.13,-181.07 261.63,-171.07 254.63,-171.07"/>
</a>
</g>
</g>
<!-- Node3 -->
<g id="Node000003" class="node">
<title>Node3</title>
<g id="a_Node000003"><a xlink:href="McuFontDisplay_8h.html" target="_top" xlink:title="Driver to write fonts using GFont component.">
<polygon fill="white" stroke="#666666" points="256.62,-90.25 81.62,-90.25 81.62,-69.5 256.62,-69.5 256.62,-90.25"/>
<text xml:space="preserve" text-anchor="middle" x="169.12" y="-76.75" font-family="Helvetica,sans-Serif" font-size="10.00">source/display/McuFontDisplay.h</text>
</a>
</g>
</g>
<!-- Node2&#45;&gt;Node3 -->
<g id="edge2_Node000002_Node000003" class="edge">
<title>Node2&#45;&gt;Node3</title>
<g id="a_edge2_Node000002_Node000003"><a xlink:title=" ">
<path fill="none" stroke="#63b8ff" d="M232.73,-120.01C217.33,-110.53 198.15,-98.73 184.9,-90.58"/>
<polygon fill="#63b8ff" stroke="#63b8ff" points="230.57,-122.79 240.92,-125.04 234.24,-116.82 230.57,-122.79"/>
</a>
</g>
</g>
<!-- Node6 -->
<g id="Node000006" class="node">
<title>Node6</title>
<g id="a_Node000006"><a xlink:href="McuGFont_8c.html" target="_top" xlink:title=" ">
<polygon fill="white" stroke="#666666" points="421.38,-90.25 274.88,-90.25 274.88,-69.5 421.38,-69.5 421.38,-90.25"/>
<text xml:space="preserve" text-anchor="middle" x="348.12" y="-76.75" font-family="Helvetica,sans-Serif" font-size="10.00">source/display/McuGFont.c</text>
</a>
</g>
</g>
<!-- Node2&#45;&gt;Node6 -->
<g id="edge5_Node000002_Node000006" class="edge">
<title>Node2&#45;&gt;Node6</title>
<g id="a_edge5_Node000002_Node000006"><a xlink:title=" ">
<path fill="none" stroke="#63b8ff" d="M283.8,-120.01C299.38,-110.53 318.78,-98.73 332.17,-90.58"/>
<polygon fill="#63b8ff" stroke="#63b8ff" points="282.23,-116.86 275.51,-125.05 285.87,-122.84 282.23,-116.86"/>
</a>
</g>
</g>
<!-- Node4 -->
<g id="Node000004" class="node">
<title>Node4</title>
<g id="a_Node000004"><a xlink:href="McuFontDisplay_8c.html" target="_top" xlink:title=" ">
<polygon fill="white" stroke="#666666" points="174.25,-27.12 0,-27.12 0,-6.38 174.25,-6.38 174.25,-27.12"/>
<text xml:space="preserve" text-anchor="middle" x="87.12" y="-13.62" font-family="Helvetica,sans-Serif" font-size="10.00">source/display/McuFontDisplay.c</text>
</a>
</g>
</g>
<!-- Node3&#45;&gt;Node4 -->
<g id="edge3_Node000003_Node000004" class="edge">
<title>Node3&#45;&gt;Node4</title>
<g id="a_edge3_Node000003_Node000004"><a xlink:title=" ">
<path fill="none" stroke="#63b8ff" d="M146.87,-62.28C131.95,-51.16 112.81,-36.89 100.27,-27.55"/>
<polygon fill="#63b8ff" stroke="#63b8ff" points="144.63,-64.98 154.74,-68.15 148.81,-59.37 144.63,-64.98"/>
</a>
</g>
</g>
<!-- Node5 -->
<g id="Node000005" class="node">
<title>Node5</title>
<g id="a_Node000005"><a xlink:href="statemachine__helpers_8c.html" target="_top" xlink:title="Command parsing and helper implementations for the state machine.">
<polygon fill="white" stroke="#666666" points="310.12,-33.5 192.12,-33.5 192.12,0 310.12,0 310.12,-33.5"/>
<text xml:space="preserve" text-anchor="start" x="200.12" y="-20" font-family="Helvetica,sans-Serif" font-size="10.00">source/statemachine</text>
<text xml:space="preserve" text-anchor="middle" x="251.12" y="-7.25" font-family="Helvetica,sans-Serif" font-size="10.00">_helpers.c</text>
</a>
</g>
</g>
<!-- Node3&#45;&gt;Node5 -->
<g id="edge4_Node000003_Node000005" class="edge">
<title>Node3&#45;&gt;Node5</title>
<g id="a_edge4_Node000003_Node000005"><a xlink:title=" ">
<path fill="none" stroke="#63b8ff" d="M191.47,-62.22C203.25,-53.44 217.65,-42.71 229.35,-33.98"/>
<polygon fill="#63b8ff" stroke="#63b8ff" points="189.44,-59.37 183.51,-68.15 193.62,-64.98 189.44,-59.37"/>
</a>
</g>
</g>
</g>
</svg>
