<?xml version="1.0" encoding="UTF-8" standalone="no"?>
<!DOCTYPE svg PUBLIC "-//W3C//DTD SVG 1.1//EN"
 "http://www.w3.org/Graphics/SVG/1.1/DTD/svg11.dtd">
<!-- Generated by graphviz version 14.1.5 (0)
 -->
<!-- Title: source/display/McuGFont.c Pages: 1 -->
<svg width="220pt" height="142pt"
 viewBox="0.00 0.00 220.00 142.00" xmlns="http://www.w3.org/2000/svg" xmlns:xlink="http://www.w3.org/1999/xlink">
<g id="graph0" class="graph" transform="scale(1 1) rotate(0) translate(4 138.25)">
<title>source/display/McuGFont.c</title>
<!-- Node1 -->
<g id="Node000001" class="node">
<title>Node1</title>
<g id="a_Node000001"><a xlink:title=" ">
<polygon fill="#999999" stroke="#666666" points="200.88,-134.25 54.38,-134.25 54.38,-113.5 200.88,-113.5 200.88,-134.25"/>
<text xml:space="preserve" text-anchor="middle" x="127.62" y="-120.75" font-family="Helvetica,sans-Serif" font-size="10.00">source/display/McuGFont.c</text>
</a>
</g>
</g>
<!-- Node2 -->
<g id="Node000002" class="node">
<title>Node2</title>
<g id="a_Node000002"><a xlink:href="McuGFont_8h.html" target="_top" xlink:title="Driver for graphical fonts.">
<polygon fill="white" stroke="#666666" points="183.62,-77.5 71.62,-77.5 71.62,-56.75 183.62,-56.75 183.62,-77.5"/>
<text xml:space="preserve" text-anchor="middle" x="127.62" y="-64" font-family="Helvetica,sans-Serif" font-size="10.00">display/McuGFont.h</text>
</a>
</g>
</g>
<!-- Node1&#45;&gt;Node2 -->
<g id="edge1_Node000001_Node000002" class="edge">
<title>Node1&#45;&gt;Node2</title>
<g id="a_edge1_Node000001_Node000002"><a xlink:title=" ">
<path fill="none" stroke="#63b8ff" d="M127.62,-113.09C127.62,-106.47 127.62,-97.47 127.62,-89.27"/>
<polygon fill="#63b8ff" stroke="#63b8ff" points="131.13,-89.34 127.63,-79.34 124.13,-89.34 131.13,-89.34"/>
</a>
</g>
</g>
<!-- Node3 -->
<g id="Node000003" class="node">
<title>Node3</title>
<g id="a_Node000003"><a xlink:href="McuGFontconfig_8h.html" target="_top" xlink:title="Configuration header file for GFont Copyright (c) 2020, Erich Styger SPDX&#45;License&#45;Identifier: BSD&#45;3&#45;C...">
<polygon fill="white" stroke="#666666" points="141.25,-20.75 0,-20.75 0,0 141.25,0 141.25,-20.75"/>
<text xml:space="preserve" text-anchor="middle" x="70.62" y="-7.25" font-family="Helvetica,sans-Serif" font-size="10.00">display/McuGFontconfig.h</text>
</a>
</g>
</g>
<!-- Node2&#45;&gt;Node3 -->
<g id="edge2_Node000002_Node000003" class="edge">
<title>Node2&#45;&gt;Node3</title>
<g id="a_edge2_Node000002_Node000003"><a xlink:title=" ">
<path fill="none" stroke="#63b8ff" d="M117.43,-56.34C109.49,-48.71 98.26,-37.92 88.79,-28.82"/>
<polygon fill="#63b8ff" stroke="#63b8ff" points="91.46,-26.53 81.82,-22.13 86.61,-31.58 91.46,-26.53"/>
</a>
</g>
</g>
<!-- Node4 -->
<g id="Node000004" class="node">
<title>Node4</title>
<g id="a_Node000004"><a xlink:title=" ">
<polygon fill="#e0e0e0" stroke="#999999" points="212,-20.75 159.25,-20.75 159.25,0 212,0 212,-20.75"/>
<text xml:space="preserve" text-anchor="middle" x="185.62" y="-7.25" font-family="Helvetica,sans-Serif" font-size="10.00">stdint.h</text>
</a>
</g>
</g>
<!-- Node2&#45;&gt;Node4 -->
<g id="edge3_Node000002_Node000004" class="edge">
<title>Node2&#45;&gt;Node4</title>
<g id="a_edge3_Node000002_Node000004"><a xlink:title=" ">
<path fill="none" stroke="#63b8ff" d="M137.99,-56.34C146.08,-48.71 157.51,-37.92 167.15,-28.82"/>
<polygon fill="#63b8ff" stroke="#63b8ff" points="169.38,-31.53 174.24,-22.12 164.57,-26.44 169.38,-31.53"/>
</a>
</g>
</g>
</g>
</svg>
