<?xml version="1.0" encoding="UTF-8" standalone="no"?>
<!DOCTYPE svg PUBLIC "-//W3C//DTD SVG 1.1//EN"
 "http://www.w3.org/Graphics/SVG/1.1/DTD/svg11.dtd">
<!-- Generated by graphviz version 14.1.5 (0)
 -->
<!-- Title: source/display/McuGDisplaySSD1306config.h Pages: 1 -->
<svg width="326pt" height="155pt"
 viewBox="0.00 0.00 326.00 155.00" xmlns="http://www.w3.org/2000/svg" xmlns:xlink="http://www.w3.org/1999/xlink">
<g id="graph0" class="graph" transform="scale(1 1) rotate(0) translate(4 151)">
<title>source/display/McuGDisplaySSD1306config.h</title>
<!-- Node1 -->
<g id="Node000001" class="node">
<title>Node1</title>
<g id="a_Node000001"><a xlink:title="Configuration header file for GDisplay Copyright (c) 2020, Erich Styger SPDX&#45;License&#45;Identifier: BSD&#45;...">
<polygon fill="#999999" stroke="#666666" points="255.38,-147 101.38,-147 101.38,-113.5 255.38,-113.5 255.38,-147"/>
<text xml:space="preserve" text-anchor="start" x="109.38" y="-133.5" font-family="Helvetica,sans-Serif" font-size="10.00">source/display/McuGDisplay</text>
<text xml:space="preserve" text-anchor="middle" x="178.38" y="-120.75" font-family="Helvetica,sans-Serif" font-size="10.00">SSD1306config.h</text>
</a>
</g>
</g>
<!-- Node2 -->
<g id="Node000002" class="node">
<title>Node2</title>
<g id="a_Node000002"><a xlink:href="McuSSD1306_8h.html" target="_top" xlink:title="Display driver for the SSD1306 OLED module.">
<polygon fill="white" stroke="#666666" points="241.88,-77.5 114.88,-77.5 114.88,-56.75 241.88,-56.75 241.88,-77.5"/>
<text xml:space="preserve" text-anchor="middle" x="178.38" y="-64" font-family="Helvetica,sans-Serif" font-size="10.00">display/McuSSD1306.h</text>
</a>
</g>
</g>
<!-- Node1&#45;&gt;Node2 -->
<g id="edge1_Node000001_Node000002" class="edge">
<title>Node1&#45;&gt;Node2</title>
<g id="a_edge1_Node000001_Node000002"><a xlink:title=" ">
<path fill="none" stroke="#63b8ff" d="M178.38,-113.19C178.38,-105.85 178.38,-97.07 178.38,-89.21"/>
<polygon fill="#63b8ff" stroke="#63b8ff" points="181.88,-89.48 178.38,-79.48 174.88,-89.48 181.88,-89.48"/>
</a>
</g>
</g>
<!-- Node3 -->
<g id="Node000003" class="node">
<title>Node3</title>
<g id="a_Node000003"><a xlink:href="display__config_8h.html" target="_top" xlink:title="Application configuration file for SSD1306 display driver Copyright (c) 2020, Erich Styger SPDX&#45;Licen...">
<polygon fill="white" stroke="#666666" points="94.75,-20.75 0,-20.75 0,0 94.75,0 94.75,-20.75"/>
<text xml:space="preserve" text-anchor="middle" x="47.38" y="-7.25" font-family="Helvetica,sans-Serif" font-size="10.00">display_config.h</text>
</a>
</g>
</g>
<!-- Node2&#45;&gt;Node3 -->
<g id="edge2_Node000002_Node000003" class="edge">
<title>Node2&#45;&gt;Node3</title>
<g id="a_edge2_Node000002_Node000003"><a xlink:title=" ">
<path fill="none" stroke="#63b8ff" d="M154.95,-56.34C134.37,-47.73 104.17,-35.11 81,-25.43"/>
<polygon fill="#63b8ff" stroke="#63b8ff" points="82.57,-22.29 71.99,-21.66 79.87,-28.75 82.57,-22.29"/>
</a>
</g>
</g>
<!-- Node4 -->
<g id="Node000004" class="node">
<title>Node4</title>
<g id="a_Node000004"><a xlink:title=" ">
<polygon fill="#e0e0e0" stroke="#999999" points="167.88,-20.75 112.88,-20.75 112.88,0 167.88,0 167.88,-20.75"/>
<text xml:space="preserve" text-anchor="middle" x="140.38" y="-7.25" font-family="Helvetica,sans-Serif" font-size="10.00">stddef.h</text>
</a>
</g>
</g>
<!-- Node2&#45;&gt;Node4 -->
<g id="edge3_Node000002_Node000004" class="edge">
<title>Node2&#45;&gt;Node4</title>
<g id="a_edge3_Node000002_Node000004"><a xlink:title=" ">
<path fill="none" stroke="#63b8ff" d="M171.58,-56.34C166.61,-49.17 159.71,-39.23 153.65,-30.51"/>
<polygon fill="#63b8ff" stroke="#63b8ff" points="156.55,-28.54 147.97,-22.32 150.8,-32.53 156.55,-28.54"/>
</a>
</g>
</g>
<!-- Node5 -->
<g id="Node000005" class="node">
<title>Node5</title>
<g id="a_Node000005"><a xlink:title=" ">
<polygon fill="#e0e0e0" stroke="#999999" points="246.88,-20.75 185.88,-20.75 185.88,0 246.88,0 246.88,-20.75"/>
<text xml:space="preserve" text-anchor="middle" x="216.38" y="-7.25" font-family="Helvetica,sans-Serif" font-size="10.00">stdbool.h</text>
</a>
</g>
</g>
<!-- Node2&#45;&gt;Node5 -->
<g id="edge4_Node000002_Node000005" class="edge">
<title>Node2&#45;&gt;Node5</title>
<g id="a_edge4_Node000002_Node000005"><a xlink:title=" ">
<path fill="none" stroke="#63b8ff" d="M185.17,-56.34C190.14,-49.17 197.04,-39.23 203.1,-30.51"/>
<polygon fill="#63b8ff" stroke="#63b8ff" points="205.95,-32.53 208.78,-22.32 200.2,-28.54 205.95,-32.53"/>
</a>
</g>
</g>
<!-- Node6 -->
<g id="Node000006" class="node">
<title>Node6</title>
<g id="a_Node000006"><a xlink:title=" ">
<polygon fill="#e0e0e0" stroke="#999999" points="317.75,-20.75 265,-20.75 265,0 317.75,0 317.75,-20.75"/>
<text xml:space="preserve" text-anchor="middle" x="291.38" y="-7.25" font-family="Helvetica,sans-Serif" font-size="10.00">stdint.h</text>
</a>
</g>
</g>
<!-- Node2&#45;&gt;Node6 -->
<g id="edge5_Node000002_Node000006" class="edge">
<title>Node2&#45;&gt;Node6</title>
<g id="a_edge5_Node000002_Node000006"><a xlink:title=" ">
<path fill="none" stroke="#63b8ff" d="M198.58,-56.34C215.93,-47.93 241.21,-35.68 261,-26.09"/>
<polygon fill="#63b8ff" stroke="#63b8ff" points="262.51,-29.25 269.99,-21.74 259.46,-22.95 262.51,-29.25"/>
</a>
</g>
</g>
</g>
</svg>
