<?xml version="1.0" encoding="UTF-8" standalone="no"?>
<!DOCTYPE svg PUBLIC "-//W3C//DTD SVG 1.1//EN"
 "http://www.w3.org/Graphics/SVG/1.1/DTD/svg11.dtd">
<!-- Generated by graphviz version 14.1.5 (0)
 -->
<!-- Title: source/display/McuSSD1306.c Pages: 1 -->
<svg width="670pt" height="142pt"
 viewBox="0.00 0.00 670.00 142.00" xmlns="http://www.w3.org/2000/svg" xmlns:xlink="http://www.w3.org/1999/xlink">
<g id="graph0" class="graph" transform="scale(1 1) rotate(0) translate(4 138.25)">
<title>source/display/McuSSD1306.c</title>
<!-- Node1 -->
<g id="Node000001" class="node">
<title>Node1</title>
<g id="a_Node000001"><a xlink:title=" ">
<polygon fill="#999999" stroke="#666666" points="499.12,-134.25 337.62,-134.25 337.62,-113.5 499.12,-113.5 499.12,-134.25"/>
<text xml:space="preserve" text-anchor="middle" x="418.38" y="-120.75" font-family="Helvetica,sans-Serif" font-size="10.00">source/display/McuSSD1306.c</text>
</a>
</g>
</g>
<!-- Node2 -->
<g id="Node000002" class="node">
<title>Node2</title>
<g id="a_Node000002"><a xlink:href="McuSSD1306_8h.html" target="_top" xlink:title="Display driver for the SSD1306 OLED module.">
<polygon fill="white" stroke="#666666" points="241.88,-77.5 114.88,-77.5 114.88,-56.75 241.88,-56.75 241.88,-77.5"/>
<text xml:space="preserve" text-anchor="middle" x="178.38" y="-64" font-family="Helvetica,sans-Serif" font-size="10.00">display/McuSSD1306.h</text>
</a>
</g>
</g>
<!-- Node1&#45;&gt;Node2 -->
<g id="edge1_Node000001_Node000002" class="edge">
<title>Node1&#45;&gt;Node2</title>
<g id="a_edge1_Node000001_Node000002"><a xlink:title=" ">
<path fill="none" stroke="#63b8ff" d="M375.19,-113.02C335.3,-103.92 275.87,-90.37 232.76,-80.53"/>
<polygon fill="#63b8ff" stroke="#63b8ff" points="233.62,-77.14 223.09,-78.33 232.06,-83.96 233.62,-77.14"/>
</a>
</g>
</g>
<!-- Node7 -->
<g id="Node000007" class="node">
<title>Node7</title>
<g id="a_Node000007"><a xlink:title=" ">
<polygon fill="#e0e0e0" stroke="#999999" points="312.75,-77.5 260,-77.5 260,-56.75 312.75,-56.75 312.75,-77.5"/>
<text xml:space="preserve" text-anchor="middle" x="286.38" y="-64" font-family="Helvetica,sans-Serif" font-size="10.00">string.h</text>
</a>
</g>
</g>
<!-- Node1&#45;&gt;Node7 -->
<g id="edge6_Node000001_Node000007" class="edge">
<title>Node1&#45;&gt;Node7</title>
<g id="a_edge6_Node000001_Node000007"><a xlink:title=" ">
<path fill="none" stroke="#63b8ff" d="M394.78,-113.09C374.03,-104.48 343.6,-91.86 320.26,-82.18"/>
<polygon fill="#63b8ff" stroke="#63b8ff" points="321.75,-79.01 311.17,-78.41 319.06,-85.47 321.75,-79.01"/>
</a>
</g>
</g>
<!-- Node8 -->
<g id="Node000008" class="node">
<title>Node8</title>
<g id="a_Node000008"><a xlink:title=" ">
<polygon fill="#e0e0e0" stroke="#999999" points="455.88,-20.75 370.88,-20.75 370.88,0 455.88,0 455.88,-20.75"/>
<text xml:space="preserve" text-anchor="middle" x="413.38" y="-7.25" font-family="Helvetica,sans-Serif" font-size="10.00">fsl_common.h</text>
</a>
</g>
</g>
<!-- Node1&#45;&gt;Node8 -->
<g id="edge7_Node000001_Node000008" class="edge">
<title>Node1&#45;&gt;Node8</title>
<g id="a_edge7_Node000001_Node000008"><a xlink:title=" ">
<path fill="none" stroke="#63b8ff" d="M397.35,-113.04C383.78,-105.43 367.25,-93.5 359.38,-77.5 349.9,-58.25 368.41,-39.63 386.28,-27.08"/>
<polygon fill="#63b8ff" stroke="#63b8ff" points="387.7,-30.33 394.15,-21.92 383.87,-24.47 387.7,-30.33"/>
</a>
</g>
</g>
<!-- Node9 -->
<g id="Node000009" class="node">
<title>Node9</title>
<g id="a_Node000009"><a xlink:title=" ">
<polygon fill="#e0e0e0" stroke="#999999" points="468.38,-77.5 368.38,-77.5 368.38,-56.75 468.38,-56.75 468.38,-77.5"/>
<text xml:space="preserve" text-anchor="middle" x="418.38" y="-64" font-family="Helvetica,sans-Serif" font-size="10.00">fsl_i2c_freertos.h</text>
</a>
</g>
</g>
<!-- Node1&#45;&gt;Node9 -->
<g id="edge8_Node000001_Node000009" class="edge">
<title>Node1&#45;&gt;Node9</title>
<g id="a_edge8_Node000001_Node000009"><a xlink:title=" ">
<path fill="none" stroke="#63b8ff" d="M418.38,-113.09C418.38,-106.47 418.38,-97.47 418.38,-89.27"/>
<polygon fill="#63b8ff" stroke="#63b8ff" points="421.88,-89.34 418.38,-79.34 414.88,-89.34 421.88,-89.34"/>
</a>
</g>
</g>
<!-- Node10 -->
<g id="Node000010" class="node">
<title>Node10</title>
<g id="a_Node000010"><a xlink:title=" ">
<polygon fill="#e0e0e0" stroke="#999999" points="566.12,-20.75 494.62,-20.75 494.62,0 566.12,0 566.12,-20.75"/>
<text xml:space="preserve" text-anchor="middle" x="530.38" y="-7.25" font-family="Helvetica,sans-Serif" font-size="10.00">FreeRTOS.h</text>
</a>
</g>
</g>
<!-- Node1&#45;&gt;Node10 -->
<g id="edge9_Node000001_Node000010" class="edge">
<title>Node1&#45;&gt;Node10</title>
<g id="a_edge9_Node000001_Node000010"><a xlink:title=" ">
<path fill="none" stroke="#63b8ff" d="M481.44,-113.08C502.11,-106.55 522.94,-95.66 535.38,-77.5 544.52,-64.14 542.11,-45.51 538.08,-31.42"/>
<polygon fill="#63b8ff" stroke="#63b8ff" points="541.52,-30.67 535.01,-22.31 534.89,-32.91 541.52,-30.67"/>
</a>
</g>
</g>
<!-- Node11 -->
<g id="Node000011" class="node">
<title>Node11</title>
<g id="a_Node000011"><a xlink:href="log_8h.html" target="_top" xlink:title=" ">
<polygon fill="white" stroke="#666666" points="526.38,-77.5 486.38,-77.5 486.38,-56.75 526.38,-56.75 526.38,-77.5"/>
<text xml:space="preserve" text-anchor="middle" x="506.38" y="-64" font-family="Helvetica,sans-Serif" font-size="10.00">log.h</text>
</a>
</g>
</g>
<!-- Node1&#45;&gt;Node11 -->
<g id="edge10_Node000001_Node000011" class="edge">
<title>Node1&#45;&gt;Node11</title>
<g id="a_edge10_Node000001_Node000011"><a xlink:title=" ">
<path fill="none" stroke="#63b8ff" d="M434.11,-113.09C447.25,-104.91 466.22,-93.11 481.43,-83.65"/>
<polygon fill="#63b8ff" stroke="#63b8ff" points="482.85,-86.88 489.49,-78.63 479.15,-80.94 482.85,-86.88"/>
</a>
</g>
</g>
<!-- Node12 -->
<g id="Node000012" class="node">
<title>Node12</title>
<g id="a_Node000012"><a xlink:title=" ">
<polygon fill="#e0e0e0" stroke="#999999" points="662.25,-77.5 582.5,-77.5 582.5,-56.75 662.25,-56.75 662.25,-77.5"/>
<text xml:space="preserve" text-anchor="middle" x="622.38" y="-64" font-family="Helvetica,sans-Serif" font-size="10.00">peripherals.h</text>
</a>
</g>
</g>
<!-- Node1&#45;&gt;Node12 -->
<g id="edge13_Node000001_Node000012" class="edge">
<title>Node1&#45;&gt;Node12</title>
<g id="a_edge13_Node000001_Node000012"><a xlink:title=" ">
<path fill="none" stroke="#63b8ff" d="M454.85,-113.09C488.39,-104.08 538.34,-90.68 574.97,-80.85"/>
<polygon fill="#63b8ff" stroke="#63b8ff" points="575.66,-84.29 584.41,-78.31 573.85,-77.52 575.66,-84.29"/>
</a>
</g>
</g>
<!-- Node3 -->
<g id="Node000003" class="node">
<title>Node3</title>
<g id="a_Node000003"><a xlink:href="display__config_8h.html" target="_top" xlink:title="Application configuration file for SSD1306 display driver Copyright (c) 2020, Erich Styger SPDX&#45;Licen...">
<polygon fill="white" stroke="#666666" points="94.75,-20.75 0,-20.75 0,0 94.75,0 94.75,-20.75"/>
<text xml:space="preserve" text-anchor="middle" x="47.38" y="-7.25" font-family="Helvetica,sans-Serif" font-size="10.00">display_config.h</text>
</a>
</g>
</g>
<!-- Node2&#45;&gt;Node3 -->
<g id="edge2_Node000002_Node000003" class="edge">
<title>Node2&#45;&gt;Node3</title>
<g id="a_edge2_Node000002_Node000003"><a xlink:title=" ">
<path fill="none" stroke="#63b8ff" d="M154.95,-56.34C134.37,-47.73 104.17,-35.11 81,-25.43"/>
<polygon fill="#63b8ff" stroke="#63b8ff" points="82.57,-22.29 71.99,-21.66 79.87,-28.75 82.57,-22.29"/>
</a>
</g>
</g>
<!-- Node4 -->
<g id="Node000004" class="node">
<title>Node4</title>
<g id="a_Node000004"><a xlink:title=" ">
<polygon fill="#e0e0e0" stroke="#999999" points="167.88,-20.75 112.88,-20.75 112.88,0 167.88,0 167.88,-20.75"/>
<text xml:space="preserve" text-anchor="middle" x="140.38" y="-7.25" font-family="Helvetica,sans-Serif" font-size="10.00">stddef.h</text>
</a>
</g>
</g>
<!-- Node2&#45;&gt;Node4 -->
<g id="edge3_Node000002_Node000004" class="edge">
<title>Node2&#45;&gt;Node4</title>
<g id="a_edge3_Node000002_Node000004"><a xlink:title=" ">
<path fill="none" stroke="#63b8ff" d="M171.58,-56.34C166.61,-49.17 159.71,-39.23 153.65,-30.51"/>
<polygon fill="#63b8ff" stroke="#63b8ff" points="156.55,-28.54 147.97,-22.32 150.8,-32.53 156.55,-28.54"/>
</a>
</g>
</g>
<!-- Node5 -->
<g id="Node000005" class="node">
<title>Node5</title>
<g id="a_Node000005"><a xlink:title=" ">
<polygon fill="#e0e0e0" stroke="#999999" points="246.88,-20.75 185.88,-20.75 185.88,0 246.88,0 246.88,-20.75"/>
<text xml:space="preserve" text-anchor="middle" x="216.38" y="-7.25" font-family="Helvetica,sans-Serif" font-size="10.00">stdbool.h</text>
</a>
</g>
</g>
<!-- Node2&#45;&gt;Node5 -->
<g id="edge4_Node000002_Node000005" class="edge">
<title>Node2&#45;&gt;Node5</title>
<g id="a_edge4_Node000002_Node000005"><a xlink:title=" ">
<path fill="none" stroke="#63b8ff" d="M185.17,-56.34C190.14,-49.17 197.04,-39.23 203.1,-30.51"/>
<polygon fill="#63b8ff" stroke="#63b8ff" points="205.95,-32.53 208.78,-22.32 200.2,-28.54 205.95,-32.53"/>
</a>
</g>
</g>
<!-- Node6 -->
<g id="Node000006" class="node">
<title>Node6</title>
<g id="a_Node000006"><a xlink:title=" ">
<polygon fill="#e0e0e0" stroke="#999999" points="317.75,-20.75 265,-20.75 265,0 317.75,0 317.75,-20.75"/>
<text xml:space="preserve" text-anchor="middle" x="291.38" y="-7.25" font-family="Helvetica,sans-Serif" font-size="10.00">stdint.h</text>
</a>
</g>
</g>
<!-- Node2&#45;&gt;Node6 -->
<g id="edge5_Node000002_Node000006" class="edge">
<title>Node2&#45;&gt;Node6</title>
<g id="a_edge5_Node000002_Node000006"><a xlink:title=" ">
<path fill="none" stroke="#63b8ff" d="M198.58,-56.34C215.93,-47.93 241.21,-35.68 261,-26.09"/>
<polygon fill="#63b8ff" stroke="#63b8ff" points="262.51,-29.25 269.99,-21.74 259.46,-22.95 262.51,-29.25"/>
</a>
</g>
</g>
<!-- Node11&#45;&gt;Node8 -->
<g id="edge12_Node000011_Node000008" class="edge">
<title>Node11&#45;&gt;Node8</title>
<g id="a_edge12_Node000011_Node000008"><a xlink:title=" ">
<path fill="none" stroke="#63b8ff" d="M489.75,-56.34C475.86,-48.16 455.81,-36.36 439.74,-26.9"/>
<polygon fill="#63b8ff" stroke="#63b8ff" points="441.56,-23.9 431.16,-21.85 438,-29.94 441.56,-23.9"/>
</a>
</g>
</g>
<!-- Node11&#45;&gt;Node10 -->
<g id="edge11_Node000011_Node000010" class="edge">
<title>Node11&#45;&gt;Node10</title>
<g id="a_edge11_Node000011_Node000010"><a xlink:title=" ">
<path fill="none" stroke="#63b8ff" d="M510.67,-56.34C513.7,-49.41 517.88,-39.87 521.61,-31.36"/>
<polygon fill="#63b8ff" stroke="#63b8ff" points="524.7,-33.03 525.51,-22.46 518.29,-30.22 524.7,-33.03"/>
</a>
</g>
</g>
</g>
</svg>
