<?xml version="1.0" encoding="UTF-8" standalone="no"?>
<!DOCTYPE svg PUBLIC "-//W3C//DTD SVG 1.1//EN"
 "http://www.w3.org/Graphics/SVG/1.1/DTD/svg11.dtd">
<!-- Generated by graphviz version 14.1.5 (0)
 -->
<!-- Title: source/display/McuSSD1306.h Pages: 1 -->
<svg width="621pt" height="307pt"
 viewBox="0.00 0.00 621.00 307.00" xmlns="http://www.w3.org/2000/svg" xmlns:xlink="http://www.w3.org/1999/xlink">
<g id="graph0" class="graph" transform="scale(1 1) rotate(0) translate(4 302.75)">
<title>source/display/McuSSD1306.h</title>
<!-- Node1 -->
<g id="Node000001" class="node">
<title>Node1</title>
<g id="a_Node000001"><a xlink:title="Display driver for the SSD1306 OLED module.">
<polygon fill="#999999" stroke="#666666" points="437.25,-298.75 275,-298.75 275,-278 437.25,-278 437.25,-298.75"/>
<text xml:space="preserve" text-anchor="middle" x="356.12" y="-285.25" font-family="Helvetica,sans-Serif" font-size="10.00">source/display/McuSSD1306.h</text>
</a>
</g>
</g>
<!-- Node2 -->
<g id="Node000002" class="node">
<title>Node2</title>
<g id="a_Node000002"><a xlink:href="McuGDisplaySSD1306_8h.html" target="_top" xlink:title="Graphical display driver for LCD or other displays.">
<polygon fill="white" stroke="#666666" points="380.12,-172.5 226.12,-172.5 226.12,-139 380.12,-139 380.12,-172.5"/>
<text xml:space="preserve" text-anchor="start" x="234.12" y="-159" font-family="Helvetica,sans-Serif" font-size="10.00">source/display/McuGDisplay</text>
<text xml:space="preserve" text-anchor="middle" x="303.12" y="-146.25" font-family="Helvetica,sans-Serif" font-size="10.00">SSD1306.h</text>
</a>
</g>
</g>
<!-- Node1&#45;&gt;Node2 -->
<g id="edge1_Node000001_Node000002" class="edge">
<title>Node1&#45;&gt;Node2</title>
<g id="a_edge1_Node000001_Node000002"><a xlink:title=" ">
<path fill="none" stroke="#63b8ff" d="M308.56,-273.28C293.61,-266.37 278.77,-256.33 270.12,-242 256.6,-219.58 274.22,-190.64 288.45,-172.91"/>
<polygon fill="#63b8ff" stroke="#63b8ff" points="306.87,-276.37 317.45,-277.01 309.58,-269.92 306.87,-276.37"/>
</a>
</g>
</g>
<!-- Node8 -->
<g id="Node000008" class="node">
<title>Node8</title>
<g id="a_Node000008"><a xlink:href="McuGDisplaySSD1306config_8h.html" target="_top" xlink:title="Configuration header file for GDisplay Copyright (c) 2020, Erich Styger SPDX&#45;License&#45;Identifier: BSD&#45;...">
<polygon fill="white" stroke="#666666" points="433.12,-242 279.12,-242 279.12,-208.5 433.12,-208.5 433.12,-242"/>
<text xml:space="preserve" text-anchor="start" x="287.12" y="-228.5" font-family="Helvetica,sans-Serif" font-size="10.00">source/display/McuGDisplay</text>
<text xml:space="preserve" text-anchor="middle" x="356.12" y="-215.75" font-family="Helvetica,sans-Serif" font-size="10.00">SSD1306config.h</text>
</a>
</g>
</g>
<!-- Node1&#45;&gt;Node8 -->
<g id="edge8_Node000001_Node000008" class="edge">
<title>Node1&#45;&gt;Node8</title>
<g id="a_edge8_Node000001_Node000008"><a xlink:title=" ">
<path fill="none" stroke="#63b8ff" d="M356.12,-266.09C356.12,-258.35 356.12,-249.72 356.12,-242.48"/>
<polygon fill="#63b8ff" stroke="#63b8ff" points="352.63,-266.04 356.13,-276.04 359.63,-266.04 352.63,-266.04"/>
</a>
</g>
</g>
<!-- Node9 -->
<g id="Node000009" class="node">
<title>Node9</title>
<g id="a_Node000009"><a xlink:href="McuSSD1306_8c.html" target="_top" xlink:title=" ">
<polygon fill="white" stroke="#666666" points="612.88,-235.62 451.38,-235.62 451.38,-214.88 612.88,-214.88 612.88,-235.62"/>
<text xml:space="preserve" text-anchor="middle" x="532.12" y="-222.12" font-family="Helvetica,sans-Serif" font-size="10.00">source/display/McuSSD1306.c</text>
</a>
</g>
</g>
<!-- Node1&#45;&gt;Node9 -->
<g id="edge10_Node000001_Node000009" class="edge">
<title>Node1&#45;&gt;Node9</title>
<g id="a_edge10_Node000001_Node000009"><a xlink:title=" ">
<path fill="none" stroke="#63b8ff" d="M395.02,-273.87C427.97,-262.42 474.44,-246.29 503.92,-236.05"/>
<polygon fill="#63b8ff" stroke="#63b8ff" points="394.13,-270.47 385.83,-277.06 396.43,-277.08 394.13,-270.47"/>
</a>
</g>
</g>
<!-- Node3 -->
<g id="Node000003" class="node">
<title>Node3</title>
<g id="a_Node000003"><a xlink:href="McuFontDisplay_8h.html" target="_top" xlink:title="Driver to write fonts using GFont component.">
<polygon fill="white" stroke="#666666" points="222.62,-96.62 47.62,-96.62 47.62,-75.88 222.62,-75.88 222.62,-96.62"/>
<text xml:space="preserve" text-anchor="middle" x="135.12" y="-83.12" font-family="Helvetica,sans-Serif" font-size="10.00">source/display/McuFontDisplay.h</text>
</a>
</g>
</g>
<!-- Node2&#45;&gt;Node3 -->
<g id="edge2_Node000002_Node000003" class="edge">
<title>Node2&#45;&gt;Node3</title>
<g id="a_edge2_Node000002_Node000003"><a xlink:title=" ">
<path fill="none" stroke="#63b8ff" d="M252.32,-134.34C221.53,-121.97 183.65,-106.75 159.44,-97.02"/>
<polygon fill="#63b8ff" stroke="#63b8ff" points="250.9,-137.54 261.48,-138.02 253.51,-131.04 250.9,-137.54"/>
</a>
</g>
</g>
<!-- Node5 -->
<g id="Node000005" class="node">
<title>Node5</title>
<g id="a_Node000005"><a xlink:href="statemachine__helpers_8c.html" target="_top" xlink:title="Command parsing and helper implementations for the state machine.">
<polygon fill="white" stroke="#666666" points="310.12,-33.5 192.12,-33.5 192.12,0 310.12,0 310.12,-33.5"/>
<text xml:space="preserve" text-anchor="start" x="200.12" y="-20" font-family="Helvetica,sans-Serif" font-size="10.00">source/statemachine</text>
<text xml:space="preserve" text-anchor="middle" x="251.12" y="-7.25" font-family="Helvetica,sans-Serif" font-size="10.00">_helpers.c</text>
</a>
</g>
</g>
<!-- Node2&#45;&gt;Node5 -->
<g id="edge7_Node000002_Node000005" class="edge">
<title>Node2&#45;&gt;Node5</title>
<g id="a_edge7_Node000002_Node000005"><a xlink:title=" ">
<path fill="none" stroke="#63b8ff" d="M284.55,-129.51C279.25,-121.37 273.9,-112.1 270.12,-103 260.59,-80.03 255.47,-51.51 253.03,-33.97"/>
<polygon fill="#63b8ff" stroke="#63b8ff" points="281.49,-131.24 290.02,-137.53 287.28,-127.29 281.49,-131.24"/>
</a>
</g>
</g>
<!-- Node6 -->
<g id="Node000006" class="node">
<title>Node6</title>
<g id="a_Node000006"><a xlink:href="McuGDisplaySSD1306_8c.html" target="_top" xlink:title=" ">
<polygon fill="white" stroke="#666666" points="433.12,-103 279.12,-103 279.12,-69.5 433.12,-69.5 433.12,-103"/>
<text xml:space="preserve" text-anchor="start" x="287.12" y="-89.5" font-family="Helvetica,sans-Serif" font-size="10.00">source/display/McuGDisplay</text>
<text xml:space="preserve" text-anchor="middle" x="356.12" y="-76.75" font-family="Helvetica,sans-Serif" font-size="10.00">SSD1306.c</text>
</a>
</g>
</g>
<!-- Node2&#45;&gt;Node6 -->
<g id="edge5_Node000002_Node000006" class="edge">
<title>Node2&#45;&gt;Node6</title>
<g id="a_edge5_Node000002_Node000006"><a xlink:title=" ">
<path fill="none" stroke="#63b8ff" d="M322.66,-129.88C329.68,-120.94 337.4,-111.1 343.65,-103.13"/>
<polygon fill="#63b8ff" stroke="#63b8ff" points="320.04,-127.54 316.62,-137.56 325.55,-131.86 320.04,-127.54"/>
</a>
</g>
</g>
<!-- Node7 -->
<g id="Node000007" class="node">
<title>Node7</title>
<g id="a_Node000007"><a xlink:href="statemachine_8c.html" target="_top" xlink:title=" ">
<polygon fill="white" stroke="#666666" points="577.25,-96.62 451,-96.62 451,-75.88 577.25,-75.88 577.25,-96.62"/>
<text xml:space="preserve" text-anchor="middle" x="514.12" y="-83.12" font-family="Helvetica,sans-Serif" font-size="10.00">source/statemachine.c</text>
</a>
</g>
</g>
<!-- Node2&#45;&gt;Node7 -->
<g id="edge6_Node000002_Node000007" class="edge">
<title>Node2&#45;&gt;Node7</title>
<g id="a_edge6_Node000002_Node000007"><a xlink:title=" ">
<path fill="none" stroke="#63b8ff" d="M364.63,-135.08C403.57,-122.62 452.25,-107.04 483.27,-97.12"/>
<polygon fill="#63b8ff" stroke="#63b8ff" points="363.56,-131.74 355.11,-138.12 365.7,-138.41 363.56,-131.74"/>
</a>
</g>
</g>
<!-- Node4 -->
<g id="Node000004" class="node">
<title>Node4</title>
<g id="a_Node000004"><a xlink:href="McuFontDisplay_8c.html" target="_top" xlink:title=" ">
<polygon fill="white" stroke="#666666" points="174.25,-27.12 0,-27.12 0,-6.38 174.25,-6.38 174.25,-27.12"/>
<text xml:space="preserve" text-anchor="middle" x="87.12" y="-13.62" font-family="Helvetica,sans-Serif" font-size="10.00">source/display/McuFontDisplay.c</text>
</a>
</g>
</g>
<!-- Node3&#45;&gt;Node4 -->
<g id="edge3_Node000003_Node000004" class="edge">
<title>Node3&#45;&gt;Node4</title>
<g id="a_edge3_Node000003_Node000004"><a xlink:title=" ">
<path fill="none" stroke="#63b8ff" d="M121.68,-66.35C112.67,-53.68 101.18,-37.52 93.99,-27.4"/>
<polygon fill="#63b8ff" stroke="#63b8ff" points="118.72,-68.22 127.37,-74.35 124.43,-64.17 118.72,-68.22"/>
</a>
</g>
</g>
<!-- Node3&#45;&gt;Node5 -->
<g id="edge4_Node000003_Node000005" class="edge">
<title>Node3&#45;&gt;Node5</title>
<g id="a_edge4_Node000003_Node000005"><a xlink:title=" ">
<path fill="none" stroke="#63b8ff" d="M161.55,-69.87C180,-59.14 204.59,-44.83 223.34,-33.92"/>
<polygon fill="#63b8ff" stroke="#63b8ff" points="159.94,-66.76 153.05,-74.82 163.46,-72.81 159.94,-66.76"/>
</a>
</g>
</g>
<!-- Node8&#45;&gt;Node2 -->
<g id="edge9_Node000008_Node000002" class="edge">
<title>Node8&#45;&gt;Node2</title>
<g id="a_edge9_Node000008_Node000002"><a xlink:title=" ">
<path fill="none" stroke="#63b8ff" d="M336.59,-199.38C329.57,-190.44 321.85,-180.6 315.6,-172.63"/>
<polygon fill="#63b8ff" stroke="#63b8ff" points="333.7,-201.36 342.63,-207.06 339.21,-197.04 333.7,-201.36"/>
</a>
</g>
</g>
</g>
</svg>
