<?xml version="1.0" encoding="UTF-8" standalone="no"?>
<!DOCTYPE svg PUBLIC "-//W3C//DTD SVG 1.1//EN"
 "http://www.w3.org/Graphics/SVG/1.1/DTD/svg11.dtd">
<!-- Generated by graphviz version 14.1.2 (0)
 -->
<!-- Title: device/MK22F51212_COMMON.h Pages: 1 -->
<svg width="380pt" height="142pt"
 viewBox="0.00 0.00 380.00 142.00" xmlns="http://www.w3.org/2000/svg" xmlns:xlink="http://www.w3.org/1999/xlink">
<g id="graph0" class="graph" transform="scale(1 1) rotate(0) translate(4 138.25)">
<title>device/MK22F51212_COMMON.h</title>
<!-- Node1 -->
<g id="Node000001" class="node">
<title>Node1</title>
<g id="a_Node000001"><a xlink:title="CMSIS Peripheral Access Layer for MK22F51212.">
<polygon fill="#999999" stroke="#666666" points="243.38,-134.25 66.88,-134.25 66.88,-113.5 243.38,-113.5 243.38,-134.25"/>
<text xml:space="preserve" text-anchor="middle" x="155.12" y="-120.75" font-family="Helvetica,sans-Serif" font-size="10.00">device/MK22F51212_COMMON.h</text>
</a>
</g>
</g>
<!-- Node2 -->
<g id="Node000002" class="node">
<title>Node2</title>
<g id="a_Node000002"><a xlink:title=" ">
<polygon fill="#e0e0e0" stroke="#999999" points="72.25,-77.5 0,-77.5 0,-56.75 72.25,-56.75 72.25,-77.5"/>
<text xml:space="preserve" text-anchor="middle" x="36.12" y="-64" font-family="Helvetica,sans-Serif" font-size="10.00">core_cm4.h</text>
</a>
</g>
</g>
<!-- Node1&#45;&gt;Node2 -->
<g id="edge1_Node000001_Node000002" class="edge">
<title>Node1&#45;&gt;Node2</title>
<g id="a_edge1_Node000001_Node000002"><a xlink:title=" ">
<path fill="none" stroke="#63b8ff" d="M133.85,-113.09C115.41,-104.6 88.46,-92.2 67.53,-82.58"/>
<polygon fill="#63b8ff" stroke="#63b8ff" points="69.14,-79.46 58.59,-78.46 66.21,-85.82 69.14,-79.46"/>
</a>
</g>
</g>
<!-- Node3 -->
<g id="Node000003" class="node">
<title>Node3</title>
<g id="a_Node000003"><a xlink:href="system__MK22F51212_8h_source.html" target="_top" xlink:title=" ">
<polygon fill="white" stroke="#666666" points="220.12,-77.5 90.12,-77.5 90.12,-56.75 220.12,-56.75 220.12,-77.5"/>
<text xml:space="preserve" text-anchor="middle" x="155.12" y="-64" font-family="Helvetica,sans-Serif" font-size="10.00">system_MK22F51212.h</text>
</a>
</g>
</g>
<!-- Node1&#45;&gt;Node3 -->
<g id="edge2_Node000001_Node000003" class="edge">
<title>Node1&#45;&gt;Node3</title>
<g id="a_edge2_Node000001_Node000003"><a xlink:title=" ">
<path fill="none" stroke="#63b8ff" d="M155.12,-113.09C155.12,-106.47 155.12,-97.47 155.12,-89.27"/>
<polygon fill="#63b8ff" stroke="#63b8ff" points="158.63,-89.34 155.13,-79.34 151.63,-89.34 158.63,-89.34"/>
</a>
</g>
</g>
<!-- Node5 -->
<g id="Node000005" class="node">
<title>Node5</title>
<g id="a_Node000005"><a xlink:href="MK22F51212__features_8h_source.html" target="_top" xlink:title=" ">
<polygon fill="white" stroke="#666666" points="372.38,-77.5 237.88,-77.5 237.88,-56.75 372.38,-56.75 372.38,-77.5"/>
<text xml:space="preserve" text-anchor="middle" x="305.12" y="-64" font-family="Helvetica,sans-Serif" font-size="10.00">MK22F51212_features.h</text>
</a>
</g>
</g>
<!-- Node1&#45;&gt;Node5 -->
<g id="edge4_Node000001_Node000005" class="edge">
<title>Node1&#45;&gt;Node5</title>
<g id="a_edge4_Node000001_Node000005"><a xlink:title=" ">
<path fill="none" stroke="#63b8ff" d="M181.94,-113.09C205.86,-104.36 241.13,-91.48 267.8,-81.75"/>
<polygon fill="#63b8ff" stroke="#63b8ff" points="268.67,-85.16 276.87,-78.44 266.27,-78.58 268.67,-85.16"/>
</a>
</g>
</g>
<!-- Node4 -->
<g id="Node000004" class="node">
<title>Node4</title>
<g id="a_Node000004"><a xlink:title=" ">
<polygon fill="#e0e0e0" stroke="#999999" points="181.5,-20.75 128.75,-20.75 128.75,0 181.5,0 181.5,-20.75"/>
<text xml:space="preserve" text-anchor="middle" x="155.12" y="-7.25" font-family="Helvetica,sans-Serif" font-size="10.00">stdint.h</text>
</a>
</g>
</g>
<!-- Node3&#45;&gt;Node4 -->
<g id="edge3_Node000003_Node000004" class="edge">
<title>Node3&#45;&gt;Node4</title>
<g id="a_edge3_Node000003_Node000004"><a xlink:title=" ">
<path fill="none" stroke="#63b8ff" d="M155.12,-56.34C155.12,-49.72 155.12,-40.72 155.12,-32.52"/>
<polygon fill="#63b8ff" stroke="#63b8ff" points="158.63,-32.59 155.13,-22.59 151.63,-32.59 158.63,-32.59"/>
</a>
</g>
</g>
</g>
</svg>
