<?xml version="1.0" encoding="UTF-8" standalone="no"?>
<!DOCTYPE svg PUBLIC "-//W3C//DTD SVG 1.1//EN"
 "http://www.w3.org/Graphics/SVG/1.1/DTD/svg11.dtd">
<!-- Generated by graphviz version 14.1.2 (0)
 -->
<!-- Title: device/MK22F51212.h Pages: 1 -->
<!--zoomable 86 -->

<svg id="main" version="1.1" xmlns="http://www.w3.org/2000/svg" xmlns:xlink="http://www.w3.org/1999/xlink" xml:space="preserve" onload="init(evt)">

<style type="text/css"><![CDATA[
.node, .edge {opacity: 0.7;}
.node.selected, .edge.selected {opacity: 1;}
.edge:hover path { stroke: red; }
.edge:hover polygon { stroke: red; fill: red; }
]]></style>

<defs>
  <circle id="rim" cx="0" cy="0" r="7"/>
  <circle id="rim2" cx="0" cy="0" r="3.5"/>
  <g id="zoomPlus">
    <use xlink:href="#rim" fill="#404040"><set attributeName="fill" to="#808080" begin="zoomplus.mouseover" end="zoomplus.mouseout"/></use>
    <path d="M-4,0h8M0,-4v8" fill="none" stroke="white" stroke-width="1.5" pointer-events="none"/>
  </g>
  <g id="zoomMin">
    <use xlink:href="#rim" fill="#404040"><set attributeName="fill" to="#808080" begin="zoomminus.mouseover" end="zoomminus.mouseout"/></use>
    <path d="M-4,0h8" fill="none" stroke="white" stroke-width="1.5" pointer-events="none"/>
  </g>
  <g id="arrowUp" transform="translate(30 24)">
    <use xlink:href="#rim"/>
    <path pointer-events="none" fill="none" stroke="white" stroke-width="1.5" d="M0,-3.0v7 M-2.5,-0.5L0,-3.0L2.5,-0.5"/>
  </g>
  <g id="arrowRight" transform="rotate(90) translate(36 -43)">
    <use xlink:href="#rim"/>
    <path pointer-events="none" fill="none" stroke="white" stroke-width="1.5" d="M0,-3.0v7 M-2.5,-0.5L0,-3.0L2.5,-0.5"/>
  </g>
  <g id="arrowDown" transform="rotate(180) translate(-30 -48)">
    <use xlink:href="#rim"/>
    <path pointer-events="none" fill="none" stroke="white" stroke-width="1.5" d="M0,-3.0v7 M-2.5,-0.5L0,-3.0L2.5,-0.5"/>
  </g>
  <g id="arrowLeft" transform="rotate(270) translate(-36 17)">
    <use xlink:href="#rim"/>
    <path pointer-events="none" fill="none" stroke="white" stroke-width="1.5" d="M0,-3.0v7 M-2.5,-0.5L0,-3.0L2.5,-0.5"/>
  </g>
  <g id="resetDef">
    <use xlink:href="#rim2" fill="#404040"><set attributeName="fill" to="#808080" begin="reset.mouseover" end="reset.mouseout"/></use>
  </g>
</defs>
<script type="application/ecmascript">
var viewWidth = 3435;
var viewHeight = 86;
var sectionId = 'dynsection-0';
</script>
<script type="application/ecmascript" xlink:href="svg.min.js"/>
<svg id="graph" class="graph">
<g id="viewport">
<title>device/MK22F51212.h</title>
<!-- Node1 -->
<g id="Node000001" class="node">
<title>Node1</title>
<g id="a_Node000001"><a xlink:title="CMSIS Peripheral Access Layer for MK22F51212.">
<polygon fill="#999999" stroke="#666666" points="1789.5,-77.5 1665.5,-77.5 1665.5,-56.75 1789.5,-56.75 1789.5,-77.5"/>
<text xml:space="preserve" text-anchor="middle" x="1727.5" y="-64" font-family="Helvetica,sans-Serif" font-size="10.00">device/MK22F51212.h</text>
</a>
</g>
</g>
<!-- Node2 -->
<g id="Node000002" class="node">
<title>Node2</title>
<g id="a_Node000002"><a xlink:href="PERI__ADC_8h.html" target="_top" xlink:title="CMSIS Peripheral Access Layer for ADC.">
<polygon fill="white" stroke="#666666" points="73,-20.75 0,-20.75 0,0 73,0 73,-20.75"/>
<text xml:space="preserve" text-anchor="middle" x="36.5" y="-7.25" font-family="Helvetica,sans-Serif" font-size="10.00">PERI_ADC.h</text>
</a>
</g>
</g>
<!-- Node1&#45;&gt;Node2 -->
<g id="edge1_Node000001_Node000002" class="edge">
<title>Node1&#45;&gt;Node2</title>
<g id="a_edge1_Node000001_Node000002"><a xlink:title=" ">
<path fill="none" stroke="#63b8ff" d="M1665.27,-65.85C1407.31,-64.5 420.25,-57.11 84.5,-20.72"/>
<polygon fill="#63b8ff" stroke="#63b8ff" points="85.15,-17.27 74.82,-19.63 84.37,-24.22 85.15,-17.27"/>
</a>
</g>
</g>
<!-- Node3 -->
<g id="Node000003" class="node">
<title>Node3</title>
<g id="a_Node000003"><a xlink:href="PERI__CMP_8h.html" target="_top" xlink:title="CMSIS Peripheral Access Layer for CMP.">
<polygon fill="white" stroke="#666666" points="163.62,-20.75 91.38,-20.75 91.38,0 163.62,0 163.62,-20.75"/>
<text xml:space="preserve" text-anchor="middle" x="127.5" y="-7.25" font-family="Helvetica,sans-Serif" font-size="10.00">PERI_CMP.h</text>
</a>
</g>
</g>
<!-- Node1&#45;&gt;Node3 -->
<g id="edge2_Node000001_Node000003" class="edge">
<title>Node1&#45;&gt;Node3</title>
<g id="a_edge2_Node000001_Node000003"><a xlink:title=" ">
<path fill="none" stroke="#63b8ff" d="M1665.3,-65.77C1416.43,-64.14 491.1,-55.89 174.75,-20.76"/>
<polygon fill="#63b8ff" stroke="#63b8ff" points="175.6,-17.34 165.26,-19.67 174.8,-24.29 175.6,-17.34"/>
</a>
</g>
</g>
<!-- Node4 -->
<g id="Node000004" class="node">
<title>Node4</title>
<g id="a_Node000004"><a xlink:href="PERI__CRC_8h.html" target="_top" xlink:title="CMSIS Peripheral Access Layer for CRC.">
<polygon fill="white" stroke="#666666" points="253.62,-20.75 181.38,-20.75 181.38,0 253.62,0 253.62,-20.75"/>
<text xml:space="preserve" text-anchor="middle" x="217.5" y="-7.25" font-family="Helvetica,sans-Serif" font-size="10.00">PERI_CRC.h</text>
</a>
</g>
</g>
<!-- Node1&#45;&gt;Node4 -->
<g id="edge3_Node000001_Node000004" class="edge">
<title>Node1&#45;&gt;Node4</title>
<g id="a_edge3_Node000001_Node000004"><a xlink:title=" ">
<path fill="none" stroke="#63b8ff" d="M1665.23,-65.64C1425.69,-63.57 562.75,-54 264.96,-20.79"/>
<polygon fill="#63b8ff" stroke="#63b8ff" points="265.6,-17.34 255.26,-19.67 264.8,-24.29 265.6,-17.34"/>
</a>
</g>
</g>
<!-- Node5 -->
<g id="Node000005" class="node">
<title>Node5</title>
<g id="a_Node000005"><a xlink:href="PERI__DAC_8h.html" target="_top" xlink:title="CMSIS Peripheral Access Layer for DAC.">
<polygon fill="white" stroke="#666666" points="345,-20.75 272,-20.75 272,0 345,0 345,-20.75"/>
<text xml:space="preserve" text-anchor="middle" x="308.5" y="-7.25" font-family="Helvetica,sans-Serif" font-size="10.00">PERI_DAC.h</text>
</a>
</g>
</g>
<!-- Node1&#45;&gt;Node5 -->
<g id="edge4_Node000001_Node000005" class="edge">
<title>Node1&#45;&gt;Node5</title>
<g id="a_edge4_Node000001_Node000005"><a xlink:title=" ">
<path fill="none" stroke="#63b8ff" d="M1665.16,-65.49C1435.35,-62.95 634.99,-52.1 356.53,-20.88"/>
<polygon fill="#63b8ff" stroke="#63b8ff" points="357.09,-17.42 346.76,-19.74 356.28,-24.38 357.09,-17.42"/>
</a>
</g>
</g>
<!-- Node6 -->
<g id="Node000006" class="node">
<title>Node6</title>
<g id="a_Node000006"><a xlink:href="PERI__DMA_8h.html" target="_top" xlink:title="CMSIS Peripheral Access Layer for DMA.">
<polygon fill="white" stroke="#666666" points="438.12,-20.75 362.88,-20.75 362.88,0 438.12,0 438.12,-20.75"/>
<text xml:space="preserve" text-anchor="middle" x="400.5" y="-7.25" font-family="Helvetica,sans-Serif" font-size="10.00">PERI_DMA.h</text>
</a>
</g>
</g>
<!-- Node1&#45;&gt;Node6 -->
<g id="edge5_Node000001_Node000006" class="edge">
<title>Node1&#45;&gt;Node6</title>
<g id="a_edge5_Node000001_Node000006"><a xlink:title=" ">
<path fill="none" stroke="#63b8ff" d="M1665.27,-65.25C1446.08,-61.97 709.56,-49.14 449.65,-20.75"/>
<polygon fill="#63b8ff" stroke="#63b8ff" points="450.22,-17.29 439.89,-19.65 449.43,-24.25 450.22,-17.29"/>
</a>
</g>
</g>
<!-- Node7 -->
<g id="Node000007" class="node">
<title>Node7</title>
<g id="a_Node000007"><a xlink:href="PERI__DMAMUX_8h.html" target="_top" xlink:title="CMSIS Peripheral Access Layer for DMAMUX.">
<polygon fill="white" stroke="#666666" points="554.75,-20.75 456.25,-20.75 456.25,0 554.75,0 554.75,-20.75"/>
<text xml:space="preserve" text-anchor="middle" x="505.5" y="-7.25" font-family="Helvetica,sans-Serif" font-size="10.00">PERI_DMAMUX.h</text>
</a>
</g>
</g>
<!-- Node1&#45;&gt;Node7 -->
<g id="edge6_Node000001_Node000007" class="edge">
<title>Node1&#45;&gt;Node7</title>
<g id="a_edge6_Node000001_Node000007"><a xlink:title=" ">
<path fill="none" stroke="#63b8ff" d="M1665.23,-66.29C1492.47,-66.19 992.41,-62.14 566.34,-20.79"/>
<polygon fill="#63b8ff" stroke="#63b8ff" points="566.82,-17.32 556.53,-19.83 566.14,-24.29 566.82,-17.32"/>
</a>
</g>
</g>
<!-- Node8 -->
<g id="Node000008" class="node">
<title>Node8</title>
<g id="a_Node000008"><a xlink:href="PERI__EWM_8h.html" target="_top" xlink:title="CMSIS Peripheral Access Layer for EWM.">
<polygon fill="white" stroke="#666666" points="649.88,-20.75 573.12,-20.75 573.12,0 649.88,0 649.88,-20.75"/>
<text xml:space="preserve" text-anchor="middle" x="611.5" y="-7.25" font-family="Helvetica,sans-Serif" font-size="10.00">PERI_EWM.h</text>
</a>
</g>
</g>
<!-- Node1&#45;&gt;Node8 -->
<g id="edge7_Node000001_Node000008" class="edge">
<title>Node1&#45;&gt;Node8</title>
<g id="a_edge7_Node000001_Node000008"><a xlink:title=" ">
<path fill="none" stroke="#63b8ff" d="M1665.24,-66.74C1502.08,-67.66 1048.59,-65.73 661.62,-20.79"/>
<polygon fill="#63b8ff" stroke="#63b8ff" points="662.04,-17.32 651.7,-19.63 661.22,-24.27 662.04,-17.32"/>
</a>
</g>
</g>
<!-- Node9 -->
<g id="Node000009" class="node">
<title>Node9</title>
<g id="a_Node000009"><a xlink:href="PERI__FB_8h.html" target="_top" xlink:title="CMSIS Peripheral Access Layer for FB.">
<polygon fill="white" stroke="#666666" points="732.88,-20.75 668.12,-20.75 668.12,0 732.88,0 732.88,-20.75"/>
<text xml:space="preserve" text-anchor="middle" x="700.5" y="-7.25" font-family="Helvetica,sans-Serif" font-size="10.00">PERI_FB.h</text>
</a>
</g>
</g>
<!-- Node1&#45;&gt;Node9 -->
<g id="edge8_Node000001_Node000009" class="edge">
<title>Node1&#45;&gt;Node9</title>
<g id="a_edge8_Node000001_Node000009"><a xlink:title=" ">
<path fill="none" stroke="#63b8ff" d="M1665.09,-64.71C1481.16,-60.33 942.22,-45.79 744.22,-20.84"/>
<polygon fill="#63b8ff" stroke="#63b8ff" points="744.95,-17.41 734.58,-19.57 744.04,-24.35 744.95,-17.41"/>
</a>
</g>
</g>
<!-- Node10 -->
<g id="Node000010" class="node">
<title>Node10</title>
<g id="a_Node000010"><a xlink:href="PERI__FMC_8h.html" target="_top" xlink:title="CMSIS Peripheral Access Layer for FMC.">
<polygon fill="white" stroke="#666666" points="824.38,-20.75 750.62,-20.75 750.62,0 824.38,0 824.38,-20.75"/>
<text xml:space="preserve" text-anchor="middle" x="787.5" y="-7.25" font-family="Helvetica,sans-Serif" font-size="10.00">PERI_FMC.h</text>
</a>
</g>
</g>
<!-- Node1&#45;&gt;Node10 -->
<g id="edge9_Node000001_Node000010" class="edge">
<title>Node1&#45;&gt;Node10</title>
<g id="a_edge9_Node000001_Node000010"><a xlink:title=" ">
<path fill="none" stroke="#63b8ff" d="M1665.17,-66.18C1520.89,-65.6 1152.74,-60.17 836.07,-20.88"/>
<polygon fill="#63b8ff" stroke="#63b8ff" points="836.69,-17.43 826.33,-19.66 835.82,-24.38 836.69,-17.43"/>
</a>
</g>
</g>
<!-- Node11 -->
<g id="Node000011" class="node">
<title>Node11</title>
<g id="a_Node000011"><a xlink:href="PERI__FTFA_8h.html" target="_top" xlink:title="CMSIS Peripheral Access Layer for FTFA.">
<polygon fill="white" stroke="#666666" points="916.75,-20.75 842.25,-20.75 842.25,0 916.75,0 916.75,-20.75"/>
<text xml:space="preserve" text-anchor="middle" x="879.5" y="-7.25" font-family="Helvetica,sans-Serif" font-size="10.00">PERI_FTFA.h</text>
</a>
</g>
</g>
<!-- Node1&#45;&gt;Node11 -->
<g id="edge10_Node000001_Node000011" class="edge">
<title>Node1&#45;&gt;Node11</title>
<g id="a_edge10_Node000001_Node000011"><a xlink:title=" ">
<path fill="none" stroke="#63b8ff" d="M1665.08,-65.66C1531.55,-63.99 1208.19,-56.44 928.28,-20.93"/>
<polygon fill="#63b8ff" stroke="#63b8ff" points="928.95,-17.49 918.58,-19.69 928.06,-24.43 928.95,-17.49"/>
</a>
</g>
</g>
<!-- Node12 -->
<g id="Node000012" class="node">
<title>Node12</title>
<g id="a_Node000012"><a xlink:href="PERI__FTM_8h.html" target="_top" xlink:title="CMSIS Peripheral Access Layer for FTM.">
<polygon fill="white" stroke="#666666" points="1006.62,-20.75 934.38,-20.75 934.38,0 1006.62,0 1006.62,-20.75"/>
<text xml:space="preserve" text-anchor="middle" x="970.5" y="-7.25" font-family="Helvetica,sans-Serif" font-size="10.00">PERI_FTM.h</text>
</a>
</g>
</g>
<!-- Node1&#45;&gt;Node12 -->
<g id="edge11_Node000001_Node000012" class="edge">
<title>Node1&#45;&gt;Node12</title>
<g id="a_edge11_Node000001_Node000012"><a xlink:title=" ">
<path fill="none" stroke="#63b8ff" d="M1665.3,-65.12C1543.08,-62.51 1262.89,-53.34 1018.04,-20.9"/>
<polygon fill="#63b8ff" stroke="#63b8ff" points="1018.65,-17.46 1008.27,-19.59 1017.72,-24.39 1018.65,-17.46"/>
</a>
</g>
</g>
<!-- Node13 -->
<g id="Node000013" class="node">
<title>Node13</title>
<g id="a_Node000013"><a xlink:href="PERI__GPIO_8h.html" target="_top" xlink:title="CMSIS Peripheral Access Layer for GPIO.">
<polygon fill="white" stroke="#666666" points="1100.5,-20.75 1024.5,-20.75 1024.5,0 1100.5,0 1100.5,-20.75"/>
<text xml:space="preserve" text-anchor="middle" x="1062.5" y="-7.25" font-family="Helvetica,sans-Serif" font-size="10.00">PERI_GPIO.h</text>
</a>
</g>
</g>
<!-- Node1&#45;&gt;Node13 -->
<g id="edge12_Node000001_Node000013" class="edge">
<title>Node1&#45;&gt;Node13</title>
<g id="a_edge12_Node000001_Node000013"><a xlink:title=" ">
<path fill="none" stroke="#63b8ff" d="M1665.4,-64.1C1555.68,-59.98 1320.24,-48.65 1112.06,-20.94"/>
<polygon fill="#63b8ff" stroke="#63b8ff" points="1112.79,-17.51 1102.41,-19.64 1111.85,-24.45 1112.79,-17.51"/>
</a>
</g>
</g>
<!-- Node14 -->
<g id="Node000014" class="node">
<title>Node14</title>
<g id="a_Node000014"><a xlink:href="PERI__I2C_8h.html" target="_top" xlink:title="CMSIS Peripheral Access Layer for I2C.">
<polygon fill="white" stroke="#666666" points="1186.38,-20.75 1118.62,-20.75 1118.62,0 1186.38,0 1186.38,-20.75"/>
<text xml:space="preserve" text-anchor="middle" x="1152.5" y="-7.25" font-family="Helvetica,sans-Serif" font-size="10.00">PERI_I2C.h</text>
</a>
</g>
</g>
<!-- Node1&#45;&gt;Node14 -->
<g id="edge13_Node000001_Node000014" class="edge">
<title>Node1&#45;&gt;Node14</title>
<g id="a_edge13_Node000001_Node000014"><a xlink:title=" ">
<path fill="none" stroke="#63b8ff" d="M1665.22,-63.55C1567.5,-58.9 1372.06,-47.21 1197.98,-21.13"/>
<polygon fill="#63b8ff" stroke="#63b8ff" points="1198.72,-17.7 1188.31,-19.66 1197.67,-24.62 1198.72,-17.7"/>
</a>
</g>
</g>
<!-- Node15 -->
<g id="Node000015" class="node">
<title>Node15</title>
<g id="a_Node000015"><a xlink:href="PERI__I2S_8h.html" target="_top" xlink:title="CMSIS Peripheral Access Layer for I2S.">
<polygon fill="white" stroke="#666666" points="1271,-20.75 1204,-20.75 1204,0 1271,0 1271,-20.75"/>
<text xml:space="preserve" text-anchor="middle" x="1237.5" y="-7.25" font-family="Helvetica,sans-Serif" font-size="10.00">PERI_I2S.h</text>
</a>
</g>
</g>
<!-- Node1&#45;&gt;Node15 -->
<g id="edge14_Node000001_Node000015" class="edge">
<title>Node1&#45;&gt;Node15</title>
<g id="a_edge14_Node000001_Node000015"><a xlink:title=" ">
<path fill="none" stroke="#63b8ff" d="M1665.23,-62.16C1580.63,-56.26 1424.48,-43.53 1282.43,-21.07"/>
<polygon fill="#63b8ff" stroke="#63b8ff" points="1283.28,-17.66 1272.85,-19.53 1282.17,-24.57 1283.28,-17.66"/>
</a>
</g>
</g>
<!-- Node16 -->
<g id="Node000016" class="node">
<title>Node16</title>
<g id="a_Node000016"><a xlink:href="PERI__LLWU_8h.html" target="_top" xlink:title="CMSIS Peripheral Access Layer for LLWU.">
<polygon fill="white" stroke="#666666" points="1368,-20.75 1289,-20.75 1289,0 1368,0 1368,-20.75"/>
<text xml:space="preserve" text-anchor="middle" x="1328.5" y="-7.25" font-family="Helvetica,sans-Serif" font-size="10.00">PERI_LLWU.h</text>
</a>
</g>
</g>
<!-- Node1&#45;&gt;Node16 -->
<g id="edge15_Node000001_Node000016" class="edge">
<title>Node1&#45;&gt;Node16</title>
<g id="a_edge15_Node000001_Node000016"><a xlink:title=" ">
<path fill="none" stroke="#63b8ff" d="M1665.19,-59.3C1597.28,-51.58 1485.17,-38.04 1379.47,-21.15"/>
<polygon fill="#63b8ff" stroke="#63b8ff" points="1380.2,-17.73 1369.77,-19.59 1379.09,-24.64 1380.2,-17.73"/>
</a>
</g>
</g>
<!-- Node17 -->
<g id="Node000017" class="node">
<title>Node17</title>
<g id="a_Node000017"><a xlink:href="PERI__LPTMR_8h.html" target="_top" xlink:title="CMSIS Peripheral Access Layer for LPTMR.">
<polygon fill="white" stroke="#666666" points="1471,-20.75 1386,-20.75 1386,0 1471,0 1471,-20.75"/>
<text xml:space="preserve" text-anchor="middle" x="1428.5" y="-7.25" font-family="Helvetica,sans-Serif" font-size="10.00">PERI_LPTMR.h</text>
</a>
</g>
</g>
<!-- Node1&#45;&gt;Node17 -->
<g id="edge16_Node000001_Node000017" class="edge">
<title>Node1&#45;&gt;Node17</title>
<g id="a_edge16_Node000001_Node000017"><a xlink:title=" ">
<path fill="none" stroke="#63b8ff" d="M1673.7,-56.27C1619.55,-46.36 1536.49,-31.15 1482.33,-21.23"/>
<polygon fill="#63b8ff" stroke="#63b8ff" points="1483.18,-17.83 1472.72,-19.47 1481.92,-24.72 1483.18,-17.83"/>
</a>
</g>
</g>
<!-- Node18 -->
<g id="Node000018" class="node">
<title>Node18</title>
<g id="a_Node000018"><a xlink:href="PERI__LPUART_8h.html" target="_top" xlink:title="CMSIS Peripheral Access Layer for LPUART.">
<polygon fill="white" stroke="#666666" points="1577.88,-20.75 1489.12,-20.75 1489.12,0 1577.88,0 1577.88,-20.75"/>
<text xml:space="preserve" text-anchor="middle" x="1533.5" y="-7.25" font-family="Helvetica,sans-Serif" font-size="10.00">PERI_LPUART.h</text>
</a>
</g>
</g>
<!-- Node1&#45;&gt;Node18 -->
<g id="edge17_Node000001_Node000018" class="edge">
<title>Node1&#45;&gt;Node18</title>
<g id="a_edge17_Node000001_Node000018"><a xlink:title=" ">
<path fill="none" stroke="#63b8ff" d="M1692.82,-56.34C1661.05,-47.37 1613.83,-34.04 1579.03,-24.23"/>
<polygon fill="#63b8ff" stroke="#63b8ff" points="1580.24,-20.93 1569.67,-21.58 1578.34,-27.67 1580.24,-20.93"/>
</a>
</g>
</g>
<!-- Node19 -->
<g id="Node000019" class="node">
<title>Node19</title>
<g id="a_Node000019"><a xlink:href="PERI__MCG_8h.html" target="_top" xlink:title="CMSIS Peripheral Access Layer for MCG.">
<polygon fill="white" stroke="#666666" points="1671.12,-20.75 1595.88,-20.75 1595.88,0 1671.12,0 1671.12,-20.75"/>
<text xml:space="preserve" text-anchor="middle" x="1633.5" y="-7.25" font-family="Helvetica,sans-Serif" font-size="10.00">PERI_MCG.h</text>
</a>
</g>
</g>
<!-- Node1&#45;&gt;Node19 -->
<g id="edge18_Node000001_Node000019" class="edge">
<title>Node1&#45;&gt;Node19</title>
<g id="a_edge18_Node000001_Node000019"><a xlink:title=" ">
<path fill="none" stroke="#63b8ff" d="M1710.69,-56.34C1696.53,-48.08 1676.01,-36.13 1659.69,-26.63"/>
<polygon fill="#63b8ff" stroke="#63b8ff" points="1661.87,-23.85 1651.47,-21.84 1658.35,-29.9 1661.87,-23.85"/>
</a>
</g>
</g>
<!-- Node20 -->
<g id="Node000020" class="node">
<title>Node20</title>
<g id="a_Node000020"><a xlink:href="PERI__MCM_8h.html" target="_top" xlink:title="CMSIS Peripheral Access Layer for MCM.">
<polygon fill="white" stroke="#666666" points="1765.88,-20.75 1689.12,-20.75 1689.12,0 1765.88,0 1765.88,-20.75"/>
<text xml:space="preserve" text-anchor="middle" x="1727.5" y="-7.25" font-family="Helvetica,sans-Serif" font-size="10.00">PERI_MCM.h</text>
</a>
</g>
</g>
<!-- Node1&#45;&gt;Node20 -->
<g id="edge19_Node000001_Node000020" class="edge">
<title>Node1&#45;&gt;Node20</title>
<g id="a_edge19_Node000001_Node000020"><a xlink:title=" ">
<path fill="none" stroke="#63b8ff" d="M1727.5,-56.34C1727.5,-49.72 1727.5,-40.72 1727.5,-32.52"/>
<polygon fill="#63b8ff" stroke="#63b8ff" points="1731,-32.59 1727.5,-22.59 1724,-32.59 1731,-32.59"/>
</a>
</g>
</g>
<!-- Node21 -->
<g id="Node000021" class="node">
<title>Node21</title>
<g id="a_Node000021"><a xlink:href="PERI__NV_8h.html" target="_top" xlink:title="CMSIS Peripheral Access Layer for NV.">
<polygon fill="white" stroke="#666666" points="1848.88,-20.75 1784.12,-20.75 1784.12,0 1848.88,0 1848.88,-20.75"/>
<text xml:space="preserve" text-anchor="middle" x="1816.5" y="-7.25" font-family="Helvetica,sans-Serif" font-size="10.00">PERI_NV.h</text>
</a>
</g>
</g>
<!-- Node1&#45;&gt;Node21 -->
<g id="edge20_Node000001_Node000021" class="edge">
<title>Node1&#45;&gt;Node21</title>
<g id="a_edge20_Node000001_Node000021"><a xlink:title=" ">
<path fill="none" stroke="#63b8ff" d="M1743.41,-56.34C1756.7,-48.16 1775.89,-36.36 1791.27,-26.9"/>
<polygon fill="#63b8ff" stroke="#63b8ff" points="1792.75,-30.09 1799.44,-21.87 1789.09,-24.13 1792.75,-30.09"/>
</a>
</g>
</g>
<!-- Node22 -->
<g id="Node000022" class="node">
<title>Node22</title>
<g id="a_Node000022"><a xlink:href="PERI__OSC_8h.html" target="_top" xlink:title="CMSIS Peripheral Access Layer for OSC.">
<polygon fill="white" stroke="#666666" points="1939.62,-20.75 1867.38,-20.75 1867.38,0 1939.62,0 1939.62,-20.75"/>
<text xml:space="preserve" text-anchor="middle" x="1903.5" y="-7.25" font-family="Helvetica,sans-Serif" font-size="10.00">PERI_OSC.h</text>
</a>
</g>
</g>
<!-- Node1&#45;&gt;Node22 -->
<g id="edge21_Node000001_Node000022" class="edge">
<title>Node1&#45;&gt;Node22</title>
<g id="a_edge21_Node000001_Node000022"><a xlink:title=" ">
<path fill="none" stroke="#63b8ff" d="M1758.97,-56.34C1787.53,-47.45 1829.89,-34.27 1861.37,-24.48"/>
<polygon fill="#63b8ff" stroke="#63b8ff" points="1862.06,-27.93 1870.57,-21.62 1859.98,-21.25 1862.06,-27.93"/>
</a>
</g>
</g>
<!-- Node23 -->
<g id="Node000023" class="node">
<title>Node23</title>
<g id="a_Node000023"><a xlink:href="PERI__PDB_8h.html" target="_top" xlink:title="CMSIS Peripheral Access Layer for PDB.">
<polygon fill="white" stroke="#666666" points="2029.62,-20.75 1957.38,-20.75 1957.38,0 2029.62,0 2029.62,-20.75"/>
<text xml:space="preserve" text-anchor="middle" x="1993.5" y="-7.25" font-family="Helvetica,sans-Serif" font-size="10.00">PERI_PDB.h</text>
</a>
</g>
</g>
<!-- Node1&#45;&gt;Node23 -->
<g id="edge22_Node000001_Node000023" class="edge">
<title>Node1&#45;&gt;Node23</title>
<g id="a_edge22_Node000001_Node000023"><a xlink:title=" ">
<path fill="none" stroke="#63b8ff" d="M1775.79,-56.25C1818.12,-47.59 1881.63,-34.57 1945.98,-21.27"/>
<polygon fill="#63b8ff" stroke="#63b8ff" points="1946.59,-24.72 1955.67,-19.26 1945.17,-17.86 1946.59,-24.72"/>
</a>
</g>
</g>
<!-- Node24 -->
<g id="Node000024" class="node">
<title>Node24</title>
<g id="a_Node000024"><a xlink:href="PERI__PIT_8h.html" target="_top" xlink:title="CMSIS Peripheral Access Layer for PIT.">
<polygon fill="white" stroke="#666666" points="2113.62,-20.75 2047.38,-20.75 2047.38,0 2113.62,0 2113.62,-20.75"/>
<text xml:space="preserve" text-anchor="middle" x="2080.5" y="-7.25" font-family="Helvetica,sans-Serif" font-size="10.00">PERI_PIT.h</text>
</a>
</g>
</g>
<!-- Node1&#45;&gt;Node24 -->
<g id="edge23_Node000001_Node000024" class="edge">
<title>Node1&#45;&gt;Node24</title>
<g id="a_edge23_Node000001_Node000024"><a xlink:title=" ">
<path fill="none" stroke="#63b8ff" d="M1789.98,-58.41C1850.48,-50.62 1945.03,-37.61 2036,-21.1"/>
<polygon fill="#63b8ff" stroke="#63b8ff" points="2036.38,-24.59 2045.59,-19.35 2035.12,-17.71 2036.38,-24.59"/>
</a>
</g>
</g>
<!-- Node25 -->
<g id="Node000025" class="node">
<title>Node25</title>
<g id="a_Node000025"><a xlink:href="PERI__PMC_8h.html" target="_top" xlink:title="CMSIS Peripheral Access Layer for PMC.">
<polygon fill="white" stroke="#666666" points="2205.38,-20.75 2131.62,-20.75 2131.62,0 2205.38,0 2205.38,-20.75"/>
<text xml:space="preserve" text-anchor="middle" x="2168.5" y="-7.25" font-family="Helvetica,sans-Serif" font-size="10.00">PERI_PMC.h</text>
</a>
</g>
</g>
<!-- Node1&#45;&gt;Node25 -->
<g id="edge24_Node000001_Node000025" class="edge">
<title>Node1&#45;&gt;Node25</title>
<g id="a_edge24_Node000001_Node000025"><a xlink:title=" ">
<path fill="none" stroke="#63b8ff" d="M1789.98,-60.63C1865.76,-53.6 1997.58,-40.16 2120.08,-21.02"/>
<polygon fill="#63b8ff" stroke="#63b8ff" points="2120.32,-24.53 2129.65,-19.51 2119.22,-17.61 2120.32,-24.53"/>
</a>
</g>
</g>
<!-- Node26 -->
<g id="Node000026" class="node">
<title>Node26</title>
<g id="a_Node000026"><a xlink:href="PERI__PORT_8h.html" target="_top" xlink:title="CMSIS Peripheral Access Layer for PORT.">
<polygon fill="white" stroke="#666666" points="2299.88,-20.75 2223.12,-20.75 2223.12,0 2299.88,0 2299.88,-20.75"/>
<text xml:space="preserve" text-anchor="middle" x="2261.5" y="-7.25" font-family="Helvetica,sans-Serif" font-size="10.00">PERI_PORT.h</text>
</a>
</g>
</g>
<!-- Node1&#45;&gt;Node26 -->
<g id="edge25_Node000001_Node000026" class="edge">
<title>Node1&#45;&gt;Node26</title>
<g id="a_edge25_Node000001_Node000026"><a xlink:title=" ">
<path fill="none" stroke="#63b8ff" d="M1789.63,-62.41C1880.26,-56.54 2054.23,-43.54 2211.53,-21.06"/>
<polygon fill="#63b8ff" stroke="#63b8ff" points="2211.93,-24.53 2221.33,-19.64 2210.93,-17.61 2211.93,-24.53"/>
</a>
</g>
</g>
<!-- Node27 -->
<g id="Node000027" class="node">
<title>Node27</title>
<g id="a_Node000027"><a xlink:href="PERI__RCM_8h.html" target="_top" xlink:title="CMSIS Peripheral Access Layer for RCM.">
<polygon fill="white" stroke="#666666" points="2392.75,-20.75 2318.25,-20.75 2318.25,0 2392.75,0 2392.75,-20.75"/>
<text xml:space="preserve" text-anchor="middle" x="2355.5" y="-7.25" font-family="Helvetica,sans-Serif" font-size="10.00">PERI_RCM.h</text>
</a>
</g>
</g>
<!-- Node1&#45;&gt;Node27 -->
<g id="edge26_Node000001_Node000027" class="edge">
<title>Node1&#45;&gt;Node27</title>
<g id="a_edge26_Node000001_Node000027"><a xlink:title=" ">
<path fill="none" stroke="#63b8ff" d="M1789.67,-63.7C1894.23,-59.09 2112.08,-47.2 2306.56,-20.84"/>
<polygon fill="#63b8ff" stroke="#63b8ff" points="2306.93,-24.33 2316.36,-19.5 2305.97,-17.39 2306.93,-24.33"/>
</a>
</g>
</g>
<!-- Node28 -->
<g id="Node000028" class="node">
<title>Node28</title>
<g id="a_Node000028"><a xlink:href="PERI__RFSYS_8h.html" target="_top" xlink:title="CMSIS Peripheral Access Layer for RFSYS.">
<polygon fill="white" stroke="#666666" points="2492.5,-20.75 2410.5,-20.75 2410.5,0 2492.5,0 2492.5,-20.75"/>
<text xml:space="preserve" text-anchor="middle" x="2451.5" y="-7.25" font-family="Helvetica,sans-Serif" font-size="10.00">PERI_RFSYS.h</text>
</a>
</g>
</g>
<!-- Node1&#45;&gt;Node28 -->
<g id="edge27_Node000001_Node000028" class="edge">
<title>Node1&#45;&gt;Node28</title>
<g id="a_edge27_Node000001_Node000028"><a xlink:title=" ">
<path fill="none" stroke="#63b8ff" d="M1790,-64.38C1907.37,-60.58 2168.93,-49.55 2398.82,-20.95"/>
<polygon fill="#63b8ff" stroke="#63b8ff" points="2399.1,-24.44 2408.59,-19.72 2398.23,-17.5 2399.1,-24.44"/>
</a>
</g>
</g>
<!-- Node29 -->
<g id="Node000029" class="node">
<title>Node29</title>
<g id="a_Node000029"><a xlink:href="PERI__RFVBAT_8h.html" target="_top" xlink:title="CMSIS Peripheral Access Layer for RFVBAT.">
<polygon fill="white" stroke="#666666" points="2600.25,-20.75 2510.75,-20.75 2510.75,0 2600.25,0 2600.25,-20.75"/>
<text xml:space="preserve" text-anchor="middle" x="2555.5" y="-7.25" font-family="Helvetica,sans-Serif" font-size="10.00">PERI_RFVBAT.h</text>
</a>
</g>
</g>
<!-- Node1&#45;&gt;Node29 -->
<g id="edge28_Node000001_Node000029" class="edge">
<title>Node1&#45;&gt;Node29</title>
<g id="a_edge28_Node000001_Node000029"><a xlink:title=" ">
<path fill="none" stroke="#63b8ff" d="M1789.91,-64.86C1919.93,-61.72 2229.47,-51.52 2499.28,-20.87"/>
<polygon fill="#63b8ff" stroke="#63b8ff" points="2499.44,-24.38 2508.97,-19.76 2498.64,-17.42 2499.44,-24.38"/>
</a>
</g>
</g>
<!-- Node30 -->
<g id="Node000030" class="node">
<title>Node30</title>
<g id="a_Node000030"><a xlink:href="PERI__RNG_8h.html" target="_top" xlink:title="CMSIS Peripheral Access Layer for RNG.">
<polygon fill="white" stroke="#666666" points="2692.38,-20.75 2618.62,-20.75 2618.62,0 2692.38,0 2692.38,-20.75"/>
<text xml:space="preserve" text-anchor="middle" x="2655.5" y="-7.25" font-family="Helvetica,sans-Serif" font-size="10.00">PERI_RNG.h</text>
</a>
</g>
</g>
<!-- Node1&#45;&gt;Node30 -->
<g id="edge29_Node000001_Node000030" class="edge">
<title>Node1&#45;&gt;Node30</title>
<g id="a_edge29_Node000001_Node000030"><a xlink:title=" ">
<path fill="none" stroke="#63b8ff" d="M1789.8,-66.11C1932.71,-65.4 2295.14,-59.68 2607.1,-20.86"/>
<polygon fill="#63b8ff" stroke="#63b8ff" points="2607.19,-24.38 2616.67,-19.66 2606.31,-17.44 2607.19,-24.38"/>
</a>
</g>
</g>
<!-- Node31 -->
<g id="Node000031" class="node">
<title>Node31</title>
<g id="a_Node000031"><a xlink:href="PERI__RTC_8h.html" target="_top" xlink:title="CMSIS Peripheral Access Layer for RTC.">
<polygon fill="white" stroke="#666666" points="2780.5,-20.75 2710.5,-20.75 2710.5,0 2780.5,0 2780.5,-20.75"/>
<text xml:space="preserve" text-anchor="middle" x="2745.5" y="-7.25" font-family="Helvetica,sans-Serif" font-size="10.00">PERI_RTC.h</text>
</a>
</g>
</g>
<!-- Node1&#45;&gt;Node31 -->
<g id="edge30_Node000001_Node000031" class="edge">
<title>Node1&#45;&gt;Node31</title>
<g id="a_edge30_Node000001_Node000031"><a xlink:title=" ">
<path fill="none" stroke="#63b8ff" d="M1789.91,-66.74C1943.21,-67.49 2350.55,-64.92 2698.72,-20.9"/>
<polygon fill="#63b8ff" stroke="#63b8ff" points="2699.07,-24.38 2708.54,-19.64 2698.18,-17.44 2699.07,-24.38"/>
</a>
</g>
</g>
<!-- Node32 -->
<g id="Node000032" class="node">
<title>Node32</title>
<g id="a_Node000032"><a xlink:href="PERI__SIM_8h.html" target="_top" xlink:title="CMSIS Peripheral Access Layer for SIM.">
<polygon fill="white" stroke="#666666" points="2868.5,-20.75 2798.5,-20.75 2798.5,0 2868.5,0 2868.5,-20.75"/>
<text xml:space="preserve" text-anchor="middle" x="2833.5" y="-7.25" font-family="Helvetica,sans-Serif" font-size="10.00">PERI_SIM.h</text>
</a>
</g>
</g>
<!-- Node1&#45;&gt;Node32 -->
<g id="edge31_Node000001_Node000032" class="edge">
<title>Node1&#45;&gt;Node32</title>
<g id="a_edge31_Node000001_Node000032"><a xlink:title=" ">
<path fill="none" stroke="#63b8ff" d="M1789.78,-64.83C1983.21,-60.61 2572.95,-46.08 2786.93,-20.83"/>
<polygon fill="#63b8ff" stroke="#63b8ff" points="2787.04,-24.34 2796.54,-19.65 2786.19,-17.39 2787.04,-24.34"/>
</a>
</g>
</g>
<!-- Node33 -->
<g id="Node000033" class="node">
<title>Node33</title>
<g id="a_Node000033"><a xlink:href="PERI__SMC_8h.html" target="_top" xlink:title="CMSIS Peripheral Access Layer for SMC.">
<polygon fill="white" stroke="#666666" points="2960.38,-20.75 2886.62,-20.75 2886.62,0 2960.38,0 2960.38,-20.75"/>
<text xml:space="preserve" text-anchor="middle" x="2923.5" y="-7.25" font-family="Helvetica,sans-Serif" font-size="10.00">PERI_SMC.h</text>
</a>
</g>
</g>
<!-- Node1&#45;&gt;Node33 -->
<g id="edge32_Node000001_Node000033" class="edge">
<title>Node1&#45;&gt;Node33</title>
<g id="a_edge32_Node000001_Node000033"><a xlink:title=" ">
<path fill="none" stroke="#63b8ff" d="M1789.77,-65C1993.84,-61.09 2642.12,-47.01 2874.75,-20.84"/>
<polygon fill="#63b8ff" stroke="#63b8ff" points="2875.15,-24.32 2884.67,-19.68 2874.33,-17.37 2875.15,-24.32"/>
</a>
</g>
</g>
<!-- Node34 -->
<g id="Node000034" class="node">
<title>Node34</title>
<g id="a_Node000034"><a xlink:href="PERI__SPI_8h.html" target="_top" xlink:title="CMSIS Peripheral Access Layer for SPI.">
<polygon fill="white" stroke="#666666" points="3045,-20.75 2978,-20.75 2978,0 3045,0 3045,-20.75"/>
<text xml:space="preserve" text-anchor="middle" x="3011.5" y="-7.25" font-family="Helvetica,sans-Serif" font-size="10.00">PERI_SPI.h</text>
</a>
</g>
</g>
<!-- Node1&#45;&gt;Node34 -->
<g id="edge33_Node000001_Node000034" class="edge">
<title>Node1&#45;&gt;Node34</title>
<g id="a_edge33_Node000001_Node000034"><a xlink:title=" ">
<path fill="none" stroke="#63b8ff" d="M1789.78,-65.36C2004.73,-62.48 2715.61,-50.97 2966.43,-20.89"/>
<polygon fill="#63b8ff" stroke="#63b8ff" points="2966.68,-24.38 2976.17,-19.67 2965.81,-17.44 2966.68,-24.38"/>
</a>
</g>
</g>
<!-- Node35 -->
<g id="Node000035" class="node">
<title>Node35</title>
<g id="a_Node000035"><a xlink:href="PERI__UART_8h.html" target="_top" xlink:title="CMSIS Peripheral Access Layer for UART.">
<polygon fill="white" stroke="#666666" points="3140.25,-20.75 3062.75,-20.75 3062.75,0 3140.25,0 3140.25,-20.75"/>
<text xml:space="preserve" text-anchor="middle" x="3101.5" y="-7.25" font-family="Helvetica,sans-Serif" font-size="10.00">PERI_UART.h</text>
</a>
</g>
</g>
<!-- Node1&#45;&gt;Node35 -->
<g id="edge34_Node000001_Node000035" class="edge">
<title>Node1&#45;&gt;Node35</title>
<g id="a_edge34_Node000001_Node000035"><a xlink:title=" ">
<path fill="none" stroke="#63b8ff" d="M1789.65,-65.34C2013.99,-62.31 2782.58,-50.08 3051.08,-20.95"/>
<polygon fill="#63b8ff" stroke="#63b8ff" points="3051.29,-24.45 3060.83,-19.85 3050.51,-17.49 3051.29,-24.45"/>
</a>
</g>
</g>
<!-- Node36 -->
<g id="Node000036" class="node">
<title>Node36</title>
<g id="a_Node000036"><a xlink:href="PERI__USB_8h.html" target="_top" xlink:title="CMSIS Peripheral Access Layer for USB.">
<polygon fill="white" stroke="#666666" points="3230.62,-20.75 3158.38,-20.75 3158.38,0 3230.62,0 3230.62,-20.75"/>
<text xml:space="preserve" text-anchor="middle" x="3194.5" y="-7.25" font-family="Helvetica,sans-Serif" font-size="10.00">PERI_USB.h</text>
</a>
</g>
</g>
<!-- Node1&#45;&gt;Node36 -->
<g id="edge35_Node000001_Node000036" class="edge">
<title>Node1&#45;&gt;Node36</title>
<g id="a_edge35_Node000001_Node000036"><a xlink:title=" ">
<path fill="none" stroke="#63b8ff" d="M1789.97,-65.57C2025.16,-63.28 2858.11,-53.09 3146.96,-20.8"/>
<polygon fill="#63b8ff" stroke="#63b8ff" points="3147.21,-24.29 3156.74,-19.67 3146.4,-17.34 3147.21,-24.29"/>
</a>
</g>
</g>
<!-- Node37 -->
<g id="Node000037" class="node">
<title>Node37</title>
<g id="a_Node000037"><a xlink:href="PERI__VREF_8h.html" target="_top" xlink:title="CMSIS Peripheral Access Layer for VREF.">
<polygon fill="white" stroke="#666666" points="3324.5,-20.75 3248.5,-20.75 3248.5,0 3324.5,0 3324.5,-20.75"/>
<text xml:space="preserve" text-anchor="middle" x="3286.5" y="-7.25" font-family="Helvetica,sans-Serif" font-size="10.00">PERI_VREF.h</text>
</a>
</g>
</g>
<!-- Node1&#45;&gt;Node37 -->
<g id="edge36_Node000001_Node000037" class="edge">
<title>Node1&#45;&gt;Node37</title>
<g id="a_edge36_Node000001_Node000037"><a xlink:title=" ">
<path fill="none" stroke="#63b8ff" d="M1789.65,-65.64C2033.93,-63.54 2929.43,-53.79 3236.98,-20.81"/>
<polygon fill="#63b8ff" stroke="#63b8ff" points="3237.05,-24.32 3246.6,-19.74 3236.28,-17.36 3237.05,-24.32"/>
</a>
</g>
</g>
<!-- Node38 -->
<g id="Node000038" class="node">
<title>Node38</title>
<g id="a_Node000038"><a xlink:href="PERI__WDOG_8h.html" target="_top" xlink:title="CMSIS Peripheral Access Layer for WDOG.">
<polygon fill="white" stroke="#666666" points="3426.62,-20.75 3342.38,-20.75 3342.38,0 3426.62,0 3426.62,-20.75"/>
<text xml:space="preserve" text-anchor="middle" x="3384.5" y="-7.25" font-family="Helvetica,sans-Serif" font-size="10.00">PERI_WDOG.h</text>
</a>
</g>
</g>
<!-- Node1&#45;&gt;Node38 -->
<g id="edge37_Node000001_Node000038" class="edge">
<title>Node1&#45;&gt;Node38</title>
<g id="a_edge37_Node000001_Node000038"><a xlink:title=" ">
<path fill="none" stroke="#63b8ff" d="M1789.97,-65.64C2044.28,-63.48 3003.27,-53.39 3330.62,-20.86"/>
<polygon fill="#63b8ff" stroke="#63b8ff" points="3330.9,-24.35 3340.49,-19.85 3330.18,-17.39 3330.9,-24.35"/>
</a>
</g>
</g>
</g>
</svg>

<g id="navigator" transform="translate(0 0)" fill="#404254">
  <rect fill="#f2f5e9" fill-opacity="0.5" stroke="#606060" stroke-width=".5" x="0" y="0" width="60" height="60"/>
  <use id="zoomplus" xlink:href="#zoomPlus" x="17" y="9" onmousedown="handleZoom(evt,'in')"/>
  <use id="zoomminus" xlink:href="#zoomMin" x="42" y="9" onmousedown="handleZoom(evt,'out')"/>
  <use id="reset" xlink:href="#resetDef" x="30" y="36" onmousedown="handleReset()"/>
   <use id="arrowup" xlink:href="#arrowUp" x="0" y="0" onmousedown="handlePan(0,-1)"/>
  <use id="arrowright" xlink:href="#arrowRight" x="0" y="0" onmousedown="handlePan(1,0)"/>
  <use id="arrowdown" xlink:href="#arrowDown" x="0" y="0" onmousedown="handlePan(0,1)"/>
  <use id="arrowleft" xlink:href="#arrowLeft" x="0" y="0" onmousedown="handlePan(-1,0)"/>
</g>
<svg viewBox="0 0 15 15" width="100%" height="30px" preserveAspectRatio="xMaxYMin meet">
 <g id="arrow_out" transform="scale(0.3 0.3)">
  <a xlink:href="MK22F51212_8h__incl_org.svg" target="_base">
   <rect id="button" ry="5" rx="5" y="6" x="6" height="38" width="38"
        fill="#f2f5e9" fill-opacity="0.5" stroke="#606060" stroke-width="1.0"/>
   <path id="arrow"
     d="M 11.500037,31.436501 C 11.940474,20.09759 22.043105,11.32322 32.158766,21.979434 L 37.068811,17.246167 C 37.068811,17.246167 37.088388,32 37.088388,32 L 22.160133,31.978069 C 22.160133,31.978069 26.997745,27.140456 26.997745,27.140456 C 18.528582,18.264221 13.291696,25.230495 11.500037,31.436501 z"
     style="fill:#404040;"/>
  </a>
 </g>
</svg>

<style type='text/css'>
<![CDATA[
[data-mouse-over-selected='false'] { opacity: 0.7; }
[data-mouse-over-selected='true']  { opacity: 1.0; }
]]>
</style>
<script type="application/ecmascript"><![CDATA[
document.addEventListener('DOMContentLoaded', (event) => {
  highlightEdges();
  highlightAdjacentNodes();
});
]]></script>
</svg>
