<?xml version="1.0" encoding="UTF-8" standalone="no"?>
<!DOCTYPE svg PUBLIC "-//W3C//DTD SVG 1.1//EN"
 "http://www.w3.org/Graphics/SVG/1.1/DTD/svg11.dtd">
<!-- Generated by graphviz version 14.1.5 (0)
 -->
<!-- Title: source/motion/motor/motor_process.c Pages: 1 -->
<svg width="1514pt" height="439pt"
 viewBox="0.00 0.00 1514.00 439.00" xmlns="http://www.w3.org/2000/svg" xmlns:xlink="http://www.w3.org/1999/xlink">
<g id="graph0" class="graph" transform="scale(1 1) rotate(0) translate(4 434.75)">
<title>source/motion/motor/motor_process.c</title>
<!-- Node1 -->
<g id="Node000001" class="node">
<title>Node1</title>
<g id="a_Node000001"><a xlink:title=" ">
<polygon fill="#999999" stroke="#666666" points="507.25,-430.75 389.25,-430.75 389.25,-397.25 507.25,-397.25 507.25,-430.75"/>
<text xml:space="preserve" text-anchor="start" x="397.25" y="-417.25" font-family="Helvetica,sans-Serif" font-size="10.00">source/motion/motor</text>
<text xml:space="preserve" text-anchor="middle" x="448.25" y="-404.5" font-family="Helvetica,sans-Serif" font-size="10.00">/motor_process.c</text>
</a>
</g>
</g>
<!-- Node2 -->
<g id="Node000002" class="node">
<title>Node2</title>
<g id="a_Node000002"><a xlink:href="log_8h.html" target="_top" xlink:title=" ">
<polygon fill="white" stroke="#666666" points="123.75,-134.25 14.75,-134.25 14.75,-113.5 123.75,-113.5 123.75,-134.25"/>
<text xml:space="preserve" text-anchor="middle" x="69.25" y="-120.75" font-family="Helvetica,sans-Serif" font-size="10.00">infrastructure/log.h</text>
</a>
</g>
</g>
<!-- Node1&#45;&gt;Node2 -->
<g id="edge1_Node000001_Node000002" class="edge">
<title>Node1&#45;&gt;Node2</title>
<g id="a_edge1_Node000001_Node000002"><a xlink:title=" ">
<path fill="none" stroke="#63b8ff" d="M388.77,-405.61C288.17,-391.43 95.25,-356.26 95.25,-295.12 95.25,-295.12 95.25,-295.12 95.25,-236.38 95.25,-203.84 84.62,-167.32 76.95,-145.22"/>
<polygon fill="#63b8ff" stroke="#63b8ff" points="80.3,-144.18 73.6,-135.96 73.72,-146.56 80.3,-144.18"/>
</a>
</g>
</g>
<!-- Node5 -->
<g id="Node000005" class="node">
<title>Node5</title>
<g id="a_Node000005"><a xlink:href="motor__process_8h.html" target="_top" xlink:title=" ">
<polygon fill="white" stroke="#666666" points="610.75,-361.25 513.75,-361.25 513.75,-340.5 610.75,-340.5 610.75,-361.25"/>
<text xml:space="preserve" text-anchor="middle" x="562.25" y="-347.75" font-family="Helvetica,sans-Serif" font-size="10.00">motor_process.h</text>
</a>
</g>
</g>
<!-- Node1&#45;&gt;Node5 -->
<g id="edge4_Node000001_Node000005" class="edge">
<title>Node1&#45;&gt;Node5</title>
<g id="a_edge4_Node000001_Node000005"><a xlink:title=" ">
<path fill="none" stroke="#63b8ff" d="M478.5,-396.78C495.76,-387.52 517.26,-376 534.15,-366.94"/>
<polygon fill="#63b8ff" stroke="#63b8ff" points="535.5,-370.19 542.66,-362.38 532.19,-364.02 535.5,-370.19"/>
</a>
</g>
</g>
<!-- Node27 -->
<g id="Node000027" class="node">
<title>Node27</title>
<g id="a_Node000027"><a xlink:href="motor__init_8h.html" target="_top" xlink:title=" ">
<polygon fill="white" stroke="#666666" points="804.87,-361.25 729.62,-361.25 729.62,-340.5 804.87,-340.5 804.87,-361.25"/>
<text xml:space="preserve" text-anchor="middle" x="767.25" y="-347.75" font-family="Helvetica,sans-Serif" font-size="10.00">motor_init.h</text>
</a>
</g>
</g>
<!-- Node1&#45;&gt;Node27 -->
<g id="edge49_Node000001_Node000027" class="edge">
<title>Node1&#45;&gt;Node27</title>
<g id="a_edge49_Node000001_Node000027"><a xlink:title=" ">
<path fill="none" stroke="#63b8ff" d="M507.71,-401.85C560.35,-391.93 639.6,-376.92 718.21,-361.64"/>
<polygon fill="#63b8ff" stroke="#63b8ff" points="718.66,-365.11 727.8,-359.77 717.32,-358.24 718.66,-365.11"/>
</a>
</g>
</g>
<!-- Node28 -->
<g id="Node000028" class="node">
<title>Node28</title>
<g id="a_Node000028"><a xlink:href="motor__motion_8h.html" target="_top" xlink:title=" ">
<polygon fill="white" stroke="#666666" points="495.25,-361.25 401.25,-361.25 401.25,-340.5 495.25,-340.5 495.25,-361.25"/>
<text xml:space="preserve" text-anchor="middle" x="448.25" y="-347.75" font-family="Helvetica,sans-Serif" font-size="10.00">motor_motion.h</text>
</a>
</g>
</g>
<!-- Node1&#45;&gt;Node28 -->
<g id="edge52_Node000001_Node000028" class="edge">
<title>Node1&#45;&gt;Node28</title>
<g id="a_edge52_Node000001_Node000028"><a xlink:title=" ">
<path fill="none" stroke="#63b8ff" d="M448.25,-396.94C448.25,-389.6 448.25,-380.82 448.25,-372.96"/>
<polygon fill="#63b8ff" stroke="#63b8ff" points="451.75,-373.23 448.25,-363.23 444.75,-373.23 451.75,-373.23"/>
</a>
</g>
</g>
<!-- Node29 -->
<g id="Node000029" class="node">
<title>Node29</title>
<g id="a_Node000029"><a xlink:href="motor__sync_8h.html" target="_top" xlink:title=" ">
<polygon fill="white" stroke="#666666" points="711.25,-361.25 629.25,-361.25 629.25,-340.5 711.25,-340.5 711.25,-361.25"/>
<text xml:space="preserve" text-anchor="middle" x="670.25" y="-347.75" font-family="Helvetica,sans-Serif" font-size="10.00">motor_sync.h</text>
</a>
</g>
</g>
<!-- Node1&#45;&gt;Node29 -->
<g id="edge55_Node000001_Node000029" class="edge">
<title>Node1&#45;&gt;Node29</title>
<g id="a_edge55_Node000001_Node000029"><a xlink:title=" ">
<path fill="none" stroke="#63b8ff" d="M507.16,-396.78C543.63,-386.74 589.8,-374.03 623.7,-364.69"/>
<polygon fill="#63b8ff" stroke="#63b8ff" points="624.52,-368.1 633.23,-362.07 622.66,-361.35 624.52,-368.1"/>
</a>
</g>
</g>
<!-- Node30 -->
<g id="Node000030" class="node">
<title>Node30</title>
<g id="a_Node000030"><a xlink:href="motor__tmc_8h.html" target="_top" xlink:title=" ">
<polygon fill="white" stroke="#666666" points="383.37,-361.25 305.12,-361.25 305.12,-340.5 383.37,-340.5 383.37,-361.25"/>
<text xml:space="preserve" text-anchor="middle" x="344.25" y="-347.75" font-family="Helvetica,sans-Serif" font-size="10.00">motor_tmc.h</text>
</a>
</g>
</g>
<!-- Node1&#45;&gt;Node30 -->
<g id="edge58_Node000001_Node000030" class="edge">
<title>Node1&#45;&gt;Node30</title>
<g id="a_edge58_Node000001_Node000030"><a xlink:title=" ">
<path fill="none" stroke="#63b8ff" d="M420.65,-396.78C405.2,-387.7 386.03,-376.43 370.76,-367.46"/>
<polygon fill="#63b8ff" stroke="#63b8ff" points="372.61,-364.48 362.21,-362.43 369.06,-370.52 372.61,-364.48"/>
</a>
</g>
</g>
<!-- Node31 -->
<g id="Node000031" class="node">
<title>Node31</title>
<g id="a_Node000031"><a xlink:href="cmd__dispatch_8h.html" target="_top" xlink:title=" ">
<polygon fill="white" stroke="#666666" points="388.5,-191 296,-191 296,-170.25 388.5,-170.25 388.5,-191"/>
<text xml:space="preserve" text-anchor="middle" x="342.25" y="-177.5" font-family="Helvetica,sans-Serif" font-size="10.00">cmd_dispatch.h</text>
</a>
</g>
</g>
<!-- Node1&#45;&gt;Node31 -->
<g id="edge62_Node000001_Node000031" class="edge">
<title>Node1&#45;&gt;Node31</title>
<g id="a_edge62_Node000001_Node000031"><a xlink:title=" ">
<path fill="none" stroke="#63b8ff" d="M388.98,-409.08C355.91,-403.5 317.26,-390.6 296.25,-361.25 260.26,-310.98 304.16,-235.05 328.33,-200.25"/>
<polygon fill="#63b8ff" stroke="#63b8ff" points="330.95,-202.6 333.94,-192.43 325.26,-198.52 330.95,-202.6"/>
</a>
</g>
</g>
<!-- Node32 -->
<g id="Node000032" class="node">
<title>Node32</title>
<g id="a_Node000032"><a xlink:href="sync__wait_8h.html" target="_top" xlink:title=" ">
<polygon fill="white" stroke="#666666" points="231.12,-191 157.37,-191 157.37,-170.25 231.12,-170.25 231.12,-191"/>
<text xml:space="preserve" text-anchor="middle" x="194.25" y="-177.5" font-family="Helvetica,sans-Serif" font-size="10.00">sync_wait.h</text>
</a>
</g>
</g>
<!-- Node1&#45;&gt;Node32 -->
<g id="edge67_Node000001_Node000032" class="edge">
<title>Node1&#45;&gt;Node32</title>
<g id="a_edge67_Node000001_Node000032"><a xlink:title=" ">
<path fill="none" stroke="#63b8ff" d="M388.85,-406.29C354.38,-399.74 312.04,-386.79 282.25,-361.25 232.03,-318.2 207.83,-239.78 198.73,-202.45"/>
<polygon fill="#63b8ff" stroke="#63b8ff" points="202.19,-201.91 196.54,-192.95 195.37,-203.48 202.19,-201.91"/>
</a>
</g>
</g>
<!-- Node33 -->
<g id="Node000033" class="node">
<title>Node33</title>
<g id="a_Node000033"><a xlink:title=" ">
<polygon fill="#e0e0e0" stroke="#999999" points="871.75,-361.25 822.75,-361.25 822.75,-340.5 871.75,-340.5 871.75,-361.25"/>
<text xml:space="preserve" text-anchor="middle" x="847.25" y="-347.75" font-family="Helvetica,sans-Serif" font-size="10.00">stdio.h</text>
</a>
</g>
</g>
<!-- Node1&#45;&gt;Node33 -->
<g id="edge73_Node000001_Node000033" class="edge">
<title>Node1&#45;&gt;Node33</title>
<g id="a_edge73_Node000001_Node000033"><a xlink:title=" ">
<path fill="none" stroke="#63b8ff" d="M507.64,-407.12C578.05,-399.59 699.09,-384.9 811.3,-361.66"/>
<polygon fill="#63b8ff" stroke="#63b8ff" points="811.93,-365.1 820.99,-359.62 810.49,-358.25 811.93,-365.1"/>
</a>
</g>
</g>
<!-- Node3 -->
<g id="Node000003" class="node">
<title>Node3</title>
<g id="a_Node000003"><a xlink:title=" ">
<polygon fill="#e0e0e0" stroke="#999999" points="326,-77.5 254.5,-77.5 254.5,-56.75 326,-56.75 326,-77.5"/>
<text xml:space="preserve" text-anchor="middle" x="290.25" y="-64" font-family="Helvetica,sans-Serif" font-size="10.00">FreeRTOS.h</text>
</a>
</g>
</g>
<!-- Node2&#45;&gt;Node3 -->
<g id="edge2_Node000002_Node000003" class="edge">
<title>Node2&#45;&gt;Node3</title>
<g id="a_edge2_Node000002_Node000003"><a xlink:title=" ">
<path fill="none" stroke="#63b8ff" d="M109.02,-113.02C146.65,-103.7 203.16,-89.7 243.06,-79.82"/>
<polygon fill="#63b8ff" stroke="#63b8ff" points="243.76,-83.25 252.63,-77.45 242.08,-76.45 243.76,-83.25"/>
</a>
</g>
</g>
<!-- Node4 -->
<g id="Node000004" class="node">
<title>Node4</title>
<g id="a_Node000004"><a xlink:title=" ">
<polygon fill="#e0e0e0" stroke="#999999" points="874.75,-20.75 789.75,-20.75 789.75,0 874.75,0 874.75,-20.75"/>
<text xml:space="preserve" text-anchor="middle" x="832.25" y="-7.25" font-family="Helvetica,sans-Serif" font-size="10.00">fsl_common.h</text>
</a>
</g>
</g>
<!-- Node2&#45;&gt;Node4 -->
<g id="edge3_Node000002_Node000004" class="edge">
<title>Node2&#45;&gt;Node4</title>
<g id="a_edge3_Node000002_Node000004"><a xlink:title=" ">
<path fill="none" stroke="#63b8ff" d="M72.09,-113.15C77.07,-98.09 88.92,-69.51 110.25,-56.75 167.06,-22.75 620.07,-13.98 778.1,-11.94"/>
<polygon fill="#63b8ff" stroke="#63b8ff" points="777.93,-15.44 787.88,-11.82 777.84,-8.44 777.93,-15.44"/>
</a>
</g>
</g>
<!-- Node6 -->
<g id="Node000006" class="node">
<title>Node6</title>
<g id="a_Node000006"><a xlink:href="motor__internal_8h.html" target="_top" xlink:title=" ">
<polygon fill="white" stroke="#666666" points="610.75,-304.5 513.75,-304.5 513.75,-283.75 610.75,-283.75 610.75,-304.5"/>
<text xml:space="preserve" text-anchor="middle" x="562.25" y="-291" font-family="Helvetica,sans-Serif" font-size="10.00">motor_internal.h</text>
</a>
</g>
</g>
<!-- Node5&#45;&gt;Node6 -->
<g id="edge5_Node000005_Node000006" class="edge">
<title>Node5&#45;&gt;Node6</title>
<g id="a_edge5_Node000005_Node000006"><a xlink:title=" ">
<path fill="none" stroke="#63b8ff" d="M562.25,-340.09C562.25,-333.47 562.25,-324.47 562.25,-316.27"/>
<polygon fill="#63b8ff" stroke="#63b8ff" points="565.75,-316.34 562.25,-306.34 558.75,-316.34 565.75,-316.34"/>
</a>
</g>
</g>
<!-- Node6&#45;&gt;Node3 -->
<g id="edge46_Node000006_Node000003" class="edge">
<title>Node6&#45;&gt;Node3</title>
<g id="a_edge46_Node000006_Node000003"><a xlink:title=" ">
<path fill="none" stroke="#63b8ff" d="M547.87,-283.38C526.13,-269.05 483.18,-242.35 443.25,-227 376.83,-201.47 331.55,-246.68 287.25,-191 263.98,-161.75 273.96,-115 282.58,-88.39"/>
<polygon fill="#63b8ff" stroke="#63b8ff" points="285.82,-89.74 285.82,-79.15 279.21,-87.42 285.82,-89.74"/>
</a>
</g>
</g>
<!-- Node7 -->
<g id="Node000007" class="node">
<title>Node7</title>
<g id="a_Node000007"><a xlink:title=" ">
<polygon fill="#e0e0e0" stroke="#999999" points="658.62,-77.5 605.87,-77.5 605.87,-56.75 658.62,-56.75 658.62,-77.5"/>
<text xml:space="preserve" text-anchor="middle" x="632.25" y="-64" font-family="Helvetica,sans-Serif" font-size="10.00">stdint.h</text>
</a>
</g>
</g>
<!-- Node6&#45;&gt;Node7 -->
<g id="edge6_Node000006_Node000007" class="edge">
<title>Node6&#45;&gt;Node7</title>
<g id="a_edge6_Node000006_Node000007"><a xlink:title=" ">
<path fill="none" stroke="#63b8ff" d="M565.26,-283.46C575.8,-249.56 611.25,-135.62 625.87,-88.64"/>
<polygon fill="#63b8ff" stroke="#63b8ff" points="629.17,-89.79 628.8,-79.2 622.49,-87.71 629.17,-89.79"/>
</a>
</g>
</g>
<!-- Node8 -->
<g id="Node000008" class="node">
<title>Node8</title>
<g id="a_Node000008"><a xlink:title=" ">
<polygon fill="#e0e0e0" stroke="#999999" points="433.75,-247.75 372.75,-247.75 372.75,-227 433.75,-227 433.75,-247.75"/>
<text xml:space="preserve" text-anchor="middle" x="403.25" y="-234.25" font-family="Helvetica,sans-Serif" font-size="10.00">stdbool.h</text>
</a>
</g>
</g>
<!-- Node6&#45;&gt;Node8 -->
<g id="edge7_Node000006_Node000008" class="edge">
<title>Node6&#45;&gt;Node8</title>
<g id="a_edge7_Node000006_Node000008"><a xlink:title=" ">
<path fill="none" stroke="#63b8ff" d="M533.82,-283.34C508.35,-274.57 470.75,-261.62 442.43,-251.87"/>
<polygon fill="#63b8ff" stroke="#63b8ff" points="443.72,-248.61 433.13,-248.66 441.44,-255.23 443.72,-248.61"/>
</a>
</g>
</g>
<!-- Node9 -->
<g id="Node000009" class="node">
<title>Node9</title>
<g id="a_Node000009"><a xlink:href="motor__core_8h.html" target="_top" xlink:title=" ">
<polygon fill="white" stroke="#666666" points="1088.5,-247.75 1008,-247.75 1008,-227 1088.5,-227 1088.5,-247.75"/>
<text xml:space="preserve" text-anchor="middle" x="1048.25" y="-234.25" font-family="Helvetica,sans-Serif" font-size="10.00">motor_core.h</text>
</a>
</g>
</g>
<!-- Node6&#45;&gt;Node9 -->
<g id="edge8_Node000006_Node000009" class="edge">
<title>Node6&#45;&gt;Node9</title>
<g id="a_edge8_Node000006_Node000009"><a xlink:title=" ">
<path fill="none" stroke="#63b8ff" d="M611.07,-287.62C703.27,-277.24 902.19,-254.83 996.55,-244.2"/>
<polygon fill="#63b8ff" stroke="#63b8ff" points="996.75,-247.7 1006.3,-243.1 995.97,-240.74 996.75,-247.7"/>
</a>
</g>
</g>
<!-- Node18 -->
<g id="Node000018" class="node">
<title>Node18</title>
<g id="a_Node000018"><a xlink:href="cmd__handle_8h.html" target="_top" xlink:title=" ">
<polygon fill="white" stroke="#666666" points="528.37,-134.25 444.12,-134.25 444.12,-113.5 528.37,-113.5 528.37,-134.25"/>
<text xml:space="preserve" text-anchor="middle" x="486.25" y="-120.75" font-family="Helvetica,sans-Serif" font-size="10.00">cmd_handle.h</text>
</a>
</g>
</g>
<!-- Node6&#45;&gt;Node18 -->
<g id="edge48_Node000006_Node000018" class="edge">
<title>Node6&#45;&gt;Node18</title>
<g id="a_edge48_Node000006_Node000018"><a xlink:title=" ">
<path fill="none" stroke="#63b8ff" d="M559.09,-283.31C552.13,-262.14 534.49,-210.83 514.25,-170.25 509.83,-161.38 504.2,-151.99 499.16,-144.07"/>
<polygon fill="#63b8ff" stroke="#63b8ff" points="502.24,-142.39 493.84,-135.94 496.38,-146.22 502.24,-142.39"/>
</a>
</g>
</g>
<!-- Node26 -->
<g id="Node000026" class="node">
<title>Node26</title>
<g id="a_Node000026"><a xlink:title=" ">
<polygon fill="#e0e0e0" stroke="#999999" points="425.75,-134.25 370.75,-134.25 370.75,-113.5 425.75,-113.5 425.75,-134.25"/>
<text xml:space="preserve" text-anchor="middle" x="398.25" y="-120.75" font-family="Helvetica,sans-Serif" font-size="10.00">queue.h</text>
</a>
</g>
</g>
<!-- Node6&#45;&gt;Node26 -->
<g id="edge47_Node000006_Node000026" class="edge">
<title>Node6&#45;&gt;Node26</title>
<g id="a_edge47_Node000006_Node000026"><a xlink:title=" ">
<path fill="none" stroke="#63b8ff" d="M552.96,-283.6C526.48,-256.42 450.26,-178.23 415.68,-142.76"/>
<polygon fill="#63b8ff" stroke="#63b8ff" points="418.39,-140.52 408.9,-135.8 413.37,-145.41 418.39,-140.52"/>
</a>
</g>
</g>
<!-- Node10 -->
<g id="Node000010" class="node">
<title>Node10</title>
<g id="a_Node000010"><a xlink:href="pca9555a_8h.html" target="_top" xlink:title=" ">
<polygon fill="white" stroke="#666666" points="1348.25,-77.5 1194.25,-77.5 1194.25,-56.75 1348.25,-56.75 1348.25,-77.5"/>
<text xml:space="preserve" text-anchor="middle" x="1271.25" y="-64" font-family="Helvetica,sans-Serif" font-size="10.00">driver/pca9555a/pca9555a.h</text>
</a>
</g>
</g>
<!-- Node9&#45;&gt;Node10 -->
<g id="edge9_Node000009_Node000010" class="edge">
<title>Node9&#45;&gt;Node10</title>
<g id="a_edge9_Node000009_Node000010"><a xlink:title=" ">
<path fill="none" stroke="#63b8ff" d="M1076.09,-226.65C1096.73,-218.74 1125.02,-206.38 1147.25,-191 1191.67,-160.26 1234.34,-112.77 1256.17,-86.74"/>
<polygon fill="#63b8ff" stroke="#63b8ff" points="1258.84,-89.01 1262.51,-79.07 1253.44,-84.55 1258.84,-89.01"/>
</a>
</g>
</g>
<!-- Node12 -->
<g id="Node000012" class="node">
<title>Node12</title>
<g id="a_Node000012"><a xlink:title=" ">
<polygon fill="#e0e0e0" stroke="#999999" points="805.62,-191 716.87,-191 716.87,-170.25 805.62,-170.25 805.62,-191"/>
<text xml:space="preserve" text-anchor="middle" x="761.25" y="-177.5" font-family="Helvetica,sans-Serif" font-size="10.00">MK22F51212.h</text>
</a>
</g>
</g>
<!-- Node9&#45;&gt;Node12 -->
<g id="edge12_Node000009_Node000012" class="edge">
<title>Node9&#45;&gt;Node12</title>
<g id="a_edge12_Node000009_Node000012"><a xlink:title=" ">
<path fill="none" stroke="#63b8ff" d="M1007.74,-228.65C957.87,-219.13 872.92,-202.93 816.94,-192.25"/>
<polygon fill="#63b8ff" stroke="#63b8ff" points="817.76,-188.84 807.29,-190.41 816.45,-195.72 817.76,-188.84"/>
</a>
</g>
</g>
<!-- Node13 -->
<g id="Node000013" class="node">
<title>Node13</title>
<g id="a_Node000013"><a xlink:href="step__core_8h.html" target="_top" xlink:title=" ">
<polygon fill="white" stroke="#666666" points="1084.37,-191 1012.12,-191 1012.12,-170.25 1084.37,-170.25 1084.37,-191"/>
<text xml:space="preserve" text-anchor="middle" x="1048.25" y="-177.5" font-family="Helvetica,sans-Serif" font-size="10.00">step_core.h</text>
</a>
</g>
</g>
<!-- Node9&#45;&gt;Node13 -->
<g id="edge13_Node000009_Node000013" class="edge">
<title>Node9&#45;&gt;Node13</title>
<g id="a_edge13_Node000009_Node000013"><a xlink:title=" ">
<path fill="none" stroke="#63b8ff" d="M1048.25,-226.59C1048.25,-219.97 1048.25,-210.97 1048.25,-202.77"/>
<polygon fill="#63b8ff" stroke="#63b8ff" points="1051.75,-202.84 1048.25,-192.84 1044.75,-202.84 1051.75,-202.84"/>
</a>
</g>
</g>
<!-- Node15 -->
<g id="Node000015" class="node">
<title>Node15</title>
<g id="a_Node000015"><a xlink:title=" ">
<polygon fill="#e0e0e0" stroke="#999999" points="1424.62,-77.5 1365.87,-77.5 1365.87,-56.75 1424.62,-56.75 1424.62,-77.5"/>
<text xml:space="preserve" text-anchor="middle" x="1395.25" y="-64" font-family="Helvetica,sans-Serif" font-size="10.00">fsl_ftm.h</text>
</a>
</g>
</g>
<!-- Node9&#45;&gt;Node15 -->
<g id="edge43_Node000009_Node000015" class="edge">
<title>Node9&#45;&gt;Node15</title>
<g id="a_edge43_Node000009_Node000015"><a xlink:title=" ">
<path fill="none" stroke="#63b8ff" d="M1079.88,-226.56C1105.7,-218.18 1142.92,-205.24 1174.25,-191 1247.78,-157.58 1329.77,-108.73 1370.08,-83.89"/>
<polygon fill="#63b8ff" stroke="#63b8ff" points="1371.68,-87.02 1378.34,-78.77 1367.99,-81.07 1371.68,-87.02"/>
</a>
</g>
</g>
<!-- Node16 -->
<g id="Node000016" class="node">
<title>Node16</title>
<g id="a_Node000016"><a xlink:title=" ">
<polygon fill="#e0e0e0" stroke="#999999" points="1505.87,-77.5 1442.62,-77.5 1442.62,-56.75 1505.87,-56.75 1505.87,-77.5"/>
<text xml:space="preserve" text-anchor="middle" x="1474.25" y="-64" font-family="Helvetica,sans-Serif" font-size="10.00">fsl_gpio.h</text>
</a>
</g>
</g>
<!-- Node9&#45;&gt;Node16 -->
<g id="edge44_Node000009_Node000016" class="edge">
<title>Node9&#45;&gt;Node16</title>
<g id="a_edge44_Node000009_Node000016"><a xlink:title=" ">
<path fill="none" stroke="#63b8ff" d="M1088.92,-226.72C1121.6,-218.51 1168.45,-205.73 1208.25,-191 1297.17,-158.08 1397.63,-107.96 1445.68,-83.13"/>
<polygon fill="#63b8ff" stroke="#63b8ff" points="1447.05,-86.37 1454.31,-78.65 1443.82,-80.15 1447.05,-86.37"/>
</a>
</g>
</g>
<!-- Node17 -->
<g id="Node000017" class="node">
<title>Node17</title>
<g id="a_Node000017"><a xlink:title=" ">
<polygon fill="#e0e0e0" stroke="#999999" points="1176.12,-77.5 1114.37,-77.5 1114.37,-56.75 1176.12,-56.75 1176.12,-77.5"/>
<text xml:space="preserve" text-anchor="middle" x="1145.25" y="-64" font-family="Helvetica,sans-Serif" font-size="10.00">fsl_port.h</text>
</a>
</g>
</g>
<!-- Node9&#45;&gt;Node17 -->
<g id="edge45_Node000009_Node000017" class="edge">
<title>Node9&#45;&gt;Node17</title>
<g id="a_edge45_Node000009_Node000017"><a xlink:title=" ">
<path fill="none" stroke="#63b8ff" d="M1068.4,-226.58C1097.05,-211.38 1148.4,-179.12 1169.25,-134.25 1176.47,-118.72 1168.57,-100.36 1159.96,-86.93"/>
<polygon fill="#63b8ff" stroke="#63b8ff" points="1162.97,-85.13 1154.34,-78.99 1157.26,-89.17 1162.97,-85.13"/>
</a>
</g>
</g>
<!-- Node23 -->
<g id="Node000023" class="node">
<title>Node23</title>
<g id="a_Node000023"><a xlink:href="tmc2209__core_8h.html" target="_top" xlink:title=" ">
<polygon fill="white" stroke="#666666" points="917.25,-191 823.25,-191 823.25,-170.25 917.25,-170.25 917.25,-191"/>
<text xml:space="preserve" text-anchor="middle" x="870.25" y="-177.5" font-family="Helvetica,sans-Serif" font-size="10.00">tmc2209_core.h</text>
</a>
</g>
</g>
<!-- Node9&#45;&gt;Node23 -->
<g id="edge35_Node000009_Node000023" class="edge">
<title>Node9&#45;&gt;Node23</title>
<g id="a_edge35_Node000009_Node000023"><a xlink:title=" ">
<path fill="none" stroke="#63b8ff" d="M1016.43,-226.59C987.53,-217.7 944.7,-204.52 912.86,-194.73"/>
<polygon fill="#63b8ff" stroke="#63b8ff" points="914.13,-191.46 903.54,-191.87 912.07,-198.15 914.13,-191.46"/>
</a>
</g>
</g>
<!-- Node10&#45;&gt;Node4 -->
<g id="edge10_Node000010_Node000004" class="edge">
<title>Node10&#45;&gt;Node4</title>
<g id="a_edge10_Node000010_Node000004"><a xlink:title=" ">
<path fill="none" stroke="#63b8ff" d="M1193.78,-56.46C1105.51,-45.45 963.54,-27.75 886.4,-18.13"/>
<polygon fill="#63b8ff" stroke="#63b8ff" points="886.9,-14.66 876.55,-16.9 886.04,-21.61 886.9,-14.66"/>
</a>
</g>
</g>
<!-- Node11 -->
<g id="Node000011" class="node">
<title>Node11</title>
<g id="a_Node000011"><a xlink:title=" ">
<polygon fill="#e0e0e0" stroke="#999999" points="1141.12,-20.75 1061.37,-20.75 1061.37,0 1141.12,0 1141.12,-20.75"/>
<text xml:space="preserve" text-anchor="middle" x="1101.25" y="-7.25" font-family="Helvetica,sans-Serif" font-size="10.00">peripherals.h</text>
</a>
</g>
</g>
<!-- Node10&#45;&gt;Node11 -->
<g id="edge11_Node000010_Node000011" class="edge">
<title>Node10&#45;&gt;Node11</title>
<g id="a_edge11_Node000010_Node000011"><a xlink:title=" ">
<path fill="none" stroke="#63b8ff" d="M1240.86,-56.34C1213.38,-47.49 1172.71,-34.39 1142.34,-24.61"/>
<polygon fill="#63b8ff" stroke="#63b8ff" points="1143.7,-21.37 1133.11,-21.63 1141.55,-28.03 1143.7,-21.37"/>
</a>
</g>
</g>
<!-- Node13&#45;&gt;Node3 -->
<g id="edge15_Node000013_Node000003" class="edge">
<title>Node13&#45;&gt;Node3</title>
<g id="a_edge15_Node000013_Node000003"><a xlink:title=" ">
<path fill="none" stroke="#63b8ff" d="M1011.65,-174.57C952.03,-166.31 830.28,-149.33 727.25,-134.25 585.42,-113.5 417.88,-87.82 337.68,-75.46"/>
<polygon fill="#63b8ff" stroke="#63b8ff" points="338.4,-72.03 327.99,-73.96 337.34,-78.95 338.4,-72.03"/>
</a>
</g>
</g>
<!-- Node13&#45;&gt;Node4 -->
<g id="edge17_Node000013_Node000004" class="edge">
<title>Node13&#45;&gt;Node4</title>
<g id="a_edge17_Node000013_Node000004"><a xlink:title=" ">
<path fill="none" stroke="#63b8ff" d="M1026.94,-169.78C1009.64,-161.38 984.99,-148.43 965.25,-134.25 919.78,-101.57 873.19,-54.88 849.06,-29.5"/>
<polygon fill="#63b8ff" stroke="#63b8ff" points="851.67,-27.16 842.27,-22.28 846.57,-31.96 851.67,-27.16"/>
</a>
</g>
</g>
<!-- Node13&#45;&gt;Node10 -->
<g id="edge14_Node000013_Node000010" class="edge">
<title>Node13&#45;&gt;Node10</title>
<g id="a_edge14_Node000013_Node000010"><a xlink:title=" ">
<path fill="none" stroke="#63b8ff" d="M1080.13,-169.78C1105,-161.59 1140.1,-148.95 1169.25,-134.25 1198.11,-119.7 1228.94,-98.9 1249.05,-84.53"/>
<polygon fill="#63b8ff" stroke="#63b8ff" points="1251,-87.44 1257.05,-78.74 1246.89,-81.77 1251,-87.44"/>
</a>
</g>
</g>
<!-- Node14 -->
<g id="Node000014" class="node">
<title>Node14</title>
<g id="a_Node000014"><a xlink:title=" ">
<polygon fill="#e0e0e0" stroke="#999999" points="1020.25,-134.25 974.25,-134.25 974.25,-113.5 1020.25,-113.5 1020.25,-134.25"/>
<text xml:space="preserve" text-anchor="middle" x="997.25" y="-120.75" font-family="Helvetica,sans-Serif" font-size="10.00">task.h</text>
</a>
</g>
</g>
<!-- Node13&#45;&gt;Node14 -->
<g id="edge16_Node000013_Node000014" class="edge">
<title>Node13&#45;&gt;Node14</title>
<g id="a_edge16_Node000013_Node000014"><a xlink:title=" ">
<path fill="none" stroke="#63b8ff" d="M1039.13,-169.84C1032.17,-162.36 1022.38,-151.86 1014.02,-142.88"/>
<polygon fill="#63b8ff" stroke="#63b8ff" points="1016.7,-140.62 1007.32,-135.69 1011.58,-145.39 1016.7,-140.62"/>
</a>
</g>
</g>
<!-- Node13&#45;&gt;Node15 -->
<g id="edge18_Node000013_Node000015" class="edge">
<title>Node13&#45;&gt;Node15</title>
<g id="a_edge18_Node000013_Node000015"><a xlink:title=" ">
<path fill="none" stroke="#63b8ff" d="M1082.47,-169.8C1113.35,-160.84 1159.97,-147.09 1200.25,-134.25 1254.77,-116.87 1317.35,-95.37 1356.6,-81.7"/>
<polygon fill="#63b8ff" stroke="#63b8ff" points="1357.55,-85.08 1365.83,-78.48 1355.24,-78.47 1357.55,-85.08"/>
</a>
</g>
</g>
<!-- Node13&#45;&gt;Node16 -->
<g id="edge19_Node000013_Node000016" class="edge">
<title>Node13&#45;&gt;Node16</title>
<g id="a_edge19_Node000013_Node000016"><a xlink:title=" ">
<path fill="none" stroke="#63b8ff" d="M1084.87,-171.75C1124.35,-163.12 1188.97,-148.58 1244.25,-134.25 1310.01,-117.2 1385.6,-94.95 1431.63,-81.1"/>
<polygon fill="#63b8ff" stroke="#63b8ff" points="1432.38,-84.53 1440.95,-78.29 1430.36,-77.83 1432.38,-84.53"/>
</a>
</g>
</g>
<!-- Node13&#45;&gt;Node17 -->
<g id="edge20_Node000013_Node000017" class="edge">
<title>Node13&#45;&gt;Node17</title>
<g id="a_edge20_Node000013_Node000017"><a xlink:title=" ">
<path fill="none" stroke="#63b8ff" d="M1048.79,-170.09C1050.01,-156.26 1054.04,-130.46 1067.25,-113.5 1077.63,-100.17 1093.11,-90.02 1107.54,-82.74"/>
<polygon fill="#63b8ff" stroke="#63b8ff" points="1108.84,-85.99 1116.41,-78.58 1105.87,-79.66 1108.84,-85.99"/>
</a>
</g>
</g>
<!-- Node13&#45;&gt;Node18 -->
<g id="edge21_Node000013_Node000018" class="edge">
<title>Node13&#45;&gt;Node18</title>
<g id="a_edge21_Node000013_Node000018"><a xlink:title=" ">
<path fill="none" stroke="#63b8ff" d="M1011.84,-176.13C933.1,-168.56 741.1,-150.07 580.25,-134.25 567.25,-132.97 553.23,-131.58 540.1,-130.27"/>
<polygon fill="#63b8ff" stroke="#63b8ff" points="540.63,-126.81 530.34,-129.3 539.94,-133.77 540.63,-126.81"/>
</a>
</g>
</g>
<!-- Node21 -->
<g id="Node000021" class="node">
<title>Node21</title>
<g id="a_Node000021"><a xlink:href="step__shared_8h.html" target="_top" xlink:title=" ">
<polygon fill="white" stroke="#666666" points="1160.37,-134.25 1076.12,-134.25 1076.12,-113.5 1160.37,-113.5 1160.37,-134.25"/>
<text xml:space="preserve" text-anchor="middle" x="1118.25" y="-120.75" font-family="Helvetica,sans-Serif" font-size="10.00">step_shared.h</text>
</a>
</g>
</g>
<!-- Node13&#45;&gt;Node21 -->
<g id="edge27_Node000013_Node000021" class="edge">
<title>Node13&#45;&gt;Node21</title>
<g id="a_edge27_Node000013_Node000021"><a xlink:title=" ">
<path fill="none" stroke="#63b8ff" d="M1060.76,-169.84C1070.82,-161.97 1085.16,-150.75 1097.01,-141.49"/>
<polygon fill="#63b8ff" stroke="#63b8ff" points="1098.93,-144.43 1104.65,-135.51 1094.62,-138.91 1098.93,-144.43"/>
</a>
</g>
</g>
<!-- Node18&#45;&gt;Node3 -->
<g id="edge23_Node000018_Node000003" class="edge">
<title>Node18&#45;&gt;Node3</title>
<g id="a_edge23_Node000018_Node000003"><a xlink:title=" ">
<path fill="none" stroke="#63b8ff" d="M451.21,-113.09C419.12,-104.12 371.4,-90.79 336.25,-80.98"/>
<polygon fill="#63b8ff" stroke="#63b8ff" points="337.35,-77.65 326.77,-78.33 335.46,-84.39 337.35,-77.65"/>
</a>
</g>
</g>
<!-- Node18&#45;&gt;Node4 -->
<g id="edge25_Node000018_Node000004" class="edge">
<title>Node18&#45;&gt;Node4</title>
<g id="a_edge25_Node000018_Node000004"><a xlink:title=" ">
<path fill="none" stroke="#63b8ff" d="M499.15,-113.14C519.09,-98.57 559.1,-71.28 597.25,-56.75 656.92,-34.02 729.64,-22.22 778.23,-16.43"/>
<polygon fill="#63b8ff" stroke="#63b8ff" points="778.4,-19.94 787.93,-15.32 777.6,-12.98 778.4,-19.94"/>
</a>
</g>
</g>
<!-- Node18&#45;&gt;Node7 -->
<g id="edge22_Node000018_Node000007" class="edge">
<title>Node18&#45;&gt;Node7</title>
<g id="a_edge22_Node000018_Node000007"><a xlink:title=" ">
<path fill="none" stroke="#63b8ff" d="M512.35,-113.09C535.6,-104.37 569.87,-91.52 595.82,-81.79"/>
<polygon fill="#63b8ff" stroke="#63b8ff" points="596.82,-85.15 604.96,-78.36 594.36,-78.59 596.82,-85.15"/>
</a>
</g>
</g>
<!-- Node19 -->
<g id="Node000019" class="node">
<title>Node19</title>
<g id="a_Node000019"><a xlink:title=" ">
<polygon fill="#e0e0e0" stroke="#999999" points="210.75,-77.5 119.75,-77.5 119.75,-56.75 210.75,-56.75 210.75,-77.5"/>
<text xml:space="preserve" text-anchor="middle" x="165.25" y="-64" font-family="Helvetica,sans-Serif" font-size="10.00">event_groups.h</text>
</a>
</g>
</g>
<!-- Node18&#45;&gt;Node19 -->
<g id="edge24_Node000018_Node000019" class="edge">
<title>Node18&#45;&gt;Node19</title>
<g id="a_edge24_Node000018_Node000019"><a xlink:title=" ">
<path fill="none" stroke="#63b8ff" d="M443.68,-115C440.83,-114.49 438,-113.98 435.25,-113.5 361.83,-100.58 277.02,-86.46 222.34,-77.46"/>
<polygon fill="#63b8ff" stroke="#63b8ff" points="223.08,-74.03 212.64,-75.86 221.94,-80.94 223.08,-74.03"/>
</a>
</g>
</g>
<!-- Node20 -->
<g id="Node000020" class="node">
<title>Node20</title>
<g id="a_Node000020"><a xlink:title=" ">
<polygon fill="#e0e0e0" stroke="#999999" points="512.25,-77.5 460.25,-77.5 460.25,-56.75 512.25,-56.75 512.25,-77.5"/>
<text xml:space="preserve" text-anchor="middle" x="486.25" y="-64" font-family="Helvetica,sans-Serif" font-size="10.00">stdlib.h</text>
</a>
</g>
</g>
<!-- Node18&#45;&gt;Node20 -->
<g id="edge26_Node000018_Node000020" class="edge">
<title>Node18&#45;&gt;Node20</title>
<g id="a_edge26_Node000018_Node000020"><a xlink:title=" ">
<path fill="none" stroke="#63b8ff" d="M486.25,-113.09C486.25,-106.47 486.25,-97.47 486.25,-89.27"/>
<polygon fill="#63b8ff" stroke="#63b8ff" points="489.75,-89.34 486.25,-79.34 482.75,-89.34 489.75,-89.34"/>
</a>
</g>
</g>
<!-- Node21&#45;&gt;Node4 -->
<g id="edge31_Node000021_Node000004" class="edge">
<title>Node21&#45;&gt;Node4</title>
<g id="a_edge31_Node000021_Node000004"><a xlink:title=" ">
<path fill="none" stroke="#63b8ff" d="M1078.31,-113.06C1047.06,-104.9 1002.76,-92.26 965.25,-77.5 927.5,-62.65 885.92,-41.08 859.47,-26.65"/>
<polygon fill="#63b8ff" stroke="#63b8ff" points="861.22,-23.62 850.78,-21.87 857.85,-29.76 861.22,-23.62"/>
</a>
</g>
</g>
<!-- Node21&#45;&gt;Node7 -->
<g id="edge28_Node000021_Node000007" class="edge">
<title>Node21&#45;&gt;Node7</title>
<g id="a_edge28_Node000021_Node000007"><a xlink:title=" ">
<path fill="none" stroke="#63b8ff" d="M1075.7,-118.39C968.24,-107.06 694.02,-78.14 689.25,-77.5 683.04,-76.66 676.46,-75.67 670.07,-74.66"/>
<polygon fill="#63b8ff" stroke="#63b8ff" points="670.81,-71.23 660.37,-73.08 669.68,-78.14 670.81,-71.23"/>
</a>
</g>
</g>
<!-- Node21&#45;&gt;Node10 -->
<g id="edge29_Node000021_Node000010" class="edge">
<title>Node21&#45;&gt;Node10</title>
<g id="a_edge29_Node000021_Node000010"><a xlink:title=" ">
<path fill="none" stroke="#63b8ff" d="M1145.6,-113.09C1170,-104.36 1205.97,-91.48 1233.18,-81.75"/>
<polygon fill="#63b8ff" stroke="#63b8ff" points="1234.21,-85.1 1242.45,-78.43 1231.86,-78.5 1234.21,-85.1"/>
</a>
</g>
</g>
<!-- Node21&#45;&gt;Node15 -->
<g id="edge32_Node000021_Node000015" class="edge">
<title>Node21&#45;&gt;Node15</title>
<g id="a_edge32_Node000021_Node000015"><a xlink:title=" ">
<path fill="none" stroke="#63b8ff" d="M1160.7,-115.53C1206.26,-107.5 1281,-93.86 1354.16,-78.09"/>
<polygon fill="#63b8ff" stroke="#63b8ff" points="1354.91,-81.51 1363.94,-75.97 1353.42,-74.67 1354.91,-81.51"/>
</a>
</g>
</g>
<!-- Node21&#45;&gt;Node16 -->
<g id="edge33_Node000021_Node000016" class="edge">
<title>Node21&#45;&gt;Node16</title>
<g id="a_edge33_Node000021_Node000016"><a xlink:title=" ">
<path fill="none" stroke="#63b8ff" d="M1160.72,-117.88C1219.26,-110.74 1328.28,-96.58 1431.29,-77.73"/>
<polygon fill="#63b8ff" stroke="#63b8ff" points="1431.83,-81.19 1441.03,-75.93 1430.56,-74.3 1431.83,-81.19"/>
</a>
</g>
</g>
<!-- Node21&#45;&gt;Node17 -->
<g id="edge34_Node000021_Node000017" class="edge">
<title>Node21&#45;&gt;Node17</title>
<g id="a_edge34_Node000021_Node000017"><a xlink:title=" ">
<path fill="none" stroke="#63b8ff" d="M1123.08,-113.09C1126.49,-106.16 1131.2,-96.62 1135.39,-88.11"/>
<polygon fill="#63b8ff" stroke="#63b8ff" points="1138.51,-89.7 1139.8,-79.19 1132.23,-86.61 1138.51,-89.7"/>
</a>
</g>
</g>
<!-- Node22 -->
<g id="Node000022" class="node">
<title>Node22</title>
<g id="a_Node000022"><a xlink:title=" ">
<polygon fill="#e0e0e0" stroke="#999999" points="1096.5,-77.5 974,-77.5 974,-56.75 1096.5,-56.75 1096.5,-77.5"/>
<text xml:space="preserve" text-anchor="middle" x="1035.25" y="-64" font-family="Helvetica,sans-Serif" font-size="10.00">fsl_device_registers.h</text>
</a>
</g>
</g>
<!-- Node21&#45;&gt;Node22 -->
<g id="edge30_Node000021_Node000022" class="edge">
<title>Node21&#45;&gt;Node22</title>
<g id="a_edge30_Node000021_Node000022"><a xlink:title=" ">
<path fill="none" stroke="#63b8ff" d="M1103.41,-113.09C1091.14,-104.99 1073.46,-93.33 1059.19,-83.92"/>
<polygon fill="#63b8ff" stroke="#63b8ff" points="1061.5,-81.25 1051.22,-78.66 1057.64,-87.09 1061.5,-81.25"/>
</a>
</g>
</g>
<!-- Node23&#45;&gt;Node4 -->
<g id="edge40_Node000023_Node000004" class="edge">
<title>Node23&#45;&gt;Node4</title>
<g id="a_edge40_Node000023_Node000004"><a xlink:title=" ">
<path fill="none" stroke="#63b8ff" d="M868.1,-170.1C862.12,-143.62 845.19,-68.68 836.92,-32.05"/>
<polygon fill="#63b8ff" stroke="#63b8ff" points="840.42,-31.68 834.81,-22.69 833.6,-33.22 840.42,-31.68"/>
</a>
</g>
</g>
<!-- Node23&#45;&gt;Node7 -->
<g id="edge36_Node000023_Node000007" class="edge">
<title>Node23&#45;&gt;Node7</title>
<g id="a_edge36_Node000023_Node000007"><a xlink:title=" ">
<path fill="none" stroke="#63b8ff" d="M827.98,-169.8C798.81,-162.16 759.61,-150.19 727.25,-134.25 699.74,-120.7 671.28,-99.81 652.77,-85.15"/>
<polygon fill="#63b8ff" stroke="#63b8ff" points="654.97,-82.43 645,-78.87 650.58,-87.88 654.97,-82.43"/>
</a>
</g>
</g>
<!-- Node23&#45;&gt;Node11 -->
<g id="edge42_Node000023_Node000011" class="edge">
<title>Node23&#45;&gt;Node11</title>
<g id="a_edge42_Node000023_Node000011"><a xlink:title=" ">
<path fill="none" stroke="#63b8ff" d="M875.04,-170.08C887.03,-147.13 920.61,-88.44 965.25,-56.75 990.29,-38.97 1022.78,-27.79 1049.73,-20.98"/>
<polygon fill="#63b8ff" stroke="#63b8ff" points="1050.51,-24.39 1059.43,-18.67 1048.89,-17.58 1050.51,-24.39"/>
</a>
</g>
</g>
<!-- Node23&#45;&gt;Node18 -->
<g id="edge41_Node000023_Node000018" class="edge">
<title>Node23&#45;&gt;Node18</title>
<g id="a_edge41_Node000023_Node000018"><a xlink:title=" ">
<path fill="none" stroke="#63b8ff" d="M822.91,-171.6C819.98,-171.14 817.08,-170.68 814.25,-170.25 717.76,-155.5 604.96,-140.35 539.95,-131.83"/>
<polygon fill="#63b8ff" stroke="#63b8ff" points="540.64,-128.39 530.27,-130.56 539.73,-135.33 540.64,-128.39"/>
</a>
</g>
</g>
<!-- Node24 -->
<g id="Node000024" class="node">
<title>Node24</title>
<g id="a_Node000024"><a xlink:href="tmc2209__shared_8h.html" target="_top" xlink:title=" ">
<polygon fill="white" stroke="#666666" points="842.25,-134.25 736.25,-134.25 736.25,-113.5 842.25,-113.5 842.25,-134.25"/>
<text xml:space="preserve" text-anchor="middle" x="789.25" y="-120.75" font-family="Helvetica,sans-Serif" font-size="10.00">tmc2209_shared.h</text>
</a>
</g>
</g>
<!-- Node23&#45;&gt;Node24 -->
<g id="edge37_Node000023_Node000024" class="edge">
<title>Node23&#45;&gt;Node24</title>
<g id="a_edge37_Node000023_Node000024"><a xlink:title=" ">
<path fill="none" stroke="#63b8ff" d="M855.77,-169.84C843.9,-161.82 826.87,-150.31 813.02,-140.94"/>
<polygon fill="#63b8ff" stroke="#63b8ff" points="815.1,-138.13 804.86,-135.43 811.18,-143.93 815.1,-138.13"/>
</a>
</g>
</g>
<!-- Node24&#45;&gt;Node7 -->
<g id="edge38_Node000024_Node000007" class="edge">
<title>Node24&#45;&gt;Node7</title>
<g id="a_edge38_Node000024_Node000007"><a xlink:title=" ">
<path fill="none" stroke="#63b8ff" d="M761.18,-113.09C735.64,-104.18 697.75,-90.97 669.65,-81.17"/>
<polygon fill="#63b8ff" stroke="#63b8ff" points="671.05,-77.95 660.46,-77.96 668.75,-84.56 671.05,-77.95"/>
</a>
</g>
</g>
<!-- Node25 -->
<g id="Node000025" class="node">
<title>Node25</title>
<g id="a_Node000025"><a xlink:title=" ">
<polygon fill="#e0e0e0" stroke="#999999" points="803.87,-77.5 698.62,-77.5 698.62,-56.75 803.87,-56.75 803.87,-77.5"/>
<text xml:space="preserve" text-anchor="middle" x="751.25" y="-64" font-family="Helvetica,sans-Serif" font-size="10.00">fsl_uart_freertos.h</text>
</a>
</g>
</g>
<!-- Node24&#45;&gt;Node25 -->
<g id="edge39_Node000024_Node000025" class="edge">
<title>Node24&#45;&gt;Node25</title>
<g id="a_edge39_Node000024_Node000025"><a xlink:title=" ">
<path fill="none" stroke="#63b8ff" d="M782.46,-113.09C777.48,-105.92 770.58,-95.98 764.53,-87.26"/>
<polygon fill="#63b8ff" stroke="#63b8ff" points="767.42,-85.29 758.85,-79.07 761.67,-89.28 767.42,-85.29"/>
</a>
</g>
</g>
<!-- Node27&#45;&gt;Node6 -->
<g id="edge51_Node000027_Node000006" class="edge">
<title>Node27&#45;&gt;Node6</title>
<g id="a_edge51_Node000027_Node000006"><a xlink:title=" ">
<path fill="none" stroke="#63b8ff" d="M730.6,-340.09C696.89,-331.08 646.7,-317.68 609.89,-307.85"/>
<polygon fill="#63b8ff" stroke="#63b8ff" points="610.95,-304.51 600.39,-305.31 609.15,-311.27 610.95,-304.51"/>
</a>
</g>
</g>
<!-- Node27&#45;&gt;Node9 -->
<g id="edge50_Node000027_Node000009" class="edge">
<title>Node27&#45;&gt;Node9</title>
<g id="a_edge50_Node000027_Node000009"><a xlink:title=" ">
<path fill="none" stroke="#63b8ff" d="M791.7,-340.18C841.62,-320.36 955.45,-275.2 1013.22,-252.27"/>
<polygon fill="#63b8ff" stroke="#63b8ff" points="1014.25,-255.63 1022.25,-248.69 1011.67,-249.13 1014.25,-255.63"/>
</a>
</g>
</g>
<!-- Node28&#45;&gt;Node6 -->
<g id="edge53_Node000028_Node000006" class="edge">
<title>Node28&#45;&gt;Node6</title>
<g id="a_edge53_Node000028_Node000006"><a xlink:title=" ">
<path fill="none" stroke="#63b8ff" d="M468.63,-340.09C486.22,-331.64 511.88,-319.32 531.88,-309.71"/>
<polygon fill="#63b8ff" stroke="#63b8ff" points="533.18,-312.97 540.68,-305.48 530.15,-306.66 533.18,-312.97"/>
</a>
</g>
</g>
<!-- Node28&#45;&gt;Node8 -->
<g id="edge54_Node000028_Node000008" class="edge">
<title>Node28&#45;&gt;Node8</title>
<g id="a_edge54_Node000028_Node000008"><a xlink:title=" ">
<path fill="none" stroke="#63b8ff" d="M444.41,-340.37C437.14,-322.36 421.22,-282.89 411.44,-258.68"/>
<polygon fill="#63b8ff" stroke="#63b8ff" points="414.76,-257.54 407.77,-249.58 408.27,-260.16 414.76,-257.54"/>
</a>
</g>
</g>
<!-- Node29&#45;&gt;Node6 -->
<g id="edge57_Node000029_Node000006" class="edge">
<title>Node29&#45;&gt;Node6</title>
<g id="a_edge57_Node000029_Node000006"><a xlink:title=" ">
<path fill="none" stroke="#63b8ff" d="M650.94,-340.09C634.43,-331.72 610.42,-319.54 591.54,-309.97"/>
<polygon fill="#63b8ff" stroke="#63b8ff" points="593.24,-306.91 582.74,-305.51 590.08,-313.16 593.24,-306.91"/>
</a>
</g>
</g>
<!-- Node29&#45;&gt;Node7 -->
<g id="edge56_Node000029_Node000007" class="edge">
<title>Node29&#45;&gt;Node7</title>
<g id="a_edge56_Node000029_Node000007"><a xlink:title=" ">
<path fill="none" stroke="#63b8ff" d="M670.25,-340.03C670.25,-320.6 670.25,-275.93 670.25,-238.38 670.25,-238.38 670.25,-238.38 670.25,-179.62 670.25,-146.01 654.59,-109.6 643.37,-87.84"/>
<polygon fill="#63b8ff" stroke="#63b8ff" points="646.56,-86.37 638.74,-79.22 640.39,-89.69 646.56,-86.37"/>
</a>
</g>
</g>
<!-- Node30&#45;&gt;Node6 -->
<g id="edge59_Node000030_Node000006" class="edge">
<title>Node30&#45;&gt;Node6</title>
<g id="a_edge59_Node000030_Node000006"><a xlink:title=" ">
<path fill="none" stroke="#63b8ff" d="M383.48,-340.02C419.4,-331 472.77,-317.6 511.85,-307.78"/>
<polygon fill="#63b8ff" stroke="#63b8ff" points="512.66,-311.19 521.5,-305.36 510.95,-304.4 512.66,-311.19"/>
</a>
</g>
</g>
<!-- Node30&#45;&gt;Node7 -->
<g id="edge60_Node000030_Node000007" class="edge">
<title>Node30&#45;&gt;Node7</title>
<g id="a_edge60_Node000030_Node000007"><a xlink:title=" ">
<path fill="none" stroke="#63b8ff" d="M343.13,-340.19C341.07,-317.94 339.01,-262.36 364.25,-227 414.94,-156 462.88,-179.86 537.25,-134.25 562.95,-118.49 591.16,-98.49 610.11,-84.63"/>
<polygon fill="#63b8ff" stroke="#63b8ff" points="612.16,-87.46 618.14,-78.72 608.01,-81.83 612.16,-87.46"/>
</a>
</g>
</g>
<!-- Node30&#45;&gt;Node8 -->
<g id="edge61_Node000030_Node000008" class="edge">
<title>Node30&#45;&gt;Node8</title>
<g id="a_edge61_Node000030_Node000008"><a xlink:title=" ">
<path fill="none" stroke="#63b8ff" d="M349.28,-340.37C358.85,-322.27 379.88,-282.53 392.68,-258.35"/>
<polygon fill="#63b8ff" stroke="#63b8ff" points="395.77,-259.99 397.36,-249.51 389.59,-256.71 395.77,-259.99"/>
</a>
</g>
</g>
<!-- Node31&#45;&gt;Node3 -->
<g id="edge64_Node000031_Node000003" class="edge">
<title>Node31&#45;&gt;Node3</title>
<g id="a_edge64_Node000031_Node000003"><a xlink:title=" ">
<path fill="none" stroke="#63b8ff" d="M337.82,-170.12C329.38,-152.02 310.84,-112.28 299.56,-88.1"/>
<polygon fill="#63b8ff" stroke="#63b8ff" points="302.86,-86.88 295.46,-79.3 296.51,-89.84 302.86,-86.88"/>
</a>
</g>
</g>
<!-- Node31&#45;&gt;Node7 -->
<g id="edge63_Node000031_Node000007" class="edge">
<title>Node31&#45;&gt;Node7</title>
<g id="a_edge63_Node000031_Node000007"><a xlink:title=" ">
<path fill="none" stroke="#63b8ff" d="M342.19,-169.86C342.67,-155.26 345.86,-127.92 362.25,-113.5 379.45,-98.36 523.95,-80.28 594.2,-72.28"/>
<polygon fill="#63b8ff" stroke="#63b8ff" points="594.56,-75.76 604.1,-71.17 593.77,-68.81 594.56,-75.76"/>
</a>
</g>
</g>
<!-- Node31&#45;&gt;Node18 -->
<g id="edge66_Node000031_Node000018" class="edge">
<title>Node31&#45;&gt;Node18</title>
<g id="a_edge66_Node000031_Node000018"><a xlink:title=" ">
<path fill="none" stroke="#63b8ff" d="M367.99,-169.84C390.83,-161.16 424.42,-148.38 449.97,-138.67"/>
<polygon fill="#63b8ff" stroke="#63b8ff" points="451.21,-141.94 459.31,-135.12 448.72,-135.4 451.21,-141.94"/>
</a>
</g>
</g>
<!-- Node31&#45;&gt;Node26 -->
<g id="edge65_Node000031_Node000026" class="edge">
<title>Node31&#45;&gt;Node26</title>
<g id="a_edge65_Node000031_Node000026"><a xlink:title=" ">
<path fill="none" stroke="#63b8ff" d="M352.26,-169.84C359.99,-162.28 370.88,-151.64 380.12,-142.6"/>
<polygon fill="#63b8ff" stroke="#63b8ff" points="382.54,-145.13 387.24,-135.64 377.65,-140.12 382.54,-145.13"/>
</a>
</g>
</g>
<!-- Node32&#45;&gt;Node3 -->
<g id="edge69_Node000032_Node000003" class="edge">
<title>Node32&#45;&gt;Node3</title>
<g id="a_edge69_Node000032_Node000003"><a xlink:title=" ">
<path fill="none" stroke="#63b8ff" d="M194.98,-170.1C196.47,-156.29 200.96,-130.51 214.25,-113.5 224.53,-100.34 239.77,-90.18 253.91,-82.84"/>
<polygon fill="#63b8ff" stroke="#63b8ff" points="255.08,-86.16 262.56,-78.66 252.03,-79.86 255.08,-86.16"/>
</a>
</g>
</g>
<!-- Node32&#45;&gt;Node4 -->
<g id="edge71_Node000032_Node000004" class="edge">
<title>Node32&#45;&gt;Node4</title>
<g id="a_edge71_Node000032_Node000004"><a xlink:title=" ">
<path fill="none" stroke="#63b8ff" d="M156.99,-180.41C93.73,-180.18 -25.07,-172.18 5.25,-113.5 25.26,-74.77 44.14,-71.24 85.25,-56.75 213.19,-11.66 629.4,-9.94 778.5,-10.84"/>
<polygon fill="#63b8ff" stroke="#63b8ff" points="778.06,-14.33 788.09,-10.9 778.11,-7.33 778.06,-14.33"/>
</a>
</g>
</g>
<!-- Node32&#45;&gt;Node7 -->
<g id="edge68_Node000032_Node000007" class="edge">
<title>Node32&#45;&gt;Node7</title>
<g id="a_edge68_Node000032_Node000007"><a xlink:title=" ">
<path fill="none" stroke="#63b8ff" d="M212.28,-169.91C240.03,-155.38 295.26,-128.13 345.25,-113.5 432.3,-88.02 538.65,-75.95 594.25,-71.02"/>
<polygon fill="#63b8ff" stroke="#63b8ff" points="594.46,-74.51 604.13,-70.18 593.87,-67.54 594.46,-74.51"/>
</a>
</g>
</g>
<!-- Node32&#45;&gt;Node18 -->
<g id="edge72_Node000032_Node000018" class="edge">
<title>Node32&#45;&gt;Node18</title>
<g id="a_edge72_Node000032_Node000018"><a xlink:title=" ">
<path fill="none" stroke="#63b8ff" d="M231.53,-172.64C282.55,-163.07 374.45,-145.84 432.8,-134.9"/>
<polygon fill="#63b8ff" stroke="#63b8ff" points="433.33,-138.36 442.51,-133.08 432.04,-131.48 433.33,-138.36"/>
</a>
</g>
</g>
<!-- Node32&#45;&gt;Node19 -->
<g id="edge70_Node000032_Node000019" class="edge">
<title>Node32&#45;&gt;Node19</title>
<g id="a_edge70_Node000032_Node000019"><a xlink:title=" ">
<path fill="none" stroke="#63b8ff" d="M189.78,-170.09C185.7,-161.05 179.79,-146.99 176.25,-134.25 172.09,-119.3 169.28,-101.97 167.54,-88.81"/>
<polygon fill="#63b8ff" stroke="#63b8ff" points="171.05,-88.69 166.38,-79.18 164.1,-89.53 171.05,-88.69"/>
</a>
</g>
</g>
</g>
</svg>
