<?xml version="1.0" encoding="UTF-8" standalone="no"?>
<!DOCTYPE svg PUBLIC "-//W3C//DTD SVG 1.1//EN"
 "http://www.w3.org/Graphics/SVG/1.1/DTD/svg11.dtd">
<!-- Generated by graphviz version 14.1.4 (0)
 -->
<!-- Title: source/motor_homing.h Pages: 1 -->
<svg width="399pt" height="86pt"
 viewBox="0.00 0.00 399.00 86.00" xmlns="http://www.w3.org/2000/svg" xmlns:xlink="http://www.w3.org/1999/xlink">
<g id="graph0" class="graph" transform="scale(1 1) rotate(0) translate(4 81.5)">
<title>source/motor_homing.h</title>
<!-- Node1 -->
<g id="Node000001" class="node">
<title>Node1</title>
<g id="a_Node000001"><a xlink:title=" ">
<polygon fill="#999999" stroke="#666666" points="260.38,-77.5 128.88,-77.5 128.88,-56.75 260.38,-56.75 260.38,-77.5"/>
<text xml:space="preserve" text-anchor="middle" x="194.62" y="-64" font-family="Helvetica,sans-Serif" font-size="10.00">source/motor_homing.h</text>
</a>
</g>
</g>
<!-- Node2 -->
<g id="Node000002" class="node">
<title>Node2</title>
<g id="a_Node000002"><a xlink:href="motorCmd_8c.html" target="_top" xlink:title=" ">
<polygon fill="white" stroke="#666666" points="111.25,-20.75 0,-20.75 0,0 111.25,0 111.25,-20.75"/>
<text xml:space="preserve" text-anchor="middle" x="55.62" y="-7.25" font-family="Helvetica,sans-Serif" font-size="10.00">source/motorCmd.c</text>
</a>
</g>
</g>
<!-- Node1&#45;&gt;Node2 -->
<g id="edge1_Node000001_Node000002" class="edge">
<title>Node1&#45;&gt;Node2</title>
<g id="a_edge1_Node000001_Node000002"><a xlink:title=" ">
<path fill="none" stroke="#63b8ff" d="M159.37,-52.24C134.65,-42.5 102.23,-29.73 80.26,-21.08"/>
<polygon fill="#63b8ff" stroke="#63b8ff" points="157.78,-55.37 168.37,-55.78 160.34,-48.86 157.78,-55.37"/>
</a>
</g>
</g>
<!-- Node3 -->
<g id="Node000003" class="node">
<title>Node3</title>
<g id="a_Node000003"><a xlink:href="motor__homing_8c.html" target="_top" xlink:title=" ">
<polygon fill="white" stroke="#666666" points="260,-20.75 129.25,-20.75 129.25,0 260,0 260,-20.75"/>
<text xml:space="preserve" text-anchor="middle" x="194.62" y="-7.25" font-family="Helvetica,sans-Serif" font-size="10.00">source/motor_homing.c</text>
</a>
</g>
</g>
<!-- Node1&#45;&gt;Node3 -->
<g id="edge2_Node000001_Node000003" class="edge">
<title>Node1&#45;&gt;Node3</title>
<g id="a_edge2_Node000001_Node000003"><a xlink:title=" ">
<path fill="none" stroke="#63b8ff" d="M194.62,-44.88C194.62,-36.66 194.62,-27.68 194.62,-21.08"/>
<polygon fill="#63b8ff" stroke="#63b8ff" points="191.13,-44.82 194.63,-54.82 198.13,-44.82 191.13,-44.82"/>
</a>
</g>
</g>
<!-- Node4 -->
<g id="Node000004" class="node">
<title>Node4</title>
<g id="a_Node000004"><a xlink:href="motor__test_8c.html" target="_top" xlink:title=" ">
<polygon fill="white" stroke="#666666" points="391,-20.75 278.25,-20.75 278.25,0 391,0 391,-20.75"/>
<text xml:space="preserve" text-anchor="middle" x="334.62" y="-7.25" font-family="Helvetica,sans-Serif" font-size="10.00">source/motor_test.c</text>
</a>
</g>
</g>
<!-- Node1&#45;&gt;Node4 -->
<g id="edge3_Node000001_Node000004" class="edge">
<title>Node1&#45;&gt;Node4</title>
<g id="a_edge3_Node000001_Node000004"><a xlink:title=" ">
<path fill="none" stroke="#63b8ff" d="M230.14,-52.24C255.03,-42.5 287.68,-29.73 309.81,-21.08"/>
<polygon fill="#63b8ff" stroke="#63b8ff" points="229.1,-48.88 221.06,-55.79 231.65,-55.4 229.1,-48.88"/>
</a>
</g>
</g>
</g>
</svg>
