<?xml version="1.0" encoding="UTF-8" standalone="no"?>
<!DOCTYPE svg PUBLIC "-//W3C//DTD SVG 1.1//EN"
 "http://www.w3.org/Graphics/SVG/1.1/DTD/svg11.dtd">
<!-- Generated by graphviz version 14.1.5 (0)
 -->
<!-- Title: source/motor_configs.h Pages: 1 -->
<svg width="540pt" height="98pt"
 viewBox="0.00 0.00 540.00 98.00" xmlns="http://www.w3.org/2000/svg" xmlns:xlink="http://www.w3.org/1999/xlink">
<g id="graph0" class="graph" transform="scale(1 1) rotate(0) translate(4 94.25)">
<title>source/motor_configs.h</title>
<!-- Node1 -->
<g id="Node000001" class="node">
<title>Node1</title>
<g id="a_Node000001"><a xlink:title=" ">
<polygon fill="#999999" stroke="#666666" points="314.75,-90.25 185.5,-90.25 185.5,-69.5 314.75,-69.5 314.75,-90.25"/>
<text xml:space="preserve" text-anchor="middle" x="250.12" y="-76.75" font-family="Helvetica,sans-Serif" font-size="10.00">source/motor_configs.h</text>
</a>
</g>
</g>
<!-- Node2 -->
<g id="Node000002" class="node">
<title>Node2</title>
<g id="a_Node000002"><a xlink:href="grabber_8c.html" target="_top" xlink:title=" ">
<polygon fill="white" stroke="#666666" points="96.25,-27.12 0,-27.12 0,-6.38 96.25,-6.38 96.25,-27.12"/>
<text xml:space="preserve" text-anchor="middle" x="48.12" y="-13.62" font-family="Helvetica,sans-Serif" font-size="10.00">source/grabber.c</text>
</a>
</g>
</g>
<!-- Node1&#45;&gt;Node2 -->
<g id="edge1_Node000001_Node000002" class="edge">
<title>Node1&#45;&gt;Node2</title>
<g id="a_edge1_Node000001_Node000002"><a xlink:title=" ">
<path fill="none" stroke="#63b8ff" d="M206.96,-65.81C169.06,-54.35 114.78,-37.92 80.5,-27.55"/>
<polygon fill="#63b8ff" stroke="#63b8ff" points="205.64,-69.07 216.22,-68.62 207.66,-62.37 205.64,-69.07"/>
</a>
</g>
</g>
<!-- Node3 -->
<g id="Node000003" class="node">
<title>Node3</title>
<g id="a_Node000003"><a xlink:href="motor__homing_8c.html" target="_top" xlink:title=" ">
<polygon fill="white" stroke="#666666" points="245.5,-27.12 114.75,-27.12 114.75,-6.38 245.5,-6.38 245.5,-27.12"/>
<text xml:space="preserve" text-anchor="middle" x="180.12" y="-13.62" font-family="Helvetica,sans-Serif" font-size="10.00">source/motor_homing.c</text>
</a>
</g>
</g>
<!-- Node1&#45;&gt;Node3 -->
<g id="edge2_Node000001_Node000003" class="edge">
<title>Node1&#45;&gt;Node3</title>
<g id="a_edge2_Node000001_Node000003"><a xlink:title=" ">
<path fill="none" stroke="#63b8ff" d="M230.34,-61.6C217.63,-50.5 201.6,-36.5 191.11,-27.34"/>
<polygon fill="#63b8ff" stroke="#63b8ff" points="227.9,-64.12 237.74,-68.06 232.51,-58.84 227.9,-64.12"/>
</a>
</g>
</g>
<!-- Node4 -->
<g id="Node000004" class="node">
<title>Node4</title>
<g id="a_Node000004"><a xlink:href="motor__test_8c.html" target="_top" xlink:title=" ">
<polygon fill="white" stroke="#666666" points="376.5,-27.12 263.75,-27.12 263.75,-6.38 376.5,-6.38 376.5,-27.12"/>
<text xml:space="preserve" text-anchor="middle" x="320.12" y="-13.62" font-family="Helvetica,sans-Serif" font-size="10.00">source/motor_test.c</text>
</a>
</g>
</g>
<!-- Node1&#45;&gt;Node4 -->
<g id="edge3_Node000001_Node000004" class="edge">
<title>Node1&#45;&gt;Node4</title>
<g id="a_edge3_Node000001_Node000004"><a xlink:title=" ">
<path fill="none" stroke="#63b8ff" d="M269.91,-61.6C282.62,-50.5 298.65,-36.5 309.14,-27.34"/>
<polygon fill="#63b8ff" stroke="#63b8ff" points="267.74,-58.84 262.51,-68.06 272.35,-64.12 267.74,-58.84"/>
</a>
</g>
</g>
<!-- Node5 -->
<g id="Node000005" class="node">
<title>Node5</title>
<g id="a_Node000005"><a xlink:href="scara__kinematics__process_8c.html" target="_top" xlink:title=" ">
<polygon fill="white" stroke="#666666" points="531.5,-33.5 394.75,-33.5 394.75,0 531.5,0 531.5,-33.5"/>
<text xml:space="preserve" text-anchor="start" x="402.75" y="-20" font-family="Helvetica,sans-Serif" font-size="10.00">source/scara_kinematics</text>
<text xml:space="preserve" text-anchor="middle" x="463.12" y="-7.25" font-family="Helvetica,sans-Serif" font-size="10.00">_process.c</text>
</a>
</g>
</g>
<!-- Node1&#45;&gt;Node5 -->
<g id="edge4_Node000001_Node000005" class="edge">
<title>Node1&#45;&gt;Node5</title>
<g id="a_edge4_Node000001_Node000005"><a xlink:title=" ">
<path fill="none" stroke="#63b8ff" d="M295.31,-65.91C327.77,-56.59 371.76,-43.97 406.55,-33.98"/>
<polygon fill="#63b8ff" stroke="#63b8ff" points="294.45,-62.51 285.8,-68.64 296.38,-69.24 294.45,-62.51"/>
</a>
</g>
</g>
</g>
</svg>
