<?xml version="1.0" encoding="UTF-8" standalone="no"?>
<!DOCTYPE svg PUBLIC "-//W3C//DTD SVG 1.1//EN"
 "http://www.w3.org/Graphics/SVG/1.1/DTD/svg11.dtd">
<!-- Generated by graphviz version 14.1.4 (0)
 -->
<!-- Title: source/motor_homing.h Pages: 1 -->
<svg width="1194pt" height="369pt"
 viewBox="0.00 0.00 1194.00 369.00" xmlns="http://www.w3.org/2000/svg" xmlns:xlink="http://www.w3.org/1999/xlink">
<g id="graph0" class="graph" transform="scale(1 1) rotate(0) translate(4 365.25)">
<title>source/motor_homing.h</title>
<!-- Node1 -->
<g id="Node000001" class="node">
<title>Node1</title>
<g id="a_Node000001"><a xlink:title=" ">
<polygon fill="#999999" stroke="#666666" points="1176.12,-361.25 1044.62,-361.25 1044.62,-340.5 1176.12,-340.5 1176.12,-361.25"/>
<text xml:space="preserve" text-anchor="middle" x="1110.38" y="-347.75" font-family="Helvetica,sans-Serif" font-size="10.00">source/motor_homing.h</text>
</a>
</g>
</g>
<!-- Node2 -->
<g id="Node000002" class="node">
<title>Node2</title>
<g id="a_Node000002"><a xlink:href="motor__internal_8h.html" target="_top" xlink:title=" ">
<polygon fill="white" stroke="#666666" points="1046.88,-304.5 949.88,-304.5 949.88,-283.75 1046.88,-283.75 1046.88,-304.5"/>
<text xml:space="preserve" text-anchor="middle" x="998.38" y="-291" font-family="Helvetica,sans-Serif" font-size="10.00">motor_internal.h</text>
</a>
</g>
</g>
<!-- Node1&#45;&gt;Node2 -->
<g id="edge1_Node000001_Node000002" class="edge">
<title>Node1&#45;&gt;Node2</title>
<g id="a_edge1_Node000001_Node000002"><a xlink:title=" ">
<path fill="none" stroke="#63b8ff" d="M1090.35,-340.09C1073.15,-331.68 1048.1,-319.43 1028.48,-309.84"/>
<polygon fill="#63b8ff" stroke="#63b8ff" points="1030.11,-306.74 1019.58,-305.49 1027.03,-313.03 1030.11,-306.74"/>
</a>
</g>
</g>
<!-- Node7 -->
<g id="Node000007" class="node">
<title>Node7</title>
<g id="a_Node000007"><a xlink:title=" ">
<polygon fill="#e0e0e0" stroke="#999999" points="901.75,-191 813,-191 813,-170.25 901.75,-170.25 901.75,-191"/>
<text xml:space="preserve" text-anchor="middle" x="857.38" y="-177.5" font-family="Helvetica,sans-Serif" font-size="10.00">MK22F51212.h</text>
</a>
</g>
</g>
<!-- Node1&#45;&gt;Node7 -->
<g id="edge41_Node000001_Node000007" class="edge">
<title>Node1&#45;&gt;Node7</title>
<g id="a_edge41_Node000001_Node000007"><a xlink:title=" ">
<path fill="none" stroke="#63b8ff" d="M1112.18,-340.32C1115.91,-317.34 1121.76,-258.57 1091.38,-227 1067.38,-202.07 974.89,-190.35 913.62,-185.22"/>
<polygon fill="#63b8ff" stroke="#63b8ff" points="913.95,-181.73 903.7,-184.43 913.39,-188.71 913.95,-181.73"/>
</a>
</g>
</g>
<!-- Node9 -->
<g id="Node000009" class="node">
<title>Node9</title>
<g id="a_Node000009"><a xlink:title=" ">
<polygon fill="#e0e0e0" stroke="#999999" points="1186.12,-77.5 1114.62,-77.5 1114.62,-56.75 1186.12,-56.75 1186.12,-77.5"/>
<text xml:space="preserve" text-anchor="middle" x="1150.38" y="-64" font-family="Helvetica,sans-Serif" font-size="10.00">FreeRTOS.h</text>
</a>
</g>
</g>
<!-- Node1&#45;&gt;Node9 -->
<g id="edge40_Node000001_Node000009" class="edge">
<title>Node1&#45;&gt;Node9</title>
<g id="a_edge40_Node000001_Node000009"><a xlink:title=" ">
<path fill="none" stroke="#63b8ff" d="M1116.3,-340.13C1127.21,-321.23 1149.38,-277.95 1149.38,-238.38 1149.38,-238.38 1149.38,-238.38 1149.38,-179.62 1149.38,-148.23 1149.78,-111.87 1150.07,-89.43"/>
<polygon fill="#63b8ff" stroke="#63b8ff" points="1153.57,-89.53 1150.21,-79.48 1146.57,-89.43 1153.57,-89.53"/>
</a>
</g>
</g>
<!-- Node3 -->
<g id="Node000003" class="node">
<title>Node3</title>
<g id="a_Node000003"><a xlink:href="motor__core_8h.html" target="_top" xlink:title=" ">
<polygon fill="white" stroke="#666666" points="542.62,-247.75 462.12,-247.75 462.12,-227 542.62,-227 542.62,-247.75"/>
<text xml:space="preserve" text-anchor="middle" x="502.38" y="-234.25" font-family="Helvetica,sans-Serif" font-size="10.00">motor_core.h</text>
</a>
</g>
</g>
<!-- Node2&#45;&gt;Node3 -->
<g id="edge2_Node000002_Node000003" class="edge">
<title>Node2&#45;&gt;Node3</title>
<g id="a_edge2_Node000002_Node000003"><a xlink:title=" ">
<path fill="none" stroke="#63b8ff" d="M949.46,-287.73C855.4,-277.34 650.14,-254.69 553.99,-244.07"/>
<polygon fill="#63b8ff" stroke="#63b8ff" points="554.65,-240.62 544.33,-243.01 553.88,-247.58 554.65,-240.62"/>
</a>
</g>
</g>
<!-- Node2&#45;&gt;Node9 -->
<g id="edge37_Node000002_Node000009" class="edge">
<title>Node2&#45;&gt;Node9</title>
<g id="a_edge37_Node000002_Node000009"><a xlink:title=" ">
<path fill="none" stroke="#63b8ff" d="M999.81,-283.68C1002.11,-270.41 1007.4,-245.78 1017.38,-227 1048.14,-169.1 1102.52,-113.11 1131.29,-85.66"/>
<polygon fill="#63b8ff" stroke="#63b8ff" points="1133.68,-88.22 1138.57,-78.82 1128.88,-83.12 1133.68,-88.22"/>
</a>
</g>
</g>
<!-- Node14 -->
<g id="Node000014" class="node">
<title>Node14</title>
<g id="a_Node000014"><a xlink:href="cmd__handle_8h.html" target="_top" xlink:title=" ">
<polygon fill="white" stroke="#666666" points="932.5,-134.25 848.25,-134.25 848.25,-113.5 932.5,-113.5 932.5,-134.25"/>
<text xml:space="preserve" text-anchor="middle" x="890.38" y="-120.75" font-family="Helvetica,sans-Serif" font-size="10.00">cmd_handle.h</text>
</a>
</g>
</g>
<!-- Node2&#45;&gt;Node14 -->
<g id="edge39_Node000002_Node000014" class="edge">
<title>Node2&#45;&gt;Node14</title>
<g id="a_edge39_Node000002_Node000014"><a xlink:title=" ">
<path fill="none" stroke="#63b8ff" d="M992.26,-283.6C975.04,-256.77 925.9,-180.21 902.74,-144.13"/>
<polygon fill="#63b8ff" stroke="#63b8ff" points="905.86,-142.52 897.51,-135.99 899.97,-146.3 905.86,-142.52"/>
</a>
</g>
</g>
<!-- Node23 -->
<g id="Node000023" class="node">
<title>Node23</title>
<g id="a_Node000023"><a xlink:title=" ">
<polygon fill="#e0e0e0" stroke="#999999" points="1081.88,-247.75 1026.88,-247.75 1026.88,-227 1081.88,-227 1081.88,-247.75"/>
<text xml:space="preserve" text-anchor="middle" x="1054.38" y="-234.25" font-family="Helvetica,sans-Serif" font-size="10.00">queue.h</text>
</a>
</g>
</g>
<!-- Node2&#45;&gt;Node23 -->
<g id="edge38_Node000002_Node000023" class="edge">
<title>Node2&#45;&gt;Node23</title>
<g id="a_edge38_Node000002_Node000023"><a xlink:title=" ">
<path fill="none" stroke="#63b8ff" d="M1008.39,-283.34C1016.11,-275.78 1027,-265.14 1036.25,-256.1"/>
<polygon fill="#63b8ff" stroke="#63b8ff" points="1038.66,-258.63 1043.37,-249.14 1033.77,-253.62 1038.66,-258.63"/>
</a>
</g>
</g>
<!-- Node4 -->
<g id="Node000004" class="node">
<title>Node4</title>
<g id="a_Node000004"><a xlink:href="pca9555a_8h.html" target="_top" xlink:title=" ">
<polygon fill="white" stroke="#666666" points="608.38,-77.5 454.38,-77.5 454.38,-56.75 608.38,-56.75 608.38,-77.5"/>
<text xml:space="preserve" text-anchor="middle" x="531.38" y="-64" font-family="Helvetica,sans-Serif" font-size="10.00">driver/pca9555a/pca9555a.h</text>
</a>
</g>
</g>
<!-- Node3&#45;&gt;Node4 -->
<g id="edge3_Node000003_Node000004" class="edge">
<title>Node3&#45;&gt;Node4</title>
<g id="a_edge3_Node000003_Node000004"><a xlink:title=" ">
<path fill="none" stroke="#63b8ff" d="M504.02,-226.85C508.56,-200.48 521.39,-126.08 527.73,-89.28"/>
<polygon fill="#63b8ff" stroke="#63b8ff" points="531.17,-89.91 529.42,-79.46 524.27,-88.72 531.17,-89.91"/>
</a>
</g>
</g>
<!-- Node3&#45;&gt;Node7 -->
<g id="edge6_Node000003_Node000007" class="edge">
<title>Node3&#45;&gt;Node7</title>
<g id="a_edge6_Node000003_Node000007"><a xlink:title=" ">
<path fill="none" stroke="#63b8ff" d="M543.1,-230.09C606.72,-220.28 729.81,-201.3 801.62,-190.22"/>
<polygon fill="#63b8ff" stroke="#63b8ff" points="801.84,-193.73 811.19,-188.75 800.77,-186.81 801.84,-193.73"/>
</a>
</g>
</g>
<!-- Node8 -->
<g id="Node000008" class="node">
<title>Node8</title>
<g id="a_Node000008"><a xlink:href="step__core_8h.html" target="_top" xlink:title=" ">
<polygon fill="white" stroke="#666666" points="429.5,-191 357.25,-191 357.25,-170.25 429.5,-170.25 429.5,-191"/>
<text xml:space="preserve" text-anchor="middle" x="393.38" y="-177.5" font-family="Helvetica,sans-Serif" font-size="10.00">step_core.h</text>
</a>
</g>
</g>
<!-- Node3&#45;&gt;Node8 -->
<g id="edge7_Node000003_Node000008" class="edge">
<title>Node3&#45;&gt;Node8</title>
<g id="a_edge7_Node000003_Node000008"><a xlink:title=" ">
<path fill="none" stroke="#63b8ff" d="M482.89,-226.59C466.23,-218.22 441.99,-206.04 422.94,-196.47"/>
<polygon fill="#63b8ff" stroke="#63b8ff" points="424.55,-193.37 414.05,-192.01 421.41,-199.62 424.55,-193.37"/>
</a>
</g>
</g>
<!-- Node11 -->
<g id="Node000011" class="node">
<title>Node11</title>
<g id="a_Node000011"><a xlink:title=" ">
<polygon fill="#e0e0e0" stroke="#999999" points="58.75,-77.5 0,-77.5 0,-56.75 58.75,-56.75 58.75,-77.5"/>
<text xml:space="preserve" text-anchor="middle" x="29.38" y="-64" font-family="Helvetica,sans-Serif" font-size="10.00">fsl_ftm.h</text>
</a>
</g>
</g>
<!-- Node3&#45;&gt;Node11 -->
<g id="edge34_Node000003_Node000011" class="edge">
<title>Node3&#45;&gt;Node11</title>
<g id="a_edge34_Node000003_Node000011"><a xlink:title=" ">
<path fill="none" stroke="#63b8ff" d="M462.01,-234.17C408.34,-230.21 311.22,-219.46 233.38,-191 186.82,-173.98 179.84,-159.8 137.38,-134.25 108.91,-117.13 76.43,-97.19 54.59,-83.71"/>
<polygon fill="#63b8ff" stroke="#63b8ff" points="56.7,-80.91 46.36,-78.63 53.03,-86.86 56.7,-80.91"/>
</a>
</g>
</g>
<!-- Node12 -->
<g id="Node000012" class="node">
<title>Node12</title>
<g id="a_Node000012"><a xlink:title=" ">
<polygon fill="#e0e0e0" stroke="#999999" points="398,-77.5 334.75,-77.5 334.75,-56.75 398,-56.75 398,-77.5"/>
<text xml:space="preserve" text-anchor="middle" x="366.38" y="-64" font-family="Helvetica,sans-Serif" font-size="10.00">fsl_gpio.h</text>
</a>
</g>
</g>
<!-- Node3&#45;&gt;Node12 -->
<g id="edge35_Node000003_Node000012" class="edge">
<title>Node3&#45;&gt;Node12</title>
<g id="a_edge35_Node000003_Node000012"><a xlink:title=" ">
<path fill="none" stroke="#63b8ff" d="M494.67,-226.85C472.9,-199.91 410.57,-122.81 381.57,-86.92"/>
<polygon fill="#63b8ff" stroke="#63b8ff" points="384.29,-84.72 375.28,-79.14 378.85,-89.12 384.29,-84.72"/>
</a>
</g>
</g>
<!-- Node13 -->
<g id="Node000013" class="node">
<title>Node13</title>
<g id="a_Node000013"><a xlink:title=" ">
<polygon fill="#e0e0e0" stroke="#999999" points="138.25,-77.5 76.5,-77.5 76.5,-56.75 138.25,-56.75 138.25,-77.5"/>
<text xml:space="preserve" text-anchor="middle" x="107.38" y="-64" font-family="Helvetica,sans-Serif" font-size="10.00">fsl_port.h</text>
</a>
</g>
</g>
<!-- Node3&#45;&gt;Node13 -->
<g id="edge36_Node000003_Node000013" class="edge">
<title>Node3&#45;&gt;Node13</title>
<g id="a_edge36_Node000003_Node000013"><a xlink:title=" ">
<path fill="none" stroke="#63b8ff" d="M461.78,-231.64C394.98,-222.29 259.79,-196.67 164.38,-134.25 145.62,-121.98 129.51,-101.82 119.25,-86.98"/>
<polygon fill="#63b8ff" stroke="#63b8ff" points="122.4,-85.39 113.96,-78.98 116.56,-89.25 122.4,-85.39"/>
</a>
</g>
</g>
<!-- Node20 -->
<g id="Node000020" class="node">
<title>Node20</title>
<g id="a_Node000020"><a xlink:href="tmc2209__core_8h.html" target="_top" xlink:title=" ">
<polygon fill="white" stroke="#666666" points="764.38,-191 670.38,-191 670.38,-170.25 764.38,-170.25 764.38,-191"/>
<text xml:space="preserve" text-anchor="middle" x="717.38" y="-177.5" font-family="Helvetica,sans-Serif" font-size="10.00">tmc2209_core.h</text>
</a>
</g>
</g>
<!-- Node3&#45;&gt;Node20 -->
<g id="edge28_Node000003_Node000020" class="edge">
<title>Node3&#45;&gt;Node20</title>
<g id="a_edge28_Node000003_Node000020"><a xlink:title=" ">
<path fill="none" stroke="#63b8ff" d="M540.81,-226.59C576.32,-217.54 629.26,-204.06 667.91,-194.22"/>
<polygon fill="#63b8ff" stroke="#63b8ff" points="668.61,-197.65 677.44,-191.79 666.89,-190.87 668.61,-197.65"/>
</a>
</g>
</g>
<!-- Node5 -->
<g id="Node000005" class="node">
<title>Node5</title>
<g id="a_Node000005"><a xlink:title=" ">
<polygon fill="#e0e0e0" stroke="#999999" points="573.88,-20.75 488.88,-20.75 488.88,0 573.88,0 573.88,-20.75"/>
<text xml:space="preserve" text-anchor="middle" x="531.38" y="-7.25" font-family="Helvetica,sans-Serif" font-size="10.00">fsl_common.h</text>
</a>
</g>
</g>
<!-- Node4&#45;&gt;Node5 -->
<g id="edge4_Node000004_Node000005" class="edge">
<title>Node4&#45;&gt;Node5</title>
<g id="a_edge4_Node000004_Node000005"><a xlink:title=" ">
<path fill="none" stroke="#63b8ff" d="M531.38,-56.34C531.38,-49.72 531.38,-40.72 531.38,-32.52"/>
<polygon fill="#63b8ff" stroke="#63b8ff" points="534.88,-32.59 531.38,-22.59 527.88,-32.59 534.88,-32.59"/>
</a>
</g>
</g>
<!-- Node6 -->
<g id="Node000006" class="node">
<title>Node6</title>
<g id="a_Node000006"><a xlink:title=" ">
<polygon fill="#e0e0e0" stroke="#999999" points="754.25,-20.75 674.5,-20.75 674.5,0 754.25,0 754.25,-20.75"/>
<text xml:space="preserve" text-anchor="middle" x="714.38" y="-7.25" font-family="Helvetica,sans-Serif" font-size="10.00">peripherals.h</text>
</a>
</g>
</g>
<!-- Node4&#45;&gt;Node6 -->
<g id="edge5_Node000004_Node000006" class="edge">
<title>Node4&#45;&gt;Node6</title>
<g id="a_edge5_Node000004_Node000006"><a xlink:title=" ">
<path fill="none" stroke="#63b8ff" d="M564.09,-56.34C593.93,-47.41 638.22,-34.16 671,-24.35"/>
<polygon fill="#63b8ff" stroke="#63b8ff" points="671.61,-27.82 680.18,-21.6 669.6,-21.12 671.61,-27.82"/>
</a>
</g>
</g>
<!-- Node8&#45;&gt;Node4 -->
<g id="edge8_Node000008_Node000004" class="edge">
<title>Node8&#45;&gt;Node4</title>
<g id="a_edge8_Node000008_Node000004"><a xlink:title=" ">
<path fill="none" stroke="#63b8ff" d="M405.14,-170.12C428.55,-151.21 481.23,-108.64 510.6,-84.91"/>
<polygon fill="#63b8ff" stroke="#63b8ff" points="512.49,-87.88 518.07,-78.88 508.09,-82.44 512.49,-87.88"/>
</a>
</g>
</g>
<!-- Node8&#45;&gt;Node5 -->
<g id="edge11_Node000008_Node000005" class="edge">
<title>Node8&#45;&gt;Node5</title>
<g id="a_edge11_Node000008_Node000005"><a xlink:title=" ">
<path fill="none" stroke="#63b8ff" d="M395.18,-169.8C399.79,-147.23 413.88,-91.04 445.38,-56.75 457.93,-43.08 475.55,-32.79 491.59,-25.49"/>
<polygon fill="#63b8ff" stroke="#63b8ff" points="492.61,-28.86 500.43,-21.71 489.86,-22.42 492.61,-28.86"/>
</a>
</g>
</g>
<!-- Node8&#45;&gt;Node9 -->
<g id="edge9_Node000008_Node000009" class="edge">
<title>Node8&#45;&gt;Node9</title>
<g id="a_edge9_Node000008_Node000009"><a xlink:title=" ">
<path fill="none" stroke="#63b8ff" d="M429.97,-178.34C536.4,-174.32 844.44,-160.67 941.38,-134.25 961.85,-128.67 964.5,-120.94 984.38,-113.5 1023.59,-98.82 1069.62,-86.61 1103.25,-78.57"/>
<polygon fill="#63b8ff" stroke="#63b8ff" points="1103.75,-82.05 1112.68,-76.35 1102.15,-75.24 1103.75,-82.05"/>
</a>
</g>
</g>
<!-- Node10 -->
<g id="Node000010" class="node">
<title>Node10</title>
<g id="a_Node000010"><a xlink:title=" ">
<polygon fill="#e0e0e0" stroke="#999999" points="219.38,-134.25 173.38,-134.25 173.38,-113.5 219.38,-113.5 219.38,-134.25"/>
<text xml:space="preserve" text-anchor="middle" x="196.38" y="-120.75" font-family="Helvetica,sans-Serif" font-size="10.00">task.h</text>
</a>
</g>
</g>
<!-- Node8&#45;&gt;Node10 -->
<g id="edge10_Node000008_Node000010" class="edge">
<title>Node8&#45;&gt;Node10</title>
<g id="a_edge10_Node000008_Node000010"><a xlink:title=" ">
<path fill="none" stroke="#63b8ff" d="M358.16,-169.84C322.1,-159.82 266.44,-144.35 230.71,-134.42"/>
<polygon fill="#63b8ff" stroke="#63b8ff" points="231.89,-131.11 221.32,-131.81 230.02,-137.86 231.89,-131.11"/>
</a>
</g>
</g>
<!-- Node8&#45;&gt;Node11 -->
<g id="edge12_Node000008_Node000011" class="edge">
<title>Node8&#45;&gt;Node11</title>
<g id="a_edge12_Node000008_Node000011"><a xlink:title=" ">
<path fill="none" stroke="#63b8ff" d="M356.92,-175.38C311.09,-169.36 230.43,-156.55 164.38,-134.25 124.86,-120.91 82.08,-98.46 55.5,-83.47"/>
<polygon fill="#63b8ff" stroke="#63b8ff" points="57.55,-80.61 47.14,-78.69 54.08,-86.69 57.55,-80.61"/>
</a>
</g>
</g>
<!-- Node8&#45;&gt;Node12 -->
<g id="edge13_Node000008_Node000012" class="edge">
<title>Node8&#45;&gt;Node12</title>
<g id="a_edge13_Node000008_Node000012"><a xlink:title=" ">
<path fill="none" stroke="#63b8ff" d="M391.07,-170.12C386.75,-152.27 377.33,-113.36 371.45,-89.09"/>
<polygon fill="#63b8ff" stroke="#63b8ff" points="374.86,-88.29 369.1,-79.4 368.06,-89.94 374.86,-88.29"/>
</a>
</g>
</g>
<!-- Node8&#45;&gt;Node13 -->
<g id="edge14_Node000008_Node000013" class="edge">
<title>Node8&#45;&gt;Node13</title>
<g id="a_edge14_Node000008_Node000013"><a xlink:title=" ">
<path fill="none" stroke="#63b8ff" d="M361.52,-169.78C335.5,-161.38 297.99,-148.43 266.38,-134.25 248.82,-126.38 245.87,-121.51 228.38,-113.5 202.14,-101.49 171.72,-90.09 147.94,-81.72"/>
<polygon fill="#63b8ff" stroke="#63b8ff" points="149.21,-78.46 138.62,-78.48 146.92,-85.07 149.21,-78.46"/>
</a>
</g>
</g>
<!-- Node8&#45;&gt;Node14 -->
<g id="edge15_Node000008_Node000014" class="edge">
<title>Node8&#45;&gt;Node14</title>
<g id="a_edge15_Node000008_Node000014"><a xlink:title=" ">
<path fill="none" stroke="#63b8ff" d="M429.92,-175.6C516.59,-166.05 734.9,-142 836.64,-130.79"/>
<polygon fill="#63b8ff" stroke="#63b8ff" points="836.81,-134.3 846.36,-129.72 836.04,-127.34 836.81,-134.3"/>
</a>
</g>
</g>
<!-- Node18 -->
<g id="Node000018" class="node">
<title>Node18</title>
<g id="a_Node000018"><a xlink:href="step__shared_8h.html" target="_top" xlink:title=" ">
<polygon fill="white" stroke="#666666" points="359.5,-134.25 275.25,-134.25 275.25,-113.5 359.5,-113.5 359.5,-134.25"/>
<text xml:space="preserve" text-anchor="middle" x="317.38" y="-120.75" font-family="Helvetica,sans-Serif" font-size="10.00">step_shared.h</text>
</a>
</g>
</g>
<!-- Node8&#45;&gt;Node18 -->
<g id="edge21_Node000008_Node000018" class="edge">
<title>Node8&#45;&gt;Node18</title>
<g id="a_edge21_Node000008_Node000018"><a xlink:title=" ">
<path fill="none" stroke="#63b8ff" d="M379.79,-169.84C368.76,-161.9 352.99,-150.53 340.05,-141.21"/>
<polygon fill="#63b8ff" stroke="#63b8ff" points="342.23,-138.47 332.07,-135.46 338.14,-144.15 342.23,-138.47"/>
</a>
</g>
</g>
<!-- Node14&#45;&gt;Node5 -->
<g id="edge19_Node000014_Node000005" class="edge">
<title>Node14&#45;&gt;Node5</title>
<g id="a_edge19_Node000014_Node000005"><a xlink:title=" ">
<path fill="none" stroke="#63b8ff" d="M877.49,-113.09C857.57,-98.47 817.6,-71.1 779.38,-56.75 715.18,-32.65 636.69,-21.06 585.43,-15.68"/>
<polygon fill="#63b8ff" stroke="#63b8ff" points="586.09,-12.23 575.79,-14.72 585.4,-19.2 586.09,-12.23"/>
</a>
</g>
</g>
<!-- Node14&#45;&gt;Node9 -->
<g id="edge17_Node000014_Node000009" class="edge">
<title>Node14&#45;&gt;Node9</title>
<g id="a_edge17_Node000014_Node000009"><a xlink:title=" ">
<path fill="none" stroke="#63b8ff" d="M932.73,-113.96C979.49,-104.11 1054.56,-88.3 1103.18,-78.06"/>
<polygon fill="#63b8ff" stroke="#63b8ff" points="1103.78,-81.51 1112.85,-76.03 1102.34,-74.66 1103.78,-81.51"/>
</a>
</g>
</g>
<!-- Node15 -->
<g id="Node000015" class="node">
<title>Node15</title>
<g id="a_Node000015"><a xlink:title=" ">
<polygon fill="#e0e0e0" stroke="#999999" points="916.75,-77.5 864,-77.5 864,-56.75 916.75,-56.75 916.75,-77.5"/>
<text xml:space="preserve" text-anchor="middle" x="890.38" y="-64" font-family="Helvetica,sans-Serif" font-size="10.00">stdint.h</text>
</a>
</g>
</g>
<!-- Node14&#45;&gt;Node15 -->
<g id="edge16_Node000014_Node000015" class="edge">
<title>Node14&#45;&gt;Node15</title>
<g id="a_edge16_Node000014_Node000015"><a xlink:title=" ">
<path fill="none" stroke="#63b8ff" d="M890.38,-113.09C890.38,-106.47 890.38,-97.47 890.38,-89.27"/>
<polygon fill="#63b8ff" stroke="#63b8ff" points="893.88,-89.34 890.38,-79.34 886.88,-89.34 893.88,-89.34"/>
</a>
</g>
</g>
<!-- Node16 -->
<g id="Node000016" class="node">
<title>Node16</title>
<g id="a_Node000016"><a xlink:title=" ">
<polygon fill="#e0e0e0" stroke="#999999" points="1025.88,-77.5 934.88,-77.5 934.88,-56.75 1025.88,-56.75 1025.88,-77.5"/>
<text xml:space="preserve" text-anchor="middle" x="980.38" y="-64" font-family="Helvetica,sans-Serif" font-size="10.00">event_groups.h</text>
</a>
</g>
</g>
<!-- Node14&#45;&gt;Node16 -->
<g id="edge18_Node000014_Node000016" class="edge">
<title>Node14&#45;&gt;Node16</title>
<g id="a_edge18_Node000014_Node000016"><a xlink:title=" ">
<path fill="none" stroke="#63b8ff" d="M906.47,-113.09C919.9,-104.91 939.31,-93.11 954.86,-83.65"/>
<polygon fill="#63b8ff" stroke="#63b8ff" points="956.41,-86.8 963.13,-78.62 952.77,-80.82 956.41,-86.8"/>
</a>
</g>
</g>
<!-- Node17 -->
<g id="Node000017" class="node">
<title>Node17</title>
<g id="a_Node000017"><a xlink:title=" ">
<polygon fill="#e0e0e0" stroke="#999999" points="1096.38,-77.5 1044.38,-77.5 1044.38,-56.75 1096.38,-56.75 1096.38,-77.5"/>
<text xml:space="preserve" text-anchor="middle" x="1070.38" y="-64" font-family="Helvetica,sans-Serif" font-size="10.00">stdlib.h</text>
</a>
</g>
</g>
<!-- Node14&#45;&gt;Node17 -->
<g id="edge20_Node000014_Node000017" class="edge">
<title>Node14&#45;&gt;Node17</title>
<g id="a_edge20_Node000014_Node000017"><a xlink:title=" ">
<path fill="none" stroke="#63b8ff" d="M922.56,-113.09C953.58,-103.65 1000.51,-89.38 1033.13,-79.45"/>
<polygon fill="#63b8ff" stroke="#63b8ff" points="1034.03,-82.84 1042.58,-76.58 1031.99,-76.14 1034.03,-82.84"/>
</a>
</g>
</g>
<!-- Node18&#45;&gt;Node4 -->
<g id="edge22_Node000018_Node000004" class="edge">
<title>Node18&#45;&gt;Node4</title>
<g id="a_edge22_Node000018_Node000004"><a xlink:title=" ">
<path fill="none" stroke="#63b8ff" d="M355.63,-113.09C390.98,-104.04 443.67,-90.56 482.14,-80.72"/>
<polygon fill="#63b8ff" stroke="#63b8ff" points="482.8,-84.17 491.62,-78.3 481.07,-77.38 482.8,-84.17"/>
</a>
</g>
</g>
<!-- Node18&#45;&gt;Node5 -->
<g id="edge24_Node000018_Node000005" class="edge">
<title>Node18&#45;&gt;Node5</title>
<g id="a_edge24_Node000018_Node000005"><a xlink:title=" ">
<path fill="none" stroke="#63b8ff" d="M315.45,-113.4C313.15,-99.18 311.23,-72.33 325.38,-56.75 345.43,-34.67 423.38,-22.31 477.42,-16.25"/>
<polygon fill="#63b8ff" stroke="#63b8ff" points="477.49,-19.76 487.06,-15.21 476.74,-12.8 477.49,-19.76"/>
</a>
</g>
</g>
<!-- Node18&#45;&gt;Node11 -->
<g id="edge25_Node000018_Node000011" class="edge">
<title>Node18&#45;&gt;Node11</title>
<g id="a_edge25_Node000018_Node000011"><a xlink:title=" ">
<path fill="none" stroke="#63b8ff" d="M274.75,-115.97C227.1,-108.07 147.41,-94.31 70.1,-77.99"/>
<polygon fill="#63b8ff" stroke="#63b8ff" points="71.2,-74.65 60.69,-75.99 69.74,-81.49 71.2,-74.65"/>
</a>
</g>
</g>
<!-- Node18&#45;&gt;Node12 -->
<g id="edge26_Node000018_Node000012" class="edge">
<title>Node18&#45;&gt;Node12</title>
<g id="a_edge26_Node000018_Node000012"><a xlink:title=" ">
<path fill="none" stroke="#63b8ff" d="M326.14,-113.09C332.82,-105.61 342.23,-95.11 350.26,-86.13"/>
<polygon fill="#63b8ff" stroke="#63b8ff" points="352.62,-88.74 356.68,-78.96 347.4,-84.07 352.62,-88.74"/>
</a>
</g>
</g>
<!-- Node18&#45;&gt;Node13 -->
<g id="edge27_Node000018_Node000013" class="edge">
<title>Node18&#45;&gt;Node13</title>
<g id="a_edge27_Node000018_Node000013"><a xlink:title=" ">
<path fill="none" stroke="#63b8ff" d="M279.83,-113.09C243.11,-103.51 187.3,-88.96 149.18,-79.02"/>
<polygon fill="#63b8ff" stroke="#63b8ff" points="150.47,-75.74 139.91,-76.61 148.7,-82.52 150.47,-75.74"/>
</a>
</g>
</g>
<!-- Node19 -->
<g id="Node000019" class="node">
<title>Node19</title>
<g id="a_Node000019"><a xlink:title=" ">
<polygon fill="#e0e0e0" stroke="#999999" points="278.62,-77.5 156.12,-77.5 156.12,-56.75 278.62,-56.75 278.62,-77.5"/>
<text xml:space="preserve" text-anchor="middle" x="217.38" y="-64" font-family="Helvetica,sans-Serif" font-size="10.00">fsl_device_registers.h</text>
</a>
</g>
</g>
<!-- Node18&#45;&gt;Node19 -->
<g id="edge23_Node000018_Node000019" class="edge">
<title>Node18&#45;&gt;Node19</title>
<g id="a_edge23_Node000018_Node000019"><a xlink:title=" ">
<path fill="none" stroke="#63b8ff" d="M299.5,-113.09C284.28,-104.76 262.18,-92.66 244.74,-83.11"/>
<polygon fill="#63b8ff" stroke="#63b8ff" points="246.88,-80.29 236.43,-78.56 243.52,-86.43 246.88,-80.29"/>
</a>
</g>
</g>
<!-- Node20&#45;&gt;Node5 -->
<g id="edge31_Node000020_Node000005" class="edge">
<title>Node20&#45;&gt;Node5</title>
<g id="a_edge31_Node000020_Node000005"><a xlink:title=" ">
<path fill="none" stroke="#63b8ff" d="M699.52,-169.79C686.04,-161.66 667.8,-149.07 655.38,-134.25 630.74,-104.85 644.1,-84.27 617.38,-56.75 604.35,-43.34 586.5,-33.04 570.44,-25.67"/>
<polygon fill="#63b8ff" stroke="#63b8ff" points="572.17,-22.6 561.6,-21.84 569.39,-29.03 572.17,-22.6"/>
</a>
</g>
</g>
<!-- Node20&#45;&gt;Node6 -->
<g id="edge33_Node000020_Node000006" class="edge">
<title>Node20&#45;&gt;Node6</title>
<g id="a_edge33_Node000020_Node000006"><a xlink:title=" ">
<path fill="none" stroke="#63b8ff" d="M739.75,-169.89C753.93,-162.4 771.11,-150.55 779.38,-134.25 794.96,-103.53 795.3,-87.29 779.38,-56.75 772.66,-43.88 760.45,-33.91 748.41,-26.64"/>
<polygon fill="#63b8ff" stroke="#63b8ff" points="750.23,-23.65 739.78,-21.89 746.85,-29.78 750.23,-23.65"/>
</a>
</g>
</g>
<!-- Node20&#45;&gt;Node14 -->
<g id="edge32_Node000020_Node000014" class="edge">
<title>Node20&#45;&gt;Node14</title>
<g id="a_edge32_Node000020_Node000014"><a xlink:title=" ">
<path fill="none" stroke="#63b8ff" d="M748.3,-169.84C776.26,-160.99 817.65,-147.89 848.56,-138.11"/>
<polygon fill="#63b8ff" stroke="#63b8ff" points="849.5,-141.48 857.98,-135.13 847.39,-134.81 849.5,-141.48"/>
</a>
</g>
</g>
<!-- Node21 -->
<g id="Node000021" class="node">
<title>Node21</title>
<g id="a_Node000021"><a xlink:href="tmc2209__shared_8h.html" target="_top" xlink:title=" ">
<polygon fill="white" stroke="#666666" points="770.38,-134.25 664.38,-134.25 664.38,-113.5 770.38,-113.5 770.38,-134.25"/>
<text xml:space="preserve" text-anchor="middle" x="717.38" y="-120.75" font-family="Helvetica,sans-Serif" font-size="10.00">tmc2209_shared.h</text>
</a>
</g>
</g>
<!-- Node20&#45;&gt;Node21 -->
<g id="edge29_Node000020_Node000021" class="edge">
<title>Node20&#45;&gt;Node21</title>
<g id="a_edge29_Node000020_Node000021"><a xlink:title=" ">
<path fill="none" stroke="#63b8ff" d="M717.38,-169.84C717.38,-163.22 717.38,-154.22 717.38,-146.02"/>
<polygon fill="#63b8ff" stroke="#63b8ff" points="720.88,-146.09 717.38,-136.09 713.88,-146.09 720.88,-146.09"/>
</a>
</g>
</g>
<!-- Node22 -->
<g id="Node000022" class="node">
<title>Node22</title>
<g id="a_Node000022"><a xlink:title=" ">
<polygon fill="#e0e0e0" stroke="#999999" points="770,-77.5 664.75,-77.5 664.75,-56.75 770,-56.75 770,-77.5"/>
<text xml:space="preserve" text-anchor="middle" x="717.38" y="-64" font-family="Helvetica,sans-Serif" font-size="10.00">fsl_uart_freertos.h</text>
</a>
</g>
</g>
<!-- Node21&#45;&gt;Node22 -->
<g id="edge30_Node000021_Node000022" class="edge">
<title>Node21&#45;&gt;Node22</title>
<g id="a_edge30_Node000021_Node000022"><a xlink:title=" ">
<path fill="none" stroke="#63b8ff" d="M717.38,-113.09C717.38,-106.47 717.38,-97.47 717.38,-89.27"/>
<polygon fill="#63b8ff" stroke="#63b8ff" points="720.88,-89.34 717.38,-79.34 713.88,-89.34 720.88,-89.34"/>
</a>
</g>
</g>
</g>
</svg>
