<?xml version="1.0" encoding="UTF-8" standalone="no"?>
<!DOCTYPE svg PUBLIC "-//W3C//DTD SVG 1.1//EN"
 "http://www.w3.org/Graphics/SVG/1.1/DTD/svg11.dtd">
<!-- Generated by graphviz version 14.1.4 (0)
 -->
<!-- Title: source/motor_configs.h Pages: 1 -->
<!--zoomable 313 -->

<svg id="main" version="1.1" xmlns="http://www.w3.org/2000/svg" xmlns:xlink="http://www.w3.org/1999/xlink" xml:space="preserve" onload="init(evt)">

<style type="text/css"><![CDATA[
.node, .edge {opacity: 0.7;}
.node.selected, .edge.selected {opacity: 1;}
.edge:hover path { stroke: red; }
.edge:hover polygon { stroke: red; fill: red; }
]]></style>

<defs>
  <circle id="rim" cx="0" cy="0" r="7"/>
  <circle id="rim2" cx="0" cy="0" r="3.5"/>
  <g id="zoomPlus">
    <use xlink:href="#rim" fill="#404040"><set attributeName="fill" to="#808080" begin="zoomplus.mouseover" end="zoomplus.mouseout"/></use>
    <path d="M-4,0h8M0,-4v8" fill="none" stroke="white" stroke-width="1.5" pointer-events="none"/>
  </g>
  <g id="zoomMin">
    <use xlink:href="#rim" fill="#404040"><set attributeName="fill" to="#808080" begin="zoomminus.mouseover" end="zoomminus.mouseout"/></use>
    <path d="M-4,0h8" fill="none" stroke="white" stroke-width="1.5" pointer-events="none"/>
  </g>
  <g id="arrowUp" transform="translate(30 24)">
    <use xlink:href="#rim"/>
    <path pointer-events="none" fill="none" stroke="white" stroke-width="1.5" d="M0,-3.0v7 M-2.5,-0.5L0,-3.0L2.5,-0.5"/>
  </g>
  <g id="arrowRight" transform="rotate(90) translate(36 -43)">
    <use xlink:href="#rim"/>
    <path pointer-events="none" fill="none" stroke="white" stroke-width="1.5" d="M0,-3.0v7 M-2.5,-0.5L0,-3.0L2.5,-0.5"/>
  </g>
  <g id="arrowDown" transform="rotate(180) translate(-30 -48)">
    <use xlink:href="#rim"/>
    <path pointer-events="none" fill="none" stroke="white" stroke-width="1.5" d="M0,-3.0v7 M-2.5,-0.5L0,-3.0L2.5,-0.5"/>
  </g>
  <g id="arrowLeft" transform="rotate(270) translate(-36 17)">
    <use xlink:href="#rim"/>
    <path pointer-events="none" fill="none" stroke="white" stroke-width="1.5" d="M0,-3.0v7 M-2.5,-0.5L0,-3.0L2.5,-0.5"/>
  </g>
  <g id="resetDef">
    <use xlink:href="#rim2" fill="#404040"><set attributeName="fill" to="#808080" begin="reset.mouseover" end="reset.mouseout"/></use>
  </g>
</defs>
<script type="application/ecmascript">
var viewWidth = 1270;
var viewHeight = 313;
var sectionId = 'dynsection-0';
</script>
<script type="application/ecmascript" xlink:href="svg.min.js"/>
<svg id="graph" class="graph">
<g id="viewport">
<title>source/motor_configs.h</title>
<!-- Node1 -->
<g id="Node000001" class="node">
<title>Node1</title>
<g id="a_Node000001"><a xlink:title=" ">
<polygon fill="#999999" stroke="#666666" points="499,-304.5 369.75,-304.5 369.75,-283.75 499,-283.75 499,-304.5"/>
<text xml:space="preserve" text-anchor="middle" x="434.38" y="-291" font-family="Helvetica,sans-Serif" font-size="10.00">source/motor_configs.h</text>
</a>
</g>
</g>
<!-- Node2 -->
<g id="Node000002" class="node">
<title>Node2</title>
<g id="a_Node000002"><a xlink:title=" ">
<polygon fill="#e0e0e0" stroke="#999999" points="88.75,-191 0,-191 0,-170.25 88.75,-170.25 88.75,-191"/>
<text xml:space="preserve" text-anchor="middle" x="44.38" y="-177.5" font-family="Helvetica,sans-Serif" font-size="10.00">MK22F51212.h</text>
</a>
</g>
</g>
<!-- Node1&#45;&gt;Node2 -->
<g id="edge1_Node000001_Node000002" class="edge">
<title>Node1&#45;&gt;Node2</title>
<g id="a_edge1_Node000001_Node000002"><a xlink:title=" ">
<path fill="none" stroke="#63b8ff" d="M400.11,-283.33C329.69,-263.19 168.7,-217.17 89.74,-194.59"/>
<polygon fill="#63b8ff" stroke="#63b8ff" points="90.74,-191.24 80.16,-191.86 88.81,-197.97 90.74,-191.24"/>
</a>
</g>
</g>
<!-- Node3 -->
<g id="Node000003" class="node">
<title>Node3</title>
<g id="a_Node000003"><a xlink:href="motor__core_8h.html" target="_top" xlink:title=" ">
<polygon fill="white" stroke="#666666" points="474.62,-247.75 394.12,-247.75 394.12,-227 474.62,-227 474.62,-247.75"/>
<text xml:space="preserve" text-anchor="middle" x="434.38" y="-234.25" font-family="Helvetica,sans-Serif" font-size="10.00">motor_core.h</text>
</a>
</g>
</g>
<!-- Node1&#45;&gt;Node3 -->
<g id="edge2_Node000001_Node000003" class="edge">
<title>Node1&#45;&gt;Node3</title>
<g id="a_edge2_Node000001_Node000003"><a xlink:title=" ">
<path fill="none" stroke="#63b8ff" d="M434.38,-283.34C434.38,-276.72 434.38,-267.72 434.38,-259.52"/>
<polygon fill="#63b8ff" stroke="#63b8ff" points="437.88,-259.59 434.38,-249.59 430.88,-259.59 437.88,-259.59"/>
</a>
</g>
</g>
<!-- Node6 -->
<g id="Node000006" class="node">
<title>Node6</title>
<g id="a_Node000006"><a xlink:title=" ">
<polygon fill="#e0e0e0" stroke="#999999" points="1262.25,-20.75 1182.5,-20.75 1182.5,0 1262.25,0 1262.25,-20.75"/>
<text xml:space="preserve" text-anchor="middle" x="1222.38" y="-7.25" font-family="Helvetica,sans-Serif" font-size="10.00">peripherals.h</text>
</a>
</g>
</g>
<!-- Node1&#45;&gt;Node6 -->
<g id="edge37_Node000001_Node000006" class="edge">
<title>Node1&#45;&gt;Node6</title>
<g id="a_edge37_Node000001_Node000006"><a xlink:title=" ">
<path fill="none" stroke="#63b8ff" d="M499.19,-291.17C693.91,-284.45 1260.38,-258.32 1260.38,-181.62 1260.38,-181.62 1260.38,-181.62 1260.38,-122.88 1260.38,-89.26 1244.71,-52.85 1233.5,-31.09"/>
<polygon fill="#63b8ff" stroke="#63b8ff" points="1236.68,-29.62 1228.86,-22.47 1230.52,-32.94 1236.68,-29.62"/>
</a>
</g>
</g>
<!-- Node3&#45;&gt;Node2 -->
<g id="edge6_Node000003_Node000002" class="edge">
<title>Node3&#45;&gt;Node2</title>
<g id="a_edge6_Node000003_Node000002"><a xlink:title=" ">
<path fill="none" stroke="#63b8ff" d="M393.7,-231.14C331.06,-223.01 207.24,-206.64 102.38,-191 101.7,-190.9 101.01,-190.8 100.33,-190.69"/>
<polygon fill="#63b8ff" stroke="#63b8ff" points="100.92,-187.24 90.5,-189.18 99.85,-194.16 100.92,-187.24"/>
</a>
</g>
</g>
<!-- Node4 -->
<g id="Node000004" class="node">
<title>Node4</title>
<g id="a_Node000004"><a xlink:href="pca9555a_8h.html" target="_top" xlink:title=" ">
<polygon fill="white" stroke="#666666" points="654.38,-77.5 500.38,-77.5 500.38,-56.75 654.38,-56.75 654.38,-77.5"/>
<text xml:space="preserve" text-anchor="middle" x="577.38" y="-64" font-family="Helvetica,sans-Serif" font-size="10.00">driver/pca9555a/pca9555a.h</text>
</a>
</g>
</g>
<!-- Node3&#45;&gt;Node4 -->
<g id="edge3_Node000003_Node000004" class="edge">
<title>Node3&#45;&gt;Node4</title>
<g id="a_edge3_Node000003_Node000004"><a xlink:title=" ">
<path fill="none" stroke="#63b8ff" d="M450.04,-226.62C462.86,-218.18 480.99,-205.12 494.38,-191 525.23,-158.45 552.53,-113.3 566.82,-87.77"/>
<polygon fill="#63b8ff" stroke="#63b8ff" points="569.81,-89.6 571.55,-79.15 563.67,-86.23 569.81,-89.6"/>
</a>
</g>
</g>
<!-- Node7 -->
<g id="Node000007" class="node">
<title>Node7</title>
<g id="a_Node000007"><a xlink:href="step__core_8h.html" target="_top" xlink:title=" ">
<polygon fill="white" stroke="#666666" points="470.5,-191 398.25,-191 398.25,-170.25 470.5,-170.25 470.5,-191"/>
<text xml:space="preserve" text-anchor="middle" x="434.38" y="-177.5" font-family="Helvetica,sans-Serif" font-size="10.00">step_core.h</text>
</a>
</g>
</g>
<!-- Node3&#45;&gt;Node7 -->
<g id="edge7_Node000003_Node000007" class="edge">
<title>Node3&#45;&gt;Node7</title>
<g id="a_edge7_Node000003_Node000007"><a xlink:title=" ">
<path fill="none" stroke="#63b8ff" d="M434.38,-226.59C434.38,-219.97 434.38,-210.97 434.38,-202.77"/>
<polygon fill="#63b8ff" stroke="#63b8ff" points="437.88,-202.84 434.38,-192.84 430.88,-202.84 437.88,-202.84"/>
</a>
</g>
</g>
<!-- Node10 -->
<g id="Node000010" class="node">
<title>Node10</title>
<g id="a_Node000010"><a xlink:title=" ">
<polygon fill="#e0e0e0" stroke="#999999" points="444.75,-77.5 386,-77.5 386,-56.75 444.75,-56.75 444.75,-77.5"/>
<text xml:space="preserve" text-anchor="middle" x="415.38" y="-64" font-family="Helvetica,sans-Serif" font-size="10.00">fsl_ftm.h</text>
</a>
</g>
</g>
<!-- Node3&#45;&gt;Node10 -->
<g id="edge34_Node000003_Node000010" class="edge">
<title>Node3&#45;&gt;Node10</title>
<g id="a_edge34_Node000003_Node000010"><a xlink:title=" ">
<path fill="none" stroke="#63b8ff" d="M448.74,-226.74C459.44,-218.63 473.21,-205.98 479.38,-191 482.89,-182.47 481.92,-179.11 479.38,-170.25 470.08,-137.91 447.2,-105.9 431.48,-86.56"/>
<polygon fill="#63b8ff" stroke="#63b8ff" points="434.3,-84.48 425.2,-79.07 428.94,-88.98 434.3,-84.48"/>
</a>
</g>
</g>
<!-- Node11 -->
<g id="Node000011" class="node">
<title>Node11</title>
<g id="a_Node000011"><a xlink:title=" ">
<polygon fill="#e0e0e0" stroke="#999999" points="110,-77.5 46.75,-77.5 46.75,-56.75 110,-56.75 110,-77.5"/>
<text xml:space="preserve" text-anchor="middle" x="78.38" y="-64" font-family="Helvetica,sans-Serif" font-size="10.00">fsl_gpio.h</text>
</a>
</g>
</g>
<!-- Node3&#45;&gt;Node11 -->
<g id="edge35_Node000003_Node000011" class="edge">
<title>Node3&#45;&gt;Node11</title>
<g id="a_edge35_Node000003_Node000011"><a xlink:title=" ">
<path fill="none" stroke="#63b8ff" d="M393.72,-229.48C358.25,-222.56 305.95,-210.16 263.38,-191 198.73,-161.91 131.52,-111.23 98.77,-84.97"/>
<polygon fill="#63b8ff" stroke="#63b8ff" points="101.26,-82.49 91.29,-78.91 96.86,-87.92 101.26,-82.49"/>
</a>
</g>
</g>
<!-- Node12 -->
<g id="Node000012" class="node">
<title>Node12</title>
<g id="a_Node000012"><a xlink:title=" ">
<polygon fill="#e0e0e0" stroke="#999999" points="190.25,-77.5 128.5,-77.5 128.5,-56.75 190.25,-56.75 190.25,-77.5"/>
<text xml:space="preserve" text-anchor="middle" x="159.38" y="-64" font-family="Helvetica,sans-Serif" font-size="10.00">fsl_port.h</text>
</a>
</g>
</g>
<!-- Node3&#45;&gt;Node12 -->
<g id="edge36_Node000003_Node000012" class="edge">
<title>Node3&#45;&gt;Node12</title>
<g id="a_edge36_Node000003_Node000012"><a xlink:title=" ">
<path fill="none" stroke="#63b8ff" d="M400.69,-226.52C354.53,-211.84 270.6,-180.87 211.38,-134.25 194.75,-121.16 180.29,-101.72 170.87,-87.3"/>
<polygon fill="#63b8ff" stroke="#63b8ff" points="174.03,-85.74 165.75,-79.13 168.1,-89.46 174.03,-85.74"/>
</a>
</g>
</g>
<!-- Node19 -->
<g id="Node000019" class="node">
<title>Node19</title>
<g id="a_Node000019"><a xlink:href="tmc2209__core_8h.html" target="_top" xlink:title=" ">
<polygon fill="white" stroke="#666666" points="1107.38,-191 1013.38,-191 1013.38,-170.25 1107.38,-170.25 1107.38,-191"/>
<text xml:space="preserve" text-anchor="middle" x="1060.38" y="-177.5" font-family="Helvetica,sans-Serif" font-size="10.00">tmc2209_core.h</text>
</a>
</g>
</g>
<!-- Node3&#45;&gt;Node19 -->
<g id="edge28_Node000003_Node000019" class="edge">
<title>Node3&#45;&gt;Node19</title>
<g id="a_edge28_Node000003_Node000019"><a xlink:title=" ">
<path fill="none" stroke="#63b8ff" d="M474.97,-232.82C582.69,-223.4 876.12,-197.74 1001.88,-186.74"/>
<polygon fill="#63b8ff" stroke="#63b8ff" points="1001.99,-190.24 1011.65,-185.89 1001.38,-183.27 1001.99,-190.24"/>
</a>
</g>
</g>
<!-- Node5 -->
<g id="Node000005" class="node">
<title>Node5</title>
<g id="a_Node000005"><a xlink:title=" ">
<polygon fill="#e0e0e0" stroke="#999999" points="619.88,-20.75 534.88,-20.75 534.88,0 619.88,0 619.88,-20.75"/>
<text xml:space="preserve" text-anchor="middle" x="577.38" y="-7.25" font-family="Helvetica,sans-Serif" font-size="10.00">fsl_common.h</text>
</a>
</g>
</g>
<!-- Node4&#45;&gt;Node5 -->
<g id="edge4_Node000004_Node000005" class="edge">
<title>Node4&#45;&gt;Node5</title>
<g id="a_edge4_Node000004_Node000005"><a xlink:title=" ">
<path fill="none" stroke="#63b8ff" d="M577.38,-56.34C577.38,-49.72 577.38,-40.72 577.38,-32.52"/>
<polygon fill="#63b8ff" stroke="#63b8ff" points="580.88,-32.59 577.38,-22.59 573.88,-32.59 580.88,-32.59"/>
</a>
</g>
</g>
<!-- Node4&#45;&gt;Node6 -->
<g id="edge5_Node000004_Node000006" class="edge">
<title>Node4&#45;&gt;Node6</title>
<g id="a_edge5_Node000004_Node000006"><a xlink:title=" ">
<path fill="none" stroke="#63b8ff" d="M654.72,-57.59C657.64,-57.3 660.53,-57.02 663.38,-56.75 849.9,-39.02 1071.85,-22.31 1170.59,-15.1"/>
<polygon fill="#63b8ff" stroke="#63b8ff" points="1170.78,-18.59 1180.5,-14.38 1170.27,-11.61 1170.78,-18.59"/>
</a>
</g>
</g>
<!-- Node7&#45;&gt;Node4 -->
<g id="edge8_Node000007_Node000004" class="edge">
<title>Node7&#45;&gt;Node4</title>
<g id="a_edge8_Node000007_Node000004"><a xlink:title=" ">
<path fill="none" stroke="#63b8ff" d="M446.57,-170.12C470.82,-151.21 525.41,-108.64 555.84,-84.91"/>
<polygon fill="#63b8ff" stroke="#63b8ff" points="557.88,-87.76 563.61,-78.86 553.57,-82.24 557.88,-87.76"/>
</a>
</g>
</g>
<!-- Node7&#45;&gt;Node5 -->
<g id="edge11_Node000007_Node000005" class="edge">
<title>Node7&#45;&gt;Node5</title>
<g id="a_edge11_Node000007_Node000005"><a xlink:title=" ">
<path fill="none" stroke="#63b8ff" d="M436.63,-169.79C442.25,-147.22 458.82,-91.02 491.38,-56.75 504.25,-43.2 522.08,-32.88 538.17,-25.53"/>
<polygon fill="#63b8ff" stroke="#63b8ff" points="539.22,-28.89 547.03,-21.73 536.46,-22.46 539.22,-28.89"/>
</a>
</g>
</g>
<!-- Node8 -->
<g id="Node000008" class="node">
<title>Node8</title>
<g id="a_Node000008"><a xlink:title=" ">
<polygon fill="#e0e0e0" stroke="#999999" points="744.12,-77.5 672.62,-77.5 672.62,-56.75 744.12,-56.75 744.12,-77.5"/>
<text xml:space="preserve" text-anchor="middle" x="708.38" y="-64" font-family="Helvetica,sans-Serif" font-size="10.00">FreeRTOS.h</text>
</a>
</g>
</g>
<!-- Node7&#45;&gt;Node8 -->
<g id="edge9_Node000007_Node000008" class="edge">
<title>Node7&#45;&gt;Node8</title>
<g id="a_edge9_Node000007_Node000008"><a xlink:title=" ">
<path fill="none" stroke="#63b8ff" d="M458.21,-169.93C506.79,-150.16 617.43,-105.14 673.87,-82.17"/>
<polygon fill="#63b8ff" stroke="#63b8ff" points="675.05,-85.46 683,-78.45 672.41,-78.98 675.05,-85.46"/>
</a>
</g>
</g>
<!-- Node9 -->
<g id="Node000009" class="node">
<title>Node9</title>
<g id="a_Node000009"><a xlink:title=" ">
<polygon fill="#e0e0e0" stroke="#999999" points="304.38,-134.25 258.38,-134.25 258.38,-113.5 304.38,-113.5 304.38,-134.25"/>
<text xml:space="preserve" text-anchor="middle" x="281.38" y="-120.75" font-family="Helvetica,sans-Serif" font-size="10.00">task.h</text>
</a>
</g>
</g>
<!-- Node7&#45;&gt;Node9 -->
<g id="edge10_Node000007_Node000009" class="edge">
<title>Node7&#45;&gt;Node9</title>
<g id="a_edge10_Node000007_Node000009"><a xlink:title=" ">
<path fill="none" stroke="#63b8ff" d="M407.02,-169.84C381.34,-160.65 342.83,-146.87 315.22,-136.99"/>
<polygon fill="#63b8ff" stroke="#63b8ff" points="316.51,-133.73 305.92,-133.66 314.15,-140.32 316.51,-133.73"/>
</a>
</g>
</g>
<!-- Node7&#45;&gt;Node10 -->
<g id="edge12_Node000007_Node000010" class="edge">
<title>Node7&#45;&gt;Node10</title>
<g id="a_edge12_Node000007_Node000010"><a xlink:title=" ">
<path fill="none" stroke="#63b8ff" d="M432.76,-170.12C429.71,-152.27 423.08,-113.36 418.95,-89.09"/>
<polygon fill="#63b8ff" stroke="#63b8ff" points="422.43,-88.69 417.3,-79.42 415.53,-89.86 422.43,-88.69"/>
</a>
</g>
</g>
<!-- Node7&#45;&gt;Node11 -->
<g id="edge13_Node000007_Node000011" class="edge">
<title>Node7&#45;&gt;Node11</title>
<g id="a_edge13_Node000007_Node000011"><a xlink:title=" ">
<path fill="none" stroke="#63b8ff" d="M398.08,-175.2C353.3,-169.08 275.27,-156.21 211.38,-134.25 172.58,-120.92 130.64,-98.62 104.45,-83.65"/>
<polygon fill="#63b8ff" stroke="#63b8ff" points="106.28,-80.67 95.88,-78.68 102.77,-86.72 106.28,-80.67"/>
</a>
</g>
</g>
<!-- Node7&#45;&gt;Node12 -->
<g id="edge14_Node000007_Node000012" class="edge">
<title>Node7&#45;&gt;Node12</title>
<g id="a_edge14_Node000007_Node000012"><a xlink:title=" ">
<path fill="none" stroke="#63b8ff" d="M397.85,-174.99C359.48,-169.15 298.06,-157 249.38,-134.25 222.4,-121.65 195.4,-100.37 178.12,-85.36"/>
<polygon fill="#63b8ff" stroke="#63b8ff" points="180.5,-82.8 170.7,-78.77 175.85,-88.03 180.5,-82.8"/>
</a>
</g>
</g>
<!-- Node13 -->
<g id="Node000013" class="node">
<title>Node13</title>
<g id="a_Node000013"><a xlink:href="cmd__handle_8h.html" target="_top" xlink:title=" ">
<polygon fill="white" stroke="#666666" points="868.5,-134.25 784.25,-134.25 784.25,-113.5 868.5,-113.5 868.5,-134.25"/>
<text xml:space="preserve" text-anchor="middle" x="826.38" y="-120.75" font-family="Helvetica,sans-Serif" font-size="10.00">cmd_handle.h</text>
</a>
</g>
</g>
<!-- Node7&#45;&gt;Node13 -->
<g id="edge15_Node000007_Node000013" class="edge">
<title>Node7&#45;&gt;Node13</title>
<g id="a_edge15_Node000007_Node000013"><a xlink:title=" ">
<path fill="none" stroke="#63b8ff" d="M470.9,-174.52C540.43,-164.81 692.05,-143.64 772.98,-132.33"/>
<polygon fill="#63b8ff" stroke="#63b8ff" points="772.99,-135.86 782.41,-131.02 772.03,-128.93 772.99,-135.86"/>
</a>
</g>
</g>
<!-- Node17 -->
<g id="Node000017" class="node">
<title>Node17</title>
<g id="a_Node000017"><a xlink:href="step__shared_8h.html" target="_top" xlink:title=" ">
<polygon fill="white" stroke="#666666" points="406.5,-134.25 322.25,-134.25 322.25,-113.5 406.5,-113.5 406.5,-134.25"/>
<text xml:space="preserve" text-anchor="middle" x="364.38" y="-120.75" font-family="Helvetica,sans-Serif" font-size="10.00">step_shared.h</text>
</a>
</g>
</g>
<!-- Node7&#45;&gt;Node17 -->
<g id="edge21_Node000007_Node000017" class="edge">
<title>Node7&#45;&gt;Node17</title>
<g id="a_edge21_Node000007_Node000017"><a xlink:title=" ">
<path fill="none" stroke="#63b8ff" d="M421.86,-169.84C411.81,-161.97 397.46,-150.75 385.62,-141.49"/>
<polygon fill="#63b8ff" stroke="#63b8ff" points="388.01,-138.91 377.97,-135.51 383.69,-144.43 388.01,-138.91"/>
</a>
</g>
</g>
<!-- Node13&#45;&gt;Node5 -->
<g id="edge19_Node000013_Node000005" class="edge">
<title>Node13&#45;&gt;Node5</title>
<g id="a_edge19_Node000013_Node000005"><a xlink:title=" ">
<path fill="none" stroke="#63b8ff" d="M818.47,-113.19C806.11,-98.71 780.77,-71.51 753.38,-56.75 715.4,-36.29 667.79,-24.74 631.67,-18.42"/>
<polygon fill="#63b8ff" stroke="#63b8ff" points="632.31,-14.98 621.87,-16.8 631.16,-21.89 632.31,-14.98"/>
</a>
</g>
</g>
<!-- Node13&#45;&gt;Node8 -->
<g id="edge17_Node000013_Node000008" class="edge">
<title>Node13&#45;&gt;Node8</title>
<g id="a_edge17_Node000013_Node000008"><a xlink:title=" ">
<path fill="none" stroke="#63b8ff" d="M805.28,-113.09C786.99,-104.6 760.27,-92.2 739.52,-82.58"/>
<polygon fill="#63b8ff" stroke="#63b8ff" points="741.21,-79.5 730.66,-78.47 738.26,-85.85 741.21,-79.5"/>
</a>
</g>
</g>
<!-- Node14 -->
<g id="Node000014" class="node">
<title>Node14</title>
<g id="a_Node000014"><a xlink:title=" ">
<polygon fill="#e0e0e0" stroke="#999999" points="922.75,-77.5 870,-77.5 870,-56.75 922.75,-56.75 922.75,-77.5"/>
<text xml:space="preserve" text-anchor="middle" x="896.38" y="-64" font-family="Helvetica,sans-Serif" font-size="10.00">stdint.h</text>
</a>
</g>
</g>
<!-- Node13&#45;&gt;Node14 -->
<g id="edge16_Node000013_Node000014" class="edge">
<title>Node13&#45;&gt;Node14</title>
<g id="a_edge16_Node000013_Node000014"><a xlink:title=" ">
<path fill="none" stroke="#63b8ff" d="M838.89,-113.09C848.94,-105.22 863.29,-94 875.13,-84.74"/>
<polygon fill="#63b8ff" stroke="#63b8ff" points="877.06,-87.68 882.78,-78.76 872.74,-82.16 877.06,-87.68"/>
</a>
</g>
</g>
<!-- Node15 -->
<g id="Node000015" class="node">
<title>Node15</title>
<g id="a_Node000015"><a xlink:title=" ">
<polygon fill="#e0e0e0" stroke="#999999" points="1031.88,-77.5 940.88,-77.5 940.88,-56.75 1031.88,-56.75 1031.88,-77.5"/>
<text xml:space="preserve" text-anchor="middle" x="986.38" y="-64" font-family="Helvetica,sans-Serif" font-size="10.00">event_groups.h</text>
</a>
</g>
</g>
<!-- Node13&#45;&gt;Node15 -->
<g id="edge18_Node000013_Node000015" class="edge">
<title>Node13&#45;&gt;Node15</title>
<g id="a_edge18_Node000013_Node000015"><a xlink:title=" ">
<path fill="none" stroke="#63b8ff" d="M854.98,-113.09C880.61,-104.32 918.45,-91.37 946.94,-81.62"/>
<polygon fill="#63b8ff" stroke="#63b8ff" points="947.99,-84.96 956.32,-78.41 945.72,-78.34 947.99,-84.96"/>
</a>
</g>
</g>
<!-- Node16 -->
<g id="Node000016" class="node">
<title>Node16</title>
<g id="a_Node000016"><a xlink:title=" ">
<polygon fill="#e0e0e0" stroke="#999999" points="852.38,-77.5 800.38,-77.5 800.38,-56.75 852.38,-56.75 852.38,-77.5"/>
<text xml:space="preserve" text-anchor="middle" x="826.38" y="-64" font-family="Helvetica,sans-Serif" font-size="10.00">stdlib.h</text>
</a>
</g>
</g>
<!-- Node13&#45;&gt;Node16 -->
<g id="edge20_Node000013_Node000016" class="edge">
<title>Node13&#45;&gt;Node16</title>
<g id="a_edge20_Node000013_Node000016"><a xlink:title=" ">
<path fill="none" stroke="#63b8ff" d="M826.38,-113.09C826.38,-106.47 826.38,-97.47 826.38,-89.27"/>
<polygon fill="#63b8ff" stroke="#63b8ff" points="829.88,-89.34 826.38,-79.34 822.88,-89.34 829.88,-89.34"/>
</a>
</g>
</g>
<!-- Node17&#45;&gt;Node4 -->
<g id="edge22_Node000017_Node000004" class="edge">
<title>Node17&#45;&gt;Node4</title>
<g id="a_edge22_Node000017_Node000004"><a xlink:title=" ">
<path fill="none" stroke="#63b8ff" d="M402.46,-113.09C437.63,-104.04 490.08,-90.56 528.37,-80.72"/>
<polygon fill="#63b8ff" stroke="#63b8ff" points="528.99,-84.18 537.8,-78.3 527.24,-77.4 528.99,-84.18"/>
</a>
</g>
</g>
<!-- Node17&#45;&gt;Node5 -->
<g id="edge24_Node000017_Node000005" class="edge">
<title>Node17&#45;&gt;Node5</title>
<g id="a_edge24_Node000017_Node000005"><a xlink:title=" ">
<path fill="none" stroke="#63b8ff" d="M363.29,-113.32C362.23,-99 362.54,-72.02 377.38,-56.75 397.33,-36.21 471.15,-23.57 523.28,-17.01"/>
<polygon fill="#63b8ff" stroke="#63b8ff" points="523.7,-20.49 533.2,-15.81 522.85,-13.54 523.7,-20.49"/>
</a>
</g>
</g>
<!-- Node17&#45;&gt;Node10 -->
<g id="edge25_Node000017_Node000010" class="edge">
<title>Node17&#45;&gt;Node10</title>
<g id="a_edge25_Node000017_Node000010"><a xlink:title=" ">
<path fill="none" stroke="#63b8ff" d="M373.49,-113.09C380.46,-105.61 390.24,-95.11 398.61,-86.13"/>
<polygon fill="#63b8ff" stroke="#63b8ff" points="401.05,-88.64 405.3,-78.94 395.93,-83.87 401.05,-88.64"/>
</a>
</g>
</g>
<!-- Node17&#45;&gt;Node11 -->
<g id="edge26_Node000017_Node000011" class="edge">
<title>Node17&#45;&gt;Node11</title>
<g id="a_edge26_Node000017_Node000011"><a xlink:title=" ">
<path fill="none" stroke="#63b8ff" d="M321.92,-115.06C262.34,-104.09 157.79,-84.81 120.95,-77.67"/>
<polygon fill="#63b8ff" stroke="#63b8ff" points="122.11,-74.33 111.62,-75.82 120.74,-81.2 122.11,-74.33"/>
</a>
</g>
</g>
<!-- Node17&#45;&gt;Node12 -->
<g id="edge27_Node000017_Node000012" class="edge">
<title>Node17&#45;&gt;Node12</title>
<g id="a_edge27_Node000017_Node000012"><a xlink:title=" ">
<path fill="none" stroke="#63b8ff" d="M327.73,-113.09C292.34,-103.64 238.81,-89.34 201.65,-79.41"/>
<polygon fill="#63b8ff" stroke="#63b8ff" points="202.7,-76.07 192.14,-76.88 200.9,-82.84 202.7,-76.07"/>
</a>
</g>
</g>
<!-- Node18 -->
<g id="Node000018" class="node">
<title>Node18</title>
<g id="a_Node000018"><a xlink:title=" ">
<polygon fill="#e0e0e0" stroke="#999999" points="330.62,-77.5 208.12,-77.5 208.12,-56.75 330.62,-56.75 330.62,-77.5"/>
<text xml:space="preserve" text-anchor="middle" x="269.38" y="-64" font-family="Helvetica,sans-Serif" font-size="10.00">fsl_device_registers.h</text>
</a>
</g>
</g>
<!-- Node17&#45;&gt;Node18 -->
<g id="edge23_Node000017_Node000018" class="edge">
<title>Node17&#45;&gt;Node18</title>
<g id="a_edge23_Node000017_Node000018"><a xlink:title=" ">
<path fill="none" stroke="#63b8ff" d="M347.39,-113.09C333.07,-104.83 312.33,-92.88 295.84,-83.38"/>
<polygon fill="#63b8ff" stroke="#63b8ff" points="297.94,-80.55 287.52,-78.58 294.44,-86.61 297.94,-80.55"/>
</a>
</g>
</g>
<!-- Node19&#45;&gt;Node5 -->
<g id="edge31_Node000019_Node000005" class="edge">
<title>Node19&#45;&gt;Node5</title>
<g id="a_edge31_Node000019_Node000005"><a xlink:title=" ">
<path fill="none" stroke="#63b8ff" d="M1062.36,-169.88C1066.51,-146.48 1073.21,-86.86 1041.38,-56.75 1012.09,-29.06 747.54,-16.99 631.51,-13"/>
<polygon fill="#63b8ff" stroke="#63b8ff" points="631.72,-9.5 621.61,-12.66 631.48,-16.5 631.72,-9.5"/>
</a>
</g>
</g>
<!-- Node19&#45;&gt;Node6 -->
<g id="edge33_Node000019_Node000006" class="edge">
<title>Node19&#45;&gt;Node6</title>
<g id="a_edge33_Node000019_Node000006"><a xlink:title=" ">
<path fill="none" stroke="#63b8ff" d="M1107.58,-177.13C1139.39,-172.84 1179.73,-161.84 1203.38,-134.25 1227.87,-105.67 1227.81,-59.01 1225.28,-32.16"/>
<polygon fill="#63b8ff" stroke="#63b8ff" points="1228.8,-32.08 1224.16,-22.55 1221.84,-32.89 1228.8,-32.08"/>
</a>
</g>
</g>
<!-- Node19&#45;&gt;Node13 -->
<g id="edge32_Node000019_Node000013" class="edge">
<title>Node19&#45;&gt;Node13</title>
<g id="a_edge32_Node000019_Node000013"><a xlink:title=" ">
<path fill="none" stroke="#63b8ff" d="M1018.27,-169.77C979.46,-160.69 921.68,-147.17 879.67,-137.34"/>
<polygon fill="#63b8ff" stroke="#63b8ff" points="880.54,-133.95 870.01,-135.08 878.95,-140.77 880.54,-133.95"/>
</a>
</g>
</g>
<!-- Node20 -->
<g id="Node000020" class="node">
<title>Node20</title>
<g id="a_Node000020"><a xlink:href="tmc2209__shared_8h.html" target="_top" xlink:title=" ">
<polygon fill="white" stroke="#666666" points="1194.38,-134.25 1088.38,-134.25 1088.38,-113.5 1194.38,-113.5 1194.38,-134.25"/>
<text xml:space="preserve" text-anchor="middle" x="1141.38" y="-120.75" font-family="Helvetica,sans-Serif" font-size="10.00">tmc2209_shared.h</text>
</a>
</g>
</g>
<!-- Node19&#45;&gt;Node20 -->
<g id="edge29_Node000019_Node000020" class="edge">
<title>Node19&#45;&gt;Node20</title>
<g id="a_edge29_Node000019_Node000020"><a xlink:title=" ">
<path fill="none" stroke="#63b8ff" d="M1074.86,-169.84C1086.72,-161.82 1103.75,-150.31 1117.61,-140.94"/>
<polygon fill="#63b8ff" stroke="#63b8ff" points="1119.44,-143.93 1125.77,-135.43 1115.52,-138.13 1119.44,-143.93"/>
</a>
</g>
</g>
<!-- Node21 -->
<g id="Node000021" class="node">
<title>Node21</title>
<g id="a_Node000021"><a xlink:title=" ">
<polygon fill="#e0e0e0" stroke="#999999" points="1194,-77.5 1088.75,-77.5 1088.75,-56.75 1194,-56.75 1194,-77.5"/>
<text xml:space="preserve" text-anchor="middle" x="1141.38" y="-64" font-family="Helvetica,sans-Serif" font-size="10.00">fsl_uart_freertos.h</text>
</a>
</g>
</g>
<!-- Node20&#45;&gt;Node21 -->
<g id="edge30_Node000020_Node000021" class="edge">
<title>Node20&#45;&gt;Node21</title>
<g id="a_edge30_Node000020_Node000021"><a xlink:title=" ">
<path fill="none" stroke="#63b8ff" d="M1141.38,-113.09C1141.38,-106.47 1141.38,-97.47 1141.38,-89.27"/>
<polygon fill="#63b8ff" stroke="#63b8ff" points="1144.88,-89.34 1141.38,-79.34 1137.88,-89.34 1144.88,-89.34"/>
</a>
</g>
</g>
</g>
</svg>

<g id="navigator" transform="translate(0 0)" fill="#404254">
  <rect fill="#f2f5e9" fill-opacity="0.5" stroke="#606060" stroke-width=".5" x="0" y="0" width="60" height="60"/>
  <use id="zoomplus" xlink:href="#zoomPlus" x="17" y="9" onmousedown="handleZoom(evt,'in')"/>
  <use id="zoomminus" xlink:href="#zoomMin" x="42" y="9" onmousedown="handleZoom(evt,'out')"/>
  <use id="reset" xlink:href="#resetDef" x="30" y="36" onmousedown="handleReset()"/>
   <use id="arrowup" xlink:href="#arrowUp" x="0" y="0" onmousedown="handlePan(0,-1)"/>
  <use id="arrowright" xlink:href="#arrowRight" x="0" y="0" onmousedown="handlePan(1,0)"/>
  <use id="arrowdown" xlink:href="#arrowDown" x="0" y="0" onmousedown="handlePan(0,1)"/>
  <use id="arrowleft" xlink:href="#arrowLeft" x="0" y="0" onmousedown="handlePan(-1,0)"/>
</g>
<svg viewBox="0 0 15 15" width="100%" height="30px" preserveAspectRatio="xMaxYMin meet">
 <g id="arrow_out" transform="scale(0.3 0.3)">
  <a xlink:href="motor__configs_8h__incl_org.svg" target="_base">
   <rect id="button" ry="5" rx="5" y="6" x="6" height="38" width="38"
        fill="#f2f5e9" fill-opacity="0.5" stroke="#606060" stroke-width="1.0"/>
   <path id="arrow"
     d="M 11.500037,31.436501 C 11.940474,20.09759 22.043105,11.32322 32.158766,21.979434 L 37.068811,17.246167 C 37.068811,17.246167 37.088388,32 37.088388,32 L 22.160133,31.978069 C 22.160133,31.978069 26.997745,27.140456 26.997745,27.140456 C 18.528582,18.264221 13.291696,25.230495 11.500037,31.436501 z"
     style="fill:#404040;"/>
  </a>
 </g>
</svg>

<style type='text/css'>
<![CDATA[
[data-mouse-over-selected='false'] { opacity: 0.7; }
[data-mouse-over-selected='true']  { opacity: 1.0; }
]]>
</style>
<script type="application/ecmascript"><![CDATA[
document.addEventListener('DOMContentLoaded', (event) => {
  highlightEdges();
  highlightAdjacentNodes();
});
]]></script>
</svg>
