<?xml version="1.0" encoding="UTF-8" standalone="no"?>
<!DOCTYPE svg PUBLIC "-//W3C//DTD SVG 1.1//EN"
 "http://www.w3.org/Graphics/SVG/1.1/DTD/svg11.dtd">
<!-- Generated by graphviz version 14.1.5 (0)
 -->
<!-- Title: source/motion/motor/motor_init.c Pages: 1 -->
<!--zoomable 439 -->

<svg id="main" version="1.1" xmlns="http://www.w3.org/2000/svg" xmlns:xlink="http://www.w3.org/1999/xlink" xml:space="preserve" onload="init(evt)">

<style type="text/css"><![CDATA[
.node, .edge {opacity: 0.7;}
.node.selected, .edge.selected {opacity: 1;}
.edge:hover path { stroke: red; }
.edge:hover polygon { stroke: red; fill: red; }
]]></style>

<defs>
  <circle id="rim" cx="0" cy="0" r="7"/>
  <circle id="rim2" cx="0" cy="0" r="3.5"/>
  <g id="zoomPlus">
    <use xlink:href="#rim" fill="#404040"><set attributeName="fill" to="#808080" begin="zoomplus.mouseover" end="zoomplus.mouseout"/></use>
    <path d="M-4,0h8M0,-4v8" fill="none" stroke="white" stroke-width="1.5" pointer-events="none"/>
  </g>
  <g id="zoomMin">
    <use xlink:href="#rim" fill="#404040"><set attributeName="fill" to="#808080" begin="zoomminus.mouseover" end="zoomminus.mouseout"/></use>
    <path d="M-4,0h8" fill="none" stroke="white" stroke-width="1.5" pointer-events="none"/>
  </g>
  <g id="arrowUp" transform="translate(30 24)">
    <use xlink:href="#rim"/>
    <path pointer-events="none" fill="none" stroke="white" stroke-width="1.5" d="M0,-3.0v7 M-2.5,-0.5L0,-3.0L2.5,-0.5"/>
  </g>
  <g id="arrowRight" transform="rotate(90) translate(36 -43)">
    <use xlink:href="#rim"/>
    <path pointer-events="none" fill="none" stroke="white" stroke-width="1.5" d="M0,-3.0v7 M-2.5,-0.5L0,-3.0L2.5,-0.5"/>
  </g>
  <g id="arrowDown" transform="rotate(180) translate(-30 -48)">
    <use xlink:href="#rim"/>
    <path pointer-events="none" fill="none" stroke="white" stroke-width="1.5" d="M0,-3.0v7 M-2.5,-0.5L0,-3.0L2.5,-0.5"/>
  </g>
  <g id="arrowLeft" transform="rotate(270) translate(-36 17)">
    <use xlink:href="#rim"/>
    <path pointer-events="none" fill="none" stroke="white" stroke-width="1.5" d="M0,-3.0v7 M-2.5,-0.5L0,-3.0L2.5,-0.5"/>
  </g>
  <g id="resetDef">
    <use xlink:href="#rim2" fill="#404040"><set attributeName="fill" to="#808080" begin="reset.mouseover" end="reset.mouseout"/></use>
  </g>
</defs>
<script type="application/ecmascript">
var viewWidth = 1303;
var viewHeight = 439;
var sectionId = 'dynsection-0';
</script>
<script type="application/ecmascript" xlink:href="svg.min.js"/>
<svg id="graph" class="graph">
<g id="viewport">
<title>source/motion/motor/motor_init.c</title>
<!-- Node1 -->
<g id="Node000001" class="node">
<title>Node1</title>
<g id="a_Node000001"><a xlink:title=" ">
<polygon fill="#999999" stroke="#666666" points="1169.62,-430.75 1051.62,-430.75 1051.62,-397.25 1169.62,-397.25 1169.62,-430.75"/>
<text xml:space="preserve" text-anchor="start" x="1059.62" y="-417.25" font-family="Helvetica,sans-Serif" font-size="10.00">source/motion/motor</text>
<text xml:space="preserve" text-anchor="middle" x="1110.62" y="-404.5" font-family="Helvetica,sans-Serif" font-size="10.00">/motor_init.c</text>
</a>
</g>
</g>
<!-- Node2 -->
<g id="Node000002" class="node">
<title>Node2</title>
<g id="a_Node000002"><a xlink:href="log_8h.html" target="_top" xlink:title=" ">
<polygon fill="white" stroke="#666666" points="1281.12,-134.25 1172.12,-134.25 1172.12,-113.5 1281.12,-113.5 1281.12,-134.25"/>
<text xml:space="preserve" text-anchor="middle" x="1226.62" y="-120.75" font-family="Helvetica,sans-Serif" font-size="10.00">infrastructure/log.h</text>
</a>
</g>
</g>
<!-- Node1&#45;&gt;Node2 -->
<g id="edge1_Node000001_Node000002" class="edge">
<title>Node1&#45;&gt;Node2</title>
<g id="a_edge1_Node000001_Node000002"><a xlink:title=" ">
<path fill="none" stroke="#63b8ff" d="M1128.67,-396.99C1150.29,-375.96 1183.62,-336.77 1183.62,-295.12 1183.62,-295.12 1183.62,-295.12 1183.62,-236.38 1183.62,-202.12 1201.51,-165.67 1214.21,-144.11"/>
<polygon fill="#63b8ff" stroke="#63b8ff" points="1217.05,-146.18 1219.3,-135.82 1211.08,-142.51 1217.05,-146.18"/>
</a>
</g>
</g>
<!-- Node5 -->
<g id="Node000005" class="node">
<title>Node5</title>
<g id="a_Node000005"><a xlink:href="motor__init_8h.html" target="_top" xlink:title=" ">
<polygon fill="white" stroke="#666666" points="784.25,-361.25 709,-361.25 709,-340.5 784.25,-340.5 784.25,-361.25"/>
<text xml:space="preserve" text-anchor="middle" x="746.62" y="-347.75" font-family="Helvetica,sans-Serif" font-size="10.00">motor_init.h</text>
</a>
</g>
</g>
<!-- Node1&#45;&gt;Node5 -->
<g id="edge4_Node000001_Node000005" class="edge">
<title>Node1&#45;&gt;Node5</title>
<g id="a_edge4_Node000001_Node000005"><a xlink:title=" ">
<path fill="none" stroke="#63b8ff" d="M1051.33,-403.04C980.11,-391.08 861.96,-371.24 795.65,-360.11"/>
<polygon fill="#63b8ff" stroke="#63b8ff" points="796.61,-356.72 786.17,-358.52 795.46,-363.62 796.61,-356.72"/>
</a>
</g>
</g>
<!-- Node10 -->
<g id="Node000010" class="node">
<title>Node10</title>
<g id="a_Node000010"><a xlink:href="step__core_8h.html" target="_top" xlink:title=" ">
<polygon fill="white" stroke="#666666" points="402.75,-191 330.5,-191 330.5,-170.25 402.75,-170.25 402.75,-191"/>
<text xml:space="preserve" text-anchor="middle" x="366.62" y="-177.5" font-family="Helvetica,sans-Serif" font-size="10.00">step_core.h</text>
</a>
</g>
</g>
<!-- Node1&#45;&gt;Node10 -->
<g id="edge51_Node000001_Node000010" class="edge">
<title>Node1&#45;&gt;Node10</title>
<g id="a_edge51_Node000001_Node000010"><a xlink:title=" ">
<path fill="none" stroke="#63b8ff" d="M1051.31,-412.31C970.09,-409.85 820.53,-399.9 699.62,-361.25 598.2,-328.83 582.32,-298.34 488.62,-247.75 456.31,-230.3 419.22,-210.19 394.5,-196.77"/>
<polygon fill="#63b8ff" stroke="#63b8ff" points="396.18,-193.7 385.73,-192 392.84,-199.85 396.18,-193.7"/>
</a>
</g>
</g>
<!-- Node21 -->
<g id="Node000021" class="node">
<title>Node21</title>
<g id="a_Node000021"><a xlink:href="tmc2209__core_8h.html" target="_top" xlink:title=" ">
<polygon fill="white" stroke="#666666" points="817.62,-191 723.62,-191 723.62,-170.25 817.62,-170.25 817.62,-191"/>
<text xml:space="preserve" text-anchor="middle" x="770.62" y="-177.5" font-family="Helvetica,sans-Serif" font-size="10.00">tmc2209_core.h</text>
</a>
</g>
</g>
<!-- Node1&#45;&gt;Node21 -->
<g id="edge52_Node000001_Node000021" class="edge">
<title>Node1&#45;&gt;Node21</title>
<g id="a_edge52_Node000001_Node000021"><a xlink:title=" ">
<path fill="none" stroke="#63b8ff" d="M1086.99,-396.91C1024.79,-354.59 857.08,-240.46 794.56,-197.91"/>
<polygon fill="#63b8ff" stroke="#63b8ff" points="796.62,-195.08 786.38,-192.35 792.68,-200.87 796.62,-195.08"/>
</a>
</g>
</g>
<!-- Node27 -->
<g id="Node000027" class="node">
<title>Node27</title>
<g id="a_Node000027"><a xlink:title=" ">
<polygon fill="#e0e0e0" stroke="#999999" points="1261.12,-361.25 1212.12,-361.25 1212.12,-340.5 1261.12,-340.5 1261.12,-361.25"/>
<text xml:space="preserve" text-anchor="middle" x="1236.62" y="-347.75" font-family="Helvetica,sans-Serif" font-size="10.00">stdio.h</text>
</a>
</g>
</g>
<!-- Node1&#45;&gt;Node27 -->
<g id="edge50_Node000001_Node000027" class="edge">
<title>Node1&#45;&gt;Node27</title>
<g id="a_edge50_Node000001_Node000027"><a xlink:title=" ">
<path fill="none" stroke="#63b8ff" d="M1144.06,-396.78C1163.32,-387.44 1187.34,-375.78 1206.09,-366.69"/>
<polygon fill="#63b8ff" stroke="#63b8ff" points="1207.61,-369.84 1215.08,-362.33 1204.56,-363.54 1207.61,-369.84"/>
</a>
</g>
</g>
<!-- Node28 -->
<g id="Node000028" class="node">
<title>Node28</title>
<g id="a_Node000028"><a xlink:href="sync__wait_8h.html" target="_top" xlink:title=" ">
<polygon fill="white" stroke="#666666" points="1155.5,-191 1081.75,-191 1081.75,-170.25 1155.5,-170.25 1155.5,-191"/>
<text xml:space="preserve" text-anchor="middle" x="1118.62" y="-177.5" font-family="Helvetica,sans-Serif" font-size="10.00">sync_wait.h</text>
</a>
</g>
</g>
<!-- Node1&#45;&gt;Node28 -->
<g id="edge53_Node000001_Node000028" class="edge">
<title>Node1&#45;&gt;Node28</title>
<g id="a_edge53_Node000001_Node000028"><a xlink:title=" ">
<path fill="none" stroke="#63b8ff" d="M1111.17,-397.1C1112.59,-356.31 1116.33,-247.99 1117.91,-202.35"/>
<polygon fill="#63b8ff" stroke="#63b8ff" points="1121.4,-202.65 1118.25,-192.54 1114.4,-202.41 1121.4,-202.65"/>
</a>
</g>
</g>
<!-- Node3 -->
<g id="Node000003" class="node">
<title>Node3</title>
<g id="a_Node000003"><a xlink:title=" ">
<polygon fill="#e0e0e0" stroke="#999999" points="1083.38,-77.5 1011.88,-77.5 1011.88,-56.75 1083.38,-56.75 1083.38,-77.5"/>
<text xml:space="preserve" text-anchor="middle" x="1047.62" y="-64" font-family="Helvetica,sans-Serif" font-size="10.00">FreeRTOS.h</text>
</a>
</g>
</g>
<!-- Node2&#45;&gt;Node3 -->
<g id="edge2_Node000002_Node000003" class="edge">
<title>Node2&#45;&gt;Node3</title>
<g id="a_edge2_Node000002_Node000003"><a xlink:title=" ">
<path fill="none" stroke="#63b8ff" d="M1194.62,-113.09C1165.57,-104.2 1122.49,-91.02 1090.47,-81.23"/>
<polygon fill="#63b8ff" stroke="#63b8ff" points="1091.68,-77.94 1081.1,-78.36 1089.64,-84.64 1091.68,-77.94"/>
</a>
</g>
</g>
<!-- Node4 -->
<g id="Node000004" class="node">
<title>Node4</title>
<g id="a_Node000004"><a xlink:title=" ">
<polygon fill="#e0e0e0" stroke="#999999" points="910.12,-20.75 825.12,-20.75 825.12,0 910.12,0 910.12,-20.75"/>
<text xml:space="preserve" text-anchor="middle" x="867.62" y="-7.25" font-family="Helvetica,sans-Serif" font-size="10.00">fsl_common.h</text>
</a>
</g>
</g>
<!-- Node2&#45;&gt;Node4 -->
<g id="edge3_Node000002_Node000004" class="edge">
<title>Node2&#45;&gt;Node4</title>
<g id="a_edge3_Node000002_Node000004"><a xlink:title=" ">
<path fill="none" stroke="#63b8ff" d="M1226,-113.46C1224.48,-98.82 1219.3,-70.81 1201.62,-56.75 1159.42,-23.17 1004.83,-14.42 921.58,-12.16"/>
<polygon fill="#63b8ff" stroke="#63b8ff" points="921.92,-8.66 911.84,-11.92 921.75,-15.66 921.92,-8.66"/>
</a>
</g>
</g>
<!-- Node6 -->
<g id="Node000006" class="node">
<title>Node6</title>
<g id="a_Node000006"><a xlink:href="motor__core_8h.html" target="_top" xlink:title=" ">
<polygon fill="white" stroke="#666666" points="577.88,-247.75 497.38,-247.75 497.38,-227 577.88,-227 577.88,-247.75"/>
<text xml:space="preserve" text-anchor="middle" x="537.62" y="-234.25" font-family="Helvetica,sans-Serif" font-size="10.00">motor_core.h</text>
</a>
</g>
</g>
<!-- Node5&#45;&gt;Node6 -->
<g id="edge5_Node000005_Node000006" class="edge">
<title>Node5&#45;&gt;Node6</title>
<g id="a_edge5_Node000005_Node000006"><a xlink:title=" ">
<path fill="none" stroke="#63b8ff" d="M728.44,-340.18C691.93,-320.69 609.45,-276.69 565.86,-253.44"/>
<polygon fill="#63b8ff" stroke="#63b8ff" points="567.72,-250.46 557.25,-248.84 564.42,-256.64 567.72,-250.46"/>
</a>
</g>
</g>
<!-- Node24 -->
<g id="Node000024" class="node">
<title>Node24</title>
<g id="a_Node000024"><a xlink:href="motor__internal_8h.html" target="_top" xlink:title=" ">
<polygon fill="white" stroke="#666666" points="795.12,-304.5 698.12,-304.5 698.12,-283.75 795.12,-283.75 795.12,-304.5"/>
<text xml:space="preserve" text-anchor="middle" x="746.62" y="-291" font-family="Helvetica,sans-Serif" font-size="10.00">motor_internal.h</text>
</a>
</g>
</g>
<!-- Node5&#45;&gt;Node24 -->
<g id="edge43_Node000005_Node000024" class="edge">
<title>Node5&#45;&gt;Node24</title>
<g id="a_edge43_Node000005_Node000024"><a xlink:title=" ">
<path fill="none" stroke="#63b8ff" d="M746.62,-340.09C746.62,-333.47 746.62,-324.47 746.62,-316.27"/>
<polygon fill="#63b8ff" stroke="#63b8ff" points="750.13,-316.34 746.63,-306.34 743.13,-316.34 750.13,-316.34"/>
</a>
</g>
</g>
<!-- Node7 -->
<g id="Node000007" class="node">
<title>Node7</title>
<g id="a_Node000007"><a xlink:href="pca9555a_8h.html" target="_top" xlink:title=" ">
<polygon fill="white" stroke="#666666" points="235.62,-77.5 81.62,-77.5 81.62,-56.75 235.62,-56.75 235.62,-77.5"/>
<text xml:space="preserve" text-anchor="middle" x="158.62" y="-64" font-family="Helvetica,sans-Serif" font-size="10.00">driver/pca9555a/pca9555a.h</text>
</a>
</g>
</g>
<!-- Node6&#45;&gt;Node7 -->
<g id="edge6_Node000006_Node000007" class="edge">
<title>Node6&#45;&gt;Node7</title>
<g id="a_edge6_Node000006_Node000007"><a xlink:title=" ">
<path fill="none" stroke="#63b8ff" d="M497.08,-237.18C423.18,-236.33 266.36,-223.37 181.62,-134.25 169.96,-121.99 164.18,-103.51 161.34,-89.2"/>
<polygon fill="#63b8ff" stroke="#63b8ff" points="164.81,-88.76 159.76,-79.45 157.9,-89.88 164.81,-88.76"/>
</a>
</g>
</g>
<!-- Node9 -->
<g id="Node000009" class="node">
<title>Node9</title>
<g id="a_Node000009"><a xlink:title=" ">
<polygon fill="#e0e0e0" stroke="#999999" points="510,-191 421.25,-191 421.25,-170.25 510,-170.25 510,-191"/>
<text xml:space="preserve" text-anchor="middle" x="465.62" y="-177.5" font-family="Helvetica,sans-Serif" font-size="10.00">MK22F51212.h</text>
</a>
</g>
</g>
<!-- Node6&#45;&gt;Node9 -->
<g id="edge9_Node000006_Node000009" class="edge">
<title>Node6&#45;&gt;Node9</title>
<g id="a_edge9_Node000006_Node000009"><a xlink:title=" ">
<path fill="none" stroke="#63b8ff" d="M524.75,-226.59C514.41,-218.72 499.66,-207.5 487.47,-198.24"/>
<polygon fill="#63b8ff" stroke="#63b8ff" points="489.67,-195.51 479.59,-192.24 485.43,-201.08 489.67,-195.51"/>
</a>
</g>
</g>
<!-- Node6&#45;&gt;Node10 -->
<g id="edge10_Node000006_Node000010" class="edge">
<title>Node6&#45;&gt;Node10</title>
<g id="a_edge10_Node000006_Node000010"><a xlink:title=" ">
<path fill="none" stroke="#63b8ff" d="M507.05,-226.59C479.42,-217.74 438.51,-204.64 407.96,-194.86"/>
<polygon fill="#63b8ff" stroke="#63b8ff" points="409.25,-191.6 398.66,-191.88 407.12,-198.26 409.25,-191.6"/>
</a>
</g>
</g>
<!-- Node12 -->
<g id="Node000012" class="node">
<title>Node12</title>
<g id="a_Node000012"><a xlink:title=" ">
<polygon fill="#e0e0e0" stroke="#999999" points="528,-77.5 469.25,-77.5 469.25,-56.75 528,-56.75 528,-77.5"/>
<text xml:space="preserve" text-anchor="middle" x="498.62" y="-64" font-family="Helvetica,sans-Serif" font-size="10.00">fsl_ftm.h</text>
</a>
</g>
</g>
<!-- Node6&#45;&gt;Node12 -->
<g id="edge40_Node000006_Node000012" class="edge">
<title>Node6&#45;&gt;Node12</title>
<g id="a_edge40_Node000006_Node000012"><a xlink:title=" ">
<path fill="none" stroke="#63b8ff" d="M535.42,-226.85C529.28,-200.37 511.91,-125.43 503.42,-88.8"/>
<polygon fill="#63b8ff" stroke="#63b8ff" points="506.92,-88.39 501.25,-79.44 500.1,-89.97 506.92,-88.39"/>
</a>
</g>
</g>
<!-- Node13 -->
<g id="Node000013" class="node">
<title>Node13</title>
<g id="a_Node000013"><a xlink:title=" ">
<polygon fill="#e0e0e0" stroke="#999999" points="63.25,-77.5 0,-77.5 0,-56.75 63.25,-56.75 63.25,-77.5"/>
<text xml:space="preserve" text-anchor="middle" x="31.62" y="-64" font-family="Helvetica,sans-Serif" font-size="10.00">fsl_gpio.h</text>
</a>
</g>
</g>
<!-- Node6&#45;&gt;Node13 -->
<g id="edge41_Node000006_Node000013" class="edge">
<title>Node6&#45;&gt;Node13</title>
<g id="a_edge41_Node000006_Node000013"><a xlink:title=" ">
<path fill="none" stroke="#63b8ff" d="M497.04,-235.78C436.38,-233.72 319.28,-225.2 226.62,-191 156.92,-165.27 85.75,-112.23 51.91,-85.03"/>
<polygon fill="#63b8ff" stroke="#63b8ff" points="54.15,-82.34 44.19,-78.73 49.73,-87.76 54.15,-82.34"/>
</a>
</g>
</g>
<!-- Node14 -->
<g id="Node000014" class="node">
<title>Node14</title>
<g id="a_Node000014"><a xlink:title=" ">
<polygon fill="#e0e0e0" stroke="#999999" points="607.5,-77.5 545.75,-77.5 545.75,-56.75 607.5,-56.75 607.5,-77.5"/>
<text xml:space="preserve" text-anchor="middle" x="576.62" y="-64" font-family="Helvetica,sans-Serif" font-size="10.00">fsl_port.h</text>
</a>
</g>
</g>
<!-- Node6&#45;&gt;Node14 -->
<g id="edge42_Node000006_Node000014" class="edge">
<title>Node6&#45;&gt;Node14</title>
<g id="a_edge42_Node000006_Node000014"><a xlink:title=" ">
<path fill="none" stroke="#63b8ff" d="M539.83,-226.85C545.97,-200.37 563.34,-125.43 571.83,-88.8"/>
<polygon fill="#63b8ff" stroke="#63b8ff" points="575.15,-89.97 574,-79.44 568.33,-88.39 575.15,-89.97"/>
</a>
</g>
</g>
<!-- Node6&#45;&gt;Node21 -->
<g id="edge32_Node000006_Node000021" class="edge">
<title>Node6&#45;&gt;Node21</title>
<g id="a_edge32_Node000006_Node000021"><a xlink:title=" ">
<path fill="none" stroke="#63b8ff" d="M578.21,-226.84C616.99,-217.73 675.64,-203.94 718,-193.99"/>
<polygon fill="#63b8ff" stroke="#63b8ff" points="718.53,-197.46 727.46,-191.77 716.93,-190.65 718.53,-197.46"/>
</a>
</g>
</g>
<!-- Node7&#45;&gt;Node4 -->
<g id="edge7_Node000007_Node000004" class="edge">
<title>Node7&#45;&gt;Node4</title>
<g id="a_edge7_Node000007_Node000004"><a xlink:title=" ">
<path fill="none" stroke="#63b8ff" d="M235.85,-60.16C380.46,-48.99 688.72,-25.19 813.51,-15.55"/>
<polygon fill="#63b8ff" stroke="#63b8ff" points="813.44,-19.07 823.14,-14.81 812.9,-12.09 813.44,-19.07"/>
</a>
</g>
</g>
<!-- Node8 -->
<g id="Node000008" class="node">
<title>Node8</title>
<g id="a_Node000008"><a xlink:title=" ">
<polygon fill="#e0e0e0" stroke="#999999" points="251.5,-20.75 171.75,-20.75 171.75,0 251.5,0 251.5,-20.75"/>
<text xml:space="preserve" text-anchor="middle" x="211.62" y="-7.25" font-family="Helvetica,sans-Serif" font-size="10.00">peripherals.h</text>
</a>
</g>
</g>
<!-- Node7&#45;&gt;Node8 -->
<g id="edge8_Node000007_Node000008" class="edge">
<title>Node7&#45;&gt;Node8</title>
<g id="a_edge8_Node000007_Node000008"><a xlink:title=" ">
<path fill="none" stroke="#63b8ff" d="M168.1,-56.34C175.41,-48.78 185.72,-38.14 194.47,-29.1"/>
<polygon fill="#63b8ff" stroke="#63b8ff" points="196.74,-31.79 201.18,-22.17 191.71,-26.92 196.74,-31.79"/>
</a>
</g>
</g>
<!-- Node10&#45;&gt;Node3 -->
<g id="edge12_Node000010_Node000003" class="edge">
<title>Node10&#45;&gt;Node3</title>
<g id="a_edge12_Node000010_Node000003"><a xlink:title=" ">
<path fill="none" stroke="#63b8ff" d="M403.22,-171.77C406.39,-171.21 409.56,-170.69 412.62,-170.25 598.06,-143.5 648.71,-169.99 832.62,-134.25 896.85,-121.77 969.09,-97.31 1011.35,-81.89"/>
<polygon fill="#63b8ff" stroke="#63b8ff" points="1012.34,-85.25 1020.51,-78.51 1009.92,-78.68 1012.34,-85.25"/>
</a>
</g>
</g>
<!-- Node10&#45;&gt;Node4 -->
<g id="edge14_Node000010_Node000004" class="edge">
<title>Node10&#45;&gt;Node4</title>
<g id="a_edge14_Node000010_Node000004"><a xlink:title=" ">
<path fill="none" stroke="#63b8ff" d="M393.46,-169.91C417.88,-160.97 454.86,-147.18 486.62,-134.25 545.02,-110.48 560.02,-105.25 616.62,-77.5 633.9,-69.03 636.58,-63.44 654.62,-56.75 707.02,-37.33 769.91,-25.21 813.71,-18.44"/>
<polygon fill="#63b8ff" stroke="#63b8ff" points="814.11,-21.92 823.48,-16.97 813.07,-14.99 814.11,-21.92"/>
</a>
</g>
</g>
<!-- Node10&#45;&gt;Node7 -->
<g id="edge11_Node000010_Node000007" class="edge">
<title>Node10&#45;&gt;Node7</title>
<g id="a_edge11_Node000010_Node000007"><a xlink:title=" ">
<path fill="none" stroke="#63b8ff" d="M330.02,-176.16C295.55,-171.39 243.79,-160.2 206.62,-134.25 189.76,-122.47 176.6,-102.81 168.35,-87.99"/>
<polygon fill="#63b8ff" stroke="#63b8ff" points="171.47,-86.38 163.73,-79.14 165.26,-89.63 171.47,-86.38"/>
</a>
</g>
</g>
<!-- Node11 -->
<g id="Node000011" class="node">
<title>Node11</title>
<g id="a_Node000011"><a xlink:title=" ">
<polygon fill="#e0e0e0" stroke="#999999" points="261.62,-134.25 215.62,-134.25 215.62,-113.5 261.62,-113.5 261.62,-134.25"/>
<text xml:space="preserve" text-anchor="middle" x="238.62" y="-120.75" font-family="Helvetica,sans-Serif" font-size="10.00">task.h</text>
</a>
</g>
</g>
<!-- Node10&#45;&gt;Node11 -->
<g id="edge13_Node000010_Node000011" class="edge">
<title>Node10&#45;&gt;Node11</title>
<g id="a_edge13_Node000010_Node000011"><a xlink:title=" ">
<path fill="none" stroke="#63b8ff" d="M343.74,-169.84C323.72,-161.27 294.39,-148.73 271.79,-139.06"/>
<polygon fill="#63b8ff" stroke="#63b8ff" points="273.27,-135.89 262.7,-135.17 270.52,-142.32 273.27,-135.89"/>
</a>
</g>
</g>
<!-- Node10&#45;&gt;Node12 -->
<g id="edge15_Node000010_Node000012" class="edge">
<title>Node10&#45;&gt;Node12</title>
<g id="a_edge15_Node000010_Node000012"><a xlink:title=" ">
<path fill="none" stroke="#63b8ff" d="M380.79,-170.02C393.61,-161.14 412.84,-147.39 428.62,-134.25 447.17,-118.81 467.06,-99.75 480.88,-86.07"/>
<polygon fill="#63b8ff" stroke="#63b8ff" points="483.34,-88.56 487.94,-79.02 478.4,-83.61 483.34,-88.56"/>
</a>
</g>
</g>
<!-- Node10&#45;&gt;Node13 -->
<g id="edge16_Node000010_Node000013" class="edge">
<title>Node10&#45;&gt;Node13</title>
<g id="a_edge16_Node000010_Node000013"><a xlink:title=" ">
<path fill="none" stroke="#63b8ff" d="M330.28,-172.67C292.58,-165.01 232.19,-151.45 181.62,-134.25 138.43,-119.56 90.51,-97.34 60.72,-82.78"/>
<polygon fill="#63b8ff" stroke="#63b8ff" points="62.49,-79.74 51.97,-78.46 59.39,-86.02 62.49,-79.74"/>
</a>
</g>
</g>
<!-- Node10&#45;&gt;Node14 -->
<g id="edge17_Node000010_Node000014" class="edge">
<title>Node10&#45;&gt;Node14</title>
<g id="a_edge17_Node000010_Node000014"><a xlink:title=" ">
<path fill="none" stroke="#63b8ff" d="M385.67,-169.78C403.32,-160.63 430.29,-146.61 453.62,-134.25 486.43,-116.88 524,-96.63 548.89,-83.16"/>
<polygon fill="#63b8ff" stroke="#63b8ff" points="550.28,-86.39 557.41,-78.55 546.95,-80.24 550.28,-86.39"/>
</a>
</g>
</g>
<!-- Node15 -->
<g id="Node000015" class="node">
<title>Node15</title>
<g id="a_Node000015"><a xlink:href="cmd__handle_8h.html" target="_top" xlink:title=" ">
<polygon fill="white" stroke="#666666" points="1039.75,-134.25 955.5,-134.25 955.5,-113.5 1039.75,-113.5 1039.75,-134.25"/>
<text xml:space="preserve" text-anchor="middle" x="997.62" y="-120.75" font-family="Helvetica,sans-Serif" font-size="10.00">cmd_handle.h</text>
</a>
</g>
</g>
<!-- Node10&#45;&gt;Node15 -->
<g id="edge18_Node000010_Node000015" class="edge">
<title>Node10&#45;&gt;Node15</title>
<g id="a_edge18_Node000010_Node000015"><a xlink:title=" ">
<path fill="none" stroke="#63b8ff" d="M403.21,-171.73C406.39,-171.18 409.56,-170.67 412.62,-170.25 629.38,-140.34 685.63,-153.11 903.62,-134.25 916.64,-133.12 930.66,-131.79 943.8,-130.49"/>
<polygon fill="#63b8ff" stroke="#63b8ff" points="943.96,-133.99 953.56,-129.51 943.26,-127.02 943.96,-133.99"/>
</a>
</g>
</g>
<!-- Node19 -->
<g id="Node000019" class="node">
<title>Node19</title>
<g id="a_Node000019"><a xlink:href="step__shared_8h.html" target="_top" xlink:title=" ">
<polygon fill="white" stroke="#666666" points="419.75,-134.25 335.5,-134.25 335.5,-113.5 419.75,-113.5 419.75,-134.25"/>
<text xml:space="preserve" text-anchor="middle" x="377.62" y="-120.75" font-family="Helvetica,sans-Serif" font-size="10.00">step_shared.h</text>
</a>
</g>
</g>
<!-- Node10&#45;&gt;Node19 -->
<g id="edge24_Node000010_Node000019" class="edge">
<title>Node10&#45;&gt;Node19</title>
<g id="a_edge24_Node000010_Node000019"><a xlink:title=" ">
<path fill="none" stroke="#63b8ff" d="M368.59,-169.84C369.94,-163.14 371.77,-154.01 373.44,-145.73"/>
<polygon fill="#63b8ff" stroke="#63b8ff" points="376.84,-146.56 375.38,-136.06 369.98,-145.18 376.84,-146.56"/>
</a>
</g>
</g>
<!-- Node15&#45;&gt;Node3 -->
<g id="edge20_Node000015_Node000003" class="edge">
<title>Node15&#45;&gt;Node3</title>
<g id="a_edge20_Node000015_Node000003"><a xlink:title=" ">
<path fill="none" stroke="#63b8ff" d="M1006.56,-113.09C1013.39,-105.61 1022.99,-95.11 1031.18,-86.13"/>
<polygon fill="#63b8ff" stroke="#63b8ff" points="1033.58,-88.69 1037.74,-78.95 1028.41,-83.97 1033.58,-88.69"/>
</a>
</g>
</g>
<!-- Node15&#45;&gt;Node4 -->
<g id="edge22_Node000015_Node000004" class="edge">
<title>Node15&#45;&gt;Node4</title>
<g id="a_edge22_Node000015_Node000004"><a xlink:title=" ">
<path fill="none" stroke="#63b8ff" d="M995,-113.11C990.76,-99.01 981.16,-72.87 964.62,-56.75 950.12,-42.6 930.38,-32.28 912.49,-25.08"/>
<polygon fill="#63b8ff" stroke="#63b8ff" points="913.96,-21.89 903.36,-21.64 911.48,-28.44 913.96,-21.89"/>
</a>
</g>
</g>
<!-- Node16 -->
<g id="Node000016" class="node">
<title>Node16</title>
<g id="a_Node000016"><a xlink:title=" ">
<polygon fill="#e0e0e0" stroke="#999999" points="716,-77.5 663.25,-77.5 663.25,-56.75 716,-56.75 716,-77.5"/>
<text xml:space="preserve" text-anchor="middle" x="689.62" y="-64" font-family="Helvetica,sans-Serif" font-size="10.00">stdint.h</text>
</a>
</g>
</g>
<!-- Node15&#45;&gt;Node16 -->
<g id="edge19_Node000015_Node000016" class="edge">
<title>Node15&#45;&gt;Node16</title>
<g id="a_edge19_Node000015_Node000016"><a xlink:title=" ">
<path fill="none" stroke="#63b8ff" d="M955.13,-115.75C950.57,-114.99 946,-114.23 941.62,-113.5 848.77,-98.03 822.13,-98.14 727.56,-77.98"/>
<polygon fill="#63b8ff" stroke="#63b8ff" points="728.31,-74.56 717.79,-75.88 726.83,-81.41 728.31,-74.56"/>
</a>
</g>
</g>
<!-- Node17 -->
<g id="Node000017" class="node">
<title>Node17</title>
<g id="a_Node000017"><a xlink:title=" ">
<polygon fill="#e0e0e0" stroke="#999999" points="1192.12,-77.5 1101.12,-77.5 1101.12,-56.75 1192.12,-56.75 1192.12,-77.5"/>
<text xml:space="preserve" text-anchor="middle" x="1146.62" y="-64" font-family="Helvetica,sans-Serif" font-size="10.00">event_groups.h</text>
</a>
</g>
</g>
<!-- Node15&#45;&gt;Node17 -->
<g id="edge21_Node000015_Node000017" class="edge">
<title>Node15&#45;&gt;Node17</title>
<g id="a_edge21_Node000015_Node000017"><a xlink:title=" ">
<path fill="none" stroke="#63b8ff" d="M1024.26,-113.09C1047.92,-104.39 1082.74,-91.6 1109.2,-81.88"/>
<polygon fill="#63b8ff" stroke="#63b8ff" points="1110.37,-85.18 1118.55,-78.44 1107.95,-78.61 1110.37,-85.18"/>
</a>
</g>
</g>
<!-- Node18 -->
<g id="Node000018" class="node">
<title>Node18</title>
<g id="a_Node000018"><a xlink:title=" ">
<polygon fill="#e0e0e0" stroke="#999999" points="955.62,-77.5 903.62,-77.5 903.62,-56.75 955.62,-56.75 955.62,-77.5"/>
<text xml:space="preserve" text-anchor="middle" x="929.62" y="-64" font-family="Helvetica,sans-Serif" font-size="10.00">stdlib.h</text>
</a>
</g>
</g>
<!-- Node15&#45;&gt;Node18 -->
<g id="edge23_Node000015_Node000018" class="edge">
<title>Node15&#45;&gt;Node18</title>
<g id="a_edge23_Node000015_Node000018"><a xlink:title=" ">
<path fill="none" stroke="#63b8ff" d="M985.47,-113.09C975.8,-105.3 962.04,-94.22 950.6,-85.01"/>
<polygon fill="#63b8ff" stroke="#63b8ff" points="952.84,-82.32 942.86,-78.78 948.45,-87.78 952.84,-82.32"/>
</a>
</g>
</g>
<!-- Node19&#45;&gt;Node4 -->
<g id="edge28_Node000019_Node000004" class="edge">
<title>Node19&#45;&gt;Node4</title>
<g id="a_edge28_Node000019_Node000004"><a xlink:title=" ">
<path fill="none" stroke="#63b8ff" d="M386.19,-113.2C400.12,-98.19 429.3,-69.7 460.62,-56.75 523.15,-30.91 717.64,-18.41 813.34,-13.7"/>
<polygon fill="#63b8ff" stroke="#63b8ff" points="813.45,-17.2 823.27,-13.22 813.11,-10.21 813.45,-17.2"/>
</a>
</g>
</g>
<!-- Node19&#45;&gt;Node7 -->
<g id="edge26_Node000019_Node000007" class="edge">
<title>Node19&#45;&gt;Node7</title>
<g id="a_edge26_Node000019_Node000007"><a xlink:title=" ">
<path fill="none" stroke="#63b8ff" d="M338.22,-113.02C302.05,-103.98 248.28,-90.54 209,-80.72"/>
<polygon fill="#63b8ff" stroke="#63b8ff" points="210.1,-77.39 199.55,-78.36 208.4,-84.18 210.1,-77.39"/>
</a>
</g>
</g>
<!-- Node19&#45;&gt;Node12 -->
<g id="edge29_Node000019_Node000012" class="edge">
<title>Node19&#45;&gt;Node12</title>
<g id="a_edge29_Node000019_Node000012"><a xlink:title=" ">
<path fill="none" stroke="#63b8ff" d="M399.26,-113.09C418.1,-104.56 445.66,-92.09 466.98,-82.44"/>
<polygon fill="#63b8ff" stroke="#63b8ff" points="468.13,-85.76 475.8,-78.45 465.25,-79.39 468.13,-85.76"/>
</a>
</g>
</g>
<!-- Node19&#45;&gt;Node13 -->
<g id="edge30_Node000019_Node000013" class="edge">
<title>Node19&#45;&gt;Node13</title>
<g id="a_edge30_Node000019_Node000013"><a xlink:title=" ">
<path fill="none" stroke="#63b8ff" d="M335.02,-117.59C278.03,-110.29 173.64,-96.12 74.48,-77.72"/>
<polygon fill="#63b8ff" stroke="#63b8ff" points="75.32,-74.32 64.85,-75.91 74.03,-81.2 75.32,-74.32"/>
</a>
</g>
</g>
<!-- Node19&#45;&gt;Node14 -->
<g id="edge31_Node000019_Node000014" class="edge">
<title>Node19&#45;&gt;Node14</title>
<g id="a_edge31_Node000019_Node000014"><a xlink:title=" ">
<path fill="none" stroke="#63b8ff" d="M413.2,-113.09C447.24,-103.72 498.6,-89.59 534.63,-79.68"/>
<polygon fill="#63b8ff" stroke="#63b8ff" points="535.11,-83.18 543.83,-77.15 533.26,-76.43 535.11,-83.18"/>
</a>
</g>
</g>
<!-- Node19&#45;&gt;Node16 -->
<g id="edge25_Node000019_Node000016" class="edge">
<title>Node19&#45;&gt;Node16</title>
<g id="a_edge25_Node000019_Node000016"><a xlink:title=" ">
<path fill="none" stroke="#63b8ff" d="M420.03,-115.43C481.13,-104.71 593.02,-85.08 651.59,-74.8"/>
<polygon fill="#63b8ff" stroke="#63b8ff" points="652.17,-78.25 661.41,-73.08 650.96,-71.36 652.17,-78.25"/>
</a>
</g>
</g>
<!-- Node20 -->
<g id="Node000020" class="node">
<title>Node20</title>
<g id="a_Node000020"><a xlink:title=" ">
<polygon fill="#e0e0e0" stroke="#999999" points="413.88,-77.5 291.38,-77.5 291.38,-56.75 413.88,-56.75 413.88,-77.5"/>
<text xml:space="preserve" text-anchor="middle" x="352.62" y="-64" font-family="Helvetica,sans-Serif" font-size="10.00">fsl_device_registers.h</text>
</a>
</g>
</g>
<!-- Node19&#45;&gt;Node20 -->
<g id="edge27_Node000019_Node000020" class="edge">
<title>Node19&#45;&gt;Node20</title>
<g id="a_edge27_Node000019_Node000020"><a xlink:title=" ">
<path fill="none" stroke="#63b8ff" d="M373.16,-113.09C369.99,-106.16 365.64,-96.62 361.75,-88.11"/>
<polygon fill="#63b8ff" stroke="#63b8ff" points="365.02,-86.85 357.68,-79.21 358.65,-89.76 365.02,-86.85"/>
</a>
</g>
</g>
<!-- Node21&#45;&gt;Node4 -->
<g id="edge37_Node000021_Node000004" class="edge">
<title>Node21&#45;&gt;Node4</title>
<g id="a_edge37_Node000021_Node000004"><a xlink:title=" ">
<path fill="none" stroke="#63b8ff" d="M790.12,-169.89C803.91,-162.05 821.8,-149.79 832.62,-134.25 854.41,-102.96 862.72,-58.3 865.83,-32.33"/>
<polygon fill="#63b8ff" stroke="#63b8ff" points="869.27,-33.03 866.82,-22.72 862.31,-32.31 869.27,-33.03"/>
</a>
</g>
</g>
<!-- Node21&#45;&gt;Node8 -->
<g id="edge39_Node000021_Node000008" class="edge">
<title>Node21&#45;&gt;Node8</title>
<g id="a_edge39_Node000021_Node000008"><a xlink:title=" ">
<path fill="none" stroke="#63b8ff" d="M723.16,-178.94C623.37,-176.83 395.36,-168.32 326.62,-134.25 301.94,-122.01 251.21,-61.12 226.21,-29.9"/>
<polygon fill="#63b8ff" stroke="#63b8ff" points="228.97,-27.74 220.01,-22.09 223.49,-32.1 228.97,-27.74"/>
</a>
</g>
</g>
<!-- Node21&#45;&gt;Node15 -->
<g id="edge38_Node000021_Node000015" class="edge">
<title>Node21&#45;&gt;Node15</title>
<g id="a_edge38_Node000021_Node000015"><a xlink:title=" ">
<path fill="none" stroke="#63b8ff" d="M811.47,-169.77C849.04,-160.71 904.93,-147.23 945.67,-137.41"/>
<polygon fill="#63b8ff" stroke="#63b8ff" points="946.35,-140.84 955.25,-135.09 944.71,-134.04 946.35,-140.84"/>
</a>
</g>
</g>
<!-- Node21&#45;&gt;Node16 -->
<g id="edge33_Node000021_Node000016" class="edge">
<title>Node21&#45;&gt;Node16</title>
<g id="a_edge33_Node000021_Node000016"><a xlink:title=" ">
<path fill="none" stroke="#63b8ff" d="M751.14,-169.88C737.36,-162.04 719.47,-149.78 708.62,-134.25 699.31,-120.9 694.53,-103.03 692.09,-89.23"/>
<polygon fill="#63b8ff" stroke="#63b8ff" points="695.57,-88.84 690.67,-79.44 688.64,-89.84 695.57,-88.84"/>
</a>
</g>
</g>
<!-- Node22 -->
<g id="Node000022" class="node">
<title>Node22</title>
<g id="a_Node000022"><a xlink:href="tmc2209__shared_8h.html" target="_top" xlink:title=" ">
<polygon fill="white" stroke="#666666" points="823.62,-134.25 717.62,-134.25 717.62,-113.5 823.62,-113.5 823.62,-134.25"/>
<text xml:space="preserve" text-anchor="middle" x="770.62" y="-120.75" font-family="Helvetica,sans-Serif" font-size="10.00">tmc2209_shared.h</text>
</a>
</g>
</g>
<!-- Node21&#45;&gt;Node22 -->
<g id="edge34_Node000021_Node000022" class="edge">
<title>Node21&#45;&gt;Node22</title>
<g id="a_edge34_Node000021_Node000022"><a xlink:title=" ">
<path fill="none" stroke="#63b8ff" d="M770.62,-169.84C770.62,-163.22 770.62,-154.22 770.62,-146.02"/>
<polygon fill="#63b8ff" stroke="#63b8ff" points="774.13,-146.09 770.63,-136.09 767.13,-146.09 774.13,-146.09"/>
</a>
</g>
</g>
<!-- Node22&#45;&gt;Node16 -->
<g id="edge35_Node000022_Node000016" class="edge">
<title>Node22&#45;&gt;Node16</title>
<g id="a_edge35_Node000022_Node000016"><a xlink:title=" ">
<path fill="none" stroke="#63b8ff" d="M756.14,-113.09C744.28,-105.07 727.25,-93.56 713.39,-84.19"/>
<polygon fill="#63b8ff" stroke="#63b8ff" points="715.48,-81.38 705.23,-78.68 711.56,-87.18 715.48,-81.38"/>
</a>
</g>
</g>
<!-- Node23 -->
<g id="Node000023" class="node">
<title>Node23</title>
<g id="a_Node000023"><a xlink:title=" ">
<polygon fill="#e0e0e0" stroke="#999999" points="839.25,-77.5 734,-77.5 734,-56.75 839.25,-56.75 839.25,-77.5"/>
<text xml:space="preserve" text-anchor="middle" x="786.62" y="-64" font-family="Helvetica,sans-Serif" font-size="10.00">fsl_uart_freertos.h</text>
</a>
</g>
</g>
<!-- Node22&#45;&gt;Node23 -->
<g id="edge36_Node000022_Node000023" class="edge">
<title>Node22&#45;&gt;Node23</title>
<g id="a_edge36_Node000022_Node000023"><a xlink:title=" ">
<path fill="none" stroke="#63b8ff" d="M773.49,-113.09C775.46,-106.31 778.17,-97.05 780.62,-88.69"/>
<polygon fill="#63b8ff" stroke="#63b8ff" points="783.92,-89.86 783.36,-79.28 777.2,-87.9 783.92,-89.86"/>
</a>
</g>
</g>
<!-- Node24&#45;&gt;Node3 -->
<g id="edge47_Node000024_Node000003" class="edge">
<title>Node24&#45;&gt;Node3</title>
<g id="a_edge47_Node000024_Node000003"><a xlink:title=" ">
<path fill="none" stroke="#63b8ff" d="M795.46,-284.16C866.4,-268.17 995.28,-227.27 1048.62,-134.25 1056.41,-120.68 1055.62,-102.82 1053.18,-89.08"/>
<polygon fill="#63b8ff" stroke="#63b8ff" points="1056.6,-88.34 1051.01,-79.34 1049.77,-89.86 1056.6,-88.34"/>
</a>
</g>
</g>
<!-- Node24&#45;&gt;Node6 -->
<g id="edge46_Node000024_Node000006" class="edge">
<title>Node24&#45;&gt;Node6</title>
<g id="a_edge46_Node000024_Node000006"><a xlink:title=" ">
<path fill="none" stroke="#63b8ff" d="M709.26,-283.34C674.74,-274.29 623.28,-260.81 585.71,-250.97"/>
<polygon fill="#63b8ff" stroke="#63b8ff" points="587.04,-247.7 576.48,-248.55 585.27,-254.47 587.04,-247.7"/>
</a>
</g>
</g>
<!-- Node24&#45;&gt;Node15 -->
<g id="edge49_Node000024_Node000015" class="edge">
<title>Node24&#45;&gt;Node15</title>
<g id="a_edge49_Node000024_Node000015"><a xlink:title=" ">
<path fill="none" stroke="#63b8ff" d="M764.56,-283.3C780.55,-274.4 804.47,-260.73 824.62,-247.75 880.48,-211.77 943.49,-165.51 975.86,-141.3"/>
<polygon fill="#63b8ff" stroke="#63b8ff" points="977.77,-144.24 983.67,-135.44 973.57,-138.64 977.77,-144.24"/>
</a>
</g>
</g>
<!-- Node24&#45;&gt;Node16 -->
<g id="edge44_Node000024_Node000016" class="edge">
<title>Node24&#45;&gt;Node16</title>
<g id="a_edge44_Node000024_Node000016"><a xlink:title=" ">
<path fill="none" stroke="#63b8ff" d="M717.45,-283.39C701.13,-276.28 682.2,-264.84 672.62,-247.75 643.75,-196.18 666.67,-123.06 680.73,-88.16"/>
<polygon fill="#63b8ff" stroke="#63b8ff" points="683.81,-89.85 684.47,-79.27 677.36,-87.13 683.81,-89.85"/>
</a>
</g>
</g>
<!-- Node25 -->
<g id="Node000025" class="node">
<title>Node25</title>
<g id="a_Node000025"><a xlink:title=" ">
<polygon fill="#e0e0e0" stroke="#999999" points="815.12,-247.75 754.12,-247.75 754.12,-227 815.12,-227 815.12,-247.75"/>
<text xml:space="preserve" text-anchor="middle" x="784.62" y="-234.25" font-family="Helvetica,sans-Serif" font-size="10.00">stdbool.h</text>
</a>
</g>
</g>
<!-- Node24&#45;&gt;Node25 -->
<g id="edge45_Node000024_Node000025" class="edge">
<title>Node24&#45;&gt;Node25</title>
<g id="a_edge45_Node000024_Node000025"><a xlink:title=" ">
<path fill="none" stroke="#63b8ff" d="M753.42,-283.34C758.39,-276.17 765.29,-266.23 771.35,-257.51"/>
<polygon fill="#63b8ff" stroke="#63b8ff" points="774.2,-259.53 777.03,-249.32 768.45,-255.54 774.2,-259.53"/>
</a>
</g>
</g>
<!-- Node26 -->
<g id="Node000026" class="node">
<title>Node26</title>
<g id="a_Node000026"><a xlink:title=" ">
<polygon fill="#e0e0e0" stroke="#999999" points="736.12,-247.75 681.12,-247.75 681.12,-227 736.12,-227 736.12,-247.75"/>
<text xml:space="preserve" text-anchor="middle" x="708.62" y="-234.25" font-family="Helvetica,sans-Serif" font-size="10.00">queue.h</text>
</a>
</g>
</g>
<!-- Node24&#45;&gt;Node26 -->
<g id="edge48_Node000024_Node000026" class="edge">
<title>Node24&#45;&gt;Node26</title>
<g id="a_edge48_Node000024_Node000026"><a xlink:title=" ">
<path fill="none" stroke="#63b8ff" d="M739.83,-283.34C734.86,-276.17 727.96,-266.23 721.9,-257.51"/>
<polygon fill="#63b8ff" stroke="#63b8ff" points="724.8,-255.54 716.22,-249.32 719.05,-259.53 724.8,-255.54"/>
</a>
</g>
</g>
<!-- Node28&#45;&gt;Node3 -->
<g id="edge55_Node000028_Node000003" class="edge">
<title>Node28&#45;&gt;Node3</title>
<g id="a_edge55_Node000028_Node000003"><a xlink:title=" ">
<path fill="none" stroke="#63b8ff" d="M1113.74,-169.97C1107,-156.89 1094.25,-132.91 1081.62,-113.5 1075.75,-104.47 1068.68,-94.86 1062.51,-86.82"/>
<polygon fill="#63b8ff" stroke="#63b8ff" points="1065.42,-84.86 1056.51,-79.14 1059.91,-89.17 1065.42,-84.86"/>
</a>
</g>
</g>
<!-- Node28&#45;&gt;Node4 -->
<g id="edge57_Node000028_Node000004" class="edge">
<title>Node28&#45;&gt;Node4</title>
<g id="a_edge57_Node000028_Node000004"><a xlink:title=" ">
<path fill="none" stroke="#63b8ff" d="M1155.83,-179.59C1213.62,-177.88 1315.84,-167.4 1290.62,-113.5 1273.94,-77.85 1258.71,-72.49 1222.62,-56.75 1169.88,-33.74 1007.6,-20.27 921.91,-14.59"/>
<polygon fill="#63b8ff" stroke="#63b8ff" points="922.32,-11.1 912.11,-13.95 921.86,-18.09 922.32,-11.1"/>
</a>
</g>
</g>
<!-- Node28&#45;&gt;Node15 -->
<g id="edge58_Node000028_Node000015" class="edge">
<title>Node28&#45;&gt;Node15</title>
<g id="a_edge58_Node000028_Node000015"><a xlink:title=" ">
<path fill="none" stroke="#63b8ff" d="M1096.99,-169.84C1078.15,-161.31 1050.59,-148.84 1029.27,-139.19"/>
<polygon fill="#63b8ff" stroke="#63b8ff" points="1031,-136.14 1020.45,-135.2 1028.12,-142.51 1031,-136.14"/>
</a>
</g>
</g>
<!-- Node28&#45;&gt;Node16 -->
<g id="edge54_Node000028_Node000016" class="edge">
<title>Node28&#45;&gt;Node16</title>
<g id="a_edge54_Node000028_Node000016"><a xlink:title=" ">
<path fill="none" stroke="#63b8ff" d="M1081.39,-170.08C1013.29,-152.6 863.8,-114.13 727.42,-78.22"/>
<polygon fill="#63b8ff" stroke="#63b8ff" points="728.4,-74.86 717.84,-75.7 726.61,-81.63 728.4,-74.86"/>
</a>
</g>
</g>
<!-- Node28&#45;&gt;Node17 -->
<g id="edge56_Node000028_Node000017" class="edge">
<title>Node28&#45;&gt;Node17</title>
<g id="a_edge56_Node000028_Node000017"><a xlink:title=" ">
<path fill="none" stroke="#63b8ff" d="M1121.01,-170.12C1125.49,-152.27 1135.27,-113.36 1141.36,-89.09"/>
<polygon fill="#63b8ff" stroke="#63b8ff" points="1144.75,-89.94 1143.8,-79.39 1137.97,-88.24 1144.75,-89.94"/>
</a>
</g>
</g>
</g>
</svg>

<g id="navigator" transform="translate(0 0)" fill="#404254">
  <rect fill="#f2f5e9" fill-opacity="0.5" stroke="#606060" stroke-width=".5" x="0" y="0" width="60" height="60"/>
  <use id="zoomplus" xlink:href="#zoomPlus" x="17" y="9" onmousedown="handleZoom(evt,'in')"/>
  <use id="zoomminus" xlink:href="#zoomMin" x="42" y="9" onmousedown="handleZoom(evt,'out')"/>
  <use id="reset" xlink:href="#resetDef" x="30" y="36" onmousedown="handleReset()"/>
   <use id="arrowup" xlink:href="#arrowUp" x="0" y="0" onmousedown="handlePan(0,-1)"/>
  <use id="arrowright" xlink:href="#arrowRight" x="0" y="0" onmousedown="handlePan(1,0)"/>
  <use id="arrowdown" xlink:href="#arrowDown" x="0" y="0" onmousedown="handlePan(0,1)"/>
  <use id="arrowleft" xlink:href="#arrowLeft" x="0" y="0" onmousedown="handlePan(-1,0)"/>
</g>
<svg viewBox="0 0 15 15" width="100%" height="30px" preserveAspectRatio="xMaxYMin meet">
 <g id="arrow_out" transform="scale(0.3 0.3)">
  <a xlink:href="motor__init_8c__incl_org.svg" target="_base">
   <rect id="button" ry="5" rx="5" y="6" x="6" height="38" width="38"
        fill="#f2f5e9" fill-opacity="0.5" stroke="#606060" stroke-width="1.0"/>
   <path id="arrow"
     d="M 11.500037,31.436501 C 11.940474,20.09759 22.043105,11.32322 32.158766,21.979434 L 37.068811,17.246167 C 37.068811,17.246167 37.088388,32 37.088388,32 L 22.160133,31.978069 C 22.160133,31.978069 26.997745,27.140456 26.997745,27.140456 C 18.528582,18.264221 13.291696,25.230495 11.500037,31.436501 z"
     style="fill:#404040;"/>
  </a>
 </g>
</svg>

<style type='text/css'>
<![CDATA[
[data-mouse-over-selected='false'] { opacity: 0.7; }
[data-mouse-over-selected='true']  { opacity: 1.0; }
]]>
</style>
<script type="application/ecmascript"><![CDATA[
document.addEventListener('DOMContentLoaded', (event) => {
  highlightEdges();
  highlightAdjacentNodes();
});
]]></script>
</svg>
