<?xml version="1.0" encoding="UTF-8" standalone="no"?>
<!DOCTYPE svg PUBLIC "-//W3C//DTD SVG 1.1//EN"
 "http://www.w3.org/Graphics/SVG/1.1/DTD/svg11.dtd">
<!-- Generated by graphviz version 14.1.5 (0)
 -->
<!-- Title: source/motor_homing.h Pages: 1 -->
<svg width="562pt" height="86pt"
 viewBox="0.00 0.00 562.00 86.00" xmlns="http://www.w3.org/2000/svg" xmlns:xlink="http://www.w3.org/1999/xlink">
<g id="graph0" class="graph" transform="scale(1 1) rotate(0) translate(4 81.5)">
<title>source/motor_homing.h</title>
<!-- Node1 -->
<g id="Node000001" class="node">
<title>Node1</title>
<g id="a_Node000001"><a xlink:title=" ">
<polygon fill="#999999" stroke="#666666" points="330.38,-77.5 198.88,-77.5 198.88,-56.75 330.38,-56.75 330.38,-77.5"/>
<text xml:space="preserve" text-anchor="middle" x="264.62" y="-64" font-family="Helvetica,sans-Serif" font-size="10.00">source/motor_homing.h</text>
</a>
</g>
</g>
<!-- Node2 -->
<g id="Node000002" class="node">
<title>Node2</title>
<g id="a_Node000002"><a xlink:href="motorCmd_8c.html" target="_top" xlink:title=" ">
<polygon fill="white" stroke="#666666" points="111.25,-20.75 0,-20.75 0,0 111.25,0 111.25,-20.75"/>
<text xml:space="preserve" text-anchor="middle" x="55.62" y="-7.25" font-family="Helvetica,sans-Serif" font-size="10.00">source/motorCmd.c</text>
</a>
</g>
</g>
<!-- Node1&#45;&gt;Node2 -->
<g id="edge1_Node000001_Node000002" class="edge">
<title>Node1&#45;&gt;Node2</title>
<g id="a_edge1_Node000001_Node000002"><a xlink:title=" ">
<path fill="none" stroke="#63b8ff" d="M216.57,-53.54C179.01,-43.7 127.54,-30.22 93.02,-21.17"/>
<polygon fill="#63b8ff" stroke="#63b8ff" points="215.24,-56.8 225.8,-55.95 217.01,-50.03 215.24,-56.8"/>
</a>
</g>
</g>
<!-- Node3 -->
<g id="Node000003" class="node">
<title>Node3</title>
<g id="a_Node000003"><a xlink:href="motor__homing_8c.html" target="_top" xlink:title=" ">
<polygon fill="white" stroke="#666666" points="260,-20.75 129.25,-20.75 129.25,0 260,0 260,-20.75"/>
<text xml:space="preserve" text-anchor="middle" x="194.62" y="-7.25" font-family="Helvetica,sans-Serif" font-size="10.00">source/motor_homing.c</text>
</a>
</g>
</g>
<!-- Node1&#45;&gt;Node3 -->
<g id="edge2_Node000001_Node000003" class="edge">
<title>Node1&#45;&gt;Node3</title>
<g id="a_edge2_Node000001_Node000003"><a xlink:title=" ">
<path fill="none" stroke="#63b8ff" d="M243.26,-49.41C231.39,-40.13 217.05,-28.92 207.03,-21.08"/>
<polygon fill="#63b8ff" stroke="#63b8ff" points="240.89,-52 250.92,-55.4 245.2,-46.49 240.89,-52"/>
</a>
</g>
</g>
<!-- Node4 -->
<g id="Node000004" class="node">
<title>Node4</title>
<g id="a_Node000004"><a xlink:href="motor__test_8c.html" target="_top" xlink:title=" ">
<polygon fill="white" stroke="#666666" points="391,-20.75 278.25,-20.75 278.25,0 391,0 391,-20.75"/>
<text xml:space="preserve" text-anchor="middle" x="334.62" y="-7.25" font-family="Helvetica,sans-Serif" font-size="10.00">source/motor_test.c</text>
</a>
</g>
</g>
<!-- Node1&#45;&gt;Node4 -->
<g id="edge3_Node000001_Node000004" class="edge">
<title>Node1&#45;&gt;Node4</title>
<g id="a_edge3_Node000001_Node000004"><a xlink:title=" ">
<path fill="none" stroke="#63b8ff" d="M285.99,-49.41C297.86,-40.13 312.2,-28.92 322.22,-21.08"/>
<polygon fill="#63b8ff" stroke="#63b8ff" points="284.05,-46.49 278.33,-55.4 288.36,-52 284.05,-46.49"/>
</a>
</g>
</g>
<!-- Node5 -->
<g id="Node000005" class="node">
<title>Node5</title>
<g id="a_Node000005"><a xlink:href="scara__kinematics_8c.html" target="_top" xlink:title=" ">
<polygon fill="white" stroke="#666666" points="554.12,-20.75 409.12,-20.75 409.12,0 554.12,0 554.12,-20.75"/>
<text xml:space="preserve" text-anchor="middle" x="481.62" y="-7.25" font-family="Helvetica,sans-Serif" font-size="10.00">source/scara_kinematics.c</text>
</a>
</g>
</g>
<!-- Node1&#45;&gt;Node5 -->
<g id="edge4_Node000001_Node000005" class="edge">
<title>Node1&#45;&gt;Node5</title>
<g id="a_edge4_Node000001_Node000005"><a xlink:title=" ">
<path fill="none" stroke="#63b8ff" d="M314.74,-53.48C353.62,-43.67 406.75,-30.27 442.53,-21.24"/>
<polygon fill="#63b8ff" stroke="#63b8ff" points="313.98,-50.06 305.14,-55.9 315.69,-56.85 313.98,-50.06"/>
</a>
</g>
</g>
</g>
</svg>
