<?xml version="1.0" encoding="UTF-8" standalone="no"?>
<!DOCTYPE svg PUBLIC "-//W3C//DTD SVG 1.1//EN"
 "http://www.w3.org/Graphics/SVG/1.1/DTD/svg11.dtd">
<!-- Generated by graphviz version 14.1.5 (0)
 -->
<!-- Title: source/motion/motor/motor_convert.c Pages: 1 -->
<!--zoomable 382 -->

<svg id="main" version="1.1" xmlns="http://www.w3.org/2000/svg" xmlns:xlink="http://www.w3.org/1999/xlink" xml:space="preserve" onload="init(evt)">

<style type="text/css"><![CDATA[
.node, .edge {opacity: 0.7;}
.node.selected, .edge.selected {opacity: 1;}
.edge:hover path { stroke: red; }
.edge:hover polygon { stroke: red; fill: red; }
]]></style>

<defs>
  <circle id="rim" cx="0" cy="0" r="7"/>
  <circle id="rim2" cx="0" cy="0" r="3.5"/>
  <g id="zoomPlus">
    <use xlink:href="#rim" fill="#404040"><set attributeName="fill" to="#808080" begin="zoomplus.mouseover" end="zoomplus.mouseout"/></use>
    <path d="M-4,0h8M0,-4v8" fill="none" stroke="white" stroke-width="1.5" pointer-events="none"/>
  </g>
  <g id="zoomMin">
    <use xlink:href="#rim" fill="#404040"><set attributeName="fill" to="#808080" begin="zoomminus.mouseover" end="zoomminus.mouseout"/></use>
    <path d="M-4,0h8" fill="none" stroke="white" stroke-width="1.5" pointer-events="none"/>
  </g>
  <g id="arrowUp" transform="translate(30 24)">
    <use xlink:href="#rim"/>
    <path pointer-events="none" fill="none" stroke="white" stroke-width="1.5" d="M0,-3.0v7 M-2.5,-0.5L0,-3.0L2.5,-0.5"/>
  </g>
  <g id="arrowRight" transform="rotate(90) translate(36 -43)">
    <use xlink:href="#rim"/>
    <path pointer-events="none" fill="none" stroke="white" stroke-width="1.5" d="M0,-3.0v7 M-2.5,-0.5L0,-3.0L2.5,-0.5"/>
  </g>
  <g id="arrowDown" transform="rotate(180) translate(-30 -48)">
    <use xlink:href="#rim"/>
    <path pointer-events="none" fill="none" stroke="white" stroke-width="1.5" d="M0,-3.0v7 M-2.5,-0.5L0,-3.0L2.5,-0.5"/>
  </g>
  <g id="arrowLeft" transform="rotate(270) translate(-36 17)">
    <use xlink:href="#rim"/>
    <path pointer-events="none" fill="none" stroke="white" stroke-width="1.5" d="M0,-3.0v7 M-2.5,-0.5L0,-3.0L2.5,-0.5"/>
  </g>
  <g id="resetDef">
    <use xlink:href="#rim2" fill="#404040"><set attributeName="fill" to="#808080" begin="reset.mouseover" end="reset.mouseout"/></use>
  </g>
</defs>
<script type="application/ecmascript">
var viewWidth = 1169;
var viewHeight = 382;
var sectionId = 'dynsection-0';
</script>
<script type="application/ecmascript" xlink:href="svg.min.js"/>
<svg id="graph" class="graph">
<g id="viewport">
<title>source/motion/motor/motor_convert.c</title>
<!-- Node1 -->
<g id="Node000001" class="node">
<title>Node1</title>
<g id="a_Node000001"><a xlink:title=" ">
<polygon fill="#999999" stroke="#666666" points="1029.88,-374 911.88,-374 911.88,-340.5 1029.88,-340.5 1029.88,-374"/>
<text xml:space="preserve" text-anchor="start" x="919.88" y="-360.5" font-family="Helvetica,sans-Serif" font-size="10.00">source/motion/motor</text>
<text xml:space="preserve" text-anchor="middle" x="970.88" y="-347.75" font-family="Helvetica,sans-Serif" font-size="10.00">/motor_convert.c</text>
</a>
</g>
</g>
<!-- Node2 -->
<g id="Node000002" class="node">
<title>Node2</title>
<g id="a_Node000002"><a xlink:href="motor__convert_8h.html" target="_top" xlink:title=" ">
<polygon fill="white" stroke="#666666" points="858,-304.5 761.75,-304.5 761.75,-283.75 858,-283.75 858,-304.5"/>
<text xml:space="preserve" text-anchor="middle" x="809.88" y="-291" font-family="Helvetica,sans-Serif" font-size="10.00">motor_convert.h</text>
</a>
</g>
</g>
<!-- Node1&#45;&gt;Node2 -->
<g id="edge1_Node000001_Node000002" class="edge">
<title>Node1&#45;&gt;Node2</title>
<g id="a_edge1_Node000001_Node000002"><a xlink:title=" ">
<path fill="none" stroke="#63b8ff" d="M928.15,-340.03C902.62,-330.34 870.54,-318.16 846.23,-308.93"/>
<polygon fill="#63b8ff" stroke="#63b8ff" points="847.67,-305.73 837.08,-305.45 845.18,-312.27 847.67,-305.73"/>
</a>
</g>
</g>
<!-- Node23 -->
<g id="Node000023" class="node">
<title>Node23</title>
<g id="a_Node000023"><a xlink:href="motor__internal_8h.html" target="_top" xlink:title=" ">
<polygon fill="white" stroke="#666666" points="973.38,-304.5 876.38,-304.5 876.38,-283.75 973.38,-283.75 973.38,-304.5"/>
<text xml:space="preserve" text-anchor="middle" x="924.88" y="-291" font-family="Helvetica,sans-Serif" font-size="10.00">motor_internal.h</text>
</a>
</g>
</g>
<!-- Node1&#45;&gt;Node23 -->
<g id="edge41_Node000001_Node000023" class="edge">
<title>Node1&#45;&gt;Node23</title>
<g id="a_edge41_Node000001_Node000023"><a xlink:title=" ">
<path fill="none" stroke="#63b8ff" d="M958.79,-340.19C952.74,-332.16 945.39,-322.38 939.07,-313.99"/>
<polygon fill="#63b8ff" stroke="#63b8ff" points="942,-312.06 933.19,-306.18 936.41,-316.27 942,-312.06"/>
</a>
</g>
</g>
<!-- Node26 -->
<g id="Node000026" class="node">
<title>Node26</title>
<g id="a_Node000026"><a xlink:title=" ">
<polygon fill="#e0e0e0" stroke="#999999" points="1044.25,-304.5 991.5,-304.5 991.5,-283.75 1044.25,-283.75 1044.25,-304.5"/>
<text xml:space="preserve" text-anchor="middle" x="1017.88" y="-291" font-family="Helvetica,sans-Serif" font-size="10.00">limits.h</text>
</a>
</g>
</g>
<!-- Node1&#45;&gt;Node26 -->
<g id="edge48_Node000001_Node000026" class="edge">
<title>Node1&#45;&gt;Node26</title>
<g id="a_edge48_Node000001_Node000026"><a xlink:title=" ">
<path fill="none" stroke="#63b8ff" d="M983.22,-340.19C989.4,-332.16 996.92,-322.38 1003.37,-313.99"/>
<polygon fill="#63b8ff" stroke="#63b8ff" points="1006.06,-316.23 1009.38,-306.17 1000.51,-311.96 1006.06,-316.23"/>
</a>
</g>
</g>
<!-- Node27 -->
<g id="Node000027" class="node">
<title>Node27</title>
<g id="a_Node000027"><a xlink:title=" ">
<polygon fill="#e0e0e0" stroke="#999999" points="1113.12,-304.5 1062.62,-304.5 1062.62,-283.75 1113.12,-283.75 1113.12,-304.5"/>
<text xml:space="preserve" text-anchor="middle" x="1087.88" y="-291" font-family="Helvetica,sans-Serif" font-size="10.00">math.h</text>
</a>
</g>
</g>
<!-- Node1&#45;&gt;Node27 -->
<g id="edge49_Node000001_Node000027" class="edge">
<title>Node1&#45;&gt;Node27</title>
<g id="a_edge49_Node000001_Node000027"><a xlink:title=" ">
<path fill="none" stroke="#63b8ff" d="M1001.92,-340.03C1019.64,-330.77 1041.7,-319.25 1059.03,-310.19"/>
<polygon fill="#63b8ff" stroke="#63b8ff" points="1060.55,-313.35 1067.79,-305.62 1057.31,-307.14 1060.55,-313.35"/>
</a>
</g>
</g>
<!-- Node3 -->
<g id="Node000003" class="node">
<title>Node3</title>
<g id="a_Node000003"><a xlink:title=" ">
<polygon fill="#e0e0e0" stroke="#999999" points="840.25,-77.5 787.5,-77.5 787.5,-56.75 840.25,-56.75 840.25,-77.5"/>
<text xml:space="preserve" text-anchor="middle" x="813.88" y="-64" font-family="Helvetica,sans-Serif" font-size="10.00">stdint.h</text>
</a>
</g>
</g>
<!-- Node2&#45;&gt;Node3 -->
<g id="edge2_Node000002_Node000003" class="edge">
<title>Node2&#45;&gt;Node3</title>
<g id="a_edge2_Node000002_Node000003"><a xlink:title=" ">
<path fill="none" stroke="#63b8ff" d="M810.05,-283.46C810.65,-249.7 812.66,-136.59 813.5,-89.25"/>
<polygon fill="#63b8ff" stroke="#63b8ff" points="817,-89.33 813.68,-79.27 810,-89.21 817,-89.33"/>
</a>
</g>
</g>
<!-- Node4 -->
<g id="Node000004" class="node">
<title>Node4</title>
<g id="a_Node000004"><a xlink:href="motor__core_8h.html" target="_top" xlink:title=" ">
<polygon fill="white" stroke="#666666" points="497.12,-247.75 416.62,-247.75 416.62,-227 497.12,-227 497.12,-247.75"/>
<text xml:space="preserve" text-anchor="middle" x="456.88" y="-234.25" font-family="Helvetica,sans-Serif" font-size="10.00">motor_core.h</text>
</a>
</g>
</g>
<!-- Node2&#45;&gt;Node4 -->
<g id="edge3_Node000002_Node000004" class="edge">
<title>Node2&#45;&gt;Node4</title>
<g id="a_edge3_Node000002_Node000004"><a xlink:title=" ">
<path fill="none" stroke="#63b8ff" d="M761.53,-285.63C695.31,-275.36 576.86,-256.99 508.81,-246.43"/>
<polygon fill="#63b8ff" stroke="#63b8ff" points="509.44,-242.99 499.02,-244.91 508.37,-249.9 509.44,-242.99"/>
</a>
</g>
</g>
<!-- Node5 -->
<g id="Node000005" class="node">
<title>Node5</title>
<g id="a_Node000005"><a xlink:href="pca9555a_8h.html" target="_top" xlink:title=" ">
<polygon fill="white" stroke="#666666" points="645.88,-77.5 491.88,-77.5 491.88,-56.75 645.88,-56.75 645.88,-77.5"/>
<text xml:space="preserve" text-anchor="middle" x="568.88" y="-64" font-family="Helvetica,sans-Serif" font-size="10.00">driver/pca9555a/pca9555a.h</text>
</a>
</g>
</g>
<!-- Node4&#45;&gt;Node5 -->
<g id="edge4_Node000004_Node000005" class="edge">
<title>Node4&#45;&gt;Node5</title>
<g id="a_edge4_Node000004_Node000005"><a xlink:title=" ">
<path fill="none" stroke="#63b8ff" d="M497.43,-230.66C540.46,-223.66 604.23,-210.32 618.88,-191 643.66,-158.31 609.75,-111.62 586.82,-86.24"/>
<polygon fill="#63b8ff" stroke="#63b8ff" points="589.44,-83.92 580.04,-79.03 584.34,-88.71 589.44,-83.92"/>
</a>
</g>
</g>
<!-- Node8 -->
<g id="Node000008" class="node">
<title>Node8</title>
<g id="a_Node000008"><a xlink:title=" ">
<polygon fill="#e0e0e0" stroke="#999999" points="610.25,-191 521.5,-191 521.5,-170.25 610.25,-170.25 610.25,-191"/>
<text xml:space="preserve" text-anchor="middle" x="565.88" y="-177.5" font-family="Helvetica,sans-Serif" font-size="10.00">MK22F51212.h</text>
</a>
</g>
</g>
<!-- Node4&#45;&gt;Node8 -->
<g id="edge7_Node000004_Node000008" class="edge">
<title>Node4&#45;&gt;Node8</title>
<g id="a_edge7_Node000004_Node000008"><a xlink:title=" ">
<path fill="none" stroke="#63b8ff" d="M476.36,-226.59C493.02,-218.22 517.26,-206.04 536.31,-196.47"/>
<polygon fill="#63b8ff" stroke="#63b8ff" points="537.84,-199.62 545.2,-192.01 534.7,-193.37 537.84,-199.62"/>
</a>
</g>
</g>
<!-- Node9 -->
<g id="Node000009" class="node">
<title>Node9</title>
<g id="a_Node000009"><a xlink:href="step__core_8h.html" target="_top" xlink:title=" ">
<polygon fill="white" stroke="#666666" points="392,-191 319.75,-191 319.75,-170.25 392,-170.25 392,-191"/>
<text xml:space="preserve" text-anchor="middle" x="355.88" y="-177.5" font-family="Helvetica,sans-Serif" font-size="10.00">step_core.h</text>
</a>
</g>
</g>
<!-- Node4&#45;&gt;Node9 -->
<g id="edge8_Node000004_Node000009" class="edge">
<title>Node4&#45;&gt;Node9</title>
<g id="a_edge8_Node000004_Node000009"><a xlink:title=" ">
<path fill="none" stroke="#63b8ff" d="M438.82,-226.59C423.45,-218.26 401.13,-206.16 383.52,-196.61"/>
<polygon fill="#63b8ff" stroke="#63b8ff" points="385.57,-193.74 375.11,-192.05 382.23,-199.89 385.57,-193.74"/>
</a>
</g>
</g>
<!-- Node12 -->
<g id="Node000012" class="node">
<title>Node12</title>
<g id="a_Node000012"><a xlink:title=" ">
<polygon fill="#e0e0e0" stroke="#999999" points="220.25,-77.5 161.5,-77.5 161.5,-56.75 220.25,-56.75 220.25,-77.5"/>
<text xml:space="preserve" text-anchor="middle" x="190.88" y="-64" font-family="Helvetica,sans-Serif" font-size="10.00">fsl_ftm.h</text>
</a>
</g>
</g>
<!-- Node4&#45;&gt;Node12 -->
<g id="edge38_Node000004_Node000012" class="edge">
<title>Node4&#45;&gt;Node12</title>
<g id="a_edge38_Node000004_Node000012"><a xlink:title=" ">
<path fill="none" stroke="#63b8ff" d="M416.48,-230.74C362.41,-220.99 267.35,-195.75 215.88,-134.25 204.91,-121.15 198.48,-102.74 194.89,-88.67"/>
<polygon fill="#63b8ff" stroke="#63b8ff" points="198.36,-88.14 192.76,-79.15 191.53,-89.67 198.36,-88.14"/>
</a>
</g>
</g>
<!-- Node13 -->
<g id="Node000013" class="node">
<title>Node13</title>
<g id="a_Node000013"><a xlink:title=" ">
<polygon fill="#e0e0e0" stroke="#999999" points="143.5,-77.5 80.25,-77.5 80.25,-56.75 143.5,-56.75 143.5,-77.5"/>
<text xml:space="preserve" text-anchor="middle" x="111.88" y="-64" font-family="Helvetica,sans-Serif" font-size="10.00">fsl_gpio.h</text>
</a>
</g>
</g>
<!-- Node4&#45;&gt;Node13 -->
<g id="edge39_Node000004_Node000013" class="edge">
<title>Node4&#45;&gt;Node13</title>
<g id="a_edge39_Node000004_Node000013"><a xlink:title=" ">
<path fill="none" stroke="#63b8ff" d="M416.17,-233.28C373.51,-228.7 305.5,-217.59 252.88,-191 200.25,-164.41 151.34,-113.72 127.35,-86.49"/>
<polygon fill="#63b8ff" stroke="#63b8ff" points="130.12,-84.34 120.93,-79.07 124.82,-88.92 130.12,-84.34"/>
</a>
</g>
</g>
<!-- Node14 -->
<g id="Node000014" class="node">
<title>Node14</title>
<g id="a_Node000014"><a xlink:title=" ">
<polygon fill="#e0e0e0" stroke="#999999" points="61.75,-77.5 0,-77.5 0,-56.75 61.75,-56.75 61.75,-77.5"/>
<text xml:space="preserve" text-anchor="middle" x="30.88" y="-64" font-family="Helvetica,sans-Serif" font-size="10.00">fsl_port.h</text>
</a>
</g>
</g>
<!-- Node4&#45;&gt;Node14 -->
<g id="edge40_Node000004_Node000014" class="edge">
<title>Node4&#45;&gt;Node14</title>
<g id="a_edge40_Node000004_Node000014"><a xlink:title=" ">
<path fill="none" stroke="#63b8ff" d="M416.51,-233.78C367.3,-229.5 282.37,-218.51 214.88,-191 149.15,-164.21 82.45,-112.09 50.42,-85.15"/>
<polygon fill="#63b8ff" stroke="#63b8ff" points="53.02,-82.76 43.14,-78.94 48.48,-88.09 53.02,-82.76"/>
</a>
</g>
</g>
<!-- Node20 -->
<g id="Node000020" class="node">
<title>Node20</title>
<g id="a_Node000020"><a xlink:href="tmc2209__core_8h.html" target="_top" xlink:title=" ">
<polygon fill="white" stroke="#666666" points="503.88,-191 409.88,-191 409.88,-170.25 503.88,-170.25 503.88,-191"/>
<text xml:space="preserve" text-anchor="middle" x="456.88" y="-177.5" font-family="Helvetica,sans-Serif" font-size="10.00">tmc2209_core.h</text>
</a>
</g>
</g>
<!-- Node4&#45;&gt;Node20 -->
<g id="edge30_Node000004_Node000020" class="edge">
<title>Node4&#45;&gt;Node20</title>
<g id="a_edge30_Node000004_Node000020"><a xlink:title=" ">
<path fill="none" stroke="#63b8ff" d="M456.88,-226.59C456.88,-219.97 456.88,-210.97 456.88,-202.77"/>
<polygon fill="#63b8ff" stroke="#63b8ff" points="460.38,-202.84 456.88,-192.84 453.38,-202.84 460.38,-202.84"/>
</a>
</g>
</g>
<!-- Node6 -->
<g id="Node000006" class="node">
<title>Node6</title>
<g id="a_Node000006"><a xlink:title=" ">
<polygon fill="#e0e0e0" stroke="#999999" points="506.38,-20.75 421.38,-20.75 421.38,0 506.38,0 506.38,-20.75"/>
<text xml:space="preserve" text-anchor="middle" x="463.88" y="-7.25" font-family="Helvetica,sans-Serif" font-size="10.00">fsl_common.h</text>
</a>
</g>
</g>
<!-- Node5&#45;&gt;Node6 -->
<g id="edge5_Node000005_Node000006" class="edge">
<title>Node5&#45;&gt;Node6</title>
<g id="a_edge5_Node000005_Node000006"><a xlink:title=" ">
<path fill="none" stroke="#63b8ff" d="M550.1,-56.34C534.13,-48.01 510.92,-35.91 492.61,-26.36"/>
<polygon fill="#63b8ff" stroke="#63b8ff" points="494.31,-23.3 483.83,-21.78 491.08,-29.51 494.31,-23.3"/>
</a>
</g>
</g>
<!-- Node7 -->
<g id="Node000007" class="node">
<title>Node7</title>
<g id="a_Node000007"><a xlink:title=" ">
<polygon fill="#e0e0e0" stroke="#999999" points="911.75,-20.75 832,-20.75 832,0 911.75,0 911.75,-20.75"/>
<text xml:space="preserve" text-anchor="middle" x="871.88" y="-7.25" font-family="Helvetica,sans-Serif" font-size="10.00">peripherals.h</text>
</a>
</g>
</g>
<!-- Node5&#45;&gt;Node7 -->
<g id="edge6_Node000005_Node000007" class="edge">
<title>Node5&#45;&gt;Node7</title>
<g id="a_edge6_Node000005_Node000007"><a xlink:title=" ">
<path fill="none" stroke="#63b8ff" d="M623.4,-56.27C679.39,-46.16 765.87,-30.53 820.63,-20.63"/>
<polygon fill="#63b8ff" stroke="#63b8ff" points="821.11,-24.11 830.33,-18.88 819.86,-17.22 821.11,-24.11"/>
</a>
</g>
</g>
<!-- Node9&#45;&gt;Node5 -->
<g id="edge9_Node000009_Node000005" class="edge">
<title>Node9&#45;&gt;Node5</title>
<g id="a_edge9_Node000009_Node000005"><a xlink:title=" ">
<path fill="none" stroke="#63b8ff" d="M374.4,-169.93C411.62,-150.44 495.67,-106.44 540.1,-83.19"/>
<polygon fill="#63b8ff" stroke="#63b8ff" points="541.66,-86.32 548.9,-78.58 538.41,-80.12 541.66,-86.32"/>
</a>
</g>
</g>
<!-- Node9&#45;&gt;Node6 -->
<g id="edge12_Node000009_Node000006" class="edge">
<title>Node9&#45;&gt;Node6</title>
<g id="a_edge12_Node000009_Node000006"><a xlink:title=" ">
<path fill="none" stroke="#63b8ff" d="M369.41,-170.07C380.59,-161.64 396.27,-148.52 406.88,-134.25 431.09,-101.66 448.57,-57.14 457.38,-31.6"/>
<polygon fill="#63b8ff" stroke="#63b8ff" points="460.59,-33.05 460.43,-22.46 453.95,-30.84 460.59,-33.05"/>
</a>
</g>
</g>
<!-- Node10 -->
<g id="Node000010" class="node">
<title>Node10</title>
<g id="a_Node000010"><a xlink:title=" ">
<polygon fill="#e0e0e0" stroke="#999999" points="1147.62,-77.5 1076.12,-77.5 1076.12,-56.75 1147.62,-56.75 1147.62,-77.5"/>
<text xml:space="preserve" text-anchor="middle" x="1111.88" y="-64" font-family="Helvetica,sans-Serif" font-size="10.00">FreeRTOS.h</text>
</a>
</g>
</g>
<!-- Node9&#45;&gt;Node10 -->
<g id="edge10_Node000009_Node000010" class="edge">
<title>Node9&#45;&gt;Node10</title>
<g id="a_edge10_Node000009_Node000010"><a xlink:title=" ">
<path fill="none" stroke="#63b8ff" d="M392.15,-171.6C395.09,-171.09 398.03,-170.63 400.88,-170.25 657.73,-135.73 732.95,-202.81 982.88,-134.25 1022.12,-123.48 1063.26,-99.93 1088.24,-84.04"/>
<polygon fill="#63b8ff" stroke="#63b8ff" points="1089.85,-87.17 1096.33,-78.79 1086.04,-81.3 1089.85,-87.17"/>
</a>
</g>
</g>
<!-- Node11 -->
<g id="Node000011" class="node">
<title>Node11</title>
<g id="a_Node000011"><a xlink:title=" ">
<polygon fill="#e0e0e0" stroke="#999999" points="295.88,-134.25 249.88,-134.25 249.88,-113.5 295.88,-113.5 295.88,-134.25"/>
<text xml:space="preserve" text-anchor="middle" x="272.88" y="-120.75" font-family="Helvetica,sans-Serif" font-size="10.00">task.h</text>
</a>
</g>
</g>
<!-- Node9&#45;&gt;Node11 -->
<g id="edge11_Node000009_Node000011" class="edge">
<title>Node9&#45;&gt;Node11</title>
<g id="a_edge11_Node000009_Node000011"><a xlink:title=" ">
<path fill="none" stroke="#63b8ff" d="M341.04,-169.84C328.76,-161.74 311.09,-150.08 296.82,-140.67"/>
<polygon fill="#63b8ff" stroke="#63b8ff" points="299.12,-138 288.85,-135.41 295.27,-143.84 299.12,-138"/>
</a>
</g>
</g>
<!-- Node9&#45;&gt;Node12 -->
<g id="edge13_Node000009_Node000012" class="edge">
<title>Node9&#45;&gt;Node12</title>
<g id="a_edge13_Node000009_Node000012"><a xlink:title=" ">
<path fill="none" stroke="#63b8ff" d="M319.35,-170.78C295.35,-163.69 264.21,-151.97 240.88,-134.25 224.09,-121.5 210.15,-101.7 201.29,-87.08"/>
<polygon fill="#63b8ff" stroke="#63b8ff" points="204.56,-85.75 196.52,-78.85 198.5,-89.25 204.56,-85.75"/>
</a>
</g>
</g>
<!-- Node9&#45;&gt;Node13 -->
<g id="edge14_Node000009_Node000013" class="edge">
<title>Node9&#45;&gt;Node13</title>
<g id="a_edge14_Node000009_Node000013"><a xlink:title=" ">
<path fill="none" stroke="#63b8ff" d="M319.53,-170.57C290.7,-162.75 249.74,-150.19 215.88,-134.25 185.93,-120.16 154.2,-98.95 133.78,-84.38"/>
<polygon fill="#63b8ff" stroke="#63b8ff" points="136.09,-81.73 125.94,-78.7 131.99,-87.4 136.09,-81.73"/>
</a>
</g>
</g>
<!-- Node9&#45;&gt;Node14 -->
<g id="edge15_Node000009_Node000014" class="edge">
<title>Node9&#45;&gt;Node14</title>
<g id="a_edge15_Node000009_Node000014"><a xlink:title=" ">
<path fill="none" stroke="#63b8ff" d="M319.45,-172.47C282.68,-164.78 224.53,-151.32 175.88,-134.25 134.2,-119.63 88.13,-97.54 59.34,-82.97"/>
<polygon fill="#63b8ff" stroke="#63b8ff" points="61.05,-79.91 50.55,-78.48 57.86,-86.15 61.05,-79.91"/>
</a>
</g>
</g>
<!-- Node15 -->
<g id="Node000015" class="node">
<title>Node15</title>
<g id="a_Node000015"><a xlink:href="cmd__handle_8h.html" target="_top" xlink:title=" ">
<polygon fill="white" stroke="#666666" points="974,-134.25 889.75,-134.25 889.75,-113.5 974,-113.5 974,-134.25"/>
<text xml:space="preserve" text-anchor="middle" x="931.88" y="-120.75" font-family="Helvetica,sans-Serif" font-size="10.00">cmd_handle.h</text>
</a>
</g>
</g>
<!-- Node9&#45;&gt;Node15 -->
<g id="edge16_Node000009_Node000015" class="edge">
<title>Node9&#45;&gt;Node15</title>
<g id="a_edge16_Node000009_Node000015"><a xlink:title=" ">
<path fill="none" stroke="#63b8ff" d="M392.16,-171.68C395.1,-171.15 398.03,-170.67 400.88,-170.25 491.93,-156.92 762.08,-136.91 878.03,-128.65"/>
<polygon fill="#63b8ff" stroke="#63b8ff" points="878.18,-132.15 887.91,-127.95 877.68,-125.17 878.18,-132.15"/>
</a>
</g>
</g>
<!-- Node18 -->
<g id="Node000018" class="node">
<title>Node18</title>
<g id="a_Node000018"><a xlink:href="step__shared_8h.html" target="_top" xlink:title=" ">
<polygon fill="white" stroke="#666666" points="398,-134.25 313.75,-134.25 313.75,-113.5 398,-113.5 398,-134.25"/>
<text xml:space="preserve" text-anchor="middle" x="355.88" y="-120.75" font-family="Helvetica,sans-Serif" font-size="10.00">step_shared.h</text>
</a>
</g>
</g>
<!-- Node9&#45;&gt;Node18 -->
<g id="edge22_Node000009_Node000018" class="edge">
<title>Node9&#45;&gt;Node18</title>
<g id="a_edge22_Node000009_Node000018"><a xlink:title=" ">
<path fill="none" stroke="#63b8ff" d="M355.88,-169.84C355.88,-163.22 355.88,-154.22 355.88,-146.02"/>
<polygon fill="#63b8ff" stroke="#63b8ff" points="359.38,-146.09 355.88,-136.09 352.38,-146.09 359.38,-146.09"/>
</a>
</g>
</g>
<!-- Node15&#45;&gt;Node3 -->
<g id="edge17_Node000015_Node000003" class="edge">
<title>Node15&#45;&gt;Node3</title>
<g id="a_edge17_Node000015_Node000003"><a xlink:title=" ">
<path fill="none" stroke="#63b8ff" d="M910.78,-113.09C892.49,-104.6 865.77,-92.2 845.02,-82.58"/>
<polygon fill="#63b8ff" stroke="#63b8ff" points="846.71,-79.5 836.16,-78.47 843.76,-85.85 846.71,-79.5"/>
</a>
</g>
</g>
<!-- Node15&#45;&gt;Node6 -->
<g id="edge20_Node000015_Node000006" class="edge">
<title>Node15&#45;&gt;Node6</title>
<g id="a_edge20_Node000015_Node000006"><a xlink:title=" ">
<path fill="none" stroke="#63b8ff" d="M923.3,-113.22C909.35,-98.25 880.16,-69.8 848.88,-56.75 790.35,-32.35 609.38,-19.28 517.93,-14.09"/>
<polygon fill="#63b8ff" stroke="#63b8ff" points="518.4,-10.61 508.22,-13.55 518.01,-17.6 518.4,-10.61"/>
</a>
</g>
</g>
<!-- Node15&#45;&gt;Node10 -->
<g id="edge18_Node000015_Node000010" class="edge">
<title>Node15&#45;&gt;Node10</title>
<g id="a_edge18_Node000015_Node000010"><a xlink:title=" ">
<path fill="none" stroke="#63b8ff" d="M964.06,-113.09C993.27,-104.2 1036.59,-91.02 1068.79,-81.23"/>
<polygon fill="#63b8ff" stroke="#63b8ff" points="1069.67,-84.62 1078.22,-78.36 1067.64,-77.92 1069.67,-84.62"/>
</a>
</g>
</g>
<!-- Node16 -->
<g id="Node000016" class="node">
<title>Node16</title>
<g id="a_Node000016"><a xlink:title=" ">
<polygon fill="#e0e0e0" stroke="#999999" points="987.38,-77.5 896.38,-77.5 896.38,-56.75 987.38,-56.75 987.38,-77.5"/>
<text xml:space="preserve" text-anchor="middle" x="941.88" y="-64" font-family="Helvetica,sans-Serif" font-size="10.00">event_groups.h</text>
</a>
</g>
</g>
<!-- Node15&#45;&gt;Node16 -->
<g id="edge19_Node000015_Node000016" class="edge">
<title>Node15&#45;&gt;Node16</title>
<g id="a_edge19_Node000015_Node000016"><a xlink:title=" ">
<path fill="none" stroke="#63b8ff" d="M933.66,-113.09C934.89,-106.39 936.55,-97.26 938.07,-88.98"/>
<polygon fill="#63b8ff" stroke="#63b8ff" points="941.48,-89.78 939.83,-79.32 934.59,-88.53 941.48,-89.78"/>
</a>
</g>
</g>
<!-- Node17 -->
<g id="Node000017" class="node">
<title>Node17</title>
<g id="a_Node000017"><a xlink:title=" ">
<polygon fill="#e0e0e0" stroke="#999999" points="1057.88,-77.5 1005.88,-77.5 1005.88,-56.75 1057.88,-56.75 1057.88,-77.5"/>
<text xml:space="preserve" text-anchor="middle" x="1031.88" y="-64" font-family="Helvetica,sans-Serif" font-size="10.00">stdlib.h</text>
</a>
</g>
</g>
<!-- Node15&#45;&gt;Node17 -->
<g id="edge21_Node000015_Node000017" class="edge">
<title>Node15&#45;&gt;Node17</title>
<g id="a_edge21_Node000015_Node000017"><a xlink:title=" ">
<path fill="none" stroke="#63b8ff" d="M949.75,-113.09C964.97,-104.76 987.07,-92.66 1004.51,-83.11"/>
<polygon fill="#63b8ff" stroke="#63b8ff" points="1005.73,-86.43 1012.82,-78.56 1002.37,-80.29 1005.73,-86.43"/>
</a>
</g>
</g>
<!-- Node18&#45;&gt;Node3 -->
<g id="edge23_Node000018_Node000003" class="edge">
<title>Node18&#45;&gt;Node3</title>
<g id="a_edge23_Node000018_Node000003"><a xlink:title=" ">
<path fill="none" stroke="#63b8ff" d="M398.22,-120.51C472.79,-115.87 632.54,-103.85 776.04,-77.79"/>
<polygon fill="#63b8ff" stroke="#63b8ff" points="776.53,-81.25 785.73,-76 775.26,-74.37 776.53,-81.25"/>
</a>
</g>
</g>
<!-- Node18&#45;&gt;Node5 -->
<g id="edge24_Node000018_Node000005" class="edge">
<title>Node18&#45;&gt;Node5</title>
<g id="a_edge24_Node000018_Node000005"><a xlink:title=" ">
<path fill="none" stroke="#63b8ff" d="M393.96,-113.09C429.13,-104.04 481.58,-90.56 519.87,-80.72"/>
<polygon fill="#63b8ff" stroke="#63b8ff" points="520.49,-84.18 529.3,-78.3 518.74,-77.4 520.49,-84.18"/>
</a>
</g>
</g>
<!-- Node18&#45;&gt;Node6 -->
<g id="edge26_Node000018_Node000006" class="edge">
<title>Node18&#45;&gt;Node6</title>
<g id="a_edge26_Node000018_Node000006"><a xlink:title=" ">
<path fill="none" stroke="#63b8ff" d="M322.34,-113.07C289.53,-101.76 247.16,-81.53 266.88,-56.75 284.45,-34.67 357.7,-22.42 409.73,-16.37"/>
<polygon fill="#63b8ff" stroke="#63b8ff" points="410.08,-19.85 419.64,-15.27 409.31,-12.89 410.08,-19.85"/>
</a>
</g>
</g>
<!-- Node18&#45;&gt;Node12 -->
<g id="edge27_Node000018_Node000012" class="edge">
<title>Node18&#45;&gt;Node12</title>
<g id="a_edge27_Node000018_Node000012"><a xlink:title=" ">
<path fill="none" stroke="#63b8ff" d="M326.38,-113.09C299.83,-104.28 260.58,-91.25 231.15,-81.49"/>
<polygon fill="#63b8ff" stroke="#63b8ff" points="232.43,-78.22 221.83,-78.4 230.22,-84.87 232.43,-78.22"/>
</a>
</g>
</g>
<!-- Node18&#45;&gt;Node13 -->
<g id="edge28_Node000018_Node000013" class="edge">
<title>Node18&#45;&gt;Node13</title>
<g id="a_edge28_Node000018_Node000013"><a xlink:title=" ">
<path fill="none" stroke="#63b8ff" d="M313.48,-113.46C274.73,-104.84 215.53,-91.64 154.64,-77.89"/>
<polygon fill="#63b8ff" stroke="#63b8ff" points="155.66,-74.53 145.13,-75.74 154.11,-81.36 155.66,-74.53"/>
</a>
</g>
</g>
<!-- Node18&#45;&gt;Node14 -->
<g id="edge29_Node000018_Node000014" class="edge">
<title>Node18&#45;&gt;Node14</title>
<g id="a_edge29_Node000018_Node000014"><a xlink:title=" ">
<path fill="none" stroke="#63b8ff" d="M313.31,-114.96C310.46,-114.45 307.63,-113.96 304.88,-113.5 204.67,-96.58 176.11,-97.44 73.06,-77.8"/>
<polygon fill="#63b8ff" stroke="#63b8ff" points="73.8,-74.37 63.32,-75.92 72.48,-81.25 73.8,-74.37"/>
</a>
</g>
</g>
<!-- Node19 -->
<g id="Node000019" class="node">
<title>Node19</title>
<g id="a_Node000019"><a xlink:title=" ">
<polygon fill="#e0e0e0" stroke="#999999" points="398.12,-77.5 275.62,-77.5 275.62,-56.75 398.12,-56.75 398.12,-77.5"/>
<text xml:space="preserve" text-anchor="middle" x="336.88" y="-64" font-family="Helvetica,sans-Serif" font-size="10.00">fsl_device_registers.h</text>
</a>
</g>
</g>
<!-- Node18&#45;&gt;Node19 -->
<g id="edge25_Node000018_Node000019" class="edge">
<title>Node18&#45;&gt;Node19</title>
<g id="a_edge25_Node000018_Node000019"><a xlink:title=" ">
<path fill="none" stroke="#63b8ff" d="M352.48,-113.09C350.13,-106.31 346.91,-97.05 344.01,-88.69"/>
<polygon fill="#63b8ff" stroke="#63b8ff" points="347.32,-87.56 340.74,-79.26 340.71,-89.85 347.32,-87.56"/>
</a>
</g>
</g>
<!-- Node20&#45;&gt;Node3 -->
<g id="edge31_Node000020_Node000003" class="edge">
<title>Node20&#45;&gt;Node3</title>
<g id="a_edge31_Node000020_Node000003"><a xlink:title=" ">
<path fill="none" stroke="#63b8ff" d="M504.22,-171.62C507.15,-171.15 510.05,-170.69 512.88,-170.25 623.36,-153.02 665.06,-190.2 761.88,-134.25 780.6,-123.43 795.06,-103.01 803.92,-87.71"/>
<polygon fill="#63b8ff" stroke="#63b8ff" points="806.95,-89.47 808.65,-79.01 800.8,-86.13 806.95,-89.47"/>
</a>
</g>
</g>
<!-- Node20&#45;&gt;Node6 -->
<g id="edge35_Node000020_Node000006" class="edge">
<title>Node20&#45;&gt;Node6</title>
<g id="a_edge35_Node000020_Node000006"><a xlink:title=" ">
<path fill="none" stroke="#63b8ff" d="M457.27,-170.1C458.37,-143.73 461.46,-69.33 463,-32.53"/>
<polygon fill="#63b8ff" stroke="#63b8ff" points="466.48,-32.87 463.4,-22.73 459.49,-32.58 466.48,-32.87"/>
</a>
</g>
</g>
<!-- Node20&#45;&gt;Node7 -->
<g id="edge37_Node000020_Node000007" class="edge">
<title>Node20&#45;&gt;Node7</title>
<g id="a_edge37_Node000020_Node000007"><a xlink:title=" ">
<path fill="none" stroke="#63b8ff" d="M504.19,-171.38C507.12,-170.97 510.04,-170.59 512.88,-170.25 738.52,-143.46 801.92,-187.28 1022.88,-134.25 1085.77,-119.16 1121.16,-131.42 1156.88,-77.5 1161.97,-69.81 1162.86,-63.77 1156.88,-56.75 1127.47,-22.29 997.41,-13.87 923.56,-11.9"/>
<polygon fill="#63b8ff" stroke="#63b8ff" points="923.81,-8.41 913.73,-11.67 923.64,-15.4 923.81,-8.41"/>
</a>
</g>
</g>
<!-- Node20&#45;&gt;Node15 -->
<g id="edge36_Node000020_Node000015" class="edge">
<title>Node20&#45;&gt;Node15</title>
<g id="a_edge36_Node000020_Node000015"><a xlink:title=" ">
<path fill="none" stroke="#63b8ff" d="M504.2,-171.5C507.13,-171.06 510.04,-170.64 512.88,-170.25 643.79,-152.22 798.55,-137.04 878.33,-129.67"/>
<polygon fill="#63b8ff" stroke="#63b8ff" points="878.4,-133.18 888.04,-128.78 877.76,-126.21 878.4,-133.18"/>
</a>
</g>
</g>
<!-- Node21 -->
<g id="Node000021" class="node">
<title>Node21</title>
<g id="a_Node000021"><a xlink:href="tmc2209__shared_8h.html" target="_top" xlink:title=" ">
<polygon fill="white" stroke="#666666" points="752.88,-134.25 646.88,-134.25 646.88,-113.5 752.88,-113.5 752.88,-134.25"/>
<text xml:space="preserve" text-anchor="middle" x="699.88" y="-120.75" font-family="Helvetica,sans-Serif" font-size="10.00">tmc2209_shared.h</text>
</a>
</g>
</g>
<!-- Node20&#45;&gt;Node21 -->
<g id="edge32_Node000020_Node000021" class="edge">
<title>Node20&#45;&gt;Node21</title>
<g id="a_edge32_Node000020_Node000021"><a xlink:title=" ">
<path fill="none" stroke="#63b8ff" d="M500.6,-169.77C541.07,-160.65 601.42,-147.06 645.09,-137.22"/>
<polygon fill="#63b8ff" stroke="#63b8ff" points="645.63,-140.68 654.62,-135.07 644.09,-133.86 645.63,-140.68"/>
</a>
</g>
</g>
<!-- Node21&#45;&gt;Node3 -->
<g id="edge33_Node000021_Node000003" class="edge">
<title>Node21&#45;&gt;Node3</title>
<g id="a_edge33_Node000021_Node000003"><a xlink:title=" ">
<path fill="none" stroke="#63b8ff" d="M720.26,-113.09C737.84,-104.64 763.5,-92.32 783.51,-82.71"/>
<polygon fill="#63b8ff" stroke="#63b8ff" points="784.81,-85.97 792.31,-78.48 781.78,-79.66 784.81,-85.97"/>
</a>
</g>
</g>
<!-- Node22 -->
<g id="Node000022" class="node">
<title>Node22</title>
<g id="a_Node000022"><a xlink:title=" ">
<polygon fill="#e0e0e0" stroke="#999999" points="769.5,-77.5 664.25,-77.5 664.25,-56.75 769.5,-56.75 769.5,-77.5"/>
<text xml:space="preserve" text-anchor="middle" x="716.88" y="-64" font-family="Helvetica,sans-Serif" font-size="10.00">fsl_uart_freertos.h</text>
</a>
</g>
</g>
<!-- Node21&#45;&gt;Node22 -->
<g id="edge34_Node000021_Node000022" class="edge">
<title>Node21&#45;&gt;Node22</title>
<g id="a_edge34_Node000021_Node000022"><a xlink:title=" ">
<path fill="none" stroke="#63b8ff" d="M702.91,-113.09C705.02,-106.31 707.89,-97.05 710.49,-88.69"/>
<polygon fill="#63b8ff" stroke="#63b8ff" points="713.79,-89.86 713.41,-79.27 707.11,-87.79 713.79,-89.86"/>
</a>
</g>
</g>
<!-- Node23&#45;&gt;Node3 -->
<g id="edge42_Node000023_Node000003" class="edge">
<title>Node23&#45;&gt;Node3</title>
<g id="a_edge42_Node000023_Node000003"><a xlink:title=" ">
<path fill="none" stroke="#63b8ff" d="M911.39,-283.31C900.71,-274.93 886.11,-261.99 876.88,-247.75 859.24,-220.56 831.64,-129.56 819.7,-88.52"/>
<polygon fill="#63b8ff" stroke="#63b8ff" points="823.14,-87.81 817.01,-79.17 816.41,-89.75 823.14,-87.81"/>
</a>
</g>
</g>
<!-- Node23&#45;&gt;Node4 -->
<g id="edge44_Node000023_Node000004" class="edge">
<title>Node23&#45;&gt;Node4</title>
<g id="a_edge44_Node000023_Node000004"><a xlink:title=" ">
<path fill="none" stroke="#63b8ff" d="M876.17,-285.07C873.03,-284.61 869.91,-284.16 866.88,-283.75 738.46,-266.28 586.73,-250.83 508.81,-243.28"/>
<polygon fill="#63b8ff" stroke="#63b8ff" points="509.2,-239.8 498.91,-242.33 508.53,-246.77 509.2,-239.8"/>
</a>
</g>
</g>
<!-- Node23&#45;&gt;Node10 -->
<g id="edge45_Node000023_Node000010" class="edge">
<title>Node23&#45;&gt;Node10</title>
<g id="a_edge45_Node000023_Node000010"><a xlink:title=" ">
<path fill="none" stroke="#63b8ff" d="M973.77,-284.8C998.2,-278.38 1026.59,-267.17 1045.88,-247.75 1090.28,-203.05 1105.11,-126.01 1109.82,-89.07"/>
<polygon fill="#63b8ff" stroke="#63b8ff" points="1113.28,-89.63 1110.93,-79.3 1106.32,-88.84 1113.28,-89.63"/>
</a>
</g>
</g>
<!-- Node23&#45;&gt;Node15 -->
<g id="edge47_Node000023_Node000015" class="edge">
<title>Node23&#45;&gt;Node15</title>
<g id="a_edge47_Node000023_Node000015"><a xlink:title=" ">
<path fill="none" stroke="#63b8ff" d="M973.75,-284.16C994.41,-277.69 1016.52,-266.62 1028.88,-247.75 1055.55,-207.01 997.38,-163.11 960.06,-140.43"/>
<polygon fill="#63b8ff" stroke="#63b8ff" points="961.87,-137.44 951.48,-135.38 958.32,-143.47 961.87,-137.44"/>
</a>
</g>
</g>
<!-- Node24 -->
<g id="Node000024" class="node">
<title>Node24</title>
<g id="a_Node000024"><a xlink:title=" ">
<polygon fill="#e0e0e0" stroke="#999999" points="946.38,-247.75 885.38,-247.75 885.38,-227 946.38,-227 946.38,-247.75"/>
<text xml:space="preserve" text-anchor="middle" x="915.88" y="-234.25" font-family="Helvetica,sans-Serif" font-size="10.00">stdbool.h</text>
</a>
</g>
</g>
<!-- Node23&#45;&gt;Node24 -->
<g id="edge43_Node000023_Node000024" class="edge">
<title>Node23&#45;&gt;Node24</title>
<g id="a_edge43_Node000023_Node000024"><a xlink:title=" ">
<path fill="none" stroke="#63b8ff" d="M923.27,-283.34C922.17,-276.64 920.66,-267.51 919.3,-259.23"/>
<polygon fill="#63b8ff" stroke="#63b8ff" points="922.79,-258.87 917.72,-249.57 915.88,-260.01 922.79,-258.87"/>
</a>
</g>
</g>
<!-- Node25 -->
<g id="Node000025" class="node">
<title>Node25</title>
<g id="a_Node000025"><a xlink:title=" ">
<polygon fill="#e0e0e0" stroke="#999999" points="1019.38,-247.75 964.38,-247.75 964.38,-227 1019.38,-227 1019.38,-247.75"/>
<text xml:space="preserve" text-anchor="middle" x="991.88" y="-234.25" font-family="Helvetica,sans-Serif" font-size="10.00">queue.h</text>
</a>
</g>
</g>
<!-- Node23&#45;&gt;Node25 -->
<g id="edge46_Node000023_Node000025" class="edge">
<title>Node23&#45;&gt;Node25</title>
<g id="a_edge46_Node000023_Node000025"><a xlink:title=" ">
<path fill="none" stroke="#63b8ff" d="M936.85,-283.34C946.38,-275.55 959.94,-264.47 971.21,-255.26"/>
<polygon fill="#63b8ff" stroke="#63b8ff" points="973.3,-258.07 978.83,-249.04 968.87,-252.65 973.3,-258.07"/>
</a>
</g>
</g>
</g>
</svg>

<g id="navigator" transform="translate(0 0)" fill="#404254">
  <rect fill="#f2f5e9" fill-opacity="0.5" stroke="#606060" stroke-width=".5" x="0" y="0" width="60" height="60"/>
  <use id="zoomplus" xlink:href="#zoomPlus" x="17" y="9" onmousedown="handleZoom(evt,'in')"/>
  <use id="zoomminus" xlink:href="#zoomMin" x="42" y="9" onmousedown="handleZoom(evt,'out')"/>
  <use id="reset" xlink:href="#resetDef" x="30" y="36" onmousedown="handleReset()"/>
   <use id="arrowup" xlink:href="#arrowUp" x="0" y="0" onmousedown="handlePan(0,-1)"/>
  <use id="arrowright" xlink:href="#arrowRight" x="0" y="0" onmousedown="handlePan(1,0)"/>
  <use id="arrowdown" xlink:href="#arrowDown" x="0" y="0" onmousedown="handlePan(0,1)"/>
  <use id="arrowleft" xlink:href="#arrowLeft" x="0" y="0" onmousedown="handlePan(-1,0)"/>
</g>
<svg viewBox="0 0 15 15" width="100%" height="30px" preserveAspectRatio="xMaxYMin meet">
 <g id="arrow_out" transform="scale(0.3 0.3)">
  <a xlink:href="motor__convert_8c__incl_org.svg" target="_base">
   <rect id="button" ry="5" rx="5" y="6" x="6" height="38" width="38"
        fill="#f2f5e9" fill-opacity="0.5" stroke="#606060" stroke-width="1.0"/>
   <path id="arrow"
     d="M 11.500037,31.436501 C 11.940474,20.09759 22.043105,11.32322 32.158766,21.979434 L 37.068811,17.246167 C 37.068811,17.246167 37.088388,32 37.088388,32 L 22.160133,31.978069 C 22.160133,31.978069 26.997745,27.140456 26.997745,27.140456 C 18.528582,18.264221 13.291696,25.230495 11.500037,31.436501 z"
     style="fill:#404040;"/>
  </a>
 </g>
</svg>

<style type='text/css'>
<![CDATA[
[data-mouse-over-selected='false'] { opacity: 0.7; }
[data-mouse-over-selected='true']  { opacity: 1.0; }
]]>
</style>
<script type="application/ecmascript"><![CDATA[
document.addEventListener('DOMContentLoaded', (event) => {
  highlightEdges();
  highlightAdjacentNodes();
});
]]></script>
</svg>
