<?xml version="1.0" encoding="UTF-8" standalone="no"?>
<!DOCTYPE svg PUBLIC "-//W3C//DTD SVG 1.1//EN"
 "http://www.w3.org/Graphics/SVG/1.1/DTD/svg11.dtd">
<!-- Generated by graphviz version 14.1.5 (0)
 -->
<!-- Title: source/motion/motor/motor_internal.h Pages: 1 -->
<!--zoomable 325 -->

<svg id="main" version="1.1" xmlns="http://www.w3.org/2000/svg" xmlns:xlink="http://www.w3.org/1999/xlink" xml:space="preserve" onload="init(evt)">

<style type="text/css"><![CDATA[
.node, .edge {opacity: 0.7;}
.node.selected, .edge.selected {opacity: 1;}
.edge:hover path { stroke: red; }
.edge:hover polygon { stroke: red; fill: red; }
]]></style>

<defs>
  <circle id="rim" cx="0" cy="0" r="7"/>
  <circle id="rim2" cx="0" cy="0" r="3.5"/>
  <g id="zoomPlus">
    <use xlink:href="#rim" fill="#404040"><set attributeName="fill" to="#808080" begin="zoomplus.mouseover" end="zoomplus.mouseout"/></use>
    <path d="M-4,0h8M0,-4v8" fill="none" stroke="white" stroke-width="1.5" pointer-events="none"/>
  </g>
  <g id="zoomMin">
    <use xlink:href="#rim" fill="#404040"><set attributeName="fill" to="#808080" begin="zoomminus.mouseover" end="zoomminus.mouseout"/></use>
    <path d="M-4,0h8" fill="none" stroke="white" stroke-width="1.5" pointer-events="none"/>
  </g>
  <g id="arrowUp" transform="translate(30 24)">
    <use xlink:href="#rim"/>
    <path pointer-events="none" fill="none" stroke="white" stroke-width="1.5" d="M0,-3.0v7 M-2.5,-0.5L0,-3.0L2.5,-0.5"/>
  </g>
  <g id="arrowRight" transform="rotate(90) translate(36 -43)">
    <use xlink:href="#rim"/>
    <path pointer-events="none" fill="none" stroke="white" stroke-width="1.5" d="M0,-3.0v7 M-2.5,-0.5L0,-3.0L2.5,-0.5"/>
  </g>
  <g id="arrowDown" transform="rotate(180) translate(-30 -48)">
    <use xlink:href="#rim"/>
    <path pointer-events="none" fill="none" stroke="white" stroke-width="1.5" d="M0,-3.0v7 M-2.5,-0.5L0,-3.0L2.5,-0.5"/>
  </g>
  <g id="arrowLeft" transform="rotate(270) translate(-36 17)">
    <use xlink:href="#rim"/>
    <path pointer-events="none" fill="none" stroke="white" stroke-width="1.5" d="M0,-3.0v7 M-2.5,-0.5L0,-3.0L2.5,-0.5"/>
  </g>
  <g id="resetDef">
    <use xlink:href="#rim2" fill="#404040"><set attributeName="fill" to="#808080" begin="reset.mouseover" end="reset.mouseout"/></use>
  </g>
</defs>
<script type="application/ecmascript">
var viewWidth = 1169;
var viewHeight = 325;
var sectionId = 'dynsection-0';
</script>
<script type="application/ecmascript" xlink:href="svg.min.js"/>
<svg id="graph" class="graph">
<g id="viewport">
<title>source/motion/motor/motor_internal.h</title>
<!-- Node1 -->
<g id="Node000001" class="node">
<title>Node1</title>
<g id="a_Node000001"><a xlink:title=" ">
<polygon fill="#999999" stroke="#666666" points="657.27,-317.25 539.27,-317.25 539.27,-283.75 657.27,-283.75 657.27,-317.25"/>
<text xml:space="preserve" text-anchor="start" x="547.27" y="-303.75" font-family="Helvetica,sans-Serif" font-size="10.00">source/motion/motor</text>
<text xml:space="preserve" text-anchor="middle" x="598.27" y="-291" font-family="Helvetica,sans-Serif" font-size="10.00">/motor_internal.h</text>
</a>
</g>
</g>
<!-- Node2 -->
<g id="Node000002" class="node">
<title>Node2</title>
<g id="a_Node000002"><a xlink:title=" ">
<polygon fill="#e0e0e0" stroke="#999999" points="189.64,-77.5 136.89,-77.5 136.89,-56.75 189.64,-56.75 189.64,-77.5"/>
<text xml:space="preserve" text-anchor="middle" x="163.27" y="-64" font-family="Helvetica,sans-Serif" font-size="10.00">stdint.h</text>
</a>
</g>
</g>
<!-- Node1&#45;&gt;Node2 -->
<g id="edge1_Node000001_Node000002" class="edge">
<title>Node1&#45;&gt;Node2</title>
<g id="a_edge1_Node000001_Node000002"><a xlink:title=" ">
<path fill="none" stroke="#63b8ff" d="M539.05,-298.46C438.21,-293.05 235.96,-265.49 152.27,-134.25 143.56,-120.6 147.56,-102.27 153.03,-88.37"/>
<polygon fill="#63b8ff" stroke="#63b8ff" points="156.19,-89.87 157.1,-79.32 149.81,-87 156.19,-89.87"/>
</a>
</g>
</g>
<!-- Node3 -->
<g id="Node000003" class="node">
<title>Node3</title>
<g id="a_Node000003"><a xlink:title=" ">
<polygon fill="#e0e0e0" stroke="#999999" points="773.77,-247.75 712.77,-247.75 712.77,-227 773.77,-227 773.77,-247.75"/>
<text xml:space="preserve" text-anchor="middle" x="743.27" y="-234.25" font-family="Helvetica,sans-Serif" font-size="10.00">stdbool.h</text>
</a>
</g>
</g>
<!-- Node1&#45;&gt;Node3 -->
<g id="edge2_Node000001_Node000003" class="edge">
<title>Node1&#45;&gt;Node3</title>
<g id="a_edge2_Node000001_Node000003"><a xlink:title=" ">
<path fill="none" stroke="#63b8ff" d="M636.74,-283.28C659.42,-273.72 687.85,-261.74 709.63,-252.55"/>
<polygon fill="#63b8ff" stroke="#63b8ff" points="710.79,-255.86 718.65,-248.75 708.07,-249.41 710.79,-255.86"/>
</a>
</g>
</g>
<!-- Node4 -->
<g id="Node000004" class="node">
<title>Node4</title>
<g id="a_Node000004"><a xlink:href="motor__core_8h.html" target="_top" xlink:title=" ">
<polygon fill="white" stroke="#666666" points="694.52,-247.75 614.02,-247.75 614.02,-227 694.52,-227 694.52,-247.75"/>
<text xml:space="preserve" text-anchor="middle" x="654.27" y="-234.25" font-family="Helvetica,sans-Serif" font-size="10.00">motor_core.h</text>
</a>
</g>
</g>
<!-- Node1&#45;&gt;Node4 -->
<g id="edge3_Node000001_Node000004" class="edge">
<title>Node1&#45;&gt;Node4</title>
<g id="a_edge3_Node000001_Node000004"><a xlink:title=" ">
<path fill="none" stroke="#63b8ff" d="M612.98,-283.44C620.5,-275.23 629.68,-265.21 637.48,-256.7"/>
<polygon fill="#63b8ff" stroke="#63b8ff" points="640.05,-259.07 644.23,-249.33 634.89,-254.34 640.05,-259.07"/>
</a>
</g>
</g>
<!-- Node10 -->
<g id="Node000010" class="node">
<title>Node10</title>
<g id="a_Node000010"><a xlink:title=" ">
<polygon fill="#e0e0e0" stroke="#999999" points="535.02,-77.5 463.52,-77.5 463.52,-56.75 535.02,-56.75 535.02,-77.5"/>
<text xml:space="preserve" text-anchor="middle" x="499.27" y="-64" font-family="Helvetica,sans-Serif" font-size="10.00">FreeRTOS.h</text>
</a>
</g>
</g>
<!-- Node1&#45;&gt;Node10 -->
<g id="edge41_Node000001_Node000010" class="edge">
<title>Node1&#45;&gt;Node10</title>
<g id="a_edge41_Node000001_Node000010"><a xlink:title=" ">
<path fill="none" stroke="#63b8ff" d="M591.46,-283.6C573.9,-242.55 527.06,-133.09 507.76,-87.98"/>
<polygon fill="#63b8ff" stroke="#63b8ff" points="511.04,-86.73 503.88,-78.92 504.6,-89.49 511.04,-86.73"/>
</a>
</g>
</g>
<!-- Node15 -->
<g id="Node000015" class="node">
<title>Node15</title>
<g id="a_Node000015"><a xlink:href="cmd__handle_8h.html" target="_top" xlink:title=" ">
<polygon fill="white" stroke="#666666" points="407.39,-134.25 323.14,-134.25 323.14,-113.5 407.39,-113.5 407.39,-134.25"/>
<text xml:space="preserve" text-anchor="middle" x="365.27" y="-120.75" font-family="Helvetica,sans-Serif" font-size="10.00">cmd_handle.h</text>
</a>
</g>
</g>
<!-- Node1&#45;&gt;Node15 -->
<g id="edge43_Node000001_Node000015" class="edge">
<title>Node1&#45;&gt;Node15</title>
<g id="a_edge43_Node000001_Node000015"><a xlink:title=" ">
<path fill="none" stroke="#63b8ff" d="M575.09,-283.41C560.66,-273.31 541.77,-259.93 525.27,-247.75 474.92,-210.59 416.91,-165.45 386.46,-141.57"/>
<polygon fill="#63b8ff" stroke="#63b8ff" points="388.81,-138.96 378.78,-135.53 384.48,-144.46 388.81,-138.96"/>
</a>
</g>
</g>
<!-- Node23 -->
<g id="Node000023" class="node">
<title>Node23</title>
<g id="a_Node000023"><a xlink:title=" ">
<polygon fill="#e0e0e0" stroke="#999999" points="846.77,-247.75 791.77,-247.75 791.77,-227 846.77,-227 846.77,-247.75"/>
<text xml:space="preserve" text-anchor="middle" x="819.27" y="-234.25" font-family="Helvetica,sans-Serif" font-size="10.00">queue.h</text>
</a>
</g>
</g>
<!-- Node1&#45;&gt;Node23 -->
<g id="edge42_Node000001_Node000023" class="edge">
<title>Node1&#45;&gt;Node23</title>
<g id="a_edge42_Node000001_Node000023"><a xlink:title=" ">
<path fill="none" stroke="#63b8ff" d="M656.91,-283.28C695.97,-272.48 746.22,-258.58 780.39,-249.13"/>
<polygon fill="#63b8ff" stroke="#63b8ff" points="781.17,-252.54 789.87,-246.51 779.3,-245.8 781.17,-252.54"/>
</a>
</g>
</g>
<!-- Node5 -->
<g id="Node000005" class="node">
<title>Node5</title>
<g id="a_Node000005"><a xlink:href="pca9555a_8h.html" target="_top" xlink:title=" ">
<polygon fill="white" stroke="#666666" points="707.27,-77.5 553.27,-77.5 553.27,-56.75 707.27,-56.75 707.27,-77.5"/>
<text xml:space="preserve" text-anchor="middle" x="630.27" y="-64" font-family="Helvetica,sans-Serif" font-size="10.00">driver/pca9555a/pca9555a.h</text>
</a>
</g>
</g>
<!-- Node4&#45;&gt;Node5 -->
<g id="edge4_Node000004_Node000005" class="edge">
<title>Node4&#45;&gt;Node5</title>
<g id="a_edge4_Node000004_Node000005"><a xlink:title=" ">
<path fill="none" stroke="#63b8ff" d="M649.59,-226.54C645.55,-217.52 639.94,-203.68 637.27,-191 629.87,-155.91 629.16,-114.02 629.55,-89.32"/>
<polygon fill="#63b8ff" stroke="#63b8ff" points="633.05,-89.41 629.8,-79.33 626.05,-89.24 633.05,-89.41"/>
</a>
</g>
</g>
<!-- Node8 -->
<g id="Node000008" class="node">
<title>Node8</title>
<g id="a_Node000008"><a xlink:title=" ">
<polygon fill="#e0e0e0" stroke="#999999" points="734.64,-191 645.89,-191 645.89,-170.25 734.64,-170.25 734.64,-191"/>
<text xml:space="preserve" text-anchor="middle" x="690.27" y="-177.5" font-family="Helvetica,sans-Serif" font-size="10.00">MK22F51212.h</text>
</a>
</g>
</g>
<!-- Node4&#45;&gt;Node8 -->
<g id="edge7_Node000004_Node000008" class="edge">
<title>Node4&#45;&gt;Node8</title>
<g id="a_edge7_Node000004_Node000008"><a xlink:title=" ">
<path fill="none" stroke="#63b8ff" d="M660.7,-226.59C665.41,-219.42 671.95,-209.48 677.69,-200.76"/>
<polygon fill="#63b8ff" stroke="#63b8ff" points="680.48,-202.87 683.05,-192.59 674.64,-199.03 680.48,-202.87"/>
</a>
</g>
</g>
<!-- Node9 -->
<g id="Node000009" class="node">
<title>Node9</title>
<g id="a_Node000009"><a xlink:href="step__core_8h.html" target="_top" xlink:title=" ">
<polygon fill="white" stroke="#666666" points="870.39,-191 798.14,-191 798.14,-170.25 870.39,-170.25 870.39,-191"/>
<text xml:space="preserve" text-anchor="middle" x="834.27" y="-177.5" font-family="Helvetica,sans-Serif" font-size="10.00">step_core.h</text>
</a>
</g>
</g>
<!-- Node4&#45;&gt;Node9 -->
<g id="edge8_Node000004_Node000009" class="edge">
<title>Node4&#45;&gt;Node9</title>
<g id="a_edge8_Node000004_Node000009"><a xlink:title=" ">
<path fill="none" stroke="#63b8ff" d="M686.45,-226.59C715.66,-217.7 758.98,-204.52 791.18,-194.73"/>
<polygon fill="#63b8ff" stroke="#63b8ff" points="792.06,-198.12 800.61,-191.86 790.03,-191.42 792.06,-198.12"/>
</a>
</g>
</g>
<!-- Node12 -->
<g id="Node000012" class="node">
<title>Node12</title>
<g id="a_Node000012"><a xlink:title=" ">
<polygon fill="#e0e0e0" stroke="#999999" points="1079.64,-77.5 1020.89,-77.5 1020.89,-56.75 1079.64,-56.75 1079.64,-77.5"/>
<text xml:space="preserve" text-anchor="middle" x="1050.27" y="-64" font-family="Helvetica,sans-Serif" font-size="10.00">fsl_ftm.h</text>
</a>
</g>
</g>
<!-- Node4&#45;&gt;Node12 -->
<g id="edge38_Node000004_Node000012" class="edge">
<title>Node4&#45;&gt;Node12</title>
<g id="a_edge38_Node000004_Node000012"><a xlink:title=" ">
<path fill="none" stroke="#63b8ff" d="M694.95,-228.6C754.92,-217.07 861.86,-196.23 879.27,-191 943.56,-171.67 970.54,-180.44 1019.27,-134.25 1032.21,-121.98 1040.28,-103.24 1044.94,-88.84"/>
<polygon fill="#63b8ff" stroke="#63b8ff" points="1048.23,-90.03 1047.65,-79.45 1041.51,-88.08 1048.23,-90.03"/>
</a>
</g>
</g>
<!-- Node13 -->
<g id="Node000013" class="node">
<title>Node13</title>
<g id="a_Node000013"><a xlink:title=" ">
<polygon fill="#e0e0e0" stroke="#999999" points="1160.89,-77.5 1097.64,-77.5 1097.64,-56.75 1160.89,-56.75 1160.89,-77.5"/>
<text xml:space="preserve" text-anchor="middle" x="1129.27" y="-64" font-family="Helvetica,sans-Serif" font-size="10.00">fsl_gpio.h</text>
</a>
</g>
</g>
<!-- Node4&#45;&gt;Node13 -->
<g id="edge39_Node000004_Node000013" class="edge">
<title>Node4&#45;&gt;Node13</title>
<g id="a_edge39_Node000004_Node000013"><a xlink:title=" ">
<path fill="none" stroke="#63b8ff" d="M694.91,-228.65C698.07,-228.08 701.22,-227.52 704.27,-227 862.44,-199.8 919.06,-222.27 1053.27,-134.25 1075.07,-119.95 1097.25,-99.89 1111.97,-85.62"/>
<polygon fill="#63b8ff" stroke="#63b8ff" points="1114.37,-88.16 1119.03,-78.65 1109.46,-83.18 1114.37,-88.16"/>
</a>
</g>
</g>
<!-- Node14 -->
<g id="Node000014" class="node">
<title>Node14</title>
<g id="a_Node000014"><a xlink:title=" ">
<polygon fill="#e0e0e0" stroke="#999999" points="825.14,-77.5 763.39,-77.5 763.39,-56.75 825.14,-56.75 825.14,-77.5"/>
<text xml:space="preserve" text-anchor="middle" x="794.27" y="-64" font-family="Helvetica,sans-Serif" font-size="10.00">fsl_port.h</text>
</a>
</g>
</g>
<!-- Node4&#45;&gt;Node14 -->
<g id="edge40_Node000004_Node000014" class="edge">
<title>Node4&#45;&gt;Node14</title>
<g id="a_edge40_Node000004_Node000014"><a xlink:title=" ">
<path fill="none" stroke="#63b8ff" d="M685.74,-226.58C704.55,-219.35 727.72,-207.81 743.27,-191 770.48,-161.58 784.23,-115.59 790.27,-89.01"/>
<polygon fill="#63b8ff" stroke="#63b8ff" points="793.64,-89.97 792.27,-79.46 786.79,-88.53 793.64,-89.97"/>
</a>
</g>
</g>
<!-- Node20 -->
<g id="Node000020" class="node">
<title>Node20</title>
<g id="a_Node000020"><a xlink:href="tmc2209__core_8h.html" target="_top" xlink:title=" ">
<polygon fill="white" stroke="#666666" points="377.27,-191 283.27,-191 283.27,-170.25 377.27,-170.25 377.27,-191"/>
<text xml:space="preserve" text-anchor="middle" x="330.27" y="-177.5" font-family="Helvetica,sans-Serif" font-size="10.00">tmc2209_core.h</text>
</a>
</g>
</g>
<!-- Node4&#45;&gt;Node20 -->
<g id="edge30_Node000004_Node000020" class="edge">
<title>Node4&#45;&gt;Node20</title>
<g id="a_edge30_Node000004_Node000020"><a xlink:title=" ">
<path fill="none" stroke="#63b8ff" d="M613.56,-229.5C556.88,-219.92 453.86,-202.51 388.9,-191.53"/>
<polygon fill="#63b8ff" stroke="#63b8ff" points="389.57,-188.1 379.12,-189.88 388.4,-195 389.57,-188.1"/>
</a>
</g>
</g>
<!-- Node6 -->
<g id="Node000006" class="node">
<title>Node6</title>
<g id="a_Node000006"><a xlink:title=" ">
<polygon fill="#e0e0e0" stroke="#999999" points="672.77,-20.75 587.77,-20.75 587.77,0 672.77,0 672.77,-20.75"/>
<text xml:space="preserve" text-anchor="middle" x="630.27" y="-7.25" font-family="Helvetica,sans-Serif" font-size="10.00">fsl_common.h</text>
</a>
</g>
</g>
<!-- Node5&#45;&gt;Node6 -->
<g id="edge5_Node000005_Node000006" class="edge">
<title>Node5&#45;&gt;Node6</title>
<g id="a_edge5_Node000005_Node000006"><a xlink:title=" ">
<path fill="none" stroke="#63b8ff" d="M630.27,-56.34C630.27,-49.72 630.27,-40.72 630.27,-32.52"/>
<polygon fill="#63b8ff" stroke="#63b8ff" points="633.77,-32.59 630.27,-22.59 626.77,-32.59 633.77,-32.59"/>
</a>
</g>
</g>
<!-- Node7 -->
<g id="Node000007" class="node">
<title>Node7</title>
<g id="a_Node000007"><a xlink:title=" ">
<polygon fill="#e0e0e0" stroke="#999999" points="298.14,-20.75 218.39,-20.75 218.39,0 298.14,0 298.14,-20.75"/>
<text xml:space="preserve" text-anchor="middle" x="258.27" y="-7.25" font-family="Helvetica,sans-Serif" font-size="10.00">peripherals.h</text>
</a>
</g>
</g>
<!-- Node5&#45;&gt;Node7 -->
<g id="edge6_Node000005_Node000007" class="edge">
<title>Node5&#45;&gt;Node7</title>
<g id="a_edge6_Node000005_Node000007"><a xlink:title=" ">
<path fill="none" stroke="#63b8ff" d="M563.33,-56.27C490.61,-45.57 376.01,-28.7 309.92,-18.98"/>
<polygon fill="#63b8ff" stroke="#63b8ff" points="310.46,-15.52 300.06,-17.53 309.44,-22.44 310.46,-15.52"/>
</a>
</g>
</g>
<!-- Node9&#45;&gt;Node5 -->
<g id="edge9_Node000009_Node000005" class="edge">
<title>Node9&#45;&gt;Node5</title>
<g id="a_edge9_Node000009_Node000005"><a xlink:title=" ">
<path fill="none" stroke="#63b8ff" d="M802.45,-169.79C778.54,-161.79 745.37,-149.36 718.27,-134.25 693.06,-120.19 666.96,-99.71 649.8,-85.27"/>
<polygon fill="#63b8ff" stroke="#63b8ff" points="652.28,-82.78 642.4,-78.94 647.72,-88.1 652.28,-82.78"/>
</a>
</g>
</g>
<!-- Node9&#45;&gt;Node6 -->
<g id="edge12_Node000009_Node000006" class="edge">
<title>Node9&#45;&gt;Node6</title>
<g id="a_edge12_Node000009_Node000006"><a xlink:title=" ">
<path fill="none" stroke="#63b8ff" d="M824.54,-169.96C815.37,-160.82 801.29,-146.69 789.27,-134.25 756.38,-100.23 753.92,-85.4 716.27,-56.75 700.29,-44.59 680.59,-33.94 664.08,-26.01"/>
<polygon fill="#63b8ff" stroke="#63b8ff" points="665.68,-22.89 655.14,-21.85 662.72,-29.24 665.68,-22.89"/>
</a>
</g>
</g>
<!-- Node9&#45;&gt;Node10 -->
<g id="edge10_Node000009_Node000010" class="edge">
<title>Node9&#45;&gt;Node10</title>
<g id="a_edge10_Node000009_Node000010"><a xlink:title=" ">
<path fill="none" stroke="#63b8ff" d="M799.62,-169.78C768.91,-160.92 722.91,-147.32 683.27,-134.25 631.85,-117.3 573.07,-95.8 536.07,-82"/>
<polygon fill="#63b8ff" stroke="#63b8ff" points="537.33,-78.74 526.74,-78.51 534.88,-85.29 537.33,-78.74"/>
</a>
</g>
</g>
<!-- Node11 -->
<g id="Node000011" class="node">
<title>Node11</title>
<g id="a_Node000011"><a xlink:title=" ">
<polygon fill="#e0e0e0" stroke="#999999" points="844.27,-134.25 798.27,-134.25 798.27,-113.5 844.27,-113.5 844.27,-134.25"/>
<text xml:space="preserve" text-anchor="middle" x="821.27" y="-120.75" font-family="Helvetica,sans-Serif" font-size="10.00">task.h</text>
</a>
</g>
</g>
<!-- Node9&#45;&gt;Node11 -->
<g id="edge11_Node000009_Node000011" class="edge">
<title>Node9&#45;&gt;Node11</title>
<g id="a_edge11_Node000009_Node000011"><a xlink:title=" ">
<path fill="none" stroke="#63b8ff" d="M831.94,-169.84C830.35,-163.14 828.18,-154.01 826.22,-145.73"/>
<polygon fill="#63b8ff" stroke="#63b8ff" points="829.64,-144.97 823.92,-136.05 822.82,-146.59 829.64,-144.97"/>
</a>
</g>
</g>
<!-- Node9&#45;&gt;Node12 -->
<g id="edge13_Node000009_Node000012" class="edge">
<title>Node9&#45;&gt;Node12</title>
<g id="a_edge13_Node000009_Node000012"><a xlink:title=" ">
<path fill="none" stroke="#63b8ff" d="M870.82,-175.3C904.74,-169.94 955.53,-158.37 993.27,-134.25 1012.15,-122.18 1028.24,-101.99 1038.46,-87.09"/>
<polygon fill="#63b8ff" stroke="#63b8ff" points="1041.17,-89.33 1043.73,-79.05 1035.32,-85.49 1041.17,-89.33"/>
</a>
</g>
</g>
<!-- Node9&#45;&gt;Node13 -->
<g id="edge14_Node000009_Node000013" class="edge">
<title>Node9&#45;&gt;Node13</title>
<g id="a_edge14_Node000009_Node000013"><a xlink:title=" ">
<path fill="none" stroke="#63b8ff" d="M870.74,-174.02C908.81,-167.41 969.73,-154.66 1019.27,-134.25 1051.46,-120.98 1085.33,-99.28 1106.84,-84.38"/>
<polygon fill="#63b8ff" stroke="#63b8ff" points="1108.68,-87.36 1114.84,-78.74 1104.65,-81.64 1108.68,-87.36"/>
</a>
</g>
</g>
<!-- Node9&#45;&gt;Node14 -->
<g id="edge15_Node000009_Node000014" class="edge">
<title>Node9&#45;&gt;Node14</title>
<g id="a_edge15_Node000009_Node000014"><a xlink:title=" ">
<path fill="none" stroke="#63b8ff" d="M841.39,-169.81C850.09,-156.54 862.55,-132.36 853.27,-113.5 847.17,-101.13 835.9,-91.18 824.84,-83.79"/>
<polygon fill="#63b8ff" stroke="#63b8ff" points="826.94,-80.98 816.59,-78.75 823.29,-86.95 826.94,-80.98"/>
</a>
</g>
</g>
<!-- Node9&#45;&gt;Node15 -->
<g id="edge16_Node000009_Node000015" class="edge">
<title>Node9&#45;&gt;Node15</title>
<g id="a_edge16_Node000009_Node000015"><a xlink:title=" ">
<path fill="none" stroke="#63b8ff" d="M797.85,-175.37C715.65,-165.78 515.33,-142.39 418.89,-131.13"/>
<polygon fill="#63b8ff" stroke="#63b8ff" points="419.5,-127.68 409.16,-130 418.69,-134.64 419.5,-127.68"/>
</a>
</g>
</g>
<!-- Node18 -->
<g id="Node000018" class="node">
<title>Node18</title>
<g id="a_Node000018"><a xlink:href="step__shared_8h.html" target="_top" xlink:title=" ">
<polygon fill="white" stroke="#666666" points="984.39,-134.25 900.14,-134.25 900.14,-113.5 984.39,-113.5 984.39,-134.25"/>
<text xml:space="preserve" text-anchor="middle" x="942.27" y="-120.75" font-family="Helvetica,sans-Serif" font-size="10.00">step_shared.h</text>
</a>
</g>
</g>
<!-- Node9&#45;&gt;Node18 -->
<g id="edge22_Node000009_Node000018" class="edge">
<title>Node9&#45;&gt;Node18</title>
<g id="a_edge22_Node000009_Node000018"><a xlink:title=" ">
<path fill="none" stroke="#63b8ff" d="M853.57,-169.84C870.08,-161.47 894.1,-149.29 912.97,-139.72"/>
<polygon fill="#63b8ff" stroke="#63b8ff" points="914.44,-142.91 921.78,-135.26 911.27,-136.66 914.44,-142.91"/>
</a>
</g>
</g>
<!-- Node15&#45;&gt;Node2 -->
<g id="edge17_Node000015_Node000002" class="edge">
<title>Node15&#45;&gt;Node2</title>
<g id="a_edge17_Node000015_Node000002"><a xlink:title=" ">
<path fill="none" stroke="#63b8ff" d="M329.15,-113.09C292.95,-103.28 237.47,-88.24 200.78,-78.29"/>
<polygon fill="#63b8ff" stroke="#63b8ff" points="202.07,-75.02 191.5,-75.78 200.24,-81.77 202.07,-75.02"/>
</a>
</g>
</g>
<!-- Node15&#45;&gt;Node6 -->
<g id="edge20_Node000015_Node000006" class="edge">
<title>Node15&#45;&gt;Node6</title>
<g id="a_edge20_Node000015_Node000006"><a xlink:title=" ">
<path fill="none" stroke="#63b8ff" d="M370.72,-113.03C379.39,-98.32 397.8,-70.85 421.27,-56.75 468.6,-28.32 531.47,-17.61 575.85,-13.62"/>
<polygon fill="#63b8ff" stroke="#63b8ff" points="576.08,-17.11 585.77,-12.83 575.52,-10.14 576.08,-17.11"/>
</a>
</g>
</g>
<!-- Node15&#45;&gt;Node10 -->
<g id="edge18_Node000015_Node000010" class="edge">
<title>Node15&#45;&gt;Node10</title>
<g id="a_edge18_Node000015_Node000010"><a xlink:title=" ">
<path fill="none" stroke="#63b8ff" d="M389.22,-113.09C410.28,-104.48 441.17,-91.86 464.87,-82.18"/>
<polygon fill="#63b8ff" stroke="#63b8ff" points="466.18,-85.42 474.12,-78.4 463.54,-78.94 466.18,-85.42"/>
</a>
</g>
</g>
<!-- Node16 -->
<g id="Node000016" class="node">
<title>Node16</title>
<g id="a_Node000016"><a xlink:title=" ">
<polygon fill="#e0e0e0" stroke="#999999" points="368.77,-77.5 277.77,-77.5 277.77,-56.75 368.77,-56.75 368.77,-77.5"/>
<text xml:space="preserve" text-anchor="middle" x="323.27" y="-64" font-family="Helvetica,sans-Serif" font-size="10.00">event_groups.h</text>
</a>
</g>
</g>
<!-- Node15&#45;&gt;Node16 -->
<g id="edge19_Node000015_Node000016" class="edge">
<title>Node15&#45;&gt;Node16</title>
<g id="a_edge19_Node000015_Node000016"><a xlink:title=" ">
<path fill="none" stroke="#63b8ff" d="M357.76,-113.09C352.14,-105.77 344.3,-95.54 337.51,-86.69"/>
<polygon fill="#63b8ff" stroke="#63b8ff" points="340.49,-84.83 331.63,-79.03 334.94,-89.09 340.49,-84.83"/>
</a>
</g>
</g>
<!-- Node17 -->
<g id="Node000017" class="node">
<title>Node17</title>
<g id="a_Node000017"><a xlink:title=" ">
<polygon fill="#e0e0e0" stroke="#999999" points="259.27,-77.5 207.27,-77.5 207.27,-56.75 259.27,-56.75 259.27,-77.5"/>
<text xml:space="preserve" text-anchor="middle" x="233.27" y="-64" font-family="Helvetica,sans-Serif" font-size="10.00">stdlib.h</text>
</a>
</g>
</g>
<!-- Node15&#45;&gt;Node17 -->
<g id="edge21_Node000015_Node000017" class="edge">
<title>Node15&#45;&gt;Node17</title>
<g id="a_edge21_Node000015_Node000017"><a xlink:title=" ">
<path fill="none" stroke="#63b8ff" d="M341.67,-113.09C320.93,-104.48 290.5,-91.86 267.15,-82.18"/>
<polygon fill="#63b8ff" stroke="#63b8ff" points="268.64,-79.01 258.06,-78.41 265.95,-85.47 268.64,-79.01"/>
</a>
</g>
</g>
<!-- Node18&#45;&gt;Node2 -->
<g id="edge23_Node000018_Node000002" class="edge">
<title>Node18&#45;&gt;Node2</title>
<g id="a_edge23_Node000018_Node000002"><a xlink:title=" ">
<path fill="none" stroke="#63b8ff" d="M899.75,-117.96C885.04,-116.37 868.44,-114.72 853.27,-113.5 566.34,-90.52 488.15,-122.63 201.08,-77.64"/>
<polygon fill="#63b8ff" stroke="#63b8ff" points="201.82,-74.21 191.39,-76.1 200.72,-81.13 201.82,-74.21"/>
</a>
</g>
</g>
<!-- Node18&#45;&gt;Node5 -->
<g id="edge24_Node000018_Node000005" class="edge">
<title>Node18&#45;&gt;Node5</title>
<g id="a_edge24_Node000018_Node000005"><a xlink:title=" ">
<path fill="none" stroke="#63b8ff" d="M899.86,-115.43C847.79,-106.3 758.83,-90.69 697.42,-79.91"/>
<polygon fill="#63b8ff" stroke="#63b8ff" points="698.24,-76.5 687.78,-78.22 697.03,-83.39 698.24,-76.5"/>
</a>
</g>
</g>
<!-- Node18&#45;&gt;Node6 -->
<g id="edge26_Node000018_Node000006" class="edge">
<title>Node18&#45;&gt;Node6</title>
<g id="a_edge26_Node000018_Node000006"><a xlink:title=" ">
<path fill="none" stroke="#63b8ff" d="M953.05,-113.42C967.43,-99.69 989.4,-74.01 974.27,-56.75 955.49,-35.33 776.64,-20.79 684.53,-14.66"/>
<polygon fill="#63b8ff" stroke="#63b8ff" points="684.93,-11.18 674.72,-14.02 684.47,-18.16 684.93,-11.18"/>
</a>
</g>
</g>
<!-- Node18&#45;&gt;Node12 -->
<g id="edge27_Node000018_Node000012" class="edge">
<title>Node18&#45;&gt;Node12</title>
<g id="a_edge27_Node000018_Node000012"><a xlink:title=" ">
<path fill="none" stroke="#63b8ff" d="M961.57,-113.09C978.08,-104.72 1002.1,-92.54 1020.97,-82.97"/>
<polygon fill="#63b8ff" stroke="#63b8ff" points="1022.44,-86.16 1029.78,-78.51 1019.27,-79.91 1022.44,-86.16"/>
</a>
</g>
</g>
<!-- Node18&#45;&gt;Node13 -->
<g id="edge28_Node000018_Node000013" class="edge">
<title>Node18&#45;&gt;Node13</title>
<g id="a_edge28_Node000018_Node000013"><a xlink:title=" ">
<path fill="none" stroke="#63b8ff" d="M975.7,-113.09C1006.66,-104.02 1052.85,-90.5 1086.49,-80.65"/>
<polygon fill="#63b8ff" stroke="#63b8ff" points="1087.31,-84.06 1095.92,-77.89 1085.34,-77.34 1087.31,-84.06"/>
</a>
</g>
</g>
<!-- Node18&#45;&gt;Node14 -->
<g id="edge29_Node000018_Node000014" class="edge">
<title>Node18&#45;&gt;Node14</title>
<g id="a_edge29_Node000018_Node000014"><a xlink:title=" ">
<path fill="none" stroke="#63b8ff" d="M915.81,-113.09C892.24,-104.37 857.5,-91.52 831.2,-81.79"/>
<polygon fill="#63b8ff" stroke="#63b8ff" points="832.51,-78.54 821.92,-78.35 830.08,-85.11 832.51,-78.54"/>
</a>
</g>
</g>
<!-- Node19 -->
<g id="Node000019" class="node">
<title>Node19</title>
<g id="a_Node000019"><a xlink:title=" ">
<polygon fill="#e0e0e0" stroke="#999999" points="965.52,-77.5 843.02,-77.5 843.02,-56.75 965.52,-56.75 965.52,-77.5"/>
<text xml:space="preserve" text-anchor="middle" x="904.27" y="-64" font-family="Helvetica,sans-Serif" font-size="10.00">fsl_device_registers.h</text>
</a>
</g>
</g>
<!-- Node18&#45;&gt;Node19 -->
<g id="edge25_Node000018_Node000019" class="edge">
<title>Node18&#45;&gt;Node19</title>
<g id="a_edge25_Node000018_Node000019"><a xlink:title=" ">
<path fill="none" stroke="#63b8ff" d="M935.47,-113.09C930.5,-105.92 923.6,-95.98 917.55,-87.26"/>
<polygon fill="#63b8ff" stroke="#63b8ff" points="920.44,-85.29 911.86,-79.07 914.69,-89.28 920.44,-85.29"/>
</a>
</g>
</g>
<!-- Node20&#45;&gt;Node2 -->
<g id="edge31_Node000020_Node000002" class="edge">
<title>Node20&#45;&gt;Node2</title>
<g id="a_edge31_Node000020_Node000002"><a xlink:title=" ">
<path fill="none" stroke="#63b8ff" d="M324.5,-169.78C315.73,-155.57 297.76,-129.3 276.27,-113.5 263.79,-104.32 228.56,-90.79 200.73,-80.88"/>
<polygon fill="#63b8ff" stroke="#63b8ff" points="202.13,-77.67 191.53,-77.65 199.81,-84.27 202.13,-77.67"/>
</a>
</g>
</g>
<!-- Node20&#45;&gt;Node6 -->
<g id="edge35_Node000020_Node000006" class="edge">
<title>Node20&#45;&gt;Node6</title>
<g id="a_edge35_Node000020_Node000006"><a xlink:title=" ">
<path fill="none" stroke="#63b8ff" d="M359.1,-169.76C377.34,-162.33 400.39,-150.6 416.27,-134.25 442.99,-106.73 424.52,-80.98 454.27,-56.75 488.63,-28.75 538.27,-17.82 576.08,-13.65"/>
<polygon fill="#63b8ff" stroke="#63b8ff" points="576.28,-17.15 585.9,-12.71 575.61,-10.18 576.28,-17.15"/>
</a>
</g>
</g>
<!-- Node20&#45;&gt;Node7 -->
<g id="edge37_Node000020_Node000007" class="edge">
<title>Node20&#45;&gt;Node7</title>
<g id="a_edge37_Node000020_Node000007"><a xlink:title=" ">
<path fill="none" stroke="#63b8ff" d="M282.8,-172.02C200.3,-157.69 36.19,-123.93 4.27,-77.5 -0.96,-69.9 -1.65,-63.82 4.27,-56.75 29.58,-26.51 140.22,-16.4 206.84,-13.04"/>
<polygon fill="#63b8ff" stroke="#63b8ff" points="206.6,-16.56 216.43,-12.59 206.27,-9.56 206.6,-16.56"/>
</a>
</g>
</g>
<!-- Node20&#45;&gt;Node15 -->
<g id="edge36_Node000020_Node000015" class="edge">
<title>Node20&#45;&gt;Node15</title>
<g id="a_edge36_Node000020_Node000015"><a xlink:title=" ">
<path fill="none" stroke="#63b8ff" d="M336.52,-169.84C341.1,-162.67 347.46,-152.73 353.04,-144.01"/>
<polygon fill="#63b8ff" stroke="#63b8ff" points="355.81,-146.16 358.25,-135.85 349.91,-142.39 355.81,-146.16"/>
</a>
</g>
</g>
<!-- Node21 -->
<g id="Node000021" class="node">
<title>Node21</title>
<g id="a_Node000021"><a xlink:href="tmc2209__shared_8h.html" target="_top" xlink:title=" ">
<polygon fill="white" stroke="#666666" points="267.27,-134.25 161.27,-134.25 161.27,-113.5 267.27,-113.5 267.27,-134.25"/>
<text xml:space="preserve" text-anchor="middle" x="214.27" y="-120.75" font-family="Helvetica,sans-Serif" font-size="10.00">tmc2209_shared.h</text>
</a>
</g>
</g>
<!-- Node20&#45;&gt;Node21 -->
<g id="edge32_Node000020_Node000021" class="edge">
<title>Node20&#45;&gt;Node21</title>
<g id="a_edge32_Node000020_Node000021"><a xlink:title=" ">
<path fill="none" stroke="#63b8ff" d="M309.53,-169.84C291.63,-161.39 265.52,-149.07 245.16,-139.46"/>
<polygon fill="#63b8ff" stroke="#63b8ff" points="246.73,-136.33 236.19,-135.22 243.74,-142.66 246.73,-136.33"/>
</a>
</g>
</g>
<!-- Node21&#45;&gt;Node2 -->
<g id="edge33_Node000021_Node000002" class="edge">
<title>Node21&#45;&gt;Node2</title>
<g id="a_edge33_Node000021_Node000002"><a xlink:title=" ">
<path fill="none" stroke="#63b8ff" d="M205.15,-113.09C198.19,-105.61 188.4,-95.11 180.04,-86.13"/>
<polygon fill="#63b8ff" stroke="#63b8ff" points="182.71,-83.87 173.34,-78.94 177.59,-88.64 182.71,-83.87"/>
</a>
</g>
</g>
<!-- Node22 -->
<g id="Node000022" class="node">
<title>Node22</title>
<g id="a_Node000022"><a xlink:title=" ">
<polygon fill="#e0e0e0" stroke="#999999" points="118.89,-77.5 13.64,-77.5 13.64,-56.75 118.89,-56.75 118.89,-77.5"/>
<text xml:space="preserve" text-anchor="middle" x="66.27" y="-64" font-family="Helvetica,sans-Serif" font-size="10.00">fsl_uart_freertos.h</text>
</a>
</g>
</g>
<!-- Node21&#45;&gt;Node22 -->
<g id="edge34_Node000021_Node000022" class="edge">
<title>Node21&#45;&gt;Node22</title>
<g id="a_edge34_Node000021_Node000022"><a xlink:title=" ">
<path fill="none" stroke="#63b8ff" d="M187.81,-113.09C164.24,-104.37 129.5,-91.52 103.2,-81.79"/>
<polygon fill="#63b8ff" stroke="#63b8ff" points="104.51,-78.54 93.92,-78.35 102.08,-85.11 104.51,-78.54"/>
</a>
</g>
</g>
</g>
</svg>

<g id="navigator" transform="translate(0 0)" fill="#404254">
  <rect fill="#f2f5e9" fill-opacity="0.5" stroke="#606060" stroke-width=".5" x="0" y="0" width="60" height="60"/>
  <use id="zoomplus" xlink:href="#zoomPlus" x="17" y="9" onmousedown="handleZoom(evt,'in')"/>
  <use id="zoomminus" xlink:href="#zoomMin" x="42" y="9" onmousedown="handleZoom(evt,'out')"/>
  <use id="reset" xlink:href="#resetDef" x="30" y="36" onmousedown="handleReset()"/>
   <use id="arrowup" xlink:href="#arrowUp" x="0" y="0" onmousedown="handlePan(0,-1)"/>
  <use id="arrowright" xlink:href="#arrowRight" x="0" y="0" onmousedown="handlePan(1,0)"/>
  <use id="arrowdown" xlink:href="#arrowDown" x="0" y="0" onmousedown="handlePan(0,1)"/>
  <use id="arrowleft" xlink:href="#arrowLeft" x="0" y="0" onmousedown="handlePan(-1,0)"/>
</g>
<svg viewBox="0 0 15 15" width="100%" height="30px" preserveAspectRatio="xMaxYMin meet">
 <g id="arrow_out" transform="scale(0.3 0.3)">
  <a xlink:href="motor__internal_8h__incl_org.svg" target="_base">
   <rect id="button" ry="5" rx="5" y="6" x="6" height="38" width="38"
        fill="#f2f5e9" fill-opacity="0.5" stroke="#606060" stroke-width="1.0"/>
   <path id="arrow"
     d="M 11.500037,31.436501 C 11.940474,20.09759 22.043105,11.32322 32.158766,21.979434 L 37.068811,17.246167 C 37.068811,17.246167 37.088388,32 37.088388,32 L 22.160133,31.978069 C 22.160133,31.978069 26.997745,27.140456 26.997745,27.140456 C 18.528582,18.264221 13.291696,25.230495 11.500037,31.436501 z"
     style="fill:#404040;"/>
  </a>
 </g>
</svg>

<style type='text/css'>
<![CDATA[
[data-mouse-over-selected='false'] { opacity: 0.7; }
[data-mouse-over-selected='true']  { opacity: 1.0; }
]]>
</style>
<script type="application/ecmascript"><![CDATA[
document.addEventListener('DOMContentLoaded', (event) => {
  highlightEdges();
  highlightAdjacentNodes();
});
]]></script>
</svg>
