<?xml version="1.0" encoding="UTF-8" standalone="no"?>
<!DOCTYPE svg PUBLIC "-//W3C//DTD SVG 1.1//EN"
 "http://www.w3.org/Graphics/SVG/1.1/DTD/svg11.dtd">
<!-- Generated by graphviz version 14.1.5 (0)
 -->
<!-- Title: source/motion/motor/motor_sync.h Pages: 1 -->
<svg width="1185pt" height="382pt"
 viewBox="0.00 0.00 1185.00 382.00" xmlns="http://www.w3.org/2000/svg" xmlns:xlink="http://www.w3.org/1999/xlink">
<g id="graph0" class="graph" transform="scale(1 1) rotate(0) translate(4 378)">
<title>source/motion/motor/motor_sync.h</title>
<!-- Node1 -->
<g id="Node000001" class="node">
<title>Node1</title>
<g id="a_Node000001"><a xlink:title=" ">
<polygon fill="#999999" stroke="#666666" points="702.38,-374 584.38,-374 584.38,-340.5 702.38,-340.5 702.38,-374"/>
<text xml:space="preserve" text-anchor="start" x="592.38" y="-360.5" font-family="Helvetica,sans-Serif" font-size="10.00">source/motion/motor</text>
<text xml:space="preserve" text-anchor="middle" x="643.38" y="-347.75" font-family="Helvetica,sans-Serif" font-size="10.00">/motor_sync.h</text>
</a>
</g>
</g>
<!-- Node2 -->
<g id="Node000002" class="node">
<title>Node2</title>
<g id="a_Node000002"><a xlink:title=" ">
<polygon fill="#e0e0e0" stroke="#999999" points="678.75,-77.5 626,-77.5 626,-56.75 678.75,-56.75 678.75,-77.5"/>
<text xml:space="preserve" text-anchor="middle" x="652.38" y="-64" font-family="Helvetica,sans-Serif" font-size="10.00">stdint.h</text>
</a>
</g>
</g>
<!-- Node1&#45;&gt;Node2 -->
<g id="edge1_Node000001_Node000002" class="edge">
<title>Node1&#45;&gt;Node2</title>
<g id="a_edge1_Node000001_Node000002"><a xlink:title=" ">
<path fill="none" stroke="#63b8ff" d="M635.61,-340.19C626.04,-319.42 610.32,-281.86 604.38,-247.75 602.79,-238.66 603.03,-236.12 604.38,-227 611.93,-175.89 632.45,-118.44 644.06,-88.6"/>
<polygon fill="#63b8ff" stroke="#63b8ff" points="647.31,-89.92 647.74,-79.34 640.8,-87.34 647.31,-89.92"/>
</a>
</g>
</g>
<!-- Node3 -->
<g id="Node000003" class="node">
<title>Node3</title>
<g id="a_Node000003"><a xlink:href="motor__internal_8h.html" target="_top" xlink:title=" ">
<polygon fill="white" stroke="#666666" points="750.88,-304.5 653.88,-304.5 653.88,-283.75 750.88,-283.75 750.88,-304.5"/>
<text xml:space="preserve" text-anchor="middle" x="702.38" y="-291" font-family="Helvetica,sans-Serif" font-size="10.00">motor_internal.h</text>
</a>
</g>
</g>
<!-- Node1&#45;&gt;Node3 -->
<g id="edge2_Node000001_Node000003" class="edge">
<title>Node1&#45;&gt;Node3</title>
<g id="a_edge2_Node000001_Node000003"><a xlink:title=" ">
<path fill="none" stroke="#63b8ff" d="M658.88,-340.19C666.88,-331.89 676.68,-321.74 684.95,-313.18"/>
<polygon fill="#63b8ff" stroke="#63b8ff" points="687.4,-315.68 691.82,-306.06 682.36,-310.82 687.4,-315.68"/>
</a>
</g>
</g>
<!-- Node3&#45;&gt;Node2 -->
<g id="edge3_Node000003_Node000002" class="edge">
<title>Node3&#45;&gt;Node2</title>
<g id="a_edge3_Node000003_Node000002"><a xlink:title=" ">
<path fill="none" stroke="#63b8ff" d="M700.23,-283.46C692.71,-249.63 667.48,-136.11 657,-88.94"/>
<polygon fill="#63b8ff" stroke="#63b8ff" points="660.43,-88.24 654.84,-79.23 653.6,-89.76 660.43,-88.24"/>
</a>
</g>
</g>
<!-- Node4 -->
<g id="Node000004" class="node">
<title>Node4</title>
<g id="a_Node000004"><a xlink:title=" ">
<polygon fill="#e0e0e0" stroke="#999999" points="673.88,-247.75 612.88,-247.75 612.88,-227 673.88,-227 673.88,-247.75"/>
<text xml:space="preserve" text-anchor="middle" x="643.38" y="-234.25" font-family="Helvetica,sans-Serif" font-size="10.00">stdbool.h</text>
</a>
</g>
</g>
<!-- Node3&#45;&gt;Node4 -->
<g id="edge4_Node000003_Node000004" class="edge">
<title>Node3&#45;&gt;Node4</title>
<g id="a_edge4_Node000003_Node000004"><a xlink:title=" ">
<path fill="none" stroke="#63b8ff" d="M691.83,-283.34C683.6,-275.71 671.98,-264.92 662.17,-255.82"/>
<polygon fill="#63b8ff" stroke="#63b8ff" points="664.65,-253.34 654.94,-249.11 659.89,-258.48 664.65,-253.34"/>
</a>
</g>
</g>
<!-- Node5 -->
<g id="Node000005" class="node">
<title>Node5</title>
<g id="a_Node000005"><a xlink:href="motor__core_8h.html" target="_top" xlink:title=" ">
<polygon fill="white" stroke="#666666" points="489.62,-247.75 409.12,-247.75 409.12,-227 489.62,-227 489.62,-247.75"/>
<text xml:space="preserve" text-anchor="middle" x="449.38" y="-234.25" font-family="Helvetica,sans-Serif" font-size="10.00">motor_core.h</text>
</a>
</g>
</g>
<!-- Node3&#45;&gt;Node5 -->
<g id="edge5_Node000003_Node000005" class="edge">
<title>Node3&#45;&gt;Node5</title>
<g id="a_edge5_Node000003_Node000005"><a xlink:title=" ">
<path fill="none" stroke="#63b8ff" d="M656.85,-283.27C613.05,-273.79 546.89,-259.48 501.11,-249.57"/>
<polygon fill="#63b8ff" stroke="#63b8ff" points="501.93,-246.17 491.42,-247.47 500.45,-253.01 501.93,-246.17"/>
</a>
</g>
</g>
<!-- Node11 -->
<g id="Node000011" class="node">
<title>Node11</title>
<g id="a_Node000011"><a xlink:title=" ">
<polygon fill="#e0e0e0" stroke="#999999" points="1024.12,-77.5 952.62,-77.5 952.62,-56.75 1024.12,-56.75 1024.12,-77.5"/>
<text xml:space="preserve" text-anchor="middle" x="988.38" y="-64" font-family="Helvetica,sans-Serif" font-size="10.00">FreeRTOS.h</text>
</a>
</g>
</g>
<!-- Node3&#45;&gt;Node11 -->
<g id="edge43_Node000003_Node000011" class="edge">
<title>Node3&#45;&gt;Node11</title>
<g id="a_edge43_Node000003_Node000011"><a xlink:title=" ">
<path fill="none" stroke="#63b8ff" d="M751.16,-285.61C825.44,-271.21 964.36,-231.99 1022.38,-134.25 1031.89,-118.22 1019.86,-99.24 1007.56,-85.74"/>
<polygon fill="#63b8ff" stroke="#63b8ff" points="1010.24,-83.47 1000.72,-78.81 1005.26,-88.39 1010.24,-83.47"/>
</a>
</g>
</g>
<!-- Node16 -->
<g id="Node000016" class="node">
<title>Node16</title>
<g id="a_Node000016"><a xlink:href="cmd__handle_8h.html" target="_top" xlink:title=" ">
<polygon fill="white" stroke="#666666" points="851.5,-134.25 767.25,-134.25 767.25,-113.5 851.5,-113.5 851.5,-134.25"/>
<text xml:space="preserve" text-anchor="middle" x="809.38" y="-120.75" font-family="Helvetica,sans-Serif" font-size="10.00">cmd_handle.h</text>
</a>
</g>
</g>
<!-- Node3&#45;&gt;Node16 -->
<g id="edge45_Node000003_Node000016" class="edge">
<title>Node3&#45;&gt;Node16</title>
<g id="a_edge45_Node000003_Node000016"><a xlink:title=" ">
<path fill="none" stroke="#63b8ff" d="M742.22,-283.39C761.37,-276.61 782.83,-265.5 795.38,-247.75 816.78,-217.46 815.67,-172.1 812.69,-145.8"/>
<polygon fill="#63b8ff" stroke="#63b8ff" points="816.18,-145.51 811.37,-136.07 809.24,-146.45 816.18,-145.51"/>
</a>
</g>
</g>
<!-- Node24 -->
<g id="Node000024" class="node">
<title>Node24</title>
<g id="a_Node000024"><a xlink:title=" ">
<polygon fill="#e0e0e0" stroke="#999999" points="785.88,-247.75 730.88,-247.75 730.88,-227 785.88,-227 785.88,-247.75"/>
<text xml:space="preserve" text-anchor="middle" x="758.38" y="-234.25" font-family="Helvetica,sans-Serif" font-size="10.00">queue.h</text>
</a>
</g>
</g>
<!-- Node3&#45;&gt;Node24 -->
<g id="edge44_Node000003_Node000024" class="edge">
<title>Node3&#45;&gt;Node24</title>
<g id="a_edge44_Node000003_Node000024"><a xlink:title=" ">
<path fill="none" stroke="#63b8ff" d="M712.39,-283.34C720.11,-275.78 731,-265.14 740.25,-256.1"/>
<polygon fill="#63b8ff" stroke="#63b8ff" points="742.66,-258.63 747.37,-249.14 737.77,-253.62 742.66,-258.63"/>
</a>
</g>
</g>
<!-- Node6 -->
<g id="Node000006" class="node">
<title>Node6</title>
<g id="a_Node000006"><a xlink:href="pca9555a_8h.html" target="_top" xlink:title=" ">
<polygon fill="white" stroke="#666666" points="312.38,-77.5 158.38,-77.5 158.38,-56.75 312.38,-56.75 312.38,-77.5"/>
<text xml:space="preserve" text-anchor="middle" x="235.38" y="-64" font-family="Helvetica,sans-Serif" font-size="10.00">driver/pca9555a/pca9555a.h</text>
</a>
</g>
</g>
<!-- Node5&#45;&gt;Node6 -->
<g id="edge6_Node000005_Node000006" class="edge">
<title>Node5&#45;&gt;Node6</title>
<g id="a_edge6_Node000005_Node000006"><a xlink:title=" ">
<path fill="none" stroke="#63b8ff" d="M425.34,-226.5C389.75,-210.99 322.43,-178.08 277.38,-134.25 263.53,-120.78 252.12,-101.9 244.7,-87.76"/>
<polygon fill="#63b8ff" stroke="#63b8ff" points="247.92,-86.37 240.32,-78.99 241.66,-89.5 247.92,-86.37"/>
</a>
</g>
</g>
<!-- Node9 -->
<g id="Node000009" class="node">
<title>Node9</title>
<g id="a_Node000009"><a xlink:title=" ">
<polygon fill="#e0e0e0" stroke="#999999" points="597.75,-191 509,-191 509,-170.25 597.75,-170.25 597.75,-191"/>
<text xml:space="preserve" text-anchor="middle" x="553.38" y="-177.5" font-family="Helvetica,sans-Serif" font-size="10.00">MK22F51212.h</text>
</a>
</g>
</g>
<!-- Node5&#45;&gt;Node9 -->
<g id="edge9_Node000005_Node000009" class="edge">
<title>Node5&#45;&gt;Node9</title>
<g id="a_edge9_Node000005_Node000009"><a xlink:title=" ">
<path fill="none" stroke="#63b8ff" d="M467.97,-226.59C483.79,-218.26 506.77,-206.16 524.91,-196.61"/>
<polygon fill="#63b8ff" stroke="#63b8ff" points="526.39,-199.79 533.6,-192.03 523.12,-193.59 526.39,-199.79"/>
</a>
</g>
</g>
<!-- Node10 -->
<g id="Node000010" class="node">
<title>Node10</title>
<g id="a_Node000010"><a xlink:href="step__core_8h.html" target="_top" xlink:title=" ">
<polygon fill="white" stroke="#666666" points="453.5,-191 381.25,-191 381.25,-170.25 453.5,-170.25 453.5,-191"/>
<text xml:space="preserve" text-anchor="middle" x="417.38" y="-177.5" font-family="Helvetica,sans-Serif" font-size="10.00">step_core.h</text>
</a>
</g>
</g>
<!-- Node5&#45;&gt;Node10 -->
<g id="edge10_Node000005_Node000010" class="edge">
<title>Node5&#45;&gt;Node10</title>
<g id="a_edge10_Node000005_Node000010"><a xlink:title=" ">
<path fill="none" stroke="#63b8ff" d="M443.65,-226.59C439.51,-219.5 433.78,-209.69 428.72,-201.04"/>
<polygon fill="#63b8ff" stroke="#63b8ff" points="431.88,-199.5 423.81,-192.64 425.83,-203.03 431.88,-199.5"/>
</a>
</g>
</g>
<!-- Node13 -->
<g id="Node000013" class="node">
<title>Node13</title>
<g id="a_Node000013"><a xlink:title=" ">
<polygon fill="#e0e0e0" stroke="#999999" points="58.75,-77.5 0,-77.5 0,-56.75 58.75,-56.75 58.75,-77.5"/>
<text xml:space="preserve" text-anchor="middle" x="29.38" y="-64" font-family="Helvetica,sans-Serif" font-size="10.00">fsl_ftm.h</text>
</a>
</g>
</g>
<!-- Node5&#45;&gt;Node13 -->
<g id="edge40_Node000005_Node000013" class="edge">
<title>Node5&#45;&gt;Node13</title>
<g id="a_edge40_Node000005_Node000013"><a xlink:title=" ">
<path fill="none" stroke="#63b8ff" d="M408.69,-228.08C373.38,-220.31 321.18,-207.44 277.38,-191 193.45,-159.51 100.15,-108.67 55.7,-83.4"/>
<polygon fill="#63b8ff" stroke="#63b8ff" points="57.72,-80.52 47.3,-78.59 54.24,-86.59 57.72,-80.52"/>
</a>
</g>
</g>
<!-- Node14 -->
<g id="Node000014" class="node">
<title>Node14</title>
<g id="a_Node000014"><a xlink:title=" ">
<polygon fill="#e0e0e0" stroke="#999999" points="140,-77.5 76.75,-77.5 76.75,-56.75 140,-56.75 140,-77.5"/>
<text xml:space="preserve" text-anchor="middle" x="108.38" y="-64" font-family="Helvetica,sans-Serif" font-size="10.00">fsl_gpio.h</text>
</a>
</g>
</g>
<!-- Node5&#45;&gt;Node14 -->
<g id="edge41_Node000005_Node000014" class="edge">
<title>Node5&#45;&gt;Node14</title>
<g id="a_edge41_Node000005_Node000014"><a xlink:title=" ">
<path fill="none" stroke="#63b8ff" d="M415.55,-226.53C388.9,-218.3 351.08,-205.6 319.38,-191 248.33,-158.28 170.09,-108.9 131.93,-83.87"/>
<polygon fill="#63b8ff" stroke="#63b8ff" points="134.23,-81.19 123.95,-78.6 130.37,-87.03 134.23,-81.19"/>
</a>
</g>
</g>
<!-- Node15 -->
<g id="Node000015" class="node">
<title>Node15</title>
<g id="a_Node000015"><a xlink:title=" ">
<polygon fill="#e0e0e0" stroke="#999999" points="570.25,-77.5 508.5,-77.5 508.5,-56.75 570.25,-56.75 570.25,-77.5"/>
<text xml:space="preserve" text-anchor="middle" x="539.38" y="-64" font-family="Helvetica,sans-Serif" font-size="10.00">fsl_port.h</text>
</a>
</g>
</g>
<!-- Node5&#45;&gt;Node15 -->
<g id="edge42_Node000005_Node000015" class="edge">
<title>Node5&#45;&gt;Node15</title>
<g id="a_edge42_Node000005_Node000015"><a xlink:title=" ">
<path fill="none" stroke="#63b8ff" d="M455.68,-226.75C467.24,-208.9 492.3,-169.31 510.38,-134.25 518.19,-119.08 525.9,-101.35 531.4,-88.07"/>
<polygon fill="#63b8ff" stroke="#63b8ff" points="534.51,-89.7 535.04,-79.12 528.03,-87.06 534.51,-89.7"/>
</a>
</g>
</g>
<!-- Node21 -->
<g id="Node000021" class="node">
<title>Node21</title>
<g id="a_Node000021"><a xlink:href="tmc2209__core_8h.html" target="_top" xlink:title=" ">
<polygon fill="white" stroke="#666666" points="786.38,-191 692.38,-191 692.38,-170.25 786.38,-170.25 786.38,-191"/>
<text xml:space="preserve" text-anchor="middle" x="739.38" y="-177.5" font-family="Helvetica,sans-Serif" font-size="10.00">tmc2209_core.h</text>
</a>
</g>
</g>
<!-- Node5&#45;&gt;Node21 -->
<g id="edge32_Node000005_Node000021" class="edge">
<title>Node5&#45;&gt;Node21</title>
<g id="a_edge32_Node000005_Node000021"><a xlink:title=" ">
<path fill="none" stroke="#63b8ff" d="M490,-228.7C539.73,-219.32 624.31,-203.35 681,-192.65"/>
<polygon fill="#63b8ff" stroke="#63b8ff" points="681.63,-196.09 690.81,-190.79 680.33,-189.21 681.63,-196.09"/>
</a>
</g>
</g>
<!-- Node7 -->
<g id="Node000007" class="node">
<title>Node7</title>
<g id="a_Node000007"><a xlink:title=" ">
<polygon fill="#e0e0e0" stroke="#999999" points="640.88,-20.75 555.88,-20.75 555.88,0 640.88,0 640.88,-20.75"/>
<text xml:space="preserve" text-anchor="middle" x="598.38" y="-7.25" font-family="Helvetica,sans-Serif" font-size="10.00">fsl_common.h</text>
</a>
</g>
</g>
<!-- Node6&#45;&gt;Node7 -->
<g id="edge7_Node000006_Node000007" class="edge">
<title>Node6&#45;&gt;Node7</title>
<g id="a_edge7_Node000006_Node000007"><a xlink:title=" ">
<path fill="none" stroke="#63b8ff" d="M300.69,-56.27C370.3,-45.77 479.25,-29.34 544.25,-19.54"/>
<polygon fill="#63b8ff" stroke="#63b8ff" points="544.6,-23.03 553.96,-18.07 543.55,-16.1 544.6,-23.03"/>
</a>
</g>
</g>
<!-- Node8 -->
<g id="Node000008" class="node">
<title>Node8</title>
<g id="a_Node000008"><a xlink:title=" ">
<polygon fill="#e0e0e0" stroke="#999999" points="407.25,-20.75 327.5,-20.75 327.5,0 407.25,0 407.25,-20.75"/>
<text xml:space="preserve" text-anchor="middle" x="367.38" y="-7.25" font-family="Helvetica,sans-Serif" font-size="10.00">peripherals.h</text>
</a>
</g>
</g>
<!-- Node6&#45;&gt;Node8 -->
<g id="edge8_Node000006_Node000008" class="edge">
<title>Node6&#45;&gt;Node8</title>
<g id="a_edge8_Node000006_Node000008"><a xlink:title=" ">
<path fill="none" stroke="#63b8ff" d="M258.97,-56.34C279.72,-47.73 310.15,-35.11 333.49,-25.43"/>
<polygon fill="#63b8ff" stroke="#63b8ff" points="334.69,-28.72 342.58,-21.66 332,-22.26 334.69,-28.72"/>
</a>
</g>
</g>
<!-- Node10&#45;&gt;Node6 -->
<g id="edge11_Node000010_Node000006" class="edge">
<title>Node10&#45;&gt;Node6</title>
<g id="a_edge11_Node000010_Node000006"><a xlink:title=" ">
<path fill="none" stroke="#63b8ff" d="M384.78,-169.79C361.82,-162.05 330.93,-149.95 306.38,-134.25 285.22,-120.72 264.63,-100.53 251.12,-86.02"/>
<polygon fill="#63b8ff" stroke="#63b8ff" points="254.01,-84 244.7,-78.95 248.83,-88.7 254.01,-84"/>
</a>
</g>
</g>
<!-- Node10&#45;&gt;Node7 -->
<g id="edge14_Node000010_Node000007" class="edge">
<title>Node10&#45;&gt;Node7</title>
<g id="a_edge14_Node000010_Node000007"><a xlink:title=" ">
<path fill="none" stroke="#63b8ff" d="M446.82,-169.79C484.19,-155.66 547.62,-125.85 579.38,-77.5 588.31,-63.89 593.12,-46.03 595.66,-32.31"/>
<polygon fill="#63b8ff" stroke="#63b8ff" points="599.09,-33.02 597.18,-22.6 592.17,-31.94 599.09,-33.02"/>
</a>
</g>
</g>
<!-- Node10&#45;&gt;Node11 -->
<g id="edge12_Node000010_Node000011" class="edge">
<title>Node10&#45;&gt;Node11</title>
<g id="a_edge12_Node000010_Node000011"><a xlink:title=" ">
<path fill="none" stroke="#63b8ff" d="M453.73,-175.42C468.23,-173.76 485.09,-171.88 500.38,-170.25 660.27,-153.23 706.75,-181.73 860.38,-134.25 878.76,-128.57 881.34,-122.44 898.38,-113.5 918.26,-103.06 940.83,-91.68 958.4,-82.93"/>
<polygon fill="#63b8ff" stroke="#63b8ff" points="959.86,-86.11 967.26,-78.53 956.75,-79.84 959.86,-86.11"/>
</a>
</g>
</g>
<!-- Node12 -->
<g id="Node000012" class="node">
<title>Node12</title>
<g id="a_Node000012"><a xlink:title=" ">
<polygon fill="#e0e0e0" stroke="#999999" points="501.38,-134.25 455.38,-134.25 455.38,-113.5 501.38,-113.5 501.38,-134.25"/>
<text xml:space="preserve" text-anchor="middle" x="478.38" y="-120.75" font-family="Helvetica,sans-Serif" font-size="10.00">task.h</text>
</a>
</g>
</g>
<!-- Node10&#45;&gt;Node12 -->
<g id="edge13_Node000010_Node000012" class="edge">
<title>Node10&#45;&gt;Node12</title>
<g id="a_edge13_Node000010_Node000012"><a xlink:title=" ">
<path fill="none" stroke="#63b8ff" d="M428.28,-169.84C436.87,-162.13 449.05,-151.2 459.25,-142.04"/>
<polygon fill="#63b8ff" stroke="#63b8ff" points="461.33,-144.87 466.44,-135.59 456.66,-139.66 461.33,-144.87"/>
</a>
</g>
</g>
<!-- Node10&#45;&gt;Node13 -->
<g id="edge15_Node000010_Node000013" class="edge">
<title>Node10&#45;&gt;Node13</title>
<g id="a_edge15_Node000010_Node000013"><a xlink:title=" ">
<path fill="none" stroke="#63b8ff" d="M381.02,-172.09C342.21,-163.81 279.05,-149.61 225.38,-134.25 169.32,-118.21 105.53,-95.92 66.37,-81.76"/>
<polygon fill="#63b8ff" stroke="#63b8ff" points="67.77,-78.54 57.18,-78.42 65.38,-85.12 67.77,-78.54"/>
</a>
</g>
</g>
<!-- Node10&#45;&gt;Node14 -->
<g id="edge16_Node000010_Node000014" class="edge">
<title>Node10&#45;&gt;Node14</title>
<g id="a_edge16_Node000010_Node000014"><a xlink:title=" ">
<path fill="none" stroke="#63b8ff" d="M384.92,-169.77C356.41,-160.96 313.9,-147.44 277.38,-134.25 253.97,-125.8 248.53,-122.61 225.38,-113.5 198.37,-102.88 167.79,-91.02 144.67,-82.1"/>
<polygon fill="#63b8ff" stroke="#63b8ff" points="145.97,-78.85 135.38,-78.51 143.45,-85.38 145.97,-78.85"/>
</a>
</g>
</g>
<!-- Node10&#45;&gt;Node15 -->
<g id="edge17_Node000010_Node000015" class="edge">
<title>Node10&#45;&gt;Node15</title>
<g id="a_edge17_Node000010_Node000015"><a xlink:title=" ">
<path fill="none" stroke="#63b8ff" d="M419.39,-169.9C422.76,-155.85 430.75,-129.78 446.38,-113.5 460.39,-98.91 480.07,-88.37 497.72,-81.15"/>
<polygon fill="#63b8ff" stroke="#63b8ff" points="498.88,-84.45 506.97,-77.61 496.38,-77.91 498.88,-84.45"/>
</a>
</g>
</g>
<!-- Node10&#45;&gt;Node16 -->
<g id="edge18_Node000010_Node000016" class="edge">
<title>Node10&#45;&gt;Node16</title>
<g id="a_edge18_Node000010_Node000016"><a xlink:title=" ">
<path fill="none" stroke="#63b8ff" d="M453.9,-174.52C523.43,-164.81 675.05,-143.64 755.98,-132.33"/>
<polygon fill="#63b8ff" stroke="#63b8ff" points="755.99,-135.86 765.41,-131.02 755.03,-128.93 755.99,-135.86"/>
</a>
</g>
</g>
<!-- Node19 -->
<g id="Node000019" class="node">
<title>Node19</title>
<g id="a_Node000019"><a xlink:href="step__shared_8h.html" target="_top" xlink:title=" ">
<polygon fill="white" stroke="#666666" points="399.5,-134.25 315.25,-134.25 315.25,-113.5 399.5,-113.5 399.5,-134.25"/>
<text xml:space="preserve" text-anchor="middle" x="357.38" y="-120.75" font-family="Helvetica,sans-Serif" font-size="10.00">step_shared.h</text>
</a>
</g>
</g>
<!-- Node10&#45;&gt;Node19 -->
<g id="edge24_Node000010_Node000019" class="edge">
<title>Node10&#45;&gt;Node19</title>
<g id="a_edge24_Node000010_Node000019"><a xlink:title=" ">
<path fill="none" stroke="#63b8ff" d="M406.65,-169.84C398.29,-162.21 386.46,-151.42 376.49,-142.32"/>
<polygon fill="#63b8ff" stroke="#63b8ff" points="378.87,-139.75 369.13,-135.6 374.15,-144.92 378.87,-139.75"/>
</a>
</g>
</g>
<!-- Node16&#45;&gt;Node2 -->
<g id="edge19_Node000016_Node000002" class="edge">
<title>Node16&#45;&gt;Node2</title>
<g id="a_edge19_Node000016_Node000002"><a xlink:title=" ">
<path fill="none" stroke="#63b8ff" d="M781.31,-113.09C755.77,-104.18 717.88,-90.97 689.77,-81.17"/>
<polygon fill="#63b8ff" stroke="#63b8ff" points="691.18,-77.95 680.58,-77.96 688.87,-84.56 691.18,-77.95"/>
</a>
</g>
</g>
<!-- Node16&#45;&gt;Node7 -->
<g id="edge22_Node000016_Node000007" class="edge">
<title>Node16&#45;&gt;Node7</title>
<g id="a_edge22_Node000016_Node000007"><a xlink:title=" ">
<path fill="none" stroke="#63b8ff" d="M846.39,-113.03C881.84,-101.82 926.99,-81.8 905.38,-56.75 873.33,-19.62 731.61,-12.35 652.41,-11.25"/>
<polygon fill="#63b8ff" stroke="#63b8ff" points="652.75,-7.76 642.71,-11.15 652.67,-14.76 652.75,-7.76"/>
</a>
</g>
</g>
<!-- Node16&#45;&gt;Node11 -->
<g id="edge20_Node000016_Node000011" class="edge">
<title>Node16&#45;&gt;Node11</title>
<g id="a_edge20_Node000016_Node000011"><a xlink:title=" ">
<path fill="none" stroke="#63b8ff" d="M841.38,-113.09C870.43,-104.2 913.51,-91.02 945.53,-81.23"/>
<polygon fill="#63b8ff" stroke="#63b8ff" points="946.36,-84.64 954.9,-78.36 944.32,-77.94 946.36,-84.64"/>
</a>
</g>
</g>
<!-- Node17 -->
<g id="Node000017" class="node">
<title>Node17</title>
<g id="a_Node000017"><a xlink:title=" ">
<polygon fill="#e0e0e0" stroke="#999999" points="825.88,-77.5 734.88,-77.5 734.88,-56.75 825.88,-56.75 825.88,-77.5"/>
<text xml:space="preserve" text-anchor="middle" x="780.38" y="-64" font-family="Helvetica,sans-Serif" font-size="10.00">event_groups.h</text>
</a>
</g>
</g>
<!-- Node16&#45;&gt;Node17 -->
<g id="edge21_Node000016_Node000017" class="edge">
<title>Node16&#45;&gt;Node17</title>
<g id="a_edge21_Node000016_Node000017"><a xlink:title=" ">
<path fill="none" stroke="#63b8ff" d="M804.19,-113.09C800.48,-106.08 795.36,-96.41 790.81,-87.83"/>
<polygon fill="#63b8ff" stroke="#63b8ff" points="794,-86.36 786.22,-79.17 787.81,-89.64 794,-86.36"/>
</a>
</g>
</g>
<!-- Node18 -->
<g id="Node000018" class="node">
<title>Node18</title>
<g id="a_Node000018"><a xlink:title=" ">
<polygon fill="#e0e0e0" stroke="#999999" points="896.38,-77.5 844.38,-77.5 844.38,-56.75 896.38,-56.75 896.38,-77.5"/>
<text xml:space="preserve" text-anchor="middle" x="870.38" y="-64" font-family="Helvetica,sans-Serif" font-size="10.00">stdlib.h</text>
</a>
</g>
</g>
<!-- Node16&#45;&gt;Node18 -->
<g id="edge23_Node000016_Node000018" class="edge">
<title>Node16&#45;&gt;Node18</title>
<g id="a_edge23_Node000016_Node000018"><a xlink:title=" ">
<path fill="none" stroke="#63b8ff" d="M820.28,-113.09C828.87,-105.38 841.05,-94.45 851.25,-85.29"/>
<polygon fill="#63b8ff" stroke="#63b8ff" points="853.33,-88.12 858.44,-78.84 848.66,-82.91 853.33,-88.12"/>
</a>
</g>
</g>
<!-- Node19&#45;&gt;Node2 -->
<g id="edge25_Node000019_Node000002" class="edge">
<title>Node19&#45;&gt;Node2</title>
<g id="a_edge25_Node000019_Node000002"><a xlink:title=" ">
<path fill="none" stroke="#63b8ff" d="M399.96,-114.97C457.6,-104.27 559.59,-85.35 614.63,-75.13"/>
<polygon fill="#63b8ff" stroke="#63b8ff" points="614.95,-78.63 624.14,-73.37 613.67,-71.75 614.95,-78.63"/>
</a>
</g>
</g>
<!-- Node19&#45;&gt;Node6 -->
<g id="edge26_Node000019_Node000006" class="edge">
<title>Node19&#45;&gt;Node6</title>
<g id="a_edge26_Node000019_Node000006"><a xlink:title=" ">
<path fill="none" stroke="#63b8ff" d="M335.56,-113.09C316.57,-104.56 288.78,-92.09 267.28,-82.44"/>
<polygon fill="#63b8ff" stroke="#63b8ff" points="268.93,-79.35 258.38,-78.45 266.07,-85.74 268.93,-79.35"/>
</a>
</g>
</g>
<!-- Node19&#45;&gt;Node7 -->
<g id="edge28_Node000019_Node000007" class="edge">
<title>Node19&#45;&gt;Node7</title>
<g id="a_edge28_Node000019_Node000007"><a xlink:title=" ">
<path fill="none" stroke="#63b8ff" d="M381.61,-113.02C402.86,-104.2 434.49,-90.67 461.38,-77.5 478.65,-69.03 482.17,-65.38 499.38,-56.75 521.09,-45.86 545.95,-34.47 565.32,-25.83"/>
<polygon fill="#63b8ff" stroke="#63b8ff" points="566.64,-29.07 574.37,-21.82 563.81,-22.67 566.64,-29.07"/>
</a>
</g>
</g>
<!-- Node19&#45;&gt;Node13 -->
<g id="edge29_Node000019_Node000013" class="edge">
<title>Node19&#45;&gt;Node13</title>
<g id="a_edge29_Node000019_Node000013"><a xlink:title=" ">
<path fill="none" stroke="#63b8ff" d="M314.91,-117.4C260.43,-110.13 162.81,-96.23 70.43,-77.99"/>
<polygon fill="#63b8ff" stroke="#63b8ff" points="71.17,-74.56 60.67,-76.04 69.79,-81.43 71.17,-74.56"/>
</a>
</g>
</g>
<!-- Node19&#45;&gt;Node14 -->
<g id="edge30_Node000019_Node000014" class="edge">
<title>Node19&#45;&gt;Node14</title>
<g id="a_edge30_Node000019_Node000014"><a xlink:title=" ">
<path fill="none" stroke="#63b8ff" d="M315.12,-113.79C275.37,-105.21 213.91,-91.87 151.07,-77.86"/>
<polygon fill="#63b8ff" stroke="#63b8ff" points="152.15,-74.52 141.63,-75.75 150.63,-81.35 152.15,-74.52"/>
</a>
</g>
</g>
<!-- Node19&#45;&gt;Node15 -->
<g id="edge31_Node000019_Node000015" class="edge">
<title>Node19&#45;&gt;Node15</title>
<g id="a_edge31_Node000019_Node000015"><a xlink:title=" ">
<path fill="none" stroke="#63b8ff" d="M389.91,-113.09C419.82,-104.09 464.34,-90.7 497.01,-80.87"/>
<polygon fill="#63b8ff" stroke="#63b8ff" points="498.01,-84.22 506.58,-77.99 496,-77.52 498.01,-84.22"/>
</a>
</g>
</g>
<!-- Node20 -->
<g id="Node000020" class="node">
<title>Node20</title>
<g id="a_Node000020"><a xlink:title=" ">
<polygon fill="#e0e0e0" stroke="#999999" points="452.62,-77.5 330.12,-77.5 330.12,-56.75 452.62,-56.75 452.62,-77.5"/>
<text xml:space="preserve" text-anchor="middle" x="391.38" y="-64" font-family="Helvetica,sans-Serif" font-size="10.00">fsl_device_registers.h</text>
</a>
</g>
</g>
<!-- Node19&#45;&gt;Node20 -->
<g id="edge27_Node000019_Node000020" class="edge">
<title>Node19&#45;&gt;Node20</title>
<g id="a_edge27_Node000019_Node000020"><a xlink:title=" ">
<path fill="none" stroke="#63b8ff" d="M363.45,-113.09C367.85,-106 373.95,-96.19 379.32,-87.54"/>
<polygon fill="#63b8ff" stroke="#63b8ff" points="382.25,-89.46 384.55,-79.11 376.3,-85.76 382.25,-89.46"/>
</a>
</g>
</g>
<!-- Node21&#45;&gt;Node2 -->
<g id="edge33_Node000021_Node000002" class="edge">
<title>Node21&#45;&gt;Node2</title>
<g id="a_edge33_Node000021_Node000002"><a xlink:title=" ">
<path fill="none" stroke="#63b8ff" d="M731.96,-170.12C717.58,-151.7 685.7,-110.84 666.95,-86.8"/>
<polygon fill="#63b8ff" stroke="#63b8ff" points="669.86,-84.85 660.95,-79.12 664.35,-89.16 669.86,-84.85"/>
</a>
</g>
</g>
<!-- Node21&#45;&gt;Node7 -->
<g id="edge37_Node000021_Node000007" class="edge">
<title>Node21&#45;&gt;Node7</title>
<g id="a_edge37_Node000021_Node000007"><a xlink:title=" ">
<path fill="none" stroke="#63b8ff" d="M786.73,-180.44C916.87,-181.25 1263.43,-172.86 1156.38,-56.75 1122.65,-20.17 785.82,-13.08 652.4,-11.7"/>
<polygon fill="#63b8ff" stroke="#63b8ff" points="652.81,-8.21 642.77,-11.61 652.74,-15.21 652.81,-8.21"/>
</a>
</g>
</g>
<!-- Node21&#45;&gt;Node8 -->
<g id="edge39_Node000021_Node000008" class="edge">
<title>Node21&#45;&gt;Node8</title>
<g id="a_edge39_Node000021_Node000008"><a xlink:title=" ">
<path fill="none" stroke="#63b8ff" d="M738.45,-170.04C735.61,-146.48 724.83,-85.56 687.38,-56.75 646.36,-25.2 498.36,-15.56 418.81,-12.63"/>
<polygon fill="#63b8ff" stroke="#63b8ff" points="419.21,-9.15 409.1,-12.3 418.97,-16.14 419.21,-9.15"/>
</a>
</g>
</g>
<!-- Node21&#45;&gt;Node16 -->
<g id="edge38_Node000021_Node000016" class="edge">
<title>Node21&#45;&gt;Node16</title>
<g id="a_edge38_Node000021_Node000016"><a xlink:title=" ">
<path fill="none" stroke="#63b8ff" d="M751.89,-169.84C761.94,-161.97 776.29,-150.75 788.13,-141.49"/>
<polygon fill="#63b8ff" stroke="#63b8ff" points="790.06,-144.43 795.78,-135.51 785.74,-138.91 790.06,-144.43"/>
</a>
</g>
</g>
<!-- Node22 -->
<g id="Node000022" class="node">
<title>Node22</title>
<g id="a_Node000022"><a xlink:href="tmc2209__shared_8h.html" target="_top" xlink:title=" ">
<polygon fill="white" stroke="#666666" points="1013.38,-134.25 907.38,-134.25 907.38,-113.5 1013.38,-113.5 1013.38,-134.25"/>
<text xml:space="preserve" text-anchor="middle" x="960.38" y="-120.75" font-family="Helvetica,sans-Serif" font-size="10.00">tmc2209_shared.h</text>
</a>
</g>
</g>
<!-- Node21&#45;&gt;Node22 -->
<g id="edge34_Node000021_Node000022" class="edge">
<title>Node21&#45;&gt;Node22</title>
<g id="a_edge34_Node000021_Node000022"><a xlink:title=" ">
<path fill="none" stroke="#63b8ff" d="M779.14,-169.77C815.64,-160.73 869.9,-147.29 909.54,-137.47"/>
<polygon fill="#63b8ff" stroke="#63b8ff" points="910.22,-140.91 919.09,-135.1 908.54,-134.11 910.22,-140.91"/>
</a>
</g>
</g>
<!-- Node22&#45;&gt;Node2 -->
<g id="edge35_Node000022_Node000002" class="edge">
<title>Node22&#45;&gt;Node2</title>
<g id="a_edge35_Node000022_Node000002"><a xlink:title=" ">
<path fill="none" stroke="#63b8ff" d="M907.08,-113.4C845.16,-102.39 744.57,-84.51 690.18,-74.84"/>
<polygon fill="#63b8ff" stroke="#63b8ff" points="690.93,-71.42 680.47,-73.12 689.71,-78.32 690.93,-71.42"/>
</a>
</g>
</g>
<!-- Node23 -->
<g id="Node000023" class="node">
<title>Node23</title>
<g id="a_Node000023"><a xlink:title=" ">
<polygon fill="#e0e0e0" stroke="#999999" points="1147,-77.5 1041.75,-77.5 1041.75,-56.75 1147,-56.75 1147,-77.5"/>
<text xml:space="preserve" text-anchor="middle" x="1094.38" y="-64" font-family="Helvetica,sans-Serif" font-size="10.00">fsl_uart_freertos.h</text>
</a>
</g>
</g>
<!-- Node22&#45;&gt;Node23 -->
<g id="edge36_Node000022_Node000023" class="edge">
<title>Node22&#45;&gt;Node23</title>
<g id="a_edge36_Node000022_Node000023"><a xlink:title=" ">
<path fill="none" stroke="#63b8ff" d="M984.33,-113.09C1005.39,-104.48 1036.28,-91.86 1059.98,-82.18"/>
<polygon fill="#63b8ff" stroke="#63b8ff" points="1061.29,-85.42 1069.22,-78.4 1058.64,-78.94 1061.29,-85.42"/>
</a>
</g>
</g>
</g>
</svg>
