<?xml version="1.0" encoding="UTF-8" standalone="no"?>
<!DOCTYPE svg PUBLIC "-//W3C//DTD SVG 1.1//EN"
 "http://www.w3.org/Graphics/SVG/1.1/DTD/svg11.dtd">
<!-- Generated by graphviz version 14.1.4 (0)
 -->
<!-- Title: source/motion/motor/motor_init.h Pages: 1 -->
<svg width="1194pt" height="382pt"
 viewBox="0.00 0.00 1194.00 382.00" xmlns="http://www.w3.org/2000/svg" xmlns:xlink="http://www.w3.org/1999/xlink">
<g id="graph0" class="graph" transform="scale(1 1) rotate(0) translate(4 378)">
<title>source/motion/motor/motor_init.h</title>
<!-- Node1 -->
<g id="Node000001" class="node">
<title>Node1</title>
<g id="a_Node000001"><a xlink:title=" ">
<polygon fill="#999999" stroke="#666666" points="698,-374 580,-374 580,-340.5 698,-340.5 698,-374"/>
<text xml:space="preserve" text-anchor="start" x="588" y="-360.5" font-family="Helvetica,sans-Serif" font-size="10.00">source/motion/motor</text>
<text xml:space="preserve" text-anchor="middle" x="639" y="-347.75" font-family="Helvetica,sans-Serif" font-size="10.00">/motor_init.h</text>
</a>
</g>
</g>
<!-- Node2 -->
<g id="Node000002" class="node">
<title>Node2</title>
<g id="a_Node000002"><a xlink:href="motor__core_8h.html" target="_top" xlink:title=" ">
<polygon fill="white" stroke="#666666" points="786.25,-247.75 705.75,-247.75 705.75,-227 786.25,-227 786.25,-247.75"/>
<text xml:space="preserve" text-anchor="middle" x="746" y="-234.25" font-family="Helvetica,sans-Serif" font-size="10.00">motor_core.h</text>
</a>
</g>
</g>
<!-- Node1&#45;&gt;Node2 -->
<g id="edge1_Node000001_Node000002" class="edge">
<title>Node1&#45;&gt;Node2</title>
<g id="a_edge1_Node000001_Node000002"><a xlink:title=" ">
<path fill="none" stroke="#63b8ff" d="M653.43,-340.35C673.18,-318.59 708.56,-279.62 729.39,-256.67"/>
<polygon fill="#63b8ff" stroke="#63b8ff" points="731.95,-259.06 736.08,-249.3 726.77,-254.36 731.95,-259.06"/>
</a>
</g>
</g>
<!-- Node22 -->
<g id="Node000022" class="node">
<title>Node22</title>
<g id="a_Node000022"><a xlink:href="motor__internal_8h.html" target="_top" xlink:title=" ">
<polygon fill="white" stroke="#666666" points="649.5,-304.5 552.5,-304.5 552.5,-283.75 649.5,-283.75 649.5,-304.5"/>
<text xml:space="preserve" text-anchor="middle" x="601" y="-291" font-family="Helvetica,sans-Serif" font-size="10.00">motor_internal.h</text>
</a>
</g>
</g>
<!-- Node1&#45;&gt;Node22 -->
<g id="edge36_Node000001_Node000022" class="edge">
<title>Node1&#45;&gt;Node22</title>
<g id="a_edge36_Node000001_Node000022"><a xlink:title=" ">
<path fill="none" stroke="#63b8ff" d="M629.02,-340.19C624.13,-332.33 618.21,-322.81 613.07,-314.54"/>
<polygon fill="#63b8ff" stroke="#63b8ff" points="616.17,-312.9 607.92,-306.25 610.22,-316.59 616.17,-312.9"/>
</a>
</g>
</g>
<!-- Node3 -->
<g id="Node000003" class="node">
<title>Node3</title>
<g id="a_Node000003"><a xlink:href="pca9555a_8h.html" target="_top" xlink:title=" ">
<polygon fill="white" stroke="#666666" points="1186,-77.5 1032,-77.5 1032,-56.75 1186,-56.75 1186,-77.5"/>
<text xml:space="preserve" text-anchor="middle" x="1109" y="-64" font-family="Helvetica,sans-Serif" font-size="10.00">driver/pca9555a/pca9555a.h</text>
</a>
</g>
</g>
<!-- Node2&#45;&gt;Node3 -->
<g id="edge2_Node000002_Node000003" class="edge">
<title>Node2&#45;&gt;Node3</title>
<g id="a_edge2_Node000002_Node000003"><a xlink:title=" ">
<path fill="none" stroke="#63b8ff" d="M786.55,-233.08C851.52,-227.21 975.45,-213.41 1013,-191 1054.68,-166.13 1085.07,-115.82 1099.54,-87.91"/>
<polygon fill="#63b8ff" stroke="#63b8ff" points="1102.59,-89.64 1103.92,-79.13 1096.32,-86.51 1102.59,-89.64"/>
</a>
</g>
</g>
<!-- Node6 -->
<g id="Node000006" class="node">
<title>Node6</title>
<g id="a_Node000006"><a xlink:title=" ">
<polygon fill="#e0e0e0" stroke="#999999" points="985.38,-191 896.62,-191 896.62,-170.25 985.38,-170.25 985.38,-191"/>
<text xml:space="preserve" text-anchor="middle" x="941" y="-177.5" font-family="Helvetica,sans-Serif" font-size="10.00">MK22F51212.h</text>
</a>
</g>
</g>
<!-- Node2&#45;&gt;Node6 -->
<g id="edge5_Node000002_Node000006" class="edge">
<title>Node2&#45;&gt;Node6</title>
<g id="a_edge5_Node000002_Node000006"><a xlink:title=" ">
<path fill="none" stroke="#63b8ff" d="M780.86,-226.59C812.79,-217.62 860.26,-204.29 895.23,-194.48"/>
<polygon fill="#63b8ff" stroke="#63b8ff" points="895.97,-197.9 904.65,-191.83 894.08,-191.16 895.97,-197.9"/>
</a>
</g>
</g>
<!-- Node7 -->
<g id="Node000007" class="node">
<title>Node7</title>
<g id="a_Node000007"><a xlink:href="step__core_8h.html" target="_top" xlink:title=" ">
<polygon fill="white" stroke="#666666" points="782.12,-191 709.88,-191 709.88,-170.25 782.12,-170.25 782.12,-191"/>
<text xml:space="preserve" text-anchor="middle" x="746" y="-177.5" font-family="Helvetica,sans-Serif" font-size="10.00">step_core.h</text>
</a>
</g>
</g>
<!-- Node2&#45;&gt;Node7 -->
<g id="edge6_Node000002_Node000007" class="edge">
<title>Node2&#45;&gt;Node7</title>
<g id="a_edge6_Node000002_Node000007"><a xlink:title=" ">
<path fill="none" stroke="#63b8ff" d="M746,-226.59C746,-219.97 746,-210.97 746,-202.77"/>
<polygon fill="#63b8ff" stroke="#63b8ff" points="749.5,-202.84 746,-192.84 742.5,-202.84 749.5,-202.84"/>
</a>
</g>
</g>
<!-- Node10 -->
<g id="Node000010" class="node">
<title>Node10</title>
<g id="a_Node000010"><a xlink:title=" ">
<polygon fill="#e0e0e0" stroke="#999999" points="674.38,-77.5 615.62,-77.5 615.62,-56.75 674.38,-56.75 674.38,-77.5"/>
<text xml:space="preserve" text-anchor="middle" x="645" y="-64" font-family="Helvetica,sans-Serif" font-size="10.00">fsl_ftm.h</text>
</a>
</g>
</g>
<!-- Node2&#45;&gt;Node10 -->
<g id="edge33_Node000002_Node000010" class="edge">
<title>Node2&#45;&gt;Node10</title>
<g id="a_edge33_Node000002_Node000010"><a xlink:title=" ">
<path fill="none" stroke="#63b8ff" d="M734.12,-226.52C724.29,-217.91 710.47,-204.68 701,-191 678.18,-158.03 660.86,-114.28 651.87,-88.86"/>
<polygon fill="#63b8ff" stroke="#63b8ff" points="655.19,-87.74 648.63,-79.41 648.57,-90.01 655.19,-87.74"/>
</a>
</g>
</g>
<!-- Node11 -->
<g id="Node000011" class="node">
<title>Node11</title>
<g id="a_Node000011"><a xlink:title=" ">
<polygon fill="#e0e0e0" stroke="#999999" points="933.62,-77.5 870.38,-77.5 870.38,-56.75 933.62,-56.75 933.62,-77.5"/>
<text xml:space="preserve" text-anchor="middle" x="902" y="-64" font-family="Helvetica,sans-Serif" font-size="10.00">fsl_gpio.h</text>
</a>
</g>
</g>
<!-- Node2&#45;&gt;Node11 -->
<g id="edge34_Node000002_Node000011" class="edge">
<title>Node2&#45;&gt;Node11</title>
<g id="a_edge34_Node000002_Node000011"><a xlink:title=" ">
<path fill="none" stroke="#63b8ff" d="M774.63,-226.55C810.82,-212.43 871.69,-182.64 899,-134.25 906.7,-120.61 907.05,-102.75 905.7,-89.03"/>
<polygon fill="#63b8ff" stroke="#63b8ff" points="909.19,-88.76 904.34,-79.34 902.26,-89.73 909.19,-88.76"/>
</a>
</g>
</g>
<!-- Node12 -->
<g id="Node000012" class="node">
<title>Node12</title>
<g id="a_Node000012"><a xlink:title=" ">
<polygon fill="#e0e0e0" stroke="#999999" points="1013.88,-77.5 952.12,-77.5 952.12,-56.75 1013.88,-56.75 1013.88,-77.5"/>
<text xml:space="preserve" text-anchor="middle" x="983" y="-64" font-family="Helvetica,sans-Serif" font-size="10.00">fsl_port.h</text>
</a>
</g>
</g>
<!-- Node2&#45;&gt;Node12 -->
<g id="edge35_Node000002_Node000012" class="edge">
<title>Node2&#45;&gt;Node12</title>
<g id="a_edge35_Node000002_Node000012"><a xlink:title=" ">
<path fill="none" stroke="#63b8ff" d="M786.66,-235.02C850.11,-231.95 968.07,-222.1 994,-191 1018.13,-162.05 1003.89,-114.85 992.63,-88.16"/>
<polygon fill="#63b8ff" stroke="#63b8ff" points="995.88,-86.85 988.58,-79.16 989.49,-89.72 995.88,-86.85"/>
</a>
</g>
</g>
<!-- Node19 -->
<g id="Node000019" class="node">
<title>Node19</title>
<g id="a_Node000019"><a xlink:href="tmc2209__core_8h.html" target="_top" xlink:title=" ">
<polygon fill="white" stroke="#666666" points="420,-191 326,-191 326,-170.25 420,-170.25 420,-191"/>
<text xml:space="preserve" text-anchor="middle" x="373" y="-177.5" font-family="Helvetica,sans-Serif" font-size="10.00">tmc2209_core.h</text>
</a>
</g>
</g>
<!-- Node2&#45;&gt;Node19 -->
<g id="edge27_Node000002_Node000019" class="edge">
<title>Node2&#45;&gt;Node19</title>
<g id="a_edge27_Node000002_Node000019"><a xlink:title=" ">
<path fill="none" stroke="#63b8ff" d="M705.37,-230.41C639.19,-220.7 507.86,-201.42 431.59,-190.22"/>
<polygon fill="#63b8ff" stroke="#63b8ff" points="432.19,-186.78 421.79,-188.79 431.18,-193.7 432.19,-186.78"/>
</a>
</g>
</g>
<!-- Node4 -->
<g id="Node000004" class="node">
<title>Node4</title>
<g id="a_Node000004"><a xlink:title=" ">
<polygon fill="#e0e0e0" stroke="#999999" points="630.5,-20.75 545.5,-20.75 545.5,0 630.5,0 630.5,-20.75"/>
<text xml:space="preserve" text-anchor="middle" x="588" y="-7.25" font-family="Helvetica,sans-Serif" font-size="10.00">fsl_common.h</text>
</a>
</g>
</g>
<!-- Node3&#45;&gt;Node4 -->
<g id="edge3_Node000003_Node000004" class="edge">
<title>Node3&#45;&gt;Node4</title>
<g id="a_edge3_Node000003_Node000004"><a xlink:title=" ">
<path fill="none" stroke="#63b8ff" d="M1031.65,-57.68C1028.73,-57.36 1025.84,-57.05 1023,-56.75 885.95,-42.13 724.55,-25.43 642.24,-16.95"/>
<polygon fill="#63b8ff" stroke="#63b8ff" points="642.73,-13.48 632.42,-15.94 642.01,-20.45 642.73,-13.48"/>
</a>
</g>
</g>
<!-- Node5 -->
<g id="Node000005" class="node">
<title>Node5</title>
<g id="a_Node000005"><a xlink:title=" ">
<polygon fill="#e0e0e0" stroke="#999999" points="937.88,-20.75 858.12,-20.75 858.12,0 937.88,0 937.88,-20.75"/>
<text xml:space="preserve" text-anchor="middle" x="898" y="-7.25" font-family="Helvetica,sans-Serif" font-size="10.00">peripherals.h</text>
</a>
</g>
</g>
<!-- Node3&#45;&gt;Node5 -->
<g id="edge4_Node000003_Node000005" class="edge">
<title>Node3&#45;&gt;Node5</title>
<g id="a_edge4_Node000003_Node000005"><a xlink:title=" ">
<path fill="none" stroke="#63b8ff" d="M1071.28,-56.34C1036.43,-47.29 984.47,-33.81 946.54,-23.97"/>
<polygon fill="#63b8ff" stroke="#63b8ff" points="947.77,-20.67 937.22,-21.55 946.02,-27.45 947.77,-20.67"/>
</a>
</g>
</g>
<!-- Node7&#45;&gt;Node3 -->
<g id="edge7_Node000007_Node000003" class="edge">
<title>Node7&#45;&gt;Node3</title>
<g id="a_edge7_Node000007_Node000003"><a xlink:title=" ">
<path fill="none" stroke="#63b8ff" d="M782.43,-171.82C819.59,-163.58 878.77,-149.65 929,-134.25 980.34,-118.5 1038.45,-96.35 1074.41,-82.11"/>
<polygon fill="#63b8ff" stroke="#63b8ff" points="1075.43,-85.47 1083.42,-78.52 1072.84,-78.97 1075.43,-85.47"/>
</a>
</g>
</g>
<!-- Node7&#45;&gt;Node4 -->
<g id="edge10_Node000007_Node000004" class="edge">
<title>Node7&#45;&gt;Node4</title>
<g id="a_edge10_Node000007_Node000004"><a xlink:title=" ">
<path fill="none" stroke="#63b8ff" d="M724.04,-169.78C692.88,-154.62 636.35,-122.53 607,-77.5 598.11,-63.86 593.3,-46.01 590.75,-32.29"/>
<polygon fill="#63b8ff" stroke="#63b8ff" points="594.23,-31.92 589.22,-22.58 587.32,-33.01 594.23,-31.92"/>
</a>
</g>
</g>
<!-- Node8 -->
<g id="Node000008" class="node">
<title>Node8</title>
<g id="a_Node000008"><a xlink:title=" ">
<polygon fill="#e0e0e0" stroke="#999999" points="521.75,-77.5 450.25,-77.5 450.25,-56.75 521.75,-56.75 521.75,-77.5"/>
<text xml:space="preserve" text-anchor="middle" x="486" y="-64" font-family="Helvetica,sans-Serif" font-size="10.00">FreeRTOS.h</text>
</a>
</g>
</g>
<!-- Node7&#45;&gt;Node8 -->
<g id="edge8_Node000007_Node000008" class="edge">
<title>Node7&#45;&gt;Node8</title>
<g id="a_edge8_Node000007_Node000008"><a xlink:title=" ">
<path fill="none" stroke="#63b8ff" d="M717.61,-169.89C692.7,-161.15 655.62,-147.67 624,-134.25 585.79,-118.03 542.81,-96.97 515.12,-83.03"/>
<polygon fill="#63b8ff" stroke="#63b8ff" points="516.8,-79.96 506.3,-78.56 513.64,-86.2 516.8,-79.96"/>
</a>
</g>
</g>
<!-- Node9 -->
<g id="Node000009" class="node">
<title>Node9</title>
<g id="a_Node000009"><a xlink:title=" ">
<polygon fill="#e0e0e0" stroke="#999999" points="890,-134.25 844,-134.25 844,-113.5 890,-113.5 890,-134.25"/>
<text xml:space="preserve" text-anchor="middle" x="867" y="-120.75" font-family="Helvetica,sans-Serif" font-size="10.00">task.h</text>
</a>
</g>
</g>
<!-- Node7&#45;&gt;Node9 -->
<g id="edge9_Node000007_Node000009" class="edge">
<title>Node7&#45;&gt;Node9</title>
<g id="a_edge9_Node000007_Node000009"><a xlink:title=" ">
<path fill="none" stroke="#63b8ff" d="M767.63,-169.84C786.47,-161.31 814.04,-148.84 835.36,-139.19"/>
<polygon fill="#63b8ff" stroke="#63b8ff" points="836.51,-142.51 844.18,-135.2 833.62,-136.14 836.51,-142.51"/>
</a>
</g>
</g>
<!-- Node7&#45;&gt;Node10 -->
<g id="edge11_Node000007_Node000010" class="edge">
<title>Node7&#45;&gt;Node10</title>
<g id="a_edge11_Node000007_Node000010"><a xlink:title=" ">
<path fill="none" stroke="#63b8ff" d="M733.64,-169.8C722.91,-161 707.22,-147.49 695,-134.25 681.15,-119.25 667.3,-100.57 657.7,-86.9"/>
<polygon fill="#63b8ff" stroke="#63b8ff" points="660.68,-85.05 652.12,-78.8 654.91,-89.02 660.68,-85.05"/>
</a>
</g>
</g>
<!-- Node7&#45;&gt;Node11 -->
<g id="edge12_Node000007_Node000011" class="edge">
<title>Node7&#45;&gt;Node11</title>
<g id="a_edge12_Node000007_Node000011"><a xlink:title=" ">
<path fill="none" stroke="#63b8ff" d="M758.84,-169.81C776.03,-156.74 807.53,-132.99 835,-113.5 849.01,-103.56 864.93,-92.76 877.73,-84.19"/>
<polygon fill="#63b8ff" stroke="#63b8ff" points="879.6,-87.15 885.98,-78.7 875.71,-81.33 879.6,-87.15"/>
</a>
</g>
</g>
<!-- Node7&#45;&gt;Node12 -->
<g id="edge13_Node000007_Node000012" class="edge">
<title>Node7&#45;&gt;Node12</title>
<g id="a_edge13_Node000007_Node000012"><a xlink:title=" ">
<path fill="none" stroke="#63b8ff" d="M782.4,-172.9C814.36,-166.06 861.48,-153.67 899,-134.25 924.31,-121.15 949.48,-99.97 965.57,-85.12"/>
<polygon fill="#63b8ff" stroke="#63b8ff" points="967.55,-88.06 972.42,-78.65 962.75,-82.98 967.55,-88.06"/>
</a>
</g>
</g>
<!-- Node13 -->
<g id="Node000013" class="node">
<title>Node13</title>
<g id="a_Node000013"><a xlink:href="cmd__handle_8h.html" target="_top" xlink:title=" ">
<polygon fill="white" stroke="#666666" points="431.12,-134.25 346.88,-134.25 346.88,-113.5 431.12,-113.5 431.12,-134.25"/>
<text xml:space="preserve" text-anchor="middle" x="389" y="-120.75" font-family="Helvetica,sans-Serif" font-size="10.00">cmd_handle.h</text>
</a>
</g>
</g>
<!-- Node7&#45;&gt;Node13 -->
<g id="edge14_Node000007_Node000013" class="edge">
<title>Node7&#45;&gt;Node13</title>
<g id="a_edge14_Node000007_Node000013"><a xlink:title=" ">
<path fill="none" stroke="#63b8ff" d="M709.47,-174.02C646.3,-164.33 516.36,-144.41 442.82,-133.13"/>
<polygon fill="#63b8ff" stroke="#63b8ff" points="443.44,-129.68 433.02,-131.63 442.38,-136.6 443.44,-129.68"/>
</a>
</g>
</g>
<!-- Node17 -->
<g id="Node000017" class="node">
<title>Node17</title>
<g id="a_Node000017"><a xlink:href="step__shared_8h.html" target="_top" xlink:title=" ">
<polygon fill="white" stroke="#666666" points="788.12,-134.25 703.88,-134.25 703.88,-113.5 788.12,-113.5 788.12,-134.25"/>
<text xml:space="preserve" text-anchor="middle" x="746" y="-120.75" font-family="Helvetica,sans-Serif" font-size="10.00">step_shared.h</text>
</a>
</g>
</g>
<!-- Node7&#45;&gt;Node17 -->
<g id="edge20_Node000007_Node000017" class="edge">
<title>Node7&#45;&gt;Node17</title>
<g id="a_edge20_Node000007_Node000017"><a xlink:title=" ">
<path fill="none" stroke="#63b8ff" d="M746,-169.84C746,-163.22 746,-154.22 746,-146.02"/>
<polygon fill="#63b8ff" stroke="#63b8ff" points="749.5,-146.09 746,-136.09 742.5,-146.09 749.5,-146.09"/>
</a>
</g>
</g>
<!-- Node13&#45;&gt;Node4 -->
<g id="edge18_Node000013_Node000004" class="edge">
<title>Node13&#45;&gt;Node4</title>
<g id="a_edge18_Node000013_Node000004"><a xlink:title=" ">
<path fill="none" stroke="#63b8ff" d="M346.6,-122.18C275.74,-119.61 145.28,-108 191,-56.75 213.43,-31.61 430.43,-18.5 533.78,-13.63"/>
<polygon fill="#63b8ff" stroke="#63b8ff" points="533.87,-17.13 543.7,-13.18 533.55,-10.14 533.87,-17.13"/>
</a>
</g>
</g>
<!-- Node13&#45;&gt;Node8 -->
<g id="edge16_Node000013_Node000008" class="edge">
<title>Node13&#45;&gt;Node8</title>
<g id="a_edge16_Node000013_Node000008"><a xlink:title=" ">
<path fill="none" stroke="#63b8ff" d="M406.34,-113.09C420.96,-104.83 442.14,-92.88 458.98,-83.38"/>
<polygon fill="#63b8ff" stroke="#63b8ff" points="460.5,-86.54 467.49,-78.57 457.06,-80.44 460.5,-86.54"/>
</a>
</g>
</g>
<!-- Node14 -->
<g id="Node000014" class="node">
<title>Node14</title>
<g id="a_Node000014"><a xlink:title=" ">
<polygon fill="#e0e0e0" stroke="#999999" points="432.38,-77.5 379.62,-77.5 379.62,-56.75 432.38,-56.75 432.38,-77.5"/>
<text xml:space="preserve" text-anchor="middle" x="406" y="-64" font-family="Helvetica,sans-Serif" font-size="10.00">stdint.h</text>
</a>
</g>
</g>
<!-- Node13&#45;&gt;Node14 -->
<g id="edge15_Node000013_Node000014" class="edge">
<title>Node13&#45;&gt;Node14</title>
<g id="a_edge15_Node000013_Node000014"><a xlink:title=" ">
<path fill="none" stroke="#63b8ff" d="M392.04,-113.09C394.14,-106.31 397.02,-97.05 399.61,-88.69"/>
<polygon fill="#63b8ff" stroke="#63b8ff" points="402.92,-89.86 402.54,-79.27 396.23,-87.79 402.92,-89.86"/>
</a>
</g>
</g>
<!-- Node15 -->
<g id="Node000015" class="node">
<title>Node15</title>
<g id="a_Node000015"><a xlink:title=" ">
<polygon fill="#e0e0e0" stroke="#999999" points="291.5,-77.5 200.5,-77.5 200.5,-56.75 291.5,-56.75 291.5,-77.5"/>
<text xml:space="preserve" text-anchor="middle" x="246" y="-64" font-family="Helvetica,sans-Serif" font-size="10.00">event_groups.h</text>
</a>
</g>
</g>
<!-- Node13&#45;&gt;Node15 -->
<g id="edge17_Node000013_Node000015" class="edge">
<title>Node13&#45;&gt;Node15</title>
<g id="a_edge17_Node000013_Node000015"><a xlink:title=" ">
<path fill="none" stroke="#63b8ff" d="M363.43,-113.09C340.76,-104.41 307.4,-91.63 282.02,-81.92"/>
<polygon fill="#63b8ff" stroke="#63b8ff" points="283.35,-78.68 272.76,-78.37 280.85,-85.21 283.35,-78.68"/>
</a>
</g>
</g>
<!-- Node16 -->
<g id="Node000016" class="node">
<title>Node16</title>
<g id="a_Node000016"><a xlink:title=" ">
<polygon fill="#e0e0e0" stroke="#999999" points="362,-77.5 310,-77.5 310,-56.75 362,-56.75 362,-77.5"/>
<text xml:space="preserve" text-anchor="middle" x="336" y="-64" font-family="Helvetica,sans-Serif" font-size="10.00">stdlib.h</text>
</a>
</g>
</g>
<!-- Node13&#45;&gt;Node16 -->
<g id="edge19_Node000013_Node000016" class="edge">
<title>Node13&#45;&gt;Node16</title>
<g id="a_edge19_Node000013_Node000016"><a xlink:title=" ">
<path fill="none" stroke="#63b8ff" d="M379.52,-113.09C372.21,-105.53 361.91,-94.89 353.16,-85.85"/>
<polygon fill="#63b8ff" stroke="#63b8ff" points="355.92,-83.67 346.45,-78.92 350.89,-88.54 355.92,-83.67"/>
</a>
</g>
</g>
<!-- Node17&#45;&gt;Node3 -->
<g id="edge21_Node000017_Node000003" class="edge">
<title>Node17&#45;&gt;Node3</title>
<g id="a_edge21_Node000017_Node000003"><a xlink:title=" ">
<path fill="none" stroke="#63b8ff" d="M788.35,-116.49C848.12,-107.47 958.21,-90.87 1032.51,-79.66"/>
<polygon fill="#63b8ff" stroke="#63b8ff" points="1032.79,-83.16 1042.16,-78.21 1031.75,-76.24 1032.79,-83.16"/>
</a>
</g>
</g>
<!-- Node17&#45;&gt;Node4 -->
<g id="edge23_Node000017_Node000004" class="edge">
<title>Node17&#45;&gt;Node4</title>
<g id="a_edge23_Node000017_Node000004"><a xlink:title=" ">
<path fill="none" stroke="#63b8ff" d="M738.75,-113.28C727.86,-99.39 706.1,-73.51 683,-56.75 665.4,-43.98 643.64,-33.28 625.38,-25.48"/>
<polygon fill="#63b8ff" stroke="#63b8ff" points="626.8,-22.28 616.22,-21.7 624.13,-28.75 626.8,-22.28"/>
</a>
</g>
</g>
<!-- Node17&#45;&gt;Node10 -->
<g id="edge24_Node000017_Node000010" class="edge">
<title>Node17&#45;&gt;Node10</title>
<g id="a_edge24_Node000017_Node000010"><a xlink:title=" ">
<path fill="none" stroke="#63b8ff" d="M727.94,-113.09C712.58,-104.76 690.26,-92.66 672.64,-83.11"/>
<polygon fill="#63b8ff" stroke="#63b8ff" points="674.69,-80.24 664.23,-78.55 671.35,-86.39 674.69,-80.24"/>
</a>
</g>
</g>
<!-- Node17&#45;&gt;Node11 -->
<g id="edge25_Node000017_Node000011" class="edge">
<title>Node17&#45;&gt;Node11</title>
<g id="a_edge25_Node000017_Node000011"><a xlink:title=" ">
<path fill="none" stroke="#63b8ff" d="M773.89,-113.09C798.88,-104.32 835.77,-91.37 863.56,-81.62"/>
<polygon fill="#63b8ff" stroke="#63b8ff" points="864.38,-85.04 872.66,-78.42 862.07,-78.43 864.38,-85.04"/>
</a>
</g>
</g>
<!-- Node17&#45;&gt;Node12 -->
<g id="edge26_Node000017_Node000012" class="edge">
<title>Node17&#45;&gt;Node12</title>
<g id="a_edge26_Node000017_Node000012"><a xlink:title=" ">
<path fill="none" stroke="#63b8ff" d="M788.28,-113.19C825.84,-104.57 882.54,-91.53 941.05,-77.95"/>
<polygon fill="#63b8ff" stroke="#63b8ff" points="941.57,-81.42 950.52,-75.75 939.99,-74.6 941.57,-81.42"/>
</a>
</g>
</g>
<!-- Node18 -->
<g id="Node000018" class="node">
<title>Node18</title>
<g id="a_Node000018"><a xlink:title=" ">
<polygon fill="#e0e0e0" stroke="#999999" points="852.25,-77.5 729.75,-77.5 729.75,-56.75 852.25,-56.75 852.25,-77.5"/>
<text xml:space="preserve" text-anchor="middle" x="791" y="-64" font-family="Helvetica,sans-Serif" font-size="10.00">fsl_device_registers.h</text>
</a>
</g>
</g>
<!-- Node17&#45;&gt;Node18 -->
<g id="edge22_Node000017_Node000018" class="edge">
<title>Node17&#45;&gt;Node18</title>
<g id="a_edge22_Node000017_Node000018"><a xlink:title=" ">
<path fill="none" stroke="#63b8ff" d="M754.05,-113.09C760.06,-105.77 768.47,-95.54 775.74,-86.69"/>
<polygon fill="#63b8ff" stroke="#63b8ff" points="778.42,-88.95 782.06,-79 773.01,-84.5 778.42,-88.95"/>
</a>
</g>
</g>
<!-- Node19&#45;&gt;Node4 -->
<g id="edge30_Node000019_Node000004" class="edge">
<title>Node19&#45;&gt;Node4</title>
<g id="a_edge30_Node000019_Node000004"><a xlink:title=" ">
<path fill="none" stroke="#63b8ff" d="M327.26,-169.81C255.14,-152.36 128.08,-112.5 178,-56.75 201.34,-30.68 427.97,-17.97 533.92,-13.42"/>
<polygon fill="#63b8ff" stroke="#63b8ff" points="533.95,-16.92 543.79,-13 533.65,-9.92 533.95,-16.92"/>
</a>
</g>
</g>
<!-- Node19&#45;&gt;Node5 -->
<g id="edge32_Node000019_Node000005" class="edge">
<title>Node19&#45;&gt;Node5</title>
<g id="a_edge32_Node000019_Node000005"><a xlink:title=" ">
<path fill="none" stroke="#63b8ff" d="M387.56,-169.76C423.24,-146.11 518.56,-85.97 607,-56.75 688.25,-29.91 787.62,-18.77 846.7,-14.27"/>
<polygon fill="#63b8ff" stroke="#63b8ff" points="846.73,-17.78 856.46,-13.57 846.23,-10.8 846.73,-17.78"/>
</a>
</g>
</g>
<!-- Node19&#45;&gt;Node13 -->
<g id="edge31_Node000019_Node000013" class="edge">
<title>Node19&#45;&gt;Node13</title>
<g id="a_edge31_Node000019_Node000013"><a xlink:title=" ">
<path fill="none" stroke="#63b8ff" d="M375.86,-169.84C377.84,-163.06 380.55,-153.8 382.99,-145.44"/>
<polygon fill="#63b8ff" stroke="#63b8ff" points="386.29,-146.61 385.74,-136.03 379.58,-144.65 386.29,-146.61"/>
</a>
</g>
</g>
<!-- Node20 -->
<g id="Node000020" class="node">
<title>Node20</title>
<g id="a_Node000020"><a xlink:href="tmc2209__shared_8h.html" target="_top" xlink:title=" ">
<polygon fill="white" stroke="#666666" points="106,-134.25 0,-134.25 0,-113.5 106,-113.5 106,-134.25"/>
<text xml:space="preserve" text-anchor="middle" x="53" y="-120.75" font-family="Helvetica,sans-Serif" font-size="10.00">tmc2209_shared.h</text>
</a>
</g>
</g>
<!-- Node19&#45;&gt;Node20 -->
<g id="edge28_Node000019_Node000020" class="edge">
<title>Node19&#45;&gt;Node20</title>
<g id="a_edge28_Node000019_Node000020"><a xlink:title=" ">
<path fill="none" stroke="#63b8ff" d="M325.78,-171.55C270.63,-162.11 179.09,-146.45 117.43,-135.9"/>
<polygon fill="#63b8ff" stroke="#63b8ff" points="118.22,-132.48 107.78,-134.25 117.04,-139.38 118.22,-132.48"/>
</a>
</g>
</g>
<!-- Node21 -->
<g id="Node000021" class="node">
<title>Node21</title>
<g id="a_Node000021"><a xlink:title=" ">
<polygon fill="#e0e0e0" stroke="#999999" points="105.62,-77.5 0.38,-77.5 0.38,-56.75 105.62,-56.75 105.62,-77.5"/>
<text xml:space="preserve" text-anchor="middle" x="53" y="-64" font-family="Helvetica,sans-Serif" font-size="10.00">fsl_uart_freertos.h</text>
</a>
</g>
</g>
<!-- Node20&#45;&gt;Node21 -->
<g id="edge29_Node000020_Node000021" class="edge">
<title>Node20&#45;&gt;Node21</title>
<g id="a_edge29_Node000020_Node000021"><a xlink:title=" ">
<path fill="none" stroke="#63b8ff" d="M53,-113.09C53,-106.47 53,-97.47 53,-89.27"/>
<polygon fill="#63b8ff" stroke="#63b8ff" points="56.5,-89.34 53,-79.34 49.5,-89.34 56.5,-89.34"/>
</a>
</g>
</g>
<!-- Node22&#45;&gt;Node2 -->
<g id="edge37_Node000022_Node000002" class="edge">
<title>Node22&#45;&gt;Node2</title>
<g id="a_edge37_Node000022_Node000002"><a xlink:title=" ">
<path fill="none" stroke="#63b8ff" d="M626.92,-283.34C650.02,-274.62 684.04,-261.77 709.82,-252.04"/>
<polygon fill="#63b8ff" stroke="#63b8ff" points="710.77,-255.42 718.89,-248.61 708.29,-248.87 710.77,-255.42"/>
</a>
</g>
</g>
<!-- Node22&#45;&gt;Node8 -->
<g id="edge38_Node000022_Node000008" class="edge">
<title>Node22&#45;&gt;Node8</title>
<g id="a_edge38_Node000022_Node000008"><a xlink:title=" ">
<path fill="none" stroke="#63b8ff" d="M592.22,-283.57C584.4,-274.74 573,-261.01 565,-247.75 532.12,-193.2 505.13,-122.53 492.96,-88.37"/>
<polygon fill="#63b8ff" stroke="#63b8ff" points="496.4,-87.61 489.79,-79.33 489.8,-89.92 496.4,-87.61"/>
</a>
</g>
</g>
<!-- Node22&#45;&gt;Node13 -->
<g id="edge40_Node000022_Node000013" class="edge">
<title>Node22&#45;&gt;Node13</title>
<g id="a_edge40_Node000022_Node000013"><a xlink:title=" ">
<path fill="none" stroke="#63b8ff" d="M552.04,-284.68C525.96,-278.16 494.67,-266.9 472,-247.75 441.9,-222.34 451.71,-202.43 429,-170.25 422.23,-160.65 413.73,-150.77 406.32,-142.7"/>
<polygon fill="#63b8ff" stroke="#63b8ff" points="408.99,-140.43 399.59,-135.55 403.9,-145.23 408.99,-140.43"/>
</a>
</g>
</g>
<!-- Node23 -->
<g id="Node000023" class="node">
<title>Node23</title>
<g id="a_Node000023"><a xlink:title=" ">
<polygon fill="#e0e0e0" stroke="#999999" points="628.5,-247.75 573.5,-247.75 573.5,-227 628.5,-227 628.5,-247.75"/>
<text xml:space="preserve" text-anchor="middle" x="601" y="-234.25" font-family="Helvetica,sans-Serif" font-size="10.00">queue.h</text>
</a>
</g>
</g>
<!-- Node22&#45;&gt;Node23 -->
<g id="edge39_Node000022_Node000023" class="edge">
<title>Node22&#45;&gt;Node23</title>
<g id="a_edge39_Node000022_Node000023"><a xlink:title=" ">
<path fill="none" stroke="#63b8ff" d="M601,-283.34C601,-276.72 601,-267.72 601,-259.52"/>
<polygon fill="#63b8ff" stroke="#63b8ff" points="604.5,-259.59 601,-249.59 597.5,-259.59 604.5,-259.59"/>
</a>
</g>
</g>
</g>
</svg>
