<?xml version="1.0" encoding="UTF-8" standalone="no"?>
<!DOCTYPE svg PUBLIC "-//W3C//DTD SVG 1.1//EN"
 "http://www.w3.org/Graphics/SVG/1.1/DTD/svg11.dtd">
<!-- Generated by graphviz version 14.1.4 (0)
 -->
<!-- Title: source/motor.h Pages: 1 -->
<svg width="1192pt" height="237pt"
 viewBox="0.00 0.00 1192.00 237.00" xmlns="http://www.w3.org/2000/svg" xmlns:xlink="http://www.w3.org/1999/xlink">
<g id="graph0" class="graph" transform="scale(1 1) rotate(0) translate(4 233.25)">
<title>source/motor.h</title>
<!-- Node1 -->
<g id="Node000001" class="node">
<title>Node1</title>
<g id="a_Node000001"><a xlink:title=" ">
<polygon fill="#999999" stroke="#666666" points="851.38,-229.25 762.62,-229.25 762.62,-208.5 851.38,-208.5 851.38,-229.25"/>
<text xml:space="preserve" text-anchor="middle" x="807" y="-215.75" font-family="Helvetica,sans-Serif" font-size="10.00">source/motor.h</text>
</a>
</g>
</g>
<!-- Node2 -->
<g id="Node000002" class="node">
<title>Node2</title>
<g id="a_Node000002"><a xlink:href="application_8c.html" target="_top" xlink:title=" ">
<polygon fill="white" stroke="#666666" points="487.75,-166.12 374.25,-166.12 374.25,-145.38 487.75,-145.38 487.75,-166.12"/>
<text xml:space="preserve" text-anchor="middle" x="431" y="-152.62" font-family="Helvetica,sans-Serif" font-size="10.00">source/application.c</text>
</a>
</g>
</g>
<!-- Node1&#45;&gt;Node2 -->
<g id="edge1_Node000001_Node000002" class="edge">
<title>Node1&#45;&gt;Node2</title>
<g id="a_edge1_Node000001_Node000002"><a xlink:title=" ">
<path fill="none" stroke="#63b8ff" d="M750.78,-210.72C689.43,-202.63 588.42,-188.49 502,-172.5 492.56,-170.75 482.47,-168.66 472.95,-166.57"/>
<polygon fill="#63b8ff" stroke="#63b8ff" points="750.26,-214.18 760.63,-212.01 751.17,-207.24 750.26,-214.18"/>
</a>
</g>
</g>
<!-- Node3 -->
<g id="Node000003" class="node">
<title>Node3</title>
<g id="a_Node000003"><a xlink:href="motor__convert_8h.html" target="_top" xlink:title=" ">
<polygon fill="white" stroke="#666666" points="866,-172.5 748,-172.5 748,-139 866,-139 866,-172.5"/>
<text xml:space="preserve" text-anchor="start" x="756" y="-159" font-family="Helvetica,sans-Serif" font-size="10.00">source/motion/motor</text>
<text xml:space="preserve" text-anchor="middle" x="807" y="-146.25" font-family="Helvetica,sans-Serif" font-size="10.00">/motor_convert.h</text>
</a>
</g>
</g>
<!-- Node1&#45;&gt;Node3 -->
<g id="edge2_Node000001_Node000003" class="edge">
<title>Node1&#45;&gt;Node3</title>
<g id="a_edge2_Node000001_Node000003"><a xlink:title=" ">
<path fill="none" stroke="#63b8ff" d="M807,-196.59C807,-188.85 807,-180.22 807,-172.98"/>
<polygon fill="#63b8ff" stroke="#63b8ff" points="803.5,-196.54 807,-206.54 810.5,-196.54 803.5,-196.54"/>
</a>
</g>
</g>
<!-- Node7 -->
<g id="Node000007" class="node">
<title>Node7</title>
<g id="a_Node000007"><a xlink:href="motor__init_8h.html" target="_top" xlink:title=" ">
<polygon fill="white" stroke="#666666" points="118,-103 0,-103 0,-69.5 118,-69.5 118,-103"/>
<text xml:space="preserve" text-anchor="start" x="8" y="-89.5" font-family="Helvetica,sans-Serif" font-size="10.00">source/motion/motor</text>
<text xml:space="preserve" text-anchor="middle" x="59" y="-76.75" font-family="Helvetica,sans-Serif" font-size="10.00">/motor_init.h</text>
</a>
</g>
</g>
<!-- Node1&#45;&gt;Node7 -->
<g id="edge6_Node000001_Node000007" class="edge">
<title>Node1&#45;&gt;Node7</title>
<g id="a_edge6_Node000001_Node000007"><a xlink:title=" ">
<path fill="none" stroke="#63b8ff" d="M751.09,-217.44C694.15,-215.01 604.57,-205.59 535,-172.5 514.67,-162.83 517.65,-147.97 497,-139 345.46,-73.18 290.05,-129.7 127,-103 124.13,-102.53 121.2,-102.01 118.25,-101.45"/>
<polygon fill="#63b8ff" stroke="#63b8ff" points="750.75,-220.93 760.87,-217.79 751,-213.93 750.75,-220.93"/>
</a>
</g>
</g>
<!-- Node10 -->
<g id="Node000010" class="node">
<title>Node10</title>
<g id="a_Node000010"><a xlink:href="motor__internal_8h.html" target="_top" xlink:title=" ">
<polygon fill="white" stroke="#666666" points="662,-172.5 544,-172.5 544,-139 662,-139 662,-172.5"/>
<text xml:space="preserve" text-anchor="start" x="552" y="-159" font-family="Helvetica,sans-Serif" font-size="10.00">source/motion/motor</text>
<text xml:space="preserve" text-anchor="middle" x="603" y="-146.25" font-family="Helvetica,sans-Serif" font-size="10.00">/motor_internal.h</text>
</a>
</g>
</g>
<!-- Node1&#45;&gt;Node10 -->
<g id="edge9_Node000001_Node000010" class="edge">
<title>Node1&#45;&gt;Node10</title>
<g id="a_edge9_Node000001_Node000010"><a xlink:title=" ">
<path fill="none" stroke="#63b8ff" d="M763.31,-204.78C732.26,-195.48 690.36,-182.93 657.18,-172.98"/>
<polygon fill="#63b8ff" stroke="#63b8ff" points="762.19,-208.1 772.77,-207.62 764.2,-201.4 762.19,-208.1"/>
</a>
</g>
</g>
<!-- Node19 -->
<g id="Node000019" class="node">
<title>Node19</title>
<g id="a_Node000019"><a xlink:href="motorCmd_8c.html" target="_top" xlink:title=" ">
<polygon fill="white" stroke="#666666" points="995.62,-166.12 884.38,-166.12 884.38,-145.38 995.62,-145.38 995.62,-166.12"/>
<text xml:space="preserve" text-anchor="middle" x="940" y="-152.62" font-family="Helvetica,sans-Serif" font-size="10.00">source/motorCmd.c</text>
</a>
</g>
</g>
<!-- Node1&#45;&gt;Node19 -->
<g id="edge28_Node000001_Node000019" class="edge">
<title>Node1&#45;&gt;Node19</title>
<g id="a_edge28_Node000001_Node000019"><a xlink:title=" ">
<path fill="none" stroke="#63b8ff" d="M838.69,-203.31C863.42,-191.95 897.08,-176.47 918.68,-166.55"/>
<polygon fill="#63b8ff" stroke="#63b8ff" points="837.37,-200.07 829.74,-207.42 840.29,-206.43 837.37,-200.07"/>
</a>
</g>
</g>
<!-- Node20 -->
<g id="Node000020" class="node">
<title>Node20</title>
<g id="a_Node000020"><a xlink:href="motor__configs_8h.html" target="_top" xlink:title=" ">
<polygon fill="white" stroke="#666666" points="1142.62,-166.12 1013.38,-166.12 1013.38,-145.38 1142.62,-145.38 1142.62,-166.12"/>
<text xml:space="preserve" text-anchor="middle" x="1078" y="-152.62" font-family="Helvetica,sans-Serif" font-size="10.00">source/motor_configs.h</text>
</a>
</g>
</g>
<!-- Node1&#45;&gt;Node20 -->
<g id="edge29_Node000001_Node000020" class="edge">
<title>Node1&#45;&gt;Node20</title>
<g id="a_edge29_Node000001_Node000020"><a xlink:title=" ">
<path fill="none" stroke="#63b8ff" d="M861.67,-205.54C912.61,-194.05 987.59,-177.14 1034.57,-166.55"/>
<polygon fill="#63b8ff" stroke="#63b8ff" points="861,-202.11 852.02,-207.72 862.54,-208.94 861,-202.11"/>
</a>
</g>
</g>
<!-- Node21 -->
<g id="Node000021" class="node">
<title>Node21</title>
<g id="a_Node000021"><a xlink:href="motor__test_8c.html" target="_top" xlink:title=" ">
<polygon fill="white" stroke="#666666" points="1184.38,-96.62 1071.62,-96.62 1071.62,-75.88 1184.38,-75.88 1184.38,-96.62"/>
<text xml:space="preserve" text-anchor="middle" x="1128" y="-83.12" font-family="Helvetica,sans-Serif" font-size="10.00">source/motor_test.c</text>
</a>
</g>
</g>
<!-- Node1&#45;&gt;Node21 -->
<g id="edge31_Node000001_Node000021" class="edge">
<title>Node1&#45;&gt;Node21</title>
<g id="a_edge31_Node000001_Node000021"><a xlink:title=" ">
<path fill="none" stroke="#63b8ff" d="M863.19,-214.49C956.07,-208.31 1133.28,-193.84 1152,-172.5 1171.26,-150.54 1148.71,-114.22 1135.8,-96.95"/>
<polygon fill="#63b8ff" stroke="#63b8ff" points="863.01,-210.99 853.26,-215.13 863.47,-217.97 863.01,-210.99"/>
</a>
</g>
</g>
<!-- Node4 -->
<g id="Node000004" class="node">
<title>Node4</title>
<g id="a_Node000004"><a xlink:href="motor__convert_8c.html" target="_top" xlink:title=" ">
<polygon fill="white" stroke="#666666" points="934,-103 816,-103 816,-69.5 934,-69.5 934,-103"/>
<text xml:space="preserve" text-anchor="start" x="824" y="-89.5" font-family="Helvetica,sans-Serif" font-size="10.00">source/motion/motor</text>
<text xml:space="preserve" text-anchor="middle" x="875" y="-76.75" font-family="Helvetica,sans-Serif" font-size="10.00">/motor_convert.c</text>
</a>
</g>
</g>
<!-- Node3&#45;&gt;Node4 -->
<g id="edge3_Node000003_Node000004" class="edge">
<title>Node3&#45;&gt;Node4</title>
<g id="a_edge3_Node000003_Node000004"><a xlink:title=" ">
<path fill="none" stroke="#63b8ff" d="M831.21,-130.72C840.44,-121.56 850.72,-111.35 859,-103.13"/>
<polygon fill="#63b8ff" stroke="#63b8ff" points="828.82,-128.16 824.19,-137.69 833.75,-133.13 828.82,-128.16"/>
</a>
</g>
</g>
<!-- Node5 -->
<g id="Node000005" class="node">
<title>Node5</title>
<g id="a_Node000005"><a xlink:href="motor__motion_8c.html" target="_top" xlink:title=" ">
<polygon fill="white" stroke="#666666" points="860,-33.5 742,-33.5 742,0 860,0 860,-33.5"/>
<text xml:space="preserve" text-anchor="start" x="750" y="-20" font-family="Helvetica,sans-Serif" font-size="10.00">source/motion/motor</text>
<text xml:space="preserve" text-anchor="middle" x="801" y="-7.25" font-family="Helvetica,sans-Serif" font-size="10.00">/motor_motion.c</text>
</a>
</g>
</g>
<!-- Node3&#45;&gt;Node5 -->
<g id="edge4_Node000003_Node000005" class="edge">
<title>Node3&#45;&gt;Node5</title>
<g id="a_edge4_Node000003_Node000005"><a xlink:title=" ">
<path fill="none" stroke="#63b8ff" d="M876.9,-136.12C905.87,-126.87 934.67,-115.09 943,-103 951.45,-90.74 951.54,-81.7 943,-69.5 924.34,-42.84 890.44,-29.87 860.45,-23.58"/>
<polygon fill="#63b8ff" stroke="#63b8ff" points="876.23,-132.67 867.71,-138.97 878.3,-139.36 876.23,-132.67"/>
</a>
</g>
</g>
<!-- Node6 -->
<g id="Node000006" class="node">
<title>Node6</title>
<g id="a_Node000006"><a xlink:href="motor__sync_8c.html" target="_top" xlink:title=" ">
<polygon fill="white" stroke="#666666" points="1027,-33.5 909,-33.5 909,0 1027,0 1027,-33.5"/>
<text xml:space="preserve" text-anchor="start" x="917" y="-20" font-family="Helvetica,sans-Serif" font-size="10.00">source/motion/motor</text>
<text xml:space="preserve" text-anchor="middle" x="968" y="-7.25" font-family="Helvetica,sans-Serif" font-size="10.00">/motor_sync.c</text>
</a>
</g>
</g>
<!-- Node3&#45;&gt;Node6 -->
<g id="edge5_Node000003_Node000006" class="edge">
<title>Node3&#45;&gt;Node6</title>
<g id="a_edge5_Node000003_Node000006"><a xlink:title=" ">
<path fill="none" stroke="#63b8ff" d="M875.02,-135.45C913.15,-123.99 954.22,-110.31 960,-103 975.58,-83.29 974.08,-52.45 971.26,-33.77"/>
<polygon fill="#63b8ff" stroke="#63b8ff" points="874.41,-131.98 865.82,-138.19 876.41,-138.69 874.41,-131.98"/>
</a>
</g>
</g>
<!-- Node8 -->
<g id="Node000008" class="node">
<title>Node8</title>
<g id="a_Node000008"><a xlink:href="motor__init_8c.html" target="_top" xlink:title=" ">
<polygon fill="white" stroke="#666666" points="118,-33.5 0,-33.5 0,0 118,0 118,-33.5"/>
<text xml:space="preserve" text-anchor="start" x="8" y="-20" font-family="Helvetica,sans-Serif" font-size="10.00">source/motion/motor</text>
<text xml:space="preserve" text-anchor="middle" x="59" y="-7.25" font-family="Helvetica,sans-Serif" font-size="10.00">/motor_init.c</text>
</a>
</g>
</g>
<!-- Node7&#45;&gt;Node8 -->
<g id="edge7_Node000007_Node000008" class="edge">
<title>Node7&#45;&gt;Node8</title>
<g id="a_edge7_Node000007_Node000008"><a xlink:title=" ">
<path fill="none" stroke="#63b8ff" d="M59,-57.81C59,-49.59 59,-40.84 59,-33.63"/>
<polygon fill="#63b8ff" stroke="#63b8ff" points="55.5,-57.74 59,-67.74 62.5,-57.74 55.5,-57.74"/>
</a>
</g>
</g>
<!-- Node9 -->
<g id="Node000009" class="node">
<title>Node9</title>
<g id="a_Node000009"><a xlink:href="motor__process_8c.html" target="_top" xlink:title=" ">
<polygon fill="white" stroke="#666666" points="526,-33.5 408,-33.5 408,0 526,0 526,-33.5"/>
<text xml:space="preserve" text-anchor="start" x="416" y="-20" font-family="Helvetica,sans-Serif" font-size="10.00">source/motion/motor</text>
<text xml:space="preserve" text-anchor="middle" x="467" y="-7.25" font-family="Helvetica,sans-Serif" font-size="10.00">/motor_process.c</text>
</a>
</g>
</g>
<!-- Node7&#45;&gt;Node9 -->
<g id="edge8_Node000007_Node000009" class="edge">
<title>Node7&#45;&gt;Node9</title>
<g id="a_edge8_Node000007_Node000009"><a xlink:title=" ">
<path fill="none" stroke="#63b8ff" d="M129.43,-69.16C245.86,-48.39 278.42,-53.11 392,-33.5 397.11,-32.62 402.41,-31.64 407.71,-30.61"/>
<polygon fill="#63b8ff" stroke="#63b8ff" points="128.98,-65.68 119.76,-70.91 130.22,-72.57 128.98,-65.68"/>
</a>
</g>
</g>
<!-- Node10&#45;&gt;Node4 -->
<g id="edge10_Node000010_Node000004" class="edge">
<title>Node10&#45;&gt;Node4</title>
<g id="a_edge10_Node000010_Node000004"><a xlink:title=" ">
<path fill="none" stroke="#63b8ff" d="M673.31,-137.3C717.5,-126.34 773.87,-112.35 815.77,-101.95"/>
<polygon fill="#63b8ff" stroke="#63b8ff" points="672.69,-133.85 663.82,-139.66 674.37,-140.64 672.69,-133.85"/>
</a>
</g>
</g>
<!-- Node10&#45;&gt;Node7 -->
<g id="edge14_Node000010_Node000007" class="edge">
<title>Node10&#45;&gt;Node7</title>
<g id="a_edge14_Node000010_Node000007"><a xlink:title=" ">
<path fill="none" stroke="#63b8ff" d="M532.54,-139.39C531.69,-139.26 530.84,-139.13 530,-139 352.22,-111.99 304.57,-131.36 127,-103 124.13,-102.54 121.2,-102.03 118.24,-101.48"/>
<polygon fill="#63b8ff" stroke="#63b8ff" points="531.81,-142.82 542.26,-141.07 533,-135.92 531.81,-142.82"/>
</a>
</g>
</g>
<!-- Node11 -->
<g id="Node000011" class="node">
<title>Node11</title>
<g id="a_Node000011"><a xlink:href="motor__core_8h.html" target="_top" xlink:title=" ">
<polygon fill="white" stroke="#666666" points="254,-103 136,-103 136,-69.5 254,-69.5 254,-103"/>
<text xml:space="preserve" text-anchor="start" x="144" y="-89.5" font-family="Helvetica,sans-Serif" font-size="10.00">source/motion/motor</text>
<text xml:space="preserve" text-anchor="middle" x="195" y="-76.75" font-family="Helvetica,sans-Serif" font-size="10.00">/motor_core.h</text>
</a>
</g>
</g>
<!-- Node10&#45;&gt;Node11 -->
<g id="edge11_Node000010_Node000011" class="edge">
<title>Node10&#45;&gt;Node11</title>
<g id="a_edge11_Node000010_Node000011"><a xlink:title=" ">
<path fill="none" stroke="#63b8ff" d="M532.53,-139.45C531.68,-139.3 530.84,-139.15 530,-139 412.05,-118.36 380.79,-124.53 263,-103 260.14,-102.48 257.22,-101.91 254.27,-101.32"/>
<polygon fill="#63b8ff" stroke="#63b8ff" points="531.75,-142.86 542.23,-141.27 533.05,-135.98 531.75,-142.86"/>
</a>
</g>
</g>
<!-- Node14 -->
<g id="Node000014" class="node">
<title>Node14</title>
<g id="a_Node000014"><a xlink:href="motor__motion_8h.html" target="_top" xlink:title=" ">
<polygon fill="white" stroke="#666666" points="662,-103 544,-103 544,-69.5 662,-69.5 662,-103"/>
<text xml:space="preserve" text-anchor="start" x="552" y="-89.5" font-family="Helvetica,sans-Serif" font-size="10.00">source/motion/motor</text>
<text xml:space="preserve" text-anchor="middle" x="603" y="-76.75" font-family="Helvetica,sans-Serif" font-size="10.00">/motor_motion.h</text>
</a>
</g>
</g>
<!-- Node10&#45;&gt;Node14 -->
<g id="edge15_Node000010_Node000014" class="edge">
<title>Node10&#45;&gt;Node14</title>
<g id="a_edge15_Node000010_Node000014"><a xlink:title=" ">
<path fill="none" stroke="#63b8ff" d="M603,-127.31C603,-119.09 603,-110.34 603,-103.13"/>
<polygon fill="#63b8ff" stroke="#63b8ff" points="599.5,-127.24 603,-137.24 606.5,-127.24 599.5,-127.24"/>
</a>
</g>
</g>
<!-- Node16 -->
<g id="Node000016" class="node">
<title>Node16</title>
<g id="a_Node000016"><a xlink:href="motor__process_8h.html" target="_top" xlink:title=" ">
<polygon fill="white" stroke="#666666" points="390,-103 272,-103 272,-69.5 390,-69.5 390,-103"/>
<text xml:space="preserve" text-anchor="start" x="280" y="-89.5" font-family="Helvetica,sans-Serif" font-size="10.00">source/motion/motor</text>
<text xml:space="preserve" text-anchor="middle" x="331" y="-76.75" font-family="Helvetica,sans-Serif" font-size="10.00">/motor_process.h</text>
</a>
</g>
</g>
<!-- Node10&#45;&gt;Node16 -->
<g id="edge19_Node000010_Node000016" class="edge">
<title>Node10&#45;&gt;Node16</title>
<g id="a_edge19_Node000010_Node000016"><a xlink:title=" ">
<path fill="none" stroke="#63b8ff" d="M532.69,-137.3C488.5,-126.34 432.13,-112.35 390.23,-101.95"/>
<polygon fill="#63b8ff" stroke="#63b8ff" points="531.63,-140.64 542.18,-139.66 533.31,-133.85 531.63,-140.64"/>
</a>
</g>
</g>
<!-- Node17 -->
<g id="Node000017" class="node">
<title>Node17</title>
<g id="a_Node000017"><a xlink:href="motor__sync_8h.html" target="_top" xlink:title=" ">
<polygon fill="white" stroke="#666666" points="798,-103 680,-103 680,-69.5 798,-69.5 798,-103"/>
<text xml:space="preserve" text-anchor="start" x="688" y="-89.5" font-family="Helvetica,sans-Serif" font-size="10.00">source/motion/motor</text>
<text xml:space="preserve" text-anchor="middle" x="739" y="-76.75" font-family="Helvetica,sans-Serif" font-size="10.00">/motor_sync.h</text>
</a>
</g>
</g>
<!-- Node10&#45;&gt;Node17 -->
<g id="edge22_Node000010_Node000017" class="edge">
<title>Node10&#45;&gt;Node17</title>
<g id="a_edge22_Node000010_Node000017"><a xlink:title=" ">
<path fill="none" stroke="#63b8ff" d="M645.83,-133.49C665.52,-123.72 688.49,-112.32 706.69,-103.29"/>
<polygon fill="#63b8ff" stroke="#63b8ff" points="644.33,-130.33 636.93,-137.91 647.44,-136.6 644.33,-130.33"/>
</a>
</g>
</g>
<!-- Node18 -->
<g id="Node000018" class="node">
<title>Node18</title>
<g id="a_Node000018"><a xlink:href="motor__tmc_8h.html" target="_top" xlink:title=" ">
<polygon fill="white" stroke="#666666" points="526,-103 408,-103 408,-69.5 526,-69.5 526,-103"/>
<text xml:space="preserve" text-anchor="start" x="416" y="-89.5" font-family="Helvetica,sans-Serif" font-size="10.00">source/motion/motor</text>
<text xml:space="preserve" text-anchor="middle" x="467" y="-76.75" font-family="Helvetica,sans-Serif" font-size="10.00">/motor_tmc.h</text>
</a>
</g>
</g>
<!-- Node10&#45;&gt;Node18 -->
<g id="edge25_Node000010_Node000018" class="edge">
<title>Node10&#45;&gt;Node18</title>
<g id="a_edge25_Node000010_Node000018"><a xlink:title=" ">
<path fill="none" stroke="#63b8ff" d="M560.17,-133.49C540.48,-123.72 517.51,-112.32 499.31,-103.29"/>
<polygon fill="#63b8ff" stroke="#63b8ff" points="558.56,-136.6 569.07,-137.91 561.67,-130.33 558.56,-136.6"/>
</a>
</g>
</g>
<!-- Node12 -->
<g id="Node000012" class="node">
<title>Node12</title>
<g id="a_Node000012"><a xlink:href="motor__core_8c.html" target="_top" xlink:title=" ">
<polygon fill="white" stroke="#666666" points="383,-33.5 265,-33.5 265,0 383,0 383,-33.5"/>
<text xml:space="preserve" text-anchor="start" x="273" y="-20" font-family="Helvetica,sans-Serif" font-size="10.00">source/motion/motor</text>
<text xml:space="preserve" text-anchor="middle" x="324" y="-7.25" font-family="Helvetica,sans-Serif" font-size="10.00">/motor_core.c</text>
</a>
</g>
</g>
<!-- Node11&#45;&gt;Node12 -->
<g id="edge12_Node000011_Node000012" class="edge">
<title>Node11&#45;&gt;Node12</title>
<g id="a_edge12_Node000011_Node000012"><a xlink:title=" ">
<path fill="none" stroke="#63b8ff" d="M235.88,-63.86C254.5,-54.12 276.16,-42.78 293.35,-33.79"/>
<polygon fill="#63b8ff" stroke="#63b8ff" points="234.48,-60.64 227.24,-68.38 237.72,-66.85 234.48,-60.64"/>
</a>
</g>
</g>
<!-- Node13 -->
<g id="Node000013" class="node">
<title>Node13</title>
<g id="a_Node000013"><a xlink:href="motor_8c.html" target="_top" xlink:title=" ">
<polygon fill="white" stroke="#666666" points="239,-27.12 151,-27.12 151,-6.38 239,-6.38 239,-27.12"/>
<text xml:space="preserve" text-anchor="middle" x="195" y="-13.62" font-family="Helvetica,sans-Serif" font-size="10.00">source/motor.c</text>
</a>
</g>
</g>
<!-- Node11&#45;&gt;Node13 -->
<g id="edge13_Node000011_Node000013" class="edge">
<title>Node11&#45;&gt;Node13</title>
<g id="a_edge13_Node000011_Node000013"><a xlink:title=" ">
<path fill="none" stroke="#63b8ff" d="M195,-57.78C195,-47.08 195,-35.51 195,-27.57"/>
<polygon fill="#63b8ff" stroke="#63b8ff" points="191.5,-57.74 195,-67.74 198.5,-57.74 191.5,-57.74"/>
</a>
</g>
</g>
<!-- Node14&#45;&gt;Node5 -->
<g id="edge16_Node000014_Node000005" class="edge">
<title>Node14&#45;&gt;Node5</title>
<g id="a_edge16_Node000014_Node000005"><a xlink:title=" ">
<path fill="none" stroke="#63b8ff" d="M660.99,-65.48C690.46,-55.44 725.81,-43.38 753.62,-33.9"/>
<polygon fill="#63b8ff" stroke="#63b8ff" points="660.19,-62.05 651.86,-68.59 662.45,-68.68 660.19,-62.05"/>
</a>
</g>
</g>
<!-- Node14&#45;&gt;Node9 -->
<g id="edge17_Node000014_Node000009" class="edge">
<title>Node14&#45;&gt;Node9</title>
<g id="a_edge17_Node000014_Node000009"><a xlink:title=" ">
<path fill="none" stroke="#63b8ff" d="M560.17,-63.99C540.48,-54.22 517.51,-42.82 499.31,-33.79"/>
<polygon fill="#63b8ff" stroke="#63b8ff" points="558.56,-67.1 569.07,-68.41 561.67,-60.83 558.56,-67.1"/>
</a>
</g>
</g>
<!-- Node15 -->
<g id="Node000015" class="node">
<title>Node15</title>
<g id="a_Node000015"><a xlink:href="motor__tmc_8c.html" target="_top" xlink:title=" ">
<polygon fill="white" stroke="#666666" points="662,-33.5 544,-33.5 544,0 662,0 662,-33.5"/>
<text xml:space="preserve" text-anchor="start" x="552" y="-20" font-family="Helvetica,sans-Serif" font-size="10.00">source/motion/motor</text>
<text xml:space="preserve" text-anchor="middle" x="603" y="-7.25" font-family="Helvetica,sans-Serif" font-size="10.00">/motor_tmc.c</text>
</a>
</g>
</g>
<!-- Node14&#45;&gt;Node15 -->
<g id="edge18_Node000014_Node000015" class="edge">
<title>Node14&#45;&gt;Node15</title>
<g id="a_edge18_Node000014_Node000015"><a xlink:title=" ">
<path fill="none" stroke="#63b8ff" d="M603,-57.81C603,-49.59 603,-40.84 603,-33.63"/>
<polygon fill="#63b8ff" stroke="#63b8ff" points="599.5,-57.74 603,-67.74 606.5,-57.74 599.5,-57.74"/>
</a>
</g>
</g>
<!-- Node16&#45;&gt;Node9 -->
<g id="edge21_Node000016_Node000009" class="edge">
<title>Node16&#45;&gt;Node9</title>
<g id="a_edge21_Node000016_Node000009"><a xlink:title=" ">
<path fill="none" stroke="#63b8ff" d="M373.83,-63.99C393.52,-54.22 416.49,-42.82 434.69,-33.79"/>
<polygon fill="#63b8ff" stroke="#63b8ff" points="372.33,-60.83 364.93,-68.41 375.44,-67.1 372.33,-60.83"/>
</a>
</g>
</g>
<!-- Node16&#45;&gt;Node12 -->
<g id="edge20_Node000016_Node000012" class="edge">
<title>Node16&#45;&gt;Node12</title>
<g id="a_edge20_Node000016_Node000012"><a xlink:title=" ">
<path fill="none" stroke="#63b8ff" d="M328.15,-57.81C327.3,-49.59 326.4,-40.84 325.65,-33.63"/>
<polygon fill="#63b8ff" stroke="#63b8ff" points="324.67,-58.16 329.18,-67.75 331.63,-57.44 324.67,-58.16"/>
</a>
</g>
</g>
<!-- Node17&#45;&gt;Node6 -->
<g id="edge24_Node000017_Node000006" class="edge">
<title>Node17&#45;&gt;Node6</title>
<g id="a_edge24_Node000017_Node000006"><a xlink:title=" ">
<path fill="none" stroke="#63b8ff" d="M804.73,-65.88C839.07,-55.75 880.61,-43.51 913.2,-33.9"/>
<polygon fill="#63b8ff" stroke="#63b8ff" points="803.91,-62.47 795.3,-68.65 805.88,-69.18 803.91,-62.47"/>
</a>
</g>
</g>
<!-- Node17&#45;&gt;Node9 -->
<g id="edge23_Node000017_Node000009" class="edge">
<title>Node17&#45;&gt;Node9</title>
<g id="a_edge23_Node000017_Node000009"><a xlink:title=" ">
<path fill="none" stroke="#63b8ff" d="M668.69,-67.8C624.5,-56.84 568.13,-42.85 526.23,-32.45"/>
<polygon fill="#63b8ff" stroke="#63b8ff" points="667.63,-71.14 678.18,-70.16 669.31,-64.35 667.63,-71.14"/>
</a>
</g>
</g>
<!-- Node18&#45;&gt;Node9 -->
<g id="edge26_Node000018_Node000009" class="edge">
<title>Node18&#45;&gt;Node9</title>
<g id="a_edge26_Node000018_Node000009"><a xlink:title=" ">
<path fill="none" stroke="#63b8ff" d="M467,-57.81C467,-49.59 467,-40.84 467,-33.63"/>
<polygon fill="#63b8ff" stroke="#63b8ff" points="463.5,-57.74 467,-67.74 470.5,-57.74 463.5,-57.74"/>
</a>
</g>
</g>
<!-- Node18&#45;&gt;Node15 -->
<g id="edge27_Node000018_Node000015" class="edge">
<title>Node18&#45;&gt;Node15</title>
<g id="a_edge27_Node000018_Node000015"><a xlink:title=" ">
<path fill="none" stroke="#63b8ff" d="M509.83,-63.99C529.52,-54.22 552.49,-42.82 570.69,-33.79"/>
<polygon fill="#63b8ff" stroke="#63b8ff" points="508.33,-60.83 500.93,-68.41 511.44,-67.1 508.33,-60.83"/>
</a>
</g>
</g>
<!-- Node20&#45;&gt;Node21 -->
<g id="edge30_Node000020_Node000021" class="edge">
<title>Node20&#45;&gt;Node21</title>
<g id="a_edge30_Node000020_Node000021"><a xlink:title=" ">
<path fill="none" stroke="#63b8ff" d="M1092,-135.85C1101.39,-123.18 1113.35,-107.02 1120.85,-96.9"/>
<polygon fill="#63b8ff" stroke="#63b8ff" points="1089.2,-133.74 1086.06,-143.86 1094.83,-137.91 1089.2,-133.74"/>
</a>
</g>
</g>
</g>
</svg>
