<?xml version="1.0" encoding="UTF-8" standalone="no"?>
<!DOCTYPE svg PUBLIC "-//W3C//DTD SVG 1.1//EN"
 "http://www.w3.org/Graphics/SVG/1.1/DTD/svg11.dtd">
<!-- Generated by graphviz version 14.1.4 (0)
 -->
<!-- Title: source/motion/motor/motor_process.c Pages: 1 -->
<!--zoomable 439 -->

<svg id="main" version="1.1" xmlns="http://www.w3.org/2000/svg" xmlns:xlink="http://www.w3.org/1999/xlink" xml:space="preserve" onload="init(evt)">

<style type="text/css"><![CDATA[
.node, .edge {opacity: 0.7;}
.node.selected, .edge.selected {opacity: 1;}
.edge:hover path { stroke: red; }
.edge:hover polygon { stroke: red; fill: red; }
]]></style>

<defs>
  <circle id="rim" cx="0" cy="0" r="7"/>
  <circle id="rim2" cx="0" cy="0" r="3.5"/>
  <g id="zoomPlus">
    <use xlink:href="#rim" fill="#404040"><set attributeName="fill" to="#808080" begin="zoomplus.mouseover" end="zoomplus.mouseout"/></use>
    <path d="M-4,0h8M0,-4v8" fill="none" stroke="white" stroke-width="1.5" pointer-events="none"/>
  </g>
  <g id="zoomMin">
    <use xlink:href="#rim" fill="#404040"><set attributeName="fill" to="#808080" begin="zoomminus.mouseover" end="zoomminus.mouseout"/></use>
    <path d="M-4,0h8" fill="none" stroke="white" stroke-width="1.5" pointer-events="none"/>
  </g>
  <g id="arrowUp" transform="translate(30 24)">
    <use xlink:href="#rim"/>
    <path pointer-events="none" fill="none" stroke="white" stroke-width="1.5" d="M0,-3.0v7 M-2.5,-0.5L0,-3.0L2.5,-0.5"/>
  </g>
  <g id="arrowRight" transform="rotate(90) translate(36 -43)">
    <use xlink:href="#rim"/>
    <path pointer-events="none" fill="none" stroke="white" stroke-width="1.5" d="M0,-3.0v7 M-2.5,-0.5L0,-3.0L2.5,-0.5"/>
  </g>
  <g id="arrowDown" transform="rotate(180) translate(-30 -48)">
    <use xlink:href="#rim"/>
    <path pointer-events="none" fill="none" stroke="white" stroke-width="1.5" d="M0,-3.0v7 M-2.5,-0.5L0,-3.0L2.5,-0.5"/>
  </g>
  <g id="arrowLeft" transform="rotate(270) translate(-36 17)">
    <use xlink:href="#rim"/>
    <path pointer-events="none" fill="none" stroke="white" stroke-width="1.5" d="M0,-3.0v7 M-2.5,-0.5L0,-3.0L2.5,-0.5"/>
  </g>
  <g id="resetDef">
    <use xlink:href="#rim2" fill="#404040"><set attributeName="fill" to="#808080" begin="reset.mouseover" end="reset.mouseout"/></use>
  </g>
</defs>
<script type="application/ecmascript">
var viewWidth = 1394;
var viewHeight = 439;
var sectionId = 'dynsection-0';
</script>
<script type="application/ecmascript" xlink:href="svg.min.js"/>
<svg id="graph" class="graph">
<g id="viewport">
<title>source/motion/motor/motor_process.c</title>
<!-- Node1 -->
<g id="Node000001" class="node">
<title>Node1</title>
<g id="a_Node000001"><a xlink:title=" ">
<polygon fill="#999999" stroke="#666666" points="1146.96,-430.75 1028.96,-430.75 1028.96,-397.25 1146.96,-397.25 1146.96,-430.75"/>
<text xml:space="preserve" text-anchor="start" x="1036.96" y="-417.25" font-family="Helvetica,sans-Serif" font-size="10.00">source/motion/motor</text>
<text xml:space="preserve" text-anchor="middle" x="1087.96" y="-404.5" font-family="Helvetica,sans-Serif" font-size="10.00">/motor_process.c</text>
</a>
</g>
</g>
<!-- Node2 -->
<g id="Node000002" class="node">
<title>Node2</title>
<g id="a_Node000002"><a xlink:href="motor__process_8h.html" target="_top" xlink:title=" ">
<polygon fill="white" stroke="#666666" points="1242.46,-361.25 1145.46,-361.25 1145.46,-340.5 1242.46,-340.5 1242.46,-361.25"/>
<text xml:space="preserve" text-anchor="middle" x="1193.96" y="-347.75" font-family="Helvetica,sans-Serif" font-size="10.00">motor_process.h</text>
</a>
</g>
</g>
<!-- Node1&#45;&gt;Node2 -->
<g id="edge1_Node000001_Node000002" class="edge">
<title>Node1&#45;&gt;Node2</title>
<g id="a_edge1_Node000001_Node000002"><a xlink:title=" ">
<path fill="none" stroke="#63b8ff" d="M1116.08,-396.78C1131.98,-387.61 1151.74,-376.22 1167.38,-367.2"/>
<polygon fill="#63b8ff" stroke="#63b8ff" points="1168.75,-370.45 1175.67,-362.42 1165.26,-364.38 1168.75,-370.45"/>
</a>
</g>
</g>
<!-- Node25 -->
<g id="Node000025" class="node">
<title>Node25</title>
<g id="a_Node000025"><a xlink:href="motor__init_8h.html" target="_top" xlink:title=" ">
<polygon fill="white" stroke="#666666" points="818.58,-361.25 743.33,-361.25 743.33,-340.5 818.58,-340.5 818.58,-361.25"/>
<text xml:space="preserve" text-anchor="middle" x="780.96" y="-347.75" font-family="Helvetica,sans-Serif" font-size="10.00">motor_init.h</text>
</a>
</g>
</g>
<!-- Node1&#45;&gt;Node25 -->
<g id="edge41_Node000001_Node000025" class="edge">
<title>Node1&#45;&gt;Node25</title>
<g id="a_edge41_Node000001_Node000025"><a xlink:title=" ">
<path fill="none" stroke="#63b8ff" d="M1028.58,-401.19C978.35,-391.2 904.15,-376.43 829.88,-361.63"/>
<polygon fill="#63b8ff" stroke="#63b8ff" points="830.9,-358.27 820.4,-359.74 829.53,-365.13 830.9,-358.27"/>
</a>
</g>
</g>
<!-- Node26 -->
<g id="Node000026" class="node">
<title>Node26</title>
<g id="a_Node000026"><a xlink:href="motor__motion_8h.html" target="_top" xlink:title=" ">
<polygon fill="white" stroke="#666666" points="930.96,-361.25 836.96,-361.25 836.96,-340.5 930.96,-340.5 930.96,-361.25"/>
<text xml:space="preserve" text-anchor="middle" x="883.96" y="-347.75" font-family="Helvetica,sans-Serif" font-size="10.00">motor_motion.h</text>
</a>
</g>
</g>
<!-- Node1&#45;&gt;Node26 -->
<g id="edge44_Node000001_Node000026" class="edge">
<title>Node1&#45;&gt;Node26</title>
<g id="a_edge44_Node000001_Node000026"><a xlink:title=" ">
<path fill="none" stroke="#63b8ff" d="M1033.82,-396.78C1000.6,-386.83 958.62,-374.25 927.55,-364.94"/>
<polygon fill="#63b8ff" stroke="#63b8ff" points="928.66,-361.62 918.08,-362.1 926.65,-368.32 928.66,-361.62"/>
</a>
</g>
</g>
<!-- Node27 -->
<g id="Node000027" class="node">
<title>Node27</title>
<g id="a_Node000027"><a xlink:href="motor__sync_8h.html" target="_top" xlink:title=" ">
<polygon fill="white" stroke="#666666" points="1030.96,-361.25 948.96,-361.25 948.96,-340.5 1030.96,-340.5 1030.96,-361.25"/>
<text xml:space="preserve" text-anchor="middle" x="989.96" y="-347.75" font-family="Helvetica,sans-Serif" font-size="10.00">motor_sync.h</text>
</a>
</g>
</g>
<!-- Node1&#45;&gt;Node27 -->
<g id="edge46_Node000001_Node000027" class="edge">
<title>Node1&#45;&gt;Node27</title>
<g id="a_edge46_Node000001_Node000027"><a xlink:title=" ">
<path fill="none" stroke="#63b8ff" d="M1061.95,-396.78C1047.53,-387.79 1029.68,-376.65 1015.36,-367.72"/>
<polygon fill="#63b8ff" stroke="#63b8ff" points="1017.27,-364.79 1006.94,-362.47 1013.57,-370.73 1017.27,-364.79"/>
</a>
</g>
</g>
<!-- Node28 -->
<g id="Node000028" class="node">
<title>Node28</title>
<g id="a_Node000028"><a xlink:href="motor__tmc_8h.html" target="_top" xlink:title=" ">
<polygon fill="white" stroke="#666666" points="1127.08,-361.25 1048.83,-361.25 1048.83,-340.5 1127.08,-340.5 1127.08,-361.25"/>
<text xml:space="preserve" text-anchor="middle" x="1087.96" y="-347.75" font-family="Helvetica,sans-Serif" font-size="10.00">motor_tmc.h</text>
</a>
</g>
</g>
<!-- Node1&#45;&gt;Node28 -->
<g id="edge48_Node000001_Node000028" class="edge">
<title>Node1&#45;&gt;Node28</title>
<g id="a_edge48_Node000001_Node000028"><a xlink:title=" ">
<path fill="none" stroke="#63b8ff" d="M1087.96,-396.94C1087.96,-389.6 1087.96,-380.82 1087.96,-372.96"/>
<polygon fill="#63b8ff" stroke="#63b8ff" points="1091.46,-373.23 1087.96,-363.23 1084.46,-373.23 1091.46,-373.23"/>
</a>
</g>
</g>
<!-- Node29 -->
<g id="Node000029" class="node">
<title>Node29</title>
<g id="a_Node000029"><a xlink:href="cmd__dispatch_8h.html" target="_top" xlink:title=" ">
<polygon fill="white" stroke="#666666" points="1156.21,-191 1063.71,-191 1063.71,-170.25 1156.21,-170.25 1156.21,-191"/>
<text xml:space="preserve" text-anchor="middle" x="1109.96" y="-177.5" font-family="Helvetica,sans-Serif" font-size="10.00">cmd_dispatch.h</text>
</a>
</g>
</g>
<!-- Node1&#45;&gt;Node29 -->
<g id="edge50_Node000001_Node000029" class="edge">
<title>Node1&#45;&gt;Node29</title>
<g id="a_edge50_Node000001_Node000029"><a xlink:title=" ">
<path fill="none" stroke="#63b8ff" d="M1147.26,-411.03C1183.82,-406.37 1228.13,-393.76 1251.96,-361.25 1297.67,-298.88 1191.92,-227.58 1138.49,-196.93"/>
<polygon fill="#63b8ff" stroke="#63b8ff" points="1140.32,-193.94 1129.89,-192.1 1136.89,-200.05 1140.32,-193.94"/>
</a>
</g>
</g>
<!-- Node30 -->
<g id="Node000030" class="node">
<title>Node30</title>
<g id="a_Node000030"><a xlink:href="sync__wait_8h.html" target="_top" xlink:title=" ">
<polygon fill="white" stroke="#666666" points="1279.83,-191 1206.08,-191 1206.08,-170.25 1279.83,-170.25 1279.83,-191"/>
<text xml:space="preserve" text-anchor="middle" x="1242.96" y="-177.5" font-family="Helvetica,sans-Serif" font-size="10.00">sync_wait.h</text>
</a>
</g>
</g>
<!-- Node1&#45;&gt;Node30 -->
<g id="edge55_Node000001_Node000030" class="edge">
<title>Node1&#45;&gt;Node30</title>
<g id="a_edge55_Node000001_Node000030"><a xlink:title=" ">
<path fill="none" stroke="#63b8ff" d="M1147,-404.14C1194.55,-395.66 1255.87,-381.2 1270.96,-361.25 1307.36,-313.12 1273.76,-236.67 1254.42,-201.06"/>
<polygon fill="#63b8ff" stroke="#63b8ff" points="1257.68,-199.71 1249.71,-192.72 1251.58,-203.15 1257.68,-199.71"/>
</a>
</g>
</g>
<!-- Node31 -->
<g id="Node000031" class="node">
<title>Node31</title>
<g id="a_Node000031"><a xlink:href="log_8h.html" target="_top" xlink:title=" ">
<polygon fill="white" stroke="#666666" points="829.96,-134.25 789.96,-134.25 789.96,-113.5 829.96,-113.5 829.96,-134.25"/>
<text xml:space="preserve" text-anchor="middle" x="809.96" y="-120.75" font-family="Helvetica,sans-Serif" font-size="10.00">log.h</text>
</a>
</g>
</g>
<!-- Node1&#45;&gt;Node31 -->
<g id="edge61_Node000001_Node000031" class="edge">
<title>Node1&#45;&gt;Node31</title>
<g id="a_edge61_Node000001_Node000031"><a xlink:title=" ">
<path fill="none" stroke="#63b8ff" d="M1028.57,-413.28C937.85,-412.3 771.32,-404.48 733.96,-361.25 677.08,-295.46 757.05,-186.57 793.5,-143.36"/>
<polygon fill="#63b8ff" stroke="#63b8ff" points="796.07,-145.74 799.95,-135.88 790.77,-141.16 796.07,-145.74"/>
</a>
</g>
</g>
<!-- Node32 -->
<g id="Node000032" class="node">
<title>Node32</title>
<g id="a_Node000032"><a xlink:title=" ">
<polygon fill="#e0e0e0" stroke="#999999" points="1386.46,-361.25 1337.46,-361.25 1337.46,-340.5 1386.46,-340.5 1386.46,-361.25"/>
<text xml:space="preserve" text-anchor="middle" x="1361.96" y="-347.75" font-family="Helvetica,sans-Serif" font-size="10.00">stdio.h</text>
</a>
</g>
</g>
<!-- Node1&#45;&gt;Node32 -->
<g id="edge64_Node000001_Node000032" class="edge">
<title>Node1&#45;&gt;Node32</title>
<g id="a_edge64_Node000001_Node000032"><a xlink:title=" ">
<path fill="none" stroke="#63b8ff" d="M1147.42,-400.23C1194.97,-389.95 1263.31,-374.98 1322.96,-361.25 1323.96,-361.02 1324.99,-360.78 1326.02,-360.54"/>
<polygon fill="#63b8ff" stroke="#63b8ff" points="1326.81,-363.95 1335.74,-358.25 1325.2,-357.14 1326.81,-363.95"/>
</a>
</g>
</g>
<!-- Node3 -->
<g id="Node000003" class="node">
<title>Node3</title>
<g id="a_Node000003"><a xlink:href="motor__internal_8h.html" target="_top" xlink:title=" ">
<polygon fill="white" stroke="#666666" points="1014.46,-304.5 917.46,-304.5 917.46,-283.75 1014.46,-283.75 1014.46,-304.5"/>
<text xml:space="preserve" text-anchor="middle" x="965.96" y="-291" font-family="Helvetica,sans-Serif" font-size="10.00">motor_internal.h</text>
</a>
</g>
</g>
<!-- Node2&#45;&gt;Node3 -->
<g id="edge2_Node000002_Node000003" class="edge">
<title>Node2&#45;&gt;Node3</title>
<g id="a_edge2_Node000002_Node000003"><a xlink:title=" ">
<path fill="none" stroke="#63b8ff" d="M1152.93,-340.02C1115.19,-330.96 1059.06,-317.48 1018.14,-307.66"/>
<polygon fill="#63b8ff" stroke="#63b8ff" points="1019.05,-304.27 1008.51,-305.34 1017.41,-311.08 1019.05,-304.27"/>
</a>
</g>
</g>
<!-- Node4 -->
<g id="Node000004" class="node">
<title>Node4</title>
<g id="a_Node000004"><a xlink:href="motor__core_8h.html" target="_top" xlink:title=" ">
<polygon fill="white" stroke="#666666" points="485.21,-247.75 404.71,-247.75 404.71,-227 485.21,-227 485.21,-247.75"/>
<text xml:space="preserve" text-anchor="middle" x="444.96" y="-234.25" font-family="Helvetica,sans-Serif" font-size="10.00">motor_core.h</text>
</a>
</g>
</g>
<!-- Node3&#45;&gt;Node4 -->
<g id="edge3_Node000003_Node000004" class="edge">
<title>Node3&#45;&gt;Node4</title>
<g id="a_edge3_Node000003_Node000004"><a xlink:title=" ">
<path fill="none" stroke="#63b8ff" d="M917.41,-288.02C819.24,-277.71 597.91,-254.45 496.94,-243.84"/>
<polygon fill="#63b8ff" stroke="#63b8ff" points="497.34,-240.36 487.03,-242.8 496.61,-247.32 497.34,-240.36"/>
</a>
</g>
</g>
<!-- Node10 -->
<g id="Node000010" class="node">
<title>Node10</title>
<g id="a_Node000010"><a xlink:title=" ">
<polygon fill="#e0e0e0" stroke="#999999" points="921.71,-77.5 850.21,-77.5 850.21,-56.75 921.71,-56.75 921.71,-77.5"/>
<text xml:space="preserve" text-anchor="middle" x="885.96" y="-64" font-family="Helvetica,sans-Serif" font-size="10.00">FreeRTOS.h</text>
</a>
</g>
</g>
<!-- Node3&#45;&gt;Node10 -->
<g id="edge38_Node000003_Node000010" class="edge">
<title>Node3&#45;&gt;Node10</title>
<g id="a_edge38_Node000003_Node000010"><a xlink:title=" ">
<path fill="none" stroke="#63b8ff" d="M962.52,-283.46C950.44,-249.49 909.78,-135.14 893.14,-88.34"/>
<polygon fill="#63b8ff" stroke="#63b8ff" points="896.53,-87.43 889.89,-79.18 889.94,-89.78 896.53,-87.43"/>
</a>
</g>
</g>
<!-- Node15 -->
<g id="Node000015" class="node">
<title>Node15</title>
<g id="a_Node000015"><a xlink:href="cmd__handle_8h.html" target="_top" xlink:title=" ">
<polygon fill="white" stroke="#666666" points="1008.08,-134.25 923.83,-134.25 923.83,-113.5 1008.08,-113.5 1008.08,-134.25"/>
<text xml:space="preserve" text-anchor="middle" x="965.96" y="-120.75" font-family="Helvetica,sans-Serif" font-size="10.00">cmd_handle.h</text>
</a>
</g>
</g>
<!-- Node3&#45;&gt;Node15 -->
<g id="edge40_Node000003_Node000015" class="edge">
<title>Node3&#45;&gt;Node15</title>
<g id="a_edge40_Node000003_Node000015"><a xlink:title=" ">
<path fill="none" stroke="#63b8ff" d="M965.96,-283.6C965.96,-257.23 965.96,-182.83 965.96,-146.03"/>
<polygon fill="#63b8ff" stroke="#63b8ff" points="969.46,-146.23 965.96,-136.23 962.46,-146.23 969.46,-146.23"/>
</a>
</g>
</g>
<!-- Node24 -->
<g id="Node000024" class="node">
<title>Node24</title>
<g id="a_Node000024"><a xlink:title=" ">
<polygon fill="#e0e0e0" stroke="#999999" points="1081.46,-134.25 1026.46,-134.25 1026.46,-113.5 1081.46,-113.5 1081.46,-134.25"/>
<text xml:space="preserve" text-anchor="middle" x="1053.96" y="-120.75" font-family="Helvetica,sans-Serif" font-size="10.00">queue.h</text>
</a>
</g>
</g>
<!-- Node3&#45;&gt;Node24 -->
<g id="edge39_Node000003_Node000024" class="edge">
<title>Node3&#45;&gt;Node24</title>
<g id="a_edge39_Node000003_Node000024"><a xlink:title=" ">
<path fill="none" stroke="#63b8ff" d="M970.94,-283.6C984.91,-256.89 1024.67,-180.87 1043.64,-144.6"/>
<polygon fill="#63b8ff" stroke="#63b8ff" points="1046.57,-146.54 1048.11,-136.06 1040.37,-143.3 1046.57,-146.54"/>
</a>
</g>
</g>
<!-- Node5 -->
<g id="Node000005" class="node">
<title>Node5</title>
<g id="a_Node000005"><a xlink:href="pca9555a_8h.html" target="_top" xlink:title=" ">
<polygon fill="white" stroke="#666666" points="339.96,-77.5 185.96,-77.5 185.96,-56.75 339.96,-56.75 339.96,-77.5"/>
<text xml:space="preserve" text-anchor="middle" x="262.96" y="-64" font-family="Helvetica,sans-Serif" font-size="10.00">driver/pca9555a/pca9555a.h</text>
</a>
</g>
</g>
<!-- Node4&#45;&gt;Node5 -->
<g id="edge4_Node000004_Node000005" class="edge">
<title>Node4&#45;&gt;Node5</title>
<g id="a_edge4_Node000004_Node000005"><a xlink:title=" ">
<path fill="none" stroke="#63b8ff" d="M404.45,-232.21C374.56,-227.13 334.75,-215.88 308.96,-191 280.36,-163.43 269.38,-116.4 265.28,-89.22"/>
<polygon fill="#63b8ff" stroke="#63b8ff" points="268.77,-88.92 264.01,-79.46 261.83,-89.83 268.77,-88.92"/>
</a>
</g>
</g>
<!-- Node8 -->
<g id="Node000008" class="node">
<title>Node8</title>
<g id="a_Node000008"><a xlink:title=" ">
<polygon fill="#e0e0e0" stroke="#999999" points="417.33,-191 328.58,-191 328.58,-170.25 417.33,-170.25 417.33,-191"/>
<text xml:space="preserve" text-anchor="middle" x="372.96" y="-177.5" font-family="Helvetica,sans-Serif" font-size="10.00">MK22F51212.h</text>
</a>
</g>
</g>
<!-- Node4&#45;&gt;Node8 -->
<g id="edge7_Node000004_Node000008" class="edge">
<title>Node4&#45;&gt;Node8</title>
<g id="a_edge7_Node000004_Node000008"><a xlink:title=" ">
<path fill="none" stroke="#63b8ff" d="M432.08,-226.59C421.74,-218.72 406.99,-207.5 394.8,-198.24"/>
<polygon fill="#63b8ff" stroke="#63b8ff" points="397,-195.51 386.92,-192.24 392.76,-201.08 397,-195.51"/>
</a>
</g>
</g>
<!-- Node9 -->
<g id="Node000009" class="node">
<title>Node9</title>
<g id="a_Node000009"><a xlink:href="step__core_8h.html" target="_top" xlink:title=" ">
<polygon fill="white" stroke="#666666" points="623.08,-191 550.83,-191 550.83,-170.25 623.08,-170.25 623.08,-191"/>
<text xml:space="preserve" text-anchor="middle" x="586.96" y="-177.5" font-family="Helvetica,sans-Serif" font-size="10.00">step_core.h</text>
</a>
</g>
</g>
<!-- Node4&#45;&gt;Node9 -->
<g id="edge8_Node000004_Node000009" class="edge">
<title>Node4&#45;&gt;Node9</title>
<g id="a_edge8_Node000004_Node000009"><a xlink:title=" ">
<path fill="none" stroke="#63b8ff" d="M470.34,-226.59C492.86,-217.91 525.98,-205.13 551.18,-195.42"/>
<polygon fill="#63b8ff" stroke="#63b8ff" points="552.3,-198.74 560.38,-191.87 549.79,-192.2 552.3,-198.74"/>
</a>
</g>
</g>
<!-- Node12 -->
<g id="Node000012" class="node">
<title>Node12</title>
<g id="a_Node000012"><a xlink:title=" ">
<polygon fill="#e0e0e0" stroke="#999999" points="416.33,-77.5 357.58,-77.5 357.58,-56.75 416.33,-56.75 416.33,-77.5"/>
<text xml:space="preserve" text-anchor="middle" x="386.96" y="-64" font-family="Helvetica,sans-Serif" font-size="10.00">fsl_ftm.h</text>
</a>
</g>
</g>
<!-- Node4&#45;&gt;Node12 -->
<g id="edge35_Node000004_Node000012" class="edge">
<title>Node4&#45;&gt;Node12</title>
<g id="a_edge35_Node000004_Node000012"><a xlink:title=" ">
<path fill="none" stroke="#63b8ff" d="M404.47,-233.46C375.69,-229.03 338.9,-218.04 319.96,-191 295.02,-155.43 337.6,-109.61 365.54,-85.21"/>
<polygon fill="#63b8ff" stroke="#63b8ff" points="367.79,-87.89 373.18,-78.77 363.28,-82.54 367.79,-87.89"/>
</a>
</g>
</g>
<!-- Node13 -->
<g id="Node000013" class="node">
<title>Node13</title>
<g id="a_Node000013"><a xlink:title=" ">
<polygon fill="#e0e0e0" stroke="#999999" points="497.58,-77.5 434.33,-77.5 434.33,-56.75 497.58,-56.75 497.58,-77.5"/>
<text xml:space="preserve" text-anchor="middle" x="465.96" y="-64" font-family="Helvetica,sans-Serif" font-size="10.00">fsl_gpio.h</text>
</a>
</g>
</g>
<!-- Node4&#45;&gt;Node13 -->
<g id="edge36_Node000004_Node000013" class="edge">
<title>Node4&#45;&gt;Node13</title>
<g id="a_edge36_Node000004_Node000013"><a xlink:title=" ">
<path fill="none" stroke="#63b8ff" d="M446.14,-226.85C449.44,-200.48 458.72,-126.08 463.32,-89.28"/>
<polygon fill="#63b8ff" stroke="#63b8ff" points="466.77,-89.83 464.54,-79.47 459.83,-88.96 466.77,-89.83"/>
</a>
</g>
</g>
<!-- Node14 -->
<g id="Node000014" class="node">
<title>Node14</title>
<g id="a_Node000014"><a xlink:title=" ">
<polygon fill="#e0e0e0" stroke="#999999" points="755.83,-77.5 694.08,-77.5 694.08,-56.75 755.83,-56.75 755.83,-77.5"/>
<text xml:space="preserve" text-anchor="middle" x="724.96" y="-64" font-family="Helvetica,sans-Serif" font-size="10.00">fsl_port.h</text>
</a>
</g>
</g>
<!-- Node4&#45;&gt;Node14 -->
<g id="edge37_Node000004_Node000014" class="edge">
<title>Node4&#45;&gt;Node14</title>
<g id="a_edge37_Node000004_Node000014"><a xlink:title=" ">
<path fill="none" stroke="#63b8ff" d="M485.66,-231.54C524.7,-225.77 584.56,-213.86 631.96,-191 668.97,-173.15 681.69,-168.12 704.96,-134.25 714.21,-120.78 719.28,-102.91 722,-89.14"/>
<polygon fill="#63b8ff" stroke="#63b8ff" points="725.43,-89.83 723.63,-79.39 718.53,-88.67 725.43,-89.83"/>
</a>
</g>
</g>
<!-- Node21 -->
<g id="Node000021" class="node">
<title>Node21</title>
<g id="a_Node000021"><a xlink:href="tmc2209__core_8h.html" target="_top" xlink:title=" ">
<polygon fill="white" stroke="#666666" points="204.96,-191 110.96,-191 110.96,-170.25 204.96,-170.25 204.96,-191"/>
<text xml:space="preserve" text-anchor="middle" x="157.96" y="-177.5" font-family="Helvetica,sans-Serif" font-size="10.00">tmc2209_core.h</text>
</a>
</g>
</g>
<!-- Node4&#45;&gt;Node21 -->
<g id="edge29_Node000004_Node000021" class="edge">
<title>Node4&#45;&gt;Node21</title>
<g id="a_edge29_Node000004_Node000021"><a xlink:title=" ">
<path fill="none" stroke="#63b8ff" d="M404.44,-228.65C355.44,-219.3 272.57,-203.49 216.59,-192.81"/>
<polygon fill="#63b8ff" stroke="#63b8ff" points="217.39,-189.4 206.91,-190.96 216.08,-196.28 217.39,-189.4"/>
</a>
</g>
</g>
<!-- Node6 -->
<g id="Node000006" class="node">
<title>Node6</title>
<g id="a_Node000006"><a xlink:title=" ">
<polygon fill="#e0e0e0" stroke="#999999" points="826.46,-20.75 741.46,-20.75 741.46,0 826.46,0 826.46,-20.75"/>
<text xml:space="preserve" text-anchor="middle" x="783.96" y="-7.25" font-family="Helvetica,sans-Serif" font-size="10.00">fsl_common.h</text>
</a>
</g>
</g>
<!-- Node5&#45;&gt;Node6 -->
<g id="edge5_Node000005_Node000006" class="edge">
<title>Node5&#45;&gt;Node6</title>
<g id="a_edge5_Node000005_Node000006"><a xlink:title=" ">
<path fill="none" stroke="#63b8ff" d="M340.31,-57.68C343.23,-57.36 346.12,-57.05 348.96,-56.75 486.01,-42.13 647.4,-25.43 729.72,-16.95"/>
<polygon fill="#63b8ff" stroke="#63b8ff" points="729.94,-20.45 739.53,-15.94 729.23,-13.48 729.94,-20.45"/>
</a>
</g>
</g>
<!-- Node7 -->
<g id="Node000007" class="node">
<title>Node7</title>
<g id="a_Node000007"><a xlink:title=" ">
<polygon fill="#e0e0e0" stroke="#999999" points="169.83,-20.75 90.08,-20.75 90.08,0 169.83,0 169.83,-20.75"/>
<text xml:space="preserve" text-anchor="middle" x="129.96" y="-7.25" font-family="Helvetica,sans-Serif" font-size="10.00">peripherals.h</text>
</a>
</g>
</g>
<!-- Node5&#45;&gt;Node7 -->
<g id="edge6_Node000005_Node000007" class="edge">
<title>Node5&#45;&gt;Node7</title>
<g id="a_edge6_Node000005_Node000007"><a xlink:title=" ">
<path fill="none" stroke="#63b8ff" d="M239.18,-56.34C218.28,-47.73 187.62,-35.11 164.1,-25.43"/>
<polygon fill="#63b8ff" stroke="#63b8ff" points="165.51,-22.22 154.93,-21.65 162.84,-28.7 165.51,-22.22"/>
</a>
</g>
</g>
<!-- Node9&#45;&gt;Node5 -->
<g id="edge9_Node000009_Node000005" class="edge">
<title>Node9&#45;&gt;Node5</title>
<g id="a_edge9_Node000009_Node000005"><a xlink:title=" ">
<path fill="none" stroke="#63b8ff" d="M555.21,-169.76C526.56,-160.78 483.31,-147.01 445.96,-134.25 395.11,-116.89 336.81,-95.58 299.94,-81.92"/>
<polygon fill="#63b8ff" stroke="#63b8ff" points="301.23,-78.67 290.64,-78.47 298.79,-85.23 301.23,-78.67"/>
</a>
</g>
</g>
<!-- Node9&#45;&gt;Node6 -->
<g id="edge12_Node000009_Node000006" class="edge">
<title>Node9&#45;&gt;Node6</title>
<g id="a_edge12_Node000009_Node000006"><a xlink:title=" ">
<path fill="none" stroke="#63b8ff" d="M622.99,-169.8C647.28,-162.24 679.42,-150.34 704.96,-134.25 736.01,-114.68 745.88,-108.86 764.96,-77.5 773.41,-63.59 778.25,-45.75 780.93,-32.11"/>
<polygon fill="#63b8ff" stroke="#63b8ff" points="784.34,-32.93 782.56,-22.48 777.44,-31.76 784.34,-32.93"/>
</a>
</g>
</g>
<!-- Node9&#45;&gt;Node10 -->
<g id="edge10_Node000009_Node000010" class="edge">
<title>Node9&#45;&gt;Node10</title>
<g id="a_edge10_Node000009_Node000010"><a xlink:title=" ">
<path fill="none" stroke="#63b8ff" d="M623.38,-176.46C684.31,-170.62 803.67,-156.64 838.96,-134.25 856.56,-123.08 869.52,-102.71 877.33,-87.52"/>
<polygon fill="#63b8ff" stroke="#63b8ff" points="880.27,-89.48 881.43,-78.94 873.96,-86.45 880.27,-89.48"/>
</a>
</g>
</g>
<!-- Node11 -->
<g id="Node000011" class="node">
<title>Node11</title>
<g id="a_Node000011"><a xlink:title=" ">
<polygon fill="#e0e0e0" stroke="#999999" points="695.96,-134.25 649.96,-134.25 649.96,-113.5 695.96,-113.5 695.96,-134.25"/>
<text xml:space="preserve" text-anchor="middle" x="672.96" y="-120.75" font-family="Helvetica,sans-Serif" font-size="10.00">task.h</text>
</a>
</g>
</g>
<!-- Node9&#45;&gt;Node11 -->
<g id="edge11_Node000009_Node000011" class="edge">
<title>Node9&#45;&gt;Node11</title>
<g id="a_edge11_Node000009_Node000011"><a xlink:title=" ">
<path fill="none" stroke="#63b8ff" d="M602.33,-169.84C615.05,-161.74 633.36,-150.08 648.15,-140.67"/>
<polygon fill="#63b8ff" stroke="#63b8ff" points="649.88,-143.71 656.44,-135.39 646.12,-137.81 649.88,-143.71"/>
</a>
</g>
</g>
<!-- Node9&#45;&gt;Node12 -->
<g id="edge13_Node000009_Node000012" class="edge">
<title>Node9&#45;&gt;Node12</title>
<g id="a_edge13_Node000009_Node000012"><a xlink:title=" ">
<path fill="none" stroke="#63b8ff" d="M560.37,-169.84C538.72,-161.48 507.63,-148.55 481.96,-134.25 455.46,-119.5 427.2,-99.17 408.45,-84.96"/>
<polygon fill="#63b8ff" stroke="#63b8ff" points="410.6,-82.19 400.54,-78.88 406.34,-87.74 410.6,-82.19"/>
</a>
</g>
</g>
<!-- Node9&#45;&gt;Node13 -->
<g id="edge14_Node000009_Node000013" class="edge">
<title>Node9&#45;&gt;Node13</title>
<g id="a_edge14_Node000009_Node000013"><a xlink:title=" ">
<path fill="none" stroke="#63b8ff" d="M558.69,-169.76C540.46,-162.27 517.2,-150.47 500.96,-134.25 488.03,-121.34 478.74,-102.66 473,-88.45"/>
<polygon fill="#63b8ff" stroke="#63b8ff" points="476.32,-87.33 469.53,-79.2 469.76,-89.79 476.32,-87.33"/>
</a>
</g>
</g>
<!-- Node9&#45;&gt;Node14 -->
<g id="edge15_Node000009_Node000014" class="edge">
<title>Node9&#45;&gt;Node14</title>
<g id="a_edge15_Node000009_Node000014"><a xlink:title=" ">
<path fill="none" stroke="#63b8ff" d="M592.97,-170.1C602.05,-156.28 620.39,-130.5 640.96,-113.5 656.05,-101.03 675.1,-90.4 691.24,-82.58"/>
<polygon fill="#63b8ff" stroke="#63b8ff" points="692.41,-85.9 699.98,-78.49 689.44,-79.56 692.41,-85.9"/>
</a>
</g>
</g>
<!-- Node9&#45;&gt;Node15 -->
<g id="edge16_Node000009_Node000015" class="edge">
<title>Node9&#45;&gt;Node15</title>
<g id="a_edge16_Node000009_Node000015"><a xlink:title=" ">
<path fill="none" stroke="#63b8ff" d="M623.3,-174.38C690.4,-164.68 834.04,-143.93 912.35,-132.62"/>
<polygon fill="#63b8ff" stroke="#63b8ff" points="912.52,-136.13 921.91,-131.24 911.51,-129.2 912.52,-136.13"/>
</a>
</g>
</g>
<!-- Node19 -->
<g id="Node000019" class="node">
<title>Node19</title>
<g id="a_Node000019"><a xlink:href="step__shared_8h.html" target="_top" xlink:title=" ">
<polygon fill="white" stroke="#666666" points="594.08,-134.25 509.83,-134.25 509.83,-113.5 594.08,-113.5 594.08,-134.25"/>
<text xml:space="preserve" text-anchor="middle" x="551.96" y="-120.75" font-family="Helvetica,sans-Serif" font-size="10.00">step_shared.h</text>
</a>
</g>
</g>
<!-- Node9&#45;&gt;Node19 -->
<g id="edge22_Node000009_Node000019" class="edge">
<title>Node9&#45;&gt;Node19</title>
<g id="a_edge22_Node000009_Node000019"><a xlink:title=" ">
<path fill="none" stroke="#63b8ff" d="M580.7,-169.84C576.12,-162.67 569.76,-152.73 564.19,-144.01"/>
<polygon fill="#63b8ff" stroke="#63b8ff" points="567.31,-142.39 558.97,-135.85 561.41,-146.16 567.31,-142.39"/>
</a>
</g>
</g>
<!-- Node15&#45;&gt;Node6 -->
<g id="edge20_Node000015_Node000006" class="edge">
<title>Node15&#45;&gt;Node6</title>
<g id="a_edge20_Node000015_Node000006"><a xlink:title=" ">
<path fill="none" stroke="#63b8ff" d="M977.78,-113.2C992.92,-99.65 1015.53,-74.69 1000.96,-56.75 980.8,-31.95 895.49,-20.23 838.03,-15.06"/>
<polygon fill="#63b8ff" stroke="#63b8ff" points="838.35,-11.57 828.09,-14.21 837.75,-18.55 838.35,-11.57"/>
</a>
</g>
</g>
<!-- Node15&#45;&gt;Node10 -->
<g id="edge18_Node000015_Node000010" class="edge">
<title>Node15&#45;&gt;Node10</title>
<g id="a_edge18_Node000015_Node000010"><a xlink:title=" ">
<path fill="none" stroke="#63b8ff" d="M951.65,-113.09C939.94,-105.07 923.12,-93.56 909.43,-84.19"/>
<polygon fill="#63b8ff" stroke="#63b8ff" points="911.61,-81.44 901.38,-78.68 907.66,-87.22 911.61,-81.44"/>
</a>
</g>
</g>
<!-- Node16 -->
<g id="Node000016" class="node">
<title>Node16</title>
<g id="a_Node000016"><a xlink:title=" ">
<polygon fill="#e0e0e0" stroke="#999999" points="1210.33,-77.5 1157.58,-77.5 1157.58,-56.75 1210.33,-56.75 1210.33,-77.5"/>
<text xml:space="preserve" text-anchor="middle" x="1183.96" y="-64" font-family="Helvetica,sans-Serif" font-size="10.00">stdint.h</text>
</a>
</g>
</g>
<!-- Node15&#45;&gt;Node16 -->
<g id="edge17_Node000015_Node000016" class="edge">
<title>Node15&#45;&gt;Node16</title>
<g id="a_edge17_Node000015_Node000016"><a xlink:title=" ">
<path fill="none" stroke="#63b8ff" d="M1006.35,-113.09C1041.08,-104.62 1092.78,-91.9 1146.16,-78.19"/>
<polygon fill="#63b8ff" stroke="#63b8ff" points="1146.94,-81.6 1155.75,-75.72 1145.19,-74.83 1146.94,-81.6"/>
</a>
</g>
</g>
<!-- Node17 -->
<g id="Node000017" class="node">
<title>Node17</title>
<g id="a_Node000017"><a xlink:title=" ">
<polygon fill="#e0e0e0" stroke="#999999" points="1139.46,-77.5 1048.46,-77.5 1048.46,-56.75 1139.46,-56.75 1139.46,-77.5"/>
<text xml:space="preserve" text-anchor="middle" x="1093.96" y="-64" font-family="Helvetica,sans-Serif" font-size="10.00">event_groups.h</text>
</a>
</g>
</g>
<!-- Node15&#45;&gt;Node17 -->
<g id="edge19_Node000015_Node000017" class="edge">
<title>Node15&#45;&gt;Node17</title>
<g id="a_edge19_Node000015_Node000017"><a xlink:title=" ">
<path fill="none" stroke="#63b8ff" d="M988.84,-113.09C1008.86,-104.52 1038.19,-91.98 1060.79,-82.31"/>
<polygon fill="#63b8ff" stroke="#63b8ff" points="1062.06,-85.57 1069.88,-78.42 1059.31,-79.14 1062.06,-85.57"/>
</a>
</g>
</g>
<!-- Node18 -->
<g id="Node000018" class="node">
<title>Node18</title>
<g id="a_Node000018"><a xlink:title=" ">
<polygon fill="#e0e0e0" stroke="#999999" points="991.96,-77.5 939.96,-77.5 939.96,-56.75 991.96,-56.75 991.96,-77.5"/>
<text xml:space="preserve" text-anchor="middle" x="965.96" y="-64" font-family="Helvetica,sans-Serif" font-size="10.00">stdlib.h</text>
</a>
</g>
</g>
<!-- Node15&#45;&gt;Node18 -->
<g id="edge21_Node000015_Node000018" class="edge">
<title>Node15&#45;&gt;Node18</title>
<g id="a_edge21_Node000015_Node000018"><a xlink:title=" ">
<path fill="none" stroke="#63b8ff" d="M965.96,-113.09C965.96,-106.47 965.96,-97.47 965.96,-89.27"/>
<polygon fill="#63b8ff" stroke="#63b8ff" points="969.46,-89.34 965.96,-79.34 962.46,-89.34 969.46,-89.34"/>
</a>
</g>
</g>
<!-- Node19&#45;&gt;Node5 -->
<g id="edge23_Node000019_Node000005" class="edge">
<title>Node19&#45;&gt;Node5</title>
<g id="a_edge23_Node000019_Node000005"><a xlink:title=" ">
<path fill="none" stroke="#63b8ff" d="M509.62,-114.86C461.29,-105.7 381.74,-90.63 326.09,-80.09"/>
<polygon fill="#63b8ff" stroke="#63b8ff" points="326.91,-76.68 316.43,-78.26 325.6,-83.56 326.91,-76.68"/>
</a>
</g>
</g>
<!-- Node19&#45;&gt;Node6 -->
<g id="edge25_Node000019_Node000006" class="edge">
<title>Node19&#45;&gt;Node6</title>
<g id="a_edge25_Node000019_Node000006"><a xlink:title=" ">
<path fill="none" stroke="#63b8ff" d="M573.25,-113.11C592.61,-104.13 621.89,-90.32 646.96,-77.5 664.09,-68.74 667.75,-65.38 684.96,-56.75 706.67,-45.86 731.53,-34.47 750.9,-25.83"/>
<polygon fill="#63b8ff" stroke="#63b8ff" points="752.22,-29.07 759.95,-21.82 749.39,-22.67 752.22,-29.07"/>
</a>
</g>
</g>
<!-- Node19&#45;&gt;Node12 -->
<g id="edge26_Node000019_Node000012" class="edge">
<title>Node19&#45;&gt;Node12</title>
<g id="a_edge26_Node000019_Node000012"><a xlink:title=" ">
<path fill="none" stroke="#63b8ff" d="M522.46,-113.09C495.91,-104.28 456.66,-91.25 427.23,-81.49"/>
<polygon fill="#63b8ff" stroke="#63b8ff" points="428.51,-78.22 417.91,-78.4 426.3,-84.87 428.51,-78.22"/>
</a>
</g>
</g>
<!-- Node19&#45;&gt;Node13 -->
<g id="edge27_Node000019_Node000013" class="edge">
<title>Node19&#45;&gt;Node13</title>
<g id="a_edge27_Node000019_Node000013"><a xlink:title=" ">
<path fill="none" stroke="#63b8ff" d="M536.58,-113.09C523.86,-104.99 505.55,-93.33 490.76,-83.92"/>
<polygon fill="#63b8ff" stroke="#63b8ff" points="492.79,-81.06 482.47,-78.64 489.03,-86.96 492.79,-81.06"/>
</a>
</g>
</g>
<!-- Node19&#45;&gt;Node14 -->
<g id="edge28_Node000019_Node000014" class="edge">
<title>Node19&#45;&gt;Node14</title>
<g id="a_edge28_Node000019_Node000014"><a xlink:title=" ">
<path fill="none" stroke="#63b8ff" d="M582.88,-113.09C610.84,-104.24 652.23,-91.14 683.14,-81.36"/>
<polygon fill="#63b8ff" stroke="#63b8ff" points="684.08,-84.73 692.56,-78.38 681.97,-78.06 684.08,-84.73"/>
</a>
</g>
</g>
<!-- Node20 -->
<g id="Node000020" class="node">
<title>Node20</title>
<g id="a_Node000020"><a xlink:title=" ">
<polygon fill="#e0e0e0" stroke="#999999" points="638.21,-77.5 515.71,-77.5 515.71,-56.75 638.21,-56.75 638.21,-77.5"/>
<text xml:space="preserve" text-anchor="middle" x="576.96" y="-64" font-family="Helvetica,sans-Serif" font-size="10.00">fsl_device_registers.h</text>
</a>
</g>
</g>
<!-- Node19&#45;&gt;Node20 -->
<g id="edge24_Node000019_Node000020" class="edge">
<title>Node19&#45;&gt;Node20</title>
<g id="a_edge24_Node000019_Node000020"><a xlink:title=" ">
<path fill="none" stroke="#63b8ff" d="M556.42,-113.09C559.59,-106.16 563.94,-96.62 567.83,-88.11"/>
<polygon fill="#63b8ff" stroke="#63b8ff" points="570.93,-89.76 571.9,-79.21 564.56,-86.85 570.93,-89.76"/>
</a>
</g>
</g>
<!-- Node21&#45;&gt;Node6 -->
<g id="edge32_Node000021_Node000006" class="edge">
<title>Node21&#45;&gt;Node6</title>
<g id="a_edge32_Node000021_Node000006"><a xlink:title=" ">
<path fill="none" stroke="#63b8ff" d="M155.92,-169.83C151.68,-146.33 144.77,-86.49 176.96,-56.75 217.1,-19.65 588.96,-12.88 730.03,-11.65"/>
<polygon fill="#63b8ff" stroke="#63b8ff" points="729.88,-15.15 739.85,-11.57 729.83,-8.15 729.88,-15.15"/>
</a>
</g>
</g>
<!-- Node21&#45;&gt;Node7 -->
<g id="edge34_Node000021_Node000007" class="edge">
<title>Node21&#45;&gt;Node7</title>
<g id="a_edge34_Node000021_Node000007"><a xlink:title=" ">
<path fill="none" stroke="#63b8ff" d="M110.79,-178.36C78.11,-174.72 36.72,-163.99 14.96,-134.25 -5.39,-106.45 -4.42,-85.23 14.96,-56.75 29.34,-35.61 55.24,-24.32 78.82,-18.29"/>
<polygon fill="#63b8ff" stroke="#63b8ff" points="79.35,-21.76 88.32,-16.14 77.8,-14.93 79.35,-21.76"/>
</a>
</g>
</g>
<!-- Node21&#45;&gt;Node15 -->
<g id="edge33_Node000021_Node000015" class="edge">
<title>Node21&#45;&gt;Node15</title>
<g id="a_edge33_Node000021_Node000015"><a xlink:title=" ">
<path fill="none" stroke="#63b8ff" d="M205.44,-176.58C316.35,-169.44 601.08,-150.95 838.96,-134.25 862.9,-132.57 889.38,-130.63 911.93,-128.95"/>
<polygon fill="#63b8ff" stroke="#63b8ff" points="912.12,-132.44 921.83,-128.21 911.6,-125.46 912.12,-132.44"/>
</a>
</g>
</g>
<!-- Node22 -->
<g id="Node000022" class="node">
<title>Node22</title>
<g id="a_Node000022"><a xlink:href="tmc2209__shared_8h.html" target="_top" xlink:title=" ">
<polygon fill="white" stroke="#666666" points="129.96,-134.25 23.96,-134.25 23.96,-113.5 129.96,-113.5 129.96,-134.25"/>
<text xml:space="preserve" text-anchor="middle" x="76.96" y="-120.75" font-family="Helvetica,sans-Serif" font-size="10.00">tmc2209_shared.h</text>
</a>
</g>
</g>
<!-- Node21&#45;&gt;Node22 -->
<g id="edge30_Node000021_Node000022" class="edge">
<title>Node21&#45;&gt;Node22</title>
<g id="a_edge30_Node000021_Node000022"><a xlink:title=" ">
<path fill="none" stroke="#63b8ff" d="M143.47,-169.84C131.61,-161.82 114.58,-150.31 100.72,-140.94"/>
<polygon fill="#63b8ff" stroke="#63b8ff" points="102.81,-138.13 92.56,-135.43 98.89,-143.93 102.81,-138.13"/>
</a>
</g>
</g>
<!-- Node23 -->
<g id="Node000023" class="node">
<title>Node23</title>
<g id="a_Node000023"><a xlink:title=" ">
<polygon fill="#e0e0e0" stroke="#999999" points="129.58,-77.5 24.33,-77.5 24.33,-56.75 129.58,-56.75 129.58,-77.5"/>
<text xml:space="preserve" text-anchor="middle" x="76.96" y="-64" font-family="Helvetica,sans-Serif" font-size="10.00">fsl_uart_freertos.h</text>
</a>
</g>
</g>
<!-- Node22&#45;&gt;Node23 -->
<g id="edge31_Node000022_Node000023" class="edge">
<title>Node22&#45;&gt;Node23</title>
<g id="a_edge31_Node000022_Node000023"><a xlink:title=" ">
<path fill="none" stroke="#63b8ff" d="M76.96,-113.09C76.96,-106.47 76.96,-97.47 76.96,-89.27"/>
<polygon fill="#63b8ff" stroke="#63b8ff" points="80.46,-89.34 76.96,-79.34 73.46,-89.34 80.46,-89.34"/>
</a>
</g>
</g>
<!-- Node25&#45;&gt;Node3 -->
<g id="edge43_Node000025_Node000003" class="edge">
<title>Node25&#45;&gt;Node3</title>
<g id="a_edge43_Node000025_Node000003"><a xlink:title=" ">
<path fill="none" stroke="#63b8ff" d="M814.03,-340.09C844.19,-331.16 888.97,-317.91 922.1,-308.1"/>
<polygon fill="#63b8ff" stroke="#63b8ff" points="922.81,-311.54 931.4,-305.35 920.82,-304.83 922.81,-311.54"/>
</a>
</g>
</g>
<!-- Node25&#45;&gt;Node4 -->
<g id="edge42_Node000025_Node000004" class="edge">
<title>Node25&#45;&gt;Node4</title>
<g id="a_edge42_Node000025_Node000004"><a xlink:title=" ">
<path fill="none" stroke="#63b8ff" d="M751.43,-340.08C691.06,-320.04 553.42,-274.37 485.04,-251.68"/>
<polygon fill="#63b8ff" stroke="#63b8ff" points="486.32,-248.41 475.73,-248.59 484.12,-255.06 486.32,-248.41"/>
</a>
</g>
</g>
<!-- Node26&#45;&gt;Node3 -->
<g id="edge45_Node000026_Node000003" class="edge">
<title>Node26&#45;&gt;Node3</title>
<g id="a_edge45_Node000026_Node000003"><a xlink:title=" ">
<path fill="none" stroke="#63b8ff" d="M898.62,-340.09C910.63,-332.07 927.87,-320.56 941.89,-311.19"/>
<polygon fill="#63b8ff" stroke="#63b8ff" points="943.79,-314.13 950.16,-305.67 939.9,-308.31 943.79,-314.13"/>
</a>
</g>
</g>
<!-- Node27&#45;&gt;Node3 -->
<g id="edge47_Node000027_Node000003" class="edge">
<title>Node27&#45;&gt;Node3</title>
<g id="a_edge47_Node000027_Node000003"><a xlink:title=" ">
<path fill="none" stroke="#63b8ff" d="M985.66,-340.09C982.63,-333.16 978.45,-323.62 974.72,-315.11"/>
<polygon fill="#63b8ff" stroke="#63b8ff" points="978.04,-313.97 970.82,-306.21 971.63,-316.78 978.04,-313.97"/>
</a>
</g>
</g>
<!-- Node28&#45;&gt;Node3 -->
<g id="edge49_Node000028_Node000003" class="edge">
<title>Node28&#45;&gt;Node3</title>
<g id="a_edge49_Node000028_Node000003"><a xlink:title=" ">
<path fill="none" stroke="#63b8ff" d="M1066.14,-340.09C1047.15,-331.56 1019.36,-319.09 997.86,-309.44"/>
<polygon fill="#63b8ff" stroke="#63b8ff" points="999.51,-306.35 988.96,-305.45 996.65,-312.74 999.51,-306.35"/>
</a>
</g>
</g>
<!-- Node29&#45;&gt;Node10 -->
<g id="edge52_Node000029_Node000010" class="edge">
<title>Node29&#45;&gt;Node10</title>
<g id="a_edge52_Node000029_Node000010"><a xlink:title=" ">
<path fill="none" stroke="#63b8ff" d="M1110.08,-169.98C1109.72,-155.53 1106.8,-128.39 1090.96,-113.5 1089.49,-112.13 992.99,-91.16 932.92,-78.21"/>
<polygon fill="#63b8ff" stroke="#63b8ff" points="933.79,-74.82 923.28,-76.14 932.32,-81.66 933.79,-74.82"/>
</a>
</g>
</g>
<!-- Node29&#45;&gt;Node15 -->
<g id="edge54_Node000029_Node000015" class="edge">
<title>Node29&#45;&gt;Node15</title>
<g id="a_edge54_Node000029_Node000015"><a xlink:title=" ">
<path fill="none" stroke="#63b8ff" d="M1084.21,-169.84C1061.38,-161.16 1027.78,-148.38 1002.23,-138.67"/>
<polygon fill="#63b8ff" stroke="#63b8ff" points="1003.48,-135.4 992.89,-135.12 1000.99,-141.94 1003.48,-135.4"/>
</a>
</g>
</g>
<!-- Node29&#45;&gt;Node16 -->
<g id="edge51_Node000029_Node000016" class="edge">
<title>Node29&#45;&gt;Node16</title>
<g id="a_edge51_Node000029_Node000016"><a xlink:title=" ">
<path fill="none" stroke="#63b8ff" d="M1116.26,-170.12C1128.38,-151.86 1155.13,-111.56 1171.13,-87.45"/>
<polygon fill="#63b8ff" stroke="#63b8ff" points="1174,-89.45 1176.61,-79.19 1168.17,-85.58 1174,-89.45"/>
</a>
</g>
</g>
<!-- Node29&#45;&gt;Node24 -->
<g id="edge53_Node000029_Node000024" class="edge">
<title>Node29&#45;&gt;Node24</title>
<g id="a_edge53_Node000029_Node000024"><a xlink:title=" ">
<path fill="none" stroke="#63b8ff" d="M1099.94,-169.84C1092.22,-162.28 1081.33,-151.64 1072.08,-142.6"/>
<polygon fill="#63b8ff" stroke="#63b8ff" points="1074.56,-140.12 1064.96,-135.64 1069.67,-145.13 1074.56,-140.12"/>
</a>
</g>
</g>
<!-- Node30&#45;&gt;Node6 -->
<g id="edge59_Node000030_Node000006" class="edge">
<title>Node30&#45;&gt;Node6</title>
<g id="a_edge59_Node000030_Node000006"><a xlink:title=" ">
<path fill="none" stroke="#63b8ff" d="M1247.42,-170.07C1252.86,-157.08 1260.68,-133.22 1254.96,-113.5 1246.62,-84.82 1244.35,-72.48 1218.96,-56.75 1156.57,-18.1 940.38,-11.95 838.23,-11.25"/>
<polygon fill="#63b8ff" stroke="#63b8ff" points="838.47,-7.75 828.45,-11.2 838.44,-14.75 838.47,-7.75"/>
</a>
</g>
</g>
<!-- Node30&#45;&gt;Node10 -->
<g id="edge57_Node000030_Node000010" class="edge">
<title>Node30&#45;&gt;Node10</title>
<g id="a_edge57_Node000030_Node000010"><a xlink:title=" ">
<path fill="none" stroke="#63b8ff" d="M1226.9,-169.8C1202.65,-155.39 1154.83,-128.57 1110.96,-113.5 1037.11,-88.13 1012.96,-93.29 932.94,-77.83"/>
<polygon fill="#63b8ff" stroke="#63b8ff" points="933.79,-74.43 923.3,-75.92 932.42,-81.3 933.79,-74.43"/>
</a>
</g>
</g>
<!-- Node30&#45;&gt;Node15 -->
<g id="edge60_Node000030_Node000015" class="edge">
<title>Node30&#45;&gt;Node15</title>
<g id="a_edge60_Node000030_Node000015"><a xlink:title=" ">
<path fill="none" stroke="#63b8ff" d="M1205.6,-172.24C1157.62,-162.76 1074.04,-146.24 1019.35,-135.43"/>
<polygon fill="#63b8ff" stroke="#63b8ff" points="1020.12,-132.01 1009.63,-133.51 1018.76,-138.88 1020.12,-132.01"/>
</a>
</g>
</g>
<!-- Node30&#45;&gt;Node16 -->
<g id="edge56_Node000030_Node000016" class="edge">
<title>Node30&#45;&gt;Node16</title>
<g id="a_edge56_Node000030_Node000016"><a xlink:title=" ">
<path fill="none" stroke="#63b8ff" d="M1244.45,-170.03C1246.07,-156.58 1247.3,-131.74 1237.96,-113.5 1231.94,-101.77 1221.44,-91.89 1211.29,-84.37"/>
<polygon fill="#63b8ff" stroke="#63b8ff" points="1213.31,-81.5 1203.07,-78.75 1209.36,-87.28 1213.31,-81.5"/>
</a>
</g>
</g>
<!-- Node30&#45;&gt;Node17 -->
<g id="edge58_Node000030_Node000017" class="edge">
<title>Node30&#45;&gt;Node17</title>
<g id="a_edge58_Node000030_Node000017"><a xlink:title=" ">
<path fill="none" stroke="#63b8ff" d="M1238.82,-169.8C1232.41,-155.61 1218.82,-129.37 1199.96,-113.5 1183.1,-99.32 1161.16,-88.95 1141.61,-81.73"/>
<polygon fill="#63b8ff" stroke="#63b8ff" points="1142.76,-78.43 1132.17,-78.44 1140.46,-85.04 1142.76,-78.43"/>
</a>
</g>
</g>
<!-- Node31&#45;&gt;Node6 -->
<g id="edge63_Node000031_Node000006" class="edge">
<title>Node31&#45;&gt;Node6</title>
<g id="a_edge63_Node000031_Node000006"><a xlink:title=" ">
<path fill="none" stroke="#63b8ff" d="M808.6,-113.38C806.67,-100.47 802.82,-76.7 797.96,-56.75 795.95,-48.55 793.31,-39.65 790.87,-31.93"/>
<polygon fill="#63b8ff" stroke="#63b8ff" points="794.2,-30.87 787.77,-22.46 787.55,-33.05 794.2,-30.87"/>
</a>
</g>
</g>
<!-- Node31&#45;&gt;Node10 -->
<g id="edge62_Node000031_Node000010" class="edge">
<title>Node31&#45;&gt;Node10</title>
<g id="a_edge62_Node000031_Node000010"><a xlink:title=" ">
<path fill="none" stroke="#63b8ff" d="M823.54,-113.09C834.57,-105.15 850.34,-93.78 863.28,-84.46"/>
<polygon fill="#63b8ff" stroke="#63b8ff" points="865.19,-87.4 871.26,-78.71 861.1,-81.72 865.19,-87.4"/>
</a>
</g>
</g>
</g>
</svg>

<g id="navigator" transform="translate(0 0)" fill="#404254">
  <rect fill="#f2f5e9" fill-opacity="0.5" stroke="#606060" stroke-width=".5" x="0" y="0" width="60" height="60"/>
  <use id="zoomplus" xlink:href="#zoomPlus" x="17" y="9" onmousedown="handleZoom(evt,'in')"/>
  <use id="zoomminus" xlink:href="#zoomMin" x="42" y="9" onmousedown="handleZoom(evt,'out')"/>
  <use id="reset" xlink:href="#resetDef" x="30" y="36" onmousedown="handleReset()"/>
   <use id="arrowup" xlink:href="#arrowUp" x="0" y="0" onmousedown="handlePan(0,-1)"/>
  <use id="arrowright" xlink:href="#arrowRight" x="0" y="0" onmousedown="handlePan(1,0)"/>
  <use id="arrowdown" xlink:href="#arrowDown" x="0" y="0" onmousedown="handlePan(0,1)"/>
  <use id="arrowleft" xlink:href="#arrowLeft" x="0" y="0" onmousedown="handlePan(-1,0)"/>
</g>
<svg viewBox="0 0 15 15" width="100%" height="30px" preserveAspectRatio="xMaxYMin meet">
 <g id="arrow_out" transform="scale(0.3 0.3)">
  <a xlink:href="motor__process_8c__incl_org.svg" target="_base">
   <rect id="button" ry="5" rx="5" y="6" x="6" height="38" width="38"
        fill="#f2f5e9" fill-opacity="0.5" stroke="#606060" stroke-width="1.0"/>
   <path id="arrow"
     d="M 11.500037,31.436501 C 11.940474,20.09759 22.043105,11.32322 32.158766,21.979434 L 37.068811,17.246167 C 37.068811,17.246167 37.088388,32 37.088388,32 L 22.160133,31.978069 C 22.160133,31.978069 26.997745,27.140456 26.997745,27.140456 C 18.528582,18.264221 13.291696,25.230495 11.500037,31.436501 z"
     style="fill:#404040;"/>
  </a>
 </g>
</svg>

<style type='text/css'>
<![CDATA[
[data-mouse-over-selected='false'] { opacity: 0.7; }
[data-mouse-over-selected='true']  { opacity: 1.0; }
]]>
</style>
<script type="application/ecmascript"><![CDATA[
document.addEventListener('DOMContentLoaded', (event) => {
  highlightEdges();
  highlightAdjacentNodes();
});
]]></script>
</svg>
