<?xml version="1.0" encoding="UTF-8" standalone="no"?>
<!DOCTYPE svg PUBLIC "-//W3C//DTD SVG 1.1//EN"
 "http://www.w3.org/Graphics/SVG/1.1/DTD/svg11.dtd">
<!-- Generated by graphviz version 14.1.5 (0)
 -->
<!-- Title: source/motion/motor/motor_sync.c Pages: 1 -->
<svg width="1267pt" height="439pt"
 viewBox="0.00 0.00 1267.00 439.00" xmlns="http://www.w3.org/2000/svg" xmlns:xlink="http://www.w3.org/1999/xlink">
<g id="graph0" class="graph" transform="scale(1 1) rotate(0) translate(4 434.75)">
<title>source/motion/motor/motor_sync.c</title>
<!-- Node1 -->
<g id="Node000001" class="node">
<title>Node1</title>
<g id="a_Node000001"><a xlink:title=" ">
<polygon fill="#999999" stroke="#666666" points="1125.88,-430.75 1007.88,-430.75 1007.88,-397.25 1125.88,-397.25 1125.88,-430.75"/>
<text xml:space="preserve" text-anchor="start" x="1015.88" y="-417.25" font-family="Helvetica,sans-Serif" font-size="10.00">source/motion/motor</text>
<text xml:space="preserve" text-anchor="middle" x="1066.88" y="-404.5" font-family="Helvetica,sans-Serif" font-size="10.00">/motor_sync.c</text>
</a>
</g>
</g>
<!-- Node2 -->
<g id="Node000002" class="node">
<title>Node2</title>
<g id="a_Node000002"><a xlink:href="motor__sync_8h.html" target="_top" xlink:title=" ">
<polygon fill="white" stroke="#666666" points="1009.88,-361.25 927.88,-361.25 927.88,-340.5 1009.88,-340.5 1009.88,-361.25"/>
<text xml:space="preserve" text-anchor="middle" x="968.88" y="-347.75" font-family="Helvetica,sans-Serif" font-size="10.00">motor_sync.h</text>
</a>
</g>
</g>
<!-- Node1&#45;&gt;Node2 -->
<g id="edge1_Node000001_Node000002" class="edge">
<title>Node1&#45;&gt;Node2</title>
<g id="a_edge1_Node000001_Node000002"><a xlink:title=" ">
<path fill="none" stroke="#63b8ff" d="M1040.87,-396.78C1026.45,-387.79 1008.6,-376.65 994.28,-367.72"/>
<polygon fill="#63b8ff" stroke="#63b8ff" points="996.19,-364.79 985.86,-362.47 992.49,-370.73 996.19,-364.79"/>
</a>
</g>
</g>
<!-- Node11 -->
<g id="Node000011" class="node">
<title>Node11</title>
<g id="a_Node000011"><a xlink:href="step__core_8h.html" target="_top" xlink:title=" ">
<polygon fill="white" stroke="#666666" points="457,-191 384.75,-191 384.75,-170.25 457,-170.25 457,-191"/>
<text xml:space="preserve" text-anchor="middle" x="420.88" y="-177.5" font-family="Helvetica,sans-Serif" font-size="10.00">step_core.h</text>
</a>
</g>
</g>
<!-- Node1&#45;&gt;Node11 -->
<g id="edge53_Node000001_Node000011" class="edge">
<title>Node1&#45;&gt;Node11</title>
<g id="a_edge53_Node000001_Node000011"><a xlink:title=" ">
<path fill="none" stroke="#63b8ff" d="M1007.66,-405.25C899.58,-389.14 665.68,-345.14 493.88,-247.75 471.45,-235.04 450.13,-214.38 436.38,-199.53"/>
<polygon fill="#63b8ff" stroke="#63b8ff" points="439.16,-197.38 429.87,-192.28 433.95,-202.06 439.16,-197.38"/>
</a>
</g>
</g>
<!-- Node26 -->
<g id="Node000026" class="node">
<title>Node26</title>
<g id="a_Node000026"><a xlink:href="motor__convert_8h.html" target="_top" xlink:title=" ">
<polygon fill="white" stroke="#666666" points="809,-304.5 712.75,-304.5 712.75,-283.75 809,-283.75 809,-304.5"/>
<text xml:space="preserve" text-anchor="middle" x="760.88" y="-291" font-family="Helvetica,sans-Serif" font-size="10.00">motor_convert.h</text>
</a>
</g>
</g>
<!-- Node1&#45;&gt;Node26 -->
<g id="edge47_Node000001_Node000026" class="edge">
<title>Node1&#45;&gt;Node26</title>
<g id="a_edge47_Node000001_Node000026"><a xlink:title=" ">
<path fill="none" stroke="#63b8ff" d="M1018.28,-396.83C989.27,-386.97 951.79,-373.88 918.88,-361.25 875.17,-344.48 825.46,-323.33 793.67,-309.53"/>
<polygon fill="#63b8ff" stroke="#63b8ff" points="795.16,-306.36 784.59,-305.57 792.36,-312.78 795.16,-306.36"/>
</a>
</g>
</g>
<!-- Node27 -->
<g id="Node000027" class="node">
<title>Node27</title>
<g id="a_Node000027"><a xlink:href="log_8h.html" target="_top" xlink:title=" ">
<polygon fill="white" stroke="#666666" points="1245.88,-134.25 1205.88,-134.25 1205.88,-113.5 1245.88,-113.5 1245.88,-134.25"/>
<text xml:space="preserve" text-anchor="middle" x="1225.88" y="-120.75" font-family="Helvetica,sans-Serif" font-size="10.00">log.h</text>
</a>
</g>
</g>
<!-- Node1&#45;&gt;Node27 -->
<g id="edge50_Node000001_Node000027" class="edge">
<title>Node1&#45;&gt;Node27</title>
<g id="a_edge50_Node000001_Node000027"><a xlink:title=" ">
<path fill="none" stroke="#63b8ff" d="M1126.28,-405.94C1157.44,-399.28 1194.01,-386.35 1217.88,-361.25 1238.95,-339.09 1236.88,-325.7 1236.88,-295.12 1236.88,-295.12 1236.88,-295.12 1236.88,-236.38 1236.88,-204.68 1232.42,-168.17 1229.18,-145.8"/>
<polygon fill="#63b8ff" stroke="#63b8ff" points="1232.68,-145.55 1227.72,-136.18 1225.76,-146.59 1232.68,-145.55"/>
</a>
</g>
</g>
<!-- Node28 -->
<g id="Node000028" class="node">
<title>Node28</title>
<g id="a_Node000028"><a xlink:title=" ">
<polygon fill="#e0e0e0" stroke="#999999" points="1208.38,-361.25 1159.38,-361.25 1159.38,-340.5 1208.38,-340.5 1208.38,-361.25"/>
<text xml:space="preserve" text-anchor="middle" x="1183.88" y="-347.75" font-family="Helvetica,sans-Serif" font-size="10.00">stdio.h</text>
</a>
</g>
</g>
<!-- Node1&#45;&gt;Node28 -->
<g id="edge54_Node000001_Node000028" class="edge">
<title>Node1&#45;&gt;Node28</title>
<g id="a_edge54_Node000001_Node000028"><a xlink:title=" ">
<path fill="none" stroke="#63b8ff" d="M1097.92,-396.78C1115.64,-387.52 1137.7,-376 1155.03,-366.94"/>
<polygon fill="#63b8ff" stroke="#63b8ff" points="1156.55,-370.1 1163.79,-362.37 1153.31,-363.89 1156.55,-370.1"/>
</a>
</g>
</g>
<!-- Node29 -->
<g id="Node000029" class="node">
<title>Node29</title>
<g id="a_Node000029"><a xlink:href="sync__wait_8h.html" target="_top" xlink:title=" ">
<polygon fill="white" stroke="#666666" points="1205.75,-191 1132,-191 1132,-170.25 1205.75,-170.25 1205.75,-191"/>
<text xml:space="preserve" text-anchor="middle" x="1168.88" y="-177.5" font-family="Helvetica,sans-Serif" font-size="10.00">sync_wait.h</text>
</a>
</g>
</g>
<!-- Node1&#45;&gt;Node29 -->
<g id="edge55_Node000001_Node000029" class="edge">
<title>Node1&#45;&gt;Node29</title>
<g id="a_edge55_Node000001_Node000029"><a xlink:title=" ">
<path fill="none" stroke="#63b8ff" d="M1073.89,-397.1C1091.98,-356.05 1140.24,-246.59 1160.12,-201.48"/>
<polygon fill="#63b8ff" stroke="#63b8ff" points="1163.29,-202.97 1164.12,-192.41 1156.88,-200.15 1163.29,-202.97"/>
</a>
</g>
</g>
<!-- Node3 -->
<g id="Node000003" class="node">
<title>Node3</title>
<g id="a_Node000003"><a xlink:title=" ">
<polygon fill="#e0e0e0" stroke="#999999" points="878.25,-77.5 825.5,-77.5 825.5,-56.75 878.25,-56.75 878.25,-77.5"/>
<text xml:space="preserve" text-anchor="middle" x="851.88" y="-64" font-family="Helvetica,sans-Serif" font-size="10.00">stdint.h</text>
</a>
</g>
</g>
<!-- Node2&#45;&gt;Node3 -->
<g id="edge2_Node000002_Node000003" class="edge">
<title>Node2&#45;&gt;Node3</title>
<g id="a_edge2_Node000002_Node000003"><a xlink:title=" ">
<path fill="none" stroke="#63b8ff" d="M939.58,-340C900.69,-324.82 836.88,-291.77 836.88,-238.38 836.88,-238.38 836.88,-238.38 836.88,-179.62 836.88,-147.8 842.95,-111.32 847.37,-89"/>
<polygon fill="#63b8ff" stroke="#63b8ff" points="850.76,-89.89 849.36,-79.39 843.9,-88.48 850.76,-89.89"/>
</a>
</g>
</g>
<!-- Node4 -->
<g id="Node000004" class="node">
<title>Node4</title>
<g id="a_Node000004"><a xlink:href="motor__internal_8h.html" target="_top" xlink:title=" ">
<polygon fill="white" stroke="#666666" points="1017.38,-304.5 920.38,-304.5 920.38,-283.75 1017.38,-283.75 1017.38,-304.5"/>
<text xml:space="preserve" text-anchor="middle" x="968.88" y="-291" font-family="Helvetica,sans-Serif" font-size="10.00">motor_internal.h</text>
</a>
</g>
</g>
<!-- Node2&#45;&gt;Node4 -->
<g id="edge3_Node000002_Node000004" class="edge">
<title>Node2&#45;&gt;Node4</title>
<g id="a_edge3_Node000002_Node000004"><a xlink:title=" ">
<path fill="none" stroke="#63b8ff" d="M968.88,-340.09C968.88,-333.47 968.88,-324.47 968.88,-316.27"/>
<polygon fill="#63b8ff" stroke="#63b8ff" points="972.38,-316.34 968.88,-306.34 965.38,-316.34 972.38,-316.34"/>
</a>
</g>
</g>
<!-- Node4&#45;&gt;Node3 -->
<g id="edge4_Node000004_Node000003" class="edge">
<title>Node4&#45;&gt;Node3</title>
<g id="a_edge4_Node000004_Node000003"><a xlink:title=" ">
<path fill="none" stroke="#63b8ff" d="M942.92,-283.33C926.75,-275.93 906.83,-264.21 894.88,-247.75 859.48,-198.98 852.88,-125.02 851.87,-89.13"/>
<polygon fill="#63b8ff" stroke="#63b8ff" points="855.37,-89.21 851.73,-79.26 848.37,-89.31 855.37,-89.21"/>
</a>
</g>
</g>
<!-- Node5 -->
<g id="Node000005" class="node">
<title>Node5</title>
<g id="a_Node000005"><a xlink:title=" ">
<polygon fill="#e0e0e0" stroke="#999999" points="1037.38,-247.75 976.38,-247.75 976.38,-227 1037.38,-227 1037.38,-247.75"/>
<text xml:space="preserve" text-anchor="middle" x="1006.88" y="-234.25" font-family="Helvetica,sans-Serif" font-size="10.00">stdbool.h</text>
</a>
</g>
</g>
<!-- Node4&#45;&gt;Node5 -->
<g id="edge5_Node000004_Node000005" class="edge">
<title>Node4&#45;&gt;Node5</title>
<g id="a_edge5_Node000004_Node000005"><a xlink:title=" ">
<path fill="none" stroke="#63b8ff" d="M975.67,-283.34C980.64,-276.17 987.54,-266.23 993.6,-257.51"/>
<polygon fill="#63b8ff" stroke="#63b8ff" points="996.45,-259.53 999.28,-249.32 990.7,-255.54 996.45,-259.53"/>
</a>
</g>
</g>
<!-- Node6 -->
<g id="Node000006" class="node">
<title>Node6</title>
<g id="a_Node000006"><a xlink:href="motor__core_8h.html" target="_top" xlink:title=" ">
<polygon fill="white" stroke="#666666" points="583.12,-247.75 502.62,-247.75 502.62,-227 583.12,-227 583.12,-247.75"/>
<text xml:space="preserve" text-anchor="middle" x="542.88" y="-234.25" font-family="Helvetica,sans-Serif" font-size="10.00">motor_core.h</text>
</a>
</g>
</g>
<!-- Node4&#45;&gt;Node6 -->
<g id="edge6_Node000004_Node000006" class="edge">
<title>Node4&#45;&gt;Node6</title>
<g id="a_edge6_Node000004_Node000006"><a xlink:title=" ">
<path fill="none" stroke="#63b8ff" d="M920.01,-286.84C839.02,-276.44 677.71,-255.7 594.77,-245.04"/>
<polygon fill="#63b8ff" stroke="#63b8ff" points="595.47,-241.61 585.1,-243.8 594.57,-248.55 595.47,-241.61"/>
</a>
</g>
</g>
<!-- Node12 -->
<g id="Node000012" class="node">
<title>Node12</title>
<g id="a_Node000012"><a xlink:title=" ">
<polygon fill="#e0e0e0" stroke="#999999" points="1093.62,-77.5 1022.12,-77.5 1022.12,-56.75 1093.62,-56.75 1093.62,-77.5"/>
<text xml:space="preserve" text-anchor="middle" x="1057.88" y="-64" font-family="Helvetica,sans-Serif" font-size="10.00">FreeRTOS.h</text>
</a>
</g>
</g>
<!-- Node4&#45;&gt;Node12 -->
<g id="edge44_Node000004_Node000012" class="edge">
<title>Node4&#45;&gt;Node12</title>
<g id="a_edge44_Node000004_Node000012"><a xlink:title=" ">
<path fill="none" stroke="#63b8ff" d="M1011.35,-283.33C1030.6,-276.61 1051.74,-265.58 1063.88,-247.75 1097.17,-198.86 1077.86,-123.88 1065.6,-88.26"/>
<polygon fill="#63b8ff" stroke="#63b8ff" points="1069.02,-87.41 1062.32,-79.2 1062.44,-89.8 1069.02,-87.41"/>
</a>
</g>
</g>
<!-- Node17 -->
<g id="Node000017" class="node">
<title>Node17</title>
<g id="a_Node000017"><a xlink:href="cmd__handle_8h.html" target="_top" xlink:title=" ">
<polygon fill="white" stroke="#666666" points="1063,-134.25 978.75,-134.25 978.75,-113.5 1063,-113.5 1063,-134.25"/>
<text xml:space="preserve" text-anchor="middle" x="1020.88" y="-120.75" font-family="Helvetica,sans-Serif" font-size="10.00">cmd_handle.h</text>
</a>
</g>
</g>
<!-- Node4&#45;&gt;Node17 -->
<g id="edge46_Node000004_Node000017" class="edge">
<title>Node4&#45;&gt;Node17</title>
<g id="a_edge46_Node000004_Node000017"><a xlink:title=" ">
<path fill="none" stroke="#63b8ff" d="M1000.78,-283.31C1017.68,-276.3 1036.96,-265 1046.88,-247.75 1065.82,-214.82 1046.93,-169.8 1032.94,-144.4"/>
<polygon fill="#63b8ff" stroke="#63b8ff" points="1036,-142.71 1027.95,-135.82 1029.95,-146.23 1036,-142.71"/>
</a>
</g>
</g>
<!-- Node25 -->
<g id="Node000025" class="node">
<title>Node25</title>
<g id="a_Node000025"><a xlink:title=" ">
<polygon fill="#e0e0e0" stroke="#999999" points="958.38,-247.75 903.38,-247.75 903.38,-227 958.38,-227 958.38,-247.75"/>
<text xml:space="preserve" text-anchor="middle" x="930.88" y="-234.25" font-family="Helvetica,sans-Serif" font-size="10.00">queue.h</text>
</a>
</g>
</g>
<!-- Node4&#45;&gt;Node25 -->
<g id="edge45_Node000004_Node000025" class="edge">
<title>Node4&#45;&gt;Node25</title>
<g id="a_edge45_Node000004_Node000025"><a xlink:title=" ">
<path fill="none" stroke="#63b8ff" d="M962.08,-283.34C957.11,-276.17 950.21,-266.23 944.15,-257.51"/>
<polygon fill="#63b8ff" stroke="#63b8ff" points="947.05,-255.54 938.47,-249.32 941.3,-259.53 947.05,-255.54"/>
</a>
</g>
</g>
<!-- Node7 -->
<g id="Node000007" class="node">
<title>Node7</title>
<g id="a_Node000007"><a xlink:href="pca9555a_8h.html" target="_top" xlink:title=" ">
<polygon fill="white" stroke="#666666" points="607.88,-77.5 453.88,-77.5 453.88,-56.75 607.88,-56.75 607.88,-77.5"/>
<text xml:space="preserve" text-anchor="middle" x="530.88" y="-64" font-family="Helvetica,sans-Serif" font-size="10.00">driver/pca9555a/pca9555a.h</text>
</a>
</g>
</g>
<!-- Node6&#45;&gt;Node7 -->
<g id="edge7_Node000006_Node000007" class="edge">
<title>Node6&#45;&gt;Node7</title>
<g id="a_edge7_Node000006_Node000007"><a xlink:title=" ">
<path fill="none" stroke="#63b8ff" d="M542.2,-226.85C540.31,-200.48 535.01,-126.08 532.38,-89.28"/>
<polygon fill="#63b8ff" stroke="#63b8ff" points="535.89,-89.2 531.68,-79.48 528.91,-89.7 535.89,-89.2"/>
</a>
</g>
</g>
<!-- Node10 -->
<g id="Node000010" class="node">
<title>Node10</title>
<g id="a_Node000010"><a xlink:title=" ">
<polygon fill="#e0e0e0" stroke="#999999" points="659.25,-191 570.5,-191 570.5,-170.25 659.25,-170.25 659.25,-191"/>
<text xml:space="preserve" text-anchor="middle" x="614.88" y="-177.5" font-family="Helvetica,sans-Serif" font-size="10.00">MK22F51212.h</text>
</a>
</g>
</g>
<!-- Node6&#45;&gt;Node10 -->
<g id="edge10_Node000006_Node000010" class="edge">
<title>Node6&#45;&gt;Node10</title>
<g id="a_edge10_Node000006_Node000010"><a xlink:title=" ">
<path fill="none" stroke="#63b8ff" d="M555.75,-226.59C566.09,-218.72 580.84,-207.5 593.03,-198.24"/>
<polygon fill="#63b8ff" stroke="#63b8ff" points="595.07,-201.08 600.91,-192.24 590.83,-195.51 595.07,-201.08"/>
</a>
</g>
</g>
<!-- Node6&#45;&gt;Node11 -->
<g id="edge11_Node000006_Node000011" class="edge">
<title>Node6&#45;&gt;Node11</title>
<g id="a_edge11_Node000006_Node000011"><a xlink:title=" ">
<path fill="none" stroke="#63b8ff" d="M521.06,-226.59C502.07,-218.06 474.28,-205.59 452.78,-195.94"/>
<polygon fill="#63b8ff" stroke="#63b8ff" points="454.43,-192.85 443.88,-191.95 451.57,-199.24 454.43,-192.85"/>
</a>
</g>
</g>
<!-- Node14 -->
<g id="Node000014" class="node">
<title>Node14</title>
<g id="a_Node000014"><a xlink:title=" ">
<polygon fill="#e0e0e0" stroke="#999999" points="138.25,-77.5 79.5,-77.5 79.5,-56.75 138.25,-56.75 138.25,-77.5"/>
<text xml:space="preserve" text-anchor="middle" x="108.88" y="-64" font-family="Helvetica,sans-Serif" font-size="10.00">fsl_ftm.h</text>
</a>
</g>
</g>
<!-- Node6&#45;&gt;Node14 -->
<g id="edge41_Node000006_Node000014" class="edge">
<title>Node6&#45;&gt;Node14</title>
<g id="a_edge41_Node000006_Node000014"><a xlink:title=" ">
<path fill="none" stroke="#63b8ff" d="M502.22,-233.15C403.44,-224.39 155.26,-196.51 105.88,-134.25 95.83,-121.59 97.73,-102.88 101.48,-88.6"/>
<polygon fill="#63b8ff" stroke="#63b8ff" points="104.74,-89.9 104.39,-79.31 98.06,-87.8 104.74,-89.9"/>
</a>
</g>
</g>
<!-- Node15 -->
<g id="Node000015" class="node">
<title>Node15</title>
<g id="a_Node000015"><a xlink:title=" ">
<polygon fill="#e0e0e0" stroke="#999999" points="435.5,-77.5 372.25,-77.5 372.25,-56.75 435.5,-56.75 435.5,-77.5"/>
<text xml:space="preserve" text-anchor="middle" x="403.88" y="-64" font-family="Helvetica,sans-Serif" font-size="10.00">fsl_gpio.h</text>
</a>
</g>
</g>
<!-- Node6&#45;&gt;Node15 -->
<g id="edge42_Node000006_Node000015" class="edge">
<title>Node6&#45;&gt;Node15</title>
<g id="a_edge42_Node000006_Node000015"><a xlink:title=" ">
<path fill="none" stroke="#63b8ff" d="M535,-226.85C512.65,-199.79 448.5,-122.15 419.02,-86.46"/>
<polygon fill="#63b8ff" stroke="#63b8ff" points="422.04,-84.61 412.97,-79.13 416.64,-89.07 422.04,-84.61"/>
</a>
</g>
</g>
<!-- Node16 -->
<g id="Node000016" class="node">
<title>Node16</title>
<g id="a_Node000016"><a xlink:title=" ">
<polygon fill="#e0e0e0" stroke="#999999" points="61.75,-77.5 0,-77.5 0,-56.75 61.75,-56.75 61.75,-77.5"/>
<text xml:space="preserve" text-anchor="middle" x="30.88" y="-64" font-family="Helvetica,sans-Serif" font-size="10.00">fsl_port.h</text>
</a>
</g>
</g>
<!-- Node6&#45;&gt;Node16 -->
<g id="edge43_Node000006_Node000016" class="edge">
<title>Node6&#45;&gt;Node16</title>
<g id="a_edge43_Node000006_Node000016"><a xlink:title=" ">
<path fill="none" stroke="#63b8ff" d="M502.42,-234.35C417.81,-229.67 225.06,-216.47 164.88,-191 111.57,-168.44 65.87,-115.15 44.24,-86.73"/>
<polygon fill="#63b8ff" stroke="#63b8ff" points="47.29,-84.97 38.52,-79.02 41.67,-89.14 47.29,-84.97"/>
</a>
</g>
</g>
<!-- Node22 -->
<g id="Node000022" class="node">
<title>Node22</title>
<g id="a_Node000022"><a xlink:href="tmc2209__core_8h.html" target="_top" xlink:title=" ">
<polygon fill="white" stroke="#666666" points="770.88,-191 676.88,-191 676.88,-170.25 770.88,-170.25 770.88,-191"/>
<text xml:space="preserve" text-anchor="middle" x="723.88" y="-177.5" font-family="Helvetica,sans-Serif" font-size="10.00">tmc2209_core.h</text>
</a>
</g>
</g>
<!-- Node6&#45;&gt;Node22 -->
<g id="edge33_Node000006_Node000022" class="edge">
<title>Node6&#45;&gt;Node22</title>
<g id="a_edge33_Node000006_Node000022"><a xlink:title=" ">
<path fill="none" stroke="#63b8ff" d="M575.23,-226.59C604.61,-217.7 648.17,-204.52 680.55,-194.73"/>
<polygon fill="#63b8ff" stroke="#63b8ff" points="681.48,-198.1 690.04,-191.86 679.46,-191.4 681.48,-198.1"/>
</a>
</g>
</g>
<!-- Node8 -->
<g id="Node000008" class="node">
<title>Node8</title>
<g id="a_Node000008"><a xlink:title=" ">
<polygon fill="#e0e0e0" stroke="#999999" points="716.38,-20.75 631.38,-20.75 631.38,0 716.38,0 716.38,-20.75"/>
<text xml:space="preserve" text-anchor="middle" x="673.88" y="-7.25" font-family="Helvetica,sans-Serif" font-size="10.00">fsl_common.h</text>
</a>
</g>
</g>
<!-- Node7&#45;&gt;Node8 -->
<g id="edge8_Node000007_Node000008" class="edge">
<title>Node7&#45;&gt;Node8</title>
<g id="a_edge8_Node000007_Node000008"><a xlink:title=" ">
<path fill="none" stroke="#63b8ff" d="M556.44,-56.34C579.11,-47.66 612.47,-34.88 637.85,-25.17"/>
<polygon fill="#63b8ff" stroke="#63b8ff" points="639.03,-28.46 647.12,-21.62 636.53,-21.93 639.03,-28.46"/>
</a>
</g>
</g>
<!-- Node9 -->
<g id="Node000009" class="node">
<title>Node9</title>
<g id="a_Node000009"><a xlink:title=" ">
<polygon fill="#e0e0e0" stroke="#999999" points="388.75,-20.75 309,-20.75 309,0 388.75,0 388.75,-20.75"/>
<text xml:space="preserve" text-anchor="middle" x="348.88" y="-7.25" font-family="Helvetica,sans-Serif" font-size="10.00">peripherals.h</text>
</a>
</g>
</g>
<!-- Node7&#45;&gt;Node9 -->
<g id="edge9_Node000007_Node000009" class="edge">
<title>Node7&#45;&gt;Node9</title>
<g id="a_edge9_Node000007_Node000009"><a xlink:title=" ">
<path fill="none" stroke="#63b8ff" d="M498.34,-56.34C468.79,-47.45 425,-34.27 392.44,-24.48"/>
<polygon fill="#63b8ff" stroke="#63b8ff" points="393.47,-21.14 382.89,-21.61 391.45,-27.84 393.47,-21.14"/>
</a>
</g>
</g>
<!-- Node11&#45;&gt;Node7 -->
<g id="edge12_Node000011_Node000007" class="edge">
<title>Node11&#45;&gt;Node7</title>
<g id="a_edge12_Node000011_Node000007"><a xlink:title=" ">
<path fill="none" stroke="#63b8ff" d="M430.25,-170.12C448.67,-151.45 489.82,-109.74 513.39,-85.85"/>
<polygon fill="#63b8ff" stroke="#63b8ff" points="515.61,-88.58 520.14,-79 510.63,-83.66 515.61,-88.58"/>
</a>
</g>
</g>
<!-- Node11&#45;&gt;Node8 -->
<g id="edge15_Node000011_Node000008" class="edge">
<title>Node11&#45;&gt;Node8</title>
<g id="a_edge15_Node000011_Node000008"><a xlink:title=" ">
<path fill="none" stroke="#63b8ff" d="M446.82,-169.83C486.16,-154.18 562.13,-120.86 616.88,-77.5 634.08,-63.87 650.07,-44.5 660.7,-30.24"/>
<polygon fill="#63b8ff" stroke="#63b8ff" points="663.53,-32.3 666.55,-22.15 657.86,-28.2 663.53,-32.3"/>
</a>
</g>
</g>
<!-- Node11&#45;&gt;Node12 -->
<g id="edge13_Node000011_Node000012" class="edge">
<title>Node11&#45;&gt;Node12</title>
<g id="a_edge13_Node000011_Node000012"><a xlink:title=" ">
<path fill="none" stroke="#63b8ff" d="M457.1,-175.29C516.69,-167.99 639.03,-152.26 741.88,-134.25 838.03,-117.41 949.61,-92.88 1011.12,-78.92"/>
<polygon fill="#63b8ff" stroke="#63b8ff" points="1011.56,-82.41 1020.53,-76.77 1010,-75.58 1011.56,-82.41"/>
</a>
</g>
</g>
<!-- Node13 -->
<g id="Node000013" class="node">
<title>Node13</title>
<g id="a_Node000013"><a xlink:title=" ">
<polygon fill="#e0e0e0" stroke="#999999" points="160.88,-134.25 114.88,-134.25 114.88,-113.5 160.88,-113.5 160.88,-134.25"/>
<text xml:space="preserve" text-anchor="middle" x="137.88" y="-120.75" font-family="Helvetica,sans-Serif" font-size="10.00">task.h</text>
</a>
</g>
</g>
<!-- Node11&#45;&gt;Node13 -->
<g id="edge14_Node000011_Node000013" class="edge">
<title>Node11&#45;&gt;Node13</title>
<g id="a_edge14_Node000011_Node000013"><a xlink:title=" ">
<path fill="none" stroke="#63b8ff" d="M384.46,-173.68C336.31,-165.64 248.91,-150.44 174.88,-134.25 174.05,-134.07 173.21,-133.88 172.37,-133.69"/>
<polygon fill="#63b8ff" stroke="#63b8ff" points="173.32,-130.32 162.78,-131.41 171.7,-137.13 173.32,-130.32"/>
</a>
</g>
</g>
<!-- Node11&#45;&gt;Node14 -->
<g id="edge16_Node000011_Node000014" class="edge">
<title>Node11&#45;&gt;Node14</title>
<g id="a_edge16_Node000011_Node000014"><a xlink:title=" ">
<path fill="none" stroke="#63b8ff" d="M384.49,-171.86C349.68,-163.98 295.95,-150.62 250.88,-134.25 229.16,-126.36 173.71,-99.81 138.88,-82.85"/>
<polygon fill="#63b8ff" stroke="#63b8ff" points="140.67,-79.83 130.15,-78.59 137.6,-86.12 140.67,-79.83"/>
</a>
</g>
</g>
<!-- Node11&#45;&gt;Node15 -->
<g id="edge17_Node000011_Node000015" class="edge">
<title>Node11&#45;&gt;Node15</title>
<g id="a_edge17_Node000011_Node000015"><a xlink:title=" ">
<path fill="none" stroke="#63b8ff" d="M419.43,-170.12C416.7,-152.27 410.77,-113.36 407.07,-89.09"/>
<polygon fill="#63b8ff" stroke="#63b8ff" points="410.56,-88.78 405.6,-79.42 403.64,-89.83 410.56,-88.78"/>
</a>
</g>
</g>
<!-- Node11&#45;&gt;Node16 -->
<g id="edge18_Node000011_Node000016" class="edge">
<title>Node11&#45;&gt;Node16</title>
<g id="a_edge18_Node000011_Node000016"><a xlink:title=" ">
<path fill="none" stroke="#63b8ff" d="M384.62,-176.07C340.41,-170.84 264.01,-158.9 202.88,-134.25 186.81,-127.77 185.56,-120.85 169.88,-113.5 138.56,-98.82 101.21,-86.91 73.12,-78.99"/>
<polygon fill="#63b8ff" stroke="#63b8ff" points="74.1,-75.63 63.53,-76.34 72.24,-82.38 74.1,-75.63"/>
</a>
</g>
</g>
<!-- Node11&#45;&gt;Node17 -->
<g id="edge19_Node000011_Node000017" class="edge">
<title>Node11&#45;&gt;Node17</title>
<g id="a_edge19_Node000011_Node000017"><a xlink:title=" ">
<path fill="none" stroke="#63b8ff" d="M457.32,-176.98C562.6,-169.28 866.02,-146.63 964.88,-134.25 965.7,-134.15 966.53,-134.04 967.37,-133.93"/>
<polygon fill="#63b8ff" stroke="#63b8ff" points="967.52,-137.44 976.93,-132.57 966.54,-130.51 967.52,-137.44"/>
</a>
</g>
</g>
<!-- Node20 -->
<g id="Node000020" class="node">
<title>Node20</title>
<g id="a_Node000020"><a xlink:href="step__shared_8h.html" target="_top" xlink:title=" ">
<polygon fill="white" stroke="#666666" points="381,-134.25 296.75,-134.25 296.75,-113.5 381,-113.5 381,-134.25"/>
<text xml:space="preserve" text-anchor="middle" x="338.88" y="-120.75" font-family="Helvetica,sans-Serif" font-size="10.00">step_shared.h</text>
</a>
</g>
</g>
<!-- Node11&#45;&gt;Node20 -->
<g id="edge25_Node000011_Node000020" class="edge">
<title>Node11&#45;&gt;Node20</title>
<g id="a_edge25_Node000011_Node000020"><a xlink:title=" ">
<path fill="none" stroke="#63b8ff" d="M406.22,-169.84C394.2,-161.82 376.96,-150.31 362.94,-140.94"/>
<polygon fill="#63b8ff" stroke="#63b8ff" points="364.93,-138.06 354.67,-135.42 361.04,-143.88 364.93,-138.06"/>
</a>
</g>
</g>
<!-- Node17&#45;&gt;Node3 -->
<g id="edge20_Node000017_Node000003" class="edge">
<title>Node17&#45;&gt;Node3</title>
<g id="a_edge20_Node000017_Node000003"><a xlink:title=" ">
<path fill="none" stroke="#63b8ff" d="M990.66,-113.09C962.25,-103.88 919.64,-90.08 889.13,-80.2"/>
<polygon fill="#63b8ff" stroke="#63b8ff" points="890.52,-76.97 879.93,-77.21 888.36,-83.63 890.52,-76.97"/>
</a>
</g>
</g>
<!-- Node17&#45;&gt;Node8 -->
<g id="edge23_Node000017_Node000008" class="edge">
<title>Node17&#45;&gt;Node8</title>
<g id="a_edge23_Node000017_Node000008"><a xlink:title=" ">
<path fill="none" stroke="#63b8ff" d="M1004.53,-113.14C979.85,-98.83 931.23,-72.15 886.88,-56.75 834.25,-38.48 771.65,-26.21 727.98,-19.09"/>
<polygon fill="#63b8ff" stroke="#63b8ff" points="728.67,-15.65 718.25,-17.54 727.57,-22.56 728.67,-15.65"/>
</a>
</g>
</g>
<!-- Node17&#45;&gt;Node12 -->
<g id="edge21_Node000017_Node000012" class="edge">
<title>Node17&#45;&gt;Node12</title>
<g id="a_edge21_Node000017_Node000012"><a xlink:title=" ">
<path fill="none" stroke="#63b8ff" d="M1027.49,-113.09C1032.33,-105.92 1039.05,-95.98 1044.95,-87.26"/>
<polygon fill="#63b8ff" stroke="#63b8ff" points="1047.77,-89.33 1050.47,-79.08 1041.97,-85.41 1047.77,-89.33"/>
</a>
</g>
</g>
<!-- Node18 -->
<g id="Node000018" class="node">
<title>Node18</title>
<g id="a_Node000018"><a xlink:title=" ">
<polygon fill="#e0e0e0" stroke="#999999" points="1202.38,-77.5 1111.38,-77.5 1111.38,-56.75 1202.38,-56.75 1202.38,-77.5"/>
<text xml:space="preserve" text-anchor="middle" x="1156.88" y="-64" font-family="Helvetica,sans-Serif" font-size="10.00">event_groups.h</text>
</a>
</g>
</g>
<!-- Node17&#45;&gt;Node18 -->
<g id="edge22_Node000017_Node000018" class="edge">
<title>Node17&#45;&gt;Node18</title>
<g id="a_edge22_Node000017_Node000018"><a xlink:title=" ">
<path fill="none" stroke="#63b8ff" d="M1045.19,-113.09C1066.66,-104.44 1098.2,-91.75 1122.29,-82.05"/>
<polygon fill="#63b8ff" stroke="#63b8ff" points="1123.4,-85.38 1131.37,-78.39 1120.78,-78.88 1123.4,-85.38"/>
</a>
</g>
</g>
<!-- Node19 -->
<g id="Node000019" class="node">
<title>Node19</title>
<g id="a_Node000019"><a xlink:title=" ">
<polygon fill="#e0e0e0" stroke="#999999" points="1003.88,-77.5 951.88,-77.5 951.88,-56.75 1003.88,-56.75 1003.88,-77.5"/>
<text xml:space="preserve" text-anchor="middle" x="977.88" y="-64" font-family="Helvetica,sans-Serif" font-size="10.00">stdlib.h</text>
</a>
</g>
</g>
<!-- Node17&#45;&gt;Node19 -->
<g id="edge24_Node000017_Node000019" class="edge">
<title>Node17&#45;&gt;Node19</title>
<g id="a_edge24_Node000017_Node000019"><a xlink:title=" ">
<path fill="none" stroke="#63b8ff" d="M1013.19,-113.09C1007.44,-105.77 999.41,-95.54 992.46,-86.69"/>
<polygon fill="#63b8ff" stroke="#63b8ff" points="995.36,-84.72 986.43,-79.02 989.85,-89.05 995.36,-84.72"/>
</a>
</g>
</g>
<!-- Node20&#45;&gt;Node3 -->
<g id="edge26_Node000020_Node000003" class="edge">
<title>Node20&#45;&gt;Node3</title>
<g id="a_edge26_Node000020_Node000003"><a xlink:title=" ">
<path fill="none" stroke="#63b8ff" d="M381.4,-121.22C463.39,-117.53 649.13,-106.67 813.9,-77.78"/>
<polygon fill="#63b8ff" stroke="#63b8ff" points="814.51,-81.22 823.74,-76.02 813.28,-74.33 814.51,-81.22"/>
</a>
</g>
</g>
<!-- Node20&#45;&gt;Node7 -->
<g id="edge27_Node000020_Node000007" class="edge">
<title>Node20&#45;&gt;Node7</title>
<g id="a_edge27_Node000020_Node000007"><a xlink:title=" ">
<path fill="none" stroke="#63b8ff" d="M373.2,-113.09C404.64,-104.12 451.38,-90.79 485.81,-80.98"/>
<polygon fill="#63b8ff" stroke="#63b8ff" points="486.41,-84.44 495.07,-78.34 484.49,-77.71 486.41,-84.44"/>
</a>
</g>
</g>
<!-- Node20&#45;&gt;Node8 -->
<g id="edge29_Node000020_Node000008" class="edge">
<title>Node20&#45;&gt;Node8</title>
<g id="a_edge29_Node000020_Node000008"><a xlink:title=" ">
<path fill="none" stroke="#63b8ff" d="M339.41,-113.01C340.78,-98.29 345.64,-70.79 362.88,-56.75 401.28,-25.46 541.65,-15.73 620.03,-12.72"/>
<polygon fill="#63b8ff" stroke="#63b8ff" points="619.75,-16.23 629.62,-12.37 619.5,-9.23 619.75,-16.23"/>
</a>
</g>
</g>
<!-- Node20&#45;&gt;Node14 -->
<g id="edge30_Node000020_Node000014" class="edge">
<title>Node20&#45;&gt;Node14</title>
<g id="a_edge30_Node000020_Node000014"><a xlink:title=" ">
<path fill="none" stroke="#63b8ff" d="M297.49,-113.02C255.64,-103.06 191.35,-87.76 149.7,-77.84"/>
<polygon fill="#63b8ff" stroke="#63b8ff" points="150.61,-74.46 140.07,-75.55 148.98,-81.27 150.61,-74.46"/>
</a>
</g>
</g>
<!-- Node20&#45;&gt;Node15 -->
<g id="edge31_Node000020_Node000015" class="edge">
<title>Node20&#45;&gt;Node15</title>
<g id="a_edge31_Node000020_Node000015"><a xlink:title=" ">
<path fill="none" stroke="#63b8ff" d="M350.5,-113.09C359.74,-105.3 372.89,-94.22 383.82,-85.01"/>
<polygon fill="#63b8ff" stroke="#63b8ff" points="385.8,-87.92 391.2,-78.8 381.29,-82.57 385.8,-87.92"/>
</a>
</g>
</g>
<!-- Node20&#45;&gt;Node16 -->
<g id="edge32_Node000020_Node000016" class="edge">
<title>Node20&#45;&gt;Node16</title>
<g id="a_edge32_Node000020_Node000016"><a xlink:title=" ">
<path fill="none" stroke="#63b8ff" d="M296.48,-116.54C245.75,-108.77 157.97,-94.74 73,-77.82"/>
<polygon fill="#63b8ff" stroke="#63b8ff" points="73.82,-74.42 63.33,-75.88 72.44,-81.28 73.82,-74.42"/>
</a>
</g>
</g>
<!-- Node21 -->
<g id="Node000021" class="node">
<title>Node21</title>
<g id="a_Node000021"><a xlink:title=" ">
<polygon fill="#e0e0e0" stroke="#999999" points="316.12,-77.5 193.62,-77.5 193.62,-56.75 316.12,-56.75 316.12,-77.5"/>
<text xml:space="preserve" text-anchor="middle" x="254.88" y="-64" font-family="Helvetica,sans-Serif" font-size="10.00">fsl_device_registers.h</text>
</a>
</g>
</g>
<!-- Node20&#45;&gt;Node21 -->
<g id="edge28_Node000020_Node000021" class="edge">
<title>Node20&#45;&gt;Node21</title>
<g id="a_edge28_Node000020_Node000021"><a xlink:title=" ">
<path fill="none" stroke="#63b8ff" d="M323.86,-113.09C311.43,-104.99 293.55,-93.33 279.1,-83.92"/>
<polygon fill="#63b8ff" stroke="#63b8ff" points="281.32,-81.18 271.03,-78.65 277.5,-87.05 281.32,-81.18"/>
</a>
</g>
</g>
<!-- Node22&#45;&gt;Node3 -->
<g id="edge34_Node000022_Node000003" class="edge">
<title>Node22&#45;&gt;Node3</title>
<g id="a_edge34_Node000022_Node000003"><a xlink:title=" ">
<path fill="none" stroke="#63b8ff" d="M731.54,-170C742.54,-156.52 763.8,-131.63 784.88,-113.5 797.48,-102.66 812.75,-92.14 825.53,-83.97"/>
<polygon fill="#63b8ff" stroke="#63b8ff" points="827.24,-87.03 833.86,-78.75 823.53,-81.09 827.24,-87.03"/>
</a>
</g>
</g>
<!-- Node22&#45;&gt;Node8 -->
<g id="edge38_Node000022_Node000008" class="edge">
<title>Node22&#45;&gt;Node8</title>
<g id="a_edge38_Node000022_Node000008"><a xlink:title=" ">
<path fill="none" stroke="#63b8ff" d="M676.56,-171.63C654.82,-165.34 630.99,-154.13 617.88,-134.25 601.93,-110.08 635.05,-102.37 649.88,-77.5 658.4,-63.2 664.65,-45.39 668.63,-31.85"/>
<polygon fill="#63b8ff" stroke="#63b8ff" points="671.98,-32.88 671.25,-22.31 665.23,-31.03 671.98,-32.88"/>
</a>
</g>
</g>
<!-- Node22&#45;&gt;Node9 -->
<g id="edge40_Node000022_Node000009" class="edge">
<title>Node22&#45;&gt;Node9</title>
<g id="a_edge40_Node000022_Node000009"><a xlink:title=" ">
<path fill="none" stroke="#63b8ff" d="M676.55,-171.46C673.62,-171.03 670.71,-170.62 667.88,-170.25 499.66,-148.23 449.99,-184.22 287.88,-134.25 275.39,-130.4 191.52,-88.75 184.88,-77.5 158.23,-32.4 239.96,-18.04 297.43,-13.49"/>
<polygon fill="#63b8ff" stroke="#63b8ff" points="297.33,-17 307.05,-12.8 296.83,-10.02 297.33,-17"/>
</a>
</g>
</g>
<!-- Node22&#45;&gt;Node17 -->
<g id="edge39_Node000022_Node000017" class="edge">
<title>Node22&#45;&gt;Node17</title>
<g id="a_edge39_Node000022_Node000017"><a xlink:title=" ">
<path fill="none" stroke="#63b8ff" d="M771.26,-170.89C824.74,-161.03 911.52,-145.03 967.38,-134.74"/>
<polygon fill="#63b8ff" stroke="#63b8ff" points="967.78,-138.22 976.98,-132.97 966.51,-131.34 967.78,-138.22"/>
</a>
</g>
</g>
<!-- Node23 -->
<g id="Node000023" class="node">
<title>Node23</title>
<g id="a_Node000023"><a xlink:href="tmc2209__shared_8h.html" target="_top" xlink:title=" ">
<polygon fill="white" stroke="#666666" points="732.88,-134.25 626.88,-134.25 626.88,-113.5 732.88,-113.5 732.88,-134.25"/>
<text xml:space="preserve" text-anchor="middle" x="679.88" y="-120.75" font-family="Helvetica,sans-Serif" font-size="10.00">tmc2209_shared.h</text>
</a>
</g>
</g>
<!-- Node22&#45;&gt;Node23 -->
<g id="edge35_Node000022_Node000023" class="edge">
<title>Node22&#45;&gt;Node23</title>
<g id="a_edge35_Node000022_Node000023"><a xlink:title=" ">
<path fill="none" stroke="#63b8ff" d="M716.01,-169.84C710.13,-162.52 701.91,-152.29 694.8,-143.44"/>
<polygon fill="#63b8ff" stroke="#63b8ff" points="697.61,-141.36 688.62,-135.76 692.16,-145.75 697.61,-141.36"/>
</a>
</g>
</g>
<!-- Node23&#45;&gt;Node3 -->
<g id="edge36_Node000023_Node000003" class="edge">
<title>Node23&#45;&gt;Node3</title>
<g id="a_edge36_Node000023_Node000003"><a xlink:title=" ">
<path fill="none" stroke="#63b8ff" d="M710.63,-113.09C739.63,-103.86 783.17,-90 814.23,-80.11"/>
<polygon fill="#63b8ff" stroke="#63b8ff" points="815.15,-83.49 823.62,-77.12 813.03,-76.82 815.15,-83.49"/>
</a>
</g>
</g>
<!-- Node24 -->
<g id="Node000024" class="node">
<title>Node24</title>
<g id="a_Node000024"><a xlink:title=" ">
<polygon fill="#e0e0e0" stroke="#999999" points="807.5,-77.5 702.25,-77.5 702.25,-56.75 807.5,-56.75 807.5,-77.5"/>
<text xml:space="preserve" text-anchor="middle" x="754.88" y="-64" font-family="Helvetica,sans-Serif" font-size="10.00">fsl_uart_freertos.h</text>
</a>
</g>
</g>
<!-- Node23&#45;&gt;Node24 -->
<g id="edge37_Node000023_Node000024" class="edge">
<title>Node23&#45;&gt;Node24</title>
<g id="a_edge37_Node000023_Node000024"><a xlink:title=" ">
<path fill="none" stroke="#63b8ff" d="M693.28,-113.09C704.16,-105.15 719.73,-93.78 732.49,-84.46"/>
<polygon fill="#63b8ff" stroke="#63b8ff" points="734.35,-87.44 740.36,-78.72 730.22,-81.79 734.35,-87.44"/>
</a>
</g>
</g>
<!-- Node26&#45;&gt;Node3 -->
<g id="edge48_Node000026_Node000003" class="edge">
<title>Node26&#45;&gt;Node3</title>
<g id="a_edge48_Node000026_Node000003"><a xlink:title=" ">
<path fill="none" stroke="#63b8ff" d="M763.34,-283.46C770.53,-256.01 792.85,-175.57 822.88,-113.5 827.23,-104.49 833.02,-95.08 838.28,-87.18"/>
<polygon fill="#63b8ff" stroke="#63b8ff" points="841.07,-89.29 843.86,-79.07 835.31,-85.32 841.07,-89.29"/>
</a>
</g>
</g>
<!-- Node26&#45;&gt;Node6 -->
<g id="edge49_Node000026_Node000006" class="edge">
<title>Node26&#45;&gt;Node6</title>
<g id="a_edge49_Node000026_Node000006"><a xlink:title=" ">
<path fill="none" stroke="#63b8ff" d="M721.65,-283.27C685.72,-274.25 632.35,-260.85 593.28,-251.03"/>
<polygon fill="#63b8ff" stroke="#63b8ff" points="594.17,-247.65 583.62,-248.61 592.47,-254.44 594.17,-247.65"/>
</a>
</g>
</g>
<!-- Node27&#45;&gt;Node8 -->
<g id="edge52_Node000027_Node000008" class="edge">
<title>Node27&#45;&gt;Node8</title>
<g id="a_edge52_Node000027_Node000008"><a xlink:title=" ">
<path fill="none" stroke="#63b8ff" d="M1227.06,-113.04C1228.21,-98.34 1227.89,-70.88 1211.88,-56.75 1176.1,-25.18 856.92,-15.12 727.76,-12.33"/>
<polygon fill="#63b8ff" stroke="#63b8ff" points="728.19,-8.84 718.12,-12.13 728.04,-15.84 728.19,-8.84"/>
</a>
</g>
</g>
<!-- Node27&#45;&gt;Node12 -->
<g id="edge51_Node000027_Node000012" class="edge">
<title>Node27&#45;&gt;Node12</title>
<g id="a_edge51_Node000027_Node000012"><a xlink:title=" ">
<path fill="none" stroke="#63b8ff" d="M1205.61,-116.27C1179.34,-107.71 1132.91,-92.58 1099.09,-81.56"/>
<polygon fill="#63b8ff" stroke="#63b8ff" points="1100.18,-78.23 1089.59,-78.46 1098.02,-84.89 1100.18,-78.23"/>
</a>
</g>
</g>
<!-- Node29&#45;&gt;Node3 -->
<g id="edge56_Node000029_Node000003" class="edge">
<title>Node29&#45;&gt;Node3</title>
<g id="a_edge56_Node000029_Node000003"><a xlink:title=" ">
<path fill="none" stroke="#63b8ff" d="M1131.63,-174.4C1090.93,-167.96 1024.27,-155.19 969.88,-134.25 935.32,-120.95 898.57,-98.95 875.44,-84.01"/>
<polygon fill="#63b8ff" stroke="#63b8ff" points="877.66,-81.28 867.38,-78.72 873.82,-87.14 877.66,-81.28"/>
</a>
</g>
</g>
<!-- Node29&#45;&gt;Node8 -->
<g id="edge59_Node000029_Node000008" class="edge">
<title>Node29&#45;&gt;Node8</title>
<g id="a_edge59_Node000029_Node000008"><a xlink:title=" ">
<path fill="none" stroke="#63b8ff" d="M1206.15,-169.84C1224.21,-163.02 1244.24,-151.89 1254.88,-134.25 1269.44,-110.1 1240.71,-63.24 1231.88,-56.75 1191.86,-27.36 860.23,-15.98 728,-12.58"/>
<polygon fill="#63b8ff" stroke="#63b8ff" points="728.18,-9.09 718.1,-12.33 728.01,-16.08 728.18,-9.09"/>
</a>
</g>
</g>
<!-- Node29&#45;&gt;Node12 -->
<g id="edge57_Node000029_Node000012" class="edge">
<title>Node29&#45;&gt;Node12</title>
<g id="a_edge57_Node000029_Node000012"><a xlink:title=" ">
<path fill="none" stroke="#63b8ff" d="M1162.3,-170.08C1152.85,-156.69 1134.5,-131.91 1115.88,-113.5 1105.18,-102.93 1092.08,-92.5 1081.04,-84.31"/>
<polygon fill="#63b8ff" stroke="#63b8ff" points="1083.35,-81.67 1073.2,-78.63 1079.24,-87.33 1083.35,-81.67"/>
</a>
</g>
</g>
<!-- Node29&#45;&gt;Node17 -->
<g id="edge60_Node000029_Node000017" class="edge">
<title>Node29&#45;&gt;Node17</title>
<g id="a_edge60_Node000029_Node000017"><a xlink:title=" ">
<path fill="none" stroke="#63b8ff" d="M1142.42,-169.84C1118.84,-161.12 1084.11,-148.27 1057.81,-138.54"/>
<polygon fill="#63b8ff" stroke="#63b8ff" points="1059.12,-135.29 1048.52,-135.1 1056.69,-141.86 1059.12,-135.29"/>
</a>
</g>
</g>
<!-- Node29&#45;&gt;Node18 -->
<g id="edge58_Node000029_Node000018" class="edge">
<title>Node29&#45;&gt;Node18</title>
<g id="a_edge58_Node000029_Node000018"><a xlink:title=" ">
<path fill="none" stroke="#63b8ff" d="M1167.85,-170.12C1165.93,-152.27 1161.74,-113.36 1159.13,-89.09"/>
<polygon fill="#63b8ff" stroke="#63b8ff" points="1162.64,-89 1158.09,-79.43 1155.68,-89.75 1162.64,-89"/>
</a>
</g>
</g>
</g>
</svg>
