<?xml version="1.0" encoding="UTF-8" standalone="no"?>
<!DOCTYPE svg PUBLIC "-//W3C//DTD SVG 1.1//EN"
 "http://www.w3.org/Graphics/SVG/1.1/DTD/svg11.dtd">
<!-- Generated by graphviz version 14.1.5 (0)
 -->
<!-- Title: source/motion/motor/motor_convert.h Pages: 1 -->
<svg width="1174pt" height="325pt"
 viewBox="0.00 0.00 1174.00 325.00" xmlns="http://www.w3.org/2000/svg" xmlns:xlink="http://www.w3.org/1999/xlink">
<g id="graph0" class="graph" transform="scale(1 1) rotate(0) translate(4 321.25)">
<title>source/motion/motor/motor_convert.h</title>
<!-- Node1 -->
<g id="Node000001" class="node">
<title>Node1</title>
<g id="a_Node000001"><a xlink:title=" ">
<polygon fill="#999999" stroke="#666666" points="388.42,-317.25 270.42,-317.25 270.42,-283.75 388.42,-283.75 388.42,-317.25"/>
<text xml:space="preserve" text-anchor="start" x="278.42" y="-303.75" font-family="Helvetica,sans-Serif" font-size="10.00">source/motion/motor</text>
<text xml:space="preserve" text-anchor="middle" x="329.42" y="-291" font-family="Helvetica,sans-Serif" font-size="10.00">/motor_convert.h</text>
</a>
</g>
</g>
<!-- Node2 -->
<g id="Node000002" class="node">
<title>Node2</title>
<g id="a_Node000002"><a xlink:title=" ">
<polygon fill="#e0e0e0" stroke="#999999" points="194.8,-77.5 142.05,-77.5 142.05,-56.75 194.8,-56.75 194.8,-77.5"/>
<text xml:space="preserve" text-anchor="middle" x="168.42" y="-64" font-family="Helvetica,sans-Serif" font-size="10.00">stdint.h</text>
</a>
</g>
</g>
<!-- Node1&#45;&gt;Node2 -->
<g id="edge1_Node000001_Node000002" class="edge">
<title>Node1&#45;&gt;Node2</title>
<g id="a_edge1_Node000001_Node000002"><a xlink:title=" ">
<path fill="none" stroke="#63b8ff" d="M270.08,-284.7C201.09,-263.97 90.46,-218.93 41.42,-134.25 36.8,-126.27 36.11,-121.04 41.42,-113.5 46.82,-105.84 95.18,-90 130.62,-79.22"/>
<polygon fill="#63b8ff" stroke="#63b8ff" points="131.59,-82.58 140.16,-76.35 129.57,-75.88 131.59,-82.58"/>
</a>
</g>
</g>
<!-- Node3 -->
<g id="Node000003" class="node">
<title>Node3</title>
<g id="a_Node000003"><a xlink:href="motor__core_8h.html" target="_top" xlink:title=" ">
<polygon fill="white" stroke="#666666" points="796.67,-247.75 716.17,-247.75 716.17,-227 796.67,-227 796.67,-247.75"/>
<text xml:space="preserve" text-anchor="middle" x="756.42" y="-234.25" font-family="Helvetica,sans-Serif" font-size="10.00">motor_core.h</text>
</a>
</g>
</g>
<!-- Node1&#45;&gt;Node3 -->
<g id="edge2_Node000001_Node000003" class="edge">
<title>Node1&#45;&gt;Node3</title>
<g id="a_edge2_Node000001_Node000003"><a xlink:title=" ">
<path fill="none" stroke="#63b8ff" d="M388.79,-291C472.77,-278.98 624.88,-257.21 704.56,-245.8"/>
<polygon fill="#63b8ff" stroke="#63b8ff" points="704.87,-249.29 714.28,-244.41 703.88,-242.36 704.87,-249.29"/>
</a>
</g>
</g>
<!-- Node4 -->
<g id="Node000004" class="node">
<title>Node4</title>
<g id="a_Node000004"><a xlink:href="pca9555a_8h.html" target="_top" xlink:title=" ">
<polygon fill="white" stroke="#666666" points="712.42,-77.5 558.42,-77.5 558.42,-56.75 712.42,-56.75 712.42,-77.5"/>
<text xml:space="preserve" text-anchor="middle" x="635.42" y="-64" font-family="Helvetica,sans-Serif" font-size="10.00">driver/pca9555a/pca9555a.h</text>
</a>
</g>
</g>
<!-- Node3&#45;&gt;Node4 -->
<g id="edge3_Node000003_Node000004" class="edge">
<title>Node3&#45;&gt;Node4</title>
<g id="a_edge3_Node000003_Node000004"><a xlink:title=" ">
<path fill="none" stroke="#63b8ff" d="M715.7,-228.16C694.2,-221.69 669.25,-210.4 654.42,-191 631.77,-161.38 631.04,-115.79 632.96,-89.27"/>
<polygon fill="#63b8ff" stroke="#63b8ff" points="636.43,-89.72 633.88,-79.44 629.46,-89.06 636.43,-89.72"/>
</a>
</g>
</g>
<!-- Node7 -->
<g id="Node000007" class="node">
<title>Node7</title>
<g id="a_Node000007"><a xlink:title=" ">
<polygon fill="#e0e0e0" stroke="#999999" points="751.8,-191 663.05,-191 663.05,-170.25 751.8,-170.25 751.8,-191"/>
<text xml:space="preserve" text-anchor="middle" x="707.42" y="-177.5" font-family="Helvetica,sans-Serif" font-size="10.00">MK22F51212.h</text>
</a>
</g>
</g>
<!-- Node3&#45;&gt;Node7 -->
<g id="edge6_Node000003_Node000007" class="edge">
<title>Node3&#45;&gt;Node7</title>
<g id="a_edge6_Node000003_Node000007"><a xlink:title=" ">
<path fill="none" stroke="#63b8ff" d="M747.66,-226.59C740.97,-219.11 731.57,-208.61 723.53,-199.63"/>
<polygon fill="#63b8ff" stroke="#63b8ff" points="726.39,-197.57 717.11,-192.46 721.18,-202.24 726.39,-197.57"/>
</a>
</g>
</g>
<!-- Node8 -->
<g id="Node000008" class="node">
<title>Node8</title>
<g id="a_Node000008"><a xlink:href="step__core_8h.html" target="_top" xlink:title=" ">
<polygon fill="white" stroke="#666666" points="842.55,-191 770.3,-191 770.3,-170.25 842.55,-170.25 842.55,-191"/>
<text xml:space="preserve" text-anchor="middle" x="806.42" y="-177.5" font-family="Helvetica,sans-Serif" font-size="10.00">step_core.h</text>
</a>
</g>
</g>
<!-- Node3&#45;&gt;Node8 -->
<g id="edge7_Node000003_Node000008" class="edge">
<title>Node3&#45;&gt;Node8</title>
<g id="a_edge7_Node000003_Node000008"><a xlink:title=" ">
<path fill="none" stroke="#63b8ff" d="M765.36,-226.59C772.19,-219.11 781.78,-208.61 789.98,-199.63"/>
<polygon fill="#63b8ff" stroke="#63b8ff" points="792.38,-202.19 796.54,-192.45 787.21,-197.47 792.38,-202.19"/>
</a>
</g>
</g>
<!-- Node11 -->
<g id="Node000011" class="node">
<title>Node11</title>
<g id="a_Node000011"><a xlink:title=" ">
<polygon fill="#e0e0e0" stroke="#999999" points="1084.8,-77.5 1026.05,-77.5 1026.05,-56.75 1084.8,-56.75 1084.8,-77.5"/>
<text xml:space="preserve" text-anchor="middle" x="1055.42" y="-64" font-family="Helvetica,sans-Serif" font-size="10.00">fsl_ftm.h</text>
</a>
</g>
</g>
<!-- Node3&#45;&gt;Node11 -->
<g id="edge37_Node000003_Node000011" class="edge">
<title>Node3&#45;&gt;Node11</title>
<g id="a_edge37_Node000003_Node000011"><a xlink:title=" ">
<path fill="none" stroke="#63b8ff" d="M796.95,-228.69C828.14,-221.71 871.64,-209.62 906.42,-191 960.06,-162.27 1012.53,-112.52 1038.53,-85.99"/>
<polygon fill="#63b8ff" stroke="#63b8ff" points="1040.82,-88.67 1045.25,-79.04 1035.78,-83.8 1040.82,-88.67"/>
</a>
</g>
</g>
<!-- Node12 -->
<g id="Node000012" class="node">
<title>Node12</title>
<g id="a_Node000012"><a xlink:title=" ">
<polygon fill="#e0e0e0" stroke="#999999" points="1166.05,-77.5 1102.8,-77.5 1102.8,-56.75 1166.05,-56.75 1166.05,-77.5"/>
<text xml:space="preserve" text-anchor="middle" x="1134.42" y="-64" font-family="Helvetica,sans-Serif" font-size="10.00">fsl_gpio.h</text>
</a>
</g>
</g>
<!-- Node3&#45;&gt;Node12 -->
<g id="edge38_Node000003_Node000012" class="edge">
<title>Node3&#45;&gt;Node12</title>
<g id="a_edge38_Node000003_Node000012"><a xlink:title=" ">
<path fill="none" stroke="#63b8ff" d="M796.89,-229.87C834.15,-223.03 890.43,-210.51 936.42,-191 1005.19,-161.83 1077.76,-110.82 1112.87,-84.65"/>
<polygon fill="#63b8ff" stroke="#63b8ff" points="1114.66,-87.68 1120.54,-78.87 1110.45,-82.09 1114.66,-87.68"/>
</a>
</g>
</g>
<!-- Node13 -->
<g id="Node000013" class="node">
<title>Node13</title>
<g id="a_Node000013"><a xlink:title=" ">
<polygon fill="#e0e0e0" stroke="#999999" points="1008.3,-77.5 946.55,-77.5 946.55,-56.75 1008.3,-56.75 1008.3,-77.5"/>
<text xml:space="preserve" text-anchor="middle" x="977.42" y="-64" font-family="Helvetica,sans-Serif" font-size="10.00">fsl_port.h</text>
</a>
</g>
</g>
<!-- Node3&#45;&gt;Node13 -->
<g id="edge39_Node000003_Node000013" class="edge">
<title>Node3&#45;&gt;Node13</title>
<g id="a_edge39_Node000003_Node000013"><a xlink:title=" ">
<path fill="none" stroke="#63b8ff" d="M791.45,-226.52C834.55,-212.68 907.3,-183.51 950.42,-134.25 961.79,-121.26 968.78,-102.84 972.79,-88.74"/>
<polygon fill="#63b8ff" stroke="#63b8ff" points="976.15,-89.73 975.21,-79.17 969.36,-88.01 976.15,-89.73"/>
</a>
</g>
</g>
<!-- Node19 -->
<g id="Node000019" class="node">
<title>Node19</title>
<g id="a_Node000019"><a xlink:href="tmc2209__core_8h.html" target="_top" xlink:title=" ">
<polygon fill="white" stroke="#666666" points="250.42,-191 156.42,-191 156.42,-170.25 250.42,-170.25 250.42,-191"/>
<text xml:space="preserve" text-anchor="middle" x="203.42" y="-177.5" font-family="Helvetica,sans-Serif" font-size="10.00">tmc2209_core.h</text>
</a>
</g>
</g>
<!-- Node3&#45;&gt;Node19 -->
<g id="edge29_Node000003_Node000019" class="edge">
<title>Node3&#45;&gt;Node19</title>
<g id="a_edge29_Node000003_Node000019"><a xlink:title=" ">
<path fill="none" stroke="#63b8ff" d="M715.76,-232.35C618.94,-222.76 374.44,-198.56 261.84,-187.41"/>
<polygon fill="#63b8ff" stroke="#63b8ff" points="262.52,-183.96 252.22,-186.46 261.83,-190.93 262.52,-183.96"/>
</a>
</g>
</g>
<!-- Node5 -->
<g id="Node000005" class="node">
<title>Node5</title>
<g id="a_Node000005"><a xlink:title=" ">
<polygon fill="#e0e0e0" stroke="#999999" points="677.92,-20.75 592.92,-20.75 592.92,0 677.92,0 677.92,-20.75"/>
<text xml:space="preserve" text-anchor="middle" x="635.42" y="-7.25" font-family="Helvetica,sans-Serif" font-size="10.00">fsl_common.h</text>
</a>
</g>
</g>
<!-- Node4&#45;&gt;Node5 -->
<g id="edge4_Node000004_Node000005" class="edge">
<title>Node4&#45;&gt;Node5</title>
<g id="a_edge4_Node000004_Node000005"><a xlink:title=" ">
<path fill="none" stroke="#63b8ff" d="M635.42,-56.34C635.42,-49.72 635.42,-40.72 635.42,-32.52"/>
<polygon fill="#63b8ff" stroke="#63b8ff" points="638.92,-32.59 635.42,-22.59 631.92,-32.59 638.92,-32.59"/>
</a>
</g>
</g>
<!-- Node6 -->
<g id="Node000006" class="node">
<title>Node6</title>
<g id="a_Node000006"><a xlink:title=" ">
<polygon fill="#e0e0e0" stroke="#999999" points="303.3,-20.75 223.55,-20.75 223.55,0 303.3,0 303.3,-20.75"/>
<text xml:space="preserve" text-anchor="middle" x="263.42" y="-7.25" font-family="Helvetica,sans-Serif" font-size="10.00">peripherals.h</text>
</a>
</g>
</g>
<!-- Node4&#45;&gt;Node6 -->
<g id="edge5_Node000004_Node000006" class="edge">
<title>Node4&#45;&gt;Node6</title>
<g id="a_edge5_Node000004_Node000006"><a xlink:title=" ">
<path fill="none" stroke="#63b8ff" d="M568.49,-56.27C495.77,-45.57 381.16,-28.7 315.07,-18.98"/>
<polygon fill="#63b8ff" stroke="#63b8ff" points="315.61,-15.52 305.21,-17.53 314.6,-22.44 315.61,-15.52"/>
</a>
</g>
</g>
<!-- Node8&#45;&gt;Node4 -->
<g id="edge8_Node000008_Node000004" class="edge">
<title>Node8&#45;&gt;Node4</title>
<g id="a_edge8_Node000008_Node000004"><a xlink:title=" ">
<path fill="none" stroke="#63b8ff" d="M787.64,-169.75C771.2,-160.92 746.83,-147.39 726.42,-134.25 701.9,-118.46 675.02,-98.59 656.88,-84.77"/>
<polygon fill="#63b8ff" stroke="#63b8ff" points="659.03,-82.01 648.97,-78.7 654.77,-87.57 659.03,-82.01"/>
</a>
</g>
</g>
<!-- Node8&#45;&gt;Node5 -->
<g id="edge11_Node000008_Node000005" class="edge">
<title>Node8&#45;&gt;Node5</title>
<g id="a_edge11_Node000008_Node000005"><a xlink:title=" ">
<path fill="none" stroke="#63b8ff" d="M794.07,-169.8C783.85,-161.22 769.44,-148 759.42,-134.25 736.84,-103.24 748.14,-84.27 721.42,-56.75 708.4,-43.34 690.55,-33.04 674.49,-25.67"/>
<polygon fill="#63b8ff" stroke="#63b8ff" points="676.21,-22.6 665.65,-21.84 673.44,-29.03 676.21,-22.6"/>
</a>
</g>
</g>
<!-- Node9 -->
<g id="Node000009" class="node">
<title>Node9</title>
<g id="a_Node000009"><a xlink:title=" ">
<polygon fill="#e0e0e0" stroke="#999999" points="540.17,-77.5 468.67,-77.5 468.67,-56.75 540.17,-56.75 540.17,-77.5"/>
<text xml:space="preserve" text-anchor="middle" x="504.42" y="-64" font-family="Helvetica,sans-Serif" font-size="10.00">FreeRTOS.h</text>
</a>
</g>
</g>
<!-- Node8&#45;&gt;Node9 -->
<g id="edge9_Node000008_Node000009" class="edge">
<title>Node8&#45;&gt;Node9</title>
<g id="a_edge9_Node000008_Node000009"><a xlink:title=" ">
<path fill="none" stroke="#63b8ff" d="M779.89,-169.83C725.84,-149.88 602.93,-104.5 541.22,-81.71"/>
<polygon fill="#63b8ff" stroke="#63b8ff" points="542.8,-78.56 532.21,-78.38 540.38,-85.13 542.8,-78.56"/>
</a>
</g>
</g>
<!-- Node10 -->
<g id="Node000010" class="node">
<title>Node10</title>
<g id="a_Node000010"><a xlink:title=" ">
<polygon fill="#e0e0e0" stroke="#999999" points="814.42,-134.25 768.42,-134.25 768.42,-113.5 814.42,-113.5 814.42,-134.25"/>
<text xml:space="preserve" text-anchor="middle" x="791.42" y="-120.75" font-family="Helvetica,sans-Serif" font-size="10.00">task.h</text>
</a>
</g>
</g>
<!-- Node8&#45;&gt;Node10 -->
<g id="edge10_Node000008_Node000010" class="edge">
<title>Node8&#45;&gt;Node10</title>
<g id="a_edge10_Node000008_Node000010"><a xlink:title=" ">
<path fill="none" stroke="#63b8ff" d="M803.74,-169.84C801.88,-163.06 799.35,-153.8 797.05,-145.44"/>
<polygon fill="#63b8ff" stroke="#63b8ff" points="800.5,-144.76 794.48,-136.04 793.75,-146.61 800.5,-144.76"/>
</a>
</g>
</g>
<!-- Node8&#45;&gt;Node11 -->
<g id="edge12_Node000008_Node000011" class="edge">
<title>Node8&#45;&gt;Node11</title>
<g id="a_edge12_Node000008_Node000011"><a xlink:title=" ">
<path fill="none" stroke="#63b8ff" d="M842.89,-170.91C872.59,-163.17 915.22,-150.55 950.42,-134.25 980.66,-120.25 1012.69,-99.02 1033.31,-84.42"/>
<polygon fill="#63b8ff" stroke="#63b8ff" points="1035.15,-87.4 1041.23,-78.72 1031.07,-81.72 1035.15,-87.4"/>
</a>
</g>
</g>
<!-- Node8&#45;&gt;Node12 -->
<g id="edge13_Node000008_Node000012" class="edge">
<title>Node8&#45;&gt;Node12</title>
<g id="a_edge13_Node000008_Node000012"><a xlink:title=" ">
<path fill="none" stroke="#63b8ff" d="M842.98,-171.97C878.93,-164.04 935.13,-150.52 982.42,-134.25 1025.8,-119.33 1074.1,-97.35 1104.37,-82.89"/>
<polygon fill="#63b8ff" stroke="#63b8ff" points="1105.81,-86.08 1113.3,-78.58 1102.77,-79.77 1105.81,-86.08"/>
</a>
</g>
</g>
<!-- Node8&#45;&gt;Node13 -->
<g id="edge14_Node000008_Node000013" class="edge">
<title>Node8&#45;&gt;Node13</title>
<g id="a_edge14_Node000008_Node000013"><a xlink:title=" ">
<path fill="none" stroke="#63b8ff" d="M843.03,-171.19C867.95,-164.19 900.76,-152.4 925.42,-134.25 942.65,-121.57 957.18,-101.76 966.47,-87.12"/>
<polygon fill="#63b8ff" stroke="#63b8ff" points="969.29,-89.22 971.48,-78.85 963.3,-85.59 969.29,-89.22"/>
</a>
</g>
</g>
<!-- Node14 -->
<g id="Node000014" class="node">
<title>Node14</title>
<g id="a_Node000014"><a xlink:href="cmd__handle_8h.html" target="_top" xlink:title=" ">
<polygon fill="white" stroke="#666666" points="428.55,-134.25 344.3,-134.25 344.3,-113.5 428.55,-113.5 428.55,-134.25"/>
<text xml:space="preserve" text-anchor="middle" x="386.42" y="-120.75" font-family="Helvetica,sans-Serif" font-size="10.00">cmd_handle.h</text>
</a>
</g>
</g>
<!-- Node8&#45;&gt;Node14 -->
<g id="edge15_Node000008_Node000014" class="edge">
<title>Node8&#45;&gt;Node14</title>
<g id="a_edge15_Node000008_Node000014"><a xlink:title=" ">
<path fill="none" stroke="#63b8ff" d="M769.81,-171.89C766.64,-171.3 763.48,-170.75 760.42,-170.25 646.89,-151.83 512.87,-137.3 440.07,-130.02"/>
<polygon fill="#63b8ff" stroke="#63b8ff" points="440.73,-126.56 430.43,-129.06 440.03,-133.53 440.73,-126.56"/>
</a>
</g>
</g>
<!-- Node17 -->
<g id="Node000017" class="node">
<title>Node17</title>
<g id="a_Node000017"><a xlink:href="step__shared_8h.html" target="_top" xlink:title=" ">
<polygon fill="white" stroke="#666666" points="916.55,-134.25 832.3,-134.25 832.3,-113.5 916.55,-113.5 916.55,-134.25"/>
<text xml:space="preserve" text-anchor="middle" x="874.42" y="-120.75" font-family="Helvetica,sans-Serif" font-size="10.00">step_shared.h</text>
</a>
</g>
</g>
<!-- Node8&#45;&gt;Node17 -->
<g id="edge21_Node000008_Node000017" class="edge">
<title>Node8&#45;&gt;Node17</title>
<g id="a_edge21_Node000008_Node000017"><a xlink:title=" ">
<path fill="none" stroke="#63b8ff" d="M818.58,-169.84C828.25,-162.05 842.01,-150.97 853.45,-141.76"/>
<polygon fill="#63b8ff" stroke="#63b8ff" points="855.6,-144.53 861.19,-135.53 851.21,-139.07 855.6,-144.53"/>
</a>
</g>
</g>
<!-- Node14&#45;&gt;Node2 -->
<g id="edge16_Node000014_Node000002" class="edge">
<title>Node14&#45;&gt;Node2</title>
<g id="a_edge16_Node000014_Node000002"><a xlink:title=" ">
<path fill="none" stroke="#63b8ff" d="M347.2,-113.02C307.14,-102.96 245.4,-87.46 205.97,-77.55"/>
<polygon fill="#63b8ff" stroke="#63b8ff" points="207,-74.21 196.45,-75.16 205.3,-81 207,-74.21"/>
</a>
</g>
</g>
<!-- Node14&#45;&gt;Node5 -->
<g id="edge19_Node000014_Node000005" class="edge">
<title>Node14&#45;&gt;Node5</title>
<g id="a_edge19_Node000014_Node000005"><a xlink:title=" ">
<path fill="none" stroke="#63b8ff" d="M394.33,-113.19C406.68,-98.71 432.02,-71.51 459.42,-56.75 497.4,-36.29 545,-24.74 581.12,-18.42"/>
<polygon fill="#63b8ff" stroke="#63b8ff" points="581.64,-21.89 590.93,-16.8 580.49,-14.98 581.64,-21.89"/>
</a>
</g>
</g>
<!-- Node14&#45;&gt;Node9 -->
<g id="edge17_Node000014_Node000009" class="edge">
<title>Node14&#45;&gt;Node9</title>
<g id="a_edge17_Node000014_Node000009"><a xlink:title=" ">
<path fill="none" stroke="#63b8ff" d="M407.52,-113.09C425.81,-104.6 452.52,-92.2 473.28,-82.58"/>
<polygon fill="#63b8ff" stroke="#63b8ff" points="474.54,-85.85 482.13,-78.47 471.59,-79.5 474.54,-85.85"/>
</a>
</g>
</g>
<!-- Node15 -->
<g id="Node000015" class="node">
<title>Node15</title>
<g id="a_Node000015"><a xlink:title=" ">
<polygon fill="#e0e0e0" stroke="#999999" points="341.92,-77.5 250.92,-77.5 250.92,-56.75 341.92,-56.75 341.92,-77.5"/>
<text xml:space="preserve" text-anchor="middle" x="296.42" y="-64" font-family="Helvetica,sans-Serif" font-size="10.00">event_groups.h</text>
</a>
</g>
</g>
<!-- Node14&#45;&gt;Node15 -->
<g id="edge18_Node000014_Node000015" class="edge">
<title>Node14&#45;&gt;Node15</title>
<g id="a_edge18_Node000014_Node000015"><a xlink:title=" ">
<path fill="none" stroke="#63b8ff" d="M370.33,-113.09C356.89,-104.91 337.49,-93.11 321.94,-83.65"/>
<polygon fill="#63b8ff" stroke="#63b8ff" points="324.03,-80.82 313.66,-78.62 320.39,-86.8 324.03,-80.82"/>
</a>
</g>
</g>
<!-- Node16 -->
<g id="Node000016" class="node">
<title>Node16</title>
<g id="a_Node000016"><a xlink:title=" ">
<polygon fill="#e0e0e0" stroke="#999999" points="412.42,-77.5 360.42,-77.5 360.42,-56.75 412.42,-56.75 412.42,-77.5"/>
<text xml:space="preserve" text-anchor="middle" x="386.42" y="-64" font-family="Helvetica,sans-Serif" font-size="10.00">stdlib.h</text>
</a>
</g>
</g>
<!-- Node14&#45;&gt;Node16 -->
<g id="edge20_Node000014_Node000016" class="edge">
<title>Node14&#45;&gt;Node16</title>
<g id="a_edge20_Node000014_Node000016"><a xlink:title=" ">
<path fill="none" stroke="#63b8ff" d="M386.42,-113.09C386.42,-106.47 386.42,-97.47 386.42,-89.27"/>
<polygon fill="#63b8ff" stroke="#63b8ff" points="389.92,-89.34 386.42,-79.34 382.92,-89.34 389.92,-89.34"/>
</a>
</g>
</g>
<!-- Node17&#45;&gt;Node2 -->
<g id="edge22_Node000017_Node000002" class="edge">
<title>Node17&#45;&gt;Node2</title>
<g id="a_edge22_Node000017_Node000002"><a xlink:title=" ">
<path fill="none" stroke="#63b8ff" d="M831.9,-114.66C829.04,-114.23 826.19,-113.84 823.42,-113.5 566.18,-82.02 499.42,-102.02 241.42,-77.5 230,-76.41 217.61,-74.94 206.33,-73.48"/>
<polygon fill="#63b8ff" stroke="#63b8ff" points="206.95,-70.03 196.57,-72.18 206.02,-76.97 206.95,-70.03"/>
</a>
</g>
</g>
<!-- Node17&#45;&gt;Node4 -->
<g id="edge23_Node000017_Node000004" class="edge">
<title>Node17&#45;&gt;Node4</title>
<g id="a_edge23_Node000017_Node000004"><a xlink:title=" ">
<path fill="none" stroke="#63b8ff" d="M831.97,-113.15C792.2,-104.04 732.57,-90.38 689.43,-80.5"/>
<polygon fill="#63b8ff" stroke="#63b8ff" points="690.29,-77.1 679.76,-78.28 688.72,-83.93 690.29,-77.1"/>
</a>
</g>
</g>
<!-- Node17&#45;&gt;Node5 -->
<g id="edge25_Node000017_Node000005" class="edge">
<title>Node17&#45;&gt;Node5</title>
<g id="a_edge25_Node000017_Node000005"><a xlink:title=" ">
<path fill="none" stroke="#63b8ff" d="M883.49,-113.32C895.51,-99.47 913.66,-73.64 899.42,-56.75 873.13,-25.55 758.83,-15.8 689.54,-12.76"/>
<polygon fill="#63b8ff" stroke="#63b8ff" points="690.05,-9.28 679.92,-12.37 689.77,-16.27 690.05,-9.28"/>
</a>
</g>
</g>
<!-- Node17&#45;&gt;Node11 -->
<g id="edge26_Node000017_Node000011" class="edge">
<title>Node17&#45;&gt;Node11</title>
<g id="a_edge26_Node000017_Node000011"><a xlink:title=" ">
<path fill="none" stroke="#63b8ff" d="M906.78,-113.09C936.98,-103.95 982.15,-90.29 1014.77,-80.42"/>
<polygon fill="#63b8ff" stroke="#63b8ff" points="1015.73,-83.79 1024.29,-77.54 1013.71,-77.09 1015.73,-83.79"/>
</a>
</g>
</g>
<!-- Node17&#45;&gt;Node12 -->
<g id="edge27_Node000017_Node000012" class="edge">
<title>Node17&#45;&gt;Node12</title>
<g id="a_edge27_Node000017_Node000012"><a xlink:title=" ">
<path fill="none" stroke="#63b8ff" d="M916.87,-114.35C958.7,-105.89 1024.72,-92.37 1091.5,-77.88"/>
<polygon fill="#63b8ff" stroke="#63b8ff" points="1092.15,-81.33 1101.17,-75.78 1090.66,-74.49 1092.15,-81.33"/>
</a>
</g>
</g>
<!-- Node17&#45;&gt;Node13 -->
<g id="edge28_Node000017_Node000013" class="edge">
<title>Node17&#45;&gt;Node13</title>
<g id="a_edge28_Node000017_Node000013"><a xlink:title=" ">
<path fill="none" stroke="#63b8ff" d="M892.84,-113.09C908.51,-104.76 931.27,-92.66 949.23,-83.11"/>
<polygon fill="#63b8ff" stroke="#63b8ff" points="950.64,-86.32 957.83,-78.54 947.36,-80.14 950.64,-86.32"/>
</a>
</g>
</g>
<!-- Node18 -->
<g id="Node000018" class="node">
<title>Node18</title>
<g id="a_Node000018"><a xlink:title=" ">
<polygon fill="#e0e0e0" stroke="#999999" points="890.67,-77.5 768.17,-77.5 768.17,-56.75 890.67,-56.75 890.67,-77.5"/>
<text xml:space="preserve" text-anchor="middle" x="829.42" y="-64" font-family="Helvetica,sans-Serif" font-size="10.00">fsl_device_registers.h</text>
</a>
</g>
</g>
<!-- Node17&#45;&gt;Node18 -->
<g id="edge24_Node000017_Node000018" class="edge">
<title>Node17&#45;&gt;Node18</title>
<g id="a_edge24_Node000017_Node000018"><a xlink:title=" ">
<path fill="none" stroke="#63b8ff" d="M866.38,-113.09C860.36,-105.77 851.96,-95.54 844.68,-86.69"/>
<polygon fill="#63b8ff" stroke="#63b8ff" points="847.41,-84.5 838.36,-79 842,-88.95 847.41,-84.5"/>
</a>
</g>
</g>
<!-- Node19&#45;&gt;Node2 -->
<g id="edge30_Node000019_Node000002" class="edge">
<title>Node19&#45;&gt;Node2</title>
<g id="a_edge30_Node000019_Node000002"><a xlink:title=" ">
<path fill="none" stroke="#63b8ff" d="M200.44,-170.12C194.81,-152.19 182.51,-113 174.9,-88.76"/>
<polygon fill="#63b8ff" stroke="#63b8ff" points="178.28,-87.86 171.95,-79.37 171.61,-89.96 178.28,-87.86"/>
</a>
</g>
</g>
<!-- Node19&#45;&gt;Node5 -->
<g id="edge34_Node000019_Node000005" class="edge">
<title>Node19&#45;&gt;Node5</title>
<g id="a_edge34_Node000019_Node000005"><a xlink:title=" ">
<path fill="none" stroke="#63b8ff" d="M203.15,-170.08C203.05,-146.6 206.37,-85.84 241.42,-56.75 291.9,-14.85 485.53,-10.19 581.23,-10.54"/>
<polygon fill="#63b8ff" stroke="#63b8ff" points="581.14,-14.04 591.16,-10.6 581.19,-7.04 581.14,-14.04"/>
</a>
</g>
</g>
<!-- Node19&#45;&gt;Node6 -->
<g id="edge36_Node000019_Node000006" class="edge">
<title>Node19&#45;&gt;Node6</title>
<g id="a_edge36_Node000019_Node000006"><a xlink:title=" ">
<path fill="none" stroke="#63b8ff" d="M156.17,-176.03C121.31,-171.24 74.4,-160.12 41.42,-134.25 12.1,-111.25 -14.5,-85.32 9.42,-56.75 34.73,-26.51 145.37,-16.4 212,-13.04"/>
<polygon fill="#63b8ff" stroke="#63b8ff" points="211.75,-16.56 221.58,-12.59 211.43,-9.56 211.75,-16.56"/>
</a>
</g>
</g>
<!-- Node19&#45;&gt;Node14 -->
<g id="edge35_Node000019_Node000014" class="edge">
<title>Node19&#45;&gt;Node14</title>
<g id="a_edge35_Node000019_Node000014"><a xlink:title=" ">
<path fill="none" stroke="#63b8ff" d="M236.14,-169.84C265.97,-160.91 310.26,-147.66 343.04,-137.85"/>
<polygon fill="#63b8ff" stroke="#63b8ff" points="343.65,-141.32 352.23,-135.1 341.65,-134.62 343.65,-141.32"/>
</a>
</g>
</g>
<!-- Node20 -->
<g id="Node000020" class="node">
<title>Node20</title>
<g id="a_Node000020"><a xlink:href="tmc2209__shared_8h.html" target="_top" xlink:title=" ">
<polygon fill="white" stroke="#666666" points="156.42,-134.25 50.42,-134.25 50.42,-113.5 156.42,-113.5 156.42,-134.25"/>
<text xml:space="preserve" text-anchor="middle" x="103.42" y="-120.75" font-family="Helvetica,sans-Serif" font-size="10.00">tmc2209_shared.h</text>
</a>
</g>
</g>
<!-- Node19&#45;&gt;Node20 -->
<g id="edge31_Node000019_Node000020" class="edge">
<title>Node19&#45;&gt;Node20</title>
<g id="a_edge31_Node000019_Node000020"><a xlink:title=" ">
<path fill="none" stroke="#63b8ff" d="M185.54,-169.84C170.33,-161.51 148.23,-149.41 130.79,-139.86"/>
<polygon fill="#63b8ff" stroke="#63b8ff" points="132.92,-137.04 122.47,-135.31 129.56,-143.18 132.92,-137.04"/>
</a>
</g>
</g>
<!-- Node20&#45;&gt;Node2 -->
<g id="edge32_Node000020_Node000002" class="edge">
<title>Node20&#45;&gt;Node2</title>
<g id="a_edge32_Node000020_Node000002"><a xlink:title=" ">
<path fill="none" stroke="#63b8ff" d="M115.04,-113.09C124.28,-105.3 137.44,-94.22 148.37,-85.01"/>
<polygon fill="#63b8ff" stroke="#63b8ff" points="150.35,-87.92 155.74,-78.8 145.84,-82.57 150.35,-87.92"/>
</a>
</g>
</g>
<!-- Node21 -->
<g id="Node000021" class="node">
<title>Node21</title>
<g id="a_Node000021"><a xlink:title=" ">
<polygon fill="#e0e0e0" stroke="#999999" points="124.05,-77.5 18.8,-77.5 18.8,-56.75 124.05,-56.75 124.05,-77.5"/>
<text xml:space="preserve" text-anchor="middle" x="71.42" y="-64" font-family="Helvetica,sans-Serif" font-size="10.00">fsl_uart_freertos.h</text>
</a>
</g>
</g>
<!-- Node20&#45;&gt;Node21 -->
<g id="edge33_Node000020_Node000021" class="edge">
<title>Node20&#45;&gt;Node21</title>
<g id="a_edge33_Node000020_Node000021"><a xlink:title=" ">
<path fill="none" stroke="#63b8ff" d="M97.7,-113.09C93.56,-106 87.83,-96.19 82.77,-87.54"/>
<polygon fill="#63b8ff" stroke="#63b8ff" points="85.92,-86 77.86,-79.14 79.88,-89.53 85.92,-86"/>
</a>
</g>
</g>
</g>
</svg>
