<?xml version="1.0" encoding="UTF-8" standalone="no"?>
<!DOCTYPE svg PUBLIC "-//W3C//DTD SVG 1.1//EN"
 "http://www.w3.org/Graphics/SVG/1.1/DTD/svg11.dtd">
<!-- Generated by graphviz version 14.1.5 (0)
 -->
<!-- Title: source/motion/motor/motor_convert.h Pages: 1 -->
<!--zoomable 111 -->

<svg id="main" version="1.1" xmlns="http://www.w3.org/2000/svg" xmlns:xlink="http://www.w3.org/1999/xlink" xml:space="preserve" onload="init(evt)">

<style type="text/css"><![CDATA[
.node, .edge {opacity: 0.7;}
.node.selected, .edge.selected {opacity: 1;}
.edge:hover path { stroke: red; }
.edge:hover polygon { stroke: red; fill: red; }
]]></style>

<defs>
  <circle id="rim" cx="0" cy="0" r="7"/>
  <circle id="rim2" cx="0" cy="0" r="3.5"/>
  <g id="zoomPlus">
    <use xlink:href="#rim" fill="#404040"><set attributeName="fill" to="#808080" begin="zoomplus.mouseover" end="zoomplus.mouseout"/></use>
    <path d="M-4,0h8M0,-4v8" fill="none" stroke="white" stroke-width="1.5" pointer-events="none"/>
  </g>
  <g id="zoomMin">
    <use xlink:href="#rim" fill="#404040"><set attributeName="fill" to="#808080" begin="zoomminus.mouseover" end="zoomminus.mouseout"/></use>
    <path d="M-4,0h8" fill="none" stroke="white" stroke-width="1.5" pointer-events="none"/>
  </g>
  <g id="arrowUp" transform="translate(30 24)">
    <use xlink:href="#rim"/>
    <path pointer-events="none" fill="none" stroke="white" stroke-width="1.5" d="M0,-3.0v7 M-2.5,-0.5L0,-3.0L2.5,-0.5"/>
  </g>
  <g id="arrowRight" transform="rotate(90) translate(36 -43)">
    <use xlink:href="#rim"/>
    <path pointer-events="none" fill="none" stroke="white" stroke-width="1.5" d="M0,-3.0v7 M-2.5,-0.5L0,-3.0L2.5,-0.5"/>
  </g>
  <g id="arrowDown" transform="rotate(180) translate(-30 -48)">
    <use xlink:href="#rim"/>
    <path pointer-events="none" fill="none" stroke="white" stroke-width="1.5" d="M0,-3.0v7 M-2.5,-0.5L0,-3.0L2.5,-0.5"/>
  </g>
  <g id="arrowLeft" transform="rotate(270) translate(-36 17)">
    <use xlink:href="#rim"/>
    <path pointer-events="none" fill="none" stroke="white" stroke-width="1.5" d="M0,-3.0v7 M-2.5,-0.5L0,-3.0L2.5,-0.5"/>
  </g>
  <g id="resetDef">
    <use xlink:href="#rim2" fill="#404040"><set attributeName="fill" to="#808080" begin="reset.mouseover" end="reset.mouseout"/></use>
  </g>
</defs>
<script type="application/ecmascript">
var viewWidth = 671;
var viewHeight = 111;
var sectionId = 'dynsection-1';
</script>
<script type="application/ecmascript" xlink:href="svg.min.js"/>
<svg id="graph" class="graph">
<g id="viewport">
<title>source/motion/motor/motor_convert.h</title>
<!-- Node1 -->
<g id="Node000001" class="node">
<title>Node1</title>
<g id="a_Node000001"><a xlink:title=" ">
<polygon fill="#999999" stroke="#666666" points="397.75,-103 279.75,-103 279.75,-69.5 397.75,-69.5 397.75,-103"/>
<text xml:space="preserve" text-anchor="start" x="287.75" y="-89.5" font-family="Helvetica,sans-Serif" font-size="10.00">source/motion/motor</text>
<text xml:space="preserve" text-anchor="middle" x="338.75" y="-76.75" font-family="Helvetica,sans-Serif" font-size="10.00">/motor_convert.h</text>
</a>
</g>
</g>
<!-- Node2 -->
<g id="Node000002" class="node">
<title>Node2</title>
<g id="a_Node000002"><a xlink:href="motor__homing_8c.html" target="_top" xlink:title=" ">
<polygon fill="white" stroke="#666666" points="125.5,-33.5 0,-33.5 0,0 125.5,0 125.5,-33.5"/>
<text xml:space="preserve" text-anchor="start" x="8" y="-20" font-family="Helvetica,sans-Serif" font-size="10.00">source/motion/homing</text>
<text xml:space="preserve" text-anchor="middle" x="62.75" y="-7.25" font-family="Helvetica,sans-Serif" font-size="10.00">/motor_homing.c</text>
</a>
</g>
</g>
<!-- Node1&#45;&gt;Node2 -->
<g id="edge1_Node000001_Node000002" class="edge">
<title>Node1&#45;&gt;Node2</title>
<g id="a_edge1_Node000001_Node000002"><a xlink:title=" ">
<path fill="none" stroke="#63b8ff" d="M268.63,-68.1C224.6,-57.33 168.29,-43.56 125.7,-33.15"/>
<polygon fill="#63b8ff" stroke="#63b8ff" points="267.53,-71.43 278.07,-70.41 269.19,-64.63 267.53,-71.43"/>
</a>
</g>
</g>
<!-- Node3 -->
<g id="Node000003" class="node">
<title>Node3</title>
<g id="a_Node000003"><a xlink:href="motor__convert_8c.html" target="_top" xlink:title=" ">
<polygon fill="white" stroke="#666666" points="261.75,-33.5 143.75,-33.5 143.75,0 261.75,0 261.75,-33.5"/>
<text xml:space="preserve" text-anchor="start" x="151.75" y="-20" font-family="Helvetica,sans-Serif" font-size="10.00">source/motion/motor</text>
<text xml:space="preserve" text-anchor="middle" x="202.75" y="-7.25" font-family="Helvetica,sans-Serif" font-size="10.00">/motor_convert.c</text>
</a>
</g>
</g>
<!-- Node1&#45;&gt;Node3 -->
<g id="edge2_Node000001_Node000003" class="edge">
<title>Node1&#45;&gt;Node3</title>
<g id="a_edge2_Node000001_Node000003"><a xlink:title=" ">
<path fill="none" stroke="#63b8ff" d="M295.92,-63.99C276.23,-54.22 253.26,-42.82 235.06,-33.79"/>
<polygon fill="#63b8ff" stroke="#63b8ff" points="294.31,-67.1 304.82,-68.41 297.42,-60.83 294.31,-67.1"/>
</a>
</g>
</g>
<!-- Node4 -->
<g id="Node000004" class="node">
<title>Node4</title>
<g id="a_Node000004"><a xlink:href="motor__motion_8c.html" target="_top" xlink:title=" ">
<polygon fill="white" stroke="#666666" points="397.75,-33.5 279.75,-33.5 279.75,0 397.75,0 397.75,-33.5"/>
<text xml:space="preserve" text-anchor="start" x="287.75" y="-20" font-family="Helvetica,sans-Serif" font-size="10.00">source/motion/motor</text>
<text xml:space="preserve" text-anchor="middle" x="338.75" y="-7.25" font-family="Helvetica,sans-Serif" font-size="10.00">/motor_motion.c</text>
</a>
</g>
</g>
<!-- Node1&#45;&gt;Node4 -->
<g id="edge3_Node000001_Node000004" class="edge">
<title>Node1&#45;&gt;Node4</title>
<g id="a_edge3_Node000001_Node000004"><a xlink:title=" ">
<path fill="none" stroke="#63b8ff" d="M338.75,-57.81C338.75,-49.59 338.75,-40.84 338.75,-33.63"/>
<polygon fill="#63b8ff" stroke="#63b8ff" points="335.25,-57.74 338.75,-67.74 342.25,-57.74 335.25,-57.74"/>
</a>
</g>
</g>
<!-- Node5 -->
<g id="Node000005" class="node">
<title>Node5</title>
<g id="a_Node000005"><a xlink:href="motor__sync_8c.html" target="_top" xlink:title=" ">
<polygon fill="white" stroke="#666666" points="533.75,-33.5 415.75,-33.5 415.75,0 533.75,0 533.75,-33.5"/>
<text xml:space="preserve" text-anchor="start" x="423.75" y="-20" font-family="Helvetica,sans-Serif" font-size="10.00">source/motion/motor</text>
<text xml:space="preserve" text-anchor="middle" x="474.75" y="-7.25" font-family="Helvetica,sans-Serif" font-size="10.00">/motor_sync.c</text>
</a>
</g>
</g>
<!-- Node1&#45;&gt;Node5 -->
<g id="edge4_Node000001_Node000005" class="edge">
<title>Node1&#45;&gt;Node5</title>
<g id="a_edge4_Node000001_Node000005"><a xlink:title=" ">
<path fill="none" stroke="#63b8ff" d="M381.58,-63.99C401.27,-54.22 424.24,-42.82 442.44,-33.79"/>
<polygon fill="#63b8ff" stroke="#63b8ff" points="380.08,-60.83 372.68,-68.41 383.19,-67.1 380.08,-60.83"/>
</a>
</g>
</g>
<!-- Node6 -->
<g id="Node000006" class="node">
<title>Node6</title>
<g id="a_Node000006"><a xlink:href="motorCmd_8c.html" target="_top" xlink:title=" ">
<polygon fill="white" stroke="#666666" points="663.38,-27.12 552.12,-27.12 552.12,-6.38 663.38,-6.38 663.38,-27.12"/>
<text xml:space="preserve" text-anchor="middle" x="607.75" y="-13.62" font-family="Helvetica,sans-Serif" font-size="10.00">source/motorCmd.c</text>
</a>
</g>
</g>
<!-- Node1&#45;&gt;Node6 -->
<g id="edge5_Node000001_Node000006" class="edge">
<title>Node1&#45;&gt;Node6</title>
<g id="a_edge5_Node000001_Node000006"><a xlink:title=" ">
<path fill="none" stroke="#63b8ff" d="M409.04,-67.61C459.9,-54.85 526.76,-38.07 568.5,-27.6"/>
<polygon fill="#63b8ff" stroke="#63b8ff" points="408.43,-64.16 399.58,-69.98 410.14,-70.95 408.43,-64.16"/>
</a>
</g>
</g>
</g>
</svg>

<g id="navigator" transform="translate(0 0)" fill="#404254">
  <rect fill="#f2f5e9" fill-opacity="0.5" stroke="#606060" stroke-width=".5" x="0" y="0" width="60" height="60"/>
  <use id="zoomplus" xlink:href="#zoomPlus" x="17" y="9" onmousedown="handleZoom(evt,'in')"/>
  <use id="zoomminus" xlink:href="#zoomMin" x="42" y="9" onmousedown="handleZoom(evt,'out')"/>
  <use id="reset" xlink:href="#resetDef" x="30" y="36" onmousedown="handleReset()"/>
   <use id="arrowup" xlink:href="#arrowUp" x="0" y="0" onmousedown="handlePan(0,-1)"/>
  <use id="arrowright" xlink:href="#arrowRight" x="0" y="0" onmousedown="handlePan(1,0)"/>
  <use id="arrowdown" xlink:href="#arrowDown" x="0" y="0" onmousedown="handlePan(0,1)"/>
  <use id="arrowleft" xlink:href="#arrowLeft" x="0" y="0" onmousedown="handlePan(-1,0)"/>
</g>
<svg viewBox="0 0 15 15" width="100%" height="30px" preserveAspectRatio="xMaxYMin meet">
 <g id="arrow_out" transform="scale(0.3 0.3)">
  <a xlink:href="motor__convert_8h__dep__incl_org.svg" target="_base">
   <rect id="button" ry="5" rx="5" y="6" x="6" height="38" width="38"
        fill="#f2f5e9" fill-opacity="0.5" stroke="#606060" stroke-width="1.0"/>
   <path id="arrow"
     d="M 11.500037,31.436501 C 11.940474,20.09759 22.043105,11.32322 32.158766,21.979434 L 37.068811,17.246167 C 37.068811,17.246167 37.088388,32 37.088388,32 L 22.160133,31.978069 C 22.160133,31.978069 26.997745,27.140456 26.997745,27.140456 C 18.528582,18.264221 13.291696,25.230495 11.500037,31.436501 z"
     style="fill:#404040;"/>
  </a>
 </g>
</svg>

<style type='text/css'>
<![CDATA[
[data-mouse-over-selected='false'] { opacity: 0.7; }
[data-mouse-over-selected='true']  { opacity: 1.0; }
]]>
</style>
<script type="application/ecmascript"><![CDATA[
document.addEventListener('DOMContentLoaded', (event) => {
  highlightEdges();
  highlightAdjacentNodes();
});
]]></script>
</svg>
