<?xml version="1.0" encoding="UTF-8" standalone="no"?>
<!DOCTYPE svg PUBLIC "-//W3C//DTD SVG 1.1//EN"
 "http://www.w3.org/Graphics/SVG/1.1/DTD/svg11.dtd">
<!-- Generated by graphviz version 14.1.5 (0)
 -->
<!-- Title: source/motion/motor/motor_core.h Pages: 1 -->
<!--zoomable 358 -->

<svg id="main" version="1.1" xmlns="http://www.w3.org/2000/svg" xmlns:xlink="http://www.w3.org/1999/xlink" xml:space="preserve" onload="init(evt)">

<style type="text/css"><![CDATA[
.node, .edge {opacity: 0.7;}
.node.selected, .edge.selected {opacity: 1;}
.edge:hover path { stroke: red; }
.edge:hover polygon { stroke: red; fill: red; }
]]></style>

<defs>
  <circle id="rim" cx="0" cy="0" r="7"/>
  <circle id="rim2" cx="0" cy="0" r="3.5"/>
  <g id="zoomPlus">
    <use xlink:href="#rim" fill="#404040"><set attributeName="fill" to="#808080" begin="zoomplus.mouseover" end="zoomplus.mouseout"/></use>
    <path d="M-4,0h8M0,-4v8" fill="none" stroke="white" stroke-width="1.5" pointer-events="none"/>
  </g>
  <g id="zoomMin">
    <use xlink:href="#rim" fill="#404040"><set attributeName="fill" to="#808080" begin="zoomminus.mouseover" end="zoomminus.mouseout"/></use>
    <path d="M-4,0h8" fill="none" stroke="white" stroke-width="1.5" pointer-events="none"/>
  </g>
  <g id="arrowUp" transform="translate(30 24)">
    <use xlink:href="#rim"/>
    <path pointer-events="none" fill="none" stroke="white" stroke-width="1.5" d="M0,-3.0v7 M-2.5,-0.5L0,-3.0L2.5,-0.5"/>
  </g>
  <g id="arrowRight" transform="rotate(90) translate(36 -43)">
    <use xlink:href="#rim"/>
    <path pointer-events="none" fill="none" stroke="white" stroke-width="1.5" d="M0,-3.0v7 M-2.5,-0.5L0,-3.0L2.5,-0.5"/>
  </g>
  <g id="arrowDown" transform="rotate(180) translate(-30 -48)">
    <use xlink:href="#rim"/>
    <path pointer-events="none" fill="none" stroke="white" stroke-width="1.5" d="M0,-3.0v7 M-2.5,-0.5L0,-3.0L2.5,-0.5"/>
  </g>
  <g id="arrowLeft" transform="rotate(270) translate(-36 17)">
    <use xlink:href="#rim"/>
    <path pointer-events="none" fill="none" stroke="white" stroke-width="1.5" d="M0,-3.0v7 M-2.5,-0.5L0,-3.0L2.5,-0.5"/>
  </g>
  <g id="resetDef">
    <use xlink:href="#rim2" fill="#404040"><set attributeName="fill" to="#808080" begin="reset.mouseover" end="reset.mouseout"/></use>
  </g>
</defs>
<script type="application/ecmascript">
var viewWidth = 2040;
var viewHeight = 358;
var sectionId = 'dynsection-1';
</script>
<script type="application/ecmascript" xlink:href="svg.min.js"/>
<svg id="graph" class="graph">
<g id="viewport">
<title>source/motion/motor/motor_core.h</title>
<!-- Node1 -->
<g id="Node000001" class="node">
<title>Node1</title>
<g id="a_Node000001"><a xlink:title=" ">
<polygon fill="#999999" stroke="#666666" points="882.12,-349.75 764.12,-349.75 764.12,-316.25 882.12,-316.25 882.12,-349.75"/>
<text xml:space="preserve" text-anchor="start" x="772.12" y="-336.25" font-family="Helvetica,sans-Serif" font-size="10.00">source/motion/motor</text>
<text xml:space="preserve" text-anchor="middle" x="823.12" y="-323.5" font-family="Helvetica,sans-Serif" font-size="10.00">/motor_core.h</text>
</a>
</g>
</g>
<!-- Node2 -->
<g id="Node000002" class="node">
<title>Node2</title>
<g id="a_Node000002"><a xlink:href="application_8c.html" target="_top" xlink:title=" ">
<polygon fill="white" stroke="#666666" points="343.88,-198 230.38,-198 230.38,-177.25 343.88,-177.25 343.88,-198"/>
<text xml:space="preserve" text-anchor="middle" x="287.12" y="-184.5" font-family="Helvetica,sans-Serif" font-size="10.00">source/application.c</text>
</a>
</g>
</g>
<!-- Node1&#45;&gt;Node2 -->
<g id="edge1_Node000001_Node000002" class="edge">
<title>Node1&#45;&gt;Node2</title>
<g id="a_edge1_Node000001_Node000002"><a xlink:title=" ">
<path fill="none" stroke="#63b8ff" d="M752.61,-326.02C685.81,-319.14 583.18,-305.41 497.12,-280.25 423.25,-258.65 341.07,-217.36 305.35,-198.48"/>
<polygon fill="#63b8ff" stroke="#63b8ff" points="752.03,-329.48 762.33,-327 752.73,-322.52 752.03,-329.48"/>
</a>
</g>
</g>
<!-- Node3 -->
<g id="Node000003" class="node">
<title>Node3</title>
<g id="a_Node000003"><a xlink:href="grabber_8c.html" target="_top" xlink:title=" ">
<polygon fill="white" stroke="#666666" points="126.25,-122.12 0,-122.12 0,-88.62 126.25,-88.62 126.25,-122.12"/>
<text xml:space="preserve" text-anchor="start" x="8" y="-108.62" font-family="Helvetica,sans-Serif" font-size="10.00">source/motion/grabber</text>
<text xml:space="preserve" text-anchor="middle" x="63.12" y="-95.88" font-family="Helvetica,sans-Serif" font-size="10.00">/grabber.c</text>
</a>
</g>
</g>
<!-- Node1&#45;&gt;Node3 -->
<g id="edge2_Node000001_Node000003" class="edge">
<title>Node1&#45;&gt;Node3</title>
<g id="a_edge2_Node000001_Node000003"><a xlink:title=" ">
<path fill="none" stroke="#63b8ff" d="M752.49,-330.96C602.21,-328.03 255.41,-317.36 144.12,-280.25 89.62,-262.08 62.75,-261.13 35.12,-210.75 19.34,-181.96 38.22,-143.76 51.75,-122.46"/>
<polygon fill="#63b8ff" stroke="#63b8ff" points="752.25,-334.45 762.32,-331.14 752.38,-327.45 752.25,-334.45"/>
</a>
</g>
</g>
<!-- Node4 -->
<g id="Node000004" class="node">
<title>Node4</title>
<g id="a_Node000004"><a xlink:href="motor__homing_8c.html" target="_top" xlink:title=" ">
<polygon fill="white" stroke="#666666" points="911.88,-122.12 786.38,-122.12 786.38,-88.62 911.88,-88.62 911.88,-122.12"/>
<text xml:space="preserve" text-anchor="start" x="794.38" y="-108.62" font-family="Helvetica,sans-Serif" font-size="10.00">source/motion/homing</text>
<text xml:space="preserve" text-anchor="middle" x="849.12" y="-95.88" font-family="Helvetica,sans-Serif" font-size="10.00">/motor_homing.c</text>
</a>
</g>
</g>
<!-- Node1&#45;&gt;Node4 -->
<g id="edge3_Node000001_Node000004" class="edge">
<title>Node1&#45;&gt;Node4</title>
<g id="a_edge3_Node000001_Node000004"><a xlink:title=" ">
<path fill="none" stroke="#63b8ff" d="M826.29,-304.52C831.78,-256.93 842.88,-160.6 847.27,-122.45"/>
<polygon fill="#63b8ff" stroke="#63b8ff" points="822.84,-303.94 825.17,-314.27 829.79,-304.74 822.84,-303.94"/>
</a>
</g>
</g>
<!-- Node5 -->
<g id="Node000005" class="node">
<title>Node5</title>
<g id="a_Node000005"><a xlink:href="motor__convert_8h.html" target="_top" xlink:title=" ">
<polygon fill="white" stroke="#666666" points="1212.12,-204.38 1094.12,-204.38 1094.12,-170.88 1212.12,-170.88 1212.12,-204.38"/>
<text xml:space="preserve" text-anchor="start" x="1102.12" y="-190.88" font-family="Helvetica,sans-Serif" font-size="10.00">source/motion/motor</text>
<text xml:space="preserve" text-anchor="middle" x="1153.12" y="-178.12" font-family="Helvetica,sans-Serif" font-size="10.00">/motor_convert.h</text>
</a>
</g>
</g>
<!-- Node1&#45;&gt;Node5 -->
<g id="edge4_Node000001_Node000005" class="edge">
<title>Node1&#45;&gt;Node5</title>
<g id="a_edge4_Node000001_Node000005"><a xlink:title=" ">
<path fill="none" stroke="#63b8ff" d="M893.98,-329.93C947.36,-325.54 1020.58,-313.31 1076.12,-280.25 1107.37,-261.65 1131.88,-225.67 1144.26,-204.75"/>
<polygon fill="#63b8ff" stroke="#63b8ff" points="893.79,-326.43 884.08,-330.66 894.31,-333.41 893.79,-326.43"/>
</a>
</g>
</g>
<!-- Node9 -->
<g id="Node000009" class="node">
<title>Node9</title>
<g id="a_Node000009"><a xlink:href="motorCmd_8c.html" target="_top" xlink:title=" ">
<polygon fill="white" stroke="#666666" points="1079.75,-115.75 968.5,-115.75 968.5,-95 1079.75,-95 1079.75,-115.75"/>
<text xml:space="preserve" text-anchor="middle" x="1024.12" y="-102.25" font-family="Helvetica,sans-Serif" font-size="10.00">source/motorCmd.c</text>
</a>
</g>
</g>
<!-- Node1&#45;&gt;Node9 -->
<g id="edge50_Node000001_Node000009" class="edge">
<title>Node1&#45;&gt;Node9</title>
<g id="a_edge50_Node000001_Node000009"><a xlink:title=" ">
<path fill="none" stroke="#63b8ff" d="M891.18,-311.98C939.09,-293.93 999.73,-262.16 1029.12,-210.75 1046.68,-180.04 1034.59,-135.55 1027.83,-116.1"/>
<polygon fill="#63b8ff" stroke="#63b8ff" points="890.17,-308.63 881.97,-315.33 892.56,-315.21 890.17,-308.63"/>
</a>
</g>
</g>
<!-- Node10 -->
<g id="Node000010" class="node">
<title>Node10</title>
<g id="a_Node000010"><a xlink:href="motor__core_8c.html" target="_top" xlink:title=" ">
<polygon fill="white" stroke="#666666" points="2032.12,-122.12 1914.12,-122.12 1914.12,-88.62 2032.12,-88.62 2032.12,-122.12"/>
<text xml:space="preserve" text-anchor="start" x="1922.12" y="-108.62" font-family="Helvetica,sans-Serif" font-size="10.00">source/motion/motor</text>
<text xml:space="preserve" text-anchor="middle" x="1973.12" y="-95.88" font-family="Helvetica,sans-Serif" font-size="10.00">/motor_core.c</text>
</a>
</g>
</g>
<!-- Node1&#45;&gt;Node10 -->
<g id="edge10_Node000001_Node000010" class="edge">
<title>Node1&#45;&gt;Node10</title>
<g id="a_edge10_Node000001_Node000010"><a xlink:title=" ">
<path fill="none" stroke="#63b8ff" d="M893.82,-329.22C1128.66,-319.35 1872.35,-282.61 1950.12,-210.75 1974.66,-188.08 1976.06,-145.69 1974.73,-122.52"/>
<polygon fill="#63b8ff" stroke="#63b8ff" points="893.72,-325.72 883.88,-329.64 894.01,-332.72 893.72,-325.72"/>
</a>
</g>
</g>
<!-- Node11 -->
<g id="Node000011" class="node">
<title>Node11</title>
<g id="a_Node000011"><a xlink:href="motor__init_8h.html" target="_top" xlink:title=" ">
<polygon fill="white" stroke="#666666" points="1533.12,-204.38 1415.12,-204.38 1415.12,-170.88 1533.12,-170.88 1533.12,-204.38"/>
<text xml:space="preserve" text-anchor="start" x="1423.12" y="-190.88" font-family="Helvetica,sans-Serif" font-size="10.00">source/motion/motor</text>
<text xml:space="preserve" text-anchor="middle" x="1474.12" y="-178.12" font-family="Helvetica,sans-Serif" font-size="10.00">/motor_init.h</text>
</a>
</g>
</g>
<!-- Node1&#45;&gt;Node11 -->
<g id="edge11_Node000001_Node000011" class="edge">
<title>Node1&#45;&gt;Node11</title>
<g id="a_edge11_Node000001_Node000011"><a xlink:title=" ">
<path fill="none" stroke="#63b8ff" d="M893.58,-329.46C1041.72,-323.6 1375.45,-307.53 1419.12,-280.25 1446.82,-262.95 1462.43,-226.13 1469.48,-204.81"/>
<polygon fill="#63b8ff" stroke="#63b8ff" points="893.76,-325.95 883.9,-329.84 894.03,-332.94 893.76,-325.95"/>
</a>
</g>
</g>
<!-- Node14 -->
<g id="Node000014" class="node">
<title>Node14</title>
<g id="a_Node000014"><a xlink:href="motor__internal_8h.html" target="_top" xlink:title=" ">
<polygon fill="white" stroke="#666666" points="1410.12,-280.25 1292.12,-280.25 1292.12,-246.75 1410.12,-246.75 1410.12,-280.25"/>
<text xml:space="preserve" text-anchor="start" x="1300.12" y="-266.75" font-family="Helvetica,sans-Serif" font-size="10.00">source/motion/motor</text>
<text xml:space="preserve" text-anchor="middle" x="1351.12" y="-254" font-family="Helvetica,sans-Serif" font-size="10.00">/motor_internal.h</text>
</a>
</g>
</g>
<!-- Node1&#45;&gt;Node14 -->
<g id="edge14_Node000001_Node000014" class="edge">
<title>Node1&#45;&gt;Node14</title>
<g id="a_edge14_Node000001_Node000014"><a xlink:title=" ">
<path fill="none" stroke="#63b8ff" d="M893.82,-322.96C998.73,-309.55 1193.77,-284.62 1291.73,-272.09"/>
<polygon fill="#63b8ff" stroke="#63b8ff" points="893.39,-319.49 883.91,-324.23 894.28,-326.43 893.39,-319.49"/>
</a>
</g>
</g>
<!-- Node16 -->
<g id="Node000016" class="node">
<title>Node16</title>
<g id="a_Node000016"><a xlink:href="scara__kinematics_8c.html" target="_top" xlink:title=" ">
<polygon fill="white" stroke="#666666" points="806.12,-39.88 634.12,-39.88 634.12,-6.38 806.12,-6.38 806.12,-39.88"/>
<text xml:space="preserve" text-anchor="start" x="642.12" y="-26.38" font-family="Helvetica,sans-Serif" font-size="10.00">source/motion/scara</text>
<text xml:space="preserve" text-anchor="middle" x="720.12" y="-13.62" font-family="Helvetica,sans-Serif" font-size="10.00">_kinematics/scara_kinematics.c</text>
</a>
</g>
</g>
<!-- Node1&#45;&gt;Node16 -->
<g id="edge36_Node000001_Node000016" class="edge">
<title>Node1&#45;&gt;Node16</title>
<g id="a_edge36_Node000001_Node000016"><a xlink:title=" ">
<path fill="none" stroke="#63b8ff" d="M815.38,-304.92C802.02,-258.8 773.23,-162.25 744.12,-82.25 738.9,-67.89 732.21,-51.85 727.22,-40.27"/>
<polygon fill="#63b8ff" stroke="#63b8ff" points="811.96,-305.68 818.09,-314.32 818.68,-303.74 811.96,-305.68"/>
</a>
</g>
</g>
<!-- Node17 -->
<g id="Node000017" class="node">
<title>Node17</title>
<g id="a_Node000017"><a xlink:href="motor__test_8c.html" target="_top" xlink:title=" ">
<polygon fill="white" stroke="#666666" points="372.5,-115.75 259.75,-115.75 259.75,-95 372.5,-95 372.5,-115.75"/>
<text xml:space="preserve" text-anchor="middle" x="316.12" y="-102.25" font-family="Helvetica,sans-Serif" font-size="10.00">source/motor_test.c</text>
</a>
</g>
</g>
<!-- Node1&#45;&gt;Node17 -->
<g id="edge56_Node000001_Node000017" class="edge">
<title>Node1&#45;&gt;Node17</title>
<g id="a_edge56_Node000001_Node000017"><a xlink:title=" ">
<path fill="none" stroke="#63b8ff" d="M752.35,-329.46C606.47,-322.47 280.96,-297.31 221.12,-210.75 209.44,-193.84 211.07,-182.43 221.12,-164.5 234.74,-140.21 263.1,-124.86 285.3,-116.07"/>
<polygon fill="#63b8ff" stroke="#63b8ff" points="752.13,-332.95 762.29,-329.91 752.46,-325.96 752.13,-332.95"/>
</a>
</g>
</g>
<!-- Node23 -->
<g id="Node000023" class="node">
<title>Node23</title>
<g id="a_Node000023"><a xlink:href="scara__kinematics_8h.html" target="_top" xlink:title=" ">
<polygon fill="white" stroke="#666666" points="678.5,-280.25 505.75,-280.25 505.75,-246.75 678.5,-246.75 678.5,-280.25"/>
<text xml:space="preserve" text-anchor="start" x="513.75" y="-266.75" font-family="Helvetica,sans-Serif" font-size="10.00">source/motion/scara</text>
<text xml:space="preserve" text-anchor="middle" x="592.12" y="-254" font-family="Helvetica,sans-Serif" font-size="10.00">_kinematics/scara_kinematics.h</text>
</a>
</g>
</g>
<!-- Node1&#45;&gt;Node23 -->
<g id="edge37_Node000001_Node000023" class="edge">
<title>Node1&#45;&gt;Node23</title>
<g id="a_edge37_Node000001_Node000023"><a xlink:title=" ">
<path fill="none" stroke="#63b8ff" d="M756.82,-312.63C722.18,-302.5 680.27,-290.26 647.4,-280.65"/>
<polygon fill="#63b8ff" stroke="#63b8ff" points="755.76,-315.96 766.34,-315.41 757.73,-309.24 755.76,-315.96"/>
</a>
</g>
</g>
<!-- Node28 -->
<g id="Node000028" class="node">
<title>Node28</title>
<g id="a_Node000028"><a xlink:href="motor__configs_8h.html" target="_top" xlink:title=" ">
<polygon fill="white" stroke="#666666" points="173.75,-198 44.5,-198 44.5,-177.25 173.75,-177.25 173.75,-198"/>
<text xml:space="preserve" text-anchor="middle" x="109.12" y="-184.5" font-family="Helvetica,sans-Serif" font-size="10.00">source/motor_configs.h</text>
</a>
</g>
</g>
<!-- Node1&#45;&gt;Node28 -->
<g id="edge51_Node000001_Node000028" class="edge">
<title>Node1&#45;&gt;Node28</title>
<g id="a_edge51_Node000001_Node000028"><a xlink:title=" ">
<path fill="none" stroke="#63b8ff" d="M752.51,-332.89C608.25,-333.64 285.15,-329.57 188.12,-280.25 151.43,-261.6 124.61,-217.8 114.06,-198.29"/>
<polygon fill="#63b8ff" stroke="#63b8ff" points="752.34,-336.39 762.32,-332.83 752.3,-329.39 752.34,-336.39"/>
</a>
</g>
</g>
<!-- Node5&#45;&gt;Node4 -->
<g id="edge5_Node000005_Node000004" class="edge">
<title>Node5&#45;&gt;Node4</title>
<g id="a_edge5_Node000005_Node000004"><a xlink:title=" ">
<path fill="none" stroke="#63b8ff" d="M1082.97,-168.1C1030.89,-154.36 960.55,-135.79 910.66,-122.62"/>
<polygon fill="#63b8ff" stroke="#63b8ff" points="1081.76,-171.41 1092.33,-170.58 1083.55,-164.64 1081.76,-171.41"/>
</a>
</g>
</g>
<!-- Node6 -->
<g id="Node000006" class="node">
<title>Node6</title>
<g id="a_Node000006"><a xlink:href="motor__convert_8c.html" target="_top" xlink:title=" ">
<polygon fill="white" stroke="#666666" points="1216.12,-122.12 1098.12,-122.12 1098.12,-88.62 1216.12,-88.62 1216.12,-122.12"/>
<text xml:space="preserve" text-anchor="start" x="1106.12" y="-108.62" font-family="Helvetica,sans-Serif" font-size="10.00">source/motion/motor</text>
<text xml:space="preserve" text-anchor="middle" x="1157.12" y="-95.88" font-family="Helvetica,sans-Serif" font-size="10.00">/motor_convert.c</text>
</a>
</g>
</g>
<!-- Node5&#45;&gt;Node6 -->
<g id="edge6_Node000005_Node000006" class="edge">
<title>Node5&#45;&gt;Node6</title>
<g id="a_edge6_Node000005_Node000006"><a xlink:title=" ">
<path fill="none" stroke="#63b8ff" d="M1154.5,-159C1155.11,-146.86 1155.8,-133.03 1156.32,-122.59"/>
<polygon fill="#63b8ff" stroke="#63b8ff" points="1151.01,-158.71 1154.01,-168.87 1158,-159.06 1151.01,-158.71"/>
</a>
</g>
</g>
<!-- Node7 -->
<g id="Node000007" class="node">
<title>Node7</title>
<g id="a_Node000007"><a xlink:href="motor__motion_8c.html" target="_top" xlink:title=" ">
<polygon fill="white" stroke="#666666" points="1488.12,-122.12 1370.12,-122.12 1370.12,-88.62 1488.12,-88.62 1488.12,-122.12"/>
<text xml:space="preserve" text-anchor="start" x="1378.12" y="-108.62" font-family="Helvetica,sans-Serif" font-size="10.00">source/motion/motor</text>
<text xml:space="preserve" text-anchor="middle" x="1429.12" y="-95.88" font-family="Helvetica,sans-Serif" font-size="10.00">/motor_motion.c</text>
</a>
</g>
</g>
<!-- Node5&#45;&gt;Node7 -->
<g id="edge7_Node000005_Node000007" class="edge">
<title>Node5&#45;&gt;Node7</title>
<g id="a_edge7_Node000005_Node000007"><a xlink:title=" ">
<path fill="none" stroke="#63b8ff" d="M1223.57,-167.73C1263.95,-156.7 1315.52,-142.28 1361.12,-128.5 1367.3,-126.63 1373.78,-124.61 1380.17,-122.57"/>
<polygon fill="#63b8ff" stroke="#63b8ff" points="1222.68,-164.35 1213.95,-170.35 1224.52,-171.1 1222.68,-164.35"/>
</a>
</g>
</g>
<!-- Node8 -->
<g id="Node000008" class="node">
<title>Node8</title>
<g id="a_Node000008"><a xlink:href="motor__sync_8c.html" target="_top" xlink:title=" ">
<polygon fill="white" stroke="#666666" points="1352.12,-122.12 1234.12,-122.12 1234.12,-88.62 1352.12,-88.62 1352.12,-122.12"/>
<text xml:space="preserve" text-anchor="start" x="1242.12" y="-108.62" font-family="Helvetica,sans-Serif" font-size="10.00">source/motion/motor</text>
<text xml:space="preserve" text-anchor="middle" x="1293.12" y="-95.88" font-family="Helvetica,sans-Serif" font-size="10.00">/motor_sync.c</text>
</a>
</g>
</g>
<!-- Node5&#45;&gt;Node8 -->
<g id="edge8_Node000005_Node000008" class="edge">
<title>Node5&#45;&gt;Node8</title>
<g id="a_edge8_Node000005_Node000008"><a xlink:title=" ">
<path fill="none" stroke="#63b8ff" d="M1191.33,-164.73C1214.55,-151.42 1243.69,-134.71 1264.84,-122.59"/>
<polygon fill="#63b8ff" stroke="#63b8ff" points="1189.7,-161.62 1182.77,-169.63 1193.19,-167.7 1189.7,-161.62"/>
</a>
</g>
</g>
<!-- Node5&#45;&gt;Node9 -->
<g id="edge9_Node000005_Node000009" class="edge">
<title>Node5&#45;&gt;Node9</title>
<g id="a_edge9_Node000005_Node000009"><a xlink:title=" ">
<path fill="none" stroke="#63b8ff" d="M1117.31,-164.34C1091.8,-148.47 1058.77,-127.93 1039.66,-116.04"/>
<polygon fill="#63b8ff" stroke="#63b8ff" points="1115.39,-167.28 1125.73,-169.59 1119.09,-161.33 1115.39,-167.28"/>
</a>
</g>
</g>
<!-- Node12 -->
<g id="Node000012" class="node">
<title>Node12</title>
<g id="a_Node000012"><a xlink:href="motor__init_8c.html" target="_top" xlink:title=" ">
<polygon fill="white" stroke="#666666" points="1624.12,-122.12 1506.12,-122.12 1506.12,-88.62 1624.12,-88.62 1624.12,-122.12"/>
<text xml:space="preserve" text-anchor="start" x="1514.12" y="-108.62" font-family="Helvetica,sans-Serif" font-size="10.00">source/motion/motor</text>
<text xml:space="preserve" text-anchor="middle" x="1565.12" y="-95.88" font-family="Helvetica,sans-Serif" font-size="10.00">/motor_init.c</text>
</a>
</g>
</g>
<!-- Node11&#45;&gt;Node12 -->
<g id="edge12_Node000011_Node000012" class="edge">
<title>Node11&#45;&gt;Node12</title>
<g id="a_edge12_Node000011_Node000012"><a xlink:title=" ">
<path fill="none" stroke="#63b8ff" d="M1500.8,-163.1C1515.57,-150.08 1533.55,-134.22 1546.74,-122.59"/>
<polygon fill="#63b8ff" stroke="#63b8ff" points="1498.86,-160.14 1493.68,-169.38 1503.49,-165.39 1498.86,-160.14"/>
</a>
</g>
</g>
<!-- Node13 -->
<g id="Node000013" class="node">
<title>Node13</title>
<g id="a_Node000013"><a xlink:href="motor__process_8c.html" target="_top" xlink:title=" ">
<polygon fill="white" stroke="#666666" points="1760.12,-122.12 1642.12,-122.12 1642.12,-88.62 1760.12,-88.62 1760.12,-122.12"/>
<text xml:space="preserve" text-anchor="start" x="1650.12" y="-108.62" font-family="Helvetica,sans-Serif" font-size="10.00">source/motion/motor</text>
<text xml:space="preserve" text-anchor="middle" x="1701.12" y="-95.88" font-family="Helvetica,sans-Serif" font-size="10.00">/motor_process.c</text>
</a>
</g>
</g>
<!-- Node11&#45;&gt;Node13 -->
<g id="edge13_Node000011_Node000013" class="edge">
<title>Node11&#45;&gt;Node13</title>
<g id="a_edge13_Node000011_Node000013"><a xlink:title=" ">
<path fill="none" stroke="#63b8ff" d="M1530.57,-166.67C1569.02,-153.08 1619.28,-135.31 1655.26,-122.59"/>
<polygon fill="#63b8ff" stroke="#63b8ff" points="1529.75,-163.25 1521.49,-169.88 1532.08,-169.85 1529.75,-163.25"/>
</a>
</g>
</g>
<!-- Node14&#45;&gt;Node6 -->
<g id="edge20_Node000014_Node000006" class="edge">
<title>Node14&#45;&gt;Node6</title>
<g id="a_edge20_Node000014_Node000006"><a xlink:title=" ">
<path fill="none" stroke="#63b8ff" d="M1313.1,-240.27C1299.19,-231.6 1283.57,-221.24 1270.12,-210.75 1246.51,-192.33 1243.1,-184.85 1221.12,-164.5 1205.71,-150.22 1188.01,-134.18 1175.14,-122.57"/>
<polygon fill="#63b8ff" stroke="#63b8ff" points="1311.23,-243.22 1321.59,-245.46 1314.89,-237.25 1311.23,-243.22"/>
</a>
</g>
</g>
<!-- Node14&#45;&gt;Node11 -->
<g id="edge21_Node000014_Node000011" class="edge">
<title>Node14&#45;&gt;Node11</title>
<g id="a_edge21_Node000014_Node000011"><a xlink:title=" ">
<path fill="none" stroke="#63b8ff" d="M1387.96,-240.37C1407,-228.94 1429.82,-215.23 1447.2,-204.8"/>
<polygon fill="#63b8ff" stroke="#63b8ff" points="1386.19,-237.36 1379.42,-245.51 1389.79,-243.36 1386.19,-237.36"/>
</a>
</g>
</g>
<!-- Node15 -->
<g id="Node000015" class="node">
<title>Node15</title>
<g id="a_Node000015"><a xlink:href="motor__homing_8h.html" target="_top" xlink:title=" ">
<polygon fill="white" stroke="#666666" points="995.88,-204.38 870.38,-204.38 870.38,-170.88 995.88,-170.88 995.88,-204.38"/>
<text xml:space="preserve" text-anchor="start" x="878.38" y="-190.88" font-family="Helvetica,sans-Serif" font-size="10.00">source/motion/homing</text>
<text xml:space="preserve" text-anchor="middle" x="933.12" y="-178.12" font-family="Helvetica,sans-Serif" font-size="10.00">/motor_homing.h</text>
</a>
</g>
</g>
<!-- Node14&#45;&gt;Node15 -->
<g id="edge15_Node000014_Node000015" class="edge">
<title>Node14&#45;&gt;Node15</title>
<g id="a_edge15_Node000014_Node000015"><a xlink:title=" ">
<path fill="none" stroke="#63b8ff" d="M1280.78,-250.07C1201.15,-235.99 1072.59,-213.27 996.12,-199.76"/>
<polygon fill="#63b8ff" stroke="#63b8ff" points="1279.73,-253.44 1290.19,-251.73 1280.95,-246.54 1279.73,-253.44"/>
</a>
</g>
</g>
<!-- Node18 -->
<g id="Node000018" class="node">
<title>Node18</title>
<g id="a_Node000018"><a xlink:href="motor__motion_8h.html" target="_top" xlink:title=" ">
<polygon fill="white" stroke="#666666" points="1669.12,-204.38 1551.12,-204.38 1551.12,-170.88 1669.12,-170.88 1669.12,-204.38"/>
<text xml:space="preserve" text-anchor="start" x="1559.12" y="-190.88" font-family="Helvetica,sans-Serif" font-size="10.00">source/motion/motor</text>
<text xml:space="preserve" text-anchor="middle" x="1610.12" y="-178.12" font-family="Helvetica,sans-Serif" font-size="10.00">/motor_motion.h</text>
</a>
</g>
</g>
<!-- Node14&#45;&gt;Node18 -->
<g id="edge22_Node000014_Node000018" class="edge">
<title>Node14&#45;&gt;Node18</title>
<g id="a_edge22_Node000014_Node000018"><a xlink:title=" ">
<path fill="none" stroke="#63b8ff" d="M1421.23,-244.4C1457.45,-234.83 1502.29,-222.62 1542.12,-210.75 1548.31,-208.91 1554.79,-206.9 1561.19,-204.87"/>
<polygon fill="#63b8ff" stroke="#63b8ff" points="1420.52,-240.97 1411.74,-246.9 1422.3,-247.74 1420.52,-240.97"/>
</a>
</g>
</g>
<!-- Node20 -->
<g id="Node000020" class="node">
<title>Node20</title>
<g id="a_Node000020"><a xlink:href="motor__process_8h.html" target="_top" xlink:title=" ">
<polygon fill="white" stroke="#666666" points="1941.12,-204.38 1823.12,-204.38 1823.12,-170.88 1941.12,-170.88 1941.12,-204.38"/>
<text xml:space="preserve" text-anchor="start" x="1831.12" y="-190.88" font-family="Helvetica,sans-Serif" font-size="10.00">source/motion/motor</text>
<text xml:space="preserve" text-anchor="middle" x="1882.12" y="-178.12" font-family="Helvetica,sans-Serif" font-size="10.00">/motor_process.h</text>
</a>
</g>
</g>
<!-- Node14&#45;&gt;Node20 -->
<g id="edge27_Node000014_Node000020" class="edge">
<title>Node14&#45;&gt;Node20</title>
<g id="a_edge27_Node000014_Node000020"><a xlink:title=" ">
<path fill="none" stroke="#63b8ff" d="M1421.91,-259.06C1513.36,-253.61 1677.09,-240.38 1814.12,-210.75 1821.53,-209.15 1829.26,-207.06 1836.75,-204.79"/>
<polygon fill="#63b8ff" stroke="#63b8ff" points="1421.87,-255.56 1412.09,-259.64 1422.28,-262.55 1421.87,-255.56"/>
</a>
</g>
</g>
<!-- Node21 -->
<g id="Node000021" class="node">
<title>Node21</title>
<g id="a_Node000021"><a xlink:href="motor__sync_8h.html" target="_top" xlink:title=" ">
<polygon fill="white" stroke="#666666" points="1397.12,-204.38 1279.12,-204.38 1279.12,-170.88 1397.12,-170.88 1397.12,-204.38"/>
<text xml:space="preserve" text-anchor="start" x="1287.12" y="-190.88" font-family="Helvetica,sans-Serif" font-size="10.00">source/motion/motor</text>
<text xml:space="preserve" text-anchor="middle" x="1338.12" y="-178.12" font-family="Helvetica,sans-Serif" font-size="10.00">/motor_sync.h</text>
</a>
</g>
</g>
<!-- Node14&#45;&gt;Node21 -->
<g id="edge30_Node000014_Node000021" class="edge">
<title>Node14&#45;&gt;Node21</title>
<g id="a_edge30_Node000014_Node000021"><a xlink:title=" ">
<path fill="none" stroke="#63b8ff" d="M1346.36,-235.45C1344.54,-225.09 1342.52,-213.62 1340.94,-204.62"/>
<polygon fill="#63b8ff" stroke="#63b8ff" points="1342.86,-235.74 1348.04,-244.98 1349.76,-234.52 1342.86,-235.74"/>
</a>
</g>
</g>
<!-- Node22 -->
<g id="Node000022" class="node">
<title>Node22</title>
<g id="a_Node000022"><a xlink:href="motor__tmc_8h.html" target="_top" xlink:title=" ">
<polygon fill="white" stroke="#666666" points="1805.12,-204.38 1687.12,-204.38 1687.12,-170.88 1805.12,-170.88 1805.12,-204.38"/>
<text xml:space="preserve" text-anchor="start" x="1695.12" y="-190.88" font-family="Helvetica,sans-Serif" font-size="10.00">source/motion/motor</text>
<text xml:space="preserve" text-anchor="middle" x="1746.12" y="-178.12" font-family="Helvetica,sans-Serif" font-size="10.00">/motor_tmc.h</text>
</a>
</g>
</g>
<!-- Node14&#45;&gt;Node22 -->
<g id="edge33_Node000014_Node000022" class="edge">
<title>Node14&#45;&gt;Node22</title>
<g id="a_edge33_Node000014_Node000022"><a xlink:title=" ">
<path fill="none" stroke="#63b8ff" d="M1421.65,-254.6C1488.31,-246.37 1590.82,-231.72 1678.12,-210.75 1685.13,-209.07 1692.45,-207.01 1699.58,-204.84"/>
<polygon fill="#63b8ff" stroke="#63b8ff" points="1421.46,-251.1 1411.95,-255.78 1422.3,-258.05 1421.46,-251.1"/>
</a>
</g>
</g>
<!-- Node15&#45;&gt;Node4 -->
<g id="edge16_Node000015_Node000004" class="edge">
<title>Node15&#45;&gt;Node4</title>
<g id="a_edge16_Node000015_Node000004"><a xlink:title=" ">
<path fill="none" stroke="#63b8ff" d="M908.12,-162.73C894.56,-149.78 878.16,-134.11 866.1,-122.59"/>
<polygon fill="#63b8ff" stroke="#63b8ff" points="905.38,-164.96 915.03,-169.34 910.22,-159.9 905.38,-164.96"/>
</a>
</g>
</g>
<!-- Node15&#45;&gt;Node9 -->
<g id="edge18_Node000015_Node000009" class="edge">
<title>Node15&#45;&gt;Node9</title>
<g id="a_edge18_Node000015_Node000009"><a xlink:title=" ">
<path fill="none" stroke="#63b8ff" d="M959.84,-163.07C977.62,-147.39 1000.05,-127.61 1013.17,-116.04"/>
<polygon fill="#63b8ff" stroke="#63b8ff" points="957.86,-160.14 952.68,-169.38 962.49,-165.39 957.86,-160.14"/>
</a>
</g>
</g>
<!-- Node15&#45;&gt;Node16 -->
<g id="edge17_Node000015_Node000016" class="edge">
<title>Node15&#45;&gt;Node16</title>
<g id="a_edge17_Node000015_Node000016"><a xlink:title=" ">
<path fill="none" stroke="#63b8ff" d="M937.64,-159.62C939.9,-136.43 939.08,-103.48 921.12,-82.25 893.04,-49.03 847.25,-34.17 806.46,-27.77"/>
<polygon fill="#63b8ff" stroke="#63b8ff" points="934.2,-158.88 936.43,-169.24 941.15,-159.76 934.2,-158.88"/>
</a>
</g>
</g>
<!-- Node15&#45;&gt;Node17 -->
<g id="edge19_Node000015_Node000017" class="edge">
<title>Node15&#45;&gt;Node17</title>
<g id="a_edge19_Node000015_Node000017"><a xlink:title=" ">
<path fill="none" stroke="#63b8ff" d="M858.83,-177.2C769.25,-165.8 614.14,-145.97 481.12,-128.5 445.02,-123.76 404.48,-118.32 372.63,-114.03"/>
<polygon fill="#63b8ff" stroke="#63b8ff" points="858.36,-180.66 868.73,-178.45 859.25,-173.72 858.36,-180.66"/>
</a>
</g>
</g>
<!-- Node18&#45;&gt;Node7 -->
<g id="edge24_Node000018_Node000007" class="edge">
<title>Node18&#45;&gt;Node7</title>
<g id="a_edge24_Node000018_Node000007"><a xlink:title=" ">
<path fill="none" stroke="#63b8ff" d="M1563.14,-165.79C1532.75,-152.32 1493.78,-135.04 1465.7,-122.59"/>
<polygon fill="#63b8ff" stroke="#63b8ff" points="1561.55,-168.92 1572.11,-169.77 1564.39,-162.52 1561.55,-168.92"/>
</a>
</g>
</g>
<!-- Node18&#45;&gt;Node10 -->
<g id="edge23_Node000018_Node000010" class="edge">
<title>Node18&#45;&gt;Node10</title>
<g id="a_edge23_Node000018_Node000010"><a xlink:title=" ">
<path fill="none" stroke="#63b8ff" d="M1667.45,-167.27C1671.04,-166.28 1674.62,-165.34 1678.12,-164.5 1777.45,-140.62 1805.8,-152.38 1905.12,-128.5 1912.13,-126.82 1919.45,-124.76 1926.58,-122.59"/>
<polygon fill="#63b8ff" stroke="#63b8ff" points="1666.75,-163.83 1658.12,-169.99 1668.7,-170.55 1666.75,-163.83"/>
</a>
</g>
</g>
<!-- Node18&#45;&gt;Node13 -->
<g id="edge25_Node000018_Node000013" class="edge">
<title>Node18&#45;&gt;Node13</title>
<g id="a_edge25_Node000018_Node000013"><a xlink:title=" ">
<path fill="none" stroke="#63b8ff" d="M1636.8,-163.1C1651.57,-150.08 1669.55,-134.22 1682.74,-122.59"/>
<polygon fill="#63b8ff" stroke="#63b8ff" points="1634.86,-160.14 1629.68,-169.38 1639.49,-165.39 1634.86,-160.14"/>
</a>
</g>
</g>
<!-- Node19 -->
<g id="Node000019" class="node">
<title>Node19</title>
<g id="a_Node000019"><a xlink:href="motor__tmc_8c.html" target="_top" xlink:title=" ">
<polygon fill="white" stroke="#666666" points="1896.12,-122.12 1778.12,-122.12 1778.12,-88.62 1896.12,-88.62 1896.12,-122.12"/>
<text xml:space="preserve" text-anchor="start" x="1786.12" y="-108.62" font-family="Helvetica,sans-Serif" font-size="10.00">source/motion/motor</text>
<text xml:space="preserve" text-anchor="middle" x="1837.12" y="-95.88" font-family="Helvetica,sans-Serif" font-size="10.00">/motor_tmc.c</text>
</a>
</g>
</g>
<!-- Node18&#45;&gt;Node19 -->
<g id="edge26_Node000018_Node000019" class="edge">
<title>Node18&#45;&gt;Node19</title>
<g id="a_edge26_Node000018_Node000019"><a xlink:title=" ">
<path fill="none" stroke="#63b8ff" d="M1666.57,-166.67C1705.02,-153.08 1755.28,-135.31 1791.26,-122.59"/>
<polygon fill="#63b8ff" stroke="#63b8ff" points="1665.75,-163.25 1657.49,-169.88 1668.08,-169.85 1665.75,-163.25"/>
</a>
</g>
</g>
<!-- Node20&#45;&gt;Node10 -->
<g id="edge28_Node000020_Node000010" class="edge">
<title>Node20&#45;&gt;Node10</title>
<g id="a_edge28_Node000020_Node000010"><a xlink:title=" ">
<path fill="none" stroke="#63b8ff" d="M1908.8,-163.1C1923.57,-150.08 1941.55,-134.22 1954.74,-122.59"/>
<polygon fill="#63b8ff" stroke="#63b8ff" points="1906.86,-160.14 1901.68,-169.38 1911.49,-165.39 1906.86,-160.14"/>
</a>
</g>
</g>
<!-- Node20&#45;&gt;Node13 -->
<g id="edge29_Node000020_Node000013" class="edge">
<title>Node20&#45;&gt;Node13</title>
<g id="a_edge29_Node000020_Node000013"><a xlink:title=" ">
<path fill="none" stroke="#63b8ff" d="M1835.14,-165.79C1804.75,-152.32 1765.78,-135.04 1737.7,-122.59"/>
<polygon fill="#63b8ff" stroke="#63b8ff" points="1833.55,-168.92 1844.11,-169.77 1836.39,-162.52 1833.55,-168.92"/>
</a>
</g>
</g>
<!-- Node21&#45;&gt;Node8 -->
<g id="edge32_Node000021_Node000008" class="edge">
<title>Node21&#45;&gt;Node8</title>
<g id="a_edge32_Node000021_Node000008"><a xlink:title=" ">
<path fill="none" stroke="#63b8ff" d="M1323.48,-160.51C1316.48,-148.02 1308.31,-133.46 1302.22,-122.59"/>
<polygon fill="#63b8ff" stroke="#63b8ff" points="1320.33,-162.05 1328.28,-169.07 1326.44,-158.63 1320.33,-162.05"/>
</a>
</g>
</g>
<!-- Node21&#45;&gt;Node13 -->
<g id="edge31_Node000021_Node000013" class="edge">
<title>Node21&#45;&gt;Node13</title>
<g id="a_edge31_Node000021_Node000013"><a xlink:title=" ">
<path fill="none" stroke="#63b8ff" d="M1395.45,-167.27C1399.04,-166.28 1402.62,-165.34 1406.12,-164.5 1505.45,-140.62 1533.8,-152.38 1633.12,-128.5 1640.13,-126.82 1647.45,-124.76 1654.58,-122.59"/>
<polygon fill="#63b8ff" stroke="#63b8ff" points="1394.75,-163.83 1386.12,-169.99 1396.7,-170.55 1394.75,-163.83"/>
</a>
</g>
</g>
<!-- Node22&#45;&gt;Node13 -->
<g id="edge34_Node000022_Node000013" class="edge">
<title>Node22&#45;&gt;Node13</title>
<g id="a_edge34_Node000022_Node000013"><a xlink:title=" ">
<path fill="none" stroke="#63b8ff" d="M1731.48,-160.51C1724.48,-148.02 1716.31,-133.46 1710.22,-122.59"/>
<polygon fill="#63b8ff" stroke="#63b8ff" points="1728.33,-162.05 1736.28,-169.07 1734.44,-158.63 1728.33,-162.05"/>
</a>
</g>
</g>
<!-- Node22&#45;&gt;Node19 -->
<g id="edge35_Node000022_Node000019" class="edge">
<title>Node22&#45;&gt;Node19</title>
<g id="a_edge35_Node000022_Node000019"><a xlink:title=" ">
<path fill="none" stroke="#63b8ff" d="M1772.8,-163.1C1787.57,-150.08 1805.55,-134.22 1818.74,-122.59"/>
<polygon fill="#63b8ff" stroke="#63b8ff" points="1770.86,-160.14 1765.68,-169.38 1775.49,-165.39 1770.86,-160.14"/>
</a>
</g>
</g>
<!-- Node23&#45;&gt;Node2 -->
<g id="edge38_Node000023_Node000002" class="edge">
<title>Node23&#45;&gt;Node2</title>
<g id="a_edge38_Node000023_Node000002"><a xlink:title=" ">
<path fill="none" stroke="#63b8ff" d="M499.69,-243.94C456.48,-234.78 404.45,-223.07 358.12,-210.75 344.4,-207.1 329.36,-202.5 316.67,-198.44"/>
<polygon fill="#63b8ff" stroke="#63b8ff" points="498.78,-247.32 509.29,-245.96 500.22,-240.47 498.78,-247.32"/>
</a>
</g>
</g>
<!-- Node23&#45;&gt;Node9 -->
<g id="edge47_Node000023_Node000009" class="edge">
<title>Node23&#45;&gt;Node9</title>
<g id="a_edge47_Node000023_Node000009"><a xlink:title=" ">
<path fill="none" stroke="#63b8ff" d="M690.18,-263.14C797.79,-261.67 961.14,-252.36 1005.12,-210.75 1031.62,-185.69 1028.49,-136.96 1025.72,-116.16"/>
<polygon fill="#63b8ff" stroke="#63b8ff" points="690.44,-259.63 680.48,-263.25 690.52,-266.63 690.44,-259.63"/>
</a>
</g>
</g>
<!-- Node23&#45;&gt;Node16 -->
<g id="edge39_Node000023_Node000016" class="edge">
<title>Node23&#45;&gt;Node16</title>
<g id="a_edge39_Node000023_Node000016"><a xlink:title=" ">
<path fill="none" stroke="#63b8ff" d="M689.36,-249.92C711.85,-242.23 733.24,-230.03 747.12,-210.75 759.14,-194.07 749.08,-184.96 747.12,-164.5 742.77,-118.79 730.61,-65.84 724.2,-39.98"/>
<polygon fill="#63b8ff" stroke="#63b8ff" points="688.58,-246.5 680.06,-252.8 690.65,-253.19 688.58,-246.5"/>
</a>
</g>
</g>
<!-- Node23&#45;&gt;Node17 -->
<g id="edge48_Node000023_Node000017" class="edge">
<title>Node23&#45;&gt;Node17</title>
<g id="a_edge48_Node000023_Node000017"><a xlink:title=" ">
<path fill="none" stroke="#63b8ff" d="M494.39,-249.84C461.21,-242.24 425.21,-230.12 396.12,-210.75 376.74,-197.84 337.45,-139.23 322.29,-115.95"/>
<polygon fill="#63b8ff" stroke="#63b8ff" points="493.53,-253.23 504.04,-251.92 495.01,-246.39 493.53,-253.23"/>
</a>
</g>
</g>
<!-- Node24 -->
<g id="Node000024" class="node">
<title>Node24</title>
<g id="a_Node000024"><a xlink:href="scara__kinematics__internal_8h.html" target="_top" xlink:title=" ">
<polygon fill="white" stroke="#666666" points="738,-210.75 574.25,-210.75 574.25,-164.5 738,-164.5 738,-210.75"/>
<text xml:space="preserve" text-anchor="start" x="582.25" y="-197.25" font-family="Helvetica,sans-Serif" font-size="10.00">source/motion/scara</text>
<text xml:space="preserve" text-anchor="start" x="582.25" y="-184.5" font-family="Helvetica,sans-Serif" font-size="10.00">_kinematics/scara_kinematics</text>
<text xml:space="preserve" text-anchor="middle" x="656.12" y="-171.75" font-family="Helvetica,sans-Serif" font-size="10.00">_internal.h</text>
</a>
</g>
</g>
<!-- Node23&#45;&gt;Node24 -->
<g id="edge40_Node000023_Node000024" class="edge">
<title>Node23&#45;&gt;Node24</title>
<g id="a_edge40_Node000023_Node000024"><a xlink:title=" ">
<path fill="none" stroke="#63b8ff" d="M613.43,-237.9C620.94,-229.24 629.34,-219.55 636.68,-211.07"/>
<polygon fill="#63b8ff" stroke="#63b8ff" points="610.91,-235.48 607,-245.33 616.2,-240.06 610.91,-235.48"/>
</a>
</g>
</g>
<!-- Node25 -->
<g id="Node000025" class="node">
<title>Node25</title>
<g id="a_Node000025"><a xlink:href="scara__kinematics__process_8c.html" target="_top" xlink:title=" ">
<polygon fill="white" stroke="#666666" points="515,-46.25 351.25,-46.25 351.25,0 515,0 515,-46.25"/>
<text xml:space="preserve" text-anchor="start" x="359.25" y="-32.75" font-family="Helvetica,sans-Serif" font-size="10.00">source/motion/scara</text>
<text xml:space="preserve" text-anchor="start" x="359.25" y="-20" font-family="Helvetica,sans-Serif" font-size="10.00">_kinematics/scara_kinematics</text>
<text xml:space="preserve" text-anchor="middle" x="433.12" y="-7.25" font-family="Helvetica,sans-Serif" font-size="10.00">_process.c</text>
</a>
</g>
</g>
<!-- Node23&#45;&gt;Node25 -->
<g id="edge46_Node000023_Node000025" class="edge">
<title>Node23&#45;&gt;Node25</title>
<g id="a_edge46_Node000023_Node000025"><a xlink:title=" ">
<path fill="none" stroke="#63b8ff" d="M494.66,-252.45C469.32,-244.9 444.77,-232.14 429.12,-210.75 393.24,-161.71 412.07,-84.39 424.71,-46.53"/>
<polygon fill="#63b8ff" stroke="#63b8ff" points="493.52,-255.77 504.09,-254.99 495.34,-249.01 493.52,-255.77"/>
</a>
</g>
</g>
<!-- Node27 -->
<g id="Node000027" class="node">
<title>Node27</title>
<g id="a_Node000027"><a xlink:href="statemachine__helpers_8c.html" target="_top" xlink:title="Command parsing and helper implementations for the state machine.">
<polygon fill="white" stroke="#666666" points="556.12,-204.38 438.12,-204.38 438.12,-170.88 556.12,-170.88 556.12,-204.38"/>
<text xml:space="preserve" text-anchor="start" x="446.12" y="-190.88" font-family="Helvetica,sans-Serif" font-size="10.00">source/statemachine</text>
<text xml:space="preserve" text-anchor="middle" x="497.12" y="-178.12" font-family="Helvetica,sans-Serif" font-size="10.00">_helpers.c</text>
</a>
</g>
</g>
<!-- Node23&#45;&gt;Node27 -->
<g id="edge49_Node000023_Node000027" class="edge">
<title>Node23&#45;&gt;Node27</title>
<g id="a_edge49_Node000023_Node000027"><a xlink:title=" ">
<path fill="none" stroke="#63b8ff" d="M562.82,-239.71C548.21,-228.35 530.89,-214.88 517.7,-204.62"/>
<polygon fill="#63b8ff" stroke="#63b8ff" points="560.27,-242.17 570.32,-245.54 564.57,-236.64 560.27,-242.17"/>
</a>
</g>
</g>
<!-- Node24&#45;&gt;Node16 -->
<g id="edge41_Node000024_Node000016" class="edge">
<title>Node24&#45;&gt;Node16</title>
<g id="a_edge41_Node000024_Node000016"><a xlink:title=" ">
<path fill="none" stroke="#63b8ff" d="M669.16,-153.52C682.75,-119.02 703.48,-66.39 713.81,-40.16"/>
<polygon fill="#63b8ff" stroke="#63b8ff" points="665.99,-152.03 665.58,-162.62 672.5,-154.6 665.99,-152.03"/>
</a>
</g>
</g>
<!-- Node24&#45;&gt;Node25 -->
<g id="edge42_Node000024_Node000025" class="edge">
<title>Node24&#45;&gt;Node25</title>
<g id="a_edge42_Node000024_Node000025"><a xlink:title=" ">
<path fill="none" stroke="#63b8ff" d="M563.19,-162.96C528.47,-152.65 494.26,-140.26 481.12,-128.5 456.76,-106.68 443.91,-69.98 437.82,-46.42"/>
<polygon fill="#63b8ff" stroke="#63b8ff" points="561.93,-166.24 572.51,-165.67 563.89,-159.52 561.93,-166.24"/>
</a>
</g>
</g>
<!-- Node26 -->
<g id="Node000026" class="node">
<title>Node26</title>
<g id="a_Node000026"><a xlink:href="scara__kinematics__process_8h.html" target="_top" xlink:title=" ">
<polygon fill="white" stroke="#666666" points="654,-128.5 490.25,-128.5 490.25,-82.25 654,-82.25 654,-128.5"/>
<text xml:space="preserve" text-anchor="start" x="498.25" y="-115" font-family="Helvetica,sans-Serif" font-size="10.00">source/motion/scara</text>
<text xml:space="preserve" text-anchor="start" x="498.25" y="-102.25" font-family="Helvetica,sans-Serif" font-size="10.00">_kinematics/scara_kinematics</text>
<text xml:space="preserve" text-anchor="middle" x="572.12" y="-89.5" font-family="Helvetica,sans-Serif" font-size="10.00">_process.h</text>
</a>
</g>
</g>
<!-- Node24&#45;&gt;Node26 -->
<g id="edge43_Node000024_Node000026" class="edge">
<title>Node24&#45;&gt;Node26</title>
<g id="a_edge43_Node000024_Node000026"><a xlink:title=" ">
<path fill="none" stroke="#63b8ff" d="M624.57,-156.47C614.99,-147.33 604.64,-137.44 595.69,-128.89"/>
<polygon fill="#63b8ff" stroke="#63b8ff" points="621.98,-158.85 631.63,-163.23 626.82,-153.79 621.98,-158.85"/>
</a>
</g>
</g>
<!-- Node26&#45;&gt;Node16 -->
<g id="edge44_Node000026_Node000016" class="edge">
<title>Node26&#45;&gt;Node16</title>
<g id="a_edge44_Node000026_Node000016"><a xlink:title=" ">
<path fill="none" stroke="#63b8ff" d="M623.77,-76.37C646.11,-64.26 671.45,-50.52 690.53,-40.17"/>
<polygon fill="#63b8ff" stroke="#63b8ff" points="622.2,-73.24 615.08,-81.09 625.53,-79.4 622.2,-73.24"/>
</a>
</g>
</g>
<!-- Node26&#45;&gt;Node25 -->
<g id="edge45_Node000026_Node000025" class="edge">
<title>Node26&#45;&gt;Node25</title>
<g id="a_edge45_Node000026_Node000025"><a xlink:title=" ">
<path fill="none" stroke="#63b8ff" d="M523.35,-76.22C506.5,-66.49 487.86,-55.73 471.92,-46.52"/>
<polygon fill="#63b8ff" stroke="#63b8ff" points="521.31,-79.08 531.73,-81.05 524.81,-73.02 521.31,-79.08"/>
</a>
</g>
</g>
<!-- Node28&#45;&gt;Node3 -->
<g id="edge52_Node000028_Node000003" class="edge">
<title>Node28&#45;&gt;Node3</title>
<g id="a_edge52_Node000028_Node000003"><a xlink:title=" ">
<path fill="none" stroke="#63b8ff" d="M97.83,-166.91C89.98,-153.22 79.65,-135.21 72.31,-122.4"/>
<polygon fill="#63b8ff" stroke="#63b8ff" points="94.72,-168.54 102.73,-175.47 100.8,-165.06 94.72,-168.54"/>
</a>
</g>
</g>
<!-- Node28&#45;&gt;Node4 -->
<g id="edge53_Node000028_Node000004" class="edge">
<title>Node28&#45;&gt;Node4</title>
<g id="a_edge53_Node000028_Node000004"><a xlink:title=" ">
<path fill="none" stroke="#63b8ff" d="M164.06,-174.48C182.16,-170.82 202.44,-167.1 221.12,-164.5 416.34,-137.36 467.01,-148.14 663.12,-128.5 704.06,-124.4 749.95,-118.95 785.91,-114.48"/>
<polygon fill="#63b8ff" stroke="#63b8ff" points="163.38,-171.04 154.3,-176.49 164.8,-177.9 163.38,-171.04"/>
</a>
</g>
</g>
<!-- Node28&#45;&gt;Node17 -->
<g id="edge55_Node000028_Node000017" class="edge">
<title>Node28&#45;&gt;Node17</title>
<g id="a_edge55_Node000028_Node000017"><a xlink:title=" ">
<path fill="none" stroke="#63b8ff" d="M145.02,-172.71C186.69,-156.56 254.36,-130.32 290.86,-116.17"/>
<polygon fill="#63b8ff" stroke="#63b8ff" points="143.98,-169.36 135.92,-176.24 146.51,-175.89 143.98,-169.36"/>
</a>
</g>
</g>
<!-- Node28&#45;&gt;Node25 -->
<g id="edge54_Node000028_Node000025" class="edge">
<title>Node28&#45;&gt;Node25</title>
<g id="a_edge54_Node000028_Node000025"><a xlink:title=" ">
<path fill="none" stroke="#63b8ff" d="M128.25,-169.37C154.33,-146.62 203.3,-106.63 251.12,-82.25 282.45,-66.28 319.04,-53.57 351.16,-44.16"/>
<polygon fill="#63b8ff" stroke="#63b8ff" points="126.03,-166.66 120.85,-175.91 130.66,-171.91 126.03,-166.66"/>
</a>
</g>
</g>
</g>
</svg>

<g id="navigator" transform="translate(0 0)" fill="#404254">
  <rect fill="#f2f5e9" fill-opacity="0.5" stroke="#606060" stroke-width=".5" x="0" y="0" width="60" height="60"/>
  <use id="zoomplus" xlink:href="#zoomPlus" x="17" y="9" onmousedown="handleZoom(evt,'in')"/>
  <use id="zoomminus" xlink:href="#zoomMin" x="42" y="9" onmousedown="handleZoom(evt,'out')"/>
  <use id="reset" xlink:href="#resetDef" x="30" y="36" onmousedown="handleReset()"/>
   <use id="arrowup" xlink:href="#arrowUp" x="0" y="0" onmousedown="handlePan(0,-1)"/>
  <use id="arrowright" xlink:href="#arrowRight" x="0" y="0" onmousedown="handlePan(1,0)"/>
  <use id="arrowdown" xlink:href="#arrowDown" x="0" y="0" onmousedown="handlePan(0,1)"/>
  <use id="arrowleft" xlink:href="#arrowLeft" x="0" y="0" onmousedown="handlePan(-1,0)"/>
</g>
<svg viewBox="0 0 15 15" width="100%" height="30px" preserveAspectRatio="xMaxYMin meet">
 <g id="arrow_out" transform="scale(0.3 0.3)">
  <a xlink:href="motor__core_8h__dep__incl_org.svg" target="_base">
   <rect id="button" ry="5" rx="5" y="6" x="6" height="38" width="38"
        fill="#f2f5e9" fill-opacity="0.5" stroke="#606060" stroke-width="1.0"/>
   <path id="arrow"
     d="M 11.500037,31.436501 C 11.940474,20.09759 22.043105,11.32322 32.158766,21.979434 L 37.068811,17.246167 C 37.068811,17.246167 37.088388,32 37.088388,32 L 22.160133,31.978069 C 22.160133,31.978069 26.997745,27.140456 26.997745,27.140456 C 18.528582,18.264221 13.291696,25.230495 11.500037,31.436501 z"
     style="fill:#404040;"/>
  </a>
 </g>
</svg>

<style type='text/css'>
<![CDATA[
[data-mouse-over-selected='false'] { opacity: 0.7; }
[data-mouse-over-selected='true']  { opacity: 1.0; }
]]>
</style>
<script type="application/ecmascript"><![CDATA[
document.addEventListener('DOMContentLoaded', (event) => {
  highlightEdges();
  highlightAdjacentNodes();
});
]]></script>
</svg>
