<?xml version="1.0" encoding="UTF-8" standalone="no"?>
<!DOCTYPE svg PUBLIC "-//W3C//DTD SVG 1.1//EN"
 "http://www.w3.org/Graphics/SVG/1.1/DTD/svg11.dtd">
<!-- Generated by graphviz version 14.1.4 (0)
 -->
<!-- Title: source/motor.c Pages: 1 -->
<!--zoomable 313 -->

<svg id="main" version="1.1" xmlns="http://www.w3.org/2000/svg" xmlns:xlink="http://www.w3.org/1999/xlink" xml:space="preserve" onload="init(evt)">

<style type="text/css"><![CDATA[
.node, .edge {opacity: 0.7;}
.node.selected, .edge.selected {opacity: 1;}
.edge:hover path { stroke: red; }
.edge:hover polygon { stroke: red; fill: red; }
]]></style>

<defs>
  <circle id="rim" cx="0" cy="0" r="7"/>
  <circle id="rim2" cx="0" cy="0" r="3.5"/>
  <g id="zoomPlus">
    <use xlink:href="#rim" fill="#404040"><set attributeName="fill" to="#808080" begin="zoomplus.mouseover" end="zoomplus.mouseout"/></use>
    <path d="M-4,0h8M0,-4v8" fill="none" stroke="white" stroke-width="1.5" pointer-events="none"/>
  </g>
  <g id="zoomMin">
    <use xlink:href="#rim" fill="#404040"><set attributeName="fill" to="#808080" begin="zoomminus.mouseover" end="zoomminus.mouseout"/></use>
    <path d="M-4,0h8" fill="none" stroke="white" stroke-width="1.5" pointer-events="none"/>
  </g>
  <g id="arrowUp" transform="translate(30 24)">
    <use xlink:href="#rim"/>
    <path pointer-events="none" fill="none" stroke="white" stroke-width="1.5" d="M0,-3.0v7 M-2.5,-0.5L0,-3.0L2.5,-0.5"/>
  </g>
  <g id="arrowRight" transform="rotate(90) translate(36 -43)">
    <use xlink:href="#rim"/>
    <path pointer-events="none" fill="none" stroke="white" stroke-width="1.5" d="M0,-3.0v7 M-2.5,-0.5L0,-3.0L2.5,-0.5"/>
  </g>
  <g id="arrowDown" transform="rotate(180) translate(-30 -48)">
    <use xlink:href="#rim"/>
    <path pointer-events="none" fill="none" stroke="white" stroke-width="1.5" d="M0,-3.0v7 M-2.5,-0.5L0,-3.0L2.5,-0.5"/>
  </g>
  <g id="arrowLeft" transform="rotate(270) translate(-36 17)">
    <use xlink:href="#rim"/>
    <path pointer-events="none" fill="none" stroke="white" stroke-width="1.5" d="M0,-3.0v7 M-2.5,-0.5L0,-3.0L2.5,-0.5"/>
  </g>
  <g id="resetDef">
    <use xlink:href="#rim2" fill="#404040"><set attributeName="fill" to="#808080" begin="reset.mouseover" end="reset.mouseout"/></use>
  </g>
</defs>
<script type="application/ecmascript">
var viewWidth = 1005;
var viewHeight = 313;
var sectionId = 'dynsection-0';
</script>
<script type="application/ecmascript" xlink:href="svg.min.js"/>
<svg id="graph" class="graph">
<g id="viewport">
<title>source/motor.c</title>
<!-- Node1 -->
<g id="Node000001" class="node">
<title>Node1</title>
<g id="a_Node000001"><a xlink:title=" ">
<polygon fill="#999999" stroke="#666666" points="792.38,-304.5 704.38,-304.5 704.38,-283.75 792.38,-283.75 792.38,-304.5"/>
<text xml:space="preserve" text-anchor="middle" x="748.38" y="-291" font-family="Helvetica,sans-Serif" font-size="10.00">source/motor.c</text>
</a>
</g>
</g>
<!-- Node2 -->
<g id="Node000002" class="node">
<title>Node2</title>
<g id="a_Node000002"><a xlink:href="motor_8h.html" target="_top" xlink:title=" ">
<polygon fill="white" stroke="#666666" points="338.12,-247.75 284.62,-247.75 284.62,-227 338.12,-227 338.12,-247.75"/>
<text xml:space="preserve" text-anchor="middle" x="311.38" y="-234.25" font-family="Helvetica,sans-Serif" font-size="10.00">motor.h</text>
</a>
</g>
</g>
<!-- Node1&#45;&gt;Node2 -->
<g id="edge1_Node000001_Node000002" class="edge">
<title>Node1&#45;&gt;Node2</title>
<g id="a_edge1_Node000001_Node000002"><a xlink:title=" ">
<path fill="none" stroke="#63b8ff" d="M704.07,-287.57C618.33,-276.83 431.04,-253.37 350.01,-243.22"/>
<polygon fill="#63b8ff" stroke="#63b8ff" points="350.48,-239.75 340.12,-241.98 349.61,-246.69 350.48,-239.75"/>
</a>
</g>
</g>
<!-- Node3 -->
<g id="Node000003" class="node">
<title>Node3</title>
<g id="a_Node000003"><a xlink:href="step_8h.html" target="_top" xlink:title=" ">
<polygon fill="white" stroke="#666666" points="245.38,-191 199.38,-191 199.38,-170.25 245.38,-170.25 245.38,-191"/>
<text xml:space="preserve" text-anchor="middle" x="222.38" y="-177.5" font-family="Helvetica,sans-Serif" font-size="10.00">step.h</text>
</a>
</g>
</g>
<!-- Node1&#45;&gt;Node3 -->
<g id="edge37_Node000001_Node000003" class="edge">
<title>Node1&#45;&gt;Node3</title>
<g id="a_edge37_Node000001_Node000003"><a xlink:title=" ">
<path fill="none" stroke="#63b8ff" d="M703.9,-293.21C600.8,-292.71 348.68,-287.36 275.38,-247.75 256.02,-237.29 241.2,-216.5 232.21,-201.01"/>
<polygon fill="#63b8ff" stroke="#63b8ff" points="235.52,-199.76 227.67,-192.65 229.37,-203.11 235.52,-199.76"/>
</a>
</g>
</g>
<!-- Node4 -->
<g id="Node000004" class="node">
<title>Node4</title>
<g id="a_Node000004"><a xlink:title=" ">
<polygon fill="#e0e0e0" stroke="#999999" points="751.12,-20.75 679.62,-20.75 679.62,0 751.12,0 751.12,-20.75"/>
<text xml:space="preserve" text-anchor="middle" x="715.38" y="-7.25" font-family="Helvetica,sans-Serif" font-size="10.00">FreeRTOS.h</text>
</a>
</g>
</g>
<!-- Node1&#45;&gt;Node4 -->
<g id="edge32_Node000001_Node000004" class="edge">
<title>Node1&#45;&gt;Node4</title>
<g id="a_edge32_Node000001_Node000004"><a xlink:title=" ">
<path fill="none" stroke="#63b8ff" d="M767.75,-283.4C797.59,-266.9 851.38,-230.38 851.38,-181.62 851.38,-181.62 851.38,-181.62 851.38,-122.88 851.38,-92.3 853,-79.32 832.38,-56.75 814.23,-36.89 786.38,-25.64 762.4,-19.3"/>
<polygon fill="#63b8ff" stroke="#63b8ff" points="763.37,-15.93 752.83,-17 761.73,-22.74 763.37,-15.93"/>
</a>
</g>
</g>
<!-- Node10 -->
<g id="Node000010" class="node">
<title>Node10</title>
<g id="a_Node000010"><a xlink:href="task__helpers_8h.html" target="_top" xlink:title=" ">
<polygon fill="white" stroke="#666666" points="606,-134.25 518.75,-134.25 518.75,-113.5 606,-113.5 606,-134.25"/>
<text xml:space="preserve" text-anchor="middle" x="562.38" y="-120.75" font-family="Helvetica,sans-Serif" font-size="10.00">task_helpers.h</text>
</a>
</g>
</g>
<!-- Node1&#45;&gt;Node10 -->
<g id="edge36_Node000001_Node000010" class="edge">
<title>Node1&#45;&gt;Node10</title>
<g id="a_edge36_Node000001_Node000010"><a xlink:title=" ">
<path fill="none" stroke="#63b8ff" d="M737.57,-283.35C707.14,-255.82 620.39,-177.36 581.57,-142.24"/>
<polygon fill="#63b8ff" stroke="#63b8ff" points="584.1,-139.8 574.33,-135.69 579.4,-144.99 584.1,-139.8"/>
</a>
</g>
</g>
<!-- Node11 -->
<g id="Node000011" class="node">
<title>Node11</title>
<g id="a_Node000011"><a xlink:href="log_8h.html" target="_top" xlink:title=" ">
<polygon fill="white" stroke="#666666" points="711.38,-77.5 671.38,-77.5 671.38,-56.75 711.38,-56.75 711.38,-77.5"/>
<text xml:space="preserve" text-anchor="middle" x="691.38" y="-64" font-family="Helvetica,sans-Serif" font-size="10.00">log.h</text>
</a>
</g>
</g>
<!-- Node1&#45;&gt;Node11 -->
<g id="edge31_Node000001_Node000011" class="edge">
<title>Node1&#45;&gt;Node11</title>
<g id="a_edge31_Node000001_Node000011"><a xlink:title=" ">
<path fill="none" stroke="#63b8ff" d="M745.93,-283.46C737.34,-249.56 708.47,-135.62 696.57,-88.64"/>
<polygon fill="#63b8ff" stroke="#63b8ff" points="700.04,-88.06 694.19,-79.22 693.25,-89.78 700.04,-88.06"/>
</a>
</g>
</g>
<!-- Node14 -->
<g id="Node000014" class="node">
<title>Node14</title>
<g id="a_Node000014"><a xlink:title=" ">
<polygon fill="#e0e0e0" stroke="#999999" points="822.88,-77.5 767.88,-77.5 767.88,-56.75 822.88,-56.75 822.88,-77.5"/>
<text xml:space="preserve" text-anchor="middle" x="795.38" y="-64" font-family="Helvetica,sans-Serif" font-size="10.00">queue.h</text>
</a>
</g>
</g>
<!-- Node1&#45;&gt;Node14 -->
<g id="edge33_Node000001_Node000014" class="edge">
<title>Node1&#45;&gt;Node14</title>
<g id="a_edge33_Node000001_Node000014"><a xlink:title=" ">
<path fill="none" stroke="#63b8ff" d="M750.39,-283.46C757.46,-249.63 781.17,-136.11 791.03,-88.94"/>
<polygon fill="#63b8ff" stroke="#63b8ff" points="794.43,-89.74 793.05,-79.24 787.58,-88.31 794.43,-89.74"/>
</a>
</g>
</g>
<!-- Node19 -->
<g id="Node000019" class="node">
<title>Node19</title>
<g id="a_Node000019"><a xlink:title=" ">
<polygon fill="#e0e0e0" stroke="#999999" points="929.62,-247.75 879.12,-247.75 879.12,-227 929.62,-227 929.62,-247.75"/>
<text xml:space="preserve" text-anchor="middle" x="904.38" y="-234.25" font-family="Helvetica,sans-Serif" font-size="10.00">math.h</text>
</a>
</g>
</g>
<!-- Node1&#45;&gt;Node19 -->
<g id="edge34_Node000001_Node000019" class="edge">
<title>Node1&#45;&gt;Node19</title>
<g id="a_edge34_Node000001_Node000019"><a xlink:title=" ">
<path fill="none" stroke="#63b8ff" d="M776.26,-283.34C801.95,-274.32 840.21,-260.89 868.23,-251.06"/>
<polygon fill="#63b8ff" stroke="#63b8ff" points="869.09,-254.47 877.37,-247.85 866.77,-247.86 869.09,-254.47"/>
</a>
</g>
</g>
<!-- Node20 -->
<g id="Node000020" class="node">
<title>Node20</title>
<g id="a_Node000020"><a xlink:title=" ">
<polygon fill="#e0e0e0" stroke="#999999" points="996.88,-247.75 947.88,-247.75 947.88,-227 996.88,-227 996.88,-247.75"/>
<text xml:space="preserve" text-anchor="middle" x="972.38" y="-234.25" font-family="Helvetica,sans-Serif" font-size="10.00">stdio.h</text>
</a>
</g>
</g>
<!-- Node1&#45;&gt;Node20 -->
<g id="edge35_Node000001_Node000020" class="edge">
<title>Node1&#45;&gt;Node20</title>
<g id="a_edge35_Node000001_Node000020"><a xlink:title=" ">
<path fill="none" stroke="#63b8ff" d="M791.49,-283.28C827.66,-274.92 880.94,-262.37 936.4,-248.19"/>
<polygon fill="#63b8ff" stroke="#63b8ff" points="937.24,-251.59 946.05,-245.71 935.5,-244.81 937.24,-251.59"/>
</a>
</g>
</g>
<!-- Node2&#45;&gt;Node3 -->
<g id="edge2_Node000002_Node000003" class="edge">
<title>Node2&#45;&gt;Node3</title>
<g id="a_edge2_Node000002_Node000003"><a xlink:title=" ">
<path fill="none" stroke="#63b8ff" d="M295.46,-226.59C282.17,-218.41 262.99,-206.61 247.61,-197.15"/>
<polygon fill="#63b8ff" stroke="#63b8ff" points="249.79,-194.38 239.44,-192.12 246.12,-200.34 249.79,-194.38"/>
</a>
</g>
</g>
<!-- Node7 -->
<g id="Node000007" class="node">
<title>Node7</title>
<g id="a_Node000007"><a xlink:title=" ">
<polygon fill="#e0e0e0" stroke="#999999" points="58.75,-134.25 0,-134.25 0,-113.5 58.75,-113.5 58.75,-134.25"/>
<text xml:space="preserve" text-anchor="middle" x="29.38" y="-120.75" font-family="Helvetica,sans-Serif" font-size="10.00">fsl_ftm.h</text>
</a>
</g>
</g>
<!-- Node2&#45;&gt;Node7 -->
<g id="edge27_Node000002_Node000007" class="edge">
<title>Node2&#45;&gt;Node7</title>
<g id="a_edge27_Node000002_Node000007"><a xlink:title=" ">
<path fill="none" stroke="#63b8ff" d="M284.37,-226.52C259.79,-217.49 222.53,-203.63 190.38,-191 146.15,-173.63 95.52,-152.66 63.03,-139.05"/>
<polygon fill="#63b8ff" stroke="#63b8ff" points="64.72,-135.97 54.14,-135.33 62.01,-142.42 64.72,-135.97"/>
</a>
</g>
</g>
<!-- Node8 -->
<g id="Node000008" class="node">
<title>Node8</title>
<g id="a_Node000008"><a xlink:title=" ">
<polygon fill="#e0e0e0" stroke="#999999" points="254,-134.25 190.75,-134.25 190.75,-113.5 254,-113.5 254,-134.25"/>
<text xml:space="preserve" text-anchor="middle" x="222.38" y="-120.75" font-family="Helvetica,sans-Serif" font-size="10.00">fsl_gpio.h</text>
</a>
</g>
</g>
<!-- Node2&#45;&gt;Node8 -->
<g id="edge28_Node000002_Node000008" class="edge">
<title>Node2&#45;&gt;Node8</title>
<g id="a_edge28_Node000002_Node000008"><a xlink:title=" ">
<path fill="none" stroke="#63b8ff" d="M303.79,-226.87C289.08,-208.45 256.47,-167.59 237.28,-143.55"/>
<polygon fill="#63b8ff" stroke="#63b8ff" points="240.12,-141.49 231.14,-135.86 234.64,-145.86 240.12,-141.49"/>
</a>
</g>
</g>
<!-- Node9 -->
<g id="Node000009" class="node">
<title>Node9</title>
<g id="a_Node000009"><a xlink:title=" ">
<polygon fill="#e0e0e0" stroke="#999999" points="334.25,-134.25 272.5,-134.25 272.5,-113.5 334.25,-113.5 334.25,-134.25"/>
<text xml:space="preserve" text-anchor="middle" x="303.38" y="-120.75" font-family="Helvetica,sans-Serif" font-size="10.00">fsl_port.h</text>
</a>
</g>
</g>
<!-- Node2&#45;&gt;Node9 -->
<g id="edge29_Node000002_Node000009" class="edge">
<title>Node2&#45;&gt;Node9</title>
<g id="a_edge29_Node000002_Node000009"><a xlink:title=" ">
<path fill="none" stroke="#63b8ff" d="M310.69,-226.87C309.41,-209.02 306.62,-170.11 304.88,-145.84"/>
<polygon fill="#63b8ff" stroke="#63b8ff" points="308.39,-145.91 304.19,-136.18 301.41,-146.41 308.39,-145.91"/>
</a>
</g>
</g>
<!-- Node15 -->
<g id="Node000015" class="node">
<title>Node15</title>
<g id="a_Node000015"><a xlink:href="pca9555a_8h.html" target="_top" xlink:title=" ">
<polygon fill="white" stroke="#666666" points="424.5,-134.25 352.25,-134.25 352.25,-113.5 424.5,-113.5 424.5,-134.25"/>
<text xml:space="preserve" text-anchor="middle" x="388.38" y="-120.75" font-family="Helvetica,sans-Serif" font-size="10.00">pca9555a.h</text>
</a>
</g>
</g>
<!-- Node2&#45;&gt;Node15 -->
<g id="edge30_Node000002_Node000015" class="edge">
<title>Node2&#45;&gt;Node15</title>
<g id="a_edge30_Node000002_Node000015"><a xlink:title=" ">
<path fill="none" stroke="#63b8ff" d="M317.94,-226.87C330.61,-208.53 358.63,-167.95 375.26,-143.87"/>
<polygon fill="#63b8ff" stroke="#63b8ff" points="377.94,-146.14 380.75,-135.92 372.18,-142.16 377.94,-146.14"/>
</a>
</g>
</g>
<!-- Node17 -->
<g id="Node000017" class="node">
<title>Node17</title>
<g id="a_Node000017"><a xlink:href="tmc2209_8h.html" target="_top" xlink:title=" ">
<polygon fill="white" stroke="#666666" points="524.25,-191 456.5,-191 456.5,-170.25 524.25,-170.25 524.25,-191"/>
<text xml:space="preserve" text-anchor="middle" x="490.38" y="-177.5" font-family="Helvetica,sans-Serif" font-size="10.00">tmc2209.h</text>
</a>
</g>
</g>
<!-- Node2&#45;&gt;Node17 -->
<g id="edge22_Node000002_Node000017" class="edge">
<title>Node2&#45;&gt;Node17</title>
<g id="a_edge22_Node000002_Node000017"><a xlink:title=" ">
<path fill="none" stroke="#63b8ff" d="M338.56,-228.06C367.47,-219.22 413.6,-205.11 447.43,-194.76"/>
<polygon fill="#63b8ff" stroke="#63b8ff" points="448.4,-198.12 456.94,-191.85 446.35,-191.43 448.4,-198.12"/>
</a>
</g>
</g>
<!-- Node3&#45;&gt;Node4 -->
<g id="edge3_Node000003_Node000004" class="edge">
<title>Node3&#45;&gt;Node4</title>
<g id="a_edge3_Node000003_Node000004"><a xlink:title=" ">
<path fill="none" stroke="#63b8ff" d="M205.95,-169.92C187.55,-157.71 161.63,-135.64 172.38,-113.5 190.16,-76.84 206.56,-71.93 244.38,-56.75 320.44,-26.21 564.13,-15.71 667.88,-12.57"/>
<polygon fill="#63b8ff" stroke="#63b8ff" points="667.83,-16.07 677.72,-12.28 667.62,-9.07 667.83,-16.07"/>
</a>
</g>
</g>
<!-- Node5 -->
<g id="Node000005" class="node">
<title>Node5</title>
<g id="a_Node000005"><a xlink:title=" ">
<polygon fill="#e0e0e0" stroke="#999999" points="435.38,-77.5 389.38,-77.5 389.38,-56.75 435.38,-56.75 435.38,-77.5"/>
<text xml:space="preserve" text-anchor="middle" x="412.38" y="-64" font-family="Helvetica,sans-Serif" font-size="10.00">task.h</text>
</a>
</g>
</g>
<!-- Node3&#45;&gt;Node5 -->
<g id="edge4_Node000003_Node000005" class="edge">
<title>Node3&#45;&gt;Node5</title>
<g id="a_edge4_Node000003_Node000005"><a xlink:title=" ">
<path fill="none" stroke="#63b8ff" d="M208.73,-169.9C191.6,-156.51 166.19,-131.96 181.38,-113.5 187.61,-105.92 314.58,-84.16 377.57,-73.78"/>
<polygon fill="#63b8ff" stroke="#63b8ff" points="378.1,-77.23 387.4,-72.16 376.97,-70.33 378.1,-77.23"/>
</a>
</g>
</g>
<!-- Node6 -->
<g id="Node000006" class="node">
<title>Node6</title>
<g id="a_Node000006"><a xlink:title=" ">
<polygon fill="#e0e0e0" stroke="#999999" points="403.88,-20.75 318.88,-20.75 318.88,0 403.88,0 403.88,-20.75"/>
<text xml:space="preserve" text-anchor="middle" x="361.38" y="-7.25" font-family="Helvetica,sans-Serif" font-size="10.00">fsl_common.h</text>
</a>
</g>
</g>
<!-- Node3&#45;&gt;Node6 -->
<g id="edge5_Node000003_Node000006" class="edge">
<title>Node3&#45;&gt;Node6</title>
<g id="a_edge5_Node000003_Node000006"><a xlink:title=" ">
<path fill="none" stroke="#63b8ff" d="M198.91,-173.44C169.2,-165.09 120.63,-149.47 110.38,-134.25 91.13,-105.69 88.29,-83.18 110.38,-56.75 134.91,-27.38 240.77,-16.98 306.93,-13.33"/>
<polygon fill="#63b8ff" stroke="#63b8ff" points="307.07,-16.83 316.88,-12.82 306.71,-9.84 307.07,-16.83"/>
</a>
</g>
</g>
<!-- Node3&#45;&gt;Node7 -->
<g id="edge6_Node000003_Node000007" class="edge">
<title>Node3&#45;&gt;Node7</title>
<g id="a_edge6_Node000003_Node000007"><a xlink:title=" ">
<path fill="none" stroke="#63b8ff" d="M199.09,-173.02C167.16,-163.96 109.26,-147.54 70.07,-136.42"/>
<polygon fill="#63b8ff" stroke="#63b8ff" points="71.09,-133.07 60.51,-133.71 69.18,-139.8 71.09,-133.07"/>
</a>
</g>
</g>
<!-- Node3&#45;&gt;Node8 -->
<g id="edge7_Node000003_Node000008" class="edge">
<title>Node3&#45;&gt;Node8</title>
<g id="a_edge7_Node000003_Node000008"><a xlink:title=" ">
<path fill="none" stroke="#63b8ff" d="M222.38,-169.84C222.38,-163.22 222.38,-154.22 222.38,-146.02"/>
<polygon fill="#63b8ff" stroke="#63b8ff" points="225.88,-146.09 222.38,-136.09 218.88,-146.09 225.88,-146.09"/>
</a>
</g>
</g>
<!-- Node3&#45;&gt;Node9 -->
<g id="edge8_Node000003_Node000009" class="edge">
<title>Node3&#45;&gt;Node9</title>
<g id="a_edge8_Node000003_Node000009"><a xlink:title=" ">
<path fill="none" stroke="#63b8ff" d="M236.86,-169.84C248.72,-161.82 265.75,-150.31 279.61,-140.94"/>
<polygon fill="#63b8ff" stroke="#63b8ff" points="281.44,-143.93 287.77,-135.43 277.52,-138.13 281.44,-143.93"/>
</a>
</g>
</g>
<!-- Node3&#45;&gt;Node10 -->
<g id="edge9_Node000003_Node000010" class="edge">
<title>Node3&#45;&gt;Node10</title>
<g id="a_edge9_Node000003_Node000010"><a xlink:title=" ">
<path fill="none" stroke="#63b8ff" d="M245.74,-175.86C299.19,-167.26 431.53,-145.95 507.12,-133.77"/>
<polygon fill="#63b8ff" stroke="#63b8ff" points="507.48,-137.26 516.8,-132.21 506.37,-130.35 507.48,-137.26"/>
</a>
</g>
</g>
<!-- Node3&#45;&gt;Node15 -->
<g id="edge19_Node000003_Node000015" class="edge">
<title>Node3&#45;&gt;Node15</title>
<g id="a_edge19_Node000003_Node000015"><a xlink:title=" ">
<path fill="none" stroke="#63b8ff" d="M245.81,-171.9C272.27,-163.17 315.8,-148.81 347.82,-138.25"/>
<polygon fill="#63b8ff" stroke="#63b8ff" points="348.77,-141.62 357.17,-135.17 346.58,-134.97 348.77,-141.62"/>
</a>
</g>
</g>
<!-- Node10&#45;&gt;Node4 -->
<g id="edge10_Node000010_Node000004" class="edge">
<title>Node10&#45;&gt;Node4</title>
<g id="a_edge10_Node000010_Node000004"><a xlink:title=" ">
<path fill="none" stroke="#63b8ff" d="M606.2,-113.13C650.47,-102.84 713.33,-86.85 720.38,-77.5 730.12,-64.57 727.65,-45.89 723.44,-31.68"/>
<polygon fill="#63b8ff" stroke="#63b8ff" points="726.82,-30.75 720.23,-22.45 720.21,-33.05 726.82,-30.75"/>
</a>
</g>
</g>
<!-- Node10&#45;&gt;Node5 -->
<g id="edge11_Node000010_Node000005" class="edge">
<title>Node10&#45;&gt;Node5</title>
<g id="a_edge11_Node000010_Node000005"><a xlink:title=" ">
<path fill="none" stroke="#63b8ff" d="M535.56,-113.09C510.52,-103.95 473.07,-90.28 446.04,-80.41"/>
<polygon fill="#63b8ff" stroke="#63b8ff" points="447.53,-77.23 436.94,-77.09 445.13,-83.81 447.53,-77.23"/>
</a>
</g>
</g>
<!-- Node10&#45;&gt;Node6 -->
<g id="edge12_Node000010_Node000006" class="edge">
<title>Node10&#45;&gt;Node6</title>
<g id="a_edge12_Node000010_Node000006"><a xlink:title=" ">
<path fill="none" stroke="#63b8ff" d="M545.21,-113.18C522.27,-100.24 480.33,-76.65 444.38,-56.75 426.11,-46.64 405.51,-35.38 389.4,-26.6"/>
<polygon fill="#63b8ff" stroke="#63b8ff" points="391.33,-23.66 380.87,-21.96 387.98,-29.81 391.33,-23.66"/>
</a>
</g>
</g>
<!-- Node10&#45;&gt;Node11 -->
<g id="edge13_Node000010_Node000011" class="edge">
<title>Node10&#45;&gt;Node11</title>
<g id="a_edge13_Node000010_Node000011"><a xlink:title=" ">
<path fill="none" stroke="#63b8ff" d="M585.44,-113.09C606.46,-104.17 637.66,-90.92 660.77,-81.12"/>
<polygon fill="#63b8ff" stroke="#63b8ff" points="661.83,-84.47 669.67,-77.34 659.09,-78.02 661.83,-84.47"/>
</a>
</g>
</g>
<!-- Node12 -->
<g id="Node000012" class="node">
<title>Node12</title>
<g id="a_Node000012"><a xlink:title=" ">
<polygon fill="#e0e0e0" stroke="#999999" points="543.75,-77.5 491,-77.5 491,-56.75 543.75,-56.75 543.75,-77.5"/>
<text xml:space="preserve" text-anchor="middle" x="517.38" y="-64" font-family="Helvetica,sans-Serif" font-size="10.00">string.h</text>
</a>
</g>
</g>
<!-- Node10&#45;&gt;Node12 -->
<g id="edge16_Node000010_Node000012" class="edge">
<title>Node10&#45;&gt;Node12</title>
<g id="a_edge16_Node000010_Node000012"><a xlink:title=" ">
<path fill="none" stroke="#63b8ff" d="M554.33,-113.09C548.31,-105.77 539.91,-95.54 532.63,-86.69"/>
<polygon fill="#63b8ff" stroke="#63b8ff" points="535.37,-84.5 526.31,-79 529.96,-88.95 535.37,-84.5"/>
</a>
</g>
</g>
<!-- Node13 -->
<g id="Node000013" class="node">
<title>Node13</title>
<g id="a_Node000013"><a xlink:title=" ">
<polygon fill="#e0e0e0" stroke="#999999" points="652.88,-77.5 561.88,-77.5 561.88,-56.75 652.88,-56.75 652.88,-77.5"/>
<text xml:space="preserve" text-anchor="middle" x="607.38" y="-64" font-family="Helvetica,sans-Serif" font-size="10.00">event_groups.h</text>
</a>
</g>
</g>
<!-- Node10&#45;&gt;Node13 -->
<g id="edge17_Node000010_Node000013" class="edge">
<title>Node10&#45;&gt;Node13</title>
<g id="a_edge17_Node000010_Node000013"><a xlink:title=" ">
<path fill="none" stroke="#63b8ff" d="M570.42,-113.09C576.44,-105.77 584.84,-95.54 592.12,-86.69"/>
<polygon fill="#63b8ff" stroke="#63b8ff" points="594.79,-88.95 598.44,-79 589.38,-84.5 594.79,-88.95"/>
</a>
</g>
</g>
<!-- Node10&#45;&gt;Node14 -->
<g id="edge18_Node000010_Node000014" class="edge">
<title>Node10&#45;&gt;Node14</title>
<g id="a_edge18_Node000010_Node000014"><a xlink:title=" ">
<path fill="none" stroke="#63b8ff" d="M604.3,-113.02C647.53,-102.86 714.41,-87.15 756.49,-77.26"/>
<polygon fill="#63b8ff" stroke="#63b8ff" points="757.25,-80.68 766.19,-74.98 755.65,-73.86 757.25,-80.68"/>
</a>
</g>
</g>
<!-- Node11&#45;&gt;Node4 -->
<g id="edge14_Node000011_Node000004" class="edge">
<title>Node11&#45;&gt;Node4</title>
<g id="a_edge14_Node000011_Node000004"><a xlink:title=" ">
<path fill="none" stroke="#63b8ff" d="M695.67,-56.34C698.7,-49.41 702.88,-39.87 706.61,-31.36"/>
<polygon fill="#63b8ff" stroke="#63b8ff" points="709.7,-33.03 710.51,-22.46 703.29,-30.22 709.7,-33.03"/>
</a>
</g>
</g>
<!-- Node11&#45;&gt;Node6 -->
<g id="edge15_Node000011_Node000006" class="edge">
<title>Node11&#45;&gt;Node6</title>
<g id="a_edge15_Node000011_Node000006"><a xlink:title=" ">
<path fill="none" stroke="#63b8ff" d="M670.9,-59.05C668.05,-58.2 665.16,-57.4 662.38,-56.75 577.08,-36.67 476,-23.57 415.37,-16.83"/>
<polygon fill="#63b8ff" stroke="#63b8ff" points="415.99,-13.37 405.67,-15.77 415.23,-20.33 415.99,-13.37"/>
</a>
</g>
</g>
<!-- Node15&#45;&gt;Node6 -->
<g id="edge20_Node000015_Node000006" class="edge">
<title>Node15&#45;&gt;Node6</title>
<g id="a_edge20_Node000015_Node000006"><a xlink:title=" ">
<path fill="none" stroke="#63b8ff" d="M352.05,-113.81C311.58,-103.34 250.92,-86.43 244.38,-77.5 223.63,-49.21 267.62,-31.34 307.45,-21.41"/>
<polygon fill="#63b8ff" stroke="#63b8ff" points="308.11,-24.85 317.05,-19.16 306.51,-18.03 308.11,-24.85"/>
</a>
</g>
</g>
<!-- Node16 -->
<g id="Node000016" class="node">
<title>Node16</title>
<g id="a_Node000016"><a xlink:title=" ">
<polygon fill="#e0e0e0" stroke="#999999" points="333.25,-77.5 253.5,-77.5 253.5,-56.75 333.25,-56.75 333.25,-77.5"/>
<text xml:space="preserve" text-anchor="middle" x="293.38" y="-64" font-family="Helvetica,sans-Serif" font-size="10.00">peripherals.h</text>
</a>
</g>
</g>
<!-- Node15&#45;&gt;Node16 -->
<g id="edge21_Node000015_Node000016" class="edge">
<title>Node15&#45;&gt;Node16</title>
<g id="a_edge21_Node000015_Node000016"><a xlink:title=" ">
<path fill="none" stroke="#63b8ff" d="M371.39,-113.09C357.07,-104.83 336.33,-92.88 319.84,-83.38"/>
<polygon fill="#63b8ff" stroke="#63b8ff" points="321.94,-80.55 311.52,-78.58 318.44,-86.61 321.94,-80.55"/>
</a>
</g>
</g>
<!-- Node17&#45;&gt;Node6 -->
<g id="edge23_Node000017_Node000006" class="edge">
<title>Node17&#45;&gt;Node6</title>
<g id="a_edge23_Node000017_Node000006"><a xlink:title=" ">
<path fill="none" stroke="#63b8ff" d="M488.09,-169.85C484.33,-155.72 475.6,-129.55 459.38,-113.5 431.94,-86.36 405.57,-106.72 380.38,-77.5 369.52,-64.91 364.85,-46.45 362.85,-32.24"/>
<polygon fill="#63b8ff" stroke="#63b8ff" points="366.36,-32.18 361.85,-22.6 359.4,-32.91 366.36,-32.18"/>
</a>
</g>
</g>
<!-- Node17&#45;&gt;Node10 -->
<g id="edge26_Node000017_Node000010" class="edge">
<title>Node17&#45;&gt;Node10</title>
<g id="a_edge26_Node000017_Node000010"><a xlink:title=" ">
<path fill="none" stroke="#63b8ff" d="M503.25,-169.84C513.59,-161.97 528.34,-150.75 540.53,-141.49"/>
<polygon fill="#63b8ff" stroke="#63b8ff" points="542.57,-144.33 548.41,-135.49 538.33,-138.76 542.57,-144.33"/>
</a>
</g>
</g>
<!-- Node17&#45;&gt;Node16 -->
<g id="edge24_Node000017_Node000016" class="edge">
<title>Node17&#45;&gt;Node16</title>
<g id="a_edge24_Node000017_Node000016"><a xlink:title=" ">
<path fill="none" stroke="#63b8ff" d="M484.6,-170.07C475.47,-155.75 456.35,-128.76 433.38,-113.5 406.72,-95.79 372.64,-84.55 344.77,-77.69"/>
<polygon fill="#63b8ff" stroke="#63b8ff" points="345.66,-74.3 335.12,-75.44 344.07,-81.11 345.66,-74.3"/>
</a>
</g>
</g>
<!-- Node18 -->
<g id="Node000018" class="node">
<title>Node18</title>
<g id="a_Node000018"><a xlink:title=" ">
<polygon fill="#e0e0e0" stroke="#999999" points="676.75,-134.25 624,-134.25 624,-113.5 676.75,-113.5 676.75,-134.25"/>
<text xml:space="preserve" text-anchor="middle" x="650.38" y="-120.75" font-family="Helvetica,sans-Serif" font-size="10.00">stdint.h</text>
</a>
</g>
</g>
<!-- Node17&#45;&gt;Node18 -->
<g id="edge25_Node000017_Node000018" class="edge">
<title>Node17&#45;&gt;Node18</title>
<g id="a_edge25_Node000017_Node000018"><a xlink:title=" ">
<path fill="none" stroke="#63b8ff" d="M518.98,-169.84C545.17,-160.88 584.09,-147.56 612.78,-137.74"/>
<polygon fill="#63b8ff" stroke="#63b8ff" points="613.85,-141.07 622.18,-134.52 611.59,-134.45 613.85,-141.07"/>
</a>
</g>
</g>
</g>
</svg>

<g id="navigator" transform="translate(0 0)" fill="#404254">
  <rect fill="#f2f5e9" fill-opacity="0.5" stroke="#606060" stroke-width=".5" x="0" y="0" width="60" height="60"/>
  <use id="zoomplus" xlink:href="#zoomPlus" x="17" y="9" onmousedown="handleZoom(evt,'in')"/>
  <use id="zoomminus" xlink:href="#zoomMin" x="42" y="9" onmousedown="handleZoom(evt,'out')"/>
  <use id="reset" xlink:href="#resetDef" x="30" y="36" onmousedown="handleReset()"/>
   <use id="arrowup" xlink:href="#arrowUp" x="0" y="0" onmousedown="handlePan(0,-1)"/>
  <use id="arrowright" xlink:href="#arrowRight" x="0" y="0" onmousedown="handlePan(1,0)"/>
  <use id="arrowdown" xlink:href="#arrowDown" x="0" y="0" onmousedown="handlePan(0,1)"/>
  <use id="arrowleft" xlink:href="#arrowLeft" x="0" y="0" onmousedown="handlePan(-1,0)"/>
</g>
<svg viewBox="0 0 15 15" width="100%" height="30px" preserveAspectRatio="xMaxYMin meet">
 <g id="arrow_out" transform="scale(0.3 0.3)">
  <a xlink:href="motor_8c__incl_org.svg" target="_base">
   <rect id="button" ry="5" rx="5" y="6" x="6" height="38" width="38"
        fill="#f2f5e9" fill-opacity="0.5" stroke="#606060" stroke-width="1.0"/>
   <path id="arrow"
     d="M 11.500037,31.436501 C 11.940474,20.09759 22.043105,11.32322 32.158766,21.979434 L 37.068811,17.246167 C 37.068811,17.246167 37.088388,32 37.088388,32 L 22.160133,31.978069 C 22.160133,31.978069 26.997745,27.140456 26.997745,27.140456 C 18.528582,18.264221 13.291696,25.230495 11.500037,31.436501 z"
     style="fill:#404040;"/>
  </a>
 </g>
</svg>

<style type='text/css'>
<![CDATA[
[data-mouse-over-selected='false'] { opacity: 0.7; }
[data-mouse-over-selected='true']  { opacity: 1.0; }
]]>
</style>
<script type="application/ecmascript"><![CDATA[
document.addEventListener('DOMContentLoaded', (event) => {
  highlightEdges();
  highlightAdjacentNodes();
});
]]></script>
</svg>
