<?xml version="1.0" encoding="UTF-8" standalone="no"?>
<!DOCTYPE svg PUBLIC "-//W3C//DTD SVG 1.1//EN"
 "http://www.w3.org/Graphics/SVG/1.1/DTD/svg11.dtd">
<!-- Generated by graphviz version 14.1.5 (0)
 -->
<!-- Title: source/motion/motor/motor_sync.c Pages: 1 -->
<!--zoomable 439 -->

<svg id="main" version="1.1" xmlns="http://www.w3.org/2000/svg" xmlns:xlink="http://www.w3.org/1999/xlink" xml:space="preserve" onload="init(evt)">

<style type="text/css"><![CDATA[
.node, .edge {opacity: 0.7;}
.node.selected, .edge.selected {opacity: 1;}
.edge:hover path { stroke: red; }
.edge:hover polygon { stroke: red; fill: red; }
]]></style>

<defs>
  <circle id="rim" cx="0" cy="0" r="7"/>
  <circle id="rim2" cx="0" cy="0" r="3.5"/>
  <g id="zoomPlus">
    <use xlink:href="#rim" fill="#404040"><set attributeName="fill" to="#808080" begin="zoomplus.mouseover" end="zoomplus.mouseout"/></use>
    <path d="M-4,0h8M0,-4v8" fill="none" stroke="white" stroke-width="1.5" pointer-events="none"/>
  </g>
  <g id="zoomMin">
    <use xlink:href="#rim" fill="#404040"><set attributeName="fill" to="#808080" begin="zoomminus.mouseover" end="zoomminus.mouseout"/></use>
    <path d="M-4,0h8" fill="none" stroke="white" stroke-width="1.5" pointer-events="none"/>
  </g>
  <g id="arrowUp" transform="translate(30 24)">
    <use xlink:href="#rim"/>
    <path pointer-events="none" fill="none" stroke="white" stroke-width="1.5" d="M0,-3.0v7 M-2.5,-0.5L0,-3.0L2.5,-0.5"/>
  </g>
  <g id="arrowRight" transform="rotate(90) translate(36 -43)">
    <use xlink:href="#rim"/>
    <path pointer-events="none" fill="none" stroke="white" stroke-width="1.5" d="M0,-3.0v7 M-2.5,-0.5L0,-3.0L2.5,-0.5"/>
  </g>
  <g id="arrowDown" transform="rotate(180) translate(-30 -48)">
    <use xlink:href="#rim"/>
    <path pointer-events="none" fill="none" stroke="white" stroke-width="1.5" d="M0,-3.0v7 M-2.5,-0.5L0,-3.0L2.5,-0.5"/>
  </g>
  <g id="arrowLeft" transform="rotate(270) translate(-36 17)">
    <use xlink:href="#rim"/>
    <path pointer-events="none" fill="none" stroke="white" stroke-width="1.5" d="M0,-3.0v7 M-2.5,-0.5L0,-3.0L2.5,-0.5"/>
  </g>
  <g id="resetDef">
    <use xlink:href="#rim2" fill="#404040"><set attributeName="fill" to="#808080" begin="reset.mouseover" end="reset.mouseout"/></use>
  </g>
</defs>
<script type="application/ecmascript">
var viewWidth = 1425;
var viewHeight = 439;
var sectionId = 'dynsection-0';
</script>
<script type="application/ecmascript" xlink:href="svg.min.js"/>
<svg id="graph" class="graph">
<g id="viewport">
<title>source/motion/motor/motor_sync.c</title>
<!-- Node1 -->
<g id="Node000001" class="node">
<title>Node1</title>
<g id="a_Node000001"><a xlink:title=" ">
<polygon fill="#999999" stroke="#666666" points="1269,-430.75 1151,-430.75 1151,-397.25 1269,-397.25 1269,-430.75"/>
<text xml:space="preserve" text-anchor="start" x="1159" y="-417.25" font-family="Helvetica,sans-Serif" font-size="10.00">source/motion/motor</text>
<text xml:space="preserve" text-anchor="middle" x="1210" y="-404.5" font-family="Helvetica,sans-Serif" font-size="10.00">/motor_sync.c</text>
</a>
</g>
</g>
<!-- Node2 -->
<g id="Node000002" class="node">
<title>Node2</title>
<g id="a_Node000002"><a xlink:href="log_8h.html" target="_top" xlink:title=" ">
<polygon fill="white" stroke="#666666" points="1416.5,-134.25 1307.5,-134.25 1307.5,-113.5 1416.5,-113.5 1416.5,-134.25"/>
<text xml:space="preserve" text-anchor="middle" x="1362" y="-120.75" font-family="Helvetica,sans-Serif" font-size="10.00">infrastructure/log.h</text>
</a>
</g>
</g>
<!-- Node1&#45;&gt;Node2 -->
<g id="edge1_Node000001_Node000002" class="edge">
<title>Node1&#45;&gt;Node2</title>
<g id="a_edge1_Node000001_Node000002"><a xlink:title=" ">
<path fill="none" stroke="#63b8ff" d="M1269.36,-398.4C1291.37,-390.49 1315.07,-378.64 1332,-361.25 1354.03,-338.63 1358,-326.7 1358,-295.12 1358,-295.12 1358,-295.12 1358,-236.38 1358,-204.96 1359.61,-168.6 1360.78,-146.17"/>
<polygon fill="#63b8ff" stroke="#63b8ff" points="1364.27,-146.4 1361.33,-136.23 1357.28,-146.02 1364.27,-146.4"/>
</a>
</g>
</g>
<!-- Node5 -->
<g id="Node000005" class="node">
<title>Node5</title>
<g id="a_Node000005"><a xlink:href="motor__sync_8h.html" target="_top" xlink:title=" ">
<polygon fill="white" stroke="#666666" points="1217,-361.25 1135,-361.25 1135,-340.5 1217,-340.5 1217,-361.25"/>
<text xml:space="preserve" text-anchor="middle" x="1176" y="-347.75" font-family="Helvetica,sans-Serif" font-size="10.00">motor_sync.h</text>
</a>
</g>
</g>
<!-- Node1&#45;&gt;Node5 -->
<g id="edge4_Node000001_Node000005" class="edge">
<title>Node1&#45;&gt;Node5</title>
<g id="a_edge4_Node000001_Node000005"><a xlink:title=" ">
<path fill="none" stroke="#63b8ff" d="M1201.07,-396.94C1196.74,-389.17 1191.51,-379.77 1186.95,-371.57"/>
<polygon fill="#63b8ff" stroke="#63b8ff" points="1190.13,-370.08 1182.21,-363.04 1184.01,-373.48 1190.13,-370.08"/>
</a>
</g>
</g>
<!-- Node13 -->
<g id="Node000013" class="node">
<title>Node13</title>
<g id="a_Node000013"><a xlink:href="step__core_8h.html" target="_top" xlink:title=" ">
<polygon fill="white" stroke="#666666" points="503.12,-191 430.88,-191 430.88,-170.25 503.12,-170.25 503.12,-191"/>
<text xml:space="preserve" text-anchor="middle" x="467" y="-177.5" font-family="Helvetica,sans-Serif" font-size="10.00">step_core.h</text>
</a>
</g>
</g>
<!-- Node1&#45;&gt;Node13 -->
<g id="edge53_Node000001_Node000013" class="edge">
<title>Node1&#45;&gt;Node13</title>
<g id="a_edge53_Node000001_Node000013"><a xlink:title=" ">
<path fill="none" stroke="#63b8ff" d="M1150.71,-406.17C1032.28,-390.83 760.12,-346.9 554,-247.75 527.89,-235.19 501.97,-214.08 485.31,-199.1"/>
<polygon fill="#63b8ff" stroke="#63b8ff" points="487.9,-196.72 478.17,-192.52 483.15,-201.87 487.9,-196.72"/>
</a>
</g>
</g>
<!-- Node27 -->
<g id="Node000027" class="node">
<title>Node27</title>
<g id="a_Node000027"><a xlink:href="motor__convert_8h.html" target="_top" xlink:title=" ">
<polygon fill="white" stroke="#666666" points="946.12,-304.5 849.88,-304.5 849.88,-283.75 946.12,-283.75 946.12,-304.5"/>
<text xml:space="preserve" text-anchor="middle" x="898" y="-291" font-family="Helvetica,sans-Serif" font-size="10.00">motor_convert.h</text>
</a>
</g>
</g>
<!-- Node1&#45;&gt;Node27 -->
<g id="edge50_Node000001_Node000027" class="edge">
<title>Node1&#45;&gt;Node27</title>
<g id="a_edge50_Node000001_Node000027"><a xlink:title=" ">
<path fill="none" stroke="#63b8ff" d="M1167.27,-396.86C1105.5,-373.52 992.31,-330.76 934.33,-308.85"/>
<polygon fill="#63b8ff" stroke="#63b8ff" points="935.84,-305.68 925.25,-305.42 933.37,-312.23 935.84,-305.68"/>
</a>
</g>
</g>
<!-- Node28 -->
<g id="Node000028" class="node">
<title>Node28</title>
<g id="a_Node000028"><a xlink:title=" ">
<polygon fill="#e0e0e0" stroke="#999999" points="1322.5,-361.25 1273.5,-361.25 1273.5,-340.5 1322.5,-340.5 1322.5,-361.25"/>
<text xml:space="preserve" text-anchor="middle" x="1298" y="-347.75" font-family="Helvetica,sans-Serif" font-size="10.00">stdio.h</text>
</a>
</g>
</g>
<!-- Node1&#45;&gt;Node28 -->
<g id="edge54_Node000001_Node000028" class="edge">
<title>Node1&#45;&gt;Node28</title>
<g id="a_edge54_Node000001_Node000028"><a xlink:title=" ">
<path fill="none" stroke="#63b8ff" d="M1233.12,-396.94C1245.94,-388.03 1261.85,-376.99 1274.7,-368.06"/>
<polygon fill="#63b8ff" stroke="#63b8ff" points="1276.37,-371.16 1282.59,-362.58 1272.38,-365.41 1276.37,-371.16"/>
</a>
</g>
</g>
<!-- Node29 -->
<g id="Node000029" class="node">
<title>Node29</title>
<g id="a_Node000029"><a xlink:href="sync__wait_8h.html" target="_top" xlink:title=" ">
<polygon fill="white" stroke="#666666" points="1304.88,-191 1231.12,-191 1231.12,-170.25 1304.88,-170.25 1304.88,-191"/>
<text xml:space="preserve" text-anchor="middle" x="1268" y="-177.5" font-family="Helvetica,sans-Serif" font-size="10.00">sync_wait.h</text>
</a>
</g>
</g>
<!-- Node1&#45;&gt;Node29 -->
<g id="edge55_Node000001_Node000029" class="edge">
<title>Node1&#45;&gt;Node29</title>
<g id="a_edge55_Node000001_Node000029"><a xlink:title=" ">
<path fill="none" stroke="#63b8ff" d="M1215.34,-396.77C1218.6,-386.62 1222.75,-373.23 1226,-361.25 1241.46,-304.24 1256.44,-236.14 1263.61,-202.52"/>
<polygon fill="#63b8ff" stroke="#63b8ff" points="1267,-203.41 1265.65,-192.9 1260.15,-201.96 1267,-203.41"/>
</a>
</g>
</g>
<!-- Node3 -->
<g id="Node000003" class="node">
<title>Node3</title>
<g id="a_Node000003"><a xlink:title=" ">
<polygon fill="#e0e0e0" stroke="#999999" points="1141.75,-77.5 1070.25,-77.5 1070.25,-56.75 1141.75,-56.75 1141.75,-77.5"/>
<text xml:space="preserve" text-anchor="middle" x="1106" y="-64" font-family="Helvetica,sans-Serif" font-size="10.00">FreeRTOS.h</text>
</a>
</g>
</g>
<!-- Node2&#45;&gt;Node3 -->
<g id="edge2_Node000002_Node000003" class="edge">
<title>Node2&#45;&gt;Node3</title>
<g id="a_edge2_Node000002_Node000003"><a xlink:title=" ">
<path fill="none" stroke="#63b8ff" d="M1315.94,-113.02C1270.02,-103.2 1199.84,-88.19 1153.44,-78.27"/>
<polygon fill="#63b8ff" stroke="#63b8ff" points="1154.18,-74.85 1143.67,-76.18 1152.71,-81.69 1154.18,-74.85"/>
</a>
</g>
</g>
<!-- Node4 -->
<g id="Node000004" class="node">
<title>Node4</title>
<g id="a_Node000004"><a xlink:title=" ">
<polygon fill="#e0e0e0" stroke="#999999" points="716.5,-20.75 631.5,-20.75 631.5,0 716.5,0 716.5,-20.75"/>
<text xml:space="preserve" text-anchor="middle" x="674" y="-7.25" font-family="Helvetica,sans-Serif" font-size="10.00">fsl_common.h</text>
</a>
</g>
</g>
<!-- Node2&#45;&gt;Node4 -->
<g id="edge3_Node000002_Node000004" class="edge">
<title>Node2&#45;&gt;Node4</title>
<g id="a_edge3_Node000002_Node000004"><a xlink:title=" ">
<path fill="none" stroke="#63b8ff" d="M1355.32,-113.07C1344.34,-97.89 1320.89,-69.16 1293,-56.75 1192.66,-12.1 859.63,-9.79 728.11,-10.7"/>
<polygon fill="#63b8ff" stroke="#63b8ff" points="728.25,-7.2 718.28,-10.78 728.3,-14.2 728.25,-7.2"/>
</a>
</g>
</g>
<!-- Node6 -->
<g id="Node000006" class="node">
<title>Node6</title>
<g id="a_Node000006"><a xlink:title=" ">
<polygon fill="#e0e0e0" stroke="#999999" points="940.38,-77.5 887.62,-77.5 887.62,-56.75 940.38,-56.75 940.38,-77.5"/>
<text xml:space="preserve" text-anchor="middle" x="914" y="-64" font-family="Helvetica,sans-Serif" font-size="10.00">stdint.h</text>
</a>
</g>
</g>
<!-- Node5&#45;&gt;Node6 -->
<g id="edge5_Node000005_Node000006" class="edge">
<title>Node5&#45;&gt;Node6</title>
<g id="a_edge5_Node000005_Node000006"><a xlink:title=" ">
<path fill="none" stroke="#63b8ff" d="M1172.14,-340.18C1163.17,-318.38 1139.23,-264.45 1108,-227 1094.01,-210.23 982.75,-122.12 935.31,-84.83"/>
<polygon fill="#63b8ff" stroke="#63b8ff" points="937.68,-82.24 927.65,-78.82 933.36,-87.75 937.68,-82.24"/>
</a>
</g>
</g>
<!-- Node7 -->
<g id="Node000007" class="node">
<title>Node7</title>
<g id="a_Node000007"><a xlink:href="motor__internal_8h.html" target="_top" xlink:title=" ">
<polygon fill="white" stroke="#666666" points="1119.5,-304.5 1022.5,-304.5 1022.5,-283.75 1119.5,-283.75 1119.5,-304.5"/>
<text xml:space="preserve" text-anchor="middle" x="1071" y="-291" font-family="Helvetica,sans-Serif" font-size="10.00">motor_internal.h</text>
</a>
</g>
</g>
<!-- Node5&#45;&gt;Node7 -->
<g id="edge6_Node000005_Node000007" class="edge">
<title>Node5&#45;&gt;Node7</title>
<g id="a_edge6_Node000005_Node000007"><a xlink:title=" ">
<path fill="none" stroke="#63b8ff" d="M1157.23,-340.09C1141.25,-331.76 1118.05,-319.66 1099.74,-310.11"/>
<polygon fill="#63b8ff" stroke="#63b8ff" points="1101.44,-307.05 1090.95,-305.53 1098.2,-313.26 1101.44,-307.05"/>
</a>
</g>
</g>
<!-- Node7&#45;&gt;Node3 -->
<g id="edge47_Node000007_Node000003" class="edge">
<title>Node7&#45;&gt;Node3</title>
<g id="a_edge47_Node000007_Node000003"><a xlink:title=" ">
<path fill="none" stroke="#63b8ff" d="M1087.52,-283.33C1099.55,-275.3 1115.23,-262.83 1124,-247.75 1149.85,-203.34 1141.09,-185.4 1146,-134.25 1146.88,-125.07 1149.26,-122.13 1146,-113.5 1141.97,-102.82 1134.15,-93.03 1126.48,-85.3"/>
<polygon fill="#63b8ff" stroke="#63b8ff" points="1129.22,-83.07 1119.52,-78.81 1124.45,-88.19 1129.22,-83.07"/>
</a>
</g>
</g>
<!-- Node7&#45;&gt;Node6 -->
<g id="edge7_Node000007_Node000006" class="edge">
<title>Node7&#45;&gt;Node6</title>
<g id="a_edge7_Node000007_Node000006"><a xlink:title=" ">
<path fill="none" stroke="#63b8ff" d="M1022.08,-284.74C998.94,-278.34 972.76,-267.16 956,-247.75 953.37,-244.7 928.96,-135.64 918.61,-88.97"/>
<polygon fill="#63b8ff" stroke="#63b8ff" points="922.05,-88.32 916.47,-79.31 915.22,-89.83 922.05,-88.32"/>
</a>
</g>
</g>
<!-- Node8 -->
<g id="Node000008" class="node">
<title>Node8</title>
<g id="a_Node000008"><a xlink:title=" ">
<polygon fill="#e0e0e0" stroke="#999999" points="1025.5,-247.75 964.5,-247.75 964.5,-227 1025.5,-227 1025.5,-247.75"/>
<text xml:space="preserve" text-anchor="middle" x="995" y="-234.25" font-family="Helvetica,sans-Serif" font-size="10.00">stdbool.h</text>
</a>
</g>
</g>
<!-- Node7&#45;&gt;Node8 -->
<g id="edge8_Node000007_Node000008" class="edge">
<title>Node7&#45;&gt;Node8</title>
<g id="a_edge8_Node000007_Node000008"><a xlink:title=" ">
<path fill="none" stroke="#63b8ff" d="M1057.41,-283.34C1046.39,-275.4 1030.61,-264.03 1017.68,-254.71"/>
<polygon fill="#63b8ff" stroke="#63b8ff" points="1019.86,-251.97 1009.7,-248.96 1015.77,-257.65 1019.86,-251.97"/>
</a>
</g>
</g>
<!-- Node9 -->
<g id="Node000009" class="node">
<title>Node9</title>
<g id="a_Node000009"><a xlink:href="motor__core_8h.html" target="_top" xlink:title=" ">
<polygon fill="white" stroke="#666666" points="643.25,-247.75 562.75,-247.75 562.75,-227 643.25,-227 643.25,-247.75"/>
<text xml:space="preserve" text-anchor="middle" x="603" y="-234.25" font-family="Helvetica,sans-Serif" font-size="10.00">motor_core.h</text>
</a>
</g>
</g>
<!-- Node7&#45;&gt;Node9 -->
<g id="edge9_Node000007_Node000009" class="edge">
<title>Node7&#45;&gt;Node9</title>
<g id="a_edge9_Node000007_Node000009"><a xlink:title=" ">
<path fill="none" stroke="#63b8ff" d="M1022.24,-287.42C933.42,-277.03 746.05,-255.11 654.94,-244.45"/>
<polygon fill="#63b8ff" stroke="#63b8ff" points="655.37,-240.98 645.04,-243.29 654.56,-247.93 655.37,-240.98"/>
</a>
</g>
</g>
<!-- Node18 -->
<g id="Node000018" class="node">
<title>Node18</title>
<g id="a_Node000018"><a xlink:href="cmd__handle_8h.html" target="_top" xlink:title=" ">
<polygon fill="white" stroke="#666666" points="1137.12,-134.25 1052.88,-134.25 1052.88,-113.5 1137.12,-113.5 1137.12,-134.25"/>
<text xml:space="preserve" text-anchor="middle" x="1095" y="-120.75" font-family="Helvetica,sans-Serif" font-size="10.00">cmd_handle.h</text>
</a>
</g>
</g>
<!-- Node7&#45;&gt;Node18 -->
<g id="edge49_Node000007_Node000018" class="edge">
<title>Node7&#45;&gt;Node18</title>
<g id="a_edge49_Node000007_Node000018"><a xlink:title=" ">
<path fill="none" stroke="#63b8ff" d="M1082.51,-283.28C1091.38,-274.87 1102.95,-261.92 1108,-247.75 1120.3,-213.19 1110.37,-169.97 1102.41,-145.08"/>
<polygon fill="#63b8ff" stroke="#63b8ff" points="1105.82,-144.21 1099.27,-135.89 1099.19,-146.48 1105.82,-144.21"/>
</a>
</g>
</g>
<!-- Node26 -->
<g id="Node000026" class="node">
<title>Node26</title>
<g id="a_Node000026"><a xlink:title=" ">
<polygon fill="#e0e0e0" stroke="#999999" points="1098.5,-247.75 1043.5,-247.75 1043.5,-227 1098.5,-227 1098.5,-247.75"/>
<text xml:space="preserve" text-anchor="middle" x="1071" y="-234.25" font-family="Helvetica,sans-Serif" font-size="10.00">queue.h</text>
</a>
</g>
</g>
<!-- Node7&#45;&gt;Node26 -->
<g id="edge48_Node000007_Node000026" class="edge">
<title>Node7&#45;&gt;Node26</title>
<g id="a_edge48_Node000007_Node000026"><a xlink:title=" ">
<path fill="none" stroke="#63b8ff" d="M1071,-283.34C1071,-276.72 1071,-267.72 1071,-259.52"/>
<polygon fill="#63b8ff" stroke="#63b8ff" points="1074.5,-259.59 1071,-249.59 1067.5,-259.59 1074.5,-259.59"/>
</a>
</g>
</g>
<!-- Node10 -->
<g id="Node000010" class="node">
<title>Node10</title>
<g id="a_Node000010"><a xlink:href="pca9555a_8h.html" target="_top" xlink:title=" ">
<polygon fill="white" stroke="#666666" points="154,-77.5 0,-77.5 0,-56.75 154,-56.75 154,-77.5"/>
<text xml:space="preserve" text-anchor="middle" x="77" y="-64" font-family="Helvetica,sans-Serif" font-size="10.00">driver/pca9555a/pca9555a.h</text>
</a>
</g>
</g>
<!-- Node9&#45;&gt;Node10 -->
<g id="edge10_Node000009_Node000010" class="edge">
<title>Node9&#45;&gt;Node10</title>
<g id="a_edge10_Node000009_Node000010"><a xlink:title=" ">
<path fill="none" stroke="#63b8ff" d="M562.27,-234.87C474.51,-231.11 270.49,-219.49 208,-191 156.2,-167.38 111.65,-114.95 90.36,-86.82"/>
<polygon fill="#63b8ff" stroke="#63b8ff" points="93.25,-84.84 84.5,-78.87 87.62,-89 93.25,-84.84"/>
</a>
</g>
</g>
<!-- Node12 -->
<g id="Node000012" class="node">
<title>Node12</title>
<g id="a_Node000012"><a xlink:title=" ">
<polygon fill="#e0e0e0" stroke="#999999" points="647.38,-191 558.62,-191 558.62,-170.25 647.38,-170.25 647.38,-191"/>
<text xml:space="preserve" text-anchor="middle" x="603" y="-177.5" font-family="Helvetica,sans-Serif" font-size="10.00">MK22F51212.h</text>
</a>
</g>
</g>
<!-- Node9&#45;&gt;Node12 -->
<g id="edge13_Node000009_Node000012" class="edge">
<title>Node9&#45;&gt;Node12</title>
<g id="a_edge13_Node000009_Node000012"><a xlink:title=" ">
<path fill="none" stroke="#63b8ff" d="M603,-226.59C603,-219.97 603,-210.97 603,-202.77"/>
<polygon fill="#63b8ff" stroke="#63b8ff" points="606.5,-202.84 603,-192.84 599.5,-202.84 606.5,-202.84"/>
</a>
</g>
</g>
<!-- Node9&#45;&gt;Node13 -->
<g id="edge14_Node000009_Node000013" class="edge">
<title>Node9&#45;&gt;Node13</title>
<g id="a_edge14_Node000009_Node000013"><a xlink:title=" ">
<path fill="none" stroke="#63b8ff" d="M578.69,-226.59C557.22,-217.94 525.68,-205.25 501.59,-195.55"/>
<polygon fill="#63b8ff" stroke="#63b8ff" points="503.09,-192.38 492.51,-191.89 500.48,-198.88 503.09,-192.38"/>
</a>
</g>
</g>
<!-- Node15 -->
<g id="Node000015" class="node">
<title>Node15</title>
<g id="a_Node000015"><a xlink:title=" ">
<polygon fill="#e0e0e0" stroke="#999999" points="230.38,-77.5 171.62,-77.5 171.62,-56.75 230.38,-56.75 230.38,-77.5"/>
<text xml:space="preserve" text-anchor="middle" x="201" y="-64" font-family="Helvetica,sans-Serif" font-size="10.00">fsl_ftm.h</text>
</a>
</g>
</g>
<!-- Node9&#45;&gt;Node15 -->
<g id="edge44_Node000009_Node000015" class="edge">
<title>Node9&#45;&gt;Node15</title>
<g id="a_edge44_Node000009_Node000015"><a xlink:title=" ">
<path fill="none" stroke="#63b8ff" d="M562.36,-233.43C461.66,-225.19 205.05,-198.22 154,-134.25 140.83,-117.75 159.19,-97.91 176.68,-84.29"/>
<polygon fill="#63b8ff" stroke="#63b8ff" points="178.34,-87.41 184.35,-78.68 174.21,-81.76 178.34,-87.41"/>
</a>
</g>
</g>
<!-- Node16 -->
<g id="Node000016" class="node">
<title>Node16</title>
<g id="a_Node000016"><a xlink:title=" ">
<polygon fill="#e0e0e0" stroke="#999999" points="527.62,-77.5 464.38,-77.5 464.38,-56.75 527.62,-56.75 527.62,-77.5"/>
<text xml:space="preserve" text-anchor="middle" x="496" y="-64" font-family="Helvetica,sans-Serif" font-size="10.00">fsl_gpio.h</text>
</a>
</g>
</g>
<!-- Node9&#45;&gt;Node16 -->
<g id="edge45_Node000009_Node000016" class="edge">
<title>Node9&#45;&gt;Node16</title>
<g id="a_edge45_Node000009_Node000016"><a xlink:title=" ">
<path fill="none" stroke="#63b8ff" d="M588.36,-226.65C576.73,-218.31 560.68,-205.4 550,-191 526.13,-158.84 509.97,-114.48 501.93,-88.79"/>
<polygon fill="#63b8ff" stroke="#63b8ff" points="505.3,-87.84 499.07,-79.27 498.59,-89.85 505.3,-87.84"/>
</a>
</g>
</g>
<!-- Node17 -->
<g id="Node000017" class="node">
<title>Node17</title>
<g id="a_Node000017"><a xlink:title=" ">
<polygon fill="#e0e0e0" stroke="#999999" points="607.88,-77.5 546.12,-77.5 546.12,-56.75 607.88,-56.75 607.88,-77.5"/>
<text xml:space="preserve" text-anchor="middle" x="577" y="-64" font-family="Helvetica,sans-Serif" font-size="10.00">fsl_port.h</text>
</a>
</g>
</g>
<!-- Node9&#45;&gt;Node17 -->
<g id="edge46_Node000009_Node000017" class="edge">
<title>Node9&#45;&gt;Node17</title>
<g id="a_edge46_Node000009_Node000017"><a xlink:title=" ">
<path fill="none" stroke="#63b8ff" d="M621.15,-226.52C633.51,-218.7 648.86,-206.51 656,-191 659.86,-182.62 658.98,-178.98 656,-170.25 644.25,-135.85 615.69,-104.05 596.32,-85.36"/>
<polygon fill="#63b8ff" stroke="#63b8ff" points="598.97,-83.05 589.28,-78.77 594.19,-88.16 598.97,-83.05"/>
</a>
</g>
</g>
<!-- Node23 -->
<g id="Node000023" class="node">
<title>Node23</title>
<g id="a_Node000023"><a xlink:href="tmc2209__core_8h.html" target="_top" xlink:title=" ">
<polygon fill="white" stroke="#666666" points="800,-191 706,-191 706,-170.25 800,-170.25 800,-191"/>
<text xml:space="preserve" text-anchor="middle" x="753" y="-177.5" font-family="Helvetica,sans-Serif" font-size="10.00">tmc2209_core.h</text>
</a>
</g>
</g>
<!-- Node9&#45;&gt;Node23 -->
<g id="edge36_Node000009_Node000023" class="edge">
<title>Node9&#45;&gt;Node23</title>
<g id="a_edge36_Node000009_Node000023"><a xlink:title=" ">
<path fill="none" stroke="#63b8ff" d="M629.82,-226.59C653.74,-217.86 689,-204.98 715.68,-195.25"/>
<polygon fill="#63b8ff" stroke="#63b8ff" points="716.55,-198.66 724.74,-191.94 714.15,-192.08 716.55,-198.66"/>
</a>
</g>
</g>
<!-- Node10&#45;&gt;Node4 -->
<g id="edge11_Node000010_Node000004" class="edge">
<title>Node10&#45;&gt;Node4</title>
<g id="a_edge11_Node000010_Node000004"><a xlink:title=" ">
<path fill="none" stroke="#63b8ff" d="M154.35,-57.62C157.27,-57.32 160.16,-57.03 163,-56.75 329.38,-40.3 526.52,-23.57 619.85,-15.83"/>
<polygon fill="#63b8ff" stroke="#63b8ff" points="620.05,-19.32 629.73,-15.01 619.48,-12.34 620.05,-19.32"/>
</a>
</g>
</g>
<!-- Node11 -->
<g id="Node000011" class="node">
<title>Node11</title>
<g id="a_Node000011"><a xlink:title=" ">
<polygon fill="#e0e0e0" stroke="#999999" points="207.88,-20.75 128.12,-20.75 128.12,0 207.88,0 207.88,-20.75"/>
<text xml:space="preserve" text-anchor="middle" x="168" y="-7.25" font-family="Helvetica,sans-Serif" font-size="10.00">peripherals.h</text>
</a>
</g>
</g>
<!-- Node10&#45;&gt;Node11 -->
<g id="edge12_Node000010_Node000011" class="edge">
<title>Node10&#45;&gt;Node11</title>
<g id="a_edge12_Node000010_Node000011"><a xlink:title=" ">
<path fill="none" stroke="#63b8ff" d="M93.27,-56.34C106.86,-48.16 126.47,-36.36 142.2,-26.9"/>
<polygon fill="#63b8ff" stroke="#63b8ff" points="143.81,-30.01 150.57,-21.86 140.2,-24.02 143.81,-30.01"/>
</a>
</g>
</g>
<!-- Node13&#45;&gt;Node3 -->
<g id="edge16_Node000013_Node000003" class="edge">
<title>Node13&#45;&gt;Node3</title>
<g id="a_edge16_Node000013_Node000003"><a xlink:title=" ">
<path fill="none" stroke="#63b8ff" d="M503.46,-175.33C580.24,-166.21 756.45,-144.89 816,-134.25 902.5,-118.8 1002.13,-94.68 1059.22,-80.23"/>
<polygon fill="#63b8ff" stroke="#63b8ff" points="1059.76,-83.71 1068.59,-77.85 1058.04,-76.92 1059.76,-83.71"/>
</a>
</g>
</g>
<!-- Node13&#45;&gt;Node4 -->
<g id="edge18_Node000013_Node000004" class="edge">
<title>Node13&#45;&gt;Node4</title>
<g id="a_edge18_Node000013_Node000004"><a xlink:title=" ">
<path fill="none" stroke="#63b8ff" d="M484.29,-169.98C513.41,-153.29 573.31,-117.02 617,-77.5 633.1,-62.94 649.03,-43.97 659.94,-30.09"/>
<polygon fill="#63b8ff" stroke="#63b8ff" points="662.67,-32.27 666,-22.21 657.13,-28 662.67,-32.27"/>
</a>
</g>
</g>
<!-- Node13&#45;&gt;Node10 -->
<g id="edge15_Node000013_Node000010" class="edge">
<title>Node13&#45;&gt;Node10</title>
<g id="a_edge15_Node000013_Node000010"><a xlink:title=" ">
<path fill="none" stroke="#63b8ff" d="M430.69,-174.73C388.35,-168.34 316.68,-155.41 258,-134.25 239.16,-127.45 236.49,-121.21 218,-113.5 187.44,-100.76 151.95,-89.36 124.22,-81.17"/>
<polygon fill="#63b8ff" stroke="#63b8ff" points="125.27,-77.83 114.69,-78.4 123.31,-84.55 125.27,-77.83"/>
</a>
</g>
</g>
<!-- Node14 -->
<g id="Node000014" class="node">
<title>Node14</title>
<g id="a_Node000014"><a xlink:title=" ">
<polygon fill="#e0e0e0" stroke="#999999" points="209,-134.25 163,-134.25 163,-113.5 209,-113.5 209,-134.25"/>
<text xml:space="preserve" text-anchor="middle" x="186" y="-120.75" font-family="Helvetica,sans-Serif" font-size="10.00">task.h</text>
</a>
</g>
</g>
<!-- Node13&#45;&gt;Node14 -->
<g id="edge17_Node000013_Node000014" class="edge">
<title>Node13&#45;&gt;Node14</title>
<g id="a_edge17_Node000013_Node000014"><a xlink:title=" ">
<path fill="none" stroke="#63b8ff" d="M430.47,-173.59C382.63,-165.51 296.23,-150.32 223,-134.25 222.17,-134.07 221.34,-133.88 220.5,-133.69"/>
<polygon fill="#63b8ff" stroke="#63b8ff" points="221.45,-130.32 210.91,-131.41 219.82,-137.13 221.45,-130.32"/>
</a>
</g>
</g>
<!-- Node13&#45;&gt;Node15 -->
<g id="edge19_Node000013_Node000015" class="edge">
<title>Node13&#45;&gt;Node15</title>
<g id="a_edge19_Node000013_Node000015"><a xlink:title=" ">
<path fill="none" stroke="#63b8ff" d="M430.41,-173.36C395.55,-166.57 342.14,-153.97 299,-134.25 270.23,-121.1 240.58,-99.81 221.53,-84.96"/>
<polygon fill="#63b8ff" stroke="#63b8ff" points="223.79,-82.28 213.79,-78.79 219.43,-87.76 223.79,-82.28"/>
</a>
</g>
</g>
<!-- Node13&#45;&gt;Node16 -->
<g id="edge20_Node000013_Node000016" class="edge">
<title>Node13&#45;&gt;Node16</title>
<g id="a_edge20_Node000013_Node000016"><a xlink:title=" ">
<path fill="none" stroke="#63b8ff" d="M468.18,-170.09C469.92,-157.13 473.54,-133.3 479,-113.5 481.32,-105.1 484.54,-96.07 487.56,-88.29"/>
<polygon fill="#63b8ff" stroke="#63b8ff" points="490.77,-89.68 491.27,-79.1 484.28,-87.06 490.77,-89.68"/>
</a>
</g>
</g>
<!-- Node13&#45;&gt;Node17 -->
<g id="edge21_Node000013_Node000017" class="edge">
<title>Node13&#45;&gt;Node17</title>
<g id="a_edge21_Node000013_Node000017"><a xlink:title=" ">
<path fill="none" stroke="#63b8ff" d="M476.38,-170.12C494.8,-151.45 535.94,-109.74 559.52,-85.85"/>
<polygon fill="#63b8ff" stroke="#63b8ff" points="561.74,-88.58 566.27,-79 556.75,-83.66 561.74,-88.58"/>
</a>
</g>
</g>
<!-- Node13&#45;&gt;Node18 -->
<g id="edge22_Node000013_Node000018" class="edge">
<title>Node13&#45;&gt;Node18</title>
<g id="a_edge22_Node000013_Node000018"><a xlink:title=" ">
<path fill="none" stroke="#63b8ff" d="M503.34,-175.29C517.84,-173.62 534.7,-171.75 550,-170.25 729.79,-152.62 943.38,-136.13 1041.21,-128.83"/>
<polygon fill="#63b8ff" stroke="#63b8ff" points="1041.34,-132.33 1051.05,-128.09 1040.82,-125.35 1041.34,-132.33"/>
</a>
</g>
</g>
<!-- Node21 -->
<g id="Node000021" class="node">
<title>Node21</title>
<g id="a_Node000021"><a xlink:href="step__shared_8h.html" target="_top" xlink:title=" ">
<polygon fill="white" stroke="#666666" points="427.12,-134.25 342.88,-134.25 342.88,-113.5 427.12,-113.5 427.12,-134.25"/>
<text xml:space="preserve" text-anchor="middle" x="385" y="-120.75" font-family="Helvetica,sans-Serif" font-size="10.00">step_shared.h</text>
</a>
</g>
</g>
<!-- Node13&#45;&gt;Node21 -->
<g id="edge28_Node000013_Node000021" class="edge">
<title>Node13&#45;&gt;Node21</title>
<g id="a_edge28_Node000013_Node000021"><a xlink:title=" ">
<path fill="none" stroke="#63b8ff" d="M452.34,-169.84C440.33,-161.82 423.09,-150.31 409.06,-140.94"/>
<polygon fill="#63b8ff" stroke="#63b8ff" points="411.05,-138.06 400.79,-135.42 407.16,-143.88 411.05,-138.06"/>
</a>
</g>
</g>
<!-- Node18&#45;&gt;Node3 -->
<g id="edge24_Node000018_Node000003" class="edge">
<title>Node18&#45;&gt;Node3</title>
<g id="a_edge24_Node000018_Node000003"><a xlink:title=" ">
<path fill="none" stroke="#63b8ff" d="M1096.97,-113.09C1098.31,-106.39 1100.15,-97.26 1101.81,-88.98"/>
<polygon fill="#63b8ff" stroke="#63b8ff" points="1105.21,-89.81 1103.75,-79.31 1098.35,-88.43 1105.21,-89.81"/>
</a>
</g>
</g>
<!-- Node18&#45;&gt;Node4 -->
<g id="edge26_Node000018_Node000004" class="edge">
<title>Node18&#45;&gt;Node4</title>
<g id="a_edge26_Node000018_Node000004"><a xlink:title=" ">
<path fill="none" stroke="#63b8ff" d="M1087.64,-113.01C1075.85,-98.02 1051.15,-69.87 1023,-56.75 971.89,-32.93 813.07,-19.87 728.41,-14.44"/>
<polygon fill="#63b8ff" stroke="#63b8ff" points="728.69,-10.95 718.49,-13.82 728.25,-17.94 728.69,-10.95"/>
</a>
</g>
</g>
<!-- Node18&#45;&gt;Node6 -->
<g id="edge23_Node000018_Node000006" class="edge">
<title>Node18&#45;&gt;Node6</title>
<g id="a_edge23_Node000018_Node000006"><a xlink:title=" ">
<path fill="none" stroke="#63b8ff" d="M1062.64,-113.09C1031.53,-103.68 984.53,-89.46 951.74,-79.54"/>
<polygon fill="#63b8ff" stroke="#63b8ff" points="952.81,-76.21 942.23,-76.66 950.78,-82.91 952.81,-76.21"/>
</a>
</g>
</g>
<!-- Node19 -->
<g id="Node000019" class="node">
<title>Node19</title>
<g id="a_Node000019"><a xlink:title=" ">
<polygon fill="#e0e0e0" stroke="#999999" points="1250.5,-77.5 1159.5,-77.5 1159.5,-56.75 1250.5,-56.75 1250.5,-77.5"/>
<text xml:space="preserve" text-anchor="middle" x="1205" y="-64" font-family="Helvetica,sans-Serif" font-size="10.00">event_groups.h</text>
</a>
</g>
</g>
<!-- Node18&#45;&gt;Node19 -->
<g id="edge25_Node000018_Node000019" class="edge">
<title>Node18&#45;&gt;Node19</title>
<g id="a_edge25_Node000018_Node000019"><a xlink:title=" ">
<path fill="none" stroke="#63b8ff" d="M1114.67,-113.09C1131.56,-104.68 1156.17,-92.43 1175.43,-82.84"/>
<polygon fill="#63b8ff" stroke="#63b8ff" points="1176.76,-86.09 1184.15,-78.5 1173.64,-79.83 1176.76,-86.09"/>
</a>
</g>
</g>
<!-- Node20 -->
<g id="Node000020" class="node">
<title>Node20</title>
<g id="a_Node000020"><a xlink:title=" ">
<polygon fill="#e0e0e0" stroke="#999999" points="1014,-77.5 962,-77.5 962,-56.75 1014,-56.75 1014,-77.5"/>
<text xml:space="preserve" text-anchor="middle" x="988" y="-64" font-family="Helvetica,sans-Serif" font-size="10.00">stdlib.h</text>
</a>
</g>
</g>
<!-- Node18&#45;&gt;Node20 -->
<g id="edge27_Node000018_Node000020" class="edge">
<title>Node18&#45;&gt;Node20</title>
<g id="a_edge27_Node000018_Node000020"><a xlink:title=" ">
<path fill="none" stroke="#63b8ff" d="M1075.87,-113.09C1059.51,-104.72 1035.72,-92.54 1017.02,-82.97"/>
<polygon fill="#63b8ff" stroke="#63b8ff" points="1018.81,-79.96 1008.31,-78.52 1015.62,-86.19 1018.81,-79.96"/>
</a>
</g>
</g>
<!-- Node21&#45;&gt;Node4 -->
<g id="edge32_Node000021_Node000004" class="edge">
<title>Node21&#45;&gt;Node4</title>
<g id="a_edge32_Node000021_Node000004"><a xlink:title=" ">
<path fill="none" stroke="#63b8ff" d="M392.4,-113.02C404.02,-98.3 428.02,-70.82 455,-56.75 507.05,-29.61 574.01,-18.7 620.11,-14.32"/>
<polygon fill="#63b8ff" stroke="#63b8ff" points="620.19,-17.82 629.85,-13.47 619.58,-10.85 620.19,-17.82"/>
</a>
</g>
</g>
<!-- Node21&#45;&gt;Node6 -->
<g id="edge29_Node000021_Node000006" class="edge">
<title>Node21&#45;&gt;Node6</title>
<g id="a_edge29_Node000021_Node000006"><a xlink:title=" ">
<path fill="none" stroke="#63b8ff" d="M427.4,-118.49C528.01,-108.07 779.95,-82 876,-72.06"/>
<polygon fill="#63b8ff" stroke="#63b8ff" points="876.09,-75.57 885.67,-71.06 875.36,-68.61 876.09,-75.57"/>
</a>
</g>
</g>
<!-- Node21&#45;&gt;Node10 -->
<g id="edge30_Node000021_Node000010" class="edge">
<title>Node21&#45;&gt;Node10</title>
<g id="a_edge30_Node000021_Node000010"><a xlink:title=" ">
<path fill="none" stroke="#63b8ff" d="M342.5,-115.32C291.1,-106.18 204,-90.7 143.65,-79.97"/>
<polygon fill="#63b8ff" stroke="#63b8ff" points="144.28,-76.53 133.82,-78.23 143.05,-83.42 144.28,-76.53"/>
</a>
</g>
</g>
<!-- Node21&#45;&gt;Node15 -->
<g id="edge33_Node000021_Node000015" class="edge">
<title>Node21&#45;&gt;Node15</title>
<g id="a_edge33_Node000021_Node000015"><a xlink:title=" ">
<path fill="none" stroke="#63b8ff" d="M352.1,-113.09C321.18,-103.88 274.8,-90.08 241.59,-80.2"/>
<polygon fill="#63b8ff" stroke="#63b8ff" points="242.9,-76.94 232.32,-77.45 240.91,-83.65 242.9,-76.94"/>
</a>
</g>
</g>
<!-- Node21&#45;&gt;Node16 -->
<g id="edge34_Node000021_Node000016" class="edge">
<title>Node21&#45;&gt;Node16</title>
<g id="a_edge34_Node000021_Node000016"><a xlink:title=" ">
<path fill="none" stroke="#63b8ff" d="M404.84,-113.09C421.89,-104.68 446.72,-92.43 466.16,-82.84"/>
<polygon fill="#63b8ff" stroke="#63b8ff" points="467.55,-86.06 474.97,-78.5 464.45,-79.78 467.55,-86.06"/>
</a>
</g>
</g>
<!-- Node21&#45;&gt;Node17 -->
<g id="edge35_Node000021_Node000017" class="edge">
<title>Node21&#45;&gt;Node17</title>
<g id="a_edge35_Node000021_Node000017"><a xlink:title=" ">
<path fill="none" stroke="#63b8ff" d="M419.33,-113.09C451.74,-103.84 500.41,-89.96 535.1,-80.07"/>
<polygon fill="#63b8ff" stroke="#63b8ff" points="535.72,-83.54 544.37,-77.43 533.8,-76.8 535.72,-83.54"/>
</a>
</g>
</g>
<!-- Node22 -->
<g id="Node000022" class="node">
<title>Node22</title>
<g id="a_Node000022"><a xlink:title=" ">
<polygon fill="#e0e0e0" stroke="#999999" points="408.25,-77.5 285.75,-77.5 285.75,-56.75 408.25,-56.75 408.25,-77.5"/>
<text xml:space="preserve" text-anchor="middle" x="347" y="-64" font-family="Helvetica,sans-Serif" font-size="10.00">fsl_device_registers.h</text>
</a>
</g>
</g>
<!-- Node21&#45;&gt;Node22 -->
<g id="edge31_Node000021_Node000022" class="edge">
<title>Node21&#45;&gt;Node22</title>
<g id="a_edge31_Node000021_Node000022"><a xlink:title=" ">
<path fill="none" stroke="#63b8ff" d="M378.21,-113.09C373.23,-105.92 366.33,-95.98 360.28,-87.26"/>
<polygon fill="#63b8ff" stroke="#63b8ff" points="363.18,-85.29 354.6,-79.07 357.42,-89.28 363.18,-85.29"/>
</a>
</g>
</g>
<!-- Node23&#45;&gt;Node4 -->
<g id="edge41_Node000023_Node000004" class="edge">
<title>Node23&#45;&gt;Node4</title>
<g id="a_edge41_Node000023_Node000004"><a xlink:title=" ">
<path fill="none" stroke="#63b8ff" d="M732.61,-169.89C718.83,-162.2 701.47,-150.11 692,-134.25 673.09,-102.58 671.41,-58.36 672.39,-32.51"/>
<polygon fill="#63b8ff" stroke="#63b8ff" points="675.87,-32.82 672.95,-22.64 668.88,-32.42 675.87,-32.82"/>
</a>
</g>
</g>
<!-- Node23&#45;&gt;Node6 -->
<g id="edge37_Node000023_Node000006" class="edge">
<title>Node23&#45;&gt;Node6</title>
<g id="a_edge37_Node000023_Node000006"><a xlink:title=" ">
<path fill="none" stroke="#63b8ff" d="M767.01,-169.93C794.72,-150.73 856.8,-107.74 890.74,-84.23"/>
<polygon fill="#63b8ff" stroke="#63b8ff" points="892.44,-87.31 898.67,-78.74 888.45,-81.56 892.44,-87.31"/>
</a>
</g>
</g>
<!-- Node23&#45;&gt;Node11 -->
<g id="edge43_Node000023_Node000011" class="edge">
<title>Node23&#45;&gt;Node11</title>
<g id="a_edge43_Node000023_Node000011"><a xlink:title=" ">
<path fill="none" stroke="#63b8ff" d="M705.67,-174.86C597.84,-163.94 342.51,-137.81 334,-134.25 283.73,-113.23 283.14,-88.7 239,-56.75 224.55,-46.29 207.76,-35.5 194.14,-27.07"/>
<polygon fill="#63b8ff" stroke="#63b8ff" points="196.07,-24.15 185.72,-21.92 192.42,-30.12 196.07,-24.15"/>
</a>
</g>
</g>
<!-- Node23&#45;&gt;Node18 -->
<g id="edge42_Node000023_Node000018" class="edge">
<title>Node23&#45;&gt;Node18</title>
<g id="a_edge42_Node000023_Node000018"><a xlink:title=" ">
<path fill="none" stroke="#63b8ff" d="M800.19,-172.07C863.42,-161.95 975.31,-144.04 1041.57,-133.43"/>
<polygon fill="#63b8ff" stroke="#63b8ff" points="1041.77,-136.94 1051.1,-131.9 1040.67,-130.03 1041.77,-136.94"/>
</a>
</g>
</g>
<!-- Node24 -->
<g id="Node000024" class="node">
<title>Node24</title>
<g id="a_Node000024"><a xlink:href="tmc2209__shared_8h.html" target="_top" xlink:title=" ">
<polygon fill="white" stroke="#666666" points="807,-134.25 701,-134.25 701,-113.5 807,-113.5 807,-134.25"/>
<text xml:space="preserve" text-anchor="middle" x="754" y="-120.75" font-family="Helvetica,sans-Serif" font-size="10.00">tmc2209_shared.h</text>
</a>
</g>
</g>
<!-- Node23&#45;&gt;Node24 -->
<g id="edge38_Node000023_Node000024" class="edge">
<title>Node23&#45;&gt;Node24</title>
<g id="a_edge38_Node000023_Node000024"><a xlink:title=" ">
<path fill="none" stroke="#63b8ff" d="M753.18,-169.84C753.3,-163.22 753.46,-154.22 753.61,-146.02"/>
<polygon fill="#63b8ff" stroke="#63b8ff" points="757.11,-146.15 753.8,-136.09 750.11,-146.03 757.11,-146.15"/>
</a>
</g>
</g>
<!-- Node24&#45;&gt;Node6 -->
<g id="edge39_Node000024_Node000006" class="edge">
<title>Node24&#45;&gt;Node6</title>
<g id="a_edge39_Node000024_Node000006"><a xlink:title=" ">
<path fill="none" stroke="#63b8ff" d="M782.6,-113.09C808.79,-104.13 847.72,-90.81 876.41,-80.99"/>
<polygon fill="#63b8ff" stroke="#63b8ff" points="877.48,-84.32 885.81,-77.77 875.21,-77.7 877.48,-84.32"/>
</a>
</g>
</g>
<!-- Node25 -->
<g id="Node000025" class="node">
<title>Node25</title>
<g id="a_Node000025"><a xlink:title=" ">
<polygon fill="#e0e0e0" stroke="#999999" points="807.62,-77.5 702.38,-77.5 702.38,-56.75 807.62,-56.75 807.62,-77.5"/>
<text xml:space="preserve" text-anchor="middle" x="755" y="-64" font-family="Helvetica,sans-Serif" font-size="10.00">fsl_uart_freertos.h</text>
</a>
</g>
</g>
<!-- Node24&#45;&gt;Node25 -->
<g id="edge40_Node000024_Node000025" class="edge">
<title>Node24&#45;&gt;Node25</title>
<g id="a_edge40_Node000024_Node000025"><a xlink:title=" ">
<path fill="none" stroke="#63b8ff" d="M754.18,-113.09C754.3,-106.47 754.46,-97.47 754.61,-89.27"/>
<polygon fill="#63b8ff" stroke="#63b8ff" points="758.11,-89.4 754.8,-79.34 751.11,-89.28 758.11,-89.4"/>
</a>
</g>
</g>
<!-- Node27&#45;&gt;Node6 -->
<g id="edge51_Node000027_Node000006" class="edge">
<title>Node27&#45;&gt;Node6</title>
<g id="a_edge51_Node000027_Node000006"><a xlink:title=" ">
<path fill="none" stroke="#63b8ff" d="M898.69,-283.46C901.09,-249.63 909.17,-136.11 912.52,-88.94"/>
<polygon fill="#63b8ff" stroke="#63b8ff" points="915.99,-89.49 913.21,-79.27 909.01,-88.99 915.99,-89.49"/>
</a>
</g>
</g>
<!-- Node27&#45;&gt;Node9 -->
<g id="edge52_Node000027_Node000009" class="edge">
<title>Node27&#45;&gt;Node9</title>
<g id="a_edge52_Node000027_Node000009"><a xlink:title=" ">
<path fill="none" stroke="#63b8ff" d="M849.62,-284.15C795.9,-274.18 709.54,-258.15 654.57,-247.95"/>
<polygon fill="#63b8ff" stroke="#63b8ff" points="655.3,-244.52 644.83,-246.14 654.02,-251.4 655.3,-244.52"/>
</a>
</g>
</g>
<!-- Node29&#45;&gt;Node3 -->
<g id="edge57_Node000029_Node000003" class="edge">
<title>Node29&#45;&gt;Node3</title>
<g id="a_edge57_Node000029_Node000003"><a xlink:title=" ">
<path fill="none" stroke="#63b8ff" d="M1255.56,-169.87C1238.57,-156.67 1207.01,-132.56 1179,-113.5 1163.71,-103.1 1146.12,-92.13 1132.04,-83.59"/>
<polygon fill="#63b8ff" stroke="#63b8ff" points="1134.15,-80.78 1123.78,-78.62 1130.54,-86.77 1134.15,-80.78"/>
</a>
</g>
</g>
<!-- Node29&#45;&gt;Node4 -->
<g id="edge59_Node000029_Node000004" class="edge">
<title>Node29&#45;&gt;Node4</title>
<g id="a_edge59_Node000029_Node000004"><a xlink:title=" ">
<path fill="none" stroke="#63b8ff" d="M1271.03,-169.98C1277.66,-146.8 1290.5,-87.62 1260,-56.75 1223.07,-19.36 866.14,-12.76 728.11,-11.61"/>
<polygon fill="#63b8ff" stroke="#63b8ff" points="728.15,-8.11 718.13,-11.54 728.1,-15.11 728.15,-8.11"/>
</a>
</g>
</g>
<!-- Node29&#45;&gt;Node6 -->
<g id="edge56_Node000029_Node000006" class="edge">
<title>Node29&#45;&gt;Node6</title>
<g id="a_edge56_Node000029_Node000006"><a xlink:title=" ">
<path fill="none" stroke="#63b8ff" d="M1230.82,-172.66C1171.78,-161.52 1061.42,-140.32 1044,-134.25 1033.65,-130.65 977.87,-101.68 942.82,-83.3"/>
<polygon fill="#63b8ff" stroke="#63b8ff" points="944.5,-80.23 934.02,-78.68 941.24,-86.43 944.5,-80.23"/>
</a>
</g>
</g>
<!-- Node29&#45;&gt;Node18 -->
<g id="edge60_Node000029_Node000018" class="edge">
<title>Node29&#45;&gt;Node18</title>
<g id="a_edge60_Node000029_Node000018"><a xlink:title=" ">
<path fill="none" stroke="#63b8ff" d="M1237.07,-169.84C1209.11,-160.99 1167.72,-147.89 1136.82,-138.11"/>
<polygon fill="#63b8ff" stroke="#63b8ff" points="1137.99,-134.81 1127.4,-135.13 1135.87,-141.48 1137.99,-134.81"/>
</a>
</g>
</g>
<!-- Node29&#45;&gt;Node19 -->
<g id="edge58_Node000029_Node000019" class="edge">
<title>Node29&#45;&gt;Node19</title>
<g id="a_edge58_Node000029_Node000019"><a xlink:title=" ">
<path fill="none" stroke="#63b8ff" d="M1262.63,-170.12C1252.36,-151.94 1229.75,-111.92 1216.1,-87.77"/>
<polygon fill="#63b8ff" stroke="#63b8ff" points="1219.25,-86.23 1211.28,-79.24 1213.15,-89.67 1219.25,-86.23"/>
</a>
</g>
</g>
</g>
</svg>

<g id="navigator" transform="translate(0 0)" fill="#404254">
  <rect fill="#f2f5e9" fill-opacity="0.5" stroke="#606060" stroke-width=".5" x="0" y="0" width="60" height="60"/>
  <use id="zoomplus" xlink:href="#zoomPlus" x="17" y="9" onmousedown="handleZoom(evt,'in')"/>
  <use id="zoomminus" xlink:href="#zoomMin" x="42" y="9" onmousedown="handleZoom(evt,'out')"/>
  <use id="reset" xlink:href="#resetDef" x="30" y="36" onmousedown="handleReset()"/>
   <use id="arrowup" xlink:href="#arrowUp" x="0" y="0" onmousedown="handlePan(0,-1)"/>
  <use id="arrowright" xlink:href="#arrowRight" x="0" y="0" onmousedown="handlePan(1,0)"/>
  <use id="arrowdown" xlink:href="#arrowDown" x="0" y="0" onmousedown="handlePan(0,1)"/>
  <use id="arrowleft" xlink:href="#arrowLeft" x="0" y="0" onmousedown="handlePan(-1,0)"/>
</g>
<svg viewBox="0 0 15 15" width="100%" height="30px" preserveAspectRatio="xMaxYMin meet">
 <g id="arrow_out" transform="scale(0.3 0.3)">
  <a xlink:href="motor__sync_8c__incl_org.svg" target="_base">
   <rect id="button" ry="5" rx="5" y="6" x="6" height="38" width="38"
        fill="#f2f5e9" fill-opacity="0.5" stroke="#606060" stroke-width="1.0"/>
   <path id="arrow"
     d="M 11.500037,31.436501 C 11.940474,20.09759 22.043105,11.32322 32.158766,21.979434 L 37.068811,17.246167 C 37.068811,17.246167 37.088388,32 37.088388,32 L 22.160133,31.978069 C 22.160133,31.978069 26.997745,27.140456 26.997745,27.140456 C 18.528582,18.264221 13.291696,25.230495 11.500037,31.436501 z"
     style="fill:#404040;"/>
  </a>
 </g>
</svg>

<style type='text/css'>
<![CDATA[
[data-mouse-over-selected='false'] { opacity: 0.7; }
[data-mouse-over-selected='true']  { opacity: 1.0; }
]]>
</style>
<script type="application/ecmascript"><![CDATA[
document.addEventListener('DOMContentLoaded', (event) => {
  highlightEdges();
  highlightAdjacentNodes();
});
]]></script>
</svg>
