<?xml version="1.0" encoding="UTF-8" standalone="no"?>
<!DOCTYPE svg PUBLIC "-//W3C//DTD SVG 1.1//EN"
 "http://www.w3.org/Graphics/SVG/1.1/DTD/svg11.dtd">
<!-- Generated by graphviz version 14.1.4 (0)
 -->
<!-- Title: source/motor.h Pages: 1 -->
<!--zoomable 256 -->

<svg id="main" version="1.1" xmlns="http://www.w3.org/2000/svg" xmlns:xlink="http://www.w3.org/1999/xlink" xml:space="preserve" onload="init(evt)">

<style type="text/css"><![CDATA[
.node, .edge {opacity: 0.7;}
.node.selected, .edge.selected {opacity: 1;}
.edge:hover path { stroke: red; }
.edge:hover polygon { stroke: red; fill: red; }
]]></style>

<defs>
  <circle id="rim" cx="0" cy="0" r="7"/>
  <circle id="rim2" cx="0" cy="0" r="3.5"/>
  <g id="zoomPlus">
    <use xlink:href="#rim" fill="#404040"><set attributeName="fill" to="#808080" begin="zoomplus.mouseover" end="zoomplus.mouseout"/></use>
    <path d="M-4,0h8M0,-4v8" fill="none" stroke="white" stroke-width="1.5" pointer-events="none"/>
  </g>
  <g id="zoomMin">
    <use xlink:href="#rim" fill="#404040"><set attributeName="fill" to="#808080" begin="zoomminus.mouseover" end="zoomminus.mouseout"/></use>
    <path d="M-4,0h8" fill="none" stroke="white" stroke-width="1.5" pointer-events="none"/>
  </g>
  <g id="arrowUp" transform="translate(30 24)">
    <use xlink:href="#rim"/>
    <path pointer-events="none" fill="none" stroke="white" stroke-width="1.5" d="M0,-3.0v7 M-2.5,-0.5L0,-3.0L2.5,-0.5"/>
  </g>
  <g id="arrowRight" transform="rotate(90) translate(36 -43)">
    <use xlink:href="#rim"/>
    <path pointer-events="none" fill="none" stroke="white" stroke-width="1.5" d="M0,-3.0v7 M-2.5,-0.5L0,-3.0L2.5,-0.5"/>
  </g>
  <g id="arrowDown" transform="rotate(180) translate(-30 -48)">
    <use xlink:href="#rim"/>
    <path pointer-events="none" fill="none" stroke="white" stroke-width="1.5" d="M0,-3.0v7 M-2.5,-0.5L0,-3.0L2.5,-0.5"/>
  </g>
  <g id="arrowLeft" transform="rotate(270) translate(-36 17)">
    <use xlink:href="#rim"/>
    <path pointer-events="none" fill="none" stroke="white" stroke-width="1.5" d="M0,-3.0v7 M-2.5,-0.5L0,-3.0L2.5,-0.5"/>
  </g>
  <g id="resetDef">
    <use xlink:href="#rim2" fill="#404040"><set attributeName="fill" to="#808080" begin="reset.mouseover" end="reset.mouseout"/></use>
  </g>
</defs>
<script type="application/ecmascript">
var viewWidth = 838;
var viewHeight = 256;
var sectionId = 'dynsection-0';
</script>
<script type="application/ecmascript" xlink:href="svg.min.js"/>
<svg id="graph" class="graph">
<g id="viewport">
<title>source/motor.h</title>
<!-- Node1 -->
<g id="Node000001" class="node">
<title>Node1</title>
<g id="a_Node000001"><a xlink:title=" ">
<polygon fill="#999999" stroke="#666666" points="328.75,-247.75 240,-247.75 240,-227 328.75,-227 328.75,-247.75"/>
<text xml:space="preserve" text-anchor="middle" x="284.38" y="-234.25" font-family="Helvetica,sans-Serif" font-size="10.00">source/motor.h</text>
</a>
</g>
</g>
<!-- Node2 -->
<g id="Node000002" class="node">
<title>Node2</title>
<g id="a_Node000002"><a xlink:href="step_8h.html" target="_top" xlink:title=" ">
<polygon fill="white" stroke="#666666" points="237.38,-191 191.38,-191 191.38,-170.25 237.38,-170.25 237.38,-191"/>
<text xml:space="preserve" text-anchor="middle" x="214.38" y="-177.5" font-family="Helvetica,sans-Serif" font-size="10.00">step.h</text>
</a>
</g>
</g>
<!-- Node1&#45;&gt;Node2 -->
<g id="edge1_Node000001_Node000002" class="edge">
<title>Node1&#45;&gt;Node2</title>
<g id="a_edge1_Node000001_Node000002"><a xlink:title=" ">
<path fill="none" stroke="#63b8ff" d="M271.86,-226.59C261.81,-218.72 247.46,-207.5 235.62,-198.24"/>
<polygon fill="#63b8ff" stroke="#63b8ff" points="238.01,-195.66 227.97,-192.26 233.69,-201.18 238.01,-195.66"/>
</a>
</g>
</g>
<!-- Node6 -->
<g id="Node000006" class="node">
<title>Node6</title>
<g id="a_Node000006"><a xlink:title=" ">
<polygon fill="#e0e0e0" stroke="#999999" points="58.75,-134.25 0,-134.25 0,-113.5 58.75,-113.5 58.75,-134.25"/>
<text xml:space="preserve" text-anchor="middle" x="29.38" y="-120.75" font-family="Helvetica,sans-Serif" font-size="10.00">fsl_ftm.h</text>
</a>
</g>
</g>
<!-- Node1&#45;&gt;Node6 -->
<g id="edge26_Node000001_Node000006" class="edge">
<title>Node1&#45;&gt;Node6</title>
<g id="a_edge26_Node000001_Node000006"><a xlink:title=" ">
<path fill="none" stroke="#63b8ff" d="M262.19,-226.68C217.17,-206.99 114.88,-162.26 62.15,-139.21"/>
<polygon fill="#63b8ff" stroke="#63b8ff" points="63.64,-136.04 53.08,-135.24 60.84,-142.45 63.64,-136.04"/>
</a>
</g>
</g>
<!-- Node7 -->
<g id="Node000007" class="node">
<title>Node7</title>
<g id="a_Node000007"><a xlink:title=" ">
<polygon fill="#e0e0e0" stroke="#999999" points="254,-134.25 190.75,-134.25 190.75,-113.5 254,-113.5 254,-134.25"/>
<text xml:space="preserve" text-anchor="middle" x="222.38" y="-120.75" font-family="Helvetica,sans-Serif" font-size="10.00">fsl_gpio.h</text>
</a>
</g>
</g>
<!-- Node1&#45;&gt;Node7 -->
<g id="edge27_Node000001_Node000007" class="edge">
<title>Node1&#45;&gt;Node7</title>
<g id="a_edge27_Node000001_Node000007"><a xlink:title=" ">
<path fill="none" stroke="#63b8ff" d="M279.09,-226.87C268.98,-208.69 246.73,-168.67 233.3,-144.52"/>
<polygon fill="#63b8ff" stroke="#63b8ff" points="236.48,-143.04 228.56,-136 230.36,-146.44 236.48,-143.04"/>
</a>
</g>
</g>
<!-- Node8 -->
<g id="Node000008" class="node">
<title>Node8</title>
<g id="a_Node000008"><a xlink:title=" ">
<polygon fill="#e0e0e0" stroke="#999999" points="334.25,-134.25 272.5,-134.25 272.5,-113.5 334.25,-113.5 334.25,-134.25"/>
<text xml:space="preserve" text-anchor="middle" x="303.38" y="-120.75" font-family="Helvetica,sans-Serif" font-size="10.00">fsl_port.h</text>
</a>
</g>
</g>
<!-- Node1&#45;&gt;Node8 -->
<g id="edge28_Node000001_Node000008" class="edge">
<title>Node1&#45;&gt;Node8</title>
<g id="a_edge28_Node000001_Node000008"><a xlink:title=" ">
<path fill="none" stroke="#63b8ff" d="M285.99,-226.87C289.04,-209.02 295.67,-170.11 299.8,-145.84"/>
<polygon fill="#63b8ff" stroke="#63b8ff" points="303.22,-146.61 301.45,-136.17 296.32,-145.44 303.22,-146.61"/>
</a>
</g>
</g>
<!-- Node14 -->
<g id="Node000014" class="node">
<title>Node14</title>
<g id="a_Node000014"><a xlink:href="pca9555a_8h.html" target="_top" xlink:title=" ">
<polygon fill="white" stroke="#666666" points="590.5,-134.25 518.25,-134.25 518.25,-113.5 590.5,-113.5 590.5,-134.25"/>
<text xml:space="preserve" text-anchor="middle" x="554.38" y="-120.75" font-family="Helvetica,sans-Serif" font-size="10.00">pca9555a.h</text>
</a>
</g>
</g>
<!-- Node1&#45;&gt;Node14 -->
<g id="edge29_Node000001_Node000014" class="edge">
<title>Node1&#45;&gt;Node14</title>
<g id="a_edge29_Node000001_Node000014"><a xlink:title=" ">
<path fill="none" stroke="#63b8ff" d="M307.86,-226.68C355.74,-206.91 464.75,-161.89 520.37,-138.92"/>
<polygon fill="#63b8ff" stroke="#63b8ff" points="521.44,-142.26 529.35,-135.21 518.77,-135.79 521.44,-142.26"/>
</a>
</g>
</g>
<!-- Node16 -->
<g id="Node000016" class="node">
<title>Node16</title>
<g id="a_Node000016"><a xlink:href="tmc2209_8h.html" target="_top" xlink:title=" ">
<polygon fill="white" stroke="#666666" points="715.25,-191 647.5,-191 647.5,-170.25 715.25,-170.25 715.25,-191"/>
<text xml:space="preserve" text-anchor="middle" x="681.38" y="-177.5" font-family="Helvetica,sans-Serif" font-size="10.00">tmc2209.h</text>
</a>
</g>
</g>
<!-- Node1&#45;&gt;Node16 -->
<g id="edge21_Node000001_Node000016" class="edge">
<title>Node1&#45;&gt;Node16</title>
<g id="a_edge21_Node000001_Node000016"><a xlink:title=" ">
<path fill="none" stroke="#63b8ff" d="M329.14,-230.2C405.33,-219.69 559.38,-198.45 635.98,-187.88"/>
<polygon fill="#63b8ff" stroke="#63b8ff" points="636.22,-191.39 645.65,-186.55 635.27,-184.45 636.22,-191.39"/>
</a>
</g>
</g>
<!-- Node3 -->
<g id="Node000003" class="node">
<title>Node3</title>
<g id="a_Node000003"><a xlink:title=" ">
<polygon fill="#e0e0e0" stroke="#999999" points="262.12,-20.75 190.62,-20.75 190.62,0 262.12,0 262.12,-20.75"/>
<text xml:space="preserve" text-anchor="middle" x="226.38" y="-7.25" font-family="Helvetica,sans-Serif" font-size="10.00">FreeRTOS.h</text>
</a>
</g>
</g>
<!-- Node2&#45;&gt;Node3 -->
<g id="edge2_Node000002_Node000003" class="edge">
<title>Node2&#45;&gt;Node3</title>
<g id="a_edge2_Node000002_Node000003"><a xlink:title=" ">
<path fill="none" stroke="#63b8ff" d="M191.13,-172.75C163.41,-164.03 119.65,-148.42 110.38,-134.25 91.51,-105.43 90.96,-85.2 110.38,-56.75 125.81,-34.14 154.35,-22.79 179.26,-17.1"/>
<polygon fill="#63b8ff" stroke="#63b8ff" points="179.79,-20.57 188.9,-15.16 178.41,-13.7 179.79,-20.57"/>
</a>
</g>
</g>
<!-- Node4 -->
<g id="Node000004" class="node">
<title>Node4</title>
<g id="a_Node000004"><a xlink:title=" ">
<polygon fill="#e0e0e0" stroke="#999999" points="198.38,-77.5 152.38,-77.5 152.38,-56.75 198.38,-56.75 198.38,-77.5"/>
<text xml:space="preserve" text-anchor="middle" x="175.38" y="-64" font-family="Helvetica,sans-Serif" font-size="10.00">task.h</text>
</a>
</g>
</g>
<!-- Node2&#45;&gt;Node4 -->
<g id="edge3_Node000002_Node000004" class="edge">
<title>Node2&#45;&gt;Node4</title>
<g id="a_edge3_Node000002_Node000004"><a xlink:title=" ">
<path fill="none" stroke="#63b8ff" d="M204.73,-169.76C196.96,-161.15 186.52,-147.93 181.38,-134.25 175.96,-119.86 174.56,-102.51 174.46,-89.2"/>
<polygon fill="#63b8ff" stroke="#63b8ff" points="177.96,-89.48 174.65,-79.41 170.96,-89.34 177.96,-89.48"/>
</a>
</g>
</g>
<!-- Node5 -->
<g id="Node000005" class="node">
<title>Node5</title>
<g id="a_Node000005"><a xlink:title=" ">
<polygon fill="#e0e0e0" stroke="#999999" points="364.88,-20.75 279.88,-20.75 279.88,0 364.88,0 364.88,-20.75"/>
<text xml:space="preserve" text-anchor="middle" x="322.38" y="-7.25" font-family="Helvetica,sans-Serif" font-size="10.00">fsl_common.h</text>
</a>
</g>
</g>
<!-- Node2&#45;&gt;Node5 -->
<g id="edge4_Node000002_Node000005" class="edge">
<title>Node2&#45;&gt;Node5</title>
<g id="a_edge4_Node000002_Node000005"><a xlink:title=" ">
<path fill="none" stroke="#63b8ff" d="M200.9,-169.82C172.87,-148.23 113.27,-95.44 143.38,-56.75 151.21,-46.69 218.45,-31.6 268.22,-21.63"/>
<polygon fill="#63b8ff" stroke="#63b8ff" points="268.89,-25.07 278.02,-19.69 267.53,-18.2 268.89,-25.07"/>
</a>
</g>
</g>
<!-- Node2&#45;&gt;Node6 -->
<g id="edge5_Node000002_Node000006" class="edge">
<title>Node2&#45;&gt;Node6</title>
<g id="a_edge5_Node000002_Node000006"><a xlink:title=" ">
<path fill="none" stroke="#63b8ff" d="M190.94,-172.69C160.55,-163.69 107.02,-147.85 69.96,-136.88"/>
<polygon fill="#63b8ff" stroke="#63b8ff" points="71.06,-133.56 60.47,-134.08 69.07,-140.27 71.06,-133.56"/>
</a>
</g>
</g>
<!-- Node2&#45;&gt;Node7 -->
<g id="edge6_Node000002_Node000007" class="edge">
<title>Node2&#45;&gt;Node7</title>
<g id="a_edge6_Node000002_Node000007"><a xlink:title=" ">
<path fill="none" stroke="#63b8ff" d="M215.81,-169.84C216.78,-163.14 218.12,-154.01 219.33,-145.73"/>
<polygon fill="#63b8ff" stroke="#63b8ff" points="222.76,-146.48 220.74,-136.08 215.83,-145.46 222.76,-146.48"/>
</a>
</g>
</g>
<!-- Node2&#45;&gt;Node8 -->
<g id="edge7_Node000002_Node000008" class="edge">
<title>Node2&#45;&gt;Node8</title>
<g id="a_edge7_Node000002_Node000008"><a xlink:title=" ">
<path fill="none" stroke="#63b8ff" d="M230.29,-169.84C243.58,-161.66 262.76,-149.86 278.14,-140.4"/>
<polygon fill="#63b8ff" stroke="#63b8ff" points="279.63,-143.59 286.31,-135.37 275.96,-137.63 279.63,-143.59"/>
</a>
</g>
</g>
<!-- Node9 -->
<g id="Node000009" class="node">
<title>Node9</title>
<g id="a_Node000009"><a xlink:href="task__helpers_8h.html" target="_top" xlink:title=" ">
<polygon fill="white" stroke="#666666" points="440,-134.25 352.75,-134.25 352.75,-113.5 440,-113.5 440,-134.25"/>
<text xml:space="preserve" text-anchor="middle" x="396.38" y="-120.75" font-family="Helvetica,sans-Serif" font-size="10.00">task_helpers.h</text>
</a>
</g>
</g>
<!-- Node2&#45;&gt;Node9 -->
<g id="edge8_Node000002_Node000009" class="edge">
<title>Node2&#45;&gt;Node9</title>
<g id="a_edge8_Node000002_Node000009"><a xlink:title=" ">
<path fill="none" stroke="#63b8ff" d="M237.8,-172.58C266.86,-163.84 316.98,-148.76 353.11,-137.89"/>
<polygon fill="#63b8ff" stroke="#63b8ff" points="353.81,-141.33 362.38,-135.1 351.8,-134.63 353.81,-141.33"/>
</a>
</g>
</g>
<!-- Node2&#45;&gt;Node14 -->
<g id="edge18_Node000002_Node000014" class="edge">
<title>Node2&#45;&gt;Node14</title>
<g id="a_edge18_Node000002_Node000014"><a xlink:title=" ">
<path fill="none" stroke="#63b8ff" d="M237.74,-175.86C293,-166.96 432.6,-144.48 506.61,-132.57"/>
<polygon fill="#63b8ff" stroke="#63b8ff" points="507.09,-136.03 516.4,-130.99 505.97,-129.12 507.09,-136.03"/>
</a>
</g>
</g>
<!-- Node9&#45;&gt;Node3 -->
<g id="edge9_Node000009_Node000003" class="edge">
<title>Node9&#45;&gt;Node3</title>
<g id="a_edge9_Node000009_Node000003"><a xlink:title=" ">
<path fill="none" stroke="#63b8ff" d="M352.5,-114.55C313.51,-106.3 260.43,-92.74 245.38,-77.5 233.56,-65.54 228.99,-46.74 227.28,-32.24"/>
<polygon fill="#63b8ff" stroke="#63b8ff" points="230.77,-32.09 226.51,-22.39 223.8,-32.63 230.77,-32.09"/>
</a>
</g>
</g>
<!-- Node9&#45;&gt;Node4 -->
<g id="edge10_Node000009_Node000004" class="edge">
<title>Node9&#45;&gt;Node4</title>
<g id="a_edge10_Node000009_Node000004"><a xlink:title=" ">
<path fill="none" stroke="#63b8ff" d="M356.16,-113.03C318.87,-103.89 261.85,-89.87 212.38,-77.5 211.56,-77.3 210.73,-77.09 209.89,-76.88"/>
<polygon fill="#63b8ff" stroke="#63b8ff" points="210.88,-73.52 200.32,-74.47 209.17,-80.31 210.88,-73.52"/>
</a>
</g>
</g>
<!-- Node9&#45;&gt;Node5 -->
<g id="edge11_Node000009_Node000005" class="edge">
<title>Node9&#45;&gt;Node5</title>
<g id="a_edge11_Node000009_Node000005"><a xlink:title=" ">
<path fill="none" stroke="#63b8ff" d="M379.87,-113.15C367.56,-105.07 351.22,-92.51 341.38,-77.5 332.45,-63.89 327.64,-46.03 325.1,-32.3"/>
<polygon fill="#63b8ff" stroke="#63b8ff" points="328.58,-31.93 323.58,-22.59 321.67,-33.01 328.58,-31.93"/>
</a>
</g>
</g>
<!-- Node10 -->
<g id="Node000010" class="node">
<title>Node10</title>
<g id="a_Node000010"><a xlink:href="log_8h.html" target="_top" xlink:title=" ">
<polygon fill="white" stroke="#666666" points="294.38,-77.5 254.38,-77.5 254.38,-56.75 294.38,-56.75 294.38,-77.5"/>
<text xml:space="preserve" text-anchor="middle" x="274.38" y="-64" font-family="Helvetica,sans-Serif" font-size="10.00">log.h</text>
</a>
</g>
</g>
<!-- Node9&#45;&gt;Node10 -->
<g id="edge12_Node000009_Node000010" class="edge">
<title>Node9&#45;&gt;Node10</title>
<g id="a_edge12_Node000009_Node000010"><a xlink:title=" ">
<path fill="none" stroke="#63b8ff" d="M374.56,-113.09C355.22,-104.4 326.74,-91.63 305.09,-81.91"/>
<polygon fill="#63b8ff" stroke="#63b8ff" points="306.72,-78.8 296.16,-77.9 303.85,-85.19 306.72,-78.8"/>
</a>
</g>
</g>
<!-- Node11 -->
<g id="Node000011" class="node">
<title>Node11</title>
<g id="a_Node000011"><a xlink:title=" ">
<polygon fill="#e0e0e0" stroke="#999999" points="402.75,-77.5 350,-77.5 350,-56.75 402.75,-56.75 402.75,-77.5"/>
<text xml:space="preserve" text-anchor="middle" x="376.38" y="-64" font-family="Helvetica,sans-Serif" font-size="10.00">string.h</text>
</a>
</g>
</g>
<!-- Node9&#45;&gt;Node11 -->
<g id="edge15_Node000009_Node000011" class="edge">
<title>Node9&#45;&gt;Node11</title>
<g id="a_edge15_Node000009_Node000011"><a xlink:title=" ">
<path fill="none" stroke="#63b8ff" d="M392.8,-113.09C390.3,-106.24 386.86,-96.84 383.78,-88.4"/>
<polygon fill="#63b8ff" stroke="#63b8ff" points="387.16,-87.44 380.44,-79.25 380.58,-89.84 387.16,-87.44"/>
</a>
</g>
</g>
<!-- Node12 -->
<g id="Node000012" class="node">
<title>Node12</title>
<g id="a_Node000012"><a xlink:title=" ">
<polygon fill="#e0e0e0" stroke="#999999" points="511.88,-77.5 420.88,-77.5 420.88,-56.75 511.88,-56.75 511.88,-77.5"/>
<text xml:space="preserve" text-anchor="middle" x="466.38" y="-64" font-family="Helvetica,sans-Serif" font-size="10.00">event_groups.h</text>
</a>
</g>
</g>
<!-- Node9&#45;&gt;Node12 -->
<g id="edge16_Node000009_Node000012" class="edge">
<title>Node9&#45;&gt;Node12</title>
<g id="a_edge16_Node000009_Node000012"><a xlink:title=" ">
<path fill="none" stroke="#63b8ff" d="M408.89,-113.09C418.94,-105.22 433.29,-94 445.13,-84.74"/>
<polygon fill="#63b8ff" stroke="#63b8ff" points="447.06,-87.68 452.78,-78.76 442.74,-82.16 447.06,-87.68"/>
</a>
</g>
</g>
<!-- Node13 -->
<g id="Node000013" class="node">
<title>Node13</title>
<g id="a_Node000013"><a xlink:title=" ">
<polygon fill="#e0e0e0" stroke="#999999" points="584.88,-77.5 529.88,-77.5 529.88,-56.75 584.88,-56.75 584.88,-77.5"/>
<text xml:space="preserve" text-anchor="middle" x="557.38" y="-64" font-family="Helvetica,sans-Serif" font-size="10.00">queue.h</text>
</a>
</g>
</g>
<!-- Node9&#45;&gt;Node13 -->
<g id="edge17_Node000009_Node000013" class="edge">
<title>Node9&#45;&gt;Node13</title>
<g id="a_edge17_Node000009_Node000013"><a xlink:title=" ">
<path fill="none" stroke="#63b8ff" d="M425.16,-113.09C451.19,-104.23 489.73,-91.13 518.49,-81.35"/>
<polygon fill="#63b8ff" stroke="#63b8ff" points="519.61,-84.67 527.95,-78.13 517.35,-78.04 519.61,-84.67"/>
</a>
</g>
</g>
<!-- Node10&#45;&gt;Node3 -->
<g id="edge13_Node000010_Node000003" class="edge">
<title>Node10&#45;&gt;Node3</title>
<g id="a_edge13_Node000010_Node000003"><a xlink:title=" ">
<path fill="none" stroke="#63b8ff" d="M265.79,-56.34C259.31,-48.94 250.22,-38.57 242.4,-29.66"/>
<polygon fill="#63b8ff" stroke="#63b8ff" points="245.1,-27.43 235.88,-22.22 239.84,-32.04 245.1,-27.43"/>
</a>
</g>
</g>
<!-- Node10&#45;&gt;Node5 -->
<g id="edge14_Node000010_Node000005" class="edge">
<title>Node10&#45;&gt;Node5</title>
<g id="a_edge14_Node000010_Node000005"><a xlink:title=" ">
<path fill="none" stroke="#63b8ff" d="M282.96,-56.34C289.44,-48.94 298.53,-38.57 306.35,-29.66"/>
<polygon fill="#63b8ff" stroke="#63b8ff" points="308.91,-32.04 312.87,-22.22 303.65,-27.43 308.91,-32.04"/>
</a>
</g>
</g>
<!-- Node14&#45;&gt;Node5 -->
<g id="edge19_Node000014_Node000005" class="edge">
<title>Node14&#45;&gt;Node5</title>
<g id="a_edge19_Node000014_Node000005"><a xlink:title=" ">
<path fill="none" stroke="#63b8ff" d="M567.84,-113.05C584.73,-99.54 609.72,-74.87 594.38,-56.75 567.04,-24.48 447.9,-15.14 376.68,-12.45"/>
<polygon fill="#63b8ff" stroke="#63b8ff" points="376.88,-8.95 366.76,-12.11 376.64,-15.95 376.88,-8.95"/>
</a>
</g>
</g>
<!-- Node15 -->
<g id="Node000015" class="node">
<title>Node15</title>
<g id="a_Node000015"><a xlink:title=" ">
<polygon fill="#e0e0e0" stroke="#999999" points="721.25,-77.5 641.5,-77.5 641.5,-56.75 721.25,-56.75 721.25,-77.5"/>
<text xml:space="preserve" text-anchor="middle" x="681.38" y="-64" font-family="Helvetica,sans-Serif" font-size="10.00">peripherals.h</text>
</a>
</g>
</g>
<!-- Node14&#45;&gt;Node15 -->
<g id="edge20_Node000014_Node000015" class="edge">
<title>Node14&#45;&gt;Node15</title>
<g id="a_edge20_Node000014_Node000015"><a xlink:title=" ">
<path fill="none" stroke="#63b8ff" d="M577.08,-113.09C596.95,-104.52 626.05,-91.98 648.47,-82.31"/>
<polygon fill="#63b8ff" stroke="#63b8ff" points="649.68,-85.6 657.48,-78.43 646.91,-79.17 649.68,-85.6"/>
</a>
</g>
</g>
<!-- Node16&#45;&gt;Node5 -->
<g id="edge22_Node000016_Node000005" class="edge">
<title>Node16&#45;&gt;Node5</title>
<g id="a_edge22_Node000016_Node000005"><a xlink:title=" ">
<path fill="none" stroke="#63b8ff" d="M691.45,-169.81C713.4,-147.28 761.16,-91.15 730.38,-56.75 707.18,-30.84 482.18,-18.06 376.59,-13.45"/>
<polygon fill="#63b8ff" stroke="#63b8ff" points="376.88,-9.96 366.74,-13.03 376.59,-16.96 376.88,-9.96"/>
</a>
</g>
</g>
<!-- Node16&#45;&gt;Node9 -->
<g id="edge25_Node000016_Node000009" class="edge">
<title>Node16&#45;&gt;Node9</title>
<g id="a_edge25_Node000016_Node000009"><a xlink:title=" ">
<path fill="none" stroke="#63b8ff" d="M647.28,-173.08C598.8,-163.76 509.41,-146.59 451.45,-135.46"/>
<polygon fill="#63b8ff" stroke="#63b8ff" points="452.27,-132.05 441.79,-133.6 450.95,-138.92 452.27,-132.05"/>
</a>
</g>
</g>
<!-- Node16&#45;&gt;Node15 -->
<g id="edge23_Node000016_Node000015" class="edge">
<title>Node16&#45;&gt;Node15</title>
<g id="a_edge23_Node000016_Node000015"><a xlink:title=" ">
<path fill="none" stroke="#63b8ff" d="M681.38,-170.12C681.38,-152.35 681.38,-113.72 681.38,-89.43"/>
<polygon fill="#63b8ff" stroke="#63b8ff" points="684.88,-89.44 681.38,-79.44 677.88,-89.44 684.88,-89.44"/>
</a>
</g>
</g>
<!-- Node17 -->
<g id="Node000017" class="node">
<title>Node17</title>
<g id="a_Node000017"><a xlink:title=" ">
<polygon fill="#e0e0e0" stroke="#999999" points="829.75,-134.25 777,-134.25 777,-113.5 829.75,-113.5 829.75,-134.25"/>
<text xml:space="preserve" text-anchor="middle" x="803.38" y="-120.75" font-family="Helvetica,sans-Serif" font-size="10.00">stdint.h</text>
</a>
</g>
</g>
<!-- Node16&#45;&gt;Node17 -->
<g id="edge24_Node000016_Node000017" class="edge">
<title>Node16&#45;&gt;Node17</title>
<g id="a_edge24_Node000016_Node000017"><a xlink:title=" ">
<path fill="none" stroke="#63b8ff" d="M703.19,-169.84C722.18,-161.31 749.97,-148.84 771.47,-139.19"/>
<polygon fill="#63b8ff" stroke="#63b8ff" points="772.68,-142.49 780.37,-135.2 769.82,-136.1 772.68,-142.49"/>
</a>
</g>
</g>
</g>
</svg>

<g id="navigator" transform="translate(0 0)" fill="#404254">
  <rect fill="#f2f5e9" fill-opacity="0.5" stroke="#606060" stroke-width=".5" x="0" y="0" width="60" height="60"/>
  <use id="zoomplus" xlink:href="#zoomPlus" x="17" y="9" onmousedown="handleZoom(evt,'in')"/>
  <use id="zoomminus" xlink:href="#zoomMin" x="42" y="9" onmousedown="handleZoom(evt,'out')"/>
  <use id="reset" xlink:href="#resetDef" x="30" y="36" onmousedown="handleReset()"/>
   <use id="arrowup" xlink:href="#arrowUp" x="0" y="0" onmousedown="handlePan(0,-1)"/>
  <use id="arrowright" xlink:href="#arrowRight" x="0" y="0" onmousedown="handlePan(1,0)"/>
  <use id="arrowdown" xlink:href="#arrowDown" x="0" y="0" onmousedown="handlePan(0,1)"/>
  <use id="arrowleft" xlink:href="#arrowLeft" x="0" y="0" onmousedown="handlePan(-1,0)"/>
</g>
<svg viewBox="0 0 15 15" width="100%" height="30px" preserveAspectRatio="xMaxYMin meet">
 <g id="arrow_out" transform="scale(0.3 0.3)">
  <a xlink:href="motor_8h__incl_org.svg" target="_base">
   <rect id="button" ry="5" rx="5" y="6" x="6" height="38" width="38"
        fill="#f2f5e9" fill-opacity="0.5" stroke="#606060" stroke-width="1.0"/>
   <path id="arrow"
     d="M 11.500037,31.436501 C 11.940474,20.09759 22.043105,11.32322 32.158766,21.979434 L 37.068811,17.246167 C 37.068811,17.246167 37.088388,32 37.088388,32 L 22.160133,31.978069 C 22.160133,31.978069 26.997745,27.140456 26.997745,27.140456 C 18.528582,18.264221 13.291696,25.230495 11.500037,31.436501 z"
     style="fill:#404040;"/>
  </a>
 </g>
</svg>

<style type='text/css'>
<![CDATA[
[data-mouse-over-selected='false'] { opacity: 0.7; }
[data-mouse-over-selected='true']  { opacity: 1.0; }
]]>
</style>
<script type="application/ecmascript"><![CDATA[
document.addEventListener('DOMContentLoaded', (event) => {
  highlightEdges();
  highlightAdjacentNodes();
});
]]></script>
</svg>
