<?xml version="1.0" encoding="UTF-8" standalone="no"?>
<!DOCTYPE svg PUBLIC "-//W3C//DTD SVG 1.1//EN"
 "http://www.w3.org/Graphics/SVG/1.1/DTD/svg11.dtd">
<!-- Generated by graphviz version 14.1.4 (0)
 -->
<!-- Title: source/motion/motor/motor_tmc.c Pages: 1 -->
<!--zoomable 439 -->

<svg id="main" version="1.1" xmlns="http://www.w3.org/2000/svg" xmlns:xlink="http://www.w3.org/1999/xlink" xml:space="preserve" onload="init(evt)">

<style type="text/css"><![CDATA[
.node, .edge {opacity: 0.7;}
.node.selected, .edge.selected {opacity: 1;}
.edge:hover path { stroke: red; }
.edge:hover polygon { stroke: red; fill: red; }
]]></style>

<defs>
  <circle id="rim" cx="0" cy="0" r="7"/>
  <circle id="rim2" cx="0" cy="0" r="3.5"/>
  <g id="zoomPlus">
    <use xlink:href="#rim" fill="#404040"><set attributeName="fill" to="#808080" begin="zoomplus.mouseover" end="zoomplus.mouseout"/></use>
    <path d="M-4,0h8M0,-4v8" fill="none" stroke="white" stroke-width="1.5" pointer-events="none"/>
  </g>
  <g id="zoomMin">
    <use xlink:href="#rim" fill="#404040"><set attributeName="fill" to="#808080" begin="zoomminus.mouseover" end="zoomminus.mouseout"/></use>
    <path d="M-4,0h8" fill="none" stroke="white" stroke-width="1.5" pointer-events="none"/>
  </g>
  <g id="arrowUp" transform="translate(30 24)">
    <use xlink:href="#rim"/>
    <path pointer-events="none" fill="none" stroke="white" stroke-width="1.5" d="M0,-3.0v7 M-2.5,-0.5L0,-3.0L2.5,-0.5"/>
  </g>
  <g id="arrowRight" transform="rotate(90) translate(36 -43)">
    <use xlink:href="#rim"/>
    <path pointer-events="none" fill="none" stroke="white" stroke-width="1.5" d="M0,-3.0v7 M-2.5,-0.5L0,-3.0L2.5,-0.5"/>
  </g>
  <g id="arrowDown" transform="rotate(180) translate(-30 -48)">
    <use xlink:href="#rim"/>
    <path pointer-events="none" fill="none" stroke="white" stroke-width="1.5" d="M0,-3.0v7 M-2.5,-0.5L0,-3.0L2.5,-0.5"/>
  </g>
  <g id="arrowLeft" transform="rotate(270) translate(-36 17)">
    <use xlink:href="#rim"/>
    <path pointer-events="none" fill="none" stroke="white" stroke-width="1.5" d="M0,-3.0v7 M-2.5,-0.5L0,-3.0L2.5,-0.5"/>
  </g>
  <g id="resetDef">
    <use xlink:href="#rim2" fill="#404040"><set attributeName="fill" to="#808080" begin="reset.mouseover" end="reset.mouseout"/></use>
  </g>
</defs>
<script type="application/ecmascript">
var viewWidth = 1252;
var viewHeight = 439;
var sectionId = 'dynsection-0';
</script>
<script type="application/ecmascript" xlink:href="svg.min.js"/>
<svg id="graph" class="graph">
<g id="viewport">
<title>source/motion/motor/motor_tmc.c</title>
<!-- Node1 -->
<g id="Node000001" class="node">
<title>Node1</title>
<g id="a_Node000001"><a xlink:title=" ">
<polygon fill="#999999" stroke="#666666" points="981,-430.75 863,-430.75 863,-397.25 981,-397.25 981,-430.75"/>
<text xml:space="preserve" text-anchor="start" x="871" y="-417.25" font-family="Helvetica,sans-Serif" font-size="10.00">source/motion/motor</text>
<text xml:space="preserve" text-anchor="middle" x="922" y="-404.5" font-family="Helvetica,sans-Serif" font-size="10.00">/motor_tmc.c</text>
</a>
</g>
</g>
<!-- Node2 -->
<g id="Node000002" class="node">
<title>Node2</title>
<g id="a_Node000002"><a xlink:href="motor__tmc_8h.html" target="_top" xlink:title=" ">
<polygon fill="white" stroke="#666666" points="763.12,-361.25 684.88,-361.25 684.88,-340.5 763.12,-340.5 763.12,-361.25"/>
<text xml:space="preserve" text-anchor="middle" x="724" y="-347.75" font-family="Helvetica,sans-Serif" font-size="10.00">motor_tmc.h</text>
</a>
</g>
</g>
<!-- Node1&#45;&gt;Node2 -->
<g id="edge1_Node000001_Node000002" class="edge">
<title>Node1&#45;&gt;Node2</title>
<g id="a_edge1_Node000001_Node000002"><a xlink:title=" ">
<path fill="none" stroke="#63b8ff" d="M869.46,-396.78C837.36,-386.87 796.83,-374.36 766.71,-365.06"/>
<polygon fill="#63b8ff" stroke="#63b8ff" points="767.75,-361.72 757.16,-362.11 765.68,-368.41 767.75,-361.72"/>
</a>
</g>
</g>
<!-- Node20 -->
<g id="Node000020" class="node">
<title>Node20</title>
<g id="a_Node000020"><a xlink:href="tmc2209__core_8h.html" target="_top" xlink:title=" ">
<polygon fill="white" stroke="#666666" points="786,-191 692,-191 692,-170.25 786,-170.25 786,-191"/>
<text xml:space="preserve" text-anchor="middle" x="739" y="-177.5" font-family="Helvetica,sans-Serif" font-size="10.00">tmc2209_core.h</text>
</a>
</g>
</g>
<!-- Node1&#45;&gt;Node20 -->
<g id="edge52_Node000001_Node000020" class="edge">
<title>Node1&#45;&gt;Node20</title>
<g id="a_edge52_Node000001_Node000020"><a xlink:title=" ">
<path fill="none" stroke="#63b8ff" d="M914.93,-396.79C908,-381.64 896.65,-358.7 884,-340.5 844.79,-284.09 787.05,-226.71 757.67,-198.88"/>
<polygon fill="#63b8ff" stroke="#63b8ff" points="760.3,-196.55 750.61,-192.27 755.51,-201.66 760.3,-196.55"/>
</a>
</g>
</g>
<!-- Node24 -->
<g id="Node000024" class="node">
<title>Node24</title>
<g id="a_Node000024"><a xlink:href="motor__motion_8h.html" target="_top" xlink:title=" ">
<polygon fill="white" stroke="#666666" points="875,-361.25 781,-361.25 781,-340.5 875,-340.5 875,-361.25"/>
<text xml:space="preserve" text-anchor="middle" x="828" y="-347.75" font-family="Helvetica,sans-Serif" font-size="10.00">motor_motion.h</text>
</a>
</g>
</g>
<!-- Node1&#45;&gt;Node24 -->
<g id="edge40_Node000001_Node000024" class="edge">
<title>Node1&#45;&gt;Node24</title>
<g id="a_edge40_Node000001_Node000024"><a xlink:title=" ">
<path fill="none" stroke="#63b8ff" d="M897.3,-396.94C883.47,-387.95 866.28,-376.77 852.49,-367.8"/>
<polygon fill="#63b8ff" stroke="#63b8ff" points="854.7,-365.06 844.4,-362.54 850.88,-370.93 854.7,-365.06"/>
</a>
</g>
</g>
<!-- Node25 -->
<g id="Node000025" class="node">
<title>Node25</title>
<g id="a_Node000025"><a xlink:href="log_8h.html" target="_top" xlink:title=" ">
<polygon fill="white" stroke="#666666" points="961,-134.25 921,-134.25 921,-113.5 961,-113.5 961,-134.25"/>
<text xml:space="preserve" text-anchor="middle" x="941" y="-120.75" font-family="Helvetica,sans-Serif" font-size="10.00">log.h</text>
</a>
</g>
</g>
<!-- Node1&#45;&gt;Node25 -->
<g id="edge42_Node000001_Node000025" class="edge">
<title>Node1&#45;&gt;Node25</title>
<g id="a_edge42_Node000001_Node000025"><a xlink:title=" ">
<path fill="none" stroke="#63b8ff" d="M926.22,-397.12C931.81,-374.6 941,-332.02 941,-295.12 941,-295.12 941,-295.12 941,-236.38 941,-204.98 941,-168.62 941,-146.18"/>
<polygon fill="#63b8ff" stroke="#63b8ff" points="944.5,-146.23 941,-136.23 937.5,-146.23 944.5,-146.23"/>
</a>
</g>
</g>
<!-- Node26 -->
<g id="Node000026" class="node">
<title>Node26</title>
<g id="a_Node000026"><a xlink:title=" ">
<polygon fill="#e0e0e0" stroke="#999999" points="1018.5,-361.25 969.5,-361.25 969.5,-340.5 1018.5,-340.5 1018.5,-361.25"/>
<text xml:space="preserve" text-anchor="middle" x="994" y="-347.75" font-family="Helvetica,sans-Serif" font-size="10.00">stdio.h</text>
</a>
</g>
</g>
<!-- Node1&#45;&gt;Node26 -->
<g id="edge45_Node000001_Node000026" class="edge">
<title>Node1&#45;&gt;Node26</title>
<g id="a_edge45_Node000001_Node000026"><a xlink:title=" ">
<path fill="none" stroke="#63b8ff" d="M940.92,-396.94C951,-388.38 963.4,-377.85 973.69,-369.12"/>
<polygon fill="#63b8ff" stroke="#63b8ff" points="975.89,-371.84 981.25,-362.7 971.36,-366.5 975.89,-371.84"/>
</a>
</g>
</g>
<!-- Node27 -->
<g id="Node000027" class="node">
<title>Node27</title>
<g id="a_Node000027"><a xlink:href="sync__wait_8h.html" target="_top" xlink:title=" ">
<polygon fill="white" stroke="#666666" points="1112.88,-191 1039.12,-191 1039.12,-170.25 1112.88,-170.25 1112.88,-191"/>
<text xml:space="preserve" text-anchor="middle" x="1076" y="-177.5" font-family="Helvetica,sans-Serif" font-size="10.00">sync_wait.h</text>
</a>
</g>
</g>
<!-- Node1&#45;&gt;Node27 -->
<g id="edge46_Node000001_Node000027" class="edge">
<title>Node1&#45;&gt;Node27</title>
<g id="a_edge46_Node000001_Node000027"><a xlink:title=" ">
<path fill="none" stroke="#63b8ff" d="M976.51,-396.86C995.2,-388.87 1014.72,-377.38 1028,-361.25 1066.73,-314.22 1074.44,-238.89 1075.82,-202.56"/>
<polygon fill="#63b8ff" stroke="#63b8ff" points="1079.31,-203.04 1076.05,-192.96 1072.31,-202.88 1079.31,-203.04"/>
</a>
</g>
</g>
<!-- Node3 -->
<g id="Node000003" class="node">
<title>Node3</title>
<g id="a_Node000003"><a xlink:href="motor__internal_8h.html" target="_top" xlink:title=" ">
<polygon fill="white" stroke="#666666" points="823.5,-304.5 726.5,-304.5 726.5,-283.75 823.5,-283.75 823.5,-304.5"/>
<text xml:space="preserve" text-anchor="middle" x="775" y="-291" font-family="Helvetica,sans-Serif" font-size="10.00">motor_internal.h</text>
</a>
</g>
</g>
<!-- Node2&#45;&gt;Node3 -->
<g id="edge2_Node000002_Node000003" class="edge">
<title>Node2&#45;&gt;Node3</title>
<g id="a_edge2_Node000002_Node000003"><a xlink:title=" ">
<path fill="none" stroke="#63b8ff" d="M733.12,-340.09C740.08,-332.61 749.87,-322.11 758.23,-313.13"/>
<polygon fill="#63b8ff" stroke="#63b8ff" points="760.67,-315.64 764.93,-305.94 755.55,-310.87 760.67,-315.64"/>
</a>
</g>
</g>
<!-- Node4 -->
<g id="Node000004" class="node">
<title>Node4</title>
<g id="a_Node000004"><a xlink:href="motor_8h.html" target="_top" xlink:title=" ">
<polygon fill="white" stroke="#666666" points="567.75,-247.75 514.25,-247.75 514.25,-227 567.75,-227 567.75,-247.75"/>
<text xml:space="preserve" text-anchor="middle" x="541" y="-234.25" font-family="Helvetica,sans-Serif" font-size="10.00">motor.h</text>
</a>
</g>
</g>
<!-- Node3&#45;&gt;Node4 -->
<g id="edge3_Node000003_Node000004" class="edge">
<title>Node3&#45;&gt;Node4</title>
<g id="a_edge3_Node000003_Node000004"><a xlink:title=" ">
<path fill="none" stroke="#63b8ff" d="M732.9,-283.27C689.24,-273.06 621.57,-257.23 579.35,-247.35"/>
<polygon fill="#63b8ff" stroke="#63b8ff" points="580.17,-243.94 569.63,-245.07 578.57,-250.76 580.17,-243.94"/>
</a>
</g>
</g>
<!-- Node9 -->
<g id="Node000009" class="node">
<title>Node9</title>
<g id="a_Node000009"><a xlink:title=" ">
<polygon fill="#e0e0e0" stroke="#999999" points="897.75,-77.5 826.25,-77.5 826.25,-56.75 897.75,-56.75 897.75,-77.5"/>
<text xml:space="preserve" text-anchor="middle" x="862" y="-64" font-family="Helvetica,sans-Serif" font-size="10.00">FreeRTOS.h</text>
</a>
</g>
</g>
<!-- Node3&#45;&gt;Node9 -->
<g id="edge37_Node000003_Node000009" class="edge">
<title>Node3&#45;&gt;Node9</title>
<g id="a_edge37_Node000003_Node000009"><a xlink:title=" ">
<path fill="none" stroke="#63b8ff" d="M778.74,-283.46C791.87,-249.49 836.09,-135.14 854.18,-88.34"/>
<polygon fill="#63b8ff" stroke="#63b8ff" points="857.39,-89.76 857.73,-79.17 850.86,-87.23 857.39,-89.76"/>
</a>
</g>
</g>
<!-- Node14 -->
<g id="Node000014" class="node">
<title>Node14</title>
<g id="a_Node000014"><a xlink:href="cmd__handle_8h.html" target="_top" xlink:title=" ">
<polygon fill="white" stroke="#666666" points="1063.12,-134.25 978.88,-134.25 978.88,-113.5 1063.12,-113.5 1063.12,-134.25"/>
<text xml:space="preserve" text-anchor="middle" x="1021" y="-120.75" font-family="Helvetica,sans-Serif" font-size="10.00">cmd_handle.h</text>
</a>
</g>
</g>
<!-- Node3&#45;&gt;Node14 -->
<g id="edge39_Node000003_Node000014" class="edge">
<title>Node3&#45;&gt;Node14</title>
<g id="a_edge39_Node000003_Node000014"><a xlink:title=" ">
<path fill="none" stroke="#63b8ff" d="M798.98,-283.38C818.47,-275.03 846.35,-262.1 869,-247.75 920.5,-215.12 974.59,-167.76 1002.26,-142.42"/>
<polygon fill="#63b8ff" stroke="#63b8ff" points="1004.51,-145.11 1009.48,-135.75 999.76,-139.97 1004.51,-145.11"/>
</a>
</g>
</g>
<!-- Node23 -->
<g id="Node000023" class="node">
<title>Node23</title>
<g id="a_Node000023"><a xlink:title=" ">
<polygon fill="#e0e0e0" stroke="#999999" points="496.5,-247.75 441.5,-247.75 441.5,-227 496.5,-227 496.5,-247.75"/>
<text xml:space="preserve" text-anchor="middle" x="469" y="-234.25" font-family="Helvetica,sans-Serif" font-size="10.00">queue.h</text>
</a>
</g>
</g>
<!-- Node3&#45;&gt;Node23 -->
<g id="edge38_Node000003_Node000023" class="edge">
<title>Node3&#45;&gt;Node23</title>
<g id="a_edge38_Node000003_Node000023"><a xlink:title=" ">
<path fill="none" stroke="#63b8ff" d="M726.47,-286.29C674.62,-278.69 589.79,-265.43 508.09,-248.28"/>
<polygon fill="#63b8ff" stroke="#63b8ff" points="508.84,-244.86 498.33,-246.2 507.38,-251.7 508.84,-244.86"/>
</a>
</g>
</g>
<!-- Node5 -->
<g id="Node000005" class="node">
<title>Node5</title>
<g id="a_Node000005"><a xlink:href="pca9555a_8h.html" target="_top" xlink:title=" ">
<polygon fill="white" stroke="#666666" points="154,-77.5 0,-77.5 0,-56.75 154,-56.75 154,-77.5"/>
<text xml:space="preserve" text-anchor="middle" x="77" y="-64" font-family="Helvetica,sans-Serif" font-size="10.00">driver/pca9555a/pca9555a.h</text>
</a>
</g>
</g>
<!-- Node4&#45;&gt;Node5 -->
<g id="edge4_Node000004_Node000005" class="edge">
<title>Node4&#45;&gt;Node5</title>
<g id="a_edge4_Node000004_Node000005"><a xlink:title=" ">
<path fill="none" stroke="#63b8ff" d="M513.92,-229.13C510.91,-228.39 507.9,-227.66 505,-227 424.19,-208.55 400.65,-217.17 322,-191 266.78,-172.62 256.04,-160.3 204,-134.25 169.96,-117.21 131.21,-96.9 105.55,-83.32"/>
<polygon fill="#63b8ff" stroke="#63b8ff" points="107.23,-80.25 96.75,-78.66 103.95,-86.43 107.23,-80.25"/>
</a>
</g>
</g>
<!-- Node8 -->
<g id="Node000008" class="node">
<title>Node8</title>
<g id="a_Node000008"><a xlink:href="step__core_8h.html" target="_top" xlink:title=" ">
<polygon fill="white" stroke="#666666" points="520.12,-191 447.88,-191 447.88,-170.25 520.12,-170.25 520.12,-191"/>
<text xml:space="preserve" text-anchor="middle" x="484" y="-177.5" font-family="Helvetica,sans-Serif" font-size="10.00">step_core.h</text>
</a>
</g>
</g>
<!-- Node4&#45;&gt;Node8 -->
<g id="edge7_Node000004_Node000008" class="edge">
<title>Node4&#45;&gt;Node8</title>
<g id="a_edge7_Node000004_Node000008"><a xlink:title=" ">
<path fill="none" stroke="#63b8ff" d="M530.81,-226.59C522.87,-218.96 511.63,-208.17 502.16,-199.07"/>
<polygon fill="#63b8ff" stroke="#63b8ff" points="504.83,-196.78 495.19,-192.38 499.98,-201.83 504.83,-196.78"/>
</a>
</g>
</g>
<!-- Node11 -->
<g id="Node000011" class="node">
<title>Node11</title>
<g id="a_Node000011"><a xlink:title=" ">
<polygon fill="#e0e0e0" stroke="#999999" points="488.38,-77.5 429.62,-77.5 429.62,-56.75 488.38,-56.75 488.38,-77.5"/>
<text xml:space="preserve" text-anchor="middle" x="459" y="-64" font-family="Helvetica,sans-Serif" font-size="10.00">fsl_ftm.h</text>
</a>
</g>
</g>
<!-- Node4&#45;&gt;Node11 -->
<g id="edge34_Node000004_Node000011" class="edge">
<title>Node4&#45;&gt;Node11</title>
<g id="a_edge34_Node000004_Node000011"><a xlink:title=" ">
<path fill="none" stroke="#63b8ff" d="M513.92,-229.33C474.83,-217.43 404.78,-189.09 382,-134.25 378.46,-125.73 377.42,-121.51 382,-113.5 390.18,-99.19 404.82,-88.94 419.17,-81.85"/>
<polygon fill="#63b8ff" stroke="#63b8ff" points="420.39,-85.14 428.08,-77.85 417.52,-78.75 420.39,-85.14"/>
</a>
</g>
</g>
<!-- Node12 -->
<g id="Node000012" class="node">
<title>Node12</title>
<g id="a_Node000012"><a xlink:title=" ">
<polygon fill="#e0e0e0" stroke="#999999" points="569.62,-77.5 506.38,-77.5 506.38,-56.75 569.62,-56.75 569.62,-77.5"/>
<text xml:space="preserve" text-anchor="middle" x="538" y="-64" font-family="Helvetica,sans-Serif" font-size="10.00">fsl_gpio.h</text>
</a>
</g>
</g>
<!-- Node4&#45;&gt;Node12 -->
<g id="edge35_Node000004_Node000012" class="edge">
<title>Node4&#45;&gt;Node12</title>
<g id="a_edge35_Node000004_Node000012"><a xlink:title=" ">
<path fill="none" stroke="#63b8ff" d="M540.83,-226.85C540.36,-200.48 539.03,-126.08 538.38,-89.28"/>
<polygon fill="#63b8ff" stroke="#63b8ff" points="541.88,-89.42 538.2,-79.48 534.88,-89.54 541.88,-89.42"/>
</a>
</g>
</g>
<!-- Node13 -->
<g id="Node000013" class="node">
<title>Node13</title>
<g id="a_Node000013"><a xlink:title=" ">
<polygon fill="#e0e0e0" stroke="#999999" points="233.88,-77.5 172.12,-77.5 172.12,-56.75 233.88,-56.75 233.88,-77.5"/>
<text xml:space="preserve" text-anchor="middle" x="203" y="-64" font-family="Helvetica,sans-Serif" font-size="10.00">fsl_port.h</text>
</a>
</g>
</g>
<!-- Node4&#45;&gt;Node13 -->
<g id="edge36_Node000004_Node000013" class="edge">
<title>Node4&#45;&gt;Node13</title>
<g id="a_edge36_Node000004_Node000013"><a xlink:title=" ">
<path fill="none" stroke="#63b8ff" d="M513.85,-228.51C438.3,-206.54 230.51,-145.37 220,-134.25 208.54,-122.12 204.54,-103.34 203.27,-88.89"/>
<polygon fill="#63b8ff" stroke="#63b8ff" points="206.77,-88.91 202.8,-79.09 199.78,-89.24 206.77,-88.91"/>
</a>
</g>
</g>
<!-- Node4&#45;&gt;Node20 -->
<g id="edge28_Node000004_Node000020" class="edge">
<title>Node4&#45;&gt;Node20</title>
<g id="a_edge28_Node000004_Node000020"><a xlink:title=" ">
<path fill="none" stroke="#63b8ff" d="M568.12,-228.88C600.12,-220.03 653.87,-205.17 692.55,-194.47"/>
<polygon fill="#63b8ff" stroke="#63b8ff" points="693.36,-197.88 702.07,-191.84 691.5,-191.13 693.36,-197.88"/>
</a>
</g>
</g>
<!-- Node6 -->
<g id="Node000006" class="node">
<title>Node6</title>
<g id="a_Node000006"><a xlink:title=" ">
<polygon fill="#e0e0e0" stroke="#999999" points="840.5,-20.75 755.5,-20.75 755.5,0 840.5,0 840.5,-20.75"/>
<text xml:space="preserve" text-anchor="middle" x="798" y="-7.25" font-family="Helvetica,sans-Serif" font-size="10.00">fsl_common.h</text>
</a>
</g>
</g>
<!-- Node5&#45;&gt;Node6 -->
<g id="edge5_Node000005_Node000006" class="edge">
<title>Node5&#45;&gt;Node6</title>
<g id="a_edge5_Node000005_Node000006"><a xlink:title=" ">
<path fill="none" stroke="#63b8ff" d="M154.34,-57.56C157.26,-57.28 160.16,-57.01 163,-56.75 377.8,-37.37 634.1,-21.17 743.82,-14.56"/>
<polygon fill="#63b8ff" stroke="#63b8ff" points="743.94,-18.06 753.71,-13.97 743.52,-11.08 743.94,-18.06"/>
</a>
</g>
</g>
<!-- Node7 -->
<g id="Node000007" class="node">
<title>Node7</title>
<g id="a_Node000007"><a xlink:title=" ">
<polygon fill="#e0e0e0" stroke="#999999" points="377.88,-20.75 298.12,-20.75 298.12,0 377.88,0 377.88,-20.75"/>
<text xml:space="preserve" text-anchor="middle" x="338" y="-7.25" font-family="Helvetica,sans-Serif" font-size="10.00">peripherals.h</text>
</a>
</g>
</g>
<!-- Node5&#45;&gt;Node7 -->
<g id="edge6_Node000005_Node000007" class="edge">
<title>Node5&#45;&gt;Node7</title>
<g id="a_edge6_Node000005_Node000007"><a xlink:title=" ">
<path fill="none" stroke="#63b8ff" d="M123.96,-56.27C169.79,-46.66 239.33,-32.07 286.61,-22.15"/>
<polygon fill="#63b8ff" stroke="#63b8ff" points="287.28,-25.59 296.35,-20.11 285.84,-18.74 287.28,-25.59"/>
</a>
</g>
</g>
<!-- Node8&#45;&gt;Node5 -->
<g id="edge8_Node000008_Node000005" class="edge">
<title>Node8&#45;&gt;Node5</title>
<g id="a_edge8_Node000008_Node000005"><a xlink:title=" ">
<path fill="none" stroke="#63b8ff" d="M447.42,-176.4C395.8,-171.17 299.04,-158.85 220,-134.25 177.85,-121.13 132.02,-98.28 103.89,-83.17"/>
<polygon fill="#63b8ff" stroke="#63b8ff" points="105.81,-80.23 95.35,-78.52 102.46,-86.38 105.81,-80.23"/>
</a>
</g>
</g>
<!-- Node8&#45;&gt;Node6 -->
<g id="edge11_Node000008_Node000006" class="edge">
<title>Node8&#45;&gt;Node6</title>
<g id="a_edge11_Node000008_Node000006"><a xlink:title=" ">
<path fill="none" stroke="#63b8ff" d="M494.81,-169.95C520.69,-147.23 589,-89.88 655,-56.75 683.13,-42.63 716.57,-31.73 744.04,-24.16"/>
<polygon fill="#63b8ff" stroke="#63b8ff" points="744.8,-27.57 753.56,-21.61 742.99,-20.81 744.8,-27.57"/>
</a>
</g>
</g>
<!-- Node8&#45;&gt;Node9 -->
<g id="edge9_Node000008_Node000009" class="edge">
<title>Node8&#45;&gt;Node9</title>
<g id="a_edge9_Node000008_Node000009"><a xlink:title=" ">
<path fill="none" stroke="#63b8ff" d="M520.53,-178.36C574.57,-175.46 678.25,-165.87 760,-134.25 790.81,-122.33 822.09,-100.26 841.73,-84.91"/>
<polygon fill="#63b8ff" stroke="#63b8ff" points="843.83,-87.72 849.45,-78.74 839.46,-82.25 843.83,-87.72"/>
</a>
</g>
</g>
<!-- Node10 -->
<g id="Node000010" class="node">
<title>Node10</title>
<g id="a_Node000010"><a xlink:title=" ">
<polygon fill="#e0e0e0" stroke="#999999" points="437,-134.25 391,-134.25 391,-113.5 437,-113.5 437,-134.25"/>
<text xml:space="preserve" text-anchor="middle" x="414" y="-120.75" font-family="Helvetica,sans-Serif" font-size="10.00">task.h</text>
</a>
</g>
</g>
<!-- Node8&#45;&gt;Node10 -->
<g id="edge10_Node000008_Node000010" class="edge">
<title>Node8&#45;&gt;Node10</title>
<g id="a_edge10_Node000008_Node000010"><a xlink:title=" ">
<path fill="none" stroke="#63b8ff" d="M471.49,-169.84C461.43,-161.97 447.09,-150.75 435.24,-141.49"/>
<polygon fill="#63b8ff" stroke="#63b8ff" points="437.63,-138.91 427.6,-135.51 433.32,-144.43 437.63,-138.91"/>
</a>
</g>
</g>
<!-- Node8&#45;&gt;Node11 -->
<g id="edge12_Node000008_Node000011" class="edge">
<title>Node8&#45;&gt;Node11</title>
<g id="a_edge12_Node000008_Node000011"><a xlink:title=" ">
<path fill="none" stroke="#63b8ff" d="M481.87,-170.12C477.87,-152.27 469.14,-113.36 463.7,-89.09"/>
<polygon fill="#63b8ff" stroke="#63b8ff" points="467.13,-88.39 461.53,-79.4 460.3,-89.93 467.13,-88.39"/>
</a>
</g>
</g>
<!-- Node8&#45;&gt;Node12 -->
<g id="edge13_Node000008_Node000012" class="edge">
<title>Node8&#45;&gt;Node12</title>
<g id="a_edge13_Node000008_Node000012"><a xlink:title=" ">
<path fill="none" stroke="#63b8ff" d="M488.6,-170.12C497.37,-152.02 516.61,-112.28 528.33,-88.1"/>
<polygon fill="#63b8ff" stroke="#63b8ff" points="531.39,-89.81 532.59,-79.29 525.09,-86.76 531.39,-89.81"/>
</a>
</g>
</g>
<!-- Node8&#45;&gt;Node13 -->
<g id="edge14_Node000008_Node000013" class="edge">
<title>Node8&#45;&gt;Node13</title>
<g id="a_edge14_Node000008_Node000013"><a xlink:title=" ">
<path fill="none" stroke="#63b8ff" d="M447.39,-176.47C388.16,-170.76 274.63,-157.14 242,-134.25 226.16,-123.14 215.74,-103.36 209.69,-88.32"/>
<polygon fill="#63b8ff" stroke="#63b8ff" points="212.99,-87.15 206.27,-78.95 206.41,-89.55 212.99,-87.15"/>
</a>
</g>
</g>
<!-- Node8&#45;&gt;Node14 -->
<g id="edge15_Node000008_Node000014" class="edge">
<title>Node8&#45;&gt;Node14</title>
<g id="a_edge15_Node000008_Node000014"><a xlink:title=" ">
<path fill="none" stroke="#63b8ff" d="M520.4,-177.33C599.69,-172.11 794.15,-158.01 967.11,-134.54"/>
<polygon fill="#63b8ff" stroke="#63b8ff" points="967.54,-138.02 976.97,-133.19 966.59,-131.08 967.54,-138.02"/>
</a>
</g>
</g>
<!-- Node18 -->
<g id="Node000018" class="node">
<title>Node18</title>
<g id="a_Node000018"><a xlink:href="step__shared_8h.html" target="_top" xlink:title=" ">
<polygon fill="white" stroke="#666666" points="335.12,-134.25 250.88,-134.25 250.88,-113.5 335.12,-113.5 335.12,-134.25"/>
<text xml:space="preserve" text-anchor="middle" x="293" y="-120.75" font-family="Helvetica,sans-Serif" font-size="10.00">step_shared.h</text>
</a>
</g>
</g>
<!-- Node8&#45;&gt;Node18 -->
<g id="edge21_Node000008_Node000018" class="edge">
<title>Node8&#45;&gt;Node18</title>
<g id="a_edge21_Node000008_Node000018"><a xlink:title=" ">
<path fill="none" stroke="#63b8ff" d="M449.85,-169.84C418.58,-160.87 372.08,-147.54 337.83,-137.73"/>
<polygon fill="#63b8ff" stroke="#63b8ff" points="339.21,-134.48 328.63,-135.09 337.28,-141.21 339.21,-134.48"/>
</a>
</g>
</g>
<!-- Node14&#45;&gt;Node6 -->
<g id="edge19_Node000014_Node000006" class="edge">
<title>Node14&#45;&gt;Node6</title>
<g id="a_edge19_Node000014_Node000006"><a xlink:title=" ">
<path fill="none" stroke="#63b8ff" d="M1023.28,-113.42C1026.1,-99.23 1028.95,-72.42 1015,-56.75 993.81,-32.95 909.24,-20.96 852.15,-15.45"/>
<polygon fill="#63b8ff" stroke="#63b8ff" points="852.55,-11.97 842.28,-14.54 851.91,-18.94 852.55,-11.97"/>
</a>
</g>
</g>
<!-- Node14&#45;&gt;Node9 -->
<g id="edge17_Node000014_Node000009" class="edge">
<title>Node14&#45;&gt;Node9</title>
<g id="a_edge17_Node000014_Node000009"><a xlink:title=" ">
<path fill="none" stroke="#63b8ff" d="M992.57,-113.09C967.1,-104.32 929.5,-91.37 901.18,-81.62"/>
<polygon fill="#63b8ff" stroke="#63b8ff" points="902.47,-78.36 891.88,-78.41 900.19,-84.98 902.47,-78.36"/>
</a>
</g>
</g>
<!-- Node15 -->
<g id="Node000015" class="node">
<title>Node15</title>
<g id="a_Node000015"><a xlink:title=" ">
<polygon fill="#e0e0e0" stroke="#999999" points="1224.38,-77.5 1171.62,-77.5 1171.62,-56.75 1224.38,-56.75 1224.38,-77.5"/>
<text xml:space="preserve" text-anchor="middle" x="1198" y="-64" font-family="Helvetica,sans-Serif" font-size="10.00">stdint.h</text>
</a>
</g>
</g>
<!-- Node14&#45;&gt;Node15 -->
<g id="edge16_Node000014_Node000015" class="edge">
<title>Node14&#45;&gt;Node15</title>
<g id="a_edge16_Node000014_Node000015"><a xlink:title=" ">
<path fill="none" stroke="#63b8ff" d="M1052.64,-113.09C1082.89,-103.73 1128.49,-89.63 1160.53,-79.71"/>
<polygon fill="#63b8ff" stroke="#63b8ff" points="1161.29,-83.14 1169.81,-76.84 1159.22,-76.46 1161.29,-83.14"/>
</a>
</g>
</g>
<!-- Node16 -->
<g id="Node000016" class="node">
<title>Node16</title>
<g id="a_Node000016"><a xlink:title=" ">
<polygon fill="#e0e0e0" stroke="#999999" points="1153.5,-77.5 1062.5,-77.5 1062.5,-56.75 1153.5,-56.75 1153.5,-77.5"/>
<text xml:space="preserve" text-anchor="middle" x="1108" y="-64" font-family="Helvetica,sans-Serif" font-size="10.00">event_groups.h</text>
</a>
</g>
</g>
<!-- Node14&#45;&gt;Node16 -->
<g id="edge18_Node000014_Node000016" class="edge">
<title>Node14&#45;&gt;Node16</title>
<g id="a_edge18_Node000014_Node000016"><a xlink:title=" ">
<path fill="none" stroke="#63b8ff" d="M1036.55,-113.09C1049.42,-104.99 1067.94,-93.33 1082.91,-83.92"/>
<polygon fill="#63b8ff" stroke="#63b8ff" points="1084.7,-86.92 1091.3,-78.63 1080.97,-81 1084.7,-86.92"/>
</a>
</g>
</g>
<!-- Node17 -->
<g id="Node000017" class="node">
<title>Node17</title>
<g id="a_Node000017"><a xlink:title=" ">
<polygon fill="#e0e0e0" stroke="#999999" points="1006,-77.5 954,-77.5 954,-56.75 1006,-56.75 1006,-77.5"/>
<text xml:space="preserve" text-anchor="middle" x="980" y="-64" font-family="Helvetica,sans-Serif" font-size="10.00">stdlib.h</text>
</a>
</g>
</g>
<!-- Node14&#45;&gt;Node17 -->
<g id="edge20_Node000014_Node000017" class="edge">
<title>Node14&#45;&gt;Node17</title>
<g id="a_edge20_Node000014_Node000017"><a xlink:title=" ">
<path fill="none" stroke="#63b8ff" d="M1013.67,-113.09C1008.25,-105.85 1000.69,-95.76 994.11,-86.97"/>
<polygon fill="#63b8ff" stroke="#63b8ff" points="996.97,-84.95 988.17,-79.04 991.37,-89.14 996.97,-84.95"/>
</a>
</g>
</g>
<!-- Node18&#45;&gt;Node5 -->
<g id="edge22_Node000018_Node000005" class="edge">
<title>Node18&#45;&gt;Node5</title>
<g id="a_edge22_Node000018_Node000005"><a xlink:title=" ">
<path fill="none" stroke="#63b8ff" d="M254.38,-113.09C218.71,-104.04 165.52,-90.56 126.69,-80.72"/>
<polygon fill="#63b8ff" stroke="#63b8ff" points="127.67,-77.36 117.11,-78.29 125.95,-84.14 127.67,-77.36"/>
</a>
</g>
</g>
<!-- Node18&#45;&gt;Node6 -->
<g id="edge24_Node000018_Node000006" class="edge">
<title>Node18&#45;&gt;Node6</title>
<g id="a_edge24_Node000018_Node000006"><a xlink:title=" ">
<path fill="none" stroke="#63b8ff" d="M312.76,-113.15C331.06,-104.08 358.98,-90.11 383,-77.5 400.04,-68.56 402.67,-62.62 421,-56.75 531.85,-21.27 669.12,-13.14 743.64,-11.52"/>
<polygon fill="#63b8ff" stroke="#63b8ff" points="743.6,-15.02 753.53,-11.34 743.47,-8.02 743.6,-15.02"/>
</a>
</g>
</g>
<!-- Node18&#45;&gt;Node11 -->
<g id="edge25_Node000018_Node000011" class="edge">
<title>Node18&#45;&gt;Node11</title>
<g id="a_edge25_Node000018_Node000011"><a xlink:title=" ">
<path fill="none" stroke="#63b8ff" d="M322.68,-113.09C349.39,-104.28 388.87,-91.25 418.48,-81.49"/>
<polygon fill="#63b8ff" stroke="#63b8ff" points="419.46,-84.85 427.86,-78.39 417.27,-78.2 419.46,-84.85"/>
</a>
</g>
</g>
<!-- Node18&#45;&gt;Node12 -->
<g id="edge26_Node000018_Node000012" class="edge">
<title>Node18&#45;&gt;Node12</title>
<g id="a_edge26_Node000018_Node000012"><a xlink:title=" ">
<path fill="none" stroke="#63b8ff" d="M335.6,-113.48C374.55,-104.87 434.04,-91.67 495.19,-77.9"/>
<polygon fill="#63b8ff" stroke="#63b8ff" points="495.76,-81.36 504.74,-75.74 494.22,-74.53 495.76,-81.36"/>
</a>
</g>
</g>
<!-- Node18&#45;&gt;Node13 -->
<g id="edge27_Node000018_Node000013" class="edge">
<title>Node18&#45;&gt;Node13</title>
<g id="a_edge27_Node000018_Node000013"><a xlink:title=" ">
<path fill="none" stroke="#63b8ff" d="M276.91,-113.09C263.47,-104.91 244.07,-93.11 228.51,-83.65"/>
<polygon fill="#63b8ff" stroke="#63b8ff" points="230.61,-80.82 220.24,-78.62 226.97,-86.8 230.61,-80.82"/>
</a>
</g>
</g>
<!-- Node19 -->
<g id="Node000019" class="node">
<title>Node19</title>
<g id="a_Node000019"><a xlink:title=" ">
<polygon fill="#e0e0e0" stroke="#999999" points="374.25,-77.5 251.75,-77.5 251.75,-56.75 374.25,-56.75 374.25,-77.5"/>
<text xml:space="preserve" text-anchor="middle" x="313" y="-64" font-family="Helvetica,sans-Serif" font-size="10.00">fsl_device_registers.h</text>
</a>
</g>
</g>
<!-- Node18&#45;&gt;Node19 -->
<g id="edge23_Node000018_Node000019" class="edge">
<title>Node18&#45;&gt;Node19</title>
<g id="a_edge23_Node000018_Node000019"><a xlink:title=" ">
<path fill="none" stroke="#63b8ff" d="M296.58,-113.09C299.08,-106.24 302.51,-96.84 305.59,-88.4"/>
<polygon fill="#63b8ff" stroke="#63b8ff" points="308.79,-89.84 308.94,-79.25 302.22,-87.44 308.79,-89.84"/>
</a>
</g>
</g>
<!-- Node20&#45;&gt;Node6 -->
<g id="edge31_Node000020_Node000006" class="edge">
<title>Node20&#45;&gt;Node6</title>
<g id="a_edge31_Node000020_Node000006"><a xlink:title=" ">
<path fill="none" stroke="#63b8ff" d="M743.82,-170.02C748.29,-160.93 755,-146.83 760,-134.25 773.97,-99.1 786.09,-56.67 792.69,-31.98"/>
<polygon fill="#63b8ff" stroke="#63b8ff" points="796.01,-33.14 795.16,-22.58 789.24,-31.36 796.01,-33.14"/>
</a>
</g>
</g>
<!-- Node20&#45;&gt;Node7 -->
<g id="edge33_Node000020_Node000007" class="edge">
<title>Node20&#45;&gt;Node7</title>
<g id="a_edge33_Node000020_Node000007"><a xlink:title=" ">
<path fill="none" stroke="#63b8ff" d="M705.51,-169.86C684.1,-162.47 656.58,-150.75 636,-134.25 602.64,-107.5 615.2,-79.51 579,-56.75 548.1,-37.32 450.49,-23.56 389.39,-16.6"/>
<polygon fill="#63b8ff" stroke="#63b8ff" points="389.89,-13.13 379.56,-15.5 389.11,-20.09 389.89,-13.13"/>
</a>
</g>
</g>
<!-- Node20&#45;&gt;Node14 -->
<g id="edge32_Node000020_Node000014" class="edge">
<title>Node20&#45;&gt;Node14</title>
<g id="a_edge32_Node000020_Node000014"><a xlink:title=" ">
<path fill="none" stroke="#63b8ff" d="M786.2,-170.46C836.3,-160.73 915.33,-145.39 967.66,-135.23"/>
<polygon fill="#63b8ff" stroke="#63b8ff" points="968.09,-138.71 977.24,-133.37 966.75,-131.84 968.09,-138.71"/>
</a>
</g>
</g>
<!-- Node21 -->
<g id="Node000021" class="node">
<title>Node21</title>
<g id="a_Node000021"><a xlink:href="tmc2209__shared_8h.html" target="_top" xlink:title=" ">
<polygon fill="white" stroke="#666666" points="751,-134.25 645,-134.25 645,-113.5 751,-113.5 751,-134.25"/>
<text xml:space="preserve" text-anchor="middle" x="698" y="-120.75" font-family="Helvetica,sans-Serif" font-size="10.00">tmc2209_shared.h</text>
</a>
</g>
</g>
<!-- Node20&#45;&gt;Node21 -->
<g id="edge29_Node000020_Node000021" class="edge">
<title>Node20&#45;&gt;Node21</title>
<g id="a_edge29_Node000020_Node000021"><a xlink:title=" ">
<path fill="none" stroke="#63b8ff" d="M731.67,-169.84C726.25,-162.6 718.69,-152.51 712.11,-143.72"/>
<polygon fill="#63b8ff" stroke="#63b8ff" points="714.97,-141.7 706.17,-135.79 709.37,-145.89 714.97,-141.7"/>
</a>
</g>
</g>
<!-- Node22 -->
<g id="Node000022" class="node">
<title>Node22</title>
<g id="a_Node000022"><a xlink:title=" ">
<polygon fill="#e0e0e0" stroke="#999999" points="769.62,-77.5 664.38,-77.5 664.38,-56.75 769.62,-56.75 769.62,-77.5"/>
<text xml:space="preserve" text-anchor="middle" x="717" y="-64" font-family="Helvetica,sans-Serif" font-size="10.00">fsl_uart_freertos.h</text>
</a>
</g>
</g>
<!-- Node21&#45;&gt;Node22 -->
<g id="edge30_Node000021_Node000022" class="edge">
<title>Node21&#45;&gt;Node22</title>
<g id="a_edge30_Node000021_Node000022"><a xlink:title=" ">
<path fill="none" stroke="#63b8ff" d="M701.4,-113.09C703.75,-106.31 706.96,-97.05 709.86,-88.69"/>
<polygon fill="#63b8ff" stroke="#63b8ff" points="713.16,-89.85 713.14,-79.26 706.55,-87.56 713.16,-89.85"/>
</a>
</g>
</g>
<!-- Node24&#45;&gt;Node3 -->
<g id="edge41_Node000024_Node000003" class="edge">
<title>Node24&#45;&gt;Node3</title>
<g id="a_edge41_Node000024_Node000003"><a xlink:title=" ">
<path fill="none" stroke="#63b8ff" d="M818.52,-340.09C811.21,-332.53 800.91,-321.89 792.16,-312.85"/>
<polygon fill="#63b8ff" stroke="#63b8ff" points="794.92,-310.67 785.45,-305.92 789.89,-315.54 794.92,-310.67"/>
</a>
</g>
</g>
<!-- Node25&#45;&gt;Node6 -->
<g id="edge44_Node000025_Node000006" class="edge">
<title>Node25&#45;&gt;Node6</title>
<g id="a_edge44_Node000025_Node000006"><a xlink:title=" ">
<path fill="none" stroke="#63b8ff" d="M938.3,-113.02C933.95,-98.8 924.08,-72.51 907,-56.75 891.18,-42.16 870.01,-31.9 850.53,-24.88"/>
<polygon fill="#63b8ff" stroke="#63b8ff" points="851.65,-21.57 841.06,-21.69 849.42,-28.2 851.65,-21.57"/>
</a>
</g>
</g>
<!-- Node25&#45;&gt;Node9 -->
<g id="edge43_Node000025_Node000009" class="edge">
<title>Node25&#45;&gt;Node9</title>
<g id="a_edge43_Node000025_Node000009"><a xlink:title=" ">
<path fill="none" stroke="#63b8ff" d="M926.88,-113.09C915.31,-105.07 898.7,-93.56 885.18,-84.19"/>
<polygon fill="#63b8ff" stroke="#63b8ff" points="887.46,-81.51 877.25,-78.69 883.47,-87.26 887.46,-81.51"/>
</a>
</g>
</g>
<!-- Node27&#45;&gt;Node6 -->
<g id="edge50_Node000027_Node000006" class="edge">
<title>Node27&#45;&gt;Node6</title>
<g id="a_edge50_Node000027_Node000006"><a xlink:title=" ">
<path fill="none" stroke="#63b8ff" d="M1108.42,-169.83C1166.35,-150.78 1277.6,-106.25 1233,-56.75 1207.93,-28.93 963.2,-17.04 852.22,-13.05"/>
<polygon fill="#63b8ff" stroke="#63b8ff" points="852.59,-9.56 842.47,-12.71 852.34,-16.56 852.59,-9.56"/>
</a>
</g>
</g>
<!-- Node27&#45;&gt;Node9 -->
<g id="edge48_Node000027_Node000009" class="edge">
<title>Node27&#45;&gt;Node9</title>
<g id="a_edge48_Node000027_Node000009"><a xlink:title=" ">
<path fill="none" stroke="#63b8ff" d="M1038.94,-176.25C1003.7,-171.54 950.49,-160.39 912,-134.25 894.56,-122.41 880.71,-102.47 872.05,-87.58"/>
<polygon fill="#63b8ff" stroke="#63b8ff" points="875.3,-86.22 867.42,-79.14 869.16,-89.59 875.3,-86.22"/>
</a>
</g>
</g>
<!-- Node27&#45;&gt;Node14 -->
<g id="edge51_Node000027_Node000014" class="edge">
<title>Node27&#45;&gt;Node14</title>
<g id="a_edge51_Node000027_Node000014"><a xlink:title=" ">
<path fill="none" stroke="#63b8ff" d="M1066.17,-169.84C1058.58,-162.28 1047.88,-151.64 1038.8,-142.6"/>
<polygon fill="#63b8ff" stroke="#63b8ff" points="1041.38,-140.22 1031.82,-135.65 1036.44,-145.18 1041.38,-140.22"/>
</a>
</g>
</g>
<!-- Node27&#45;&gt;Node15 -->
<g id="edge47_Node000027_Node000015" class="edge">
<title>Node27&#45;&gt;Node15</title>
<g id="a_edge47_Node000027_Node000015"><a xlink:title=" ">
<path fill="none" stroke="#63b8ff" d="M1086.4,-170.12C1106.92,-151.37 1152.86,-109.38 1178.95,-85.53"/>
<polygon fill="#63b8ff" stroke="#63b8ff" points="1181.14,-88.28 1186.16,-78.95 1176.42,-83.11 1181.14,-88.28"/>
</a>
</g>
</g>
<!-- Node27&#45;&gt;Node16 -->
<g id="edge49_Node000027_Node000016" class="edge">
<title>Node27&#45;&gt;Node16</title>
<g id="a_edge49_Node000027_Node000016"><a xlink:title=" ">
<path fill="none" stroke="#63b8ff" d="M1078.73,-170.12C1083.87,-152.19 1095.12,-113 1102.08,-88.76"/>
<polygon fill="#63b8ff" stroke="#63b8ff" points="1105.38,-89.96 1104.77,-79.38 1098.65,-88.03 1105.38,-89.96"/>
</a>
</g>
</g>
</g>
</svg>

<g id="navigator" transform="translate(0 0)" fill="#404254">
  <rect fill="#f2f5e9" fill-opacity="0.5" stroke="#606060" stroke-width=".5" x="0" y="0" width="60" height="60"/>
  <use id="zoomplus" xlink:href="#zoomPlus" x="17" y="9" onmousedown="handleZoom(evt,'in')"/>
  <use id="zoomminus" xlink:href="#zoomMin" x="42" y="9" onmousedown="handleZoom(evt,'out')"/>
  <use id="reset" xlink:href="#resetDef" x="30" y="36" onmousedown="handleReset()"/>
   <use id="arrowup" xlink:href="#arrowUp" x="0" y="0" onmousedown="handlePan(0,-1)"/>
  <use id="arrowright" xlink:href="#arrowRight" x="0" y="0" onmousedown="handlePan(1,0)"/>
  <use id="arrowdown" xlink:href="#arrowDown" x="0" y="0" onmousedown="handlePan(0,1)"/>
  <use id="arrowleft" xlink:href="#arrowLeft" x="0" y="0" onmousedown="handlePan(-1,0)"/>
</g>
<svg viewBox="0 0 15 15" width="100%" height="30px" preserveAspectRatio="xMaxYMin meet">
 <g id="arrow_out" transform="scale(0.3 0.3)">
  <a xlink:href="motor__tmc_8c__incl_org.svg" target="_base">
   <rect id="button" ry="5" rx="5" y="6" x="6" height="38" width="38"
        fill="#f2f5e9" fill-opacity="0.5" stroke="#606060" stroke-width="1.0"/>
   <path id="arrow"
     d="M 11.500037,31.436501 C 11.940474,20.09759 22.043105,11.32322 32.158766,21.979434 L 37.068811,17.246167 C 37.068811,17.246167 37.088388,32 37.088388,32 L 22.160133,31.978069 C 22.160133,31.978069 26.997745,27.140456 26.997745,27.140456 C 18.528582,18.264221 13.291696,25.230495 11.500037,31.436501 z"
     style="fill:#404040;"/>
  </a>
 </g>
</svg>

<style type='text/css'>
<![CDATA[
[data-mouse-over-selected='false'] { opacity: 0.7; }
[data-mouse-over-selected='true']  { opacity: 1.0; }
]]>
</style>
<script type="application/ecmascript"><![CDATA[
document.addEventListener('DOMContentLoaded', (event) => {
  highlightEdges();
  highlightAdjacentNodes();
});
]]></script>
</svg>
