<?xml version="1.0" encoding="UTF-8" standalone="no"?>
<!DOCTYPE svg PUBLIC "-//W3C//DTD SVG 1.1//EN"
 "http://www.w3.org/Graphics/SVG/1.1/DTD/svg11.dtd">
<!-- Generated by graphviz version 14.1.4 (0)
 -->
<!-- Title: source/motion/motor/motor_core.h Pages: 1 -->
<svg width="1351pt" height="250pt"
 viewBox="0.00 0.00 1351.00 250.00" xmlns="http://www.w3.org/2000/svg" xmlns:xlink="http://www.w3.org/1999/xlink">
<g id="graph0" class="graph" transform="scale(1 1) rotate(0) translate(4 246)">
<title>source/motion/motor/motor_core.h</title>
<!-- Node1 -->
<g id="Node000001" class="node">
<title>Node1</title>
<g id="a_Node000001"><a xlink:title=" ">
<polygon fill="#999999" stroke="#666666" points="932,-242 814,-242 814,-208.5 932,-208.5 932,-242"/>
<text xml:space="preserve" text-anchor="start" x="822" y="-228.5" font-family="Helvetica,sans-Serif" font-size="10.00">source/motion/motor</text>
<text xml:space="preserve" text-anchor="middle" x="873" y="-215.75" font-family="Helvetica,sans-Serif" font-size="10.00">/motor_core.h</text>
</a>
</g>
</g>
<!-- Node2 -->
<g id="Node000002" class="node">
<title>Node2</title>
<g id="a_Node000002"><a xlink:href="application_8c.html" target="_top" xlink:title=" ">
<polygon fill="white" stroke="#666666" points="545.75,-166.12 432.25,-166.12 432.25,-145.38 545.75,-145.38 545.75,-166.12"/>
<text xml:space="preserve" text-anchor="middle" x="489" y="-152.62" font-family="Helvetica,sans-Serif" font-size="10.00">source/application.c</text>
</a>
</g>
</g>
<!-- Node1&#45;&gt;Node2 -->
<g id="edge1_Node000001_Node000002" class="edge">
<title>Node1&#45;&gt;Node2</title>
<g id="a_edge1_Node000001_Node000002"><a xlink:title=" ">
<path fill="none" stroke="#63b8ff" d="M802.61,-213.73C739.04,-203.97 643.02,-188.56 560,-172.5 550.83,-170.73 541.02,-168.66 531.72,-166.62"/>
<polygon fill="#63b8ff" stroke="#63b8ff" points="801.79,-217.15 812.2,-215.2 802.85,-210.23 801.79,-217.15"/>
</a>
</g>
</g>
<!-- Node3 -->
<g id="Node000003" class="node">
<title>Node3</title>
<g id="a_Node000003"><a xlink:href="motor__convert_8h.html" target="_top" xlink:title=" ">
<polygon fill="white" stroke="#666666" points="932,-103 814,-103 814,-69.5 932,-69.5 932,-103"/>
<text xml:space="preserve" text-anchor="start" x="822" y="-89.5" font-family="Helvetica,sans-Serif" font-size="10.00">source/motion/motor</text>
<text xml:space="preserve" text-anchor="middle" x="873" y="-76.75" font-family="Helvetica,sans-Serif" font-size="10.00">/motor_convert.h</text>
</a>
</g>
</g>
<!-- Node1&#45;&gt;Node3 -->
<g id="edge2_Node000001_Node000003" class="edge">
<title>Node1&#45;&gt;Node3</title>
<g id="a_edge2_Node000001_Node000003"><a xlink:title=" ">
<path fill="none" stroke="#63b8ff" d="M873,-196.87C873,-168.79 873,-126.07 873,-103.13"/>
<polygon fill="#63b8ff" stroke="#63b8ff" points="869.5,-196.75 873,-206.75 876.5,-196.75 869.5,-196.75"/>
</a>
</g>
</g>
<!-- Node7 -->
<g id="Node000007" class="node">
<title>Node7</title>
<g id="a_Node000007"><a xlink:href="motorCmd_8c.html" target="_top" xlink:title=" ">
<polygon fill="white" stroke="#666666" points="1063.62,-27.12 952.38,-27.12 952.38,-6.38 1063.62,-6.38 1063.62,-27.12"/>
<text xml:space="preserve" text-anchor="middle" x="1008" y="-13.62" font-family="Helvetica,sans-Serif" font-size="10.00">source/motorCmd.c</text>
</a>
</g>
</g>
<!-- Node1&#45;&gt;Node7 -->
<g id="edge33_Node000001_Node000007" class="edge">
<title>Node1&#45;&gt;Node7</title>
<g id="a_edge33_Node000001_Node000007"><a xlink:title=" ">
<path fill="none" stroke="#63b8ff" d="M889.87,-198.45C920.06,-152.26 982.05,-57.45 1001.8,-27.23"/>
<polygon fill="#63b8ff" stroke="#63b8ff" points="886.96,-196.49 884.42,-206.78 892.82,-200.32 886.96,-196.49"/>
</a>
</g>
</g>
<!-- Node8 -->
<g id="Node000008" class="node">
<title>Node8</title>
<g id="a_Node000008"><a xlink:href="motor__homing_8c.html" target="_top" xlink:title=" ">
<polygon fill="white" stroke="#666666" points="1212.38,-27.12 1081.62,-27.12 1081.62,-6.38 1212.38,-6.38 1212.38,-27.12"/>
<text xml:space="preserve" text-anchor="middle" x="1147" y="-13.62" font-family="Helvetica,sans-Serif" font-size="10.00">source/motor_homing.c</text>
</a>
</g>
</g>
<!-- Node1&#45;&gt;Node8 -->
<g id="edge36_Node000001_Node000008" class="edge">
<title>Node1&#45;&gt;Node8</title>
<g id="a_edge36_Node000001_Node000008"><a xlink:title=" ">
<path fill="none" stroke="#63b8ff" d="M943.36,-209.29C1001.92,-193.1 1082.91,-161.38 1129,-103 1146.71,-80.56 1148.08,-44.79 1147.59,-27.6"/>
<polygon fill="#63b8ff" stroke="#63b8ff" points="942.55,-205.88 933.79,-211.83 944.36,-212.64 942.55,-205.88"/>
</a>
</g>
</g>
<!-- Node9 -->
<g id="Node000009" class="node">
<title>Node9</title>
<g id="a_Node000009"><a xlink:href="motor__core_8c.html" target="_top" xlink:title=" ">
<polygon fill="white" stroke="#666666" points="526,-33.5 408,-33.5 408,0 526,0 526,-33.5"/>
<text xml:space="preserve" text-anchor="start" x="416" y="-20" font-family="Helvetica,sans-Serif" font-size="10.00">source/motion/motor</text>
<text xml:space="preserve" text-anchor="middle" x="467" y="-7.25" font-family="Helvetica,sans-Serif" font-size="10.00">/motor_core.c</text>
</a>
</g>
</g>
<!-- Node1&#45;&gt;Node9 -->
<g id="edge8_Node000001_Node000009" class="edge">
<title>Node1&#45;&gt;Node9</title>
<g id="a_edge8_Node000001_Node000009"><a xlink:title=" ">
<path fill="none" stroke="#63b8ff" d="M857.14,-198.9C833.71,-163.76 786.38,-101.03 729,-69.5 652.14,-27.27 620.85,-51.4 535,-33.5 532.15,-32.91 529.24,-32.29 526.3,-31.65"/>
<polygon fill="#63b8ff" stroke="#63b8ff" points="854.14,-200.71 862.54,-207.17 860.01,-196.89 854.14,-200.71"/>
</a>
</g>
</g>
<!-- Node10 -->
<g id="Node000010" class="node">
<title>Node10</title>
<g id="a_Node000010"><a xlink:href="motor__init_8h.html" target="_top" xlink:title=" ">
<polygon fill="white" stroke="#666666" points="176,-103 58,-103 58,-69.5 176,-69.5 176,-103"/>
<text xml:space="preserve" text-anchor="start" x="66" y="-89.5" font-family="Helvetica,sans-Serif" font-size="10.00">source/motion/motor</text>
<text xml:space="preserve" text-anchor="middle" x="117" y="-76.75" font-family="Helvetica,sans-Serif" font-size="10.00">/motor_init.h</text>
</a>
</g>
</g>
<!-- Node1&#45;&gt;Node10 -->
<g id="edge9_Node000001_Node000010" class="edge">
<title>Node1&#45;&gt;Node10</title>
<g id="a_edge9_Node000001_Node000010"><a xlink:title=" ">
<path fill="none" stroke="#63b8ff" d="M802.21,-221.6C743.56,-217.01 659.37,-204.78 593,-172.5 572.75,-162.65 575.65,-147.97 555,-139 403.46,-73.18 348.05,-129.7 185,-103 182.13,-102.53 179.2,-102.01 176.25,-101.45"/>
<polygon fill="#63b8ff" stroke="#63b8ff" points="801.85,-225.08 812.08,-222.31 802.35,-218.1 801.85,-225.08"/>
</a>
</g>
</g>
<!-- Node13 -->
<g id="Node000013" class="node">
<title>Node13</title>
<g id="a_Node000013"><a xlink:href="motor__internal_8h.html" target="_top" xlink:title=" ">
<polygon fill="white" stroke="#666666" points="720,-172.5 602,-172.5 602,-139 720,-139 720,-172.5"/>
<text xml:space="preserve" text-anchor="start" x="610" y="-159" font-family="Helvetica,sans-Serif" font-size="10.00">source/motion/motor</text>
<text xml:space="preserve" text-anchor="middle" x="661" y="-146.25" font-family="Helvetica,sans-Serif" font-size="10.00">/motor_internal.h</text>
</a>
</g>
</g>
<!-- Node1&#45;&gt;Node13 -->
<g id="edge12_Node000001_Node000013" class="edge">
<title>Node1&#45;&gt;Node13</title>
<g id="a_edge12_Node000001_Node000013"><a xlink:title=" ">
<path fill="none" stroke="#63b8ff" d="M811.32,-204.61C779.69,-194.54 741.64,-182.42 711.73,-172.9"/>
<polygon fill="#63b8ff" stroke="#63b8ff" points="810.19,-207.92 820.78,-207.62 812.31,-201.25 810.19,-207.92"/>
</a>
</g>
</g>
<!-- Node20 -->
<g id="Node000020" class="node">
<title>Node20</title>
<g id="a_Node000020"><a xlink:href="motor__test_8c.html" target="_top" xlink:title=" ">
<polygon fill="white" stroke="#666666" points="1343.38,-27.12 1230.62,-27.12 1230.62,-6.38 1343.38,-6.38 1343.38,-27.12"/>
<text xml:space="preserve" text-anchor="middle" x="1287" y="-13.62" font-family="Helvetica,sans-Serif" font-size="10.00">source/motor_test.c</text>
</a>
</g>
</g>
<!-- Node1&#45;&gt;Node20 -->
<g id="edge37_Node000001_Node000020" class="edge">
<title>Node1&#45;&gt;Node20</title>
<g id="a_edge37_Node000001_Node000020"><a xlink:title=" ">
<path fill="none" stroke="#63b8ff" d="M943.53,-221.05C1062.07,-214.94 1290.77,-199.73 1315,-172.5 1352.75,-130.07 1310.67,-54.43 1293.57,-27.56"/>
<polygon fill="#63b8ff" stroke="#63b8ff" points="943.39,-217.55 933.57,-221.55 943.74,-224.54 943.39,-217.55"/>
</a>
</g>
</g>
<!-- Node21 -->
<g id="Node000021" class="node">
<title>Node21</title>
<g id="a_Node000021"><a xlink:href="motor__configs_8h.html" target="_top" xlink:title=" ">
<polygon fill="white" stroke="#666666" points="1305.62,-166.12 1176.38,-166.12 1176.38,-145.38 1305.62,-145.38 1305.62,-166.12"/>
<text xml:space="preserve" text-anchor="middle" x="1241" y="-152.62" font-family="Helvetica,sans-Serif" font-size="10.00">source/motor_configs.h</text>
</a>
</g>
</g>
<!-- Node1&#45;&gt;Node21 -->
<g id="edge34_Node000001_Node000021" class="edge">
<title>Node1&#45;&gt;Node21</title>
<g id="a_edge34_Node000001_Node000021"><a xlink:title=" ">
<path fill="none" stroke="#63b8ff" d="M943.26,-212.07C1001.83,-201.81 1087.42,-186.61 1162,-172.5 1171.89,-170.63 1182.47,-168.56 1192.57,-166.56"/>
<polygon fill="#63b8ff" stroke="#63b8ff" points="943.02,-208.55 933.78,-213.72 944.23,-215.45 943.02,-208.55"/>
</a>
</g>
</g>
<!-- Node4 -->
<g id="Node000004" class="node">
<title>Node4</title>
<g id="a_Node000004"><a xlink:href="motor__convert_8c.html" target="_top" xlink:title=" ">
<polygon fill="white" stroke="#666666" points="934,-33.5 816,-33.5 816,0 934,0 934,-33.5"/>
<text xml:space="preserve" text-anchor="start" x="824" y="-20" font-family="Helvetica,sans-Serif" font-size="10.00">source/motion/motor</text>
<text xml:space="preserve" text-anchor="middle" x="875" y="-7.25" font-family="Helvetica,sans-Serif" font-size="10.00">/motor_convert.c</text>
</a>
</g>
</g>
<!-- Node3&#45;&gt;Node4 -->
<g id="edge3_Node000003_Node000004" class="edge">
<title>Node3&#45;&gt;Node4</title>
<g id="a_edge3_Node000003_Node000004"><a xlink:title=" ">
<path fill="none" stroke="#63b8ff" d="M873.81,-57.81C874.06,-49.59 874.32,-40.84 874.53,-33.63"/>
<polygon fill="#63b8ff" stroke="#63b8ff" points="870.32,-57.64 873.52,-67.74 877.31,-57.85 870.32,-57.64"/>
</a>
</g>
</g>
<!-- Node5 -->
<g id="Node000005" class="node">
<title>Node5</title>
<g id="a_Node000005"><a xlink:href="motor__motion_8c.html" target="_top" xlink:title=" ">
<polygon fill="white" stroke="#666666" points="662,-33.5 544,-33.5 544,0 662,0 662,-33.5"/>
<text xml:space="preserve" text-anchor="start" x="552" y="-20" font-family="Helvetica,sans-Serif" font-size="10.00">source/motion/motor</text>
<text xml:space="preserve" text-anchor="middle" x="603" y="-7.25" font-family="Helvetica,sans-Serif" font-size="10.00">/motor_motion.c</text>
</a>
</g>
</g>
<!-- Node3&#45;&gt;Node5 -->
<g id="edge4_Node000003_Node000005" class="edge">
<title>Node3&#45;&gt;Node5</title>
<g id="a_edge4_Node000003_Node000005"><a xlink:title=" ">
<path fill="none" stroke="#63b8ff" d="M802.63,-67.66C758.97,-56.74 703.5,-42.87 662.11,-32.53"/>
<polygon fill="#63b8ff" stroke="#63b8ff" points="801.73,-71.04 812.28,-70.07 803.43,-64.25 801.73,-71.04"/>
</a>
</g>
</g>
<!-- Node6 -->
<g id="Node000006" class="node">
<title>Node6</title>
<g id="a_Node000006"><a xlink:href="motor__sync_8c.html" target="_top" xlink:title=" ">
<polygon fill="white" stroke="#666666" points="798,-33.5 680,-33.5 680,0 798,0 798,-33.5"/>
<text xml:space="preserve" text-anchor="start" x="688" y="-20" font-family="Helvetica,sans-Serif" font-size="10.00">source/motion/motor</text>
<text xml:space="preserve" text-anchor="middle" x="739" y="-7.25" font-family="Helvetica,sans-Serif" font-size="10.00">/motor_sync.c</text>
</a>
</g>
</g>
<!-- Node3&#45;&gt;Node6 -->
<g id="edge5_Node000003_Node000006" class="edge">
<title>Node3&#45;&gt;Node6</title>
<g id="a_edge5_Node000003_Node000006"><a xlink:title=" ">
<path fill="none" stroke="#63b8ff" d="M830.8,-63.99C811.4,-54.22 788.77,-42.82 770.83,-33.79"/>
<polygon fill="#63b8ff" stroke="#63b8ff" points="829.05,-67.03 839.55,-68.4 832.2,-60.78 829.05,-67.03"/>
</a>
</g>
</g>
<!-- Node3&#45;&gt;Node7 -->
<g id="edge6_Node000003_Node000007" class="edge">
<title>Node3&#45;&gt;Node7</title>
<g id="a_edge6_Node000003_Node000007"><a xlink:title=" ">
<path fill="none" stroke="#63b8ff" d="M915.45,-64.02C939.89,-51.81 969.43,-37.03 988.46,-27.52"/>
<polygon fill="#63b8ff" stroke="#63b8ff" points="914.07,-60.8 906.69,-68.41 917.2,-67.06 914.07,-60.8"/>
</a>
</g>
</g>
<!-- Node3&#45;&gt;Node8 -->
<g id="edge7_Node000003_Node000008" class="edge">
<title>Node3&#45;&gt;Node8</title>
<g id="a_edge7_Node000003_Node000008"><a xlink:title=" ">
<path fill="none" stroke="#63b8ff" d="M943.6,-67.86C995.57,-55.05 1064.35,-38.11 1107.12,-27.57"/>
<polygon fill="#63b8ff" stroke="#63b8ff" points="942.8,-64.45 933.92,-70.24 944.47,-71.25 942.8,-64.45"/>
</a>
</g>
</g>
<!-- Node11 -->
<g id="Node000011" class="node">
<title>Node11</title>
<g id="a_Node000011"><a xlink:href="motor__init_8c.html" target="_top" xlink:title=" ">
<polygon fill="white" stroke="#666666" points="118,-33.5 0,-33.5 0,0 118,0 118,-33.5"/>
<text xml:space="preserve" text-anchor="start" x="8" y="-20" font-family="Helvetica,sans-Serif" font-size="10.00">source/motion/motor</text>
<text xml:space="preserve" text-anchor="middle" x="59" y="-7.25" font-family="Helvetica,sans-Serif" font-size="10.00">/motor_init.c</text>
</a>
</g>
</g>
<!-- Node10&#45;&gt;Node11 -->
<g id="edge10_Node000010_Node000011" class="edge">
<title>Node10&#45;&gt;Node11</title>
<g id="a_edge10_Node000010_Node000011"><a xlink:title=" ">
<path fill="none" stroke="#63b8ff" d="M95.87,-60.66C88.12,-51.64 79.57,-41.68 72.65,-33.63"/>
<polygon fill="#63b8ff" stroke="#63b8ff" points="93.1,-62.8 102.27,-68.11 98.41,-58.24 93.1,-62.8"/>
</a>
</g>
</g>
<!-- Node12 -->
<g id="Node000012" class="node">
<title>Node12</title>
<g id="a_Node000012"><a xlink:href="motor__process_8c.html" target="_top" xlink:title=" ">
<polygon fill="white" stroke="#666666" points="390,-33.5 272,-33.5 272,0 390,0 390,-33.5"/>
<text xml:space="preserve" text-anchor="start" x="280" y="-20" font-family="Helvetica,sans-Serif" font-size="10.00">source/motion/motor</text>
<text xml:space="preserve" text-anchor="middle" x="331" y="-7.25" font-family="Helvetica,sans-Serif" font-size="10.00">/motor_process.c</text>
</a>
</g>
</g>
<!-- Node10&#45;&gt;Node12 -->
<g id="edge11_Node000010_Node000012" class="edge">
<title>Node10&#45;&gt;Node12</title>
<g id="a_edge11_Node000010_Node000012"><a xlink:title=" ">
<path fill="none" stroke="#63b8ff" d="M178.84,-65.74C210.85,-55.65 249.47,-43.47 279.79,-33.9"/>
<polygon fill="#63b8ff" stroke="#63b8ff" points="178.19,-62.28 169.7,-68.63 180.29,-68.96 178.19,-62.28"/>
</a>
</g>
</g>
<!-- Node13&#45;&gt;Node4 -->
<g id="edge13_Node000013_Node000004" class="edge">
<title>Node13&#45;&gt;Node4</title>
<g id="a_edge13_Node000013_Node000004"><a xlink:title=" ">
<path fill="none" stroke="#63b8ff" d="M695.49,-132.67C738.67,-105.03 811.6,-58.34 849.86,-33.84"/>
<polygon fill="#63b8ff" stroke="#63b8ff" points="693.78,-129.61 687.24,-137.95 697.55,-135.51 693.78,-129.61"/>
</a>
</g>
</g>
<!-- Node13&#45;&gt;Node10 -->
<g id="edge14_Node000013_Node000010" class="edge">
<title>Node13&#45;&gt;Node10</title>
<g id="a_edge14_Node000013_Node000010"><a xlink:title=" ">
<path fill="none" stroke="#63b8ff" d="M590.54,-139.39C589.69,-139.26 588.84,-139.13 588,-139 410.22,-111.99 362.57,-131.36 185,-103 182.13,-102.54 179.2,-102.03 176.24,-101.48"/>
<polygon fill="#63b8ff" stroke="#63b8ff" points="589.81,-142.82 600.26,-141.07 591,-135.92 589.81,-142.82"/>
</a>
</g>
</g>
<!-- Node14 -->
<g id="Node000014" class="node">
<title>Node14</title>
<g id="a_Node000014"><a xlink:href="motor__motion_8h.html" target="_top" xlink:title=" ">
<polygon fill="white" stroke="#666666" points="584,-103 466,-103 466,-69.5 584,-69.5 584,-103"/>
<text xml:space="preserve" text-anchor="start" x="474" y="-89.5" font-family="Helvetica,sans-Serif" font-size="10.00">source/motion/motor</text>
<text xml:space="preserve" text-anchor="middle" x="525" y="-76.75" font-family="Helvetica,sans-Serif" font-size="10.00">/motor_motion.h</text>
</a>
</g>
</g>
<!-- Node13&#45;&gt;Node14 -->
<g id="edge15_Node000013_Node000014" class="edge">
<title>Node13&#45;&gt;Node14</title>
<g id="a_edge15_Node000013_Node000014"><a xlink:title=" ">
<path fill="none" stroke="#63b8ff" d="M618.17,-133.49C598.48,-123.72 575.51,-112.32 557.31,-103.29"/>
<polygon fill="#63b8ff" stroke="#63b8ff" points="616.56,-136.6 627.07,-137.91 619.67,-130.33 616.56,-136.6"/>
</a>
</g>
</g>
<!-- Node16 -->
<g id="Node000016" class="node">
<title>Node16</title>
<g id="a_Node000016"><a xlink:href="motor__process_8h.html" target="_top" xlink:title=" ">
<polygon fill="white" stroke="#666666" points="448,-103 330,-103 330,-69.5 448,-69.5 448,-103"/>
<text xml:space="preserve" text-anchor="start" x="338" y="-89.5" font-family="Helvetica,sans-Serif" font-size="10.00">source/motion/motor</text>
<text xml:space="preserve" text-anchor="middle" x="389" y="-76.75" font-family="Helvetica,sans-Serif" font-size="10.00">/motor_process.h</text>
</a>
</g>
</g>
<!-- Node13&#45;&gt;Node16 -->
<g id="edge20_Node000013_Node000016" class="edge">
<title>Node13&#45;&gt;Node16</title>
<g id="a_edge20_Node000013_Node000016"><a xlink:title=" ">
<path fill="none" stroke="#63b8ff" d="M590.69,-137.3C546.5,-126.34 490.13,-112.35 448.23,-101.95"/>
<polygon fill="#63b8ff" stroke="#63b8ff" points="589.63,-140.64 600.18,-139.66 591.31,-133.85 589.63,-140.64"/>
</a>
</g>
</g>
<!-- Node17 -->
<g id="Node000017" class="node">
<title>Node17</title>
<g id="a_Node000017"><a xlink:href="motor__sync_8h.html" target="_top" xlink:title=" ">
<polygon fill="white" stroke="#666666" points="720,-103 602,-103 602,-69.5 720,-69.5 720,-103"/>
<text xml:space="preserve" text-anchor="start" x="610" y="-89.5" font-family="Helvetica,sans-Serif" font-size="10.00">source/motion/motor</text>
<text xml:space="preserve" text-anchor="middle" x="661" y="-76.75" font-family="Helvetica,sans-Serif" font-size="10.00">/motor_sync.h</text>
</a>
</g>
</g>
<!-- Node13&#45;&gt;Node17 -->
<g id="edge23_Node000013_Node000017" class="edge">
<title>Node13&#45;&gt;Node17</title>
<g id="a_edge23_Node000013_Node000017"><a xlink:title=" ">
<path fill="none" stroke="#63b8ff" d="M661,-127.31C661,-119.09 661,-110.34 661,-103.13"/>
<polygon fill="#63b8ff" stroke="#63b8ff" points="657.5,-127.24 661,-137.24 664.5,-127.24 657.5,-127.24"/>
</a>
</g>
</g>
<!-- Node18 -->
<g id="Node000018" class="node">
<title>Node18</title>
<g id="a_Node000018"><a xlink:href="motor__tmc_8h.html" target="_top" xlink:title=" ">
<polygon fill="white" stroke="#666666" points="312,-103 194,-103 194,-69.5 312,-69.5 312,-103"/>
<text xml:space="preserve" text-anchor="start" x="202" y="-89.5" font-family="Helvetica,sans-Serif" font-size="10.00">source/motion/motor</text>
<text xml:space="preserve" text-anchor="middle" x="253" y="-76.75" font-family="Helvetica,sans-Serif" font-size="10.00">/motor_tmc.h</text>
</a>
</g>
</g>
<!-- Node13&#45;&gt;Node18 -->
<g id="edge26_Node000013_Node000018" class="edge">
<title>Node13&#45;&gt;Node18</title>
<g id="a_edge26_Node000013_Node000018"><a xlink:title=" ">
<path fill="none" stroke="#63b8ff" d="M590.53,-139.45C589.68,-139.3 588.84,-139.15 588,-139 470.05,-118.36 438.79,-124.53 321,-103 318.14,-102.48 315.22,-101.91 312.27,-101.32"/>
<polygon fill="#63b8ff" stroke="#63b8ff" points="589.75,-142.86 600.23,-141.27 591.05,-135.98 589.75,-142.86"/>
</a>
</g>
</g>
<!-- Node19 -->
<g id="Node000019" class="node">
<title>Node19</title>
<g id="a_Node000019"><a xlink:href="motor__homing_8h.html" target="_top" xlink:title=" ">
<polygon fill="white" stroke="#666666" points="1119.75,-96.62 988.25,-96.62 988.25,-75.88 1119.75,-75.88 1119.75,-96.62"/>
<text xml:space="preserve" text-anchor="middle" x="1054" y="-83.12" font-family="Helvetica,sans-Serif" font-size="10.00">source/motor_homing.h</text>
</a>
</g>
</g>
<!-- Node13&#45;&gt;Node19 -->
<g id="edge29_Node000013_Node000019" class="edge">
<title>Node13&#45;&gt;Node19</title>
<g id="a_edge29_Node000013_Node000019"><a xlink:title=" ">
<path fill="none" stroke="#63b8ff" d="M731.59,-142.63C807.46,-129.6 926.58,-109.13 996.82,-97.07"/>
<polygon fill="#63b8ff" stroke="#63b8ff" points="731.02,-139.17 721.75,-144.32 732.2,-146.07 731.02,-139.17"/>
</a>
</g>
</g>
<!-- Node14&#45;&gt;Node5 -->
<g id="edge17_Node000014_Node000005" class="edge">
<title>Node14&#45;&gt;Node5</title>
<g id="a_edge17_Node000014_Node000005"><a xlink:title=" ">
<path fill="none" stroke="#63b8ff" d="M552.06,-61.84C562.72,-52.6 574.71,-42.23 584.38,-33.87"/>
<polygon fill="#63b8ff" stroke="#63b8ff" points="549.9,-59.07 544.63,-68.26 554.48,-64.37 549.9,-59.07"/>
</a>
</g>
</g>
<!-- Node14&#45;&gt;Node9 -->
<g id="edge16_Node000014_Node000009" class="edge">
<title>Node14&#45;&gt;Node9</title>
<g id="a_edge16_Node000014_Node000009"><a xlink:title=" ">
<path fill="none" stroke="#63b8ff" d="M503.87,-60.66C496.12,-51.64 487.57,-41.68 480.65,-33.63"/>
<polygon fill="#63b8ff" stroke="#63b8ff" points="501.1,-62.8 510.27,-68.11 506.41,-58.24 501.1,-62.8"/>
</a>
</g>
</g>
<!-- Node14&#45;&gt;Node12 -->
<g id="edge18_Node000014_Node000012" class="edge">
<title>Node14&#45;&gt;Node12</title>
<g id="a_edge18_Node000014_Node000012"><a xlink:title=" ">
<path fill="none" stroke="#63b8ff" d="M467.8,-65.35C439.01,-55.33 404.55,-43.34 377.42,-33.9"/>
<polygon fill="#63b8ff" stroke="#63b8ff" points="466.51,-68.6 477.1,-68.58 468.81,-61.99 466.51,-68.6"/>
</a>
</g>
</g>
<!-- Node15 -->
<g id="Node000015" class="node">
<title>Node15</title>
<g id="a_Node000015"><a xlink:href="motor__tmc_8c.html" target="_top" xlink:title=" ">
<polygon fill="white" stroke="#666666" points="254,-33.5 136,-33.5 136,0 254,0 254,-33.5"/>
<text xml:space="preserve" text-anchor="start" x="144" y="-20" font-family="Helvetica,sans-Serif" font-size="10.00">source/motion/motor</text>
<text xml:space="preserve" text-anchor="middle" x="195" y="-7.25" font-family="Helvetica,sans-Serif" font-size="10.00">/motor_tmc.c</text>
</a>
</g>
</g>
<!-- Node14&#45;&gt;Node15 -->
<g id="edge19_Node000014_Node000015" class="edge">
<title>Node14&#45;&gt;Node15</title>
<g id="a_edge19_Node000014_Node000015"><a xlink:title=" ">
<path fill="none" stroke="#63b8ff" d="M454.68,-69.07C369.26,-51.56 345.41,-50.68 263,-33.5 260.15,-32.91 257.24,-32.29 254.3,-31.65"/>
<polygon fill="#63b8ff" stroke="#63b8ff" points="453.71,-72.45 464.21,-71.05 455.13,-65.59 453.71,-72.45"/>
</a>
</g>
</g>
<!-- Node16&#45;&gt;Node9 -->
<g id="edge21_Node000016_Node000009" class="edge">
<title>Node16&#45;&gt;Node9</title>
<g id="a_edge21_Node000016_Node000009"><a xlink:title=" ">
<path fill="none" stroke="#63b8ff" d="M416.06,-61.84C426.72,-52.6 438.71,-42.23 448.38,-33.87"/>
<polygon fill="#63b8ff" stroke="#63b8ff" points="413.9,-59.07 408.63,-68.26 418.48,-64.37 413.9,-59.07"/>
</a>
</g>
</g>
<!-- Node16&#45;&gt;Node12 -->
<g id="edge22_Node000016_Node000012" class="edge">
<title>Node16&#45;&gt;Node12</title>
<g id="a_edge22_Node000016_Node000012"><a xlink:title=" ">
<path fill="none" stroke="#63b8ff" d="M367.87,-60.66C360.12,-51.64 351.57,-41.68 344.65,-33.63"/>
<polygon fill="#63b8ff" stroke="#63b8ff" points="365.1,-62.8 374.27,-68.11 370.41,-58.24 365.1,-62.8"/>
</a>
</g>
</g>
<!-- Node17&#45;&gt;Node6 -->
<g id="edge25_Node000017_Node000006" class="edge">
<title>Node17&#45;&gt;Node6</title>
<g id="a_edge25_Node000017_Node000006"><a xlink:title=" ">
<path fill="none" stroke="#63b8ff" d="M688.06,-61.84C698.72,-52.6 710.71,-42.23 720.38,-33.87"/>
<polygon fill="#63b8ff" stroke="#63b8ff" points="685.9,-59.07 680.63,-68.26 690.48,-64.37 685.9,-59.07"/>
</a>
</g>
</g>
<!-- Node17&#45;&gt;Node12 -->
<g id="edge24_Node000017_Node000012" class="edge">
<title>Node17&#45;&gt;Node12</title>
<g id="a_edge24_Node000017_Node000012"><a xlink:title=" ">
<path fill="none" stroke="#63b8ff" d="M590.68,-69.07C505.26,-51.56 481.41,-50.68 399,-33.5 396.15,-32.91 393.24,-32.29 390.3,-31.65"/>
<polygon fill="#63b8ff" stroke="#63b8ff" points="589.71,-72.45 600.21,-71.05 591.13,-65.59 589.71,-72.45"/>
</a>
</g>
</g>
<!-- Node18&#45;&gt;Node12 -->
<g id="edge27_Node000018_Node000012" class="edge">
<title>Node18&#45;&gt;Node12</title>
<g id="a_edge27_Node000018_Node000012"><a xlink:title=" ">
<path fill="none" stroke="#63b8ff" d="M280.06,-61.84C290.72,-52.6 302.71,-42.23 312.38,-33.87"/>
<polygon fill="#63b8ff" stroke="#63b8ff" points="277.9,-59.07 272.63,-68.26 282.48,-64.37 277.9,-59.07"/>
</a>
</g>
</g>
<!-- Node18&#45;&gt;Node15 -->
<g id="edge28_Node000018_Node000015" class="edge">
<title>Node18&#45;&gt;Node15</title>
<g id="a_edge28_Node000018_Node000015"><a xlink:title=" ">
<path fill="none" stroke="#63b8ff" d="M231.87,-60.66C224.12,-51.64 215.57,-41.68 208.65,-33.63"/>
<polygon fill="#63b8ff" stroke="#63b8ff" points="229.1,-62.8 238.27,-68.11 234.41,-58.24 229.1,-62.8"/>
</a>
</g>
</g>
<!-- Node19&#45;&gt;Node7 -->
<g id="edge30_Node000019_Node000007" class="edge">
<title>Node19&#45;&gt;Node7</title>
<g id="a_edge30_Node000019_Node000007"><a xlink:title=" ">
<path fill="none" stroke="#63b8ff" d="M1041.12,-66.35C1032.48,-53.68 1021.47,-37.52 1014.58,-27.4"/>
<polygon fill="#63b8ff" stroke="#63b8ff" points="1038.03,-68.04 1046.56,-74.33 1043.82,-64.09 1038.03,-68.04"/>
</a>
</g>
</g>
<!-- Node19&#45;&gt;Node8 -->
<g id="edge31_Node000019_Node000008" class="edge">
<title>Node19&#45;&gt;Node8</title>
<g id="a_edge31_Node000019_Node000008"><a xlink:title=" ">
<path fill="none" stroke="#63b8ff" d="M1076.43,-68.97C1094.2,-56.07 1118.45,-38.47 1133.4,-27.62"/>
<polygon fill="#63b8ff" stroke="#63b8ff" points="1074.59,-65.98 1068.55,-74.69 1078.7,-71.65 1074.59,-65.98"/>
</a>
</g>
</g>
<!-- Node19&#45;&gt;Node20 -->
<g id="edge32_Node000019_Node000020" class="edge">
<title>Node19&#45;&gt;Node20</title>
<g id="a_edge32_Node000019_Node000020"><a xlink:title=" ">
<path fill="none" stroke="#63b8ff" d="M1098.8,-72.27C1143.86,-59.22 1212.34,-39.38 1253.08,-27.58"/>
<polygon fill="#63b8ff" stroke="#63b8ff" points="1097.97,-68.87 1089.33,-75.01 1099.91,-75.59 1097.97,-68.87"/>
</a>
</g>
</g>
<!-- Node21&#45;&gt;Node20 -->
<g id="edge35_Node000021_Node000020" class="edge">
<title>Node21&#45;&gt;Node20</title>
<g id="a_edge35_Node000021_Node000020"><a xlink:title=" ">
<path fill="none" stroke="#63b8ff" d="M1247.96,-134.03C1258.03,-104.02 1276.29,-49.64 1283.72,-27.51"/>
<polygon fill="#63b8ff" stroke="#63b8ff" points="1244.66,-132.87 1244.79,-143.46 1251.29,-135.1 1244.66,-132.87"/>
</a>
</g>
</g>
</g>
</svg>
