<?xml version="1.0" encoding="UTF-8" standalone="no"?>
<!DOCTYPE svg PUBLIC "-//W3C//DTD SVG 1.1//EN"
 "http://www.w3.org/Graphics/SVG/1.1/DTD/svg11.dtd">
<!-- Generated by graphviz version 14.1.5 (0)
 -->
<!-- Title: source/motion/motor/motor_init.h Pages: 1 -->
<svg width="1193pt" height="382pt"
 viewBox="0.00 0.00 1193.00 382.00" xmlns="http://www.w3.org/2000/svg" xmlns:xlink="http://www.w3.org/1999/xlink">
<g id="graph0" class="graph" transform="scale(1 1) rotate(0) translate(4 378)">
<title>source/motion/motor/motor_init.h</title>
<!-- Node1 -->
<g id="Node000001" class="node">
<title>Node1</title>
<g id="a_Node000001"><a xlink:title=" ">
<polygon fill="#999999" stroke="#666666" points="769.38,-374 651.38,-374 651.38,-340.5 769.38,-340.5 769.38,-374"/>
<text xml:space="preserve" text-anchor="start" x="659.38" y="-360.5" font-family="Helvetica,sans-Serif" font-size="10.00">source/motion/motor</text>
<text xml:space="preserve" text-anchor="middle" x="710.38" y="-347.75" font-family="Helvetica,sans-Serif" font-size="10.00">/motor_init.h</text>
</a>
</g>
</g>
<!-- Node2 -->
<g id="Node000002" class="node">
<title>Node2</title>
<g id="a_Node000002"><a xlink:href="motor__core_8h.html" target="_top" xlink:title=" ">
<polygon fill="white" stroke="#666666" points="533.62,-247.75 453.12,-247.75 453.12,-227 533.62,-227 533.62,-247.75"/>
<text xml:space="preserve" text-anchor="middle" x="493.38" y="-234.25" font-family="Helvetica,sans-Serif" font-size="10.00">motor_core.h</text>
</a>
</g>
</g>
<!-- Node1&#45;&gt;Node2 -->
<g id="edge1_Node000001_Node000002" class="edge">
<title>Node1&#45;&gt;Node2</title>
<g id="a_edge1_Node000001_Node000002"><a xlink:title=" ">
<path fill="none" stroke="#63b8ff" d="M680.66,-340.11C638.59,-317.25 562.23,-275.78 521.21,-253.49"/>
<polygon fill="#63b8ff" stroke="#63b8ff" points="523.13,-250.56 512.68,-248.86 519.79,-256.71 523.13,-250.56"/>
</a>
</g>
</g>
<!-- Node22 -->
<g id="Node000022" class="node">
<title>Node22</title>
<g id="a_Node000022"><a xlink:href="motor__internal_8h.html" target="_top" xlink:title=" ">
<polygon fill="white" stroke="#666666" points="976.88,-304.5 879.88,-304.5 879.88,-283.75 976.88,-283.75 976.88,-304.5"/>
<text xml:space="preserve" text-anchor="middle" x="928.38" y="-291" font-family="Helvetica,sans-Serif" font-size="10.00">motor_internal.h</text>
</a>
</g>
</g>
<!-- Node1&#45;&gt;Node22 -->
<g id="edge39_Node000001_Node000022" class="edge">
<title>Node1&#45;&gt;Node22</title>
<g id="a_edge39_Node000001_Node000022"><a xlink:title=" ">
<path fill="none" stroke="#63b8ff" d="M768.22,-340.03C804.03,-329.99 849.37,-317.28 882.66,-307.94"/>
<polygon fill="#63b8ff" stroke="#63b8ff" points="883.32,-311.39 892,-305.32 881.43,-304.65 883.32,-311.39"/>
</a>
</g>
</g>
<!-- Node3 -->
<g id="Node000003" class="node">
<title>Node3</title>
<g id="a_Node000003"><a xlink:href="pca9555a_8h.html" target="_top" xlink:title=" ">
<polygon fill="white" stroke="#666666" points="570.38,-77.5 416.38,-77.5 416.38,-56.75 570.38,-56.75 570.38,-77.5"/>
<text xml:space="preserve" text-anchor="middle" x="493.38" y="-64" font-family="Helvetica,sans-Serif" font-size="10.00">driver/pca9555a/pca9555a.h</text>
</a>
</g>
</g>
<!-- Node2&#45;&gt;Node3 -->
<g id="edge2_Node000002_Node000003" class="edge">
<title>Node2&#45;&gt;Node3</title>
<g id="a_edge2_Node000002_Node000003"><a xlink:title=" ">
<path fill="none" stroke="#63b8ff" d="M493.38,-226.85C493.38,-200.48 493.38,-126.08 493.38,-89.28"/>
<polygon fill="#63b8ff" stroke="#63b8ff" points="496.88,-89.48 493.38,-79.48 489.88,-89.48 496.88,-89.48"/>
</a>
</g>
</g>
<!-- Node6 -->
<g id="Node000006" class="node">
<title>Node6</title>
<g id="a_Node000006"><a xlink:title=" ">
<polygon fill="#e0e0e0" stroke="#999999" points="609.75,-191 521,-191 521,-170.25 609.75,-170.25 609.75,-191"/>
<text xml:space="preserve" text-anchor="middle" x="565.38" y="-177.5" font-family="Helvetica,sans-Serif" font-size="10.00">MK22F51212.h</text>
</a>
</g>
</g>
<!-- Node2&#45;&gt;Node6 -->
<g id="edge5_Node000002_Node000006" class="edge">
<title>Node2&#45;&gt;Node6</title>
<g id="a_edge5_Node000002_Node000006"><a xlink:title=" ">
<path fill="none" stroke="#63b8ff" d="M506.25,-226.59C516.59,-218.72 531.34,-207.5 543.53,-198.24"/>
<polygon fill="#63b8ff" stroke="#63b8ff" points="545.57,-201.08 551.41,-192.24 541.33,-195.51 545.57,-201.08"/>
</a>
</g>
</g>
<!-- Node7 -->
<g id="Node000007" class="node">
<title>Node7</title>
<g id="a_Node000007"><a xlink:href="step__core_8h.html" target="_top" xlink:title=" ">
<polygon fill="white" stroke="#666666" points="453.5,-191 381.25,-191 381.25,-170.25 453.5,-170.25 453.5,-191"/>
<text xml:space="preserve" text-anchor="middle" x="417.38" y="-177.5" font-family="Helvetica,sans-Serif" font-size="10.00">step_core.h</text>
</a>
</g>
</g>
<!-- Node2&#45;&gt;Node7 -->
<g id="edge6_Node000002_Node000007" class="edge">
<title>Node2&#45;&gt;Node7</title>
<g id="a_edge6_Node000002_Node000007"><a xlink:title=" ">
<path fill="none" stroke="#63b8ff" d="M479.79,-226.59C468.76,-218.65 452.99,-207.28 440.05,-197.96"/>
<polygon fill="#63b8ff" stroke="#63b8ff" points="442.23,-195.22 432.07,-192.21 438.14,-200.9 442.23,-195.22"/>
</a>
</g>
</g>
<!-- Node10 -->
<g id="Node000010" class="node">
<title>Node10</title>
<g id="a_Node000010"><a xlink:title=" ">
<polygon fill="#e0e0e0" stroke="#999999" points="58.75,-77.5 0,-77.5 0,-56.75 58.75,-56.75 58.75,-77.5"/>
<text xml:space="preserve" text-anchor="middle" x="29.38" y="-64" font-family="Helvetica,sans-Serif" font-size="10.00">fsl_ftm.h</text>
</a>
</g>
</g>
<!-- Node2&#45;&gt;Node10 -->
<g id="edge36_Node000002_Node000010" class="edge">
<title>Node2&#45;&gt;Node10</title>
<g id="a_edge36_Node000002_Node000010"><a xlink:title=" ">
<path fill="none" stroke="#63b8ff" d="M453.04,-232.83C401.85,-227.52 311.32,-215.39 237.38,-191 183.63,-173.27 171.99,-163.23 123.38,-134.25 97.66,-118.92 69.8,-98.85 51.14,-84.86"/>
<polygon fill="#63b8ff" stroke="#63b8ff" points="53.33,-82.12 43.24,-78.88 49.1,-87.7 53.33,-82.12"/>
</a>
</g>
</g>
<!-- Node11 -->
<g id="Node000011" class="node">
<title>Node11</title>
<g id="a_Node000011"><a xlink:title=" ">
<polygon fill="#e0e0e0" stroke="#999999" points="140,-77.5 76.75,-77.5 76.75,-56.75 140,-56.75 140,-77.5"/>
<text xml:space="preserve" text-anchor="middle" x="108.38" y="-64" font-family="Helvetica,sans-Serif" font-size="10.00">fsl_gpio.h</text>
</a>
</g>
</g>
<!-- Node2&#45;&gt;Node11 -->
<g id="edge37_Node000002_Node000011" class="edge">
<title>Node2&#45;&gt;Node11</title>
<g id="a_edge37_Node000002_Node000011"><a xlink:title=" ">
<path fill="none" stroke="#63b8ff" d="M452.77,-230.63C411.12,-223.98 344.88,-211.25 290.38,-191 240.28,-172.39 228.36,-164.59 184.38,-134.25 163.15,-119.61 141.17,-99.91 126.34,-85.82"/>
<polygon fill="#63b8ff" stroke="#63b8ff" points="128.82,-83.35 119.19,-78.93 123.96,-88.39 128.82,-83.35"/>
</a>
</g>
</g>
<!-- Node12 -->
<g id="Node000012" class="node">
<title>Node12</title>
<g id="a_Node000012"><a xlink:title=" ">
<polygon fill="#e0e0e0" stroke="#999999" points="220.25,-77.5 158.5,-77.5 158.5,-56.75 220.25,-56.75 220.25,-77.5"/>
<text xml:space="preserve" text-anchor="middle" x="189.38" y="-64" font-family="Helvetica,sans-Serif" font-size="10.00">fsl_port.h</text>
</a>
</g>
</g>
<!-- Node2&#45;&gt;Node12 -->
<g id="edge38_Node000002_Node000012" class="edge">
<title>Node2&#45;&gt;Node12</title>
<g id="a_edge38_Node000002_Node000012"><a xlink:title=" ">
<path fill="none" stroke="#63b8ff" d="M452.88,-228.27C398.6,-215.75 301.42,-187.42 235.38,-134.25 219.75,-121.67 207.19,-102.43 199.17,-87.94"/>
<polygon fill="#63b8ff" stroke="#63b8ff" points="202.39,-86.55 194.65,-79.31 196.19,-89.8 202.39,-86.55"/>
</a>
</g>
</g>
<!-- Node19 -->
<g id="Node000019" class="node">
<title>Node19</title>
<g id="a_Node000019"><a xlink:href="tmc2209__core_8h.html" target="_top" xlink:title=" ">
<polygon fill="white" stroke="#666666" points="821.38,-191 727.38,-191 727.38,-170.25 821.38,-170.25 821.38,-191"/>
<text xml:space="preserve" text-anchor="middle" x="774.38" y="-177.5" font-family="Helvetica,sans-Serif" font-size="10.00">tmc2209_core.h</text>
</a>
</g>
</g>
<!-- Node2&#45;&gt;Node19 -->
<g id="edge28_Node000002_Node000019" class="edge">
<title>Node2&#45;&gt;Node19</title>
<g id="a_edge28_Node000002_Node000019"><a xlink:title=" ">
<path fill="none" stroke="#63b8ff" d="M533.93,-228.47C581.75,-219.16 661.59,-203.6 716.05,-192.99"/>
<polygon fill="#63b8ff" stroke="#63b8ff" points="716.63,-196.44 725.77,-191.09 715.29,-189.57 716.63,-196.44"/>
</a>
</g>
</g>
<!-- Node4 -->
<g id="Node000004" class="node">
<title>Node4</title>
<g id="a_Node000004"><a xlink:title=" ">
<polygon fill="#e0e0e0" stroke="#999999" points="678.88,-20.75 593.88,-20.75 593.88,0 678.88,0 678.88,-20.75"/>
<text xml:space="preserve" text-anchor="middle" x="636.38" y="-7.25" font-family="Helvetica,sans-Serif" font-size="10.00">fsl_common.h</text>
</a>
</g>
</g>
<!-- Node3&#45;&gt;Node4 -->
<g id="edge3_Node000003_Node000004" class="edge">
<title>Node3&#45;&gt;Node4</title>
<g id="a_edge3_Node000003_Node000004"><a xlink:title=" ">
<path fill="none" stroke="#63b8ff" d="M518.94,-56.34C541.61,-47.66 574.97,-34.88 600.35,-25.17"/>
<polygon fill="#63b8ff" stroke="#63b8ff" points="601.53,-28.46 609.62,-21.62 599.03,-21.93 601.53,-28.46"/>
</a>
</g>
</g>
<!-- Node5 -->
<g id="Node000005" class="node">
<title>Node5</title>
<g id="a_Node000005"><a xlink:title=" ">
<polygon fill="#e0e0e0" stroke="#999999" points="555.25,-20.75 475.5,-20.75 475.5,0 555.25,0 555.25,-20.75"/>
<text xml:space="preserve" text-anchor="middle" x="515.38" y="-7.25" font-family="Helvetica,sans-Serif" font-size="10.00">peripherals.h</text>
</a>
</g>
</g>
<!-- Node3&#45;&gt;Node5 -->
<g id="edge4_Node000003_Node000005" class="edge">
<title>Node3&#45;&gt;Node5</title>
<g id="a_edge4_Node000003_Node000005"><a xlink:title=" ">
<path fill="none" stroke="#63b8ff" d="M497.31,-56.34C500.06,-49.49 503.84,-40.09 507.23,-31.65"/>
<polygon fill="#63b8ff" stroke="#63b8ff" points="510.43,-33.07 510.91,-22.48 503.94,-30.46 510.43,-33.07"/>
</a>
</g>
</g>
<!-- Node7&#45;&gt;Node3 -->
<g id="edge7_Node000007_Node000003" class="edge">
<title>Node7&#45;&gt;Node3</title>
<g id="a_edge7_Node000007_Node000003"><a xlink:title=" ">
<path fill="none" stroke="#63b8ff" d="M423.85,-170.12C436.36,-151.78 464.01,-111.2 480.43,-87.12"/>
<polygon fill="#63b8ff" stroke="#63b8ff" points="483.1,-89.41 485.84,-79.18 477.32,-85.47 483.1,-89.41"/>
</a>
</g>
</g>
<!-- Node7&#45;&gt;Node4 -->
<g id="edge10_Node000007_Node000004" class="edge">
<title>Node7&#45;&gt;Node4</title>
<g id="a_edge10_Node000007_Node000004"><a xlink:title=" ">
<path fill="none" stroke="#63b8ff" d="M436.83,-169.81C468.58,-153.29 532.64,-117.74 579.38,-77.5 595.83,-63.33 611.71,-44.32 622.51,-30.32"/>
<polygon fill="#63b8ff" stroke="#63b8ff" points="625.29,-32.45 628.51,-22.36 619.7,-28.24 625.29,-32.45"/>
</a>
</g>
</g>
<!-- Node8 -->
<g id="Node000008" class="node">
<title>Node8</title>
<g id="a_Node000008"><a xlink:title=" ">
<polygon fill="#e0e0e0" stroke="#999999" points="1185.12,-77.5 1113.62,-77.5 1113.62,-56.75 1185.12,-56.75 1185.12,-77.5"/>
<text xml:space="preserve" text-anchor="middle" x="1149.38" y="-64" font-family="Helvetica,sans-Serif" font-size="10.00">FreeRTOS.h</text>
</a>
</g>
</g>
<!-- Node7&#45;&gt;Node8 -->
<g id="edge8_Node000007_Node000008" class="edge">
<title>Node7&#45;&gt;Node8</title>
<g id="a_edge8_Node000007_Node000008"><a xlink:title=" ">
<path fill="none" stroke="#63b8ff" d="M453.9,-175.79C471.55,-174 493.05,-171.9 512.38,-170.25 733.92,-151.33 796.46,-191.29 1011.38,-134.25 1053.09,-123.18 1097.42,-99.53 1124.26,-83.73"/>
<polygon fill="#63b8ff" stroke="#63b8ff" points="1125.91,-86.83 1132.68,-78.68 1122.31,-80.82 1125.91,-86.83"/>
</a>
</g>
</g>
<!-- Node9 -->
<g id="Node000009" class="node">
<title>Node9</title>
<g id="a_Node000009"><a xlink:title=" ">
<polygon fill="#e0e0e0" stroke="#999999" points="427.38,-134.25 381.38,-134.25 381.38,-113.5 427.38,-113.5 427.38,-134.25"/>
<text xml:space="preserve" text-anchor="middle" x="404.38" y="-120.75" font-family="Helvetica,sans-Serif" font-size="10.00">task.h</text>
</a>
</g>
</g>
<!-- Node7&#45;&gt;Node9 -->
<g id="edge9_Node000007_Node000009" class="edge">
<title>Node7&#45;&gt;Node9</title>
<g id="a_edge9_Node000007_Node000009"><a xlink:title=" ">
<path fill="none" stroke="#63b8ff" d="M415.05,-169.84C413.46,-163.14 411.29,-154.01 409.33,-145.73"/>
<polygon fill="#63b8ff" stroke="#63b8ff" points="412.74,-144.97 407.03,-136.05 405.93,-146.59 412.74,-144.97"/>
</a>
</g>
</g>
<!-- Node7&#45;&gt;Node10 -->
<g id="edge11_Node000007_Node000010" class="edge">
<title>Node7&#45;&gt;Node10</title>
<g id="a_edge11_Node000007_Node000010"><a xlink:title=" ">
<path fill="none" stroke="#63b8ff" d="M380.87,-174.95C334.5,-168.46 252.34,-155.11 184.38,-134.25 139.09,-120.35 89.09,-97.58 58.45,-82.72"/>
<polygon fill="#63b8ff" stroke="#63b8ff" points="60.33,-79.75 49.82,-78.49 57.25,-86.04 60.33,-79.75"/>
</a>
</g>
</g>
<!-- Node7&#45;&gt;Node11 -->
<g id="edge12_Node000007_Node000011" class="edge">
<title>Node7&#45;&gt;Node11</title>
<g id="a_edge12_Node000007_Node000011"><a xlink:title=" ">
<path fill="none" stroke="#63b8ff" d="M381.04,-173.19C343.75,-165.98 284.4,-152.83 235.38,-134.25 198.76,-120.38 159.13,-98.55 134.05,-83.8"/>
<polygon fill="#63b8ff" stroke="#63b8ff" points="135.93,-80.84 125.55,-78.73 132.34,-86.86 135.93,-80.84"/>
</a>
</g>
</g>
<!-- Node7&#45;&gt;Node12 -->
<g id="edge13_Node000007_Node000012" class="edge">
<title>Node7&#45;&gt;Node12</title>
<g id="a_edge13_Node000007_Node000012"><a xlink:title=" ">
<path fill="none" stroke="#63b8ff" d="M380.8,-172.46C350.09,-165.5 305.69,-153.18 270.38,-134.25 246.03,-121.2 222.01,-100.31 206.53,-85.5"/>
<polygon fill="#63b8ff" stroke="#63b8ff" points="209.14,-83.16 199.55,-78.65 204.24,-88.15 209.14,-83.16"/>
</a>
</g>
</g>
<!-- Node13 -->
<g id="Node000013" class="node">
<title>Node13</title>
<g id="a_Node000013"><a xlink:href="cmd__handle_8h.html" target="_top" xlink:title=" ">
<polygon fill="white" stroke="#666666" points="1002.5,-134.25 918.25,-134.25 918.25,-113.5 1002.5,-113.5 1002.5,-134.25"/>
<text xml:space="preserve" text-anchor="middle" x="960.38" y="-120.75" font-family="Helvetica,sans-Serif" font-size="10.00">cmd_handle.h</text>
</a>
</g>
</g>
<!-- Node7&#45;&gt;Node13 -->
<g id="edge14_Node000007_Node000013" class="edge">
<title>Node7&#45;&gt;Node13</title>
<g id="a_edge14_Node000007_Node000013"><a xlink:title=" ">
<path fill="none" stroke="#63b8ff" d="M453.85,-175.95C547.43,-166.51 796.44,-141.4 906.63,-130.29"/>
<polygon fill="#63b8ff" stroke="#63b8ff" points="906.69,-133.81 916.29,-129.32 905.99,-126.84 906.69,-133.81"/>
</a>
</g>
</g>
<!-- Node17 -->
<g id="Node000017" class="node">
<title>Node17</title>
<g id="a_Node000017"><a xlink:href="step__shared_8h.html" target="_top" xlink:title=" ">
<polygon fill="white" stroke="#666666" points="363.5,-134.25 279.25,-134.25 279.25,-113.5 363.5,-113.5 363.5,-134.25"/>
<text xml:space="preserve" text-anchor="middle" x="321.38" y="-120.75" font-family="Helvetica,sans-Serif" font-size="10.00">step_shared.h</text>
</a>
</g>
</g>
<!-- Node7&#45;&gt;Node17 -->
<g id="edge20_Node000007_Node000017" class="edge">
<title>Node7&#45;&gt;Node17</title>
<g id="a_edge20_Node000007_Node000017"><a xlink:title=" ">
<path fill="none" stroke="#63b8ff" d="M400.21,-169.84C385.74,-161.58 364.79,-149.63 348.12,-140.13"/>
<polygon fill="#63b8ff" stroke="#63b8ff" points="350.12,-137.24 339.7,-135.33 346.66,-143.32 350.12,-137.24"/>
</a>
</g>
</g>
<!-- Node13&#45;&gt;Node4 -->
<g id="edge18_Node000013_Node000004" class="edge">
<title>Node13&#45;&gt;Node4</title>
<g id="a_edge18_Node000013_Node000004"><a xlink:title=" ">
<path fill="none" stroke="#63b8ff" d="M952.34,-113.45C939.27,-98.78 911.89,-70.75 882.38,-56.75 820.72,-27.51 742.08,-17.07 690.53,-13.37"/>
<polygon fill="#63b8ff" stroke="#63b8ff" points="691.04,-9.89 680.83,-12.74 690.58,-16.88 691.04,-9.89"/>
</a>
</g>
</g>
<!-- Node13&#45;&gt;Node8 -->
<g id="edge16_Node000013_Node000008" class="edge">
<title>Node13&#45;&gt;Node8</title>
<g id="a_edge16_Node000013_Node000008"><a xlink:title=" ">
<path fill="none" stroke="#63b8ff" d="M994.16,-113.09C1024.98,-104.16 1070.72,-90.91 1104.57,-81.1"/>
<polygon fill="#63b8ff" stroke="#63b8ff" points="1105.48,-84.49 1114.11,-78.34 1103.53,-77.76 1105.48,-84.49"/>
</a>
</g>
</g>
<!-- Node14 -->
<g id="Node000014" class="node">
<title>Node14</title>
<g id="a_Node000014"><a xlink:title=" ">
<polygon fill="#e0e0e0" stroke="#999999" points="840.75,-77.5 788,-77.5 788,-56.75 840.75,-56.75 840.75,-77.5"/>
<text xml:space="preserve" text-anchor="middle" x="814.38" y="-64" font-family="Helvetica,sans-Serif" font-size="10.00">stdint.h</text>
</a>
</g>
</g>
<!-- Node13&#45;&gt;Node14 -->
<g id="edge15_Node000013_Node000014" class="edge">
<title>Node13&#45;&gt;Node14</title>
<g id="a_edge15_Node000013_Node000014"><a xlink:title=" ">
<path fill="none" stroke="#63b8ff" d="M934.27,-113.09C911.02,-104.37 876.76,-91.52 850.81,-81.79"/>
<polygon fill="#63b8ff" stroke="#63b8ff" points="852.26,-78.59 841.67,-78.36 849.8,-85.15 852.26,-78.59"/>
</a>
</g>
</g>
<!-- Node15 -->
<g id="Node000015" class="node">
<title>Node15</title>
<g id="a_Node000015"><a xlink:title=" ">
<polygon fill="#e0e0e0" stroke="#999999" points="1095.88,-77.5 1004.88,-77.5 1004.88,-56.75 1095.88,-56.75 1095.88,-77.5"/>
<text xml:space="preserve" text-anchor="middle" x="1050.38" y="-64" font-family="Helvetica,sans-Serif" font-size="10.00">event_groups.h</text>
</a>
</g>
</g>
<!-- Node13&#45;&gt;Node15 -->
<g id="edge17_Node000013_Node000015" class="edge">
<title>Node13&#45;&gt;Node15</title>
<g id="a_edge17_Node000013_Node000015"><a xlink:title=" ">
<path fill="none" stroke="#63b8ff" d="M976.47,-113.09C989.9,-104.91 1009.31,-93.11 1024.86,-83.65"/>
<polygon fill="#63b8ff" stroke="#63b8ff" points="1026.41,-86.8 1033.13,-78.62 1022.77,-80.82 1026.41,-86.8"/>
</a>
</g>
</g>
<!-- Node16 -->
<g id="Node000016" class="node">
<title>Node16</title>
<g id="a_Node000016"><a xlink:title=" ">
<polygon fill="#e0e0e0" stroke="#999999" points="986.38,-77.5 934.38,-77.5 934.38,-56.75 986.38,-56.75 986.38,-77.5"/>
<text xml:space="preserve" text-anchor="middle" x="960.38" y="-64" font-family="Helvetica,sans-Serif" font-size="10.00">stdlib.h</text>
</a>
</g>
</g>
<!-- Node13&#45;&gt;Node16 -->
<g id="edge19_Node000013_Node000016" class="edge">
<title>Node13&#45;&gt;Node16</title>
<g id="a_edge19_Node000013_Node000016"><a xlink:title=" ">
<path fill="none" stroke="#63b8ff" d="M960.38,-113.09C960.38,-106.47 960.38,-97.47 960.38,-89.27"/>
<polygon fill="#63b8ff" stroke="#63b8ff" points="963.88,-89.34 960.38,-79.34 956.88,-89.34 963.88,-89.34"/>
</a>
</g>
</g>
<!-- Node17&#45;&gt;Node3 -->
<g id="edge22_Node000017_Node000003" class="edge">
<title>Node17&#45;&gt;Node3</title>
<g id="a_edge22_Node000017_Node000003"><a xlink:title=" ">
<path fill="none" stroke="#63b8ff" d="M352.13,-113.09C379.92,-104.24 421.07,-91.14 451.8,-81.36"/>
<polygon fill="#63b8ff" stroke="#63b8ff" points="452.69,-84.75 461.16,-78.38 450.57,-78.08 452.69,-84.75"/>
</a>
</g>
</g>
<!-- Node17&#45;&gt;Node4 -->
<g id="edge24_Node000017_Node000004" class="edge">
<title>Node17&#45;&gt;Node4</title>
<g id="a_edge24_Node000017_Node000004"><a xlink:title=" ">
<path fill="none" stroke="#63b8ff" d="M330.95,-113.04C345.86,-98.35 376.15,-70.9 407.38,-56.75 438,-42.87 525.14,-27.92 582.66,-19.12"/>
<polygon fill="#63b8ff" stroke="#63b8ff" points="582.88,-22.62 592.25,-17.67 581.84,-15.7 582.88,-22.62"/>
</a>
</g>
</g>
<!-- Node17&#45;&gt;Node10 -->
<g id="edge25_Node000017_Node000010" class="edge">
<title>Node17&#45;&gt;Node10</title>
<g id="a_edge25_Node000017_Node000010"><a xlink:title=" ">
<path fill="none" stroke="#63b8ff" d="M278.97,-116.17C230.67,-108.34 149.17,-94.54 70.31,-78.03"/>
<polygon fill="#63b8ff" stroke="#63b8ff" points="71.19,-74.64 60.68,-75.99 69.74,-81.48 71.19,-74.64"/>
</a>
</g>
</g>
<!-- Node17&#45;&gt;Node11 -->
<g id="edge26_Node000017_Node000011" class="edge">
<title>Node17&#45;&gt;Node11</title>
<g id="a_edge26_Node000017_Node000011"><a xlink:title=" ">
<path fill="none" stroke="#63b8ff" d="M283.29,-113.09C246.16,-103.54 189.77,-89.05 151.11,-79.11"/>
<polygon fill="#63b8ff" stroke="#63b8ff" points="152.24,-75.79 141.69,-76.69 150.5,-82.57 152.24,-75.79"/>
</a>
</g>
</g>
<!-- Node17&#45;&gt;Node12 -->
<g id="edge27_Node000017_Node000012" class="edge">
<title>Node17&#45;&gt;Node12</title>
<g id="a_edge27_Node000017_Node000012"><a xlink:title=" ">
<path fill="none" stroke="#63b8ff" d="M297.78,-113.09C277.03,-104.48 246.6,-91.86 223.26,-82.18"/>
<polygon fill="#63b8ff" stroke="#63b8ff" points="224.75,-79.01 214.17,-78.41 222.06,-85.47 224.75,-79.01"/>
</a>
</g>
</g>
<!-- Node17&#45;&gt;Node14 -->
<g id="edge21_Node000017_Node000014" class="edge">
<title>Node17&#45;&gt;Node14</title>
<g id="a_edge21_Node000017_Node000014"><a xlink:title=" ">
<path fill="none" stroke="#63b8ff" d="M363.9,-114.75C366.77,-114.3 369.61,-113.88 372.38,-113.5 548.72,-89.55 598.57,-108.33 776.65,-77.71"/>
<polygon fill="#63b8ff" stroke="#63b8ff" points="776.99,-81.21 786.24,-76.03 775.78,-74.31 776.99,-81.21"/>
</a>
</g>
</g>
<!-- Node18 -->
<g id="Node000018" class="node">
<title>Node18</title>
<g id="a_Node000018"><a xlink:title=" ">
<polygon fill="#e0e0e0" stroke="#999999" points="360.62,-77.5 238.12,-77.5 238.12,-56.75 360.62,-56.75 360.62,-77.5"/>
<text xml:space="preserve" text-anchor="middle" x="299.38" y="-64" font-family="Helvetica,sans-Serif" font-size="10.00">fsl_device_registers.h</text>
</a>
</g>
</g>
<!-- Node17&#45;&gt;Node18 -->
<g id="edge23_Node000017_Node000018" class="edge">
<title>Node17&#45;&gt;Node18</title>
<g id="a_edge23_Node000017_Node000018"><a xlink:title=" ">
<path fill="none" stroke="#63b8ff" d="M317.44,-113.09C314.69,-106.24 310.91,-96.84 307.52,-88.4"/>
<polygon fill="#63b8ff" stroke="#63b8ff" points="310.81,-87.21 303.84,-79.23 304.32,-89.82 310.81,-87.21"/>
</a>
</g>
</g>
<!-- Node19&#45;&gt;Node4 -->
<g id="edge33_Node000019_Node000004" class="edge">
<title>Node19&#45;&gt;Node4</title>
<g id="a_edge33_Node000019_Node000004"><a xlink:title=" ">
<path fill="none" stroke="#63b8ff" d="M788.53,-169.81C817.99,-148.21 880.67,-95.41 849.38,-56.75 829.74,-32.49 746.81,-20.65 690.42,-15.3"/>
<polygon fill="#63b8ff" stroke="#63b8ff" points="690.95,-11.83 680.68,-14.42 690.32,-18.8 690.95,-11.83"/>
</a>
</g>
</g>
<!-- Node19&#45;&gt;Node5 -->
<g id="edge35_Node000019_Node000005" class="edge">
<title>Node19&#45;&gt;Node5</title>
<g id="a_edge35_Node000019_Node000005"><a xlink:title=" ">
<path fill="none" stroke="#63b8ff" d="M746.63,-169.89C725.27,-161.81 695.42,-149.24 671.38,-134.25 626.01,-105.96 621.66,-89.46 579.38,-56.75 566.41,-46.72 551.5,-36.1 539.33,-27.65"/>
<polygon fill="#63b8ff" stroke="#63b8ff" points="541.33,-24.78 531.1,-21.99 537.36,-30.54 541.33,-24.78"/>
</a>
</g>
</g>
<!-- Node19&#45;&gt;Node13 -->
<g id="edge34_Node000019_Node000013" class="edge">
<title>Node19&#45;&gt;Node13</title>
<g id="a_edge34_Node000019_Node000013"><a xlink:title=" ">
<path fill="none" stroke="#63b8ff" d="M807.63,-169.84C837.95,-160.91 882.97,-147.66 916.29,-137.85"/>
<polygon fill="#63b8ff" stroke="#63b8ff" points="917.04,-141.28 925.64,-135.1 915.06,-134.56 917.04,-141.28"/>
</a>
</g>
</g>
<!-- Node19&#45;&gt;Node14 -->
<g id="edge29_Node000019_Node000014" class="edge">
<title>Node19&#45;&gt;Node14</title>
<g id="a_edge29_Node000019_Node000014"><a xlink:title=" ">
<path fill="none" stroke="#63b8ff" d="M779.32,-170.07C783.88,-161.01 790.65,-146.94 795.38,-134.25 800.94,-119.32 805.86,-102 809.3,-88.83"/>
<polygon fill="#63b8ff" stroke="#63b8ff" points="812.69,-89.71 811.75,-79.16 805.9,-87.99 812.69,-89.71"/>
</a>
</g>
</g>
<!-- Node20 -->
<g id="Node000020" class="node">
<title>Node20</title>
<g id="a_Node000020"><a xlink:href="tmc2209__shared_8h.html" target="_top" xlink:title=" ">
<polygon fill="white" stroke="#666666" points="786.38,-134.25 680.38,-134.25 680.38,-113.5 786.38,-113.5 786.38,-134.25"/>
<text xml:space="preserve" text-anchor="middle" x="733.38" y="-120.75" font-family="Helvetica,sans-Serif" font-size="10.00">tmc2209_shared.h</text>
</a>
</g>
</g>
<!-- Node19&#45;&gt;Node20 -->
<g id="edge30_Node000019_Node000020" class="edge">
<title>Node19&#45;&gt;Node20</title>
<g id="a_edge30_Node000019_Node000020"><a xlink:title=" ">
<path fill="none" stroke="#63b8ff" d="M767.05,-169.84C761.62,-162.6 754.07,-152.51 747.49,-143.72"/>
<polygon fill="#63b8ff" stroke="#63b8ff" points="750.34,-141.7 741.55,-135.79 744.74,-145.89 750.34,-141.7"/>
</a>
</g>
</g>
<!-- Node20&#45;&gt;Node14 -->
<g id="edge31_Node000020_Node000014" class="edge">
<title>Node20&#45;&gt;Node14</title>
<g id="a_edge31_Node000020_Node000014"><a xlink:title=" ">
<path fill="none" stroke="#63b8ff" d="M747.86,-113.09C759.72,-105.07 776.75,-93.56 790.61,-84.19"/>
<polygon fill="#63b8ff" stroke="#63b8ff" points="792.44,-87.18 798.77,-78.68 788.52,-81.38 792.44,-87.18"/>
</a>
</g>
</g>
<!-- Node21 -->
<g id="Node000021" class="node">
<title>Node21</title>
<g id="a_Node000021"><a xlink:title=" ">
<polygon fill="#e0e0e0" stroke="#999999" points="770,-77.5 664.75,-77.5 664.75,-56.75 770,-56.75 770,-77.5"/>
<text xml:space="preserve" text-anchor="middle" x="717.38" y="-64" font-family="Helvetica,sans-Serif" font-size="10.00">fsl_uart_freertos.h</text>
</a>
</g>
</g>
<!-- Node20&#45;&gt;Node21 -->
<g id="edge32_Node000020_Node000021" class="edge">
<title>Node20&#45;&gt;Node21</title>
<g id="a_edge32_Node000020_Node000021"><a xlink:title=" ">
<path fill="none" stroke="#63b8ff" d="M730.51,-113.09C728.54,-106.31 725.83,-97.05 723.38,-88.69"/>
<polygon fill="#63b8ff" stroke="#63b8ff" points="726.8,-87.9 720.64,-79.28 720.08,-89.86 726.8,-87.9"/>
</a>
</g>
</g>
<!-- Node22&#45;&gt;Node2 -->
<g id="edge42_Node000022_Node000002" class="edge">
<title>Node22&#45;&gt;Node2</title>
<g id="a_edge42_Node000022_Node000002"><a xlink:title=" ">
<path fill="none" stroke="#63b8ff" d="M879.74,-287C797.16,-276.61 630.25,-255.6 545.41,-244.92"/>
<polygon fill="#63b8ff" stroke="#63b8ff" points="545.86,-241.45 535.51,-243.68 544.99,-248.4 545.86,-241.45"/>
</a>
</g>
</g>
<!-- Node22&#45;&gt;Node8 -->
<g id="edge43_Node000022_Node000008" class="edge">
<title>Node22&#45;&gt;Node8</title>
<g id="a_edge43_Node000022_Node000008"><a xlink:title=" ">
<path fill="none" stroke="#63b8ff" d="M977.05,-292.9C1015.5,-290.07 1067.92,-279.93 1100.38,-247.75 1143.9,-204.59 1149.83,-126.8 1149.98,-89.38"/>
<polygon fill="#63b8ff" stroke="#63b8ff" points="1153.48,-89.41 1149.86,-79.46 1146.48,-89.5 1153.48,-89.41"/>
</a>
</g>
</g>
<!-- Node22&#45;&gt;Node13 -->
<g id="edge45_Node000022_Node000013" class="edge">
<title>Node22&#45;&gt;Node13</title>
<g id="a_edge45_Node000022_Node000013"><a xlink:title=" ">
<path fill="none" stroke="#63b8ff" d="M930.19,-283.6C935.2,-257.23 949.35,-182.83 956.35,-146.03"/>
<polygon fill="#63b8ff" stroke="#63b8ff" points="959.79,-146.68 958.22,-136.2 952.91,-145.37 959.79,-146.68"/>
</a>
</g>
</g>
<!-- Node22&#45;&gt;Node14 -->
<g id="edge40_Node000022_Node000014" class="edge">
<title>Node22&#45;&gt;Node14</title>
<g id="a_edge40_Node000022_Node000014"><a xlink:title=" ">
<path fill="none" stroke="#63b8ff" d="M923.48,-283.46C906.19,-249.34 847.84,-134.17 824.32,-87.75"/>
<polygon fill="#63b8ff" stroke="#63b8ff" points="827.58,-86.45 819.94,-79.11 821.34,-89.61 827.58,-86.45"/>
</a>
</g>
</g>
<!-- Node23 -->
<g id="Node000023" class="node">
<title>Node23</title>
<g id="a_Node000023"><a xlink:title=" ">
<polygon fill="#e0e0e0" stroke="#999999" points="1017.88,-247.75 956.88,-247.75 956.88,-227 1017.88,-227 1017.88,-247.75"/>
<text xml:space="preserve" text-anchor="middle" x="987.38" y="-234.25" font-family="Helvetica,sans-Serif" font-size="10.00">stdbool.h</text>
</a>
</g>
</g>
<!-- Node22&#45;&gt;Node23 -->
<g id="edge41_Node000022_Node000023" class="edge">
<title>Node22&#45;&gt;Node23</title>
<g id="a_edge41_Node000022_Node000023"><a xlink:title=" ">
<path fill="none" stroke="#63b8ff" d="M938.92,-283.34C947.15,-275.71 958.77,-264.92 968.58,-255.82"/>
<polygon fill="#63b8ff" stroke="#63b8ff" points="970.86,-258.48 975.81,-249.11 966.1,-253.34 970.86,-258.48"/>
</a>
</g>
</g>
<!-- Node24 -->
<g id="Node000024" class="node">
<title>Node24</title>
<g id="a_Node000024"><a xlink:title=" ">
<polygon fill="#e0e0e0" stroke="#999999" points="1090.88,-247.75 1035.88,-247.75 1035.88,-227 1090.88,-227 1090.88,-247.75"/>
<text xml:space="preserve" text-anchor="middle" x="1063.38" y="-234.25" font-family="Helvetica,sans-Serif" font-size="10.00">queue.h</text>
</a>
</g>
</g>
<!-- Node22&#45;&gt;Node24 -->
<g id="edge44_Node000022_Node000024" class="edge">
<title>Node22&#45;&gt;Node24</title>
<g id="a_edge44_Node000022_Node000024"><a xlink:title=" ">
<path fill="none" stroke="#63b8ff" d="M952.51,-283.34C973.82,-274.69 1005.13,-262 1029.04,-252.3"/>
<polygon fill="#63b8ff" stroke="#63b8ff" points="1030.09,-255.65 1038.05,-248.65 1027.46,-249.16 1030.09,-255.65"/>
</a>
</g>
</g>
</g>
</svg>
