<?xml version="1.0" encoding="UTF-8" standalone="no"?>
<!DOCTYPE svg PUBLIC "-//W3C//DTD SVG 1.1//EN"
 "http://www.w3.org/Graphics/SVG/1.1/DTD/svg11.dtd">
<!-- Generated by graphviz version 14.1.4 (0)
 -->
<!-- Title: source/motion/motor/motor_sync.h Pages: 1 -->
<svg width="1168pt" height="382pt"
 viewBox="0.00 0.00 1168.00 382.00" xmlns="http://www.w3.org/2000/svg" xmlns:xlink="http://www.w3.org/1999/xlink">
<g id="graph0" class="graph" transform="scale(1 1) rotate(0) translate(4 378)">
<title>source/motion/motor/motor_sync.h</title>
<!-- Node1 -->
<g id="Node000001" class="node">
<title>Node1</title>
<g id="a_Node000001"><a xlink:title=" ">
<polygon fill="#999999" stroke="#666666" points="894.88,-374 776.88,-374 776.88,-340.5 894.88,-340.5 894.88,-374"/>
<text xml:space="preserve" text-anchor="start" x="784.88" y="-360.5" font-family="Helvetica,sans-Serif" font-size="10.00">source/motion/motor</text>
<text xml:space="preserve" text-anchor="middle" x="835.88" y="-347.75" font-family="Helvetica,sans-Serif" font-size="10.00">/motor_sync.h</text>
</a>
</g>
</g>
<!-- Node2 -->
<g id="Node000002" class="node">
<title>Node2</title>
<g id="a_Node000002"><a xlink:href="motor__internal_8h.html" target="_top" xlink:title=" ">
<polygon fill="white" stroke="#666666" points="884.38,-304.5 787.38,-304.5 787.38,-283.75 884.38,-283.75 884.38,-304.5"/>
<text xml:space="preserve" text-anchor="middle" x="835.88" y="-291" font-family="Helvetica,sans-Serif" font-size="10.00">motor_internal.h</text>
</a>
</g>
</g>
<!-- Node1&#45;&gt;Node2 -->
<g id="edge1_Node000001_Node000002" class="edge">
<title>Node1&#45;&gt;Node2</title>
<g id="a_edge1_Node000001_Node000002"><a xlink:title=" ">
<path fill="none" stroke="#63b8ff" d="M835.88,-340.19C835.88,-332.85 835.88,-324.07 835.88,-316.21"/>
<polygon fill="#63b8ff" stroke="#63b8ff" points="839.38,-316.48 835.88,-306.48 832.38,-316.48 839.38,-316.48"/>
</a>
</g>
</g>
<!-- Node3 -->
<g id="Node000003" class="node">
<title>Node3</title>
<g id="a_Node000003"><a xlink:href="motor_8h.html" target="_top" xlink:title=" ">
<polygon fill="white" stroke="#666666" points="430.62,-247.75 377.12,-247.75 377.12,-227 430.62,-227 430.62,-247.75"/>
<text xml:space="preserve" text-anchor="middle" x="403.88" y="-234.25" font-family="Helvetica,sans-Serif" font-size="10.00">motor.h</text>
</a>
</g>
</g>
<!-- Node2&#45;&gt;Node3 -->
<g id="edge2_Node000002_Node000003" class="edge">
<title>Node2&#45;&gt;Node3</title>
<g id="a_edge2_Node000002_Node000003"><a xlink:title=" ">
<path fill="none" stroke="#63b8ff" d="M787.16,-286.95C700.48,-275.96 521.18,-253.24 442.41,-243.26"/>
<polygon fill="#63b8ff" stroke="#63b8ff" points="442.96,-239.8 432.6,-242.02 442.08,-246.75 442.96,-239.8"/>
</a>
</g>
</g>
<!-- Node8 -->
<g id="Node000008" class="node">
<title>Node8</title>
<g id="a_Node000008"><a xlink:title=" ">
<polygon fill="#e0e0e0" stroke="#999999" points="858.62,-77.5 787.12,-77.5 787.12,-56.75 858.62,-56.75 858.62,-77.5"/>
<text xml:space="preserve" text-anchor="middle" x="822.88" y="-64" font-family="Helvetica,sans-Serif" font-size="10.00">FreeRTOS.h</text>
</a>
</g>
</g>
<!-- Node2&#45;&gt;Node8 -->
<g id="edge36_Node000002_Node000008" class="edge">
<title>Node2&#45;&gt;Node8</title>
<g id="a_edge36_Node000002_Node000008"><a xlink:title=" ">
<path fill="none" stroke="#63b8ff" d="M835.32,-283.46C833.37,-249.7 826.83,-136.59 824.1,-89.25"/>
<polygon fill="#63b8ff" stroke="#63b8ff" points="827.59,-89.05 823.52,-79.27 820.6,-89.45 827.59,-89.05"/>
</a>
</g>
</g>
<!-- Node13 -->
<g id="Node000013" class="node">
<title>Node13</title>
<g id="a_Node000013"><a xlink:href="cmd__handle_8h.html" target="_top" xlink:title=" ">
<polygon fill="white" stroke="#666666" points="929,-134.25 844.75,-134.25 844.75,-113.5 929,-113.5 929,-134.25"/>
<text xml:space="preserve" text-anchor="middle" x="886.88" y="-120.75" font-family="Helvetica,sans-Serif" font-size="10.00">cmd_handle.h</text>
</a>
</g>
</g>
<!-- Node2&#45;&gt;Node13 -->
<g id="edge38_Node000002_Node000013" class="edge">
<title>Node2&#45;&gt;Node13</title>
<g id="a_edge38_Node000002_Node000013"><a xlink:title=" ">
<path fill="none" stroke="#63b8ff" d="M838.76,-283.6C846.79,-257.12 869.51,-182.18 880.61,-145.55"/>
<polygon fill="#63b8ff" stroke="#63b8ff" points="883.9,-146.75 883.45,-136.17 877.2,-144.72 883.9,-146.75"/>
</a>
</g>
</g>
<!-- Node22 -->
<g id="Node000022" class="node">
<title>Node22</title>
<g id="a_Node000022"><a xlink:title=" ">
<polygon fill="#e0e0e0" stroke="#999999" points="938.38,-247.75 883.38,-247.75 883.38,-227 938.38,-227 938.38,-247.75"/>
<text xml:space="preserve" text-anchor="middle" x="910.88" y="-234.25" font-family="Helvetica,sans-Serif" font-size="10.00">queue.h</text>
</a>
</g>
</g>
<!-- Node2&#45;&gt;Node22 -->
<g id="edge37_Node000002_Node000022" class="edge">
<title>Node2&#45;&gt;Node22</title>
<g id="a_edge37_Node000002_Node000022"><a xlink:title=" ">
<path fill="none" stroke="#63b8ff" d="M849.28,-283.34C860.16,-275.4 875.73,-264.03 888.49,-254.71"/>
<polygon fill="#63b8ff" stroke="#63b8ff" points="890.35,-257.69 896.36,-248.97 886.22,-252.04 890.35,-257.69"/>
</a>
</g>
</g>
<!-- Node4 -->
<g id="Node000004" class="node">
<title>Node4</title>
<g id="a_Node000004"><a xlink:href="pca9555a_8h.html" target="_top" xlink:title=" ">
<polygon fill="white" stroke="#666666" points="607.88,-77.5 453.88,-77.5 453.88,-56.75 607.88,-56.75 607.88,-77.5"/>
<text xml:space="preserve" text-anchor="middle" x="530.88" y="-64" font-family="Helvetica,sans-Serif" font-size="10.00">driver/pca9555a/pca9555a.h</text>
</a>
</g>
</g>
<!-- Node3&#45;&gt;Node4 -->
<g id="edge3_Node000003_Node000004" class="edge">
<title>Node3&#45;&gt;Node4</title>
<g id="a_edge3_Node000003_Node000004"><a xlink:title=" ">
<path fill="none" stroke="#63b8ff" d="M414.47,-226.81C423.98,-217.97 438.07,-204.23 448.88,-191 477,-156.57 504.63,-112.43 519.55,-87.51"/>
<polygon fill="#63b8ff" stroke="#63b8ff" points="522.44,-89.5 524.52,-79.11 516.41,-85.93 522.44,-89.5"/>
</a>
</g>
</g>
<!-- Node7 -->
<g id="Node000007" class="node">
<title>Node7</title>
<g id="a_Node000007"><a xlink:href="step__core_8h.html" target="_top" xlink:title=" ">
<polygon fill="white" stroke="#666666" points="440,-191 367.75,-191 367.75,-170.25 440,-170.25 440,-191"/>
<text xml:space="preserve" text-anchor="middle" x="403.88" y="-177.5" font-family="Helvetica,sans-Serif" font-size="10.00">step_core.h</text>
</a>
</g>
</g>
<!-- Node3&#45;&gt;Node7 -->
<g id="edge6_Node000003_Node000007" class="edge">
<title>Node3&#45;&gt;Node7</title>
<g id="a_edge6_Node000003_Node000007"><a xlink:title=" ">
<path fill="none" stroke="#63b8ff" d="M403.88,-226.59C403.88,-219.97 403.88,-210.97 403.88,-202.77"/>
<polygon fill="#63b8ff" stroke="#63b8ff" points="407.38,-202.84 403.88,-192.84 400.38,-202.84 407.38,-202.84"/>
</a>
</g>
</g>
<!-- Node10 -->
<g id="Node000010" class="node">
<title>Node10</title>
<g id="a_Node000010"><a xlink:title=" ">
<polygon fill="#e0e0e0" stroke="#999999" points="398.25,-77.5 339.5,-77.5 339.5,-56.75 398.25,-56.75 398.25,-77.5"/>
<text xml:space="preserve" text-anchor="middle" x="368.88" y="-64" font-family="Helvetica,sans-Serif" font-size="10.00">fsl_ftm.h</text>
</a>
</g>
</g>
<!-- Node3&#45;&gt;Node10 -->
<g id="edge33_Node000003_Node000010" class="edge">
<title>Node3&#45;&gt;Node10</title>
<g id="a_edge33_Node000003_Node000010"><a xlink:title=" ">
<path fill="none" stroke="#63b8ff" d="M391.42,-226.76C371.45,-210.4 333.23,-174.91 320.88,-134.25 318.19,-125.43 317.23,-121.97 320.88,-113.5 325.77,-102.13 335.08,-92.27 344.21,-84.68"/>
<polygon fill="#63b8ff" stroke="#63b8ff" points="346.09,-87.65 351.9,-78.79 341.83,-82.09 346.09,-87.65"/>
</a>
</g>
</g>
<!-- Node11 -->
<g id="Node000011" class="node">
<title>Node11</title>
<g id="a_Node000011"><a xlink:title=" ">
<polygon fill="#e0e0e0" stroke="#999999" points="143.5,-77.5 80.25,-77.5 80.25,-56.75 143.5,-56.75 143.5,-77.5"/>
<text xml:space="preserve" text-anchor="middle" x="111.88" y="-64" font-family="Helvetica,sans-Serif" font-size="10.00">fsl_gpio.h</text>
</a>
</g>
</g>
<!-- Node3&#45;&gt;Node11 -->
<g id="edge34_Node000003_Node000011" class="edge">
<title>Node3&#45;&gt;Node11</title>
<g id="a_edge34_Node000003_Node000011"><a xlink:title=" ">
<path fill="none" stroke="#63b8ff" d="M376.93,-231.75C326.71,-221.91 217.67,-194.68 148.88,-134.25 134.68,-121.78 124.77,-102.49 118.8,-87.96"/>
<polygon fill="#63b8ff" stroke="#63b8ff" points="122.21,-87.07 115.39,-78.96 115.66,-89.55 122.21,-87.07"/>
</a>
</g>
</g>
<!-- Node12 -->
<g id="Node000012" class="node">
<title>Node12</title>
<g id="a_Node000012"><a xlink:title=" ">
<polygon fill="#e0e0e0" stroke="#999999" points="61.75,-77.5 0,-77.5 0,-56.75 61.75,-56.75 61.75,-77.5"/>
<text xml:space="preserve" text-anchor="middle" x="30.88" y="-64" font-family="Helvetica,sans-Serif" font-size="10.00">fsl_port.h</text>
</a>
</g>
</g>
<!-- Node3&#45;&gt;Node12 -->
<g id="edge35_Node000003_Node000012" class="edge">
<title>Node3&#45;&gt;Node12</title>
<g id="a_edge35_Node000003_Node000012"><a xlink:title=" ">
<path fill="none" stroke="#63b8ff" d="M376.93,-234.1C336.31,-229.89 257.67,-218.62 196.88,-191 137.08,-163.83 77.87,-112.63 49.02,-85.7"/>
<polygon fill="#63b8ff" stroke="#63b8ff" points="51.52,-83.25 41.85,-78.91 46.7,-88.33 51.52,-83.25"/>
</a>
</g>
</g>
<!-- Node19 -->
<g id="Node000019" class="node">
<title>Node19</title>
<g id="a_Node000019"><a xlink:href="tmc2209__core_8h.html" target="_top" xlink:title=" ">
<polygon fill="white" stroke="#666666" points="763.88,-191 669.88,-191 669.88,-170.25 763.88,-170.25 763.88,-191"/>
<text xml:space="preserve" text-anchor="middle" x="716.88" y="-177.5" font-family="Helvetica,sans-Serif" font-size="10.00">tmc2209_core.h</text>
</a>
</g>
</g>
<!-- Node3&#45;&gt;Node19 -->
<g id="edge27_Node000003_Node000019" class="edge">
<title>Node3&#45;&gt;Node19</title>
<g id="a_edge27_Node000003_Node000019"><a xlink:title=" ">
<path fill="none" stroke="#63b8ff" d="M431.1,-231.61C481.61,-222.78 590.84,-203.67 658.67,-191.81"/>
<polygon fill="#63b8ff" stroke="#63b8ff" points="658.86,-195.33 668.11,-190.16 657.65,-188.43 658.86,-195.33"/>
</a>
</g>
</g>
<!-- Node5 -->
<g id="Node000005" class="node">
<title>Node5</title>
<g id="a_Node000005"><a xlink:title=" ">
<polygon fill="#e0e0e0" stroke="#999999" points="573.38,-20.75 488.38,-20.75 488.38,0 573.38,0 573.38,-20.75"/>
<text xml:space="preserve" text-anchor="middle" x="530.88" y="-7.25" font-family="Helvetica,sans-Serif" font-size="10.00">fsl_common.h</text>
</a>
</g>
</g>
<!-- Node4&#45;&gt;Node5 -->
<g id="edge4_Node000004_Node000005" class="edge">
<title>Node4&#45;&gt;Node5</title>
<g id="a_edge4_Node000004_Node000005"><a xlink:title=" ">
<path fill="none" stroke="#63b8ff" d="M530.88,-56.34C530.88,-49.72 530.88,-40.72 530.88,-32.52"/>
<polygon fill="#63b8ff" stroke="#63b8ff" points="534.38,-32.59 530.88,-22.59 527.38,-32.59 534.38,-32.59"/>
</a>
</g>
</g>
<!-- Node6 -->
<g id="Node000006" class="node">
<title>Node6</title>
<g id="a_Node000006"><a xlink:title=" ">
<polygon fill="#e0e0e0" stroke="#999999" points="942.75,-20.75 863,-20.75 863,0 942.75,0 942.75,-20.75"/>
<text xml:space="preserve" text-anchor="middle" x="902.88" y="-7.25" font-family="Helvetica,sans-Serif" font-size="10.00">peripherals.h</text>
</a>
</g>
</g>
<!-- Node4&#45;&gt;Node6 -->
<g id="edge5_Node000004_Node000006" class="edge">
<title>Node4&#45;&gt;Node6</title>
<g id="a_edge5_Node000004_Node000006"><a xlink:title=" ">
<path fill="none" stroke="#63b8ff" d="M597.81,-56.27C670.53,-45.57 785.13,-28.7 851.22,-18.98"/>
<polygon fill="#63b8ff" stroke="#63b8ff" points="851.7,-22.44 861.08,-17.53 850.68,-15.52 851.7,-22.44"/>
</a>
</g>
</g>
<!-- Node7&#45;&gt;Node4 -->
<g id="edge7_Node000007_Node000004" class="edge">
<title>Node7&#45;&gt;Node4</title>
<g id="a_edge7_Node000007_Node000004"><a xlink:title=" ">
<path fill="none" stroke="#63b8ff" d="M415.05,-169.91C425.59,-160.73 441.82,-146.58 455.88,-134.25 474.79,-117.66 496.32,-98.66 511.45,-85.3"/>
<polygon fill="#63b8ff" stroke="#63b8ff" points="513.65,-88.03 518.83,-78.78 509.01,-82.78 513.65,-88.03"/>
</a>
</g>
</g>
<!-- Node7&#45;&gt;Node5 -->
<g id="edge10_Node000007_Node000005" class="edge">
<title>Node7&#45;&gt;Node5</title>
<g id="a_edge10_Node000007_Node000005"><a xlink:title=" ">
<path fill="none" stroke="#63b8ff" d="M404.69,-169.82C407.03,-147.31 415.63,-91.22 444.88,-56.75 456.61,-42.92 473.65,-32.7 489.47,-25.51"/>
<polygon fill="#63b8ff" stroke="#63b8ff" points="490.39,-28.92 498.23,-21.8 487.65,-22.47 490.39,-28.92"/>
</a>
</g>
</g>
<!-- Node7&#45;&gt;Node8 -->
<g id="edge8_Node000007_Node000008" class="edge">
<title>Node7&#45;&gt;Node8</title>
<g id="a_edge8_Node000007_Node000008"><a xlink:title=" ">
<path fill="none" stroke="#63b8ff" d="M440.33,-169.93C516.28,-149.71 691.41,-103.11 775.77,-80.66"/>
<polygon fill="#63b8ff" stroke="#63b8ff" points="776.58,-84.07 785.34,-78.11 774.78,-77.3 776.58,-84.07"/>
</a>
</g>
</g>
<!-- Node9 -->
<g id="Node000009" class="node">
<title>Node9</title>
<g id="a_Node000009"><a xlink:title=" ">
<polygon fill="#e0e0e0" stroke="#999999" points="375.88,-134.25 329.88,-134.25 329.88,-113.5 375.88,-113.5 375.88,-134.25"/>
<text xml:space="preserve" text-anchor="middle" x="352.88" y="-120.75" font-family="Helvetica,sans-Serif" font-size="10.00">task.h</text>
</a>
</g>
</g>
<!-- Node7&#45;&gt;Node9 -->
<g id="edge9_Node000007_Node000009" class="edge">
<title>Node7&#45;&gt;Node9</title>
<g id="a_edge9_Node000007_Node000009"><a xlink:title=" ">
<path fill="none" stroke="#63b8ff" d="M394.76,-169.84C387.79,-162.36 378.01,-151.86 369.64,-142.88"/>
<polygon fill="#63b8ff" stroke="#63b8ff" points="372.32,-140.62 362.95,-135.69 367.2,-145.39 372.32,-140.62"/>
</a>
</g>
</g>
<!-- Node7&#45;&gt;Node10 -->
<g id="edge11_Node000007_Node000010" class="edge">
<title>Node7&#45;&gt;Node10</title>
<g id="a_edge11_Node000007_Node000010"><a xlink:title=" ">
<path fill="none" stroke="#63b8ff" d="M401.34,-170.15C397.86,-157.27 391.28,-133.52 384.88,-113.5 382.24,-105.26 379.12,-96.26 376.33,-88.46"/>
<polygon fill="#63b8ff" stroke="#63b8ff" points="379.69,-87.44 372.99,-79.23 373.11,-89.82 379.69,-87.44"/>
</a>
</g>
</g>
<!-- Node7&#45;&gt;Node11 -->
<g id="edge12_Node000007_Node000011" class="edge">
<title>Node7&#45;&gt;Node11</title>
<g id="a_edge12_Node000007_Node000011"><a xlink:title=" ">
<path fill="none" stroke="#63b8ff" d="M367.45,-178.38C321.51,-175.48 241.25,-165.87 180.88,-134.25 158.72,-122.65 138.74,-101.79 126.05,-86.59"/>
<polygon fill="#63b8ff" stroke="#63b8ff" points="129.08,-84.77 120.08,-79.17 123.62,-89.16 129.08,-84.77"/>
</a>
</g>
</g>
<!-- Node7&#45;&gt;Node12 -->
<g id="edge13_Node000007_Node000012" class="edge">
<title>Node7&#45;&gt;Node12</title>
<g id="a_edge13_Node000007_Node000012"><a xlink:title=" ">
<path fill="none" stroke="#63b8ff" d="M367.42,-176.99C317.03,-172.48 223.82,-161.05 148.88,-134.25 113.82,-121.71 76.93,-99.34 53.92,-84.13"/>
<polygon fill="#63b8ff" stroke="#63b8ff" points="56.17,-81.43 45.92,-78.74 52.26,-87.23 56.17,-81.43"/>
</a>
</g>
</g>
<!-- Node7&#45;&gt;Node13 -->
<g id="edge14_Node000007_Node000013" class="edge">
<title>Node7&#45;&gt;Node13</title>
<g id="a_edge14_Node000007_Node000013"><a xlink:title=" ">
<path fill="none" stroke="#63b8ff" d="M440.18,-175.51C524.49,-165.95 733.88,-142.22 833.1,-130.97"/>
<polygon fill="#63b8ff" stroke="#63b8ff" points="833.3,-134.47 842.84,-129.87 832.51,-127.51 833.3,-134.47"/>
</a>
</g>
</g>
<!-- Node17 -->
<g id="Node000017" class="node">
<title>Node17</title>
<g id="a_Node000017"><a xlink:href="step__shared_8h.html" target="_top" xlink:title=" ">
<polygon fill="white" stroke="#666666" points="274,-134.25 189.75,-134.25 189.75,-113.5 274,-113.5 274,-134.25"/>
<text xml:space="preserve" text-anchor="middle" x="231.88" y="-120.75" font-family="Helvetica,sans-Serif" font-size="10.00">step_shared.h</text>
</a>
</g>
</g>
<!-- Node7&#45;&gt;Node17 -->
<g id="edge20_Node000007_Node000017" class="edge">
<title>Node7&#45;&gt;Node17</title>
<g id="a_edge20_Node000007_Node000017"><a xlink:title=" ">
<path fill="none" stroke="#63b8ff" d="M373.12,-169.84C345.33,-160.99 304.18,-147.89 273.45,-138.11"/>
<polygon fill="#63b8ff" stroke="#63b8ff" points="274.68,-134.83 264.09,-135.13 272.56,-141.5 274.68,-134.83"/>
</a>
</g>
</g>
<!-- Node13&#45;&gt;Node5 -->
<g id="edge18_Node000013_Node000005" class="edge">
<title>Node13&#45;&gt;Node5</title>
<g id="a_edge18_Node000013_Node000005"><a xlink:title=" ">
<path fill="none" stroke="#63b8ff" d="M887.15,-113.06C886.99,-98.39 884.33,-70.96 867.88,-56.75 826.59,-21.09 669.29,-13.27 584.99,-11.68"/>
<polygon fill="#63b8ff" stroke="#63b8ff" points="585.17,-8.18 575.11,-11.52 585.05,-15.18 585.17,-8.18"/>
</a>
</g>
</g>
<!-- Node13&#45;&gt;Node8 -->
<g id="edge16_Node000013_Node000008" class="edge">
<title>Node13&#45;&gt;Node8</title>
<g id="a_edge16_Node000013_Node000008"><a xlink:title=" ">
<path fill="none" stroke="#63b8ff" d="M875.43,-113.09C866.42,-105.38 853.64,-94.45 842.94,-85.29"/>
<polygon fill="#63b8ff" stroke="#63b8ff" points="845.24,-82.65 835.37,-78.81 840.69,-87.97 845.24,-82.65"/>
</a>
</g>
</g>
<!-- Node14 -->
<g id="Node000014" class="node">
<title>Node14</title>
<g id="a_Node000014"><a xlink:title=" ">
<polygon fill="#e0e0e0" stroke="#999999" points="967.25,-77.5 914.5,-77.5 914.5,-56.75 967.25,-56.75 967.25,-77.5"/>
<text xml:space="preserve" text-anchor="middle" x="940.88" y="-64" font-family="Helvetica,sans-Serif" font-size="10.00">stdint.h</text>
</a>
</g>
</g>
<!-- Node13&#45;&gt;Node14 -->
<g id="edge15_Node000013_Node000014" class="edge">
<title>Node13&#45;&gt;Node14</title>
<g id="a_edge15_Node000013_Node000014"><a xlink:title=" ">
<path fill="none" stroke="#63b8ff" d="M896.53,-113.09C903.98,-105.53 914.48,-94.89 923.4,-85.85"/>
<polygon fill="#63b8ff" stroke="#63b8ff" points="925.71,-88.48 930.24,-78.91 920.73,-83.57 925.71,-88.48"/>
</a>
</g>
</g>
<!-- Node15 -->
<g id="Node000015" class="node">
<title>Node15</title>
<g id="a_Node000015"><a xlink:title=" ">
<polygon fill="#e0e0e0" stroke="#999999" points="1076.38,-77.5 985.38,-77.5 985.38,-56.75 1076.38,-56.75 1076.38,-77.5"/>
<text xml:space="preserve" text-anchor="middle" x="1030.88" y="-64" font-family="Helvetica,sans-Serif" font-size="10.00">event_groups.h</text>
</a>
</g>
</g>
<!-- Node13&#45;&gt;Node15 -->
<g id="edge17_Node000013_Node000015" class="edge">
<title>Node13&#45;&gt;Node15</title>
<g id="a_edge17_Node000013_Node000015"><a xlink:title=" ">
<path fill="none" stroke="#63b8ff" d="M912.62,-113.09C935.45,-104.41 969.05,-91.63 994.6,-81.92"/>
<polygon fill="#63b8ff" stroke="#63b8ff" points="995.84,-85.19 1003.94,-78.37 993.35,-78.65 995.84,-85.19"/>
</a>
</g>
</g>
<!-- Node16 -->
<g id="Node000016" class="node">
<title>Node16</title>
<g id="a_Node000016"><a xlink:title=" ">
<polygon fill="#e0e0e0" stroke="#999999" points="1146.88,-77.5 1094.88,-77.5 1094.88,-56.75 1146.88,-56.75 1146.88,-77.5"/>
<text xml:space="preserve" text-anchor="middle" x="1120.88" y="-64" font-family="Helvetica,sans-Serif" font-size="10.00">stdlib.h</text>
</a>
</g>
</g>
<!-- Node13&#45;&gt;Node16 -->
<g id="edge19_Node000013_Node000016" class="edge">
<title>Node13&#45;&gt;Node16</title>
<g id="a_edge19_Node000013_Node000016"><a xlink:title=" ">
<path fill="none" stroke="#63b8ff" d="M929.3,-113.69C967.3,-105.35 1024.81,-92.46 1083.55,-78.01"/>
<polygon fill="#63b8ff" stroke="#63b8ff" points="1084.19,-81.46 1093.06,-75.66 1082.51,-74.66 1084.19,-81.46"/>
</a>
</g>
</g>
<!-- Node17&#45;&gt;Node4 -->
<g id="edge21_Node000017_Node000004" class="edge">
<title>Node17&#45;&gt;Node4</title>
<g id="a_edge21_Node000017_Node000004"><a xlink:title=" ">
<path fill="none" stroke="#63b8ff" d="M274.4,-115.09C324.35,-105.94 407.77,-90.67 465.86,-80.03"/>
<polygon fill="#63b8ff" stroke="#63b8ff" points="466.43,-83.48 475.63,-78.24 465.17,-76.6 466.43,-83.48"/>
</a>
</g>
</g>
<!-- Node17&#45;&gt;Node5 -->
<g id="edge23_Node000017_Node000005" class="edge">
<title>Node17&#45;&gt;Node5</title>
<g id="a_edge23_Node000017_Node000005"><a xlink:title=" ">
<path fill="none" stroke="#63b8ff" d="M244.98,-113.24C267.52,-96.83 312.93,-64.46 330.88,-56.75 378.12,-36.44 435.71,-24.61 476.94,-18.15"/>
<polygon fill="#63b8ff" stroke="#63b8ff" points="477.24,-21.64 486.61,-16.69 476.2,-14.72 477.24,-21.64"/>
</a>
</g>
</g>
<!-- Node17&#45;&gt;Node10 -->
<g id="edge24_Node000017_Node000010" class="edge">
<title>Node17&#45;&gt;Node10</title>
<g id="a_edge24_Node000017_Node000010"><a xlink:title=" ">
<path fill="none" stroke="#63b8ff" d="M256.37,-113.09C277.99,-104.44 309.76,-91.75 334.03,-82.05"/>
<polygon fill="#63b8ff" stroke="#63b8ff" points="335.2,-85.35 343.19,-78.39 332.6,-78.85 335.2,-85.35"/>
</a>
</g>
</g>
<!-- Node17&#45;&gt;Node11 -->
<g id="edge25_Node000017_Node000011" class="edge">
<title>Node17&#45;&gt;Node11</title>
<g id="a_edge25_Node000017_Node000011"><a xlink:title=" ">
<path fill="none" stroke="#63b8ff" d="M210.42,-113.09C191.82,-104.6 164.65,-92.2 143.55,-82.58"/>
<polygon fill="#63b8ff" stroke="#63b8ff" points="145.07,-79.42 134.52,-78.46 142.16,-85.79 145.07,-79.42"/>
</a>
</g>
</g>
<!-- Node17&#45;&gt;Node12 -->
<g id="edge26_Node000017_Node000012" class="edge">
<title>Node17&#45;&gt;Node12</title>
<g id="a_edge26_Node000017_Node000012"><a xlink:title=" ">
<path fill="none" stroke="#63b8ff" d="M195.94,-113.09C161.45,-103.69 109.38,-89.51 72.97,-79.59"/>
<polygon fill="#63b8ff" stroke="#63b8ff" points="74.24,-76.31 63.67,-77.06 72.4,-83.06 74.24,-76.31"/>
</a>
</g>
</g>
<!-- Node18 -->
<g id="Node000018" class="node">
<title>Node18</title>
<g id="a_Node000018"><a xlink:title=" ">
<polygon fill="#e0e0e0" stroke="#999999" points="284.12,-77.5 161.62,-77.5 161.62,-56.75 284.12,-56.75 284.12,-77.5"/>
<text xml:space="preserve" text-anchor="middle" x="222.88" y="-64" font-family="Helvetica,sans-Serif" font-size="10.00">fsl_device_registers.h</text>
</a>
</g>
</g>
<!-- Node17&#45;&gt;Node18 -->
<g id="edge22_Node000017_Node000018" class="edge">
<title>Node17&#45;&gt;Node18</title>
<g id="a_edge22_Node000017_Node000018"><a xlink:title=" ">
<path fill="none" stroke="#63b8ff" d="M230.27,-113.09C229.17,-106.39 227.66,-97.26 226.3,-88.98"/>
<polygon fill="#63b8ff" stroke="#63b8ff" points="229.79,-88.62 224.72,-79.32 222.88,-89.76 229.79,-88.62"/>
</a>
</g>
</g>
<!-- Node19&#45;&gt;Node5 -->
<g id="edge30_Node000019_Node000005" class="edge">
<title>Node19&#45;&gt;Node5</title>
<g id="a_edge30_Node000019_Node000005"><a xlink:title=" ">
<path fill="none" stroke="#63b8ff" d="M699.02,-169.79C685.54,-161.66 667.3,-149.07 654.88,-134.25 630.24,-104.85 643.6,-84.27 616.88,-56.75 603.85,-43.34 586,-33.04 569.94,-25.67"/>
<polygon fill="#63b8ff" stroke="#63b8ff" points="571.67,-22.6 561.1,-21.84 568.89,-29.03 571.67,-22.6"/>
</a>
</g>
</g>
<!-- Node19&#45;&gt;Node6 -->
<g id="edge32_Node000019_Node000006" class="edge">
<title>Node19&#45;&gt;Node6</title>
<g id="a_edge32_Node000019_Node000006"><a xlink:title=" ">
<path fill="none" stroke="#63b8ff" d="M764.22,-175.96C867.6,-166.85 1108.08,-139.33 1155.88,-77.5 1161.52,-70.2 1161.79,-63.82 1155.88,-56.75 1130.72,-26.68 1020.92,-16.51 954.51,-13.09"/>
<polygon fill="#63b8ff" stroke="#63b8ff" points="954.71,-9.6 944.56,-12.62 954.38,-16.59 954.71,-9.6"/>
</a>
</g>
</g>
<!-- Node19&#45;&gt;Node13 -->
<g id="edge31_Node000019_Node000013" class="edge">
<title>Node19&#45;&gt;Node13</title>
<g id="a_edge31_Node000019_Node000013"><a xlink:title=" ">
<path fill="none" stroke="#63b8ff" d="M747.27,-169.84C774.74,-160.99 815.41,-147.89 845.78,-138.11"/>
<polygon fill="#63b8ff" stroke="#63b8ff" points="846.57,-141.53 855.02,-135.13 844.43,-134.87 846.57,-141.53"/>
</a>
</g>
</g>
<!-- Node20 -->
<g id="Node000020" class="node">
<title>Node20</title>
<g id="a_Node000020"><a xlink:href="tmc2209__shared_8h.html" target="_top" xlink:title=" ">
<polygon fill="white" stroke="#666666" points="769.88,-134.25 663.88,-134.25 663.88,-113.5 769.88,-113.5 769.88,-134.25"/>
<text xml:space="preserve" text-anchor="middle" x="716.88" y="-120.75" font-family="Helvetica,sans-Serif" font-size="10.00">tmc2209_shared.h</text>
</a>
</g>
</g>
<!-- Node19&#45;&gt;Node20 -->
<g id="edge28_Node000019_Node000020" class="edge">
<title>Node19&#45;&gt;Node20</title>
<g id="a_edge28_Node000019_Node000020"><a xlink:title=" ">
<path fill="none" stroke="#63b8ff" d="M716.88,-169.84C716.88,-163.22 716.88,-154.22 716.88,-146.02"/>
<polygon fill="#63b8ff" stroke="#63b8ff" points="720.38,-146.09 716.88,-136.09 713.38,-146.09 720.38,-146.09"/>
</a>
</g>
</g>
<!-- Node21 -->
<g id="Node000021" class="node">
<title>Node21</title>
<g id="a_Node000021"><a xlink:title=" ">
<polygon fill="#e0e0e0" stroke="#999999" points="769.5,-77.5 664.25,-77.5 664.25,-56.75 769.5,-56.75 769.5,-77.5"/>
<text xml:space="preserve" text-anchor="middle" x="716.88" y="-64" font-family="Helvetica,sans-Serif" font-size="10.00">fsl_uart_freertos.h</text>
</a>
</g>
</g>
<!-- Node20&#45;&gt;Node21 -->
<g id="edge29_Node000020_Node000021" class="edge">
<title>Node20&#45;&gt;Node21</title>
<g id="a_edge29_Node000020_Node000021"><a xlink:title=" ">
<path fill="none" stroke="#63b8ff" d="M716.88,-113.09C716.88,-106.47 716.88,-97.47 716.88,-89.27"/>
<polygon fill="#63b8ff" stroke="#63b8ff" points="720.38,-89.34 716.88,-79.34 713.38,-89.34 720.38,-89.34"/>
</a>
</g>
</g>
</g>
</svg>
