<?xml version="1.0" encoding="UTF-8" standalone="no"?>
<!DOCTYPE svg PUBLIC "-//W3C//DTD SVG 1.1//EN"
 "http://www.w3.org/Graphics/SVG/1.1/DTD/svg11.dtd">
<!-- Generated by graphviz version 14.1.4 (0)
 -->
<!-- Title: source/motorCmd.c Pages: 1 -->
<svg width="1623pt" height="426pt"
 viewBox="0.00 0.00 1623.00 426.00" xmlns="http://www.w3.org/2000/svg" xmlns:xlink="http://www.w3.org/1999/xlink">
<g id="graph0" class="graph" transform="scale(1 1) rotate(0) translate(4 422)">
<title>source/motorCmd.c</title>
<!-- Node1 -->
<g id="Node000001" class="node">
<title>Node1</title>
<g id="a_Node000001"><a xlink:title=" ">
<polygon fill="#999999" stroke="#666666" points="1191.73,-418 1080.48,-418 1080.48,-397.25 1191.73,-397.25 1191.73,-418"/>
<text xml:space="preserve" text-anchor="middle" x="1136.1" y="-404.5" font-family="Helvetica,sans-Serif" font-size="10.00">source/motorCmd.c</text>
</a>
</g>
</g>
<!-- Node2 -->
<g id="Node000002" class="node">
<title>Node2</title>
<g id="a_Node000002"><a xlink:href="motorCmd_8h.html" target="_top" xlink:title=" ">
<polygon fill="white" stroke="#666666" points="926.48,-304.5 849.73,-304.5 849.73,-283.75 926.48,-283.75 926.48,-304.5"/>
<text xml:space="preserve" text-anchor="middle" x="888.1" y="-291" font-family="Helvetica,sans-Serif" font-size="10.00">motorCmd.h</text>
</a>
</g>
</g>
<!-- Node1&#45;&gt;Node2 -->
<g id="edge1_Node000001_Node000002" class="edge">
<title>Node1&#45;&gt;Node2</title>
<g id="a_edge1_Node000001_Node000002"><a xlink:title=" ">
<path fill="none" stroke="#63b8ff" d="M1080.25,-403.39C1039.08,-398.79 983.17,-387.73 941.1,-361.25 922.87,-349.77 908.15,-329.78 898.9,-314.78"/>
<polygon fill="#63b8ff" stroke="#63b8ff" points="901.97,-313.11 893.91,-306.24 895.93,-316.64 901.97,-313.11"/>
</a>
</g>
</g>
<!-- Node4 -->
<g id="Node000004" class="node">
<title>Node4</title>
<g id="a_Node000004"><a xlink:href="motor__core_8h.html" target="_top" xlink:title=" ">
<polygon fill="white" stroke="#666666" points="679.35,-247.75 598.85,-247.75 598.85,-227 679.35,-227 679.35,-247.75"/>
<text xml:space="preserve" text-anchor="middle" x="639.1" y="-234.25" font-family="Helvetica,sans-Serif" font-size="10.00">motor_core.h</text>
</a>
</g>
</g>
<!-- Node1&#45;&gt;Node4 -->
<g id="edge3_Node000001_Node000004" class="edge">
<title>Node1&#45;&gt;Node4</title>
<g id="a_edge3_Node000001_Node000004"><a xlink:title=" ">
<path fill="none" stroke="#63b8ff" d="M1080.26,-407.1C1007.46,-406.05 877.16,-398.46 773.1,-361.25 728.58,-345.33 716.95,-337.52 683.1,-304.5 669.09,-290.82 657.08,-271.97 649.17,-257.89"/>
<polygon fill="#63b8ff" stroke="#63b8ff" points="652.28,-256.29 644.45,-249.15 646.12,-259.61 652.28,-256.29"/>
</a>
</g>
</g>
<!-- Node8 -->
<g id="Node000008" class="node">
<title>Node8</title>
<g id="a_Node000008"><a xlink:href="step__core_8h.html" target="_top" xlink:title=" ">
<polygon fill="white" stroke="#666666" points="737.23,-191 664.98,-191 664.98,-170.25 737.23,-170.25 737.23,-191"/>
<text xml:space="preserve" text-anchor="middle" x="701.1" y="-177.5" font-family="Helvetica,sans-Serif" font-size="10.00">step_core.h</text>
</a>
</g>
</g>
<!-- Node1&#45;&gt;Node8 -->
<g id="edge40_Node000001_Node000008" class="edge">
<title>Node1&#45;&gt;Node8</title>
<g id="a_edge40_Node000001_Node000008"><a xlink:title=" ">
<path fill="none" stroke="#63b8ff" d="M1080.38,-402.18C1034.35,-396.89 968.19,-385.49 915.1,-361.25 828.46,-321.69 748.83,-237.14 716.43,-199.89"/>
<polygon fill="#63b8ff" stroke="#63b8ff" points="719.38,-197.96 710.22,-192.64 714.07,-202.51 719.38,-197.96"/>
</a>
</g>
</g>
<!-- Node17 -->
<g id="Node000017" class="node">
<title>Node17</title>
<g id="a_Node000017"><a xlink:title=" ">
<polygon fill="#e0e0e0" stroke="#999999" points="1113.1,-77.5 1061.1,-77.5 1061.1,-56.75 1113.1,-56.75 1113.1,-77.5"/>
<text xml:space="preserve" text-anchor="middle" x="1087.1" y="-64" font-family="Helvetica,sans-Serif" font-size="10.00">stdlib.h</text>
</a>
</g>
</g>
<!-- Node1&#45;&gt;Node17 -->
<g id="edge62_Node000001_Node000017" class="edge">
<title>Node1&#45;&gt;Node17</title>
<g id="a_edge62_Node000001_Node000017"><a xlink:title=" ">
<path fill="none" stroke="#63b8ff" d="M1116.05,-396.78C1102.89,-389.1 1086.74,-377.09 1079.1,-361.25 1034.26,-268.25 1065.49,-138.63 1080.4,-88.78"/>
<polygon fill="#63b8ff" stroke="#63b8ff" points="1083.71,-89.93 1083.34,-79.34 1077.03,-87.85 1083.71,-89.93"/>
</a>
</g>
</g>
<!-- Node23 -->
<g id="Node000023" class="node">
<title>Node23</title>
<g id="a_Node000023"><a xlink:href="motor__convert_8h.html" target="_top" xlink:title=" ">
<polygon fill="white" stroke="#666666" points="788.23,-304.5 691.98,-304.5 691.98,-283.75 788.23,-283.75 788.23,-304.5"/>
<text xml:space="preserve" text-anchor="middle" x="740.1" y="-291" font-family="Helvetica,sans-Serif" font-size="10.00">motor_convert.h</text>
</a>
</g>
</g>
<!-- Node1&#45;&gt;Node23 -->
<g id="edge38_Node000001_Node000023" class="edge">
<title>Node1&#45;&gt;Node23</title>
<g id="a_edge38_Node000001_Node000023"><a xlink:title=" ">
<path fill="none" stroke="#63b8ff" d="M1080.13,-403.25C998.93,-397.62 853.03,-384.59 806.1,-361.25 784.18,-350.35 765.17,-329.32 753.25,-313.89"/>
<polygon fill="#63b8ff" stroke="#63b8ff" points="756.14,-311.91 747.39,-305.94 750.51,-316.06 756.14,-311.91"/>
</a>
</g>
</g>
<!-- Node24 -->
<g id="Node000024" class="node">
<title>Node24</title>
<g id="a_Node000024"><a xlink:title=" ">
<polygon fill="#e0e0e0" stroke="#999999" points="1464.98,-77.5 1373.23,-77.5 1373.23,-56.75 1464.98,-56.75 1464.98,-77.5"/>
<text xml:space="preserve" text-anchor="middle" x="1419.1" y="-64" font-family="Helvetica,sans-Serif" font-size="10.00">FreeRTOS_CLI.h</text>
</a>
</g>
</g>
<!-- Node1&#45;&gt;Node24 -->
<g id="edge41_Node000001_Node000024" class="edge">
<title>Node1&#45;&gt;Node24</title>
<g id="a_edge41_Node000001_Node000024"><a xlink:title=" ">
<path fill="none" stroke="#63b8ff" d="M1191.88,-399.54C1286.21,-385.98 1467.1,-352.5 1467.1,-295.12 1467.1,-295.12 1467.1,-295.12 1467.1,-179.62 1467.1,-144.85 1447.16,-108.58 1432.99,-87.19"/>
<polygon fill="#63b8ff" stroke="#63b8ff" points="1436.03,-85.44 1427.46,-79.2 1430.27,-89.42 1436.03,-85.44"/>
</a>
</g>
</g>
<!-- Node25 -->
<g id="Node000025" class="node">
<title>Node25</title>
<g id="a_Node000025"><a xlink:href="cli_8h.html" target="_top" xlink:title=" ">
<polygon fill="white" stroke="#666666" points="1343.23,-134.25 1306.98,-134.25 1306.98,-113.5 1343.23,-113.5 1343.23,-134.25"/>
<text xml:space="preserve" text-anchor="middle" x="1325.1" y="-120.75" font-family="Helvetica,sans-Serif" font-size="10.00">cli.h</text>
</a>
</g>
</g>
<!-- Node1&#45;&gt;Node25 -->
<g id="edge42_Node000001_Node000025" class="edge">
<title>Node1&#45;&gt;Node25</title>
<g id="a_edge42_Node000001_Node000025"><a xlink:title=" ">
<path fill="none" stroke="#63b8ff" d="M1151.51,-396.83C1163.83,-388.46 1180.99,-375.52 1193.1,-361.25 1253.16,-290.5 1299.1,-188.28 1316.97,-145.22"/>
<polygon fill="#63b8ff" stroke="#63b8ff" points="1320.15,-146.7 1320.68,-136.12 1313.66,-144.05 1320.15,-146.7"/>
</a>
</g>
</g>
<!-- Node26 -->
<g id="Node000026" class="node">
<title>Node26</title>
<g id="a_Node000026"><a xlink:href="cli__utilities_8h.html" target="_top" xlink:title=" ">
<polygon fill="white" stroke="#666666" points="1439.23,-134.25 1360.98,-134.25 1360.98,-113.5 1439.23,-113.5 1439.23,-134.25"/>
<text xml:space="preserve" text-anchor="middle" x="1400.1" y="-120.75" font-family="Helvetica,sans-Serif" font-size="10.00">cli_utilities.h</text>
</a>
</g>
</g>
<!-- Node1&#45;&gt;Node26 -->
<g id="edge46_Node000001_Node000026" class="edge">
<title>Node1&#45;&gt;Node26</title>
<g id="a_edge46_Node000001_Node000026"><a xlink:title=" ">
<path fill="none" stroke="#63b8ff" d="M1191.97,-404.13C1262.04,-397.65 1373.1,-374.81 1373.1,-295.12 1373.1,-295.12 1373.1,-295.12 1373.1,-236.38 1373.1,-203.77 1384.14,-167.28 1392.1,-145.2"/>
<polygon fill="#63b8ff" stroke="#63b8ff" points="1395.34,-146.54 1395.59,-135.94 1388.79,-144.07 1395.34,-146.54"/>
</a>
</g>
</g>
<!-- Node27 -->
<g id="Node000027" class="node">
<title>Node27</title>
<g id="a_Node000027"><a xlink:href="log_8h.html" target="_top" xlink:title=" ">
<polygon fill="white" stroke="#666666" points="1289.1,-134.25 1249.1,-134.25 1249.1,-113.5 1289.1,-113.5 1289.1,-134.25"/>
<text xml:space="preserve" text-anchor="middle" x="1269.1" y="-120.75" font-family="Helvetica,sans-Serif" font-size="10.00">log.h</text>
</a>
</g>
</g>
<!-- Node1&#45;&gt;Node27 -->
<g id="edge50_Node000001_Node000027" class="edge">
<title>Node1&#45;&gt;Node27</title>
<g id="a_edge50_Node000001_Node000027"><a xlink:title=" ">
<path fill="none" stroke="#63b8ff" d="M1152.51,-396.89C1165.06,-388.72 1182.05,-376.04 1193.1,-361.25 1243.96,-293.2 1261.55,-189.83 1266.96,-145.86"/>
<polygon fill="#63b8ff" stroke="#63b8ff" points="1270.44,-146.28 1268.08,-135.95 1263.48,-145.49 1270.44,-146.28"/>
</a>
</g>
</g>
<!-- Node28 -->
<g id="Node000028" class="node">
<title>Node28</title>
<g id="a_Node000028"><a xlink:href="motor__homing_8h.html" target="_top" xlink:title=" ">
<polygon fill="white" stroke="#666666" points="1184.23,-361.25 1087.98,-361.25 1087.98,-340.5 1184.23,-340.5 1184.23,-361.25"/>
<text xml:space="preserve" text-anchor="middle" x="1136.1" y="-347.75" font-family="Helvetica,sans-Serif" font-size="10.00">motor_homing.h</text>
</a>
</g>
</g>
<!-- Node1&#45;&gt;Node28 -->
<g id="edge53_Node000001_Node000028" class="edge">
<title>Node1&#45;&gt;Node28</title>
<g id="a_edge53_Node000001_Node000028"><a xlink:title=" ">
<path fill="none" stroke="#63b8ff" d="M1136.1,-396.84C1136.1,-390.22 1136.1,-381.22 1136.1,-373.02"/>
<polygon fill="#63b8ff" stroke="#63b8ff" points="1139.6,-373.09 1136.1,-363.09 1132.6,-373.09 1139.6,-373.09"/>
</a>
</g>
</g>
<!-- Node31 -->
<g id="Node000031" class="node">
<title>Node31</title>
<g id="a_Node000031"><a xlink:title=" ">
<polygon fill="#e0e0e0" stroke="#999999" points="1544.6,-361.25 1495.6,-361.25 1495.6,-340.5 1544.6,-340.5 1544.6,-361.25"/>
<text xml:space="preserve" text-anchor="middle" x="1520.1" y="-347.75" font-family="Helvetica,sans-Serif" font-size="10.00">stdio.h</text>
</a>
</g>
</g>
<!-- Node1&#45;&gt;Node31 -->
<g id="edge61_Node000001_Node000031" class="edge">
<title>Node1&#45;&gt;Node31</title>
<g id="a_edge61_Node000001_Node000031"><a xlink:title=" ">
<path fill="none" stroke="#63b8ff" d="M1191.96,-401.11C1260.42,-393.92 1379.83,-380.03 1481.1,-361.25 1482.12,-361.06 1483.15,-360.86 1484.19,-360.66"/>
<polygon fill="#63b8ff" stroke="#63b8ff" points="1484.92,-364.08 1493.95,-358.54 1483.44,-357.24 1484.92,-364.08"/>
</a>
</g>
</g>
<!-- Node32 -->
<g id="Node000032" class="node">
<title>Node32</title>
<g id="a_Node000032"><a xlink:title=" ">
<polygon fill="#e0e0e0" stroke="#999999" points="1615.48,-361.25 1562.73,-361.25 1562.73,-340.5 1615.48,-340.5 1615.48,-361.25"/>
<text xml:space="preserve" text-anchor="middle" x="1589.1" y="-347.75" font-family="Helvetica,sans-Serif" font-size="10.00">string.h</text>
</a>
</g>
</g>
<!-- Node1&#45;&gt;Node32 -->
<g id="edge63_Node000001_Node000032" class="edge">
<title>Node1&#45;&gt;Node32</title>
<g id="a_edge63_Node000001_Node000032"><a xlink:title=" ">
<path fill="none" stroke="#63b8ff" d="M1191.94,-403.3C1270.28,-398.03 1417.34,-385.96 1551.19,-361.55"/>
<polygon fill="#63b8ff" stroke="#63b8ff" points="1551.76,-365.01 1560.96,-359.74 1550.49,-358.13 1551.76,-365.01"/>
</a>
</g>
</g>
<!-- Node33 -->
<g id="Node000033" class="node">
<title>Node33</title>
<g id="a_Node000033"><a xlink:href="sync__wait_8h.html" target="_top" xlink:title=" ">
<polygon fill="white" stroke="#666666" points="994.98,-191 921.23,-191 921.23,-170.25 994.98,-170.25 994.98,-191"/>
<text xml:space="preserve" text-anchor="middle" x="958.1" y="-177.5" font-family="Helvetica,sans-Serif" font-size="10.00">sync_wait.h</text>
</a>
</g>
</g>
<!-- Node1&#45;&gt;Node33 -->
<g id="edge64_Node000001_Node000033" class="edge">
<title>Node1&#45;&gt;Node33</title>
<g id="a_edge64_Node000001_Node000033"><a xlink:title=" ">
<path fill="none" stroke="#63b8ff" d="M1080.04,-399C1054.6,-392.81 1026.03,-381.58 1007.1,-361.25 965.34,-316.37 958.56,-239.41 957.86,-202.53"/>
<polygon fill="#63b8ff" stroke="#63b8ff" points="961.36,-202.77 957.82,-192.79 954.36,-202.8 961.36,-202.77"/>
</a>
</g>
</g>
<!-- Node3 -->
<g id="Node000003" class="node">
<title>Node3</title>
<g id="a_Node000003"><a xlink:title=" ">
<polygon fill="#e0e0e0" stroke="#999999" points="857.6,-20.75 772.6,-20.75 772.6,0 857.6,0 857.6,-20.75"/>
<text xml:space="preserve" text-anchor="middle" x="815.1" y="-7.25" font-family="Helvetica,sans-Serif" font-size="10.00">fsl_common.h</text>
</a>
</g>
</g>
<!-- Node2&#45;&gt;Node3 -->
<g id="edge2_Node000002_Node000003" class="edge">
<title>Node2&#45;&gt;Node3</title>
<g id="a_edge2_Node000002_Node000003"><a xlink:title=" ">
<path fill="none" stroke="#63b8ff" d="M885.59,-283.43C875.15,-243.12 835.05,-88.36 820.46,-32.03"/>
<polygon fill="#63b8ff" stroke="#63b8ff" points="823.88,-31.3 817.98,-22.5 817.1,-33.06 823.88,-31.3"/>
</a>
</g>
</g>
<!-- Node5 -->
<g id="Node000005" class="node">
<title>Node5</title>
<g id="a_Node000005"><a xlink:href="pca9555a_8h.html" target="_top" xlink:title=" ">
<polygon fill="white" stroke="#666666" points="295.1,-77.5 141.1,-77.5 141.1,-56.75 295.1,-56.75 295.1,-77.5"/>
<text xml:space="preserve" text-anchor="middle" x="218.1" y="-64" font-family="Helvetica,sans-Serif" font-size="10.00">driver/pca9555a/pca9555a.h</text>
</a>
</g>
</g>
<!-- Node4&#45;&gt;Node5 -->
<g id="edge4_Node000004_Node000005" class="edge">
<title>Node4&#45;&gt;Node5</title>
<g id="a_edge4_Node000004_Node000005"><a xlink:title=" ">
<path fill="none" stroke="#63b8ff" d="M598.52,-237.06C504.56,-237.87 275.47,-235.13 215.1,-191 185.88,-169.64 180.22,-148.32 190.1,-113.5 192.77,-104.09 198.01,-94.71 203.24,-86.95"/>
<polygon fill="#63b8ff" stroke="#63b8ff" points="205.95,-89.17 209.01,-79.03 200.29,-85.06 205.95,-89.17"/>
</a>
</g>
</g>
<!-- Node7 -->
<g id="Node000007" class="node">
<title>Node7</title>
<g id="a_Node000007"><a xlink:title=" ">
<polygon fill="#e0e0e0" stroke="#999999" points="844.48,-191 755.73,-191 755.73,-170.25 844.48,-170.25 844.48,-191"/>
<text xml:space="preserve" text-anchor="middle" x="800.1" y="-177.5" font-family="Helvetica,sans-Serif" font-size="10.00">MK22F51212.h</text>
</a>
</g>
</g>
<!-- Node4&#45;&gt;Node7 -->
<g id="edge7_Node000004_Node000007" class="edge">
<title>Node4&#45;&gt;Node7</title>
<g id="a_edge7_Node000004_Node000007"><a xlink:title=" ">
<path fill="none" stroke="#63b8ff" d="M667.89,-226.59C693.68,-217.82 731.75,-204.87 760.43,-195.12"/>
<polygon fill="#63b8ff" stroke="#63b8ff" points="761.52,-198.44 769.86,-191.91 759.27,-191.81 761.52,-198.44"/>
</a>
</g>
</g>
<!-- Node4&#45;&gt;Node8 -->
<g id="edge8_Node000004_Node000008" class="edge">
<title>Node4&#45;&gt;Node8</title>
<g id="a_edge8_Node000004_Node000008"><a xlink:title=" ">
<path fill="none" stroke="#63b8ff" d="M650.19,-226.59C658.92,-218.88 671.3,-207.95 681.66,-198.79"/>
<polygon fill="#63b8ff" stroke="#63b8ff" points="683.8,-201.57 688.98,-192.33 679.17,-196.33 683.8,-201.57"/>
</a>
</g>
</g>
<!-- Node11 -->
<g id="Node000011" class="node">
<title>Node11</title>
<g id="a_Node000011"><a xlink:title=" ">
<polygon fill="#e0e0e0" stroke="#999999" points="371.48,-77.5 312.73,-77.5 312.73,-56.75 371.48,-56.75 371.48,-77.5"/>
<text xml:space="preserve" text-anchor="middle" x="342.1" y="-64" font-family="Helvetica,sans-Serif" font-size="10.00">fsl_ftm.h</text>
</a>
</g>
</g>
<!-- Node4&#45;&gt;Node11 -->
<g id="edge35_Node000004_Node000011" class="edge">
<title>Node4&#45;&gt;Node11</title>
<g id="a_edge35_Node000004_Node000011"><a xlink:title=" ">
<path fill="none" stroke="#63b8ff" d="M598.63,-235.26C512,-232.3 311.65,-222.2 252.1,-191 215.79,-171.98 178,-146.65 202.1,-113.5 208.15,-105.18 262.03,-89.36 301.14,-78.78"/>
<polygon fill="#63b8ff" stroke="#63b8ff" points="302.02,-82.17 310.77,-76.2 300.21,-75.41 302.02,-82.17"/>
</a>
</g>
</g>
<!-- Node12 -->
<g id="Node000012" class="node">
<title>Node12</title>
<g id="a_Node000012"><a xlink:title=" ">
<polygon fill="#e0e0e0" stroke="#999999" points="452.73,-77.5 389.48,-77.5 389.48,-56.75 452.73,-56.75 452.73,-77.5"/>
<text xml:space="preserve" text-anchor="middle" x="421.1" y="-64" font-family="Helvetica,sans-Serif" font-size="10.00">fsl_gpio.h</text>
</a>
</g>
</g>
<!-- Node4&#45;&gt;Node12 -->
<g id="edge36_Node000004_Node000012" class="edge">
<title>Node4&#45;&gt;Node12</title>
<g id="a_edge36_Node000004_Node000012"><a xlink:title=" ">
<path fill="none" stroke="#63b8ff" d="M607.59,-226.59C566.41,-212.35 494.32,-182.26 450.1,-134.25 438.28,-121.41 430.74,-102.98 426.32,-88.84"/>
<polygon fill="#63b8ff" stroke="#63b8ff" points="429.69,-87.9 423.62,-79.22 422.95,-89.79 429.69,-87.9"/>
</a>
</g>
</g>
<!-- Node13 -->
<g id="Node000013" class="node">
<title>Node13</title>
<g id="a_Node000013"><a xlink:title=" ">
<polygon fill="#e0e0e0" stroke="#999999" points="748.98,-77.5 687.23,-77.5 687.23,-56.75 748.98,-56.75 748.98,-77.5"/>
<text xml:space="preserve" text-anchor="middle" x="718.1" y="-64" font-family="Helvetica,sans-Serif" font-size="10.00">fsl_port.h</text>
</a>
</g>
</g>
<!-- Node4&#45;&gt;Node13 -->
<g id="edge37_Node000004_Node000013" class="edge">
<title>Node4&#45;&gt;Node13</title>
<g id="a_edge37_Node000004_Node000013"><a xlink:title=" ">
<path fill="none" stroke="#63b8ff" d="M640.76,-226.71C643.2,-213.6 648.32,-189.6 656.1,-170.25 666.91,-143.39 673,-138.2 688.1,-113.5 693.45,-104.76 699.65,-95.28 705.02,-87.26"/>
<polygon fill="#63b8ff" stroke="#63b8ff" points="707.91,-89.23 710.62,-78.99 702.11,-85.31 707.91,-89.23"/>
</a>
</g>
</g>
<!-- Node20 -->
<g id="Node000020" class="node">
<title>Node20</title>
<g id="a_Node000020"><a xlink:href="tmc2209__core_8h.html" target="_top" xlink:title=" ">
<polygon fill="white" stroke="#666666" points="355.1,-191 261.1,-191 261.1,-170.25 355.1,-170.25 355.1,-191"/>
<text xml:space="preserve" text-anchor="middle" x="308.1" y="-177.5" font-family="Helvetica,sans-Serif" font-size="10.00">tmc2209_core.h</text>
</a>
</g>
</g>
<!-- Node4&#45;&gt;Node20 -->
<g id="edge29_Node000004_Node000020" class="edge">
<title>Node4&#45;&gt;Node20</title>
<g id="a_edge29_Node000004_Node000020"><a xlink:title=" ">
<path fill="none" stroke="#63b8ff" d="M598.52,-229.66C540.42,-220.05 433.23,-202.32 366.58,-191.3"/>
<polygon fill="#63b8ff" stroke="#63b8ff" points="367.37,-187.88 356.93,-189.7 366.23,-194.79 367.37,-187.88"/>
</a>
</g>
</g>
<!-- Node5&#45;&gt;Node3 -->
<g id="edge5_Node000005_Node000003" class="edge">
<title>Node5&#45;&gt;Node3</title>
<g id="a_edge5_Node000005_Node000003"><a xlink:title=" ">
<path fill="none" stroke="#63b8ff" d="M295.45,-57.62C298.37,-57.32 301.26,-57.03 304.1,-56.75 470.48,-40.3 667.62,-23.57 760.95,-15.83"/>
<polygon fill="#63b8ff" stroke="#63b8ff" points="761.16,-19.32 770.83,-15.01 760.58,-12.34 761.16,-19.32"/>
</a>
</g>
</g>
<!-- Node6 -->
<g id="Node000006" class="node">
<title>Node6</title>
<g id="a_Node000006"><a xlink:title=" ">
<polygon fill="#e0e0e0" stroke="#999999" points="257.98,-20.75 178.23,-20.75 178.23,0 257.98,0 257.98,-20.75"/>
<text xml:space="preserve" text-anchor="middle" x="218.1" y="-7.25" font-family="Helvetica,sans-Serif" font-size="10.00">peripherals.h</text>
</a>
</g>
</g>
<!-- Node5&#45;&gt;Node6 -->
<g id="edge6_Node000005_Node000006" class="edge">
<title>Node5&#45;&gt;Node6</title>
<g id="a_edge6_Node000005_Node000006"><a xlink:title=" ">
<path fill="none" stroke="#63b8ff" d="M218.1,-56.34C218.1,-49.72 218.1,-40.72 218.1,-32.52"/>
<polygon fill="#63b8ff" stroke="#63b8ff" points="221.6,-32.59 218.1,-22.59 214.6,-32.59 221.6,-32.59"/>
</a>
</g>
</g>
<!-- Node8&#45;&gt;Node3 -->
<g id="edge12_Node000008_Node000003" class="edge">
<title>Node8&#45;&gt;Node3</title>
<g id="a_edge12_Node000008_Node000003"><a xlink:title=" ">
<path fill="none" stroke="#63b8ff" d="M717.05,-169.9C729.52,-161.66 746.61,-148.87 758.1,-134.25 783.2,-102.33 800.37,-57.58 808.89,-31.82"/>
<polygon fill="#63b8ff" stroke="#63b8ff" points="812.14,-33.17 811.83,-22.58 805.47,-31.05 812.14,-33.17"/>
</a>
</g>
</g>
<!-- Node8&#45;&gt;Node5 -->
<g id="edge9_Node000008_Node000005" class="edge">
<title>Node8&#45;&gt;Node5</title>
<g id="a_edge9_Node000008_Node000005"><a xlink:title=" ">
<path fill="none" stroke="#63b8ff" d="M664.67,-176.27C608.38,-170.58 497.13,-157.36 405.1,-134.25 350.08,-120.44 288.44,-97.02 251.48,-82.08"/>
<polygon fill="#63b8ff" stroke="#63b8ff" points="253.27,-79.03 242.69,-78.49 250.62,-85.51 253.27,-79.03"/>
</a>
</g>
</g>
<!-- Node9 -->
<g id="Node000009" class="node">
<title>Node9</title>
<g id="a_Node000009"><a xlink:title=" ">
<polygon fill="#e0e0e0" stroke="#999999" points="1240.85,-77.5 1169.35,-77.5 1169.35,-56.75 1240.85,-56.75 1240.85,-77.5"/>
<text xml:space="preserve" text-anchor="middle" x="1205.1" y="-64" font-family="Helvetica,sans-Serif" font-size="10.00">FreeRTOS.h</text>
</a>
</g>
</g>
<!-- Node8&#45;&gt;Node9 -->
<g id="edge10_Node000008_Node000009" class="edge">
<title>Node8&#45;&gt;Node9</title>
<g id="a_edge10_Node000008_Node000009"><a xlink:title=" ">
<path fill="none" stroke="#63b8ff" d="M737.72,-171.94C740.89,-171.34 744.05,-170.77 747.1,-170.25 864.29,-150.37 896.44,-161.64 1012.1,-134.25 1069.04,-120.77 1132.86,-97.15 1170.97,-82.09"/>
<polygon fill="#63b8ff" stroke="#63b8ff" points="1172.08,-85.42 1180.07,-78.46 1169.48,-78.92 1172.08,-85.42"/>
</a>
</g>
</g>
<!-- Node10 -->
<g id="Node000010" class="node">
<title>Node10</title>
<g id="a_Node000010"><a xlink:title=" ">
<polygon fill="#e0e0e0" stroke="#999999" points="749.1,-134.25 703.1,-134.25 703.1,-113.5 749.1,-113.5 749.1,-134.25"/>
<text xml:space="preserve" text-anchor="middle" x="726.1" y="-120.75" font-family="Helvetica,sans-Serif" font-size="10.00">task.h</text>
</a>
</g>
</g>
<!-- Node8&#45;&gt;Node10 -->
<g id="edge11_Node000008_Node000010" class="edge">
<title>Node8&#45;&gt;Node10</title>
<g id="a_edge11_Node000008_Node000010"><a xlink:title=" ">
<path fill="none" stroke="#63b8ff" d="M705.57,-169.84C708.74,-162.91 713.09,-153.37 716.98,-144.86"/>
<polygon fill="#63b8ff" stroke="#63b8ff" points="720.07,-146.51 721.04,-135.96 713.71,-143.6 720.07,-146.51"/>
</a>
</g>
</g>
<!-- Node8&#45;&gt;Node11 -->
<g id="edge13_Node000008_Node000011" class="edge">
<title>Node8&#45;&gt;Node11</title>
<g id="a_edge13_Node000008_Node000011"><a xlink:title=" ">
<path fill="none" stroke="#63b8ff" d="M664.65,-177.27C614.78,-173.11 523.14,-162.08 450.1,-134.25 417.82,-121.95 384.49,-99.84 363.55,-84.59"/>
<polygon fill="#63b8ff" stroke="#63b8ff" points="365.91,-81.99 355.8,-78.84 361.74,-87.61 365.91,-81.99"/>
</a>
</g>
</g>
<!-- Node8&#45;&gt;Node12 -->
<g id="edge14_Node000008_Node000012" class="edge">
<title>Node8&#45;&gt;Node12</title>
<g id="a_edge14_Node000008_Node000012"><a xlink:title=" ">
<path fill="none" stroke="#63b8ff" d="M664.58,-179.31C618.18,-177.38 537.07,-168.81 478.1,-134.25 458.55,-122.79 442.4,-102.17 432.34,-86.99"/>
<polygon fill="#63b8ff" stroke="#63b8ff" points="435.48,-85.41 427.19,-78.81 429.56,-89.14 435.48,-85.41"/>
</a>
</g>
</g>
<!-- Node8&#45;&gt;Node13 -->
<g id="edge15_Node000008_Node000013" class="edge">
<title>Node8&#45;&gt;Node13</title>
<g id="a_edge15_Node000008_Node000013"><a xlink:title=" ">
<path fill="none" stroke="#63b8ff" d="M698.05,-170.07C694.35,-157.08 689.21,-133.22 694.1,-113.5 696.32,-104.56 700.66,-95.45 705.04,-87.76"/>
<polygon fill="#63b8ff" stroke="#63b8ff" points="708,-89.64 710.26,-79.29 702.04,-85.96 708,-89.64"/>
</a>
</g>
</g>
<!-- Node14 -->
<g id="Node000014" class="node">
<title>Node14</title>
<g id="a_Node000014"><a xlink:href="cmd__handle_8h.html" target="_top" xlink:title=" ">
<polygon fill="white" stroke="#666666" points="1003.23,-134.25 918.98,-134.25 918.98,-113.5 1003.23,-113.5 1003.23,-134.25"/>
<text xml:space="preserve" text-anchor="middle" x="961.1" y="-120.75" font-family="Helvetica,sans-Serif" font-size="10.00">cmd_handle.h</text>
</a>
</g>
</g>
<!-- Node8&#45;&gt;Node14 -->
<g id="edge16_Node000008_Node000014" class="edge">
<title>Node8&#45;&gt;Node14</title>
<g id="a_edge16_Node000008_Node000014"><a xlink:title=" ">
<path fill="none" stroke="#63b8ff" d="M737.53,-171.95C781.83,-162.62 856.99,-146.8 907.8,-136.1"/>
<polygon fill="#63b8ff" stroke="#63b8ff" points="908.35,-139.56 917.41,-134.08 906.91,-132.71 908.35,-139.56"/>
</a>
</g>
</g>
<!-- Node18 -->
<g id="Node000018" class="node">
<title>Node18</title>
<g id="a_Node000018"><a xlink:href="step__shared_8h.html" target="_top" xlink:title=" ">
<polygon fill="white" stroke="#666666" points="571.23,-134.25 486.98,-134.25 486.98,-113.5 571.23,-113.5 571.23,-134.25"/>
<text xml:space="preserve" text-anchor="middle" x="529.1" y="-120.75" font-family="Helvetica,sans-Serif" font-size="10.00">step_shared.h</text>
</a>
</g>
</g>
<!-- Node8&#45;&gt;Node18 -->
<g id="edge22_Node000008_Node000018" class="edge">
<title>Node8&#45;&gt;Node18</title>
<g id="a_edge22_Node000008_Node000018"><a xlink:title=" ">
<path fill="none" stroke="#63b8ff" d="M670.35,-169.84C642.56,-160.99 601.4,-147.89 570.68,-138.11"/>
<polygon fill="#63b8ff" stroke="#63b8ff" points="571.91,-134.83 561.32,-135.13 569.79,-141.5 571.91,-134.83"/>
</a>
</g>
</g>
<!-- Node14&#45;&gt;Node3 -->
<g id="edge20_Node000014_Node000003" class="edge">
<title>Node14&#45;&gt;Node3</title>
<g id="a_edge20_Node000014_Node000003"><a xlink:title=" ">
<path fill="none" stroke="#63b8ff" d="M978.85,-113.03C999.84,-100.12 1030.07,-76.76 1014.1,-56.75 996.24,-34.36 921.6,-22.16 869,-16.2"/>
<polygon fill="#63b8ff" stroke="#63b8ff" points="869.63,-12.75 859.32,-15.15 868.88,-19.71 869.63,-12.75"/>
</a>
</g>
</g>
<!-- Node14&#45;&gt;Node9 -->
<g id="edge18_Node000014_Node000009" class="edge">
<title>Node14&#45;&gt;Node9</title>
<g id="a_edge18_Node000014_Node000009"><a xlink:title=" ">
<path fill="none" stroke="#63b8ff" d="M1003.6,-113.34C1046.69,-103.67 1113.2,-88.75 1157.9,-78.72"/>
<polygon fill="#63b8ff" stroke="#63b8ff" points="1158.57,-82.15 1167.57,-76.55 1157.04,-75.32 1158.57,-82.15"/>
</a>
</g>
</g>
<!-- Node15 -->
<g id="Node000015" class="node">
<title>Node15</title>
<g id="a_Node000015"><a xlink:title=" ">
<polygon fill="#e0e0e0" stroke="#999999" points="895.48,-77.5 842.73,-77.5 842.73,-56.75 895.48,-56.75 895.48,-77.5"/>
<text xml:space="preserve" text-anchor="middle" x="869.1" y="-64" font-family="Helvetica,sans-Serif" font-size="10.00">stdint.h</text>
</a>
</g>
</g>
<!-- Node14&#45;&gt;Node15 -->
<g id="edge17_Node000014_Node000015" class="edge">
<title>Node14&#45;&gt;Node15</title>
<g id="a_edge17_Node000014_Node000015"><a xlink:title=" ">
<path fill="none" stroke="#63b8ff" d="M944.66,-113.09C930.92,-104.91 911.08,-93.11 895.18,-83.65"/>
<polygon fill="#63b8ff" stroke="#63b8ff" points="897.09,-80.71 886.71,-78.6 893.51,-86.72 897.09,-80.71"/>
</a>
</g>
</g>
<!-- Node16 -->
<g id="Node000016" class="node">
<title>Node16</title>
<g id="a_Node000016"><a xlink:title=" ">
<polygon fill="#e0e0e0" stroke="#999999" points="1004.6,-77.5 913.6,-77.5 913.6,-56.75 1004.6,-56.75 1004.6,-77.5"/>
<text xml:space="preserve" text-anchor="middle" x="959.1" y="-64" font-family="Helvetica,sans-Serif" font-size="10.00">event_groups.h</text>
</a>
</g>
</g>
<!-- Node14&#45;&gt;Node16 -->
<g id="edge19_Node000014_Node000016" class="edge">
<title>Node14&#45;&gt;Node16</title>
<g id="a_edge19_Node000014_Node000016"><a xlink:title=" ">
<path fill="none" stroke="#63b8ff" d="M960.75,-113.09C960.5,-106.47 960.17,-97.47 959.88,-89.27"/>
<polygon fill="#63b8ff" stroke="#63b8ff" points="963.38,-89.21 959.51,-79.34 956.38,-89.46 963.38,-89.21"/>
</a>
</g>
</g>
<!-- Node14&#45;&gt;Node17 -->
<g id="edge21_Node000014_Node000017" class="edge">
<title>Node14&#45;&gt;Node17</title>
<g id="a_edge21_Node000014_Node000017"><a xlink:title=" ">
<path fill="none" stroke="#63b8ff" d="M983.63,-113.09C1003.34,-104.52 1032.21,-91.98 1054.45,-82.31"/>
<polygon fill="#63b8ff" stroke="#63b8ff" points="1055.61,-85.63 1063.38,-78.43 1052.82,-79.21 1055.61,-85.63"/>
</a>
</g>
</g>
<!-- Node18&#45;&gt;Node3 -->
<g id="edge25_Node000018_Node000003" class="edge">
<title>Node18&#45;&gt;Node3</title>
<g id="a_edge25_Node000018_Node000003"><a xlink:title=" ">
<path fill="none" stroke="#63b8ff" d="M543.5,-113.04C564.83,-98.85 606.5,-72.59 645.1,-56.75 682.68,-41.33 727.08,-29.68 761.09,-22.06"/>
<polygon fill="#63b8ff" stroke="#63b8ff" points="761.7,-25.51 770.72,-19.95 760.2,-18.67 761.7,-25.51"/>
</a>
</g>
</g>
<!-- Node18&#45;&gt;Node5 -->
<g id="edge23_Node000018_Node000005" class="edge">
<title>Node18&#45;&gt;Node5</title>
<g id="a_edge23_Node000018_Node000005"><a xlink:title=" ">
<path fill="none" stroke="#63b8ff" d="M486.51,-115.38C434.6,-106.24 346.25,-90.68 285.17,-79.93"/>
<polygon fill="#63b8ff" stroke="#63b8ff" points="286.04,-76.53 275.59,-78.24 284.83,-83.43 286.04,-76.53"/>
</a>
</g>
</g>
<!-- Node18&#45;&gt;Node11 -->
<g id="edge26_Node000018_Node000011" class="edge">
<title>Node18&#45;&gt;Node11</title>
<g id="a_edge26_Node000018_Node000011"><a xlink:title=" ">
<path fill="none" stroke="#63b8ff" d="M495.67,-113.09C464.05,-103.83 416.54,-89.92 382.75,-80.02"/>
<polygon fill="#63b8ff" stroke="#63b8ff" points="383.89,-76.71 373.31,-77.26 381.92,-83.43 383.89,-76.71"/>
</a>
</g>
</g>
<!-- Node18&#45;&gt;Node12 -->
<g id="edge27_Node000018_Node000012" class="edge">
<title>Node18&#45;&gt;Node12</title>
<g id="a_edge27_Node000018_Node000012"><a xlink:title=" ">
<path fill="none" stroke="#63b8ff" d="M509.79,-113.09C493.28,-104.72 469.27,-92.54 450.4,-82.97"/>
<polygon fill="#63b8ff" stroke="#63b8ff" points="452.1,-79.91 441.59,-78.51 448.93,-86.16 452.1,-79.91"/>
</a>
</g>
</g>
<!-- Node18&#45;&gt;Node13 -->
<g id="edge28_Node000018_Node000013" class="edge">
<title>Node18&#45;&gt;Node13</title>
<g id="a_edge28_Node000018_Node000013"><a xlink:title=" ">
<path fill="none" stroke="#63b8ff" d="M562.89,-113.09C594.47,-103.94 641.73,-90.25 675.8,-80.38"/>
<polygon fill="#63b8ff" stroke="#63b8ff" points="676.72,-83.76 685.35,-77.61 674.77,-77.03 676.72,-83.76"/>
</a>
</g>
</g>
<!-- Node19 -->
<g id="Node000019" class="node">
<title>Node19</title>
<g id="a_Node000019"><a xlink:title=" ">
<polygon fill="#e0e0e0" stroke="#999999" points="593.35,-77.5 470.85,-77.5 470.85,-56.75 593.35,-56.75 593.35,-77.5"/>
<text xml:space="preserve" text-anchor="middle" x="532.1" y="-64" font-family="Helvetica,sans-Serif" font-size="10.00">fsl_device_registers.h</text>
</a>
</g>
</g>
<!-- Node18&#45;&gt;Node19 -->
<g id="edge24_Node000018_Node000019" class="edge">
<title>Node18&#45;&gt;Node19</title>
<g id="a_edge24_Node000018_Node000019"><a xlink:title=" ">
<path fill="none" stroke="#63b8ff" d="M529.64,-113.09C530,-106.47 530.49,-97.47 530.94,-89.27"/>
<polygon fill="#63b8ff" stroke="#63b8ff" points="534.44,-89.52 531.49,-79.34 527.45,-89.13 534.44,-89.52"/>
</a>
</g>
</g>
<!-- Node20&#45;&gt;Node3 -->
<g id="edge32_Node000020_Node000003" class="edge">
<title>Node20&#45;&gt;Node3</title>
<g id="a_edge32_Node000020_Node000003"><a xlink:title=" ">
<path fill="none" stroke="#63b8ff" d="M355.37,-178.82C411.29,-176.31 506.13,-167.03 580.1,-134.25 630.87,-111.75 629.22,-83.1 678.1,-56.75 704.44,-42.55 736.03,-31.72 762.23,-24.21"/>
<polygon fill="#63b8ff" stroke="#63b8ff" points="762.94,-27.65 771.64,-21.6 761.06,-20.9 762.94,-27.65"/>
</a>
</g>
</g>
<!-- Node20&#45;&gt;Node6 -->
<g id="edge34_Node000020_Node000006" class="edge">
<title>Node20&#45;&gt;Node6</title>
<g id="a_edge34_Node000020_Node000006"><a xlink:title=" ">
<path fill="none" stroke="#63b8ff" d="M260.87,-179.31C192.04,-176 66.07,-158.47 8.1,-77.5 -32.55,-20.71 91.82,-11.3 166.34,-10.57"/>
<polygon fill="#63b8ff" stroke="#63b8ff" points="166.35,-14.07 176.33,-10.53 166.32,-7.07 166.35,-14.07"/>
</a>
</g>
</g>
<!-- Node20&#45;&gt;Node14 -->
<g id="edge33_Node000020_Node000014" class="edge">
<title>Node20&#45;&gt;Node14</title>
<g id="a_edge33_Node000020_Node000014"><a xlink:title=" ">
<path fill="none" stroke="#63b8ff" d="M355.59,-175.64C474.13,-165.7 782.45,-139.85 907.37,-129.38"/>
<polygon fill="#63b8ff" stroke="#63b8ff" points="907.34,-132.9 917.01,-128.57 906.76,-125.92 907.34,-132.9"/>
</a>
</g>
</g>
<!-- Node21 -->
<g id="Node000021" class="node">
<title>Node21</title>
<g id="a_Node000021"><a xlink:href="tmc2209__shared_8h.html" target="_top" xlink:title=" ">
<polygon fill="white" stroke="#666666" points="317.1,-134.25 211.1,-134.25 211.1,-113.5 317.1,-113.5 317.1,-134.25"/>
<text xml:space="preserve" text-anchor="middle" x="264.1" y="-120.75" font-family="Helvetica,sans-Serif" font-size="10.00">tmc2209_shared.h</text>
</a>
</g>
</g>
<!-- Node20&#45;&gt;Node21 -->
<g id="edge30_Node000020_Node000021" class="edge">
<title>Node20&#45;&gt;Node21</title>
<g id="a_edge30_Node000020_Node000021"><a xlink:title=" ">
<path fill="none" stroke="#63b8ff" d="M300.24,-169.84C294.36,-162.52 286.14,-152.29 279.02,-143.44"/>
<polygon fill="#63b8ff" stroke="#63b8ff" points="281.84,-141.36 272.85,-135.76 276.39,-145.75 281.84,-141.36"/>
</a>
</g>
</g>
<!-- Node22 -->
<g id="Node000022" class="node">
<title>Node22</title>
<g id="a_Node000022"><a xlink:title=" ">
<polygon fill="#e0e0e0" stroke="#999999" points="122.73,-77.5 17.48,-77.5 17.48,-56.75 122.73,-56.75 122.73,-77.5"/>
<text xml:space="preserve" text-anchor="middle" x="70.1" y="-64" font-family="Helvetica,sans-Serif" font-size="10.00">fsl_uart_freertos.h</text>
</a>
</g>
</g>
<!-- Node21&#45;&gt;Node22 -->
<g id="edge31_Node000021_Node000022" class="edge">
<title>Node21&#45;&gt;Node22</title>
<g id="a_edge31_Node000021_Node000022"><a xlink:title=" ">
<path fill="none" stroke="#63b8ff" d="M229.42,-113.09C197.65,-104.12 150.43,-90.79 115.64,-80.98"/>
<polygon fill="#63b8ff" stroke="#63b8ff" points="116.84,-77.68 106.27,-78.33 114.94,-84.42 116.84,-77.68"/>
</a>
</g>
</g>
<!-- Node23&#45;&gt;Node4 -->
<g id="edge39_Node000023_Node000004" class="edge">
<title>Node23&#45;&gt;Node4</title>
<g id="a_edge39_Node000023_Node000004"><a xlink:title=" ">
<path fill="none" stroke="#63b8ff" d="M722.05,-283.34C706.68,-275.01 684.36,-262.91 666.74,-253.36"/>
<polygon fill="#63b8ff" stroke="#63b8ff" points="668.79,-250.49 658.33,-248.8 665.46,-256.64 668.79,-250.49"/>
</a>
</g>
</g>
<!-- Node25&#45;&gt;Node6 -->
<g id="edge45_Node000025_Node000006" class="edge">
<title>Node25&#45;&gt;Node6</title>
<g id="a_edge45_Node000025_Node000006"><a xlink:title=" ">
<path fill="none" stroke="#63b8ff" d="M1318.06,-113.45C1306.07,-98.26 1280.05,-68.82 1250.1,-56.75 1204.29,-38.28 472.69,-17.99 269.87,-12.69"/>
<polygon fill="#63b8ff" stroke="#63b8ff" points="269.99,-9.2 259.91,-12.44 269.81,-16.19 269.99,-9.2"/>
</a>
</g>
</g>
<!-- Node25&#45;&gt;Node9 -->
<g id="edge43_Node000025_Node000009" class="edge">
<title>Node25&#45;&gt;Node9</title>
<g id="a_edge43_Node000025_Node000009"><a xlink:title=" ">
<path fill="none" stroke="#63b8ff" d="M1306.62,-114.44C1288.08,-105.99 1259.19,-92.8 1236.96,-82.66"/>
<polygon fill="#63b8ff" stroke="#63b8ff" points="1238.58,-79.55 1228.03,-78.59 1235.68,-85.92 1238.58,-79.55"/>
</a>
</g>
</g>
<!-- Node25&#45;&gt;Node24 -->
<g id="edge44_Node000025_Node000024" class="edge">
<title>Node25&#45;&gt;Node24</title>
<g id="a_edge44_Node000025_Node000024"><a xlink:title=" ">
<path fill="none" stroke="#63b8ff" d="M1341.91,-113.09C1356.08,-104.83 1376.6,-92.88 1392.92,-83.38"/>
<polygon fill="#63b8ff" stroke="#63b8ff" points="1394.26,-86.65 1401.14,-78.59 1390.73,-80.6 1394.26,-86.65"/>
</a>
</g>
</g>
<!-- Node26&#45;&gt;Node3 -->
<g id="edge49_Node000026_Node000003" class="edge">
<title>Node26&#45;&gt;Node3</title>
<g id="a_edge49_Node000026_Node000003"><a xlink:title=" ">
<path fill="none" stroke="#63b8ff" d="M1392.08,-113.12C1379.01,-98 1351.5,-69.36 1321.1,-56.75 1240.55,-23.34 982.51,-14.47 869.26,-12.16"/>
<polygon fill="#63b8ff" stroke="#63b8ff" points="869.37,-8.67 859.31,-11.97 869.24,-15.66 869.37,-8.67"/>
</a>
</g>
</g>
<!-- Node26&#45;&gt;Node9 -->
<g id="edge47_Node000026_Node000009" class="edge">
<title>Node26&#45;&gt;Node9</title>
<g id="a_edge47_Node000026_Node000009"><a xlink:title=" ">
<path fill="none" stroke="#63b8ff" d="M1365.24,-113.09C1333.31,-104.12 1285.84,-90.79 1250.87,-80.98"/>
<polygon fill="#63b8ff" stroke="#63b8ff" points="1252.02,-77.66 1241.45,-78.33 1250.13,-84.4 1252.02,-77.66"/>
</a>
</g>
</g>
<!-- Node26&#45;&gt;Node24 -->
<g id="edge48_Node000026_Node000024" class="edge">
<title>Node26&#45;&gt;Node24</title>
<g id="a_edge48_Node000026_Node000024"><a xlink:title=" ">
<path fill="none" stroke="#63b8ff" d="M1403.5,-113.09C1405.85,-106.31 1409.07,-97.05 1411.97,-88.69"/>
<polygon fill="#63b8ff" stroke="#63b8ff" points="1415.27,-89.85 1415.24,-79.26 1408.65,-87.56 1415.27,-89.85"/>
</a>
</g>
</g>
<!-- Node27&#45;&gt;Node3 -->
<g id="edge52_Node000027_Node000003" class="edge">
<title>Node27&#45;&gt;Node3</title>
<g id="a_edge52_Node000027_Node000003"><a xlink:title=" ">
<path fill="none" stroke="#63b8ff" d="M1269.44,-113.48C1269.39,-98.85 1266.95,-70.87 1250.1,-56.75 1221.44,-32.73 979.23,-18.81 869.16,-13.67"/>
<polygon fill="#63b8ff" stroke="#63b8ff" points="869.64,-10.18 859.49,-13.22 869.32,-17.18 869.64,-10.18"/>
</a>
</g>
</g>
<!-- Node27&#45;&gt;Node9 -->
<g id="edge51_Node000027_Node000009" class="edge">
<title>Node27&#45;&gt;Node9</title>
<g id="a_edge51_Node000027_Node000009"><a xlink:title=" ">
<path fill="none" stroke="#63b8ff" d="M1257.66,-113.09C1248.65,-105.38 1235.87,-94.45 1225.17,-85.29"/>
<polygon fill="#63b8ff" stroke="#63b8ff" points="1227.47,-82.65 1217.6,-78.81 1222.92,-87.97 1227.47,-82.65"/>
</a>
</g>
</g>
<!-- Node28&#45;&gt;Node7 -->
<g id="edge60_Node000028_Node000007" class="edge">
<title>Node28&#45;&gt;Node7</title>
<g id="a_edge60_Node000028_Node000007"><a xlink:title=" ">
<path fill="none" stroke="#63b8ff" d="M1116.59,-340.1C1060.22,-311.88 896.91,-230.1 829.62,-196.4"/>
<polygon fill="#63b8ff" stroke="#63b8ff" points="831.54,-193.45 821.03,-192.1 828.4,-199.71 831.54,-193.45"/>
</a>
</g>
</g>
<!-- Node28&#45;&gt;Node9 -->
<g id="edge59_Node000028_Node000009" class="edge">
<title>Node28&#45;&gt;Node9</title>
<g id="a_edge59_Node000028_Node000009"><a xlink:title=" ">
<path fill="none" stroke="#63b8ff" d="M1153.05,-340.02C1165.8,-331.88 1182.92,-319.29 1194.1,-304.5 1213.25,-279.18 1221.1,-270.12 1221.1,-238.38 1221.1,-238.38 1221.1,-238.38 1221.1,-179.62 1221.1,-147.76 1214.62,-111.29 1209.91,-88.99"/>
<polygon fill="#63b8ff" stroke="#63b8ff" points="1213.36,-88.39 1207.79,-79.38 1206.53,-89.9 1213.36,-88.39"/>
</a>
</g>
</g>
<!-- Node29 -->
<g id="Node000029" class="node">
<title>Node29</title>
<g id="a_Node000029"><a xlink:href="motor__internal_8h.html" target="_top" xlink:title=" ">
<polygon fill="white" stroke="#666666" points="1184.6,-304.5 1087.6,-304.5 1087.6,-283.75 1184.6,-283.75 1184.6,-304.5"/>
<text xml:space="preserve" text-anchor="middle" x="1136.1" y="-291" font-family="Helvetica,sans-Serif" font-size="10.00">motor_internal.h</text>
</a>
</g>
</g>
<!-- Node28&#45;&gt;Node29 -->
<g id="edge54_Node000028_Node000029" class="edge">
<title>Node28&#45;&gt;Node29</title>
<g id="a_edge54_Node000028_Node000029"><a xlink:title=" ">
<path fill="none" stroke="#63b8ff" d="M1136.1,-340.09C1136.1,-333.47 1136.1,-324.47 1136.1,-316.27"/>
<polygon fill="#63b8ff" stroke="#63b8ff" points="1139.6,-316.34 1136.1,-306.34 1132.6,-316.34 1139.6,-316.34"/>
</a>
</g>
</g>
<!-- Node29&#45;&gt;Node4 -->
<g id="edge55_Node000029_Node000004" class="edge">
<title>Node29&#45;&gt;Node4</title>
<g id="a_edge55_Node000029_Node000004"><a xlink:title=" ">
<path fill="none" stroke="#63b8ff" d="M1087.54,-287.78C993.54,-277.42 787.48,-254.72 690.94,-244.09"/>
<polygon fill="#63b8ff" stroke="#63b8ff" points="691.55,-240.63 681.23,-243.02 690.79,-247.59 691.55,-240.63"/>
</a>
</g>
</g>
<!-- Node29&#45;&gt;Node9 -->
<g id="edge56_Node000029_Node000009" class="edge">
<title>Node29&#45;&gt;Node9</title>
<g id="a_edge56_Node000029_Node000009"><a xlink:title=" ">
<path fill="none" stroke="#63b8ff" d="M1143.32,-283.54C1149.67,-274.68 1158.7,-260.94 1164.1,-247.75 1186.57,-192.89 1197.99,-123.32 1202.59,-89.09"/>
<polygon fill="#63b8ff" stroke="#63b8ff" points="1206.04,-89.67 1203.83,-79.31 1199.1,-88.79 1206.04,-89.67"/>
</a>
</g>
</g>
<!-- Node29&#45;&gt;Node14 -->
<g id="edge58_Node000029_Node000014" class="edge">
<title>Node29&#45;&gt;Node14</title>
<g id="a_edge58_Node000029_Node000014"><a xlink:title=" ">
<path fill="none" stroke="#63b8ff" d="M1125.94,-283.35C1097.3,-255.82 1015.69,-177.36 979.16,-142.24"/>
<polygon fill="#63b8ff" stroke="#63b8ff" points="982.02,-140.13 972.39,-135.72 977.17,-145.18 982.02,-140.13"/>
</a>
</g>
</g>
<!-- Node30 -->
<g id="Node000030" class="node">
<title>Node30</title>
<g id="a_Node000030"><a xlink:title=" ">
<polygon fill="#e0e0e0" stroke="#999999" points="1154.6,-247.75 1099.6,-247.75 1099.6,-227 1154.6,-227 1154.6,-247.75"/>
<text xml:space="preserve" text-anchor="middle" x="1127.1" y="-234.25" font-family="Helvetica,sans-Serif" font-size="10.00">queue.h</text>
</a>
</g>
</g>
<!-- Node29&#45;&gt;Node30 -->
<g id="edge57_Node000029_Node000030" class="edge">
<title>Node29&#45;&gt;Node30</title>
<g id="a_edge57_Node000029_Node000030"><a xlink:title=" ">
<path fill="none" stroke="#63b8ff" d="M1134.49,-283.34C1133.39,-276.64 1131.89,-267.51 1130.53,-259.23"/>
<polygon fill="#63b8ff" stroke="#63b8ff" points="1134.02,-258.87 1128.94,-249.57 1127.11,-260.01 1134.02,-258.87"/>
</a>
</g>
</g>
<!-- Node33&#45;&gt;Node3 -->
<g id="edge68_Node000033_Node000003" class="edge">
<title>Node33&#45;&gt;Node3</title>
<g id="a_edge68_Node000033_Node000003"><a xlink:title=" ">
<path fill="none" stroke="#63b8ff" d="M993.04,-169.83C1053.36,-151.27 1166.5,-108.19 1122.1,-56.75 1090.06,-19.62 948.34,-12.35 869.14,-11.25"/>
<polygon fill="#63b8ff" stroke="#63b8ff" points="869.48,-7.76 859.44,-11.15 869.4,-14.76 869.48,-7.76"/>
</a>
</g>
</g>
<!-- Node33&#45;&gt;Node9 -->
<g id="edge66_Node000033_Node000009" class="edge">
<title>Node33&#45;&gt;Node9</title>
<g id="a_edge66_Node000033_Node000009"><a xlink:title=" ">
<path fill="none" stroke="#63b8ff" d="M995.23,-173.62C1029.3,-167.13 1080.49,-154.84 1121.1,-134.25 1146.52,-121.36 1171.67,-100.14 1187.73,-85.22"/>
<polygon fill="#63b8ff" stroke="#63b8ff" points="1189.73,-88.15 1194.56,-78.72 1184.9,-83.08 1189.73,-88.15"/>
</a>
</g>
</g>
<!-- Node33&#45;&gt;Node14 -->
<g id="edge69_Node000033_Node000014" class="edge">
<title>Node33&#45;&gt;Node14</title>
<g id="a_edge69_Node000033_Node000014"><a xlink:title=" ">
<path fill="none" stroke="#63b8ff" d="M958.64,-169.84C959,-163.22 959.49,-154.22 959.94,-146.02"/>
<polygon fill="#63b8ff" stroke="#63b8ff" points="963.44,-146.27 960.49,-136.09 956.45,-145.88 963.44,-146.27"/>
</a>
</g>
</g>
<!-- Node33&#45;&gt;Node15 -->
<g id="edge65_Node000033_Node000015" class="edge">
<title>Node33&#45;&gt;Node15</title>
<g id="a_edge65_Node000033_Node000015"><a xlink:title=" ">
<path fill="none" stroke="#63b8ff" d="M943.93,-170.08C932.2,-161.66 915.64,-148.54 904.1,-134.25 892.75,-120.2 883.41,-101.9 877.24,-88.12"/>
<polygon fill="#63b8ff" stroke="#63b8ff" points="880.57,-87 873.42,-79.18 874.13,-89.75 880.57,-87"/>
</a>
</g>
</g>
<!-- Node33&#45;&gt;Node16 -->
<g id="edge67_Node000033_Node000016" class="edge">
<title>Node33&#45;&gt;Node16</title>
<g id="a_edge67_Node000033_Node000016"><a xlink:title=" ">
<path fill="none" stroke="#63b8ff" d="M942.53,-169.95C925.07,-157.77 900.39,-135.73 910.1,-113.5 915.12,-102.03 924.62,-92.16 933.93,-84.58"/>
<polygon fill="#63b8ff" stroke="#63b8ff" points="935.88,-87.49 941.8,-78.7 931.69,-81.89 935.88,-87.49"/>
</a>
</g>
</g>
</g>
</svg>
