<?xml version="1.0" encoding="UTF-8" standalone="no"?>
<!DOCTYPE svg PUBLIC "-//W3C//DTD SVG 1.1//EN"
 "http://www.w3.org/Graphics/SVG/1.1/DTD/svg11.dtd">
<!-- Generated by graphviz version 14.1.4 (0)
 -->
<!-- Title: source/motion/motor/motor_sync.c Pages: 1 -->
<!--zoomable 439 -->

<svg id="main" version="1.1" xmlns="http://www.w3.org/2000/svg" xmlns:xlink="http://www.w3.org/1999/xlink" xml:space="preserve" onload="init(evt)">

<style type="text/css"><![CDATA[
.node, .edge {opacity: 0.7;}
.node.selected, .edge.selected {opacity: 1;}
.edge:hover path { stroke: red; }
.edge:hover polygon { stroke: red; fill: red; }
]]></style>

<defs>
  <circle id="rim" cx="0" cy="0" r="7"/>
  <circle id="rim2" cx="0" cy="0" r="3.5"/>
  <g id="zoomPlus">
    <use xlink:href="#rim" fill="#404040"><set attributeName="fill" to="#808080" begin="zoomplus.mouseover" end="zoomplus.mouseout"/></use>
    <path d="M-4,0h8M0,-4v8" fill="none" stroke="white" stroke-width="1.5" pointer-events="none"/>
  </g>
  <g id="zoomMin">
    <use xlink:href="#rim" fill="#404040"><set attributeName="fill" to="#808080" begin="zoomminus.mouseover" end="zoomminus.mouseout"/></use>
    <path d="M-4,0h8" fill="none" stroke="white" stroke-width="1.5" pointer-events="none"/>
  </g>
  <g id="arrowUp" transform="translate(30 24)">
    <use xlink:href="#rim"/>
    <path pointer-events="none" fill="none" stroke="white" stroke-width="1.5" d="M0,-3.0v7 M-2.5,-0.5L0,-3.0L2.5,-0.5"/>
  </g>
  <g id="arrowRight" transform="rotate(90) translate(36 -43)">
    <use xlink:href="#rim"/>
    <path pointer-events="none" fill="none" stroke="white" stroke-width="1.5" d="M0,-3.0v7 M-2.5,-0.5L0,-3.0L2.5,-0.5"/>
  </g>
  <g id="arrowDown" transform="rotate(180) translate(-30 -48)">
    <use xlink:href="#rim"/>
    <path pointer-events="none" fill="none" stroke="white" stroke-width="1.5" d="M0,-3.0v7 M-2.5,-0.5L0,-3.0L2.5,-0.5"/>
  </g>
  <g id="arrowLeft" transform="rotate(270) translate(-36 17)">
    <use xlink:href="#rim"/>
    <path pointer-events="none" fill="none" stroke="white" stroke-width="1.5" d="M0,-3.0v7 M-2.5,-0.5L0,-3.0L2.5,-0.5"/>
  </g>
  <g id="resetDef">
    <use xlink:href="#rim2" fill="#404040"><set attributeName="fill" to="#808080" begin="reset.mouseover" end="reset.mouseout"/></use>
  </g>
</defs>
<script type="application/ecmascript">
var viewWidth = 1251;
var viewHeight = 439;
var sectionId = 'dynsection-0';
</script>
<script type="application/ecmascript" xlink:href="svg.min.js"/>
<svg id="graph" class="graph">
<g id="viewport">
<title>source/motion/motor/motor_sync.c</title>
<!-- Node1 -->
<g id="Node000001" class="node">
<title>Node1</title>
<g id="a_Node000001"><a xlink:title=" ">
<polygon fill="#999999" stroke="#666666" points="942.88,-430.75 824.88,-430.75 824.88,-397.25 942.88,-397.25 942.88,-430.75"/>
<text xml:space="preserve" text-anchor="start" x="832.88" y="-417.25" font-family="Helvetica,sans-Serif" font-size="10.00">source/motion/motor</text>
<text xml:space="preserve" text-anchor="middle" x="883.88" y="-404.5" font-family="Helvetica,sans-Serif" font-size="10.00">/motor_sync.c</text>
</a>
</g>
</g>
<!-- Node2 -->
<g id="Node000002" class="node">
<title>Node2</title>
<g id="a_Node000002"><a xlink:href="motor__sync_8h.html" target="_top" xlink:title=" ">
<polygon fill="white" stroke="#666666" points="959.88,-361.25 877.88,-361.25 877.88,-340.5 959.88,-340.5 959.88,-361.25"/>
<text xml:space="preserve" text-anchor="middle" x="918.88" y="-347.75" font-family="Helvetica,sans-Serif" font-size="10.00">motor_sync.h</text>
</a>
</g>
</g>
<!-- Node1&#45;&gt;Node2 -->
<g id="edge1_Node000001_Node000002" class="edge">
<title>Node1&#45;&gt;Node2</title>
<g id="a_edge1_Node000001_Node000002"><a xlink:title=" ">
<path fill="none" stroke="#63b8ff" d="M893.07,-396.94C897.52,-389.17 902.9,-379.77 907.6,-371.57"/>
<polygon fill="#63b8ff" stroke="#63b8ff" points="910.56,-373.45 912.49,-363.03 904.48,-369.97 910.56,-373.45"/>
</a>
</g>
</g>
<!-- Node8 -->
<g id="Node000008" class="node">
<title>Node8</title>
<g id="a_Node000008"><a xlink:href="step__core_8h.html" target="_top" xlink:title=" ">
<polygon fill="white" stroke="#666666" points="456,-191 383.75,-191 383.75,-170.25 456,-170.25 456,-191"/>
<text xml:space="preserve" text-anchor="middle" x="419.88" y="-177.5" font-family="Helvetica,sans-Serif" font-size="10.00">step_core.h</text>
</a>
</g>
</g>
<!-- Node1&#45;&gt;Node8 -->
<g id="edge45_Node000001_Node000008" class="edge">
<title>Node1&#45;&gt;Node8</title>
<g id="a_edge45_Node000001_Node000008"><a xlink:title=" ">
<path fill="none" stroke="#63b8ff" d="M824.71,-402.39C737.7,-384.17 574.09,-339.67 467.88,-247.75 452.49,-234.43 439.28,-215.28 430.63,-201.01"/>
<polygon fill="#63b8ff" stroke="#63b8ff" points="433.76,-199.43 425.71,-192.54 427.7,-202.94 433.76,-199.43"/>
</a>
</g>
</g>
<!-- Node24 -->
<g id="Node000024" class="node">
<title>Node24</title>
<g id="a_Node000024"><a xlink:href="motor__convert_8h.html" target="_top" xlink:title=" ">
<polygon fill="white" stroke="#666666" points="681,-304.5 584.75,-304.5 584.75,-283.75 681,-283.75 681,-304.5"/>
<text xml:space="preserve" text-anchor="middle" x="632.88" y="-291" font-family="Helvetica,sans-Serif" font-size="10.00">motor_convert.h</text>
</a>
</g>
</g>
<!-- Node1&#45;&gt;Node24 -->
<g id="edge40_Node000001_Node000024" class="edge">
<title>Node1&#45;&gt;Node24</title>
<g id="a_edge40_Node000001_Node000024"><a xlink:title=" ">
<path fill="none" stroke="#63b8ff" d="M849.5,-396.86C800.42,-373.81 711.01,-331.82 663.87,-309.68"/>
<polygon fill="#63b8ff" stroke="#63b8ff" points="665.57,-306.61 655.03,-305.53 662.59,-312.95 665.57,-306.61"/>
</a>
</g>
</g>
<!-- Node25 -->
<g id="Node000025" class="node">
<title>Node25</title>
<g id="a_Node000025"><a xlink:href="log_8h.html" target="_top" xlink:title=" ">
<polygon fill="white" stroke="#666666" points="865.88,-134.25 825.88,-134.25 825.88,-113.5 865.88,-113.5 865.88,-134.25"/>
<text xml:space="preserve" text-anchor="middle" x="845.88" y="-120.75" font-family="Helvetica,sans-Serif" font-size="10.00">log.h</text>
</a>
</g>
</g>
<!-- Node1&#45;&gt;Node25 -->
<g id="edge42_Node000001_Node000025" class="edge">
<title>Node1&#45;&gt;Node25</title>
<g id="a_edge42_Node000001_Node000025"><a xlink:title=" ">
<path fill="none" stroke="#63b8ff" d="M875.25,-397.13C864.04,-374.96 845.88,-333.18 845.88,-295.12 845.88,-295.12 845.88,-295.12 845.88,-236.38 845.88,-204.98 845.88,-168.62 845.88,-146.18"/>
<polygon fill="#63b8ff" stroke="#63b8ff" points="849.38,-146.23 845.88,-136.23 842.38,-146.23 849.38,-146.23"/>
</a>
</g>
</g>
<!-- Node26 -->
<g id="Node000026" class="node">
<title>Node26</title>
<g id="a_Node000026"><a xlink:title=" ">
<polygon fill="#e0e0e0" stroke="#999999" points="1121.38,-361.25 1072.38,-361.25 1072.38,-340.5 1121.38,-340.5 1121.38,-361.25"/>
<text xml:space="preserve" text-anchor="middle" x="1096.88" y="-347.75" font-family="Helvetica,sans-Serif" font-size="10.00">stdio.h</text>
</a>
</g>
</g>
<!-- Node1&#45;&gt;Node26 -->
<g id="edge46_Node000001_Node000026" class="edge">
<title>Node1&#45;&gt;Node26</title>
<g id="a_edge46_Node000001_Node000026"><a xlink:title=" ">
<path fill="none" stroke="#63b8ff" d="M940.4,-396.78C978.65,-385.8 1028.04,-371.63 1060.99,-362.17"/>
<polygon fill="#63b8ff" stroke="#63b8ff" points="1061.82,-365.58 1070.47,-359.45 1059.89,-358.85 1061.82,-365.58"/>
</a>
</g>
</g>
<!-- Node27 -->
<g id="Node000027" class="node">
<title>Node27</title>
<g id="a_Node000027"><a xlink:href="sync__wait_8h.html" target="_top" xlink:title=" ">
<polygon fill="white" stroke="#666666" points="1125.75,-191 1052,-191 1052,-170.25 1125.75,-170.25 1125.75,-191"/>
<text xml:space="preserve" text-anchor="middle" x="1088.88" y="-177.5" font-family="Helvetica,sans-Serif" font-size="10.00">sync_wait.h</text>
</a>
</g>
</g>
<!-- Node1&#45;&gt;Node27 -->
<g id="edge47_Node000001_Node000027" class="edge">
<title>Node1&#45;&gt;Node27</title>
<g id="a_edge47_Node000001_Node000027"><a xlink:title=" ">
<path fill="none" stroke="#63b8ff" d="M917.68,-396.85C934.3,-387.87 953.91,-375.6 968.88,-361.25 1020.42,-311.83 1061.67,-236.57 1079.43,-201.23"/>
<polygon fill="#63b8ff" stroke="#63b8ff" points="1082.4,-203.12 1083.68,-192.61 1076.12,-200.03 1082.4,-203.12"/>
</a>
</g>
</g>
<!-- Node3 -->
<g id="Node000003" class="node">
<title>Node3</title>
<g id="a_Node000003"><a xlink:href="motor__internal_8h.html" target="_top" xlink:title=" ">
<polygon fill="white" stroke="#666666" points="971.38,-304.5 874.38,-304.5 874.38,-283.75 971.38,-283.75 971.38,-304.5"/>
<text xml:space="preserve" text-anchor="middle" x="922.88" y="-291" font-family="Helvetica,sans-Serif" font-size="10.00">motor_internal.h</text>
</a>
</g>
</g>
<!-- Node2&#45;&gt;Node3 -->
<g id="edge2_Node000002_Node000003" class="edge">
<title>Node2&#45;&gt;Node3</title>
<g id="a_edge2_Node000002_Node000003"><a xlink:title=" ">
<path fill="none" stroke="#63b8ff" d="M919.59,-340.09C920.07,-333.47 920.73,-324.47 921.33,-316.27"/>
<polygon fill="#63b8ff" stroke="#63b8ff" points="924.82,-316.57 922.06,-306.34 917.84,-316.06 924.82,-316.57"/>
</a>
</g>
</g>
<!-- Node4 -->
<g id="Node000004" class="node">
<title>Node4</title>
<g id="a_Node000004"><a xlink:href="motor_8h.html" target="_top" xlink:title=" ">
<polygon fill="white" stroke="#666666" points="530.62,-247.75 477.12,-247.75 477.12,-227 530.62,-227 530.62,-247.75"/>
<text xml:space="preserve" text-anchor="middle" x="503.88" y="-234.25" font-family="Helvetica,sans-Serif" font-size="10.00">motor.h</text>
</a>
</g>
</g>
<!-- Node3&#45;&gt;Node4 -->
<g id="edge3_Node000003_Node000004" class="edge">
<title>Node3&#45;&gt;Node4</title>
<g id="a_edge3_Node000003_Node000004"><a xlink:title=" ">
<path fill="none" stroke="#63b8ff" d="M873.99,-286.74C789.6,-275.71 618.31,-253.33 542.02,-243.36"/>
<polygon fill="#63b8ff" stroke="#63b8ff" points="542.91,-239.95 532.54,-242.12 542.01,-246.89 542.91,-239.95"/>
</a>
</g>
</g>
<!-- Node9 -->
<g id="Node000009" class="node">
<title>Node9</title>
<g id="a_Node000009"><a xlink:title=" ">
<polygon fill="#e0e0e0" stroke="#999999" points="935.62,-77.5 864.12,-77.5 864.12,-56.75 935.62,-56.75 935.62,-77.5"/>
<text xml:space="preserve" text-anchor="middle" x="899.88" y="-64" font-family="Helvetica,sans-Serif" font-size="10.00">FreeRTOS.h</text>
</a>
</g>
</g>
<!-- Node3&#45;&gt;Node9 -->
<g id="edge37_Node000003_Node000009" class="edge">
<title>Node3&#45;&gt;Node9</title>
<g id="a_edge37_Node000003_Node000009"><a xlink:title=" ">
<path fill="none" stroke="#63b8ff" d="M920.61,-283.44C918.55,-274.3 915.58,-260.16 913.88,-247.75 906.01,-190.6 902.21,-122.56 900.7,-88.99"/>
<polygon fill="#63b8ff" stroke="#63b8ff" points="904.22,-89.26 900.3,-79.42 897.22,-89.56 904.22,-89.26"/>
</a>
</g>
</g>
<!-- Node14 -->
<g id="Node000014" class="node">
<title>Node14</title>
<g id="a_Node000014"><a xlink:href="cmd__handle_8h.html" target="_top" xlink:title=" ">
<polygon fill="white" stroke="#666666" points="1048,-134.25 963.75,-134.25 963.75,-113.5 1048,-113.5 1048,-134.25"/>
<text xml:space="preserve" text-anchor="middle" x="1005.88" y="-120.75" font-family="Helvetica,sans-Serif" font-size="10.00">cmd_handle.h</text>
</a>
</g>
</g>
<!-- Node3&#45;&gt;Node14 -->
<g id="edge39_Node000003_Node000014" class="edge">
<title>Node3&#45;&gt;Node14</title>
<g id="a_edge39_Node000003_Node000014"><a xlink:title=" ">
<path fill="none" stroke="#63b8ff" d="M944.83,-283.28C959.17,-275.67 976.99,-263.74 986.88,-247.75 1006.3,-216.34 1008.24,-172.03 1007.4,-146.09"/>
<polygon fill="#63b8ff" stroke="#63b8ff" points="1010.9,-145.99 1006.88,-136.18 1003.91,-146.35 1010.9,-145.99"/>
</a>
</g>
</g>
<!-- Node23 -->
<g id="Node000023" class="node">
<title>Node23</title>
<g id="a_Node000023"><a xlink:title=" ">
<polygon fill="#e0e0e0" stroke="#999999" points="977.38,-247.75 922.38,-247.75 922.38,-227 977.38,-227 977.38,-247.75"/>
<text xml:space="preserve" text-anchor="middle" x="949.88" y="-234.25" font-family="Helvetica,sans-Serif" font-size="10.00">queue.h</text>
</a>
</g>
</g>
<!-- Node3&#45;&gt;Node23 -->
<g id="edge38_Node000003_Node000023" class="edge">
<title>Node3&#45;&gt;Node23</title>
<g id="a_edge38_Node000003_Node000023"><a xlink:title=" ">
<path fill="none" stroke="#63b8ff" d="M927.7,-283.34C931.12,-276.41 935.82,-266.87 940.02,-258.36"/>
<polygon fill="#63b8ff" stroke="#63b8ff" points="943.14,-259.95 944.42,-249.44 936.86,-256.86 943.14,-259.95"/>
</a>
</g>
</g>
<!-- Node5 -->
<g id="Node000005" class="node">
<title>Node5</title>
<g id="a_Node000005"><a xlink:href="pca9555a_8h.html" target="_top" xlink:title=" ">
<polygon fill="white" stroke="#666666" points="493.88,-77.5 339.88,-77.5 339.88,-56.75 493.88,-56.75 493.88,-77.5"/>
<text xml:space="preserve" text-anchor="middle" x="416.88" y="-64" font-family="Helvetica,sans-Serif" font-size="10.00">driver/pca9555a/pca9555a.h</text>
</a>
</g>
</g>
<!-- Node4&#45;&gt;Node5 -->
<g id="edge4_Node000004_Node000005" class="edge">
<title>Node4&#45;&gt;Node5</title>
<g id="a_edge4_Node000004_Node000005"><a xlink:title=" ">
<path fill="none" stroke="#63b8ff" d="M498.95,-226.85C485.14,-200.14 445.83,-124.12 427.07,-87.85"/>
<polygon fill="#63b8ff" stroke="#63b8ff" points="430.36,-86.59 422.66,-79.31 424.14,-89.8 430.36,-86.59"/>
</a>
</g>
</g>
<!-- Node4&#45;&gt;Node8 -->
<g id="edge7_Node000004_Node000008" class="edge">
<title>Node4&#45;&gt;Node8</title>
<g id="a_edge7_Node000004_Node000008"><a xlink:title=" ">
<path fill="none" stroke="#63b8ff" d="M488.86,-226.59C476.43,-218.49 458.55,-206.83 444.1,-197.42"/>
<polygon fill="#63b8ff" stroke="#63b8ff" points="446.32,-194.68 436.03,-192.15 442.5,-200.55 446.32,-194.68"/>
</a>
</g>
</g>
<!-- Node11 -->
<g id="Node000011" class="node">
<title>Node11</title>
<g id="a_Node000011"><a xlink:title=" ">
<polygon fill="#e0e0e0" stroke="#999999" points="570.25,-77.5 511.5,-77.5 511.5,-56.75 570.25,-56.75 570.25,-77.5"/>
<text xml:space="preserve" text-anchor="middle" x="540.88" y="-64" font-family="Helvetica,sans-Serif" font-size="10.00">fsl_ftm.h</text>
</a>
</g>
</g>
<!-- Node4&#45;&gt;Node11 -->
<g id="edge34_Node000004_Node000011" class="edge">
<title>Node4&#45;&gt;Node11</title>
<g id="a_edge34_Node000004_Node000011"><a xlink:title=" ">
<path fill="none" stroke="#63b8ff" d="M505.97,-226.85C511.79,-200.37 528.27,-125.43 536.33,-88.8"/>
<polygon fill="#63b8ff" stroke="#63b8ff" points="539.66,-89.96 538.39,-79.45 532.82,-88.46 539.66,-89.96"/>
</a>
</g>
</g>
<!-- Node12 -->
<g id="Node000012" class="node">
<title>Node12</title>
<g id="a_Node000012"><a xlink:title=" ">
<polygon fill="#e0e0e0" stroke="#999999" points="143.5,-77.5 80.25,-77.5 80.25,-56.75 143.5,-56.75 143.5,-77.5"/>
<text xml:space="preserve" text-anchor="middle" x="111.88" y="-64" font-family="Helvetica,sans-Serif" font-size="10.00">fsl_gpio.h</text>
</a>
</g>
</g>
<!-- Node4&#45;&gt;Node12 -->
<g id="edge35_Node000004_Node000012" class="edge">
<title>Node4&#45;&gt;Node12</title>
<g id="a_edge35_Node000004_Node000012"><a xlink:title=" ">
<path fill="none" stroke="#63b8ff" d="M476.64,-232.09C418.78,-222.11 280.79,-193.49 180.88,-134.25 159.57,-121.62 139.64,-101.23 126.74,-86.43"/>
<polygon fill="#63b8ff" stroke="#63b8ff" points="129.43,-84.19 120.3,-78.8 124.08,-88.7 129.43,-84.19"/>
</a>
</g>
</g>
<!-- Node13 -->
<g id="Node000013" class="node">
<title>Node13</title>
<g id="a_Node000013"><a xlink:title=" ">
<polygon fill="#e0e0e0" stroke="#999999" points="61.75,-77.5 0,-77.5 0,-56.75 61.75,-56.75 61.75,-77.5"/>
<text xml:space="preserve" text-anchor="middle" x="30.88" y="-64" font-family="Helvetica,sans-Serif" font-size="10.00">fsl_port.h</text>
</a>
</g>
</g>
<!-- Node4&#45;&gt;Node13 -->
<g id="edge36_Node000004_Node000013" class="edge">
<title>Node4&#45;&gt;Node13</title>
<g id="a_edge36_Node000004_Node000013"><a xlink:title=" ">
<path fill="none" stroke="#63b8ff" d="M476.77,-233.49C430.36,-228.12 333.06,-214.87 253.88,-191 192.73,-172.57 177.38,-165.83 121.88,-134.25 96.24,-119.67 69.18,-99.27 51.3,-85"/>
<polygon fill="#63b8ff" stroke="#63b8ff" points="53.53,-82.31 43.55,-78.73 49.12,-87.75 53.53,-82.31"/>
</a>
</g>
</g>
<!-- Node20 -->
<g id="Node000020" class="node">
<title>Node20</title>
<g id="a_Node000020"><a xlink:href="tmc2209__core_8h.html" target="_top" xlink:title=" ">
<polygon fill="white" stroke="#666666" points="763.88,-191 669.88,-191 669.88,-170.25 763.88,-170.25 763.88,-191"/>
<text xml:space="preserve" text-anchor="middle" x="716.88" y="-177.5" font-family="Helvetica,sans-Serif" font-size="10.00">tmc2209_core.h</text>
</a>
</g>
</g>
<!-- Node4&#45;&gt;Node20 -->
<g id="edge28_Node000004_Node000020" class="edge">
<title>Node4&#45;&gt;Node20</title>
<g id="a_edge28_Node000004_Node000020"><a xlink:title=" ">
<path fill="none" stroke="#63b8ff" d="M530.85,-229.44C565.17,-220.62 625.1,-205.22 667.65,-194.28"/>
<polygon fill="#63b8ff" stroke="#63b8ff" points="668.33,-197.72 677.15,-191.84 666.59,-190.94 668.33,-197.72"/>
</a>
</g>
</g>
<!-- Node6 -->
<g id="Node000006" class="node">
<title>Node6</title>
<g id="a_Node000006"><a xlink:title=" ">
<polygon fill="#e0e0e0" stroke="#999999" points="840.38,-20.75 755.38,-20.75 755.38,0 840.38,0 840.38,-20.75"/>
<text xml:space="preserve" text-anchor="middle" x="797.88" y="-7.25" font-family="Helvetica,sans-Serif" font-size="10.00">fsl_common.h</text>
</a>
</g>
</g>
<!-- Node5&#45;&gt;Node6 -->
<g id="edge5_Node000005_Node000006" class="edge">
<title>Node5&#45;&gt;Node6</title>
<g id="a_edge5_Node000005_Node000006"><a xlink:title=" ">
<path fill="none" stroke="#63b8ff" d="M485.43,-56.27C559.45,-45.64 675.86,-28.91 743.73,-19.16"/>
<polygon fill="#63b8ff" stroke="#63b8ff" points="744.11,-22.64 753.51,-17.75 743.11,-15.71 744.11,-22.64"/>
</a>
</g>
</g>
<!-- Node7 -->
<g id="Node000007" class="node">
<title>Node7</title>
<g id="a_Node000007"><a xlink:title=" ">
<polygon fill="#e0e0e0" stroke="#999999" points="566.75,-20.75 487,-20.75 487,0 566.75,0 566.75,-20.75"/>
<text xml:space="preserve" text-anchor="middle" x="526.88" y="-7.25" font-family="Helvetica,sans-Serif" font-size="10.00">peripherals.h</text>
</a>
</g>
</g>
<!-- Node5&#45;&gt;Node7 -->
<g id="edge6_Node000005_Node000007" class="edge">
<title>Node5&#45;&gt;Node7</title>
<g id="a_edge6_Node000005_Node000007"><a xlink:title=" ">
<path fill="none" stroke="#63b8ff" d="M436.54,-56.34C453.43,-47.93 478.04,-35.68 497.31,-26.09"/>
<polygon fill="#63b8ff" stroke="#63b8ff" points="498.63,-29.34 506.02,-21.75 495.51,-23.08 498.63,-29.34"/>
</a>
</g>
</g>
<!-- Node8&#45;&gt;Node5 -->
<g id="edge8_Node000008_Node000005" class="edge">
<title>Node8&#45;&gt;Node5</title>
<g id="a_edge8_Node000008_Node000005"><a xlink:title=" ">
<path fill="none" stroke="#63b8ff" d="M419.62,-170.12C419.14,-152.35 418.1,-113.72 417.45,-89.43"/>
<polygon fill="#63b8ff" stroke="#63b8ff" points="420.95,-89.34 417.18,-79.44 413.95,-89.53 420.95,-89.34"/>
</a>
</g>
</g>
<!-- Node8&#45;&gt;Node6 -->
<g id="edge11_Node000008_Node000006" class="edge">
<title>Node8&#45;&gt;Node6</title>
<g id="a_edge11_Node000008_Node000006"><a xlink:title=" ">
<path fill="none" stroke="#63b8ff" d="M436.21,-169.81C473.77,-147.51 569.66,-92.23 654.88,-56.75 685.87,-43.85 721.9,-32.43 750.04,-24.28"/>
<polygon fill="#63b8ff" stroke="#63b8ff" points="750.69,-27.74 759.35,-21.63 748.77,-21.01 750.69,-27.74"/>
</a>
</g>
</g>
<!-- Node8&#45;&gt;Node9 -->
<g id="edge9_Node000008_Node000009" class="edge">
<title>Node8&#45;&gt;Node9</title>
<g id="a_edge9_Node000008_Node000009"><a xlink:title=" ">
<path fill="none" stroke="#63b8ff" d="M453.48,-169.76C508.68,-153.63 616.28,-122.48 654.88,-113.5 723.13,-97.61 803.12,-83.66 852.65,-75.56"/>
<polygon fill="#63b8ff" stroke="#63b8ff" points="853.15,-79.02 862.46,-73.97 852.03,-72.11 853.15,-79.02"/>
</a>
</g>
</g>
<!-- Node10 -->
<g id="Node000010" class="node">
<title>Node10</title>
<g id="a_Node000010"><a xlink:title=" ">
<polygon fill="#e0e0e0" stroke="#999999" points="235.88,-134.25 189.88,-134.25 189.88,-113.5 235.88,-113.5 235.88,-134.25"/>
<text xml:space="preserve" text-anchor="middle" x="212.88" y="-120.75" font-family="Helvetica,sans-Serif" font-size="10.00">task.h</text>
</a>
</g>
</g>
<!-- Node8&#45;&gt;Node10 -->
<g id="edge10_Node000008_Node000010" class="edge">
<title>Node8&#45;&gt;Node10</title>
<g id="a_edge10_Node000008_Node000010"><a xlink:title=" ">
<path fill="none" stroke="#63b8ff" d="M383.34,-169.96C344.85,-159.78 284.69,-143.87 247.09,-133.92"/>
<polygon fill="#63b8ff" stroke="#63b8ff" points="248.22,-130.6 237.65,-131.43 246.43,-137.37 248.22,-130.6"/>
</a>
</g>
</g>
<!-- Node8&#45;&gt;Node11 -->
<g id="edge12_Node000008_Node000011" class="edge">
<title>Node8&#45;&gt;Node11</title>
<g id="a_edge12_Node000008_Node000011"><a xlink:title=" ">
<path fill="none" stroke="#63b8ff" d="M430.19,-170.12C450.54,-151.37 496.11,-109.38 521.98,-85.53"/>
<polygon fill="#63b8ff" stroke="#63b8ff" points="524.14,-88.3 529.13,-78.95 519.4,-83.15 524.14,-88.3"/>
</a>
</g>
</g>
<!-- Node8&#45;&gt;Node12 -->
<g id="edge13_Node000008_Node000012" class="edge">
<title>Node8&#45;&gt;Node12</title>
<g id="a_edge13_Node000008_Node000012"><a xlink:title=" ">
<path fill="none" stroke="#63b8ff" d="M384.31,-169.76C356.27,-161.53 316.43,-148.83 282.88,-134.25 265.23,-126.58 262.49,-121.25 244.88,-113.5 215.47,-100.57 181.12,-88.93 154.7,-80.68"/>
<polygon fill="#63b8ff" stroke="#63b8ff" points="155.93,-77.4 145.34,-77.81 153.87,-84.09 155.93,-77.4"/>
</a>
</g>
</g>
<!-- Node8&#45;&gt;Node13 -->
<g id="edge14_Node000008_Node000013" class="edge">
<title>Node8&#45;&gt;Node13</title>
<g id="a_edge14_Node000008_Node000013"><a xlink:title=" ">
<path fill="none" stroke="#63b8ff" d="M383.62,-175.36C336.24,-169.19 251.05,-156.07 180.88,-134.25 137.07,-120.63 88.95,-97.94 59.33,-83.01"/>
<polygon fill="#63b8ff" stroke="#63b8ff" points="61.14,-80 50.64,-78.58 57.95,-86.24 61.14,-80"/>
</a>
</g>
</g>
<!-- Node8&#45;&gt;Node14 -->
<g id="edge15_Node000008_Node000014" class="edge">
<title>Node8&#45;&gt;Node14</title>
<g id="a_edge15_Node000008_Node000014"><a xlink:title=" ">
<path fill="none" stroke="#63b8ff" d="M456.09,-176.24C555.71,-166.93 834.21,-140.91 952.09,-129.9"/>
<polygon fill="#63b8ff" stroke="#63b8ff" points="952.18,-133.41 961.81,-128.99 951.53,-126.44 952.18,-133.41"/>
</a>
</g>
</g>
<!-- Node18 -->
<g id="Node000018" class="node">
<title>Node18</title>
<g id="a_Node000018"><a xlink:href="step__shared_8h.html" target="_top" xlink:title=" ">
<polygon fill="white" stroke="#666666" points="376,-134.25 291.75,-134.25 291.75,-113.5 376,-113.5 376,-134.25"/>
<text xml:space="preserve" text-anchor="middle" x="333.88" y="-120.75" font-family="Helvetica,sans-Serif" font-size="10.00">step_shared.h</text>
</a>
</g>
</g>
<!-- Node8&#45;&gt;Node18 -->
<g id="edge21_Node000008_Node000018" class="edge">
<title>Node8&#45;&gt;Node18</title>
<g id="a_edge21_Node000008_Node000018"><a xlink:title=" ">
<path fill="none" stroke="#63b8ff" d="M404.5,-169.84C391.78,-161.74 373.47,-150.08 358.68,-140.67"/>
<polygon fill="#63b8ff" stroke="#63b8ff" points="360.71,-137.81 350.39,-135.39 356.95,-143.71 360.71,-137.81"/>
</a>
</g>
</g>
<!-- Node14&#45;&gt;Node6 -->
<g id="edge19_Node000014_Node000006" class="edge">
<title>Node14&#45;&gt;Node6</title>
<g id="a_edge19_Node000014_Node000006"><a xlink:title=" ">
<path fill="none" stroke="#63b8ff" d="M1011.26,-113.13C1018.23,-99.05 1028.03,-72.94 1014.88,-56.75 994.72,-31.95 909.41,-20.23 851.95,-15.06"/>
<polygon fill="#63b8ff" stroke="#63b8ff" points="852.27,-11.57 842.01,-14.21 851.67,-18.55 852.27,-11.57"/>
</a>
</g>
</g>
<!-- Node14&#45;&gt;Node9 -->
<g id="edge17_Node000014_Node000009" class="edge">
<title>Node14&#45;&gt;Node9</title>
<g id="a_edge17_Node000014_Node000009"><a xlink:title=" ">
<path fill="none" stroke="#63b8ff" d="M986.92,-113.09C970.8,-104.76 947.37,-92.66 928.88,-83.11"/>
<polygon fill="#63b8ff" stroke="#63b8ff" points="930.5,-80 920.01,-78.52 927.29,-86.22 930.5,-80"/>
</a>
</g>
</g>
<!-- Node15 -->
<g id="Node000015" class="node">
<title>Node15</title>
<g id="a_Node000015"><a xlink:title=" ">
<polygon fill="#e0e0e0" stroke="#999999" points="1224.25,-77.5 1171.5,-77.5 1171.5,-56.75 1224.25,-56.75 1224.25,-77.5"/>
<text xml:space="preserve" text-anchor="middle" x="1197.88" y="-64" font-family="Helvetica,sans-Serif" font-size="10.00">stdint.h</text>
</a>
</g>
</g>
<!-- Node14&#45;&gt;Node15 -->
<g id="edge16_Node000014_Node000015" class="edge">
<title>Node14&#45;&gt;Node15</title>
<g id="a_edge16_Node000014_Node000015"><a xlink:title=" ">
<path fill="none" stroke="#63b8ff" d="M1040.2,-113.09C1074.07,-103.43 1125.7,-88.7 1160.57,-78.76"/>
<polygon fill="#63b8ff" stroke="#63b8ff" points="1161.15,-82.24 1169.8,-76.13 1159.23,-75.51 1161.15,-82.24"/>
</a>
</g>
</g>
<!-- Node16 -->
<g id="Node000016" class="node">
<title>Node16</title>
<g id="a_Node000016"><a xlink:title=" ">
<polygon fill="#e0e0e0" stroke="#999999" points="1153.38,-77.5 1062.38,-77.5 1062.38,-56.75 1153.38,-56.75 1153.38,-77.5"/>
<text xml:space="preserve" text-anchor="middle" x="1107.88" y="-64" font-family="Helvetica,sans-Serif" font-size="10.00">event_groups.h</text>
</a>
</g>
</g>
<!-- Node14&#45;&gt;Node16 -->
<g id="edge18_Node000014_Node000016" class="edge">
<title>Node14&#45;&gt;Node16</title>
<g id="a_edge18_Node000014_Node000016"><a xlink:title=" ">
<path fill="none" stroke="#63b8ff" d="M1024.11,-113.09C1039.56,-104.8 1061.96,-92.77 1079.71,-83.24"/>
<polygon fill="#63b8ff" stroke="#63b8ff" points="1081.31,-86.36 1088.46,-78.54 1078,-80.19 1081.31,-86.36"/>
</a>
</g>
</g>
<!-- Node17 -->
<g id="Node000017" class="node">
<title>Node17</title>
<g id="a_Node000017"><a xlink:title=" ">
<polygon fill="#e0e0e0" stroke="#999999" points="1005.88,-77.5 953.88,-77.5 953.88,-56.75 1005.88,-56.75 1005.88,-77.5"/>
<text xml:space="preserve" text-anchor="middle" x="979.88" y="-64" font-family="Helvetica,sans-Serif" font-size="10.00">stdlib.h</text>
</a>
</g>
</g>
<!-- Node14&#45;&gt;Node17 -->
<g id="edge20_Node000014_Node000017" class="edge">
<title>Node14&#45;&gt;Node17</title>
<g id="a_edge20_Node000014_Node000017"><a xlink:title=" ">
<path fill="none" stroke="#63b8ff" d="M1001.23,-113.09C997.94,-106.16 993.41,-96.62 989.37,-88.11"/>
<polygon fill="#63b8ff" stroke="#63b8ff" points="992.58,-86.73 985.13,-79.2 986.26,-89.73 992.58,-86.73"/>
</a>
</g>
</g>
<!-- Node18&#45;&gt;Node5 -->
<g id="edge22_Node000018_Node000005" class="edge">
<title>Node18&#45;&gt;Node5</title>
<g id="a_edge22_Node000018_Node000005"><a xlink:title=" ">
<path fill="none" stroke="#63b8ff" d="M348.71,-113.09C360.99,-104.99 378.66,-93.33 392.93,-83.92"/>
<polygon fill="#63b8ff" stroke="#63b8ff" points="394.48,-87.09 400.9,-78.66 390.63,-81.25 394.48,-87.09"/>
</a>
</g>
</g>
<!-- Node18&#45;&gt;Node6 -->
<g id="edge24_Node000018_Node000006" class="edge">
<title>Node18&#45;&gt;Node6</title>
<g id="a_edge24_Node000018_Node000006"><a xlink:title=" ">
<path fill="none" stroke="#63b8ff" d="M329.74,-113.38C324.27,-99.13 316.82,-72.24 330.88,-56.75 344.6,-41.63 623.48,-22.35 743.61,-14.71"/>
<polygon fill="#63b8ff" stroke="#63b8ff" points="743.79,-18.2 753.55,-14.08 743.35,-11.22 743.79,-18.2"/>
</a>
</g>
</g>
<!-- Node18&#45;&gt;Node11 -->
<g id="edge25_Node000018_Node000011" class="edge">
<title>Node18&#45;&gt;Node11</title>
<g id="a_edge25_Node000018_Node000011"><a xlink:title=" ">
<path fill="none" stroke="#63b8ff" d="M370.88,-113.09C407.24,-103.47 462.59,-88.83 500.17,-78.89"/>
<polygon fill="#63b8ff" stroke="#63b8ff" points="500.99,-82.3 509.76,-76.35 499.2,-75.53 500.99,-82.3"/>
</a>
</g>
</g>
<!-- Node18&#45;&gt;Node12 -->
<g id="edge26_Node000018_Node000012" class="edge">
<title>Node18&#45;&gt;Node12</title>
<g id="a_edge26_Node000018_Node000012"><a xlink:title=" ">
<path fill="none" stroke="#63b8ff" d="M293.93,-113.02C254.76,-103.36 195.23,-88.68 155,-78.76"/>
<polygon fill="#63b8ff" stroke="#63b8ff" points="155.96,-75.39 145.41,-76.4 154.29,-82.19 155.96,-75.39"/>
</a>
</g>
</g>
<!-- Node18&#45;&gt;Node13 -->
<g id="edge27_Node000018_Node000013" class="edge">
<title>Node18&#45;&gt;Node13</title>
<g id="a_edge27_Node000018_Node000013"><a xlink:title=" ">
<path fill="none" stroke="#63b8ff" d="M291.37,-116.34C241.49,-108.49 156.04,-94.5 73.01,-77.84"/>
<polygon fill="#63b8ff" stroke="#63b8ff" points="73.82,-74.43 63.33,-75.88 72.43,-81.29 73.82,-74.43"/>
</a>
</g>
</g>
<!-- Node19 -->
<g id="Node000019" class="node">
<title>Node19</title>
<g id="a_Node000019"><a xlink:title=" ">
<polygon fill="#e0e0e0" stroke="#999999" points="284.12,-77.5 161.62,-77.5 161.62,-56.75 284.12,-56.75 284.12,-77.5"/>
<text xml:space="preserve" text-anchor="middle" x="222.88" y="-64" font-family="Helvetica,sans-Serif" font-size="10.00">fsl_device_registers.h</text>
</a>
</g>
</g>
<!-- Node18&#45;&gt;Node19 -->
<g id="edge23_Node000018_Node000019" class="edge">
<title>Node18&#45;&gt;Node19</title>
<g id="a_edge23_Node000018_Node000019"><a xlink:title=" ">
<path fill="none" stroke="#63b8ff" d="M314.03,-113.09C296.98,-104.68 272.15,-92.43 252.71,-82.84"/>
<polygon fill="#63b8ff" stroke="#63b8ff" points="254.42,-79.78 243.91,-78.5 251.33,-86.06 254.42,-79.78"/>
</a>
</g>
</g>
<!-- Node20&#45;&gt;Node6 -->
<g id="edge31_Node000020_Node000006" class="edge">
<title>Node20&#45;&gt;Node6</title>
<g id="a_edge31_Node000020_Node000006"><a xlink:title=" ">
<path fill="none" stroke="#63b8ff" d="M737.85,-169.78C751.79,-162.11 769.24,-150.09 778.88,-134.25 798.06,-102.69 800.09,-58.43 799.32,-32.54"/>
<polygon fill="#63b8ff" stroke="#63b8ff" points="802.82,-32.47 798.84,-22.66 795.83,-32.82 802.82,-32.47"/>
</a>
</g>
</g>
<!-- Node20&#45;&gt;Node7 -->
<g id="edge33_Node000020_Node000007" class="edge">
<title>Node20&#45;&gt;Node7</title>
<g id="a_edge33_Node000020_Node000007"><a xlink:title=" ">
<path fill="none" stroke="#63b8ff" d="M702.08,-169.81C689.19,-161.03 670.2,-147.52 654.88,-134.25 618.4,-102.68 613.97,-89.86 578.88,-56.75 568.7,-47.15 557,-36.88 547.27,-28.54"/>
<polygon fill="#63b8ff" stroke="#63b8ff" points="549.71,-26.01 539.82,-22.2 545.17,-31.34 549.71,-26.01"/>
</a>
</g>
</g>
<!-- Node20&#45;&gt;Node14 -->
<g id="edge32_Node000020_Node000014" class="edge">
<title>Node20&#45;&gt;Node14</title>
<g id="a_edge32_Node000020_Node000014"><a xlink:title=" ">
<path fill="none" stroke="#63b8ff" d="M764.27,-170.65C816,-160.85 898.63,-145.19 952.57,-134.97"/>
<polygon fill="#63b8ff" stroke="#63b8ff" points="952.97,-138.46 962.14,-133.16 951.66,-131.58 952.97,-138.46"/>
</a>
</g>
</g>
<!-- Node21 -->
<g id="Node000021" class="node">
<title>Node21</title>
<g id="a_Node000021"><a xlink:href="tmc2209__shared_8h.html" target="_top" xlink:title=" ">
<polygon fill="white" stroke="#666666" points="769.88,-134.25 663.88,-134.25 663.88,-113.5 769.88,-113.5 769.88,-134.25"/>
<text xml:space="preserve" text-anchor="middle" x="716.88" y="-120.75" font-family="Helvetica,sans-Serif" font-size="10.00">tmc2209_shared.h</text>
</a>
</g>
</g>
<!-- Node20&#45;&gt;Node21 -->
<g id="edge29_Node000020_Node000021" class="edge">
<title>Node20&#45;&gt;Node21</title>
<g id="a_edge29_Node000020_Node000021"><a xlink:title=" ">
<path fill="none" stroke="#63b8ff" d="M716.88,-169.84C716.88,-163.22 716.88,-154.22 716.88,-146.02"/>
<polygon fill="#63b8ff" stroke="#63b8ff" points="720.38,-146.09 716.88,-136.09 713.38,-146.09 720.38,-146.09"/>
</a>
</g>
</g>
<!-- Node22 -->
<g id="Node000022" class="node">
<title>Node22</title>
<g id="a_Node000022"><a xlink:title=" ">
<polygon fill="#e0e0e0" stroke="#999999" points="769.5,-77.5 664.25,-77.5 664.25,-56.75 769.5,-56.75 769.5,-77.5"/>
<text xml:space="preserve" text-anchor="middle" x="716.88" y="-64" font-family="Helvetica,sans-Serif" font-size="10.00">fsl_uart_freertos.h</text>
</a>
</g>
</g>
<!-- Node21&#45;&gt;Node22 -->
<g id="edge30_Node000021_Node000022" class="edge">
<title>Node21&#45;&gt;Node22</title>
<g id="a_edge30_Node000021_Node000022"><a xlink:title=" ">
<path fill="none" stroke="#63b8ff" d="M716.88,-113.09C716.88,-106.47 716.88,-97.47 716.88,-89.27"/>
<polygon fill="#63b8ff" stroke="#63b8ff" points="720.38,-89.34 716.88,-79.34 713.38,-89.34 720.38,-89.34"/>
</a>
</g>
</g>
<!-- Node24&#45;&gt;Node4 -->
<g id="edge41_Node000024_Node000004" class="edge">
<title>Node24&#45;&gt;Node4</title>
<g id="a_edge41_Node000024_Node000004"><a xlink:title=" ">
<path fill="none" stroke="#63b8ff" d="M609.81,-283.34C589.63,-274.77 560.07,-262.23 537.3,-252.56"/>
<polygon fill="#63b8ff" stroke="#63b8ff" points="538.7,-249.35 528.13,-248.67 535.97,-255.8 538.7,-249.35"/>
</a>
</g>
</g>
<!-- Node25&#45;&gt;Node6 -->
<g id="edge44_Node000025_Node000006" class="edge">
<title>Node25&#45;&gt;Node6</title>
<g id="a_edge44_Node000025_Node000006"><a xlink:title=" ">
<path fill="none" stroke="#63b8ff" d="M841.78,-113.37C834.03,-95.36 817.04,-55.89 806.62,-31.68"/>
<polygon fill="#63b8ff" stroke="#63b8ff" points="809.86,-30.37 802.69,-22.57 803.43,-33.13 809.86,-30.37"/>
</a>
</g>
</g>
<!-- Node25&#45;&gt;Node9 -->
<g id="edge43_Node000025_Node000009" class="edge">
<title>Node25&#45;&gt;Node9</title>
<g id="a_edge43_Node000025_Node000009"><a xlink:title=" ">
<path fill="none" stroke="#63b8ff" d="M855.53,-113.09C862.98,-105.53 873.48,-94.89 882.4,-85.85"/>
<polygon fill="#63b8ff" stroke="#63b8ff" points="884.71,-88.48 889.24,-78.91 879.73,-83.57 884.71,-88.48"/>
</a>
</g>
</g>
<!-- Node27&#45;&gt;Node6 -->
<g id="edge51_Node000027_Node000006" class="edge">
<title>Node27&#45;&gt;Node6</title>
<g id="a_edge51_Node000027_Node000006"><a xlink:title=" ">
<path fill="none" stroke="#63b8ff" d="M1117.63,-169.83C1170.85,-150.26 1275.56,-104.11 1232.88,-56.75 1207.81,-28.93 963.07,-17.04 852.1,-13.05"/>
<polygon fill="#63b8ff" stroke="#63b8ff" points="852.46,-9.56 842.35,-12.71 852.22,-16.56 852.46,-9.56"/>
</a>
</g>
</g>
<!-- Node27&#45;&gt;Node9 -->
<g id="edge49_Node000027_Node000009" class="edge">
<title>Node27&#45;&gt;Node9</title>
<g id="a_edge49_Node000027_Node000009"><a xlink:title=" ">
<path fill="none" stroke="#63b8ff" d="M1051.7,-172.8C1023.32,-166.29 984.23,-154.41 954.88,-134.25 936.85,-121.87 921.45,-102.01 911.57,-87.29"/>
<polygon fill="#63b8ff" stroke="#63b8ff" points="914.55,-85.45 906.21,-78.92 908.66,-89.23 914.55,-85.45"/>
</a>
</g>
</g>
<!-- Node27&#45;&gt;Node14 -->
<g id="edge52_Node000027_Node000014" class="edge">
<title>Node27&#45;&gt;Node14</title>
<g id="a_edge52_Node000027_Node000014"><a xlink:title=" ">
<path fill="none" stroke="#63b8ff" d="M1074.04,-169.84C1061.76,-161.74 1044.09,-150.08 1029.82,-140.67"/>
<polygon fill="#63b8ff" stroke="#63b8ff" points="1032.12,-138 1021.85,-135.41 1028.27,-143.84 1032.12,-138"/>
</a>
</g>
</g>
<!-- Node27&#45;&gt;Node15 -->
<g id="edge48_Node000027_Node000015" class="edge">
<title>Node27&#45;&gt;Node15</title>
<g id="a_edge48_Node000027_Node000015"><a xlink:title=" ">
<path fill="none" stroke="#63b8ff" d="M1098.17,-170.12C1116.42,-151.45 1157.19,-109.74 1180.55,-85.85"/>
<polygon fill="#63b8ff" stroke="#63b8ff" points="1182.75,-88.6 1187.24,-79.01 1177.74,-83.71 1182.75,-88.6"/>
</a>
</g>
</g>
<!-- Node27&#45;&gt;Node16 -->
<g id="edge50_Node000027_Node000016" class="edge">
<title>Node27&#45;&gt;Node16</title>
<g id="a_edge50_Node000027_Node000016"><a xlink:title=" ">
<path fill="none" stroke="#63b8ff" d="M1090.49,-170.12C1093.54,-152.27 1100.17,-113.36 1104.3,-89.09"/>
<polygon fill="#63b8ff" stroke="#63b8ff" points="1107.72,-89.86 1105.95,-79.42 1100.82,-88.69 1107.72,-89.86"/>
</a>
</g>
</g>
</g>
</svg>

<g id="navigator" transform="translate(0 0)" fill="#404254">
  <rect fill="#f2f5e9" fill-opacity="0.5" stroke="#606060" stroke-width=".5" x="0" y="0" width="60" height="60"/>
  <use id="zoomplus" xlink:href="#zoomPlus" x="17" y="9" onmousedown="handleZoom(evt,'in')"/>
  <use id="zoomminus" xlink:href="#zoomMin" x="42" y="9" onmousedown="handleZoom(evt,'out')"/>
  <use id="reset" xlink:href="#resetDef" x="30" y="36" onmousedown="handleReset()"/>
   <use id="arrowup" xlink:href="#arrowUp" x="0" y="0" onmousedown="handlePan(0,-1)"/>
  <use id="arrowright" xlink:href="#arrowRight" x="0" y="0" onmousedown="handlePan(1,0)"/>
  <use id="arrowdown" xlink:href="#arrowDown" x="0" y="0" onmousedown="handlePan(0,1)"/>
  <use id="arrowleft" xlink:href="#arrowLeft" x="0" y="0" onmousedown="handlePan(-1,0)"/>
</g>
<svg viewBox="0 0 15 15" width="100%" height="30px" preserveAspectRatio="xMaxYMin meet">
 <g id="arrow_out" transform="scale(0.3 0.3)">
  <a xlink:href="motor__sync_8c__incl_org.svg" target="_base">
   <rect id="button" ry="5" rx="5" y="6" x="6" height="38" width="38"
        fill="#f2f5e9" fill-opacity="0.5" stroke="#606060" stroke-width="1.0"/>
   <path id="arrow"
     d="M 11.500037,31.436501 C 11.940474,20.09759 22.043105,11.32322 32.158766,21.979434 L 37.068811,17.246167 C 37.068811,17.246167 37.088388,32 37.088388,32 L 22.160133,31.978069 C 22.160133,31.978069 26.997745,27.140456 26.997745,27.140456 C 18.528582,18.264221 13.291696,25.230495 11.500037,31.436501 z"
     style="fill:#404040;"/>
  </a>
 </g>
</svg>

<style type='text/css'>
<![CDATA[
[data-mouse-over-selected='false'] { opacity: 0.7; }
[data-mouse-over-selected='true']  { opacity: 1.0; }
]]>
</style>
<script type="application/ecmascript"><![CDATA[
document.addEventListener('DOMContentLoaded', (event) => {
  highlightEdges();
  highlightAdjacentNodes();
});
]]></script>
</svg>
