<?xml version="1.0" encoding="UTF-8" standalone="no"?>
<!DOCTYPE svg PUBLIC "-//W3C//DTD SVG 1.1//EN"
 "http://www.w3.org/Graphics/SVG/1.1/DTD/svg11.dtd">
<!-- Generated by graphviz version 14.1.5 (0)
 -->
<!-- Title: source/motion/homing/motor_homing.h Pages: 1 -->
<svg width="584pt" height="111pt"
 viewBox="0.00 0.00 584.00 111.00" xmlns="http://www.w3.org/2000/svg" xmlns:xlink="http://www.w3.org/1999/xlink">
<g id="graph0" class="graph" transform="scale(1 1) rotate(0) translate(4 107)">
<title>source/motion/homing/motor_homing.h</title>
<!-- Node1 -->
<g id="Node000001" class="node">
<title>Node1</title>
<g id="a_Node000001"><a xlink:title=" ">
<polygon fill="#999999" stroke="#666666" points="372.5,-103 247,-103 247,-69.5 372.5,-69.5 372.5,-103"/>
<text xml:space="preserve" text-anchor="start" x="255" y="-89.5" font-family="Helvetica,sans-Serif" font-size="10.00">source/motion/homing</text>
<text xml:space="preserve" text-anchor="middle" x="309.75" y="-76.75" font-family="Helvetica,sans-Serif" font-size="10.00">/motor_homing.h</text>
</a>
</g>
</g>
<!-- Node2 -->
<g id="Node000002" class="node">
<title>Node2</title>
<g id="a_Node000002"><a xlink:href="motor__homing_8c.html" target="_top" xlink:title=" ">
<polygon fill="white" stroke="#666666" points="125.5,-33.5 0,-33.5 0,0 125.5,0 125.5,-33.5"/>
<text xml:space="preserve" text-anchor="start" x="8" y="-20" font-family="Helvetica,sans-Serif" font-size="10.00">source/motion/homing</text>
<text xml:space="preserve" text-anchor="middle" x="62.75" y="-7.25" font-family="Helvetica,sans-Serif" font-size="10.00">/motor_homing.c</text>
</a>
</g>
</g>
<!-- Node1&#45;&gt;Node2 -->
<g id="edge1_Node000001_Node000002" class="edge">
<title>Node1&#45;&gt;Node2</title>
<g id="a_edge1_Node000001_Node000002"><a xlink:title=" ">
<path fill="none" stroke="#63b8ff" d="M239.82,-66.14C202.59,-55.97 157.31,-43.59 121.86,-33.9"/>
<polygon fill="#63b8ff" stroke="#63b8ff" points="238.56,-69.42 249.13,-68.68 240.4,-62.67 238.56,-69.42"/>
</a>
</g>
</g>
<!-- Node3 -->
<g id="Node000003" class="node">
<title>Node3</title>
<g id="a_Node000003"><a xlink:href="scara__kinematics_8c.html" target="_top" xlink:title=" ">
<polygon fill="white" stroke="#666666" points="315.75,-33.5 143.75,-33.5 143.75,0 315.75,0 315.75,-33.5"/>
<text xml:space="preserve" text-anchor="start" x="151.75" y="-20" font-family="Helvetica,sans-Serif" font-size="10.00">source/motion/scara</text>
<text xml:space="preserve" text-anchor="middle" x="229.75" y="-7.25" font-family="Helvetica,sans-Serif" font-size="10.00">_kinematics/scara_kinematics.c</text>
</a>
</g>
</g>
<!-- Node1&#45;&gt;Node3 -->
<g id="edge2_Node000001_Node000003" class="edge">
<title>Node1&#45;&gt;Node3</title>
<g id="a_edge2_Node000001_Node000003"><a xlink:title=" ">
<path fill="none" stroke="#63b8ff" d="M282,-61.84C271.06,-52.6 258.76,-42.23 248.85,-33.87"/>
<polygon fill="#63b8ff" stroke="#63b8ff" points="279.73,-64.5 289.63,-68.28 284.25,-59.15 279.73,-64.5"/>
</a>
</g>
</g>
<!-- Node4 -->
<g id="Node000004" class="node">
<title>Node4</title>
<g id="a_Node000004"><a xlink:href="motorCmd_8c.html" target="_top" xlink:title=" ">
<polygon fill="white" stroke="#666666" points="445.38,-27.12 334.12,-27.12 334.12,-6.38 445.38,-6.38 445.38,-27.12"/>
<text xml:space="preserve" text-anchor="middle" x="389.75" y="-13.62" font-family="Helvetica,sans-Serif" font-size="10.00">source/motorCmd.c</text>
</a>
</g>
</g>
<!-- Node1&#45;&gt;Node4 -->
<g id="edge3_Node000001_Node000004" class="edge">
<title>Node1&#45;&gt;Node4</title>
<g id="a_edge3_Node000001_Node000004"><a xlink:title=" ">
<path fill="none" stroke="#63b8ff" d="M337.46,-61.87C351.37,-50.13 367.49,-36.53 378.11,-27.57"/>
<polygon fill="#63b8ff" stroke="#63b8ff" points="335.25,-59.15 329.87,-68.28 339.77,-64.5 335.25,-59.15"/>
</a>
</g>
</g>
<!-- Node5 -->
<g id="Node000005" class="node">
<title>Node5</title>
<g id="a_Node000005"><a xlink:href="motor__test_8c.html" target="_top" xlink:title=" ">
<polygon fill="white" stroke="#666666" points="576.12,-27.12 463.38,-27.12 463.38,-6.38 576.12,-6.38 576.12,-27.12"/>
<text xml:space="preserve" text-anchor="middle" x="519.75" y="-13.62" font-family="Helvetica,sans-Serif" font-size="10.00">source/motor_test.c</text>
</a>
</g>
</g>
<!-- Node1&#45;&gt;Node5 -->
<g id="edge4_Node000001_Node000005" class="edge">
<title>Node1&#45;&gt;Node5</title>
<g id="a_edge4_Node000001_Node000005"><a xlink:title=" ">
<path fill="none" stroke="#63b8ff" d="M370.71,-65.66C409.51,-53.19 458.1,-37.57 489.04,-27.62"/>
<polygon fill="#63b8ff" stroke="#63b8ff" points="369.94,-62.23 361.49,-68.62 372.08,-68.89 369.94,-62.23"/>
</a>
</g>
</g>
</g>
</svg>
