<?xml version="1.0" encoding="UTF-8" standalone="no"?>
<!DOCTYPE svg PUBLIC "-//W3C//DTD SVG 1.1//EN"
 "http://www.w3.org/Graphics/SVG/1.1/DTD/svg11.dtd">
<!-- Generated by graphviz version 14.1.4 (0)
 -->
<!-- Title: source/motion/motor/motor_sync.c Pages: 1 -->
<svg width="1251pt" height="439pt"
 viewBox="0.00 0.00 1251.00 439.00" xmlns="http://www.w3.org/2000/svg" xmlns:xlink="http://www.w3.org/1999/xlink">
<g id="graph0" class="graph" transform="scale(1 1) rotate(0) translate(4 434.75)">
<title>source/motion/motor/motor_sync.c</title>
<!-- Node1 -->
<g id="Node000001" class="node">
<title>Node1</title>
<g id="a_Node000001"><a xlink:title=" ">
<polygon fill="#999999" stroke="#666666" points="946.62,-430.75 828.62,-430.75 828.62,-397.25 946.62,-397.25 946.62,-430.75"/>
<text xml:space="preserve" text-anchor="start" x="836.62" y="-417.25" font-family="Helvetica,sans-Serif" font-size="10.00">source/motion/motor</text>
<text xml:space="preserve" text-anchor="middle" x="887.62" y="-404.5" font-family="Helvetica,sans-Serif" font-size="10.00">/motor_sync.c</text>
</a>
</g>
</g>
<!-- Node2 -->
<g id="Node000002" class="node">
<title>Node2</title>
<g id="a_Node000002"><a xlink:href="motor__sync_8h.html" target="_top" xlink:title=" ">
<polygon fill="white" stroke="#666666" points="965.62,-361.25 883.62,-361.25 883.62,-340.5 965.62,-340.5 965.62,-361.25"/>
<text xml:space="preserve" text-anchor="middle" x="924.62" y="-347.75" font-family="Helvetica,sans-Serif" font-size="10.00">motor_sync.h</text>
</a>
</g>
</g>
<!-- Node1&#45;&gt;Node2 -->
<g id="edge1_Node000001_Node000002" class="edge">
<title>Node1&#45;&gt;Node2</title>
<g id="a_edge1_Node000001_Node000002"><a xlink:title=" ">
<path fill="none" stroke="#63b8ff" d="M897.35,-396.94C902.1,-389.08 907.87,-379.56 912.87,-371.29"/>
<polygon fill="#63b8ff" stroke="#63b8ff" points="915.7,-373.38 917.88,-363.01 909.71,-369.75 915.7,-373.38"/>
</a>
</g>
</g>
<!-- Node9 -->
<g id="Node000009" class="node">
<title>Node9</title>
<g id="a_Node000009"><a xlink:href="step__core_8h.html" target="_top" xlink:title=" ">
<polygon fill="white" stroke="#666666" points="484.75,-191 412.5,-191 412.5,-170.25 484.75,-170.25 484.75,-191"/>
<text xml:space="preserve" text-anchor="middle" x="448.62" y="-177.5" font-family="Helvetica,sans-Serif" font-size="10.00">step_core.h</text>
</a>
</g>
</g>
<!-- Node1&#45;&gt;Node9 -->
<g id="edge46_Node000001_Node000009" class="edge">
<title>Node1&#45;&gt;Node9</title>
<g id="a_edge46_Node000001_Node000009"><a xlink:title=" ">
<path fill="none" stroke="#63b8ff" d="M847.23,-396.84C821.79,-386.65 788.28,-373.21 758.62,-361.25 696.36,-336.14 678.13,-335.6 618.62,-304.5 577.71,-283.12 569.05,-274.77 531.62,-247.75 509.65,-231.88 485.52,-212.41 468.97,-198.72"/>
<polygon fill="#63b8ff" stroke="#63b8ff" points="471.26,-196.08 461.34,-192.37 466.78,-201.46 471.26,-196.08"/>
</a>
</g>
</g>
<!-- Node25 -->
<g id="Node000025" class="node">
<title>Node25</title>
<g id="a_Node000025"><a xlink:href="motor__convert_8h.html" target="_top" xlink:title=" ">
<polygon fill="white" stroke="#666666" points="723.75,-304.5 627.5,-304.5 627.5,-283.75 723.75,-283.75 723.75,-304.5"/>
<text xml:space="preserve" text-anchor="middle" x="675.62" y="-291" font-family="Helvetica,sans-Serif" font-size="10.00">motor_convert.h</text>
</a>
</g>
</g>
<!-- Node1&#45;&gt;Node25 -->
<g id="edge41_Node000001_Node000025" class="edge">
<title>Node1&#45;&gt;Node25</title>
<g id="a_edge41_Node000001_Node000025"><a xlink:title=" ">
<path fill="none" stroke="#63b8ff" d="M858.59,-396.86C817.58,-374.05 743.21,-332.7 703.07,-310.39"/>
<polygon fill="#63b8ff" stroke="#63b8ff" points="704.94,-307.42 694.5,-305.62 701.54,-313.54 704.94,-307.42"/>
</a>
</g>
</g>
<!-- Node26 -->
<g id="Node000026" class="node">
<title>Node26</title>
<g id="a_Node000026"><a xlink:href="log_8h.html" target="_top" xlink:title=" ">
<polygon fill="white" stroke="#666666" points="865.62,-134.25 825.62,-134.25 825.62,-113.5 865.62,-113.5 865.62,-134.25"/>
<text xml:space="preserve" text-anchor="middle" x="845.62" y="-120.75" font-family="Helvetica,sans-Serif" font-size="10.00">log.h</text>
</a>
</g>
</g>
<!-- Node1&#45;&gt;Node26 -->
<g id="edge43_Node000001_Node000026" class="edge">
<title>Node1&#45;&gt;Node26</title>
<g id="a_edge43_Node000001_Node000026"><a xlink:title=" ">
<path fill="none" stroke="#63b8ff" d="M879,-397.13C867.79,-374.96 849.62,-333.18 849.62,-295.12 849.62,-295.12 849.62,-295.12 849.62,-236.38 849.62,-204.96 848.02,-168.6 846.84,-146.17"/>
<polygon fill="#63b8ff" stroke="#63b8ff" points="850.34,-146.02 846.3,-136.23 843.35,-146.4 850.34,-146.02"/>
</a>
</g>
</g>
<!-- Node27 -->
<g id="Node000027" class="node">
<title>Node27</title>
<g id="a_Node000027"><a xlink:title=" ">
<polygon fill="#e0e0e0" stroke="#999999" points="1156.12,-361.25 1107.12,-361.25 1107.12,-340.5 1156.12,-340.5 1156.12,-361.25"/>
<text xml:space="preserve" text-anchor="middle" x="1131.62" y="-347.75" font-family="Helvetica,sans-Serif" font-size="10.00">stdio.h</text>
</a>
</g>
</g>
<!-- Node1&#45;&gt;Node27 -->
<g id="edge47_Node000001_Node000027" class="edge">
<title>Node1&#45;&gt;Node27</title>
<g id="a_edge47_Node000001_Node000027"><a xlink:title=" ">
<path fill="none" stroke="#63b8ff" d="M947,-398.13C993.51,-386.48 1056.67,-370.65 1095.76,-360.86"/>
<polygon fill="#63b8ff" stroke="#63b8ff" points="1096.51,-364.28 1105.36,-358.45 1094.81,-357.49 1096.51,-364.28"/>
</a>
</g>
</g>
<!-- Node28 -->
<g id="Node000028" class="node">
<title>Node28</title>
<g id="a_Node000028"><a xlink:href="sync__wait_8h.html" target="_top" xlink:title=" ">
<polygon fill="white" stroke="#666666" points="1144.5,-191 1070.75,-191 1070.75,-170.25 1144.5,-170.25 1144.5,-191"/>
<text xml:space="preserve" text-anchor="middle" x="1107.62" y="-177.5" font-family="Helvetica,sans-Serif" font-size="10.00">sync_wait.h</text>
</a>
</g>
</g>
<!-- Node1&#45;&gt;Node28 -->
<g id="edge48_Node000001_Node000028" class="edge">
<title>Node1&#45;&gt;Node28</title>
<g id="a_edge48_Node000001_Node000028"><a xlink:title=" ">
<path fill="none" stroke="#63b8ff" d="M921.53,-396.9C938.55,-387.85 958.85,-375.51 974.62,-361.25 1029.43,-311.71 1076.28,-236.5 1096.7,-201.21"/>
<polygon fill="#63b8ff" stroke="#63b8ff" points="1099.72,-202.97 1101.62,-192.55 1093.63,-199.51 1099.72,-202.97"/>
</a>
</g>
</g>
<!-- Node3 -->
<g id="Node000003" class="node">
<title>Node3</title>
<g id="a_Node000003"><a xlink:href="motor__internal_8h.html" target="_top" xlink:title=" ">
<polygon fill="white" stroke="#666666" points="977.12,-304.5 880.12,-304.5 880.12,-283.75 977.12,-283.75 977.12,-304.5"/>
<text xml:space="preserve" text-anchor="middle" x="928.62" y="-291" font-family="Helvetica,sans-Serif" font-size="10.00">motor_internal.h</text>
</a>
</g>
</g>
<!-- Node2&#45;&gt;Node3 -->
<g id="edge2_Node000002_Node000003" class="edge">
<title>Node2&#45;&gt;Node3</title>
<g id="a_edge2_Node000002_Node000003"><a xlink:title=" ">
<path fill="none" stroke="#63b8ff" d="M925.34,-340.09C925.82,-333.47 926.48,-324.47 927.08,-316.27"/>
<polygon fill="#63b8ff" stroke="#63b8ff" points="930.57,-316.57 927.81,-306.34 923.59,-316.06 930.57,-316.57"/>
</a>
</g>
</g>
<!-- Node4 -->
<g id="Node000004" class="node">
<title>Node4</title>
<g id="a_Node000004"><a xlink:href="motor__core_8h.html" target="_top" xlink:title=" ">
<polygon fill="white" stroke="#666666" points="620.88,-247.75 540.38,-247.75 540.38,-227 620.88,-227 620.88,-247.75"/>
<text xml:space="preserve" text-anchor="middle" x="580.62" y="-234.25" font-family="Helvetica,sans-Serif" font-size="10.00">motor_core.h</text>
</a>
</g>
</g>
<!-- Node3&#45;&gt;Node4 -->
<g id="edge3_Node000003_Node000004" class="edge">
<title>Node3&#45;&gt;Node4</title>
<g id="a_edge3_Node000003_Node000004"><a xlink:title=" ">
<path fill="none" stroke="#63b8ff" d="M879.87,-285.45C814.53,-275.18 699.07,-257.01 632.28,-246.5"/>
<polygon fill="#63b8ff" stroke="#63b8ff" points="633.12,-243.09 622.7,-244.99 632.03,-250.01 633.12,-243.09"/>
</a>
</g>
</g>
<!-- Node10 -->
<g id="Node000010" class="node">
<title>Node10</title>
<g id="a_Node000010"><a xlink:title=" ">
<polygon fill="#e0e0e0" stroke="#999999" points="935.38,-77.5 863.88,-77.5 863.88,-56.75 935.38,-56.75 935.38,-77.5"/>
<text xml:space="preserve" text-anchor="middle" x="899.62" y="-64" font-family="Helvetica,sans-Serif" font-size="10.00">FreeRTOS.h</text>
</a>
</g>
</g>
<!-- Node3&#45;&gt;Node10 -->
<g id="edge38_Node000003_Node000010" class="edge">
<title>Node3&#45;&gt;Node10</title>
<g id="a_edge38_Node000003_Node000010"><a xlink:title=" ">
<path fill="none" stroke="#63b8ff" d="M927.38,-283.46C923.02,-249.63 908.39,-136.11 902.31,-88.94"/>
<polygon fill="#63b8ff" stroke="#63b8ff" points="905.81,-88.73 901.06,-79.26 898.87,-89.62 905.81,-88.73"/>
</a>
</g>
</g>
<!-- Node15 -->
<g id="Node000015" class="node">
<title>Node15</title>
<g id="a_Node000015"><a xlink:href="cmd__handle_8h.html" target="_top" xlink:title=" ">
<polygon fill="white" stroke="#666666" points="1081.75,-134.25 997.5,-134.25 997.5,-113.5 1081.75,-113.5 1081.75,-134.25"/>
<text xml:space="preserve" text-anchor="middle" x="1039.62" y="-120.75" font-family="Helvetica,sans-Serif" font-size="10.00">cmd_handle.h</text>
</a>
</g>
</g>
<!-- Node3&#45;&gt;Node15 -->
<g id="edge40_Node000003_Node000015" class="edge">
<title>Node3&#45;&gt;Node15</title>
<g id="a_edge40_Node000003_Node000015"><a xlink:title=" ">
<path fill="none" stroke="#63b8ff" d="M967.76,-283.39C986.96,-276.58 1008.69,-265.44 1021.62,-247.75 1043.6,-217.68 1044.12,-172.25 1042.13,-145.87"/>
<polygon fill="#63b8ff" stroke="#63b8ff" points="1045.63,-145.73 1041.18,-136.11 1038.66,-146.41 1045.63,-145.73"/>
</a>
</g>
</g>
<!-- Node24 -->
<g id="Node000024" class="node">
<title>Node24</title>
<g id="a_Node000024"><a xlink:title=" ">
<polygon fill="#e0e0e0" stroke="#999999" points="1012.12,-247.75 957.12,-247.75 957.12,-227 1012.12,-227 1012.12,-247.75"/>
<text xml:space="preserve" text-anchor="middle" x="984.62" y="-234.25" font-family="Helvetica,sans-Serif" font-size="10.00">queue.h</text>
</a>
</g>
</g>
<!-- Node3&#45;&gt;Node24 -->
<g id="edge39_Node000003_Node000024" class="edge">
<title>Node3&#45;&gt;Node24</title>
<g id="a_edge39_Node000003_Node000024"><a xlink:title=" ">
<path fill="none" stroke="#63b8ff" d="M938.64,-283.34C946.36,-275.78 957.25,-265.14 966.5,-256.1"/>
<polygon fill="#63b8ff" stroke="#63b8ff" points="968.91,-258.63 973.62,-249.14 964.02,-253.62 968.91,-258.63"/>
</a>
</g>
</g>
<!-- Node5 -->
<g id="Node000005" class="node">
<title>Node5</title>
<g id="a_Node000005"><a xlink:href="pca9555a_8h.html" target="_top" xlink:title=" ">
<polygon fill="white" stroke="#666666" points="531.62,-77.5 377.62,-77.5 377.62,-56.75 531.62,-56.75 531.62,-77.5"/>
<text xml:space="preserve" text-anchor="middle" x="454.62" y="-64" font-family="Helvetica,sans-Serif" font-size="10.00">driver/pca9555a/pca9555a.h</text>
</a>
</g>
</g>
<!-- Node4&#45;&gt;Node5 -->
<g id="edge4_Node000004_Node000005" class="edge">
<title>Node4&#45;&gt;Node5</title>
<g id="a_edge4_Node000004_Node000005"><a xlink:title=" ">
<path fill="none" stroke="#63b8ff" d="M573.49,-226.85C553.31,-199.91 495.57,-122.81 468.7,-86.92"/>
<polygon fill="#63b8ff" stroke="#63b8ff" points="471.7,-85.09 462.9,-79.18 466.1,-89.28 471.7,-85.09"/>
</a>
</g>
</g>
<!-- Node8 -->
<g id="Node000008" class="node">
<title>Node8</title>
<g id="a_Node000008"><a xlink:title=" ">
<polygon fill="#e0e0e0" stroke="#999999" points="697,-191 608.25,-191 608.25,-170.25 697,-170.25 697,-191"/>
<text xml:space="preserve" text-anchor="middle" x="652.62" y="-177.5" font-family="Helvetica,sans-Serif" font-size="10.00">MK22F51212.h</text>
</a>
</g>
</g>
<!-- Node4&#45;&gt;Node8 -->
<g id="edge7_Node000004_Node000008" class="edge">
<title>Node4&#45;&gt;Node8</title>
<g id="a_edge7_Node000004_Node000008"><a xlink:title=" ">
<path fill="none" stroke="#63b8ff" d="M593.5,-226.59C603.84,-218.72 618.59,-207.5 630.78,-198.24"/>
<polygon fill="#63b8ff" stroke="#63b8ff" points="632.82,-201.08 638.66,-192.24 628.58,-195.51 632.82,-201.08"/>
</a>
</g>
</g>
<!-- Node4&#45;&gt;Node9 -->
<g id="edge8_Node000004_Node000009" class="edge">
<title>Node4&#45;&gt;Node9</title>
<g id="a_edge8_Node000004_Node000009"><a xlink:title=" ">
<path fill="none" stroke="#63b8ff" d="M557.03,-226.59C536.28,-217.98 505.85,-205.36 482.51,-195.68"/>
<polygon fill="#63b8ff" stroke="#63b8ff" points="484,-192.51 473.42,-191.91 481.31,-198.97 484,-192.51"/>
</a>
</g>
</g>
<!-- Node12 -->
<g id="Node000012" class="node">
<title>Node12</title>
<g id="a_Node000012"><a xlink:title=" ">
<polygon fill="#e0e0e0" stroke="#999999" points="608,-77.5 549.25,-77.5 549.25,-56.75 608,-56.75 608,-77.5"/>
<text xml:space="preserve" text-anchor="middle" x="578.62" y="-64" font-family="Helvetica,sans-Serif" font-size="10.00">fsl_ftm.h</text>
</a>
</g>
</g>
<!-- Node4&#45;&gt;Node12 -->
<g id="edge35_Node000004_Node000012" class="edge">
<title>Node4&#45;&gt;Node12</title>
<g id="a_edge35_Node000004_Node000012"><a xlink:title=" ">
<path fill="none" stroke="#63b8ff" d="M580.51,-226.85C580.2,-200.48 579.31,-126.08 578.88,-89.28"/>
<polygon fill="#63b8ff" stroke="#63b8ff" points="582.38,-89.44 578.76,-79.48 575.38,-89.52 582.38,-89.44"/>
</a>
</g>
</g>
<!-- Node13 -->
<g id="Node000013" class="node">
<title>Node13</title>
<g id="a_Node000013"><a xlink:title=" ">
<polygon fill="#e0e0e0" stroke="#999999" points="63.25,-77.5 0,-77.5 0,-56.75 63.25,-56.75 63.25,-77.5"/>
<text xml:space="preserve" text-anchor="middle" x="31.62" y="-64" font-family="Helvetica,sans-Serif" font-size="10.00">fsl_gpio.h</text>
</a>
</g>
</g>
<!-- Node4&#45;&gt;Node13 -->
<g id="edge36_Node000004_Node000013" class="edge">
<title>Node4&#45;&gt;Node13</title>
<g id="a_edge36_Node000004_Node000013"><a xlink:title=" ">
<path fill="none" stroke="#63b8ff" d="M540.15,-233.75C457.47,-228.01 271.99,-213.05 212.62,-191 146.8,-166.55 81.65,-113.33 50.53,-85.65"/>
<polygon fill="#63b8ff" stroke="#63b8ff" points="52.89,-83.06 43.13,-78.95 48.2,-88.25 52.89,-83.06"/>
</a>
</g>
</g>
<!-- Node14 -->
<g id="Node000014" class="node">
<title>Node14</title>
<g id="a_Node000014"><a xlink:title=" ">
<polygon fill="#e0e0e0" stroke="#999999" points="143.5,-77.5 81.75,-77.5 81.75,-56.75 143.5,-56.75 143.5,-77.5"/>
<text xml:space="preserve" text-anchor="middle" x="112.62" y="-64" font-family="Helvetica,sans-Serif" font-size="10.00">fsl_port.h</text>
</a>
</g>
</g>
<!-- Node4&#45;&gt;Node14 -->
<g id="edge37_Node000004_Node000014" class="edge">
<title>Node4&#45;&gt;Node14</title>
<g id="a_edge37_Node000004_Node000014"><a xlink:title=" ">
<path fill="none" stroke="#63b8ff" d="M540.07,-236.99C458.22,-236.22 270.84,-223.98 150.62,-134.25 135.39,-122.88 125.29,-103.45 119.36,-88.59"/>
<polygon fill="#63b8ff" stroke="#63b8ff" points="122.69,-87.52 115.99,-79.32 116.11,-89.91 122.69,-87.52"/>
</a>
</g>
</g>
<!-- Node21 -->
<g id="Node000021" class="node">
<title>Node21</title>
<g id="a_Node000021"><a xlink:href="tmc2209__core_8h.html" target="_top" xlink:title=" ">
<polygon fill="white" stroke="#666666" points="808.62,-191 714.62,-191 714.62,-170.25 808.62,-170.25 808.62,-191"/>
<text xml:space="preserve" text-anchor="middle" x="761.62" y="-177.5" font-family="Helvetica,sans-Serif" font-size="10.00">tmc2209_core.h</text>
</a>
</g>
</g>
<!-- Node4&#45;&gt;Node21 -->
<g id="edge29_Node000004_Node000021" class="edge">
<title>Node4&#45;&gt;Node21</title>
<g id="a_edge29_Node000004_Node000021"><a xlink:title=" ">
<path fill="none" stroke="#63b8ff" d="M612.98,-226.59C642.36,-217.7 685.92,-204.52 718.3,-194.73"/>
<polygon fill="#63b8ff" stroke="#63b8ff" points="719.23,-198.1 727.79,-191.86 717.21,-191.4 719.23,-198.1"/>
</a>
</g>
</g>
<!-- Node6 -->
<g id="Node000006" class="node">
<title>Node6</title>
<g id="a_Node000006"><a xlink:title=" ">
<polygon fill="#e0e0e0" stroke="#999999" points="840.12,-20.75 755.12,-20.75 755.12,0 840.12,0 840.12,-20.75"/>
<text xml:space="preserve" text-anchor="middle" x="797.62" y="-7.25" font-family="Helvetica,sans-Serif" font-size="10.00">fsl_common.h</text>
</a>
</g>
</g>
<!-- Node5&#45;&gt;Node6 -->
<g id="edge5_Node000005_Node000006" class="edge">
<title>Node5&#45;&gt;Node6</title>
<g id="a_edge5_Node000005_Node000006"><a xlink:title=" ">
<path fill="none" stroke="#63b8ff" d="M516.34,-56.27C581.16,-45.93 682.08,-29.82 743.78,-19.97"/>
<polygon fill="#63b8ff" stroke="#63b8ff" points="744.01,-23.48 753.33,-18.44 742.91,-16.56 744.01,-23.48"/>
</a>
</g>
</g>
<!-- Node7 -->
<g id="Node000007" class="node">
<title>Node7</title>
<g id="a_Node000007"><a xlink:title=" ">
<polygon fill="#e0e0e0" stroke="#999999" points="353.5,-20.75 273.75,-20.75 273.75,0 353.5,0 353.5,-20.75"/>
<text xml:space="preserve" text-anchor="middle" x="313.62" y="-7.25" font-family="Helvetica,sans-Serif" font-size="10.00">peripherals.h</text>
</a>
</g>
</g>
<!-- Node5&#45;&gt;Node7 -->
<g id="edge6_Node000005_Node000007" class="edge">
<title>Node5&#45;&gt;Node7</title>
<g id="a_edge6_Node000005_Node000007"><a xlink:title=" ">
<path fill="none" stroke="#63b8ff" d="M429.42,-56.34C407.06,-47.66 374.17,-34.88 349.15,-25.17"/>
<polygon fill="#63b8ff" stroke="#63b8ff" points="350.61,-21.98 340.03,-21.63 348.08,-28.51 350.61,-21.98"/>
</a>
</g>
</g>
<!-- Node9&#45;&gt;Node5 -->
<g id="edge9_Node000009_Node000005" class="edge">
<title>Node9&#45;&gt;Node5</title>
<g id="a_edge9_Node000009_Node000005"><a xlink:title=" ">
<path fill="none" stroke="#63b8ff" d="M449.14,-170.12C450.1,-152.27 452.19,-113.36 453.5,-89.09"/>
<polygon fill="#63b8ff" stroke="#63b8ff" points="456.97,-89.61 454.02,-79.44 449.98,-89.23 456.97,-89.61"/>
</a>
</g>
</g>
<!-- Node9&#45;&gt;Node6 -->
<g id="edge12_Node000009_Node000006" class="edge">
<title>Node9&#45;&gt;Node6</title>
<g id="a_edge12_Node000009_Node000006"><a xlink:title=" ">
<path fill="none" stroke="#63b8ff" d="M465.96,-169.84C482.02,-160.74 506.53,-146.74 527.62,-134.25 556.07,-117.4 624.54,-70.46 654.62,-56.75 684.21,-43.27 718.93,-32.15 746.75,-24.29"/>
<polygon fill="#63b8ff" stroke="#63b8ff" points="747.67,-27.67 756.37,-21.63 745.8,-20.92 747.67,-27.67"/>
</a>
</g>
</g>
<!-- Node9&#45;&gt;Node10 -->
<g id="edge10_Node000009_Node000010" class="edge">
<title>Node9&#45;&gt;Node10</title>
<g id="a_edge10_Node000009_Node000010"><a xlink:title=" ">
<path fill="none" stroke="#63b8ff" d="M485.23,-176.77C585.7,-168.8 859.27,-146.11 874.62,-134.25 888.59,-123.46 894.75,-103.94 897.47,-88.9"/>
<polygon fill="#63b8ff" stroke="#63b8ff" points="900.93,-89.48 898.84,-79.1 893.99,-88.52 900.93,-89.48"/>
</a>
</g>
</g>
<!-- Node11 -->
<g id="Node000011" class="node">
<title>Node11</title>
<g id="a_Node000011"><a xlink:title=" ">
<polygon fill="#e0e0e0" stroke="#999999" points="205.62,-134.25 159.62,-134.25 159.62,-113.5 205.62,-113.5 205.62,-134.25"/>
<text xml:space="preserve" text-anchor="middle" x="182.62" y="-120.75" font-family="Helvetica,sans-Serif" font-size="10.00">task.h</text>
</a>
</g>
</g>
<!-- Node9&#45;&gt;Node11 -->
<g id="edge11_Node000009_Node000011" class="edge">
<title>Node9&#45;&gt;Node11</title>
<g id="a_edge11_Node000009_Node000011"><a xlink:title=" ">
<path fill="none" stroke="#63b8ff" d="M412.01,-172.98C366.7,-164.62 287.23,-149.5 219.62,-134.25 218.8,-134.06 217.97,-133.87 217.13,-133.68"/>
<polygon fill="#63b8ff" stroke="#63b8ff" points="218.08,-130.31 207.54,-131.37 216.44,-137.11 218.08,-130.31"/>
</a>
</g>
</g>
<!-- Node9&#45;&gt;Node12 -->
<g id="edge13_Node000009_Node000012" class="edge">
<title>Node9&#45;&gt;Node12</title>
<g id="a_edge13_Node000009_Node000012"><a xlink:title=" ">
<path fill="none" stroke="#63b8ff" d="M459.71,-170.12C481.66,-151.29 530.95,-109.01 558.69,-85.22"/>
<polygon fill="#63b8ff" stroke="#63b8ff" points="560.74,-88.08 566.05,-78.91 556.18,-82.76 560.74,-88.08"/>
</a>
</g>
</g>
<!-- Node9&#45;&gt;Node13 -->
<g id="edge14_Node000009_Node000013" class="edge">
<title>Node9&#45;&gt;Node13</title>
<g id="a_edge14_Node000009_Node000013"><a xlink:title=" ">
<path fill="none" stroke="#63b8ff" d="M412.33,-178.24C355.21,-175.14 241.5,-165.29 150.62,-134.25 114.97,-122.07 77.58,-99.42 54.44,-84.06"/>
<polygon fill="#63b8ff" stroke="#63b8ff" points="56.65,-81.33 46.4,-78.63 52.73,-87.13 56.65,-81.33"/>
</a>
</g>
</g>
<!-- Node9&#45;&gt;Node14 -->
<g id="edge15_Node000009_Node000014" class="edge">
<title>Node9&#45;&gt;Node14</title>
<g id="a_edge15_Node000009_Node000014"><a xlink:title=" ">
<path fill="none" stroke="#63b8ff" d="M412.04,-173.38C373.09,-166.16 309.97,-152.85 257.62,-134.25 237.63,-127.15 233.88,-122.42 214.62,-113.5 191.63,-102.84 165.51,-91.23 145.46,-82.42"/>
<polygon fill="#63b8ff" stroke="#63b8ff" points="146.95,-79.25 136.39,-78.45 144.14,-85.67 146.95,-79.25"/>
</a>
</g>
</g>
<!-- Node9&#45;&gt;Node15 -->
<g id="edge16_Node000009_Node000015" class="edge">
<title>Node9&#45;&gt;Node15</title>
<g id="a_edge16_Node000009_Node000015"><a xlink:title=" ">
<path fill="none" stroke="#63b8ff" d="M485.15,-176.24C585.74,-166.92 867.18,-140.85 985.81,-129.86"/>
<polygon fill="#63b8ff" stroke="#63b8ff" points="985.97,-133.36 995.6,-128.95 985.32,-126.39 985.97,-133.36"/>
</a>
</g>
</g>
<!-- Node19 -->
<g id="Node000019" class="node">
<title>Node19</title>
<g id="a_Node000019"><a xlink:href="step__shared_8h.html" target="_top" xlink:title=" ">
<polygon fill="white" stroke="#666666" points="391.75,-134.25 307.5,-134.25 307.5,-113.5 391.75,-113.5 391.75,-134.25"/>
<text xml:space="preserve" text-anchor="middle" x="349.62" y="-120.75" font-family="Helvetica,sans-Serif" font-size="10.00">step_shared.h</text>
</a>
</g>
</g>
<!-- Node9&#45;&gt;Node19 -->
<g id="edge22_Node000009_Node000019" class="edge">
<title>Node9&#45;&gt;Node19</title>
<g id="a_edge22_Node000009_Node000019"><a xlink:title=" ">
<path fill="none" stroke="#63b8ff" d="M430.93,-169.84C416,-161.58 394.39,-149.63 377.2,-140.13"/>
<polygon fill="#63b8ff" stroke="#63b8ff" points="378.94,-137.09 368.5,-135.31 375.55,-143.21 378.94,-137.09"/>
</a>
</g>
</g>
<!-- Node15&#45;&gt;Node6 -->
<g id="edge20_Node000015_Node000006" class="edge">
<title>Node15&#45;&gt;Node6</title>
<g id="a_edge20_Node000015_Node000006"><a xlink:title=" ">
<path fill="none" stroke="#63b8ff" d="M1038.82,-113.13C1037.07,-98.57 1031.6,-71.27 1014.62,-56.75 990.55,-36.15 907.67,-23.28 851.6,-16.72"/>
<polygon fill="#63b8ff" stroke="#63b8ff" points="852.25,-13.27 841.92,-15.62 851.46,-20.22 852.25,-13.27"/>
</a>
</g>
</g>
<!-- Node15&#45;&gt;Node10 -->
<g id="edge18_Node000015_Node000010" class="edge">
<title>Node15&#45;&gt;Node10</title>
<g id="a_edge18_Node000015_Node000010"><a xlink:title=" ">
<path fill="none" stroke="#63b8ff" d="M1014.6,-113.09C992.4,-104.41 959.74,-91.63 934.89,-81.92"/>
<polygon fill="#63b8ff" stroke="#63b8ff" points="936.44,-78.76 925.85,-78.38 933.89,-85.28 936.44,-78.76"/>
</a>
</g>
</g>
<!-- Node16 -->
<g id="Node000016" class="node">
<title>Node16</title>
<g id="a_Node000016"><a xlink:title=" ">
<polygon fill="#e0e0e0" stroke="#999999" points="1224,-77.5 1171.25,-77.5 1171.25,-56.75 1224,-56.75 1224,-77.5"/>
<text xml:space="preserve" text-anchor="middle" x="1197.62" y="-64" font-family="Helvetica,sans-Serif" font-size="10.00">stdint.h</text>
</a>
</g>
</g>
<!-- Node15&#45;&gt;Node16 -->
<g id="edge17_Node000015_Node000016" class="edge">
<title>Node15&#45;&gt;Node16</title>
<g id="a_edge17_Node000015_Node000016"><a xlink:title=" ">
<path fill="none" stroke="#63b8ff" d="M1067.87,-113.09C1093.65,-104.15 1131.94,-90.89 1160.25,-81.08"/>
<polygon fill="#63b8ff" stroke="#63b8ff" points="1161.21,-84.45 1169.51,-77.87 1158.91,-77.84 1161.21,-84.45"/>
</a>
</g>
</g>
<!-- Node17 -->
<g id="Node000017" class="node">
<title>Node17</title>
<g id="a_Node000017"><a xlink:title=" ">
<polygon fill="#e0e0e0" stroke="#999999" points="1153.12,-77.5 1062.12,-77.5 1062.12,-56.75 1153.12,-56.75 1153.12,-77.5"/>
<text xml:space="preserve" text-anchor="middle" x="1107.62" y="-64" font-family="Helvetica,sans-Serif" font-size="10.00">event_groups.h</text>
</a>
</g>
</g>
<!-- Node15&#45;&gt;Node17 -->
<g id="edge19_Node000015_Node000017" class="edge">
<title>Node15&#45;&gt;Node17</title>
<g id="a_edge19_Node000015_Node000017"><a xlink:title=" ">
<path fill="none" stroke="#63b8ff" d="M1051.78,-113.09C1061.45,-105.3 1075.21,-94.22 1086.65,-85.01"/>
<polygon fill="#63b8ff" stroke="#63b8ff" points="1088.8,-87.78 1094.39,-78.78 1084.41,-82.32 1088.8,-87.78"/>
</a>
</g>
</g>
<!-- Node18 -->
<g id="Node000018" class="node">
<title>Node18</title>
<g id="a_Node000018"><a xlink:title=" ">
<polygon fill="#e0e0e0" stroke="#999999" points="1005.62,-77.5 953.62,-77.5 953.62,-56.75 1005.62,-56.75 1005.62,-77.5"/>
<text xml:space="preserve" text-anchor="middle" x="979.62" y="-64" font-family="Helvetica,sans-Serif" font-size="10.00">stdlib.h</text>
</a>
</g>
</g>
<!-- Node15&#45;&gt;Node18 -->
<g id="edge21_Node000015_Node000018" class="edge">
<title>Node15&#45;&gt;Node18</title>
<g id="a_edge21_Node000015_Node000018"><a xlink:title=" ">
<path fill="none" stroke="#63b8ff" d="M1028.9,-113.09C1020.54,-105.46 1008.71,-94.67 998.74,-85.57"/>
<polygon fill="#63b8ff" stroke="#63b8ff" points="1001.12,-83 991.38,-78.85 996.4,-88.17 1001.12,-83"/>
</a>
</g>
</g>
<!-- Node19&#45;&gt;Node5 -->
<g id="edge23_Node000019_Node000005" class="edge">
<title>Node19&#45;&gt;Node5</title>
<g id="a_edge23_Node000019_Node000005"><a xlink:title=" ">
<path fill="none" stroke="#63b8ff" d="M368.4,-113.09C384.37,-104.76 407.58,-92.66 425.89,-83.11"/>
<polygon fill="#63b8ff" stroke="#63b8ff" points="427.42,-86.26 434.67,-78.53 424.19,-80.05 427.42,-86.26"/>
</a>
</g>
</g>
<!-- Node19&#45;&gt;Node6 -->
<g id="edge25_Node000019_Node000006" class="edge">
<title>Node19&#45;&gt;Node6</title>
<g id="a_edge25_Node000019_Node000006"><a xlink:title=" ">
<path fill="none" stroke="#63b8ff" d="M349.29,-113.48C349.34,-98.86 351.79,-70.88 368.62,-56.75 396.82,-33.09 634.69,-19.01 743.59,-13.75"/>
<polygon fill="#63b8ff" stroke="#63b8ff" points="743.62,-17.25 753.45,-13.28 743.29,-10.26 743.62,-17.25"/>
</a>
</g>
</g>
<!-- Node19&#45;&gt;Node12 -->
<g id="edge26_Node000019_Node000012" class="edge">
<title>Node19&#45;&gt;Node12</title>
<g id="a_edge26_Node000019_Node000012"><a xlink:title=" ">
<path fill="none" stroke="#63b8ff" d="M391.38,-113.06C427.67,-104.51 481.96,-91.66 537.62,-78.22"/>
<polygon fill="#63b8ff" stroke="#63b8ff" points="538.39,-81.63 547.29,-75.87 536.75,-74.82 538.39,-81.63"/>
</a>
</g>
</g>
<!-- Node19&#45;&gt;Node13 -->
<g id="edge27_Node000019_Node000013" class="edge">
<title>Node19&#45;&gt;Node13</title>
<g id="a_edge27_Node000019_Node000013"><a xlink:title=" ">
<path fill="none" stroke="#63b8ff" d="M307.24,-116.77C254.95,-109.06 163.09,-94.91 74.44,-77.75"/>
<polygon fill="#63b8ff" stroke="#63b8ff" points="75.34,-74.36 64.85,-75.88 74,-81.23 75.34,-74.36"/>
</a>
</g>
</g>
<!-- Node19&#45;&gt;Node14 -->
<g id="edge28_Node000019_Node000014" class="edge">
<title>Node19&#45;&gt;Node14</title>
<g id="a_edge28_Node000019_Node000014"><a xlink:title=" ">
<path fill="none" stroke="#63b8ff" d="M307.25,-113.09C264.2,-103.14 197.9,-87.82 154.89,-77.89"/>
<polygon fill="#63b8ff" stroke="#63b8ff" points="155.68,-74.48 145.15,-75.64 154.11,-81.3 155.68,-74.48"/>
</a>
</g>
</g>
<!-- Node20 -->
<g id="Node000020" class="node">
<title>Node20</title>
<g id="a_Node000020"><a xlink:title=" ">
<polygon fill="#e0e0e0" stroke="#999999" points="321.88,-77.5 199.38,-77.5 199.38,-56.75 321.88,-56.75 321.88,-77.5"/>
<text xml:space="preserve" text-anchor="middle" x="260.62" y="-64" font-family="Helvetica,sans-Serif" font-size="10.00">fsl_device_registers.h</text>
</a>
</g>
</g>
<!-- Node19&#45;&gt;Node20 -->
<g id="edge24_Node000019_Node000020" class="edge">
<title>Node19&#45;&gt;Node20</title>
<g id="a_edge24_Node000019_Node000020"><a xlink:title=" ">
<path fill="none" stroke="#63b8ff" d="M333.71,-113.09C320.42,-104.91 301.24,-93.11 285.86,-83.65"/>
<polygon fill="#63b8ff" stroke="#63b8ff" points="288.04,-80.88 277.69,-78.62 284.37,-86.84 288.04,-80.88"/>
</a>
</g>
</g>
<!-- Node21&#45;&gt;Node6 -->
<g id="edge32_Node000021_Node000006" class="edge">
<title>Node21&#45;&gt;Node6</title>
<g id="a_edge32_Node000021_Node000006"><a xlink:title=" ">
<path fill="none" stroke="#63b8ff" d="M765.86,-170.07C769.72,-161.02 775.3,-146.95 778.62,-134.25 787.84,-99.04 793.16,-56.91 795.72,-32.25"/>
<polygon fill="#63b8ff" stroke="#63b8ff" points="799.17,-32.87 796.66,-22.58 792.2,-32.19 799.17,-32.87"/>
</a>
</g>
</g>
<!-- Node21&#45;&gt;Node7 -->
<g id="edge34_Node000021_Node000007" class="edge">
<title>Node21&#45;&gt;Node7</title>
<g id="a_edge34_Node000021_Node000007"><a xlink:title=" ">
<path fill="none" stroke="#63b8ff" d="M714.31,-171.44C711.37,-171.01 708.46,-170.61 705.62,-170.25 525.49,-147.24 472.84,-185.48 298.62,-134.25 285.62,-130.43 197.64,-89.1 190.62,-77.5 171.22,-45.38 220.26,-27.92 262.06,-19.14"/>
<polygon fill="#63b8ff" stroke="#63b8ff" points="262.69,-22.59 271.84,-17.23 261.35,-15.72 262.69,-22.59"/>
</a>
</g>
</g>
<!-- Node21&#45;&gt;Node15 -->
<g id="edge33_Node000021_Node000015" class="edge">
<title>Node21&#45;&gt;Node15</title>
<g id="a_edge33_Node000021_Node000015"><a xlink:title=" ">
<path fill="none" stroke="#63b8ff" d="M809.1,-170.28C858.26,-160.59 934.93,-145.49 986.18,-135.4"/>
<polygon fill="#63b8ff" stroke="#63b8ff" points="986.73,-138.86 995.87,-133.49 985.38,-131.99 986.73,-138.86"/>
</a>
</g>
</g>
<!-- Node22 -->
<g id="Node000022" class="node">
<title>Node22</title>
<g id="a_Node000022"><a xlink:href="tmc2209__shared_8h.html" target="_top" xlink:title=" ">
<polygon fill="white" stroke="#666666" points="769.62,-134.25 663.62,-134.25 663.62,-113.5 769.62,-113.5 769.62,-134.25"/>
<text xml:space="preserve" text-anchor="middle" x="716.62" y="-120.75" font-family="Helvetica,sans-Serif" font-size="10.00">tmc2209_shared.h</text>
</a>
</g>
</g>
<!-- Node21&#45;&gt;Node22 -->
<g id="edge30_Node000021_Node000022" class="edge">
<title>Node21&#45;&gt;Node22</title>
<g id="a_edge30_Node000021_Node000022"><a xlink:title=" ">
<path fill="none" stroke="#63b8ff" d="M753.58,-169.84C747.56,-162.52 739.16,-152.29 731.88,-143.44"/>
<polygon fill="#63b8ff" stroke="#63b8ff" points="734.62,-141.25 725.56,-135.75 729.21,-145.7 734.62,-141.25"/>
</a>
</g>
</g>
<!-- Node23 -->
<g id="Node000023" class="node">
<title>Node23</title>
<g id="a_Node000023"><a xlink:title=" ">
<polygon fill="#e0e0e0" stroke="#999999" points="769.25,-77.5 664,-77.5 664,-56.75 769.25,-56.75 769.25,-77.5"/>
<text xml:space="preserve" text-anchor="middle" x="716.62" y="-64" font-family="Helvetica,sans-Serif" font-size="10.00">fsl_uart_freertos.h</text>
</a>
</g>
</g>
<!-- Node22&#45;&gt;Node23 -->
<g id="edge31_Node000022_Node000023" class="edge">
<title>Node22&#45;&gt;Node23</title>
<g id="a_edge31_Node000022_Node000023"><a xlink:title=" ">
<path fill="none" stroke="#63b8ff" d="M716.62,-113.09C716.62,-106.47 716.62,-97.47 716.62,-89.27"/>
<polygon fill="#63b8ff" stroke="#63b8ff" points="720.13,-89.34 716.63,-79.34 713.13,-89.34 720.13,-89.34"/>
</a>
</g>
</g>
<!-- Node25&#45;&gt;Node4 -->
<g id="edge42_Node000025_Node000004" class="edge">
<title>Node25&#45;&gt;Node4</title>
<g id="a_edge42_Node000025_Node000004"><a xlink:title=" ">
<path fill="none" stroke="#63b8ff" d="M658.64,-283.34C644.32,-275.08 623.58,-263.13 607.09,-253.63"/>
<polygon fill="#63b8ff" stroke="#63b8ff" points="609.19,-250.8 598.77,-248.83 605.69,-256.86 609.19,-250.8"/>
</a>
</g>
</g>
<!-- Node26&#45;&gt;Node6 -->
<g id="edge45_Node000026_Node000006" class="edge">
<title>Node26&#45;&gt;Node6</title>
<g id="a_edge45_Node000026_Node000006"><a xlink:title=" ">
<path fill="none" stroke="#63b8ff" d="M841.53,-113.37C833.78,-95.36 816.79,-55.89 806.37,-31.68"/>
<polygon fill="#63b8ff" stroke="#63b8ff" points="809.61,-30.37 802.44,-22.57 803.18,-33.13 809.61,-30.37"/>
</a>
</g>
</g>
<!-- Node26&#45;&gt;Node10 -->
<g id="edge44_Node000026_Node000010" class="edge">
<title>Node26&#45;&gt;Node10</title>
<g id="a_edge44_Node000026_Node000010"><a xlink:title=" ">
<path fill="none" stroke="#63b8ff" d="M855.28,-113.09C862.73,-105.53 873.23,-94.89 882.15,-85.85"/>
<polygon fill="#63b8ff" stroke="#63b8ff" points="884.46,-88.48 888.99,-78.91 879.48,-83.57 884.46,-88.48"/>
</a>
</g>
</g>
<!-- Node28&#45;&gt;Node6 -->
<g id="edge52_Node000028_Node000006" class="edge">
<title>Node28&#45;&gt;Node6</title>
<g id="a_edge52_Node000028_Node000006"><a xlink:title=" ">
<path fill="none" stroke="#63b8ff" d="M1131.59,-169.84C1178.07,-149.55 1272.55,-101.06 1232.62,-56.75 1207.56,-28.93 962.82,-17.04 851.85,-13.05"/>
<polygon fill="#63b8ff" stroke="#63b8ff" points="852.21,-9.56 842.1,-12.71 851.97,-16.56 852.21,-9.56"/>
</a>
</g>
</g>
<!-- Node28&#45;&gt;Node10 -->
<g id="edge50_Node000028_Node000010" class="edge">
<title>Node28&#45;&gt;Node10</title>
<g id="a_edge50_Node000028_Node000010"><a xlink:title=" ">
<path fill="none" stroke="#63b8ff" d="M1074.74,-169.79C1050.23,-161.83 1016.35,-149.45 988.62,-134.25 963.13,-120.27 936.74,-99.77 919.39,-85.31"/>
<polygon fill="#63b8ff" stroke="#63b8ff" points="921.78,-82.75 911.89,-78.95 917.26,-88.09 921.78,-82.75"/>
</a>
</g>
</g>
<!-- Node28&#45;&gt;Node15 -->
<g id="edge53_Node000028_Node000015" class="edge">
<title>Node28&#45;&gt;Node15</title>
<g id="a_edge53_Node000028_Node000015"><a xlink:title=" ">
<path fill="none" stroke="#63b8ff" d="M1095.47,-169.84C1085.8,-162.05 1072.04,-150.97 1060.6,-141.76"/>
<polygon fill="#63b8ff" stroke="#63b8ff" points="1062.84,-139.07 1052.86,-135.53 1058.45,-144.53 1062.84,-139.07"/>
</a>
</g>
</g>
<!-- Node28&#45;&gt;Node16 -->
<g id="edge49_Node000028_Node000016" class="edge">
<title>Node28&#45;&gt;Node16</title>
<g id="a_edge49_Node000028_Node000016"><a xlink:title=" ">
<path fill="none" stroke="#63b8ff" d="M1115.3,-170.12C1130.17,-151.7 1163.15,-110.84 1182.55,-86.8"/>
<polygon fill="#63b8ff" stroke="#63b8ff" points="1185.21,-89.08 1188.76,-79.1 1179.76,-84.69 1185.21,-89.08"/>
</a>
</g>
</g>
<!-- Node28&#45;&gt;Node17 -->
<g id="edge51_Node000028_Node000017" class="edge">
<title>Node28&#45;&gt;Node17</title>
<g id="a_edge51_Node000028_Node000017"><a xlink:title=" ">
<path fill="none" stroke="#63b8ff" d="M1107.62,-170.12C1107.62,-152.35 1107.62,-113.72 1107.62,-89.43"/>
<polygon fill="#63b8ff" stroke="#63b8ff" points="1111.13,-89.44 1107.63,-79.44 1104.13,-89.44 1111.13,-89.44"/>
</a>
</g>
</g>
</g>
</svg>
