<?xml version="1.0" encoding="UTF-8" standalone="no"?>
<!DOCTYPE svg PUBLIC "-//W3C//DTD SVG 1.1//EN"
 "http://www.w3.org/Graphics/SVG/1.1/DTD/svg11.dtd">
<!-- Generated by graphviz version 14.1.5 (0)
 -->
<!-- Title: source/motion/motor/motor_motion.c Pages: 1 -->
<svg width="1266pt" height="439pt"
 viewBox="0.00 0.00 1266.00 439.00" xmlns="http://www.w3.org/2000/svg" xmlns:xlink="http://www.w3.org/1999/xlink">
<g id="graph0" class="graph" transform="scale(1 1) rotate(0) translate(4 434.75)">
<title>source/motion/motor/motor_motion.c</title>
<!-- Node1 -->
<g id="Node000001" class="node">
<title>Node1</title>
<g id="a_Node000001"><a xlink:title=" ">
<polygon fill="#999999" stroke="#666666" points="791.5,-430.75 673.5,-430.75 673.5,-397.25 791.5,-397.25 791.5,-430.75"/>
<text xml:space="preserve" text-anchor="start" x="681.5" y="-417.25" font-family="Helvetica,sans-Serif" font-size="10.00">source/motion/motor</text>
<text xml:space="preserve" text-anchor="middle" x="732.5" y="-404.5" font-family="Helvetica,sans-Serif" font-size="10.00">/motor_motion.c</text>
</a>
</g>
</g>
<!-- Node2 -->
<g id="Node000002" class="node">
<title>Node2</title>
<g id="a_Node000002"><a xlink:href="log_8h.html" target="_top" xlink:title=" ">
<polygon fill="white" stroke="#666666" points="109,-134.25 0,-134.25 0,-113.5 109,-113.5 109,-134.25"/>
<text xml:space="preserve" text-anchor="middle" x="54.5" y="-120.75" font-family="Helvetica,sans-Serif" font-size="10.00">infrastructure/log.h</text>
</a>
</g>
</g>
<!-- Node1&#45;&gt;Node2 -->
<g id="edge1_Node000001_Node000002" class="edge">
<title>Node1&#45;&gt;Node2</title>
<g id="a_edge1_Node000001_Node000002"><a xlink:title=" ">
<path fill="none" stroke="#63b8ff" d="M673.22,-408.55C511.98,-395.67 77.5,-355.35 77.5,-295.12 77.5,-295.12 77.5,-295.12 77.5,-236.38 77.5,-204.02 68.1,-167.46 61.32,-145.29"/>
<polygon fill="#63b8ff" stroke="#63b8ff" points="64.73,-144.48 58.35,-136.02 58.06,-146.61 64.73,-144.48"/>
</a>
</g>
</g>
<!-- Node5 -->
<g id="Node000005" class="node">
<title>Node5</title>
<g id="a_Node000005"><a xlink:href="motor__motion_8h.html" target="_top" xlink:title=" ">
<polygon fill="white" stroke="#666666" points="574.5,-361.25 480.5,-361.25 480.5,-340.5 574.5,-340.5 574.5,-361.25"/>
<text xml:space="preserve" text-anchor="middle" x="527.5" y="-347.75" font-family="Helvetica,sans-Serif" font-size="10.00">motor_motion.h</text>
</a>
</g>
</g>
<!-- Node1&#45;&gt;Node5 -->
<g id="edge4_Node000001_Node000005" class="edge">
<title>Node1&#45;&gt;Node5</title>
<g id="a_edge4_Node000001_Node000005"><a xlink:title=" ">
<path fill="none" stroke="#63b8ff" d="M678.1,-396.78C644.72,-386.83 602.53,-374.25 571.31,-364.94"/>
<polygon fill="#63b8ff" stroke="#63b8ff" points="572.37,-361.6 561.78,-362.1 570.37,-368.31 572.37,-361.6"/>
</a>
</g>
</g>
<!-- Node13 -->
<g id="Node000013" class="node">
<title>Node13</title>
<g id="a_Node000013"><a xlink:href="step__core_8h.html" target="_top" xlink:title=" ">
<polygon fill="white" stroke="#666666" points="857.62,-191 785.38,-191 785.38,-170.25 857.62,-170.25 857.62,-191"/>
<text xml:space="preserve" text-anchor="middle" x="821.5" y="-177.5" font-family="Helvetica,sans-Serif" font-size="10.00">step_core.h</text>
</a>
</g>
</g>
<!-- Node1&#45;&gt;Node13 -->
<g id="edge54_Node000001_Node000013" class="edge">
<title>Node1&#45;&gt;Node13</title>
<g id="a_edge54_Node000001_Node000013"><a xlink:title=" ">
<path fill="none" stroke="#63b8ff" d="M738.62,-397.1C754.37,-356.13 796.33,-247.06 813.75,-201.77"/>
<polygon fill="#63b8ff" stroke="#63b8ff" points="817.02,-203.03 817.34,-192.44 810.48,-200.51 817.02,-203.03"/>
</a>
</g>
</g>
<!-- Node27 -->
<g id="Node000027" class="node">
<title>Node27</title>
<g id="a_Node000027"><a xlink:href="motor__convert_8h.html" target="_top" xlink:title=" ">
<polygon fill="white" stroke="#666666" points="723.62,-304.5 627.38,-304.5 627.38,-283.75 723.62,-283.75 723.62,-304.5"/>
<text xml:space="preserve" text-anchor="middle" x="675.5" y="-291" font-family="Helvetica,sans-Serif" font-size="10.00">motor_convert.h</text>
</a>
</g>
</g>
<!-- Node1&#45;&gt;Node27 -->
<g id="edge50_Node000001_Node000027" class="edge">
<title>Node1&#45;&gt;Node27</title>
<g id="a_edge50_Node000001_Node000027"><a xlink:title=" ">
<path fill="none" stroke="#63b8ff" d="M724.81,-397.1C714.57,-375.92 696.44,-338.43 685.25,-315.29"/>
<polygon fill="#63b8ff" stroke="#63b8ff" points="688.41,-313.77 680.9,-306.3 682.1,-316.82 688.41,-313.77"/>
</a>
</g>
</g>
<!-- Node28 -->
<g id="Node000028" class="node">
<title>Node28</title>
<g id="a_Node000028"><a xlink:title=" ">
<polygon fill="#e0e0e0" stroke="#999999" points="829.75,-361.25 779.25,-361.25 779.25,-340.5 829.75,-340.5 829.75,-361.25"/>
<text xml:space="preserve" text-anchor="middle" x="804.5" y="-347.75" font-family="Helvetica,sans-Serif" font-size="10.00">math.h</text>
</a>
</g>
</g>
<!-- Node1&#45;&gt;Node28 -->
<g id="edge53_Node000001_Node000028" class="edge">
<title>Node1&#45;&gt;Node28</title>
<g id="a_edge53_Node000001_Node000028"><a xlink:title=" ">
<path fill="none" stroke="#63b8ff" d="M751.42,-396.94C761.5,-388.38 773.9,-377.85 784.19,-369.12"/>
<polygon fill="#63b8ff" stroke="#63b8ff" points="786.39,-371.84 791.75,-362.7 781.86,-366.5 786.39,-371.84"/>
</a>
</g>
</g>
<!-- Node29 -->
<g id="Node000029" class="node">
<title>Node29</title>
<g id="a_Node000029"><a xlink:title=" ">
<polygon fill="#e0e0e0" stroke="#999999" points="897,-361.25 848,-361.25 848,-340.5 897,-340.5 897,-361.25"/>
<text xml:space="preserve" text-anchor="middle" x="872.5" y="-347.75" font-family="Helvetica,sans-Serif" font-size="10.00">stdio.h</text>
</a>
</g>
</g>
<!-- Node1&#45;&gt;Node29 -->
<g id="edge55_Node000001_Node000029" class="edge">
<title>Node1&#45;&gt;Node29</title>
<g id="a_edge55_Node000001_Node000029"><a xlink:title=" ">
<path fill="none" stroke="#63b8ff" d="M769.65,-396.78C791.45,-387.26 818.74,-375.35 839.74,-366.18"/>
<polygon fill="#63b8ff" stroke="#63b8ff" points="840.93,-369.48 848.69,-362.27 838.12,-363.06 840.93,-369.48"/>
</a>
</g>
</g>
<!-- Node3 -->
<g id="Node000003" class="node">
<title>Node3</title>
<g id="a_Node000003"><a xlink:title=" ">
<polygon fill="#e0e0e0" stroke="#999999" points="182.25,-77.5 110.75,-77.5 110.75,-56.75 182.25,-56.75 182.25,-77.5"/>
<text xml:space="preserve" text-anchor="middle" x="146.5" y="-64" font-family="Helvetica,sans-Serif" font-size="10.00">FreeRTOS.h</text>
</a>
</g>
</g>
<!-- Node2&#45;&gt;Node3 -->
<g id="edge2_Node000002_Node000003" class="edge">
<title>Node2&#45;&gt;Node3</title>
<g id="a_edge2_Node000002_Node000003"><a xlink:title=" ">
<path fill="none" stroke="#63b8ff" d="M70.95,-113.09C84.68,-104.91 104.52,-93.11 120.42,-83.65"/>
<polygon fill="#63b8ff" stroke="#63b8ff" points="122.09,-86.72 128.89,-78.6 118.51,-80.71 122.09,-86.72"/>
</a>
</g>
</g>
<!-- Node4 -->
<g id="Node000004" class="node">
<title>Node4</title>
<g id="a_Node000004"><a xlink:title=" ">
<polygon fill="#e0e0e0" stroke="#999999" points="548,-20.75 463,-20.75 463,0 548,0 548,-20.75"/>
<text xml:space="preserve" text-anchor="middle" x="505.5" y="-7.25" font-family="Helvetica,sans-Serif" font-size="10.00">fsl_common.h</text>
</a>
</g>
</g>
<!-- Node2&#45;&gt;Node4 -->
<g id="edge3_Node000002_Node000004" class="edge">
<title>Node2&#45;&gt;Node4</title>
<g id="a_edge3_Node000002_Node000004"><a xlink:title=" ">
<path fill="none" stroke="#63b8ff" d="M53.35,-113.07C52.25,-98.43 52.63,-71.04 68.5,-56.75 96.46,-31.59 340.82,-18.26 451.47,-13.47"/>
<polygon fill="#63b8ff" stroke="#63b8ff" points="451.34,-16.98 461.18,-13.06 451.04,-9.99 451.34,-16.98"/>
</a>
</g>
</g>
<!-- Node6 -->
<g id="Node000006" class="node">
<title>Node6</title>
<g id="a_Node000006"><a xlink:href="motor__internal_8h.html" target="_top" xlink:title=" ">
<polygon fill="white" stroke="#666666" points="499,-304.5 402,-304.5 402,-283.75 499,-283.75 499,-304.5"/>
<text xml:space="preserve" text-anchor="middle" x="450.5" y="-291" font-family="Helvetica,sans-Serif" font-size="10.00">motor_internal.h</text>
</a>
</g>
</g>
<!-- Node5&#45;&gt;Node6 -->
<g id="edge5_Node000005_Node000006" class="edge">
<title>Node5&#45;&gt;Node6</title>
<g id="a_edge5_Node000005_Node000006"><a xlink:title=" ">
<path fill="none" stroke="#63b8ff" d="M513.73,-340.09C502.57,-332.15 486.58,-320.78 473.48,-311.46"/>
<polygon fill="#63b8ff" stroke="#63b8ff" points="475.56,-308.65 465.38,-305.71 471.5,-314.35 475.56,-308.65"/>
</a>
</g>
</g>
<!-- Node8 -->
<g id="Node000008" class="node">
<title>Node8</title>
<g id="a_Node000008"><a xlink:title=" ">
<polygon fill="#e0e0e0" stroke="#999999" points="549,-247.75 488,-247.75 488,-227 549,-227 549,-247.75"/>
<text xml:space="preserve" text-anchor="middle" x="518.5" y="-234.25" font-family="Helvetica,sans-Serif" font-size="10.00">stdbool.h</text>
</a>
</g>
</g>
<!-- Node5&#45;&gt;Node8 -->
<g id="edge49_Node000005_Node000008" class="edge">
<title>Node5&#45;&gt;Node8</title>
<g id="a_edge49_Node000005_Node000008"><a xlink:title=" ">
<path fill="none" stroke="#63b8ff" d="M526.73,-340.37C525.29,-322.52 522.15,-283.61 520.19,-259.34"/>
<polygon fill="#63b8ff" stroke="#63b8ff" points="523.71,-259.37 519.41,-249.68 516.73,-259.93 523.71,-259.37"/>
</a>
</g>
</g>
<!-- Node6&#45;&gt;Node3 -->
<g id="edge46_Node000006_Node000003" class="edge">
<title>Node6&#45;&gt;Node3</title>
<g id="a_edge46_Node000006_Node000003"><a xlink:title=" ">
<path fill="none" stroke="#63b8ff" d="M401.63,-286.6C369.18,-280.5 326.77,-269 294.5,-247.75 229.36,-204.85 178.31,-124.52 157.13,-87.6"/>
<polygon fill="#63b8ff" stroke="#63b8ff" points="160.22,-85.95 152.28,-78.94 154.12,-89.37 160.22,-85.95"/>
</a>
</g>
</g>
<!-- Node7 -->
<g id="Node000007" class="node">
<title>Node7</title>
<g id="a_Node000007"><a xlink:title=" ">
<polygon fill="#e0e0e0" stroke="#999999" points="593.88,-77.5 541.12,-77.5 541.12,-56.75 593.88,-56.75 593.88,-77.5"/>
<text xml:space="preserve" text-anchor="middle" x="567.5" y="-64" font-family="Helvetica,sans-Serif" font-size="10.00">stdint.h</text>
</a>
</g>
</g>
<!-- Node6&#45;&gt;Node7 -->
<g id="edge6_Node000006_Node000007" class="edge">
<title>Node6&#45;&gt;Node7</title>
<g id="a_edge6_Node000006_Node000007"><a xlink:title=" ">
<path fill="none" stroke="#63b8ff" d="M453.33,-283.51C457.59,-270.04 466.55,-245.17 479.5,-227 493.19,-207.79 505.13,-210.44 518.5,-191 540.87,-158.48 555.29,-114.24 562.35,-88.67"/>
<polygon fill="#63b8ff" stroke="#63b8ff" points="565.68,-89.78 564.84,-79.22 558.91,-88 565.68,-89.78"/>
</a>
</g>
</g>
<!-- Node6&#45;&gt;Node8 -->
<g id="edge7_Node000006_Node000008" class="edge">
<title>Node6&#45;&gt;Node8</title>
<g id="a_edge7_Node000006_Node000008"><a xlink:title=" ">
<path fill="none" stroke="#63b8ff" d="M462.66,-283.34C472.33,-275.55 486.08,-264.47 497.52,-255.26"/>
<polygon fill="#63b8ff" stroke="#63b8ff" points="499.68,-258.03 505.27,-249.03 495.29,-252.57 499.68,-258.03"/>
</a>
</g>
</g>
<!-- Node9 -->
<g id="Node000009" class="node">
<title>Node9</title>
<g id="a_Node000009"><a xlink:href="motor__core_8h.html" target="_top" xlink:title=" ">
<polygon fill="white" stroke="#666666" points="723.75,-247.75 643.25,-247.75 643.25,-227 723.75,-227 723.75,-247.75"/>
<text xml:space="preserve" text-anchor="middle" x="683.5" y="-234.25" font-family="Helvetica,sans-Serif" font-size="10.00">motor_core.h</text>
</a>
</g>
</g>
<!-- Node6&#45;&gt;Node9 -->
<g id="edge8_Node000006_Node000009" class="edge">
<title>Node6&#45;&gt;Node9</title>
<g id="a_edge8_Node000006_Node000009"><a xlink:title=" ">
<path fill="none" stroke="#63b8ff" d="M492.42,-283.27C531.55,-274.08 590.03,-260.34 631.99,-250.48"/>
<polygon fill="#63b8ff" stroke="#63b8ff" points="632.67,-253.91 641.61,-248.22 631.07,-247.1 632.67,-253.91"/>
</a>
</g>
</g>
<!-- Node18 -->
<g id="Node000018" class="node">
<title>Node18</title>
<g id="a_Node000018"><a xlink:href="cmd__handle_8h.html" target="_top" xlink:title=" ">
<polygon fill="white" stroke="#666666" points="347.62,-134.25 263.38,-134.25 263.38,-113.5 347.62,-113.5 347.62,-134.25"/>
<text xml:space="preserve" text-anchor="middle" x="305.5" y="-120.75" font-family="Helvetica,sans-Serif" font-size="10.00">cmd_handle.h</text>
</a>
</g>
</g>
<!-- Node6&#45;&gt;Node18 -->
<g id="edge48_Node000006_Node000018" class="edge">
<title>Node6&#45;&gt;Node18</title>
<g id="a_edge48_Node000006_Node000018"><a xlink:title=" ">
<path fill="none" stroke="#63b8ff" d="M442.29,-283.6C418.97,-256.54 352.06,-178.9 321.3,-143.21"/>
<polygon fill="#63b8ff" stroke="#63b8ff" points="324.15,-141.15 314.97,-135.86 318.85,-145.72 324.15,-141.15"/>
</a>
</g>
</g>
<!-- Node26 -->
<g id="Node000026" class="node">
<title>Node26</title>
<g id="a_Node000026"><a xlink:title=" ">
<polygon fill="#e0e0e0" stroke="#999999" points="359,-247.75 304,-247.75 304,-227 359,-227 359,-247.75"/>
<text xml:space="preserve" text-anchor="middle" x="331.5" y="-234.25" font-family="Helvetica,sans-Serif" font-size="10.00">queue.h</text>
</a>
</g>
</g>
<!-- Node6&#45;&gt;Node26 -->
<g id="edge47_Node000006_Node000026" class="edge">
<title>Node6&#45;&gt;Node26</title>
<g id="a_edge47_Node000006_Node000026"><a xlink:title=" ">
<path fill="none" stroke="#63b8ff" d="M429.23,-283.34C410.78,-274.85 383.84,-262.45 362.91,-252.83"/>
<polygon fill="#63b8ff" stroke="#63b8ff" points="364.51,-249.71 353.97,-248.71 361.59,-256.07 364.51,-249.71"/>
</a>
</g>
</g>
<!-- Node10 -->
<g id="Node000010" class="node">
<title>Node10</title>
<g id="a_Node000010"><a xlink:href="pca9555a_8h.html" target="_top" xlink:title=" ">
<polygon fill="white" stroke="#666666" points="1143.5,-77.5 989.5,-77.5 989.5,-56.75 1143.5,-56.75 1143.5,-77.5"/>
<text xml:space="preserve" text-anchor="middle" x="1066.5" y="-64" font-family="Helvetica,sans-Serif" font-size="10.00">driver/pca9555a/pca9555a.h</text>
</a>
</g>
</g>
<!-- Node9&#45;&gt;Node10 -->
<g id="edge9_Node000009_Node000010" class="edge">
<title>Node9&#45;&gt;Node10</title>
<g id="a_edge9_Node000009_Node000010"><a xlink:title=" ">
<path fill="none" stroke="#63b8ff" d="M724.06,-233.23C823.27,-224.61 1073.68,-196.96 1123.5,-134.25 1137.52,-116.61 1116.03,-97.15 1095.55,-83.94"/>
<polygon fill="#63b8ff" stroke="#63b8ff" points="1097.39,-80.97 1087.03,-78.78 1093.77,-86.96 1097.39,-80.97"/>
</a>
</g>
</g>
<!-- Node12 -->
<g id="Node000012" class="node">
<title>Node12</title>
<g id="a_Node000012"><a xlink:title=" ">
<polygon fill="#e0e0e0" stroke="#999999" points="691.88,-191 603.12,-191 603.12,-170.25 691.88,-170.25 691.88,-191"/>
<text xml:space="preserve" text-anchor="middle" x="647.5" y="-177.5" font-family="Helvetica,sans-Serif" font-size="10.00">MK22F51212.h</text>
</a>
</g>
</g>
<!-- Node9&#45;&gt;Node12 -->
<g id="edge12_Node000009_Node000012" class="edge">
<title>Node9&#45;&gt;Node12</title>
<g id="a_edge12_Node000009_Node000012"><a xlink:title=" ">
<path fill="none" stroke="#63b8ff" d="M677.06,-226.59C672.35,-219.42 665.81,-209.48 660.08,-200.76"/>
<polygon fill="#63b8ff" stroke="#63b8ff" points="663.13,-199.03 654.71,-192.59 657.28,-202.87 663.13,-199.03"/>
</a>
</g>
</g>
<!-- Node9&#45;&gt;Node13 -->
<g id="edge13_Node000009_Node000013" class="edge">
<title>Node9&#45;&gt;Node13</title>
<g id="a_edge13_Node000009_Node000013"><a xlink:title=" ">
<path fill="none" stroke="#63b8ff" d="M708.17,-226.59C729.95,-217.94 761.96,-205.25 786.41,-195.55"/>
<polygon fill="#63b8ff" stroke="#63b8ff" points="787.63,-198.83 795.64,-191.89 785.05,-192.32 787.63,-198.83"/>
</a>
</g>
</g>
<!-- Node15 -->
<g id="Node000015" class="node">
<title>Node15</title>
<g id="a_Node000015"><a xlink:title=" ">
<polygon fill="#e0e0e0" stroke="#999999" points="1257.88,-77.5 1199.12,-77.5 1199.12,-56.75 1257.88,-56.75 1257.88,-77.5"/>
<text xml:space="preserve" text-anchor="middle" x="1228.5" y="-64" font-family="Helvetica,sans-Serif" font-size="10.00">fsl_ftm.h</text>
</a>
</g>
</g>
<!-- Node9&#45;&gt;Node15 -->
<g id="edge43_Node000009_Node000015" class="edge">
<title>Node9&#45;&gt;Node15</title>
<g id="a_edge43_Node000009_Node000015"><a xlink:title=" ">
<path fill="none" stroke="#63b8ff" d="M724.25,-236.64C792.43,-235.92 933.12,-229.37 1044.5,-191 1112.26,-167.66 1178.99,-113.07 1210.2,-85.18"/>
<polygon fill="#63b8ff" stroke="#63b8ff" points="1212.2,-88.09 1217.25,-78.78 1207.49,-82.91 1212.2,-88.09"/>
</a>
</g>
</g>
<!-- Node16 -->
<g id="Node000016" class="node">
<title>Node16</title>
<g id="a_Node000016"><a xlink:title=" ">
<polygon fill="#e0e0e0" stroke="#999999" points="713.12,-77.5 649.88,-77.5 649.88,-56.75 713.12,-56.75 713.12,-77.5"/>
<text xml:space="preserve" text-anchor="middle" x="681.5" y="-64" font-family="Helvetica,sans-Serif" font-size="10.00">fsl_gpio.h</text>
</a>
</g>
</g>
<!-- Node9&#45;&gt;Node16 -->
<g id="edge44_Node000009_Node000016" class="edge">
<title>Node9&#45;&gt;Node16</title>
<g id="a_edge44_Node000009_Node000016"><a xlink:title=" ">
<path fill="none" stroke="#63b8ff" d="M688.35,-226.58C692.51,-217.58 698.19,-203.75 700.5,-191 707.02,-155.02 696.59,-112.86 688.79,-88.45"/>
<polygon fill="#63b8ff" stroke="#63b8ff" points="692.16,-87.5 685.64,-79.15 685.53,-89.74 692.16,-87.5"/>
</a>
</g>
</g>
<!-- Node17 -->
<g id="Node000017" class="node">
<title>Node17</title>
<g id="a_Node000017"><a xlink:title=" ">
<polygon fill="#e0e0e0" stroke="#999999" points="793.38,-77.5 731.62,-77.5 731.62,-56.75 793.38,-56.75 793.38,-77.5"/>
<text xml:space="preserve" text-anchor="middle" x="762.5" y="-64" font-family="Helvetica,sans-Serif" font-size="10.00">fsl_port.h</text>
</a>
</g>
</g>
<!-- Node9&#45;&gt;Node17 -->
<g id="edge45_Node000009_Node000017" class="edge">
<title>Node9&#45;&gt;Node17</title>
<g id="a_edge45_Node000009_Node000017"><a xlink:title=" ">
<path fill="none" stroke="#63b8ff" d="M691.37,-226.74C698.35,-217.86 708.52,-204.1 715.5,-191 733.79,-156.69 748.54,-113.67 756.37,-88.7"/>
<polygon fill="#63b8ff" stroke="#63b8ff" points="759.71,-89.76 759.28,-79.17 753.01,-87.71 759.71,-89.76"/>
</a>
</g>
</g>
<!-- Node23 -->
<g id="Node000023" class="node">
<title>Node23</title>
<g id="a_Node000023"><a xlink:href="tmc2209__core_8h.html" target="_top" xlink:title=" ">
<polygon fill="white" stroke="#666666" points="509.5,-191 415.5,-191 415.5,-170.25 509.5,-170.25 509.5,-191"/>
<text xml:space="preserve" text-anchor="middle" x="462.5" y="-177.5" font-family="Helvetica,sans-Serif" font-size="10.00">tmc2209_core.h</text>
</a>
</g>
</g>
<!-- Node9&#45;&gt;Node23 -->
<g id="edge35_Node000009_Node000023" class="edge">
<title>Node9&#45;&gt;Node23</title>
<g id="a_edge35_Node000009_Node000023"><a xlink:title=" ">
<path fill="none" stroke="#63b8ff" d="M643.73,-226.52C607.24,-217.48 552.97,-204.04 513.34,-194.22"/>
<polygon fill="#63b8ff" stroke="#63b8ff" points="514.34,-190.86 503.79,-191.85 512.65,-197.66 514.34,-190.86"/>
</a>
</g>
</g>
<!-- Node10&#45;&gt;Node4 -->
<g id="edge10_Node000010_Node000004" class="edge">
<title>Node10&#45;&gt;Node4</title>
<g id="a_edge10_Node000010_Node000004"><a xlink:title=" ">
<path fill="none" stroke="#63b8ff" d="M989.15,-57.64C986.23,-57.34 983.34,-57.04 980.5,-56.75 828.08,-41.16 647.98,-24.42 559.74,-16.32"/>
<polygon fill="#63b8ff" stroke="#63b8ff" points="560.21,-12.85 549.93,-15.42 559.57,-19.82 560.21,-12.85"/>
</a>
</g>
</g>
<!-- Node11 -->
<g id="Node000011" class="node">
<title>Node11</title>
<g id="a_Node000011"><a xlink:title=" ">
<polygon fill="#e0e0e0" stroke="#999999" points="1158.38,-20.75 1078.62,-20.75 1078.62,0 1158.38,0 1158.38,-20.75"/>
<text xml:space="preserve" text-anchor="middle" x="1118.5" y="-7.25" font-family="Helvetica,sans-Serif" font-size="10.00">peripherals.h</text>
</a>
</g>
</g>
<!-- Node10&#45;&gt;Node11 -->
<g id="edge11_Node000010_Node000011" class="edge">
<title>Node10&#45;&gt;Node11</title>
<g id="a_edge11_Node000010_Node000011"><a xlink:title=" ">
<path fill="none" stroke="#63b8ff" d="M1075.8,-56.34C1082.9,-48.86 1092.87,-38.36 1101.4,-29.38"/>
<polygon fill="#63b8ff" stroke="#63b8ff" points="1103.89,-31.84 1108.24,-22.18 1098.82,-27.02 1103.89,-31.84"/>
</a>
</g>
</g>
<!-- Node13&#45;&gt;Node3 -->
<g id="edge15_Node000013_Node000003" class="edge">
<title>Node13&#45;&gt;Node3</title>
<g id="a_edge15_Node000013_Node000003"><a xlink:title=" ">
<path fill="none" stroke="#63b8ff" d="M784.96,-176.76C660.08,-166.95 257.67,-135.28 254.5,-134.25 221.29,-123.44 187.71,-100.59 167.01,-84.8"/>
<polygon fill="#63b8ff" stroke="#63b8ff" points="169.42,-82.24 159.39,-78.84 165.11,-87.75 169.42,-82.24"/>
</a>
</g>
</g>
<!-- Node13&#45;&gt;Node4 -->
<g id="edge17_Node000013_Node000004" class="edge">
<title>Node13&#45;&gt;Node4</title>
<g id="a_edge17_Node000013_Node000004"><a xlink:title=" ">
<path fill="none" stroke="#63b8ff" d="M802,-169.81C784.27,-160.8 757.45,-146.96 734.5,-134.25 674.99,-101.29 662.71,-88.42 602.5,-56.75 581.59,-45.75 557.54,-34.49 538.62,-25.94"/>
<polygon fill="#63b8ff" stroke="#63b8ff" points="540.07,-22.76 529.52,-21.86 537.21,-29.15 540.07,-22.76"/>
</a>
</g>
</g>
<!-- Node13&#45;&gt;Node10 -->
<g id="edge14_Node000013_Node000010" class="edge">
<title>Node13&#45;&gt;Node10</title>
<g id="a_edge14_Node000013_Node000010"><a xlink:title=" ">
<path fill="none" stroke="#63b8ff" d="M856.7,-169.77C883.96,-161.63 922.36,-149.03 954.5,-134.25 986.2,-119.67 1020.44,-98.6 1042.6,-84.18"/>
<polygon fill="#63b8ff" stroke="#63b8ff" points="1044.47,-87.14 1050.9,-78.72 1040.62,-81.3 1044.47,-87.14"/>
</a>
</g>
</g>
<!-- Node14 -->
<g id="Node000014" class="node">
<title>Node14</title>
<g id="a_Node000014"><a xlink:title=" ">
<polygon fill="#e0e0e0" stroke="#999999" points="1114.5,-134.25 1068.5,-134.25 1068.5,-113.5 1114.5,-113.5 1114.5,-134.25"/>
<text xml:space="preserve" text-anchor="middle" x="1091.5" y="-120.75" font-family="Helvetica,sans-Serif" font-size="10.00">task.h</text>
</a>
</g>
</g>
<!-- Node13&#45;&gt;Node14 -->
<g id="edge16_Node000013_Node000014" class="edge">
<title>Node13&#45;&gt;Node14</title>
<g id="a_edge16_Node000013_Node000014"><a xlink:title=" ">
<path fill="none" stroke="#63b8ff" d="M857.95,-173.18C903.93,-164.9 985.33,-149.74 1054.5,-134.25 1055.32,-134.07 1056.16,-133.88 1057,-133.68"/>
<polygon fill="#63b8ff" stroke="#63b8ff" points="1057.68,-137.12 1066.59,-131.38 1056.05,-130.31 1057.68,-137.12"/>
</a>
</g>
</g>
<!-- Node13&#45;&gt;Node15 -->
<g id="edge18_Node000013_Node000015" class="edge">
<title>Node13&#45;&gt;Node15</title>
<g id="a_edge18_Node000013_Node000015"><a xlink:title=" ">
<path fill="none" stroke="#63b8ff" d="M858.03,-178.94C916.04,-176.79 1032.05,-168.21 1123.5,-134.25 1155.26,-122.46 1187.62,-100.2 1207.86,-84.78"/>
<polygon fill="#63b8ff" stroke="#63b8ff" points="1209.84,-87.68 1215.58,-78.77 1205.54,-82.16 1209.84,-87.68"/>
</a>
</g>
</g>
<!-- Node13&#45;&gt;Node16 -->
<g id="edge19_Node000013_Node000016" class="edge">
<title>Node13&#45;&gt;Node16</title>
<g id="a_edge19_Node000013_Node000016"><a xlink:title=" ">
<path fill="none" stroke="#63b8ff" d="M809.56,-170.12C785.82,-151.21 732.38,-108.64 702.58,-84.91"/>
<polygon fill="#63b8ff" stroke="#63b8ff" points="704.99,-82.36 694.99,-78.87 700.63,-87.84 704.99,-82.36"/>
</a>
</g>
</g>
<!-- Node13&#45;&gt;Node17 -->
<g id="edge20_Node000013_Node000017" class="edge">
<title>Node13&#45;&gt;Node17</title>
<g id="a_edge20_Node000013_Node000017"><a xlink:title=" ">
<path fill="none" stroke="#63b8ff" d="M821.57,-170.05C821.27,-156.63 819.3,-131.81 809.5,-113.5 803.7,-102.66 794.39,-92.87 785.58,-85.18"/>
<polygon fill="#63b8ff" stroke="#63b8ff" points="787.88,-82.54 777.92,-78.93 783.46,-87.96 787.88,-82.54"/>
</a>
</g>
</g>
<!-- Node13&#45;&gt;Node18 -->
<g id="edge21_Node000013_Node000018" class="edge">
<title>Node13&#45;&gt;Node18</title>
<g id="a_edge21_Node000013_Node000018"><a xlink:title=" ">
<path fill="none" stroke="#63b8ff" d="M785.03,-176.47C694.12,-168.54 458.24,-147.57 359.14,-134.49"/>
<polygon fill="#63b8ff" stroke="#63b8ff" points="359.91,-131.06 349.53,-133.18 358.97,-138 359.91,-131.06"/>
</a>
</g>
</g>
<!-- Node21 -->
<g id="Node000021" class="node">
<title>Node21</title>
<g id="a_Node000021"><a xlink:href="step__shared_8h.html" target="_top" xlink:title=" ">
<polygon fill="white" stroke="#666666" points="945.62,-134.25 861.38,-134.25 861.38,-113.5 945.62,-113.5 945.62,-134.25"/>
<text xml:space="preserve" text-anchor="middle" x="903.5" y="-120.75" font-family="Helvetica,sans-Serif" font-size="10.00">step_shared.h</text>
</a>
</g>
</g>
<!-- Node13&#45;&gt;Node21 -->
<g id="edge27_Node000013_Node000021" class="edge">
<title>Node13&#45;&gt;Node21</title>
<g id="a_edge27_Node000013_Node000021"><a xlink:title=" ">
<path fill="none" stroke="#63b8ff" d="M836.16,-169.84C848.17,-161.82 865.41,-150.31 879.44,-140.94"/>
<polygon fill="#63b8ff" stroke="#63b8ff" points="881.34,-143.88 887.71,-135.42 877.45,-138.06 881.34,-143.88"/>
</a>
</g>
</g>
<!-- Node18&#45;&gt;Node3 -->
<g id="edge23_Node000018_Node000003" class="edge">
<title>Node18&#45;&gt;Node3</title>
<g id="a_edge23_Node000018_Node000003"><a xlink:title=" ">
<path fill="none" stroke="#63b8ff" d="M277.07,-113.09C251.6,-104.32 214,-91.37 185.68,-81.62"/>
<polygon fill="#63b8ff" stroke="#63b8ff" points="186.97,-78.36 176.38,-78.41 184.69,-84.98 186.97,-78.36"/>
</a>
</g>
</g>
<!-- Node18&#45;&gt;Node4 -->
<g id="edge25_Node000018_Node000004" class="edge">
<title>Node18&#45;&gt;Node4</title>
<g id="a_edge25_Node000018_Node000004"><a xlink:title=" ">
<path fill="none" stroke="#63b8ff" d="M319.46,-113.06C338.94,-99.57 375.57,-74.92 408.5,-56.75 429.05,-45.41 452.92,-34.23 471.83,-25.79"/>
<polygon fill="#63b8ff" stroke="#63b8ff" points="473.21,-29.01 480.95,-21.78 470.39,-22.61 473.21,-29.01"/>
</a>
</g>
</g>
<!-- Node18&#45;&gt;Node7 -->
<g id="edge22_Node000018_Node000007" class="edge">
<title>Node18&#45;&gt;Node7</title>
<g id="a_edge22_Node000018_Node000007"><a xlink:title=" ">
<path fill="none" stroke="#63b8ff" d="M348.06,-114.71C399.23,-104.83 483.19,-88.45 529.58,-78.04"/>
<polygon fill="#63b8ff" stroke="#63b8ff" points="530.35,-81.46 539.32,-75.81 528.79,-74.63 530.35,-81.46"/>
</a>
</g>
</g>
<!-- Node19 -->
<g id="Node000019" class="node">
<title>Node19</title>
<g id="a_Node000019"><a xlink:title=" ">
<polygon fill="#e0e0e0" stroke="#999999" points="291,-77.5 200,-77.5 200,-56.75 291,-56.75 291,-77.5"/>
<text xml:space="preserve" text-anchor="middle" x="245.5" y="-64" font-family="Helvetica,sans-Serif" font-size="10.00">event_groups.h</text>
</a>
</g>
</g>
<!-- Node18&#45;&gt;Node19 -->
<g id="edge24_Node000018_Node000019" class="edge">
<title>Node18&#45;&gt;Node19</title>
<g id="a_edge24_Node000018_Node000019"><a xlink:title=" ">
<path fill="none" stroke="#63b8ff" d="M294.77,-113.09C286.41,-105.46 274.59,-94.67 264.62,-85.57"/>
<polygon fill="#63b8ff" stroke="#63b8ff" points="267,-83 257.25,-78.85 262.28,-88.17 267,-83"/>
</a>
</g>
</g>
<!-- Node20 -->
<g id="Node000020" class="node">
<title>Node20</title>
<g id="a_Node000020"><a xlink:title=" ">
<polygon fill="#e0e0e0" stroke="#999999" points="361.5,-77.5 309.5,-77.5 309.5,-56.75 361.5,-56.75 361.5,-77.5"/>
<text xml:space="preserve" text-anchor="middle" x="335.5" y="-64" font-family="Helvetica,sans-Serif" font-size="10.00">stdlib.h</text>
</a>
</g>
</g>
<!-- Node18&#45;&gt;Node20 -->
<g id="edge26_Node000018_Node000020" class="edge">
<title>Node18&#45;&gt;Node20</title>
<g id="a_edge26_Node000018_Node000020"><a xlink:title=" ">
<path fill="none" stroke="#63b8ff" d="M310.86,-113.09C314.7,-106.08 320,-96.41 324.7,-87.83"/>
<polygon fill="#63b8ff" stroke="#63b8ff" points="327.72,-89.61 329.46,-79.16 321.58,-86.24 327.72,-89.61"/>
</a>
</g>
</g>
<!-- Node21&#45;&gt;Node4 -->
<g id="edge31_Node000021_Node000004" class="edge">
<title>Node21&#45;&gt;Node4</title>
<g id="a_edge31_Node000021_Node000004"><a xlink:title=" ">
<path fill="none" stroke="#63b8ff" d="M890.17,-113.11C867.23,-96.5 821,-63.83 802.5,-56.75 721.5,-25.74 620.42,-15.87 559.52,-12.76"/>
<polygon fill="#63b8ff" stroke="#63b8ff" points="559.92,-9.28 549.77,-12.31 559.6,-16.27 559.92,-9.28"/>
</a>
</g>
</g>
<!-- Node21&#45;&gt;Node7 -->
<g id="edge28_Node000021_Node000007" class="edge">
<title>Node21&#45;&gt;Node7</title>
<g id="a_edge28_Node000021_Node000007"><a xlink:title=" ">
<path fill="none" stroke="#63b8ff" d="M860.95,-115.94C794.78,-105.16 668.31,-84.55 605.22,-74.27"/>
<polygon fill="#63b8ff" stroke="#63b8ff" points="606.14,-70.87 595.71,-72.72 605.01,-77.78 606.14,-70.87"/>
</a>
</g>
</g>
<!-- Node21&#45;&gt;Node10 -->
<g id="edge29_Node000021_Node000010" class="edge">
<title>Node21&#45;&gt;Node10</title>
<g id="a_edge29_Node000021_Node000010"><a xlink:title=" ">
<path fill="none" stroke="#63b8ff" d="M932.64,-113.09C958.87,-104.28 997.64,-91.25 1026.71,-81.49"/>
<polygon fill="#63b8ff" stroke="#63b8ff" points="1027.54,-84.9 1035.9,-78.4 1025.31,-78.27 1027.54,-84.9"/>
</a>
</g>
</g>
<!-- Node21&#45;&gt;Node15 -->
<g id="edge32_Node000021_Node000015" class="edge">
<title>Node21&#45;&gt;Node15</title>
<g id="a_edge32_Node000021_Node000015"><a xlink:title=" ">
<path fill="none" stroke="#63b8ff" d="M945.99,-115.72C1008.87,-105.12 1125.91,-85.41 1187.77,-74.99"/>
<polygon fill="#63b8ff" stroke="#63b8ff" points="1188.24,-78.46 1197.52,-73.34 1187.07,-71.55 1188.24,-78.46"/>
</a>
</g>
</g>
<!-- Node21&#45;&gt;Node16 -->
<g id="edge33_Node000021_Node000016" class="edge">
<title>Node21&#45;&gt;Node16</title>
<g id="a_edge33_Node000021_Node000016"><a xlink:title=" ">
<path fill="none" stroke="#63b8ff" d="M863.55,-113.02C824.39,-103.36 764.85,-88.68 724.63,-78.76"/>
<polygon fill="#63b8ff" stroke="#63b8ff" points="725.59,-75.39 715.04,-76.4 723.91,-82.19 725.59,-75.39"/>
</a>
</g>
</g>
<!-- Node21&#45;&gt;Node17 -->
<g id="edge34_Node000021_Node000017" class="edge">
<title>Node21&#45;&gt;Node17</title>
<g id="a_edge34_Node000021_Node000017"><a xlink:title=" ">
<path fill="none" stroke="#63b8ff" d="M878.29,-113.09C855.94,-104.41 823.04,-91.63 798.02,-81.92"/>
<polygon fill="#63b8ff" stroke="#63b8ff" points="799.49,-78.73 788.9,-78.38 796.96,-85.26 799.49,-78.73"/>
</a>
</g>
</g>
<!-- Node22 -->
<g id="Node000022" class="node">
<title>Node22</title>
<g id="a_Node000022"><a xlink:title=" ">
<polygon fill="#e0e0e0" stroke="#999999" points="971.75,-77.5 849.25,-77.5 849.25,-56.75 971.75,-56.75 971.75,-77.5"/>
<text xml:space="preserve" text-anchor="middle" x="910.5" y="-64" font-family="Helvetica,sans-Serif" font-size="10.00">fsl_device_registers.h</text>
</a>
</g>
</g>
<!-- Node21&#45;&gt;Node22 -->
<g id="edge30_Node000021_Node000022" class="edge">
<title>Node21&#45;&gt;Node22</title>
<g id="a_edge30_Node000021_Node000022"><a xlink:title=" ">
<path fill="none" stroke="#63b8ff" d="M904.75,-113.09C905.61,-106.39 906.77,-97.26 907.83,-88.98"/>
<polygon fill="#63b8ff" stroke="#63b8ff" points="911.27,-89.69 909.07,-79.33 904.33,-88.81 911.27,-89.69"/>
</a>
</g>
</g>
<!-- Node23&#45;&gt;Node4 -->
<g id="edge40_Node000023_Node000004" class="edge">
<title>Node23&#45;&gt;Node4</title>
<g id="a_edge40_Node000023_Node000004"><a xlink:title=" ">
<path fill="none" stroke="#63b8ff" d="M415.11,-175.79C362.84,-170.53 276.82,-158.77 206.5,-134.25 151.73,-115.16 62.84,-99.99 101.5,-56.75 124.43,-31.11 346.7,-18.21 451.43,-13.51"/>
<polygon fill="#63b8ff" stroke="#63b8ff" points="451.35,-17.02 461.18,-13.08 451.04,-10.02 451.35,-17.02"/>
</a>
</g>
</g>
<!-- Node23&#45;&gt;Node7 -->
<g id="edge36_Node000023_Node000007" class="edge">
<title>Node23&#45;&gt;Node7</title>
<g id="a_edge36_Node000023_Node000007"><a xlink:title=" ">
<path fill="none" stroke="#63b8ff" d="M471.11,-170.14C482.86,-157.24 504.61,-133.47 523.5,-113.5 532.14,-104.37 541.86,-94.32 549.96,-86.01"/>
<polygon fill="#63b8ff" stroke="#63b8ff" points="552.44,-88.47 556.93,-78.88 547.44,-83.58 552.44,-88.47"/>
</a>
</g>
</g>
<!-- Node23&#45;&gt;Node11 -->
<g id="edge42_Node000023_Node000011" class="edge">
<title>Node23&#45;&gt;Node11</title>
<g id="a_edge42_Node000023_Node000011"><a xlink:title=" ">
<path fill="none" stroke="#63b8ff" d="M509.93,-176.39C616.06,-168.96 869.98,-150.11 954.5,-134.25 976.99,-130.03 1138.73,-95.78 1152.5,-77.5 1163.95,-62.3 1150.94,-42.68 1137.85,-28.77"/>
<polygon fill="#63b8ff" stroke="#63b8ff" points="1140.55,-26.53 1130.98,-22 1135.64,-31.51 1140.55,-26.53"/>
</a>
</g>
</g>
<!-- Node23&#45;&gt;Node18 -->
<g id="edge41_Node000023_Node000018" class="edge">
<title>Node23&#45;&gt;Node18</title>
<g id="a_edge41_Node000023_Node000018"><a xlink:title=" ">
<path fill="none" stroke="#63b8ff" d="M434.43,-169.84C409.28,-161.07 372.15,-148.12 344.19,-138.37"/>
<polygon fill="#63b8ff" stroke="#63b8ff" points="345.61,-135.16 335.02,-135.17 343.31,-141.77 345.61,-135.16"/>
</a>
</g>
</g>
<!-- Node24 -->
<g id="Node000024" class="node">
<title>Node24</title>
<g id="a_Node000024"><a xlink:href="tmc2209__shared_8h.html" target="_top" xlink:title=" ">
<polygon fill="white" stroke="#666666" points="471.5,-134.25 365.5,-134.25 365.5,-113.5 471.5,-113.5 471.5,-134.25"/>
<text xml:space="preserve" text-anchor="middle" x="418.5" y="-120.75" font-family="Helvetica,sans-Serif" font-size="10.00">tmc2209_shared.h</text>
</a>
</g>
</g>
<!-- Node23&#45;&gt;Node24 -->
<g id="edge37_Node000023_Node000024" class="edge">
<title>Node23&#45;&gt;Node24</title>
<g id="a_edge37_Node000023_Node000024"><a xlink:title=" ">
<path fill="none" stroke="#63b8ff" d="M454.63,-169.84C448.75,-162.52 440.53,-152.29 433.42,-143.44"/>
<polygon fill="#63b8ff" stroke="#63b8ff" points="436.24,-141.36 427.25,-135.76 430.78,-145.75 436.24,-141.36"/>
</a>
</g>
</g>
<!-- Node24&#45;&gt;Node7 -->
<g id="edge38_Node000024_Node000007" class="edge">
<title>Node24&#45;&gt;Node7</title>
<g id="a_edge38_Node000024_Node000007"><a xlink:title=" ">
<path fill="none" stroke="#63b8ff" d="M445.14,-113.09C468.8,-104.39 503.62,-91.6 530.07,-81.88"/>
<polygon fill="#63b8ff" stroke="#63b8ff" points="531.24,-85.18 539.42,-78.44 528.83,-78.61 531.24,-85.18"/>
</a>
</g>
</g>
<!-- Node25 -->
<g id="Node000025" class="node">
<title>Node25</title>
<g id="a_Node000025"><a xlink:title=" ">
<polygon fill="#e0e0e0" stroke="#999999" points="523.12,-77.5 417.88,-77.5 417.88,-56.75 523.12,-56.75 523.12,-77.5"/>
<text xml:space="preserve" text-anchor="middle" x="470.5" y="-64" font-family="Helvetica,sans-Serif" font-size="10.00">fsl_uart_freertos.h</text>
</a>
</g>
</g>
<!-- Node24&#45;&gt;Node25 -->
<g id="edge39_Node000024_Node000025" class="edge">
<title>Node24&#45;&gt;Node25</title>
<g id="a_edge39_Node000024_Node000025"><a xlink:title=" ">
<path fill="none" stroke="#63b8ff" d="M427.8,-113.09C434.9,-105.61 444.87,-95.11 453.4,-86.13"/>
<polygon fill="#63b8ff" stroke="#63b8ff" points="455.89,-88.59 460.24,-78.93 450.82,-83.77 455.89,-88.59"/>
</a>
</g>
</g>
<!-- Node27&#45;&gt;Node7 -->
<g id="edge51_Node000027_Node000007" class="edge">
<title>Node27&#45;&gt;Node7</title>
<g id="a_edge51_Node000027_Node000007"><a xlink:title=" ">
<path fill="none" stroke="#63b8ff" d="M664.74,-283.31C646.92,-266.37 611.57,-229.72 594.5,-191 579.57,-157.13 572.58,-114.26 569.55,-89.14"/>
<polygon fill="#63b8ff" stroke="#63b8ff" points="573.04,-88.84 568.48,-79.28 566.08,-89.6 573.04,-88.84"/>
</a>
</g>
</g>
<!-- Node27&#45;&gt;Node9 -->
<g id="edge52_Node000027_Node000009" class="edge">
<title>Node27&#45;&gt;Node9</title>
<g id="a_edge52_Node000027_Node000009"><a xlink:title=" ">
<path fill="none" stroke="#63b8ff" d="M676.93,-283.34C677.91,-276.64 679.24,-267.51 680.45,-259.23"/>
<polygon fill="#63b8ff" stroke="#63b8ff" points="683.88,-259.98 681.86,-249.58 676.95,-258.96 683.88,-259.98"/>
</a>
</g>
</g>
</g>
</svg>
