<?xml version="1.0" encoding="UTF-8" standalone="no"?>
<!DOCTYPE svg PUBLIC "-//W3C//DTD SVG 1.1//EN"
 "http://www.w3.org/Graphics/SVG/1.1/DTD/svg11.dtd">
<!-- Generated by graphviz version 14.1.5 (0)
 -->
<!-- Title: source/motion/motor/motor_tmc.c Pages: 1 -->
<svg width="1406pt" height="439pt"
 viewBox="0.00 0.00 1406.00 439.00" xmlns="http://www.w3.org/2000/svg" xmlns:xlink="http://www.w3.org/1999/xlink">
<g id="graph0" class="graph" transform="scale(1 1) rotate(0) translate(4 434.75)">
<title>source/motion/motor/motor_tmc.c</title>
<!-- Node1 -->
<g id="Node000001" class="node">
<title>Node1</title>
<g id="a_Node000001"><a xlink:title=" ">
<polygon fill="#999999" stroke="#666666" points="1227,-430.75 1109,-430.75 1109,-397.25 1227,-397.25 1227,-430.75"/>
<text xml:space="preserve" text-anchor="start" x="1117" y="-417.25" font-family="Helvetica,sans-Serif" font-size="10.00">source/motion/motor</text>
<text xml:space="preserve" text-anchor="middle" x="1168" y="-404.5" font-family="Helvetica,sans-Serif" font-size="10.00">/motor_tmc.c</text>
</a>
</g>
</g>
<!-- Node2 -->
<g id="Node000002" class="node">
<title>Node2</title>
<g id="a_Node000002"><a xlink:href="log_8h.html" target="_top" xlink:title=" ">
<polygon fill="white" stroke="#666666" points="774.5,-134.25 665.5,-134.25 665.5,-113.5 774.5,-113.5 774.5,-134.25"/>
<text xml:space="preserve" text-anchor="middle" x="720" y="-120.75" font-family="Helvetica,sans-Serif" font-size="10.00">infrastructure/log.h</text>
</a>
</g>
</g>
<!-- Node1&#45;&gt;Node2 -->
<g id="edge1_Node000001_Node000002" class="edge">
<title>Node1&#45;&gt;Node2</title>
<g id="a_edge1_Node000001_Node000002"><a xlink:title=" ">
<path fill="none" stroke="#63b8ff" d="M1108.91,-408.98C992.13,-399.4 743,-370.16 743,-295.12 743,-295.12 743,-295.12 743,-236.38 743,-204.02 733.6,-167.46 726.82,-145.29"/>
<polygon fill="#63b8ff" stroke="#63b8ff" points="730.23,-144.48 723.85,-136.02 723.56,-146.61 730.23,-144.48"/>
</a>
</g>
</g>
<!-- Node5 -->
<g id="Node000005" class="node">
<title>Node5</title>
<g id="a_Node000005"><a xlink:href="motor__tmc_8h.html" target="_top" xlink:title=" ">
<polygon fill="white" stroke="#666666" points="1155.12,-361.25 1076.88,-361.25 1076.88,-340.5 1155.12,-340.5 1155.12,-361.25"/>
<text xml:space="preserve" text-anchor="middle" x="1116" y="-347.75" font-family="Helvetica,sans-Serif" font-size="10.00">motor_tmc.h</text>
</a>
</g>
</g>
<!-- Node1&#45;&gt;Node5 -->
<g id="edge4_Node000001_Node000005" class="edge">
<title>Node1&#45;&gt;Node5</title>
<g id="a_edge4_Node000001_Node000005"><a xlink:title=" ">
<path fill="none" stroke="#63b8ff" d="M1154.34,-396.94C1147.43,-388.82 1139.01,-378.92 1131.82,-370.47"/>
<polygon fill="#63b8ff" stroke="#63b8ff" points="1134.5,-368.22 1125.35,-362.87 1129.17,-372.75 1134.5,-368.22"/>
</a>
</g>
</g>
<!-- Node23 -->
<g id="Node000023" class="node">
<title>Node23</title>
<g id="a_Node000023"><a xlink:href="tmc2209__core_8h.html" target="_top" xlink:title=" ">
<polygon fill="white" stroke="#666666" points="963,-191 869,-191 869,-170.25 963,-170.25 963,-191"/>
<text xml:space="preserve" text-anchor="middle" x="916" y="-177.5" font-family="Helvetica,sans-Serif" font-size="10.00">tmc2209_core.h</text>
</a>
</g>
</g>
<!-- Node1&#45;&gt;Node23 -->
<g id="edge61_Node000001_Node000023" class="edge">
<title>Node1&#45;&gt;Node23</title>
<g id="a_edge61_Node000001_Node000023"><a xlink:title=" ">
<path fill="none" stroke="#63b8ff" d="M1128.36,-396.86C1109.08,-387.95 1086.19,-375.75 1068,-361.25 1006.65,-312.35 951.81,-235.73 928.23,-200.5"/>
<polygon fill="#63b8ff" stroke="#63b8ff" points="931.45,-199.02 923.02,-192.61 925.61,-202.88 931.45,-199.02"/>
</a>
</g>
</g>
<!-- Node27 -->
<g id="Node000027" class="node">
<title>Node27</title>
<g id="a_Node000027"><a xlink:href="motor__motion_8h.html" target="_top" xlink:title=" ">
<polygon fill="white" stroke="#666666" points="1267,-361.25 1173,-361.25 1173,-340.5 1267,-340.5 1267,-361.25"/>
<text xml:space="preserve" text-anchor="middle" x="1220" y="-347.75" font-family="Helvetica,sans-Serif" font-size="10.00">motor_motion.h</text>
</a>
</g>
</g>
<!-- Node1&#45;&gt;Node27 -->
<g id="edge51_Node000001_Node000027" class="edge">
<title>Node1&#45;&gt;Node27</title>
<g id="a_edge51_Node000001_Node000027"><a xlink:title=" ">
<path fill="none" stroke="#63b8ff" d="M1181.66,-396.94C1188.57,-388.82 1196.99,-378.92 1204.18,-370.47"/>
<polygon fill="#63b8ff" stroke="#63b8ff" points="1206.83,-372.75 1210.65,-362.87 1201.5,-368.22 1206.83,-372.75"/>
</a>
</g>
</g>
<!-- Node28 -->
<g id="Node000028" class="node">
<title>Node28</title>
<g id="a_Node000028"><a xlink:title=" ">
<polygon fill="#e0e0e0" stroke="#999999" points="1372.5,-361.25 1323.5,-361.25 1323.5,-340.5 1372.5,-340.5 1372.5,-361.25"/>
<text xml:space="preserve" text-anchor="middle" x="1348" y="-347.75" font-family="Helvetica,sans-Serif" font-size="10.00">stdio.h</text>
</a>
</g>
</g>
<!-- Node1&#45;&gt;Node28 -->
<g id="edge54_Node000001_Node000028" class="edge">
<title>Node1&#45;&gt;Node28</title>
<g id="a_edge54_Node000001_Node000028"><a xlink:title=" ">
<path fill="none" stroke="#63b8ff" d="M1215.76,-396.78C1246.06,-386.49 1284.62,-373.4 1312.27,-364.01"/>
<polygon fill="#63b8ff" stroke="#63b8ff" points="1313.25,-367.37 1321.6,-360.84 1311,-360.74 1313.25,-367.37"/>
</a>
</g>
</g>
<!-- Node29 -->
<g id="Node000029" class="node">
<title>Node29</title>
<g id="a_Node000029"><a xlink:href="sync__wait_8h.html" target="_top" xlink:title=" ">
<polygon fill="white" stroke="#666666" points="1331.88,-191 1258.12,-191 1258.12,-170.25 1331.88,-170.25 1331.88,-191"/>
<text xml:space="preserve" text-anchor="middle" x="1295" y="-177.5" font-family="Helvetica,sans-Serif" font-size="10.00">sync_wait.h</text>
</a>
</g>
</g>
<!-- Node1&#45;&gt;Node29 -->
<g id="edge55_Node000001_Node000029" class="edge">
<title>Node1&#45;&gt;Node29</title>
<g id="a_edge55_Node000001_Node000029"><a xlink:title=" ">
<path fill="none" stroke="#63b8ff" d="M1227.49,-397.1C1245.86,-389.26 1264.31,-377.81 1276,-361.25 1310.13,-312.89 1304.26,-238.2 1298.82,-202.29"/>
<polygon fill="#63b8ff" stroke="#63b8ff" points="1302.34,-202.09 1297.23,-192.81 1295.43,-203.25 1302.34,-202.09"/>
</a>
</g>
</g>
<!-- Node3 -->
<g id="Node000003" class="node">
<title>Node3</title>
<g id="a_Node000003"><a xlink:title=" ">
<polygon fill="#e0e0e0" stroke="#999999" points="1160.75,-77.5 1089.25,-77.5 1089.25,-56.75 1160.75,-56.75 1160.75,-77.5"/>
<text xml:space="preserve" text-anchor="middle" x="1125" y="-64" font-family="Helvetica,sans-Serif" font-size="10.00">FreeRTOS.h</text>
</a>
</g>
</g>
<!-- Node2&#45;&gt;Node3 -->
<g id="edge2_Node000002_Node000003" class="edge">
<title>Node2&#45;&gt;Node3</title>
<g id="a_edge2_Node000002_Node000003"><a xlink:title=" ">
<path fill="none" stroke="#63b8ff" d="M774.62,-115.49C854.61,-104.68 1002.3,-84.71 1077.83,-74.5"/>
<polygon fill="#63b8ff" stroke="#63b8ff" points="1077.93,-78.02 1087.37,-73.21 1076.99,-71.08 1077.93,-78.02"/>
</a>
</g>
</g>
<!-- Node4 -->
<g id="Node000004" class="node">
<title>Node4</title>
<g id="a_Node000004"><a xlink:title=" ">
<polygon fill="#e0e0e0" stroke="#999999" points="762.5,-20.75 677.5,-20.75 677.5,0 762.5,0 762.5,-20.75"/>
<text xml:space="preserve" text-anchor="middle" x="720" y="-7.25" font-family="Helvetica,sans-Serif" font-size="10.00">fsl_common.h</text>
</a>
</g>
</g>
<!-- Node2&#45;&gt;Node4 -->
<g id="edge3_Node000002_Node000004" class="edge">
<title>Node2&#45;&gt;Node4</title>
<g id="a_edge3_Node000002_Node000004"><a xlink:title=" ">
<path fill="none" stroke="#63b8ff" d="M720,-113.37C720,-95.6 720,-56.97 720,-32.68"/>
<polygon fill="#63b8ff" stroke="#63b8ff" points="723.5,-32.69 720,-22.69 716.5,-32.69 723.5,-32.69"/>
</a>
</g>
</g>
<!-- Node6 -->
<g id="Node000006" class="node">
<title>Node6</title>
<g id="a_Node000006"><a xlink:href="motor__internal_8h.html" target="_top" xlink:title=" ">
<polygon fill="white" stroke="#666666" points="1165.5,-304.5 1068.5,-304.5 1068.5,-283.75 1165.5,-283.75 1165.5,-304.5"/>
<text xml:space="preserve" text-anchor="middle" x="1117" y="-291" font-family="Helvetica,sans-Serif" font-size="10.00">motor_internal.h</text>
</a>
</g>
</g>
<!-- Node5&#45;&gt;Node6 -->
<g id="edge5_Node000005_Node000006" class="edge">
<title>Node5&#45;&gt;Node6</title>
<g id="a_edge5_Node000005_Node000006"><a xlink:title=" ">
<path fill="none" stroke="#63b8ff" d="M1116.18,-340.09C1116.3,-333.47 1116.46,-324.47 1116.61,-316.27"/>
<polygon fill="#63b8ff" stroke="#63b8ff" points="1120.11,-316.4 1116.8,-306.34 1113.11,-316.28 1120.11,-316.4"/>
</a>
</g>
</g>
<!-- Node7 -->
<g id="Node000007" class="node">
<title>Node7</title>
<g id="a_Node000007"><a xlink:title=" ">
<polygon fill="#e0e0e0" stroke="#999999" points="897.38,-77.5 844.62,-77.5 844.62,-56.75 897.38,-56.75 897.38,-77.5"/>
<text xml:space="preserve" text-anchor="middle" x="871" y="-64" font-family="Helvetica,sans-Serif" font-size="10.00">stdint.h</text>
</a>
</g>
</g>
<!-- Node5&#45;&gt;Node7 -->
<g id="edge49_Node000005_Node000007" class="edge">
<title>Node5&#45;&gt;Node7</title>
<g id="a_edge49_Node000005_Node000007"><a xlink:title=" ">
<path fill="none" stroke="#63b8ff" d="M1082.19,-340.02C1035.85,-325.35 951.57,-294.37 892,-247.75 866.65,-227.91 857.86,-221.3 847,-191 835.38,-158.57 837.42,-146.86 846,-113.5 848.34,-104.4 852.94,-95.17 857.56,-87.43"/>
<polygon fill="#63b8ff" stroke="#63b8ff" points="860.37,-89.53 862.84,-79.22 854.48,-85.73 860.37,-89.53"/>
</a>
</g>
</g>
<!-- Node8 -->
<g id="Node000008" class="node">
<title>Node8</title>
<g id="a_Node000008"><a xlink:title=" ">
<polygon fill="#e0e0e0" stroke="#999999" points="1266.5,-247.75 1205.5,-247.75 1205.5,-227 1266.5,-227 1266.5,-247.75"/>
<text xml:space="preserve" text-anchor="middle" x="1236" y="-234.25" font-family="Helvetica,sans-Serif" font-size="10.00">stdbool.h</text>
</a>
</g>
</g>
<!-- Node5&#45;&gt;Node8 -->
<g id="edge50_Node000005_Node000008" class="edge">
<title>Node5&#45;&gt;Node8</title>
<g id="a_edge50_Node000005_Node000008"><a xlink:title=" ">
<path fill="none" stroke="#63b8ff" d="M1130.12,-340.06C1142.42,-331.26 1160.5,-317.75 1175,-304.5 1191.67,-289.26 1208.97,-270.13 1220.88,-256.38"/>
<polygon fill="#63b8ff" stroke="#63b8ff" points="1223.36,-258.85 1227.19,-248.98 1218.04,-254.31 1223.36,-258.85"/>
</a>
</g>
</g>
<!-- Node6&#45;&gt;Node3 -->
<g id="edge46_Node000006_Node000003" class="edge">
<title>Node6&#45;&gt;Node3</title>
<g id="a_edge46_Node000006_Node000003"><a xlink:title=" ">
<path fill="none" stroke="#63b8ff" d="M1117.75,-283.39C1118.43,-274.21 1119.42,-260.05 1120,-247.75 1122.69,-190.53 1124.09,-122.98 1124.67,-89.36"/>
<polygon fill="#63b8ff" stroke="#63b8ff" points="1128.17,-89.43 1124.83,-79.38 1121.17,-89.32 1128.17,-89.43"/>
</a>
</g>
</g>
<!-- Node6&#45;&gt;Node7 -->
<g id="edge6_Node000006_Node000007" class="edge">
<title>Node6&#45;&gt;Node7</title>
<g id="a_edge6_Node000006_Node000007"><a xlink:title=" ">
<path fill="none" stroke="#63b8ff" d="M1068.18,-289.55C1007.61,-282.2 906.64,-259.73 860,-191 839.04,-160.11 851.72,-114.32 861.95,-88.24"/>
<polygon fill="#63b8ff" stroke="#63b8ff" points="865.12,-89.74 865.76,-79.17 858.66,-87.03 865.12,-89.74"/>
</a>
</g>
</g>
<!-- Node6&#45;&gt;Node8 -->
<g id="edge7_Node000006_Node000008" class="edge">
<title>Node6&#45;&gt;Node8</title>
<g id="a_edge7_Node000006_Node000008"><a xlink:title=" ">
<path fill="none" stroke="#63b8ff" d="M1138.27,-283.34C1156.72,-274.85 1183.66,-262.45 1204.59,-252.83"/>
<polygon fill="#63b8ff" stroke="#63b8ff" points="1205.91,-256.07 1213.53,-248.71 1202.99,-249.71 1205.91,-256.07"/>
</a>
</g>
</g>
<!-- Node9 -->
<g id="Node000009" class="node">
<title>Node9</title>
<g id="a_Node000009"><a xlink:href="motor__core_8h.html" target="_top" xlink:title=" ">
<polygon fill="white" stroke="#666666" points="531.25,-247.75 450.75,-247.75 450.75,-227 531.25,-227 531.25,-247.75"/>
<text xml:space="preserve" text-anchor="middle" x="491" y="-234.25" font-family="Helvetica,sans-Serif" font-size="10.00">motor_core.h</text>
</a>
</g>
</g>
<!-- Node6&#45;&gt;Node9 -->
<g id="edge8_Node000006_Node000009" class="edge">
<title>Node6&#45;&gt;Node9</title>
<g id="a_edge8_Node000006_Node000009"><a xlink:title=" ">
<path fill="none" stroke="#63b8ff" d="M1068.14,-288.85C952.29,-278.72 661.79,-253.31 542.93,-242.92"/>
<polygon fill="#63b8ff" stroke="#63b8ff" points="543.41,-239.45 533.14,-242.06 542.8,-246.42 543.41,-239.45"/>
</a>
</g>
</g>
<!-- Node18 -->
<g id="Node000018" class="node">
<title>Node18</title>
<g id="a_Node000018"><a xlink:href="cmd__handle_8h.html" target="_top" xlink:title=" ">
<polygon fill="white" stroke="#666666" points="1267.12,-134.25 1182.88,-134.25 1182.88,-113.5 1267.12,-113.5 1267.12,-134.25"/>
<text xml:space="preserve" text-anchor="middle" x="1225" y="-120.75" font-family="Helvetica,sans-Serif" font-size="10.00">cmd_handle.h</text>
</a>
</g>
</g>
<!-- Node6&#45;&gt;Node18 -->
<g id="edge48_Node000006_Node000018" class="edge">
<title>Node6&#45;&gt;Node18</title>
<g id="a_edge48_Node000006_Node000018"><a xlink:title=" ">
<path fill="none" stroke="#63b8ff" d="M1125.42,-283.34C1133,-274.35 1144.25,-260.53 1153,-247.75 1176.98,-212.72 1201.18,-169.4 1214.52,-144.68"/>
<polygon fill="#63b8ff" stroke="#63b8ff" points="1217.5,-146.52 1219.13,-136.05 1211.33,-143.22 1217.5,-146.52"/>
</a>
</g>
</g>
<!-- Node26 -->
<g id="Node000026" class="node">
<title>Node26</title>
<g id="a_Node000026"><a xlink:title=" ">
<polygon fill="#e0e0e0" stroke="#999999" points="1110.5,-247.75 1055.5,-247.75 1055.5,-227 1110.5,-227 1110.5,-247.75"/>
<text xml:space="preserve" text-anchor="middle" x="1083" y="-234.25" font-family="Helvetica,sans-Serif" font-size="10.00">queue.h</text>
</a>
</g>
</g>
<!-- Node6&#45;&gt;Node26 -->
<g id="edge47_Node000006_Node000026" class="edge">
<title>Node6&#45;&gt;Node26</title>
<g id="a_edge47_Node000006_Node000026"><a xlink:title=" ">
<path fill="none" stroke="#63b8ff" d="M1110.92,-283.34C1106.52,-276.25 1100.43,-266.44 1095.06,-257.79"/>
<polygon fill="#63b8ff" stroke="#63b8ff" points="1098.07,-256.01 1089.82,-249.36 1092.13,-259.71 1098.07,-256.01"/>
</a>
</g>
</g>
<!-- Node10 -->
<g id="Node000010" class="node">
<title>Node10</title>
<g id="a_Node000010"><a xlink:href="pca9555a_8h.html" target="_top" xlink:title=" ">
<polygon fill="white" stroke="#666666" points="154,-77.5 0,-77.5 0,-56.75 154,-56.75 154,-77.5"/>
<text xml:space="preserve" text-anchor="middle" x="77" y="-64" font-family="Helvetica,sans-Serif" font-size="10.00">driver/pca9555a/pca9555a.h</text>
</a>
</g>
</g>
<!-- Node9&#45;&gt;Node10 -->
<g id="edge9_Node000009_Node000010" class="edge">
<title>Node9&#45;&gt;Node10</title>
<g id="a_edge9_Node000009_Node000010"><a xlink:title=" ">
<path fill="none" stroke="#63b8ff" d="M450.48,-228.73C414.07,-221.22 359.49,-208.36 314,-191 233.57,-160.3 145.08,-109.46 102.57,-83.87"/>
<polygon fill="#63b8ff" stroke="#63b8ff" points="104.45,-80.91 94.08,-78.72 100.82,-86.9 104.45,-80.91"/>
</a>
</g>
</g>
<!-- Node12 -->
<g id="Node000012" class="node">
<title>Node12</title>
<g id="a_Node000012"><a xlink:title=" ">
<polygon fill="#e0e0e0" stroke="#999999" points="666.38,-191 577.62,-191 577.62,-170.25 666.38,-170.25 666.38,-191"/>
<text xml:space="preserve" text-anchor="middle" x="622" y="-177.5" font-family="Helvetica,sans-Serif" font-size="10.00">MK22F51212.h</text>
</a>
</g>
</g>
<!-- Node9&#45;&gt;Node12 -->
<g id="edge12_Node000009_Node000012" class="edge">
<title>Node9&#45;&gt;Node12</title>
<g id="a_edge12_Node000009_Node000012"><a xlink:title=" ">
<path fill="none" stroke="#63b8ff" d="M514.42,-226.59C535,-217.98 565.2,-205.36 588.37,-195.68"/>
<polygon fill="#63b8ff" stroke="#63b8ff" points="589.51,-199 597.39,-191.91 586.81,-192.54 589.51,-199"/>
</a>
</g>
</g>
<!-- Node13 -->
<g id="Node000013" class="node">
<title>Node13</title>
<g id="a_Node000013"><a xlink:href="step__core_8h.html" target="_top" xlink:title=" ">
<polygon fill="white" stroke="#666666" points="559.12,-191 486.88,-191 486.88,-170.25 559.12,-170.25 559.12,-191"/>
<text xml:space="preserve" text-anchor="middle" x="523" y="-177.5" font-family="Helvetica,sans-Serif" font-size="10.00">step_core.h</text>
</a>
</g>
</g>
<!-- Node9&#45;&gt;Node13 -->
<g id="edge13_Node000009_Node000013" class="edge">
<title>Node9&#45;&gt;Node13</title>
<g id="a_edge13_Node000009_Node000013"><a xlink:title=" ">
<path fill="none" stroke="#63b8ff" d="M496.72,-226.59C500.86,-219.5 506.6,-209.69 511.65,-201.04"/>
<polygon fill="#63b8ff" stroke="#63b8ff" points="514.54,-203.03 516.56,-192.64 508.5,-199.5 514.54,-203.03"/>
</a>
</g>
</g>
<!-- Node15 -->
<g id="Node000015" class="node">
<title>Node15</title>
<g id="a_Node000015"><a xlink:title=" ">
<polygon fill="#e0e0e0" stroke="#999999" points="310.38,-77.5 251.62,-77.5 251.62,-56.75 310.38,-56.75 310.38,-77.5"/>
<text xml:space="preserve" text-anchor="middle" x="281" y="-64" font-family="Helvetica,sans-Serif" font-size="10.00">fsl_ftm.h</text>
</a>
</g>
</g>
<!-- Node9&#45;&gt;Node15 -->
<g id="edge43_Node000009_Node000015" class="edge">
<title>Node9&#45;&gt;Node15</title>
<g id="a_edge43_Node000009_Node000015"><a xlink:title=" ">
<path fill="none" stroke="#63b8ff" d="M461.83,-226.61C422.57,-212.13 352.71,-181.48 310,-134.25 298.29,-121.31 290.74,-102.88 286.29,-88.77"/>
<polygon fill="#63b8ff" stroke="#63b8ff" points="289.67,-87.84 283.56,-79.18 282.93,-89.76 289.67,-87.84"/>
</a>
</g>
</g>
<!-- Node16 -->
<g id="Node000016" class="node">
<title>Node16</title>
<g id="a_Node000016"><a xlink:title=" ">
<polygon fill="#e0e0e0" stroke="#999999" points="570.62,-77.5 507.38,-77.5 507.38,-56.75 570.62,-56.75 570.62,-77.5"/>
<text xml:space="preserve" text-anchor="middle" x="539" y="-64" font-family="Helvetica,sans-Serif" font-size="10.00">fsl_gpio.h</text>
</a>
</g>
</g>
<!-- Node9&#45;&gt;Node16 -->
<g id="edge44_Node000009_Node000016" class="edge">
<title>Node9&#45;&gt;Node16</title>
<g id="a_edge44_Node000009_Node000016"><a xlink:title=" ">
<path fill="none" stroke="#63b8ff" d="M486.45,-226.87C480.88,-213.95 472.77,-190.17 478,-170.25 486.39,-138.27 508.15,-106.35 523.27,-86.92"/>
<polygon fill="#63b8ff" stroke="#63b8ff" points="525.98,-89.13 529.51,-79.14 520.52,-84.75 525.98,-89.13"/>
</a>
</g>
</g>
<!-- Node17 -->
<g id="Node000017" class="node">
<title>Node17</title>
<g id="a_Node000017"><a xlink:title=" ">
<polygon fill="#e0e0e0" stroke="#999999" points="233.88,-77.5 172.12,-77.5 172.12,-56.75 233.88,-56.75 233.88,-77.5"/>
<text xml:space="preserve" text-anchor="middle" x="203" y="-64" font-family="Helvetica,sans-Serif" font-size="10.00">fsl_port.h</text>
</a>
</g>
</g>
<!-- Node9&#45;&gt;Node17 -->
<g id="edge45_Node000009_Node000017" class="edge">
<title>Node9&#45;&gt;Node17</title>
<g id="a_edge45_Node000009_Node000017"><a xlink:title=" ">
<path fill="none" stroke="#63b8ff" d="M450.43,-227.89C421.06,-220.7 381.06,-208.7 349,-191 296.36,-161.94 244.98,-112.33 219.53,-85.91"/>
<polygon fill="#63b8ff" stroke="#63b8ff" points="222.39,-83.84 212.97,-79 217.32,-88.66 222.39,-83.84"/>
</a>
</g>
</g>
<!-- Node9&#45;&gt;Node23 -->
<g id="edge35_Node000009_Node000023" class="edge">
<title>Node9&#45;&gt;Node23</title>
<g id="a_edge35_Node000009_Node000023"><a xlink:title=" ">
<path fill="none" stroke="#63b8ff" d="M531.37,-231.17C606.82,-221.45 769.51,-200.5 857.18,-189.2"/>
<polygon fill="#63b8ff" stroke="#63b8ff" points="857.55,-192.68 867.02,-187.94 856.65,-185.74 857.55,-192.68"/>
</a>
</g>
</g>
<!-- Node10&#45;&gt;Node4 -->
<g id="edge10_Node000010_Node000004" class="edge">
<title>Node10&#45;&gt;Node4</title>
<g id="a_edge10_Node000010_Node000004"><a xlink:title=" ">
<path fill="none" stroke="#63b8ff" d="M154.34,-57.59C157.27,-57.3 160.16,-57.02 163,-56.75 347.42,-39.19 566.6,-22.58 666.09,-15.27"/>
<polygon fill="#63b8ff" stroke="#63b8ff" points="666.11,-18.78 675.83,-14.56 665.6,-11.8 666.11,-18.78"/>
</a>
</g>
</g>
<!-- Node11 -->
<g id="Node000011" class="node">
<title>Node11</title>
<g id="a_Node000011"><a xlink:title=" ">
<polygon fill="#e0e0e0" stroke="#999999" points="377.88,-20.75 298.12,-20.75 298.12,0 377.88,0 377.88,-20.75"/>
<text xml:space="preserve" text-anchor="middle" x="338" y="-7.25" font-family="Helvetica,sans-Serif" font-size="10.00">peripherals.h</text>
</a>
</g>
</g>
<!-- Node10&#45;&gt;Node11 -->
<g id="edge11_Node000010_Node000011" class="edge">
<title>Node10&#45;&gt;Node11</title>
<g id="a_edge11_Node000010_Node000011"><a xlink:title=" ">
<path fill="none" stroke="#63b8ff" d="M123.96,-56.27C169.79,-46.66 239.33,-32.07 286.61,-22.15"/>
<polygon fill="#63b8ff" stroke="#63b8ff" points="287.28,-25.59 296.35,-20.11 285.84,-18.74 287.28,-25.59"/>
</a>
</g>
</g>
<!-- Node13&#45;&gt;Node3 -->
<g id="edge15_Node000013_Node000003" class="edge">
<title>Node13&#45;&gt;Node3</title>
<g id="a_edge15_Node000013_Node000003"><a xlink:title=" ">
<path fill="none" stroke="#63b8ff" d="M559.59,-171.75C562.76,-171.19 565.93,-170.68 569,-170.25 768.99,-142.03 830.61,-198.74 1022,-134.25 1053.84,-123.52 1085.64,-100.82 1105.31,-85.03"/>
<polygon fill="#63b8ff" stroke="#63b8ff" points="1107.28,-87.94 1112.77,-78.87 1102.82,-82.54 1107.28,-87.94"/>
</a>
</g>
</g>
<!-- Node13&#45;&gt;Node4 -->
<g id="edge17_Node000013_Node000004" class="edge">
<title>Node13&#45;&gt;Node4</title>
<g id="a_edge17_Node000013_Node000004"><a xlink:title=" ">
<path fill="none" stroke="#63b8ff" d="M535.37,-170.06C547.01,-160.99 564.86,-146.91 580,-134.25 623.94,-97.51 674.1,-52.79 700.83,-28.72"/>
<polygon fill="#63b8ff" stroke="#63b8ff" points="703.06,-31.43 708.14,-22.13 698.37,-26.23 703.06,-31.43"/>
</a>
</g>
</g>
<!-- Node13&#45;&gt;Node10 -->
<g id="edge14_Node000013_Node000010" class="edge">
<title>Node13&#45;&gt;Node10</title>
<g id="a_edge14_Node000013_Node000010"><a xlink:title=" ">
<path fill="none" stroke="#63b8ff" d="M486.42,-175.07C436.22,-168.38 343.37,-154.47 266,-134.25 210.9,-119.85 148.92,-96.8 111.43,-82.07"/>
<polygon fill="#63b8ff" stroke="#63b8ff" points="113.07,-78.95 102.48,-78.52 110.49,-85.46 113.07,-78.95"/>
</a>
</g>
</g>
<!-- Node14 -->
<g id="Node000014" class="node">
<title>Node14</title>
<g id="a_Node000014"><a xlink:title=" ">
<polygon fill="#e0e0e0" stroke="#999999" points="571,-134.25 525,-134.25 525,-113.5 571,-113.5 571,-134.25"/>
<text xml:space="preserve" text-anchor="middle" x="548" y="-120.75" font-family="Helvetica,sans-Serif" font-size="10.00">task.h</text>
</a>
</g>
</g>
<!-- Node13&#45;&gt;Node14 -->
<g id="edge16_Node000013_Node000014" class="edge">
<title>Node13&#45;&gt;Node14</title>
<g id="a_edge16_Node000013_Node000014"><a xlink:title=" ">
<path fill="none" stroke="#63b8ff" d="M527.47,-169.84C530.63,-162.91 534.99,-153.37 538.87,-144.86"/>
<polygon fill="#63b8ff" stroke="#63b8ff" points="541.97,-146.51 542.94,-135.96 535.6,-143.6 541.97,-146.51"/>
</a>
</g>
</g>
<!-- Node13&#45;&gt;Node15 -->
<g id="edge18_Node000013_Node000015" class="edge">
<title>Node13&#45;&gt;Node15</title>
<g id="a_edge18_Node000013_Node000015"><a xlink:title=" ">
<path fill="none" stroke="#63b8ff" d="M486.41,-177.24C447.16,-173.25 384.24,-162.6 338,-134.25 318.89,-122.54 302.84,-102.29 292.69,-87.28"/>
<polygon fill="#63b8ff" stroke="#63b8ff" points="295.82,-85.67 287.46,-79.16 289.93,-89.47 295.82,-85.67"/>
</a>
</g>
</g>
<!-- Node13&#45;&gt;Node16 -->
<g id="edge19_Node000013_Node000016" class="edge">
<title>Node13&#45;&gt;Node16</title>
<g id="a_edge19_Node000013_Node000016"><a xlink:title=" ">
<path fill="none" stroke="#63b8ff" d="M519.99,-170.08C516.36,-157.11 511.28,-133.26 516,-113.5 518.15,-104.51 522.39,-95.28 526.64,-87.52"/>
<polygon fill="#63b8ff" stroke="#63b8ff" points="529.61,-89.39 531.69,-79 523.58,-85.82 529.61,-89.39"/>
</a>
</g>
</g>
<!-- Node13&#45;&gt;Node17 -->
<g id="edge20_Node000013_Node000017" class="edge">
<title>Node13&#45;&gt;Node17</title>
<g id="a_edge20_Node000013_Node000017"><a xlink:title=" ">
<path fill="none" stroke="#63b8ff" d="M486.47,-175.71C443.13,-170.2 369.3,-158.05 310,-134.25 278.3,-121.53 245.4,-99.67 224.59,-84.59"/>
<polygon fill="#63b8ff" stroke="#63b8ff" points="226.75,-81.83 216.62,-78.69 222.58,-87.45 226.75,-81.83"/>
</a>
</g>
</g>
<!-- Node13&#45;&gt;Node18 -->
<g id="edge21_Node000013_Node000018" class="edge">
<title>Node13&#45;&gt;Node18</title>
<g id="a_edge21_Node000013_Node000018"><a xlink:title=" ">
<path fill="none" stroke="#63b8ff" d="M559.58,-171.71C562.76,-171.17 565.93,-170.67 569,-170.25 800.32,-138.87 860.13,-150.52 1093,-134.25 1118.7,-132.45 1147.22,-130.43 1171.15,-128.73"/>
<polygon fill="#63b8ff" stroke="#63b8ff" points="1171.26,-132.23 1180.99,-128.03 1170.76,-125.25 1171.26,-132.23"/>
</a>
</g>
</g>
<!-- Node21 -->
<g id="Node000021" class="node">
<title>Node21</title>
<g id="a_Node000021"><a xlink:href="step__shared_8h.html" target="_top" xlink:title=" ">
<polygon fill="white" stroke="#666666" points="431.12,-134.25 346.88,-134.25 346.88,-113.5 431.12,-113.5 431.12,-134.25"/>
<text xml:space="preserve" text-anchor="middle" x="389" y="-120.75" font-family="Helvetica,sans-Serif" font-size="10.00">step_shared.h</text>
</a>
</g>
</g>
<!-- Node13&#45;&gt;Node21 -->
<g id="edge27_Node000013_Node000021" class="edge">
<title>Node13&#45;&gt;Node21</title>
<g id="a_edge27_Node000013_Node000021"><a xlink:title=" ">
<path fill="none" stroke="#63b8ff" d="M499.04,-169.84C477.99,-161.23 447.1,-148.61 423.4,-138.93"/>
<polygon fill="#63b8ff" stroke="#63b8ff" points="424.73,-135.69 414.15,-135.15 422.08,-142.17 424.73,-135.69"/>
</a>
</g>
</g>
<!-- Node18&#45;&gt;Node3 -->
<g id="edge23_Node000018_Node000003" class="edge">
<title>Node18&#45;&gt;Node3</title>
<g id="a_edge23_Node000018_Node000003"><a xlink:title=" ">
<path fill="none" stroke="#63b8ff" d="M1207.12,-113.09C1191.91,-104.76 1169.81,-92.66 1152.37,-83.11"/>
<polygon fill="#63b8ff" stroke="#63b8ff" points="1154.5,-80.29 1144.05,-78.56 1151.14,-86.43 1154.5,-80.29"/>
</a>
</g>
</g>
<!-- Node18&#45;&gt;Node4 -->
<g id="edge25_Node000018_Node000004" class="edge">
<title>Node18&#45;&gt;Node4</title>
<g id="a_edge25_Node000018_Node000004"><a xlink:title=" ">
<path fill="none" stroke="#63b8ff" d="M1231.66,-113.45C1240.79,-99.3 1254.48,-72.54 1240,-56.75 1208.98,-22.9 901.15,-14.21 774.25,-12.06"/>
<polygon fill="#63b8ff" stroke="#63b8ff" points="774.48,-8.56 764.42,-11.9 774.37,-15.56 774.48,-8.56"/>
</a>
</g>
</g>
<!-- Node18&#45;&gt;Node7 -->
<g id="edge22_Node000018_Node000007" class="edge">
<title>Node18&#45;&gt;Node7</title>
<g id="a_edge22_Node000018_Node000007"><a xlink:title=" ">
<path fill="none" stroke="#63b8ff" d="M1182.41,-118.47C1123.14,-111.98 1012.25,-98.53 908.94,-77.91"/>
<polygon fill="#63b8ff" stroke="#63b8ff" points="909.65,-74.48 899.16,-75.93 908.26,-81.34 909.65,-74.48"/>
</a>
</g>
</g>
<!-- Node19 -->
<g id="Node000019" class="node">
<title>Node19</title>
<g id="a_Node000019"><a xlink:title=" ">
<polygon fill="#e0e0e0" stroke="#999999" points="1378.5,-77.5 1287.5,-77.5 1287.5,-56.75 1378.5,-56.75 1378.5,-77.5"/>
<text xml:space="preserve" text-anchor="middle" x="1333" y="-64" font-family="Helvetica,sans-Serif" font-size="10.00">event_groups.h</text>
</a>
</g>
</g>
<!-- Node18&#45;&gt;Node19 -->
<g id="edge24_Node000018_Node000019" class="edge">
<title>Node18&#45;&gt;Node19</title>
<g id="a_edge24_Node000018_Node000019"><a xlink:title=" ">
<path fill="none" stroke="#63b8ff" d="M1244.31,-113.09C1260.82,-104.72 1284.83,-92.54 1303.71,-82.97"/>
<polygon fill="#63b8ff" stroke="#63b8ff" points="1305.17,-86.16 1312.51,-78.51 1302.01,-79.91 1305.17,-86.16"/>
</a>
</g>
</g>
<!-- Node20 -->
<g id="Node000020" class="node">
<title>Node20</title>
<g id="a_Node000020"><a xlink:title=" ">
<polygon fill="#e0e0e0" stroke="#999999" points="1231,-77.5 1179,-77.5 1179,-56.75 1231,-56.75 1231,-77.5"/>
<text xml:space="preserve" text-anchor="middle" x="1205" y="-64" font-family="Helvetica,sans-Serif" font-size="10.00">stdlib.h</text>
</a>
</g>
</g>
<!-- Node18&#45;&gt;Node20 -->
<g id="edge26_Node000018_Node000020" class="edge">
<title>Node18&#45;&gt;Node20</title>
<g id="a_edge26_Node000018_Node000020"><a xlink:title=" ">
<path fill="none" stroke="#63b8ff" d="M1221.42,-113.09C1218.92,-106.24 1215.49,-96.84 1212.41,-88.4"/>
<polygon fill="#63b8ff" stroke="#63b8ff" points="1215.78,-87.44 1209.06,-79.25 1209.21,-89.84 1215.78,-87.44"/>
</a>
</g>
</g>
<!-- Node21&#45;&gt;Node4 -->
<g id="edge31_Node000021_Node000004" class="edge">
<title>Node21&#45;&gt;Node4</title>
<g id="a_edge31_Node000021_Node000004"><a xlink:title=" ">
<path fill="none" stroke="#63b8ff" d="M404.18,-113.27C431.74,-95.88 488.11,-60.63 498,-56.75 553.04,-35.18 619.95,-23.3 665.84,-17.17"/>
<polygon fill="#63b8ff" stroke="#63b8ff" points="666.06,-20.67 675.53,-15.92 665.16,-13.72 666.06,-20.67"/>
</a>
</g>
</g>
<!-- Node21&#45;&gt;Node7 -->
<g id="edge28_Node000021_Node000007" class="edge">
<title>Node21&#45;&gt;Node7</title>
<g id="a_edge28_Node000021_Node000007"><a xlink:title=" ">
<path fill="none" stroke="#63b8ff" d="M431.35,-118.06C524.14,-107.52 744.17,-82.53 832.91,-72.45"/>
<polygon fill="#63b8ff" stroke="#63b8ff" points="833.25,-75.94 842.79,-71.33 832.46,-68.98 833.25,-75.94"/>
</a>
</g>
</g>
<!-- Node21&#45;&gt;Node10 -->
<g id="edge29_Node000021_Node000010" class="edge">
<title>Node21&#45;&gt;Node10</title>
<g id="a_edge29_Node000021_Node000010"><a xlink:title=" ">
<path fill="none" stroke="#63b8ff" d="M346.6,-115.43C294.52,-106.3 205.56,-90.69 144.15,-79.91"/>
<polygon fill="#63b8ff" stroke="#63b8ff" points="144.97,-76.5 134.51,-78.22 143.76,-83.39 144.97,-76.5"/>
</a>
</g>
</g>
<!-- Node21&#45;&gt;Node15 -->
<g id="edge32_Node000021_Node000015" class="edge">
<title>Node21&#45;&gt;Node15</title>
<g id="a_edge32_Node000021_Node000015"><a xlink:title=" ">
<path fill="none" stroke="#63b8ff" d="M369.69,-113.09C353.18,-104.72 329.17,-92.54 310.29,-82.97"/>
<polygon fill="#63b8ff" stroke="#63b8ff" points="311.99,-79.91 301.49,-78.51 308.83,-86.16 311.99,-79.91"/>
</a>
</g>
</g>
<!-- Node21&#45;&gt;Node16 -->
<g id="edge33_Node000021_Node000016" class="edge">
<title>Node21&#45;&gt;Node16</title>
<g id="a_edge33_Node000021_Node000016"><a xlink:title=" ">
<path fill="none" stroke="#63b8ff" d="M415.82,-113.09C439.74,-104.36 475,-91.48 501.68,-81.75"/>
<polygon fill="#63b8ff" stroke="#63b8ff" points="502.55,-85.16 510.74,-78.44 500.15,-78.58 502.55,-85.16"/>
</a>
</g>
</g>
<!-- Node21&#45;&gt;Node17 -->
<g id="edge34_Node000021_Node000017" class="edge">
<title>Node21&#45;&gt;Node17</title>
<g id="a_edge34_Node000021_Node000017"><a xlink:title=" ">
<path fill="none" stroke="#63b8ff" d="M355.75,-113.09C324.77,-103.97 278.45,-90.33 244.94,-80.47"/>
<polygon fill="#63b8ff" stroke="#63b8ff" points="246.14,-77.18 235.56,-77.71 244.17,-83.89 246.14,-77.18"/>
</a>
</g>
</g>
<!-- Node22 -->
<g id="Node000022" class="node">
<title>Node22</title>
<g id="a_Node000022"><a xlink:title=" ">
<polygon fill="#e0e0e0" stroke="#999999" points="451.25,-77.5 328.75,-77.5 328.75,-56.75 451.25,-56.75 451.25,-77.5"/>
<text xml:space="preserve" text-anchor="middle" x="390" y="-64" font-family="Helvetica,sans-Serif" font-size="10.00">fsl_device_registers.h</text>
</a>
</g>
</g>
<!-- Node21&#45;&gt;Node22 -->
<g id="edge30_Node000021_Node000022" class="edge">
<title>Node21&#45;&gt;Node22</title>
<g id="a_edge30_Node000021_Node000022"><a xlink:title=" ">
<path fill="none" stroke="#63b8ff" d="M389.18,-113.09C389.3,-106.47 389.46,-97.47 389.61,-89.27"/>
<polygon fill="#63b8ff" stroke="#63b8ff" points="393.11,-89.4 389.8,-79.34 386.11,-89.28 393.11,-89.4"/>
</a>
</g>
</g>
<!-- Node23&#45;&gt;Node4 -->
<g id="edge40_Node000023_Node000004" class="edge">
<title>Node23&#45;&gt;Node4</title>
<g id="a_edge40_Node000023_Node000004"><a xlink:title=" ">
<path fill="none" stroke="#63b8ff" d="M963.5,-170.39C984.6,-163.83 1007.83,-152.77 1022,-134.25 1043.04,-106.75 1052.64,-82.95 1030,-56.75 997.58,-19.24 854.16,-12.14 774.24,-11.17"/>
<polygon fill="#63b8ff" stroke="#63b8ff" points="774.48,-7.67 764.45,-11.08 774.42,-14.67 774.48,-7.67"/>
</a>
</g>
</g>
<!-- Node23&#45;&gt;Node7 -->
<g id="edge36_Node000023_Node000007" class="edge">
<title>Node23&#45;&gt;Node7</title>
<g id="a_edge36_Node000023_Node000007"><a xlink:title=" ">
<path fill="none" stroke="#63b8ff" d="M912.16,-170.12C904.89,-152.11 888.97,-112.64 879.19,-88.43"/>
<polygon fill="#63b8ff" stroke="#63b8ff" points="882.51,-87.29 875.52,-79.33 876.02,-89.91 882.51,-87.29"/>
</a>
</g>
</g>
<!-- Node23&#45;&gt;Node11 -->
<g id="edge42_Node000023_Node000011" class="edge">
<title>Node23&#45;&gt;Node11</title>
<g id="a_edge42_Node000023_Node000011"><a xlink:title=" ">
<path fill="none" stroke="#63b8ff" d="M868.62,-179.91C814.28,-178.37 723.94,-169.96 656,-134.25 613.3,-111.8 622.56,-79.47 580,-56.75 519.82,-24.63 440.64,-14.92 389.53,-12.17"/>
<polygon fill="#63b8ff" stroke="#63b8ff" points="389.78,-8.68 379.63,-11.71 389.46,-15.67 389.78,-8.68"/>
</a>
</g>
</g>
<!-- Node23&#45;&gt;Node18 -->
<g id="edge41_Node000023_Node000018" class="edge">
<title>Node23&#45;&gt;Node18</title>
<g id="a_edge41_Node000023_Node000018"><a xlink:title=" ">
<path fill="none" stroke="#63b8ff" d="M963.27,-171.25C1019.37,-161.31 1112.71,-144.77 1171.44,-134.36"/>
<polygon fill="#63b8ff" stroke="#63b8ff" points="1171.98,-137.82 1181.22,-132.63 1170.76,-130.93 1171.98,-137.82"/>
</a>
</g>
</g>
<!-- Node24 -->
<g id="Node000024" class="node">
<title>Node24</title>
<g id="a_Node000024"><a xlink:href="tmc2209__shared_8h.html" target="_top" xlink:title=" ">
<polygon fill="white" stroke="#666666" points="1013,-134.25 907,-134.25 907,-113.5 1013,-113.5 1013,-134.25"/>
<text xml:space="preserve" text-anchor="middle" x="960" y="-120.75" font-family="Helvetica,sans-Serif" font-size="10.00">tmc2209_shared.h</text>
</a>
</g>
</g>
<!-- Node23&#45;&gt;Node24 -->
<g id="edge37_Node000023_Node000024" class="edge">
<title>Node23&#45;&gt;Node24</title>
<g id="a_edge37_Node000023_Node000024"><a xlink:title=" ">
<path fill="none" stroke="#63b8ff" d="M923.87,-169.84C929.75,-162.52 937.97,-152.29 945.08,-143.44"/>
<polygon fill="#63b8ff" stroke="#63b8ff" points="947.72,-145.75 951.25,-135.76 942.26,-141.36 947.72,-145.75"/>
</a>
</g>
</g>
<!-- Node24&#45;&gt;Node7 -->
<g id="edge38_Node000024_Node000007" class="edge">
<title>Node24&#45;&gt;Node7</title>
<g id="a_edge38_Node000024_Node000007"><a xlink:title=" ">
<path fill="none" stroke="#63b8ff" d="M944.09,-113.09C930.8,-104.91 911.61,-93.11 896.23,-83.65"/>
<polygon fill="#63b8ff" stroke="#63b8ff" points="898.41,-80.88 888.06,-78.62 894.75,-86.84 898.41,-80.88"/>
</a>
</g>
</g>
<!-- Node25 -->
<g id="Node000025" class="node">
<title>Node25</title>
<g id="a_Node000025"><a xlink:title=" ">
<polygon fill="#e0e0e0" stroke="#999999" points="1020.62,-77.5 915.38,-77.5 915.38,-56.75 1020.62,-56.75 1020.62,-77.5"/>
<text xml:space="preserve" text-anchor="middle" x="968" y="-64" font-family="Helvetica,sans-Serif" font-size="10.00">fsl_uart_freertos.h</text>
</a>
</g>
</g>
<!-- Node24&#45;&gt;Node25 -->
<g id="edge39_Node000024_Node000025" class="edge">
<title>Node24&#45;&gt;Node25</title>
<g id="a_edge39_Node000024_Node000025"><a xlink:title=" ">
<path fill="none" stroke="#63b8ff" d="M961.43,-113.09C962.41,-106.39 963.74,-97.26 964.95,-88.98"/>
<polygon fill="#63b8ff" stroke="#63b8ff" points="968.38,-89.73 966.36,-79.33 961.45,-88.71 968.38,-89.73"/>
</a>
</g>
</g>
<!-- Node27&#45;&gt;Node6 -->
<g id="edge52_Node000027_Node000006" class="edge">
<title>Node27&#45;&gt;Node6</title>
<g id="a_edge52_Node000027_Node000006"><a xlink:title=" ">
<path fill="none" stroke="#63b8ff" d="M1201.59,-340.09C1185.91,-331.76 1163.15,-319.66 1145.19,-310.11"/>
<polygon fill="#63b8ff" stroke="#63b8ff" points="1147.06,-307.14 1136.59,-305.54 1143.78,-313.32 1147.06,-307.14"/>
</a>
</g>
</g>
<!-- Node27&#45;&gt;Node8 -->
<g id="edge53_Node000027_Node000008" class="edge">
<title>Node27&#45;&gt;Node8</title>
<g id="a_edge53_Node000027_Node000008"><a xlink:title=" ">
<path fill="none" stroke="#63b8ff" d="M1221.36,-340.37C1223.93,-322.52 1229.51,-283.61 1232.99,-259.34"/>
<polygon fill="#63b8ff" stroke="#63b8ff" points="1236.42,-260.07 1234.38,-249.67 1229.49,-259.07 1236.42,-260.07"/>
</a>
</g>
</g>
<!-- Node29&#45;&gt;Node3 -->
<g id="edge57_Node000029_Node000003" class="edge">
<title>Node29&#45;&gt;Node3</title>
<g id="a_edge57_Node000029_Node000003"><a xlink:title=" ">
<path fill="none" stroke="#63b8ff" d="M1294.98,-170.12C1294.44,-155.86 1291.28,-128.96 1276,-113.5 1268.47,-105.87 1213.62,-90.59 1172.18,-79.88"/>
<polygon fill="#63b8ff" stroke="#63b8ff" points="1173.19,-76.52 1162.63,-77.43 1171.45,-83.31 1173.19,-76.52"/>
</a>
</g>
</g>
<!-- Node29&#45;&gt;Node4 -->
<g id="edge59_Node000029_Node000004" class="edge">
<title>Node29&#45;&gt;Node4</title>
<g id="a_edge59_Node000029_Node000004"><a xlink:title=" ">
<path fill="none" stroke="#63b8ff" d="M1312.18,-169.85C1347.99,-148.32 1424.35,-95.65 1388,-56.75 1346.43,-12.26 925.37,-10.2 773.91,-10.92"/>
<polygon fill="#63b8ff" stroke="#63b8ff" points="774.13,-7.42 764.15,-10.97 774.16,-14.42 774.13,-7.42"/>
</a>
</g>
</g>
<!-- Node29&#45;&gt;Node7 -->
<g id="edge56_Node000029_Node000007" class="edge">
<title>Node29&#45;&gt;Node7</title>
<g id="a_edge56_Node000029_Node000007"><a xlink:title=" ">
<path fill="none" stroke="#63b8ff" d="M1257.7,-169.9C1190.23,-152.29 1043.1,-113.83 908.64,-78.19"/>
<polygon fill="#63b8ff" stroke="#63b8ff" points="909.78,-74.87 899.21,-75.69 907.98,-81.64 909.78,-74.87"/>
</a>
</g>
</g>
<!-- Node29&#45;&gt;Node18 -->
<g id="edge60_Node000029_Node000018" class="edge">
<title>Node29&#45;&gt;Node18</title>
<g id="a_edge60_Node000029_Node000018"><a xlink:title=" ">
<path fill="none" stroke="#63b8ff" d="M1282.49,-169.84C1272.43,-161.97 1258.09,-150.75 1246.24,-141.49"/>
<polygon fill="#63b8ff" stroke="#63b8ff" points="1248.63,-138.91 1238.6,-135.51 1244.32,-144.43 1248.63,-138.91"/>
</a>
</g>
</g>
<!-- Node29&#45;&gt;Node19 -->
<g id="edge58_Node000029_Node000019" class="edge">
<title>Node29&#45;&gt;Node19</title>
<g id="a_edge58_Node000029_Node000019"><a xlink:title=" ">
<path fill="none" stroke="#63b8ff" d="M1298.24,-170.12C1304.35,-152.19 1317.71,-113 1325.97,-88.76"/>
<polygon fill="#63b8ff" stroke="#63b8ff" points="1329.26,-89.95 1329.17,-79.36 1322.63,-87.69 1329.26,-89.95"/>
</a>
</g>
</g>
</g>
</svg>
