<?xml version="1.0" encoding="UTF-8" standalone="no"?>
<!DOCTYPE svg PUBLIC "-//W3C//DTD SVG 1.1//EN"
 "http://www.w3.org/Graphics/SVG/1.1/DTD/svg11.dtd">
<!-- Generated by graphviz version 14.1.5 (0)
 -->
<!-- Title: source/motor_configs.h Pages: 1 -->
<svg width="1308pt" height="313pt"
 viewBox="0.00 0.00 1308.00 313.00" xmlns="http://www.w3.org/2000/svg" xmlns:xlink="http://www.w3.org/1999/xlink">
<g id="graph0" class="graph" transform="scale(1 1) rotate(0) translate(4 308.5)">
<title>source/motor_configs.h</title>
<!-- Node1 -->
<g id="Node000001" class="node">
<title>Node1</title>
<g id="a_Node000001"><a xlink:title=" ">
<polygon fill="#999999" stroke="#666666" points="257,-304.5 127.75,-304.5 127.75,-283.75 257,-283.75 257,-304.5"/>
<text xml:space="preserve" text-anchor="middle" x="192.38" y="-291" font-family="Helvetica,sans-Serif" font-size="10.00">source/motor_configs.h</text>
</a>
</g>
</g>
<!-- Node2 -->
<g id="Node000002" class="node">
<title>Node2</title>
<g id="a_Node000002"><a xlink:title=" ">
<polygon fill="#e0e0e0" stroke="#999999" points="88.75,-191 0,-191 0,-170.25 88.75,-170.25 88.75,-191"/>
<text xml:space="preserve" text-anchor="middle" x="44.38" y="-177.5" font-family="Helvetica,sans-Serif" font-size="10.00">MK22F51212.h</text>
</a>
</g>
</g>
<!-- Node1&#45;&gt;Node2 -->
<g id="edge1_Node000001_Node000002" class="edge">
<title>Node1&#45;&gt;Node2</title>
<g id="a_edge1_Node000001_Node000002"><a xlink:title=" ">
<path fill="none" stroke="#63b8ff" d="M179.5,-283.43C154.13,-264.31 97.45,-221.61 66.16,-198.04"/>
<polygon fill="#63b8ff" stroke="#63b8ff" points="68.63,-195.51 58.53,-192.29 64.42,-201.11 68.63,-195.51"/>
</a>
</g>
</g>
<!-- Node3 -->
<g id="Node000003" class="node">
<title>Node3</title>
<g id="a_Node000003"><a xlink:href="motor__core_8h.html" target="_top" xlink:title=" ">
<polygon fill="white" stroke="#666666" points="232.62,-247.75 152.12,-247.75 152.12,-227 232.62,-227 232.62,-247.75"/>
<text xml:space="preserve" text-anchor="middle" x="192.38" y="-234.25" font-family="Helvetica,sans-Serif" font-size="10.00">motor_core.h</text>
</a>
</g>
</g>
<!-- Node1&#45;&gt;Node3 -->
<g id="edge2_Node000001_Node000003" class="edge">
<title>Node1&#45;&gt;Node3</title>
<g id="a_edge2_Node000001_Node000003"><a xlink:title=" ">
<path fill="none" stroke="#63b8ff" d="M192.38,-283.34C192.38,-276.72 192.38,-267.72 192.38,-259.52"/>
<polygon fill="#63b8ff" stroke="#63b8ff" points="195.88,-259.59 192.38,-249.59 188.88,-259.59 195.88,-259.59"/>
</a>
</g>
</g>
<!-- Node6 -->
<g id="Node000006" class="node">
<title>Node6</title>
<g id="a_Node000006"><a xlink:title=" ">
<polygon fill="#e0e0e0" stroke="#999999" points="1300.25,-20.75 1220.5,-20.75 1220.5,0 1300.25,0 1300.25,-20.75"/>
<text xml:space="preserve" text-anchor="middle" x="1260.38" y="-7.25" font-family="Helvetica,sans-Serif" font-size="10.00">peripherals.h</text>
</a>
</g>
</g>
<!-- Node1&#45;&gt;Node6 -->
<g id="edge40_Node000001_Node000006" class="edge">
<title>Node1&#45;&gt;Node6</title>
<g id="a_edge40_Node000001_Node000006"><a xlink:title=" ">
<path fill="none" stroke="#63b8ff" d="M257.43,-293.44C494.51,-293.72 1298.38,-286.92 1298.38,-181.62 1298.38,-181.62 1298.38,-181.62 1298.38,-122.88 1298.38,-89.26 1282.71,-52.85 1271.5,-31.09"/>
<polygon fill="#63b8ff" stroke="#63b8ff" points="1274.68,-29.62 1266.86,-22.47 1268.52,-32.94 1274.68,-29.62"/>
</a>
</g>
</g>
<!-- Node3&#45;&gt;Node2 -->
<g id="edge6_Node000003_Node000002" class="edge">
<title>Node3&#45;&gt;Node2</title>
<g id="a_edge6_Node000003_Node000002"><a xlink:title=" ">
<path fill="none" stroke="#63b8ff" d="M165.92,-226.59C142.34,-217.87 107.61,-205.02 81.31,-195.29"/>
<polygon fill="#63b8ff" stroke="#63b8ff" points="82.62,-192.04 72.02,-191.85 80.19,-198.61 82.62,-192.04"/>
</a>
</g>
</g>
<!-- Node4 -->
<g id="Node000004" class="node">
<title>Node4</title>
<g id="a_Node000004"><a xlink:href="pca9555a_8h.html" target="_top" xlink:title=" ">
<polygon fill="white" stroke="#666666" points="692.38,-77.5 538.38,-77.5 538.38,-56.75 692.38,-56.75 692.38,-77.5"/>
<text xml:space="preserve" text-anchor="middle" x="615.38" y="-64" font-family="Helvetica,sans-Serif" font-size="10.00">driver/pca9555a/pca9555a.h</text>
</a>
</g>
</g>
<!-- Node3&#45;&gt;Node4 -->
<g id="edge3_Node000003_Node000004" class="edge">
<title>Node3&#45;&gt;Node4</title>
<g id="a_edge3_Node000003_Node000004"><a xlink:title=" ">
<path fill="none" stroke="#63b8ff" d="M232.73,-233.36C284.4,-228.58 376.12,-217 450.38,-191 500.07,-173.6 512.86,-166.64 554.38,-134.25 572.38,-120.2 589.72,-100.62 601.28,-86.42"/>
<polygon fill="#63b8ff" stroke="#63b8ff" points="603.88,-88.77 607.36,-78.76 598.4,-84.42 603.88,-88.77"/>
</a>
</g>
</g>
<!-- Node7 -->
<g id="Node000007" class="node">
<title>Node7</title>
<g id="a_Node000007"><a xlink:href="step__core_8h.html" target="_top" xlink:title=" ">
<polygon fill="white" stroke="#666666" points="441.5,-191 369.25,-191 369.25,-170.25 441.5,-170.25 441.5,-191"/>
<text xml:space="preserve" text-anchor="middle" x="405.38" y="-177.5" font-family="Helvetica,sans-Serif" font-size="10.00">step_core.h</text>
</a>
</g>
</g>
<!-- Node3&#45;&gt;Node7 -->
<g id="edge7_Node000003_Node000007" class="edge">
<title>Node3&#45;&gt;Node7</title>
<g id="a_edge7_Node000003_Node000007"><a xlink:title=" ">
<path fill="none" stroke="#63b8ff" d="M230.46,-226.59C266.18,-217.4 319.71,-203.64 358.14,-193.77"/>
<polygon fill="#63b8ff" stroke="#63b8ff" points="358.77,-197.22 367.58,-191.34 357.02,-190.44 358.77,-197.22"/>
</a>
</g>
</g>
<!-- Node10 -->
<g id="Node000010" class="node">
<title>Node10</title>
<g id="a_Node000010"><a xlink:title=" ">
<polygon fill="#e0e0e0" stroke="#999999" points="222.75,-77.5 164,-77.5 164,-56.75 222.75,-56.75 222.75,-77.5"/>
<text xml:space="preserve" text-anchor="middle" x="193.38" y="-64" font-family="Helvetica,sans-Serif" font-size="10.00">fsl_ftm.h</text>
</a>
</g>
</g>
<!-- Node3&#45;&gt;Node10 -->
<g id="edge37_Node000003_Node000010" class="edge">
<title>Node3&#45;&gt;Node10</title>
<g id="a_edge37_Node000003_Node000010"><a xlink:title=" ">
<path fill="none" stroke="#63b8ff" d="M188.51,-226.83C185.07,-217.78 180.29,-203.72 178.38,-191 173.24,-156.94 172.9,-147.51 178.38,-113.5 179.72,-105.12 182.39,-96.2 185.1,-88.5"/>
<polygon fill="#63b8ff" stroke="#63b8ff" points="188.28,-89.99 188.56,-79.4 181.74,-87.51 188.28,-89.99"/>
</a>
</g>
</g>
<!-- Node11 -->
<g id="Node000011" class="node">
<title>Node11</title>
<g id="a_Node000011"><a xlink:title=" ">
<polygon fill="#e0e0e0" stroke="#999999" points="304,-77.5 240.75,-77.5 240.75,-56.75 304,-56.75 304,-77.5"/>
<text xml:space="preserve" text-anchor="middle" x="272.38" y="-64" font-family="Helvetica,sans-Serif" font-size="10.00">fsl_gpio.h</text>
</a>
</g>
</g>
<!-- Node3&#45;&gt;Node11 -->
<g id="edge38_Node000003_Node000011" class="edge">
<title>Node3&#45;&gt;Node11</title>
<g id="a_edge38_Node000003_Node000011"><a xlink:title=" ">
<path fill="none" stroke="#63b8ff" d="M196.7,-226.76C206.07,-205.99 229.05,-155.39 249.38,-113.5 253.46,-105.07 258.11,-95.84 262.15,-87.92"/>
<polygon fill="#63b8ff" stroke="#63b8ff" points="265.2,-89.65 266.65,-79.16 258.97,-86.46 265.2,-89.65"/>
</a>
</g>
</g>
<!-- Node12 -->
<g id="Node000012" class="node">
<title>Node12</title>
<g id="a_Node000012"><a xlink:title=" ">
<polygon fill="#e0e0e0" stroke="#999999" points="146.25,-77.5 84.5,-77.5 84.5,-56.75 146.25,-56.75 146.25,-77.5"/>
<text xml:space="preserve" text-anchor="middle" x="115.38" y="-64" font-family="Helvetica,sans-Serif" font-size="10.00">fsl_port.h</text>
</a>
</g>
</g>
<!-- Node3&#45;&gt;Node12 -->
<g id="edge39_Node000003_Node000012" class="edge">
<title>Node3&#45;&gt;Node12</title>
<g id="a_edge39_Node000003_Node000012"><a xlink:title=" ">
<path fill="none" stroke="#63b8ff" d="M187.85,-226.65C183.59,-217.46 177.03,-203.31 171.38,-191 154.73,-154.75 135.47,-112.4 124.43,-88.08"/>
<polygon fill="#63b8ff" stroke="#63b8ff" points="127.66,-86.73 120.34,-79.07 121.28,-89.62 127.66,-86.73"/>
</a>
</g>
</g>
<!-- Node19 -->
<g id="Node000019" class="node">
<title>Node19</title>
<g id="a_Node000019"><a xlink:href="tmc2209__core_8h.html" target="_top" xlink:title=" ">
<polygon fill="white" stroke="#666666" points="1131.38,-191 1037.38,-191 1037.38,-170.25 1131.38,-170.25 1131.38,-191"/>
<text xml:space="preserve" text-anchor="middle" x="1084.38" y="-177.5" font-family="Helvetica,sans-Serif" font-size="10.00">tmc2209_core.h</text>
</a>
</g>
</g>
<!-- Node3&#45;&gt;Node19 -->
<g id="edge29_Node000003_Node000019" class="edge">
<title>Node3&#45;&gt;Node19</title>
<g id="a_edge29_Node000003_Node000019"><a xlink:title=" ">
<path fill="none" stroke="#63b8ff" d="M233.02,-233.88C376.21,-225.09 857.65,-195.54 1025.81,-185.22"/>
<polygon fill="#63b8ff" stroke="#63b8ff" points="1025.86,-188.72 1035.62,-184.62 1025.43,-181.74 1025.86,-188.72"/>
</a>
</g>
</g>
<!-- Node5 -->
<g id="Node000005" class="node">
<title>Node5</title>
<g id="a_Node000005"><a xlink:title=" ">
<polygon fill="#e0e0e0" stroke="#999999" points="657.88,-20.75 572.88,-20.75 572.88,0 657.88,0 657.88,-20.75"/>
<text xml:space="preserve" text-anchor="middle" x="615.38" y="-7.25" font-family="Helvetica,sans-Serif" font-size="10.00">fsl_common.h</text>
</a>
</g>
</g>
<!-- Node4&#45;&gt;Node5 -->
<g id="edge4_Node000004_Node000005" class="edge">
<title>Node4&#45;&gt;Node5</title>
<g id="a_edge4_Node000004_Node000005"><a xlink:title=" ">
<path fill="none" stroke="#63b8ff" d="M615.38,-56.34C615.38,-49.72 615.38,-40.72 615.38,-32.52"/>
<polygon fill="#63b8ff" stroke="#63b8ff" points="618.88,-32.59 615.38,-22.59 611.88,-32.59 618.88,-32.59"/>
</a>
</g>
</g>
<!-- Node4&#45;&gt;Node6 -->
<g id="edge5_Node000004_Node000006" class="edge">
<title>Node4&#45;&gt;Node6</title>
<g id="a_edge5_Node000004_Node000006"><a xlink:title=" ">
<path fill="none" stroke="#63b8ff" d="M692.72,-57.59C695.64,-57.3 698.53,-57.02 701.38,-56.75 887.9,-39.02 1109.85,-22.31 1208.59,-15.1"/>
<polygon fill="#63b8ff" stroke="#63b8ff" points="1208.78,-18.59 1218.5,-14.38 1208.27,-11.61 1208.78,-18.59"/>
</a>
</g>
</g>
<!-- Node7&#45;&gt;Node4 -->
<g id="edge8_Node000007_Node000004" class="edge">
<title>Node7&#45;&gt;Node4</title>
<g id="a_edge8_Node000007_Node000004"><a xlink:title=" ">
<path fill="none" stroke="#63b8ff" d="M437.96,-169.79C462.46,-161.79 496.47,-149.36 524.38,-134.25 550.31,-120.2 577.32,-99.72 595.1,-85.28"/>
<polygon fill="#63b8ff" stroke="#63b8ff" points="597.32,-87.98 602.8,-78.92 592.87,-82.59 597.32,-87.98"/>
</a>
</g>
</g>
<!-- Node7&#45;&gt;Node5 -->
<g id="edge11_Node000007_Node000005" class="edge">
<title>Node7&#45;&gt;Node5</title>
<g id="a_edge11_Node000007_Node000005"><a xlink:title=" ">
<path fill="none" stroke="#63b8ff" d="M434.21,-169.76C452.45,-162.33 475.5,-150.6 491.38,-134.25 518.1,-106.73 502.65,-84.27 529.38,-56.75 542.4,-43.34 560.25,-33.04 576.31,-25.67"/>
<polygon fill="#63b8ff" stroke="#63b8ff" points="577.36,-29.03 585.15,-21.84 574.58,-22.6 577.36,-29.03"/>
</a>
</g>
</g>
<!-- Node8 -->
<g id="Node000008" class="node">
<title>Node8</title>
<g id="a_Node000008"><a xlink:title=" ">
<polygon fill="#e0e0e0" stroke="#999999" points="782.12,-77.5 710.62,-77.5 710.62,-56.75 782.12,-56.75 782.12,-77.5"/>
<text xml:space="preserve" text-anchor="middle" x="746.38" y="-64" font-family="Helvetica,sans-Serif" font-size="10.00">FreeRTOS.h</text>
</a>
</g>
</g>
<!-- Node7&#45;&gt;Node8 -->
<g id="edge9_Node000007_Node000008" class="edge">
<title>Node7&#45;&gt;Node8</title>
<g id="a_edge9_Node000007_Node000008"><a xlink:title=" ">
<path fill="none" stroke="#63b8ff" d="M438.92,-169.79C469.19,-160.82 514.89,-147.06 554.38,-134.25 607.94,-116.88 669.41,-95.44 708.07,-81.77"/>
<polygon fill="#63b8ff" stroke="#63b8ff" points="709.13,-85.11 717.39,-78.47 706.8,-78.51 709.13,-85.11"/>
</a>
</g>
</g>
<!-- Node9 -->
<g id="Node000009" class="node">
<title>Node9</title>
<g id="a_Node000009"><a xlink:title=" ">
<polygon fill="#e0e0e0" stroke="#999999" points="304.38,-134.25 258.38,-134.25 258.38,-113.5 304.38,-113.5 304.38,-134.25"/>
<text xml:space="preserve" text-anchor="middle" x="281.38" y="-120.75" font-family="Helvetica,sans-Serif" font-size="10.00">task.h</text>
</a>
</g>
</g>
<!-- Node7&#45;&gt;Node9 -->
<g id="edge10_Node000007_Node000009" class="edge">
<title>Node7&#45;&gt;Node9</title>
<g id="a_edge10_Node000007_Node000009"><a xlink:title=" ">
<path fill="none" stroke="#63b8ff" d="M383.21,-169.84C363.9,-161.31 335.65,-148.84 313.8,-139.19"/>
<polygon fill="#63b8ff" stroke="#63b8ff" points="315.3,-136.03 304.74,-135.19 312.47,-142.43 315.3,-136.03"/>
</a>
</g>
</g>
<!-- Node7&#45;&gt;Node10 -->
<g id="edge12_Node000007_Node000010" class="edge">
<title>Node7&#45;&gt;Node10</title>
<g id="a_edge12_Node000007_Node000010"><a xlink:title=" ">
<path fill="none" stroke="#63b8ff" d="M392.8,-169.96C371.65,-153.8 329.67,-122.24 313.38,-113.5 287.96,-99.87 257.55,-88.42 233.71,-80.43"/>
<polygon fill="#63b8ff" stroke="#63b8ff" points="234.95,-77.15 224.35,-77.37 232.77,-83.8 234.95,-77.15"/>
</a>
</g>
</g>
<!-- Node7&#45;&gt;Node11 -->
<g id="edge13_Node000007_Node000011" class="edge">
<title>Node7&#45;&gt;Node11</title>
<g id="a_edge13_Node000007_Node000011"><a xlink:title=" ">
<path fill="none" stroke="#63b8ff" d="M398.13,-169.84C387.7,-156.17 367.39,-131.06 346.38,-113.5 332.6,-101.99 315.63,-91.37 301.41,-83.3"/>
<polygon fill="#63b8ff" stroke="#63b8ff" points="303.41,-80.4 292.96,-78.63 300.02,-86.53 303.41,-80.4"/>
</a>
</g>
</g>
<!-- Node7&#45;&gt;Node12 -->
<g id="edge14_Node000007_Node000012" class="edge">
<title>Node7&#45;&gt;Node12</title>
<g id="a_edge14_Node000007_Node000012"><a xlink:title=" ">
<path fill="none" stroke="#63b8ff" d="M368.84,-170.93C336.84,-162.87 289.34,-149.78 249.38,-134.25 211.33,-119.46 169.44,-97.88 142.8,-83.43"/>
<polygon fill="#63b8ff" stroke="#63b8ff" points="144.48,-80.37 134.03,-78.63 141.12,-86.51 144.48,-80.37"/>
</a>
</g>
</g>
<!-- Node13 -->
<g id="Node000013" class="node">
<title>Node13</title>
<g id="a_Node000013"><a xlink:href="cmd__handle_8h.html" target="_top" xlink:title=" ">
<polygon fill="white" stroke="#666666" points="958.5,-134.25 874.25,-134.25 874.25,-113.5 958.5,-113.5 958.5,-134.25"/>
<text xml:space="preserve" text-anchor="middle" x="916.38" y="-120.75" font-family="Helvetica,sans-Serif" font-size="10.00">cmd_handle.h</text>
</a>
</g>
</g>
<!-- Node7&#45;&gt;Node13 -->
<g id="edge15_Node000007_Node000013" class="edge">
<title>Node7&#45;&gt;Node13</title>
<g id="a_edge15_Node000007_Node000013"><a xlink:title=" ">
<path fill="none" stroke="#63b8ff" d="M441.72,-175.73C530.39,-166.23 758.23,-141.82 862.65,-130.63"/>
<polygon fill="#63b8ff" stroke="#63b8ff" points="862.78,-134.14 872.35,-129.59 862.04,-127.18 862.78,-134.14"/>
</a>
</g>
</g>
<!-- Node17 -->
<g id="Node000017" class="node">
<title>Node17</title>
<g id="a_Node000017"><a xlink:href="step__shared_8h.html" target="_top" xlink:title=" ">
<polygon fill="white" stroke="#666666" points="482.5,-134.25 398.25,-134.25 398.25,-113.5 482.5,-113.5 482.5,-134.25"/>
<text xml:space="preserve" text-anchor="middle" x="440.38" y="-120.75" font-family="Helvetica,sans-Serif" font-size="10.00">step_shared.h</text>
</a>
</g>
</g>
<!-- Node7&#45;&gt;Node17 -->
<g id="edge21_Node000007_Node000017" class="edge">
<title>Node7&#45;&gt;Node17</title>
<g id="a_edge21_Node000007_Node000017"><a xlink:title=" ">
<path fill="none" stroke="#63b8ff" d="M411.63,-169.84C416.21,-162.67 422.57,-152.73 428.14,-144.01"/>
<polygon fill="#63b8ff" stroke="#63b8ff" points="430.92,-146.16 433.36,-135.85 425.02,-142.39 430.92,-146.16"/>
</a>
</g>
</g>
<!-- Node13&#45;&gt;Node5 -->
<g id="edge19_Node000013_Node000005" class="edge">
<title>Node13&#45;&gt;Node5</title>
<g id="a_edge19_Node000013_Node000005"><a xlink:title=" ">
<path fill="none" stroke="#63b8ff" d="M934.6,-113.09C956.6,-100.06 988.64,-76.36 971.38,-56.75 951.76,-34.47 764.1,-20.22 669.44,-14.39"/>
<polygon fill="#63b8ff" stroke="#63b8ff" points="669.8,-10.9 659.61,-13.79 669.38,-17.89 669.8,-10.9"/>
</a>
</g>
</g>
<!-- Node13&#45;&gt;Node8 -->
<g id="edge17_Node000013_Node000008" class="edge">
<title>Node13&#45;&gt;Node8</title>
<g id="a_edge17_Node000013_Node000008"><a xlink:title=" ">
<path fill="none" stroke="#63b8ff" d="M885.98,-113.09C858.51,-104.24 817.84,-91.14 787.47,-81.36"/>
<polygon fill="#63b8ff" stroke="#63b8ff" points="788.82,-78.12 778.23,-78.38 786.68,-84.78 788.82,-78.12"/>
</a>
</g>
</g>
<!-- Node14 -->
<g id="Node000014" class="node">
<title>Node14</title>
<g id="a_Node000014"><a xlink:title=" ">
<polygon fill="#e0e0e0" stroke="#999999" points="1070.75,-77.5 1018,-77.5 1018,-56.75 1070.75,-56.75 1070.75,-77.5"/>
<text xml:space="preserve" text-anchor="middle" x="1044.38" y="-64" font-family="Helvetica,sans-Serif" font-size="10.00">stdint.h</text>
</a>
</g>
</g>
<!-- Node13&#45;&gt;Node14 -->
<g id="edge16_Node000013_Node000014" class="edge">
<title>Node13&#45;&gt;Node14</title>
<g id="a_edge16_Node000013_Node000014"><a xlink:title=" ">
<path fill="none" stroke="#63b8ff" d="M939.26,-113.09C959.28,-104.52 988.61,-91.98 1011.21,-82.31"/>
<polygon fill="#63b8ff" stroke="#63b8ff" points="1012.48,-85.57 1020.3,-78.42 1009.73,-79.14 1012.48,-85.57"/>
</a>
</g>
</g>
<!-- Node15 -->
<g id="Node000015" class="node">
<title>Node15</title>
<g id="a_Node000015"><a xlink:title=" ">
<polygon fill="#e0e0e0" stroke="#999999" points="961.88,-77.5 870.88,-77.5 870.88,-56.75 961.88,-56.75 961.88,-77.5"/>
<text xml:space="preserve" text-anchor="middle" x="916.38" y="-64" font-family="Helvetica,sans-Serif" font-size="10.00">event_groups.h</text>
</a>
</g>
</g>
<!-- Node13&#45;&gt;Node15 -->
<g id="edge18_Node000013_Node000015" class="edge">
<title>Node13&#45;&gt;Node15</title>
<g id="a_edge18_Node000013_Node000015"><a xlink:title=" ">
<path fill="none" stroke="#63b8ff" d="M916.38,-113.09C916.38,-106.47 916.38,-97.47 916.38,-89.27"/>
<polygon fill="#63b8ff" stroke="#63b8ff" points="919.88,-89.34 916.38,-79.34 912.88,-89.34 919.88,-89.34"/>
</a>
</g>
</g>
<!-- Node16 -->
<g id="Node000016" class="node">
<title>Node16</title>
<g id="a_Node000016"><a xlink:title=" ">
<polygon fill="#e0e0e0" stroke="#999999" points="852.38,-77.5 800.38,-77.5 800.38,-56.75 852.38,-56.75 852.38,-77.5"/>
<text xml:space="preserve" text-anchor="middle" x="826.38" y="-64" font-family="Helvetica,sans-Serif" font-size="10.00">stdlib.h</text>
</a>
</g>
</g>
<!-- Node13&#45;&gt;Node16 -->
<g id="edge20_Node000013_Node000016" class="edge">
<title>Node13&#45;&gt;Node16</title>
<g id="a_edge20_Node000013_Node000016"><a xlink:title=" ">
<path fill="none" stroke="#63b8ff" d="M900.28,-113.09C886.85,-104.91 867.44,-93.11 851.89,-83.65"/>
<polygon fill="#63b8ff" stroke="#63b8ff" points="853.98,-80.82 843.62,-78.62 850.34,-86.8 853.98,-80.82"/>
</a>
</g>
</g>
<!-- Node17&#45;&gt;Node4 -->
<g id="edge23_Node000017_Node000004" class="edge">
<title>Node17&#45;&gt;Node4</title>
<g id="a_edge23_Node000017_Node000004"><a xlink:title=" ">
<path fill="none" stroke="#63b8ff" d="M471.66,-113.09C500.07,-104.2 542.18,-91.02 573.48,-81.23"/>
<polygon fill="#63b8ff" stroke="#63b8ff" points="574.12,-84.7 582.62,-78.37 572.03,-78.02 574.12,-84.7"/>
</a>
</g>
</g>
<!-- Node17&#45;&gt;Node5 -->
<g id="edge25_Node000017_Node000005" class="edge">
<title>Node17&#45;&gt;Node5</title>
<g id="a_edge25_Node000017_Node000005"><a xlink:title=" ">
<path fill="none" stroke="#63b8ff" d="M407.17,-113.06C374.06,-101.61 330.84,-81.11 351.38,-56.75 377.67,-25.55 491.96,-15.8 561.26,-12.76"/>
<polygon fill="#63b8ff" stroke="#63b8ff" points="561.03,-16.27 570.88,-12.37 560.74,-9.28 561.03,-16.27"/>
</a>
</g>
</g>
<!-- Node17&#45;&gt;Node10 -->
<g id="edge26_Node000017_Node000010" class="edge">
<title>Node17&#45;&gt;Node10</title>
<g id="a_edge26_Node000017_Node000010"><a xlink:title=" ">
<path fill="none" stroke="#63b8ff" d="M397.87,-114.01C357.98,-105.61 296.36,-92.43 234.39,-78.16"/>
<polygon fill="#63b8ff" stroke="#63b8ff" points="235.23,-74.76 224.7,-75.91 233.65,-81.58 235.23,-74.76"/>
</a>
</g>
</g>
<!-- Node17&#45;&gt;Node11 -->
<g id="edge27_Node000017_Node000011" class="edge">
<title>Node17&#45;&gt;Node11</title>
<g id="a_edge27_Node000017_Node000011"><a xlink:title=" ">
<path fill="none" stroke="#63b8ff" d="M410.34,-113.09C383.19,-104.24 342.99,-91.14 312.99,-81.36"/>
<polygon fill="#63b8ff" stroke="#63b8ff" points="314.46,-78.16 303.87,-78.39 312.3,-84.82 314.46,-78.16"/>
</a>
</g>
</g>
<!-- Node17&#45;&gt;Node12 -->
<g id="edge28_Node000017_Node000012" class="edge">
<title>Node17&#45;&gt;Node12</title>
<g id="a_edge28_Node000017_Node000012"><a xlink:title=" ">
<path fill="none" stroke="#63b8ff" d="M398.19,-117.13C344.6,-109.62 249,-95.52 157.47,-77.79"/>
<polygon fill="#63b8ff" stroke="#63b8ff" points="158.31,-74.39 147.82,-75.91 156.96,-81.26 158.31,-74.39"/>
</a>
</g>
</g>
<!-- Node17&#45;&gt;Node14 -->
<g id="edge22_Node000017_Node000014" class="edge">
<title>Node17&#45;&gt;Node14</title>
<g id="a_edge22_Node000017_Node000014"><a xlink:title=" ">
<path fill="none" stroke="#63b8ff" d="M482.76,-119.87C572.84,-113.34 789.91,-96.9 971.38,-77.5 982.78,-76.28 995.17,-74.76 1006.45,-73.31"/>
<polygon fill="#63b8ff" stroke="#63b8ff" points="1006.75,-76.8 1016.21,-72.02 1005.84,-69.86 1006.75,-76.8"/>
</a>
</g>
</g>
<!-- Node18 -->
<g id="Node000018" class="node">
<title>Node18</title>
<g id="a_Node000018"><a xlink:title=" ">
<polygon fill="#e0e0e0" stroke="#999999" points="482.62,-77.5 360.12,-77.5 360.12,-56.75 482.62,-56.75 482.62,-77.5"/>
<text xml:space="preserve" text-anchor="middle" x="421.38" y="-64" font-family="Helvetica,sans-Serif" font-size="10.00">fsl_device_registers.h</text>
</a>
</g>
</g>
<!-- Node17&#45;&gt;Node18 -->
<g id="edge24_Node000017_Node000018" class="edge">
<title>Node17&#45;&gt;Node18</title>
<g id="a_edge24_Node000017_Node000018"><a xlink:title=" ">
<path fill="none" stroke="#63b8ff" d="M436.98,-113.09C434.63,-106.31 431.41,-97.05 428.51,-88.69"/>
<polygon fill="#63b8ff" stroke="#63b8ff" points="431.82,-87.56 425.24,-79.26 425.21,-89.85 431.82,-87.56"/>
</a>
</g>
</g>
<!-- Node19&#45;&gt;Node5 -->
<g id="edge34_Node000019_Node000005" class="edge">
<title>Node19&#45;&gt;Node5</title>
<g id="a_edge34_Node000019_Node000005"><a xlink:title=" ">
<path fill="none" stroke="#63b8ff" d="M1127.68,-169.8C1148.4,-163.03 1172,-151.95 1187.38,-134.25 1210.44,-107.7 1227.27,-82.56 1203.38,-56.75 1167.52,-18.02 807.93,-12.24 669.39,-11.46"/>
<polygon fill="#63b8ff" stroke="#63b8ff" points="669.78,-7.96 659.76,-11.41 669.74,-14.96 669.78,-7.96"/>
</a>
</g>
</g>
<!-- Node19&#45;&gt;Node6 -->
<g id="edge36_Node000019_Node000006" class="edge">
<title>Node19&#45;&gt;Node6</title>
<g id="a_edge36_Node000019_Node000006"><a xlink:title=" ">
<path fill="none" stroke="#63b8ff" d="M1131.61,-177.96C1165.59,-174.16 1209.91,-163.42 1236.38,-134.25 1261.84,-106.18 1263.75,-59.34 1262.38,-32.32"/>
<polygon fill="#63b8ff" stroke="#63b8ff" points="1265.89,-32.36 1261.67,-22.64 1258.91,-32.87 1265.89,-32.36"/>
</a>
</g>
</g>
<!-- Node19&#45;&gt;Node13 -->
<g id="edge35_Node000019_Node000013" class="edge">
<title>Node19&#45;&gt;Node13</title>
<g id="a_edge35_Node000019_Node000013"><a xlink:title=" ">
<path fill="none" stroke="#63b8ff" d="M1054.34,-169.84C1027.19,-160.99 986.99,-147.89 956.99,-138.11"/>
<polygon fill="#63b8ff" stroke="#63b8ff" points="958.46,-134.91 947.87,-135.14 956.3,-141.57 958.46,-134.91"/>
</a>
</g>
</g>
<!-- Node19&#45;&gt;Node14 -->
<g id="edge30_Node000019_Node000014" class="edge">
<title>Node19&#45;&gt;Node14</title>
<g id="a_edge30_Node000019_Node000014"><a xlink:title=" ">
<path fill="none" stroke="#63b8ff" d="M1079.43,-170.07C1074.87,-161.01 1068.1,-146.94 1063.38,-134.25 1057.81,-119.32 1052.89,-102 1049.45,-88.83"/>
<polygon fill="#63b8ff" stroke="#63b8ff" points="1052.85,-87.99 1047,-79.16 1046.06,-89.71 1052.85,-87.99"/>
</a>
</g>
</g>
<!-- Node20 -->
<g id="Node000020" class="node">
<title>Node20</title>
<g id="a_Node000020"><a xlink:href="tmc2209__shared_8h.html" target="_top" xlink:title=" ">
<polygon fill="white" stroke="#666666" points="1178.38,-134.25 1072.38,-134.25 1072.38,-113.5 1178.38,-113.5 1178.38,-134.25"/>
<text xml:space="preserve" text-anchor="middle" x="1125.38" y="-120.75" font-family="Helvetica,sans-Serif" font-size="10.00">tmc2209_shared.h</text>
</a>
</g>
</g>
<!-- Node19&#45;&gt;Node20 -->
<g id="edge31_Node000019_Node000020" class="edge">
<title>Node19&#45;&gt;Node20</title>
<g id="a_edge31_Node000019_Node000020"><a xlink:title=" ">
<path fill="none" stroke="#63b8ff" d="M1091.7,-169.84C1097.13,-162.6 1104.68,-152.51 1111.26,-143.72"/>
<polygon fill="#63b8ff" stroke="#63b8ff" points="1114.01,-145.89 1117.2,-135.79 1108.41,-141.7 1114.01,-145.89"/>
</a>
</g>
</g>
<!-- Node20&#45;&gt;Node14 -->
<g id="edge32_Node000020_Node000014" class="edge">
<title>Node20&#45;&gt;Node14</title>
<g id="a_edge32_Node000020_Node000014"><a xlink:title=" ">
<path fill="none" stroke="#63b8ff" d="M1110.89,-113.09C1099.03,-105.07 1082,-93.56 1068.14,-84.19"/>
<polygon fill="#63b8ff" stroke="#63b8ff" points="1070.23,-81.38 1059.98,-78.68 1066.31,-87.18 1070.23,-81.38"/>
</a>
</g>
</g>
<!-- Node21 -->
<g id="Node000021" class="node">
<title>Node21</title>
<g id="a_Node000021"><a xlink:title=" ">
<polygon fill="#e0e0e0" stroke="#999999" points="1194,-77.5 1088.75,-77.5 1088.75,-56.75 1194,-56.75 1194,-77.5"/>
<text xml:space="preserve" text-anchor="middle" x="1141.38" y="-64" font-family="Helvetica,sans-Serif" font-size="10.00">fsl_uart_freertos.h</text>
</a>
</g>
</g>
<!-- Node20&#45;&gt;Node21 -->
<g id="edge33_Node000020_Node000021" class="edge">
<title>Node20&#45;&gt;Node21</title>
<g id="a_edge33_Node000020_Node000021"><a xlink:title=" ">
<path fill="none" stroke="#63b8ff" d="M1128.24,-113.09C1130.21,-106.31 1132.92,-97.05 1135.37,-88.69"/>
<polygon fill="#63b8ff" stroke="#63b8ff" points="1138.67,-89.86 1138.11,-79.28 1131.95,-87.9 1138.67,-89.86"/>
</a>
</g>
</g>
</g>
</svg>
