<?xml version="1.0" encoding="UTF-8" standalone="no"?>
<!DOCTYPE svg PUBLIC "-//W3C//DTD SVG 1.1//EN"
 "http://www.w3.org/Graphics/SVG/1.1/DTD/svg11.dtd">
<!-- Generated by graphviz version 14.1.5 (0)
 -->
<!-- Title: source/motion/motor/motor_core.c Pages: 1 -->
<!--zoomable 439 -->

<svg id="main" version="1.1" xmlns="http://www.w3.org/2000/svg" xmlns:xlink="http://www.w3.org/1999/xlink" xml:space="preserve" onload="init(evt)">

<style type="text/css"><![CDATA[
.node, .edge {opacity: 0.7;}
.node.selected, .edge.selected {opacity: 1;}
.edge:hover path { stroke: red; }
.edge:hover polygon { stroke: red; fill: red; }
]]></style>

<defs>
  <circle id="rim" cx="0" cy="0" r="7"/>
  <circle id="rim2" cx="0" cy="0" r="3.5"/>
  <g id="zoomPlus">
    <use xlink:href="#rim" fill="#404040"><set attributeName="fill" to="#808080" begin="zoomplus.mouseover" end="zoomplus.mouseout"/></use>
    <path d="M-4,0h8M0,-4v8" fill="none" stroke="white" stroke-width="1.5" pointer-events="none"/>
  </g>
  <g id="zoomMin">
    <use xlink:href="#rim" fill="#404040"><set attributeName="fill" to="#808080" begin="zoomminus.mouseover" end="zoomminus.mouseout"/></use>
    <path d="M-4,0h8" fill="none" stroke="white" stroke-width="1.5" pointer-events="none"/>
  </g>
  <g id="arrowUp" transform="translate(30 24)">
    <use xlink:href="#rim"/>
    <path pointer-events="none" fill="none" stroke="white" stroke-width="1.5" d="M0,-3.0v7 M-2.5,-0.5L0,-3.0L2.5,-0.5"/>
  </g>
  <g id="arrowRight" transform="rotate(90) translate(36 -43)">
    <use xlink:href="#rim"/>
    <path pointer-events="none" fill="none" stroke="white" stroke-width="1.5" d="M0,-3.0v7 M-2.5,-0.5L0,-3.0L2.5,-0.5"/>
  </g>
  <g id="arrowDown" transform="rotate(180) translate(-30 -48)">
    <use xlink:href="#rim"/>
    <path pointer-events="none" fill="none" stroke="white" stroke-width="1.5" d="M0,-3.0v7 M-2.5,-0.5L0,-3.0L2.5,-0.5"/>
  </g>
  <g id="arrowLeft" transform="rotate(270) translate(-36 17)">
    <use xlink:href="#rim"/>
    <path pointer-events="none" fill="none" stroke="white" stroke-width="1.5" d="M0,-3.0v7 M-2.5,-0.5L0,-3.0L2.5,-0.5"/>
  </g>
  <g id="resetDef">
    <use xlink:href="#rim2" fill="#404040"><set attributeName="fill" to="#808080" begin="reset.mouseover" end="reset.mouseout"/></use>
  </g>
</defs>
<script type="application/ecmascript">
var viewWidth = 1332;
var viewHeight = 439;
var sectionId = 'dynsection-0';
</script>
<script type="application/ecmascript" xlink:href="svg.min.js"/>
<svg id="graph" class="graph">
<g id="viewport">
<title>source/motion/motor/motor_core.c</title>
<!-- Node1 -->
<g id="Node000001" class="node">
<title>Node1</title>
<g id="a_Node000001"><a xlink:title=" ">
<polygon fill="#999999" stroke="#666666" points="1065.38,-430.75 947.38,-430.75 947.38,-397.25 1065.38,-397.25 1065.38,-430.75"/>
<text xml:space="preserve" text-anchor="start" x="955.38" y="-417.25" font-family="Helvetica,sans-Serif" font-size="10.00">source/motion/motor</text>
<text xml:space="preserve" text-anchor="middle" x="1006.38" y="-404.5" font-family="Helvetica,sans-Serif" font-size="10.00">/motor_core.c</text>
</a>
</g>
</g>
<!-- Node2 -->
<g id="Node000002" class="node">
<title>Node2</title>
<g id="a_Node000002"><a xlink:href="motor__core_8h.html" target="_top" xlink:title=" ">
<polygon fill="white" stroke="#666666" points="486.62,-247.75 406.12,-247.75 406.12,-227 486.62,-227 486.62,-247.75"/>
<text xml:space="preserve" text-anchor="middle" x="446.38" y="-234.25" font-family="Helvetica,sans-Serif" font-size="10.00">motor_core.h</text>
</a>
</g>
</g>
<!-- Node1&#45;&gt;Node2 -->
<g id="edge1_Node000001_Node000002" class="edge">
<title>Node1&#45;&gt;Node2</title>
<g id="a_edge1_Node000001_Node000002"><a xlink:title=" ">
<path fill="none" stroke="#63b8ff" d="M947.04,-403.45C896.57,-394.64 822.45,-380.09 759.38,-361.25 653.71,-329.68 533.55,-277.8 477.83,-252.77"/>
<polygon fill="#63b8ff" stroke="#63b8ff" points="479.5,-249.68 468.95,-248.76 476.62,-256.06 479.5,-249.68"/>
</a>
</g>
</g>
<!-- Node9 -->
<g id="Node000009" class="node">
<title>Node9</title>
<g id="a_Node000009"><a xlink:title=" ">
<polygon fill="#e0e0e0" stroke="#999999" points="234.38,-134.25 188.38,-134.25 188.38,-113.5 234.38,-113.5 234.38,-134.25"/>
<text xml:space="preserve" text-anchor="middle" x="211.38" y="-120.75" font-family="Helvetica,sans-Serif" font-size="10.00">task.h</text>
</a>
</g>
</g>
<!-- Node1&#45;&gt;Node9 -->
<g id="edge56_Node000001_Node000009" class="edge">
<title>Node1&#45;&gt;Node9</title>
<g id="a_edge56_Node000001_Node000009"><a xlink:title=" ">
<path fill="none" stroke="#63b8ff" d="M947.17,-411.47C747.22,-405.52 109.38,-379.89 109.38,-295.12 109.38,-295.12 109.38,-295.12 109.38,-236.38 109.38,-205.8 109.26,-194.12 128.38,-170.25 140.92,-154.58 160.41,-143.53 177.35,-136.26"/>
<polygon fill="#63b8ff" stroke="#63b8ff" points="178.61,-139.53 186.61,-132.58 176.02,-133.02 178.61,-139.53"/>
</a>
</g>
</g>
<!-- Node22 -->
<g id="Node000022" class="node">
<title>Node22</title>
<g id="a_Node000022"><a xlink:href="motor__process_8h.html" target="_top" xlink:title=" ">
<polygon fill="white" stroke="#666666" points="977.88,-361.25 880.88,-361.25 880.88,-340.5 977.88,-340.5 977.88,-361.25"/>
<text xml:space="preserve" text-anchor="middle" x="929.38" y="-347.75" font-family="Helvetica,sans-Serif" font-size="10.00">motor_process.h</text>
</a>
</g>
</g>
<!-- Node1&#45;&gt;Node22 -->
<g id="edge39_Node000001_Node000022" class="edge">
<title>Node1&#45;&gt;Node22</title>
<g id="a_edge39_Node000001_Node000022"><a xlink:title=" ">
<path fill="none" stroke="#63b8ff" d="M986.14,-396.94C975.25,-388.3 961.82,-377.63 950.76,-368.85"/>
<polygon fill="#63b8ff" stroke="#63b8ff" points="952.97,-366.13 942.96,-362.66 948.61,-371.62 952.97,-366.13"/>
</a>
</g>
</g>
<!-- Node25 -->
<g id="Node000025" class="node">
<title>Node25</title>
<g id="a_Node000025"><a xlink:title=" ">
<polygon fill="#e0e0e0" stroke="#999999" points="1033.88,-247.75 978.88,-247.75 978.88,-227 1033.88,-227 1033.88,-247.75"/>
<text xml:space="preserve" text-anchor="middle" x="1006.38" y="-234.25" font-family="Helvetica,sans-Serif" font-size="10.00">queue.h</text>
</a>
</g>
</g>
<!-- Node1&#45;&gt;Node25 -->
<g id="edge55_Node000001_Node000025" class="edge">
<title>Node1&#45;&gt;Node25</title>
<g id="a_edge55_Node000001_Node000025"><a xlink:title=" ">
<path fill="none" stroke="#63b8ff" d="M1006.38,-396.88C1006.38,-365.15 1006.38,-294.59 1006.38,-259.31"/>
<polygon fill="#63b8ff" stroke="#63b8ff" points="1009.88,-259.56 1006.38,-249.56 1002.88,-259.56 1009.88,-259.56"/>
</a>
</g>
</g>
<!-- Node26 -->
<g id="Node000026" class="node">
<title>Node26</title>
<g id="a_Node000026"><a xlink:href="cmd__dispatch_8h.html" target="_top" xlink:title=" ">
<polygon fill="white" stroke="#666666" points="1126.62,-304.5 1034.12,-304.5 1034.12,-283.75 1126.62,-283.75 1126.62,-304.5"/>
<text xml:space="preserve" text-anchor="middle" x="1080.38" y="-291" font-family="Helvetica,sans-Serif" font-size="10.00">cmd_dispatch.h</text>
</a>
</g>
</g>
<!-- Node1&#45;&gt;Node26 -->
<g id="edge47_Node000001_Node000026" class="edge">
<title>Node1&#45;&gt;Node26</title>
<g id="a_edge47_Node000001_Node000026"><a xlink:title=" ">
<path fill="none" stroke="#63b8ff" d="M1016.35,-397.1C1029.77,-375.73 1053.62,-337.75 1068.11,-314.66"/>
<polygon fill="#63b8ff" stroke="#63b8ff" points="1071.06,-316.55 1073.41,-306.21 1065.13,-312.82 1071.06,-316.55"/>
</a>
</g>
</g>
<!-- Node27 -->
<g id="Node000027" class="node">
<title>Node27</title>
<g id="a_Node000027"><a xlink:href="log_8h.html" target="_top" xlink:title=" ">
<polygon fill="white" stroke="#666666" points="1206.38,-134.25 1166.38,-134.25 1166.38,-113.5 1206.38,-113.5 1206.38,-134.25"/>
<text xml:space="preserve" text-anchor="middle" x="1186.38" y="-120.75" font-family="Helvetica,sans-Serif" font-size="10.00">log.h</text>
</a>
</g>
</g>
<!-- Node1&#45;&gt;Node27 -->
<g id="edge52_Node000001_Node000027" class="edge">
<title>Node1&#45;&gt;Node27</title>
<g id="a_edge52_Node000001_Node000027"><a xlink:title=" ">
<path fill="none" stroke="#63b8ff" d="M1065.83,-398.11C1114.86,-381.86 1176.38,-350.43 1176.38,-295.12 1176.38,-295.12 1176.38,-295.12 1176.38,-236.38 1176.38,-204.71 1180.43,-168.19 1183.37,-145.82"/>
<polygon fill="#63b8ff" stroke="#63b8ff" points="1186.8,-146.58 1184.69,-136.19 1179.86,-145.62 1186.8,-146.58"/>
</a>
</g>
</g>
<!-- Node28 -->
<g id="Node000028" class="node">
<title>Node28</title>
<g id="a_Node000028"><a xlink:title=" ">
<polygon fill="#e0e0e0" stroke="#999999" points="1256.75,-361.25 1204,-361.25 1204,-340.5 1256.75,-340.5 1256.75,-361.25"/>
<text xml:space="preserve" text-anchor="middle" x="1230.38" y="-347.75" font-family="Helvetica,sans-Serif" font-size="10.00">string.h</text>
</a>
</g>
</g>
<!-- Node1&#45;&gt;Node28 -->
<g id="edge57_Node000001_Node000028" class="edge">
<title>Node1&#45;&gt;Node28</title>
<g id="a_edge57_Node000001_Node000028"><a xlink:title=" ">
<path fill="none" stroke="#63b8ff" d="M1065.81,-396.78C1105.99,-385.82 1157.83,-371.67 1192.49,-362.21"/>
<polygon fill="#63b8ff" stroke="#63b8ff" points="1193.36,-365.6 1202.09,-359.59 1191.52,-358.85 1193.36,-365.6"/>
</a>
</g>
</g>
<!-- Node29 -->
<g id="Node000029" class="node">
<title>Node29</title>
<g id="a_Node000029"><a xlink:title=" ">
<polygon fill="#e0e0e0" stroke="#999999" points="1323.88,-361.25 1274.88,-361.25 1274.88,-340.5 1323.88,-340.5 1323.88,-361.25"/>
<text xml:space="preserve" text-anchor="middle" x="1299.38" y="-347.75" font-family="Helvetica,sans-Serif" font-size="10.00">stdio.h</text>
</a>
</g>
</g>
<!-- Node1&#45;&gt;Node29 -->
<g id="edge58_Node000001_Node000029" class="edge">
<title>Node1&#45;&gt;Node29</title>
<g id="a_edge58_Node000001_Node000029"><a xlink:title=" ">
<path fill="none" stroke="#63b8ff" d="M1065.79,-402.39C1115.98,-393.13 1190,-378.82 1263.68,-361.52"/>
<polygon fill="#63b8ff" stroke="#63b8ff" points="1264.15,-365 1273.07,-359.29 1262.54,-358.19 1264.15,-365"/>
</a>
</g>
</g>
<!-- Node30 -->
<g id="Node000030" class="node">
<title>Node30</title>
<g id="a_Node000030"><a xlink:href="motor__motion_8h.html" target="_top" xlink:title=" ">
<polygon fill="white" stroke="#666666" points="862.38,-361.25 768.38,-361.25 768.38,-340.5 862.38,-340.5 862.38,-361.25"/>
<text xml:space="preserve" text-anchor="middle" x="815.38" y="-347.75" font-family="Helvetica,sans-Serif" font-size="10.00">motor_motion.h</text>
</a>
</g>
</g>
<!-- Node1&#45;&gt;Node30 -->
<g id="edge59_Node000001_Node000030" class="edge">
<title>Node1&#45;&gt;Node30</title>
<g id="a_edge59_Node000001_Node000030"><a xlink:title=" ">
<path fill="none" stroke="#63b8ff" d="M955.69,-396.78C924.72,-386.87 885.63,-374.36 856.57,-365.06"/>
<polygon fill="#63b8ff" stroke="#63b8ff" points="858,-361.84 847.41,-362.13 855.87,-368.51 858,-361.84"/>
</a>
</g>
</g>
<!-- Node3 -->
<g id="Node000003" class="node">
<title>Node3</title>
<g id="a_Node000003"><a xlink:href="pca9555a_8h.html" target="_top" xlink:title=" ">
<polygon fill="white" stroke="#666666" points="230.38,-77.5 76.38,-77.5 76.38,-56.75 230.38,-56.75 230.38,-77.5"/>
<text xml:space="preserve" text-anchor="middle" x="153.38" y="-64" font-family="Helvetica,sans-Serif" font-size="10.00">driver/pca9555a/pca9555a.h</text>
</a>
</g>
</g>
<!-- Node2&#45;&gt;Node3 -->
<g id="edge2_Node000002_Node000003" class="edge">
<title>Node2&#45;&gt;Node3</title>
<g id="a_edge2_Node000002_Node000003"><a xlink:title=" ">
<path fill="none" stroke="#63b8ff" d="M410.5,-226.56C345.79,-208.25 213.13,-167.7 179.38,-134.25 166.92,-121.91 160.28,-102.87 156.83,-88.39"/>
<polygon fill="#63b8ff" stroke="#63b8ff" points="160.35,-88.14 154.94,-79.03 153.49,-89.52 160.35,-88.14"/>
</a>
</g>
</g>
<!-- Node6 -->
<g id="Node000006" class="node">
<title>Node6</title>
<g id="a_Node000006"><a xlink:title=" ">
<polygon fill="#e0e0e0" stroke="#999999" points="225.75,-191 137,-191 137,-170.25 225.75,-170.25 225.75,-191"/>
<text xml:space="preserve" text-anchor="middle" x="181.38" y="-177.5" font-family="Helvetica,sans-Serif" font-size="10.00">MK22F51212.h</text>
</a>
</g>
</g>
<!-- Node2&#45;&gt;Node6 -->
<g id="edge5_Node000002_Node000006" class="edge">
<title>Node2&#45;&gt;Node6</title>
<g id="a_edge5_Node000002_Node000006"><a xlink:title=" ">
<path fill="none" stroke="#63b8ff" d="M405.84,-228C360.68,-218.67 287.41,-203.53 236.93,-193.1"/>
<polygon fill="#63b8ff" stroke="#63b8ff" points="237.87,-189.72 227.37,-191.13 236.46,-196.58 237.87,-189.72"/>
</a>
</g>
</g>
<!-- Node7 -->
<g id="Node000007" class="node">
<title>Node7</title>
<g id="a_Node000007"><a xlink:href="step__core_8h.html" target="_top" xlink:title=" ">
<polygon fill="white" stroke="#666666" points="482.5,-191 410.25,-191 410.25,-170.25 482.5,-170.25 482.5,-191"/>
<text xml:space="preserve" text-anchor="middle" x="446.38" y="-177.5" font-family="Helvetica,sans-Serif" font-size="10.00">step_core.h</text>
</a>
</g>
</g>
<!-- Node2&#45;&gt;Node7 -->
<g id="edge6_Node000002_Node000007" class="edge">
<title>Node2&#45;&gt;Node7</title>
<g id="a_edge6_Node000002_Node000007"><a xlink:title=" ">
<path fill="none" stroke="#63b8ff" d="M446.38,-226.59C446.38,-219.97 446.38,-210.97 446.38,-202.77"/>
<polygon fill="#63b8ff" stroke="#63b8ff" points="449.88,-202.84 446.38,-192.84 442.88,-202.84 449.88,-202.84"/>
</a>
</g>
</g>
<!-- Node10 -->
<g id="Node000010" class="node">
<title>Node10</title>
<g id="a_Node000010"><a xlink:title=" ">
<polygon fill="#e0e0e0" stroke="#999999" points="58.75,-77.5 0,-77.5 0,-56.75 58.75,-56.75 58.75,-77.5"/>
<text xml:space="preserve" text-anchor="middle" x="29.38" y="-64" font-family="Helvetica,sans-Serif" font-size="10.00">fsl_ftm.h</text>
</a>
</g>
</g>
<!-- Node2&#45;&gt;Node10 -->
<g id="edge36_Node000002_Node000010" class="edge">
<title>Node2&#45;&gt;Node10</title>
<g id="a_edge36_Node000002_Node000010"><a xlink:title=" ">
<path fill="none" stroke="#63b8ff" d="M405.71,-234.27C330.92,-229.79 174.97,-217.5 128.38,-191 85.68,-166.72 54.23,-116.17 39.21,-88.07"/>
<polygon fill="#63b8ff" stroke="#63b8ff" points="42.34,-86.49 34.65,-79.2 36.11,-89.69 42.34,-86.49"/>
</a>
</g>
</g>
<!-- Node11 -->
<g id="Node000011" class="node">
<title>Node11</title>
<g id="a_Node000011"><a xlink:title=" ">
<polygon fill="#e0e0e0" stroke="#999999" points="312,-77.5 248.75,-77.5 248.75,-56.75 312,-56.75 312,-77.5"/>
<text xml:space="preserve" text-anchor="middle" x="280.38" y="-64" font-family="Helvetica,sans-Serif" font-size="10.00">fsl_gpio.h</text>
</a>
</g>
</g>
<!-- Node2&#45;&gt;Node11 -->
<g id="edge37_Node000002_Node000011" class="edge">
<title>Node2&#45;&gt;Node11</title>
<g id="a_edge37_Node000002_Node000011"><a xlink:title=" ">
<path fill="none" stroke="#63b8ff" d="M436.71,-226.65C427.59,-217.47 413.54,-203.31 401.38,-191 364.43,-153.61 321.25,-109.71 297.76,-85.82"/>
<polygon fill="#63b8ff" stroke="#63b8ff" points="300.34,-83.45 290.84,-78.78 295.35,-88.36 300.34,-83.45"/>
</a>
</g>
</g>
<!-- Node12 -->
<g id="Node000012" class="node">
<title>Node12</title>
<g id="a_Node000012"><a xlink:title=" ">
<polygon fill="#e0e0e0" stroke="#999999" points="570.25,-77.5 508.5,-77.5 508.5,-56.75 570.25,-56.75 570.25,-77.5"/>
<text xml:space="preserve" text-anchor="middle" x="539.38" y="-64" font-family="Helvetica,sans-Serif" font-size="10.00">fsl_port.h</text>
</a>
</g>
</g>
<!-- Node2&#45;&gt;Node12 -->
<g id="edge38_Node000002_Node000012" class="edge">
<title>Node2&#45;&gt;Node12</title>
<g id="a_edge38_Node000002_Node000012"><a xlink:title=" ">
<path fill="none" stroke="#63b8ff" d="M457.77,-226.79C467.55,-218.15 481.58,-204.73 491.38,-191 514.24,-158.96 528.04,-114.55 534.64,-88.83"/>
<polygon fill="#63b8ff" stroke="#63b8ff" points="537.99,-89.85 536.95,-79.31 531.19,-88.2 537.99,-89.85"/>
</a>
</g>
</g>
<!-- Node19 -->
<g id="Node000019" class="node">
<title>Node19</title>
<g id="a_Node000019"><a xlink:href="tmc2209__core_8h.html" target="_top" xlink:title=" ">
<polygon fill="white" stroke="#666666" points="761.38,-191 667.38,-191 667.38,-170.25 761.38,-170.25 761.38,-191"/>
<text xml:space="preserve" text-anchor="middle" x="714.38" y="-177.5" font-family="Helvetica,sans-Serif" font-size="10.00">tmc2209_core.h</text>
</a>
</g>
</g>
<!-- Node2&#45;&gt;Node19 -->
<g id="edge28_Node000002_Node000019" class="edge">
<title>Node2&#45;&gt;Node19</title>
<g id="a_edge28_Node000002_Node000019"><a xlink:title=" ">
<path fill="none" stroke="#63b8ff" d="M487.08,-228.06C532,-218.88 604.7,-204.03 655.76,-193.6"/>
<polygon fill="#63b8ff" stroke="#63b8ff" points="656.37,-197.05 665.47,-191.62 654.97,-190.19 656.37,-197.05"/>
</a>
</g>
</g>
<!-- Node4 -->
<g id="Node000004" class="node">
<title>Node4</title>
<g id="a_Node000004"><a xlink:title=" ">
<polygon fill="#e0e0e0" stroke="#999999" points="678.88,-20.75 593.88,-20.75 593.88,0 678.88,0 678.88,-20.75"/>
<text xml:space="preserve" text-anchor="middle" x="636.38" y="-7.25" font-family="Helvetica,sans-Serif" font-size="10.00">fsl_common.h</text>
</a>
</g>
</g>
<!-- Node3&#45;&gt;Node4 -->
<g id="edge3_Node000003_Node000004" class="edge">
<title>Node3&#45;&gt;Node4</title>
<g id="a_edge3_Node000003_Node000004"><a xlink:title=" ">
<path fill="none" stroke="#63b8ff" d="M230.71,-57.36C329.06,-46.21 496.38,-27.24 582.16,-17.52"/>
<polygon fill="#63b8ff" stroke="#63b8ff" points="582.41,-21.01 591.95,-16.41 581.62,-14.06 582.41,-21.01"/>
</a>
</g>
</g>
<!-- Node5 -->
<g id="Node000005" class="node">
<title>Node5</title>
<g id="a_Node000005"><a xlink:title=" ">
<polygon fill="#e0e0e0" stroke="#999999" points="404.25,-20.75 324.5,-20.75 324.5,0 404.25,0 404.25,-20.75"/>
<text xml:space="preserve" text-anchor="middle" x="364.38" y="-7.25" font-family="Helvetica,sans-Serif" font-size="10.00">peripherals.h</text>
</a>
</g>
</g>
<!-- Node3&#45;&gt;Node5 -->
<g id="edge4_Node000003_Node000005" class="edge">
<title>Node3&#45;&gt;Node5</title>
<g id="a_edge4_Node000003_Node000005"><a xlink:title=" ">
<path fill="none" stroke="#63b8ff" d="M191.1,-56.34C225.95,-47.29 277.9,-33.81 315.83,-23.97"/>
<polygon fill="#63b8ff" stroke="#63b8ff" points="316.36,-27.45 325.16,-21.55 314.6,-20.67 316.36,-27.45"/>
</a>
</g>
</g>
<!-- Node7&#45;&gt;Node3 -->
<g id="edge7_Node000007_Node000003" class="edge">
<title>Node7&#45;&gt;Node3</title>
<g id="a_edge7_Node000007_Node000003"><a xlink:title=" ">
<path fill="none" stroke="#63b8ff" d="M421.65,-169.85C388.61,-156.83 328.2,-133.14 276.38,-113.5 247.77,-102.66 215.29,-90.69 190.9,-81.77"/>
<polygon fill="#63b8ff" stroke="#63b8ff" points="192.31,-78.57 181.72,-78.42 189.91,-85.14 192.31,-78.57"/>
</a>
</g>
</g>
<!-- Node7&#45;&gt;Node4 -->
<g id="edge10_Node000007_Node000004" class="edge">
<title>Node7&#45;&gt;Node4</title>
<g id="a_edge10_Node000007_Node000004"><a xlink:title=" ">
<path fill="none" stroke="#63b8ff" d="M464.44,-169.76C479.63,-161.15 501.65,-147.92 519.38,-134.25 560.95,-102.19 601.35,-55.21 622.05,-29.63"/>
<polygon fill="#63b8ff" stroke="#63b8ff" points="624.54,-32.13 628.04,-22.13 619.07,-27.76 624.54,-32.13"/>
</a>
</g>
</g>
<!-- Node8 -->
<g id="Node000008" class="node">
<title>Node8</title>
<g id="a_Node000008"><a xlink:title=" ">
<polygon fill="#e0e0e0" stroke="#999999" points="1186.12,-77.5 1114.62,-77.5 1114.62,-56.75 1186.12,-56.75 1186.12,-77.5"/>
<text xml:space="preserve" text-anchor="middle" x="1150.38" y="-64" font-family="Helvetica,sans-Serif" font-size="10.00">FreeRTOS.h</text>
</a>
</g>
</g>
<!-- Node7&#45;&gt;Node8 -->
<g id="edge8_Node000007_Node000008" class="edge">
<title>Node7&#45;&gt;Node8</title>
<g id="a_edge8_Node000007_Node000008"><a xlink:title=" ">
<path fill="none" stroke="#63b8ff" d="M482.68,-177.74C602.51,-171.38 980.82,-150.26 1033.38,-134.25 1052.26,-128.5 1097.3,-101.46 1125.67,-83.79"/>
<polygon fill="#63b8ff" stroke="#63b8ff" points="1127.39,-86.84 1134,-78.56 1123.67,-80.91 1127.39,-86.84"/>
</a>
</g>
</g>
<!-- Node7&#45;&gt;Node9 -->
<g id="edge9_Node000007_Node000009" class="edge">
<title>Node7&#45;&gt;Node9</title>
<g id="a_edge9_Node000007_Node000009"><a xlink:title=" ">
<path fill="none" stroke="#63b8ff" d="M409.82,-171.51C370.04,-162.62 304.6,-147.81 248.38,-134.25 247.55,-134.05 246.72,-133.85 245.88,-133.65"/>
<polygon fill="#63b8ff" stroke="#63b8ff" points="246.86,-130.28 236.31,-131.27 245.18,-137.08 246.86,-130.28"/>
</a>
</g>
</g>
<!-- Node7&#45;&gt;Node10 -->
<g id="edge11_Node000007_Node000010" class="edge">
<title>Node7&#45;&gt;Node10</title>
<g id="a_edge11_Node000007_Node000010"><a xlink:title=" ">
<path fill="none" stroke="#63b8ff" d="M409.83,-173.18C374.66,-166.22 320.48,-153.48 276.38,-134.25 260.49,-127.33 259.45,-119.95 243.38,-113.5 172.6,-85.11 147.52,-94.13 70.45,-78.05"/>
<polygon fill="#63b8ff" stroke="#63b8ff" points="71.21,-74.63 60.7,-75.93 69.73,-81.47 71.21,-74.63"/>
</a>
</g>
</g>
<!-- Node7&#45;&gt;Node11 -->
<g id="edge12_Node000007_Node000011" class="edge">
<title>Node7&#45;&gt;Node11</title>
<g id="a_edge12_Node000007_Node000011"><a xlink:title=" ">
<path fill="none" stroke="#63b8ff" d="M432.83,-169.77C414.69,-156.65 381.43,-132.86 352.38,-113.5 337.29,-103.45 320.12,-92.61 306.33,-84.04"/>
<polygon fill="#63b8ff" stroke="#63b8ff" points="308.17,-81.06 297.83,-78.78 304.49,-87.02 308.17,-81.06"/>
</a>
</g>
</g>
<!-- Node7&#45;&gt;Node12 -->
<g id="edge13_Node000007_Node000012" class="edge">
<title>Node7&#45;&gt;Node12</title>
<g id="a_edge13_Node000007_Node000012"><a xlink:title=" ">
<path fill="none" stroke="#63b8ff" d="M459.01,-170.04C469.91,-161.4 485.7,-147.97 497.38,-134.25 509.75,-119.7 521.19,-101.21 528.99,-87.48"/>
<polygon fill="#63b8ff" stroke="#63b8ff" points="531.91,-89.43 533.69,-78.99 525.79,-86.05 531.91,-89.43"/>
</a>
</g>
</g>
<!-- Node13 -->
<g id="Node000013" class="node">
<title>Node13</title>
<g id="a_Node000013"><a xlink:href="cmd__handle_8h.html" target="_top" xlink:title=" ">
<polygon fill="white" stroke="#666666" points="1024.5,-134.25 940.25,-134.25 940.25,-113.5 1024.5,-113.5 1024.5,-134.25"/>
<text xml:space="preserve" text-anchor="middle" x="982.38" y="-120.75" font-family="Helvetica,sans-Serif" font-size="10.00">cmd_handle.h</text>
</a>
</g>
</g>
<!-- Node7&#45;&gt;Node13 -->
<g id="edge14_Node000007_Node000013" class="edge">
<title>Node7&#45;&gt;Node13</title>
<g id="a_edge14_Node000007_Node000013"><a xlink:title=" ">
<path fill="none" stroke="#63b8ff" d="M482.8,-175.9C575.32,-166.45 819.8,-141.48 928.71,-130.36"/>
<polygon fill="#63b8ff" stroke="#63b8ff" points="928.96,-133.85 938.55,-129.35 928.25,-126.89 928.96,-133.85"/>
</a>
</g>
</g>
<!-- Node17 -->
<g id="Node000017" class="node">
<title>Node17</title>
<g id="a_Node000017"><a xlink:href="step__shared_8h.html" target="_top" xlink:title=" ">
<polygon fill="white" stroke="#666666" points="488.5,-134.25 404.25,-134.25 404.25,-113.5 488.5,-113.5 488.5,-134.25"/>
<text xml:space="preserve" text-anchor="middle" x="446.38" y="-120.75" font-family="Helvetica,sans-Serif" font-size="10.00">step_shared.h</text>
</a>
</g>
</g>
<!-- Node7&#45;&gt;Node17 -->
<g id="edge20_Node000007_Node000017" class="edge">
<title>Node7&#45;&gt;Node17</title>
<g id="a_edge20_Node000007_Node000017"><a xlink:title=" ">
<path fill="none" stroke="#63b8ff" d="M446.38,-169.84C446.38,-163.22 446.38,-154.22 446.38,-146.02"/>
<polygon fill="#63b8ff" stroke="#63b8ff" points="449.88,-146.09 446.38,-136.09 442.88,-146.09 449.88,-146.09"/>
</a>
</g>
</g>
<!-- Node13&#45;&gt;Node4 -->
<g id="edge18_Node000013_Node000004" class="edge">
<title>Node13&#45;&gt;Node4</title>
<g id="a_edge18_Node000013_Node000004"><a xlink:title=" ">
<path fill="none" stroke="#63b8ff" d="M971.62,-113.01C954.92,-98.28 921.15,-70.77 887.38,-56.75 822.93,-30 742.71,-18.99 690.57,-14.48"/>
<polygon fill="#63b8ff" stroke="#63b8ff" points="690.99,-11 680.74,-13.68 690.43,-17.98 690.99,-11"/>
</a>
</g>
</g>
<!-- Node13&#45;&gt;Node8 -->
<g id="edge16_Node000013_Node000008" class="edge">
<title>Node13&#45;&gt;Node8</title>
<g id="a_edge16_Node000013_Node000008"><a xlink:title=" ">
<path fill="none" stroke="#63b8ff" d="M1012.41,-113.09C1039.56,-104.24 1079.76,-91.14 1109.76,-81.36"/>
<polygon fill="#63b8ff" stroke="#63b8ff" points="1110.45,-84.82 1118.88,-78.39 1108.29,-78.16 1110.45,-84.82"/>
</a>
</g>
</g>
<!-- Node14 -->
<g id="Node000014" class="node">
<title>Node14</title>
<g id="a_Node000014"><a xlink:title=" ">
<polygon fill="#e0e0e0" stroke="#999999" points="878.75,-77.5 826,-77.5 826,-56.75 878.75,-56.75 878.75,-77.5"/>
<text xml:space="preserve" text-anchor="middle" x="852.38" y="-64" font-family="Helvetica,sans-Serif" font-size="10.00">stdint.h</text>
</a>
</g>
</g>
<!-- Node13&#45;&gt;Node14 -->
<g id="edge15_Node000013_Node000014" class="edge">
<title>Node13&#45;&gt;Node14</title>
<g id="a_edge15_Node000013_Node000014"><a xlink:title=" ">
<path fill="none" stroke="#63b8ff" d="M959.13,-113.09C938.71,-104.48 908.74,-91.86 885.75,-82.18"/>
<polygon fill="#63b8ff" stroke="#63b8ff" points="887.38,-79.07 876.81,-78.42 884.67,-85.52 887.38,-79.07"/>
</a>
</g>
</g>
<!-- Node15 -->
<g id="Node000015" class="node">
<title>Node15</title>
<g id="a_Node000015"><a xlink:title=" ">
<polygon fill="#e0e0e0" stroke="#999999" points="1025.88,-77.5 934.88,-77.5 934.88,-56.75 1025.88,-56.75 1025.88,-77.5"/>
<text xml:space="preserve" text-anchor="middle" x="980.38" y="-64" font-family="Helvetica,sans-Serif" font-size="10.00">event_groups.h</text>
</a>
</g>
</g>
<!-- Node13&#45;&gt;Node15 -->
<g id="edge17_Node000013_Node000015" class="edge">
<title>Node13&#45;&gt;Node15</title>
<g id="a_edge17_Node000013_Node000015"><a xlink:title=" ">
<path fill="none" stroke="#63b8ff" d="M982.02,-113.09C981.78,-106.47 981.45,-97.47 981.15,-89.27"/>
<polygon fill="#63b8ff" stroke="#63b8ff" points="984.65,-89.21 980.78,-79.34 977.65,-89.46 984.65,-89.21"/>
</a>
</g>
</g>
<!-- Node16 -->
<g id="Node000016" class="node">
<title>Node16</title>
<g id="a_Node000016"><a xlink:title=" ">
<polygon fill="#e0e0e0" stroke="#999999" points="1096.38,-77.5 1044.38,-77.5 1044.38,-56.75 1096.38,-56.75 1096.38,-77.5"/>
<text xml:space="preserve" text-anchor="middle" x="1070.38" y="-64" font-family="Helvetica,sans-Serif" font-size="10.00">stdlib.h</text>
</a>
</g>
</g>
<!-- Node13&#45;&gt;Node16 -->
<g id="edge19_Node000013_Node000016" class="edge">
<title>Node13&#45;&gt;Node16</title>
<g id="a_edge19_Node000013_Node000016"><a xlink:title=" ">
<path fill="none" stroke="#63b8ff" d="M998.11,-113.09C1011.25,-104.91 1030.22,-93.11 1045.43,-83.65"/>
<polygon fill="#63b8ff" stroke="#63b8ff" points="1046.85,-86.88 1053.49,-78.63 1043.15,-80.94 1046.85,-86.88"/>
</a>
</g>
</g>
<!-- Node17&#45;&gt;Node3 -->
<g id="edge22_Node000017_Node000003" class="edge">
<title>Node17&#45;&gt;Node3</title>
<g id="a_edge22_Node000017_Node000003"><a xlink:title=" ">
<path fill="none" stroke="#63b8ff" d="M403.77,-114.91C354.74,-105.75 273.73,-90.61 217.17,-80.05"/>
<polygon fill="#63b8ff" stroke="#63b8ff" points="218.16,-76.67 207.69,-78.27 216.88,-83.55 218.16,-76.67"/>
</a>
</g>
</g>
<!-- Node17&#45;&gt;Node4 -->
<g id="edge24_Node000017_Node000004" class="edge">
<title>Node17&#45;&gt;Node4</title>
<g id="a_edge24_Node000017_Node000004"><a xlink:title=" ">
<path fill="none" stroke="#63b8ff" d="M451.59,-113.32C459.88,-99.01 477.39,-72.03 499.38,-56.75 524.13,-39.54 555.87,-28.49 582.57,-21.6"/>
<polygon fill="#63b8ff" stroke="#63b8ff" points="583.31,-25.02 592.2,-19.26 581.66,-18.22 583.31,-25.02"/>
</a>
</g>
</g>
<!-- Node17&#45;&gt;Node10 -->
<g id="edge25_Node000017_Node000010" class="edge">
<title>Node17&#45;&gt;Node10</title>
<g id="a_edge25_Node000017_Node000010"><a xlink:title=" ">
<path fill="none" stroke="#63b8ff" d="M403.78,-119.49C335.36,-113.69 196.62,-100.38 70.19,-77.84"/>
<polygon fill="#63b8ff" stroke="#63b8ff" points="71.12,-74.45 60.66,-76.11 69.88,-81.34 71.12,-74.45"/>
</a>
</g>
</g>
<!-- Node17&#45;&gt;Node11 -->
<g id="edge26_Node000017_Node000011" class="edge">
<title>Node17&#45;&gt;Node11</title>
<g id="a_edge26_Node000017_Node000011"><a xlink:title=" ">
<path fill="none" stroke="#63b8ff" d="M416.7,-113.09C389.99,-104.28 350.5,-91.25 320.89,-81.49"/>
<polygon fill="#63b8ff" stroke="#63b8ff" points="322.11,-78.2 311.51,-78.39 319.91,-84.85 322.11,-78.2"/>
</a>
</g>
</g>
<!-- Node17&#45;&gt;Node12 -->
<g id="edge27_Node000017_Node000012" class="edge">
<title>Node17&#45;&gt;Node12</title>
<g id="a_edge27_Node000017_Node000012"><a xlink:title=" ">
<path fill="none" stroke="#63b8ff" d="M463,-113.09C476.89,-104.91 496.94,-93.11 513.01,-83.65"/>
<polygon fill="#63b8ff" stroke="#63b8ff" points="514.75,-86.69 521.59,-78.6 511.19,-80.65 514.75,-86.69"/>
</a>
</g>
</g>
<!-- Node17&#45;&gt;Node14 -->
<g id="edge21_Node000017_Node000014" class="edge">
<title>Node17&#45;&gt;Node14</title>
<g id="a_edge21_Node000017_Node000014"><a xlink:title=" ">
<path fill="none" stroke="#63b8ff" d="M488.96,-119.62C556.23,-114.05 691.31,-101.16 814.58,-77.82"/>
<polygon fill="#63b8ff" stroke="#63b8ff" points="815.07,-81.29 824.23,-75.97 813.74,-74.42 815.07,-81.29"/>
</a>
</g>
</g>
<!-- Node18 -->
<g id="Node000018" class="node">
<title>Node18</title>
<g id="a_Node000018"><a xlink:title=" ">
<polygon fill="#e0e0e0" stroke="#999999" points="452.62,-77.5 330.12,-77.5 330.12,-56.75 452.62,-56.75 452.62,-77.5"/>
<text xml:space="preserve" text-anchor="middle" x="391.38" y="-64" font-family="Helvetica,sans-Serif" font-size="10.00">fsl_device_registers.h</text>
</a>
</g>
</g>
<!-- Node17&#45;&gt;Node18 -->
<g id="edge23_Node000017_Node000018" class="edge">
<title>Node17&#45;&gt;Node18</title>
<g id="a_edge23_Node000017_Node000018"><a xlink:title=" ">
<path fill="none" stroke="#63b8ff" d="M436.54,-113.09C428.96,-105.53 418.26,-94.89 409.18,-85.85"/>
<polygon fill="#63b8ff" stroke="#63b8ff" points="411.75,-83.47 402.2,-78.9 406.81,-88.43 411.75,-83.47"/>
</a>
</g>
</g>
<!-- Node19&#45;&gt;Node4 -->
<g id="edge33_Node000019_Node000004" class="edge">
<title>Node19&#45;&gt;Node4</title>
<g id="a_edge33_Node000019_Node000004"><a xlink:title=" ">
<path fill="none" stroke="#63b8ff" d="M709.96,-170.1C697.63,-143.5 662.64,-68.02 645.74,-31.57"/>
<polygon fill="#63b8ff" stroke="#63b8ff" points="648.96,-30.19 641.57,-22.59 642.61,-33.14 648.96,-30.19"/>
</a>
</g>
</g>
<!-- Node19&#45;&gt;Node5 -->
<g id="edge35_Node000019_Node000005" class="edge">
<title>Node19&#45;&gt;Node5</title>
<g id="a_edge35_Node000019_Node000005"><a xlink:title=" ">
<path fill="none" stroke="#63b8ff" d="M706.78,-169.78C687.97,-146.15 636.64,-86.07 579.38,-56.75 527.52,-30.2 461.03,-19.18 415.81,-14.61"/>
<polygon fill="#63b8ff" stroke="#63b8ff" points="416.3,-11.14 406.02,-13.7 415.65,-18.11 416.3,-11.14"/>
</a>
</g>
</g>
<!-- Node19&#45;&gt;Node13 -->
<g id="edge34_Node000019_Node000013" class="edge">
<title>Node19&#45;&gt;Node13</title>
<g id="a_edge34_Node000019_Node000013"><a xlink:title=" ">
<path fill="none" stroke="#63b8ff" d="M761.67,-169.96C808.51,-160.39 880.13,-145.76 928.98,-135.78"/>
<polygon fill="#63b8ff" stroke="#63b8ff" points="929.39,-139.27 938.48,-133.84 927.98,-132.41 929.39,-139.27"/>
</a>
</g>
</g>
<!-- Node19&#45;&gt;Node14 -->
<g id="edge29_Node000019_Node000014" class="edge">
<title>Node19&#45;&gt;Node14</title>
<g id="a_edge29_Node000019_Node000014"><a xlink:title=" ">
<path fill="none" stroke="#63b8ff" d="M751.65,-169.88C772.91,-162.81 798.92,-151.42 817.38,-134.25 830.75,-121.81 839.99,-103.08 845.6,-88.73"/>
<polygon fill="#63b8ff" stroke="#63b8ff" points="848.88,-89.96 848.97,-79.36 842.29,-87.59 848.88,-89.96"/>
</a>
</g>
</g>
<!-- Node20 -->
<g id="Node000020" class="node">
<title>Node20</title>
<g id="a_Node000020"><a xlink:href="tmc2209__shared_8h.html" target="_top" xlink:title=" ">
<polygon fill="white" stroke="#666666" points="808.38,-134.25 702.38,-134.25 702.38,-113.5 808.38,-113.5 808.38,-134.25"/>
<text xml:space="preserve" text-anchor="middle" x="755.38" y="-120.75" font-family="Helvetica,sans-Serif" font-size="10.00">tmc2209_shared.h</text>
</a>
</g>
</g>
<!-- Node19&#45;&gt;Node20 -->
<g id="edge30_Node000019_Node000020" class="edge">
<title>Node19&#45;&gt;Node20</title>
<g id="a_edge30_Node000019_Node000020"><a xlink:title=" ">
<path fill="none" stroke="#63b8ff" d="M721.7,-169.84C727.13,-162.6 734.68,-152.51 741.26,-143.72"/>
<polygon fill="#63b8ff" stroke="#63b8ff" points="744.01,-145.89 747.2,-135.79 738.41,-141.7 744.01,-145.89"/>
</a>
</g>
</g>
<!-- Node20&#45;&gt;Node14 -->
<g id="edge31_Node000020_Node000014" class="edge">
<title>Node20&#45;&gt;Node14</title>
<g id="a_edge31_Node000020_Node000014"><a xlink:title=" ">
<path fill="none" stroke="#63b8ff" d="M772.72,-113.09C787.34,-104.83 808.51,-92.88 825.35,-83.38"/>
<polygon fill="#63b8ff" stroke="#63b8ff" points="826.88,-86.54 833.87,-78.57 823.44,-80.44 826.88,-86.54"/>
</a>
</g>
</g>
<!-- Node21 -->
<g id="Node000021" class="node">
<title>Node21</title>
<g id="a_Node000021"><a xlink:title=" ">
<polygon fill="#e0e0e0" stroke="#999999" points="808,-77.5 702.75,-77.5 702.75,-56.75 808,-56.75 808,-77.5"/>
<text xml:space="preserve" text-anchor="middle" x="755.38" y="-64" font-family="Helvetica,sans-Serif" font-size="10.00">fsl_uart_freertos.h</text>
</a>
</g>
</g>
<!-- Node20&#45;&gt;Node21 -->
<g id="edge32_Node000020_Node000021" class="edge">
<title>Node20&#45;&gt;Node21</title>
<g id="a_edge32_Node000020_Node000021"><a xlink:title=" ">
<path fill="none" stroke="#63b8ff" d="M755.38,-113.09C755.38,-106.47 755.38,-97.47 755.38,-89.27"/>
<polygon fill="#63b8ff" stroke="#63b8ff" points="758.88,-89.34 755.38,-79.34 751.88,-89.34 758.88,-89.34"/>
</a>
</g>
</g>
<!-- Node23 -->
<g id="Node000023" class="node">
<title>Node23</title>
<g id="a_Node000023"><a xlink:href="motor__internal_8h.html" target="_top" xlink:title=" ">
<polygon fill="white" stroke="#666666" points="950.88,-304.5 853.88,-304.5 853.88,-283.75 950.88,-283.75 950.88,-304.5"/>
<text xml:space="preserve" text-anchor="middle" x="902.38" y="-291" font-family="Helvetica,sans-Serif" font-size="10.00">motor_internal.h</text>
</a>
</g>
</g>
<!-- Node22&#45;&gt;Node23 -->
<g id="edge40_Node000022_Node000023" class="edge">
<title>Node22&#45;&gt;Node23</title>
<g id="a_edge40_Node000022_Node000023"><a xlink:title=" ">
<path fill="none" stroke="#63b8ff" d="M924.55,-340.09C921.13,-333.16 916.43,-323.62 912.23,-315.11"/>
<polygon fill="#63b8ff" stroke="#63b8ff" points="915.39,-313.61 907.83,-306.19 909.11,-316.7 915.39,-313.61"/>
</a>
</g>
</g>
<!-- Node23&#45;&gt;Node2 -->
<g id="edge43_Node000023_Node000002" class="edge">
<title>Node23&#45;&gt;Node2</title>
<g id="a_edge43_Node000023_Node000002"><a xlink:title=" ">
<path fill="none" stroke="#63b8ff" d="M853.58,-287.27C766.94,-276.86 587.05,-255.27 498.26,-244.6"/>
<polygon fill="#63b8ff" stroke="#63b8ff" points="498.72,-241.13 488.37,-243.42 497.88,-248.08 498.72,-241.13"/>
</a>
</g>
</g>
<!-- Node23&#45;&gt;Node8 -->
<g id="edge44_Node000023_Node000008" class="edge">
<title>Node23&#45;&gt;Node8</title>
<g id="a_edge44_Node000023_Node000008"><a xlink:title=" ">
<path fill="none" stroke="#63b8ff" d="M911.92,-283.56C924.95,-270.57 949.12,-246.7 970.38,-227 1027.39,-174.18 1096.85,-114.01 1130.37,-85.23"/>
<polygon fill="#63b8ff" stroke="#63b8ff" points="1132.37,-88.12 1137.68,-78.96 1127.81,-82.81 1132.37,-88.12"/>
</a>
</g>
</g>
<!-- Node23&#45;&gt;Node13 -->
<g id="edge46_Node000023_Node000013" class="edge">
<title>Node23&#45;&gt;Node13</title>
<g id="a_edge46_Node000023_Node000013"><a xlink:title=" ">
<path fill="none" stroke="#63b8ff" d="M906.91,-283.6C919.55,-257 955.44,-181.52 972.77,-145.07"/>
<polygon fill="#63b8ff" stroke="#63b8ff" points="975.91,-146.62 977.05,-136.08 969.59,-143.61 975.91,-146.62"/>
</a>
</g>
</g>
<!-- Node23&#45;&gt;Node14 -->
<g id="edge41_Node000023_Node000014" class="edge">
<title>Node23&#45;&gt;Node14</title>
<g id="a_edge41_Node000023_Node000014"><a xlink:title=" ">
<path fill="none" stroke="#63b8ff" d="M900.23,-283.46C892.71,-249.63 867.48,-136.11 857,-88.94"/>
<polygon fill="#63b8ff" stroke="#63b8ff" points="860.43,-88.24 854.84,-79.23 853.6,-89.76 860.43,-88.24"/>
</a>
</g>
</g>
<!-- Node24 -->
<g id="Node000024" class="node">
<title>Node24</title>
<g id="a_Node000024"><a xlink:title=" ">
<polygon fill="#e0e0e0" stroke="#999999" points="845.88,-247.75 784.88,-247.75 784.88,-227 845.88,-227 845.88,-247.75"/>
<text xml:space="preserve" text-anchor="middle" x="815.38" y="-234.25" font-family="Helvetica,sans-Serif" font-size="10.00">stdbool.h</text>
</a>
</g>
</g>
<!-- Node23&#45;&gt;Node24 -->
<g id="edge42_Node000023_Node000024" class="edge">
<title>Node23&#45;&gt;Node24</title>
<g id="a_edge42_Node000023_Node000024"><a xlink:title=" ">
<path fill="none" stroke="#63b8ff" d="M886.82,-283.34C873.95,-275.24 855.43,-263.58 840.47,-254.17"/>
<polygon fill="#63b8ff" stroke="#63b8ff" points="842.4,-251.25 832.08,-248.88 838.67,-257.17 842.4,-251.25"/>
</a>
</g>
</g>
<!-- Node23&#45;&gt;Node25 -->
<g id="edge45_Node000023_Node000025" class="edge">
<title>Node23&#45;&gt;Node25</title>
<g id="a_edge45_Node000023_Node000025"><a xlink:title=" ">
<path fill="none" stroke="#63b8ff" d="M920.97,-283.34C936.79,-275.01 959.77,-262.91 977.91,-253.36"/>
<polygon fill="#63b8ff" stroke="#63b8ff" points="979.39,-256.54 986.6,-248.78 976.12,-250.34 979.39,-256.54"/>
</a>
</g>
</g>
<!-- Node26&#45;&gt;Node8 -->
<g id="edge49_Node000026_Node000008" class="edge">
<title>Node26&#45;&gt;Node8</title>
<g id="a_edge49_Node000026_Node000008"><a xlink:title=" ">
<path fill="none" stroke="#63b8ff" d="M1083.38,-283.46C1093.93,-249.56 1129.38,-135.62 1143.99,-88.64"/>
<polygon fill="#63b8ff" stroke="#63b8ff" points="1147.3,-89.79 1146.93,-79.2 1140.62,-87.71 1147.3,-89.79"/>
</a>
</g>
</g>
<!-- Node26&#45;&gt;Node13 -->
<g id="edge51_Node000026_Node000013" class="edge">
<title>Node26&#45;&gt;Node13</title>
<g id="a_edge51_Node000026_Node000013"><a xlink:title=" ">
<path fill="none" stroke="#63b8ff" d="M1081.72,-283.7C1083.19,-270.45 1084.39,-245.84 1076.38,-227 1061.11,-191.11 1027.56,-159.77 1004.96,-141.58"/>
<polygon fill="#63b8ff" stroke="#63b8ff" points="1007.26,-138.94 997.22,-135.55 1002.96,-144.46 1007.26,-138.94"/>
</a>
</g>
</g>
<!-- Node26&#45;&gt;Node14 -->
<g id="edge48_Node000026_Node000014" class="edge">
<title>Node26&#45;&gt;Node14</title>
<g id="a_edge48_Node000026_Node000014"><a xlink:title=" ">
<path fill="none" stroke="#63b8ff" d="M1076.34,-283.46C1070.4,-269.93 1058.36,-244.99 1043.38,-227 1002,-177.35 981.04,-175.6 931.38,-134.25 911.27,-117.51 888.34,-98.31 872.39,-84.93"/>
<polygon fill="#63b8ff" stroke="#63b8ff" points="874.94,-82.5 865.03,-78.75 870.44,-87.86 874.94,-82.5"/>
</a>
</g>
</g>
<!-- Node26&#45;&gt;Node25 -->
<g id="edge50_Node000026_Node000025" class="edge">
<title>Node26&#45;&gt;Node25</title>
<g id="a_edge50_Node000026_Node000025"><a xlink:title=" ">
<path fill="none" stroke="#63b8ff" d="M1067.15,-283.34C1056.41,-275.4 1041.05,-264.03 1028.46,-254.71"/>
<polygon fill="#63b8ff" stroke="#63b8ff" points="1030.83,-252.11 1020.71,-248.98 1026.66,-257.74 1030.83,-252.11"/>
</a>
</g>
</g>
<!-- Node27&#45;&gt;Node4 -->
<g id="edge54_Node000027_Node000004" class="edge">
<title>Node27&#45;&gt;Node4</title>
<g id="a_edge54_Node000027_Node000004"><a xlink:title=" ">
<path fill="none" stroke="#63b8ff" d="M1191.78,-113.38C1199.09,-99.13 1209.67,-72.25 1195.38,-56.75 1161.58,-20.1 824.16,-13.05 690.49,-11.7"/>
<polygon fill="#63b8ff" stroke="#63b8ff" points="690.88,-8.2 680.85,-11.61 690.82,-15.2 690.88,-8.2"/>
</a>
</g>
</g>
<!-- Node27&#45;&gt;Node8 -->
<g id="edge53_Node000027_Node000008" class="edge">
<title>Node27&#45;&gt;Node8</title>
<g id="a_edge53_Node000027_Node000008"><a xlink:title=" ">
<path fill="none" stroke="#63b8ff" d="M1179.94,-113.09C1175.23,-105.92 1168.69,-95.98 1162.96,-87.26"/>
<polygon fill="#63b8ff" stroke="#63b8ff" points="1166.01,-85.53 1157.59,-79.09 1160.16,-89.37 1166.01,-85.53"/>
</a>
</g>
</g>
<!-- Node30&#45;&gt;Node23 -->
<g id="edge60_Node000030_Node000023" class="edge">
<title>Node30&#45;&gt;Node23</title>
<g id="a_edge60_Node000030_Node000023"><a xlink:title=" ">
<path fill="none" stroke="#63b8ff" d="M830.93,-340.09C843.8,-331.99 862.32,-320.33 877.28,-310.92"/>
<polygon fill="#63b8ff" stroke="#63b8ff" points="879.08,-313.92 885.67,-305.63 875.35,-308 879.08,-313.92"/>
</a>
</g>
</g>
<!-- Node30&#45;&gt;Node24 -->
<g id="edge61_Node000030_Node000024" class="edge">
<title>Node30&#45;&gt;Node24</title>
<g id="a_edge61_Node000030_Node000024"><a xlink:title=" ">
<path fill="none" stroke="#63b8ff" d="M815.38,-340.37C815.38,-322.6 815.38,-283.97 815.38,-259.68"/>
<polygon fill="#63b8ff" stroke="#63b8ff" points="818.88,-259.69 815.38,-249.69 811.88,-259.69 818.88,-259.69"/>
</a>
</g>
</g>
</g>
</svg>

<g id="navigator" transform="translate(0 0)" fill="#404254">
  <rect fill="#f2f5e9" fill-opacity="0.5" stroke="#606060" stroke-width=".5" x="0" y="0" width="60" height="60"/>
  <use id="zoomplus" xlink:href="#zoomPlus" x="17" y="9" onmousedown="handleZoom(evt,'in')"/>
  <use id="zoomminus" xlink:href="#zoomMin" x="42" y="9" onmousedown="handleZoom(evt,'out')"/>
  <use id="reset" xlink:href="#resetDef" x="30" y="36" onmousedown="handleReset()"/>
   <use id="arrowup" xlink:href="#arrowUp" x="0" y="0" onmousedown="handlePan(0,-1)"/>
  <use id="arrowright" xlink:href="#arrowRight" x="0" y="0" onmousedown="handlePan(1,0)"/>
  <use id="arrowdown" xlink:href="#arrowDown" x="0" y="0" onmousedown="handlePan(0,1)"/>
  <use id="arrowleft" xlink:href="#arrowLeft" x="0" y="0" onmousedown="handlePan(-1,0)"/>
</g>
<svg viewBox="0 0 15 15" width="100%" height="30px" preserveAspectRatio="xMaxYMin meet">
 <g id="arrow_out" transform="scale(0.3 0.3)">
  <a xlink:href="motor__core_8c__incl_org.svg" target="_base">
   <rect id="button" ry="5" rx="5" y="6" x="6" height="38" width="38"
        fill="#f2f5e9" fill-opacity="0.5" stroke="#606060" stroke-width="1.0"/>
   <path id="arrow"
     d="M 11.500037,31.436501 C 11.940474,20.09759 22.043105,11.32322 32.158766,21.979434 L 37.068811,17.246167 C 37.068811,17.246167 37.088388,32 37.088388,32 L 22.160133,31.978069 C 22.160133,31.978069 26.997745,27.140456 26.997745,27.140456 C 18.528582,18.264221 13.291696,25.230495 11.500037,31.436501 z"
     style="fill:#404040;"/>
  </a>
 </g>
</svg>

<style type='text/css'>
<![CDATA[
[data-mouse-over-selected='false'] { opacity: 0.7; }
[data-mouse-over-selected='true']  { opacity: 1.0; }
]]>
</style>
<script type="application/ecmascript"><![CDATA[
document.addEventListener('DOMContentLoaded', (event) => {
  highlightEdges();
  highlightAdjacentNodes();
});
]]></script>
</svg>
