<?xml version="1.0" encoding="UTF-8" standalone="no"?>
<!DOCTYPE svg PUBLIC "-//W3C//DTD SVG 1.1//EN"
 "http://www.w3.org/Graphics/SVG/1.1/DTD/svg11.dtd">
<!-- Generated by graphviz version 14.1.4 (0)
 -->
<!-- Title: source/motion/motor/motor_core.h Pages: 1 -->
<svg width="1265pt" height="269pt"
 viewBox="0.00 0.00 1265.00 269.00" xmlns="http://www.w3.org/2000/svg" xmlns:xlink="http://www.w3.org/1999/xlink">
<g id="graph0" class="graph" transform="scale(1 1) rotate(0) translate(4 264.5)">
<title>source/motion/motor/motor_core.h</title>
<!-- Node1 -->
<g id="Node000001" class="node">
<title>Node1</title>
<g id="a_Node000001"><a xlink:title=" ">
<polygon fill="#999999" stroke="#666666" points="908.03,-260.5 790.03,-260.5 790.03,-227 908.03,-227 908.03,-260.5"/>
<text xml:space="preserve" text-anchor="start" x="798.03" y="-247" font-family="Helvetica,sans-Serif" font-size="10.00">source/motion/motor</text>
<text xml:space="preserve" text-anchor="middle" x="849.03" y="-234.25" font-family="Helvetica,sans-Serif" font-size="10.00">/motor_core.h</text>
</a>
</g>
</g>
<!-- Node2 -->
<g id="Node000002" class="node">
<title>Node2</title>
<g id="a_Node000002"><a xlink:href="pca9555a_8h.html" target="_top" xlink:title=" ">
<polygon fill="white" stroke="#666666" points="719.03,-77.5 565.03,-77.5 565.03,-56.75 719.03,-56.75 719.03,-77.5"/>
<text xml:space="preserve" text-anchor="middle" x="642.03" y="-64" font-family="Helvetica,sans-Serif" font-size="10.00">driver/pca9555a/pca9555a.h</text>
</a>
</g>
</g>
<!-- Node1&#45;&gt;Node2 -->
<g id="edge1_Node000001_Node000002" class="edge">
<title>Node1&#45;&gt;Node2</title>
<g id="a_edge1_Node000001_Node000002"><a xlink:title=" ">
<path fill="none" stroke="#63b8ff" d="M822.73,-226.67C791.39,-206.9 738.23,-171.37 698.03,-134.25 682.2,-119.63 666.55,-100.67 655.84,-86.8"/>
<polygon fill="#63b8ff" stroke="#63b8ff" points="658.72,-84.81 649.89,-78.95 653.14,-89.03 658.72,-84.81"/>
</a>
</g>
</g>
<!-- Node5 -->
<g id="Node000005" class="node">
<title>Node5</title>
<g id="a_Node000005"><a xlink:title=" ">
<polygon fill="#e0e0e0" stroke="#999999" points="1257.41,-191 1168.66,-191 1168.66,-170.25 1257.41,-170.25 1257.41,-191"/>
<text xml:space="preserve" text-anchor="middle" x="1213.03" y="-177.5" font-family="Helvetica,sans-Serif" font-size="10.00">MK22F51212.h</text>
</a>
</g>
</g>
<!-- Node1&#45;&gt;Node5 -->
<g id="edge4_Node000001_Node000005" class="edge">
<title>Node1&#45;&gt;Node5</title>
<g id="a_edge4_Node000001_Node000005"><a xlink:title=" ">
<path fill="none" stroke="#63b8ff" d="M908.32,-232.79C977.17,-221.23 1089.85,-202.31 1157.19,-191"/>
<polygon fill="#63b8ff" stroke="#63b8ff" points="1157.63,-194.48 1166.91,-189.37 1156.47,-187.57 1157.63,-194.48"/>
</a>
</g>
</g>
<!-- Node6 -->
<g id="Node000006" class="node">
<title>Node6</title>
<g id="a_Node000006"><a xlink:href="step__core_8h.html" target="_top" xlink:title=" ">
<polygon fill="white" stroke="#666666" points="885.16,-191 812.91,-191 812.91,-170.25 885.16,-170.25 885.16,-191"/>
<text xml:space="preserve" text-anchor="middle" x="849.03" y="-177.5" font-family="Helvetica,sans-Serif" font-size="10.00">step_core.h</text>
</a>
</g>
</g>
<!-- Node1&#45;&gt;Node6 -->
<g id="edge5_Node000001_Node000006" class="edge">
<title>Node1&#45;&gt;Node6</title>
<g id="a_edge5_Node000001_Node000006"><a xlink:title=" ">
<path fill="none" stroke="#63b8ff" d="M849.03,-226.69C849.03,-219.35 849.03,-210.57 849.03,-202.71"/>
<polygon fill="#63b8ff" stroke="#63b8ff" points="852.53,-202.98 849.03,-192.98 845.53,-202.98 852.53,-202.98"/>
</a>
</g>
</g>
<!-- Node9 -->
<g id="Node000009" class="node">
<title>Node9</title>
<g id="a_Node000009"><a xlink:title=" ">
<polygon fill="#e0e0e0" stroke="#999999" points="1173.41,-77.5 1114.66,-77.5 1114.66,-56.75 1173.41,-56.75 1173.41,-77.5"/>
<text xml:space="preserve" text-anchor="middle" x="1144.03" y="-64" font-family="Helvetica,sans-Serif" font-size="10.00">fsl_ftm.h</text>
</a>
</g>
</g>
<!-- Node1&#45;&gt;Node9 -->
<g id="edge32_Node000001_Node000009" class="edge">
<title>Node1&#45;&gt;Node9</title>
<g id="a_edge32_Node000001_Node000009"><a xlink:title=" ">
<path fill="none" stroke="#63b8ff" d="M905.76,-226.56C932.25,-217.85 963.67,-205.84 990.03,-191 1044.13,-160.56 1098.92,-111.52 1126.23,-85.56"/>
<polygon fill="#63b8ff" stroke="#63b8ff" points="1128.53,-88.2 1133.31,-78.75 1123.68,-83.16 1128.53,-88.2"/>
</a>
</g>
</g>
<!-- Node10 -->
<g id="Node000010" class="node">
<title>Node10</title>
<g id="a_Node000010"><a xlink:title=" ">
<polygon fill="#e0e0e0" stroke="#999999" points="1096.66,-77.5 1033.41,-77.5 1033.41,-56.75 1096.66,-56.75 1096.66,-77.5"/>
<text xml:space="preserve" text-anchor="middle" x="1065.03" y="-64" font-family="Helvetica,sans-Serif" font-size="10.00">fsl_gpio.h</text>
</a>
</g>
</g>
<!-- Node1&#45;&gt;Node10 -->
<g id="edge33_Node000001_Node000010" class="edge">
<title>Node1&#45;&gt;Node10</title>
<g id="a_edge33_Node000001_Node000010"><a xlink:title=" ">
<path fill="none" stroke="#63b8ff" d="M891.4,-226.66C932.43,-209.25 994.14,-177.99 1034.03,-134.25 1046.04,-121.08 1054.21,-102.42 1059.14,-88.28"/>
<polygon fill="#63b8ff" stroke="#63b8ff" points="1062.35,-89.72 1062.06,-79.13 1055.68,-87.59 1062.35,-89.72"/>
</a>
</g>
</g>
<!-- Node11 -->
<g id="Node000011" class="node">
<title>Node11</title>
<g id="a_Node000011"><a xlink:title=" ">
<polygon fill="#e0e0e0" stroke="#999999" points="836.91,-77.5 775.16,-77.5 775.16,-56.75 836.91,-56.75 836.91,-77.5"/>
<text xml:space="preserve" text-anchor="middle" x="806.03" y="-64" font-family="Helvetica,sans-Serif" font-size="10.00">fsl_port.h</text>
</a>
</g>
</g>
<!-- Node1&#45;&gt;Node11 -->
<g id="edge34_Node000001_Node000011" class="edge">
<title>Node1&#45;&gt;Node11</title>
<g id="a_edge34_Node000001_Node000011"><a xlink:title=" ">
<path fill="none" stroke="#63b8ff" d="M829.6,-226.69C819.92,-217.4 809.2,-204.83 804.03,-191 791.31,-156.98 796.39,-113.87 801.22,-88.8"/>
<polygon fill="#63b8ff" stroke="#63b8ff" points="804.6,-89.76 803.25,-79.25 797.75,-88.31 804.6,-89.76"/>
</a>
</g>
</g>
<!-- Node18 -->
<g id="Node000018" class="node">
<title>Node18</title>
<g id="a_Node000018"><a xlink:href="tmc2209__core_8h.html" target="_top" xlink:title=" ">
<polygon fill="white" stroke="#666666" points="206.03,-191 112.03,-191 112.03,-170.25 206.03,-170.25 206.03,-191"/>
<text xml:space="preserve" text-anchor="middle" x="159.03" y="-177.5" font-family="Helvetica,sans-Serif" font-size="10.00">tmc2209_core.h</text>
</a>
</g>
</g>
<!-- Node1&#45;&gt;Node18 -->
<g id="edge26_Node000001_Node000018" class="edge">
<title>Node1&#45;&gt;Node18</title>
<g id="a_edge26_Node000001_Node000018"><a xlink:title=" ">
<path fill="none" stroke="#63b8ff" d="M789.6,-237.49C658.87,-225.9 347.64,-198.33 217.65,-186.82"/>
<polygon fill="#63b8ff" stroke="#63b8ff" points="218.16,-183.35 207.89,-185.95 217.54,-190.32 218.16,-183.35"/>
</a>
</g>
</g>
<!-- Node3 -->
<g id="Node000003" class="node">
<title>Node3</title>
<g id="a_Node000003"><a xlink:title=" ">
<polygon fill="#e0e0e0" stroke="#999999" points="684.53,-20.75 599.53,-20.75 599.53,0 684.53,0 684.53,-20.75"/>
<text xml:space="preserve" text-anchor="middle" x="642.03" y="-7.25" font-family="Helvetica,sans-Serif" font-size="10.00">fsl_common.h</text>
</a>
</g>
</g>
<!-- Node2&#45;&gt;Node3 -->
<g id="edge2_Node000002_Node000003" class="edge">
<title>Node2&#45;&gt;Node3</title>
<g id="a_edge2_Node000002_Node000003"><a xlink:title=" ">
<path fill="none" stroke="#63b8ff" d="M642.03,-56.34C642.03,-49.72 642.03,-40.72 642.03,-32.52"/>
<polygon fill="#63b8ff" stroke="#63b8ff" points="645.53,-32.59 642.03,-22.59 638.53,-32.59 645.53,-32.59"/>
</a>
</g>
</g>
<!-- Node4 -->
<g id="Node000004" class="node">
<title>Node4</title>
<g id="a_Node000004"><a xlink:title=" ">
<polygon fill="#e0e0e0" stroke="#999999" points="309.91,-20.75 230.16,-20.75 230.16,0 309.91,0 309.91,-20.75"/>
<text xml:space="preserve" text-anchor="middle" x="270.03" y="-7.25" font-family="Helvetica,sans-Serif" font-size="10.00">peripherals.h</text>
</a>
</g>
</g>
<!-- Node2&#45;&gt;Node4 -->
<g id="edge3_Node000002_Node000004" class="edge">
<title>Node2&#45;&gt;Node4</title>
<g id="a_edge3_Node000002_Node000004"><a xlink:title=" ">
<path fill="none" stroke="#63b8ff" d="M575.09,-56.27C502.38,-45.57 387.77,-28.7 321.68,-18.98"/>
<polygon fill="#63b8ff" stroke="#63b8ff" points="322.22,-15.52 311.82,-17.53 321.2,-22.44 322.22,-15.52"/>
</a>
</g>
</g>
<!-- Node6&#45;&gt;Node2 -->
<g id="edge6_Node000006_Node000002" class="edge">
<title>Node6&#45;&gt;Node2</title>
<g id="a_edge6_Node000006_Node000002"><a xlink:title=" ">
<path fill="none" stroke="#63b8ff" d="M817.54,-169.75C793.64,-161.68 760.35,-149.2 733.03,-134.25 707.15,-120.09 680.14,-99.62 662.33,-85.22"/>
<polygon fill="#63b8ff" stroke="#63b8ff" points="664.57,-82.53 654.62,-78.88 660.12,-87.94 664.57,-82.53"/>
</a>
</g>
</g>
<!-- Node6&#45;&gt;Node3 -->
<g id="edge9_Node000006_Node000003" class="edge">
<title>Node6&#45;&gt;Node3</title>
<g id="a_edge9_Node000006_Node000003"><a xlink:title=" ">
<path fill="none" stroke="#63b8ff" d="M839.36,-169.9C830.24,-160.73 816.18,-146.57 804.03,-134.25 770.16,-99.9 766.72,-85.57 728.03,-56.75 711.82,-44.67 691.95,-33.96 675.4,-25.99"/>
<polygon fill="#63b8ff" stroke="#63b8ff" points="676.98,-22.86 666.44,-21.79 674.02,-29.2 676.98,-22.86"/>
</a>
</g>
</g>
<!-- Node7 -->
<g id="Node000007" class="node">
<title>Node7</title>
<g id="a_Node000007"><a xlink:title=" ">
<polygon fill="#e0e0e0" stroke="#999999" points="546.78,-77.5 475.28,-77.5 475.28,-56.75 546.78,-56.75 546.78,-77.5"/>
<text xml:space="preserve" text-anchor="middle" x="511.03" y="-64" font-family="Helvetica,sans-Serif" font-size="10.00">FreeRTOS.h</text>
</a>
</g>
</g>
<!-- Node6&#45;&gt;Node7 -->
<g id="edge7_Node000006_Node000007" class="edge">
<title>Node6&#45;&gt;Node7</title>
<g id="a_edge7_Node000006_Node000007"><a xlink:title=" ">
<path fill="none" stroke="#63b8ff" d="M814.7,-169.82C784,-160.93 737.84,-147.26 698.03,-134.25 645.6,-117.11 585.57,-95.53 547.97,-81.78"/>
<polygon fill="#63b8ff" stroke="#63b8ff" points="549.54,-78.62 538.95,-78.47 547.13,-85.2 549.54,-78.62"/>
</a>
</g>
</g>
<!-- Node8 -->
<g id="Node000008" class="node">
<title>Node8</title>
<g id="a_Node000008"><a xlink:title=" ">
<polygon fill="#e0e0e0" stroke="#999999" points="859.03,-134.25 813.03,-134.25 813.03,-113.5 859.03,-113.5 859.03,-134.25"/>
<text xml:space="preserve" text-anchor="middle" x="836.03" y="-120.75" font-family="Helvetica,sans-Serif" font-size="10.00">task.h</text>
</a>
</g>
</g>
<!-- Node6&#45;&gt;Node8 -->
<g id="edge8_Node000006_Node000008" class="edge">
<title>Node6&#45;&gt;Node8</title>
<g id="a_edge8_Node000006_Node000008"><a xlink:title=" ">
<path fill="none" stroke="#63b8ff" d="M846.71,-169.84C845.12,-163.14 842.95,-154.01 840.98,-145.73"/>
<polygon fill="#63b8ff" stroke="#63b8ff" points="844.4,-144.97 838.68,-136.05 837.59,-146.59 844.4,-144.97"/>
</a>
</g>
</g>
<!-- Node6&#45;&gt;Node9 -->
<g id="edge10_Node000006_Node000009" class="edge">
<title>Node6&#45;&gt;Node9</title>
<g id="a_edge10_Node000006_Node000009"><a xlink:title=" ">
<path fill="none" stroke="#63b8ff" d="M885.51,-174.02C923.57,-167.41 984.5,-154.66 1034.03,-134.25 1066.22,-120.98 1100.1,-99.28 1121.61,-84.38"/>
<polygon fill="#63b8ff" stroke="#63b8ff" points="1123.44,-87.36 1129.6,-78.74 1119.41,-81.64 1123.44,-87.36"/>
</a>
</g>
</g>
<!-- Node6&#45;&gt;Node10 -->
<g id="edge11_Node000006_Node000010" class="edge">
<title>Node6&#45;&gt;Node10</title>
<g id="a_edge11_Node000006_Node000010"><a xlink:title=" ">
<path fill="none" stroke="#63b8ff" d="M885.59,-175.3C919.51,-169.94 970.3,-158.37 1008.03,-134.25 1026.92,-122.18 1043,-101.99 1053.22,-87.09"/>
<polygon fill="#63b8ff" stroke="#63b8ff" points="1055.94,-89.33 1058.49,-79.05 1050.08,-85.49 1055.94,-89.33"/>
</a>
</g>
</g>
<!-- Node6&#45;&gt;Node11 -->
<g id="edge12_Node000006_Node000011" class="edge">
<title>Node6&#45;&gt;Node11</title>
<g id="a_edge12_Node000006_Node000011"><a xlink:title=" ">
<path fill="none" stroke="#63b8ff" d="M856.22,-169.78C864.99,-156.47 877.54,-132.25 868.03,-113.5 861.64,-100.9 849.91,-90.95 838.37,-83.63"/>
<polygon fill="#63b8ff" stroke="#63b8ff" points="840.12,-80.6 829.72,-78.62 836.62,-86.66 840.12,-80.6"/>
</a>
</g>
</g>
<!-- Node12 -->
<g id="Node000012" class="node">
<title>Node12</title>
<g id="a_Node000012"><a xlink:href="cmd__handle_8h.html" target="_top" xlink:title=" ">
<polygon fill="white" stroke="#666666" points="415.16,-134.25 330.91,-134.25 330.91,-113.5 415.16,-113.5 415.16,-134.25"/>
<text xml:space="preserve" text-anchor="middle" x="373.03" y="-120.75" font-family="Helvetica,sans-Serif" font-size="10.00">cmd_handle.h</text>
</a>
</g>
</g>
<!-- Node6&#45;&gt;Node12 -->
<g id="edge13_Node000006_Node000012" class="edge">
<title>Node6&#45;&gt;Node12</title>
<g id="a_edge13_Node000006_Node000012"><a xlink:title=" ">
<path fill="none" stroke="#63b8ff" d="M812.47,-175.42C729.11,-165.83 524.63,-142.31 426.83,-131.06"/>
<polygon fill="#63b8ff" stroke="#63b8ff" points="427.29,-127.59 416.95,-129.93 426.49,-134.55 427.29,-127.59"/>
</a>
</g>
</g>
<!-- Node16 -->
<g id="Node000016" class="node">
<title>Node16</title>
<g id="a_Node000016"><a xlink:href="step__shared_8h.html" target="_top" xlink:title=" ">
<polygon fill="white" stroke="#666666" points="999.16,-134.25 914.91,-134.25 914.91,-113.5 999.16,-113.5 999.16,-134.25"/>
<text xml:space="preserve" text-anchor="middle" x="957.03" y="-120.75" font-family="Helvetica,sans-Serif" font-size="10.00">step_shared.h</text>
</a>
</g>
</g>
<!-- Node6&#45;&gt;Node16 -->
<g id="edge19_Node000006_Node000016" class="edge">
<title>Node6&#45;&gt;Node16</title>
<g id="a_edge19_Node000006_Node000016"><a xlink:title=" ">
<path fill="none" stroke="#63b8ff" d="M868.34,-169.84C884.85,-161.47 908.86,-149.29 927.74,-139.72"/>
<polygon fill="#63b8ff" stroke="#63b8ff" points="929.2,-142.91 936.54,-135.26 926.04,-136.66 929.2,-142.91"/>
</a>
</g>
</g>
<!-- Node12&#45;&gt;Node3 -->
<g id="edge17_Node000012_Node000003" class="edge">
<title>Node12&#45;&gt;Node3</title>
<g id="a_edge17_Node000012_Node000003"><a xlink:title=" ">
<path fill="none" stroke="#63b8ff" d="M383.93,-113.07C400.49,-98.66 433.51,-71.87 466.03,-56.75 505.02,-38.62 552.36,-26.94 588.12,-19.97"/>
<polygon fill="#63b8ff" stroke="#63b8ff" points="588.63,-23.44 597.81,-18.15 587.34,-16.56 588.63,-23.44"/>
</a>
</g>
</g>
<!-- Node12&#45;&gt;Node7 -->
<g id="edge15_Node000012_Node000007" class="edge">
<title>Node12&#45;&gt;Node7</title>
<g id="a_edge15_Node000012_Node000007"><a xlink:title=" ">
<path fill="none" stroke="#63b8ff" d="M397.7,-113.09C419.48,-104.44 451.49,-91.75 475.94,-82.05"/>
<polygon fill="#63b8ff" stroke="#63b8ff" points="477.16,-85.33 485.17,-78.39 474.58,-78.82 477.16,-85.33"/>
</a>
</g>
</g>
<!-- Node13 -->
<g id="Node000013" class="node">
<title>Node13</title>
<g id="a_Node000013"><a xlink:title=" ">
<polygon fill="#e0e0e0" stroke="#999999" points="309.41,-77.5 256.66,-77.5 256.66,-56.75 309.41,-56.75 309.41,-77.5"/>
<text xml:space="preserve" text-anchor="middle" x="283.03" y="-64" font-family="Helvetica,sans-Serif" font-size="10.00">stdint.h</text>
</a>
</g>
</g>
<!-- Node12&#45;&gt;Node13 -->
<g id="edge14_Node000012_Node000013" class="edge">
<title>Node12&#45;&gt;Node13</title>
<g id="a_edge14_Node000012_Node000013"><a xlink:title=" ">
<path fill="none" stroke="#63b8ff" d="M356.94,-113.09C343.5,-104.91 324.1,-93.11 308.55,-83.65"/>
<polygon fill="#63b8ff" stroke="#63b8ff" points="310.64,-80.82 300.27,-78.62 307,-86.8 310.64,-80.82"/>
</a>
</g>
</g>
<!-- Node14 -->
<g id="Node000014" class="node">
<title>Node14</title>
<g id="a_Node000014"><a xlink:title=" ">
<polygon fill="#e0e0e0" stroke="#999999" points="418.53,-77.5 327.53,-77.5 327.53,-56.75 418.53,-56.75 418.53,-77.5"/>
<text xml:space="preserve" text-anchor="middle" x="373.03" y="-64" font-family="Helvetica,sans-Serif" font-size="10.00">event_groups.h</text>
</a>
</g>
</g>
<!-- Node12&#45;&gt;Node14 -->
<g id="edge16_Node000012_Node000014" class="edge">
<title>Node12&#45;&gt;Node14</title>
<g id="a_edge16_Node000012_Node000014"><a xlink:title=" ">
<path fill="none" stroke="#63b8ff" d="M373.03,-113.09C373.03,-106.47 373.03,-97.47 373.03,-89.27"/>
<polygon fill="#63b8ff" stroke="#63b8ff" points="376.53,-89.34 373.03,-79.34 369.53,-89.34 376.53,-89.34"/>
</a>
</g>
</g>
<!-- Node15 -->
<g id="Node000015" class="node">
<title>Node15</title>
<g id="a_Node000015"><a xlink:title=" ">
<polygon fill="#e0e0e0" stroke="#999999" points="239.03,-77.5 187.03,-77.5 187.03,-56.75 239.03,-56.75 239.03,-77.5"/>
<text xml:space="preserve" text-anchor="middle" x="213.03" y="-64" font-family="Helvetica,sans-Serif" font-size="10.00">stdlib.h</text>
</a>
</g>
</g>
<!-- Node12&#45;&gt;Node15 -->
<g id="edge18_Node000012_Node000015" class="edge">
<title>Node12&#45;&gt;Node15</title>
<g id="a_edge18_Node000012_Node000015"><a xlink:title=" ">
<path fill="none" stroke="#63b8ff" d="M344.43,-113.09C318.16,-104.1 279.08,-90.73 250.36,-80.9"/>
<polygon fill="#63b8ff" stroke="#63b8ff" points="251.55,-77.61 240.96,-77.68 249.29,-84.23 251.55,-77.61"/>
</a>
</g>
</g>
<!-- Node16&#45;&gt;Node2 -->
<g id="edge20_Node000016_Node000002" class="edge">
<title>Node16&#45;&gt;Node2</title>
<g id="a_edge20_Node000016_Node000002"><a xlink:title=" ">
<path fill="none" stroke="#63b8ff" d="M914.55,-115.49C862.06,-106.37 772.1,-90.73 709.98,-79.94"/>
<polygon fill="#63b8ff" stroke="#63b8ff" points="710.66,-76.5 700.21,-78.24 709.47,-83.4 710.66,-76.5"/>
</a>
</g>
</g>
<!-- Node16&#45;&gt;Node3 -->
<g id="edge22_Node000016_Node000003" class="edge">
<title>Node16&#45;&gt;Node3</title>
<g id="a_edge22_Node000016_Node000003"><a xlink:title=" ">
<path fill="none" stroke="#63b8ff" d="M967.11,-113.34C980.53,-99.51 1000.91,-73.72 986.03,-56.75 967.25,-35.33 788.41,-20.79 696.3,-14.66"/>
<polygon fill="#63b8ff" stroke="#63b8ff" points="696.69,-11.18 686.48,-14.02 696.23,-18.16 696.69,-11.18"/>
</a>
</g>
</g>
<!-- Node16&#45;&gt;Node9 -->
<g id="edge23_Node000016_Node000009" class="edge">
<title>Node16&#45;&gt;Node9</title>
<g id="a_edge23_Node000016_Node000009"><a xlink:title=" ">
<path fill="none" stroke="#63b8ff" d="M990.46,-113.09C1022.08,-103.83 1069.59,-89.92 1103.39,-80.02"/>
<polygon fill="#63b8ff" stroke="#63b8ff" points="1104.21,-83.43 1112.83,-77.26 1102.25,-76.71 1104.21,-83.43"/>
</a>
</g>
</g>
<!-- Node16&#45;&gt;Node10 -->
<g id="edge24_Node000016_Node000010" class="edge">
<title>Node16&#45;&gt;Node10</title>
<g id="a_edge24_Node000016_Node000010"><a xlink:title=" ">
<path fill="none" stroke="#63b8ff" d="M976.34,-113.09C992.85,-104.72 1016.86,-92.54 1035.74,-82.97"/>
<polygon fill="#63b8ff" stroke="#63b8ff" points="1037.2,-86.16 1044.54,-78.51 1034.04,-79.91 1037.2,-86.16"/>
</a>
</g>
</g>
<!-- Node16&#45;&gt;Node11 -->
<g id="edge25_Node000016_Node000011" class="edge">
<title>Node16&#45;&gt;Node11</title>
<g id="a_edge25_Node000016_Node000011"><a xlink:title=" ">
<path fill="none" stroke="#63b8ff" d="M930.03,-113.09C905.95,-104.36 870.45,-91.48 843.6,-81.75"/>
<polygon fill="#63b8ff" stroke="#63b8ff" points="845.06,-78.55 834.47,-78.44 842.68,-85.14 845.06,-78.55"/>
</a>
</g>
</g>
<!-- Node17 -->
<g id="Node000017" class="node">
<title>Node17</title>
<g id="a_Node000017"><a xlink:title=" ">
<polygon fill="#e0e0e0" stroke="#999999" points="977.28,-77.5 854.78,-77.5 854.78,-56.75 977.28,-56.75 977.28,-77.5"/>
<text xml:space="preserve" text-anchor="middle" x="916.03" y="-64" font-family="Helvetica,sans-Serif" font-size="10.00">fsl_device_registers.h</text>
</a>
</g>
</g>
<!-- Node16&#45;&gt;Node17 -->
<g id="edge21_Node000016_Node000017" class="edge">
<title>Node16&#45;&gt;Node17</title>
<g id="a_edge21_Node000016_Node000017"><a xlink:title=" ">
<path fill="none" stroke="#63b8ff" d="M949.7,-113.09C944.28,-105.85 936.72,-95.76 930.15,-86.97"/>
<polygon fill="#63b8ff" stroke="#63b8ff" points="933,-84.95 924.2,-79.04 927.4,-89.14 933,-84.95"/>
</a>
</g>
</g>
<!-- Node18&#45;&gt;Node3 -->
<g id="edge29_Node000018_Node000003" class="edge">
<title>Node18&#45;&gt;Node3</title>
<g id="a_edge29_Node000018_Node000003"><a xlink:title=" ">
<path fill="none" stroke="#63b8ff" d="M157.04,-169.88C152.9,-146.48 146.19,-86.86 178.03,-56.75 207.31,-29.06 471.86,-16.99 587.9,-13"/>
<polygon fill="#63b8ff" stroke="#63b8ff" points="587.92,-16.5 597.8,-12.66 587.69,-9.5 587.92,-16.5"/>
</a>
</g>
</g>
<!-- Node18&#45;&gt;Node4 -->
<g id="edge31_Node000018_Node000004" class="edge">
<title>Node18&#45;&gt;Node4</title>
<g id="a_edge31_Node000018_Node000004"><a xlink:title=" ">
<path fill="none" stroke="#63b8ff" d="M111.86,-178.36C79.19,-174.72 37.8,-163.99 16.03,-134.25 -4.31,-106.45 -6.08,-83.16 16.03,-56.75 41.34,-26.51 151.98,-16.4 218.61,-13.04"/>
<polygon fill="#63b8ff" stroke="#63b8ff" points="218.36,-16.56 228.19,-12.59 218.04,-9.56 218.36,-16.56"/>
</a>
</g>
</g>
<!-- Node18&#45;&gt;Node12 -->
<g id="edge30_Node000018_Node000012" class="edge">
<title>Node18&#45;&gt;Node12</title>
<g id="a_edge30_Node000018_Node000012"><a xlink:title=" ">
<path fill="none" stroke="#63b8ff" d="M197.29,-169.84C232.63,-160.79 285.33,-147.31 323.8,-137.47"/>
<polygon fill="#63b8ff" stroke="#63b8ff" points="324.46,-140.92 333.28,-135.05 322.72,-134.13 324.46,-140.92"/>
</a>
</g>
</g>
<!-- Node19 -->
<g id="Node000019" class="node">
<title>Node19</title>
<g id="a_Node000019"><a xlink:href="tmc2209__shared_8h.html" target="_top" xlink:title=" ">
<polygon fill="white" stroke="#666666" points="131.03,-134.25 25.03,-134.25 25.03,-113.5 131.03,-113.5 131.03,-134.25"/>
<text xml:space="preserve" text-anchor="middle" x="78.03" y="-120.75" font-family="Helvetica,sans-Serif" font-size="10.00">tmc2209_shared.h</text>
</a>
</g>
</g>
<!-- Node18&#45;&gt;Node19 -->
<g id="edge27_Node000018_Node000019" class="edge">
<title>Node18&#45;&gt;Node19</title>
<g id="a_edge27_Node000018_Node000019"><a xlink:title=" ">
<path fill="none" stroke="#63b8ff" d="M144.55,-169.84C132.69,-161.82 115.66,-150.31 101.8,-140.94"/>
<polygon fill="#63b8ff" stroke="#63b8ff" points="103.89,-138.13 93.64,-135.43 99.97,-143.93 103.89,-138.13"/>
</a>
</g>
</g>
<!-- Node20 -->
<g id="Node000020" class="node">
<title>Node20</title>
<g id="a_Node000020"><a xlink:title=" ">
<polygon fill="#e0e0e0" stroke="#999999" points="130.66,-77.5 25.41,-77.5 25.41,-56.75 130.66,-56.75 130.66,-77.5"/>
<text xml:space="preserve" text-anchor="middle" x="78.03" y="-64" font-family="Helvetica,sans-Serif" font-size="10.00">fsl_uart_freertos.h</text>
</a>
</g>
</g>
<!-- Node19&#45;&gt;Node20 -->
<g id="edge28_Node000019_Node000020" class="edge">
<title>Node19&#45;&gt;Node20</title>
<g id="a_edge28_Node000019_Node000020"><a xlink:title=" ">
<path fill="none" stroke="#63b8ff" d="M78.03,-113.09C78.03,-106.47 78.03,-97.47 78.03,-89.27"/>
<polygon fill="#63b8ff" stroke="#63b8ff" points="81.53,-89.34 78.03,-79.34 74.53,-89.34 81.53,-89.34"/>
</a>
</g>
</g>
</g>
</svg>
