<?xml version="1.0" encoding="UTF-8" standalone="no"?>
<!DOCTYPE svg PUBLIC "-//W3C//DTD SVG 1.1//EN"
 "http://www.w3.org/Graphics/SVG/1.1/DTD/svg11.dtd">
<!-- Generated by graphviz version 14.1.4 (0)
 -->
<!-- Title: source/motion/motor/motor_process.h Pages: 1 -->
<svg width="1369pt" height="382pt"
 viewBox="0.00 0.00 1369.00 382.00" xmlns="http://www.w3.org/2000/svg" xmlns:xlink="http://www.w3.org/1999/xlink">
<g id="graph0" class="graph" transform="scale(1 1) rotate(0) translate(4 378)">
<title>source/motion/motor/motor_process.h</title>
<!-- Node1 -->
<g id="Node000001" class="node">
<title>Node1</title>
<g id="a_Node000001"><a xlink:title=" ">
<polygon fill="#999999" stroke="#666666" points="1157.38,-374 1039.38,-374 1039.38,-340.5 1157.38,-340.5 1157.38,-374"/>
<text xml:space="preserve" text-anchor="start" x="1047.38" y="-360.5" font-family="Helvetica,sans-Serif" font-size="10.00">source/motion/motor</text>
<text xml:space="preserve" text-anchor="middle" x="1098.38" y="-347.75" font-family="Helvetica,sans-Serif" font-size="10.00">/motor_process.h</text>
</a>
</g>
</g>
<!-- Node2 -->
<g id="Node000002" class="node">
<title>Node2</title>
<g id="a_Node000002"><a xlink:href="motor__internal_8h.html" target="_top" xlink:title=" ">
<polygon fill="white" stroke="#666666" points="1146.88,-304.5 1049.88,-304.5 1049.88,-283.75 1146.88,-283.75 1146.88,-304.5"/>
<text xml:space="preserve" text-anchor="middle" x="1098.38" y="-291" font-family="Helvetica,sans-Serif" font-size="10.00">motor_internal.h</text>
</a>
</g>
</g>
<!-- Node1&#45;&gt;Node2 -->
<g id="edge1_Node000001_Node000002" class="edge">
<title>Node1&#45;&gt;Node2</title>
<g id="a_edge1_Node000001_Node000002"><a xlink:title=" ">
<path fill="none" stroke="#63b8ff" d="M1098.38,-340.19C1098.38,-332.85 1098.38,-324.07 1098.38,-316.21"/>
<polygon fill="#63b8ff" stroke="#63b8ff" points="1101.88,-316.48 1098.38,-306.48 1094.88,-316.48 1101.88,-316.48"/>
</a>
</g>
</g>
<!-- Node3 -->
<g id="Node000003" class="node">
<title>Node3</title>
<g id="a_Node000003"><a xlink:href="motor__core_8h.html" target="_top" xlink:title=" ">
<polygon fill="white" stroke="#666666" points="480.62,-247.75 400.12,-247.75 400.12,-227 480.62,-227 480.62,-247.75"/>
<text xml:space="preserve" text-anchor="middle" x="440.38" y="-234.25" font-family="Helvetica,sans-Serif" font-size="10.00">motor_core.h</text>
</a>
</g>
</g>
<!-- Node2&#45;&gt;Node3 -->
<g id="edge2_Node000002_Node000003" class="edge">
<title>Node2&#45;&gt;Node3</title>
<g id="a_edge2_Node000002_Node000003"><a xlink:title=" ">
<path fill="none" stroke="#63b8ff" d="M1049.46,-289.05C928.56,-279 616.54,-253.03 492.42,-242.71"/>
<polygon fill="#63b8ff" stroke="#63b8ff" points="492.77,-239.22 482.52,-241.88 492.19,-246.2 492.77,-239.22"/>
</a>
</g>
</g>
<!-- Node9 -->
<g id="Node000009" class="node">
<title>Node9</title>
<g id="a_Node000009"><a xlink:title=" ">
<polygon fill="#e0e0e0" stroke="#999999" points="1105.12,-77.5 1033.62,-77.5 1033.62,-56.75 1105.12,-56.75 1105.12,-77.5"/>
<text xml:space="preserve" text-anchor="middle" x="1069.38" y="-64" font-family="Helvetica,sans-Serif" font-size="10.00">FreeRTOS.h</text>
</a>
</g>
</g>
<!-- Node2&#45;&gt;Node9 -->
<g id="edge37_Node000002_Node000009" class="edge">
<title>Node2&#45;&gt;Node9</title>
<g id="a_edge37_Node000002_Node000009"><a xlink:title=" ">
<path fill="none" stroke="#63b8ff" d="M1112.25,-283.4C1149.94,-255.79 1248.55,-174.95 1204.38,-113.5 1198.95,-105.95 1153.28,-91.6 1116.54,-81.06"/>
<polygon fill="#63b8ff" stroke="#63b8ff" points="1117.51,-77.69 1106.93,-78.33 1115.6,-84.43 1117.51,-77.69"/>
</a>
</g>
</g>
<!-- Node14 -->
<g id="Node000014" class="node">
<title>Node14</title>
<g id="a_Node000014"><a xlink:href="cmd__handle_8h.html" target="_top" xlink:title=" ">
<polygon fill="white" stroke="#666666" points="961.5,-134.25 877.25,-134.25 877.25,-113.5 961.5,-113.5 961.5,-134.25"/>
<text xml:space="preserve" text-anchor="middle" x="919.38" y="-120.75" font-family="Helvetica,sans-Serif" font-size="10.00">cmd_handle.h</text>
</a>
</g>
</g>
<!-- Node2&#45;&gt;Node14 -->
<g id="edge39_Node000002_Node000014" class="edge">
<title>Node2&#45;&gt;Node14</title>
<g id="a_edge39_Node000002_Node000014"><a xlink:title=" ">
<path fill="none" stroke="#63b8ff" d="M1072.04,-283.3C1036.4,-268.67 973.27,-237.74 938.38,-191 928.53,-177.81 923.78,-159.66 921.49,-145.71"/>
<polygon fill="#63b8ff" stroke="#63b8ff" points="924.97,-145.31 920.2,-135.84 918.02,-146.21 924.97,-145.31"/>
</a>
</g>
</g>
<!-- Node23 -->
<g id="Node000023" class="node">
<title>Node23</title>
<g id="a_Node000023"><a xlink:title=" ">
<polygon fill="#e0e0e0" stroke="#999999" points="1360.88,-247.75 1305.88,-247.75 1305.88,-227 1360.88,-227 1360.88,-247.75"/>
<text xml:space="preserve" text-anchor="middle" x="1333.38" y="-234.25" font-family="Helvetica,sans-Serif" font-size="10.00">queue.h</text>
</a>
</g>
</g>
<!-- Node2&#45;&gt;Node23 -->
<g id="edge38_Node000002_Node000023" class="edge">
<title>Node2&#45;&gt;Node23</title>
<g id="a_edge38_Node000002_Node000023"><a xlink:title=" ">
<path fill="none" stroke="#63b8ff" d="M1140.66,-283.27C1184.36,-273.09 1252,-257.33 1294.43,-247.45"/>
<polygon fill="#63b8ff" stroke="#63b8ff" points="1295,-250.91 1303.95,-245.23 1293.42,-244.09 1295,-250.91"/>
</a>
</g>
</g>
<!-- Node4 -->
<g id="Node000004" class="node">
<title>Node4</title>
<g id="a_Node000004"><a xlink:href="pca9555a_8h.html" target="_top" xlink:title=" ">
<polygon fill="white" stroke="#666666" points="689.38,-77.5 535.38,-77.5 535.38,-56.75 689.38,-56.75 689.38,-77.5"/>
<text xml:space="preserve" text-anchor="middle" x="612.38" y="-64" font-family="Helvetica,sans-Serif" font-size="10.00">driver/pca9555a/pca9555a.h</text>
</a>
</g>
</g>
<!-- Node3&#45;&gt;Node4 -->
<g id="edge3_Node000003_Node000004" class="edge">
<title>Node3&#45;&gt;Node4</title>
<g id="a_edge3_Node000003_Node000004"><a xlink:title=" ">
<path fill="none" stroke="#63b8ff" d="M451.97,-226.62C472.87,-208.88 517.96,-169.89 553.38,-134.25 568.88,-118.64 585.47,-99.84 597.1,-86.28"/>
<polygon fill="#63b8ff" stroke="#63b8ff" points="599.49,-88.87 603.3,-78.99 594.16,-84.34 599.49,-88.87"/>
</a>
</g>
</g>
<!-- Node7 -->
<g id="Node000007" class="node">
<title>Node7</title>
<g id="a_Node000007"><a xlink:title=" ">
<polygon fill="#e0e0e0" stroke="#999999" points="88.75,-191 0,-191 0,-170.25 88.75,-170.25 88.75,-191"/>
<text xml:space="preserve" text-anchor="middle" x="44.38" y="-177.5" font-family="Helvetica,sans-Serif" font-size="10.00">MK22F51212.h</text>
</a>
</g>
</g>
<!-- Node3&#45;&gt;Node7 -->
<g id="edge6_Node000003_Node000007" class="edge">
<title>Node3&#45;&gt;Node7</title>
<g id="a_edge6_Node000003_Node000007"><a xlink:title=" ">
<path fill="none" stroke="#63b8ff" d="M399.74,-231.28C336.22,-223.23 209.56,-206.85 102.38,-191 101.7,-190.9 101.01,-190.8 100.33,-190.7"/>
<polygon fill="#63b8ff" stroke="#63b8ff" points="100.92,-187.24 90.5,-189.19 99.86,-194.16 100.92,-187.24"/>
</a>
</g>
</g>
<!-- Node8 -->
<g id="Node000008" class="node">
<title>Node8</title>
<g id="a_Node000008"><a xlink:href="step__core_8h.html" target="_top" xlink:title=" ">
<polygon fill="white" stroke="#666666" points="444.5,-191 372.25,-191 372.25,-170.25 444.5,-170.25 444.5,-191"/>
<text xml:space="preserve" text-anchor="middle" x="408.38" y="-177.5" font-family="Helvetica,sans-Serif" font-size="10.00">step_core.h</text>
</a>
</g>
</g>
<!-- Node3&#45;&gt;Node8 -->
<g id="edge7_Node000003_Node000008" class="edge">
<title>Node3&#45;&gt;Node8</title>
<g id="a_edge7_Node000003_Node000008"><a xlink:title=" ">
<path fill="none" stroke="#63b8ff" d="M434.65,-226.59C430.51,-219.5 424.78,-209.69 419.72,-201.04"/>
<polygon fill="#63b8ff" stroke="#63b8ff" points="422.88,-199.5 414.81,-192.64 416.83,-203.03 422.88,-199.5"/>
</a>
</g>
</g>
<!-- Node11 -->
<g id="Node000011" class="node">
<title>Node11</title>
<g id="a_Node000011"><a xlink:title=" ">
<polygon fill="#e0e0e0" stroke="#999999" points="479.75,-77.5 421,-77.5 421,-56.75 479.75,-56.75 479.75,-77.5"/>
<text xml:space="preserve" text-anchor="middle" x="450.38" y="-64" font-family="Helvetica,sans-Serif" font-size="10.00">fsl_ftm.h</text>
</a>
</g>
</g>
<!-- Node3&#45;&gt;Node11 -->
<g id="edge34_Node000003_Node000011" class="edge">
<title>Node3&#45;&gt;Node11</title>
<g id="a_edge34_Node000003_Node000011"><a xlink:title=" ">
<path fill="none" stroke="#63b8ff" d="M443.96,-226.81C447.16,-217.74 451.6,-203.66 453.38,-191 458.38,-155.37 455.49,-113.37 452.93,-88.85"/>
<polygon fill="#63b8ff" stroke="#63b8ff" points="456.45,-88.79 451.84,-79.25 449.49,-89.58 456.45,-88.79"/>
</a>
</g>
</g>
<!-- Node12 -->
<g id="Node000012" class="node">
<title>Node12</title>
<g id="a_Node000012"><a xlink:title=" ">
<polygon fill="#e0e0e0" stroke="#999999" points="145,-77.5 81.75,-77.5 81.75,-56.75 145,-56.75 145,-77.5"/>
<text xml:space="preserve" text-anchor="middle" x="113.38" y="-64" font-family="Helvetica,sans-Serif" font-size="10.00">fsl_gpio.h</text>
</a>
</g>
</g>
<!-- Node3&#45;&gt;Node12 -->
<g id="edge35_Node000003_Node000012" class="edge">
<title>Node3&#45;&gt;Node12</title>
<g id="a_edge35_Node000003_Node000012"><a xlink:title=" ">
<path fill="none" stroke="#63b8ff" d="M399.99,-231.3C360.5,-225.3 299.33,-213.2 250.38,-191 210.67,-173 202.62,-163.59 170.38,-134.25 154.32,-119.64 138.38,-100.68 127.46,-86.81"/>
<polygon fill="#63b8ff" stroke="#63b8ff" points="130.27,-84.72 121.39,-78.94 124.73,-89 130.27,-84.72"/>
</a>
</g>
</g>
<!-- Node13 -->
<g id="Node000013" class="node">
<title>Node13</title>
<g id="a_Node000013"><a xlink:title=" ">
<polygon fill="#e0e0e0" stroke="#999999" points="225.25,-77.5 163.5,-77.5 163.5,-56.75 225.25,-56.75 225.25,-77.5"/>
<text xml:space="preserve" text-anchor="middle" x="194.38" y="-64" font-family="Helvetica,sans-Serif" font-size="10.00">fsl_port.h</text>
</a>
</g>
</g>
<!-- Node3&#45;&gt;Node13 -->
<g id="edge36_Node000003_Node000013" class="edge">
<title>Node3&#45;&gt;Node13</title>
<g id="a_edge36_Node000003_Node000013"><a xlink:title=" ">
<path fill="none" stroke="#63b8ff" d="M399.99,-229.46C348.48,-218.5 260.26,-192.11 211.38,-134.25 200.73,-121.64 196.63,-103.19 195.11,-88.98"/>
<polygon fill="#63b8ff" stroke="#63b8ff" points="198.63,-89.08 194.44,-79.35 191.64,-89.57 198.63,-89.08"/>
</a>
</g>
</g>
<!-- Node20 -->
<g id="Node000020" class="node">
<title>Node20</title>
<g id="a_Node000020"><a xlink:href="tmc2209__core_8h.html" target="_top" xlink:title=" ">
<polygon fill="white" stroke="#666666" points="1041.38,-191 947.38,-191 947.38,-170.25 1041.38,-170.25 1041.38,-191"/>
<text xml:space="preserve" text-anchor="middle" x="994.38" y="-177.5" font-family="Helvetica,sans-Serif" font-size="10.00">tmc2209_core.h</text>
</a>
</g>
</g>
<!-- Node3&#45;&gt;Node20 -->
<g id="edge28_Node000003_Node000020" class="edge">
<title>Node3&#45;&gt;Node20</title>
<g id="a_edge28_Node000003_Node000020"><a xlink:title=" ">
<path fill="none" stroke="#63b8ff" d="M481.11,-232.35C578.11,-222.76 823.04,-198.56 935.85,-187.41"/>
<polygon fill="#63b8ff" stroke="#63b8ff" points="935.88,-190.92 945.49,-186.46 935.19,-183.96 935.88,-190.92"/>
</a>
</g>
</g>
<!-- Node5 -->
<g id="Node000005" class="node">
<title>Node5</title>
<g id="a_Node000005"><a xlink:title=" ">
<polygon fill="#e0e0e0" stroke="#999999" points="654.88,-20.75 569.88,-20.75 569.88,0 654.88,0 654.88,-20.75"/>
<text xml:space="preserve" text-anchor="middle" x="612.38" y="-7.25" font-family="Helvetica,sans-Serif" font-size="10.00">fsl_common.h</text>
</a>
</g>
</g>
<!-- Node4&#45;&gt;Node5 -->
<g id="edge4_Node000004_Node000005" class="edge">
<title>Node4&#45;&gt;Node5</title>
<g id="a_edge4_Node000004_Node000005"><a xlink:title=" ">
<path fill="none" stroke="#63b8ff" d="M612.38,-56.34C612.38,-49.72 612.38,-40.72 612.38,-32.52"/>
<polygon fill="#63b8ff" stroke="#63b8ff" points="615.88,-32.59 612.38,-22.59 608.88,-32.59 615.88,-32.59"/>
</a>
</g>
</g>
<!-- Node6 -->
<g id="Node000006" class="node">
<title>Node6</title>
<g id="a_Node000006"><a xlink:title=" ">
<polygon fill="#e0e0e0" stroke="#999999" points="1024.25,-20.75 944.5,-20.75 944.5,0 1024.25,0 1024.25,-20.75"/>
<text xml:space="preserve" text-anchor="middle" x="984.38" y="-7.25" font-family="Helvetica,sans-Serif" font-size="10.00">peripherals.h</text>
</a>
</g>
</g>
<!-- Node4&#45;&gt;Node6 -->
<g id="edge5_Node000004_Node000006" class="edge">
<title>Node4&#45;&gt;Node6</title>
<g id="a_edge5_Node000004_Node000006"><a xlink:title=" ">
<path fill="none" stroke="#63b8ff" d="M679.31,-56.27C752.03,-45.57 866.63,-28.7 932.72,-18.98"/>
<polygon fill="#63b8ff" stroke="#63b8ff" points="933.2,-22.44 942.58,-17.53 932.18,-15.52 933.2,-22.44"/>
</a>
</g>
</g>
<!-- Node8&#45;&gt;Node4 -->
<g id="edge8_Node000008_Node000004" class="edge">
<title>Node8&#45;&gt;Node4</title>
<g id="a_edge8_Node000008_Node000004"><a xlink:title=" ">
<path fill="none" stroke="#63b8ff" d="M440.19,-169.79C464.11,-161.79 497.27,-149.36 524.38,-134.25 549.58,-120.19 575.68,-99.71 592.84,-85.27"/>
<polygon fill="#63b8ff" stroke="#63b8ff" points="594.92,-88.1 600.24,-78.94 590.37,-82.78 594.92,-88.1"/>
</a>
</g>
</g>
<!-- Node8&#45;&gt;Node5 -->
<g id="edge11_Node000008_Node000005" class="edge">
<title>Node8&#45;&gt;Node5</title>
<g id="a_edge11_Node000008_Node000005"><a xlink:title=" ">
<path fill="none" stroke="#63b8ff" d="M415.8,-170C433.23,-147.87 478.89,-92.52 526.38,-56.75 542.52,-44.59 562.39,-33.87 578.95,-25.91"/>
<polygon fill="#63b8ff" stroke="#63b8ff" points="580.33,-29.13 587.92,-21.73 577.38,-22.79 580.33,-29.13"/>
</a>
</g>
</g>
<!-- Node8&#45;&gt;Node9 -->
<g id="edge9_Node000008_Node000009" class="edge">
<title>Node8&#45;&gt;Node9</title>
<g id="a_edge9_Node000008_Node000009"><a xlink:title=" ">
<path fill="none" stroke="#63b8ff" d="M444.94,-179.06C553.54,-177.02 872.72,-168.22 970.38,-134.25 1001.1,-123.56 1031.47,-101.02 1050.31,-85.24"/>
<polygon fill="#63b8ff" stroke="#63b8ff" points="1052.37,-88.08 1057.66,-78.9 1047.8,-82.77 1052.37,-88.08"/>
</a>
</g>
</g>
<!-- Node10 -->
<g id="Node000010" class="node">
<title>Node10</title>
<g id="a_Node000010"><a xlink:title=" ">
<polygon fill="#e0e0e0" stroke="#999999" points="266.38,-134.25 220.38,-134.25 220.38,-113.5 266.38,-113.5 266.38,-134.25"/>
<text xml:space="preserve" text-anchor="middle" x="243.38" y="-120.75" font-family="Helvetica,sans-Serif" font-size="10.00">task.h</text>
</a>
</g>
</g>
<!-- Node8&#45;&gt;Node10 -->
<g id="edge10_Node000008_Node000010" class="edge">
<title>Node8&#45;&gt;Node10</title>
<g id="a_edge10_Node000008_Node000010"><a xlink:title=" ">
<path fill="none" stroke="#63b8ff" d="M378.88,-169.84C350.44,-160.4 307.43,-146.13 277.52,-136.2"/>
<polygon fill="#63b8ff" stroke="#63b8ff" points="278.79,-132.94 268.19,-133.11 276.58,-139.58 278.79,-132.94"/>
</a>
</g>
</g>
<!-- Node8&#45;&gt;Node11 -->
<g id="edge12_Node000008_Node000011" class="edge">
<title>Node8&#45;&gt;Node11</title>
<g id="a_edge12_Node000008_Node000011"><a xlink:title=" ">
<path fill="none" stroke="#63b8ff" d="M411.96,-170.12C418.74,-152.11 433.61,-112.64 442.73,-88.43"/>
<polygon fill="#63b8ff" stroke="#63b8ff" points="445.9,-89.93 446.15,-79.34 439.35,-87.47 445.9,-89.93"/>
</a>
</g>
</g>
<!-- Node8&#45;&gt;Node12 -->
<g id="edge13_Node000008_Node000012" class="edge">
<title>Node8&#45;&gt;Node12</title>
<g id="a_edge13_Node000008_Node000012"><a xlink:title=" ">
<path fill="none" stroke="#63b8ff" d="M371.9,-175.3C331.37,-169.58 264.65,-157.4 211.38,-134.25 182.2,-121.57 152.43,-100.01 133.48,-84.96"/>
<polygon fill="#63b8ff" stroke="#63b8ff" points="135.77,-82.31 125.79,-78.73 131.35,-87.75 135.77,-82.31"/>
</a>
</g>
</g>
<!-- Node8&#45;&gt;Node13 -->
<g id="edge14_Node000008_Node000013" class="edge">
<title>Node8&#45;&gt;Node13</title>
<g id="a_edge14_Node000008_Node000013"><a xlink:title=" ">
<path fill="none" stroke="#63b8ff" d="M387.06,-169.9C367.69,-160.96 338.39,-147.16 313.38,-134.25 304.33,-129.58 253.52,-101.23 221.29,-83.2"/>
<polygon fill="#63b8ff" stroke="#63b8ff" points="223.31,-80.32 212.88,-78.49 219.89,-86.42 223.31,-80.32"/>
</a>
</g>
</g>
<!-- Node8&#45;&gt;Node14 -->
<g id="edge15_Node000008_Node000014" class="edge">
<title>Node8&#45;&gt;Node14</title>
<g id="a_edge15_Node000008_Node000014"><a xlink:title=" ">
<path fill="none" stroke="#63b8ff" d="M444.72,-175.73C533.39,-166.23 761.23,-141.82 865.65,-130.63"/>
<polygon fill="#63b8ff" stroke="#63b8ff" points="865.78,-134.14 875.35,-129.59 865.04,-127.18 865.78,-134.14"/>
</a>
</g>
</g>
<!-- Node18 -->
<g id="Node000018" class="node">
<title>Node18</title>
<g id="a_Node000018"><a xlink:href="step__shared_8h.html" target="_top" xlink:title=" ">
<polygon fill="white" stroke="#666666" points="406.5,-134.25 322.25,-134.25 322.25,-113.5 406.5,-113.5 406.5,-134.25"/>
<text xml:space="preserve" text-anchor="middle" x="364.38" y="-120.75" font-family="Helvetica,sans-Serif" font-size="10.00">step_shared.h</text>
</a>
</g>
</g>
<!-- Node8&#45;&gt;Node18 -->
<g id="edge21_Node000008_Node000018" class="edge">
<title>Node8&#45;&gt;Node18</title>
<g id="a_edge21_Node000008_Node000018"><a xlink:title=" ">
<path fill="none" stroke="#63b8ff" d="M400.51,-169.84C394.63,-162.52 386.41,-152.29 379.3,-143.44"/>
<polygon fill="#63b8ff" stroke="#63b8ff" points="382.11,-141.36 373.12,-135.76 376.66,-145.75 382.11,-141.36"/>
</a>
</g>
</g>
<!-- Node14&#45;&gt;Node5 -->
<g id="edge19_Node000014_Node000005" class="edge">
<title>Node14&#45;&gt;Node5</title>
<g id="a_edge19_Node000014_Node000005"><a xlink:title=" ">
<path fill="none" stroke="#63b8ff" d="M883.4,-113.01C853.99,-104.59 811.5,-91.64 775.38,-77.5 755.24,-69.62 751.27,-65.22 731.38,-56.75 704.68,-45.39 674.09,-33.75 650.6,-25.11"/>
<polygon fill="#63b8ff" stroke="#63b8ff" points="652.04,-21.91 641.45,-21.76 649.64,-28.48 652.04,-21.91"/>
</a>
</g>
</g>
<!-- Node14&#45;&gt;Node9 -->
<g id="edge17_Node000014_Node000009" class="edge">
<title>Node14&#45;&gt;Node9</title>
<g id="a_edge17_Node000014_Node000009"><a xlink:title=" ">
<path fill="none" stroke="#63b8ff" d="M946.19,-113.09C970.11,-104.36 1005.38,-91.48 1032.05,-81.75"/>
<polygon fill="#63b8ff" stroke="#63b8ff" points="1032.92,-85.16 1041.12,-78.44 1030.52,-78.58 1032.92,-85.16"/>
</a>
</g>
</g>
<!-- Node15 -->
<g id="Node000015" class="node">
<title>Node15</title>
<g id="a_Node000015"><a xlink:title=" ">
<polygon fill="#e0e0e0" stroke="#999999" points="1015.75,-77.5 963,-77.5 963,-56.75 1015.75,-56.75 1015.75,-77.5"/>
<text xml:space="preserve" text-anchor="middle" x="989.38" y="-64" font-family="Helvetica,sans-Serif" font-size="10.00">stdint.h</text>
</a>
</g>
</g>
<!-- Node14&#45;&gt;Node15 -->
<g id="edge16_Node000014_Node000015" class="edge">
<title>Node14&#45;&gt;Node15</title>
<g id="a_edge16_Node000014_Node000015"><a xlink:title=" ">
<path fill="none" stroke="#63b8ff" d="M931.89,-113.09C941.94,-105.22 956.29,-94 968.13,-84.74"/>
<polygon fill="#63b8ff" stroke="#63b8ff" points="970.06,-87.68 975.78,-78.76 965.74,-82.16 970.06,-87.68"/>
</a>
</g>
</g>
<!-- Node16 -->
<g id="Node000016" class="node">
<title>Node16</title>
<g id="a_Node000016"><a xlink:title=" ">
<polygon fill="#e0e0e0" stroke="#999999" points="874.88,-77.5 783.88,-77.5 783.88,-56.75 874.88,-56.75 874.88,-77.5"/>
<text xml:space="preserve" text-anchor="middle" x="829.38" y="-64" font-family="Helvetica,sans-Serif" font-size="10.00">event_groups.h</text>
</a>
</g>
</g>
<!-- Node14&#45;&gt;Node16 -->
<g id="edge18_Node000014_Node000016" class="edge">
<title>Node14&#45;&gt;Node16</title>
<g id="a_edge18_Node000014_Node000016"><a xlink:title=" ">
<path fill="none" stroke="#63b8ff" d="M903.28,-113.09C889.85,-104.91 870.44,-93.11 854.89,-83.65"/>
<polygon fill="#63b8ff" stroke="#63b8ff" points="856.98,-80.82 846.62,-78.62 853.34,-86.8 856.98,-80.82"/>
</a>
</g>
</g>
<!-- Node17 -->
<g id="Node000017" class="node">
<title>Node17</title>
<g id="a_Node000017"><a xlink:title=" ">
<polygon fill="#e0e0e0" stroke="#999999" points="945.38,-77.5 893.38,-77.5 893.38,-56.75 945.38,-56.75 945.38,-77.5"/>
<text xml:space="preserve" text-anchor="middle" x="919.38" y="-64" font-family="Helvetica,sans-Serif" font-size="10.00">stdlib.h</text>
</a>
</g>
</g>
<!-- Node14&#45;&gt;Node17 -->
<g id="edge20_Node000014_Node000017" class="edge">
<title>Node14&#45;&gt;Node17</title>
<g id="a_edge20_Node000014_Node000017"><a xlink:title=" ">
<path fill="none" stroke="#63b8ff" d="M919.38,-113.09C919.38,-106.47 919.38,-97.47 919.38,-89.27"/>
<polygon fill="#63b8ff" stroke="#63b8ff" points="922.88,-89.34 919.38,-79.34 915.88,-89.34 922.88,-89.34"/>
</a>
</g>
</g>
<!-- Node18&#45;&gt;Node4 -->
<g id="edge22_Node000018_Node000004" class="edge">
<title>Node18&#45;&gt;Node4</title>
<g id="a_edge22_Node000018_Node000004"><a xlink:title=" ">
<path fill="none" stroke="#63b8ff" d="M406.73,-113.53C448.05,-104.4 511.14,-90.47 556.55,-80.45"/>
<polygon fill="#63b8ff" stroke="#63b8ff" points="557.2,-83.89 566.21,-78.32 555.69,-77.06 557.2,-83.89"/>
</a>
</g>
</g>
<!-- Node18&#45;&gt;Node5 -->
<g id="edge24_Node000018_Node000005" class="edge">
<title>Node18&#45;&gt;Node5</title>
<g id="a_edge24_Node000018_Node000005"><a xlink:title=" ">
<path fill="none" stroke="#63b8ff" d="M368.69,-113.06C375.65,-98.39 390.82,-70.96 412.38,-56.75 456.07,-27.93 515.54,-17.25 558.26,-13.38"/>
<polygon fill="#63b8ff" stroke="#63b8ff" points="558.36,-16.88 568.05,-12.59 557.8,-9.9 558.36,-16.88"/>
</a>
</g>
</g>
<!-- Node18&#45;&gt;Node11 -->
<g id="edge25_Node000018_Node000011" class="edge">
<title>Node18&#45;&gt;Node11</title>
<g id="a_edge25_Node000018_Node000011"><a xlink:title=" ">
<path fill="none" stroke="#63b8ff" d="M379.75,-113.09C392.47,-104.99 410.78,-93.33 425.57,-83.92"/>
<polygon fill="#63b8ff" stroke="#63b8ff" points="427.3,-86.96 433.86,-78.64 423.54,-81.06 427.3,-86.96"/>
</a>
</g>
</g>
<!-- Node18&#45;&gt;Node12 -->
<g id="edge26_Node000018_Node000012" class="edge">
<title>Node18&#45;&gt;Node12</title>
<g id="a_edge26_Node000018_Node000012"><a xlink:title=" ">
<path fill="none" stroke="#63b8ff" d="M322.11,-113.9C282,-105.34 219.73,-91.98 156.19,-77.88"/>
<polygon fill="#63b8ff" stroke="#63b8ff" points="157.15,-74.51 146.63,-75.76 155.63,-81.34 157.15,-74.51"/>
</a>
</g>
</g>
<!-- Node18&#45;&gt;Node13 -->
<g id="edge27_Node000018_Node000013" class="edge">
<title>Node18&#45;&gt;Node13</title>
<g id="a_edge27_Node000018_Node000013"><a xlink:title=" ">
<path fill="none" stroke="#63b8ff" d="M333.98,-113.09C306.51,-104.24 265.84,-91.14 235.47,-81.36"/>
<polygon fill="#63b8ff" stroke="#63b8ff" points="236.82,-78.12 226.23,-78.38 234.68,-84.78 236.82,-78.12"/>
</a>
</g>
</g>
<!-- Node19 -->
<g id="Node000019" class="node">
<title>Node19</title>
<g id="a_Node000019"><a xlink:title=" ">
<polygon fill="#e0e0e0" stroke="#999999" points="365.62,-77.5 243.12,-77.5 243.12,-56.75 365.62,-56.75 365.62,-77.5"/>
<text xml:space="preserve" text-anchor="middle" x="304.38" y="-64" font-family="Helvetica,sans-Serif" font-size="10.00">fsl_device_registers.h</text>
</a>
</g>
</g>
<!-- Node18&#45;&gt;Node19 -->
<g id="edge23_Node000018_Node000019" class="edge">
<title>Node18&#45;&gt;Node19</title>
<g id="a_edge23_Node000018_Node000019"><a xlink:title=" ">
<path fill="none" stroke="#63b8ff" d="M353.65,-113.09C345.29,-105.46 333.46,-94.67 323.49,-85.57"/>
<polygon fill="#63b8ff" stroke="#63b8ff" points="325.87,-83 316.13,-78.85 321.15,-88.17 325.87,-83"/>
</a>
</g>
</g>
<!-- Node20&#45;&gt;Node5 -->
<g id="edge31_Node000020_Node000005" class="edge">
<title>Node20&#45;&gt;Node5</title>
<g id="a_edge31_Node000020_Node000005"><a xlink:title=" ">
<path fill="none" stroke="#63b8ff" d="M965.96,-169.82C940.33,-160.88 901.66,-147.13 868.38,-134.25 806.91,-110.47 789.92,-107.76 731.38,-77.5 715.98,-69.55 713.38,-65.41 698.38,-56.75 679.85,-46.06 658.6,-34.84 641.85,-26.23"/>
<polygon fill="#63b8ff" stroke="#63b8ff" points="643.92,-23.35 633.42,-21.92 640.73,-29.59 643.92,-23.35"/>
</a>
</g>
</g>
<!-- Node20&#45;&gt;Node6 -->
<g id="edge33_Node000020_Node000006" class="edge">
<title>Node20&#45;&gt;Node6</title>
<g id="a_edge33_Node000020_Node000006"><a xlink:title=" ">
<path fill="none" stroke="#63b8ff" d="M1041.74,-180.02C1087.45,-178.12 1156.55,-169.01 1204.38,-134.25 1234.66,-112.24 1261.4,-85.46 1237.38,-56.75 1212.22,-26.68 1102.42,-16.51 1036.01,-13.09"/>
<polygon fill="#63b8ff" stroke="#63b8ff" points="1036.21,-9.6 1026.06,-12.62 1035.88,-16.59 1036.21,-9.6"/>
</a>
</g>
</g>
<!-- Node20&#45;&gt;Node14 -->
<g id="edge32_Node000020_Node000014" class="edge">
<title>Node20&#45;&gt;Node14</title>
<g id="a_edge32_Node000020_Node000014"><a xlink:title=" ">
<path fill="none" stroke="#63b8ff" d="M980.97,-169.84C970.09,-161.9 954.52,-150.53 941.76,-141.21"/>
<polygon fill="#63b8ff" stroke="#63b8ff" points="944.03,-138.54 933.89,-135.47 939.9,-144.19 944.03,-138.54"/>
</a>
</g>
</g>
<!-- Node21 -->
<g id="Node000021" class="node">
<title>Node21</title>
<g id="a_Node000021"><a xlink:href="tmc2209__shared_8h.html" target="_top" xlink:title=" ">
<polygon fill="white" stroke="#666666" points="1195.38,-134.25 1089.38,-134.25 1089.38,-113.5 1195.38,-113.5 1195.38,-134.25"/>
<text xml:space="preserve" text-anchor="middle" x="1142.38" y="-120.75" font-family="Helvetica,sans-Serif" font-size="10.00">tmc2209_shared.h</text>
</a>
</g>
</g>
<!-- Node20&#45;&gt;Node21 -->
<g id="edge29_Node000020_Node000021" class="edge">
<title>Node20&#45;&gt;Node21</title>
<g id="a_edge29_Node000020_Node000021"><a xlink:title=" ">
<path fill="none" stroke="#63b8ff" d="M1020.83,-169.84C1044.41,-161.12 1079.14,-148.27 1105.44,-138.54"/>
<polygon fill="#63b8ff" stroke="#63b8ff" points="1106.56,-141.86 1114.73,-135.1 1104.13,-135.29 1106.56,-141.86"/>
</a>
</g>
</g>
<!-- Node22 -->
<g id="Node000022" class="node">
<title>Node22</title>
<g id="a_Node000022"><a xlink:title=" ">
<polygon fill="#e0e0e0" stroke="#999999" points="1228,-77.5 1122.75,-77.5 1122.75,-56.75 1228,-56.75 1228,-77.5"/>
<text xml:space="preserve" text-anchor="middle" x="1175.38" y="-64" font-family="Helvetica,sans-Serif" font-size="10.00">fsl_uart_freertos.h</text>
</a>
</g>
</g>
<!-- Node21&#45;&gt;Node22 -->
<g id="edge30_Node000021_Node000022" class="edge">
<title>Node21&#45;&gt;Node22</title>
<g id="a_edge30_Node000021_Node000022"><a xlink:title=" ">
<path fill="none" stroke="#63b8ff" d="M1148.27,-113.09C1152.55,-106 1158.46,-96.19 1163.67,-87.54"/>
<polygon fill="#63b8ff" stroke="#63b8ff" points="1166.58,-89.5 1168.75,-79.12 1160.59,-85.88 1166.58,-89.5"/>
</a>
</g>
</g>
</g>
</svg>
