<?xml version="1.0" encoding="UTF-8" standalone="no"?>
<!DOCTYPE svg PUBLIC "-//W3C//DTD SVG 1.1//EN"
 "http://www.w3.org/Graphics/SVG/1.1/DTD/svg11.dtd">
<!-- Generated by graphviz version 14.1.5 (0)
 -->
<!-- Title: source/motion/motor/motor_core.h Pages: 1 -->
<!--zoomable 320 -->

<svg id="main" version="1.1" xmlns="http://www.w3.org/2000/svg" xmlns:xlink="http://www.w3.org/1999/xlink" xml:space="preserve" onload="init(evt)">

<style type="text/css"><![CDATA[
.node, .edge {opacity: 0.7;}
.node.selected, .edge.selected {opacity: 1;}
.edge:hover path { stroke: red; }
.edge:hover polygon { stroke: red; fill: red; }
]]></style>

<defs>
  <circle id="rim" cx="0" cy="0" r="7"/>
  <circle id="rim2" cx="0" cy="0" r="3.5"/>
  <g id="zoomPlus">
    <use xlink:href="#rim" fill="#404040"><set attributeName="fill" to="#808080" begin="zoomplus.mouseover" end="zoomplus.mouseout"/></use>
    <path d="M-4,0h8M0,-4v8" fill="none" stroke="white" stroke-width="1.5" pointer-events="none"/>
  </g>
  <g id="zoomMin">
    <use xlink:href="#rim" fill="#404040"><set attributeName="fill" to="#808080" begin="zoomminus.mouseover" end="zoomminus.mouseout"/></use>
    <path d="M-4,0h8" fill="none" stroke="white" stroke-width="1.5" pointer-events="none"/>
  </g>
  <g id="arrowUp" transform="translate(30 24)">
    <use xlink:href="#rim"/>
    <path pointer-events="none" fill="none" stroke="white" stroke-width="1.5" d="M0,-3.0v7 M-2.5,-0.5L0,-3.0L2.5,-0.5"/>
  </g>
  <g id="arrowRight" transform="rotate(90) translate(36 -43)">
    <use xlink:href="#rim"/>
    <path pointer-events="none" fill="none" stroke="white" stroke-width="1.5" d="M0,-3.0v7 M-2.5,-0.5L0,-3.0L2.5,-0.5"/>
  </g>
  <g id="arrowDown" transform="rotate(180) translate(-30 -48)">
    <use xlink:href="#rim"/>
    <path pointer-events="none" fill="none" stroke="white" stroke-width="1.5" d="M0,-3.0v7 M-2.5,-0.5L0,-3.0L2.5,-0.5"/>
  </g>
  <g id="arrowLeft" transform="rotate(270) translate(-36 17)">
    <use xlink:href="#rim"/>
    <path pointer-events="none" fill="none" stroke="white" stroke-width="1.5" d="M0,-3.0v7 M-2.5,-0.5L0,-3.0L2.5,-0.5"/>
  </g>
  <g id="resetDef">
    <use xlink:href="#rim2" fill="#404040"><set attributeName="fill" to="#808080" begin="reset.mouseover" end="reset.mouseout"/></use>
  </g>
</defs>
<script type="application/ecmascript">
var viewWidth = 1907;
var viewHeight = 320;
var sectionId = 'dynsection-1';
</script>
<script type="application/ecmascript" xlink:href="svg.min.js"/>
<svg id="graph" class="graph">
<g id="viewport">
<title>source/motion/motor/motor_core.h</title>
<!-- Node1 -->
<g id="Node000001" class="node">
<title>Node1</title>
<g id="a_Node000001"><a xlink:title=" ">
<polygon fill="#999999" stroke="#666666" points="1214,-311.5 1096,-311.5 1096,-278 1214,-278 1214,-311.5"/>
<text xml:space="preserve" text-anchor="start" x="1104" y="-298" font-family="Helvetica,sans-Serif" font-size="10.00">source/motion/motor</text>
<text xml:space="preserve" text-anchor="middle" x="1155" y="-285.25" font-family="Helvetica,sans-Serif" font-size="10.00">/motor_core.h</text>
</a>
</g>
</g>
<!-- Node2 -->
<g id="Node000002" class="node">
<title>Node2</title>
<g id="a_Node000002"><a xlink:href="application_8c.html" target="_top" xlink:title=" ">
<polygon fill="white" stroke="#666666" points="1567.75,-166.12 1454.25,-166.12 1454.25,-145.38 1567.75,-145.38 1567.75,-166.12"/>
<text xml:space="preserve" text-anchor="middle" x="1511" y="-152.62" font-family="Helvetica,sans-Serif" font-size="10.00">source/application.c</text>
</a>
</g>
</g>
<!-- Node1&#45;&gt;Node2 -->
<g id="edge1_Node000001_Node000002" class="edge">
<title>Node1&#45;&gt;Node2</title>
<g id="a_edge1_Node000001_Node000002"><a xlink:title=" ">
<path fill="none" stroke="#63b8ff" d="M1225.51,-286.51C1297.77,-278.12 1404.44,-262.74 1440,-242 1471.95,-223.37 1495.91,-184.73 1505.9,-166.58"/>
<polygon fill="#63b8ff" stroke="#63b8ff" points="1225.27,-283.02 1215.73,-287.63 1226.06,-289.97 1225.27,-283.02"/>
</a>
</g>
</g>
<!-- Node3 -->
<g id="Node000003" class="node">
<title>Node3</title>
<g id="a_Node000003"><a xlink:href="grabber_8c.html" target="_top" xlink:title=" ">
<polygon fill="white" stroke="#666666" points="1411.12,-96.62 1314.88,-96.62 1314.88,-75.88 1411.12,-75.88 1411.12,-96.62"/>
<text xml:space="preserve" text-anchor="middle" x="1363" y="-83.12" font-family="Helvetica,sans-Serif" font-size="10.00">source/grabber.c</text>
</a>
</g>
</g>
<!-- Node1&#45;&gt;Node3 -->
<g id="edge2_Node000001_Node000003" class="edge">
<title>Node1&#45;&gt;Node3</title>
<g id="a_edge2_Node000001_Node000003"><a xlink:title=" ">
<path fill="none" stroke="#63b8ff" d="M1224.81,-274.75C1274.67,-257.12 1338.15,-225.43 1369,-172.5 1383.04,-148.4 1373.23,-113.72 1367.02,-97"/>
<polygon fill="#63b8ff" stroke="#63b8ff" points="1223.85,-271.38 1215.51,-277.91 1226.1,-278 1223.85,-271.38"/>
</a>
</g>
</g>
<!-- Node4 -->
<g id="Node000004" class="node">
<title>Node4</title>
<g id="a_Node000004"><a xlink:href="motor__convert_8h.html" target="_top" xlink:title=" ">
<polygon fill="white" stroke="#666666" points="503,-172.5 385,-172.5 385,-139 503,-139 503,-172.5"/>
<text xml:space="preserve" text-anchor="start" x="393" y="-159" font-family="Helvetica,sans-Serif" font-size="10.00">source/motion/motor</text>
<text xml:space="preserve" text-anchor="middle" x="444" y="-146.25" font-family="Helvetica,sans-Serif" font-size="10.00">/motor_convert.h</text>
</a>
</g>
</g>
<!-- Node1&#45;&gt;Node4 -->
<g id="edge3_Node000001_Node000004" class="edge">
<title>Node1&#45;&gt;Node4</title>
<g id="a_edge3_Node000001_Node000004"><a xlink:title=" ">
<path fill="none" stroke="#63b8ff" d="M1084.63,-290.67C956.57,-284.48 690.46,-268.79 602,-242 550.39,-226.37 496.38,-192.93 466.78,-172.89"/>
<polygon fill="#63b8ff" stroke="#63b8ff" points="1084.18,-294.15 1094.33,-291.13 1084.51,-287.16 1084.18,-294.15"/>
</a>
</g>
</g>
<!-- Node8 -->
<g id="Node000008" class="node">
<title>Node8</title>
<g id="a_Node000008"><a xlink:href="motorCmd_8c.html" target="_top" xlink:title=" ">
<polygon fill="white" stroke="#666666" points="1063.62,-96.62 952.38,-96.62 952.38,-75.88 1063.62,-75.88 1063.62,-96.62"/>
<text xml:space="preserve" text-anchor="middle" x="1008" y="-83.12" font-family="Helvetica,sans-Serif" font-size="10.00">source/motorCmd.c</text>
</a>
</g>
</g>
<!-- Node1&#45;&gt;Node8 -->
<g id="edge35_Node000001_Node000008" class="edge">
<title>Node1&#45;&gt;Node8</title>
<g id="a_edge35_Node000001_Node000008"><a xlink:title=" ">
<path fill="none" stroke="#63b8ff" d="M1116.96,-271.13C1105.38,-262.98 1093.28,-253.04 1084,-242 1044.15,-194.56 1019.05,-122.66 1010.91,-96.87"/>
<polygon fill="#63b8ff" stroke="#63b8ff" points="1114.99,-274.02 1125.24,-276.7 1118.89,-268.21 1114.99,-274.02"/>
</a>
</g>
</g>
<!-- Node9 -->
<g id="Node000009" class="node">
<title>Node9</title>
<g id="a_Node000009"><a xlink:href="motor__homing_8c.html" target="_top" xlink:title=" ">
<polygon fill="white" stroke="#666666" points="1212.38,-96.62 1081.62,-96.62 1081.62,-75.88 1212.38,-75.88 1212.38,-96.62"/>
<text xml:space="preserve" text-anchor="middle" x="1147" y="-83.12" font-family="Helvetica,sans-Serif" font-size="10.00">source/motor_homing.c</text>
</a>
</g>
</g>
<!-- Node1&#45;&gt;Node9 -->
<g id="edge41_Node000001_Node000009" class="edge">
<title>Node1&#45;&gt;Node9</title>
<g id="a_edge41_Node000001_Node000009"><a xlink:title=" ">
<path fill="none" stroke="#63b8ff" d="M1131.7,-269.44C1111.47,-246.52 1083.65,-210.15 1072,-172.5 1067.6,-158.28 1065.08,-152.18 1072,-139 1082.44,-119.11 1104.38,-105.36 1121.84,-97.06"/>
<polygon fill="#63b8ff" stroke="#63b8ff" points="1128.97,-271.64 1138.28,-276.7 1134.16,-266.94 1128.97,-271.64"/>
</a>
</g>
</g>
<!-- Node10 -->
<g id="Node000010" class="node">
<title>Node10</title>
<g id="a_Node000010"><a xlink:href="motor__core_8c.html" target="_top" xlink:title=" ">
<polygon fill="white" stroke="#666666" points="934,-103 816,-103 816,-69.5 934,-69.5 934,-103"/>
<text xml:space="preserve" text-anchor="start" x="824" y="-89.5" font-family="Helvetica,sans-Serif" font-size="10.00">source/motion/motor</text>
<text xml:space="preserve" text-anchor="middle" x="875" y="-76.75" font-family="Helvetica,sans-Serif" font-size="10.00">/motor_core.c</text>
</a>
</g>
</g>
<!-- Node1&#45;&gt;Node10 -->
<g id="edge9_Node000001_Node000010" class="edge">
<title>Node1&#45;&gt;Node10</title>
<g id="a_edge9_Node000001_Node000010"><a xlink:title=" ">
<path fill="none" stroke="#63b8ff" d="M1109.66,-272.43C1092.67,-263.77 1073.49,-253.17 1057,-242 991.06,-197.35 921.66,-132.63 891.07,-103.06"/>
<polygon fill="#63b8ff" stroke="#63b8ff" points="1108.06,-275.54 1118.57,-276.88 1111.19,-269.28 1108.06,-275.54"/>
</a>
</g>
</g>
<!-- Node11 -->
<g id="Node000011" class="node">
<title>Node11</title>
<g id="a_Node000011"><a xlink:href="motor__init_8h.html" target="_top" xlink:title=" ">
<polygon fill="white" stroke="#666666" points="193,-172.5 75,-172.5 75,-139 193,-139 193,-172.5"/>
<text xml:space="preserve" text-anchor="start" x="83" y="-159" font-family="Helvetica,sans-Serif" font-size="10.00">source/motion/motor</text>
<text xml:space="preserve" text-anchor="middle" x="134" y="-146.25" font-family="Helvetica,sans-Serif" font-size="10.00">/motor_init.h</text>
</a>
</g>
</g>
<!-- Node1&#45;&gt;Node11 -->
<g id="edge10_Node000001_Node000011" class="edge">
<title>Node1&#45;&gt;Node11</title>
<g id="a_edge10_Node000001_Node000011"><a xlink:title=" ">
<path fill="none" stroke="#63b8ff" d="M1084.49,-291.09C967.21,-285.97 724.88,-272.44 522,-242 404.35,-224.35 269.08,-191.78 193.36,-172.41"/>
<polygon fill="#63b8ff" stroke="#63b8ff" points="1084.14,-294.58 1094.28,-291.51 1084.43,-287.58 1084.14,-294.58"/>
</a>
</g>
</g>
<!-- Node14 -->
<g id="Node000014" class="node">
<title>Node14</title>
<g id="a_Node000014"><a xlink:href="motor__internal_8h.html" target="_top" xlink:title=" ">
<polygon fill="white" stroke="#666666" points="729,-242 611,-242 611,-208.5 729,-208.5 729,-242"/>
<text xml:space="preserve" text-anchor="start" x="619" y="-228.5" font-family="Helvetica,sans-Serif" font-size="10.00">source/motion/motor</text>
<text xml:space="preserve" text-anchor="middle" x="670" y="-215.75" font-family="Helvetica,sans-Serif" font-size="10.00">/motor_internal.h</text>
</a>
</g>
</g>
<!-- Node1&#45;&gt;Node14 -->
<g id="edge13_Node000001_Node000014" class="edge">
<title>Node1&#45;&gt;Node14</title>
<g id="a_edge13_Node000001_Node000014"><a xlink:title=" ">
<path fill="none" stroke="#63b8ff" d="M1084.21,-283.9C988.28,-270.55 818.73,-246.95 729.2,-234.49"/>
<polygon fill="#63b8ff" stroke="#63b8ff" points="1083.64,-287.35 1094.03,-285.26 1084.61,-280.42 1083.64,-287.35"/>
</a>
</g>
</g>
<!-- Node21 -->
<g id="Node000021" class="node">
<title>Node21</title>
<g id="a_Node000021"><a xlink:href="motor__test_8c.html" target="_top" xlink:title=" ">
<polygon fill="white" stroke="#666666" points="1542.38,-96.62 1429.62,-96.62 1429.62,-75.88 1542.38,-75.88 1542.38,-96.62"/>
<text xml:space="preserve" text-anchor="middle" x="1486" y="-83.12" font-family="Helvetica,sans-Serif" font-size="10.00">source/motor_test.c</text>
</a>
</g>
</g>
<!-- Node1&#45;&gt;Node21 -->
<g id="edge42_Node000001_Node000021" class="edge">
<title>Node1&#45;&gt;Node21</title>
<g id="a_edge42_Node000001_Node000021"><a xlink:title=" ">
<path fill="none" stroke="#63b8ff" d="M1225,-282C1259.24,-274.17 1300.06,-261.61 1333,-242 1367.74,-221.32 1451.31,-127.08 1477.8,-96.71"/>
<polygon fill="#63b8ff" stroke="#63b8ff" points="1224.64,-278.5 1215.62,-284.06 1226.13,-285.34 1224.64,-278.5"/>
</a>
</g>
</g>
<!-- Node22 -->
<g id="Node000022" class="node">
<title>Node22</title>
<g id="a_Node000022"><a xlink:href="scara__kinematics_8c.html" target="_top" xlink:title=" ">
<polygon fill="white" stroke="#666666" points="1898.5,-27.12 1753.5,-27.12 1753.5,-6.38 1898.5,-6.38 1898.5,-27.12"/>
<text xml:space="preserve" text-anchor="middle" x="1826" y="-13.62" font-family="Helvetica,sans-Serif" font-size="10.00">source/scara_kinematics.c</text>
</a>
</g>
</g>
<!-- Node1&#45;&gt;Node22 -->
<g id="edge43_Node000001_Node000022" class="edge">
<title>Node1&#45;&gt;Node22</title>
<g id="a_edge43_Node000001_Node000022"><a xlink:title=" ">
<path fill="none" stroke="#63b8ff" d="M1225.51,-294.03C1327.21,-292.81 1520.19,-284.41 1678,-242 1750.13,-222.62 1782.95,-229.68 1831,-172.5 1860.9,-136.92 1858.65,-114.96 1849,-69.5 1845.69,-53.92 1837.36,-37.33 1831.69,-27.26"/>
<polygon fill="#63b8ff" stroke="#63b8ff" points="1225.64,-290.52 1215.68,-294.12 1225.71,-297.52 1225.64,-290.52"/>
</a>
</g>
</g>
<!-- Node23 -->
<g id="Node000023" class="node">
<title>Node23</title>
<g id="a_Node000023"><a xlink:href="motor__configs_8h.html" target="_top" xlink:title=" ">
<polygon fill="white" stroke="#666666" points="1359.62,-166.12 1230.38,-166.12 1230.38,-145.38 1359.62,-145.38 1359.62,-166.12"/>
<text xml:space="preserve" text-anchor="middle" x="1295" y="-152.62" font-family="Helvetica,sans-Serif" font-size="10.00">source/motor_configs.h</text>
</a>
</g>
</g>
<!-- Node1&#45;&gt;Node23 -->
<g id="edge36_Node000001_Node000023" class="edge">
<title>Node1&#45;&gt;Node23</title>
<g id="a_edge36_Node000001_Node000023"><a xlink:title=" ">
<path fill="none" stroke="#63b8ff" d="M1179.53,-269.74C1210.76,-239.18 1263.27,-187.8 1285.06,-166.48"/>
<polygon fill="#63b8ff" stroke="#63b8ff" points="1177.11,-267.21 1172.42,-276.71 1182.01,-272.22 1177.11,-267.21"/>
</a>
</g>
</g>
<!-- Node25 -->
<g id="Node000025" class="node">
<title>Node25</title>
<g id="a_Node000025"><a xlink:href="scara__kinematics_8h.html" target="_top" xlink:title=" ">
<polygon fill="white" stroke="#666666" points="1668.88,-235.62 1523.12,-235.62 1523.12,-214.88 1668.88,-214.88 1668.88,-235.62"/>
<text xml:space="preserve" text-anchor="middle" x="1596" y="-222.12" font-family="Helvetica,sans-Serif" font-size="10.00">source/scara_kinematics.h</text>
</a>
</g>
</g>
<!-- Node1&#45;&gt;Node25 -->
<g id="edge44_Node000001_Node000025" class="edge">
<title>Node1&#45;&gt;Node25</title>
<g id="a_edge44_Node000001_Node000025"><a xlink:title=" ">
<path fill="none" stroke="#63b8ff" d="M1225.49,-283.03C1294.06,-272.58 1401.19,-256.25 1494,-242 1506.4,-240.1 1519.64,-238.06 1532.34,-236.1"/>
<polygon fill="#63b8ff" stroke="#63b8ff" points="1225.26,-279.52 1215.9,-284.49 1226.31,-286.44 1225.26,-279.52"/>
</a>
</g>
</g>
<!-- Node5 -->
<g id="Node000005" class="node">
<title>Node5</title>
<g id="a_Node000005"><a xlink:href="motor__convert_8c.html" target="_top" xlink:title=" ">
<polygon fill="white" stroke="#666666" points="254,-103 136,-103 136,-69.5 254,-69.5 254,-103"/>
<text xml:space="preserve" text-anchor="start" x="144" y="-89.5" font-family="Helvetica,sans-Serif" font-size="10.00">source/motion/motor</text>
<text xml:space="preserve" text-anchor="middle" x="195" y="-76.75" font-family="Helvetica,sans-Serif" font-size="10.00">/motor_convert.c</text>
</a>
</g>
</g>
<!-- Node4&#45;&gt;Node5 -->
<g id="edge4_Node000004_Node000005" class="edge">
<title>Node4&#45;&gt;Node5</title>
<g id="a_edge4_Node000004_Node000005"><a xlink:title=" ">
<path fill="none" stroke="#63b8ff" d="M373.78,-135.71C336.1,-125.5 290.17,-113.05 254.3,-103.33"/>
<polygon fill="#63b8ff" stroke="#63b8ff" points="372.65,-139.03 383.21,-138.27 374.48,-132.28 372.65,-139.03"/>
</a>
</g>
</g>
<!-- Node6 -->
<g id="Node000006" class="node">
<title>Node6</title>
<g id="a_Node000006"><a xlink:href="motor__motion_8c.html" target="_top" xlink:title=" ">
<polygon fill="white" stroke="#666666" points="662,-103 544,-103 544,-69.5 662,-69.5 662,-103"/>
<text xml:space="preserve" text-anchor="start" x="552" y="-89.5" font-family="Helvetica,sans-Serif" font-size="10.00">source/motion/motor</text>
<text xml:space="preserve" text-anchor="middle" x="603" y="-76.75" font-family="Helvetica,sans-Serif" font-size="10.00">/motor_motion.c</text>
</a>
</g>
</g>
<!-- Node4&#45;&gt;Node6 -->
<g id="edge5_Node000004_Node000006" class="edge">
<title>Node4&#45;&gt;Node6</title>
<g id="a_edge5_Node000004_Node000006"><a xlink:title=" ">
<path fill="none" stroke="#63b8ff" d="M492.45,-134.18C515.72,-124.3 543.21,-112.63 564.95,-103.4"/>
<polygon fill="#63b8ff" stroke="#63b8ff" points="491.31,-130.86 483.48,-137.99 494.05,-137.3 491.31,-130.86"/>
</a>
</g>
</g>
<!-- Node7 -->
<g id="Node000007" class="node">
<title>Node7</title>
<g id="a_Node000007"><a xlink:href="motor__sync_8c.html" target="_top" xlink:title=" ">
<polygon fill="white" stroke="#666666" points="390,-103 272,-103 272,-69.5 390,-69.5 390,-103"/>
<text xml:space="preserve" text-anchor="start" x="280" y="-89.5" font-family="Helvetica,sans-Serif" font-size="10.00">source/motion/motor</text>
<text xml:space="preserve" text-anchor="middle" x="331" y="-76.75" font-family="Helvetica,sans-Serif" font-size="10.00">/motor_sync.c</text>
</a>
</g>
</g>
<!-- Node4&#45;&gt;Node7 -->
<g id="edge6_Node000004_Node000007" class="edge">
<title>Node4&#45;&gt;Node7</title>
<g id="a_edge6_Node000004_Node000007"><a xlink:title=" ">
<path fill="none" stroke="#63b8ff" d="M407.28,-132.82C391.18,-123.2 372.62,-112.11 357.85,-103.29"/>
<polygon fill="#63b8ff" stroke="#63b8ff" points="405.25,-135.68 415.63,-137.81 408.84,-129.67 405.25,-135.68"/>
</a>
</g>
</g>
<!-- Node4&#45;&gt;Node8 -->
<g id="edge7_Node000004_Node000008" class="edge">
<title>Node4&#45;&gt;Node8</title>
<g id="a_edge7_Node000004_Node000008"><a xlink:title=" ">
<path fill="none" stroke="#63b8ff" d="M514.43,-138.77C703.91,-110.15 756.86,-133.14 943,-103 952.4,-101.48 962.45,-99.32 971.76,-97.08"/>
<polygon fill="#63b8ff" stroke="#63b8ff" points="514.09,-135.28 504.74,-140.27 515.15,-142.2 514.09,-135.28"/>
</a>
</g>
</g>
<!-- Node4&#45;&gt;Node9 -->
<g id="edge8_Node000004_Node000009" class="edge">
<title>Node4&#45;&gt;Node9</title>
<g id="a_edge8_Node000004_Node000009"><a xlink:title=" ">
<path fill="none" stroke="#63b8ff" d="M514.36,-138.82C761.17,-103.68 829.12,-136.6 1073,-103 1083.8,-101.51 1095.38,-99.33 1106.09,-97.07"/>
<polygon fill="#63b8ff" stroke="#63b8ff" points="514.12,-135.32 504.73,-140.21 515.13,-142.24 514.12,-135.32"/>
</a>
</g>
</g>
<!-- Node12 -->
<g id="Node000012" class="node">
<title>Node12</title>
<g id="a_Node000012"><a xlink:href="motor__init_8c.html" target="_top" xlink:title=" ">
<polygon fill="white" stroke="#666666" points="118,-103 0,-103 0,-69.5 118,-69.5 118,-103"/>
<text xml:space="preserve" text-anchor="start" x="8" y="-89.5" font-family="Helvetica,sans-Serif" font-size="10.00">source/motion/motor</text>
<text xml:space="preserve" text-anchor="middle" x="59" y="-76.75" font-family="Helvetica,sans-Serif" font-size="10.00">/motor_init.c</text>
</a>
</g>
</g>
<!-- Node11&#45;&gt;Node12 -->
<g id="edge11_Node000011_Node000012" class="edge">
<title>Node11&#45;&gt;Node12</title>
<g id="a_edge11_Node000011_Node000012"><a xlink:title=" ">
<path fill="none" stroke="#63b8ff" d="M107.68,-131.06C97.5,-121.9 86.11,-111.65 76.91,-103.37"/>
<polygon fill="#63b8ff" stroke="#63b8ff" points="105.33,-133.65 115.1,-137.74 110.01,-128.45 105.33,-133.65"/>
</a>
</g>
</g>
<!-- Node13 -->
<g id="Node000013" class="node">
<title>Node13</title>
<g id="a_Node000013"><a xlink:href="motor__process_8c.html" target="_top" xlink:title=" ">
<polygon fill="white" stroke="#666666" points="526,-103 408,-103 408,-69.5 526,-69.5 526,-103"/>
<text xml:space="preserve" text-anchor="start" x="416" y="-89.5" font-family="Helvetica,sans-Serif" font-size="10.00">source/motion/motor</text>
<text xml:space="preserve" text-anchor="middle" x="467" y="-76.75" font-family="Helvetica,sans-Serif" font-size="10.00">/motor_process.c</text>
</a>
</g>
</g>
<!-- Node11&#45;&gt;Node13 -->
<g id="edge12_Node000011_Node000013" class="edge">
<title>Node11&#45;&gt;Node13</title>
<g id="a_edge12_Node000011_Node000013"><a xlink:title=" ">
<path fill="none" stroke="#63b8ff" d="M204.39,-141.69C257.87,-131.61 333.2,-117.04 399,-103 401.84,-102.39 404.75,-101.76 407.69,-101.12"/>
<polygon fill="#63b8ff" stroke="#63b8ff" points="203.99,-138.21 194.81,-143.5 205.28,-145.09 203.99,-138.21"/>
</a>
</g>
</g>
<!-- Node14&#45;&gt;Node5 -->
<g id="edge14_Node000014_Node000005" class="edge">
<title>Node14&#45;&gt;Node5</title>
<g id="a_edge14_Node000014_Node000005"><a xlink:title=" ">
<path fill="none" stroke="#63b8ff" d="M599.43,-223.55C492.75,-221.21 296.79,-211.55 240,-172.5 216.28,-156.19 204.12,-123.31 198.69,-103.49"/>
<polygon fill="#63b8ff" stroke="#63b8ff" points="599.15,-227.04 609.22,-223.75 599.29,-220.04 599.15,-227.04"/>
</a>
</g>
</g>
<!-- Node14&#45;&gt;Node11 -->
<g id="edge15_Node000014_Node000011" class="edge">
<title>Node14&#45;&gt;Node11</title>
<g id="a_edge15_Node000014_Node000011"><a xlink:title=" ">
<path fill="none" stroke="#63b8ff" d="M599.25,-218.58C508.17,-210.78 345.17,-195.07 207,-172.5 202.52,-171.77 197.9,-170.94 193.27,-170.06"/>
<polygon fill="#63b8ff" stroke="#63b8ff" points="598.77,-222.06 609.03,-219.41 599.36,-215.08 598.77,-222.06"/>
</a>
</g>
</g>
<!-- Node15 -->
<g id="Node000015" class="node">
<title>Node15</title>
<g id="a_Node000015"><a xlink:href="motor__motion_8h.html" target="_top" xlink:title=" ">
<polygon fill="white" stroke="#666666" points="775,-172.5 657,-172.5 657,-139 775,-139 775,-172.5"/>
<text xml:space="preserve" text-anchor="start" x="665" y="-159" font-family="Helvetica,sans-Serif" font-size="10.00">source/motion/motor</text>
<text xml:space="preserve" text-anchor="middle" x="716" y="-146.25" font-family="Helvetica,sans-Serif" font-size="10.00">/motor_motion.h</text>
</a>
</g>
</g>
<!-- Node14&#45;&gt;Node15 -->
<g id="edge16_Node000014_Node000015" class="edge">
<title>Node14&#45;&gt;Node15</title>
<g id="a_edge16_Node000014_Node000015"><a xlink:title=" ">
<path fill="none" stroke="#63b8ff" d="M687.34,-198.81C693.33,-190.02 699.86,-180.43 705.18,-172.63"/>
<polygon fill="#63b8ff" stroke="#63b8ff" points="684.49,-196.77 681.75,-207 690.28,-200.71 684.49,-196.77"/>
</a>
</g>
</g>
<!-- Node17 -->
<g id="Node000017" class="node">
<title>Node17</title>
<g id="a_Node000017"><a xlink:href="motor__process_8h.html" target="_top" xlink:title=" ">
<polygon fill="white" stroke="#666666" points="911,-172.5 793,-172.5 793,-139 911,-139 911,-172.5"/>
<text xml:space="preserve" text-anchor="start" x="801" y="-159" font-family="Helvetica,sans-Serif" font-size="10.00">source/motion/motor</text>
<text xml:space="preserve" text-anchor="middle" x="852" y="-146.25" font-family="Helvetica,sans-Serif" font-size="10.00">/motor_process.h</text>
</a>
</g>
</g>
<!-- Node14&#45;&gt;Node17 -->
<g id="edge21_Node000014_Node000017" class="edge">
<title>Node14&#45;&gt;Node17</title>
<g id="a_edge21_Node000014_Node000017"><a xlink:title=" ">
<path fill="none" stroke="#63b8ff" d="M724.38,-204.08C751.24,-194.12 783.22,-182.26 808.45,-172.9"/>
<polygon fill="#63b8ff" stroke="#63b8ff" points="723.17,-200.8 715.01,-207.56 725.61,-207.36 723.17,-200.8"/>
</a>
</g>
</g>
<!-- Node18 -->
<g id="Node000018" class="node">
<title>Node18</title>
<g id="a_Node000018"><a xlink:href="motor__sync_8h.html" target="_top" xlink:title=" ">
<polygon fill="white" stroke="#666666" points="367,-172.5 249,-172.5 249,-139 367,-139 367,-172.5"/>
<text xml:space="preserve" text-anchor="start" x="257" y="-159" font-family="Helvetica,sans-Serif" font-size="10.00">source/motion/motor</text>
<text xml:space="preserve" text-anchor="middle" x="308" y="-146.25" font-family="Helvetica,sans-Serif" font-size="10.00">/motor_sync.h</text>
</a>
</g>
</g>
<!-- Node14&#45;&gt;Node18 -->
<g id="edge24_Node000014_Node000018" class="edge">
<title>Node14&#45;&gt;Node18</title>
<g id="a_edge24_Node000014_Node000018"><a xlink:title=" ">
<path fill="none" stroke="#63b8ff" d="M599.52,-212.93C539.84,-203.08 452.1,-188 376,-172.5 373.15,-171.92 370.24,-171.31 367.3,-170.68"/>
<polygon fill="#63b8ff" stroke="#63b8ff" points="598.77,-216.35 609.2,-214.52 599.9,-209.45 598.77,-216.35"/>
</a>
</g>
</g>
<!-- Node19 -->
<g id="Node000019" class="node">
<title>Node19</title>
<g id="a_Node000019"><a xlink:href="motor__tmc_8h.html" target="_top" xlink:title=" ">
<polygon fill="white" stroke="#666666" points="639,-172.5 521,-172.5 521,-139 639,-139 639,-172.5"/>
<text xml:space="preserve" text-anchor="start" x="529" y="-159" font-family="Helvetica,sans-Serif" font-size="10.00">source/motion/motor</text>
<text xml:space="preserve" text-anchor="middle" x="580" y="-146.25" font-family="Helvetica,sans-Serif" font-size="10.00">/motor_tmc.h</text>
</a>
</g>
</g>
<!-- Node14&#45;&gt;Node19 -->
<g id="edge27_Node000014_Node000019" class="edge">
<title>Node14&#45;&gt;Node19</title>
<g id="a_edge27_Node000014_Node000019"><a xlink:title=" ">
<path fill="none" stroke="#63b8ff" d="M639.52,-201.39C627.03,-192.02 612.86,-181.4 601.49,-172.87"/>
<polygon fill="#63b8ff" stroke="#63b8ff" points="637.36,-204.15 647.46,-207.35 641.56,-198.55 637.36,-204.15"/>
</a>
</g>
</g>
<!-- Node20 -->
<g id="Node000020" class="node">
<title>Node20</title>
<g id="a_Node000020"><a xlink:href="motor__homing_8h.html" target="_top" xlink:title=" ">
<polygon fill="white" stroke="#666666" points="1212.75,-166.12 1081.25,-166.12 1081.25,-145.38 1212.75,-145.38 1212.75,-166.12"/>
<text xml:space="preserve" text-anchor="middle" x="1147" y="-152.62" font-family="Helvetica,sans-Serif" font-size="10.00">source/motor_homing.h</text>
</a>
</g>
</g>
<!-- Node14&#45;&gt;Node20 -->
<g id="edge30_Node000014_Node000020" class="edge">
<title>Node14&#45;&gt;Node20</title>
<g id="a_edge30_Node000014_Node000020"><a xlink:title=" ">
<path fill="none" stroke="#63b8ff" d="M740.57,-214.26C832.38,-201.27 991.58,-178.74 1081.05,-166.08"/>
<polygon fill="#63b8ff" stroke="#63b8ff" points="740.36,-210.76 730.95,-215.63 741.34,-217.69 740.36,-210.76"/>
</a>
</g>
</g>
<!-- Node15&#45;&gt;Node6 -->
<g id="edge18_Node000015_Node000006" class="edge">
<title>Node15&#45;&gt;Node6</title>
<g id="a_edge18_Node000015_Node000006"><a xlink:title=" ">
<path fill="none" stroke="#63b8ff" d="M679.28,-132.82C663.18,-123.2 644.62,-112.11 629.85,-103.29"/>
<polygon fill="#63b8ff" stroke="#63b8ff" points="677.25,-135.68 687.63,-137.81 680.84,-129.67 677.25,-135.68"/>
</a>
</g>
</g>
<!-- Node15&#45;&gt;Node10 -->
<g id="edge17_Node000015_Node000010" class="edge">
<title>Node15&#45;&gt;Node10</title>
<g id="a_edge17_Node000015_Node000010"><a xlink:title=" ">
<path fill="none" stroke="#63b8ff" d="M764.45,-134.18C787.72,-124.3 815.21,-112.63 836.95,-103.4"/>
<polygon fill="#63b8ff" stroke="#63b8ff" points="763.31,-130.86 755.48,-137.99 766.05,-137.3 763.31,-130.86"/>
</a>
</g>
</g>
<!-- Node15&#45;&gt;Node13 -->
<g id="edge19_Node000015_Node000013" class="edge">
<title>Node15&#45;&gt;Node13</title>
<g id="a_edge19_Node000015_Node000013"><a xlink:title=" ">
<path fill="none" stroke="#63b8ff" d="M645.78,-135.71C608.1,-125.5 562.17,-113.05 526.3,-103.33"/>
<polygon fill="#63b8ff" stroke="#63b8ff" points="644.65,-139.03 655.21,-138.27 646.48,-132.28 644.65,-139.03"/>
</a>
</g>
</g>
<!-- Node16 -->
<g id="Node000016" class="node">
<title>Node16</title>
<g id="a_Node000016"><a xlink:href="motor__tmc_8c.html" target="_top" xlink:title=" ">
<polygon fill="white" stroke="#666666" points="798,-103 680,-103 680,-69.5 798,-69.5 798,-103"/>
<text xml:space="preserve" text-anchor="start" x="688" y="-89.5" font-family="Helvetica,sans-Serif" font-size="10.00">source/motion/motor</text>
<text xml:space="preserve" text-anchor="middle" x="739" y="-76.75" font-family="Helvetica,sans-Serif" font-size="10.00">/motor_tmc.c</text>
</a>
</g>
</g>
<!-- Node15&#45;&gt;Node16 -->
<g id="edge20_Node000015_Node000016" class="edge">
<title>Node15&#45;&gt;Node16</title>
<g id="a_edge20_Node000015_Node000016"><a xlink:title=" ">
<path fill="none" stroke="#63b8ff" d="M725.15,-127.89C728.01,-119.5 731.07,-110.51 733.59,-103.13"/>
<polygon fill="#63b8ff" stroke="#63b8ff" points="721.85,-126.73 721.94,-137.32 728.48,-128.98 721.85,-126.73"/>
</a>
</g>
</g>
<!-- Node17&#45;&gt;Node10 -->
<g id="edge22_Node000017_Node000010" class="edge">
<title>Node17&#45;&gt;Node10</title>
<g id="a_edge22_Node000017_Node000010"><a xlink:title=" ">
<path fill="none" stroke="#63b8ff" d="M861.15,-127.89C864.01,-119.5 867.07,-110.51 869.59,-103.13"/>
<polygon fill="#63b8ff" stroke="#63b8ff" points="857.85,-126.73 857.94,-137.32 864.48,-128.98 857.85,-126.73"/>
</a>
</g>
</g>
<!-- Node17&#45;&gt;Node13 -->
<g id="edge23_Node000017_Node000013" class="edge">
<title>Node17&#45;&gt;Node13</title>
<g id="a_edge23_Node000017_Node000013"><a xlink:title=" ">
<path fill="none" stroke="#63b8ff" d="M781.53,-138.64C672.14,-118.68 641.36,-122.97 535,-103 532.14,-102.46 529.22,-101.89 526.28,-101.29"/>
<polygon fill="#63b8ff" stroke="#63b8ff" points="780.76,-142.05 791.24,-140.44 782.04,-135.17 780.76,-142.05"/>
</a>
</g>
</g>
<!-- Node18&#45;&gt;Node7 -->
<g id="edge26_Node000018_Node000007" class="edge">
<title>Node18&#45;&gt;Node7</title>
<g id="a_edge26_Node000018_Node000007"><a xlink:title=" ">
<path fill="none" stroke="#63b8ff" d="M317.15,-127.89C320.01,-119.5 323.07,-110.51 325.59,-103.13"/>
<polygon fill="#63b8ff" stroke="#63b8ff" points="313.85,-126.73 313.94,-137.32 320.48,-128.98 313.85,-126.73"/>
</a>
</g>
</g>
<!-- Node18&#45;&gt;Node13 -->
<g id="edge25_Node000018_Node000013" class="edge">
<title>Node18&#45;&gt;Node13</title>
<g id="a_edge25_Node000018_Node000013"><a xlink:title=" ">
<path fill="none" stroke="#63b8ff" d="M356.45,-134.18C379.72,-124.3 407.21,-112.63 428.95,-103.4"/>
<polygon fill="#63b8ff" stroke="#63b8ff" points="355.31,-130.86 347.48,-137.99 358.05,-137.3 355.31,-130.86"/>
</a>
</g>
</g>
<!-- Node19&#45;&gt;Node13 -->
<g id="edge28_Node000019_Node000013" class="edge">
<title>Node19&#45;&gt;Node13</title>
<g id="a_edge28_Node000019_Node000013"><a xlink:title=" ">
<path fill="none" stroke="#63b8ff" d="M543.28,-132.82C527.18,-123.2 508.62,-112.11 493.85,-103.29"/>
<polygon fill="#63b8ff" stroke="#63b8ff" points="541.25,-135.68 551.63,-137.81 544.84,-129.67 541.25,-135.68"/>
</a>
</g>
</g>
<!-- Node19&#45;&gt;Node16 -->
<g id="edge29_Node000019_Node000016" class="edge">
<title>Node19&#45;&gt;Node16</title>
<g id="a_edge29_Node000019_Node000016"><a xlink:title=" ">
<path fill="none" stroke="#63b8ff" d="M628.45,-134.18C651.72,-124.3 679.21,-112.63 700.95,-103.4"/>
<polygon fill="#63b8ff" stroke="#63b8ff" points="627.31,-130.86 619.48,-137.99 630.05,-137.3 627.31,-130.86"/>
</a>
</g>
</g>
<!-- Node20&#45;&gt;Node8 -->
<g id="edge31_Node000020_Node000008" class="edge">
<title>Node20&#45;&gt;Node8</title>
<g id="a_edge31_Node000020_Node000008"><a xlink:title=" ">
<path fill="none" stroke="#63b8ff" d="M1116.78,-140.08C1089.96,-127.05 1051.51,-108.38 1028.24,-97.08"/>
<polygon fill="#63b8ff" stroke="#63b8ff" points="1114.9,-143.05 1125.43,-144.27 1117.96,-136.76 1114.9,-143.05"/>
</a>
</g>
</g>
<!-- Node20&#45;&gt;Node9 -->
<g id="edge32_Node000020_Node000009" class="edge">
<title>Node20&#45;&gt;Node9</title>
<g id="a_edge32_Node000020_Node000009"><a xlink:title=" ">
<path fill="none" stroke="#63b8ff" d="M1147,-133.94C1147,-121.59 1147,-106.52 1147,-96.9"/>
<polygon fill="#63b8ff" stroke="#63b8ff" points="1143.5,-133.57 1147,-143.57 1150.5,-133.57 1143.5,-133.57"/>
</a>
</g>
</g>
<!-- Node20&#45;&gt;Node21 -->
<g id="edge33_Node000020_Node000021" class="edge">
<title>Node20&#45;&gt;Node21</title>
<g id="a_edge33_Node000020_Node000021"><a xlink:title=" ">
<path fill="none" stroke="#63b8ff" d="M1202.87,-142.67C1208.99,-141.4 1215.12,-140.16 1221,-139 1309.19,-121.64 1332.03,-121.44 1420,-103 1428.53,-101.21 1437.65,-99.14 1446.29,-97.1"/>
<polygon fill="#63b8ff" stroke="#63b8ff" points="1202.51,-139.17 1193.44,-144.64 1203.94,-146.02 1202.51,-139.17"/>
</a>
</g>
</g>
<!-- Node20&#45;&gt;Node22 -->
<g id="edge34_Node000020_Node000022" class="edge">
<title>Node20&#45;&gt;Node22</title>
<g id="a_edge34_Node000020_Node000022"><a xlink:title=" ">
<path fill="none" stroke="#63b8ff" d="M1170.13,-138.48C1199.97,-118.43 1254.22,-85.1 1306,-69.5 1470.98,-19.81 1520.65,-51.56 1692,-33.5 1711.8,-31.41 1733.23,-28.98 1753.01,-26.65"/>
<polygon fill="#63b8ff" stroke="#63b8ff" points="1168.16,-135.58 1161.88,-144.12 1172.11,-141.36 1168.16,-135.58"/>
</a>
</g>
</g>
<!-- Node23&#45;&gt;Node3 -->
<g id="edge37_Node000023_Node000003" class="edge">
<title>Node23&#45;&gt;Node3</title>
<g id="a_edge37_Node000023_Node000003"><a xlink:title=" ">
<path fill="none" stroke="#63b8ff" d="M1312.54,-137.34C1325.51,-124.47 1342.68,-107.42 1353.28,-96.9"/>
<polygon fill="#63b8ff" stroke="#63b8ff" points="1310.45,-134.48 1305.82,-144.01 1315.38,-139.45 1310.45,-134.48"/>
</a>
</g>
</g>
<!-- Node23&#45;&gt;Node9 -->
<g id="edge38_Node000023_Node000009" class="edge">
<title>Node23&#45;&gt;Node9</title>
<g id="a_edge38_Node000023_Node000009"><a xlink:title=" ">
<path fill="none" stroke="#63b8ff" d="M1263.21,-140.25C1234.63,-127.22 1193.44,-108.43 1168.55,-97.08"/>
<polygon fill="#63b8ff" stroke="#63b8ff" points="1261.55,-143.34 1272.1,-144.31 1264.46,-136.97 1261.55,-143.34"/>
</a>
</g>
</g>
<!-- Node23&#45;&gt;Node21 -->
<g id="edge39_Node000023_Node000021" class="edge">
<title>Node23&#45;&gt;Node21</title>
<g id="a_edge39_Node000023_Node000021"><a xlink:title=" ">
<path fill="none" stroke="#63b8ff" d="M1333.62,-141.1C1370.56,-128.05 1425.36,-108.68 1458.19,-97.08"/>
<polygon fill="#63b8ff" stroke="#63b8ff" points="1332.46,-137.8 1324.2,-144.43 1334.79,-144.4 1332.46,-137.8"/>
</a>
</g>
</g>
<!-- Node24 -->
<g id="Node000024" class="node">
<title>Node24</title>
<g id="a_Node000024"><a xlink:href="scara__kinematics__process_8c.html" target="_top" xlink:title=" ">
<polygon fill="white" stroke="#666666" points="1683.38,-33.5 1546.62,-33.5 1546.62,0 1683.38,0 1683.38,-33.5"/>
<text xml:space="preserve" text-anchor="start" x="1554.62" y="-20" font-family="Helvetica,sans-Serif" font-size="10.00">source/scara_kinematics</text>
<text xml:space="preserve" text-anchor="middle" x="1615" y="-7.25" font-family="Helvetica,sans-Serif" font-size="10.00">_process.c</text>
</a>
</g>
</g>
<!-- Node23&#45;&gt;Node24 -->
<g id="edge40_Node000023_Node000024" class="edge">
<title>Node23&#45;&gt;Node24</title>
<g id="a_edge40_Node000023_Node000024"><a xlink:title=" ">
<path fill="none" stroke="#63b8ff" d="M1291.36,-133.82C1289.29,-114.5 1289.78,-86.34 1306,-69.5 1338.31,-35.95 1465.66,-24.13 1546.45,-19.98"/>
<polygon fill="#63b8ff" stroke="#63b8ff" points="1287.87,-134.11 1292.73,-143.53 1294.8,-133.13 1287.87,-134.11"/>
</a>
</g>
</g>
<!-- Node25&#45;&gt;Node2 -->
<g id="edge45_Node000025_Node000002" class="edge">
<title>Node25&#45;&gt;Node2</title>
<g id="a_edge45_Node000025_Node000002"><a xlink:title=" ">
<path fill="none" stroke="#63b8ff" d="M1575.05,-207.61C1558.85,-194.75 1536.97,-177.37 1523.43,-166.62"/>
<polygon fill="#63b8ff" stroke="#63b8ff" points="1572.63,-210.16 1582.64,-213.64 1576.98,-204.68 1572.63,-210.16"/>
</a>
</g>
</g>
<!-- Node25&#45;&gt;Node8 -->
<g id="edge46_Node000025_Node000008" class="edge">
<title>Node25&#45;&gt;Node8</title>
<g id="a_edge46_Node000025_Node000008"><a xlink:title=" ">
<path fill="none" stroke="#63b8ff" d="M1511.74,-224.05C1383.16,-222.41 1145.17,-213.68 1072,-172.5 1040.87,-154.98 1020.3,-115.42 1012.06,-97.01"/>
<polygon fill="#63b8ff" stroke="#63b8ff" points="1511.52,-227.55 1521.56,-224.17 1511.61,-220.55 1511.52,-227.55"/>
</a>
</g>
</g>
<!-- Node25&#45;&gt;Node21 -->
<g id="edge47_Node000025_Node000021" class="edge">
<title>Node25&#45;&gt;Node21</title>
<g id="a_edge47_Node000025_Node000021"><a xlink:title=" ">
<path fill="none" stroke="#63b8ff" d="M1595.96,-203.22C1594.91,-184.66 1590.84,-157.73 1577,-139 1561.98,-118.68 1536.45,-105.17 1516.24,-97.07"/>
<polygon fill="#63b8ff" stroke="#63b8ff" points="1592.45,-203.11 1596.23,-213.01 1599.45,-202.92 1592.45,-203.11"/>
</a>
</g>
</g>
<!-- Node25&#45;&gt;Node22 -->
<g id="edge48_Node000025_Node000022" class="edge">
<title>Node25&#45;&gt;Node22</title>
<g id="a_edge48_Node000025_Node000022"><a xlink:title=" ">
<path fill="none" stroke="#63b8ff" d="M1679.13,-212.47C1729.83,-203.69 1788.36,-190.18 1807,-172.5 1848.05,-133.57 1834.74,-55.06 1828.46,-27.55"/>
<polygon fill="#63b8ff" stroke="#63b8ff" points="1678.56,-209.02 1669.28,-214.13 1679.72,-215.92 1678.56,-209.02"/>
</a>
</g>
</g>
<!-- Node25&#45;&gt;Node24 -->
<g id="edge55_Node000025_Node000024" class="edge">
<title>Node25&#45;&gt;Node24</title>
<g id="a_edge55_Node000025_Node000024"><a xlink:title=" ">
<path fill="none" stroke="#63b8ff" d="M1597.93,-203.24C1601.73,-161.92 1610.11,-70.89 1613.52,-33.88"/>
<polygon fill="#63b8ff" stroke="#63b8ff" points="1594.46,-202.78 1597.03,-213.06 1601.43,-203.42 1594.46,-202.78"/>
</a>
</g>
</g>
<!-- Node26 -->
<g id="Node000026" class="node">
<title>Node26</title>
<g id="a_Node000026"><a xlink:href="scara__kinematics__internal_8h.html" target="_top" xlink:title=" ">
<polygon fill="white" stroke="#666666" points="1798.38,-172.5 1661.62,-172.5 1661.62,-139 1798.38,-139 1798.38,-172.5"/>
<text xml:space="preserve" text-anchor="start" x="1669.62" y="-159" font-family="Helvetica,sans-Serif" font-size="10.00">source/scara_kinematics</text>
<text xml:space="preserve" text-anchor="middle" x="1730" y="-146.25" font-family="Helvetica,sans-Serif" font-size="10.00">_internal.h</text>
</a>
</g>
</g>
<!-- Node25&#45;&gt;Node26 -->
<g id="edge49_Node000025_Node000026" class="edge">
<title>Node25&#45;&gt;Node26</title>
<g id="a_edge49_Node000025_Node000026"><a xlink:title=" ">
<path fill="none" stroke="#63b8ff" d="M1625.61,-209.33C1646.99,-198.57 1675.83,-184.04 1697.78,-172.98"/>
<polygon fill="#63b8ff" stroke="#63b8ff" points="1624.19,-206.13 1616.84,-213.75 1627.34,-212.38 1624.19,-206.13"/>
</a>
</g>
</g>
<!-- Node26&#45;&gt;Node22 -->
<g id="edge50_Node000026_Node000022" class="edge">
<title>Node26&#45;&gt;Node22</title>
<g id="a_edge50_Node000026_Node000022"><a xlink:title=" ">
<path fill="none" stroke="#63b8ff" d="M1774.85,-132.78C1786.89,-124.91 1798.83,-114.96 1807,-103 1823.08,-79.46 1825.79,-44.52 1826.09,-27.62"/>
<polygon fill="#63b8ff" stroke="#63b8ff" points="1773.24,-129.66 1766.53,-137.85 1776.89,-135.64 1773.24,-129.66"/>
</a>
</g>
</g>
<!-- Node26&#45;&gt;Node24 -->
<g id="edge51_Node000026_Node000024" class="edge">
<title>Node26&#45;&gt;Node24</title>
<g id="a_edge51_Node000026_Node000024"><a xlink:title=" ">
<path fill="none" stroke="#63b8ff" d="M1687.87,-132.5C1675.47,-124.45 1662.65,-114.48 1653,-103 1635.58,-82.29 1624.72,-52.32 1619.27,-33.99"/>
<polygon fill="#63b8ff" stroke="#63b8ff" points="1686.02,-135.47 1696.37,-137.74 1689.69,-129.51 1686.02,-135.47"/>
</a>
</g>
</g>
<!-- Node27 -->
<g id="Node000027" class="node">
<title>Node27</title>
<g id="a_Node000027"><a xlink:href="scara__kinematics__process_8h.html" target="_top" xlink:title=" ">
<polygon fill="white" stroke="#666666" points="1798.38,-103 1661.62,-103 1661.62,-69.5 1798.38,-69.5 1798.38,-103"/>
<text xml:space="preserve" text-anchor="start" x="1669.62" y="-89.5" font-family="Helvetica,sans-Serif" font-size="10.00">source/scara_kinematics</text>
<text xml:space="preserve" text-anchor="middle" x="1730" y="-76.75" font-family="Helvetica,sans-Serif" font-size="10.00">_process.h</text>
</a>
</g>
</g>
<!-- Node26&#45;&gt;Node27 -->
<g id="edge52_Node000026_Node000027" class="edge">
<title>Node26&#45;&gt;Node27</title>
<g id="a_edge52_Node000026_Node000027"><a xlink:title=" ">
<path fill="none" stroke="#63b8ff" d="M1730,-127.31C1730,-119.09 1730,-110.34 1730,-103.13"/>
<polygon fill="#63b8ff" stroke="#63b8ff" points="1726.5,-127.24 1730,-137.24 1733.5,-127.24 1726.5,-127.24"/>
</a>
</g>
</g>
<!-- Node27&#45;&gt;Node22 -->
<g id="edge53_Node000027_Node000022" class="edge">
<title>Node27&#45;&gt;Node22</title>
<g id="a_edge53_Node000027_Node000022"><a xlink:title=" ">
<path fill="none" stroke="#63b8ff" d="M1761.82,-62.87C1778.84,-50.91 1798.92,-36.79 1812.03,-27.57"/>
<polygon fill="#63b8ff" stroke="#63b8ff" points="1760.16,-59.77 1753.99,-68.38 1764.18,-65.49 1760.16,-59.77"/>
</a>
</g>
</g>
<!-- Node27&#45;&gt;Node24 -->
<g id="edge54_Node000027_Node000024" class="edge">
<title>Node27&#45;&gt;Node24</title>
<g id="a_edge54_Node000027_Node000024"><a xlink:title=" ">
<path fill="none" stroke="#63b8ff" d="M1692.63,-63.32C1676.24,-53.7 1657.36,-42.61 1642.32,-33.79"/>
<polygon fill="#63b8ff" stroke="#63b8ff" points="1690.75,-66.27 1701.15,-68.32 1694.3,-60.24 1690.75,-66.27"/>
</a>
</g>
</g>
</g>
</svg>

<g id="navigator" transform="translate(0 0)" fill="#404254">
  <rect fill="#f2f5e9" fill-opacity="0.5" stroke="#606060" stroke-width=".5" x="0" y="0" width="60" height="60"/>
  <use id="zoomplus" xlink:href="#zoomPlus" x="17" y="9" onmousedown="handleZoom(evt,'in')"/>
  <use id="zoomminus" xlink:href="#zoomMin" x="42" y="9" onmousedown="handleZoom(evt,'out')"/>
  <use id="reset" xlink:href="#resetDef" x="30" y="36" onmousedown="handleReset()"/>
   <use id="arrowup" xlink:href="#arrowUp" x="0" y="0" onmousedown="handlePan(0,-1)"/>
  <use id="arrowright" xlink:href="#arrowRight" x="0" y="0" onmousedown="handlePan(1,0)"/>
  <use id="arrowdown" xlink:href="#arrowDown" x="0" y="0" onmousedown="handlePan(0,1)"/>
  <use id="arrowleft" xlink:href="#arrowLeft" x="0" y="0" onmousedown="handlePan(-1,0)"/>
</g>
<svg viewBox="0 0 15 15" width="100%" height="30px" preserveAspectRatio="xMaxYMin meet">
 <g id="arrow_out" transform="scale(0.3 0.3)">
  <a xlink:href="motor__core_8h__dep__incl_org.svg" target="_base">
   <rect id="button" ry="5" rx="5" y="6" x="6" height="38" width="38"
        fill="#f2f5e9" fill-opacity="0.5" stroke="#606060" stroke-width="1.0"/>
   <path id="arrow"
     d="M 11.500037,31.436501 C 11.940474,20.09759 22.043105,11.32322 32.158766,21.979434 L 37.068811,17.246167 C 37.068811,17.246167 37.088388,32 37.088388,32 L 22.160133,31.978069 C 22.160133,31.978069 26.997745,27.140456 26.997745,27.140456 C 18.528582,18.264221 13.291696,25.230495 11.500037,31.436501 z"
     style="fill:#404040;"/>
  </a>
 </g>
</svg>

<style type='text/css'>
<![CDATA[
[data-mouse-over-selected='false'] { opacity: 0.7; }
[data-mouse-over-selected='true']  { opacity: 1.0; }
]]>
</style>
<script type="application/ecmascript"><![CDATA[
document.addEventListener('DOMContentLoaded', (event) => {
  highlightEdges();
  highlightAdjacentNodes();
});
]]></script>
</svg>
