<?xml version="1.0" encoding="UTF-8" standalone="no"?>
<!DOCTYPE svg PUBLIC "-//W3C//DTD SVG 1.1//EN"
 "http://www.w3.org/Graphics/SVG/1.1/DTD/svg11.dtd">
<!-- Generated by graphviz version 14.1.4 (0)
 -->
<!-- Title: source/motion/motor/motor_init.h Pages: 1 -->
<svg width="1194pt" height="382pt"
 viewBox="0.00 0.00 1194.00 382.00" xmlns="http://www.w3.org/2000/svg" xmlns:xlink="http://www.w3.org/1999/xlink">
<g id="graph0" class="graph" transform="scale(1 1) rotate(0) translate(4 378)">
<title>source/motion/motor/motor_init.h</title>
<!-- Node1 -->
<g id="Node000001" class="node">
<title>Node1</title>
<g id="a_Node000001"><a xlink:title=" ">
<polygon fill="#999999" stroke="#666666" points="653,-374 535,-374 535,-340.5 653,-340.5 653,-374"/>
<text xml:space="preserve" text-anchor="start" x="543" y="-360.5" font-family="Helvetica,sans-Serif" font-size="10.00">source/motion/motor</text>
<text xml:space="preserve" text-anchor="middle" x="594" y="-347.75" font-family="Helvetica,sans-Serif" font-size="10.00">/motor_init.h</text>
</a>
</g>
</g>
<!-- Node2 -->
<g id="Node000002" class="node">
<title>Node2</title>
<g id="a_Node000002"><a xlink:href="motor_8h.html" target="_top" xlink:title=" ">
<polygon fill="white" stroke="#666666" points="694.75,-247.75 641.25,-247.75 641.25,-227 694.75,-227 694.75,-247.75"/>
<text xml:space="preserve" text-anchor="middle" x="668" y="-234.25" font-family="Helvetica,sans-Serif" font-size="10.00">motor.h</text>
</a>
</g>
</g>
<!-- Node1&#45;&gt;Node2 -->
<g id="edge1_Node000001_Node000002" class="edge">
<title>Node1&#45;&gt;Node2</title>
<g id="a_edge1_Node000001_Node000002"><a xlink:title=" ">
<path fill="none" stroke="#63b8ff" d="M603.98,-340.35C617.4,-318.98 641.24,-281 655.74,-257.91"/>
<polygon fill="#63b8ff" stroke="#63b8ff" points="658.69,-259.8 661.04,-249.46 652.76,-256.07 658.69,-259.8"/>
</a>
</g>
</g>
<!-- Node21 -->
<g id="Node000021" class="node">
<title>Node21</title>
<g id="a_Node000021"><a xlink:href="motor__internal_8h.html" target="_top" xlink:title=" ">
<polygon fill="white" stroke="#666666" points="604.5,-304.5 507.5,-304.5 507.5,-283.75 604.5,-283.75 604.5,-304.5"/>
<text xml:space="preserve" text-anchor="middle" x="556" y="-291" font-family="Helvetica,sans-Serif" font-size="10.00">motor_internal.h</text>
</a>
</g>
</g>
<!-- Node1&#45;&gt;Node21 -->
<g id="edge35_Node000001_Node000021" class="edge">
<title>Node1&#45;&gt;Node21</title>
<g id="a_edge35_Node000001_Node000021"><a xlink:title=" ">
<path fill="none" stroke="#63b8ff" d="M584.02,-340.19C579.13,-332.33 573.21,-322.81 568.07,-314.54"/>
<polygon fill="#63b8ff" stroke="#63b8ff" points="571.17,-312.9 562.92,-306.25 565.22,-316.59 571.17,-312.9"/>
</a>
</g>
</g>
<!-- Node3 -->
<g id="Node000003" class="node">
<title>Node3</title>
<g id="a_Node000003"><a xlink:href="pca9555a_8h.html" target="_top" xlink:title=" ">
<polygon fill="white" stroke="#666666" points="1186,-77.5 1032,-77.5 1032,-56.75 1186,-56.75 1186,-77.5"/>
<text xml:space="preserve" text-anchor="middle" x="1109" y="-64" font-family="Helvetica,sans-Serif" font-size="10.00">driver/pca9555a/pca9555a.h</text>
</a>
</g>
</g>
<!-- Node2&#45;&gt;Node3 -->
<g id="edge2_Node000002_Node000003" class="edge">
<title>Node2&#45;&gt;Node3</title>
<g id="a_edge2_Node000002_Node000003"><a xlink:title=" ">
<path fill="none" stroke="#63b8ff" d="M695.18,-233.61C737.95,-228.66 823.07,-216.34 891,-191 966.85,-162.71 1047.79,-110.5 1086.21,-84.18"/>
<polygon fill="#63b8ff" stroke="#63b8ff" points="1087.99,-87.21 1094.22,-78.64 1084,-81.45 1087.99,-87.21"/>
</a>
</g>
</g>
<!-- Node6 -->
<g id="Node000006" class="node">
<title>Node6</title>
<g id="a_Node000006"><a xlink:href="step__core_8h.html" target="_top" xlink:title=" ">
<polygon fill="white" stroke="#666666" points="747.12,-191 674.88,-191 674.88,-170.25 747.12,-170.25 747.12,-191"/>
<text xml:space="preserve" text-anchor="middle" x="711" y="-177.5" font-family="Helvetica,sans-Serif" font-size="10.00">step_core.h</text>
</a>
</g>
</g>
<!-- Node2&#45;&gt;Node6 -->
<g id="edge5_Node000002_Node000006" class="edge">
<title>Node2&#45;&gt;Node6</title>
<g id="a_edge5_Node000002_Node000006"><a xlink:title=" ">
<path fill="none" stroke="#63b8ff" d="M675.69,-226.59C681.44,-219.27 689.47,-209.04 696.42,-200.19"/>
<polygon fill="#63b8ff" stroke="#63b8ff" points="699.02,-202.55 702.44,-192.52 693.51,-198.22 699.02,-202.55"/>
</a>
</g>
</g>
<!-- Node9 -->
<g id="Node000009" class="node">
<title>Node9</title>
<g id="a_Node000009"><a xlink:title=" ">
<polygon fill="#e0e0e0" stroke="#999999" points="674.38,-77.5 615.62,-77.5 615.62,-56.75 674.38,-56.75 674.38,-77.5"/>
<text xml:space="preserve" text-anchor="middle" x="645" y="-64" font-family="Helvetica,sans-Serif" font-size="10.00">fsl_ftm.h</text>
</a>
</g>
</g>
<!-- Node2&#45;&gt;Node9 -->
<g id="edge32_Node000002_Node000009" class="edge">
<title>Node2&#45;&gt;Node9</title>
<g id="a_edge32_Node000002_Node000009"><a xlink:title=" ">
<path fill="none" stroke="#63b8ff" d="M666.7,-226.85C663.09,-200.48 652.92,-126.08 647.89,-89.28"/>
<polygon fill="#63b8ff" stroke="#63b8ff" points="651.37,-88.9 646.55,-79.47 644.44,-89.85 651.37,-88.9"/>
</a>
</g>
</g>
<!-- Node10 -->
<g id="Node000010" class="node">
<title>Node10</title>
<g id="a_Node000010"><a xlink:title=" ">
<polygon fill="#e0e0e0" stroke="#999999" points="933.62,-77.5 870.38,-77.5 870.38,-56.75 933.62,-56.75 933.62,-77.5"/>
<text xml:space="preserve" text-anchor="middle" x="902" y="-64" font-family="Helvetica,sans-Serif" font-size="10.00">fsl_gpio.h</text>
</a>
</g>
</g>
<!-- Node2&#45;&gt;Node10 -->
<g id="edge33_Node000002_Node000010" class="edge">
<title>Node2&#45;&gt;Node10</title>
<g id="a_edge33_Node000002_Node000010"><a xlink:title=" ">
<path fill="none" stroke="#63b8ff" d="M695.18,-233.45C745.3,-226.44 851.47,-203.74 899,-134.25 908.03,-121.05 908.13,-102.65 906.34,-88.61"/>
<polygon fill="#63b8ff" stroke="#63b8ff" points="909.85,-88.39 904.71,-79.13 902.95,-89.57 909.85,-88.39"/>
</a>
</g>
</g>
<!-- Node11 -->
<g id="Node000011" class="node">
<title>Node11</title>
<g id="a_Node000011"><a xlink:title=" ">
<polygon fill="#e0e0e0" stroke="#999999" points="1013.88,-77.5 952.12,-77.5 952.12,-56.75 1013.88,-56.75 1013.88,-77.5"/>
<text xml:space="preserve" text-anchor="middle" x="983" y="-64" font-family="Helvetica,sans-Serif" font-size="10.00">fsl_port.h</text>
</a>
</g>
</g>
<!-- Node2&#45;&gt;Node11 -->
<g id="edge34_Node000002_Node000011" class="edge">
<title>Node2&#45;&gt;Node11</title>
<g id="a_edge34_Node000002_Node000011"><a xlink:title=" ">
<path fill="none" stroke="#63b8ff" d="M695.11,-234.78C734.26,-231.47 807.86,-221.39 862,-191 909,-164.62 949.73,-114.59 969.77,-87.21"/>
<polygon fill="#63b8ff" stroke="#63b8ff" points="972.56,-89.32 975.52,-79.15 966.86,-85.25 972.56,-89.32"/>
</a>
</g>
</g>
<!-- Node18 -->
<g id="Node000018" class="node">
<title>Node18</title>
<g id="a_Node000018"><a xlink:href="tmc2209__core_8h.html" target="_top" xlink:title=" ">
<polygon fill="white" stroke="#666666" points="420,-191 326,-191 326,-170.25 420,-170.25 420,-191"/>
<text xml:space="preserve" text-anchor="middle" x="373" y="-177.5" font-family="Helvetica,sans-Serif" font-size="10.00">tmc2209_core.h</text>
</a>
</g>
</g>
<!-- Node2&#45;&gt;Node18 -->
<g id="edge26_Node000002_Node000018" class="edge">
<title>Node2&#45;&gt;Node18</title>
<g id="a_edge26_Node000002_Node000018"><a xlink:title=" ">
<path fill="none" stroke="#63b8ff" d="M640.78,-231.32C593.41,-222.53 494.85,-204.24 431.42,-192.47"/>
<polygon fill="#63b8ff" stroke="#63b8ff" points="432.36,-189.08 421.88,-190.7 431.08,-195.96 432.36,-189.08"/>
</a>
</g>
</g>
<!-- Node4 -->
<g id="Node000004" class="node">
<title>Node4</title>
<g id="a_Node000004"><a xlink:title=" ">
<polygon fill="#e0e0e0" stroke="#999999" points="630.5,-20.75 545.5,-20.75 545.5,0 630.5,0 630.5,-20.75"/>
<text xml:space="preserve" text-anchor="middle" x="588" y="-7.25" font-family="Helvetica,sans-Serif" font-size="10.00">fsl_common.h</text>
</a>
</g>
</g>
<!-- Node3&#45;&gt;Node4 -->
<g id="edge3_Node000003_Node000004" class="edge">
<title>Node3&#45;&gt;Node4</title>
<g id="a_edge3_Node000003_Node000004"><a xlink:title=" ">
<path fill="none" stroke="#63b8ff" d="M1031.65,-57.68C1028.73,-57.36 1025.84,-57.05 1023,-56.75 885.95,-42.13 724.55,-25.43 642.24,-16.95"/>
<polygon fill="#63b8ff" stroke="#63b8ff" points="642.73,-13.48 632.42,-15.94 642.01,-20.45 642.73,-13.48"/>
</a>
</g>
</g>
<!-- Node5 -->
<g id="Node000005" class="node">
<title>Node5</title>
<g id="a_Node000005"><a xlink:title=" ">
<polygon fill="#e0e0e0" stroke="#999999" points="937.88,-20.75 858.12,-20.75 858.12,0 937.88,0 937.88,-20.75"/>
<text xml:space="preserve" text-anchor="middle" x="898" y="-7.25" font-family="Helvetica,sans-Serif" font-size="10.00">peripherals.h</text>
</a>
</g>
</g>
<!-- Node3&#45;&gt;Node5 -->
<g id="edge4_Node000003_Node000005" class="edge">
<title>Node3&#45;&gt;Node5</title>
<g id="a_edge4_Node000003_Node000005"><a xlink:title=" ">
<path fill="none" stroke="#63b8ff" d="M1071.28,-56.34C1036.43,-47.29 984.47,-33.81 946.54,-23.97"/>
<polygon fill="#63b8ff" stroke="#63b8ff" points="947.77,-20.67 937.22,-21.55 946.02,-27.45 947.77,-20.67"/>
</a>
</g>
</g>
<!-- Node6&#45;&gt;Node3 -->
<g id="edge6_Node000006_Node000003" class="edge">
<title>Node6&#45;&gt;Node3</title>
<g id="a_edge6_Node000006_Node000003"><a xlink:title=" ">
<path fill="none" stroke="#63b8ff" d="M747.27,-173.76C790.86,-166.32 866,-152.27 929,-134.25 981.07,-119.35 1039.64,-96.69 1075.43,-82.14"/>
<polygon fill="#63b8ff" stroke="#63b8ff" points="1076.45,-85.51 1084.38,-78.48 1073.8,-79.03 1076.45,-85.51"/>
</a>
</g>
</g>
<!-- Node6&#45;&gt;Node4 -->
<g id="edge9_Node000006_Node000004" class="edge">
<title>Node6&#45;&gt;Node4</title>
<g id="a_edge9_Node000006_Node000004"><a xlink:title=" ">
<path fill="none" stroke="#63b8ff" d="M697.33,-169.96C675.07,-153.53 631.08,-117.94 607,-77.5 598.67,-63.51 593.83,-45.68 591.11,-32.06"/>
<polygon fill="#63b8ff" stroke="#63b8ff" points="594.61,-31.71 589.45,-22.45 587.71,-32.91 594.61,-31.71"/>
</a>
</g>
</g>
<!-- Node7 -->
<g id="Node000007" class="node">
<title>Node7</title>
<g id="a_Node000007"><a xlink:title=" ">
<polygon fill="#e0e0e0" stroke="#999999" points="521.75,-77.5 450.25,-77.5 450.25,-56.75 521.75,-56.75 521.75,-77.5"/>
<text xml:space="preserve" text-anchor="middle" x="486" y="-64" font-family="Helvetica,sans-Serif" font-size="10.00">FreeRTOS.h</text>
</a>
</g>
</g>
<!-- Node6&#45;&gt;Node7 -->
<g id="edge7_Node000006_Node000007" class="edge">
<title>Node6&#45;&gt;Node7</title>
<g id="a_edge7_Node000006_Node000007"><a xlink:title=" ">
<path fill="none" stroke="#63b8ff" d="M691.43,-169.93C651.95,-150.36 562.57,-106.07 515.8,-82.89"/>
<polygon fill="#63b8ff" stroke="#63b8ff" points="517.56,-79.86 507.04,-78.55 514.45,-86.13 517.56,-79.86"/>
</a>
</g>
</g>
<!-- Node8 -->
<g id="Node000008" class="node">
<title>Node8</title>
<g id="a_Node000008"><a xlink:title=" ">
<polygon fill="#e0e0e0" stroke="#999999" points="890,-134.25 844,-134.25 844,-113.5 890,-113.5 890,-134.25"/>
<text xml:space="preserve" text-anchor="middle" x="867" y="-120.75" font-family="Helvetica,sans-Serif" font-size="10.00">task.h</text>
</a>
</g>
</g>
<!-- Node6&#45;&gt;Node8 -->
<g id="edge8_Node000006_Node000008" class="edge">
<title>Node6&#45;&gt;Node8</title>
<g id="a_edge8_Node000006_Node000008"><a xlink:title=" ">
<path fill="none" stroke="#63b8ff" d="M738.89,-169.84C765.35,-160.55 805.15,-146.58 833.36,-136.68"/>
<polygon fill="#63b8ff" stroke="#63b8ff" points="834.22,-140.09 842.49,-133.48 831.9,-133.49 834.22,-140.09"/>
</a>
</g>
</g>
<!-- Node6&#45;&gt;Node9 -->
<g id="edge10_Node000006_Node000009" class="edge">
<title>Node6&#45;&gt;Node9</title>
<g id="a_edge10_Node000006_Node000009"><a xlink:title=" ">
<path fill="none" stroke="#63b8ff" d="M705.37,-170.12C694.61,-151.94 670.93,-111.92 656.63,-87.77"/>
<polygon fill="#63b8ff" stroke="#63b8ff" points="659.68,-86.05 651.57,-79.23 653.65,-89.62 659.68,-86.05"/>
</a>
</g>
</g>
<!-- Node6&#45;&gt;Node10 -->
<g id="edge11_Node000006_Node000010" class="edge">
<title>Node6&#45;&gt;Node10</title>
<g id="a_edge11_Node000006_Node000010"><a xlink:title=" ">
<path fill="none" stroke="#63b8ff" d="M730.7,-169.77C748.28,-160.85 774.63,-147.17 797,-134.25 825.22,-117.95 856.74,-97.83 877.82,-84.09"/>
<polygon fill="#63b8ff" stroke="#63b8ff" points="879.55,-87.14 886,-78.74 875.72,-81.29 879.55,-87.14"/>
</a>
</g>
</g>
<!-- Node6&#45;&gt;Node11 -->
<g id="edge12_Node000006_Node000011" class="edge">
<title>Node6&#45;&gt;Node11</title>
<g id="a_edge12_Node000006_Node000011"><a xlink:title=" ">
<path fill="none" stroke="#63b8ff" d="M747.55,-175.52C786.62,-170.08 849.61,-158.22 899,-134.25 924.64,-121.81 949.75,-100.5 965.73,-85.44"/>
<polygon fill="#63b8ff" stroke="#63b8ff" points="967.78,-88.33 972.53,-78.86 962.91,-83.3 967.78,-88.33"/>
</a>
</g>
</g>
<!-- Node12 -->
<g id="Node000012" class="node">
<title>Node12</title>
<g id="a_Node000012"><a xlink:href="cmd__handle_8h.html" target="_top" xlink:title=" ">
<polygon fill="white" stroke="#666666" points="431.12,-134.25 346.88,-134.25 346.88,-113.5 431.12,-113.5 431.12,-134.25"/>
<text xml:space="preserve" text-anchor="middle" x="389" y="-120.75" font-family="Helvetica,sans-Serif" font-size="10.00">cmd_handle.h</text>
</a>
</g>
</g>
<!-- Node6&#45;&gt;Node12 -->
<g id="edge13_Node000006_Node000012" class="edge">
<title>Node6&#45;&gt;Node12</title>
<g id="a_edge13_Node000006_Node000012"><a xlink:title=" ">
<path fill="none" stroke="#63b8ff" d="M674.38,-173.4C617.7,-163.76 508.43,-145.18 442.78,-134.02"/>
<polygon fill="#63b8ff" stroke="#63b8ff" points="443.38,-130.57 432.94,-132.35 442.21,-137.47 443.38,-130.57"/>
</a>
</g>
</g>
<!-- Node16 -->
<g id="Node000016" class="node">
<title>Node16</title>
<g id="a_Node000016"><a xlink:href="step__shared_8h.html" target="_top" xlink:title=" ">
<polygon fill="white" stroke="#666666" points="788.12,-134.25 703.88,-134.25 703.88,-113.5 788.12,-113.5 788.12,-134.25"/>
<text xml:space="preserve" text-anchor="middle" x="746" y="-120.75" font-family="Helvetica,sans-Serif" font-size="10.00">step_shared.h</text>
</a>
</g>
</g>
<!-- Node6&#45;&gt;Node16 -->
<g id="edge19_Node000006_Node000016" class="edge">
<title>Node6&#45;&gt;Node16</title>
<g id="a_edge19_Node000006_Node000016"><a xlink:title=" ">
<path fill="none" stroke="#63b8ff" d="M717.26,-169.84C721.84,-162.67 728.2,-152.73 733.77,-144.01"/>
<polygon fill="#63b8ff" stroke="#63b8ff" points="736.54,-146.16 738.98,-135.85 730.65,-142.39 736.54,-146.16"/>
</a>
</g>
</g>
<!-- Node12&#45;&gt;Node4 -->
<g id="edge17_Node000012_Node000004" class="edge">
<title>Node12&#45;&gt;Node4</title>
<g id="a_edge17_Node000012_Node000004"><a xlink:title=" ">
<path fill="none" stroke="#63b8ff" d="M346.6,-122.18C275.74,-119.61 145.28,-108 191,-56.75 213.43,-31.61 430.43,-18.5 533.78,-13.63"/>
<polygon fill="#63b8ff" stroke="#63b8ff" points="533.87,-17.13 543.7,-13.18 533.55,-10.14 533.87,-17.13"/>
</a>
</g>
</g>
<!-- Node12&#45;&gt;Node7 -->
<g id="edge15_Node000012_Node000007" class="edge">
<title>Node12&#45;&gt;Node7</title>
<g id="a_edge15_Node000012_Node000007"><a xlink:title=" ">
<path fill="none" stroke="#63b8ff" d="M406.34,-113.09C420.96,-104.83 442.14,-92.88 458.98,-83.38"/>
<polygon fill="#63b8ff" stroke="#63b8ff" points="460.5,-86.54 467.49,-78.57 457.06,-80.44 460.5,-86.54"/>
</a>
</g>
</g>
<!-- Node13 -->
<g id="Node000013" class="node">
<title>Node13</title>
<g id="a_Node000013"><a xlink:title=" ">
<polygon fill="#e0e0e0" stroke="#999999" points="432.38,-77.5 379.62,-77.5 379.62,-56.75 432.38,-56.75 432.38,-77.5"/>
<text xml:space="preserve" text-anchor="middle" x="406" y="-64" font-family="Helvetica,sans-Serif" font-size="10.00">stdint.h</text>
</a>
</g>
</g>
<!-- Node12&#45;&gt;Node13 -->
<g id="edge14_Node000012_Node000013" class="edge">
<title>Node12&#45;&gt;Node13</title>
<g id="a_edge14_Node000012_Node000013"><a xlink:title=" ">
<path fill="none" stroke="#63b8ff" d="M392.04,-113.09C394.14,-106.31 397.02,-97.05 399.61,-88.69"/>
<polygon fill="#63b8ff" stroke="#63b8ff" points="402.92,-89.86 402.54,-79.27 396.23,-87.79 402.92,-89.86"/>
</a>
</g>
</g>
<!-- Node14 -->
<g id="Node000014" class="node">
<title>Node14</title>
<g id="a_Node000014"><a xlink:title=" ">
<polygon fill="#e0e0e0" stroke="#999999" points="291.5,-77.5 200.5,-77.5 200.5,-56.75 291.5,-56.75 291.5,-77.5"/>
<text xml:space="preserve" text-anchor="middle" x="246" y="-64" font-family="Helvetica,sans-Serif" font-size="10.00">event_groups.h</text>
</a>
</g>
</g>
<!-- Node12&#45;&gt;Node14 -->
<g id="edge16_Node000012_Node000014" class="edge">
<title>Node12&#45;&gt;Node14</title>
<g id="a_edge16_Node000012_Node000014"><a xlink:title=" ">
<path fill="none" stroke="#63b8ff" d="M363.43,-113.09C340.76,-104.41 307.4,-91.63 282.02,-81.92"/>
<polygon fill="#63b8ff" stroke="#63b8ff" points="283.35,-78.68 272.76,-78.37 280.85,-85.21 283.35,-78.68"/>
</a>
</g>
</g>
<!-- Node15 -->
<g id="Node000015" class="node">
<title>Node15</title>
<g id="a_Node000015"><a xlink:title=" ">
<polygon fill="#e0e0e0" stroke="#999999" points="362,-77.5 310,-77.5 310,-56.75 362,-56.75 362,-77.5"/>
<text xml:space="preserve" text-anchor="middle" x="336" y="-64" font-family="Helvetica,sans-Serif" font-size="10.00">stdlib.h</text>
</a>
</g>
</g>
<!-- Node12&#45;&gt;Node15 -->
<g id="edge18_Node000012_Node000015" class="edge">
<title>Node12&#45;&gt;Node15</title>
<g id="a_edge18_Node000012_Node000015"><a xlink:title=" ">
<path fill="none" stroke="#63b8ff" d="M379.52,-113.09C372.21,-105.53 361.91,-94.89 353.16,-85.85"/>
<polygon fill="#63b8ff" stroke="#63b8ff" points="355.92,-83.67 346.45,-78.92 350.89,-88.54 355.92,-83.67"/>
</a>
</g>
</g>
<!-- Node16&#45;&gt;Node3 -->
<g id="edge20_Node000016_Node000003" class="edge">
<title>Node16&#45;&gt;Node3</title>
<g id="a_edge20_Node000016_Node000003"><a xlink:title=" ">
<path fill="none" stroke="#63b8ff" d="M788.35,-116.49C848.12,-107.47 958.21,-90.87 1032.51,-79.66"/>
<polygon fill="#63b8ff" stroke="#63b8ff" points="1032.79,-83.16 1042.16,-78.21 1031.75,-76.24 1032.79,-83.16"/>
</a>
</g>
</g>
<!-- Node16&#45;&gt;Node4 -->
<g id="edge22_Node000016_Node000004" class="edge">
<title>Node16&#45;&gt;Node4</title>
<g id="a_edge22_Node000016_Node000004"><a xlink:title=" ">
<path fill="none" stroke="#63b8ff" d="M738.75,-113.28C727.86,-99.39 706.1,-73.51 683,-56.75 665.4,-43.98 643.64,-33.28 625.38,-25.48"/>
<polygon fill="#63b8ff" stroke="#63b8ff" points="626.8,-22.28 616.22,-21.7 624.13,-28.75 626.8,-22.28"/>
</a>
</g>
</g>
<!-- Node16&#45;&gt;Node9 -->
<g id="edge23_Node000016_Node000009" class="edge">
<title>Node16&#45;&gt;Node9</title>
<g id="a_edge23_Node000016_Node000009"><a xlink:title=" ">
<path fill="none" stroke="#63b8ff" d="M727.94,-113.09C712.58,-104.76 690.26,-92.66 672.64,-83.11"/>
<polygon fill="#63b8ff" stroke="#63b8ff" points="674.69,-80.24 664.23,-78.55 671.35,-86.39 674.69,-80.24"/>
</a>
</g>
</g>
<!-- Node16&#45;&gt;Node10 -->
<g id="edge24_Node000016_Node000010" class="edge">
<title>Node16&#45;&gt;Node10</title>
<g id="a_edge24_Node000016_Node000010"><a xlink:title=" ">
<path fill="none" stroke="#63b8ff" d="M773.89,-113.09C798.88,-104.32 835.77,-91.37 863.56,-81.62"/>
<polygon fill="#63b8ff" stroke="#63b8ff" points="864.38,-85.04 872.66,-78.42 862.07,-78.43 864.38,-85.04"/>
</a>
</g>
</g>
<!-- Node16&#45;&gt;Node11 -->
<g id="edge25_Node000016_Node000011" class="edge">
<title>Node16&#45;&gt;Node11</title>
<g id="a_edge25_Node000016_Node000011"><a xlink:title=" ">
<path fill="none" stroke="#63b8ff" d="M788.28,-113.19C825.84,-104.57 882.54,-91.53 941.05,-77.95"/>
<polygon fill="#63b8ff" stroke="#63b8ff" points="941.57,-81.42 950.52,-75.75 939.99,-74.6 941.57,-81.42"/>
</a>
</g>
</g>
<!-- Node17 -->
<g id="Node000017" class="node">
<title>Node17</title>
<g id="a_Node000017"><a xlink:title=" ">
<polygon fill="#e0e0e0" stroke="#999999" points="852.25,-77.5 729.75,-77.5 729.75,-56.75 852.25,-56.75 852.25,-77.5"/>
<text xml:space="preserve" text-anchor="middle" x="791" y="-64" font-family="Helvetica,sans-Serif" font-size="10.00">fsl_device_registers.h</text>
</a>
</g>
</g>
<!-- Node16&#45;&gt;Node17 -->
<g id="edge21_Node000016_Node000017" class="edge">
<title>Node16&#45;&gt;Node17</title>
<g id="a_edge21_Node000016_Node000017"><a xlink:title=" ">
<path fill="none" stroke="#63b8ff" d="M754.05,-113.09C760.06,-105.77 768.47,-95.54 775.74,-86.69"/>
<polygon fill="#63b8ff" stroke="#63b8ff" points="778.42,-88.95 782.06,-79 773.01,-84.5 778.42,-88.95"/>
</a>
</g>
</g>
<!-- Node18&#45;&gt;Node4 -->
<g id="edge29_Node000018_Node000004" class="edge">
<title>Node18&#45;&gt;Node4</title>
<g id="a_edge29_Node000018_Node000004"><a xlink:title=" ">
<path fill="none" stroke="#63b8ff" d="M327.26,-169.81C255.14,-152.36 128.08,-112.5 178,-56.75 201.34,-30.68 427.97,-17.97 533.92,-13.42"/>
<polygon fill="#63b8ff" stroke="#63b8ff" points="533.95,-16.92 543.79,-13 533.65,-9.92 533.95,-16.92"/>
</a>
</g>
</g>
<!-- Node18&#45;&gt;Node5 -->
<g id="edge31_Node000018_Node000005" class="edge">
<title>Node18&#45;&gt;Node5</title>
<g id="a_edge31_Node000018_Node000005"><a xlink:title=" ">
<path fill="none" stroke="#63b8ff" d="M387.56,-169.76C423.24,-146.11 518.56,-85.97 607,-56.75 688.25,-29.91 787.62,-18.77 846.7,-14.27"/>
<polygon fill="#63b8ff" stroke="#63b8ff" points="846.73,-17.78 856.46,-13.57 846.23,-10.8 846.73,-17.78"/>
</a>
</g>
</g>
<!-- Node18&#45;&gt;Node12 -->
<g id="edge30_Node000018_Node000012" class="edge">
<title>Node18&#45;&gt;Node12</title>
<g id="a_edge30_Node000018_Node000012"><a xlink:title=" ">
<path fill="none" stroke="#63b8ff" d="M375.86,-169.84C377.84,-163.06 380.55,-153.8 382.99,-145.44"/>
<polygon fill="#63b8ff" stroke="#63b8ff" points="386.29,-146.61 385.74,-136.03 379.58,-144.65 386.29,-146.61"/>
</a>
</g>
</g>
<!-- Node19 -->
<g id="Node000019" class="node">
<title>Node19</title>
<g id="a_Node000019"><a xlink:href="tmc2209__shared_8h.html" target="_top" xlink:title=" ">
<polygon fill="white" stroke="#666666" points="106,-134.25 0,-134.25 0,-113.5 106,-113.5 106,-134.25"/>
<text xml:space="preserve" text-anchor="middle" x="53" y="-120.75" font-family="Helvetica,sans-Serif" font-size="10.00">tmc2209_shared.h</text>
</a>
</g>
</g>
<!-- Node18&#45;&gt;Node19 -->
<g id="edge27_Node000018_Node000019" class="edge">
<title>Node18&#45;&gt;Node19</title>
<g id="a_edge27_Node000018_Node000019"><a xlink:title=" ">
<path fill="none" stroke="#63b8ff" d="M325.78,-171.55C270.63,-162.11 179.09,-146.45 117.43,-135.9"/>
<polygon fill="#63b8ff" stroke="#63b8ff" points="118.22,-132.48 107.78,-134.25 117.04,-139.38 118.22,-132.48"/>
</a>
</g>
</g>
<!-- Node20 -->
<g id="Node000020" class="node">
<title>Node20</title>
<g id="a_Node000020"><a xlink:title=" ">
<polygon fill="#e0e0e0" stroke="#999999" points="105.62,-77.5 0.38,-77.5 0.38,-56.75 105.62,-56.75 105.62,-77.5"/>
<text xml:space="preserve" text-anchor="middle" x="53" y="-64" font-family="Helvetica,sans-Serif" font-size="10.00">fsl_uart_freertos.h</text>
</a>
</g>
</g>
<!-- Node19&#45;&gt;Node20 -->
<g id="edge28_Node000019_Node000020" class="edge">
<title>Node19&#45;&gt;Node20</title>
<g id="a_edge28_Node000019_Node000020"><a xlink:title=" ">
<path fill="none" stroke="#63b8ff" d="M53,-113.09C53,-106.47 53,-97.47 53,-89.27"/>
<polygon fill="#63b8ff" stroke="#63b8ff" points="56.5,-89.34 53,-79.34 49.5,-89.34 56.5,-89.34"/>
</a>
</g>
</g>
<!-- Node21&#45;&gt;Node2 -->
<g id="edge36_Node000021_Node000002" class="edge">
<title>Node21&#45;&gt;Node2</title>
<g id="a_edge36_Node000021_Node000002"><a xlink:title=" ">
<path fill="none" stroke="#63b8ff" d="M576.02,-283.34C593.22,-274.93 618.28,-262.68 637.9,-253.09"/>
<polygon fill="#63b8ff" stroke="#63b8ff" points="639.34,-256.28 646.79,-248.74 636.27,-249.99 639.34,-256.28"/>
</a>
</g>
</g>
<!-- Node21&#45;&gt;Node7 -->
<g id="edge37_Node000021_Node000007" class="edge">
<title>Node21&#45;&gt;Node7</title>
<g id="a_edge37_Node000021_Node000007"><a xlink:title=" ">
<path fill="none" stroke="#63b8ff" d="M545.82,-283.28C537.55,-274.69 526.27,-261.47 520,-247.75 495.54,-194.26 488.68,-124.08 486.75,-89.41"/>
<polygon fill="#63b8ff" stroke="#63b8ff" points="490.25,-89.31 486.3,-79.48 483.26,-89.63 490.25,-89.31"/>
</a>
</g>
</g>
<!-- Node21&#45;&gt;Node12 -->
<g id="edge39_Node000021_Node000012" class="edge">
<title>Node21&#45;&gt;Node12</title>
<g id="a_edge39_Node000021_Node000012"><a xlink:title=" ">
<path fill="none" stroke="#63b8ff" d="M529.28,-283.34C511.4,-275.76 488.26,-263.83 472,-247.75 443.99,-220.05 451.71,-202.43 429,-170.25 422.23,-160.65 413.73,-150.77 406.32,-142.7"/>
<polygon fill="#63b8ff" stroke="#63b8ff" points="408.99,-140.43 399.59,-135.55 403.9,-145.23 408.99,-140.43"/>
</a>
</g>
</g>
<!-- Node22 -->
<g id="Node000022" class="node">
<title>Node22</title>
<g id="a_Node000022"><a xlink:title=" ">
<polygon fill="#e0e0e0" stroke="#999999" points="583.5,-247.75 528.5,-247.75 528.5,-227 583.5,-227 583.5,-247.75"/>
<text xml:space="preserve" text-anchor="middle" x="556" y="-234.25" font-family="Helvetica,sans-Serif" font-size="10.00">queue.h</text>
</a>
</g>
</g>
<!-- Node21&#45;&gt;Node22 -->
<g id="edge38_Node000021_Node000022" class="edge">
<title>Node21&#45;&gt;Node22</title>
<g id="a_edge38_Node000021_Node000022"><a xlink:title=" ">
<path fill="none" stroke="#63b8ff" d="M556,-283.34C556,-276.72 556,-267.72 556,-259.52"/>
<polygon fill="#63b8ff" stroke="#63b8ff" points="559.5,-259.59 556,-249.59 552.5,-259.59 559.5,-259.59"/>
</a>
</g>
</g>
</g>
</svg>
