<?xml version="1.0" encoding="UTF-8" standalone="no"?>
<!DOCTYPE svg PUBLIC "-//W3C//DTD SVG 1.1//EN"
 "http://www.w3.org/Graphics/SVG/1.1/DTD/svg11.dtd">
<!-- Generated by graphviz version 14.1.4 (0)
 -->
<!-- Title: source/motion/motor/motor_tmc.c Pages: 1 -->
<!--zoomable 439 -->

<svg id="main" version="1.1" xmlns="http://www.w3.org/2000/svg" xmlns:xlink="http://www.w3.org/1999/xlink" xml:space="preserve" onload="init(evt)">

<style type="text/css"><![CDATA[
.node, .edge {opacity: 0.7;}
.node.selected, .edge.selected {opacity: 1;}
.edge:hover path { stroke: red; }
.edge:hover polygon { stroke: red; fill: red; }
]]></style>

<defs>
  <circle id="rim" cx="0" cy="0" r="7"/>
  <circle id="rim2" cx="0" cy="0" r="3.5"/>
  <g id="zoomPlus">
    <use xlink:href="#rim" fill="#404040"><set attributeName="fill" to="#808080" begin="zoomplus.mouseover" end="zoomplus.mouseout"/></use>
    <path d="M-4,0h8M0,-4v8" fill="none" stroke="white" stroke-width="1.5" pointer-events="none"/>
  </g>
  <g id="zoomMin">
    <use xlink:href="#rim" fill="#404040"><set attributeName="fill" to="#808080" begin="zoomminus.mouseover" end="zoomminus.mouseout"/></use>
    <path d="M-4,0h8" fill="none" stroke="white" stroke-width="1.5" pointer-events="none"/>
  </g>
  <g id="arrowUp" transform="translate(30 24)">
    <use xlink:href="#rim"/>
    <path pointer-events="none" fill="none" stroke="white" stroke-width="1.5" d="M0,-3.0v7 M-2.5,-0.5L0,-3.0L2.5,-0.5"/>
  </g>
  <g id="arrowRight" transform="rotate(90) translate(36 -43)">
    <use xlink:href="#rim"/>
    <path pointer-events="none" fill="none" stroke="white" stroke-width="1.5" d="M0,-3.0v7 M-2.5,-0.5L0,-3.0L2.5,-0.5"/>
  </g>
  <g id="arrowDown" transform="rotate(180) translate(-30 -48)">
    <use xlink:href="#rim"/>
    <path pointer-events="none" fill="none" stroke="white" stroke-width="1.5" d="M0,-3.0v7 M-2.5,-0.5L0,-3.0L2.5,-0.5"/>
  </g>
  <g id="arrowLeft" transform="rotate(270) translate(-36 17)">
    <use xlink:href="#rim"/>
    <path pointer-events="none" fill="none" stroke="white" stroke-width="1.5" d="M0,-3.0v7 M-2.5,-0.5L0,-3.0L2.5,-0.5"/>
  </g>
  <g id="resetDef">
    <use xlink:href="#rim2" fill="#404040"><set attributeName="fill" to="#808080" begin="reset.mouseover" end="reset.mouseout"/></use>
  </g>
</defs>
<script type="application/ecmascript">
var viewWidth = 1252;
var viewHeight = 439;
var sectionId = 'dynsection-0';
</script>
<script type="application/ecmascript" xlink:href="svg.min.js"/>
<svg id="graph" class="graph">
<g id="viewport">
<title>source/motion/motor/motor_tmc.c</title>
<!-- Node1 -->
<g id="Node000001" class="node">
<title>Node1</title>
<g id="a_Node000001"><a xlink:title=" ">
<polygon fill="#999999" stroke="#666666" points="981.88,-430.75 863.88,-430.75 863.88,-397.25 981.88,-397.25 981.88,-430.75"/>
<text xml:space="preserve" text-anchor="start" x="871.88" y="-417.25" font-family="Helvetica,sans-Serif" font-size="10.00">source/motion/motor</text>
<text xml:space="preserve" text-anchor="middle" x="922.88" y="-404.5" font-family="Helvetica,sans-Serif" font-size="10.00">/motor_tmc.c</text>
</a>
</g>
</g>
<!-- Node2 -->
<g id="Node000002" class="node">
<title>Node2</title>
<g id="a_Node000002"><a xlink:href="motor__tmc_8h.html" target="_top" xlink:title=" ">
<polygon fill="white" stroke="#666666" points="764,-361.25 685.75,-361.25 685.75,-340.5 764,-340.5 764,-361.25"/>
<text xml:space="preserve" text-anchor="middle" x="724.88" y="-347.75" font-family="Helvetica,sans-Serif" font-size="10.00">motor_tmc.h</text>
</a>
</g>
</g>
<!-- Node1&#45;&gt;Node2 -->
<g id="edge1_Node000001_Node000002" class="edge">
<title>Node1&#45;&gt;Node2</title>
<g id="a_edge1_Node000001_Node000002"><a xlink:title=" ">
<path fill="none" stroke="#63b8ff" d="M870.33,-396.78C838.23,-386.87 797.7,-374.36 767.58,-365.06"/>
<polygon fill="#63b8ff" stroke="#63b8ff" points="768.62,-361.72 758.03,-362.11 766.56,-368.41 768.62,-361.72"/>
</a>
</g>
</g>
<!-- Node21 -->
<g id="Node000021" class="node">
<title>Node21</title>
<g id="a_Node000021"><a xlink:href="tmc2209__core_8h.html" target="_top" xlink:title=" ">
<polygon fill="white" stroke="#666666" points="786.88,-191 692.88,-191 692.88,-170.25 786.88,-170.25 786.88,-191"/>
<text xml:space="preserve" text-anchor="middle" x="739.88" y="-177.5" font-family="Helvetica,sans-Serif" font-size="10.00">tmc2209_core.h</text>
</a>
</g>
</g>
<!-- Node1&#45;&gt;Node21 -->
<g id="edge53_Node000001_Node000021" class="edge">
<title>Node1&#45;&gt;Node21</title>
<g id="a_edge53_Node000001_Node000021"><a xlink:title=" ">
<path fill="none" stroke="#63b8ff" d="M915.8,-396.79C908.87,-381.64 897.53,-358.7 884.88,-340.5 845.66,-284.09 787.93,-226.71 758.54,-198.88"/>
<polygon fill="#63b8ff" stroke="#63b8ff" points="761.17,-196.55 751.49,-192.27 756.39,-201.66 761.17,-196.55"/>
</a>
</g>
</g>
<!-- Node25 -->
<g id="Node000025" class="node">
<title>Node25</title>
<g id="a_Node000025"><a xlink:href="motor__motion_8h.html" target="_top" xlink:title=" ">
<polygon fill="white" stroke="#666666" points="875.88,-361.25 781.88,-361.25 781.88,-340.5 875.88,-340.5 875.88,-361.25"/>
<text xml:space="preserve" text-anchor="middle" x="828.88" y="-347.75" font-family="Helvetica,sans-Serif" font-size="10.00">motor_motion.h</text>
</a>
</g>
</g>
<!-- Node1&#45;&gt;Node25 -->
<g id="edge41_Node000001_Node000025" class="edge">
<title>Node1&#45;&gt;Node25</title>
<g id="a_edge41_Node000001_Node000025"><a xlink:title=" ">
<path fill="none" stroke="#63b8ff" d="M898.18,-396.94C884.35,-387.95 867.16,-376.77 853.36,-367.8"/>
<polygon fill="#63b8ff" stroke="#63b8ff" points="855.57,-365.06 845.28,-362.54 851.75,-370.93 855.57,-365.06"/>
</a>
</g>
</g>
<!-- Node26 -->
<g id="Node000026" class="node">
<title>Node26</title>
<g id="a_Node000026"><a xlink:href="log_8h.html" target="_top" xlink:title=" ">
<polygon fill="white" stroke="#666666" points="961.88,-134.25 921.88,-134.25 921.88,-113.5 961.88,-113.5 961.88,-134.25"/>
<text xml:space="preserve" text-anchor="middle" x="941.88" y="-120.75" font-family="Helvetica,sans-Serif" font-size="10.00">log.h</text>
</a>
</g>
</g>
<!-- Node1&#45;&gt;Node26 -->
<g id="edge43_Node000001_Node000026" class="edge">
<title>Node1&#45;&gt;Node26</title>
<g id="a_edge43_Node000001_Node000026"><a xlink:title=" ">
<path fill="none" stroke="#63b8ff" d="M927.09,-397.12C932.69,-374.6 941.88,-332.02 941.88,-295.12 941.88,-295.12 941.88,-295.12 941.88,-236.38 941.88,-204.98 941.88,-168.62 941.88,-146.18"/>
<polygon fill="#63b8ff" stroke="#63b8ff" points="945.38,-146.23 941.88,-136.23 938.38,-146.23 945.38,-146.23"/>
</a>
</g>
</g>
<!-- Node27 -->
<g id="Node000027" class="node">
<title>Node27</title>
<g id="a_Node000027"><a xlink:title=" ">
<polygon fill="#e0e0e0" stroke="#999999" points="1019.38,-361.25 970.38,-361.25 970.38,-340.5 1019.38,-340.5 1019.38,-361.25"/>
<text xml:space="preserve" text-anchor="middle" x="994.88" y="-347.75" font-family="Helvetica,sans-Serif" font-size="10.00">stdio.h</text>
</a>
</g>
</g>
<!-- Node1&#45;&gt;Node27 -->
<g id="edge46_Node000001_Node000027" class="edge">
<title>Node1&#45;&gt;Node27</title>
<g id="a_edge46_Node000001_Node000027"><a xlink:title=" ">
<path fill="none" stroke="#63b8ff" d="M941.79,-396.94C951.87,-388.38 964.28,-377.85 974.56,-369.12"/>
<polygon fill="#63b8ff" stroke="#63b8ff" points="976.77,-371.84 982.13,-362.7 972.24,-366.5 976.77,-371.84"/>
</a>
</g>
</g>
<!-- Node28 -->
<g id="Node000028" class="node">
<title>Node28</title>
<g id="a_Node000028"><a xlink:href="sync__wait_8h.html" target="_top" xlink:title=" ">
<polygon fill="white" stroke="#666666" points="1121.75,-191 1048,-191 1048,-170.25 1121.75,-170.25 1121.75,-191"/>
<text xml:space="preserve" text-anchor="middle" x="1084.88" y="-177.5" font-family="Helvetica,sans-Serif" font-size="10.00">sync_wait.h</text>
</a>
</g>
</g>
<!-- Node1&#45;&gt;Node28 -->
<g id="edge47_Node000001_Node000028" class="edge">
<title>Node1&#45;&gt;Node28</title>
<g id="a_edge47_Node000001_Node000028"><a xlink:title=" ">
<path fill="none" stroke="#63b8ff" d="M976.48,-396.79C995.29,-388.76 1015.14,-377.25 1028.88,-361.25 1069.04,-314.47 1080.42,-239.03 1083.63,-202.62"/>
<polygon fill="#63b8ff" stroke="#63b8ff" points="1087.09,-203.22 1084.34,-192.99 1080.11,-202.7 1087.09,-203.22"/>
</a>
</g>
</g>
<!-- Node3 -->
<g id="Node000003" class="node">
<title>Node3</title>
<g id="a_Node000003"><a xlink:href="motor__internal_8h.html" target="_top" xlink:title=" ">
<polygon fill="white" stroke="#666666" points="824.38,-304.5 727.38,-304.5 727.38,-283.75 824.38,-283.75 824.38,-304.5"/>
<text xml:space="preserve" text-anchor="middle" x="775.88" y="-291" font-family="Helvetica,sans-Serif" font-size="10.00">motor_internal.h</text>
</a>
</g>
</g>
<!-- Node2&#45;&gt;Node3 -->
<g id="edge2_Node000002_Node000003" class="edge">
<title>Node2&#45;&gt;Node3</title>
<g id="a_edge2_Node000002_Node000003"><a xlink:title=" ">
<path fill="none" stroke="#63b8ff" d="M733.99,-340.09C740.96,-332.61 750.74,-322.11 759.11,-313.13"/>
<polygon fill="#63b8ff" stroke="#63b8ff" points="761.55,-315.64 765.8,-305.94 756.43,-310.87 761.55,-315.64"/>
</a>
</g>
</g>
<!-- Node4 -->
<g id="Node000004" class="node">
<title>Node4</title>
<g id="a_Node000004"><a xlink:href="motor__core_8h.html" target="_top" xlink:title=" ">
<polygon fill="white" stroke="#666666" points="506.12,-247.75 425.62,-247.75 425.62,-227 506.12,-227 506.12,-247.75"/>
<text xml:space="preserve" text-anchor="middle" x="465.88" y="-234.25" font-family="Helvetica,sans-Serif" font-size="10.00">motor_core.h</text>
</a>
</g>
</g>
<!-- Node3&#45;&gt;Node4 -->
<g id="edge3_Node000003_Node000004" class="edge">
<title>Node3&#45;&gt;Node4</title>
<g id="a_edge3_Node000003_Node000004"><a xlink:title=" ">
<path fill="none" stroke="#63b8ff" d="M727.1,-284.51C670.03,-274.43 575.95,-257.82 517.63,-247.52"/>
<polygon fill="#63b8ff" stroke="#63b8ff" points="518.41,-244.1 507.96,-245.81 517.19,-250.99 518.41,-244.1"/>
</a>
</g>
</g>
<!-- Node10 -->
<g id="Node000010" class="node">
<title>Node10</title>
<g id="a_Node000010"><a xlink:title=" ">
<polygon fill="#e0e0e0" stroke="#999999" points="897.62,-77.5 826.12,-77.5 826.12,-56.75 897.62,-56.75 897.62,-77.5"/>
<text xml:space="preserve" text-anchor="middle" x="861.88" y="-64" font-family="Helvetica,sans-Serif" font-size="10.00">FreeRTOS.h</text>
</a>
</g>
</g>
<!-- Node3&#45;&gt;Node10 -->
<g id="edge38_Node000003_Node000010" class="edge">
<title>Node3&#45;&gt;Node10</title>
<g id="a_edge38_Node000003_Node000010"><a xlink:title=" ">
<path fill="none" stroke="#63b8ff" d="M779.57,-283.46C792.55,-249.49 836.26,-135.14 854.15,-88.34"/>
<polygon fill="#63b8ff" stroke="#63b8ff" points="857.35,-89.76 857.65,-79.17 850.81,-87.26 857.35,-89.76"/>
</a>
</g>
</g>
<!-- Node15 -->
<g id="Node000015" class="node">
<title>Node15</title>
<g id="a_Node000015"><a xlink:href="cmd__handle_8h.html" target="_top" xlink:title=" ">
<polygon fill="white" stroke="#666666" points="1064,-134.25 979.75,-134.25 979.75,-113.5 1064,-113.5 1064,-134.25"/>
<text xml:space="preserve" text-anchor="middle" x="1021.88" y="-120.75" font-family="Helvetica,sans-Serif" font-size="10.00">cmd_handle.h</text>
</a>
</g>
</g>
<!-- Node3&#45;&gt;Node15 -->
<g id="edge40_Node000003_Node000015" class="edge">
<title>Node3&#45;&gt;Node15</title>
<g id="a_edge40_Node000003_Node000015"><a xlink:title=" ">
<path fill="none" stroke="#63b8ff" d="M799.85,-283.38C819.34,-275.03 847.22,-262.1 869.88,-247.75 921.38,-215.12 975.47,-167.76 1003.14,-142.42"/>
<polygon fill="#63b8ff" stroke="#63b8ff" points="1005.38,-145.11 1010.35,-135.75 1000.63,-139.97 1005.38,-145.11"/>
</a>
</g>
</g>
<!-- Node24 -->
<g id="Node000024" class="node">
<title>Node24</title>
<g id="a_Node000024"><a xlink:title=" ">
<polygon fill="#e0e0e0" stroke="#999999" points="407.38,-247.75 352.38,-247.75 352.38,-227 407.38,-227 407.38,-247.75"/>
<text xml:space="preserve" text-anchor="middle" x="379.88" y="-234.25" font-family="Helvetica,sans-Serif" font-size="10.00">queue.h</text>
</a>
</g>
</g>
<!-- Node3&#45;&gt;Node24 -->
<g id="edge39_Node000003_Node000024" class="edge">
<title>Node3&#45;&gt;Node24</title>
<g id="a_edge39_Node000003_Node000024"><a xlink:title=" ">
<path fill="none" stroke="#63b8ff" d="M727.09,-288.87C659.93,-282.59 535.02,-269.42 418.88,-247.91"/>
<polygon fill="#63b8ff" stroke="#63b8ff" points="419.64,-244.49 409.16,-246.09 418.34,-251.37 419.64,-244.49"/>
</a>
</g>
</g>
<!-- Node5 -->
<g id="Node000005" class="node">
<title>Node5</title>
<g id="a_Node000005"><a xlink:href="pca9555a_8h.html" target="_top" xlink:title=" ">
<polygon fill="white" stroke="#666666" points="233.88,-77.5 79.88,-77.5 79.88,-56.75 233.88,-56.75 233.88,-77.5"/>
<text xml:space="preserve" text-anchor="middle" x="156.88" y="-64" font-family="Helvetica,sans-Serif" font-size="10.00">driver/pca9555a/pca9555a.h</text>
</a>
</g>
</g>
<!-- Node4&#45;&gt;Node5 -->
<g id="edge4_Node000004_Node000005" class="edge">
<title>Node4&#45;&gt;Node5</title>
<g id="a_edge4_Node000004_Node000005"><a xlink:title=" ">
<path fill="none" stroke="#63b8ff" d="M425.37,-228.68C361.15,-216.44 242.76,-193.6 238.88,-191 200.83,-165.54 175.97,-115.84 164.41,-88.09"/>
<polygon fill="#63b8ff" stroke="#63b8ff" points="167.77,-87.08 160.83,-79.08 161.27,-89.66 167.77,-87.08"/>
</a>
</g>
</g>
<!-- Node8 -->
<g id="Node000008" class="node">
<title>Node8</title>
<g id="a_Node000008"><a xlink:title=" ">
<polygon fill="#e0e0e0" stroke="#999999" points="336.25,-191 247.5,-191 247.5,-170.25 336.25,-170.25 336.25,-191"/>
<text xml:space="preserve" text-anchor="middle" x="291.88" y="-177.5" font-family="Helvetica,sans-Serif" font-size="10.00">MK22F51212.h</text>
</a>
</g>
</g>
<!-- Node4&#45;&gt;Node8 -->
<g id="edge7_Node000004_Node000008" class="edge">
<title>Node4&#45;&gt;Node8</title>
<g id="a_edge7_Node000004_Node000008"><a xlink:title=" ">
<path fill="none" stroke="#63b8ff" d="M434.77,-226.59C406.65,-217.74 365.02,-204.64 333.94,-194.86"/>
<polygon fill="#63b8ff" stroke="#63b8ff" points="335.04,-191.54 324.45,-191.87 332.94,-198.22 335.04,-191.54"/>
</a>
</g>
</g>
<!-- Node9 -->
<g id="Node000009" class="node">
<title>Node9</title>
<g id="a_Node000009"><a xlink:href="step__core_8h.html" target="_top" xlink:title=" ">
<polygon fill="white" stroke="#666666" points="502,-191 429.75,-191 429.75,-170.25 502,-170.25 502,-191"/>
<text xml:space="preserve" text-anchor="middle" x="465.88" y="-177.5" font-family="Helvetica,sans-Serif" font-size="10.00">step_core.h</text>
</a>
</g>
</g>
<!-- Node4&#45;&gt;Node9 -->
<g id="edge8_Node000004_Node000009" class="edge">
<title>Node4&#45;&gt;Node9</title>
<g id="a_edge8_Node000004_Node000009"><a xlink:title=" ">
<path fill="none" stroke="#63b8ff" d="M465.88,-226.59C465.88,-219.97 465.88,-210.97 465.88,-202.77"/>
<polygon fill="#63b8ff" stroke="#63b8ff" points="469.38,-202.84 465.88,-192.84 462.38,-202.84 469.38,-202.84"/>
</a>
</g>
</g>
<!-- Node12 -->
<g id="Node000012" class="node">
<title>Node12</title>
<g id="a_Node000012"><a xlink:title=" ">
<polygon fill="#e0e0e0" stroke="#999999" points="488.25,-77.5 429.5,-77.5 429.5,-56.75 488.25,-56.75 488.25,-77.5"/>
<text xml:space="preserve" text-anchor="middle" x="458.88" y="-64" font-family="Helvetica,sans-Serif" font-size="10.00">fsl_ftm.h</text>
</a>
</g>
</g>
<!-- Node4&#45;&gt;Node12 -->
<g id="edge35_Node000004_Node000012" class="edge">
<title>Node4&#45;&gt;Node12</title>
<g id="a_edge35_Node000004_Node000012"><a xlink:title=" ">
<path fill="none" stroke="#63b8ff" d="M453.42,-226.76C433.45,-210.4 395.23,-174.91 382.88,-134.25 380.19,-125.43 378.32,-121.52 382.88,-113.5 390.87,-99.41 405.17,-89.23 419.22,-82.13"/>
<polygon fill="#63b8ff" stroke="#63b8ff" points="420.32,-85.48 427.94,-78.12 417.4,-79.12 420.32,-85.48"/>
</a>
</g>
</g>
<!-- Node13 -->
<g id="Node000013" class="node">
<title>Node13</title>
<g id="a_Node000013"><a xlink:title=" ">
<polygon fill="#e0e0e0" stroke="#999999" points="569.5,-77.5 506.25,-77.5 506.25,-56.75 569.5,-56.75 569.5,-77.5"/>
<text xml:space="preserve" text-anchor="middle" x="537.88" y="-64" font-family="Helvetica,sans-Serif" font-size="10.00">fsl_gpio.h</text>
</a>
</g>
</g>
<!-- Node4&#45;&gt;Node13 -->
<g id="edge36_Node000004_Node000013" class="edge">
<title>Node4&#45;&gt;Node13</title>
<g id="a_edge36_Node000004_Node000013"><a xlink:title=" ">
<path fill="none" stroke="#63b8ff" d="M478.95,-226.66C489.21,-218.33 503.02,-205.42 510.88,-191 528.75,-158.18 534.79,-114.35 536.83,-88.88"/>
<polygon fill="#63b8ff" stroke="#63b8ff" points="540.31,-89.4 537.47,-79.2 533.32,-88.95 540.31,-89.4"/>
</a>
</g>
</g>
<!-- Node14 -->
<g id="Node000014" class="node">
<title>Node14</title>
<g id="a_Node000014"><a xlink:title=" ">
<polygon fill="#e0e0e0" stroke="#999999" points="61.75,-77.5 0,-77.5 0,-56.75 61.75,-56.75 61.75,-77.5"/>
<text xml:space="preserve" text-anchor="middle" x="30.88" y="-64" font-family="Helvetica,sans-Serif" font-size="10.00">fsl_port.h</text>
</a>
</g>
</g>
<!-- Node4&#45;&gt;Node14 -->
<g id="edge37_Node000004_Node000014" class="edge">
<title>Node4&#45;&gt;Node14</title>
<g id="a_edge37_Node000004_Node000014"><a xlink:title=" ">
<path fill="none" stroke="#63b8ff" d="M425.22,-228.71C422.06,-228.13 418.92,-227.55 415.88,-227 324.86,-210.48 296.56,-225.86 210.88,-191 146.08,-164.64 81,-112.27 49.83,-85.2"/>
<polygon fill="#63b8ff" stroke="#63b8ff" points="52.24,-82.66 42.42,-78.67 47.61,-87.91 52.24,-82.66"/>
</a>
</g>
</g>
<!-- Node4&#45;&gt;Node21 -->
<g id="edge29_Node000004_Node000021" class="edge">
<title>Node4&#45;&gt;Node21</title>
<g id="a_edge29_Node000004_Node000021"><a xlink:title=" ">
<path fill="none" stroke="#63b8ff" d="M506.6,-228.24C552.85,-219 628.7,-203.84 681.3,-193.33"/>
<polygon fill="#63b8ff" stroke="#63b8ff" points="681.87,-196.78 690.99,-191.39 680.5,-189.92 681.87,-196.78"/>
</a>
</g>
</g>
<!-- Node6 -->
<g id="Node000006" class="node">
<title>Node6</title>
<g id="a_Node000006"><a xlink:title=" ">
<polygon fill="#e0e0e0" stroke="#999999" points="840.38,-20.75 755.38,-20.75 755.38,0 840.38,0 840.38,-20.75"/>
<text xml:space="preserve" text-anchor="middle" x="797.88" y="-7.25" font-family="Helvetica,sans-Serif" font-size="10.00">fsl_common.h</text>
</a>
</g>
</g>
<!-- Node5&#45;&gt;Node6 -->
<g id="edge5_Node000005_Node000006" class="edge">
<title>Node5&#45;&gt;Node6</title>
<g id="a_edge5_Node000005_Node000006"><a xlink:title=" ">
<path fill="none" stroke="#63b8ff" d="M234.22,-57.59C237.14,-57.3 240.03,-57.02 242.88,-56.75 426.4,-39.25 644.48,-22.64 743.79,-15.31"/>
<polygon fill="#63b8ff" stroke="#63b8ff" points="743.79,-18.82 753.51,-14.59 743.28,-11.84 743.79,-18.82"/>
</a>
</g>
</g>
<!-- Node7 -->
<g id="Node000007" class="node">
<title>Node7</title>
<g id="a_Node000007"><a xlink:title=" ">
<polygon fill="#e0e0e0" stroke="#999999" points="417.75,-20.75 338,-20.75 338,0 417.75,0 417.75,-20.75"/>
<text xml:space="preserve" text-anchor="middle" x="377.88" y="-7.25" font-family="Helvetica,sans-Serif" font-size="10.00">peripherals.h</text>
</a>
</g>
</g>
<!-- Node5&#45;&gt;Node7 -->
<g id="edge6_Node000005_Node000007" class="edge">
<title>Node5&#45;&gt;Node7</title>
<g id="a_edge6_Node000005_Node000007"><a xlink:title=" ">
<path fill="none" stroke="#63b8ff" d="M196.64,-56.27C233.14,-47.23 287.4,-33.79 327.04,-23.97"/>
<polygon fill="#63b8ff" stroke="#63b8ff" points="327.72,-27.41 336.59,-21.6 326.04,-20.61 327.72,-27.41"/>
</a>
</g>
</g>
<!-- Node9&#45;&gt;Node5 -->
<g id="edge9_Node000009_Node000005" class="edge">
<title>Node9&#45;&gt;Node5</title>
<g id="a_edge9_Node000009_Node000005"><a xlink:title=" ">
<path fill="none" stroke="#63b8ff" d="M429.57,-177.29C384.11,-173.25 304.7,-162.46 242.88,-134.25 216.56,-122.24 190.87,-100.85 174.53,-85.65"/>
<polygon fill="#63b8ff" stroke="#63b8ff" points="177.2,-83.36 167.56,-78.98 172.37,-88.42 177.2,-83.36"/>
</a>
</g>
</g>
<!-- Node9&#45;&gt;Node6 -->
<g id="edge12_Node000009_Node000006" class="edge">
<title>Node9&#45;&gt;Node6</title>
<g id="a_edge12_Node000009_Node000006"><a xlink:title=" ">
<path fill="none" stroke="#63b8ff" d="M478.02,-170.04C507.05,-147.52 583.41,-90.56 654.88,-56.75 683.95,-43 718.25,-31.95 745.97,-24.21"/>
<polygon fill="#63b8ff" stroke="#63b8ff" points="746.83,-27.6 755.56,-21.59 744.99,-20.85 746.83,-27.6"/>
</a>
</g>
</g>
<!-- Node9&#45;&gt;Node10 -->
<g id="edge10_Node000009_Node000010" class="edge">
<title>Node9&#45;&gt;Node10</title>
<g id="a_edge10_Node000009_Node000010"><a xlink:title=" ">
<path fill="none" stroke="#63b8ff" d="M502.09,-178.96C559.02,-176.85 672.09,-168.29 760.88,-134.25 791.51,-122.5 822.45,-100.39 841.86,-84.99"/>
<polygon fill="#63b8ff" stroke="#63b8ff" points="843.93,-87.82 849.48,-78.79 839.52,-82.39 843.93,-87.82"/>
</a>
</g>
</g>
<!-- Node11 -->
<g id="Node000011" class="node">
<title>Node11</title>
<g id="a_Node000011"><a xlink:title=" ">
<polygon fill="#e0e0e0" stroke="#999999" points="437.88,-134.25 391.88,-134.25 391.88,-113.5 437.88,-113.5 437.88,-134.25"/>
<text xml:space="preserve" text-anchor="middle" x="414.88" y="-120.75" font-family="Helvetica,sans-Serif" font-size="10.00">task.h</text>
</a>
</g>
</g>
<!-- Node9&#45;&gt;Node11 -->
<g id="edge11_Node000009_Node000011" class="edge">
<title>Node9&#45;&gt;Node11</title>
<g id="a_edge11_Node000009_Node000011"><a xlink:title=" ">
<path fill="none" stroke="#63b8ff" d="M456.76,-169.84C449.79,-162.36 440.01,-151.86 431.64,-142.88"/>
<polygon fill="#63b8ff" stroke="#63b8ff" points="434.32,-140.62 424.95,-135.69 429.2,-145.39 434.32,-140.62"/>
</a>
</g>
</g>
<!-- Node9&#45;&gt;Node12 -->
<g id="edge13_Node000009_Node000012" class="edge">
<title>Node9&#45;&gt;Node12</title>
<g id="a_edge13_Node000009_Node000012"><a xlink:title=" ">
<path fill="none" stroke="#63b8ff" d="M465.28,-170.12C464.16,-152.27 461.71,-113.36 460.19,-89.09"/>
<polygon fill="#63b8ff" stroke="#63b8ff" points="463.7,-89.2 459.59,-79.44 456.72,-89.64 463.7,-89.2"/>
</a>
</g>
</g>
<!-- Node9&#45;&gt;Node13 -->
<g id="edge14_Node000009_Node000013" class="edge">
<title>Node9&#45;&gt;Node13</title>
<g id="a_edge14_Node000009_Node000013"><a xlink:title=" ">
<path fill="none" stroke="#63b8ff" d="M472.01,-170.12C483.8,-151.86 509.83,-111.56 525.4,-87.45"/>
<polygon fill="#63b8ff" stroke="#63b8ff" points="528.24,-89.5 530.73,-79.2 522.36,-85.7 528.24,-89.5"/>
</a>
</g>
</g>
<!-- Node9&#45;&gt;Node14 -->
<g id="edge15_Node000009_Node000014" class="edge">
<title>Node9&#45;&gt;Node14</title>
<g id="a_edge15_Node000009_Node000014"><a xlink:title=" ">
<path fill="none" stroke="#63b8ff" d="M429.66,-175.5C378.98,-169.23 284.33,-155.71 205.88,-134.25 154.85,-120.29 97.92,-97.33 63.24,-82.47"/>
<polygon fill="#63b8ff" stroke="#63b8ff" points="64.76,-79.31 54.19,-78.55 61.98,-85.74 64.76,-79.31"/>
</a>
</g>
</g>
<!-- Node9&#45;&gt;Node15 -->
<g id="edge16_Node000009_Node000015" class="edge">
<title>Node9&#45;&gt;Node15</title>
<g id="a_edge16_Node000009_Node000015"><a xlink:title=" ">
<path fill="none" stroke="#63b8ff" d="M502.44,-177.5C584.1,-172.51 787.65,-158.68 968.05,-134.53"/>
<polygon fill="#63b8ff" stroke="#63b8ff" points="968.41,-138.01 977.85,-133.2 967.47,-131.07 968.41,-138.01"/>
</a>
</g>
</g>
<!-- Node19 -->
<g id="Node000019" class="node">
<title>Node19</title>
<g id="a_Node000019"><a xlink:href="step__shared_8h.html" target="_top" xlink:title=" ">
<polygon fill="white" stroke="#666666" points="336,-134.25 251.75,-134.25 251.75,-113.5 336,-113.5 336,-134.25"/>
<text xml:space="preserve" text-anchor="middle" x="293.88" y="-120.75" font-family="Helvetica,sans-Serif" font-size="10.00">step_shared.h</text>
</a>
</g>
</g>
<!-- Node9&#45;&gt;Node19 -->
<g id="edge22_Node000009_Node000019" class="edge">
<title>Node9&#45;&gt;Node19</title>
<g id="a_edge22_Node000009_Node000019"><a xlink:title=" ">
<path fill="none" stroke="#63b8ff" d="M435.12,-169.84C407.33,-160.99 366.18,-147.89 335.45,-138.11"/>
<polygon fill="#63b8ff" stroke="#63b8ff" points="336.68,-134.83 326.09,-135.13 334.56,-141.5 336.68,-134.83"/>
</a>
</g>
</g>
<!-- Node15&#45;&gt;Node6 -->
<g id="edge20_Node000015_Node000006" class="edge">
<title>Node15&#45;&gt;Node6</title>
<g id="a_edge20_Node000015_Node000006"><a xlink:title=" ">
<path fill="none" stroke="#63b8ff" d="M1023.99,-113.4C1026.56,-99.18 1028.97,-72.34 1014.88,-56.75 993.5,-33.11 908.99,-21.07 851.96,-15.51"/>
<polygon fill="#63b8ff" stroke="#63b8ff" points="852.38,-12.04 842.1,-14.59 851.73,-19 852.38,-12.04"/>
</a>
</g>
</g>
<!-- Node15&#45;&gt;Node10 -->
<g id="edge18_Node000015_Node000010" class="edge">
<title>Node15&#45;&gt;Node10</title>
<g id="a_edge18_Node000015_Node000010"><a xlink:title=" ">
<path fill="none" stroke="#63b8ff" d="M993.27,-113.09C967.64,-104.32 929.8,-91.37 901.31,-81.62"/>
<polygon fill="#63b8ff" stroke="#63b8ff" points="902.53,-78.34 891.93,-78.41 900.26,-84.96 902.53,-78.34"/>
</a>
</g>
</g>
<!-- Node16 -->
<g id="Node000016" class="node">
<title>Node16</title>
<g id="a_Node000016"><a xlink:title=" ">
<polygon fill="#e0e0e0" stroke="#999999" points="1224.25,-77.5 1171.5,-77.5 1171.5,-56.75 1224.25,-56.75 1224.25,-77.5"/>
<text xml:space="preserve" text-anchor="middle" x="1197.88" y="-64" font-family="Helvetica,sans-Serif" font-size="10.00">stdint.h</text>
</a>
</g>
</g>
<!-- Node15&#45;&gt;Node16 -->
<g id="edge17_Node000015_Node000016" class="edge">
<title>Node15&#45;&gt;Node16</title>
<g id="a_edge17_Node000015_Node000016"><a xlink:title=" ">
<path fill="none" stroke="#63b8ff" d="M1053.34,-113.09C1083.32,-103.76 1128.49,-89.71 1160.34,-79.8"/>
<polygon fill="#63b8ff" stroke="#63b8ff" points="1161.05,-83.25 1169.56,-76.93 1158.97,-76.56 1161.05,-83.25"/>
</a>
</g>
</g>
<!-- Node17 -->
<g id="Node000017" class="node">
<title>Node17</title>
<g id="a_Node000017"><a xlink:title=" ">
<polygon fill="#e0e0e0" stroke="#999999" points="1153.38,-77.5 1062.38,-77.5 1062.38,-56.75 1153.38,-56.75 1153.38,-77.5"/>
<text xml:space="preserve" text-anchor="middle" x="1107.88" y="-64" font-family="Helvetica,sans-Serif" font-size="10.00">event_groups.h</text>
</a>
</g>
</g>
<!-- Node15&#45;&gt;Node17 -->
<g id="edge19_Node000015_Node000017" class="edge">
<title>Node15&#45;&gt;Node17</title>
<g id="a_edge19_Node000015_Node000017"><a xlink:title=" ">
<path fill="none" stroke="#63b8ff" d="M1037.25,-113.09C1049.97,-104.99 1068.28,-93.33 1083.07,-83.92"/>
<polygon fill="#63b8ff" stroke="#63b8ff" points="1084.8,-86.96 1091.36,-78.64 1081.04,-81.06 1084.8,-86.96"/>
</a>
</g>
</g>
<!-- Node18 -->
<g id="Node000018" class="node">
<title>Node18</title>
<g id="a_Node000018"><a xlink:title=" ">
<polygon fill="#e0e0e0" stroke="#999999" points="1005.88,-77.5 953.88,-77.5 953.88,-56.75 1005.88,-56.75 1005.88,-77.5"/>
<text xml:space="preserve" text-anchor="middle" x="979.88" y="-64" font-family="Helvetica,sans-Serif" font-size="10.00">stdlib.h</text>
</a>
</g>
</g>
<!-- Node15&#45;&gt;Node18 -->
<g id="edge21_Node000015_Node000018" class="edge">
<title>Node15&#45;&gt;Node18</title>
<g id="a_edge21_Node000015_Node000018"><a xlink:title=" ">
<path fill="none" stroke="#63b8ff" d="M1014.37,-113.09C1008.75,-105.77 1000.91,-95.54 994.12,-86.69"/>
<polygon fill="#63b8ff" stroke="#63b8ff" points="997.1,-84.83 988.24,-79.03 991.55,-89.09 997.1,-84.83"/>
</a>
</g>
</g>
<!-- Node19&#45;&gt;Node5 -->
<g id="edge23_Node000019_Node000005" class="edge">
<title>Node19&#45;&gt;Node5</title>
<g id="a_edge23_Node000019_Node000005"><a xlink:title=" ">
<path fill="none" stroke="#63b8ff" d="M269.38,-113.09C247.76,-104.44 215.99,-91.75 191.72,-82.05"/>
<polygon fill="#63b8ff" stroke="#63b8ff" points="193.15,-78.85 182.56,-78.39 190.55,-85.35 193.15,-78.85"/>
</a>
</g>
</g>
<!-- Node19&#45;&gt;Node6 -->
<g id="edge25_Node000019_Node000006" class="edge">
<title>Node19&#45;&gt;Node6</title>
<g id="a_edge25_Node000019_Node000006"><a xlink:title=" ">
<path fill="none" stroke="#63b8ff" d="M313.4,-113.12C331.49,-104.04 359.1,-90.05 382.88,-77.5 399.89,-68.52 402.55,-62.62 420.88,-56.75 531.73,-21.27 668.99,-13.14 743.51,-11.52"/>
<polygon fill="#63b8ff" stroke="#63b8ff" points="743.47,-15.02 753.41,-11.34 743.35,-8.02 743.47,-15.02"/>
</a>
</g>
</g>
<!-- Node19&#45;&gt;Node12 -->
<g id="edge26_Node000019_Node000012" class="edge">
<title>Node19&#45;&gt;Node12</title>
<g id="a_edge26_Node000019_Node000012"><a xlink:title=" ">
<path fill="none" stroke="#63b8ff" d="M323.37,-113.09C349.92,-104.28 389.17,-91.25 418.6,-81.49"/>
<polygon fill="#63b8ff" stroke="#63b8ff" points="419.53,-84.87 427.92,-78.4 417.32,-78.22 419.53,-84.87"/>
</a>
</g>
</g>
<!-- Node19&#45;&gt;Node13 -->
<g id="edge27_Node000019_Node000013" class="edge">
<title>Node19&#45;&gt;Node13</title>
<g id="a_edge27_Node000019_Node000013"><a xlink:title=" ">
<path fill="none" stroke="#63b8ff" d="M336.27,-113.46C375.02,-104.84 434.22,-91.64 495.11,-77.89"/>
<polygon fill="#63b8ff" stroke="#63b8ff" points="495.64,-81.36 504.62,-75.74 494.09,-74.53 495.64,-81.36"/>
</a>
</g>
</g>
<!-- Node19&#45;&gt;Node14 -->
<g id="edge28_Node000019_Node000014" class="edge">
<title>Node19&#45;&gt;Node14</title>
<g id="a_edge28_Node000019_Node000014"><a xlink:title=" ">
<path fill="none" stroke="#63b8ff" d="M251.46,-114.63C208.82,-106.26 140.93,-92.69 72.8,-77.87"/>
<polygon fill="#63b8ff" stroke="#63b8ff" points="73.86,-74.52 63.34,-75.81 72.36,-81.36 73.86,-74.52"/>
</a>
</g>
</g>
<!-- Node20 -->
<g id="Node000020" class="node">
<title>Node20</title>
<g id="a_Node000020"><a xlink:title=" ">
<polygon fill="#e0e0e0" stroke="#999999" points="374.12,-77.5 251.62,-77.5 251.62,-56.75 374.12,-56.75 374.12,-77.5"/>
<text xml:space="preserve" text-anchor="middle" x="312.88" y="-64" font-family="Helvetica,sans-Serif" font-size="10.00">fsl_device_registers.h</text>
</a>
</g>
</g>
<!-- Node19&#45;&gt;Node20 -->
<g id="edge24_Node000019_Node000020" class="edge">
<title>Node19&#45;&gt;Node20</title>
<g id="a_edge24_Node000019_Node000020"><a xlink:title=" ">
<path fill="none" stroke="#63b8ff" d="M297.27,-113.09C299.62,-106.31 302.84,-97.05 305.74,-88.69"/>
<polygon fill="#63b8ff" stroke="#63b8ff" points="309.04,-89.85 309.01,-79.26 302.43,-87.56 309.04,-89.85"/>
</a>
</g>
</g>
<!-- Node21&#45;&gt;Node6 -->
<g id="edge32_Node000021_Node000006" class="edge">
<title>Node21&#45;&gt;Node6</title>
<g id="a_edge32_Node000021_Node000006"><a xlink:title=" ">
<path fill="none" stroke="#63b8ff" d="M744.74,-170.04C749.25,-160.96 755.97,-146.87 760.88,-134.25 774.53,-99.07 786.31,-56.65 792.72,-31.97"/>
<polygon fill="#63b8ff" stroke="#63b8ff" points="796.04,-33.13 795.12,-22.57 789.26,-31.4 796.04,-33.13"/>
</a>
</g>
</g>
<!-- Node21&#45;&gt;Node7 -->
<g id="edge34_Node000021_Node000007" class="edge">
<title>Node21&#45;&gt;Node7</title>
<g id="a_edge34_Node000021_Node000007"><a xlink:title=" ">
<path fill="none" stroke="#63b8ff" d="M706.44,-169.8C685.04,-162.39 657.52,-150.67 636.88,-134.25 603.2,-107.48 614.97,-80.15 578.88,-56.75 533.78,-27.52 472.39,-16.97 429.37,-13.24"/>
<polygon fill="#63b8ff" stroke="#63b8ff" points="429.77,-9.76 419.53,-12.49 429.24,-16.74 429.77,-9.76"/>
</a>
</g>
</g>
<!-- Node21&#45;&gt;Node15 -->
<g id="edge33_Node000021_Node000015" class="edge">
<title>Node21&#45;&gt;Node15</title>
<g id="a_edge33_Node000021_Node000015"><a xlink:title=" ">
<path fill="none" stroke="#63b8ff" d="M787.08,-170.46C837.18,-160.73 916.2,-145.39 968.53,-135.23"/>
<polygon fill="#63b8ff" stroke="#63b8ff" points="968.96,-138.71 978.11,-133.37 967.63,-131.84 968.96,-138.71"/>
</a>
</g>
</g>
<!-- Node22 -->
<g id="Node000022" class="node">
<title>Node22</title>
<g id="a_Node000022"><a xlink:href="tmc2209__shared_8h.html" target="_top" xlink:title=" ">
<polygon fill="white" stroke="#666666" points="751.88,-134.25 645.88,-134.25 645.88,-113.5 751.88,-113.5 751.88,-134.25"/>
<text xml:space="preserve" text-anchor="middle" x="698.88" y="-120.75" font-family="Helvetica,sans-Serif" font-size="10.00">tmc2209_shared.h</text>
</a>
</g>
</g>
<!-- Node21&#45;&gt;Node22 -->
<g id="edge30_Node000021_Node000022" class="edge">
<title>Node21&#45;&gt;Node22</title>
<g id="a_edge30_Node000021_Node000022"><a xlink:title=" ">
<path fill="none" stroke="#63b8ff" d="M732.55,-169.84C727.12,-162.6 719.57,-152.51 712.99,-143.72"/>
<polygon fill="#63b8ff" stroke="#63b8ff" points="715.84,-141.7 707.05,-135.79 710.24,-145.89 715.84,-141.7"/>
</a>
</g>
</g>
<!-- Node23 -->
<g id="Node000023" class="node">
<title>Node23</title>
<g id="a_Node000023"><a xlink:title=" ">
<polygon fill="#e0e0e0" stroke="#999999" points="769.5,-77.5 664.25,-77.5 664.25,-56.75 769.5,-56.75 769.5,-77.5"/>
<text xml:space="preserve" text-anchor="middle" x="716.88" y="-64" font-family="Helvetica,sans-Serif" font-size="10.00">fsl_uart_freertos.h</text>
</a>
</g>
</g>
<!-- Node22&#45;&gt;Node23 -->
<g id="edge31_Node000022_Node000023" class="edge">
<title>Node22&#45;&gt;Node23</title>
<g id="a_edge31_Node000022_Node000023"><a xlink:title=" ">
<path fill="none" stroke="#63b8ff" d="M702.09,-113.09C704.32,-106.31 707.37,-97.05 710.11,-88.69"/>
<polygon fill="#63b8ff" stroke="#63b8ff" points="713.41,-89.86 713.21,-79.27 706.76,-87.67 713.41,-89.86"/>
</a>
</g>
</g>
<!-- Node25&#45;&gt;Node3 -->
<g id="edge42_Node000025_Node000003" class="edge">
<title>Node25&#45;&gt;Node3</title>
<g id="a_edge42_Node000025_Node000003"><a xlink:title=" ">
<path fill="none" stroke="#63b8ff" d="M819.4,-340.09C812.09,-332.53 801.78,-321.89 793.03,-312.85"/>
<polygon fill="#63b8ff" stroke="#63b8ff" points="795.79,-310.67 786.32,-305.92 790.76,-315.54 795.79,-310.67"/>
</a>
</g>
</g>
<!-- Node26&#45;&gt;Node6 -->
<g id="edge45_Node000026_Node000006" class="edge">
<title>Node26&#45;&gt;Node6</title>
<g id="a_edge45_Node000026_Node000006"><a xlink:title=" ">
<path fill="none" stroke="#63b8ff" d="M939.02,-113.02C934.44,-98.79 924.15,-72.5 906.88,-56.75 890.84,-42.13 869.42,-31.84 849.81,-24.8"/>
<polygon fill="#63b8ff" stroke="#63b8ff" points="851.18,-21.57 840.59,-21.7 848.95,-28.2 851.18,-21.57"/>
</a>
</g>
</g>
<!-- Node26&#45;&gt;Node10 -->
<g id="edge44_Node000026_Node000010" class="edge">
<title>Node26&#45;&gt;Node10</title>
<g id="a_edge44_Node000026_Node000010"><a xlink:title=" ">
<path fill="none" stroke="#63b8ff" d="M927.57,-113.09C915.86,-105.07 899.04,-93.56 885.35,-84.19"/>
<polygon fill="#63b8ff" stroke="#63b8ff" points="887.53,-81.44 877.3,-78.68 883.58,-87.22 887.53,-81.44"/>
</a>
</g>
</g>
<!-- Node28&#45;&gt;Node6 -->
<g id="edge51_Node000028_Node000006" class="edge">
<title>Node28&#45;&gt;Node6</title>
<g id="a_edge51_Node000028_Node000006"><a xlink:title=" ">
<path fill="none" stroke="#63b8ff" d="M1114.77,-169.81C1169.44,-150.39 1276.13,-104.76 1232.88,-56.75 1207.81,-28.93 963.07,-17.04 852.1,-13.05"/>
<polygon fill="#63b8ff" stroke="#63b8ff" points="852.46,-9.56 842.35,-12.71 852.22,-16.56 852.46,-9.56"/>
</a>
</g>
</g>
<!-- Node28&#45;&gt;Node10 -->
<g id="edge49_Node000028_Node000010" class="edge">
<title>Node28&#45;&gt;Node10</title>
<g id="a_edge49_Node000028_Node000010"><a xlink:title=" ">
<path fill="none" stroke="#63b8ff" d="M1047.82,-176.79C1010.94,-172.47 954.05,-161.57 912.88,-134.25 895.18,-122.51 881.04,-102.56 872.18,-87.64"/>
<polygon fill="#63b8ff" stroke="#63b8ff" points="875.37,-86.18 867.43,-79.17 869.27,-89.6 875.37,-86.18"/>
</a>
</g>
</g>
<!-- Node28&#45;&gt;Node15 -->
<g id="edge52_Node000028_Node000015" class="edge">
<title>Node28&#45;&gt;Node15</title>
<g id="a_edge52_Node000028_Node000015"><a xlink:title=" ">
<path fill="none" stroke="#63b8ff" d="M1073.61,-169.84C1064.74,-162.13 1052.16,-151.2 1041.63,-142.04"/>
<polygon fill="#63b8ff" stroke="#63b8ff" points="1044.03,-139.49 1034.18,-135.57 1039.44,-144.77 1044.03,-139.49"/>
</a>
</g>
</g>
<!-- Node28&#45;&gt;Node16 -->
<g id="edge48_Node000028_Node000016" class="edge">
<title>Node28&#45;&gt;Node16</title>
<g id="a_edge48_Node000028_Node000016"><a xlink:title=" ">
<path fill="none" stroke="#63b8ff" d="M1094.51,-170.12C1113.43,-151.45 1155.7,-109.74 1179.91,-85.85"/>
<polygon fill="#63b8ff" stroke="#63b8ff" points="1182.21,-88.5 1186.87,-78.99 1177.29,-83.52 1182.21,-88.5"/>
</a>
</g>
</g>
<!-- Node28&#45;&gt;Node17 -->
<g id="edge50_Node000028_Node000017" class="edge">
<title>Node28&#45;&gt;Node17</title>
<g id="a_edge50_Node000028_Node000017"><a xlink:title=" ">
<path fill="none" stroke="#63b8ff" d="M1086.84,-170.12C1090.52,-152.27 1098.54,-113.36 1103.55,-89.09"/>
<polygon fill="#63b8ff" stroke="#63b8ff" points="1106.96,-89.91 1105.55,-79.41 1100.1,-88.49 1106.96,-89.91"/>
</a>
</g>
</g>
</g>
</svg>

<g id="navigator" transform="translate(0 0)" fill="#404254">
  <rect fill="#f2f5e9" fill-opacity="0.5" stroke="#606060" stroke-width=".5" x="0" y="0" width="60" height="60"/>
  <use id="zoomplus" xlink:href="#zoomPlus" x="17" y="9" onmousedown="handleZoom(evt,'in')"/>
  <use id="zoomminus" xlink:href="#zoomMin" x="42" y="9" onmousedown="handleZoom(evt,'out')"/>
  <use id="reset" xlink:href="#resetDef" x="30" y="36" onmousedown="handleReset()"/>
   <use id="arrowup" xlink:href="#arrowUp" x="0" y="0" onmousedown="handlePan(0,-1)"/>
  <use id="arrowright" xlink:href="#arrowRight" x="0" y="0" onmousedown="handlePan(1,0)"/>
  <use id="arrowdown" xlink:href="#arrowDown" x="0" y="0" onmousedown="handlePan(0,1)"/>
  <use id="arrowleft" xlink:href="#arrowLeft" x="0" y="0" onmousedown="handlePan(-1,0)"/>
</g>
<svg viewBox="0 0 15 15" width="100%" height="30px" preserveAspectRatio="xMaxYMin meet">
 <g id="arrow_out" transform="scale(0.3 0.3)">
  <a xlink:href="motor__tmc_8c__incl_org.svg" target="_base">
   <rect id="button" ry="5" rx="5" y="6" x="6" height="38" width="38"
        fill="#f2f5e9" fill-opacity="0.5" stroke="#606060" stroke-width="1.0"/>
   <path id="arrow"
     d="M 11.500037,31.436501 C 11.940474,20.09759 22.043105,11.32322 32.158766,21.979434 L 37.068811,17.246167 C 37.068811,17.246167 37.088388,32 37.088388,32 L 22.160133,31.978069 C 22.160133,31.978069 26.997745,27.140456 26.997745,27.140456 C 18.528582,18.264221 13.291696,25.230495 11.500037,31.436501 z"
     style="fill:#404040;"/>
  </a>
 </g>
</svg>

<style type='text/css'>
<![CDATA[
[data-mouse-over-selected='false'] { opacity: 0.7; }
[data-mouse-over-selected='true']  { opacity: 1.0; }
]]>
</style>
<script type="application/ecmascript"><![CDATA[
document.addEventListener('DOMContentLoaded', (event) => {
  highlightEdges();
  highlightAdjacentNodes();
});
]]></script>
</svg>
