<?xml version="1.0" encoding="UTF-8" standalone="no"?>
<!DOCTYPE svg PUBLIC "-//W3C//DTD SVG 1.1//EN"
 "http://www.w3.org/Graphics/SVG/1.1/DTD/svg11.dtd">
<!-- Generated by graphviz version 14.1.4 (0)
 -->
<!-- Title: source/motion/motor/motor_convert.c Pages: 1 -->
<!--zoomable 382 -->

<svg id="main" version="1.1" xmlns="http://www.w3.org/2000/svg" xmlns:xlink="http://www.w3.org/1999/xlink" xml:space="preserve" onload="init(evt)">

<style type="text/css"><![CDATA[
.node, .edge {opacity: 0.7;}
.node.selected, .edge.selected {opacity: 1;}
.edge:hover path { stroke: red; }
.edge:hover polygon { stroke: red; fill: red; }
]]></style>

<defs>
  <circle id="rim" cx="0" cy="0" r="7"/>
  <circle id="rim2" cx="0" cy="0" r="3.5"/>
  <g id="zoomPlus">
    <use xlink:href="#rim" fill="#404040"><set attributeName="fill" to="#808080" begin="zoomplus.mouseover" end="zoomplus.mouseout"/></use>
    <path d="M-4,0h8M0,-4v8" fill="none" stroke="white" stroke-width="1.5" pointer-events="none"/>
  </g>
  <g id="zoomMin">
    <use xlink:href="#rim" fill="#404040"><set attributeName="fill" to="#808080" begin="zoomminus.mouseover" end="zoomminus.mouseout"/></use>
    <path d="M-4,0h8" fill="none" stroke="white" stroke-width="1.5" pointer-events="none"/>
  </g>
  <g id="arrowUp" transform="translate(30 24)">
    <use xlink:href="#rim"/>
    <path pointer-events="none" fill="none" stroke="white" stroke-width="1.5" d="M0,-3.0v7 M-2.5,-0.5L0,-3.0L2.5,-0.5"/>
  </g>
  <g id="arrowRight" transform="rotate(90) translate(36 -43)">
    <use xlink:href="#rim"/>
    <path pointer-events="none" fill="none" stroke="white" stroke-width="1.5" d="M0,-3.0v7 M-2.5,-0.5L0,-3.0L2.5,-0.5"/>
  </g>
  <g id="arrowDown" transform="rotate(180) translate(-30 -48)">
    <use xlink:href="#rim"/>
    <path pointer-events="none" fill="none" stroke="white" stroke-width="1.5" d="M0,-3.0v7 M-2.5,-0.5L0,-3.0L2.5,-0.5"/>
  </g>
  <g id="arrowLeft" transform="rotate(270) translate(-36 17)">
    <use xlink:href="#rim"/>
    <path pointer-events="none" fill="none" stroke="white" stroke-width="1.5" d="M0,-3.0v7 M-2.5,-0.5L0,-3.0L2.5,-0.5"/>
  </g>
  <g id="resetDef">
    <use xlink:href="#rim2" fill="#404040"><set attributeName="fill" to="#808080" begin="reset.mouseover" end="reset.mouseout"/></use>
  </g>
</defs>
<script type="application/ecmascript">
var viewWidth = 1194;
var viewHeight = 382;
var sectionId = 'dynsection-0';
</script>
<script type="application/ecmascript" xlink:href="svg.min.js"/>
<svg id="graph" class="graph">
<g id="viewport">
<title>source/motion/motor/motor_convert.c</title>
<!-- Node1 -->
<g id="Node000001" class="node">
<title>Node1</title>
<g id="a_Node000001"><a xlink:title=" ">
<polygon fill="#999999" stroke="#666666" points="828,-374 710,-374 710,-340.5 828,-340.5 828,-374"/>
<text xml:space="preserve" text-anchor="start" x="718" y="-360.5" font-family="Helvetica,sans-Serif" font-size="10.00">source/motion/motor</text>
<text xml:space="preserve" text-anchor="middle" x="769" y="-347.75" font-family="Helvetica,sans-Serif" font-size="10.00">/motor_convert.c</text>
</a>
</g>
</g>
<!-- Node2 -->
<g id="Node000002" class="node">
<title>Node2</title>
<g id="a_Node000002"><a xlink:href="motor__convert_8h.html" target="_top" xlink:title=" ">
<polygon fill="white" stroke="#666666" points="771.12,-304.5 674.88,-304.5 674.88,-283.75 771.12,-283.75 771.12,-304.5"/>
<text xml:space="preserve" text-anchor="middle" x="723" y="-291" font-family="Helvetica,sans-Serif" font-size="10.00">motor_convert.h</text>
</a>
</g>
</g>
<!-- Node1&#45;&gt;Node2 -->
<g id="edge1_Node000001_Node000002" class="edge">
<title>Node1&#45;&gt;Node2</title>
<g id="a_edge1_Node000001_Node000002"><a xlink:title=" ">
<path fill="none" stroke="#63b8ff" d="M756.91,-340.19C750.87,-332.16 743.51,-322.38 737.2,-313.99"/>
<polygon fill="#63b8ff" stroke="#63b8ff" points="740.13,-312.06 731.32,-306.18 734.53,-316.27 740.13,-312.06"/>
</a>
</g>
</g>
<!-- Node23 -->
<g id="Node000023" class="node">
<title>Node23</title>
<g id="a_Node000023"><a xlink:href="motor__internal_8h.html" target="_top" xlink:title=" ">
<polygon fill="white" stroke="#666666" points="634.5,-304.5 537.5,-304.5 537.5,-283.75 634.5,-283.75 634.5,-304.5"/>
<text xml:space="preserve" text-anchor="middle" x="586" y="-291" font-family="Helvetica,sans-Serif" font-size="10.00">motor_internal.h</text>
</a>
</g>
</g>
<!-- Node1&#45;&gt;Node23 -->
<g id="edge37_Node000001_Node000023" class="edge">
<title>Node1&#45;&gt;Node23</title>
<g id="a_edge37_Node000001_Node000023"><a xlink:title=" ">
<path fill="none" stroke="#63b8ff" d="M720.44,-340.03C691.03,-330.21 653.97,-317.83 626.21,-308.56"/>
<polygon fill="#63b8ff" stroke="#63b8ff" points="627.34,-305.24 616.75,-305.39 625.12,-311.88 627.34,-305.24"/>
</a>
</g>
</g>
<!-- Node25 -->
<g id="Node000025" class="node">
<title>Node25</title>
<g id="a_Node000025"><a xlink:title=" ">
<polygon fill="#e0e0e0" stroke="#999999" points="842.38,-304.5 789.62,-304.5 789.62,-283.75 842.38,-283.75 842.38,-304.5"/>
<text xml:space="preserve" text-anchor="middle" x="816" y="-291" font-family="Helvetica,sans-Serif" font-size="10.00">limits.h</text>
</a>
</g>
</g>
<!-- Node1&#45;&gt;Node25 -->
<g id="edge42_Node000001_Node000025" class="edge">
<title>Node1&#45;&gt;Node25</title>
<g id="a_edge42_Node000001_Node000025"><a xlink:title=" ">
<path fill="none" stroke="#63b8ff" d="M781.35,-340.19C787.53,-332.16 795.04,-322.38 801.49,-313.99"/>
<polygon fill="#63b8ff" stroke="#63b8ff" points="804.19,-316.23 807.51,-306.17 798.64,-311.96 804.19,-316.23"/>
</a>
</g>
</g>
<!-- Node26 -->
<g id="Node000026" class="node">
<title>Node26</title>
<g id="a_Node000026"><a xlink:title=" ">
<polygon fill="#e0e0e0" stroke="#999999" points="911.25,-304.5 860.75,-304.5 860.75,-283.75 911.25,-283.75 911.25,-304.5"/>
<text xml:space="preserve" text-anchor="middle" x="886" y="-291" font-family="Helvetica,sans-Serif" font-size="10.00">math.h</text>
</a>
</g>
</g>
<!-- Node1&#45;&gt;Node26 -->
<g id="edge43_Node000001_Node000026" class="edge">
<title>Node1&#45;&gt;Node26</title>
<g id="a_edge43_Node000001_Node000026"><a xlink:title=" ">
<path fill="none" stroke="#63b8ff" d="M800.05,-340.03C817.76,-330.77 839.82,-319.25 857.16,-310.19"/>
<polygon fill="#63b8ff" stroke="#63b8ff" points="858.68,-313.35 865.92,-305.62 855.44,-307.14 858.68,-313.35"/>
</a>
</g>
</g>
<!-- Node3 -->
<g id="Node000003" class="node">
<title>Node3</title>
<g id="a_Node000003"><a xlink:href="motor__core_8h.html" target="_top" xlink:title=" ">
<polygon fill="white" stroke="#666666" points="786.25,-247.75 705.75,-247.75 705.75,-227 786.25,-227 786.25,-247.75"/>
<text xml:space="preserve" text-anchor="middle" x="746" y="-234.25" font-family="Helvetica,sans-Serif" font-size="10.00">motor_core.h</text>
</a>
</g>
</g>
<!-- Node2&#45;&gt;Node3 -->
<g id="edge2_Node000002_Node000003" class="edge">
<title>Node2&#45;&gt;Node3</title>
<g id="a_edge2_Node000002_Node000003"><a xlink:title=" ">
<path fill="none" stroke="#63b8ff" d="M727.11,-283.34C729.99,-276.49 733.94,-267.09 737.48,-258.65"/>
<polygon fill="#63b8ff" stroke="#63b8ff" points="740.69,-260.05 741.34,-249.47 734.24,-257.34 740.69,-260.05"/>
</a>
</g>
</g>
<!-- Node4 -->
<g id="Node000004" class="node">
<title>Node4</title>
<g id="a_Node000004"><a xlink:href="pca9555a_8h.html" target="_top" xlink:title=" ">
<polygon fill="white" stroke="#666666" points="1186,-77.5 1032,-77.5 1032,-56.75 1186,-56.75 1186,-77.5"/>
<text xml:space="preserve" text-anchor="middle" x="1109" y="-64" font-family="Helvetica,sans-Serif" font-size="10.00">driver/pca9555a/pca9555a.h</text>
</a>
</g>
</g>
<!-- Node3&#45;&gt;Node4 -->
<g id="edge3_Node000003_Node000004" class="edge">
<title>Node3&#45;&gt;Node4</title>
<g id="a_edge3_Node000003_Node000004"><a xlink:title=" ">
<path fill="none" stroke="#63b8ff" d="M786.55,-233.08C851.52,-227.21 975.45,-213.41 1013,-191 1054.68,-166.13 1085.07,-115.82 1099.54,-87.91"/>
<polygon fill="#63b8ff" stroke="#63b8ff" points="1102.59,-89.64 1103.92,-79.13 1096.32,-86.51 1102.59,-89.64"/>
</a>
</g>
</g>
<!-- Node7 -->
<g id="Node000007" class="node">
<title>Node7</title>
<g id="a_Node000007"><a xlink:title=" ">
<polygon fill="#e0e0e0" stroke="#999999" points="985.38,-191 896.62,-191 896.62,-170.25 985.38,-170.25 985.38,-191"/>
<text xml:space="preserve" text-anchor="middle" x="941" y="-177.5" font-family="Helvetica,sans-Serif" font-size="10.00">MK22F51212.h</text>
</a>
</g>
</g>
<!-- Node3&#45;&gt;Node7 -->
<g id="edge6_Node000003_Node000007" class="edge">
<title>Node3&#45;&gt;Node7</title>
<g id="a_edge6_Node000003_Node000007"><a xlink:title=" ">
<path fill="none" stroke="#63b8ff" d="M780.86,-226.59C812.79,-217.62 860.26,-204.29 895.23,-194.48"/>
<polygon fill="#63b8ff" stroke="#63b8ff" points="895.97,-197.9 904.65,-191.83 894.08,-191.16 895.97,-197.9"/>
</a>
</g>
</g>
<!-- Node8 -->
<g id="Node000008" class="node">
<title>Node8</title>
<g id="a_Node000008"><a xlink:href="step__core_8h.html" target="_top" xlink:title=" ">
<polygon fill="white" stroke="#666666" points="782.12,-191 709.88,-191 709.88,-170.25 782.12,-170.25 782.12,-191"/>
<text xml:space="preserve" text-anchor="middle" x="746" y="-177.5" font-family="Helvetica,sans-Serif" font-size="10.00">step_core.h</text>
</a>
</g>
</g>
<!-- Node3&#45;&gt;Node8 -->
<g id="edge7_Node000003_Node000008" class="edge">
<title>Node3&#45;&gt;Node8</title>
<g id="a_edge7_Node000003_Node000008"><a xlink:title=" ">
<path fill="none" stroke="#63b8ff" d="M746,-226.59C746,-219.97 746,-210.97 746,-202.77"/>
<polygon fill="#63b8ff" stroke="#63b8ff" points="749.5,-202.84 746,-192.84 742.5,-202.84 749.5,-202.84"/>
</a>
</g>
</g>
<!-- Node11 -->
<g id="Node000011" class="node">
<title>Node11</title>
<g id="a_Node000011"><a xlink:title=" ">
<polygon fill="#e0e0e0" stroke="#999999" points="674.38,-77.5 615.62,-77.5 615.62,-56.75 674.38,-56.75 674.38,-77.5"/>
<text xml:space="preserve" text-anchor="middle" x="645" y="-64" font-family="Helvetica,sans-Serif" font-size="10.00">fsl_ftm.h</text>
</a>
</g>
</g>
<!-- Node3&#45;&gt;Node11 -->
<g id="edge34_Node000003_Node000011" class="edge">
<title>Node3&#45;&gt;Node11</title>
<g id="a_edge34_Node000003_Node000011"><a xlink:title=" ">
<path fill="none" stroke="#63b8ff" d="M734.12,-226.52C724.29,-217.91 710.47,-204.68 701,-191 678.18,-158.03 660.86,-114.28 651.87,-88.86"/>
<polygon fill="#63b8ff" stroke="#63b8ff" points="655.19,-87.74 648.63,-79.41 648.57,-90.01 655.19,-87.74"/>
</a>
</g>
</g>
<!-- Node12 -->
<g id="Node000012" class="node">
<title>Node12</title>
<g id="a_Node000012"><a xlink:title=" ">
<polygon fill="#e0e0e0" stroke="#999999" points="933.62,-77.5 870.38,-77.5 870.38,-56.75 933.62,-56.75 933.62,-77.5"/>
<text xml:space="preserve" text-anchor="middle" x="902" y="-64" font-family="Helvetica,sans-Serif" font-size="10.00">fsl_gpio.h</text>
</a>
</g>
</g>
<!-- Node3&#45;&gt;Node12 -->
<g id="edge35_Node000003_Node000012" class="edge">
<title>Node3&#45;&gt;Node12</title>
<g id="a_edge35_Node000003_Node000012"><a xlink:title=" ">
<path fill="none" stroke="#63b8ff" d="M774.63,-226.55C810.82,-212.43 871.69,-182.64 899,-134.25 906.7,-120.61 907.05,-102.75 905.7,-89.03"/>
<polygon fill="#63b8ff" stroke="#63b8ff" points="909.19,-88.76 904.34,-79.34 902.26,-89.73 909.19,-88.76"/>
</a>
</g>
</g>
<!-- Node13 -->
<g id="Node000013" class="node">
<title>Node13</title>
<g id="a_Node000013"><a xlink:title=" ">
<polygon fill="#e0e0e0" stroke="#999999" points="1013.88,-77.5 952.12,-77.5 952.12,-56.75 1013.88,-56.75 1013.88,-77.5"/>
<text xml:space="preserve" text-anchor="middle" x="983" y="-64" font-family="Helvetica,sans-Serif" font-size="10.00">fsl_port.h</text>
</a>
</g>
</g>
<!-- Node3&#45;&gt;Node13 -->
<g id="edge36_Node000003_Node000013" class="edge">
<title>Node3&#45;&gt;Node13</title>
<g id="a_edge36_Node000003_Node000013"><a xlink:title=" ">
<path fill="none" stroke="#63b8ff" d="M786.66,-235.02C850.11,-231.95 968.07,-222.1 994,-191 1018.13,-162.05 1003.89,-114.85 992.63,-88.16"/>
<polygon fill="#63b8ff" stroke="#63b8ff" points="995.88,-86.85 988.58,-79.16 989.49,-89.72 995.88,-86.85"/>
</a>
</g>
</g>
<!-- Node20 -->
<g id="Node000020" class="node">
<title>Node20</title>
<g id="a_Node000020"><a xlink:href="tmc2209__core_8h.html" target="_top" xlink:title=" ">
<polygon fill="white" stroke="#666666" points="420,-191 326,-191 326,-170.25 420,-170.25 420,-191"/>
<text xml:space="preserve" text-anchor="middle" x="373" y="-177.5" font-family="Helvetica,sans-Serif" font-size="10.00">tmc2209_core.h</text>
</a>
</g>
</g>
<!-- Node3&#45;&gt;Node20 -->
<g id="edge28_Node000003_Node000020" class="edge">
<title>Node3&#45;&gt;Node20</title>
<g id="a_edge28_Node000003_Node000020"><a xlink:title=" ">
<path fill="none" stroke="#63b8ff" d="M705.37,-230.41C639.19,-220.7 507.86,-201.42 431.59,-190.22"/>
<polygon fill="#63b8ff" stroke="#63b8ff" points="432.19,-186.78 421.79,-188.79 431.18,-193.7 432.19,-186.78"/>
</a>
</g>
</g>
<!-- Node5 -->
<g id="Node000005" class="node">
<title>Node5</title>
<g id="a_Node000005"><a xlink:title=" ">
<polygon fill="#e0e0e0" stroke="#999999" points="630.5,-20.75 545.5,-20.75 545.5,0 630.5,0 630.5,-20.75"/>
<text xml:space="preserve" text-anchor="middle" x="588" y="-7.25" font-family="Helvetica,sans-Serif" font-size="10.00">fsl_common.h</text>
</a>
</g>
</g>
<!-- Node4&#45;&gt;Node5 -->
<g id="edge4_Node000004_Node000005" class="edge">
<title>Node4&#45;&gt;Node5</title>
<g id="a_edge4_Node000004_Node000005"><a xlink:title=" ">
<path fill="none" stroke="#63b8ff" d="M1031.65,-57.68C1028.73,-57.36 1025.84,-57.05 1023,-56.75 885.95,-42.13 724.55,-25.43 642.24,-16.95"/>
<polygon fill="#63b8ff" stroke="#63b8ff" points="642.73,-13.48 632.42,-15.94 642.01,-20.45 642.73,-13.48"/>
</a>
</g>
</g>
<!-- Node6 -->
<g id="Node000006" class="node">
<title>Node6</title>
<g id="a_Node000006"><a xlink:title=" ">
<polygon fill="#e0e0e0" stroke="#999999" points="937.88,-20.75 858.12,-20.75 858.12,0 937.88,0 937.88,-20.75"/>
<text xml:space="preserve" text-anchor="middle" x="898" y="-7.25" font-family="Helvetica,sans-Serif" font-size="10.00">peripherals.h</text>
</a>
</g>
</g>
<!-- Node4&#45;&gt;Node6 -->
<g id="edge5_Node000004_Node000006" class="edge">
<title>Node4&#45;&gt;Node6</title>
<g id="a_edge5_Node000004_Node000006"><a xlink:title=" ">
<path fill="none" stroke="#63b8ff" d="M1071.28,-56.34C1036.43,-47.29 984.47,-33.81 946.54,-23.97"/>
<polygon fill="#63b8ff" stroke="#63b8ff" points="947.77,-20.67 937.22,-21.55 946.02,-27.45 947.77,-20.67"/>
</a>
</g>
</g>
<!-- Node8&#45;&gt;Node4 -->
<g id="edge8_Node000008_Node000004" class="edge">
<title>Node8&#45;&gt;Node4</title>
<g id="a_edge8_Node000008_Node000004"><a xlink:title=" ">
<path fill="none" stroke="#63b8ff" d="M782.43,-171.82C819.59,-163.58 878.77,-149.65 929,-134.25 980.34,-118.5 1038.45,-96.35 1074.41,-82.11"/>
<polygon fill="#63b8ff" stroke="#63b8ff" points="1075.43,-85.47 1083.42,-78.52 1072.84,-78.97 1075.43,-85.47"/>
</a>
</g>
</g>
<!-- Node8&#45;&gt;Node5 -->
<g id="edge11_Node000008_Node000005" class="edge">
<title>Node8&#45;&gt;Node5</title>
<g id="a_edge11_Node000008_Node000005"><a xlink:title=" ">
<path fill="none" stroke="#63b8ff" d="M724.04,-169.78C692.88,-154.62 636.35,-122.53 607,-77.5 598.11,-63.86 593.3,-46.01 590.75,-32.29"/>
<polygon fill="#63b8ff" stroke="#63b8ff" points="594.23,-31.92 589.22,-22.58 587.32,-33.01 594.23,-31.92"/>
</a>
</g>
</g>
<!-- Node9 -->
<g id="Node000009" class="node">
<title>Node9</title>
<g id="a_Node000009"><a xlink:title=" ">
<polygon fill="#e0e0e0" stroke="#999999" points="521.75,-77.5 450.25,-77.5 450.25,-56.75 521.75,-56.75 521.75,-77.5"/>
<text xml:space="preserve" text-anchor="middle" x="486" y="-64" font-family="Helvetica,sans-Serif" font-size="10.00">FreeRTOS.h</text>
</a>
</g>
</g>
<!-- Node8&#45;&gt;Node9 -->
<g id="edge9_Node000008_Node000009" class="edge">
<title>Node8&#45;&gt;Node9</title>
<g id="a_edge9_Node000008_Node000009"><a xlink:title=" ">
<path fill="none" stroke="#63b8ff" d="M717.61,-169.89C692.7,-161.15 655.62,-147.67 624,-134.25 585.79,-118.03 542.81,-96.97 515.12,-83.03"/>
<polygon fill="#63b8ff" stroke="#63b8ff" points="516.8,-79.96 506.3,-78.56 513.64,-86.2 516.8,-79.96"/>
</a>
</g>
</g>
<!-- Node10 -->
<g id="Node000010" class="node">
<title>Node10</title>
<g id="a_Node000010"><a xlink:title=" ">
<polygon fill="#e0e0e0" stroke="#999999" points="890,-134.25 844,-134.25 844,-113.5 890,-113.5 890,-134.25"/>
<text xml:space="preserve" text-anchor="middle" x="867" y="-120.75" font-family="Helvetica,sans-Serif" font-size="10.00">task.h</text>
</a>
</g>
</g>
<!-- Node8&#45;&gt;Node10 -->
<g id="edge10_Node000008_Node000010" class="edge">
<title>Node8&#45;&gt;Node10</title>
<g id="a_edge10_Node000008_Node000010"><a xlink:title=" ">
<path fill="none" stroke="#63b8ff" d="M767.63,-169.84C786.47,-161.31 814.04,-148.84 835.36,-139.19"/>
<polygon fill="#63b8ff" stroke="#63b8ff" points="836.51,-142.51 844.18,-135.2 833.62,-136.14 836.51,-142.51"/>
</a>
</g>
</g>
<!-- Node8&#45;&gt;Node11 -->
<g id="edge12_Node000008_Node000011" class="edge">
<title>Node8&#45;&gt;Node11</title>
<g id="a_edge12_Node000008_Node000011"><a xlink:title=" ">
<path fill="none" stroke="#63b8ff" d="M733.64,-169.8C722.91,-161 707.22,-147.49 695,-134.25 681.15,-119.25 667.3,-100.57 657.7,-86.9"/>
<polygon fill="#63b8ff" stroke="#63b8ff" points="660.68,-85.05 652.12,-78.8 654.91,-89.02 660.68,-85.05"/>
</a>
</g>
</g>
<!-- Node8&#45;&gt;Node12 -->
<g id="edge13_Node000008_Node000012" class="edge">
<title>Node8&#45;&gt;Node12</title>
<g id="a_edge13_Node000008_Node000012"><a xlink:title=" ">
<path fill="none" stroke="#63b8ff" d="M758.84,-169.81C776.03,-156.74 807.53,-132.99 835,-113.5 849.01,-103.56 864.93,-92.76 877.73,-84.19"/>
<polygon fill="#63b8ff" stroke="#63b8ff" points="879.6,-87.15 885.98,-78.7 875.71,-81.33 879.6,-87.15"/>
</a>
</g>
</g>
<!-- Node8&#45;&gt;Node13 -->
<g id="edge14_Node000008_Node000013" class="edge">
<title>Node8&#45;&gt;Node13</title>
<g id="a_edge14_Node000008_Node000013"><a xlink:title=" ">
<path fill="none" stroke="#63b8ff" d="M782.4,-172.9C814.36,-166.06 861.48,-153.67 899,-134.25 924.31,-121.15 949.48,-99.97 965.57,-85.12"/>
<polygon fill="#63b8ff" stroke="#63b8ff" points="967.55,-88.06 972.42,-78.65 962.75,-82.98 967.55,-88.06"/>
</a>
</g>
</g>
<!-- Node14 -->
<g id="Node000014" class="node">
<title>Node14</title>
<g id="a_Node000014"><a xlink:href="cmd__handle_8h.html" target="_top" xlink:title=" ">
<polygon fill="white" stroke="#666666" points="431.12,-134.25 346.88,-134.25 346.88,-113.5 431.12,-113.5 431.12,-134.25"/>
<text xml:space="preserve" text-anchor="middle" x="389" y="-120.75" font-family="Helvetica,sans-Serif" font-size="10.00">cmd_handle.h</text>
</a>
</g>
</g>
<!-- Node8&#45;&gt;Node14 -->
<g id="edge15_Node000008_Node000014" class="edge">
<title>Node8&#45;&gt;Node14</title>
<g id="a_edge15_Node000008_Node000014"><a xlink:title=" ">
<path fill="none" stroke="#63b8ff" d="M709.47,-174.02C646.3,-164.33 516.36,-144.41 442.82,-133.13"/>
<polygon fill="#63b8ff" stroke="#63b8ff" points="443.44,-129.68 433.02,-131.63 442.38,-136.6 443.44,-129.68"/>
</a>
</g>
</g>
<!-- Node18 -->
<g id="Node000018" class="node">
<title>Node18</title>
<g id="a_Node000018"><a xlink:href="step__shared_8h.html" target="_top" xlink:title=" ">
<polygon fill="white" stroke="#666666" points="788.12,-134.25 703.88,-134.25 703.88,-113.5 788.12,-113.5 788.12,-134.25"/>
<text xml:space="preserve" text-anchor="middle" x="746" y="-120.75" font-family="Helvetica,sans-Serif" font-size="10.00">step_shared.h</text>
</a>
</g>
</g>
<!-- Node8&#45;&gt;Node18 -->
<g id="edge21_Node000008_Node000018" class="edge">
<title>Node8&#45;&gt;Node18</title>
<g id="a_edge21_Node000008_Node000018"><a xlink:title=" ">
<path fill="none" stroke="#63b8ff" d="M746,-169.84C746,-163.22 746,-154.22 746,-146.02"/>
<polygon fill="#63b8ff" stroke="#63b8ff" points="749.5,-146.09 746,-136.09 742.5,-146.09 749.5,-146.09"/>
</a>
</g>
</g>
<!-- Node14&#45;&gt;Node5 -->
<g id="edge19_Node000014_Node000005" class="edge">
<title>Node14&#45;&gt;Node5</title>
<g id="a_edge19_Node000014_Node000005"><a xlink:title=" ">
<path fill="none" stroke="#63b8ff" d="M346.6,-122.18C275.74,-119.61 145.28,-108 191,-56.75 213.43,-31.61 430.43,-18.5 533.78,-13.63"/>
<polygon fill="#63b8ff" stroke="#63b8ff" points="533.87,-17.13 543.7,-13.18 533.55,-10.14 533.87,-17.13"/>
</a>
</g>
</g>
<!-- Node14&#45;&gt;Node9 -->
<g id="edge17_Node000014_Node000009" class="edge">
<title>Node14&#45;&gt;Node9</title>
<g id="a_edge17_Node000014_Node000009"><a xlink:title=" ">
<path fill="none" stroke="#63b8ff" d="M406.34,-113.09C420.96,-104.83 442.14,-92.88 458.98,-83.38"/>
<polygon fill="#63b8ff" stroke="#63b8ff" points="460.5,-86.54 467.49,-78.57 457.06,-80.44 460.5,-86.54"/>
</a>
</g>
</g>
<!-- Node15 -->
<g id="Node000015" class="node">
<title>Node15</title>
<g id="a_Node000015"><a xlink:title=" ">
<polygon fill="#e0e0e0" stroke="#999999" points="432.38,-77.5 379.62,-77.5 379.62,-56.75 432.38,-56.75 432.38,-77.5"/>
<text xml:space="preserve" text-anchor="middle" x="406" y="-64" font-family="Helvetica,sans-Serif" font-size="10.00">stdint.h</text>
</a>
</g>
</g>
<!-- Node14&#45;&gt;Node15 -->
<g id="edge16_Node000014_Node000015" class="edge">
<title>Node14&#45;&gt;Node15</title>
<g id="a_edge16_Node000014_Node000015"><a xlink:title=" ">
<path fill="none" stroke="#63b8ff" d="M392.04,-113.09C394.14,-106.31 397.02,-97.05 399.61,-88.69"/>
<polygon fill="#63b8ff" stroke="#63b8ff" points="402.92,-89.86 402.54,-79.27 396.23,-87.79 402.92,-89.86"/>
</a>
</g>
</g>
<!-- Node16 -->
<g id="Node000016" class="node">
<title>Node16</title>
<g id="a_Node000016"><a xlink:title=" ">
<polygon fill="#e0e0e0" stroke="#999999" points="291.5,-77.5 200.5,-77.5 200.5,-56.75 291.5,-56.75 291.5,-77.5"/>
<text xml:space="preserve" text-anchor="middle" x="246" y="-64" font-family="Helvetica,sans-Serif" font-size="10.00">event_groups.h</text>
</a>
</g>
</g>
<!-- Node14&#45;&gt;Node16 -->
<g id="edge18_Node000014_Node000016" class="edge">
<title>Node14&#45;&gt;Node16</title>
<g id="a_edge18_Node000014_Node000016"><a xlink:title=" ">
<path fill="none" stroke="#63b8ff" d="M363.43,-113.09C340.76,-104.41 307.4,-91.63 282.02,-81.92"/>
<polygon fill="#63b8ff" stroke="#63b8ff" points="283.35,-78.68 272.76,-78.37 280.85,-85.21 283.35,-78.68"/>
</a>
</g>
</g>
<!-- Node17 -->
<g id="Node000017" class="node">
<title>Node17</title>
<g id="a_Node000017"><a xlink:title=" ">
<polygon fill="#e0e0e0" stroke="#999999" points="362,-77.5 310,-77.5 310,-56.75 362,-56.75 362,-77.5"/>
<text xml:space="preserve" text-anchor="middle" x="336" y="-64" font-family="Helvetica,sans-Serif" font-size="10.00">stdlib.h</text>
</a>
</g>
</g>
<!-- Node14&#45;&gt;Node17 -->
<g id="edge20_Node000014_Node000017" class="edge">
<title>Node14&#45;&gt;Node17</title>
<g id="a_edge20_Node000014_Node000017"><a xlink:title=" ">
<path fill="none" stroke="#63b8ff" d="M379.52,-113.09C372.21,-105.53 361.91,-94.89 353.16,-85.85"/>
<polygon fill="#63b8ff" stroke="#63b8ff" points="355.92,-83.67 346.45,-78.92 350.89,-88.54 355.92,-83.67"/>
</a>
</g>
</g>
<!-- Node18&#45;&gt;Node4 -->
<g id="edge22_Node000018_Node000004" class="edge">
<title>Node18&#45;&gt;Node4</title>
<g id="a_edge22_Node000018_Node000004"><a xlink:title=" ">
<path fill="none" stroke="#63b8ff" d="M788.35,-116.49C848.12,-107.47 958.21,-90.87 1032.51,-79.66"/>
<polygon fill="#63b8ff" stroke="#63b8ff" points="1032.79,-83.16 1042.16,-78.21 1031.75,-76.24 1032.79,-83.16"/>
</a>
</g>
</g>
<!-- Node18&#45;&gt;Node5 -->
<g id="edge24_Node000018_Node000005" class="edge">
<title>Node18&#45;&gt;Node5</title>
<g id="a_edge24_Node000018_Node000005"><a xlink:title=" ">
<path fill="none" stroke="#63b8ff" d="M738.75,-113.28C727.86,-99.39 706.1,-73.51 683,-56.75 665.4,-43.98 643.64,-33.28 625.38,-25.48"/>
<polygon fill="#63b8ff" stroke="#63b8ff" points="626.8,-22.28 616.22,-21.7 624.13,-28.75 626.8,-22.28"/>
</a>
</g>
</g>
<!-- Node18&#45;&gt;Node11 -->
<g id="edge25_Node000018_Node000011" class="edge">
<title>Node18&#45;&gt;Node11</title>
<g id="a_edge25_Node000018_Node000011"><a xlink:title=" ">
<path fill="none" stroke="#63b8ff" d="M727.94,-113.09C712.58,-104.76 690.26,-92.66 672.64,-83.11"/>
<polygon fill="#63b8ff" stroke="#63b8ff" points="674.69,-80.24 664.23,-78.55 671.35,-86.39 674.69,-80.24"/>
</a>
</g>
</g>
<!-- Node18&#45;&gt;Node12 -->
<g id="edge26_Node000018_Node000012" class="edge">
<title>Node18&#45;&gt;Node12</title>
<g id="a_edge26_Node000018_Node000012"><a xlink:title=" ">
<path fill="none" stroke="#63b8ff" d="M773.89,-113.09C798.88,-104.32 835.77,-91.37 863.56,-81.62"/>
<polygon fill="#63b8ff" stroke="#63b8ff" points="864.38,-85.04 872.66,-78.42 862.07,-78.43 864.38,-85.04"/>
</a>
</g>
</g>
<!-- Node18&#45;&gt;Node13 -->
<g id="edge27_Node000018_Node000013" class="edge">
<title>Node18&#45;&gt;Node13</title>
<g id="a_edge27_Node000018_Node000013"><a xlink:title=" ">
<path fill="none" stroke="#63b8ff" d="M788.28,-113.19C825.84,-104.57 882.54,-91.53 941.05,-77.95"/>
<polygon fill="#63b8ff" stroke="#63b8ff" points="941.57,-81.42 950.52,-75.75 939.99,-74.6 941.57,-81.42"/>
</a>
</g>
</g>
<!-- Node19 -->
<g id="Node000019" class="node">
<title>Node19</title>
<g id="a_Node000019"><a xlink:title=" ">
<polygon fill="#e0e0e0" stroke="#999999" points="852.25,-77.5 729.75,-77.5 729.75,-56.75 852.25,-56.75 852.25,-77.5"/>
<text xml:space="preserve" text-anchor="middle" x="791" y="-64" font-family="Helvetica,sans-Serif" font-size="10.00">fsl_device_registers.h</text>
</a>
</g>
</g>
<!-- Node18&#45;&gt;Node19 -->
<g id="edge23_Node000018_Node000019" class="edge">
<title>Node18&#45;&gt;Node19</title>
<g id="a_edge23_Node000018_Node000019"><a xlink:title=" ">
<path fill="none" stroke="#63b8ff" d="M754.05,-113.09C760.06,-105.77 768.47,-95.54 775.74,-86.69"/>
<polygon fill="#63b8ff" stroke="#63b8ff" points="778.42,-88.95 782.06,-79 773.01,-84.5 778.42,-88.95"/>
</a>
</g>
</g>
<!-- Node20&#45;&gt;Node5 -->
<g id="edge31_Node000020_Node000005" class="edge">
<title>Node20&#45;&gt;Node5</title>
<g id="a_edge31_Node000020_Node000005"><a xlink:title=" ">
<path fill="none" stroke="#63b8ff" d="M327.26,-169.81C255.14,-152.36 128.08,-112.5 178,-56.75 201.34,-30.68 427.97,-17.97 533.92,-13.42"/>
<polygon fill="#63b8ff" stroke="#63b8ff" points="533.95,-16.92 543.79,-13 533.65,-9.92 533.95,-16.92"/>
</a>
</g>
</g>
<!-- Node20&#45;&gt;Node6 -->
<g id="edge33_Node000020_Node000006" class="edge">
<title>Node20&#45;&gt;Node6</title>
<g id="a_edge33_Node000020_Node000006"><a xlink:title=" ">
<path fill="none" stroke="#63b8ff" d="M387.56,-169.76C423.24,-146.11 518.56,-85.97 607,-56.75 688.25,-29.91 787.62,-18.77 846.7,-14.27"/>
<polygon fill="#63b8ff" stroke="#63b8ff" points="846.73,-17.78 856.46,-13.57 846.23,-10.8 846.73,-17.78"/>
</a>
</g>
</g>
<!-- Node20&#45;&gt;Node14 -->
<g id="edge32_Node000020_Node000014" class="edge">
<title>Node20&#45;&gt;Node14</title>
<g id="a_edge32_Node000020_Node000014"><a xlink:title=" ">
<path fill="none" stroke="#63b8ff" d="M375.86,-169.84C377.84,-163.06 380.55,-153.8 382.99,-145.44"/>
<polygon fill="#63b8ff" stroke="#63b8ff" points="386.29,-146.61 385.74,-136.03 379.58,-144.65 386.29,-146.61"/>
</a>
</g>
</g>
<!-- Node21 -->
<g id="Node000021" class="node">
<title>Node21</title>
<g id="a_Node000021"><a xlink:href="tmc2209__shared_8h.html" target="_top" xlink:title=" ">
<polygon fill="white" stroke="#666666" points="106,-134.25 0,-134.25 0,-113.5 106,-113.5 106,-134.25"/>
<text xml:space="preserve" text-anchor="middle" x="53" y="-120.75" font-family="Helvetica,sans-Serif" font-size="10.00">tmc2209_shared.h</text>
</a>
</g>
</g>
<!-- Node20&#45;&gt;Node21 -->
<g id="edge29_Node000020_Node000021" class="edge">
<title>Node20&#45;&gt;Node21</title>
<g id="a_edge29_Node000020_Node000021"><a xlink:title=" ">
<path fill="none" stroke="#63b8ff" d="M325.78,-171.55C270.63,-162.11 179.09,-146.45 117.43,-135.9"/>
<polygon fill="#63b8ff" stroke="#63b8ff" points="118.22,-132.48 107.78,-134.25 117.04,-139.38 118.22,-132.48"/>
</a>
</g>
</g>
<!-- Node22 -->
<g id="Node000022" class="node">
<title>Node22</title>
<g id="a_Node000022"><a xlink:title=" ">
<polygon fill="#e0e0e0" stroke="#999999" points="105.62,-77.5 0.38,-77.5 0.38,-56.75 105.62,-56.75 105.62,-77.5"/>
<text xml:space="preserve" text-anchor="middle" x="53" y="-64" font-family="Helvetica,sans-Serif" font-size="10.00">fsl_uart_freertos.h</text>
</a>
</g>
</g>
<!-- Node21&#45;&gt;Node22 -->
<g id="edge30_Node000021_Node000022" class="edge">
<title>Node21&#45;&gt;Node22</title>
<g id="a_edge30_Node000021_Node000022"><a xlink:title=" ">
<path fill="none" stroke="#63b8ff" d="M53,-113.09C53,-106.47 53,-97.47 53,-89.27"/>
<polygon fill="#63b8ff" stroke="#63b8ff" points="56.5,-89.34 53,-79.34 49.5,-89.34 56.5,-89.34"/>
</a>
</g>
</g>
<!-- Node23&#45;&gt;Node3 -->
<g id="edge38_Node000023_Node000003" class="edge">
<title>Node23&#45;&gt;Node3</title>
<g id="a_edge38_Node000023_Node000003"><a xlink:title=" ">
<path fill="none" stroke="#63b8ff" d="M614.6,-283.34C640.24,-274.57 678.07,-261.62 706.57,-251.87"/>
<polygon fill="#63b8ff" stroke="#63b8ff" points="707.61,-255.21 715.94,-248.66 705.35,-248.59 707.61,-255.21"/>
</a>
</g>
</g>
<!-- Node23&#45;&gt;Node9 -->
<g id="edge39_Node000023_Node000009" class="edge">
<title>Node23&#45;&gt;Node9</title>
<g id="a_edge39_Node000023_Node000009"><a xlink:title=" ">
<path fill="none" stroke="#63b8ff" d="M576.67,-283.36C568.72,-274.61 557.41,-261.12 550,-247.75 520.11,-193.86 499.85,-123.37 491.02,-88.92"/>
<polygon fill="#63b8ff" stroke="#63b8ff" points="494.47,-88.27 488.65,-79.42 487.67,-89.97 494.47,-88.27"/>
</a>
</g>
</g>
<!-- Node23&#45;&gt;Node14 -->
<g id="edge41_Node000023_Node000014" class="edge">
<title>Node23&#45;&gt;Node14</title>
<g id="a_edge41_Node000023_Node000014"><a xlink:title=" ">
<path fill="none" stroke="#63b8ff" d="M542.15,-283.29C519.2,-276.39 491.83,-265.2 472,-247.75 442.43,-221.73 451.71,-202.43 429,-170.25 422.23,-160.65 413.73,-150.77 406.32,-142.7"/>
<polygon fill="#63b8ff" stroke="#63b8ff" points="408.99,-140.43 399.59,-135.55 403.9,-145.23 408.99,-140.43"/>
</a>
</g>
</g>
<!-- Node24 -->
<g id="Node000024" class="node">
<title>Node24</title>
<g id="a_Node000024"><a xlink:title=" ">
<polygon fill="#e0e0e0" stroke="#999999" points="613.5,-247.75 558.5,-247.75 558.5,-227 613.5,-227 613.5,-247.75"/>
<text xml:space="preserve" text-anchor="middle" x="586" y="-234.25" font-family="Helvetica,sans-Serif" font-size="10.00">queue.h</text>
</a>
</g>
</g>
<!-- Node23&#45;&gt;Node24 -->
<g id="edge40_Node000023_Node000024" class="edge">
<title>Node23&#45;&gt;Node24</title>
<g id="a_edge40_Node000023_Node000024"><a xlink:title=" ">
<path fill="none" stroke="#63b8ff" d="M586,-283.34C586,-276.72 586,-267.72 586,-259.52"/>
<polygon fill="#63b8ff" stroke="#63b8ff" points="589.5,-259.59 586,-249.59 582.5,-259.59 589.5,-259.59"/>
</a>
</g>
</g>
</g>
</svg>

<g id="navigator" transform="translate(0 0)" fill="#404254">
  <rect fill="#f2f5e9" fill-opacity="0.5" stroke="#606060" stroke-width=".5" x="0" y="0" width="60" height="60"/>
  <use id="zoomplus" xlink:href="#zoomPlus" x="17" y="9" onmousedown="handleZoom(evt,'in')"/>
  <use id="zoomminus" xlink:href="#zoomMin" x="42" y="9" onmousedown="handleZoom(evt,'out')"/>
  <use id="reset" xlink:href="#resetDef" x="30" y="36" onmousedown="handleReset()"/>
   <use id="arrowup" xlink:href="#arrowUp" x="0" y="0" onmousedown="handlePan(0,-1)"/>
  <use id="arrowright" xlink:href="#arrowRight" x="0" y="0" onmousedown="handlePan(1,0)"/>
  <use id="arrowdown" xlink:href="#arrowDown" x="0" y="0" onmousedown="handlePan(0,1)"/>
  <use id="arrowleft" xlink:href="#arrowLeft" x="0" y="0" onmousedown="handlePan(-1,0)"/>
</g>
<svg viewBox="0 0 15 15" width="100%" height="30px" preserveAspectRatio="xMaxYMin meet">
 <g id="arrow_out" transform="scale(0.3 0.3)">
  <a xlink:href="motor__convert_8c__incl_org.svg" target="_base">
   <rect id="button" ry="5" rx="5" y="6" x="6" height="38" width="38"
        fill="#f2f5e9" fill-opacity="0.5" stroke="#606060" stroke-width="1.0"/>
   <path id="arrow"
     d="M 11.500037,31.436501 C 11.940474,20.09759 22.043105,11.32322 32.158766,21.979434 L 37.068811,17.246167 C 37.068811,17.246167 37.088388,32 37.088388,32 L 22.160133,31.978069 C 22.160133,31.978069 26.997745,27.140456 26.997745,27.140456 C 18.528582,18.264221 13.291696,25.230495 11.500037,31.436501 z"
     style="fill:#404040;"/>
  </a>
 </g>
</svg>

<style type='text/css'>
<![CDATA[
[data-mouse-over-selected='false'] { opacity: 0.7; }
[data-mouse-over-selected='true']  { opacity: 1.0; }
]]>
</style>
<script type="application/ecmascript"><![CDATA[
document.addEventListener('DOMContentLoaded', (event) => {
  highlightEdges();
  highlightAdjacentNodes();
});
]]></script>
</svg>
