<?xml version="1.0" encoding="UTF-8" standalone="no"?>
<!DOCTYPE svg PUBLIC "-//W3C//DTD SVG 1.1//EN"
 "http://www.w3.org/Graphics/SVG/1.1/DTD/svg11.dtd">
<!-- Generated by graphviz version 14.1.4 (0)
 -->
<!-- Title: source/motion/motor/motor_motion.c Pages: 1 -->
<!--zoomable 439 -->

<svg id="main" version="1.1" xmlns="http://www.w3.org/2000/svg" xmlns:xlink="http://www.w3.org/1999/xlink" xml:space="preserve" onload="init(evt)">

<style type="text/css"><![CDATA[
.node, .edge {opacity: 0.7;}
.node.selected, .edge.selected {opacity: 1;}
.edge:hover path { stroke: red; }
.edge:hover polygon { stroke: red; fill: red; }
]]></style>

<defs>
  <circle id="rim" cx="0" cy="0" r="7"/>
  <circle id="rim2" cx="0" cy="0" r="3.5"/>
  <g id="zoomPlus">
    <use xlink:href="#rim" fill="#404040"><set attributeName="fill" to="#808080" begin="zoomplus.mouseover" end="zoomplus.mouseout"/></use>
    <path d="M-4,0h8M0,-4v8" fill="none" stroke="white" stroke-width="1.5" pointer-events="none"/>
  </g>
  <g id="zoomMin">
    <use xlink:href="#rim" fill="#404040"><set attributeName="fill" to="#808080" begin="zoomminus.mouseover" end="zoomminus.mouseout"/></use>
    <path d="M-4,0h8" fill="none" stroke="white" stroke-width="1.5" pointer-events="none"/>
  </g>
  <g id="arrowUp" transform="translate(30 24)">
    <use xlink:href="#rim"/>
    <path pointer-events="none" fill="none" stroke="white" stroke-width="1.5" d="M0,-3.0v7 M-2.5,-0.5L0,-3.0L2.5,-0.5"/>
  </g>
  <g id="arrowRight" transform="rotate(90) translate(36 -43)">
    <use xlink:href="#rim"/>
    <path pointer-events="none" fill="none" stroke="white" stroke-width="1.5" d="M0,-3.0v7 M-2.5,-0.5L0,-3.0L2.5,-0.5"/>
  </g>
  <g id="arrowDown" transform="rotate(180) translate(-30 -48)">
    <use xlink:href="#rim"/>
    <path pointer-events="none" fill="none" stroke="white" stroke-width="1.5" d="M0,-3.0v7 M-2.5,-0.5L0,-3.0L2.5,-0.5"/>
  </g>
  <g id="arrowLeft" transform="rotate(270) translate(-36 17)">
    <use xlink:href="#rim"/>
    <path pointer-events="none" fill="none" stroke="white" stroke-width="1.5" d="M0,-3.0v7 M-2.5,-0.5L0,-3.0L2.5,-0.5"/>
  </g>
  <g id="resetDef">
    <use xlink:href="#rim2" fill="#404040"><set attributeName="fill" to="#808080" begin="reset.mouseover" end="reset.mouseout"/></use>
  </g>
</defs>
<script type="application/ecmascript">
var viewWidth = 1279;
var viewHeight = 439;
var sectionId = 'dynsection-0';
</script>
<script type="application/ecmascript" xlink:href="svg.min.js"/>
<svg id="graph" class="graph">
<g id="viewport">
<title>source/motion/motor/motor_motion.c</title>
<!-- Node1 -->
<g id="Node000001" class="node">
<title>Node1</title>
<g id="a_Node000001"><a xlink:title=" ">
<polygon fill="#999999" stroke="#666666" points="1120,-430.75 1002,-430.75 1002,-397.25 1120,-397.25 1120,-430.75"/>
<text xml:space="preserve" text-anchor="start" x="1010" y="-417.25" font-family="Helvetica,sans-Serif" font-size="10.00">source/motion/motor</text>
<text xml:space="preserve" text-anchor="middle" x="1061" y="-404.5" font-family="Helvetica,sans-Serif" font-size="10.00">/motor_motion.c</text>
</a>
</g>
</g>
<!-- Node2 -->
<g id="Node000002" class="node">
<title>Node2</title>
<g id="a_Node000002"><a xlink:href="motor__motion_8h.html" target="_top" xlink:title=" ">
<polygon fill="white" stroke="#666666" points="701,-361.25 607,-361.25 607,-340.5 701,-340.5 701,-361.25"/>
<text xml:space="preserve" text-anchor="middle" x="654" y="-347.75" font-family="Helvetica,sans-Serif" font-size="10.00">motor_motion.h</text>
</a>
</g>
</g>
<!-- Node1&#45;&gt;Node2 -->
<g id="edge1_Node000001_Node000002" class="edge">
<title>Node1&#45;&gt;Node2</title>
<g id="a_edge1_Node000001_Node000002"><a xlink:title=" ">
<path fill="none" stroke="#63b8ff" d="M1001.82,-404.11C924.28,-392.47 789.14,-372.17 712.13,-360.61"/>
<polygon fill="#63b8ff" stroke="#63b8ff" points="713.11,-357.21 702.7,-359.19 712.07,-364.14 713.11,-357.21"/>
</a>
</g>
</g>
<!-- Node8 -->
<g id="Node000008" class="node">
<title>Node8</title>
<g id="a_Node000008"><a xlink:href="step__core_8h.html" target="_top" xlink:title=" ">
<polygon fill="white" stroke="#666666" points="907.12,-191 834.88,-191 834.88,-170.25 907.12,-170.25 907.12,-191"/>
<text xml:space="preserve" text-anchor="middle" x="871" y="-177.5" font-family="Helvetica,sans-Serif" font-size="10.00">step_core.h</text>
</a>
</g>
</g>
<!-- Node1&#45;&gt;Node8 -->
<g id="edge46_Node000001_Node000008" class="edge">
<title>Node1&#45;&gt;Node8</title>
<g id="a_edge46_Node000001_Node000008"><a xlink:title=" ">
<path fill="none" stroke="#63b8ff" d="M1047.94,-397.1C1013.8,-355.52 922.04,-243.78 885.91,-199.79"/>
<polygon fill="#63b8ff" stroke="#63b8ff" points="888.73,-197.7 879.68,-192.19 883.32,-202.14 888.73,-197.7"/>
</a>
</g>
</g>
<!-- Node24 -->
<g id="Node000024" class="node">
<title>Node24</title>
<g id="a_Node000024"><a xlink:href="motor__convert_8h.html" target="_top" xlink:title=" ">
<polygon fill="white" stroke="#666666" points="804.12,-304.5 707.88,-304.5 707.88,-283.75 804.12,-283.75 804.12,-304.5"/>
<text xml:space="preserve" text-anchor="middle" x="756" y="-291" font-family="Helvetica,sans-Serif" font-size="10.00">motor_convert.h</text>
</a>
</g>
</g>
<!-- Node1&#45;&gt;Node24 -->
<g id="edge40_Node000001_Node000024" class="edge">
<title>Node1&#45;&gt;Node24</title>
<g id="a_edge40_Node000001_Node000024"><a xlink:title=" ">
<path fill="none" stroke="#63b8ff" d="M1015.78,-396.81C988.05,-386.79 951.88,-373.52 920,-361.25 874.96,-343.91 823.38,-322.93 790.29,-309.32"/>
<polygon fill="#63b8ff" stroke="#63b8ff" points="791.79,-306.15 781.21,-305.57 789.12,-312.62 791.79,-306.15"/>
</a>
</g>
</g>
<!-- Node25 -->
<g id="Node000025" class="node">
<title>Node25</title>
<g id="a_Node000025"><a xlink:href="log_8h.html" target="_top" xlink:title=" ">
<polygon fill="white" stroke="#666666" points="1241,-134.25 1201,-134.25 1201,-113.5 1241,-113.5 1241,-134.25"/>
<text xml:space="preserve" text-anchor="middle" x="1221" y="-120.75" font-family="Helvetica,sans-Serif" font-size="10.00">log.h</text>
</a>
</g>
</g>
<!-- Node1&#45;&gt;Node25 -->
<g id="edge42_Node000001_Node000025" class="edge">
<title>Node1&#45;&gt;Node25</title>
<g id="a_edge42_Node000001_Node000025"><a xlink:title=" ">
<path fill="none" stroke="#63b8ff" d="M1076.49,-396.94C1095.43,-375.54 1125,-335.64 1125,-295.12 1125,-295.12 1125,-295.12 1125,-236.38 1125,-193.87 1165.55,-159.52 1193.94,-140.68"/>
<polygon fill="#63b8ff" stroke="#63b8ff" points="1195.55,-143.8 1202.11,-135.48 1191.8,-137.89 1195.55,-143.8"/>
</a>
</g>
</g>
<!-- Node26 -->
<g id="Node000026" class="node">
<title>Node26</title>
<g id="a_Node000026"><a xlink:title=" ">
<polygon fill="#e0e0e0" stroke="#999999" points="1203.25,-361.25 1152.75,-361.25 1152.75,-340.5 1203.25,-340.5 1203.25,-361.25"/>
<text xml:space="preserve" text-anchor="middle" x="1178" y="-347.75" font-family="Helvetica,sans-Serif" font-size="10.00">math.h</text>
</a>
</g>
</g>
<!-- Node1&#45;&gt;Node26 -->
<g id="edge45_Node000001_Node000026" class="edge">
<title>Node1&#45;&gt;Node26</title>
<g id="a_edge45_Node000001_Node000026"><a xlink:title=" ">
<path fill="none" stroke="#63b8ff" d="M1092.05,-396.78C1109.76,-387.52 1131.82,-376 1149.16,-366.94"/>
<polygon fill="#63b8ff" stroke="#63b8ff" points="1150.68,-370.1 1157.92,-362.37 1147.44,-363.89 1150.68,-370.1"/>
</a>
</g>
</g>
<!-- Node27 -->
<g id="Node000027" class="node">
<title>Node27</title>
<g id="a_Node000027"><a xlink:title=" ">
<polygon fill="#e0e0e0" stroke="#999999" points="1270.5,-361.25 1221.5,-361.25 1221.5,-340.5 1270.5,-340.5 1270.5,-361.25"/>
<text xml:space="preserve" text-anchor="middle" x="1246" y="-347.75" font-family="Helvetica,sans-Serif" font-size="10.00">stdio.h</text>
</a>
</g>
</g>
<!-- Node1&#45;&gt;Node27 -->
<g id="edge47_Node000001_Node000027" class="edge">
<title>Node1&#45;&gt;Node27</title>
<g id="a_edge47_Node000001_Node000027"><a xlink:title=" ">
<path fill="none" stroke="#63b8ff" d="M1110.09,-396.78C1141.65,-386.35 1181.94,-373.04 1210.43,-363.63"/>
<polygon fill="#63b8ff" stroke="#63b8ff" points="1211.27,-367.04 1219.67,-360.58 1209.08,-360.39 1211.27,-367.04"/>
</a>
</g>
</g>
<!-- Node3 -->
<g id="Node000003" class="node">
<title>Node3</title>
<g id="a_Node000003"><a xlink:href="motor__internal_8h.html" target="_top" xlink:title=" ">
<polygon fill="white" stroke="#666666" points="583.5,-304.5 486.5,-304.5 486.5,-283.75 583.5,-283.75 583.5,-304.5"/>
<text xml:space="preserve" text-anchor="middle" x="535" y="-291" font-family="Helvetica,sans-Serif" font-size="10.00">motor_internal.h</text>
</a>
</g>
</g>
<!-- Node2&#45;&gt;Node3 -->
<g id="edge2_Node000002_Node000003" class="edge">
<title>Node2&#45;&gt;Node3</title>
<g id="a_edge2_Node000002_Node000003"><a xlink:title=" ">
<path fill="none" stroke="#63b8ff" d="M632.73,-340.09C614.28,-331.6 587.34,-319.2 566.41,-309.58"/>
<polygon fill="#63b8ff" stroke="#63b8ff" points="568.01,-306.46 557.47,-305.46 565.09,-312.82 568.01,-306.46"/>
</a>
</g>
</g>
<!-- Node4 -->
<g id="Node000004" class="node">
<title>Node4</title>
<g id="a_Node000004"><a xlink:href="motor_8h.html" target="_top" xlink:title=" ">
<polygon fill="white" stroke="#666666" points="740.75,-247.75 687.25,-247.75 687.25,-227 740.75,-227 740.75,-247.75"/>
<text xml:space="preserve" text-anchor="middle" x="714" y="-234.25" font-family="Helvetica,sans-Serif" font-size="10.00">motor.h</text>
</a>
</g>
</g>
<!-- Node3&#45;&gt;Node4 -->
<g id="edge3_Node000003_Node000004" class="edge">
<title>Node3&#45;&gt;Node4</title>
<g id="a_edge3_Node000003_Node000004"><a xlink:title=" ">
<path fill="none" stroke="#63b8ff" d="M567,-283.34C597.59,-273.98 643.71,-259.88 676.11,-249.96"/>
<polygon fill="#63b8ff" stroke="#63b8ff" points="676.97,-253.36 685.51,-247.09 674.92,-246.67 676.97,-253.36"/>
</a>
</g>
</g>
<!-- Node9 -->
<g id="Node000009" class="node">
<title>Node9</title>
<g id="a_Node000009"><a xlink:title=" ">
<polygon fill="#e0e0e0" stroke="#999999" points="559.75,-77.5 488.25,-77.5 488.25,-56.75 559.75,-56.75 559.75,-77.5"/>
<text xml:space="preserve" text-anchor="middle" x="524" y="-64" font-family="Helvetica,sans-Serif" font-size="10.00">FreeRTOS.h</text>
</a>
</g>
</g>
<!-- Node3&#45;&gt;Node9 -->
<g id="edge37_Node000003_Node000009" class="edge">
<title>Node3&#45;&gt;Node9</title>
<g id="a_edge37_Node000003_Node000009"><a xlink:title=" ">
<path fill="none" stroke="#63b8ff" d="M534.53,-283.46C532.88,-249.7 527.35,-136.59 525.03,-89.25"/>
<polygon fill="#63b8ff" stroke="#63b8ff" points="528.53,-89.09 524.54,-79.27 521.54,-89.43 528.53,-89.09"/>
</a>
</g>
</g>
<!-- Node14 -->
<g id="Node000014" class="node">
<title>Node14</title>
<g id="a_Node000014"><a xlink:href="cmd__handle_8h.html" target="_top" xlink:title=" ">
<polygon fill="white" stroke="#666666" points="429.12,-134.25 344.88,-134.25 344.88,-113.5 429.12,-113.5 429.12,-134.25"/>
<text xml:space="preserve" text-anchor="middle" x="387" y="-120.75" font-family="Helvetica,sans-Serif" font-size="10.00">cmd_handle.h</text>
</a>
</g>
</g>
<!-- Node3&#45;&gt;Node14 -->
<g id="edge39_Node000003_Node000014" class="edge">
<title>Node3&#45;&gt;Node14</title>
<g id="a_edge39_Node000003_Node000014"><a xlink:title=" ">
<path fill="none" stroke="#63b8ff" d="M515.7,-283.46C486.84,-268 432.77,-234.9 404,-191 395.15,-177.49 390.9,-159.62 388.87,-145.87"/>
<polygon fill="#63b8ff" stroke="#63b8ff" points="392.37,-145.66 387.73,-136.14 385.41,-146.48 392.37,-145.66"/>
</a>
</g>
</g>
<!-- Node23 -->
<g id="Node000023" class="node">
<title>Node23</title>
<g id="a_Node000023"><a xlink:title=" ">
<polygon fill="#e0e0e0" stroke="#999999" points="356.5,-247.75 301.5,-247.75 301.5,-227 356.5,-227 356.5,-247.75"/>
<text xml:space="preserve" text-anchor="middle" x="329" y="-234.25" font-family="Helvetica,sans-Serif" font-size="10.00">queue.h</text>
</a>
</g>
</g>
<!-- Node3&#45;&gt;Node23 -->
<g id="edge38_Node000003_Node000023" class="edge">
<title>Node3&#45;&gt;Node23</title>
<g id="a_edge38_Node000003_Node000023"><a xlink:title=" ">
<path fill="none" stroke="#63b8ff" d="M498.17,-283.34C461.46,-273.58 405.31,-258.66 367.89,-248.71"/>
<polygon fill="#63b8ff" stroke="#63b8ff" points="368.95,-245.37 358.39,-246.19 367.15,-252.14 368.95,-245.37"/>
</a>
</g>
</g>
<!-- Node5 -->
<g id="Node000005" class="node">
<title>Node5</title>
<g id="a_Node000005"><a xlink:href="pca9555a_8h.html" target="_top" xlink:title=" ">
<polygon fill="white" stroke="#666666" points="732,-77.5 578,-77.5 578,-56.75 732,-56.75 732,-77.5"/>
<text xml:space="preserve" text-anchor="middle" x="655" y="-64" font-family="Helvetica,sans-Serif" font-size="10.00">driver/pca9555a/pca9555a.h</text>
</a>
</g>
</g>
<!-- Node4&#45;&gt;Node5 -->
<g id="edge4_Node000004_Node000005" class="edge">
<title>Node4&#45;&gt;Node5</title>
<g id="a_edge4_Node000004_Node000005"><a xlink:title=" ">
<path fill="none" stroke="#63b8ff" d="M704.45,-226.81C696.4,-218.19 685.23,-204.78 679,-191 663.81,-157.44 658.22,-114.47 656.17,-89.25"/>
<polygon fill="#63b8ff" stroke="#63b8ff" points="659.66,-89.07 655.49,-79.34 652.68,-89.55 659.66,-89.07"/>
</a>
</g>
</g>
<!-- Node4&#45;&gt;Node8 -->
<g id="edge7_Node000004_Node000008" class="edge">
<title>Node4&#45;&gt;Node8</title>
<g id="a_edge7_Node000004_Node000008"><a xlink:title=" ">
<path fill="none" stroke="#63b8ff" d="M740.99,-226.96C766.07,-218.22 803.7,-205.09 832.03,-195.21"/>
<polygon fill="#63b8ff" stroke="#63b8ff" points="833.06,-198.56 841.35,-191.97 830.75,-191.95 833.06,-198.56"/>
</a>
</g>
</g>
<!-- Node11 -->
<g id="Node000011" class="node">
<title>Node11</title>
<g id="a_Node000011"><a xlink:title=" ">
<polygon fill="#e0e0e0" stroke="#999999" points="808.38,-77.5 749.62,-77.5 749.62,-56.75 808.38,-56.75 808.38,-77.5"/>
<text xml:space="preserve" text-anchor="middle" x="779" y="-64" font-family="Helvetica,sans-Serif" font-size="10.00">fsl_ftm.h</text>
</a>
</g>
</g>
<!-- Node4&#45;&gt;Node11 -->
<g id="edge34_Node000004_Node000011" class="edge">
<title>Node4&#45;&gt;Node11</title>
<g id="a_edge34_Node000004_Node000011"><a xlink:title=" ">
<path fill="none" stroke="#63b8ff" d="M717.68,-226.85C727.96,-200.25 757.11,-124.77 771.2,-88.32"/>
<polygon fill="#63b8ff" stroke="#63b8ff" points="774.31,-89.97 774.65,-79.38 767.78,-87.45 774.31,-89.97"/>
</a>
</g>
</g>
<!-- Node12 -->
<g id="Node000012" class="node">
<title>Node12</title>
<g id="a_Node000012"><a xlink:title=" ">
<polygon fill="#e0e0e0" stroke="#999999" points="889.62,-77.5 826.38,-77.5 826.38,-56.75 889.62,-56.75 889.62,-77.5"/>
<text xml:space="preserve" text-anchor="middle" x="858" y="-64" font-family="Helvetica,sans-Serif" font-size="10.00">fsl_gpio.h</text>
</a>
</g>
</g>
<!-- Node4&#45;&gt;Node12 -->
<g id="edge35_Node000004_Node000012" class="edge">
<title>Node4&#45;&gt;Node12</title>
<g id="a_edge35_Node000004_Node000012"><a xlink:title=" ">
<path fill="none" stroke="#63b8ff" d="M722.15,-226.85C745.31,-199.79 811.77,-122.15 842.31,-86.46"/>
<polygon fill="#63b8ff" stroke="#63b8ff" points="844.75,-88.99 848.59,-79.12 839.43,-84.44 844.75,-88.99"/>
</a>
</g>
</g>
<!-- Node13 -->
<g id="Node000013" class="node">
<title>Node13</title>
<g id="a_Node000013"><a xlink:title=" ">
<polygon fill="#e0e0e0" stroke="#999999" points="1147.88,-77.5 1086.12,-77.5 1086.12,-56.75 1147.88,-56.75 1147.88,-77.5"/>
<text xml:space="preserve" text-anchor="middle" x="1117" y="-64" font-family="Helvetica,sans-Serif" font-size="10.00">fsl_port.h</text>
</a>
</g>
</g>
<!-- Node4&#45;&gt;Node13 -->
<g id="edge36_Node000004_Node000013" class="edge">
<title>Node4&#45;&gt;Node13</title>
<g id="a_edge36_Node000004_Node000013"><a xlink:title=" ">
<path fill="none" stroke="#63b8ff" d="M740.95,-234.42C802.96,-228.75 958.31,-207.65 1061,-134.25 1078.73,-121.58 1094.32,-102.08 1104.52,-87.53"/>
<polygon fill="#63b8ff" stroke="#63b8ff" points="1107.42,-89.49 1110.1,-79.24 1101.62,-85.58 1107.42,-89.49"/>
</a>
</g>
</g>
<!-- Node20 -->
<g id="Node000020" class="node">
<title>Node20</title>
<g id="a_Node000020"><a xlink:href="tmc2209__core_8h.html" target="_top" xlink:title=" ">
<polygon fill="white" stroke="#666666" points="507,-191 413,-191 413,-170.25 507,-170.25 507,-191"/>
<text xml:space="preserve" text-anchor="middle" x="460" y="-177.5" font-family="Helvetica,sans-Serif" font-size="10.00">tmc2209_core.h</text>
</a>
</g>
</g>
<!-- Node4&#45;&gt;Node20 -->
<g id="edge28_Node000004_Node000020" class="edge">
<title>Node4&#45;&gt;Node20</title>
<g id="a_edge28_Node000004_Node000020"><a xlink:title=" ">
<path fill="none" stroke="#63b8ff" d="M686.82,-230.52C646.52,-221.83 569.99,-205.33 517.05,-193.92"/>
<polygon fill="#63b8ff" stroke="#63b8ff" points="517.79,-190.5 507.27,-191.82 516.31,-197.34 517.79,-190.5"/>
</a>
</g>
</g>
<!-- Node6 -->
<g id="Node000006" class="node">
<title>Node6</title>
<g id="a_Node000006"><a xlink:title=" ">
<polygon fill="#e0e0e0" stroke="#999999" points="828.5,-20.75 743.5,-20.75 743.5,0 828.5,0 828.5,-20.75"/>
<text xml:space="preserve" text-anchor="middle" x="786" y="-7.25" font-family="Helvetica,sans-Serif" font-size="10.00">fsl_common.h</text>
</a>
</g>
</g>
<!-- Node5&#45;&gt;Node6 -->
<g id="edge5_Node000005_Node000006" class="edge">
<title>Node5&#45;&gt;Node6</title>
<g id="a_edge5_Node000005_Node000006"><a xlink:title=" ">
<path fill="none" stroke="#63b8ff" d="M678.42,-56.34C699,-47.73 729.2,-35.11 752.37,-25.43"/>
<polygon fill="#63b8ff" stroke="#63b8ff" points="753.51,-28.75 761.39,-21.66 750.81,-22.29 753.51,-28.75"/>
</a>
</g>
</g>
<!-- Node7 -->
<g id="Node000007" class="node">
<title>Node7</title>
<g id="a_Node000007"><a xlink:title=" ">
<polygon fill="#e0e0e0" stroke="#999999" points="515.88,-20.75 436.12,-20.75 436.12,0 515.88,0 515.88,-20.75"/>
<text xml:space="preserve" text-anchor="middle" x="476" y="-7.25" font-family="Helvetica,sans-Serif" font-size="10.00">peripherals.h</text>
</a>
</g>
</g>
<!-- Node5&#45;&gt;Node7 -->
<g id="edge6_Node000005_Node000007" class="edge">
<title>Node5&#45;&gt;Node7</title>
<g id="a_edge6_Node000005_Node000007"><a xlink:title=" ">
<path fill="none" stroke="#63b8ff" d="M623,-56.34C593.94,-47.45 550.87,-34.27 518.85,-24.48"/>
<polygon fill="#63b8ff" stroke="#63b8ff" points="520.06,-21.19 509.47,-21.61 518.01,-27.89 520.06,-21.19"/>
</a>
</g>
</g>
<!-- Node8&#45;&gt;Node5 -->
<g id="edge8_Node000008_Node000005" class="edge">
<title>Node8&#45;&gt;Node5</title>
<g id="a_edge8_Node000008_Node000005"><a xlink:title=" ">
<path fill="none" stroke="#63b8ff" d="M852.21,-169.93C814.39,-150.4 728.87,-106.26 683.89,-83.04"/>
<polygon fill="#63b8ff" stroke="#63b8ff" points="685.74,-80.05 675.25,-78.58 682.53,-86.27 685.74,-80.05"/>
</a>
</g>
</g>
<!-- Node8&#45;&gt;Node6 -->
<g id="edge11_Node000008_Node000006" class="edge">
<title>Node8&#45;&gt;Node6</title>
<g id="a_edge11_Node000008_Node000006"><a xlink:title=" ">
<path fill="none" stroke="#63b8ff" d="M907.58,-176.96C1000.07,-168.95 1230.88,-140.21 1157,-56.75 1136.36,-33.43 938.1,-19.57 840.18,-14.1"/>
<polygon fill="#63b8ff" stroke="#63b8ff" points="840.44,-10.61 830.26,-13.55 840.06,-17.6 840.44,-10.61"/>
</a>
</g>
</g>
<!-- Node8&#45;&gt;Node9 -->
<g id="edge9_Node000008_Node000009" class="edge">
<title>Node8&#45;&gt;Node9</title>
<g id="a_edge9_Node000008_Node000009"><a xlink:title=" ">
<path fill="none" stroke="#63b8ff" d="M840.51,-169.83C778.03,-149.75 635.43,-103.93 564.96,-81.29"/>
<polygon fill="#63b8ff" stroke="#63b8ff" points="566.33,-78.05 555.74,-78.32 564.19,-84.71 566.33,-78.05"/>
</a>
</g>
</g>
<!-- Node10 -->
<g id="Node000010" class="node">
<title>Node10</title>
<g id="a_Node000010"><a xlink:title=" ">
<polygon fill="#e0e0e0" stroke="#999999" points="919,-134.25 873,-134.25 873,-113.5 919,-113.5 919,-134.25"/>
<text xml:space="preserve" text-anchor="middle" x="896" y="-120.75" font-family="Helvetica,sans-Serif" font-size="10.00">task.h</text>
</a>
</g>
</g>
<!-- Node8&#45;&gt;Node10 -->
<g id="edge10_Node000008_Node000010" class="edge">
<title>Node8&#45;&gt;Node10</title>
<g id="a_edge10_Node000008_Node000010"><a xlink:title=" ">
<path fill="none" stroke="#63b8ff" d="M875.47,-169.84C878.63,-162.91 882.99,-153.37 886.87,-144.86"/>
<polygon fill="#63b8ff" stroke="#63b8ff" points="889.97,-146.51 890.94,-135.96 883.6,-143.6 889.97,-146.51"/>
</a>
</g>
</g>
<!-- Node8&#45;&gt;Node11 -->
<g id="edge12_Node000008_Node000011" class="edge">
<title>Node8&#45;&gt;Node11</title>
<g id="a_edge12_Node000008_Node000011"><a xlink:title=" ">
<path fill="none" stroke="#63b8ff" d="M863.16,-170.12C847.96,-151.7 814.24,-110.84 794.41,-86.8"/>
<polygon fill="#63b8ff" stroke="#63b8ff" points="797.11,-84.58 788.05,-79.09 791.71,-89.03 797.11,-84.58"/>
</a>
</g>
</g>
<!-- Node8&#45;&gt;Node12 -->
<g id="edge13_Node000008_Node000012" class="edge">
<title>Node8&#45;&gt;Node12</title>
<g id="a_edge13_Node000008_Node000012"><a xlink:title=" ">
<path fill="none" stroke="#63b8ff" d="M869.32,-169.91C867.78,-160.74 865.51,-146.59 864,-134.25 862.15,-119.15 860.61,-102.04 859.56,-89.01"/>
<polygon fill="#63b8ff" stroke="#63b8ff" points="863.05,-88.77 858.79,-79.07 856.07,-89.31 863.05,-88.77"/>
</a>
</g>
</g>
<!-- Node8&#45;&gt;Node13 -->
<g id="edge14_Node000008_Node000013" class="edge">
<title>Node8&#45;&gt;Node13</title>
<g id="a_edge14_Node000008_Node000013"><a xlink:title=" ">
<path fill="none" stroke="#63b8ff" d="M907.46,-173.24C940.64,-166.51 990.34,-154.1 1030,-134.25 1055.91,-121.28 1081.87,-100.26 1098.6,-85.4"/>
<polygon fill="#63b8ff" stroke="#63b8ff" points="1100.71,-88.2 1105.76,-78.89 1096.01,-83.02 1100.71,-88.2"/>
</a>
</g>
</g>
<!-- Node8&#45;&gt;Node14 -->
<g id="edge15_Node000008_Node000014" class="edge">
<title>Node8&#45;&gt;Node14</title>
<g id="a_edge15_Node000008_Node000014"><a xlink:title=" ">
<path fill="none" stroke="#63b8ff" d="M834.62,-175.51C750.14,-165.95 540.31,-142.22 440.89,-130.97"/>
<polygon fill="#63b8ff" stroke="#63b8ff" points="441.45,-127.51 431.12,-129.87 440.66,-134.47 441.45,-127.51"/>
</a>
</g>
</g>
<!-- Node18 -->
<g id="Node000018" class="node">
<title>Node18</title>
<g id="a_Node000018"><a xlink:href="step__shared_8h.html" target="_top" xlink:title=" ">
<polygon fill="white" stroke="#666666" points="1021.12,-134.25 936.88,-134.25 936.88,-113.5 1021.12,-113.5 1021.12,-134.25"/>
<text xml:space="preserve" text-anchor="middle" x="979" y="-120.75" font-family="Helvetica,sans-Serif" font-size="10.00">step_shared.h</text>
</a>
</g>
</g>
<!-- Node8&#45;&gt;Node18 -->
<g id="edge21_Node000008_Node000018" class="edge">
<title>Node8&#45;&gt;Node18</title>
<g id="a_edge21_Node000008_Node000018"><a xlink:title=" ">
<path fill="none" stroke="#63b8ff" d="M890.31,-169.84C906.82,-161.47 930.83,-149.29 949.71,-139.72"/>
<polygon fill="#63b8ff" stroke="#63b8ff" points="951.17,-142.91 958.51,-135.26 948.01,-136.66 951.17,-142.91"/>
</a>
</g>
</g>
<!-- Node14&#45;&gt;Node6 -->
<g id="edge19_Node000014_Node000006" class="edge">
<title>Node14&#45;&gt;Node6</title>
<g id="a_edge19_Node000014_Node000006"><a xlink:title=" ">
<path fill="none" stroke="#63b8ff" d="M392.59,-113.03C401.66,-98.06 421.12,-69.94 446,-56.75 494.38,-31.1 648.71,-18.89 731.8,-14.04"/>
<polygon fill="#63b8ff" stroke="#63b8ff" points="731.98,-17.54 741.77,-13.48 731.58,-10.55 731.98,-17.54"/>
</a>
</g>
</g>
<!-- Node14&#45;&gt;Node9 -->
<g id="edge17_Node000014_Node000009" class="edge">
<title>Node14&#45;&gt;Node9</title>
<g id="a_edge17_Node000014_Node000009"><a xlink:title=" ">
<path fill="none" stroke="#63b8ff" d="M411.49,-113.09C433.12,-104.44 464.89,-91.75 489.16,-82.05"/>
<polygon fill="#63b8ff" stroke="#63b8ff" points="490.33,-85.35 498.31,-78.39 487.73,-78.85 490.33,-85.35"/>
</a>
</g>
</g>
<!-- Node15 -->
<g id="Node000015" class="node">
<title>Node15</title>
<g id="a_Node000015"><a xlink:title=" ">
<polygon fill="#e0e0e0" stroke="#999999" points="284.38,-77.5 231.62,-77.5 231.62,-56.75 284.38,-56.75 284.38,-77.5"/>
<text xml:space="preserve" text-anchor="middle" x="258" y="-64" font-family="Helvetica,sans-Serif" font-size="10.00">stdint.h</text>
</a>
</g>
</g>
<!-- Node14&#45;&gt;Node15 -->
<g id="edge16_Node000014_Node000015" class="edge">
<title>Node14&#45;&gt;Node15</title>
<g id="a_edge16_Node000014_Node000015"><a xlink:title=" ">
<path fill="none" stroke="#63b8ff" d="M363.94,-113.09C343.76,-104.52 314.2,-91.98 291.43,-82.31"/>
<polygon fill="#63b8ff" stroke="#63b8ff" points="292.83,-79.1 282.26,-78.42 290.09,-85.55 292.83,-79.1"/>
</a>
</g>
</g>
<!-- Node16 -->
<g id="Node000016" class="node">
<title>Node16</title>
<g id="a_Node000016"><a xlink:title=" ">
<polygon fill="#e0e0e0" stroke="#999999" points="393.5,-77.5 302.5,-77.5 302.5,-56.75 393.5,-56.75 393.5,-77.5"/>
<text xml:space="preserve" text-anchor="middle" x="348" y="-64" font-family="Helvetica,sans-Serif" font-size="10.00">event_groups.h</text>
</a>
</g>
</g>
<!-- Node14&#45;&gt;Node16 -->
<g id="edge18_Node000014_Node000016" class="edge">
<title>Node14&#45;&gt;Node16</title>
<g id="a_edge18_Node000014_Node000016"><a xlink:title=" ">
<path fill="none" stroke="#63b8ff" d="M380.03,-113.09C374.87,-105.85 367.68,-95.76 361.43,-86.97"/>
<polygon fill="#63b8ff" stroke="#63b8ff" points="364.44,-85.18 355.79,-79.06 358.74,-89.24 364.44,-85.18"/>
</a>
</g>
</g>
<!-- Node17 -->
<g id="Node000017" class="node">
<title>Node17</title>
<g id="a_Node000017"><a xlink:title=" ">
<polygon fill="#e0e0e0" stroke="#999999" points="214,-77.5 162,-77.5 162,-56.75 214,-56.75 214,-77.5"/>
<text xml:space="preserve" text-anchor="middle" x="188" y="-64" font-family="Helvetica,sans-Serif" font-size="10.00">stdlib.h</text>
</a>
</g>
</g>
<!-- Node14&#45;&gt;Node17 -->
<g id="edge20_Node000014_Node000017" class="edge">
<title>Node14&#45;&gt;Node17</title>
<g id="a_edge20_Node000014_Node000017"><a xlink:title=" ">
<path fill="none" stroke="#63b8ff" d="M351.42,-113.09C315.91,-103.32 261.57,-88.37 225.42,-78.42"/>
<polygon fill="#63b8ff" stroke="#63b8ff" points="226.4,-75.06 215.83,-75.78 224.55,-81.81 226.4,-75.06"/>
</a>
</g>
</g>
<!-- Node18&#45;&gt;Node5 -->
<g id="edge22_Node000018_Node000005" class="edge">
<title>Node18&#45;&gt;Node5</title>
<g id="a_edge22_Node000018_Node000005"><a xlink:title=" ">
<path fill="none" stroke="#63b8ff" d="M936.43,-114.99C933.58,-114.48 930.75,-113.98 928,-113.5 859.92,-101.59 782.16,-88.74 727.09,-79.76"/>
<polygon fill="#63b8ff" stroke="#63b8ff" points="727.97,-76.36 717.53,-78.21 726.84,-83.27 727.97,-76.36"/>
</a>
</g>
</g>
<!-- Node18&#45;&gt;Node6 -->
<g id="edge24_Node000018_Node000006" class="edge">
<title>Node18&#45;&gt;Node6</title>
<g id="a_edge24_Node000018_Node000006"><a xlink:title=" ">
<path fill="none" stroke="#63b8ff" d="M969.41,-113.23C955.11,-99.28 926.88,-73.32 899,-56.75 876.92,-43.63 850.36,-32.74 828.53,-24.93"/>
<polygon fill="#63b8ff" stroke="#63b8ff" points="829.94,-21.71 819.34,-21.73 827.64,-28.32 829.94,-21.71"/>
</a>
</g>
</g>
<!-- Node18&#45;&gt;Node11 -->
<g id="edge25_Node000018_Node000011" class="edge">
<title>Node18&#45;&gt;Node11</title>
<g id="a_edge25_Node000018_Node000011"><a xlink:title=" ">
<path fill="none" stroke="#63b8ff" d="M943.24,-113.09C908.42,-103.55 855.57,-89.09 819.28,-79.15"/>
<polygon fill="#63b8ff" stroke="#63b8ff" points="820.62,-75.89 810.05,-76.62 818.77,-82.64 820.62,-75.89"/>
</a>
</g>
</g>
<!-- Node18&#45;&gt;Node12 -->
<g id="edge26_Node000018_Node000012" class="edge">
<title>Node18&#45;&gt;Node12</title>
<g id="a_edge26_Node000018_Node000012"><a xlink:title=" ">
<path fill="none" stroke="#63b8ff" d="M957.37,-113.09C938.53,-104.56 910.96,-92.09 889.64,-82.44"/>
<polygon fill="#63b8ff" stroke="#63b8ff" points="891.38,-79.39 880.82,-78.45 888.49,-85.76 891.38,-79.39"/>
</a>
</g>
</g>
<!-- Node18&#45;&gt;Node13 -->
<g id="edge27_Node000018_Node000013" class="edge">
<title>Node18&#45;&gt;Node13</title>
<g id="a_edge27_Node000018_Node000013"><a xlink:title=" ">
<path fill="none" stroke="#63b8ff" d="M1003.67,-113.09C1025.45,-104.44 1057.46,-91.75 1081.91,-82.05"/>
<polygon fill="#63b8ff" stroke="#63b8ff" points="1083.13,-85.33 1091.14,-78.39 1080.55,-78.82 1083.13,-85.33"/>
</a>
</g>
</g>
<!-- Node19 -->
<g id="Node000019" class="node">
<title>Node19</title>
<g id="a_Node000019"><a xlink:title=" ">
<polygon fill="#e0e0e0" stroke="#999999" points="1068.25,-77.5 945.75,-77.5 945.75,-56.75 1068.25,-56.75 1068.25,-77.5"/>
<text xml:space="preserve" text-anchor="middle" x="1007" y="-64" font-family="Helvetica,sans-Serif" font-size="10.00">fsl_device_registers.h</text>
</a>
</g>
</g>
<!-- Node18&#45;&gt;Node19 -->
<g id="edge23_Node000018_Node000019" class="edge">
<title>Node18&#45;&gt;Node19</title>
<g id="a_edge23_Node000018_Node000019"><a xlink:title=" ">
<path fill="none" stroke="#63b8ff" d="M984.01,-113.09C987.59,-106.08 992.54,-96.41 996.92,-87.83"/>
<polygon fill="#63b8ff" stroke="#63b8ff" points="999.91,-89.67 1001.35,-79.18 993.68,-86.49 999.91,-89.67"/>
</a>
</g>
</g>
<!-- Node20&#45;&gt;Node6 -->
<g id="edge31_Node000020_Node000006" class="edge">
<title>Node20&#45;&gt;Node6</title>
<g id="a_edge31_Node000020_Node000006"><a xlink:title=" ">
<path fill="none" stroke="#63b8ff" d="M458.11,-169.98C454.18,-146.8 447.91,-87.63 479,-56.75 513.7,-22.28 653.61,-13.88 732.04,-11.91"/>
<polygon fill="#63b8ff" stroke="#63b8ff" points="731.71,-15.42 741.63,-11.7 731.55,-8.42 731.71,-15.42"/>
</a>
</g>
</g>
<!-- Node20&#45;&gt;Node7 -->
<g id="edge33_Node000020_Node000007" class="edge">
<title>Node20&#45;&gt;Node7</title>
<g id="a_edge33_Node000020_Node000007"><a xlink:title=" ">
<path fill="none" stroke="#63b8ff" d="M412.71,-177.08C309.15,-169.85 77.39,-143.73 153,-56.75 187.56,-17 342.49,-11.06 424.57,-10.78"/>
<polygon fill="#63b8ff" stroke="#63b8ff" points="424.38,-14.28 434.38,-10.78 424.38,-7.28 424.38,-14.28"/>
</a>
</g>
</g>
<!-- Node20&#45;&gt;Node14 -->
<g id="edge32_Node000020_Node000014" class="edge">
<title>Node20&#45;&gt;Node14</title>
<g id="a_edge32_Node000020_Node000014"><a xlink:title=" ">
<path fill="none" stroke="#63b8ff" d="M446.95,-169.84C436.36,-161.9 421.21,-150.53 408.78,-141.21"/>
<polygon fill="#63b8ff" stroke="#63b8ff" points="411.25,-138.69 401.15,-135.49 407.05,-144.29 411.25,-138.69"/>
</a>
</g>
</g>
<!-- Node21 -->
<g id="Node000021" class="node">
<title>Node21</title>
<g id="a_Node000021"><a xlink:href="tmc2209__shared_8h.html" target="_top" xlink:title=" ">
<polygon fill="white" stroke="#666666" points="106,-134.25 0,-134.25 0,-113.5 106,-113.5 106,-134.25"/>
<text xml:space="preserve" text-anchor="middle" x="53" y="-120.75" font-family="Helvetica,sans-Serif" font-size="10.00">tmc2209_shared.h</text>
</a>
</g>
</g>
<!-- Node20&#45;&gt;Node21 -->
<g id="edge29_Node000020_Node000021" class="edge">
<title>Node20&#45;&gt;Node21</title>
<g id="a_edge29_Node000020_Node000021"><a xlink:title=" ">
<path fill="none" stroke="#63b8ff" d="M412.68,-173.41C346.99,-164.75 224.43,-148.53 120,-134.25 119.17,-134.14 118.34,-134.02 117.5,-133.91"/>
<polygon fill="#63b8ff" stroke="#63b8ff" points="118.27,-130.48 107.89,-132.58 117.32,-137.42 118.27,-130.48"/>
</a>
</g>
</g>
<!-- Node22 -->
<g id="Node000022" class="node">
<title>Node22</title>
<g id="a_Node000022"><a xlink:title=" ">
<polygon fill="#e0e0e0" stroke="#999999" points="105.62,-77.5 0.38,-77.5 0.38,-56.75 105.62,-56.75 105.62,-77.5"/>
<text xml:space="preserve" text-anchor="middle" x="53" y="-64" font-family="Helvetica,sans-Serif" font-size="10.00">fsl_uart_freertos.h</text>
</a>
</g>
</g>
<!-- Node21&#45;&gt;Node22 -->
<g id="edge30_Node000021_Node000022" class="edge">
<title>Node21&#45;&gt;Node22</title>
<g id="a_edge30_Node000021_Node000022"><a xlink:title=" ">
<path fill="none" stroke="#63b8ff" d="M53,-113.09C53,-106.47 53,-97.47 53,-89.27"/>
<polygon fill="#63b8ff" stroke="#63b8ff" points="56.5,-89.34 53,-79.34 49.5,-89.34 56.5,-89.34"/>
</a>
</g>
</g>
<!-- Node24&#45;&gt;Node4 -->
<g id="edge41_Node000024_Node000004" class="edge">
<title>Node24&#45;&gt;Node4</title>
<g id="a_edge41_Node000024_Node000004"><a xlink:title=" ">
<path fill="none" stroke="#63b8ff" d="M748.49,-283.34C742.88,-276.02 735.03,-265.79 728.24,-256.94"/>
<polygon fill="#63b8ff" stroke="#63b8ff" points="731.23,-255.08 722.36,-249.28 725.67,-259.34 731.23,-255.08"/>
</a>
</g>
</g>
<!-- Node25&#45;&gt;Node6 -->
<g id="edge44_Node000025_Node000006" class="edge">
<title>Node25&#45;&gt;Node6</title>
<g id="a_edge44_Node000025_Node000006"><a xlink:title=" ">
<path fill="none" stroke="#63b8ff" d="M1219.52,-113.35C1216.68,-98.56 1208.96,-70.35 1190,-56.75 1135.16,-17.42 936.83,-11.53 839.97,-11.07"/>
<polygon fill="#63b8ff" stroke="#63b8ff" points="840.2,-7.57 830.19,-11.04 840.18,-14.57 840.2,-7.57"/>
</a>
</g>
</g>
<!-- Node25&#45;&gt;Node9 -->
<g id="edge43_Node000025_Node000009" class="edge">
<title>Node25&#45;&gt;Node9</title>
<g id="a_edge43_Node000025_Node000009"><a xlink:title=" ">
<path fill="none" stroke="#63b8ff" d="M1200.52,-121.83C1106.73,-116.97 716.92,-96.15 571.09,-77.54"/>
<polygon fill="#63b8ff" stroke="#63b8ff" points="571.66,-74.09 561.29,-76.24 570.74,-81.03 571.66,-74.09"/>
</a>
</g>
</g>
</g>
</svg>

<g id="navigator" transform="translate(0 0)" fill="#404254">
  <rect fill="#f2f5e9" fill-opacity="0.5" stroke="#606060" stroke-width=".5" x="0" y="0" width="60" height="60"/>
  <use id="zoomplus" xlink:href="#zoomPlus" x="17" y="9" onmousedown="handleZoom(evt,'in')"/>
  <use id="zoomminus" xlink:href="#zoomMin" x="42" y="9" onmousedown="handleZoom(evt,'out')"/>
  <use id="reset" xlink:href="#resetDef" x="30" y="36" onmousedown="handleReset()"/>
   <use id="arrowup" xlink:href="#arrowUp" x="0" y="0" onmousedown="handlePan(0,-1)"/>
  <use id="arrowright" xlink:href="#arrowRight" x="0" y="0" onmousedown="handlePan(1,0)"/>
  <use id="arrowdown" xlink:href="#arrowDown" x="0" y="0" onmousedown="handlePan(0,1)"/>
  <use id="arrowleft" xlink:href="#arrowLeft" x="0" y="0" onmousedown="handlePan(-1,0)"/>
</g>
<svg viewBox="0 0 15 15" width="100%" height="30px" preserveAspectRatio="xMaxYMin meet">
 <g id="arrow_out" transform="scale(0.3 0.3)">
  <a xlink:href="motor__motion_8c__incl_org.svg" target="_base">
   <rect id="button" ry="5" rx="5" y="6" x="6" height="38" width="38"
        fill="#f2f5e9" fill-opacity="0.5" stroke="#606060" stroke-width="1.0"/>
   <path id="arrow"
     d="M 11.500037,31.436501 C 11.940474,20.09759 22.043105,11.32322 32.158766,21.979434 L 37.068811,17.246167 C 37.068811,17.246167 37.088388,32 37.088388,32 L 22.160133,31.978069 C 22.160133,31.978069 26.997745,27.140456 26.997745,27.140456 C 18.528582,18.264221 13.291696,25.230495 11.500037,31.436501 z"
     style="fill:#404040;"/>
  </a>
 </g>
</svg>

<style type='text/css'>
<![CDATA[
[data-mouse-over-selected='false'] { opacity: 0.7; }
[data-mouse-over-selected='true']  { opacity: 1.0; }
]]>
</style>
<script type="application/ecmascript"><![CDATA[
document.addEventListener('DOMContentLoaded', (event) => {
  highlightEdges();
  highlightAdjacentNodes();
});
]]></script>
</svg>
