<?xml version="1.0" encoding="UTF-8" standalone="no"?>
<!DOCTYPE svg PUBLIC "-//W3C//DTD SVG 1.1//EN"
 "http://www.w3.org/Graphics/SVG/1.1/DTD/svg11.dtd">
<!-- Generated by graphviz version 14.1.4 (0)
 -->
<!-- Title: source/motion/motor/motor_init.c Pages: 1 -->
<!--zoomable 439 -->

<svg id="main" version="1.1" xmlns="http://www.w3.org/2000/svg" xmlns:xlink="http://www.w3.org/1999/xlink" xml:space="preserve" onload="init(evt)">

<style type="text/css"><![CDATA[
.node, .edge {opacity: 0.7;}
.node.selected, .edge.selected {opacity: 1;}
.edge:hover path { stroke: red; }
.edge:hover polygon { stroke: red; fill: red; }
]]></style>

<defs>
  <circle id="rim" cx="0" cy="0" r="7"/>
  <circle id="rim2" cx="0" cy="0" r="3.5"/>
  <g id="zoomPlus">
    <use xlink:href="#rim" fill="#404040"><set attributeName="fill" to="#808080" begin="zoomplus.mouseover" end="zoomplus.mouseout"/></use>
    <path d="M-4,0h8M0,-4v8" fill="none" stroke="white" stroke-width="1.5" pointer-events="none"/>
  </g>
  <g id="zoomMin">
    <use xlink:href="#rim" fill="#404040"><set attributeName="fill" to="#808080" begin="zoomminus.mouseover" end="zoomminus.mouseout"/></use>
    <path d="M-4,0h8" fill="none" stroke="white" stroke-width="1.5" pointer-events="none"/>
  </g>
  <g id="arrowUp" transform="translate(30 24)">
    <use xlink:href="#rim"/>
    <path pointer-events="none" fill="none" stroke="white" stroke-width="1.5" d="M0,-3.0v7 M-2.5,-0.5L0,-3.0L2.5,-0.5"/>
  </g>
  <g id="arrowRight" transform="rotate(90) translate(36 -43)">
    <use xlink:href="#rim"/>
    <path pointer-events="none" fill="none" stroke="white" stroke-width="1.5" d="M0,-3.0v7 M-2.5,-0.5L0,-3.0L2.5,-0.5"/>
  </g>
  <g id="arrowDown" transform="rotate(180) translate(-30 -48)">
    <use xlink:href="#rim"/>
    <path pointer-events="none" fill="none" stroke="white" stroke-width="1.5" d="M0,-3.0v7 M-2.5,-0.5L0,-3.0L2.5,-0.5"/>
  </g>
  <g id="arrowLeft" transform="rotate(270) translate(-36 17)">
    <use xlink:href="#rim"/>
    <path pointer-events="none" fill="none" stroke="white" stroke-width="1.5" d="M0,-3.0v7 M-2.5,-0.5L0,-3.0L2.5,-0.5"/>
  </g>
  <g id="resetDef">
    <use xlink:href="#rim2" fill="#404040"><set attributeName="fill" to="#808080" begin="reset.mouseover" end="reset.mouseout"/></use>
  </g>
</defs>
<script type="application/ecmascript">
var viewWidth = 1278;
var viewHeight = 439;
var sectionId = 'dynsection-0';
</script>
<script type="application/ecmascript" xlink:href="svg.min.js"/>
<svg id="graph" class="graph">
<g id="viewport">
<title>source/motion/motor/motor_init.c</title>
<!-- Node1 -->
<g id="Node000001" class="node">
<title>Node1</title>
<g id="a_Node000001"><a xlink:title=" ">
<polygon fill="#999999" stroke="#666666" points="1054.38,-430.75 936.38,-430.75 936.38,-397.25 1054.38,-397.25 1054.38,-430.75"/>
<text xml:space="preserve" text-anchor="start" x="944.38" y="-417.25" font-family="Helvetica,sans-Serif" font-size="10.00">source/motion/motor</text>
<text xml:space="preserve" text-anchor="middle" x="995.38" y="-404.5" font-family="Helvetica,sans-Serif" font-size="10.00">/motor_init.c</text>
</a>
</g>
</g>
<!-- Node2 -->
<g id="Node000002" class="node">
<title>Node2</title>
<g id="a_Node000002"><a xlink:href="motor__init_8h.html" target="_top" xlink:title=" ">
<polygon fill="white" stroke="#666666" points="872,-361.25 796.75,-361.25 796.75,-340.5 872,-340.5 872,-361.25"/>
<text xml:space="preserve" text-anchor="middle" x="834.38" y="-347.75" font-family="Helvetica,sans-Serif" font-size="10.00">motor_init.h</text>
</a>
</g>
</g>
<!-- Node1&#45;&gt;Node2 -->
<g id="edge1_Node000001_Node000002" class="edge">
<title>Node1&#45;&gt;Node2</title>
<g id="a_edge1_Node000001_Node000002"><a xlink:title=" ">
<path fill="none" stroke="#63b8ff" d="M952.65,-396.78C927.12,-387.09 895.04,-374.91 870.73,-365.68"/>
<polygon fill="#63b8ff" stroke="#63b8ff" points="872.17,-362.48 861.58,-362.2 869.68,-369.02 872.17,-362.48"/>
</a>
</g>
</g>
<!-- Node8 -->
<g id="Node000008" class="node">
<title>Node8</title>
<g id="a_Node000008"><a xlink:href="step__core_8h.html" target="_top" xlink:title=" ">
<polygon fill="white" stroke="#666666" points="546.5,-191 474.25,-191 474.25,-170.25 546.5,-170.25 546.5,-191"/>
<text xml:space="preserve" text-anchor="middle" x="510.38" y="-177.5" font-family="Helvetica,sans-Serif" font-size="10.00">step_core.h</text>
</a>
</g>
</g>
<!-- Node1&#45;&gt;Node8 -->
<g id="edge46_Node000001_Node000008" class="edge">
<title>Node1&#45;&gt;Node8</title>
<g id="a_edge46_Node000001_Node000008"><a xlink:title=" ">
<path fill="none" stroke="#63b8ff" d="M987.76,-396.99C969.04,-359.65 916.81,-266.91 842.38,-227 794.18,-201.16 637.72,-188.8 558,-184.06"/>
<polygon fill="#63b8ff" stroke="#63b8ff" points="558.51,-180.58 548.33,-183.5 558.11,-187.57 558.51,-180.58"/>
</a>
</g>
</g>
<!-- Node20 -->
<g id="Node000020" class="node">
<title>Node20</title>
<g id="a_Node000020"><a xlink:href="tmc2209__core_8h.html" target="_top" xlink:title=" ">
<polygon fill="white" stroke="#666666" points="793.38,-191 699.38,-191 699.38,-170.25 793.38,-170.25 793.38,-191"/>
<text xml:space="preserve" text-anchor="middle" x="746.38" y="-177.5" font-family="Helvetica,sans-Serif" font-size="10.00">tmc2209_core.h</text>
</a>
</g>
</g>
<!-- Node1&#45;&gt;Node20 -->
<g id="edge47_Node000001_Node000020" class="edge">
<title>Node1&#45;&gt;Node20</title>
<g id="a_edge47_Node000001_Node000020"><a xlink:title=" ">
<path fill="none" stroke="#63b8ff" d="M996.87,-396.89C999.23,-360.93 999.49,-273.63 952.38,-227 931.82,-206.66 858.24,-194.15 804.87,-187.55"/>
<polygon fill="#63b8ff" stroke="#63b8ff" points="805.33,-184.08 794.99,-186.37 804.5,-191.03 805.33,-184.08"/>
</a>
</g>
</g>
<!-- Node25 -->
<g id="Node000025" class="node">
<title>Node25</title>
<g id="a_Node000025"><a xlink:href="log_8h.html" target="_top" xlink:title=" ">
<polygon fill="white" stroke="#666666" points="970.38,-134.25 930.38,-134.25 930.38,-113.5 970.38,-113.5 970.38,-134.25"/>
<text xml:space="preserve" text-anchor="middle" x="950.38" y="-120.75" font-family="Helvetica,sans-Serif" font-size="10.00">log.h</text>
</a>
</g>
</g>
<!-- Node1&#45;&gt;Node25 -->
<g id="edge42_Node000001_Node000025" class="edge">
<title>Node1&#45;&gt;Node25</title>
<g id="a_edge42_Node000001_Node000025"><a xlink:title=" ">
<path fill="none" stroke="#63b8ff" d="M999.59,-397.12C1005.19,-374.6 1014.38,-332.02 1014.38,-295.12 1014.38,-295.12 1014.38,-295.12 1014.38,-236.38 1014.38,-199.24 987.34,-163.28 968.41,-142.65"/>
<polygon fill="#63b8ff" stroke="#63b8ff" points="971.15,-140.44 961.7,-135.64 966.09,-145.28 971.15,-140.44"/>
</a>
</g>
</g>
<!-- Node26 -->
<g id="Node000026" class="node">
<title>Node26</title>
<g id="a_Node000026"><a xlink:title=" ">
<polygon fill="#e0e0e0" stroke="#999999" points="1091.88,-361.25 1042.88,-361.25 1042.88,-340.5 1091.88,-340.5 1091.88,-361.25"/>
<text xml:space="preserve" text-anchor="middle" x="1067.38" y="-347.75" font-family="Helvetica,sans-Serif" font-size="10.00">stdio.h</text>
</a>
</g>
</g>
<!-- Node1&#45;&gt;Node26 -->
<g id="edge45_Node000001_Node000026" class="edge">
<title>Node1&#45;&gt;Node26</title>
<g id="a_edge45_Node000001_Node000026"><a xlink:title=" ">
<path fill="none" stroke="#63b8ff" d="M1014.29,-396.94C1024.37,-388.38 1036.78,-377.85 1047.06,-369.12"/>
<polygon fill="#63b8ff" stroke="#63b8ff" points="1049.27,-371.84 1054.63,-362.7 1044.74,-366.5 1049.27,-371.84"/>
</a>
</g>
</g>
<!-- Node27 -->
<g id="Node000027" class="node">
<title>Node27</title>
<g id="a_Node000027"><a xlink:href="sync__wait_8h.html" target="_top" xlink:title=" ">
<polygon fill="white" stroke="#666666" points="1167.25,-191 1093.5,-191 1093.5,-170.25 1167.25,-170.25 1167.25,-191"/>
<text xml:space="preserve" text-anchor="middle" x="1130.38" y="-177.5" font-family="Helvetica,sans-Serif" font-size="10.00">sync_wait.h</text>
</a>
</g>
</g>
<!-- Node1&#45;&gt;Node27 -->
<g id="edge48_Node000001_Node000027" class="edge">
<title>Node1&#45;&gt;Node27</title>
<g id="a_edge48_Node000001_Node000027"><a xlink:title=" ">
<path fill="none" stroke="#63b8ff" d="M1052.45,-396.85C1070.7,-388.96 1089.29,-377.53 1101.38,-361.25 1136.9,-313.37 1135.81,-238.45 1132.78,-202.39"/>
<polygon fill="#63b8ff" stroke="#63b8ff" points="1136.3,-202.47 1131.83,-192.87 1129.34,-203.17 1136.3,-202.47"/>
</a>
</g>
</g>
<!-- Node3 -->
<g id="Node000003" class="node">
<title>Node3</title>
<g id="a_Node000003"><a xlink:href="motor__core_8h.html" target="_top" xlink:title=" ">
<polygon fill="white" stroke="#666666" points="486.62,-247.75 406.12,-247.75 406.12,-227 486.62,-227 486.62,-247.75"/>
<text xml:space="preserve" text-anchor="middle" x="446.38" y="-234.25" font-family="Helvetica,sans-Serif" font-size="10.00">motor_core.h</text>
</a>
</g>
</g>
<!-- Node2&#45;&gt;Node3 -->
<g id="edge2_Node000002_Node000003" class="edge">
<title>Node2&#45;&gt;Node3</title>
<g id="a_edge2_Node000002_Node000003"><a xlink:title=" ">
<path fill="none" stroke="#63b8ff" d="M800.28,-340.08C730.22,-319.94 570.06,-273.92 491.51,-251.34"/>
<polygon fill="#63b8ff" stroke="#63b8ff" points="492.56,-248.01 481.98,-248.61 490.63,-254.73 492.56,-248.01"/>
</a>
</g>
</g>
<!-- Node23 -->
<g id="Node000023" class="node">
<title>Node23</title>
<g id="a_Node000023"><a xlink:href="motor__internal_8h.html" target="_top" xlink:title=" ">
<polygon fill="white" stroke="#666666" points="882.88,-304.5 785.88,-304.5 785.88,-283.75 882.88,-283.75 882.88,-304.5"/>
<text xml:space="preserve" text-anchor="middle" x="834.38" y="-291" font-family="Helvetica,sans-Serif" font-size="10.00">motor_internal.h</text>
</a>
</g>
</g>
<!-- Node2&#45;&gt;Node23 -->
<g id="edge37_Node000002_Node000023" class="edge">
<title>Node2&#45;&gt;Node23</title>
<g id="a_edge37_Node000002_Node000023"><a xlink:title=" ">
<path fill="none" stroke="#63b8ff" d="M834.38,-340.09C834.38,-333.47 834.38,-324.47 834.38,-316.27"/>
<polygon fill="#63b8ff" stroke="#63b8ff" points="837.88,-316.34 834.38,-306.34 830.88,-316.34 837.88,-316.34"/>
</a>
</g>
</g>
<!-- Node4 -->
<g id="Node000004" class="node">
<title>Node4</title>
<g id="a_Node000004"><a xlink:href="pca9555a_8h.html" target="_top" xlink:title=" ">
<polygon fill="white" stroke="#666666" points="596.38,-77.5 442.38,-77.5 442.38,-56.75 596.38,-56.75 596.38,-77.5"/>
<text xml:space="preserve" text-anchor="middle" x="519.38" y="-64" font-family="Helvetica,sans-Serif" font-size="10.00">driver/pca9555a/pca9555a.h</text>
</a>
</g>
</g>
<!-- Node3&#45;&gt;Node4 -->
<g id="edge3_Node000003_Node000004" class="edge">
<title>Node3&#45;&gt;Node4</title>
<g id="a_edge3_Node000003_Node000004"><a xlink:title=" ">
<path fill="none" stroke="#63b8ff" d="M445.66,-226.71C444.51,-204.96 444.2,-151.12 465.38,-113.5 471.88,-101.94 482.56,-92.03 492.71,-84.45"/>
<polygon fill="#63b8ff" stroke="#63b8ff" points="494.65,-87.36 500.88,-78.79 490.66,-81.61 494.65,-87.36"/>
</a>
</g>
</g>
<!-- Node7 -->
<g id="Node000007" class="node">
<title>Node7</title>
<g id="a_Node000007"><a xlink:title=" ">
<polygon fill="#e0e0e0" stroke="#999999" points="88.75,-191 0,-191 0,-170.25 88.75,-170.25 88.75,-191"/>
<text xml:space="preserve" text-anchor="middle" x="44.38" y="-177.5" font-family="Helvetica,sans-Serif" font-size="10.00">MK22F51212.h</text>
</a>
</g>
</g>
<!-- Node3&#45;&gt;Node7 -->
<g id="edge6_Node000003_Node000007" class="edge">
<title>Node3&#45;&gt;Node7</title>
<g id="a_edge6_Node000003_Node000007"><a xlink:title=" ">
<path fill="none" stroke="#63b8ff" d="M405.81,-231.41C341.42,-223.45 211.89,-207.07 102.38,-191 101.7,-190.9 101.01,-190.8 100.33,-190.7"/>
<polygon fill="#63b8ff" stroke="#63b8ff" points="100.91,-187.25 90.5,-189.2 99.86,-194.17 100.91,-187.25"/>
</a>
</g>
</g>
<!-- Node3&#45;&gt;Node8 -->
<g id="edge7_Node000003_Node000008" class="edge">
<title>Node3&#45;&gt;Node8</title>
<g id="a_edge7_Node000003_Node000008"><a xlink:title=" ">
<path fill="none" stroke="#63b8ff" d="M457.82,-226.59C466.83,-218.88 479.61,-207.95 490.31,-198.79"/>
<polygon fill="#63b8ff" stroke="#63b8ff" points="492.56,-201.47 497.88,-192.31 488.01,-196.15 492.56,-201.47"/>
</a>
</g>
</g>
<!-- Node11 -->
<g id="Node000011" class="node">
<title>Node11</title>
<g id="a_Node000011"><a xlink:title=" ">
<polygon fill="#e0e0e0" stroke="#999999" points="163.75,-77.5 105,-77.5 105,-56.75 163.75,-56.75 163.75,-77.5"/>
<text xml:space="preserve" text-anchor="middle" x="134.38" y="-64" font-family="Helvetica,sans-Serif" font-size="10.00">fsl_ftm.h</text>
</a>
</g>
</g>
<!-- Node3&#45;&gt;Node11 -->
<g id="edge34_Node000003_Node000011" class="edge">
<title>Node3&#45;&gt;Node11</title>
<g id="a_edge34_Node000003_Node000011"><a xlink:title=" ">
<path fill="none" stroke="#63b8ff" d="M413.99,-226.52C366.21,-211.14 275.07,-178.54 206.38,-134.25 185.11,-120.54 164.2,-100.38 150.44,-85.92"/>
<polygon fill="#63b8ff" stroke="#63b8ff" points="153.26,-83.82 143.89,-78.88 148.13,-88.59 153.26,-83.82"/>
</a>
</g>
</g>
<!-- Node12 -->
<g id="Node000012" class="node">
<title>Node12</title>
<g id="a_Node000012"><a xlink:title=" ">
<polygon fill="#e0e0e0" stroke="#999999" points="424,-77.5 360.75,-77.5 360.75,-56.75 424,-56.75 424,-77.5"/>
<text xml:space="preserve" text-anchor="middle" x="392.38" y="-64" font-family="Helvetica,sans-Serif" font-size="10.00">fsl_gpio.h</text>
</a>
</g>
</g>
<!-- Node3&#45;&gt;Node12 -->
<g id="edge35_Node000003_Node000012" class="edge">
<title>Node3&#45;&gt;Node12</title>
<g id="a_edge35_Node000003_Node000012"><a xlink:title=" ">
<path fill="none" stroke="#63b8ff" d="M443.32,-226.85C434.82,-200.37 410.77,-125.43 399.01,-88.8"/>
<polygon fill="#63b8ff" stroke="#63b8ff" points="402.39,-87.86 396,-79.41 395.72,-90 402.39,-87.86"/>
</a>
</g>
</g>
<!-- Node13 -->
<g id="Node000013" class="node">
<title>Node13</title>
<g id="a_Node000013"><a xlink:title=" ">
<polygon fill="#e0e0e0" stroke="#999999" points="87.25,-77.5 25.5,-77.5 25.5,-56.75 87.25,-56.75 87.25,-77.5"/>
<text xml:space="preserve" text-anchor="middle" x="56.38" y="-64" font-family="Helvetica,sans-Serif" font-size="10.00">fsl_port.h</text>
</a>
</g>
</g>
<!-- Node3&#45;&gt;Node13 -->
<g id="edge36_Node000003_Node000013" class="edge">
<title>Node3&#45;&gt;Node13</title>
<g id="a_edge36_Node000003_Node000013"><a xlink:title=" ">
<path fill="none" stroke="#63b8ff" d="M405.68,-228.15C369.4,-220.29 315.11,-207.26 269.38,-191 212.65,-170.83 198.23,-164.84 146.38,-134.25 121.29,-119.45 94.67,-99.26 76.94,-85.09"/>
<polygon fill="#63b8ff" stroke="#63b8ff" points="79.22,-82.44 69.25,-78.87 74.82,-87.88 79.22,-82.44"/>
</a>
</g>
</g>
<!-- Node3&#45;&gt;Node20 -->
<g id="edge28_Node000003_Node000020" class="edge">
<title>Node3&#45;&gt;Node20</title>
<g id="a_edge28_Node000003_Node000020"><a xlink:title=" ">
<path fill="none" stroke="#63b8ff" d="M486.83,-228.99C538.6,-219.54 628.62,-203.11 687.86,-192.3"/>
<polygon fill="#63b8ff" stroke="#63b8ff" points="688.21,-195.8 697.42,-190.56 686.95,-188.91 688.21,-195.8"/>
</a>
</g>
</g>
<!-- Node5 -->
<g id="Node000005" class="node">
<title>Node5</title>
<g id="a_Node000005"><a xlink:title=" ">
<polygon fill="#e0e0e0" stroke="#999999" points="866.88,-20.75 781.88,-20.75 781.88,0 866.88,0 866.88,-20.75"/>
<text xml:space="preserve" text-anchor="middle" x="824.38" y="-7.25" font-family="Helvetica,sans-Serif" font-size="10.00">fsl_common.h</text>
</a>
</g>
</g>
<!-- Node4&#45;&gt;Node5 -->
<g id="edge4_Node000004_Node000005" class="edge">
<title>Node4&#45;&gt;Node5</title>
<g id="a_edge4_Node000004_Node000005"><a xlink:title=" ">
<path fill="none" stroke="#63b8ff" d="M574.26,-56.27C629.82,-46.3 715.2,-30.97 770.43,-21.06"/>
<polygon fill="#63b8ff" stroke="#63b8ff" points="771.02,-24.51 780.24,-19.3 769.78,-17.62 771.02,-24.51"/>
</a>
</g>
</g>
<!-- Node6 -->
<g id="Node000006" class="node">
<title>Node6</title>
<g id="a_Node000006"><a xlink:title=" ">
<polygon fill="#e0e0e0" stroke="#999999" points="612.25,-20.75 532.5,-20.75 532.5,0 612.25,0 612.25,-20.75"/>
<text xml:space="preserve" text-anchor="middle" x="572.38" y="-7.25" font-family="Helvetica,sans-Serif" font-size="10.00">peripherals.h</text>
</a>
</g>
</g>
<!-- Node4&#45;&gt;Node6 -->
<g id="edge5_Node000004_Node000006" class="edge">
<title>Node4&#45;&gt;Node6</title>
<g id="a_edge5_Node000004_Node000006"><a xlink:title=" ">
<path fill="none" stroke="#63b8ff" d="M528.85,-56.34C536.16,-48.78 546.47,-38.14 555.22,-29.1"/>
<polygon fill="#63b8ff" stroke="#63b8ff" points="557.49,-31.79 561.93,-22.17 552.46,-26.92 557.49,-31.79"/>
</a>
</g>
</g>
<!-- Node8&#45;&gt;Node4 -->
<g id="edge8_Node000008_Node000004" class="edge">
<title>Node8&#45;&gt;Node4</title>
<g id="a_edge8_Node000008_Node000004"><a xlink:title=" ">
<path fill="none" stroke="#63b8ff" d="M515.79,-169.9C520.43,-160.95 526.78,-147.14 529.38,-134.25 532.46,-118.91 529.52,-101.4 526.05,-88.25"/>
<polygon fill="#63b8ff" stroke="#63b8ff" points="529.52,-87.62 523.31,-79.04 522.81,-89.63 529.52,-87.62"/>
</a>
</g>
</g>
<!-- Node8&#45;&gt;Node5 -->
<g id="edge11_Node000008_Node000005" class="edge">
<title>Node8&#45;&gt;Node5</title>
<g id="a_edge11_Node000008_Node000005"><a xlink:title=" ">
<path fill="none" stroke="#63b8ff" d="M521.18,-169.95C547.06,-147.23 615.38,-89.88 681.38,-56.75 709.51,-42.63 742.95,-31.73 770.41,-24.16"/>
<polygon fill="#63b8ff" stroke="#63b8ff" points="771.18,-27.57 779.93,-21.61 769.37,-20.81 771.18,-27.57"/>
</a>
</g>
</g>
<!-- Node9 -->
<g id="Node000009" class="node">
<title>Node9</title>
<g id="a_Node000009"><a xlink:title=" ">
<polygon fill="#e0e0e0" stroke="#999999" points="924.12,-77.5 852.62,-77.5 852.62,-56.75 924.12,-56.75 924.12,-77.5"/>
<text xml:space="preserve" text-anchor="middle" x="888.38" y="-64" font-family="Helvetica,sans-Serif" font-size="10.00">FreeRTOS.h</text>
</a>
</g>
</g>
<!-- Node8&#45;&gt;Node9 -->
<g id="edge9_Node000008_Node000009" class="edge">
<title>Node8&#45;&gt;Node9</title>
<g id="a_edge9_Node000008_Node000009"><a xlink:title=" ">
<path fill="none" stroke="#63b8ff" d="M546.64,-176.95C597.28,-172.39 691.49,-160.88 767.38,-134.25 803.19,-121.68 841.05,-99.32 864.69,-84.12"/>
<polygon fill="#63b8ff" stroke="#63b8ff" points="866.48,-87.13 872.93,-78.72 862.64,-81.27 866.48,-87.13"/>
</a>
</g>
</g>
<!-- Node10 -->
<g id="Node000010" class="node">
<title>Node10</title>
<g id="a_Node000010"><a xlink:title=" ">
<polygon fill="#e0e0e0" stroke="#999999" points="520.38,-134.25 474.38,-134.25 474.38,-113.5 520.38,-113.5 520.38,-134.25"/>
<text xml:space="preserve" text-anchor="middle" x="497.38" y="-120.75" font-family="Helvetica,sans-Serif" font-size="10.00">task.h</text>
</a>
</g>
</g>
<!-- Node8&#45;&gt;Node10 -->
<g id="edge10_Node000008_Node000010" class="edge">
<title>Node8&#45;&gt;Node10</title>
<g id="a_edge10_Node000008_Node000010"><a xlink:title=" ">
<path fill="none" stroke="#63b8ff" d="M508.05,-169.84C506.46,-163.14 504.29,-154.01 502.33,-145.73"/>
<polygon fill="#63b8ff" stroke="#63b8ff" points="505.74,-144.97 500.03,-136.05 498.93,-146.59 505.74,-144.97"/>
</a>
</g>
</g>
<!-- Node8&#45;&gt;Node11 -->
<g id="edge12_Node000008_Node000011" class="edge">
<title>Node8&#45;&gt;Node11</title>
<g id="a_edge12_Node000008_Node000011"><a xlink:title=" ">
<path fill="none" stroke="#63b8ff" d="M473.89,-177.31C422.47,-173.15 326.36,-162.09 249.38,-134.25 231.15,-127.66 187.17,-101.15 159.19,-83.76"/>
<polygon fill="#63b8ff" stroke="#63b8ff" points="161.3,-80.95 150.96,-78.62 157.59,-86.89 161.3,-80.95"/>
</a>
</g>
</g>
<!-- Node8&#45;&gt;Node12 -->
<g id="edge13_Node000008_Node000012" class="edge">
<title>Node8&#45;&gt;Node12</title>
<g id="a_edge13_Node000008_Node000012"><a xlink:title=" ">
<path fill="none" stroke="#63b8ff" d="M500.31,-170.12C480.47,-151.37 436.03,-109.38 410.8,-85.53"/>
<polygon fill="#63b8ff" stroke="#63b8ff" points="413.52,-83.29 403.85,-78.96 408.71,-88.38 413.52,-83.29"/>
</a>
</g>
</g>
<!-- Node8&#45;&gt;Node13 -->
<g id="edge14_Node000008_Node000013" class="edge">
<title>Node8&#45;&gt;Node13</title>
<g id="a_edge14_Node000008_Node000013"><a xlink:title=" ">
<path fill="none" stroke="#63b8ff" d="M474.02,-177.4C416.15,-173.15 299.97,-161.73 205.38,-134.25 161.32,-121.45 113.32,-98.35 84.03,-83.12"/>
<polygon fill="#63b8ff" stroke="#63b8ff" points="85.95,-80.18 75.47,-78.61 82.68,-86.37 85.95,-80.18"/>
</a>
</g>
</g>
<!-- Node14 -->
<g id="Node000014" class="node">
<title>Node14</title>
<g id="a_Node000014"><a xlink:href="cmd__handle_8h.html" target="_top" xlink:title=" ">
<polygon fill="white" stroke="#666666" points="1072.5,-134.25 988.25,-134.25 988.25,-113.5 1072.5,-113.5 1072.5,-134.25"/>
<text xml:space="preserve" text-anchor="middle" x="1030.38" y="-120.75" font-family="Helvetica,sans-Serif" font-size="10.00">cmd_handle.h</text>
</a>
</g>
</g>
<!-- Node8&#45;&gt;Node14 -->
<g id="edge15_Node000008_Node000014" class="edge">
<title>Node8&#45;&gt;Node14</title>
<g id="a_edge15_Node000008_Node000014"><a xlink:title=" ">
<path fill="none" stroke="#63b8ff" d="M546.99,-177.15C624.43,-171.69 810.73,-157.35 976.93,-134.49"/>
<polygon fill="#63b8ff" stroke="#63b8ff" points="976.92,-138.03 986.34,-133.18 975.96,-131.09 976.92,-138.03"/>
</a>
</g>
</g>
<!-- Node18 -->
<g id="Node000018" class="node">
<title>Node18</title>
<g id="a_Node000018"><a xlink:href="step__shared_8h.html" target="_top" xlink:title=" ">
<polygon fill="white" stroke="#666666" points="342.5,-134.25 258.25,-134.25 258.25,-113.5 342.5,-113.5 342.5,-134.25"/>
<text xml:space="preserve" text-anchor="middle" x="300.38" y="-120.75" font-family="Helvetica,sans-Serif" font-size="10.00">step_shared.h</text>
</a>
</g>
</g>
<!-- Node8&#45;&gt;Node18 -->
<g id="edge21_Node000008_Node000018" class="edge">
<title>Node8&#45;&gt;Node18</title>
<g id="a_edge21_Node000008_Node000018"><a xlink:title=" ">
<path fill="none" stroke="#63b8ff" d="M473.8,-170.09C439.14,-161.05 386.88,-147.43 348.79,-137.5"/>
<polygon fill="#63b8ff" stroke="#63b8ff" points="349.97,-134.19 339.41,-135.05 348.21,-140.96 349.97,-134.19"/>
</a>
</g>
</g>
<!-- Node14&#45;&gt;Node5 -->
<g id="edge19_Node000014_Node000005" class="edge">
<title>Node14&#45;&gt;Node5</title>
<g id="a_edge19_Node000014_Node000005"><a xlink:title=" ">
<path fill="none" stroke="#63b8ff" d="M1036.2,-113.15C1043.78,-99.09 1054.58,-73.01 1041.38,-56.75 1021.22,-31.95 935.91,-20.23 878.45,-15.06"/>
<polygon fill="#63b8ff" stroke="#63b8ff" points="878.77,-11.57 868.51,-14.21 878.17,-18.55 878.77,-11.57"/>
</a>
</g>
</g>
<!-- Node14&#45;&gt;Node9 -->
<g id="edge17_Node000014_Node000009" class="edge">
<title>Node14&#45;&gt;Node9</title>
<g id="a_edge17_Node000014_Node000009"><a xlink:title=" ">
<path fill="none" stroke="#63b8ff" d="M1004.99,-113.09C982.47,-104.41 949.35,-91.63 924.15,-81.92"/>
<polygon fill="#63b8ff" stroke="#63b8ff" points="925.54,-78.7 914.95,-78.37 923.03,-85.24 925.54,-78.7"/>
</a>
</g>
</g>
<!-- Node15 -->
<g id="Node000015" class="node">
<title>Node15</title>
<g id="a_Node000015"><a xlink:title=" ">
<polygon fill="#e0e0e0" stroke="#999999" points="1250.75,-77.5 1198,-77.5 1198,-56.75 1250.75,-56.75 1250.75,-77.5"/>
<text xml:space="preserve" text-anchor="middle" x="1224.38" y="-64" font-family="Helvetica,sans-Serif" font-size="10.00">stdint.h</text>
</a>
</g>
</g>
<!-- Node14&#45;&gt;Node15 -->
<g id="edge16_Node000014_Node000015" class="edge">
<title>Node14&#45;&gt;Node15</title>
<g id="a_edge16_Node000014_Node000015"><a xlink:title=" ">
<path fill="none" stroke="#63b8ff" d="M1065.06,-113.09C1099.38,-103.4 1151.75,-88.62 1186.99,-78.68"/>
<polygon fill="#63b8ff" stroke="#63b8ff" points="1187.65,-82.13 1196.32,-76.04 1185.75,-75.39 1187.65,-82.13"/>
</a>
</g>
</g>
<!-- Node16 -->
<g id="Node000016" class="node">
<title>Node16</title>
<g id="a_Node000016"><a xlink:title=" ">
<polygon fill="#e0e0e0" stroke="#999999" points="1179.88,-77.5 1088.88,-77.5 1088.88,-56.75 1179.88,-56.75 1179.88,-77.5"/>
<text xml:space="preserve" text-anchor="middle" x="1134.38" y="-64" font-family="Helvetica,sans-Serif" font-size="10.00">event_groups.h</text>
</a>
</g>
</g>
<!-- Node14&#45;&gt;Node16 -->
<g id="edge18_Node000014_Node000016" class="edge">
<title>Node14&#45;&gt;Node16</title>
<g id="a_edge18_Node000014_Node000016"><a xlink:title=" ">
<path fill="none" stroke="#63b8ff" d="M1048.97,-113.09C1064.79,-104.76 1087.77,-92.66 1105.91,-83.11"/>
<polygon fill="#63b8ff" stroke="#63b8ff" points="1107.39,-86.29 1114.6,-78.53 1104.12,-80.09 1107.39,-86.29"/>
</a>
</g>
</g>
<!-- Node17 -->
<g id="Node000017" class="node">
<title>Node17</title>
<g id="a_Node000017"><a xlink:title=" ">
<polygon fill="#e0e0e0" stroke="#999999" points="1032.38,-77.5 980.38,-77.5 980.38,-56.75 1032.38,-56.75 1032.38,-77.5"/>
<text xml:space="preserve" text-anchor="middle" x="1006.38" y="-64" font-family="Helvetica,sans-Serif" font-size="10.00">stdlib.h</text>
</a>
</g>
</g>
<!-- Node14&#45;&gt;Node17 -->
<g id="edge20_Node000014_Node000017" class="edge">
<title>Node14&#45;&gt;Node17</title>
<g id="a_edge20_Node000014_Node000017"><a xlink:title=" ">
<path fill="none" stroke="#63b8ff" d="M1026.08,-113.09C1023.05,-106.16 1018.87,-96.62 1015.14,-88.11"/>
<polygon fill="#63b8ff" stroke="#63b8ff" points="1018.46,-86.97 1011.24,-79.21 1012.05,-89.78 1018.46,-86.97"/>
</a>
</g>
</g>
<!-- Node18&#45;&gt;Node4 -->
<g id="edge22_Node000018_Node000004" class="edge">
<title>Node18&#45;&gt;Node4</title>
<g id="a_edge22_Node000018_Node000004"><a xlink:title=" ">
<path fill="none" stroke="#63b8ff" d="M339.78,-113.02C375.95,-103.98 429.72,-90.54 469,-80.72"/>
<polygon fill="#63b8ff" stroke="#63b8ff" points="469.6,-84.18 478.45,-78.36 467.9,-77.39 469.6,-84.18"/>
</a>
</g>
</g>
<!-- Node18&#45;&gt;Node5 -->
<g id="edge24_Node000018_Node000005" class="edge">
<title>Node18&#45;&gt;Node5</title>
<g id="a_edge24_Node000018_Node000005"><a xlink:title=" ">
<path fill="none" stroke="#63b8ff" d="M304.67,-113.19C311.89,-98.17 328.03,-69.65 351.38,-56.75 387.33,-36.89 653.62,-20.47 770.09,-14.15"/>
<polygon fill="#63b8ff" stroke="#63b8ff" points="770.24,-17.65 780.04,-13.62 769.86,-10.66 770.24,-17.65"/>
</a>
</g>
</g>
<!-- Node18&#45;&gt;Node11 -->
<g id="edge25_Node000018_Node000011" class="edge">
<title>Node18&#45;&gt;Node11</title>
<g id="a_edge25_Node000018_Node000011"><a xlink:title=" ">
<path fill="none" stroke="#63b8ff" d="M270.7,-113.09C243.99,-104.28 204.5,-91.25 174.89,-81.49"/>
<polygon fill="#63b8ff" stroke="#63b8ff" points="176.11,-78.2 165.51,-78.39 173.91,-84.85 176.11,-78.2"/>
</a>
</g>
</g>
<!-- Node18&#45;&gt;Node12 -->
<g id="edge26_Node000018_Node000012" class="edge">
<title>Node18&#45;&gt;Node12</title>
<g id="a_edge26_Node000018_Node000012"><a xlink:title=" ">
<path fill="none" stroke="#63b8ff" d="M316.82,-113.09C330.56,-104.91 350.39,-93.11 366.29,-83.65"/>
<polygon fill="#63b8ff" stroke="#63b8ff" points="367.97,-86.72 374.77,-78.6 364.39,-80.71 367.97,-86.72"/>
</a>
</g>
</g>
<!-- Node18&#45;&gt;Node13 -->
<g id="edge27_Node000018_Node000013" class="edge">
<title>Node18&#45;&gt;Node13</title>
<g id="a_edge27_Node000018_Node000013"><a xlink:title=" ">
<path fill="none" stroke="#63b8ff" d="M257.76,-113.54C218.8,-104.98 159.3,-91.82 98.36,-77.94"/>
<polygon fill="#63b8ff" stroke="#63b8ff" points="99.38,-74.58 88.85,-75.76 97.82,-81.4 99.38,-74.58"/>
</a>
</g>
</g>
<!-- Node19 -->
<g id="Node000019" class="node">
<title>Node19</title>
<g id="a_Node000019"><a xlink:title=" ">
<polygon fill="#e0e0e0" stroke="#999999" points="304.62,-77.5 182.12,-77.5 182.12,-56.75 304.62,-56.75 304.62,-77.5"/>
<text xml:space="preserve" text-anchor="middle" x="243.38" y="-64" font-family="Helvetica,sans-Serif" font-size="10.00">fsl_device_registers.h</text>
</a>
</g>
</g>
<!-- Node18&#45;&gt;Node19 -->
<g id="edge23_Node000018_Node000019" class="edge">
<title>Node18&#45;&gt;Node19</title>
<g id="a_edge23_Node000018_Node000019"><a xlink:title=" ">
<path fill="none" stroke="#63b8ff" d="M290.18,-113.09C282.24,-105.46 271.01,-94.67 261.54,-85.57"/>
<polygon fill="#63b8ff" stroke="#63b8ff" points="264.21,-83.28 254.57,-78.88 259.36,-88.33 264.21,-83.28"/>
</a>
</g>
</g>
<!-- Node20&#45;&gt;Node5 -->
<g id="edge31_Node000020_Node000005" class="edge">
<title>Node20&#45;&gt;Node5</title>
<g id="a_edge31_Node000020_Node000005"><a xlink:title=" ">
<path fill="none" stroke="#63b8ff" d="M753.08,-169.9C765.03,-152.22 790.16,-113.31 805.38,-77.5 811.67,-62.69 816.6,-45.15 819.86,-31.86"/>
<polygon fill="#63b8ff" stroke="#63b8ff" points="823.18,-33.05 822.03,-22.52 816.36,-31.46 823.18,-33.05"/>
</a>
</g>
</g>
<!-- Node20&#45;&gt;Node6 -->
<g id="edge33_Node000020_Node000006" class="edge">
<title>Node20&#45;&gt;Node6</title>
<g id="a_edge33_Node000020_Node000006"><a xlink:title=" ">
<path fill="none" stroke="#63b8ff" d="M707.91,-169.76C686.77,-162.74 661.28,-151.43 643.38,-134.25 615.7,-107.68 625.18,-89.61 605.38,-56.75 599.93,-47.72 593.19,-38.21 587.22,-30.24"/>
<polygon fill="#63b8ff" stroke="#63b8ff" points="590.01,-28.13 581.15,-22.33 584.46,-32.39 590.01,-28.13"/>
</a>
</g>
</g>
<!-- Node20&#45;&gt;Node14 -->
<g id="edge32_Node000020_Node000014" class="edge">
<title>Node20&#45;&gt;Node14</title>
<g id="a_edge32_Node000020_Node000014"><a xlink:title=" ">
<path fill="none" stroke="#63b8ff" d="M793.59,-170.52C844.14,-160.78 924.18,-145.35 976.99,-135.17"/>
<polygon fill="#63b8ff" stroke="#63b8ff" points="977.51,-138.63 986.66,-133.3 976.18,-131.76 977.51,-138.63"/>
</a>
</g>
</g>
<!-- Node21 -->
<g id="Node000021" class="node">
<title>Node21</title>
<g id="a_Node000021"><a xlink:href="tmc2209__shared_8h.html" target="_top" xlink:title=" ">
<polygon fill="white" stroke="#666666" points="758.38,-134.25 652.38,-134.25 652.38,-113.5 758.38,-113.5 758.38,-134.25"/>
<text xml:space="preserve" text-anchor="middle" x="705.38" y="-120.75" font-family="Helvetica,sans-Serif" font-size="10.00">tmc2209_shared.h</text>
</a>
</g>
</g>
<!-- Node20&#45;&gt;Node21 -->
<g id="edge29_Node000020_Node000021" class="edge">
<title>Node20&#45;&gt;Node21</title>
<g id="a_edge29_Node000020_Node000021"><a xlink:title=" ">
<path fill="none" stroke="#63b8ff" d="M739.05,-169.84C733.62,-162.6 726.07,-152.51 719.49,-143.72"/>
<polygon fill="#63b8ff" stroke="#63b8ff" points="722.34,-141.7 713.55,-135.79 716.74,-145.89 722.34,-141.7"/>
</a>
</g>
</g>
<!-- Node22 -->
<g id="Node000022" class="node">
<title>Node22</title>
<g id="a_Node000022"><a xlink:title=" ">
<polygon fill="#e0e0e0" stroke="#999999" points="796,-77.5 690.75,-77.5 690.75,-56.75 796,-56.75 796,-77.5"/>
<text xml:space="preserve" text-anchor="middle" x="743.38" y="-64" font-family="Helvetica,sans-Serif" font-size="10.00">fsl_uart_freertos.h</text>
</a>
</g>
</g>
<!-- Node21&#45;&gt;Node22 -->
<g id="edge30_Node000021_Node000022" class="edge">
<title>Node21&#45;&gt;Node22</title>
<g id="a_edge30_Node000021_Node000022"><a xlink:title=" ">
<path fill="none" stroke="#63b8ff" d="M712.17,-113.09C717.14,-105.92 724.04,-95.98 730.1,-87.26"/>
<polygon fill="#63b8ff" stroke="#63b8ff" points="732.95,-89.28 735.78,-79.07 727.2,-85.29 732.95,-89.28"/>
</a>
</g>
</g>
<!-- Node23&#45;&gt;Node3 -->
<g id="edge38_Node000023_Node000003" class="edge">
<title>Node23&#45;&gt;Node3</title>
<g id="a_edge38_Node000023_Node000003"><a xlink:title=" ">
<path fill="none" stroke="#63b8ff" d="M785.63,-286.25C712.06,-275.87 573.29,-256.28 498.04,-245.67"/>
<polygon fill="#63b8ff" stroke="#63b8ff" points="498.86,-242.25 488.47,-244.32 497.88,-249.18 498.86,-242.25"/>
</a>
</g>
</g>
<!-- Node23&#45;&gt;Node9 -->
<g id="edge39_Node000023_Node000009" class="edge">
<title>Node23&#45;&gt;Node9</title>
<g id="a_edge39_Node000023_Node000009"><a xlink:title=" ">
<path fill="none" stroke="#63b8ff" d="M836.7,-283.46C844.81,-249.63 872.06,-136.11 883.38,-88.94"/>
<polygon fill="#63b8ff" stroke="#63b8ff" points="886.78,-89.77 885.71,-79.23 879.97,-88.14 886.78,-89.77"/>
</a>
</g>
</g>
<!-- Node23&#45;&gt;Node14 -->
<g id="edge41_Node000023_Node000014" class="edge">
<title>Node23&#45;&gt;Node14</title>
<g id="a_edge41_Node000023_Node000014"><a xlink:title=" ">
<path fill="none" stroke="#63b8ff" d="M845.76,-283.35C877.9,-255.76 969.62,-177.02 1010.41,-142.02"/>
<polygon fill="#63b8ff" stroke="#63b8ff" points="1012.5,-144.83 1017.81,-135.66 1007.94,-139.52 1012.5,-144.83"/>
</a>
</g>
</g>
<!-- Node24 -->
<g id="Node000024" class="node">
<title>Node24</title>
<g id="a_Node000024"><a xlink:title=" ">
<polygon fill="#e0e0e0" stroke="#999999" points="833.88,-247.75 778.88,-247.75 778.88,-227 833.88,-227 833.88,-247.75"/>
<text xml:space="preserve" text-anchor="middle" x="806.38" y="-234.25" font-family="Helvetica,sans-Serif" font-size="10.00">queue.h</text>
</a>
</g>
</g>
<!-- Node23&#45;&gt;Node24 -->
<g id="edge40_Node000023_Node000024" class="edge">
<title>Node23&#45;&gt;Node24</title>
<g id="a_edge40_Node000023_Node000024"><a xlink:title=" ">
<path fill="none" stroke="#63b8ff" d="M829.37,-283.34C825.79,-276.33 820.84,-266.66 816.45,-258.08"/>
<polygon fill="#63b8ff" stroke="#63b8ff" points="819.7,-256.74 812.03,-249.43 813.46,-259.92 819.7,-256.74"/>
</a>
</g>
</g>
<!-- Node25&#45;&gt;Node5 -->
<g id="edge44_Node000025_Node000005" class="edge">
<title>Node25&#45;&gt;Node5</title>
<g id="a_edge44_Node000025_Node000005"><a xlink:title=" ">
<path fill="none" stroke="#63b8ff" d="M950.46,-113.12C950.08,-99.02 947.35,-72.87 933.38,-56.75 919.16,-40.35 898.06,-29.75 878.19,-22.96"/>
<polygon fill="#63b8ff" stroke="#63b8ff" points="879.37,-19.66 868.78,-20.02 877.28,-26.34 879.37,-19.66"/>
</a>
</g>
</g>
<!-- Node25&#45;&gt;Node9 -->
<g id="edge43_Node000025_Node000009" class="edge">
<title>Node25&#45;&gt;Node9</title>
<g id="a_edge43_Node000025_Node000009"><a xlink:title=" ">
<path fill="none" stroke="#63b8ff" d="M939.29,-113.09C930.56,-105.38 918.18,-94.45 907.81,-85.29"/>
<polygon fill="#63b8ff" stroke="#63b8ff" points="910.31,-82.83 900.5,-78.83 905.68,-88.07 910.31,-82.83"/>
</a>
</g>
</g>
<!-- Node27&#45;&gt;Node5 -->
<g id="edge52_Node000027_Node000005" class="edge">
<title>Node27&#45;&gt;Node5</title>
<g id="a_edge52_Node000027_Node000005"><a xlink:title=" ">
<path fill="none" stroke="#63b8ff" d="M1155.37,-169.81C1203.28,-149.64 1299.85,-101.67 1259.38,-56.75 1234.31,-28.93 989.57,-17.04 878.6,-13.05"/>
<polygon fill="#63b8ff" stroke="#63b8ff" points="878.96,-9.56 868.85,-12.71 878.72,-16.56 878.96,-9.56"/>
</a>
</g>
</g>
<!-- Node27&#45;&gt;Node9 -->
<g id="edge50_Node000027_Node000009" class="edge">
<title>Node27&#45;&gt;Node9</title>
<g id="a_edge50_Node000027_Node000009"><a xlink:title=" ">
<path fill="none" stroke="#63b8ff" d="M1093.03,-175.43C1040.37,-168.86 947.76,-154.76 921.38,-134.25 906.83,-122.94 898.22,-103.51 893.46,-88.63"/>
<polygon fill="#63b8ff" stroke="#63b8ff" points="896.93,-88.04 890.84,-79.37 890.2,-89.95 896.93,-88.04"/>
</a>
</g>
</g>
<!-- Node27&#45;&gt;Node14 -->
<g id="edge53_Node000027_Node000014" class="edge">
<title>Node27&#45;&gt;Node14</title>
<g id="a_edge53_Node000027_Node000014"><a xlink:title=" ">
<path fill="none" stroke="#63b8ff" d="M1112.5,-169.84C1097.28,-161.51 1075.18,-149.41 1057.74,-139.86"/>
<polygon fill="#63b8ff" stroke="#63b8ff" points="1059.88,-137.04 1049.43,-135.31 1056.52,-143.18 1059.88,-137.04"/>
</a>
</g>
</g>
<!-- Node27&#45;&gt;Node15 -->
<g id="edge49_Node000027_Node000015" class="edge">
<title>Node27&#45;&gt;Node15</title>
<g id="a_edge49_Node000027_Node000015"><a xlink:title=" ">
<path fill="none" stroke="#63b8ff" d="M1138.39,-170.12C1153.99,-151.61 1188.67,-110.47 1208.9,-86.48"/>
<polygon fill="#63b8ff" stroke="#63b8ff" points="1211.37,-88.98 1215.14,-79.08 1206.02,-84.47 1211.37,-88.98"/>
</a>
</g>
</g>
<!-- Node27&#45;&gt;Node16 -->
<g id="edge51_Node000027_Node000016" class="edge">
<title>Node27&#45;&gt;Node16</title>
<g id="a_edge51_Node000027_Node000016"><a xlink:title=" ">
<path fill="none" stroke="#63b8ff" d="M1130.72,-170.12C1131.35,-152.35 1132.74,-113.72 1133.61,-89.43"/>
<polygon fill="#63b8ff" stroke="#63b8ff" points="1137.11,-89.56 1133.97,-79.44 1130.11,-89.31 1137.11,-89.56"/>
</a>
</g>
</g>
</g>
</svg>

<g id="navigator" transform="translate(0 0)" fill="#404254">
  <rect fill="#f2f5e9" fill-opacity="0.5" stroke="#606060" stroke-width=".5" x="0" y="0" width="60" height="60"/>
  <use id="zoomplus" xlink:href="#zoomPlus" x="17" y="9" onmousedown="handleZoom(evt,'in')"/>
  <use id="zoomminus" xlink:href="#zoomMin" x="42" y="9" onmousedown="handleZoom(evt,'out')"/>
  <use id="reset" xlink:href="#resetDef" x="30" y="36" onmousedown="handleReset()"/>
   <use id="arrowup" xlink:href="#arrowUp" x="0" y="0" onmousedown="handlePan(0,-1)"/>
  <use id="arrowright" xlink:href="#arrowRight" x="0" y="0" onmousedown="handlePan(1,0)"/>
  <use id="arrowdown" xlink:href="#arrowDown" x="0" y="0" onmousedown="handlePan(0,1)"/>
  <use id="arrowleft" xlink:href="#arrowLeft" x="0" y="0" onmousedown="handlePan(-1,0)"/>
</g>
<svg viewBox="0 0 15 15" width="100%" height="30px" preserveAspectRatio="xMaxYMin meet">
 <g id="arrow_out" transform="scale(0.3 0.3)">
  <a xlink:href="motor__init_8c__incl_org.svg" target="_base">
   <rect id="button" ry="5" rx="5" y="6" x="6" height="38" width="38"
        fill="#f2f5e9" fill-opacity="0.5" stroke="#606060" stroke-width="1.0"/>
   <path id="arrow"
     d="M 11.500037,31.436501 C 11.940474,20.09759 22.043105,11.32322 32.158766,21.979434 L 37.068811,17.246167 C 37.068811,17.246167 37.088388,32 37.088388,32 L 22.160133,31.978069 C 22.160133,31.978069 26.997745,27.140456 26.997745,27.140456 C 18.528582,18.264221 13.291696,25.230495 11.500037,31.436501 z"
     style="fill:#404040;"/>
  </a>
 </g>
</svg>

<style type='text/css'>
<![CDATA[
[data-mouse-over-selected='false'] { opacity: 0.7; }
[data-mouse-over-selected='true']  { opacity: 1.0; }
]]>
</style>
<script type="application/ecmascript"><![CDATA[
document.addEventListener('DOMContentLoaded', (event) => {
  highlightEdges();
  highlightAdjacentNodes();
});
]]></script>
</svg>
