<?xml version="1.0" encoding="UTF-8" standalone="no"?>
<!DOCTYPE svg PUBLIC "-//W3C//DTD SVG 1.1//EN"
 "http://www.w3.org/Graphics/SVG/1.1/DTD/svg11.dtd">
<!-- Generated by graphviz version 14.1.4 (0)
 -->
<!-- Title: source/motion/motor/motor_core.c Pages: 1 -->
<!--zoomable 439 -->

<svg id="main" version="1.1" xmlns="http://www.w3.org/2000/svg" xmlns:xlink="http://www.w3.org/1999/xlink" xml:space="preserve" onload="init(evt)">

<style type="text/css"><![CDATA[
.node, .edge {opacity: 0.7;}
.node.selected, .edge.selected {opacity: 1;}
.edge:hover path { stroke: red; }
.edge:hover polygon { stroke: red; fill: red; }
]]></style>

<defs>
  <circle id="rim" cx="0" cy="0" r="7"/>
  <circle id="rim2" cx="0" cy="0" r="3.5"/>
  <g id="zoomPlus">
    <use xlink:href="#rim" fill="#404040"><set attributeName="fill" to="#808080" begin="zoomplus.mouseover" end="zoomplus.mouseout"/></use>
    <path d="M-4,0h8M0,-4v8" fill="none" stroke="white" stroke-width="1.5" pointer-events="none"/>
  </g>
  <g id="zoomMin">
    <use xlink:href="#rim" fill="#404040"><set attributeName="fill" to="#808080" begin="zoomminus.mouseover" end="zoomminus.mouseout"/></use>
    <path d="M-4,0h8" fill="none" stroke="white" stroke-width="1.5" pointer-events="none"/>
  </g>
  <g id="arrowUp" transform="translate(30 24)">
    <use xlink:href="#rim"/>
    <path pointer-events="none" fill="none" stroke="white" stroke-width="1.5" d="M0,-3.0v7 M-2.5,-0.5L0,-3.0L2.5,-0.5"/>
  </g>
  <g id="arrowRight" transform="rotate(90) translate(36 -43)">
    <use xlink:href="#rim"/>
    <path pointer-events="none" fill="none" stroke="white" stroke-width="1.5" d="M0,-3.0v7 M-2.5,-0.5L0,-3.0L2.5,-0.5"/>
  </g>
  <g id="arrowDown" transform="rotate(180) translate(-30 -48)">
    <use xlink:href="#rim"/>
    <path pointer-events="none" fill="none" stroke="white" stroke-width="1.5" d="M0,-3.0v7 M-2.5,-0.5L0,-3.0L2.5,-0.5"/>
  </g>
  <g id="arrowLeft" transform="rotate(270) translate(-36 17)">
    <use xlink:href="#rim"/>
    <path pointer-events="none" fill="none" stroke="white" stroke-width="1.5" d="M0,-3.0v7 M-2.5,-0.5L0,-3.0L2.5,-0.5"/>
  </g>
  <g id="resetDef">
    <use xlink:href="#rim2" fill="#404040"><set attributeName="fill" to="#808080" begin="reset.mouseover" end="reset.mouseout"/></use>
  </g>
</defs>
<script type="application/ecmascript">
var viewWidth = 1352;
var viewHeight = 439;
var sectionId = 'dynsection-0';
</script>
<script type="application/ecmascript" xlink:href="svg.min.js"/>
<svg id="graph" class="graph">
<g id="viewport">
<title>source/motion/motor/motor_core.c</title>
<!-- Node1 -->
<g id="Node000001" class="node">
<title>Node1</title>
<g id="a_Node000001"><a xlink:title=" ">
<polygon fill="#999999" stroke="#666666" points="1180.38,-430.75 1062.38,-430.75 1062.38,-397.25 1180.38,-397.25 1180.38,-430.75"/>
<text xml:space="preserve" text-anchor="start" x="1070.38" y="-417.25" font-family="Helvetica,sans-Serif" font-size="10.00">source/motion/motor</text>
<text xml:space="preserve" text-anchor="middle" x="1121.38" y="-404.5" font-family="Helvetica,sans-Serif" font-size="10.00">/motor_core.c</text>
</a>
</g>
</g>
<!-- Node2 -->
<g id="Node000002" class="node">
<title>Node2</title>
<g id="a_Node000002"><a xlink:href="motor__core_8h.html" target="_top" xlink:title=" ">
<polygon fill="white" stroke="#666666" points="1019.62,-361.25 939.12,-361.25 939.12,-340.5 1019.62,-340.5 1019.62,-361.25"/>
<text xml:space="preserve" text-anchor="middle" x="979.38" y="-347.75" font-family="Helvetica,sans-Serif" font-size="10.00">motor_core.h</text>
</a>
</g>
</g>
<!-- Node1&#45;&gt;Node2 -->
<g id="edge1_Node000001_Node000002" class="edge">
<title>Node1&#45;&gt;Node2</title>
<g id="a_edge1_Node000001_Node000002"><a xlink:title=" ">
<path fill="none" stroke="#63b8ff" d="M1083.69,-396.78C1061.58,-387.26 1033.9,-375.35 1012.61,-366.18"/>
<polygon fill="#63b8ff" stroke="#63b8ff" points="1014.08,-363 1003.51,-362.26 1011.31,-369.43 1014.08,-363"/>
</a>
</g>
</g>
<!-- Node23 -->
<g id="Node000023" class="node">
<title>Node23</title>
<g id="a_Node000023"><a xlink:title=" ">
<polygon fill="#e0e0e0" stroke="#999999" points="1053.88,-247.75 998.88,-247.75 998.88,-227 1053.88,-227 1053.88,-247.75"/>
<text xml:space="preserve" text-anchor="middle" x="1026.38" y="-234.25" font-family="Helvetica,sans-Serif" font-size="10.00">queue.h</text>
</a>
</g>
</g>
<!-- Node1&#45;&gt;Node23 -->
<g id="edge50_Node000001_Node000023" class="edge">
<title>Node1&#45;&gt;Node23</title>
<g id="a_edge50_Node000001_Node000023"><a xlink:title=" ">
<path fill="none" stroke="#63b8ff" d="M1112.61,-396.88C1095.12,-364.73 1055.94,-292.73 1037.02,-257.94"/>
<polygon fill="#63b8ff" stroke="#63b8ff" points="1040.21,-256.48 1032.36,-249.37 1034.06,-259.83 1040.21,-256.48"/>
</a>
</g>
</g>
<!-- Node24 -->
<g id="Node000024" class="node">
<title>Node24</title>
<g id="a_Node000024"><a xlink:href="motor__process_8h.html" target="_top" xlink:title=" ">
<polygon fill="white" stroke="#666666" points="920.88,-361.25 823.88,-361.25 823.88,-340.5 920.88,-340.5 920.88,-361.25"/>
<text xml:space="preserve" text-anchor="middle" x="872.38" y="-347.75" font-family="Helvetica,sans-Serif" font-size="10.00">motor_process.h</text>
</a>
</g>
</g>
<!-- Node1&#45;&gt;Node24 -->
<g id="edge40_Node000001_Node000024" class="edge">
<title>Node1&#45;&gt;Node24</title>
<g id="a_edge40_Node000001_Node000024"><a xlink:title=" ">
<path fill="none" stroke="#63b8ff" d="M1062.05,-398.44C1019.93,-388.1 963.96,-374.36 923.75,-364.49"/>
<polygon fill="#63b8ff" stroke="#63b8ff" points="924.61,-361.09 914.06,-362.11 922.94,-367.89 924.61,-361.09"/>
</a>
</g>
</g>
<!-- Node25 -->
<g id="Node000025" class="node">
<title>Node25</title>
<g id="a_Node000025"><a xlink:href="cmd__dispatch_8h.html" target="_top" xlink:title=" ">
<polygon fill="white" stroke="#666666" points="1167.62,-304.5 1075.12,-304.5 1075.12,-283.75 1167.62,-283.75 1167.62,-304.5"/>
<text xml:space="preserve" text-anchor="middle" x="1121.38" y="-291" font-family="Helvetica,sans-Serif" font-size="10.00">cmd_dispatch.h</text>
</a>
</g>
</g>
<!-- Node1&#45;&gt;Node25 -->
<g id="edge42_Node000001_Node000025" class="edge">
<title>Node1&#45;&gt;Node25</title>
<g id="a_edge42_Node000001_Node000025"><a xlink:title=" ">
<path fill="none" stroke="#63b8ff" d="M1121.38,-397.1C1121.38,-376.21 1121.38,-339.46 1121.38,-316.25"/>
<polygon fill="#63b8ff" stroke="#63b8ff" points="1124.88,-316.45 1121.38,-306.45 1117.88,-316.45 1124.88,-316.45"/>
</a>
</g>
</g>
<!-- Node26 -->
<g id="Node000026" class="node">
<title>Node26</title>
<g id="a_Node000026"><a xlink:href="log_8h.html" target="_top" xlink:title=" ">
<polygon fill="white" stroke="#666666" points="1226.38,-134.25 1186.38,-134.25 1186.38,-113.5 1226.38,-113.5 1226.38,-134.25"/>
<text xml:space="preserve" text-anchor="middle" x="1206.38" y="-120.75" font-family="Helvetica,sans-Serif" font-size="10.00">log.h</text>
</a>
</g>
</g>
<!-- Node1&#45;&gt;Node26 -->
<g id="edge47_Node000001_Node000026" class="edge">
<title>Node1&#45;&gt;Node26</title>
<g id="a_edge47_Node000001_Node000026"><a xlink:title=" ">
<path fill="none" stroke="#63b8ff" d="M1139.91,-397.1C1162.12,-376.17 1196.38,-337.09 1196.38,-295.12 1196.38,-295.12 1196.38,-295.12 1196.38,-236.38 1196.38,-204.71 1200.43,-168.19 1203.37,-145.82"/>
<polygon fill="#63b8ff" stroke="#63b8ff" points="1206.8,-146.58 1204.69,-136.19 1199.86,-145.62 1206.8,-146.58"/>
</a>
</g>
</g>
<!-- Node27 -->
<g id="Node000027" class="node">
<title>Node27</title>
<g id="a_Node000027"><a xlink:title=" ">
<polygon fill="#e0e0e0" stroke="#999999" points="1276.75,-361.25 1224,-361.25 1224,-340.5 1276.75,-340.5 1276.75,-361.25"/>
<text xml:space="preserve" text-anchor="middle" x="1250.38" y="-347.75" font-family="Helvetica,sans-Serif" font-size="10.00">string.h</text>
</a>
</g>
</g>
<!-- Node1&#45;&gt;Node27 -->
<g id="edge51_Node000001_Node000027" class="edge">
<title>Node1&#45;&gt;Node27</title>
<g id="a_edge51_Node000001_Node000027"><a xlink:title=" ">
<path fill="none" stroke="#63b8ff" d="M1155.61,-396.78C1175.42,-387.39 1200.15,-375.67 1219.38,-366.56"/>
<polygon fill="#63b8ff" stroke="#63b8ff" points="1220.81,-369.76 1228.35,-362.31 1217.81,-363.43 1220.81,-369.76"/>
</a>
</g>
</g>
<!-- Node28 -->
<g id="Node000028" class="node">
<title>Node28</title>
<g id="a_Node000028"><a xlink:title=" ">
<polygon fill="#e0e0e0" stroke="#999999" points="1343.88,-361.25 1294.88,-361.25 1294.88,-340.5 1343.88,-340.5 1343.88,-361.25"/>
<text xml:space="preserve" text-anchor="middle" x="1319.38" y="-347.75" font-family="Helvetica,sans-Serif" font-size="10.00">stdio.h</text>
</a>
</g>
</g>
<!-- Node1&#45;&gt;Node28 -->
<g id="edge52_Node000001_Node000028" class="edge">
<title>Node1&#45;&gt;Node28</title>
<g id="a_edge52_Node000001_Node000028"><a xlink:title=" ">
<path fill="none" stroke="#63b8ff" d="M1173.92,-396.78C1208.56,-386.09 1253.01,-372.36 1283.61,-362.92"/>
<polygon fill="#63b8ff" stroke="#63b8ff" points="1284.64,-366.26 1293.16,-359.97 1282.58,-359.57 1284.64,-366.26"/>
</a>
</g>
</g>
<!-- Node3 -->
<g id="Node000003" class="node">
<title>Node3</title>
<g id="a_Node000003"><a xlink:href="motor__internal_8h.html" target="_top" xlink:title=" ">
<polygon fill="white" stroke="#666666" points="999.88,-304.5 902.88,-304.5 902.88,-283.75 999.88,-283.75 999.88,-304.5"/>
<text xml:space="preserve" text-anchor="middle" x="951.38" y="-291" font-family="Helvetica,sans-Serif" font-size="10.00">motor_internal.h</text>
</a>
</g>
</g>
<!-- Node2&#45;&gt;Node3 -->
<g id="edge2_Node000002_Node000003" class="edge">
<title>Node2&#45;&gt;Node3</title>
<g id="a_edge2_Node000002_Node000003"><a xlink:title=" ">
<path fill="none" stroke="#63b8ff" d="M974.37,-340.09C970.79,-333.08 965.84,-323.41 961.45,-314.83"/>
<polygon fill="#63b8ff" stroke="#63b8ff" points="964.7,-313.49 957.03,-306.18 958.46,-316.67 964.7,-313.49"/>
</a>
</g>
</g>
<!-- Node4 -->
<g id="Node000004" class="node">
<title>Node4</title>
<g id="a_Node000004"><a xlink:href="motor_8h.html" target="_top" xlink:title=" ">
<polygon fill="white" stroke="#666666" points="491.12,-247.75 437.62,-247.75 437.62,-227 491.12,-227 491.12,-247.75"/>
<text xml:space="preserve" text-anchor="middle" x="464.38" y="-234.25" font-family="Helvetica,sans-Serif" font-size="10.00">motor.h</text>
</a>
</g>
</g>
<!-- Node3&#45;&gt;Node4 -->
<g id="edge3_Node000003_Node000004" class="edge">
<title>Node3&#45;&gt;Node4</title>
<g id="a_edge3_Node000003_Node000004"><a xlink:title=" ">
<path fill="none" stroke="#63b8ff" d="M902.45,-287.62C805.37,-276.71 590.19,-252.52 502.59,-242.67"/>
<polygon fill="#63b8ff" stroke="#63b8ff" points="503.18,-239.22 492.85,-241.58 502.4,-246.17 503.18,-239.22"/>
</a>
</g>
</g>
<!-- Node9 -->
<g id="Node000009" class="node">
<title>Node9</title>
<g id="a_Node000009"><a xlink:title=" ">
<polygon fill="#e0e0e0" stroke="#999999" points="1186.12,-77.5 1114.62,-77.5 1114.62,-56.75 1186.12,-56.75 1186.12,-77.5"/>
<text xml:space="preserve" text-anchor="middle" x="1150.38" y="-64" font-family="Helvetica,sans-Serif" font-size="10.00">FreeRTOS.h</text>
</a>
</g>
</g>
<!-- Node3&#45;&gt;Node9 -->
<g id="edge37_Node000003_Node000009" class="edge">
<title>Node3&#45;&gt;Node9</title>
<g id="a_edge37_Node000003_Node000009"><a xlink:title=" ">
<path fill="none" stroke="#63b8ff" d="M955.97,-283.67C962.65,-270.38 975.81,-245.73 990.38,-227 1034.77,-169.9 1098.43,-112.47 1130.41,-84.92"/>
<polygon fill="#63b8ff" stroke="#63b8ff" points="1132.43,-87.8 1137.76,-78.65 1127.88,-82.48 1132.43,-87.8"/>
</a>
</g>
</g>
<!-- Node14 -->
<g id="Node000014" class="node">
<title>Node14</title>
<g id="a_Node000014"><a xlink:href="cmd__handle_8h.html" target="_top" xlink:title=" ">
<polygon fill="white" stroke="#666666" points="1004.5,-134.25 920.25,-134.25 920.25,-113.5 1004.5,-113.5 1004.5,-134.25"/>
<text xml:space="preserve" text-anchor="middle" x="962.38" y="-120.75" font-family="Helvetica,sans-Serif" font-size="10.00">cmd_handle.h</text>
</a>
</g>
</g>
<!-- Node3&#45;&gt;Node14 -->
<g id="edge39_Node000003_Node000014" class="edge">
<title>Node3&#45;&gt;Node14</title>
<g id="a_edge39_Node000003_Node000014"><a xlink:title=" ">
<path fill="none" stroke="#63b8ff" d="M952,-283.6C953.72,-257.23 958.59,-182.83 960.99,-146.03"/>
<polygon fill="#63b8ff" stroke="#63b8ff" points="964.47,-146.43 961.63,-136.23 957.49,-145.98 964.47,-146.43"/>
</a>
</g>
</g>
<!-- Node3&#45;&gt;Node23 -->
<g id="edge38_Node000003_Node000023" class="edge">
<title>Node3&#45;&gt;Node23</title>
<g id="a_edge38_Node000003_Node000023"><a xlink:title=" ">
<path fill="none" stroke="#63b8ff" d="M964.78,-283.34C975.66,-275.4 991.23,-264.03 1003.99,-254.71"/>
<polygon fill="#63b8ff" stroke="#63b8ff" points="1005.85,-257.69 1011.86,-248.97 1001.72,-252.04 1005.85,-257.69"/>
</a>
</g>
</g>
<!-- Node5 -->
<g id="Node000005" class="node">
<title>Node5</title>
<g id="a_Node000005"><a xlink:href="pca9555a_8h.html" target="_top" xlink:title=" ">
<polygon fill="white" stroke="#666666" points="312.38,-77.5 158.38,-77.5 158.38,-56.75 312.38,-56.75 312.38,-77.5"/>
<text xml:space="preserve" text-anchor="middle" x="235.38" y="-64" font-family="Helvetica,sans-Serif" font-size="10.00">driver/pca9555a/pca9555a.h</text>
</a>
</g>
</g>
<!-- Node4&#45;&gt;Node5 -->
<g id="edge4_Node000004_Node000005" class="edge">
<title>Node4&#45;&gt;Node5</title>
<g id="a_edge4_Node000004_Node000005"><a xlink:title=" ">
<path fill="none" stroke="#63b8ff" d="M443.55,-226.61C409.94,-210.29 342.53,-175.19 293.38,-134.25 276.41,-120.11 260.1,-100.85 249.12,-86.76"/>
<polygon fill="#63b8ff" stroke="#63b8ff" points="252.19,-85 243.35,-79.16 246.61,-89.24 252.19,-85"/>
</a>
</g>
</g>
<!-- Node8 -->
<g id="Node000008" class="node">
<title>Node8</title>
<g id="a_Node000008"><a xlink:href="step__core_8h.html" target="_top" xlink:title=" ">
<polygon fill="white" stroke="#666666" points="500.5,-191 428.25,-191 428.25,-170.25 500.5,-170.25 500.5,-191"/>
<text xml:space="preserve" text-anchor="middle" x="464.38" y="-177.5" font-family="Helvetica,sans-Serif" font-size="10.00">step_core.h</text>
</a>
</g>
</g>
<!-- Node4&#45;&gt;Node8 -->
<g id="edge7_Node000004_Node000008" class="edge">
<title>Node4&#45;&gt;Node8</title>
<g id="a_edge7_Node000004_Node000008"><a xlink:title=" ">
<path fill="none" stroke="#63b8ff" d="M464.38,-226.59C464.38,-219.97 464.38,-210.97 464.38,-202.77"/>
<polygon fill="#63b8ff" stroke="#63b8ff" points="467.88,-202.84 464.38,-192.84 460.88,-202.84 467.88,-202.84"/>
</a>
</g>
</g>
<!-- Node11 -->
<g id="Node000011" class="node">
<title>Node11</title>
<g id="a_Node000011"><a xlink:title=" ">
<polygon fill="#e0e0e0" stroke="#999999" points="58.75,-77.5 0,-77.5 0,-56.75 58.75,-56.75 58.75,-77.5"/>
<text xml:space="preserve" text-anchor="middle" x="29.38" y="-64" font-family="Helvetica,sans-Serif" font-size="10.00">fsl_ftm.h</text>
</a>
</g>
</g>
<!-- Node4&#45;&gt;Node11 -->
<g id="edge34_Node000004_Node000011" class="edge">
<title>Node4&#45;&gt;Node11</title>
<g id="a_edge34_Node000004_Node000011"><a xlink:title=" ">
<path fill="none" stroke="#63b8ff" d="M437.38,-230.41C403.4,-222.63 343.4,-207.99 293.38,-191 231.36,-169.94 216.74,-161.91 157.38,-134.25 122.26,-117.89 82.79,-97.12 57.08,-83.27"/>
<polygon fill="#63b8ff" stroke="#63b8ff" points="58.75,-80.19 48.29,-78.51 55.41,-86.35 58.75,-80.19"/>
</a>
</g>
</g>
<!-- Node12 -->
<g id="Node000012" class="node">
<title>Node12</title>
<g id="a_Node000012"><a xlink:title=" ">
<polygon fill="#e0e0e0" stroke="#999999" points="140,-77.5 76.75,-77.5 76.75,-56.75 140,-56.75 140,-77.5"/>
<text xml:space="preserve" text-anchor="middle" x="108.38" y="-64" font-family="Helvetica,sans-Serif" font-size="10.00">fsl_gpio.h</text>
</a>
</g>
</g>
<!-- Node4&#45;&gt;Node12 -->
<g id="edge35_Node000004_Node000012" class="edge">
<title>Node4&#45;&gt;Node12</title>
<g id="a_edge35_Node000004_Node000012"><a xlink:title=" ">
<path fill="none" stroke="#63b8ff" d="M437.61,-227.88C412,-219.46 372.49,-205.73 339.38,-191 262.85,-156.96 176.73,-108.22 134.53,-83.6"/>
<polygon fill="#63b8ff" stroke="#63b8ff" points="136.49,-80.69 126.09,-78.66 132.95,-86.73 136.49,-80.69"/>
</a>
</g>
</g>
<!-- Node13 -->
<g id="Node000013" class="node">
<title>Node13</title>
<g id="a_Node000013"><a xlink:title=" ">
<polygon fill="#e0e0e0" stroke="#999999" points="570.25,-77.5 508.5,-77.5 508.5,-56.75 570.25,-56.75 570.25,-77.5"/>
<text xml:space="preserve" text-anchor="middle" x="539.38" y="-64" font-family="Helvetica,sans-Serif" font-size="10.00">fsl_port.h</text>
</a>
</g>
</g>
<!-- Node4&#45;&gt;Node13 -->
<g id="edge36_Node000004_Node000013" class="edge">
<title>Node4&#45;&gt;Node13</title>
<g id="a_edge36_Node000004_Node000013"><a xlink:title=" ">
<path fill="none" stroke="#63b8ff" d="M477.36,-226.61C487.57,-218.25 501.35,-205.33 509.38,-191 527.73,-158.22 534.95,-114.37 537.72,-88.89"/>
<polygon fill="#63b8ff" stroke="#63b8ff" points="541.18,-89.48 538.63,-79.2 534.21,-88.82 541.18,-89.48"/>
</a>
</g>
</g>
<!-- Node20 -->
<g id="Node000020" class="node">
<title>Node20</title>
<g id="a_Node000020"><a xlink:href="tmc2209__core_8h.html" target="_top" xlink:title=" ">
<polygon fill="white" stroke="#666666" points="764.38,-191 670.38,-191 670.38,-170.25 764.38,-170.25 764.38,-191"/>
<text xml:space="preserve" text-anchor="middle" x="717.38" y="-177.5" font-family="Helvetica,sans-Serif" font-size="10.00">tmc2209_core.h</text>
</a>
</g>
</g>
<!-- Node4&#45;&gt;Node20 -->
<g id="edge28_Node000004_Node000020" class="edge">
<title>Node4&#45;&gt;Node20</title>
<g id="a_edge28_Node000004_Node000020"><a xlink:title=" ">
<path fill="none" stroke="#63b8ff" d="M491.45,-230.52C531.59,-221.83 607.82,-205.33 660.55,-193.92"/>
<polygon fill="#63b8ff" stroke="#63b8ff" points="661.25,-197.35 670.28,-191.82 659.77,-190.51 661.25,-197.35"/>
</a>
</g>
</g>
<!-- Node6 -->
<g id="Node000006" class="node">
<title>Node6</title>
<g id="a_Node000006"><a xlink:title=" ">
<polygon fill="#e0e0e0" stroke="#999999" points="759.88,-20.75 674.88,-20.75 674.88,0 759.88,0 759.88,-20.75"/>
<text xml:space="preserve" text-anchor="middle" x="717.38" y="-7.25" font-family="Helvetica,sans-Serif" font-size="10.00">fsl_common.h</text>
</a>
</g>
</g>
<!-- Node5&#45;&gt;Node6 -->
<g id="edge5_Node000005_Node000006" class="edge">
<title>Node5&#45;&gt;Node6</title>
<g id="a_edge5_Node000005_Node000006"><a xlink:title=" ">
<path fill="none" stroke="#63b8ff" d="M312.82,-57.33C411.02,-46.17 577.83,-27.23 663.33,-17.51"/>
<polygon fill="#63b8ff" stroke="#63b8ff" points="663.55,-21.01 673.09,-16.41 662.76,-14.06 663.55,-21.01"/>
</a>
</g>
</g>
<!-- Node7 -->
<g id="Node000007" class="node">
<title>Node7</title>
<g id="a_Node000007"><a xlink:title=" ">
<polygon fill="#e0e0e0" stroke="#999999" points="507.25,-20.75 427.5,-20.75 427.5,0 507.25,0 507.25,-20.75"/>
<text xml:space="preserve" text-anchor="middle" x="467.38" y="-7.25" font-family="Helvetica,sans-Serif" font-size="10.00">peripherals.h</text>
</a>
</g>
</g>
<!-- Node5&#45;&gt;Node7 -->
<g id="edge6_Node000005_Node000007" class="edge">
<title>Node5&#45;&gt;Node7</title>
<g id="a_edge6_Node000005_Node000007"><a xlink:title=" ">
<path fill="none" stroke="#63b8ff" d="M277.12,-56.27C316.08,-47.08 374.31,-33.34 416.08,-23.48"/>
<polygon fill="#63b8ff" stroke="#63b8ff" points="416.73,-26.92 425.66,-21.22 415.12,-20.11 416.73,-26.92"/>
</a>
</g>
</g>
<!-- Node8&#45;&gt;Node5 -->
<g id="edge8_Node000008_Node000005" class="edge">
<title>Node8&#45;&gt;Node5</title>
<g id="a_edge8_Node000008_Node000005"><a xlink:title=" ">
<path fill="none" stroke="#63b8ff" d="M428,-170.32C400.4,-162.55 361.95,-150.18 330.38,-134.25 303,-120.44 274.51,-99.6 255.96,-85.02"/>
<polygon fill="#63b8ff" stroke="#63b8ff" points="258.16,-82.3 248.17,-78.79 253.79,-87.77 258.16,-82.3"/>
</a>
</g>
</g>
<!-- Node8&#45;&gt;Node6 -->
<g id="edge11_Node000008_Node000006" class="edge">
<title>Node8&#45;&gt;Node6</title>
<g id="a_edge11_Node000008_Node000006"><a xlink:title=" ">
<path fill="none" stroke="#63b8ff" d="M479.07,-169.85C520.99,-141.97 641.46,-61.86 693.24,-27.42"/>
<polygon fill="#63b8ff" stroke="#63b8ff" points="694.99,-30.47 701.38,-22.01 691.11,-24.64 694.99,-30.47"/>
</a>
</g>
</g>
<!-- Node8&#45;&gt;Node9 -->
<g id="edge9_Node000008_Node000009" class="edge">
<title>Node8&#45;&gt;Node9</title>
<g id="a_edge9_Node000008_Node000009"><a xlink:title=" ">
<path fill="none" stroke="#63b8ff" d="M500.67,-177.4C615.18,-170.27 964.12,-147.67 1013.38,-134.25 1054.77,-122.97 1098.79,-99.38 1125.44,-83.65"/>
<polygon fill="#63b8ff" stroke="#63b8ff" points="1127.02,-86.78 1133.79,-78.62 1123.42,-80.78 1127.02,-86.78"/>
</a>
</g>
</g>
<!-- Node10 -->
<g id="Node000010" class="node">
<title>Node10</title>
<g id="a_Node000010"><a xlink:title=" ">
<polygon fill="#e0e0e0" stroke="#999999" points="487.38,-134.25 441.38,-134.25 441.38,-113.5 487.38,-113.5 487.38,-134.25"/>
<text xml:space="preserve" text-anchor="middle" x="464.38" y="-120.75" font-family="Helvetica,sans-Serif" font-size="10.00">task.h</text>
</a>
</g>
</g>
<!-- Node8&#45;&gt;Node10 -->
<g id="edge10_Node000008_Node000010" class="edge">
<title>Node8&#45;&gt;Node10</title>
<g id="a_edge10_Node000008_Node000010"><a xlink:title=" ">
<path fill="none" stroke="#63b8ff" d="M464.38,-169.84C464.38,-163.22 464.38,-154.22 464.38,-146.02"/>
<polygon fill="#63b8ff" stroke="#63b8ff" points="467.88,-146.09 464.38,-136.09 460.88,-146.09 467.88,-146.09"/>
</a>
</g>
</g>
<!-- Node8&#45;&gt;Node11 -->
<g id="edge12_Node000008_Node000011" class="edge">
<title>Node8&#45;&gt;Node11</title>
<g id="a_edge12_Node000008_Node000011"><a xlink:title=" ">
<path fill="none" stroke="#63b8ff" d="M427.9,-174.19C381.08,-166.86 297.49,-152.58 227.38,-134.25 169.97,-119.24 105.01,-96.38 65.63,-81.86"/>
<polygon fill="#63b8ff" stroke="#63b8ff" points="67,-78.63 56.41,-78.43 64.56,-85.19 67,-78.63"/>
</a>
</g>
</g>
<!-- Node8&#45;&gt;Node12 -->
<g id="edge13_Node000008_Node000012" class="edge">
<title>Node8&#45;&gt;Node12</title>
<g id="a_edge13_Node000008_Node000012"><a xlink:title=" ">
<path fill="none" stroke="#63b8ff" d="M427.76,-170.85C392.96,-162.3 339.28,-148.52 293.38,-134.25 240.98,-117.97 181.39,-96.04 144.33,-81.99"/>
<polygon fill="#63b8ff" stroke="#63b8ff" points="145.59,-78.72 135,-78.43 143.1,-85.27 145.59,-78.72"/>
</a>
</g>
</g>
<!-- Node8&#45;&gt;Node13 -->
<g id="edge14_Node000008_Node000013" class="edge">
<title>Node8&#45;&gt;Node13</title>
<g id="a_edge14_Node000008_Node000013"><a xlink:title=" ">
<path fill="none" stroke="#63b8ff" d="M471.35,-169.96C477.9,-160.83 487.94,-146.7 496.38,-134.25 507.04,-118.51 518.79,-100.38 527.31,-87.1"/>
<polygon fill="#63b8ff" stroke="#63b8ff" points="530.11,-89.2 532.55,-78.89 524.21,-85.43 530.11,-89.2"/>
</a>
</g>
</g>
<!-- Node8&#45;&gt;Node14 -->
<g id="edge15_Node000008_Node000014" class="edge">
<title>Node8&#45;&gt;Node14</title>
<g id="a_edge15_Node000008_Node000014"><a xlink:title=" ">
<path fill="none" stroke="#63b8ff" d="M500.99,-175.6C587.83,-166.05 806.59,-142 908.53,-130.79"/>
<polygon fill="#63b8ff" stroke="#63b8ff" points="908.72,-134.29 918.28,-129.72 907.96,-127.34 908.72,-134.29"/>
</a>
</g>
</g>
<!-- Node18 -->
<g id="Node000018" class="node">
<title>Node18</title>
<g id="a_Node000018"><a xlink:href="step__shared_8h.html" target="_top" xlink:title=" ">
<polygon fill="white" stroke="#666666" points="423.5,-134.25 339.25,-134.25 339.25,-113.5 423.5,-113.5 423.5,-134.25"/>
<text xml:space="preserve" text-anchor="middle" x="381.38" y="-120.75" font-family="Helvetica,sans-Serif" font-size="10.00">step_shared.h</text>
</a>
</g>
</g>
<!-- Node8&#45;&gt;Node18 -->
<g id="edge21_Node000008_Node000018" class="edge">
<title>Node8&#45;&gt;Node18</title>
<g id="a_edge21_Node000008_Node000018"><a xlink:title=" ">
<path fill="none" stroke="#63b8ff" d="M449.54,-169.84C437.26,-161.74 419.59,-150.08 405.32,-140.67"/>
<polygon fill="#63b8ff" stroke="#63b8ff" points="407.62,-138 397.35,-135.41 403.77,-143.84 407.62,-138"/>
</a>
</g>
</g>
<!-- Node14&#45;&gt;Node6 -->
<g id="edge19_Node000014_Node000006" class="edge">
<title>Node14&#45;&gt;Node6</title>
<g id="a_edge19_Node000014_Node000006"><a xlink:title=" ">
<path fill="none" stroke="#63b8ff" d="M974.32,-113.1C989.58,-99.45 1012.36,-74.36 997.38,-56.75 968.97,-23.38 844.73,-14.48 771.63,-12.15"/>
<polygon fill="#63b8ff" stroke="#63b8ff" points="771.97,-8.66 761.88,-11.87 771.77,-15.66 771.97,-8.66"/>
</a>
</g>
</g>
<!-- Node14&#45;&gt;Node9 -->
<g id="edge17_Node000014_Node000009" class="edge">
<title>Node14&#45;&gt;Node9</title>
<g id="a_edge17_Node000014_Node000009"><a xlink:title=" ">
<path fill="none" stroke="#63b8ff" d="M995.99,-113.09C1026.63,-104.16 1072.14,-90.91 1105.81,-81.1"/>
<polygon fill="#63b8ff" stroke="#63b8ff" points="1106.66,-84.5 1115.29,-78.34 1104.71,-77.78 1106.66,-84.5"/>
</a>
</g>
</g>
<!-- Node15 -->
<g id="Node000015" class="node">
<title>Node15</title>
<g id="a_Node000015"><a xlink:title=" ">
<polygon fill="#e0e0e0" stroke="#999999" points="1096.75,-77.5 1044,-77.5 1044,-56.75 1096.75,-56.75 1096.75,-77.5"/>
<text xml:space="preserve" text-anchor="middle" x="1070.38" y="-64" font-family="Helvetica,sans-Serif" font-size="10.00">stdint.h</text>
</a>
</g>
</g>
<!-- Node14&#45;&gt;Node15 -->
<g id="edge16_Node000014_Node000015" class="edge">
<title>Node14&#45;&gt;Node15</title>
<g id="a_edge16_Node000014_Node000015"><a xlink:title=" ">
<path fill="none" stroke="#63b8ff" d="M981.68,-113.09C998.19,-104.72 1022.21,-92.54 1041.08,-82.97"/>
<polygon fill="#63b8ff" stroke="#63b8ff" points="1042.55,-86.16 1049.88,-78.51 1039.38,-79.91 1042.55,-86.16"/>
</a>
</g>
</g>
<!-- Node16 -->
<g id="Node000016" class="node">
<title>Node16</title>
<g id="a_Node000016"><a xlink:title=" ">
<polygon fill="#e0e0e0" stroke="#999999" points="917.88,-77.5 826.88,-77.5 826.88,-56.75 917.88,-56.75 917.88,-77.5"/>
<text xml:space="preserve" text-anchor="middle" x="872.38" y="-64" font-family="Helvetica,sans-Serif" font-size="10.00">event_groups.h</text>
</a>
</g>
</g>
<!-- Node14&#45;&gt;Node16 -->
<g id="edge18_Node000014_Node000016" class="edge">
<title>Node14&#45;&gt;Node16</title>
<g id="a_edge18_Node000014_Node000016"><a xlink:title=" ">
<path fill="none" stroke="#63b8ff" d="M946.28,-113.09C932.85,-104.91 913.44,-93.11 897.89,-83.65"/>
<polygon fill="#63b8ff" stroke="#63b8ff" points="899.98,-80.82 889.62,-78.62 896.34,-86.8 899.98,-80.82"/>
</a>
</g>
</g>
<!-- Node17 -->
<g id="Node000017" class="node">
<title>Node17</title>
<g id="a_Node000017"><a xlink:title=" ">
<polygon fill="#e0e0e0" stroke="#999999" points="988.38,-77.5 936.38,-77.5 936.38,-56.75 988.38,-56.75 988.38,-77.5"/>
<text xml:space="preserve" text-anchor="middle" x="962.38" y="-64" font-family="Helvetica,sans-Serif" font-size="10.00">stdlib.h</text>
</a>
</g>
</g>
<!-- Node14&#45;&gt;Node17 -->
<g id="edge20_Node000014_Node000017" class="edge">
<title>Node14&#45;&gt;Node17</title>
<g id="a_edge20_Node000014_Node000017"><a xlink:title=" ">
<path fill="none" stroke="#63b8ff" d="M962.38,-113.09C962.38,-106.47 962.38,-97.47 962.38,-89.27"/>
<polygon fill="#63b8ff" stroke="#63b8ff" points="965.88,-89.34 962.38,-79.34 958.88,-89.34 965.88,-89.34"/>
</a>
</g>
</g>
<!-- Node18&#45;&gt;Node5 -->
<g id="edge22_Node000018_Node000005" class="edge">
<title>Node18&#45;&gt;Node5</title>
<g id="a_edge22_Node000018_Node000005"><a xlink:title=" ">
<path fill="none" stroke="#63b8ff" d="M355.27,-113.09C332.02,-104.37 297.76,-91.52 271.81,-81.79"/>
<polygon fill="#63b8ff" stroke="#63b8ff" points="273.26,-78.59 262.67,-78.36 270.8,-85.15 273.26,-78.59"/>
</a>
</g>
</g>
<!-- Node18&#45;&gt;Node6 -->
<g id="edge24_Node000018_Node000006" class="edge">
<title>Node18&#45;&gt;Node6</title>
<g id="a_edge24_Node000018_Node000006"><a xlink:title=" ">
<path fill="none" stroke="#63b8ff" d="M398.81,-113.01C431,-94.82 496.72,-57.74 499.38,-56.75 553.33,-36.56 618.35,-24.5 663.26,-17.95"/>
<polygon fill="#63b8ff" stroke="#63b8ff" points="663.6,-21.43 673.01,-16.57 662.62,-14.5 663.6,-21.43"/>
</a>
</g>
</g>
<!-- Node18&#45;&gt;Node11 -->
<g id="edge25_Node000018_Node000011" class="edge">
<title>Node18&#45;&gt;Node11</title>
<g id="a_edge25_Node000018_Node000011"><a xlink:title=" ">
<path fill="none" stroke="#63b8ff" d="M339,-118.09C280.59,-111.21 171.86,-97.35 70.26,-77.92"/>
<polygon fill="#63b8ff" stroke="#63b8ff" points="71.15,-74.53 60.67,-76.06 69.82,-81.4 71.15,-74.53"/>
</a>
</g>
</g>
<!-- Node18&#45;&gt;Node12 -->
<g id="edge26_Node000018_Node000012" class="edge">
<title>Node18&#45;&gt;Node12</title>
<g id="a_edge26_Node000018_Node000012"><a xlink:title=" ">
<path fill="none" stroke="#63b8ff" d="M338.96,-115C294.65,-106.67 222.86,-92.93 151.17,-77.83"/>
<polygon fill="#63b8ff" stroke="#63b8ff" points="152.13,-74.45 141.62,-75.81 150.68,-81.3 152.13,-74.45"/>
</a>
</g>
</g>
<!-- Node18&#45;&gt;Node13 -->
<g id="edge27_Node000018_Node000013" class="edge">
<title>Node18&#45;&gt;Node13</title>
<g id="a_edge27_Node000018_Node000013"><a xlink:title=" ">
<path fill="none" stroke="#63b8ff" d="M409.62,-113.09C434.93,-104.32 472.3,-91.37 500.44,-81.62"/>
<polygon fill="#63b8ff" stroke="#63b8ff" points="501.37,-85 509.68,-78.42 499.08,-78.38 501.37,-85"/>
</a>
</g>
</g>
<!-- Node19 -->
<g id="Node000019" class="node">
<title>Node19</title>
<g id="a_Node000019"><a xlink:title=" ">
<polygon fill="#e0e0e0" stroke="#999999" points="452.62,-77.5 330.12,-77.5 330.12,-56.75 452.62,-56.75 452.62,-77.5"/>
<text xml:space="preserve" text-anchor="middle" x="391.38" y="-64" font-family="Helvetica,sans-Serif" font-size="10.00">fsl_device_registers.h</text>
</a>
</g>
</g>
<!-- Node18&#45;&gt;Node19 -->
<g id="edge23_Node000018_Node000019" class="edge">
<title>Node18&#45;&gt;Node19</title>
<g id="a_edge23_Node000018_Node000019"><a xlink:title=" ">
<path fill="none" stroke="#63b8ff" d="M383.16,-113.09C384.39,-106.39 386.05,-97.26 387.57,-88.98"/>
<polygon fill="#63b8ff" stroke="#63b8ff" points="390.98,-89.78 389.33,-79.32 384.09,-88.53 390.98,-89.78"/>
</a>
</g>
</g>
<!-- Node20&#45;&gt;Node6 -->
<g id="edge31_Node000020_Node000006" class="edge">
<title>Node20&#45;&gt;Node6</title>
<g id="a_edge31_Node000020_Node000006"><a xlink:title=" ">
<path fill="none" stroke="#63b8ff" d="M739.75,-169.89C753.93,-162.4 771.11,-150.55 779.38,-134.25 794.96,-103.53 794.96,-87.47 779.38,-56.75 772.98,-44.15 761.26,-34.2 749.71,-26.88"/>
<polygon fill="#63b8ff" stroke="#63b8ff" points="751.47,-23.85 741.06,-21.87 747.96,-29.91 751.47,-23.85"/>
</a>
</g>
</g>
<!-- Node20&#45;&gt;Node7 -->
<g id="edge33_Node000020_Node000007" class="edge">
<title>Node20&#45;&gt;Node7</title>
<g id="a_edge33_Node000020_Node000007"><a xlink:title=" ">
<path fill="none" stroke="#63b8ff" d="M702.58,-169.81C689.69,-161.03 670.7,-147.52 655.38,-134.25 618.9,-102.68 619.46,-83.59 579.38,-56.75 558.96,-43.08 533.79,-32.42 512.49,-24.88"/>
<polygon fill="#63b8ff" stroke="#63b8ff" points="513.77,-21.62 503.18,-21.71 511.51,-28.25 513.77,-21.62"/>
</a>
</g>
</g>
<!-- Node20&#45;&gt;Node14 -->
<g id="edge32_Node000020_Node000014" class="edge">
<title>Node20&#45;&gt;Node14</title>
<g id="a_edge32_Node000020_Node000014"><a xlink:title=" ">
<path fill="none" stroke="#63b8ff" d="M761.46,-169.77C802.77,-160.54 864.62,-146.72 908.77,-136.85"/>
<polygon fill="#63b8ff" stroke="#63b8ff" points="909.4,-140.3 918.4,-134.7 907.88,-133.47 909.4,-140.3"/>
</a>
</g>
</g>
<!-- Node21 -->
<g id="Node000021" class="node">
<title>Node21</title>
<g id="a_Node000021"><a xlink:href="tmc2209__shared_8h.html" target="_top" xlink:title=" ">
<polygon fill="white" stroke="#666666" points="770.38,-134.25 664.38,-134.25 664.38,-113.5 770.38,-113.5 770.38,-134.25"/>
<text xml:space="preserve" text-anchor="middle" x="717.38" y="-120.75" font-family="Helvetica,sans-Serif" font-size="10.00">tmc2209_shared.h</text>
</a>
</g>
</g>
<!-- Node20&#45;&gt;Node21 -->
<g id="edge29_Node000020_Node000021" class="edge">
<title>Node20&#45;&gt;Node21</title>
<g id="a_edge29_Node000020_Node000021"><a xlink:title=" ">
<path fill="none" stroke="#63b8ff" d="M717.38,-169.84C717.38,-163.22 717.38,-154.22 717.38,-146.02"/>
<polygon fill="#63b8ff" stroke="#63b8ff" points="720.88,-146.09 717.38,-136.09 713.88,-146.09 720.88,-146.09"/>
</a>
</g>
</g>
<!-- Node22 -->
<g id="Node000022" class="node">
<title>Node22</title>
<g id="a_Node000022"><a xlink:title=" ">
<polygon fill="#e0e0e0" stroke="#999999" points="770,-77.5 664.75,-77.5 664.75,-56.75 770,-56.75 770,-77.5"/>
<text xml:space="preserve" text-anchor="middle" x="717.38" y="-64" font-family="Helvetica,sans-Serif" font-size="10.00">fsl_uart_freertos.h</text>
</a>
</g>
</g>
<!-- Node21&#45;&gt;Node22 -->
<g id="edge30_Node000021_Node000022" class="edge">
<title>Node21&#45;&gt;Node22</title>
<g id="a_edge30_Node000021_Node000022"><a xlink:title=" ">
<path fill="none" stroke="#63b8ff" d="M717.38,-113.09C717.38,-106.47 717.38,-97.47 717.38,-89.27"/>
<polygon fill="#63b8ff" stroke="#63b8ff" points="720.88,-89.34 717.38,-79.34 713.88,-89.34 720.88,-89.34"/>
</a>
</g>
</g>
<!-- Node24&#45;&gt;Node3 -->
<g id="edge41_Node000024_Node000003" class="edge">
<title>Node24&#45;&gt;Node3</title>
<g id="a_edge41_Node000024_Node000003"><a xlink:title=" ">
<path fill="none" stroke="#63b8ff" d="M886.5,-340.09C898.07,-332.07 914.68,-320.56 928.19,-311.19"/>
<polygon fill="#63b8ff" stroke="#63b8ff" points="929.9,-314.26 936.13,-305.69 925.92,-308.51 929.9,-314.26"/>
</a>
</g>
</g>
<!-- Node25&#45;&gt;Node9 -->
<g id="edge44_Node000025_Node000009" class="edge">
<title>Node25&#45;&gt;Node9</title>
<g id="a_edge44_Node000025_Node000009"><a xlink:title=" ">
<path fill="none" stroke="#63b8ff" d="M1124.71,-283.52C1127.72,-274.42 1132.04,-260.32 1134.38,-247.75 1144.94,-190.98 1148.58,-122.77 1149.8,-89.08"/>
<polygon fill="#63b8ff" stroke="#63b8ff" points="1153.29,-89.57 1150.11,-79.46 1146.29,-89.35 1153.29,-89.57"/>
</a>
</g>
</g>
<!-- Node25&#45;&gt;Node14 -->
<g id="edge46_Node000025_Node000014" class="edge">
<title>Node25&#45;&gt;Node14</title>
<g id="a_edge46_Node000025_Node000014"><a xlink:title=" ">
<path fill="none" stroke="#63b8ff" d="M1113.29,-283.55C1102.24,-270.55 1081.69,-246.67 1063.38,-227 1035.1,-196.64 1000.91,-162.61 980.45,-142.5"/>
<polygon fill="#63b8ff" stroke="#63b8ff" points="983,-140.1 973.41,-135.6 978.1,-145.1 983,-140.1"/>
</a>
</g>
</g>
<!-- Node25&#45;&gt;Node15 -->
<g id="edge43_Node000025_Node000015" class="edge">
<title>Node25&#45;&gt;Node15</title>
<g id="a_edge43_Node000025_Node000015"><a xlink:title=" ">
<path fill="none" stroke="#63b8ff" d="M1119.18,-283.46C1111.52,-249.63 1085.78,-136.11 1075.09,-88.94"/>
<polygon fill="#63b8ff" stroke="#63b8ff" points="1078.52,-88.21 1072.89,-79.23 1071.69,-89.76 1078.52,-88.21"/>
</a>
</g>
</g>
<!-- Node25&#45;&gt;Node23 -->
<g id="edge45_Node000025_Node000023" class="edge">
<title>Node25&#45;&gt;Node23</title>
<g id="a_edge45_Node000025_Node000023"><a xlink:title=" ">
<path fill="none" stroke="#63b8ff" d="M1104.39,-283.34C1090.07,-275.08 1069.33,-263.13 1052.84,-253.63"/>
<polygon fill="#63b8ff" stroke="#63b8ff" points="1054.94,-250.8 1044.52,-248.83 1051.44,-256.86 1054.94,-250.8"/>
</a>
</g>
</g>
<!-- Node26&#45;&gt;Node6 -->
<g id="edge49_Node000026_Node000006" class="edge">
<title>Node26&#45;&gt;Node6</title>
<g id="a_edge49_Node000026_Node000006"><a xlink:title=" ">
<path fill="none" stroke="#63b8ff" d="M1208.03,-113.11C1209.89,-98.52 1210.87,-71.19 1195.38,-56.75 1164.87,-28.32 890.05,-16.61 771.46,-12.85"/>
<polygon fill="#63b8ff" stroke="#63b8ff" points="771.76,-9.36 761.66,-12.55 771.54,-16.36 771.76,-9.36"/>
</a>
</g>
</g>
<!-- Node26&#45;&gt;Node9 -->
<g id="edge48_Node000026_Node000009" class="edge">
<title>Node26&#45;&gt;Node9</title>
<g id="a_edge48_Node000026_Node000009"><a xlink:title=" ">
<path fill="none" stroke="#63b8ff" d="M1196.36,-113.09C1188.64,-105.53 1177.75,-94.89 1168.5,-85.85"/>
<polygon fill="#63b8ff" stroke="#63b8ff" points="1170.98,-83.37 1161.38,-78.89 1166.09,-88.38 1170.98,-83.37"/>
</a>
</g>
</g>
</g>
</svg>

<g id="navigator" transform="translate(0 0)" fill="#404254">
  <rect fill="#f2f5e9" fill-opacity="0.5" stroke="#606060" stroke-width=".5" x="0" y="0" width="60" height="60"/>
  <use id="zoomplus" xlink:href="#zoomPlus" x="17" y="9" onmousedown="handleZoom(evt,'in')"/>
  <use id="zoomminus" xlink:href="#zoomMin" x="42" y="9" onmousedown="handleZoom(evt,'out')"/>
  <use id="reset" xlink:href="#resetDef" x="30" y="36" onmousedown="handleReset()"/>
   <use id="arrowup" xlink:href="#arrowUp" x="0" y="0" onmousedown="handlePan(0,-1)"/>
  <use id="arrowright" xlink:href="#arrowRight" x="0" y="0" onmousedown="handlePan(1,0)"/>
  <use id="arrowdown" xlink:href="#arrowDown" x="0" y="0" onmousedown="handlePan(0,1)"/>
  <use id="arrowleft" xlink:href="#arrowLeft" x="0" y="0" onmousedown="handlePan(-1,0)"/>
</g>
<svg viewBox="0 0 15 15" width="100%" height="30px" preserveAspectRatio="xMaxYMin meet">
 <g id="arrow_out" transform="scale(0.3 0.3)">
  <a xlink:href="motor__core_8c__incl_org.svg" target="_base">
   <rect id="button" ry="5" rx="5" y="6" x="6" height="38" width="38"
        fill="#f2f5e9" fill-opacity="0.5" stroke="#606060" stroke-width="1.0"/>
   <path id="arrow"
     d="M 11.500037,31.436501 C 11.940474,20.09759 22.043105,11.32322 32.158766,21.979434 L 37.068811,17.246167 C 37.068811,17.246167 37.088388,32 37.088388,32 L 22.160133,31.978069 C 22.160133,31.978069 26.997745,27.140456 26.997745,27.140456 C 18.528582,18.264221 13.291696,25.230495 11.500037,31.436501 z"
     style="fill:#404040;"/>
  </a>
 </g>
</svg>

<style type='text/css'>
<![CDATA[
[data-mouse-over-selected='false'] { opacity: 0.7; }
[data-mouse-over-selected='true']  { opacity: 1.0; }
]]>
</style>
<script type="application/ecmascript"><![CDATA[
document.addEventListener('DOMContentLoaded', (event) => {
  highlightEdges();
  highlightAdjacentNodes();
});
]]></script>
</svg>
