<?xml version="1.0" encoding="UTF-8" standalone="no"?>
<!DOCTYPE svg PUBLIC "-//W3C//DTD SVG 1.1//EN"
 "http://www.w3.org/Graphics/SVG/1.1/DTD/svg11.dtd">
<!-- Generated by graphviz version 14.1.5 (0)
 -->
<!-- Title: source/motion/motor/motor_core.h Pages: 1 -->
<!--zoomable 269 -->

<svg id="main" version="1.1" xmlns="http://www.w3.org/2000/svg" xmlns:xlink="http://www.w3.org/1999/xlink" xml:space="preserve" onload="init(evt)">

<style type="text/css"><![CDATA[
.node, .edge {opacity: 0.7;}
.node.selected, .edge.selected {opacity: 1;}
.edge:hover path { stroke: red; }
.edge:hover polygon { stroke: red; fill: red; }
]]></style>

<defs>
  <circle id="rim" cx="0" cy="0" r="7"/>
  <circle id="rim2" cx="0" cy="0" r="3.5"/>
  <g id="zoomPlus">
    <use xlink:href="#rim" fill="#404040"><set attributeName="fill" to="#808080" begin="zoomplus.mouseover" end="zoomplus.mouseout"/></use>
    <path d="M-4,0h8M0,-4v8" fill="none" stroke="white" stroke-width="1.5" pointer-events="none"/>
  </g>
  <g id="zoomMin">
    <use xlink:href="#rim" fill="#404040"><set attributeName="fill" to="#808080" begin="zoomminus.mouseover" end="zoomminus.mouseout"/></use>
    <path d="M-4,0h8" fill="none" stroke="white" stroke-width="1.5" pointer-events="none"/>
  </g>
  <g id="arrowUp" transform="translate(30 24)">
    <use xlink:href="#rim"/>
    <path pointer-events="none" fill="none" stroke="white" stroke-width="1.5" d="M0,-3.0v7 M-2.5,-0.5L0,-3.0L2.5,-0.5"/>
  </g>
  <g id="arrowRight" transform="rotate(90) translate(36 -43)">
    <use xlink:href="#rim"/>
    <path pointer-events="none" fill="none" stroke="white" stroke-width="1.5" d="M0,-3.0v7 M-2.5,-0.5L0,-3.0L2.5,-0.5"/>
  </g>
  <g id="arrowDown" transform="rotate(180) translate(-30 -48)">
    <use xlink:href="#rim"/>
    <path pointer-events="none" fill="none" stroke="white" stroke-width="1.5" d="M0,-3.0v7 M-2.5,-0.5L0,-3.0L2.5,-0.5"/>
  </g>
  <g id="arrowLeft" transform="rotate(270) translate(-36 17)">
    <use xlink:href="#rim"/>
    <path pointer-events="none" fill="none" stroke="white" stroke-width="1.5" d="M0,-3.0v7 M-2.5,-0.5L0,-3.0L2.5,-0.5"/>
  </g>
  <g id="resetDef">
    <use xlink:href="#rim2" fill="#404040"><set attributeName="fill" to="#808080" begin="reset.mouseover" end="reset.mouseout"/></use>
  </g>
</defs>
<script type="application/ecmascript">
var viewWidth = 1217;
var viewHeight = 269;
var sectionId = 'dynsection-0';
</script>
<script type="application/ecmascript" xlink:href="svg.min.js"/>
<svg id="graph" class="graph">
<g id="viewport">
<title>source/motion/motor/motor_core.h</title>
<!-- Node1 -->
<g id="Node000001" class="node">
<title>Node1</title>
<g id="a_Node000001"><a xlink:title=" ">
<polygon fill="#999999" stroke="#666666" points="249.47,-260.5 131.47,-260.5 131.47,-227 249.47,-227 249.47,-260.5"/>
<text xml:space="preserve" text-anchor="start" x="139.47" y="-247" font-family="Helvetica,sans-Serif" font-size="10.00">source/motion/motor</text>
<text xml:space="preserve" text-anchor="middle" x="190.47" y="-234.25" font-family="Helvetica,sans-Serif" font-size="10.00">/motor_core.h</text>
</a>
</g>
</g>
<!-- Node2 -->
<g id="Node000002" class="node">
<title>Node2</title>
<g id="a_Node000002"><a xlink:href="pca9555a_8h.html" target="_top" xlink:title=" ">
<polygon fill="white" stroke="#666666" points="648.47,-77.5 494.47,-77.5 494.47,-56.75 648.47,-56.75 648.47,-77.5"/>
<text xml:space="preserve" text-anchor="middle" x="571.47" y="-64" font-family="Helvetica,sans-Serif" font-size="10.00">driver/pca9555a/pca9555a.h</text>
</a>
</g>
</g>
<!-- Node1&#45;&gt;Node2 -->
<g id="edge1_Node000001_Node000002" class="edge">
<title>Node1&#45;&gt;Node2</title>
<g id="a_edge1_Node000001_Node000002"><a xlink:title=" ">
<path fill="none" stroke="#63b8ff" d="M249.72,-235.43C319.4,-224.19 435.44,-196.99 513.47,-134.25 530.87,-120.26 547.32,-100.67 558.22,-86.45"/>
<polygon fill="#63b8ff" stroke="#63b8ff" points="560.75,-88.92 563.92,-78.81 555.14,-84.73 560.75,-88.92"/>
</a>
</g>
</g>
<!-- Node5 -->
<g id="Node000005" class="node">
<title>Node5</title>
<g id="a_Node000005"><a xlink:title=" ">
<polygon fill="#e0e0e0" stroke="#999999" points="105.84,-191 17.09,-191 17.09,-170.25 105.84,-170.25 105.84,-191"/>
<text xml:space="preserve" text-anchor="middle" x="61.47" y="-177.5" font-family="Helvetica,sans-Serif" font-size="10.00">MK22F51212.h</text>
</a>
</g>
</g>
<!-- Node1&#45;&gt;Node5 -->
<g id="edge4_Node000001_Node000005" class="edge">
<title>Node1&#45;&gt;Node5</title>
<g id="a_edge4_Node000001_Node000005"><a xlink:title=" ">
<path fill="none" stroke="#63b8ff" d="M156.23,-226.53C136.42,-217.14 111.69,-205.42 92.46,-196.31"/>
<polygon fill="#63b8ff" stroke="#63b8ff" points="94.03,-193.18 83.49,-192.06 91.03,-199.51 94.03,-193.18"/>
</a>
</g>
</g>
<!-- Node6 -->
<g id="Node000006" class="node">
<title>Node6</title>
<g id="a_Node000006"><a xlink:href="step__core_8h.html" target="_top" xlink:title=" ">
<polygon fill="white" stroke="#666666" points="401.59,-191 329.34,-191 329.34,-170.25 401.59,-170.25 401.59,-191"/>
<text xml:space="preserve" text-anchor="middle" x="365.47" y="-177.5" font-family="Helvetica,sans-Serif" font-size="10.00">step_core.h</text>
</a>
</g>
</g>
<!-- Node1&#45;&gt;Node6 -->
<g id="edge5_Node000001_Node000006" class="edge">
<title>Node1&#45;&gt;Node6</title>
<g id="a_edge5_Node000001_Node000006"><a xlink:title=" ">
<path fill="none" stroke="#63b8ff" d="M236.9,-226.53C264.9,-216.75 300.15,-204.44 326.66,-195.18"/>
<polygon fill="#63b8ff" stroke="#63b8ff" points="327.72,-198.52 336.01,-191.91 325.41,-191.91 327.72,-198.52"/>
</a>
</g>
</g>
<!-- Node9 -->
<g id="Node000009" class="node">
<title>Node9</title>
<g id="a_Node000009"><a xlink:title=" ">
<polygon fill="#e0e0e0" stroke="#999999" points="98.84,-77.5 40.09,-77.5 40.09,-56.75 98.84,-56.75 98.84,-77.5"/>
<text xml:space="preserve" text-anchor="middle" x="69.47" y="-64" font-family="Helvetica,sans-Serif" font-size="10.00">fsl_ftm.h</text>
</a>
</g>
</g>
<!-- Node1&#45;&gt;Node9 -->
<g id="edge35_Node000001_Node000009" class="edge">
<title>Node1&#45;&gt;Node9</title>
<g id="a_edge35_Node000001_Node000009"><a xlink:title=" ">
<path fill="none" stroke="#63b8ff" d="M131.27,-233.76C84.05,-225.24 23.41,-210.79 8.47,-191 -17.33,-156.85 23.14,-110.1 49.56,-85.27"/>
<polygon fill="#63b8ff" stroke="#63b8ff" points="51.69,-88.06 56.74,-78.75 46.98,-82.88 51.69,-88.06"/>
</a>
</g>
</g>
<!-- Node10 -->
<g id="Node000010" class="node">
<title>Node10</title>
<g id="a_Node000010"><a xlink:title=" ">
<polygon fill="#e0e0e0" stroke="#999999" points="180.09,-77.5 116.84,-77.5 116.84,-56.75 180.09,-56.75 180.09,-77.5"/>
<text xml:space="preserve" text-anchor="middle" x="148.47" y="-64" font-family="Helvetica,sans-Serif" font-size="10.00">fsl_gpio.h</text>
</a>
</g>
</g>
<!-- Node1&#45;&gt;Node10 -->
<g id="edge36_Node000001_Node000010" class="edge">
<title>Node1&#45;&gt;Node10</title>
<g id="a_edge36_Node000001_Node000010"><a xlink:title=" ">
<path fill="none" stroke="#63b8ff" d="M186.59,-226.63C178.92,-194.76 161.84,-123.72 153.39,-88.6"/>
<polygon fill="#63b8ff" stroke="#63b8ff" points="156.89,-88.17 151.14,-79.27 150.08,-89.81 156.89,-88.17"/>
</a>
</g>
</g>
<!-- Node11 -->
<g id="Node000011" class="node">
<title>Node11</title>
<g id="a_Node000011"><a xlink:title=" ">
<polygon fill="#e0e0e0" stroke="#999999" points="260.34,-77.5 198.59,-77.5 198.59,-56.75 260.34,-56.75 260.34,-77.5"/>
<text xml:space="preserve" text-anchor="middle" x="229.47" y="-64" font-family="Helvetica,sans-Serif" font-size="10.00">fsl_port.h</text>
</a>
</g>
</g>
<!-- Node1&#45;&gt;Node11 -->
<g id="edge37_Node000001_Node000011" class="edge">
<title>Node1&#45;&gt;Node11</title>
<g id="a_edge37_Node000001_Node000011"><a xlink:title=" ">
<path fill="none" stroke="#63b8ff" d="M191.45,-226.54C193.25,-201.76 198.04,-153.16 209.47,-113.5 211.93,-104.94 215.67,-95.89 219.25,-88.14"/>
<polygon fill="#63b8ff" stroke="#63b8ff" points="222.33,-89.81 223.56,-79.29 216.04,-86.75 222.33,-89.81"/>
</a>
</g>
</g>
<!-- Node18 -->
<g id="Node000018" class="node">
<title>Node18</title>
<g id="a_Node000018"><a xlink:href="tmc2209__core_8h.html" target="_top" xlink:title=" ">
<polygon fill="white" stroke="#666666" points="1087.47,-191 993.47,-191 993.47,-170.25 1087.47,-170.25 1087.47,-191"/>
<text xml:space="preserve" text-anchor="middle" x="1040.47" y="-177.5" font-family="Helvetica,sans-Serif" font-size="10.00">tmc2209_core.h</text>
</a>
</g>
</g>
<!-- Node1&#45;&gt;Node18 -->
<g id="edge27_Node000001_Node000018" class="edge">
<title>Node1&#45;&gt;Node18</title>
<g id="a_edge27_Node000001_Node000018"><a xlink:title=" ">
<path fill="none" stroke="#63b8ff" d="M249.9,-238.48C406.1,-227.24 826.84,-196.99 981.98,-185.83"/>
<polygon fill="#63b8ff" stroke="#63b8ff" points="981.89,-189.35 991.61,-185.14 981.38,-182.36 981.89,-189.35"/>
</a>
</g>
</g>
<!-- Node3 -->
<g id="Node000003" class="node">
<title>Node3</title>
<g id="a_Node000003"><a xlink:title=" ">
<polygon fill="#e0e0e0" stroke="#999999" points="613.97,-20.75 528.97,-20.75 528.97,0 613.97,0 613.97,-20.75"/>
<text xml:space="preserve" text-anchor="middle" x="571.47" y="-7.25" font-family="Helvetica,sans-Serif" font-size="10.00">fsl_common.h</text>
</a>
</g>
</g>
<!-- Node2&#45;&gt;Node3 -->
<g id="edge2_Node000002_Node000003" class="edge">
<title>Node2&#45;&gt;Node3</title>
<g id="a_edge2_Node000002_Node000003"><a xlink:title=" ">
<path fill="none" stroke="#63b8ff" d="M571.47,-56.34C571.47,-49.72 571.47,-40.72 571.47,-32.52"/>
<polygon fill="#63b8ff" stroke="#63b8ff" points="574.97,-32.59 571.47,-22.59 567.97,-32.59 574.97,-32.59"/>
</a>
</g>
</g>
<!-- Node4 -->
<g id="Node000004" class="node">
<title>Node4</title>
<g id="a_Node000004"><a xlink:title=" ">
<polygon fill="#e0e0e0" stroke="#999999" points="983.34,-20.75 903.59,-20.75 903.59,0 983.34,0 983.34,-20.75"/>
<text xml:space="preserve" text-anchor="middle" x="943.47" y="-7.25" font-family="Helvetica,sans-Serif" font-size="10.00">peripherals.h</text>
</a>
</g>
</g>
<!-- Node2&#45;&gt;Node4 -->
<g id="edge3_Node000002_Node000004" class="edge">
<title>Node2&#45;&gt;Node4</title>
<g id="a_edge3_Node000002_Node000004"><a xlink:title=" ">
<path fill="none" stroke="#63b8ff" d="M638.4,-56.27C711.12,-45.57 825.72,-28.7 891.81,-18.98"/>
<polygon fill="#63b8ff" stroke="#63b8ff" points="892.29,-22.44 901.67,-17.53 891.27,-15.52 892.29,-22.44"/>
</a>
</g>
</g>
<!-- Node6&#45;&gt;Node2 -->
<g id="edge6_Node000006_Node000002" class="edge">
<title>Node6&#45;&gt;Node2</title>
<g id="a_edge6_Node000006_Node000002"><a xlink:title=" ">
<path fill="none" stroke="#63b8ff" d="M398.66,-169.8C423.17,-161.88 456.92,-149.55 484.47,-134.25 509.51,-120.33 535.29,-99.82 552.21,-85.34"/>
<polygon fill="#63b8ff" stroke="#63b8ff" points="554.26,-88.2 559.5,-78.99 549.66,-82.92 554.26,-88.2"/>
</a>
</g>
</g>
<!-- Node6&#45;&gt;Node3 -->
<g id="edge9_Node000006_Node000003" class="edge">
<title>Node6&#45;&gt;Node3</title>
<g id="a_edge9_Node000006_Node000003"><a xlink:title=" ">
<path fill="none" stroke="#63b8ff" d="M394.95,-169.82C413.22,-162.47 436.06,-150.81 451.47,-134.25 477.09,-106.71 459.84,-84.29 485.47,-56.75 498.11,-43.16 515.75,-32.88 531.76,-25.57"/>
<polygon fill="#63b8ff" stroke="#63b8ff" points="532.78,-28.94 540.59,-21.78 530.02,-22.5 532.78,-28.94"/>
</a>
</g>
</g>
<!-- Node7 -->
<g id="Node000007" class="node">
<title>Node7</title>
<g id="a_Node000007"><a xlink:title=" ">
<polygon fill="#e0e0e0" stroke="#999999" points="738.22,-77.5 666.72,-77.5 666.72,-56.75 738.22,-56.75 738.22,-77.5"/>
<text xml:space="preserve" text-anchor="middle" x="702.47" y="-64" font-family="Helvetica,sans-Serif" font-size="10.00">FreeRTOS.h</text>
</a>
</g>
</g>
<!-- Node6&#45;&gt;Node7 -->
<g id="edge7_Node000006_Node000007" class="edge">
<title>Node6&#45;&gt;Node7</title>
<g id="a_edge7_Node000006_Node000007"><a xlink:title=" ">
<path fill="none" stroke="#63b8ff" d="M398.79,-169.81C428.87,-160.86 474.27,-147.11 513.47,-134.25 566.23,-116.94 626.73,-95.49 664.77,-81.8"/>
<polygon fill="#63b8ff" stroke="#63b8ff" points="665.71,-85.18 673.93,-78.5 663.33,-78.6 665.71,-85.18"/>
</a>
</g>
</g>
<!-- Node8 -->
<g id="Node000008" class="node">
<title>Node8</title>
<g id="a_Node000008"><a xlink:title=" ">
<polygon fill="#e0e0e0" stroke="#999999" points="264.47,-134.25 218.47,-134.25 218.47,-113.5 264.47,-113.5 264.47,-134.25"/>
<text xml:space="preserve" text-anchor="middle" x="241.47" y="-120.75" font-family="Helvetica,sans-Serif" font-size="10.00">task.h</text>
</a>
</g>
</g>
<!-- Node6&#45;&gt;Node8 -->
<g id="edge8_Node000006_Node000008" class="edge">
<title>Node6&#45;&gt;Node8</title>
<g id="a_edge8_Node000006_Node000008"><a xlink:title=" ">
<path fill="none" stroke="#63b8ff" d="M343.3,-169.84C323.99,-161.31 295.74,-148.84 273.89,-139.19"/>
<polygon fill="#63b8ff" stroke="#63b8ff" points="275.39,-136.03 264.83,-135.19 272.56,-142.43 275.39,-136.03"/>
</a>
</g>
</g>
<!-- Node6&#45;&gt;Node9 -->
<g id="edge10_Node000006_Node000009" class="edge">
<title>Node6&#45;&gt;Node9</title>
<g id="a_edge10_Node000006_Node000009"><a xlink:title=" ">
<path fill="none" stroke="#63b8ff" d="M329,-170.76C297.04,-162.59 249.56,-149.44 209.47,-134.25 169.74,-119.2 125.72,-97.53 97.83,-83.16"/>
<polygon fill="#63b8ff" stroke="#63b8ff" points="99.46,-80.06 88.97,-78.55 96.23,-86.27 99.46,-80.06"/>
</a>
</g>
</g>
<!-- Node6&#45;&gt;Node10 -->
<g id="edge11_Node000006_Node000010" class="edge">
<title>Node6&#45;&gt;Node10</title>
<g id="a_edge11_Node000006_Node000010"><a xlink:title=" ">
<path fill="none" stroke="#63b8ff" d="M352.9,-169.93C331.77,-153.75 289.82,-122.13 273.47,-113.5 247.35,-99.71 216.13,-88.38 191.42,-80.48"/>
<polygon fill="#63b8ff" stroke="#63b8ff" points="192.6,-77.18 182.01,-77.55 190.52,-83.87 192.6,-77.18"/>
</a>
</g>
</g>
<!-- Node6&#45;&gt;Node11 -->
<g id="edge12_Node000006_Node000011" class="edge">
<title>Node6&#45;&gt;Node11</title>
<g id="a_edge12_Node000006_Node000011"><a xlink:title=" ">
<path fill="none" stroke="#63b8ff" d="M358.27,-169.79C347.89,-156.06 327.63,-130.88 306.47,-113.5 292.28,-101.85 274.76,-91.28 260.02,-83.28"/>
<polygon fill="#63b8ff" stroke="#63b8ff" points="261.69,-80.2 251.21,-78.63 258.42,-86.39 261.69,-80.2"/>
</a>
</g>
</g>
<!-- Node12 -->
<g id="Node000012" class="node">
<title>Node12</title>
<g id="a_Node000012"><a xlink:href="cmd__handle_8h.html" target="_top" xlink:title=" ">
<polygon fill="white" stroke="#666666" points="882.59,-134.25 798.34,-134.25 798.34,-113.5 882.59,-113.5 882.59,-134.25"/>
<text xml:space="preserve" text-anchor="middle" x="840.47" y="-120.75" font-family="Helvetica,sans-Serif" font-size="10.00">cmd_handle.h</text>
</a>
</g>
</g>
<!-- Node6&#45;&gt;Node12 -->
<g id="edge13_Node000006_Node000012" class="edge">
<title>Node6&#45;&gt;Node12</title>
<g id="a_edge13_Node000006_Node000012"><a xlink:title=" ">
<path fill="none" stroke="#63b8ff" d="M401.95,-175.42C485.14,-165.83 689.19,-142.31 786.78,-131.06"/>
<polygon fill="#63b8ff" stroke="#63b8ff" points="787.1,-134.55 796.63,-129.93 786.3,-127.6 787.1,-134.55"/>
</a>
</g>
</g>
<!-- Node16 -->
<g id="Node000016" class="node">
<title>Node16</title>
<g id="a_Node000016"><a xlink:href="step__shared_8h.html" target="_top" xlink:title=" ">
<polygon fill="white" stroke="#666666" points="442.59,-134.25 358.34,-134.25 358.34,-113.5 442.59,-113.5 442.59,-134.25"/>
<text xml:space="preserve" text-anchor="middle" x="400.47" y="-120.75" font-family="Helvetica,sans-Serif" font-size="10.00">step_shared.h</text>
</a>
</g>
</g>
<!-- Node6&#45;&gt;Node16 -->
<g id="edge19_Node000006_Node000016" class="edge">
<title>Node6&#45;&gt;Node16</title>
<g id="a_edge19_Node000006_Node000016"><a xlink:title=" ">
<path fill="none" stroke="#63b8ff" d="M371.72,-169.84C376.3,-162.67 382.66,-152.73 388.23,-144.01"/>
<polygon fill="#63b8ff" stroke="#63b8ff" points="391.01,-146.16 393.45,-135.85 385.11,-142.39 391.01,-146.16"/>
</a>
</g>
</g>
<!-- Node12&#45;&gt;Node3 -->
<g id="edge17_Node000012_Node000003" class="edge">
<title>Node12&#45;&gt;Node3</title>
<g id="a_edge17_Node000012_Node000003"><a xlink:title=" ">
<path fill="none" stroke="#63b8ff" d="M829.57,-113.07C813.01,-98.66 779.98,-71.87 747.47,-56.75 708.48,-38.62 661.14,-26.94 625.37,-19.97"/>
<polygon fill="#63b8ff" stroke="#63b8ff" points="626.16,-16.56 615.68,-18.15 624.87,-23.44 626.16,-16.56"/>
</a>
</g>
</g>
<!-- Node12&#45;&gt;Node7 -->
<g id="edge15_Node000012_Node000007" class="edge">
<title>Node12&#45;&gt;Node7</title>
<g id="a_edge15_Node000012_Node000007"><a xlink:title=" ">
<path fill="none" stroke="#63b8ff" d="M815.79,-113.09C794.01,-104.44 762.01,-91.75 737.56,-82.05"/>
<polygon fill="#63b8ff" stroke="#63b8ff" points="738.92,-78.82 728.33,-78.39 736.33,-85.33 738.92,-78.82"/>
</a>
</g>
</g>
<!-- Node13 -->
<g id="Node000013" class="node">
<title>Node13</title>
<g id="a_Node000013"><a xlink:title=" ">
<polygon fill="#e0e0e0" stroke="#999999" points="1026.84,-77.5 974.09,-77.5 974.09,-56.75 1026.84,-56.75 1026.84,-77.5"/>
<text xml:space="preserve" text-anchor="middle" x="1000.47" y="-64" font-family="Helvetica,sans-Serif" font-size="10.00">stdint.h</text>
</a>
</g>
</g>
<!-- Node12&#45;&gt;Node13 -->
<g id="edge14_Node000012_Node000013" class="edge">
<title>Node12&#45;&gt;Node13</title>
<g id="a_edge14_Node000012_Node000013"><a xlink:title=" ">
<path fill="none" stroke="#63b8ff" d="M869.07,-113.09C895.26,-104.13 934.18,-90.81 962.87,-80.99"/>
<polygon fill="#63b8ff" stroke="#63b8ff" points="963.94,-84.32 972.27,-77.77 961.68,-77.7 963.94,-84.32"/>
</a>
</g>
</g>
<!-- Node14 -->
<g id="Node000014" class="node">
<title>Node14</title>
<g id="a_Node000014"><a xlink:title=" ">
<polygon fill="#e0e0e0" stroke="#999999" points="885.97,-77.5 794.97,-77.5 794.97,-56.75 885.97,-56.75 885.97,-77.5"/>
<text xml:space="preserve" text-anchor="middle" x="840.47" y="-64" font-family="Helvetica,sans-Serif" font-size="10.00">event_groups.h</text>
</a>
</g>
</g>
<!-- Node12&#45;&gt;Node14 -->
<g id="edge16_Node000012_Node000014" class="edge">
<title>Node12&#45;&gt;Node14</title>
<g id="a_edge16_Node000012_Node000014"><a xlink:title=" ">
<path fill="none" stroke="#63b8ff" d="M840.47,-113.09C840.47,-106.47 840.47,-97.47 840.47,-89.27"/>
<polygon fill="#63b8ff" stroke="#63b8ff" points="843.97,-89.34 840.47,-79.34 836.97,-89.34 843.97,-89.34"/>
</a>
</g>
</g>
<!-- Node15 -->
<g id="Node000015" class="node">
<title>Node15</title>
<g id="a_Node000015"><a xlink:title=" ">
<polygon fill="#e0e0e0" stroke="#999999" points="956.47,-77.5 904.47,-77.5 904.47,-56.75 956.47,-56.75 956.47,-77.5"/>
<text xml:space="preserve" text-anchor="middle" x="930.47" y="-64" font-family="Helvetica,sans-Serif" font-size="10.00">stdlib.h</text>
</a>
</g>
</g>
<!-- Node12&#45;&gt;Node15 -->
<g id="edge18_Node000012_Node000015" class="edge">
<title>Node12&#45;&gt;Node15</title>
<g id="a_edge18_Node000012_Node000015"><a xlink:title=" ">
<path fill="none" stroke="#63b8ff" d="M856.56,-113.09C869.99,-104.91 889.4,-93.11 904.95,-83.65"/>
<polygon fill="#63b8ff" stroke="#63b8ff" points="906.5,-86.8 913.22,-78.62 902.86,-80.82 906.5,-86.8"/>
</a>
</g>
</g>
<!-- Node16&#45;&gt;Node2 -->
<g id="edge21_Node000016_Node000002" class="edge">
<title>Node16&#45;&gt;Node2</title>
<g id="a_edge21_Node000016_Node000002"><a xlink:title=" ">
<path fill="none" stroke="#63b8ff" d="M431.04,-113.09C458.67,-104.24 499.58,-91.14 530.13,-81.36"/>
<polygon fill="#63b8ff" stroke="#63b8ff" points="530.97,-84.76 539.43,-78.38 528.84,-78.1 530.97,-84.76"/>
</a>
</g>
</g>
<!-- Node16&#45;&gt;Node3 -->
<g id="edge23_Node000016_Node000003" class="edge">
<title>Node16&#45;&gt;Node3</title>
<g id="a_edge23_Node000016_Node000003"><a xlink:title=" ">
<path fill="none" stroke="#63b8ff" d="M405.62,-113.44C413.81,-99.28 431.06,-72.5 452.47,-56.75 472.19,-42.23 497.13,-31.78 519.08,-24.6"/>
<polygon fill="#63b8ff" stroke="#63b8ff" points="519.95,-27.99 528.46,-21.68 517.87,-21.31 519.95,-27.99"/>
</a>
</g>
</g>
<!-- Node16&#45;&gt;Node9 -->
<g id="edge24_Node000016_Node000009" class="edge">
<title>Node16&#45;&gt;Node9</title>
<g id="a_edge24_Node000016_Node000009"><a xlink:title=" ">
<path fill="none" stroke="#63b8ff" d="M358.05,-117.5C303.05,-110.27 203.96,-96.36 110.37,-77.95"/>
<polygon fill="#63b8ff" stroke="#63b8ff" points="111.26,-74.56 100.76,-76.04 109.89,-81.43 111.26,-74.56"/>
</a>
</g>
</g>
<!-- Node16&#45;&gt;Node10 -->
<g id="edge25_Node000016_Node000010" class="edge">
<title>Node16&#45;&gt;Node10</title>
<g id="a_edge25_Node000016_Node000010"><a xlink:title=" ">
<path fill="none" stroke="#63b8ff" d="M357.99,-113.91C317.69,-105.37 255.12,-92.01 191.32,-77.89"/>
<polygon fill="#63b8ff" stroke="#63b8ff" points="192.24,-74.51 181.72,-75.76 190.72,-81.34 192.24,-74.51"/>
</a>
</g>
</g>
<!-- Node16&#45;&gt;Node11 -->
<g id="edge26_Node000016_Node000011" class="edge">
<title>Node16&#45;&gt;Node11</title>
<g id="a_edge26_Node000016_Node000011"><a xlink:title=" ">
<path fill="none" stroke="#63b8ff" d="M369.89,-113.09C342.26,-104.24 301.35,-91.14 270.8,-81.36"/>
<polygon fill="#63b8ff" stroke="#63b8ff" points="272.09,-78.1 261.5,-78.38 269.96,-84.76 272.09,-78.1"/>
</a>
</g>
</g>
<!-- Node16&#45;&gt;Node13 -->
<g id="edge20_Node000016_Node000013" class="edge">
<title>Node16&#45;&gt;Node13</title>
<g id="a_edge20_Node000016_Node000013"><a xlink:title=" ">
<path fill="none" stroke="#63b8ff" d="M442.97,-122.09C535.78,-119.82 763.59,-111.18 962.57,-77.72"/>
<polygon fill="#63b8ff" stroke="#63b8ff" points="963.06,-81.19 972.33,-76.05 961.88,-74.29 963.06,-81.19"/>
</a>
</g>
</g>
<!-- Node17 -->
<g id="Node000017" class="node">
<title>Node17</title>
<g id="a_Node000017"><a xlink:title=" ">
<polygon fill="#e0e0e0" stroke="#999999" points="400.72,-77.5 278.22,-77.5 278.22,-56.75 400.72,-56.75 400.72,-77.5"/>
<text xml:space="preserve" text-anchor="middle" x="339.47" y="-64" font-family="Helvetica,sans-Serif" font-size="10.00">fsl_device_registers.h</text>
</a>
</g>
</g>
<!-- Node16&#45;&gt;Node17 -->
<g id="edge22_Node000016_Node000017" class="edge">
<title>Node16&#45;&gt;Node17</title>
<g id="a_edge22_Node000016_Node000017"><a xlink:title=" ">
<path fill="none" stroke="#63b8ff" d="M389.56,-113.09C380.97,-105.38 368.79,-94.45 358.59,-85.29"/>
<polygon fill="#63b8ff" stroke="#63b8ff" points="361.18,-82.91 351.4,-78.84 356.51,-88.12 361.18,-82.91"/>
</a>
</g>
</g>
<!-- Node18&#45;&gt;Node3 -->
<g id="edge32_Node000018_Node000003" class="edge">
<title>Node18&#45;&gt;Node3</title>
<g id="a_edge32_Node000018_Node000003"><a xlink:title=" ">
<path fill="none" stroke="#63b8ff" d="M1083.77,-169.8C1104.49,-163.03 1128.09,-151.95 1143.47,-134.25 1166.53,-107.7 1183.36,-82.56 1159.47,-56.75 1141.45,-37.29 767.49,-19.61 625.51,-13.57"/>
<polygon fill="#63b8ff" stroke="#63b8ff" points="625.74,-10.08 615.61,-13.16 625.45,-17.07 625.74,-10.08"/>
</a>
</g>
</g>
<!-- Node18&#45;&gt;Node4 -->
<g id="edge34_Node000018_Node000004" class="edge">
<title>Node18&#45;&gt;Node4</title>
<g id="a_edge34_Node000018_Node000004"><a xlink:title=" ">
<path fill="none" stroke="#63b8ff" d="M1087.96,-179.49C1123.01,-176.58 1168.61,-166.27 1192.47,-134.25 1213.05,-106.63 1214.53,-83.2 1192.47,-56.75 1167.84,-27.23 1060.53,-16.86 995.09,-13.26"/>
<polygon fill="#63b8ff" stroke="#63b8ff" points="995.45,-9.78 985.29,-12.76 995.1,-16.77 995.45,-9.78"/>
</a>
</g>
</g>
<!-- Node18&#45;&gt;Node12 -->
<g id="edge33_Node000018_Node000012" class="edge">
<title>Node18&#45;&gt;Node12</title>
<g id="a_edge33_Node000018_Node000012"><a xlink:title=" ">
<path fill="none" stroke="#63b8ff" d="M1004.71,-169.84C971.82,-160.83 922.85,-147.43 886.94,-137.6"/>
<polygon fill="#63b8ff" stroke="#63b8ff" points="888.28,-134.33 877.71,-135.07 886.43,-141.09 888.28,-134.33"/>
</a>
</g>
</g>
<!-- Node18&#45;&gt;Node13 -->
<g id="edge28_Node000018_Node000013" class="edge">
<title>Node18&#45;&gt;Node13</title>
<g id="a_edge28_Node000018_Node000013"><a xlink:title=" ">
<path fill="none" stroke="#63b8ff" d="M1035.52,-170.07C1030.96,-161.01 1024.19,-146.94 1019.47,-134.25 1013.9,-119.32 1008.98,-102 1005.54,-88.83"/>
<polygon fill="#63b8ff" stroke="#63b8ff" points="1008.94,-87.99 1003.09,-79.16 1002.15,-89.71 1008.94,-87.99"/>
</a>
</g>
</g>
<!-- Node19 -->
<g id="Node000019" class="node">
<title>Node19</title>
<g id="a_Node000019"><a xlink:href="tmc2209__shared_8h.html" target="_top" xlink:title=" ">
<polygon fill="white" stroke="#666666" points="1134.47,-134.25 1028.47,-134.25 1028.47,-113.5 1134.47,-113.5 1134.47,-134.25"/>
<text xml:space="preserve" text-anchor="middle" x="1081.47" y="-120.75" font-family="Helvetica,sans-Serif" font-size="10.00">tmc2209_shared.h</text>
</a>
</g>
</g>
<!-- Node18&#45;&gt;Node19 -->
<g id="edge29_Node000018_Node000019" class="edge">
<title>Node18&#45;&gt;Node19</title>
<g id="a_edge29_Node000018_Node000019"><a xlink:title=" ">
<path fill="none" stroke="#63b8ff" d="M1047.8,-169.84C1053.22,-162.6 1060.77,-152.51 1067.35,-143.72"/>
<polygon fill="#63b8ff" stroke="#63b8ff" points="1070.1,-145.89 1073.29,-135.79 1064.5,-141.7 1070.1,-145.89"/>
</a>
</g>
</g>
<!-- Node19&#45;&gt;Node13 -->
<g id="edge30_Node000019_Node000013" class="edge">
<title>Node19&#45;&gt;Node13</title>
<g id="a_edge30_Node000019_Node000013"><a xlink:title=" ">
<path fill="none" stroke="#63b8ff" d="M1066.98,-113.09C1055.12,-105.07 1038.09,-93.56 1024.23,-84.19"/>
<polygon fill="#63b8ff" stroke="#63b8ff" points="1026.32,-81.38 1016.08,-78.68 1022.4,-87.18 1026.32,-81.38"/>
</a>
</g>
</g>
<!-- Node20 -->
<g id="Node000020" class="node">
<title>Node20</title>
<g id="a_Node000020"><a xlink:title=" ">
<polygon fill="#e0e0e0" stroke="#999999" points="1150.09,-77.5 1044.84,-77.5 1044.84,-56.75 1150.09,-56.75 1150.09,-77.5"/>
<text xml:space="preserve" text-anchor="middle" x="1097.47" y="-64" font-family="Helvetica,sans-Serif" font-size="10.00">fsl_uart_freertos.h</text>
</a>
</g>
</g>
<!-- Node19&#45;&gt;Node20 -->
<g id="edge31_Node000019_Node000020" class="edge">
<title>Node19&#45;&gt;Node20</title>
<g id="a_edge31_Node000019_Node000020"><a xlink:title=" ">
<path fill="none" stroke="#63b8ff" d="M1084.33,-113.09C1086.31,-106.31 1089.01,-97.05 1091.46,-88.69"/>
<polygon fill="#63b8ff" stroke="#63b8ff" points="1094.76,-89.86 1094.21,-79.28 1088.04,-87.9 1094.76,-89.86"/>
</a>
</g>
</g>
</g>
</svg>

<g id="navigator" transform="translate(0 0)" fill="#404254">
  <rect fill="#f2f5e9" fill-opacity="0.5" stroke="#606060" stroke-width=".5" x="0" y="0" width="60" height="60"/>
  <use id="zoomplus" xlink:href="#zoomPlus" x="17" y="9" onmousedown="handleZoom(evt,'in')"/>
  <use id="zoomminus" xlink:href="#zoomMin" x="42" y="9" onmousedown="handleZoom(evt,'out')"/>
  <use id="reset" xlink:href="#resetDef" x="30" y="36" onmousedown="handleReset()"/>
   <use id="arrowup" xlink:href="#arrowUp" x="0" y="0" onmousedown="handlePan(0,-1)"/>
  <use id="arrowright" xlink:href="#arrowRight" x="0" y="0" onmousedown="handlePan(1,0)"/>
  <use id="arrowdown" xlink:href="#arrowDown" x="0" y="0" onmousedown="handlePan(0,1)"/>
  <use id="arrowleft" xlink:href="#arrowLeft" x="0" y="0" onmousedown="handlePan(-1,0)"/>
</g>
<svg viewBox="0 0 15 15" width="100%" height="30px" preserveAspectRatio="xMaxYMin meet">
 <g id="arrow_out" transform="scale(0.3 0.3)">
  <a xlink:href="motor__core_8h__incl_org.svg" target="_base">
   <rect id="button" ry="5" rx="5" y="6" x="6" height="38" width="38"
        fill="#f2f5e9" fill-opacity="0.5" stroke="#606060" stroke-width="1.0"/>
   <path id="arrow"
     d="M 11.500037,31.436501 C 11.940474,20.09759 22.043105,11.32322 32.158766,21.979434 L 37.068811,17.246167 C 37.068811,17.246167 37.088388,32 37.088388,32 L 22.160133,31.978069 C 22.160133,31.978069 26.997745,27.140456 26.997745,27.140456 C 18.528582,18.264221 13.291696,25.230495 11.500037,31.436501 z"
     style="fill:#404040;"/>
  </a>
 </g>
</svg>

<style type='text/css'>
<![CDATA[
[data-mouse-over-selected='false'] { opacity: 0.7; }
[data-mouse-over-selected='true']  { opacity: 1.0; }
]]>
</style>
<script type="application/ecmascript"><![CDATA[
document.addEventListener('DOMContentLoaded', (event) => {
  highlightEdges();
  highlightAdjacentNodes();
});
]]></script>
</svg>
