<?xml version="1.0" encoding="UTF-8" standalone="no"?>
<!DOCTYPE svg PUBLIC "-//W3C//DTD SVG 1.1//EN"
 "http://www.w3.org/Graphics/SVG/1.1/DTD/svg11.dtd">
<!-- Generated by graphviz version 14.1.4 (0)
 -->
<!-- Title: source/motor_homing.c Pages: 1 -->
<!--zoomable 426 -->

<svg id="main" version="1.1" xmlns="http://www.w3.org/2000/svg" xmlns:xlink="http://www.w3.org/1999/xlink" xml:space="preserve" onload="init(evt)">

<style type="text/css"><![CDATA[
.node, .edge {opacity: 0.7;}
.node.selected, .edge.selected {opacity: 1;}
.edge:hover path { stroke: red; }
.edge:hover polygon { stroke: red; fill: red; }
]]></style>

<defs>
  <circle id="rim" cx="0" cy="0" r="7"/>
  <circle id="rim2" cx="0" cy="0" r="3.5"/>
  <g id="zoomPlus">
    <use xlink:href="#rim" fill="#404040"><set attributeName="fill" to="#808080" begin="zoomplus.mouseover" end="zoomplus.mouseout"/></use>
    <path d="M-4,0h8M0,-4v8" fill="none" stroke="white" stroke-width="1.5" pointer-events="none"/>
  </g>
  <g id="zoomMin">
    <use xlink:href="#rim" fill="#404040"><set attributeName="fill" to="#808080" begin="zoomminus.mouseover" end="zoomminus.mouseout"/></use>
    <path d="M-4,0h8" fill="none" stroke="white" stroke-width="1.5" pointer-events="none"/>
  </g>
  <g id="arrowUp" transform="translate(30 24)">
    <use xlink:href="#rim"/>
    <path pointer-events="none" fill="none" stroke="white" stroke-width="1.5" d="M0,-3.0v7 M-2.5,-0.5L0,-3.0L2.5,-0.5"/>
  </g>
  <g id="arrowRight" transform="rotate(90) translate(36 -43)">
    <use xlink:href="#rim"/>
    <path pointer-events="none" fill="none" stroke="white" stroke-width="1.5" d="M0,-3.0v7 M-2.5,-0.5L0,-3.0L2.5,-0.5"/>
  </g>
  <g id="arrowDown" transform="rotate(180) translate(-30 -48)">
    <use xlink:href="#rim"/>
    <path pointer-events="none" fill="none" stroke="white" stroke-width="1.5" d="M0,-3.0v7 M-2.5,-0.5L0,-3.0L2.5,-0.5"/>
  </g>
  <g id="arrowLeft" transform="rotate(270) translate(-36 17)">
    <use xlink:href="#rim"/>
    <path pointer-events="none" fill="none" stroke="white" stroke-width="1.5" d="M0,-3.0v7 M-2.5,-0.5L0,-3.0L2.5,-0.5"/>
  </g>
  <g id="resetDef">
    <use xlink:href="#rim2" fill="#404040"><set attributeName="fill" to="#808080" begin="reset.mouseover" end="reset.mouseout"/></use>
  </g>
</defs>
<script type="application/ecmascript">
var viewWidth = 1400;
var viewHeight = 426;
var sectionId = 'dynsection-0';
</script>
<script type="application/ecmascript" xlink:href="svg.min.js"/>
<svg id="graph" class="graph">
<g id="viewport">
<title>source/motor_homing.c</title>
<!-- Node1 -->
<g id="Node000001" class="node">
<title>Node1</title>
<g id="a_Node000001"><a xlink:title=" ">
<polygon fill="#999999" stroke="#666666" points="1109.33,-418 978.58,-418 978.58,-397.25 1109.33,-397.25 1109.33,-418"/>
<text xml:space="preserve" text-anchor="middle" x="1043.96" y="-404.5" font-family="Helvetica,sans-Serif" font-size="10.00">source/motor_homing.c</text>
</a>
</g>
</g>
<!-- Node2 -->
<g id="Node000002" class="node">
<title>Node2</title>
<g id="a_Node000002"><a xlink:href="motor__homing_8h.html" target="_top" xlink:title=" ">
<polygon fill="white" stroke="#666666" points="1131.08,-361.25 1034.83,-361.25 1034.83,-340.5 1131.08,-340.5 1131.08,-361.25"/>
<text xml:space="preserve" text-anchor="middle" x="1082.96" y="-347.75" font-family="Helvetica,sans-Serif" font-size="10.00">motor_homing.h</text>
</a>
</g>
</g>
<!-- Node1&#45;&gt;Node2 -->
<g id="edge1_Node000001_Node000002" class="edge">
<title>Node1&#45;&gt;Node2</title>
<g id="a_edge1_Node000001_Node000002"><a xlink:title=" ">
<path fill="none" stroke="#63b8ff" d="M1050.93,-396.84C1056.09,-389.6 1063.27,-379.51 1069.53,-370.72"/>
<polygon fill="#63b8ff" stroke="#63b8ff" points="1072.21,-372.99 1075.16,-362.81 1066.51,-368.93 1072.21,-372.99"/>
</a>
</g>
</g>
<!-- Node4 -->
<g id="Node000004" class="node">
<title>Node4</title>
<g id="a_Node000004"><a xlink:href="motor__core_8h.html" target="_top" xlink:title=" ">
<polygon fill="white" stroke="#666666" points="686.21,-247.75 605.71,-247.75 605.71,-227 686.21,-227 686.21,-247.75"/>
<text xml:space="preserve" text-anchor="middle" x="645.96" y="-234.25" font-family="Helvetica,sans-Serif" font-size="10.00">motor_core.h</text>
</a>
</g>
</g>
<!-- Node1&#45;&gt;Node4 -->
<g id="edge45_Node000001_Node000004" class="edge">
<title>Node1&#45;&gt;Node4</title>
<g id="a_edge45_Node000001_Node000004"><a xlink:title=" ">
<path fill="none" stroke="#63b8ff" d="M978.2,-404.32C916.87,-400.38 823.74,-389.77 747.96,-361.25 704.05,-344.73 685.39,-343.25 658.96,-304.5 649.87,-291.18 646.8,-273.04 645.9,-259.13"/>
<polygon fill="#63b8ff" stroke="#63b8ff" points="649.4,-259.21 645.62,-249.31 642.41,-259.41 649.4,-259.21"/>
</a>
</g>
</g>
<!-- Node9 -->
<g id="Node000009" class="node">
<title>Node9</title>
<g id="a_Node000009"><a xlink:href="step__core_8h.html" target="_top" xlink:title=" ">
<polygon fill="white" stroke="#666666" points="688.08,-191 615.83,-191 615.83,-170.25 688.08,-170.25 688.08,-191"/>
<text xml:space="preserve" text-anchor="middle" x="651.96" y="-177.5" font-family="Helvetica,sans-Serif" font-size="10.00">step_core.h</text>
</a>
</g>
</g>
<!-- Node1&#45;&gt;Node9 -->
<g id="edge49_Node000001_Node000009" class="edge">
<title>Node1&#45;&gt;Node9</title>
<g id="a_edge49_Node000001_Node000009"><a xlink:title=" ">
<path fill="none" stroke="#63b8ff" d="M978.13,-399.72C920.23,-392.55 841.34,-379.78 815.96,-361.25 784.13,-338.03 797.97,-314.18 772.96,-283.75 744.16,-248.73 702.24,-216.45 676.07,-197.91"/>
<polygon fill="#63b8ff" stroke="#63b8ff" points="678.31,-195.21 668.11,-192.36 674.31,-200.95 678.31,-195.21"/>
</a>
</g>
</g>
<!-- Node10 -->
<g id="Node000010" class="node">
<title>Node10</title>
<g id="a_Node000010"><a xlink:title=" ">
<polygon fill="#e0e0e0" stroke="#999999" points="1170.71,-77.5 1099.21,-77.5 1099.21,-56.75 1170.71,-56.75 1170.71,-77.5"/>
<text xml:space="preserve" text-anchor="middle" x="1134.96" y="-64" font-family="Helvetica,sans-Serif" font-size="10.00">FreeRTOS.h</text>
</a>
</g>
</g>
<!-- Node1&#45;&gt;Node10 -->
<g id="edge43_Node000001_Node000010" class="edge">
<title>Node1&#45;&gt;Node10</title>
<g id="a_edge43_Node000001_Node000010"><a xlink:title=" ">
<path fill="none" stroke="#63b8ff" d="M1104.66,-396.78C1125.98,-390.24 1148.06,-379.36 1161.96,-361.25 1229,-273.88 1206.62,-216.24 1166.96,-113.5 1163.24,-103.89 1157.05,-94.39 1151.1,-86.59"/>
<polygon fill="#63b8ff" stroke="#63b8ff" points="1153.88,-84.46 1144.85,-78.91 1148.45,-88.88 1153.88,-84.46"/>
</a>
</g>
</g>
<!-- Node13 -->
<g id="Node000013" class="node">
<title>Node13</title>
<g id="a_Node000013"><a xlink:title=" ">
<polygon fill="#e0e0e0" stroke="#999999" points="793.58,-77.5 730.33,-77.5 730.33,-56.75 793.58,-56.75 793.58,-77.5"/>
<text xml:space="preserve" text-anchor="middle" x="761.96" y="-64" font-family="Helvetica,sans-Serif" font-size="10.00">fsl_gpio.h</text>
</a>
</g>
</g>
<!-- Node1&#45;&gt;Node13 -->
<g id="edge59_Node000001_Node000013" class="edge">
<title>Node1&#45;&gt;Node13</title>
<g id="a_edge59_Node000001_Node000013"><a xlink:title=" ">
<path fill="none" stroke="#63b8ff" d="M978.29,-399.97C915.39,-389.53 829.96,-362.89 829.96,-295.12 829.96,-295.12 829.96,-295.12 829.96,-179.62 829.96,-141.93 801.28,-106.17 781.17,-85.73"/>
<polygon fill="#63b8ff" stroke="#63b8ff" points="783.87,-83.48 774.27,-79 778.99,-88.49 783.87,-83.48"/>
</a>
</g>
</g>
<!-- Node25 -->
<g id="Node000025" class="node">
<title>Node25</title>
<g id="a_Node000025"><a xlink:title=" ">
<polygon fill="#e0e0e0" stroke="#999999" points="1325.46,-361.25 1264.46,-361.25 1264.46,-340.5 1325.46,-340.5 1325.46,-361.25"/>
<text xml:space="preserve" text-anchor="middle" x="1294.96" y="-347.75" font-family="Helvetica,sans-Serif" font-size="10.00">semphr.h</text>
</a>
</g>
</g>
<!-- Node1&#45;&gt;Node25 -->
<g id="edge44_Node000001_Node000025" class="edge">
<title>Node1&#45;&gt;Node25</title>
<g id="a_edge44_Node000001_Node000025"><a xlink:title=" ">
<path fill="none" stroke="#63b8ff" d="M1089.12,-396.77C1135.6,-386.63 1207.45,-370.96 1252.8,-361.07"/>
<polygon fill="#63b8ff" stroke="#63b8ff" points="1253.5,-364.5 1262.53,-358.95 1252.01,-357.66 1253.5,-364.5"/>
</a>
</g>
</g>
<!-- Node26 -->
<g id="Node000026" class="node">
<title>Node26</title>
<g id="a_Node000026"><a xlink:href="log_8h.html" target="_top" xlink:title=" ">
<polygon fill="white" stroke="#666666" points="1265.96,-134.25 1225.96,-134.25 1225.96,-113.5 1265.96,-113.5 1265.96,-134.25"/>
<text xml:space="preserve" text-anchor="middle" x="1245.96" y="-120.75" font-family="Helvetica,sans-Serif" font-size="10.00">log.h</text>
</a>
</g>
</g>
<!-- Node1&#45;&gt;Node26 -->
<g id="edge46_Node000001_Node000026" class="edge">
<title>Node1&#45;&gt;Node26</title>
<g id="a_edge46_Node000001_Node000026"><a xlink:title=" ">
<path fill="none" stroke="#63b8ff" d="M1078.64,-396.91C1098.69,-389.8 1123.18,-378.36 1139.96,-361.25 1202.56,-297.39 1231.86,-190.13 1241.82,-145.41"/>
<polygon fill="#63b8ff" stroke="#63b8ff" points="1245.21,-146.31 1243.86,-135.81 1238.36,-144.86 1245.21,-146.31"/>
</a>
</g>
</g>
<!-- Node27 -->
<g id="Node000027" class="node">
<title>Node27</title>
<g id="a_Node000027"><a xlink:title=" ">
<polygon fill="#e0e0e0" stroke="#999999" points="1392.46,-361.25 1343.46,-361.25 1343.46,-340.5 1392.46,-340.5 1392.46,-361.25"/>
<text xml:space="preserve" text-anchor="middle" x="1367.96" y="-347.75" font-family="Helvetica,sans-Serif" font-size="10.00">stdio.h</text>
</a>
</g>
</g>
<!-- Node1&#45;&gt;Node27 -->
<g id="edge50_Node000001_Node000027" class="edge">
<title>Node1&#45;&gt;Node27</title>
<g id="a_edge50_Node000001_Node000027"><a xlink:title=" ">
<path fill="none" stroke="#63b8ff" d="M1109.68,-398.71C1166.39,-391.35 1250.66,-379.16 1332.21,-361.66"/>
<polygon fill="#63b8ff" stroke="#63b8ff" points="1332.67,-365.14 1341.69,-359.59 1331.18,-358.3 1332.67,-365.14"/>
</a>
</g>
</g>
<!-- Node28 -->
<g id="Node000028" class="node">
<title>Node28</title>
<g id="a_Node000028"><a xlink:href="motor__convert_8h.html" target="_top" xlink:title=" ">
<polygon fill="white" stroke="#666666" points="764.08,-304.5 667.83,-304.5 667.83,-283.75 764.08,-283.75 764.08,-304.5"/>
<text xml:space="preserve" text-anchor="middle" x="715.96" y="-291" font-family="Helvetica,sans-Serif" font-size="10.00">motor_convert.h</text>
</a>
</g>
</g>
<!-- Node1&#45;&gt;Node28 -->
<g id="edge51_Node000001_Node000028" class="edge">
<title>Node1&#45;&gt;Node28</title>
<g id="a_edge51_Node000001_Node000028"><a xlink:title=" ">
<path fill="none" stroke="#63b8ff" d="M978.14,-406.9C921.88,-404.55 840.37,-394.8 777.96,-361.25 757.03,-350 739.23,-329.03 728.14,-313.71"/>
<polygon fill="#63b8ff" stroke="#63b8ff" points="731.28,-312.1 722.72,-305.87 725.52,-316.08 731.28,-312.1"/>
</a>
</g>
</g>
<!-- Node29 -->
<g id="Node000029" class="node">
<title>Node29</title>
<g id="a_Node000029"><a xlink:href="sync__wait_8h.html" target="_top" xlink:title=" ">
<polygon fill="white" stroke="#666666" points="1075.83,-191 1002.08,-191 1002.08,-170.25 1075.83,-170.25 1075.83,-191"/>
<text xml:space="preserve" text-anchor="middle" x="1038.96" y="-177.5" font-family="Helvetica,sans-Serif" font-size="10.00">sync_wait.h</text>
</a>
</g>
</g>
<!-- Node1&#45;&gt;Node29 -->
<g id="edge53_Node000001_Node000029" class="edge">
<title>Node1&#45;&gt;Node29</title>
<g id="a_edge53_Node000001_Node000029"><a xlink:title=" ">
<path fill="none" stroke="#63b8ff" d="M1038.83,-396.86C1034.42,-387.89 1028.4,-374.07 1025.96,-361.25 1015.13,-304.61 1026.65,-236.35 1033.94,-202.61"/>
<polygon fill="#63b8ff" stroke="#63b8ff" points="1037.33,-203.47 1036.13,-192.94 1030.51,-201.92 1037.33,-203.47"/>
</a>
</g>
</g>
<!-- Node3 -->
<g id="Node000003" class="node">
<title>Node3</title>
<g id="a_Node000003"><a xlink:href="motor__internal_8h.html" target="_top" xlink:title=" ">
<polygon fill="white" stroke="#666666" points="1131.46,-304.5 1034.46,-304.5 1034.46,-283.75 1131.46,-283.75 1131.46,-304.5"/>
<text xml:space="preserve" text-anchor="middle" x="1082.96" y="-291" font-family="Helvetica,sans-Serif" font-size="10.00">motor_internal.h</text>
</a>
</g>
</g>
<!-- Node2&#45;&gt;Node3 -->
<g id="edge2_Node000002_Node000003" class="edge">
<title>Node2&#45;&gt;Node3</title>
<g id="a_edge2_Node000002_Node000003"><a xlink:title=" ">
<path fill="none" stroke="#63b8ff" d="M1082.96,-340.09C1082.96,-333.47 1082.96,-324.47 1082.96,-316.27"/>
<polygon fill="#63b8ff" stroke="#63b8ff" points="1086.46,-316.34 1082.96,-306.34 1079.46,-316.34 1086.46,-316.34"/>
</a>
</g>
</g>
<!-- Node8 -->
<g id="Node000008" class="node">
<title>Node8</title>
<g id="a_Node000008"><a xlink:title=" ">
<polygon fill="#e0e0e0" stroke="#999999" points="946.33,-191 857.58,-191 857.58,-170.25 946.33,-170.25 946.33,-191"/>
<text xml:space="preserve" text-anchor="middle" x="901.96" y="-177.5" font-family="Helvetica,sans-Serif" font-size="10.00">MK22F51212.h</text>
</a>
</g>
</g>
<!-- Node2&#45;&gt;Node8 -->
<g id="edge42_Node000002_Node000008" class="edge">
<title>Node2&#45;&gt;Node8</title>
<g id="a_edge42_Node000002_Node000008"><a xlink:title=" ">
<path fill="none" stroke="#63b8ff" d="M1070.66,-340.22C1059.07,-331.09 1041.25,-316.97 1025.96,-304.5 995.44,-279.63 985.89,-275.48 957.96,-247.75 942.84,-232.74 927.31,-214.1 916.45,-200.44"/>
<polygon fill="#63b8ff" stroke="#63b8ff" points="919.3,-198.4 910.37,-192.69 913.79,-202.72 919.3,-198.4"/>
</a>
</g>
</g>
<!-- Node2&#45;&gt;Node10 -->
<g id="edge41_Node000002_Node000010" class="edge">
<title>Node2&#45;&gt;Node10</title>
<g id="a_edge41_Node000002_Node000010"><a xlink:title=" ">
<path fill="none" stroke="#63b8ff" d="M1100.91,-340.02C1113.83,-332.04 1130.73,-319.66 1140.96,-304.5 1158.05,-279.15 1159.96,-268.95 1159.96,-238.38 1159.96,-238.38 1159.96,-238.38 1159.96,-179.62 1159.96,-147.15 1149.73,-110.62 1142.36,-88.5"/>
<polygon fill="#63b8ff" stroke="#63b8ff" points="1145.73,-87.53 1139.14,-79.23 1139.12,-89.83 1145.73,-87.53"/>
</a>
</g>
</g>
<!-- Node3&#45;&gt;Node4 -->
<g id="edge3_Node000003_Node000004" class="edge">
<title>Node3&#45;&gt;Node4</title>
<g id="a_edge3_Node000003_Node000004"><a xlink:title=" ">
<path fill="none" stroke="#63b8ff" d="M1034.1,-287C950.95,-276.59 782.68,-255.51 697.64,-244.85"/>
<polygon fill="#63b8ff" stroke="#63b8ff" points="698.32,-241.41 687.96,-243.64 697.45,-248.35 698.32,-241.41"/>
</a>
</g>
</g>
<!-- Node3&#45;&gt;Node10 -->
<g id="edge38_Node000003_Node000010" class="edge">
<title>Node3&#45;&gt;Node10</title>
<g id="a_edge38_Node000003_Node000010"><a xlink:title=" ">
<path fill="none" stroke="#63b8ff" d="M1088.11,-283.3C1092.64,-274.28 1099.09,-260.43 1102.96,-247.75 1120.06,-191.6 1129.17,-122.61 1132.9,-88.8"/>
<polygon fill="#63b8ff" stroke="#63b8ff" points="1136.34,-89.48 1133.91,-79.17 1129.38,-88.75 1136.34,-89.48"/>
</a>
</g>
</g>
<!-- Node15 -->
<g id="Node000015" class="node">
<title>Node15</title>
<g id="a_Node000015"><a xlink:href="cmd__handle_8h.html" target="_top" xlink:title=" ">
<polygon fill="white" stroke="#666666" points="942.08,-134.25 857.83,-134.25 857.83,-113.5 942.08,-113.5 942.08,-134.25"/>
<text xml:space="preserve" text-anchor="middle" x="899.96" y="-120.75" font-family="Helvetica,sans-Serif" font-size="10.00">cmd_handle.h</text>
</a>
</g>
</g>
<!-- Node3&#45;&gt;Node15 -->
<g id="edge40_Node000003_Node000015" class="edge">
<title>Node3&#45;&gt;Node15</title>
<g id="a_edge40_Node000003_Node000015"><a xlink:title=" ">
<path fill="none" stroke="#63b8ff" d="M1070.89,-283.34C1059.96,-274.36 1043.54,-260.53 1029.96,-247.75 995.04,-214.91 990.16,-202.77 954.96,-170.25 944.23,-160.35 931.72,-149.94 921.34,-141.6"/>
<polygon fill="#63b8ff" stroke="#63b8ff" points="923.71,-139.01 913.71,-135.53 919.36,-144.49 923.71,-139.01"/>
</a>
</g>
</g>
<!-- Node24 -->
<g id="Node000024" class="node">
<title>Node24</title>
<g id="a_Node000024"><a xlink:title=" ">
<polygon fill="#e0e0e0" stroke="#999999" points="1093.46,-247.75 1038.46,-247.75 1038.46,-227 1093.46,-227 1093.46,-247.75"/>
<text xml:space="preserve" text-anchor="middle" x="1065.96" y="-234.25" font-family="Helvetica,sans-Serif" font-size="10.00">queue.h</text>
</a>
</g>
</g>
<!-- Node3&#45;&gt;Node24 -->
<g id="edge39_Node000003_Node000024" class="edge">
<title>Node3&#45;&gt;Node24</title>
<g id="a_edge39_Node000003_Node000024"><a xlink:title=" ">
<path fill="none" stroke="#63b8ff" d="M1079.92,-283.34C1077.81,-276.56 1074.94,-267.3 1072.34,-258.94"/>
<polygon fill="#63b8ff" stroke="#63b8ff" points="1075.72,-258.04 1069.42,-249.52 1069.04,-260.11 1075.72,-258.04"/>
</a>
</g>
</g>
<!-- Node5 -->
<g id="Node000005" class="node">
<title>Node5</title>
<g id="a_Node000005"><a xlink:href="pca9555a_8h.html" target="_top" xlink:title=" ">
<polygon fill="white" stroke="#666666" points="339.96,-77.5 185.96,-77.5 185.96,-56.75 339.96,-56.75 339.96,-77.5"/>
<text xml:space="preserve" text-anchor="middle" x="262.96" y="-64" font-family="Helvetica,sans-Serif" font-size="10.00">driver/pca9555a/pca9555a.h</text>
</a>
</g>
</g>
<!-- Node4&#45;&gt;Node5 -->
<g id="edge4_Node000004_Node000005" class="edge">
<title>Node4&#45;&gt;Node5</title>
<g id="a_edge4_Node000004_Node000005"><a xlink:title=" ">
<path fill="none" stroke="#63b8ff" d="M605.53,-229.45C568.95,-222.38 514.06,-209.77 468.96,-191 397.97,-161.46 322.22,-110.61 285.5,-84.56"/>
<polygon fill="#63b8ff" stroke="#63b8ff" points="287.62,-81.77 277.45,-78.79 283.54,-87.46 287.62,-81.77"/>
</a>
</g>
</g>
<!-- Node4&#45;&gt;Node8 -->
<g id="edge7_Node000004_Node000008" class="edge">
<title>Node4&#45;&gt;Node8</title>
<g id="a_edge7_Node000004_Node000008"><a xlink:title=" ">
<path fill="none" stroke="#63b8ff" d="M686.52,-227.7C729.59,-218.49 797.97,-203.86 846.11,-193.57"/>
<polygon fill="#63b8ff" stroke="#63b8ff" points="846.75,-197.01 855.8,-191.5 845.29,-190.17 846.75,-197.01"/>
</a>
</g>
</g>
<!-- Node4&#45;&gt;Node9 -->
<g id="edge8_Node000004_Node000009" class="edge">
<title>Node4&#45;&gt;Node9</title>
<g id="a_edge8_Node000004_Node000009"><a xlink:title=" ">
<path fill="none" stroke="#63b8ff" d="M647.03,-226.59C647.75,-219.97 648.74,-210.97 649.64,-202.77"/>
<polygon fill="#63b8ff" stroke="#63b8ff" points="653.12,-203.15 650.73,-192.83 646.16,-202.39 653.12,-203.15"/>
</a>
</g>
</g>
<!-- Node12 -->
<g id="Node000012" class="node">
<title>Node12</title>
<g id="a_Node000012"><a xlink:title=" ">
<polygon fill="#e0e0e0" stroke="#999999" points="674.33,-77.5 615.58,-77.5 615.58,-56.75 674.33,-56.75 674.33,-77.5"/>
<text xml:space="preserve" text-anchor="middle" x="644.96" y="-64" font-family="Helvetica,sans-Serif" font-size="10.00">fsl_ftm.h</text>
</a>
</g>
</g>
<!-- Node4&#45;&gt;Node12 -->
<g id="edge35_Node000004_Node000012" class="edge">
<title>Node4&#45;&gt;Node12</title>
<g id="a_edge35_Node000004_Node000012"><a xlink:title=" ">
<path fill="none" stroke="#63b8ff" d="M633.84,-226.66C624.5,-218.33 612.3,-205.41 606.96,-191 593.57,-154.89 615.47,-111.66 631.18,-87.3"/>
<polygon fill="#63b8ff" stroke="#63b8ff" points="634.06,-89.3 636.77,-79.06 628.26,-85.37 634.06,-89.3"/>
</a>
</g>
</g>
<!-- Node4&#45;&gt;Node13 -->
<g id="edge36_Node000004_Node000013" class="edge">
<title>Node4&#45;&gt;Node13</title>
<g id="a_edge36_Node000004_Node000013"><a xlink:title=" ">
<path fill="none" stroke="#63b8ff" d="M662.45,-226.62C687.46,-210.8 734.28,-176.96 754.96,-134.25 761.74,-120.23 763.32,-102.63 763.29,-89.11"/>
<polygon fill="#63b8ff" stroke="#63b8ff" points="766.79,-89.03 762.95,-79.16 759.8,-89.28 766.79,-89.03"/>
</a>
</g>
</g>
<!-- Node14 -->
<g id="Node000014" class="node">
<title>Node14</title>
<g id="a_Node000014"><a xlink:title=" ">
<polygon fill="#e0e0e0" stroke="#999999" points="419.83,-77.5 358.08,-77.5 358.08,-56.75 419.83,-56.75 419.83,-77.5"/>
<text xml:space="preserve" text-anchor="middle" x="388.96" y="-64" font-family="Helvetica,sans-Serif" font-size="10.00">fsl_port.h</text>
</a>
</g>
</g>
<!-- Node4&#45;&gt;Node14 -->
<g id="edge37_Node000004_Node000014" class="edge">
<title>Node4&#45;&gt;Node14</title>
<g id="a_edge37_Node000004_Node000014"><a xlink:title=" ">
<path fill="none" stroke="#63b8ff" d="M606.22,-226.56C558.01,-212.92 476.66,-184.1 423.96,-134.25 410.68,-121.7 401.43,-102.98 395.79,-88.66"/>
<polygon fill="#63b8ff" stroke="#63b8ff" points="399.1,-87.53 392.4,-79.32 392.52,-89.92 399.1,-87.53"/>
</a>
</g>
</g>
<!-- Node21 -->
<g id="Node000021" class="node">
<title>Node21</title>
<g id="a_Node000021"><a xlink:href="tmc2209__core_8h.html" target="_top" xlink:title=" ">
<polygon fill="white" stroke="#666666" points="204.96,-191 110.96,-191 110.96,-170.25 204.96,-170.25 204.96,-191"/>
<text xml:space="preserve" text-anchor="middle" x="157.96" y="-177.5" font-family="Helvetica,sans-Serif" font-size="10.00">tmc2209_core.h</text>
</a>
</g>
</g>
<!-- Node4&#45;&gt;Node21 -->
<g id="edge29_Node000004_Node000021" class="edge">
<title>Node4&#45;&gt;Node21</title>
<g id="a_edge29_Node000004_Node000021"><a xlink:title=" ">
<path fill="none" stroke="#63b8ff" d="M605.6,-231.85C519.41,-222.18 317.01,-199.47 216.59,-188.2"/>
<polygon fill="#63b8ff" stroke="#63b8ff" points="217.28,-184.76 206.95,-187.12 216.5,-191.72 217.28,-184.76"/>
</a>
</g>
</g>
<!-- Node6 -->
<g id="Node000006" class="node">
<title>Node6</title>
<g id="a_Node000006"><a xlink:title=" ">
<polygon fill="#e0e0e0" stroke="#999999" points="744.46,-20.75 659.46,-20.75 659.46,0 744.46,0 744.46,-20.75"/>
<text xml:space="preserve" text-anchor="middle" x="701.96" y="-7.25" font-family="Helvetica,sans-Serif" font-size="10.00">fsl_common.h</text>
</a>
</g>
</g>
<!-- Node5&#45;&gt;Node6 -->
<g id="edge5_Node000005_Node000006" class="edge">
<title>Node5&#45;&gt;Node6</title>
<g id="a_edge5_Node000005_Node000006"><a xlink:title=" ">
<path fill="none" stroke="#63b8ff" d="M340.43,-56.46C428.7,-45.45 570.66,-27.75 647.81,-18.13"/>
<polygon fill="#63b8ff" stroke="#63b8ff" points="648.17,-21.61 657.66,-16.9 647.3,-14.66 648.17,-21.61"/>
</a>
</g>
</g>
<!-- Node7 -->
<g id="Node000007" class="node">
<title>Node7</title>
<g id="a_Node000007"><a xlink:title=" ">
<polygon fill="#e0e0e0" stroke="#999999" points="169.83,-20.75 90.08,-20.75 90.08,0 169.83,0 169.83,-20.75"/>
<text xml:space="preserve" text-anchor="middle" x="129.96" y="-7.25" font-family="Helvetica,sans-Serif" font-size="10.00">peripherals.h</text>
</a>
</g>
</g>
<!-- Node5&#45;&gt;Node7 -->
<g id="edge6_Node000005_Node000007" class="edge">
<title>Node5&#45;&gt;Node7</title>
<g id="a_edge6_Node000005_Node000007"><a xlink:title=" ">
<path fill="none" stroke="#63b8ff" d="M239.18,-56.34C218.28,-47.73 187.62,-35.11 164.1,-25.43"/>
<polygon fill="#63b8ff" stroke="#63b8ff" points="165.51,-22.22 154.93,-21.65 162.84,-28.7 165.51,-22.22"/>
</a>
</g>
</g>
<!-- Node9&#45;&gt;Node5 -->
<g id="edge9_Node000009_Node000005" class="edge">
<title>Node9&#45;&gt;Node5</title>
<g id="a_edge9_Node000009_Node000005"><a xlink:title=" ">
<path fill="none" stroke="#63b8ff" d="M615.49,-174.59C570.03,-167.82 490.22,-154.25 423.96,-134.25 377.17,-120.13 325.25,-97.46 293.35,-82.68"/>
<polygon fill="#63b8ff" stroke="#63b8ff" points="295.24,-79.7 284.7,-78.64 292.28,-86.04 295.24,-79.7"/>
</a>
</g>
</g>
<!-- Node9&#45;&gt;Node6 -->
<g id="edge12_Node000009_Node000006" class="edge">
<title>Node9&#45;&gt;Node6</title>
<g id="a_edge12_Node000009_Node000006"><a xlink:title=" ">
<path fill="none" stroke="#63b8ff" d="M654.54,-170.17C658.08,-157.3 664.73,-133.58 670.96,-113.5 675.95,-97.39 677.96,-93.61 682.96,-77.5 687.67,-62.28 692.63,-44.97 696.3,-31.88"/>
<polygon fill="#63b8ff" stroke="#63b8ff" points="699.66,-32.86 698.97,-22.29 692.92,-30.99 699.66,-32.86"/>
</a>
</g>
</g>
<!-- Node9&#45;&gt;Node10 -->
<g id="edge10_Node000009_Node000010" class="edge">
<title>Node9&#45;&gt;Node10</title>
<g id="a_edge10_Node000009_Node000010"><a xlink:title=" ">
<path fill="none" stroke="#63b8ff" d="M688.31,-176.41C745.04,-170.88 857.81,-157.82 950.96,-134.25 1004.93,-120.59 1065.28,-97.29 1101.68,-82.31"/>
<polygon fill="#63b8ff" stroke="#63b8ff" points="1102.88,-85.6 1110.77,-78.53 1100.19,-79.13 1102.88,-85.6"/>
</a>
</g>
</g>
<!-- Node11 -->
<g id="Node000011" class="node">
<title>Node11</title>
<g id="a_Node000011"><a xlink:title=" ">
<polygon fill="#e0e0e0" stroke="#999999" points="725.96,-134.25 679.96,-134.25 679.96,-113.5 725.96,-113.5 725.96,-134.25"/>
<text xml:space="preserve" text-anchor="middle" x="702.96" y="-120.75" font-family="Helvetica,sans-Serif" font-size="10.00">task.h</text>
</a>
</g>
</g>
<!-- Node9&#45;&gt;Node11 -->
<g id="edge11_Node000009_Node000011" class="edge">
<title>Node9&#45;&gt;Node11</title>
<g id="a_edge11_Node000009_Node000011"><a xlink:title=" ">
<path fill="none" stroke="#63b8ff" d="M661.07,-169.84C668.04,-162.36 677.82,-151.86 686.19,-142.88"/>
<polygon fill="#63b8ff" stroke="#63b8ff" points="688.63,-145.39 692.88,-135.69 683.51,-140.62 688.63,-145.39"/>
</a>
</g>
</g>
<!-- Node9&#45;&gt;Node12 -->
<g id="edge13_Node000009_Node000012" class="edge">
<title>Node9&#45;&gt;Node12</title>
<g id="a_edge13_Node000009_Node000012"><a xlink:title=" ">
<path fill="none" stroke="#63b8ff" d="M648.09,-170.08C644.65,-161.03 639.87,-146.97 637.96,-134.25 635.66,-119.03 637.66,-101.72 640.1,-88.63"/>
<polygon fill="#63b8ff" stroke="#63b8ff" points="643.47,-89.57 642.13,-79.06 636.63,-88.11 643.47,-89.57"/>
</a>
</g>
</g>
<!-- Node9&#45;&gt;Node13 -->
<g id="edge14_Node000009_Node000013" class="edge">
<title>Node9&#45;&gt;Node13</title>
<g id="a_edge14_Node000009_Node000013"><a xlink:title=" ">
<path fill="none" stroke="#63b8ff" d="M680.16,-169.88C697.91,-162.5 720.19,-150.78 734.96,-134.25 746.46,-121.38 753.43,-102.95 757.41,-88.81"/>
<polygon fill="#63b8ff" stroke="#63b8ff" points="760.78,-89.77 759.79,-79.22 753.98,-88.07 760.78,-89.77"/>
</a>
</g>
</g>
<!-- Node9&#45;&gt;Node14 -->
<g id="edge15_Node000009_Node000014" class="edge">
<title>Node9&#45;&gt;Node14</title>
<g id="a_edge15_Node000009_Node000014"><a xlink:title=" ">
<path fill="none" stroke="#63b8ff" d="M615.67,-177.29C574.43,-173.32 506.21,-162.68 454.96,-134.25 433.78,-122.51 414.85,-101.97 402.76,-86.89"/>
<polygon fill="#63b8ff" stroke="#63b8ff" points="405.64,-84.9 396.76,-79.12 400.1,-89.17 405.64,-84.9"/>
</a>
</g>
</g>
<!-- Node9&#45;&gt;Node15 -->
<g id="edge16_Node000009_Node000015" class="edge">
<title>Node9&#45;&gt;Node15</title>
<g id="a_edge16_Node000009_Node000015"><a xlink:title=" ">
<path fill="none" stroke="#63b8ff" d="M688.55,-171.55C730.21,-162.35 798.66,-147.24 846.34,-136.71"/>
<polygon fill="#63b8ff" stroke="#63b8ff" points="846.9,-140.17 855.91,-134.6 845.39,-133.34 846.9,-140.17"/>
</a>
</g>
</g>
<!-- Node19 -->
<g id="Node000019" class="node">
<title>Node19</title>
<g id="a_Node000019"><a xlink:href="step__shared_8h.html" target="_top" xlink:title=" ">
<polygon fill="white" stroke="#666666" points="548.08,-134.25 463.83,-134.25 463.83,-113.5 548.08,-113.5 548.08,-134.25"/>
<text xml:space="preserve" text-anchor="middle" x="505.96" y="-120.75" font-family="Helvetica,sans-Serif" font-size="10.00">step_shared.h</text>
</a>
</g>
</g>
<!-- Node9&#45;&gt;Node19 -->
<g id="edge22_Node000009_Node000019" class="edge">
<title>Node9&#45;&gt;Node19</title>
<g id="a_edge22_Node000009_Node000019"><a xlink:title=" ">
<path fill="none" stroke="#63b8ff" d="M625.85,-169.84C602.6,-161.12 568.34,-148.27 542.39,-138.54"/>
<polygon fill="#63b8ff" stroke="#63b8ff" points="543.84,-135.34 533.25,-135.11 541.38,-141.9 543.84,-135.34"/>
</a>
</g>
</g>
<!-- Node15&#45;&gt;Node6 -->
<g id="edge20_Node000015_Node000006" class="edge">
<title>Node15&#45;&gt;Node6</title>
<g id="a_edge20_Node000015_Node000006"><a xlink:title=" ">
<path fill="none" stroke="#63b8ff" d="M898.74,-113.23C896.4,-98.79 889.9,-71.65 872.96,-56.75 840.76,-28.44 792.85,-17.52 755.92,-13.43"/>
<polygon fill="#63b8ff" stroke="#63b8ff" points="756.64,-9.98 746.35,-12.51 755.97,-16.95 756.64,-9.98"/>
</a>
</g>
</g>
<!-- Node15&#45;&gt;Node10 -->
<g id="edge18_Node000015_Node000010" class="edge">
<title>Node15&#45;&gt;Node10</title>
<g id="a_edge18_Node000015_Node000010"><a xlink:title=" ">
<path fill="none" stroke="#63b8ff" d="M942.24,-113.02C983.15,-103.49 1045.06,-89.07 1087.6,-79.16"/>
<polygon fill="#63b8ff" stroke="#63b8ff" points="1088.37,-82.57 1097.31,-76.89 1086.78,-75.76 1088.37,-82.57"/>
</a>
</g>
</g>
<!-- Node16 -->
<g id="Node000016" class="node">
<title>Node16</title>
<g id="a_Node000016"><a xlink:title=" ">
<polygon fill="#e0e0e0" stroke="#999999" points="972.33,-77.5 919.58,-77.5 919.58,-56.75 972.33,-56.75 972.33,-77.5"/>
<text xml:space="preserve" text-anchor="middle" x="945.96" y="-64" font-family="Helvetica,sans-Serif" font-size="10.00">stdint.h</text>
</a>
</g>
</g>
<!-- Node15&#45;&gt;Node16 -->
<g id="edge17_Node000015_Node000016" class="edge">
<title>Node15&#45;&gt;Node16</title>
<g id="a_edge17_Node000015_Node000016"><a xlink:title=" ">
<path fill="none" stroke="#63b8ff" d="M908.18,-113.09C914.39,-105.69 923.1,-95.32 930.59,-86.41"/>
<polygon fill="#63b8ff" stroke="#63b8ff" points="933.08,-88.9 936.83,-78.99 927.72,-84.39 933.08,-88.9"/>
</a>
</g>
</g>
<!-- Node17 -->
<g id="Node000017" class="node">
<title>Node17</title>
<g id="a_Node000017"><a xlink:title=" ">
<polygon fill="#e0e0e0" stroke="#999999" points="1081.46,-77.5 990.46,-77.5 990.46,-56.75 1081.46,-56.75 1081.46,-77.5"/>
<text xml:space="preserve" text-anchor="middle" x="1035.96" y="-64" font-family="Helvetica,sans-Serif" font-size="10.00">event_groups.h</text>
</a>
</g>
</g>
<!-- Node15&#45;&gt;Node17 -->
<g id="edge19_Node000015_Node000017" class="edge">
<title>Node15&#45;&gt;Node17</title>
<g id="a_edge19_Node000015_Node000017"><a xlink:title=" ">
<path fill="none" stroke="#63b8ff" d="M924.27,-113.09C945.74,-104.44 977.28,-91.75 1001.37,-82.05"/>
<polygon fill="#63b8ff" stroke="#63b8ff" points="1002.48,-85.38 1010.45,-78.39 999.86,-78.88 1002.48,-85.38"/>
</a>
</g>
</g>
<!-- Node18 -->
<g id="Node000018" class="node">
<title>Node18</title>
<g id="a_Node000018"><a xlink:title=" ">
<polygon fill="#e0e0e0" stroke="#999999" points="863.96,-77.5 811.96,-77.5 811.96,-56.75 863.96,-56.75 863.96,-77.5"/>
<text xml:space="preserve" text-anchor="middle" x="837.96" y="-64" font-family="Helvetica,sans-Serif" font-size="10.00">stdlib.h</text>
</a>
</g>
</g>
<!-- Node15&#45;&gt;Node18 -->
<g id="edge21_Node000015_Node000018" class="edge">
<title>Node15&#45;&gt;Node18</title>
<g id="a_edge21_Node000015_Node000018"><a xlink:title=" ">
<path fill="none" stroke="#63b8ff" d="M888.87,-113.09C880.14,-105.38 867.76,-94.45 857.39,-85.29"/>
<polygon fill="#63b8ff" stroke="#63b8ff" points="859.89,-82.83 850.08,-78.83 855.26,-88.07 859.89,-82.83"/>
</a>
</g>
</g>
<!-- Node19&#45;&gt;Node5 -->
<g id="edge23_Node000019_Node000005" class="edge">
<title>Node19&#45;&gt;Node5</title>
<g id="a_edge23_Node000019_Node000005"><a xlink:title=" ">
<path fill="none" stroke="#63b8ff" d="M463.35,-113.28C422.9,-104.16 361.91,-90.42 317.84,-80.49"/>
<polygon fill="#63b8ff" stroke="#63b8ff" points="318.74,-77.11 308.22,-78.32 317.21,-83.94 318.74,-77.11"/>
</a>
</g>
</g>
<!-- Node19&#45;&gt;Node6 -->
<g id="edge25_Node000019_Node000006" class="edge">
<title>Node19&#45;&gt;Node6</title>
<g id="a_edge25_Node000019_Node000006"><a xlink:title=" ">
<path fill="none" stroke="#63b8ff" d="M519.64,-113.07C538.72,-99.59 574.63,-74.94 606.96,-56.75 627.06,-45.43 650.44,-34.25 668.97,-25.81"/>
<polygon fill="#63b8ff" stroke="#63b8ff" points="670.19,-29.1 677.88,-21.8 667.32,-22.71 670.19,-29.1"/>
</a>
</g>
</g>
<!-- Node19&#45;&gt;Node12 -->
<g id="edge26_Node000019_Node000012" class="edge">
<title>Node19&#45;&gt;Node12</title>
<g id="a_edge26_Node000019_Node000012"><a xlink:title=" ">
<path fill="none" stroke="#63b8ff" d="M530.81,-113.09C552.84,-104.41 585.27,-91.63 609.94,-81.92"/>
<polygon fill="#63b8ff" stroke="#63b8ff" points="610.89,-85.3 618.91,-78.38 608.32,-78.79 610.89,-85.3"/>
</a>
</g>
</g>
<!-- Node19&#45;&gt;Node13 -->
<g id="edge27_Node000019_Node000013" class="edge">
<title>Node19&#45;&gt;Node13</title>
<g id="a_edge27_Node000019_Node000013"><a xlink:title=" ">
<path fill="none" stroke="#63b8ff" d="M548.52,-113.77C595.67,-103.69 671.29,-87.51 718.72,-77.37"/>
<polygon fill="#63b8ff" stroke="#63b8ff" points="719.31,-80.82 728.36,-75.31 717.85,-73.98 719.31,-80.82"/>
</a>
</g>
</g>
<!-- Node19&#45;&gt;Node14 -->
<g id="edge28_Node000019_Node000014" class="edge">
<title>Node19&#45;&gt;Node14</title>
<g id="a_edge28_Node000019_Node000014"><a xlink:title=" ">
<path fill="none" stroke="#63b8ff" d="M485.04,-113.09C466.99,-104.64 440.65,-92.32 420.12,-82.71"/>
<polygon fill="#63b8ff" stroke="#63b8ff" points="421.6,-79.54 411.06,-78.47 418.64,-85.88 421.6,-79.54"/>
</a>
</g>
</g>
<!-- Node20 -->
<g id="Node000020" class="node">
<title>Node20</title>
<g id="a_Node000020"><a xlink:title=" ">
<polygon fill="#e0e0e0" stroke="#999999" points="560.21,-77.5 437.71,-77.5 437.71,-56.75 560.21,-56.75 560.21,-77.5"/>
<text xml:space="preserve" text-anchor="middle" x="498.96" y="-64" font-family="Helvetica,sans-Serif" font-size="10.00">fsl_device_registers.h</text>
</a>
</g>
</g>
<!-- Node19&#45;&gt;Node20 -->
<g id="edge24_Node000019_Node000020" class="edge">
<title>Node19&#45;&gt;Node20</title>
<g id="a_edge24_Node000019_Node000020"><a xlink:title=" ">
<path fill="none" stroke="#63b8ff" d="M504.7,-113.09C503.85,-106.39 502.68,-97.26 501.62,-88.98"/>
<polygon fill="#63b8ff" stroke="#63b8ff" points="505.13,-88.81 500.39,-79.33 498.18,-89.69 505.13,-88.81"/>
</a>
</g>
</g>
<!-- Node21&#45;&gt;Node6 -->
<g id="edge32_Node000021_Node000006" class="edge">
<title>Node21&#45;&gt;Node6</title>
<g id="a_edge32_Node000021_Node000006"><a xlink:title=" ">
<path fill="none" stroke="#63b8ff" d="M155.95,-169.85C151.75,-146.41 144.95,-86.68 176.96,-56.75 210.86,-25.05 520.86,-15.1 647.97,-12.33"/>
<polygon fill="#63b8ff" stroke="#63b8ff" points="647.88,-15.83 657.81,-12.12 647.74,-8.83 647.88,-15.83"/>
</a>
</g>
</g>
<!-- Node21&#45;&gt;Node7 -->
<g id="edge34_Node000021_Node000007" class="edge">
<title>Node21&#45;&gt;Node7</title>
<g id="a_edge34_Node000021_Node000007"><a xlink:title=" ">
<path fill="none" stroke="#63b8ff" d="M110.79,-178.36C78.11,-174.72 36.72,-163.99 14.96,-134.25 -5.39,-106.45 -4.42,-85.23 14.96,-56.75 29.34,-35.61 55.24,-24.32 78.82,-18.29"/>
<polygon fill="#63b8ff" stroke="#63b8ff" points="79.35,-21.76 88.32,-16.14 77.8,-14.93 79.35,-21.76"/>
</a>
</g>
</g>
<!-- Node21&#45;&gt;Node15 -->
<g id="edge33_Node000021_Node000015" class="edge">
<title>Node21&#45;&gt;Node15</title>
<g id="a_edge33_Node000021_Node000015"><a xlink:title=" ">
<path fill="none" stroke="#63b8ff" d="M205.22,-176.14C336.86,-166.42 707.18,-139.1 846.26,-128.84"/>
<polygon fill="#63b8ff" stroke="#63b8ff" points="846.21,-132.35 855.93,-128.12 845.69,-125.37 846.21,-132.35"/>
</a>
</g>
</g>
<!-- Node22 -->
<g id="Node000022" class="node">
<title>Node22</title>
<g id="a_Node000022"><a xlink:href="tmc2209__shared_8h.html" target="_top" xlink:title=" ">
<polygon fill="white" stroke="#666666" points="129.96,-134.25 23.96,-134.25 23.96,-113.5 129.96,-113.5 129.96,-134.25"/>
<text xml:space="preserve" text-anchor="middle" x="76.96" y="-120.75" font-family="Helvetica,sans-Serif" font-size="10.00">tmc2209_shared.h</text>
</a>
</g>
</g>
<!-- Node21&#45;&gt;Node22 -->
<g id="edge30_Node000021_Node000022" class="edge">
<title>Node21&#45;&gt;Node22</title>
<g id="a_edge30_Node000021_Node000022"><a xlink:title=" ">
<path fill="none" stroke="#63b8ff" d="M143.47,-169.84C131.61,-161.82 114.58,-150.31 100.72,-140.94"/>
<polygon fill="#63b8ff" stroke="#63b8ff" points="102.81,-138.13 92.56,-135.43 98.89,-143.93 102.81,-138.13"/>
</a>
</g>
</g>
<!-- Node23 -->
<g id="Node000023" class="node">
<title>Node23</title>
<g id="a_Node000023"><a xlink:title=" ">
<polygon fill="#e0e0e0" stroke="#999999" points="129.58,-77.5 24.33,-77.5 24.33,-56.75 129.58,-56.75 129.58,-77.5"/>
<text xml:space="preserve" text-anchor="middle" x="76.96" y="-64" font-family="Helvetica,sans-Serif" font-size="10.00">fsl_uart_freertos.h</text>
</a>
</g>
</g>
<!-- Node22&#45;&gt;Node23 -->
<g id="edge31_Node000022_Node000023" class="edge">
<title>Node22&#45;&gt;Node23</title>
<g id="a_edge31_Node000022_Node000023"><a xlink:title=" ">
<path fill="none" stroke="#63b8ff" d="M76.96,-113.09C76.96,-106.47 76.96,-97.47 76.96,-89.27"/>
<polygon fill="#63b8ff" stroke="#63b8ff" points="80.46,-89.34 76.96,-79.34 73.46,-89.34 80.46,-89.34"/>
</a>
</g>
</g>
<!-- Node26&#45;&gt;Node6 -->
<g id="edge48_Node000026_Node000006" class="edge">
<title>Node26&#45;&gt;Node6</title>
<g id="a_edge48_Node000026_Node000006"><a xlink:title=" ">
<path fill="none" stroke="#63b8ff" d="M1239.64,-113.15C1229.24,-98.07 1206.95,-69.48 1179.96,-56.75 1106.02,-21.9 864.87,-13.82 756.07,-11.94"/>
<polygon fill="#63b8ff" stroke="#63b8ff" points="756.28,-8.44 746.23,-11.78 756.17,-15.44 756.28,-8.44"/>
</a>
</g>
</g>
<!-- Node26&#45;&gt;Node10 -->
<g id="edge47_Node000026_Node000010" class="edge">
<title>Node26&#45;&gt;Node10</title>
<g id="a_edge47_Node000026_Node000010"><a xlink:title=" ">
<path fill="none" stroke="#63b8ff" d="M1226.11,-113.09C1209.06,-104.68 1184.23,-92.43 1164.79,-82.84"/>
<polygon fill="#63b8ff" stroke="#63b8ff" points="1166.5,-79.78 1155.99,-78.5 1163.41,-86.06 1166.5,-79.78"/>
</a>
</g>
</g>
<!-- Node28&#45;&gt;Node4 -->
<g id="edge52_Node000028_Node000004" class="edge">
<title>Node28&#45;&gt;Node4</title>
<g id="a_edge52_Node000028_Node000004"><a xlink:title=" ">
<path fill="none" stroke="#63b8ff" d="M703.44,-283.34C693.39,-275.47 679.04,-264.25 667.2,-254.99"/>
<polygon fill="#63b8ff" stroke="#63b8ff" points="669.59,-252.41 659.55,-249.01 665.27,-257.93 669.59,-252.41"/>
</a>
</g>
</g>
<!-- Node29&#45;&gt;Node6 -->
<g id="edge57_Node000029_Node000006" class="edge">
<title>Node29&#45;&gt;Node6</title>
<g id="a_edge57_Node000029_Node000006"><a xlink:title=" ">
<path fill="none" stroke="#63b8ff" d="M1076.21,-178.04C1136.25,-174.62 1250.18,-164.25 1274.96,-134.25 1280.83,-127.14 1278.83,-121.87 1274.96,-113.5 1258.54,-78.09 1243.96,-71.81 1207.96,-56.75 1127.5,-23.1 869.41,-14.36 756.13,-12.13"/>
<polygon fill="#63b8ff" stroke="#63b8ff" points="756.23,-8.63 746.17,-11.94 756.1,-15.63 756.23,-8.63"/>
</a>
</g>
</g>
<!-- Node29&#45;&gt;Node10 -->
<g id="edge55_Node000029_Node000010" class="edge">
<title>Node29&#45;&gt;Node10</title>
<g id="a_edge55_Node000029_Node000010"><a xlink:title=" ">
<path fill="none" stroke="#63b8ff" d="M1047.14,-170.12C1063.07,-151.61 1098.49,-110.47 1119.15,-86.48"/>
<polygon fill="#63b8ff" stroke="#63b8ff" points="1121.66,-88.93 1125.53,-79.07 1116.35,-84.37 1121.66,-88.93"/>
</a>
</g>
</g>
<!-- Node29&#45;&gt;Node15 -->
<g id="edge58_Node000029_Node000015" class="edge">
<title>Node29&#45;&gt;Node15</title>
<g id="a_edge58_Node000029_Node000015"><a xlink:title=" ">
<path fill="none" stroke="#63b8ff" d="M1014.1,-169.84C992.07,-161.16 959.64,-148.38 934.97,-138.67"/>
<polygon fill="#63b8ff" stroke="#63b8ff" points="936.59,-135.54 926,-135.13 934.02,-142.05 936.59,-135.54"/>
</a>
</g>
</g>
<!-- Node29&#45;&gt;Node16 -->
<g id="edge54_Node000029_Node000016" class="edge">
<title>Node29&#45;&gt;Node16</title>
<g id="a_edge54_Node000029_Node000016"><a xlink:title=" ">
<path fill="none" stroke="#63b8ff" d="M1031.03,-170.12C1015.59,-151.61 981.28,-110.47 961.27,-86.48"/>
<polygon fill="#63b8ff" stroke="#63b8ff" points="964.19,-84.53 955.1,-79.09 958.82,-89.01 964.19,-84.53"/>
</a>
</g>
</g>
<!-- Node29&#45;&gt;Node17 -->
<g id="edge56_Node000029_Node000017" class="edge">
<title>Node29&#45;&gt;Node17</title>
<g id="a_edge56_Node000029_Node000017"><a xlink:title=" ">
<path fill="none" stroke="#63b8ff" d="M1038.7,-170.12C1038.22,-152.35 1037.18,-113.72 1036.53,-89.43"/>
<polygon fill="#63b8ff" stroke="#63b8ff" points="1040.03,-89.34 1036.26,-79.44 1033.03,-89.53 1040.03,-89.34"/>
</a>
</g>
</g>
</g>
</svg>

<g id="navigator" transform="translate(0 0)" fill="#404254">
  <rect fill="#f2f5e9" fill-opacity="0.5" stroke="#606060" stroke-width=".5" x="0" y="0" width="60" height="60"/>
  <use id="zoomplus" xlink:href="#zoomPlus" x="17" y="9" onmousedown="handleZoom(evt,'in')"/>
  <use id="zoomminus" xlink:href="#zoomMin" x="42" y="9" onmousedown="handleZoom(evt,'out')"/>
  <use id="reset" xlink:href="#resetDef" x="30" y="36" onmousedown="handleReset()"/>
   <use id="arrowup" xlink:href="#arrowUp" x="0" y="0" onmousedown="handlePan(0,-1)"/>
  <use id="arrowright" xlink:href="#arrowRight" x="0" y="0" onmousedown="handlePan(1,0)"/>
  <use id="arrowdown" xlink:href="#arrowDown" x="0" y="0" onmousedown="handlePan(0,1)"/>
  <use id="arrowleft" xlink:href="#arrowLeft" x="0" y="0" onmousedown="handlePan(-1,0)"/>
</g>
<svg viewBox="0 0 15 15" width="100%" height="30px" preserveAspectRatio="xMaxYMin meet">
 <g id="arrow_out" transform="scale(0.3 0.3)">
  <a xlink:href="motor__homing_8c__incl_org.svg" target="_base">
   <rect id="button" ry="5" rx="5" y="6" x="6" height="38" width="38"
        fill="#f2f5e9" fill-opacity="0.5" stroke="#606060" stroke-width="1.0"/>
   <path id="arrow"
     d="M 11.500037,31.436501 C 11.940474,20.09759 22.043105,11.32322 32.158766,21.979434 L 37.068811,17.246167 C 37.068811,17.246167 37.088388,32 37.088388,32 L 22.160133,31.978069 C 22.160133,31.978069 26.997745,27.140456 26.997745,27.140456 C 18.528582,18.264221 13.291696,25.230495 11.500037,31.436501 z"
     style="fill:#404040;"/>
  </a>
 </g>
</svg>

<style type='text/css'>
<![CDATA[
[data-mouse-over-selected='false'] { opacity: 0.7; }
[data-mouse-over-selected='true']  { opacity: 1.0; }
]]>
</style>
<script type="application/ecmascript"><![CDATA[
document.addEventListener('DOMContentLoaded', (event) => {
  highlightEdges();
  highlightAdjacentNodes();
});
]]></script>
</svg>
