<?xml version="1.0" encoding="UTF-8" standalone="no"?>
<!DOCTYPE svg PUBLIC "-//W3C//DTD SVG 1.1//EN"
 "http://www.w3.org/Graphics/SVG/1.1/DTD/svg11.dtd">
<!-- Generated by graphviz version 14.1.5 (0)
 -->
<!-- Title: source/motion/motor/motor_tmc.c Pages: 1 -->
<!--zoomable 439 -->

<svg id="main" version="1.1" xmlns="http://www.w3.org/2000/svg" xmlns:xlink="http://www.w3.org/1999/xlink" xml:space="preserve" onload="init(evt)">

<style type="text/css"><![CDATA[
.node, .edge {opacity: 0.7;}
.node.selected, .edge.selected {opacity: 1;}
.edge:hover path { stroke: red; }
.edge:hover polygon { stroke: red; fill: red; }
]]></style>

<defs>
  <circle id="rim" cx="0" cy="0" r="7"/>
  <circle id="rim2" cx="0" cy="0" r="3.5"/>
  <g id="zoomPlus">
    <use xlink:href="#rim" fill="#404040"><set attributeName="fill" to="#808080" begin="zoomplus.mouseover" end="zoomplus.mouseout"/></use>
    <path d="M-4,0h8M0,-4v8" fill="none" stroke="white" stroke-width="1.5" pointer-events="none"/>
  </g>
  <g id="zoomMin">
    <use xlink:href="#rim" fill="#404040"><set attributeName="fill" to="#808080" begin="zoomminus.mouseover" end="zoomminus.mouseout"/></use>
    <path d="M-4,0h8" fill="none" stroke="white" stroke-width="1.5" pointer-events="none"/>
  </g>
  <g id="arrowUp" transform="translate(30 24)">
    <use xlink:href="#rim"/>
    <path pointer-events="none" fill="none" stroke="white" stroke-width="1.5" d="M0,-3.0v7 M-2.5,-0.5L0,-3.0L2.5,-0.5"/>
  </g>
  <g id="arrowRight" transform="rotate(90) translate(36 -43)">
    <use xlink:href="#rim"/>
    <path pointer-events="none" fill="none" stroke="white" stroke-width="1.5" d="M0,-3.0v7 M-2.5,-0.5L0,-3.0L2.5,-0.5"/>
  </g>
  <g id="arrowDown" transform="rotate(180) translate(-30 -48)">
    <use xlink:href="#rim"/>
    <path pointer-events="none" fill="none" stroke="white" stroke-width="1.5" d="M0,-3.0v7 M-2.5,-0.5L0,-3.0L2.5,-0.5"/>
  </g>
  <g id="arrowLeft" transform="rotate(270) translate(-36 17)">
    <use xlink:href="#rim"/>
    <path pointer-events="none" fill="none" stroke="white" stroke-width="1.5" d="M0,-3.0v7 M-2.5,-0.5L0,-3.0L2.5,-0.5"/>
  </g>
  <g id="resetDef">
    <use xlink:href="#rim2" fill="#404040"><set attributeName="fill" to="#808080" begin="reset.mouseover" end="reset.mouseout"/></use>
  </g>
</defs>
<script type="application/ecmascript">
var viewWidth = 1268;
var viewHeight = 439;
var sectionId = 'dynsection-0';
</script>
<script type="application/ecmascript" xlink:href="svg.min.js"/>
<svg id="graph" class="graph">
<g id="viewport">
<title>source/motion/motor/motor_tmc.c</title>
<!-- Node1 -->
<g id="Node000001" class="node">
<title>Node1</title>
<g id="a_Node000001"><a xlink:title=" ">
<polygon fill="#999999" stroke="#666666" points="752.02,-430.75 634.02,-430.75 634.02,-397.25 752.02,-397.25 752.02,-430.75"/>
<text xml:space="preserve" text-anchor="start" x="642.02" y="-417.25" font-family="Helvetica,sans-Serif" font-size="10.00">source/motion/motor</text>
<text xml:space="preserve" text-anchor="middle" x="693.02" y="-404.5" font-family="Helvetica,sans-Serif" font-size="10.00">/motor_tmc.c</text>
</a>
</g>
</g>
<!-- Node2 -->
<g id="Node000002" class="node">
<title>Node2</title>
<g id="a_Node000002"><a xlink:href="motor__tmc_8h.html" target="_top" xlink:title=" ">
<polygon fill="white" stroke="#666666" points="364.14,-361.25 285.89,-361.25 285.89,-340.5 364.14,-340.5 364.14,-361.25"/>
<text xml:space="preserve" text-anchor="middle" x="325.02" y="-347.75" font-family="Helvetica,sans-Serif" font-size="10.00">motor_tmc.h</text>
</a>
</g>
</g>
<!-- Node1&#45;&gt;Node2 -->
<g id="edge1_Node000001_Node000002" class="edge">
<title>Node1&#45;&gt;Node2</title>
<g id="a_edge1_Node000001_Node000002"><a xlink:title=" ">
<path fill="none" stroke="#63b8ff" d="M633.89,-403.18C562.35,-391.3 443.12,-371.49 375.63,-360.28"/>
<polygon fill="#63b8ff" stroke="#63b8ff" points="376.39,-356.86 365.95,-358.67 375.24,-363.77 376.39,-356.86"/>
</a>
</g>
</g>
<!-- Node22 -->
<g id="Node000022" class="node">
<title>Node22</title>
<g id="a_Node000022"><a xlink:href="tmc2209__core_8h.html" target="_top" xlink:title=" ">
<polygon fill="white" stroke="#666666" points="310.02,-191 216.02,-191 216.02,-170.25 310.02,-170.25 310.02,-191"/>
<text xml:space="preserve" text-anchor="middle" x="263.02" y="-177.5" font-family="Helvetica,sans-Serif" font-size="10.00">tmc2209_core.h</text>
</a>
</g>
</g>
<!-- Node1&#45;&gt;Node22 -->
<g id="edge61_Node000001_Node000022" class="edge">
<title>Node1&#45;&gt;Node22</title>
<g id="a_edge61_Node000001_Node000022"><a xlink:title=" ">
<path fill="none" stroke="#63b8ff" d="M633.84,-409.71C524.88,-403.06 301.37,-386.49 277.02,-361.25 235.65,-318.37 248.09,-239.86 257.17,-202.48"/>
<polygon fill="#63b8ff" stroke="#63b8ff" points="260.52,-203.51 259.66,-192.95 253.74,-201.75 260.52,-203.51"/>
</a>
</g>
</g>
<!-- Node26 -->
<g id="Node000026" class="node">
<title>Node26</title>
<g id="a_Node000026"><a xlink:href="motor__motion_8h.html" target="_top" xlink:title=" ">
<polygon fill="white" stroke="#666666" points="486.02,-361.25 392.02,-361.25 392.02,-340.5 486.02,-340.5 486.02,-361.25"/>
<text xml:space="preserve" text-anchor="middle" x="439.02" y="-347.75" font-family="Helvetica,sans-Serif" font-size="10.00">motor_motion.h</text>
</a>
</g>
</g>
<!-- Node1&#45;&gt;Node26 -->
<g id="edge48_Node000001_Node000026" class="edge">
<title>Node1&#45;&gt;Node26</title>
<g id="a_edge48_Node000001_Node000026"><a xlink:title=" ">
<path fill="none" stroke="#63b8ff" d="M633.79,-398.75C590.42,-388.31 532.13,-374.28 490.65,-364.3"/>
<polygon fill="#63b8ff" stroke="#63b8ff" points="491.7,-360.95 481.16,-362.02 490.06,-367.76 491.7,-360.95"/>
</a>
</g>
</g>
<!-- Node27 -->
<g id="Node000027" class="node">
<title>Node27</title>
<g id="a_Node000027"><a xlink:href="log_8h.html" target="_top" xlink:title=" ">
<polygon fill="white" stroke="#666666" points="1260.02,-134.25 1220.02,-134.25 1220.02,-113.5 1260.02,-113.5 1260.02,-134.25"/>
<text xml:space="preserve" text-anchor="middle" x="1240.02" y="-120.75" font-family="Helvetica,sans-Serif" font-size="10.00">log.h</text>
</a>
</g>
</g>
<!-- Node1&#45;&gt;Node27 -->
<g id="edge51_Node000001_Node000027" class="edge">
<title>Node1&#45;&gt;Node27</title>
<g id="a_edge51_Node000001_Node000027"><a xlink:title=" ">
<path fill="none" stroke="#63b8ff" d="M752.48,-411.81C887.78,-407.48 1207.02,-387.48 1207.02,-295.12 1207.02,-295.12 1207.02,-295.12 1207.02,-236.38 1207.02,-203.35 1220.5,-167 1230.22,-145.06"/>
<polygon fill="#63b8ff" stroke="#63b8ff" points="1233.35,-146.65 1234.37,-136.1 1226.99,-143.71 1233.35,-146.65"/>
</a>
</g>
</g>
<!-- Node28 -->
<g id="Node000028" class="node">
<title>Node28</title>
<g id="a_Node000028"><a xlink:title=" ">
<polygon fill="#e0e0e0" stroke="#999999" points="1037.52,-361.25 988.52,-361.25 988.52,-340.5 1037.52,-340.5 1037.52,-361.25"/>
<text xml:space="preserve" text-anchor="middle" x="1013.02" y="-347.75" font-family="Helvetica,sans-Serif" font-size="10.00">stdio.h</text>
</a>
</g>
</g>
<!-- Node1&#45;&gt;Node28 -->
<g id="edge54_Node000001_Node000028" class="edge">
<title>Node1&#45;&gt;Node28</title>
<g id="a_edge54_Node000001_Node000028"><a xlink:title=" ">
<path fill="none" stroke="#63b8ff" d="M752.41,-403.02C809.41,-393.21 897.83,-377.41 974.02,-361.25 975.03,-361.04 976.06,-360.81 977.1,-360.59"/>
<polygon fill="#63b8ff" stroke="#63b8ff" points="977.86,-364 986.83,-358.36 976.3,-357.18 977.86,-364"/>
</a>
</g>
</g>
<!-- Node29 -->
<g id="Node000029" class="node">
<title>Node29</title>
<g id="a_Node000029"><a xlink:href="sync__wait_8h.html" target="_top" xlink:title=" ">
<polygon fill="white" stroke="#666666" points="1061.89,-191 988.14,-191 988.14,-170.25 1061.89,-170.25 1061.89,-191"/>
<text xml:space="preserve" text-anchor="middle" x="1025.02" y="-177.5" font-family="Helvetica,sans-Serif" font-size="10.00">sync_wait.h</text>
</a>
</g>
</g>
<!-- Node1&#45;&gt;Node29 -->
<g id="edge55_Node000001_Node000029" class="edge">
<title>Node1&#45;&gt;Node29</title>
<g id="a_edge55_Node000001_Node000029"><a xlink:title=" ">
<path fill="none" stroke="#63b8ff" d="M716.1,-396.91C776.83,-354.59 940.6,-240.46 1001.65,-197.91"/>
<polygon fill="#63b8ff" stroke="#63b8ff" points="1003.41,-200.95 1009.62,-192.36 999.41,-195.21 1003.41,-200.95"/>
</a>
</g>
</g>
<!-- Node3 -->
<g id="Node000003" class="node">
<title>Node3</title>
<g id="a_Node000003"><a xlink:href="motor__internal_8h.html" target="_top" xlink:title=" ">
<polygon fill="white" stroke="#666666" points="487.52,-304.5 390.52,-304.5 390.52,-283.75 487.52,-283.75 487.52,-304.5"/>
<text xml:space="preserve" text-anchor="middle" x="439.02" y="-291" font-family="Helvetica,sans-Serif" font-size="10.00">motor_internal.h</text>
</a>
</g>
</g>
<!-- Node2&#45;&gt;Node3 -->
<g id="edge2_Node000002_Node000003" class="edge">
<title>Node2&#45;&gt;Node3</title>
<g id="a_edge2_Node000002_Node000003"><a xlink:title=" ">
<path fill="none" stroke="#63b8ff" d="M345.4,-340.09C362.99,-331.64 388.65,-319.32 408.65,-309.71"/>
<polygon fill="#63b8ff" stroke="#63b8ff" points="409.95,-312.97 417.45,-305.48 406.92,-306.66 409.95,-312.97"/>
</a>
</g>
</g>
<!-- Node4 -->
<g id="Node000004" class="node">
<title>Node4</title>
<g id="a_Node000004"><a xlink:title=" ">
<polygon fill="#e0e0e0" stroke="#999999" points="234.39,-77.5 181.64,-77.5 181.64,-56.75 234.39,-56.75 234.39,-77.5"/>
<text xml:space="preserve" text-anchor="middle" x="208.02" y="-64" font-family="Helvetica,sans-Serif" font-size="10.00">stdint.h</text>
</a>
</g>
</g>
<!-- Node2&#45;&gt;Node4 -->
<g id="edge46_Node000002_Node000004" class="edge">
<title>Node2&#45;&gt;Node4</title>
<g id="a_edge46_Node000002_Node000004"><a xlink:title=" ">
<path fill="none" stroke="#63b8ff" d="M314.02,-340.11C289.08,-317.11 228.7,-256.57 207.02,-191 195.67,-156.68 199.78,-113.95 203.86,-88.99"/>
<polygon fill="#63b8ff" stroke="#63b8ff" points="207.3,-89.65 205.64,-79.18 200.41,-88.4 207.3,-89.65"/>
</a>
</g>
</g>
<!-- Node5 -->
<g id="Node000005" class="node">
<title>Node5</title>
<g id="a_Node000005"><a xlink:title=" ">
<polygon fill="#e0e0e0" stroke="#999999" points="337.52,-247.75 276.52,-247.75 276.52,-227 337.52,-227 337.52,-247.75"/>
<text xml:space="preserve" text-anchor="middle" x="307.02" y="-234.25" font-family="Helvetica,sans-Serif" font-size="10.00">stdbool.h</text>
</a>
</g>
</g>
<!-- Node2&#45;&gt;Node5 -->
<g id="edge47_Node000002_Node000005" class="edge">
<title>Node2&#45;&gt;Node5</title>
<g id="a_edge47_Node000002_Node000005"><a xlink:title=" ">
<path fill="none" stroke="#63b8ff" d="M323.48,-340.37C320.6,-322.52 314.32,-283.61 310.4,-259.34"/>
<polygon fill="#63b8ff" stroke="#63b8ff" points="313.89,-258.98 308.84,-249.67 306.98,-260.1 313.89,-258.98"/>
</a>
</g>
</g>
<!-- Node3&#45;&gt;Node4 -->
<g id="edge3_Node000003_Node000004" class="edge">
<title>Node3&#45;&gt;Node4</title>
<g id="a_edge3_Node000003_Node000004"><a xlink:title=" ">
<path fill="none" stroke="#63b8ff" d="M438.16,-283.32C436.56,-269.63 432.09,-244.5 420.02,-227 406.9,-207.97 283.64,-120.85 231.32,-84.32"/>
<polygon fill="#63b8ff" stroke="#63b8ff" points="233.58,-81.63 223.38,-78.78 229.58,-87.37 233.58,-81.63"/>
</a>
</g>
</g>
<!-- Node3&#45;&gt;Node5 -->
<g id="edge4_Node000003_Node000005" class="edge">
<title>Node3&#45;&gt;Node5</title>
<g id="a_edge4_Node000003_Node000005"><a xlink:title=" ">
<path fill="none" stroke="#63b8ff" d="M415.42,-283.34C394.68,-274.73 364.25,-262.11 340.9,-252.43"/>
<polygon fill="#63b8ff" stroke="#63b8ff" points="342.39,-249.26 331.81,-248.66 339.71,-255.72 342.39,-249.26"/>
</a>
</g>
</g>
<!-- Node6 -->
<g id="Node000006" class="node">
<title>Node6</title>
<g id="a_Node000006"><a xlink:href="motor__core_8h.html" target="_top" xlink:title=" ">
<polygon fill="white" stroke="#666666" points="551.27,-247.75 470.77,-247.75 470.77,-227 551.27,-227 551.27,-247.75"/>
<text xml:space="preserve" text-anchor="middle" x="511.02" y="-234.25" font-family="Helvetica,sans-Serif" font-size="10.00">motor_core.h</text>
</a>
</g>
</g>
<!-- Node3&#45;&gt;Node6 -->
<g id="edge5_Node000003_Node000006" class="edge">
<title>Node3&#45;&gt;Node6</title>
<g id="a_edge5_Node000003_Node000006"><a xlink:title=" ">
<path fill="none" stroke="#63b8ff" d="M451.89,-283.34C462.23,-275.47 476.99,-264.25 489.17,-254.99"/>
<polygon fill="#63b8ff" stroke="#63b8ff" points="491.21,-257.83 497.05,-248.99 486.98,-252.26 491.21,-257.83"/>
</a>
</g>
</g>
<!-- Node12 -->
<g id="Node000012" class="node">
<title>Node12</title>
<g id="a_Node000012"><a xlink:title=" ">
<polygon fill="#e0e0e0" stroke="#999999" points="1166.77,-77.5 1095.27,-77.5 1095.27,-56.75 1166.77,-56.75 1166.77,-77.5"/>
<text xml:space="preserve" text-anchor="middle" x="1131.02" y="-64" font-family="Helvetica,sans-Serif" font-size="10.00">FreeRTOS.h</text>
</a>
</g>
</g>
<!-- Node3&#45;&gt;Node12 -->
<g id="edge43_Node000003_Node000012" class="edge">
<title>Node3&#45;&gt;Node12</title>
<g id="a_edge43_Node000003_Node000012"><a xlink:title=" ">
<path fill="none" stroke="#63b8ff" d="M487.55,-290.97C618.99,-284.25 978.19,-259.88 1071.02,-191 1104.75,-165.97 1120.51,-116.86 1127.03,-88.9"/>
<polygon fill="#63b8ff" stroke="#63b8ff" points="1130.44,-89.69 1129.1,-79.18 1123.6,-88.24 1130.44,-89.69"/>
</a>
</g>
</g>
<!-- Node17 -->
<g id="Node000017" class="node">
<title>Node17</title>
<g id="a_Node000017"><a xlink:href="cmd__handle_8h.html" target="_top" xlink:title=" ">
<polygon fill="white" stroke="#666666" points="996.14,-134.25 911.89,-134.25 911.89,-113.5 996.14,-113.5 996.14,-134.25"/>
<text xml:space="preserve" text-anchor="middle" x="954.02" y="-120.75" font-family="Helvetica,sans-Serif" font-size="10.00">cmd_handle.h</text>
</a>
</g>
</g>
<!-- Node3&#45;&gt;Node17 -->
<g id="edge45_Node000003_Node000017" class="edge">
<title>Node3&#45;&gt;Node17</title>
<g id="a_edge45_Node000003_Node000017"><a xlink:title=" ">
<path fill="none" stroke="#63b8ff" d="M469.55,-283.35C525.98,-265.26 650.37,-225.29 755.02,-191 810.2,-172.92 873.87,-151.7 914.03,-138.27"/>
<polygon fill="#63b8ff" stroke="#63b8ff" points="914.9,-141.67 923.27,-135.18 912.68,-135.03 914.9,-141.67"/>
</a>
</g>
</g>
<!-- Node25 -->
<g id="Node000025" class="node">
<title>Node25</title>
<g id="a_Node000025"><a xlink:title=" ">
<polygon fill="#e0e0e0" stroke="#999999" points="410.52,-247.75 355.52,-247.75 355.52,-227 410.52,-227 410.52,-247.75"/>
<text xml:space="preserve" text-anchor="middle" x="383.02" y="-234.25" font-family="Helvetica,sans-Serif" font-size="10.00">queue.h</text>
</a>
</g>
</g>
<!-- Node3&#45;&gt;Node25 -->
<g id="edge44_Node000003_Node000025" class="edge">
<title>Node3&#45;&gt;Node25</title>
<g id="a_edge44_Node000003_Node000025"><a xlink:title=" ">
<path fill="none" stroke="#63b8ff" d="M429.01,-283.34C421.28,-275.78 410.39,-265.14 401.15,-256.1"/>
<polygon fill="#63b8ff" stroke="#63b8ff" points="403.62,-253.62 394.03,-249.14 398.73,-258.63 403.62,-253.62"/>
</a>
</g>
</g>
<!-- Node7 -->
<g id="Node000007" class="node">
<title>Node7</title>
<g id="a_Node000007"><a xlink:href="pca9555a_8h.html" target="_top" xlink:title=" ">
<polygon fill="white" stroke="#666666" points="406.02,-77.5 252.02,-77.5 252.02,-56.75 406.02,-56.75 406.02,-77.5"/>
<text xml:space="preserve" text-anchor="middle" x="329.02" y="-64" font-family="Helvetica,sans-Serif" font-size="10.00">driver/pca9555a/pca9555a.h</text>
</a>
</g>
</g>
<!-- Node6&#45;&gt;Node7 -->
<g id="edge6_Node000006_Node000007" class="edge">
<title>Node6&#45;&gt;Node7</title>
<g id="a_edge6_Node000006_Node000007"><a xlink:title=" ">
<path fill="none" stroke="#63b8ff" d="M470.5,-228C446.32,-221.32 416.3,-209.87 395.02,-191 390.73,-187.19 356.6,-121.65 339.18,-87.88"/>
<polygon fill="#63b8ff" stroke="#63b8ff" points="342.36,-86.42 334.67,-79.13 336.14,-89.63 342.36,-86.42"/>
</a>
</g>
</g>
<!-- Node10 -->
<g id="Node000010" class="node">
<title>Node10</title>
<g id="a_Node000010"><a xlink:title=" ">
<polygon fill="#e0e0e0" stroke="#999999" points="492.39,-191 403.64,-191 403.64,-170.25 492.39,-170.25 492.39,-191"/>
<text xml:space="preserve" text-anchor="middle" x="448.02" y="-177.5" font-family="Helvetica,sans-Serif" font-size="10.00">MK22F51212.h</text>
</a>
</g>
</g>
<!-- Node6&#45;&gt;Node10 -->
<g id="edge9_Node000006_Node000010" class="edge">
<title>Node6&#45;&gt;Node10</title>
<g id="a_edge9_Node000006_Node000010"><a xlink:title=" ">
<path fill="none" stroke="#63b8ff" d="M499.76,-226.59C490.89,-218.88 478.31,-207.95 467.77,-198.79"/>
<polygon fill="#63b8ff" stroke="#63b8ff" points="470.17,-196.24 460.33,-192.32 465.58,-201.52 470.17,-196.24"/>
</a>
</g>
</g>
<!-- Node11 -->
<g id="Node000011" class="node">
<title>Node11</title>
<g id="a_Node000011"><a xlink:href="step__core_8h.html" target="_top" xlink:title=" ">
<polygon fill="white" stroke="#666666" points="695.14,-191 622.89,-191 622.89,-170.25 695.14,-170.25 695.14,-191"/>
<text xml:space="preserve" text-anchor="middle" x="659.02" y="-177.5" font-family="Helvetica,sans-Serif" font-size="10.00">step_core.h</text>
</a>
</g>
</g>
<!-- Node6&#45;&gt;Node11 -->
<g id="edge10_Node000006_Node000011" class="edge">
<title>Node6&#45;&gt;Node11</title>
<g id="a_edge10_Node000006_Node000011"><a xlink:title=" ">
<path fill="none" stroke="#63b8ff" d="M537.48,-226.59C561.05,-217.87 595.78,-205.02 622.09,-195.29"/>
<polygon fill="#63b8ff" stroke="#63b8ff" points="623.2,-198.61 631.37,-191.85 620.78,-192.04 623.2,-198.61"/>
</a>
</g>
</g>
<!-- Node14 -->
<g id="Node000014" class="node">
<title>Node14</title>
<g id="a_Node000014"><a xlink:title=" ">
<polygon fill="#e0e0e0" stroke="#999999" points="780.39,-77.5 721.64,-77.5 721.64,-56.75 780.39,-56.75 780.39,-77.5"/>
<text xml:space="preserve" text-anchor="middle" x="751.02" y="-64" font-family="Helvetica,sans-Serif" font-size="10.00">fsl_ftm.h</text>
</a>
</g>
</g>
<!-- Node6&#45;&gt;Node14 -->
<g id="edge40_Node000006_Node000014" class="edge">
<title>Node6&#45;&gt;Node14</title>
<g id="a_edge40_Node000006_Node000014"><a xlink:title=" ">
<path fill="none" stroke="#63b8ff" d="M551.74,-236.83C594.23,-235.22 660.61,-226.54 704.02,-191 735.13,-165.53 745.68,-116.99 749.23,-89.14"/>
<polygon fill="#63b8ff" stroke="#63b8ff" points="752.68,-89.79 750.26,-79.47 745.72,-89.05 752.68,-89.79"/>
</a>
</g>
</g>
<!-- Node15 -->
<g id="Node000015" class="node">
<title>Node15</title>
<g id="a_Node000015"><a xlink:title=" ">
<polygon fill="#e0e0e0" stroke="#999999" points="487.64,-77.5 424.39,-77.5 424.39,-56.75 487.64,-56.75 487.64,-77.5"/>
<text xml:space="preserve" text-anchor="middle" x="456.02" y="-64" font-family="Helvetica,sans-Serif" font-size="10.00">fsl_gpio.h</text>
</a>
</g>
</g>
<!-- Node6&#45;&gt;Node15 -->
<g id="edge41_Node000006_Node000015" class="edge">
<title>Node6&#45;&gt;Node15</title>
<g id="a_edge41_Node000006_Node000015"><a xlink:title=" ">
<path fill="none" stroke="#63b8ff" d="M511.16,-226.95C511.02,-213.71 509.49,-189.1 501.02,-170.25 492.48,-151.25 480.25,-152.92 471.02,-134.25 463.99,-120.01 460.2,-102.42 458.19,-88.96"/>
<polygon fill="#63b8ff" stroke="#63b8ff" points="461.67,-88.56 456.95,-79.07 454.72,-89.43 461.67,-88.56"/>
</a>
</g>
</g>
<!-- Node16 -->
<g id="Node000016" class="node">
<title>Node16</title>
<g id="a_Node000016"><a xlink:title=" ">
<polygon fill="#e0e0e0" stroke="#999999" points="859.89,-77.5 798.14,-77.5 798.14,-56.75 859.89,-56.75 859.89,-77.5"/>
<text xml:space="preserve" text-anchor="middle" x="829.02" y="-64" font-family="Helvetica,sans-Serif" font-size="10.00">fsl_port.h</text>
</a>
</g>
</g>
<!-- Node6&#45;&gt;Node16 -->
<g id="edge42_Node000006_Node000016" class="edge">
<title>Node6&#45;&gt;Node16</title>
<g id="a_edge42_Node000006_Node000016"><a xlink:title=" ">
<path fill="none" stroke="#63b8ff" d="M551.73,-235.69C597.44,-233.23 672.38,-223.94 727.02,-191 769.59,-165.34 802.56,-115.35 818.5,-87.7"/>
<polygon fill="#63b8ff" stroke="#63b8ff" points="821.55,-89.42 823.36,-78.98 815.43,-86.01 821.55,-89.42"/>
</a>
</g>
</g>
<!-- Node6&#45;&gt;Node22 -->
<g id="edge32_Node000006_Node000022" class="edge">
<title>Node6&#45;&gt;Node22</title>
<g id="a_edge32_Node000006_Node000022"><a xlink:title=" ">
<path fill="none" stroke="#63b8ff" d="M470.34,-227.4C428.96,-218.26 364.53,-204.03 318.48,-193.87"/>
<polygon fill="#63b8ff" stroke="#63b8ff" points="319.48,-190.51 308.97,-191.77 317.98,-197.34 319.48,-190.51"/>
</a>
</g>
</g>
<!-- Node8 -->
<g id="Node000008" class="node">
<title>Node8</title>
<g id="a_Node000008"><a xlink:title=" ">
<polygon fill="#e0e0e0" stroke="#999999" points="736.52,-20.75 651.52,-20.75 651.52,0 736.52,0 736.52,-20.75"/>
<text xml:space="preserve" text-anchor="middle" x="694.02" y="-7.25" font-family="Helvetica,sans-Serif" font-size="10.00">fsl_common.h</text>
</a>
</g>
</g>
<!-- Node7&#45;&gt;Node8 -->
<g id="edge7_Node000007_Node000008" class="edge">
<title>Node7&#45;&gt;Node8</title>
<g id="a_edge7_Node000007_Node000008"><a xlink:title=" ">
<path fill="none" stroke="#63b8ff" d="M394.7,-56.27C464.79,-45.76 574.54,-29.3 639.86,-19.5"/>
<polygon fill="#63b8ff" stroke="#63b8ff" points="640.26,-22.98 649.63,-18.03 639.23,-16.06 640.26,-22.98"/>
</a>
</g>
</g>
<!-- Node9 -->
<g id="Node000009" class="node">
<title>Node9</title>
<g id="a_Node000009"><a xlink:title=" ">
<polygon fill="#e0e0e0" stroke="#999999" points="200.89,-20.75 121.14,-20.75 121.14,0 200.89,0 200.89,-20.75"/>
<text xml:space="preserve" text-anchor="middle" x="161.02" y="-7.25" font-family="Helvetica,sans-Serif" font-size="10.00">peripherals.h</text>
</a>
</g>
</g>
<!-- Node7&#45;&gt;Node9 -->
<g id="edge8_Node000007_Node000009" class="edge">
<title>Node7&#45;&gt;Node9</title>
<g id="a_edge8_Node000007_Node000009"><a xlink:title=" ">
<path fill="none" stroke="#63b8ff" d="M298.98,-56.34C271.83,-47.49 231.64,-34.39 201.63,-24.61"/>
<polygon fill="#63b8ff" stroke="#63b8ff" points="203.11,-21.41 192.52,-21.64 200.94,-28.07 203.11,-21.41"/>
</a>
</g>
</g>
<!-- Node11&#45;&gt;Node7 -->
<g id="edge11_Node000011_Node000007" class="edge">
<title>Node11&#45;&gt;Node7</title>
<g id="a_edge11_Node000011_Node000007"><a xlink:title=" ">
<path fill="none" stroke="#63b8ff" d="M622.71,-173.09C584.39,-165.69 522.52,-152.26 471.02,-134.25 430.05,-119.93 384.97,-97.76 356.83,-83.1"/>
<polygon fill="#63b8ff" stroke="#63b8ff" points="358.73,-80.15 348.26,-78.58 355.47,-86.34 358.73,-80.15"/>
</a>
</g>
</g>
<!-- Node11&#45;&gt;Node8 -->
<g id="edge14_Node000011_Node000008" class="edge">
<title>Node11&#45;&gt;Node8</title>
<g id="a_edge14_Node000011_Node000008"><a xlink:title=" ">
<path fill="none" stroke="#63b8ff" d="M662.98,-170.05C666.6,-160.97 671.84,-146.89 675.02,-134.25 683.89,-98.95 689.32,-56.85 691.99,-32.22"/>
<polygon fill="#63b8ff" stroke="#63b8ff" points="695.44,-32.87 692.98,-22.56 688.48,-32.15 695.44,-32.87"/>
</a>
</g>
</g>
<!-- Node11&#45;&gt;Node12 -->
<g id="edge12_Node000011_Node000012" class="edge">
<title>Node11&#45;&gt;Node12</title>
<g id="a_edge12_Node000011_Node000012"><a xlink:title=" ">
<path fill="none" stroke="#63b8ff" d="M695.54,-179.03C759.65,-177.06 896.01,-168.79 1005.02,-134.25 1042.73,-122.3 1082.56,-99.43 1107.11,-83.97"/>
<polygon fill="#63b8ff" stroke="#63b8ff" points="1108.84,-87.02 1115.37,-78.68 1105.06,-81.13 1108.84,-87.02"/>
</a>
</g>
</g>
<!-- Node13 -->
<g id="Node000013" class="node">
<title>Node13</title>
<g id="a_Node000013"><a xlink:title=" ">
<polygon fill="#e0e0e0" stroke="#999999" points="526.02,-134.25 480.02,-134.25 480.02,-113.5 526.02,-113.5 526.02,-134.25"/>
<text xml:space="preserve" text-anchor="middle" x="503.02" y="-120.75" font-family="Helvetica,sans-Serif" font-size="10.00">task.h</text>
</a>
</g>
</g>
<!-- Node11&#45;&gt;Node13 -->
<g id="edge13_Node000011_Node000013" class="edge">
<title>Node11&#45;&gt;Node13</title>
<g id="a_edge13_Node000011_Node000013"><a xlink:title=" ">
<path fill="none" stroke="#63b8ff" d="M631.13,-169.84C604.67,-160.55 564.87,-146.58 536.66,-136.68"/>
<polygon fill="#63b8ff" stroke="#63b8ff" points="538.12,-133.49 527.53,-133.48 535.8,-140.09 538.12,-133.49"/>
</a>
</g>
</g>
<!-- Node11&#45;&gt;Node14 -->
<g id="edge15_Node000011_Node000014" class="edge">
<title>Node11&#45;&gt;Node14</title>
<g id="a_edge15_Node000011_Node000014"><a xlink:title=" ">
<path fill="none" stroke="#63b8ff" d="M671.09,-169.92C681.52,-161.2 696.66,-147.73 708.02,-134.25 720.41,-119.54 732.15,-101.07 740.22,-87.39"/>
<polygon fill="#63b8ff" stroke="#63b8ff" points="743.14,-89.33 745.1,-78.92 737.07,-85.84 743.14,-89.33"/>
</a>
</g>
</g>
<!-- Node11&#45;&gt;Node15 -->
<g id="edge16_Node000011_Node000015" class="edge">
<title>Node11&#45;&gt;Node15</title>
<g id="a_edge16_Node000011_Node000015"><a xlink:title=" ">
<path fill="none" stroke="#63b8ff" d="M640.15,-169.87C622.67,-160.78 595.98,-146.79 573.02,-134.25 541.94,-117.28 506.6,-97.19 482.96,-83.64"/>
<polygon fill="#63b8ff" stroke="#63b8ff" points="484.71,-80.61 474.3,-78.67 481.23,-86.68 484.71,-80.61"/>
</a>
</g>
</g>
<!-- Node11&#45;&gt;Node16 -->
<g id="edge17_Node000011_Node000016" class="edge">
<title>Node11&#45;&gt;Node16</title>
<g id="a_edge17_Node000011_Node000016"><a xlink:title=" ">
<path fill="none" stroke="#63b8ff" d="M674.59,-169.8C689.01,-160.67 711.04,-146.65 730.02,-134.25 755.8,-117.4 785.12,-97.76 805.11,-84.29"/>
<polygon fill="#63b8ff" stroke="#63b8ff" points="807.06,-87.19 813.4,-78.7 803.15,-81.39 807.06,-87.19"/>
</a>
</g>
</g>
<!-- Node11&#45;&gt;Node17 -->
<g id="edge18_Node000011_Node000017" class="edge">
<title>Node11&#45;&gt;Node17</title>
<g id="a_edge18_Node000011_Node000017"><a xlink:title=" ">
<path fill="none" stroke="#63b8ff" d="M695.49,-172.86C746.9,-163.32 841.03,-145.85 900.41,-134.82"/>
<polygon fill="#63b8ff" stroke="#63b8ff" points="900.76,-138.32 909.95,-133.05 899.48,-131.44 900.76,-138.32"/>
</a>
</g>
</g>
<!-- Node20 -->
<g id="Node000020" class="node">
<title>Node20</title>
<g id="a_Node000020"><a xlink:href="step__shared_8h.html" target="_top" xlink:title=" ">
<polygon fill="white" stroke="#666666" points="666.14,-134.25 581.89,-134.25 581.89,-113.5 666.14,-113.5 666.14,-134.25"/>
<text xml:space="preserve" text-anchor="middle" x="624.02" y="-120.75" font-family="Helvetica,sans-Serif" font-size="10.00">step_shared.h</text>
</a>
</g>
</g>
<!-- Node11&#45;&gt;Node20 -->
<g id="edge24_Node000011_Node000020" class="edge">
<title>Node11&#45;&gt;Node20</title>
<g id="a_edge24_Node000011_Node000020"><a xlink:title=" ">
<path fill="none" stroke="#63b8ff" d="M652.76,-169.84C648.18,-162.67 641.82,-152.73 636.25,-144.01"/>
<polygon fill="#63b8ff" stroke="#63b8ff" points="639.37,-142.39 631.04,-135.85 633.47,-146.16 639.37,-142.39"/>
</a>
</g>
</g>
<!-- Node17&#45;&gt;Node4 -->
<g id="edge19_Node000017_Node000004" class="edge">
<title>Node17&#45;&gt;Node4</title>
<g id="a_edge19_Node000017_Node000004"><a xlink:title=" ">
<path fill="none" stroke="#63b8ff" d="M911.47,-118.26C895.37,-116.61 876.86,-114.83 860.02,-113.5 589.93,-92.16 516.21,-120.47 246,-77.68"/>
<polygon fill="#63b8ff" stroke="#63b8ff" points="246.57,-74.22 236.15,-76.1 245.46,-81.14 246.57,-74.22"/>
</a>
</g>
</g>
<!-- Node17&#45;&gt;Node8 -->
<g id="edge22_Node000017_Node000008" class="edge">
<title>Node17&#45;&gt;Node8</title>
<g id="a_edge22_Node000017_Node000008"><a xlink:title=" ">
<path fill="none" stroke="#63b8ff" d="M954.86,-113.21C955.53,-98.75 954.47,-71.59 939.02,-56.75 912.37,-31.14 812.15,-19.51 748.44,-14.6"/>
<polygon fill="#63b8ff" stroke="#63b8ff" points="748.74,-11.11 738.51,-13.87 748.22,-18.09 748.74,-11.11"/>
</a>
</g>
</g>
<!-- Node17&#45;&gt;Node12 -->
<g id="edge20_Node000017_Node000012" class="edge">
<title>Node17&#45;&gt;Node12</title>
<g id="a_edge20_Node000017_Node000012"><a xlink:title=" ">
<path fill="none" stroke="#63b8ff" d="M985.66,-113.09C1014.39,-104.2 1056.99,-91.02 1088.65,-81.23"/>
<polygon fill="#63b8ff" stroke="#63b8ff" points="1089.39,-84.67 1097.91,-78.37 1087.32,-77.98 1089.39,-84.67"/>
</a>
</g>
</g>
<!-- Node18 -->
<g id="Node000018" class="node">
<title>Node18</title>
<g id="a_Node000018"><a xlink:title=" ">
<polygon fill="#e0e0e0" stroke="#999999" points="1077.52,-77.5 986.52,-77.5 986.52,-56.75 1077.52,-56.75 1077.52,-77.5"/>
<text xml:space="preserve" text-anchor="middle" x="1032.02" y="-64" font-family="Helvetica,sans-Serif" font-size="10.00">event_groups.h</text>
</a>
</g>
</g>
<!-- Node17&#45;&gt;Node18 -->
<g id="edge21_Node000017_Node000018" class="edge">
<title>Node17&#45;&gt;Node18</title>
<g id="a_edge21_Node000017_Node000018"><a xlink:title=" ">
<path fill="none" stroke="#63b8ff" d="M967.96,-113.09C979.39,-105.07 995.79,-93.56 1009.13,-84.19"/>
<polygon fill="#63b8ff" stroke="#63b8ff" points="1010.78,-87.31 1016.96,-78.7 1006.76,-81.58 1010.78,-87.31"/>
</a>
</g>
</g>
<!-- Node19 -->
<g id="Node000019" class="node">
<title>Node19</title>
<g id="a_Node000019"><a xlink:title=" ">
<polygon fill="#e0e0e0" stroke="#999999" points="930.02,-77.5 878.02,-77.5 878.02,-56.75 930.02,-56.75 930.02,-77.5"/>
<text xml:space="preserve" text-anchor="middle" x="904.02" y="-64" font-family="Helvetica,sans-Serif" font-size="10.00">stdlib.h</text>
</a>
</g>
</g>
<!-- Node17&#45;&gt;Node19 -->
<g id="edge23_Node000017_Node000019" class="edge">
<title>Node17&#45;&gt;Node19</title>
<g id="a_edge23_Node000017_Node000019"><a xlink:title=" ">
<path fill="none" stroke="#63b8ff" d="M945.08,-113.09C938.25,-105.61 928.66,-95.11 920.46,-86.13"/>
<polygon fill="#63b8ff" stroke="#63b8ff" points="923.23,-83.97 913.9,-78.95 918.06,-88.69 923.23,-83.97"/>
</a>
</g>
</g>
<!-- Node20&#45;&gt;Node4 -->
<g id="edge25_Node000020_Node000004" class="edge">
<title>Node20&#45;&gt;Node4</title>
<g id="a_edge25_Node000020_Node000004"><a xlink:title=" ">
<path fill="none" stroke="#63b8ff" d="M581.65,-118.18C495.83,-108.61 305.13,-87.11 245.79,-77.62"/>
<polygon fill="#63b8ff" stroke="#63b8ff" points="246.62,-74.22 236.17,-75.95 245.42,-81.11 246.62,-74.22"/>
</a>
</g>
</g>
<!-- Node20&#45;&gt;Node7 -->
<g id="edge26_Node000020_Node000007" class="edge">
<title>Node20&#45;&gt;Node7</title>
<g id="a_edge26_Node000020_Node000007"><a xlink:title=" ">
<path fill="none" stroke="#63b8ff" d="M581.44,-114.97C532.08,-105.81 450.2,-90.62 393.14,-80.02"/>
<polygon fill="#63b8ff" stroke="#63b8ff" points="394.03,-76.63 383.56,-78.25 392.75,-83.51 394.03,-76.63"/>
</a>
</g>
</g>
<!-- Node20&#45;&gt;Node8 -->
<g id="edge28_Node000020_Node000008" class="edge">
<title>Node20&#45;&gt;Node8</title>
<g id="a_edge28_Node000020_Node000008"><a xlink:title=" ">
<path fill="none" stroke="#63b8ff" d="M629.99,-113.37C641.45,-95.11 666.75,-54.81 681.89,-30.7"/>
<polygon fill="#63b8ff" stroke="#63b8ff" points="684.71,-32.79 687.06,-22.46 678.78,-29.07 684.71,-32.79"/>
</a>
</g>
</g>
<!-- Node20&#45;&gt;Node14 -->
<g id="edge29_Node000020_Node000014" class="edge">
<title>Node20&#45;&gt;Node14</title>
<g id="a_edge29_Node000020_Node000014"><a xlink:title=" ">
<path fill="none" stroke="#63b8ff" d="M646.72,-113.09C666.59,-104.52 695.69,-91.98 718.11,-82.31"/>
<polygon fill="#63b8ff" stroke="#63b8ff" points="719.32,-85.6 727.12,-78.43 716.55,-79.17 719.32,-85.6"/>
</a>
</g>
</g>
<!-- Node20&#45;&gt;Node15 -->
<g id="edge30_Node000020_Node000015" class="edge">
<title>Node20&#45;&gt;Node15</title>
<g id="a_edge30_Node000020_Node000015"><a xlink:title=" ">
<path fill="none" stroke="#63b8ff" d="M593.98,-113.09C566.83,-104.24 526.64,-91.14 496.63,-81.36"/>
<polygon fill="#63b8ff" stroke="#63b8ff" points="498.11,-78.16 487.52,-78.39 495.94,-84.82 498.11,-78.16"/>
</a>
</g>
</g>
<!-- Node20&#45;&gt;Node16 -->
<g id="edge31_Node000020_Node000016" class="edge">
<title>Node20&#45;&gt;Node16</title>
<g id="a_edge31_Node000020_Node000016"><a xlink:title=" ">
<path fill="none" stroke="#63b8ff" d="M660.67,-113.09C696.05,-103.64 749.59,-89.34 786.75,-79.41"/>
<polygon fill="#63b8ff" stroke="#63b8ff" points="787.5,-82.84 796.26,-76.88 785.69,-76.07 787.5,-82.84"/>
</a>
</g>
</g>
<!-- Node21 -->
<g id="Node000021" class="node">
<title>Node21</title>
<g id="a_Node000021"><a xlink:title=" ">
<polygon fill="#e0e0e0" stroke="#999999" points="628.27,-77.5 505.77,-77.5 505.77,-56.75 628.27,-56.75 628.27,-77.5"/>
<text xml:space="preserve" text-anchor="middle" x="567.02" y="-64" font-family="Helvetica,sans-Serif" font-size="10.00">fsl_device_registers.h</text>
</a>
</g>
</g>
<!-- Node20&#45;&gt;Node21 -->
<g id="edge27_Node000020_Node000021" class="edge">
<title>Node20&#45;&gt;Node21</title>
<g id="a_edge27_Node000020_Node000021"><a xlink:title=" ">
<path fill="none" stroke="#63b8ff" d="M613.83,-113.09C605.89,-105.46 594.65,-94.67 585.18,-85.57"/>
<polygon fill="#63b8ff" stroke="#63b8ff" points="587.85,-83.28 578.21,-78.88 583,-88.33 587.85,-83.28"/>
</a>
</g>
</g>
<!-- Node22&#45;&gt;Node4 -->
<g id="edge33_Node000022_Node000004" class="edge">
<title>Node22&#45;&gt;Node4</title>
<g id="a_edge33_Node000022_Node000004"><a xlink:title=" ">
<path fill="none" stroke="#63b8ff" d="M258.33,-170.12C249.4,-152.02 229.8,-112.28 217.87,-88.1"/>
<polygon fill="#63b8ff" stroke="#63b8ff" points="221.09,-86.7 213.52,-79.28 214.81,-89.8 221.09,-86.7"/>
</a>
</g>
</g>
<!-- Node22&#45;&gt;Node8 -->
<g id="edge37_Node000022_Node000008" class="edge">
<title>Node22&#45;&gt;Node8</title>
<g id="a_edge37_Node000022_Node000008"><a xlink:title=" ">
<path fill="none" stroke="#63b8ff" d="M215.66,-176.37C159.12,-171.39 69.58,-159.63 49.02,-134.25 27.34,-107.49 25.53,-81.95 49.02,-56.75 88.94,-13.93 492.06,-10.76 639.98,-11.06"/>
<polygon fill="#63b8ff" stroke="#63b8ff" points="639.9,-14.56 649.91,-11.09 639.92,-7.56 639.9,-14.56"/>
</a>
</g>
</g>
<!-- Node22&#45;&gt;Node9 -->
<g id="edge39_Node000022_Node000009" class="edge">
<title>Node22&#45;&gt;Node9</title>
<g id="a_edge39_Node000022_Node000009"><a xlink:title=" ">
<path fill="none" stroke="#63b8ff" d="M215.66,-177.89C151.19,-174.41 40.93,-164.15 16.02,-134.25 -6.03,-107.79 -4.38,-84.51 16.02,-56.75 37.33,-27.75 77.1,-16.78 109.61,-12.85"/>
<polygon fill="#63b8ff" stroke="#63b8ff" points="109.65,-16.36 119.26,-11.88 108.96,-9.4 109.65,-16.36"/>
</a>
</g>
</g>
<!-- Node22&#45;&gt;Node17 -->
<g id="edge38_Node000022_Node000017" class="edge">
<title>Node22&#45;&gt;Node17</title>
<g id="a_edge38_Node000022_Node000017"><a xlink:title=" ">
<path fill="none" stroke="#63b8ff" d="M310.51,-175.86C434.83,-166.01 769.19,-139.52 900.26,-129.13"/>
<polygon fill="#63b8ff" stroke="#63b8ff" points="900.36,-132.64 910.05,-128.36 899.81,-125.66 900.36,-132.64"/>
</a>
</g>
</g>
<!-- Node23 -->
<g id="Node000023" class="node">
<title>Node23</title>
<g id="a_Node000023"><a xlink:href="tmc2209__shared_8h.html" target="_top" xlink:title=" ">
<polygon fill="white" stroke="#666666" points="164.02,-134.25 58.02,-134.25 58.02,-113.5 164.02,-113.5 164.02,-134.25"/>
<text xml:space="preserve" text-anchor="middle" x="111.02" y="-120.75" font-family="Helvetica,sans-Serif" font-size="10.00">tmc2209_shared.h</text>
</a>
</g>
</g>
<!-- Node22&#45;&gt;Node23 -->
<g id="edge34_Node000022_Node000023" class="edge">
<title>Node22&#45;&gt;Node23</title>
<g id="a_edge34_Node000022_Node000023"><a xlink:title=" ">
<path fill="none" stroke="#63b8ff" d="M235.84,-169.84C211.6,-161.11 175.87,-148.23 148.84,-138.5"/>
<polygon fill="#63b8ff" stroke="#63b8ff" points="150.23,-135.28 139.64,-135.18 147.86,-141.87 150.23,-135.28"/>
</a>
</g>
</g>
<!-- Node23&#45;&gt;Node4 -->
<g id="edge35_Node000023_Node000004" class="edge">
<title>Node23&#45;&gt;Node4</title>
<g id="a_edge35_Node000023_Node000004"><a xlink:title=" ">
<path fill="none" stroke="#63b8ff" d="M128.36,-113.09C142.98,-104.83 164.16,-92.88 181,-83.38"/>
<polygon fill="#63b8ff" stroke="#63b8ff" points="182.52,-86.54 189.51,-78.57 179.08,-80.44 182.52,-86.54"/>
</a>
</g>
</g>
<!-- Node24 -->
<g id="Node000024" class="node">
<title>Node24</title>
<g id="a_Node000024"><a xlink:title=" ">
<polygon fill="#e0e0e0" stroke="#999999" points="163.64,-77.5 58.39,-77.5 58.39,-56.75 163.64,-56.75 163.64,-77.5"/>
<text xml:space="preserve" text-anchor="middle" x="111.02" y="-64" font-family="Helvetica,sans-Serif" font-size="10.00">fsl_uart_freertos.h</text>
</a>
</g>
</g>
<!-- Node23&#45;&gt;Node24 -->
<g id="edge36_Node000023_Node000024" class="edge">
<title>Node23&#45;&gt;Node24</title>
<g id="a_edge36_Node000023_Node000024"><a xlink:title=" ">
<path fill="none" stroke="#63b8ff" d="M111.02,-113.09C111.02,-106.47 111.02,-97.47 111.02,-89.27"/>
<polygon fill="#63b8ff" stroke="#63b8ff" points="114.52,-89.34 111.02,-79.34 107.52,-89.34 114.52,-89.34"/>
</a>
</g>
</g>
<!-- Node26&#45;&gt;Node3 -->
<g id="edge49_Node000026_Node000003" class="edge">
<title>Node26&#45;&gt;Node3</title>
<g id="a_edge49_Node000026_Node000003"><a xlink:title=" ">
<path fill="none" stroke="#63b8ff" d="M439.02,-340.09C439.02,-333.47 439.02,-324.47 439.02,-316.27"/>
<polygon fill="#63b8ff" stroke="#63b8ff" points="442.52,-316.34 439.02,-306.34 435.52,-316.34 442.52,-316.34"/>
</a>
</g>
</g>
<!-- Node26&#45;&gt;Node5 -->
<g id="edge50_Node000026_Node000005" class="edge">
<title>Node26&#45;&gt;Node5</title>
<g id="a_edge50_Node000026_Node000005"><a xlink:title=" ">
<path fill="none" stroke="#63b8ff" d="M426.64,-340.31C415,-331.25 397.14,-317.17 382.02,-304.5 362.74,-288.34 341.25,-269.29 326.24,-255.79"/>
<polygon fill="#63b8ff" stroke="#63b8ff" points="328.69,-253.3 318.92,-249.2 324.01,-258.5 328.69,-253.3"/>
</a>
</g>
</g>
<!-- Node27&#45;&gt;Node8 -->
<g id="edge53_Node000027_Node000008" class="edge">
<title>Node27&#45;&gt;Node8</title>
<g id="a_edge53_Node000027_Node000008"><a xlink:title=" ">
<path fill="none" stroke="#63b8ff" d="M1238.58,-113.3C1235.79,-98.43 1228.14,-70.12 1209.02,-56.75 1171.87,-30.78 872.74,-17.54 748.17,-13.11"/>
<polygon fill="#63b8ff" stroke="#63b8ff" points="748.3,-9.62 738.18,-12.77 748.05,-16.61 748.3,-9.62"/>
</a>
</g>
</g>
<!-- Node27&#45;&gt;Node12 -->
<g id="edge52_Node000027_Node000012" class="edge">
<title>Node27&#45;&gt;Node12</title>
<g id="a_edge52_Node000027_Node000012"><a xlink:title=" ">
<path fill="none" stroke="#63b8ff" d="M1220.53,-113.09C1203.87,-104.72 1179.63,-92.54 1160.58,-82.97"/>
<polygon fill="#63b8ff" stroke="#63b8ff" points="1162.2,-79.87 1151.69,-78.51 1159.06,-86.12 1162.2,-79.87"/>
</a>
</g>
</g>
<!-- Node29&#45;&gt;Node4 -->
<g id="edge56_Node000029_Node000004" class="edge">
<title>Node29&#45;&gt;Node4</title>
<g id="a_edge56_Node000029_Node000004"><a xlink:title=" ">
<path fill="none" stroke="#63b8ff" d="M987.68,-171.25C923.9,-157.24 789.76,-129.08 675.02,-113.5 487.74,-88.08 434.83,-109.7 245.83,-77.71"/>
<polygon fill="#63b8ff" stroke="#63b8ff" points="246.6,-74.29 236.15,-76.04 245.41,-81.19 246.6,-74.29"/>
</a>
</g>
</g>
<!-- Node29&#45;&gt;Node8 -->
<g id="edge59_Node000029_Node000008" class="edge">
<title>Node29&#45;&gt;Node8</title>
<g id="a_edge59_Node000029_Node000008"><a xlink:title=" ">
<path fill="none" stroke="#63b8ff" d="M1055.5,-169.88C1111.25,-150.57 1220.04,-105.11 1176.02,-56.75 1147.68,-25.62 868.54,-15.43 748.47,-12.46"/>
<polygon fill="#63b8ff" stroke="#63b8ff" points="748.61,-8.97 738.53,-12.23 748.44,-15.96 748.61,-8.97"/>
</a>
</g>
</g>
<!-- Node29&#45;&gt;Node12 -->
<g id="edge57_Node000029_Node000012" class="edge">
<title>Node29&#45;&gt;Node12</title>
<g id="a_edge57_Node000029_Node000012"><a xlink:title=" ">
<path fill="none" stroke="#63b8ff" d="M1034.06,-170.12C1051.73,-151.53 1091.11,-110.11 1113.87,-86.16"/>
<polygon fill="#63b8ff" stroke="#63b8ff" points="1116.31,-88.68 1120.66,-79.02 1111.23,-83.86 1116.31,-88.68"/>
</a>
</g>
</g>
<!-- Node29&#45;&gt;Node17 -->
<g id="edge60_Node000029_Node000017" class="edge">
<title>Node29&#45;&gt;Node17</title>
<g id="a_edge60_Node000029_Node000017"><a xlink:title=" ">
<path fill="none" stroke="#63b8ff" d="M1012.33,-169.84C1002.13,-161.97 987.58,-150.75 975.56,-141.49"/>
<polygon fill="#63b8ff" stroke="#63b8ff" points="977.86,-138.84 967.8,-135.5 973.58,-144.38 977.86,-138.84"/>
</a>
</g>
</g>
<!-- Node29&#45;&gt;Node18 -->
<g id="edge58_Node000029_Node000018" class="edge">
<title>Node29&#45;&gt;Node18</title>
<g id="a_edge58_Node000029_Node000018"><a xlink:title=" ">
<path fill="none" stroke="#63b8ff" d="M1025.62,-170.12C1026.74,-152.27 1029.18,-113.36 1030.7,-89.09"/>
<polygon fill="#63b8ff" stroke="#63b8ff" points="1034.18,-89.64 1031.31,-79.44 1027.19,-89.2 1034.18,-89.64"/>
</a>
</g>
</g>
</g>
</svg>

<g id="navigator" transform="translate(0 0)" fill="#404254">
  <rect fill="#f2f5e9" fill-opacity="0.5" stroke="#606060" stroke-width=".5" x="0" y="0" width="60" height="60"/>
  <use id="zoomplus" xlink:href="#zoomPlus" x="17" y="9" onmousedown="handleZoom(evt,'in')"/>
  <use id="zoomminus" xlink:href="#zoomMin" x="42" y="9" onmousedown="handleZoom(evt,'out')"/>
  <use id="reset" xlink:href="#resetDef" x="30" y="36" onmousedown="handleReset()"/>
   <use id="arrowup" xlink:href="#arrowUp" x="0" y="0" onmousedown="handlePan(0,-1)"/>
  <use id="arrowright" xlink:href="#arrowRight" x="0" y="0" onmousedown="handlePan(1,0)"/>
  <use id="arrowdown" xlink:href="#arrowDown" x="0" y="0" onmousedown="handlePan(0,1)"/>
  <use id="arrowleft" xlink:href="#arrowLeft" x="0" y="0" onmousedown="handlePan(-1,0)"/>
</g>
<svg viewBox="0 0 15 15" width="100%" height="30px" preserveAspectRatio="xMaxYMin meet">
 <g id="arrow_out" transform="scale(0.3 0.3)">
  <a xlink:href="motor__tmc_8c__incl_org.svg" target="_base">
   <rect id="button" ry="5" rx="5" y="6" x="6" height="38" width="38"
        fill="#f2f5e9" fill-opacity="0.5" stroke="#606060" stroke-width="1.0"/>
   <path id="arrow"
     d="M 11.500037,31.436501 C 11.940474,20.09759 22.043105,11.32322 32.158766,21.979434 L 37.068811,17.246167 C 37.068811,17.246167 37.088388,32 37.088388,32 L 22.160133,31.978069 C 22.160133,31.978069 26.997745,27.140456 26.997745,27.140456 C 18.528582,18.264221 13.291696,25.230495 11.500037,31.436501 z"
     style="fill:#404040;"/>
  </a>
 </g>
</svg>

<style type='text/css'>
<![CDATA[
[data-mouse-over-selected='false'] { opacity: 0.7; }
[data-mouse-over-selected='true']  { opacity: 1.0; }
]]>
</style>
<script type="application/ecmascript"><![CDATA[
document.addEventListener('DOMContentLoaded', (event) => {
  highlightEdges();
  highlightAdjacentNodes();
});
]]></script>
</svg>
