<?xml version="1.0" encoding="UTF-8" standalone="no"?>
<!DOCTYPE svg PUBLIC "-//W3C//DTD SVG 1.1//EN"
 "http://www.w3.org/Graphics/SVG/1.1/DTD/svg11.dtd">
<!-- Generated by graphviz version 14.1.5 (0)
 -->
<!-- Title: source/motion/motor/motor_tmc.h Pages: 1 -->
<svg width="1170pt" height="382pt"
 viewBox="0.00 0.00 1170.00 382.00" xmlns="http://www.w3.org/2000/svg" xmlns:xlink="http://www.w3.org/1999/xlink">
<g id="graph0" class="graph" transform="scale(1 1) rotate(0) translate(4 378)">
<title>source/motion/motor/motor_tmc.h</title>
<!-- Node1 -->
<g id="Node000001" class="node">
<title>Node1</title>
<g id="a_Node000001"><a xlink:title=" ">
<polygon fill="#999999" stroke="#666666" points="1072.38,-374 954.38,-374 954.38,-340.5 1072.38,-340.5 1072.38,-374"/>
<text xml:space="preserve" text-anchor="start" x="962.38" y="-360.5" font-family="Helvetica,sans-Serif" font-size="10.00">source/motion/motor</text>
<text xml:space="preserve" text-anchor="middle" x="1013.38" y="-347.75" font-family="Helvetica,sans-Serif" font-size="10.00">/motor_tmc.h</text>
</a>
</g>
</g>
<!-- Node2 -->
<g id="Node000002" class="node">
<title>Node2</title>
<g id="a_Node000002"><a xlink:href="motor__internal_8h.html" target="_top" xlink:title=" ">
<polygon fill="white" stroke="#666666" points="904.88,-304.5 807.88,-304.5 807.88,-283.75 904.88,-283.75 904.88,-304.5"/>
<text xml:space="preserve" text-anchor="middle" x="856.38" y="-291" font-family="Helvetica,sans-Serif" font-size="10.00">motor_internal.h</text>
</a>
</g>
</g>
<!-- Node1&#45;&gt;Node2 -->
<g id="edge1_Node000001_Node000002" class="edge">
<title>Node1&#45;&gt;Node2</title>
<g id="a_edge1_Node000001_Node000002"><a xlink:title=" ">
<path fill="none" stroke="#63b8ff" d="M971.71,-340.03C946.93,-330.38 915.82,-318.27 892.15,-309.05"/>
<polygon fill="#63b8ff" stroke="#63b8ff" points="893.52,-305.83 882.93,-305.46 890.98,-312.35 893.52,-305.83"/>
</a>
</g>
</g>
<!-- Node3 -->
<g id="Node000003" class="node">
<title>Node3</title>
<g id="a_Node000003"><a xlink:title=" ">
<polygon fill="#e0e0e0" stroke="#999999" points="1024.75,-77.5 972,-77.5 972,-56.75 1024.75,-56.75 1024.75,-77.5"/>
<text xml:space="preserve" text-anchor="middle" x="998.38" y="-64" font-family="Helvetica,sans-Serif" font-size="10.00">stdint.h</text>
</a>
</g>
</g>
<!-- Node1&#45;&gt;Node3 -->
<g id="edge45_Node000001_Node000003" class="edge">
<title>Node1&#45;&gt;Node3</title>
<g id="a_edge45_Node000001_Node000003"><a xlink:title=" ">
<path fill="none" stroke="#63b8ff" d="M1027.36,-340.34C1044.8,-318.8 1072.38,-278.42 1072.38,-238.38 1072.38,-238.38 1072.38,-238.38 1072.38,-179.62 1072.38,-140.83 1040.89,-105.2 1018.99,-85.12"/>
<polygon fill="#63b8ff" stroke="#63b8ff" points="1021.55,-82.71 1011.73,-78.73 1016.93,-87.97 1021.55,-82.71"/>
</a>
</g>
</g>
<!-- Node4 -->
<g id="Node000004" class="node">
<title>Node4</title>
<g id="a_Node000004"><a xlink:title=" ">
<polygon fill="#e0e0e0" stroke="#999999" points="1043.88,-247.75 982.88,-247.75 982.88,-227 1043.88,-227 1043.88,-247.75"/>
<text xml:space="preserve" text-anchor="middle" x="1013.38" y="-234.25" font-family="Helvetica,sans-Serif" font-size="10.00">stdbool.h</text>
</a>
</g>
</g>
<!-- Node1&#45;&gt;Node4 -->
<g id="edge46_Node000001_Node000004" class="edge">
<title>Node1&#45;&gt;Node4</title>
<g id="a_edge46_Node000001_Node000004"><a xlink:title=" ">
<path fill="none" stroke="#63b8ff" d="M1013.38,-340.35C1013.38,-319.46 1013.38,-282.71 1013.38,-259.5"/>
<polygon fill="#63b8ff" stroke="#63b8ff" points="1016.88,-259.7 1013.38,-249.7 1009.88,-259.7 1016.88,-259.7"/>
</a>
</g>
</g>
<!-- Node2&#45;&gt;Node3 -->
<g id="edge2_Node000002_Node000003" class="edge">
<title>Node2&#45;&gt;Node3</title>
<g id="a_edge2_Node000002_Node000003"><a xlink:title=" ">
<path fill="none" stroke="#63b8ff" d="M869.5,-283.41C898.58,-260.98 968.05,-202.26 995.38,-134.25 1001.09,-120.03 1001.66,-102.68 1000.9,-89.32"/>
<polygon fill="#63b8ff" stroke="#63b8ff" points="1004.4,-89.12 1000.02,-79.47 997.43,-89.74 1004.4,-89.12"/>
</a>
</g>
</g>
<!-- Node2&#45;&gt;Node4 -->
<g id="edge3_Node000002_Node000004" class="edge">
<title>Node2&#45;&gt;Node4</title>
<g id="a_edge3_Node000002_Node000004"><a xlink:title=" ">
<path fill="none" stroke="#63b8ff" d="M884.44,-283.34C909.59,-274.57 946.72,-261.62 974.68,-251.87"/>
<polygon fill="#63b8ff" stroke="#63b8ff" points="975.57,-255.27 983.86,-248.67 973.26,-248.66 975.57,-255.27"/>
</a>
</g>
</g>
<!-- Node5 -->
<g id="Node000005" class="node">
<title>Node5</title>
<g id="a_Node000005"><a xlink:href="motor__core_8h.html" target="_top" xlink:title=" ">
<polygon fill="white" stroke="#666666" points="403.62,-247.75 323.12,-247.75 323.12,-227 403.62,-227 403.62,-247.75"/>
<text xml:space="preserve" text-anchor="middle" x="363.38" y="-234.25" font-family="Helvetica,sans-Serif" font-size="10.00">motor_core.h</text>
</a>
</g>
</g>
<!-- Node2&#45;&gt;Node5 -->
<g id="edge4_Node000002_Node000005" class="edge">
<title>Node2&#45;&gt;Node5</title>
<g id="a_edge4_Node000002_Node000005"><a xlink:title=" ">
<path fill="none" stroke="#63b8ff" d="M807.76,-287.73C714.48,-277.37 511.17,-254.79 415.33,-244.14"/>
<polygon fill="#63b8ff" stroke="#63b8ff" points="415.75,-240.67 405.42,-243.04 414.97,-247.63 415.75,-240.67"/>
</a>
</g>
</g>
<!-- Node11 -->
<g id="Node000011" class="node">
<title>Node11</title>
<g id="a_Node000011"><a xlink:title=" ">
<polygon fill="#e0e0e0" stroke="#999999" points="736.12,-77.5 664.62,-77.5 664.62,-56.75 736.12,-56.75 736.12,-77.5"/>
<text xml:space="preserve" text-anchor="middle" x="700.38" y="-64" font-family="Helvetica,sans-Serif" font-size="10.00">FreeRTOS.h</text>
</a>
</g>
</g>
<!-- Node2&#45;&gt;Node11 -->
<g id="edge42_Node000002_Node000011" class="edge">
<title>Node2&#45;&gt;Node11</title>
<g id="a_edge42_Node000002_Node000011"><a xlink:title=" ">
<path fill="none" stroke="#63b8ff" d="M843.78,-283.5C832.9,-274.84 817.13,-261.4 805.38,-247.75 766.09,-202.11 760.67,-186.86 731.38,-134.25 722.98,-119.17 714.75,-101.43 708.88,-88.12"/>
<polygon fill="#63b8ff" stroke="#63b8ff" points="712.17,-86.92 704.99,-79.14 705.75,-89.71 712.17,-86.92"/>
</a>
</g>
</g>
<!-- Node16 -->
<g id="Node000016" class="node">
<title>Node16</title>
<g id="a_Node000016"><a xlink:href="cmd__handle_8h.html" target="_top" xlink:title=" ">
<polygon fill="white" stroke="#666666" points="824.5,-134.25 740.25,-134.25 740.25,-113.5 824.5,-113.5 824.5,-134.25"/>
<text xml:space="preserve" text-anchor="middle" x="782.38" y="-120.75" font-family="Helvetica,sans-Serif" font-size="10.00">cmd_handle.h</text>
</a>
</g>
</g>
<!-- Node2&#45;&gt;Node16 -->
<g id="edge44_Node000002_Node000016" class="edge">
<title>Node2&#45;&gt;Node16</title>
<g id="a_edge44_Node000002_Node000016"><a xlink:title=" ">
<path fill="none" stroke="#63b8ff" d="M846.81,-283.38C838.65,-274.65 827.04,-261.16 819.38,-247.75 800.55,-214.82 790.4,-171.35 785.71,-145.92"/>
<polygon fill="#63b8ff" stroke="#63b8ff" points="789.19,-145.47 784.05,-136.2 782.29,-146.65 789.19,-145.47"/>
</a>
</g>
</g>
<!-- Node24 -->
<g id="Node000024" class="node">
<title>Node24</title>
<g id="a_Node000024"><a xlink:title=" ">
<polygon fill="#e0e0e0" stroke="#999999" points="883.88,-247.75 828.88,-247.75 828.88,-227 883.88,-227 883.88,-247.75"/>
<text xml:space="preserve" text-anchor="middle" x="856.38" y="-234.25" font-family="Helvetica,sans-Serif" font-size="10.00">queue.h</text>
</a>
</g>
</g>
<!-- Node2&#45;&gt;Node24 -->
<g id="edge43_Node000002_Node000024" class="edge">
<title>Node2&#45;&gt;Node24</title>
<g id="a_edge43_Node000002_Node000024"><a xlink:title=" ">
<path fill="none" stroke="#63b8ff" d="M856.38,-283.34C856.38,-276.72 856.38,-267.72 856.38,-259.52"/>
<polygon fill="#63b8ff" stroke="#63b8ff" points="859.88,-259.59 856.38,-249.59 852.88,-259.59 859.88,-259.59"/>
</a>
</g>
</g>
<!-- Node6 -->
<g id="Node000006" class="node">
<title>Node6</title>
<g id="a_Node000006"><a xlink:href="pca9555a_8h.html" target="_top" xlink:title=" ">
<polygon fill="white" stroke="#666666" points="608.38,-77.5 454.38,-77.5 454.38,-56.75 608.38,-56.75 608.38,-77.5"/>
<text xml:space="preserve" text-anchor="middle" x="531.38" y="-64" font-family="Helvetica,sans-Serif" font-size="10.00">driver/pca9555a/pca9555a.h</text>
</a>
</g>
</g>
<!-- Node5&#45;&gt;Node6 -->
<g id="edge5_Node000005_Node000006" class="edge">
<title>Node5&#45;&gt;Node6</title>
<g id="a_edge5_Node000005_Node000006"><a xlink:title=" ">
<path fill="none" stroke="#63b8ff" d="M385.22,-226.61C402.59,-218.34 427.1,-205.54 446.38,-191 474.67,-169.66 482.48,-163.57 502.38,-134.25 512.06,-119.97 519.72,-101.92 524.72,-88.29"/>
<polygon fill="#63b8ff" stroke="#63b8ff" points="527.95,-89.68 527.93,-79.09 521.34,-87.38 527.95,-89.68"/>
</a>
</g>
</g>
<!-- Node9 -->
<g id="Node000009" class="node">
<title>Node9</title>
<g id="a_Node000009"><a xlink:title=" ">
<polygon fill="#e0e0e0" stroke="#999999" points="296.75,-191 208,-191 208,-170.25 296.75,-170.25 296.75,-191"/>
<text xml:space="preserve" text-anchor="middle" x="252.38" y="-177.5" font-family="Helvetica,sans-Serif" font-size="10.00">MK22F51212.h</text>
</a>
</g>
</g>
<!-- Node5&#45;&gt;Node9 -->
<g id="edge8_Node000005_Node000009" class="edge">
<title>Node5&#45;&gt;Node9</title>
<g id="a_edge8_Node000005_Node000009"><a xlink:title=" ">
<path fill="none" stroke="#63b8ff" d="M343.53,-226.59C326.48,-218.18 301.65,-205.93 282.21,-196.34"/>
<polygon fill="#63b8ff" stroke="#63b8ff" points="283.92,-193.28 273.41,-192 280.83,-199.56 283.92,-193.28"/>
</a>
</g>
</g>
<!-- Node10 -->
<g id="Node000010" class="node">
<title>Node10</title>
<g id="a_Node000010"><a xlink:href="step__core_8h.html" target="_top" xlink:title=" ">
<polygon fill="white" stroke="#666666" points="437.5,-191 365.25,-191 365.25,-170.25 437.5,-170.25 437.5,-191"/>
<text xml:space="preserve" text-anchor="middle" x="401.38" y="-177.5" font-family="Helvetica,sans-Serif" font-size="10.00">step_core.h</text>
</a>
</g>
</g>
<!-- Node5&#45;&gt;Node10 -->
<g id="edge9_Node000005_Node000010" class="edge">
<title>Node5&#45;&gt;Node10</title>
<g id="a_edge9_Node000005_Node000010"><a xlink:title=" ">
<path fill="none" stroke="#63b8ff" d="M370.17,-226.59C375.14,-219.42 382.04,-209.48 388.1,-200.76"/>
<polygon fill="#63b8ff" stroke="#63b8ff" points="390.95,-202.78 393.78,-192.57 385.2,-198.79 390.95,-202.78"/>
</a>
</g>
</g>
<!-- Node13 -->
<g id="Node000013" class="node">
<title>Node13</title>
<g id="a_Node000013"><a xlink:title=" ">
<polygon fill="#e0e0e0" stroke="#999999" points="58.75,-77.5 0,-77.5 0,-56.75 58.75,-56.75 58.75,-77.5"/>
<text xml:space="preserve" text-anchor="middle" x="29.38" y="-64" font-family="Helvetica,sans-Serif" font-size="10.00">fsl_ftm.h</text>
</a>
</g>
</g>
<!-- Node5&#45;&gt;Node13 -->
<g id="edge39_Node000005_Node000013" class="edge">
<title>Node5&#45;&gt;Node13</title>
<g id="a_edge39_Node000005_Node000013"><a xlink:title=" ">
<path fill="none" stroke="#63b8ff" d="M322.68,-232.37C282.64,-227.16 220.65,-215.62 172.38,-191 119.42,-164 69.64,-113.48 45.17,-86.39"/>
<polygon fill="#63b8ff" stroke="#63b8ff" points="47.87,-84.16 38.62,-79 42.63,-88.8 47.87,-84.16"/>
</a>
</g>
</g>
<!-- Node14 -->
<g id="Node000014" class="node">
<title>Node14</title>
<g id="a_Node000014"><a xlink:title=" ">
<polygon fill="#e0e0e0" stroke="#999999" points="140,-77.5 76.75,-77.5 76.75,-56.75 140,-56.75 140,-77.5"/>
<text xml:space="preserve" text-anchor="middle" x="108.38" y="-64" font-family="Helvetica,sans-Serif" font-size="10.00">fsl_gpio.h</text>
</a>
</g>
</g>
<!-- Node5&#45;&gt;Node14 -->
<g id="edge40_Node000005_Node000014" class="edge">
<title>Node5&#45;&gt;Node14</title>
<g id="a_edge40_Node000005_Node000014"><a xlink:title=" ">
<path fill="none" stroke="#63b8ff" d="M322.84,-232.63C287.6,-227.72 236.52,-216.5 199.38,-191 160.5,-164.31 131.76,-115.5 117.81,-88.12"/>
<polygon fill="#63b8ff" stroke="#63b8ff" points="120.97,-86.61 113.42,-79.18 114.69,-89.7 120.97,-86.61"/>
</a>
</g>
</g>
<!-- Node15 -->
<g id="Node000015" class="node">
<title>Node15</title>
<g id="a_Node000015"><a xlink:title=" ">
<polygon fill="#e0e0e0" stroke="#999999" points="398.25,-77.5 336.5,-77.5 336.5,-56.75 398.25,-56.75 398.25,-77.5"/>
<text xml:space="preserve" text-anchor="middle" x="367.38" y="-64" font-family="Helvetica,sans-Serif" font-size="10.00">fsl_port.h</text>
</a>
</g>
</g>
<!-- Node5&#45;&gt;Node15 -->
<g id="edge41_Node000005_Node000015" class="edge">
<title>Node5&#45;&gt;Node15</title>
<g id="a_edge41_Node000005_Node000015"><a xlink:title=" ">
<path fill="none" stroke="#63b8ff" d="M361.44,-226.69C359.72,-217.54 357.33,-203.4 356.38,-191 353.63,-155.18 359.2,-113.54 363.38,-89.09"/>
<polygon fill="#63b8ff" stroke="#63b8ff" points="366.78,-89.94 365.11,-79.48 359.89,-88.7 366.78,-89.94"/>
</a>
</g>
</g>
<!-- Node21 -->
<g id="Node000021" class="node">
<title>Node21</title>
<g id="a_Node000021"><a xlink:href="tmc2209__core_8h.html" target="_top" xlink:title=" ">
<polygon fill="white" stroke="#666666" points="901.38,-191 807.38,-191 807.38,-170.25 901.38,-170.25 901.38,-191"/>
<text xml:space="preserve" text-anchor="middle" x="854.38" y="-177.5" font-family="Helvetica,sans-Serif" font-size="10.00">tmc2209_core.h</text>
</a>
</g>
</g>
<!-- Node5&#45;&gt;Node21 -->
<g id="edge31_Node000005_Node000021" class="edge">
<title>Node5&#45;&gt;Node21</title>
<g id="a_edge31_Node000005_Node000021"><a xlink:title=" ">
<path fill="none" stroke="#63b8ff" d="M403.97,-231.85C490.81,-222.17 694.86,-199.41 795.76,-188.16"/>
<polygon fill="#63b8ff" stroke="#63b8ff" points="795.9,-191.67 805.46,-187.08 795.13,-184.71 795.9,-191.67"/>
</a>
</g>
</g>
<!-- Node7 -->
<g id="Node000007" class="node">
<title>Node7</title>
<g id="a_Node000007"><a xlink:title=" ">
<polygon fill="#e0e0e0" stroke="#999999" points="573.88,-20.75 488.88,-20.75 488.88,0 573.88,0 573.88,-20.75"/>
<text xml:space="preserve" text-anchor="middle" x="531.38" y="-7.25" font-family="Helvetica,sans-Serif" font-size="10.00">fsl_common.h</text>
</a>
</g>
</g>
<!-- Node6&#45;&gt;Node7 -->
<g id="edge6_Node000006_Node000007" class="edge">
<title>Node6&#45;&gt;Node7</title>
<g id="a_edge6_Node000006_Node000007"><a xlink:title=" ">
<path fill="none" stroke="#63b8ff" d="M531.38,-56.34C531.38,-49.72 531.38,-40.72 531.38,-32.52"/>
<polygon fill="#63b8ff" stroke="#63b8ff" points="534.88,-32.59 531.38,-22.59 527.88,-32.59 534.88,-32.59"/>
</a>
</g>
</g>
<!-- Node8 -->
<g id="Node000008" class="node">
<title>Node8</title>
<g id="a_Node000008"><a xlink:title=" ">
<polygon fill="#e0e0e0" stroke="#999999" points="943.25,-20.75 863.5,-20.75 863.5,0 943.25,0 943.25,-20.75"/>
<text xml:space="preserve" text-anchor="middle" x="903.38" y="-7.25" font-family="Helvetica,sans-Serif" font-size="10.00">peripherals.h</text>
</a>
</g>
</g>
<!-- Node6&#45;&gt;Node8 -->
<g id="edge7_Node000006_Node000008" class="edge">
<title>Node6&#45;&gt;Node8</title>
<g id="a_edge7_Node000006_Node000008"><a xlink:title=" ">
<path fill="none" stroke="#63b8ff" d="M598.31,-56.27C671.03,-45.57 785.63,-28.7 851.72,-18.98"/>
<polygon fill="#63b8ff" stroke="#63b8ff" points="852.2,-22.44 861.58,-17.53 851.18,-15.52 852.2,-22.44"/>
</a>
</g>
</g>
<!-- Node10&#45;&gt;Node6 -->
<g id="edge10_Node000010_Node000006" class="edge">
<title>Node10&#45;&gt;Node6</title>
<g id="a_edge10_Node000010_Node000006"><a xlink:title=" ">
<path fill="none" stroke="#63b8ff" d="M422.32,-169.91C438.61,-161.75 461.25,-149.08 478.38,-134.25 494.48,-120.3 509.33,-100.97 519.19,-86.81"/>
<polygon fill="#63b8ff" stroke="#63b8ff" points="521.89,-89.06 524.58,-78.82 516.08,-85.15 521.89,-89.06"/>
</a>
</g>
</g>
<!-- Node10&#45;&gt;Node7 -->
<g id="edge13_Node000010_Node000007" class="edge">
<title>Node10&#45;&gt;Node7</title>
<g id="a_edge13_Node000010_Node000007"><a xlink:title=" ">
<path fill="none" stroke="#63b8ff" d="M415.43,-169.92C425.89,-161.77 439.36,-149.1 445.38,-134.25 458.31,-102.33 427.59,-86.25 445.38,-56.75 454.02,-42.42 468.86,-32.38 483.81,-25.47"/>
<polygon fill="#63b8ff" stroke="#63b8ff" points="484.83,-28.83 492.7,-21.74 482.12,-22.38 484.83,-28.83"/>
</a>
</g>
</g>
<!-- Node10&#45;&gt;Node11 -->
<g id="edge11_Node000010_Node000011" class="edge">
<title>Node10&#45;&gt;Node11</title>
<g id="a_edge11_Node000010_Node000011"><a xlink:title=" ">
<path fill="none" stroke="#63b8ff" d="M427.65,-169.83C481.04,-149.92 602.34,-104.68 663.57,-81.85"/>
<polygon fill="#63b8ff" stroke="#63b8ff" points="664.7,-85.16 672.85,-78.39 662.26,-78.6 664.7,-85.16"/>
</a>
</g>
</g>
<!-- Node12 -->
<g id="Node000012" class="node">
<title>Node12</title>
<g id="a_Node000012"><a xlink:title=" ">
<polygon fill="#e0e0e0" stroke="#999999" points="436.38,-134.25 390.38,-134.25 390.38,-113.5 436.38,-113.5 436.38,-134.25"/>
<text xml:space="preserve" text-anchor="middle" x="413.38" y="-120.75" font-family="Helvetica,sans-Serif" font-size="10.00">task.h</text>
</a>
</g>
</g>
<!-- Node10&#45;&gt;Node12 -->
<g id="edge12_Node000010_Node000012" class="edge">
<title>Node10&#45;&gt;Node12</title>
<g id="a_edge12_Node000010_Node000012"><a xlink:title=" ">
<path fill="none" stroke="#63b8ff" d="M403.52,-169.84C404.99,-163.14 406.99,-154.01 408.8,-145.73"/>
<polygon fill="#63b8ff" stroke="#63b8ff" points="412.2,-146.57 410.92,-136.06 405.36,-145.08 412.2,-146.57"/>
</a>
</g>
</g>
<!-- Node10&#45;&gt;Node13 -->
<g id="edge14_Node000010_Node000013" class="edge">
<title>Node10&#45;&gt;Node13</title>
<g id="a_edge14_Node000010_Node000013"><a xlink:title=" ">
<path fill="none" stroke="#63b8ff" d="M365.12,-175.8C317.78,-170.11 232.77,-157.51 163.38,-134.25 124.24,-121.13 82,-98.79 55.63,-83.74"/>
<polygon fill="#63b8ff" stroke="#63b8ff" points="57.39,-80.72 46.99,-78.74 53.89,-86.78 57.39,-80.72"/>
</a>
</g>
</g>
<!-- Node10&#45;&gt;Node14 -->
<g id="edge15_Node000010_Node000014" class="edge">
<title>Node10&#45;&gt;Node14</title>
<g id="a_edge15_Node000010_Node000014"><a xlink:title=" ">
<path fill="none" stroke="#63b8ff" d="M365.02,-175.53C324.27,-169.99 256.91,-157.94 203.38,-134.25 175.03,-121.7 146.34,-100.26 128.03,-85.21"/>
<polygon fill="#63b8ff" stroke="#63b8ff" points="130.28,-82.53 120.37,-78.77 125.77,-87.89 130.28,-82.53"/>
</a>
</g>
</g>
<!-- Node10&#45;&gt;Node15 -->
<g id="edge16_Node000010_Node000015" class="edge">
<title>Node10&#45;&gt;Node15</title>
<g id="a_edge16_Node000010_Node000015"><a xlink:title=" ">
<path fill="none" stroke="#63b8ff" d="M396.32,-169.76C391.85,-160.73 385.44,-146.87 381.38,-134.25 376.57,-119.35 372.97,-102.03 370.63,-88.85"/>
<polygon fill="#63b8ff" stroke="#63b8ff" points="374.12,-88.48 369.01,-79.2 367.21,-89.64 374.12,-88.48"/>
</a>
</g>
</g>
<!-- Node10&#45;&gt;Node16 -->
<g id="edge17_Node000010_Node000016" class="edge">
<title>Node10&#45;&gt;Node16</title>
<g id="a_edge17_Node000010_Node000016"><a xlink:title=" ">
<path fill="none" stroke="#63b8ff" d="M437.91,-174.38C505.45,-164.67 650.14,-143.88 728.79,-132.57"/>
<polygon fill="#63b8ff" stroke="#63b8ff" points="729,-136.08 738.41,-131.19 728.01,-129.15 729,-136.08"/>
</a>
</g>
</g>
<!-- Node19 -->
<g id="Node000019" class="node">
<title>Node19</title>
<g id="a_Node000019"><a xlink:href="step__shared_8h.html" target="_top" xlink:title=" ">
<polygon fill="white" stroke="#666666" points="296.5,-134.25 212.25,-134.25 212.25,-113.5 296.5,-113.5 296.5,-134.25"/>
<text xml:space="preserve" text-anchor="middle" x="254.38" y="-120.75" font-family="Helvetica,sans-Serif" font-size="10.00">step_shared.h</text>
</a>
</g>
</g>
<!-- Node10&#45;&gt;Node19 -->
<g id="edge23_Node000010_Node000019" class="edge">
<title>Node10&#45;&gt;Node19</title>
<g id="a_edge23_Node000010_Node000019"><a xlink:title=" ">
<path fill="none" stroke="#63b8ff" d="M375.09,-169.84C351.68,-161.12 317.19,-148.27 291.06,-138.54"/>
<polygon fill="#63b8ff" stroke="#63b8ff" points="292.44,-135.32 281.85,-135.11 290,-141.88 292.44,-135.32"/>
</a>
</g>
</g>
<!-- Node16&#45;&gt;Node3 -->
<g id="edge18_Node000016_Node000003" class="edge">
<title>Node16&#45;&gt;Node3</title>
<g id="a_edge18_Node000016_Node000003"><a xlink:title=" ">
<path fill="none" stroke="#63b8ff" d="M822.32,-113.06C856.66,-104.57 907.8,-91.84 960.68,-78.17"/>
<polygon fill="#63b8ff" stroke="#63b8ff" points="961.37,-81.61 970.17,-75.71 959.61,-74.83 961.37,-81.61"/>
</a>
</g>
</g>
<!-- Node16&#45;&gt;Node7 -->
<g id="edge21_Node000016_Node000007" class="edge">
<title>Node16&#45;&gt;Node7</title>
<g id="a_edge21_Node000016_Node000007"><a xlink:title=" ">
<path fill="none" stroke="#63b8ff" d="M779.72,-113.05C775.22,-98.38 764.65,-70.95 745.38,-56.75 720.39,-38.35 640.14,-24.96 585.33,-17.67"/>
<polygon fill="#63b8ff" stroke="#63b8ff" points="585.92,-14.22 575.55,-16.4 585.02,-21.16 585.92,-14.22"/>
</a>
</g>
</g>
<!-- Node16&#45;&gt;Node11 -->
<g id="edge19_Node000016_Node000011" class="edge">
<title>Node16&#45;&gt;Node11</title>
<g id="a_edge19_Node000016_Node000011"><a xlink:title=" ">
<path fill="none" stroke="#63b8ff" d="M767.72,-113.09C755.7,-105.07 738.46,-93.56 724.44,-84.19"/>
<polygon fill="#63b8ff" stroke="#63b8ff" points="726.43,-81.31 716.17,-78.67 722.54,-87.13 726.43,-81.31"/>
</a>
</g>
</g>
<!-- Node17 -->
<g id="Node000017" class="node">
<title>Node17</title>
<g id="a_Node000017"><a xlink:title=" ">
<polygon fill="#e0e0e0" stroke="#999999" points="883.88,-77.5 792.88,-77.5 792.88,-56.75 883.88,-56.75 883.88,-77.5"/>
<text xml:space="preserve" text-anchor="middle" x="838.38" y="-64" font-family="Helvetica,sans-Serif" font-size="10.00">event_groups.h</text>
</a>
</g>
</g>
<!-- Node16&#45;&gt;Node17 -->
<g id="edge20_Node000016_Node000017" class="edge">
<title>Node16&#45;&gt;Node17</title>
<g id="a_edge20_Node000016_Node000017"><a xlink:title=" ">
<path fill="none" stroke="#63b8ff" d="M792.39,-113.09C800.11,-105.53 811,-94.89 820.25,-85.85"/>
<polygon fill="#63b8ff" stroke="#63b8ff" points="822.66,-88.38 827.37,-78.89 817.77,-83.37 822.66,-88.38"/>
</a>
</g>
</g>
<!-- Node18 -->
<g id="Node000018" class="node">
<title>Node18</title>
<g id="a_Node000018"><a xlink:title=" ">
<polygon fill="#e0e0e0" stroke="#999999" points="954.38,-77.5 902.38,-77.5 902.38,-56.75 954.38,-56.75 954.38,-77.5"/>
<text xml:space="preserve" text-anchor="middle" x="928.38" y="-64" font-family="Helvetica,sans-Serif" font-size="10.00">stdlib.h</text>
</a>
</g>
</g>
<!-- Node16&#45;&gt;Node18 -->
<g id="edge22_Node000016_Node000018" class="edge">
<title>Node16&#45;&gt;Node18</title>
<g id="a_edge22_Node000016_Node000018"><a xlink:title=" ">
<path fill="none" stroke="#63b8ff" d="M808.48,-113.09C831.73,-104.37 865.99,-91.52 891.94,-81.79"/>
<polygon fill="#63b8ff" stroke="#63b8ff" points="892.95,-85.15 901.08,-78.36 890.49,-78.59 892.95,-85.15"/>
</a>
</g>
</g>
<!-- Node19&#45;&gt;Node3 -->
<g id="edge24_Node000019_Node000003" class="edge">
<title>Node19&#45;&gt;Node3</title>
<g id="a_edge24_Node000019_Node000003"><a xlink:title=" ">
<path fill="none" stroke="#63b8ff" d="M296.99,-119.6C321.64,-117.74 353.25,-115.41 381.38,-113.5 636.28,-96.21 705.64,-118.58 960.64,-77.65"/>
<polygon fill="#63b8ff" stroke="#63b8ff" points="960.94,-81.15 970.25,-76.09 959.82,-74.24 960.94,-81.15"/>
</a>
</g>
</g>
<!-- Node19&#45;&gt;Node6 -->
<g id="edge25_Node000019_Node000006" class="edge">
<title>Node19&#45;&gt;Node6</title>
<g id="a_edge25_Node000019_Node000006"><a xlink:title=" ">
<path fill="none" stroke="#63b8ff" d="M296.75,-114.5C343.06,-105.35 417.67,-90.6 470.3,-80.2"/>
<polygon fill="#63b8ff" stroke="#63b8ff" points="470.89,-83.65 480.02,-78.27 469.53,-76.78 470.89,-83.65"/>
</a>
</g>
</g>
<!-- Node19&#45;&gt;Node7 -->
<g id="edge27_Node000019_Node000007" class="edge">
<title>Node19&#45;&gt;Node7</title>
<g id="a_edge27_Node000019_Node000007"><a xlink:title=" ">
<path fill="none" stroke="#63b8ff" d="M231.48,-113.02C205.46,-100.47 168.84,-77.89 187.38,-56.75 206.16,-35.33 385,-20.79 477.11,-14.66"/>
<polygon fill="#63b8ff" stroke="#63b8ff" points="477.17,-18.16 486.92,-14.02 476.72,-11.18 477.17,-18.16"/>
</a>
</g>
</g>
<!-- Node19&#45;&gt;Node13 -->
<g id="edge28_Node000019_Node000013" class="edge">
<title>Node19&#45;&gt;Node13</title>
<g id="a_edge28_Node000019_Node000013"><a xlink:title=" ">
<path fill="none" stroke="#63b8ff" d="M213.51,-113.01C177.98,-104.42 124.84,-91.54 70.19,-78.18"/>
<polygon fill="#63b8ff" stroke="#63b8ff" points="71.26,-74.84 60.71,-75.86 69.6,-81.64 71.26,-74.84"/>
</a>
</g>
</g>
<!-- Node19&#45;&gt;Node14 -->
<g id="edge29_Node000019_Node000014" class="edge">
<title>Node19&#45;&gt;Node14</title>
<g id="a_edge29_Node000019_Node000014"><a xlink:title=" ">
<path fill="none" stroke="#63b8ff" d="M228.27,-113.09C205.02,-104.37 170.76,-91.52 144.81,-81.79"/>
<polygon fill="#63b8ff" stroke="#63b8ff" points="146.26,-78.59 135.67,-78.36 143.8,-85.15 146.26,-78.59"/>
</a>
</g>
</g>
<!-- Node19&#45;&gt;Node15 -->
<g id="edge30_Node000019_Node000015" class="edge">
<title>Node19&#45;&gt;Node15</title>
<g id="a_edge30_Node000019_Node000015"><a xlink:title=" ">
<path fill="none" stroke="#63b8ff" d="M274.58,-113.09C291.93,-104.68 317.21,-92.43 337,-82.84"/>
<polygon fill="#63b8ff" stroke="#63b8ff" points="338.51,-86 345.99,-78.49 335.46,-79.7 338.51,-86"/>
</a>
</g>
</g>
<!-- Node20 -->
<g id="Node000020" class="node">
<title>Node20</title>
<g id="a_Node000020"><a xlink:title=" ">
<polygon fill="#e0e0e0" stroke="#999999" points="318.62,-77.5 196.12,-77.5 196.12,-56.75 318.62,-56.75 318.62,-77.5"/>
<text xml:space="preserve" text-anchor="middle" x="257.38" y="-64" font-family="Helvetica,sans-Serif" font-size="10.00">fsl_device_registers.h</text>
</a>
</g>
</g>
<!-- Node19&#45;&gt;Node20 -->
<g id="edge26_Node000019_Node000020" class="edge">
<title>Node19&#45;&gt;Node20</title>
<g id="a_edge26_Node000019_Node000020"><a xlink:title=" ">
<path fill="none" stroke="#63b8ff" d="M254.91,-113.09C255.27,-106.47 255.77,-97.47 256.22,-89.27"/>
<polygon fill="#63b8ff" stroke="#63b8ff" points="259.71,-89.52 256.76,-79.34 252.72,-89.13 259.71,-89.52"/>
</a>
</g>
</g>
<!-- Node21&#45;&gt;Node3 -->
<g id="edge32_Node000021_Node000003" class="edge">
<title>Node21&#45;&gt;Node3</title>
<g id="a_edge32_Node000021_Node000003"><a xlink:title=" ">
<path fill="none" stroke="#63b8ff" d="M854.18,-169.77C854.43,-155.55 856.99,-129.26 871.38,-113.5 877.68,-106.59 925.55,-90.64 960.67,-79.62"/>
<polygon fill="#63b8ff" stroke="#63b8ff" points="961.6,-83 970.11,-76.68 959.52,-76.31 961.6,-83"/>
</a>
</g>
</g>
<!-- Node21&#45;&gt;Node7 -->
<g id="edge36_Node000021_Node000007" class="edge">
<title>Node21&#45;&gt;Node7</title>
<g id="a_edge36_Node000021_Node000007"><a xlink:title=" ">
<path fill="none" stroke="#63b8ff" d="M821.08,-169.78C795.79,-161.73 760.52,-149.25 731.38,-134.25 676.9,-106.22 669.88,-88.32 617.38,-56.75 599.34,-45.9 578.47,-34.86 561.8,-26.38"/>
<polygon fill="#63b8ff" stroke="#63b8ff" points="563.39,-23.26 552.89,-21.89 560.24,-29.52 563.39,-23.26"/>
</a>
</g>
</g>
<!-- Node21&#45;&gt;Node8 -->
<g id="edge38_Node000021_Node000008" class="edge">
<title>Node21&#45;&gt;Node8</title>
<g id="a_edge38_Node000021_Node000008"><a xlink:title=" ">
<path fill="none" stroke="#63b8ff" d="M901.61,-179.59C971.14,-176.67 1099.09,-159.68 1157.38,-77.5 1162.71,-69.98 1163.29,-63.82 1157.38,-56.75 1132.06,-26.51 1021.42,-16.4 954.8,-13.04"/>
<polygon fill="#63b8ff" stroke="#63b8ff" points="955.37,-9.56 945.22,-12.59 955.04,-16.56 955.37,-9.56"/>
</a>
</g>
</g>
<!-- Node21&#45;&gt;Node16 -->
<g id="edge37_Node000021_Node000016" class="edge">
<title>Node21&#45;&gt;Node16</title>
<g id="a_edge37_Node000021_Node000016"><a xlink:title=" ">
<path fill="none" stroke="#63b8ff" d="M841.5,-169.84C831.16,-161.97 816.41,-150.75 804.22,-141.49"/>
<polygon fill="#63b8ff" stroke="#63b8ff" points="806.42,-138.76 796.34,-135.49 802.18,-144.33 806.42,-138.76"/>
</a>
</g>
</g>
<!-- Node22 -->
<g id="Node000022" class="node">
<title>Node22</title>
<g id="a_Node000022"><a xlink:href="tmc2209__shared_8h.html" target="_top" xlink:title=" ">
<polygon fill="white" stroke="#666666" points="986.38,-134.25 880.38,-134.25 880.38,-113.5 986.38,-113.5 986.38,-134.25"/>
<text xml:space="preserve" text-anchor="middle" x="933.38" y="-120.75" font-family="Helvetica,sans-Serif" font-size="10.00">tmc2209_shared.h</text>
</a>
</g>
</g>
<!-- Node21&#45;&gt;Node22 -->
<g id="edge33_Node000021_Node000022" class="edge">
<title>Node21&#45;&gt;Node22</title>
<g id="a_edge33_Node000021_Node000022"><a xlink:title=" ">
<path fill="none" stroke="#63b8ff" d="M868.5,-169.84C880.07,-161.82 896.68,-150.31 910.19,-140.94"/>
<polygon fill="#63b8ff" stroke="#63b8ff" points="911.9,-144.01 918.13,-135.44 907.92,-138.26 911.9,-144.01"/>
</a>
</g>
</g>
<!-- Node22&#45;&gt;Node3 -->
<g id="edge34_Node000022_Node000003" class="edge">
<title>Node22&#45;&gt;Node3</title>
<g id="a_edge34_Node000022_Node000003"><a xlink:title=" ">
<path fill="none" stroke="#63b8ff" d="M945,-113.09C954.24,-105.3 967.39,-94.22 978.32,-85.01"/>
<polygon fill="#63b8ff" stroke="#63b8ff" points="980.3,-87.92 985.7,-78.8 975.79,-82.57 980.3,-87.92"/>
</a>
</g>
</g>
<!-- Node23 -->
<g id="Node000023" class="node">
<title>Node23</title>
<g id="a_Node000023"><a xlink:title=" ">
<polygon fill="#e0e0e0" stroke="#999999" points="1148,-77.5 1042.75,-77.5 1042.75,-56.75 1148,-56.75 1148,-77.5"/>
<text xml:space="preserve" text-anchor="middle" x="1095.38" y="-64" font-family="Helvetica,sans-Serif" font-size="10.00">fsl_uart_freertos.h</text>
</a>
</g>
</g>
<!-- Node22&#45;&gt;Node23 -->
<g id="edge35_Node000022_Node000023" class="edge">
<title>Node22&#45;&gt;Node23</title>
<g id="a_edge35_Node000022_Node000023"><a xlink:title=" ">
<path fill="none" stroke="#63b8ff" d="M962.34,-113.09C988.4,-104.28 1026.94,-91.25 1055.83,-81.49"/>
<polygon fill="#63b8ff" stroke="#63b8ff" points="1056.6,-84.92 1064.96,-78.41 1054.36,-78.29 1056.6,-84.92"/>
</a>
</g>
</g>
</g>
</svg>
