<?xml version="1.0" encoding="UTF-8" standalone="no"?>
<!DOCTYPE svg PUBLIC "-//W3C//DTD SVG 1.1//EN"
 "http://www.w3.org/Graphics/SVG/1.1/DTD/svg11.dtd">
<!-- Generated by graphviz version 14.1.4 (0)
 -->
<!-- Title: source/motion/motor/motor_convert.c Pages: 1 -->
<!--zoomable 382 -->

<svg id="main" version="1.1" xmlns="http://www.w3.org/2000/svg" xmlns:xlink="http://www.w3.org/1999/xlink" xml:space="preserve" onload="init(evt)">

<style type="text/css"><![CDATA[
.node, .edge {opacity: 0.7;}
.node.selected, .edge.selected {opacity: 1;}
.edge:hover path { stroke: red; }
.edge:hover polygon { stroke: red; fill: red; }
]]></style>

<defs>
  <circle id="rim" cx="0" cy="0" r="7"/>
  <circle id="rim2" cx="0" cy="0" r="3.5"/>
  <g id="zoomPlus">
    <use xlink:href="#rim" fill="#404040"><set attributeName="fill" to="#808080" begin="zoomplus.mouseover" end="zoomplus.mouseout"/></use>
    <path d="M-4,0h8M0,-4v8" fill="none" stroke="white" stroke-width="1.5" pointer-events="none"/>
  </g>
  <g id="zoomMin">
    <use xlink:href="#rim" fill="#404040"><set attributeName="fill" to="#808080" begin="zoomminus.mouseover" end="zoomminus.mouseout"/></use>
    <path d="M-4,0h8" fill="none" stroke="white" stroke-width="1.5" pointer-events="none"/>
  </g>
  <g id="arrowUp" transform="translate(30 24)">
    <use xlink:href="#rim"/>
    <path pointer-events="none" fill="none" stroke="white" stroke-width="1.5" d="M0,-3.0v7 M-2.5,-0.5L0,-3.0L2.5,-0.5"/>
  </g>
  <g id="arrowRight" transform="rotate(90) translate(36 -43)">
    <use xlink:href="#rim"/>
    <path pointer-events="none" fill="none" stroke="white" stroke-width="1.5" d="M0,-3.0v7 M-2.5,-0.5L0,-3.0L2.5,-0.5"/>
  </g>
  <g id="arrowDown" transform="rotate(180) translate(-30 -48)">
    <use xlink:href="#rim"/>
    <path pointer-events="none" fill="none" stroke="white" stroke-width="1.5" d="M0,-3.0v7 M-2.5,-0.5L0,-3.0L2.5,-0.5"/>
  </g>
  <g id="arrowLeft" transform="rotate(270) translate(-36 17)">
    <use xlink:href="#rim"/>
    <path pointer-events="none" fill="none" stroke="white" stroke-width="1.5" d="M0,-3.0v7 M-2.5,-0.5L0,-3.0L2.5,-0.5"/>
  </g>
  <g id="resetDef">
    <use xlink:href="#rim2" fill="#404040"><set attributeName="fill" to="#808080" begin="reset.mouseover" end="reset.mouseout"/></use>
  </g>
</defs>
<script type="application/ecmascript">
var viewWidth = 1194;
var viewHeight = 382;
var sectionId = 'dynsection-0';
</script>
<script type="application/ecmascript" xlink:href="svg.min.js"/>
<svg id="graph" class="graph">
<g id="viewport">
<title>source/motion/motor/motor_convert.c</title>
<!-- Node1 -->
<g id="Node000001" class="node">
<title>Node1</title>
<g id="a_Node000001"><a xlink:title=" ">
<polygon fill="#999999" stroke="#666666" points="769,-374 651,-374 651,-340.5 769,-340.5 769,-374"/>
<text xml:space="preserve" text-anchor="start" x="659" y="-360.5" font-family="Helvetica,sans-Serif" font-size="10.00">source/motion/motor</text>
<text xml:space="preserve" text-anchor="middle" x="710" y="-347.75" font-family="Helvetica,sans-Serif" font-size="10.00">/motor_convert.c</text>
</a>
</g>
</g>
<!-- Node2 -->
<g id="Node000002" class="node">
<title>Node2</title>
<g id="a_Node000002"><a xlink:href="motor__convert_8h.html" target="_top" xlink:title=" ">
<polygon fill="white" stroke="#666666" points="712.12,-304.5 615.88,-304.5 615.88,-283.75 712.12,-283.75 712.12,-304.5"/>
<text xml:space="preserve" text-anchor="middle" x="664" y="-291" font-family="Helvetica,sans-Serif" font-size="10.00">motor_convert.h</text>
</a>
</g>
</g>
<!-- Node1&#45;&gt;Node2 -->
<g id="edge1_Node000001_Node000002" class="edge">
<title>Node1&#45;&gt;Node2</title>
<g id="a_edge1_Node000001_Node000002"><a xlink:title=" ">
<path fill="none" stroke="#63b8ff" d="M697.91,-340.19C691.87,-332.16 684.51,-322.38 678.2,-313.99"/>
<polygon fill="#63b8ff" stroke="#63b8ff" points="681.13,-312.06 672.32,-306.18 675.53,-316.27 681.13,-312.06"/>
</a>
</g>
</g>
<!-- Node22 -->
<g id="Node000022" class="node">
<title>Node22</title>
<g id="a_Node000022"><a xlink:href="motor__internal_8h.html" target="_top" xlink:title=" ">
<polygon fill="white" stroke="#666666" points="595.5,-304.5 498.5,-304.5 498.5,-283.75 595.5,-283.75 595.5,-304.5"/>
<text xml:space="preserve" text-anchor="middle" x="547" y="-291" font-family="Helvetica,sans-Serif" font-size="10.00">motor_internal.h</text>
</a>
</g>
</g>
<!-- Node1&#45;&gt;Node22 -->
<g id="edge36_Node000001_Node000022" class="edge">
<title>Node1&#45;&gt;Node22</title>
<g id="a_edge36_Node000001_Node000022"><a xlink:title=" ">
<path fill="none" stroke="#63b8ff" d="M666.75,-340.03C640.9,-330.34 608.42,-318.16 583.81,-308.93"/>
<polygon fill="#63b8ff" stroke="#63b8ff" points="585.12,-305.68 574.52,-305.45 582.66,-312.23 585.12,-305.68"/>
</a>
</g>
</g>
<!-- Node24 -->
<g id="Node000024" class="node">
<title>Node24</title>
<g id="a_Node000024"><a xlink:title=" ">
<polygon fill="#e0e0e0" stroke="#999999" points="783.38,-304.5 730.62,-304.5 730.62,-283.75 783.38,-283.75 783.38,-304.5"/>
<text xml:space="preserve" text-anchor="middle" x="757" y="-291" font-family="Helvetica,sans-Serif" font-size="10.00">limits.h</text>
</a>
</g>
</g>
<!-- Node1&#45;&gt;Node24 -->
<g id="edge41_Node000001_Node000024" class="edge">
<title>Node1&#45;&gt;Node24</title>
<g id="a_edge41_Node000001_Node000024"><a xlink:title=" ">
<path fill="none" stroke="#63b8ff" d="M722.35,-340.19C728.53,-332.16 736.04,-322.38 742.49,-313.99"/>
<polygon fill="#63b8ff" stroke="#63b8ff" points="745.19,-316.23 748.51,-306.17 739.64,-311.96 745.19,-316.23"/>
</a>
</g>
</g>
<!-- Node25 -->
<g id="Node000025" class="node">
<title>Node25</title>
<g id="a_Node000025"><a xlink:title=" ">
<polygon fill="#e0e0e0" stroke="#999999" points="852.25,-304.5 801.75,-304.5 801.75,-283.75 852.25,-283.75 852.25,-304.5"/>
<text xml:space="preserve" text-anchor="middle" x="827" y="-291" font-family="Helvetica,sans-Serif" font-size="10.00">math.h</text>
</a>
</g>
</g>
<!-- Node1&#45;&gt;Node25 -->
<g id="edge42_Node000001_Node000025" class="edge">
<title>Node1&#45;&gt;Node25</title>
<g id="a_edge42_Node000001_Node000025"><a xlink:title=" ">
<path fill="none" stroke="#63b8ff" d="M741.05,-340.03C758.76,-330.77 780.82,-319.25 798.16,-310.19"/>
<polygon fill="#63b8ff" stroke="#63b8ff" points="799.68,-313.35 806.92,-305.62 796.44,-307.14 799.68,-313.35"/>
</a>
</g>
</g>
<!-- Node3 -->
<g id="Node000003" class="node">
<title>Node3</title>
<g id="a_Node000003"><a xlink:href="motor_8h.html" target="_top" xlink:title=" ">
<polygon fill="white" stroke="#666666" points="699.75,-247.75 646.25,-247.75 646.25,-227 699.75,-227 699.75,-247.75"/>
<text xml:space="preserve" text-anchor="middle" x="673" y="-234.25" font-family="Helvetica,sans-Serif" font-size="10.00">motor.h</text>
</a>
</g>
</g>
<!-- Node2&#45;&gt;Node3 -->
<g id="edge2_Node000002_Node000003" class="edge">
<title>Node2&#45;&gt;Node3</title>
<g id="a_edge2_Node000002_Node000003"><a xlink:title=" ">
<path fill="none" stroke="#63b8ff" d="M665.61,-283.34C666.71,-276.64 668.21,-267.51 669.57,-259.23"/>
<polygon fill="#63b8ff" stroke="#63b8ff" points="672.99,-260.01 671.16,-249.57 666.08,-258.87 672.99,-260.01"/>
</a>
</g>
</g>
<!-- Node4 -->
<g id="Node000004" class="node">
<title>Node4</title>
<g id="a_Node000004"><a xlink:href="pca9555a_8h.html" target="_top" xlink:title=" ">
<polygon fill="white" stroke="#666666" points="1186,-77.5 1032,-77.5 1032,-56.75 1186,-56.75 1186,-77.5"/>
<text xml:space="preserve" text-anchor="middle" x="1109" y="-64" font-family="Helvetica,sans-Serif" font-size="10.00">driver/pca9555a/pca9555a.h</text>
</a>
</g>
</g>
<!-- Node3&#45;&gt;Node4 -->
<g id="edge3_Node000003_Node000004" class="edge">
<title>Node3&#45;&gt;Node4</title>
<g id="a_edge3_Node000003_Node000004"><a xlink:title=" ">
<path fill="none" stroke="#63b8ff" d="M699.91,-233.48C741.83,-228.37 824.77,-215.87 891,-191 966.79,-162.54 1047.75,-110.4 1086.2,-84.14"/>
<polygon fill="#63b8ff" stroke="#63b8ff" points="1087.96,-87.18 1094.21,-78.62 1083.99,-81.42 1087.96,-87.18"/>
</a>
</g>
</g>
<!-- Node7 -->
<g id="Node000007" class="node">
<title>Node7</title>
<g id="a_Node000007"><a xlink:href="step__core_8h.html" target="_top" xlink:title=" ">
<polygon fill="white" stroke="#666666" points="747.12,-191 674.88,-191 674.88,-170.25 747.12,-170.25 747.12,-191"/>
<text xml:space="preserve" text-anchor="middle" x="711" y="-177.5" font-family="Helvetica,sans-Serif" font-size="10.00">step_core.h</text>
</a>
</g>
</g>
<!-- Node3&#45;&gt;Node7 -->
<g id="edge6_Node000003_Node000007" class="edge">
<title>Node3&#45;&gt;Node7</title>
<g id="a_edge6_Node000003_Node000007"><a xlink:title=" ">
<path fill="none" stroke="#63b8ff" d="M679.79,-226.59C684.77,-219.42 691.67,-209.48 697.72,-200.76"/>
<polygon fill="#63b8ff" stroke="#63b8ff" points="700.58,-202.78 703.4,-192.57 694.82,-198.79 700.58,-202.78"/>
</a>
</g>
</g>
<!-- Node10 -->
<g id="Node000010" class="node">
<title>Node10</title>
<g id="a_Node000010"><a xlink:title=" ">
<polygon fill="#e0e0e0" stroke="#999999" points="674.38,-77.5 615.62,-77.5 615.62,-56.75 674.38,-56.75 674.38,-77.5"/>
<text xml:space="preserve" text-anchor="middle" x="645" y="-64" font-family="Helvetica,sans-Serif" font-size="10.00">fsl_ftm.h</text>
</a>
</g>
</g>
<!-- Node3&#45;&gt;Node10 -->
<g id="edge33_Node000003_Node000010" class="edge">
<title>Node3&#45;&gt;Node10</title>
<g id="a_edge33_Node000003_Node000010"><a xlink:title=" ">
<path fill="none" stroke="#63b8ff" d="M671.41,-226.85C667.03,-200.48 654.64,-126.08 648.52,-89.28"/>
<polygon fill="#63b8ff" stroke="#63b8ff" points="651.98,-88.75 646.89,-79.46 645.08,-89.9 651.98,-88.75"/>
</a>
</g>
</g>
<!-- Node11 -->
<g id="Node000011" class="node">
<title>Node11</title>
<g id="a_Node000011"><a xlink:title=" ">
<polygon fill="#e0e0e0" stroke="#999999" points="933.62,-77.5 870.38,-77.5 870.38,-56.75 933.62,-56.75 933.62,-77.5"/>
<text xml:space="preserve" text-anchor="middle" x="902" y="-64" font-family="Helvetica,sans-Serif" font-size="10.00">fsl_gpio.h</text>
</a>
</g>
</g>
<!-- Node3&#45;&gt;Node11 -->
<g id="edge34_Node000003_Node000011" class="edge">
<title>Node3&#45;&gt;Node11</title>
<g id="a_edge34_Node000003_Node000011"><a xlink:title=" ">
<path fill="none" stroke="#63b8ff" d="M700,-233.19C749.22,-225.78 852.73,-202.49 899,-134.25 907.98,-121.01 908.08,-102.61 906.3,-88.59"/>
<polygon fill="#63b8ff" stroke="#63b8ff" points="909.82,-88.38 904.69,-79.11 902.92,-89.56 909.82,-88.38"/>
</a>
</g>
</g>
<!-- Node12 -->
<g id="Node000012" class="node">
<title>Node12</title>
<g id="a_Node000012"><a xlink:title=" ">
<polygon fill="#e0e0e0" stroke="#999999" points="1013.88,-77.5 952.12,-77.5 952.12,-56.75 1013.88,-56.75 1013.88,-77.5"/>
<text xml:space="preserve" text-anchor="middle" x="983" y="-64" font-family="Helvetica,sans-Serif" font-size="10.00">fsl_port.h</text>
</a>
</g>
</g>
<!-- Node3&#45;&gt;Node12 -->
<g id="edge35_Node000003_Node000012" class="edge">
<title>Node3&#45;&gt;Node12</title>
<g id="a_edge35_Node000003_Node000012"><a xlink:title=" ">
<path fill="none" stroke="#63b8ff" d="M700.22,-234.63C738.74,-231.14 810.34,-220.86 863,-191 909.69,-164.53 950.05,-114.53 969.9,-87.18"/>
<polygon fill="#63b8ff" stroke="#63b8ff" points="972.67,-89.32 975.59,-79.14 966.96,-85.28 972.67,-89.32"/>
</a>
</g>
</g>
<!-- Node19 -->
<g id="Node000019" class="node">
<title>Node19</title>
<g id="a_Node000019"><a xlink:href="tmc2209__core_8h.html" target="_top" xlink:title=" ">
<polygon fill="white" stroke="#666666" points="420,-191 326,-191 326,-170.25 420,-170.25 420,-191"/>
<text xml:space="preserve" text-anchor="middle" x="373" y="-177.5" font-family="Helvetica,sans-Serif" font-size="10.00">tmc2209_core.h</text>
</a>
</g>
</g>
<!-- Node3&#45;&gt;Node19 -->
<g id="edge27_Node000003_Node000019" class="edge">
<title>Node3&#45;&gt;Node19</title>
<g id="a_edge27_Node000003_Node000019"><a xlink:title=" ">
<path fill="none" stroke="#63b8ff" d="M645.85,-231.42C597.68,-222.63 496.27,-204.12 431.57,-192.31"/>
<polygon fill="#63b8ff" stroke="#63b8ff" points="432.28,-188.89 421.82,-190.53 431.02,-195.77 432.28,-188.89"/>
</a>
</g>
</g>
<!-- Node5 -->
<g id="Node000005" class="node">
<title>Node5</title>
<g id="a_Node000005"><a xlink:title=" ">
<polygon fill="#e0e0e0" stroke="#999999" points="630.5,-20.75 545.5,-20.75 545.5,0 630.5,0 630.5,-20.75"/>
<text xml:space="preserve" text-anchor="middle" x="588" y="-7.25" font-family="Helvetica,sans-Serif" font-size="10.00">fsl_common.h</text>
</a>
</g>
</g>
<!-- Node4&#45;&gt;Node5 -->
<g id="edge4_Node000004_Node000005" class="edge">
<title>Node4&#45;&gt;Node5</title>
<g id="a_edge4_Node000004_Node000005"><a xlink:title=" ">
<path fill="none" stroke="#63b8ff" d="M1031.65,-57.68C1028.73,-57.36 1025.84,-57.05 1023,-56.75 885.95,-42.13 724.55,-25.43 642.24,-16.95"/>
<polygon fill="#63b8ff" stroke="#63b8ff" points="642.73,-13.48 632.42,-15.94 642.01,-20.45 642.73,-13.48"/>
</a>
</g>
</g>
<!-- Node6 -->
<g id="Node000006" class="node">
<title>Node6</title>
<g id="a_Node000006"><a xlink:title=" ">
<polygon fill="#e0e0e0" stroke="#999999" points="937.88,-20.75 858.12,-20.75 858.12,0 937.88,0 937.88,-20.75"/>
<text xml:space="preserve" text-anchor="middle" x="898" y="-7.25" font-family="Helvetica,sans-Serif" font-size="10.00">peripherals.h</text>
</a>
</g>
</g>
<!-- Node4&#45;&gt;Node6 -->
<g id="edge5_Node000004_Node000006" class="edge">
<title>Node4&#45;&gt;Node6</title>
<g id="a_edge5_Node000004_Node000006"><a xlink:title=" ">
<path fill="none" stroke="#63b8ff" d="M1071.28,-56.34C1036.43,-47.29 984.47,-33.81 946.54,-23.97"/>
<polygon fill="#63b8ff" stroke="#63b8ff" points="947.77,-20.67 937.22,-21.55 946.02,-27.45 947.77,-20.67"/>
</a>
</g>
</g>
<!-- Node7&#45;&gt;Node4 -->
<g id="edge7_Node000007_Node000004" class="edge">
<title>Node7&#45;&gt;Node4</title>
<g id="a_edge7_Node000007_Node000004"><a xlink:title=" ">
<path fill="none" stroke="#63b8ff" d="M747.27,-173.76C790.86,-166.32 866,-152.27 929,-134.25 981.07,-119.35 1039.64,-96.69 1075.43,-82.14"/>
<polygon fill="#63b8ff" stroke="#63b8ff" points="1076.45,-85.51 1084.38,-78.48 1073.8,-79.03 1076.45,-85.51"/>
</a>
</g>
</g>
<!-- Node7&#45;&gt;Node5 -->
<g id="edge10_Node000007_Node000005" class="edge">
<title>Node7&#45;&gt;Node5</title>
<g id="a_edge10_Node000007_Node000005"><a xlink:title=" ">
<path fill="none" stroke="#63b8ff" d="M697.33,-169.96C675.07,-153.53 631.08,-117.94 607,-77.5 598.67,-63.51 593.83,-45.68 591.11,-32.06"/>
<polygon fill="#63b8ff" stroke="#63b8ff" points="594.61,-31.71 589.45,-22.45 587.71,-32.91 594.61,-31.71"/>
</a>
</g>
</g>
<!-- Node8 -->
<g id="Node000008" class="node">
<title>Node8</title>
<g id="a_Node000008"><a xlink:title=" ">
<polygon fill="#e0e0e0" stroke="#999999" points="521.75,-77.5 450.25,-77.5 450.25,-56.75 521.75,-56.75 521.75,-77.5"/>
<text xml:space="preserve" text-anchor="middle" x="486" y="-64" font-family="Helvetica,sans-Serif" font-size="10.00">FreeRTOS.h</text>
</a>
</g>
</g>
<!-- Node7&#45;&gt;Node8 -->
<g id="edge8_Node000007_Node000008" class="edge">
<title>Node7&#45;&gt;Node8</title>
<g id="a_edge8_Node000007_Node000008"><a xlink:title=" ">
<path fill="none" stroke="#63b8ff" d="M691.43,-169.93C651.95,-150.36 562.57,-106.07 515.8,-82.89"/>
<polygon fill="#63b8ff" stroke="#63b8ff" points="517.56,-79.86 507.04,-78.55 514.45,-86.13 517.56,-79.86"/>
</a>
</g>
</g>
<!-- Node9 -->
<g id="Node000009" class="node">
<title>Node9</title>
<g id="a_Node000009"><a xlink:title=" ">
<polygon fill="#e0e0e0" stroke="#999999" points="890,-134.25 844,-134.25 844,-113.5 890,-113.5 890,-134.25"/>
<text xml:space="preserve" text-anchor="middle" x="867" y="-120.75" font-family="Helvetica,sans-Serif" font-size="10.00">task.h</text>
</a>
</g>
</g>
<!-- Node7&#45;&gt;Node9 -->
<g id="edge9_Node000007_Node000009" class="edge">
<title>Node7&#45;&gt;Node9</title>
<g id="a_edge9_Node000007_Node000009"><a xlink:title=" ">
<path fill="none" stroke="#63b8ff" d="M738.89,-169.84C765.35,-160.55 805.15,-146.58 833.36,-136.68"/>
<polygon fill="#63b8ff" stroke="#63b8ff" points="834.22,-140.09 842.49,-133.48 831.9,-133.49 834.22,-140.09"/>
</a>
</g>
</g>
<!-- Node7&#45;&gt;Node10 -->
<g id="edge11_Node000007_Node000010" class="edge">
<title>Node7&#45;&gt;Node10</title>
<g id="a_edge11_Node000007_Node000010"><a xlink:title=" ">
<path fill="none" stroke="#63b8ff" d="M705.37,-170.12C694.61,-151.94 670.93,-111.92 656.63,-87.77"/>
<polygon fill="#63b8ff" stroke="#63b8ff" points="659.68,-86.05 651.57,-79.23 653.65,-89.62 659.68,-86.05"/>
</a>
</g>
</g>
<!-- Node7&#45;&gt;Node11 -->
<g id="edge12_Node000007_Node000011" class="edge">
<title>Node7&#45;&gt;Node11</title>
<g id="a_edge12_Node000007_Node000011"><a xlink:title=" ">
<path fill="none" stroke="#63b8ff" d="M730.7,-169.77C748.28,-160.85 774.63,-147.17 797,-134.25 825.22,-117.95 856.74,-97.83 877.82,-84.09"/>
<polygon fill="#63b8ff" stroke="#63b8ff" points="879.55,-87.14 886,-78.74 875.72,-81.29 879.55,-87.14"/>
</a>
</g>
</g>
<!-- Node7&#45;&gt;Node12 -->
<g id="edge13_Node000007_Node000012" class="edge">
<title>Node7&#45;&gt;Node12</title>
<g id="a_edge13_Node000007_Node000012"><a xlink:title=" ">
<path fill="none" stroke="#63b8ff" d="M747.55,-175.52C786.62,-170.08 849.61,-158.22 899,-134.25 924.64,-121.81 949.75,-100.5 965.73,-85.44"/>
<polygon fill="#63b8ff" stroke="#63b8ff" points="967.78,-88.33 972.53,-78.86 962.91,-83.3 967.78,-88.33"/>
</a>
</g>
</g>
<!-- Node13 -->
<g id="Node000013" class="node">
<title>Node13</title>
<g id="a_Node000013"><a xlink:href="cmd__handle_8h.html" target="_top" xlink:title=" ">
<polygon fill="white" stroke="#666666" points="431.12,-134.25 346.88,-134.25 346.88,-113.5 431.12,-113.5 431.12,-134.25"/>
<text xml:space="preserve" text-anchor="middle" x="389" y="-120.75" font-family="Helvetica,sans-Serif" font-size="10.00">cmd_handle.h</text>
</a>
</g>
</g>
<!-- Node7&#45;&gt;Node13 -->
<g id="edge14_Node000007_Node000013" class="edge">
<title>Node7&#45;&gt;Node13</title>
<g id="a_edge14_Node000007_Node000013"><a xlink:title=" ">
<path fill="none" stroke="#63b8ff" d="M674.38,-173.4C617.7,-163.76 508.43,-145.18 442.78,-134.02"/>
<polygon fill="#63b8ff" stroke="#63b8ff" points="443.38,-130.57 432.94,-132.35 442.21,-137.47 443.38,-130.57"/>
</a>
</g>
</g>
<!-- Node17 -->
<g id="Node000017" class="node">
<title>Node17</title>
<g id="a_Node000017"><a xlink:href="step__shared_8h.html" target="_top" xlink:title=" ">
<polygon fill="white" stroke="#666666" points="788.12,-134.25 703.88,-134.25 703.88,-113.5 788.12,-113.5 788.12,-134.25"/>
<text xml:space="preserve" text-anchor="middle" x="746" y="-120.75" font-family="Helvetica,sans-Serif" font-size="10.00">step_shared.h</text>
</a>
</g>
</g>
<!-- Node7&#45;&gt;Node17 -->
<g id="edge20_Node000007_Node000017" class="edge">
<title>Node7&#45;&gt;Node17</title>
<g id="a_edge20_Node000007_Node000017"><a xlink:title=" ">
<path fill="none" stroke="#63b8ff" d="M717.26,-169.84C721.84,-162.67 728.2,-152.73 733.77,-144.01"/>
<polygon fill="#63b8ff" stroke="#63b8ff" points="736.54,-146.16 738.98,-135.85 730.65,-142.39 736.54,-146.16"/>
</a>
</g>
</g>
<!-- Node13&#45;&gt;Node5 -->
<g id="edge18_Node000013_Node000005" class="edge">
<title>Node13&#45;&gt;Node5</title>
<g id="a_edge18_Node000013_Node000005"><a xlink:title=" ">
<path fill="none" stroke="#63b8ff" d="M346.6,-122.18C275.74,-119.61 145.28,-108 191,-56.75 213.43,-31.61 430.43,-18.5 533.78,-13.63"/>
<polygon fill="#63b8ff" stroke="#63b8ff" points="533.87,-17.13 543.7,-13.18 533.55,-10.14 533.87,-17.13"/>
</a>
</g>
</g>
<!-- Node13&#45;&gt;Node8 -->
<g id="edge16_Node000013_Node000008" class="edge">
<title>Node13&#45;&gt;Node8</title>
<g id="a_edge16_Node000013_Node000008"><a xlink:title=" ">
<path fill="none" stroke="#63b8ff" d="M406.34,-113.09C420.96,-104.83 442.14,-92.88 458.98,-83.38"/>
<polygon fill="#63b8ff" stroke="#63b8ff" points="460.5,-86.54 467.49,-78.57 457.06,-80.44 460.5,-86.54"/>
</a>
</g>
</g>
<!-- Node14 -->
<g id="Node000014" class="node">
<title>Node14</title>
<g id="a_Node000014"><a xlink:title=" ">
<polygon fill="#e0e0e0" stroke="#999999" points="432.38,-77.5 379.62,-77.5 379.62,-56.75 432.38,-56.75 432.38,-77.5"/>
<text xml:space="preserve" text-anchor="middle" x="406" y="-64" font-family="Helvetica,sans-Serif" font-size="10.00">stdint.h</text>
</a>
</g>
</g>
<!-- Node13&#45;&gt;Node14 -->
<g id="edge15_Node000013_Node000014" class="edge">
<title>Node13&#45;&gt;Node14</title>
<g id="a_edge15_Node000013_Node000014"><a xlink:title=" ">
<path fill="none" stroke="#63b8ff" d="M392.04,-113.09C394.14,-106.31 397.02,-97.05 399.61,-88.69"/>
<polygon fill="#63b8ff" stroke="#63b8ff" points="402.92,-89.86 402.54,-79.27 396.23,-87.79 402.92,-89.86"/>
</a>
</g>
</g>
<!-- Node15 -->
<g id="Node000015" class="node">
<title>Node15</title>
<g id="a_Node000015"><a xlink:title=" ">
<polygon fill="#e0e0e0" stroke="#999999" points="291.5,-77.5 200.5,-77.5 200.5,-56.75 291.5,-56.75 291.5,-77.5"/>
<text xml:space="preserve" text-anchor="middle" x="246" y="-64" font-family="Helvetica,sans-Serif" font-size="10.00">event_groups.h</text>
</a>
</g>
</g>
<!-- Node13&#45;&gt;Node15 -->
<g id="edge17_Node000013_Node000015" class="edge">
<title>Node13&#45;&gt;Node15</title>
<g id="a_edge17_Node000013_Node000015"><a xlink:title=" ">
<path fill="none" stroke="#63b8ff" d="M363.43,-113.09C340.76,-104.41 307.4,-91.63 282.02,-81.92"/>
<polygon fill="#63b8ff" stroke="#63b8ff" points="283.35,-78.68 272.76,-78.37 280.85,-85.21 283.35,-78.68"/>
</a>
</g>
</g>
<!-- Node16 -->
<g id="Node000016" class="node">
<title>Node16</title>
<g id="a_Node000016"><a xlink:title=" ">
<polygon fill="#e0e0e0" stroke="#999999" points="362,-77.5 310,-77.5 310,-56.75 362,-56.75 362,-77.5"/>
<text xml:space="preserve" text-anchor="middle" x="336" y="-64" font-family="Helvetica,sans-Serif" font-size="10.00">stdlib.h</text>
</a>
</g>
</g>
<!-- Node13&#45;&gt;Node16 -->
<g id="edge19_Node000013_Node000016" class="edge">
<title>Node13&#45;&gt;Node16</title>
<g id="a_edge19_Node000013_Node000016"><a xlink:title=" ">
<path fill="none" stroke="#63b8ff" d="M379.52,-113.09C372.21,-105.53 361.91,-94.89 353.16,-85.85"/>
<polygon fill="#63b8ff" stroke="#63b8ff" points="355.92,-83.67 346.45,-78.92 350.89,-88.54 355.92,-83.67"/>
</a>
</g>
</g>
<!-- Node17&#45;&gt;Node4 -->
<g id="edge21_Node000017_Node000004" class="edge">
<title>Node17&#45;&gt;Node4</title>
<g id="a_edge21_Node000017_Node000004"><a xlink:title=" ">
<path fill="none" stroke="#63b8ff" d="M788.35,-116.49C848.12,-107.47 958.21,-90.87 1032.51,-79.66"/>
<polygon fill="#63b8ff" stroke="#63b8ff" points="1032.79,-83.16 1042.16,-78.21 1031.75,-76.24 1032.79,-83.16"/>
</a>
</g>
</g>
<!-- Node17&#45;&gt;Node5 -->
<g id="edge23_Node000017_Node000005" class="edge">
<title>Node17&#45;&gt;Node5</title>
<g id="a_edge23_Node000017_Node000005"><a xlink:title=" ">
<path fill="none" stroke="#63b8ff" d="M738.75,-113.28C727.86,-99.39 706.1,-73.51 683,-56.75 665.4,-43.98 643.64,-33.28 625.38,-25.48"/>
<polygon fill="#63b8ff" stroke="#63b8ff" points="626.8,-22.28 616.22,-21.7 624.13,-28.75 626.8,-22.28"/>
</a>
</g>
</g>
<!-- Node17&#45;&gt;Node10 -->
<g id="edge24_Node000017_Node000010" class="edge">
<title>Node17&#45;&gt;Node10</title>
<g id="a_edge24_Node000017_Node000010"><a xlink:title=" ">
<path fill="none" stroke="#63b8ff" d="M727.94,-113.09C712.58,-104.76 690.26,-92.66 672.64,-83.11"/>
<polygon fill="#63b8ff" stroke="#63b8ff" points="674.69,-80.24 664.23,-78.55 671.35,-86.39 674.69,-80.24"/>
</a>
</g>
</g>
<!-- Node17&#45;&gt;Node11 -->
<g id="edge25_Node000017_Node000011" class="edge">
<title>Node17&#45;&gt;Node11</title>
<g id="a_edge25_Node000017_Node000011"><a xlink:title=" ">
<path fill="none" stroke="#63b8ff" d="M773.89,-113.09C798.88,-104.32 835.77,-91.37 863.56,-81.62"/>
<polygon fill="#63b8ff" stroke="#63b8ff" points="864.38,-85.04 872.66,-78.42 862.07,-78.43 864.38,-85.04"/>
</a>
</g>
</g>
<!-- Node17&#45;&gt;Node12 -->
<g id="edge26_Node000017_Node000012" class="edge">
<title>Node17&#45;&gt;Node12</title>
<g id="a_edge26_Node000017_Node000012"><a xlink:title=" ">
<path fill="none" stroke="#63b8ff" d="M788.28,-113.19C825.84,-104.57 882.54,-91.53 941.05,-77.95"/>
<polygon fill="#63b8ff" stroke="#63b8ff" points="941.57,-81.42 950.52,-75.75 939.99,-74.6 941.57,-81.42"/>
</a>
</g>
</g>
<!-- Node18 -->
<g id="Node000018" class="node">
<title>Node18</title>
<g id="a_Node000018"><a xlink:title=" ">
<polygon fill="#e0e0e0" stroke="#999999" points="852.25,-77.5 729.75,-77.5 729.75,-56.75 852.25,-56.75 852.25,-77.5"/>
<text xml:space="preserve" text-anchor="middle" x="791" y="-64" font-family="Helvetica,sans-Serif" font-size="10.00">fsl_device_registers.h</text>
</a>
</g>
</g>
<!-- Node17&#45;&gt;Node18 -->
<g id="edge22_Node000017_Node000018" class="edge">
<title>Node17&#45;&gt;Node18</title>
<g id="a_edge22_Node000017_Node000018"><a xlink:title=" ">
<path fill="none" stroke="#63b8ff" d="M754.05,-113.09C760.06,-105.77 768.47,-95.54 775.74,-86.69"/>
<polygon fill="#63b8ff" stroke="#63b8ff" points="778.42,-88.95 782.06,-79 773.01,-84.5 778.42,-88.95"/>
</a>
</g>
</g>
<!-- Node19&#45;&gt;Node5 -->
<g id="edge30_Node000019_Node000005" class="edge">
<title>Node19&#45;&gt;Node5</title>
<g id="a_edge30_Node000019_Node000005"><a xlink:title=" ">
<path fill="none" stroke="#63b8ff" d="M327.26,-169.81C255.14,-152.36 128.08,-112.5 178,-56.75 201.34,-30.68 427.97,-17.97 533.92,-13.42"/>
<polygon fill="#63b8ff" stroke="#63b8ff" points="533.95,-16.92 543.79,-13 533.65,-9.92 533.95,-16.92"/>
</a>
</g>
</g>
<!-- Node19&#45;&gt;Node6 -->
<g id="edge32_Node000019_Node000006" class="edge">
<title>Node19&#45;&gt;Node6</title>
<g id="a_edge32_Node000019_Node000006"><a xlink:title=" ">
<path fill="none" stroke="#63b8ff" d="M387.56,-169.76C423.24,-146.11 518.56,-85.97 607,-56.75 688.25,-29.91 787.62,-18.77 846.7,-14.27"/>
<polygon fill="#63b8ff" stroke="#63b8ff" points="846.73,-17.78 856.46,-13.57 846.23,-10.8 846.73,-17.78"/>
</a>
</g>
</g>
<!-- Node19&#45;&gt;Node13 -->
<g id="edge31_Node000019_Node000013" class="edge">
<title>Node19&#45;&gt;Node13</title>
<g id="a_edge31_Node000019_Node000013"><a xlink:title=" ">
<path fill="none" stroke="#63b8ff" d="M375.86,-169.84C377.84,-163.06 380.55,-153.8 382.99,-145.44"/>
<polygon fill="#63b8ff" stroke="#63b8ff" points="386.29,-146.61 385.74,-136.03 379.58,-144.65 386.29,-146.61"/>
</a>
</g>
</g>
<!-- Node20 -->
<g id="Node000020" class="node">
<title>Node20</title>
<g id="a_Node000020"><a xlink:href="tmc2209__shared_8h.html" target="_top" xlink:title=" ">
<polygon fill="white" stroke="#666666" points="106,-134.25 0,-134.25 0,-113.5 106,-113.5 106,-134.25"/>
<text xml:space="preserve" text-anchor="middle" x="53" y="-120.75" font-family="Helvetica,sans-Serif" font-size="10.00">tmc2209_shared.h</text>
</a>
</g>
</g>
<!-- Node19&#45;&gt;Node20 -->
<g id="edge28_Node000019_Node000020" class="edge">
<title>Node19&#45;&gt;Node20</title>
<g id="a_edge28_Node000019_Node000020"><a xlink:title=" ">
<path fill="none" stroke="#63b8ff" d="M325.78,-171.55C270.63,-162.11 179.09,-146.45 117.43,-135.9"/>
<polygon fill="#63b8ff" stroke="#63b8ff" points="118.22,-132.48 107.78,-134.25 117.04,-139.38 118.22,-132.48"/>
</a>
</g>
</g>
<!-- Node21 -->
<g id="Node000021" class="node">
<title>Node21</title>
<g id="a_Node000021"><a xlink:title=" ">
<polygon fill="#e0e0e0" stroke="#999999" points="105.62,-77.5 0.38,-77.5 0.38,-56.75 105.62,-56.75 105.62,-77.5"/>
<text xml:space="preserve" text-anchor="middle" x="53" y="-64" font-family="Helvetica,sans-Serif" font-size="10.00">fsl_uart_freertos.h</text>
</a>
</g>
</g>
<!-- Node20&#45;&gt;Node21 -->
<g id="edge29_Node000020_Node000021" class="edge">
<title>Node20&#45;&gt;Node21</title>
<g id="a_edge29_Node000020_Node000021"><a xlink:title=" ">
<path fill="none" stroke="#63b8ff" d="M53,-113.09C53,-106.47 53,-97.47 53,-89.27"/>
<polygon fill="#63b8ff" stroke="#63b8ff" points="56.5,-89.34 53,-79.34 49.5,-89.34 56.5,-89.34"/>
</a>
</g>
</g>
<!-- Node22&#45;&gt;Node3 -->
<g id="edge37_Node000022_Node000003" class="edge">
<title>Node22&#45;&gt;Node3</title>
<g id="a_edge37_Node000022_Node000003"><a xlink:title=" ">
<path fill="none" stroke="#63b8ff" d="M569.53,-283.34C589.24,-274.77 618.11,-262.23 640.35,-252.56"/>
<polygon fill="#63b8ff" stroke="#63b8ff" points="641.5,-255.88 649.28,-248.68 638.71,-249.46 641.5,-255.88"/>
</a>
</g>
</g>
<!-- Node22&#45;&gt;Node8 -->
<g id="edge38_Node000022_Node000008" class="edge">
<title>Node22&#45;&gt;Node8</title>
<g id="a_edge38_Node000022_Node000008"><a xlink:title=" ">
<path fill="none" stroke="#63b8ff" d="M536.65,-283.36C528.28,-274.81 516.94,-261.62 511,-247.75 488.04,-194.11 485.22,-124 485.41,-89.37"/>
<polygon fill="#63b8ff" stroke="#63b8ff" points="488.91,-89.52 485.58,-79.46 481.91,-89.4 488.91,-89.52"/>
</a>
</g>
</g>
<!-- Node22&#45;&gt;Node13 -->
<g id="edge40_Node000022_Node000013" class="edge">
<title>Node22&#45;&gt;Node13</title>
<g id="a_edge40_Node000022_Node000013"><a xlink:title=" ">
<path fill="none" stroke="#63b8ff" d="M524.55,-283.4C508.43,-275.57 486.99,-263.31 472,-247.75 444.67,-219.38 451.71,-202.43 429,-170.25 422.23,-160.65 413.73,-150.77 406.32,-142.7"/>
<polygon fill="#63b8ff" stroke="#63b8ff" points="408.99,-140.43 399.59,-135.55 403.9,-145.23 408.99,-140.43"/>
</a>
</g>
</g>
<!-- Node23 -->
<g id="Node000023" class="node">
<title>Node23</title>
<g id="a_Node000023"><a xlink:title=" ">
<polygon fill="#e0e0e0" stroke="#999999" points="574.5,-247.75 519.5,-247.75 519.5,-227 574.5,-227 574.5,-247.75"/>
<text xml:space="preserve" text-anchor="middle" x="547" y="-234.25" font-family="Helvetica,sans-Serif" font-size="10.00">queue.h</text>
</a>
</g>
</g>
<!-- Node22&#45;&gt;Node23 -->
<g id="edge39_Node000022_Node000023" class="edge">
<title>Node22&#45;&gt;Node23</title>
<g id="a_edge39_Node000022_Node000023"><a xlink:title=" ">
<path fill="none" stroke="#63b8ff" d="M547,-283.34C547,-276.72 547,-267.72 547,-259.52"/>
<polygon fill="#63b8ff" stroke="#63b8ff" points="550.5,-259.59 547,-249.59 543.5,-259.59 550.5,-259.59"/>
</a>
</g>
</g>
</g>
</svg>

<g id="navigator" transform="translate(0 0)" fill="#404254">
  <rect fill="#f2f5e9" fill-opacity="0.5" stroke="#606060" stroke-width=".5" x="0" y="0" width="60" height="60"/>
  <use id="zoomplus" xlink:href="#zoomPlus" x="17" y="9" onmousedown="handleZoom(evt,'in')"/>
  <use id="zoomminus" xlink:href="#zoomMin" x="42" y="9" onmousedown="handleZoom(evt,'out')"/>
  <use id="reset" xlink:href="#resetDef" x="30" y="36" onmousedown="handleReset()"/>
   <use id="arrowup" xlink:href="#arrowUp" x="0" y="0" onmousedown="handlePan(0,-1)"/>
  <use id="arrowright" xlink:href="#arrowRight" x="0" y="0" onmousedown="handlePan(1,0)"/>
  <use id="arrowdown" xlink:href="#arrowDown" x="0" y="0" onmousedown="handlePan(0,1)"/>
  <use id="arrowleft" xlink:href="#arrowLeft" x="0" y="0" onmousedown="handlePan(-1,0)"/>
</g>
<svg viewBox="0 0 15 15" width="100%" height="30px" preserveAspectRatio="xMaxYMin meet">
 <g id="arrow_out" transform="scale(0.3 0.3)">
  <a xlink:href="motor__convert_8c__incl_org.svg" target="_base">
   <rect id="button" ry="5" rx="5" y="6" x="6" height="38" width="38"
        fill="#f2f5e9" fill-opacity="0.5" stroke="#606060" stroke-width="1.0"/>
   <path id="arrow"
     d="M 11.500037,31.436501 C 11.940474,20.09759 22.043105,11.32322 32.158766,21.979434 L 37.068811,17.246167 C 37.068811,17.246167 37.088388,32 37.088388,32 L 22.160133,31.978069 C 22.160133,31.978069 26.997745,27.140456 26.997745,27.140456 C 18.528582,18.264221 13.291696,25.230495 11.500037,31.436501 z"
     style="fill:#404040;"/>
  </a>
 </g>
</svg>

<style type='text/css'>
<![CDATA[
[data-mouse-over-selected='false'] { opacity: 0.7; }
[data-mouse-over-selected='true']  { opacity: 1.0; }
]]>
</style>
<script type="application/ecmascript"><![CDATA[
document.addEventListener('DOMContentLoaded', (event) => {
  highlightEdges();
  highlightAdjacentNodes();
});
]]></script>
</svg>
