<?xml version="1.0" encoding="UTF-8" standalone="no"?>
<!DOCTYPE svg PUBLIC "-//W3C//DTD SVG 1.1//EN"
 "http://www.w3.org/Graphics/SVG/1.1/DTD/svg11.dtd">
<!-- Generated by graphviz version 14.1.4 (0)
 -->
<!-- Title: source/motion/motor/motor_internal.h Pages: 1 -->
<svg width="1074pt" height="181pt"
 viewBox="0.00 0.00 1074.00 181.00" xmlns="http://www.w3.org/2000/svg" xmlns:xlink="http://www.w3.org/1999/xlink">
<g id="graph0" class="graph" transform="scale(1 1) rotate(0) translate(4 176.5)">
<title>source/motion/motor/motor_internal.h</title>
<!-- Node1 -->
<g id="Node000001" class="node">
<title>Node1</title>
<g id="a_Node000001"><a xlink:title=" ">
<polygon fill="#999999" stroke="#666666" points="526,-172.5 408,-172.5 408,-139 526,-139 526,-172.5"/>
<text xml:space="preserve" text-anchor="start" x="416" y="-159" font-family="Helvetica,sans-Serif" font-size="10.00">source/motion/motor</text>
<text xml:space="preserve" text-anchor="middle" x="467" y="-146.25" font-family="Helvetica,sans-Serif" font-size="10.00">/motor_internal.h</text>
</a>
</g>
</g>
<!-- Node2 -->
<g id="Node000002" class="node">
<title>Node2</title>
<g id="a_Node000002"><a xlink:href="motor__convert_8c.html" target="_top" xlink:title=" ">
<polygon fill="white" stroke="#666666" points="118,-103 0,-103 0,-69.5 118,-69.5 118,-103"/>
<text xml:space="preserve" text-anchor="start" x="8" y="-89.5" font-family="Helvetica,sans-Serif" font-size="10.00">source/motion/motor</text>
<text xml:space="preserve" text-anchor="middle" x="59" y="-76.75" font-family="Helvetica,sans-Serif" font-size="10.00">/motor_convert.c</text>
</a>
</g>
</g>
<!-- Node1&#45;&gt;Node2 -->
<g id="edge1_Node000001_Node000002" class="edge">
<title>Node1&#45;&gt;Node2</title>
<g id="a_edge1_Node000001_Node000002"><a xlink:title=" ">
<path fill="none" stroke="#63b8ff" d="M396.66,-145.64C327.71,-136.34 219.77,-120.78 127,-103 124.14,-102.45 121.23,-101.87 118.28,-101.26"/>
<polygon fill="#63b8ff" stroke="#63b8ff" points="395.92,-149.08 406.3,-146.94 396.85,-142.14 395.92,-149.08"/>
</a>
</g>
</g>
<!-- Node3 -->
<g id="Node000003" class="node">
<title>Node3</title>
<g id="a_Node000003"><a xlink:href="motor__core_8h.html" target="_top" xlink:title=" ">
<polygon fill="white" stroke="#666666" points="254,-103 136,-103 136,-69.5 254,-69.5 254,-103"/>
<text xml:space="preserve" text-anchor="start" x="144" y="-89.5" font-family="Helvetica,sans-Serif" font-size="10.00">source/motion/motor</text>
<text xml:space="preserve" text-anchor="middle" x="195" y="-76.75" font-family="Helvetica,sans-Serif" font-size="10.00">/motor_core.h</text>
</a>
</g>
</g>
<!-- Node1&#45;&gt;Node3 -->
<g id="edge2_Node000001_Node000003" class="edge">
<title>Node1&#45;&gt;Node3</title>
<g id="a_edge2_Node000001_Node000003"><a xlink:title=" ">
<path fill="none" stroke="#63b8ff" d="M396.69,-137.3C352.5,-126.34 296.13,-112.35 254.23,-101.95"/>
<polygon fill="#63b8ff" stroke="#63b8ff" points="395.63,-140.64 406.18,-139.66 397.31,-133.85 395.63,-140.64"/>
</a>
</g>
</g>
<!-- Node6 -->
<g id="Node000006" class="node">
<title>Node6</title>
<g id="a_Node000006"><a xlink:href="motor__init_8h.html" target="_top" xlink:title=" ">
<polygon fill="white" stroke="#666666" points="526,-103 408,-103 408,-69.5 526,-69.5 526,-103"/>
<text xml:space="preserve" text-anchor="start" x="416" y="-89.5" font-family="Helvetica,sans-Serif" font-size="10.00">source/motion/motor</text>
<text xml:space="preserve" text-anchor="middle" x="467" y="-76.75" font-family="Helvetica,sans-Serif" font-size="10.00">/motor_init.h</text>
</a>
</g>
</g>
<!-- Node1&#45;&gt;Node6 -->
<g id="edge5_Node000001_Node000006" class="edge">
<title>Node1&#45;&gt;Node6</title>
<g id="a_edge5_Node000001_Node000006"><a xlink:title=" ">
<path fill="none" stroke="#63b8ff" d="M467,-127.31C467,-119.09 467,-110.34 467,-103.13"/>
<polygon fill="#63b8ff" stroke="#63b8ff" points="463.5,-127.24 467,-137.24 470.5,-127.24 463.5,-127.24"/>
</a>
</g>
</g>
<!-- Node9 -->
<g id="Node000009" class="node">
<title>Node9</title>
<g id="a_Node000009"><a xlink:href="motor__motion_8h.html" target="_top" xlink:title=" ">
<polygon fill="white" stroke="#666666" points="798,-103 680,-103 680,-69.5 798,-69.5 798,-103"/>
<text xml:space="preserve" text-anchor="start" x="688" y="-89.5" font-family="Helvetica,sans-Serif" font-size="10.00">source/motion/motor</text>
<text xml:space="preserve" text-anchor="middle" x="739" y="-76.75" font-family="Helvetica,sans-Serif" font-size="10.00">/motor_motion.h</text>
</a>
</g>
</g>
<!-- Node1&#45;&gt;Node9 -->
<g id="edge8_Node000001_Node000009" class="edge">
<title>Node1&#45;&gt;Node9</title>
<g id="a_edge8_Node000001_Node000009"><a xlink:title=" ">
<path fill="none" stroke="#63b8ff" d="M537.31,-137.3C581.5,-126.34 637.87,-112.35 679.77,-101.95"/>
<polygon fill="#63b8ff" stroke="#63b8ff" points="536.69,-133.85 527.82,-139.66 538.37,-140.64 536.69,-133.85"/>
</a>
</g>
</g>
<!-- Node12 -->
<g id="Node000012" class="node">
<title>Node12</title>
<g id="a_Node000012"><a xlink:href="motor__process_8h.html" target="_top" xlink:title=" ">
<polygon fill="white" stroke="#666666" points="390,-103 272,-103 272,-69.5 390,-69.5 390,-103"/>
<text xml:space="preserve" text-anchor="start" x="280" y="-89.5" font-family="Helvetica,sans-Serif" font-size="10.00">source/motion/motor</text>
<text xml:space="preserve" text-anchor="middle" x="331" y="-76.75" font-family="Helvetica,sans-Serif" font-size="10.00">/motor_process.h</text>
</a>
</g>
</g>
<!-- Node1&#45;&gt;Node12 -->
<g id="edge12_Node000001_Node000012" class="edge">
<title>Node1&#45;&gt;Node12</title>
<g id="a_edge12_Node000001_Node000012"><a xlink:title=" ">
<path fill="none" stroke="#63b8ff" d="M424.17,-133.49C404.48,-123.72 381.51,-112.32 363.31,-103.29"/>
<polygon fill="#63b8ff" stroke="#63b8ff" points="422.56,-136.6 433.07,-137.91 425.67,-130.33 422.56,-136.6"/>
</a>
</g>
</g>
<!-- Node13 -->
<g id="Node000013" class="node">
<title>Node13</title>
<g id="a_Node000013"><a xlink:href="motor__sync_8h.html" target="_top" xlink:title=" ">
<polygon fill="white" stroke="#666666" points="934,-103 816,-103 816,-69.5 934,-69.5 934,-103"/>
<text xml:space="preserve" text-anchor="start" x="824" y="-89.5" font-family="Helvetica,sans-Serif" font-size="10.00">source/motion/motor</text>
<text xml:space="preserve" text-anchor="middle" x="875" y="-76.75" font-family="Helvetica,sans-Serif" font-size="10.00">/motor_sync.h</text>
</a>
</g>
</g>
<!-- Node1&#45;&gt;Node13 -->
<g id="edge15_Node000001_Node000013" class="edge">
<title>Node1&#45;&gt;Node13</title>
<g id="a_edge15_Node000001_Node000013"><a xlink:title=" ">
<path fill="none" stroke="#63b8ff" d="M537.34,-145.64C606.29,-136.34 714.23,-120.78 807,-103 809.86,-102.45 812.77,-101.87 815.72,-101.26"/>
<polygon fill="#63b8ff" stroke="#63b8ff" points="537.15,-142.14 527.7,-146.94 538.08,-149.08 537.15,-142.14"/>
</a>
</g>
</g>
<!-- Node15 -->
<g id="Node000015" class="node">
<title>Node15</title>
<g id="a_Node000015"><a xlink:href="motor__tmc_8h.html" target="_top" xlink:title=" ">
<polygon fill="white" stroke="#666666" points="662,-103 544,-103 544,-69.5 662,-69.5 662,-103"/>
<text xml:space="preserve" text-anchor="start" x="552" y="-89.5" font-family="Helvetica,sans-Serif" font-size="10.00">source/motion/motor</text>
<text xml:space="preserve" text-anchor="middle" x="603" y="-76.75" font-family="Helvetica,sans-Serif" font-size="10.00">/motor_tmc.h</text>
</a>
</g>
</g>
<!-- Node1&#45;&gt;Node15 -->
<g id="edge18_Node000001_Node000015" class="edge">
<title>Node1&#45;&gt;Node15</title>
<g id="a_edge18_Node000001_Node000015"><a xlink:title=" ">
<path fill="none" stroke="#63b8ff" d="M509.83,-133.49C529.52,-123.72 552.49,-112.32 570.69,-103.29"/>
<polygon fill="#63b8ff" stroke="#63b8ff" points="508.33,-130.33 500.93,-137.91 511.44,-136.6 508.33,-130.33"/>
</a>
</g>
</g>
<!-- Node4 -->
<g id="Node000004" class="node">
<title>Node4</title>
<g id="a_Node000004"><a xlink:href="motor__core_8c.html" target="_top" xlink:title=" ">
<polygon fill="white" stroke="#666666" points="379,-33.5 261,-33.5 261,0 379,0 379,-33.5"/>
<text xml:space="preserve" text-anchor="start" x="269" y="-20" font-family="Helvetica,sans-Serif" font-size="10.00">source/motion/motor</text>
<text xml:space="preserve" text-anchor="middle" x="320" y="-7.25" font-family="Helvetica,sans-Serif" font-size="10.00">/motor_core.c</text>
</a>
</g>
</g>
<!-- Node3&#45;&gt;Node4 -->
<g id="edge3_Node000003_Node000004" class="edge">
<title>Node3&#45;&gt;Node4</title>
<g id="a_edge3_Node000003_Node000004"><a xlink:title=" ">
<path fill="none" stroke="#63b8ff" d="M234.86,-63.72C252.85,-54.01 273.73,-42.74 290.3,-33.79"/>
<polygon fill="#63b8ff" stroke="#63b8ff" points="233.41,-60.53 226.27,-68.36 236.73,-66.69 233.41,-60.53"/>
</a>
</g>
</g>
<!-- Node5 -->
<g id="Node000005" class="node">
<title>Node5</title>
<g id="a_Node000005"><a xlink:href="motor_8c.html" target="_top" xlink:title=" ">
<polygon fill="white" stroke="#666666" points="239,-27.12 151,-27.12 151,-6.38 239,-6.38 239,-27.12"/>
<text xml:space="preserve" text-anchor="middle" x="195" y="-13.62" font-family="Helvetica,sans-Serif" font-size="10.00">source/motor.c</text>
</a>
</g>
</g>
<!-- Node3&#45;&gt;Node5 -->
<g id="edge4_Node000003_Node000005" class="edge">
<title>Node3&#45;&gt;Node5</title>
<g id="a_edge4_Node000003_Node000005"><a xlink:title=" ">
<path fill="none" stroke="#63b8ff" d="M195,-57.78C195,-47.08 195,-35.51 195,-27.57"/>
<polygon fill="#63b8ff" stroke="#63b8ff" points="191.5,-57.74 195,-67.74 198.5,-57.74 191.5,-57.74"/>
</a>
</g>
</g>
<!-- Node7 -->
<g id="Node000007" class="node">
<title>Node7</title>
<g id="a_Node000007"><a xlink:href="motor__init_8c.html" target="_top" xlink:title=" ">
<polygon fill="white" stroke="#666666" points="522,-33.5 404,-33.5 404,0 522,0 522,-33.5"/>
<text xml:space="preserve" text-anchor="start" x="412" y="-20" font-family="Helvetica,sans-Serif" font-size="10.00">source/motion/motor</text>
<text xml:space="preserve" text-anchor="middle" x="463" y="-7.25" font-family="Helvetica,sans-Serif" font-size="10.00">/motor_init.c</text>
</a>
</g>
</g>
<!-- Node6&#45;&gt;Node7 -->
<g id="edge6_Node000006_Node000007" class="edge">
<title>Node6&#45;&gt;Node7</title>
<g id="a_edge6_Node000006_Node000007"><a xlink:title=" ">
<path fill="none" stroke="#63b8ff" d="M465.37,-57.81C464.89,-49.59 464.37,-40.84 463.94,-33.63"/>
<polygon fill="#63b8ff" stroke="#63b8ff" points="461.88,-57.97 465.96,-67.74 468.86,-57.55 461.88,-57.97"/>
</a>
</g>
</g>
<!-- Node8 -->
<g id="Node000008" class="node">
<title>Node8</title>
<g id="a_Node000008"><a xlink:href="motor__process_8c.html" target="_top" xlink:title=" ">
<polygon fill="white" stroke="#666666" points="658,-33.5 540,-33.5 540,0 658,0 658,-33.5"/>
<text xml:space="preserve" text-anchor="start" x="548" y="-20" font-family="Helvetica,sans-Serif" font-size="10.00">source/motion/motor</text>
<text xml:space="preserve" text-anchor="middle" x="599" y="-7.25" font-family="Helvetica,sans-Serif" font-size="10.00">/motor_process.c</text>
</a>
</g>
</g>
<!-- Node6&#45;&gt;Node8 -->
<g id="edge7_Node000006_Node000008" class="edge">
<title>Node6&#45;&gt;Node8</title>
<g id="a_edge7_Node000006_Node000008"><a xlink:title=" ">
<path fill="none" stroke="#63b8ff" d="M508.83,-63.86C527.88,-54.12 550.05,-42.78 567.64,-33.79"/>
<polygon fill="#63b8ff" stroke="#63b8ff" points="507.27,-60.72 499.96,-68.39 510.46,-66.96 507.27,-60.72"/>
</a>
</g>
</g>
<!-- Node9&#45;&gt;Node8 -->
<g id="edge10_Node000009_Node000008" class="edge">
<title>Node9&#45;&gt;Node8</title>
<g id="a_edge10_Node000009_Node000008"><a xlink:title=" ">
<path fill="none" stroke="#63b8ff" d="M695.19,-64.13C674.86,-54.33 651.09,-42.86 632.26,-33.79"/>
<polygon fill="#63b8ff" stroke="#63b8ff" points="693.58,-67.23 704.1,-68.42 696.62,-60.93 693.58,-67.23"/>
</a>
</g>
</g>
<!-- Node10 -->
<g id="Node000010" class="node">
<title>Node10</title>
<g id="a_Node000010"><a xlink:href="motor__motion_8c.html" target="_top" xlink:title=" ">
<polygon fill="white" stroke="#666666" points="930,-33.5 812,-33.5 812,0 930,0 930,-33.5"/>
<text xml:space="preserve" text-anchor="start" x="820" y="-20" font-family="Helvetica,sans-Serif" font-size="10.00">source/motion/motor</text>
<text xml:space="preserve" text-anchor="middle" x="871" y="-7.25" font-family="Helvetica,sans-Serif" font-size="10.00">/motor_motion.c</text>
</a>
</g>
</g>
<!-- Node9&#45;&gt;Node10 -->
<g id="edge9_Node000009_Node000010" class="edge">
<title>Node9&#45;&gt;Node10</title>
<g id="a_edge9_Node000009_Node000010"><a xlink:title=" ">
<path fill="none" stroke="#63b8ff" d="M780.83,-63.86C799.88,-54.12 822.05,-42.78 839.64,-33.79"/>
<polygon fill="#63b8ff" stroke="#63b8ff" points="779.27,-60.72 771.96,-68.39 782.46,-66.96 779.27,-60.72"/>
</a>
</g>
</g>
<!-- Node11 -->
<g id="Node000011" class="node">
<title>Node11</title>
<g id="a_Node000011"><a xlink:href="motor__tmc_8c.html" target="_top" xlink:title=" ">
<polygon fill="white" stroke="#666666" points="794,-33.5 676,-33.5 676,0 794,0 794,-33.5"/>
<text xml:space="preserve" text-anchor="start" x="684" y="-20" font-family="Helvetica,sans-Serif" font-size="10.00">source/motion/motor</text>
<text xml:space="preserve" text-anchor="middle" x="735" y="-7.25" font-family="Helvetica,sans-Serif" font-size="10.00">/motor_tmc.c</text>
</a>
</g>
</g>
<!-- Node9&#45;&gt;Node11 -->
<g id="edge11_Node000009_Node000011" class="edge">
<title>Node9&#45;&gt;Node11</title>
<g id="a_edge11_Node000009_Node000011"><a xlink:title=" ">
<path fill="none" stroke="#63b8ff" d="M737.37,-57.81C736.89,-49.59 736.37,-40.84 735.94,-33.63"/>
<polygon fill="#63b8ff" stroke="#63b8ff" points="733.88,-57.97 737.96,-67.74 740.86,-57.55 733.88,-57.97"/>
</a>
</g>
</g>
<!-- Node12&#45;&gt;Node4 -->
<g id="edge13_Node000012_Node000004" class="edge">
<title>Node12&#45;&gt;Node4</title>
<g id="a_edge13_Node000012_Node000004"><a xlink:title=" ">
<path fill="none" stroke="#63b8ff" d="M326.58,-58.1C325.22,-49.79 323.78,-40.93 322.59,-33.63"/>
<polygon fill="#63b8ff" stroke="#63b8ff" points="323.09,-58.45 328.15,-67.76 330,-57.33 323.09,-58.45"/>
</a>
</g>
</g>
<!-- Node12&#45;&gt;Node8 -->
<g id="edge14_Node000012_Node000008" class="edge">
<title>Node12&#45;&gt;Node8</title>
<g id="a_edge14_Node000012_Node000008"><a xlink:title=" ">
<path fill="none" stroke="#63b8ff" d="M401.44,-67.51C444.46,-56.67 498.87,-42.97 539.69,-32.69"/>
<polygon fill="#63b8ff" stroke="#63b8ff" points="400.79,-64.06 391.95,-69.9 402.5,-70.85 400.79,-64.06"/>
</a>
</g>
</g>
<!-- Node13&#45;&gt;Node8 -->
<g id="edge16_Node000013_Node000008" class="edge">
<title>Node13&#45;&gt;Node8</title>
<g id="a_edge16_Node000013_Node000008"><a xlink:title=" ">
<path fill="none" stroke="#63b8ff" d="M804.85,-68.09C759.49,-57 701.11,-42.72 658.11,-32.21"/>
<polygon fill="#63b8ff" stroke="#63b8ff" points="803.78,-71.43 814.32,-70.41 805.44,-64.63 803.78,-71.43"/>
</a>
</g>
</g>
<!-- Node14 -->
<g id="Node000014" class="node">
<title>Node14</title>
<g id="a_Node000014"><a xlink:href="motor__sync_8c.html" target="_top" xlink:title=" ">
<polygon fill="white" stroke="#666666" points="1066,-33.5 948,-33.5 948,0 1066,0 1066,-33.5"/>
<text xml:space="preserve" text-anchor="start" x="956" y="-20" font-family="Helvetica,sans-Serif" font-size="10.00">source/motion/motor</text>
<text xml:space="preserve" text-anchor="middle" x="1007" y="-7.25" font-family="Helvetica,sans-Serif" font-size="10.00">/motor_sync.c</text>
</a>
</g>
</g>
<!-- Node13&#45;&gt;Node14 -->
<g id="edge17_Node000013_Node000014" class="edge">
<title>Node13&#45;&gt;Node14</title>
<g id="a_edge17_Node000013_Node000014"><a xlink:title=" ">
<path fill="none" stroke="#63b8ff" d="M916.83,-63.86C935.88,-54.12 958.05,-42.78 975.64,-33.79"/>
<polygon fill="#63b8ff" stroke="#63b8ff" points="915.27,-60.72 907.96,-68.39 918.46,-66.96 915.27,-60.72"/>
</a>
</g>
</g>
<!-- Node15&#45;&gt;Node8 -->
<g id="edge19_Node000015_Node000008" class="edge">
<title>Node15&#45;&gt;Node8</title>
<g id="a_edge19_Node000015_Node000008"><a xlink:title=" ">
<path fill="none" stroke="#63b8ff" d="M601.37,-57.81C600.89,-49.59 600.37,-40.84 599.94,-33.63"/>
<polygon fill="#63b8ff" stroke="#63b8ff" points="597.88,-57.97 601.96,-67.74 604.86,-57.55 597.88,-57.97"/>
</a>
</g>
</g>
<!-- Node15&#45;&gt;Node11 -->
<g id="edge20_Node000015_Node000011" class="edge">
<title>Node15&#45;&gt;Node11</title>
<g id="a_edge20_Node000015_Node000011"><a xlink:title=" ">
<path fill="none" stroke="#63b8ff" d="M644.83,-63.86C663.88,-54.12 686.05,-42.78 703.64,-33.79"/>
<polygon fill="#63b8ff" stroke="#63b8ff" points="643.27,-60.72 635.96,-68.39 646.46,-66.96 643.27,-60.72"/>
</a>
</g>
</g>
</g>
</svg>
