<?xml version="1.0" encoding="UTF-8" standalone="no"?>
<!DOCTYPE svg PUBLIC "-//W3C//DTD SVG 1.1//EN"
 "http://www.w3.org/Graphics/SVG/1.1/DTD/svg11.dtd">
<!-- Generated by graphviz version 14.1.3 (0)
 -->
<!-- Title: source/motor.c Pages: 1 -->
<!--zoomable 199 -->

<svg id="main" version="1.1" xmlns="http://www.w3.org/2000/svg" xmlns:xlink="http://www.w3.org/1999/xlink" xml:space="preserve" onload="init(evt)">

<style type="text/css"><![CDATA[
.node, .edge {opacity: 0.7;}
.node.selected, .edge.selected {opacity: 1;}
.edge:hover path { stroke: red; }
.edge:hover polygon { stroke: red; fill: red; }
]]></style>

<defs>
  <circle id="rim" cx="0" cy="0" r="7"/>
  <circle id="rim2" cx="0" cy="0" r="3.5"/>
  <g id="zoomPlus">
    <use xlink:href="#rim" fill="#404040"><set attributeName="fill" to="#808080" begin="zoomplus.mouseover" end="zoomplus.mouseout"/></use>
    <path d="M-4,0h8M0,-4v8" fill="none" stroke="white" stroke-width="1.5" pointer-events="none"/>
  </g>
  <g id="zoomMin">
    <use xlink:href="#rim" fill="#404040"><set attributeName="fill" to="#808080" begin="zoomminus.mouseover" end="zoomminus.mouseout"/></use>
    <path d="M-4,0h8" fill="none" stroke="white" stroke-width="1.5" pointer-events="none"/>
  </g>
  <g id="arrowUp" transform="translate(30 24)">
    <use xlink:href="#rim"/>
    <path pointer-events="none" fill="none" stroke="white" stroke-width="1.5" d="M0,-3.0v7 M-2.5,-0.5L0,-3.0L2.5,-0.5"/>
  </g>
  <g id="arrowRight" transform="rotate(90) translate(36 -43)">
    <use xlink:href="#rim"/>
    <path pointer-events="none" fill="none" stroke="white" stroke-width="1.5" d="M0,-3.0v7 M-2.5,-0.5L0,-3.0L2.5,-0.5"/>
  </g>
  <g id="arrowDown" transform="rotate(180) translate(-30 -48)">
    <use xlink:href="#rim"/>
    <path pointer-events="none" fill="none" stroke="white" stroke-width="1.5" d="M0,-3.0v7 M-2.5,-0.5L0,-3.0L2.5,-0.5"/>
  </g>
  <g id="arrowLeft" transform="rotate(270) translate(-36 17)">
    <use xlink:href="#rim"/>
    <path pointer-events="none" fill="none" stroke="white" stroke-width="1.5" d="M0,-3.0v7 M-2.5,-0.5L0,-3.0L2.5,-0.5"/>
  </g>
  <g id="resetDef">
    <use xlink:href="#rim2" fill="#404040"><set attributeName="fill" to="#808080" begin="reset.mouseover" end="reset.mouseout"/></use>
  </g>
</defs>
<script type="application/ecmascript">
var viewWidth = 801;
var viewHeight = 199;
var sectionId = 'dynsection-0';
</script>
<script type="application/ecmascript" xlink:href="svg.min.js"/>
<svg id="graph" class="graph">
<g id="viewport">
<title>source/motor.c</title>
<!-- Node1 -->
<g id="Node000001" class="node">
<title>Node1</title>
<g id="a_Node000001"><a xlink:title=" ">
<polygon fill="#999999" stroke="#666666" points="548.38,-191 460.38,-191 460.38,-170.25 548.38,-170.25 548.38,-191"/>
<text xml:space="preserve" text-anchor="middle" x="504.38" y="-177.5" font-family="Helvetica,sans-Serif" font-size="10.00">source/motor.c</text>
</a>
</g>
</g>
<!-- Node2 -->
<g id="Node000002" class="node">
<title>Node2</title>
<g id="a_Node000002"><a xlink:href="motor_8h.html" target="_top" xlink:title=" ">
<polygon fill="white" stroke="#666666" points="364.12,-134.25 310.62,-134.25 310.62,-113.5 364.12,-113.5 364.12,-134.25"/>
<text xml:space="preserve" text-anchor="middle" x="337.38" y="-120.75" font-family="Helvetica,sans-Serif" font-size="10.00">motor.h</text>
</a>
</g>
</g>
<!-- Node1&#45;&gt;Node2 -->
<g id="edge1_Node000001_Node000002" class="edge">
<title>Node1&#45;&gt;Node2</title>
<g id="a_edge1_Node000001_Node000002"><a xlink:title=" ">
<path fill="none" stroke="#63b8ff" d="M474.52,-169.84C446.82,-160.75 405.45,-147.19 375.4,-137.34"/>
<polygon fill="#63b8ff" stroke="#63b8ff" points="376.52,-134.02 365.92,-134.23 374.34,-140.68 376.52,-134.02"/>
</a>
</g>
</g>
<!-- Node3 -->
<g id="Node000003" class="node">
<title>Node3</title>
<g id="a_Node000003"><a xlink:href="step_8h.html" target="_top" xlink:title=" ">
<polygon fill="white" stroke="#666666" points="380.38,-77.5 334.38,-77.5 334.38,-56.75 380.38,-56.75 380.38,-77.5"/>
<text xml:space="preserve" text-anchor="middle" x="357.38" y="-64" font-family="Helvetica,sans-Serif" font-size="10.00">step.h</text>
</a>
</g>
</g>
<!-- Node1&#45;&gt;Node3 -->
<g id="edge26_Node000001_Node000003" class="edge">
<title>Node1&#45;&gt;Node3</title>
<g id="a_edge26_Node000001_Node000003"><a xlink:title=" ">
<path fill="none" stroke="#63b8ff" d="M488.92,-169.76C475.15,-160.83 454.58,-147.14 437.38,-134.25 416.16,-118.35 392.91,-98.89 376.96,-85.21"/>
<polygon fill="#63b8ff" stroke="#63b8ff" points="379.5,-82.77 369.64,-78.88 374.92,-88.07 379.5,-82.77"/>
</a>
</g>
</g>
<!-- Node4 -->
<g id="Node000004" class="node">
<title>Node4</title>
<g id="a_Node000004"><a xlink:title=" ">
<polygon fill="#e0e0e0" stroke="#999999" points="580.12,-20.75 508.62,-20.75 508.62,0 580.12,0 580.12,-20.75"/>
<text xml:space="preserve" text-anchor="middle" x="544.38" y="-7.25" font-family="Helvetica,sans-Serif" font-size="10.00">FreeRTOS.h</text>
</a>
</g>
</g>
<!-- Node1&#45;&gt;Node4 -->
<g id="edge16_Node000001_Node000004" class="edge">
<title>Node1&#45;&gt;Node4</title>
<g id="a_edge16_Node000001_Node000004"><a xlink:title=" ">
<path fill="none" stroke="#63b8ff" d="M498.66,-169.76C491.9,-156.84 482.18,-133.46 487.38,-113.5 495.6,-81.87 516.02,-49.65 530.04,-30.08"/>
<polygon fill="#63b8ff" stroke="#63b8ff" points="532.67,-32.41 535.79,-22.28 527.04,-28.25 532.67,-32.41"/>
</a>
</g>
</g>
<!-- Node13 -->
<g id="Node000013" class="node">
<title>Node13</title>
<g id="a_Node000013"><a xlink:href="log_8h.html" target="_top" xlink:title=" ">
<polygon fill="white" stroke="#666666" points="440.38,-77.5 400.38,-77.5 400.38,-56.75 440.38,-56.75 440.38,-77.5"/>
<text xml:space="preserve" text-anchor="middle" x="420.38" y="-64" font-family="Helvetica,sans-Serif" font-size="10.00">log.h</text>
</a>
</g>
</g>
<!-- Node1&#45;&gt;Node13 -->
<g id="edge13_Node000001_Node000013" class="edge">
<title>Node1&#45;&gt;Node13</title>
<g id="a_edge13_Node000001_Node000013"><a xlink:title=" ">
<path fill="none" stroke="#63b8ff" d="M491.26,-169.9C480.4,-161.38 465.08,-148.2 454.38,-134.25 443.45,-120.01 434.36,-101.73 428.34,-88"/>
<polygon fill="#63b8ff" stroke="#63b8ff" points="431.71,-86.99 424.61,-79.12 425.25,-89.69 431.71,-86.99"/>
</a>
</g>
</g>
<!-- Node14 -->
<g id="Node000014" class="node">
<title>Node14</title>
<g id="a_Node000014"><a xlink:title=" ">
<polygon fill="#e0e0e0" stroke="#999999" points="656.88,-134.25 601.88,-134.25 601.88,-113.5 656.88,-113.5 656.88,-134.25"/>
<text xml:space="preserve" text-anchor="middle" x="629.38" y="-120.75" font-family="Helvetica,sans-Serif" font-size="10.00">queue.h</text>
</a>
</g>
</g>
<!-- Node1&#45;&gt;Node14 -->
<g id="edge17_Node000001_Node000014" class="edge">
<title>Node1&#45;&gt;Node14</title>
<g id="a_edge17_Node000001_Node000014"><a xlink:title=" ">
<path fill="none" stroke="#63b8ff" d="M526.72,-169.84C546.19,-161.31 574.66,-148.84 596.68,-139.19"/>
<polygon fill="#63b8ff" stroke="#63b8ff" points="598.08,-142.4 605.83,-135.19 595.27,-135.99 598.08,-142.4"/>
</a>
</g>
</g>
<!-- Node15 -->
<g id="Node000015" class="node">
<title>Node15</title>
<g id="a_Node000015"><a xlink:title=" ">
<polygon fill="#e0e0e0" stroke="#999999" points="725.62,-134.25 675.12,-134.25 675.12,-113.5 725.62,-113.5 725.62,-134.25"/>
<text xml:space="preserve" text-anchor="middle" x="700.38" y="-120.75" font-family="Helvetica,sans-Serif" font-size="10.00">math.h</text>
</a>
</g>
</g>
<!-- Node1&#45;&gt;Node15 -->
<g id="edge18_Node000001_Node000015" class="edge">
<title>Node1&#45;&gt;Node15</title>
<g id="a_edge18_Node000001_Node000015"><a xlink:title=" ">
<path fill="none" stroke="#63b8ff" d="M539.42,-169.84C574.49,-160.04 628.22,-145.03 663.82,-135.09"/>
<polygon fill="#63b8ff" stroke="#63b8ff" points="664.55,-138.52 673.24,-132.46 662.66,-131.78 664.55,-138.52"/>
</a>
</g>
</g>
<!-- Node16 -->
<g id="Node000016" class="node">
<title>Node16</title>
<g id="a_Node000016"><a xlink:title=" ">
<polygon fill="#e0e0e0" stroke="#999999" points="792.88,-134.25 743.88,-134.25 743.88,-113.5 792.88,-113.5 792.88,-134.25"/>
<text xml:space="preserve" text-anchor="middle" x="768.38" y="-120.75" font-family="Helvetica,sans-Serif" font-size="10.00">stdio.h</text>
</a>
</g>
</g>
<!-- Node1&#45;&gt;Node16 -->
<g id="edge19_Node000001_Node000016" class="edge">
<title>Node1&#45;&gt;Node16</title>
<g id="a_edge19_Node000001_Node000016"><a xlink:title=" ">
<path fill="none" stroke="#63b8ff" d="M548.68,-171.89C592.79,-163.97 662.66,-150.83 732.36,-134.58"/>
<polygon fill="#63b8ff" stroke="#63b8ff" points="733.14,-138 742.07,-132.3 731.54,-131.18 733.14,-138"/>
</a>
</g>
</g>
<!-- Node17 -->
<g id="Node000017" class="node">
<title>Node17</title>
<g id="a_Node000017"><a xlink:href="task__helpers_8h.html" target="_top" xlink:title=" ">
<polygon fill="white" stroke="#666666" points="584,-134.25 496.75,-134.25 496.75,-113.5 584,-113.5 584,-134.25"/>
<text xml:space="preserve" text-anchor="middle" x="540.38" y="-120.75" font-family="Helvetica,sans-Serif" font-size="10.00">task_helpers.h</text>
</a>
</g>
</g>
<!-- Node1&#45;&gt;Node17 -->
<g id="edge20_Node000001_Node000017" class="edge">
<title>Node1&#45;&gt;Node17</title>
<g id="a_edge20_Node000001_Node000017"><a xlink:title=" ">
<path fill="none" stroke="#63b8ff" d="M510.81,-169.84C515.52,-162.67 522.06,-152.73 527.79,-144.01"/>
<polygon fill="#63b8ff" stroke="#63b8ff" points="530.59,-146.12 533.16,-135.84 524.74,-142.28 530.59,-146.12"/>
</a>
</g>
</g>
<!-- Node2&#45;&gt;Node3 -->
<g id="edge2_Node000002_Node000003" class="edge">
<title>Node2&#45;&gt;Node3</title>
<g id="a_edge2_Node000002_Node000003"><a xlink:title=" ">
<path fill="none" stroke="#63b8ff" d="M340.95,-113.09C343.45,-106.24 346.89,-96.84 349.97,-88.4"/>
<polygon fill="#63b8ff" stroke="#63b8ff" points="353.17,-89.84 353.31,-79.25 346.59,-87.44 353.17,-89.84"/>
</a>
</g>
</g>
<!-- Node10 -->
<g id="Node000010" class="node">
<title>Node10</title>
<g id="a_Node000010"><a xlink:href="tmc2209_8h.html" target="_top" xlink:title=" ">
<polygon fill="white" stroke="#666666" points="231.25,-77.5 163.5,-77.5 163.5,-56.75 231.25,-56.75 231.25,-77.5"/>
<text xml:space="preserve" text-anchor="middle" x="197.38" y="-64" font-family="Helvetica,sans-Serif" font-size="10.00">tmc2209.h</text>
</a>
</g>
</g>
<!-- Node2&#45;&gt;Node10 -->
<g id="edge9_Node000002_Node000010" class="edge">
<title>Node2&#45;&gt;Node10</title>
<g id="a_edge9_Node000002_Node000010"><a xlink:title=" ">
<path fill="none" stroke="#63b8ff" d="M312.35,-113.09C290.15,-104.41 257.49,-91.63 232.64,-81.92"/>
<polygon fill="#63b8ff" stroke="#63b8ff" points="234.19,-78.76 223.6,-78.38 231.64,-85.28 234.19,-78.76"/>
</a>
</g>
</g>
<!-- Node3&#45;&gt;Node4 -->
<g id="edge3_Node000003_Node000004" class="edge">
<title>Node3&#45;&gt;Node4</title>
<g id="a_edge3_Node000003_Node000004"><a xlink:title=" ">
<path fill="none" stroke="#63b8ff" d="M380.68,-59.3C410.53,-50.56 462.88,-35.23 500.35,-24.27"/>
<polygon fill="#63b8ff" stroke="#63b8ff" points="500.9,-27.75 509.52,-21.58 498.94,-21.03 500.9,-27.75"/>
</a>
</g>
</g>
<!-- Node5 -->
<g id="Node000005" class="node">
<title>Node5</title>
<g id="a_Node000005"><a xlink:title=" ">
<polygon fill="#e0e0e0" stroke="#999999" points="660.38,-20.75 614.38,-20.75 614.38,0 660.38,0 660.38,-20.75"/>
<text xml:space="preserve" text-anchor="middle" x="637.38" y="-7.25" font-family="Helvetica,sans-Serif" font-size="10.00">task.h</text>
</a>
</g>
</g>
<!-- Node3&#45;&gt;Node5 -->
<g id="edge4_Node000003_Node000005" class="edge">
<title>Node3&#45;&gt;Node5</title>
<g id="a_edge4_Node000003_Node000005"><a xlink:title=" ">
<path fill="none" stroke="#63b8ff" d="M380.72,-59.39C384.27,-58.45 387.91,-57.54 391.38,-56.75 478.57,-36.84 501.48,-37.32 589.38,-20.75 593.76,-19.92 598.36,-19.04 602.91,-18.16"/>
<polygon fill="#63b8ff" stroke="#63b8ff" points="603.32,-21.65 612.46,-16.3 601.98,-14.78 603.32,-21.65"/>
</a>
</g>
</g>
<!-- Node6 -->
<g id="Node000006" class="node">
<title>Node6</title>
<g id="a_Node000006"><a xlink:title=" ">
<polygon fill="#e0e0e0" stroke="#999999" points="490.88,-20.75 405.88,-20.75 405.88,0 490.88,0 490.88,-20.75"/>
<text xml:space="preserve" text-anchor="middle" x="448.38" y="-7.25" font-family="Helvetica,sans-Serif" font-size="10.00">fsl_common.h</text>
</a>
</g>
</g>
<!-- Node3&#45;&gt;Node6 -->
<g id="edge5_Node000003_Node000006" class="edge">
<title>Node3&#45;&gt;Node6</title>
<g id="a_edge5_Node000003_Node000006"><a xlink:title=" ">
<path fill="none" stroke="#63b8ff" d="M373.64,-56.34C387.23,-48.16 406.85,-36.36 422.58,-26.9"/>
<polygon fill="#63b8ff" stroke="#63b8ff" points="424.19,-30.01 430.95,-21.86 420.58,-24.02 424.19,-30.01"/>
</a>
</g>
</g>
<!-- Node7 -->
<g id="Node000007" class="node">
<title>Node7</title>
<g id="a_Node000007"><a xlink:title=" ">
<polygon fill="#e0e0e0" stroke="#999999" points="306.75,-20.75 248,-20.75 248,0 306.75,0 306.75,-20.75"/>
<text xml:space="preserve" text-anchor="middle" x="277.38" y="-7.25" font-family="Helvetica,sans-Serif" font-size="10.00">fsl_ftm.h</text>
</a>
</g>
</g>
<!-- Node3&#45;&gt;Node7 -->
<g id="edge6_Node000003_Node000007" class="edge">
<title>Node3&#45;&gt;Node7</title>
<g id="a_edge6_Node000003_Node000007"><a xlink:title=" ">
<path fill="none" stroke="#63b8ff" d="M343.07,-56.34C331.36,-48.32 314.54,-36.81 300.85,-27.44"/>
<polygon fill="#63b8ff" stroke="#63b8ff" points="303.03,-24.69 292.8,-21.93 299.08,-30.47 303.03,-24.69"/>
</a>
</g>
</g>
<!-- Node8 -->
<g id="Node000008" class="node">
<title>Node8</title>
<g id="a_Node000008"><a xlink:title=" ">
<polygon fill="#e0e0e0" stroke="#999999" points="388,-20.75 324.75,-20.75 324.75,0 388,0 388,-20.75"/>
<text xml:space="preserve" text-anchor="middle" x="356.38" y="-7.25" font-family="Helvetica,sans-Serif" font-size="10.00">fsl_gpio.h</text>
</a>
</g>
</g>
<!-- Node3&#45;&gt;Node8 -->
<g id="edge7_Node000003_Node000008" class="edge">
<title>Node3&#45;&gt;Node8</title>
<g id="a_edge7_Node000003_Node000008"><a xlink:title=" ">
<path fill="none" stroke="#63b8ff" d="M357.2,-56.34C357.08,-49.72 356.91,-40.72 356.76,-32.52"/>
<polygon fill="#63b8ff" stroke="#63b8ff" points="360.26,-32.53 356.58,-22.59 353.26,-32.65 360.26,-32.53"/>
</a>
</g>
</g>
<!-- Node9 -->
<g id="Node000009" class="node">
<title>Node9</title>
<g id="a_Node000009"><a xlink:title=" ">
<polygon fill="#e0e0e0" stroke="#999999" points="230.25,-20.75 168.5,-20.75 168.5,0 230.25,0 230.25,-20.75"/>
<text xml:space="preserve" text-anchor="middle" x="199.38" y="-7.25" font-family="Helvetica,sans-Serif" font-size="10.00">fsl_port.h</text>
</a>
</g>
</g>
<!-- Node3&#45;&gt;Node9 -->
<g id="edge8_Node000003_Node000009" class="edge">
<title>Node3&#45;&gt;Node9</title>
<g id="a_edge8_Node000003_Node000009"><a xlink:title=" ">
<path fill="none" stroke="#63b8ff" d="M334.06,-58.05C308.91,-49.33 268.43,-35.3 238.41,-24.9"/>
<polygon fill="#63b8ff" stroke="#63b8ff" points="239.9,-21.71 229.3,-21.74 237.6,-28.33 239.9,-21.71"/>
</a>
</g>
</g>
<!-- Node10&#45;&gt;Node6 -->
<g id="edge10_Node000010_Node000006" class="edge">
<title>Node10&#45;&gt;Node6</title>
<g id="a_edge10_Node000010_Node000006"><a xlink:title=" ">
<path fill="none" stroke="#63b8ff" d="M231.75,-58.63C273.73,-49.47 345.21,-33.88 394.52,-23.12"/>
<polygon fill="#63b8ff" stroke="#63b8ff" points="395.11,-26.58 404.13,-21.03 393.62,-19.74 395.11,-26.58"/>
</a>
</g>
</g>
<!-- Node11 -->
<g id="Node000011" class="node">
<title>Node11</title>
<g id="a_Node000011"><a xlink:title=" ">
<polygon fill="#e0e0e0" stroke="#999999" points="150.25,-20.75 70.5,-20.75 70.5,0 150.25,0 150.25,-20.75"/>
<text xml:space="preserve" text-anchor="middle" x="110.38" y="-7.25" font-family="Helvetica,sans-Serif" font-size="10.00">peripherals.h</text>
</a>
</g>
</g>
<!-- Node10&#45;&gt;Node11 -->
<g id="edge11_Node000010_Node000011" class="edge">
<title>Node10&#45;&gt;Node11</title>
<g id="a_edge11_Node000010_Node000011"><a xlink:title=" ">
<path fill="none" stroke="#63b8ff" d="M181.82,-56.34C168.95,-48.24 150.43,-36.58 135.47,-27.17"/>
<polygon fill="#63b8ff" stroke="#63b8ff" points="137.4,-24.25 127.08,-21.88 133.67,-30.17 137.4,-24.25"/>
</a>
</g>
</g>
<!-- Node12 -->
<g id="Node000012" class="node">
<title>Node12</title>
<g id="a_Node000012"><a xlink:title=" ">
<polygon fill="#e0e0e0" stroke="#999999" points="52.75,-20.75 0,-20.75 0,0 52.75,0 52.75,-20.75"/>
<text xml:space="preserve" text-anchor="middle" x="26.38" y="-7.25" font-family="Helvetica,sans-Serif" font-size="10.00">stdint.h</text>
</a>
</g>
</g>
<!-- Node10&#45;&gt;Node12 -->
<g id="edge12_Node000010_Node000012" class="edge">
<title>Node10&#45;&gt;Node12</title>
<g id="a_edge12_Node000010_Node000012"><a xlink:title=" ">
<path fill="none" stroke="#63b8ff" d="M166.8,-56.34C137.97,-47.11 94.68,-33.25 63.8,-23.36"/>
<polygon fill="#63b8ff" stroke="#63b8ff" points="65.06,-20.09 54.47,-20.37 62.93,-26.75 65.06,-20.09"/>
</a>
</g>
</g>
<!-- Node13&#45;&gt;Node4 -->
<g id="edge14_Node000013_Node000004" class="edge">
<title>Node13&#45;&gt;Node4</title>
<g id="a_edge14_Node000013_Node000004"><a xlink:title=" ">
<path fill="none" stroke="#63b8ff" d="M440.85,-57.08C460.12,-48.58 489.3,-35.69 511.77,-25.77"/>
<polygon fill="#63b8ff" stroke="#63b8ff" points="513.07,-29.02 520.81,-21.78 510.25,-22.62 513.07,-29.02"/>
</a>
</g>
</g>
<!-- Node13&#45;&gt;Node6 -->
<g id="edge15_Node000013_Node000006" class="edge">
<title>Node13&#45;&gt;Node6</title>
<g id="a_edge15_Node000013_Node000006"><a xlink:title=" ">
<path fill="none" stroke="#63b8ff" d="M425.38,-56.34C428.96,-49.33 433.91,-39.66 438.3,-31.08"/>
<polygon fill="#63b8ff" stroke="#63b8ff" points="441.29,-32.92 442.72,-22.43 435.05,-29.74 441.29,-32.92"/>
</a>
</g>
</g>
<!-- Node17&#45;&gt;Node4 -->
<g id="edge21_Node000017_Node000004" class="edge">
<title>Node17&#45;&gt;Node4</title>
<g id="a_edge21_Node000017_Node000004"><a xlink:title=" ">
<path fill="none" stroke="#63b8ff" d="M540.72,-113.37C541.35,-95.6 542.74,-56.97 543.61,-32.68"/>
<polygon fill="#63b8ff" stroke="#63b8ff" points="547.11,-32.81 543.97,-22.69 540.11,-32.56 547.11,-32.81"/>
</a>
</g>
</g>
<!-- Node17&#45;&gt;Node5 -->
<g id="edge22_Node000017_Node000005" class="edge">
<title>Node17&#45;&gt;Node5</title>
<g id="a_edge22_Node000017_Node000005"><a xlink:title=" ">
<path fill="none" stroke="#63b8ff" d="M581.57,-113.08C600.57,-106.34 621.5,-95.28 633.38,-77.5 642.18,-64.32 642.66,-46.17 641.23,-32.21"/>
<polygon fill="#63b8ff" stroke="#63b8ff" points="644.7,-31.73 639.79,-22.34 637.77,-32.75 644.7,-31.73"/>
</a>
</g>
</g>
<!-- Node17&#45;&gt;Node6 -->
<g id="edge23_Node000017_Node000006" class="edge">
<title>Node17&#45;&gt;Node6</title>
<g id="a_edge23_Node000017_Node000006"><a xlink:title=" ">
<path fill="none" stroke="#63b8ff" d="M532.53,-113.37C517.33,-94.95 483.62,-54.09 463.78,-30.05"/>
<polygon fill="#63b8ff" stroke="#63b8ff" points="466.49,-27.83 457.42,-22.34 461.09,-32.28 466.49,-27.83"/>
</a>
</g>
</g>
<!-- Node17&#45;&gt;Node13 -->
<g id="edge24_Node000017_Node000013" class="edge">
<title>Node17&#45;&gt;Node13</title>
<g id="a_edge24_Node000017_Node000013"><a xlink:title=" ">
<path fill="none" stroke="#63b8ff" d="M518.92,-113.09C500.09,-104.5 472.48,-91.9 451.27,-82.22"/>
<polygon fill="#63b8ff" stroke="#63b8ff" points="452.77,-79.06 442.22,-78.09 449.86,-85.43 452.77,-79.06"/>
</a>
</g>
</g>
<!-- Node18 -->
<g id="Node000018" class="node">
<title>Node18</title>
<g id="a_Node000018"><a xlink:title=" ">
<polygon fill="#e0e0e0" stroke="#999999" points="624.75,-77.5 572,-77.5 572,-56.75 624.75,-56.75 624.75,-77.5"/>
<text xml:space="preserve" text-anchor="middle" x="598.38" y="-64" font-family="Helvetica,sans-Serif" font-size="10.00">string.h</text>
</a>
</g>
</g>
<!-- Node17&#45;&gt;Node18 -->
<g id="edge25_Node000017_Node000018" class="edge">
<title>Node17&#45;&gt;Node18</title>
<g id="a_edge25_Node000017_Node000018"><a xlink:title=" ">
<path fill="none" stroke="#63b8ff" d="M550.74,-113.09C558.83,-105.46 570.26,-94.67 579.9,-85.57"/>
<polygon fill="#63b8ff" stroke="#63b8ff" points="582.13,-88.28 586.99,-78.87 577.32,-83.19 582.13,-88.28"/>
</a>
</g>
</g>
</g>
</svg>

<g id="navigator" transform="translate(0 0)" fill="#404254">
  <rect fill="#f2f5e9" fill-opacity="0.5" stroke="#606060" stroke-width=".5" x="0" y="0" width="60" height="60"/>
  <use id="zoomplus" xlink:href="#zoomPlus" x="17" y="9" onmousedown="handleZoom(evt,'in')"/>
  <use id="zoomminus" xlink:href="#zoomMin" x="42" y="9" onmousedown="handleZoom(evt,'out')"/>
  <use id="reset" xlink:href="#resetDef" x="30" y="36" onmousedown="handleReset()"/>
   <use id="arrowup" xlink:href="#arrowUp" x="0" y="0" onmousedown="handlePan(0,-1)"/>
  <use id="arrowright" xlink:href="#arrowRight" x="0" y="0" onmousedown="handlePan(1,0)"/>
  <use id="arrowdown" xlink:href="#arrowDown" x="0" y="0" onmousedown="handlePan(0,1)"/>
  <use id="arrowleft" xlink:href="#arrowLeft" x="0" y="0" onmousedown="handlePan(-1,0)"/>
</g>
<svg viewBox="0 0 15 15" width="100%" height="30px" preserveAspectRatio="xMaxYMin meet">
 <g id="arrow_out" transform="scale(0.3 0.3)">
  <a xlink:href="motor_8c__incl_org.svg" target="_base">
   <rect id="button" ry="5" rx="5" y="6" x="6" height="38" width="38"
        fill="#f2f5e9" fill-opacity="0.5" stroke="#606060" stroke-width="1.0"/>
   <path id="arrow"
     d="M 11.500037,31.436501 C 11.940474,20.09759 22.043105,11.32322 32.158766,21.979434 L 37.068811,17.246167 C 37.068811,17.246167 37.088388,32 37.088388,32 L 22.160133,31.978069 C 22.160133,31.978069 26.997745,27.140456 26.997745,27.140456 C 18.528582,18.264221 13.291696,25.230495 11.500037,31.436501 z"
     style="fill:#404040;"/>
  </a>
 </g>
</svg>

<style type='text/css'>
<![CDATA[
[data-mouse-over-selected='false'] { opacity: 0.7; }
[data-mouse-over-selected='true']  { opacity: 1.0; }
]]>
</style>
<script type="application/ecmascript"><![CDATA[
document.addEventListener('DOMContentLoaded', (event) => {
  highlightEdges();
  highlightAdjacentNodes();
});
]]></script>
</svg>
