<?xml version="1.0" encoding="UTF-8" standalone="no"?>
<!DOCTYPE svg PUBLIC "-//W3C//DTD SVG 1.1//EN"
 "http://www.w3.org/Graphics/SVG/1.1/DTD/svg11.dtd">
<!-- Generated by graphviz version 14.1.5 (0)
 -->
<!-- Title: source/motion/motor/motor_core.c Pages: 1 -->
<svg width="1210pt" height="439pt"
 viewBox="0.00 0.00 1210.00 439.00" xmlns="http://www.w3.org/2000/svg" xmlns:xlink="http://www.w3.org/1999/xlink">
<g id="graph0" class="graph" transform="scale(1 1) rotate(0) translate(4 434.75)">
<title>source/motion/motor/motor_core.c</title>
<!-- Node1 -->
<g id="Node000001" class="node">
<title>Node1</title>
<g id="a_Node000001"><a xlink:title=" ">
<polygon fill="#999999" stroke="#666666" points="975.36,-430.75 857.36,-430.75 857.36,-397.25 975.36,-397.25 975.36,-430.75"/>
<text xml:space="preserve" text-anchor="start" x="865.36" y="-417.25" font-family="Helvetica,sans-Serif" font-size="10.00">source/motion/motor</text>
<text xml:space="preserve" text-anchor="middle" x="916.36" y="-404.5" font-family="Helvetica,sans-Serif" font-size="10.00">/motor_core.c</text>
</a>
</g>
</g>
<!-- Node2 -->
<g id="Node000002" class="node">
<title>Node2</title>
<g id="a_Node000002"><a xlink:href="log_8h.html" target="_top" xlink:title=" ">
<polygon fill="white" stroke="#666666" points="621.86,-134.25 512.86,-134.25 512.86,-113.5 621.86,-113.5 621.86,-134.25"/>
<text xml:space="preserve" text-anchor="middle" x="567.36" y="-120.75" font-family="Helvetica,sans-Serif" font-size="10.00">infrastructure/log.h</text>
</a>
</g>
</g>
<!-- Node1&#45;&gt;Node2 -->
<g id="edge1_Node000001_Node000002" class="edge">
<title>Node1&#45;&gt;Node2</title>
<g id="a_edge1_Node000001_Node000002"><a xlink:title=" ">
<path fill="none" stroke="#63b8ff" d="M857.16,-411.4C724.98,-406.23 417.36,-384.59 417.36,-295.12 417.36,-295.12 417.36,-295.12 417.36,-236.38 417.36,-205.8 415.32,-192.44 436.36,-170.25 453.51,-152.15 478.23,-141.27 501.59,-134.73"/>
<polygon fill="#63b8ff" stroke="#63b8ff" points="502.25,-138.17 511.08,-132.31 500.53,-131.39 502.25,-138.17"/>
</a>
</g>
</g>
<!-- Node5 -->
<g id="Node000005" class="node">
<title>Node5</title>
<g id="a_Node000005"><a xlink:href="motor__core_8h.html" target="_top" xlink:title=" ">
<polygon fill="white" stroke="#666666" points="529.61,-247.75 449.11,-247.75 449.11,-227 529.61,-227 529.61,-247.75"/>
<text xml:space="preserve" text-anchor="middle" x="489.36" y="-234.25" font-family="Helvetica,sans-Serif" font-size="10.00">motor_core.h</text>
</a>
</g>
</g>
<!-- Node1&#45;&gt;Node5 -->
<g id="edge4_Node000001_Node000005" class="edge">
<title>Node1&#45;&gt;Node5</title>
<g id="a_edge4_Node000001_Node000005"><a xlink:title=" ">
<path fill="none" stroke="#63b8ff" d="M857.03,-397.47C823.78,-388.17 781.78,-375.41 745.36,-361.25 659.88,-328.03 563.47,-278.21 517.13,-253.46"/>
<polygon fill="#63b8ff" stroke="#63b8ff" points="519.05,-250.51 508.58,-248.86 515.73,-256.68 519.05,-250.51"/>
</a>
</g>
</g>
<!-- Node10 -->
<g id="Node000010" class="node">
<title>Node10</title>
<g id="a_Node000010"><a xlink:title=" ">
<polygon fill="#e0e0e0" stroke="#999999" points="59.36,-134.25 13.36,-134.25 13.36,-113.5 59.36,-113.5 59.36,-134.25"/>
<text xml:space="preserve" text-anchor="middle" x="36.36" y="-120.75" font-family="Helvetica,sans-Serif" font-size="10.00">task.h</text>
</a>
</g>
</g>
<!-- Node1&#45;&gt;Node10 -->
<g id="edge56_Node000001_Node000010" class="edge">
<title>Node1&#45;&gt;Node10</title>
<g id="a_edge56_Node000001_Node000010"><a xlink:title=" ">
<path fill="none" stroke="#63b8ff" d="M856.98,-411.06C663.32,-403.97 62.36,-375.48 62.36,-295.12 62.36,-295.12 62.36,-295.12 62.36,-236.38 62.36,-203.84 51.73,-167.32 44.06,-145.22"/>
<polygon fill="#63b8ff" stroke="#63b8ff" points="47.41,-144.18 40.71,-135.96 40.82,-146.56 47.41,-144.18"/>
</a>
</g>
</g>
<!-- Node23 -->
<g id="Node000023" class="node">
<title>Node23</title>
<g id="a_Node000023"><a xlink:href="motor__process_8h.html" target="_top" xlink:title=" ">
<polygon fill="white" stroke="#666666" points="850.86,-361.25 753.86,-361.25 753.86,-340.5 850.86,-340.5 850.86,-361.25"/>
<text xml:space="preserve" text-anchor="middle" x="802.36" y="-347.75" font-family="Helvetica,sans-Serif" font-size="10.00">motor_process.h</text>
</a>
</g>
</g>
<!-- Node1&#45;&gt;Node23 -->
<g id="edge42_Node000001_Node000023" class="edge">
<title>Node1&#45;&gt;Node23</title>
<g id="a_edge42_Node000001_Node000023"><a xlink:title=" ">
<path fill="none" stroke="#63b8ff" d="M886.11,-396.78C868.85,-387.52 847.35,-376 830.46,-366.94"/>
<polygon fill="#63b8ff" stroke="#63b8ff" points="832.42,-364.02 821.95,-362.38 829.11,-370.19 832.42,-364.02"/>
</a>
</g>
</g>
<!-- Node26 -->
<g id="Node000026" class="node">
<title>Node26</title>
<g id="a_Node000026"><a xlink:title=" ">
<polygon fill="#e0e0e0" stroke="#999999" points="1088.86,-247.75 1033.86,-247.75 1033.86,-227 1088.86,-227 1088.86,-247.75"/>
<text xml:space="preserve" text-anchor="middle" x="1061.36" y="-234.25" font-family="Helvetica,sans-Serif" font-size="10.00">queue.h</text>
</a>
</g>
</g>
<!-- Node1&#45;&gt;Node26 -->
<g id="edge55_Node000001_Node000026" class="edge">
<title>Node1&#45;&gt;Node26</title>
<g id="a_edge55_Node000001_Node000026"><a xlink:title=" ">
<path fill="none" stroke="#63b8ff" d="M935.66,-396.86C946.89,-387.06 961.02,-374.02 972.36,-361.25 1002.8,-326.95 1033.01,-282.46 1049.21,-257.51"/>
<polygon fill="#63b8ff" stroke="#63b8ff" points="1051.98,-259.68 1054.44,-249.38 1046.09,-255.9 1051.98,-259.68"/>
</a>
</g>
</g>
<!-- Node27 -->
<g id="Node000027" class="node">
<title>Node27</title>
<g id="a_Node000027"><a xlink:href="cmd__dispatch_8h.html" target="_top" xlink:title=" ">
<polygon fill="white" stroke="#666666" points="1201.61,-304.5 1109.11,-304.5 1109.11,-283.75 1201.61,-283.75 1201.61,-304.5"/>
<text xml:space="preserve" text-anchor="middle" x="1155.36" y="-291" font-family="Helvetica,sans-Serif" font-size="10.00">cmd_dispatch.h</text>
</a>
</g>
</g>
<!-- Node1&#45;&gt;Node27 -->
<g id="edge50_Node000001_Node000027" class="edge">
<title>Node1&#45;&gt;Node27</title>
<g id="a_edge50_Node000001_Node000027"><a xlink:title=" ">
<path fill="none" stroke="#63b8ff" d="M975.7,-407.57C1036.68,-400.68 1125.8,-386.54 1148.36,-361.25 1159.17,-349.12 1160.21,-330.34 1158.95,-315.89"/>
<polygon fill="#63b8ff" stroke="#63b8ff" points="1162.44,-315.53 1157.65,-306.08 1155.5,-316.45 1162.44,-315.53"/>
</a>
</g>
</g>
<!-- Node28 -->
<g id="Node000028" class="node">
<title>Node28</title>
<g id="a_Node000028"><a xlink:title=" ">
<polygon fill="#e0e0e0" stroke="#999999" points="1071.73,-361.25 1018.98,-361.25 1018.98,-340.5 1071.73,-340.5 1071.73,-361.25"/>
<text xml:space="preserve" text-anchor="middle" x="1045.36" y="-347.75" font-family="Helvetica,sans-Serif" font-size="10.00">string.h</text>
</a>
</g>
</g>
<!-- Node1&#45;&gt;Node28 -->
<g id="edge57_Node000001_Node000028" class="edge">
<title>Node1&#45;&gt;Node28</title>
<g id="a_edge57_Node000001_Node000028"><a xlink:title=" ">
<path fill="none" stroke="#63b8ff" d="M950.59,-396.78C970.4,-387.39 995.13,-375.67 1014.37,-366.56"/>
<polygon fill="#63b8ff" stroke="#63b8ff" points="1015.79,-369.76 1023.33,-362.31 1012.79,-363.43 1015.79,-369.76"/>
</a>
</g>
</g>
<!-- Node29 -->
<g id="Node000029" class="node">
<title>Node29</title>
<g id="a_Node000029"><a xlink:title=" ">
<polygon fill="#e0e0e0" stroke="#999999" points="1138.86,-361.25 1089.86,-361.25 1089.86,-340.5 1138.86,-340.5 1138.86,-361.25"/>
<text xml:space="preserve" text-anchor="middle" x="1114.36" y="-347.75" font-family="Helvetica,sans-Serif" font-size="10.00">stdio.h</text>
</a>
</g>
</g>
<!-- Node1&#45;&gt;Node29 -->
<g id="edge58_Node000001_Node000029" class="edge">
<title>Node1&#45;&gt;Node29</title>
<g id="a_edge58_Node000001_Node000029"><a xlink:title=" ">
<path fill="none" stroke="#63b8ff" d="M968.9,-396.78C1003.54,-386.09 1048,-372.36 1078.59,-362.92"/>
<polygon fill="#63b8ff" stroke="#63b8ff" points="1079.62,-366.26 1088.15,-359.97 1077.56,-359.57 1079.62,-366.26"/>
</a>
</g>
</g>
<!-- Node30 -->
<g id="Node000030" class="node">
<title>Node30</title>
<g id="a_Node000030"><a xlink:href="motor__motion_8h.html" target="_top" xlink:title=" ">
<polygon fill="white" stroke="#666666" points="963.36,-361.25 869.36,-361.25 869.36,-340.5 963.36,-340.5 963.36,-361.25"/>
<text xml:space="preserve" text-anchor="middle" x="916.36" y="-347.75" font-family="Helvetica,sans-Serif" font-size="10.00">motor_motion.h</text>
</a>
</g>
</g>
<!-- Node1&#45;&gt;Node30 -->
<g id="edge59_Node000001_Node000030" class="edge">
<title>Node1&#45;&gt;Node30</title>
<g id="a_edge59_Node000001_Node000030"><a xlink:title=" ">
<path fill="none" stroke="#63b8ff" d="M916.36,-396.94C916.36,-389.6 916.36,-380.82 916.36,-372.96"/>
<polygon fill="#63b8ff" stroke="#63b8ff" points="919.86,-373.23 916.36,-363.23 912.86,-373.23 919.86,-373.23"/>
</a>
</g>
</g>
<!-- Node3 -->
<g id="Node000003" class="node">
<title>Node3</title>
<g id="a_Node000003"><a xlink:title=" ">
<polygon fill="#e0e0e0" stroke="#999999" points="944.11,-77.5 872.61,-77.5 872.61,-56.75 944.11,-56.75 944.11,-77.5"/>
<text xml:space="preserve" text-anchor="middle" x="908.36" y="-64" font-family="Helvetica,sans-Serif" font-size="10.00">FreeRTOS.h</text>
</a>
</g>
</g>
<!-- Node2&#45;&gt;Node3 -->
<g id="edge2_Node000002_Node000003" class="edge">
<title>Node2&#45;&gt;Node3</title>
<g id="a_edge2_Node000002_Node000003"><a xlink:title=" ">
<path fill="none" stroke="#63b8ff" d="M622.33,-115.34C679.49,-107.31 771.82,-93.78 861.34,-77.78"/>
<polygon fill="#63b8ff" stroke="#63b8ff" points="861.82,-81.25 871.04,-76.04 860.58,-74.36 861.82,-81.25"/>
</a>
</g>
</g>
<!-- Node4 -->
<g id="Node000004" class="node">
<title>Node4</title>
<g id="a_Node000004"><a xlink:title=" ">
<polygon fill="#e0e0e0" stroke="#999999" points="601.86,-20.75 516.86,-20.75 516.86,0 601.86,0 601.86,-20.75"/>
<text xml:space="preserve" text-anchor="middle" x="559.36" y="-7.25" font-family="Helvetica,sans-Serif" font-size="10.00">fsl_common.h</text>
</a>
</g>
</g>
<!-- Node2&#45;&gt;Node4 -->
<g id="edge3_Node000002_Node000004" class="edge">
<title>Node2&#45;&gt;Node4</title>
<g id="a_edge3_Node000002_Node000004"><a xlink:title=" ">
<path fill="none" stroke="#63b8ff" d="M575.74,-113.14C585.69,-100.34 600.14,-77.11 593.36,-56.75 590.04,-46.79 583.59,-37.25 577.19,-29.52"/>
<polygon fill="#63b8ff" stroke="#63b8ff" points="579.91,-27.31 570.63,-22.19 574.69,-31.98 579.91,-27.31"/>
</a>
</g>
</g>
<!-- Node6 -->
<g id="Node000006" class="node">
<title>Node6</title>
<g id="a_Node000006"><a xlink:href="pca9555a_8h.html" target="_top" xlink:title=" ">
<polygon fill="white" stroke="#666666" points="584.36,-77.5 430.36,-77.5 430.36,-56.75 584.36,-56.75 584.36,-77.5"/>
<text xml:space="preserve" text-anchor="middle" x="507.36" y="-64" font-family="Helvetica,sans-Serif" font-size="10.00">driver/pca9555a/pca9555a.h</text>
</a>
</g>
</g>
<!-- Node5&#45;&gt;Node6 -->
<g id="edge5_Node000005_Node000006" class="edge">
<title>Node5&#45;&gt;Node6</title>
<g id="a_edge5_Node000005_Node000006"><a xlink:title=" ">
<path fill="none" stroke="#63b8ff" d="M507.51,-226.52C519.86,-218.7 535.22,-206.51 542.36,-191 546.21,-182.62 546,-178.72 542.36,-170.25 533.17,-148.88 513.55,-155.62 504.36,-134.25 498.17,-119.86 499.42,-102.05 501.94,-88.54"/>
<polygon fill="#63b8ff" stroke="#63b8ff" points="505.3,-89.57 504.1,-79.04 498.47,-88.02 505.3,-89.57"/>
</a>
</g>
</g>
<!-- Node8 -->
<g id="Node000008" class="node">
<title>Node8</title>
<g id="a_Node000008"><a xlink:title=" ">
<polygon fill="#e0e0e0" stroke="#999999" points="533.73,-191 444.98,-191 444.98,-170.25 533.73,-170.25 533.73,-191"/>
<text xml:space="preserve" text-anchor="middle" x="489.36" y="-177.5" font-family="Helvetica,sans-Serif" font-size="10.00">MK22F51212.h</text>
</a>
</g>
</g>
<!-- Node5&#45;&gt;Node8 -->
<g id="edge8_Node000005_Node000008" class="edge">
<title>Node5&#45;&gt;Node8</title>
<g id="a_edge8_Node000005_Node000008"><a xlink:title=" ">
<path fill="none" stroke="#63b8ff" d="M489.36,-226.59C489.36,-219.97 489.36,-210.97 489.36,-202.77"/>
<polygon fill="#63b8ff" stroke="#63b8ff" points="492.86,-202.84 489.36,-192.84 485.86,-202.84 492.86,-202.84"/>
</a>
</g>
</g>
<!-- Node9 -->
<g id="Node000009" class="node">
<title>Node9</title>
<g id="a_Node000009"><a xlink:href="step__core_8h.html" target="_top" xlink:title=" ">
<polygon fill="white" stroke="#666666" points="329.48,-191 257.23,-191 257.23,-170.25 329.48,-170.25 329.48,-191"/>
<text xml:space="preserve" text-anchor="middle" x="293.36" y="-177.5" font-family="Helvetica,sans-Serif" font-size="10.00">step_core.h</text>
</a>
</g>
</g>
<!-- Node5&#45;&gt;Node9 -->
<g id="edge9_Node000005_Node000009" class="edge">
<title>Node5&#45;&gt;Node9</title>
<g id="a_edge9_Node000005_Node000009"><a xlink:title=" ">
<path fill="none" stroke="#63b8ff" d="M454.32,-226.59C422.22,-217.62 374.51,-204.29 339.36,-194.48"/>
<polygon fill="#63b8ff" stroke="#63b8ff" points="340.46,-191.15 329.88,-191.83 338.57,-197.89 340.46,-191.15"/>
</a>
</g>
</g>
<!-- Node11 -->
<g id="Node000011" class="node">
<title>Node11</title>
<g id="a_Node000011"><a xlink:title=" ">
<polygon fill="#e0e0e0" stroke="#999999" points="152.73,-77.5 93.98,-77.5 93.98,-56.75 152.73,-56.75 152.73,-77.5"/>
<text xml:space="preserve" text-anchor="middle" x="123.36" y="-64" font-family="Helvetica,sans-Serif" font-size="10.00">fsl_ftm.h</text>
</a>
</g>
</g>
<!-- Node5&#45;&gt;Node11 -->
<g id="edge39_Node000005_Node000011" class="edge">
<title>Node5&#45;&gt;Node11</title>
<g id="a_edge39_Node000005_Node000011"><a xlink:title=" ">
<path fill="none" stroke="#63b8ff" d="M448.83,-235.46C399.13,-232.87 313.48,-223.56 248.36,-191 198.91,-166.27 156.69,-114.75 136.34,-86.93"/>
<polygon fill="#63b8ff" stroke="#63b8ff" points="139.4,-85.18 130.74,-79.07 133.7,-89.24 139.4,-85.18"/>
</a>
</g>
</g>
<!-- Node12 -->
<g id="Node000012" class="node">
<title>Node12</title>
<g id="a_Node000012"><a xlink:title=" ">
<polygon fill="#e0e0e0" stroke="#999999" points="411.98,-77.5 348.73,-77.5 348.73,-56.75 411.98,-56.75 411.98,-77.5"/>
<text xml:space="preserve" text-anchor="middle" x="380.36" y="-64" font-family="Helvetica,sans-Serif" font-size="10.00">fsl_gpio.h</text>
</a>
</g>
</g>
<!-- Node5&#45;&gt;Node12 -->
<g id="edge40_Node000005_Node000012" class="edge">
<title>Node5&#45;&gt;Node12</title>
<g id="a_edge40_Node000005_Node000012"><a xlink:title=" ">
<path fill="none" stroke="#63b8ff" d="M474.77,-226.61C463.17,-218.25 447.14,-205.32 436.36,-191 412.13,-158.81 395.19,-114.45 386.68,-88.78"/>
<polygon fill="#63b8ff" stroke="#63b8ff" points="390.01,-87.72 383.64,-79.26 383.34,-89.85 390.01,-87.72"/>
</a>
</g>
</g>
<!-- Node13 -->
<g id="Node000013" class="node">
<title>Node13</title>
<g id="a_Node000013"><a xlink:title=" ">
<polygon fill="#e0e0e0" stroke="#999999" points="76.23,-77.5 14.48,-77.5 14.48,-56.75 76.23,-56.75 76.23,-77.5"/>
<text xml:space="preserve" text-anchor="middle" x="45.36" y="-64" font-family="Helvetica,sans-Serif" font-size="10.00">fsl_port.h</text>
</a>
</g>
</g>
<!-- Node5&#45;&gt;Node13 -->
<g id="edge41_Node000005_Node000013" class="edge">
<title>Node5&#45;&gt;Node13</title>
<g id="a_edge41_Node000005_Node000013"><a xlink:title=" ">
<path fill="none" stroke="#63b8ff" d="M448.79,-234.36C342.16,-228.12 58.41,-205.03 4.36,-134.25 -7.7,-118.46 7.64,-98.98 22.87,-85.26"/>
<polygon fill="#63b8ff" stroke="#63b8ff" points="25.05,-88.01 30.46,-78.9 20.55,-82.64 25.05,-88.01"/>
</a>
</g>
</g>
<!-- Node20 -->
<g id="Node000020" class="node">
<title>Node20</title>
<g id="a_Node000020"><a xlink:href="tmc2209__core_8h.html" target="_top" xlink:title=" ">
<polygon fill="white" stroke="#666666" points="800.36,-191 706.36,-191 706.36,-170.25 800.36,-170.25 800.36,-191"/>
<text xml:space="preserve" text-anchor="middle" x="753.36" y="-177.5" font-family="Helvetica,sans-Serif" font-size="10.00">tmc2209_core.h</text>
</a>
</g>
</g>
<!-- Node5&#45;&gt;Node20 -->
<g id="edge31_Node000005_Node000020" class="edge">
<title>Node5&#45;&gt;Node20</title>
<g id="a_edge31_Node000005_Node000020"><a xlink:title=" ">
<path fill="none" stroke="#63b8ff" d="M530.03,-227.94C574.13,-218.79 644.92,-204.11 694.96,-193.74"/>
<polygon fill="#63b8ff" stroke="#63b8ff" points="695.38,-197.22 704.46,-191.77 693.96,-190.37 695.38,-197.22"/>
</a>
</g>
</g>
<!-- Node6&#45;&gt;Node4 -->
<g id="edge6_Node000006_Node000004" class="edge">
<title>Node6&#45;&gt;Node4</title>
<g id="a_edge6_Node000006_Node000004"><a xlink:title=" ">
<path fill="none" stroke="#63b8ff" d="M516.65,-56.34C523.75,-48.86 533.73,-38.36 542.26,-29.38"/>
<polygon fill="#63b8ff" stroke="#63b8ff" points="544.75,-31.84 549.1,-22.18 539.67,-27.02 544.75,-31.84"/>
</a>
</g>
</g>
<!-- Node7 -->
<g id="Node000007" class="node">
<title>Node7</title>
<g id="a_Node000007"><a xlink:title=" ">
<polygon fill="#e0e0e0" stroke="#999999" points="964.23,-20.75 884.48,-20.75 884.48,0 964.23,0 964.23,-20.75"/>
<text xml:space="preserve" text-anchor="middle" x="924.36" y="-7.25" font-family="Helvetica,sans-Serif" font-size="10.00">peripherals.h</text>
</a>
</g>
</g>
<!-- Node6&#45;&gt;Node7 -->
<g id="edge7_Node000006_Node000007" class="edge">
<title>Node6&#45;&gt;Node7</title>
<g id="a_edge7_Node000006_Node000007"><a xlink:title=" ">
<path fill="none" stroke="#63b8ff" d="M582.39,-56.27C666.3,-45.26 799.97,-27.71 872.85,-18.14"/>
<polygon fill="#63b8ff" stroke="#63b8ff" points="873.05,-21.64 882.51,-16.87 872.14,-14.7 873.05,-21.64"/>
</a>
</g>
</g>
<!-- Node9&#45;&gt;Node3 -->
<g id="edge11_Node000009_Node000003" class="edge">
<title>Node9&#45;&gt;Node3</title>
<g id="a_edge11_Node000009_Node000003"><a xlink:title=" ">
<path fill="none" stroke="#63b8ff" d="M329.83,-177.22C437.54,-170 749.47,-148.12 793.36,-134.25 828.4,-123.17 864.43,-100.22 886.61,-84.49"/>
<polygon fill="#63b8ff" stroke="#63b8ff" points="888.51,-87.44 894.55,-78.73 884.4,-81.77 888.51,-87.44"/>
</a>
</g>
</g>
<!-- Node9&#45;&gt;Node4 -->
<g id="edge13_Node000009_Node000004" class="edge">
<title>Node9&#45;&gt;Node4</title>
<g id="a_edge13_Node000009_Node000004"><a xlink:title=" ">
<path fill="none" stroke="#63b8ff" d="M256.89,-170.14C225.44,-161.67 178.99,-148.43 139.36,-134.25 108.91,-123.36 23.22,-104.46 5.36,-77.5 0.26,-69.81 -0.89,-63.53 5.36,-56.75 38.8,-20.45 372.58,-13.19 505.32,-11.74"/>
<polygon fill="#63b8ff" stroke="#63b8ff" points="505.3,-15.24 515.27,-11.64 505.23,-8.24 505.3,-15.24"/>
</a>
</g>
</g>
<!-- Node9&#45;&gt;Node6 -->
<g id="edge10_Node000009_Node000006" class="edge">
<title>Node9&#45;&gt;Node6</title>
<g id="a_edge10_Node000009_Node000006"><a xlink:title=" ">
<path fill="none" stroke="#63b8ff" d="M311.97,-169.93C349.36,-150.44 433.81,-106.44 478.45,-83.19"/>
<polygon fill="#63b8ff" stroke="#63b8ff" points="480.04,-86.31 487.29,-78.58 476.8,-80.1 480.04,-86.31"/>
</a>
</g>
</g>
<!-- Node9&#45;&gt;Node10 -->
<g id="edge12_Node000009_Node000010" class="edge">
<title>Node9&#45;&gt;Node10</title>
<g id="a_edge12_Node000009_Node000010"><a xlink:title=" ">
<path fill="none" stroke="#63b8ff" d="M257.05,-172.65C213.34,-164.14 137.78,-149.05 73.36,-134.25 72.53,-134.06 71.7,-133.87 70.86,-133.67"/>
<polygon fill="#63b8ff" stroke="#63b8ff" points="71.82,-130.3 61.28,-131.34 70.17,-137.1 71.82,-130.3"/>
</a>
</g>
</g>
<!-- Node9&#45;&gt;Node11 -->
<g id="edge14_Node000009_Node000011" class="edge">
<title>Node9&#45;&gt;Node11</title>
<g id="a_edge14_Node000009_Node000011"><a xlink:title=" ">
<path fill="none" stroke="#63b8ff" d="M277.29,-169.9C262.41,-160.84 239.74,-146.87 220.36,-134.25 194.91,-117.68 166.22,-97.99 146.68,-84.43"/>
<polygon fill="#63b8ff" stroke="#63b8ff" points="148.82,-81.65 138.61,-78.81 144.82,-87.4 148.82,-81.65"/>
</a>
</g>
</g>
<!-- Node9&#45;&gt;Node12 -->
<g id="edge15_Node000009_Node000012" class="edge">
<title>Node9&#45;&gt;Node12</title>
<g id="a_edge15_Node000009_Node000012"><a xlink:title=" ">
<path fill="none" stroke="#63b8ff" d="M300.78,-170.12C315.15,-151.7 347.03,-110.84 365.79,-86.8"/>
<polygon fill="#63b8ff" stroke="#63b8ff" points="368.39,-89.16 371.78,-79.12 362.87,-84.85 368.39,-89.16"/>
</a>
</g>
</g>
<!-- Node9&#45;&gt;Node13 -->
<g id="edge16_Node000009_Node000013" class="edge">
<title>Node9&#45;&gt;Node13</title>
<g id="a_edge16_Node000009_Node000013"><a xlink:title=" ">
<path fill="none" stroke="#63b8ff" d="M269.45,-169.79C247.69,-160.76 214.73,-146.91 186.36,-134.25 147.83,-117.05 103.87,-96.25 75.43,-82.63"/>
<polygon fill="#63b8ff" stroke="#63b8ff" points="77.22,-79.61 66.69,-78.43 74.2,-85.92 77.22,-79.61"/>
</a>
</g>
</g>
<!-- Node14 -->
<g id="Node000014" class="node">
<title>Node14</title>
<g id="a_Node000014"><a xlink:href="cmd__handle_8h.html" target="_top" xlink:title=" ">
<polygon fill="white" stroke="#666666" points="1076.48,-134.25 992.23,-134.25 992.23,-113.5 1076.48,-113.5 1076.48,-134.25"/>
<text xml:space="preserve" text-anchor="middle" x="1034.36" y="-120.75" font-family="Helvetica,sans-Serif" font-size="10.00">cmd_handle.h</text>
</a>
</g>
</g>
<!-- Node9&#45;&gt;Node14 -->
<g id="edge17_Node000009_Node000014" class="edge">
<title>Node9&#45;&gt;Node14</title>
<g id="a_edge17_Node000009_Node000014"><a xlink:title=" ">
<path fill="none" stroke="#63b8ff" d="M329.85,-176.93C450.67,-168 838.07,-139.38 980.86,-128.83"/>
<polygon fill="#63b8ff" stroke="#63b8ff" points="980.68,-132.35 990.4,-128.12 980.17,-125.37 980.68,-132.35"/>
</a>
</g>
</g>
<!-- Node18 -->
<g id="Node000018" class="node">
<title>Node18</title>
<g id="a_Node000018"><a xlink:href="step__shared_8h.html" target="_top" xlink:title=" ">
<polygon fill="white" stroke="#666666" points="313.48,-134.25 229.23,-134.25 229.23,-113.5 313.48,-113.5 313.48,-134.25"/>
<text xml:space="preserve" text-anchor="middle" x="271.36" y="-120.75" font-family="Helvetica,sans-Serif" font-size="10.00">step_shared.h</text>
</a>
</g>
</g>
<!-- Node9&#45;&gt;Node18 -->
<g id="edge23_Node000009_Node000018" class="edge">
<title>Node9&#45;&gt;Node18</title>
<g id="a_edge23_Node000009_Node000018"><a xlink:title=" ">
<path fill="none" stroke="#63b8ff" d="M289.42,-169.84C286.67,-162.99 282.89,-153.59 279.51,-145.15"/>
<polygon fill="#63b8ff" stroke="#63b8ff" points="282.8,-143.96 275.82,-135.98 276.3,-146.57 282.8,-143.96"/>
</a>
</g>
</g>
<!-- Node14&#45;&gt;Node3 -->
<g id="edge19_Node000014_Node000003" class="edge">
<title>Node14&#45;&gt;Node3</title>
<g id="a_edge19_Node000014_Node000003"><a xlink:title=" ">
<path fill="none" stroke="#63b8ff" d="M1011.83,-113.09C992.12,-104.52 963.25,-91.98 941.01,-82.31"/>
<polygon fill="#63b8ff" stroke="#63b8ff" points="942.64,-79.21 932.08,-78.43 939.85,-85.63 942.64,-79.21"/>
</a>
</g>
</g>
<!-- Node14&#45;&gt;Node4 -->
<g id="edge21_Node000014_Node000004" class="edge">
<title>Node14&#45;&gt;Node4</title>
<g id="a_edge21_Node000014_Node000004"><a xlink:title=" ">
<path fill="none" stroke="#63b8ff" d="M1026.04,-113.21C1012.51,-98.22 984.13,-69.75 953.36,-56.75 893.37,-31.41 706.91,-18.74 613.64,-13.86"/>
<polygon fill="#63b8ff" stroke="#63b8ff" points="613.88,-10.37 603.71,-13.35 613.52,-17.36 613.88,-10.37"/>
</a>
</g>
</g>
<!-- Node15 -->
<g id="Node000015" class="node">
<title>Node15</title>
<g id="a_Node000015"><a xlink:title=" ">
<polygon fill="#e0e0e0" stroke="#999999" points="854.73,-77.5 801.98,-77.5 801.98,-56.75 854.73,-56.75 854.73,-77.5"/>
<text xml:space="preserve" text-anchor="middle" x="828.36" y="-64" font-family="Helvetica,sans-Serif" font-size="10.00">stdint.h</text>
</a>
</g>
</g>
<!-- Node14&#45;&gt;Node15 -->
<g id="edge18_Node000014_Node000015" class="edge">
<title>Node14&#45;&gt;Node15</title>
<g id="a_edge18_Node000014_Node000015"><a xlink:title=" ">
<path fill="none" stroke="#63b8ff" d="M997.32,-113.08C964.99,-104.51 916.49,-91.65 865.92,-78.18"/>
<polygon fill="#63b8ff" stroke="#63b8ff" points="867.14,-74.88 856.57,-75.69 865.33,-81.64 867.14,-74.88"/>
</a>
</g>
</g>
<!-- Node16 -->
<g id="Node000016" class="node">
<title>Node16</title>
<g id="a_Node000016"><a xlink:title=" ">
<polygon fill="#e0e0e0" stroke="#999999" points="1091.86,-77.5 1000.86,-77.5 1000.86,-56.75 1091.86,-56.75 1091.86,-77.5"/>
<text xml:space="preserve" text-anchor="middle" x="1046.36" y="-64" font-family="Helvetica,sans-Serif" font-size="10.00">event_groups.h</text>
</a>
</g>
</g>
<!-- Node14&#45;&gt;Node16 -->
<g id="edge20_Node000014_Node000016" class="edge">
<title>Node14&#45;&gt;Node16</title>
<g id="a_edge20_Node000014_Node000016"><a xlink:title=" ">
<path fill="none" stroke="#63b8ff" d="M1036.5,-113.09C1037.97,-106.39 1039.97,-97.26 1041.79,-88.98"/>
<polygon fill="#63b8ff" stroke="#63b8ff" points="1045.18,-89.82 1043.91,-79.31 1038.35,-88.33 1045.18,-89.82"/>
</a>
</g>
</g>
<!-- Node17 -->
<g id="Node000017" class="node">
<title>Node17</title>
<g id="a_Node000017"><a xlink:title=" ">
<polygon fill="#e0e0e0" stroke="#999999" points="1162.36,-77.5 1110.36,-77.5 1110.36,-56.75 1162.36,-56.75 1162.36,-77.5"/>
<text xml:space="preserve" text-anchor="middle" x="1136.36" y="-64" font-family="Helvetica,sans-Serif" font-size="10.00">stdlib.h</text>
</a>
</g>
</g>
<!-- Node14&#45;&gt;Node17 -->
<g id="edge22_Node000014_Node000017" class="edge">
<title>Node14&#45;&gt;Node17</title>
<g id="a_edge22_Node000014_Node000017"><a xlink:title=" ">
<path fill="none" stroke="#63b8ff" d="M1052.59,-113.09C1068.04,-104.8 1090.44,-92.77 1108.19,-83.24"/>
<polygon fill="#63b8ff" stroke="#63b8ff" points="1109.79,-86.36 1116.95,-78.54 1106.48,-80.19 1109.79,-86.36"/>
</a>
</g>
</g>
<!-- Node18&#45;&gt;Node4 -->
<g id="edge27_Node000018_Node000004" class="edge">
<title>Node18&#45;&gt;Node4</title>
<g id="a_edge27_Node000018_Node000004"><a xlink:title=" ">
<path fill="none" stroke="#63b8ff" d="M246.47,-113.05C218.74,-100.71 180.16,-78.52 199.36,-56.75 219.23,-34.21 409.44,-20.07 505.05,-14.32"/>
<polygon fill="#63b8ff" stroke="#63b8ff" points="505.22,-17.82 514.99,-13.73 504.8,-10.83 505.22,-17.82"/>
</a>
</g>
</g>
<!-- Node18&#45;&gt;Node6 -->
<g id="edge25_Node000018_Node000006" class="edge">
<title>Node18&#45;&gt;Node6</title>
<g id="a_edge25_Node000018_Node000006"><a xlink:title=" ">
<path fill="none" stroke="#63b8ff" d="M313.82,-113.02C353.05,-103.92 411.49,-90.37 453.88,-80.53"/>
<polygon fill="#63b8ff" stroke="#63b8ff" points="454.41,-84 463.36,-78.33 452.83,-77.18 454.41,-84"/>
</a>
</g>
</g>
<!-- Node18&#45;&gt;Node11 -->
<g id="edge28_Node000018_Node000011" class="edge">
<title>Node18&#45;&gt;Node11</title>
<g id="a_edge28_Node000018_Node000011"><a xlink:title=" ">
<path fill="none" stroke="#63b8ff" d="M244.9,-113.09C221.33,-104.37 186.59,-91.52 160.29,-81.79"/>
<polygon fill="#63b8ff" stroke="#63b8ff" points="161.6,-78.54 151.01,-78.35 159.17,-85.11 161.6,-78.54"/>
</a>
</g>
</g>
<!-- Node18&#45;&gt;Node12 -->
<g id="edge29_Node000018_Node000012" class="edge">
<title>Node18&#45;&gt;Node12</title>
<g id="a_edge29_Node000018_Node000012"><a xlink:title=" ">
<path fill="none" stroke="#63b8ff" d="M290.84,-113.09C307.51,-104.72 331.74,-92.54 350.79,-82.97"/>
<polygon fill="#63b8ff" stroke="#63b8ff" points="352.32,-86.12 359.69,-78.51 349.18,-79.87 352.32,-86.12"/>
</a>
</g>
</g>
<!-- Node18&#45;&gt;Node13 -->
<g id="edge30_Node000018_Node000013" class="edge">
<title>Node18&#45;&gt;Node13</title>
<g id="a_edge30_Node000018_Node000013"><a xlink:title=" ">
<path fill="none" stroke="#63b8ff" d="M230.69,-113.02C190.27,-103.23 128.54,-88.28 87.58,-78.35"/>
<polygon fill="#63b8ff" stroke="#63b8ff" points="88.62,-75.01 78.08,-76.05 86.98,-81.81 88.62,-75.01"/>
</a>
</g>
</g>
<!-- Node18&#45;&gt;Node15 -->
<g id="edge24_Node000018_Node000015" class="edge">
<title>Node18&#45;&gt;Node15</title>
<g id="a_edge24_Node000018_Node000015"><a xlink:title=" ">
<path fill="none" stroke="#63b8ff" d="M313.97,-121.69C401.64,-118.72 608.58,-108.93 790.59,-77.72"/>
<polygon fill="#63b8ff" stroke="#63b8ff" points="790.97,-81.2 800.22,-76.04 789.77,-74.31 790.97,-81.2"/>
</a>
</g>
</g>
<!-- Node19 -->
<g id="Node000019" class="node">
<title>Node19</title>
<g id="a_Node000019"><a xlink:title=" ">
<polygon fill="#e0e0e0" stroke="#999999" points="330.61,-77.5 208.11,-77.5 208.11,-56.75 330.61,-56.75 330.61,-77.5"/>
<text xml:space="preserve" text-anchor="middle" x="269.36" y="-64" font-family="Helvetica,sans-Serif" font-size="10.00">fsl_device_registers.h</text>
</a>
</g>
</g>
<!-- Node18&#45;&gt;Node19 -->
<g id="edge26_Node000018_Node000019" class="edge">
<title>Node18&#45;&gt;Node19</title>
<g id="a_edge26_Node000018_Node000019"><a xlink:title=" ">
<path fill="none" stroke="#63b8ff" d="M271,-113.09C270.76,-106.47 270.43,-97.47 270.13,-89.27"/>
<polygon fill="#63b8ff" stroke="#63b8ff" points="273.63,-89.21 269.77,-79.34 266.63,-89.46 273.63,-89.21"/>
</a>
</g>
</g>
<!-- Node20&#45;&gt;Node4 -->
<g id="edge36_Node000020_Node000004" class="edge">
<title>Node20&#45;&gt;Node4</title>
<g id="a_edge36_Node000020_Node000004"><a xlink:title=" ">
<path fill="none" stroke="#63b8ff" d="M729.31,-169.83C711.58,-161.88 687.49,-149.51 669.36,-134.25 635.82,-106.02 638.09,-88.96 608.36,-56.75 599.28,-46.91 588.41,-36.71 579.23,-28.48"/>
<polygon fill="#63b8ff" stroke="#63b8ff" points="581.68,-25.98 571.86,-22 577.05,-31.23 581.68,-25.98"/>
</a>
</g>
</g>
<!-- Node20&#45;&gt;Node7 -->
<g id="edge38_Node000020_Node000007" class="edge">
<title>Node20&#45;&gt;Node7</title>
<g id="a_edge38_Node000020_Node000007"><a xlink:title=" ">
<path fill="none" stroke="#63b8ff" d="M800.6,-179.69C866.47,-178.35 988.7,-170.58 1085.36,-134.25 1128.22,-118.14 1149.65,-117.82 1171.36,-77.5 1175.73,-69.38 1177.26,-63.84 1171.36,-56.75 1146.97,-27.48 1040.78,-17.03 975.83,-13.34"/>
<polygon fill="#63b8ff" stroke="#63b8ff" points="976.29,-9.86 966.12,-12.83 975.92,-16.85 976.29,-9.86"/>
</a>
</g>
</g>
<!-- Node20&#45;&gt;Node14 -->
<g id="edge37_Node000020_Node000014" class="edge">
<title>Node20&#45;&gt;Node14</title>
<g id="a_edge37_Node000020_Node000014"><a xlink:title=" ">
<path fill="none" stroke="#63b8ff" d="M800.71,-170.4C850.54,-160.69 928.84,-145.43 980.87,-135.3"/>
<polygon fill="#63b8ff" stroke="#63b8ff" points="981.25,-138.79 990.39,-133.44 979.91,-131.92 981.25,-138.79"/>
</a>
</g>
</g>
<!-- Node20&#45;&gt;Node15 -->
<g id="edge32_Node000020_Node000015" class="edge">
<title>Node20&#45;&gt;Node15</title>
<g id="a_edge32_Node000020_Node000015"><a xlink:title=" ">
<path fill="none" stroke="#63b8ff" d="M762.97,-170.09C771.56,-161.27 784.16,-147.55 793.36,-134.25 803.51,-119.56 812.85,-101.57 819.33,-88.07"/>
<polygon fill="#63b8ff" stroke="#63b8ff" points="822.35,-89.87 823.41,-79.32 816.01,-86.91 822.35,-89.87"/>
</a>
</g>
</g>
<!-- Node21 -->
<g id="Node000021" class="node">
<title>Node21</title>
<g id="a_Node000021"><a xlink:href="tmc2209__shared_8h.html" target="_top" xlink:title=" ">
<polygon fill="white" stroke="#666666" points="784.36,-134.25 678.36,-134.25 678.36,-113.5 784.36,-113.5 784.36,-134.25"/>
<text xml:space="preserve" text-anchor="middle" x="731.36" y="-120.75" font-family="Helvetica,sans-Serif" font-size="10.00">tmc2209_shared.h</text>
</a>
</g>
</g>
<!-- Node20&#45;&gt;Node21 -->
<g id="edge33_Node000020_Node000021" class="edge">
<title>Node20&#45;&gt;Node21</title>
<g id="a_edge33_Node000020_Node000021"><a xlink:title=" ">
<path fill="none" stroke="#63b8ff" d="M749.42,-169.84C746.67,-162.99 742.89,-153.59 739.51,-145.15"/>
<polygon fill="#63b8ff" stroke="#63b8ff" points="742.8,-143.96 735.82,-135.98 736.3,-146.57 742.8,-143.96"/>
</a>
</g>
</g>
<!-- Node21&#45;&gt;Node15 -->
<g id="edge34_Node000021_Node000015" class="edge">
<title>Node21&#45;&gt;Node15</title>
<g id="a_edge34_Node000021_Node000015"><a xlink:title=" ">
<path fill="none" stroke="#63b8ff" d="M748.7,-113.09C763.32,-104.83 784.49,-92.88 801.34,-83.38"/>
<polygon fill="#63b8ff" stroke="#63b8ff" points="802.86,-86.54 809.85,-78.57 799.42,-80.44 802.86,-86.54"/>
</a>
</g>
</g>
<!-- Node22 -->
<g id="Node000022" class="node">
<title>Node22</title>
<g id="a_Node000022"><a xlink:title=" ">
<polygon fill="#e0e0e0" stroke="#999999" points="783.98,-77.5 678.73,-77.5 678.73,-56.75 783.98,-56.75 783.98,-77.5"/>
<text xml:space="preserve" text-anchor="middle" x="731.36" y="-64" font-family="Helvetica,sans-Serif" font-size="10.00">fsl_uart_freertos.h</text>
</a>
</g>
</g>
<!-- Node21&#45;&gt;Node22 -->
<g id="edge35_Node000021_Node000022" class="edge">
<title>Node21&#45;&gt;Node22</title>
<g id="a_edge35_Node000021_Node000022"><a xlink:title=" ">
<path fill="none" stroke="#63b8ff" d="M731.36,-113.09C731.36,-106.47 731.36,-97.47 731.36,-89.27"/>
<polygon fill="#63b8ff" stroke="#63b8ff" points="734.86,-89.34 731.36,-79.34 727.86,-89.34 734.86,-89.34"/>
</a>
</g>
</g>
<!-- Node24 -->
<g id="Node000024" class="node">
<title>Node24</title>
<g id="a_Node000024"><a xlink:href="motor__internal_8h.html" target="_top" xlink:title=" ">
<polygon fill="white" stroke="#666666" points="924.86,-304.5 827.86,-304.5 827.86,-283.75 924.86,-283.75 924.86,-304.5"/>
<text xml:space="preserve" text-anchor="middle" x="876.36" y="-291" font-family="Helvetica,sans-Serif" font-size="10.00">motor_internal.h</text>
</a>
</g>
</g>
<!-- Node23&#45;&gt;Node24 -->
<g id="edge43_Node000023_Node000024" class="edge">
<title>Node23&#45;&gt;Node24</title>
<g id="a_edge43_Node000023_Node000024"><a xlink:title=" ">
<path fill="none" stroke="#63b8ff" d="M815.59,-340.09C826.32,-332.15 841.68,-320.78 854.27,-311.46"/>
<polygon fill="#63b8ff" stroke="#63b8ff" points="856.07,-314.49 862.03,-305.73 851.91,-308.86 856.07,-314.49"/>
</a>
</g>
</g>
<!-- Node24&#45;&gt;Node3 -->
<g id="edge47_Node000024_Node000003" class="edge">
<title>Node24&#45;&gt;Node3</title>
<g id="a_edge47_Node000024_Node000003"><a xlink:title=" ">
<path fill="none" stroke="#63b8ff" d="M877.73,-283.46C882.54,-249.63 898.69,-136.11 905.4,-88.94"/>
<polygon fill="#63b8ff" stroke="#63b8ff" points="908.83,-89.65 906.77,-79.26 901.9,-88.66 908.83,-89.65"/>
</a>
</g>
</g>
<!-- Node24&#45;&gt;Node5 -->
<g id="edge46_Node000024_Node000005" class="edge">
<title>Node24&#45;&gt;Node5</title>
<g id="a_edge46_Node000024_Node000005"><a xlink:title=" ">
<path fill="none" stroke="#63b8ff" d="M827.74,-286.25C754.36,-275.87 615.95,-256.28 540.89,-245.67"/>
<polygon fill="#63b8ff" stroke="#63b8ff" points="541.74,-242.25 531.35,-244.32 540.76,-249.18 541.74,-242.25"/>
</a>
</g>
</g>
<!-- Node24&#45;&gt;Node14 -->
<g id="edge49_Node000024_Node000014" class="edge">
<title>Node24&#45;&gt;Node14</title>
<g id="a_edge49_Node000024_Node000014"><a xlink:title=" ">
<path fill="none" stroke="#63b8ff" d="M886.48,-283.53C905.12,-265.74 945.95,-226.22 978.36,-191 992.78,-175.32 1008.39,-156.75 1019.45,-143.29"/>
<polygon fill="#63b8ff" stroke="#63b8ff" points="1022.05,-145.64 1025.66,-135.68 1016.63,-141.21 1022.05,-145.64"/>
</a>
</g>
</g>
<!-- Node24&#45;&gt;Node15 -->
<g id="edge44_Node000024_Node000015" class="edge">
<title>Node24&#45;&gt;Node15</title>
<g id="a_edge44_Node000024_Node000015"><a xlink:title=" ">
<path fill="none" stroke="#63b8ff" d="M874.3,-283.46C867.08,-249.63 842.86,-136.11 832.8,-88.94"/>
<polygon fill="#63b8ff" stroke="#63b8ff" points="836.24,-88.29 830.73,-79.24 829.39,-89.75 836.24,-88.29"/>
</a>
</g>
</g>
<!-- Node25 -->
<g id="Node000025" class="node">
<title>Node25</title>
<g id="a_Node000025"><a xlink:title=" ">
<polygon fill="#e0e0e0" stroke="#999999" points="1015.86,-247.75 954.86,-247.75 954.86,-227 1015.86,-227 1015.86,-247.75"/>
<text xml:space="preserve" text-anchor="middle" x="985.36" y="-234.25" font-family="Helvetica,sans-Serif" font-size="10.00">stdbool.h</text>
</a>
</g>
</g>
<!-- Node24&#45;&gt;Node25 -->
<g id="edge45_Node000024_Node000025" class="edge">
<title>Node24&#45;&gt;Node25</title>
<g id="a_edge45_Node000024_Node000025"><a xlink:title=" ">
<path fill="none" stroke="#63b8ff" d="M895.84,-283.34C912.51,-274.97 936.74,-262.79 955.79,-253.22"/>
<polygon fill="#63b8ff" stroke="#63b8ff" points="957.32,-256.37 964.69,-248.76 954.18,-250.12 957.32,-256.37"/>
</a>
</g>
</g>
<!-- Node24&#45;&gt;Node26 -->
<g id="edge48_Node000024_Node000026" class="edge">
<title>Node24&#45;&gt;Node26</title>
<g id="a_edge48_Node000024_Node000026"><a xlink:title=" ">
<path fill="none" stroke="#63b8ff" d="M909.43,-283.34C941.18,-273.94 989.12,-259.75 1022.64,-249.83"/>
<polygon fill="#63b8ff" stroke="#63b8ff" points="1023.36,-253.27 1031.95,-247.08 1021.37,-246.56 1023.36,-253.27"/>
</a>
</g>
</g>
<!-- Node27&#45;&gt;Node3 -->
<g id="edge52_Node000027_Node000003" class="edge">
<title>Node27&#45;&gt;Node3</title>
<g id="a_edge52_Node000027_Node000003"><a xlink:title=" ">
<path fill="none" stroke="#63b8ff" d="M1155.94,-283.46C1156.44,-270.36 1156.3,-246.37 1150.36,-227 1133.3,-171.43 1131.61,-148.72 1085.36,-113.5 1065.12,-98.09 1000.75,-84.17 955.5,-75.93"/>
<polygon fill="#63b8ff" stroke="#63b8ff" points="956.4,-72.54 945.94,-74.23 955.17,-79.43 956.4,-72.54"/>
</a>
</g>
</g>
<!-- Node27&#45;&gt;Node14 -->
<g id="edge54_Node000027_Node000014" class="edge">
<title>Node27&#45;&gt;Node14</title>
<g id="a_edge54_Node000027_Node000014"><a xlink:title=" ">
<path fill="none" stroke="#63b8ff" d="M1153.22,-283.6C1149.93,-270.24 1142.79,-245.49 1131.36,-227 1110.4,-193.12 1076.84,-161.01 1055.2,-142.13"/>
<polygon fill="#63b8ff" stroke="#63b8ff" points="1057.48,-139.48 1047.61,-135.64 1052.94,-144.8 1057.48,-139.48"/>
</a>
</g>
</g>
<!-- Node27&#45;&gt;Node15 -->
<g id="edge51_Node000027_Node000015" class="edge">
<title>Node27&#45;&gt;Node15</title>
<g id="a_edge51_Node000027_Node000015"><a xlink:title=" ">
<path fill="none" stroke="#63b8ff" d="M1148.48,-283.26C1138.54,-269.5 1119.07,-244.29 1098.36,-227 1020.63,-162.11 913.16,-107.57 860.31,-82.65"/>
<polygon fill="#63b8ff" stroke="#63b8ff" points="862.11,-79.63 851.57,-78.57 859.15,-85.97 862.11,-79.63"/>
</a>
</g>
</g>
<!-- Node27&#45;&gt;Node26 -->
<g id="edge53_Node000027_Node000026" class="edge">
<title>Node27&#45;&gt;Node26</title>
<g id="a_edge53_Node000027_Node000026"><a xlink:title=" ">
<path fill="none" stroke="#63b8ff" d="M1138.55,-283.34C1124.38,-275.08 1103.86,-263.13 1087.54,-253.63"/>
<polygon fill="#63b8ff" stroke="#63b8ff" points="1089.73,-250.85 1079.33,-248.84 1086.2,-256.9 1089.73,-250.85"/>
</a>
</g>
</g>
<!-- Node30&#45;&gt;Node24 -->
<g id="edge60_Node000030_Node000024" class="edge">
<title>Node30&#45;&gt;Node24</title>
<g id="a_edge60_Node000030_Node000024"><a xlink:title=" ">
<path fill="none" stroke="#63b8ff" d="M909.21,-340.09C903.92,-332.85 896.55,-322.76 890.13,-313.97"/>
<polygon fill="#63b8ff" stroke="#63b8ff" points="893.07,-312.06 884.34,-306.05 887.41,-316.19 893.07,-312.06"/>
</a>
</g>
</g>
<!-- Node30&#45;&gt;Node25 -->
<g id="edge61_Node000030_Node000025" class="edge">
<title>Node30&#45;&gt;Node25</title>
<g id="a_edge61_Node000030_Node000025"><a xlink:title=" ">
<path fill="none" stroke="#63b8ff" d="M922.24,-340.37C933.54,-322.11 958.48,-281.81 973.4,-257.7"/>
<polygon fill="#63b8ff" stroke="#63b8ff" points="976.21,-259.81 978.5,-249.46 970.26,-256.12 976.21,-259.81"/>
</a>
</g>
</g>
</g>
</svg>
