<?xml version="1.0" encoding="UTF-8" standalone="no"?>
<!DOCTYPE svg PUBLIC "-//W3C//DTD SVG 1.1//EN"
 "http://www.w3.org/Graphics/SVG/1.1/DTD/svg11.dtd">
<!-- Generated by graphviz version 14.1.5 (0)
 -->
<!-- Title: source/motor_homing.c Pages: 1 -->
<svg width="1344pt" height="426pt"
 viewBox="0.00 0.00 1344.00 426.00" xmlns="http://www.w3.org/2000/svg" xmlns:xlink="http://www.w3.org/1999/xlink">
<g id="graph0" class="graph" transform="scale(1 1) rotate(0) translate(4 422)">
<title>source/motor_homing.c</title>
<!-- Node1 -->
<g id="Node000001" class="node">
<title>Node1</title>
<g id="a_Node000001"><a xlink:title=" ">
<polygon fill="#999999" stroke="#666666" points="577.38,-418 446.62,-418 446.62,-397.25 577.38,-397.25 577.38,-418"/>
<text xml:space="preserve" text-anchor="middle" x="512" y="-404.5" font-family="Helvetica,sans-Serif" font-size="10.00">source/motor_homing.c</text>
</a>
</g>
</g>
<!-- Node2 -->
<g id="Node000002" class="node">
<title>Node2</title>
<g id="a_Node000002"><a xlink:href="motor__homing_8h.html" target="_top" xlink:title=" ">
<polygon fill="white" stroke="#666666" points="330.12,-361.25 233.88,-361.25 233.88,-340.5 330.12,-340.5 330.12,-361.25"/>
<text xml:space="preserve" text-anchor="middle" x="282" y="-347.75" font-family="Helvetica,sans-Serif" font-size="10.00">motor_homing.h</text>
</a>
</g>
</g>
<!-- Node1&#45;&gt;Node2 -->
<g id="edge1_Node000001_Node000002" class="edge">
<title>Node1&#45;&gt;Node2</title>
<g id="a_edge1_Node000001_Node000002"><a xlink:title=" ">
<path fill="none" stroke="#63b8ff" d="M470.61,-396.77C432.47,-387.69 375.68,-374.17 334.38,-364.34"/>
<polygon fill="#63b8ff" stroke="#63b8ff" points="335.45,-361 324.91,-362.09 333.83,-367.81 335.45,-361"/>
</a>
</g>
</g>
<!-- Node6 -->
<g id="Node000006" class="node">
<title>Node6</title>
<g id="a_Node000006"><a xlink:href="motor__core_8h.html" target="_top" xlink:title=" ">
<polygon fill="white" stroke="#666666" points="608.25,-247.75 527.75,-247.75 527.75,-227 608.25,-227 608.25,-247.75"/>
<text xml:space="preserve" text-anchor="middle" x="568" y="-234.25" font-family="Helvetica,sans-Serif" font-size="10.00">motor_core.h</text>
</a>
</g>
</g>
<!-- Node1&#45;&gt;Node6 -->
<g id="edge50_Node000001_Node000006" class="edge">
<title>Node1&#45;&gt;Node6</title>
<g id="a_edge50_Node000001_Node000006"><a xlink:title=" ">
<path fill="none" stroke="#63b8ff" d="M523.92,-396.77C533.21,-388.36 545.58,-375.4 552,-361.25 567.06,-328.05 569.2,-284.96 568.92,-259.63"/>
<polygon fill="#63b8ff" stroke="#63b8ff" points="572.41,-259.55 568.65,-249.65 565.42,-259.74 572.41,-259.55"/>
</a>
</g>
</g>
<!-- Node11 -->
<g id="Node000011" class="node">
<title>Node11</title>
<g id="a_Node000011"><a xlink:href="step__core_8h.html" target="_top" xlink:title=" ">
<polygon fill="white" stroke="#666666" points="396.12,-191 323.88,-191 323.88,-170.25 396.12,-170.25 396.12,-191"/>
<text xml:space="preserve" text-anchor="middle" x="360" y="-177.5" font-family="Helvetica,sans-Serif" font-size="10.00">step_core.h</text>
</a>
</g>
</g>
<!-- Node1&#45;&gt;Node11 -->
<g id="edge54_Node000001_Node000011" class="edge">
<title>Node1&#45;&gt;Node11</title>
<g id="a_edge54_Node000001_Node000011"><a xlink:title=" ">
<path fill="none" stroke="#63b8ff" d="M446.36,-405.75C370.62,-403.19 252.89,-393.9 225,-361.25 202.89,-335.37 136.95,-356.5 239,-227 256.66,-204.59 286.64,-193.25 312.33,-187.51"/>
<polygon fill="#63b8ff" stroke="#63b8ff" points="312.8,-190.98 321.92,-185.6 311.43,-184.12 312.8,-190.98"/>
</a>
</g>
</g>
<!-- Node12 -->
<g id="Node000012" class="node">
<title>Node12</title>
<g id="a_Node000012"><a xlink:title=" ">
<polygon fill="#e0e0e0" stroke="#999999" points="149.75,-77.5 78.25,-77.5 78.25,-56.75 149.75,-56.75 149.75,-77.5"/>
<text xml:space="preserve" text-anchor="middle" x="114" y="-64" font-family="Helvetica,sans-Serif" font-size="10.00">FreeRTOS.h</text>
</a>
</g>
</g>
<!-- Node1&#45;&gt;Node12 -->
<g id="edge48_Node000001_Node000012" class="edge">
<title>Node1&#45;&gt;Node12</title>
<g id="a_edge48_Node000001_Node000012"><a xlink:title=" ">
<path fill="none" stroke="#63b8ff" d="M446.49,-403.74C322.98,-396.5 68,-372.22 68,-295.12 68,-295.12 68,-295.12 68,-179.62 68,-145.05 87.13,-108.7 100.72,-87.24"/>
<polygon fill="#63b8ff" stroke="#63b8ff" points="103.58,-89.25 106.18,-78.98 97.74,-85.39 103.58,-89.25"/>
</a>
</g>
</g>
<!-- Node15 -->
<g id="Node000015" class="node">
<title>Node15</title>
<g id="a_Node000015"><a xlink:title=" ">
<polygon fill="#e0e0e0" stroke="#999999" points="775.62,-77.5 712.38,-77.5 712.38,-56.75 775.62,-56.75 775.62,-77.5"/>
<text xml:space="preserve" text-anchor="middle" x="744" y="-64" font-family="Helvetica,sans-Serif" font-size="10.00">fsl_gpio.h</text>
</a>
</g>
</g>
<!-- Node1&#45;&gt;Node15 -->
<g id="edge65_Node000001_Node000015" class="edge">
<title>Node1&#45;&gt;Node15</title>
<g id="a_edge65_Node000001_Node000015"><a xlink:title=" ">
<path fill="none" stroke="#63b8ff" d="M577.74,-405.12C653,-399.5 766,-377.36 766,-295.12 766,-295.12 766,-295.12 766,-179.62 766,-147.33 757.01,-110.75 750.52,-88.57"/>
<polygon fill="#63b8ff" stroke="#63b8ff" points="753.95,-87.83 747.69,-79.29 747.26,-89.88 753.95,-87.83"/>
</a>
</g>
</g>
<!-- Node26 -->
<g id="Node000026" class="node">
<title>Node26</title>
<g id="a_Node000026"><a xlink:title=" ">
<polygon fill="#e0e0e0" stroke="#999999" points="542.5,-361.25 481.5,-361.25 481.5,-340.5 542.5,-340.5 542.5,-361.25"/>
<text xml:space="preserve" text-anchor="middle" x="512" y="-347.75" font-family="Helvetica,sans-Serif" font-size="10.00">semphr.h</text>
</a>
</g>
</g>
<!-- Node1&#45;&gt;Node26 -->
<g id="edge49_Node000001_Node000026" class="edge">
<title>Node1&#45;&gt;Node26</title>
<g id="a_edge49_Node000001_Node000026"><a xlink:title=" ">
<path fill="none" stroke="#63b8ff" d="M512,-396.84C512,-390.22 512,-381.22 512,-373.02"/>
<polygon fill="#63b8ff" stroke="#63b8ff" points="515.5,-373.09 512,-363.09 508.5,-373.09 515.5,-373.09"/>
</a>
</g>
</g>
<!-- Node27 -->
<g id="Node000027" class="node">
<title>Node27</title>
<g id="a_Node000027"><a xlink:href="log_8h.html" target="_top" xlink:title=" ">
<polygon fill="white" stroke="#666666" points="40,-134.25 0,-134.25 0,-113.5 40,-113.5 40,-134.25"/>
<text xml:space="preserve" text-anchor="middle" x="20" y="-120.75" font-family="Helvetica,sans-Serif" font-size="10.00">log.h</text>
</a>
</g>
</g>
<!-- Node1&#45;&gt;Node27 -->
<g id="edge51_Node000001_Node000027" class="edge">
<title>Node1&#45;&gt;Node27</title>
<g id="a_edge51_Node000001_Node000027"><a xlink:title=" ">
<path fill="none" stroke="#63b8ff" d="M446.26,-403.76C327.14,-398.04 85.03,-383.79 54,-361.25 28.03,-342.39 25,-327.22 25,-295.12 25,-295.12 25,-295.12 25,-236.38 25,-204.95 22.99,-168.59 21.52,-146.17"/>
<polygon fill="#63b8ff" stroke="#63b8ff" points="25.02,-145.96 20.84,-136.22 18.03,-146.44 25.02,-145.96"/>
</a>
</g>
</g>
<!-- Node28 -->
<g id="Node000028" class="node">
<title>Node28</title>
<g id="a_Node000028"><a xlink:title=" ">
<polygon fill="#e0e0e0" stroke="#999999" points="648.5,-361.25 599.5,-361.25 599.5,-340.5 648.5,-340.5 648.5,-361.25"/>
<text xml:space="preserve" text-anchor="middle" x="624" y="-347.75" font-family="Helvetica,sans-Serif" font-size="10.00">stdio.h</text>
</a>
</g>
</g>
<!-- Node1&#45;&gt;Node28 -->
<g id="edge55_Node000001_Node000028" class="edge">
<title>Node1&#45;&gt;Node28</title>
<g id="a_edge55_Node000001_Node000028"><a xlink:title=" ">
<path fill="none" stroke="#63b8ff" d="M532.02,-396.84C549.22,-388.43 574.28,-376.18 593.9,-366.59"/>
<polygon fill="#63b8ff" stroke="#63b8ff" points="595.34,-369.78 602.79,-362.24 592.27,-363.49 595.34,-369.78"/>
</a>
</g>
</g>
<!-- Node29 -->
<g id="Node000029" class="node">
<title>Node29</title>
<g id="a_Node000029"><a xlink:href="motor__convert_8h.html" target="_top" xlink:title=" ">
<polygon fill="white" stroke="#666666" points="890.12,-304.5 793.88,-304.5 793.88,-283.75 890.12,-283.75 890.12,-304.5"/>
<text xml:space="preserve" text-anchor="middle" x="842" y="-291" font-family="Helvetica,sans-Serif" font-size="10.00">motor_convert.h</text>
</a>
</g>
</g>
<!-- Node1&#45;&gt;Node29 -->
<g id="edge56_Node000001_Node000029" class="edge">
<title>Node1&#45;&gt;Node29</title>
<g id="a_edge56_Node000001_Node000029"><a xlink:title=" ">
<path fill="none" stroke="#63b8ff" d="M577.75,-400.35C645.51,-393.03 745.91,-379.55 780,-361.25 800.93,-350.02 818.73,-329.04 829.82,-313.72"/>
<polygon fill="#63b8ff" stroke="#63b8ff" points="832.44,-316.09 835.24,-305.87 826.68,-312.11 832.44,-316.09"/>
</a>
</g>
</g>
<!-- Node30 -->
<g id="Node000030" class="node">
<title>Node30</title>
<g id="a_Node000030"><a xlink:href="sync__wait_8h.html" target="_top" xlink:title=" ">
<polygon fill="white" stroke="#666666" points="961.88,-191 888.12,-191 888.12,-170.25 961.88,-170.25 961.88,-191"/>
<text xml:space="preserve" text-anchor="middle" x="925" y="-177.5" font-family="Helvetica,sans-Serif" font-size="10.00">sync_wait.h</text>
</a>
</g>
</g>
<!-- Node1&#45;&gt;Node30 -->
<g id="edge59_Node000001_Node000030" class="edge">
<title>Node1&#45;&gt;Node30</title>
<g id="a_edge59_Node000001_Node000030"><a xlink:title=" ">
<path fill="none" stroke="#63b8ff" d="M577.74,-404C638.79,-399.84 731.38,-389.08 807,-361.25 852.09,-344.66 871.35,-343.79 899,-304.5 920.58,-273.84 924.9,-228.93 925.41,-202.75"/>
<polygon fill="#63b8ff" stroke="#63b8ff" points="928.91,-202.75 925.41,-192.75 921.91,-202.75 928.91,-202.75"/>
</a>
</g>
</g>
<!-- Node31 -->
<g id="Node000031" class="node">
<title>Node31</title>
<g id="a_Node000031"><a xlink:href="motor__configs_8h.html" target="_top" xlink:title=" ">
<polygon fill="white" stroke="#666666" points="543,-304.5 449,-304.5 449,-283.75 543,-283.75 543,-304.5"/>
<text xml:space="preserve" text-anchor="middle" x="496" y="-291" font-family="Helvetica,sans-Serif" font-size="10.00">motor_configs.h</text>
</a>
</g>
</g>
<!-- Node1&#45;&gt;Node31 -->
<g id="edge66_Node000001_Node000031" class="edge">
<title>Node1&#45;&gt;Node31</title>
<g id="a_edge66_Node000001_Node000031"><a xlink:title=" ">
<path fill="none" stroke="#63b8ff" d="M499.89,-396.91C490.54,-388.58 478.34,-375.66 473,-361.25 467.13,-345.42 474.4,-327.31 482.28,-314.04"/>
<polygon fill="#63b8ff" stroke="#63b8ff" points="485.1,-316.13 487.66,-305.85 479.24,-312.29 485.1,-316.13"/>
</a>
</g>
</g>
<!-- Node3 -->
<g id="Node000003" class="node">
<title>Node3</title>
<g id="a_Node000003"><a xlink:href="motor__internal_8h.html" target="_top" xlink:title=" ">
<polygon fill="white" stroke="#666666" points="416.5,-304.5 319.5,-304.5 319.5,-283.75 416.5,-283.75 416.5,-304.5"/>
<text xml:space="preserve" text-anchor="middle" x="368" y="-291" font-family="Helvetica,sans-Serif" font-size="10.00">motor_internal.h</text>
</a>
</g>
</g>
<!-- Node2&#45;&gt;Node3 -->
<g id="edge2_Node000002_Node000003" class="edge">
<title>Node2&#45;&gt;Node3</title>
<g id="a_edge2_Node000002_Node000003"><a xlink:title=" ">
<path fill="none" stroke="#63b8ff" d="M297.38,-340.09C310.09,-331.99 328.4,-320.33 343.19,-310.92"/>
<polygon fill="#63b8ff" stroke="#63b8ff" points="344.93,-313.96 351.48,-305.64 341.17,-308.06 344.93,-313.96"/>
</a>
</g>
</g>
<!-- Node10 -->
<g id="Node000010" class="node">
<title>Node10</title>
<g id="a_Node000010"><a xlink:title=" ">
<polygon fill="#e0e0e0" stroke="#999999" points="540.38,-191 451.62,-191 451.62,-170.25 540.38,-170.25 540.38,-191"/>
<text xml:space="preserve" text-anchor="middle" x="496" y="-177.5" font-family="Helvetica,sans-Serif" font-size="10.00">MK22F51212.h</text>
</a>
</g>
</g>
<!-- Node2&#45;&gt;Node10 -->
<g id="edge47_Node000002_Node000010" class="edge">
<title>Node2&#45;&gt;Node10</title>
<g id="a_edge47_Node000002_Node000010"><a xlink:title=" ">
<path fill="none" stroke="#63b8ff" d="M274.9,-340.33C259.12,-317.87 224.71,-261.06 253,-227 264.88,-212.7 371.95,-196.98 439.94,-188.3"/>
<polygon fill="#63b8ff" stroke="#63b8ff" points="440.34,-191.78 449.82,-187.06 439.46,-184.84 440.34,-191.78"/>
</a>
</g>
</g>
<!-- Node2&#45;&gt;Node12 -->
<g id="edge46_Node000002_Node000012" class="edge">
<title>Node2&#45;&gt;Node12</title>
<g id="a_edge46_Node000002_Node000012"><a xlink:title=" ">
<path fill="none" stroke="#63b8ff" d="M272.61,-340.18C264.17,-331.26 251.65,-317.47 242,-304.5 188.79,-232.99 173.89,-214.93 136,-134.25 129.07,-119.49 123.34,-101.95 119.47,-88.64"/>
<polygon fill="#63b8ff" stroke="#63b8ff" points="122.91,-87.97 116.86,-79.27 116.17,-89.85 122.91,-87.97"/>
</a>
</g>
</g>
<!-- Node4 -->
<g id="Node000004" class="node">
<title>Node4</title>
<g id="a_Node000004"><a xlink:title=" ">
<polygon fill="#e0e0e0" stroke="#999999" points="1102.38,-77.5 1049.62,-77.5 1049.62,-56.75 1102.38,-56.75 1102.38,-77.5"/>
<text xml:space="preserve" text-anchor="middle" x="1076" y="-64" font-family="Helvetica,sans-Serif" font-size="10.00">stdint.h</text>
</a>
</g>
</g>
<!-- Node3&#45;&gt;Node4 -->
<g id="edge3_Node000003_Node000004" class="edge">
<title>Node3&#45;&gt;Node4</title>
<g id="a_edge3_Node000003_Node000004"><a xlink:title=" ">
<path fill="none" stroke="#63b8ff" d="M416.63,-286.83C551.37,-269.11 922.74,-218.36 971,-191 1014.96,-166.08 1049.03,-115.41 1065.38,-87.55"/>
<polygon fill="#63b8ff" stroke="#63b8ff" points="1068.28,-89.52 1070.18,-79.1 1062.2,-86.06 1068.28,-89.52"/>
</a>
</g>
</g>
<!-- Node5 -->
<g id="Node000005" class="node">
<title>Node5</title>
<g id="a_Node000005"><a xlink:title=" ">
<polygon fill="#e0e0e0" stroke="#999999" points="322.5,-247.75 261.5,-247.75 261.5,-227 322.5,-227 322.5,-247.75"/>
<text xml:space="preserve" text-anchor="middle" x="292" y="-234.25" font-family="Helvetica,sans-Serif" font-size="10.00">stdbool.h</text>
</a>
</g>
</g>
<!-- Node3&#45;&gt;Node5 -->
<g id="edge4_Node000003_Node000005" class="edge">
<title>Node3&#45;&gt;Node5</title>
<g id="a_edge4_Node000003_Node000005"><a xlink:title=" ">
<path fill="none" stroke="#63b8ff" d="M354.41,-283.34C343.39,-275.4 327.61,-264.03 314.68,-254.71"/>
<polygon fill="#63b8ff" stroke="#63b8ff" points="316.86,-251.97 306.7,-248.96 312.77,-257.65 316.86,-251.97"/>
</a>
</g>
</g>
<!-- Node3&#45;&gt;Node6 -->
<g id="edge5_Node000003_Node000006" class="edge">
<title>Node3&#45;&gt;Node6</title>
<g id="a_edge5_Node000003_Node000006"><a xlink:title=" ">
<path fill="none" stroke="#63b8ff" d="M403.76,-283.34C436.65,-274.33 485.61,-260.93 521.52,-251.1"/>
<polygon fill="#63b8ff" stroke="#63b8ff" points="522.04,-254.59 530.76,-248.57 520.19,-247.83 522.04,-254.59"/>
</a>
</g>
</g>
<!-- Node3&#45;&gt;Node12 -->
<g id="edge43_Node000003_Node000012" class="edge">
<title>Node3&#45;&gt;Node12</title>
<g id="a_edge43_Node000003_Node000012"><a xlink:title=" ">
<path fill="none" stroke="#63b8ff" d="M328.6,-283.31C305.07,-276.12 275.48,-264.63 253,-247.75 192.42,-202.26 144.48,-123.88 124.33,-87.6"/>
<polygon fill="#63b8ff" stroke="#63b8ff" points="127.56,-86.21 119.71,-79.1 121.41,-89.56 127.56,-86.21"/>
</a>
</g>
</g>
<!-- Node17 -->
<g id="Node000017" class="node">
<title>Node17</title>
<g id="a_Node000017"><a xlink:href="cmd__handle_8h.html" target="_top" xlink:title=" ">
<polygon fill="white" stroke="#666666" points="878.12,-134.25 793.88,-134.25 793.88,-113.5 878.12,-113.5 878.12,-134.25"/>
<text xml:space="preserve" text-anchor="middle" x="836" y="-120.75" font-family="Helvetica,sans-Serif" font-size="10.00">cmd_handle.h</text>
</a>
</g>
</g>
<!-- Node3&#45;&gt;Node17 -->
<g id="edge45_Node000003_Node000017" class="edge">
<title>Node3&#45;&gt;Node17</title>
<g id="a_edge45_Node000003_Node000017"><a xlink:title=" ">
<path fill="none" stroke="#63b8ff" d="M376.92,-283.53C384.88,-274.67 396.55,-260.93 405,-247.75 425.7,-215.45 411.67,-192.38 443,-170.25 470.15,-151.07 680.97,-134.95 782.15,-128.23"/>
<polygon fill="#63b8ff" stroke="#63b8ff" points="782.38,-131.72 792.13,-127.58 781.92,-124.74 782.38,-131.72"/>
</a>
</g>
</g>
<!-- Node25 -->
<g id="Node000025" class="node">
<title>Node25</title>
<g id="a_Node000025"><a xlink:title=" ">
<polygon fill="#e0e0e0" stroke="#999999" points="395.5,-247.75 340.5,-247.75 340.5,-227 395.5,-227 395.5,-247.75"/>
<text xml:space="preserve" text-anchor="middle" x="368" y="-234.25" font-family="Helvetica,sans-Serif" font-size="10.00">queue.h</text>
</a>
</g>
</g>
<!-- Node3&#45;&gt;Node25 -->
<g id="edge44_Node000003_Node000025" class="edge">
<title>Node3&#45;&gt;Node25</title>
<g id="a_edge44_Node000003_Node000025"><a xlink:title=" ">
<path fill="none" stroke="#63b8ff" d="M368,-283.34C368,-276.72 368,-267.72 368,-259.52"/>
<polygon fill="#63b8ff" stroke="#63b8ff" points="371.5,-259.59 368,-249.59 364.5,-259.59 371.5,-259.59"/>
</a>
</g>
</g>
<!-- Node7 -->
<g id="Node000007" class="node">
<title>Node7</title>
<g id="a_Node000007"><a xlink:href="pca9555a_8h.html" target="_top" xlink:title=" ">
<polygon fill="white" stroke="#666666" points="694,-77.5 540,-77.5 540,-56.75 694,-56.75 694,-77.5"/>
<text xml:space="preserve" text-anchor="middle" x="617" y="-64" font-family="Helvetica,sans-Serif" font-size="10.00">driver/pca9555a/pca9555a.h</text>
</a>
</g>
</g>
<!-- Node6&#45;&gt;Node7 -->
<g id="edge6_Node000006_Node000007" class="edge">
<title>Node6&#45;&gt;Node7</title>
<g id="a_edge6_Node000006_Node000007"><a xlink:title=" ">
<path fill="none" stroke="#63b8ff" d="M574.25,-226.74C585.24,-209.2 607.61,-170.52 616,-134.25 619.45,-119.33 619.58,-102.01 618.91,-88.84"/>
<polygon fill="#63b8ff" stroke="#63b8ff" points="622.42,-88.93 618.21,-79.2 615.44,-89.43 622.42,-88.93"/>
</a>
</g>
</g>
<!-- Node6&#45;&gt;Node10 -->
<g id="edge9_Node000006_Node000010" class="edge">
<title>Node6&#45;&gt;Node10</title>
<g id="a_edge9_Node000006_Node000010"><a xlink:title=" ">
<path fill="none" stroke="#63b8ff" d="M555.13,-226.59C544.79,-218.72 530.03,-207.5 517.85,-198.24"/>
<polygon fill="#63b8ff" stroke="#63b8ff" points="520.04,-195.51 509.97,-192.24 515.81,-201.08 520.04,-195.51"/>
</a>
</g>
</g>
<!-- Node6&#45;&gt;Node11 -->
<g id="edge10_Node000006_Node000011" class="edge">
<title>Node6&#45;&gt;Node11</title>
<g id="a_edge10_Node000006_Node000011"><a xlink:title=" ">
<path fill="none" stroke="#63b8ff" d="M530.81,-226.59C496.4,-217.53 445.05,-204.01 407.64,-194.17"/>
<polygon fill="#63b8ff" stroke="#63b8ff" points="408.54,-190.78 397.98,-191.62 406.76,-197.55 408.54,-190.78"/>
</a>
</g>
</g>
<!-- Node14 -->
<g id="Node000014" class="node">
<title>Node14</title>
<g id="a_Node000014"><a xlink:title=" ">
<polygon fill="#e0e0e0" stroke="#999999" points="264.38,-77.5 205.62,-77.5 205.62,-56.75 264.38,-56.75 264.38,-77.5"/>
<text xml:space="preserve" text-anchor="middle" x="235" y="-64" font-family="Helvetica,sans-Serif" font-size="10.00">fsl_ftm.h</text>
</a>
</g>
</g>
<!-- Node6&#45;&gt;Node14 -->
<g id="edge40_Node000006_Node000014" class="edge">
<title>Node6&#45;&gt;Node14</title>
<g id="a_edge40_Node000006_Node000014"><a xlink:title=" ">
<path fill="none" stroke="#63b8ff" d="M527.37,-232.96C465.03,-227.08 349.36,-213.47 315,-191 276.97,-166.13 253.08,-116.2 242.1,-88.25"/>
<polygon fill="#63b8ff" stroke="#63b8ff" points="245.49,-87.32 238.71,-79.17 238.93,-89.77 245.49,-87.32"/>
</a>
</g>
</g>
<!-- Node6&#45;&gt;Node15 -->
<g id="edge41_Node000006_Node000015" class="edge">
<title>Node6&#45;&gt;Node15</title>
<g id="a_edge41_Node000006_Node000015"><a xlink:title=" ">
<path fill="none" stroke="#63b8ff" d="M578.22,-226.6C607.02,-199.07 689.1,-120.61 725.84,-85.49"/>
<polygon fill="#63b8ff" stroke="#63b8ff" points="727.84,-88.41 732.65,-78.97 723.01,-83.35 727.84,-88.41"/>
</a>
</g>
</g>
<!-- Node16 -->
<g id="Node000016" class="node">
<title>Node16</title>
<g id="a_Node000016"><a xlink:title=" ">
<polygon fill="#e0e0e0" stroke="#999999" points="343.88,-77.5 282.12,-77.5 282.12,-56.75 343.88,-56.75 343.88,-77.5"/>
<text xml:space="preserve" text-anchor="middle" x="313" y="-64" font-family="Helvetica,sans-Serif" font-size="10.00">fsl_port.h</text>
</a>
</g>
</g>
<!-- Node6&#45;&gt;Node16 -->
<g id="edge42_Node000006_Node000016" class="edge">
<title>Node6&#45;&gt;Node16</title>
<g id="a_edge42_Node000006_Node000016"><a xlink:title=" ">
<path fill="none" stroke="#63b8ff" d="M567.72,-226.62C566.82,-212.53 563.19,-186.4 549,-170.25 522.29,-139.87 415.13,-101.32 354.81,-81.4"/>
<polygon fill="#63b8ff" stroke="#63b8ff" points="356.15,-78.16 345.56,-78.37 353.98,-84.81 356.15,-78.16"/>
</a>
</g>
</g>
<!-- Node22 -->
<g id="Node000022" class="node">
<title>Node22</title>
<g id="a_Node000022"><a xlink:href="tmc2209__core_8h.html" target="_top" xlink:title=" ">
<polygon fill="white" stroke="#666666" points="1202,-191 1108,-191 1108,-170.25 1202,-170.25 1202,-191"/>
<text xml:space="preserve" text-anchor="middle" x="1155" y="-177.5" font-family="Helvetica,sans-Serif" font-size="10.00">tmc2209_core.h</text>
</a>
</g>
</g>
<!-- Node6&#45;&gt;Node22 -->
<g id="edge32_Node000006_Node000022" class="edge">
<title>Node6&#45;&gt;Node22</title>
<g id="a_edge32_Node000006_Node000022"><a xlink:title=" ">
<path fill="none" stroke="#63b8ff" d="M608.35,-232.61C710,-223.13 976.97,-198.23 1096.12,-187.12"/>
<polygon fill="#63b8ff" stroke="#63b8ff" points="1096.38,-190.61 1106.01,-186.19 1095.73,-183.64 1096.38,-190.61"/>
</a>
</g>
</g>
<!-- Node8 -->
<g id="Node000008" class="node">
<title>Node8</title>
<g id="a_Node000008"><a xlink:title=" ">
<polygon fill="#e0e0e0" stroke="#999999" points="659.5,-20.75 574.5,-20.75 574.5,0 659.5,0 659.5,-20.75"/>
<text xml:space="preserve" text-anchor="middle" x="617" y="-7.25" font-family="Helvetica,sans-Serif" font-size="10.00">fsl_common.h</text>
</a>
</g>
</g>
<!-- Node7&#45;&gt;Node8 -->
<g id="edge7_Node000007_Node000008" class="edge">
<title>Node7&#45;&gt;Node8</title>
<g id="a_edge7_Node000007_Node000008"><a xlink:title=" ">
<path fill="none" stroke="#63b8ff" d="M617,-56.34C617,-49.72 617,-40.72 617,-32.52"/>
<polygon fill="#63b8ff" stroke="#63b8ff" points="620.5,-32.59 617,-22.59 613.5,-32.59 620.5,-32.59"/>
</a>
</g>
</g>
<!-- Node9 -->
<g id="Node000009" class="node">
<title>Node9</title>
<g id="a_Node000009"><a xlink:title=" ">
<polygon fill="#e0e0e0" stroke="#999999" points="1335.88,-20.75 1256.12,-20.75 1256.12,0 1335.88,0 1335.88,-20.75"/>
<text xml:space="preserve" text-anchor="middle" x="1296" y="-7.25" font-family="Helvetica,sans-Serif" font-size="10.00">peripherals.h</text>
</a>
</g>
</g>
<!-- Node7&#45;&gt;Node9 -->
<g id="edge8_Node000007_Node000009" class="edge">
<title>Node7&#45;&gt;Node9</title>
<g id="a_edge8_Node000007_Node000009"><a xlink:title=" ">
<path fill="none" stroke="#63b8ff" d="M694.34,-57.57C697.27,-57.29 700.16,-57.01 703,-56.75 902.97,-38.2 1141.39,-21.65 1244.4,-14.76"/>
<polygon fill="#63b8ff" stroke="#63b8ff" points="1244.44,-18.27 1254.19,-14.11 1243.98,-11.28 1244.44,-18.27"/>
</a>
</g>
</g>
<!-- Node11&#45;&gt;Node7 -->
<g id="edge11_Node000011_Node000007" class="edge">
<title>Node11&#45;&gt;Node7</title>
<g id="a_edge11_Node000011_Node000007"><a xlink:title=" ">
<path fill="none" stroke="#63b8ff" d="M396.54,-172.69C462.34,-160.18 594.06,-135.07 595,-134.25 607.93,-122.9 613.28,-103.76 615.49,-88.99"/>
<polygon fill="#63b8ff" stroke="#63b8ff" points="618.93,-89.69 616.53,-79.37 611.97,-88.93 618.93,-89.69"/>
</a>
</g>
</g>
<!-- Node11&#45;&gt;Node8 -->
<g id="edge14_Node000011_Node000008" class="edge">
<title>Node11&#45;&gt;Node8</title>
<g id="a_edge14_Node000011_Node000008"><a xlink:title=" ">
<path fill="none" stroke="#63b8ff" d="M338.88,-169.77C298.25,-150.31 211.91,-106.35 197,-77.5 192.77,-69.31 190.84,-63.61 197,-56.75 221.02,-29.99 454.7,-17.6 562.73,-13.27"/>
<polygon fill="#63b8ff" stroke="#63b8ff" points="562.65,-16.78 572.51,-12.89 562.38,-9.78 562.65,-16.78"/>
</a>
</g>
</g>
<!-- Node11&#45;&gt;Node12 -->
<g id="edge12_Node000011_Node000012" class="edge">
<title>Node11&#45;&gt;Node12</title>
<g id="a_edge12_Node000011_Node000012"><a xlink:title=" ">
<path fill="none" stroke="#63b8ff" d="M332.97,-169.9C309.26,-161.18 273.99,-147.7 244,-134.25 208.06,-118.13 167.79,-97.18 141.73,-83.23"/>
<polygon fill="#63b8ff" stroke="#63b8ff" points="143.61,-80.27 133.15,-78.61 140.29,-86.43 143.61,-80.27"/>
</a>
</g>
</g>
<!-- Node13 -->
<g id="Node000013" class="node">
<title>Node13</title>
<g id="a_Node000013"><a xlink:title=" ">
<polygon fill="#e0e0e0" stroke="#999999" points="332,-134.25 286,-134.25 286,-113.5 332,-113.5 332,-134.25"/>
<text xml:space="preserve" text-anchor="middle" x="309" y="-120.75" font-family="Helvetica,sans-Serif" font-size="10.00">task.h</text>
</a>
</g>
</g>
<!-- Node11&#45;&gt;Node13 -->
<g id="edge13_Node000011_Node000013" class="edge">
<title>Node11&#45;&gt;Node13</title>
<g id="a_edge13_Node000011_Node000013"><a xlink:title=" ">
<path fill="none" stroke="#63b8ff" d="M350.88,-169.84C343.92,-162.36 334.13,-151.86 325.77,-142.88"/>
<polygon fill="#63b8ff" stroke="#63b8ff" points="328.45,-140.62 319.07,-135.69 323.33,-145.39 328.45,-140.62"/>
</a>
</g>
</g>
<!-- Node11&#45;&gt;Node14 -->
<g id="edge15_Node000011_Node000014" class="edge">
<title>Node11&#45;&gt;Node14</title>
<g id="a_edge15_Node000011_Node000014"><a xlink:title=" ">
<path fill="none" stroke="#63b8ff" d="M359.73,-169.86C358.84,-155.76 355.23,-129.62 341,-113.5 331.82,-103.09 301.47,-90.64 275.59,-81.42"/>
<polygon fill="#63b8ff" stroke="#63b8ff" points="276.87,-78.16 266.28,-78.18 274.57,-84.77 276.87,-78.16"/>
</a>
</g>
</g>
<!-- Node11&#45;&gt;Node15 -->
<g id="edge16_Node000011_Node000015" class="edge">
<title>Node11&#45;&gt;Node15</title>
<g id="a_edge16_Node000011_Node000015"><a xlink:title=" ">
<path fill="none" stroke="#63b8ff" d="M396.58,-172.71C401.1,-171.87 405.65,-171.04 410,-170.25 501.46,-153.69 527.92,-163.92 616,-134.25 653.75,-121.53 694.06,-99.05 719.15,-83.87"/>
<polygon fill="#63b8ff" stroke="#63b8ff" points="720.94,-86.88 727.62,-78.66 717.27,-80.92 720.94,-86.88"/>
</a>
</g>
</g>
<!-- Node11&#45;&gt;Node16 -->
<g id="edge17_Node000011_Node000016" class="edge">
<title>Node11&#45;&gt;Node16</title>
<g id="a_edge17_Node000011_Node000016"><a xlink:title=" ">
<path fill="none" stroke="#63b8ff" d="M365.72,-170.15C372.95,-156.84 383.38,-132.16 374,-113.5 367.72,-101 356.19,-91.08 344.83,-83.74"/>
<polygon fill="#63b8ff" stroke="#63b8ff" points="346.72,-80.79 336.33,-78.72 343.16,-86.82 346.72,-80.79"/>
</a>
</g>
</g>
<!-- Node11&#45;&gt;Node17 -->
<g id="edge18_Node000011_Node000017" class="edge">
<title>Node11&#45;&gt;Node17</title>
<g id="a_edge18_Node000011_Node000017"><a xlink:title=" ">
<path fill="none" stroke="#63b8ff" d="M396.54,-172.43C401.06,-171.64 405.63,-170.89 410,-170.25 543.26,-150.69 701.16,-136.1 782.15,-129.23"/>
<polygon fill="#63b8ff" stroke="#63b8ff" points="782.35,-132.73 792.03,-128.4 781.77,-125.75 782.35,-132.73"/>
</a>
</g>
</g>
<!-- Node20 -->
<g id="Node000020" class="node">
<title>Node20</title>
<g id="a_Node000020"><a xlink:href="step__shared_8h.html" target="_top" xlink:title=" ">
<polygon fill="white" stroke="#666666" points="586.12,-134.25 501.88,-134.25 501.88,-113.5 586.12,-113.5 586.12,-134.25"/>
<text xml:space="preserve" text-anchor="middle" x="544" y="-120.75" font-family="Helvetica,sans-Serif" font-size="10.00">step_shared.h</text>
</a>
</g>
</g>
<!-- Node11&#45;&gt;Node20 -->
<g id="edge24_Node000011_Node000020" class="edge">
<title>Node11&#45;&gt;Node20</title>
<g id="a_edge24_Node000011_Node000020"><a xlink:title=" ">
<path fill="none" stroke="#63b8ff" d="M392.9,-169.84C422.89,-160.91 467.43,-147.66 500.38,-137.85"/>
<polygon fill="#63b8ff" stroke="#63b8ff" points="501.04,-141.31 509.63,-135.1 499.05,-134.6 501.04,-141.31"/>
</a>
</g>
</g>
<!-- Node17&#45;&gt;Node4 -->
<g id="edge19_Node000017_Node000004" class="edge">
<title>Node17&#45;&gt;Node4</title>
<g id="a_edge19_Node000017_Node000004"><a xlink:title=" ">
<path fill="none" stroke="#63b8ff" d="M878.35,-113.21C923.59,-102.89 994.63,-86.69 1038.09,-76.77"/>
<polygon fill="#63b8ff" stroke="#63b8ff" points="1038.86,-80.19 1047.83,-74.55 1037.3,-73.36 1038.86,-80.19"/>
</a>
</g>
</g>
<!-- Node17&#45;&gt;Node8 -->
<g id="edge22_Node000017_Node000008" class="edge">
<title>Node17&#45;&gt;Node8</title>
<g id="a_edge22_Node000017_Node000008"><a xlink:title=" ">
<path fill="none" stroke="#63b8ff" d="M831.18,-113.17C823.46,-98.64 806.94,-71.4 785,-56.75 750.88,-33.96 705.68,-22.58 670.76,-16.92"/>
<polygon fill="#63b8ff" stroke="#63b8ff" points="671.72,-13.53 661.31,-15.5 670.68,-20.45 671.72,-13.53"/>
</a>
</g>
</g>
<!-- Node17&#45;&gt;Node12 -->
<g id="edge20_Node000017_Node000012" class="edge">
<title>Node17&#45;&gt;Node12</title>
<g id="a_edge20_Node000017_Node000012"><a xlink:title=" ">
<path fill="none" stroke="#63b8ff" d="M793.7,-120.48C691.23,-114.55 421.55,-98.14 197,-77.5 185.41,-76.43 172.93,-75.12 161.26,-73.81"/>
<polygon fill="#63b8ff" stroke="#63b8ff" points="161.75,-70.34 151.42,-72.68 160.96,-77.3 161.75,-70.34"/>
</a>
</g>
</g>
<!-- Node18 -->
<g id="Node000018" class="node">
<title>Node18</title>
<g id="a_Node000018"><a xlink:title=" ">
<polygon fill="#e0e0e0" stroke="#999999" points="993.5,-77.5 902.5,-77.5 902.5,-56.75 993.5,-56.75 993.5,-77.5"/>
<text xml:space="preserve" text-anchor="middle" x="948" y="-64" font-family="Helvetica,sans-Serif" font-size="10.00">event_groups.h</text>
</a>
</g>
</g>
<!-- Node17&#45;&gt;Node18 -->
<g id="edge21_Node000017_Node000018" class="edge">
<title>Node17&#45;&gt;Node18</title>
<g id="a_edge21_Node000017_Node000018"><a xlink:title=" ">
<path fill="none" stroke="#63b8ff" d="M856.02,-113.09C873.22,-104.68 898.28,-92.43 917.9,-82.84"/>
<polygon fill="#63b8ff" stroke="#63b8ff" points="919.34,-86.03 926.79,-78.49 916.27,-79.74 919.34,-86.03"/>
</a>
</g>
</g>
<!-- Node19 -->
<g id="Node000019" class="node">
<title>Node19</title>
<g id="a_Node000019"><a xlink:title=" ">
<polygon fill="#e0e0e0" stroke="#999999" points="884,-77.5 832,-77.5 832,-56.75 884,-56.75 884,-77.5"/>
<text xml:space="preserve" text-anchor="middle" x="858" y="-64" font-family="Helvetica,sans-Serif" font-size="10.00">stdlib.h</text>
</a>
</g>
</g>
<!-- Node17&#45;&gt;Node19 -->
<g id="edge23_Node000017_Node000019" class="edge">
<title>Node17&#45;&gt;Node19</title>
<g id="a_edge23_Node000017_Node000019"><a xlink:title=" ">
<path fill="none" stroke="#63b8ff" d="M839.93,-113.09C842.69,-106.24 846.46,-96.84 849.85,-88.4"/>
<polygon fill="#63b8ff" stroke="#63b8ff" points="853.06,-89.82 853.54,-79.23 846.56,-87.21 853.06,-89.82"/>
</a>
</g>
</g>
<!-- Node20&#45;&gt;Node4 -->
<g id="edge25_Node000020_Node000004" class="edge">
<title>Node20&#45;&gt;Node4</title>
<g id="a_edge25_Node000020_Node000004"><a xlink:title=" ">
<path fill="none" stroke="#63b8ff" d="M586.44,-119.1C667.48,-111.79 849.84,-94.9 1003,-77.5 1014.4,-76.2 1026.79,-74.66 1038.06,-73.21"/>
<polygon fill="#63b8ff" stroke="#63b8ff" points="1038.36,-76.7 1047.82,-71.94 1037.46,-69.76 1038.36,-76.7"/>
</a>
</g>
</g>
<!-- Node20&#45;&gt;Node7 -->
<g id="edge26_Node000020_Node000007" class="edge">
<title>Node20&#45;&gt;Node7</title>
<g id="a_edge26_Node000020_Node000007"><a xlink:title=" ">
<path fill="none" stroke="#63b8ff" d="M557.05,-113.09C567.64,-105.15 582.79,-93.78 595.22,-84.46"/>
<polygon fill="#63b8ff" stroke="#63b8ff" points="596.95,-87.54 602.85,-78.74 592.75,-81.94 596.95,-87.54"/>
</a>
</g>
</g>
<!-- Node20&#45;&gt;Node8 -->
<g id="edge28_Node000020_Node000008" class="edge">
<title>Node20&#45;&gt;Node8</title>
<g id="a_edge28_Node000020_Node000008"><a xlink:title=" ">
<path fill="none" stroke="#63b8ff" d="M538.12,-113.17C530.73,-99.59 520.25,-74.58 531,-56.75 539.64,-42.42 554.48,-32.38 569.43,-25.47"/>
<polygon fill="#63b8ff" stroke="#63b8ff" points="570.45,-28.83 578.32,-21.74 567.75,-22.38 570.45,-28.83"/>
</a>
</g>
</g>
<!-- Node20&#45;&gt;Node14 -->
<g id="edge29_Node000020_Node000014" class="edge">
<title>Node20&#45;&gt;Node14</title>
<g id="a_edge29_Node000020_Node000014"><a xlink:title=" ">
<path fill="none" stroke="#63b8ff" d="M501.57,-116.79C450.31,-109.22 361.23,-95.34 276,-78.01"/>
<polygon fill="#63b8ff" stroke="#63b8ff" points="276.8,-74.6 266.3,-76.01 275.39,-81.46 276.8,-74.6"/>
</a>
</g>
</g>
<!-- Node20&#45;&gt;Node15 -->
<g id="edge30_Node000020_Node000015" class="edge">
<title>Node20&#45;&gt;Node15</title>
<g id="a_edge30_Node000020_Node000015"><a xlink:title=" ">
<path fill="none" stroke="#63b8ff" d="M579.76,-113.09C613.87,-103.75 665.27,-89.68 701.47,-79.77"/>
<polygon fill="#63b8ff" stroke="#63b8ff" points="702,-83.25 710.72,-77.24 700.15,-76.5 702,-83.25"/>
</a>
</g>
</g>
<!-- Node20&#45;&gt;Node16 -->
<g id="edge31_Node000020_Node000016" class="edge">
<title>Node20&#45;&gt;Node16</title>
<g id="a_edge31_Node000020_Node000016"><a xlink:title=" ">
<path fill="none" stroke="#63b8ff" d="M502.44,-113.02C460.88,-103.17 397.29,-88.1 355.43,-78.18"/>
<polygon fill="#63b8ff" stroke="#63b8ff" points="356.25,-74.78 345.71,-75.88 354.64,-81.59 356.25,-74.78"/>
</a>
</g>
</g>
<!-- Node21 -->
<g id="Node000021" class="node">
<title>Node21</title>
<g id="a_Node000021"><a xlink:title=" ">
<polygon fill="#e0e0e0" stroke="#999999" points="484.25,-77.5 361.75,-77.5 361.75,-56.75 484.25,-56.75 484.25,-77.5"/>
<text xml:space="preserve" text-anchor="middle" x="423" y="-64" font-family="Helvetica,sans-Serif" font-size="10.00">fsl_device_registers.h</text>
</a>
</g>
</g>
<!-- Node20&#45;&gt;Node21 -->
<g id="edge27_Node000020_Node000021" class="edge">
<title>Node20&#45;&gt;Node21</title>
<g id="a_edge27_Node000020_Node000021"><a xlink:title=" ">
<path fill="none" stroke="#63b8ff" d="M522.37,-113.09C503.53,-104.56 475.96,-92.09 454.64,-82.44"/>
<polygon fill="#63b8ff" stroke="#63b8ff" points="456.38,-79.39 445.82,-78.45 453.49,-85.76 456.38,-79.39"/>
</a>
</g>
</g>
<!-- Node22&#45;&gt;Node4 -->
<g id="edge33_Node000022_Node000004" class="edge">
<title>Node22&#45;&gt;Node4</title>
<g id="a_edge33_Node000022_Node000004"><a xlink:title=" ">
<path fill="none" stroke="#63b8ff" d="M1145.53,-169.99C1137.04,-161.1 1124.5,-147.34 1115,-134.25 1104.24,-119.42 1093.79,-101.44 1086.41,-87.98"/>
<polygon fill="#63b8ff" stroke="#63b8ff" points="1089.54,-86.39 1081.72,-79.23 1083.37,-89.7 1089.54,-86.39"/>
</a>
</g>
</g>
<!-- Node22&#45;&gt;Node8 -->
<g id="edge37_Node000022_Node000008" class="edge">
<title>Node22&#45;&gt;Node8</title>
<g id="a_edge37_Node000022_Node000008"><a xlink:title=" ">
<path fill="none" stroke="#63b8ff" d="M1191,-169.79C1208.76,-162.92 1228.56,-151.76 1239,-134.25 1256.64,-104.67 1262.45,-81.98 1239,-56.75 1200.73,-15.59 815.39,-11.35 671.13,-11.21"/>
<polygon fill="#63b8ff" stroke="#63b8ff" points="671.47,-7.71 661.47,-11.21 671.47,-14.71 671.47,-7.71"/>
</a>
</g>
</g>
<!-- Node22&#45;&gt;Node9 -->
<g id="edge39_Node000022_Node000009" class="edge">
<title>Node22&#45;&gt;Node9</title>
<g id="a_edge39_Node000022_Node000009"><a xlink:title=" ">
<path fill="none" stroke="#63b8ff" d="M1202.41,-172.4C1226.67,-166.26 1254.66,-154.97 1272,-134.25 1296.22,-105.32 1298.63,-59.12 1297.67,-32.38"/>
<polygon fill="#63b8ff" stroke="#63b8ff" points="1301.17,-32.27 1297.1,-22.49 1294.18,-32.67 1301.17,-32.27"/>
</a>
</g>
</g>
<!-- Node22&#45;&gt;Node17 -->
<g id="edge38_Node000022_Node000017" class="edge">
<title>Node22&#45;&gt;Node17</title>
<g id="a_edge38_Node000022_Node000017"><a xlink:title=" ">
<path fill="none" stroke="#63b8ff" d="M1107.59,-171.49C1049.38,-161.5 950.89,-144.59 889.87,-134.12"/>
<polygon fill="#63b8ff" stroke="#63b8ff" points="890.5,-130.68 880.06,-132.44 889.32,-137.58 890.5,-130.68"/>
</a>
</g>
</g>
<!-- Node23 -->
<g id="Node000023" class="node">
<title>Node23</title>
<g id="a_Node000023"><a xlink:href="tmc2209__shared_8h.html" target="_top" xlink:title=" ">
<polygon fill="white" stroke="#666666" points="1230,-134.25 1124,-134.25 1124,-113.5 1230,-113.5 1230,-134.25"/>
<text xml:space="preserve" text-anchor="middle" x="1177" y="-120.75" font-family="Helvetica,sans-Serif" font-size="10.00">tmc2209_shared.h</text>
</a>
</g>
</g>
<!-- Node22&#45;&gt;Node23 -->
<g id="edge34_Node000022_Node000023" class="edge">
<title>Node22&#45;&gt;Node23</title>
<g id="a_edge34_Node000022_Node000023"><a xlink:title=" ">
<path fill="none" stroke="#63b8ff" d="M1158.93,-169.84C1161.69,-162.99 1165.46,-153.59 1168.85,-145.15"/>
<polygon fill="#63b8ff" stroke="#63b8ff" points="1172.06,-146.57 1172.54,-135.98 1165.56,-143.96 1172.06,-146.57"/>
</a>
</g>
</g>
<!-- Node23&#45;&gt;Node4 -->
<g id="edge35_Node000023_Node000004" class="edge">
<title>Node23&#45;&gt;Node4</title>
<g id="a_edge35_Node000023_Node000004"><a xlink:title=" ">
<path fill="none" stroke="#63b8ff" d="M1158.94,-113.09C1143.58,-104.76 1121.26,-92.66 1103.64,-83.11"/>
<polygon fill="#63b8ff" stroke="#63b8ff" points="1105.69,-80.24 1095.23,-78.55 1102.35,-86.39 1105.69,-80.24"/>
</a>
</g>
</g>
<!-- Node24 -->
<g id="Node000024" class="node">
<title>Node24</title>
<g id="a_Node000024"><a xlink:title=" ">
<polygon fill="#e0e0e0" stroke="#999999" points="1229.62,-77.5 1124.38,-77.5 1124.38,-56.75 1229.62,-56.75 1229.62,-77.5"/>
<text xml:space="preserve" text-anchor="middle" x="1177" y="-64" font-family="Helvetica,sans-Serif" font-size="10.00">fsl_uart_freertos.h</text>
</a>
</g>
</g>
<!-- Node23&#45;&gt;Node24 -->
<g id="edge36_Node000023_Node000024" class="edge">
<title>Node23&#45;&gt;Node24</title>
<g id="a_edge36_Node000023_Node000024"><a xlink:title=" ">
<path fill="none" stroke="#63b8ff" d="M1177,-113.09C1177,-106.47 1177,-97.47 1177,-89.27"/>
<polygon fill="#63b8ff" stroke="#63b8ff" points="1180.5,-89.34 1177,-79.34 1173.5,-89.34 1180.5,-89.34"/>
</a>
</g>
</g>
<!-- Node27&#45;&gt;Node8 -->
<g id="edge53_Node000027_Node000008" class="edge">
<title>Node27&#45;&gt;Node8</title>
<g id="a_edge53_Node000027_Node000008"><a xlink:title=" ">
<path fill="none" stroke="#63b8ff" d="M24,-113.16C30.76,-98.1 46.03,-69.53 69,-56.75 111.46,-33.12 433.02,-18.38 562.87,-13.33"/>
<polygon fill="#63b8ff" stroke="#63b8ff" points="562.72,-16.84 572.57,-12.96 562.45,-9.84 562.72,-16.84"/>
</a>
</g>
</g>
<!-- Node27&#45;&gt;Node12 -->
<g id="edge52_Node000027_Node000012" class="edge">
<title>Node27&#45;&gt;Node12</title>
<g id="a_edge52_Node000027_Node000012"><a xlink:title=" ">
<path fill="none" stroke="#63b8ff" d="M36.81,-113.09C50.97,-104.83 71.49,-92.88 87.81,-83.38"/>
<polygon fill="#63b8ff" stroke="#63b8ff" points="89.15,-86.65 96.03,-78.59 85.63,-80.6 89.15,-86.65"/>
</a>
</g>
</g>
<!-- Node29&#45;&gt;Node4 -->
<g id="edge57_Node000029_Node000004" class="edge">
<title>Node29&#45;&gt;Node4</title>
<g id="a_edge57_Node000029_Node000004"><a xlink:title=" ">
<path fill="none" stroke="#63b8ff" d="M890.42,-287.52C940.5,-280.74 1014.1,-267.69 1034,-247.75 1076.89,-204.75 1079.29,-126.89 1077.64,-89.41"/>
<polygon fill="#63b8ff" stroke="#63b8ff" points="1081.14,-89.24 1077.04,-79.47 1074.15,-89.66 1081.14,-89.24"/>
</a>
</g>
</g>
<!-- Node29&#45;&gt;Node6 -->
<g id="edge58_Node000029_Node000006" class="edge">
<title>Node29&#45;&gt;Node6</title>
<g id="a_edge58_Node000029_Node000006"><a xlink:title=" ">
<path fill="none" stroke="#63b8ff" d="M793.65,-283.46C744.9,-273.72 669.92,-258.74 619.93,-248.75"/>
<polygon fill="#63b8ff" stroke="#63b8ff" points="620.71,-245.34 610.22,-246.81 619.34,-252.2 620.71,-245.34"/>
</a>
</g>
</g>
<!-- Node30&#45;&gt;Node4 -->
<g id="edge60_Node000030_Node000004" class="edge">
<title>Node30&#45;&gt;Node4</title>
<g id="a_edge60_Node000030_Node000004"><a xlink:title=" ">
<path fill="none" stroke="#63b8ff" d="M936.22,-169.8C951.58,-156.52 980.18,-132.32 1006,-113.5 1020.27,-103.1 1036.82,-92.31 1050.25,-83.87"/>
<polygon fill="#63b8ff" stroke="#63b8ff" points="1051.89,-86.97 1058.53,-78.71 1048.2,-81.02 1051.89,-86.97"/>
</a>
</g>
</g>
<!-- Node30&#45;&gt;Node8 -->
<g id="edge63_Node000030_Node000008" class="edge">
<title>Node30&#45;&gt;Node8</title>
<g id="a_edge63_Node000030_Node000008"><a xlink:title=" ">
<path fill="none" stroke="#63b8ff" d="M932.55,-170.08C951.77,-145.75 1001.16,-82.94 1003,-77.5 1005.95,-68.76 1009.13,-63.64 1003,-56.75 981.33,-32.38 772.21,-18.94 671.15,-13.82"/>
<polygon fill="#63b8ff" stroke="#63b8ff" points="671.35,-10.32 661.19,-13.32 671,-17.32 671.35,-10.32"/>
</a>
</g>
</g>
<!-- Node30&#45;&gt;Node12 -->
<g id="edge61_Node000030_Node000012" class="edge">
<title>Node30&#45;&gt;Node12</title>
<g id="a_edge61_Node000030_Node000012"><a xlink:title=" ">
<path fill="none" stroke="#63b8ff" d="M887.91,-176.59C813.06,-170.27 638.64,-154.58 493,-134.25 372.91,-117.49 232.55,-91.25 161.06,-77.4"/>
<polygon fill="#63b8ff" stroke="#63b8ff" points="162.16,-74.05 151.68,-75.58 160.83,-80.92 162.16,-74.05"/>
</a>
</g>
</g>
<!-- Node30&#45;&gt;Node17 -->
<g id="edge64_Node000030_Node000017" class="edge">
<title>Node30&#45;&gt;Node17</title>
<g id="a_edge64_Node000030_Node000017"><a xlink:title=" ">
<path fill="none" stroke="#63b8ff" d="M909.09,-169.84C895.8,-161.66 876.61,-149.86 861.23,-140.4"/>
<polygon fill="#63b8ff" stroke="#63b8ff" points="863.41,-137.63 853.06,-135.37 859.75,-143.59 863.41,-137.63"/>
</a>
</g>
</g>
<!-- Node30&#45;&gt;Node18 -->
<g id="edge62_Node000030_Node000018" class="edge">
<title>Node30&#45;&gt;Node18</title>
<g id="a_edge62_Node000030_Node000018"><a xlink:title=" ">
<path fill="none" stroke="#63b8ff" d="M924.83,-170.07C924.79,-157.09 925.45,-133.24 930,-113.5 931.95,-105.05 935.21,-96.12 938.43,-88.43"/>
<polygon fill="#63b8ff" stroke="#63b8ff" points="941.61,-89.88 942.48,-79.32 935.22,-87.03 941.61,-89.88"/>
</a>
</g>
</g>
<!-- Node31&#45;&gt;Node6 -->
<g id="edge68_Node000031_Node000006" class="edge">
<title>Node31&#45;&gt;Node6</title>
<g id="a_edge68_Node000031_Node000006"><a xlink:title=" ">
<path fill="none" stroke="#63b8ff" d="M508.87,-283.34C519.21,-275.47 533.97,-264.25 546.15,-254.99"/>
<polygon fill="#63b8ff" stroke="#63b8ff" points="548.19,-257.83 554.03,-248.99 543.96,-252.26 548.19,-257.83"/>
</a>
</g>
</g>
<!-- Node31&#45;&gt;Node9 -->
<g id="edge69_Node000031_Node000009" class="edge">
<title>Node31&#45;&gt;Node9</title>
<g id="a_edge69_Node000031_Node000009"><a xlink:title=" ">
<path fill="none" stroke="#63b8ff" d="M543.46,-291.85C720.73,-286.45 1334,-261.98 1334,-181.62 1334,-181.62 1334,-181.62 1334,-122.88 1334,-89.26 1318.34,-52.85 1307.12,-31.09"/>
<polygon fill="#63b8ff" stroke="#63b8ff" points="1310.31,-29.62 1302.49,-22.47 1304.14,-32.94 1310.31,-29.62"/>
</a>
</g>
</g>
<!-- Node31&#45;&gt;Node10 -->
<g id="edge67_Node000031_Node000010" class="edge">
<title>Node31&#45;&gt;Node10</title>
<g id="a_edge67_Node000031_Node000010"><a xlink:title=" ">
<path fill="none" stroke="#63b8ff" d="M496,-283.62C496,-265.85 496,-227.22 496,-202.93"/>
<polygon fill="#63b8ff" stroke="#63b8ff" points="499.5,-202.94 496,-192.94 492.5,-202.94 499.5,-202.94"/>
</a>
</g>
</g>
</g>
</svg>
