<?xml version="1.0" encoding="UTF-8" standalone="no"?>
<!DOCTYPE svg PUBLIC "-//W3C//DTD SVG 1.1//EN"
 "http://www.w3.org/Graphics/SVG/1.1/DTD/svg11.dtd">
<!-- Generated by graphviz version 14.1.5 (0)
 -->
<!-- Title: source/motion/motor/motor_init.c Pages: 1 -->
<svg width="1313pt" height="439pt"
 viewBox="0.00 0.00 1313.00 439.00" xmlns="http://www.w3.org/2000/svg" xmlns:xlink="http://www.w3.org/1999/xlink">
<g id="graph0" class="graph" transform="scale(1 1) rotate(0) translate(4 434.75)">
<title>source/motion/motor/motor_init.c</title>
<!-- Node1 -->
<g id="Node000001" class="node">
<title>Node1</title>
<g id="a_Node000001"><a xlink:title=" ">
<polygon fill="#999999" stroke="#666666" points="1218.62,-430.75 1100.62,-430.75 1100.62,-397.25 1218.62,-397.25 1218.62,-430.75"/>
<text xml:space="preserve" text-anchor="start" x="1108.62" y="-417.25" font-family="Helvetica,sans-Serif" font-size="10.00">source/motion/motor</text>
<text xml:space="preserve" text-anchor="middle" x="1159.62" y="-404.5" font-family="Helvetica,sans-Serif" font-size="10.00">/motor_init.c</text>
</a>
</g>
</g>
<!-- Node2 -->
<g id="Node000002" class="node">
<title>Node2</title>
<g id="a_Node000002"><a xlink:href="motor__init_8h.html" target="_top" xlink:title=" ">
<polygon fill="white" stroke="#666666" points="683.25,-361.25 608,-361.25 608,-340.5 683.25,-340.5 683.25,-361.25"/>
<text xml:space="preserve" text-anchor="middle" x="645.62" y="-347.75" font-family="Helvetica,sans-Serif" font-size="10.00">motor_init.h</text>
</a>
</g>
</g>
<!-- Node1&#45;&gt;Node2 -->
<g id="edge1_Node000001_Node000002" class="edge">
<title>Node1&#45;&gt;Node2</title>
<g id="a_edge1_Node000001_Node000002"><a xlink:title=" ">
<path fill="none" stroke="#63b8ff" d="M1100.16,-405.93C997.67,-393.74 789.65,-369 694.78,-357.72"/>
<polygon fill="#63b8ff" stroke="#63b8ff" points="695.36,-354.27 685.02,-356.56 694.53,-361.22 695.36,-354.27"/>
</a>
</g>
</g>
<!-- Node8 -->
<g id="Node000008" class="node">
<title>Node8</title>
<g id="a_Node000008"><a xlink:href="step__core_8h.html" target="_top" xlink:title=" ">
<polygon fill="white" stroke="#666666" points="557.75,-191 485.5,-191 485.5,-170.25 557.75,-170.25 557.75,-191"/>
<text xml:space="preserve" text-anchor="middle" x="521.62" y="-177.5" font-family="Helvetica,sans-Serif" font-size="10.00">step_core.h</text>
</a>
</g>
</g>
<!-- Node1&#45;&gt;Node8 -->
<g id="edge51_Node000001_Node000008" class="edge">
<title>Node1&#45;&gt;Node8</title>
<g id="a_edge51_Node000001_Node000008"><a xlink:title=" ">
<path fill="none" stroke="#63b8ff" d="M1116.42,-396.77C1029.16,-364.06 825.58,-288.15 653.62,-227 622.76,-216.02 587.68,-203.99 561.45,-195.07"/>
<polygon fill="#63b8ff" stroke="#63b8ff" points="562.81,-191.84 552.22,-191.94 560.56,-198.47 562.81,-191.84"/>
</a>
</g>
</g>
<!-- Node20 -->
<g id="Node000020" class="node">
<title>Node20</title>
<g id="a_Node000020"><a xlink:href="tmc2209__core_8h.html" target="_top" xlink:title=" ">
<polygon fill="white" stroke="#666666" points="839.62,-191 745.62,-191 745.62,-170.25 839.62,-170.25 839.62,-191"/>
<text xml:space="preserve" text-anchor="middle" x="792.62" y="-177.5" font-family="Helvetica,sans-Serif" font-size="10.00">tmc2209_core.h</text>
</a>
</g>
</g>
<!-- Node1&#45;&gt;Node20 -->
<g id="edge52_Node000001_Node000020" class="edge">
<title>Node1&#45;&gt;Node20</title>
<g id="a_edge52_Node000001_Node000020"><a xlink:title=" ">
<path fill="none" stroke="#63b8ff" d="M1158.2,-396.83C1154.24,-355.93 1141.74,-250 1116.62,-227 1078.95,-192.51 934.3,-184.08 851.58,-182.13"/>
<polygon fill="#63b8ff" stroke="#63b8ff" points="851.67,-178.63 841.6,-181.92 851.53,-185.63 851.67,-178.63"/>
</a>
</g>
</g>
<!-- Node26 -->
<g id="Node000026" class="node">
<title>Node26</title>
<g id="a_Node000026"><a xlink:href="log_8h.html" target="_top" xlink:title=" ">
<polygon fill="white" stroke="#666666" points="1304.62,-134.25 1264.62,-134.25 1264.62,-113.5 1304.62,-113.5 1304.62,-134.25"/>
<text xml:space="preserve" text-anchor="middle" x="1284.62" y="-120.75" font-family="Helvetica,sans-Serif" font-size="10.00">log.h</text>
</a>
</g>
</g>
<!-- Node1&#45;&gt;Node26 -->
<g id="edge47_Node000001_Node000026" class="edge">
<title>Node1&#45;&gt;Node26</title>
<g id="a_edge47_Node000001_Node000026"><a xlink:title=" ">
<path fill="none" stroke="#63b8ff" d="M1173.13,-397.01C1189.99,-375.38 1216.62,-334.91 1216.62,-295.12 1216.62,-295.12 1216.62,-295.12 1216.62,-236.38 1216.62,-198.68 1245.3,-162.92 1265.41,-142.48"/>
<polygon fill="#63b8ff" stroke="#63b8ff" points="1267.59,-145.24 1272.31,-135.75 1262.71,-140.23 1267.59,-145.24"/>
</a>
</g>
</g>
<!-- Node27 -->
<g id="Node000027" class="node">
<title>Node27</title>
<g id="a_Node000027"><a xlink:title=" ">
<polygon fill="#e0e0e0" stroke="#999999" points="1294.12,-361.25 1245.12,-361.25 1245.12,-340.5 1294.12,-340.5 1294.12,-361.25"/>
<text xml:space="preserve" text-anchor="middle" x="1269.62" y="-347.75" font-family="Helvetica,sans-Serif" font-size="10.00">stdio.h</text>
</a>
</g>
</g>
<!-- Node1&#45;&gt;Node27 -->
<g id="edge50_Node000001_Node000027" class="edge">
<title>Node1&#45;&gt;Node27</title>
<g id="a_edge50_Node000001_Node000027"><a xlink:title=" ">
<path fill="none" stroke="#63b8ff" d="M1188.81,-396.78C1205.31,-387.61 1225.82,-376.22 1242.05,-367.2"/>
<polygon fill="#63b8ff" stroke="#63b8ff" points="1243.64,-370.32 1250.68,-362.4 1240.24,-364.2 1243.64,-370.32"/>
</a>
</g>
</g>
<!-- Node28 -->
<g id="Node000028" class="node">
<title>Node28</title>
<g id="a_Node000028"><a xlink:href="sync__wait_8h.html" target="_top" xlink:title=" ">
<polygon fill="white" stroke="#666666" points="1183.5,-191 1109.75,-191 1109.75,-170.25 1183.5,-170.25 1183.5,-191"/>
<text xml:space="preserve" text-anchor="middle" x="1146.62" y="-177.5" font-family="Helvetica,sans-Serif" font-size="10.00">sync_wait.h</text>
</a>
</g>
</g>
<!-- Node1&#45;&gt;Node28 -->
<g id="edge53_Node000001_Node000028" class="edge">
<title>Node1&#45;&gt;Node28</title>
<g id="a_edge53_Node000001_Node000028"><a xlink:title=" ">
<path fill="none" stroke="#63b8ff" d="M1159.99,-397.03C1160.54,-364.79 1160.96,-289.67 1154.62,-227 1153.81,-218.95 1152.39,-210.18 1150.97,-202.51"/>
<polygon fill="#63b8ff" stroke="#63b8ff" points="1154.42,-201.92 1149.05,-192.79 1147.56,-203.28 1154.42,-201.92"/>
</a>
</g>
</g>
<!-- Node3 -->
<g id="Node000003" class="node">
<title>Node3</title>
<g id="a_Node000003"><a xlink:href="motor__core_8h.html" target="_top" xlink:title=" ">
<polygon fill="white" stroke="#666666" points="492.88,-247.75 412.38,-247.75 412.38,-227 492.88,-227 492.88,-247.75"/>
<text xml:space="preserve" text-anchor="middle" x="452.62" y="-234.25" font-family="Helvetica,sans-Serif" font-size="10.00">motor_core.h</text>
</a>
</g>
</g>
<!-- Node2&#45;&gt;Node3 -->
<g id="edge2_Node000002_Node000003" class="edge">
<title>Node2&#45;&gt;Node3</title>
<g id="a_edge2_Node000002_Node000003"><a xlink:title=" ">
<path fill="none" stroke="#63b8ff" d="M628.84,-340.18C595.33,-320.82 519.92,-277.25 479.47,-253.88"/>
<polygon fill="#63b8ff" stroke="#63b8ff" points="481.23,-250.86 470.82,-248.89 477.73,-256.92 481.23,-250.86"/>
</a>
</g>
</g>
<!-- Node23 -->
<g id="Node000023" class="node">
<title>Node23</title>
<g id="a_Node000023"><a xlink:href="motor__internal_8h.html" target="_top" xlink:title=" ">
<polygon fill="white" stroke="#666666" points="694.12,-304.5 597.12,-304.5 597.12,-283.75 694.12,-283.75 694.12,-304.5"/>
<text xml:space="preserve" text-anchor="middle" x="645.62" y="-291" font-family="Helvetica,sans-Serif" font-size="10.00">motor_internal.h</text>
</a>
</g>
</g>
<!-- Node2&#45;&gt;Node23 -->
<g id="edge40_Node000002_Node000023" class="edge">
<title>Node2&#45;&gt;Node23</title>
<g id="a_edge40_Node000002_Node000023"><a xlink:title=" ">
<path fill="none" stroke="#63b8ff" d="M645.62,-340.09C645.62,-333.47 645.62,-324.47 645.62,-316.27"/>
<polygon fill="#63b8ff" stroke="#63b8ff" points="649.13,-316.34 645.63,-306.34 642.13,-316.34 649.13,-316.34"/>
</a>
</g>
</g>
<!-- Node4 -->
<g id="Node000004" class="node">
<title>Node4</title>
<g id="a_Node000004"><a xlink:href="pca9555a_8h.html" target="_top" xlink:title=" ">
<polygon fill="white" stroke="#666666" points="235.62,-77.5 81.62,-77.5 81.62,-56.75 235.62,-56.75 235.62,-77.5"/>
<text xml:space="preserve" text-anchor="middle" x="158.62" y="-64" font-family="Helvetica,sans-Serif" font-size="10.00">driver/pca9555a/pca9555a.h</text>
</a>
</g>
</g>
<!-- Node3&#45;&gt;Node4 -->
<g id="edge3_Node000003_Node000004" class="edge">
<title>Node3&#45;&gt;Node4</title>
<g id="a_edge3_Node000003_Node000004"><a xlink:title=" ">
<path fill="none" stroke="#63b8ff" d="M412.05,-236.4C338.61,-235.5 188.21,-228.94 155.62,-191 131.27,-162.64 141.65,-115.56 150.63,-88.66"/>
<polygon fill="#63b8ff" stroke="#63b8ff" points="153.92,-89.87 154.02,-79.28 147.33,-87.5 153.92,-89.87"/>
</a>
</g>
</g>
<!-- Node7 -->
<g id="Node000007" class="node">
<title>Node7</title>
<g id="a_Node000007"><a xlink:title=" ">
<polygon fill="#e0e0e0" stroke="#999999" points="253,-191 164.25,-191 164.25,-170.25 253,-170.25 253,-191"/>
<text xml:space="preserve" text-anchor="middle" x="208.62" y="-177.5" font-family="Helvetica,sans-Serif" font-size="10.00">MK22F51212.h</text>
</a>
</g>
</g>
<!-- Node3&#45;&gt;Node7 -->
<g id="edge6_Node000003_Node000007" class="edge">
<title>Node3&#45;&gt;Node7</title>
<g id="a_edge6_Node000003_Node000007"><a xlink:title=" ">
<path fill="none" stroke="#63b8ff" d="M412.06,-227.27C371.46,-218.16 308.71,-204.08 263.64,-193.97"/>
<polygon fill="#63b8ff" stroke="#63b8ff" points="264.59,-190.6 254.07,-191.82 263.06,-197.43 264.59,-190.6"/>
</a>
</g>
</g>
<!-- Node3&#45;&gt;Node8 -->
<g id="edge7_Node000003_Node000008" class="edge">
<title>Node3&#45;&gt;Node8</title>
<g id="a_edge7_Node000003_Node000008"><a xlink:title=" ">
<path fill="none" stroke="#63b8ff" d="M464.96,-226.59C474.87,-218.72 489.01,-207.5 500.69,-198.24"/>
<polygon fill="#63b8ff" stroke="#63b8ff" points="502.55,-201.23 508.21,-192.27 498.2,-195.74 502.55,-201.23"/>
</a>
</g>
</g>
<!-- Node11 -->
<g id="Node000011" class="node">
<title>Node11</title>
<g id="a_Node000011"><a xlink:title=" ">
<polygon fill="#e0e0e0" stroke="#999999" points="570,-77.5 511.25,-77.5 511.25,-56.75 570,-56.75 570,-77.5"/>
<text xml:space="preserve" text-anchor="middle" x="540.62" y="-64" font-family="Helvetica,sans-Serif" font-size="10.00">fsl_ftm.h</text>
</a>
</g>
</g>
<!-- Node3&#45;&gt;Node11 -->
<g id="edge37_Node000003_Node000011" class="edge">
<title>Node3&#45;&gt;Node11</title>
<g id="a_edge37_Node000003_Node000011"><a xlink:title=" ">
<path fill="none" stroke="#63b8ff" d="M455.56,-226.76C459.67,-213.71 467.65,-189.78 476.62,-170.25 488.72,-143.94 493.15,-137.97 508.62,-113.5 514.28,-104.56 520.96,-94.95 526.75,-86.89"/>
<polygon fill="#63b8ff" stroke="#63b8ff" points="529.52,-89.04 532.58,-78.89 523.86,-84.91 529.52,-89.04"/>
</a>
</g>
</g>
<!-- Node12 -->
<g id="Node000012" class="node">
<title>Node12</title>
<g id="a_Node000012"><a xlink:title=" ">
<polygon fill="#e0e0e0" stroke="#999999" points="63.25,-77.5 0,-77.5 0,-56.75 63.25,-56.75 63.25,-77.5"/>
<text xml:space="preserve" text-anchor="middle" x="31.62" y="-64" font-family="Helvetica,sans-Serif" font-size="10.00">fsl_gpio.h</text>
</a>
</g>
</g>
<!-- Node3&#45;&gt;Node12 -->
<g id="edge38_Node000003_Node000012" class="edge">
<title>Node3&#45;&gt;Node12</title>
<g id="a_edge38_Node000003_Node000012"><a xlink:title=" ">
<path fill="none" stroke="#63b8ff" d="M411.97,-233.92C338.45,-228.93 186.75,-215.89 140.62,-191 95.43,-166.61 59.88,-115.73 42.77,-87.7"/>
<polygon fill="#63b8ff" stroke="#63b8ff" points="45.83,-85.99 37.72,-79.16 39.8,-89.55 45.83,-85.99"/>
</a>
</g>
</g>
<!-- Node13 -->
<g id="Node000013" class="node">
<title>Node13</title>
<g id="a_Node000013"><a xlink:title=" ">
<polygon fill="#e0e0e0" stroke="#999999" points="315.5,-77.5 253.75,-77.5 253.75,-56.75 315.5,-56.75 315.5,-77.5"/>
<text xml:space="preserve" text-anchor="middle" x="284.62" y="-64" font-family="Helvetica,sans-Serif" font-size="10.00">fsl_port.h</text>
</a>
</g>
</g>
<!-- Node3&#45;&gt;Node13 -->
<g id="edge39_Node000003_Node000013" class="edge">
<title>Node3&#45;&gt;Node13</title>
<g id="a_edge39_Node000003_Node000013"><a xlink:title=" ">
<path fill="none" stroke="#63b8ff" d="M432.14,-226.52C401.69,-210.91 344.46,-177.76 310.62,-134.25 300.2,-120.84 293.47,-102.73 289.47,-88.85"/>
<polygon fill="#63b8ff" stroke="#63b8ff" points="292.93,-88.23 287.02,-79.44 286.15,-90 292.93,-88.23"/>
</a>
</g>
</g>
<!-- Node3&#45;&gt;Node20 -->
<g id="edge29_Node000003_Node000020" class="edge">
<title>Node3&#45;&gt;Node20</title>
<g id="a_edge29_Node000003_Node000020"><a xlink:title=" ">
<path fill="none" stroke="#63b8ff" d="M493.25,-228.49C496.08,-227.98 498.89,-227.47 501.62,-227 581.92,-213.06 675.02,-198.89 733.87,-190.18"/>
<polygon fill="#63b8ff" stroke="#63b8ff" points="734.28,-193.66 743.67,-188.73 733.26,-186.73 734.28,-193.66"/>
</a>
</g>
</g>
<!-- Node5 -->
<g id="Node000005" class="node">
<title>Node5</title>
<g id="a_Node000005"><a xlink:title=" ">
<polygon fill="#e0e0e0" stroke="#999999" points="937.12,-20.75 852.12,-20.75 852.12,0 937.12,0 937.12,-20.75"/>
<text xml:space="preserve" text-anchor="middle" x="894.62" y="-7.25" font-family="Helvetica,sans-Serif" font-size="10.00">fsl_common.h</text>
</a>
</g>
</g>
<!-- Node4&#45;&gt;Node5 -->
<g id="edge4_Node000004_Node000005" class="edge">
<title>Node4&#45;&gt;Node5</title>
<g id="a_edge4_Node000004_Node000005"><a xlink:title=" ">
<path fill="none" stroke="#63b8ff" d="M235.97,-57.55C238.89,-57.27 241.78,-57 244.62,-56.75 465.53,-37.01 729.33,-20.89 840.74,-14.43"/>
<polygon fill="#63b8ff" stroke="#63b8ff" points="840.7,-17.93 850.48,-13.86 840.29,-10.95 840.7,-17.93"/>
</a>
</g>
</g>
<!-- Node6 -->
<g id="Node000006" class="node">
<title>Node6</title>
<g id="a_Node000006"><a xlink:title=" ">
<polygon fill="#e0e0e0" stroke="#999999" points="437.5,-20.75 357.75,-20.75 357.75,0 437.5,0 437.5,-20.75"/>
<text xml:space="preserve" text-anchor="middle" x="397.62" y="-7.25" font-family="Helvetica,sans-Serif" font-size="10.00">peripherals.h</text>
</a>
</g>
</g>
<!-- Node4&#45;&gt;Node6 -->
<g id="edge5_Node000004_Node000006" class="edge">
<title>Node4&#45;&gt;Node6</title>
<g id="a_edge5_Node000004_Node000006"><a xlink:title=" ">
<path fill="none" stroke="#63b8ff" d="M201.63,-56.27C242.22,-46.98 303.12,-33.02 346.25,-23.15"/>
<polygon fill="#63b8ff" stroke="#63b8ff" points="346.91,-26.58 355.88,-20.94 345.35,-19.76 346.91,-26.58"/>
</a>
</g>
</g>
<!-- Node8&#45;&gt;Node4 -->
<g id="edge8_Node000008_Node000004" class="edge">
<title>Node8&#45;&gt;Node4</title>
<g id="a_edge8_Node000008_Node000004"><a xlink:title=" ">
<path fill="none" stroke="#63b8ff" d="M485.21,-174.06C442.7,-167.04 370.55,-153.52 310.62,-134.25 287.19,-126.71 227.17,-99.71 189.95,-82.63"/>
<polygon fill="#63b8ff" stroke="#63b8ff" points="191.57,-79.52 181.03,-78.52 188.65,-85.88 191.57,-79.52"/>
</a>
</g>
</g>
<!-- Node8&#45;&gt;Node5 -->
<g id="edge11_Node000008_Node000005" class="edge">
<title>Node8&#45;&gt;Node5</title>
<g id="a_edge11_Node000008_Node000005"><a xlink:title=" ">
<path fill="none" stroke="#63b8ff" d="M533.95,-169.82C570.47,-140.79 675.6,-57.23 676.62,-56.75 729.13,-32.18 794.92,-20.82 840.41,-15.63"/>
<polygon fill="#63b8ff" stroke="#63b8ff" points="840.74,-19.12 850.31,-14.57 839.99,-12.16 840.74,-19.12"/>
</a>
</g>
</g>
<!-- Node9 -->
<g id="Node000009" class="node">
<title>Node9</title>
<g id="a_Node000009"><a xlink:title=" ">
<polygon fill="#e0e0e0" stroke="#999999" points="1102.38,-77.5 1030.88,-77.5 1030.88,-56.75 1102.38,-56.75 1102.38,-77.5"/>
<text xml:space="preserve" text-anchor="middle" x="1066.62" y="-64" font-family="Helvetica,sans-Serif" font-size="10.00">FreeRTOS.h</text>
</a>
</g>
</g>
<!-- Node8&#45;&gt;Node9 -->
<g id="edge9_Node000008_Node000009" class="edge">
<title>Node8&#45;&gt;Node9</title>
<g id="a_edge9_Node000008_Node000009"><a xlink:title=" ">
<path fill="none" stroke="#63b8ff" d="M557.95,-176.68C619.53,-171.23 748.12,-157.94 854.62,-134.25 917.02,-120.37 987.52,-96.73 1029.45,-81.8"/>
<polygon fill="#63b8ff" stroke="#63b8ff" points="1030.59,-85.11 1038.81,-78.44 1028.22,-78.52 1030.59,-85.11"/>
</a>
</g>
</g>
<!-- Node10 -->
<g id="Node000010" class="node">
<title>Node10</title>
<g id="a_Node000010"><a xlink:title=" ">
<polygon fill="#e0e0e0" stroke="#999999" points="569.62,-134.25 523.62,-134.25 523.62,-113.5 569.62,-113.5 569.62,-134.25"/>
<text xml:space="preserve" text-anchor="middle" x="546.62" y="-120.75" font-family="Helvetica,sans-Serif" font-size="10.00">task.h</text>
</a>
</g>
</g>
<!-- Node8&#45;&gt;Node10 -->
<g id="edge10_Node000008_Node000010" class="edge">
<title>Node8&#45;&gt;Node10</title>
<g id="a_edge10_Node000008_Node000010"><a xlink:title=" ">
<path fill="none" stroke="#63b8ff" d="M526.09,-169.84C529.26,-162.91 533.61,-153.37 537.5,-144.86"/>
<polygon fill="#63b8ff" stroke="#63b8ff" points="540.6,-146.51 541.57,-135.96 534.23,-143.6 540.6,-146.51"/>
</a>
</g>
</g>
<!-- Node8&#45;&gt;Node11 -->
<g id="edge12_Node000008_Node000011" class="edge">
<title>Node8&#45;&gt;Node11</title>
<g id="a_edge12_Node000008_Node000011"><a xlink:title=" ">
<path fill="none" stroke="#63b8ff" d="M518.47,-170.04C514.67,-157.03 509.4,-133.13 514.62,-113.5 517.07,-104.33 521.85,-95.09 526.65,-87.36"/>
<polygon fill="#63b8ff" stroke="#63b8ff" points="529.48,-89.41 532.15,-79.16 523.67,-85.51 529.48,-89.41"/>
</a>
</g>
</g>
<!-- Node8&#45;&gt;Node12 -->
<g id="edge13_Node000008_Node000012" class="edge">
<title>Node8&#45;&gt;Node12</title>
<g id="a_edge13_Node000008_Node000012"><a xlink:title=" ">
<path fill="none" stroke="#63b8ff" d="M485.21,-174.67C434.2,-167.42 338.76,-152.77 258.62,-134.25 192.63,-119 117.4,-95.93 72.26,-81.47"/>
<polygon fill="#63b8ff" stroke="#63b8ff" points="73.48,-78.18 62.89,-78.45 71.34,-84.85 73.48,-78.18"/>
</a>
</g>
</g>
<!-- Node8&#45;&gt;Node13 -->
<g id="edge14_Node000008_Node000013" class="edge">
<title>Node8&#45;&gt;Node13</title>
<g id="a_edge14_Node000008_Node000013"><a xlink:title=" ">
<path fill="none" stroke="#63b8ff" d="M485.14,-177.67C445.7,-174.05 382.35,-163.72 336.62,-134.25 318.65,-122.66 304.22,-102.69 295.17,-87.72"/>
<polygon fill="#63b8ff" stroke="#63b8ff" points="298.3,-86.15 290.3,-79.21 292.22,-89.63 298.3,-86.15"/>
</a>
</g>
</g>
<!-- Node14 -->
<g id="Node000014" class="node">
<title>Node14</title>
<g id="a_Node000014"><a xlink:href="cmd__handle_8h.html" target="_top" xlink:title=" ">
<polygon fill="white" stroke="#666666" points="1061.75,-134.25 977.5,-134.25 977.5,-113.5 1061.75,-113.5 1061.75,-134.25"/>
<text xml:space="preserve" text-anchor="middle" x="1019.62" y="-120.75" font-family="Helvetica,sans-Serif" font-size="10.00">cmd_handle.h</text>
</a>
</g>
</g>
<!-- Node8&#45;&gt;Node14 -->
<g id="edge15_Node000008_Node000014" class="edge">
<title>Node8&#45;&gt;Node14</title>
<g id="a_edge15_Node000008_Node000014"><a xlink:title=" ">
<path fill="none" stroke="#63b8ff" d="M558.24,-175.6C645.08,-166.05 863.84,-142 965.78,-130.79"/>
<polygon fill="#63b8ff" stroke="#63b8ff" points="965.97,-134.29 975.53,-129.72 965.21,-127.34 965.97,-134.29"/>
</a>
</g>
</g>
<!-- Node18 -->
<g id="Node000018" class="node">
<title>Node18</title>
<g id="a_Node000018"><a xlink:href="step__shared_8h.html" target="_top" xlink:title=" ">
<polygon fill="white" stroke="#666666" points="429.75,-134.25 345.5,-134.25 345.5,-113.5 429.75,-113.5 429.75,-134.25"/>
<text xml:space="preserve" text-anchor="middle" x="387.62" y="-120.75" font-family="Helvetica,sans-Serif" font-size="10.00">step_shared.h</text>
</a>
</g>
</g>
<!-- Node8&#45;&gt;Node18 -->
<g id="edge21_Node000008_Node000018" class="edge">
<title>Node8&#45;&gt;Node18</title>
<g id="a_edge21_Node000008_Node000018"><a xlink:title=" ">
<path fill="none" stroke="#63b8ff" d="M497.67,-169.84C476.61,-161.23 445.72,-148.61 422.02,-138.93"/>
<polygon fill="#63b8ff" stroke="#63b8ff" points="423.36,-135.69 412.78,-135.15 420.71,-142.17 423.36,-135.69"/>
</a>
</g>
</g>
<!-- Node14&#45;&gt;Node5 -->
<g id="edge19_Node000014_Node000005" class="edge">
<title>Node14&#45;&gt;Node5</title>
<g id="a_edge19_Node000014_Node000005"><a xlink:title=" ">
<path fill="none" stroke="#63b8ff" d="M1016.45,-113.19C1011.43,-99.18 1000.49,-73.16 983.62,-56.75 969.76,-43.25 951.08,-32.9 934.41,-25.52"/>
<polygon fill="#63b8ff" stroke="#63b8ff" points="935.79,-22.3 925.21,-21.68 933.09,-28.76 935.79,-22.3"/>
</a>
</g>
</g>
<!-- Node14&#45;&gt;Node9 -->
<g id="edge17_Node000014_Node000009" class="edge">
<title>Node14&#45;&gt;Node9</title>
<g id="a_edge17_Node000014_Node000009"><a xlink:title=" ">
<path fill="none" stroke="#63b8ff" d="M1028.03,-113.09C1034.38,-105.69 1043.28,-95.32 1050.93,-86.41"/>
<polygon fill="#63b8ff" stroke="#63b8ff" points="1053.45,-88.84 1057.31,-78.98 1048.14,-84.28 1053.45,-88.84"/>
</a>
</g>
</g>
<!-- Node15 -->
<g id="Node000015" class="node">
<title>Node15</title>
<g id="a_Node000015"><a xlink:title=" ">
<polygon fill="#e0e0e0" stroke="#999999" points="738,-77.5 685.25,-77.5 685.25,-56.75 738,-56.75 738,-77.5"/>
<text xml:space="preserve" text-anchor="middle" x="711.62" y="-64" font-family="Helvetica,sans-Serif" font-size="10.00">stdint.h</text>
</a>
</g>
</g>
<!-- Node14&#45;&gt;Node15 -->
<g id="edge16_Node000014_Node000015" class="edge">
<title>Node14&#45;&gt;Node15</title>
<g id="a_edge16_Node000014_Node000015"><a xlink:title=" ">
<path fill="none" stroke="#63b8ff" d="M977.29,-117.14C925.63,-109.85 835.42,-96.22 749.33,-77.93"/>
<polygon fill="#63b8ff" stroke="#63b8ff" points="750.31,-74.56 739.79,-75.88 748.83,-81.4 750.31,-74.56"/>
</a>
</g>
</g>
<!-- Node16 -->
<g id="Node000016" class="node">
<title>Node16</title>
<g id="a_Node000016"><a xlink:title=" ">
<polygon fill="#e0e0e0" stroke="#999999" points="1211.12,-77.5 1120.12,-77.5 1120.12,-56.75 1211.12,-56.75 1211.12,-77.5"/>
<text xml:space="preserve" text-anchor="middle" x="1165.62" y="-64" font-family="Helvetica,sans-Serif" font-size="10.00">event_groups.h</text>
</a>
</g>
</g>
<!-- Node14&#45;&gt;Node16 -->
<g id="edge18_Node000014_Node000016" class="edge">
<title>Node14&#45;&gt;Node16</title>
<g id="a_edge18_Node000014_Node000016"><a xlink:title=" ">
<path fill="none" stroke="#63b8ff" d="M1045.73,-113.09C1068.98,-104.37 1103.24,-91.52 1129.19,-81.79"/>
<polygon fill="#63b8ff" stroke="#63b8ff" points="1130.2,-85.15 1138.33,-78.36 1127.74,-78.59 1130.2,-85.15"/>
</a>
</g>
</g>
<!-- Node17 -->
<g id="Node000017" class="node">
<title>Node17</title>
<g id="a_Node000017"><a xlink:title=" ">
<polygon fill="#e0e0e0" stroke="#999999" points="974.62,-77.5 922.62,-77.5 922.62,-56.75 974.62,-56.75 974.62,-77.5"/>
<text xml:space="preserve" text-anchor="middle" x="948.62" y="-64" font-family="Helvetica,sans-Serif" font-size="10.00">stdlib.h</text>
</a>
</g>
</g>
<!-- Node14&#45;&gt;Node17 -->
<g id="edge20_Node000014_Node000017" class="edge">
<title>Node14&#45;&gt;Node17</title>
<g id="a_edge20_Node000014_Node000017"><a xlink:title=" ">
<path fill="none" stroke="#63b8ff" d="M1006.93,-113.09C996.73,-105.22 982.18,-94 970.17,-84.74"/>
<polygon fill="#63b8ff" stroke="#63b8ff" points="972.46,-82.09 962.41,-78.75 968.19,-87.63 972.46,-82.09"/>
</a>
</g>
</g>
<!-- Node18&#45;&gt;Node4 -->
<g id="edge23_Node000018_Node000004" class="edge">
<title>Node18&#45;&gt;Node4</title>
<g id="a_edge23_Node000018_Node000004"><a xlink:title=" ">
<path fill="none" stroke="#63b8ff" d="M346.42,-113.02C308.52,-103.96 252.13,-90.48 211.04,-80.66"/>
<polygon fill="#63b8ff" stroke="#63b8ff" points="211.9,-77.26 201.36,-78.34 210.27,-84.07 211.9,-77.26"/>
</a>
</g>
</g>
<!-- Node18&#45;&gt;Node5 -->
<g id="edge25_Node000018_Node000005" class="edge">
<title>Node18&#45;&gt;Node5</title>
<g id="a_edge25_Node000018_Node000005"><a xlink:title=" ">
<path fill="none" stroke="#63b8ff" d="M404.13,-113.15C434.66,-95.19 497.35,-58.49 502.62,-56.75 618.66,-18.48 763.27,-11.51 840.33,-10.8"/>
<polygon fill="#63b8ff" stroke="#63b8ff" points="840.16,-14.31 850.14,-10.75 840.12,-7.31 840.16,-14.31"/>
</a>
</g>
</g>
<!-- Node18&#45;&gt;Node11 -->
<g id="edge26_Node000018_Node000011" class="edge">
<title>Node18&#45;&gt;Node11</title>
<g id="a_edge26_Node000018_Node000011"><a xlink:title=" ">
<path fill="none" stroke="#63b8ff" d="M414.98,-113.09C439.38,-104.36 475.35,-91.48 502.56,-81.75"/>
<polygon fill="#63b8ff" stroke="#63b8ff" points="503.59,-85.1 511.83,-78.43 501.23,-78.5 503.59,-85.1"/>
</a>
</g>
</g>
<!-- Node18&#45;&gt;Node12 -->
<g id="edge27_Node000018_Node000012" class="edge">
<title>Node18&#45;&gt;Node12</title>
<g id="a_edge27_Node000018_Node000012"><a xlink:title=" ">
<path fill="none" stroke="#63b8ff" d="M345.16,-117.88C286.61,-110.74 177.6,-96.58 74.59,-77.73"/>
<polygon fill="#63b8ff" stroke="#63b8ff" points="75.31,-74.3 64.84,-75.93 74.04,-81.19 75.31,-74.3"/>
</a>
</g>
</g>
<!-- Node18&#45;&gt;Node13 -->
<g id="edge28_Node000018_Node000013" class="edge">
<title>Node18&#45;&gt;Node13</title>
<g id="a_edge28_Node000018_Node000013"><a xlink:title=" ">
<path fill="none" stroke="#63b8ff" d="M369.21,-113.09C353.54,-104.76 330.78,-92.66 312.81,-83.11"/>
<polygon fill="#63b8ff" stroke="#63b8ff" points="314.69,-80.14 304.22,-78.54 311.4,-86.32 314.69,-80.14"/>
</a>
</g>
</g>
<!-- Node18&#45;&gt;Node15 -->
<g id="edge22_Node000018_Node000015" class="edge">
<title>Node18&#45;&gt;Node15</title>
<g id="a_edge22_Node000018_Node000015"><a xlink:title=" ">
<path fill="none" stroke="#63b8ff" d="M429.98,-115.72C493.63,-104.96 612.97,-84.8 673.83,-74.51"/>
<polygon fill="#63b8ff" stroke="#63b8ff" points="674.07,-78.02 683.35,-72.9 672.9,-71.12 674.07,-78.02"/>
</a>
</g>
</g>
<!-- Node19 -->
<g id="Node000019" class="node">
<title>Node19</title>
<g id="a_Node000019"><a xlink:title=" ">
<polygon fill="#e0e0e0" stroke="#999999" points="455.88,-77.5 333.38,-77.5 333.38,-56.75 455.88,-56.75 455.88,-77.5"/>
<text xml:space="preserve" text-anchor="middle" x="394.62" y="-64" font-family="Helvetica,sans-Serif" font-size="10.00">fsl_device_registers.h</text>
</a>
</g>
</g>
<!-- Node18&#45;&gt;Node19 -->
<g id="edge24_Node000018_Node000019" class="edge">
<title>Node18&#45;&gt;Node19</title>
<g id="a_edge24_Node000018_Node000019"><a xlink:title=" ">
<path fill="none" stroke="#63b8ff" d="M388.88,-113.09C389.73,-106.39 390.9,-97.26 391.96,-88.98"/>
<polygon fill="#63b8ff" stroke="#63b8ff" points="395.4,-89.69 393.19,-79.33 388.45,-88.81 395.4,-89.69"/>
</a>
</g>
</g>
<!-- Node20&#45;&gt;Node5 -->
<g id="edge34_Node000020_Node000005" class="edge">
<title>Node20&#45;&gt;Node5</title>
<g id="a_edge34_Node000020_Node000005"><a xlink:title=" ">
<path fill="none" stroke="#63b8ff" d="M811.95,-169.77C825.65,-161.87 843.51,-149.59 854.62,-134.25 877.24,-103.02 887.52,-58.34 891.83,-32.34"/>
<polygon fill="#63b8ff" stroke="#63b8ff" points="895.25,-33.13 893.27,-22.72 888.33,-32.09 895.25,-33.13"/>
</a>
</g>
</g>
<!-- Node20&#45;&gt;Node6 -->
<g id="edge36_Node000020_Node000006" class="edge">
<title>Node20&#45;&gt;Node6</title>
<g id="a_edge36_Node000020_Node000006"><a xlink:title=" ">
<path fill="none" stroke="#63b8ff" d="M776.07,-169.77C729.5,-142.09 599.43,-65.14 578.62,-56.75 536.29,-39.67 485.71,-27.65 448.8,-20.29"/>
<polygon fill="#63b8ff" stroke="#63b8ff" points="449.78,-16.91 439.29,-18.44 448.44,-23.78 449.78,-16.91"/>
</a>
</g>
</g>
<!-- Node20&#45;&gt;Node14 -->
<g id="edge35_Node000020_Node000014" class="edge">
<title>Node20&#45;&gt;Node14</title>
<g id="a_edge35_Node000020_Node000014"><a xlink:title=" ">
<path fill="none" stroke="#63b8ff" d="M833.47,-169.77C871.04,-160.71 926.93,-147.23 967.67,-137.41"/>
<polygon fill="#63b8ff" stroke="#63b8ff" points="968.35,-140.84 977.25,-135.09 966.71,-134.04 968.35,-140.84"/>
</a>
</g>
</g>
<!-- Node20&#45;&gt;Node15 -->
<g id="edge30_Node000020_Node000015" class="edge">
<title>Node20&#45;&gt;Node15</title>
<g id="a_edge30_Node000020_Node000015"><a xlink:title=" ">
<path fill="none" stroke="#63b8ff" d="M773.14,-169.88C759.36,-162.04 741.47,-149.78 730.62,-134.25 721.31,-120.9 716.53,-103.03 714.09,-89.23"/>
<polygon fill="#63b8ff" stroke="#63b8ff" points="717.57,-88.84 712.67,-79.44 710.64,-89.84 717.57,-88.84"/>
</a>
</g>
</g>
<!-- Node21 -->
<g id="Node000021" class="node">
<title>Node21</title>
<g id="a_Node000021"><a xlink:href="tmc2209__shared_8h.html" target="_top" xlink:title=" ">
<polygon fill="white" stroke="#666666" points="845.62,-134.25 739.62,-134.25 739.62,-113.5 845.62,-113.5 845.62,-134.25"/>
<text xml:space="preserve" text-anchor="middle" x="792.62" y="-120.75" font-family="Helvetica,sans-Serif" font-size="10.00">tmc2209_shared.h</text>
</a>
</g>
</g>
<!-- Node20&#45;&gt;Node21 -->
<g id="edge31_Node000020_Node000021" class="edge">
<title>Node20&#45;&gt;Node21</title>
<g id="a_edge31_Node000020_Node000021"><a xlink:title=" ">
<path fill="none" stroke="#63b8ff" d="M792.62,-169.84C792.62,-163.22 792.62,-154.22 792.62,-146.02"/>
<polygon fill="#63b8ff" stroke="#63b8ff" points="796.13,-146.09 792.63,-136.09 789.13,-146.09 796.13,-146.09"/>
</a>
</g>
</g>
<!-- Node21&#45;&gt;Node15 -->
<g id="edge32_Node000021_Node000015" class="edge">
<title>Node21&#45;&gt;Node15</title>
<g id="a_edge32_Node000021_Node000015"><a xlink:title=" ">
<path fill="none" stroke="#63b8ff" d="M778.14,-113.09C766.28,-105.07 749.25,-93.56 735.39,-84.19"/>
<polygon fill="#63b8ff" stroke="#63b8ff" points="737.48,-81.38 727.23,-78.68 733.56,-87.18 737.48,-81.38"/>
</a>
</g>
</g>
<!-- Node22 -->
<g id="Node000022" class="node">
<title>Node22</title>
<g id="a_Node000022"><a xlink:title=" ">
<polygon fill="#e0e0e0" stroke="#999999" points="861.25,-77.5 756,-77.5 756,-56.75 861.25,-56.75 861.25,-77.5"/>
<text xml:space="preserve" text-anchor="middle" x="808.62" y="-64" font-family="Helvetica,sans-Serif" font-size="10.00">fsl_uart_freertos.h</text>
</a>
</g>
</g>
<!-- Node21&#45;&gt;Node22 -->
<g id="edge33_Node000021_Node000022" class="edge">
<title>Node21&#45;&gt;Node22</title>
<g id="a_edge33_Node000021_Node000022"><a xlink:title=" ">
<path fill="none" stroke="#63b8ff" d="M795.49,-113.09C797.46,-106.31 800.17,-97.05 802.62,-88.69"/>
<polygon fill="#63b8ff" stroke="#63b8ff" points="805.92,-89.86 805.36,-79.28 799.2,-87.9 805.92,-89.86"/>
</a>
</g>
</g>
<!-- Node23&#45;&gt;Node3 -->
<g id="edge43_Node000023_Node000003" class="edge">
<title>Node23&#45;&gt;Node3</title>
<g id="a_edge43_Node000023_Node000003"><a xlink:title=" ">
<path fill="none" stroke="#63b8ff" d="M611.12,-283.34C579.52,-274.37 532.54,-261.04 497.92,-251.23"/>
<polygon fill="#63b8ff" stroke="#63b8ff" points="499.19,-247.95 488.61,-248.58 497.28,-254.68 499.19,-247.95"/>
</a>
</g>
</g>
<!-- Node23&#45;&gt;Node9 -->
<g id="edge44_Node000023_Node000009" class="edge">
<title>Node23&#45;&gt;Node9</title>
<g id="a_edge44_Node000023_Node000009"><a xlink:title=" ">
<path fill="none" stroke="#63b8ff" d="M694.6,-291.81C786.89,-286.36 984.92,-259.82 1070.62,-134.25 1079.65,-121.02 1077.68,-102.63 1074,-88.6"/>
<polygon fill="#63b8ff" stroke="#63b8ff" points="1077.34,-87.57 1071.01,-79.07 1070.66,-89.66 1077.34,-87.57"/>
</a>
</g>
</g>
<!-- Node23&#45;&gt;Node14 -->
<g id="edge46_Node000023_Node000014" class="edge">
<title>Node23&#45;&gt;Node14</title>
<g id="a_edge46_Node000023_Node000014"><a xlink:title=" ">
<path fill="none" stroke="#63b8ff" d="M667.35,-283.35C730.35,-255.01 913.37,-172.68 987.69,-139.24"/>
<polygon fill="#63b8ff" stroke="#63b8ff" points="988.78,-142.59 996.46,-135.3 985.9,-136.21 988.78,-142.59"/>
</a>
</g>
</g>
<!-- Node23&#45;&gt;Node15 -->
<g id="edge41_Node000023_Node000015" class="edge">
<title>Node23&#45;&gt;Node15</title>
<g id="a_edge41_Node000023_Node000015"><a xlink:title=" ">
<path fill="none" stroke="#63b8ff" d="M648.46,-283.46C658.4,-249.56 691.83,-135.62 705.61,-88.64"/>
<polygon fill="#63b8ff" stroke="#63b8ff" points="708.92,-89.79 708.37,-79.21 702.2,-87.82 708.92,-89.79"/>
</a>
</g>
</g>
<!-- Node24 -->
<g id="Node000024" class="node">
<title>Node24</title>
<g id="a_Node000024"><a xlink:title=" ">
<polygon fill="#e0e0e0" stroke="#999999" points="572.12,-247.75 511.12,-247.75 511.12,-227 572.12,-227 572.12,-247.75"/>
<text xml:space="preserve" text-anchor="middle" x="541.62" y="-234.25" font-family="Helvetica,sans-Serif" font-size="10.00">stdbool.h</text>
</a>
</g>
</g>
<!-- Node23&#45;&gt;Node24 -->
<g id="edge42_Node000023_Node000024" class="edge">
<title>Node23&#45;&gt;Node24</title>
<g id="a_edge42_Node000023_Node000024"><a xlink:title=" ">
<path fill="none" stroke="#63b8ff" d="M627.03,-283.34C611.21,-275.01 588.23,-262.91 570.09,-253.36"/>
<polygon fill="#63b8ff" stroke="#63b8ff" points="571.88,-250.34 561.4,-248.78 568.61,-256.54 571.88,-250.34"/>
</a>
</g>
</g>
<!-- Node25 -->
<g id="Node000025" class="node">
<title>Node25</title>
<g id="a_Node000025"><a xlink:title=" ">
<polygon fill="#e0e0e0" stroke="#999999" points="645.12,-247.75 590.12,-247.75 590.12,-227 645.12,-227 645.12,-247.75"/>
<text xml:space="preserve" text-anchor="middle" x="617.62" y="-234.25" font-family="Helvetica,sans-Serif" font-size="10.00">queue.h</text>
</a>
</g>
</g>
<!-- Node23&#45;&gt;Node25 -->
<g id="edge45_Node000023_Node000025" class="edge">
<title>Node23&#45;&gt;Node25</title>
<g id="a_edge45_Node000023_Node000025"><a xlink:title=" ">
<path fill="none" stroke="#63b8ff" d="M640.62,-283.34C637.04,-276.33 632.09,-266.66 627.7,-258.08"/>
<polygon fill="#63b8ff" stroke="#63b8ff" points="630.95,-256.74 623.28,-249.43 624.71,-259.92 630.95,-256.74"/>
</a>
</g>
</g>
<!-- Node26&#45;&gt;Node5 -->
<g id="edge49_Node000026_Node000005" class="edge">
<title>Node26&#45;&gt;Node5</title>
<g id="a_edge49_Node000026_Node000005"><a xlink:title=" ">
<path fill="none" stroke="#63b8ff" d="M1283.12,-113.38C1280.25,-98.63 1272.49,-70.48 1253.62,-56.75 1206.23,-22.26 1037.15,-13.94 948.99,-11.97"/>
<polygon fill="#63b8ff" stroke="#63b8ff" points="949.21,-8.47 939.14,-11.77 949.07,-15.47 949.21,-8.47"/>
</a>
</g>
</g>
<!-- Node26&#45;&gt;Node9 -->
<g id="edge48_Node000026_Node000009" class="edge">
<title>Node26&#45;&gt;Node9</title>
<g id="a_edge48_Node000026_Node000009"><a xlink:title=" ">
<path fill="none" stroke="#63b8ff" d="M1264.51,-117.82C1230.52,-109.29 1160.87,-91.79 1113.95,-80.01"/>
<polygon fill="#63b8ff" stroke="#63b8ff" points="1114.86,-76.63 1104.31,-77.59 1113.15,-83.42 1114.86,-76.63"/>
</a>
</g>
</g>
<!-- Node28&#45;&gt;Node5 -->
<g id="edge57_Node000028_Node000005" class="edge">
<title>Node28&#45;&gt;Node5</title>
<g id="a_edge57_Node000028_Node000005"><a xlink:title=" ">
<path fill="none" stroke="#63b8ff" d="M1160.39,-169.95C1189.77,-148.18 1253.32,-94.32 1220.62,-56.75 1186.05,-17.03 1032.25,-10.98 948.84,-10.71"/>
<polygon fill="#63b8ff" stroke="#63b8ff" points="949.07,-7.21 939.07,-10.71 949.07,-14.21 949.07,-7.21"/>
</a>
</g>
</g>
<!-- Node28&#45;&gt;Node9 -->
<g id="edge55_Node000028_Node000009" class="edge">
<title>Node28&#45;&gt;Node9</title>
<g id="a_edge55_Node000028_Node000009"><a xlink:title=" ">
<path fill="none" stroke="#63b8ff" d="M1140.81,-169.99C1132.83,-156.92 1117.83,-132.97 1103.62,-113.5 1096.99,-104.41 1089.18,-94.7 1082.45,-86.6"/>
<polygon fill="#63b8ff" stroke="#63b8ff" points="1085.27,-84.52 1076.15,-79.13 1079.92,-89.03 1085.27,-84.52"/>
</a>
</g>
</g>
<!-- Node28&#45;&gt;Node14 -->
<g id="edge58_Node000028_Node000014" class="edge">
<title>Node28&#45;&gt;Node14</title>
<g id="a_edge58_Node000028_Node000014"><a xlink:title=" ">
<path fill="none" stroke="#63b8ff" d="M1123.92,-169.84C1104.05,-161.27 1074.95,-148.73 1052.53,-139.06"/>
<polygon fill="#63b8ff" stroke="#63b8ff" points="1054.09,-135.92 1043.52,-135.18 1051.32,-142.35 1054.09,-135.92"/>
</a>
</g>
</g>
<!-- Node28&#45;&gt;Node15 -->
<g id="edge54_Node000028_Node000015" class="edge">
<title>Node28&#45;&gt;Node15</title>
<g id="a_edge54_Node000028_Node000015"><a xlink:title=" ">
<path fill="none" stroke="#63b8ff" d="M1109.36,-170.27C1040.4,-152.92 887.93,-114.41 749.18,-78.15"/>
<polygon fill="#63b8ff" stroke="#63b8ff" points="750.39,-74.85 739.83,-75.71 748.62,-81.62 750.39,-74.85"/>
</a>
</g>
</g>
<!-- Node28&#45;&gt;Node16 -->
<g id="edge56_Node000028_Node000016" class="edge">
<title>Node28&#45;&gt;Node16</title>
<g id="a_edge56_Node000028_Node000016"><a xlink:title=" ">
<path fill="none" stroke="#63b8ff" d="M1148.24,-170.12C1151.29,-152.27 1157.92,-113.36 1162.05,-89.09"/>
<polygon fill="#63b8ff" stroke="#63b8ff" points="1165.47,-89.86 1163.7,-79.42 1158.57,-88.69 1165.47,-89.86"/>
</a>
</g>
</g>
</g>
</svg>
