<?xml version="1.0" encoding="UTF-8" standalone="no"?>
<!DOCTYPE svg PUBLIC "-//W3C//DTD SVG 1.1//EN"
 "http://www.w3.org/Graphics/SVG/1.1/DTD/svg11.dtd">
<!-- Generated by graphviz version 14.1.5 (0)
 -->
<!-- Title: source/motion/homing/motor_homing.c Pages: 1 -->
<!--zoomable 452 -->

<svg id="main" version="1.1" xmlns="http://www.w3.org/2000/svg" xmlns:xlink="http://www.w3.org/1999/xlink" xml:space="preserve" onload="init(evt)">

<style type="text/css"><![CDATA[
.node, .edge {opacity: 0.7;}
.node.selected, .edge.selected {opacity: 1;}
.edge:hover path { stroke: red; }
.edge:hover polygon { stroke: red; fill: red; }
]]></style>

<defs>
  <circle id="rim" cx="0" cy="0" r="7"/>
  <circle id="rim2" cx="0" cy="0" r="3.5"/>
  <g id="zoomPlus">
    <use xlink:href="#rim" fill="#404040"><set attributeName="fill" to="#808080" begin="zoomplus.mouseover" end="zoomplus.mouseout"/></use>
    <path d="M-4,0h8M0,-4v8" fill="none" stroke="white" stroke-width="1.5" pointer-events="none"/>
  </g>
  <g id="zoomMin">
    <use xlink:href="#rim" fill="#404040"><set attributeName="fill" to="#808080" begin="zoomminus.mouseover" end="zoomminus.mouseout"/></use>
    <path d="M-4,0h8" fill="none" stroke="white" stroke-width="1.5" pointer-events="none"/>
  </g>
  <g id="arrowUp" transform="translate(30 24)">
    <use xlink:href="#rim"/>
    <path pointer-events="none" fill="none" stroke="white" stroke-width="1.5" d="M0,-3.0v7 M-2.5,-0.5L0,-3.0L2.5,-0.5"/>
  </g>
  <g id="arrowRight" transform="rotate(90) translate(36 -43)">
    <use xlink:href="#rim"/>
    <path pointer-events="none" fill="none" stroke="white" stroke-width="1.5" d="M0,-3.0v7 M-2.5,-0.5L0,-3.0L2.5,-0.5"/>
  </g>
  <g id="arrowDown" transform="rotate(180) translate(-30 -48)">
    <use xlink:href="#rim"/>
    <path pointer-events="none" fill="none" stroke="white" stroke-width="1.5" d="M0,-3.0v7 M-2.5,-0.5L0,-3.0L2.5,-0.5"/>
  </g>
  <g id="arrowLeft" transform="rotate(270) translate(-36 17)">
    <use xlink:href="#rim"/>
    <path pointer-events="none" fill="none" stroke="white" stroke-width="1.5" d="M0,-3.0v7 M-2.5,-0.5L0,-3.0L2.5,-0.5"/>
  </g>
  <g id="resetDef">
    <use xlink:href="#rim2" fill="#404040"><set attributeName="fill" to="#808080" begin="reset.mouseover" end="reset.mouseout"/></use>
  </g>
</defs>
<script type="application/ecmascript">
var viewWidth = 1493;
var viewHeight = 452;
var sectionId = 'dynsection-0';
</script>
<script type="application/ecmascript" xlink:href="svg.min.js"/>
<svg id="graph" class="graph">
<g id="viewport">
<title>source/motion/homing/motor_homing.c</title>
<!-- Node1 -->
<g id="Node000001" class="node">
<title>Node1</title>
<g id="a_Node000001"><a xlink:title=" ">
<polygon fill="#999999" stroke="#666666" points="922.03,-443.5 796.53,-443.5 796.53,-410 922.03,-410 922.03,-443.5"/>
<text xml:space="preserve" text-anchor="start" x="804.53" y="-430" font-family="Helvetica,sans-Serif" font-size="10.00">source/motion/homing</text>
<text xml:space="preserve" text-anchor="middle" x="859.28" y="-417.25" font-family="Helvetica,sans-Serif" font-size="10.00">/motor_homing.c</text>
</a>
</g>
</g>
<!-- Node2 -->
<g id="Node000002" class="node">
<title>Node2</title>
<g id="a_Node000002"><a xlink:href="log_8h.html" target="_top" xlink:title=" ">
<polygon fill="white" stroke="#666666" points="122.78,-134.25 13.78,-134.25 13.78,-113.5 122.78,-113.5 122.78,-134.25"/>
<text xml:space="preserve" text-anchor="middle" x="68.28" y="-120.75" font-family="Helvetica,sans-Serif" font-size="10.00">infrastructure/log.h</text>
</a>
</g>
</g>
<!-- Node1&#45;&gt;Node2 -->
<g id="edge1_Node000001_Node000002" class="edge">
<title>Node1&#45;&gt;Node2</title>
<g id="a_edge1_Node000001_Node000002"><a xlink:title=" ">
<path fill="none" stroke="#63b8ff" d="M796.12,-424.57C630.47,-421 192.48,-408.39 137.28,-374 102.84,-352.54 91.28,-335.71 91.28,-295.12 91.28,-295.12 91.28,-295.12 91.28,-236.38 91.28,-204.02 81.88,-167.46 75.1,-145.29"/>
<polygon fill="#63b8ff" stroke="#63b8ff" points="78.51,-144.48 72.14,-136.02 71.84,-146.61 78.51,-144.48"/>
</a>
</g>
</g>
<!-- Node3 -->
<g id="Node000003" class="node">
<title>Node3</title>
<g id="a_Node000003"><a xlink:title=" ">
<polygon fill="#e0e0e0" stroke="#999999" points="263.03,-77.5 191.53,-77.5 191.53,-56.75 263.03,-56.75 263.03,-77.5"/>
<text xml:space="preserve" text-anchor="middle" x="227.28" y="-64" font-family="Helvetica,sans-Serif" font-size="10.00">FreeRTOS.h</text>
</a>
</g>
</g>
<!-- Node1&#45;&gt;Node3 -->
<g id="edge51_Node000001_Node000003" class="edge">
<title>Node1&#45;&gt;Node3</title>
<g id="a_edge51_Node000001_Node000003"><a xlink:title=" ">
<path fill="none" stroke="#63b8ff" d="M796.14,-420.74C622.61,-406.11 151.28,-360.39 151.28,-295.12 151.28,-295.12 151.28,-295.12 151.28,-179.62 151.28,-140.71 183.28,-105.35 205.75,-85.32"/>
<polygon fill="#63b8ff" stroke="#63b8ff" points="207.91,-88.08 213.24,-78.92 203.36,-82.76 207.91,-88.08"/>
</a>
</g>
</g>
<!-- Node5 -->
<g id="Node000005" class="node">
<title>Node5</title>
<g id="a_Node000005"><a xlink:href="motor__homing_8h.html" target="_top" xlink:title=" ">
<polygon fill="white" stroke="#666666" points="652.53,-374 530.03,-374 530.03,-340.5 652.53,-340.5 652.53,-374"/>
<text xml:space="preserve" text-anchor="start" x="538.03" y="-360.5" font-family="Helvetica,sans-Serif" font-size="10.00">motion/homing/motor</text>
<text xml:space="preserve" text-anchor="middle" x="591.28" y="-347.75" font-family="Helvetica,sans-Serif" font-size="10.00">_homing.h</text>
</a>
</g>
</g>
<!-- Node1&#45;&gt;Node5 -->
<g id="edge4_Node000001_Node000005" class="edge">
<title>Node1&#45;&gt;Node5</title>
<g id="a_edge4_Node000001_Node000005"><a xlink:title=" ">
<path fill="none" stroke="#63b8ff" d="M796.11,-409.84C756.42,-399.84 705.09,-386.91 663.75,-376.5"/>
<polygon fill="#63b8ff" stroke="#63b8ff" points="664.67,-373.12 654.11,-374.08 662.96,-379.91 664.67,-373.12"/>
</a>
</g>
</g>
<!-- Node9 -->
<g id="Node000009" class="node">
<title>Node9</title>
<g id="a_Node000009"><a xlink:href="motor__core_8h.html" target="_top" xlink:title=" ">
<polygon fill="white" stroke="#666666" points="1013.53,-247.75 933.03,-247.75 933.03,-227 1013.53,-227 1013.53,-247.75"/>
<text xml:space="preserve" text-anchor="middle" x="973.28" y="-234.25" font-family="Helvetica,sans-Serif" font-size="10.00">motor_core.h</text>
</a>
</g>
</g>
<!-- Node1&#45;&gt;Node9 -->
<g id="edge53_Node000001_Node000009" class="edge">
<title>Node1&#45;&gt;Node9</title>
<g id="a_edge53_Node000001_Node000009"><a xlink:title=" ">
<path fill="none" stroke="#63b8ff" d="M922.19,-423.62C958.6,-418.76 1001.76,-405.97 1025.28,-374 1052.54,-336.95 1014.56,-283.86 990.47,-256.38"/>
<polygon fill="#63b8ff" stroke="#63b8ff" points="993.28,-254.27 983.96,-249.23 988.1,-258.98 993.28,-254.27"/>
</a>
</g>
</g>
<!-- Node13 -->
<g id="Node000013" class="node">
<title>Node13</title>
<g id="a_Node000013"><a xlink:href="step__core_8h.html" target="_top" xlink:title=" ">
<polygon fill="white" stroke="#666666" points="945.41,-191 873.16,-191 873.16,-170.25 945.41,-170.25 945.41,-191"/>
<text xml:space="preserve" text-anchor="middle" x="909.28" y="-177.5" font-family="Helvetica,sans-Serif" font-size="10.00">step_core.h</text>
</a>
</g>
</g>
<!-- Node1&#45;&gt;Node13 -->
<g id="edge54_Node000001_Node000013" class="edge">
<title>Node1&#45;&gt;Node13</title>
<g id="a_edge54_Node000001_Node000013"><a xlink:title=" ">
<path fill="none" stroke="#63b8ff" d="M862.56,-409.73C871.32,-366.98 895.23,-250.22 905.02,-202.43"/>
<polygon fill="#63b8ff" stroke="#63b8ff" points="908.4,-203.36 906.98,-192.86 901.55,-201.95 908.4,-203.36"/>
</a>
</g>
</g>
<!-- Node16 -->
<g id="Node000016" class="node">
<title>Node16</title>
<g id="a_Node000016"><a xlink:title=" ">
<polygon fill="#e0e0e0" stroke="#999999" points="1431.91,-77.5 1368.66,-77.5 1368.66,-56.75 1431.91,-56.75 1431.91,-77.5"/>
<text xml:space="preserve" text-anchor="middle" x="1400.28" y="-64" font-family="Helvetica,sans-Serif" font-size="10.00">fsl_gpio.h</text>
</a>
</g>
</g>
<!-- Node1&#45;&gt;Node16 -->
<g id="edge65_Node000001_Node000016" class="edge">
<title>Node1&#45;&gt;Node16</title>
<g id="a_edge65_Node000001_Node000016"><a xlink:title=" ">
<path fill="none" stroke="#63b8ff" d="M922.46,-425.83C1081.41,-424.32 1485.28,-409.27 1485.28,-295.12 1485.28,-295.12 1485.28,-295.12 1485.28,-236.38 1485.28,-176.13 1441.33,-115.53 1416.64,-86.24"/>
<polygon fill="#63b8ff" stroke="#63b8ff" points="1419.57,-84.27 1410.37,-79.01 1414.28,-88.86 1419.57,-84.27"/>
</a>
</g>
</g>
<!-- Node27 -->
<g id="Node000027" class="node">
<title>Node27</title>
<g id="a_Node000027"><a xlink:title=" ">
<polygon fill="#e0e0e0" stroke="#999999" points="948.78,-367.62 887.78,-367.62 887.78,-346.88 948.78,-346.88 948.78,-367.62"/>
<text xml:space="preserve" text-anchor="middle" x="918.28" y="-354.12" font-family="Helvetica,sans-Serif" font-size="10.00">semphr.h</text>
</a>
</g>
</g>
<!-- Node1&#45;&gt;Node27 -->
<g id="edge52_Node000001_Node000027" class="edge">
<title>Node1&#45;&gt;Node27</title>
<g id="a_edge52_Node000001_Node000027"><a xlink:title=" ">
<path fill="none" stroke="#63b8ff" d="M873.26,-409.75C881.93,-399.84 893.08,-387.08 902.12,-376.74"/>
<polygon fill="#63b8ff" stroke="#63b8ff" points="904.75,-379.04 908.7,-369.21 899.48,-374.44 904.75,-379.04"/>
</a>
</g>
</g>
<!-- Node28 -->
<g id="Node000028" class="node">
<title>Node28</title>
<g id="a_Node000028"><a xlink:title=" ">
<polygon fill="#e0e0e0" stroke="#999999" points="1015.78,-367.62 966.78,-367.62 966.78,-346.88 1015.78,-346.88 1015.78,-367.62"/>
<text xml:space="preserve" text-anchor="middle" x="991.28" y="-354.12" font-family="Helvetica,sans-Serif" font-size="10.00">stdio.h</text>
</a>
</g>
</g>
<!-- Node1&#45;&gt;Node28 -->
<g id="edge55_Node000001_Node000028" class="edge">
<title>Node1&#45;&gt;Node28</title>
<g id="a_edge55_Node000001_Node000028"><a xlink:title=" ">
<path fill="none" stroke="#63b8ff" d="M890.9,-409.58C912.56,-398.5 941.08,-383.92 962.18,-373.13"/>
<polygon fill="#63b8ff" stroke="#63b8ff" points="963.52,-376.38 970.83,-368.71 960.33,-370.15 963.52,-376.38"/>
</a>
</g>
</g>
<!-- Node29 -->
<g id="Node000029" class="node">
<title>Node29</title>
<g id="a_Node000029"><a xlink:href="motor__convert_8h.html" target="_top" xlink:title=" ">
<polygon fill="white" stroke="#666666" points="839.41,-304.5 743.16,-304.5 743.16,-283.75 839.41,-283.75 839.41,-304.5"/>
<text xml:space="preserve" text-anchor="middle" x="791.28" y="-291" font-family="Helvetica,sans-Serif" font-size="10.00">motor_convert.h</text>
</a>
</g>
</g>
<!-- Node1&#45;&gt;Node29 -->
<g id="edge56_Node000001_Node000029" class="edge">
<title>Node1&#45;&gt;Node29</title>
<g id="a_edge56_Node000001_Node000029"><a xlink:title=" ">
<path fill="none" stroke="#63b8ff" d="M850.94,-409.73C838.52,-385.88 815.18,-341.04 801.67,-315.08"/>
<polygon fill="#63b8ff" stroke="#63b8ff" points="804.81,-313.53 797.08,-306.27 798.6,-316.76 804.81,-313.53"/>
</a>
</g>
</g>
<!-- Node30 -->
<g id="Node000030" class="node">
<title>Node30</title>
<g id="a_Node000030"><a xlink:href="sync__wait_8h.html" target="_top" xlink:title=" ">
<polygon fill="white" stroke="#666666" points="363.16,-191 289.41,-191 289.41,-170.25 363.16,-170.25 363.16,-191"/>
<text xml:space="preserve" text-anchor="middle" x="326.28" y="-177.5" font-family="Helvetica,sans-Serif" font-size="10.00">sync_wait.h</text>
</a>
</g>
</g>
<!-- Node1&#45;&gt;Node30 -->
<g id="edge59_Node000001_Node000030" class="edge">
<title>Node1&#45;&gt;Node30</title>
<g id="a_edge59_Node000001_Node000030"><a xlink:title=" ">
<path fill="none" stroke="#63b8ff" d="M796.14,-423.34C726.87,-419.05 613.3,-407.13 521.28,-374 418.46,-336.98 364.18,-342.81 310.28,-247.75 302.1,-233.32 307.71,-214.82 314.44,-201.06"/>
<polygon fill="#63b8ff" stroke="#63b8ff" points="317.38,-202.99 319.12,-192.53 311.24,-199.62 317.38,-202.99"/>
</a>
</g>
</g>
<!-- Node31 -->
<g id="Node000031" class="node">
<title>Node31</title>
<g id="a_Node000031"><a xlink:href="motor__configs_8h.html" target="_top" xlink:title=" ">
<polygon fill="white" stroke="#666666" points="1301.28,-304.5 1207.28,-304.5 1207.28,-283.75 1301.28,-283.75 1301.28,-304.5"/>
<text xml:space="preserve" text-anchor="middle" x="1254.28" y="-291" font-family="Helvetica,sans-Serif" font-size="10.00">motor_configs.h</text>
</a>
</g>
</g>
<!-- Node1&#45;&gt;Node31 -->
<g id="edge66_Node000001_Node000031" class="edge">
<title>Node1&#45;&gt;Node31</title>
<g id="a_edge66_Node000001_Node000031"><a xlink:title=" ">
<path fill="none" stroke="#63b8ff" d="M922.17,-411.58C961.63,-402.15 1013.36,-388.81 1058.28,-374 1117.35,-354.52 1184.15,-326.25 1222.54,-309.37"/>
<polygon fill="#63b8ff" stroke="#63b8ff" points="1223.46,-312.79 1231.19,-305.54 1220.63,-306.38 1223.46,-312.79"/>
</a>
</g>
</g>
<!-- Node2&#45;&gt;Node3 -->
<g id="edge2_Node000002_Node000003" class="edge">
<title>Node2&#45;&gt;Node3</title>
<g id="a_edge2_Node000002_Node000003"><a xlink:title=" ">
<path fill="none" stroke="#63b8ff" d="M96.71,-113.09C122.18,-104.32 159.78,-91.37 188.1,-81.62"/>
<polygon fill="#63b8ff" stroke="#63b8ff" points="189.09,-84.98 197.4,-78.41 186.81,-78.36 189.09,-84.98"/>
</a>
</g>
</g>
<!-- Node4 -->
<g id="Node000004" class="node">
<title>Node4</title>
<g id="a_Node000004"><a xlink:title=" ">
<polygon fill="#e0e0e0" stroke="#999999" points="799.78,-20.75 714.78,-20.75 714.78,0 799.78,0 799.78,-20.75"/>
<text xml:space="preserve" text-anchor="middle" x="757.28" y="-7.25" font-family="Helvetica,sans-Serif" font-size="10.00">fsl_common.h</text>
</a>
</g>
</g>
<!-- Node2&#45;&gt;Node4 -->
<g id="edge3_Node000002_Node000004" class="edge">
<title>Node2&#45;&gt;Node4</title>
<g id="a_edge3_Node000002_Node000004"><a xlink:title=" ">
<path fill="none" stroke="#63b8ff" d="M80.72,-113.1C100.78,-97.96 142.09,-69.28 182.28,-56.75 278.48,-26.76 578.8,-15.88 702.85,-12.6"/>
<polygon fill="#63b8ff" stroke="#63b8ff" points="702.87,-16.1 712.77,-12.34 702.69,-9.1 702.87,-16.1"/>
</a>
</g>
</g>
<!-- Node5&#45;&gt;Node3 -->
<g id="edge49_Node000005_Node000003" class="edge">
<title>Node5&#45;&gt;Node3</title>
<g id="a_edge49_Node000005_Node000003"><a xlink:title=" ">
<path fill="none" stroke="#63b8ff" d="M529.83,-347.88C462.9,-335.97 355.96,-308.42 285.28,-247.75 237.7,-206.9 228.84,-126.75 227.41,-88.88"/>
<polygon fill="#63b8ff" stroke="#63b8ff" points="230.91,-89.21 227.19,-79.29 223.92,-89.37 230.91,-89.21"/>
</a>
</g>
</g>
<!-- Node6 -->
<g id="Node000006" class="node">
<title>Node6</title>
<g id="a_Node000006"><a xlink:href="motor__internal_8h.html" target="_top" xlink:title=" ">
<polygon fill="white" stroke="#666666" points="529.78,-304.5 432.78,-304.5 432.78,-283.75 529.78,-283.75 529.78,-304.5"/>
<text xml:space="preserve" text-anchor="middle" x="481.28" y="-291" font-family="Helvetica,sans-Serif" font-size="10.00">motor_internal.h</text>
</a>
</g>
</g>
<!-- Node5&#45;&gt;Node6 -->
<g id="edge5_Node000005_Node000006" class="edge">
<title>Node5&#45;&gt;Node6</title>
<g id="a_edge5_Node000005_Node000006"><a xlink:title=" ">
<path fill="none" stroke="#63b8ff" d="M562.09,-340.03C545.59,-330.86 525.09,-319.47 508.86,-310.45"/>
<polygon fill="#63b8ff" stroke="#63b8ff" points="510.66,-307.45 500.22,-305.65 507.26,-313.57 510.66,-307.45"/>
</a>
</g>
</g>
<!-- Node12 -->
<g id="Node000012" class="node">
<title>Node12</title>
<g id="a_Node000012"><a xlink:title=" ">
<polygon fill="#e0e0e0" stroke="#999999" points="1419.66,-191 1330.91,-191 1330.91,-170.25 1419.66,-170.25 1419.66,-191"/>
<text xml:space="preserve" text-anchor="middle" x="1375.28" y="-177.5" font-family="Helvetica,sans-Serif" font-size="10.00">MK22F51212.h</text>
</a>
</g>
</g>
<!-- Node5&#45;&gt;Node12 -->
<g id="edge50_Node000005_Node000012" class="edge">
<title>Node5&#45;&gt;Node12</title>
<g id="a_edge50_Node000005_Node000012"><a xlink:title=" ">
<path fill="none" stroke="#63b8ff" d="M652.93,-344.38C705.06,-334.22 781.68,-318.97 848.28,-304.5 1023.22,-266.5 1229.71,-216.99 1323.86,-194.16"/>
<polygon fill="#63b8ff" stroke="#63b8ff" points="1324.68,-197.56 1333.57,-191.8 1323.03,-190.76 1324.68,-197.56"/>
</a>
</g>
</g>
<!-- Node6&#45;&gt;Node3 -->
<g id="edge46_Node000006_Node000003" class="edge">
<title>Node6&#45;&gt;Node3</title>
<g id="a_edge46_Node000006_Node000003"><a xlink:title=" ">
<path fill="none" stroke="#63b8ff" d="M432.37,-290.57C395.37,-286.35 345.14,-275.47 310.28,-247.75 258.83,-206.83 237.92,-126.71 230.64,-88.87"/>
<polygon fill="#63b8ff" stroke="#63b8ff" points="234.13,-88.49 228.94,-79.26 227.24,-89.72 234.13,-88.49"/>
</a>
</g>
</g>
<!-- Node7 -->
<g id="Node000007" class="node">
<title>Node7</title>
<g id="a_Node000007"><a xlink:title=" ">
<polygon fill="#e0e0e0" stroke="#999999" points="583.66,-77.5 530.91,-77.5 530.91,-56.75 583.66,-56.75 583.66,-77.5"/>
<text xml:space="preserve" text-anchor="middle" x="557.28" y="-64" font-family="Helvetica,sans-Serif" font-size="10.00">stdint.h</text>
</a>
</g>
</g>
<!-- Node6&#45;&gt;Node7 -->
<g id="edge6_Node000006_Node000007" class="edge">
<title>Node6&#45;&gt;Node7</title>
<g id="a_edge6_Node000006_Node000007"><a xlink:title=" ">
<path fill="none" stroke="#63b8ff" d="M484.55,-283.46C496,-249.56 534.48,-135.62 550.35,-88.64"/>
<polygon fill="#63b8ff" stroke="#63b8ff" points="553.66,-89.79 553.54,-79.19 547.03,-87.54 553.66,-89.79"/>
</a>
</g>
</g>
<!-- Node8 -->
<g id="Node000008" class="node">
<title>Node8</title>
<g id="a_Node000008"><a xlink:title=" ">
<polygon fill="#e0e0e0" stroke="#999999" points="379.78,-247.75 318.78,-247.75 318.78,-227 379.78,-227 379.78,-247.75"/>
<text xml:space="preserve" text-anchor="middle" x="349.28" y="-234.25" font-family="Helvetica,sans-Serif" font-size="10.00">stdbool.h</text>
</a>
</g>
</g>
<!-- Node6&#45;&gt;Node8 -->
<g id="edge7_Node000006_Node000008" class="edge">
<title>Node6&#45;&gt;Node8</title>
<g id="a_edge7_Node000006_Node000008"><a xlink:title=" ">
<path fill="none" stroke="#63b8ff" d="M457.68,-283.34C436.94,-274.73 406.51,-262.11 383.17,-252.43"/>
<polygon fill="#63b8ff" stroke="#63b8ff" points="384.65,-249.26 374.07,-248.66 381.97,-255.72 384.65,-249.26"/>
</a>
</g>
</g>
<!-- Node6&#45;&gt;Node9 -->
<g id="edge8_Node000006_Node000009" class="edge">
<title>Node6&#45;&gt;Node9</title>
<g id="a_edge8_Node000006_Node000009"><a xlink:title=" ">
<path fill="none" stroke="#63b8ff" d="M530.26,-287.68C623.47,-277.3 825.6,-254.81 921.19,-244.17"/>
<polygon fill="#63b8ff" stroke="#63b8ff" points="921.52,-247.66 931.07,-243.07 920.75,-240.7 921.52,-247.66"/>
</a>
</g>
</g>
<!-- Node18 -->
<g id="Node000018" class="node">
<title>Node18</title>
<g id="a_Node000018"><a xlink:href="cmd__handle_8h.html" target="_top" xlink:title=" ">
<polygon fill="white" stroke="#666666" points="453.41,-134.25 369.16,-134.25 369.16,-113.5 453.41,-113.5 453.41,-134.25"/>
<text xml:space="preserve" text-anchor="middle" x="411.28" y="-120.75" font-family="Helvetica,sans-Serif" font-size="10.00">cmd_handle.h</text>
</a>
</g>
</g>
<!-- Node6&#45;&gt;Node18 -->
<g id="edge48_Node000006_Node000018" class="edge">
<title>Node6&#45;&gt;Node18</title>
<g id="a_edge48_Node000006_Node000018"><a xlink:title=" ">
<path fill="none" stroke="#63b8ff" d="M479.11,-283.53C476.03,-270.5 469.91,-246.59 462.28,-227 450.75,-197.4 433.66,-164.82 422.5,-144.6"/>
<polygon fill="#63b8ff" stroke="#63b8ff" points="425.66,-143.08 417.72,-136.06 419.55,-146.5 425.66,-143.08"/>
</a>
</g>
</g>
<!-- Node26 -->
<g id="Node000026" class="node">
<title>Node26</title>
<g id="a_Node000026"><a xlink:title=" ">
<polygon fill="#e0e0e0" stroke="#999999" points="452.78,-247.75 397.78,-247.75 397.78,-227 452.78,-227 452.78,-247.75"/>
<text xml:space="preserve" text-anchor="middle" x="425.28" y="-234.25" font-family="Helvetica,sans-Serif" font-size="10.00">queue.h</text>
</a>
</g>
</g>
<!-- Node6&#45;&gt;Node26 -->
<g id="edge47_Node000006_Node000026" class="edge">
<title>Node6&#45;&gt;Node26</title>
<g id="a_edge47_Node000006_Node000026"><a xlink:title=" ">
<path fill="none" stroke="#63b8ff" d="M471.27,-283.34C463.55,-275.78 452.65,-265.14 443.41,-256.1"/>
<polygon fill="#63b8ff" stroke="#63b8ff" points="445.89,-253.62 436.29,-249.14 440.99,-258.63 445.89,-253.62"/>
</a>
</g>
</g>
<!-- Node10 -->
<g id="Node000010" class="node">
<title>Node10</title>
<g id="a_Node000010"><a xlink:href="pca9555a_8h.html" target="_top" xlink:title=" ">
<polygon fill="white" stroke="#666666" points="1350.28,-77.5 1196.28,-77.5 1196.28,-56.75 1350.28,-56.75 1350.28,-77.5"/>
<text xml:space="preserve" text-anchor="middle" x="1273.28" y="-64" font-family="Helvetica,sans-Serif" font-size="10.00">driver/pca9555a/pca9555a.h</text>
</a>
</g>
</g>
<!-- Node9&#45;&gt;Node10 -->
<g id="edge9_Node000009_Node000010" class="edge">
<title>Node9&#45;&gt;Node10</title>
<g id="a_edge9_Node000009_Node000010"><a xlink:title=" ">
<path fill="none" stroke="#63b8ff" d="M1001.3,-226.59C1024.15,-218.22 1056.98,-205.29 1084.28,-191 1147.4,-157.96 1216.32,-109.78 1250.87,-84.7"/>
<polygon fill="#63b8ff" stroke="#63b8ff" points="1252.83,-87.6 1258.84,-78.87 1248.7,-81.95 1252.83,-87.6"/>
</a>
</g>
</g>
<!-- Node9&#45;&gt;Node12 -->
<g id="edge12_Node000009_Node000012" class="edge">
<title>Node9&#45;&gt;Node12</title>
<g id="a_edge12_Node000009_Node000012"><a xlink:title=" ">
<path fill="none" stroke="#63b8ff" d="M1013.94,-229.1C1018.44,-228.36 1022.95,-227.64 1027.28,-227 1155.75,-207.89 1188.71,-209.37 1317.28,-191 1317.96,-190.9 1318.64,-190.8 1319.33,-190.71"/>
<polygon fill="#63b8ff" stroke="#63b8ff" points="1319.79,-194.18 1329.16,-189.23 1318.75,-187.25 1319.79,-194.18"/>
</a>
</g>
</g>
<!-- Node9&#45;&gt;Node13 -->
<g id="edge13_Node000009_Node000013" class="edge">
<title>Node9&#45;&gt;Node13</title>
<g id="a_edge13_Node000009_Node000013"><a xlink:title=" ">
<path fill="none" stroke="#63b8ff" d="M961.84,-226.59C952.83,-218.88 940.05,-207.95 929.35,-198.79"/>
<polygon fill="#63b8ff" stroke="#63b8ff" points="931.65,-196.15 921.77,-192.31 927.1,-201.47 931.65,-196.15"/>
</a>
</g>
</g>
<!-- Node15 -->
<g id="Node000015" class="node">
<title>Node15</title>
<g id="a_Node000015"><a xlink:title=" ">
<polygon fill="#e0e0e0" stroke="#999999" points="1178.66,-77.5 1119.91,-77.5 1119.91,-56.75 1178.66,-56.75 1178.66,-77.5"/>
<text xml:space="preserve" text-anchor="middle" x="1149.28" y="-64" font-family="Helvetica,sans-Serif" font-size="10.00">fsl_ftm.h</text>
</a>
</g>
</g>
<!-- Node9&#45;&gt;Node15 -->
<g id="edge43_Node000009_Node000015" class="edge">
<title>Node9&#45;&gt;Node15</title>
<g id="a_edge43_Node000009_Node000015"><a xlink:title=" ">
<path fill="none" stroke="#63b8ff" d="M994.28,-226.53C1025.53,-210.93 1084.45,-177.8 1120.28,-134.25 1131.37,-120.77 1138.97,-102.4 1143.61,-88.44"/>
<polygon fill="#63b8ff" stroke="#63b8ff" points="1146.92,-89.58 1146.48,-78.99 1140.22,-87.54 1146.92,-89.58"/>
</a>
</g>
</g>
<!-- Node9&#45;&gt;Node16 -->
<g id="edge44_Node000009_Node000016" class="edge">
<title>Node9&#45;&gt;Node16</title>
<g id="a_edge44_Node000009_Node000016"><a xlink:title=" ">
<path fill="none" stroke="#63b8ff" d="M1007.17,-226.57C1036.14,-217.94 1078.8,-204.65 1115.28,-191 1209.27,-155.82 1317.35,-106.79 1369.27,-82.68"/>
<polygon fill="#63b8ff" stroke="#63b8ff" points="1370.51,-85.97 1378.1,-78.57 1367.56,-79.62 1370.51,-85.97"/>
</a>
</g>
</g>
<!-- Node17 -->
<g id="Node000017" class="node">
<title>Node17</title>
<g id="a_Node000017"><a xlink:title=" ">
<polygon fill="#e0e0e0" stroke="#999999" points="923.16,-77.5 861.41,-77.5 861.41,-56.75 923.16,-56.75 923.16,-77.5"/>
<text xml:space="preserve" text-anchor="middle" x="892.28" y="-64" font-family="Helvetica,sans-Serif" font-size="10.00">fsl_port.h</text>
</a>
</g>
</g>
<!-- Node9&#45;&gt;Node17 -->
<g id="edge45_Node000009_Node000017" class="edge">
<title>Node9&#45;&gt;Node17</title>
<g id="a_edge45_Node000009_Node000017"><a xlink:title=" ">
<path fill="none" stroke="#63b8ff" d="M971.44,-226.51C967.06,-204.81 954.64,-151.8 931.28,-113.5 925.31,-103.71 917.23,-93.92 909.98,-85.95"/>
<polygon fill="#63b8ff" stroke="#63b8ff" points="912.75,-83.79 903.33,-78.93 907.66,-88.6 912.75,-83.79"/>
</a>
</g>
</g>
<!-- Node23 -->
<g id="Node000023" class="node">
<title>Node23</title>
<g id="a_Node000023"><a xlink:href="tmc2209__core_8h.html" target="_top" xlink:title=" ">
<polygon fill="white" stroke="#666666" points="763.28,-191 669.28,-191 669.28,-170.25 763.28,-170.25 763.28,-191"/>
<text xml:space="preserve" text-anchor="middle" x="716.28" y="-177.5" font-family="Helvetica,sans-Serif" font-size="10.00">tmc2209_core.h</text>
</a>
</g>
</g>
<!-- Node9&#45;&gt;Node23 -->
<g id="edge35_Node000009_Node000023" class="edge">
<title>Node9&#45;&gt;Node23</title>
<g id="a_edge35_Node000009_Node000023"><a xlink:title=" ">
<path fill="none" stroke="#63b8ff" d="M932.56,-227.7C889.71,-218.57 821.92,-204.13 773.67,-193.85"/>
<polygon fill="#63b8ff" stroke="#63b8ff" points="774.45,-190.44 763.94,-191.78 772.99,-197.28 774.45,-190.44"/>
</a>
</g>
</g>
<!-- Node10&#45;&gt;Node4 -->
<g id="edge10_Node000010_Node000004" class="edge">
<title>Node10&#45;&gt;Node4</title>
<g id="a_edge10_Node000010_Node000004"><a xlink:title=" ">
<path fill="none" stroke="#63b8ff" d="M1195.93,-57.68C1193.01,-57.37 1190.12,-57.05 1187.28,-56.75 1051.84,-42.22 892.35,-25.49 810.96,-16.98"/>
<polygon fill="#63b8ff" stroke="#63b8ff" points="811.82,-13.55 801.51,-15.99 811.1,-20.51 811.82,-13.55"/>
</a>
</g>
</g>
<!-- Node11 -->
<g id="Node000011" class="node">
<title>Node11</title>
<g id="a_Node000011"><a xlink:title=" ">
<polygon fill="#e0e0e0" stroke="#999999" points="1313.16,-20.75 1233.41,-20.75 1233.41,0 1313.16,0 1313.16,-20.75"/>
<text xml:space="preserve" text-anchor="middle" x="1273.28" y="-7.25" font-family="Helvetica,sans-Serif" font-size="10.00">peripherals.h</text>
</a>
</g>
</g>
<!-- Node10&#45;&gt;Node11 -->
<g id="edge11_Node000010_Node000011" class="edge">
<title>Node10&#45;&gt;Node11</title>
<g id="a_edge11_Node000010_Node000011"><a xlink:title=" ">
<path fill="none" stroke="#63b8ff" d="M1273.28,-56.34C1273.28,-49.72 1273.28,-40.72 1273.28,-32.52"/>
<polygon fill="#63b8ff" stroke="#63b8ff" points="1276.78,-32.59 1273.28,-22.59 1269.78,-32.59 1276.78,-32.59"/>
</a>
</g>
</g>
<!-- Node13&#45;&gt;Node3 -->
<g id="edge15_Node000013_Node000003" class="edge">
<title>Node13&#45;&gt;Node3</title>
<g id="a_edge15_Node000013_Node000003"><a xlink:title=" ">
<path fill="none" stroke="#63b8ff" d="M873.04,-177.01C754.58,-168.4 385.01,-141.15 360.28,-134.25 320.11,-123.05 277.62,-99.61 251.77,-83.87"/>
<polygon fill="#63b8ff" stroke="#63b8ff" points="253.71,-80.95 243.37,-78.65 250.01,-86.9 253.71,-80.95"/>
</a>
</g>
</g>
<!-- Node13&#45;&gt;Node4 -->
<g id="edge17_Node000013_Node000004" class="edge">
<title>Node13&#45;&gt;Node4</title>
<g id="a_edge17_Node000013_Node000004"><a xlink:title=" ">
<path fill="none" stroke="#63b8ff" d="M895.39,-170.02C883.34,-161.37 865.78,-147.94 852.28,-134.25 819.15,-100.65 786.92,-55.57 769.85,-30.4"/>
<polygon fill="#63b8ff" stroke="#63b8ff" points="772.81,-28.54 764.34,-22.19 767,-32.44 772.81,-28.54"/>
</a>
</g>
</g>
<!-- Node13&#45;&gt;Node10 -->
<g id="edge14_Node000013_Node000010" class="edge">
<title>Node13&#45;&gt;Node10</title>
<g id="a_edge14_Node000013_Node000010"><a xlink:title=" ">
<path fill="none" stroke="#63b8ff" d="M945.69,-174.03C988.2,-166.99 1060.33,-153.45 1120.28,-134.25 1143.86,-126.7 1204.27,-99.7 1241.75,-82.63"/>
<polygon fill="#63b8ff" stroke="#63b8ff" points="1243.1,-85.86 1250.74,-78.52 1240.19,-79.49 1243.1,-85.86"/>
</a>
</g>
</g>
<!-- Node14 -->
<g id="Node000014" class="node">
<title>Node14</title>
<g id="a_Node000014"><a xlink:title=" ">
<polygon fill="#e0e0e0" stroke="#999999" points="907.28,-134.25 861.28,-134.25 861.28,-113.5 907.28,-113.5 907.28,-134.25"/>
<text xml:space="preserve" text-anchor="middle" x="884.28" y="-120.75" font-family="Helvetica,sans-Serif" font-size="10.00">task.h</text>
</a>
</g>
</g>
<!-- Node13&#45;&gt;Node14 -->
<g id="edge16_Node000013_Node000014" class="edge">
<title>Node13&#45;&gt;Node14</title>
<g id="a_edge16_Node000013_Node000014"><a xlink:title=" ">
<path fill="none" stroke="#63b8ff" d="M904.81,-169.84C901.65,-162.91 897.29,-153.37 893.41,-144.86"/>
<polygon fill="#63b8ff" stroke="#63b8ff" points="896.68,-143.6 889.34,-135.96 890.31,-146.51 896.68,-143.6"/>
</a>
</g>
</g>
<!-- Node13&#45;&gt;Node15 -->
<g id="edge18_Node000013_Node000015" class="edge">
<title>Node13&#45;&gt;Node15</title>
<g id="a_edge18_Node000013_Node000015"><a xlink:title=" ">
<path fill="none" stroke="#63b8ff" d="M945.61,-177.43C984.92,-173.6 1048.15,-163.09 1094.28,-134.25 1113,-122.54 1128.45,-102.3 1138.16,-87.28"/>
<polygon fill="#63b8ff" stroke="#63b8ff" points="1140.88,-89.54 1143.14,-79.18 1134.92,-85.87 1140.88,-89.54"/>
</a>
</g>
</g>
<!-- Node13&#45;&gt;Node16 -->
<g id="edge19_Node000013_Node000016" class="edge">
<title>Node13&#45;&gt;Node16</title>
<g id="a_edge19_Node000013_Node000016"><a xlink:title=" ">
<path fill="none" stroke="#63b8ff" d="M945.77,-173.99C994.47,-166.24 1083.3,-151.29 1158.28,-134.25 1228.66,-118.25 1309.33,-95.26 1357.47,-81.03"/>
<polygon fill="#63b8ff" stroke="#63b8ff" points="1358.36,-84.42 1366.95,-78.21 1356.37,-77.71 1358.36,-84.42"/>
</a>
</g>
</g>
<!-- Node13&#45;&gt;Node17 -->
<g id="edge20_Node000013_Node000017" class="edge">
<title>Node13&#45;&gt;Node17</title>
<g id="a_edge20_Node000013_Node000017"><a xlink:title=" ">
<path fill="none" stroke="#63b8ff" d="M912.34,-170.07C916.03,-157.08 921.18,-133.22 916.28,-113.5 914.06,-104.56 909.73,-95.45 905.34,-87.76"/>
<polygon fill="#63b8ff" stroke="#63b8ff" points="908.35,-85.96 900.12,-79.29 902.39,-89.64 908.35,-85.96"/>
</a>
</g>
</g>
<!-- Node13&#45;&gt;Node18 -->
<g id="edge21_Node000013_Node000018" class="edge">
<title>Node13&#45;&gt;Node18</title>
<g id="a_edge21_Node000013_Node000018"><a xlink:title=" ">
<path fill="none" stroke="#63b8ff" d="M872.66,-175.6C785.82,-166.05 567.07,-142 465.13,-130.79"/>
<polygon fill="#63b8ff" stroke="#63b8ff" points="465.7,-127.34 455.38,-129.72 464.94,-134.29 465.7,-127.34"/>
</a>
</g>
</g>
<!-- Node21 -->
<g id="Node000021" class="node">
<title>Node21</title>
<g id="a_Node000021"><a xlink:href="step__shared_8h.html" target="_top" xlink:title=" ">
<polygon fill="white" stroke="#666666" points="1085.41,-134.25 1001.16,-134.25 1001.16,-113.5 1085.41,-113.5 1085.41,-134.25"/>
<text xml:space="preserve" text-anchor="middle" x="1043.28" y="-120.75" font-family="Helvetica,sans-Serif" font-size="10.00">step_shared.h</text>
</a>
</g>
</g>
<!-- Node13&#45;&gt;Node21 -->
<g id="edge27_Node000013_Node000021" class="edge">
<title>Node13&#45;&gt;Node21</title>
<g id="a_edge27_Node000013_Node000021"><a xlink:title=" ">
<path fill="none" stroke="#63b8ff" d="M933.24,-169.84C954.29,-161.23 985.19,-148.61 1008.88,-138.93"/>
<polygon fill="#63b8ff" stroke="#63b8ff" points="1010.2,-142.17 1018.13,-135.15 1007.55,-135.69 1010.2,-142.17"/>
</a>
</g>
</g>
<!-- Node18&#45;&gt;Node3 -->
<g id="edge23_Node000018_Node000003" class="edge">
<title>Node18&#45;&gt;Node3</title>
<g id="a_edge23_Node000018_Node000003"><a xlink:title=" ">
<path fill="none" stroke="#63b8ff" d="M378.39,-113.09C348.39,-104.16 303.85,-90.91 270.9,-81.1"/>
<polygon fill="#63b8ff" stroke="#63b8ff" points="272.24,-77.85 261.65,-78.35 270.24,-84.56 272.24,-77.85"/>
</a>
</g>
</g>
<!-- Node18&#45;&gt;Node4 -->
<g id="edge25_Node000018_Node000004" class="edge">
<title>Node18&#45;&gt;Node4</title>
<g id="a_edge25_Node000018_Node000004"><a xlink:title=" ">
<path fill="none" stroke="#63b8ff" d="M411.65,-113.01C412.78,-98.29 417.19,-70.79 434.28,-56.75 474.26,-23.9 621.78,-14.83 702.92,-12.33"/>
<polygon fill="#63b8ff" stroke="#63b8ff" points="702.97,-15.83 712.87,-12.04 702.78,-8.83 702.97,-15.83"/>
</a>
</g>
</g>
<!-- Node18&#45;&gt;Node7 -->
<g id="edge22_Node000018_Node000007" class="edge">
<title>Node18&#45;&gt;Node7</title>
<g id="a_edge22_Node000018_Node000007"><a xlink:title=" ">
<path fill="none" stroke="#63b8ff" d="M437.38,-113.09C460.64,-104.37 494.9,-91.52 520.85,-81.79"/>
<polygon fill="#63b8ff" stroke="#63b8ff" points="521.85,-85.15 529.99,-78.36 519.4,-78.59 521.85,-85.15"/>
</a>
</g>
</g>
<!-- Node19 -->
<g id="Node000019" class="node">
<title>Node19</title>
<g id="a_Node000019"><a xlink:title=" ">
<polygon fill="#e0e0e0" stroke="#999999" points="386.78,-77.5 295.78,-77.5 295.78,-56.75 386.78,-56.75 386.78,-77.5"/>
<text xml:space="preserve" text-anchor="middle" x="341.28" y="-64" font-family="Helvetica,sans-Serif" font-size="10.00">event_groups.h</text>
</a>
</g>
</g>
<!-- Node18&#45;&gt;Node19 -->
<g id="edge24_Node000018_Node000019" class="edge">
<title>Node18&#45;&gt;Node19</title>
<g id="a_edge24_Node000018_Node000019"><a xlink:title=" ">
<path fill="none" stroke="#63b8ff" d="M398.77,-113.09C388.71,-105.22 374.37,-94 362.52,-84.74"/>
<polygon fill="#63b8ff" stroke="#63b8ff" points="364.91,-82.16 354.88,-78.76 360.6,-87.68 364.91,-82.16"/>
</a>
</g>
</g>
<!-- Node20 -->
<g id="Node000020" class="node">
<title>Node20</title>
<g id="a_Node000020"><a xlink:title=" ">
<polygon fill="#e0e0e0" stroke="#999999" points="495.28,-77.5 443.28,-77.5 443.28,-56.75 495.28,-56.75 495.28,-77.5"/>
<text xml:space="preserve" text-anchor="middle" x="469.28" y="-64" font-family="Helvetica,sans-Serif" font-size="10.00">stdlib.h</text>
</a>
</g>
</g>
<!-- Node18&#45;&gt;Node20 -->
<g id="edge26_Node000018_Node000020" class="edge">
<title>Node18&#45;&gt;Node20</title>
<g id="a_edge26_Node000018_Node000020"><a xlink:title=" ">
<path fill="none" stroke="#63b8ff" d="M421.65,-113.09C429.73,-105.46 441.17,-94.67 450.8,-85.57"/>
<polygon fill="#63b8ff" stroke="#63b8ff" points="453.03,-88.28 457.9,-78.87 448.23,-83.19 453.03,-88.28"/>
</a>
</g>
</g>
<!-- Node21&#45;&gt;Node4 -->
<g id="edge31_Node000021_Node000004" class="edge">
<title>Node21&#45;&gt;Node4</title>
<g id="a_edge31_Node000021_Node000004"><a xlink:title=" ">
<path fill="none" stroke="#63b8ff" d="M1027.36,-113.05C999.09,-95.65 942.17,-60.88 932.28,-56.75 893.08,-40.38 846.41,-28.64 811.13,-21.2"/>
<polygon fill="#63b8ff" stroke="#63b8ff" points="812.08,-17.83 801.58,-19.25 810.67,-24.68 812.08,-17.83"/>
</a>
</g>
</g>
<!-- Node21&#45;&gt;Node7 -->
<g id="edge28_Node000021_Node000007" class="edge">
<title>Node21&#45;&gt;Node7</title>
<g id="a_edge28_Node000021_Node000007"><a xlink:title=" ">
<path fill="none" stroke="#63b8ff" d="M1000.87,-119.21C923.75,-112.35 755.49,-96.56 614.28,-77.5 608.07,-76.66 601.49,-75.67 595.1,-74.66"/>
<polygon fill="#63b8ff" stroke="#63b8ff" points="595.84,-71.23 585.41,-73.08 594.71,-78.14 595.84,-71.23"/>
</a>
</g>
</g>
<!-- Node21&#45;&gt;Node10 -->
<g id="edge29_Node000021_Node000010" class="edge">
<title>Node21&#45;&gt;Node10</title>
<g id="a_edge29_Node000021_Node000010"><a xlink:title=" ">
<path fill="none" stroke="#63b8ff" d="M1084.67,-113.02C1122.81,-103.94 1179.61,-90.42 1220.9,-80.59"/>
<polygon fill="#63b8ff" stroke="#63b8ff" points="1221.45,-84.06 1230.37,-78.34 1219.83,-77.25 1221.45,-84.06"/>
</a>
</g>
</g>
<!-- Node21&#45;&gt;Node15 -->
<g id="edge32_Node000021_Node000015" class="edge">
<title>Node21&#45;&gt;Node15</title>
<g id="a_edge32_Node000021_Node000015"><a xlink:title=" ">
<path fill="none" stroke="#63b8ff" d="M1062.23,-113.09C1078.36,-104.76 1101.79,-92.66 1120.27,-83.11"/>
<polygon fill="#63b8ff" stroke="#63b8ff" points="1121.87,-86.22 1129.15,-78.52 1118.66,-80 1121.87,-86.22"/>
</a>
</g>
</g>
<!-- Node21&#45;&gt;Node16 -->
<g id="edge33_Node000021_Node000016" class="edge">
<title>Node21&#45;&gt;Node16</title>
<g id="a_edge33_Node000021_Node000016"><a xlink:title=" ">
<path fill="none" stroke="#63b8ff" d="M1085.89,-117.89C1144.62,-110.76 1253.98,-96.61 1357.29,-77.73"/>
<polygon fill="#63b8ff" stroke="#63b8ff" points="1357.87,-81.19 1367.06,-75.93 1356.59,-74.3 1357.87,-81.19"/>
</a>
</g>
</g>
<!-- Node21&#45;&gt;Node17 -->
<g id="edge34_Node000021_Node000017" class="edge">
<title>Node21&#45;&gt;Node17</title>
<g id="a_edge34_Node000021_Node000017"><a xlink:title=" ">
<path fill="none" stroke="#63b8ff" d="M1016.29,-113.09C992.2,-104.36 956.7,-91.48 929.85,-81.75"/>
<polygon fill="#63b8ff" stroke="#63b8ff" points="931.31,-78.55 920.72,-78.44 928.93,-85.14 931.31,-78.55"/>
</a>
</g>
</g>
<!-- Node22 -->
<g id="Node000022" class="node">
<title>Node22</title>
<g id="a_Node000022"><a xlink:title=" ">
<polygon fill="#e0e0e0" stroke="#999999" points="1101.53,-77.5 979.03,-77.5 979.03,-56.75 1101.53,-56.75 1101.53,-77.5"/>
<text xml:space="preserve" text-anchor="middle" x="1040.28" y="-64" font-family="Helvetica,sans-Serif" font-size="10.00">fsl_device_registers.h</text>
</a>
</g>
</g>
<!-- Node21&#45;&gt;Node22 -->
<g id="edge30_Node000021_Node000022" class="edge">
<title>Node21&#45;&gt;Node22</title>
<g id="a_edge30_Node000021_Node000022"><a xlink:title=" ">
<path fill="none" stroke="#63b8ff" d="M1042.75,-113.09C1042.38,-106.47 1041.89,-97.47 1041.44,-89.27"/>
<polygon fill="#63b8ff" stroke="#63b8ff" points="1044.94,-89.13 1040.9,-79.34 1037.95,-89.52 1044.94,-89.13"/>
</a>
</g>
</g>
<!-- Node23&#45;&gt;Node4 -->
<g id="edge40_Node000023_Node000004" class="edge">
<title>Node23&#45;&gt;Node4</title>
<g id="a_edge40_Node000023_Node000004"><a xlink:title=" ">
<path fill="none" stroke="#63b8ff" d="M722.06,-169.88C727.12,-160.93 734.27,-147.12 738.28,-134.25 749.12,-99.51 753.92,-57.23 755.94,-32.41"/>
<polygon fill="#63b8ff" stroke="#63b8ff" points="759.41,-32.89 756.65,-22.67 752.43,-32.39 759.41,-32.89"/>
</a>
</g>
</g>
<!-- Node23&#45;&gt;Node7 -->
<g id="edge36_Node000023_Node000007" class="edge">
<title>Node23&#45;&gt;Node7</title>
<g id="a_edge36_Node000023_Node000007"><a xlink:title=" ">
<path fill="none" stroke="#63b8ff" d="M684.93,-169.76C663.71,-162.14 635.75,-150.2 614.28,-134.25 596.49,-121.03 580.42,-101.33 569.92,-86.88"/>
<polygon fill="#63b8ff" stroke="#63b8ff" points="573.06,-85.26 564.45,-79.09 567.33,-89.28 573.06,-85.26"/>
</a>
</g>
</g>
<!-- Node23&#45;&gt;Node11 -->
<g id="edge42_Node000023_Node000011" class="edge">
<title>Node23&#45;&gt;Node11</title>
<g id="a_edge42_Node000023_Node000011"><a xlink:title=" ">
<path fill="none" stroke="#63b8ff" d="M725.28,-170.09C750.49,-143.64 821.93,-70.34 852.28,-56.75 917.16,-27.7 1124.27,-16.64 1221.69,-12.98"/>
<polygon fill="#63b8ff" stroke="#63b8ff" points="1221.63,-16.48 1231.5,-12.62 1221.38,-9.49 1221.63,-16.48"/>
</a>
</g>
</g>
<!-- Node23&#45;&gt;Node18 -->
<g id="edge41_Node000023_Node000018" class="edge">
<title>Node23&#45;&gt;Node18</title>
<g id="a_edge41_Node000023_Node000018"><a xlink:title=" ">
<path fill="none" stroke="#63b8ff" d="M668.96,-171.13C613.74,-161.22 522.66,-144.87 464.88,-134.5"/>
<polygon fill="#63b8ff" stroke="#63b8ff" points="465.74,-131.1 455.28,-132.77 464.5,-137.99 465.74,-131.1"/>
</a>
</g>
</g>
<!-- Node24 -->
<g id="Node000024" class="node">
<title>Node24</title>
<g id="a_Node000024"><a xlink:href="tmc2209__shared_8h.html" target="_top" xlink:title=" ">
<polygon fill="white" stroke="#666666" points="729.28,-134.25 623.28,-134.25 623.28,-113.5 729.28,-113.5 729.28,-134.25"/>
<text xml:space="preserve" text-anchor="middle" x="676.28" y="-120.75" font-family="Helvetica,sans-Serif" font-size="10.00">tmc2209_shared.h</text>
</a>
</g>
</g>
<!-- Node23&#45;&gt;Node24 -->
<g id="edge37_Node000023_Node000024" class="edge">
<title>Node23&#45;&gt;Node24</title>
<g id="a_edge37_Node000023_Node000024"><a xlink:title=" ">
<path fill="none" stroke="#63b8ff" d="M709.13,-169.84C703.84,-162.6 696.47,-152.51 690.05,-143.72"/>
<polygon fill="#63b8ff" stroke="#63b8ff" points="692.99,-141.81 684.26,-135.8 687.34,-145.94 692.99,-141.81"/>
</a>
</g>
</g>
<!-- Node24&#45;&gt;Node7 -->
<g id="edge38_Node000024_Node000007" class="edge">
<title>Node24&#45;&gt;Node7</title>
<g id="a_edge38_Node000024_Node000007"><a xlink:title=" ">
<path fill="none" stroke="#63b8ff" d="M655.01,-113.09C636.56,-104.6 609.62,-92.2 588.69,-82.58"/>
<polygon fill="#63b8ff" stroke="#63b8ff" points="590.29,-79.46 579.75,-78.46 587.37,-85.82 590.29,-79.46"/>
</a>
</g>
</g>
<!-- Node25 -->
<g id="Node000025" class="node">
<title>Node25</title>
<g id="a_Node000025"><a xlink:title=" ">
<polygon fill="#e0e0e0" stroke="#999999" points="728.91,-77.5 623.66,-77.5 623.66,-56.75 728.91,-56.75 728.91,-77.5"/>
<text xml:space="preserve" text-anchor="middle" x="676.28" y="-64" font-family="Helvetica,sans-Serif" font-size="10.00">fsl_uart_freertos.h</text>
</a>
</g>
</g>
<!-- Node24&#45;&gt;Node25 -->
<g id="edge39_Node000024_Node000025" class="edge">
<title>Node24&#45;&gt;Node25</title>
<g id="a_edge39_Node000024_Node000025"><a xlink:title=" ">
<path fill="none" stroke="#63b8ff" d="M676.28,-113.09C676.28,-106.47 676.28,-97.47 676.28,-89.27"/>
<polygon fill="#63b8ff" stroke="#63b8ff" points="679.78,-89.34 676.28,-79.34 672.78,-89.34 679.78,-89.34"/>
</a>
</g>
</g>
<!-- Node29&#45;&gt;Node7 -->
<g id="edge57_Node000029_Node000007" class="edge">
<title>Node29&#45;&gt;Node7</title>
<g id="a_edge57_Node000029_Node000007"><a xlink:title=" ">
<path fill="none" stroke="#63b8ff" d="M773.94,-283.32C736.01,-261.15 644.67,-203.64 589.28,-134.25 578.22,-120.39 569.73,-102.07 564.29,-88.24"/>
<polygon fill="#63b8ff" stroke="#63b8ff" points="567.72,-87.44 560.97,-79.28 561.16,-89.87 567.72,-87.44"/>
</a>
</g>
</g>
<!-- Node29&#45;&gt;Node9 -->
<g id="edge58_Node000029_Node000009" class="edge">
<title>Node29&#45;&gt;Node9</title>
<g id="a_edge58_Node000029_Node000009"><a xlink:title=" ">
<path fill="none" stroke="#63b8ff" d="M823.82,-283.34C853.36,-274.45 897.16,-261.27 929.71,-251.48"/>
<polygon fill="#63b8ff" stroke="#63b8ff" points="930.7,-254.84 939.27,-248.61 928.69,-248.14 930.7,-254.84"/>
</a>
</g>
</g>
<!-- Node30&#45;&gt;Node3 -->
<g id="edge61_Node000030_Node000003" class="edge">
<title>Node30&#45;&gt;Node3</title>
<g id="a_edge61_Node000030_Node000003"><a xlink:title=" ">
<path fill="none" stroke="#63b8ff" d="M317.84,-170.12C301.41,-151.61 264.88,-110.47 243.58,-86.48"/>
<polygon fill="#63b8ff" stroke="#63b8ff" points="246.24,-84.21 236.99,-79.06 241.01,-88.86 246.24,-84.21"/>
</a>
</g>
</g>
<!-- Node30&#45;&gt;Node4 -->
<g id="edge63_Node000030_Node000004" class="edge">
<title>Node30&#45;&gt;Node4</title>
<g id="a_edge63_Node000030_Node000004"><a xlink:title=" ">
<path fill="none" stroke="#63b8ff" d="M288.96,-180.19C212.21,-180.48 40.8,-176.28 4.28,-134.25 -1.77,-127.29 -0.75,-121.23 4.28,-113.5 38.22,-61.34 71.91,-71.84 132.28,-56.75 239.73,-29.9 571.61,-17.06 702.96,-12.92"/>
<polygon fill="#63b8ff" stroke="#63b8ff" points="702.89,-16.43 712.78,-12.62 702.68,-9.43 702.89,-16.43"/>
</a>
</g>
</g>
<!-- Node30&#45;&gt;Node7 -->
<g id="edge60_Node000030_Node000007" class="edge">
<title>Node30&#45;&gt;Node7</title>
<g id="a_edge60_Node000030_Node000007"><a xlink:title=" ">
<path fill="none" stroke="#63b8ff" d="M363.49,-170.32C391.49,-162.59 430.36,-150.27 462.28,-134.25 489.69,-120.5 518.17,-99.65 536.71,-85.05"/>
<polygon fill="#63b8ff" stroke="#63b8ff" points="538.89,-87.79 544.5,-78.81 534.51,-82.33 538.89,-87.79"/>
</a>
</g>
</g>
<!-- Node30&#45;&gt;Node18 -->
<g id="edge64_Node000030_Node000018" class="edge">
<title>Node30&#45;&gt;Node18</title>
<g id="a_edge64_Node000030_Node000018"><a xlink:title=" ">
<path fill="none" stroke="#63b8ff" d="M341.48,-169.84C354.05,-161.74 372.15,-150.08 386.76,-140.67"/>
<polygon fill="#63b8ff" stroke="#63b8ff" points="388.43,-143.76 394.94,-135.4 384.64,-137.87 388.43,-143.76"/>
</a>
</g>
</g>
<!-- Node30&#45;&gt;Node19 -->
<g id="edge62_Node000030_Node000019" class="edge">
<title>Node30&#45;&gt;Node19</title>
<g id="a_edge62_Node000030_Node000019"><a xlink:title=" ">
<path fill="none" stroke="#63b8ff" d="M327.56,-170.12C329.96,-152.27 335.2,-113.36 338.46,-89.09"/>
<polygon fill="#63b8ff" stroke="#63b8ff" points="341.9,-89.8 339.76,-79.43 334.96,-88.87 341.9,-89.8"/>
</a>
</g>
</g>
<!-- Node31&#45;&gt;Node9 -->
<g id="edge68_Node000031_Node000009" class="edge">
<title>Node31&#45;&gt;Node9</title>
<g id="a_edge68_Node000031_Node000009"><a xlink:title=" ">
<path fill="none" stroke="#63b8ff" d="M1206.93,-283.9C1156.51,-274.08 1076.97,-258.58 1024.95,-248.44"/>
<polygon fill="#63b8ff" stroke="#63b8ff" points="1025.94,-245.07 1015.46,-246.59 1024.6,-251.94 1025.94,-245.07"/>
</a>
</g>
</g>
<!-- Node31&#45;&gt;Node11 -->
<g id="edge69_Node000031_Node000011" class="edge">
<title>Node31&#45;&gt;Node11</title>
<g id="a_edge69_Node000031_Node000011"><a xlink:title=" ">
<path fill="none" stroke="#63b8ff" d="M1288.64,-283.31C1329.34,-269.73 1395.7,-241.05 1428.28,-191 1455.98,-148.45 1438.39,-128.19 1441.28,-77.5 1441.81,-68.29 1446.89,-64.07 1441.28,-56.75 1427.05,-38.16 1368.46,-25.45 1324.44,-18.31"/>
<polygon fill="#63b8ff" stroke="#63b8ff" points="1325.24,-14.89 1314.82,-16.8 1324.16,-21.81 1325.24,-14.89"/>
</a>
</g>
</g>
<!-- Node31&#45;&gt;Node12 -->
<g id="edge67_Node000031_Node000012" class="edge">
<title>Node31&#45;&gt;Node12</title>
<g id="a_edge67_Node000031_Node000012"><a xlink:title=" ">
<path fill="none" stroke="#63b8ff" d="M1264.6,-283.62C1284.95,-264.87 1330.51,-222.88 1356.39,-199.03"/>
<polygon fill="#63b8ff" stroke="#63b8ff" points="1358.55,-201.8 1363.53,-192.45 1353.81,-196.65 1358.55,-201.8"/>
</a>
</g>
</g>
</g>
</svg>

<g id="navigator" transform="translate(0 0)" fill="#404254">
  <rect fill="#f2f5e9" fill-opacity="0.5" stroke="#606060" stroke-width=".5" x="0" y="0" width="60" height="60"/>
  <use id="zoomplus" xlink:href="#zoomPlus" x="17" y="9" onmousedown="handleZoom(evt,'in')"/>
  <use id="zoomminus" xlink:href="#zoomMin" x="42" y="9" onmousedown="handleZoom(evt,'out')"/>
  <use id="reset" xlink:href="#resetDef" x="30" y="36" onmousedown="handleReset()"/>
   <use id="arrowup" xlink:href="#arrowUp" x="0" y="0" onmousedown="handlePan(0,-1)"/>
  <use id="arrowright" xlink:href="#arrowRight" x="0" y="0" onmousedown="handlePan(1,0)"/>
  <use id="arrowdown" xlink:href="#arrowDown" x="0" y="0" onmousedown="handlePan(0,1)"/>
  <use id="arrowleft" xlink:href="#arrowLeft" x="0" y="0" onmousedown="handlePan(-1,0)"/>
</g>
<svg viewBox="0 0 15 15" width="100%" height="30px" preserveAspectRatio="xMaxYMin meet">
 <g id="arrow_out" transform="scale(0.3 0.3)">
  <a xlink:href="motor__homing_8c__incl_org.svg" target="_base">
   <rect id="button" ry="5" rx="5" y="6" x="6" height="38" width="38"
        fill="#f2f5e9" fill-opacity="0.5" stroke="#606060" stroke-width="1.0"/>
   <path id="arrow"
     d="M 11.500037,31.436501 C 11.940474,20.09759 22.043105,11.32322 32.158766,21.979434 L 37.068811,17.246167 C 37.068811,17.246167 37.088388,32 37.088388,32 L 22.160133,31.978069 C 22.160133,31.978069 26.997745,27.140456 26.997745,27.140456 C 18.528582,18.264221 13.291696,25.230495 11.500037,31.436501 z"
     style="fill:#404040;"/>
  </a>
 </g>
</svg>

<style type='text/css'>
<![CDATA[
[data-mouse-over-selected='false'] { opacity: 0.7; }
[data-mouse-over-selected='true']  { opacity: 1.0; }
]]>
</style>
<script type="application/ecmascript"><![CDATA[
document.addEventListener('DOMContentLoaded', (event) => {
  highlightEdges();
  highlightAdjacentNodes();
});
]]></script>
</svg>
