<?xml version="1.0" encoding="UTF-8" standalone="no"?>
<!DOCTYPE svg PUBLIC "-//W3C//DTD SVG 1.1//EN"
 "http://www.w3.org/Graphics/SVG/1.1/DTD/svg11.dtd">
<!-- Generated by graphviz version 14.1.4 (0)
 -->
<!-- Title: source/motion/motor/motor_motion.c Pages: 1 -->
<svg width="1319pt" height="439pt"
 viewBox="0.00 0.00 1319.00 439.00" xmlns="http://www.w3.org/2000/svg" xmlns:xlink="http://www.w3.org/1999/xlink">
<g id="graph0" class="graph" transform="scale(1 1) rotate(0) translate(4 434.75)">
<title>source/motion/motor/motor_motion.c</title>
<!-- Node1 -->
<g id="Node000001" class="node">
<title>Node1</title>
<g id="a_Node000001"><a xlink:title=" ">
<polygon fill="#999999" stroke="#666666" points="1147,-430.75 1029,-430.75 1029,-397.25 1147,-397.25 1147,-430.75"/>
<text xml:space="preserve" text-anchor="start" x="1037" y="-417.25" font-family="Helvetica,sans-Serif" font-size="10.00">source/motion/motor</text>
<text xml:space="preserve" text-anchor="middle" x="1088" y="-404.5" font-family="Helvetica,sans-Serif" font-size="10.00">/motor_motion.c</text>
</a>
</g>
</g>
<!-- Node2 -->
<g id="Node000002" class="node">
<title>Node2</title>
<g id="a_Node000002"><a xlink:href="motor__motion_8h.html" target="_top" xlink:title=" ">
<polygon fill="white" stroke="#666666" points="1021,-361.25 927,-361.25 927,-340.5 1021,-340.5 1021,-361.25"/>
<text xml:space="preserve" text-anchor="middle" x="974" y="-347.75" font-family="Helvetica,sans-Serif" font-size="10.00">motor_motion.h</text>
</a>
</g>
</g>
<!-- Node1&#45;&gt;Node2 -->
<g id="edge1_Node000001_Node000002" class="edge">
<title>Node1&#45;&gt;Node2</title>
<g id="a_edge1_Node000001_Node000002"><a xlink:title=" ">
<path fill="none" stroke="#63b8ff" d="M1057.75,-396.78C1040.49,-387.52 1018.99,-376 1002.1,-366.94"/>
<polygon fill="#63b8ff" stroke="#63b8ff" points="1004.06,-364.02 993.59,-362.38 1000.75,-370.19 1004.06,-364.02"/>
</a>
</g>
</g>
<!-- Node9 -->
<g id="Node000009" class="node">
<title>Node9</title>
<g id="a_Node000009"><a xlink:href="step__core_8h.html" target="_top" xlink:title=" ">
<polygon fill="white" stroke="#666666" points="977.12,-191 904.88,-191 904.88,-170.25 977.12,-170.25 977.12,-191"/>
<text xml:space="preserve" text-anchor="middle" x="941" y="-177.5" font-family="Helvetica,sans-Serif" font-size="10.00">step_core.h</text>
</a>
</g>
</g>
<!-- Node1&#45;&gt;Node9 -->
<g id="edge47_Node000001_Node000009" class="edge">
<title>Node1&#45;&gt;Node9</title>
<g id="a_edge47_Node000001_Node000009"><a xlink:title=" ">
<path fill="none" stroke="#63b8ff" d="M1082.84,-397C1071.37,-363.09 1041.22,-282.54 997,-227 988.17,-215.91 976.18,-205.74 965.57,-197.86"/>
<polygon fill="#63b8ff" stroke="#63b8ff" points="967.75,-195.12 957.57,-192.18 963.69,-200.82 967.75,-195.12"/>
</a>
</g>
</g>
<!-- Node25 -->
<g id="Node000025" class="node">
<title>Node25</title>
<g id="a_Node000025"><a xlink:href="motor__convert_8h.html" target="_top" xlink:title=" ">
<polygon fill="white" stroke="#666666" points="867.12,-304.5 770.88,-304.5 770.88,-283.75 867.12,-283.75 867.12,-304.5"/>
<text xml:space="preserve" text-anchor="middle" x="819" y="-291" font-family="Helvetica,sans-Serif" font-size="10.00">motor_convert.h</text>
</a>
</g>
</g>
<!-- Node1&#45;&gt;Node25 -->
<g id="edge41_Node000001_Node000025" class="edge">
<title>Node1&#45;&gt;Node25</title>
<g id="a_edge41_Node000001_Node000025"><a xlink:title=" ">
<path fill="none" stroke="#63b8ff" d="M1028.58,-399.49C995.2,-390.78 953.27,-377.95 918,-361.25 889.37,-347.69 859.53,-326.66 840.2,-311.97"/>
<polygon fill="#63b8ff" stroke="#63b8ff" points="842.35,-309.22 832.3,-305.87 838.07,-314.75 842.35,-309.22"/>
</a>
</g>
</g>
<!-- Node26 -->
<g id="Node000026" class="node">
<title>Node26</title>
<g id="a_Node000026"><a xlink:href="log_8h.html" target="_top" xlink:title=" ">
<polygon fill="white" stroke="#666666" points="1195,-134.25 1155,-134.25 1155,-113.5 1195,-113.5 1195,-134.25"/>
<text xml:space="preserve" text-anchor="middle" x="1175" y="-120.75" font-family="Helvetica,sans-Serif" font-size="10.00">log.h</text>
</a>
</g>
</g>
<!-- Node1&#45;&gt;Node26 -->
<g id="edge43_Node000001_Node000026" class="edge">
<title>Node1&#45;&gt;Node26</title>
<g id="a_edge43_Node000001_Node000026"><a xlink:title=" ">
<path fill="none" stroke="#63b8ff" d="M1107.43,-396.84C1130.24,-375.93 1165,-337.17 1165,-295.12 1165,-295.12 1165,-295.12 1165,-236.38 1165,-204.71 1169.05,-168.19 1172,-145.82"/>
<polygon fill="#63b8ff" stroke="#63b8ff" points="1175.42,-146.58 1173.32,-136.19 1168.49,-145.62 1175.42,-146.58"/>
</a>
</g>
</g>
<!-- Node27 -->
<g id="Node000027" class="node">
<title>Node27</title>
<g id="a_Node000027"><a xlink:title=" ">
<polygon fill="#e0e0e0" stroke="#999999" points="1243.25,-361.25 1192.75,-361.25 1192.75,-340.5 1243.25,-340.5 1243.25,-361.25"/>
<text xml:space="preserve" text-anchor="middle" x="1218" y="-347.75" font-family="Helvetica,sans-Serif" font-size="10.00">math.h</text>
</a>
</g>
</g>
<!-- Node1&#45;&gt;Node27 -->
<g id="edge46_Node000001_Node000027" class="edge">
<title>Node1&#45;&gt;Node27</title>
<g id="a_edge46_Node000001_Node000027"><a xlink:title=" ">
<path fill="none" stroke="#63b8ff" d="M1122.5,-396.78C1142.46,-387.39 1167.39,-375.67 1186.77,-366.56"/>
<polygon fill="#63b8ff" stroke="#63b8ff" points="1188.25,-369.73 1195.81,-362.31 1185.27,-363.4 1188.25,-369.73"/>
</a>
</g>
</g>
<!-- Node28 -->
<g id="Node000028" class="node">
<title>Node28</title>
<g id="a_Node000028"><a xlink:title=" ">
<polygon fill="#e0e0e0" stroke="#999999" points="1310.5,-361.25 1261.5,-361.25 1261.5,-340.5 1310.5,-340.5 1310.5,-361.25"/>
<text xml:space="preserve" text-anchor="middle" x="1286" y="-347.75" font-family="Helvetica,sans-Serif" font-size="10.00">stdio.h</text>
</a>
</g>
</g>
<!-- Node1&#45;&gt;Node28 -->
<g id="edge48_Node000001_Node000028" class="edge">
<title>Node1&#45;&gt;Node28</title>
<g id="a_edge48_Node000001_Node000028"><a xlink:title=" ">
<path fill="none" stroke="#63b8ff" d="M1140.54,-396.78C1175.18,-386.09 1219.64,-372.36 1250.24,-362.92"/>
<polygon fill="#63b8ff" stroke="#63b8ff" points="1251.27,-366.26 1259.79,-359.97 1249.2,-359.57 1251.27,-366.26"/>
</a>
</g>
</g>
<!-- Node3 -->
<g id="Node000003" class="node">
<title>Node3</title>
<g id="a_Node000003"><a xlink:href="motor__internal_8h.html" target="_top" xlink:title=" ">
<polygon fill="white" stroke="#666666" points="1008.5,-304.5 911.5,-304.5 911.5,-283.75 1008.5,-283.75 1008.5,-304.5"/>
<text xml:space="preserve" text-anchor="middle" x="960" y="-291" font-family="Helvetica,sans-Serif" font-size="10.00">motor_internal.h</text>
</a>
</g>
</g>
<!-- Node2&#45;&gt;Node3 -->
<g id="edge2_Node000002_Node000003" class="edge">
<title>Node2&#45;&gt;Node3</title>
<g id="a_edge2_Node000002_Node000003"><a xlink:title=" ">
<path fill="none" stroke="#63b8ff" d="M971.5,-340.09C969.78,-333.39 967.45,-324.26 965.33,-315.98"/>
<polygon fill="#63b8ff" stroke="#63b8ff" points="968.72,-315.12 962.86,-306.29 961.94,-316.85 968.72,-315.12"/>
</a>
</g>
</g>
<!-- Node4 -->
<g id="Node000004" class="node">
<title>Node4</title>
<g id="a_Node000004"><a xlink:href="motor__core_8h.html" target="_top" xlink:title=" ">
<polygon fill="white" stroke="#666666" points="845.25,-247.75 764.75,-247.75 764.75,-227 845.25,-227 845.25,-247.75"/>
<text xml:space="preserve" text-anchor="middle" x="805" y="-234.25" font-family="Helvetica,sans-Serif" font-size="10.00">motor_core.h</text>
</a>
</g>
</g>
<!-- Node3&#45;&gt;Node4 -->
<g id="edge3_Node000003_Node000004" class="edge">
<title>Node3&#45;&gt;Node4</title>
<g id="a_edge3_Node000003_Node000004"><a xlink:title=" ">
<path fill="none" stroke="#63b8ff" d="M932.29,-283.34C907.57,-274.61 871.13,-261.73 843.57,-252"/>
<polygon fill="#63b8ff" stroke="#63b8ff" points="844.75,-248.71 834.16,-248.67 842.42,-255.31 844.75,-248.71"/>
</a>
</g>
</g>
<!-- Node10 -->
<g id="Node000010" class="node">
<title>Node10</title>
<g id="a_Node000010"><a xlink:title=" ">
<polygon fill="#e0e0e0" stroke="#999999" points="1185.75,-77.5 1114.25,-77.5 1114.25,-56.75 1185.75,-56.75 1185.75,-77.5"/>
<text xml:space="preserve" text-anchor="middle" x="1150" y="-64" font-family="Helvetica,sans-Serif" font-size="10.00">FreeRTOS.h</text>
</a>
</g>
</g>
<!-- Node3&#45;&gt;Node10 -->
<g id="edge38_Node000003_Node000010" class="edge">
<title>Node3&#45;&gt;Node10</title>
<g id="a_edge38_Node000003_Node000010"><a xlink:title=" ">
<path fill="none" stroke="#63b8ff" d="M968.16,-283.46C997.28,-248.98 1096.3,-131.72 1134.65,-86.3"/>
<polygon fill="#63b8ff" stroke="#63b8ff" points="1137.11,-88.81 1140.89,-78.91 1131.76,-84.3 1137.11,-88.81"/>
</a>
</g>
</g>
<!-- Node15 -->
<g id="Node000015" class="node">
<title>Node15</title>
<g id="a_Node000015"><a xlink:href="cmd__handle_8h.html" target="_top" xlink:title=" ">
<polygon fill="white" stroke="#666666" points="465.12,-134.25 380.88,-134.25 380.88,-113.5 465.12,-113.5 465.12,-134.25"/>
<text xml:space="preserve" text-anchor="middle" x="423" y="-120.75" font-family="Helvetica,sans-Serif" font-size="10.00">cmd_handle.h</text>
</a>
</g>
</g>
<!-- Node3&#45;&gt;Node15 -->
<g id="edge40_Node000003_Node000015" class="edge">
<title>Node3&#45;&gt;Node15</title>
<g id="a_edge40_Node000003_Node000015"><a xlink:title=" ">
<path fill="none" stroke="#63b8ff" d="M952.25,-283.39C929.56,-254.94 864.45,-173.7 858,-170.25 793.27,-135.64 578.19,-127.43 476.78,-125.48"/>
<polygon fill="#63b8ff" stroke="#63b8ff" points="476.86,-121.98 466.8,-125.3 476.74,-128.98 476.86,-121.98"/>
</a>
</g>
</g>
<!-- Node24 -->
<g id="Node000024" class="node">
<title>Node24</title>
<g id="a_Node000024"><a xlink:title=" ">
<polygon fill="#e0e0e0" stroke="#999999" points="987.5,-247.75 932.5,-247.75 932.5,-227 987.5,-227 987.5,-247.75"/>
<text xml:space="preserve" text-anchor="middle" x="960" y="-234.25" font-family="Helvetica,sans-Serif" font-size="10.00">queue.h</text>
</a>
</g>
</g>
<!-- Node3&#45;&gt;Node24 -->
<g id="edge39_Node000003_Node000024" class="edge">
<title>Node3&#45;&gt;Node24</title>
<g id="a_edge39_Node000003_Node000024"><a xlink:title=" ">
<path fill="none" stroke="#63b8ff" d="M960,-283.34C960,-276.72 960,-267.72 960,-259.52"/>
<polygon fill="#63b8ff" stroke="#63b8ff" points="963.5,-259.59 960,-249.59 956.5,-259.59 963.5,-259.59"/>
</a>
</g>
</g>
<!-- Node5 -->
<g id="Node000005" class="node">
<title>Node5</title>
<g id="a_Node000005"><a xlink:href="pca9555a_8h.html" target="_top" xlink:title=" ">
<polygon fill="white" stroke="#666666" points="642,-77.5 488,-77.5 488,-56.75 642,-56.75 642,-77.5"/>
<text xml:space="preserve" text-anchor="middle" x="565" y="-64" font-family="Helvetica,sans-Serif" font-size="10.00">driver/pca9555a/pca9555a.h</text>
</a>
</g>
</g>
<!-- Node4&#45;&gt;Node5 -->
<g id="edge4_Node000004_Node000005" class="edge">
<title>Node4&#45;&gt;Node5</title>
<g id="a_edge4_Node000004_Node000005"><a xlink:title=" ">
<path fill="none" stroke="#63b8ff" d="M786.13,-226.63C769.64,-217.89 745.23,-204.41 725,-191 672.58,-156.25 614.98,-109.79 585.25,-85.15"/>
<polygon fill="#63b8ff" stroke="#63b8ff" points="587.71,-82.64 577.79,-78.93 583.23,-88.02 587.71,-82.64"/>
</a>
</g>
</g>
<!-- Node8 -->
<g id="Node000008" class="node">
<title>Node8</title>
<g id="a_Node000008"><a xlink:title=" ">
<polygon fill="#e0e0e0" stroke="#999999" points="849.38,-191 760.62,-191 760.62,-170.25 849.38,-170.25 849.38,-191"/>
<text xml:space="preserve" text-anchor="middle" x="805" y="-177.5" font-family="Helvetica,sans-Serif" font-size="10.00">MK22F51212.h</text>
</a>
</g>
</g>
<!-- Node4&#45;&gt;Node8 -->
<g id="edge7_Node000004_Node000008" class="edge">
<title>Node4&#45;&gt;Node8</title>
<g id="a_edge7_Node000004_Node000008"><a xlink:title=" ">
<path fill="none" stroke="#63b8ff" d="M805,-226.59C805,-219.97 805,-210.97 805,-202.77"/>
<polygon fill="#63b8ff" stroke="#63b8ff" points="808.5,-202.84 805,-192.84 801.5,-202.84 808.5,-202.84"/>
</a>
</g>
</g>
<!-- Node4&#45;&gt;Node9 -->
<g id="edge8_Node000004_Node000009" class="edge">
<title>Node4&#45;&gt;Node9</title>
<g id="a_edge8_Node000004_Node000009"><a xlink:title=" ">
<path fill="none" stroke="#63b8ff" d="M829.31,-226.59C850.78,-217.94 882.32,-205.25 906.41,-195.55"/>
<polygon fill="#63b8ff" stroke="#63b8ff" points="907.52,-198.88 915.49,-191.89 904.91,-192.38 907.52,-198.88"/>
</a>
</g>
</g>
<!-- Node12 -->
<g id="Node000012" class="node">
<title>Node12</title>
<g id="a_Node000012"><a xlink:title=" ">
<polygon fill="#e0e0e0" stroke="#999999" points="800.38,-77.5 741.62,-77.5 741.62,-56.75 800.38,-56.75 800.38,-77.5"/>
<text xml:space="preserve" text-anchor="middle" x="771" y="-64" font-family="Helvetica,sans-Serif" font-size="10.00">fsl_ftm.h</text>
</a>
</g>
</g>
<!-- Node4&#45;&gt;Node12 -->
<g id="edge35_Node000004_Node000012" class="edge">
<title>Node4&#45;&gt;Node12</title>
<g id="a_edge35_Node000004_Node000012"><a xlink:title=" ">
<path fill="none" stroke="#63b8ff" d="M786.85,-226.52C774.49,-218.7 759.14,-206.51 752,-191 736.49,-157.31 750.36,-113.5 761.15,-88.33"/>
<polygon fill="#63b8ff" stroke="#63b8ff" points="764.32,-89.81 765.29,-79.26 757.96,-86.9 764.32,-89.81"/>
</a>
</g>
</g>
<!-- Node13 -->
<g id="Node000013" class="node">
<title>Node13</title>
<g id="a_Node000013"><a xlink:title=" ">
<polygon fill="#e0e0e0" stroke="#999999" points="723.62,-77.5 660.38,-77.5 660.38,-56.75 723.62,-56.75 723.62,-77.5"/>
<text xml:space="preserve" text-anchor="middle" x="692" y="-64" font-family="Helvetica,sans-Serif" font-size="10.00">fsl_gpio.h</text>
</a>
</g>
</g>
<!-- Node4&#45;&gt;Node13 -->
<g id="edge36_Node000004_Node000013" class="edge">
<title>Node4&#45;&gt;Node13</title>
<g id="a_edge36_Node000004_Node000013"><a xlink:title=" ">
<path fill="none" stroke="#63b8ff" d="M785.98,-226.51C772.18,-218.53 753.92,-206.15 742,-191 717.53,-159.89 703.38,-115.17 696.72,-89.13"/>
<polygon fill="#63b8ff" stroke="#63b8ff" points="700.14,-88.37 694.4,-79.47 693.33,-90.01 700.14,-88.37"/>
</a>
</g>
</g>
<!-- Node14 -->
<g id="Node000014" class="node">
<title>Node14</title>
<g id="a_Node000014"><a xlink:title=" ">
<polygon fill="#e0e0e0" stroke="#999999" points="1057.88,-77.5 996.12,-77.5 996.12,-56.75 1057.88,-56.75 1057.88,-77.5"/>
<text xml:space="preserve" text-anchor="middle" x="1027" y="-64" font-family="Helvetica,sans-Serif" font-size="10.00">fsl_port.h</text>
</a>
</g>
</g>
<!-- Node4&#45;&gt;Node14 -->
<g id="edge37_Node000004_Node000014" class="edge">
<title>Node4&#45;&gt;Node14</title>
<g id="a_edge37_Node000004_Node000014"><a xlink:title=" ">
<path fill="none" stroke="#63b8ff" d="M845.47,-236.91C886.01,-235.25 947.74,-226.45 986,-191 1014.91,-164.22 1023.45,-116.52 1025.97,-89.1"/>
<polygon fill="#63b8ff" stroke="#63b8ff" points="1029.45,-89.49 1026.66,-79.26 1022.46,-88.99 1029.45,-89.49"/>
</a>
</g>
</g>
<!-- Node21 -->
<g id="Node000021" class="node">
<title>Node21</title>
<g id="a_Node000021"><a xlink:href="tmc2209__core_8h.html" target="_top" xlink:title=" ">
<polygon fill="white" stroke="#666666" points="219,-191 125,-191 125,-170.25 219,-170.25 219,-191"/>
<text xml:space="preserve" text-anchor="middle" x="172" y="-177.5" font-family="Helvetica,sans-Serif" font-size="10.00">tmc2209_core.h</text>
</a>
</g>
</g>
<!-- Node4&#45;&gt;Node21 -->
<g id="edge29_Node000004_Node000021" class="edge">
<title>Node4&#45;&gt;Node21</title>
<g id="a_edge29_Node000004_Node000021"><a xlink:title=" ">
<path fill="none" stroke="#63b8ff" d="M764.44,-232.87C655.82,-223.47 357.98,-197.71 230.81,-186.71"/>
<polygon fill="#63b8ff" stroke="#63b8ff" points="231.18,-183.23 220.92,-185.86 230.58,-190.2 231.18,-183.23"/>
</a>
</g>
</g>
<!-- Node6 -->
<g id="Node000006" class="node">
<title>Node6</title>
<g id="a_Node000006"><a xlink:title=" ">
<polygon fill="#e0e0e0" stroke="#999999" points="738.5,-20.75 653.5,-20.75 653.5,0 738.5,0 738.5,-20.75"/>
<text xml:space="preserve" text-anchor="middle" x="696" y="-7.25" font-family="Helvetica,sans-Serif" font-size="10.00">fsl_common.h</text>
</a>
</g>
</g>
<!-- Node5&#45;&gt;Node6 -->
<g id="edge5_Node000005_Node000006" class="edge">
<title>Node5&#45;&gt;Node6</title>
<g id="a_edge5_Node000005_Node000006"><a xlink:title=" ">
<path fill="none" stroke="#63b8ff" d="M588.42,-56.34C609,-47.73 639.2,-35.11 662.37,-25.43"/>
<polygon fill="#63b8ff" stroke="#63b8ff" points="663.51,-28.75 671.39,-21.66 660.81,-22.29 663.51,-28.75"/>
</a>
</g>
</g>
<!-- Node7 -->
<g id="Node000007" class="node">
<title>Node7</title>
<g id="a_Node000007"><a xlink:title=" ">
<polygon fill="#e0e0e0" stroke="#999999" points="470.88,-20.75 391.12,-20.75 391.12,0 470.88,0 470.88,-20.75"/>
<text xml:space="preserve" text-anchor="middle" x="431" y="-7.25" font-family="Helvetica,sans-Serif" font-size="10.00">peripherals.h</text>
</a>
</g>
</g>
<!-- Node5&#45;&gt;Node7 -->
<g id="edge6_Node000005_Node000007" class="edge">
<title>Node5&#45;&gt;Node7</title>
<g id="a_edge6_Node000005_Node000007"><a xlink:title=" ">
<path fill="none" stroke="#63b8ff" d="M541.04,-56.34C519.99,-47.73 489.1,-35.11 465.4,-25.43"/>
<polygon fill="#63b8ff" stroke="#63b8ff" points="466.73,-22.19 456.15,-21.65 464.08,-28.67 466.73,-22.19"/>
</a>
</g>
</g>
<!-- Node9&#45;&gt;Node5 -->
<g id="edge9_Node000009_Node000005" class="edge">
<title>Node9&#45;&gt;Node5</title>
<g id="a_edge9_Node000009_Node000005"><a xlink:title=" ">
<path fill="none" stroke="#63b8ff" d="M904.52,-172.14C854.9,-161.83 768.78,-143.52 738,-134.25 688.27,-119.27 632.43,-96.87 597.98,-82.38"/>
<polygon fill="#63b8ff" stroke="#63b8ff" points="599.55,-79.24 588.97,-78.56 596.81,-85.69 599.55,-79.24"/>
</a>
</g>
</g>
<!-- Node9&#45;&gt;Node6 -->
<g id="edge12_Node000009_Node000006" class="edge">
<title>Node9&#45;&gt;Node6</title>
<g id="a_edge12_Node000009_Node000006"><a xlink:title=" ">
<path fill="none" stroke="#63b8ff" d="M953.64,-169.86C984.97,-145.59 1063.92,-84.02 1067,-77.5 1070.94,-69.16 1073.11,-63.66 1067,-56.75 1046.36,-33.43 848.1,-19.57 750.18,-14.1"/>
<polygon fill="#63b8ff" stroke="#63b8ff" points="750.44,-10.61 740.26,-13.55 750.06,-17.6 750.44,-10.61"/>
</a>
</g>
</g>
<!-- Node9&#45;&gt;Node10 -->
<g id="edge10_Node000009_Node000010" class="edge">
<title>Node9&#45;&gt;Node10</title>
<g id="a_edge10_Node000009_Node000010"><a xlink:title=" ">
<path fill="none" stroke="#63b8ff" d="M959.81,-169.75C977.25,-160.59 1003.91,-146.55 1027,-134.25 1059.77,-116.8 1097.34,-96.57 1122.25,-83.12"/>
<polygon fill="#63b8ff" stroke="#63b8ff" points="1123.63,-86.36 1130.77,-78.52 1120.3,-80.2 1123.63,-86.36"/>
</a>
</g>
</g>
<!-- Node11 -->
<g id="Node000011" class="node">
<title>Node11</title>
<g id="a_Node000011"><a xlink:title=" ">
<polygon fill="#e0e0e0" stroke="#999999" points="947,-134.25 901,-134.25 901,-113.5 947,-113.5 947,-134.25"/>
<text xml:space="preserve" text-anchor="middle" x="924" y="-120.75" font-family="Helvetica,sans-Serif" font-size="10.00">task.h</text>
</a>
</g>
</g>
<!-- Node9&#45;&gt;Node11 -->
<g id="edge11_Node000009_Node000011" class="edge">
<title>Node9&#45;&gt;Node11</title>
<g id="a_edge11_Node000009_Node000011"><a xlink:title=" ">
<path fill="none" stroke="#63b8ff" d="M937.96,-169.84C935.86,-163.06 932.98,-153.8 930.39,-145.44"/>
<polygon fill="#63b8ff" stroke="#63b8ff" points="933.77,-144.54 927.46,-136.02 927.08,-146.61 933.77,-144.54"/>
</a>
</g>
</g>
<!-- Node9&#45;&gt;Node12 -->
<g id="edge13_Node000009_Node000012" class="edge">
<title>Node9&#45;&gt;Node12</title>
<g id="a_edge13_Node000009_Node000012"><a xlink:title=" ">
<path fill="none" stroke="#63b8ff" d="M904.41,-172.81C865.07,-164.78 806.02,-150.46 790,-134.25 778.18,-122.29 773.62,-103.49 771.9,-88.99"/>
<polygon fill="#63b8ff" stroke="#63b8ff" points="775.4,-88.84 771.13,-79.14 768.42,-89.38 775.4,-88.84"/>
</a>
</g>
</g>
<!-- Node9&#45;&gt;Node13 -->
<g id="edge14_Node000009_Node000013" class="edge">
<title>Node9&#45;&gt;Node13</title>
<g id="a_edge14_Node000009_Node000013"><a xlink:title=" ">
<path fill="none" stroke="#63b8ff" d="M904.45,-171.55C862.54,-161.96 796.68,-145.83 774,-134.25 749.22,-121.6 724.93,-100.63 709.3,-85.7"/>
<polygon fill="#63b8ff" stroke="#63b8ff" points="711.83,-83.28 702.24,-78.77 706.93,-88.27 711.83,-83.28"/>
</a>
</g>
</g>
<!-- Node9&#45;&gt;Node14 -->
<g id="edge15_Node000009_Node000014" class="edge">
<title>Node9&#45;&gt;Node14</title>
<g id="a_edge15_Node000009_Node000014"><a xlink:title=" ">
<path fill="none" stroke="#63b8ff" d="M948.33,-170.12C962.54,-151.7 994.06,-110.84 1012.6,-86.8"/>
<polygon fill="#63b8ff" stroke="#63b8ff" points="1015.18,-89.18 1018.52,-79.12 1009.64,-84.9 1015.18,-89.18"/>
</a>
</g>
</g>
<!-- Node9&#45;&gt;Node15 -->
<g id="edge16_Node000009_Node000015" class="edge">
<title>Node9&#45;&gt;Node15</title>
<g id="a_edge16_Node000009_Node000015"><a xlink:title=" ">
<path fill="none" stroke="#63b8ff" d="M904.47,-172.39C899.94,-171.61 895.37,-170.87 891,-170.25 741.68,-149.05 564.13,-134.82 476.87,-128.54"/>
<polygon fill="#63b8ff" stroke="#63b8ff" points="477.15,-125.05 466.93,-127.83 476.65,-132.03 477.15,-125.05"/>
</a>
</g>
</g>
<!-- Node19 -->
<g id="Node000019" class="node">
<title>Node19</title>
<g id="a_Node000019"><a xlink:href="step__shared_8h.html" target="_top" xlink:title=" ">
<polygon fill="white" stroke="#666666" points="883.12,-134.25 798.88,-134.25 798.88,-113.5 883.12,-113.5 883.12,-134.25"/>
<text xml:space="preserve" text-anchor="middle" x="841" y="-120.75" font-family="Helvetica,sans-Serif" font-size="10.00">step_shared.h</text>
</a>
</g>
</g>
<!-- Node9&#45;&gt;Node19 -->
<g id="edge22_Node000009_Node000019" class="edge">
<title>Node9&#45;&gt;Node19</title>
<g id="a_edge22_Node000009_Node000019"><a xlink:title=" ">
<path fill="none" stroke="#63b8ff" d="M923.12,-169.84C907.91,-161.51 885.81,-149.41 868.37,-139.86"/>
<polygon fill="#63b8ff" stroke="#63b8ff" points="870.5,-137.04 860.05,-135.31 867.14,-143.18 870.5,-137.04"/>
</a>
</g>
</g>
<!-- Node15&#45;&gt;Node6 -->
<g id="edge20_Node000015_Node000006" class="edge">
<title>Node15&#45;&gt;Node6</title>
<g id="a_edge20_Node000015_Node000006"><a xlink:title=" ">
<path fill="none" stroke="#63b8ff" d="M428.44,-113.01C437.1,-98.27 455.48,-70.76 479,-56.75 529,-26.98 595.62,-16.54 641.8,-12.99"/>
<polygon fill="#63b8ff" stroke="#63b8ff" points="641.83,-16.5 651.57,-12.33 641.36,-9.51 641.83,-16.5"/>
</a>
</g>
</g>
<!-- Node15&#45;&gt;Node10 -->
<g id="edge18_Node000015_Node000010" class="edge">
<title>Node15&#45;&gt;Node10</title>
<g id="a_edge18_Node000015_Node000010"><a xlink:title=" ">
<path fill="none" stroke="#63b8ff" d="M465.25,-120.52C568.24,-114.63 840.42,-98.27 1067,-77.5 1078.59,-76.44 1091.07,-75.12 1102.74,-73.81"/>
<polygon fill="#63b8ff" stroke="#63b8ff" points="1103.04,-77.3 1112.58,-72.69 1102.25,-70.35 1103.04,-77.3"/>
</a>
</g>
</g>
<!-- Node16 -->
<g id="Node000016" class="node">
<title>Node16</title>
<g id="a_Node000016"><a xlink:title=" ">
<polygon fill="#e0e0e0" stroke="#999999" points="322.38,-77.5 269.62,-77.5 269.62,-56.75 322.38,-56.75 322.38,-77.5"/>
<text xml:space="preserve" text-anchor="middle" x="296" y="-64" font-family="Helvetica,sans-Serif" font-size="10.00">stdint.h</text>
</a>
</g>
</g>
<!-- Node15&#45;&gt;Node16 -->
<g id="edge17_Node000015_Node000016" class="edge">
<title>Node15&#45;&gt;Node16</title>
<g id="a_edge17_Node000015_Node000016"><a xlink:title=" ">
<path fill="none" stroke="#63b8ff" d="M400.29,-113.09C380.43,-104.52 351.33,-91.98 328.91,-82.31"/>
<polygon fill="#63b8ff" stroke="#63b8ff" points="330.47,-79.17 319.9,-78.43 327.7,-85.6 330.47,-79.17"/>
</a>
</g>
</g>
<!-- Node17 -->
<g id="Node000017" class="node">
<title>Node17</title>
<g id="a_Node000017"><a xlink:title=" ">
<polygon fill="#e0e0e0" stroke="#999999" points="431.5,-77.5 340.5,-77.5 340.5,-56.75 431.5,-56.75 431.5,-77.5"/>
<text xml:space="preserve" text-anchor="middle" x="386" y="-64" font-family="Helvetica,sans-Serif" font-size="10.00">event_groups.h</text>
</a>
</g>
</g>
<!-- Node15&#45;&gt;Node17 -->
<g id="edge19_Node000015_Node000017" class="edge">
<title>Node15&#45;&gt;Node17</title>
<g id="a_edge19_Node000015_Node000017"><a xlink:title=" ">
<path fill="none" stroke="#63b8ff" d="M416.39,-113.09C411.54,-105.92 404.82,-95.98 398.93,-87.26"/>
<polygon fill="#63b8ff" stroke="#63b8ff" points="401.9,-85.41 393.41,-79.08 396.1,-89.33 401.9,-85.41"/>
</a>
</g>
</g>
<!-- Node18 -->
<g id="Node000018" class="node">
<title>Node18</title>
<g id="a_Node000018"><a xlink:title=" ">
<polygon fill="#e0e0e0" stroke="#999999" points="252,-77.5 200,-77.5 200,-56.75 252,-56.75 252,-77.5"/>
<text xml:space="preserve" text-anchor="middle" x="226" y="-64" font-family="Helvetica,sans-Serif" font-size="10.00">stdlib.h</text>
</a>
</g>
</g>
<!-- Node15&#45;&gt;Node18 -->
<g id="edge21_Node000015_Node000018" class="edge">
<title>Node15&#45;&gt;Node18</title>
<g id="a_edge21_Node000015_Node000018"><a xlink:title=" ">
<path fill="none" stroke="#63b8ff" d="M387.78,-113.09C352.73,-103.35 299.13,-88.45 263.35,-78.51"/>
<polygon fill="#63b8ff" stroke="#63b8ff" points="264.44,-75.17 253.87,-75.87 262.56,-81.92 264.44,-75.17"/>
</a>
</g>
</g>
<!-- Node19&#45;&gt;Node5 -->
<g id="edge23_Node000019_Node000005" class="edge">
<title>Node19&#45;&gt;Node5</title>
<g id="a_edge23_Node000019_Node000005"><a xlink:title=" ">
<path fill="none" stroke="#63b8ff" d="M798.48,-114.44C752.27,-105.27 678.05,-90.55 625.72,-80.17"/>
<polygon fill="#63b8ff" stroke="#63b8ff" points="626.55,-76.77 616.06,-78.25 625.18,-83.63 626.55,-76.77"/>
</a>
</g>
</g>
<!-- Node19&#45;&gt;Node6 -->
<g id="edge25_Node000019_Node000006" class="edge">
<title>Node19&#45;&gt;Node6</title>
<g id="a_edge25_Node000019_Node000006"><a xlink:title=" ">
<path fill="none" stroke="#63b8ff" d="M838.78,-113.46C834.98,-99.33 825.97,-72.59 809,-56.75 792.49,-41.34 770.09,-30.89 749.59,-23.95"/>
<polygon fill="#63b8ff" stroke="#63b8ff" points="750.79,-20.66 740.2,-20.99 748.69,-27.33 750.79,-20.66"/>
</a>
</g>
</g>
<!-- Node19&#45;&gt;Node12 -->
<g id="edge26_Node000019_Node000012" class="edge">
<title>Node19&#45;&gt;Node12</title>
<g id="a_edge26_Node000019_Node000012"><a xlink:title=" ">
<path fill="none" stroke="#63b8ff" d="M828.49,-113.09C818.43,-105.22 804.09,-94 792.24,-84.74"/>
<polygon fill="#63b8ff" stroke="#63b8ff" points="794.63,-82.16 784.6,-78.76 790.32,-87.68 794.63,-82.16"/>
</a>
</g>
</g>
<!-- Node19&#45;&gt;Node13 -->
<g id="edge27_Node000019_Node000013" class="edge">
<title>Node19&#45;&gt;Node13</title>
<g id="a_edge27_Node000019_Node000013"><a xlink:title=" ">
<path fill="none" stroke="#63b8ff" d="M814.36,-113.09C790.7,-104.39 755.88,-91.6 729.43,-81.88"/>
<polygon fill="#63b8ff" stroke="#63b8ff" points="730.67,-78.61 720.08,-78.44 728.26,-85.18 730.67,-78.61"/>
</a>
</g>
</g>
<!-- Node19&#45;&gt;Node14 -->
<g id="edge28_Node000019_Node000014" class="edge">
<title>Node19&#45;&gt;Node14</title>
<g id="a_edge28_Node000019_Node000014"><a xlink:title=" ">
<path fill="none" stroke="#63b8ff" d="M874.25,-113.09C905.23,-103.97 951.55,-90.33 985.06,-80.47"/>
<polygon fill="#63b8ff" stroke="#63b8ff" points="985.83,-83.89 994.44,-77.71 983.86,-77.18 985.83,-83.89"/>
</a>
</g>
</g>
<!-- Node20 -->
<g id="Node000020" class="node">
<title>Node20</title>
<g id="a_Node000020"><a xlink:title=" ">
<polygon fill="#e0e0e0" stroke="#999999" points="978.25,-77.5 855.75,-77.5 855.75,-56.75 978.25,-56.75 978.25,-77.5"/>
<text xml:space="preserve" text-anchor="middle" x="917" y="-64" font-family="Helvetica,sans-Serif" font-size="10.00">fsl_device_registers.h</text>
</a>
</g>
</g>
<!-- Node19&#45;&gt;Node20 -->
<g id="edge24_Node000019_Node000020" class="edge">
<title>Node19&#45;&gt;Node20</title>
<g id="a_edge24_Node000019_Node000020"><a xlink:title=" ">
<path fill="none" stroke="#63b8ff" d="M854.59,-113.09C865.61,-105.15 881.39,-93.78 894.32,-84.46"/>
<polygon fill="#63b8ff" stroke="#63b8ff" points="896.23,-87.4 902.3,-78.71 892.14,-81.72 896.23,-87.4"/>
</a>
</g>
</g>
<!-- Node21&#45;&gt;Node6 -->
<g id="edge32_Node000021_Node000006" class="edge">
<title>Node21&#45;&gt;Node6</title>
<g id="a_edge32_Node000021_Node000006"><a xlink:title=" ">
<path fill="none" stroke="#63b8ff" d="M170,-169.86C165.82,-146.43 159.04,-86.73 191,-56.75 207.28,-41.47 515.03,-21.91 641.96,-14.45"/>
<polygon fill="#63b8ff" stroke="#63b8ff" points="642.02,-17.95 651.8,-13.87 641.61,-10.96 642.02,-17.95"/>
</a>
</g>
</g>
<!-- Node21&#45;&gt;Node7 -->
<g id="edge34_Node000021_Node000007" class="edge">
<title>Node21&#45;&gt;Node7</title>
<g id="a_edge34_Node000021_Node000007"><a xlink:title=" ">
<path fill="none" stroke="#63b8ff" d="M166.65,-169.95C154.89,-147.21 129.96,-89.84 158,-56.75 185.81,-23.94 308.24,-14.83 379.35,-12.32"/>
<polygon fill="#63b8ff" stroke="#63b8ff" points="379.32,-15.82 389.21,-12 379.1,-8.82 379.32,-15.82"/>
</a>
</g>
</g>
<!-- Node21&#45;&gt;Node15 -->
<g id="edge33_Node000021_Node000015" class="edge">
<title>Node21&#45;&gt;Node15</title>
<g id="a_edge33_Node000021_Node000015"><a xlink:title=" ">
<path fill="none" stroke="#63b8ff" d="M217.16,-169.77C259.97,-160.44 324.29,-146.41 369.62,-136.52"/>
<polygon fill="#63b8ff" stroke="#63b8ff" points="370.2,-139.97 379.23,-134.42 368.71,-133.13 370.2,-139.97"/>
</a>
</g>
</g>
<!-- Node22 -->
<g id="Node000022" class="node">
<title>Node22</title>
<g id="a_Node000022"><a xlink:href="tmc2209__shared_8h.html" target="_top" xlink:title=" ">
<polygon fill="white" stroke="#666666" points="106,-134.25 0,-134.25 0,-113.5 106,-113.5 106,-134.25"/>
<text xml:space="preserve" text-anchor="middle" x="53" y="-120.75" font-family="Helvetica,sans-Serif" font-size="10.00">tmc2209_shared.h</text>
</a>
</g>
</g>
<!-- Node21&#45;&gt;Node22 -->
<g id="edge30_Node000021_Node000022" class="edge">
<title>Node21&#45;&gt;Node22</title>
<g id="a_edge30_Node000021_Node000022"><a xlink:title=" ">
<path fill="none" stroke="#63b8ff" d="M150.73,-169.84C132.28,-161.35 105.34,-148.95 84.41,-139.33"/>
<polygon fill="#63b8ff" stroke="#63b8ff" points="86.01,-136.21 75.47,-135.21 83.09,-142.57 86.01,-136.21"/>
</a>
</g>
</g>
<!-- Node23 -->
<g id="Node000023" class="node">
<title>Node23</title>
<g id="a_Node000023"><a xlink:title=" ">
<polygon fill="#e0e0e0" stroke="#999999" points="105.62,-77.5 0.38,-77.5 0.38,-56.75 105.62,-56.75 105.62,-77.5"/>
<text xml:space="preserve" text-anchor="middle" x="53" y="-64" font-family="Helvetica,sans-Serif" font-size="10.00">fsl_uart_freertos.h</text>
</a>
</g>
</g>
<!-- Node22&#45;&gt;Node23 -->
<g id="edge31_Node000022_Node000023" class="edge">
<title>Node22&#45;&gt;Node23</title>
<g id="a_edge31_Node000022_Node000023"><a xlink:title=" ">
<path fill="none" stroke="#63b8ff" d="M53,-113.09C53,-106.47 53,-97.47 53,-89.27"/>
<polygon fill="#63b8ff" stroke="#63b8ff" points="56.5,-89.34 53,-79.34 49.5,-89.34 56.5,-89.34"/>
</a>
</g>
</g>
<!-- Node25&#45;&gt;Node4 -->
<g id="edge42_Node000025_Node000004" class="edge">
<title>Node25&#45;&gt;Node4</title>
<g id="a_edge42_Node000025_Node000004"><a xlink:title=" ">
<path fill="none" stroke="#63b8ff" d="M816.5,-283.34C814.78,-276.64 812.45,-267.51 810.33,-259.23"/>
<polygon fill="#63b8ff" stroke="#63b8ff" points="813.72,-258.37 807.86,-249.54 806.94,-260.1 813.72,-258.37"/>
</a>
</g>
</g>
<!-- Node26&#45;&gt;Node6 -->
<g id="edge45_Node000026_Node000006" class="edge">
<title>Node26&#45;&gt;Node6</title>
<g id="a_edge45_Node000026_Node000006"><a xlink:title=" ">
<path fill="none" stroke="#63b8ff" d="M1183.09,-113.07C1193.76,-98.91 1209.56,-72.69 1195,-56.75 1165.45,-24.39 873.27,-14.86 750.2,-12.27"/>
<polygon fill="#63b8ff" stroke="#63b8ff" points="750.42,-8.77 740.35,-12.07 750.27,-15.77 750.42,-8.77"/>
</a>
</g>
</g>
<!-- Node26&#45;&gt;Node10 -->
<g id="edge44_Node000026_Node000010" class="edge">
<title>Node26&#45;&gt;Node10</title>
<g id="a_edge44_Node000026_Node000010"><a xlink:title=" ">
<path fill="none" stroke="#63b8ff" d="M1170.53,-113.09C1167.37,-106.16 1163.01,-96.62 1159.13,-88.11"/>
<polygon fill="#63b8ff" stroke="#63b8ff" points="1162.4,-86.85 1155.06,-79.21 1156.03,-89.76 1162.4,-86.85"/>
</a>
</g>
</g>
</g>
</svg>
