<?xml version="1.0" encoding="UTF-8" standalone="no"?>
<!DOCTYPE svg PUBLIC "-//W3C//DTD SVG 1.1//EN"
 "http://www.w3.org/Graphics/SVG/1.1/DTD/svg11.dtd">
<!-- Generated by graphviz version 14.1.5 (0)
 -->
<!-- Title: source/motion/motor/motor_motion.c Pages: 1 -->
<!--zoomable 439 -->

<svg id="main" version="1.1" xmlns="http://www.w3.org/2000/svg" xmlns:xlink="http://www.w3.org/1999/xlink" xml:space="preserve" onload="init(evt)">

<style type="text/css"><![CDATA[
.node, .edge {opacity: 0.7;}
.node.selected, .edge.selected {opacity: 1;}
.edge:hover path { stroke: red; }
.edge:hover polygon { stroke: red; fill: red; }
]]></style>

<defs>
  <circle id="rim" cx="0" cy="0" r="7"/>
  <circle id="rim2" cx="0" cy="0" r="3.5"/>
  <g id="zoomPlus">
    <use xlink:href="#rim" fill="#404040"><set attributeName="fill" to="#808080" begin="zoomplus.mouseover" end="zoomplus.mouseout"/></use>
    <path d="M-4,0h8M0,-4v8" fill="none" stroke="white" stroke-width="1.5" pointer-events="none"/>
  </g>
  <g id="zoomMin">
    <use xlink:href="#rim" fill="#404040"><set attributeName="fill" to="#808080" begin="zoomminus.mouseover" end="zoomminus.mouseout"/></use>
    <path d="M-4,0h8" fill="none" stroke="white" stroke-width="1.5" pointer-events="none"/>
  </g>
  <g id="arrowUp" transform="translate(30 24)">
    <use xlink:href="#rim"/>
    <path pointer-events="none" fill="none" stroke="white" stroke-width="1.5" d="M0,-3.0v7 M-2.5,-0.5L0,-3.0L2.5,-0.5"/>
  </g>
  <g id="arrowRight" transform="rotate(90) translate(36 -43)">
    <use xlink:href="#rim"/>
    <path pointer-events="none" fill="none" stroke="white" stroke-width="1.5" d="M0,-3.0v7 M-2.5,-0.5L0,-3.0L2.5,-0.5"/>
  </g>
  <g id="arrowDown" transform="rotate(180) translate(-30 -48)">
    <use xlink:href="#rim"/>
    <path pointer-events="none" fill="none" stroke="white" stroke-width="1.5" d="M0,-3.0v7 M-2.5,-0.5L0,-3.0L2.5,-0.5"/>
  </g>
  <g id="arrowLeft" transform="rotate(270) translate(-36 17)">
    <use xlink:href="#rim"/>
    <path pointer-events="none" fill="none" stroke="white" stroke-width="1.5" d="M0,-3.0v7 M-2.5,-0.5L0,-3.0L2.5,-0.5"/>
  </g>
  <g id="resetDef">
    <use xlink:href="#rim2" fill="#404040"><set attributeName="fill" to="#808080" begin="reset.mouseover" end="reset.mouseout"/></use>
  </g>
</defs>
<script type="application/ecmascript">
var viewWidth = 1290;
var viewHeight = 439;
var sectionId = 'dynsection-0';
</script>
<script type="application/ecmascript" xlink:href="svg.min.js"/>
<svg id="graph" class="graph">
<g id="viewport">
<title>source/motion/motor/motor_motion.c</title>
<!-- Node1 -->
<g id="Node000001" class="node">
<title>Node1</title>
<g id="a_Node000001"><a xlink:title=" ">
<polygon fill="#999999" stroke="#666666" points="1123.06,-430.75 1005.06,-430.75 1005.06,-397.25 1123.06,-397.25 1123.06,-430.75"/>
<text xml:space="preserve" text-anchor="start" x="1013.06" y="-417.25" font-family="Helvetica,sans-Serif" font-size="10.00">source/motion/motor</text>
<text xml:space="preserve" text-anchor="middle" x="1064.06" y="-404.5" font-family="Helvetica,sans-Serif" font-size="10.00">/motor_motion.c</text>
</a>
</g>
</g>
<!-- Node2 -->
<g id="Node000002" class="node">
<title>Node2</title>
<g id="a_Node000002"><a xlink:href="motor__motion_8h.html" target="_top" xlink:title=" ">
<polygon fill="white" stroke="#666666" points="428.06,-361.25 334.06,-361.25 334.06,-340.5 428.06,-340.5 428.06,-361.25"/>
<text xml:space="preserve" text-anchor="middle" x="381.06" y="-347.75" font-family="Helvetica,sans-Serif" font-size="10.00">motor_motion.h</text>
</a>
</g>
</g>
<!-- Node1&#45;&gt;Node2 -->
<g id="edge1_Node000001_Node000002" class="edge">
<title>Node1&#45;&gt;Node2</title>
<g id="a_edge1_Node000001_Node000002"><a xlink:title=" ">
<path fill="none" stroke="#63b8ff" d="M1004.64,-407.68C875,-396.08 568.09,-368.61 439.42,-357.1"/>
<polygon fill="#63b8ff" stroke="#63b8ff" points="440.05,-353.64 429.77,-356.23 439.42,-360.61 440.05,-353.64"/>
</a>
</g>
</g>
<!-- Node11 -->
<g id="Node000011" class="node">
<title>Node11</title>
<g id="a_Node000011"><a xlink:href="step__core_8h.html" target="_top" xlink:title=" ">
<polygon fill="white" stroke="#666666" points="886.18,-191 813.93,-191 813.93,-170.25 886.18,-170.25 886.18,-191"/>
<text xml:space="preserve" text-anchor="middle" x="850.06" y="-177.5" font-family="Helvetica,sans-Serif" font-size="10.00">step_core.h</text>
</a>
</g>
</g>
<!-- Node1&#45;&gt;Node11 -->
<g id="edge54_Node000001_Node000011" class="edge">
<title>Node1&#45;&gt;Node11</title>
<g id="a_edge54_Node000001_Node000011"><a xlink:title=" ">
<path fill="none" stroke="#63b8ff" d="M1049.35,-397.1C1010.73,-355.35 906.68,-242.84 866.34,-199.23"/>
<polygon fill="#63b8ff" stroke="#63b8ff" points="869.14,-197.1 859.78,-192.14 864,-201.85 869.14,-197.1"/>
</a>
</g>
</g>
<!-- Node26 -->
<g id="Node000026" class="node">
<title>Node26</title>
<g id="a_Node000026"><a xlink:href="motor__convert_8h.html" target="_top" xlink:title=" ">
<polygon fill="white" stroke="#666666" points="679.18,-304.5 582.93,-304.5 582.93,-283.75 679.18,-283.75 679.18,-304.5"/>
<text xml:space="preserve" text-anchor="middle" x="631.06" y="-291" font-family="Helvetica,sans-Serif" font-size="10.00">motor_convert.h</text>
</a>
</g>
</g>
<!-- Node1&#45;&gt;Node26 -->
<g id="edge47_Node000001_Node000026" class="edge">
<title>Node1&#45;&gt;Node26</title>
<g id="a_edge47_Node000001_Node000026"><a xlink:title=" ">
<path fill="none" stroke="#63b8ff" d="M1004.76,-396.86C917.71,-373.16 757.1,-329.44 677.83,-307.86"/>
<polygon fill="#63b8ff" stroke="#63b8ff" points="679.23,-304.61 668.66,-305.36 677.39,-311.37 679.23,-304.61"/>
</a>
</g>
</g>
<!-- Node27 -->
<g id="Node000027" class="node">
<title>Node27</title>
<g id="a_Node000027"><a xlink:href="log_8h.html" target="_top" xlink:title=" ">
<polygon fill="white" stroke="#666666" points="1228.06,-134.25 1188.06,-134.25 1188.06,-113.5 1228.06,-113.5 1228.06,-134.25"/>
<text xml:space="preserve" text-anchor="middle" x="1208.06" y="-120.75" font-family="Helvetica,sans-Serif" font-size="10.00">log.h</text>
</a>
</g>
</g>
<!-- Node1&#45;&gt;Node27 -->
<g id="edge50_Node000001_Node000027" class="edge">
<title>Node1&#45;&gt;Node27</title>
<g id="a_edge50_Node000001_Node000027"><a xlink:title=" ">
<path fill="none" stroke="#63b8ff" d="M1081.86,-396.94C1103.18,-375.86 1136.06,-336.61 1136.06,-295.12 1136.06,-295.12 1136.06,-295.12 1136.06,-236.38 1136.06,-198.07 1166.42,-162.49 1187.71,-142.25"/>
<polygon fill="#63b8ff" stroke="#63b8ff" points="1190.01,-144.9 1195.05,-135.58 1185.3,-139.72 1190.01,-144.9"/>
</a>
</g>
</g>
<!-- Node28 -->
<g id="Node000028" class="node">
<title>Node28</title>
<g id="a_Node000028"><a xlink:title=" ">
<polygon fill="#e0e0e0" stroke="#999999" points="1214.31,-361.25 1163.81,-361.25 1163.81,-340.5 1214.31,-340.5 1214.31,-361.25"/>
<text xml:space="preserve" text-anchor="middle" x="1189.06" y="-347.75" font-family="Helvetica,sans-Serif" font-size="10.00">math.h</text>
</a>
</g>
</g>
<!-- Node1&#45;&gt;Node28 -->
<g id="edge53_Node000001_Node000028" class="edge">
<title>Node1&#45;&gt;Node28</title>
<g id="a_edge53_Node000001_Node000028"><a xlink:title=" ">
<path fill="none" stroke="#63b8ff" d="M1097.23,-396.78C1116.33,-387.44 1140.17,-375.78 1158.77,-366.69"/>
<polygon fill="#63b8ff" stroke="#63b8ff" points="1160.23,-369.87 1167.68,-362.33 1157.16,-363.58 1160.23,-369.87"/>
</a>
</g>
</g>
<!-- Node29 -->
<g id="Node000029" class="node">
<title>Node29</title>
<g id="a_Node000029"><a xlink:title=" ">
<polygon fill="#e0e0e0" stroke="#999999" points="1281.56,-361.25 1232.56,-361.25 1232.56,-340.5 1281.56,-340.5 1281.56,-361.25"/>
<text xml:space="preserve" text-anchor="middle" x="1257.06" y="-347.75" font-family="Helvetica,sans-Serif" font-size="10.00">stdio.h</text>
</a>
</g>
</g>
<!-- Node1&#45;&gt;Node29 -->
<g id="edge55_Node000001_Node000029" class="edge">
<title>Node1&#45;&gt;Node29</title>
<g id="a_edge55_Node000001_Node000029"><a xlink:title=" ">
<path fill="none" stroke="#63b8ff" d="M1115.27,-396.78C1148.74,-386.18 1191.61,-372.6 1221.41,-363.17"/>
<polygon fill="#63b8ff" stroke="#63b8ff" points="1222.22,-366.58 1230.7,-360.22 1220.11,-359.91 1222.22,-366.58"/>
</a>
</g>
</g>
<!-- Node3 -->
<g id="Node000003" class="node">
<title>Node3</title>
<g id="a_Node000003"><a xlink:href="motor__internal_8h.html" target="_top" xlink:title=" ">
<polygon fill="white" stroke="#666666" points="429.56,-304.5 332.56,-304.5 332.56,-283.75 429.56,-283.75 429.56,-304.5"/>
<text xml:space="preserve" text-anchor="middle" x="381.06" y="-291" font-family="Helvetica,sans-Serif" font-size="10.00">motor_internal.h</text>
</a>
</g>
</g>
<!-- Node2&#45;&gt;Node3 -->
<g id="edge2_Node000002_Node000003" class="edge">
<title>Node2&#45;&gt;Node3</title>
<g id="a_edge2_Node000002_Node000003"><a xlink:title=" ">
<path fill="none" stroke="#63b8ff" d="M381.06,-340.09C381.06,-333.47 381.06,-324.47 381.06,-316.27"/>
<polygon fill="#63b8ff" stroke="#63b8ff" points="384.56,-316.34 381.06,-306.34 377.56,-316.34 384.56,-316.34"/>
</a>
</g>
</g>
<!-- Node5 -->
<g id="Node000005" class="node">
<title>Node5</title>
<g id="a_Node000005"><a xlink:title=" ">
<polygon fill="#e0e0e0" stroke="#999999" points="78.56,-247.75 17.56,-247.75 17.56,-227 78.56,-227 78.56,-247.75"/>
<text xml:space="preserve" text-anchor="middle" x="48.06" y="-234.25" font-family="Helvetica,sans-Serif" font-size="10.00">stdbool.h</text>
</a>
</g>
</g>
<!-- Node2&#45;&gt;Node5 -->
<g id="edge46_Node000002_Node000005" class="edge">
<title>Node2&#45;&gt;Node5</title>
<g id="a_edge46_Node000002_Node000005"><a xlink:title=" ">
<path fill="none" stroke="#63b8ff" d="M351.8,-340.08C291.96,-320.04 155.56,-274.37 87.79,-251.68"/>
<polygon fill="#63b8ff" stroke="#63b8ff" points="89.16,-248.45 78.57,-248.59 86.94,-255.08 89.16,-248.45"/>
</a>
</g>
</g>
<!-- Node4 -->
<g id="Node000004" class="node">
<title>Node4</title>
<g id="a_Node000004"><a xlink:title=" ">
<polygon fill="#e0e0e0" stroke="#999999" points="201.43,-77.5 148.68,-77.5 148.68,-56.75 201.43,-56.75 201.43,-77.5"/>
<text xml:space="preserve" text-anchor="middle" x="175.06" y="-64" font-family="Helvetica,sans-Serif" font-size="10.00">stdint.h</text>
</a>
</g>
</g>
<!-- Node3&#45;&gt;Node4 -->
<g id="edge3_Node000003_Node000004" class="edge">
<title>Node3&#45;&gt;Node4</title>
<g id="a_edge3_Node000003_Node000004"><a xlink:title=" ">
<path fill="none" stroke="#63b8ff" d="M345.79,-283.31C287.64,-264.99 173.4,-219.53 126.06,-134.25 115.99,-116.12 133.09,-97.3 149.78,-84.39"/>
<polygon fill="#63b8ff" stroke="#63b8ff" points="151.54,-87.44 157.61,-78.75 147.45,-81.76 151.54,-87.44"/>
</a>
</g>
</g>
<!-- Node3&#45;&gt;Node5 -->
<g id="edge4_Node000003_Node000005" class="edge">
<title>Node3&#45;&gt;Node5</title>
<g id="a_edge4_Node000003_Node000005"><a xlink:title=" ">
<path fill="none" stroke="#63b8ff" d="M332.27,-286.18C274.89,-277.85 176.83,-263.07 93.06,-247.75 92.06,-247.57 91.05,-247.38 90.04,-247.19"/>
<polygon fill="#63b8ff" stroke="#63b8ff" points="90.97,-243.81 80.49,-245.32 89.63,-250.68 90.97,-243.81"/>
</a>
</g>
</g>
<!-- Node6 -->
<g id="Node000006" class="node">
<title>Node6</title>
<g id="a_Node000006"><a xlink:href="motor__core_8h.html" target="_top" xlink:title=" ">
<polygon fill="white" stroke="#666666" points="671.31,-247.75 590.81,-247.75 590.81,-227 671.31,-227 671.31,-247.75"/>
<text xml:space="preserve" text-anchor="middle" x="631.06" y="-234.25" font-family="Helvetica,sans-Serif" font-size="10.00">motor_core.h</text>
</a>
</g>
</g>
<!-- Node3&#45;&gt;Node6 -->
<g id="edge5_Node000003_Node000006" class="edge">
<title>Node3&#45;&gt;Node6</title>
<g id="a_edge5_Node000003_Node000006"><a xlink:title=" ">
<path fill="none" stroke="#63b8ff" d="M426.04,-283.27C469.2,-273.82 534.3,-259.56 579.53,-249.66"/>
<polygon fill="#63b8ff" stroke="#63b8ff" points="580.07,-253.12 589.09,-247.57 578.57,-246.29 580.07,-253.12"/>
</a>
</g>
</g>
<!-- Node12 -->
<g id="Node000012" class="node">
<title>Node12</title>
<g id="a_Node000012"><a xlink:title=" ">
<polygon fill="#e0e0e0" stroke="#999999" points="546.81,-77.5 475.31,-77.5 475.31,-56.75 546.81,-56.75 546.81,-77.5"/>
<text xml:space="preserve" text-anchor="middle" x="511.06" y="-64" font-family="Helvetica,sans-Serif" font-size="10.00">FreeRTOS.h</text>
</a>
</g>
</g>
<!-- Node3&#45;&gt;Node12 -->
<g id="edge43_Node000003_Node000012" class="edge">
<title>Node3&#45;&gt;Node12</title>
<g id="a_edge43_Node000003_Node000012"><a xlink:title=" ">
<path fill="none" stroke="#63b8ff" d="M387.98,-283.57C394.45,-274.5 404.26,-260.43 412.06,-247.75 447.09,-190.8 483.99,-120.76 501.18,-87.47"/>
<polygon fill="#63b8ff" stroke="#63b8ff" points="504.07,-89.5 505.52,-79 497.84,-86.3 504.07,-89.5"/>
</a>
</g>
</g>
<!-- Node17 -->
<g id="Node000017" class="node">
<title>Node17</title>
<g id="a_Node000017"><a xlink:href="cmd__handle_8h.html" target="_top" xlink:title=" ">
<polygon fill="white" stroke="#666666" points="419.18,-134.25 334.93,-134.25 334.93,-113.5 419.18,-113.5 419.18,-134.25"/>
<text xml:space="preserve" text-anchor="middle" x="377.06" y="-120.75" font-family="Helvetica,sans-Serif" font-size="10.00">cmd_handle.h</text>
</a>
</g>
</g>
<!-- Node3&#45;&gt;Node17 -->
<g id="edge45_Node000003_Node000017" class="edge">
<title>Node3&#45;&gt;Node17</title>
<g id="a_edge45_Node000003_Node000017"><a xlink:title=" ">
<path fill="none" stroke="#63b8ff" d="M385.07,-283.46C393.19,-262.59 409.99,-211.82 400.06,-170.25 397.91,-161.26 393.67,-152.03 389.41,-144.27"/>
<polygon fill="#63b8ff" stroke="#63b8ff" points="392.47,-142.57 384.37,-135.75 386.45,-146.14 392.47,-142.57"/>
</a>
</g>
</g>
<!-- Node25 -->
<g id="Node000025" class="node">
<title>Node25</title>
<g id="a_Node000025"><a xlink:title=" ">
<polygon fill="#e0e0e0" stroke="#999999" points="380.56,-247.75 325.56,-247.75 325.56,-227 380.56,-227 380.56,-247.75"/>
<text xml:space="preserve" text-anchor="middle" x="353.06" y="-234.25" font-family="Helvetica,sans-Serif" font-size="10.00">queue.h</text>
</a>
</g>
</g>
<!-- Node3&#45;&gt;Node25 -->
<g id="edge44_Node000003_Node000025" class="edge">
<title>Node3&#45;&gt;Node25</title>
<g id="a_edge44_Node000003_Node000025"><a xlink:title=" ">
<path fill="none" stroke="#63b8ff" d="M376.05,-283.34C372.47,-276.33 367.52,-266.66 363.13,-258.08"/>
<polygon fill="#63b8ff" stroke="#63b8ff" points="366.38,-256.74 358.71,-249.43 360.15,-259.92 366.38,-256.74"/>
</a>
</g>
</g>
<!-- Node7 -->
<g id="Node000007" class="node">
<title>Node7</title>
<g id="a_Node000007"><a xlink:href="pca9555a_8h.html" target="_top" xlink:title=" ">
<polygon fill="white" stroke="#666666" points="719.06,-77.5 565.06,-77.5 565.06,-56.75 719.06,-56.75 719.06,-77.5"/>
<text xml:space="preserve" text-anchor="middle" x="642.06" y="-64" font-family="Helvetica,sans-Serif" font-size="10.00">driver/pca9555a/pca9555a.h</text>
</a>
</g>
</g>
<!-- Node6&#45;&gt;Node7 -->
<g id="edge6_Node000006_Node000007" class="edge">
<title>Node6&#45;&gt;Node7</title>
<g id="a_edge6_Node000006_Node000007"><a xlink:title=" ">
<path fill="none" stroke="#63b8ff" d="M591.6,-226.59C573.16,-219.83 552.93,-208.75 542.06,-191 537.24,-183.14 538.57,-178.79 542.06,-170.25 557.22,-133.09 593.13,-102.13 617.53,-84.36"/>
<polygon fill="#63b8ff" stroke="#63b8ff" points="619.47,-87.27 625.63,-78.65 615.44,-81.55 619.47,-87.27"/>
</a>
</g>
</g>
<!-- Node10 -->
<g id="Node000010" class="node">
<title>Node10</title>
<g id="a_Node000010"><a xlink:title=" ">
<polygon fill="#e0e0e0" stroke="#999999" points="639.43,-191 550.68,-191 550.68,-170.25 639.43,-170.25 639.43,-191"/>
<text xml:space="preserve" text-anchor="middle" x="595.06" y="-177.5" font-family="Helvetica,sans-Serif" font-size="10.00">MK22F51212.h</text>
</a>
</g>
</g>
<!-- Node6&#45;&gt;Node10 -->
<g id="edge9_Node000006_Node000010" class="edge">
<title>Node6&#45;&gt;Node10</title>
<g id="a_edge9_Node000006_Node000010"><a xlink:title=" ">
<path fill="none" stroke="#63b8ff" d="M624.62,-226.59C619.91,-219.42 613.37,-209.48 607.64,-200.76"/>
<polygon fill="#63b8ff" stroke="#63b8ff" points="610.69,-199.03 602.27,-192.59 604.84,-202.87 610.69,-199.03"/>
</a>
</g>
</g>
<!-- Node6&#45;&gt;Node11 -->
<g id="edge10_Node000006_Node000011" class="edge">
<title>Node6&#45;&gt;Node11</title>
<g id="a_edge10_Node000006_Node000011"><a xlink:title=" ">
<path fill="none" stroke="#63b8ff" d="M670.46,-226.52C707.53,-217.26 763.08,-203.37 802.58,-193.49"/>
<polygon fill="#63b8ff" stroke="#63b8ff" points="803.2,-196.95 812.05,-191.13 801.5,-190.16 803.2,-196.95"/>
</a>
</g>
</g>
<!-- Node14 -->
<g id="Node000014" class="node">
<title>Node14</title>
<g id="a_Node000014"><a xlink:title=" ">
<polygon fill="#e0e0e0" stroke="#999999" points="795.43,-77.5 736.68,-77.5 736.68,-56.75 795.43,-56.75 795.43,-77.5"/>
<text xml:space="preserve" text-anchor="middle" x="766.06" y="-64" font-family="Helvetica,sans-Serif" font-size="10.00">fsl_ftm.h</text>
</a>
</g>
</g>
<!-- Node6&#45;&gt;Node14 -->
<g id="edge40_Node000006_Node000014" class="edge">
<title>Node6&#45;&gt;Node14</title>
<g id="a_edge40_Node000006_Node000014"><a xlink:title=" ">
<path fill="none" stroke="#63b8ff" d="M638.7,-226.85C660.32,-199.91 722.18,-122.81 750.98,-86.92"/>
<polygon fill="#63b8ff" stroke="#63b8ff" points="753.68,-89.14 757.21,-79.15 748.22,-84.76 753.68,-89.14"/>
</a>
</g>
</g>
<!-- Node15 -->
<g id="Node000015" class="node">
<title>Node15</title>
<g id="a_Node000015"><a xlink:title=" ">
<polygon fill="#e0e0e0" stroke="#999999" points="1134.68,-77.5 1071.43,-77.5 1071.43,-56.75 1134.68,-56.75 1134.68,-77.5"/>
<text xml:space="preserve" text-anchor="middle" x="1103.06" y="-64" font-family="Helvetica,sans-Serif" font-size="10.00">fsl_gpio.h</text>
</a>
</g>
</g>
<!-- Node6&#45;&gt;Node15 -->
<g id="edge41_Node000006_Node000015" class="edge">
<title>Node6&#45;&gt;Node15</title>
<g id="a_edge41_Node000006_Node000015"><a xlink:title=" ">
<path fill="none" stroke="#63b8ff" d="M671.66,-235.46C732.07,-233 848.43,-223.96 941.06,-191 987.39,-174.51 997.16,-164.35 1036.06,-134.25 1054.93,-119.64 1074.07,-100.19 1087.03,-86.17"/>
<polygon fill="#63b8ff" stroke="#63b8ff" points="1089.44,-88.72 1093.58,-78.96 1084.26,-84.01 1089.44,-88.72"/>
</a>
</g>
</g>
<!-- Node16 -->
<g id="Node000016" class="node">
<title>Node16</title>
<g id="a_Node000016"><a xlink:title=" ">
<polygon fill="#e0e0e0" stroke="#999999" points="1052.93,-77.5 991.18,-77.5 991.18,-56.75 1052.93,-56.75 1052.93,-77.5"/>
<text xml:space="preserve" text-anchor="middle" x="1022.06" y="-64" font-family="Helvetica,sans-Serif" font-size="10.00">fsl_port.h</text>
</a>
</g>
</g>
<!-- Node6&#45;&gt;Node16 -->
<g id="edge42_Node000006_Node000016" class="edge">
<title>Node6&#45;&gt;Node16</title>
<g id="a_edge42_Node000006_Node000016"><a xlink:title=" ">
<path fill="none" stroke="#63b8ff" d="M671.38,-233.39C724,-228.61 818.43,-216.99 895.06,-191 946.41,-173.58 968.82,-176.3 1003.06,-134.25 1013.56,-121.36 1018.26,-102.93 1020.36,-88.8"/>
<polygon fill="#63b8ff" stroke="#63b8ff" points="1023.79,-89.58 1021.45,-79.24 1016.84,-88.78 1023.79,-89.58"/>
</a>
</g>
</g>
<!-- Node22 -->
<g id="Node000022" class="node">
<title>Node22</title>
<g id="a_Node000022"><a xlink:href="tmc2209__core_8h.html" target="_top" xlink:title=" ">
<polygon fill="white" stroke="#666666" points="391.06,-191 297.06,-191 297.06,-170.25 391.06,-170.25 391.06,-191"/>
<text xml:space="preserve" text-anchor="middle" x="344.06" y="-177.5" font-family="Helvetica,sans-Serif" font-size="10.00">tmc2209_core.h</text>
</a>
</g>
</g>
<!-- Node6&#45;&gt;Node22 -->
<g id="edge32_Node000006_Node000022" class="edge">
<title>Node6&#45;&gt;Node22</title>
<g id="a_edge32_Node000006_Node000022"><a xlink:title=" ">
<path fill="none" stroke="#63b8ff" d="M590.55,-228.65C541.54,-219.3 458.67,-203.49 402.69,-192.81"/>
<polygon fill="#63b8ff" stroke="#63b8ff" points="403.49,-189.4 393.01,-190.96 402.18,-196.28 403.49,-189.4"/>
</a>
</g>
</g>
<!-- Node8 -->
<g id="Node000008" class="node">
<title>Node8</title>
<g id="a_Node000008"><a xlink:title=" ">
<polygon fill="#e0e0e0" stroke="#999999" points="774.56,-20.75 689.56,-20.75 689.56,0 774.56,0 774.56,-20.75"/>
<text xml:space="preserve" text-anchor="middle" x="732.06" y="-7.25" font-family="Helvetica,sans-Serif" font-size="10.00">fsl_common.h</text>
</a>
</g>
</g>
<!-- Node7&#45;&gt;Node8 -->
<g id="edge7_Node000007_Node000008" class="edge">
<title>Node7&#45;&gt;Node8</title>
<g id="a_edge7_Node000007_Node000008"><a xlink:title=" ">
<path fill="none" stroke="#63b8ff" d="M658.15,-56.34C671.59,-48.16 690.99,-36.36 706.54,-26.9"/>
<polygon fill="#63b8ff" stroke="#63b8ff" points="708.09,-30.05 714.81,-21.87 704.45,-24.07 708.09,-30.05"/>
</a>
</g>
</g>
<!-- Node9 -->
<g id="Node000009" class="node">
<title>Node9</title>
<g id="a_Node000009"><a xlink:title=" ">
<polygon fill="#e0e0e0" stroke="#999999" points="399.93,-20.75 320.18,-20.75 320.18,0 399.93,0 399.93,-20.75"/>
<text xml:space="preserve" text-anchor="middle" x="360.06" y="-7.25" font-family="Helvetica,sans-Serif" font-size="10.00">peripherals.h</text>
</a>
</g>
</g>
<!-- Node7&#45;&gt;Node9 -->
<g id="edge8_Node000007_Node000009" class="edge">
<title>Node7&#45;&gt;Node9</title>
<g id="a_edge8_Node000007_Node000009"><a xlink:title=" ">
<path fill="none" stroke="#63b8ff" d="M591.32,-56.27C540.45,-46.4 462.56,-31.28 411.47,-21.36"/>
<polygon fill="#63b8ff" stroke="#63b8ff" points="412.33,-17.96 401.84,-19.49 410.99,-24.83 412.33,-17.96"/>
</a>
</g>
</g>
<!-- Node11&#45;&gt;Node7 -->
<g id="edge11_Node000011_Node000007" class="edge">
<title>Node11&#45;&gt;Node7</title>
<g id="a_edge11_Node000011_Node000007"><a xlink:title=" ">
<path fill="none" stroke="#63b8ff" d="M831.96,-169.93C795.62,-150.44 713.54,-106.44 670.15,-83.19"/>
<polygon fill="#63b8ff" stroke="#63b8ff" points="672.06,-80.24 661.59,-78.6 668.75,-86.41 672.06,-80.24"/>
</a>
</g>
</g>
<!-- Node11&#45;&gt;Node8 -->
<g id="edge14_Node000011_Node000008" class="edge">
<title>Node11&#45;&gt;Node8</title>
<g id="a_edge14_Node000011_Node000008"><a xlink:title=" ">
<path fill="none" stroke="#63b8ff" d="M886.65,-177.22C981.08,-169.74 1220.47,-142.04 1144.06,-56.75 1120.6,-30.56 892.87,-17.92 786.4,-13.4"/>
<polygon fill="#63b8ff" stroke="#63b8ff" points="786.61,-9.9 776.47,-12.98 786.32,-16.9 786.61,-9.9"/>
</a>
</g>
</g>
<!-- Node11&#45;&gt;Node12 -->
<g id="edge12_Node000011_Node000012" class="edge">
<title>Node11&#45;&gt;Node12</title>
<g id="a_edge12_Node000011_Node000012"><a xlink:title=" ">
<path fill="none" stroke="#63b8ff" d="M820.27,-169.83C759.36,-149.79 620.49,-104.12 551.5,-81.43"/>
<polygon fill="#63b8ff" stroke="#63b8ff" points="552.69,-78.13 542.09,-78.33 550.5,-84.78 552.69,-78.13"/>
</a>
</g>
</g>
<!-- Node13 -->
<g id="Node000013" class="node">
<title>Node13</title>
<g id="a_Node000013"><a xlink:title=" ">
<polygon fill="#e0e0e0" stroke="#999999" points="994.06,-134.25 948.06,-134.25 948.06,-113.5 994.06,-113.5 994.06,-134.25"/>
<text xml:space="preserve" text-anchor="middle" x="971.06" y="-120.75" font-family="Helvetica,sans-Serif" font-size="10.00">task.h</text>
</a>
</g>
</g>
<!-- Node11&#45;&gt;Node13 -->
<g id="edge13_Node000011_Node000013" class="edge">
<title>Node11&#45;&gt;Node13</title>
<g id="a_edge13_Node000011_Node000013"><a xlink:title=" ">
<path fill="none" stroke="#63b8ff" d="M871.69,-169.84C890.53,-161.31 918.09,-148.84 939.41,-139.19"/>
<polygon fill="#63b8ff" stroke="#63b8ff" points="940.57,-142.51 948.23,-135.2 937.68,-136.14 940.57,-142.51"/>
</a>
</g>
</g>
<!-- Node11&#45;&gt;Node14 -->
<g id="edge15_Node000011_Node000014" class="edge">
<title>Node11&#45;&gt;Node14</title>
<g id="a_edge15_Node000011_Node000014"><a xlink:title=" ">
<path fill="none" stroke="#63b8ff" d="M836.62,-169.99C825.51,-161.52 809.86,-148.37 799.06,-134.25 788.21,-120.08 779.41,-101.79 773.64,-88.04"/>
<polygon fill="#63b8ff" stroke="#63b8ff" points="777.04,-87.14 770.08,-79.15 770.54,-89.74 777.04,-87.14"/>
</a>
</g>
</g>
<!-- Node11&#45;&gt;Node15 -->
<g id="edge16_Node000011_Node000015" class="edge">
<title>Node11&#45;&gt;Node15</title>
<g id="a_edge16_Node000011_Node000015"><a xlink:title=" ">
<path fill="none" stroke="#63b8ff" d="M886.4,-172.05C918.11,-164.71 964.89,-152.05 1003.06,-134.25 1032.1,-120.71 1062.39,-99.53 1081.91,-84.81"/>
<polygon fill="#63b8ff" stroke="#63b8ff" points="1083.83,-87.75 1089.63,-78.88 1079.56,-82.2 1083.83,-87.75"/>
</a>
</g>
</g>
<!-- Node11&#45;&gt;Node16 -->
<g id="edge17_Node000011_Node000016" class="edge">
<title>Node11&#45;&gt;Node16</title>
<g id="a_edge17_Node000011_Node000016"><a xlink:title=" ">
<path fill="none" stroke="#63b8ff" d="M862.06,-169.87C878.8,-156.45 910.37,-131.88 939.06,-113.5 956.3,-102.46 976.44,-91.41 992.56,-82.98"/>
<polygon fill="#63b8ff" stroke="#63b8ff" points="993.88,-86.23 1001.16,-78.54 990.66,-80.01 993.88,-86.23"/>
</a>
</g>
</g>
<!-- Node11&#45;&gt;Node17 -->
<g id="edge18_Node000011_Node000017" class="edge">
<title>Node11&#45;&gt;Node17</title>
<g id="a_edge18_Node000011_Node000017"><a xlink:title=" ">
<path fill="none" stroke="#63b8ff" d="M813.73,-175.42C730.99,-165.84 528.21,-142.37 430.89,-131.11"/>
<polygon fill="#63b8ff" stroke="#63b8ff" points="431.4,-127.64 421.06,-129.97 430.59,-134.6 431.4,-127.64"/>
</a>
</g>
</g>
<!-- Node20 -->
<g id="Node000020" class="node">
<title>Node20</title>
<g id="a_Node000020"><a xlink:href="step__shared_8h.html" target="_top" xlink:title=" ">
<polygon fill="white" stroke="#666666" points="892.18,-134.25 807.93,-134.25 807.93,-113.5 892.18,-113.5 892.18,-134.25"/>
<text xml:space="preserve" text-anchor="middle" x="850.06" y="-120.75" font-family="Helvetica,sans-Serif" font-size="10.00">step_shared.h</text>
</a>
</g>
</g>
<!-- Node11&#45;&gt;Node20 -->
<g id="edge24_Node000011_Node000020" class="edge">
<title>Node11&#45;&gt;Node20</title>
<g id="a_edge24_Node000011_Node000020"><a xlink:title=" ">
<path fill="none" stroke="#63b8ff" d="M850.06,-169.84C850.06,-163.22 850.06,-154.22 850.06,-146.02"/>
<polygon fill="#63b8ff" stroke="#63b8ff" points="853.56,-146.09 850.06,-136.09 846.56,-146.09 853.56,-146.09"/>
</a>
</g>
</g>
<!-- Node17&#45;&gt;Node4 -->
<g id="edge19_Node000017_Node000004" class="edge">
<title>Node17&#45;&gt;Node4</title>
<g id="a_edge19_Node000017_Node000004"><a xlink:title=" ">
<path fill="none" stroke="#63b8ff" d="M340.94,-113.09C304.74,-103.28 249.26,-88.24 212.57,-78.29"/>
<polygon fill="#63b8ff" stroke="#63b8ff" points="213.86,-75.02 203.29,-75.78 212.03,-81.77 213.86,-75.02"/>
</a>
</g>
</g>
<!-- Node17&#45;&gt;Node8 -->
<g id="edge22_Node000017_Node000008" class="edge">
<title>Node17&#45;&gt;Node8</title>
<g id="a_edge22_Node000017_Node000008"><a xlink:title=" ">
<path fill="none" stroke="#63b8ff" d="M382.12,-113.33C390.53,-98.5 408.89,-70.25 433.06,-56.75 473.96,-33.91 603.13,-20.86 677.63,-15.05"/>
<polygon fill="#63b8ff" stroke="#63b8ff" points="677.88,-18.55 687.59,-14.3 677.35,-11.57 677.88,-18.55"/>
</a>
</g>
</g>
<!-- Node17&#45;&gt;Node12 -->
<g id="edge20_Node000017_Node000012" class="edge">
<title>Node17&#45;&gt;Node12</title>
<g id="a_edge20_Node000017_Node000012"><a xlink:title=" ">
<path fill="none" stroke="#63b8ff" d="M401.01,-113.09C422.07,-104.48 452.96,-91.86 476.66,-82.18"/>
<polygon fill="#63b8ff" stroke="#63b8ff" points="477.97,-85.42 485.91,-78.4 475.33,-78.94 477.97,-85.42"/>
</a>
</g>
</g>
<!-- Node18 -->
<g id="Node000018" class="node">
<title>Node18</title>
<g id="a_Node000018"><a xlink:title=" ">
<polygon fill="#e0e0e0" stroke="#999999" points="380.56,-77.5 289.56,-77.5 289.56,-56.75 380.56,-56.75 380.56,-77.5"/>
<text xml:space="preserve" text-anchor="middle" x="335.06" y="-64" font-family="Helvetica,sans-Serif" font-size="10.00">event_groups.h</text>
</a>
</g>
</g>
<!-- Node17&#45;&gt;Node18 -->
<g id="edge21_Node000017_Node000018" class="edge">
<title>Node17&#45;&gt;Node18</title>
<g id="a_edge21_Node000017_Node000018"><a xlink:title=" ">
<path fill="none" stroke="#63b8ff" d="M369.55,-113.09C363.93,-105.77 356.09,-95.54 349.3,-86.69"/>
<polygon fill="#63b8ff" stroke="#63b8ff" points="352.29,-84.83 343.42,-79.03 346.73,-89.09 352.29,-84.83"/>
</a>
</g>
</g>
<!-- Node19 -->
<g id="Node000019" class="node">
<title>Node19</title>
<g id="a_Node000019"><a xlink:title=" ">
<polygon fill="#e0e0e0" stroke="#999999" points="271.06,-77.5 219.06,-77.5 219.06,-56.75 271.06,-56.75 271.06,-77.5"/>
<text xml:space="preserve" text-anchor="middle" x="245.06" y="-64" font-family="Helvetica,sans-Serif" font-size="10.00">stdlib.h</text>
</a>
</g>
</g>
<!-- Node17&#45;&gt;Node19 -->
<g id="edge23_Node000017_Node000019" class="edge">
<title>Node17&#45;&gt;Node19</title>
<g id="a_edge23_Node000017_Node000019"><a xlink:title=" ">
<path fill="none" stroke="#63b8ff" d="M353.46,-113.09C332.72,-104.48 302.29,-91.86 278.94,-82.18"/>
<polygon fill="#63b8ff" stroke="#63b8ff" points="280.43,-79.01 269.85,-78.41 277.75,-85.47 280.43,-79.01"/>
</a>
</g>
</g>
<!-- Node20&#45;&gt;Node4 -->
<g id="edge25_Node000020_Node000004" class="edge">
<title>Node20&#45;&gt;Node4</title>
<g id="a_edge25_Node000020_Node000004"><a xlink:title=" ">
<path fill="none" stroke="#63b8ff" d="M807.8,-122.66C706.49,-121.54 441.78,-115.13 212.91,-77.69"/>
<polygon fill="#63b8ff" stroke="#63b8ff" points="213.63,-74.26 203.19,-76.07 212.48,-81.16 213.63,-74.26"/>
</a>
</g>
</g>
<!-- Node20&#45;&gt;Node7 -->
<g id="edge26_Node000020_Node000007" class="edge">
<title>Node20&#45;&gt;Node7</title>
<g id="a_edge26_Node000020_Node000007"><a xlink:title=" ">
<path fill="none" stroke="#63b8ff" d="M812.87,-113.09C778.67,-104.08 727.74,-90.68 690.39,-80.85"/>
<polygon fill="#63b8ff" stroke="#63b8ff" points="691.3,-77.47 680.74,-78.31 689.52,-84.24 691.3,-77.47"/>
</a>
</g>
</g>
<!-- Node20&#45;&gt;Node8 -->
<g id="edge28_Node000020_Node000008" class="edge">
<title>Node20&#45;&gt;Node8</title>
<g id="a_edge28_Node000020_Node000008"><a xlink:title=" ">
<path fill="none" stroke="#63b8ff" d="M845.11,-113.45C837.61,-99.77 822.26,-74.14 804.06,-56.75 791.71,-44.96 775.85,-34.56 762.15,-26.71"/>
<polygon fill="#63b8ff" stroke="#63b8ff" points="763.96,-23.72 753.52,-21.95 760.58,-29.85 763.96,-23.72"/>
</a>
</g>
</g>
<!-- Node20&#45;&gt;Node14 -->
<g id="edge29_Node000020_Node000014" class="edge">
<title>Node20&#45;&gt;Node14</title>
<g id="a_edge29_Node000020_Node000014"><a xlink:title=" ">
<path fill="none" stroke="#63b8ff" d="M835.04,-113.09C822.62,-104.99 804.73,-93.33 790.29,-83.92"/>
<polygon fill="#63b8ff" stroke="#63b8ff" points="792.5,-81.18 782.21,-78.65 788.68,-87.05 792.5,-81.18"/>
</a>
</g>
</g>
<!-- Node20&#45;&gt;Node15 -->
<g id="edge30_Node000020_Node000015" class="edge">
<title>Node20&#45;&gt;Node15</title>
<g id="a_edge30_Node000020_Node000015"><a xlink:title=" ">
<path fill="none" stroke="#63b8ff" d="M892.33,-114.01C932.8,-105.48 995.88,-92.08 1060.13,-77.9"/>
<polygon fill="#63b8ff" stroke="#63b8ff" points="1060.8,-81.34 1069.81,-75.76 1059.29,-74.51 1060.8,-81.34"/>
</a>
</g>
</g>
<!-- Node20&#45;&gt;Node16 -->
<g id="edge31_Node000020_Node000016" class="edge">
<title>Node20&#45;&gt;Node16</title>
<g id="a_edge31_Node000020_Node000016"><a xlink:title=" ">
<path fill="none" stroke="#63b8ff" d="M880.81,-113.09C908.6,-104.24 949.76,-91.14 980.48,-81.36"/>
<polygon fill="#63b8ff" stroke="#63b8ff" points="981.37,-84.75 989.84,-78.38 979.25,-78.08 981.37,-84.75"/>
</a>
</g>
</g>
<!-- Node21 -->
<g id="Node000021" class="node">
<title>Node21</title>
<g id="a_Node000021"><a xlink:title=" ">
<polygon fill="#e0e0e0" stroke="#999999" points="973.31,-77.5 850.81,-77.5 850.81,-56.75 973.31,-56.75 973.31,-77.5"/>
<text xml:space="preserve" text-anchor="middle" x="912.06" y="-64" font-family="Helvetica,sans-Serif" font-size="10.00">fsl_device_registers.h</text>
</a>
</g>
</g>
<!-- Node20&#45;&gt;Node21 -->
<g id="edge27_Node000020_Node000021" class="edge">
<title>Node20&#45;&gt;Node21</title>
<g id="a_edge27_Node000020_Node000021"><a xlink:title=" ">
<path fill="none" stroke="#63b8ff" d="M861.14,-113.09C869.87,-105.38 882.25,-94.45 892.62,-85.29"/>
<polygon fill="#63b8ff" stroke="#63b8ff" points="894.76,-88.07 899.93,-78.83 890.12,-82.83 894.76,-88.07"/>
</a>
</g>
</g>
<!-- Node22&#45;&gt;Node4 -->
<g id="edge33_Node000022_Node000004" class="edge">
<title>Node22&#45;&gt;Node4</title>
<g id="a_edge33_Node000022_Node000004"><a xlink:title=" ">
<path fill="none" stroke="#63b8ff" d="M337.21,-169.87C326.88,-155.78 306.07,-129.65 283.06,-113.5 261.51,-98.38 234.14,-86.95 212.35,-79.35"/>
<polygon fill="#63b8ff" stroke="#63b8ff" points="213.55,-76.06 202.95,-76.2 211.32,-82.69 213.55,-76.06"/>
</a>
</g>
</g>
<!-- Node22&#45;&gt;Node8 -->
<g id="edge37_Node000022_Node000008" class="edge">
<title>Node22&#45;&gt;Node8</title>
<g id="a_edge37_Node000022_Node000008"><a xlink:title=" ">
<path fill="none" stroke="#63b8ff" d="M371.83,-169.77C389.7,-162.29 412.43,-150.5 428.06,-134.25 454.64,-106.59 435.33,-79.72 466.06,-56.75 498.73,-32.32 610.08,-20.13 677.92,-14.83"/>
<polygon fill="#63b8ff" stroke="#63b8ff" points="678.01,-18.33 687.72,-14.09 677.49,-11.35 678.01,-18.33"/>
</a>
</g>
</g>
<!-- Node22&#45;&gt;Node9 -->
<g id="edge39_Node000022_Node000009" class="edge">
<title>Node22&#45;&gt;Node9</title>
<g id="a_edge39_Node000022_Node000009"><a xlink:title=" ">
<path fill="none" stroke="#63b8ff" d="M296.84,-177.92C187.98,-172.39 -65.22,-149.45 16.06,-56.75 35.01,-35.13 216.95,-20.53 308.29,-14.49"/>
<polygon fill="#63b8ff" stroke="#63b8ff" points="308.49,-17.99 318.24,-13.85 308.04,-11 308.49,-17.99"/>
</a>
</g>
</g>
<!-- Node22&#45;&gt;Node17 -->
<g id="edge38_Node000022_Node000017" class="edge">
<title>Node22&#45;&gt;Node17</title>
<g id="a_edge38_Node000022_Node000017"><a xlink:title=" ">
<path fill="none" stroke="#63b8ff" d="M349.96,-169.84C354.23,-162.75 360.14,-152.94 365.35,-144.29"/>
<polygon fill="#63b8ff" stroke="#63b8ff" points="368.26,-146.25 370.43,-135.87 362.27,-142.63 368.26,-146.25"/>
</a>
</g>
</g>
<!-- Node23 -->
<g id="Node000023" class="node">
<title>Node23</title>
<g id="a_Node000023"><a xlink:href="tmc2209__shared_8h.html" target="_top" xlink:title=" ">
<polygon fill="white" stroke="#666666" points="241.06,-134.25 135.06,-134.25 135.06,-113.5 241.06,-113.5 241.06,-134.25"/>
<text xml:space="preserve" text-anchor="middle" x="188.06" y="-120.75" font-family="Helvetica,sans-Serif" font-size="10.00">tmc2209_shared.h</text>
</a>
</g>
</g>
<!-- Node22&#45;&gt;Node23 -->
<g id="edge34_Node000022_Node000023" class="edge">
<title>Node22&#45;&gt;Node23</title>
<g id="a_edge34_Node000022_Node000023"><a xlink:title=" ">
<path fill="none" stroke="#63b8ff" d="M316.17,-169.84C291.18,-161.07 254.29,-148.12 226.5,-138.37"/>
<polygon fill="#63b8ff" stroke="#63b8ff" points="227.99,-135.18 217.4,-135.17 225.67,-141.79 227.99,-135.18"/>
</a>
</g>
</g>
<!-- Node23&#45;&gt;Node4 -->
<g id="edge35_Node000023_Node000004" class="edge">
<title>Node23&#45;&gt;Node4</title>
<g id="a_edge35_Node000023_Node000004"><a xlink:title=" ">
<path fill="none" stroke="#63b8ff" d="M185.73,-113.09C184.14,-106.39 181.98,-97.26 180.01,-88.98"/>
<polygon fill="#63b8ff" stroke="#63b8ff" points="183.43,-88.22 177.71,-79.3 176.62,-89.84 183.43,-88.22"/>
</a>
</g>
</g>
<!-- Node24 -->
<g id="Node000024" class="node">
<title>Node24</title>
<g id="a_Node000024"><a xlink:title=" ">
<polygon fill="#e0e0e0" stroke="#999999" points="130.68,-77.5 25.43,-77.5 25.43,-56.75 130.68,-56.75 130.68,-77.5"/>
<text xml:space="preserve" text-anchor="middle" x="78.06" y="-64" font-family="Helvetica,sans-Serif" font-size="10.00">fsl_uart_freertos.h</text>
</a>
</g>
</g>
<!-- Node23&#45;&gt;Node24 -->
<g id="edge36_Node000023_Node000024" class="edge">
<title>Node23&#45;&gt;Node24</title>
<g id="a_edge36_Node000023_Node000024"><a xlink:title=" ">
<path fill="none" stroke="#63b8ff" d="M168.39,-113.09C151.5,-104.68 126.89,-92.43 107.62,-82.84"/>
<polygon fill="#63b8ff" stroke="#63b8ff" points="109.42,-79.83 98.91,-78.5 106.3,-86.09 109.42,-79.83"/>
</a>
</g>
</g>
<!-- Node26&#45;&gt;Node4 -->
<g id="edge48_Node000026_Node000004" class="edge">
<title>Node26&#45;&gt;Node4</title>
<g id="a_edge48_Node000026_Node000004"><a xlink:title=" ">
<path fill="none" stroke="#63b8ff" d="M595.22,-283.29C509.75,-259.72 300.12,-201.21 288.06,-191 258.77,-166.22 275.96,-141.8 250.06,-113.5 238.48,-100.85 222.57,-90.55 208.38,-82.98"/>
<polygon fill="#63b8ff" stroke="#63b8ff" points="210.29,-80.02 199.79,-78.63 207.13,-86.27 210.29,-80.02"/>
</a>
</g>
</g>
<!-- Node26&#45;&gt;Node6 -->
<g id="edge49_Node000026_Node000006" class="edge">
<title>Node26&#45;&gt;Node6</title>
<g id="a_edge49_Node000026_Node000006"><a xlink:title=" ">
<path fill="none" stroke="#63b8ff" d="M631.06,-283.34C631.06,-276.72 631.06,-267.72 631.06,-259.52"/>
<polygon fill="#63b8ff" stroke="#63b8ff" points="634.56,-259.59 631.06,-249.59 627.56,-259.59 634.56,-259.59"/>
</a>
</g>
</g>
<!-- Node27&#45;&gt;Node8 -->
<g id="edge52_Node000027_Node000008" class="edge">
<title>Node27&#45;&gt;Node8</title>
<g id="a_edge52_Node000027_Node000008"><a xlink:title=" ">
<path fill="none" stroke="#63b8ff" d="M1206.6,-113.33C1203.78,-98.5 1196.09,-70.25 1177.06,-56.75 1145.78,-34.56 897.88,-19.6 786.23,-13.92"/>
<polygon fill="#63b8ff" stroke="#63b8ff" points="786.58,-10.44 776.42,-13.43 786.23,-17.43 786.58,-10.44"/>
</a>
</g>
</g>
<!-- Node27&#45;&gt;Node12 -->
<g id="edge51_Node000027_Node000012" class="edge">
<title>Node27&#45;&gt;Node12</title>
<g id="a_edge51_Node000027_Node000012"><a xlink:title=" ">
<path fill="none" stroke="#63b8ff" d="M1187.58,-121.83C1093.78,-116.97 703.98,-96.15 558.14,-77.54"/>
<polygon fill="#63b8ff" stroke="#63b8ff" points="558.72,-74.09 548.34,-76.24 557.79,-81.03 558.72,-74.09"/>
</a>
</g>
</g>
</g>
</svg>

<g id="navigator" transform="translate(0 0)" fill="#404254">
  <rect fill="#f2f5e9" fill-opacity="0.5" stroke="#606060" stroke-width=".5" x="0" y="0" width="60" height="60"/>
  <use id="zoomplus" xlink:href="#zoomPlus" x="17" y="9" onmousedown="handleZoom(evt,'in')"/>
  <use id="zoomminus" xlink:href="#zoomMin" x="42" y="9" onmousedown="handleZoom(evt,'out')"/>
  <use id="reset" xlink:href="#resetDef" x="30" y="36" onmousedown="handleReset()"/>
   <use id="arrowup" xlink:href="#arrowUp" x="0" y="0" onmousedown="handlePan(0,-1)"/>
  <use id="arrowright" xlink:href="#arrowRight" x="0" y="0" onmousedown="handlePan(1,0)"/>
  <use id="arrowdown" xlink:href="#arrowDown" x="0" y="0" onmousedown="handlePan(0,1)"/>
  <use id="arrowleft" xlink:href="#arrowLeft" x="0" y="0" onmousedown="handlePan(-1,0)"/>
</g>
<svg viewBox="0 0 15 15" width="100%" height="30px" preserveAspectRatio="xMaxYMin meet">
 <g id="arrow_out" transform="scale(0.3 0.3)">
  <a xlink:href="motor__motion_8c__incl_org.svg" target="_base">
   <rect id="button" ry="5" rx="5" y="6" x="6" height="38" width="38"
        fill="#f2f5e9" fill-opacity="0.5" stroke="#606060" stroke-width="1.0"/>
   <path id="arrow"
     d="M 11.500037,31.436501 C 11.940474,20.09759 22.043105,11.32322 32.158766,21.979434 L 37.068811,17.246167 C 37.068811,17.246167 37.088388,32 37.088388,32 L 22.160133,31.978069 C 22.160133,31.978069 26.997745,27.140456 26.997745,27.140456 C 18.528582,18.264221 13.291696,25.230495 11.500037,31.436501 z"
     style="fill:#404040;"/>
  </a>
 </g>
</svg>

<style type='text/css'>
<![CDATA[
[data-mouse-over-selected='false'] { opacity: 0.7; }
[data-mouse-over-selected='true']  { opacity: 1.0; }
]]>
</style>
<script type="application/ecmascript"><![CDATA[
document.addEventListener('DOMContentLoaded', (event) => {
  highlightEdges();
  highlightAdjacentNodes();
});
]]></script>
</svg>
