<?xml version="1.0" encoding="UTF-8" standalone="no"?>
<!DOCTYPE svg PUBLIC "-//W3C//DTD SVG 1.1//EN"
 "http://www.w3.org/Graphics/SVG/1.1/DTD/svg11.dtd">
<!-- Generated by graphviz version 14.1.5 (0)
 -->
<!-- Title: source/motion/motor/motor_motion.h Pages: 1 -->
<!--zoomable 382 -->

<svg id="main" version="1.1" xmlns="http://www.w3.org/2000/svg" xmlns:xlink="http://www.w3.org/1999/xlink" xml:space="preserve" onload="init(evt)">

<style type="text/css"><![CDATA[
.node, .edge {opacity: 0.7;}
.node.selected, .edge.selected {opacity: 1;}
.edge:hover path { stroke: red; }
.edge:hover polygon { stroke: red; fill: red; }
]]></style>

<defs>
  <circle id="rim" cx="0" cy="0" r="7"/>
  <circle id="rim2" cx="0" cy="0" r="3.5"/>
  <g id="zoomPlus">
    <use xlink:href="#rim" fill="#404040"><set attributeName="fill" to="#808080" begin="zoomplus.mouseover" end="zoomplus.mouseout"/></use>
    <path d="M-4,0h8M0,-4v8" fill="none" stroke="white" stroke-width="1.5" pointer-events="none"/>
  </g>
  <g id="zoomMin">
    <use xlink:href="#rim" fill="#404040"><set attributeName="fill" to="#808080" begin="zoomminus.mouseover" end="zoomminus.mouseout"/></use>
    <path d="M-4,0h8" fill="none" stroke="white" stroke-width="1.5" pointer-events="none"/>
  </g>
  <g id="arrowUp" transform="translate(30 24)">
    <use xlink:href="#rim"/>
    <path pointer-events="none" fill="none" stroke="white" stroke-width="1.5" d="M0,-3.0v7 M-2.5,-0.5L0,-3.0L2.5,-0.5"/>
  </g>
  <g id="arrowRight" transform="rotate(90) translate(36 -43)">
    <use xlink:href="#rim"/>
    <path pointer-events="none" fill="none" stroke="white" stroke-width="1.5" d="M0,-3.0v7 M-2.5,-0.5L0,-3.0L2.5,-0.5"/>
  </g>
  <g id="arrowDown" transform="rotate(180) translate(-30 -48)">
    <use xlink:href="#rim"/>
    <path pointer-events="none" fill="none" stroke="white" stroke-width="1.5" d="M0,-3.0v7 M-2.5,-0.5L0,-3.0L2.5,-0.5"/>
  </g>
  <g id="arrowLeft" transform="rotate(270) translate(-36 17)">
    <use xlink:href="#rim"/>
    <path pointer-events="none" fill="none" stroke="white" stroke-width="1.5" d="M0,-3.0v7 M-2.5,-0.5L0,-3.0L2.5,-0.5"/>
  </g>
  <g id="resetDef">
    <use xlink:href="#rim2" fill="#404040"><set attributeName="fill" to="#808080" begin="reset.mouseover" end="reset.mouseout"/></use>
  </g>
</defs>
<script type="application/ecmascript">
var viewWidth = 1214;
var viewHeight = 382;
var sectionId = 'dynsection-0';
</script>
<script type="application/ecmascript" xlink:href="svg.min.js"/>
<svg id="graph" class="graph">
<g id="viewport">
<title>source/motion/motor/motor_motion.h</title>
<!-- Node1 -->
<g id="Node000001" class="node">
<title>Node1</title>
<g id="a_Node000001"><a xlink:title=" ">
<polygon fill="#999999" stroke="#666666" points="257.5,-374 139.5,-374 139.5,-340.5 257.5,-340.5 257.5,-374"/>
<text xml:space="preserve" text-anchor="start" x="147.5" y="-360.5" font-family="Helvetica,sans-Serif" font-size="10.00">source/motion/motor</text>
<text xml:space="preserve" text-anchor="middle" x="198.5" y="-347.75" font-family="Helvetica,sans-Serif" font-size="10.00">/motor_motion.h</text>
</a>
</g>
</g>
<!-- Node2 -->
<g id="Node000002" class="node">
<title>Node2</title>
<g id="a_Node000002"><a xlink:href="motor__internal_8h.html" target="_top" xlink:title=" ">
<polygon fill="white" stroke="#666666" points="414,-304.5 317,-304.5 317,-283.75 414,-283.75 414,-304.5"/>
<text xml:space="preserve" text-anchor="middle" x="365.5" y="-291" font-family="Helvetica,sans-Serif" font-size="10.00">motor_internal.h</text>
</a>
</g>
</g>
<!-- Node1&#45;&gt;Node2 -->
<g id="edge1_Node000001_Node000002" class="edge">
<title>Node1&#45;&gt;Node2</title>
<g id="a_edge1_Node000001_Node000002"><a xlink:title=" ">
<path fill="none" stroke="#63b8ff" d="M242.81,-340.03C269.41,-330.29 302.87,-318.05 328.13,-308.8"/>
<polygon fill="#63b8ff" stroke="#63b8ff" points="329.14,-312.16 337.33,-305.44 326.74,-305.59 329.14,-312.16"/>
</a>
</g>
</g>
<!-- Node4 -->
<g id="Node000004" class="node">
<title>Node4</title>
<g id="a_Node000004"><a xlink:title=" ">
<polygon fill="#e0e0e0" stroke="#999999" points="61,-247.75 0,-247.75 0,-227 61,-227 61,-247.75"/>
<text xml:space="preserve" text-anchor="middle" x="30.5" y="-234.25" font-family="Helvetica,sans-Serif" font-size="10.00">stdbool.h</text>
</a>
</g>
</g>
<!-- Node1&#45;&gt;Node4 -->
<g id="edge45_Node000001_Node000004" class="edge">
<title>Node1&#45;&gt;Node4</title>
<g id="a_edge45_Node000001_Node000004"><a xlink:title=" ">
<path fill="none" stroke="#63b8ff" d="M175.49,-340.11C143.41,-317.59 85.56,-277 53.48,-254.5"/>
<polygon fill="#63b8ff" stroke="#63b8ff" points="55.85,-251.88 45.65,-249.01 51.83,-257.61 55.85,-251.88"/>
</a>
</g>
</g>
<!-- Node3 -->
<g id="Node000003" class="node">
<title>Node3</title>
<g id="a_Node000003"><a xlink:title=" ">
<polygon fill="#e0e0e0" stroke="#999999" points="234.88,-77.5 182.12,-77.5 182.12,-56.75 234.88,-56.75 234.88,-77.5"/>
<text xml:space="preserve" text-anchor="middle" x="208.5" y="-64" font-family="Helvetica,sans-Serif" font-size="10.00">stdint.h</text>
</a>
</g>
</g>
<!-- Node2&#45;&gt;Node3 -->
<g id="edge2_Node000002_Node000003" class="edge">
<title>Node2&#45;&gt;Node3</title>
<g id="a_edge2_Node000002_Node000003"><a xlink:title=" ">
<path fill="none" stroke="#63b8ff" d="M338.96,-283.36C290.17,-263.79 187.47,-214.59 146.5,-134.25 136.18,-114.01 157.22,-95.57 177.53,-83.33"/>
<polygon fill="#63b8ff" stroke="#63b8ff" points="178.98,-86.53 185.98,-78.59 175.55,-80.43 178.98,-86.53"/>
</a>
</g>
</g>
<!-- Node2&#45;&gt;Node4 -->
<g id="edge3_Node000002_Node000004" class="edge">
<title>Node2&#45;&gt;Node4</title>
<g id="a_edge3_Node000002_Node000004"><a xlink:title=" ">
<path fill="none" stroke="#63b8ff" d="M316.63,-286.24C258.88,-277.93 159.98,-263.15 75.5,-247.75 74.5,-247.57 73.5,-247.38 72.48,-247.19"/>
<polygon fill="#63b8ff" stroke="#63b8ff" points="73.42,-243.81 62.93,-245.33 72.07,-250.68 73.42,-243.81"/>
</a>
</g>
</g>
<!-- Node5 -->
<g id="Node000005" class="node">
<title>Node5</title>
<g id="a_Node000005"><a xlink:href="motor__core_8h.html" target="_top" xlink:title=" ">
<polygon fill="white" stroke="#666666" points="840.75,-247.75 760.25,-247.75 760.25,-227 840.75,-227 840.75,-247.75"/>
<text xml:space="preserve" text-anchor="middle" x="800.5" y="-234.25" font-family="Helvetica,sans-Serif" font-size="10.00">motor_core.h</text>
</a>
</g>
</g>
<!-- Node2&#45;&gt;Node5 -->
<g id="edge4_Node000002_Node000005" class="edge">
<title>Node2&#45;&gt;Node5</title>
<g id="a_edge4_Node000002_Node000005"><a xlink:title=" ">
<path fill="none" stroke="#63b8ff" d="M414.13,-287C496.71,-276.61 663.63,-255.6 748.46,-244.92"/>
<polygon fill="#63b8ff" stroke="#63b8ff" points="748.88,-248.4 758.37,-243.68 748.01,-241.45 748.88,-248.4"/>
</a>
</g>
</g>
<!-- Node11 -->
<g id="Node000011" class="node">
<title>Node11</title>
<g id="a_Node000011"><a xlink:title=" ">
<polygon fill="#e0e0e0" stroke="#999999" points="580.25,-77.5 508.75,-77.5 508.75,-56.75 580.25,-56.75 580.25,-77.5"/>
<text xml:space="preserve" text-anchor="middle" x="544.5" y="-64" font-family="Helvetica,sans-Serif" font-size="10.00">FreeRTOS.h</text>
</a>
</g>
</g>
<!-- Node2&#45;&gt;Node11 -->
<g id="edge42_Node000002_Node000011" class="edge">
<title>Node2&#45;&gt;Node11</title>
<g id="a_edge42_Node000002_Node000011"><a xlink:title=" ">
<path fill="none" stroke="#63b8ff" d="M398.06,-283.35C417.59,-276.12 441.79,-264.58 458.5,-247.75 504.69,-201.22 529.64,-125.05 539.47,-88.7"/>
<polygon fill="#63b8ff" stroke="#63b8ff" points="542.84,-89.63 541.95,-79.08 536.07,-87.89 542.84,-89.63"/>
</a>
</g>
</g>
<!-- Node16 -->
<g id="Node000016" class="node">
<title>Node16</title>
<g id="a_Node000016"><a xlink:href="cmd__handle_8h.html" target="_top" xlink:title=" ">
<polygon fill="white" stroke="#666666" points="408.62,-134.25 324.38,-134.25 324.38,-113.5 408.62,-113.5 408.62,-134.25"/>
<text xml:space="preserve" text-anchor="middle" x="366.5" y="-120.75" font-family="Helvetica,sans-Serif" font-size="10.00">cmd_handle.h</text>
</a>
</g>
</g>
<!-- Node2&#45;&gt;Node16 -->
<g id="edge44_Node000002_Node000016" class="edge">
<title>Node2&#45;&gt;Node16</title>
<g id="a_edge44_Node000002_Node000016"><a xlink:title=" ">
<path fill="none" stroke="#63b8ff" d="M365.56,-283.6C365.71,-257.23 366.16,-182.83 366.37,-146.03"/>
<polygon fill="#63b8ff" stroke="#63b8ff" points="369.87,-146.25 366.43,-136.23 362.87,-146.21 369.87,-146.25"/>
</a>
</g>
</g>
<!-- Node24 -->
<g id="Node000024" class="node">
<title>Node24</title>
<g id="a_Node000024"><a xlink:title=" ">
<polygon fill="#e0e0e0" stroke="#999999" points="449,-247.75 394,-247.75 394,-227 449,-227 449,-247.75"/>
<text xml:space="preserve" text-anchor="middle" x="421.5" y="-234.25" font-family="Helvetica,sans-Serif" font-size="10.00">queue.h</text>
</a>
</g>
</g>
<!-- Node2&#45;&gt;Node24 -->
<g id="edge43_Node000002_Node000024" class="edge">
<title>Node2&#45;&gt;Node24</title>
<g id="a_edge43_Node000002_Node000024"><a xlink:title=" ">
<path fill="none" stroke="#63b8ff" d="M375.51,-283.34C383.24,-275.78 394.13,-265.14 403.37,-256.1"/>
<polygon fill="#63b8ff" stroke="#63b8ff" points="405.79,-258.63 410.49,-249.14 400.9,-253.62 405.79,-258.63"/>
</a>
</g>
</g>
<!-- Node6 -->
<g id="Node000006" class="node">
<title>Node6</title>
<g id="a_Node000006"><a xlink:href="pca9555a_8h.html" target="_top" xlink:title=" ">
<polygon fill="white" stroke="#666666" points="752.5,-77.5 598.5,-77.5 598.5,-56.75 752.5,-56.75 752.5,-77.5"/>
<text xml:space="preserve" text-anchor="middle" x="675.5" y="-64" font-family="Helvetica,sans-Serif" font-size="10.00">driver/pca9555a/pca9555a.h</text>
</a>
</g>
</g>
<!-- Node5&#45;&gt;Node6 -->
<g id="edge5_Node000005_Node000006" class="edge">
<title>Node5&#45;&gt;Node6</title>
<g id="a_edge5_Node000005_Node000006"><a xlink:title=" ">
<path fill="none" stroke="#63b8ff" d="M759.76,-227.9C738.39,-221.36 713.58,-210.09 698.5,-191 675.26,-161.58 672.91,-115.92 673.84,-89.33"/>
<polygon fill="#63b8ff" stroke="#63b8ff" points="677.33,-89.66 674.4,-79.47 670.34,-89.26 677.33,-89.66"/>
</a>
</g>
</g>
<!-- Node9 -->
<g id="Node000009" class="node">
<title>Node9</title>
<g id="a_Node000009"><a xlink:title=" ">
<polygon fill="#e0e0e0" stroke="#999999" points="795.88,-191 707.12,-191 707.12,-170.25 795.88,-170.25 795.88,-191"/>
<text xml:space="preserve" text-anchor="middle" x="751.5" y="-177.5" font-family="Helvetica,sans-Serif" font-size="10.00">MK22F51212.h</text>
</a>
</g>
</g>
<!-- Node5&#45;&gt;Node9 -->
<g id="edge8_Node000005_Node000009" class="edge">
<title>Node5&#45;&gt;Node9</title>
<g id="a_edge8_Node000005_Node000009"><a xlink:title=" ">
<path fill="none" stroke="#63b8ff" d="M791.74,-226.59C785.05,-219.11 775.65,-208.61 767.61,-199.63"/>
<polygon fill="#63b8ff" stroke="#63b8ff" points="770.47,-197.57 761.19,-192.46 765.25,-202.24 770.47,-197.57"/>
</a>
</g>
</g>
<!-- Node10 -->
<g id="Node000010" class="node">
<title>Node10</title>
<g id="a_Node000010"><a xlink:href="step__core_8h.html" target="_top" xlink:title=" ">
<polygon fill="white" stroke="#666666" points="886.62,-191 814.38,-191 814.38,-170.25 886.62,-170.25 886.62,-191"/>
<text xml:space="preserve" text-anchor="middle" x="850.5" y="-177.5" font-family="Helvetica,sans-Serif" font-size="10.00">step_core.h</text>
</a>
</g>
</g>
<!-- Node5&#45;&gt;Node10 -->
<g id="edge9_Node000005_Node000010" class="edge">
<title>Node5&#45;&gt;Node10</title>
<g id="a_edge9_Node000005_Node000010"><a xlink:title=" ">
<path fill="none" stroke="#63b8ff" d="M809.44,-226.59C816.26,-219.11 825.86,-208.61 834.06,-199.63"/>
<polygon fill="#63b8ff" stroke="#63b8ff" points="836.46,-202.19 840.62,-192.45 831.29,-197.47 836.46,-202.19"/>
</a>
</g>
</g>
<!-- Node13 -->
<g id="Node000013" class="node">
<title>Node13</title>
<g id="a_Node000013"><a xlink:title=" ">
<polygon fill="#e0e0e0" stroke="#999999" points="1124.88,-77.5 1066.12,-77.5 1066.12,-56.75 1124.88,-56.75 1124.88,-77.5"/>
<text xml:space="preserve" text-anchor="middle" x="1095.5" y="-64" font-family="Helvetica,sans-Serif" font-size="10.00">fsl_ftm.h</text>
</a>
</g>
</g>
<!-- Node5&#45;&gt;Node13 -->
<g id="edge39_Node000005_Node000013" class="edge">
<title>Node5&#45;&gt;Node13</title>
<g id="a_edge39_Node000005_Node000013"><a xlink:title=" ">
<path fill="none" stroke="#63b8ff" d="M840.93,-230.9C875.69,-224.92 926.28,-213.08 965.5,-191 1014.43,-163.45 1059.09,-113.53 1081.1,-86.57"/>
<polygon fill="#63b8ff" stroke="#63b8ff" points="1083.69,-88.94 1087.21,-78.95 1078.23,-84.57 1083.69,-88.94"/>
</a>
</g>
</g>
<!-- Node14 -->
<g id="Node000014" class="node">
<title>Node14</title>
<g id="a_Node000014"><a xlink:title=" ">
<polygon fill="#e0e0e0" stroke="#999999" points="1206.12,-77.5 1142.88,-77.5 1142.88,-56.75 1206.12,-56.75 1206.12,-77.5"/>
<text xml:space="preserve" text-anchor="middle" x="1174.5" y="-64" font-family="Helvetica,sans-Serif" font-size="10.00">fsl_gpio.h</text>
</a>
</g>
</g>
<!-- Node5&#45;&gt;Node14 -->
<g id="edge40_Node000005_Node000014" class="edge">
<title>Node5&#45;&gt;Node14</title>
<g id="a_edge40_Node000005_Node000014"><a xlink:title=" ">
<path fill="none" stroke="#63b8ff" d="M840.89,-231.36C881.12,-225.36 944,-213.21 994.5,-191 1058.22,-162.97 1123.31,-111.77 1154.9,-85.18"/>
<polygon fill="#63b8ff" stroke="#63b8ff" points="1157.1,-87.9 1162.44,-78.75 1152.56,-82.58 1157.1,-87.9"/>
</a>
</g>
</g>
<!-- Node15 -->
<g id="Node000015" class="node">
<title>Node15</title>
<g id="a_Node000015"><a xlink:title=" ">
<polygon fill="#e0e0e0" stroke="#999999" points="1048.38,-77.5 986.62,-77.5 986.62,-56.75 1048.38,-56.75 1048.38,-77.5"/>
<text xml:space="preserve" text-anchor="middle" x="1017.5" y="-64" font-family="Helvetica,sans-Serif" font-size="10.00">fsl_port.h</text>
</a>
</g>
</g>
<!-- Node5&#45;&gt;Node15 -->
<g id="edge41_Node000005_Node000015" class="edge">
<title>Node5&#45;&gt;Node15</title>
<g id="a_edge41_Node000005_Node000015"><a xlink:title=" ">
<path fill="none" stroke="#63b8ff" d="M840.96,-227.43C887.69,-214.89 963.27,-187.42 1003.5,-134.25 1013.26,-121.35 1016.57,-103.18 1017.54,-89.15"/>
<polygon fill="#63b8ff" stroke="#63b8ff" points="1021.04,-89.31 1017.85,-79.21 1014.04,-89.09 1021.04,-89.31"/>
</a>
</g>
</g>
<!-- Node21 -->
<g id="Node000021" class="node">
<title>Node21</title>
<g id="a_Node000021"><a xlink:href="tmc2209__core_8h.html" target="_top" xlink:title=" ">
<polygon fill="white" stroke="#666666" points="336.5,-191 242.5,-191 242.5,-170.25 336.5,-170.25 336.5,-191"/>
<text xml:space="preserve" text-anchor="middle" x="289.5" y="-177.5" font-family="Helvetica,sans-Serif" font-size="10.00">tmc2209_core.h</text>
</a>
</g>
</g>
<!-- Node5&#45;&gt;Node21 -->
<g id="edge31_Node000005_Node000021" class="edge">
<title>Node5&#45;&gt;Node21</title>
<g id="a_edge31_Node000005_Node000021"><a xlink:title=" ">
<path fill="none" stroke="#63b8ff" d="M759.98,-232.03C669.99,-222.39 453.19,-199.16 348.3,-187.93"/>
<polygon fill="#63b8ff" stroke="#63b8ff" points="348.81,-184.46 338.49,-186.87 348.06,-191.42 348.81,-184.46"/>
</a>
</g>
</g>
<!-- Node7 -->
<g id="Node000007" class="node">
<title>Node7</title>
<g id="a_Node000007"><a xlink:title=" ">
<polygon fill="#e0e0e0" stroke="#999999" points="718,-20.75 633,-20.75 633,0 718,0 718,-20.75"/>
<text xml:space="preserve" text-anchor="middle" x="675.5" y="-7.25" font-family="Helvetica,sans-Serif" font-size="10.00">fsl_common.h</text>
</a>
</g>
</g>
<!-- Node6&#45;&gt;Node7 -->
<g id="edge6_Node000006_Node000007" class="edge">
<title>Node6&#45;&gt;Node7</title>
<g id="a_edge6_Node000006_Node000007"><a xlink:title=" ">
<path fill="none" stroke="#63b8ff" d="M675.5,-56.34C675.5,-49.72 675.5,-40.72 675.5,-32.52"/>
<polygon fill="#63b8ff" stroke="#63b8ff" points="679,-32.59 675.5,-22.59 672,-32.59 679,-32.59"/>
</a>
</g>
</g>
<!-- Node8 -->
<g id="Node000008" class="node">
<title>Node8</title>
<g id="a_Node000008"><a xlink:title=" ">
<polygon fill="#e0e0e0" stroke="#999999" points="343.38,-20.75 263.62,-20.75 263.62,0 343.38,0 343.38,-20.75"/>
<text xml:space="preserve" text-anchor="middle" x="303.5" y="-7.25" font-family="Helvetica,sans-Serif" font-size="10.00">peripherals.h</text>
</a>
</g>
</g>
<!-- Node6&#45;&gt;Node8 -->
<g id="edge7_Node000006_Node000008" class="edge">
<title>Node6&#45;&gt;Node8</title>
<g id="a_edge7_Node000006_Node000008"><a xlink:title=" ">
<path fill="none" stroke="#63b8ff" d="M608.56,-56.27C535.85,-45.57 421.24,-28.7 355.15,-18.98"/>
<polygon fill="#63b8ff" stroke="#63b8ff" points="355.69,-15.52 345.29,-17.53 354.67,-22.44 355.69,-15.52"/>
</a>
</g>
</g>
<!-- Node10&#45;&gt;Node6 -->
<g id="edge10_Node000010_Node000006" class="edge">
<title>Node10&#45;&gt;Node6</title>
<g id="a_edge10_Node000010_Node000006"><a xlink:title=" ">
<path fill="none" stroke="#63b8ff" d="M830.73,-169.89C813.44,-161.15 787.82,-147.67 766.5,-134.25 741.82,-118.71 714.96,-98.8 696.87,-84.9"/>
<polygon fill="#63b8ff" stroke="#63b8ff" points="699.04,-82.15 688.99,-78.8 694.75,-87.69 699.04,-82.15"/>
</a>
</g>
</g>
<!-- Node10&#45;&gt;Node7 -->
<g id="edge13_Node000010_Node000007" class="edge">
<title>Node10&#45;&gt;Node7</title>
<g id="a_edge13_Node000010_Node000007"><a xlink:title=" ">
<path fill="none" stroke="#63b8ff" d="M837.04,-170.01C825.92,-161.55 810.26,-148.4 799.5,-134.25 776.29,-103.71 788.22,-84.27 761.5,-56.75 748.48,-43.34 730.63,-33.04 714.57,-25.67"/>
<polygon fill="#63b8ff" stroke="#63b8ff" points="716.29,-22.6 705.73,-21.84 713.52,-29.03 716.29,-22.6"/>
</a>
</g>
</g>
<!-- Node10&#45;&gt;Node11 -->
<g id="edge11_Node000010_Node000011" class="edge">
<title>Node10&#45;&gt;Node11</title>
<g id="a_edge11_Node000010_Node000011"><a xlink:title=" ">
<path fill="none" stroke="#63b8ff" d="M823.61,-169.83C768.86,-149.88 644.31,-104.5 581.78,-81.71"/>
<polygon fill="#63b8ff" stroke="#63b8ff" points="583.23,-78.51 572.64,-78.38 580.84,-85.09 583.23,-78.51"/>
</a>
</g>
</g>
<!-- Node12 -->
<g id="Node000012" class="node">
<title>Node12</title>
<g id="a_Node000012"><a xlink:title=" ">
<polygon fill="#e0e0e0" stroke="#999999" points="994.5,-134.25 948.5,-134.25 948.5,-113.5 994.5,-113.5 994.5,-134.25"/>
<text xml:space="preserve" text-anchor="middle" x="971.5" y="-120.75" font-family="Helvetica,sans-Serif" font-size="10.00">task.h</text>
</a>
</g>
</g>
<!-- Node10&#45;&gt;Node12 -->
<g id="edge12_Node000010_Node000012" class="edge">
<title>Node10&#45;&gt;Node12</title>
<g id="a_edge12_Node000010_Node000012"><a xlink:title=" ">
<path fill="none" stroke="#63b8ff" d="M872.13,-169.84C890.97,-161.31 918.54,-148.84 939.86,-139.19"/>
<polygon fill="#63b8ff" stroke="#63b8ff" points="941.01,-142.51 948.68,-135.2 938.12,-136.14 941.01,-142.51"/>
</a>
</g>
</g>
<!-- Node10&#45;&gt;Node13 -->
<g id="edge14_Node000010_Node000013" class="edge">
<title>Node10&#45;&gt;Node13</title>
<g id="a_edge14_Node000010_Node000013"><a xlink:title=" ">
<path fill="none" stroke="#63b8ff" d="M887.01,-172.42C918.84,-165.31 965.69,-152.79 1003.5,-134.25 1030.72,-120.91 1058.52,-99.66 1076.32,-84.86"/>
<polygon fill="#63b8ff" stroke="#63b8ff" points="1078.15,-87.91 1083.51,-78.77 1073.62,-82.56 1078.15,-87.91"/>
</a>
</g>
</g>
<!-- Node10&#45;&gt;Node14 -->
<g id="edge15_Node000010_Node000014" class="edge">
<title>Node10&#45;&gt;Node14</title>
<g id="a_edge15_Node000010_Node000014"><a xlink:title=" ">
<path fill="none" stroke="#63b8ff" d="M887.09,-172.85C924.68,-165.36 984.59,-151.99 1034.5,-134.25 1074.75,-119.94 1118.97,-97.92 1146.73,-83.27"/>
<polygon fill="#63b8ff" stroke="#63b8ff" points="1148.35,-86.37 1155.53,-78.58 1145.06,-80.2 1148.35,-86.37"/>
</a>
</g>
</g>
<!-- Node10&#45;&gt;Node15 -->
<g id="edge16_Node000010_Node000015" class="edge">
<title>Node10&#45;&gt;Node15</title>
<g id="a_edge16_Node000010_Node000015"><a xlink:title=" ">
<path fill="none" stroke="#63b8ff" d="M862.86,-169.75C879.76,-156.41 911.22,-132.15 939.5,-113.5 955.76,-102.78 974.62,-91.77 989.72,-83.28"/>
<polygon fill="#63b8ff" stroke="#63b8ff" points="991.14,-86.5 998.18,-78.58 987.74,-80.38 991.14,-86.5"/>
</a>
</g>
</g>
<!-- Node10&#45;&gt;Node16 -->
<g id="edge17_Node000010_Node000016" class="edge">
<title>Node10&#45;&gt;Node16</title>
<g id="a_edge17_Node000010_Node000016"><a xlink:title=" ">
<path fill="none" stroke="#63b8ff" d="M813.9,-171.83C810.73,-171.26 807.56,-170.72 804.5,-170.25 666.79,-149.14 503.19,-135.09 420.34,-128.75"/>
<polygon fill="#63b8ff" stroke="#63b8ff" points="420.7,-125.26 410.47,-128 420.17,-132.24 420.7,-125.26"/>
</a>
</g>
</g>
<!-- Node19 -->
<g id="Node000019" class="node">
<title>Node19</title>
<g id="a_Node000019"><a xlink:href="step__shared_8h.html" target="_top" xlink:title=" ">
<polygon fill="white" stroke="#666666" points="892.62,-134.25 808.38,-134.25 808.38,-113.5 892.62,-113.5 892.62,-134.25"/>
<text xml:space="preserve" text-anchor="middle" x="850.5" y="-120.75" font-family="Helvetica,sans-Serif" font-size="10.00">step_shared.h</text>
</a>
</g>
</g>
<!-- Node10&#45;&gt;Node19 -->
<g id="edge23_Node000010_Node000019" class="edge">
<title>Node10&#45;&gt;Node19</title>
<g id="a_edge23_Node000010_Node000019"><a xlink:title=" ">
<path fill="none" stroke="#63b8ff" d="M850.5,-169.84C850.5,-163.22 850.5,-154.22 850.5,-146.02"/>
<polygon fill="#63b8ff" stroke="#63b8ff" points="854,-146.09 850.5,-136.09 847,-146.09 854,-146.09"/>
</a>
</g>
</g>
<!-- Node16&#45;&gt;Node3 -->
<g id="edge18_Node000016_Node000003" class="edge">
<title>Node16&#45;&gt;Node3</title>
<g id="a_edge18_Node000016_Node000003"><a xlink:title=" ">
<path fill="none" stroke="#63b8ff" d="M338.25,-113.09C312.47,-104.15 274.19,-90.89 245.88,-81.08"/>
<polygon fill="#63b8ff" stroke="#63b8ff" points="247.21,-77.84 236.62,-77.87 244.92,-84.45 247.21,-77.84"/>
</a>
</g>
</g>
<!-- Node16&#45;&gt;Node7 -->
<g id="edge21_Node000016_Node000007" class="edge">
<title>Node16&#45;&gt;Node7</title>
<g id="a_edge21_Node000016_Node000007"><a xlink:title=" ">
<path fill="none" stroke="#63b8ff" d="M377.99,-113.18C395.78,-98.68 431.6,-71.47 466.5,-56.75 516.8,-35.54 578.26,-23.73 621.47,-17.51"/>
<polygon fill="#63b8ff" stroke="#63b8ff" points="621.94,-20.98 631.37,-16.15 620.99,-14.05 621.94,-20.98"/>
</a>
</g>
</g>
<!-- Node16&#45;&gt;Node11 -->
<g id="edge19_Node000016_Node000011" class="edge">
<title>Node16&#45;&gt;Node11</title>
<g id="a_edge19_Node000016_Node000011"><a xlink:title=" ">
<path fill="none" stroke="#63b8ff" d="M398.32,-113.09C427.22,-104.2 470.05,-91.02 501.89,-81.23"/>
<polygon fill="#63b8ff" stroke="#63b8ff" points="502.68,-84.65 511.21,-78.37 500.62,-77.96 502.68,-84.65"/>
</a>
</g>
</g>
<!-- Node17 -->
<g id="Node000017" class="node">
<title>Node17</title>
<g id="a_Node000017"><a xlink:title=" ">
<polygon fill="#e0e0e0" stroke="#999999" points="414,-77.5 323,-77.5 323,-56.75 414,-56.75 414,-77.5"/>
<text xml:space="preserve" text-anchor="middle" x="368.5" y="-64" font-family="Helvetica,sans-Serif" font-size="10.00">event_groups.h</text>
</a>
</g>
</g>
<!-- Node16&#45;&gt;Node17 -->
<g id="edge20_Node000016_Node000017" class="edge">
<title>Node16&#45;&gt;Node17</title>
<g id="a_edge20_Node000016_Node000017"><a xlink:title=" ">
<path fill="none" stroke="#63b8ff" d="M366.86,-113.09C367.1,-106.47 367.43,-97.47 367.73,-89.27"/>
<polygon fill="#63b8ff" stroke="#63b8ff" points="371.22,-89.46 368.09,-79.34 364.23,-89.21 371.22,-89.46"/>
</a>
</g>
</g>
<!-- Node18 -->
<g id="Node000018" class="node">
<title>Node18</title>
<g id="a_Node000018"><a xlink:title=" ">
<polygon fill="#e0e0e0" stroke="#999999" points="304.5,-77.5 252.5,-77.5 252.5,-56.75 304.5,-56.75 304.5,-77.5"/>
<text xml:space="preserve" text-anchor="middle" x="278.5" y="-64" font-family="Helvetica,sans-Serif" font-size="10.00">stdlib.h</text>
</a>
</g>
</g>
<!-- Node16&#45;&gt;Node18 -->
<g id="edge22_Node000016_Node000018" class="edge">
<title>Node16&#45;&gt;Node18</title>
<g id="a_edge22_Node000016_Node000018"><a xlink:title=" ">
<path fill="none" stroke="#63b8ff" d="M350.77,-113.09C337.63,-104.91 318.66,-93.11 303.45,-83.65"/>
<polygon fill="#63b8ff" stroke="#63b8ff" points="305.72,-80.94 295.38,-78.63 302.02,-86.88 305.72,-80.94"/>
</a>
</g>
</g>
<!-- Node19&#45;&gt;Node3 -->
<g id="edge24_Node000019_Node000003" class="edge">
<title>Node19&#45;&gt;Node3</title>
<g id="a_edge24_Node000019_Node000003"><a xlink:title=" ">
<path fill="none" stroke="#63b8ff" d="M808.23,-122.43C710.64,-120.81 462.12,-113.4 246.36,-77.7"/>
<polygon fill="#63b8ff" stroke="#63b8ff" points="247.07,-74.27 236.63,-76.06 245.91,-81.17 247.07,-74.27"/>
</a>
</g>
</g>
<!-- Node19&#45;&gt;Node6 -->
<g id="edge25_Node000019_Node000006" class="edge">
<title>Node19&#45;&gt;Node6</title>
<g id="a_edge25_Node000019_Node000006"><a xlink:title=" ">
<path fill="none" stroke="#63b8ff" d="M819.21,-113.09C790.81,-104.2 748.69,-91.02 717.39,-81.23"/>
<polygon fill="#63b8ff" stroke="#63b8ff" points="718.84,-78.02 708.25,-78.37 716.75,-84.7 718.84,-78.02"/>
</a>
</g>
</g>
<!-- Node19&#45;&gt;Node7 -->
<g id="edge27_Node000019_Node000007" class="edge">
<title>Node19&#45;&gt;Node7</title>
<g id="a_edge27_Node000019_Node000007"><a xlink:title=" ">
<path fill="none" stroke="#63b8ff" d="M883.7,-113.06C916.82,-101.61 960.03,-81.11 939.5,-56.75 913.2,-25.55 798.91,-15.8 729.62,-12.76"/>
<polygon fill="#63b8ff" stroke="#63b8ff" points="730.13,-9.28 720,-12.37 729.85,-16.27 730.13,-9.28"/>
</a>
</g>
</g>
<!-- Node19&#45;&gt;Node13 -->
<g id="edge28_Node000019_Node000013" class="edge">
<title>Node19&#45;&gt;Node13</title>
<g id="a_edge28_Node000019_Node000013"><a xlink:title=" ">
<path fill="none" stroke="#63b8ff" d="M892.99,-113.9C932.52,-105.48 993.33,-92.32 1054.61,-78.13"/>
<polygon fill="#63b8ff" stroke="#63b8ff" points="1055.23,-81.58 1064.17,-75.91 1053.64,-74.77 1055.23,-81.58"/>
</a>
</g>
</g>
<!-- Node19&#45;&gt;Node14 -->
<g id="edge29_Node000019_Node000014" class="edge">
<title>Node19&#45;&gt;Node14</title>
<g id="a_edge29_Node000019_Node000014"><a xlink:title=" ">
<path fill="none" stroke="#63b8ff" d="M892.85,-116.97C946.15,-109.35 1040.75,-95.18 1131.69,-77.74"/>
<polygon fill="#63b8ff" stroke="#63b8ff" points="1132.12,-81.22 1141.27,-75.89 1130.79,-74.35 1132.12,-81.22"/>
</a>
</g>
</g>
<!-- Node19&#45;&gt;Node15 -->
<g id="edge30_Node000019_Node000015" class="edge">
<title>Node19&#45;&gt;Node15</title>
<g id="a_edge30_Node000019_Node000015"><a xlink:title=" ">
<path fill="none" stroke="#63b8ff" d="M880.36,-113.09C907.23,-104.28 946.95,-91.25 976.74,-81.49"/>
<polygon fill="#63b8ff" stroke="#63b8ff" points="977.77,-84.83 986.18,-78.39 975.59,-78.18 977.77,-84.83"/>
</a>
</g>
</g>
<!-- Node20 -->
<g id="Node000020" class="node">
<title>Node20</title>
<g id="a_Node000020"><a xlink:title=" ">
<polygon fill="#e0e0e0" stroke="#999999" points="930.75,-77.5 808.25,-77.5 808.25,-56.75 930.75,-56.75 930.75,-77.5"/>
<text xml:space="preserve" text-anchor="middle" x="869.5" y="-64" font-family="Helvetica,sans-Serif" font-size="10.00">fsl_device_registers.h</text>
</a>
</g>
</g>
<!-- Node19&#45;&gt;Node20 -->
<g id="edge26_Node000019_Node000020" class="edge">
<title>Node19&#45;&gt;Node20</title>
<g id="a_edge26_Node000019_Node000020"><a xlink:title=" ">
<path fill="none" stroke="#63b8ff" d="M853.9,-113.09C856.25,-106.31 859.46,-97.05 862.36,-88.69"/>
<polygon fill="#63b8ff" stroke="#63b8ff" points="865.66,-89.85 865.64,-79.26 859.05,-87.56 865.66,-89.85"/>
</a>
</g>
</g>
<!-- Node21&#45;&gt;Node3 -->
<g id="edge32_Node000021_Node000003" class="edge">
<title>Node21&#45;&gt;Node3</title>
<g id="a_edge32_Node000021_Node000003"><a xlink:title=" ">
<path fill="none" stroke="#63b8ff" d="M288.67,-169.81C287.1,-156.09 282.67,-130.93 270.5,-113.5 262.03,-101.37 249.26,-91.23 237.5,-83.63"/>
<polygon fill="#63b8ff" stroke="#63b8ff" points="239.65,-80.84 229.28,-78.65 236.02,-86.83 239.65,-80.84"/>
</a>
</g>
</g>
<!-- Node21&#45;&gt;Node7 -->
<g id="edge36_Node000021_Node000007" class="edge">
<title>Node21&#45;&gt;Node7</title>
<g id="a_edge36_Node000021_Node000007"><a xlink:title=" ">
<path fill="none" stroke="#63b8ff" d="M330.64,-169.76C356.74,-162.39 390.55,-150.73 417.5,-134.25 460.28,-108.09 455.61,-81 499.5,-56.75 537.38,-35.82 585.19,-24.29 621.42,-18.1"/>
<polygon fill="#63b8ff" stroke="#63b8ff" points="621.94,-21.56 631.25,-16.51 620.82,-14.65 621.94,-21.56"/>
</a>
</g>
</g>
<!-- Node21&#45;&gt;Node8 -->
<g id="edge38_Node000021_Node000008" class="edge">
<title>Node21&#45;&gt;Node8</title>
<g id="a_edge38_Node000021_Node000008"><a xlink:title=" ">
<path fill="none" stroke="#63b8ff" d="M242.18,-173.5C156.94,-160.59 -8.42,-125.93 49.5,-56.75 74.81,-26.51 185.45,-16.4 252.08,-13.04"/>
<polygon fill="#63b8ff" stroke="#63b8ff" points="251.83,-16.56 261.66,-12.59 251.51,-9.56 251.83,-16.56"/>
</a>
</g>
</g>
<!-- Node21&#45;&gt;Node16 -->
<g id="edge37_Node000021_Node000016" class="edge">
<title>Node21&#45;&gt;Node16</title>
<g id="a_edge37_Node000021_Node000016"><a xlink:title=" ">
<path fill="none" stroke="#63b8ff" d="M303.27,-169.84C314.43,-161.9 330.42,-150.53 343.52,-141.21"/>
<polygon fill="#63b8ff" stroke="#63b8ff" points="345.5,-144.1 351.62,-135.46 341.44,-138.4 345.5,-144.1"/>
</a>
</g>
</g>
<!-- Node22 -->
<g id="Node000022" class="node">
<title>Node22</title>
<g id="a_Node000022"><a xlink:href="tmc2209__shared_8h.html" target="_top" xlink:title=" ">
<polygon fill="white" stroke="#666666" points="261.5,-134.25 155.5,-134.25 155.5,-113.5 261.5,-113.5 261.5,-134.25"/>
<text xml:space="preserve" text-anchor="middle" x="208.5" y="-120.75" font-family="Helvetica,sans-Serif" font-size="10.00">tmc2209_shared.h</text>
</a>
</g>
</g>
<!-- Node21&#45;&gt;Node22 -->
<g id="edge33_Node000021_Node000022" class="edge">
<title>Node21&#45;&gt;Node22</title>
<g id="a_edge33_Node000021_Node000022"><a xlink:title=" ">
<path fill="none" stroke="#63b8ff" d="M275.02,-169.84C263.15,-161.82 246.13,-150.31 232.27,-140.94"/>
<polygon fill="#63b8ff" stroke="#63b8ff" points="234.35,-138.13 224.11,-135.43 230.43,-143.93 234.35,-138.13"/>
</a>
</g>
</g>
<!-- Node22&#45;&gt;Node3 -->
<g id="edge34_Node000022_Node000003" class="edge">
<title>Node22&#45;&gt;Node3</title>
<g id="a_edge34_Node000022_Node000003"><a xlink:title=" ">
<path fill="none" stroke="#63b8ff" d="M208.5,-113.09C208.5,-106.47 208.5,-97.47 208.5,-89.27"/>
<polygon fill="#63b8ff" stroke="#63b8ff" points="212,-89.34 208.5,-79.34 205,-89.34 212,-89.34"/>
</a>
</g>
</g>
<!-- Node23 -->
<g id="Node000023" class="node">
<title>Node23</title>
<g id="a_Node000023"><a xlink:title=" ">
<polygon fill="#e0e0e0" stroke="#999999" points="164.12,-77.5 58.88,-77.5 58.88,-56.75 164.12,-56.75 164.12,-77.5"/>
<text xml:space="preserve" text-anchor="middle" x="111.5" y="-64" font-family="Helvetica,sans-Serif" font-size="10.00">fsl_uart_freertos.h</text>
</a>
</g>
</g>
<!-- Node22&#45;&gt;Node23 -->
<g id="edge35_Node000022_Node000023" class="edge">
<title>Node22&#45;&gt;Node23</title>
<g id="a_edge35_Node000022_Node000023"><a xlink:title=" ">
<path fill="none" stroke="#63b8ff" d="M191.16,-113.09C176.54,-104.83 155.36,-92.88 138.52,-83.38"/>
<polygon fill="#63b8ff" stroke="#63b8ff" points="140.44,-80.44 130.01,-78.57 137,-86.54 140.44,-80.44"/>
</a>
</g>
</g>
</g>
</svg>

<g id="navigator" transform="translate(0 0)" fill="#404254">
  <rect fill="#f2f5e9" fill-opacity="0.5" stroke="#606060" stroke-width=".5" x="0" y="0" width="60" height="60"/>
  <use id="zoomplus" xlink:href="#zoomPlus" x="17" y="9" onmousedown="handleZoom(evt,'in')"/>
  <use id="zoomminus" xlink:href="#zoomMin" x="42" y="9" onmousedown="handleZoom(evt,'out')"/>
  <use id="reset" xlink:href="#resetDef" x="30" y="36" onmousedown="handleReset()"/>
   <use id="arrowup" xlink:href="#arrowUp" x="0" y="0" onmousedown="handlePan(0,-1)"/>
  <use id="arrowright" xlink:href="#arrowRight" x="0" y="0" onmousedown="handlePan(1,0)"/>
  <use id="arrowdown" xlink:href="#arrowDown" x="0" y="0" onmousedown="handlePan(0,1)"/>
  <use id="arrowleft" xlink:href="#arrowLeft" x="0" y="0" onmousedown="handlePan(-1,0)"/>
</g>
<svg viewBox="0 0 15 15" width="100%" height="30px" preserveAspectRatio="xMaxYMin meet">
 <g id="arrow_out" transform="scale(0.3 0.3)">
  <a xlink:href="motor__motion_8h__incl_org.svg" target="_base">
   <rect id="button" ry="5" rx="5" y="6" x="6" height="38" width="38"
        fill="#f2f5e9" fill-opacity="0.5" stroke="#606060" stroke-width="1.0"/>
   <path id="arrow"
     d="M 11.500037,31.436501 C 11.940474,20.09759 22.043105,11.32322 32.158766,21.979434 L 37.068811,17.246167 C 37.068811,17.246167 37.088388,32 37.088388,32 L 22.160133,31.978069 C 22.160133,31.978069 26.997745,27.140456 26.997745,27.140456 C 18.528582,18.264221 13.291696,25.230495 11.500037,31.436501 z"
     style="fill:#404040;"/>
  </a>
 </g>
</svg>

<style type='text/css'>
<![CDATA[
[data-mouse-over-selected='false'] { opacity: 0.7; }
[data-mouse-over-selected='true']  { opacity: 1.0; }
]]>
</style>
<script type="application/ecmascript"><![CDATA[
document.addEventListener('DOMContentLoaded', (event) => {
  highlightEdges();
  highlightAdjacentNodes();
});
]]></script>
</svg>
