<?xml version="1.0" encoding="UTF-8" standalone="no"?>
<!DOCTYPE svg PUBLIC "-//W3C//DTD SVG 1.1//EN"
 "http://www.w3.org/Graphics/SVG/1.1/DTD/svg11.dtd">
<!-- Generated by graphviz version 14.1.4 (0)
 -->
<!-- Title: source/motion/motor/motor_internal.h Pages: 1 -->
<svg width="1215pt" height="181pt"
 viewBox="0.00 0.00 1215.00 181.00" xmlns="http://www.w3.org/2000/svg" xmlns:xlink="http://www.w3.org/1999/xlink">
<g id="graph0" class="graph" transform="scale(1 1) rotate(0) translate(4 176.5)">
<title>source/motion/motor/motor_internal.h</title>
<!-- Node1 -->
<g id="Node000001" class="node">
<title>Node1</title>
<g id="a_Node000001"><a xlink:title=" ">
<polygon fill="#999999" stroke="#666666" points="526,-172.5 408,-172.5 408,-139 526,-139 526,-172.5"/>
<text xml:space="preserve" text-anchor="start" x="416" y="-159" font-family="Helvetica,sans-Serif" font-size="10.00">source/motion/motor</text>
<text xml:space="preserve" text-anchor="middle" x="467" y="-146.25" font-family="Helvetica,sans-Serif" font-size="10.00">/motor_internal.h</text>
</a>
</g>
</g>
<!-- Node2 -->
<g id="Node000002" class="node">
<title>Node2</title>
<g id="a_Node000002"><a xlink:href="motor__convert_8c.html" target="_top" xlink:title=" ">
<polygon fill="white" stroke="#666666" points="118,-103 0,-103 0,-69.5 118,-69.5 118,-103"/>
<text xml:space="preserve" text-anchor="start" x="8" y="-89.5" font-family="Helvetica,sans-Serif" font-size="10.00">source/motion/motor</text>
<text xml:space="preserve" text-anchor="middle" x="59" y="-76.75" font-family="Helvetica,sans-Serif" font-size="10.00">/motor_convert.c</text>
</a>
</g>
</g>
<!-- Node1&#45;&gt;Node2 -->
<g id="edge1_Node000001_Node000002" class="edge">
<title>Node1&#45;&gt;Node2</title>
<g id="a_edge1_Node000001_Node000002"><a xlink:title=" ">
<path fill="none" stroke="#63b8ff" d="M396.66,-145.64C327.71,-136.34 219.77,-120.78 127,-103 124.14,-102.45 121.23,-101.87 118.28,-101.26"/>
<polygon fill="#63b8ff" stroke="#63b8ff" points="395.92,-149.08 406.3,-146.94 396.85,-142.14 395.92,-149.08"/>
</a>
</g>
</g>
<!-- Node3 -->
<g id="Node000003" class="node">
<title>Node3</title>
<g id="a_Node000003"><a xlink:href="motor__init_8h.html" target="_top" xlink:title=" ">
<polygon fill="white" stroke="#666666" points="254,-103 136,-103 136,-69.5 254,-69.5 254,-103"/>
<text xml:space="preserve" text-anchor="start" x="144" y="-89.5" font-family="Helvetica,sans-Serif" font-size="10.00">source/motion/motor</text>
<text xml:space="preserve" text-anchor="middle" x="195" y="-76.75" font-family="Helvetica,sans-Serif" font-size="10.00">/motor_init.h</text>
</a>
</g>
</g>
<!-- Node1&#45;&gt;Node3 -->
<g id="edge2_Node000001_Node000003" class="edge">
<title>Node1&#45;&gt;Node3</title>
<g id="a_edge2_Node000001_Node000003"><a xlink:title=" ">
<path fill="none" stroke="#63b8ff" d="M396.69,-137.3C352.5,-126.34 296.13,-112.35 254.23,-101.95"/>
<polygon fill="#63b8ff" stroke="#63b8ff" points="395.63,-140.64 406.18,-139.66 397.31,-133.85 395.63,-140.64"/>
</a>
</g>
</g>
<!-- Node6 -->
<g id="Node000006" class="node">
<title>Node6</title>
<g id="a_Node000006"><a xlink:href="motor__motion_8h.html" target="_top" xlink:title=" ">
<polygon fill="white" stroke="#666666" points="526,-103 408,-103 408,-69.5 526,-69.5 526,-103"/>
<text xml:space="preserve" text-anchor="start" x="416" y="-89.5" font-family="Helvetica,sans-Serif" font-size="10.00">source/motion/motor</text>
<text xml:space="preserve" text-anchor="middle" x="467" y="-76.75" font-family="Helvetica,sans-Serif" font-size="10.00">/motor_motion.h</text>
</a>
</g>
</g>
<!-- Node1&#45;&gt;Node6 -->
<g id="edge5_Node000001_Node000006" class="edge">
<title>Node1&#45;&gt;Node6</title>
<g id="a_edge5_Node000001_Node000006"><a xlink:title=" ">
<path fill="none" stroke="#63b8ff" d="M467,-127.31C467,-119.09 467,-110.34 467,-103.13"/>
<polygon fill="#63b8ff" stroke="#63b8ff" points="463.5,-127.24 467,-137.24 470.5,-127.24 463.5,-127.24"/>
</a>
</g>
</g>
<!-- Node10 -->
<g id="Node000010" class="node">
<title>Node10</title>
<g id="a_Node000010"><a xlink:href="motor__process_8h.html" target="_top" xlink:title=" ">
<polygon fill="white" stroke="#666666" points="390,-103 272,-103 272,-69.5 390,-69.5 390,-103"/>
<text xml:space="preserve" text-anchor="start" x="280" y="-89.5" font-family="Helvetica,sans-Serif" font-size="10.00">source/motion/motor</text>
<text xml:space="preserve" text-anchor="middle" x="331" y="-76.75" font-family="Helvetica,sans-Serif" font-size="10.00">/motor_process.h</text>
</a>
</g>
</g>
<!-- Node1&#45;&gt;Node10 -->
<g id="edge10_Node000001_Node000010" class="edge">
<title>Node1&#45;&gt;Node10</title>
<g id="a_edge10_Node000001_Node000010"><a xlink:title=" ">
<path fill="none" stroke="#63b8ff" d="M424.17,-133.49C404.48,-123.72 381.51,-112.32 363.31,-103.29"/>
<polygon fill="#63b8ff" stroke="#63b8ff" points="422.56,-136.6 433.07,-137.91 425.67,-130.33 422.56,-136.6"/>
</a>
</g>
</g>
<!-- Node11 -->
<g id="Node000011" class="node">
<title>Node11</title>
<g id="a_Node000011"><a xlink:href="motor__sync_8h.html" target="_top" xlink:title=" ">
<polygon fill="white" stroke="#666666" points="798,-103 680,-103 680,-69.5 798,-69.5 798,-103"/>
<text xml:space="preserve" text-anchor="start" x="688" y="-89.5" font-family="Helvetica,sans-Serif" font-size="10.00">source/motion/motor</text>
<text xml:space="preserve" text-anchor="middle" x="739" y="-76.75" font-family="Helvetica,sans-Serif" font-size="10.00">/motor_sync.h</text>
</a>
</g>
</g>
<!-- Node1&#45;&gt;Node11 -->
<g id="edge13_Node000001_Node000011" class="edge">
<title>Node1&#45;&gt;Node11</title>
<g id="a_edge13_Node000001_Node000011"><a xlink:title=" ">
<path fill="none" stroke="#63b8ff" d="M537.31,-137.3C581.5,-126.34 637.87,-112.35 679.77,-101.95"/>
<polygon fill="#63b8ff" stroke="#63b8ff" points="536.69,-133.85 527.82,-139.66 538.37,-140.64 536.69,-133.85"/>
</a>
</g>
</g>
<!-- Node13 -->
<g id="Node000013" class="node">
<title>Node13</title>
<g id="a_Node000013"><a xlink:href="motor__tmc_8h.html" target="_top" xlink:title=" ">
<polygon fill="white" stroke="#666666" points="662,-103 544,-103 544,-69.5 662,-69.5 662,-103"/>
<text xml:space="preserve" text-anchor="start" x="552" y="-89.5" font-family="Helvetica,sans-Serif" font-size="10.00">source/motion/motor</text>
<text xml:space="preserve" text-anchor="middle" x="603" y="-76.75" font-family="Helvetica,sans-Serif" font-size="10.00">/motor_tmc.h</text>
</a>
</g>
</g>
<!-- Node1&#45;&gt;Node13 -->
<g id="edge16_Node000001_Node000013" class="edge">
<title>Node1&#45;&gt;Node13</title>
<g id="a_edge16_Node000001_Node000013"><a xlink:title=" ">
<path fill="none" stroke="#63b8ff" d="M509.83,-133.49C529.52,-123.72 552.49,-112.32 570.69,-103.29"/>
<polygon fill="#63b8ff" stroke="#63b8ff" points="508.33,-130.33 500.93,-137.91 511.44,-136.6 508.33,-130.33"/>
</a>
</g>
</g>
<!-- Node14 -->
<g id="Node000014" class="node">
<title>Node14</title>
<g id="a_Node000014"><a xlink:href="motor__homing_8h.html" target="_top" xlink:title=" ">
<polygon fill="white" stroke="#666666" points="1011.75,-96.62 880.25,-96.62 880.25,-75.88 1011.75,-75.88 1011.75,-96.62"/>
<text xml:space="preserve" text-anchor="middle" x="946" y="-83.12" font-family="Helvetica,sans-Serif" font-size="10.00">source/motor_homing.h</text>
</a>
</g>
</g>
<!-- Node1&#45;&gt;Node14 -->
<g id="edge19_Node000001_Node000014" class="edge">
<title>Node1&#45;&gt;Node14</title>
<g id="a_edge19_Node000001_Node000014"><a xlink:title=" ">
<path fill="none" stroke="#63b8ff" d="M537.39,-144.83C629.58,-131.84 790.06,-109.23 880.02,-96.55"/>
<polygon fill="#63b8ff" stroke="#63b8ff" points="537.13,-141.33 527.71,-146.19 538.1,-148.26 537.13,-141.33"/>
</a>
</g>
</g>
<!-- Node4 -->
<g id="Node000004" class="node">
<title>Node4</title>
<g id="a_Node000004"><a xlink:href="motor__init_8c.html" target="_top" xlink:title=" ">
<polygon fill="white" stroke="#666666" points="118,-33.5 0,-33.5 0,0 118,0 118,-33.5"/>
<text xml:space="preserve" text-anchor="start" x="8" y="-20" font-family="Helvetica,sans-Serif" font-size="10.00">source/motion/motor</text>
<text xml:space="preserve" text-anchor="middle" x="59" y="-7.25" font-family="Helvetica,sans-Serif" font-size="10.00">/motor_init.c</text>
</a>
</g>
</g>
<!-- Node3&#45;&gt;Node4 -->
<g id="edge3_Node000003_Node000004" class="edge">
<title>Node3&#45;&gt;Node4</title>
<g id="a_edge3_Node000003_Node000004"><a xlink:title=" ">
<path fill="none" stroke="#63b8ff" d="M152.17,-63.99C132.48,-54.22 109.51,-42.82 91.31,-33.79"/>
<polygon fill="#63b8ff" stroke="#63b8ff" points="150.56,-67.1 161.07,-68.41 153.67,-60.83 150.56,-67.1"/>
</a>
</g>
</g>
<!-- Node5 -->
<g id="Node000005" class="node">
<title>Node5</title>
<g id="a_Node000005"><a xlink:href="motor__process_8c.html" target="_top" xlink:title=" ">
<polygon fill="white" stroke="#666666" points="526,-33.5 408,-33.5 408,0 526,0 526,-33.5"/>
<text xml:space="preserve" text-anchor="start" x="416" y="-20" font-family="Helvetica,sans-Serif" font-size="10.00">source/motion/motor</text>
<text xml:space="preserve" text-anchor="middle" x="467" y="-7.25" font-family="Helvetica,sans-Serif" font-size="10.00">/motor_process.c</text>
</a>
</g>
</g>
<!-- Node3&#45;&gt;Node5 -->
<g id="edge4_Node000003_Node000005" class="edge">
<title>Node3&#45;&gt;Node5</title>
<g id="a_edge4_Node000003_Node000005"><a xlink:title=" ">
<path fill="none" stroke="#63b8ff" d="M265.31,-67.8C309.5,-56.84 365.87,-42.85 407.77,-32.45"/>
<polygon fill="#63b8ff" stroke="#63b8ff" points="264.69,-64.35 255.82,-70.16 266.37,-71.14 264.69,-64.35"/>
</a>
</g>
</g>
<!-- Node6&#45;&gt;Node5 -->
<g id="edge8_Node000006_Node000005" class="edge">
<title>Node6&#45;&gt;Node5</title>
<g id="a_edge8_Node000006_Node000005"><a xlink:title=" ">
<path fill="none" stroke="#63b8ff" d="M467,-57.81C467,-49.59 467,-40.84 467,-33.63"/>
<polygon fill="#63b8ff" stroke="#63b8ff" points="463.5,-57.74 467,-67.74 470.5,-57.74 463.5,-57.74"/>
</a>
</g>
</g>
<!-- Node7 -->
<g id="Node000007" class="node">
<title>Node7</title>
<g id="a_Node000007"><a xlink:href="motor__core_8c.html" target="_top" xlink:title=" ">
<polygon fill="white" stroke="#666666" points="254,-33.5 136,-33.5 136,0 254,0 254,-33.5"/>
<text xml:space="preserve" text-anchor="start" x="144" y="-20" font-family="Helvetica,sans-Serif" font-size="10.00">source/motion/motor</text>
<text xml:space="preserve" text-anchor="middle" x="195" y="-7.25" font-family="Helvetica,sans-Serif" font-size="10.00">/motor_core.c</text>
</a>
</g>
</g>
<!-- Node6&#45;&gt;Node7 -->
<g id="edge6_Node000006_Node000007" class="edge">
<title>Node6&#45;&gt;Node7</title>
<g id="a_edge6_Node000006_Node000007"><a xlink:title=" ">
<path fill="none" stroke="#63b8ff" d="M396.69,-67.8C352.5,-56.84 296.13,-42.85 254.23,-32.45"/>
<polygon fill="#63b8ff" stroke="#63b8ff" points="395.63,-71.14 406.18,-70.16 397.31,-64.35 395.63,-71.14"/>
</a>
</g>
</g>
<!-- Node8 -->
<g id="Node000008" class="node">
<title>Node8</title>
<g id="a_Node000008"><a xlink:href="motor__motion_8c.html" target="_top" xlink:title=" ">
<polygon fill="white" stroke="#666666" points="390,-33.5 272,-33.5 272,0 390,0 390,-33.5"/>
<text xml:space="preserve" text-anchor="start" x="280" y="-20" font-family="Helvetica,sans-Serif" font-size="10.00">source/motion/motor</text>
<text xml:space="preserve" text-anchor="middle" x="331" y="-7.25" font-family="Helvetica,sans-Serif" font-size="10.00">/motor_motion.c</text>
</a>
</g>
</g>
<!-- Node6&#45;&gt;Node8 -->
<g id="edge7_Node000006_Node000008" class="edge">
<title>Node6&#45;&gt;Node8</title>
<g id="a_edge7_Node000006_Node000008"><a xlink:title=" ">
<path fill="none" stroke="#63b8ff" d="M424.17,-63.99C404.48,-54.22 381.51,-42.82 363.31,-33.79"/>
<polygon fill="#63b8ff" stroke="#63b8ff" points="422.56,-67.1 433.07,-68.41 425.67,-60.83 422.56,-67.1"/>
</a>
</g>
</g>
<!-- Node9 -->
<g id="Node000009" class="node">
<title>Node9</title>
<g id="a_Node000009"><a xlink:href="motor__tmc_8c.html" target="_top" xlink:title=" ">
<polygon fill="white" stroke="#666666" points="662,-33.5 544,-33.5 544,0 662,0 662,-33.5"/>
<text xml:space="preserve" text-anchor="start" x="552" y="-20" font-family="Helvetica,sans-Serif" font-size="10.00">source/motion/motor</text>
<text xml:space="preserve" text-anchor="middle" x="603" y="-7.25" font-family="Helvetica,sans-Serif" font-size="10.00">/motor_tmc.c</text>
</a>
</g>
</g>
<!-- Node6&#45;&gt;Node9 -->
<g id="edge9_Node000006_Node000009" class="edge">
<title>Node6&#45;&gt;Node9</title>
<g id="a_edge9_Node000006_Node000009"><a xlink:title=" ">
<path fill="none" stroke="#63b8ff" d="M509.83,-63.99C529.52,-54.22 552.49,-42.82 570.69,-33.79"/>
<polygon fill="#63b8ff" stroke="#63b8ff" points="508.33,-60.83 500.93,-68.41 511.44,-67.1 508.33,-60.83"/>
</a>
</g>
</g>
<!-- Node10&#45;&gt;Node5 -->
<g id="edge12_Node000010_Node000005" class="edge">
<title>Node10&#45;&gt;Node5</title>
<g id="a_edge12_Node000010_Node000005"><a xlink:title=" ">
<path fill="none" stroke="#63b8ff" d="M373.83,-63.99C393.52,-54.22 416.49,-42.82 434.69,-33.79"/>
<polygon fill="#63b8ff" stroke="#63b8ff" points="372.33,-60.83 364.93,-68.41 375.44,-67.1 372.33,-60.83"/>
</a>
</g>
</g>
<!-- Node10&#45;&gt;Node7 -->
<g id="edge11_Node000010_Node000007" class="edge">
<title>Node10&#45;&gt;Node7</title>
<g id="a_edge11_Node000010_Node000007"><a xlink:title=" ">
<path fill="none" stroke="#63b8ff" d="M288.17,-63.99C268.48,-54.22 245.51,-42.82 227.31,-33.79"/>
<polygon fill="#63b8ff" stroke="#63b8ff" points="286.56,-67.1 297.07,-68.41 289.67,-60.83 286.56,-67.1"/>
</a>
</g>
</g>
<!-- Node11&#45;&gt;Node5 -->
<g id="edge14_Node000011_Node000005" class="edge">
<title>Node11&#45;&gt;Node5</title>
<g id="a_edge14_Node000011_Node000005"><a xlink:title=" ">
<path fill="none" stroke="#63b8ff" d="M668.69,-67.8C624.5,-56.84 568.13,-42.85 526.23,-32.45"/>
<polygon fill="#63b8ff" stroke="#63b8ff" points="667.63,-71.14 678.18,-70.16 669.31,-64.35 667.63,-71.14"/>
</a>
</g>
</g>
<!-- Node12 -->
<g id="Node000012" class="node">
<title>Node12</title>
<g id="a_Node000012"><a xlink:href="motor__sync_8c.html" target="_top" xlink:title=" ">
<polygon fill="white" stroke="#666666" points="798,-33.5 680,-33.5 680,0 798,0 798,-33.5"/>
<text xml:space="preserve" text-anchor="start" x="688" y="-20" font-family="Helvetica,sans-Serif" font-size="10.00">source/motion/motor</text>
<text xml:space="preserve" text-anchor="middle" x="739" y="-7.25" font-family="Helvetica,sans-Serif" font-size="10.00">/motor_sync.c</text>
</a>
</g>
</g>
<!-- Node11&#45;&gt;Node12 -->
<g id="edge15_Node000011_Node000012" class="edge">
<title>Node11&#45;&gt;Node12</title>
<g id="a_edge15_Node000011_Node000012"><a xlink:title=" ">
<path fill="none" stroke="#63b8ff" d="M739,-57.81C739,-49.59 739,-40.84 739,-33.63"/>
<polygon fill="#63b8ff" stroke="#63b8ff" points="735.5,-57.74 739,-67.74 742.5,-57.74 735.5,-57.74"/>
</a>
</g>
</g>
<!-- Node13&#45;&gt;Node5 -->
<g id="edge17_Node000013_Node000005" class="edge">
<title>Node13&#45;&gt;Node5</title>
<g id="a_edge17_Node000013_Node000005"><a xlink:title=" ">
<path fill="none" stroke="#63b8ff" d="M560.17,-63.99C540.48,-54.22 517.51,-42.82 499.31,-33.79"/>
<polygon fill="#63b8ff" stroke="#63b8ff" points="558.56,-67.1 569.07,-68.41 561.67,-60.83 558.56,-67.1"/>
</a>
</g>
</g>
<!-- Node13&#45;&gt;Node9 -->
<g id="edge18_Node000013_Node000009" class="edge">
<title>Node13&#45;&gt;Node9</title>
<g id="a_edge18_Node000013_Node000009"><a xlink:title=" ">
<path fill="none" stroke="#63b8ff" d="M603,-57.81C603,-49.59 603,-40.84 603,-33.63"/>
<polygon fill="#63b8ff" stroke="#63b8ff" points="599.5,-57.74 603,-67.74 606.5,-57.74 599.5,-57.74"/>
</a>
</g>
</g>
<!-- Node15 -->
<g id="Node000015" class="node">
<title>Node15</title>
<g id="a_Node000015"><a xlink:href="motorCmd_8c.html" target="_top" xlink:title=" ">
<polygon fill="white" stroke="#666666" points="927.62,-27.12 816.38,-27.12 816.38,-6.38 927.62,-6.38 927.62,-27.12"/>
<text xml:space="preserve" text-anchor="middle" x="872" y="-13.62" font-family="Helvetica,sans-Serif" font-size="10.00">source/motorCmd.c</text>
</a>
</g>
</g>
<!-- Node14&#45;&gt;Node15 -->
<g id="edge20_Node000014_Node000015" class="edge">
<title>Node14&#45;&gt;Node15</title>
<g id="a_edge20_Node000014_Node000015"><a xlink:title=" ">
<path fill="none" stroke="#63b8ff" d="M926.91,-67.84C912.8,-54.97 894.11,-37.92 882.58,-27.4"/>
<polygon fill="#63b8ff" stroke="#63b8ff" points="924.53,-70.41 934.28,-74.56 929.25,-65.23 924.53,-70.41"/>
</a>
</g>
</g>
<!-- Node16 -->
<g id="Node000016" class="node">
<title>Node16</title>
<g id="a_Node000016"><a xlink:href="motor__homing_8c.html" target="_top" xlink:title=" ">
<polygon fill="white" stroke="#666666" points="1076.38,-27.12 945.62,-27.12 945.62,-6.38 1076.38,-6.38 1076.38,-27.12"/>
<text xml:space="preserve" text-anchor="middle" x="1011" y="-13.62" font-family="Helvetica,sans-Serif" font-size="10.00">source/motor_homing.c</text>
</a>
</g>
</g>
<!-- Node14&#45;&gt;Node16 -->
<g id="edge21_Node000014_Node000016" class="edge">
<title>Node14&#45;&gt;Node16</title>
<g id="a_edge21_Node000014_Node000016"><a xlink:title=" ">
<path fill="none" stroke="#63b8ff" d="M963.12,-67.47C975.47,-54.64 991.67,-37.82 1001.7,-27.4"/>
<polygon fill="#63b8ff" stroke="#63b8ff" points="960.78,-64.86 956.36,-74.49 965.82,-69.71 960.78,-64.86"/>
</a>
</g>
</g>
<!-- Node17 -->
<g id="Node000017" class="node">
<title>Node17</title>
<g id="a_Node000017"><a xlink:href="motor__test_8c.html" target="_top" xlink:title=" ">
<polygon fill="white" stroke="#666666" points="1207.38,-27.12 1094.62,-27.12 1094.62,-6.38 1207.38,-6.38 1207.38,-27.12"/>
<text xml:space="preserve" text-anchor="middle" x="1151" y="-13.62" font-family="Helvetica,sans-Serif" font-size="10.00">source/motor_test.c</text>
</a>
</g>
</g>
<!-- Node14&#45;&gt;Node17 -->
<g id="edge22_Node000014_Node000017" class="edge">
<title>Node14&#45;&gt;Node17</title>
<g id="a_edge22_Node000014_Node000017"><a xlink:title=" ">
<path fill="none" stroke="#63b8ff" d="M986.68,-71.85C1026.34,-58.8 1085.69,-39.25 1121.16,-27.58"/>
<polygon fill="#63b8ff" stroke="#63b8ff" points="985.65,-68.51 977.25,-74.96 987.84,-75.16 985.65,-68.51"/>
</a>
</g>
</g>
</g>
</svg>
