<?xml version="1.0" encoding="UTF-8" standalone="no"?>
<!DOCTYPE svg PUBLIC "-//W3C//DTD SVG 1.1//EN"
 "http://www.w3.org/Graphics/SVG/1.1/DTD/svg11.dtd">
<!-- Generated by graphviz version 14.1.5 (0)
 -->
<!-- Title: source/motion/homing/motor_homing.h Pages: 1 -->
<svg width="1213pt" height="382pt"
 viewBox="0.00 0.00 1213.00 382.00" xmlns="http://www.w3.org/2000/svg" xmlns:xlink="http://www.w3.org/1999/xlink">
<g id="graph0" class="graph" transform="scale(1 1) rotate(0) translate(4 378)">
<title>source/motion/homing/motor_homing.h</title>
<!-- Node1 -->
<g id="Node000001" class="node">
<title>Node1</title>
<g id="a_Node000001"><a xlink:title=" ">
<polygon fill="#999999" stroke="#666666" points="641.6,-374 516.1,-374 516.1,-340.5 641.6,-340.5 641.6,-374"/>
<text xml:space="preserve" text-anchor="start" x="524.1" y="-360.5" font-family="Helvetica,sans-Serif" font-size="10.00">source/motion/homing</text>
<text xml:space="preserve" text-anchor="middle" x="578.85" y="-347.75" font-family="Helvetica,sans-Serif" font-size="10.00">/motor_homing.h</text>
</a>
</g>
</g>
<!-- Node2 -->
<g id="Node000002" class="node">
<title>Node2</title>
<g id="a_Node000002"><a xlink:href="motor__internal_8h.html" target="_top" xlink:title=" ">
<polygon fill="white" stroke="#666666" points="492.35,-304.5 395.35,-304.5 395.35,-283.75 492.35,-283.75 492.35,-304.5"/>
<text xml:space="preserve" text-anchor="middle" x="443.85" y="-291" font-family="Helvetica,sans-Serif" font-size="10.00">motor_internal.h</text>
</a>
</g>
</g>
<!-- Node1&#45;&gt;Node2 -->
<g id="edge1_Node000001_Node000002" class="edge">
<title>Node1&#45;&gt;Node2</title>
<g id="a_edge1_Node000001_Node000002"><a xlink:title=" ">
<path fill="none" stroke="#63b8ff" d="M543.03,-340.03C522.1,-330.56 495.93,-318.7 475.72,-309.56"/>
<polygon fill="#63b8ff" stroke="#63b8ff" points="477.41,-306.48 466.85,-305.54 474.52,-312.85 477.41,-306.48"/>
</a>
</g>
</g>
<!-- Node9 -->
<g id="Node000009" class="node">
<title>Node9</title>
<g id="a_Node000009"><a xlink:title=" ">
<polygon fill="#e0e0e0" stroke="#999999" points="1205.23,-191 1116.48,-191 1116.48,-170.25 1205.23,-170.25 1205.23,-191"/>
<text xml:space="preserve" text-anchor="middle" x="1160.85" y="-177.5" font-family="Helvetica,sans-Serif" font-size="10.00">MK22F51212.h</text>
</a>
</g>
</g>
<!-- Node1&#45;&gt;Node9 -->
<g id="edge46_Node000001_Node000009" class="edge">
<title>Node1&#45;&gt;Node9</title>
<g id="a_edge46_Node000001_Node000009"><a xlink:title=" ">
<path fill="none" stroke="#63b8ff" d="M632.82,-340.06C747.29,-305.71 1012.48,-226.14 1117.19,-194.72"/>
<polygon fill="#63b8ff" stroke="#63b8ff" points="1117.96,-198.15 1126.53,-191.92 1115.95,-191.44 1117.96,-198.15"/>
</a>
</g>
</g>
<!-- Node11 -->
<g id="Node000011" class="node">
<title>Node11</title>
<g id="a_Node000011"><a xlink:title=" ">
<polygon fill="#e0e0e0" stroke="#999999" points="505.6,-77.5 434.1,-77.5 434.1,-56.75 505.6,-56.75 505.6,-77.5"/>
<text xml:space="preserve" text-anchor="middle" x="469.85" y="-64" font-family="Helvetica,sans-Serif" font-size="10.00">FreeRTOS.h</text>
</a>
</g>
</g>
<!-- Node1&#45;&gt;Node11 -->
<g id="edge45_Node000001_Node000011" class="edge">
<title>Node1&#45;&gt;Node11</title>
<g id="a_edge45_Node000001_Node000011"><a xlink:title=" ">
<path fill="none" stroke="#63b8ff" d="M578.38,-340.29C577.25,-315.44 573.33,-266.26 559.85,-227 541.24,-172.79 504.03,-115.91 483.77,-87.17"/>
<polygon fill="#63b8ff" stroke="#63b8ff" points="486.69,-85.23 478.02,-79.14 481,-89.31 486.69,-85.23"/>
</a>
</g>
</g>
<!-- Node3 -->
<g id="Node000003" class="node">
<title>Node3</title>
<g id="a_Node000003"><a xlink:title=" ">
<polygon fill="#e0e0e0" stroke="#999999" points="198.23,-77.5 145.48,-77.5 145.48,-56.75 198.23,-56.75 198.23,-77.5"/>
<text xml:space="preserve" text-anchor="middle" x="171.85" y="-64" font-family="Helvetica,sans-Serif" font-size="10.00">stdint.h</text>
</a>
</g>
</g>
<!-- Node2&#45;&gt;Node3 -->
<g id="edge2_Node000002_Node000003" class="edge">
<title>Node2&#45;&gt;Node3</title>
<g id="a_edge2_Node000002_Node000003"><a xlink:title=" ">
<path fill="none" stroke="#63b8ff" d="M395.03,-286.12C320.05,-272.37 179.51,-233.93 124.85,-134.25 115.11,-116.49 131.14,-97.82 147.06,-84.87"/>
<polygon fill="#63b8ff" stroke="#63b8ff" points="149.15,-87.68 155.02,-78.86 144.93,-82.09 149.15,-87.68"/>
</a>
</g>
</g>
<!-- Node4 -->
<g id="Node000004" class="node">
<title>Node4</title>
<g id="a_Node000004"><a xlink:title=" ">
<polygon fill="#e0e0e0" stroke="#999999" points="550.35,-247.75 489.35,-247.75 489.35,-227 550.35,-227 550.35,-247.75"/>
<text xml:space="preserve" text-anchor="middle" x="519.85" y="-234.25" font-family="Helvetica,sans-Serif" font-size="10.00">stdbool.h</text>
</a>
</g>
</g>
<!-- Node2&#45;&gt;Node4 -->
<g id="edge3_Node000002_Node000004" class="edge">
<title>Node2&#45;&gt;Node4</title>
<g id="a_edge3_Node000002_Node000004"><a xlink:title=" ">
<path fill="none" stroke="#63b8ff" d="M457.44,-283.34C468.46,-275.4 484.24,-264.03 497.17,-254.71"/>
<polygon fill="#63b8ff" stroke="#63b8ff" points="499.09,-257.65 505.15,-248.96 494.99,-251.97 499.09,-257.65"/>
</a>
</g>
</g>
<!-- Node5 -->
<g id="Node000005" class="node">
<title>Node5</title>
<g id="a_Node000005"><a xlink:href="motor__core_8h.html" target="_top" xlink:title=" ">
<polygon fill="white" stroke="#666666" points="916.1,-247.75 835.6,-247.75 835.6,-227 916.1,-227 916.1,-247.75"/>
<text xml:space="preserve" text-anchor="middle" x="875.85" y="-234.25" font-family="Helvetica,sans-Serif" font-size="10.00">motor_core.h</text>
</a>
</g>
</g>
<!-- Node2&#45;&gt;Node5 -->
<g id="edge4_Node000002_Node000005" class="edge">
<title>Node2&#45;&gt;Node5</title>
<g id="a_edge4_Node000002_Node000005"><a xlink:title=" ">
<path fill="none" stroke="#63b8ff" d="M492.57,-286.95C574.65,-276.55 739.79,-255.62 823.97,-244.95"/>
<polygon fill="#63b8ff" stroke="#63b8ff" points="824.31,-248.44 833.79,-243.71 823.43,-241.49 824.31,-248.44"/>
</a>
</g>
</g>
<!-- Node2&#45;&gt;Node11 -->
<g id="edge42_Node000002_Node000011" class="edge">
<title>Node2&#45;&gt;Node11</title>
<g id="a_edge42_Node000002_Node000011"><a xlink:title=" ">
<path fill="none" stroke="#63b8ff" d="M433,-283.56C424.32,-275.12 412.82,-261.99 407.85,-247.75 404.82,-239.04 406.15,-236.06 407.85,-227 417.71,-174.6 444.38,-117.3 459.33,-87.92"/>
<polygon fill="#63b8ff" stroke="#63b8ff" points="462.4,-89.61 463.9,-79.12 456.19,-86.39 462.4,-89.61"/>
</a>
</g>
</g>
<!-- Node16 -->
<g id="Node000016" class="node">
<title>Node16</title>
<g id="a_Node000016"><a xlink:href="cmd__handle_8h.html" target="_top" xlink:title=" ">
<polygon fill="white" stroke="#666666" points="379.98,-134.25 295.73,-134.25 295.73,-113.5 379.98,-113.5 379.98,-134.25"/>
<text xml:space="preserve" text-anchor="middle" x="337.85" y="-120.75" font-family="Helvetica,sans-Serif" font-size="10.00">cmd_handle.h</text>
</a>
</g>
</g>
<!-- Node2&#45;&gt;Node16 -->
<g id="edge44_Node000002_Node000016" class="edge">
<title>Node2&#45;&gt;Node16</title>
<g id="a_edge44_Node000002_Node000016"><a xlink:title=" ">
<path fill="none" stroke="#63b8ff" d="M420.56,-283.31C405.2,-275.71 385.79,-263.78 373.85,-247.75 350.91,-216.96 342.54,-171.78 339.52,-145.64"/>
<polygon fill="#63b8ff" stroke="#63b8ff" points="343.03,-145.61 338.57,-136 336.06,-146.29 343.03,-145.61"/>
</a>
</g>
</g>
<!-- Node24 -->
<g id="Node000024" class="node">
<title>Node24</title>
<g id="a_Node000024"><a xlink:title=" ">
<polygon fill="#e0e0e0" stroke="#999999" points="471.35,-247.75 416.35,-247.75 416.35,-227 471.35,-227 471.35,-247.75"/>
<text xml:space="preserve" text-anchor="middle" x="443.85" y="-234.25" font-family="Helvetica,sans-Serif" font-size="10.00">queue.h</text>
</a>
</g>
</g>
<!-- Node2&#45;&gt;Node24 -->
<g id="edge43_Node000002_Node000024" class="edge">
<title>Node2&#45;&gt;Node24</title>
<g id="a_edge43_Node000002_Node000024"><a xlink:title=" ">
<path fill="none" stroke="#63b8ff" d="M443.85,-283.34C443.85,-276.72 443.85,-267.72 443.85,-259.52"/>
<polygon fill="#63b8ff" stroke="#63b8ff" points="447.35,-259.59 443.85,-249.59 440.35,-259.59 447.35,-259.59"/>
</a>
</g>
</g>
<!-- Node6 -->
<g id="Node000006" class="node">
<title>Node6</title>
<g id="a_Node000006"><a xlink:href="pca9555a_8h.html" target="_top" xlink:title=" ">
<polygon fill="white" stroke="#666666" points="715.85,-77.5 561.85,-77.5 561.85,-56.75 715.85,-56.75 715.85,-77.5"/>
<text xml:space="preserve" text-anchor="middle" x="638.85" y="-64" font-family="Helvetica,sans-Serif" font-size="10.00">driver/pca9555a/pca9555a.h</text>
</a>
</g>
</g>
<!-- Node5&#45;&gt;Node6 -->
<g id="edge5_Node000005_Node000006" class="edge">
<title>Node5&#45;&gt;Node6</title>
<g id="a_edge5_Node000005_Node000006"><a xlink:title=" ">
<path fill="none" stroke="#63b8ff" d="M835.53,-230.33C783.88,-220.26 695.91,-194.81 652.85,-134.25 643.48,-121.07 640.14,-102.92 639.06,-88.97"/>
<polygon fill="#63b8ff" stroke="#63b8ff" points="642.56,-88.96 638.65,-79.11 635.56,-89.25 642.56,-88.96"/>
</a>
</g>
</g>
<!-- Node5&#45;&gt;Node9 -->
<g id="edge8_Node000005_Node000009" class="edge">
<title>Node5&#45;&gt;Node9</title>
<g id="a_edge8_Node000005_Node000009"><a xlink:title=" ">
<path fill="none" stroke="#63b8ff" d="M916.38,-228.59C965.84,-219.09 1049.71,-202.98 1105.19,-192.32"/>
<polygon fill="#63b8ff" stroke="#63b8ff" points="1105.59,-195.81 1114.75,-190.48 1104.27,-188.93 1105.59,-195.81"/>
</a>
</g>
</g>
<!-- Node10 -->
<g id="Node000010" class="node">
<title>Node10</title>
<g id="a_Node000010"><a xlink:href="step__core_8h.html" target="_top" xlink:title=" ">
<polygon fill="white" stroke="#666666" points="827.98,-191 755.73,-191 755.73,-170.25 827.98,-170.25 827.98,-191"/>
<text xml:space="preserve" text-anchor="middle" x="791.85" y="-177.5" font-family="Helvetica,sans-Serif" font-size="10.00">step_core.h</text>
</a>
</g>
</g>
<!-- Node5&#45;&gt;Node10 -->
<g id="edge9_Node000005_Node000010" class="edge">
<title>Node5&#45;&gt;Node10</title>
<g id="a_edge9_Node000005_Node000010"><a xlink:title=" ">
<path fill="none" stroke="#63b8ff" d="M860.83,-226.59C848.41,-218.49 830.53,-206.83 816.08,-197.42"/>
<polygon fill="#63b8ff" stroke="#63b8ff" points="818.3,-194.68 808.01,-192.15 814.47,-200.55 818.3,-194.68"/>
</a>
</g>
</g>
<!-- Node13 -->
<g id="Node000013" class="node">
<title>Node13</title>
<g id="a_Node000013"><a xlink:title=" ">
<polygon fill="#e0e0e0" stroke="#999999" points="1170.23,-77.5 1111.48,-77.5 1111.48,-56.75 1170.23,-56.75 1170.23,-77.5"/>
<text xml:space="preserve" text-anchor="middle" x="1140.85" y="-64" font-family="Helvetica,sans-Serif" font-size="10.00">fsl_ftm.h</text>
</a>
</g>
</g>
<!-- Node5&#45;&gt;Node13 -->
<g id="edge39_Node000005_Node000013" class="edge">
<title>Node5&#45;&gt;Node13</title>
<g id="a_edge39_Node000005_Node000013"><a xlink:title=" ">
<path fill="none" stroke="#63b8ff" d="M892.08,-226.56C907.12,-217.44 930.07,-203.42 949.85,-191 1010.28,-153.04 1080.73,-107.34 1116.83,-83.82"/>
<polygon fill="#63b8ff" stroke="#63b8ff" points="1118.33,-87.02 1124.79,-78.62 1114.51,-81.15 1118.33,-87.02"/>
</a>
</g>
</g>
<!-- Node14 -->
<g id="Node000014" class="node">
<title>Node14</title>
<g id="a_Node000014"><a xlink:title=" ">
<polygon fill="#e0e0e0" stroke="#999999" points="1013.48,-77.5 950.23,-77.5 950.23,-56.75 1013.48,-56.75 1013.48,-77.5"/>
<text xml:space="preserve" text-anchor="middle" x="981.85" y="-64" font-family="Helvetica,sans-Serif" font-size="10.00">fsl_gpio.h</text>
</a>
</g>
</g>
<!-- Node5&#45;&gt;Node14 -->
<g id="edge40_Node000005_Node000014" class="edge">
<title>Node5&#45;&gt;Node14</title>
<g id="a_edge40_Node000005_Node000014"><a xlink:title=" ">
<path fill="none" stroke="#63b8ff" d="M881.85,-226.85C898.76,-200.02 946.99,-123.46 969.72,-87.38"/>
<polygon fill="#63b8ff" stroke="#63b8ff" points="972.47,-89.57 974.84,-79.25 966.55,-85.84 972.47,-89.57"/>
</a>
</g>
</g>
<!-- Node15 -->
<g id="Node000015" class="node">
<title>Node15</title>
<g id="a_Node000015"><a xlink:title=" ">
<polygon fill="#e0e0e0" stroke="#999999" points="1093.73,-77.5 1031.98,-77.5 1031.98,-56.75 1093.73,-56.75 1093.73,-77.5"/>
<text xml:space="preserve" text-anchor="middle" x="1062.85" y="-64" font-family="Helvetica,sans-Serif" font-size="10.00">fsl_port.h</text>
</a>
</g>
</g>
<!-- Node5&#45;&gt;Node15 -->
<g id="edge41_Node000005_Node000015" class="edge">
<title>Node5&#45;&gt;Node15</title>
<g id="a_edge41_Node000005_Node000015"><a xlink:title=" ">
<path fill="none" stroke="#63b8ff" d="M886.71,-226.6C917.31,-199.07 1004.52,-120.61 1043.55,-85.49"/>
<polygon fill="#63b8ff" stroke="#63b8ff" points="1045.74,-88.23 1050.83,-78.94 1041.06,-83.02 1045.74,-88.23"/>
</a>
</g>
</g>
<!-- Node21 -->
<g id="Node000021" class="node">
<title>Node21</title>
<g id="a_Node000021"><a xlink:href="tmc2209__core_8h.html" target="_top" xlink:title=" ">
<polygon fill="white" stroke="#666666" points="316.85,-191 222.85,-191 222.85,-170.25 316.85,-170.25 316.85,-191"/>
<text xml:space="preserve" text-anchor="middle" x="269.85" y="-177.5" font-family="Helvetica,sans-Serif" font-size="10.00">tmc2209_core.h</text>
</a>
</g>
</g>
<!-- Node5&#45;&gt;Node21 -->
<g id="edge31_Node000005_Node000021" class="edge">
<title>Node5&#45;&gt;Node21</title>
<g id="a_edge31_Node000005_Node000021"><a xlink:title=" ">
<path fill="none" stroke="#63b8ff" d="M835.15,-232.7C730.26,-223.22 450.43,-197.94 328.26,-186.9"/>
<polygon fill="#63b8ff" stroke="#63b8ff" points="328.73,-183.43 318.45,-186.02 328.1,-190.4 328.73,-183.43"/>
</a>
</g>
</g>
<!-- Node7 -->
<g id="Node000007" class="node">
<title>Node7</title>
<g id="a_Node000007"><a xlink:title=" ">
<polygon fill="#e0e0e0" stroke="#999999" points="681.35,-20.75 596.35,-20.75 596.35,0 681.35,0 681.35,-20.75"/>
<text xml:space="preserve" text-anchor="middle" x="638.85" y="-7.25" font-family="Helvetica,sans-Serif" font-size="10.00">fsl_common.h</text>
</a>
</g>
</g>
<!-- Node6&#45;&gt;Node7 -->
<g id="edge6_Node000006_Node000007" class="edge">
<title>Node6&#45;&gt;Node7</title>
<g id="a_edge6_Node000006_Node000007"><a xlink:title=" ">
<path fill="none" stroke="#63b8ff" d="M638.85,-56.34C638.85,-49.72 638.85,-40.72 638.85,-32.52"/>
<polygon fill="#63b8ff" stroke="#63b8ff" points="642.35,-32.59 638.85,-22.59 635.35,-32.59 642.35,-32.59"/>
</a>
</g>
</g>
<!-- Node8 -->
<g id="Node000008" class="node">
<title>Node8</title>
<g id="a_Node000008"><a xlink:title=" ">
<polygon fill="#e0e0e0" stroke="#999999" points="306.73,-20.75 226.98,-20.75 226.98,0 306.73,0 306.73,-20.75"/>
<text xml:space="preserve" text-anchor="middle" x="266.85" y="-7.25" font-family="Helvetica,sans-Serif" font-size="10.00">peripherals.h</text>
</a>
</g>
</g>
<!-- Node6&#45;&gt;Node8 -->
<g id="edge7_Node000006_Node000008" class="edge">
<title>Node6&#45;&gt;Node8</title>
<g id="a_edge7_Node000006_Node000008"><a xlink:title=" ">
<path fill="none" stroke="#63b8ff" d="M571.92,-56.27C499.2,-45.57 384.59,-28.7 318.5,-18.98"/>
<polygon fill="#63b8ff" stroke="#63b8ff" points="319.04,-15.52 308.64,-17.53 318.03,-22.44 319.04,-15.52"/>
</a>
</g>
</g>
<!-- Node10&#45;&gt;Node6 -->
<g id="edge10_Node000010_Node000006" class="edge">
<title>Node10&#45;&gt;Node6</title>
<g id="a_edge10_Node000010_Node000006"><a xlink:title=" ">
<path fill="none" stroke="#63b8ff" d="M755.45,-172.97C729.82,-166.7 696.08,-155.04 672.85,-134.25 659.17,-122.01 650.2,-102.97 644.93,-88.45"/>
<polygon fill="#63b8ff" stroke="#63b8ff" points="648.27,-87.42 641.82,-79.02 641.62,-89.61 648.27,-87.42"/>
</a>
</g>
</g>
<!-- Node10&#45;&gt;Node7 -->
<g id="edge13_Node000010_Node000007" class="edge">
<title>Node10&#45;&gt;Node7</title>
<g id="a_edge13_Node000010_Node000007"><a xlink:title=" ">
<path fill="none" stroke="#63b8ff" d="M788.72,-169.8C781.09,-147.24 759.62,-91.05 724.85,-56.75 711.34,-43.43 693.12,-33.06 676.93,-25.61"/>
<polygon fill="#63b8ff" stroke="#63b8ff" points="678.6,-22.53 668.04,-21.75 675.81,-28.95 678.6,-22.53"/>
</a>
</g>
</g>
<!-- Node10&#45;&gt;Node11 -->
<g id="edge11_Node000010_Node000011" class="edge">
<title>Node10&#45;&gt;Node11</title>
<g id="a_edge11_Node000010_Node000011"><a xlink:title=" ">
<path fill="none" stroke="#63b8ff" d="M760.84,-169.81C732.61,-160.8 689.82,-146.96 652.85,-134.25 602.04,-116.78 543.73,-95.5 506.85,-81.88"/>
<polygon fill="#63b8ff" stroke="#63b8ff" points="508.14,-78.62 497.54,-78.44 505.71,-85.19 508.14,-78.62"/>
</a>
</g>
</g>
<!-- Node12 -->
<g id="Node000012" class="node">
<title>Node12</title>
<g id="a_Node000012"><a xlink:title=" ">
<polygon fill="#e0e0e0" stroke="#999999" points="727.85,-134.25 681.85,-134.25 681.85,-113.5 727.85,-113.5 727.85,-134.25"/>
<text xml:space="preserve" text-anchor="middle" x="704.85" y="-120.75" font-family="Helvetica,sans-Serif" font-size="10.00">task.h</text>
</a>
</g>
</g>
<!-- Node10&#45;&gt;Node12 -->
<g id="edge12_Node000010_Node000012" class="edge">
<title>Node10&#45;&gt;Node12</title>
<g id="a_edge12_Node000010_Node000012"><a xlink:title=" ">
<path fill="none" stroke="#63b8ff" d="M776.3,-169.84C763.43,-161.74 744.91,-150.08 729.95,-140.67"/>
<polygon fill="#63b8ff" stroke="#63b8ff" points="731.88,-137.75 721.55,-135.38 728.15,-143.67 731.88,-137.75"/>
</a>
</g>
</g>
<!-- Node10&#45;&gt;Node13 -->
<g id="edge14_Node000010_Node000013" class="edge">
<title>Node10&#45;&gt;Node13</title>
<g id="a_edge14_Node000010_Node000013"><a xlink:title=" ">
<path fill="none" stroke="#63b8ff" d="M827.07,-169.79C858.58,-160.88 905.95,-147.2 946.85,-134.25 1001.19,-117.04 1063.49,-95.48 1102.5,-81.75"/>
<polygon fill="#63b8ff" stroke="#63b8ff" points="1103.65,-85.05 1111.92,-78.43 1101.33,-78.45 1103.65,-85.05"/>
</a>
</g>
</g>
<!-- Node10&#45;&gt;Node14 -->
<g id="edge15_Node000010_Node000014" class="edge">
<title>Node10&#45;&gt;Node14</title>
<g id="a_edge15_Node000010_Node000014"><a xlink:title=" ">
<path fill="none" stroke="#63b8ff" d="M812.08,-169.91C830.11,-161.08 857.1,-147.45 879.85,-134.25 907.49,-118.22 938.12,-98.02 958.53,-84.19"/>
<polygon fill="#63b8ff" stroke="#63b8ff" points="960.4,-87.15 966.69,-78.63 956.45,-81.37 960.4,-87.15"/>
</a>
</g>
</g>
<!-- Node10&#45;&gt;Node15 -->
<g id="edge16_Node000010_Node000015" class="edge">
<title>Node10&#45;&gt;Node15</title>
<g id="a_edge16_Node000010_Node000015"><a xlink:title=" ">
<path fill="none" stroke="#63b8ff" d="M818.22,-169.84C842.21,-160.85 878.56,-147.02 909.85,-134.25 951.91,-117.08 999.92,-96.1 1030.77,-82.44"/>
<polygon fill="#63b8ff" stroke="#63b8ff" points="1031.82,-85.81 1039.54,-78.55 1028.98,-79.41 1031.82,-85.81"/>
</a>
</g>
</g>
<!-- Node10&#45;&gt;Node16 -->
<g id="edge17_Node000010_Node000016" class="edge">
<title>Node10&#45;&gt;Node16</title>
<g id="a_edge17_Node000010_Node000016"><a xlink:title=" ">
<path fill="none" stroke="#63b8ff" d="M755.47,-175.24C675.68,-165.62 485.02,-142.62 391.47,-131.34"/>
<polygon fill="#63b8ff" stroke="#63b8ff" points="392.14,-127.9 381.79,-130.17 391.3,-134.85 392.14,-127.9"/>
</a>
</g>
</g>
<!-- Node19 -->
<g id="Node000019" class="node">
<title>Node19</title>
<g id="a_Node000019"><a xlink:href="step__shared_8h.html" target="_top" xlink:title=" ">
<polygon fill="white" stroke="#666666" points="870.98,-134.25 786.73,-134.25 786.73,-113.5 870.98,-113.5 870.98,-134.25"/>
<text xml:space="preserve" text-anchor="middle" x="828.85" y="-120.75" font-family="Helvetica,sans-Serif" font-size="10.00">step_shared.h</text>
</a>
</g>
</g>
<!-- Node10&#45;&gt;Node19 -->
<g id="edge23_Node000010_Node000019" class="edge">
<title>Node10&#45;&gt;Node19</title>
<g id="a_edge23_Node000010_Node000019"><a xlink:title=" ">
<path fill="none" stroke="#63b8ff" d="M798.47,-169.84C803.31,-162.67 810.03,-152.73 815.92,-144.01"/>
<polygon fill="#63b8ff" stroke="#63b8ff" points="818.75,-146.08 821.45,-135.83 812.95,-142.16 818.75,-146.08"/>
</a>
</g>
</g>
<!-- Node16&#45;&gt;Node3 -->
<g id="edge18_Node000016_Node000003" class="edge">
<title>Node16&#45;&gt;Node3</title>
<g id="a_edge18_Node000016_Node000003"><a xlink:title=" ">
<path fill="none" stroke="#63b8ff" d="M308.17,-113.09C280.55,-103.98 239.27,-90.36 209.38,-80.5"/>
<polygon fill="#63b8ff" stroke="#63b8ff" points="210.56,-77.21 199.97,-77.4 208.37,-83.85 210.56,-77.21"/>
</a>
</g>
</g>
<!-- Node16&#45;&gt;Node7 -->
<g id="edge21_Node000016_Node000007" class="edge">
<title>Node16&#45;&gt;Node7</title>
<g id="a_edge21_Node000016_Node000007"><a xlink:title=" ">
<path fill="none" stroke="#63b8ff" d="M347.59,-113.1C362.73,-98.48 393.46,-71.13 424.85,-56.75 476.31,-33.19 540.38,-21.68 584.94,-16.18"/>
<polygon fill="#63b8ff" stroke="#63b8ff" points="585.08,-19.69 594.6,-15.05 584.27,-12.73 585.08,-19.69"/>
</a>
</g>
</g>
<!-- Node16&#45;&gt;Node11 -->
<g id="edge19_Node000016_Node000011" class="edge">
<title>Node16&#45;&gt;Node11</title>
<g id="a_edge19_Node000016_Node000011"><a xlink:title=" ">
<path fill="none" stroke="#63b8ff" d="M361.45,-113.09C382.19,-104.48 412.62,-91.86 435.97,-82.18"/>
<polygon fill="#63b8ff" stroke="#63b8ff" points="437.16,-85.47 445.06,-78.41 434.48,-79.01 437.16,-85.47"/>
</a>
</g>
</g>
<!-- Node17 -->
<g id="Node000017" class="node">
<title>Node17</title>
<g id="a_Node000017"><a xlink:title=" ">
<polygon fill="#e0e0e0" stroke="#999999" points="307.35,-77.5 216.35,-77.5 216.35,-56.75 307.35,-56.75 307.35,-77.5"/>
<text xml:space="preserve" text-anchor="middle" x="261.85" y="-64" font-family="Helvetica,sans-Serif" font-size="10.00">event_groups.h</text>
</a>
</g>
</g>
<!-- Node16&#45;&gt;Node17 -->
<g id="edge20_Node000016_Node000017" class="edge">
<title>Node16&#45;&gt;Node17</title>
<g id="a_edge20_Node000016_Node000017"><a xlink:title=" ">
<path fill="none" stroke="#63b8ff" d="M324.26,-113.09C313.24,-105.15 297.46,-93.78 284.53,-84.46"/>
<polygon fill="#63b8ff" stroke="#63b8ff" points="286.71,-81.72 276.55,-78.71 282.62,-87.4 286.71,-81.72"/>
</a>
</g>
</g>
<!-- Node18 -->
<g id="Node000018" class="node">
<title>Node18</title>
<g id="a_Node000018"><a xlink:title=" ">
<polygon fill="#e0e0e0" stroke="#999999" points="377.85,-77.5 325.85,-77.5 325.85,-56.75 377.85,-56.75 377.85,-77.5"/>
<text xml:space="preserve" text-anchor="middle" x="351.85" y="-64" font-family="Helvetica,sans-Serif" font-size="10.00">stdlib.h</text>
</a>
</g>
</g>
<!-- Node16&#45;&gt;Node18 -->
<g id="edge22_Node000016_Node000018" class="edge">
<title>Node16&#45;&gt;Node18</title>
<g id="a_edge22_Node000016_Node000018"><a xlink:title=" ">
<path fill="none" stroke="#63b8ff" d="M340.35,-113.09C342.07,-106.39 344.4,-97.26 346.52,-88.98"/>
<polygon fill="#63b8ff" stroke="#63b8ff" points="349.91,-89.85 348.99,-79.29 343.13,-88.12 349.91,-89.85"/>
</a>
</g>
</g>
<!-- Node19&#45;&gt;Node3 -->
<g id="edge24_Node000019_Node000003" class="edge">
<title>Node19&#45;&gt;Node3</title>
<g id="a_edge24_Node000019_Node000003"><a xlink:title=" ">
<path fill="none" stroke="#63b8ff" d="M786.28,-118.23C770.74,-116.62 753.01,-114.87 736.85,-113.5 505.27,-93.84 441.73,-115.53 209.67,-77.68"/>
<polygon fill="#63b8ff" stroke="#63b8ff" points="210.42,-74.25 199.98,-76.08 209.28,-81.16 210.42,-74.25"/>
</a>
</g>
</g>
<!-- Node19&#45;&gt;Node6 -->
<g id="edge25_Node000019_Node000006" class="edge">
<title>Node19&#45;&gt;Node6</title>
<g id="a_edge25_Node000019_Node000006"><a xlink:title=" ">
<path fill="none" stroke="#63b8ff" d="M794.88,-113.09C763.91,-104.16 717.92,-90.91 683.89,-81.1"/>
<polygon fill="#63b8ff" stroke="#63b8ff" points="684.88,-77.75 674.3,-78.34 682.94,-84.47 684.88,-77.75"/>
</a>
</g>
</g>
<!-- Node19&#45;&gt;Node7 -->
<g id="edge27_Node000019_Node000007" class="edge">
<title>Node19&#45;&gt;Node7</title>
<g id="a_edge27_Node000019_Node000007"><a xlink:title=" ">
<path fill="none" stroke="#63b8ff" d="M854.68,-113.08C882.9,-100.96 921.73,-79.15 902.85,-56.75 876.56,-25.55 762.26,-15.8 692.97,-12.76"/>
<polygon fill="#63b8ff" stroke="#63b8ff" points="693.48,-9.28 683.35,-12.37 693.2,-16.27 693.48,-9.28"/>
</a>
</g>
</g>
<!-- Node19&#45;&gt;Node13 -->
<g id="edge28_Node000019_Node000013" class="edge">
<title>Node19&#45;&gt;Node13</title>
<g id="a_edge28_Node000019_Node000013"><a xlink:title=" ">
<path fill="none" stroke="#63b8ff" d="M871.28,-116.89C923.08,-109.36 1013.57,-95.47 1099.97,-77.98"/>
<polygon fill="#63b8ff" stroke="#63b8ff" points="1100.45,-81.45 1109.55,-76.02 1099.05,-74.59 1100.45,-81.45"/>
</a>
</g>
</g>
<!-- Node19&#45;&gt;Node14 -->
<g id="edge29_Node000019_Node000014" class="edge">
<title>Node19&#45;&gt;Node14</title>
<g id="a_edge29_Node000019_Node000014"><a xlink:title=" ">
<path fill="none" stroke="#63b8ff" d="M856.2,-113.09C880.61,-104.36 916.58,-91.48 943.78,-81.75"/>
<polygon fill="#63b8ff" stroke="#63b8ff" points="944.82,-85.1 953.05,-78.43 942.46,-78.5 944.82,-85.1"/>
</a>
</g>
</g>
<!-- Node19&#45;&gt;Node15 -->
<g id="edge30_Node000019_Node000015" class="edge">
<title>Node19&#45;&gt;Node15</title>
<g id="a_edge30_Node000019_Node000015"><a xlink:title=" ">
<path fill="none" stroke="#63b8ff" d="M870.86,-113.06C907.77,-104.43 963.25,-91.45 1020.71,-78"/>
<polygon fill="#63b8ff" stroke="#63b8ff" points="1021.43,-81.43 1030.37,-75.74 1019.83,-74.61 1021.43,-81.43"/>
</a>
</g>
</g>
<!-- Node20 -->
<g id="Node000020" class="node">
<title>Node20</title>
<g id="a_Node000020"><a xlink:title=" ">
<polygon fill="#e0e0e0" stroke="#999999" points="894.1,-77.5 771.6,-77.5 771.6,-56.75 894.1,-56.75 894.1,-77.5"/>
<text xml:space="preserve" text-anchor="middle" x="832.85" y="-64" font-family="Helvetica,sans-Serif" font-size="10.00">fsl_device_registers.h</text>
</a>
</g>
</g>
<!-- Node19&#45;&gt;Node20 -->
<g id="edge26_Node000019_Node000020" class="edge">
<title>Node19&#45;&gt;Node20</title>
<g id="a_edge26_Node000019_Node000020"><a xlink:title=" ">
<path fill="none" stroke="#63b8ff" d="M829.57,-113.09C830.05,-106.47 830.71,-97.47 831.31,-89.27"/>
<polygon fill="#63b8ff" stroke="#63b8ff" points="834.79,-89.57 832.03,-79.34 827.81,-89.06 834.79,-89.57"/>
</a>
</g>
</g>
<!-- Node21&#45;&gt;Node3 -->
<g id="edge32_Node000021_Node000003" class="edge">
<title>Node21&#45;&gt;Node3</title>
<g id="a_edge32_Node000021_Node000003"><a xlink:title=" ">
<path fill="none" stroke="#63b8ff" d="M268.97,-170.08C267.26,-156.26 262.36,-130.46 248.85,-113.5 238.35,-100.32 222.89,-90.15 208.58,-82.82"/>
<polygon fill="#63b8ff" stroke="#63b8ff" points="210.34,-79.78 199.81,-78.63 207.32,-86.1 210.34,-79.78"/>
</a>
</g>
</g>
<!-- Node21&#45;&gt;Node7 -->
<g id="edge36_Node000021_Node000007" class="edge">
<title>Node21&#45;&gt;Node7</title>
<g id="a_edge36_Node000021_Node000007"><a xlink:title=" ">
<path fill="none" stroke="#63b8ff" d="M296.97,-169.8C321.21,-160.9 357.61,-147.23 388.85,-134.25 445.57,-110.69 459.86,-104.85 514.85,-77.5 532.08,-68.93 535.9,-65.85 552.85,-56.75 571.94,-46.5 593.51,-35.12 610.27,-26.32"/>
<polygon fill="#63b8ff" stroke="#63b8ff" points="611.45,-29.66 618.68,-21.91 608.2,-23.46 611.45,-29.66"/>
</a>
</g>
</g>
<!-- Node21&#45;&gt;Node8 -->
<g id="edge38_Node000021_Node000008" class="edge">
<title>Node21&#45;&gt;Node8</title>
<g id="a_edge38_Node000021_Node000008"><a xlink:title=" ">
<path fill="none" stroke="#63b8ff" d="M222.48,-174.62C132.46,-163.28 -49.06,-130.7 12.85,-56.75 38.17,-26.51 148.8,-16.4 215.43,-13.04"/>
<polygon fill="#63b8ff" stroke="#63b8ff" points="215.19,-16.56 225.01,-12.59 214.86,-9.56 215.19,-16.56"/>
</a>
</g>
</g>
<!-- Node21&#45;&gt;Node16 -->
<g id="edge37_Node000021_Node000016" class="edge">
<title>Node21&#45;&gt;Node16</title>
<g id="a_edge37_Node000021_Node000016"><a xlink:title=" ">
<path fill="none" stroke="#63b8ff" d="M282.01,-169.84C291.68,-162.05 305.44,-150.97 316.88,-141.76"/>
<polygon fill="#63b8ff" stroke="#63b8ff" points="319.03,-144.53 324.62,-135.53 314.64,-139.07 319.03,-144.53"/>
</a>
</g>
</g>
<!-- Node22 -->
<g id="Node000022" class="node">
<title>Node22</title>
<g id="a_Node000022"><a xlink:href="tmc2209__shared_8h.html" target="_top" xlink:title=" ">
<polygon fill="white" stroke="#666666" points="239.85,-134.25 133.85,-134.25 133.85,-113.5 239.85,-113.5 239.85,-134.25"/>
<text xml:space="preserve" text-anchor="middle" x="186.85" y="-120.75" font-family="Helvetica,sans-Serif" font-size="10.00">tmc2209_shared.h</text>
</a>
</g>
</g>
<!-- Node21&#45;&gt;Node22 -->
<g id="edge33_Node000021_Node000022" class="edge">
<title>Node21&#45;&gt;Node22</title>
<g id="a_edge33_Node000021_Node000022"><a xlink:title=" ">
<path fill="none" stroke="#63b8ff" d="M255.01,-169.84C242.74,-161.74 225.07,-150.08 210.79,-140.67"/>
<polygon fill="#63b8ff" stroke="#63b8ff" points="213.1,-138 202.82,-135.41 209.25,-143.84 213.1,-138"/>
</a>
</g>
</g>
<!-- Node22&#45;&gt;Node3 -->
<g id="edge34_Node000022_Node000003" class="edge">
<title>Node22&#45;&gt;Node3</title>
<g id="a_edge34_Node000022_Node000003"><a xlink:title=" ">
<path fill="none" stroke="#63b8ff" d="M184.17,-113.09C182.31,-106.31 179.78,-97.05 177.49,-88.69"/>
<polygon fill="#63b8ff" stroke="#63b8ff" points="180.93,-88.01 174.91,-79.29 174.18,-89.86 180.93,-88.01"/>
</a>
</g>
</g>
<!-- Node23 -->
<g id="Node000023" class="node">
<title>Node23</title>
<g id="a_Node000023"><a xlink:title=" ">
<polygon fill="#e0e0e0" stroke="#999999" points="127.48,-77.5 22.23,-77.5 22.23,-56.75 127.48,-56.75 127.48,-77.5"/>
<text xml:space="preserve" text-anchor="middle" x="74.85" y="-64" font-family="Helvetica,sans-Serif" font-size="10.00">fsl_uart_freertos.h</text>
</a>
</g>
</g>
<!-- Node22&#45;&gt;Node23 -->
<g id="edge35_Node000022_Node000023" class="edge">
<title>Node22&#45;&gt;Node23</title>
<g id="a_edge35_Node000022_Node000023"><a xlink:title=" ">
<path fill="none" stroke="#63b8ff" d="M166.83,-113.09C149.63,-104.68 124.57,-92.43 104.96,-82.84"/>
<polygon fill="#63b8ff" stroke="#63b8ff" points="106.58,-79.74 96.06,-78.49 103.51,-86.03 106.58,-79.74"/>
</a>
</g>
</g>
</g>
</svg>
