<?xml version="1.0" encoding="UTF-8" standalone="no"?>
<!DOCTYPE svg PUBLIC "-//W3C//DTD SVG 1.1//EN"
 "http://www.w3.org/Graphics/SVG/1.1/DTD/svg11.dtd">
<!-- Generated by graphviz version 14.1.4 (0)
 -->
<!-- Title: source/motion/motor/motor_core.c Pages: 1 -->
<!--zoomable 439 -->

<svg id="main" version="1.1" xmlns="http://www.w3.org/2000/svg" xmlns:xlink="http://www.w3.org/1999/xlink" xml:space="preserve" onload="init(evt)">

<style type="text/css"><![CDATA[
.node, .edge {opacity: 0.7;}
.node.selected, .edge.selected {opacity: 1;}
.edge:hover path { stroke: red; }
.edge:hover polygon { stroke: red; fill: red; }
]]></style>

<defs>
  <circle id="rim" cx="0" cy="0" r="7"/>
  <circle id="rim2" cx="0" cy="0" r="3.5"/>
  <g id="zoomPlus">
    <use xlink:href="#rim" fill="#404040"><set attributeName="fill" to="#808080" begin="zoomplus.mouseover" end="zoomplus.mouseout"/></use>
    <path d="M-4,0h8M0,-4v8" fill="none" stroke="white" stroke-width="1.5" pointer-events="none"/>
  </g>
  <g id="zoomMin">
    <use xlink:href="#rim" fill="#404040"><set attributeName="fill" to="#808080" begin="zoomminus.mouseover" end="zoomminus.mouseout"/></use>
    <path d="M-4,0h8" fill="none" stroke="white" stroke-width="1.5" pointer-events="none"/>
  </g>
  <g id="arrowUp" transform="translate(30 24)">
    <use xlink:href="#rim"/>
    <path pointer-events="none" fill="none" stroke="white" stroke-width="1.5" d="M0,-3.0v7 M-2.5,-0.5L0,-3.0L2.5,-0.5"/>
  </g>
  <g id="arrowRight" transform="rotate(90) translate(36 -43)">
    <use xlink:href="#rim"/>
    <path pointer-events="none" fill="none" stroke="white" stroke-width="1.5" d="M0,-3.0v7 M-2.5,-0.5L0,-3.0L2.5,-0.5"/>
  </g>
  <g id="arrowDown" transform="rotate(180) translate(-30 -48)">
    <use xlink:href="#rim"/>
    <path pointer-events="none" fill="none" stroke="white" stroke-width="1.5" d="M0,-3.0v7 M-2.5,-0.5L0,-3.0L2.5,-0.5"/>
  </g>
  <g id="arrowLeft" transform="rotate(270) translate(-36 17)">
    <use xlink:href="#rim"/>
    <path pointer-events="none" fill="none" stroke="white" stroke-width="1.5" d="M0,-3.0v7 M-2.5,-0.5L0,-3.0L2.5,-0.5"/>
  </g>
  <g id="resetDef">
    <use xlink:href="#rim2" fill="#404040"><set attributeName="fill" to="#808080" begin="reset.mouseover" end="reset.mouseout"/></use>
  </g>
</defs>
<script type="application/ecmascript">
var viewWidth = 1326;
var viewHeight = 439;
var sectionId = 'dynsection-0';
</script>
<script type="application/ecmascript" xlink:href="svg.min.js"/>
<svg id="graph" class="graph">
<g id="viewport">
<title>source/motion/motor/motor_core.c</title>
<!-- Node1 -->
<g id="Node000001" class="node">
<title>Node1</title>
<g id="a_Node000001"><a xlink:title=" ">
<polygon fill="#999999" stroke="#666666" points="1078.12,-430.75 960.12,-430.75 960.12,-397.25 1078.12,-397.25 1078.12,-430.75"/>
<text xml:space="preserve" text-anchor="start" x="968.12" y="-417.25" font-family="Helvetica,sans-Serif" font-size="10.00">source/motion/motor</text>
<text xml:space="preserve" text-anchor="middle" x="1019.12" y="-404.5" font-family="Helvetica,sans-Serif" font-size="10.00">/motor_core.c</text>
</a>
</g>
</g>
<!-- Node2 -->
<g id="Node000002" class="node">
<title>Node2</title>
<g id="a_Node000002"><a xlink:href="motor__core_8h.html" target="_top" xlink:title=" ">
<polygon fill="white" stroke="#666666" points="585.37,-247.75 504.87,-247.75 504.87,-227 585.37,-227 585.37,-247.75"/>
<text xml:space="preserve" text-anchor="middle" x="545.12" y="-234.25" font-family="Helvetica,sans-Serif" font-size="10.00">motor_core.h</text>
</a>
</g>
</g>
<!-- Node1&#45;&gt;Node2 -->
<g id="edge1_Node000001_Node000002" class="edge">
<title>Node1&#45;&gt;Node2</title>
<g id="a_edge1_Node000001_Node000002"><a xlink:title=" ">
<path fill="none" stroke="#63b8ff" d="M959.83,-408.91C901.26,-403.33 809.98,-390.43 736.12,-361.25 668.37,-334.48 598.92,-282.35 565.52,-255.41"/>
<polygon fill="#63b8ff" stroke="#63b8ff" points="567.85,-252.79 557.89,-249.17 563.42,-258.21 567.85,-252.79"/>
</a>
</g>
</g>
<!-- Node22 -->
<g id="Node000022" class="node">
<title>Node22</title>
<g id="a_Node000022"><a xlink:href="motor__process_8h.html" target="_top" xlink:title=" ">
<polygon fill="white" stroke="#666666" points="841.62,-361.25 744.62,-361.25 744.62,-340.5 841.62,-340.5 841.62,-361.25"/>
<text xml:space="preserve" text-anchor="middle" x="793.12" y="-347.75" font-family="Helvetica,sans-Serif" font-size="10.00">motor_process.h</text>
</a>
</g>
</g>
<!-- Node1&#45;&gt;Node22 -->
<g id="edge36_Node000001_Node000022" class="edge">
<title>Node1&#45;&gt;Node22</title>
<g id="a_edge36_Node000001_Node000022"><a xlink:title=" ">
<path fill="none" stroke="#63b8ff" d="M959.74,-396.94C922.45,-386.85 875.02,-374.03 840.31,-364.64"/>
<polygon fill="#63b8ff" stroke="#63b8ff" points="841.54,-361.34 830.97,-362.11 839.71,-368.1 841.54,-361.34"/>
</a>
</g>
</g>
<!-- Node24 -->
<g id="Node000024" class="node">
<title>Node24</title>
<g id="a_Node000024"><a xlink:title=" ">
<polygon fill="#e0e0e0" stroke="#999999" points="989.62,-247.75 934.62,-247.75 934.62,-227 989.62,-227 989.62,-247.75"/>
<text xml:space="preserve" text-anchor="middle" x="962.12" y="-234.25" font-family="Helvetica,sans-Serif" font-size="10.00">queue.h</text>
</a>
</g>
</g>
<!-- Node1&#45;&gt;Node24 -->
<g id="edge50_Node000001_Node000024" class="edge">
<title>Node1&#45;&gt;Node24</title>
<g id="a_edge50_Node000001_Node000024"><a xlink:title=" ">
<path fill="none" stroke="#63b8ff" d="M1013.86,-396.88C1003.46,-365.01 980.27,-293.97 968.8,-258.85"/>
<polygon fill="#63b8ff" stroke="#63b8ff" points="972.18,-257.9 965.75,-249.48 965.52,-260.07 972.18,-257.9"/>
</a>
</g>
</g>
<!-- Node25 -->
<g id="Node000025" class="node">
<title>Node25</title>
<g id="a_Node000025"><a xlink:href="cmd__dispatch_8h.html" target="_top" xlink:title=" ">
<polygon fill="white" stroke="#666666" points="1102.37,-304.5 1009.87,-304.5 1009.87,-283.75 1102.37,-283.75 1102.37,-304.5"/>
<text xml:space="preserve" text-anchor="middle" x="1056.12" y="-291" font-family="Helvetica,sans-Serif" font-size="10.00">cmd_dispatch.h</text>
</a>
</g>
</g>
<!-- Node1&#45;&gt;Node25 -->
<g id="edge42_Node000001_Node000025" class="edge">
<title>Node1&#45;&gt;Node25</title>
<g id="a_edge42_Node000001_Node000025"><a xlink:title=" ">
<path fill="none" stroke="#63b8ff" d="M1024.11,-397.1C1030.73,-376.02 1042.42,-338.78 1049.69,-315.61"/>
<polygon fill="#63b8ff" stroke="#63b8ff" points="1052.93,-316.97 1052.59,-306.38 1046.26,-314.87 1052.93,-316.97"/>
</a>
</g>
</g>
<!-- Node26 -->
<g id="Node000026" class="node">
<title>Node26</title>
<g id="a_Node000026"><a xlink:href="log_8h.html" target="_top" xlink:title=" ">
<polygon fill="white" stroke="#666666" points="1200.12,-134.25 1160.12,-134.25 1160.12,-113.5 1200.12,-113.5 1200.12,-134.25"/>
<text xml:space="preserve" text-anchor="middle" x="1180.12" y="-120.75" font-family="Helvetica,sans-Serif" font-size="10.00">log.h</text>
</a>
</g>
</g>
<!-- Node1&#45;&gt;Node26 -->
<g id="edge47_Node000001_Node000026" class="edge">
<title>Node1&#45;&gt;Node26</title>
<g id="a_edge47_Node000001_Node000026"><a xlink:title=" ">
<path fill="none" stroke="#63b8ff" d="M1070.24,-396.84C1114.05,-379.43 1170.12,-347.01 1170.12,-295.12 1170.12,-295.12 1170.12,-295.12 1170.12,-236.38 1170.12,-204.71 1174.17,-168.19 1177.12,-145.82"/>
<polygon fill="#63b8ff" stroke="#63b8ff" points="1180.55,-146.58 1178.44,-136.19 1173.61,-145.62 1180.55,-146.58"/>
</a>
</g>
</g>
<!-- Node27 -->
<g id="Node000027" class="node">
<title>Node27</title>
<g id="a_Node000027"><a xlink:title=" ">
<polygon fill="#e0e0e0" stroke="#999999" points="1250.5,-361.25 1197.75,-361.25 1197.75,-340.5 1250.5,-340.5 1250.5,-361.25"/>
<text xml:space="preserve" text-anchor="middle" x="1224.12" y="-347.75" font-family="Helvetica,sans-Serif" font-size="10.00">string.h</text>
</a>
</g>
</g>
<!-- Node1&#45;&gt;Node27 -->
<g id="edge51_Node000001_Node000027" class="edge">
<title>Node1&#45;&gt;Node27</title>
<g id="a_edge51_Node000001_Node000027"><a xlink:title=" ">
<path fill="none" stroke="#63b8ff" d="M1073.52,-396.78C1109.12,-386.16 1154.74,-372.56 1186.39,-363.13"/>
<polygon fill="#63b8ff" stroke="#63b8ff" points="1187.34,-366.49 1195.93,-360.28 1185.34,-359.79 1187.34,-366.49"/>
</a>
</g>
</g>
<!-- Node28 -->
<g id="Node000028" class="node">
<title>Node28</title>
<g id="a_Node000028"><a xlink:title=" ">
<polygon fill="#e0e0e0" stroke="#999999" points="1317.62,-361.25 1268.62,-361.25 1268.62,-340.5 1317.62,-340.5 1317.62,-361.25"/>
<text xml:space="preserve" text-anchor="middle" x="1293.12" y="-347.75" font-family="Helvetica,sans-Serif" font-size="10.00">stdio.h</text>
</a>
</g>
</g>
<!-- Node1&#45;&gt;Node28 -->
<g id="edge52_Node000001_Node000028" class="edge">
<title>Node1&#45;&gt;Node28</title>
<g id="a_edge52_Node000001_Node000028"><a xlink:title=" ">
<path fill="none" stroke="#63b8ff" d="M1078.51,-401.17C1124.65,-391.76 1190.47,-377.85 1257.14,-361.63"/>
<polygon fill="#63b8ff" stroke="#63b8ff" points="1257.93,-365.04 1266.81,-359.26 1256.27,-358.24 1257.93,-365.04"/>
</a>
</g>
</g>
<!-- Node29 -->
<g id="Node000029" class="node">
<title>Node29</title>
<g id="a_Node000029"><a xlink:href="motor__motion_8h.html" target="_top" xlink:title=" ">
<polygon fill="white" stroke="#666666" points="954.12,-361.25 860.12,-361.25 860.12,-340.5 954.12,-340.5 954.12,-361.25"/>
<text xml:space="preserve" text-anchor="middle" x="907.12" y="-347.75" font-family="Helvetica,sans-Serif" font-size="10.00">motor_motion.h</text>
</a>
</g>
</g>
<!-- Node1&#45;&gt;Node29 -->
<g id="edge53_Node000001_Node000029" class="edge">
<title>Node1&#45;&gt;Node29</title>
<g id="a_edge53_Node000001_Node000029"><a xlink:title=" ">
<path fill="none" stroke="#63b8ff" d="M989.4,-396.78C972.44,-387.52 951.33,-376 934.73,-366.94"/>
<polygon fill="#63b8ff" stroke="#63b8ff" points="936.84,-364.11 926.39,-362.39 933.49,-370.25 936.84,-364.11"/>
</a>
</g>
</g>
<!-- Node3 -->
<g id="Node000003" class="node">
<title>Node3</title>
<g id="a_Node000003"><a xlink:href="pca9555a_8h.html" target="_top" xlink:title=" ">
<polygon fill="white" stroke="#666666" points="340.12,-77.5 186.12,-77.5 186.12,-56.75 340.12,-56.75 340.12,-77.5"/>
<text xml:space="preserve" text-anchor="middle" x="263.12" y="-64" font-family="Helvetica,sans-Serif" font-size="10.00">driver/pca9555a/pca9555a.h</text>
</a>
</g>
</g>
<!-- Node2&#45;&gt;Node3 -->
<g id="edge2_Node000002_Node000003" class="edge">
<title>Node2&#45;&gt;Node3</title>
<g id="a_edge2_Node000002_Node000003"><a xlink:title=" ">
<path fill="none" stroke="#63b8ff" d="M508.21,-226.51C482.35,-218.79 447.49,-206.73 419.12,-191 364.41,-160.65 308.87,-111.58 281.17,-85.58"/>
<polygon fill="#63b8ff" stroke="#63b8ff" points="283.65,-83.1 273.99,-78.75 278.82,-88.18 283.65,-83.1"/>
</a>
</g>
</g>
<!-- Node6 -->
<g id="Node000006" class="node">
<title>Node6</title>
<g id="a_Node000006"><a xlink:title=" ">
<polygon fill="#e0e0e0" stroke="#999999" points="108.5,-191 19.75,-191 19.75,-170.25 108.5,-170.25 108.5,-191"/>
<text xml:space="preserve" text-anchor="middle" x="64.12" y="-177.5" font-family="Helvetica,sans-Serif" font-size="10.00">MK22F51212.h</text>
</a>
</g>
</g>
<!-- Node2&#45;&gt;Node6 -->
<g id="edge5_Node000002_Node000006" class="edge">
<title>Node2&#45;&gt;Node6</title>
<g id="a_edge5_Node000002_Node000006"><a xlink:title=" ">
<path fill="none" stroke="#63b8ff" d="M504.59,-233.02C430.32,-226.68 267.21,-211.79 119.93,-191.32"/>
<polygon fill="#63b8ff" stroke="#63b8ff" points="120.79,-187.91 110.41,-189.98 119.82,-194.84 120.79,-187.91"/>
</a>
</g>
</g>
<!-- Node7 -->
<g id="Node000007" class="node">
<title>Node7</title>
<g id="a_Node000007"><a xlink:href="step__core_8h.html" target="_top" xlink:title=" ">
<polygon fill="white" stroke="#666666" points="581.25,-191 509,-191 509,-170.25 581.25,-170.25 581.25,-191"/>
<text xml:space="preserve" text-anchor="middle" x="545.12" y="-177.5" font-family="Helvetica,sans-Serif" font-size="10.00">step_core.h</text>
</a>
</g>
</g>
<!-- Node2&#45;&gt;Node7 -->
<g id="edge6_Node000002_Node000007" class="edge">
<title>Node2&#45;&gt;Node7</title>
<g id="a_edge6_Node000002_Node000007"><a xlink:title=" ">
<path fill="none" stroke="#63b8ff" d="M545.12,-226.59C545.12,-219.97 545.12,-210.97 545.12,-202.77"/>
<polygon fill="#63b8ff" stroke="#63b8ff" points="548.62,-202.84 545.12,-192.84 541.62,-202.84 548.62,-202.84"/>
</a>
</g>
</g>
<!-- Node10 -->
<g id="Node000010" class="node">
<title>Node10</title>
<g id="a_Node000010"><a xlink:title=" ">
<polygon fill="#e0e0e0" stroke="#999999" points="794.5,-77.5 735.75,-77.5 735.75,-56.75 794.5,-56.75 794.5,-77.5"/>
<text xml:space="preserve" text-anchor="middle" x="765.12" y="-64" font-family="Helvetica,sans-Serif" font-size="10.00">fsl_ftm.h</text>
</a>
</g>
</g>
<!-- Node2&#45;&gt;Node10 -->
<g id="edge33_Node000002_Node000010" class="edge">
<title>Node2&#45;&gt;Node10</title>
<g id="a_edge33_Node000002_Node000010"><a xlink:title=" ">
<path fill="none" stroke="#63b8ff" d="M560.27,-226.62C574.01,-217.66 594.72,-203.85 612.12,-191 661.12,-154.82 716.31,-109.24 745.14,-85.04"/>
<polygon fill="#63b8ff" stroke="#63b8ff" points="747.3,-87.79 752.7,-78.67 742.8,-82.44 747.3,-87.79"/>
</a>
</g>
</g>
<!-- Node11 -->
<g id="Node000011" class="node">
<title>Node11</title>
<g id="a_Node000011"><a xlink:title=" ">
<polygon fill="#e0e0e0" stroke="#999999" points="717.75,-77.5 654.5,-77.5 654.5,-56.75 717.75,-56.75 717.75,-77.5"/>
<text xml:space="preserve" text-anchor="middle" x="686.12" y="-64" font-family="Helvetica,sans-Serif" font-size="10.00">fsl_gpio.h</text>
</a>
</g>
</g>
<!-- Node2&#45;&gt;Node11 -->
<g id="edge34_Node000002_Node000011" class="edge">
<title>Node2&#45;&gt;Node11</title>
<g id="a_edge34_Node000002_Node000011"><a xlink:title=" ">
<path fill="none" stroke="#63b8ff" d="M555.48,-226.61C564.84,-217.64 578.83,-203.82 590.12,-191 621.26,-155.65 654.43,-111.58 672.47,-86.98"/>
<polygon fill="#63b8ff" stroke="#63b8ff" points="675.07,-89.36 678.14,-79.22 669.42,-85.24 675.07,-89.36"/>
</a>
</g>
</g>
<!-- Node12 -->
<g id="Node000012" class="node">
<title>Node12</title>
<g id="a_Node000012"><a xlink:title=" ">
<polygon fill="#e0e0e0" stroke="#999999" points="458,-77.5 396.25,-77.5 396.25,-56.75 458,-56.75 458,-77.5"/>
<text xml:space="preserve" text-anchor="middle" x="427.12" y="-64" font-family="Helvetica,sans-Serif" font-size="10.00">fsl_port.h</text>
</a>
</g>
</g>
<!-- Node2&#45;&gt;Node12 -->
<g id="edge35_Node000002_Node000012" class="edge">
<title>Node2&#45;&gt;Node12</title>
<g id="a_edge35_Node000002_Node000012"><a xlink:title=" ">
<path fill="none" stroke="#63b8ff" d="M515.84,-226.62C479.24,-212.65 418.25,-183.11 392.12,-134.25 383.38,-117.9 395.27,-99.23 407.5,-85.9"/>
<polygon fill="#63b8ff" stroke="#63b8ff" points="409.72,-88.63 414.3,-79.07 404.76,-83.69 409.72,-88.63"/>
</a>
</g>
</g>
<!-- Node19 -->
<g id="Node000019" class="node">
<title>Node19</title>
<g id="a_Node000019"><a xlink:href="tmc2209__core_8h.html" target="_top" xlink:title=" ">
<polygon fill="white" stroke="#666666" points="220.12,-191 126.12,-191 126.12,-170.25 220.12,-170.25 220.12,-191"/>
<text xml:space="preserve" text-anchor="middle" x="173.12" y="-177.5" font-family="Helvetica,sans-Serif" font-size="10.00">tmc2209_core.h</text>
</a>
</g>
</g>
<!-- Node2&#45;&gt;Node19 -->
<g id="edge27_Node000002_Node000019" class="edge">
<title>Node2&#45;&gt;Node19</title>
<g id="a_edge27_Node000002_Node000019"><a xlink:title=" ">
<path fill="none" stroke="#63b8ff" d="M504.6,-230.41C438.69,-220.71 307.97,-201.47 231.86,-190.27"/>
<polygon fill="#63b8ff" stroke="#63b8ff" points="232.49,-186.83 222.09,-188.83 231.47,-193.75 232.49,-186.83"/>
</a>
</g>
</g>
<!-- Node4 -->
<g id="Node000004" class="node">
<title>Node4</title>
<g id="a_Node000004"><a xlink:title=" ">
<polygon fill="#e0e0e0" stroke="#999999" points="469.62,-20.75 384.62,-20.75 384.62,0 469.62,0 469.62,-20.75"/>
<text xml:space="preserve" text-anchor="middle" x="427.12" y="-7.25" font-family="Helvetica,sans-Serif" font-size="10.00">fsl_common.h</text>
</a>
</g>
</g>
<!-- Node3&#45;&gt;Node4 -->
<g id="edge3_Node000003_Node000004" class="edge">
<title>Node3&#45;&gt;Node4</title>
<g id="a_edge3_Node000003_Node000004"><a xlink:title=" ">
<path fill="none" stroke="#63b8ff" d="M292.44,-56.34C318.83,-47.53 357.84,-34.5 387.09,-24.74"/>
<polygon fill="#63b8ff" stroke="#63b8ff" points="387.97,-28.14 396.34,-21.65 385.75,-21.5 387.97,-28.14"/>
</a>
</g>
</g>
<!-- Node5 -->
<g id="Node000005" class="node">
<title>Node5</title>
<g id="a_Node000005"><a xlink:title=" ">
<polygon fill="#e0e0e0" stroke="#999999" points="170,-20.75 90.25,-20.75 90.25,0 170,0 170,-20.75"/>
<text xml:space="preserve" text-anchor="middle" x="130.12" y="-7.25" font-family="Helvetica,sans-Serif" font-size="10.00">peripherals.h</text>
</a>
</g>
</g>
<!-- Node3&#45;&gt;Node5 -->
<g id="edge4_Node000003_Node000005" class="edge">
<title>Node3&#45;&gt;Node5</title>
<g id="a_edge4_Node000003_Node000005"><a xlink:title=" ">
<path fill="none" stroke="#63b8ff" d="M239.34,-56.34C218.45,-47.73 187.78,-35.11 164.26,-25.43"/>
<polygon fill="#63b8ff" stroke="#63b8ff" points="165.67,-22.22 155.09,-21.65 163.01,-28.7 165.67,-22.22"/>
</a>
</g>
</g>
<!-- Node7&#45;&gt;Node3 -->
<g id="edge7_Node000007_Node000003" class="edge">
<title>Node7&#45;&gt;Node3</title>
<g id="a_edge7_Node000007_Node000003"><a xlink:title=" ">
<path fill="none" stroke="#63b8ff" d="M508.54,-174.73C470.07,-168.66 408.41,-156.33 359.12,-134.25 330.66,-121.5 301.67,-100.13 283.1,-85.14"/>
<polygon fill="#63b8ff" stroke="#63b8ff" points="285.51,-82.6 275.57,-78.93 281.06,-88 285.51,-82.6"/>
</a>
</g>
</g>
<!-- Node7&#45;&gt;Node4 -->
<g id="edge10_Node000007_Node000004" class="edge">
<title>Node7&#45;&gt;Node4</title>
<g id="a_edge10_Node000007_Node000004"><a xlink:title=" ">
<path fill="none" stroke="#63b8ff" d="M508.55,-179.75C472.93,-177.72 420.17,-168.57 392.12,-134.25 370.28,-107.52 374.92,-89.04 387.12,-56.75 391.16,-46.07 398.98,-36.28 406.64,-28.55"/>
<polygon fill="#63b8ff" stroke="#63b8ff" points="408.67,-31.44 413.6,-22.06 403.9,-26.32 408.67,-31.44"/>
</a>
</g>
</g>
<!-- Node8 -->
<g id="Node000008" class="node">
<title>Node8</title>
<g id="a_Node000008"><a xlink:title=" ">
<polygon fill="#e0e0e0" stroke="#999999" points="1171.87,-77.5 1100.37,-77.5 1100.37,-56.75 1171.87,-56.75 1171.87,-77.5"/>
<text xml:space="preserve" text-anchor="middle" x="1136.12" y="-64" font-family="Helvetica,sans-Serif" font-size="10.00">FreeRTOS.h</text>
</a>
</g>
</g>
<!-- Node7&#45;&gt;Node8 -->
<g id="edge8_Node000007_Node000008" class="edge">
<title>Node7&#45;&gt;Node8</title>
<g id="a_edge8_Node000007_Node000008"><a xlink:title=" ">
<path fill="none" stroke="#63b8ff" d="M581.61,-178.24C652.76,-174.95 814.63,-164.5 947.12,-134.25 1003.26,-121.43 1065.88,-97.52 1103.09,-82.23"/>
<polygon fill="#63b8ff" stroke="#63b8ff" points="1104.05,-85.62 1111.94,-78.56 1101.36,-79.16 1104.05,-85.62"/>
</a>
</g>
</g>
<!-- Node9 -->
<g id="Node000009" class="node">
<title>Node9</title>
<g id="a_Node000009"><a xlink:title=" ">
<polygon fill="#e0e0e0" stroke="#999999" points="447.12,-134.25 401.12,-134.25 401.12,-113.5 447.12,-113.5 447.12,-134.25"/>
<text xml:space="preserve" text-anchor="middle" x="424.12" y="-120.75" font-family="Helvetica,sans-Serif" font-size="10.00">task.h</text>
</a>
</g>
</g>
<!-- Node7&#45;&gt;Node9 -->
<g id="edge9_Node000007_Node000009" class="edge">
<title>Node7&#45;&gt;Node9</title>
<g id="a_edge9_Node000007_Node000009"><a xlink:title=" ">
<path fill="none" stroke="#63b8ff" d="M523.49,-169.84C504.65,-161.31 477.09,-148.84 455.77,-139.19"/>
<polygon fill="#63b8ff" stroke="#63b8ff" points="457.5,-136.14 446.95,-135.2 454.61,-142.51 457.5,-136.14"/>
</a>
</g>
</g>
<!-- Node7&#45;&gt;Node10 -->
<g id="edge11_Node000007_Node000010" class="edge">
<title>Node7&#45;&gt;Node10</title>
<g id="a_edge11_Node000007_Node000010"><a xlink:title=" ">
<path fill="none" stroke="#63b8ff" d="M564.26,-169.93C602.78,-150.4 689.88,-106.26 735.7,-83.04"/>
<polygon fill="#63b8ff" stroke="#63b8ff" points="737.18,-86.21 744.52,-78.57 734.02,-79.96 737.18,-86.21"/>
</a>
</g>
</g>
<!-- Node7&#45;&gt;Node11 -->
<g id="edge12_Node000007_Node000011" class="edge">
<title>Node7&#45;&gt;Node11</title>
<g id="a_edge12_Node000007_Node000011"><a xlink:title=" ">
<path fill="none" stroke="#63b8ff" d="M557.14,-170.12C581.06,-151.21 634.88,-108.64 664.89,-84.91"/>
<polygon fill="#63b8ff" stroke="#63b8ff" points="666.87,-87.81 672.54,-78.86 662.53,-82.32 666.87,-87.81"/>
</a>
</g>
</g>
<!-- Node7&#45;&gt;Node12 -->
<g id="edge13_Node000007_Node000012" class="edge">
<title>Node7&#45;&gt;Node12</title>
<g id="a_edge13_Node000007_Node000012"><a xlink:title=" ">
<path fill="none" stroke="#63b8ff" d="M534.03,-170.05C523.6,-160.98 507.61,-146.89 494.12,-134.25 476.91,-118.12 457.8,-99.15 444.41,-85.67"/>
<polygon fill="#63b8ff" stroke="#63b8ff" points="447.1,-83.42 437.58,-78.77 442.13,-88.34 447.1,-83.42"/>
</a>
</g>
</g>
<!-- Node13 -->
<g id="Node000013" class="node">
<title>Node13</title>
<g id="a_Node000013"><a xlink:href="cmd__handle_8h.html" target="_top" xlink:title=" ">
<polygon fill="white" stroke="#666666" points="938.25,-134.25 854,-134.25 854,-113.5 938.25,-113.5 938.25,-134.25"/>
<text xml:space="preserve" text-anchor="middle" x="896.12" y="-120.75" font-family="Helvetica,sans-Serif" font-size="10.00">cmd_handle.h</text>
</a>
</g>
</g>
<!-- Node7&#45;&gt;Node13 -->
<g id="edge14_Node000007_Node000013" class="edge">
<title>Node7&#45;&gt;Node13</title>
<g id="a_edge14_Node000007_Node000013"><a xlink:title=" ">
<path fill="none" stroke="#63b8ff" d="M581.69,-173.92C643.86,-164.22 770.41,-144.48 842.57,-133.23"/>
<polygon fill="#63b8ff" stroke="#63b8ff" points="842.83,-136.73 852.17,-131.73 841.75,-129.81 842.83,-136.73"/>
</a>
</g>
</g>
<!-- Node17 -->
<g id="Node000017" class="node">
<title>Node17</title>
<g id="a_Node000017"><a xlink:href="step__shared_8h.html" target="_top" xlink:title=" ">
<polygon fill="white" stroke="#666666" points="587.25,-134.25 503,-134.25 503,-113.5 587.25,-113.5 587.25,-134.25"/>
<text xml:space="preserve" text-anchor="middle" x="545.12" y="-120.75" font-family="Helvetica,sans-Serif" font-size="10.00">step_shared.h</text>
</a>
</g>
</g>
<!-- Node7&#45;&gt;Node17 -->
<g id="edge20_Node000007_Node000017" class="edge">
<title>Node7&#45;&gt;Node17</title>
<g id="a_edge20_Node000007_Node000017"><a xlink:title=" ">
<path fill="none" stroke="#63b8ff" d="M545.12,-169.84C545.12,-163.22 545.12,-154.22 545.12,-146.02"/>
<polygon fill="#63b8ff" stroke="#63b8ff" points="548.62,-146.09 545.12,-136.09 541.62,-146.09 548.62,-146.09"/>
</a>
</g>
</g>
<!-- Node13&#45;&gt;Node4 -->
<g id="edge18_Node000013_Node000004" class="edge">
<title>Node13&#45;&gt;Node4</title>
<g id="a_edge18_Node000013_Node000004"><a xlink:title=" ">
<path fill="none" stroke="#63b8ff" d="M886,-113C869.93,-98 836.93,-69.83 803.12,-56.75 745.62,-34.51 570.6,-20.5 481.09,-14.6"/>
<polygon fill="#63b8ff" stroke="#63b8ff" points="481.54,-11.13 471.34,-13.97 481.09,-18.11 481.54,-11.13"/>
</a>
</g>
</g>
<!-- Node13&#45;&gt;Node8 -->
<g id="edge16_Node000013_Node000008" class="edge">
<title>Node13&#45;&gt;Node8</title>
<g id="a_edge16_Node000013_Node000008"><a xlink:title=" ">
<path fill="none" stroke="#63b8ff" d="M938.48,-113.21C980.6,-103.6 1045.09,-88.89 1088.86,-78.91"/>
<polygon fill="#63b8ff" stroke="#63b8ff" points="1089.62,-82.32 1098.59,-76.69 1088.06,-75.5 1089.62,-82.32"/>
</a>
</g>
</g>
<!-- Node14 -->
<g id="Node000014" class="node">
<title>Node14</title>
<g id="a_Node000014"><a xlink:title=" ">
<polygon fill="#e0e0e0" stroke="#999999" points="1082.5,-77.5 1029.75,-77.5 1029.75,-56.75 1082.5,-56.75 1082.5,-77.5"/>
<text xml:space="preserve" text-anchor="middle" x="1056.12" y="-64" font-family="Helvetica,sans-Serif" font-size="10.00">stdint.h</text>
</a>
</g>
</g>
<!-- Node13&#45;&gt;Node14 -->
<g id="edge15_Node000013_Node000014" class="edge">
<title>Node13&#45;&gt;Node14</title>
<g id="a_edge15_Node000013_Node000014"><a xlink:title=" ">
<path fill="none" stroke="#63b8ff" d="M924.73,-113.09C950.91,-104.13 989.84,-90.81 1018.53,-80.99"/>
<polygon fill="#63b8ff" stroke="#63b8ff" points="1019.6,-84.32 1027.93,-77.77 1017.33,-77.7 1019.6,-84.32"/>
</a>
</g>
</g>
<!-- Node15 -->
<g id="Node000015" class="node">
<title>Node15</title>
<g id="a_Node000015"><a xlink:title=" ">
<polygon fill="#e0e0e0" stroke="#999999" points="941.62,-77.5 850.62,-77.5 850.62,-56.75 941.62,-56.75 941.62,-77.5"/>
<text xml:space="preserve" text-anchor="middle" x="896.12" y="-64" font-family="Helvetica,sans-Serif" font-size="10.00">event_groups.h</text>
</a>
</g>
</g>
<!-- Node13&#45;&gt;Node15 -->
<g id="edge17_Node000013_Node000015" class="edge">
<title>Node13&#45;&gt;Node15</title>
<g id="a_edge17_Node000013_Node000015"><a xlink:title=" ">
<path fill="none" stroke="#63b8ff" d="M896.12,-113.09C896.12,-106.47 896.12,-97.47 896.12,-89.27"/>
<polygon fill="#63b8ff" stroke="#63b8ff" points="899.62,-89.34 896.12,-79.34 892.62,-89.34 899.62,-89.34"/>
</a>
</g>
</g>
<!-- Node16 -->
<g id="Node000016" class="node">
<title>Node16</title>
<g id="a_Node000016"><a xlink:title=" ">
<polygon fill="#e0e0e0" stroke="#999999" points="1012.12,-77.5 960.12,-77.5 960.12,-56.75 1012.12,-56.75 1012.12,-77.5"/>
<text xml:space="preserve" text-anchor="middle" x="986.12" y="-64" font-family="Helvetica,sans-Serif" font-size="10.00">stdlib.h</text>
</a>
</g>
</g>
<!-- Node13&#45;&gt;Node16 -->
<g id="edge19_Node000013_Node000016" class="edge">
<title>Node13&#45;&gt;Node16</title>
<g id="a_edge19_Node000013_Node000016"><a xlink:title=" ">
<path fill="none" stroke="#63b8ff" d="M912.21,-113.09C925.65,-104.91 945.05,-93.11 960.61,-83.65"/>
<polygon fill="#63b8ff" stroke="#63b8ff" points="962.15,-86.8 968.88,-78.62 958.52,-80.82 962.15,-86.8"/>
</a>
</g>
</g>
<!-- Node17&#45;&gt;Node3 -->
<g id="edge21_Node000017_Node000003" class="edge">
<title>Node17&#45;&gt;Node3</title>
<g id="a_edge21_Node000017_Node000003"><a xlink:title=" ">
<path fill="none" stroke="#63b8ff" d="M502.6,-114.62C455.34,-105.44 378.6,-90.54 324.75,-80.09"/>
<polygon fill="#63b8ff" stroke="#63b8ff" points="325.6,-76.69 315.12,-78.22 324.27,-83.56 325.6,-76.69"/>
</a>
</g>
</g>
<!-- Node17&#45;&gt;Node4 -->
<g id="edge23_Node000017_Node000004" class="edge">
<title>Node17&#45;&gt;Node4</title>
<g id="a_edge23_Node000017_Node000004"><a xlink:title=" ">
<path fill="none" stroke="#63b8ff" d="M535.06,-113.37C515.22,-94.62 470.78,-52.63 445.55,-28.78"/>
<polygon fill="#63b8ff" stroke="#63b8ff" points="448.27,-26.54 438.59,-22.21 443.46,-31.63 448.27,-26.54"/>
</a>
</g>
</g>
<!-- Node17&#45;&gt;Node10 -->
<g id="edge24_Node000017_Node000010" class="edge">
<title>Node17&#45;&gt;Node10</title>
<g id="a_edge24_Node000017_Node000010"><a xlink:title=" ">
<path fill="none" stroke="#63b8ff" d="M584.71,-113.02C624.2,-103.2 684.58,-88.17 724.45,-78.25"/>
<polygon fill="#63b8ff" stroke="#63b8ff" points="725.04,-81.71 733.9,-75.89 723.35,-74.91 725.04,-81.71"/>
</a>
</g>
</g>
<!-- Node17&#45;&gt;Node11 -->
<g id="edge25_Node000017_Node000011" class="edge">
<title>Node17&#45;&gt;Node11</title>
<g id="a_edge25_Node000017_Node000011"><a xlink:title=" ">
<path fill="none" stroke="#63b8ff" d="M570.33,-113.09C592.69,-104.41 625.58,-91.63 650.6,-81.92"/>
<polygon fill="#63b8ff" stroke="#63b8ff" points="651.67,-85.26 659.72,-78.38 649.13,-78.73 651.67,-85.26"/>
</a>
</g>
</g>
<!-- Node17&#45;&gt;Node12 -->
<g id="edge26_Node000017_Node000012" class="edge">
<title>Node17&#45;&gt;Node12</title>
<g id="a_edge26_Node000017_Node000012"><a xlink:title=" ">
<path fill="none" stroke="#63b8ff" d="M524.03,-113.09C505.74,-104.6 479.02,-92.2 458.27,-82.58"/>
<polygon fill="#63b8ff" stroke="#63b8ff" points="459.95,-79.5 449.41,-78.47 457.01,-85.85 459.95,-79.5"/>
</a>
</g>
</g>
<!-- Node18 -->
<g id="Node000018" class="node">
<title>Node18</title>
<g id="a_Node000018"><a xlink:title=" ">
<polygon fill="#e0e0e0" stroke="#999999" points="636.37,-77.5 513.87,-77.5 513.87,-56.75 636.37,-56.75 636.37,-77.5"/>
<text xml:space="preserve" text-anchor="middle" x="575.12" y="-64" font-family="Helvetica,sans-Serif" font-size="10.00">fsl_device_registers.h</text>
</a>
</g>
</g>
<!-- Node17&#45;&gt;Node18 -->
<g id="edge22_Node000017_Node000018" class="edge">
<title>Node17&#45;&gt;Node18</title>
<g id="a_edge22_Node000017_Node000018"><a xlink:title=" ">
<path fill="none" stroke="#63b8ff" d="M550.49,-113.09C554.32,-106.08 559.63,-96.41 564.33,-87.83"/>
<polygon fill="#63b8ff" stroke="#63b8ff" points="567.34,-89.61 569.08,-79.16 561.2,-86.24 567.34,-89.61"/>
</a>
</g>
</g>
<!-- Node19&#45;&gt;Node4 -->
<g id="edge30_Node000019_Node000004" class="edge">
<title>Node19&#45;&gt;Node4</title>
<g id="a_edge30_Node000019_Node000004"><a xlink:title=" ">
<path fill="none" stroke="#63b8ff" d="M169.82,-169.89C162.75,-147.03 148.96,-89.39 177.12,-56.75 202,-27.92 307.01,-17.34 372.77,-13.51"/>
<polygon fill="#63b8ff" stroke="#63b8ff" points="372.86,-17.01 382.65,-12.97 372.48,-10.02 372.86,-17.01"/>
</a>
</g>
</g>
<!-- Node19&#45;&gt;Node5 -->
<g id="edge32_Node000019_Node000005" class="edge">
<title>Node19&#45;&gt;Node5</title>
<g id="a_edge32_Node000019_Node000005"><a xlink:title=" ">
<path fill="none" stroke="#63b8ff" d="M128.89,-169.78C84.64,-159.49 22.14,-143.57 15.12,-134.25 -5.6,-106.74 -4.26,-85.23 15.12,-56.75 29.51,-35.61 55.41,-24.32 78.99,-18.29"/>
<polygon fill="#63b8ff" stroke="#63b8ff" points="79.51,-21.76 88.49,-16.14 77.96,-14.93 79.51,-21.76"/>
</a>
</g>
</g>
<!-- Node19&#45;&gt;Node13 -->
<g id="edge31_Node000019_Node000013" class="edge">
<title>Node19&#45;&gt;Node13</title>
<g id="a_edge31_Node000019_Node000013"><a xlink:title=" ">
<path fill="none" stroke="#63b8ff" d="M220.56,-176.03C349.53,-166.27 706.01,-139.27 842.24,-128.96"/>
<polygon fill="#63b8ff" stroke="#63b8ff" points="842.36,-132.46 852.07,-128.21 841.83,-125.48 842.36,-132.46"/>
</a>
</g>
</g>
<!-- Node20 -->
<g id="Node000020" class="node">
<title>Node20</title>
<g id="a_Node000020"><a xlink:href="tmc2209__shared_8h.html" target="_top" xlink:title=" ">
<polygon fill="white" stroke="#666666" points="130.12,-134.25 24.12,-134.25 24.12,-113.5 130.12,-113.5 130.12,-134.25"/>
<text xml:space="preserve" text-anchor="middle" x="77.12" y="-120.75" font-family="Helvetica,sans-Serif" font-size="10.00">tmc2209_shared.h</text>
</a>
</g>
</g>
<!-- Node19&#45;&gt;Node20 -->
<g id="edge28_Node000019_Node000020" class="edge">
<title>Node19&#45;&gt;Node20</title>
<g id="a_edge28_Node000019_Node000020"><a xlink:title=" ">
<path fill="none" stroke="#63b8ff" d="M155.96,-169.84C141.49,-161.58 120.53,-149.63 103.86,-140.13"/>
<polygon fill="#63b8ff" stroke="#63b8ff" points="105.87,-137.24 95.45,-135.33 102.4,-143.32 105.87,-137.24"/>
</a>
</g>
</g>
<!-- Node21 -->
<g id="Node000021" class="node">
<title>Node21</title>
<g id="a_Node000021"><a xlink:title=" ">
<polygon fill="#e0e0e0" stroke="#999999" points="129.75,-77.5 24.5,-77.5 24.5,-56.75 129.75,-56.75 129.75,-77.5"/>
<text xml:space="preserve" text-anchor="middle" x="77.12" y="-64" font-family="Helvetica,sans-Serif" font-size="10.00">fsl_uart_freertos.h</text>
</a>
</g>
</g>
<!-- Node20&#45;&gt;Node21 -->
<g id="edge29_Node000020_Node000021" class="edge">
<title>Node20&#45;&gt;Node21</title>
<g id="a_edge29_Node000020_Node000021"><a xlink:title=" ">
<path fill="none" stroke="#63b8ff" d="M77.12,-113.09C77.12,-106.47 77.12,-97.47 77.12,-89.27"/>
<polygon fill="#63b8ff" stroke="#63b8ff" points="80.62,-89.34 77.12,-79.34 73.62,-89.34 80.62,-89.34"/>
</a>
</g>
</g>
<!-- Node23 -->
<g id="Node000023" class="node">
<title>Node23</title>
<g id="a_Node000023"><a xlink:href="motor__internal_8h.html" target="_top" xlink:title=" ">
<polygon fill="white" stroke="#666666" points="935.62,-304.5 838.62,-304.5 838.62,-283.75 935.62,-283.75 935.62,-304.5"/>
<text xml:space="preserve" text-anchor="middle" x="887.12" y="-291" font-family="Helvetica,sans-Serif" font-size="10.00">motor_internal.h</text>
</a>
</g>
</g>
<!-- Node22&#45;&gt;Node23 -->
<g id="edge37_Node000022_Node000023" class="edge">
<title>Node22&#45;&gt;Node23</title>
<g id="a_edge37_Node000022_Node000023"><a xlink:title=" ">
<path fill="none" stroke="#63b8ff" d="M809.93,-340.09C824.1,-331.83 844.61,-319.88 860.94,-310.38"/>
<polygon fill="#63b8ff" stroke="#63b8ff" points="862.27,-313.65 869.15,-305.59 858.75,-307.6 862.27,-313.65"/>
</a>
</g>
</g>
<!-- Node23&#45;&gt;Node2 -->
<g id="edge38_Node000023_Node000002" class="edge">
<title>Node23&#45;&gt;Node2</title>
<g id="a_edge38_Node000023_Node000002"><a xlink:title=" ">
<path fill="none" stroke="#63b8ff" d="M838.48,-285.34C774.55,-275.1 662.7,-257.2 597.13,-246.7"/>
<polygon fill="#63b8ff" stroke="#63b8ff" points="597.76,-243.26 587.33,-245.13 596.65,-250.17 597.76,-243.26"/>
</a>
</g>
</g>
<!-- Node23&#45;&gt;Node8 -->
<g id="edge39_Node000023_Node000008" class="edge">
<title>Node23&#45;&gt;Node8</title>
<g id="a_edge39_Node000023_Node000008"><a xlink:title=" ">
<path fill="none" stroke="#63b8ff" d="M891.38,-283.38C897.65,-269.76 910.34,-244.71 926.12,-227 982.18,-164.1 1066.37,-109.42 1109.13,-83.73"/>
<polygon fill="#63b8ff" stroke="#63b8ff" points="1110.7,-86.86 1117.52,-78.75 1107.13,-80.84 1110.7,-86.86"/>
</a>
</g>
</g>
<!-- Node23&#45;&gt;Node13 -->
<g id="edge41_Node000023_Node000013" class="edge">
<title>Node23&#45;&gt;Node13</title>
<g id="a_edge41_Node000023_Node000013"><a xlink:title=" ">
<path fill="none" stroke="#63b8ff" d="M887.63,-283.6C889.04,-257.23 893.02,-182.83 894.99,-146.03"/>
<polygon fill="#63b8ff" stroke="#63b8ff" points="898.48,-146.4 895.51,-136.23 891.49,-146.03 898.48,-146.4"/>
</a>
</g>
</g>
<!-- Node23&#45;&gt;Node24 -->
<g id="edge40_Node000023_Node000024" class="edge">
<title>Node23&#45;&gt;Node24</title>
<g id="a_edge40_Node000023_Node000024"><a xlink:title=" ">
<path fill="none" stroke="#63b8ff" d="M900.53,-283.34C911.41,-275.4 926.98,-264.03 939.74,-254.71"/>
<polygon fill="#63b8ff" stroke="#63b8ff" points="941.59,-257.69 947.61,-248.97 937.47,-252.04 941.59,-257.69"/>
</a>
</g>
</g>
<!-- Node25&#45;&gt;Node8 -->
<g id="edge44_Node000025_Node000008" class="edge">
<title>Node25&#45;&gt;Node8</title>
<g id="a_edge44_Node000025_Node000008"><a xlink:title=" ">
<path fill="none" stroke="#63b8ff" d="M1062.14,-283.35C1072.84,-265.58 1095.25,-226.54 1108.12,-191 1120.69,-156.31 1128.85,-114.02 1132.95,-89.18"/>
<polygon fill="#63b8ff" stroke="#63b8ff" points="1136.39,-89.84 1134.5,-79.41 1129.48,-88.74 1136.39,-89.84"/>
</a>
</g>
</g>
<!-- Node25&#45;&gt;Node13 -->
<g id="edge46_Node000025_Node000013" class="edge">
<title>Node25&#45;&gt;Node13</title>
<g id="a_edge46_Node000025_Node000013"><a xlink:title=" ">
<path fill="none" stroke="#63b8ff" d="M1048.23,-283.5C1037.43,-270.45 1017.32,-246.51 999.12,-227 970.55,-196.36 935.61,-162.41 914.65,-142.39"/>
<polygon fill="#63b8ff" stroke="#63b8ff" points="917.08,-139.88 907.42,-135.52 912.26,-144.95 917.08,-139.88"/>
</a>
</g>
</g>
<!-- Node25&#45;&gt;Node14 -->
<g id="edge43_Node000025_Node000014" class="edge">
<title>Node25&#45;&gt;Node14</title>
<g id="a_edge43_Node000025_Node000014"><a xlink:title=" ">
<path fill="none" stroke="#63b8ff" d="M1056.12,-283.46C1056.12,-249.7 1056.12,-136.59 1056.12,-89.25"/>
<polygon fill="#63b8ff" stroke="#63b8ff" points="1059.62,-89.27 1056.12,-79.27 1052.62,-89.27 1059.62,-89.27"/>
</a>
</g>
</g>
<!-- Node25&#45;&gt;Node24 -->
<g id="edge45_Node000025_Node000024" class="edge">
<title>Node25&#45;&gt;Node24</title>
<g id="a_edge45_Node000025_Node000024"><a xlink:title=" ">
<path fill="none" stroke="#63b8ff" d="M1039.32,-283.34C1025.15,-275.08 1004.63,-263.13 988.31,-253.63"/>
<polygon fill="#63b8ff" stroke="#63b8ff" points="990.49,-250.85 980.09,-248.84 986.97,-256.9 990.49,-250.85"/>
</a>
</g>
</g>
<!-- Node26&#45;&gt;Node4 -->
<g id="edge49_Node000026_Node000004" class="edge">
<title>Node26&#45;&gt;Node4</title>
<g id="a_edge49_Node000026_Node000004"><a xlink:title=" ">
<path fill="none" stroke="#63b8ff" d="M1183.92,-113.31C1188.9,-98.97 1195.45,-71.96 1181.12,-56.75 1157.16,-31.3 649.96,-16.77 481.19,-12.62"/>
<polygon fill="#63b8ff" stroke="#63b8ff" points="481.47,-9.13 471.39,-12.38 481.3,-16.12 481.47,-9.13"/>
</a>
</g>
</g>
<!-- Node26&#45;&gt;Node8 -->
<g id="edge48_Node000026_Node000008" class="edge">
<title>Node26&#45;&gt;Node8</title>
<g id="a_edge48_Node000026_Node000008"><a xlink:title=" ">
<path fill="none" stroke="#63b8ff" d="M1172.26,-113.09C1166.37,-105.77 1158.16,-95.54 1151.04,-86.69"/>
<polygon fill="#63b8ff" stroke="#63b8ff" points="1153.86,-84.61 1144.87,-79.01 1148.4,-89 1153.86,-84.61"/>
</a>
</g>
</g>
<!-- Node29&#45;&gt;Node23 -->
<g id="edge54_Node000029_Node000023" class="edge">
<title>Node29&#45;&gt;Node23</title>
<g id="a_edge54_Node000029_Node000023"><a xlink:title=" ">
<path fill="none" stroke="#63b8ff" d="M903.55,-340.09C901.04,-333.24 897.61,-323.84 894.53,-315.4"/>
<polygon fill="#63b8ff" stroke="#63b8ff" points="897.9,-314.44 891.19,-306.25 891.33,-316.84 897.9,-314.44"/>
</a>
</g>
</g>
</g>
</svg>

<g id="navigator" transform="translate(0 0)" fill="#404254">
  <rect fill="#f2f5e9" fill-opacity="0.5" stroke="#606060" stroke-width=".5" x="0" y="0" width="60" height="60"/>
  <use id="zoomplus" xlink:href="#zoomPlus" x="17" y="9" onmousedown="handleZoom(evt,'in')"/>
  <use id="zoomminus" xlink:href="#zoomMin" x="42" y="9" onmousedown="handleZoom(evt,'out')"/>
  <use id="reset" xlink:href="#resetDef" x="30" y="36" onmousedown="handleReset()"/>
   <use id="arrowup" xlink:href="#arrowUp" x="0" y="0" onmousedown="handlePan(0,-1)"/>
  <use id="arrowright" xlink:href="#arrowRight" x="0" y="0" onmousedown="handlePan(1,0)"/>
  <use id="arrowdown" xlink:href="#arrowDown" x="0" y="0" onmousedown="handlePan(0,1)"/>
  <use id="arrowleft" xlink:href="#arrowLeft" x="0" y="0" onmousedown="handlePan(-1,0)"/>
</g>
<svg viewBox="0 0 15 15" width="100%" height="30px" preserveAspectRatio="xMaxYMin meet">
 <g id="arrow_out" transform="scale(0.3 0.3)">
  <a xlink:href="motor__core_8c__incl_org.svg" target="_base">
   <rect id="button" ry="5" rx="5" y="6" x="6" height="38" width="38"
        fill="#f2f5e9" fill-opacity="0.5" stroke="#606060" stroke-width="1.0"/>
   <path id="arrow"
     d="M 11.500037,31.436501 C 11.940474,20.09759 22.043105,11.32322 32.158766,21.979434 L 37.068811,17.246167 C 37.068811,17.246167 37.088388,32 37.088388,32 L 22.160133,31.978069 C 22.160133,31.978069 26.997745,27.140456 26.997745,27.140456 C 18.528582,18.264221 13.291696,25.230495 11.500037,31.436501 z"
     style="fill:#404040;"/>
  </a>
 </g>
</svg>

<style type='text/css'>
<![CDATA[
[data-mouse-over-selected='false'] { opacity: 0.7; }
[data-mouse-over-selected='true']  { opacity: 1.0; }
]]>
</style>
<script type="application/ecmascript"><![CDATA[
document.addEventListener('DOMContentLoaded', (event) => {
  highlightEdges();
  highlightAdjacentNodes();
});
]]></script>
</svg>
