<?xml version="1.0" encoding="UTF-8" standalone="no"?>
<!DOCTYPE svg PUBLIC "-//W3C//DTD SVG 1.1//EN"
 "http://www.w3.org/Graphics/SVG/1.1/DTD/svg11.dtd">
<!-- Generated by graphviz version 14.1.4 (0)
 -->
<!-- Title: source/motion/motor/motor_process.c Pages: 1 -->
<svg width="1296pt" height="439pt"
 viewBox="0.00 0.00 1296.00 439.00" xmlns="http://www.w3.org/2000/svg" xmlns:xlink="http://www.w3.org/1999/xlink">
<g id="graph0" class="graph" transform="scale(1 1) rotate(0) translate(4 434.75)">
<title>source/motion/motor/motor_process.c</title>
<!-- Node1 -->
<g id="Node000001" class="node">
<title>Node1</title>
<g id="a_Node000001"><a xlink:title=" ">
<polygon fill="#999999" stroke="#666666" points="1054.62,-430.75 936.62,-430.75 936.62,-397.25 1054.62,-397.25 1054.62,-430.75"/>
<text xml:space="preserve" text-anchor="start" x="944.62" y="-417.25" font-family="Helvetica,sans-Serif" font-size="10.00">source/motion/motor</text>
<text xml:space="preserve" text-anchor="middle" x="995.62" y="-404.5" font-family="Helvetica,sans-Serif" font-size="10.00">/motor_process.c</text>
</a>
</g>
</g>
<!-- Node2 -->
<g id="Node000002" class="node">
<title>Node2</title>
<g id="a_Node000002"><a xlink:href="motor__process_8h.html" target="_top" xlink:title=" ">
<polygon fill="white" stroke="#666666" points="1044.12,-361.25 947.12,-361.25 947.12,-340.5 1044.12,-340.5 1044.12,-361.25"/>
<text xml:space="preserve" text-anchor="middle" x="995.62" y="-347.75" font-family="Helvetica,sans-Serif" font-size="10.00">motor_process.h</text>
</a>
</g>
</g>
<!-- Node1&#45;&gt;Node2 -->
<g id="edge1_Node000001_Node000002" class="edge">
<title>Node1&#45;&gt;Node2</title>
<g id="a_edge1_Node000001_Node000002"><a xlink:title=" ">
<path fill="none" stroke="#63b8ff" d="M995.62,-396.94C995.62,-389.6 995.62,-380.82 995.62,-372.96"/>
<polygon fill="#63b8ff" stroke="#63b8ff" points="999.13,-373.23 995.63,-363.23 992.13,-373.23 999.13,-373.23"/>
</a>
</g>
</g>
<!-- Node24 -->
<g id="Node000024" class="node">
<title>Node24</title>
<g id="a_Node000024"><a xlink:href="motor__init_8h.html" target="_top" xlink:title=" ">
<polygon fill="white" stroke="#666666" points="620.25,-361.25 545,-361.25 545,-340.5 620.25,-340.5 620.25,-361.25"/>
<text xml:space="preserve" text-anchor="middle" x="582.62" y="-347.75" font-family="Helvetica,sans-Serif" font-size="10.00">motor_init.h</text>
</a>
</g>
</g>
<!-- Node1&#45;&gt;Node24 -->
<g id="edge40_Node000001_Node000024" class="edge">
<title>Node1&#45;&gt;Node24</title>
<g id="a_edge40_Node000001_Node000024"><a xlink:title=" ">
<path fill="none" stroke="#63b8ff" d="M936.19,-405.64C865.99,-396.72 745.42,-380.67 631.87,-361.55"/>
<polygon fill="#63b8ff" stroke="#63b8ff" points="632.49,-358.11 622.05,-359.89 631.32,-365.01 632.49,-358.11"/>
</a>
</g>
</g>
<!-- Node25 -->
<g id="Node000025" class="node">
<title>Node25</title>
<g id="a_Node000025"><a xlink:href="motor__motion_8h.html" target="_top" xlink:title=" ">
<polygon fill="white" stroke="#666666" points="732.62,-361.25 638.62,-361.25 638.62,-340.5 732.62,-340.5 732.62,-361.25"/>
<text xml:space="preserve" text-anchor="middle" x="685.62" y="-347.75" font-family="Helvetica,sans-Serif" font-size="10.00">motor_motion.h</text>
</a>
</g>
</g>
<!-- Node1&#45;&gt;Node25 -->
<g id="edge43_Node000001_Node000025" class="edge">
<title>Node1&#45;&gt;Node25</title>
<g id="a_edge43_Node000001_Node000025"><a xlink:title=" ">
<path fill="none" stroke="#63b8ff" d="M936.22,-401.29C880.79,-390.36 798.6,-374.15 743.63,-363.31"/>
<polygon fill="#63b8ff" stroke="#63b8ff" points="744.65,-359.95 734.16,-361.45 743.29,-366.81 744.65,-359.95"/>
</a>
</g>
</g>
<!-- Node26 -->
<g id="Node000026" class="node">
<title>Node26</title>
<g id="a_Node000026"><a xlink:href="motor__sync_8h.html" target="_top" xlink:title=" ">
<polygon fill="white" stroke="#666666" points="832.62,-361.25 750.62,-361.25 750.62,-340.5 832.62,-340.5 832.62,-361.25"/>
<text xml:space="preserve" text-anchor="middle" x="791.62" y="-347.75" font-family="Helvetica,sans-Serif" font-size="10.00">motor_sync.h</text>
</a>
</g>
</g>
<!-- Node1&#45;&gt;Node26 -->
<g id="edge45_Node000001_Node000026" class="edge">
<title>Node1&#45;&gt;Node26</title>
<g id="a_edge45_Node000001_Node000026"><a xlink:title=" ">
<path fill="none" stroke="#63b8ff" d="M941.49,-396.78C908.27,-386.83 866.29,-374.25 835.22,-364.94"/>
<polygon fill="#63b8ff" stroke="#63b8ff" points="836.33,-361.62 825.75,-362.1 834.32,-368.32 836.33,-361.62"/>
</a>
</g>
</g>
<!-- Node27 -->
<g id="Node000027" class="node">
<title>Node27</title>
<g id="a_Node000027"><a xlink:href="motor__tmc_8h.html" target="_top" xlink:title=" ">
<polygon fill="white" stroke="#666666" points="928.75,-361.25 850.5,-361.25 850.5,-340.5 928.75,-340.5 928.75,-361.25"/>
<text xml:space="preserve" text-anchor="middle" x="889.62" y="-347.75" font-family="Helvetica,sans-Serif" font-size="10.00">motor_tmc.h</text>
</a>
</g>
</g>
<!-- Node1&#45;&gt;Node27 -->
<g id="edge47_Node000001_Node000027" class="edge">
<title>Node1&#45;&gt;Node27</title>
<g id="a_edge47_Node000001_Node000027"><a xlink:title=" ">
<path fill="none" stroke="#63b8ff" d="M967.5,-396.78C951.6,-387.61 931.84,-376.22 916.2,-367.2"/>
<polygon fill="#63b8ff" stroke="#63b8ff" points="918.32,-364.38 907.91,-362.42 914.83,-370.45 918.32,-364.38"/>
</a>
</g>
</g>
<!-- Node28 -->
<g id="Node000028" class="node">
<title>Node28</title>
<g id="a_Node000028"><a xlink:href="cmd__dispatch_8h.html" target="_top" xlink:title=" ">
<polygon fill="white" stroke="#666666" points="1082.88,-191 990.38,-191 990.38,-170.25 1082.88,-170.25 1082.88,-191"/>
<text xml:space="preserve" text-anchor="middle" x="1036.62" y="-177.5" font-family="Helvetica,sans-Serif" font-size="10.00">cmd_dispatch.h</text>
</a>
</g>
</g>
<!-- Node1&#45;&gt;Node28 -->
<g id="edge49_Node000001_Node000028" class="edge">
<title>Node1&#45;&gt;Node28</title>
<g id="a_edge49_Node000001_Node000028"><a xlink:title=" ">
<path fill="none" stroke="#63b8ff" d="M1022.34,-396.77C1034.28,-387.91 1047.12,-375.78 1053.62,-361.25 1077.68,-307.55 1057.28,-235.94 1044.71,-201.62"/>
<polygon fill="#63b8ff" stroke="#63b8ff" points="1048.08,-200.62 1041.22,-192.54 1041.54,-203.13 1048.08,-200.62"/>
</a>
</g>
</g>
<!-- Node29 -->
<g id="Node000029" class="node">
<title>Node29</title>
<g id="a_Node000029"><a xlink:href="sync__wait_8h.html" target="_top" xlink:title=" ">
<polygon fill="white" stroke="#666666" points="1241.5,-191 1167.75,-191 1167.75,-170.25 1241.5,-170.25 1241.5,-191"/>
<text xml:space="preserve" text-anchor="middle" x="1204.62" y="-177.5" font-family="Helvetica,sans-Serif" font-size="10.00">sync_wait.h</text>
</a>
</g>
</g>
<!-- Node1&#45;&gt;Node29 -->
<g id="edge54_Node000001_Node000029" class="edge">
<title>Node1&#45;&gt;Node29</title>
<g id="a_edge54_Node000001_Node000029"><a xlink:title=" ">
<path fill="none" stroke="#63b8ff" d="M1054.99,-399.67C1079,-391.81 1105.51,-379.66 1124.62,-361.25 1171.25,-316.34 1192.7,-239.4 1200.68,-202.52"/>
<polygon fill="#63b8ff" stroke="#63b8ff" points="1204.11,-203.25 1202.67,-192.75 1197.25,-201.86 1204.11,-203.25"/>
</a>
</g>
</g>
<!-- Node30 -->
<g id="Node000030" class="node">
<title>Node30</title>
<g id="a_Node000030"><a xlink:href="log_8h.html" target="_top" xlink:title=" ">
<polygon fill="white" stroke="#666666" points="1117.62,-134.25 1077.62,-134.25 1077.62,-113.5 1117.62,-113.5 1117.62,-134.25"/>
<text xml:space="preserve" text-anchor="middle" x="1097.62" y="-120.75" font-family="Helvetica,sans-Serif" font-size="10.00">log.h</text>
</a>
</g>
</g>
<!-- Node1&#45;&gt;Node30 -->
<g id="edge60_Node000001_Node000030" class="edge">
<title>Node1&#45;&gt;Node30</title>
<g id="a_edge60_Node000001_Node000030"><a xlink:title=" ">
<path fill="none" stroke="#63b8ff" d="M1028.89,-396.79C1062.85,-377.63 1110.62,-342.3 1110.62,-295.12 1110.62,-295.12 1110.62,-295.12 1110.62,-236.38 1110.62,-204.62 1105.36,-168.12 1101.53,-145.78"/>
<polygon fill="#63b8ff" stroke="#63b8ff" points="1105.02,-145.39 1099.81,-136.16 1098.13,-146.62 1105.02,-145.39"/>
</a>
</g>
</g>
<!-- Node31 -->
<g id="Node000031" class="node">
<title>Node31</title>
<g id="a_Node000031"><a xlink:title=" ">
<polygon fill="#e0e0e0" stroke="#999999" points="1226.12,-361.25 1177.12,-361.25 1177.12,-340.5 1226.12,-340.5 1226.12,-361.25"/>
<text xml:space="preserve" text-anchor="middle" x="1201.62" y="-347.75" font-family="Helvetica,sans-Serif" font-size="10.00">stdio.h</text>
</a>
</g>
</g>
<!-- Node1&#45;&gt;Node31 -->
<g id="edge63_Node000001_Node000031" class="edge">
<title>Node1&#45;&gt;Node31</title>
<g id="a_edge63_Node000001_Node000031"><a xlink:title=" ">
<path fill="none" stroke="#63b8ff" d="M1050.29,-396.78C1086.81,-385.94 1133.81,-372 1165.67,-362.54"/>
<polygon fill="#63b8ff" stroke="#63b8ff" points="1166.64,-365.91 1175.23,-359.71 1164.65,-359.2 1166.64,-365.91"/>
</a>
</g>
</g>
<!-- Node3 -->
<g id="Node000003" class="node">
<title>Node3</title>
<g id="a_Node000003"><a xlink:href="motor__internal_8h.html" target="_top" xlink:title=" ">
<polygon fill="white" stroke="#666666" points="884.12,-304.5 787.12,-304.5 787.12,-283.75 884.12,-283.75 884.12,-304.5"/>
<text xml:space="preserve" text-anchor="middle" x="835.62" y="-291" font-family="Helvetica,sans-Serif" font-size="10.00">motor_internal.h</text>
</a>
</g>
</g>
<!-- Node2&#45;&gt;Node3 -->
<g id="edge2_Node000002_Node000003" class="edge">
<title>Node2&#45;&gt;Node3</title>
<g id="a_edge2_Node000002_Node000003"><a xlink:title=" ">
<path fill="none" stroke="#63b8ff" d="M967.02,-340.09C941.39,-331.32 903.55,-318.37 875.06,-308.62"/>
<polygon fill="#63b8ff" stroke="#63b8ff" points="876.28,-305.34 865.68,-305.41 874.01,-311.96 876.28,-305.34"/>
</a>
</g>
</g>
<!-- Node4 -->
<g id="Node000004" class="node">
<title>Node4</title>
<g id="a_Node000004"><a xlink:href="motor_8h.html" target="_top" xlink:title=" ">
<polygon fill="white" stroke="#666666" points="493.38,-247.75 439.88,-247.75 439.88,-227 493.38,-227 493.38,-247.75"/>
<text xml:space="preserve" text-anchor="middle" x="466.62" y="-234.25" font-family="Helvetica,sans-Serif" font-size="10.00">motor.h</text>
</a>
</g>
</g>
<!-- Node3&#45;&gt;Node4 -->
<g id="edge3_Node000003_Node000004" class="edge">
<title>Node3&#45;&gt;Node4</title>
<g id="a_edge3_Node000003_Node000004"><a xlink:title=" ">
<path fill="none" stroke="#63b8ff" d="M787.01,-285.91C712.79,-274.9 572.75,-254.12 505.11,-244.09"/>
<polygon fill="#63b8ff" stroke="#63b8ff" points="505.64,-240.63 495.24,-242.62 504.62,-247.55 505.64,-240.63"/>
</a>
</g>
</g>
<!-- Node9 -->
<g id="Node000009" class="node">
<title>Node9</title>
<g id="a_Node000009"><a xlink:title=" ">
<polygon fill="#e0e0e0" stroke="#999999" points="1017.38,-77.5 945.88,-77.5 945.88,-56.75 1017.38,-56.75 1017.38,-77.5"/>
<text xml:space="preserve" text-anchor="middle" x="981.62" y="-64" font-family="Helvetica,sans-Serif" font-size="10.00">FreeRTOS.h</text>
</a>
</g>
</g>
<!-- Node3&#45;&gt;Node9 -->
<g id="edge37_Node000003_Node000009" class="edge">
<title>Node3&#45;&gt;Node9</title>
<g id="a_edge37_Node000003_Node000009"><a xlink:title=" ">
<path fill="none" stroke="#63b8ff" d="M833.47,-283.66C827.47,-254.65 813.52,-165.75 854.62,-113.5 873.71,-89.24 906.82,-77.93 934.45,-72.67"/>
<polygon fill="#63b8ff" stroke="#63b8ff" points="934.72,-76.17 944.01,-71.07 933.57,-69.27 934.72,-76.17"/>
</a>
</g>
</g>
<!-- Node14 -->
<g id="Node000014" class="node">
<title>Node14</title>
<g id="a_Node000014"><a xlink:href="cmd__handle_8h.html" target="_top" xlink:title=" ">
<polygon fill="white" stroke="#666666" points="947.75,-134.25 863.5,-134.25 863.5,-113.5 947.75,-113.5 947.75,-134.25"/>
<text xml:space="preserve" text-anchor="middle" x="905.62" y="-120.75" font-family="Helvetica,sans-Serif" font-size="10.00">cmd_handle.h</text>
</a>
</g>
</g>
<!-- Node3&#45;&gt;Node14 -->
<g id="edge39_Node000003_Node000014" class="edge">
<title>Node3&#45;&gt;Node14</title>
<g id="a_edge39_Node000003_Node000014"><a xlink:title=" ">
<path fill="none" stroke="#63b8ff" d="M839.59,-283.6C850.65,-257 882.06,-181.52 897.22,-145.07"/>
<polygon fill="#63b8ff" stroke="#63b8ff" points="900.34,-146.69 900.95,-136.11 893.88,-144 900.34,-146.69"/>
</a>
</g>
</g>
<!-- Node23 -->
<g id="Node000023" class="node">
<title>Node23</title>
<g id="a_Node000023"><a xlink:title=" ">
<polygon fill="#e0e0e0" stroke="#999999" points="1021.12,-134.25 966.12,-134.25 966.12,-113.5 1021.12,-113.5 1021.12,-134.25"/>
<text xml:space="preserve" text-anchor="middle" x="993.62" y="-120.75" font-family="Helvetica,sans-Serif" font-size="10.00">queue.h</text>
</a>
</g>
</g>
<!-- Node3&#45;&gt;Node23 -->
<g id="edge38_Node000003_Node000023" class="edge">
<title>Node3&#45;&gt;Node23</title>
<g id="a_edge38_Node000003_Node000023"><a xlink:title=" ">
<path fill="none" stroke="#63b8ff" d="M844.57,-283.6C870.09,-256.42 943.52,-178.23 976.83,-142.76"/>
<polygon fill="#63b8ff" stroke="#63b8ff" points="979.05,-145.51 983.35,-135.82 973.95,-140.71 979.05,-145.51"/>
</a>
</g>
</g>
<!-- Node5 -->
<g id="Node000005" class="node">
<title>Node5</title>
<g id="a_Node000005"><a xlink:href="pca9555a_8h.html" target="_top" xlink:title=" ">
<polygon fill="white" stroke="#666666" points="311.62,-77.5 157.62,-77.5 157.62,-56.75 311.62,-56.75 311.62,-77.5"/>
<text xml:space="preserve" text-anchor="middle" x="234.62" y="-64" font-family="Helvetica,sans-Serif" font-size="10.00">driver/pca9555a/pca9555a.h</text>
</a>
</g>
</g>
<!-- Node4&#45;&gt;Node5 -->
<g id="edge4_Node000004_Node000005" class="edge">
<title>Node4&#45;&gt;Node5</title>
<g id="a_edge4_Node000004_Node000005"><a xlink:title=" ">
<path fill="none" stroke="#63b8ff" d="M439.4,-230.57C394.59,-219.6 305.32,-191.62 255.62,-134.25 244.65,-121.57 239.4,-103.13 236.89,-88.94"/>
<polygon fill="#63b8ff" stroke="#63b8ff" points="240.4,-88.73 235.54,-79.31 233.47,-89.7 240.4,-88.73"/>
</a>
</g>
</g>
<!-- Node8 -->
<g id="Node000008" class="node">
<title>Node8</title>
<g id="a_Node000008"><a xlink:href="step__core_8h.html" target="_top" xlink:title=" ">
<polygon fill="white" stroke="#666666" points="481.75,-191 409.5,-191 409.5,-170.25 481.75,-170.25 481.75,-191"/>
<text xml:space="preserve" text-anchor="middle" x="445.62" y="-177.5" font-family="Helvetica,sans-Serif" font-size="10.00">step_core.h</text>
</a>
</g>
</g>
<!-- Node4&#45;&gt;Node8 -->
<g id="edge7_Node000004_Node000008" class="edge">
<title>Node4&#45;&gt;Node8</title>
<g id="a_edge7_Node000004_Node000008"><a xlink:title=" ">
<path fill="none" stroke="#63b8ff" d="M462.87,-226.59C460.24,-219.74 456.64,-210.34 453.4,-201.9"/>
<polygon fill="#63b8ff" stroke="#63b8ff" points="456.74,-200.82 449.89,-192.74 450.2,-203.33 456.74,-200.82"/>
</a>
</g>
</g>
<!-- Node11 -->
<g id="Node000011" class="node">
<title>Node11</title>
<g id="a_Node000011"><a xlink:title=" ">
<polygon fill="#e0e0e0" stroke="#999999" points="140,-77.5 81.25,-77.5 81.25,-56.75 140,-56.75 140,-77.5"/>
<text xml:space="preserve" text-anchor="middle" x="110.62" y="-64" font-family="Helvetica,sans-Serif" font-size="10.00">fsl_ftm.h</text>
</a>
</g>
</g>
<!-- Node4&#45;&gt;Node11 -->
<g id="edge34_Node000004_Node000011" class="edge">
<title>Node4&#45;&gt;Node11</title>
<g id="a_edge34_Node000004_Node000011"><a xlink:title=" ">
<path fill="none" stroke="#63b8ff" d="M439.47,-231.68C405.05,-225.18 344.35,-211.81 295.62,-191 251.1,-171.98 242.98,-161.01 202.62,-134.25 178.17,-118.03 150.97,-98.26 132.54,-84.58"/>
<polygon fill="#63b8ff" stroke="#63b8ff" points="134.83,-81.93 124.72,-78.76 130.65,-87.54 134.83,-81.93"/>
</a>
</g>
</g>
<!-- Node12 -->
<g id="Node000012" class="node">
<title>Node12</title>
<g id="a_Node000012"><a xlink:title=" ">
<polygon fill="#e0e0e0" stroke="#999999" points="63.25,-77.5 0,-77.5 0,-56.75 63.25,-56.75 63.25,-77.5"/>
<text xml:space="preserve" text-anchor="middle" x="31.62" y="-64" font-family="Helvetica,sans-Serif" font-size="10.00">fsl_gpio.h</text>
</a>
</g>
</g>
<!-- Node4&#45;&gt;Node12 -->
<g id="edge35_Node000004_Node000012" class="edge">
<title>Node4&#45;&gt;Node12</title>
<g id="a_edge35_Node000004_Node000012"><a xlink:title=" ">
<path fill="none" stroke="#63b8ff" d="M439.56,-232.89C398.22,-227.06 317.24,-213.71 251.62,-191 197.76,-172.36 186.36,-162.08 136.62,-134.25 108.03,-118.25 76.35,-97.92 55.34,-84.05"/>
<polygon fill="#63b8ff" stroke="#63b8ff" points="57.47,-81.26 47.21,-78.65 53.6,-87.1 57.47,-81.26"/>
</a>
</g>
</g>
<!-- Node13 -->
<g id="Node000013" class="node">
<title>Node13</title>
<g id="a_Node000013"><a xlink:title=" ">
<polygon fill="#e0e0e0" stroke="#999999" points="569.5,-77.5 507.75,-77.5 507.75,-56.75 569.5,-56.75 569.5,-77.5"/>
<text xml:space="preserve" text-anchor="middle" x="538.62" y="-64" font-family="Helvetica,sans-Serif" font-size="10.00">fsl_port.h</text>
</a>
</g>
</g>
<!-- Node4&#45;&gt;Node13 -->
<g id="edge36_Node000004_Node000013" class="edge">
<title>Node4&#45;&gt;Node13</title>
<g id="a_edge36_Node000004_Node000013"><a xlink:title=" ">
<path fill="none" stroke="#63b8ff" d="M472.1,-226.8C477.19,-217.72 484.84,-203.64 490.62,-191 506.85,-155.57 522.71,-112.95 531.53,-88.36"/>
<polygon fill="#63b8ff" stroke="#63b8ff" points="534.71,-89.86 534.75,-79.27 528.11,-87.52 534.71,-89.86"/>
</a>
</g>
</g>
<!-- Node20 -->
<g id="Node000020" class="node">
<title>Node20</title>
<g id="a_Node000020"><a xlink:href="tmc2209__core_8h.html" target="_top" xlink:title=" ">
<polygon fill="white" stroke="#666666" points="725.62,-191 631.62,-191 631.62,-170.25 725.62,-170.25 725.62,-191"/>
<text xml:space="preserve" text-anchor="middle" x="678.62" y="-177.5" font-family="Helvetica,sans-Serif" font-size="10.00">tmc2209_core.h</text>
</a>
</g>
</g>
<!-- Node4&#45;&gt;Node20 -->
<g id="edge28_Node000004_Node000020" class="edge">
<title>Node4&#45;&gt;Node20</title>
<g id="a_edge28_Node000004_Node000020"><a xlink:title=" ">
<path fill="none" stroke="#63b8ff" d="M493.47,-229.44C527.64,-220.62 587.28,-205.22 629.63,-194.28"/>
<polygon fill="#63b8ff" stroke="#63b8ff" points="630.27,-197.73 639.08,-191.84 628.52,-190.95 630.27,-197.73"/>
</a>
</g>
</g>
<!-- Node6 -->
<g id="Node000006" class="node">
<title>Node6</title>
<g id="a_Node000006"><a xlink:title=" ">
<polygon fill="#e0e0e0" stroke="#999999" points="840.12,-20.75 755.12,-20.75 755.12,0 840.12,0 840.12,-20.75"/>
<text xml:space="preserve" text-anchor="middle" x="797.62" y="-7.25" font-family="Helvetica,sans-Serif" font-size="10.00">fsl_common.h</text>
</a>
</g>
</g>
<!-- Node5&#45;&gt;Node6 -->
<g id="edge5_Node000005_Node000006" class="edge">
<title>Node5&#45;&gt;Node6</title>
<g id="a_edge5_Node000005_Node000006"><a xlink:title=" ">
<path fill="none" stroke="#63b8ff" d="M311.97,-57.64C314.89,-57.34 317.79,-57.04 320.62,-56.75 473.88,-41.11 655.01,-24.35 743.5,-16.28"/>
<polygon fill="#63b8ff" stroke="#63b8ff" points="743.7,-19.78 753.34,-15.38 743.06,-12.8 743.7,-19.78"/>
</a>
</g>
</g>
<!-- Node7 -->
<g id="Node000007" class="node">
<title>Node7</title>
<g id="a_Node000007"><a xlink:title=" ">
<polygon fill="#e0e0e0" stroke="#999999" points="456.5,-20.75 376.75,-20.75 376.75,0 456.5,0 456.5,-20.75"/>
<text xml:space="preserve" text-anchor="middle" x="416.62" y="-7.25" font-family="Helvetica,sans-Serif" font-size="10.00">peripherals.h</text>
</a>
</g>
</g>
<!-- Node5&#45;&gt;Node7 -->
<g id="edge6_Node000005_Node000007" class="edge">
<title>Node5&#45;&gt;Node7</title>
<g id="a_edge6_Node000005_Node000007"><a xlink:title=" ">
<path fill="none" stroke="#63b8ff" d="M267.16,-56.34C296.71,-47.45 340.5,-34.27 373.06,-24.48"/>
<polygon fill="#63b8ff" stroke="#63b8ff" points="374.05,-27.84 382.61,-21.61 372.03,-21.14 374.05,-27.84"/>
</a>
</g>
</g>
<!-- Node8&#45;&gt;Node5 -->
<g id="edge8_Node000008_Node000005" class="edge">
<title>Node8&#45;&gt;Node5</title>
<g id="a_edge8_Node000008_Node000005"><a xlink:title=" ">
<path fill="none" stroke="#63b8ff" d="M426.33,-169.84C408.45,-160.74 381.16,-146.74 357.62,-134.25 340.63,-125.23 336.56,-122.64 319.62,-113.5 300.91,-103.4 279.82,-92.13 263.33,-83.36"/>
<polygon fill="#63b8ff" stroke="#63b8ff" points="265.03,-80.3 254.56,-78.7 261.75,-86.48 265.03,-80.3"/>
</a>
</g>
</g>
<!-- Node8&#45;&gt;Node6 -->
<g id="edge11_Node000008_Node000006" class="edge">
<title>Node8&#45;&gt;Node6</title>
<g id="a_edge11_Node000008_Node000006"><a xlink:title=" ">
<path fill="none" stroke="#63b8ff" d="M459.72,-169.82C492.58,-147.3 577.35,-91.2 654.62,-56.75 684.66,-43.36 719.84,-32.14 747.8,-24.21"/>
<polygon fill="#63b8ff" stroke="#63b8ff" points="748.37,-27.69 757.06,-21.63 746.49,-20.94 748.37,-27.69"/>
</a>
</g>
</g>
<!-- Node8&#45;&gt;Node9 -->
<g id="edge9_Node000008_Node000009" class="edge">
<title>Node8&#45;&gt;Node9</title>
<g id="a_edge9_Node000008_Node000009"><a xlink:title=" ">
<path fill="none" stroke="#63b8ff" d="M482.2,-175.38C538.2,-168.56 648.39,-153.93 740.62,-134.25 778,-126.28 878.04,-97.97 936.82,-81.09"/>
<polygon fill="#63b8ff" stroke="#63b8ff" points="937.54,-84.52 946.18,-78.39 935.61,-77.79 937.54,-84.52"/>
</a>
</g>
</g>
<!-- Node10 -->
<g id="Node000010" class="node">
<title>Node10</title>
<g id="a_Node000010"><a xlink:title=" ">
<polygon fill="#e0e0e0" stroke="#999999" points="310.62,-134.25 264.62,-134.25 264.62,-113.5 310.62,-113.5 310.62,-134.25"/>
<text xml:space="preserve" text-anchor="middle" x="287.62" y="-120.75" font-family="Helvetica,sans-Serif" font-size="10.00">task.h</text>
</a>
</g>
</g>
<!-- Node8&#45;&gt;Node10 -->
<g id="edge10_Node000008_Node000010" class="edge">
<title>Node8&#45;&gt;Node10</title>
<g id="a_edge10_Node000008_Node000010"><a xlink:title=" ">
<path fill="none" stroke="#63b8ff" d="M417.38,-169.84C390.58,-160.55 350.27,-146.58 321.7,-136.68"/>
<polygon fill="#63b8ff" stroke="#63b8ff" points="323.02,-133.44 312.43,-133.47 320.73,-140.05 323.02,-133.44"/>
</a>
</g>
</g>
<!-- Node8&#45;&gt;Node11 -->
<g id="edge12_Node000008_Node000011" class="edge">
<title>Node8&#45;&gt;Node11</title>
<g id="a_edge12_Node000008_Node000011"><a xlink:title=" ">
<path fill="none" stroke="#63b8ff" d="M409.32,-173.13C370.63,-165.7 307.9,-152.22 255.62,-134.25 213.86,-119.89 167.81,-97.73 139.05,-83.08"/>
<polygon fill="#63b8ff" stroke="#63b8ff" points="140.76,-80.03 130.27,-78.56 137.56,-86.25 140.76,-80.03"/>
</a>
</g>
</g>
<!-- Node8&#45;&gt;Node12 -->
<g id="edge13_Node000008_Node000012" class="edge">
<title>Node8&#45;&gt;Node12</title>
<g id="a_edge13_Node000008_Node000012"><a xlink:title=" ">
<path fill="none" stroke="#63b8ff" d="M409.32,-174.98C361.4,-168.36 274.66,-154.72 202.62,-134.25 152.76,-120.08 97.13,-97.18 63.25,-82.39"/>
<polygon fill="#63b8ff" stroke="#63b8ff" points="65,-79.33 54.44,-78.5 62.17,-85.74 65,-79.33"/>
</a>
</g>
</g>
<!-- Node8&#45;&gt;Node13 -->
<g id="edge14_Node000008_Node000013" class="edge">
<title>Node8&#45;&gt;Node13</title>
<g id="a_edge14_Node000008_Node000013"><a xlink:title=" ">
<path fill="none" stroke="#63b8ff" d="M453.55,-170.12C468.99,-151.61 503.3,-110.47 523.31,-86.48"/>
<polygon fill="#63b8ff" stroke="#63b8ff" points="525.76,-89.01 529.48,-79.09 520.39,-84.53 525.76,-89.01"/>
</a>
</g>
</g>
<!-- Node8&#45;&gt;Node14 -->
<g id="edge15_Node000008_Node000014" class="edge">
<title>Node8&#45;&gt;Node14</title>
<g id="a_edge15_Node000008_Node000014"><a xlink:title=" ">
<path fill="none" stroke="#63b8ff" d="M482.1,-175.28C562.89,-165.67 757.18,-142.54 851.9,-131.27"/>
<polygon fill="#63b8ff" stroke="#63b8ff" points="852.2,-134.76 861.71,-130.1 851.37,-127.81 852.2,-134.76"/>
</a>
</g>
</g>
<!-- Node18 -->
<g id="Node000018" class="node">
<title>Node18</title>
<g id="a_Node000018"><a xlink:href="step__shared_8h.html" target="_top" xlink:title=" ">
<polygon fill="white" stroke="#666666" points="450.75,-134.25 366.5,-134.25 366.5,-113.5 450.75,-113.5 450.75,-134.25"/>
<text xml:space="preserve" text-anchor="middle" x="408.62" y="-120.75" font-family="Helvetica,sans-Serif" font-size="10.00">step_shared.h</text>
</a>
</g>
</g>
<!-- Node8&#45;&gt;Node18 -->
<g id="edge21_Node000008_Node000018" class="edge">
<title>Node8&#45;&gt;Node18</title>
<g id="a_edge21_Node000008_Node000018"><a xlink:title=" ">
<path fill="none" stroke="#63b8ff" d="M439.01,-169.84C434.17,-162.67 427.45,-152.73 421.55,-144.01"/>
<polygon fill="#63b8ff" stroke="#63b8ff" points="424.53,-142.16 416.03,-135.83 418.73,-146.08 424.53,-142.16"/>
</a>
</g>
</g>
<!-- Node14&#45;&gt;Node6 -->
<g id="edge19_Node000014_Node000006" class="edge">
<title>Node14&#45;&gt;Node6</title>
<g id="a_edge19_Node000014_Node000006"><a xlink:title=" ">
<path fill="none" stroke="#63b8ff" d="M905.21,-113.24C904.14,-99.29 900.3,-73.34 886.62,-56.75 875.04,-42.7 857.99,-32.54 841.9,-25.45"/>
<polygon fill="#63b8ff" stroke="#63b8ff" points="843.51,-22.33 832.93,-21.79 840.87,-28.81 843.51,-22.33"/>
</a>
</g>
</g>
<!-- Node14&#45;&gt;Node9 -->
<g id="edge17_Node000014_Node000009" class="edge">
<title>Node14&#45;&gt;Node9</title>
<g id="a_edge17_Node000014_Node000009"><a xlink:title=" ">
<path fill="none" stroke="#63b8ff" d="M919.21,-113.09C930.24,-105.15 946.01,-93.78 958.95,-84.46"/>
<polygon fill="#63b8ff" stroke="#63b8ff" points="960.86,-87.4 966.93,-78.71 956.77,-81.72 960.86,-87.4"/>
</a>
</g>
</g>
<!-- Node15 -->
<g id="Node000015" class="node">
<title>Node15</title>
<g id="a_Node000015"><a xlink:title=" ">
<polygon fill="#e0e0e0" stroke="#999999" points="1160,-77.5 1107.25,-77.5 1107.25,-56.75 1160,-56.75 1160,-77.5"/>
<text xml:space="preserve" text-anchor="middle" x="1133.62" y="-64" font-family="Helvetica,sans-Serif" font-size="10.00">stdint.h</text>
</a>
</g>
</g>
<!-- Node14&#45;&gt;Node15 -->
<g id="edge16_Node000014_Node000015" class="edge">
<title>Node14&#45;&gt;Node15</title>
<g id="a_edge16_Node000014_Node000015"><a xlink:title=" ">
<path fill="none" stroke="#63b8ff" d="M946.65,-113.02C988.98,-102.86 1054.48,-87.13 1095.65,-77.24"/>
<polygon fill="#63b8ff" stroke="#63b8ff" points="1096.46,-80.65 1105.36,-74.91 1094.82,-73.84 1096.46,-80.65"/>
</a>
</g>
</g>
<!-- Node16 -->
<g id="Node000016" class="node">
<title>Node16</title>
<g id="a_Node000016"><a xlink:title=" ">
<polygon fill="#e0e0e0" stroke="#999999" points="1269.12,-77.5 1178.12,-77.5 1178.12,-56.75 1269.12,-56.75 1269.12,-77.5"/>
<text xml:space="preserve" text-anchor="middle" x="1223.62" y="-64" font-family="Helvetica,sans-Serif" font-size="10.00">event_groups.h</text>
</a>
</g>
</g>
<!-- Node14&#45;&gt;Node16 -->
<g id="edge18_Node000014_Node000016" class="edge">
<title>Node14&#45;&gt;Node16</title>
<g id="a_edge18_Node000014_Node000016"><a xlink:title=" ">
<path fill="none" stroke="#63b8ff" d="M948.19,-115.17C951.38,-114.6 954.55,-114.04 957.62,-113.5 962.78,-112.6 1090.37,-90.84 1166.94,-77.79"/>
<polygon fill="#63b8ff" stroke="#63b8ff" points="1167.08,-81.31 1176.35,-76.18 1165.91,-74.41 1167.08,-81.31"/>
</a>
</g>
</g>
<!-- Node17 -->
<g id="Node000017" class="node">
<title>Node17</title>
<g id="a_Node000017"><a xlink:title=" ">
<polygon fill="#e0e0e0" stroke="#999999" points="877.62,-77.5 825.62,-77.5 825.62,-56.75 877.62,-56.75 877.62,-77.5"/>
<text xml:space="preserve" text-anchor="middle" x="851.62" y="-64" font-family="Helvetica,sans-Serif" font-size="10.00">stdlib.h</text>
</a>
</g>
</g>
<!-- Node14&#45;&gt;Node17 -->
<g id="edge20_Node000014_Node000017" class="edge">
<title>Node14&#45;&gt;Node17</title>
<g id="a_edge20_Node000014_Node000017"><a xlink:title=" ">
<path fill="none" stroke="#63b8ff" d="M895.97,-113.09C888.52,-105.53 878.02,-94.89 869.1,-85.85"/>
<polygon fill="#63b8ff" stroke="#63b8ff" points="871.77,-83.57 862.26,-78.91 866.79,-88.48 871.77,-83.57"/>
</a>
</g>
</g>
<!-- Node18&#45;&gt;Node5 -->
<g id="edge22_Node000018_Node000005" class="edge">
<title>Node18&#45;&gt;Node5</title>
<g id="a_edge22_Node000018_Node000005"><a xlink:title=" ">
<path fill="none" stroke="#63b8ff" d="M377.52,-113.09C349.4,-104.24 307.77,-91.14 276.69,-81.36"/>
<polygon fill="#63b8ff" stroke="#63b8ff" points="277.79,-78.04 267.2,-78.37 275.69,-84.72 277.79,-78.04"/>
</a>
</g>
</g>
<!-- Node18&#45;&gt;Node6 -->
<g id="edge24_Node000018_Node000006" class="edge">
<title>Node18&#45;&gt;Node6</title>
<g id="a_edge24_Node000018_Node000006"><a xlink:title=" ">
<path fill="none" stroke="#63b8ff" d="M418.41,-113.12C433.94,-98.27 465.84,-70.31 498.62,-56.75 579.53,-23.29 681.9,-14.17 743.44,-11.87"/>
<polygon fill="#63b8ff" stroke="#63b8ff" points="743.42,-15.38 753.3,-11.56 743.2,-8.38 743.42,-15.38"/>
</a>
</g>
</g>
<!-- Node18&#45;&gt;Node11 -->
<g id="edge25_Node000018_Node000011" class="edge">
<title>Node18&#45;&gt;Node11</title>
<g id="a_edge25_Node000018_Node000011"><a xlink:title=" ">
<path fill="none" stroke="#63b8ff" d="M366.12,-116.38C316.71,-108.63 232.49,-94.79 151.36,-77.97"/>
<polygon fill="#63b8ff" stroke="#63b8ff" points="152.44,-74.62 141.93,-76 151,-81.47 152.44,-74.62"/>
</a>
</g>
</g>
<!-- Node18&#45;&gt;Node12 -->
<g id="edge26_Node000018_Node000012" class="edge">
<title>Node18&#45;&gt;Node12</title>
<g id="a_edge26_Node000018_Node000012"><a xlink:title=" ">
<path fill="none" stroke="#63b8ff" d="M366.26,-118.4C304.42,-111.6 185.58,-97.5 74.43,-77.68"/>
<polygon fill="#63b8ff" stroke="#63b8ff" points="75.3,-74.28 64.84,-75.95 74.06,-81.17 75.3,-74.28"/>
</a>
</g>
</g>
<!-- Node18&#45;&gt;Node13 -->
<g id="edge27_Node000018_Node000013" class="edge">
<title>Node18&#45;&gt;Node13</title>
<g id="a_edge27_Node000018_Node000013"><a xlink:title=" ">
<path fill="none" stroke="#63b8ff" d="M431.87,-113.09C452.29,-104.48 482.26,-91.86 505.25,-82.18"/>
<polygon fill="#63b8ff" stroke="#63b8ff" points="506.33,-85.52 514.19,-78.42 503.62,-79.07 506.33,-85.52"/>
</a>
</g>
</g>
<!-- Node19 -->
<g id="Node000019" class="node">
<title>Node19</title>
<g id="a_Node000019"><a xlink:title=" ">
<polygon fill="#e0e0e0" stroke="#999999" points="451.88,-77.5 329.38,-77.5 329.38,-56.75 451.88,-56.75 451.88,-77.5"/>
<text xml:space="preserve" text-anchor="middle" x="390.62" y="-64" font-family="Helvetica,sans-Serif" font-size="10.00">fsl_device_registers.h</text>
</a>
</g>
</g>
<!-- Node18&#45;&gt;Node19 -->
<g id="edge23_Node000018_Node000019" class="edge">
<title>Node18&#45;&gt;Node19</title>
<g id="a_edge23_Node000018_Node000019"><a xlink:title=" ">
<path fill="none" stroke="#63b8ff" d="M405.41,-113.09C403.18,-106.31 400.13,-97.05 397.39,-88.69"/>
<polygon fill="#63b8ff" stroke="#63b8ff" points="400.74,-87.67 394.29,-79.27 394.09,-89.86 400.74,-87.67"/>
</a>
</g>
</g>
<!-- Node20&#45;&gt;Node6 -->
<g id="edge31_Node000020_Node000006" class="edge">
<title>Node20&#45;&gt;Node6</title>
<g id="a_edge31_Node000020_Node000006"><a xlink:title=" ">
<path fill="none" stroke="#63b8ff" d="M695.12,-169.82C708.37,-161.44 726.96,-148.5 740.62,-134.25 761.64,-112.34 765.84,-105.03 778.62,-77.5 785.41,-62.9 790.31,-45.35 793.44,-32"/>
<polygon fill="#63b8ff" stroke="#63b8ff" points="796.78,-33.12 795.49,-22.6 789.94,-31.63 796.78,-33.12"/>
</a>
</g>
</g>
<!-- Node20&#45;&gt;Node7 -->
<g id="edge33_Node000020_Node000007" class="edge">
<title>Node20&#45;&gt;Node7</title>
<g id="a_edge33_Node000020_Node000007"><a xlink:title=" ">
<path fill="none" stroke="#63b8ff" d="M660.77,-169.79C647.29,-161.66 629.05,-149.07 616.62,-134.25 591.99,-104.85 608.11,-81.29 578.62,-56.75 547.56,-30.9 502.75,-19.74 468.13,-14.94"/>
<polygon fill="#63b8ff" stroke="#63b8ff" points="468.67,-11.48 458.32,-13.73 467.82,-18.43 468.67,-11.48"/>
</a>
</g>
</g>
<!-- Node20&#45;&gt;Node14 -->
<g id="edge32_Node000020_Node000014" class="edge">
<title>Node20&#45;&gt;Node14</title>
<g id="a_edge32_Node000020_Node000014"><a xlink:title=" ">
<path fill="none" stroke="#63b8ff" d="M719.47,-169.77C757.04,-160.71 812.93,-147.23 853.67,-137.41"/>
<polygon fill="#63b8ff" stroke="#63b8ff" points="854.35,-140.84 863.25,-135.09 852.71,-134.04 854.35,-140.84"/>
</a>
</g>
</g>
<!-- Node21 -->
<g id="Node000021" class="node">
<title>Node21</title>
<g id="a_Node000021"><a xlink:href="tmc2209__shared_8h.html" target="_top" xlink:title=" ">
<polygon fill="white" stroke="#666666" points="731.62,-134.25 625.62,-134.25 625.62,-113.5 731.62,-113.5 731.62,-134.25"/>
<text xml:space="preserve" text-anchor="middle" x="678.62" y="-120.75" font-family="Helvetica,sans-Serif" font-size="10.00">tmc2209_shared.h</text>
</a>
</g>
</g>
<!-- Node20&#45;&gt;Node21 -->
<g id="edge29_Node000020_Node000021" class="edge">
<title>Node20&#45;&gt;Node21</title>
<g id="a_edge29_Node000020_Node000021"><a xlink:title=" ">
<path fill="none" stroke="#63b8ff" d="M678.62,-169.84C678.62,-163.22 678.62,-154.22 678.62,-146.02"/>
<polygon fill="#63b8ff" stroke="#63b8ff" points="682.13,-146.09 678.63,-136.09 675.13,-146.09 682.13,-146.09"/>
</a>
</g>
</g>
<!-- Node22 -->
<g id="Node000022" class="node">
<title>Node22</title>
<g id="a_Node000022"><a xlink:title=" ">
<polygon fill="#e0e0e0" stroke="#999999" points="769.25,-77.5 664,-77.5 664,-56.75 769.25,-56.75 769.25,-77.5"/>
<text xml:space="preserve" text-anchor="middle" x="716.62" y="-64" font-family="Helvetica,sans-Serif" font-size="10.00">fsl_uart_freertos.h</text>
</a>
</g>
</g>
<!-- Node21&#45;&gt;Node22 -->
<g id="edge30_Node000021_Node000022" class="edge">
<title>Node21&#45;&gt;Node22</title>
<g id="a_edge30_Node000021_Node000022"><a xlink:title=" ">
<path fill="none" stroke="#63b8ff" d="M685.42,-113.09C690.39,-105.92 697.29,-95.98 703.35,-87.26"/>
<polygon fill="#63b8ff" stroke="#63b8ff" points="706.2,-89.28 709.03,-79.07 700.45,-85.29 706.2,-89.28"/>
</a>
</g>
</g>
<!-- Node24&#45;&gt;Node3 -->
<g id="edge42_Node000024_Node000003" class="edge">
<title>Node24&#45;&gt;Node3</title>
<g id="a_edge42_Node000024_Node000003"><a xlink:title=" ">
<path fill="none" stroke="#63b8ff" d="M620.5,-341.68C662.49,-332.59 730.65,-317.84 778.99,-307.38"/>
<polygon fill="#63b8ff" stroke="#63b8ff" points="779.69,-310.81 788.73,-305.27 778.21,-303.97 779.69,-310.81"/>
</a>
</g>
</g>
<!-- Node24&#45;&gt;Node4 -->
<g id="edge41_Node000024_Node000004" class="edge">
<title>Node24&#45;&gt;Node4</title>
<g id="a_edge41_Node000024_Node000004"><a xlink:title=" ">
<path fill="none" stroke="#63b8ff" d="M572.73,-340.37C553.31,-321.7 509.92,-279.99 485.06,-256.1"/>
<polygon fill="#63b8ff" stroke="#63b8ff" points="487.55,-253.63 477.91,-249.22 482.7,-258.68 487.55,-253.63"/>
</a>
</g>
</g>
<!-- Node25&#45;&gt;Node3 -->
<g id="edge44_Node000025_Node000003" class="edge">
<title>Node25&#45;&gt;Node3</title>
<g id="a_edge44_Node000025_Node000003"><a xlink:title=" ">
<path fill="none" stroke="#63b8ff" d="M712.44,-340.09C736.36,-331.36 771.63,-318.48 798.3,-308.75"/>
<polygon fill="#63b8ff" stroke="#63b8ff" points="799.17,-312.16 807.37,-305.44 796.77,-305.58 799.17,-312.16"/>
</a>
</g>
</g>
<!-- Node26&#45;&gt;Node3 -->
<g id="edge46_Node000026_Node000003" class="edge">
<title>Node26&#45;&gt;Node3</title>
<g id="a_edge46_Node000026_Node000003"><a xlink:title=" ">
<path fill="none" stroke="#63b8ff" d="M799.49,-340.09C805.37,-332.77 813.59,-322.54 820.7,-313.69"/>
<polygon fill="#63b8ff" stroke="#63b8ff" points="823.34,-316 826.88,-306.01 817.89,-311.61 823.34,-316"/>
</a>
</g>
</g>
<!-- Node27&#45;&gt;Node3 -->
<g id="edge48_Node000027_Node000003" class="edge">
<title>Node27&#45;&gt;Node3</title>
<g id="a_edge48_Node000027_Node000003"><a xlink:title=" ">
<path fill="none" stroke="#63b8ff" d="M879.97,-340.09C872.52,-332.53 862.02,-321.89 853.1,-312.85"/>
<polygon fill="#63b8ff" stroke="#63b8ff" points="855.77,-310.57 846.26,-305.91 850.79,-315.48 855.77,-310.57"/>
</a>
</g>
</g>
<!-- Node28&#45;&gt;Node9 -->
<g id="edge51_Node000028_Node000009" class="edge">
<title>Node28&#45;&gt;Node9</title>
<g id="a_edge51_Node000028_Node000009"><a xlink:title=" ">
<path fill="none" stroke="#63b8ff" d="M1037.82,-170.08C1039.04,-156.69 1039.68,-131.91 1030.62,-113.5 1025.1,-102.26 1015.51,-92.43 1006.28,-84.82"/>
<polygon fill="#63b8ff" stroke="#63b8ff" points="1008.6,-82.19 998.53,-78.9 1004.35,-87.75 1008.6,-82.19"/>
</a>
</g>
</g>
<!-- Node28&#45;&gt;Node14 -->
<g id="edge53_Node000028_Node000014" class="edge">
<title>Node28&#45;&gt;Node14</title>
<g id="a_edge53_Node000028_Node000014"><a xlink:title=" ">
<path fill="none" stroke="#63b8ff" d="M1013.2,-169.84C992.62,-161.23 962.42,-148.61 939.25,-138.93"/>
<polygon fill="#63b8ff" stroke="#63b8ff" points="940.82,-135.79 930.24,-135.16 938.12,-142.25 940.82,-135.79"/>
</a>
</g>
</g>
<!-- Node28&#45;&gt;Node15 -->
<g id="edge50_Node000028_Node000015" class="edge">
<title>Node28&#45;&gt;Node15</title>
<g id="a_edge50_Node000028_Node000015"><a xlink:title=" ">
<path fill="none" stroke="#63b8ff" d="M1074.81,-169.78C1093.48,-162.94 1114.49,-151.81 1126.62,-134.25 1135.67,-121.16 1137,-103 1136.31,-89.02"/>
<polygon fill="#63b8ff" stroke="#63b8ff" points="1139.8,-88.77 1135.4,-79.14 1132.83,-89.41 1139.8,-88.77"/>
</a>
</g>
</g>
<!-- Node28&#45;&gt;Node23 -->
<g id="edge52_Node000028_Node000023" class="edge">
<title>Node28&#45;&gt;Node23</title>
<g id="a_edge52_Node000028_Node000023"><a xlink:title=" ">
<path fill="none" stroke="#63b8ff" d="M1028.94,-169.84C1023.19,-162.52 1015.16,-152.29 1008.21,-143.44"/>
<polygon fill="#63b8ff" stroke="#63b8ff" points="1011.11,-141.47 1002.18,-135.77 1005.6,-145.8 1011.11,-141.47"/>
</a>
</g>
</g>
<!-- Node29&#45;&gt;Node6 -->
<g id="edge58_Node000029_Node000006" class="edge">
<title>Node29&#45;&gt;Node6</title>
<g id="a_edge58_Node000029_Node000006"><a xlink:title=" ">
<path fill="none" stroke="#63b8ff" d="M1218.51,-169.85C1248.13,-147.86 1312.15,-93.58 1278.62,-56.75 1250.35,-25.68 971.78,-15.45 851.96,-12.47"/>
<polygon fill="#63b8ff" stroke="#63b8ff" points="852.13,-8.97 842.05,-12.23 851.96,-15.97 852.13,-8.97"/>
</a>
</g>
</g>
<!-- Node29&#45;&gt;Node9 -->
<g id="edge56_Node000029_Node000009" class="edge">
<title>Node29&#45;&gt;Node9</title>
<g id="a_edge56_Node000029_Node000009"><a xlink:title=" ">
<path fill="none" stroke="#63b8ff" d="M1195.94,-170.15C1182.41,-155.93 1154.93,-129.08 1126.62,-113.5 1096.03,-96.65 1058.29,-85.1 1028.98,-77.86"/>
<polygon fill="#63b8ff" stroke="#63b8ff" points="1029.8,-74.46 1019.26,-75.56 1028.18,-81.27 1029.8,-74.46"/>
</a>
</g>
</g>
<!-- Node29&#45;&gt;Node14 -->
<g id="edge59_Node000029_Node000014" class="edge">
<title>Node29&#45;&gt;Node14</title>
<g id="a_edge59_Node000029_Node000014"><a xlink:title=" ">
<path fill="none" stroke="#63b8ff" d="M1167.36,-172.8C1115,-163.21 1019.37,-145.7 959.33,-134.71"/>
<polygon fill="#63b8ff" stroke="#63b8ff" points="960.15,-131.3 949.68,-132.94 958.89,-138.19 960.15,-131.3"/>
</a>
</g>
</g>
<!-- Node29&#45;&gt;Node15 -->
<g id="edge55_Node000029_Node000015" class="edge">
<title>Node29&#45;&gt;Node15</title>
<g id="a_edge55_Node000029_Node000015"><a xlink:title=" ">
<path fill="none" stroke="#63b8ff" d="M1205.96,-169.89C1207.34,-156.27 1208.01,-131.23 1197.62,-113.5 1190.26,-100.92 1177.86,-90.93 1165.93,-83.56"/>
<polygon fill="#63b8ff" stroke="#63b8ff" points="1167.88,-80.64 1157.46,-78.73 1164.42,-86.72 1167.88,-80.64"/>
</a>
</g>
</g>
<!-- Node29&#45;&gt;Node16 -->
<g id="edge57_Node000029_Node000016" class="edge">
<title>Node29&#45;&gt;Node16</title>
<g id="a_edge57_Node000029_Node000016"><a xlink:title=" ">
<path fill="none" stroke="#63b8ff" d="M1214,-169.76C1221.48,-161.15 1231.4,-147.92 1235.62,-134.25 1240.27,-119.23 1236.7,-101.7 1232.27,-88.47"/>
<polygon fill="#63b8ff" stroke="#63b8ff" points="1235.55,-87.23 1228.72,-79.13 1229.01,-89.72 1235.55,-87.23"/>
</a>
</g>
</g>
<!-- Node30&#45;&gt;Node6 -->
<g id="edge62_Node000030_Node000006" class="edge">
<title>Node30&#45;&gt;Node6</title>
<g id="a_edge62_Node000030_Node000006"><a xlink:title=" ">
<path fill="none" stroke="#63b8ff" d="M1090.48,-113.47C1078.83,-98.85 1054.22,-70.86 1026.62,-56.75 971.29,-28.45 900.07,-17.77 851.86,-13.76"/>
<polygon fill="#63b8ff" stroke="#63b8ff" points="852.17,-10.27 841.93,-13.01 851.64,-17.25 852.17,-10.27"/>
</a>
</g>
</g>
<!-- Node30&#45;&gt;Node9 -->
<g id="edge61_Node000030_Node000009" class="edge">
<title>Node30&#45;&gt;Node9</title>
<g id="a_edge61_Node000030_Node000009"><a xlink:title=" ">
<path fill="none" stroke="#63b8ff" d="M1077.15,-113.21C1059.29,-104.78 1033.1,-92.42 1012.66,-82.78"/>
<polygon fill="#63b8ff" stroke="#63b8ff" points="1014.19,-79.62 1003.65,-78.52 1011.2,-85.95 1014.19,-79.62"/>
</a>
</g>
</g>
</g>
</svg>
