<?xml version="1.0" encoding="UTF-8" standalone="no"?>
<!DOCTYPE svg PUBLIC "-//W3C//DTD SVG 1.1//EN"
 "http://www.w3.org/Graphics/SVG/1.1/DTD/svg11.dtd">
<!-- Generated by graphviz version 14.1.5 (0)
 -->
<!-- Title: source/motor_configs.h Pages: 1 -->
<svg width="591pt" height="111pt"
 viewBox="0.00 0.00 591.00 111.00" xmlns="http://www.w3.org/2000/svg" xmlns:xlink="http://www.w3.org/1999/xlink">
<g id="graph0" class="graph" transform="scale(1 1) rotate(0) translate(4 107)">
<title>source/motor_configs.h</title>
<!-- Node1 -->
<g id="Node000001" class="node">
<title>Node1</title>
<g id="a_Node000001"><a xlink:title=" ">
<polygon fill="#999999" stroke="#666666" points="352.75,-103 223.5,-103 223.5,-82.25 352.75,-82.25 352.75,-103"/>
<text xml:space="preserve" text-anchor="middle" x="288.12" y="-89.5" font-family="Helvetica,sans-Serif" font-size="10.00">source/motor_configs.h</text>
</a>
</g>
</g>
<!-- Node2 -->
<g id="Node000002" class="node">
<title>Node2</title>
<g id="a_Node000002"><a xlink:href="grabber_8c.html" target="_top" xlink:title=" ">
<polygon fill="white" stroke="#666666" points="126.25,-39.88 0,-39.88 0,-6.38 126.25,-6.38 126.25,-39.88"/>
<text xml:space="preserve" text-anchor="start" x="8" y="-26.38" font-family="Helvetica,sans-Serif" font-size="10.00">source/motion/grabber</text>
<text xml:space="preserve" text-anchor="middle" x="63.12" y="-13.62" font-family="Helvetica,sans-Serif" font-size="10.00">/grabber.c</text>
</a>
</g>
</g>
<!-- Node1&#45;&gt;Node2 -->
<g id="edge1_Node000001_Node000002" class="edge">
<title>Node1&#45;&gt;Node2</title>
<g id="a_edge1_Node000001_Node000002"><a xlink:title=" ">
<path fill="none" stroke="#63b8ff" d="M243.93,-78.64C213.36,-69.63 171.74,-57.3 135.12,-46.25 128.74,-44.32 122.04,-42.28 115.41,-40.26"/>
<polygon fill="#63b8ff" stroke="#63b8ff" points="242.64,-81.91 253.22,-81.38 244.61,-75.2 242.64,-81.91"/>
</a>
</g>
</g>
<!-- Node3 -->
<g id="Node000003" class="node">
<title>Node3</title>
<g id="a_Node000003"><a xlink:href="motor__homing_8c.html" target="_top" xlink:title=" ">
<polygon fill="white" stroke="#666666" points="269.88,-39.88 144.38,-39.88 144.38,-6.38 269.88,-6.38 269.88,-39.88"/>
<text xml:space="preserve" text-anchor="start" x="152.38" y="-26.38" font-family="Helvetica,sans-Serif" font-size="10.00">source/motion/homing</text>
<text xml:space="preserve" text-anchor="middle" x="207.12" y="-13.62" font-family="Helvetica,sans-Serif" font-size="10.00">/motor_homing.c</text>
</a>
</g>
</g>
<!-- Node1&#45;&gt;Node3 -->
<g id="edge2_Node000001_Node000003" class="edge">
<title>Node1&#45;&gt;Node3</title>
<g id="a_edge2_Node000001_Node000003"><a xlink:title=" ">
<path fill="none" stroke="#63b8ff" d="M268.03,-74.88C255.36,-64.32 239.07,-50.75 226.53,-40.29"/>
<polygon fill="#63b8ff" stroke="#63b8ff" points="265.43,-77.27 275.36,-80.98 269.92,-71.89 265.43,-77.27"/>
</a>
</g>
</g>
<!-- Node4 -->
<g id="Node000004" class="node">
<title>Node4</title>
<g id="a_Node000004"><a xlink:href="scara__kinematics__process_8c.html" target="_top" xlink:title=" ">
<polygon fill="white" stroke="#666666" points="452,-46.25 288.25,-46.25 288.25,0 452,0 452,-46.25"/>
<text xml:space="preserve" text-anchor="start" x="296.25" y="-32.75" font-family="Helvetica,sans-Serif" font-size="10.00">source/motion/scara</text>
<text xml:space="preserve" text-anchor="start" x="296.25" y="-20" font-family="Helvetica,sans-Serif" font-size="10.00">_kinematics/scara_kinematics</text>
<text xml:space="preserve" text-anchor="middle" x="370.12" y="-7.25" font-family="Helvetica,sans-Serif" font-size="10.00">_process.c</text>
</a>
</g>
</g>
<!-- Node1&#45;&gt;Node4 -->
<g id="edge3_Node000001_Node000004" class="edge">
<title>Node1&#45;&gt;Node4</title>
<g id="a_edge3_Node000001_Node000004"><a xlink:title=" ">
<path fill="none" stroke="#63b8ff" d="M308.6,-74.77C318.95,-66.25 331.64,-55.8 342.81,-46.61"/>
<polygon fill="#63b8ff" stroke="#63b8ff" points="306.54,-71.93 301.04,-80.99 310.99,-77.34 306.54,-71.93"/>
</a>
</g>
</g>
<!-- Node5 -->
<g id="Node000005" class="node">
<title>Node5</title>
<g id="a_Node000005"><a xlink:href="motor__test_8c.html" target="_top" xlink:title=" ">
<polygon fill="white" stroke="#666666" points="582.5,-33.5 469.75,-33.5 469.75,-12.75 582.5,-12.75 582.5,-33.5"/>
<text xml:space="preserve" text-anchor="middle" x="526.12" y="-20" font-family="Helvetica,sans-Serif" font-size="10.00">source/motor_test.c</text>
</a>
</g>
</g>
<!-- Node1&#45;&gt;Node5 -->
<g id="edge4_Node000001_Node000005" class="edge">
<title>Node1&#45;&gt;Node5</title>
<g id="a_edge4_Node000001_Node000005"><a xlink:title=" ">
<path fill="none" stroke="#63b8ff" d="M339.68,-79.13C374.22,-70.51 420.61,-58.44 461.12,-46.25 473.57,-42.51 487.2,-37.94 498.75,-33.93"/>
<polygon fill="#63b8ff" stroke="#63b8ff" points="339.23,-75.63 330.37,-81.44 340.92,-82.43 339.23,-75.63"/>
</a>
</g>
</g>
</g>
</svg>
