<?xml version="1.0" encoding="UTF-8" standalone="no"?>
<!DOCTYPE svg PUBLIC "-//W3C//DTD SVG 1.1//EN"
 "http://www.w3.org/Graphics/SVG/1.1/DTD/svg11.dtd">
<!-- Generated by graphviz version 14.1.5 (0)
 -->
<!-- Title: source/motion/motor/motor_process.c Pages: 1 -->
<!--zoomable 439 -->

<svg id="main" version="1.1" xmlns="http://www.w3.org/2000/svg" xmlns:xlink="http://www.w3.org/1999/xlink" xml:space="preserve" onload="init(evt)">

<style type="text/css"><![CDATA[
.node, .edge {opacity: 0.7;}
.node.selected, .edge.selected {opacity: 1;}
.edge:hover path { stroke: red; }
.edge:hover polygon { stroke: red; fill: red; }
]]></style>

<defs>
  <circle id="rim" cx="0" cy="0" r="7"/>
  <circle id="rim2" cx="0" cy="0" r="3.5"/>
  <g id="zoomPlus">
    <use xlink:href="#rim" fill="#404040"><set attributeName="fill" to="#808080" begin="zoomplus.mouseover" end="zoomplus.mouseout"/></use>
    <path d="M-4,0h8M0,-4v8" fill="none" stroke="white" stroke-width="1.5" pointer-events="none"/>
  </g>
  <g id="zoomMin">
    <use xlink:href="#rim" fill="#404040"><set attributeName="fill" to="#808080" begin="zoomminus.mouseover" end="zoomminus.mouseout"/></use>
    <path d="M-4,0h8" fill="none" stroke="white" stroke-width="1.5" pointer-events="none"/>
  </g>
  <g id="arrowUp" transform="translate(30 24)">
    <use xlink:href="#rim"/>
    <path pointer-events="none" fill="none" stroke="white" stroke-width="1.5" d="M0,-3.0v7 M-2.5,-0.5L0,-3.0L2.5,-0.5"/>
  </g>
  <g id="arrowRight" transform="rotate(90) translate(36 -43)">
    <use xlink:href="#rim"/>
    <path pointer-events="none" fill="none" stroke="white" stroke-width="1.5" d="M0,-3.0v7 M-2.5,-0.5L0,-3.0L2.5,-0.5"/>
  </g>
  <g id="arrowDown" transform="rotate(180) translate(-30 -48)">
    <use xlink:href="#rim"/>
    <path pointer-events="none" fill="none" stroke="white" stroke-width="1.5" d="M0,-3.0v7 M-2.5,-0.5L0,-3.0L2.5,-0.5"/>
  </g>
  <g id="arrowLeft" transform="rotate(270) translate(-36 17)">
    <use xlink:href="#rim"/>
    <path pointer-events="none" fill="none" stroke="white" stroke-width="1.5" d="M0,-3.0v7 M-2.5,-0.5L0,-3.0L2.5,-0.5"/>
  </g>
  <g id="resetDef">
    <use xlink:href="#rim2" fill="#404040"><set attributeName="fill" to="#808080" begin="reset.mouseover" end="reset.mouseout"/></use>
  </g>
</defs>
<script type="application/ecmascript">
var viewWidth = 1482;
var viewHeight = 439;
var sectionId = 'dynsection-0';
</script>
<script type="application/ecmascript" xlink:href="svg.min.js"/>
<svg id="graph" class="graph">
<g id="viewport">
<title>source/motion/motor/motor_process.c</title>
<!-- Node1 -->
<g id="Node000001" class="node">
<title>Node1</title>
<g id="a_Node000001"><a xlink:title=" ">
<polygon fill="#999999" stroke="#666666" points="400.12,-430.75 282.12,-430.75 282.12,-397.25 400.12,-397.25 400.12,-430.75"/>
<text xml:space="preserve" text-anchor="start" x="290.12" y="-417.25" font-family="Helvetica,sans-Serif" font-size="10.00">source/motion/motor</text>
<text xml:space="preserve" text-anchor="middle" x="341.12" y="-404.5" font-family="Helvetica,sans-Serif" font-size="10.00">/motor_process.c</text>
</a>
</g>
</g>
<!-- Node2 -->
<g id="Node000002" class="node">
<title>Node2</title>
<g id="a_Node000002"><a xlink:href="motor__process_8h.html" target="_top" xlink:title=" ">
<polygon fill="white" stroke="#666666" points="495.62,-361.25 398.62,-361.25 398.62,-340.5 495.62,-340.5 495.62,-361.25"/>
<text xml:space="preserve" text-anchor="middle" x="447.12" y="-347.75" font-family="Helvetica,sans-Serif" font-size="10.00">motor_process.h</text>
</a>
</g>
</g>
<!-- Node1&#45;&gt;Node2 -->
<g id="edge1_Node000001_Node000002" class="edge">
<title>Node1&#45;&gt;Node2</title>
<g id="a_edge1_Node000001_Node000002"><a xlink:title=" ">
<path fill="none" stroke="#63b8ff" d="M369.25,-396.78C385.15,-387.61 404.91,-376.22 420.55,-367.2"/>
<polygon fill="#63b8ff" stroke="#63b8ff" points="421.92,-370.45 428.83,-362.42 418.42,-364.38 421.92,-370.45"/>
</a>
</g>
</g>
<!-- Node26 -->
<g id="Node000026" class="node">
<title>Node26</title>
<g id="a_Node000026"><a xlink:href="motor__init_8h.html" target="_top" xlink:title=" ">
<polygon fill="white" stroke="#666666" points="689.75,-361.25 614.5,-361.25 614.5,-340.5 689.75,-340.5 689.75,-361.25"/>
<text xml:space="preserve" text-anchor="middle" x="652.12" y="-347.75" font-family="Helvetica,sans-Serif" font-size="10.00">motor_init.h</text>
</a>
</g>
</g>
<!-- Node1&#45;&gt;Node26 -->
<g id="edge46_Node000001_Node000026" class="edge">
<title>Node1&#45;&gt;Node26</title>
<g id="a_edge46_Node000001_Node000026"><a xlink:title=" ">
<path fill="none" stroke="#63b8ff" d="M400.37,-401.44C451.38,-391.48 527.27,-376.63 602.99,-361.67"/>
<polygon fill="#63b8ff" stroke="#63b8ff" points="603.54,-365.13 612.67,-359.75 602.19,-358.26 603.54,-365.13"/>
</a>
</g>
</g>
<!-- Node27 -->
<g id="Node000027" class="node">
<title>Node27</title>
<g id="a_Node000027"><a xlink:href="motor__motion_8h.html" target="_top" xlink:title=" ">
<polygon fill="white" stroke="#666666" points="284.12,-361.25 190.12,-361.25 190.12,-340.5 284.12,-340.5 284.12,-361.25"/>
<text xml:space="preserve" text-anchor="middle" x="237.12" y="-347.75" font-family="Helvetica,sans-Serif" font-size="10.00">motor_motion.h</text>
</a>
</g>
</g>
<!-- Node1&#45;&gt;Node27 -->
<g id="edge49_Node000001_Node000027" class="edge">
<title>Node1&#45;&gt;Node27</title>
<g id="a_edge49_Node000001_Node000027"><a xlink:title=" ">
<path fill="none" stroke="#63b8ff" d="M313.53,-396.78C298.07,-387.7 278.91,-376.43 263.64,-367.46"/>
<polygon fill="#63b8ff" stroke="#63b8ff" points="265.48,-364.48 255.08,-362.43 261.93,-370.52 265.48,-364.48"/>
</a>
</g>
</g>
<!-- Node28 -->
<g id="Node000028" class="node">
<title>Node28</title>
<g id="a_Node000028"><a xlink:href="motor__sync_8h.html" target="_top" xlink:title=" ">
<polygon fill="white" stroke="#666666" points="596.12,-361.25 514.12,-361.25 514.12,-340.5 596.12,-340.5 596.12,-361.25"/>
<text xml:space="preserve" text-anchor="middle" x="555.12" y="-347.75" font-family="Helvetica,sans-Serif" font-size="10.00">motor_sync.h</text>
</a>
</g>
</g>
<!-- Node1&#45;&gt;Node28 -->
<g id="edge52_Node000001_Node000028" class="edge">
<title>Node1&#45;&gt;Node28</title>
<g id="a_edge52_Node000001_Node000028"><a xlink:title=" ">
<path fill="none" stroke="#63b8ff" d="M397.91,-396.78C432.91,-386.78 477.18,-374.14 509.82,-364.81"/>
<polygon fill="#63b8ff" stroke="#63b8ff" points="510.74,-368.19 519.39,-362.08 508.81,-361.46 510.74,-368.19"/>
</a>
</g>
</g>
<!-- Node29 -->
<g id="Node000029" class="node">
<title>Node29</title>
<g id="a_Node000029"><a xlink:href="motor__tmc_8h.html" target="_top" xlink:title=" ">
<polygon fill="white" stroke="#666666" points="380.25,-361.25 302,-361.25 302,-340.5 380.25,-340.5 380.25,-361.25"/>
<text xml:space="preserve" text-anchor="middle" x="341.12" y="-347.75" font-family="Helvetica,sans-Serif" font-size="10.00">motor_tmc.h</text>
</a>
</g>
</g>
<!-- Node1&#45;&gt;Node29 -->
<g id="edge55_Node000001_Node000029" class="edge">
<title>Node1&#45;&gt;Node29</title>
<g id="a_edge55_Node000001_Node000029"><a xlink:title=" ">
<path fill="none" stroke="#63b8ff" d="M341.12,-396.94C341.12,-389.6 341.12,-380.82 341.12,-372.96"/>
<polygon fill="#63b8ff" stroke="#63b8ff" points="344.62,-373.23 341.12,-363.23 337.62,-373.23 344.62,-373.23"/>
</a>
</g>
</g>
<!-- Node30 -->
<g id="Node000030" class="node">
<title>Node30</title>
<g id="a_Node000030"><a xlink:href="cmd__dispatch_8h.html" target="_top" xlink:title=" ">
<polygon fill="white" stroke="#666666" points="420.37,-191 327.87,-191 327.87,-170.25 420.37,-170.25 420.37,-191"/>
<text xml:space="preserve" text-anchor="middle" x="374.12" y="-177.5" font-family="Helvetica,sans-Serif" font-size="10.00">cmd_dispatch.h</text>
</a>
</g>
</g>
<!-- Node1&#45;&gt;Node30 -->
<g id="edge59_Node000001_Node000030" class="edge">
<title>Node1&#45;&gt;Node30</title>
<g id="a_edge59_Node000001_Node000030"><a xlink:title=" ">
<path fill="none" stroke="#63b8ff" d="M281.63,-410.38C246.26,-405.39 203.97,-392.65 181.12,-361.25 175.7,-353.79 179.39,-349.56 181.12,-340.5 191.3,-287.2 186.25,-263.81 226.12,-227 250.64,-204.37 286.18,-193.02 316.29,-187.33"/>
<polygon fill="#63b8ff" stroke="#63b8ff" points="316.77,-190.8 326.04,-185.67 315.59,-183.9 316.77,-190.8"/>
</a>
</g>
</g>
<!-- Node31 -->
<g id="Node000031" class="node">
<title>Node31</title>
<g id="a_Node000031"><a xlink:href="sync__wait_8h.html" target="_top" xlink:title=" ">
<polygon fill="white" stroke="#666666" points="158,-191 84.25,-191 84.25,-170.25 158,-170.25 158,-191"/>
<text xml:space="preserve" text-anchor="middle" x="121.12" y="-177.5" font-family="Helvetica,sans-Serif" font-size="10.00">sync_wait.h</text>
</a>
</g>
</g>
<!-- Node1&#45;&gt;Node31 -->
<g id="edge64_Node000001_Node000031" class="edge">
<title>Node1&#45;&gt;Node31</title>
<g id="a_edge64_Node000001_Node000031"><a xlink:title=" ">
<path fill="none" stroke="#63b8ff" d="M281.74,-408.48C246.11,-402.74 202.37,-389.88 174.12,-361.25 130.82,-317.35 122.59,-239.92 121.23,-202.73"/>
<polygon fill="#63b8ff" stroke="#63b8ff" points="124.73,-202.81 121.02,-192.88 117.73,-202.96 124.73,-202.81"/>
</a>
</g>
</g>
<!-- Node32 -->
<g id="Node000032" class="node">
<title>Node32</title>
<g id="a_Node000032"><a xlink:href="log_8h.html" target="_top" xlink:title=" ">
<polygon fill="white" stroke="#666666" points="54.12,-134.25 14.12,-134.25 14.12,-113.5 54.12,-113.5 54.12,-134.25"/>
<text xml:space="preserve" text-anchor="middle" x="34.12" y="-120.75" font-family="Helvetica,sans-Serif" font-size="10.00">log.h</text>
</a>
</g>
</g>
<!-- Node1&#45;&gt;Node32 -->
<g id="edge70_Node000001_Node000032" class="edge">
<title>Node1&#45;&gt;Node32</title>
<g id="a_edge70_Node000001_Node000032"><a xlink:title=" ">
<path fill="none" stroke="#63b8ff" d="M281.89,-402.06C194.98,-384.29 43.12,-345.96 43.12,-295.12 43.12,-295.12 43.12,-295.12 43.12,-236.38 43.12,-204.73 39.48,-168.2 36.83,-145.82"/>
<polygon fill="#63b8ff" stroke="#63b8ff" points="40.34,-145.69 35.64,-136.2 33.39,-146.55 40.34,-145.69"/>
</a>
</g>
</g>
<!-- Node33 -->
<g id="Node000033" class="node">
<title>Node33</title>
<g id="a_Node000033"><a xlink:title=" ">
<polygon fill="#e0e0e0" stroke="#999999" points="756.62,-361.25 707.62,-361.25 707.62,-340.5 756.62,-340.5 756.62,-361.25"/>
<text xml:space="preserve" text-anchor="middle" x="732.12" y="-347.75" font-family="Helvetica,sans-Serif" font-size="10.00">stdio.h</text>
</a>
</g>
</g>
<!-- Node1&#45;&gt;Node33 -->
<g id="edge73_Node000001_Node000033" class="edge">
<title>Node1&#45;&gt;Node33</title>
<g id="a_edge73_Node000001_Node000033"><a xlink:title=" ">
<path fill="none" stroke="#63b8ff" d="M400.46,-406.87C469.46,-399.21 586.9,-384.48 696.12,-361.67"/>
<polygon fill="#63b8ff" stroke="#63b8ff" points="696.81,-365.11 705.86,-359.61 695.36,-358.26 696.81,-365.11"/>
</a>
</g>
</g>
<!-- Node3 -->
<g id="Node000003" class="node">
<title>Node3</title>
<g id="a_Node000003"><a xlink:href="motor__internal_8h.html" target="_top" xlink:title=" ">
<polygon fill="white" stroke="#666666" points="495.62,-304.5 398.62,-304.5 398.62,-283.75 495.62,-283.75 495.62,-304.5"/>
<text xml:space="preserve" text-anchor="middle" x="447.12" y="-291" font-family="Helvetica,sans-Serif" font-size="10.00">motor_internal.h</text>
</a>
</g>
</g>
<!-- Node2&#45;&gt;Node3 -->
<g id="edge2_Node000002_Node000003" class="edge">
<title>Node2&#45;&gt;Node3</title>
<g id="a_edge2_Node000002_Node000003"><a xlink:title=" ">
<path fill="none" stroke="#63b8ff" d="M447.12,-340.09C447.12,-333.47 447.12,-324.47 447.12,-316.27"/>
<polygon fill="#63b8ff" stroke="#63b8ff" points="450.62,-316.34 447.12,-306.34 443.62,-316.34 450.62,-316.34"/>
</a>
</g>
</g>
<!-- Node4 -->
<g id="Node000004" class="node">
<title>Node4</title>
<g id="a_Node000004"><a xlink:title=" ">
<polygon fill="#e0e0e0" stroke="#999999" points="550.5,-77.5 497.75,-77.5 497.75,-56.75 550.5,-56.75 550.5,-77.5"/>
<text xml:space="preserve" text-anchor="middle" x="524.12" y="-64" font-family="Helvetica,sans-Serif" font-size="10.00">stdint.h</text>
</a>
</g>
</g>
<!-- Node3&#45;&gt;Node4 -->
<g id="edge3_Node000003_Node000004" class="edge">
<title>Node3&#45;&gt;Node4</title>
<g id="a_edge3_Node000003_Node000004"><a xlink:title=" ">
<path fill="none" stroke="#63b8ff" d="M453.38,-283.41C464.48,-265.73 487.62,-226.83 500.12,-191 512.2,-156.4 518.78,-114.07 521.86,-89.21"/>
<polygon fill="#63b8ff" stroke="#63b8ff" points="525.32,-89.77 522.99,-79.44 518.37,-88.97 525.32,-89.77"/>
</a>
</g>
</g>
<!-- Node5 -->
<g id="Node000005" class="node">
<title>Node5</title>
<g id="a_Node000005"><a xlink:title=" ">
<polygon fill="#e0e0e0" stroke="#999999" points="295.62,-247.75 234.62,-247.75 234.62,-227 295.62,-227 295.62,-247.75"/>
<text xml:space="preserve" text-anchor="middle" x="265.12" y="-234.25" font-family="Helvetica,sans-Serif" font-size="10.00">stdbool.h</text>
</a>
</g>
</g>
<!-- Node3&#45;&gt;Node5 -->
<g id="edge4_Node000003_Node000005" class="edge">
<title>Node3&#45;&gt;Node5</title>
<g id="a_edge4_Node000003_Node000005"><a xlink:title=" ">
<path fill="none" stroke="#63b8ff" d="M414.58,-283.34C384.49,-274.28 339.61,-260.78 306.89,-250.94"/>
<polygon fill="#63b8ff" stroke="#63b8ff" points="307.9,-247.59 297.31,-248.06 305.88,-254.29 307.9,-247.59"/>
</a>
</g>
</g>
<!-- Node6 -->
<g id="Node000006" class="node">
<title>Node6</title>
<g id="a_Node000006"><a xlink:href="motor__core_8h.html" target="_top" xlink:title=" ">
<polygon fill="white" stroke="#666666" points="916.37,-247.75 835.87,-247.75 835.87,-227 916.37,-227 916.37,-247.75"/>
<text xml:space="preserve" text-anchor="middle" x="876.12" y="-234.25" font-family="Helvetica,sans-Serif" font-size="10.00">motor_core.h</text>
</a>
</g>
</g>
<!-- Node3&#45;&gt;Node6 -->
<g id="edge5_Node000003_Node000006" class="edge">
<title>Node3&#45;&gt;Node6</title>
<g id="a_edge5_Node000003_Node000006"><a xlink:title=" ">
<path fill="none" stroke="#63b8ff" d="M495.92,-286.9C577.51,-276.48 740.88,-255.63 824.39,-244.98"/>
<polygon fill="#63b8ff" stroke="#63b8ff" points="824.65,-248.47 834.13,-243.73 823.76,-241.53 824.65,-248.47"/>
</a>
</g>
</g>
<!-- Node12 -->
<g id="Node000012" class="node">
<title>Node12</title>
<g id="a_Node000012"><a xlink:title=" ">
<polygon fill="#e0e0e0" stroke="#999999" points="237.87,-77.5 166.37,-77.5 166.37,-56.75 237.87,-56.75 237.87,-77.5"/>
<text xml:space="preserve" text-anchor="middle" x="202.12" y="-64" font-family="Helvetica,sans-Serif" font-size="10.00">FreeRTOS.h</text>
</a>
</g>
</g>
<!-- Node3&#45;&gt;Node12 -->
<g id="edge43_Node000003_Node000012" class="edge">
<title>Node3&#45;&gt;Node12</title>
<g id="a_edge43_Node000003_Node000012"><a xlink:title=" ">
<path fill="none" stroke="#63b8ff" d="M426.13,-283.31C382.97,-262.13 283.66,-207.97 228.12,-134.25 217.9,-120.69 211.16,-102.59 207.1,-88.75"/>
<polygon fill="#63b8ff" stroke="#63b8ff" points="210.56,-88.14 204.6,-79.38 203.8,-89.94 210.56,-88.14"/>
</a>
</g>
</g>
<!-- Node17 -->
<g id="Node000017" class="node">
<title>Node17</title>
<g id="a_Node000017"><a xlink:href="cmd__handle_8h.html" target="_top" xlink:title=" ">
<polygon fill="white" stroke="#666666" points="346.25,-134.25 262,-134.25 262,-113.5 346.25,-113.5 346.25,-134.25"/>
<text xml:space="preserve" text-anchor="middle" x="304.12" y="-120.75" font-family="Helvetica,sans-Serif" font-size="10.00">cmd_handle.h</text>
</a>
</g>
</g>
<!-- Node3&#45;&gt;Node17 -->
<g id="edge45_Node000003_Node000017" class="edge">
<title>Node3&#45;&gt;Node17</title>
<g id="a_edge45_Node000003_Node000017"><a xlink:title=" ">
<path fill="none" stroke="#63b8ff" d="M437.98,-283.55C424.92,-270.12 399.87,-245.3 376.12,-227 352.39,-208.71 336.42,-215.47 319.12,-191 309.76,-177.75 306.13,-159.6 304.77,-145.67"/>
<polygon fill="#63b8ff" stroke="#63b8ff" points="308.28,-145.6 304.16,-135.83 301.29,-146.03 308.28,-145.6"/>
</a>
</g>
</g>
<!-- Node25 -->
<g id="Node000025" class="node">
<title>Node25</title>
<g id="a_Node000025"><a xlink:title=" ">
<polygon fill="#e0e0e0" stroke="#999999" points="457.62,-134.25 402.62,-134.25 402.62,-113.5 457.62,-113.5 457.62,-134.25"/>
<text xml:space="preserve" text-anchor="middle" x="430.12" y="-120.75" font-family="Helvetica,sans-Serif" font-size="10.00">queue.h</text>
</a>
</g>
</g>
<!-- Node3&#45;&gt;Node25 -->
<g id="edge44_Node000003_Node000025" class="edge">
<title>Node3&#45;&gt;Node25</title>
<g id="a_edge44_Node000003_Node000025"><a xlink:title=" ">
<path fill="none" stroke="#63b8ff" d="M446.16,-283.6C443.5,-257.23 435.98,-182.83 432.26,-146.03"/>
<polygon fill="#63b8ff" stroke="#63b8ff" points="435.76,-145.82 431.27,-136.22 428.79,-146.52 435.76,-145.82"/>
</a>
</g>
</g>
<!-- Node7 -->
<g id="Node000007" class="node">
<title>Node7</title>
<g id="a_Node000007"><a xlink:href="pca9555a_8h.html" target="_top" xlink:title=" ">
<polygon fill="white" stroke="#666666" points="1316.12,-77.5 1162.12,-77.5 1162.12,-56.75 1316.12,-56.75 1316.12,-77.5"/>
<text xml:space="preserve" text-anchor="middle" x="1239.12" y="-64" font-family="Helvetica,sans-Serif" font-size="10.00">driver/pca9555a/pca9555a.h</text>
</a>
</g>
</g>
<!-- Node6&#45;&gt;Node7 -->
<g id="edge6_Node000006_Node000007" class="edge">
<title>Node6&#45;&gt;Node7</title>
<g id="a_edge6_Node000006_Node000007"><a xlink:title=" ">
<path fill="none" stroke="#63b8ff" d="M916.77,-228.51C976.04,-215.72 1088.04,-186.43 1170.12,-134.25 1190.8,-121.11 1210.58,-101.13 1223.62,-86.57"/>
<polygon fill="#63b8ff" stroke="#63b8ff" points="1226.23,-88.89 1230.16,-79.05 1220.95,-84.3 1226.23,-88.89"/>
</a>
</g>
</g>
<!-- Node10 -->
<g id="Node000010" class="node">
<title>Node10</title>
<g id="a_Node000010"><a xlink:title=" ">
<polygon fill="#e0e0e0" stroke="#999999" points="848.5,-191 759.75,-191 759.75,-170.25 848.5,-170.25 848.5,-191"/>
<text xml:space="preserve" text-anchor="middle" x="804.12" y="-177.5" font-family="Helvetica,sans-Serif" font-size="10.00">MK22F51212.h</text>
</a>
</g>
</g>
<!-- Node6&#45;&gt;Node10 -->
<g id="edge9_Node000006_Node000010" class="edge">
<title>Node6&#45;&gt;Node10</title>
<g id="a_edge9_Node000006_Node000010"><a xlink:title=" ">
<path fill="none" stroke="#63b8ff" d="M863.25,-226.59C852.91,-218.72 838.15,-207.5 825.97,-198.24"/>
<polygon fill="#63b8ff" stroke="#63b8ff" points="828.17,-195.51 818.09,-192.24 823.93,-201.08 828.17,-195.51"/>
</a>
</g>
</g>
<!-- Node11 -->
<g id="Node000011" class="node">
<title>Node11</title>
<g id="a_Node000011"><a xlink:href="step__core_8h.html" target="_top" xlink:title=" ">
<polygon fill="white" stroke="#666666" points="1014.25,-191 942,-191 942,-170.25 1014.25,-170.25 1014.25,-191"/>
<text xml:space="preserve" text-anchor="middle" x="978.12" y="-177.5" font-family="Helvetica,sans-Serif" font-size="10.00">step_core.h</text>
</a>
</g>
</g>
<!-- Node6&#45;&gt;Node11 -->
<g id="edge10_Node000006_Node000011" class="edge">
<title>Node6&#45;&gt;Node11</title>
<g id="a_edge10_Node000006_Node000011"><a xlink:title=" ">
<path fill="none" stroke="#63b8ff" d="M894.36,-226.59C909.81,-218.3 932.21,-206.27 949.96,-196.74"/>
<polygon fill="#63b8ff" stroke="#63b8ff" points="951.56,-199.86 958.71,-192.04 948.24,-193.69 951.56,-199.86"/>
</a>
</g>
</g>
<!-- Node14 -->
<g id="Node000014" class="node">
<title>Node14</title>
<g id="a_Node000014"><a xlink:title=" ">
<polygon fill="#e0e0e0" stroke="#999999" points="1474.5,-77.5 1415.75,-77.5 1415.75,-56.75 1474.5,-56.75 1474.5,-77.5"/>
<text xml:space="preserve" text-anchor="middle" x="1445.12" y="-64" font-family="Helvetica,sans-Serif" font-size="10.00">fsl_ftm.h</text>
</a>
</g>
</g>
<!-- Node6&#45;&gt;Node14 -->
<g id="edge40_Node000006_Node000014" class="edge">
<title>Node6&#45;&gt;Node14</title>
<g id="a_edge40_Node000006_Node000014"><a xlink:title=" ">
<path fill="none" stroke="#63b8ff" d="M916.46,-231.85C967.73,-225.51 1058.62,-212.32 1134.12,-191 1239.93,-161.13 1359.38,-108.21 1414.39,-82.69"/>
<polygon fill="#63b8ff" stroke="#63b8ff" points="1415.56,-86.01 1423.14,-78.61 1412.6,-79.67 1415.56,-86.01"/>
</a>
</g>
</g>
<!-- Node15 -->
<g id="Node000015" class="node">
<title>Node15</title>
<g id="a_Node000015"><a xlink:title=" ">
<polygon fill="#e0e0e0" stroke="#999999" points="1397.75,-77.5 1334.5,-77.5 1334.5,-56.75 1397.75,-56.75 1397.75,-77.5"/>
<text xml:space="preserve" text-anchor="middle" x="1366.12" y="-64" font-family="Helvetica,sans-Serif" font-size="10.00">fsl_gpio.h</text>
</a>
</g>
</g>
<!-- Node6&#45;&gt;Node15 -->
<g id="edge41_Node000006_Node000015" class="edge">
<title>Node6&#45;&gt;Node15</title>
<g id="a_edge41_Node000006_Node000015"><a xlink:title=" ">
<path fill="none" stroke="#63b8ff" d="M916.61,-230.53C960.52,-223.59 1032.36,-210.43 1092.12,-191 1185.23,-160.73 1289.18,-108.75 1337.97,-83.2"/>
<polygon fill="#63b8ff" stroke="#63b8ff" points="1339.51,-86.34 1346.72,-78.58 1336.24,-80.15 1339.51,-86.34"/>
</a>
</g>
</g>
<!-- Node16 -->
<g id="Node000016" class="node">
<title>Node16</title>
<g id="a_Node000016"><a xlink:title=" ">
<polygon fill="#e0e0e0" stroke="#999999" points="966,-77.5 904.25,-77.5 904.25,-56.75 966,-56.75 966,-77.5"/>
<text xml:space="preserve" text-anchor="middle" x="935.12" y="-64" font-family="Helvetica,sans-Serif" font-size="10.00">fsl_port.h</text>
</a>
</g>
</g>
<!-- Node6&#45;&gt;Node16 -->
<g id="edge42_Node000006_Node000016" class="edge">
<title>Node6&#45;&gt;Node16</title>
<g id="a_edge42_Node000006_Node000016"><a xlink:title=" ">
<path fill="none" stroke="#63b8ff" d="M879.46,-226.85C888.75,-200.37 915.03,-125.43 927.87,-88.8"/>
<polygon fill="#63b8ff" stroke="#63b8ff" points="931.16,-89.99 931.17,-79.4 924.56,-87.67 931.16,-89.99"/>
</a>
</g>
</g>
<!-- Node22 -->
<g id="Node000022" class="node">
<title>Node22</title>
<g id="a_Node000022"><a xlink:href="tmc2209__core_8h.html" target="_top" xlink:title=" ">
<polygon fill="white" stroke="#666666" points="742.12,-191 648.12,-191 648.12,-170.25 742.12,-170.25 742.12,-191"/>
<text xml:space="preserve" text-anchor="middle" x="695.12" y="-177.5" font-family="Helvetica,sans-Serif" font-size="10.00">tmc2209_core.h</text>
</a>
</g>
</g>
<!-- Node6&#45;&gt;Node22 -->
<g id="edge32_Node000006_Node000022" class="edge">
<title>Node6&#45;&gt;Node22</title>
<g id="a_edge32_Node000006_Node000022"><a xlink:title=" ">
<path fill="none" stroke="#63b8ff" d="M843.76,-226.59C814.38,-217.7 770.83,-204.52 738.45,-194.73"/>
<polygon fill="#63b8ff" stroke="#63b8ff" points="739.54,-191.4 728.95,-191.86 737.51,-198.1 739.54,-191.4"/>
</a>
</g>
</g>
<!-- Node8 -->
<g id="Node000008" class="node">
<title>Node8</title>
<g id="a_Node000008"><a xlink:title=" ">
<polygon fill="#e0e0e0" stroke="#999999" points="842.62,-20.75 757.62,-20.75 757.62,0 842.62,0 842.62,-20.75"/>
<text xml:space="preserve" text-anchor="middle" x="800.12" y="-7.25" font-family="Helvetica,sans-Serif" font-size="10.00">fsl_common.h</text>
</a>
</g>
</g>
<!-- Node7&#45;&gt;Node8 -->
<g id="edge7_Node000007_Node000008" class="edge">
<title>Node7&#45;&gt;Node8</title>
<g id="a_edge7_Node000007_Node000008"><a xlink:title=" ">
<path fill="none" stroke="#63b8ff" d="M1161.65,-56.46C1073.38,-45.45 931.42,-27.75 854.27,-18.13"/>
<polygon fill="#63b8ff" stroke="#63b8ff" points="854.77,-14.66 844.42,-16.9 853.91,-21.61 854.77,-14.66"/>
</a>
</g>
</g>
<!-- Node9 -->
<g id="Node000009" class="node">
<title>Node9</title>
<g id="a_Node000009"><a xlink:title=" ">
<polygon fill="#e0e0e0" stroke="#999999" points="1109,-20.75 1029.25,-20.75 1029.25,0 1109,0 1109,-20.75"/>
<text xml:space="preserve" text-anchor="middle" x="1069.12" y="-7.25" font-family="Helvetica,sans-Serif" font-size="10.00">peripherals.h</text>
</a>
</g>
</g>
<!-- Node7&#45;&gt;Node9 -->
<g id="edge8_Node000007_Node000009" class="edge">
<title>Node7&#45;&gt;Node9</title>
<g id="a_edge8_Node000007_Node000009"><a xlink:title=" ">
<path fill="none" stroke="#63b8ff" d="M1208.73,-56.34C1181.26,-47.49 1140.58,-34.39 1110.22,-24.61"/>
<polygon fill="#63b8ff" stroke="#63b8ff" points="1111.57,-21.37 1100.98,-21.63 1109.42,-28.03 1111.57,-21.37"/>
</a>
</g>
</g>
<!-- Node11&#45;&gt;Node7 -->
<g id="edge11_Node000011_Node000007" class="edge">
<title>Node11&#45;&gt;Node7</title>
<g id="a_edge11_Node000011_Node000007"><a xlink:title=" ">
<path fill="none" stroke="#63b8ff" d="M1014.57,-172.47C1047.51,-165.25 1096.88,-152.54 1137.12,-134.25 1166.71,-120.8 1197.6,-99.61 1217.53,-84.85"/>
<polygon fill="#63b8ff" stroke="#63b8ff" points="1219.55,-87.72 1225.43,-78.9 1215.33,-82.13 1219.55,-87.72"/>
</a>
</g>
</g>
<!-- Node11&#45;&gt;Node8 -->
<g id="edge14_Node000011_Node000008" class="edge">
<title>Node11&#45;&gt;Node8</title>
<g id="a_edge14_Node000011_Node000008"><a xlink:title=" ">
<path fill="none" stroke="#63b8ff" d="M967.78,-169.85C938.66,-142.32 855.64,-63.86 818.49,-28.74"/>
<polygon fill="#63b8ff" stroke="#63b8ff" points="821.26,-26.54 811.59,-22.21 816.45,-31.63 821.26,-26.54"/>
</a>
</g>
</g>
<!-- Node11&#45;&gt;Node12 -->
<g id="edge12_Node000011_Node000012" class="edge">
<title>Node11&#45;&gt;Node12</title>
<g id="a_edge12_Node000011_Node000012"><a xlink:title=" ">
<path fill="none" stroke="#63b8ff" d="M941.53,-174.5C881.93,-166.14 760.19,-149.02 657.12,-134.25 508.23,-112.91 332.01,-87.16 249.36,-75.05"/>
<polygon fill="#63b8ff" stroke="#63b8ff" points="249.99,-71.61 239.59,-73.62 248.98,-78.53 249.99,-71.61"/>
</a>
</g>
</g>
<!-- Node13 -->
<g id="Node000013" class="node">
<title>Node13</title>
<g id="a_Node000013"><a xlink:title=" ">
<polygon fill="#e0e0e0" stroke="#999999" points="1026.12,-134.25 980.12,-134.25 980.12,-113.5 1026.12,-113.5 1026.12,-134.25"/>
<text xml:space="preserve" text-anchor="middle" x="1003.12" y="-120.75" font-family="Helvetica,sans-Serif" font-size="10.00">task.h</text>
</a>
</g>
</g>
<!-- Node11&#45;&gt;Node13 -->
<g id="edge13_Node000011_Node000013" class="edge">
<title>Node11&#45;&gt;Node13</title>
<g id="a_edge13_Node000011_Node000013"><a xlink:title=" ">
<path fill="none" stroke="#63b8ff" d="M982.59,-169.84C985.76,-162.91 990.11,-153.37 993.99,-144.86"/>
<polygon fill="#63b8ff" stroke="#63b8ff" points="997.09,-146.51 998.06,-135.96 990.73,-143.6 997.09,-146.51"/>
</a>
</g>
</g>
<!-- Node11&#45;&gt;Node14 -->
<g id="edge15_Node000011_Node000014" class="edge">
<title>Node11&#45;&gt;Node14</title>
<g id="a_edge15_Node000011_Node000014"><a xlink:title=" ">
<path fill="none" stroke="#63b8ff" d="M1014.38,-173.84C1061.41,-166.09 1145.86,-151.31 1217.12,-134.25 1283.45,-118.37 1359.29,-95.39 1404.64,-81.13"/>
<polygon fill="#63b8ff" stroke="#63b8ff" points="1405.56,-84.51 1414.04,-78.15 1403.45,-77.83 1405.56,-84.51"/>
</a>
</g>
</g>
<!-- Node11&#45;&gt;Node15 -->
<g id="edge16_Node000011_Node000015" class="edge">
<title>Node11&#45;&gt;Node15</title>
<g id="a_edge16_Node000011_Node000015"><a xlink:title=" ">
<path fill="none" stroke="#63b8ff" d="M1014.48,-172.09C1053.28,-163.81 1116.45,-149.61 1170.12,-134.25 1226.18,-118.21 1289.97,-95.92 1329.13,-81.76"/>
<polygon fill="#63b8ff" stroke="#63b8ff" points="1330.11,-85.12 1338.32,-78.42 1327.72,-78.54 1330.11,-85.12"/>
</a>
</g>
</g>
<!-- Node11&#45;&gt;Node16 -->
<g id="edge17_Node000011_Node000016" class="edge">
<title>Node11&#45;&gt;Node16</title>
<g id="a_edge17_Node000011_Node000016"><a xlink:title=" ">
<path fill="none" stroke="#63b8ff" d="M974.46,-170.12C967.51,-152.11 952.29,-112.64 942.95,-88.43"/>
<polygon fill="#63b8ff" stroke="#63b8ff" points="946.31,-87.41 939.45,-79.34 939.78,-89.93 946.31,-87.41"/>
</a>
</g>
</g>
<!-- Node11&#45;&gt;Node17 -->
<g id="edge18_Node000011_Node000017" class="edge">
<title>Node11&#45;&gt;Node17</title>
<g id="a_edge18_Node000011_Node000017"><a xlink:title=" ">
<path fill="none" stroke="#63b8ff" d="M941.63,-176.8C814.88,-166.97 400.98,-134.87 394.12,-134.25 382.38,-133.18 369.8,-131.94 357.87,-130.71"/>
<polygon fill="#63b8ff" stroke="#63b8ff" points="358.49,-127.25 348.18,-129.7 357.77,-134.22 358.49,-127.25"/>
</a>
</g>
</g>
<!-- Node20 -->
<g id="Node000020" class="node">
<title>Node20</title>
<g id="a_Node000020"><a xlink:href="step__shared_8h.html" target="_top" xlink:title=" ">
<polygon fill="white" stroke="#666666" points="1128.25,-134.25 1044,-134.25 1044,-113.5 1128.25,-113.5 1128.25,-134.25"/>
<text xml:space="preserve" text-anchor="middle" x="1086.12" y="-120.75" font-family="Helvetica,sans-Serif" font-size="10.00">step_shared.h</text>
</a>
</g>
</g>
<!-- Node11&#45;&gt;Node20 -->
<g id="edge24_Node000011_Node000020" class="edge">
<title>Node11&#45;&gt;Node20</title>
<g id="a_edge24_Node000011_Node000020"><a xlink:title=" ">
<path fill="none" stroke="#63b8ff" d="M997.43,-169.84C1013.94,-161.47 1037.95,-149.29 1056.83,-139.72"/>
<polygon fill="#63b8ff" stroke="#63b8ff" points="1058.29,-142.91 1065.63,-135.26 1055.13,-136.66 1058.29,-142.91"/>
</a>
</g>
</g>
<!-- Node17&#45;&gt;Node4 -->
<g id="edge19_Node000017_Node000004" class="edge">
<title>Node17&#45;&gt;Node4</title>
<g id="a_edge19_Node000017_Node000004"><a xlink:title=" ">
<path fill="none" stroke="#63b8ff" d="M343.71,-113.02C384.13,-102.96 446.44,-87.46 486.23,-77.55"/>
<polygon fill="#63b8ff" stroke="#63b8ff" points="486.99,-80.97 495.85,-75.16 485.3,-74.18 486.99,-80.97"/>
</a>
</g>
</g>
<!-- Node17&#45;&gt;Node8 -->
<g id="edge22_Node000017_Node000008" class="edge">
<title>Node17&#45;&gt;Node8</title>
<g id="a_edge22_Node000017_Node000008"><a xlink:title=" ">
<path fill="none" stroke="#63b8ff" d="M327.03,-113.02C361.54,-98.55 429.22,-71.67 489.12,-56.75 577.85,-34.65 683.67,-22.04 746.19,-15.97"/>
<polygon fill="#63b8ff" stroke="#63b8ff" points="746.22,-19.48 755.84,-15.05 745.56,-12.51 746.22,-19.48"/>
</a>
</g>
</g>
<!-- Node17&#45;&gt;Node12 -->
<g id="edge20_Node000017_Node000012" class="edge">
<title>Node17&#45;&gt;Node12</title>
<g id="a_edge20_Node000017_Node000012"><a xlink:title=" ">
<path fill="none" stroke="#63b8ff" d="M285.89,-113.09C270.44,-104.8 248.04,-92.77 230.29,-83.24"/>
<polygon fill="#63b8ff" stroke="#63b8ff" points="232,-80.19 221.53,-78.54 228.69,-86.36 232,-80.19"/>
</a>
</g>
</g>
<!-- Node18 -->
<g id="Node000018" class="node">
<title>Node18</title>
<g id="a_Node000018"><a xlink:title=" ">
<polygon fill="#e0e0e0" stroke="#999999" points="148.62,-77.5 57.62,-77.5 57.62,-56.75 148.62,-56.75 148.62,-77.5"/>
<text xml:space="preserve" text-anchor="middle" x="103.12" y="-64" font-family="Helvetica,sans-Serif" font-size="10.00">event_groups.h</text>
</a>
</g>
</g>
<!-- Node17&#45;&gt;Node18 -->
<g id="edge21_Node000017_Node000018" class="edge">
<title>Node17&#45;&gt;Node18</title>
<g id="a_edge21_Node000017_Node000018"><a xlink:title=" ">
<path fill="none" stroke="#63b8ff" d="M268.19,-113.09C235.13,-104.08 185.92,-90.68 149.83,-80.85"/>
<polygon fill="#63b8ff" stroke="#63b8ff" points="151.11,-77.57 140.54,-78.32 149.27,-84.32 151.11,-77.57"/>
</a>
</g>
</g>
<!-- Node19 -->
<g id="Node000019" class="node">
<title>Node19</title>
<g id="a_Node000019"><a xlink:title=" ">
<polygon fill="#e0e0e0" stroke="#999999" points="330.12,-77.5 278.12,-77.5 278.12,-56.75 330.12,-56.75 330.12,-77.5"/>
<text xml:space="preserve" text-anchor="middle" x="304.12" y="-64" font-family="Helvetica,sans-Serif" font-size="10.00">stdlib.h</text>
</a>
</g>
</g>
<!-- Node17&#45;&gt;Node19 -->
<g id="edge23_Node000017_Node000019" class="edge">
<title>Node17&#45;&gt;Node19</title>
<g id="a_edge23_Node000017_Node000019"><a xlink:title=" ">
<path fill="none" stroke="#63b8ff" d="M304.12,-113.09C304.12,-106.47 304.12,-97.47 304.12,-89.27"/>
<polygon fill="#63b8ff" stroke="#63b8ff" points="307.62,-89.34 304.12,-79.34 300.62,-89.34 307.62,-89.34"/>
</a>
</g>
</g>
<!-- Node20&#45;&gt;Node4 -->
<g id="edge25_Node000020_Node000004" class="edge">
<title>Node20&#45;&gt;Node4</title>
<g id="a_edge25_Node000020_Node000004"><a xlink:title=" ">
<path fill="none" stroke="#63b8ff" d="M1043.59,-114.75C1040.73,-114.3 1037.89,-113.88 1035.12,-113.5 943.55,-101.04 664.62,-78.96 562.29,-71.05"/>
<polygon fill="#63b8ff" stroke="#63b8ff" points="562.73,-67.57 552.49,-70.29 562.2,-74.55 562.73,-67.57"/>
</a>
</g>
</g>
<!-- Node20&#45;&gt;Node7 -->
<g id="edge26_Node000020_Node000007" class="edge">
<title>Node20&#45;&gt;Node7</title>
<g id="a_edge26_Node000020_Node000007"><a xlink:title=" ">
<path fill="none" stroke="#63b8ff" d="M1113.48,-113.09C1137.88,-104.36 1173.85,-91.48 1201.05,-81.75"/>
<polygon fill="#63b8ff" stroke="#63b8ff" points="1202.09,-85.1 1210.32,-78.43 1199.73,-78.5 1202.09,-85.1"/>
</a>
</g>
</g>
<!-- Node20&#45;&gt;Node8 -->
<g id="edge28_Node000020_Node000008" class="edge">
<title>Node20&#45;&gt;Node8</title>
<g id="a_edge28_Node000020_Node000008"><a xlink:title=" ">
<path fill="none" stroke="#63b8ff" d="M1070.2,-113.05C1041.93,-95.65 985.01,-60.88 975.12,-56.75 935.92,-40.38 889.25,-28.64 853.97,-21.2"/>
<polygon fill="#63b8ff" stroke="#63b8ff" points="854.92,-17.83 844.42,-19.25 853.51,-24.68 854.92,-17.83"/>
</a>
</g>
</g>
<!-- Node20&#45;&gt;Node14 -->
<g id="edge29_Node000020_Node000014" class="edge">
<title>Node20&#45;&gt;Node14</title>
<g id="a_edge29_Node000020_Node000014"><a xlink:title=" ">
<path fill="none" stroke="#63b8ff" d="M1128.67,-118.25C1188.24,-111.48 1300.09,-97.65 1404.28,-77.9"/>
<polygon fill="#63b8ff" stroke="#63b8ff" points="1404.67,-81.39 1413.83,-76.07 1403.35,-74.52 1404.67,-81.39"/>
</a>
</g>
</g>
<!-- Node20&#45;&gt;Node15 -->
<g id="edge30_Node000020_Node000015" class="edge">
<title>Node20&#45;&gt;Node15</title>
<g id="a_edge30_Node000020_Node000015"><a xlink:title=" ">
<path fill="none" stroke="#63b8ff" d="M1128.53,-115.32C1174.14,-107.08 1249.06,-93.23 1323.4,-77.8"/>
<polygon fill="#63b8ff" stroke="#63b8ff" points="1323.81,-81.29 1332.88,-75.82 1322.38,-74.44 1323.81,-81.29"/>
</a>
</g>
</g>
<!-- Node20&#45;&gt;Node16 -->
<g id="edge31_Node000020_Node000016" class="edge">
<title>Node20&#45;&gt;Node16</title>
<g id="a_edge31_Node000020_Node000016"><a xlink:title=" ">
<path fill="none" stroke="#63b8ff" d="M1059.13,-113.09C1035.04,-104.36 999.54,-91.48 972.69,-81.75"/>
<polygon fill="#63b8ff" stroke="#63b8ff" points="974.16,-78.55 963.56,-78.44 971.77,-85.14 974.16,-78.55"/>
</a>
</g>
</g>
<!-- Node21 -->
<g id="Node000021" class="node">
<title>Node21</title>
<g id="a_Node000021"><a xlink:title=" ">
<polygon fill="#e0e0e0" stroke="#999999" points="1144.37,-77.5 1021.87,-77.5 1021.87,-56.75 1144.37,-56.75 1144.37,-77.5"/>
<text xml:space="preserve" text-anchor="middle" x="1083.12" y="-64" font-family="Helvetica,sans-Serif" font-size="10.00">fsl_device_registers.h</text>
</a>
</g>
</g>
<!-- Node20&#45;&gt;Node21 -->
<g id="edge27_Node000020_Node000021" class="edge">
<title>Node20&#45;&gt;Node21</title>
<g id="a_edge27_Node000020_Node000021"><a xlink:title=" ">
<path fill="none" stroke="#63b8ff" d="M1085.59,-113.09C1085.22,-106.47 1084.73,-97.47 1084.28,-89.27"/>
<polygon fill="#63b8ff" stroke="#63b8ff" points="1087.78,-89.13 1083.74,-79.34 1080.79,-89.52 1087.78,-89.13"/>
</a>
</g>
</g>
<!-- Node22&#45;&gt;Node4 -->
<g id="edge33_Node000022_Node000004" class="edge">
<title>Node22&#45;&gt;Node4</title>
<g id="a_edge33_Node000022_Node000004"><a xlink:title=" ">
<path fill="none" stroke="#63b8ff" d="M680.25,-169.93C650.69,-150.65 584.31,-107.37 548.36,-83.93"/>
<polygon fill="#63b8ff" stroke="#63b8ff" points="550.64,-81.24 540.35,-78.71 546.82,-87.1 550.64,-81.24"/>
</a>
</g>
</g>
<!-- Node22&#45;&gt;Node8 -->
<g id="edge37_Node000022_Node000008" class="edge">
<title>Node22&#45;&gt;Node8</title>
<g id="a_edge37_Node000022_Node000008"><a xlink:title=" ">
<path fill="none" stroke="#63b8ff" d="M729.58,-169.8C747.75,-162.83 768.77,-151.57 781.12,-134.25 802.77,-103.89 803.85,-58.56 802.27,-32.28"/>
<polygon fill="#63b8ff" stroke="#63b8ff" points="805.78,-32.25 801.48,-22.57 798.8,-32.82 805.78,-32.25"/>
</a>
</g>
</g>
<!-- Node22&#45;&gt;Node9 -->
<g id="edge39_Node000022_Node000009" class="edge">
<title>Node22&#45;&gt;Node9</title>
<g id="a_edge39_Node000022_Node000009"><a xlink:title=" ">
<path fill="none" stroke="#63b8ff" d="M723.35,-169.87C745.1,-161.78 775.52,-149.2 800.12,-134.25 846.69,-105.95 846.53,-81.41 895.12,-56.75 933.93,-37.05 982.07,-25.35 1017.87,-18.78"/>
<polygon fill="#63b8ff" stroke="#63b8ff" points="1018.3,-22.26 1027.55,-17.08 1017.09,-15.36 1018.3,-22.26"/>
</a>
</g>
</g>
<!-- Node22&#45;&gt;Node17 -->
<g id="edge38_Node000022_Node000017" class="edge">
<title>Node22&#45;&gt;Node17</title>
<g id="a_edge38_Node000022_Node000017"><a xlink:title=" ">
<path fill="none" stroke="#63b8ff" d="M647.96,-173.02C574.93,-162.8 434.91,-143.19 358,-132.42"/>
<polygon fill="#63b8ff" stroke="#63b8ff" points="358.56,-128.96 348.17,-131.04 357.59,-135.9 358.56,-128.96"/>
</a>
</g>
</g>
<!-- Node23 -->
<g id="Node000023" class="node">
<title>Node23</title>
<g id="a_Node000023"><a xlink:href="tmc2209__shared_8h.html" target="_top" xlink:title=" ">
<polygon fill="white" stroke="#666666" points="772.12,-134.25 666.12,-134.25 666.12,-113.5 772.12,-113.5 772.12,-134.25"/>
<text xml:space="preserve" text-anchor="middle" x="719.12" y="-120.75" font-family="Helvetica,sans-Serif" font-size="10.00">tmc2209_shared.h</text>
</a>
</g>
</g>
<!-- Node22&#45;&gt;Node23 -->
<g id="edge34_Node000022_Node000023" class="edge">
<title>Node22&#45;&gt;Node23</title>
<g id="a_edge34_Node000022_Node000023"><a xlink:title=" ">
<path fill="none" stroke="#63b8ff" d="M699.41,-169.84C702.45,-162.91 706.63,-153.37 710.36,-144.86"/>
<polygon fill="#63b8ff" stroke="#63b8ff" points="713.45,-146.53 714.26,-135.96 707.04,-143.72 713.45,-146.53"/>
</a>
</g>
</g>
<!-- Node23&#45;&gt;Node4 -->
<g id="edge35_Node000023_Node000004" class="edge">
<title>Node23&#45;&gt;Node4</title>
<g id="a_edge35_Node000023_Node000004"><a xlink:title=" ">
<path fill="none" stroke="#63b8ff" d="M684.26,-113.09C649.76,-103.4 597.12,-88.62 561.7,-78.68"/>
<polygon fill="#63b8ff" stroke="#63b8ff" points="562.89,-75.37 552.31,-76.04 560.99,-82.11 562.89,-75.37"/>
</a>
</g>
</g>
<!-- Node24 -->
<g id="Node000024" class="node">
<title>Node24</title>
<g id="a_Node000024"><a xlink:title=" ">
<polygon fill="#e0e0e0" stroke="#999999" points="771.75,-77.5 666.5,-77.5 666.5,-56.75 771.75,-56.75 771.75,-77.5"/>
<text xml:space="preserve" text-anchor="middle" x="719.12" y="-64" font-family="Helvetica,sans-Serif" font-size="10.00">fsl_uart_freertos.h</text>
</a>
</g>
</g>
<!-- Node23&#45;&gt;Node24 -->
<g id="edge36_Node000023_Node000024" class="edge">
<title>Node23&#45;&gt;Node24</title>
<g id="a_edge36_Node000023_Node000024"><a xlink:title=" ">
<path fill="none" stroke="#63b8ff" d="M719.12,-113.09C719.12,-106.47 719.12,-97.47 719.12,-89.27"/>
<polygon fill="#63b8ff" stroke="#63b8ff" points="722.62,-89.34 719.12,-79.34 715.62,-89.34 722.62,-89.34"/>
</a>
</g>
</g>
<!-- Node26&#45;&gt;Node3 -->
<g id="edge48_Node000026_Node000003" class="edge">
<title>Node26&#45;&gt;Node3</title>
<g id="a_edge48_Node000026_Node000003"><a xlink:title=" ">
<path fill="none" stroke="#63b8ff" d="M615.47,-340.09C581.76,-331.08 531.57,-317.68 494.76,-307.85"/>
<polygon fill="#63b8ff" stroke="#63b8ff" points="495.83,-304.51 485.26,-305.31 494.02,-311.27 495.83,-304.51"/>
</a>
</g>
</g>
<!-- Node26&#45;&gt;Node6 -->
<g id="edge47_Node000026_Node000006" class="edge">
<title>Node26&#45;&gt;Node6</title>
<g id="a_edge47_Node000026_Node000006"><a xlink:title=" ">
<path fill="none" stroke="#63b8ff" d="M671.61,-340.18C710.91,-320.61 799.89,-276.32 846.46,-253.14"/>
<polygon fill="#63b8ff" stroke="#63b8ff" points="847.77,-256.4 855.17,-248.81 844.65,-250.13 847.77,-256.4"/>
</a>
</g>
</g>
<!-- Node27&#45;&gt;Node3 -->
<g id="edge50_Node000027_Node000003" class="edge">
<title>Node27&#45;&gt;Node3</title>
<g id="a_edge50_Node000027_Node000003"><a xlink:title=" ">
<path fill="none" stroke="#63b8ff" d="M274.67,-340.09C309.35,-331.04 361.06,-317.56 398.81,-307.72"/>
<polygon fill="#63b8ff" stroke="#63b8ff" points="399.29,-311.21 408.09,-305.3 397.53,-304.44 399.29,-311.21"/>
</a>
</g>
</g>
<!-- Node27&#45;&gt;Node5 -->
<g id="edge51_Node000027_Node000005" class="edge">
<title>Node27&#45;&gt;Node5</title>
<g id="a_edge51_Node000027_Node000005"><a xlink:title=" ">
<path fill="none" stroke="#63b8ff" d="M239.51,-340.37C243.99,-322.52 253.76,-283.61 259.86,-259.34"/>
<polygon fill="#63b8ff" stroke="#63b8ff" points="263.25,-260.19 262.29,-249.64 256.46,-258.49 263.25,-260.19"/>
</a>
</g>
</g>
<!-- Node28&#45;&gt;Node3 -->
<g id="edge54_Node000028_Node000003" class="edge">
<title>Node28&#45;&gt;Node3</title>
<g id="a_edge54_Node000028_Node000003"><a xlink:title=" ">
<path fill="none" stroke="#63b8ff" d="M535.81,-340.09C519.3,-331.72 495.29,-319.54 476.41,-309.97"/>
<polygon fill="#63b8ff" stroke="#63b8ff" points="478.12,-306.91 467.61,-305.51 474.95,-313.16 478.12,-306.91"/>
</a>
</g>
</g>
<!-- Node28&#45;&gt;Node4 -->
<g id="edge53_Node000028_Node000004" class="edge">
<title>Node28&#45;&gt;Node4</title>
<g id="a_edge53_Node000028_Node000004"><a xlink:title=" ">
<path fill="none" stroke="#63b8ff" d="M556.15,-340.04C558.1,-320.63 562.12,-276 562.12,-238.38 562.12,-238.38 562.12,-238.38 562.12,-179.62 562.12,-146.01 546.46,-109.6 535.25,-87.84"/>
<polygon fill="#63b8ff" stroke="#63b8ff" points="538.43,-86.37 530.61,-79.22 532.26,-89.69 538.43,-86.37"/>
</a>
</g>
</g>
<!-- Node29&#45;&gt;Node3 -->
<g id="edge56_Node000029_Node000003" class="edge">
<title>Node29&#45;&gt;Node3</title>
<g id="a_edge56_Node000029_Node000003"><a xlink:title=" ">
<path fill="none" stroke="#63b8ff" d="M360.07,-340.09C376.2,-331.76 399.63,-319.66 418.11,-310.11"/>
<polygon fill="#63b8ff" stroke="#63b8ff" points="419.71,-313.22 426.99,-305.52 416.5,-307 419.71,-313.22"/>
</a>
</g>
</g>
<!-- Node29&#45;&gt;Node4 -->
<g id="edge57_Node000029_Node000004" class="edge">
<title>Node29&#45;&gt;Node4</title>
<g id="a_edge57_Node000029_Node000004"><a xlink:title=" ">
<path fill="none" stroke="#63b8ff" d="M347.42,-340.18C373.82,-299.54 475.81,-142.5 511.61,-87.38"/>
<polygon fill="#63b8ff" stroke="#63b8ff" points="514.51,-89.34 517.02,-79.05 508.64,-85.53 514.51,-89.34"/>
</a>
</g>
</g>
<!-- Node29&#45;&gt;Node5 -->
<g id="edge58_Node000029_Node000005" class="edge">
<title>Node29&#45;&gt;Node5</title>
<g id="a_edge58_Node000029_Node000005"><a xlink:title=" ">
<path fill="none" stroke="#63b8ff" d="M334.47,-340.14C328.18,-330.96 318.51,-316.8 310.12,-304.5 299.38,-288.75 287.22,-270.87 278.25,-257.68"/>
<polygon fill="#63b8ff" stroke="#63b8ff" points="281.19,-255.79 272.68,-249.49 275.41,-259.73 281.19,-255.79"/>
</a>
</g>
</g>
<!-- Node30&#45;&gt;Node4 -->
<g id="edge60_Node000030_Node000004" class="edge">
<title>Node30&#45;&gt;Node4</title>
<g id="a_edge60_Node000030_Node000004"><a xlink:title=" ">
<path fill="none" stroke="#63b8ff" d="M374.38,-170.19C375.28,-156.03 379.02,-129.26 394.12,-113.5 418.26,-88.32 457.11,-77.11 486.06,-72.11"/>
<polygon fill="#63b8ff" stroke="#63b8ff" points="486.55,-75.58 495.9,-70.61 485.49,-68.66 486.55,-75.58"/>
</a>
</g>
</g>
<!-- Node30&#45;&gt;Node12 -->
<g id="edge61_Node000030_Node000012" class="edge">
<title>Node30&#45;&gt;Node12</title>
<g id="a_edge61_Node000030_Node000012"><a xlink:title=" ">
<path fill="none" stroke="#63b8ff" d="M331.23,-169.82C306.71,-162.75 276.31,-151.38 253.12,-134.25 236.04,-121.63 221.82,-101.81 212.76,-87.16"/>
<polygon fill="#63b8ff" stroke="#63b8ff" points="215.98,-85.72 207.89,-78.88 209.95,-89.27 215.98,-85.72"/>
</a>
</g>
</g>
<!-- Node30&#45;&gt;Node17 -->
<g id="edge63_Node000030_Node000017" class="edge">
<title>Node30&#45;&gt;Node17</title>
<g id="a_edge63_Node000030_Node000017"><a xlink:title=" ">
<path fill="none" stroke="#63b8ff" d="M361.61,-169.84C351.55,-161.97 337.21,-150.75 325.36,-141.49"/>
<polygon fill="#63b8ff" stroke="#63b8ff" points="327.75,-138.91 317.72,-135.51 323.44,-144.43 327.75,-138.91"/>
</a>
</g>
</g>
<!-- Node30&#45;&gt;Node25 -->
<g id="edge62_Node000030_Node000025" class="edge">
<title>Node30&#45;&gt;Node25</title>
<g id="a_edge62_Node000030_Node000025"><a xlink:title=" ">
<path fill="none" stroke="#63b8ff" d="M384.13,-169.84C391.86,-162.28 402.75,-151.64 412,-142.6"/>
<polygon fill="#63b8ff" stroke="#63b8ff" points="414.41,-145.13 419.11,-135.64 409.52,-140.12 414.41,-145.13"/>
</a>
</g>
</g>
<!-- Node31&#45;&gt;Node4 -->
<g id="edge65_Node000031_Node000004" class="edge">
<title>Node31&#45;&gt;Node4</title>
<g id="a_edge65_Node000031_Node000004"><a xlink:title=" ">
<path fill="none" stroke="#63b8ff" d="M136.72,-169.87C160.76,-155.28 208.77,-127.96 253.12,-113.5 333.66,-87.24 432.85,-75.58 486.08,-70.9"/>
<polygon fill="#63b8ff" stroke="#63b8ff" points="486.16,-74.4 495.83,-70.08 485.57,-67.43 486.16,-74.4"/>
</a>
</g>
</g>
<!-- Node31&#45;&gt;Node8 -->
<g id="edge68_Node000031_Node000008" class="edge">
<title>Node31&#45;&gt;Node8</title>
<g id="a_edge68_Node000031_Node000008"><a xlink:title=" ">
<path fill="none" stroke="#63b8ff" d="M84.02,-175.94C57.19,-171.11 22.68,-159.97 5.12,-134.25 -12.06,-109.07 20.03,-64.89 32.12,-56.75 90.94,-17.12 580.85,-12.02 746,-11.43"/>
<polygon fill="#63b8ff" stroke="#63b8ff" points="745.82,-14.93 755.81,-11.4 745.8,-7.93 745.82,-14.93"/>
</a>
</g>
</g>
<!-- Node31&#45;&gt;Node12 -->
<g id="edge66_Node000031_Node000012" class="edge">
<title>Node31&#45;&gt;Node12</title>
<g id="a_edge66_Node000031_Node000012"><a xlink:title=" ">
<path fill="none" stroke="#63b8ff" d="M122.72,-169.85C125.33,-156.19 131.54,-131.1 144.12,-113.5 152.32,-102.04 164.22,-92.03 175.1,-84.35"/>
<polygon fill="#63b8ff" stroke="#63b8ff" points="177.03,-87.27 183.42,-78.82 173.16,-81.44 177.03,-87.27"/>
</a>
</g>
</g>
<!-- Node31&#45;&gt;Node17 -->
<g id="edge69_Node000031_Node000017" class="edge">
<title>Node31&#45;&gt;Node17</title>
<g id="a_edge69_Node000031_Node000017"><a xlink:title=" ">
<path fill="none" stroke="#63b8ff" d="M153.84,-169.84C183.67,-160.91 227.97,-147.66 260.74,-137.85"/>
<polygon fill="#63b8ff" stroke="#63b8ff" points="261.35,-141.32 269.93,-135.1 259.35,-134.62 261.35,-141.32"/>
</a>
</g>
</g>
<!-- Node31&#45;&gt;Node18 -->
<g id="edge67_Node000031_Node000018" class="edge">
<title>Node31&#45;&gt;Node18</title>
<g id="a_edge67_Node000031_Node000018"><a xlink:title=" ">
<path fill="none" stroke="#63b8ff" d="M117.12,-170.09C113.53,-161.04 108.47,-146.98 106.12,-134.25 103.37,-119.33 102.66,-102.22 102.62,-89.14"/>
<polygon fill="#63b8ff" stroke="#63b8ff" points="106.12,-89.19 102.73,-79.15 99.12,-89.11 106.12,-89.19"/>
</a>
</g>
</g>
<!-- Node32&#45;&gt;Node8 -->
<g id="edge72_Node000032_Node000008" class="edge">
<title>Node32&#45;&gt;Node8</title>
<g id="a_edge72_Node000032_Node000008"><a xlink:title=" ">
<path fill="none" stroke="#63b8ff" d="M32.94,-113.47C31.69,-98.84 31.76,-70.84 48.12,-56.75 100.68,-11.47 582.61,-10.08 746.13,-10.93"/>
<polygon fill="#63b8ff" stroke="#63b8ff" points="745.81,-14.43 755.83,-10.98 745.85,-7.43 745.81,-14.43"/>
</a>
</g>
</g>
<!-- Node32&#45;&gt;Node12 -->
<g id="edge71_Node000032_Node000012" class="edge">
<title>Node32&#45;&gt;Node12</title>
<g id="a_edge71_Node000032_Node000012"><a xlink:title=" ">
<path fill="none" stroke="#63b8ff" d="M54.39,-116.27C80.65,-107.71 127.09,-92.58 160.91,-81.56"/>
<polygon fill="#63b8ff" stroke="#63b8ff" points="161.98,-84.89 170.4,-78.46 159.81,-78.23 161.98,-84.89"/>
</a>
</g>
</g>
</g>
</svg>

<g id="navigator" transform="translate(0 0)" fill="#404254">
  <rect fill="#f2f5e9" fill-opacity="0.5" stroke="#606060" stroke-width=".5" x="0" y="0" width="60" height="60"/>
  <use id="zoomplus" xlink:href="#zoomPlus" x="17" y="9" onmousedown="handleZoom(evt,'in')"/>
  <use id="zoomminus" xlink:href="#zoomMin" x="42" y="9" onmousedown="handleZoom(evt,'out')"/>
  <use id="reset" xlink:href="#resetDef" x="30" y="36" onmousedown="handleReset()"/>
   <use id="arrowup" xlink:href="#arrowUp" x="0" y="0" onmousedown="handlePan(0,-1)"/>
  <use id="arrowright" xlink:href="#arrowRight" x="0" y="0" onmousedown="handlePan(1,0)"/>
  <use id="arrowdown" xlink:href="#arrowDown" x="0" y="0" onmousedown="handlePan(0,1)"/>
  <use id="arrowleft" xlink:href="#arrowLeft" x="0" y="0" onmousedown="handlePan(-1,0)"/>
</g>
<svg viewBox="0 0 15 15" width="100%" height="30px" preserveAspectRatio="xMaxYMin meet">
 <g id="arrow_out" transform="scale(0.3 0.3)">
  <a xlink:href="motor__process_8c__incl_org.svg" target="_base">
   <rect id="button" ry="5" rx="5" y="6" x="6" height="38" width="38"
        fill="#f2f5e9" fill-opacity="0.5" stroke="#606060" stroke-width="1.0"/>
   <path id="arrow"
     d="M 11.500037,31.436501 C 11.940474,20.09759 22.043105,11.32322 32.158766,21.979434 L 37.068811,17.246167 C 37.068811,17.246167 37.088388,32 37.088388,32 L 22.160133,31.978069 C 22.160133,31.978069 26.997745,27.140456 26.997745,27.140456 C 18.528582,18.264221 13.291696,25.230495 11.500037,31.436501 z"
     style="fill:#404040;"/>
  </a>
 </g>
</svg>

<style type='text/css'>
<![CDATA[
[data-mouse-over-selected='false'] { opacity: 0.7; }
[data-mouse-over-selected='true']  { opacity: 1.0; }
]]>
</style>
<script type="application/ecmascript"><![CDATA[
document.addEventListener('DOMContentLoaded', (event) => {
  highlightEdges();
  highlightAdjacentNodes();
});
]]></script>
</svg>
