<?xml version="1.0" encoding="UTF-8" standalone="no"?>
<!DOCTYPE svg PUBLIC "-//W3C//DTD SVG 1.1//EN"
 "http://www.w3.org/Graphics/SVG/1.1/DTD/svg11.dtd">
<!-- Generated by graphviz version 14.1.4 (0)
 -->
<!-- Title: source/motion/motor/motor_init.c Pages: 1 -->
<svg width="1252pt" height="439pt"
 viewBox="0.00 0.00 1252.00 439.00" xmlns="http://www.w3.org/2000/svg" xmlns:xlink="http://www.w3.org/1999/xlink">
<g id="graph0" class="graph" transform="scale(1 1) rotate(0) translate(4 434.75)">
<title>source/motion/motor/motor_init.c</title>
<!-- Node1 -->
<g id="Node000001" class="node">
<title>Node1</title>
<g id="a_Node000001"><a xlink:title=" ">
<polygon fill="#999999" stroke="#666666" points="1028.88,-430.75 910.88,-430.75 910.88,-397.25 1028.88,-397.25 1028.88,-430.75"/>
<text xml:space="preserve" text-anchor="start" x="918.88" y="-417.25" font-family="Helvetica,sans-Serif" font-size="10.00">source/motion/motor</text>
<text xml:space="preserve" text-anchor="middle" x="969.88" y="-404.5" font-family="Helvetica,sans-Serif" font-size="10.00">/motor_init.c</text>
</a>
</g>
</g>
<!-- Node2 -->
<g id="Node000002" class="node">
<title>Node2</title>
<g id="a_Node000002"><a xlink:href="motor__init_8h.html" target="_top" xlink:title=" ">
<polygon fill="white" stroke="#666666" points="846.5,-361.25 771.25,-361.25 771.25,-340.5 846.5,-340.5 846.5,-361.25"/>
<text xml:space="preserve" text-anchor="middle" x="808.88" y="-347.75" font-family="Helvetica,sans-Serif" font-size="10.00">motor_init.h</text>
</a>
</g>
</g>
<!-- Node1&#45;&gt;Node2 -->
<g id="edge1_Node000001_Node000002" class="edge">
<title>Node1&#45;&gt;Node2</title>
<g id="a_edge1_Node000001_Node000002"><a xlink:title=" ">
<path fill="none" stroke="#63b8ff" d="M927.15,-396.78C901.62,-387.09 869.54,-374.91 845.23,-365.68"/>
<polygon fill="#63b8ff" stroke="#63b8ff" points="846.67,-362.48 836.08,-362.2 844.18,-369.02 846.67,-362.48"/>
</a>
</g>
</g>
<!-- Node7 -->
<g id="Node000007" class="node">
<title>Node7</title>
<g id="a_Node000007"><a xlink:href="step__core_8h.html" target="_top" xlink:title=" ">
<polygon fill="white" stroke="#666666" points="521,-191 448.75,-191 448.75,-170.25 521,-170.25 521,-191"/>
<text xml:space="preserve" text-anchor="middle" x="484.88" y="-177.5" font-family="Helvetica,sans-Serif" font-size="10.00">step_core.h</text>
</a>
</g>
</g>
<!-- Node1&#45;&gt;Node7 -->
<g id="edge45_Node000001_Node000007" class="edge">
<title>Node1&#45;&gt;Node7</title>
<g id="a_edge45_Node000001_Node000007"><a xlink:title=" ">
<path fill="none" stroke="#63b8ff" d="M962.26,-396.99C943.54,-359.65 891.31,-266.91 816.88,-227 768.68,-201.16 612.22,-188.8 532.5,-184.06"/>
<polygon fill="#63b8ff" stroke="#63b8ff" points="533.01,-180.58 522.83,-183.5 532.61,-187.57 533.01,-180.58"/>
</a>
</g>
</g>
<!-- Node19 -->
<g id="Node000019" class="node">
<title>Node19</title>
<g id="a_Node000019"><a xlink:href="tmc2209__core_8h.html" target="_top" xlink:title=" ">
<polygon fill="white" stroke="#666666" points="767.88,-191 673.88,-191 673.88,-170.25 767.88,-170.25 767.88,-191"/>
<text xml:space="preserve" text-anchor="middle" x="720.88" y="-177.5" font-family="Helvetica,sans-Serif" font-size="10.00">tmc2209_core.h</text>
</a>
</g>
</g>
<!-- Node1&#45;&gt;Node19 -->
<g id="edge46_Node000001_Node000019" class="edge">
<title>Node1&#45;&gt;Node19</title>
<g id="a_edge46_Node000001_Node000019"><a xlink:title=" ">
<path fill="none" stroke="#63b8ff" d="M971.37,-396.89C973.73,-360.93 973.99,-273.63 926.88,-227 906.32,-206.66 832.74,-194.15 779.37,-187.55"/>
<polygon fill="#63b8ff" stroke="#63b8ff" points="779.83,-184.08 769.49,-186.37 779,-191.03 779.83,-184.08"/>
</a>
</g>
</g>
<!-- Node24 -->
<g id="Node000024" class="node">
<title>Node24</title>
<g id="a_Node000024"><a xlink:href="log_8h.html" target="_top" xlink:title=" ">
<polygon fill="white" stroke="#666666" points="944.88,-134.25 904.88,-134.25 904.88,-113.5 944.88,-113.5 944.88,-134.25"/>
<text xml:space="preserve" text-anchor="middle" x="924.88" y="-120.75" font-family="Helvetica,sans-Serif" font-size="10.00">log.h</text>
</a>
</g>
</g>
<!-- Node1&#45;&gt;Node24 -->
<g id="edge41_Node000001_Node000024" class="edge">
<title>Node1&#45;&gt;Node24</title>
<g id="a_edge41_Node000001_Node000024"><a xlink:title=" ">
<path fill="none" stroke="#63b8ff" d="M974.09,-397.12C979.69,-374.6 988.88,-332.02 988.88,-295.12 988.88,-295.12 988.88,-295.12 988.88,-236.38 988.88,-199.24 961.84,-163.28 942.91,-142.65"/>
<polygon fill="#63b8ff" stroke="#63b8ff" points="945.65,-140.44 936.2,-135.64 940.59,-145.28 945.65,-140.44"/>
</a>
</g>
</g>
<!-- Node25 -->
<g id="Node000025" class="node">
<title>Node25</title>
<g id="a_Node000025"><a xlink:title=" ">
<polygon fill="#e0e0e0" stroke="#999999" points="1066.38,-361.25 1017.38,-361.25 1017.38,-340.5 1066.38,-340.5 1066.38,-361.25"/>
<text xml:space="preserve" text-anchor="middle" x="1041.88" y="-347.75" font-family="Helvetica,sans-Serif" font-size="10.00">stdio.h</text>
</a>
</g>
</g>
<!-- Node1&#45;&gt;Node25 -->
<g id="edge44_Node000001_Node000025" class="edge">
<title>Node1&#45;&gt;Node25</title>
<g id="a_edge44_Node000001_Node000025"><a xlink:title=" ">
<path fill="none" stroke="#63b8ff" d="M988.79,-396.94C998.87,-388.38 1011.28,-377.85 1021.56,-369.12"/>
<polygon fill="#63b8ff" stroke="#63b8ff" points="1023.77,-371.84 1029.13,-362.7 1019.24,-366.5 1023.77,-371.84"/>
</a>
</g>
</g>
<!-- Node26 -->
<g id="Node000026" class="node">
<title>Node26</title>
<g id="a_Node000026"><a xlink:href="sync__wait_8h.html" target="_top" xlink:title=" ">
<polygon fill="white" stroke="#666666" points="1141.75,-191 1068,-191 1068,-170.25 1141.75,-170.25 1141.75,-191"/>
<text xml:space="preserve" text-anchor="middle" x="1104.88" y="-177.5" font-family="Helvetica,sans-Serif" font-size="10.00">sync_wait.h</text>
</a>
</g>
</g>
<!-- Node1&#45;&gt;Node26 -->
<g id="edge47_Node000001_Node000026" class="edge">
<title>Node1&#45;&gt;Node26</title>
<g id="a_edge47_Node000001_Node000026"><a xlink:title=" ">
<path fill="none" stroke="#63b8ff" d="M1026.95,-396.85C1045.2,-388.96 1063.79,-377.53 1075.88,-361.25 1111.4,-313.37 1110.31,-238.45 1107.28,-202.39"/>
<polygon fill="#63b8ff" stroke="#63b8ff" points="1110.8,-202.47 1106.33,-192.87 1103.84,-203.17 1110.8,-202.47"/>
</a>
</g>
</g>
<!-- Node3 -->
<g id="Node000003" class="node">
<title>Node3</title>
<g id="a_Node000003"><a xlink:href="motor_8h.html" target="_top" xlink:title=" ">
<polygon fill="white" stroke="#666666" points="479.62,-247.75 426.12,-247.75 426.12,-227 479.62,-227 479.62,-247.75"/>
<text xml:space="preserve" text-anchor="middle" x="452.88" y="-234.25" font-family="Helvetica,sans-Serif" font-size="10.00">motor.h</text>
</a>
</g>
</g>
<!-- Node2&#45;&gt;Node3 -->
<g id="edge2_Node000002_Node000003" class="edge">
<title>Node2&#45;&gt;Node3</title>
<g id="a_edge2_Node000002_Node000003"><a xlink:title=" ">
<path fill="none" stroke="#63b8ff" d="M777.59,-340.08C712.21,-319.6 561.28,-272.33 490.63,-250.2"/>
<polygon fill="#63b8ff" stroke="#63b8ff" points="492.04,-246.97 481.45,-247.33 489.95,-253.65 492.04,-246.97"/>
</a>
</g>
</g>
<!-- Node22 -->
<g id="Node000022" class="node">
<title>Node22</title>
<g id="a_Node000022"><a xlink:href="motor__internal_8h.html" target="_top" xlink:title=" ">
<polygon fill="white" stroke="#666666" points="857.38,-304.5 760.38,-304.5 760.38,-283.75 857.38,-283.75 857.38,-304.5"/>
<text xml:space="preserve" text-anchor="middle" x="808.88" y="-291" font-family="Helvetica,sans-Serif" font-size="10.00">motor_internal.h</text>
</a>
</g>
</g>
<!-- Node2&#45;&gt;Node22 -->
<g id="edge36_Node000002_Node000022" class="edge">
<title>Node2&#45;&gt;Node22</title>
<g id="a_edge36_Node000002_Node000022"><a xlink:title=" ">
<path fill="none" stroke="#63b8ff" d="M808.88,-340.09C808.88,-333.47 808.88,-324.47 808.88,-316.27"/>
<polygon fill="#63b8ff" stroke="#63b8ff" points="812.38,-316.34 808.88,-306.34 805.38,-316.34 812.38,-316.34"/>
</a>
</g>
</g>
<!-- Node4 -->
<g id="Node000004" class="node">
<title>Node4</title>
<g id="a_Node000004"><a xlink:href="pca9555a_8h.html" target="_top" xlink:title=" ">
<polygon fill="white" stroke="#666666" points="570.88,-77.5 416.88,-77.5 416.88,-56.75 570.88,-56.75 570.88,-77.5"/>
<text xml:space="preserve" text-anchor="middle" x="493.88" y="-64" font-family="Helvetica,sans-Serif" font-size="10.00">driver/pca9555a/pca9555a.h</text>
</a>
</g>
</g>
<!-- Node3&#45;&gt;Node4 -->
<g id="edge3_Node000003_Node000004" class="edge">
<title>Node3&#45;&gt;Node4</title>
<g id="a_edge3_Node000003_Node000004"><a xlink:title=" ">
<path fill="none" stroke="#63b8ff" d="M448.41,-226.89C442.92,-214 434.92,-190.24 439.88,-170.25 447.61,-139.06 466.81,-106.92 480.1,-87.22"/>
<polygon fill="#63b8ff" stroke="#63b8ff" points="482.89,-89.34 485.73,-79.13 477.14,-85.34 482.89,-89.34"/>
</a>
</g>
</g>
<!-- Node3&#45;&gt;Node7 -->
<g id="edge6_Node000003_Node000007" class="edge">
<title>Node3&#45;&gt;Node7</title>
<g id="a_edge6_Node000003_Node000007"><a xlink:title=" ">
<path fill="none" stroke="#63b8ff" d="M458.6,-226.59C462.74,-219.5 468.47,-209.69 473.53,-201.04"/>
<polygon fill="#63b8ff" stroke="#63b8ff" points="476.42,-203.03 478.44,-192.64 470.37,-199.5 476.42,-203.03"/>
</a>
</g>
</g>
<!-- Node10 -->
<g id="Node000010" class="node">
<title>Node10</title>
<g id="a_Node000010"><a xlink:title=" ">
<polygon fill="#e0e0e0" stroke="#999999" points="138.25,-77.5 79.5,-77.5 79.5,-56.75 138.25,-56.75 138.25,-77.5"/>
<text xml:space="preserve" text-anchor="middle" x="108.88" y="-64" font-family="Helvetica,sans-Serif" font-size="10.00">fsl_ftm.h</text>
</a>
</g>
</g>
<!-- Node3&#45;&gt;Node10 -->
<g id="edge33_Node000003_Node000010" class="edge">
<title>Node3&#45;&gt;Node10</title>
<g id="a_edge33_Node000003_Node000010"><a xlink:title=" ">
<path fill="none" stroke="#63b8ff" d="M425.71,-230.33C374.2,-218.03 260.05,-186.74 176.88,-134.25 156.31,-121.27 136.85,-101.27 124.06,-86.66"/>
<polygon fill="#63b8ff" stroke="#63b8ff" points="126.79,-84.47 117.65,-79.12 121.46,-89.01 126.79,-84.47"/>
</a>
</g>
</g>
<!-- Node11 -->
<g id="Node000011" class="node">
<title>Node11</title>
<g id="a_Node000011"><a xlink:title=" ">
<polygon fill="#e0e0e0" stroke="#999999" points="398.5,-77.5 335.25,-77.5 335.25,-56.75 398.5,-56.75 398.5,-77.5"/>
<text xml:space="preserve" text-anchor="middle" x="366.88" y="-64" font-family="Helvetica,sans-Serif" font-size="10.00">fsl_gpio.h</text>
</a>
</g>
</g>
<!-- Node3&#45;&gt;Node11 -->
<g id="edge34_Node000003_Node000011" class="edge">
<title>Node3&#45;&gt;Node11</title>
<g id="a_edge34_Node000003_Node000011"><a xlink:title=" ">
<path fill="none" stroke="#63b8ff" d="M448,-226.85C434.35,-200.14 395.5,-124.12 376.96,-87.85"/>
<polygon fill="#63b8ff" stroke="#63b8ff" points="380.26,-86.63 372.59,-79.32 374.03,-89.81 380.26,-86.63"/>
</a>
</g>
</g>
<!-- Node12 -->
<g id="Node000012" class="node">
<title>Node12</title>
<g id="a_Node000012"><a xlink:title=" ">
<polygon fill="#e0e0e0" stroke="#999999" points="61.75,-77.5 0,-77.5 0,-56.75 61.75,-56.75 61.75,-77.5"/>
<text xml:space="preserve" text-anchor="middle" x="30.88" y="-64" font-family="Helvetica,sans-Serif" font-size="10.00">fsl_port.h</text>
</a>
</g>
</g>
<!-- Node3&#45;&gt;Node12 -->
<g id="edge35_Node000003_Node000012" class="edge">
<title>Node3&#45;&gt;Node12</title>
<g id="a_edge35_Node000003_Node000012"><a xlink:title=" ">
<path fill="none" stroke="#63b8ff" d="M425.66,-232.36C385.3,-225.99 307.49,-212.08 243.88,-191 185.96,-171.81 171.35,-165.37 118.88,-134.25 94.19,-119.61 68.18,-99.39 50.9,-85.17"/>
<polygon fill="#63b8ff" stroke="#63b8ff" points="53.34,-82.65 43.42,-78.94 48.86,-88.03 53.34,-82.65"/>
</a>
</g>
</g>
<!-- Node3&#45;&gt;Node19 -->
<g id="edge27_Node000003_Node000019" class="edge">
<title>Node3&#45;&gt;Node19</title>
<g id="a_edge27_Node000003_Node000019"><a xlink:title=" ">
<path fill="none" stroke="#63b8ff" d="M480.05,-230.82C522.59,-222.13 605.9,-205.11 662.47,-193.56"/>
<polygon fill="#63b8ff" stroke="#63b8ff" points="662.83,-197.05 671.93,-191.62 661.43,-190.2 662.83,-197.05"/>
</a>
</g>
</g>
<!-- Node5 -->
<g id="Node000005" class="node">
<title>Node5</title>
<g id="a_Node000005"><a xlink:title=" ">
<polygon fill="#e0e0e0" stroke="#999999" points="841.38,-20.75 756.38,-20.75 756.38,0 841.38,0 841.38,-20.75"/>
<text xml:space="preserve" text-anchor="middle" x="798.88" y="-7.25" font-family="Helvetica,sans-Serif" font-size="10.00">fsl_common.h</text>
</a>
</g>
</g>
<!-- Node4&#45;&gt;Node5 -->
<g id="edge4_Node000004_Node000005" class="edge">
<title>Node4&#45;&gt;Node5</title>
<g id="a_edge4_Node000004_Node000005"><a xlink:title=" ">
<path fill="none" stroke="#63b8ff" d="M548.76,-56.27C604.32,-46.3 689.7,-30.97 744.93,-21.06"/>
<polygon fill="#63b8ff" stroke="#63b8ff" points="745.52,-24.51 754.74,-19.3 744.28,-17.62 745.52,-24.51"/>
</a>
</g>
</g>
<!-- Node6 -->
<g id="Node000006" class="node">
<title>Node6</title>
<g id="a_Node000006"><a xlink:title=" ">
<polygon fill="#e0e0e0" stroke="#999999" points="586.75,-20.75 507,-20.75 507,0 586.75,0 586.75,-20.75"/>
<text xml:space="preserve" text-anchor="middle" x="546.88" y="-7.25" font-family="Helvetica,sans-Serif" font-size="10.00">peripherals.h</text>
</a>
</g>
</g>
<!-- Node4&#45;&gt;Node6 -->
<g id="edge5_Node000004_Node000006" class="edge">
<title>Node4&#45;&gt;Node6</title>
<g id="a_edge5_Node000004_Node000006"><a xlink:title=" ">
<path fill="none" stroke="#63b8ff" d="M503.35,-56.34C510.66,-48.78 520.97,-38.14 529.72,-29.1"/>
<polygon fill="#63b8ff" stroke="#63b8ff" points="531.99,-31.79 536.43,-22.17 526.96,-26.92 531.99,-31.79"/>
</a>
</g>
</g>
<!-- Node7&#45;&gt;Node4 -->
<g id="edge7_Node000007_Node000004" class="edge">
<title>Node7&#45;&gt;Node4</title>
<g id="a_edge7_Node000007_Node000004"><a xlink:title=" ">
<path fill="none" stroke="#63b8ff" d="M482.25,-170.16C479.04,-157.27 474.45,-133.53 477.88,-113.5 479.32,-105.08 482.16,-96.15 485.05,-88.45"/>
<polygon fill="#63b8ff" stroke="#63b8ff" points="488.23,-89.94 488.74,-79.36 481.74,-87.31 488.23,-89.94"/>
</a>
</g>
</g>
<!-- Node7&#45;&gt;Node5 -->
<g id="edge10_Node000007_Node000005" class="edge">
<title>Node7&#45;&gt;Node5</title>
<g id="a_edge10_Node000007_Node000005"><a xlink:title=" ">
<path fill="none" stroke="#63b8ff" d="M497.07,-170.08C530.25,-144.26 621.9,-73.8 655.88,-56.75 684.01,-42.63 717.45,-31.73 744.91,-24.16"/>
<polygon fill="#63b8ff" stroke="#63b8ff" points="745.68,-27.57 754.43,-21.61 743.87,-20.81 745.68,-27.57"/>
</a>
</g>
</g>
<!-- Node8 -->
<g id="Node000008" class="node">
<title>Node8</title>
<g id="a_Node000008"><a xlink:title=" ">
<polygon fill="#e0e0e0" stroke="#999999" points="898.62,-77.5 827.12,-77.5 827.12,-56.75 898.62,-56.75 898.62,-77.5"/>
<text xml:space="preserve" text-anchor="middle" x="862.88" y="-64" font-family="Helvetica,sans-Serif" font-size="10.00">FreeRTOS.h</text>
</a>
</g>
</g>
<!-- Node7&#45;&gt;Node8 -->
<g id="edge8_Node000007_Node000008" class="edge">
<title>Node7&#45;&gt;Node8</title>
<g id="a_edge8_Node000007_Node000008"><a xlink:title=" ">
<path fill="none" stroke="#63b8ff" d="M521.14,-176.95C571.78,-172.39 665.99,-160.88 741.88,-134.25 777.69,-121.68 815.55,-99.32 839.19,-84.12"/>
<polygon fill="#63b8ff" stroke="#63b8ff" points="840.98,-87.13 847.43,-78.72 837.14,-81.27 840.98,-87.13"/>
</a>
</g>
</g>
<!-- Node9 -->
<g id="Node000009" class="node">
<title>Node9</title>
<g id="a_Node000009"><a xlink:title=" ">
<polygon fill="#e0e0e0" stroke="#999999" points="532.88,-134.25 486.88,-134.25 486.88,-113.5 532.88,-113.5 532.88,-134.25"/>
<text xml:space="preserve" text-anchor="middle" x="509.88" y="-120.75" font-family="Helvetica,sans-Serif" font-size="10.00">task.h</text>
</a>
</g>
</g>
<!-- Node7&#45;&gt;Node9 -->
<g id="edge9_Node000007_Node000009" class="edge">
<title>Node7&#45;&gt;Node9</title>
<g id="a_edge9_Node000007_Node000009"><a xlink:title=" ">
<path fill="none" stroke="#63b8ff" d="M489.34,-169.84C492.51,-162.91 496.86,-153.37 500.75,-144.86"/>
<polygon fill="#63b8ff" stroke="#63b8ff" points="503.85,-146.51 504.82,-135.96 497.48,-143.6 503.85,-146.51"/>
</a>
</g>
</g>
<!-- Node7&#45;&gt;Node10 -->
<g id="edge11_Node000007_Node000010" class="edge">
<title>Node7&#45;&gt;Node10</title>
<g id="a_edge11_Node000007_Node000010"><a xlink:title=" ">
<path fill="none" stroke="#63b8ff" d="M448.39,-177.31C396.97,-173.15 300.86,-162.09 223.88,-134.25 189.69,-121.89 153.95,-99.64 131.56,-84.39"/>
<polygon fill="#63b8ff" stroke="#63b8ff" points="133.72,-81.63 123.51,-78.8 129.73,-87.38 133.72,-81.63"/>
</a>
</g>
</g>
<!-- Node7&#45;&gt;Node11 -->
<g id="edge12_Node000007_Node000011" class="edge">
<title>Node7&#45;&gt;Node11</title>
<g id="a_edge12_Node000007_Node000011"><a xlink:title=" ">
<path fill="none" stroke="#63b8ff" d="M474.81,-170.12C454.97,-151.37 410.53,-109.38 385.3,-85.53"/>
<polygon fill="#63b8ff" stroke="#63b8ff" points="388.02,-83.29 378.35,-78.96 383.21,-88.38 388.02,-83.29"/>
</a>
</g>
</g>
<!-- Node7&#45;&gt;Node12 -->
<g id="edge13_Node000007_Node000012" class="edge">
<title>Node7&#45;&gt;Node12</title>
<g id="a_edge13_Node000007_Node000012"><a xlink:title=" ">
<path fill="none" stroke="#63b8ff" d="M448.61,-177.56C390.3,-173.52 272.55,-162.36 176.88,-134.25 133.79,-121.59 87.01,-98.61 58.31,-83.36"/>
<polygon fill="#63b8ff" stroke="#63b8ff" points="60.04,-80.31 49.57,-78.65 56.71,-86.47 60.04,-80.31"/>
</a>
</g>
</g>
<!-- Node13 -->
<g id="Node000013" class="node">
<title>Node13</title>
<g id="a_Node000013"><a xlink:href="cmd__handle_8h.html" target="_top" xlink:title=" ">
<polygon fill="white" stroke="#666666" points="1047,-134.25 962.75,-134.25 962.75,-113.5 1047,-113.5 1047,-134.25"/>
<text xml:space="preserve" text-anchor="middle" x="1004.88" y="-120.75" font-family="Helvetica,sans-Serif" font-size="10.00">cmd_handle.h</text>
</a>
</g>
</g>
<!-- Node7&#45;&gt;Node13 -->
<g id="edge14_Node000007_Node000013" class="edge">
<title>Node7&#45;&gt;Node13</title>
<g id="a_edge14_Node000007_Node000013"><a xlink:title=" ">
<path fill="none" stroke="#63b8ff" d="M521.49,-177.15C598.93,-171.69 785.23,-157.35 951.43,-134.49"/>
<polygon fill="#63b8ff" stroke="#63b8ff" points="951.42,-138.03 960.84,-133.18 950.46,-131.09 951.42,-138.03"/>
</a>
</g>
</g>
<!-- Node17 -->
<g id="Node000017" class="node">
<title>Node17</title>
<g id="a_Node000017"><a xlink:href="step__shared_8h.html" target="_top" xlink:title=" ">
<polygon fill="white" stroke="#666666" points="317,-134.25 232.75,-134.25 232.75,-113.5 317,-113.5 317,-134.25"/>
<text xml:space="preserve" text-anchor="middle" x="274.88" y="-120.75" font-family="Helvetica,sans-Serif" font-size="10.00">step_shared.h</text>
</a>
</g>
</g>
<!-- Node7&#45;&gt;Node17 -->
<g id="edge20_Node000007_Node000017" class="edge">
<title>Node7&#45;&gt;Node17</title>
<g id="a_edge20_Node000007_Node000017"><a xlink:title=" ">
<path fill="none" stroke="#63b8ff" d="M448.3,-170.09C413.64,-161.05 361.38,-147.43 323.29,-137.5"/>
<polygon fill="#63b8ff" stroke="#63b8ff" points="324.47,-134.19 313.91,-135.05 322.71,-140.96 324.47,-134.19"/>
</a>
</g>
</g>
<!-- Node13&#45;&gt;Node5 -->
<g id="edge18_Node000013_Node000005" class="edge">
<title>Node13&#45;&gt;Node5</title>
<g id="a_edge18_Node000013_Node000005"><a xlink:title=" ">
<path fill="none" stroke="#63b8ff" d="M1010.7,-113.15C1018.28,-99.09 1029.08,-73.01 1015.88,-56.75 995.72,-31.95 910.41,-20.23 852.95,-15.06"/>
<polygon fill="#63b8ff" stroke="#63b8ff" points="853.27,-11.57 843.01,-14.21 852.67,-18.55 853.27,-11.57"/>
</a>
</g>
</g>
<!-- Node13&#45;&gt;Node8 -->
<g id="edge16_Node000013_Node000008" class="edge">
<title>Node13&#45;&gt;Node8</title>
<g id="a_edge16_Node000013_Node000008"><a xlink:title=" ">
<path fill="none" stroke="#63b8ff" d="M979.49,-113.09C956.97,-104.41 923.85,-91.63 898.65,-81.92"/>
<polygon fill="#63b8ff" stroke="#63b8ff" points="900.04,-78.7 889.45,-78.37 897.53,-85.24 900.04,-78.7"/>
</a>
</g>
</g>
<!-- Node14 -->
<g id="Node000014" class="node">
<title>Node14</title>
<g id="a_Node000014"><a xlink:title=" ">
<polygon fill="#e0e0e0" stroke="#999999" points="1225.25,-77.5 1172.5,-77.5 1172.5,-56.75 1225.25,-56.75 1225.25,-77.5"/>
<text xml:space="preserve" text-anchor="middle" x="1198.88" y="-64" font-family="Helvetica,sans-Serif" font-size="10.00">stdint.h</text>
</a>
</g>
</g>
<!-- Node13&#45;&gt;Node14 -->
<g id="edge15_Node000013_Node000014" class="edge">
<title>Node13&#45;&gt;Node14</title>
<g id="a_edge15_Node000013_Node000014"><a xlink:title=" ">
<path fill="none" stroke="#63b8ff" d="M1039.56,-113.09C1073.88,-103.4 1126.25,-88.62 1161.49,-78.68"/>
<polygon fill="#63b8ff" stroke="#63b8ff" points="1162.15,-82.13 1170.82,-76.04 1160.25,-75.39 1162.15,-82.13"/>
</a>
</g>
</g>
<!-- Node15 -->
<g id="Node000015" class="node">
<title>Node15</title>
<g id="a_Node000015"><a xlink:title=" ">
<polygon fill="#e0e0e0" stroke="#999999" points="1154.38,-77.5 1063.38,-77.5 1063.38,-56.75 1154.38,-56.75 1154.38,-77.5"/>
<text xml:space="preserve" text-anchor="middle" x="1108.88" y="-64" font-family="Helvetica,sans-Serif" font-size="10.00">event_groups.h</text>
</a>
</g>
</g>
<!-- Node13&#45;&gt;Node15 -->
<g id="edge17_Node000013_Node000015" class="edge">
<title>Node13&#45;&gt;Node15</title>
<g id="a_edge17_Node000013_Node000015"><a xlink:title=" ">
<path fill="none" stroke="#63b8ff" d="M1023.47,-113.09C1039.29,-104.76 1062.27,-92.66 1080.41,-83.11"/>
<polygon fill="#63b8ff" stroke="#63b8ff" points="1081.89,-86.29 1089.1,-78.53 1078.62,-80.09 1081.89,-86.29"/>
</a>
</g>
</g>
<!-- Node16 -->
<g id="Node000016" class="node">
<title>Node16</title>
<g id="a_Node000016"><a xlink:title=" ">
<polygon fill="#e0e0e0" stroke="#999999" points="1006.88,-77.5 954.88,-77.5 954.88,-56.75 1006.88,-56.75 1006.88,-77.5"/>
<text xml:space="preserve" text-anchor="middle" x="980.88" y="-64" font-family="Helvetica,sans-Serif" font-size="10.00">stdlib.h</text>
</a>
</g>
</g>
<!-- Node13&#45;&gt;Node16 -->
<g id="edge19_Node000013_Node000016" class="edge">
<title>Node13&#45;&gt;Node16</title>
<g id="a_edge19_Node000013_Node000016"><a xlink:title=" ">
<path fill="none" stroke="#63b8ff" d="M1000.58,-113.09C997.55,-106.16 993.37,-96.62 989.64,-88.11"/>
<polygon fill="#63b8ff" stroke="#63b8ff" points="992.96,-86.97 985.74,-79.21 986.55,-89.78 992.96,-86.97"/>
</a>
</g>
</g>
<!-- Node17&#45;&gt;Node4 -->
<g id="edge21_Node000017_Node000004" class="edge">
<title>Node17&#45;&gt;Node4</title>
<g id="a_edge21_Node000017_Node000004"><a xlink:title=" ">
<path fill="none" stroke="#63b8ff" d="M314.28,-113.02C350.45,-103.98 404.22,-90.54 443.5,-80.72"/>
<polygon fill="#63b8ff" stroke="#63b8ff" points="444.1,-84.18 452.95,-78.36 442.4,-77.39 444.1,-84.18"/>
</a>
</g>
</g>
<!-- Node17&#45;&gt;Node5 -->
<g id="edge23_Node000017_Node000005" class="edge">
<title>Node17&#45;&gt;Node5</title>
<g id="a_edge23_Node000017_Node000005"><a xlink:title=" ">
<path fill="none" stroke="#63b8ff" d="M279.17,-113.19C286.39,-98.17 302.53,-69.65 325.88,-56.75 361.83,-36.89 628.12,-20.47 744.59,-14.15"/>
<polygon fill="#63b8ff" stroke="#63b8ff" points="744.74,-17.65 754.54,-13.62 744.36,-10.66 744.74,-17.65"/>
</a>
</g>
</g>
<!-- Node17&#45;&gt;Node10 -->
<g id="edge24_Node000017_Node000010" class="edge">
<title>Node17&#45;&gt;Node10</title>
<g id="a_edge24_Node000017_Node000010"><a xlink:title=" ">
<path fill="none" stroke="#63b8ff" d="M245.2,-113.09C218.49,-104.28 179,-91.25 149.39,-81.49"/>
<polygon fill="#63b8ff" stroke="#63b8ff" points="150.61,-78.2 140.01,-78.39 148.41,-84.85 150.61,-78.2"/>
</a>
</g>
</g>
<!-- Node17&#45;&gt;Node11 -->
<g id="edge25_Node000017_Node000011" class="edge">
<title>Node17&#45;&gt;Node11</title>
<g id="a_edge25_Node000017_Node000011"><a xlink:title=" ">
<path fill="none" stroke="#63b8ff" d="M291.32,-113.09C305.06,-104.91 324.89,-93.11 340.79,-83.65"/>
<polygon fill="#63b8ff" stroke="#63b8ff" points="342.47,-86.72 349.27,-78.6 338.89,-80.71 342.47,-86.72"/>
</a>
</g>
</g>
<!-- Node17&#45;&gt;Node12 -->
<g id="edge26_Node000017_Node000012" class="edge">
<title>Node17&#45;&gt;Node12</title>
<g id="a_edge26_Node000017_Node000012"><a xlink:title=" ">
<path fill="none" stroke="#63b8ff" d="M232.26,-113.54C193.3,-104.98 133.8,-91.82 72.86,-77.94"/>
<polygon fill="#63b8ff" stroke="#63b8ff" points="73.88,-74.58 63.35,-75.76 72.32,-81.4 73.88,-74.58"/>
</a>
</g>
</g>
<!-- Node18 -->
<g id="Node000018" class="node">
<title>Node18</title>
<g id="a_Node000018"><a xlink:title=" ">
<polygon fill="#e0e0e0" stroke="#999999" points="279.12,-77.5 156.62,-77.5 156.62,-56.75 279.12,-56.75 279.12,-77.5"/>
<text xml:space="preserve" text-anchor="middle" x="217.88" y="-64" font-family="Helvetica,sans-Serif" font-size="10.00">fsl_device_registers.h</text>
</a>
</g>
</g>
<!-- Node17&#45;&gt;Node18 -->
<g id="edge22_Node000017_Node000018" class="edge">
<title>Node17&#45;&gt;Node18</title>
<g id="a_edge22_Node000017_Node000018"><a xlink:title=" ">
<path fill="none" stroke="#63b8ff" d="M264.68,-113.09C256.74,-105.46 245.51,-94.67 236.04,-85.57"/>
<polygon fill="#63b8ff" stroke="#63b8ff" points="238.71,-83.28 229.07,-78.88 233.86,-88.33 238.71,-83.28"/>
</a>
</g>
</g>
<!-- Node19&#45;&gt;Node5 -->
<g id="edge30_Node000019_Node000005" class="edge">
<title>Node19&#45;&gt;Node5</title>
<g id="a_edge30_Node000019_Node000005"><a xlink:title=" ">
<path fill="none" stroke="#63b8ff" d="M727.58,-169.9C739.53,-152.22 764.66,-113.31 779.88,-77.5 786.17,-62.69 791.1,-45.15 794.36,-31.86"/>
<polygon fill="#63b8ff" stroke="#63b8ff" points="797.68,-33.05 796.53,-22.52 790.86,-31.46 797.68,-33.05"/>
</a>
</g>
</g>
<!-- Node19&#45;&gt;Node6 -->
<g id="edge32_Node000019_Node000006" class="edge">
<title>Node19&#45;&gt;Node6</title>
<g id="a_edge32_Node000019_Node000006"><a xlink:title=" ">
<path fill="none" stroke="#63b8ff" d="M682.41,-169.76C661.27,-162.74 635.78,-151.43 617.88,-134.25 590.2,-107.68 599.68,-89.61 579.88,-56.75 574.43,-47.72 567.69,-38.21 561.72,-30.24"/>
<polygon fill="#63b8ff" stroke="#63b8ff" points="564.51,-28.13 555.65,-22.33 558.96,-32.39 564.51,-28.13"/>
</a>
</g>
</g>
<!-- Node19&#45;&gt;Node13 -->
<g id="edge31_Node000019_Node000013" class="edge">
<title>Node19&#45;&gt;Node13</title>
<g id="a_edge31_Node000019_Node000013"><a xlink:title=" ">
<path fill="none" stroke="#63b8ff" d="M768.09,-170.52C818.64,-160.78 898.68,-145.35 951.49,-135.17"/>
<polygon fill="#63b8ff" stroke="#63b8ff" points="952.01,-138.63 961.16,-133.3 950.68,-131.76 952.01,-138.63"/>
</a>
</g>
</g>
<!-- Node20 -->
<g id="Node000020" class="node">
<title>Node20</title>
<g id="a_Node000020"><a xlink:href="tmc2209__shared_8h.html" target="_top" xlink:title=" ">
<polygon fill="white" stroke="#666666" points="732.88,-134.25 626.88,-134.25 626.88,-113.5 732.88,-113.5 732.88,-134.25"/>
<text xml:space="preserve" text-anchor="middle" x="679.88" y="-120.75" font-family="Helvetica,sans-Serif" font-size="10.00">tmc2209_shared.h</text>
</a>
</g>
</g>
<!-- Node19&#45;&gt;Node20 -->
<g id="edge28_Node000019_Node000020" class="edge">
<title>Node19&#45;&gt;Node20</title>
<g id="a_edge28_Node000019_Node000020"><a xlink:title=" ">
<path fill="none" stroke="#63b8ff" d="M713.55,-169.84C708.12,-162.6 700.57,-152.51 693.99,-143.72"/>
<polygon fill="#63b8ff" stroke="#63b8ff" points="696.84,-141.7 688.05,-135.79 691.24,-145.89 696.84,-141.7"/>
</a>
</g>
</g>
<!-- Node21 -->
<g id="Node000021" class="node">
<title>Node21</title>
<g id="a_Node000021"><a xlink:title=" ">
<polygon fill="#e0e0e0" stroke="#999999" points="770.5,-77.5 665.25,-77.5 665.25,-56.75 770.5,-56.75 770.5,-77.5"/>
<text xml:space="preserve" text-anchor="middle" x="717.88" y="-64" font-family="Helvetica,sans-Serif" font-size="10.00">fsl_uart_freertos.h</text>
</a>
</g>
</g>
<!-- Node20&#45;&gt;Node21 -->
<g id="edge29_Node000020_Node000021" class="edge">
<title>Node20&#45;&gt;Node21</title>
<g id="a_edge29_Node000020_Node000021"><a xlink:title=" ">
<path fill="none" stroke="#63b8ff" d="M686.67,-113.09C691.64,-105.92 698.54,-95.98 704.6,-87.26"/>
<polygon fill="#63b8ff" stroke="#63b8ff" points="707.45,-89.28 710.28,-79.07 701.7,-85.29 707.45,-89.28"/>
</a>
</g>
</g>
<!-- Node22&#45;&gt;Node3 -->
<g id="edge37_Node000022_Node000003" class="edge">
<title>Node22&#45;&gt;Node3</title>
<g id="a_edge37_Node000022_Node000003"><a xlink:title=" ">
<path fill="none" stroke="#63b8ff" d="M760.12,-285.63C688.59,-274.63 556.65,-254.33 491.43,-244.31"/>
<polygon fill="#63b8ff" stroke="#63b8ff" points="491.98,-240.85 481.56,-242.79 490.91,-247.77 491.98,-240.85"/>
</a>
</g>
</g>
<!-- Node22&#45;&gt;Node8 -->
<g id="edge38_Node000022_Node000008" class="edge">
<title>Node22&#45;&gt;Node8</title>
<g id="a_edge38_Node000022_Node000008"><a xlink:title=" ">
<path fill="none" stroke="#63b8ff" d="M811.2,-283.46C819.31,-249.63 846.56,-136.11 857.88,-88.94"/>
<polygon fill="#63b8ff" stroke="#63b8ff" points="861.28,-89.77 860.21,-79.23 854.47,-88.14 861.28,-89.77"/>
</a>
</g>
</g>
<!-- Node22&#45;&gt;Node13 -->
<g id="edge40_Node000022_Node000013" class="edge">
<title>Node22&#45;&gt;Node13</title>
<g id="a_edge40_Node000022_Node000013"><a xlink:title=" ">
<path fill="none" stroke="#63b8ff" d="M820.26,-283.35C852.4,-255.76 944.12,-177.02 984.91,-142.02"/>
<polygon fill="#63b8ff" stroke="#63b8ff" points="987,-144.83 992.31,-135.66 982.44,-139.52 987,-144.83"/>
</a>
</g>
</g>
<!-- Node23 -->
<g id="Node000023" class="node">
<title>Node23</title>
<g id="a_Node000023"><a xlink:title=" ">
<polygon fill="#e0e0e0" stroke="#999999" points="808.38,-247.75 753.38,-247.75 753.38,-227 808.38,-227 808.38,-247.75"/>
<text xml:space="preserve" text-anchor="middle" x="780.88" y="-234.25" font-family="Helvetica,sans-Serif" font-size="10.00">queue.h</text>
</a>
</g>
</g>
<!-- Node22&#45;&gt;Node23 -->
<g id="edge39_Node000022_Node000023" class="edge">
<title>Node22&#45;&gt;Node23</title>
<g id="a_edge39_Node000022_Node000023"><a xlink:title=" ">
<path fill="none" stroke="#63b8ff" d="M803.87,-283.34C800.29,-276.33 795.34,-266.66 790.95,-258.08"/>
<polygon fill="#63b8ff" stroke="#63b8ff" points="794.2,-256.74 786.53,-249.43 787.96,-259.92 794.2,-256.74"/>
</a>
</g>
</g>
<!-- Node24&#45;&gt;Node5 -->
<g id="edge43_Node000024_Node000005" class="edge">
<title>Node24&#45;&gt;Node5</title>
<g id="a_edge43_Node000024_Node000005"><a xlink:title=" ">
<path fill="none" stroke="#63b8ff" d="M924.96,-113.12C924.58,-99.02 921.85,-72.87 907.88,-56.75 893.66,-40.35 872.56,-29.75 852.69,-22.96"/>
<polygon fill="#63b8ff" stroke="#63b8ff" points="853.87,-19.66 843.28,-20.02 851.78,-26.34 853.87,-19.66"/>
</a>
</g>
</g>
<!-- Node24&#45;&gt;Node8 -->
<g id="edge42_Node000024_Node000008" class="edge">
<title>Node24&#45;&gt;Node8</title>
<g id="a_edge42_Node000024_Node000008"><a xlink:title=" ">
<path fill="none" stroke="#63b8ff" d="M913.79,-113.09C905.06,-105.38 892.68,-94.45 882.31,-85.29"/>
<polygon fill="#63b8ff" stroke="#63b8ff" points="884.81,-82.83 875,-78.83 880.18,-88.07 884.81,-82.83"/>
</a>
</g>
</g>
<!-- Node26&#45;&gt;Node5 -->
<g id="edge51_Node000026_Node000005" class="edge">
<title>Node26&#45;&gt;Node5</title>
<g id="a_edge51_Node000026_Node000005"><a xlink:title=" ">
<path fill="none" stroke="#63b8ff" d="M1129.87,-169.81C1177.78,-149.64 1274.35,-101.67 1233.88,-56.75 1208.81,-28.93 964.07,-17.04 853.1,-13.05"/>
<polygon fill="#63b8ff" stroke="#63b8ff" points="853.46,-9.56 843.35,-12.71 853.22,-16.56 853.46,-9.56"/>
</a>
</g>
</g>
<!-- Node26&#45;&gt;Node8 -->
<g id="edge49_Node000026_Node000008" class="edge">
<title>Node26&#45;&gt;Node8</title>
<g id="a_edge49_Node000026_Node000008"><a xlink:title=" ">
<path fill="none" stroke="#63b8ff" d="M1067.53,-175.43C1014.87,-168.86 922.26,-154.76 895.88,-134.25 881.33,-122.94 872.72,-103.51 867.96,-88.63"/>
<polygon fill="#63b8ff" stroke="#63b8ff" points="871.43,-88.04 865.34,-79.37 864.7,-89.95 871.43,-88.04"/>
</a>
</g>
</g>
<!-- Node26&#45;&gt;Node13 -->
<g id="edge52_Node000026_Node000013" class="edge">
<title>Node26&#45;&gt;Node13</title>
<g id="a_edge52_Node000026_Node000013"><a xlink:title=" ">
<path fill="none" stroke="#63b8ff" d="M1087,-169.84C1071.78,-161.51 1049.68,-149.41 1032.24,-139.86"/>
<polygon fill="#63b8ff" stroke="#63b8ff" points="1034.38,-137.04 1023.93,-135.31 1031.02,-143.18 1034.38,-137.04"/>
</a>
</g>
</g>
<!-- Node26&#45;&gt;Node14 -->
<g id="edge48_Node000026_Node000014" class="edge">
<title>Node26&#45;&gt;Node14</title>
<g id="a_edge48_Node000026_Node000014"><a xlink:title=" ">
<path fill="none" stroke="#63b8ff" d="M1112.89,-170.12C1128.49,-151.61 1163.17,-110.47 1183.4,-86.48"/>
<polygon fill="#63b8ff" stroke="#63b8ff" points="1185.87,-88.98 1189.64,-79.08 1180.52,-84.47 1185.87,-88.98"/>
</a>
</g>
</g>
<!-- Node26&#45;&gt;Node15 -->
<g id="edge50_Node000026_Node000015" class="edge">
<title>Node26&#45;&gt;Node15</title>
<g id="a_edge50_Node000026_Node000015"><a xlink:title=" ">
<path fill="none" stroke="#63b8ff" d="M1105.22,-170.12C1105.85,-152.35 1107.24,-113.72 1108.11,-89.43"/>
<polygon fill="#63b8ff" stroke="#63b8ff" points="1111.61,-89.56 1108.47,-79.44 1104.61,-89.31 1111.61,-89.56"/>
</a>
</g>
</g>
</g>
</svg>
