<?xml version="1.0" encoding="UTF-8" standalone="no"?>
<!DOCTYPE svg PUBLIC "-//W3C//DTD SVG 1.1//EN"
 "http://www.w3.org/Graphics/SVG/1.1/DTD/svg11.dtd">
<!-- Generated by graphviz version 14.1.3 (0)
 -->
<!-- Title: source/motor.h Pages: 1 -->
<svg width="488pt" height="86pt"
 viewBox="0.00 0.00 488.00 86.00" xmlns="http://www.w3.org/2000/svg" xmlns:xlink="http://www.w3.org/1999/xlink">
<g id="graph0" class="graph" transform="scale(1 1) rotate(0) translate(4 81.5)">
<title>source/motor.h</title>
<!-- Node1 -->
<g id="Node000001" class="node">
<title>Node1</title>
<g id="a_Node000001"><a xlink:title=" ">
<polygon fill="#999999" stroke="#666666" points="279.12,-77.5 190.38,-77.5 190.38,-56.75 279.12,-56.75 279.12,-77.5"/>
<text xml:space="preserve" text-anchor="middle" x="234.75" y="-64" font-family="Helvetica,sans-Serif" font-size="10.00">source/motor.h</text>
</a>
</g>
</g>
<!-- Node2 -->
<g id="Node000002" class="node">
<title>Node2</title>
<g id="a_Node000002"><a xlink:href="application_8c.html" target="_top" xlink:title=" ">
<polygon fill="white" stroke="#666666" points="113.5,-20.75 0,-20.75 0,0 113.5,0 113.5,-20.75"/>
<text xml:space="preserve" text-anchor="middle" x="56.75" y="-7.25" font-family="Helvetica,sans-Serif" font-size="10.00">source/application.c</text>
</a>
</g>
</g>
<!-- Node1&#45;&gt;Node2 -->
<g id="edge1_Node000001_Node000002" class="edge">
<title>Node1&#45;&gt;Node2</title>
<g id="a_edge1_Node000001_Node000002"><a xlink:title=" ">
<path fill="none" stroke="#63b8ff" d="M192.17,-53.03C160.33,-43.24 117.5,-30.06 88.6,-21.17"/>
<polygon fill="#63b8ff" stroke="#63b8ff" points="190.89,-56.3 201.48,-55.89 192.95,-49.61 190.89,-56.3"/>
</a>
</g>
</g>
<!-- Node3 -->
<g id="Node000003" class="node">
<title>Node3</title>
<g id="a_Node000003"><a xlink:href="motor_8c.html" target="_top" xlink:title=" ">
<polygon fill="white" stroke="#666666" points="219.75,-20.75 131.75,-20.75 131.75,0 219.75,0 219.75,-20.75"/>
<text xml:space="preserve" text-anchor="middle" x="175.75" y="-7.25" font-family="Helvetica,sans-Serif" font-size="10.00">source/motor.c</text>
</a>
</g>
</g>
<!-- Node1&#45;&gt;Node3 -->
<g id="edge2_Node000001_Node000003" class="edge">
<title>Node1&#45;&gt;Node3</title>
<g id="a_edge2_Node000001_Node000003"><a xlink:title=" ">
<path fill="none" stroke="#63b8ff" d="M215.84,-48.58C206.03,-39.47 194.4,-28.68 186.21,-21.08"/>
<polygon fill="#63b8ff" stroke="#63b8ff" points="213.38,-51.07 223.09,-55.31 218.14,-45.94 213.38,-51.07"/>
</a>
</g>
</g>
<!-- Node4 -->
<g id="Node000004" class="node">
<title>Node4</title>
<g id="a_Node000004"><a xlink:href="motorCmd_8c.html" target="_top" xlink:title=" ">
<polygon fill="white" stroke="#666666" points="349.38,-20.75 238.12,-20.75 238.12,0 349.38,0 349.38,-20.75"/>
<text xml:space="preserve" text-anchor="middle" x="293.75" y="-7.25" font-family="Helvetica,sans-Serif" font-size="10.00">source/motorCmd.c</text>
</a>
</g>
</g>
<!-- Node1&#45;&gt;Node4 -->
<g id="edge3_Node000001_Node000004" class="edge">
<title>Node1&#45;&gt;Node4</title>
<g id="a_edge3_Node000001_Node000004"><a xlink:title=" ">
<path fill="none" stroke="#63b8ff" d="M253.66,-48.58C263.47,-39.47 275.1,-28.68 283.29,-21.08"/>
<polygon fill="#63b8ff" stroke="#63b8ff" points="251.36,-45.94 246.41,-55.31 256.12,-51.07 251.36,-45.94"/>
</a>
</g>
</g>
<!-- Node5 -->
<g id="Node000005" class="node">
<title>Node5</title>
<g id="a_Node000005"><a xlink:href="motor__test_8c.html" target="_top" xlink:title=" ">
<polygon fill="white" stroke="#666666" points="480.12,-20.75 367.38,-20.75 367.38,0 480.12,0 480.12,-20.75"/>
<text xml:space="preserve" text-anchor="middle" x="423.75" y="-7.25" font-family="Helvetica,sans-Serif" font-size="10.00">source/motor_test.c</text>
</a>
</g>
</g>
<!-- Node1&#45;&gt;Node5 -->
<g id="edge4_Node000001_Node000005" class="edge">
<title>Node1&#45;&gt;Node5</title>
<g id="a_edge4_Node000001_Node000005"><a xlink:title=" ">
<path fill="none" stroke="#63b8ff" d="M279.52,-53.16C313.37,-43.35 359.11,-30.1 389.94,-21.17"/>
<polygon fill="#63b8ff" stroke="#63b8ff" points="278.62,-49.77 269.99,-55.92 280.57,-56.49 278.62,-49.77"/>
</a>
</g>
</g>
</g>
</svg>
