<?xml version="1.0" encoding="UTF-8" standalone="no"?>
<!DOCTYPE svg PUBLIC "-//W3C//DTD SVG 1.1//EN"
 "http://www.w3.org/Graphics/SVG/1.1/DTD/svg11.dtd">
<!-- Generated by graphviz version 14.1.4 (0)
 -->
<!-- Title: source/motion/motor/motor_convert.h Pages: 1 -->
<!--zoomable 325 -->

<svg id="main" version="1.1" xmlns="http://www.w3.org/2000/svg" xmlns:xlink="http://www.w3.org/1999/xlink" xml:space="preserve" onload="init(evt)">

<style type="text/css"><![CDATA[
.node, .edge {opacity: 0.7;}
.node.selected, .edge.selected {opacity: 1;}
.edge:hover path { stroke: red; }
.edge:hover polygon { stroke: red; fill: red; }
]]></style>

<defs>
  <circle id="rim" cx="0" cy="0" r="7"/>
  <circle id="rim2" cx="0" cy="0" r="3.5"/>
  <g id="zoomPlus">
    <use xlink:href="#rim" fill="#404040"><set attributeName="fill" to="#808080" begin="zoomplus.mouseover" end="zoomplus.mouseout"/></use>
    <path d="M-4,0h8M0,-4v8" fill="none" stroke="white" stroke-width="1.5" pointer-events="none"/>
  </g>
  <g id="zoomMin">
    <use xlink:href="#rim" fill="#404040"><set attributeName="fill" to="#808080" begin="zoomminus.mouseover" end="zoomminus.mouseout"/></use>
    <path d="M-4,0h8" fill="none" stroke="white" stroke-width="1.5" pointer-events="none"/>
  </g>
  <g id="arrowUp" transform="translate(30 24)">
    <use xlink:href="#rim"/>
    <path pointer-events="none" fill="none" stroke="white" stroke-width="1.5" d="M0,-3.0v7 M-2.5,-0.5L0,-3.0L2.5,-0.5"/>
  </g>
  <g id="arrowRight" transform="rotate(90) translate(36 -43)">
    <use xlink:href="#rim"/>
    <path pointer-events="none" fill="none" stroke="white" stroke-width="1.5" d="M0,-3.0v7 M-2.5,-0.5L0,-3.0L2.5,-0.5"/>
  </g>
  <g id="arrowDown" transform="rotate(180) translate(-30 -48)">
    <use xlink:href="#rim"/>
    <path pointer-events="none" fill="none" stroke="white" stroke-width="1.5" d="M0,-3.0v7 M-2.5,-0.5L0,-3.0L2.5,-0.5"/>
  </g>
  <g id="arrowLeft" transform="rotate(270) translate(-36 17)">
    <use xlink:href="#rim"/>
    <path pointer-events="none" fill="none" stroke="white" stroke-width="1.5" d="M0,-3.0v7 M-2.5,-0.5L0,-3.0L2.5,-0.5"/>
  </g>
  <g id="resetDef">
    <use xlink:href="#rim2" fill="#404040"><set attributeName="fill" to="#808080" begin="reset.mouseover" end="reset.mouseout"/></use>
  </g>
</defs>
<script type="application/ecmascript">
var viewWidth = 1265;
var viewHeight = 325;
var sectionId = 'dynsection-0';
</script>
<script type="application/ecmascript" xlink:href="svg.min.js"/>
<svg id="graph" class="graph">
<g id="viewport">
<title>source/motion/motor/motor_convert.h</title>
<!-- Node1 -->
<g id="Node000001" class="node">
<title>Node1</title>
<g id="a_Node000001"><a xlink:title=" ">
<polygon fill="#999999" stroke="#666666" points="908.03,-317.25 790.03,-317.25 790.03,-283.75 908.03,-283.75 908.03,-317.25"/>
<text xml:space="preserve" text-anchor="start" x="798.03" y="-303.75" font-family="Helvetica,sans-Serif" font-size="10.00">source/motion/motor</text>
<text xml:space="preserve" text-anchor="middle" x="849.03" y="-291" font-family="Helvetica,sans-Serif" font-size="10.00">/motor_convert.h</text>
</a>
</g>
</g>
<!-- Node2 -->
<g id="Node000002" class="node">
<title>Node2</title>
<g id="a_Node000002"><a xlink:href="motor__core_8h.html" target="_top" xlink:title=" ">
<polygon fill="white" stroke="#666666" points="889.28,-247.75 808.78,-247.75 808.78,-227 889.28,-227 889.28,-247.75"/>
<text xml:space="preserve" text-anchor="middle" x="849.03" y="-234.25" font-family="Helvetica,sans-Serif" font-size="10.00">motor_core.h</text>
</a>
</g>
</g>
<!-- Node1&#45;&gt;Node2 -->
<g id="edge1_Node000001_Node000002" class="edge">
<title>Node1&#45;&gt;Node2</title>
<g id="a_edge1_Node000001_Node000002"><a xlink:title=" ">
<path fill="none" stroke="#63b8ff" d="M849.03,-283.44C849.03,-276.1 849.03,-267.32 849.03,-259.46"/>
<polygon fill="#63b8ff" stroke="#63b8ff" points="852.53,-259.73 849.03,-249.73 845.53,-259.73 852.53,-259.73"/>
</a>
</g>
</g>
<!-- Node3 -->
<g id="Node000003" class="node">
<title>Node3</title>
<g id="a_Node000003"><a xlink:href="pca9555a_8h.html" target="_top" xlink:title=" ">
<polygon fill="white" stroke="#666666" points="719.03,-77.5 565.03,-77.5 565.03,-56.75 719.03,-56.75 719.03,-77.5"/>
<text xml:space="preserve" text-anchor="middle" x="642.03" y="-64" font-family="Helvetica,sans-Serif" font-size="10.00">driver/pca9555a/pca9555a.h</text>
</a>
</g>
</g>
<!-- Node2&#45;&gt;Node3 -->
<g id="edge2_Node000002_Node000003" class="edge">
<title>Node2&#45;&gt;Node3</title>
<g id="a_edge2_Node000002_Node000003"><a xlink:title=" ">
<path fill="none" stroke="#63b8ff" d="M831.63,-226.73C802.35,-210.05 742.08,-173.78 698.03,-134.25 681.99,-119.86 666.37,-100.87 655.72,-86.94"/>
<polygon fill="#63b8ff" stroke="#63b8ff" points="658.6,-84.95 649.81,-79.03 653,-89.14 658.6,-84.95"/>
</a>
</g>
</g>
<!-- Node6 -->
<g id="Node000006" class="node">
<title>Node6</title>
<g id="a_Node000006"><a xlink:title=" ">
<polygon fill="#e0e0e0" stroke="#999999" points="1257.41,-191 1168.66,-191 1168.66,-170.25 1257.41,-170.25 1257.41,-191"/>
<text xml:space="preserve" text-anchor="middle" x="1213.03" y="-177.5" font-family="Helvetica,sans-Serif" font-size="10.00">MK22F51212.h</text>
</a>
</g>
</g>
<!-- Node2&#45;&gt;Node6 -->
<g id="edge5_Node000002_Node000006" class="edge">
<title>Node2&#45;&gt;Node6</title>
<g id="a_edge5_Node000002_Node000006"><a xlink:title=" ">
<path fill="none" stroke="#63b8ff" d="M889.64,-230.52C948.28,-222.04 1060.03,-205.72 1155.03,-191 1155.71,-190.9 1156.39,-190.79 1157.07,-190.68"/>
<polygon fill="#63b8ff" stroke="#63b8ff" points="1157.56,-194.15 1166.9,-189.14 1156.47,-187.23 1157.56,-194.15"/>
</a>
</g>
</g>
<!-- Node7 -->
<g id="Node000007" class="node">
<title>Node7</title>
<g id="a_Node000007"><a xlink:href="step__core_8h.html" target="_top" xlink:title=" ">
<polygon fill="white" stroke="#666666" points="885.16,-191 812.91,-191 812.91,-170.25 885.16,-170.25 885.16,-191"/>
<text xml:space="preserve" text-anchor="middle" x="849.03" y="-177.5" font-family="Helvetica,sans-Serif" font-size="10.00">step_core.h</text>
</a>
</g>
</g>
<!-- Node2&#45;&gt;Node7 -->
<g id="edge6_Node000002_Node000007" class="edge">
<title>Node2&#45;&gt;Node7</title>
<g id="a_edge6_Node000002_Node000007"><a xlink:title=" ">
<path fill="none" stroke="#63b8ff" d="M849.03,-226.59C849.03,-219.97 849.03,-210.97 849.03,-202.77"/>
<polygon fill="#63b8ff" stroke="#63b8ff" points="852.53,-202.84 849.03,-192.84 845.53,-202.84 852.53,-202.84"/>
</a>
</g>
</g>
<!-- Node10 -->
<g id="Node000010" class="node">
<title>Node10</title>
<g id="a_Node000010"><a xlink:title=" ">
<polygon fill="#e0e0e0" stroke="#999999" points="1173.41,-77.5 1114.66,-77.5 1114.66,-56.75 1173.41,-56.75 1173.41,-77.5"/>
<text xml:space="preserve" text-anchor="middle" x="1144.03" y="-64" font-family="Helvetica,sans-Serif" font-size="10.00">fsl_ftm.h</text>
</a>
</g>
</g>
<!-- Node2&#45;&gt;Node10 -->
<g id="edge33_Node000002_Node000010" class="edge">
<title>Node2&#45;&gt;Node10</title>
<g id="a_edge33_Node000002_Node000010"><a xlink:title=" ">
<path fill="none" stroke="#63b8ff" d="M889.48,-227.2C918.06,-219.77 956.7,-207.77 988.03,-191 1043.2,-161.48 1098.55,-112.06 1126.1,-85.79"/>
<polygon fill="#63b8ff" stroke="#63b8ff" points="1128.48,-88.35 1133.24,-78.89 1123.62,-83.32 1128.48,-88.35"/>
</a>
</g>
</g>
<!-- Node11 -->
<g id="Node000011" class="node">
<title>Node11</title>
<g id="a_Node000011"><a xlink:title=" ">
<polygon fill="#e0e0e0" stroke="#999999" points="1096.66,-77.5 1033.41,-77.5 1033.41,-56.75 1096.66,-56.75 1096.66,-77.5"/>
<text xml:space="preserve" text-anchor="middle" x="1065.03" y="-64" font-family="Helvetica,sans-Serif" font-size="10.00">fsl_gpio.h</text>
</a>
</g>
</g>
<!-- Node2&#45;&gt;Node11 -->
<g id="edge34_Node000002_Node000011" class="edge">
<title>Node2&#45;&gt;Node11</title>
<g id="a_edge34_Node000002_Node000011"><a xlink:title=" ">
<path fill="none" stroke="#63b8ff" d="M878.67,-226.62C918.61,-212.16 989.78,-181.52 1034.03,-134.25 1046.22,-121.23 1054.37,-102.56 1059.24,-88.38"/>
<polygon fill="#63b8ff" stroke="#63b8ff" points="1062.47,-89.78 1062.13,-79.19 1055.79,-87.68 1062.47,-89.78"/>
</a>
</g>
</g>
<!-- Node12 -->
<g id="Node000012" class="node">
<title>Node12</title>
<g id="a_Node000012"><a xlink:title=" ">
<polygon fill="#e0e0e0" stroke="#999999" points="836.91,-77.5 775.16,-77.5 775.16,-56.75 836.91,-56.75 836.91,-77.5"/>
<text xml:space="preserve" text-anchor="middle" x="806.03" y="-64" font-family="Helvetica,sans-Serif" font-size="10.00">fsl_port.h</text>
</a>
</g>
</g>
<!-- Node2&#45;&gt;Node12 -->
<g id="edge35_Node000002_Node000012" class="edge">
<title>Node2&#45;&gt;Node12</title>
<g id="a_edge35_Node000002_Node000012"><a xlink:title=" ">
<path fill="none" stroke="#63b8ff" d="M834.66,-226.74C823.97,-218.63 810.2,-205.98 804.03,-191 790.2,-157.42 795.65,-114.16 800.85,-88.95"/>
<polygon fill="#63b8ff" stroke="#63b8ff" points="804.24,-89.85 803.04,-79.32 797.41,-88.3 804.24,-89.85"/>
</a>
</g>
</g>
<!-- Node19 -->
<g id="Node000019" class="node">
<title>Node19</title>
<g id="a_Node000019"><a xlink:href="tmc2209__core_8h.html" target="_top" xlink:title=" ">
<polygon fill="white" stroke="#666666" points="206.03,-191 112.03,-191 112.03,-170.25 206.03,-170.25 206.03,-191"/>
<text xml:space="preserve" text-anchor="middle" x="159.03" y="-177.5" font-family="Helvetica,sans-Serif" font-size="10.00">tmc2209_core.h</text>
</a>
</g>
</g>
<!-- Node2&#45;&gt;Node19 -->
<g id="edge27_Node000002_Node000019" class="edge">
<title>Node2&#45;&gt;Node19</title>
<g id="a_edge27_Node000002_Node000019"><a xlink:title=" ">
<path fill="none" stroke="#63b8ff" d="M808.44,-233.15C691.67,-223.89 354.51,-197.14 217.73,-186.28"/>
<polygon fill="#63b8ff" stroke="#63b8ff" points="218.04,-182.8 207.8,-185.49 217.49,-189.77 218.04,-182.8"/>
</a>
</g>
</g>
<!-- Node4 -->
<g id="Node000004" class="node">
<title>Node4</title>
<g id="a_Node000004"><a xlink:title=" ">
<polygon fill="#e0e0e0" stroke="#999999" points="684.53,-20.75 599.53,-20.75 599.53,0 684.53,0 684.53,-20.75"/>
<text xml:space="preserve" text-anchor="middle" x="642.03" y="-7.25" font-family="Helvetica,sans-Serif" font-size="10.00">fsl_common.h</text>
</a>
</g>
</g>
<!-- Node3&#45;&gt;Node4 -->
<g id="edge3_Node000003_Node000004" class="edge">
<title>Node3&#45;&gt;Node4</title>
<g id="a_edge3_Node000003_Node000004"><a xlink:title=" ">
<path fill="none" stroke="#63b8ff" d="M642.03,-56.34C642.03,-49.72 642.03,-40.72 642.03,-32.52"/>
<polygon fill="#63b8ff" stroke="#63b8ff" points="645.53,-32.59 642.03,-22.59 638.53,-32.59 645.53,-32.59"/>
</a>
</g>
</g>
<!-- Node5 -->
<g id="Node000005" class="node">
<title>Node5</title>
<g id="a_Node000005"><a xlink:title=" ">
<polygon fill="#e0e0e0" stroke="#999999" points="309.91,-20.75 230.16,-20.75 230.16,0 309.91,0 309.91,-20.75"/>
<text xml:space="preserve" text-anchor="middle" x="270.03" y="-7.25" font-family="Helvetica,sans-Serif" font-size="10.00">peripherals.h</text>
</a>
</g>
</g>
<!-- Node3&#45;&gt;Node5 -->
<g id="edge4_Node000003_Node000005" class="edge">
<title>Node3&#45;&gt;Node5</title>
<g id="a_edge4_Node000003_Node000005"><a xlink:title=" ">
<path fill="none" stroke="#63b8ff" d="M575.09,-56.27C502.38,-45.57 387.77,-28.7 321.68,-18.98"/>
<polygon fill="#63b8ff" stroke="#63b8ff" points="322.22,-15.52 311.82,-17.53 321.2,-22.44 322.22,-15.52"/>
</a>
</g>
</g>
<!-- Node7&#45;&gt;Node3 -->
<g id="edge7_Node000007_Node000003" class="edge">
<title>Node7&#45;&gt;Node3</title>
<g id="a_edge7_Node000007_Node000003"><a xlink:title=" ">
<path fill="none" stroke="#63b8ff" d="M817.54,-169.75C793.64,-161.68 760.35,-149.2 733.03,-134.25 707.15,-120.09 680.14,-99.62 662.33,-85.22"/>
<polygon fill="#63b8ff" stroke="#63b8ff" points="664.57,-82.53 654.62,-78.88 660.12,-87.94 664.57,-82.53"/>
</a>
</g>
</g>
<!-- Node7&#45;&gt;Node4 -->
<g id="edge10_Node000007_Node000004" class="edge">
<title>Node7&#45;&gt;Node4</title>
<g id="a_edge10_Node000007_Node000004"><a xlink:title=" ">
<path fill="none" stroke="#63b8ff" d="M839.36,-169.9C830.24,-160.73 816.18,-146.57 804.03,-134.25 770.16,-99.9 766.72,-85.57 728.03,-56.75 711.82,-44.67 691.95,-33.96 675.4,-25.99"/>
<polygon fill="#63b8ff" stroke="#63b8ff" points="676.98,-22.86 666.44,-21.79 674.02,-29.2 676.98,-22.86"/>
</a>
</g>
</g>
<!-- Node8 -->
<g id="Node000008" class="node">
<title>Node8</title>
<g id="a_Node000008"><a xlink:title=" ">
<polygon fill="#e0e0e0" stroke="#999999" points="546.78,-77.5 475.28,-77.5 475.28,-56.75 546.78,-56.75 546.78,-77.5"/>
<text xml:space="preserve" text-anchor="middle" x="511.03" y="-64" font-family="Helvetica,sans-Serif" font-size="10.00">FreeRTOS.h</text>
</a>
</g>
</g>
<!-- Node7&#45;&gt;Node8 -->
<g id="edge8_Node000007_Node000008" class="edge">
<title>Node7&#45;&gt;Node8</title>
<g id="a_edge8_Node000007_Node000008"><a xlink:title=" ">
<path fill="none" stroke="#63b8ff" d="M814.7,-169.82C784,-160.93 737.84,-147.26 698.03,-134.25 645.6,-117.11 585.57,-95.53 547.97,-81.78"/>
<polygon fill="#63b8ff" stroke="#63b8ff" points="549.54,-78.62 538.95,-78.47 547.13,-85.2 549.54,-78.62"/>
</a>
</g>
</g>
<!-- Node9 -->
<g id="Node000009" class="node">
<title>Node9</title>
<g id="a_Node000009"><a xlink:title=" ">
<polygon fill="#e0e0e0" stroke="#999999" points="859.03,-134.25 813.03,-134.25 813.03,-113.5 859.03,-113.5 859.03,-134.25"/>
<text xml:space="preserve" text-anchor="middle" x="836.03" y="-120.75" font-family="Helvetica,sans-Serif" font-size="10.00">task.h</text>
</a>
</g>
</g>
<!-- Node7&#45;&gt;Node9 -->
<g id="edge9_Node000007_Node000009" class="edge">
<title>Node7&#45;&gt;Node9</title>
<g id="a_edge9_Node000007_Node000009"><a xlink:title=" ">
<path fill="none" stroke="#63b8ff" d="M846.71,-169.84C845.12,-163.14 842.95,-154.01 840.98,-145.73"/>
<polygon fill="#63b8ff" stroke="#63b8ff" points="844.4,-144.97 838.68,-136.05 837.59,-146.59 844.4,-144.97"/>
</a>
</g>
</g>
<!-- Node7&#45;&gt;Node10 -->
<g id="edge11_Node000007_Node000010" class="edge">
<title>Node7&#45;&gt;Node10</title>
<g id="a_edge11_Node000007_Node000010"><a xlink:title=" ">
<path fill="none" stroke="#63b8ff" d="M885.51,-174.02C923.57,-167.41 984.5,-154.66 1034.03,-134.25 1066.22,-120.98 1100.1,-99.28 1121.61,-84.38"/>
<polygon fill="#63b8ff" stroke="#63b8ff" points="1123.44,-87.36 1129.6,-78.74 1119.41,-81.64 1123.44,-87.36"/>
</a>
</g>
</g>
<!-- Node7&#45;&gt;Node11 -->
<g id="edge12_Node000007_Node000011" class="edge">
<title>Node7&#45;&gt;Node11</title>
<g id="a_edge12_Node000007_Node000011"><a xlink:title=" ">
<path fill="none" stroke="#63b8ff" d="M885.59,-175.3C919.51,-169.94 970.3,-158.37 1008.03,-134.25 1026.92,-122.18 1043,-101.99 1053.22,-87.09"/>
<polygon fill="#63b8ff" stroke="#63b8ff" points="1055.94,-89.33 1058.49,-79.05 1050.08,-85.49 1055.94,-89.33"/>
</a>
</g>
</g>
<!-- Node7&#45;&gt;Node12 -->
<g id="edge13_Node000007_Node000012" class="edge">
<title>Node7&#45;&gt;Node12</title>
<g id="a_edge13_Node000007_Node000012"><a xlink:title=" ">
<path fill="none" stroke="#63b8ff" d="M856.22,-169.78C864.99,-156.47 877.54,-132.25 868.03,-113.5 861.64,-100.9 849.91,-90.95 838.37,-83.63"/>
<polygon fill="#63b8ff" stroke="#63b8ff" points="840.12,-80.6 829.72,-78.62 836.62,-86.66 840.12,-80.6"/>
</a>
</g>
</g>
<!-- Node13 -->
<g id="Node000013" class="node">
<title>Node13</title>
<g id="a_Node000013"><a xlink:href="cmd__handle_8h.html" target="_top" xlink:title=" ">
<polygon fill="white" stroke="#666666" points="415.16,-134.25 330.91,-134.25 330.91,-113.5 415.16,-113.5 415.16,-134.25"/>
<text xml:space="preserve" text-anchor="middle" x="373.03" y="-120.75" font-family="Helvetica,sans-Serif" font-size="10.00">cmd_handle.h</text>
</a>
</g>
</g>
<!-- Node7&#45;&gt;Node13 -->
<g id="edge14_Node000007_Node000013" class="edge">
<title>Node7&#45;&gt;Node13</title>
<g id="a_edge14_Node000007_Node000013"><a xlink:title=" ">
<path fill="none" stroke="#63b8ff" d="M812.47,-175.42C729.11,-165.83 524.63,-142.31 426.83,-131.06"/>
<polygon fill="#63b8ff" stroke="#63b8ff" points="427.29,-127.59 416.95,-129.93 426.49,-134.55 427.29,-127.59"/>
</a>
</g>
</g>
<!-- Node17 -->
<g id="Node000017" class="node">
<title>Node17</title>
<g id="a_Node000017"><a xlink:href="step__shared_8h.html" target="_top" xlink:title=" ">
<polygon fill="white" stroke="#666666" points="999.16,-134.25 914.91,-134.25 914.91,-113.5 999.16,-113.5 999.16,-134.25"/>
<text xml:space="preserve" text-anchor="middle" x="957.03" y="-120.75" font-family="Helvetica,sans-Serif" font-size="10.00">step_shared.h</text>
</a>
</g>
</g>
<!-- Node7&#45;&gt;Node17 -->
<g id="edge20_Node000007_Node000017" class="edge">
<title>Node7&#45;&gt;Node17</title>
<g id="a_edge20_Node000007_Node000017"><a xlink:title=" ">
<path fill="none" stroke="#63b8ff" d="M868.34,-169.84C884.85,-161.47 908.86,-149.29 927.74,-139.72"/>
<polygon fill="#63b8ff" stroke="#63b8ff" points="929.2,-142.91 936.54,-135.26 926.04,-136.66 929.2,-142.91"/>
</a>
</g>
</g>
<!-- Node13&#45;&gt;Node4 -->
<g id="edge18_Node000013_Node000004" class="edge">
<title>Node13&#45;&gt;Node4</title>
<g id="a_edge18_Node000013_Node000004"><a xlink:title=" ">
<path fill="none" stroke="#63b8ff" d="M383.93,-113.07C400.49,-98.66 433.51,-71.87 466.03,-56.75 505.02,-38.62 552.36,-26.94 588.12,-19.97"/>
<polygon fill="#63b8ff" stroke="#63b8ff" points="588.63,-23.44 597.81,-18.15 587.34,-16.56 588.63,-23.44"/>
</a>
</g>
</g>
<!-- Node13&#45;&gt;Node8 -->
<g id="edge16_Node000013_Node000008" class="edge">
<title>Node13&#45;&gt;Node8</title>
<g id="a_edge16_Node000013_Node000008"><a xlink:title=" ">
<path fill="none" stroke="#63b8ff" d="M397.7,-113.09C419.48,-104.44 451.49,-91.75 475.94,-82.05"/>
<polygon fill="#63b8ff" stroke="#63b8ff" points="477.16,-85.33 485.17,-78.39 474.58,-78.82 477.16,-85.33"/>
</a>
</g>
</g>
<!-- Node14 -->
<g id="Node000014" class="node">
<title>Node14</title>
<g id="a_Node000014"><a xlink:title=" ">
<polygon fill="#e0e0e0" stroke="#999999" points="309.41,-77.5 256.66,-77.5 256.66,-56.75 309.41,-56.75 309.41,-77.5"/>
<text xml:space="preserve" text-anchor="middle" x="283.03" y="-64" font-family="Helvetica,sans-Serif" font-size="10.00">stdint.h</text>
</a>
</g>
</g>
<!-- Node13&#45;&gt;Node14 -->
<g id="edge15_Node000013_Node000014" class="edge">
<title>Node13&#45;&gt;Node14</title>
<g id="a_edge15_Node000013_Node000014"><a xlink:title=" ">
<path fill="none" stroke="#63b8ff" d="M356.94,-113.09C343.5,-104.91 324.1,-93.11 308.55,-83.65"/>
<polygon fill="#63b8ff" stroke="#63b8ff" points="310.64,-80.82 300.27,-78.62 307,-86.8 310.64,-80.82"/>
</a>
</g>
</g>
<!-- Node15 -->
<g id="Node000015" class="node">
<title>Node15</title>
<g id="a_Node000015"><a xlink:title=" ">
<polygon fill="#e0e0e0" stroke="#999999" points="418.53,-77.5 327.53,-77.5 327.53,-56.75 418.53,-56.75 418.53,-77.5"/>
<text xml:space="preserve" text-anchor="middle" x="373.03" y="-64" font-family="Helvetica,sans-Serif" font-size="10.00">event_groups.h</text>
</a>
</g>
</g>
<!-- Node13&#45;&gt;Node15 -->
<g id="edge17_Node000013_Node000015" class="edge">
<title>Node13&#45;&gt;Node15</title>
<g id="a_edge17_Node000013_Node000015"><a xlink:title=" ">
<path fill="none" stroke="#63b8ff" d="M373.03,-113.09C373.03,-106.47 373.03,-97.47 373.03,-89.27"/>
<polygon fill="#63b8ff" stroke="#63b8ff" points="376.53,-89.34 373.03,-79.34 369.53,-89.34 376.53,-89.34"/>
</a>
</g>
</g>
<!-- Node16 -->
<g id="Node000016" class="node">
<title>Node16</title>
<g id="a_Node000016"><a xlink:title=" ">
<polygon fill="#e0e0e0" stroke="#999999" points="239.03,-77.5 187.03,-77.5 187.03,-56.75 239.03,-56.75 239.03,-77.5"/>
<text xml:space="preserve" text-anchor="middle" x="213.03" y="-64" font-family="Helvetica,sans-Serif" font-size="10.00">stdlib.h</text>
</a>
</g>
</g>
<!-- Node13&#45;&gt;Node16 -->
<g id="edge19_Node000013_Node000016" class="edge">
<title>Node13&#45;&gt;Node16</title>
<g id="a_edge19_Node000013_Node000016"><a xlink:title=" ">
<path fill="none" stroke="#63b8ff" d="M344.43,-113.09C318.16,-104.1 279.08,-90.73 250.36,-80.9"/>
<polygon fill="#63b8ff" stroke="#63b8ff" points="251.55,-77.61 240.96,-77.68 249.29,-84.23 251.55,-77.61"/>
</a>
</g>
</g>
<!-- Node17&#45;&gt;Node3 -->
<g id="edge21_Node000017_Node000003" class="edge">
<title>Node17&#45;&gt;Node3</title>
<g id="a_edge21_Node000017_Node000003"><a xlink:title=" ">
<path fill="none" stroke="#63b8ff" d="M914.55,-115.49C862.06,-106.37 772.1,-90.73 709.98,-79.94"/>
<polygon fill="#63b8ff" stroke="#63b8ff" points="710.66,-76.5 700.21,-78.24 709.47,-83.4 710.66,-76.5"/>
</a>
</g>
</g>
<!-- Node17&#45;&gt;Node4 -->
<g id="edge23_Node000017_Node000004" class="edge">
<title>Node17&#45;&gt;Node4</title>
<g id="a_edge23_Node000017_Node000004"><a xlink:title=" ">
<path fill="none" stroke="#63b8ff" d="M967.11,-113.34C980.53,-99.51 1000.91,-73.72 986.03,-56.75 967.25,-35.33 788.41,-20.79 696.3,-14.66"/>
<polygon fill="#63b8ff" stroke="#63b8ff" points="696.69,-11.18 686.48,-14.02 696.23,-18.16 696.69,-11.18"/>
</a>
</g>
</g>
<!-- Node17&#45;&gt;Node10 -->
<g id="edge24_Node000017_Node000010" class="edge">
<title>Node17&#45;&gt;Node10</title>
<g id="a_edge24_Node000017_Node000010"><a xlink:title=" ">
<path fill="none" stroke="#63b8ff" d="M990.46,-113.09C1022.08,-103.83 1069.59,-89.92 1103.39,-80.02"/>
<polygon fill="#63b8ff" stroke="#63b8ff" points="1104.21,-83.43 1112.83,-77.26 1102.25,-76.71 1104.21,-83.43"/>
</a>
</g>
</g>
<!-- Node17&#45;&gt;Node11 -->
<g id="edge25_Node000017_Node000011" class="edge">
<title>Node17&#45;&gt;Node11</title>
<g id="a_edge25_Node000017_Node000011"><a xlink:title=" ">
<path fill="none" stroke="#63b8ff" d="M976.34,-113.09C992.85,-104.72 1016.86,-92.54 1035.74,-82.97"/>
<polygon fill="#63b8ff" stroke="#63b8ff" points="1037.2,-86.16 1044.54,-78.51 1034.04,-79.91 1037.2,-86.16"/>
</a>
</g>
</g>
<!-- Node17&#45;&gt;Node12 -->
<g id="edge26_Node000017_Node000012" class="edge">
<title>Node17&#45;&gt;Node12</title>
<g id="a_edge26_Node000017_Node000012"><a xlink:title=" ">
<path fill="none" stroke="#63b8ff" d="M930.03,-113.09C905.95,-104.36 870.45,-91.48 843.6,-81.75"/>
<polygon fill="#63b8ff" stroke="#63b8ff" points="845.06,-78.55 834.47,-78.44 842.68,-85.14 845.06,-78.55"/>
</a>
</g>
</g>
<!-- Node18 -->
<g id="Node000018" class="node">
<title>Node18</title>
<g id="a_Node000018"><a xlink:title=" ">
<polygon fill="#e0e0e0" stroke="#999999" points="977.28,-77.5 854.78,-77.5 854.78,-56.75 977.28,-56.75 977.28,-77.5"/>
<text xml:space="preserve" text-anchor="middle" x="916.03" y="-64" font-family="Helvetica,sans-Serif" font-size="10.00">fsl_device_registers.h</text>
</a>
</g>
</g>
<!-- Node17&#45;&gt;Node18 -->
<g id="edge22_Node000017_Node000018" class="edge">
<title>Node17&#45;&gt;Node18</title>
<g id="a_edge22_Node000017_Node000018"><a xlink:title=" ">
<path fill="none" stroke="#63b8ff" d="M949.7,-113.09C944.28,-105.85 936.72,-95.76 930.15,-86.97"/>
<polygon fill="#63b8ff" stroke="#63b8ff" points="933,-84.95 924.2,-79.04 927.4,-89.14 933,-84.95"/>
</a>
</g>
</g>
<!-- Node19&#45;&gt;Node4 -->
<g id="edge30_Node000019_Node000004" class="edge">
<title>Node19&#45;&gt;Node4</title>
<g id="a_edge30_Node000019_Node000004"><a xlink:title=" ">
<path fill="none" stroke="#63b8ff" d="M157.04,-169.88C152.9,-146.48 146.19,-86.86 178.03,-56.75 207.31,-29.06 471.86,-16.99 587.9,-13"/>
<polygon fill="#63b8ff" stroke="#63b8ff" points="587.92,-16.5 597.8,-12.66 587.69,-9.5 587.92,-16.5"/>
</a>
</g>
</g>
<!-- Node19&#45;&gt;Node5 -->
<g id="edge32_Node000019_Node000005" class="edge">
<title>Node19&#45;&gt;Node5</title>
<g id="a_edge32_Node000019_Node000005"><a xlink:title=" ">
<path fill="none" stroke="#63b8ff" d="M111.86,-178.36C79.19,-174.72 37.8,-163.99 16.03,-134.25 -4.31,-106.45 -6.08,-83.16 16.03,-56.75 41.34,-26.51 151.98,-16.4 218.61,-13.04"/>
<polygon fill="#63b8ff" stroke="#63b8ff" points="218.36,-16.56 228.19,-12.59 218.04,-9.56 218.36,-16.56"/>
</a>
</g>
</g>
<!-- Node19&#45;&gt;Node13 -->
<g id="edge31_Node000019_Node000013" class="edge">
<title>Node19&#45;&gt;Node13</title>
<g id="a_edge31_Node000019_Node000013"><a xlink:title=" ">
<path fill="none" stroke="#63b8ff" d="M197.29,-169.84C232.63,-160.79 285.33,-147.31 323.8,-137.47"/>
<polygon fill="#63b8ff" stroke="#63b8ff" points="324.46,-140.92 333.28,-135.05 322.72,-134.13 324.46,-140.92"/>
</a>
</g>
</g>
<!-- Node20 -->
<g id="Node000020" class="node">
<title>Node20</title>
<g id="a_Node000020"><a xlink:href="tmc2209__shared_8h.html" target="_top" xlink:title=" ">
<polygon fill="white" stroke="#666666" points="131.03,-134.25 25.03,-134.25 25.03,-113.5 131.03,-113.5 131.03,-134.25"/>
<text xml:space="preserve" text-anchor="middle" x="78.03" y="-120.75" font-family="Helvetica,sans-Serif" font-size="10.00">tmc2209_shared.h</text>
</a>
</g>
</g>
<!-- Node19&#45;&gt;Node20 -->
<g id="edge28_Node000019_Node000020" class="edge">
<title>Node19&#45;&gt;Node20</title>
<g id="a_edge28_Node000019_Node000020"><a xlink:title=" ">
<path fill="none" stroke="#63b8ff" d="M144.55,-169.84C132.69,-161.82 115.66,-150.31 101.8,-140.94"/>
<polygon fill="#63b8ff" stroke="#63b8ff" points="103.89,-138.13 93.64,-135.43 99.97,-143.93 103.89,-138.13"/>
</a>
</g>
</g>
<!-- Node21 -->
<g id="Node000021" class="node">
<title>Node21</title>
<g id="a_Node000021"><a xlink:title=" ">
<polygon fill="#e0e0e0" stroke="#999999" points="130.66,-77.5 25.41,-77.5 25.41,-56.75 130.66,-56.75 130.66,-77.5"/>
<text xml:space="preserve" text-anchor="middle" x="78.03" y="-64" font-family="Helvetica,sans-Serif" font-size="10.00">fsl_uart_freertos.h</text>
</a>
</g>
</g>
<!-- Node20&#45;&gt;Node21 -->
<g id="edge29_Node000020_Node000021" class="edge">
<title>Node20&#45;&gt;Node21</title>
<g id="a_edge29_Node000020_Node000021"><a xlink:title=" ">
<path fill="none" stroke="#63b8ff" d="M78.03,-113.09C78.03,-106.47 78.03,-97.47 78.03,-89.27"/>
<polygon fill="#63b8ff" stroke="#63b8ff" points="81.53,-89.34 78.03,-79.34 74.53,-89.34 81.53,-89.34"/>
</a>
</g>
</g>
</g>
</svg>

<g id="navigator" transform="translate(0 0)" fill="#404254">
  <rect fill="#f2f5e9" fill-opacity="0.5" stroke="#606060" stroke-width=".5" x="0" y="0" width="60" height="60"/>
  <use id="zoomplus" xlink:href="#zoomPlus" x="17" y="9" onmousedown="handleZoom(evt,'in')"/>
  <use id="zoomminus" xlink:href="#zoomMin" x="42" y="9" onmousedown="handleZoom(evt,'out')"/>
  <use id="reset" xlink:href="#resetDef" x="30" y="36" onmousedown="handleReset()"/>
   <use id="arrowup" xlink:href="#arrowUp" x="0" y="0" onmousedown="handlePan(0,-1)"/>
  <use id="arrowright" xlink:href="#arrowRight" x="0" y="0" onmousedown="handlePan(1,0)"/>
  <use id="arrowdown" xlink:href="#arrowDown" x="0" y="0" onmousedown="handlePan(0,1)"/>
  <use id="arrowleft" xlink:href="#arrowLeft" x="0" y="0" onmousedown="handlePan(-1,0)"/>
</g>
<svg viewBox="0 0 15 15" width="100%" height="30px" preserveAspectRatio="xMaxYMin meet">
 <g id="arrow_out" transform="scale(0.3 0.3)">
  <a xlink:href="motor__convert_8h__incl_org.svg" target="_base">
   <rect id="button" ry="5" rx="5" y="6" x="6" height="38" width="38"
        fill="#f2f5e9" fill-opacity="0.5" stroke="#606060" stroke-width="1.0"/>
   <path id="arrow"
     d="M 11.500037,31.436501 C 11.940474,20.09759 22.043105,11.32322 32.158766,21.979434 L 37.068811,17.246167 C 37.068811,17.246167 37.088388,32 37.088388,32 L 22.160133,31.978069 C 22.160133,31.978069 26.997745,27.140456 26.997745,27.140456 C 18.528582,18.264221 13.291696,25.230495 11.500037,31.436501 z"
     style="fill:#404040;"/>
  </a>
 </g>
</svg>

<style type='text/css'>
<![CDATA[
[data-mouse-over-selected='false'] { opacity: 0.7; }
[data-mouse-over-selected='true']  { opacity: 1.0; }
]]>
</style>
<script type="application/ecmascript"><![CDATA[
document.addEventListener('DOMContentLoaded', (event) => {
  highlightEdges();
  highlightAdjacentNodes();
});
]]></script>
</svg>
