<?xml version="1.0" encoding="UTF-8" standalone="no"?>
<!DOCTYPE svg PUBLIC "-//W3C//DTD SVG 1.1//EN"
 "http://www.w3.org/Graphics/SVG/1.1/DTD/svg11.dtd">
<!-- Generated by graphviz version 14.1.3 (0)
 -->
<!-- Title: source/motorCmd.c Pages: 1 -->
<svg width="932pt" height="199pt"
 viewBox="0.00 0.00 932.00 199.00" xmlns="http://www.w3.org/2000/svg" xmlns:xlink="http://www.w3.org/1999/xlink">
<g id="graph0" class="graph" transform="scale(1 1) rotate(0) translate(4 195)">
<title>source/motorCmd.c</title>
<!-- Node1 -->
<g id="Node000001" class="node">
<title>Node1</title>
<g id="a_Node000001"><a xlink:title=" ">
<polygon fill="#999999" stroke="#666666" points="646.5,-191 535.25,-191 535.25,-170.25 646.5,-170.25 646.5,-191"/>
<text xml:space="preserve" text-anchor="middle" x="590.88" y="-177.5" font-family="Helvetica,sans-Serif" font-size="10.00">source/motorCmd.c</text>
</a>
</g>
</g>
<!-- Node2 -->
<g id="Node000002" class="node">
<title>Node2</title>
<g id="a_Node000002"><a xlink:href="motorCmd_8h.html" target="_top" xlink:title=" ">
<polygon fill="white" stroke="#666666" points="419.25,-134.25 342.5,-134.25 342.5,-113.5 419.25,-113.5 419.25,-134.25"/>
<text xml:space="preserve" text-anchor="middle" x="380.88" y="-120.75" font-family="Helvetica,sans-Serif" font-size="10.00">motorCmd.h</text>
</a>
</g>
</g>
<!-- Node1&#45;&gt;Node2 -->
<g id="edge1_Node000001_Node000002" class="edge">
<title>Node1&#45;&gt;Node2</title>
<g id="a_edge1_Node000001_Node000002"><a xlink:title=" ">
<path fill="none" stroke="#63b8ff" d="M553.33,-169.84C518.65,-160.79 466.94,-147.31 429.19,-137.47"/>
<polygon fill="#63b8ff" stroke="#63b8ff" points="430.47,-134.19 419.91,-135.05 428.71,-140.96 430.47,-134.19"/>
</a>
</g>
</g>
<!-- Node4 -->
<g id="Node000004" class="node">
<title>Node4</title>
<g id="a_Node000004"><a xlink:href="motor_8h.html" target="_top" xlink:title=" ">
<polygon fill="white" stroke="#666666" points="324.62,-134.25 271.12,-134.25 271.12,-113.5 324.62,-113.5 324.62,-134.25"/>
<text xml:space="preserve" text-anchor="middle" x="297.88" y="-120.75" font-family="Helvetica,sans-Serif" font-size="10.00">motor.h</text>
</a>
</g>
</g>
<!-- Node1&#45;&gt;Node4 -->
<g id="edge3_Node000001_Node000004" class="edge">
<title>Node1&#45;&gt;Node4</title>
<g id="a_edge3_Node000001_Node000004"><a xlink:title=" ">
<path fill="none" stroke="#63b8ff" d="M534.98,-171.08C485.19,-163.17 410.15,-150.52 335.89,-134.55"/>
<polygon fill="#63b8ff" stroke="#63b8ff" points="336.94,-131.2 326.42,-132.49 335.45,-138.04 336.94,-131.2"/>
</a>
</g>
</g>
<!-- Node5 -->
<g id="Node000005" class="node">
<title>Node5</title>
<g id="a_Node000005"><a xlink:href="step_8h.html" target="_top" xlink:title=" ">
<polygon fill="white" stroke="#666666" points="230.88,-77.5 184.88,-77.5 184.88,-56.75 230.88,-56.75 230.88,-77.5"/>
<text xml:space="preserve" text-anchor="middle" x="207.88" y="-64" font-family="Helvetica,sans-Serif" font-size="10.00">step.h</text>
</a>
</g>
</g>
<!-- Node1&#45;&gt;Node5 -->
<g id="edge15_Node000001_Node000005" class="edge">
<title>Node1&#45;&gt;Node5</title>
<g id="a_edge15_Node000001_Node000005"><a xlink:title=" ">
<path fill="none" stroke="#63b8ff" d="M534.76,-176.82C453.4,-171.93 307.44,-159.83 261.88,-134.25 242.55,-123.4 227.38,-102.67 218.1,-87.3"/>
<polygon fill="#63b8ff" stroke="#63b8ff" points="221.38,-85.98 213.39,-79.02 215.3,-89.44 221.38,-85.98"/>
</a>
</g>
</g>
<!-- Node14 -->
<g id="Node000014" class="node">
<title>Node14</title>
<g id="a_Node000014"><a xlink:title=" ">
<polygon fill="#e0e0e0" stroke="#999999" points="775.75,-20.75 684,-20.75 684,0 775.75,0 775.75,-20.75"/>
<text xml:space="preserve" text-anchor="middle" x="729.88" y="-7.25" font-family="Helvetica,sans-Serif" font-size="10.00">FreeRTOS_CLI.h</text>
</a>
</g>
</g>
<!-- Node1&#45;&gt;Node14 -->
<g id="edge16_Node000001_Node000014" class="edge">
<title>Node1&#45;&gt;Node14</title>
<g id="a_edge16_Node000001_Node000014"><a xlink:title=" ">
<path fill="none" stroke="#63b8ff" d="M626.16,-169.81C666.49,-156.43 730.33,-128.15 756.88,-77.5 765.03,-61.94 755.9,-43.36 746.11,-29.86"/>
<polygon fill="#63b8ff" stroke="#63b8ff" points="749.01,-27.89 740.05,-22.23 743.53,-32.24 749.01,-27.89"/>
</a>
</g>
</g>
<!-- Node15 -->
<g id="Node000015" class="node">
<title>Node15</title>
<g id="a_Node000015"><a xlink:href="cli_8h.html" target="_top" xlink:title=" ">
<polygon fill="white" stroke="#666666" points="748,-77.5 711.75,-77.5 711.75,-56.75 748,-56.75 748,-77.5"/>
<text xml:space="preserve" text-anchor="middle" x="729.88" y="-64" font-family="Helvetica,sans-Serif" font-size="10.00">cli.h</text>
</a>
</g>
</g>
<!-- Node1&#45;&gt;Node15 -->
<g id="edge17_Node000001_Node000015" class="edge">
<title>Node1&#45;&gt;Node15</title>
<g id="a_edge17_Node000001_Node000015"><a xlink:title=" ">
<path fill="none" stroke="#63b8ff" d="M602.73,-170.12C626.3,-151.21 679.36,-108.64 708.95,-84.91"/>
<polygon fill="#63b8ff" stroke="#63b8ff" points="710.87,-87.86 716.48,-78.87 706.49,-82.4 710.87,-87.86"/>
</a>
</g>
</g>
<!-- Node16 -->
<g id="Node000016" class="node">
<title>Node16</title>
<g id="a_Node000016"><a xlink:href="cli__utilities_8h.html" target="_top" xlink:title=" ">
<polygon fill="white" stroke="#666666" points="694,-77.5 615.75,-77.5 615.75,-56.75 694,-56.75 694,-77.5"/>
<text xml:space="preserve" text-anchor="middle" x="654.88" y="-64" font-family="Helvetica,sans-Serif" font-size="10.00">cli_utilities.h</text>
</a>
</g>
</g>
<!-- Node1&#45;&gt;Node16 -->
<g id="edge21_Node000001_Node000016" class="edge">
<title>Node1&#45;&gt;Node16</title>
<g id="a_edge21_Node000001_Node000016"><a xlink:title=" ">
<path fill="none" stroke="#63b8ff" d="M596.33,-170.12C606.76,-151.94 629.73,-111.92 643.6,-87.77"/>
<polygon fill="#63b8ff" stroke="#63b8ff" points="646.55,-89.65 648.5,-79.24 640.48,-86.17 646.55,-89.65"/>
</a>
</g>
</g>
<!-- Node17 -->
<g id="Node000017" class="node">
<title>Node17</title>
<g id="a_Node000017"><a xlink:href="log_8h.html" target="_top" xlink:title=" ">
<polygon fill="white" stroke="#666666" points="450.88,-77.5 410.88,-77.5 410.88,-56.75 450.88,-56.75 450.88,-77.5"/>
<text xml:space="preserve" text-anchor="middle" x="430.88" y="-64" font-family="Helvetica,sans-Serif" font-size="10.00">log.h</text>
</a>
</g>
</g>
<!-- Node1&#45;&gt;Node17 -->
<g id="edge25_Node000001_Node000017" class="edge">
<title>Node1&#45;&gt;Node17</title>
<g id="a_edge25_Node000001_Node000017"><a xlink:title=" ">
<path fill="none" stroke="#63b8ff" d="M538.67,-169.79C514.35,-163.08 486.34,-152.06 465.88,-134.25 451.8,-122.01 442.51,-102.69 437.05,-88.09"/>
<polygon fill="#63b8ff" stroke="#63b8ff" points="440.51,-87.39 433.98,-79.05 433.89,-89.64 440.51,-87.39"/>
</a>
</g>
</g>
<!-- Node18 -->
<g id="Node000018" class="node">
<title>Node18</title>
<g id="a_Node000018"><a xlink:title=" ">
<polygon fill="#e0e0e0" stroke="#999999" points="853.38,-134.25 804.38,-134.25 804.38,-113.5 853.38,-113.5 853.38,-134.25"/>
<text xml:space="preserve" text-anchor="middle" x="828.88" y="-120.75" font-family="Helvetica,sans-Serif" font-size="10.00">stdio.h</text>
</a>
</g>
</g>
<!-- Node1&#45;&gt;Node18 -->
<g id="edge28_Node000001_Node000018" class="edge">
<title>Node1&#45;&gt;Node18</title>
<g id="a_edge28_Node000001_Node000018"><a xlink:title=" ">
<path fill="none" stroke="#63b8ff" d="M634.78,-169.77C675.12,-160.68 736.57,-146.73 789.88,-134.25 790.88,-134.01 791.91,-133.77 792.94,-133.53"/>
<polygon fill="#63b8ff" stroke="#63b8ff" points="793.74,-136.94 802.66,-131.22 792.12,-130.13 793.74,-136.94"/>
</a>
</g>
</g>
<!-- Node19 -->
<g id="Node000019" class="node">
<title>Node19</title>
<g id="a_Node000019"><a xlink:title=" ">
<polygon fill="#e0e0e0" stroke="#999999" points="923.88,-134.25 871.88,-134.25 871.88,-113.5 923.88,-113.5 923.88,-134.25"/>
<text xml:space="preserve" text-anchor="middle" x="897.88" y="-120.75" font-family="Helvetica,sans-Serif" font-size="10.00">stdlib.h</text>
</a>
</g>
</g>
<!-- Node1&#45;&gt;Node19 -->
<g id="edge29_Node000001_Node000019" class="edge">
<title>Node1&#45;&gt;Node19</title>
<g id="a_edge29_Node000001_Node000019"><a xlink:title=" ">
<path fill="none" stroke="#63b8ff" d="M646.91,-171.89C699.64,-164.25 781,-151.54 860.38,-134.63"/>
<polygon fill="#63b8ff" stroke="#63b8ff" points="861.05,-138.06 870.09,-132.53 859.58,-131.22 861.05,-138.06"/>
</a>
</g>
</g>
<!-- Node20 -->
<g id="Node000020" class="node">
<title>Node20</title>
<g id="a_Node000020"><a xlink:title=" ">
<polygon fill="#e0e0e0" stroke="#999999" points="597.25,-77.5 544.5,-77.5 544.5,-56.75 597.25,-56.75 597.25,-77.5"/>
<text xml:space="preserve" text-anchor="middle" x="570.88" y="-64" font-family="Helvetica,sans-Serif" font-size="10.00">string.h</text>
</a>
</g>
</g>
<!-- Node1&#45;&gt;Node20 -->
<g id="edge30_Node000001_Node000020" class="edge">
<title>Node1&#45;&gt;Node20</title>
<g id="a_edge30_Node000001_Node000020"><a xlink:title=" ">
<path fill="none" stroke="#63b8ff" d="M589.17,-170.12C585.97,-152.27 578.99,-113.36 574.64,-89.09"/>
<polygon fill="#63b8ff" stroke="#63b8ff" points="578.11,-88.64 572.9,-79.41 571.22,-89.88 578.11,-88.64"/>
</a>
</g>
</g>
<!-- Node21 -->
<g id="Node000021" class="node">
<title>Node21</title>
<g id="a_Node000021"><a xlink:href="task__helpers_8h.html" target="_top" xlink:title=" ">
<polygon fill="white" stroke="#666666" points="562.5,-134.25 475.25,-134.25 475.25,-113.5 562.5,-113.5 562.5,-134.25"/>
<text xml:space="preserve" text-anchor="middle" x="518.88" y="-120.75" font-family="Helvetica,sans-Serif" font-size="10.00">task_helpers.h</text>
</a>
</g>
</g>
<!-- Node1&#45;&gt;Node21 -->
<g id="edge31_Node000001_Node000021" class="edge">
<title>Node1&#45;&gt;Node21</title>
<g id="a_edge31_Node000001_Node000021"><a xlink:title=" ">
<path fill="none" stroke="#63b8ff" d="M578,-169.84C567.66,-161.97 552.91,-150.75 540.72,-141.49"/>
<polygon fill="#63b8ff" stroke="#63b8ff" points="542.92,-138.76 532.84,-135.49 538.68,-144.33 542.92,-138.76"/>
</a>
</g>
</g>
<!-- Node3 -->
<g id="Node000003" class="node">
<title>Node3</title>
<g id="a_Node000003"><a xlink:title=" ">
<polygon fill="#e0e0e0" stroke="#999999" points="461.38,-20.75 376.38,-20.75 376.38,0 461.38,0 461.38,-20.75"/>
<text xml:space="preserve" text-anchor="middle" x="418.88" y="-7.25" font-family="Helvetica,sans-Serif" font-size="10.00">fsl_common.h</text>
</a>
</g>
</g>
<!-- Node2&#45;&gt;Node3 -->
<g id="edge2_Node000002_Node000003" class="edge">
<title>Node2&#45;&gt;Node3</title>
<g id="a_edge2_Node000002_Node000003"><a xlink:title=" ">
<path fill="none" stroke="#63b8ff" d="M383.72,-113.41C387.62,-100.53 394.95,-76.78 401.88,-56.75 404.72,-48.51 408.05,-39.51 411,-31.72"/>
<polygon fill="#63b8ff" stroke="#63b8ff" points="414.23,-33.06 414.54,-22.47 407.7,-30.56 414.23,-33.06"/>
</a>
</g>
</g>
<!-- Node4&#45;&gt;Node5 -->
<g id="edge4_Node000004_Node000005" class="edge">
<title>Node4&#45;&gt;Node5</title>
<g id="a_edge4_Node000004_Node000005"><a xlink:title=" ">
<path fill="none" stroke="#63b8ff" d="M281.78,-113.09C268.35,-104.91 248.94,-93.11 233.39,-83.65"/>
<polygon fill="#63b8ff" stroke="#63b8ff" points="235.48,-80.82 225.12,-78.62 231.84,-86.8 235.48,-80.82"/>
</a>
</g>
</g>
<!-- Node11 -->
<g id="Node000011" class="node">
<title>Node11</title>
<g id="a_Node000011"><a xlink:href="tmc2209_8h.html" target="_top" xlink:title=" ">
<polygon fill="white" stroke="#666666" points="354.75,-77.5 287,-77.5 287,-56.75 354.75,-56.75 354.75,-77.5"/>
<text xml:space="preserve" text-anchor="middle" x="320.88" y="-64" font-family="Helvetica,sans-Serif" font-size="10.00">tmc2209.h</text>
</a>
</g>
</g>
<!-- Node4&#45;&gt;Node11 -->
<g id="edge11_Node000004_Node000011" class="edge">
<title>Node4&#45;&gt;Node11</title>
<g id="a_edge11_Node000004_Node000011"><a xlink:title=" ">
<path fill="none" stroke="#63b8ff" d="M301.99,-113.09C304.87,-106.24 308.81,-96.84 312.36,-88.4"/>
<polygon fill="#63b8ff" stroke="#63b8ff" points="315.57,-89.8 316.21,-79.22 309.11,-87.09 315.57,-89.8"/>
</a>
</g>
</g>
<!-- Node5&#45;&gt;Node3 -->
<g id="edge7_Node000005_Node000003" class="edge">
<title>Node5&#45;&gt;Node3</title>
<g id="a_edge7_Node000005_Node000003"><a xlink:title=" ">
<path fill="none" stroke="#63b8ff" d="M231.26,-60.06C264.62,-51.4 326.66,-35.3 370.23,-24"/>
<polygon fill="#63b8ff" stroke="#63b8ff" points="370.9,-27.44 379.7,-21.54 369.14,-20.66 370.9,-27.44"/>
</a>
</g>
</g>
<!-- Node6 -->
<g id="Node000006" class="node">
<title>Node6</title>
<g id="a_Node000006"><a xlink:title=" ">
<polygon fill="#e0e0e0" stroke="#999999" points="552.62,-20.75 481.12,-20.75 481.12,0 552.62,0 552.62,-20.75"/>
<text xml:space="preserve" text-anchor="middle" x="516.88" y="-7.25" font-family="Helvetica,sans-Serif" font-size="10.00">FreeRTOS.h</text>
</a>
</g>
</g>
<!-- Node5&#45;&gt;Node6 -->
<g id="edge5_Node000005_Node000006" class="edge">
<title>Node5&#45;&gt;Node6</title>
<g id="a_edge5_Node000005_Node000006"><a xlink:title=" ">
<path fill="none" stroke="#63b8ff" d="M231.14,-62.35C275.3,-55.14 374.59,-38.69 469.49,-20.96"/>
<polygon fill="#63b8ff" stroke="#63b8ff" points="470.07,-24.41 479.25,-19.13 468.77,-17.53 470.07,-24.41"/>
</a>
</g>
</g>
<!-- Node7 -->
<g id="Node000007" class="node">
<title>Node7</title>
<g id="a_Node000007"><a xlink:title=" ">
<polygon fill="#e0e0e0" stroke="#999999" points="283.88,-20.75 237.88,-20.75 237.88,0 283.88,0 283.88,-20.75"/>
<text xml:space="preserve" text-anchor="middle" x="260.88" y="-7.25" font-family="Helvetica,sans-Serif" font-size="10.00">task.h</text>
</a>
</g>
</g>
<!-- Node5&#45;&gt;Node7 -->
<g id="edge6_Node000005_Node000007" class="edge">
<title>Node5&#45;&gt;Node7</title>
<g id="a_edge6_Node000005_Node000007"><a xlink:title=" ">
<path fill="none" stroke="#63b8ff" d="M217.35,-56.34C224.66,-48.78 234.97,-38.14 243.72,-29.1"/>
<polygon fill="#63b8ff" stroke="#63b8ff" points="245.99,-31.79 250.43,-22.17 240.96,-26.92 245.99,-31.79"/>
</a>
</g>
</g>
<!-- Node8 -->
<g id="Node000008" class="node">
<title>Node8</title>
<g id="a_Node000008"><a xlink:title=" ">
<polygon fill="#e0e0e0" stroke="#999999" points="138.25,-20.75 79.5,-20.75 79.5,0 138.25,0 138.25,-20.75"/>
<text xml:space="preserve" text-anchor="middle" x="108.88" y="-7.25" font-family="Helvetica,sans-Serif" font-size="10.00">fsl_ftm.h</text>
</a>
</g>
</g>
<!-- Node5&#45;&gt;Node8 -->
<g id="edge8_Node000005_Node000008" class="edge">
<title>Node5&#45;&gt;Node8</title>
<g id="a_edge8_Node000005_Node000008"><a xlink:title=" ">
<path fill="none" stroke="#63b8ff" d="M190.18,-56.34C175.25,-48.08 153.64,-36.13 136.45,-26.63"/>
<polygon fill="#63b8ff" stroke="#63b8ff" points="138.19,-23.59 127.75,-21.81 134.8,-29.71 138.19,-23.59"/>
</a>
</g>
</g>
<!-- Node9 -->
<g id="Node000009" class="node">
<title>Node9</title>
<g id="a_Node000009"><a xlink:title=" ">
<polygon fill="#e0e0e0" stroke="#999999" points="219.5,-20.75 156.25,-20.75 156.25,0 219.5,0 219.5,-20.75"/>
<text xml:space="preserve" text-anchor="middle" x="187.88" y="-7.25" font-family="Helvetica,sans-Serif" font-size="10.00">fsl_gpio.h</text>
</a>
</g>
</g>
<!-- Node5&#45;&gt;Node9 -->
<g id="edge9_Node000005_Node000009" class="edge">
<title>Node5&#45;&gt;Node9</title>
<g id="a_edge9_Node000005_Node000009"><a xlink:title=" ">
<path fill="none" stroke="#63b8ff" d="M204.3,-56.34C201.8,-49.49 198.36,-40.09 195.28,-31.65"/>
<polygon fill="#63b8ff" stroke="#63b8ff" points="198.66,-30.69 191.94,-22.5 192.08,-33.09 198.66,-30.69"/>
</a>
</g>
</g>
<!-- Node10 -->
<g id="Node000010" class="node">
<title>Node10</title>
<g id="a_Node000010"><a xlink:title=" ">
<polygon fill="#e0e0e0" stroke="#999999" points="61.75,-20.75 0,-20.75 0,0 61.75,0 61.75,-20.75"/>
<text xml:space="preserve" text-anchor="middle" x="30.88" y="-7.25" font-family="Helvetica,sans-Serif" font-size="10.00">fsl_port.h</text>
</a>
</g>
</g>
<!-- Node5&#45;&gt;Node10 -->
<g id="edge10_Node000005_Node000010" class="edge">
<title>Node5&#45;&gt;Node10</title>
<g id="a_edge10_Node000005_Node000010"><a xlink:title=" ">
<path fill="none" stroke="#63b8ff" d="M184.74,-58.97C156.41,-50.21 107.9,-35.2 72.91,-24.38"/>
<polygon fill="#63b8ff" stroke="#63b8ff" points="74.1,-21.08 63.52,-21.47 72.04,-27.77 74.1,-21.08"/>
</a>
</g>
</g>
<!-- Node11&#45;&gt;Node3 -->
<g id="edge12_Node000011_Node000003" class="edge">
<title>Node11&#45;&gt;Node3</title>
<g id="a_edge12_Node000011_Node000003"><a xlink:title=" ">
<path fill="none" stroke="#63b8ff" d="M338.4,-56.34C353.17,-48.08 374.56,-36.13 391.57,-26.63"/>
<polygon fill="#63b8ff" stroke="#63b8ff" points="393.16,-29.75 400.18,-21.82 389.75,-23.64 393.16,-29.75"/>
</a>
</g>
</g>
<!-- Node12 -->
<g id="Node000012" class="node">
<title>Node12</title>
<g id="a_Node000012"><a xlink:title=" ">
<polygon fill="#e0e0e0" stroke="#999999" points="658.75,-20.75 579,-20.75 579,0 658.75,0 658.75,-20.75"/>
<text xml:space="preserve" text-anchor="middle" x="618.88" y="-7.25" font-family="Helvetica,sans-Serif" font-size="10.00">peripherals.h</text>
</a>
</g>
</g>
<!-- Node11&#45;&gt;Node12 -->
<g id="edge13_Node000011_Node000012" class="edge">
<title>Node11&#45;&gt;Node12</title>
<g id="a_edge13_Node000011_Node000012"><a xlink:title=" ">
<path fill="none" stroke="#63b8ff" d="M355.06,-59.84C407.2,-50.27 506.92,-31.94 567.71,-20.78"/>
<polygon fill="#63b8ff" stroke="#63b8ff" points="568.26,-24.23 577.46,-18.98 566.99,-17.35 568.26,-24.23"/>
</a>
</g>
</g>
<!-- Node13 -->
<g id="Node000013" class="node">
<title>Node13</title>
<g id="a_Node000013"><a xlink:title=" ">
<polygon fill="#e0e0e0" stroke="#999999" points="354.25,-20.75 301.5,-20.75 301.5,0 354.25,0 354.25,-20.75"/>
<text xml:space="preserve" text-anchor="middle" x="327.88" y="-7.25" font-family="Helvetica,sans-Serif" font-size="10.00">stdint.h</text>
</a>
</g>
</g>
<!-- Node11&#45;&gt;Node13 -->
<g id="edge14_Node000011_Node000013" class="edge">
<title>Node11&#45;&gt;Node13</title>
<g id="a_edge14_Node000011_Node000013"><a xlink:title=" ">
<path fill="none" stroke="#63b8ff" d="M322.13,-56.34C322.98,-49.64 324.15,-40.51 325.21,-32.23"/>
<polygon fill="#63b8ff" stroke="#63b8ff" points="328.65,-32.94 326.44,-22.58 321.7,-32.06 328.65,-32.94"/>
</a>
</g>
</g>
<!-- Node15&#45;&gt;Node6 -->
<g id="edge18_Node000015_Node000006" class="edge">
<title>Node15&#45;&gt;Node6</title>
<g id="a_edge18_Node000015_Node000006"><a xlink:title=" ">
<path fill="none" stroke="#63b8ff" d="M711.36,-59.44C708.53,-58.49 705.64,-57.56 702.88,-56.75 656.07,-42.95 601.78,-30.05 563.98,-21.56"/>
<polygon fill="#63b8ff" stroke="#63b8ff" points="564.8,-18.16 554.28,-19.4 563.28,-25 564.8,-18.16"/>
</a>
</g>
</g>
<!-- Node15&#45;&gt;Node12 -->
<g id="edge20_Node000015_Node000012" class="edge">
<title>Node15&#45;&gt;Node12</title>
<g id="a_edge20_Node000015_Node000012"><a xlink:title=" ">
<path fill="none" stroke="#63b8ff" d="M711.3,-56.96C694.24,-48.55 668.67,-35.94 648.75,-26.11"/>
<polygon fill="#63b8ff" stroke="#63b8ff" points="650.51,-23.08 640,-21.79 647.42,-29.36 650.51,-23.08"/>
</a>
</g>
</g>
<!-- Node15&#45;&gt;Node14 -->
<g id="edge19_Node000015_Node000014" class="edge">
<title>Node15&#45;&gt;Node14</title>
<g id="a_edge19_Node000015_Node000014"><a xlink:title=" ">
<path fill="none" stroke="#63b8ff" d="M729.88,-56.34C729.88,-49.72 729.88,-40.72 729.88,-32.52"/>
<polygon fill="#63b8ff" stroke="#63b8ff" points="733.38,-32.59 729.88,-22.59 726.38,-32.59 733.38,-32.59"/>
</a>
</g>
</g>
<!-- Node16&#45;&gt;Node3 -->
<g id="edge24_Node000016_Node000003" class="edge">
<title>Node16&#45;&gt;Node3</title>
<g id="a_edge24_Node000016_Node000003"><a xlink:title=" ">
<path fill="none" stroke="#63b8ff" d="M615.37,-56.96C576.14,-47.86 515.73,-33.84 472.24,-23.76"/>
<polygon fill="#63b8ff" stroke="#63b8ff" points="473.3,-20.41 462.77,-21.56 471.72,-27.23 473.3,-20.41"/>
</a>
</g>
</g>
<!-- Node16&#45;&gt;Node6 -->
<g id="edge22_Node000016_Node000006" class="edge">
<title>Node16&#45;&gt;Node6</title>
<g id="a_edge22_Node000016_Node000006"><a xlink:title=" ">
<path fill="none" stroke="#63b8ff" d="M630.2,-56.34C608.42,-47.69 576.42,-35 551.97,-25.3"/>
<polygon fill="#63b8ff" stroke="#63b8ff" points="553.33,-22.07 542.74,-21.64 550.74,-28.58 553.33,-22.07"/>
</a>
</g>
</g>
<!-- Node16&#45;&gt;Node14 -->
<g id="edge23_Node000016_Node000014" class="edge">
<title>Node16&#45;&gt;Node14</title>
<g id="a_edge23_Node000016_Node000014"><a xlink:title=" ">
<path fill="none" stroke="#63b8ff" d="M668.28,-56.34C679.16,-48.4 694.73,-37.03 707.49,-27.71"/>
<polygon fill="#63b8ff" stroke="#63b8ff" points="709.35,-30.69 715.36,-21.97 705.22,-25.04 709.35,-30.69"/>
</a>
</g>
</g>
<!-- Node17&#45;&gt;Node3 -->
<g id="edge27_Node000017_Node000003" class="edge">
<title>Node17&#45;&gt;Node3</title>
<g id="a_edge27_Node000017_Node000003"><a xlink:title=" ">
<path fill="none" stroke="#63b8ff" d="M428.73,-56.34C427.26,-49.64 425.26,-40.51 423.45,-32.23"/>
<polygon fill="#63b8ff" stroke="#63b8ff" points="426.89,-31.58 421.33,-22.56 420.05,-33.07 426.89,-31.58"/>
</a>
</g>
</g>
<!-- Node17&#45;&gt;Node6 -->
<g id="edge26_Node000017_Node000006" class="edge">
<title>Node17&#45;&gt;Node6</title>
<g id="a_edge26_Node000017_Node000006"><a xlink:title=" ">
<path fill="none" stroke="#63b8ff" d="M446.25,-56.34C458.97,-48.24 477.28,-36.58 492.07,-27.17"/>
<polygon fill="#63b8ff" stroke="#63b8ff" points="493.8,-30.21 500.36,-21.89 490.04,-24.31 493.8,-30.21"/>
</a>
</g>
</g>
<!-- Node21&#45;&gt;Node3 -->
<g id="edge34_Node000021_Node000003" class="edge">
<title>Node21&#45;&gt;Node3</title>
<g id="a_edge34_Node000021_Node000003"><a xlink:title=" ">
<path fill="none" stroke="#63b8ff" d="M510.49,-113.44C499.07,-100.6 477.97,-76.9 459.88,-56.75 451.84,-47.8 442.88,-37.88 435.39,-29.6"/>
<polygon fill="#63b8ff" stroke="#63b8ff" points="438.01,-27.28 428.71,-22.22 432.82,-31.98 438.01,-27.28"/>
</a>
</g>
</g>
<!-- Node21&#45;&gt;Node6 -->
<g id="edge32_Node000021_Node000006" class="edge">
<title>Node21&#45;&gt;Node6</title>
<g id="a_edge32_Node000021_Node000006"><a xlink:title=" ">
<path fill="none" stroke="#63b8ff" d="M518.7,-113.37C518.39,-95.6 517.69,-56.97 517.26,-32.68"/>
<polygon fill="#63b8ff" stroke="#63b8ff" points="520.76,-32.62 517.08,-22.69 513.76,-32.75 520.76,-32.62"/>
</a>
</g>
</g>
<!-- Node21&#45;&gt;Node7 -->
<g id="edge33_Node000021_Node000007" class="edge">
<title>Node21&#45;&gt;Node7</title>
<g id="a_edge33_Node000021_Node000007"><a xlink:title=" ">
<path fill="none" stroke="#63b8ff" d="M475,-117.19C409.45,-108.33 292.11,-90.83 277.88,-77.5 265.57,-65.98 261.69,-46.86 260.67,-32.13"/>
<polygon fill="#63b8ff" stroke="#63b8ff" points="264.18,-32.47 260.41,-22.57 257.19,-32.67 264.18,-32.47"/>
</a>
</g>
</g>
<!-- Node21&#45;&gt;Node17 -->
<g id="edge35_Node000021_Node000017" class="edge">
<title>Node21&#45;&gt;Node17</title>
<g id="a_edge35_Node000021_Node000017"><a xlink:title=" ">
<path fill="none" stroke="#63b8ff" d="M503.14,-113.09C490,-104.91 471.03,-93.11 455.82,-83.65"/>
<polygon fill="#63b8ff" stroke="#63b8ff" points="458.1,-80.94 447.76,-78.63 454.4,-86.88 458.1,-80.94"/>
</a>
</g>
</g>
<!-- Node21&#45;&gt;Node20 -->
<g id="edge36_Node000021_Node000020" class="edge">
<title>Node21&#45;&gt;Node20</title>
<g id="a_edge36_Node000021_Node000020"><a xlink:title=" ">
<path fill="none" stroke="#63b8ff" d="M528.17,-113.09C535.27,-105.61 545.25,-95.11 553.78,-86.13"/>
<polygon fill="#63b8ff" stroke="#63b8ff" points="556.27,-88.59 560.62,-78.93 551.19,-83.77 556.27,-88.59"/>
</a>
</g>
</g>
</g>
</svg>
