<?xml version="1.0" encoding="UTF-8" standalone="no"?>
<!DOCTYPE svg PUBLIC "-//W3C//DTD SVG 1.1//EN"
 "http://www.w3.org/Graphics/SVG/1.1/DTD/svg11.dtd">
<!-- Generated by graphviz version 14.1.4 (0)
 -->
<!-- Title: source/motor.h Pages: 1 -->
<svg width="542pt" height="142pt"
 viewBox="0.00 0.00 542.00 142.00" xmlns="http://www.w3.org/2000/svg" xmlns:xlink="http://www.w3.org/1999/xlink">
<g id="graph0" class="graph" transform="scale(1 1) rotate(0) translate(4 138.25)">
<title>source/motor.h</title>
<!-- Node1 -->
<g id="Node000001" class="node">
<title>Node1</title>
<g id="a_Node000001"><a xlink:title=" ">
<polygon fill="#999999" stroke="#666666" points="338.12,-134.25 249.38,-134.25 249.38,-113.5 338.12,-113.5 338.12,-134.25"/>
<text xml:space="preserve" text-anchor="middle" x="293.75" y="-120.75" font-family="Helvetica,sans-Serif" font-size="10.00">source/motor.h</text>
</a>
</g>
</g>
<!-- Node2 -->
<g id="Node000002" class="node">
<title>Node2</title>
<g id="a_Node000002"><a xlink:href="application_8c.html" target="_top" xlink:title=" ">
<polygon fill="white" stroke="#666666" points="113.5,-77.5 0,-77.5 0,-56.75 113.5,-56.75 113.5,-77.5"/>
<text xml:space="preserve" text-anchor="middle" x="56.75" y="-64" font-family="Helvetica,sans-Serif" font-size="10.00">source/application.c</text>
</a>
</g>
</g>
<!-- Node1&#45;&gt;Node2 -->
<g id="edge1_Node000001_Node000002" class="edge">
<title>Node1&#45;&gt;Node2</title>
<g id="a_edge1_Node000001_Node000002"><a xlink:title=" ">
<path fill="none" stroke="#63b8ff" d="M240.11,-110.48C197.55,-100.65 138.86,-87.09 99.45,-77.99"/>
<polygon fill="#63b8ff" stroke="#63b8ff" points="239.1,-113.84 249.63,-112.68 240.68,-107.02 239.1,-113.84"/>
</a>
</g>
</g>
<!-- Node3 -->
<g id="Node000003" class="node">
<title>Node3</title>
<g id="a_Node000003"><a xlink:href="motor_8c.html" target="_top" xlink:title=" ">
<polygon fill="white" stroke="#666666" points="219.75,-77.5 131.75,-77.5 131.75,-56.75 219.75,-56.75 219.75,-77.5"/>
<text xml:space="preserve" text-anchor="middle" x="175.75" y="-64" font-family="Helvetica,sans-Serif" font-size="10.00">source/motor.c</text>
</a>
</g>
</g>
<!-- Node1&#45;&gt;Node3 -->
<g id="edge2_Node000001_Node000003" class="edge">
<title>Node1&#45;&gt;Node3</title>
<g id="a_edge2_Node000001_Node000003"><a xlink:title=" ">
<path fill="none" stroke="#63b8ff" d="M262.4,-108.33C241.61,-98.68 214.9,-86.29 196.66,-77.83"/>
<polygon fill="#63b8ff" stroke="#63b8ff" points="260.74,-111.42 271.28,-112.45 263.68,-105.07 260.74,-111.42"/>
</a>
</g>
</g>
<!-- Node4 -->
<g id="Node000004" class="node">
<title>Node4</title>
<g id="a_Node000004"><a xlink:href="motorCmd_8c.html" target="_top" xlink:title=" ">
<polygon fill="white" stroke="#666666" points="349.38,-77.5 238.12,-77.5 238.12,-56.75 349.38,-56.75 349.38,-77.5"/>
<text xml:space="preserve" text-anchor="middle" x="293.75" y="-64" font-family="Helvetica,sans-Serif" font-size="10.00">source/motorCmd.c</text>
</a>
</g>
</g>
<!-- Node1&#45;&gt;Node4 -->
<g id="edge3_Node000001_Node000004" class="edge">
<title>Node1&#45;&gt;Node4</title>
<g id="a_edge3_Node000001_Node000004"><a xlink:title=" ">
<path fill="none" stroke="#63b8ff" d="M293.75,-101.63C293.75,-93.41 293.75,-84.43 293.75,-77.83"/>
<polygon fill="#63b8ff" stroke="#63b8ff" points="290.25,-101.57 293.75,-111.57 297.25,-101.57 290.25,-101.57"/>
</a>
</g>
</g>
<!-- Node5 -->
<g id="Node000005" class="node">
<title>Node5</title>
<g id="a_Node000005"><a xlink:href="motor__configs_8h.html" target="_top" xlink:title=" ">
<polygon fill="white" stroke="#666666" points="496.38,-77.5 367.12,-77.5 367.12,-56.75 496.38,-56.75 496.38,-77.5"/>
<text xml:space="preserve" text-anchor="middle" x="431.75" y="-64" font-family="Helvetica,sans-Serif" font-size="10.00">source/motor_configs.h</text>
</a>
</g>
</g>
<!-- Node1&#45;&gt;Node5 -->
<g id="edge4_Node000001_Node000005" class="edge">
<title>Node1&#45;&gt;Node5</title>
<g id="a_edge4_Node000001_Node000005"><a xlink:title=" ">
<path fill="none" stroke="#63b8ff" d="M329.09,-108.86C353.58,-99.14 385.58,-86.44 407.29,-77.83"/>
<polygon fill="#63b8ff" stroke="#63b8ff" points="327.83,-105.59 319.83,-112.53 330.41,-112.09 327.83,-105.59"/>
</a>
</g>
</g>
<!-- Node6 -->
<g id="Node000006" class="node">
<title>Node6</title>
<g id="a_Node000006"><a xlink:href="motor__test_8c.html" target="_top" xlink:title=" ">
<polygon fill="white" stroke="#666666" points="534.12,-20.75 421.38,-20.75 421.38,0 534.12,0 534.12,-20.75"/>
<text xml:space="preserve" text-anchor="middle" x="477.75" y="-7.25" font-family="Helvetica,sans-Serif" font-size="10.00">source/motor_test.c</text>
</a>
</g>
</g>
<!-- Node1&#45;&gt;Node6 -->
<g id="edge6_Node000001_Node000006" class="edge">
<title>Node1&#45;&gt;Node6</title>
<g id="a_edge6_Node000001_Node000006"><a xlink:title=" ">
<path fill="none" stroke="#63b8ff" d="M349.46,-118.73C405.54,-113.26 486.43,-101.39 505.75,-77.5 519.7,-60.24 500.72,-35.02 487.85,-21.24"/>
<polygon fill="#63b8ff" stroke="#63b8ff" points="349.39,-115.22 339.76,-119.63 350.04,-122.19 349.39,-115.22"/>
</a>
</g>
</g>
<!-- Node5&#45;&gt;Node6 -->
<g id="edge5_Node000005_Node000006" class="edge">
<title>Node5&#45;&gt;Node6</title>
<g id="a_edge5_Node000005_Node000006"><a xlink:title=" ">
<path fill="none" stroke="#63b8ff" d="M447.2,-47.74C454.7,-38.81 463.4,-28.45 469.6,-21.08"/>
<polygon fill="#63b8ff" stroke="#63b8ff" points="444.7,-45.27 440.95,-55.18 450.06,-49.77 444.7,-45.27"/>
</a>
</g>
</g>
</g>
</svg>
