<?xml version="1.0" encoding="UTF-8" standalone="no"?>
<!DOCTYPE svg PUBLIC "-//W3C//DTD SVG 1.1//EN"
 "http://www.w3.org/Graphics/SVG/1.1/DTD/svg11.dtd">
<!-- Generated by graphviz version 14.1.4 (0)
 -->
<!-- Title: source/driver/pca9555a/pca9555a.c Pages: 1 -->
<svg width="486pt" height="155pt"
 viewBox="0.00 0.00 486.00 155.00" xmlns="http://www.w3.org/2000/svg" xmlns:xlink="http://www.w3.org/1999/xlink">
<g id="graph0" class="graph" transform="scale(1 1) rotate(0) translate(4 151)">
<title>source/driver/pca9555a/pca9555a.c</title>
<!-- Node1 -->
<g id="Node000001" class="node">
<title>Node1</title>
<g id="a_Node000001"><a xlink:title=" ">
<polygon fill="#999999" stroke="#666666" points="348,-147 218,-147 218,-113.5 348,-113.5 348,-147"/>
<text xml:space="preserve" text-anchor="start" x="226" y="-133.5" font-family="Helvetica,sans-Serif" font-size="10.00">source/driver/pca9555a</text>
<text xml:space="preserve" text-anchor="middle" x="283" y="-120.75" font-family="Helvetica,sans-Serif" font-size="10.00">/pca9555a.c</text>
</a>
</g>
</g>
<!-- Node2 -->
<g id="Node000002" class="node">
<title>Node2</title>
<g id="a_Node000002"><a xlink:href="pca9555a_8h.html" target="_top" xlink:title=" ">
<polygon fill="white" stroke="#666666" points="154,-77.5 0,-77.5 0,-56.75 154,-56.75 154,-77.5"/>
<text xml:space="preserve" text-anchor="middle" x="77" y="-64" font-family="Helvetica,sans-Serif" font-size="10.00">driver/pca9555a/pca9555a.h</text>
</a>
</g>
</g>
<!-- Node1&#45;&gt;Node2 -->
<g id="edge1_Node000001_Node000002" class="edge">
<title>Node1&#45;&gt;Node2</title>
<g id="a_edge1_Node000001_Node000002"><a xlink:title=" ">
<path fill="none" stroke="#63b8ff" d="M228.34,-113.03C194.79,-103.08 152.4,-90.5 121.02,-81.19"/>
<polygon fill="#63b8ff" stroke="#63b8ff" points="122.03,-77.83 111.44,-78.35 120.04,-84.55 122.03,-77.83"/>
</a>
</g>
</g>
<!-- Node3 -->
<g id="Node000003" class="node">
<title>Node3</title>
<g id="a_Node000003"><a xlink:title=" ">
<polygon fill="#e0e0e0" stroke="#999999" points="224.5,-20.75 139.5,-20.75 139.5,0 224.5,0 224.5,-20.75"/>
<text xml:space="preserve" text-anchor="middle" x="182" y="-7.25" font-family="Helvetica,sans-Serif" font-size="10.00">fsl_common.h</text>
</a>
</g>
</g>
<!-- Node1&#45;&gt;Node3 -->
<g id="edge5_Node000001_Node000003" class="edge">
<title>Node1&#45;&gt;Node3</title>
<g id="a_edge5_Node000001_Node000003"><a xlink:title=" ">
<path fill="none" stroke="#63b8ff" d="M245.51,-113.09C229.73,-104.58 212.42,-92.71 201,-77.5 191.12,-64.33 186.37,-46.18 184.09,-32.22"/>
<polygon fill="#63b8ff" stroke="#63b8ff" points="187.57,-31.82 182.81,-22.35 180.63,-32.72 187.57,-31.82"/>
</a>
</g>
</g>
<!-- Node5 -->
<g id="Node000005" class="node">
<title>Node5</title>
<g id="a_Node000005"><a xlink:title=" ">
<polygon fill="#e0e0e0" stroke="#999999" points="262.38,-77.5 209.62,-77.5 209.62,-56.75 262.38,-56.75 262.38,-77.5"/>
<text xml:space="preserve" text-anchor="middle" x="236" y="-64" font-family="Helvetica,sans-Serif" font-size="10.00">stdint.h</text>
</a>
</g>
</g>
<!-- Node1&#45;&gt;Node5 -->
<g id="edge4_Node000001_Node000005" class="edge">
<title>Node1&#45;&gt;Node5</title>
<g id="a_edge4_Node000001_Node000005"><a xlink:title=" ">
<path fill="none" stroke="#63b8ff" d="M270.65,-113.19C264.47,-105.16 256.96,-95.38 250.51,-86.99"/>
<polygon fill="#63b8ff" stroke="#63b8ff" points="253.36,-84.96 244.49,-79.17 247.81,-89.23 253.36,-84.96"/>
</a>
</g>
</g>
<!-- Node6 -->
<g id="Node000006" class="node">
<title>Node6</title>
<g id="a_Node000006"><a xlink:title=" ">
<polygon fill="#e0e0e0" stroke="#999999" points="380,-77.5 280,-77.5 280,-56.75 380,-56.75 380,-77.5"/>
<text xml:space="preserve" text-anchor="middle" x="330" y="-64" font-family="Helvetica,sans-Serif" font-size="10.00">fsl_i2c_freertos.h</text>
</a>
</g>
</g>
<!-- Node1&#45;&gt;Node6 -->
<g id="edge6_Node000001_Node000006" class="edge">
<title>Node1&#45;&gt;Node6</title>
<g id="a_edge6_Node000001_Node000006"><a xlink:title=" ">
<path fill="none" stroke="#63b8ff" d="M295.35,-113.19C301.53,-105.16 309.04,-95.38 315.49,-86.99"/>
<polygon fill="#63b8ff" stroke="#63b8ff" points="318.19,-89.23 321.51,-79.17 312.64,-84.96 318.19,-89.23"/>
</a>
</g>
</g>
<!-- Node7 -->
<g id="Node000007" class="node">
<title>Node7</title>
<g id="a_Node000007"><a xlink:title=" ">
<polygon fill="#e0e0e0" stroke="#999999" points="477.75,-20.75 406.25,-20.75 406.25,0 477.75,0 477.75,-20.75"/>
<text xml:space="preserve" text-anchor="middle" x="442" y="-7.25" font-family="Helvetica,sans-Serif" font-size="10.00">FreeRTOS.h</text>
</a>
</g>
</g>
<!-- Node1&#45;&gt;Node7 -->
<g id="edge7_Node000001_Node000007" class="edge">
<title>Node1&#45;&gt;Node7</title>
<g id="a_edge7_Node000001_Node000007"><a xlink:title=" ">
<path fill="none" stroke="#63b8ff" d="M348.47,-126.43C383.73,-121.16 424.49,-108.2 447,-77.5 456.57,-64.44 454.12,-45.78 449.96,-31.61"/>
<polygon fill="#63b8ff" stroke="#63b8ff" points="453.36,-30.72 446.79,-22.41 446.74,-33 453.36,-30.72"/>
</a>
</g>
</g>
<!-- Node8 -->
<g id="Node000008" class="node">
<title>Node8</title>
<g id="a_Node000008"><a xlink:href="log_8h.html" target="_top" xlink:title=" ">
<polygon fill="white" stroke="#666666" points="438,-77.5 398,-77.5 398,-56.75 438,-56.75 438,-77.5"/>
<text xml:space="preserve" text-anchor="middle" x="418" y="-64" font-family="Helvetica,sans-Serif" font-size="10.00">log.h</text>
</a>
</g>
</g>
<!-- Node1&#45;&gt;Node8 -->
<g id="edge8_Node000001_Node000008" class="edge">
<title>Node1&#45;&gt;Node8</title>
<g id="a_edge8_Node000001_Node000008"><a xlink:title=" ">
<path fill="none" stroke="#63b8ff" d="M318.82,-113.03C340.14,-103.38 366.92,-91.25 387.27,-82.04"/>
<polygon fill="#63b8ff" stroke="#63b8ff" points="388.51,-85.32 396.18,-78.01 385.62,-78.94 388.51,-85.32"/>
</a>
</g>
</g>
<!-- Node2&#45;&gt;Node3 -->
<g id="edge2_Node000002_Node000003" class="edge">
<title>Node2&#45;&gt;Node3</title>
<g id="a_edge2_Node000002_Node000003"><a xlink:title=" ">
<path fill="none" stroke="#63b8ff" d="M95.77,-56.34C111.75,-48.01 134.95,-35.91 153.26,-26.36"/>
<polygon fill="#63b8ff" stroke="#63b8ff" points="154.8,-29.51 162.05,-21.78 151.56,-23.3 154.8,-29.51"/>
</a>
</g>
</g>
<!-- Node4 -->
<g id="Node000004" class="node">
<title>Node4</title>
<g id="a_Node000004"><a xlink:title=" ">
<polygon fill="#e0e0e0" stroke="#999999" points="116.88,-20.75 37.12,-20.75 37.12,0 116.88,0 116.88,-20.75"/>
<text xml:space="preserve" text-anchor="middle" x="77" y="-7.25" font-family="Helvetica,sans-Serif" font-size="10.00">peripherals.h</text>
</a>
</g>
</g>
<!-- Node2&#45;&gt;Node4 -->
<g id="edge3_Node000002_Node000004" class="edge">
<title>Node2&#45;&gt;Node4</title>
<g id="a_edge3_Node000002_Node000004"><a xlink:title=" ">
<path fill="none" stroke="#63b8ff" d="M77,-56.34C77,-49.72 77,-40.72 77,-32.52"/>
<polygon fill="#63b8ff" stroke="#63b8ff" points="80.5,-32.59 77,-22.59 73.5,-32.59 80.5,-32.59"/>
</a>
</g>
</g>
<!-- Node8&#45;&gt;Node3 -->
<g id="edge10_Node000008_Node000003" class="edge">
<title>Node8&#45;&gt;Node3</title>
<g id="a_edge10_Node000008_Node000003"><a xlink:title=" ">
<path fill="none" stroke="#63b8ff" d="M397.79,-59.32C394.86,-58.41 391.86,-57.52 389,-56.75 337.44,-42.8 277.78,-30.08 235.79,-21.68"/>
<polygon fill="#63b8ff" stroke="#63b8ff" points="236.69,-18.29 226.2,-19.77 235.32,-25.15 236.69,-18.29"/>
</a>
</g>
</g>
<!-- Node8&#45;&gt;Node7 -->
<g id="edge9_Node000008_Node000007" class="edge">
<title>Node8&#45;&gt;Node7</title>
<g id="a_edge9_Node000008_Node000007"><a xlink:title=" ">
<path fill="none" stroke="#63b8ff" d="M422.29,-56.34C425.33,-49.41 429.51,-39.87 433.24,-31.36"/>
<polygon fill="#63b8ff" stroke="#63b8ff" points="436.33,-33.03 437.14,-22.46 429.92,-30.22 436.33,-33.03"/>
</a>
</g>
</g>
</g>
</svg>
