<?xml version="1.0" encoding="UTF-8" standalone="no"?>
<!DOCTYPE svg PUBLIC "-//W3C//DTD SVG 1.1//EN"
 "http://www.w3.org/Graphics/SVG/1.1/DTD/svg11.dtd">
<!-- Generated by graphviz version 14.1.4 (0)
 -->
<!-- Title: source/pca9555a.c Pages: 1 -->
<svg width="426pt" height="142pt"
 viewBox="0.00 0.00 426.00 142.00" xmlns="http://www.w3.org/2000/svg" xmlns:xlink="http://www.w3.org/1999/xlink">

<svg id="main" version="1.1" xmlns="http://www.w3.org/2000/svg" xmlns:xlink="http://www.w3.org/1999/xlink" xml:space="preserve">

<style type="text/css"><![CDATA[
.node, .edge {opacity: 0.7;}
.node.selected, .edge.selected {opacity: 1;}
.edge:hover path { stroke: red; }
.edge:hover polygon { stroke: red; fill: red; }
]]></style>
<script type="application/ecmascript" xlink:href="svg.min.js"/>
<svg id="graph" class="graph">
<g id="graph0" class="graph" transform="scale(1 1) rotate(0) translate(4 138.25)">
<title>source/pca9555a.c</title>
<!-- Node1 -->
<g id="Node000001" class="node">
<title>Node1</title>
<g id="a_Node000001"><a xlink:title=" ">
<polygon fill="#999999" stroke="#666666" points="276.25,-134.25 169.5,-134.25 169.5,-113.5 276.25,-113.5 276.25,-134.25"/>
<text xml:space="preserve" text-anchor="middle" x="222.88" y="-120.75" font-family="Helvetica,sans-Serif" font-size="10.00">source/pca9555a.c</text>
</a>
</g>
</g>
<!-- Node2 -->
<g id="Node000002" class="node">
<title>Node2</title>
<g id="a_Node000002"><a xlink:href="pca9555a_8h.html" target="_top" xlink:title=" ">
<polygon fill="white" stroke="#666666" points="94,-77.5 21.75,-77.5 21.75,-56.75 94,-56.75 94,-77.5"/>
<text xml:space="preserve" text-anchor="middle" x="57.88" y="-64" font-family="Helvetica,sans-Serif" font-size="10.00">pca9555a.h</text>
</a>
</g>
</g>
<!-- Node1&#45;&gt;Node2 -->
<g id="edge1_Node000001_Node000002" class="edge">
<title>Node1&#45;&gt;Node2</title>
<g id="a_edge1_Node000001_Node000002"><a xlink:title=" ">
<path fill="none" stroke="#63b8ff" d="M193.38,-113.09C166.83,-104.28 127.58,-91.25 98.15,-81.49"/>
<polygon fill="#63b8ff" stroke="#63b8ff" points="99.43,-78.22 88.83,-78.4 97.22,-84.87 99.43,-78.22"/>
</a>
</g>
</g>
<!-- Node3 -->
<g id="Node000003" class="node">
<title>Node3</title>
<g id="a_Node000003"><a xlink:title=" ">
<polygon fill="#e0e0e0" stroke="#999999" points="182.38,-20.75 97.38,-20.75 97.38,0 182.38,0 182.38,-20.75"/>
<text xml:space="preserve" text-anchor="middle" x="139.88" y="-7.25" font-family="Helvetica,sans-Serif" font-size="10.00">fsl_common.h</text>
</a>
</g>
</g>
<!-- Node1&#45;&gt;Node3 -->
<g id="edge5_Node000001_Node000003" class="edge">
<title>Node1&#45;&gt;Node3</title>
<g id="a_edge5_Node000001_Node000003"><a xlink:title=" ">
<path fill="none" stroke="#63b8ff" d="M188.65,-113.09C171.13,-106.17 151.34,-94.94 140.88,-77.5 132.83,-64.08 133.06,-46.21 135.05,-32.43"/>
<polygon fill="#63b8ff" stroke="#63b8ff" points="138.48,-33.13 136.89,-22.66 131.6,-31.83 138.48,-33.13"/>
</a>
</g>
</g>
<!-- Node5 -->
<g id="Node000005" class="node">
<title>Node5</title>
<g id="a_Node000005"><a xlink:title=" ">
<polygon fill="#e0e0e0" stroke="#999999" points="202.25,-77.5 149.5,-77.5 149.5,-56.75 202.25,-56.75 202.25,-77.5"/>
<text xml:space="preserve" text-anchor="middle" x="175.88" y="-64" font-family="Helvetica,sans-Serif" font-size="10.00">stdint.h</text>
</a>
</g>
</g>
<!-- Node1&#45;&gt;Node5 -->
<g id="edge4_Node000001_Node000005" class="edge">
<title>Node1&#45;&gt;Node5</title>
<g id="a_edge4_Node000001_Node000005"><a xlink:title=" ">
<path fill="none" stroke="#63b8ff" d="M214.47,-113.09C208.12,-105.69 199.22,-95.32 191.57,-86.41"/>
<polygon fill="#63b8ff" stroke="#63b8ff" points="194.36,-84.28 185.19,-78.98 189.05,-88.84 194.36,-84.28"/>
</a>
</g>
</g>
<!-- Node6 -->
<g id="Node000006" class="node">
<title>Node6</title>
<g id="a_Node000006"><a xlink:title=" ">
<polygon fill="#e0e0e0" stroke="#999999" points="319.88,-77.5 219.88,-77.5 219.88,-56.75 319.88,-56.75 319.88,-77.5"/>
<text xml:space="preserve" text-anchor="middle" x="269.88" y="-64" font-family="Helvetica,sans-Serif" font-size="10.00">fsl_i2c_freertos.h</text>
</a>
</g>
</g>
<!-- Node1&#45;&gt;Node6 -->
<g id="edge6_Node000001_Node000006" class="edge">
<title>Node1&#45;&gt;Node6</title>
<g id="a_edge6_Node000001_Node000006"><a xlink:title=" ">
<path fill="none" stroke="#63b8ff" d="M231.28,-113.09C237.63,-105.69 246.53,-95.32 254.18,-86.41"/>
<polygon fill="#63b8ff" stroke="#63b8ff" points="256.7,-88.84 260.56,-78.98 251.39,-84.28 256.7,-88.84"/>
</a>
</g>
</g>
<!-- Node7 -->
<g id="Node000007" class="node">
<title>Node7</title>
<g id="a_Node000007"><a xlink:title=" ">
<polygon fill="#e0e0e0" stroke="#999999" points="417.62,-20.75 346.12,-20.75 346.12,0 417.62,0 417.62,-20.75"/>
<text xml:space="preserve" text-anchor="middle" x="381.88" y="-7.25" font-family="Helvetica,sans-Serif" font-size="10.00">FreeRTOS.h</text>
</a>
</g>
</g>
<!-- Node1&#45;&gt;Node7 -->
<g id="edge7_Node000001_Node000007" class="edge">
<title>Node1&#45;&gt;Node7</title>
<g id="a_edge7_Node000001_Node000007"><a xlink:title=" ">
<path fill="none" stroke="#63b8ff" d="M276.62,-115.12C319.1,-107.76 373.41,-95.19 386.88,-77.5 396.68,-64.62 394.2,-45.93 389.98,-31.71"/>
<polygon fill="#63b8ff" stroke="#63b8ff" points="393.35,-30.75 386.75,-22.47 386.74,-33.06 393.35,-30.75"/>
</a>
</g>
</g>
<!-- Node8 -->
<g id="Node000008" class="node">
<title>Node8</title>
<g id="a_Node000008"><a xlink:href="log_8h.html" target="_top" xlink:title=" ">
<polygon fill="white" stroke="#666666" points="377.88,-77.5 337.88,-77.5 337.88,-56.75 377.88,-56.75 377.88,-77.5"/>
<text xml:space="preserve" text-anchor="middle" x="357.88" y="-64" font-family="Helvetica,sans-Serif" font-size="10.00">log.h</text>
</a>
</g>
</g>
<!-- Node1&#45;&gt;Node8 -->
<g id="edge8_Node000001_Node000008" class="edge">
<title>Node1&#45;&gt;Node8</title>
<g id="a_edge8_Node000001_Node000008"><a xlink:title=" ">
<path fill="none" stroke="#63b8ff" d="M247.01,-113.09C269.37,-104.02 302.74,-90.48 327.03,-80.63"/>
<polygon fill="#63b8ff" stroke="#63b8ff" points="328.12,-83.97 336.07,-76.97 325.49,-77.48 328.12,-83.97"/>
</a>
</g>
</g>
<!-- Node2&#45;&gt;Node3 -->
<g id="edge2_Node000002_Node000003" class="edge">
<title>Node2&#45;&gt;Node3</title>
<g id="a_edge2_Node000002_Node000003"><a xlink:title=" ">
<path fill="none" stroke="#63b8ff" d="M72.53,-56.34C84.55,-48.32 101.79,-36.81 115.81,-27.44"/>
<polygon fill="#63b8ff" stroke="#63b8ff" points="117.71,-30.38 124.08,-21.92 113.82,-24.56 117.71,-30.38"/>
</a>
</g>
</g>
<!-- Node4 -->
<g id="Node000004" class="node">
<title>Node4</title>
<g id="a_Node000004"><a xlink:title=" ">
<polygon fill="#e0e0e0" stroke="#999999" points="79.75,-20.75 0,-20.75 0,0 79.75,0 79.75,-20.75"/>
<text xml:space="preserve" text-anchor="middle" x="39.88" y="-7.25" font-family="Helvetica,sans-Serif" font-size="10.00">peripherals.h</text>
</a>
</g>
</g>
<!-- Node2&#45;&gt;Node4 -->
<g id="edge3_Node000002_Node000004" class="edge">
<title>Node2&#45;&gt;Node4</title>
<g id="a_edge3_Node000002_Node000004"><a xlink:title=" ">
<path fill="none" stroke="#63b8ff" d="M54.66,-56.34C52.43,-49.56 49.38,-40.3 46.64,-31.94"/>
<polygon fill="#63b8ff" stroke="#63b8ff" points="49.99,-30.92 43.54,-22.52 43.34,-33.11 49.99,-30.92"/>
</a>
</g>
</g>
<!-- Node8&#45;&gt;Node3 -->
<g id="edge10_Node000008_Node000003" class="edge">
<title>Node8&#45;&gt;Node3</title>
<g id="a_edge10_Node000008_Node000003"><a xlink:title=" ">
<path fill="none" stroke="#63b8ff" d="M337.65,-59.37C334.72,-58.45 331.73,-57.55 328.88,-56.75 283.49,-43.99 231.35,-31.64 193.35,-23.06"/>
<polygon fill="#63b8ff" stroke="#63b8ff" points="194.53,-19.73 184,-20.96 193,-26.56 194.53,-19.73"/>
</a>
</g>
</g>
<!-- Node8&#45;&gt;Node7 -->
<g id="edge9_Node000008_Node000007" class="edge">
<title>Node8&#45;&gt;Node7</title>
<g id="a_edge9_Node000008_Node000007"><a xlink:title=" ">
<path fill="none" stroke="#63b8ff" d="M362.17,-56.34C365.2,-49.41 369.38,-39.87 373.11,-31.36"/>
<polygon fill="#63b8ff" stroke="#63b8ff" points="376.2,-33.03 377.01,-22.46 369.79,-30.22 376.2,-33.03"/>
</a>
</g>
</g>
</g>
</svg>
</svg>

<style type='text/css'>
<![CDATA[
[data-mouse-over-selected='false'] { opacity: 0.7; }
[data-mouse-over-selected='true']  { opacity: 1.0; }
]]>
</style>
<script type="application/ecmascript"><![CDATA[
document.addEventListener('DOMContentLoaded', (event) => {
  highlightEdges();
  highlightAdjacentNodes();
});
]]></script>
</svg>
