<?xml version="1.0" encoding="UTF-8" standalone="no"?>
<!DOCTYPE svg PUBLIC "-//W3C//DTD SVG 1.1//EN"
 "http://www.w3.org/Graphics/SVG/1.1/DTD/svg11.dtd">
<!-- Generated by graphviz version 14.1.4 (0)
 -->
<!-- Title: source/pca9555a.h Pages: 1 -->
<svg width="190pt" height="86pt"
 viewBox="0.00 0.00 190.00 86.00" xmlns="http://www.w3.org/2000/svg" xmlns:xlink="http://www.w3.org/1999/xlink">
<g id="graph0" class="graph" transform="scale(1 1) rotate(0) translate(4 81.5)">
<title>source/pca9555a.h</title>
<!-- Node1 -->
<g id="Node000001" class="node">
<title>Node1</title>
<g id="a_Node000001"><a xlink:title=" ">
<polygon fill="#999999" stroke="#666666" points="146.25,-77.5 38.75,-77.5 38.75,-56.75 146.25,-56.75 146.25,-77.5"/>
<text xml:space="preserve" text-anchor="middle" x="92.5" y="-64" font-family="Helvetica,sans-Serif" font-size="10.00">source/pca9555a.h</text>
</a>
</g>
</g>
<!-- Node2 -->
<g id="Node000002" class="node">
<title>Node2</title>
<g id="a_Node000002"><a xlink:title=" ">
<polygon fill="#e0e0e0" stroke="#999999" points="85,-20.75 0,-20.75 0,0 85,0 85,-20.75"/>
<text xml:space="preserve" text-anchor="middle" x="42.5" y="-7.25" font-family="Helvetica,sans-Serif" font-size="10.00">fsl_common.h</text>
</a>
</g>
</g>
<!-- Node1&#45;&gt;Node2 -->
<g id="edge1_Node000001_Node000002" class="edge">
<title>Node1&#45;&gt;Node2</title>
<g id="a_edge1_Node000001_Node000002"><a xlink:title=" ">
<path fill="none" stroke="#63b8ff" d="M83.56,-56.34C76.74,-48.86 67.14,-38.36 58.94,-29.38"/>
<polygon fill="#63b8ff" stroke="#63b8ff" points="61.71,-27.22 52.38,-22.2 56.54,-31.94 61.71,-27.22"/>
</a>
</g>
</g>
<!-- Node3 -->
<g id="Node000003" class="node">
<title>Node3</title>
<g id="a_Node000003"><a xlink:title=" ">
<polygon fill="#e0e0e0" stroke="#999999" points="182.38,-20.75 102.62,-20.75 102.62,0 182.38,0 182.38,-20.75"/>
<text xml:space="preserve" text-anchor="middle" x="142.5" y="-7.25" font-family="Helvetica,sans-Serif" font-size="10.00">peripherals.h</text>
</a>
</g>
</g>
<!-- Node1&#45;&gt;Node3 -->
<g id="edge2_Node000001_Node000003" class="edge">
<title>Node1&#45;&gt;Node3</title>
<g id="a_edge2_Node000001_Node000003"><a xlink:title=" ">
<path fill="none" stroke="#63b8ff" d="M101.44,-56.34C108.26,-48.86 117.86,-38.36 126.06,-29.38"/>
<polygon fill="#63b8ff" stroke="#63b8ff" points="128.46,-31.94 132.62,-22.2 123.29,-27.22 128.46,-31.94"/>
</a>
</g>
</g>
</g>
</svg>
