<?xml version="1.0" encoding="UTF-8" standalone="no"?>
<!DOCTYPE svg PUBLIC "-//W3C//DTD SVG 1.1//EN"
 "http://www.w3.org/Graphics/SVG/1.1/DTD/svg11.dtd">
<!-- Generated by graphviz version 14.1.5 (0)
 -->
<!-- Title: source/driver/pca9555a/pca9555a.c Pages: 1 -->
<svg width="554pt" height="155pt"
 viewBox="0.00 0.00 554.00 155.00" xmlns="http://www.w3.org/2000/svg" xmlns:xlink="http://www.w3.org/1999/xlink">
<g id="graph0" class="graph" transform="scale(1 1) rotate(0) translate(4 151)">
<title>source/driver/pca9555a/pca9555a.c</title>
<!-- Node1 -->
<g id="Node000001" class="node">
<title>Node1</title>
<g id="a_Node000001"><a xlink:title=" ">
<polygon fill="#999999" stroke="#666666" points="371,-147 241,-147 241,-113.5 371,-113.5 371,-147"/>
<text xml:space="preserve" text-anchor="start" x="249" y="-133.5" font-family="Helvetica,sans-Serif" font-size="10.00">source/driver/pca9555a</text>
<text xml:space="preserve" text-anchor="middle" x="306" y="-120.75" font-family="Helvetica,sans-Serif" font-size="10.00">/pca9555a.c</text>
</a>
</g>
</g>
<!-- Node2 -->
<g id="Node000002" class="node">
<title>Node2</title>
<g id="a_Node000002"><a xlink:href="pca9555a_8h.html" target="_top" xlink:title=" ">
<polygon fill="white" stroke="#666666" points="154,-77.5 0,-77.5 0,-56.75 154,-56.75 154,-77.5"/>
<text xml:space="preserve" text-anchor="middle" x="77" y="-64" font-family="Helvetica,sans-Serif" font-size="10.00">driver/pca9555a/pca9555a.h</text>
</a>
</g>
</g>
<!-- Node1&#45;&gt;Node2 -->
<g id="edge1_Node000001_Node000002" class="edge">
<title>Node1&#45;&gt;Node2</title>
<g id="a_edge1_Node000001_Node000002"><a xlink:title=" ">
<path fill="none" stroke="#63b8ff" d="M245.23,-113.03C207.45,-102.95 159.57,-90.17 124.56,-80.82"/>
<polygon fill="#63b8ff" stroke="#63b8ff" points="125.7,-77.5 115.14,-78.31 123.9,-84.27 125.7,-77.5"/>
</a>
</g>
</g>
<!-- Node3 -->
<g id="Node000003" class="node">
<title>Node3</title>
<g id="a_Node000003"><a xlink:title=" ">
<polygon fill="#e0e0e0" stroke="#999999" points="224.5,-20.75 139.5,-20.75 139.5,0 224.5,0 224.5,-20.75"/>
<text xml:space="preserve" text-anchor="middle" x="182" y="-7.25" font-family="Helvetica,sans-Serif" font-size="10.00">fsl_common.h</text>
</a>
</g>
</g>
<!-- Node1&#45;&gt;Node3 -->
<g id="edge8_Node000001_Node000003" class="edge">
<title>Node1&#45;&gt;Node3</title>
<g id="a_edge8_Node000001_Node000003"><a xlink:title=" ">
<path fill="none" stroke="#63b8ff" d="M253.59,-113.01C235.05,-104.96 215.47,-93.45 202,-77.5 191.23,-64.74 186.25,-46.31 183.96,-32.14"/>
<polygon fill="#63b8ff" stroke="#63b8ff" points="187.48,-32.02 182.75,-22.54 180.53,-32.9 187.48,-32.02"/>
</a>
</g>
</g>
<!-- Node5 -->
<g id="Node000005" class="node">
<title>Node5</title>
<g id="a_Node000005"><a xlink:href="log_8h.html" target="_top" xlink:title=" ">
<polygon fill="white" stroke="#666666" points="319.5,-77.5 210.5,-77.5 210.5,-56.75 319.5,-56.75 319.5,-77.5"/>
<text xml:space="preserve" text-anchor="middle" x="265" y="-64" font-family="Helvetica,sans-Serif" font-size="10.00">infrastructure/log.h</text>
</a>
</g>
</g>
<!-- Node1&#45;&gt;Node5 -->
<g id="edge4_Node000001_Node000005" class="edge">
<title>Node1&#45;&gt;Node5</title>
<g id="a_edge4_Node000001_Node000005"><a xlink:title=" ">
<path fill="none" stroke="#63b8ff" d="M295.23,-113.19C289.9,-105.24 283.43,-95.59 277.84,-87.27"/>
<polygon fill="#63b8ff" stroke="#63b8ff" points="280.92,-85.58 272.44,-79.22 275.11,-89.48 280.92,-85.58"/>
</a>
</g>
</g>
<!-- Node6 -->
<g id="Node000006" class="node">
<title>Node6</title>
<g id="a_Node000006"><a xlink:title=" ">
<polygon fill="#e0e0e0" stroke="#999999" points="348.75,-20.75 277.25,-20.75 277.25,0 348.75,0 348.75,-20.75"/>
<text xml:space="preserve" text-anchor="middle" x="313" y="-7.25" font-family="Helvetica,sans-Serif" font-size="10.00">FreeRTOS.h</text>
</a>
</g>
</g>
<!-- Node1&#45;&gt;Node6 -->
<g id="edge10_Node000001_Node000006" class="edge">
<title>Node1&#45;&gt;Node6</title>
<g id="a_edge10_Node000001_Node000006"><a xlink:title=" ">
<path fill="none" stroke="#63b8ff" d="M315.3,-113.07C320.46,-103.15 326.35,-90 329,-77.5 332.3,-61.95 327.71,-44.48 322.61,-31.4"/>
<polygon fill="#63b8ff" stroke="#63b8ff" points="325.98,-30.36 318.79,-22.58 319.56,-33.15 325.98,-30.36"/>
</a>
</g>
</g>
<!-- Node7 -->
<g id="Node000007" class="node">
<title>Node7</title>
<g id="a_Node000007"><a xlink:title=" ">
<polygon fill="#e0e0e0" stroke="#999999" points="428.38,-77.5 375.62,-77.5 375.62,-56.75 428.38,-56.75 428.38,-77.5"/>
<text xml:space="preserve" text-anchor="middle" x="402" y="-64" font-family="Helvetica,sans-Serif" font-size="10.00">stdint.h</text>
</a>
</g>
</g>
<!-- Node1&#45;&gt;Node7 -->
<g id="edge7_Node000001_Node000007" class="edge">
<title>Node1&#45;&gt;Node7</title>
<g id="a_edge7_Node000001_Node000007"><a xlink:title=" ">
<path fill="none" stroke="#63b8ff" d="M331.47,-113.03C345.6,-104.04 363.09,-92.9 377.12,-83.97"/>
<polygon fill="#63b8ff" stroke="#63b8ff" points="378.79,-87.05 385.35,-78.73 375.03,-81.15 378.79,-87.05"/>
</a>
</g>
</g>
<!-- Node8 -->
<g id="Node000008" class="node">
<title>Node8</title>
<g id="a_Node000008"><a xlink:title=" ">
<polygon fill="#e0e0e0" stroke="#999999" points="546,-77.5 446,-77.5 446,-56.75 546,-56.75 546,-77.5"/>
<text xml:space="preserve" text-anchor="middle" x="496" y="-64" font-family="Helvetica,sans-Serif" font-size="10.00">fsl_i2c_freertos.h</text>
</a>
</g>
</g>
<!-- Node1&#45;&gt;Node8 -->
<g id="edge9_Node000001_Node000008" class="edge">
<title>Node1&#45;&gt;Node8</title>
<g id="a_edge9_Node000001_Node000008"><a xlink:title=" ">
<path fill="none" stroke="#63b8ff" d="M356.42,-113.03C387.09,-103.16 425.77,-90.72 454.64,-81.43"/>
<polygon fill="#63b8ff" stroke="#63b8ff" points="455.68,-84.77 464.13,-78.38 453.54,-78.11 455.68,-84.77"/>
</a>
</g>
</g>
<!-- Node2&#45;&gt;Node3 -->
<g id="edge2_Node000002_Node000003" class="edge">
<title>Node2&#45;&gt;Node3</title>
<g id="a_edge2_Node000002_Node000003"><a xlink:title=" ">
<path fill="none" stroke="#63b8ff" d="M95.77,-56.34C111.75,-48.01 134.95,-35.91 153.26,-26.36"/>
<polygon fill="#63b8ff" stroke="#63b8ff" points="154.8,-29.51 162.05,-21.78 151.56,-23.3 154.8,-29.51"/>
</a>
</g>
</g>
<!-- Node4 -->
<g id="Node000004" class="node">
<title>Node4</title>
<g id="a_Node000004"><a xlink:title=" ">
<polygon fill="#e0e0e0" stroke="#999999" points="116.88,-20.75 37.12,-20.75 37.12,0 116.88,0 116.88,-20.75"/>
<text xml:space="preserve" text-anchor="middle" x="77" y="-7.25" font-family="Helvetica,sans-Serif" font-size="10.00">peripherals.h</text>
</a>
</g>
</g>
<!-- Node2&#45;&gt;Node4 -->
<g id="edge3_Node000002_Node000004" class="edge">
<title>Node2&#45;&gt;Node4</title>
<g id="a_edge3_Node000002_Node000004"><a xlink:title=" ">
<path fill="none" stroke="#63b8ff" d="M77,-56.34C77,-49.72 77,-40.72 77,-32.52"/>
<polygon fill="#63b8ff" stroke="#63b8ff" points="80.5,-32.59 77,-22.59 73.5,-32.59 80.5,-32.59"/>
</a>
</g>
</g>
<!-- Node5&#45;&gt;Node3 -->
<g id="edge6_Node000005_Node000003" class="edge">
<title>Node5&#45;&gt;Node3</title>
<g id="a_edge6_Node000005_Node000003"><a xlink:title=" ">
<path fill="none" stroke="#63b8ff" d="M250.16,-56.34C237.89,-48.24 220.21,-36.58 205.94,-27.17"/>
<polygon fill="#63b8ff" stroke="#63b8ff" points="208.25,-24.5 197.97,-21.91 204.39,-30.34 208.25,-24.5"/>
</a>
</g>
</g>
<!-- Node5&#45;&gt;Node6 -->
<g id="edge5_Node000005_Node000006" class="edge">
<title>Node5&#45;&gt;Node6</title>
<g id="a_edge5_Node000005_Node000006"><a xlink:title=" ">
<path fill="none" stroke="#63b8ff" d="M273.58,-56.34C280.07,-48.94 289.15,-38.57 296.97,-29.66"/>
<polygon fill="#63b8ff" stroke="#63b8ff" points="299.53,-32.04 303.5,-22.22 294.27,-27.43 299.53,-32.04"/>
</a>
</g>
</g>
</g>
</svg>
