<?xml version="1.0" encoding="UTF-8" standalone="no"?>
<!DOCTYPE svg PUBLIC "-//W3C//DTD SVG 1.1//EN"
 "http://www.w3.org/Graphics/SVG/1.1/DTD/svg11.dtd">
<!-- Generated by graphviz version 14.1.4 (0)
 -->
<!-- Title: source/pca9555a.h Pages: 1 -->
<svg width="705pt" height="256pt"
 viewBox="0.00 0.00 705.00 256.00" xmlns="http://www.w3.org/2000/svg" xmlns:xlink="http://www.w3.org/1999/xlink">
<g id="graph0" class="graph" transform="scale(1 1) rotate(0) translate(4 251.75)">
<title>source/pca9555a.h</title>
<!-- Node1 -->
<g id="Node000001" class="node">
<title>Node1</title>
<g id="a_Node000001"><a xlink:title=" ">
<polygon fill="#999999" stroke="#666666" points="476.5,-247.75 369,-247.75 369,-227 476.5,-227 476.5,-247.75"/>
<text xml:space="preserve" text-anchor="middle" x="422.75" y="-234.25" font-family="Helvetica,sans-Serif" font-size="10.00">source/pca9555a.h</text>
</a>
</g>
</g>
<!-- Node2 -->
<g id="Node000002" class="node">
<title>Node2</title>
<g id="a_Node000002"><a xlink:href="application_8c.html" target="_top" xlink:title=" ">
<polygon fill="white" stroke="#666666" points="113.5,-77.5 0,-77.5 0,-56.75 113.5,-56.75 113.5,-77.5"/>
<text xml:space="preserve" text-anchor="middle" x="56.75" y="-64" font-family="Helvetica,sans-Serif" font-size="10.00">source/application.c</text>
</a>
</g>
</g>
<!-- Node1&#45;&gt;Node2 -->
<g id="edge1_Node000001_Node000002" class="edge">
<title>Node1&#45;&gt;Node2</title>
<g id="a_edge1_Node000001_Node000002"><a xlink:title=" ">
<path fill="none" stroke="#63b8ff" d="M384.38,-222.77C360.45,-214.09 329.11,-202.38 301.75,-191 245.78,-167.73 231.93,-161.41 177.75,-134.25 140.08,-115.37 97.02,-91.19 73.78,-77.93"/>
<polygon fill="#63b8ff" stroke="#63b8ff" points="383.12,-226.04 393.72,-226.14 385.5,-219.45 383.12,-226.04"/>
</a>
</g>
</g>
<!-- Node3 -->
<g id="Node000003" class="node">
<title>Node3</title>
<g id="a_Node000003"><a xlink:href="motor_8h.html" target="_top" xlink:title=" ">
<polygon fill="white" stroke="#666666" points="333.12,-134.25 244.38,-134.25 244.38,-113.5 333.12,-113.5 333.12,-134.25"/>
<text xml:space="preserve" text-anchor="middle" x="288.75" y="-120.75" font-family="Helvetica,sans-Serif" font-size="10.00">source/motor.h</text>
</a>
</g>
</g>
<!-- Node1&#45;&gt;Node3 -->
<g id="edge2_Node000001_Node000003" class="edge">
<title>Node1&#45;&gt;Node3</title>
<g id="a_edge2_Node000001_Node000003"><a xlink:title=" ">
<path fill="none" stroke="#63b8ff" d="M373.23,-222.75C354.68,-215.69 334.53,-205.44 319.75,-191 303.42,-175.05 294.73,-148.84 291.01,-134.68"/>
<polygon fill="#63b8ff" stroke="#63b8ff" points="371.9,-225.99 382.49,-226.04 374.24,-219.4 371.9,-225.99"/>
</a>
</g>
</g>
<!-- Node7 -->
<g id="Node000007" class="node">
<title>Node7</title>
<g id="a_Node000007"><a xlink:href="motor__test_8c.html" target="_top" xlink:title=" ">
<polygon fill="white" stroke="#666666" points="345.12,-20.75 232.38,-20.75 232.38,0 345.12,0 345.12,-20.75"/>
<text xml:space="preserve" text-anchor="middle" x="288.75" y="-7.25" font-family="Helvetica,sans-Serif" font-size="10.00">source/motor_test.c</text>
</a>
</g>
</g>
<!-- Node1&#45;&gt;Node7 -->
<g id="edge9_Node000001_Node000007" class="edge">
<title>Node1&#45;&gt;Node7</title>
<g id="a_edge9_Node000001_Node000007"><a xlink:title=" ">
<path fill="none" stroke="#63b8ff" d="M448.02,-220.27C495.87,-187.85 590.86,-112.99 543.75,-56.75 518.95,-27.15 412.65,-16.84 345.37,-13.27"/>
<polygon fill="#63b8ff" stroke="#63b8ff" points="446.25,-217.24 439.85,-225.69 450.12,-223.08 446.25,-217.24"/>
</a>
</g>
</g>
<!-- Node8 -->
<g id="Node000008" class="node">
<title>Node8</title>
<g id="a_Node000008"><a xlink:href="pca9555a_8c.html" target="_top" xlink:title=" ">
<polygon fill="white" stroke="#666666" points="697.12,-191 590.38,-191 590.38,-170.25 697.12,-170.25 697.12,-191"/>
<text xml:space="preserve" text-anchor="middle" x="643.75" y="-177.5" font-family="Helvetica,sans-Serif" font-size="10.00">source/pca9555a.c</text>
</a>
</g>
</g>
<!-- Node1&#45;&gt;Node8 -->
<g id="edge10_Node000001_Node000008" class="edge">
<title>Node1&#45;&gt;Node8</title>
<g id="a_edge10_Node000001_Node000008"><a xlink:title=" ">
<path fill="none" stroke="#63b8ff" d="M473.53,-223.79C513.15,-213.98 567.42,-200.54 603.93,-191.49"/>
<polygon fill="#63b8ff" stroke="#63b8ff" points="472.85,-220.36 463.98,-226.16 474.53,-227.15 472.85,-220.36"/>
</a>
</g>
</g>
<!-- Node9 -->
<g id="Node000009" class="node">
<title>Node9</title>
<g id="a_Node000009"><a xlink:href="step_8c.html" target="_top" xlink:title=" ">
<polygon fill="white" stroke="#666666" points="507,-134.25 426.5,-134.25 426.5,-113.5 507,-113.5 507,-134.25"/>
<text xml:space="preserve" text-anchor="middle" x="466.75" y="-120.75" font-family="Helvetica,sans-Serif" font-size="10.00">source/step.c</text>
</a>
</g>
</g>
<!-- Node1&#45;&gt;Node9 -->
<g id="edge11_Node000001_Node000009" class="edge">
<title>Node1&#45;&gt;Node9</title>
<g id="a_edge11_Node000001_Node000009"><a xlink:title=" ">
<path fill="none" stroke="#63b8ff" d="M430.61,-216.46C440.1,-192.41 455.68,-152.92 462.88,-134.68"/>
<polygon fill="#63b8ff" stroke="#63b8ff" points="427.47,-214.87 427.06,-225.46 433.98,-217.44 427.47,-214.87"/>
</a>
</g>
</g>
<!-- Node10 -->
<g id="Node000010" class="node">
<title>Node10</title>
<g id="a_Node000010"><a xlink:href="step_8h.html" target="_top" xlink:title=" ">
<polygon fill="white" stroke="#666666" points="410.38,-191 329.12,-191 329.12,-170.25 410.38,-170.25 410.38,-191"/>
<text xml:space="preserve" text-anchor="middle" x="369.75" y="-177.5" font-family="Helvetica,sans-Serif" font-size="10.00">source/step.h</text>
</a>
</g>
</g>
<!-- Node1&#45;&gt;Node10 -->
<g id="edge12_Node000001_Node000010" class="edge">
<title>Node1&#45;&gt;Node10</title>
<g id="a_edge12_Node000001_Node000010"><a xlink:title=" ">
<path fill="none" stroke="#63b8ff" d="M405.5,-218.55C396.73,-209.5 386.43,-198.86 379.14,-191.33"/>
<polygon fill="#63b8ff" stroke="#63b8ff" points="402.75,-220.75 412.22,-225.5 407.78,-215.88 402.75,-220.75"/>
</a>
</g>
</g>
<!-- Node3&#45;&gt;Node2 -->
<g id="edge3_Node000003_Node000002" class="edge">
<title>Node3&#45;&gt;Node2</title>
<g id="a_edge3_Node000003_Node000002"><a xlink:title=" ">
<path fill="none" stroke="#63b8ff" d="M235.97,-110.42C194.34,-100.59 137.05,-87.07 98.55,-77.99"/>
<polygon fill="#63b8ff" stroke="#63b8ff" points="235,-113.79 245.53,-112.68 236.6,-106.97 235,-113.79"/>
</a>
</g>
</g>
<!-- Node4 -->
<g id="Node000004" class="node">
<title>Node4</title>
<g id="a_Node000004"><a xlink:href="motor_8c.html" target="_top" xlink:title=" ">
<polygon fill="white" stroke="#666666" points="404.75,-77.5 316.75,-77.5 316.75,-56.75 404.75,-56.75 404.75,-77.5"/>
<text xml:space="preserve" text-anchor="middle" x="360.75" y="-64" font-family="Helvetica,sans-Serif" font-size="10.00">source/motor.c</text>
</a>
</g>
</g>
<!-- Node3&#45;&gt;Node4 -->
<g id="edge4_Node000003_Node000004" class="edge">
<title>Node3&#45;&gt;Node4</title>
<g id="a_edge4_Node000003_Node000004"><a xlink:title=" ">
<path fill="none" stroke="#63b8ff" d="M310.73,-106.16C322.93,-96.88 337.68,-85.67 347.99,-77.83"/>
<polygon fill="#63b8ff" stroke="#63b8ff" points="308.67,-103.33 302.83,-112.17 312.91,-108.9 308.67,-103.33"/>
</a>
</g>
</g>
<!-- Node5 -->
<g id="Node000005" class="node">
<title>Node5</title>
<g id="a_Node000005"><a xlink:href="motorCmd_8c.html" target="_top" xlink:title=" ">
<polygon fill="white" stroke="#666666" points="534.38,-77.5 423.12,-77.5 423.12,-56.75 534.38,-56.75 534.38,-77.5"/>
<text xml:space="preserve" text-anchor="middle" x="478.75" y="-64" font-family="Helvetica,sans-Serif" font-size="10.00">source/motorCmd.c</text>
</a>
</g>
</g>
<!-- Node3&#45;&gt;Node5 -->
<g id="edge5_Node000003_Node000005" class="edge">
<title>Node3&#45;&gt;Node5</title>
<g id="a_edge5_Node000003_Node000005"><a xlink:title=" ">
<path fill="none" stroke="#63b8ff" d="M333.76,-109.91C367.78,-100.1 413.77,-86.85 444.76,-77.92"/>
<polygon fill="#63b8ff" stroke="#63b8ff" points="332.81,-106.54 324.17,-112.67 334.75,-113.26 332.81,-106.54"/>
</a>
</g>
</g>
<!-- Node6 -->
<g id="Node000006" class="node">
<title>Node6</title>
<g id="a_Node000006"><a xlink:href="motor__configs_8h.html" target="_top" xlink:title=" ">
<polygon fill="white" stroke="#666666" points="260.38,-77.5 131.12,-77.5 131.12,-56.75 260.38,-56.75 260.38,-77.5"/>
<text xml:space="preserve" text-anchor="middle" x="195.75" y="-64" font-family="Helvetica,sans-Serif" font-size="10.00">source/motor_configs.h</text>
</a>
</g>
</g>
<!-- Node3&#45;&gt;Node6 -->
<g id="edge6_Node000003_Node000006" class="edge">
<title>Node3&#45;&gt;Node6</title>
<g id="a_edge6_Node000003_Node000006"><a xlink:title=" ">
<path fill="none" stroke="#63b8ff" d="M262.22,-107.26C246.12,-97.78 226.08,-85.98 212.23,-77.83"/>
<polygon fill="#63b8ff" stroke="#63b8ff" points="260.43,-110.26 270.82,-112.32 263.98,-104.23 260.43,-110.26"/>
</a>
</g>
</g>
<!-- Node3&#45;&gt;Node7 -->
<g id="edge8_Node000003_Node000007" class="edge">
<title>Node3&#45;&gt;Node7</title>
<g id="a_edge8_Node000003_Node000007"><a xlink:title=" ">
<path fill="none" stroke="#63b8ff" d="M288.75,-101.97C288.75,-77.84 288.75,-39.17 288.75,-21.18"/>
<polygon fill="#63b8ff" stroke="#63b8ff" points="285.25,-101.85 288.75,-111.86 292.25,-101.86 285.25,-101.85"/>
</a>
</g>
</g>
<!-- Node6&#45;&gt;Node7 -->
<g id="edge7_Node000006_Node000007" class="edge">
<title>Node6&#45;&gt;Node7</title>
<g id="a_edge7_Node000006_Node000007"><a xlink:title=" ">
<path fill="none" stroke="#63b8ff" d="M222.28,-50.51C238.38,-41.03 258.42,-29.23 272.27,-21.08"/>
<polygon fill="#63b8ff" stroke="#63b8ff" points="220.52,-47.48 213.68,-55.57 224.07,-53.51 220.52,-47.48"/>
</a>
</g>
</g>
<!-- Node10&#45;&gt;Node2 -->
<g id="edge13_Node000010_Node000002" class="edge">
<title>Node10&#45;&gt;Node2</title>
<g id="a_edge13_Node000010_Node000002"><a xlink:title=" ">
<path fill="none" stroke="#63b8ff" d="M329.04,-166.16C302.43,-157.28 266.95,-145.29 235.75,-134.25 181.1,-114.91 117.52,-91.11 82.76,-77.99"/>
<polygon fill="#63b8ff" stroke="#63b8ff" points="327.84,-169.45 338.43,-169.29 330.05,-162.81 327.84,-169.45"/>
</a>
</g>
</g>
<!-- Node10&#45;&gt;Node3 -->
<g id="edge15_Node000010_Node000003" class="edge">
<title>Node10&#45;&gt;Node3</title>
<g id="a_edge15_Node000010_Node000003"><a xlink:title=" ">
<path fill="none" stroke="#63b8ff" d="M345.84,-163.46C331.96,-154.08 314.93,-142.57 303.11,-134.58"/>
<polygon fill="#63b8ff" stroke="#63b8ff" points="343.77,-166.29 354.01,-168.99 347.69,-160.49 343.77,-166.29"/>
</a>
</g>
</g>
<!-- Node10&#45;&gt;Node4 -->
<g id="edge14_Node000010_Node000004" class="edge">
<title>Node10&#45;&gt;Node4</title>
<g id="a_edge14_Node000010_Node000004"><a xlink:title=" ">
<path fill="none" stroke="#63b8ff" d="M368.06,-158.72C366.11,-134.59 362.99,-95.92 361.54,-77.93"/>
<polygon fill="#63b8ff" stroke="#63b8ff" points="364.57,-158.92 368.86,-168.61 371.54,-158.36 364.57,-158.92"/>
</a>
</g>
</g>
<!-- Node10&#45;&gt;Node5 -->
<g id="edge16_Node000010_Node000005" class="edge">
<title>Node10&#45;&gt;Node5</title>
<g id="a_edge16_Node000010_Node000005"><a xlink:title=" ">
<path fill="none" stroke="#63b8ff" d="M381.43,-160.44C390.4,-146.56 403.61,-127.81 417.75,-113.5 431.57,-99.51 449.97,-86.44 462.93,-77.95"/>
<polygon fill="#63b8ff" stroke="#63b8ff" points="378.62,-158.34 376.26,-168.67 384.55,-162.06 378.62,-158.34"/>
</a>
</g>
</g>
<!-- Node10&#45;&gt;Node9 -->
<g id="edge17_Node000010_Node000009" class="edge">
<title>Node10&#45;&gt;Node9</title>
<g id="a_edge17_Node000010_Node000009"><a xlink:title=" ">
<path fill="none" stroke="#63b8ff" d="M396.94,-164.28C413.82,-154.75 434.98,-142.81 449.56,-134.58"/>
<polygon fill="#63b8ff" stroke="#63b8ff" points="395.4,-161.13 388.41,-169.09 398.84,-167.23 395.4,-161.13"/>
</a>
</g>
</g>
</g>
</svg>
