<?xml version="1.0" encoding="UTF-8" standalone="no"?>
<!DOCTYPE svg PUBLIC "-//W3C//DTD SVG 1.1//EN"
 "http://www.w3.org/Graphics/SVG/1.1/DTD/svg11.dtd">
<!-- Generated by graphviz version 14.1.4 (0)
 -->
<!-- Title: source/driver/pca9555a/pca9555a.h Pages: 1 -->
<!--zoomable 459 -->

<svg id="main" version="1.1" xmlns="http://www.w3.org/2000/svg" xmlns:xlink="http://www.w3.org/1999/xlink" xml:space="preserve" onload="init(evt)">

<style type="text/css"><![CDATA[
.node, .edge {opacity: 0.7;}
.node.selected, .edge.selected {opacity: 1;}
.edge:hover path { stroke: red; }
.edge:hover polygon { stroke: red; fill: red; }
]]></style>

<defs>
  <circle id="rim" cx="0" cy="0" r="7"/>
  <circle id="rim2" cx="0" cy="0" r="3.5"/>
  <g id="zoomPlus">
    <use xlink:href="#rim" fill="#404040"><set attributeName="fill" to="#808080" begin="zoomplus.mouseover" end="zoomplus.mouseout"/></use>
    <path d="M-4,0h8M0,-4v8" fill="none" stroke="white" stroke-width="1.5" pointer-events="none"/>
  </g>
  <g id="zoomMin">
    <use xlink:href="#rim" fill="#404040"><set attributeName="fill" to="#808080" begin="zoomminus.mouseover" end="zoomminus.mouseout"/></use>
    <path d="M-4,0h8" fill="none" stroke="white" stroke-width="1.5" pointer-events="none"/>
  </g>
  <g id="arrowUp" transform="translate(30 24)">
    <use xlink:href="#rim"/>
    <path pointer-events="none" fill="none" stroke="white" stroke-width="1.5" d="M0,-3.0v7 M-2.5,-0.5L0,-3.0L2.5,-0.5"/>
  </g>
  <g id="arrowRight" transform="rotate(90) translate(36 -43)">
    <use xlink:href="#rim"/>
    <path pointer-events="none" fill="none" stroke="white" stroke-width="1.5" d="M0,-3.0v7 M-2.5,-0.5L0,-3.0L2.5,-0.5"/>
  </g>
  <g id="arrowDown" transform="rotate(180) translate(-30 -48)">
    <use xlink:href="#rim"/>
    <path pointer-events="none" fill="none" stroke="white" stroke-width="1.5" d="M0,-3.0v7 M-2.5,-0.5L0,-3.0L2.5,-0.5"/>
  </g>
  <g id="arrowLeft" transform="rotate(270) translate(-36 17)">
    <use xlink:href="#rim"/>
    <path pointer-events="none" fill="none" stroke="white" stroke-width="1.5" d="M0,-3.0v7 M-2.5,-0.5L0,-3.0L2.5,-0.5"/>
  </g>
  <g id="resetDef">
    <use xlink:href="#rim2" fill="#404040"><set attributeName="fill" to="#808080" begin="reset.mouseover" end="reset.mouseout"/></use>
  </g>
</defs>
<script type="application/ecmascript">
var viewWidth = 1813;
var viewHeight = 459;
var sectionId = 'dynsection-1';
</script>
<script type="application/ecmascript" xlink:href="svg.min.js"/>
<svg id="graph" class="graph">
<g id="viewport">
<title>source/driver/pca9555a/pca9555a.h</title>
<!-- Node1 -->
<g id="Node000001" class="node">
<title>Node1</title>
<g id="a_Node000001"><a xlink:title=" ">
<polygon fill="#999999" stroke="#666666" points="670,-450.5 540,-450.5 540,-417 670,-417 670,-450.5"/>
<text xml:space="preserve" text-anchor="start" x="548" y="-437" font-family="Helvetica,sans-Serif" font-size="10.00">source/driver/pca9555a</text>
<text xml:space="preserve" text-anchor="middle" x="605" y="-424.25" font-family="Helvetica,sans-Serif" font-size="10.00">/pca9555a.h</text>
</a>
</g>
</g>
<!-- Node2 -->
<g id="Node000002" class="node">
<title>Node2</title>
<g id="a_Node000002"><a xlink:href="application_8c.html" target="_top" xlink:title=" ">
<polygon fill="white" stroke="#666666" points="416.75,-166.12 303.25,-166.12 303.25,-145.38 416.75,-145.38 416.75,-166.12"/>
<text xml:space="preserve" text-anchor="middle" x="360" y="-152.62" font-family="Helvetica,sans-Serif" font-size="10.00">source/application.c</text>
</a>
</g>
</g>
<!-- Node1&#45;&gt;Node2 -->
<g id="edge1_Node000001_Node000002" class="edge">
<title>Node1&#45;&gt;Node2</title>
<g id="a_edge1_Node000001_Node000002"><a xlink:title=" ">
<path fill="none" stroke="#63b8ff" d="M583.15,-408.14C531.45,-349.89 403.33,-205.56 368.73,-166.59"/>
<polygon fill="#63b8ff" stroke="#63b8ff" points="580.51,-410.43 589.76,-415.59 585.74,-405.78 580.51,-410.43"/>
</a>
</g>
</g>
<!-- Node3 -->
<g id="Node000003" class="node">
<title>Node3</title>
<g id="a_Node000003"><a xlink:href="pca9555a_8c.html" target="_top" xlink:title=" ">
<polygon fill="white" stroke="#666666" points="473,-381 343,-381 343,-347.5 473,-347.5 473,-381"/>
<text xml:space="preserve" text-anchor="start" x="351" y="-367.5" font-family="Helvetica,sans-Serif" font-size="10.00">source/driver/pca9555a</text>
<text xml:space="preserve" text-anchor="middle" x="408" y="-354.75" font-family="Helvetica,sans-Serif" font-size="10.00">/pca9555a.c</text>
</a>
</g>
</g>
<!-- Node1&#45;&gt;Node3 -->
<g id="edge2_Node000001_Node000003" class="edge">
<title>Node1&#45;&gt;Node3</title>
<g id="a_edge2_Node000001_Node000003"><a xlink:title=" ">
<path fill="none" stroke="#63b8ff" d="M547.3,-412.98C517.99,-402.94 482.81,-390.88 455.14,-381.4"/>
<polygon fill="#63b8ff" stroke="#63b8ff" points="545.79,-416.16 556.38,-416.09 548.06,-409.54 545.79,-416.16"/>
</a>
</g>
</g>
<!-- Node4 -->
<g id="Node000004" class="node">
<title>Node4</title>
<g id="a_Node000004"><a xlink:href="step__core_8h.html" target="_top" xlink:title=" ">
<polygon fill="white" stroke="#666666" points="768.75,-311.5 643.25,-311.5 643.25,-278 768.75,-278 768.75,-311.5"/>
<text xml:space="preserve" text-anchor="start" x="651.25" y="-298" font-family="Helvetica,sans-Serif" font-size="10.00">source/motion/stepper</text>
<text xml:space="preserve" text-anchor="middle" x="706" y="-285.25" font-family="Helvetica,sans-Serif" font-size="10.00">/step_core.h</text>
</a>
</g>
</g>
<!-- Node1&#45;&gt;Node4 -->
<g id="edge3_Node000001_Node000004" class="edge">
<title>Node1&#45;&gt;Node4</title>
<g id="a_edge3_Node000001_Node000004"><a xlink:title=" ">
<path fill="none" stroke="#63b8ff" d="M623.54,-407.61C644.18,-379.6 676.93,-335.19 694.29,-311.63"/>
<polygon fill="#63b8ff" stroke="#63b8ff" points="620.8,-405.42 617.68,-415.55 626.43,-409.58 620.8,-405.42"/>
</a>
</g>
</g>
<!-- Node9 -->
<g id="Node000009" class="node">
<title>Node9</title>
<g id="a_Node000009"><a xlink:href="motor_8h.html" target="_top" xlink:title=" ">
<polygon fill="white" stroke="#666666" points="750.38,-235.62 661.62,-235.62 661.62,-214.88 750.38,-214.88 750.38,-235.62"/>
<text xml:space="preserve" text-anchor="middle" x="706" y="-222.12" font-family="Helvetica,sans-Serif" font-size="10.00">source/motor.h</text>
</a>
</g>
</g>
<!-- Node1&#45;&gt;Node9 -->
<g id="edge60_Node000001_Node000009" class="edge">
<title>Node1&#45;&gt;Node9</title>
<g id="a_edge60_Node000001_Node000009"><a xlink:title=" ">
<path fill="none" stroke="#63b8ff" d="M528.53,-428.75C457.22,-423.24 358.31,-410.39 334,-381 324.51,-369.53 325.25,-359.55 334,-347.5 410.31,-242.36 580.22,-226.64 661.29,-225.42"/>
<polygon fill="#63b8ff" stroke="#63b8ff" points="527.98,-432.22 538.21,-429.47 528.49,-425.24 527.98,-432.22"/>
</a>
</g>
</g>
<!-- Node25 -->
<g id="Node000025" class="node">
<title>Node25</title>
<g id="a_Node000025"><a xlink:href="motor__test_8c.html" target="_top" xlink:title=" ">
<polygon fill="white" stroke="#666666" points="1227.38,-96.62 1114.62,-96.62 1114.62,-75.88 1227.38,-75.88 1227.38,-96.62"/>
<text xml:space="preserve" text-anchor="middle" x="1171" y="-83.12" font-family="Helvetica,sans-Serif" font-size="10.00">source/motor_test.c</text>
</a>
</g>
</g>
<!-- Node1&#45;&gt;Node25 -->
<g id="edge61_Node000001_Node000025" class="edge">
<title>Node1&#45;&gt;Node25</title>
<g id="a_edge61_Node000001_Node000025"><a xlink:title=" ">
<path fill="none" stroke="#63b8ff" d="M681.81,-428.27C825.37,-417.77 1120,-385.32 1120,-295.75 1120,-295.75 1120,-295.75 1120,-224.25 1120,-173.75 1150.82,-118.98 1164.54,-97.09"/>
<polygon fill="#63b8ff" stroke="#63b8ff" points="681.72,-424.76 672,-428.96 682.22,-431.75 681.72,-424.76"/>
</a>
</g>
</g>
<!-- Node26 -->
<g id="Node000026" class="node">
<title>Node26</title>
<g id="a_Node000026"><a xlink:href="step__shared_8h.html" target="_top" xlink:title=" ">
<polygon fill="white" stroke="#666666" points="1296.75,-381 1171.25,-381 1171.25,-347.5 1296.75,-347.5 1296.75,-381"/>
<text xml:space="preserve" text-anchor="start" x="1179.25" y="-367.5" font-family="Helvetica,sans-Serif" font-size="10.00">source/motion/stepper</text>
<text xml:space="preserve" text-anchor="middle" x="1234" y="-354.75" font-family="Helvetica,sans-Serif" font-size="10.00">/step_shared.h</text>
</a>
</g>
</g>
<!-- Node1&#45;&gt;Node26 -->
<g id="edge42_Node000001_Node000026" class="edge">
<title>Node1&#45;&gt;Node26</title>
<g id="a_edge42_Node000001_Node000026"><a xlink:title=" ">
<path fill="none" stroke="#63b8ff" d="M681.51,-426.68C784.52,-418.19 973.42,-401.48 1134,-381 1145.94,-379.48 1158.65,-377.64 1170.87,-375.77"/>
<polygon fill="#63b8ff" stroke="#63b8ff" points="681.48,-423.17 671.8,-427.48 682.05,-430.15 681.48,-423.17"/>
</a>
</g>
</g>
<!-- Node4&#45;&gt;Node2 -->
<g id="edge4_Node000004_Node000002" class="edge">
<title>Node4&#45;&gt;Node2</title>
<g id="a_edge4_Node000004_Node000002"><a xlink:title=" ">
<path fill="none" stroke="#63b8ff" d="M654.6,-273.4C578.95,-243.44 440.54,-188.64 384.51,-166.46"/>
<polygon fill="#63b8ff" stroke="#63b8ff" points="653.3,-276.65 663.88,-277.07 655.88,-270.14 653.3,-276.65"/>
</a>
</g>
</g>
<!-- Node5 -->
<g id="Node000005" class="node">
<title>Node5</title>
<g id="a_Node000005"><a xlink:href="motor__init_8c.html" target="_top" xlink:title=" ">
<polygon fill="white" stroke="#666666" points="1205,-33.5 1087,-33.5 1087,0 1205,0 1205,-33.5"/>
<text xml:space="preserve" text-anchor="start" x="1095" y="-20" font-family="Helvetica,sans-Serif" font-size="10.00">source/motion/motor</text>
<text xml:space="preserve" text-anchor="middle" x="1146" y="-7.25" font-family="Helvetica,sans-Serif" font-size="10.00">/motor_init.c</text>
</a>
</g>
</g>
<!-- Node4&#45;&gt;Node5 -->
<g id="edge5_Node000004_Node000005" class="edge">
<title>Node4&#45;&gt;Node5</title>
<g id="a_edge5_Node000004_Node000005"><a xlink:title=" ">
<path fill="none" stroke="#63b8ff" d="M772.78,-274.43C909.02,-234.36 1208.56,-142.63 1236,-103 1244.48,-90.76 1243.46,-82.39 1236,-69.5 1226.7,-53.43 1210.32,-41.91 1194.05,-33.89"/>
<polygon fill="#63b8ff" stroke="#63b8ff" points="772.14,-270.97 763.53,-277.15 774.11,-277.69 772.14,-270.97"/>
</a>
</g>
</g>
<!-- Node6 -->
<g id="Node000006" class="node">
<title>Node6</title>
<g id="a_Node000006"><a xlink:href="motor__motion_8c.html" target="_top" xlink:title=" ">
<polygon fill="white" stroke="#666666" points="254,-33.5 136,-33.5 136,0 254,0 254,-33.5"/>
<text xml:space="preserve" text-anchor="start" x="144" y="-20" font-family="Helvetica,sans-Serif" font-size="10.00">source/motion/motor</text>
<text xml:space="preserve" text-anchor="middle" x="195" y="-7.25" font-family="Helvetica,sans-Serif" font-size="10.00">/motor_motion.c</text>
</a>
</g>
</g>
<!-- Node4&#45;&gt;Node6 -->
<g id="edge6_Node000004_Node000006" class="edge">
<title>Node4&#45;&gt;Node6</title>
<g id="a_edge6_Node000004_Node000006"><a xlink:title=" ">
<path fill="none" stroke="#63b8ff" d="M631.89,-280.33C491.72,-253.21 196.93,-187.19 143,-103 127.76,-79.2 153.01,-51.15 173.36,-33.91"/>
<polygon fill="#63b8ff" stroke="#63b8ff" points="630.97,-283.72 641.45,-282.17 632.29,-276.84 630.97,-283.72"/>
</a>
</g>
</g>
<!-- Node7 -->
<g id="Node000007" class="node">
<title>Node7</title>
<g id="a_Node000007"><a xlink:href="motor__sync_8c.html" target="_top" xlink:title=" ">
<polygon fill="white" stroke="#666666" points="118,-33.5 0,-33.5 0,0 118,0 118,-33.5"/>
<text xml:space="preserve" text-anchor="start" x="8" y="-20" font-family="Helvetica,sans-Serif" font-size="10.00">source/motion/motor</text>
<text xml:space="preserve" text-anchor="middle" x="59" y="-7.25" font-family="Helvetica,sans-Serif" font-size="10.00">/motor_sync.c</text>
</a>
</g>
</g>
<!-- Node4&#45;&gt;Node7 -->
<g id="edge7_Node000004_Node000007" class="edge">
<title>Node4&#45;&gt;Node7</title>
<g id="a_edge7_Node000004_Node000007"><a xlink:title=" ">
<path fill="none" stroke="#63b8ff" d="M631.67,-289.05C557.25,-282.98 440.01,-269.71 342,-242 267.39,-220.91 243.51,-219.7 182,-172.5 129.45,-132.18 86.23,-64.7 68.13,-33.93"/>
<polygon fill="#63b8ff" stroke="#63b8ff" points="631.03,-292.51 641.28,-289.81 631.59,-285.53 631.03,-292.51"/>
</a>
</g>
</g>
<!-- Node8 -->
<g id="Node000008" class="node">
<title>Node8</title>
<g id="a_Node000008"><a xlink:href="step__core_8c.html" target="_top" xlink:title=" ">
<polygon fill="white" stroke="#666666" points="1311.75,-172.5 1186.25,-172.5 1186.25,-139 1311.75,-139 1311.75,-172.5"/>
<text xml:space="preserve" text-anchor="start" x="1194.25" y="-159" font-family="Helvetica,sans-Serif" font-size="10.00">source/motion/stepper</text>
<text xml:space="preserve" text-anchor="middle" x="1249" y="-146.25" font-family="Helvetica,sans-Serif" font-size="10.00">/step_core.c</text>
</a>
</g>
</g>
<!-- Node4&#45;&gt;Node8 -->
<g id="edge8_Node000004_Node000008" class="edge">
<title>Node4&#45;&gt;Node8</title>
<g id="a_edge8_Node000004_Node000008"><a xlink:title=" ">
<path fill="none" stroke="#63b8ff" d="M780.5,-292.13C860.38,-288.5 990.03,-277.13 1096,-242 1145.64,-225.54 1197.65,-192.72 1226.43,-172.95"/>
<polygon fill="#63b8ff" stroke="#63b8ff" points="780.44,-288.62 770.59,-292.54 780.73,-295.62 780.44,-288.62"/>
</a>
</g>
</g>
<!-- Node4&#45;&gt;Node9 -->
<g id="edge9_Node000004_Node000009" class="edge">
<title>Node4&#45;&gt;Node9</title>
<g id="a_edge9_Node000004_Node000009"><a xlink:title=" ">
<path fill="none" stroke="#63b8ff" d="M706,-266.28C706,-255.58 706,-244.01 706,-236.07"/>
<polygon fill="#63b8ff" stroke="#63b8ff" points="702.5,-266.24 706,-276.24 709.5,-266.24 702.5,-266.24"/>
</a>
</g>
</g>
<!-- Node23 -->
<g id="Node000023" class="node">
<title>Node23</title>
<g id="a_Node000023"><a xlink:href="motorCmd_8c.html" target="_top" xlink:title=" ">
<polygon fill="white" stroke="#666666" points="1041.62,-166.12 930.38,-166.12 930.38,-145.38 1041.62,-145.38 1041.62,-166.12"/>
<text xml:space="preserve" text-anchor="middle" x="986" y="-152.62" font-family="Helvetica,sans-Serif" font-size="10.00">source/motorCmd.c</text>
</a>
</g>
</g>
<!-- Node4&#45;&gt;Node23 -->
<g id="edge41_Node000004_Node000023" class="edge">
<title>Node4&#45;&gt;Node23</title>
<g id="a_edge41_Node000004_Node000023"><a xlink:title=" ">
<path fill="none" stroke="#63b8ff" d="M749.11,-272.66C810.65,-242.55 921.2,-188.46 966.16,-166.46"/>
<polygon fill="#63b8ff" stroke="#63b8ff" points="747.75,-269.43 740.3,-276.97 750.82,-275.72 747.75,-269.43"/>
</a>
</g>
</g>
<!-- Node9&#45;&gt;Node2 -->
<g id="edge10_Node000009_Node000002" class="edge">
<title>Node9&#45;&gt;Node2</title>
<g id="a_edge10_Node000009_Node000002"><a xlink:title=" ">
<path fill="none" stroke="#63b8ff" d="M650.03,-214.78C593.39,-204.99 503.37,-188.87 426,-172.5 417.47,-170.7 408.36,-168.62 399.71,-166.58"/>
<polygon fill="#63b8ff" stroke="#63b8ff" points="649.3,-218.21 659.75,-216.45 650.49,-211.31 649.3,-218.21"/>
</a>
</g>
</g>
<!-- Node10 -->
<g id="Node000010" class="node">
<title>Node10</title>
<g id="a_Node000010"><a xlink:href="motor__convert_8h.html" target="_top" xlink:title=" ">
<polygon fill="white" stroke="#666666" points="553,-172.5 435,-172.5 435,-139 553,-139 553,-172.5"/>
<text xml:space="preserve" text-anchor="start" x="443" y="-159" font-family="Helvetica,sans-Serif" font-size="10.00">source/motion/motor</text>
<text xml:space="preserve" text-anchor="middle" x="494" y="-146.25" font-family="Helvetica,sans-Serif" font-size="10.00">/motor_convert.h</text>
</a>
</g>
</g>
<!-- Node9&#45;&gt;Node10 -->
<g id="edge11_Node000009_Node000010" class="edge">
<title>Node9&#45;&gt;Node10</title>
<g id="a_edge11_Node000009_Node000010"><a xlink:title=" ">
<path fill="none" stroke="#63b8ff" d="M664.6,-211.07C630.37,-200.17 581.6,-184.64 544.97,-172.98"/>
<polygon fill="#63b8ff" stroke="#63b8ff" points="663.14,-214.28 673.73,-213.98 665.26,-207.61 663.14,-214.28"/>
</a>
</g>
</g>
<!-- Node12 -->
<g id="Node000012" class="node">
<title>Node12</title>
<g id="a_Node000012"><a xlink:href="motor__init_8h.html" target="_top" xlink:title=" ">
<polygon fill="white" stroke="#666666" points="1097,-103 979,-103 979,-69.5 1097,-69.5 1097,-103"/>
<text xml:space="preserve" text-anchor="start" x="987" y="-89.5" font-family="Helvetica,sans-Serif" font-size="10.00">source/motion/motor</text>
<text xml:space="preserve" text-anchor="middle" x="1038" y="-76.75" font-family="Helvetica,sans-Serif" font-size="10.00">/motor_init.h</text>
</a>
</g>
</g>
<!-- Node9&#45;&gt;Node12 -->
<g id="edge15_Node000009_Node000012" class="edge">
<title>Node9&#45;&gt;Node12</title>
<g id="a_edge15_Node000009_Node000012"><a xlink:title=" ">
<path fill="none" stroke="#63b8ff" d="M708.72,-203.32C712.45,-183.56 721.13,-154.69 741,-139 821.85,-75.14 868.86,-122.64 970,-103 972.86,-102.45 975.77,-101.86 978.72,-101.24"/>
<polygon fill="#63b8ff" stroke="#63b8ff" points="705.3,-202.58 707.19,-213.01 712.21,-203.68 705.3,-202.58"/>
</a>
</g>
</g>
<!-- Node14 -->
<g id="Node000014" class="node">
<title>Node14</title>
<g id="a_Node000014"><a xlink:href="motor__internal_8h.html" target="_top" xlink:title=" ">
<polygon fill="white" stroke="#666666" points="689,-172.5 571,-172.5 571,-139 689,-139 689,-172.5"/>
<text xml:space="preserve" text-anchor="start" x="579" y="-159" font-family="Helvetica,sans-Serif" font-size="10.00">source/motion/motor</text>
<text xml:space="preserve" text-anchor="middle" x="630" y="-146.25" font-family="Helvetica,sans-Serif" font-size="10.00">/motor_internal.h</text>
</a>
</g>
</g>
<!-- Node9&#45;&gt;Node14 -->
<g id="edge18_Node000009_Node000014" class="edge">
<title>Node9&#45;&gt;Node14</title>
<g id="a_edge18_Node000009_Node000014"><a xlink:title=" ">
<path fill="none" stroke="#63b8ff" d="M686.8,-207.2C674.96,-196.68 659.86,-183.27 648.21,-172.92"/>
<polygon fill="#63b8ff" stroke="#63b8ff" points="684.18,-209.55 693.98,-213.57 688.83,-204.32 684.18,-209.55"/>
</a>
</g>
</g>
<!-- Node9&#45;&gt;Node23 -->
<g id="edge37_Node000009_Node000023" class="edge">
<title>Node9&#45;&gt;Node23</title>
<g id="a_edge37_Node000009_Node000023"><a xlink:title=" ">
<path fill="none" stroke="#63b8ff" d="M758.37,-211.8C802.13,-201.37 866.16,-186.06 922,-172.5 929.78,-170.61 938.1,-168.58 946.07,-166.62"/>
<polygon fill="#63b8ff" stroke="#63b8ff" points="757.82,-208.33 748.9,-214.05 759.44,-215.14 757.82,-208.33"/>
</a>
</g>
</g>
<!-- Node24 -->
<g id="Node000024" class="node">
<title>Node24</title>
<g id="a_Node000024"><a xlink:href="motor__configs_8h.html" target="_top" xlink:title=" ">
<polygon fill="white" stroke="#666666" points="912.62,-166.12 783.38,-166.12 783.38,-145.38 912.62,-145.38 912.62,-166.12"/>
<text xml:space="preserve" text-anchor="middle" x="848" y="-152.62" font-family="Helvetica,sans-Serif" font-size="10.00">source/motor_configs.h</text>
</a>
</g>
</g>
<!-- Node9&#45;&gt;Node24 -->
<g id="edge38_Node000009_Node000024" class="edge">
<title>Node9&#45;&gt;Node24</title>
<g id="a_edge38_Node000009_Node000024"><a xlink:title=" ">
<path fill="none" stroke="#63b8ff" d="M736.87,-209.58C764.27,-196.55 803.55,-177.88 827.33,-166.58"/>
<polygon fill="#63b8ff" stroke="#63b8ff" points="735.54,-206.33 728.01,-213.79 738.55,-212.65 735.54,-206.33"/>
</a>
</g>
</g>
<!-- Node9&#45;&gt;Node25 -->
<g id="edge40_Node000009_Node000025" class="edge">
<title>Node9&#45;&gt;Node25</title>
<g id="a_edge40_Node000009_Node000025"><a xlink:title=" ">
<path fill="none" stroke="#63b8ff" d="M718.63,-205.15C734.03,-182.51 759.76,-146.83 774,-139 839.03,-103.24 1032.9,-115.76 1106,-103 1115.15,-101.4 1124.93,-99.26 1134.05,-97.08"/>
<polygon fill="#63b8ff" stroke="#63b8ff" points="715.87,-202.99 713.2,-213.24 721.68,-206.89 715.87,-202.99"/>
</a>
</g>
</g>
<!-- Node10&#45;&gt;Node6 -->
<g id="edge13_Node000010_Node000006" class="edge">
<title>Node10&#45;&gt;Node6</title>
<g id="a_edge13_Node000010_Node000006"><a xlink:title=" ">
<path fill="none" stroke="#63b8ff" d="M423.5,-139C348.9,-130.04 192.14,-146.53 154,-103 135.82,-82.25 159.16,-52.02 177.35,-33.69"/>
<polygon fill="#63b8ff" stroke="#63b8ff" points="422.83,-142.44 433.23,-140.45 423.86,-135.52 422.83,-142.44"/>
</a>
</g>
</g>
<!-- Node10&#45;&gt;Node7 -->
<g id="edge14_Node000010_Node000007" class="edge">
<title>Node10&#45;&gt;Node7</title>
<g id="a_edge14_Node000010_Node000007"><a xlink:title=" ">
<path fill="none" stroke="#63b8ff" d="M423.6,-138.77C298.61,-119 253.41,-157.66 143,-103 110.79,-87.05 83.75,-53.73 69.6,-33.79"/>
<polygon fill="#63b8ff" stroke="#63b8ff" points="422.8,-142.18 433.24,-140.4 423.97,-135.28 422.8,-142.18"/>
</a>
</g>
</g>
<!-- Node11 -->
<g id="Node000011" class="node">
<title>Node11</title>
<g id="a_Node000011"><a xlink:href="motor__convert_8c.html" target="_top" xlink:title=" ">
<polygon fill="white" stroke="#666666" points="281,-103 163,-103 163,-69.5 281,-69.5 281,-103"/>
<text xml:space="preserve" text-anchor="start" x="171" y="-89.5" font-family="Helvetica,sans-Serif" font-size="10.00">source/motion/motor</text>
<text xml:space="preserve" text-anchor="middle" x="222" y="-76.75" font-family="Helvetica,sans-Serif" font-size="10.00">/motor_convert.c</text>
</a>
</g>
</g>
<!-- Node10&#45;&gt;Node11 -->
<g id="edge12_Node000010_Node000011" class="edge">
<title>Node10&#45;&gt;Node11</title>
<g id="a_edge12_Node000010_Node000011"><a xlink:title=" ">
<path fill="none" stroke="#63b8ff" d="M423.69,-137.3C379.5,-126.34 323.13,-112.35 281.23,-101.95"/>
<polygon fill="#63b8ff" stroke="#63b8ff" points="422.63,-140.64 433.18,-139.66 424.31,-133.85 422.63,-140.64"/>
</a>
</g>
</g>
<!-- Node12&#45;&gt;Node5 -->
<g id="edge16_Node000012_Node000005" class="edge">
<title>Node12&#45;&gt;Node5</title>
<g id="a_edge16_Node000012_Node000005"><a xlink:title=" ">
<path fill="none" stroke="#63b8ff" d="M1073.53,-63.04C1088.82,-53.49 1106.35,-42.53 1120.34,-33.79"/>
<polygon fill="#63b8ff" stroke="#63b8ff" points="1071.78,-60.01 1065.15,-68.28 1075.49,-65.95 1071.78,-60.01"/>
</a>
</g>
</g>
<!-- Node13 -->
<g id="Node000013" class="node">
<title>Node13</title>
<g id="a_Node000013"><a xlink:href="motor__process_8c.html" target="_top" xlink:title=" ">
<polygon fill="white" stroke="#666666" points="689,-33.5 571,-33.5 571,0 689,0 689,-33.5"/>
<text xml:space="preserve" text-anchor="start" x="579" y="-20" font-family="Helvetica,sans-Serif" font-size="10.00">source/motion/motor</text>
<text xml:space="preserve" text-anchor="middle" x="630" y="-7.25" font-family="Helvetica,sans-Serif" font-size="10.00">/motor_process.c</text>
</a>
</g>
</g>
<!-- Node12&#45;&gt;Node13 -->
<g id="edge17_Node000012_Node000013" class="edge">
<title>Node12&#45;&gt;Node13</title>
<g id="a_edge17_Node000012_Node000013"><a xlink:title=" ">
<path fill="none" stroke="#63b8ff" d="M967.57,-69.16C851.14,-48.39 818.58,-53.11 705,-33.5 699.89,-32.62 694.59,-31.64 689.29,-30.61"/>
<polygon fill="#63b8ff" stroke="#63b8ff" points="966.78,-72.57 977.24,-70.91 968.02,-65.68 966.78,-72.57"/>
</a>
</g>
</g>
<!-- Node14&#45;&gt;Node11 -->
<g id="edge19_Node000014_Node000011" class="edge">
<title>Node14&#45;&gt;Node11</title>
<g id="a_edge19_Node000014_Node000011"><a xlink:title=" ">
<path fill="none" stroke="#63b8ff" d="M559.66,-138.69C440.07,-117.64 406.47,-124.14 290,-103 287.14,-102.48 284.22,-101.92 281.27,-101.33"/>
<polygon fill="#63b8ff" stroke="#63b8ff" points="558.78,-142.08 569.24,-140.4 560.02,-135.19 558.78,-142.08"/>
</a>
</g>
</g>
<!-- Node14&#45;&gt;Node12 -->
<g id="edge23_Node000014_Node000012" class="edge">
<title>Node14&#45;&gt;Node12</title>
<g id="a_edge23_Node000014_Node000012"><a xlink:title=" ">
<path fill="none" stroke="#63b8ff" d="M700.47,-139.45C701.32,-139.3 702.16,-139.15 703,-139 820.95,-118.36 852.21,-124.53 970,-103 972.86,-102.48 975.78,-101.91 978.73,-101.32"/>
<polygon fill="#63b8ff" stroke="#63b8ff" points="699.95,-135.98 690.77,-141.27 701.25,-142.86 699.95,-135.98"/>
</a>
</g>
</g>
<!-- Node15 -->
<g id="Node000015" class="node">
<title>Node15</title>
<g id="a_Node000015"><a xlink:href="motor__core_8h.html" target="_top" xlink:title=" ">
<polygon fill="white" stroke="#666666" points="961,-103 843,-103 843,-69.5 961,-69.5 961,-103"/>
<text xml:space="preserve" text-anchor="start" x="851" y="-89.5" font-family="Helvetica,sans-Serif" font-size="10.00">source/motion/motor</text>
<text xml:space="preserve" text-anchor="middle" x="902" y="-76.75" font-family="Helvetica,sans-Serif" font-size="10.00">/motor_core.h</text>
</a>
</g>
</g>
<!-- Node14&#45;&gt;Node15 -->
<g id="edge20_Node000014_Node000015" class="edge">
<title>Node14&#45;&gt;Node15</title>
<g id="a_edge20_Node000014_Node000015"><a xlink:title=" ">
<path fill="none" stroke="#63b8ff" d="M700.31,-137.3C744.5,-126.34 800.87,-112.35 842.77,-101.95"/>
<polygon fill="#63b8ff" stroke="#63b8ff" points="699.69,-133.85 690.82,-139.66 701.37,-140.64 699.69,-133.85"/>
</a>
</g>
</g>
<!-- Node18 -->
<g id="Node000018" class="node">
<title>Node18</title>
<g id="a_Node000018"><a xlink:href="motor__motion_8h.html" target="_top" xlink:title=" ">
<polygon fill="white" stroke="#666666" points="553,-103 435,-103 435,-69.5 553,-69.5 553,-103"/>
<text xml:space="preserve" text-anchor="start" x="443" y="-89.5" font-family="Helvetica,sans-Serif" font-size="10.00">source/motion/motor</text>
<text xml:space="preserve" text-anchor="middle" x="494" y="-76.75" font-family="Helvetica,sans-Serif" font-size="10.00">/motor_motion.h</text>
</a>
</g>
</g>
<!-- Node14&#45;&gt;Node18 -->
<g id="edge24_Node000014_Node000018" class="edge">
<title>Node14&#45;&gt;Node18</title>
<g id="a_edge24_Node000014_Node000018"><a xlink:title=" ">
<path fill="none" stroke="#63b8ff" d="M587.17,-133.49C567.48,-123.72 544.51,-112.32 526.31,-103.29"/>
<polygon fill="#63b8ff" stroke="#63b8ff" points="585.56,-136.6 596.07,-137.91 588.67,-130.33 585.56,-136.6"/>
</a>
</g>
</g>
<!-- Node20 -->
<g id="Node000020" class="node">
<title>Node20</title>
<g id="a_Node000020"><a xlink:href="motor__process_8h.html" target="_top" xlink:title=" ">
<polygon fill="white" stroke="#666666" points="825,-103 707,-103 707,-69.5 825,-69.5 825,-103"/>
<text xml:space="preserve" text-anchor="start" x="715" y="-89.5" font-family="Helvetica,sans-Serif" font-size="10.00">source/motion/motor</text>
<text xml:space="preserve" text-anchor="middle" x="766" y="-76.75" font-family="Helvetica,sans-Serif" font-size="10.00">/motor_process.h</text>
</a>
</g>
</g>
<!-- Node14&#45;&gt;Node20 -->
<g id="edge28_Node000014_Node000020" class="edge">
<title>Node14&#45;&gt;Node20</title>
<g id="a_edge28_Node000014_Node000020"><a xlink:title=" ">
<path fill="none" stroke="#63b8ff" d="M672.83,-133.49C692.52,-123.72 715.49,-112.32 733.69,-103.29"/>
<polygon fill="#63b8ff" stroke="#63b8ff" points="671.33,-130.33 663.93,-137.91 674.44,-136.6 671.33,-130.33"/>
</a>
</g>
</g>
<!-- Node21 -->
<g id="Node000021" class="node">
<title>Node21</title>
<g id="a_Node000021"><a xlink:href="motor__sync_8h.html" target="_top" xlink:title=" ">
<polygon fill="white" stroke="#666666" points="417,-103 299,-103 299,-69.5 417,-69.5 417,-103"/>
<text xml:space="preserve" text-anchor="start" x="307" y="-89.5" font-family="Helvetica,sans-Serif" font-size="10.00">source/motion/motor</text>
<text xml:space="preserve" text-anchor="middle" x="358" y="-76.75" font-family="Helvetica,sans-Serif" font-size="10.00">/motor_sync.h</text>
</a>
</g>
</g>
<!-- Node14&#45;&gt;Node21 -->
<g id="edge31_Node000014_Node000021" class="edge">
<title>Node14&#45;&gt;Node21</title>
<g id="a_edge31_Node000014_Node000021"><a xlink:title=" ">
<path fill="none" stroke="#63b8ff" d="M559.69,-137.3C515.5,-126.34 459.13,-112.35 417.23,-101.95"/>
<polygon fill="#63b8ff" stroke="#63b8ff" points="558.63,-140.64 569.18,-139.66 560.31,-133.85 558.63,-140.64"/>
</a>
</g>
</g>
<!-- Node22 -->
<g id="Node000022" class="node">
<title>Node22</title>
<g id="a_Node000022"><a xlink:href="motor__tmc_8h.html" target="_top" xlink:title=" ">
<polygon fill="white" stroke="#666666" points="689,-103 571,-103 571,-69.5 689,-69.5 689,-103"/>
<text xml:space="preserve" text-anchor="start" x="579" y="-89.5" font-family="Helvetica,sans-Serif" font-size="10.00">source/motion/motor</text>
<text xml:space="preserve" text-anchor="middle" x="630" y="-76.75" font-family="Helvetica,sans-Serif" font-size="10.00">/motor_tmc.h</text>
</a>
</g>
</g>
<!-- Node14&#45;&gt;Node22 -->
<g id="edge34_Node000014_Node000022" class="edge">
<title>Node14&#45;&gt;Node22</title>
<g id="a_edge34_Node000014_Node000022"><a xlink:title=" ">
<path fill="none" stroke="#63b8ff" d="M630,-127.31C630,-119.09 630,-110.34 630,-103.13"/>
<polygon fill="#63b8ff" stroke="#63b8ff" points="626.5,-127.24 630,-137.24 633.5,-127.24 626.5,-127.24"/>
</a>
</g>
</g>
<!-- Node16 -->
<g id="Node000016" class="node">
<title>Node16</title>
<g id="a_Node000016"><a xlink:href="motor__core_8c.html" target="_top" xlink:title=" ">
<polygon fill="white" stroke="#666666" points="832,-33.5 714,-33.5 714,0 832,0 832,-33.5"/>
<text xml:space="preserve" text-anchor="start" x="722" y="-20" font-family="Helvetica,sans-Serif" font-size="10.00">source/motion/motor</text>
<text xml:space="preserve" text-anchor="middle" x="773" y="-7.25" font-family="Helvetica,sans-Serif" font-size="10.00">/motor_core.c</text>
</a>
</g>
</g>
<!-- Node15&#45;&gt;Node16 -->
<g id="edge21_Node000015_Node000016" class="edge">
<title>Node15&#45;&gt;Node16</title>
<g id="a_edge21_Node000015_Node000016"><a xlink:title=" ">
<path fill="none" stroke="#63b8ff" d="M861.12,-63.86C842.5,-54.12 820.84,-42.78 803.65,-33.79"/>
<polygon fill="#63b8ff" stroke="#63b8ff" points="859.28,-66.85 869.76,-68.38 862.52,-60.64 859.28,-66.85"/>
</a>
</g>
</g>
<!-- Node17 -->
<g id="Node000017" class="node">
<title>Node17</title>
<g id="a_Node000017"><a xlink:href="motor_8c.html" target="_top" xlink:title=" ">
<polygon fill="white" stroke="#666666" points="946,-27.12 858,-27.12 858,-6.38 946,-6.38 946,-27.12"/>
<text xml:space="preserve" text-anchor="middle" x="902" y="-13.62" font-family="Helvetica,sans-Serif" font-size="10.00">source/motor.c</text>
</a>
</g>
</g>
<!-- Node15&#45;&gt;Node17 -->
<g id="edge22_Node000015_Node000017" class="edge">
<title>Node15&#45;&gt;Node17</title>
<g id="a_edge22_Node000015_Node000017"><a xlink:title=" ">
<path fill="none" stroke="#63b8ff" d="M902,-57.78C902,-47.08 902,-35.51 902,-27.57"/>
<polygon fill="#63b8ff" stroke="#63b8ff" points="898.5,-57.74 902,-67.74 905.5,-57.74 898.5,-57.74"/>
</a>
</g>
</g>
<!-- Node18&#45;&gt;Node6 -->
<g id="edge25_Node000018_Node000006" class="edge">
<title>Node18&#45;&gt;Node6</title>
<g id="a_edge25_Node000018_Node000006"><a xlink:title=" ">
<path fill="none" stroke="#63b8ff" d="M423.69,-68.98C360.47,-54.6 298.49,-40.75 254.37,-30.93"/>
<polygon fill="#63b8ff" stroke="#63b8ff" points="422.66,-72.34 433.19,-71.15 424.22,-65.51 422.66,-72.34"/>
</a>
</g>
</g>
<!-- Node18&#45;&gt;Node13 -->
<g id="edge26_Node000018_Node000013" class="edge">
<title>Node18&#45;&gt;Node13</title>
<g id="a_edge26_Node000018_Node000013"><a xlink:title=" ">
<path fill="none" stroke="#63b8ff" d="M536.83,-63.99C556.52,-54.22 579.49,-42.82 597.69,-33.79"/>
<polygon fill="#63b8ff" stroke="#63b8ff" points="535.33,-60.83 527.93,-68.41 538.44,-67.1 535.33,-60.83"/>
</a>
</g>
</g>
<!-- Node19 -->
<g id="Node000019" class="node">
<title>Node19</title>
<g id="a_Node000019"><a xlink:href="motor__tmc_8c.html" target="_top" xlink:title=" ">
<polygon fill="white" stroke="#666666" points="553,-33.5 435,-33.5 435,0 553,0 553,-33.5"/>
<text xml:space="preserve" text-anchor="start" x="443" y="-20" font-family="Helvetica,sans-Serif" font-size="10.00">source/motion/motor</text>
<text xml:space="preserve" text-anchor="middle" x="494" y="-7.25" font-family="Helvetica,sans-Serif" font-size="10.00">/motor_tmc.c</text>
</a>
</g>
</g>
<!-- Node18&#45;&gt;Node19 -->
<g id="edge27_Node000018_Node000019" class="edge">
<title>Node18&#45;&gt;Node19</title>
<g id="a_edge27_Node000018_Node000019"><a xlink:title=" ">
<path fill="none" stroke="#63b8ff" d="M494,-57.81C494,-49.59 494,-40.84 494,-33.63"/>
<polygon fill="#63b8ff" stroke="#63b8ff" points="490.5,-57.74 494,-67.74 497.5,-57.74 490.5,-57.74"/>
</a>
</g>
</g>
<!-- Node20&#45;&gt;Node13 -->
<g id="edge30_Node000020_Node000013" class="edge">
<title>Node20&#45;&gt;Node13</title>
<g id="a_edge30_Node000020_Node000013"><a xlink:title=" ">
<path fill="none" stroke="#63b8ff" d="M723.17,-63.99C703.48,-54.22 680.51,-42.82 662.31,-33.79"/>
<polygon fill="#63b8ff" stroke="#63b8ff" points="721.56,-67.1 732.07,-68.41 724.67,-60.83 721.56,-67.1"/>
</a>
</g>
</g>
<!-- Node20&#45;&gt;Node16 -->
<g id="edge29_Node000020_Node000016" class="edge">
<title>Node20&#45;&gt;Node16</title>
<g id="a_edge29_Node000020_Node000016"><a xlink:title=" ">
<path fill="none" stroke="#63b8ff" d="M768.85,-57.81C769.7,-49.59 770.6,-40.84 771.35,-33.63"/>
<polygon fill="#63b8ff" stroke="#63b8ff" points="765.37,-57.44 767.82,-67.75 772.33,-58.16 765.37,-57.44"/>
</a>
</g>
</g>
<!-- Node21&#45;&gt;Node7 -->
<g id="edge33_Node000021_Node000007" class="edge">
<title>Node21&#45;&gt;Node7</title>
<g id="a_edge33_Node000021_Node000007"><a xlink:title=" ">
<path fill="none" stroke="#63b8ff" d="M287.68,-68.99C215.81,-52.8 195.97,-49.1 127,-33.5 124.16,-32.86 121.26,-32.2 118.33,-31.53"/>
<polygon fill="#63b8ff" stroke="#63b8ff" points="286.67,-72.35 297.19,-71.14 288.21,-65.52 286.67,-72.35"/>
</a>
</g>
</g>
<!-- Node21&#45;&gt;Node13 -->
<g id="edge32_Node000021_Node000013" class="edge">
<title>Node21&#45;&gt;Node13</title>
<g id="a_edge32_Node000021_Node000013"><a xlink:title=" ">
<path fill="none" stroke="#63b8ff" d="M428.31,-67.8C472.5,-56.84 528.87,-42.85 570.77,-32.45"/>
<polygon fill="#63b8ff" stroke="#63b8ff" points="427.69,-64.35 418.82,-70.16 429.37,-71.14 427.69,-64.35"/>
</a>
</g>
</g>
<!-- Node22&#45;&gt;Node13 -->
<g id="edge35_Node000022_Node000013" class="edge">
<title>Node22&#45;&gt;Node13</title>
<g id="a_edge35_Node000022_Node000013"><a xlink:title=" ">
<path fill="none" stroke="#63b8ff" d="M630,-57.81C630,-49.59 630,-40.84 630,-33.63"/>
<polygon fill="#63b8ff" stroke="#63b8ff" points="626.5,-57.74 630,-67.74 633.5,-57.74 626.5,-57.74"/>
</a>
</g>
</g>
<!-- Node22&#45;&gt;Node19 -->
<g id="edge36_Node000022_Node000019" class="edge">
<title>Node22&#45;&gt;Node19</title>
<g id="a_edge36_Node000022_Node000019"><a xlink:title=" ">
<path fill="none" stroke="#63b8ff" d="M587.17,-63.99C567.48,-54.22 544.51,-42.82 526.31,-33.79"/>
<polygon fill="#63b8ff" stroke="#63b8ff" points="585.56,-67.1 596.07,-68.41 588.67,-60.83 585.56,-67.1"/>
</a>
</g>
</g>
<!-- Node24&#45;&gt;Node25 -->
<g id="edge39_Node000024_Node000025" class="edge">
<title>Node24&#45;&gt;Node25</title>
<g id="a_edge39_Node000024_Node000025"><a xlink:title=" ">
<path fill="none" stroke="#63b8ff" d="M903.82,-142.58C909.62,-141.36 915.43,-140.14 921,-139 1003.06,-122.17 1024.16,-120.87 1106,-103 1114.28,-101.19 1123.12,-99.13 1131.54,-97.12"/>
<polygon fill="#63b8ff" stroke="#63b8ff" points="903.28,-139.12 894.23,-144.63 904.74,-145.97 903.28,-139.12"/>
</a>
</g>
</g>
<!-- Node26&#45;&gt;Node4 -->
<g id="edge43_Node000026_Node000004" class="edge">
<title>Node26&#45;&gt;Node4</title>
<g id="a_edge43_Node000026_Node000004"><a xlink:title=" ">
<path fill="none" stroke="#63b8ff" d="M1159.46,-353.72C1055.07,-340.38 867.17,-316.35 769.24,-303.83"/>
<polygon fill="#63b8ff" stroke="#63b8ff" points="1158.97,-357.19 1169.33,-354.98 1159.86,-350.24 1158.97,-357.19"/>
</a>
</g>
</g>
<!-- Node27 -->
<g id="Node000027" class="node">
<title>Node27</title>
<g id="a_Node000027"><a xlink:href="step__internal_8h.html" target="_top" xlink:title=" ">
<polygon fill="white" stroke="#666666" points="1478.75,-311.5 1353.25,-311.5 1353.25,-278 1478.75,-278 1478.75,-311.5"/>
<text xml:space="preserve" text-anchor="start" x="1361.25" y="-298" font-family="Helvetica,sans-Serif" font-size="10.00">source/motion/stepper</text>
<text xml:space="preserve" text-anchor="middle" x="1416" y="-285.25" font-family="Helvetica,sans-Serif" font-size="10.00">/step_internal.h</text>
</a>
</g>
</g>
<!-- Node26&#45;&gt;Node27 -->
<g id="edge44_Node000026_Node000027" class="edge">
<title>Node26&#45;&gt;Node27</title>
<g id="a_edge44_Node000026_Node000027"><a xlink:title=" ">
<path fill="none" stroke="#63b8ff" d="M1288.38,-343.08C1315.24,-333.12 1347.22,-321.26 1372.45,-311.9"/>
<polygon fill="#63b8ff" stroke="#63b8ff" points="1287.17,-339.8 1279.01,-346.56 1289.61,-346.36 1287.17,-339.8"/>
</a>
</g>
</g>
<!-- Node28 -->
<g id="Node000028" class="node">
<title>Node28</title>
<g id="a_Node000028"><a xlink:href="step__process_8c.html" target="_top" xlink:title=" ">
<polygon fill="white" stroke="#666666" points="1478.75,-172.5 1353.25,-172.5 1353.25,-139 1478.75,-139 1478.75,-172.5"/>
<text xml:space="preserve" text-anchor="start" x="1361.25" y="-159" font-family="Helvetica,sans-Serif" font-size="10.00">source/motion/stepper</text>
<text xml:space="preserve" text-anchor="middle" x="1416" y="-146.25" font-family="Helvetica,sans-Serif" font-size="10.00">/step_process.c</text>
</a>
</g>
</g>
<!-- Node26&#45;&gt;Node28 -->
<g id="edge58_Node000026_Node000028" class="edge">
<title>Node26&#45;&gt;Node28</title>
<g id="a_edge58_Node000026_Node000028"><a xlink:title=" ">
<path fill="none" stroke="#63b8ff" d="M1229.18,-335.71C1224.91,-301.79 1223.28,-244.3 1253,-208.5 1266.13,-192.68 1312.76,-178.83 1352.8,-169.45"/>
<polygon fill="#63b8ff" stroke="#63b8ff" points="1225.71,-336.16 1230.61,-345.55 1232.64,-335.15 1225.71,-336.16"/>
</a>
</g>
</g>
<!-- Node32 -->
<g id="Node000032" class="node">
<title>Node32</title>
<g id="a_Node000032"><a xlink:href="step__timing_8c.html" target="_top" xlink:title=" ">
<polygon fill="white" stroke="#666666" points="1804.75,-172.5 1679.25,-172.5 1679.25,-139 1804.75,-139 1804.75,-172.5"/>
<text xml:space="preserve" text-anchor="start" x="1687.25" y="-159" font-family="Helvetica,sans-Serif" font-size="10.00">source/motion/stepper</text>
<text xml:space="preserve" text-anchor="middle" x="1742" y="-146.25" font-family="Helvetica,sans-Serif" font-size="10.00">/step_timing.c</text>
</a>
</g>
</g>
<!-- Node26&#45;&gt;Node32 -->
<g id="edge59_Node000026_Node000032" class="edge">
<title>Node26&#45;&gt;Node32</title>
<g id="a_edge59_Node000026_Node000032"><a xlink:title=" ">
<path fill="none" stroke="#63b8ff" d="M1308.48,-356.92C1437.37,-344.23 1693.28,-310.8 1746,-242 1761.23,-222.12 1754.61,-191.34 1748.35,-172.71"/>
<polygon fill="#63b8ff" stroke="#63b8ff" points="1308.29,-353.42 1298.68,-357.87 1308.97,-360.39 1308.29,-353.42"/>
</a>
</g>
</g>
<!-- Node27&#45;&gt;Node8 -->
<g id="edge45_Node000027_Node000008" class="edge">
<title>Node27&#45;&gt;Node8</title>
<g id="a_edge45_Node000027_Node000008"><a xlink:title=" ">
<path fill="none" stroke="#63b8ff" d="M1341.77,-288.72C1309.32,-282.46 1273.96,-269.27 1253,-242 1237.74,-222.14 1240.89,-191.35 1244.79,-172.72"/>
<polygon fill="#63b8ff" stroke="#63b8ff" points="1341.15,-292.17 1351.6,-290.41 1342.33,-285.27 1341.15,-292.17"/>
</a>
</g>
</g>
<!-- Node27&#45;&gt;Node28 -->
<g id="edge46_Node000027_Node000028" class="edge">
<title>Node27&#45;&gt;Node28</title>
<g id="a_edge46_Node000027_Node000028"><a xlink:title=" ">
<path fill="none" stroke="#63b8ff" d="M1416,-266.37C1416,-238.29 1416,-195.57 1416,-172.63"/>
<polygon fill="#63b8ff" stroke="#63b8ff" points="1412.5,-266.25 1416,-276.25 1419.5,-266.25 1412.5,-266.25"/>
</a>
</g>
</g>
<!-- Node29 -->
<g id="Node000029" class="node">
<title>Node29</title>
<g id="a_Node000029"><a xlink:href="step__process_8h.html" target="_top" xlink:title=" ">
<polygon fill="white" stroke="#666666" points="1387.75,-242 1262.25,-242 1262.25,-208.5 1387.75,-208.5 1387.75,-242"/>
<text xml:space="preserve" text-anchor="start" x="1270.25" y="-228.5" font-family="Helvetica,sans-Serif" font-size="10.00">source/motion/stepper</text>
<text xml:space="preserve" text-anchor="middle" x="1325" y="-215.75" font-family="Helvetica,sans-Serif" font-size="10.00">/step_process.h</text>
</a>
</g>
</g>
<!-- Node27&#45;&gt;Node29 -->
<g id="edge47_Node000027_Node000029" class="edge">
<title>Node27&#45;&gt;Node29</title>
<g id="a_edge47_Node000027_Node000029"><a xlink:title=" ">
<path fill="none" stroke="#63b8ff" d="M1385.55,-271.16C1372.83,-261.73 1358.34,-250.98 1346.73,-242.37"/>
<polygon fill="#63b8ff" stroke="#63b8ff" points="1383.1,-273.71 1393.22,-276.85 1387.27,-268.08 1383.1,-273.71"/>
</a>
</g>
</g>
<!-- Node30 -->
<g id="Node000030" class="node">
<title>Node30</title>
<g id="a_Node000030"><a xlink:href="step__profile_8h.html" target="_top" xlink:title=" ">
<polygon fill="white" stroke="#666666" points="1713.75,-242 1588.25,-242 1588.25,-208.5 1713.75,-208.5 1713.75,-242"/>
<text xml:space="preserve" text-anchor="start" x="1596.25" y="-228.5" font-family="Helvetica,sans-Serif" font-size="10.00">source/motion/stepper</text>
<text xml:space="preserve" text-anchor="middle" x="1651" y="-215.75" font-family="Helvetica,sans-Serif" font-size="10.00">/step_profile.h</text>
</a>
</g>
</g>
<!-- Node27&#45;&gt;Node30 -->
<g id="edge50_Node000027_Node000030" class="edge">
<title>Node27&#45;&gt;Node30</title>
<g id="a_edge50_Node000027_Node000030"><a xlink:title=" ">
<path fill="none" stroke="#63b8ff" d="M1482.99,-274.51C1518.32,-264.36 1561.18,-252.05 1594.76,-242.4"/>
<polygon fill="#63b8ff" stroke="#63b8ff" points="1482.39,-271.04 1473.74,-277.16 1484.32,-277.77 1482.39,-271.04"/>
</a>
</g>
</g>
<!-- Node27&#45;&gt;Node32 -->
<g id="edge54_Node000027_Node000032" class="edge">
<title>Node27&#45;&gt;Node32</title>
<g id="a_edge54_Node000027_Node000032"><a xlink:title=" ">
<path fill="none" stroke="#63b8ff" d="M1490.62,-290.54C1570.57,-285.52 1690.4,-272.94 1723,-242 1741.81,-224.15 1743.97,-192.11 1743.33,-172.8"/>
<polygon fill="#63b8ff" stroke="#63b8ff" points="1490.42,-287.04 1480.64,-291.14 1490.84,-294.03 1490.42,-287.04"/>
</a>
</g>
</g>
<!-- Node33 -->
<g id="Node000033" class="node">
<title>Node33</title>
<g id="a_Node000033"><a xlink:href="step__timing_8h.html" target="_top" xlink:title=" ">
<polygon fill="white" stroke="#666666" points="1569.75,-242 1444.25,-242 1444.25,-208.5 1569.75,-208.5 1569.75,-242"/>
<text xml:space="preserve" text-anchor="start" x="1452.25" y="-228.5" font-family="Helvetica,sans-Serif" font-size="10.00">source/motion/stepper</text>
<text xml:space="preserve" text-anchor="middle" x="1507" y="-215.75" font-family="Helvetica,sans-Serif" font-size="10.00">/step_timing.h</text>
</a>
</g>
</g>
<!-- Node27&#45;&gt;Node33 -->
<g id="edge55_Node000027_Node000033" class="edge">
<title>Node27&#45;&gt;Node33</title>
<g id="a_edge55_Node000027_Node000033"><a xlink:title=" ">
<path fill="none" stroke="#63b8ff" d="M1446.45,-271.16C1459.17,-261.73 1473.66,-250.98 1485.27,-242.37"/>
<polygon fill="#63b8ff" stroke="#63b8ff" points="1444.73,-268.08 1438.78,-276.85 1448.9,-273.71 1444.73,-268.08"/>
</a>
</g>
</g>
<!-- Node29&#45;&gt;Node8 -->
<g id="edge48_Node000029_Node000008" class="edge">
<title>Node29&#45;&gt;Node8</title>
<g id="a_edge48_Node000029_Node000008"><a xlink:title=" ">
<path fill="none" stroke="#63b8ff" d="M1298.64,-200.84C1288.24,-191.6 1276.56,-181.23 1267.15,-172.87"/>
<polygon fill="#63b8ff" stroke="#63b8ff" points="1296.06,-203.22 1305.86,-207.25 1300.7,-197.99 1296.06,-203.22"/>
</a>
</g>
</g>
<!-- Node29&#45;&gt;Node28 -->
<g id="edge49_Node000029_Node000028" class="edge">
<title>Node29&#45;&gt;Node28</title>
<g id="a_edge49_Node000029_Node000028"><a xlink:title=" ">
<path fill="none" stroke="#63b8ff" d="M1355.45,-201.66C1368.17,-192.23 1382.66,-181.48 1394.27,-172.87"/>
<polygon fill="#63b8ff" stroke="#63b8ff" points="1353.73,-198.58 1347.78,-207.35 1357.9,-204.21 1353.73,-198.58"/>
</a>
</g>
</g>
<!-- Node30&#45;&gt;Node28 -->
<g id="edge51_Node000030_Node000028" class="edge">
<title>Node30&#45;&gt;Node28</title>
<g id="a_edge51_Node000030_Node000028"><a xlink:title=" ">
<path fill="none" stroke="#63b8ff" d="M1584.01,-205.01C1548.68,-194.86 1505.82,-182.55 1472.24,-172.9"/>
<polygon fill="#63b8ff" stroke="#63b8ff" points="1582.68,-208.27 1593.26,-207.66 1584.61,-201.54 1582.68,-208.27"/>
</a>
</g>
</g>
<!-- Node31 -->
<g id="Node000031" class="node">
<title>Node31</title>
<g id="a_Node000031"><a xlink:href="step__profile_8c.html" target="_top" xlink:title=" ">
<polygon fill="white" stroke="#666666" points="1660.75,-172.5 1535.25,-172.5 1535.25,-139 1660.75,-139 1660.75,-172.5"/>
<text xml:space="preserve" text-anchor="start" x="1543.25" y="-159" font-family="Helvetica,sans-Serif" font-size="10.00">source/motion/stepper</text>
<text xml:space="preserve" text-anchor="middle" x="1598" y="-146.25" font-family="Helvetica,sans-Serif" font-size="10.00">/step_profile.c</text>
</a>
</g>
</g>
<!-- Node30&#45;&gt;Node31 -->
<g id="edge52_Node000030_Node000031" class="edge">
<title>Node30&#45;&gt;Node31</title>
<g id="a_edge52_Node000030_Node000031"><a xlink:title=" ">
<path fill="none" stroke="#63b8ff" d="M1631.47,-199.38C1624.45,-190.44 1616.73,-180.6 1610.47,-172.63"/>
<polygon fill="#63b8ff" stroke="#63b8ff" points="1628.58,-201.36 1637.51,-207.06 1634.08,-197.04 1628.58,-201.36"/>
</a>
</g>
</g>
<!-- Node30&#45;&gt;Node32 -->
<g id="edge53_Node000030_Node000032" class="edge">
<title>Node30&#45;&gt;Node32</title>
<g id="a_edge53_Node000030_Node000032"><a xlink:title=" ">
<path fill="none" stroke="#63b8ff" d="M1681.45,-201.66C1694.17,-192.23 1708.66,-181.48 1720.27,-172.87"/>
<polygon fill="#63b8ff" stroke="#63b8ff" points="1679.73,-198.58 1673.78,-207.35 1683.9,-204.21 1679.73,-198.58"/>
</a>
</g>
</g>
<!-- Node33&#45;&gt;Node28 -->
<g id="edge56_Node000033_Node000028" class="edge">
<title>Node33&#45;&gt;Node28</title>
<g id="a_edge56_Node000033_Node000028"><a xlink:title=" ">
<path fill="none" stroke="#63b8ff" d="M1476.55,-201.66C1463.83,-192.23 1449.34,-181.48 1437.73,-172.87"/>
<polygon fill="#63b8ff" stroke="#63b8ff" points="1474.1,-204.21 1484.22,-207.35 1478.27,-198.58 1474.1,-204.21"/>
</a>
</g>
</g>
<!-- Node33&#45;&gt;Node32 -->
<g id="edge57_Node000033_Node000032" class="edge">
<title>Node33&#45;&gt;Node32</title>
<g id="a_edge57_Node000033_Node000032"><a xlink:title=" ">
<path fill="none" stroke="#63b8ff" d="M1573.99,-205.01C1609.32,-194.86 1652.18,-182.55 1685.76,-172.9"/>
<polygon fill="#63b8ff" stroke="#63b8ff" points="1573.39,-201.54 1564.74,-207.66 1575.32,-208.27 1573.39,-201.54"/>
</a>
</g>
</g>
</g>
</svg>

<g id="navigator" transform="translate(0 0)" fill="#404254">
  <rect fill="#f2f5e9" fill-opacity="0.5" stroke="#606060" stroke-width=".5" x="0" y="0" width="60" height="60"/>
  <use id="zoomplus" xlink:href="#zoomPlus" x="17" y="9" onmousedown="handleZoom(evt,'in')"/>
  <use id="zoomminus" xlink:href="#zoomMin" x="42" y="9" onmousedown="handleZoom(evt,'out')"/>
  <use id="reset" xlink:href="#resetDef" x="30" y="36" onmousedown="handleReset()"/>
   <use id="arrowup" xlink:href="#arrowUp" x="0" y="0" onmousedown="handlePan(0,-1)"/>
  <use id="arrowright" xlink:href="#arrowRight" x="0" y="0" onmousedown="handlePan(1,0)"/>
  <use id="arrowdown" xlink:href="#arrowDown" x="0" y="0" onmousedown="handlePan(0,1)"/>
  <use id="arrowleft" xlink:href="#arrowLeft" x="0" y="0" onmousedown="handlePan(-1,0)"/>
</g>
<svg viewBox="0 0 15 15" width="100%" height="30px" preserveAspectRatio="xMaxYMin meet">
 <g id="arrow_out" transform="scale(0.3 0.3)">
  <a xlink:href="pca9555a_8h__dep__incl_org.svg" target="_base">
   <rect id="button" ry="5" rx="5" y="6" x="6" height="38" width="38"
        fill="#f2f5e9" fill-opacity="0.5" stroke="#606060" stroke-width="1.0"/>
   <path id="arrow"
     d="M 11.500037,31.436501 C 11.940474,20.09759 22.043105,11.32322 32.158766,21.979434 L 37.068811,17.246167 C 37.068811,17.246167 37.088388,32 37.088388,32 L 22.160133,31.978069 C 22.160133,31.978069 26.997745,27.140456 26.997745,27.140456 C 18.528582,18.264221 13.291696,25.230495 11.500037,31.436501 z"
     style="fill:#404040;"/>
  </a>
 </g>
</svg>

<style type='text/css'>
<![CDATA[
[data-mouse-over-selected='false'] { opacity: 0.7; }
[data-mouse-over-selected='true']  { opacity: 1.0; }
]]>
</style>
<script type="application/ecmascript"><![CDATA[
document.addEventListener('DOMContentLoaded', (event) => {
  highlightEdges();
  highlightAdjacentNodes();
});
]]></script>
</svg>
