<?xml version="1.0" encoding="UTF-8" standalone="no"?>
<!DOCTYPE svg PUBLIC "-//W3C//DTD SVG 1.1//EN"
 "http://www.w3.org/Graphics/SVG/1.1/DTD/svg11.dtd">
<!-- Generated by graphviz version 14.1.5 (0)
 -->
<!-- Title: source/scara_kinematics.c Pages: 1 -->
<svg width="1565pt" height="483pt"
 viewBox="0.00 0.00 1565.00 483.00" xmlns="http://www.w3.org/2000/svg" xmlns:xlink="http://www.w3.org/1999/xlink">
<g id="graph0" class="graph" transform="scale(1 1) rotate(0) translate(4 478.75)">
<title>source/scara_kinematics.c</title>
<!-- Node1 -->
<g id="Node000001" class="node">
<title>Node1</title>
<g id="a_Node000001"><a xlink:title=" ">
<polygon fill="#999999" stroke="#666666" points="1320.38,-474.75 1175.38,-474.75 1175.38,-454 1320.38,-454 1320.38,-474.75"/>
<text xml:space="preserve" text-anchor="middle" x="1247.88" y="-461.25" font-family="Helvetica,sans-Serif" font-size="10.00">source/scara_kinematics.c</text>
</a>
</g>
</g>
<!-- Node2 -->
<g id="Node000002" class="node">
<title>Node2</title>
<g id="a_Node000002"><a xlink:href="scara__kinematics_8h.html" target="_top" xlink:title=" ">
<polygon fill="white" stroke="#666666" points="960.12,-304.5 849.62,-304.5 849.62,-283.75 960.12,-283.75 960.12,-304.5"/>
<text xml:space="preserve" text-anchor="middle" x="904.88" y="-291" font-family="Helvetica,sans-Serif" font-size="10.00">scara_kinematics.h</text>
</a>
</g>
</g>
<!-- Node1&#45;&gt;Node2 -->
<g id="edge1_Node000001_Node000002" class="edge">
<title>Node1&#45;&gt;Node2</title>
<g id="a_edge1_Node000001_Node000002"><a xlink:title=" ">
<path fill="none" stroke="#63b8ff" d="M1227.95,-453.6C1170.41,-425.38 1003.7,-343.6 935.01,-309.9"/>
<polygon fill="#63b8ff" stroke="#63b8ff" points="936.73,-306.85 926.21,-305.59 933.65,-313.14 936.73,-306.85"/>
</a>
</g>
</g>
<!-- Node10 -->
<g id="Node000010" class="node">
<title>Node10</title>
<g id="a_Node000010"><a xlink:href="motor__core_8h.html" target="_top" xlink:title=" ">
<polygon fill="white" stroke="#666666" points="565.12,-247.75 484.62,-247.75 484.62,-227 565.12,-227 565.12,-247.75"/>
<text xml:space="preserve" text-anchor="middle" x="524.88" y="-234.25" font-family="Helvetica,sans-Serif" font-size="10.00">motor_core.h</text>
</a>
</g>
</g>
<!-- Node1&#45;&gt;Node10 -->
<g id="edge54_Node000001_Node000010" class="edge">
<title>Node1&#45;&gt;Node10</title>
<g id="a_edge54_Node000001_Node000010"><a xlink:title=" ">
<path fill="none" stroke="#63b8ff" d="M1216.34,-453.56C1100.67,-417.56 699.52,-292.73 567.42,-251.62"/>
<polygon fill="#63b8ff" stroke="#63b8ff" points="568.61,-248.32 558.02,-248.69 566.53,-255 568.61,-248.32"/>
</a>
</g>
</g>
<!-- Node24 -->
<g id="Node000024" class="node">
<title>Node24</title>
<g id="a_Node000024"><a xlink:href="scara__kinematics__internal_8h.html" target="_top" xlink:title=" ">
<polygon fill="white" stroke="#666666" points="1368.5,-361.25 1215.25,-361.25 1215.25,-340.5 1368.5,-340.5 1368.5,-361.25"/>
<text xml:space="preserve" text-anchor="middle" x="1291.88" y="-347.75" font-family="Helvetica,sans-Serif" font-size="10.00">scara_kinematics_internal.h</text>
</a>
</g>
</g>
<!-- Node1&#45;&gt;Node24 -->
<g id="edge45_Node000001_Node000024" class="edge">
<title>Node1&#45;&gt;Node24</title>
<g id="a_edge45_Node000001_Node000024"><a xlink:title=" ">
<path fill="none" stroke="#63b8ff" d="M1236.94,-453.78C1223.47,-440.76 1203.67,-416.86 1214.88,-397.25 1222.73,-383.51 1236.55,-373.51 1250.33,-366.46"/>
<polygon fill="#63b8ff" stroke="#63b8ff" points="1251.79,-369.64 1259.39,-362.27 1248.85,-363.29 1251.79,-369.64"/>
</a>
</g>
</g>
<!-- Node26 -->
<g id="Node000026" class="node">
<title>Node26</title>
<g id="a_Node000026"><a xlink:href="scara__kinematics__process_8h.html" target="_top" xlink:title=" ">
<polygon fill="white" stroke="#666666" points="1377.5,-418 1224.25,-418 1224.25,-397.25 1377.5,-397.25 1377.5,-418"/>
<text xml:space="preserve" text-anchor="middle" x="1300.88" y="-404.5" font-family="Helvetica,sans-Serif" font-size="10.00">scara_kinematics_process.h</text>
</a>
</g>
</g>
<!-- Node1&#45;&gt;Node26 -->
<g id="edge52_Node000001_Node000026" class="edge">
<title>Node1&#45;&gt;Node26</title>
<g id="a_edge52_Node000001_Node000026"><a xlink:title=" ">
<path fill="none" stroke="#63b8ff" d="M1257.35,-453.59C1264.66,-446.03 1274.97,-435.39 1283.72,-426.35"/>
<polygon fill="#63b8ff" stroke="#63b8ff" points="1285.99,-429.04 1290.43,-419.42 1280.96,-424.17 1285.99,-429.04"/>
</a>
</g>
</g>
<!-- Node27 -->
<g id="Node000027" class="node">
<title>Node27</title>
<g id="a_Node000027"><a xlink:href="motor__homing_8h.html" target="_top" xlink:title=" ">
<polygon fill="white" stroke="#666666" points="1194,-361.25 1097.75,-361.25 1097.75,-340.5 1194,-340.5 1194,-361.25"/>
<text xml:space="preserve" text-anchor="middle" x="1145.88" y="-347.75" font-family="Helvetica,sans-Serif" font-size="10.00">motor_homing.h</text>
</a>
</g>
</g>
<!-- Node1&#45;&gt;Node27 -->
<g id="edge55_Node000001_Node000027" class="edge">
<title>Node1&#45;&gt;Node27</title>
<g id="a_edge55_Node000001_Node000027"><a xlink:title=" ">
<path fill="none" stroke="#63b8ff" d="M1239.18,-453.87C1222.18,-435.28 1184.28,-393.86 1162.38,-369.91"/>
<polygon fill="#63b8ff" stroke="#63b8ff" points="1165.19,-367.81 1155.86,-362.79 1160.03,-372.53 1165.19,-367.81"/>
</a>
</g>
</g>
<!-- Node29 -->
<g id="Node000029" class="node">
<title>Node29</title>
<g id="a_Node000029"><a xlink:href="sync__wait_8h.html" target="_top" xlink:title=" ">
<polygon fill="white" stroke="#666666" points="1471.75,-191 1398,-191 1398,-170.25 1471.75,-170.25 1471.75,-191"/>
<text xml:space="preserve" text-anchor="middle" x="1434.88" y="-177.5" font-family="Helvetica,sans-Serif" font-size="10.00">sync_wait.h</text>
</a>
</g>
</g>
<!-- Node1&#45;&gt;Node29 -->
<g id="edge65_Node000001_Node000029" class="edge">
<title>Node1&#45;&gt;Node29</title>
<g id="a_edge65_Node000001_Node000029"><a xlink:title=" ">
<path fill="none" stroke="#63b8ff" d="M1319.54,-453.54C1343.63,-447 1368.91,-436.11 1386.88,-418 1408.59,-396.11 1407.88,-382.71 1407.88,-351.88 1407.88,-351.88 1407.88,-351.88 1407.88,-293.12 1407.88,-260.52 1418.91,-224.03 1426.87,-201.95"/>
<polygon fill="#63b8ff" stroke="#63b8ff" points="1430.11,-203.29 1430.36,-192.69 1423.56,-200.82 1430.11,-203.29"/>
</a>
</g>
</g>
<!-- Node30 -->
<g id="Node000030" class="node">
<title>Node30</title>
<g id="a_Node000030"><a xlink:title=" ">
<polygon fill="#e0e0e0" stroke="#999999" points="1486.12,-418 1435.62,-418 1435.62,-397.25 1486.12,-397.25 1486.12,-418"/>
<text xml:space="preserve" text-anchor="middle" x="1460.88" y="-404.5" font-family="Helvetica,sans-Serif" font-size="10.00">math.h</text>
</a>
</g>
</g>
<!-- Node1&#45;&gt;Node30 -->
<g id="edge71_Node000001_Node000030" class="edge">
<title>Node1&#45;&gt;Node30</title>
<g id="a_edge71_Node000001_Node000030"><a xlink:title=" ">
<path fill="none" stroke="#63b8ff" d="M1285.96,-453.59C1325.16,-443.51 1385.83,-427.92 1424.42,-417.99"/>
<polygon fill="#63b8ff" stroke="#63b8ff" points="1424.89,-421.49 1433.7,-415.61 1423.15,-414.71 1424.89,-421.49"/>
</a>
</g>
</g>
<!-- Node31 -->
<g id="Node000031" class="node">
<title>Node31</title>
<g id="a_Node000031"><a xlink:title=" ">
<polygon fill="#e0e0e0" stroke="#999999" points="1557.25,-418 1504.5,-418 1504.5,-397.25 1557.25,-397.25 1557.25,-418"/>
<text xml:space="preserve" text-anchor="middle" x="1530.88" y="-404.5" font-family="Helvetica,sans-Serif" font-size="10.00">string.h</text>
</a>
</g>
</g>
<!-- Node1&#45;&gt;Node31 -->
<g id="edge72_Node000001_Node000031" class="edge">
<title>Node1&#45;&gt;Node31</title>
<g id="a_edge72_Node000001_Node000031"><a xlink:title=" ">
<path fill="none" stroke="#63b8ff" d="M1308.52,-453.51C1356.13,-445.47 1424.31,-433.33 1493.14,-418.25"/>
<polygon fill="#63b8ff" stroke="#63b8ff" points="1493.71,-421.71 1502.71,-416.13 1492.19,-414.88 1493.71,-421.71"/>
</a>
</g>
</g>
<!-- Node3 -->
<g id="Node000003" class="node">
<title>Node3</title>
<g id="a_Node000003"><a xlink:title=" ">
<polygon fill="#e0e0e0" stroke="#999999" points="1077.38,-247.75 1016.38,-247.75 1016.38,-227 1077.38,-227 1077.38,-247.75"/>
<text xml:space="preserve" text-anchor="middle" x="1046.88" y="-234.25" font-family="Helvetica,sans-Serif" font-size="10.00">stdbool.h</text>
</a>
</g>
</g>
<!-- Node2&#45;&gt;Node3 -->
<g id="edge2_Node000002_Node000003" class="edge">
<title>Node2&#45;&gt;Node3</title>
<g id="a_edge2_Node000002_Node000003"><a xlink:title=" ">
<path fill="none" stroke="#63b8ff" d="M930.26,-283.34C952.78,-274.66 985.9,-261.88 1011.1,-252.17"/>
<polygon fill="#63b8ff" stroke="#63b8ff" points="1012.22,-255.49 1020.3,-248.62 1009.71,-248.95 1012.22,-255.49"/>
</a>
</g>
</g>
<!-- Node4 -->
<g id="Node000004" class="node">
<title>Node4</title>
<g id="a_Node000004"><a xlink:title=" ">
<polygon fill="#e0e0e0" stroke="#999999" points="987.25,-77.5 934.5,-77.5 934.5,-56.75 987.25,-56.75 987.25,-77.5"/>
<text xml:space="preserve" text-anchor="middle" x="960.88" y="-64" font-family="Helvetica,sans-Serif" font-size="10.00">stdint.h</text>
</a>
</g>
</g>
<!-- Node2&#45;&gt;Node4 -->
<g id="edge3_Node000002_Node000004" class="edge">
<title>Node2&#45;&gt;Node4</title>
<g id="a_edge3_Node000002_Node000004"><a xlink:title=" ">
<path fill="none" stroke="#63b8ff" d="M906.52,-283.66C908.81,-270.79 913.2,-247.05 917.88,-227 929.57,-176.86 946.1,-118.6 954.87,-88.49"/>
<polygon fill="#63b8ff" stroke="#63b8ff" points="958.14,-89.77 957.59,-79.19 951.42,-87.8 958.14,-89.77"/>
</a>
</g>
</g>
<!-- Node5 -->
<g id="Node000005" class="node">
<title>Node5</title>
<g id="a_Node000005"><a xlink:title=" ">
<polygon fill="#e0e0e0" stroke="#999999" points="1239.62,-77.5 1168.12,-77.5 1168.12,-56.75 1239.62,-56.75 1239.62,-77.5"/>
<text xml:space="preserve" text-anchor="middle" x="1203.88" y="-64" font-family="Helvetica,sans-Serif" font-size="10.00">FreeRTOS.h</text>
</a>
</g>
</g>
<!-- Node2&#45;&gt;Node5 -->
<g id="edge4_Node000002_Node000005" class="edge">
<title>Node2&#45;&gt;Node5</title>
<g id="a_edge4_Node000002_Node000005"><a xlink:title=" ">
<path fill="none" stroke="#63b8ff" d="M920.02,-283.27C972.22,-249.26 1141.76,-138.74 1146.88,-134.25 1163.19,-119.93 1179.1,-100.94 1189.94,-86.98"/>
<polygon fill="#63b8ff" stroke="#63b8ff" points="1192.7,-89.13 1195.96,-79.05 1187.12,-84.9 1192.7,-89.13"/>
</a>
</g>
</g>
<!-- Node6 -->
<g id="Node000006" class="node">
<title>Node6</title>
<g id="a_Node000006"><a xlink:title=" ">
<polygon fill="#e0e0e0" stroke="#999999" points="716.38,-20.75 631.38,-20.75 631.38,0 716.38,0 716.38,-20.75"/>
<text xml:space="preserve" text-anchor="middle" x="673.88" y="-7.25" font-family="Helvetica,sans-Serif" font-size="10.00">fsl_common.h</text>
</a>
</g>
</g>
<!-- Node2&#45;&gt;Node6 -->
<g id="edge5_Node000002_Node000006" class="edge">
<title>Node2&#45;&gt;Node6</title>
<g id="a_edge5_Node000002_Node000006"><a xlink:title=" ">
<path fill="none" stroke="#63b8ff" d="M893.48,-283.34C873.88,-265.35 835.88,-224.88 835.88,-181.62 835.88,-181.62 835.88,-181.62 835.88,-122.88 835.88,-92.3 838.2,-78.67 816.88,-56.75 793.6,-32.83 757.8,-21.49 727.85,-16.12"/>
<polygon fill="#63b8ff" stroke="#63b8ff" points="728.61,-12.7 718.18,-14.59 727.51,-19.61 728.61,-12.7"/>
</a>
</g>
</g>
<!-- Node7 -->
<g id="Node000007" class="node">
<title>Node7</title>
<g id="a_Node000007"><a xlink:href="cmd__handle_8h.html" target="_top" xlink:title=" ">
<polygon fill="white" stroke="#666666" points="1138,-134.25 1053.75,-134.25 1053.75,-113.5 1138,-113.5 1138,-134.25"/>
<text xml:space="preserve" text-anchor="middle" x="1095.88" y="-120.75" font-family="Helvetica,sans-Serif" font-size="10.00">cmd_handle.h</text>
</a>
</g>
</g>
<!-- Node2&#45;&gt;Node7 -->
<g id="edge6_Node000002_Node000007" class="edge">
<title>Node2&#45;&gt;Node7</title>
<g id="a_edge6_Node000002_Node000007"><a xlink:title=" ">
<path fill="none" stroke="#63b8ff" d="M907.47,-283.64C911.61,-269.87 920.82,-244.15 935.88,-227 971.34,-186.61 1026.58,-156.22 1061.98,-139.5"/>
<polygon fill="#63b8ff" stroke="#63b8ff" points="1063.3,-142.74 1070.92,-135.38 1060.37,-136.39 1063.3,-142.74"/>
</a>
</g>
</g>
<!-- Node2&#45;&gt;Node10 -->
<g id="edge12_Node000002_Node000010" class="edge">
<title>Node2&#45;&gt;Node10</title>
<g id="a_edge12_Node000002_Node000010"><a xlink:title=" ">
<path fill="none" stroke="#63b8ff" d="M849.21,-285.11C775.98,-274.55 648.24,-256.15 576.88,-245.87"/>
<polygon fill="#63b8ff" stroke="#63b8ff" points="577.4,-242.41 567.01,-244.45 576.41,-249.34 577.4,-242.41"/>
</a>
</g>
</g>
<!-- Node7&#45;&gt;Node4 -->
<g id="edge7_Node000007_Node000004" class="edge">
<title>Node7&#45;&gt;Node4</title>
<g id="a_edge7_Node000007_Node000004"><a xlink:title=" ">
<path fill="none" stroke="#63b8ff" d="M1071.74,-113.09C1050.43,-104.44 1019.12,-91.75 995.21,-82.05"/>
<polygon fill="#63b8ff" stroke="#63b8ff" points="996.79,-78.91 986.2,-78.4 994.16,-85.4 996.79,-78.91"/>
</a>
</g>
</g>
<!-- Node7&#45;&gt;Node5 -->
<g id="edge8_Node000007_Node000005" class="edge">
<title>Node7&#45;&gt;Node5</title>
<g id="a_edge8_Node000007_Node000005"><a xlink:title=" ">
<path fill="none" stroke="#63b8ff" d="M1115.18,-113.09C1131.69,-104.72 1155.71,-92.54 1174.58,-82.97"/>
<polygon fill="#63b8ff" stroke="#63b8ff" points="1176.05,-86.16 1183.38,-78.51 1172.88,-79.91 1176.05,-86.16"/>
</a>
</g>
</g>
<!-- Node7&#45;&gt;Node6 -->
<g id="edge10_Node000007_Node000006" class="edge">
<title>Node7&#45;&gt;Node6</title>
<g id="a_edge10_Node000007_Node000006"><a xlink:title=" ">
<path fill="none" stroke="#63b8ff" d="M1096.19,-113.01C1096.08,-98.28 1093.48,-70.78 1076.88,-56.75 1050.76,-34.68 832.21,-19.98 728.33,-14.17"/>
<polygon fill="#63b8ff" stroke="#63b8ff" points="728.53,-10.67 718.35,-13.62 728.15,-17.66 728.53,-10.67"/>
</a>
</g>
</g>
<!-- Node8 -->
<g id="Node000008" class="node">
<title>Node8</title>
<g id="a_Node000008"><a xlink:title=" ">
<polygon fill="#e0e0e0" stroke="#999999" points="1401.38,-77.5 1310.38,-77.5 1310.38,-56.75 1401.38,-56.75 1401.38,-77.5"/>
<text xml:space="preserve" text-anchor="middle" x="1355.88" y="-64" font-family="Helvetica,sans-Serif" font-size="10.00">event_groups.h</text>
</a>
</g>
</g>
<!-- Node7&#45;&gt;Node8 -->
<g id="edge9_Node000007_Node000008" class="edge">
<title>Node7&#45;&gt;Node8</title>
<g id="a_edge9_Node000007_Node000008"><a xlink:title=" ">
<path fill="none" stroke="#63b8ff" d="M1138.23,-113.96C1181.92,-104.76 1250.34,-90.35 1298.79,-80.15"/>
<polygon fill="#63b8ff" stroke="#63b8ff" points="1299.49,-83.57 1308.56,-78.09 1298.05,-76.72 1299.49,-83.57"/>
</a>
</g>
</g>
<!-- Node9 -->
<g id="Node000009" class="node">
<title>Node9</title>
<g id="a_Node000009"><a xlink:title=" ">
<polygon fill="#e0e0e0" stroke="#999999" points="1067.88,-77.5 1015.88,-77.5 1015.88,-56.75 1067.88,-56.75 1067.88,-77.5"/>
<text xml:space="preserve" text-anchor="middle" x="1041.88" y="-64" font-family="Helvetica,sans-Serif" font-size="10.00">stdlib.h</text>
</a>
</g>
</g>
<!-- Node7&#45;&gt;Node9 -->
<g id="edge11_Node000007_Node000009" class="edge">
<title>Node7&#45;&gt;Node9</title>
<g id="a_edge11_Node000007_Node000009"><a xlink:title=" ">
<path fill="none" stroke="#63b8ff" d="M1086.22,-113.09C1078.77,-105.53 1068.27,-94.89 1059.35,-85.85"/>
<polygon fill="#63b8ff" stroke="#63b8ff" points="1062.02,-83.57 1052.51,-78.91 1057.04,-88.48 1062.02,-83.57"/>
</a>
</g>
</g>
<!-- Node11 -->
<g id="Node000011" class="node">
<title>Node11</title>
<g id="a_Node000011"><a xlink:href="pca9555a_8h.html" target="_top" xlink:title=" ">
<polygon fill="white" stroke="#666666" points="309.88,-77.5 155.88,-77.5 155.88,-56.75 309.88,-56.75 309.88,-77.5"/>
<text xml:space="preserve" text-anchor="middle" x="232.88" y="-64" font-family="Helvetica,sans-Serif" font-size="10.00">driver/pca9555a/pca9555a.h</text>
</a>
</g>
</g>
<!-- Node10&#45;&gt;Node11 -->
<g id="edge13_Node000010_Node000011" class="edge">
<title>Node10&#45;&gt;Node11</title>
<g id="a_edge13_Node000010_Node000011"><a xlink:title=" ">
<path fill="none" stroke="#63b8ff" d="M494.17,-226.51C448.92,-211.11 362.78,-178.48 298.88,-134.25 279.18,-120.62 260.25,-100.72 247.75,-86.31"/>
<polygon fill="#63b8ff" stroke="#63b8ff" points="250.63,-84.29 241.5,-78.91 245.28,-88.81 250.63,-84.29"/>
</a>
</g>
</g>
<!-- Node13 -->
<g id="Node000013" class="node">
<title>Node13</title>
<g id="a_Node000013"><a xlink:title=" ">
<polygon fill="#e0e0e0" stroke="#999999" points="100.25,-191 11.5,-191 11.5,-170.25 100.25,-170.25 100.25,-191"/>
<text xml:space="preserve" text-anchor="middle" x="55.88" y="-177.5" font-family="Helvetica,sans-Serif" font-size="10.00">MK22F51212.h</text>
</a>
</g>
</g>
<!-- Node10&#45;&gt;Node13 -->
<g id="edge16_Node000010_Node000013" class="edge">
<title>Node10&#45;&gt;Node13</title>
<g id="a_edge16_Node000010_Node000013"><a xlink:title=" ">
<path fill="none" stroke="#63b8ff" d="M484.25,-232.57C410.38,-225.51 249.21,-209.4 113.88,-191 113.2,-190.91 112.51,-190.81 111.83,-190.72"/>
<polygon fill="#63b8ff" stroke="#63b8ff" points="112.39,-187.26 101.99,-189.29 111.38,-194.19 112.39,-187.26"/>
</a>
</g>
</g>
<!-- Node14 -->
<g id="Node000014" class="node">
<title>Node14</title>
<g id="a_Node000014"><a xlink:href="step__core_8h.html" target="_top" xlink:title=" ">
<polygon fill="white" stroke="#666666" points="523,-191 450.75,-191 450.75,-170.25 523,-170.25 523,-191"/>
<text xml:space="preserve" text-anchor="middle" x="486.88" y="-177.5" font-family="Helvetica,sans-Serif" font-size="10.00">step_core.h</text>
</a>
</g>
</g>
<!-- Node10&#45;&gt;Node14 -->
<g id="edge17_Node000010_Node000014" class="edge">
<title>Node10&#45;&gt;Node14</title>
<g id="a_edge17_Node000010_Node000014"><a xlink:title=" ">
<path fill="none" stroke="#63b8ff" d="M518.08,-226.59C513.11,-219.42 506.21,-209.48 500.15,-200.76"/>
<polygon fill="#63b8ff" stroke="#63b8ff" points="503.05,-198.79 494.47,-192.57 497.3,-202.78 503.05,-198.79"/>
</a>
</g>
</g>
<!-- Node16 -->
<g id="Node000016" class="node">
<title>Node16</title>
<g id="a_Node000016"><a xlink:title=" ">
<polygon fill="#e0e0e0" stroke="#999999" points="138.25,-77.5 79.5,-77.5 79.5,-56.75 138.25,-56.75 138.25,-77.5"/>
<text xml:space="preserve" text-anchor="middle" x="108.88" y="-64" font-family="Helvetica,sans-Serif" font-size="10.00">fsl_ftm.h</text>
</a>
</g>
</g>
<!-- Node10&#45;&gt;Node16 -->
<g id="edge42_Node000010_Node000016" class="edge">
<title>Node10&#45;&gt;Node16</title>
<g id="a_edge42_Node000010_Node000016"><a xlink:title=" ">
<path fill="none" stroke="#63b8ff" d="M484.37,-227.68C450.11,-219.79 400.02,-206.95 357.88,-191 273.98,-159.24 180.49,-108.73 135.68,-83.51"/>
<polygon fill="#63b8ff" stroke="#63b8ff" points="137.61,-80.58 127.18,-78.7 134.16,-86.67 137.61,-80.58"/>
</a>
</g>
</g>
<!-- Node17 -->
<g id="Node000017" class="node">
<title>Node17</title>
<g id="a_Node000017"><a xlink:title=" ">
<polygon fill="#e0e0e0" stroke="#999999" points="569.5,-77.5 506.25,-77.5 506.25,-56.75 569.5,-56.75 569.5,-77.5"/>
<text xml:space="preserve" text-anchor="middle" x="537.88" y="-64" font-family="Helvetica,sans-Serif" font-size="10.00">fsl_gpio.h</text>
</a>
</g>
</g>
<!-- Node10&#45;&gt;Node17 -->
<g id="edge43_Node000010_Node000017" class="edge">
<title>Node10&#45;&gt;Node17</title>
<g id="a_edge43_Node000010_Node000017"><a xlink:title=" ">
<path fill="none" stroke="#63b8ff" d="M526.67,-226.68C528.3,-217.51 530.62,-203.37 531.88,-191 535.49,-155.34 536.94,-113.62 537.52,-89.12"/>
<polygon fill="#63b8ff" stroke="#63b8ff" points="541.01,-89.29 537.72,-79.22 534.01,-89.15 541.01,-89.29"/>
</a>
</g>
</g>
<!-- Node18 -->
<g id="Node000018" class="node">
<title>Node18</title>
<g id="a_Node000018"><a xlink:title=" ">
<polygon fill="#e0e0e0" stroke="#999999" points="61.75,-77.5 0,-77.5 0,-56.75 61.75,-56.75 61.75,-77.5"/>
<text xml:space="preserve" text-anchor="middle" x="30.88" y="-64" font-family="Helvetica,sans-Serif" font-size="10.00">fsl_port.h</text>
</a>
</g>
</g>
<!-- Node10&#45;&gt;Node18 -->
<g id="edge44_Node000010_Node000018" class="edge">
<title>Node10&#45;&gt;Node18</title>
<g id="a_edge44_Node000010_Node000018"><a xlink:title=" ">
<path fill="none" stroke="#63b8ff" d="M484.26,-230.79C439.4,-223.98 365.37,-210.88 303.88,-191 211,-160.97 107.48,-108.88 58.91,-83.25"/>
<polygon fill="#63b8ff" stroke="#63b8ff" points="60.67,-80.22 50.19,-78.62 57.38,-86.4 60.67,-80.22"/>
</a>
</g>
</g>
<!-- Node21 -->
<g id="Node000021" class="node">
<title>Node21</title>
<g id="a_Node000021"><a xlink:href="tmc2209__core_8h.html" target="_top" xlink:title=" ">
<polygon fill="white" stroke="#666666" points="760.88,-191 666.88,-191 666.88,-170.25 760.88,-170.25 760.88,-191"/>
<text xml:space="preserve" text-anchor="middle" x="713.88" y="-177.5" font-family="Helvetica,sans-Serif" font-size="10.00">tmc2209_core.h</text>
</a>
</g>
</g>
<!-- Node10&#45;&gt;Node21 -->
<g id="edge34_Node000010_Node000021" class="edge">
<title>Node10&#45;&gt;Node21</title>
<g id="a_edge34_Node000010_Node000021"><a xlink:title=" ">
<path fill="none" stroke="#63b8ff" d="M558.66,-226.59C589.48,-217.66 635.22,-204.41 669.07,-194.6"/>
<polygon fill="#63b8ff" stroke="#63b8ff" points="669.98,-197.99 678.61,-191.84 668.03,-191.26 669.98,-197.99"/>
</a>
</g>
</g>
<!-- Node11&#45;&gt;Node6 -->
<g id="edge14_Node000011_Node000006" class="edge">
<title>Node11&#45;&gt;Node6</title>
<g id="a_edge14_Node000011_Node000006"><a xlink:title=" ">
<path fill="none" stroke="#63b8ff" d="M310.2,-56.53C398.89,-45.51 542.05,-27.74 619.66,-18.11"/>
<polygon fill="#63b8ff" stroke="#63b8ff" points="620.08,-21.58 629.57,-16.88 619.22,-14.63 620.08,-21.58"/>
</a>
</g>
</g>
<!-- Node12 -->
<g id="Node000012" class="node">
<title>Node12</title>
<g id="a_Node000012"><a xlink:title=" ">
<polygon fill="#e0e0e0" stroke="#999999" points="443.75,-20.75 364,-20.75 364,0 443.75,0 443.75,-20.75"/>
<text xml:space="preserve" text-anchor="middle" x="403.88" y="-7.25" font-family="Helvetica,sans-Serif" font-size="10.00">peripherals.h</text>
</a>
</g>
</g>
<!-- Node11&#45;&gt;Node12 -->
<g id="edge15_Node000011_Node000012" class="edge">
<title>Node11&#45;&gt;Node12</title>
<g id="a_edge15_Node000011_Node000012"><a xlink:title=" ">
<path fill="none" stroke="#63b8ff" d="M263.45,-56.34C291.08,-47.49 331.99,-34.39 362.54,-24.61"/>
<polygon fill="#63b8ff" stroke="#63b8ff" points="363.38,-28.01 371.84,-21.63 361.25,-21.35 363.38,-28.01"/>
</a>
</g>
</g>
<!-- Node14&#45;&gt;Node5 -->
<g id="edge19_Node000014_Node000005" class="edge">
<title>Node14&#45;&gt;Node5</title>
<g id="a_edge19_Node000014_Node000005"><a xlink:title=" ">
<path fill="none" stroke="#63b8ff" d="M523.07,-175.04C583.85,-167.25 710.28,-150.68 816.88,-134.25 939.65,-115.33 1083.75,-89.83 1156.59,-76.72"/>
<polygon fill="#63b8ff" stroke="#63b8ff" points="1156.95,-80.21 1166.17,-74.99 1155.71,-73.32 1156.95,-80.21"/>
</a>
</g>
</g>
<!-- Node14&#45;&gt;Node6 -->
<g id="edge21_Node000014_Node000006" class="edge">
<title>Node14&#45;&gt;Node6</title>
<g id="a_edge21_Node000014_Node000006"><a xlink:title=" ">
<path fill="none" stroke="#63b8ff" d="M497.74,-169.85C528.33,-142.32 615.55,-63.86 654.58,-28.74"/>
<polygon fill="#63b8ff" stroke="#63b8ff" points="656.76,-31.48 661.86,-22.19 652.08,-26.27 656.76,-31.48"/>
</a>
</g>
</g>
<!-- Node14&#45;&gt;Node7 -->
<g id="edge25_Node000014_Node000007" class="edge">
<title>Node14&#45;&gt;Node7</title>
<g id="a_edge25_Node000014_Node000007"><a xlink:title=" ">
<path fill="none" stroke="#63b8ff" d="M523.15,-176.36C626.09,-167.11 920.49,-140.64 1042.21,-129.7"/>
<polygon fill="#63b8ff" stroke="#63b8ff" points="1042.28,-133.21 1051.93,-128.83 1041.66,-126.24 1042.28,-133.21"/>
</a>
</g>
</g>
<!-- Node14&#45;&gt;Node11 -->
<g id="edge18_Node000014_Node000011" class="edge">
<title>Node14&#45;&gt;Node11</title>
<g id="a_edge18_Node000014_Node000011"><a xlink:title=" ">
<path fill="none" stroke="#63b8ff" d="M468.04,-169.79C450.59,-160.65 423.93,-146.63 400.88,-134.25 383.92,-125.15 380.46,-121.31 362.88,-113.5 334.8,-101.04 302.16,-89.65 276.61,-81.41"/>
<polygon fill="#63b8ff" stroke="#63b8ff" points="277.8,-78.11 267.21,-78.42 275.68,-84.78 277.8,-78.11"/>
</a>
</g>
</g>
<!-- Node15 -->
<g id="Node000015" class="node">
<title>Node15</title>
<g id="a_Node000015"><a xlink:title=" ">
<polygon fill="#e0e0e0" stroke="#999999" points="353.88,-134.25 307.88,-134.25 307.88,-113.5 353.88,-113.5 353.88,-134.25"/>
<text xml:space="preserve" text-anchor="middle" x="330.88" y="-120.75" font-family="Helvetica,sans-Serif" font-size="10.00">task.h</text>
</a>
</g>
</g>
<!-- Node14&#45;&gt;Node15 -->
<g id="edge20_Node000014_Node000015" class="edge">
<title>Node14&#45;&gt;Node15</title>
<g id="a_edge20_Node000014_Node000015"><a xlink:title=" ">
<path fill="none" stroke="#63b8ff" d="M458.99,-169.84C432.53,-160.55 392.72,-146.58 364.52,-136.68"/>
<polygon fill="#63b8ff" stroke="#63b8ff" points="365.98,-133.49 355.38,-133.48 363.66,-140.09 365.98,-133.49"/>
</a>
</g>
</g>
<!-- Node14&#45;&gt;Node16 -->
<g id="edge22_Node000014_Node000016" class="edge">
<title>Node14&#45;&gt;Node16</title>
<g id="a_edge22_Node000014_Node000016"><a xlink:title=" ">
<path fill="none" stroke="#63b8ff" d="M450.56,-171.97C412.48,-163.68 351.06,-149.59 298.88,-134.25 244.59,-118.29 182.92,-96.05 144.95,-81.87"/>
<polygon fill="#63b8ff" stroke="#63b8ff" points="146.44,-78.69 135.85,-78.45 143.98,-85.24 146.44,-78.69"/>
</a>
</g>
</g>
<!-- Node14&#45;&gt;Node17 -->
<g id="edge23_Node000014_Node000017" class="edge">
<title>Node14&#45;&gt;Node17</title>
<g id="a_edge23_Node000014_Node000017"><a xlink:title=" ">
<path fill="none" stroke="#63b8ff" d="M491.22,-170.12C499.5,-152.02 517.68,-112.28 528.74,-88.1"/>
<polygon fill="#63b8ff" stroke="#63b8ff" points="531.79,-89.85 532.76,-79.3 525.42,-86.94 531.79,-89.85"/>
</a>
</g>
</g>
<!-- Node14&#45;&gt;Node18 -->
<g id="edge24_Node000014_Node000018" class="edge">
<title>Node14&#45;&gt;Node18</title>
<g id="a_edge24_Node000014_Node000018"><a xlink:title=" ">
<path fill="none" stroke="#63b8ff" d="M450.64,-174.83C400.89,-167.87 308.83,-153.65 231.88,-134.25 173.55,-119.55 107.62,-96.6 67.66,-81.97"/>
<polygon fill="#63b8ff" stroke="#63b8ff" points="68.88,-78.69 58.29,-78.52 66.46,-85.26 68.88,-78.69"/>
</a>
</g>
</g>
<!-- Node19 -->
<g id="Node000019" class="node">
<title>Node19</title>
<g id="a_Node000019"><a xlink:href="step__shared_8h.html" target="_top" xlink:title=" ">
<polygon fill="white" stroke="#666666" points="494,-134.25 409.75,-134.25 409.75,-113.5 494,-113.5 494,-134.25"/>
<text xml:space="preserve" text-anchor="middle" x="451.88" y="-120.75" font-family="Helvetica,sans-Serif" font-size="10.00">step_shared.h</text>
</a>
</g>
</g>
<!-- Node14&#45;&gt;Node19 -->
<g id="edge26_Node000014_Node000019" class="edge">
<title>Node14&#45;&gt;Node19</title>
<g id="a_edge26_Node000014_Node000019"><a xlink:title=" ">
<path fill="none" stroke="#63b8ff" d="M480.62,-169.84C476.04,-162.67 469.68,-152.73 464.11,-144.01"/>
<polygon fill="#63b8ff" stroke="#63b8ff" points="467.23,-142.39 458.89,-135.85 461.33,-146.16 467.23,-142.39"/>
</a>
</g>
</g>
<!-- Node19&#45;&gt;Node4 -->
<g id="edge27_Node000019_Node000004" class="edge">
<title>Node19&#45;&gt;Node4</title>
<g id="a_edge27_Node000019_Node000004"><a xlink:title=" ">
<path fill="none" stroke="#63b8ff" d="M494.4,-118.3C591.79,-107.82 829.79,-82.23 922.77,-72.22"/>
<polygon fill="#63b8ff" stroke="#63b8ff" points="923.06,-75.71 932.63,-71.16 922.31,-68.75 923.06,-75.71"/>
</a>
</g>
</g>
<!-- Node19&#45;&gt;Node6 -->
<g id="edge30_Node000019_Node000006" class="edge">
<title>Node19&#45;&gt;Node6</title>
<g id="a_edge30_Node000019_Node000006"><a xlink:title=" ">
<path fill="none" stroke="#63b8ff" d="M455.8,-113.13C462.17,-98.57 476.19,-71.27 496.88,-56.75 533.11,-31.31 582.44,-20.12 619.82,-15.21"/>
<polygon fill="#63b8ff" stroke="#63b8ff" points="619.99,-18.71 629.51,-14.06 619.16,-11.76 619.99,-18.71"/>
</a>
</g>
</g>
<!-- Node19&#45;&gt;Node11 -->
<g id="edge28_Node000019_Node000011" class="edge">
<title>Node19&#45;&gt;Node11</title>
<g id="a_edge28_Node000019_Node000011"><a xlink:title=" ">
<path fill="none" stroke="#63b8ff" d="M412.47,-113.02C376.3,-103.98 322.53,-90.54 283.25,-80.72"/>
<polygon fill="#63b8ff" stroke="#63b8ff" points="284.35,-77.39 273.8,-78.36 282.65,-84.18 284.35,-77.39"/>
</a>
</g>
</g>
<!-- Node19&#45;&gt;Node16 -->
<g id="edge31_Node000019_Node000016" class="edge">
<title>Node19&#45;&gt;Node16</title>
<g id="a_edge31_Node000019_Node000016"><a xlink:title=" ">
<path fill="none" stroke="#63b8ff" d="M409.47,-117.85C352.5,-110.82 247.88,-96.92 149.7,-77.92"/>
<polygon fill="#63b8ff" stroke="#63b8ff" points="150.66,-74.54 140.17,-76.05 149.31,-81.41 150.66,-74.54"/>
</a>
</g>
</g>
<!-- Node19&#45;&gt;Node17 -->
<g id="edge32_Node000019_Node000017" class="edge">
<title>Node19&#45;&gt;Node17</title>
<g id="a_edge32_Node000019_Node000017"><a xlink:title=" ">
<path fill="none" stroke="#63b8ff" d="M467.25,-113.09C479.97,-104.99 498.28,-93.33 513.07,-83.92"/>
<polygon fill="#63b8ff" stroke="#63b8ff" points="514.8,-86.96 521.36,-78.64 511.04,-81.06 514.8,-86.96"/>
</a>
</g>
</g>
<!-- Node19&#45;&gt;Node18 -->
<g id="edge33_Node000019_Node000018" class="edge">
<title>Node19&#45;&gt;Node18</title>
<g id="a_edge33_Node000019_Node000018"><a xlink:title=" ">
<path fill="none" stroke="#63b8ff" d="M409.49,-118.43C328.34,-109.83 152.67,-90.73 73.25,-77.7"/>
<polygon fill="#63b8ff" stroke="#63b8ff" points="74.19,-74.31 63.74,-76.08 73.01,-81.21 74.19,-74.31"/>
</a>
</g>
</g>
<!-- Node20 -->
<g id="Node000020" class="node">
<title>Node20</title>
<g id="a_Node000020"><a xlink:title=" ">
<polygon fill="#e0e0e0" stroke="#999999" points="450.12,-77.5 327.62,-77.5 327.62,-56.75 450.12,-56.75 450.12,-77.5"/>
<text xml:space="preserve" text-anchor="middle" x="388.88" y="-64" font-family="Helvetica,sans-Serif" font-size="10.00">fsl_device_registers.h</text>
</a>
</g>
</g>
<!-- Node19&#45;&gt;Node20 -->
<g id="edge29_Node000019_Node000020" class="edge">
<title>Node19&#45;&gt;Node20</title>
<g id="a_edge29_Node000019_Node000020"><a xlink:title=" ">
<path fill="none" stroke="#63b8ff" d="M440.61,-113.09C431.74,-105.38 419.16,-94.45 408.63,-85.29"/>
<polygon fill="#63b8ff" stroke="#63b8ff" points="411.03,-82.74 401.18,-78.82 406.44,-88.02 411.03,-82.74"/>
</a>
</g>
</g>
<!-- Node21&#45;&gt;Node4 -->
<g id="edge35_Node000021_Node000004" class="edge">
<title>Node21&#45;&gt;Node4</title>
<g id="a_edge35_Node000021_Node000004"><a xlink:title=" ">
<path fill="none" stroke="#63b8ff" d="M736.42,-169.81C757.32,-160.69 789.25,-146.68 816.88,-134.25 855.81,-116.74 900.45,-96.16 929.58,-82.67"/>
<polygon fill="#63b8ff" stroke="#63b8ff" points="930.96,-85.88 938.56,-78.5 928.02,-79.53 930.96,-85.88"/>
</a>
</g>
</g>
<!-- Node21&#45;&gt;Node6 -->
<g id="edge39_Node000021_Node000006" class="edge">
<title>Node21&#45;&gt;Node6</title>
<g id="a_edge39_Node000021_Node000006"><a xlink:title=" ">
<path fill="none" stroke="#63b8ff" d="M708.37,-169.85C703.56,-160.87 696.74,-147.05 692.88,-134.25 682.35,-99.41 677.45,-57.16 675.33,-32.38"/>
<polygon fill="#63b8ff" stroke="#63b8ff" points="678.83,-32.35 674.57,-22.65 671.85,-32.89 678.83,-32.35"/>
</a>
</g>
</g>
<!-- Node21&#45;&gt;Node7 -->
<g id="edge40_Node000021_Node000007" class="edge">
<title>Node21&#45;&gt;Node7</title>
<g id="a_edge40_Node000021_Node000007"><a xlink:title=" ">
<path fill="none" stroke="#63b8ff" d="M761.1,-172.86C832.49,-162.62 967.49,-143.28 1042.4,-132.54"/>
<polygon fill="#63b8ff" stroke="#63b8ff" points="1042.55,-136.05 1051.95,-131.17 1041.55,-129.12 1042.55,-136.05"/>
</a>
</g>
</g>
<!-- Node21&#45;&gt;Node12 -->
<g id="edge41_Node000021_Node000012" class="edge">
<title>Node21&#45;&gt;Node12</title>
<g id="a_edge41_Node000021_Node000012"><a xlink:title=" ">
<path fill="none" stroke="#63b8ff" d="M706.19,-169.94C687.19,-146.69 635.46,-87.37 578.88,-56.75 540.27,-35.86 491.61,-24.25 455.41,-18.02"/>
<polygon fill="#63b8ff" stroke="#63b8ff" points="456.05,-14.58 445.61,-16.42 454.92,-21.48 456.05,-14.58"/>
</a>
</g>
</g>
<!-- Node22 -->
<g id="Node000022" class="node">
<title>Node22</title>
<g id="a_Node000022"><a xlink:href="tmc2209__shared_8h.html" target="_top" xlink:title=" ">
<polygon fill="white" stroke="#666666" points="807.88,-134.25 701.88,-134.25 701.88,-113.5 807.88,-113.5 807.88,-134.25"/>
<text xml:space="preserve" text-anchor="middle" x="754.88" y="-120.75" font-family="Helvetica,sans-Serif" font-size="10.00">tmc2209_shared.h</text>
</a>
</g>
</g>
<!-- Node21&#45;&gt;Node22 -->
<g id="edge36_Node000021_Node000022" class="edge">
<title>Node21&#45;&gt;Node22</title>
<g id="a_edge36_Node000021_Node000022"><a xlink:title=" ">
<path fill="none" stroke="#63b8ff" d="M721.2,-169.84C726.63,-162.6 734.18,-152.51 740.76,-143.72"/>
<polygon fill="#63b8ff" stroke="#63b8ff" points="743.51,-145.89 746.7,-135.79 737.91,-141.7 743.51,-145.89"/>
</a>
</g>
</g>
<!-- Node22&#45;&gt;Node4 -->
<g id="edge37_Node000022_Node000004" class="edge">
<title>Node22&#45;&gt;Node4</title>
<g id="a_edge37_Node000022_Node000004"><a xlink:title=" ">
<path fill="none" stroke="#63b8ff" d="M791.7,-113.09C828.83,-103.22 885.85,-88.06 923.26,-78.12"/>
<polygon fill="#63b8ff" stroke="#63b8ff" points="923.96,-81.56 932.73,-75.61 922.17,-74.79 923.96,-81.56"/>
</a>
</g>
</g>
<!-- Node23 -->
<g id="Node000023" class="node">
<title>Node23</title>
<g id="a_Node000023"><a xlink:title=" ">
<polygon fill="#e0e0e0" stroke="#999999" points="807.5,-77.5 702.25,-77.5 702.25,-56.75 807.5,-56.75 807.5,-77.5"/>
<text xml:space="preserve" text-anchor="middle" x="754.88" y="-64" font-family="Helvetica,sans-Serif" font-size="10.00">fsl_uart_freertos.h</text>
</a>
</g>
</g>
<!-- Node22&#45;&gt;Node23 -->
<g id="edge38_Node000022_Node000023" class="edge">
<title>Node22&#45;&gt;Node23</title>
<g id="a_edge38_Node000022_Node000023"><a xlink:title=" ">
<path fill="none" stroke="#63b8ff" d="M754.88,-113.09C754.88,-106.47 754.88,-97.47 754.88,-89.27"/>
<polygon fill="#63b8ff" stroke="#63b8ff" points="758.38,-89.34 754.88,-79.34 751.38,-89.34 758.38,-89.34"/>
</a>
</g>
</g>
<!-- Node24&#45;&gt;Node2 -->
<g id="edge51_Node000024_Node000002" class="edge">
<title>Node24&#45;&gt;Node2</title>
<g id="a_edge51_Node000024_Node000002"><a xlink:title=" ">
<path fill="none" stroke="#63b8ff" d="M1222.24,-340.02C1151.22,-329.98 1041.81,-314.5 971.79,-304.59"/>
<polygon fill="#63b8ff" stroke="#63b8ff" points="972.37,-301.14 961.98,-303.2 971.39,-308.07 972.37,-301.14"/>
</a>
</g>
</g>
<!-- Node24&#45;&gt;Node3 -->
<g id="edge46_Node000024_Node000003" class="edge">
<title>Node24&#45;&gt;Node3</title>
<g id="a_edge46_Node000024_Node000003"><a xlink:title=" ">
<path fill="none" stroke="#63b8ff" d="M1218.49,-340.02C1168.22,-332.1 1106.96,-319.79 1085.88,-304.5 1070.38,-293.26 1060,-273.83 1053.87,-258.92"/>
<polygon fill="#63b8ff" stroke="#63b8ff" points="1057.16,-257.74 1050.38,-249.6 1050.61,-260.2 1057.16,-257.74"/>
</a>
</g>
</g>
<!-- Node24&#45;&gt;Node4 -->
<g id="edge47_Node000024_Node000004" class="edge">
<title>Node24&#45;&gt;Node4</title>
<g id="a_edge47_Node000024_Node000004"><a xlink:title=" ">
<path fill="none" stroke="#63b8ff" d="M1222.08,-340.01C1165.64,-331.3 1091.23,-317.92 1063.88,-304.5 1023.68,-284.77 987.88,-283.15 987.88,-238.38 987.88,-238.38 987.88,-238.38 987.88,-179.62 987.88,-147.02 976.84,-110.53 968.88,-88.45"/>
<polygon fill="#63b8ff" stroke="#63b8ff" points="972.19,-87.32 965.39,-79.19 965.64,-89.79 972.19,-87.32"/>
</a>
</g>
</g>
<!-- Node24&#45;&gt;Node5 -->
<g id="edge48_Node000024_Node000005" class="edge">
<title>Node24&#45;&gt;Node5</title>
<g id="a_edge48_Node000024_Node000005"><a xlink:title=" ">
<path fill="none" stroke="#63b8ff" d="M1296.44,-340.04C1300.36,-331.02 1305.71,-317.18 1307.88,-304.5 1309.43,-295.41 1308.99,-292.9 1307.88,-283.75 1303.92,-251.23 1271.89,-125.45 1263.88,-113.5 1255.88,-101.59 1243.71,-91.55 1232.41,-83.96"/>
<polygon fill="#63b8ff" stroke="#63b8ff" points="1234.44,-81.1 1224.11,-78.75 1230.71,-87.03 1234.44,-81.1"/>
</a>
</g>
</g>
<!-- Node24&#45;&gt;Node7 -->
<g id="edge50_Node000024_Node000007" class="edge">
<title>Node24&#45;&gt;Node7</title>
<g id="a_edge50_Node000024_Node000007"><a xlink:title=" ">
<path fill="none" stroke="#63b8ff" d="M1293.22,-340.26C1295.78,-318.15 1299.13,-262.85 1274.88,-227 1243.58,-180.76 1183.93,-152.94 1142.11,-138.27"/>
<polygon fill="#63b8ff" stroke="#63b8ff" points="1143.39,-135.01 1132.8,-135.14 1141.16,-141.65 1143.39,-135.01"/>
</a>
</g>
</g>
<!-- Node25 -->
<g id="Node000025" class="node">
<title>Node25</title>
<g id="a_Node000025"><a xlink:title=" ">
<polygon fill="#e0e0e0" stroke="#999999" points="1265.38,-247.75 1210.38,-247.75 1210.38,-227 1265.38,-227 1265.38,-247.75"/>
<text xml:space="preserve" text-anchor="middle" x="1237.88" y="-234.25" font-family="Helvetica,sans-Serif" font-size="10.00">queue.h</text>
</a>
</g>
</g>
<!-- Node24&#45;&gt;Node25 -->
<g id="edge49_Node000024_Node000025" class="edge">
<title>Node24&#45;&gt;Node25</title>
<g id="a_edge49_Node000024_Node000025"><a xlink:title=" ">
<path fill="none" stroke="#63b8ff" d="M1287.27,-340.37C1278.51,-322.27 1259.26,-282.53 1247.55,-258.35"/>
<polygon fill="#63b8ff" stroke="#63b8ff" points="1250.79,-257.01 1243.28,-249.54 1244.49,-260.06 1250.79,-257.01"/>
</a>
</g>
</g>
<!-- Node26&#45;&gt;Node24 -->
<g id="edge53_Node000026_Node000024" class="edge">
<title>Node26&#45;&gt;Node24</title>
<g id="a_edge53_Node000026_Node000024"><a xlink:title=" ">
<path fill="none" stroke="#63b8ff" d="M1299.27,-396.84C1298.17,-390.14 1296.66,-381.01 1295.3,-372.73"/>
<polygon fill="#63b8ff" stroke="#63b8ff" points="1298.79,-372.37 1293.72,-363.07 1291.88,-373.51 1298.79,-372.37"/>
</a>
</g>
</g>
<!-- Node27&#45;&gt;Node5 -->
<g id="edge63_Node000027_Node000005" class="edge">
<title>Node27&#45;&gt;Node5</title>
<g id="a_edge63_Node000027_Node000005"><a xlink:title=" ">
<path fill="none" stroke="#63b8ff" d="M1168.08,-340.08C1198.71,-325.19 1252.67,-293.65 1274.88,-247.75 1302.77,-190.08 1249.49,-118.45 1220.66,-85.81"/>
<polygon fill="#63b8ff" stroke="#63b8ff" points="1223.6,-83.85 1214.28,-78.81 1218.42,-88.56 1223.6,-83.85"/>
</a>
</g>
</g>
<!-- Node27&#45;&gt;Node13 -->
<g id="edge64_Node000027_Node000013" class="edge">
<title>Node27&#45;&gt;Node13</title>
<g id="a_edge64_Node000027_Node000013"><a xlink:title=" ">
<path fill="none" stroke="#63b8ff" d="M1097.26,-342.74C1037.06,-333.89 931.38,-318.27 840.88,-304.5 567.18,-262.86 240.16,-210.99 111.64,-190.52"/>
<polygon fill="#63b8ff" stroke="#63b8ff" points="112.47,-187.11 102.05,-188.99 111.37,-194.02 112.47,-187.11"/>
</a>
</g>
</g>
<!-- Node28 -->
<g id="Node000028" class="node">
<title>Node28</title>
<g id="a_Node000028"><a xlink:href="motor__internal_8h.html" target="_top" xlink:title=" ">
<polygon fill="white" stroke="#666666" points="1192.38,-304.5 1095.38,-304.5 1095.38,-283.75 1192.38,-283.75 1192.38,-304.5"/>
<text xml:space="preserve" text-anchor="middle" x="1143.88" y="-291" font-family="Helvetica,sans-Serif" font-size="10.00">motor_internal.h</text>
</a>
</g>
</g>
<!-- Node27&#45;&gt;Node28 -->
<g id="edge56_Node000027_Node000028" class="edge">
<title>Node27&#45;&gt;Node28</title>
<g id="a_edge56_Node000027_Node000028"><a xlink:title=" ">
<path fill="none" stroke="#63b8ff" d="M1145.52,-340.09C1145.28,-333.47 1144.95,-324.47 1144.65,-316.27"/>
<polygon fill="#63b8ff" stroke="#63b8ff" points="1148.15,-316.21 1144.28,-306.34 1141.15,-316.46 1148.15,-316.21"/>
</a>
</g>
</g>
<!-- Node28&#45;&gt;Node3 -->
<g id="edge58_Node000028_Node000003" class="edge">
<title>Node28&#45;&gt;Node3</title>
<g id="a_edge58_Node000028_Node000003"><a xlink:title=" ">
<path fill="none" stroke="#63b8ff" d="M1126.53,-283.34C1111.91,-275.08 1090.74,-263.13 1073.9,-253.63"/>
<polygon fill="#63b8ff" stroke="#63b8ff" points="1075.81,-250.69 1065.38,-248.82 1072.37,-256.79 1075.81,-250.69"/>
</a>
</g>
</g>
<!-- Node28&#45;&gt;Node4 -->
<g id="edge57_Node000028_Node000004" class="edge">
<title>Node28&#45;&gt;Node4</title>
<g id="a_edge57_Node000028_Node000004"><a xlink:title=" ">
<path fill="none" stroke="#63b8ff" d="M1136.7,-283.6C1116.22,-256.52 1055.52,-176.95 1001.88,-113.5 994.11,-104.31 985.18,-94.36 977.64,-86.13"/>
<polygon fill="#63b8ff" stroke="#63b8ff" points="980.24,-83.79 970.89,-78.81 975.1,-88.53 980.24,-83.79"/>
</a>
</g>
</g>
<!-- Node28&#45;&gt;Node5 -->
<g id="edge60_Node000028_Node000005" class="edge">
<title>Node28&#45;&gt;Node5</title>
<g id="a_edge60_Node000028_Node000005"><a xlink:title=" ">
<path fill="none" stroke="#63b8ff" d="M1147.83,-283.42C1155.04,-265.44 1170.44,-225.64 1179.88,-191 1189.51,-155.64 1196.86,-113.56 1200.76,-88.94"/>
<polygon fill="#63b8ff" stroke="#63b8ff" points="1204.18,-89.71 1202.25,-79.29 1197.27,-88.64 1204.18,-89.71"/>
</a>
</g>
</g>
<!-- Node28&#45;&gt;Node7 -->
<g id="edge62_Node000028_Node000007" class="edge">
<title>Node28&#45;&gt;Node7</title>
<g id="a_edge62_Node000028_Node000007"><a xlink:title=" ">
<path fill="none" stroke="#63b8ff" d="M1141.16,-283.6C1133.6,-257.12 1112.22,-182.18 1101.77,-145.55"/>
<polygon fill="#63b8ff" stroke="#63b8ff" points="1105.21,-144.83 1099.1,-136.17 1098.48,-146.75 1105.21,-144.83"/>
</a>
</g>
</g>
<!-- Node28&#45;&gt;Node10 -->
<g id="edge59_Node000028_Node000010" class="edge">
<title>Node28&#45;&gt;Node10</title>
<g id="a_edge59_Node000028_Node000010"><a xlink:title=" ">
<path fill="none" stroke="#63b8ff" d="M1095.04,-288.81C980.25,-278.65 694.08,-253.34 576.53,-242.94"/>
<polygon fill="#63b8ff" stroke="#63b8ff" points="577.14,-239.48 566.87,-242.09 576.52,-246.46 577.14,-239.48"/>
</a>
</g>
</g>
<!-- Node28&#45;&gt;Node25 -->
<g id="edge61_Node000028_Node000025" class="edge">
<title>Node28&#45;&gt;Node25</title>
<g id="a_edge61_Node000028_Node000025"><a xlink:title=" ">
<path fill="none" stroke="#63b8ff" d="M1160.68,-283.34C1174.85,-275.08 1195.37,-263.13 1211.69,-253.63"/>
<polygon fill="#63b8ff" stroke="#63b8ff" points="1213.03,-256.9 1219.91,-248.84 1209.5,-250.85 1213.03,-256.9"/>
</a>
</g>
</g>
<!-- Node29&#45;&gt;Node4 -->
<g id="edge66_Node000029_Node000004" class="edge">
<title>Node29&#45;&gt;Node4</title>
<g id="a_edge66_Node000029_Node000004"><a xlink:title=" ">
<path fill="none" stroke="#63b8ff" d="M1397.68,-170.88C1309.33,-150.09 1087.62,-97.94 998.67,-77.02"/>
<polygon fill="#63b8ff" stroke="#63b8ff" points="999.52,-73.62 988.99,-74.74 997.92,-80.43 999.52,-73.62"/>
</a>
</g>
</g>
<!-- Node29&#45;&gt;Node5 -->
<g id="edge67_Node000029_Node000005" class="edge">
<title>Node29&#45;&gt;Node5</title>
<g id="a_edge67_Node000029_Node000005"><a xlink:title=" ">
<path fill="none" stroke="#63b8ff" d="M1430.09,-169.87C1422.41,-155.29 1405.94,-127.97 1383.88,-113.5 1343.82,-87.24 1289.6,-76.17 1251.17,-71.51"/>
<polygon fill="#63b8ff" stroke="#63b8ff" points="1251.61,-68.04 1241.29,-70.43 1250.85,-75 1251.61,-68.04"/>
</a>
</g>
</g>
<!-- Node29&#45;&gt;Node6 -->
<g id="edge69_Node000029_Node000006" class="edge">
<title>Node29&#45;&gt;Node6</title>
<g id="a_edge69_Node000029_Node000006"><a xlink:title=" ">
<path fill="none" stroke="#63b8ff" d="M1436.26,-169.91C1437.49,-160.74 1439.2,-146.59 1439.88,-134.25 1441.89,-97.53 1441.64,-76.9 1410.88,-56.75 1354.22,-19.64 888.84,-12.88 728.17,-11.65"/>
<polygon fill="#63b8ff" stroke="#63b8ff" points="728.23,-8.15 718.21,-11.58 728.18,-15.15 728.23,-8.15"/>
</a>
</g>
</g>
<!-- Node29&#45;&gt;Node7 -->
<g id="edge70_Node000029_Node000007" class="edge">
<title>Node29&#45;&gt;Node7</title>
<g id="a_edge70_Node000029_Node000007"><a xlink:title=" ">
<path fill="none" stroke="#63b8ff" d="M1397.63,-173.61C1337.51,-163.9 1218.83,-144.73 1149.58,-133.55"/>
<polygon fill="#63b8ff" stroke="#63b8ff" points="1150.41,-130.14 1139.98,-132 1149.3,-137.05 1150.41,-130.14"/>
</a>
</g>
</g>
<!-- Node29&#45;&gt;Node8 -->
<g id="edge68_Node000029_Node000008" class="edge">
<title>Node29&#45;&gt;Node8</title>
<g id="a_edge68_Node000029_Node000008"><a xlink:title=" ">
<path fill="none" stroke="#63b8ff" d="M1435.17,-169.8C1435.13,-156.07 1433.31,-130.9 1421.88,-113.5 1413.64,-100.97 1400.64,-90.95 1388.34,-83.54"/>
<polygon fill="#63b8ff" stroke="#63b8ff" points="1390.06,-80.49 1379.62,-78.67 1386.65,-86.6 1390.06,-80.49"/>
</a>
</g>
</g>
</g>
</svg>
