<?xml version="1.0" encoding="UTF-8" standalone="no"?>
<!DOCTYPE svg PUBLIC "-//W3C//DTD SVG 1.1//EN"
 "http://www.w3.org/Graphics/SVG/1.1/DTD/svg11.dtd">
<!-- Generated by graphviz version 14.1.5 (0)
 -->
<!-- Title: source/motion/scara_kinematics/scara_kinematics_internal.h Pages: 1 -->
<svg width="370pt" height="219pt"
 viewBox="0.00 0.00 370.00 219.00" xmlns="http://www.w3.org/2000/svg" xmlns:xlink="http://www.w3.org/1999/xlink">
<g id="graph0" class="graph" transform="scale(1 1) rotate(0) translate(4 214.75)">
<title>source/motion/scara_kinematics/scara_kinematics_internal.h</title>
<!-- Node1 -->
<g id="Node000001" class="node">
<title>Node1</title>
<g id="a_Node000001"><a xlink:title=" ">
<polygon fill="#999999" stroke="#666666" points="260.88,-210.75 97.12,-210.75 97.12,-164.5 260.88,-164.5 260.88,-210.75"/>
<text xml:space="preserve" text-anchor="start" x="105.12" y="-197.25" font-family="Helvetica,sans-Serif" font-size="10.00">source/motion/scara</text>
<text xml:space="preserve" text-anchor="start" x="105.12" y="-184.5" font-family="Helvetica,sans-Serif" font-size="10.00">_kinematics/scara_kinematics</text>
<text xml:space="preserve" text-anchor="middle" x="179" y="-171.75" font-family="Helvetica,sans-Serif" font-size="10.00">_internal.h</text>
</a>
</g>
</g>
<!-- Node2 -->
<g id="Node000002" class="node">
<title>Node2</title>
<g id="a_Node000002"><a xlink:href="scara__kinematics_8c.html" target="_top" xlink:title=" ">
<polygon fill="white" stroke="#666666" points="172,-39.88 0,-39.88 0,-6.38 172,-6.38 172,-39.88"/>
<text xml:space="preserve" text-anchor="start" x="8" y="-26.38" font-family="Helvetica,sans-Serif" font-size="10.00">source/motion/scara</text>
<text xml:space="preserve" text-anchor="middle" x="86" y="-13.62" font-family="Helvetica,sans-Serif" font-size="10.00">_kinematics/scara_kinematics.c</text>
</a>
</g>
</g>
<!-- Node1&#45;&gt;Node2 -->
<g id="edge1_Node000001_Node000002" class="edge">
<title>Node1&#45;&gt;Node2</title>
<g id="a_edge1_Node000001_Node000002"><a xlink:title=" ">
<path fill="none" stroke="#63b8ff" d="M115.71,-157.91C104.65,-149.99 94.59,-140.25 88,-128.5 72.41,-100.67 77.31,-61.77 81.9,-40.18"/>
<polygon fill="#63b8ff" stroke="#63b8ff" points="113.65,-160.75 123.93,-163.32 117.5,-154.9 113.65,-160.75"/>
</a>
</g>
</g>
<!-- Node3 -->
<g id="Node000003" class="node">
<title>Node3</title>
<g id="a_Node000003"><a xlink:href="scara__kinematics__process_8c.html" target="_top" xlink:title=" ">
<polygon fill="white" stroke="#666666" points="361.88,-46.25 198.12,-46.25 198.12,0 361.88,0 361.88,-46.25"/>
<text xml:space="preserve" text-anchor="start" x="206.12" y="-32.75" font-family="Helvetica,sans-Serif" font-size="10.00">source/motion/scara</text>
<text xml:space="preserve" text-anchor="start" x="206.12" y="-20" font-family="Helvetica,sans-Serif" font-size="10.00">_kinematics/scara_kinematics</text>
<text xml:space="preserve" text-anchor="middle" x="280" y="-7.25" font-family="Helvetica,sans-Serif" font-size="10.00">_process.c</text>
</a>
</g>
</g>
<!-- Node1&#45;&gt;Node3 -->
<g id="edge2_Node000001_Node000003" class="edge">
<title>Node1&#45;&gt;Node3</title>
<g id="a_edge2_Node000001_Node000003"><a xlink:title=" ">
<path fill="none" stroke="#63b8ff" d="M241.23,-157.77C252.49,-149.83 262.89,-140.12 270,-128.5 285.2,-103.65 285.3,-69.09 283.25,-46.67"/>
<polygon fill="#63b8ff" stroke="#63b8ff" points="239.37,-154.81 232.9,-163.2 243.19,-160.67 239.37,-154.81"/>
</a>
</g>
</g>
<!-- Node4 -->
<g id="Node000004" class="node">
<title>Node4</title>
<g id="a_Node000004"><a xlink:href="scara__kinematics__process_8h.html" target="_top" xlink:title=" ">
<polygon fill="white" stroke="#666666" points="260.88,-128.5 97.12,-128.5 97.12,-82.25 260.88,-82.25 260.88,-128.5"/>
<text xml:space="preserve" text-anchor="start" x="105.12" y="-115" font-family="Helvetica,sans-Serif" font-size="10.00">source/motion/scara</text>
<text xml:space="preserve" text-anchor="start" x="105.12" y="-102.25" font-family="Helvetica,sans-Serif" font-size="10.00">_kinematics/scara_kinematics</text>
<text xml:space="preserve" text-anchor="middle" x="179" y="-89.5" font-family="Helvetica,sans-Serif" font-size="10.00">_process.h</text>
</a>
</g>
</g>
<!-- Node1&#45;&gt;Node4 -->
<g id="edge3_Node000001_Node000004" class="edge">
<title>Node1&#45;&gt;Node4</title>
<g id="a_edge3_Node000001_Node000004"><a xlink:title=" ">
<path fill="none" stroke="#63b8ff" d="M179,-152.84C179,-144.75 179,-136.32 179,-128.89"/>
<polygon fill="#63b8ff" stroke="#63b8ff" points="175.5,-152.76 179,-162.76 182.5,-152.76 175.5,-152.76"/>
</a>
</g>
</g>
<!-- Node4&#45;&gt;Node2 -->
<g id="edge4_Node000004_Node000002" class="edge">
<title>Node4&#45;&gt;Node2</title>
<g id="a_edge4_Node000004_Node000002"><a xlink:title=" ">
<path fill="none" stroke="#63b8ff" d="M144.5,-74.6C131.02,-62.97 116.09,-50.09 104.69,-40.25"/>
<polygon fill="#63b8ff" stroke="#63b8ff" points="142.09,-77.15 151.95,-81.03 146.66,-71.85 142.09,-77.15"/>
</a>
</g>
</g>
<!-- Node4&#45;&gt;Node3 -->
<g id="edge5_Node000004_Node000003" class="edge">
<title>Node4&#45;&gt;Node3</title>
<g id="a_edge5_Node000004_Node000003"><a xlink:title=" ">
<path fill="none" stroke="#63b8ff" d="M216.16,-74.85C227.94,-65.49 240.77,-55.3 251.81,-46.52"/>
<polygon fill="#63b8ff" stroke="#63b8ff" points="214.24,-71.9 208.59,-80.87 218.59,-77.39 214.24,-71.9"/>
</a>
</g>
</g>
</g>
</svg>
