<?xml version="1.0" encoding="UTF-8" standalone="no"?>
<!DOCTYPE svg PUBLIC "-//W3C//DTD SVG 1.1//EN"
 "http://www.w3.org/Graphics/SVG/1.1/DTD/svg11.dtd">
<!-- Generated by graphviz version 14.1.5 (0)
 -->
<!-- Title: source/motion/scara_kinematics/scara_kinematics.h Pages: 1 -->
<svg width="852pt" height="288pt"
 viewBox="0.00 0.00 852.00 288.00" xmlns="http://www.w3.org/2000/svg" xmlns:xlink="http://www.w3.org/1999/xlink">
<g id="graph0" class="graph" transform="scale(1 1) rotate(0) translate(4 284.25)">
<title>source/motion/scara_kinematics/scara_kinematics.h</title>
<!-- Node1 -->
<g id="Node000001" class="node">
<title>Node1</title>
<g id="a_Node000001"><a xlink:title=" ">
<polygon fill="#999999" stroke="#666666" points="524.12,-280.25 351.38,-280.25 351.38,-246.75 524.12,-246.75 524.12,-280.25"/>
<text xml:space="preserve" text-anchor="start" x="359.38" y="-266.75" font-family="Helvetica,sans-Serif" font-size="10.00">source/motion/scara</text>
<text xml:space="preserve" text-anchor="middle" x="437.75" y="-254" font-family="Helvetica,sans-Serif" font-size="10.00">_kinematics/scara_kinematics.h</text>
</a>
</g>
</g>
<!-- Node2 -->
<g id="Node000002" class="node">
<title>Node2</title>
<g id="a_Node000002"><a xlink:href="application_8c.html" target="_top" xlink:title=" ">
<polygon fill="white" stroke="#666666" points="113.5,-198 0,-198 0,-177.25 113.5,-177.25 113.5,-198"/>
<text xml:space="preserve" text-anchor="middle" x="56.75" y="-184.5" font-family="Helvetica,sans-Serif" font-size="10.00">source/application.c</text>
</a>
</g>
</g>
<!-- Node1&#45;&gt;Node2 -->
<g id="edge1_Node000001_Node000002" class="edge">
<title>Node1&#45;&gt;Node2</title>
<g id="a_edge1_Node000001_Node000002"><a xlink:title=" ">
<path fill="none" stroke="#63b8ff" d="M339.7,-249.63C278.37,-240.72 197.96,-227.47 127.75,-210.75 113.56,-207.37 98.06,-202.66 85.18,-198.46"/>
<polygon fill="#63b8ff" stroke="#63b8ff" points="339.03,-253.07 349.43,-251.03 340.03,-246.14 339.03,-253.07"/>
</a>
</g>
</g>
<!-- Node3 -->
<g id="Node000003" class="node">
<title>Node3</title>
<g id="a_Node000003"><a xlink:href="scara__kinematics_8c.html" target="_top" xlink:title=" ">
<polygon fill="white" stroke="#666666" points="265.75,-39.88 93.75,-39.88 93.75,-6.38 265.75,-6.38 265.75,-39.88"/>
<text xml:space="preserve" text-anchor="start" x="101.75" y="-26.38" font-family="Helvetica,sans-Serif" font-size="10.00">source/motion/scara</text>
<text xml:space="preserve" text-anchor="middle" x="179.75" y="-13.62" font-family="Helvetica,sans-Serif" font-size="10.00">_kinematics/scara_kinematics.c</text>
</a>
</g>
</g>
<!-- Node1&#45;&gt;Node3 -->
<g id="edge2_Node000001_Node000003" class="edge">
<title>Node1&#45;&gt;Node3</title>
<g id="a_edge2_Node000001_Node000003"><a xlink:title=" ">
<path fill="none" stroke="#63b8ff" d="M339.79,-257.85C298.45,-251.53 252.06,-238.19 217.75,-210.75 165.72,-169.14 172.05,-77.41 177.11,-40.24"/>
<polygon fill="#63b8ff" stroke="#63b8ff" points="339.13,-261.29 349.52,-259.21 340.1,-254.36 339.13,-261.29"/>
</a>
</g>
</g>
<!-- Node4 -->
<g id="Node000004" class="node">
<title>Node4</title>
<g id="a_Node000004"><a xlink:href="scara__kinematics__internal_8h.html" target="_top" xlink:title=" ">
<polygon fill="white" stroke="#666666" points="390.62,-210.75 226.88,-210.75 226.88,-164.5 390.62,-164.5 390.62,-210.75"/>
<text xml:space="preserve" text-anchor="start" x="234.88" y="-197.25" font-family="Helvetica,sans-Serif" font-size="10.00">source/motion/scara</text>
<text xml:space="preserve" text-anchor="start" x="234.88" y="-184.5" font-family="Helvetica,sans-Serif" font-size="10.00">_kinematics/scara_kinematics</text>
<text xml:space="preserve" text-anchor="middle" x="308.75" y="-171.75" font-family="Helvetica,sans-Serif" font-size="10.00">_internal.h</text>
</a>
</g>
</g>
<!-- Node1&#45;&gt;Node4 -->
<g id="edge3_Node000001_Node000004" class="edge">
<title>Node1&#45;&gt;Node4</title>
<g id="a_edge3_Node000001_Node000004"><a xlink:title=" ">
<path fill="none" stroke="#63b8ff" d="M399.74,-240.73C383.53,-231.45 364.62,-220.62 348.25,-211.24"/>
<polygon fill="#63b8ff" stroke="#63b8ff" points="397.71,-243.6 408.13,-245.54 401.19,-237.53 397.71,-243.6"/>
</a>
</g>
</g>
<!-- Node5 -->
<g id="Node000005" class="node">
<title>Node5</title>
<g id="a_Node000005"><a xlink:href="scara__kinematics__process_8c.html" target="_top" xlink:title=" ">
<polygon fill="white" stroke="#666666" points="481.62,-46.25 317.88,-46.25 317.88,0 481.62,0 481.62,-46.25"/>
<text xml:space="preserve" text-anchor="start" x="325.88" y="-32.75" font-family="Helvetica,sans-Serif" font-size="10.00">source/motion/scara</text>
<text xml:space="preserve" text-anchor="start" x="325.88" y="-20" font-family="Helvetica,sans-Serif" font-size="10.00">_kinematics/scara_kinematics</text>
<text xml:space="preserve" text-anchor="middle" x="399.75" y="-7.25" font-family="Helvetica,sans-Serif" font-size="10.00">_process.c</text>
</a>
</g>
</g>
<!-- Node1&#45;&gt;Node5 -->
<g id="edge9_Node000001_Node000005" class="edge">
<title>Node1&#45;&gt;Node5</title>
<g id="a_edge9_Node000001_Node000005"><a xlink:title=" ">
<path fill="none" stroke="#63b8ff" d="M433.41,-235.27C425.83,-187.7 410.31,-90.36 403.31,-46.47"/>
<polygon fill="#63b8ff" stroke="#63b8ff" points="429.93,-235.67 434.96,-244.99 436.84,-234.57 429.93,-235.67"/>
</a>
</g>
</g>
<!-- Node7 -->
<g id="Node000007" class="node">
<title>Node7</title>
<g id="a_Node000007"><a xlink:href="motorCmd_8c.html" target="_top" xlink:title=" ">
<polygon fill="white" stroke="#666666" points="577.38,-198 466.12,-198 466.12,-177.25 577.38,-177.25 577.38,-198"/>
<text xml:space="preserve" text-anchor="middle" x="521.75" y="-184.5" font-family="Helvetica,sans-Serif" font-size="10.00">source/motorCmd.c</text>
</a>
</g>
</g>
<!-- Node1&#45;&gt;Node7 -->
<g id="edge10_Node000001_Node000007" class="edge">
<title>Node1&#45;&gt;Node7</title>
<g id="a_edge10_Node000001_Node000007"><a xlink:title=" ">
<path fill="none" stroke="#63b8ff" d="M464.33,-239.12C480.12,-225.23 499.29,-208.38 511,-198.08"/>
<polygon fill="#63b8ff" stroke="#63b8ff" points="462.31,-236.24 457.11,-245.47 466.93,-241.49 462.31,-236.24"/>
</a>
</g>
</g>
<!-- Node8 -->
<g id="Node000008" class="node">
<title>Node8</title>
<g id="a_Node000008"><a xlink:href="motor__test_8c.html" target="_top" xlink:title=" ">
<polygon fill="white" stroke="#666666" points="708.12,-198 595.38,-198 595.38,-177.25 708.12,-177.25 708.12,-198"/>
<text xml:space="preserve" text-anchor="middle" x="651.75" y="-184.5" font-family="Helvetica,sans-Serif" font-size="10.00">source/motor_test.c</text>
</a>
</g>
</g>
<!-- Node1&#45;&gt;Node8 -->
<g id="edge11_Node000001_Node000008" class="edge">
<title>Node1&#45;&gt;Node8</title>
<g id="a_edge11_Node000001_Node000008"><a xlink:title=" ">
<path fill="none" stroke="#63b8ff" d="M495.48,-242.57C536.85,-228.29 590.79,-209.67 623.27,-198.46"/>
<polygon fill="#63b8ff" stroke="#63b8ff" points="494.45,-239.22 486.14,-245.79 496.74,-245.84 494.45,-239.22"/>
</a>
</g>
</g>
<!-- Node9 -->
<g id="Node000009" class="node">
<title>Node9</title>
<g id="a_Node000009"><a xlink:href="statemachine__helpers_8c.html" target="_top" xlink:title="Command parsing and helper implementations for the state machine.">
<polygon fill="white" stroke="#666666" points="843.75,-204.38 725.75,-204.38 725.75,-170.88 843.75,-170.88 843.75,-204.38"/>
<text xml:space="preserve" text-anchor="start" x="733.75" y="-190.88" font-family="Helvetica,sans-Serif" font-size="10.00">source/statemachine</text>
<text xml:space="preserve" text-anchor="middle" x="784.75" y="-178.12" font-family="Helvetica,sans-Serif" font-size="10.00">_helpers.c</text>
</a>
</g>
</g>
<!-- Node1&#45;&gt;Node9 -->
<g id="edge12_Node000001_Node000009" class="edge">
<title>Node1&#45;&gt;Node9</title>
<g id="a_edge12_Node000001_Node000009"><a xlink:title=" ">
<path fill="none" stroke="#63b8ff" d="M535.74,-247.56C589.55,-238.54 657.24,-225.88 716.75,-210.75 723.61,-209.01 730.78,-206.94 737.79,-204.79"/>
<polygon fill="#63b8ff" stroke="#63b8ff" points="535.27,-244.09 525.97,-249.18 536.41,-250.99 535.27,-244.09"/>
</a>
</g>
</g>
<!-- Node4&#45;&gt;Node3 -->
<g id="edge4_Node000004_Node000003" class="edge">
<title>Node4&#45;&gt;Node3</title>
<g id="a_edge4_Node000004_Node000003"><a xlink:title=" ">
<path fill="none" stroke="#63b8ff" d="M233.31,-158.61C220.1,-150.68 207.74,-140.77 198.75,-128.5 179.48,-102.2 177.77,-62.37 178.56,-40.3"/>
<polygon fill="#63b8ff" stroke="#63b8ff" points="231.28,-161.49 241.71,-163.31 234.69,-155.38 231.28,-161.49"/>
</a>
</g>
</g>
<!-- Node4&#45;&gt;Node5 -->
<g id="edge5_Node000004_Node000005" class="edge">
<title>Node4&#45;&gt;Node5</title>
<g id="a_edge5_Node000004_Node000005"><a xlink:title=" ">
<path fill="none" stroke="#63b8ff" d="M355.46,-157.06C365.15,-148.9 374.34,-139.29 380.75,-128.5 395.8,-103.16 399.46,-68.72 400.09,-46.46"/>
<polygon fill="#63b8ff" stroke="#63b8ff" points="353.36,-154.25 347.67,-163.19 357.69,-159.75 353.36,-154.25"/>
</a>
</g>
</g>
<!-- Node6 -->
<g id="Node000006" class="node">
<title>Node6</title>
<g id="a_Node000006"><a xlink:href="scara__kinematics__process_8h.html" target="_top" xlink:title=" ">
<polygon fill="white" stroke="#666666" points="371.62,-128.5 207.88,-128.5 207.88,-82.25 371.62,-82.25 371.62,-128.5"/>
<text xml:space="preserve" text-anchor="start" x="215.88" y="-115" font-family="Helvetica,sans-Serif" font-size="10.00">source/motion/scara</text>
<text xml:space="preserve" text-anchor="start" x="215.88" y="-102.25" font-family="Helvetica,sans-Serif" font-size="10.00">_kinematics/scara_kinematics</text>
<text xml:space="preserve" text-anchor="middle" x="289.75" y="-89.5" font-family="Helvetica,sans-Serif" font-size="10.00">_process.h</text>
</a>
</g>
</g>
<!-- Node4&#45;&gt;Node6 -->
<g id="edge6_Node000004_Node000006" class="edge">
<title>Node4&#45;&gt;Node6</title>
<g id="a_edge6_Node000004_Node000006"><a xlink:title=" ">
<path fill="none" stroke="#63b8ff" d="M300.82,-153.12C298.88,-144.95 296.86,-136.4 295.08,-128.89"/>
<polygon fill="#63b8ff" stroke="#63b8ff" points="297.4,-153.87 303.11,-162.8 304.21,-152.26 297.4,-153.87"/>
</a>
</g>
</g>
<!-- Node6&#45;&gt;Node3 -->
<g id="edge7_Node000006_Node000003" class="edge">
<title>Node6&#45;&gt;Node3</title>
<g id="a_edge7_Node000006_Node000003"><a xlink:title=" ">
<path fill="none" stroke="#63b8ff" d="M249.57,-75.06C233.41,-63.27 215.42,-50.15 201.74,-40.17"/>
<polygon fill="#63b8ff" stroke="#63b8ff" points="247.45,-77.85 257.59,-80.92 251.58,-72.19 247.45,-77.85"/>
</a>
</g>
</g>
<!-- Node6&#45;&gt;Node5 -->
<g id="edge8_Node000006_Node000005" class="edge">
<title>Node6&#45;&gt;Node5</title>
<g id="a_edge8_Node000006_Node000005"><a xlink:title=" ">
<path fill="none" stroke="#63b8ff" d="M329.85,-75.12C342.78,-65.69 356.9,-55.38 369.05,-46.52"/>
<polygon fill="#63b8ff" stroke="#63b8ff" points="327.92,-72.19 321.91,-80.92 332.05,-77.85 327.92,-72.19"/>
</a>
</g>
</g>
</g>
</svg>
