<?xml version="1.0" encoding="UTF-8" standalone="no"?>
<!DOCTYPE svg PUBLIC "-//W3C//DTD SVG 1.1//EN"
 "http://www.w3.org/Graphics/SVG/1.1/DTD/svg11.dtd">
<!-- Generated by graphviz version 14.1.5 (0)
 -->
<!-- Title: source/scara_kinematics.h Pages: 1 -->
<!--zoomable 313 -->

<svg id="main" version="1.1" xmlns="http://www.w3.org/2000/svg" xmlns:xlink="http://www.w3.org/1999/xlink" xml:space="preserve" onload="init(evt)">

<style type="text/css"><![CDATA[
.node, .edge {opacity: 0.7;}
.node.selected, .edge.selected {opacity: 1;}
.edge:hover path { stroke: red; }
.edge:hover polygon { stroke: red; fill: red; }
]]></style>

<defs>
  <circle id="rim" cx="0" cy="0" r="7"/>
  <circle id="rim2" cx="0" cy="0" r="3.5"/>
  <g id="zoomPlus">
    <use xlink:href="#rim" fill="#404040"><set attributeName="fill" to="#808080" begin="zoomplus.mouseover" end="zoomplus.mouseout"/></use>
    <path d="M-4,0h8M0,-4v8" fill="none" stroke="white" stroke-width="1.5" pointer-events="none"/>
  </g>
  <g id="zoomMin">
    <use xlink:href="#rim" fill="#404040"><set attributeName="fill" to="#808080" begin="zoomminus.mouseover" end="zoomminus.mouseout"/></use>
    <path d="M-4,0h8" fill="none" stroke="white" stroke-width="1.5" pointer-events="none"/>
  </g>
  <g id="arrowUp" transform="translate(30 24)">
    <use xlink:href="#rim"/>
    <path pointer-events="none" fill="none" stroke="white" stroke-width="1.5" d="M0,-3.0v7 M-2.5,-0.5L0,-3.0L2.5,-0.5"/>
  </g>
  <g id="arrowRight" transform="rotate(90) translate(36 -43)">
    <use xlink:href="#rim"/>
    <path pointer-events="none" fill="none" stroke="white" stroke-width="1.5" d="M0,-3.0v7 M-2.5,-0.5L0,-3.0L2.5,-0.5"/>
  </g>
  <g id="arrowDown" transform="rotate(180) translate(-30 -48)">
    <use xlink:href="#rim"/>
    <path pointer-events="none" fill="none" stroke="white" stroke-width="1.5" d="M0,-3.0v7 M-2.5,-0.5L0,-3.0L2.5,-0.5"/>
  </g>
  <g id="arrowLeft" transform="rotate(270) translate(-36 17)">
    <use xlink:href="#rim"/>
    <path pointer-events="none" fill="none" stroke="white" stroke-width="1.5" d="M0,-3.0v7 M-2.5,-0.5L0,-3.0L2.5,-0.5"/>
  </g>
  <g id="resetDef">
    <use xlink:href="#rim2" fill="#404040"><set attributeName="fill" to="#808080" begin="reset.mouseover" end="reset.mouseout"/></use>
  </g>
</defs>
<script type="application/ecmascript">
var viewWidth = 1257;
var viewHeight = 313;
var sectionId = 'dynsection-0';
</script>
<script type="application/ecmascript" xlink:href="svg.min.js"/>
<svg id="graph" class="graph">
<g id="viewport">
<title>source/scara_kinematics.h</title>
<!-- Node1 -->
<g id="Node000001" class="node">
<title>Node1</title>
<g id="a_Node000001"><a xlink:title=" ">
<polygon fill="#999999" stroke="#666666" points="536.38,-304.5 390.62,-304.5 390.62,-283.75 536.38,-283.75 536.38,-304.5"/>
<text xml:space="preserve" text-anchor="middle" x="463.5" y="-291" font-family="Helvetica,sans-Serif" font-size="10.00">source/scara_kinematics.h</text>
</a>
</g>
</g>
<!-- Node2 -->
<g id="Node000002" class="node">
<title>Node2</title>
<g id="a_Node000002"><a xlink:title=" ">
<polygon fill="#e0e0e0" stroke="#999999" points="61,-247.75 0,-247.75 0,-227 61,-227 61,-247.75"/>
<text xml:space="preserve" text-anchor="middle" x="30.5" y="-234.25" font-family="Helvetica,sans-Serif" font-size="10.00">stdbool.h</text>
</a>
</g>
</g>
<!-- Node1&#45;&gt;Node2 -->
<g id="edge1_Node000001_Node000002" class="edge">
<title>Node1&#45;&gt;Node2</title>
<g id="a_edge1_Node000001_Node000002"><a xlink:title=" ">
<path fill="none" stroke="#63b8ff" d="M390.29,-286.52C312.08,-279.01 184.62,-265.46 75.5,-247.75 74.5,-247.59 73.49,-247.42 72.47,-247.24"/>
<polygon fill="#63b8ff" stroke="#63b8ff" points="73.38,-243.85 62.91,-245.47 72.1,-250.73 73.38,-243.85"/>
</a>
</g>
</g>
<!-- Node3 -->
<g id="Node000003" class="node">
<title>Node3</title>
<g id="a_Node000003"><a xlink:title=" ">
<polygon fill="#e0e0e0" stroke="#999999" points="593.88,-77.5 541.12,-77.5 541.12,-56.75 593.88,-56.75 593.88,-77.5"/>
<text xml:space="preserve" text-anchor="middle" x="567.5" y="-64" font-family="Helvetica,sans-Serif" font-size="10.00">stdint.h</text>
</a>
</g>
</g>
<!-- Node1&#45;&gt;Node3 -->
<g id="edge2_Node000001_Node000003" class="edge">
<title>Node1&#45;&gt;Node3</title>
<g id="a_edge2_Node000001_Node000003"><a xlink:title=" ">
<path fill="none" stroke="#63b8ff" d="M470.54,-283.25C487.47,-259.07 530.71,-194.43 553.5,-134.25 559.04,-119.61 562.61,-102.28 564.76,-89.03"/>
<polygon fill="#63b8ff" stroke="#63b8ff" points="568.2,-89.7 566.18,-79.3 561.27,-88.69 568.2,-89.7"/>
</a>
</g>
</g>
<!-- Node4 -->
<g id="Node000004" class="node">
<title>Node4</title>
<g id="a_Node000004"><a xlink:title=" ">
<polygon fill="#e0e0e0" stroke="#999999" points="323.25,-77.5 251.75,-77.5 251.75,-56.75 323.25,-56.75 323.25,-77.5"/>
<text xml:space="preserve" text-anchor="middle" x="287.5" y="-64" font-family="Helvetica,sans-Serif" font-size="10.00">FreeRTOS.h</text>
</a>
</g>
</g>
<!-- Node1&#45;&gt;Node4 -->
<g id="edge3_Node000001_Node000004" class="edge">
<title>Node1&#45;&gt;Node4</title>
<g id="a_edge3_Node000001_Node000004"><a xlink:title=" ">
<path fill="none" stroke="#63b8ff" d="M433.56,-283.36C380.93,-264.35 273.32,-216.83 230.5,-134.25 220.46,-114.89 239.72,-96.4 258.51,-83.92"/>
<polygon fill="#63b8ff" stroke="#63b8ff" points="260.19,-87 266.85,-78.76 256.51,-81.04 260.19,-87"/>
</a>
</g>
</g>
<!-- Node5 -->
<g id="Node000005" class="node">
<title>Node5</title>
<g id="a_Node000005"><a xlink:title=" ">
<polygon fill="#e0e0e0" stroke="#999999" points="783,-20.75 698,-20.75 698,0 783,0 783,-20.75"/>
<text xml:space="preserve" text-anchor="middle" x="740.5" y="-7.25" font-family="Helvetica,sans-Serif" font-size="10.00">fsl_common.h</text>
</a>
</g>
</g>
<!-- Node1&#45;&gt;Node5 -->
<g id="edge4_Node000001_Node000005" class="edge">
<title>Node1&#45;&gt;Node5</title>
<g id="a_edge4_Node000001_Node000005"><a xlink:title=" ">
<path fill="none" stroke="#63b8ff" d="M536.55,-290.35C731.18,-281.97 1247.5,-253.03 1247.5,-181.62 1247.5,-181.62 1247.5,-181.62 1247.5,-122.88 1247.5,-92.3 1252.05,-76.26 1228.5,-56.75 1195.65,-29.53 914.72,-17.11 794.61,-13.01"/>
<polygon fill="#63b8ff" stroke="#63b8ff" points="794.78,-9.51 784.67,-12.68 794.55,-16.51 794.78,-9.51"/>
</a>
</g>
</g>
<!-- Node6 -->
<g id="Node000006" class="node">
<title>Node6</title>
<g id="a_Node000006"><a xlink:href="cmd__handle_8h.html" target="_top" xlink:title=" ">
<polygon fill="white" stroke="#666666" points="323.62,-134.25 239.38,-134.25 239.38,-113.5 323.62,-113.5 323.62,-134.25"/>
<text xml:space="preserve" text-anchor="middle" x="281.5" y="-120.75" font-family="Helvetica,sans-Serif" font-size="10.00">cmd_handle.h</text>
</a>
</g>
</g>
<!-- Node1&#45;&gt;Node6 -->
<g id="edge5_Node000001_Node000006" class="edge">
<title>Node1&#45;&gt;Node6</title>
<g id="a_edge5_Node000001_Node000006"><a xlink:title=" ">
<path fill="none" stroke="#63b8ff" d="M452.93,-283.35C423.15,-255.82 338.27,-177.36 300.28,-142.24"/>
<polygon fill="#63b8ff" stroke="#63b8ff" points="302.93,-139.92 293.21,-135.7 298.18,-145.06 302.93,-139.92"/>
</a>
</g>
</g>
<!-- Node9 -->
<g id="Node000009" class="node">
<title>Node9</title>
<g id="a_Node000009"><a xlink:href="motor__core_8h.html" target="_top" xlink:title=" ">
<polygon fill="white" stroke="#666666" points="775.75,-247.75 695.25,-247.75 695.25,-227 775.75,-227 775.75,-247.75"/>
<text xml:space="preserve" text-anchor="middle" x="735.5" y="-234.25" font-family="Helvetica,sans-Serif" font-size="10.00">motor_core.h</text>
</a>
</g>
</g>
<!-- Node1&#45;&gt;Node9 -->
<g id="edge11_Node000001_Node000009" class="edge">
<title>Node1&#45;&gt;Node9</title>
<g id="a_edge11_Node000001_Node000009"><a xlink:title=" ">
<path fill="none" stroke="#63b8ff" d="M512.44,-283.27C560.83,-273.53 634.58,-258.69 683.88,-248.77"/>
<polygon fill="#63b8ff" stroke="#63b8ff" points="684.33,-252.24 693.45,-246.84 682.95,-245.38 684.33,-252.24"/>
</a>
</g>
</g>
<!-- Node6&#45;&gt;Node3 -->
<g id="edge6_Node000006_Node000003" class="edge">
<title>Node6&#45;&gt;Node3</title>
<g id="a_edge6_Node000006_Node000003"><a xlink:title=" ">
<path fill="none" stroke="#63b8ff" d="M323.9,-116.31C371.73,-108.66 452.06,-95.09 529.85,-77.96"/>
<polygon fill="#63b8ff" stroke="#63b8ff" points="530.33,-81.44 539.33,-75.85 528.8,-74.61 530.33,-81.44"/>
</a>
</g>
</g>
<!-- Node6&#45;&gt;Node4 -->
<g id="edge7_Node000006_Node000004" class="edge">
<title>Node6&#45;&gt;Node4</title>
<g id="a_edge7_Node000006_Node000004"><a xlink:title=" ">
<path fill="none" stroke="#63b8ff" d="M282.57,-113.09C283.3,-106.47 284.28,-97.47 285.18,-89.27"/>
<polygon fill="#63b8ff" stroke="#63b8ff" points="288.66,-89.65 286.27,-79.33 281.7,-88.89 288.66,-89.65"/>
</a>
</g>
</g>
<!-- Node6&#45;&gt;Node5 -->
<g id="edge9_Node000006_Node000005" class="edge">
<title>Node6&#45;&gt;Node5</title>
<g id="a_edge9_Node000006_Node000005"><a xlink:title=" ">
<path fill="none" stroke="#63b8ff" d="M291.76,-113.02C308.04,-98.04 341.44,-69.9 375.5,-56.75 431.02,-35.32 599.17,-21.04 686.52,-14.86"/>
<polygon fill="#63b8ff" stroke="#63b8ff" points="686.53,-18.37 696.27,-14.18 686.05,-11.39 686.53,-18.37"/>
</a>
</g>
</g>
<!-- Node7 -->
<g id="Node000007" class="node">
<title>Node7</title>
<g id="a_Node000007"><a xlink:title=" ">
<polygon fill="#e0e0e0" stroke="#999999" points="163,-77.5 72,-77.5 72,-56.75 163,-56.75 163,-77.5"/>
<text xml:space="preserve" text-anchor="middle" x="117.5" y="-64" font-family="Helvetica,sans-Serif" font-size="10.00">event_groups.h</text>
</a>
</g>
</g>
<!-- Node6&#45;&gt;Node7 -->
<g id="edge8_Node000006_Node000007" class="edge">
<title>Node6&#45;&gt;Node7</title>
<g id="a_edge8_Node000006_Node000007"><a xlink:title=" ">
<path fill="none" stroke="#63b8ff" d="M252.18,-113.09C225.79,-104.28 186.78,-91.25 157.53,-81.49"/>
<polygon fill="#63b8ff" stroke="#63b8ff" points="158.87,-78.25 148.28,-78.4 156.65,-84.89 158.87,-78.25"/>
</a>
</g>
</g>
<!-- Node8 -->
<g id="Node000008" class="node">
<title>Node8</title>
<g id="a_Node000008"><a xlink:title=" ">
<polygon fill="#e0e0e0" stroke="#999999" points="233.5,-77.5 181.5,-77.5 181.5,-56.75 233.5,-56.75 233.5,-77.5"/>
<text xml:space="preserve" text-anchor="middle" x="207.5" y="-64" font-family="Helvetica,sans-Serif" font-size="10.00">stdlib.h</text>
</a>
</g>
</g>
<!-- Node6&#45;&gt;Node8 -->
<g id="edge10_Node000006_Node000008" class="edge">
<title>Node6&#45;&gt;Node8</title>
<g id="a_edge10_Node000006_Node000008"><a xlink:title=" ">
<path fill="none" stroke="#63b8ff" d="M268.27,-113.09C257.54,-105.15 242.18,-93.78 229.58,-84.46"/>
<polygon fill="#63b8ff" stroke="#63b8ff" points="231.95,-81.86 221.83,-78.73 227.79,-87.49 231.95,-81.86"/>
</a>
</g>
</g>
<!-- Node10 -->
<g id="Node000010" class="node">
<title>Node10</title>
<g id="a_Node000010"><a xlink:href="pca9555a_8h.html" target="_top" xlink:title=" ">
<polygon fill="white" stroke="#666666" points="765.5,-77.5 611.5,-77.5 611.5,-56.75 765.5,-56.75 765.5,-77.5"/>
<text xml:space="preserve" text-anchor="middle" x="688.5" y="-64" font-family="Helvetica,sans-Serif" font-size="10.00">driver/pca9555a/pca9555a.h</text>
</a>
</g>
</g>
<!-- Node9&#45;&gt;Node10 -->
<g id="edge12_Node000009_Node000010" class="edge">
<title>Node9&#45;&gt;Node10</title>
<g id="a_edge12_Node000009_Node000010"><a xlink:title=" ">
<path fill="none" stroke="#63b8ff" d="M696.04,-226.59C677.61,-219.83 657.37,-208.75 646.5,-191 625.81,-157.23 653.3,-111.94 672.58,-86.85"/>
<polygon fill="#63b8ff" stroke="#63b8ff" points="675.21,-89.16 678.75,-79.18 669.75,-84.78 675.21,-89.16"/>
</a>
</g>
</g>
<!-- Node12 -->
<g id="Node000012" class="node">
<title>Node12</title>
<g id="a_Node000012"><a xlink:title=" ">
<polygon fill="#e0e0e0" stroke="#999999" points="743.88,-191 655.12,-191 655.12,-170.25 743.88,-170.25 743.88,-191"/>
<text xml:space="preserve" text-anchor="middle" x="699.5" y="-177.5" font-family="Helvetica,sans-Serif" font-size="10.00">MK22F51212.h</text>
</a>
</g>
</g>
<!-- Node9&#45;&gt;Node12 -->
<g id="edge15_Node000009_Node000012" class="edge">
<title>Node9&#45;&gt;Node12</title>
<g id="a_edge15_Node000009_Node000012"><a xlink:title=" ">
<path fill="none" stroke="#63b8ff" d="M729.06,-226.59C724.35,-219.42 717.81,-209.48 712.08,-200.76"/>
<polygon fill="#63b8ff" stroke="#63b8ff" points="715.13,-199.03 706.71,-192.59 709.28,-202.87 715.13,-199.03"/>
</a>
</g>
</g>
<!-- Node13 -->
<g id="Node000013" class="node">
<title>Node13</title>
<g id="a_Node000013"><a xlink:href="step__core_8h.html" target="_top" xlink:title=" ">
<polygon fill="white" stroke="#666666" points="871.62,-191 799.38,-191 799.38,-170.25 871.62,-170.25 871.62,-191"/>
<text xml:space="preserve" text-anchor="middle" x="835.5" y="-177.5" font-family="Helvetica,sans-Serif" font-size="10.00">step_core.h</text>
</a>
</g>
</g>
<!-- Node9&#45;&gt;Node13 -->
<g id="edge16_Node000009_Node000013" class="edge">
<title>Node9&#45;&gt;Node13</title>
<g id="a_edge16_Node000009_Node000013"><a xlink:title=" ">
<path fill="none" stroke="#63b8ff" d="M753.38,-226.59C768.59,-218.26 790.69,-206.16 808.13,-196.61"/>
<polygon fill="#63b8ff" stroke="#63b8ff" points="809.36,-199.93 816.45,-192.06 806,-193.79 809.36,-199.93"/>
</a>
</g>
</g>
<!-- Node15 -->
<g id="Node000015" class="node">
<title>Node15</title>
<g id="a_Node000015"><a xlink:title=" ">
<polygon fill="#e0e0e0" stroke="#999999" points="1219.88,-77.5 1161.12,-77.5 1161.12,-56.75 1219.88,-56.75 1219.88,-77.5"/>
<text xml:space="preserve" text-anchor="middle" x="1190.5" y="-64" font-family="Helvetica,sans-Serif" font-size="10.00">fsl_ftm.h</text>
</a>
</g>
</g>
<!-- Node9&#45;&gt;Node15 -->
<g id="edge41_Node000009_Node000015" class="edge">
<title>Node9&#45;&gt;Node15</title>
<g id="a_edge41_Node000009_Node000015"><a xlink:title=" ">
<path fill="none" stroke="#63b8ff" d="M775.9,-232.45C823.88,-226.93 905.81,-214.77 972.5,-191 1022.47,-173.19 1031.27,-160.26 1077.5,-134.25 1107.56,-117.34 1141.69,-97.24 1164.5,-83.67"/>
<polygon fill="#63b8ff" stroke="#63b8ff" points="1166.03,-86.84 1172.83,-78.71 1162.45,-80.82 1166.03,-86.84"/>
</a>
</g>
</g>
<!-- Node16 -->
<g id="Node000016" class="node">
<title>Node16</title>
<g id="a_Node000016"><a xlink:title=" ">
<polygon fill="#e0e0e0" stroke="#999999" points="1143.12,-77.5 1079.88,-77.5 1079.88,-56.75 1143.12,-56.75 1143.12,-77.5"/>
<text xml:space="preserve" text-anchor="middle" x="1111.5" y="-64" font-family="Helvetica,sans-Serif" font-size="10.00">fsl_gpio.h</text>
</a>
</g>
</g>
<!-- Node9&#45;&gt;Node16 -->
<g id="edge42_Node000009_Node000016" class="edge">
<title>Node9&#45;&gt;Node16</title>
<g id="a_edge42_Node000009_Node000016"><a xlink:title=" ">
<path fill="none" stroke="#63b8ff" d="M776.1,-230.29C839.26,-219.35 962.96,-191.9 1051.5,-134.25 1070.71,-121.74 1087.75,-101.62 1098.71,-86.85"/>
<polygon fill="#63b8ff" stroke="#63b8ff" points="1101.44,-89.05 1104.41,-78.88 1095.75,-84.98 1101.44,-89.05"/>
</a>
</g>
</g>
<!-- Node17 -->
<g id="Node000017" class="node">
<title>Node17</title>
<g id="a_Node000017"><a xlink:title=" ">
<polygon fill="#e0e0e0" stroke="#999999" points="883.38,-77.5 821.62,-77.5 821.62,-56.75 883.38,-56.75 883.38,-77.5"/>
<text xml:space="preserve" text-anchor="middle" x="852.5" y="-64" font-family="Helvetica,sans-Serif" font-size="10.00">fsl_port.h</text>
</a>
</g>
</g>
<!-- Node9&#45;&gt;Node17 -->
<g id="edge43_Node000009_Node000017" class="edge">
<title>Node9&#45;&gt;Node17</title>
<g id="a_edge43_Node000009_Node000017"><a xlink:title=" ">
<path fill="none" stroke="#63b8ff" d="M742.13,-226.85C760.78,-200.02 814.02,-123.46 839.11,-87.38"/>
<polygon fill="#63b8ff" stroke="#63b8ff" points="841.96,-89.42 844.79,-79.21 836.21,-85.42 841.96,-89.42"/>
</a>
</g>
</g>
<!-- Node20 -->
<g id="Node000020" class="node">
<title>Node20</title>
<g id="a_Node000020"><a xlink:href="tmc2209__core_8h.html" target="_top" xlink:title=" ">
<polygon fill="white" stroke="#666666" points="489.5,-191 395.5,-191 395.5,-170.25 489.5,-170.25 489.5,-191"/>
<text xml:space="preserve" text-anchor="middle" x="442.5" y="-177.5" font-family="Helvetica,sans-Serif" font-size="10.00">tmc2209_core.h</text>
</a>
</g>
</g>
<!-- Node9&#45;&gt;Node20 -->
<g id="edge33_Node000009_Node000020" class="edge">
<title>Node9&#45;&gt;Node20</title>
<g id="a_edge33_Node000009_Node000020"><a xlink:title=" ">
<path fill="none" stroke="#63b8ff" d="M694.76,-228.76C644.34,-219.34 558.15,-203.23 500.75,-192.51"/>
<polygon fill="#63b8ff" stroke="#63b8ff" points="501.64,-189.11 491.16,-190.72 500.35,-196 501.64,-189.11"/>
</a>
</g>
</g>
<!-- Node10&#45;&gt;Node5 -->
<g id="edge13_Node000010_Node000005" class="edge">
<title>Node10&#45;&gt;Node5</title>
<g id="a_edge13_Node000010_Node000005"><a xlink:title=" ">
<path fill="none" stroke="#63b8ff" d="M697.8,-56.34C704.9,-48.86 714.87,-38.36 723.4,-29.38"/>
<polygon fill="#63b8ff" stroke="#63b8ff" points="725.89,-31.84 730.24,-22.18 720.82,-27.02 725.89,-31.84"/>
</a>
</g>
</g>
<!-- Node11 -->
<g id="Node000011" class="node">
<title>Node11</title>
<g id="a_Node000011"><a xlink:title=" ">
<polygon fill="#e0e0e0" stroke="#999999" points="408.38,-20.75 328.62,-20.75 328.62,0 408.38,0 408.38,-20.75"/>
<text xml:space="preserve" text-anchor="middle" x="368.5" y="-7.25" font-family="Helvetica,sans-Serif" font-size="10.00">peripherals.h</text>
</a>
</g>
</g>
<!-- Node10&#45;&gt;Node11 -->
<g id="edge14_Node000010_Node000011" class="edge">
<title>Node10&#45;&gt;Node11</title>
<g id="a_edge14_Node000010_Node000011"><a xlink:title=" ">
<path fill="none" stroke="#63b8ff" d="M630.92,-56.27C570.7,-45.97 477.07,-29.95 419.45,-20.09"/>
<polygon fill="#63b8ff" stroke="#63b8ff" points="420.37,-16.7 409.92,-18.46 419.19,-23.6 420.37,-16.7"/>
</a>
</g>
</g>
<!-- Node13&#45;&gt;Node4 -->
<g id="edge18_Node000013_Node000004" class="edge">
<title>Node13&#45;&gt;Node4</title>
<g id="a_edge18_Node000013_Node000004"><a xlink:title=" ">
<path fill="none" stroke="#63b8ff" d="M799.15,-175.45C784.64,-173.81 767.78,-171.91 752.5,-170.25 599.68,-153.62 555.26,-180 408.5,-134.25 371.87,-122.83 333.68,-99.79 310.23,-84.16"/>
<polygon fill="#63b8ff" stroke="#63b8ff" points="312.34,-81.35 302.1,-78.62 308.4,-87.14 312.34,-81.35"/>
</a>
</g>
</g>
<!-- Node13&#45;&gt;Node5 -->
<g id="edge20_Node000013_Node000005" class="edge">
<title>Node13&#45;&gt;Node5</title>
<g id="a_edge20_Node000013_Node000005"><a xlink:title=" ">
<path fill="none" stroke="#63b8ff" d="M831.47,-170.07C822.43,-148.97 799.35,-97.11 774.5,-56.75 768.85,-47.57 761.81,-37.95 755.61,-29.93"/>
<polygon fill="#63b8ff" stroke="#63b8ff" points="758.5,-27.95 749.55,-22.28 753.02,-32.29 758.5,-27.95"/>
</a>
</g>
</g>
<!-- Node13&#45;&gt;Node6 -->
<g id="edge24_Node000013_Node000006" class="edge">
<title>Node13&#45;&gt;Node6</title>
<g id="a_edge24_Node000013_Node000006"><a xlink:title=" ">
<path fill="none" stroke="#63b8ff" d="M799.16,-175.31C784.65,-173.65 767.8,-171.78 752.5,-170.25 568.28,-151.86 521.16,-157.55 337.5,-134.25 336.67,-134.15 335.84,-134.04 335.01,-133.93"/>
<polygon fill="#63b8ff" stroke="#63b8ff" points="335.84,-130.51 325.45,-132.56 334.85,-137.44 335.84,-130.51"/>
</a>
</g>
</g>
<!-- Node13&#45;&gt;Node10 -->
<g id="edge17_Node000013_Node000010" class="edge">
<title>Node13&#45;&gt;Node10</title>
<g id="a_edge17_Node000013_Node000010"><a xlink:title=" ">
<path fill="none" stroke="#63b8ff" d="M822.71,-169.93C797.52,-150.81 741.21,-108.11 710.14,-84.54"/>
<polygon fill="#63b8ff" stroke="#63b8ff" points="712.65,-82.05 702.57,-78.8 708.42,-87.63 712.65,-82.05"/>
</a>
</g>
</g>
<!-- Node14 -->
<g id="Node000014" class="node">
<title>Node14</title>
<g id="a_Node000014"><a xlink:title=" ">
<polygon fill="#e0e0e0" stroke="#999999" points="1011.5,-134.25 965.5,-134.25 965.5,-113.5 1011.5,-113.5 1011.5,-134.25"/>
<text xml:space="preserve" text-anchor="middle" x="988.5" y="-120.75" font-family="Helvetica,sans-Serif" font-size="10.00">task.h</text>
</a>
</g>
</g>
<!-- Node13&#45;&gt;Node14 -->
<g id="edge19_Node000013_Node000014" class="edge">
<title>Node13&#45;&gt;Node14</title>
<g id="a_edge19_Node000013_Node000014"><a xlink:title=" ">
<path fill="none" stroke="#63b8ff" d="M862.85,-169.84C888.54,-160.65 927.04,-146.87 954.65,-136.99"/>
<polygon fill="#63b8ff" stroke="#63b8ff" points="955.72,-140.32 963.96,-133.66 953.36,-133.73 955.72,-140.32"/>
</a>
</g>
</g>
<!-- Node13&#45;&gt;Node15 -->
<g id="edge21_Node000013_Node000015" class="edge">
<title>Node13&#45;&gt;Node15</title>
<g id="a_edge21_Node000013_Node000015"><a xlink:title=" ">
<path fill="none" stroke="#63b8ff" d="M871.74,-174.7C915.22,-168.18 989.96,-155.02 1051.5,-134.25 1091.96,-120.59 1136.06,-98.22 1163.5,-83.34"/>
<polygon fill="#63b8ff" stroke="#63b8ff" points="1165.1,-86.46 1172.17,-78.57 1161.72,-80.32 1165.1,-86.46"/>
</a>
</g>
</g>
<!-- Node13&#45;&gt;Node16 -->
<g id="edge22_Node000013_Node000016" class="edge">
<title>Node13&#45;&gt;Node16</title>
<g id="a_edge22_Node000013_Node000016"><a xlink:title=" ">
<path fill="none" stroke="#63b8ff" d="M872,-174.94C910.35,-169.06 971.75,-156.87 1020.5,-134.25 1047.8,-121.58 1075.22,-100.2 1092.71,-85.18"/>
<polygon fill="#63b8ff" stroke="#63b8ff" points="1094.56,-88.22 1099.76,-78.99 1089.94,-82.96 1094.56,-88.22"/>
</a>
</g>
</g>
<!-- Node13&#45;&gt;Node17 -->
<g id="edge23_Node000013_Node000017" class="edge">
<title>Node13&#45;&gt;Node17</title>
<g id="a_edge23_Node000013_Node000017"><a xlink:title=" ">
<path fill="none" stroke="#63b8ff" d="M836.95,-170.12C839.67,-152.27 845.6,-113.36 849.3,-89.09"/>
<polygon fill="#63b8ff" stroke="#63b8ff" points="852.73,-89.83 850.78,-79.42 845.81,-88.78 852.73,-89.83"/>
</a>
</g>
</g>
<!-- Node18 -->
<g id="Node000018" class="node">
<title>Node18</title>
<g id="a_Node000018"><a xlink:href="step__shared_8h.html" target="_top" xlink:title=" ">
<polygon fill="white" stroke="#666666" points="947.62,-134.25 863.38,-134.25 863.38,-113.5 947.62,-113.5 947.62,-134.25"/>
<text xml:space="preserve" text-anchor="middle" x="905.5" y="-120.75" font-family="Helvetica,sans-Serif" font-size="10.00">step_shared.h</text>
</a>
</g>
</g>
<!-- Node13&#45;&gt;Node18 -->
<g id="edge25_Node000013_Node000018" class="edge">
<title>Node13&#45;&gt;Node18</title>
<g id="a_edge25_Node000013_Node000018"><a xlink:title=" ">
<path fill="none" stroke="#63b8ff" d="M848.01,-169.84C858.07,-161.97 872.41,-150.75 884.26,-141.49"/>
<polygon fill="#63b8ff" stroke="#63b8ff" points="886.18,-144.43 891.9,-135.51 881.87,-138.91 886.18,-144.43"/>
</a>
</g>
</g>
<!-- Node18&#45;&gt;Node3 -->
<g id="edge26_Node000018_Node000003" class="edge">
<title>Node18&#45;&gt;Node3</title>
<g id="a_edge26_Node000018_Node000003"><a xlink:title=" ">
<path fill="none" stroke="#63b8ff" d="M863.08,-118.06C806.42,-111.29 702.73,-97.74 605.4,-77.92"/>
<polygon fill="#63b8ff" stroke="#63b8ff" points="606.16,-74.51 595.66,-75.91 604.75,-81.36 606.16,-74.51"/>
</a>
</g>
</g>
<!-- Node18&#45;&gt;Node5 -->
<g id="edge29_Node000018_Node000005" class="edge">
<title>Node18&#45;&gt;Node5</title>
<g id="a_edge29_Node000018_Node000005"><a xlink:title=" ">
<path fill="none" stroke="#63b8ff" d="M906.46,-113.44C907.35,-99.28 906.82,-72.51 892.5,-56.75 867.74,-29.49 827.37,-18.33 794.45,-13.88"/>
<polygon fill="#63b8ff" stroke="#63b8ff" points="795,-10.42 784.66,-12.75 794.19,-17.38 795,-10.42"/>
</a>
</g>
</g>
<!-- Node18&#45;&gt;Node10 -->
<g id="edge27_Node000018_Node000010" class="edge">
<title>Node18&#45;&gt;Node10</title>
<g id="a_edge27_Node000018_Node000010"><a xlink:title=" ">
<path fill="none" stroke="#63b8ff" d="M866.45,-113.02C830.69,-104 777.57,-90.6 738.67,-80.78"/>
<polygon fill="#63b8ff" stroke="#63b8ff" points="739.62,-77.41 729.07,-78.36 737.91,-84.2 739.62,-77.41"/>
</a>
</g>
</g>
<!-- Node18&#45;&gt;Node15 -->
<g id="edge30_Node000018_Node000015" class="edge">
<title>Node18&#45;&gt;Node15</title>
<g id="a_edge30_Node000018_Node000015"><a xlink:title=" ">
<path fill="none" stroke="#63b8ff" d="M948.08,-115.05C950.93,-114.52 953.76,-114 956.5,-113.5 1040.12,-98.13 1064.02,-96.25 1149.63,-78.03"/>
<polygon fill="#63b8ff" stroke="#63b8ff" points="1150.14,-81.5 1159.19,-75.98 1148.68,-74.66 1150.14,-81.5"/>
</a>
</g>
</g>
<!-- Node18&#45;&gt;Node16 -->
<g id="edge31_Node000018_Node000016" class="edge">
<title>Node18&#45;&gt;Node16</title>
<g id="a_edge31_Node000018_Node000016"><a xlink:title=" ">
<path fill="none" stroke="#63b8ff" d="M942.33,-113.09C977.67,-103.69 1031.04,-89.51 1068.36,-79.59"/>
<polygon fill="#63b8ff" stroke="#63b8ff" points="1069.16,-83 1077.93,-77.05 1067.36,-76.23 1069.16,-83"/>
</a>
</g>
</g>
<!-- Node18&#45;&gt;Node17 -->
<g id="edge32_Node000018_Node000017" class="edge">
<title>Node18&#45;&gt;Node17</title>
<g id="a_edge32_Node000018_Node000017"><a xlink:title=" ">
<path fill="none" stroke="#63b8ff" d="M896.02,-113.09C888.71,-105.53 878.41,-94.89 869.66,-85.85"/>
<polygon fill="#63b8ff" stroke="#63b8ff" points="872.42,-83.67 862.95,-78.92 867.39,-88.54 872.42,-83.67"/>
</a>
</g>
</g>
<!-- Node19 -->
<g id="Node000019" class="node">
<title>Node19</title>
<g id="a_Node000019"><a xlink:title=" ">
<polygon fill="#e0e0e0" stroke="#999999" points="1061.75,-77.5 939.25,-77.5 939.25,-56.75 1061.75,-56.75 1061.75,-77.5"/>
<text xml:space="preserve" text-anchor="middle" x="1000.5" y="-64" font-family="Helvetica,sans-Serif" font-size="10.00">fsl_device_registers.h</text>
</a>
</g>
</g>
<!-- Node18&#45;&gt;Node19 -->
<g id="edge28_Node000018_Node000019" class="edge">
<title>Node18&#45;&gt;Node19</title>
<g id="a_edge28_Node000018_Node000019"><a xlink:title=" ">
<path fill="none" stroke="#63b8ff" d="M922.48,-113.09C936.8,-104.83 957.54,-92.88 974.04,-83.38"/>
<polygon fill="#63b8ff" stroke="#63b8ff" points="975.44,-86.61 982.35,-78.58 971.94,-80.55 975.44,-86.61"/>
</a>
</g>
</g>
<!-- Node20&#45;&gt;Node3 -->
<g id="edge34_Node000020_Node000003" class="edge">
<title>Node20&#45;&gt;Node3</title>
<g id="a_edge34_Node000020_Node000003"><a xlink:title=" ">
<path fill="none" stroke="#63b8ff" d="M472.51,-169.88C491.53,-162.5 515.63,-150.79 532.5,-134.25 545.54,-121.46 554.82,-102.77 560.53,-88.52"/>
<polygon fill="#63b8ff" stroke="#63b8ff" points="563.77,-89.83 563.97,-79.24 557.21,-87.4 563.77,-89.83"/>
</a>
</g>
</g>
<!-- Node20&#45;&gt;Node5 -->
<g id="edge38_Node000020_Node000005" class="edge">
<title>Node20&#45;&gt;Node5</title>
<g id="a_edge38_Node000020_Node000005"><a xlink:title=" ">
<path fill="none" stroke="#63b8ff" d="M432.24,-169.93C424.04,-161.43 413.17,-148.26 408.5,-134.25 397.61,-101.57 385.85,-82.7 408.5,-56.75 443.89,-16.19 601.59,-10.56 686.28,-10.55"/>
<polygon fill="#63b8ff" stroke="#63b8ff" points="686.2,-14.05 696.21,-10.58 686.22,-7.05 686.2,-14.05"/>
</a>
</g>
</g>
<!-- Node20&#45;&gt;Node6 -->
<g id="edge39_Node000020_Node000006" class="edge">
<title>Node20&#45;&gt;Node6</title>
<g id="a_edge39_Node000020_Node000006"><a xlink:title=" ">
<path fill="none" stroke="#63b8ff" d="M413.72,-169.84C387.93,-161.07 349.85,-148.12 321.18,-138.37"/>
<polygon fill="#63b8ff" stroke="#63b8ff" points="322.33,-135.06 311.74,-135.16 320.08,-141.69 322.33,-135.06"/>
</a>
</g>
</g>
<!-- Node20&#45;&gt;Node11 -->
<g id="edge40_Node000020_Node000011" class="edge">
<title>Node20&#45;&gt;Node11</title>
<g id="a_edge40_Node000020_Node000011"><a xlink:title=" ">
<path fill="none" stroke="#63b8ff" d="M395.03,-174.25C302,-162.62 101.39,-131.68 62.5,-77.5 57.12,-70.01 56.48,-63.73 62.5,-56.75 94.77,-19.35 238.66,-12.27 317.1,-11.25"/>
<polygon fill="#63b8ff" stroke="#63b8ff" points="316.7,-14.75 326.66,-11.15 316.63,-7.75 316.7,-14.75"/>
</a>
</g>
</g>
<!-- Node21 -->
<g id="Node000021" class="node">
<title>Node21</title>
<g id="a_Node000021"><a xlink:href="tmc2209__shared_8h.html" target="_top" xlink:title=" ">
<polygon fill="white" stroke="#666666" points="523.5,-134.25 417.5,-134.25 417.5,-113.5 523.5,-113.5 523.5,-134.25"/>
<text xml:space="preserve" text-anchor="middle" x="470.5" y="-120.75" font-family="Helvetica,sans-Serif" font-size="10.00">tmc2209_shared.h</text>
</a>
</g>
</g>
<!-- Node20&#45;&gt;Node21 -->
<g id="edge35_Node000020_Node000021" class="edge">
<title>Node20&#45;&gt;Node21</title>
<g id="a_edge35_Node000020_Node000021"><a xlink:title=" ">
<path fill="none" stroke="#63b8ff" d="M447.51,-169.84C451.09,-162.83 456.04,-153.16 460.42,-144.58"/>
<polygon fill="#63b8ff" stroke="#63b8ff" points="463.41,-146.42 464.85,-135.93 457.18,-143.24 463.41,-146.42"/>
</a>
</g>
</g>
<!-- Node21&#45;&gt;Node3 -->
<g id="edge36_Node000021_Node000003" class="edge">
<title>Node21&#45;&gt;Node3</title>
<g id="a_edge36_Node000021_Node000003"><a xlink:title=" ">
<path fill="none" stroke="#63b8ff" d="M487.84,-113.09C502.46,-104.83 523.64,-92.88 540.48,-83.38"/>
<polygon fill="#63b8ff" stroke="#63b8ff" points="542,-86.54 548.99,-78.57 538.56,-80.44 542,-86.54"/>
</a>
</g>
</g>
<!-- Node22 -->
<g id="Node000022" class="node">
<title>Node22</title>
<g id="a_Node000022"><a xlink:title=" ">
<polygon fill="#e0e0e0" stroke="#999999" points="523.12,-77.5 417.88,-77.5 417.88,-56.75 523.12,-56.75 523.12,-77.5"/>
<text xml:space="preserve" text-anchor="middle" x="470.5" y="-64" font-family="Helvetica,sans-Serif" font-size="10.00">fsl_uart_freertos.h</text>
</a>
</g>
</g>
<!-- Node21&#45;&gt;Node22 -->
<g id="edge37_Node000021_Node000022" class="edge">
<title>Node21&#45;&gt;Node22</title>
<g id="a_edge37_Node000021_Node000022"><a xlink:title=" ">
<path fill="none" stroke="#63b8ff" d="M470.5,-113.09C470.5,-106.47 470.5,-97.47 470.5,-89.27"/>
<polygon fill="#63b8ff" stroke="#63b8ff" points="474,-89.34 470.5,-79.34 467,-89.34 474,-89.34"/>
</a>
</g>
</g>
</g>
</svg>

<g id="navigator" transform="translate(0 0)" fill="#404254">
  <rect fill="#f2f5e9" fill-opacity="0.5" stroke="#606060" stroke-width=".5" x="0" y="0" width="60" height="60"/>
  <use id="zoomplus" xlink:href="#zoomPlus" x="17" y="9" onmousedown="handleZoom(evt,'in')"/>
  <use id="zoomminus" xlink:href="#zoomMin" x="42" y="9" onmousedown="handleZoom(evt,'out')"/>
  <use id="reset" xlink:href="#resetDef" x="30" y="36" onmousedown="handleReset()"/>
   <use id="arrowup" xlink:href="#arrowUp" x="0" y="0" onmousedown="handlePan(0,-1)"/>
  <use id="arrowright" xlink:href="#arrowRight" x="0" y="0" onmousedown="handlePan(1,0)"/>
  <use id="arrowdown" xlink:href="#arrowDown" x="0" y="0" onmousedown="handlePan(0,1)"/>
  <use id="arrowleft" xlink:href="#arrowLeft" x="0" y="0" onmousedown="handlePan(-1,0)"/>
</g>
<svg viewBox="0 0 15 15" width="100%" height="30px" preserveAspectRatio="xMaxYMin meet">
 <g id="arrow_out" transform="scale(0.3 0.3)">
  <a xlink:href="scara__kinematics_8h__incl_org.svg" target="_base">
   <rect id="button" ry="5" rx="5" y="6" x="6" height="38" width="38"
        fill="#f2f5e9" fill-opacity="0.5" stroke="#606060" stroke-width="1.0"/>
   <path id="arrow"
     d="M 11.500037,31.436501 C 11.940474,20.09759 22.043105,11.32322 32.158766,21.979434 L 37.068811,17.246167 C 37.068811,17.246167 37.088388,32 37.088388,32 L 22.160133,31.978069 C 22.160133,31.978069 26.997745,27.140456 26.997745,27.140456 C 18.528582,18.264221 13.291696,25.230495 11.500037,31.436501 z"
     style="fill:#404040;"/>
  </a>
 </g>
</svg>

<style type='text/css'>
<![CDATA[
[data-mouse-over-selected='false'] { opacity: 0.7; }
[data-mouse-over-selected='true']  { opacity: 1.0; }
]]>
</style>
<script type="application/ecmascript"><![CDATA[
document.addEventListener('DOMContentLoaded', (event) => {
  highlightEdges();
  highlightAdjacentNodes();
});
]]></script>
</svg>
