<?xml version="1.0" encoding="UTF-8" standalone="no"?>
<!DOCTYPE svg PUBLIC "-//W3C//DTD SVG 1.1//EN"
 "http://www.w3.org/Graphics/SVG/1.1/DTD/svg11.dtd">
<!-- Generated by graphviz version 14.1.5 (0)
 -->
<!-- Title: source/motion/scara_kinematics/scara_kinematics.c Pages: 1 -->
<svg width="1382pt" height="534pt"
 viewBox="0.00 0.00 1382.00 534.00" xmlns="http://www.w3.org/2000/svg" xmlns:xlink="http://www.w3.org/1999/xlink">
<g id="graph0" class="graph" transform="scale(1 1) rotate(0) translate(4 529.75)">
<title>source/motion/scara_kinematics/scara_kinematics.c</title>
<!-- Node1 -->
<g id="Node000001" class="node">
<title>Node1</title>
<g id="a_Node000001"><a xlink:title=" ">
<polygon fill="#999999" stroke="#666666" points="1109.16,-525.75 937.16,-525.75 937.16,-492.25 1109.16,-492.25 1109.16,-525.75"/>
<text xml:space="preserve" text-anchor="start" x="945.16" y="-512.25" font-family="Helvetica,sans-Serif" font-size="10.00">source/motion/scara</text>
<text xml:space="preserve" text-anchor="middle" x="1023.16" y="-499.5" font-family="Helvetica,sans-Serif" font-size="10.00">_kinematics/scara_kinematics.c</text>
</a>
</g>
</g>
<!-- Node2 -->
<g id="Node000002" class="node">
<title>Node2</title>
<g id="a_Node000002"><a xlink:href="motor__core_8h.html" target="_top" xlink:title=" ">
<polygon fill="white" stroke="#666666" points="629.41,-247.75 548.91,-247.75 548.91,-227 629.41,-227 629.41,-247.75"/>
<text xml:space="preserve" text-anchor="middle" x="589.16" y="-234.25" font-family="Helvetica,sans-Serif" font-size="10.00">motor_core.h</text>
</a>
</g>
</g>
<!-- Node1&#45;&gt;Node2 -->
<g id="edge1_Node000001_Node000002" class="edge">
<title>Node1&#45;&gt;Node2</title>
<g id="a_edge1_Node000001_Node000002"><a xlink:title=" ">
<path fill="none" stroke="#63b8ff" d="M936.75,-502.61C888.58,-496.48 829.04,-483.53 782.16,-456.25 694.97,-405.52 626.4,-301.43 600.43,-258.04"/>
<polygon fill="#63b8ff" stroke="#63b8ff" points="603.48,-256.32 595.4,-249.47 597.44,-259.87 603.48,-256.32"/>
</a>
</g>
</g>
<!-- Node22 -->
<g id="Node000022" class="node">
<title>Node22</title>
<g id="a_Node000022"><a xlink:href="sync__wait_8h.html" target="_top" xlink:title=" ">
<polygon fill="white" stroke="#666666" points="1298.03,-191 1224.28,-191 1224.28,-170.25 1298.03,-170.25 1298.03,-191"/>
<text xml:space="preserve" text-anchor="middle" x="1261.16" y="-177.5" font-family="Helvetica,sans-Serif" font-size="10.00">sync_wait.h</text>
</a>
</g>
</g>
<!-- Node1&#45;&gt;Node22 -->
<g id="edge39_Node000001_Node000022" class="edge">
<title>Node1&#45;&gt;Node22</title>
<g id="a_edge39_Node000001_Node000022"><a xlink:title=" ">
<path fill="none" stroke="#63b8ff" d="M1109.33,-500.01C1188.35,-487.39 1293.16,-454.84 1293.16,-371 1293.16,-371 1293.16,-371 1293.16,-299.5 1293.16,-264.29 1279.69,-225.16 1270.23,-202.01"/>
<polygon fill="#63b8ff" stroke="#63b8ff" points="1273.48,-200.69 1266.34,-192.86 1267.03,-203.43 1273.48,-200.69"/>
</a>
</g>
</g>
<!-- Node23 -->
<g id="Node000023" class="node">
<title>Node23</title>
<g id="a_Node000023"><a xlink:title=" ">
<polygon fill="#e0e0e0" stroke="#999999" points="874.41,-449.88 823.91,-449.88 823.91,-429.12 874.41,-429.12 874.41,-449.88"/>
<text xml:space="preserve" text-anchor="middle" x="849.16" y="-436.38" font-family="Helvetica,sans-Serif" font-size="10.00">math.h</text>
</a>
</g>
</g>
<!-- Node1&#45;&gt;Node23 -->
<g id="edge45_Node000001_Node000023" class="edge">
<title>Node1&#45;&gt;Node23</title>
<g id="a_edge45_Node000001_Node000023"><a xlink:title=" ">
<path fill="none" stroke="#63b8ff" d="M976.45,-491.79C949.06,-482.02 913.91,-469.03 883.16,-456.25 882.05,-455.79 880.92,-455.31 879.78,-454.82"/>
<polygon fill="#63b8ff" stroke="#63b8ff" points="881.48,-451.75 870.92,-450.88 878.63,-458.14 881.48,-451.75"/>
</a>
</g>
</g>
<!-- Node24 -->
<g id="Node000024" class="node">
<title>Node24</title>
<g id="a_Node000024"><a xlink:href="motor__homing_8h.html" target="_top" xlink:title=" ">
<polygon fill="white" stroke="#666666" points="1216.41,-386.75 1093.91,-386.75 1093.91,-353.25 1216.41,-353.25 1216.41,-386.75"/>
<text xml:space="preserve" text-anchor="start" x="1101.91" y="-373.25" font-family="Helvetica,sans-Serif" font-size="10.00">motion/homing/motor</text>
<text xml:space="preserve" text-anchor="middle" x="1155.16" y="-360.5" font-family="Helvetica,sans-Serif" font-size="10.00">_homing.h</text>
</a>
</g>
</g>
<!-- Node1&#45;&gt;Node24 -->
<g id="edge46_Node000001_Node000024" class="edge">
<title>Node1&#45;&gt;Node24</title>
<g id="a_edge46_Node000001_Node000024"><a xlink:title=" ">
<path fill="none" stroke="#63b8ff" d="M1038.49,-492.15C1048.39,-481.92 1061.54,-468.3 1073.16,-456.25 1093.12,-435.54 1115.79,-411.97 1132.23,-394.87"/>
<polygon fill="#63b8ff" stroke="#63b8ff" points="1134.3,-397.76 1138.71,-388.13 1129.25,-392.91 1134.3,-397.76"/>
</a>
</g>
</g>
<!-- Node28 -->
<g id="Node000028" class="node">
<title>Node28</title>
<g id="a_Node000028"><a xlink:href="scara__kinematics_8h.html" target="_top" xlink:title=" ">
<polygon fill="white" stroke="#666666" points="806.66,-317.25 667.66,-317.25 667.66,-283.75 806.66,-283.75 806.66,-317.25"/>
<text xml:space="preserve" text-anchor="start" x="675.66" y="-303.75" font-family="Helvetica,sans-Serif" font-size="10.00">motion/scara_kinematics</text>
<text xml:space="preserve" text-anchor="middle" x="737.16" y="-291" font-family="Helvetica,sans-Serif" font-size="10.00">/scara_kinematics.h</text>
</a>
</g>
</g>
<!-- Node1&#45;&gt;Node28 -->
<g id="edge56_Node000001_Node000028" class="edge">
<title>Node1&#45;&gt;Node28</title>
<g id="a_edge56_Node000001_Node000028"><a xlink:title=" ">
<path fill="none" stroke="#63b8ff" d="M936.91,-502.99C896.34,-496.79 849.47,-483.65 815.16,-456.25 773.97,-423.36 752.63,-363.01 743.26,-328.19"/>
<polygon fill="#63b8ff" stroke="#63b8ff" points="746.75,-327.73 740.9,-318.9 739.97,-329.46 746.75,-327.73"/>
</a>
</g>
</g>
<!-- Node29 -->
<g id="Node000029" class="node">
<title>Node29</title>
<g id="a_Node000029"><a xlink:href="scara__kinematics__internal_8h.html" target="_top" xlink:title=" ">
<polygon fill="white" stroke="#666666" points="1048.28,-386.75 892.03,-386.75 892.03,-353.25 1048.28,-353.25 1048.28,-386.75"/>
<text xml:space="preserve" text-anchor="start" x="900.03" y="-373.25" font-family="Helvetica,sans-Serif" font-size="10.00">motion/scara_kinematics</text>
<text xml:space="preserve" text-anchor="middle" x="970.16" y="-360.5" font-family="Helvetica,sans-Serif" font-size="10.00">/scara_kinematics_internal.h</text>
</a>
</g>
</g>
<!-- Node1&#45;&gt;Node29 -->
<g id="edge63_Node000001_Node000029" class="edge">
<title>Node1&#45;&gt;Node29</title>
<g id="a_edge63_Node000001_Node000029"><a xlink:title=" ">
<path fill="none" stroke="#63b8ff" d="M1037.92,-492.01C1052.27,-474.41 1070.16,-445.6 1057.16,-422.75 1049.89,-409.97 1038.08,-400.01 1025.47,-392.4"/>
<polygon fill="#63b8ff" stroke="#63b8ff" points="1027.51,-389.53 1017.06,-387.76 1024.13,-395.66 1027.51,-389.53"/>
</a>
</g>
</g>
<!-- Node30 -->
<g id="Node000030" class="node">
<title>Node30</title>
<g id="a_Node000030"><a xlink:href="scara__kinematics__process_8h.html" target="_top" xlink:title=" ">
<polygon fill="white" stroke="#666666" points="1048.28,-456.25 892.03,-456.25 892.03,-422.75 1048.28,-422.75 1048.28,-456.25"/>
<text xml:space="preserve" text-anchor="start" x="900.03" y="-442.75" font-family="Helvetica,sans-Serif" font-size="10.00">motion/scara_kinematics</text>
<text xml:space="preserve" text-anchor="middle" x="970.16" y="-430" font-family="Helvetica,sans-Serif" font-size="10.00">/scara_kinematics_process.h</text>
</a>
</g>
</g>
<!-- Node1&#45;&gt;Node30 -->
<g id="edge70_Node000001_Node000030" class="edge">
<title>Node1&#45;&gt;Node30</title>
<g id="a_edge70_Node000001_Node000030"><a xlink:title=" ">
<path fill="none" stroke="#63b8ff" d="M1010.6,-492C1004.33,-484.02 996.6,-474.18 989.59,-465.25"/>
<polygon fill="#63b8ff" stroke="#63b8ff" points="992.49,-463.28 983.56,-457.57 986.99,-467.6 992.49,-463.28"/>
</a>
</g>
</g>
<!-- Node31 -->
<g id="Node000031" class="node">
<title>Node31</title>
<g id="a_Node000031"><a xlink:title=" ">
<polygon fill="#e0e0e0" stroke="#999999" points="1373.53,-449.88 1320.78,-449.88 1320.78,-429.12 1373.53,-429.12 1373.53,-449.88"/>
<text xml:space="preserve" text-anchor="middle" x="1347.16" y="-436.38" font-family="Helvetica,sans-Serif" font-size="10.00">string.h</text>
</a>
</g>
</g>
<!-- Node1&#45;&gt;Node31 -->
<g id="edge72_Node000001_Node000031" class="edge">
<title>Node1&#45;&gt;Node31</title>
<g id="a_edge72_Node000001_Node000031"><a xlink:title=" ">
<path fill="none" stroke="#63b8ff" d="M1109.6,-496.72C1166.39,-488.22 1241.97,-474.83 1307.16,-456.25 1309.4,-455.61 1311.69,-454.89 1313.99,-454.12"/>
<polygon fill="#63b8ff" stroke="#63b8ff" points="1314.95,-457.5 1323.16,-450.79 1312.56,-450.92 1314.95,-457.5"/>
</a>
</g>
</g>
<!-- Node3 -->
<g id="Node000003" class="node">
<title>Node3</title>
<g id="a_Node000003"><a xlink:href="pca9555a_8h.html" target="_top" xlink:title=" ">
<polygon fill="white" stroke="#666666" points="638.16,-77.5 484.16,-77.5 484.16,-56.75 638.16,-56.75 638.16,-77.5"/>
<text xml:space="preserve" text-anchor="middle" x="561.16" y="-64" font-family="Helvetica,sans-Serif" font-size="10.00">driver/pca9555a/pca9555a.h</text>
</a>
</g>
</g>
<!-- Node2&#45;&gt;Node3 -->
<g id="edge2_Node000002_Node000003" class="edge">
<title>Node2&#45;&gt;Node3</title>
<g id="a_edge2_Node000002_Node000003"><a xlink:title=" ">
<path fill="none" stroke="#63b8ff" d="M587.57,-226.85C583.19,-200.48 570.8,-126.08 564.68,-89.28"/>
<polygon fill="#63b8ff" stroke="#63b8ff" points="568.14,-88.75 563.05,-79.46 561.23,-89.9 568.14,-88.75"/>
</a>
</g>
</g>
<!-- Node6 -->
<g id="Node000006" class="node">
<title>Node6</title>
<g id="a_Node000006"><a xlink:title=" ">
<polygon fill="#e0e0e0" stroke="#999999" points="992.53,-191 903.78,-191 903.78,-170.25 992.53,-170.25 992.53,-191"/>
<text xml:space="preserve" text-anchor="middle" x="948.16" y="-177.5" font-family="Helvetica,sans-Serif" font-size="10.00">MK22F51212.h</text>
</a>
</g>
</g>
<!-- Node2&#45;&gt;Node6 -->
<g id="edge5_Node000002_Node000006" class="edge">
<title>Node2&#45;&gt;Node6</title>
<g id="a_edge5_Node000002_Node000006"><a xlink:title=" ">
<path fill="none" stroke="#63b8ff" d="M629.64,-230.2C693.87,-220.41 819.29,-201.28 892.11,-190.17"/>
<polygon fill="#63b8ff" stroke="#63b8ff" points="892.48,-193.66 901.84,-188.69 891.42,-186.74 892.48,-193.66"/>
</a>
</g>
</g>
<!-- Node7 -->
<g id="Node000007" class="node">
<title>Node7</title>
<g id="a_Node000007"><a xlink:href="step__core_8h.html" target="_top" xlink:title=" ">
<polygon fill="white" stroke="#666666" points="508.28,-191 436.03,-191 436.03,-170.25 508.28,-170.25 508.28,-191"/>
<text xml:space="preserve" text-anchor="middle" x="472.16" y="-177.5" font-family="Helvetica,sans-Serif" font-size="10.00">step_core.h</text>
</a>
</g>
</g>
<!-- Node2&#45;&gt;Node7 -->
<g id="edge6_Node000002_Node000007" class="edge">
<title>Node2&#45;&gt;Node7</title>
<g id="a_edge6_Node000002_Node000007"><a xlink:title=" ">
<path fill="none" stroke="#63b8ff" d="M568.24,-226.59C550.19,-218.14 523.86,-205.82 503.32,-196.21"/>
<polygon fill="#63b8ff" stroke="#63b8ff" points="504.81,-193.04 494.27,-191.97 501.84,-199.38 504.81,-193.04"/>
</a>
</g>
</g>
<!-- Node10 -->
<g id="Node000010" class="node">
<title>Node10</title>
<g id="a_Node000010"><a xlink:title=" ">
<polygon fill="#e0e0e0" stroke="#999999" points="167.53,-77.5 108.78,-77.5 108.78,-56.75 167.53,-56.75 167.53,-77.5"/>
<text xml:space="preserve" text-anchor="middle" x="138.16" y="-64" font-family="Helvetica,sans-Serif" font-size="10.00">fsl_ftm.h</text>
</a>
</g>
</g>
<!-- Node2&#45;&gt;Node10 -->
<g id="edge36_Node000002_Node000010" class="edge">
<title>Node2&#45;&gt;Node10</title>
<g id="a_edge36_Node000002_Node000010"><a xlink:title=" ">
<path fill="none" stroke="#63b8ff" d="M548.56,-233.89C473.39,-227.64 309.78,-206.18 195.16,-134.25 176.18,-122.34 160.1,-102.12 149.91,-87.17"/>
<polygon fill="#63b8ff" stroke="#63b8ff" points="153.05,-85.57 144.66,-79.1 147.18,-89.39 153.05,-85.57"/>
</a>
</g>
</g>
<!-- Node11 -->
<g id="Node000011" class="node">
<title>Node11</title>
<g id="a_Node000011"><a xlink:title=" ">
<polygon fill="#e0e0e0" stroke="#999999" points="427.78,-77.5 364.53,-77.5 364.53,-56.75 427.78,-56.75 427.78,-77.5"/>
<text xml:space="preserve" text-anchor="middle" x="396.16" y="-64" font-family="Helvetica,sans-Serif" font-size="10.00">fsl_gpio.h</text>
</a>
</g>
</g>
<!-- Node2&#45;&gt;Node11 -->
<g id="edge37_Node000002_Node000011" class="edge">
<title>Node2&#45;&gt;Node11</title>
<g id="a_edge37_Node000002_Node000011"><a xlink:title=" ">
<path fill="none" stroke="#63b8ff" d="M548.54,-234.27C512.86,-230.44 461.45,-219.88 427.16,-191 397.39,-165.93 393.96,-116.83 394.68,-88.89"/>
<polygon fill="#63b8ff" stroke="#63b8ff" points="398.16,-89.37 395.15,-79.21 391.17,-89.03 398.16,-89.37"/>
</a>
</g>
</g>
<!-- Node12 -->
<g id="Node000012" class="node">
<title>Node12</title>
<g id="a_Node000012"><a xlink:title=" ">
<polygon fill="#e0e0e0" stroke="#999999" points="91.03,-77.5 29.28,-77.5 29.28,-56.75 91.03,-56.75 91.03,-77.5"/>
<text xml:space="preserve" text-anchor="middle" x="60.16" y="-64" font-family="Helvetica,sans-Serif" font-size="10.00">fsl_port.h</text>
</a>
</g>
</g>
<!-- Node2&#45;&gt;Node12 -->
<g id="edge38_Node000002_Node000012" class="edge">
<title>Node2&#45;&gt;Node12</title>
<g id="a_edge38_Node000002_Node000012"><a xlink:title=" ">
<path fill="none" stroke="#63b8ff" d="M548.51,-235.47C486.46,-233.03 365.12,-224.03 268.16,-191 219.79,-174.52 212.18,-160.21 168.16,-134.25 139.55,-117.38 107.09,-97.39 85.3,-83.84"/>
<polygon fill="#63b8ff" stroke="#63b8ff" points="87.42,-81.04 77.08,-78.73 83.72,-86.98 87.42,-81.04"/>
</a>
</g>
</g>
<!-- Node19 -->
<g id="Node000019" class="node">
<title>Node19</title>
<g id="a_Node000019"><a xlink:href="tmc2209__core_8h.html" target="_top" xlink:title=" ">
<polygon fill="white" stroke="#666666" points="714.16,-191 620.16,-191 620.16,-170.25 714.16,-170.25 714.16,-191"/>
<text xml:space="preserve" text-anchor="middle" x="667.16" y="-177.5" font-family="Helvetica,sans-Serif" font-size="10.00">tmc2209_core.h</text>
</a>
</g>
</g>
<!-- Node2&#45;&gt;Node19 -->
<g id="edge28_Node000002_Node000019" class="edge">
<title>Node2&#45;&gt;Node19</title>
<g id="a_edge28_Node000002_Node000019"><a xlink:title=" ">
<path fill="none" stroke="#63b8ff" d="M603.1,-226.59C614.53,-218.57 630.93,-207.06 644.27,-197.69"/>
<polygon fill="#63b8ff" stroke="#63b8ff" points="645.92,-200.81 652.1,-192.2 641.9,-195.08 645.92,-200.81"/>
</a>
</g>
</g>
<!-- Node4 -->
<g id="Node000004" class="node">
<title>Node4</title>
<g id="a_Node000004"><a xlink:title=" ">
<polygon fill="#e0e0e0" stroke="#999999" points="603.66,-20.75 518.66,-20.75 518.66,0 603.66,0 603.66,-20.75"/>
<text xml:space="preserve" text-anchor="middle" x="561.16" y="-7.25" font-family="Helvetica,sans-Serif" font-size="10.00">fsl_common.h</text>
</a>
</g>
</g>
<!-- Node3&#45;&gt;Node4 -->
<g id="edge3_Node000003_Node000004" class="edge">
<title>Node3&#45;&gt;Node4</title>
<g id="a_edge3_Node000003_Node000004"><a xlink:title=" ">
<path fill="none" stroke="#63b8ff" d="M561.16,-56.34C561.16,-49.72 561.16,-40.72 561.16,-32.52"/>
<polygon fill="#63b8ff" stroke="#63b8ff" points="564.66,-32.59 561.16,-22.59 557.66,-32.59 564.66,-32.59"/>
</a>
</g>
</g>
<!-- Node5 -->
<g id="Node000005" class="node">
<title>Node5</title>
<g id="a_Node000005"><a xlink:title=" ">
<polygon fill="#e0e0e0" stroke="#999999" points="722.03,-20.75 642.28,-20.75 642.28,0 722.03,0 722.03,-20.75"/>
<text xml:space="preserve" text-anchor="middle" x="682.16" y="-7.25" font-family="Helvetica,sans-Serif" font-size="10.00">peripherals.h</text>
</a>
</g>
</g>
<!-- Node3&#45;&gt;Node5 -->
<g id="edge4_Node000003_Node000005" class="edge">
<title>Node3&#45;&gt;Node5</title>
<g id="a_edge4_Node000003_Node000005"><a xlink:title=" ">
<path fill="none" stroke="#63b8ff" d="M582.79,-56.34C601.63,-47.81 629.19,-35.34 650.51,-25.69"/>
<polygon fill="#63b8ff" stroke="#63b8ff" points="651.67,-29.01 659.33,-21.7 648.78,-22.64 651.67,-29.01"/>
</a>
</g>
</g>
<!-- Node7&#45;&gt;Node3 -->
<g id="edge7_Node000007_Node000003" class="edge">
<title>Node7&#45;&gt;Node3</title>
<g id="a_edge7_Node000007_Node000003"><a xlink:title=" ">
<path fill="none" stroke="#63b8ff" d="M480.71,-170.04C488.73,-160.95 500.99,-146.86 511.16,-134.25 523.83,-118.54 537.63,-100.19 547.51,-86.82"/>
<polygon fill="#63b8ff" stroke="#63b8ff" points="550.22,-89.04 553.32,-78.9 544.58,-84.89 550.22,-89.04"/>
</a>
</g>
</g>
<!-- Node7&#45;&gt;Node4 -->
<g id="edge10_Node000007_Node000004" class="edge">
<title>Node7&#45;&gt;Node4</title>
<g id="a_edge10_Node000007_Node000004"><a xlink:title=" ">
<path fill="none" stroke="#63b8ff" d="M473.82,-169.93C475.29,-160.76 477.34,-146.62 478.16,-134.25 479.82,-109.05 476.21,-102.74 475.16,-77.5 474.78,-68.29 470.4,-64.65 475.16,-56.75 483.8,-42.42 498.64,-32.38 513.59,-25.47"/>
<polygon fill="#63b8ff" stroke="#63b8ff" points="514.61,-28.83 522.48,-21.74 511.91,-22.38 514.61,-28.83"/>
</a>
</g>
</g>
<!-- Node8 -->
<g id="Node000008" class="node">
<title>Node8</title>
<g id="a_Node000008"><a xlink:title=" ">
<polygon fill="#e0e0e0" stroke="#999999" points="1176.91,-77.5 1105.41,-77.5 1105.41,-56.75 1176.91,-56.75 1176.91,-77.5"/>
<text xml:space="preserve" text-anchor="middle" x="1141.16" y="-64" font-family="Helvetica,sans-Serif" font-size="10.00">FreeRTOS.h</text>
</a>
</g>
</g>
<!-- Node7&#45;&gt;Node8 -->
<g id="edge8_Node000007_Node000008" class="edge">
<title>Node7&#45;&gt;Node8</title>
<g id="a_edge8_Node000007_Node000008"><a xlink:title=" ">
<path fill="none" stroke="#63b8ff" d="M508.72,-175C568.24,-167.35 689.75,-151.2 792.16,-134.25 900.57,-116.3 1027.15,-91.3 1094.08,-77.76"/>
<polygon fill="#63b8ff" stroke="#63b8ff" points="1094.49,-81.25 1103.6,-75.83 1093.1,-74.39 1094.49,-81.25"/>
</a>
</g>
</g>
<!-- Node9 -->
<g id="Node000009" class="node">
<title>Node9</title>
<g id="a_Node000009"><a xlink:title=" ">
<polygon fill="#e0e0e0" stroke="#999999" points="469.16,-134.25 423.16,-134.25 423.16,-113.5 469.16,-113.5 469.16,-134.25"/>
<text xml:space="preserve" text-anchor="middle" x="446.16" y="-120.75" font-family="Helvetica,sans-Serif" font-size="10.00">task.h</text>
</a>
</g>
</g>
<!-- Node7&#45;&gt;Node9 -->
<g id="edge9_Node000007_Node000009" class="edge">
<title>Node7&#45;&gt;Node9</title>
<g id="a_edge9_Node000007_Node000009"><a xlink:title=" ">
<path fill="none" stroke="#63b8ff" d="M467.51,-169.84C464.22,-162.91 459.69,-153.37 455.65,-144.86"/>
<polygon fill="#63b8ff" stroke="#63b8ff" points="458.87,-143.48 451.42,-135.95 452.54,-146.48 458.87,-143.48"/>
</a>
</g>
</g>
<!-- Node7&#45;&gt;Node10 -->
<g id="edge11_Node000007_Node000010" class="edge">
<title>Node7&#45;&gt;Node10</title>
<g id="a_edge11_Node000007_Node000010"><a xlink:title=" ">
<path fill="none" stroke="#63b8ff" d="M435.68,-177.17C388.17,-172.97 303.26,-161.97 236.16,-134.25 206.76,-122.1 177.04,-100.43 158.16,-85.21"/>
<polygon fill="#63b8ff" stroke="#63b8ff" points="160.44,-82.56 150.5,-78.89 155.99,-87.96 160.44,-82.56"/>
</a>
</g>
</g>
<!-- Node7&#45;&gt;Node11 -->
<g id="edge12_Node000007_Node000011" class="edge">
<title>Node7&#45;&gt;Node11</title>
<g id="a_edge12_Node000007_Node000011"><a xlink:title=" ">
<path fill="none" stroke="#63b8ff" d="M454.15,-169.81C441.19,-161.85 424.27,-149.48 414.16,-134.25 405.19,-120.74 400.67,-102.88 398.4,-89.12"/>
<polygon fill="#63b8ff" stroke="#63b8ff" points="401.89,-88.83 397.09,-79.39 394.96,-89.76 401.89,-88.83"/>
</a>
</g>
</g>
<!-- Node7&#45;&gt;Node12 -->
<g id="edge13_Node000007_Node000012" class="edge">
<title>Node7&#45;&gt;Node12</title>
<g id="a_edge13_Node000007_Node000012"><a xlink:title=" ">
<path fill="none" stroke="#63b8ff" d="M435.96,-177.09C382.29,-172.58 278.95,-160.99 195.16,-134.25 155.21,-121.5 112.23,-98.71 85.76,-83.5"/>
<polygon fill="#63b8ff" stroke="#63b8ff" points="87.84,-80.66 77.44,-78.65 84.32,-86.71 87.84,-80.66"/>
</a>
</g>
</g>
<!-- Node13 -->
<g id="Node000013" class="node">
<title>Node13</title>
<g id="a_Node000013"><a xlink:href="cmd__handle_8h.html" target="_top" xlink:title=" ">
<polygon fill="white" stroke="#666666" points="1075.28,-134.25 991.03,-134.25 991.03,-113.5 1075.28,-113.5 1075.28,-134.25"/>
<text xml:space="preserve" text-anchor="middle" x="1033.16" y="-120.75" font-family="Helvetica,sans-Serif" font-size="10.00">cmd_handle.h</text>
</a>
</g>
</g>
<!-- Node7&#45;&gt;Node13 -->
<g id="edge14_Node000007_Node000013" class="edge">
<title>Node7&#45;&gt;Node13</title>
<g id="a_edge14_Node000007_Node000013"><a xlink:title=" ">
<path fill="none" stroke="#63b8ff" d="M508.54,-176.07C604.78,-166.68 866.45,-141.15 979.71,-130.09"/>
<polygon fill="#63b8ff" stroke="#63b8ff" points="979.72,-133.61 989.34,-129.15 979.04,-126.64 979.72,-133.61"/>
</a>
</g>
</g>
<!-- Node17 -->
<g id="Node000017" class="node">
<title>Node17</title>
<g id="a_Node000017"><a xlink:href="step__shared_8h.html" target="_top" xlink:title=" ">
<polygon fill="white" stroke="#666666" points="329.28,-134.25 245.03,-134.25 245.03,-113.5 329.28,-113.5 329.28,-134.25"/>
<text xml:space="preserve" text-anchor="middle" x="287.16" y="-120.75" font-family="Helvetica,sans-Serif" font-size="10.00">step_shared.h</text>
</a>
</g>
</g>
<!-- Node7&#45;&gt;Node17 -->
<g id="edge20_Node000007_Node000017" class="edge">
<title>Node7&#45;&gt;Node17</title>
<g id="a_edge20_Node000007_Node000017"><a xlink:title=" ">
<path fill="none" stroke="#63b8ff" d="M439.08,-169.84C408.92,-160.91 364.15,-147.66 331.01,-137.85"/>
<polygon fill="#63b8ff" stroke="#63b8ff" points="332.29,-134.58 321.71,-135.1 330.31,-141.29 332.29,-134.58"/>
</a>
</g>
</g>
<!-- Node13&#45;&gt;Node4 -->
<g id="edge18_Node000013_Node000004" class="edge">
<title>Node13&#45;&gt;Node4</title>
<g id="a_edge18_Node000013_Node000004"><a xlink:title=" ">
<path fill="none" stroke="#63b8ff" d="M1021.99,-113.02C1004.32,-98.04 968.19,-69.89 932.16,-56.75 806.41,-10.89 765.97,-37.39 633.16,-20.75 627.22,-20.01 621,-19.21 614.82,-18.42"/>
<polygon fill="#63b8ff" stroke="#63b8ff" points="615.66,-15 605.29,-17.19 614.76,-21.94 615.66,-15"/>
</a>
</g>
</g>
<!-- Node13&#45;&gt;Node8 -->
<g id="edge16_Node000013_Node000008" class="edge">
<title>Node13&#45;&gt;Node8</title>
<g id="a_edge16_Node000013_Node000008"><a xlink:title=" ">
<path fill="none" stroke="#63b8ff" d="M1052.47,-113.09C1068.98,-104.72 1092.99,-92.54 1111.87,-82.97"/>
<polygon fill="#63b8ff" stroke="#63b8ff" points="1113.33,-86.16 1120.67,-78.51 1110.17,-79.91 1113.33,-86.16"/>
</a>
</g>
</g>
<!-- Node14 -->
<g id="Node000014" class="node">
<title>Node14</title>
<g id="a_Node000014"><a xlink:title=" ">
<polygon fill="#e0e0e0" stroke="#999999" points="923.53,-77.5 870.78,-77.5 870.78,-56.75 923.53,-56.75 923.53,-77.5"/>
<text xml:space="preserve" text-anchor="middle" x="897.16" y="-64" font-family="Helvetica,sans-Serif" font-size="10.00">stdint.h</text>
</a>
</g>
</g>
<!-- Node13&#45;&gt;Node14 -->
<g id="edge15_Node000013_Node000014" class="edge">
<title>Node13&#45;&gt;Node14</title>
<g id="a_edge15_Node000013_Node000014"><a xlink:title=" ">
<path fill="none" stroke="#63b8ff" d="M1008.84,-113.09C987.38,-104.44 955.84,-91.75 931.74,-82.05"/>
<polygon fill="#63b8ff" stroke="#63b8ff" points="933.25,-78.88 922.67,-78.39 930.64,-85.38 933.25,-78.88"/>
</a>
</g>
</g>
<!-- Node15 -->
<g id="Node000015" class="node">
<title>Node15</title>
<g id="a_Node000015"><a xlink:title=" ">
<polygon fill="#e0e0e0" stroke="#999999" points="1312.66,-77.5 1221.66,-77.5 1221.66,-56.75 1312.66,-56.75 1312.66,-77.5"/>
<text xml:space="preserve" text-anchor="middle" x="1267.16" y="-64" font-family="Helvetica,sans-Serif" font-size="10.00">event_groups.h</text>
</a>
</g>
</g>
<!-- Node13&#45;&gt;Node15 -->
<g id="edge17_Node000013_Node000015" class="edge">
<title>Node13&#45;&gt;Node15</title>
<g id="a_edge17_Node000013_Node000015"><a xlink:title=" ">
<path fill="none" stroke="#63b8ff" d="M1075.26,-113.02C1114.07,-103.94 1171.85,-90.42 1213.87,-80.59"/>
<polygon fill="#63b8ff" stroke="#63b8ff" points="1214.58,-84.02 1223.52,-78.33 1212.99,-77.2 1214.58,-84.02"/>
</a>
</g>
</g>
<!-- Node16 -->
<g id="Node000016" class="node">
<title>Node16</title>
<g id="a_Node000016"><a xlink:title=" ">
<polygon fill="#e0e0e0" stroke="#999999" points="1059.16,-77.5 1007.16,-77.5 1007.16,-56.75 1059.16,-56.75 1059.16,-77.5"/>
<text xml:space="preserve" text-anchor="middle" x="1033.16" y="-64" font-family="Helvetica,sans-Serif" font-size="10.00">stdlib.h</text>
</a>
</g>
</g>
<!-- Node13&#45;&gt;Node16 -->
<g id="edge19_Node000013_Node000016" class="edge">
<title>Node13&#45;&gt;Node16</title>
<g id="a_edge19_Node000013_Node000016"><a xlink:title=" ">
<path fill="none" stroke="#63b8ff" d="M1033.16,-113.09C1033.16,-106.47 1033.16,-97.47 1033.16,-89.27"/>
<polygon fill="#63b8ff" stroke="#63b8ff" points="1036.66,-89.34 1033.16,-79.34 1029.66,-89.34 1036.66,-89.34"/>
</a>
</g>
</g>
<!-- Node17&#45;&gt;Node3 -->
<g id="edge22_Node000017_Node000003" class="edge">
<title>Node17&#45;&gt;Node3</title>
<g id="a_edge22_Node000017_Node000003"><a xlink:title=" ">
<path fill="none" stroke="#63b8ff" d="M329.67,-114.38C375.6,-105.2 449.17,-90.5 501.02,-80.14"/>
<polygon fill="#63b8ff" stroke="#63b8ff" points="501.45,-83.62 510.58,-78.23 500.08,-76.76 501.45,-83.62"/>
</a>
</g>
</g>
<!-- Node17&#45;&gt;Node4 -->
<g id="edge24_Node000017_Node000004" class="edge">
<title>Node17&#45;&gt;Node4</title>
<g id="a_edge24_Node000017_Node000004"><a xlink:title=" ">
<path fill="none" stroke="#63b8ff" d="M294.31,-113.06C305.54,-98.39 328.77,-70.96 355.16,-56.75 402.71,-31.14 463.84,-19.98 507.12,-15.12"/>
<polygon fill="#63b8ff" stroke="#63b8ff" points="507.46,-18.6 517.05,-14.09 506.74,-11.64 507.46,-18.6"/>
</a>
</g>
</g>
<!-- Node17&#45;&gt;Node10 -->
<g id="edge25_Node000017_Node000010" class="edge">
<title>Node17&#45;&gt;Node10</title>
<g id="a_edge25_Node000017_Node000010"><a xlink:title=" ">
<path fill="none" stroke="#63b8ff" d="M260.52,-113.09C236.86,-104.39 202.04,-91.6 175.59,-81.88"/>
<polygon fill="#63b8ff" stroke="#63b8ff" points="176.83,-78.61 166.24,-78.44 174.42,-85.18 176.83,-78.61"/>
</a>
</g>
</g>
<!-- Node17&#45;&gt;Node11 -->
<g id="edge26_Node000017_Node000011" class="edge">
<title>Node17&#45;&gt;Node11</title>
<g id="a_edge26_Node000017_Node000011"><a xlink:title=" ">
<path fill="none" stroke="#63b8ff" d="M306.65,-113.09C323.31,-104.72 347.54,-92.54 366.59,-82.97"/>
<polygon fill="#63b8ff" stroke="#63b8ff" points="368.12,-86.12 375.49,-78.51 364.98,-79.87 368.12,-86.12"/>
</a>
</g>
</g>
<!-- Node17&#45;&gt;Node12 -->
<g id="edge27_Node000017_Node000012" class="edge">
<title>Node17&#45;&gt;Node12</title>
<g id="a_edge27_Node000017_Node000012"><a xlink:title=" ">
<path fill="none" stroke="#63b8ff" d="M246.31,-113.02C205.59,-103.2 143.35,-88.19 102.21,-78.27"/>
<polygon fill="#63b8ff" stroke="#63b8ff" points="103.22,-74.91 92.67,-75.97 101.57,-81.71 103.22,-74.91"/>
</a>
</g>
</g>
<!-- Node17&#45;&gt;Node14 -->
<g id="edge21_Node000017_Node000014" class="edge">
<title>Node17&#45;&gt;Node14</title>
<g id="a_edge21_Node000017_Node000014"><a xlink:title=" ">
<path fill="none" stroke="#63b8ff" d="M329.55,-119.7C451.27,-110.54 796.34,-84.3 847.16,-77.5 851.09,-76.97 855.17,-76.34 859.24,-75.66"/>
<polygon fill="#63b8ff" stroke="#63b8ff" points="859.79,-79.12 869.02,-73.92 858.57,-72.23 859.79,-79.12"/>
</a>
</g>
</g>
<!-- Node18 -->
<g id="Node000018" class="node">
<title>Node18</title>
<g id="a_Node000018"><a xlink:title=" ">
<polygon fill="#e0e0e0" stroke="#999999" points="308.41,-77.5 185.91,-77.5 185.91,-56.75 308.41,-56.75 308.41,-77.5"/>
<text xml:space="preserve" text-anchor="middle" x="247.16" y="-64" font-family="Helvetica,sans-Serif" font-size="10.00">fsl_device_registers.h</text>
</a>
</g>
</g>
<!-- Node17&#45;&gt;Node18 -->
<g id="edge23_Node000017_Node000018" class="edge">
<title>Node17&#45;&gt;Node18</title>
<g id="a_edge23_Node000017_Node000018"><a xlink:title=" ">
<path fill="none" stroke="#63b8ff" d="M280.01,-113.09C274.72,-105.85 267.35,-95.76 260.93,-86.97"/>
<polygon fill="#63b8ff" stroke="#63b8ff" points="263.87,-85.06 255.14,-79.05 258.21,-89.19 263.87,-85.06"/>
</a>
</g>
</g>
<!-- Node19&#45;&gt;Node4 -->
<g id="edge33_Node000019_Node000004" class="edge">
<title>Node19&#45;&gt;Node4</title>
<g id="a_edge33_Node000019_Node000004"><a xlink:title=" ">
<path fill="none" stroke="#63b8ff" d="M666.1,-170.04C663,-142.75 653.78,-65.96 647.16,-56.75 637.07,-42.72 621.3,-32.65 606,-25.62"/>
<polygon fill="#63b8ff" stroke="#63b8ff" points="607.53,-22.47 596.96,-21.82 604.82,-28.92 607.53,-22.47"/>
</a>
</g>
</g>
<!-- Node19&#45;&gt;Node5 -->
<g id="edge35_Node000019_Node000005" class="edge">
<title>Node19&#45;&gt;Node5</title>
<g id="a_edge35_Node000019_Node000005"><a xlink:title=" ">
<path fill="none" stroke="#63b8ff" d="M666.4,-170.12C665.57,-157.21 664.77,-133.42 668.16,-113.5 670.99,-96.87 677.21,-94.1 680.16,-77.5 682.81,-62.57 683.26,-45.46 683.07,-32.38"/>
<polygon fill="#63b8ff" stroke="#63b8ff" points="686.57,-32.29 682.78,-22.39 679.58,-32.49 686.57,-32.29"/>
</a>
</g>
</g>
<!-- Node19&#45;&gt;Node13 -->
<g id="edge34_Node000019_Node000013" class="edge">
<title>Node19&#45;&gt;Node13</title>
<g id="a_edge34_Node000019_Node000013"><a xlink:title=" ">
<path fill="none" stroke="#63b8ff" d="M714.63,-172.52C782.84,-162.32 908.19,-143.57 979.61,-132.88"/>
<polygon fill="#63b8ff" stroke="#63b8ff" points="979.73,-136.41 989.1,-131.47 978.69,-129.48 979.73,-136.41"/>
</a>
</g>
</g>
<!-- Node19&#45;&gt;Node14 -->
<g id="edge29_Node000019_Node000014" class="edge">
<title>Node19&#45;&gt;Node14</title>
<g id="a_edge29_Node000019_Node000014"><a xlink:title=" ">
<path fill="none" stroke="#63b8ff" d="M700.06,-169.81C725.73,-161.65 761.99,-149.02 792.16,-134.25 821.92,-119.68 853.83,-98.75 874.56,-84.36"/>
<polygon fill="#63b8ff" stroke="#63b8ff" points="876.37,-87.36 882.54,-78.74 872.34,-81.63 876.37,-87.36"/>
</a>
</g>
</g>
<!-- Node20 -->
<g id="Node000020" class="node">
<title>Node20</title>
<g id="a_Node000020"><a xlink:href="tmc2209__shared_8h.html" target="_top" xlink:title=" ">
<polygon fill="white" stroke="#666666" points="783.16,-134.25 677.16,-134.25 677.16,-113.5 783.16,-113.5 783.16,-134.25"/>
<text xml:space="preserve" text-anchor="middle" x="730.16" y="-120.75" font-family="Helvetica,sans-Serif" font-size="10.00">tmc2209_shared.h</text>
</a>
</g>
</g>
<!-- Node19&#45;&gt;Node20 -->
<g id="edge30_Node000019_Node000020" class="edge">
<title>Node19&#45;&gt;Node20</title>
<g id="a_edge30_Node000019_Node000020"><a xlink:title=" ">
<path fill="none" stroke="#63b8ff" d="M678.42,-169.84C687.29,-162.13 699.87,-151.2 710.41,-142.04"/>
<polygon fill="#63b8ff" stroke="#63b8ff" points="712.6,-144.77 717.85,-135.57 708.01,-139.49 712.6,-144.77"/>
</a>
</g>
</g>
<!-- Node20&#45;&gt;Node14 -->
<g id="edge31_Node000020_Node000014" class="edge">
<title>Node20&#45;&gt;Node14</title>
<g id="a_edge31_Node000020_Node000014"><a xlink:title=" ">
<path fill="none" stroke="#63b8ff" d="M760.01,-113.09C787.8,-103.98 829.33,-90.36 859.41,-80.5"/>
<polygon fill="#63b8ff" stroke="#63b8ff" points="860.47,-83.84 868.88,-77.4 858.29,-77.19 860.47,-83.84"/>
</a>
</g>
</g>
<!-- Node21 -->
<g id="Node000021" class="node">
<title>Node21</title>
<g id="a_Node000021"><a xlink:title=" ">
<polygon fill="#e0e0e0" stroke="#999999" points="837.78,-77.5 732.53,-77.5 732.53,-56.75 837.78,-56.75 837.78,-77.5"/>
<text xml:space="preserve" text-anchor="middle" x="785.16" y="-64" font-family="Helvetica,sans-Serif" font-size="10.00">fsl_uart_freertos.h</text>
</a>
</g>
</g>
<!-- Node20&#45;&gt;Node21 -->
<g id="edge32_Node000020_Node000021" class="edge">
<title>Node20&#45;&gt;Node21</title>
<g id="a_edge32_Node000020_Node000021"><a xlink:title=" ">
<path fill="none" stroke="#63b8ff" d="M739.99,-113.09C747.58,-105.53 758.28,-94.89 767.36,-85.85"/>
<polygon fill="#63b8ff" stroke="#63b8ff" points="769.72,-88.43 774.34,-78.9 764.78,-83.47 769.72,-88.43"/>
</a>
</g>
</g>
<!-- Node22&#45;&gt;Node4 -->
<g id="edge43_Node000022_Node000004" class="edge">
<title>Node22&#45;&gt;Node4</title>
<g id="a_edge43_Node000022_Node000004"><a xlink:title=" ">
<path fill="none" stroke="#63b8ff" d="M1272.96,-169.86C1298.71,-147.42 1355.11,-91.47 1322.16,-56.75 1295.77,-28.95 671.33,-24.23 633.16,-20.75 627.42,-20.23 621.44,-19.59 615.48,-18.9"/>
<polygon fill="#63b8ff" stroke="#63b8ff" points="615.97,-15.44 605.62,-17.7 615.13,-22.39 615.97,-15.44"/>
</a>
</g>
</g>
<!-- Node22&#45;&gt;Node8 -->
<g id="edge41_Node000022_Node000008" class="edge">
<title>Node22&#45;&gt;Node8</title>
<g id="a_edge41_Node000022_Node000008"><a xlink:title=" ">
<path fill="none" stroke="#63b8ff" d="M1258.95,-169.93C1255.32,-155.91 1246.87,-129.87 1231.16,-113.5 1217.94,-99.73 1199.64,-89.45 1182.99,-82.19"/>
<polygon fill="#63b8ff" stroke="#63b8ff" points="1184.35,-78.97 1173.76,-78.43 1181.7,-85.45 1184.35,-78.97"/>
</a>
</g>
</g>
<!-- Node22&#45;&gt;Node13 -->
<g id="edge44_Node000022_Node000013" class="edge">
<title>Node22&#45;&gt;Node13</title>
<g id="a_edge44_Node000022_Node000013"><a xlink:title=" ">
<path fill="none" stroke="#63b8ff" d="M1224.02,-170.71C1186.26,-161.64 1127.44,-147.51 1085.07,-137.34"/>
<polygon fill="#63b8ff" stroke="#63b8ff" points="1086.15,-134 1075.61,-135.07 1084.51,-140.81 1086.15,-134"/>
</a>
</g>
</g>
<!-- Node22&#45;&gt;Node14 -->
<g id="edge40_Node000022_Node000014" class="edge">
<title>Node22&#45;&gt;Node14</title>
<g id="a_edge40_Node000022_Node000014"><a xlink:title=" ">
<path fill="none" stroke="#63b8ff" d="M1237.71,-169.84C1204.1,-156.05 1140.14,-130.68 1084.16,-113.5 1033.07,-97.82 972.82,-84.02 934.8,-75.87"/>
<polygon fill="#63b8ff" stroke="#63b8ff" points="935.74,-72.49 925.23,-73.84 934.29,-79.34 935.74,-72.49"/>
</a>
</g>
</g>
<!-- Node22&#45;&gt;Node15 -->
<g id="edge42_Node000022_Node000015" class="edge">
<title>Node22&#45;&gt;Node15</title>
<g id="a_edge42_Node000022_Node000015"><a xlink:title=" ">
<path fill="none" stroke="#63b8ff" d="M1263.37,-169.95C1265.34,-160.81 1268.07,-146.68 1269.16,-134.25 1270.48,-119.15 1269.91,-102.04 1269.04,-89.01"/>
<polygon fill="#63b8ff" stroke="#63b8ff" points="1272.53,-88.76 1268.26,-79.07 1265.56,-89.32 1272.53,-88.76"/>
</a>
</g>
</g>
<!-- Node24&#45;&gt;Node6 -->
<g id="edge55_Node000024_Node000006" class="edge">
<title>Node24&#45;&gt;Node6</title>
<g id="a_edge55_Node000024_Node000006"><a xlink:title=" ">
<path fill="none" stroke="#63b8ff" d="M1140.19,-352.9C1114.62,-325.74 1060.41,-269.62 1010.16,-227 997.92,-216.62 983.49,-205.97 971.63,-197.61"/>
<polygon fill="#63b8ff" stroke="#63b8ff" points="973.83,-194.87 963.62,-192.03 969.83,-200.62 973.83,-194.87"/>
</a>
</g>
</g>
<!-- Node24&#45;&gt;Node8 -->
<g id="edge54_Node000024_Node000008" class="edge">
<title>Node24&#45;&gt;Node8</title>
<g id="a_edge54_Node000024_Node000008"><a xlink:title=" ">
<path fill="none" stroke="#63b8ff" d="M1212.3,-352.84C1263.69,-334.39 1331.16,-298.69 1331.16,-238.38 1331.16,-238.38 1331.16,-238.38 1331.16,-179.62 1331.16,-113.61 1244.78,-85.93 1188.51,-74.9"/>
<polygon fill="#63b8ff" stroke="#63b8ff" points="1189.3,-71.48 1178.83,-73.12 1188.04,-78.37 1189.3,-71.48"/>
</a>
</g>
</g>
<!-- Node25 -->
<g id="Node000025" class="node">
<title>Node25</title>
<g id="a_Node000025"><a xlink:href="motor__internal_8h.html" target="_top" xlink:title=" ">
<polygon fill="white" stroke="#666666" points="1230.66,-310.88 1133.66,-310.88 1133.66,-290.12 1230.66,-290.12 1230.66,-310.88"/>
<text xml:space="preserve" text-anchor="middle" x="1182.16" y="-297.38" font-family="Helvetica,sans-Serif" font-size="10.00">motor_internal.h</text>
</a>
</g>
</g>
<!-- Node24&#45;&gt;Node25 -->
<g id="edge47_Node000024_Node000025" class="edge">
<title>Node24&#45;&gt;Node25</title>
<g id="a_edge47_Node000024_Node000025"><a xlink:title=" ">
<path fill="none" stroke="#63b8ff" d="M1161.56,-353C1165.28,-343.7 1170.01,-331.88 1173.99,-321.91"/>
<polygon fill="#63b8ff" stroke="#63b8ff" points="1177.2,-323.31 1177.67,-312.73 1170.7,-320.71 1177.2,-323.31"/>
</a>
</g>
</g>
<!-- Node25&#45;&gt;Node2 -->
<g id="edge50_Node000025_Node000002" class="edge">
<title>Node25&#45;&gt;Node2</title>
<g id="a_edge50_Node000025_Node000002"><a xlink:title=" ">
<path fill="none" stroke="#63b8ff" d="M1133.38,-294.47C1022.89,-283.08 754.34,-255.4 641,-243.72"/>
<polygon fill="#63b8ff" stroke="#63b8ff" points="641.69,-240.27 631.39,-242.73 640.98,-247.23 641.69,-240.27"/>
</a>
</g>
</g>
<!-- Node25&#45;&gt;Node8 -->
<g id="edge51_Node000025_Node000008" class="edge">
<title>Node25&#45;&gt;Node8</title>
<g id="a_edge51_Node000025_Node000008"><a xlink:title=" ">
<path fill="none" stroke="#63b8ff" d="M1195.94,-289.83C1207.81,-280.58 1224.11,-265.45 1231.16,-247.75 1234.57,-239.18 1233.51,-235.92 1231.16,-227 1227.19,-211.94 1176.28,-126.37 1152.83,-87.43"/>
<polygon fill="#63b8ff" stroke="#63b8ff" points="1155.95,-85.83 1147.79,-79.07 1149.96,-89.44 1155.95,-85.83"/>
</a>
</g>
</g>
<!-- Node25&#45;&gt;Node13 -->
<g id="edge53_Node000025_Node000013" class="edge">
<title>Node25&#45;&gt;Node13</title>
<g id="a_edge53_Node000025_Node000013"><a xlink:title=" ">
<path fill="none" stroke="#63b8ff" d="M1181.07,-289.8C1179.03,-275.11 1173.56,-246.84 1160.16,-227 1134.35,-188.79 1089.92,-157.84 1061.05,-140.39"/>
<polygon fill="#63b8ff" stroke="#63b8ff" points="1062.88,-137.41 1052.48,-135.35 1059.33,-143.44 1062.88,-137.41"/>
</a>
</g>
</g>
<!-- Node25&#45;&gt;Node14 -->
<g id="edge48_Node000025_Node000014" class="edge">
<title>Node25&#45;&gt;Node14</title>
<g id="a_edge48_Node000025_Node000014"><a xlink:title=" ">
<path fill="none" stroke="#63b8ff" d="M1181.56,-289.7C1180.17,-274.61 1175.53,-245.53 1160.16,-227 1103.2,-158.34 1057.23,-182.45 982.16,-134.25 958.53,-119.08 933.37,-98.95 916.61,-84.9"/>
<polygon fill="#63b8ff" stroke="#63b8ff" points="919.27,-82.57 909.38,-78.77 914.74,-87.91 919.27,-82.57"/>
</a>
</g>
</g>
<!-- Node26 -->
<g id="Node000026" class="node">
<title>Node26</title>
<g id="a_Node000026"><a xlink:title=" ">
<polygon fill="#e0e0e0" stroke="#999999" points="1000.66,-247.75 939.66,-247.75 939.66,-227 1000.66,-227 1000.66,-247.75"/>
<text xml:space="preserve" text-anchor="middle" x="970.16" y="-234.25" font-family="Helvetica,sans-Serif" font-size="10.00">stdbool.h</text>
</a>
</g>
</g>
<!-- Node25&#45;&gt;Node26 -->
<g id="edge49_Node000025_Node000026" class="edge">
<title>Node25&#45;&gt;Node26</title>
<g id="a_edge49_Node000025_Node000026"><a xlink:title=" ">
<path fill="none" stroke="#63b8ff" d="M1148.1,-289.68C1111.05,-279 1051.81,-261.92 1011.97,-250.43"/>
<polygon fill="#63b8ff" stroke="#63b8ff" points="1013.07,-247.1 1002.49,-247.7 1011.13,-253.83 1013.07,-247.1"/>
</a>
</g>
</g>
<!-- Node27 -->
<g id="Node000027" class="node">
<title>Node27</title>
<g id="a_Node000027"><a xlink:title=" ">
<polygon fill="#e0e0e0" stroke="#999999" points="1150.66,-247.75 1095.66,-247.75 1095.66,-227 1150.66,-227 1150.66,-247.75"/>
<text xml:space="preserve" text-anchor="middle" x="1123.16" y="-234.25" font-family="Helvetica,sans-Serif" font-size="10.00">queue.h</text>
</a>
</g>
</g>
<!-- Node25&#45;&gt;Node27 -->
<g id="edge52_Node000025_Node000027" class="edge">
<title>Node25&#45;&gt;Node27</title>
<g id="a_edge52_Node000025_Node000027"><a xlink:title=" ">
<path fill="none" stroke="#63b8ff" d="M1172.68,-289.68C1163.94,-280.63 1150.76,-266.97 1140.2,-256.03"/>
<polygon fill="#63b8ff" stroke="#63b8ff" points="1142.93,-253.82 1133.47,-249.06 1137.9,-258.68 1142.93,-253.82"/>
</a>
</g>
</g>
<!-- Node28&#45;&gt;Node2 -->
<g id="edge62_Node000028_Node000002" class="edge">
<title>Node28&#45;&gt;Node2</title>
<g id="a_edge62_Node000028_Node000002"><a xlink:title=" ">
<path fill="none" stroke="#63b8ff" d="M697.89,-283.28C674.74,-273.72 645.72,-261.74 623.49,-252.55"/>
<polygon fill="#63b8ff" stroke="#63b8ff" points="624.84,-249.33 614.26,-248.74 622.17,-255.8 624.84,-249.33"/>
</a>
</g>
</g>
<!-- Node28&#45;&gt;Node4 -->
<g id="edge60_Node000028_Node000004" class="edge">
<title>Node28&#45;&gt;Node4</title>
<g id="a_edge60_Node000028_Node000004"><a xlink:title=" ">
<path fill="none" stroke="#63b8ff" d="M667.25,-295.6C483.54,-284.42 1.16,-248.67 1.16,-181.62 1.16,-181.62 1.16,-181.62 1.16,-122.88 1.16,-92.3 -3.48,-76.15 20.16,-56.75 57.24,-26.31 377.55,-15.59 507.11,-12.47"/>
<polygon fill="#63b8ff" stroke="#63b8ff" points="506.88,-15.98 516.79,-12.25 506.71,-8.98 506.88,-15.98"/>
</a>
</g>
</g>
<!-- Node28&#45;&gt;Node8 -->
<g id="edge59_Node000028_Node000008" class="edge">
<title>Node28&#45;&gt;Node8</title>
<g id="a_edge59_Node000028_Node000008"><a xlink:title=" ">
<path fill="none" stroke="#63b8ff" d="M784.78,-283.35C838.71,-264.29 928.55,-230.18 1001.16,-191 1040.49,-169.78 1050.85,-164.04 1084.16,-134.25 1100.34,-119.78 1116.26,-100.8 1127.14,-86.89"/>
<polygon fill="#63b8ff" stroke="#63b8ff" points="1129.89,-89.06 1133.19,-78.99 1124.33,-84.81 1129.89,-89.06"/>
</a>
</g>
</g>
<!-- Node28&#45;&gt;Node13 -->
<g id="edge61_Node000028_Node000013" class="edge">
<title>Node28&#45;&gt;Node13</title>
<g id="a_edge61_Node000028_Node000013"><a xlink:title=" ">
<path fill="none" stroke="#63b8ff" d="M747.54,-283.68C766.4,-256.25 808.98,-199.97 859.16,-170.25 896,-148.43 943.31,-136.97 979.3,-131.03"/>
<polygon fill="#63b8ff" stroke="#63b8ff" points="979.71,-134.5 989.06,-129.52 978.64,-127.59 979.71,-134.5"/>
</a>
</g>
</g>
<!-- Node28&#45;&gt;Node14 -->
<g id="edge58_Node000028_Node000014" class="edge">
<title>Node28&#45;&gt;Node14</title>
<g id="a_edge58_Node000028_Node000014"><a xlink:title=" ">
<path fill="none" stroke="#63b8ff" d="M744,-283.45C750.67,-268.42 761.48,-245.55 773.16,-227 807.32,-172.73 856.13,-114.73 881.1,-86.16"/>
<polygon fill="#63b8ff" stroke="#63b8ff" points="883.61,-88.6 887.59,-78.79 878.36,-83.98 883.61,-88.6"/>
</a>
</g>
</g>
<!-- Node28&#45;&gt;Node26 -->
<g id="edge57_Node000028_Node000026" class="edge">
<title>Node28&#45;&gt;Node26</title>
<g id="a_edge57_Node000028_Node000026"><a xlink:title=" ">
<path fill="none" stroke="#63b8ff" d="M798.99,-283.28C839.86,-272.56 892.35,-258.79 928.36,-249.34"/>
<polygon fill="#63b8ff" stroke="#63b8ff" points="929.19,-252.74 937.98,-246.82 927.42,-245.97 929.19,-252.74"/>
</a>
</g>
</g>
<!-- Node29&#45;&gt;Node8 -->
<g id="edge66_Node000029_Node000008" class="edge">
<title>Node29&#45;&gt;Node8</title>
<g id="a_edge66_Node000029_Node000008"><a xlink:title=" ">
<path fill="none" stroke="#63b8ff" d="M980.08,-353C1003.32,-315.34 1062.73,-217.98 1108.16,-134.25 1116.49,-118.9 1125.29,-101.18 1131.71,-87.95"/>
<polygon fill="#63b8ff" stroke="#63b8ff" points="1134.82,-89.54 1136,-79.01 1128.52,-86.51 1134.82,-89.54"/>
</a>
</g>
</g>
<!-- Node29&#45;&gt;Node13 -->
<g id="edge68_Node000029_Node000013" class="edge">
<title>Node29&#45;&gt;Node13</title>
<g id="a_edge68_Node000029_Node000013"><a xlink:title=" ">
<path fill="none" stroke="#63b8ff" d="M954.51,-352.94C921.66,-317.26 852.02,-229.85 895.16,-170.25 914.3,-143.8 949.38,-132.5 979.37,-127.79"/>
<polygon fill="#63b8ff" stroke="#63b8ff" points="979.63,-131.29 989.08,-126.49 978.7,-124.35 979.63,-131.29"/>
</a>
</g>
</g>
<!-- Node29&#45;&gt;Node14 -->
<g id="edge65_Node000029_Node000014" class="edge">
<title>Node29&#45;&gt;Node14</title>
<g id="a_edge65_Node000029_Node000014"><a xlink:title=" ">
<path fill="none" stroke="#63b8ff" d="M939.5,-352.95C925.37,-344.14 909.48,-332 899.16,-317.25 880.73,-290.92 883.65,-279.58 879.16,-247.75 871.09,-190.51 883.99,-122.51 891.83,-88.97"/>
<polygon fill="#63b8ff" stroke="#63b8ff" points="895.21,-89.91 894.18,-79.36 888.41,-88.25 895.21,-89.91"/>
</a>
</g>
</g>
<!-- Node29&#45;&gt;Node26 -->
<g id="edge64_Node000029_Node000026" class="edge">
<title>Node29&#45;&gt;Node26</title>
<g id="a_edge64_Node000029_Node000026"><a xlink:title=" ">
<path fill="none" stroke="#63b8ff" d="M970.16,-352.98C970.16,-329.45 970.16,-285.49 970.16,-259.39"/>
<polygon fill="#63b8ff" stroke="#63b8ff" points="973.66,-259.69 970.16,-249.69 966.66,-259.69 973.66,-259.69"/>
</a>
</g>
</g>
<!-- Node29&#45;&gt;Node27 -->
<g id="edge67_Node000029_Node000027" class="edge">
<title>Node29&#45;&gt;Node27</title>
<g id="a_edge67_Node000029_Node000027"><a xlink:title=" ">
<path fill="none" stroke="#63b8ff" d="M1022.14,-352.84C1042.34,-344.62 1064.57,-332.98 1081.16,-317.25 1098.26,-301.03 1109.86,-276.28 1116.46,-258.84"/>
<polygon fill="#63b8ff" stroke="#63b8ff" points="1119.71,-260.15 1119.73,-249.55 1113.11,-257.82 1119.71,-260.15"/>
</a>
</g>
</g>
<!-- Node29&#45;&gt;Node28 -->
<g id="edge69_Node000029_Node000028" class="edge">
<title>Node29&#45;&gt;Node28</title>
<g id="a_edge69_Node000029_Node000028"><a xlink:title=" ">
<path fill="none" stroke="#63b8ff" d="M914.35,-352.83C881.04,-343.18 838.55,-330.87 803.53,-320.73"/>
<polygon fill="#63b8ff" stroke="#63b8ff" points="804.95,-317.49 794.37,-318.07 803,-324.22 804.95,-317.49"/>
</a>
</g>
</g>
<!-- Node30&#45;&gt;Node29 -->
<g id="edge71_Node000030_Node000029" class="edge">
<title>Node30&#45;&gt;Node29</title>
<g id="a_edge71_Node000030_Node000029"><a xlink:title=" ">
<path fill="none" stroke="#63b8ff" d="M970.16,-422.5C970.16,-415.27 970.16,-406.53 970.16,-398.31"/>
<polygon fill="#63b8ff" stroke="#63b8ff" points="973.66,-398.4 970.16,-388.4 966.66,-398.4 973.66,-398.4"/>
</a>
</g>
</g>
</g>
</svg>
