<?xml version="1.0" encoding="UTF-8" standalone="no"?>
<!DOCTYPE svg PUBLIC "-//W3C//DTD SVG 1.1//EN"
 "http://www.w3.org/Graphics/SVG/1.1/DTD/svg11.dtd">
<!-- Generated by graphviz version 14.1.5 (0)
 -->
<!-- Title: source/scara_kinematics_process.c Pages: 1 -->
<!--zoomable 496 -->

<svg id="main" version="1.1" xmlns="http://www.w3.org/2000/svg" xmlns:xlink="http://www.w3.org/1999/xlink" xml:space="preserve" onload="init(evt)">

<style type="text/css"><![CDATA[
.node, .edge {opacity: 0.7;}
.node.selected, .edge.selected {opacity: 1;}
.edge:hover path { stroke: red; }
.edge:hover polygon { stroke: red; fill: red; }
]]></style>

<defs>
  <circle id="rim" cx="0" cy="0" r="7"/>
  <circle id="rim2" cx="0" cy="0" r="3.5"/>
  <g id="zoomPlus">
    <use xlink:href="#rim" fill="#404040"><set attributeName="fill" to="#808080" begin="zoomplus.mouseover" end="zoomplus.mouseout"/></use>
    <path d="M-4,0h8M0,-4v8" fill="none" stroke="white" stroke-width="1.5" pointer-events="none"/>
  </g>
  <g id="zoomMin">
    <use xlink:href="#rim" fill="#404040"><set attributeName="fill" to="#808080" begin="zoomminus.mouseover" end="zoomminus.mouseout"/></use>
    <path d="M-4,0h8" fill="none" stroke="white" stroke-width="1.5" pointer-events="none"/>
  </g>
  <g id="arrowUp" transform="translate(30 24)">
    <use xlink:href="#rim"/>
    <path pointer-events="none" fill="none" stroke="white" stroke-width="1.5" d="M0,-3.0v7 M-2.5,-0.5L0,-3.0L2.5,-0.5"/>
  </g>
  <g id="arrowRight" transform="rotate(90) translate(36 -43)">
    <use xlink:href="#rim"/>
    <path pointer-events="none" fill="none" stroke="white" stroke-width="1.5" d="M0,-3.0v7 M-2.5,-0.5L0,-3.0L2.5,-0.5"/>
  </g>
  <g id="arrowDown" transform="rotate(180) translate(-30 -48)">
    <use xlink:href="#rim"/>
    <path pointer-events="none" fill="none" stroke="white" stroke-width="1.5" d="M0,-3.0v7 M-2.5,-0.5L0,-3.0L2.5,-0.5"/>
  </g>
  <g id="arrowLeft" transform="rotate(270) translate(-36 17)">
    <use xlink:href="#rim"/>
    <path pointer-events="none" fill="none" stroke="white" stroke-width="1.5" d="M0,-3.0v7 M-2.5,-0.5L0,-3.0L2.5,-0.5"/>
  </g>
  <g id="resetDef">
    <use xlink:href="#rim2" fill="#404040"><set attributeName="fill" to="#808080" begin="reset.mouseover" end="reset.mouseout"/></use>
  </g>
</defs>
<script type="application/ecmascript">
var viewWidth = 1480;
var viewHeight = 496;
var sectionId = 'dynsection-0';
</script>
<script type="application/ecmascript" xlink:href="svg.min.js"/>
<svg id="graph" class="graph">
<g id="viewport">
<title>source/scara_kinematics_process.c</title>
<!-- Node1 -->
<g id="Node000001" class="node">
<title>Node1</title>
<g id="a_Node000001"><a xlink:title=" ">
<polygon fill="#999999" stroke="#666666" points="357.25,-487.5 220.5,-487.5 220.5,-454 357.25,-454 357.25,-487.5"/>
<text xml:space="preserve" text-anchor="start" x="228.5" y="-474" font-family="Helvetica,sans-Serif" font-size="10.00">source/scara_kinematics</text>
<text xml:space="preserve" text-anchor="middle" x="288.88" y="-461.25" font-family="Helvetica,sans-Serif" font-size="10.00">_process.c</text>
</a>
</g>
</g>
<!-- Node2 -->
<g id="Node000002" class="node">
<title>Node2</title>
<g id="a_Node000002"><a xlink:href="scara__kinematics__process_8h.html" target="_top" xlink:title=" ">
<polygon fill="white" stroke="#666666" points="365.5,-418 212.25,-418 212.25,-397.25 365.5,-397.25 365.5,-418"/>
<text xml:space="preserve" text-anchor="middle" x="288.88" y="-404.5" font-family="Helvetica,sans-Serif" font-size="10.00">scara_kinematics_process.h</text>
</a>
</g>
</g>
<!-- Node1&#45;&gt;Node2 -->
<g id="edge1_Node000001_Node000002" class="edge">
<title>Node1&#45;&gt;Node2</title>
<g id="a_edge1_Node000001_Node000002"><a xlink:title=" ">
<path fill="none" stroke="#63b8ff" d="M288.88,-453.69C288.88,-446.35 288.88,-437.57 288.88,-429.71"/>
<polygon fill="#63b8ff" stroke="#63b8ff" points="292.38,-429.98 288.88,-419.98 285.38,-429.98 292.38,-429.98"/>
</a>
</g>
</g>
<!-- Node3 -->
<g id="Node000003" class="node">
<title>Node3</title>
<g id="a_Node000003"><a xlink:href="scara__kinematics__internal_8h.html" target="_top" xlink:title=" ">
<polygon fill="white" stroke="#666666" points="357.5,-361.25 204.25,-361.25 204.25,-340.5 357.5,-340.5 357.5,-361.25"/>
<text xml:space="preserve" text-anchor="middle" x="280.88" y="-347.75" font-family="Helvetica,sans-Serif" font-size="10.00">scara_kinematics_internal.h</text>
</a>
</g>
</g>
<!-- Node1&#45;&gt;Node3 -->
<g id="edge52_Node000001_Node000003" class="edge">
<title>Node1&#45;&gt;Node3</title>
<g id="a_edge52_Node000001_Node000003"><a xlink:title=" ">
<path fill="none" stroke="#63b8ff" d="M243.81,-453.6C227.97,-445.5 211.88,-433.93 202.88,-418 190.36,-395.86 216.28,-377.79 241.53,-366.17"/>
<polygon fill="#63b8ff" stroke="#63b8ff" points="242.64,-369.51 250.44,-362.34 239.87,-363.08 242.64,-369.51"/>
</a>
</g>
</g>
<!-- Node12 -->
<g id="Node000012" class="node">
<title>Node12</title>
<g id="a_Node000012"><a xlink:href="scara__kinematics_8h.html" target="_top" xlink:title=" ">
<polygon fill="white" stroke="#666666" points="521.12,-304.5 410.62,-304.5 410.62,-283.75 521.12,-283.75 521.12,-304.5"/>
<text xml:space="preserve" text-anchor="middle" x="465.88" y="-291" font-family="Helvetica,sans-Serif" font-size="10.00">scara_kinematics.h</text>
</a>
</g>
</g>
<!-- Node1&#45;&gt;Node12 -->
<g id="edge53_Node000001_Node000012" class="edge">
<title>Node1&#45;&gt;Node12</title>
<g id="a_edge53_Node000001_Node000012"><a xlink:title=" ">
<path fill="none" stroke="#63b8ff" d="M357.41,-462.4C387.77,-455.63 421.4,-442.69 442.88,-418 467.71,-389.44 469.38,-342.78 467.93,-315.92"/>
<polygon fill="#63b8ff" stroke="#63b8ff" points="471.44,-316.02 467.19,-306.31 464.46,-316.55 471.44,-316.02"/>
</a>
</g>
</g>
<!-- Node27 -->
<g id="Node000027" class="node">
<title>Node27</title>
<g id="a_Node000027"><a xlink:href="cmd__dispatch_8h.html" target="_top" xlink:title=" ">
<polygon fill="white" stroke="#666666" points="336.12,-191 243.62,-191 243.62,-170.25 336.12,-170.25 336.12,-191"/>
<text xml:space="preserve" text-anchor="middle" x="289.88" y="-177.5" font-family="Helvetica,sans-Serif" font-size="10.00">cmd_dispatch.h</text>
</a>
</g>
</g>
<!-- Node1&#45;&gt;Node27 -->
<g id="edge54_Node000001_Node000027" class="edge">
<title>Node1&#45;&gt;Node27</title>
<g id="a_edge54_Node000001_Node000027"><a xlink:title=" ">
<path fill="none" stroke="#63b8ff" d="M238.85,-453.57C195.56,-436.05 139.88,-403.5 139.88,-351.88 139.88,-351.88 139.88,-351.88 139.88,-293.12 139.88,-241.38 198.09,-210.83 241.99,-195.15"/>
<polygon fill="#63b8ff" stroke="#63b8ff" points="243.02,-198.5 251.36,-191.97 240.77,-191.87 243.02,-198.5"/>
</a>
</g>
</g>
<!-- Node28 -->
<g id="Node000028" class="node">
<title>Node28</title>
<g id="a_Node000028"><a xlink:title=" ">
<polygon fill="#e0e0e0" stroke="#999999" points="434.12,-418 383.62,-418 383.62,-397.25 434.12,-397.25 434.12,-418"/>
<text xml:space="preserve" text-anchor="middle" x="408.88" y="-404.5" font-family="Helvetica,sans-Serif" font-size="10.00">math.h</text>
</a>
</g>
</g>
<!-- Node1&#45;&gt;Node28 -->
<g id="edge59_Node000001_Node000028" class="edge">
<title>Node1&#45;&gt;Node28</title>
<g id="a_edge59_Node000001_Node000028"><a xlink:title=" ">
<path fill="none" stroke="#63b8ff" d="M320.72,-453.53C338.97,-444.23 361.73,-432.64 379.55,-423.56"/>
<polygon fill="#63b8ff" stroke="#63b8ff" points="380.98,-426.76 388.31,-419.1 377.81,-420.52 380.98,-426.76"/>
</a>
</g>
</g>
<!-- Node29 -->
<g id="Node000029" class="node">
<title>Node29</title>
<g id="a_Node000029"><a xlink:href="sync__wait_8h.html" target="_top" xlink:title=" ">
<polygon fill="white" stroke="#666666" points="73.75,-191 0,-191 0,-170.25 73.75,-170.25 73.75,-191"/>
<text xml:space="preserve" text-anchor="middle" x="36.88" y="-177.5" font-family="Helvetica,sans-Serif" font-size="10.00">sync_wait.h</text>
</a>
</g>
</g>
<!-- Node1&#45;&gt;Node29 -->
<g id="edge60_Node000001_Node000029" class="edge">
<title>Node1&#45;&gt;Node29</title>
<g id="a_edge60_Node000001_Node000029"><a xlink:title=" ">
<path fill="none" stroke="#63b8ff" d="M220.04,-464.5C149.75,-454.93 50.88,-427.96 50.88,-351.88 50.88,-351.88 50.88,-351.88 50.88,-293.12 50.88,-261.34 45.2,-224.85 41.08,-202.52"/>
<polygon fill="#63b8ff" stroke="#63b8ff" points="44.56,-202.06 39.23,-192.9 37.68,-203.39 44.56,-202.06"/>
</a>
</g>
</g>
<!-- Node30 -->
<g id="Node000030" class="node">
<title>Node30</title>
<g id="a_Node000030"><a xlink:href="motor__configs_8h.html" target="_top" xlink:title=" ">
<polygon fill="white" stroke="#666666" points="1323.88,-304.5 1229.88,-304.5 1229.88,-283.75 1323.88,-283.75 1323.88,-304.5"/>
<text xml:space="preserve" text-anchor="middle" x="1276.88" y="-291" font-family="Helvetica,sans-Serif" font-size="10.00">motor_configs.h</text>
</a>
</g>
</g>
<!-- Node1&#45;&gt;Node30 -->
<g id="edge66_Node000001_Node000030" class="edge">
<title>Node1&#45;&gt;Node30</title>
<g id="a_edge66_Node000001_Node000030"><a xlink:title=" ">
<path fill="none" stroke="#63b8ff" d="M357.56,-457.61C542.14,-424.99 1046.47,-335.85 1218.49,-305.44"/>
<polygon fill="#63b8ff" stroke="#63b8ff" points="1218.84,-308.94 1228.08,-303.75 1217.62,-302.04 1218.84,-308.94"/>
</a>
</g>
</g>
<!-- Node2&#45;&gt;Node3 -->
<g id="edge2_Node000002_Node000003" class="edge">
<title>Node2&#45;&gt;Node3</title>
<g id="a_edge2_Node000002_Node000003"><a xlink:title=" ">
<path fill="none" stroke="#63b8ff" d="M287.44,-396.84C286.47,-390.14 285.13,-381.01 283.92,-372.73"/>
<polygon fill="#63b8ff" stroke="#63b8ff" points="287.42,-372.46 282.51,-363.08 280.49,-373.48 287.42,-372.46"/>
</a>
</g>
</g>
<!-- Node4 -->
<g id="Node000004" class="node">
<title>Node4</title>
<g id="a_Node000004"><a xlink:title=" ">
<polygon fill="#e0e0e0" stroke="#999999" points="401.38,-247.75 340.38,-247.75 340.38,-227 401.38,-227 401.38,-247.75"/>
<text xml:space="preserve" text-anchor="middle" x="370.88" y="-234.25" font-family="Helvetica,sans-Serif" font-size="10.00">stdbool.h</text>
</a>
</g>
</g>
<!-- Node3&#45;&gt;Node4 -->
<g id="edge3_Node000003_Node000004" class="edge">
<title>Node3&#45;&gt;Node4</title>
<g id="a_edge3_Node000003_Node000004"><a xlink:title=" ">
<path fill="none" stroke="#63b8ff" d="M291.44,-340.28C300.93,-331.43 315.01,-317.68 325.88,-304.5 338.14,-289.62 350.34,-271.42 358.94,-257.89"/>
<polygon fill="#63b8ff" stroke="#63b8ff" points="361.87,-259.81 364.19,-249.47 355.93,-256.1 361.87,-259.81"/>
</a>
</g>
</g>
<!-- Node5 -->
<g id="Node000005" class="node">
<title>Node5</title>
<g id="a_Node000005"><a xlink:title=" ">
<polygon fill="#e0e0e0" stroke="#999999" points="513.25,-77.5 460.5,-77.5 460.5,-56.75 513.25,-56.75 513.25,-77.5"/>
<text xml:space="preserve" text-anchor="middle" x="486.88" y="-64" font-family="Helvetica,sans-Serif" font-size="10.00">stdint.h</text>
</a>
</g>
</g>
<!-- Node3&#45;&gt;Node5 -->
<g id="edge4_Node000003_Node000005" class="edge">
<title>Node3&#45;&gt;Node5</title>
<g id="a_edge4_Node000003_Node000005"><a xlink:title=" ">
<path fill="none" stroke="#63b8ff" d="M283.25,-340.19C288.92,-318.39 304.85,-264.46 331.88,-227 368.7,-175.96 396.33,-180.63 438.88,-134.25 452.48,-119.42 465.74,-100.72 474.87,-87"/>
<polygon fill="#63b8ff" stroke="#63b8ff" points="477.63,-89.18 480.15,-78.89 471.76,-85.36 477.63,-89.18"/>
</a>
</g>
</g>
<!-- Node6 -->
<g id="Node000006" class="node">
<title>Node6</title>
<g id="a_Node000006"><a xlink:title=" ">
<polygon fill="#e0e0e0" stroke="#999999" points="293.62,-77.5 222.12,-77.5 222.12,-56.75 293.62,-56.75 293.62,-77.5"/>
<text xml:space="preserve" text-anchor="middle" x="257.88" y="-64" font-family="Helvetica,sans-Serif" font-size="10.00">FreeRTOS.h</text>
</a>
</g>
</g>
<!-- Node3&#45;&gt;Node6 -->
<g id="edge5_Node000003_Node000006" class="edge">
<title>Node3&#45;&gt;Node6</title>
<g id="a_edge5_Node000003_Node000006"><a xlink:title=" ">
<path fill="none" stroke="#63b8ff" d="M227.17,-340.05C174.44,-326.94 101.88,-298.05 101.88,-238.38 101.88,-238.38 101.88,-238.38 101.88,-179.62 101.88,-125.5 164.8,-95.15 210.73,-80.21"/>
<polygon fill="#63b8ff" stroke="#63b8ff" points="211.72,-83.56 220.25,-77.27 209.66,-76.87 211.72,-83.56"/>
</a>
</g>
</g>
<!-- Node7 -->
<g id="Node000007" class="node">
<title>Node7</title>
<g id="a_Node000007"><a xlink:title=" ">
<polygon fill="#e0e0e0" stroke="#999999" points="261.38,-134.25 206.38,-134.25 206.38,-113.5 261.38,-113.5 261.38,-134.25"/>
<text xml:space="preserve" text-anchor="middle" x="233.88" y="-120.75" font-family="Helvetica,sans-Serif" font-size="10.00">queue.h</text>
</a>
</g>
</g>
<!-- Node3&#45;&gt;Node7 -->
<g id="edge6_Node000003_Node000007" class="edge">
<title>Node3&#45;&gt;Node7</title>
<g id="a_edge6_Node000003_Node000007"><a xlink:title=" ">
<path fill="none" stroke="#63b8ff" d="M275.56,-340.04C270.88,-331.01 264.15,-317.17 259.88,-304.5 243.38,-255.55 240.85,-242.31 234.88,-191 233.12,-175.95 232.91,-158.84 233.12,-145.79"/>
<polygon fill="#63b8ff" stroke="#63b8ff" points="236.61,-145.93 233.38,-135.84 229.62,-145.75 236.61,-145.93"/>
</a>
</g>
</g>
<!-- Node8 -->
<g id="Node000008" class="node">
<title>Node8</title>
<g id="a_Node000008"><a xlink:href="cmd__handle_8h.html" target="_top" xlink:title=" ">
<polygon fill="white" stroke="#666666" points="402,-134.25 317.75,-134.25 317.75,-113.5 402,-113.5 402,-134.25"/>
<text xml:space="preserve" text-anchor="middle" x="359.88" y="-120.75" font-family="Helvetica,sans-Serif" font-size="10.00">cmd_handle.h</text>
</a>
</g>
</g>
<!-- Node3&#45;&gt;Node8 -->
<g id="edge7_Node000003_Node000008" class="edge">
<title>Node3&#45;&gt;Node8</title>
<g id="a_edge7_Node000003_Node000008"><a xlink:title=" ">
<path fill="none" stroke="#63b8ff" d="M279.85,-340.15C278.02,-318.28 276.2,-264.22 297.88,-227 311.12,-204.26 330.67,-213.15 344.88,-191 353.53,-177.49 357.22,-159.63 358.78,-145.87"/>
<polygon fill="#63b8ff" stroke="#63b8ff" points="362.25,-146.4 359.57,-136.15 355.27,-145.83 362.25,-146.4"/>
</a>
</g>
</g>
<!-- Node3&#45;&gt;Node12 -->
<g id="edge13_Node000003_Node000012" class="edge">
<title>Node3&#45;&gt;Node12</title>
<g id="a_edge13_Node000003_Node000012"><a xlink:title=" ">
<path fill="none" stroke="#63b8ff" d="M313.95,-340.09C344.11,-331.16 388.89,-317.91 422.02,-308.1"/>
<polygon fill="#63b8ff" stroke="#63b8ff" points="422.73,-311.54 431.32,-305.35 420.74,-304.83 422.73,-311.54"/>
</a>
</g>
</g>
<!-- Node8&#45;&gt;Node5 -->
<g id="edge8_Node000008_Node000005" class="edge">
<title>Node8&#45;&gt;Node5</title>
<g id="a_edge8_Node000008_Node000005"><a xlink:title=" ">
<path fill="none" stroke="#63b8ff" d="M382.58,-113.09C402.45,-104.52 431.55,-91.98 453.97,-82.31"/>
<polygon fill="#63b8ff" stroke="#63b8ff" points="455.18,-85.6 462.98,-78.43 452.41,-79.17 455.18,-85.6"/>
</a>
</g>
</g>
<!-- Node8&#45;&gt;Node6 -->
<g id="edge9_Node000008_Node000006" class="edge">
<title>Node8&#45;&gt;Node6</title>
<g id="a_edge9_Node000008_Node000006"><a xlink:title=" ">
<path fill="none" stroke="#63b8ff" d="M341.64,-113.09C326.19,-104.8 303.79,-92.77 286.04,-83.24"/>
<polygon fill="#63b8ff" stroke="#63b8ff" points="287.75,-80.19 277.29,-78.54 284.44,-86.36 287.75,-80.19"/>
</a>
</g>
</g>
<!-- Node9 -->
<g id="Node000009" class="node">
<title>Node9</title>
<g id="a_Node000009"><a xlink:title=" ">
<polygon fill="#e0e0e0" stroke="#999999" points="140.38,-77.5 49.38,-77.5 49.38,-56.75 140.38,-56.75 140.38,-77.5"/>
<text xml:space="preserve" text-anchor="middle" x="94.88" y="-64" font-family="Helvetica,sans-Serif" font-size="10.00">event_groups.h</text>
</a>
</g>
</g>
<!-- Node8&#45;&gt;Node9 -->
<g id="edge10_Node000008_Node000009" class="edge">
<title>Node8&#45;&gt;Node9</title>
<g id="a_edge10_Node000008_Node000009"><a xlink:title=" ">
<path fill="none" stroke="#63b8ff" d="M317.3,-114.08C272.37,-104.8 201.32,-90.12 151.65,-79.86"/>
<polygon fill="#63b8ff" stroke="#63b8ff" points="152.44,-76.44 141.94,-77.85 151.02,-83.3 152.44,-76.44"/>
</a>
</g>
</g>
<!-- Node10 -->
<g id="Node000010" class="node">
<title>Node10</title>
<g id="a_Node000010"><a xlink:title=" ">
<polygon fill="#e0e0e0" stroke="#999999" points="786.38,-20.75 701.38,-20.75 701.38,0 786.38,0 786.38,-20.75"/>
<text xml:space="preserve" text-anchor="middle" x="743.88" y="-7.25" font-family="Helvetica,sans-Serif" font-size="10.00">fsl_common.h</text>
</a>
</g>
</g>
<!-- Node8&#45;&gt;Node10 -->
<g id="edge11_Node000008_Node000010" class="edge">
<title>Node8&#45;&gt;Node10</title>
<g id="a_edge11_Node000008_Node000010"><a xlink:title=" ">
<path fill="none" stroke="#63b8ff" d="M359.58,-113.03C359.72,-98.34 362.35,-70.88 378.88,-56.75 424.44,-17.79 599.53,-11.57 689.62,-11.02"/>
<polygon fill="#63b8ff" stroke="#63b8ff" points="689.46,-14.53 699.45,-10.99 689.44,-7.53 689.46,-14.53"/>
</a>
</g>
</g>
<!-- Node11 -->
<g id="Node000011" class="node">
<title>Node11</title>
<g id="a_Node000011"><a xlink:title=" ">
<polygon fill="#e0e0e0" stroke="#999999" points="439.88,-77.5 387.88,-77.5 387.88,-56.75 439.88,-56.75 439.88,-77.5"/>
<text xml:space="preserve" text-anchor="middle" x="413.88" y="-64" font-family="Helvetica,sans-Serif" font-size="10.00">stdlib.h</text>
</a>
</g>
</g>
<!-- Node8&#45;&gt;Node11 -->
<g id="edge12_Node000008_Node000011" class="edge">
<title>Node8&#45;&gt;Node11</title>
<g id="a_edge12_Node000008_Node000011"><a xlink:title=" ">
<path fill="none" stroke="#63b8ff" d="M369.53,-113.09C376.98,-105.53 387.48,-94.89 396.4,-85.85"/>
<polygon fill="#63b8ff" stroke="#63b8ff" points="398.71,-88.48 403.24,-78.91 393.73,-83.57 398.71,-88.48"/>
</a>
</g>
</g>
<!-- Node12&#45;&gt;Node4 -->
<g id="edge14_Node000012_Node000004" class="edge">
<title>Node12&#45;&gt;Node4</title>
<g id="a_edge14_Node000012_Node000004"><a xlink:title=" ">
<path fill="none" stroke="#63b8ff" d="M448.89,-283.34C434.57,-275.08 413.83,-263.13 397.34,-253.63"/>
<polygon fill="#63b8ff" stroke="#63b8ff" points="399.44,-250.8 389.02,-248.83 395.94,-256.86 399.44,-250.8"/>
</a>
</g>
</g>
<!-- Node12&#45;&gt;Node5 -->
<g id="edge15_Node000012_Node000005" class="edge">
<title>Node12&#45;&gt;Node5</title>
<g id="a_edge15_Node000012_Node000005"><a xlink:title=" ">
<path fill="none" stroke="#63b8ff" d="M466.93,-283.46C469.63,-258.68 476.88,-190.86 481.88,-134.25 483.19,-119.28 484.47,-102.39 485.4,-89.43"/>
<polygon fill="#63b8ff" stroke="#63b8ff" points="488.89,-89.72 486.1,-79.5 481.9,-89.23 488.89,-89.72"/>
</a>
</g>
</g>
<!-- Node12&#45;&gt;Node6 -->
<g id="edge16_Node000012_Node000006" class="edge">
<title>Node12&#45;&gt;Node6</title>
<g id="a_edge16_Node000012_Node000006"><a xlink:title=" ">
<path fill="none" stroke="#63b8ff" d="M460.86,-283.72C452.55,-269.1 434.45,-241.11 410.88,-227 342.37,-185.99 300.89,-235.91 234.88,-191 203.32,-169.53 180.87,-147.67 197.88,-113.5 204.08,-101.02 215.55,-91.06 226.8,-83.69"/>
<polygon fill="#63b8ff" stroke="#63b8ff" points="228.42,-86.79 235.2,-78.65 224.82,-80.79 228.42,-86.79"/>
</a>
</g>
</g>
<!-- Node12&#45;&gt;Node8 -->
<g id="edge18_Node000012_Node000008" class="edge">
<title>Node12&#45;&gt;Node8</title>
<g id="a_edge18_Node000012_Node000008"><a xlink:title=" ">
<path fill="none" stroke="#63b8ff" d="M463.89,-283.7C460.86,-270.46 454.29,-245.85 443.88,-227 425.86,-194.39 396.92,-162.08 378.16,-142.8"/>
<polygon fill="#63b8ff" stroke="#63b8ff" points="380.68,-140.38 371.15,-135.74 375.71,-145.31 380.68,-140.38"/>
</a>
</g>
</g>
<!-- Node12&#45;&gt;Node10 -->
<g id="edge17_Node000012_Node000010" class="edge">
<title>Node12&#45;&gt;Node10</title>
<g id="a_edge17_Node000012_Node000010"><a xlink:title=" ">
<path fill="none" stroke="#63b8ff" d="M479.11,-283.39C501.36,-265.77 543.88,-226.27 543.88,-181.62 543.88,-181.62 543.88,-181.62 543.88,-122.88 543.88,-55.84 630.66,-28.74 689.89,-18.05"/>
<polygon fill="#63b8ff" stroke="#63b8ff" points="690.2,-21.54 699.48,-16.43 689.03,-14.64 690.2,-21.54"/>
</a>
</g>
</g>
<!-- Node13 -->
<g id="Node000013" class="node">
<title>Node13</title>
<g id="a_Node000013"><a xlink:href="motor__core_8h.html" target="_top" xlink:title=" ">
<polygon fill="white" stroke="#666666" points="1254.12,-247.75 1173.62,-247.75 1173.62,-227 1254.12,-227 1254.12,-247.75"/>
<text xml:space="preserve" text-anchor="middle" x="1213.88" y="-234.25" font-family="Helvetica,sans-Serif" font-size="10.00">motor_core.h</text>
</a>
</g>
</g>
<!-- Node12&#45;&gt;Node13 -->
<g id="edge19_Node000012_Node000013" class="edge">
<title>Node12&#45;&gt;Node13</title>
<g id="a_edge19_Node000012_Node000013"><a xlink:title=" ">
<path fill="none" stroke="#63b8ff" d="M521.49,-289.05C661.31,-278.82 1026.01,-252.13 1161.87,-242.18"/>
<polygon fill="#63b8ff" stroke="#63b8ff" points="1161.93,-245.69 1171.65,-241.47 1161.42,-238.71 1161.93,-245.69"/>
</a>
</g>
</g>
<!-- Node14 -->
<g id="Node000014" class="node">
<title>Node14</title>
<g id="a_Node000014"><a xlink:href="pca9555a_8h.html" target="_top" xlink:title=" ">
<polygon fill="white" stroke="#666666" points="1259.88,-77.5 1105.88,-77.5 1105.88,-56.75 1259.88,-56.75 1259.88,-77.5"/>
<text xml:space="preserve" text-anchor="middle" x="1182.88" y="-64" font-family="Helvetica,sans-Serif" font-size="10.00">driver/pca9555a/pca9555a.h</text>
</a>
</g>
</g>
<!-- Node13&#45;&gt;Node14 -->
<g id="edge20_Node000013_Node000014" class="edge">
<title>Node13&#45;&gt;Node14</title>
<g id="a_edge20_Node000013_Node000014"><a xlink:title=" ">
<path fill="none" stroke="#63b8ff" d="M1212.12,-226.85C1207.26,-200.48 1193.55,-126.08 1186.77,-89.28"/>
<polygon fill="#63b8ff" stroke="#63b8ff" points="1190.22,-88.66 1184.96,-79.46 1183.33,-89.92 1190.22,-88.66"/>
</a>
</g>
</g>
<!-- Node16 -->
<g id="Node000016" class="node">
<title>Node16</title>
<g id="a_Node000016"><a xlink:title=" ">
<polygon fill="#e0e0e0" stroke="#999999" points="1444.25,-191 1355.5,-191 1355.5,-170.25 1444.25,-170.25 1444.25,-191"/>
<text xml:space="preserve" text-anchor="middle" x="1399.88" y="-177.5" font-family="Helvetica,sans-Serif" font-size="10.00">MK22F51212.h</text>
</a>
</g>
</g>
<!-- Node13&#45;&gt;Node16 -->
<g id="edge23_Node000013_Node000016" class="edge">
<title>Node13&#45;&gt;Node16</title>
<g id="a_edge23_Node000013_Node000016"><a xlink:title=" ">
<path fill="none" stroke="#63b8ff" d="M1247.13,-226.59C1277.45,-217.66 1322.47,-204.41 1355.79,-194.6"/>
<polygon fill="#63b8ff" stroke="#63b8ff" points="1356.54,-198.03 1365.14,-191.85 1354.56,-191.31 1356.54,-198.03"/>
</a>
</g>
</g>
<!-- Node17 -->
<g id="Node000017" class="node">
<title>Node17</title>
<g id="a_Node000017"><a xlink:href="step__core_8h.html" target="_top" xlink:title=" ">
<polygon fill="white" stroke="#666666" points="1075,-191 1002.75,-191 1002.75,-170.25 1075,-170.25 1075,-191"/>
<text xml:space="preserve" text-anchor="middle" x="1038.88" y="-177.5" font-family="Helvetica,sans-Serif" font-size="10.00">step_core.h</text>
</a>
</g>
</g>
<!-- Node13&#45;&gt;Node17 -->
<g id="edge24_Node000013_Node000017" class="edge">
<title>Node13&#45;&gt;Node17</title>
<g id="a_edge24_Node000013_Node000017"><a xlink:title=" ">
<path fill="none" stroke="#63b8ff" d="M1182.59,-226.59C1154.18,-217.7 1112.07,-204.52 1080.77,-194.73"/>
<polygon fill="#63b8ff" stroke="#63b8ff" points="1082.22,-191.52 1071.63,-191.87 1080.13,-198.2 1082.22,-191.52"/>
</a>
</g>
</g>
<!-- Node19 -->
<g id="Node000019" class="node">
<title>Node19</title>
<g id="a_Node000019"><a xlink:title=" ">
<polygon fill="#e0e0e0" stroke="#999999" points="1418.25,-77.5 1359.5,-77.5 1359.5,-56.75 1418.25,-56.75 1418.25,-77.5"/>
<text xml:space="preserve" text-anchor="middle" x="1388.88" y="-64" font-family="Helvetica,sans-Serif" font-size="10.00">fsl_ftm.h</text>
</a>
</g>
</g>
<!-- Node13&#45;&gt;Node19 -->
<g id="edge49_Node000013_Node000019" class="edge">
<title>Node13&#45;&gt;Node19</title>
<g id="a_edge49_Node000013_Node000019"><a xlink:title=" ">
<path fill="none" stroke="#63b8ff" d="M1224.04,-226.6C1252.67,-199.07 1334.29,-120.61 1370.82,-85.49"/>
<polygon fill="#63b8ff" stroke="#63b8ff" points="1372.81,-88.43 1377.59,-78.97 1367.96,-83.38 1372.81,-88.43"/>
</a>
</g>
</g>
<!-- Node20 -->
<g id="Node000020" class="node">
<title>Node20</title>
<g id="a_Node000020"><a xlink:title=" ">
<polygon fill="#e0e0e0" stroke="#999999" points="1341.5,-77.5 1278.25,-77.5 1278.25,-56.75 1341.5,-56.75 1341.5,-77.5"/>
<text xml:space="preserve" text-anchor="middle" x="1309.88" y="-64" font-family="Helvetica,sans-Serif" font-size="10.00">fsl_gpio.h</text>
</a>
</g>
</g>
<!-- Node13&#45;&gt;Node20 -->
<g id="edge50_Node000013_Node000020" class="edge">
<title>Node13&#45;&gt;Node20</title>
<g id="a_edge50_Node000013_Node000020"><a xlink:title=" ">
<path fill="none" stroke="#63b8ff" d="M1219.31,-226.85C1234.55,-200.14 1277.93,-124.12 1298.62,-87.85"/>
<polygon fill="#63b8ff" stroke="#63b8ff" points="1301.59,-89.7 1303.51,-79.28 1295.51,-86.23 1301.59,-89.7"/>
</a>
</g>
</g>
<!-- Node21 -->
<g id="Node000021" class="node">
<title>Node21</title>
<g id="a_Node000021"><a xlink:title=" ">
<polygon fill="#e0e0e0" stroke="#999999" points="909.75,-77.5 848,-77.5 848,-56.75 909.75,-56.75 909.75,-77.5"/>
<text xml:space="preserve" text-anchor="middle" x="878.88" y="-64" font-family="Helvetica,sans-Serif" font-size="10.00">fsl_port.h</text>
</a>
</g>
</g>
<!-- Node13&#45;&gt;Node21 -->
<g id="edge51_Node000013_Node000021" class="edge">
<title>Node13&#45;&gt;Node21</title>
<g id="a_edge51_Node000013_Node000021"><a xlink:title=" ">
<path fill="none" stroke="#63b8ff" d="M1173.15,-233.69C1127.58,-229.42 1052.48,-218.51 993.88,-191 957.31,-173.84 950.17,-164.03 922.88,-134.25 909.79,-119.97 897.82,-101.46 889.68,-87.65"/>
<polygon fill="#63b8ff" stroke="#63b8ff" points="892.78,-86.02 884.77,-79.07 886.7,-89.49 892.78,-86.02"/>
</a>
</g>
</g>
<!-- Node24 -->
<g id="Node000024" class="node">
<title>Node24</title>
<g id="a_Node000024"><a xlink:href="tmc2209__core_8h.html" target="_top" xlink:title=" ">
<polygon fill="white" stroke="#666666" points="788.88,-191 694.88,-191 694.88,-170.25 788.88,-170.25 788.88,-191"/>
<text xml:space="preserve" text-anchor="middle" x="741.88" y="-177.5" font-family="Helvetica,sans-Serif" font-size="10.00">tmc2209_core.h</text>
</a>
</g>
</g>
<!-- Node13&#45;&gt;Node24 -->
<g id="edge41_Node000013_Node000024" class="edge">
<title>Node13&#45;&gt;Node24</title>
<g id="a_edge41_Node000013_Node000024"><a xlink:title=" ">
<path fill="none" stroke="#63b8ff" d="M1173.22,-231.66C1089.53,-221.95 897.69,-199.7 800.54,-188.43"/>
<polygon fill="#63b8ff" stroke="#63b8ff" points="801.02,-184.96 790.68,-187.29 800.21,-191.92 801.02,-184.96"/>
</a>
</g>
</g>
<!-- Node14&#45;&gt;Node10 -->
<g id="edge21_Node000014_Node000010" class="edge">
<title>Node14&#45;&gt;Node10</title>
<g id="a_edge21_Node000014_Node000010"><a xlink:title=" ">
<path fill="none" stroke="#63b8ff" d="M1105.4,-56.46C1017.13,-45.45 875.17,-27.75 798.02,-18.13"/>
<polygon fill="#63b8ff" stroke="#63b8ff" points="798.53,-14.66 788.17,-16.9 797.66,-21.61 798.53,-14.66"/>
</a>
</g>
</g>
<!-- Node15 -->
<g id="Node000015" class="node">
<title>Node15</title>
<g id="a_Node000015"><a xlink:title=" ">
<polygon fill="#e0e0e0" stroke="#999999" points="1222.75,-20.75 1143,-20.75 1143,0 1222.75,0 1222.75,-20.75"/>
<text xml:space="preserve" text-anchor="middle" x="1182.88" y="-7.25" font-family="Helvetica,sans-Serif" font-size="10.00">peripherals.h</text>
</a>
</g>
</g>
<!-- Node14&#45;&gt;Node15 -->
<g id="edge22_Node000014_Node000015" class="edge">
<title>Node14&#45;&gt;Node15</title>
<g id="a_edge22_Node000014_Node000015"><a xlink:title=" ">
<path fill="none" stroke="#63b8ff" d="M1182.88,-56.34C1182.88,-49.72 1182.88,-40.72 1182.88,-32.52"/>
<polygon fill="#63b8ff" stroke="#63b8ff" points="1186.38,-32.59 1182.88,-22.59 1179.38,-32.59 1186.38,-32.59"/>
</a>
</g>
</g>
<!-- Node17&#45;&gt;Node6 -->
<g id="edge26_Node000017_Node000006" class="edge">
<title>Node17&#45;&gt;Node6</title>
<g id="a_edge26_Node000017_Node000006"><a xlink:title=" ">
<path fill="none" stroke="#63b8ff" d="M1002.38,-176.21C931.94,-169.46 772.4,-153.39 638.88,-134.25 518.08,-116.93 376.73,-90.87 304.92,-77.21"/>
<polygon fill="#63b8ff" stroke="#63b8ff" points="305.98,-73.85 295.5,-75.41 304.66,-80.72 305.98,-73.85"/>
</a>
</g>
</g>
<!-- Node17&#45;&gt;Node8 -->
<g id="edge32_Node000017_Node000008" class="edge">
<title>Node17&#45;&gt;Node8</title>
<g id="a_edge32_Node000017_Node000008"><a xlink:title=" ">
<path fill="none" stroke="#63b8ff" d="M1002.37,-176.68C889.66,-167.59 546.79,-139.95 413.59,-129.21"/>
<polygon fill="#63b8ff" stroke="#63b8ff" points="413.87,-125.72 403.63,-128.4 413.31,-132.7 413.87,-125.72"/>
</a>
</g>
</g>
<!-- Node17&#45;&gt;Node10 -->
<g id="edge28_Node000017_Node000010" class="edge">
<title>Node17&#45;&gt;Node10</title>
<g id="a_edge28_Node000017_Node000010"><a xlink:title=" ">
<path fill="none" stroke="#63b8ff" d="M1008.51,-169.82C984.63,-161.62 950.83,-148.93 922.88,-134.25 862.08,-102.33 797.18,-53.62 764.79,-28.18"/>
<polygon fill="#63b8ff" stroke="#63b8ff" points="767.02,-25.48 757.01,-22.02 762.67,-30.97 767.02,-25.48"/>
</a>
</g>
</g>
<!-- Node17&#45;&gt;Node14 -->
<g id="edge25_Node000017_Node000014" class="edge">
<title>Node17&#45;&gt;Node14</title>
<g id="a_edge25_Node000017_Node000014"><a xlink:title=" ">
<path fill="none" stroke="#63b8ff" d="M1044.83,-170.02C1053.83,-156.11 1072.07,-130.2 1092.88,-113.5 1108.92,-100.62 1129.22,-90 1146.47,-82.28"/>
<polygon fill="#63b8ff" stroke="#63b8ff" points="1147.56,-85.62 1155.36,-78.45 1144.8,-79.19 1147.56,-85.62"/>
</a>
</g>
</g>
<!-- Node18 -->
<g id="Node000018" class="node">
<title>Node18</title>
<g id="a_Node000018"><a xlink:title=" ">
<polygon fill="#e0e0e0" stroke="#999999" points="1147.88,-134.25 1101.88,-134.25 1101.88,-113.5 1147.88,-113.5 1147.88,-134.25"/>
<text xml:space="preserve" text-anchor="middle" x="1124.88" y="-120.75" font-family="Helvetica,sans-Serif" font-size="10.00">task.h</text>
</a>
</g>
</g>
<!-- Node17&#45;&gt;Node18 -->
<g id="edge27_Node000017_Node000018" class="edge">
<title>Node17&#45;&gt;Node18</title>
<g id="a_edge27_Node000017_Node000018"><a xlink:title=" ">
<path fill="none" stroke="#63b8ff" d="M1054.25,-169.84C1066.97,-161.74 1085.28,-150.08 1100.07,-140.67"/>
<polygon fill="#63b8ff" stroke="#63b8ff" points="1101.8,-143.71 1108.36,-135.39 1098.04,-137.81 1101.8,-143.71"/>
</a>
</g>
</g>
<!-- Node17&#45;&gt;Node19 -->
<g id="edge29_Node000017_Node000019" class="edge">
<title>Node17&#45;&gt;Node19</title>
<g id="a_edge29_Node000017_Node000019"><a xlink:title=" ">
<path fill="none" stroke="#63b8ff" d="M1074.09,-169.77C1105.59,-160.85 1152.97,-147.17 1193.88,-134.25 1248.6,-116.97 1311.37,-95.36 1350.58,-81.65"/>
<polygon fill="#63b8ff" stroke="#63b8ff" points="1351.52,-85.02 1359.8,-78.41 1349.2,-78.42 1351.52,-85.02"/>
</a>
</g>
</g>
<!-- Node17&#45;&gt;Node20 -->
<g id="edge30_Node000017_Node000020" class="edge">
<title>Node17&#45;&gt;Node20</title>
<g id="a_edge30_Node000017_Node000020"><a xlink:title=" ">
<path fill="none" stroke="#63b8ff" d="M1065.24,-169.84C1089.24,-160.85 1125.58,-147.02 1156.88,-134.25 1198.93,-117.08 1246.95,-96.1 1277.79,-82.44"/>
<polygon fill="#63b8ff" stroke="#63b8ff" points="1278.85,-85.81 1286.57,-78.55 1276.01,-79.41 1278.85,-85.81"/>
</a>
</g>
</g>
<!-- Node17&#45;&gt;Node21 -->
<g id="edge31_Node000017_Node000021" class="edge">
<title>Node17&#45;&gt;Node21</title>
<g id="a_edge31_Node000017_Node000021"><a xlink:title=" ">
<path fill="none" stroke="#63b8ff" d="M1016.83,-169.82C998.93,-161.45 973.39,-148.51 952.88,-134.25 932.02,-119.76 910.65,-100.03 896.27,-85.9"/>
<polygon fill="#63b8ff" stroke="#63b8ff" points="898.9,-83.59 889.36,-79 893.96,-88.54 898.9,-83.59"/>
</a>
</g>
</g>
<!-- Node22 -->
<g id="Node000022" class="node">
<title>Node22</title>
<g id="a_Node000022"><a xlink:href="step__shared_8h.html" target="_top" xlink:title=" ">
<polygon fill="white" stroke="#666666" points="1046,-134.25 961.75,-134.25 961.75,-113.5 1046,-113.5 1046,-134.25"/>
<text xml:space="preserve" text-anchor="middle" x="1003.88" y="-120.75" font-family="Helvetica,sans-Serif" font-size="10.00">step_shared.h</text>
</a>
</g>
</g>
<!-- Node17&#45;&gt;Node22 -->
<g id="edge33_Node000017_Node000022" class="edge">
<title>Node17&#45;&gt;Node22</title>
<g id="a_edge33_Node000017_Node000022"><a xlink:title=" ">
<path fill="none" stroke="#63b8ff" d="M1032.62,-169.84C1028.04,-162.67 1021.68,-152.73 1016.11,-144.01"/>
<polygon fill="#63b8ff" stroke="#63b8ff" points="1019.23,-142.39 1010.89,-135.85 1013.33,-146.16 1019.23,-142.39"/>
</a>
</g>
</g>
<!-- Node22&#45;&gt;Node5 -->
<g id="edge34_Node000022_Node000005" class="edge">
<title>Node22&#45;&gt;Node5</title>
<g id="a_edge34_Node000022_Node000005"><a xlink:title=" ">
<path fill="none" stroke="#63b8ff" d="M961.57,-118.39C862.93,-107.95 618.96,-82.11 524.8,-72.14"/>
<polygon fill="#63b8ff" stroke="#63b8ff" points="525.38,-68.68 515.07,-71.11 524.64,-75.64 525.38,-68.68"/>
</a>
</g>
</g>
<!-- Node22&#45;&gt;Node10 -->
<g id="edge37_Node000022_Node000010" class="edge">
<title>Node22&#45;&gt;Node10</title>
<g id="a_edge37_Node000022_Node000010"><a xlink:title=" ">
<path fill="none" stroke="#63b8ff" d="M994.33,-113.26C979.49,-98.86 949.4,-71.78 918.88,-56.75 880.51,-37.86 833.41,-26.23 797.74,-19.47"/>
<polygon fill="#63b8ff" stroke="#63b8ff" points="798.54,-16.06 788.07,-17.72 797.29,-22.95 798.54,-16.06"/>
</a>
</g>
</g>
<!-- Node22&#45;&gt;Node14 -->
<g id="edge35_Node000022_Node000014" class="edge">
<title>Node22&#45;&gt;Node14</title>
<g id="a_edge35_Node000022_Node000014"><a xlink:title=" ">
<path fill="none" stroke="#63b8ff" d="M1035.88,-113.09C1064.93,-104.2 1108.01,-91.02 1140.03,-81.23"/>
<polygon fill="#63b8ff" stroke="#63b8ff" points="1140.86,-84.64 1149.4,-78.36 1138.82,-77.94 1140.86,-84.64"/>
</a>
</g>
</g>
<!-- Node22&#45;&gt;Node19 -->
<g id="edge38_Node000022_Node000019" class="edge">
<title>Node22&#45;&gt;Node19</title>
<g id="a_edge38_Node000022_Node000019"><a xlink:title=" ">
<path fill="none" stroke="#63b8ff" d="M1046.42,-117.92C1121.54,-109.07 1275.9,-90.43 1347.85,-77.85"/>
<polygon fill="#63b8ff" stroke="#63b8ff" points="1348.37,-81.32 1357.58,-76.08 1347.12,-74.43 1348.37,-81.32"/>
</a>
</g>
</g>
<!-- Node22&#45;&gt;Node20 -->
<g id="edge39_Node000022_Node000020" class="edge">
<title>Node22&#45;&gt;Node20</title>
<g id="a_edge39_Node000022_Node000020"><a xlink:title=" ">
<path fill="none" stroke="#63b8ff" d="M1046.23,-116.36C1096.46,-108.48 1182.95,-94.38 1267.08,-77.77"/>
<polygon fill="#63b8ff" stroke="#63b8ff" points="1267.52,-81.25 1276.64,-75.86 1266.15,-74.38 1267.52,-81.25"/>
</a>
</g>
</g>
<!-- Node22&#45;&gt;Node21 -->
<g id="edge40_Node000022_Node000021" class="edge">
<title>Node22&#45;&gt;Node21</title>
<g id="a_edge40_Node000022_Node000021"><a xlink:title=" ">
<path fill="none" stroke="#63b8ff" d="M981.53,-113.09C962.06,-104.56 933.59,-92.09 911.57,-82.44"/>
<polygon fill="#63b8ff" stroke="#63b8ff" points="912.98,-79.24 902.42,-78.44 910.17,-85.65 912.98,-79.24"/>
</a>
</g>
</g>
<!-- Node23 -->
<g id="Node000023" class="node">
<title>Node23</title>
<g id="a_Node000023"><a xlink:title=" ">
<polygon fill="#e0e0e0" stroke="#999999" points="1088.12,-77.5 965.62,-77.5 965.62,-56.75 1088.12,-56.75 1088.12,-77.5"/>
<text xml:space="preserve" text-anchor="middle" x="1026.88" y="-64" font-family="Helvetica,sans-Serif" font-size="10.00">fsl_device_registers.h</text>
</a>
</g>
</g>
<!-- Node22&#45;&gt;Node23 -->
<g id="edge36_Node000022_Node000023" class="edge">
<title>Node22&#45;&gt;Node23</title>
<g id="a_edge36_Node000022_Node000023"><a xlink:title=" ">
<path fill="none" stroke="#63b8ff" d="M1007.99,-113.09C1010.87,-106.24 1014.81,-96.84 1018.36,-88.4"/>
<polygon fill="#63b8ff" stroke="#63b8ff" points="1021.57,-89.8 1022.21,-79.22 1015.11,-87.09 1021.57,-89.8"/>
</a>
</g>
</g>
<!-- Node24&#45;&gt;Node5 -->
<g id="edge42_Node000024_Node000005" class="edge">
<title>Node24&#45;&gt;Node5</title>
<g id="a_edge42_Node000024_Node000005"><a xlink:title=" ">
<path fill="none" stroke="#63b8ff" d="M719.69,-169.93C674.67,-150.24 572.38,-105.51 519.65,-82.46"/>
<polygon fill="#63b8ff" stroke="#63b8ff" points="521.14,-79.29 510.58,-78.49 518.34,-85.7 521.14,-79.29"/>
</a>
</g>
</g>
<!-- Node24&#45;&gt;Node8 -->
<g id="edge47_Node000024_Node000008" class="edge">
<title>Node24&#45;&gt;Node8</title>
<g id="a_edge47_Node000024_Node000008"><a xlink:title=" ">
<path fill="none" stroke="#63b8ff" d="M694.65,-172.86C623.26,-162.62 488.26,-143.28 413.35,-132.54"/>
<polygon fill="#63b8ff" stroke="#63b8ff" points="414.2,-129.12 403.8,-131.17 413.2,-136.05 414.2,-129.12"/>
</a>
</g>
</g>
<!-- Node24&#45;&gt;Node10 -->
<g id="edge46_Node000024_Node000010" class="edge">
<title>Node24&#45;&gt;Node10</title>
<g id="a_edge46_Node000024_Node000010"><a xlink:title=" ">
<path fill="none" stroke="#63b8ff" d="M747.85,-169.97C752.98,-161.07 760,-147.31 762.88,-134.25 770.74,-98.54 759.88,-56.29 751.63,-31.79"/>
<polygon fill="#63b8ff" stroke="#63b8ff" points="754.95,-30.67 748.28,-22.44 748.35,-33.03 754.95,-30.67"/>
</a>
</g>
</g>
<!-- Node24&#45;&gt;Node15 -->
<g id="edge48_Node000024_Node000015" class="edge">
<title>Node24&#45;&gt;Node15</title>
<g id="a_edge48_Node000024_Node000015"><a xlink:title=" ">
<path fill="none" stroke="#63b8ff" d="M749.61,-169.9C756.91,-160.72 768.15,-146.56 777.88,-134.25 805.05,-99.86 800.78,-78.44 838.88,-56.75 887.64,-28.99 1047.59,-17.6 1131.09,-13.46"/>
<polygon fill="#63b8ff" stroke="#63b8ff" points="1131.25,-16.96 1141.08,-12.98 1130.92,-9.97 1131.25,-16.96"/>
</a>
</g>
</g>
<!-- Node25 -->
<g id="Node000025" class="node">
<title>Node25</title>
<g id="a_Node000025"><a xlink:href="tmc2209__shared_8h.html" target="_top" xlink:title=" ">
<polygon fill="white" stroke="#666666" points="753.88,-134.25 647.88,-134.25 647.88,-113.5 753.88,-113.5 753.88,-134.25"/>
<text xml:space="preserve" text-anchor="middle" x="700.88" y="-120.75" font-family="Helvetica,sans-Serif" font-size="10.00">tmc2209_shared.h</text>
</a>
</g>
</g>
<!-- Node24&#45;&gt;Node25 -->
<g id="edge43_Node000024_Node000025" class="edge">
<title>Node24&#45;&gt;Node25</title>
<g id="a_edge43_Node000024_Node000025"><a xlink:title=" ">
<path fill="none" stroke="#63b8ff" d="M734.55,-169.84C729.12,-162.6 721.57,-152.51 714.99,-143.72"/>
<polygon fill="#63b8ff" stroke="#63b8ff" points="717.84,-141.7 709.05,-135.79 712.24,-145.89 717.84,-141.7"/>
</a>
</g>
</g>
<!-- Node25&#45;&gt;Node5 -->
<g id="edge44_Node000025_Node000005" class="edge">
<title>Node25&#45;&gt;Node5</title>
<g id="a_edge44_Node000025_Node000005"><a xlink:title=" ">
<path fill="none" stroke="#63b8ff" d="M662.62,-113.09C623.55,-103.09 563.29,-87.68 524.47,-77.74"/>
<polygon fill="#63b8ff" stroke="#63b8ff" points="525.66,-74.44 515.11,-75.35 523.93,-81.22 525.66,-74.44"/>
</a>
</g>
</g>
<!-- Node26 -->
<g id="Node000026" class="node">
<title>Node26</title>
<g id="a_Node000026"><a xlink:title=" ">
<polygon fill="#e0e0e0" stroke="#999999" points="715.5,-77.5 610.25,-77.5 610.25,-56.75 715.5,-56.75 715.5,-77.5"/>
<text xml:space="preserve" text-anchor="middle" x="662.88" y="-64" font-family="Helvetica,sans-Serif" font-size="10.00">fsl_uart_freertos.h</text>
</a>
</g>
</g>
<!-- Node25&#45;&gt;Node26 -->
<g id="edge45_Node000025_Node000026" class="edge">
<title>Node25&#45;&gt;Node26</title>
<g id="a_edge45_Node000025_Node000026"><a xlink:title=" ">
<path fill="none" stroke="#63b8ff" d="M694.08,-113.09C689.11,-105.92 682.21,-95.98 676.15,-87.26"/>
<polygon fill="#63b8ff" stroke="#63b8ff" points="679.05,-85.29 670.47,-79.07 673.3,-89.28 679.05,-85.29"/>
</a>
</g>
</g>
<!-- Node27&#45;&gt;Node5 -->
<g id="edge55_Node000027_Node000005" class="edge">
<title>Node27&#45;&gt;Node5</title>
<g id="a_edge55_Node000027_Node000005"><a xlink:title=" ">
<path fill="none" stroke="#63b8ff" d="M326.08,-169.78C350.96,-162.13 384.18,-150.16 410.88,-134.25 433.27,-120.9 455.35,-100.68 469.89,-86.11"/>
<polygon fill="#63b8ff" stroke="#63b8ff" points="472.38,-88.58 476.85,-78.97 467.37,-83.69 472.38,-88.58"/>
</a>
</g>
</g>
<!-- Node27&#45;&gt;Node6 -->
<g id="edge56_Node000027_Node000006" class="edge">
<title>Node27&#45;&gt;Node6</title>
<g id="a_edge56_Node000027_Node000006"><a xlink:title=" ">
<path fill="none" stroke="#63b8ff" d="M287.15,-170.12C282,-152.19 270.75,-113 263.8,-88.76"/>
<polygon fill="#63b8ff" stroke="#63b8ff" points="267.23,-88.03 261.11,-79.38 260.5,-89.96 267.23,-88.03"/>
</a>
</g>
</g>
<!-- Node27&#45;&gt;Node7 -->
<g id="edge57_Node000027_Node000007" class="edge">
<title>Node27&#45;&gt;Node7</title>
<g id="a_edge57_Node000027_Node000007"><a xlink:title=" ">
<path fill="none" stroke="#63b8ff" d="M279.86,-169.84C272.14,-162.28 261.25,-151.64 252,-142.6"/>
<polygon fill="#63b8ff" stroke="#63b8ff" points="254.48,-140.12 244.88,-135.64 249.59,-145.13 254.48,-140.12"/>
</a>
</g>
</g>
<!-- Node27&#45;&gt;Node8 -->
<g id="edge58_Node000027_Node000008" class="edge">
<title>Node27&#45;&gt;Node8</title>
<g id="a_edge58_Node000027_Node000008"><a xlink:title=" ">
<path fill="none" stroke="#63b8ff" d="M302.39,-169.84C312.44,-161.97 326.79,-150.75 338.63,-141.49"/>
<polygon fill="#63b8ff" stroke="#63b8ff" points="340.56,-144.43 346.28,-135.51 336.24,-138.91 340.56,-144.43"/>
</a>
</g>
</g>
<!-- Node29&#45;&gt;Node5 -->
<g id="edge61_Node000029_Node000005" class="edge">
<title>Node29&#45;&gt;Node5</title>
<g id="a_edge61_Node000029_Node000005"><a xlink:title=" ">
<path fill="none" stroke="#63b8ff" d="M56.16,-169.87C85.83,-155.28 144.82,-127.96 197.88,-113.5 306.61,-83.87 338.25,-99.02 448.88,-77.5 448.99,-77.48 449.11,-77.45 449.23,-77.43"/>
<polygon fill="#63b8ff" stroke="#63b8ff" points="449.86,-80.88 458.89,-75.34 448.38,-74.03 449.86,-80.88"/>
</a>
</g>
</g>
<!-- Node29&#45;&gt;Node6 -->
<g id="edge62_Node000029_Node000006" class="edge">
<title>Node29&#45;&gt;Node6</title>
<g id="a_edge62_Node000029_Node000006"><a xlink:title=" ">
<path fill="none" stroke="#63b8ff" d="M41.69,-169.91C49.4,-155.37 65.91,-128.12 87.88,-113.5 124.82,-88.91 174.58,-77.62 210.71,-72.45"/>
<polygon fill="#63b8ff" stroke="#63b8ff" points="210.97,-75.94 220.43,-71.17 210.06,-69 210.97,-75.94"/>
</a>
</g>
</g>
<!-- Node29&#45;&gt;Node8 -->
<g id="edge65_Node000029_Node000008" class="edge">
<title>Node29&#45;&gt;Node8</title>
<g id="a_edge65_Node000029_Node000008"><a xlink:title=" ">
<path fill="none" stroke="#63b8ff" d="M74.24,-173.29C131.34,-163.61 240.58,-145.1 306.17,-133.98"/>
<polygon fill="#63b8ff" stroke="#63b8ff" points="306.72,-137.43 316,-132.31 305.55,-130.53 306.72,-137.43"/>
</a>
</g>
</g>
<!-- Node29&#45;&gt;Node9 -->
<g id="edge63_Node000029_Node000009" class="edge">
<title>Node29&#45;&gt;Node9</title>
<g id="a_edge63_Node000029_Node000009"><a xlink:title=" ">
<path fill="none" stroke="#63b8ff" d="M37.04,-170.07C37.64,-156.68 40.12,-131.9 49.88,-113.5 55.59,-102.73 64.68,-92.85 73.2,-85.08"/>
<polygon fill="#63b8ff" stroke="#63b8ff" points="75.24,-87.94 80.56,-78.78 70.69,-82.62 75.24,-87.94"/>
</a>
</g>
</g>
<!-- Node29&#45;&gt;Node10 -->
<g id="edge64_Node000029_Node000010" class="edge">
<title>Node29&#45;&gt;Node10</title>
<g id="a_edge64_Node000029_Node000010"><a xlink:title=" ">
<path fill="none" stroke="#63b8ff" d="M33.33,-170C25.49,-146.88 9.69,-87.82 39.88,-56.75 84.83,-10.47 532.79,-9.63 689.83,-10.79"/>
<polygon fill="#63b8ff" stroke="#63b8ff" points="689.52,-14.29 699.55,-10.87 689.57,-7.29 689.52,-14.29"/>
</a>
</g>
</g>
<!-- Node30&#45;&gt;Node13 -->
<g id="edge68_Node000030_Node000013" class="edge">
<title>Node30&#45;&gt;Node13</title>
<g id="a_edge68_Node000030_Node000013"><a xlink:title=" ">
<path fill="none" stroke="#63b8ff" d="M1265.61,-283.34C1256.74,-275.63 1244.16,-264.7 1233.63,-255.54"/>
<polygon fill="#63b8ff" stroke="#63b8ff" points="1236.03,-252.99 1226.18,-249.07 1231.44,-258.27 1236.03,-252.99"/>
</a>
</g>
</g>
<!-- Node30&#45;&gt;Node15 -->
<g id="edge69_Node000030_Node000015" class="edge">
<title>Node30&#45;&gt;Node15</title>
<g id="a_edge69_Node000030_Node000015"><a xlink:title=" ">
<path fill="none" stroke="#63b8ff" d="M1324.08,-287.02C1381.79,-276.61 1471.88,-249.48 1471.88,-181.62 1471.88,-181.62 1471.88,-181.62 1471.88,-122.88 1471.88,-87.33 1456.64,-76.19 1426.88,-56.75 1395.8,-36.45 1296.05,-22.93 1234.13,-16.25"/>
<polygon fill="#63b8ff" stroke="#63b8ff" points="1234.85,-12.8 1224.53,-15.24 1234.11,-19.77 1234.85,-12.8"/>
</a>
</g>
</g>
<!-- Node30&#45;&gt;Node16 -->
<g id="edge67_Node000030_Node000016" class="edge">
<title>Node30&#45;&gt;Node16</title>
<g id="a_edge67_Node000030_Node000016"><a xlink:title=" ">
<path fill="none" stroke="#63b8ff" d="M1287.36,-283.62C1308.05,-264.87 1354.37,-222.88 1380.67,-199.03"/>
<polygon fill="#63b8ff" stroke="#63b8ff" points="1382.88,-201.75 1387.94,-192.44 1378.18,-196.56 1382.88,-201.75"/>
</a>
</g>
</g>
</g>
</svg>

<g id="navigator" transform="translate(0 0)" fill="#404254">
  <rect fill="#f2f5e9" fill-opacity="0.5" stroke="#606060" stroke-width=".5" x="0" y="0" width="60" height="60"/>
  <use id="zoomplus" xlink:href="#zoomPlus" x="17" y="9" onmousedown="handleZoom(evt,'in')"/>
  <use id="zoomminus" xlink:href="#zoomMin" x="42" y="9" onmousedown="handleZoom(evt,'out')"/>
  <use id="reset" xlink:href="#resetDef" x="30" y="36" onmousedown="handleReset()"/>
   <use id="arrowup" xlink:href="#arrowUp" x="0" y="0" onmousedown="handlePan(0,-1)"/>
  <use id="arrowright" xlink:href="#arrowRight" x="0" y="0" onmousedown="handlePan(1,0)"/>
  <use id="arrowdown" xlink:href="#arrowDown" x="0" y="0" onmousedown="handlePan(0,1)"/>
  <use id="arrowleft" xlink:href="#arrowLeft" x="0" y="0" onmousedown="handlePan(-1,0)"/>
</g>
<svg viewBox="0 0 15 15" width="100%" height="30px" preserveAspectRatio="xMaxYMin meet">
 <g id="arrow_out" transform="scale(0.3 0.3)">
  <a xlink:href="scara__kinematics__process_8c__incl_org.svg" target="_base">
   <rect id="button" ry="5" rx="5" y="6" x="6" height="38" width="38"
        fill="#f2f5e9" fill-opacity="0.5" stroke="#606060" stroke-width="1.0"/>
   <path id="arrow"
     d="M 11.500037,31.436501 C 11.940474,20.09759 22.043105,11.32322 32.158766,21.979434 L 37.068811,17.246167 C 37.068811,17.246167 37.088388,32 37.088388,32 L 22.160133,31.978069 C 22.160133,31.978069 26.997745,27.140456 26.997745,27.140456 C 18.528582,18.264221 13.291696,25.230495 11.500037,31.436501 z"
     style="fill:#404040;"/>
  </a>
 </g>
</svg>

<style type='text/css'>
<![CDATA[
[data-mouse-over-selected='false'] { opacity: 0.7; }
[data-mouse-over-selected='true']  { opacity: 1.0; }
]]>
</style>
<script type="application/ecmascript"><![CDATA[
document.addEventListener('DOMContentLoaded', (event) => {
  highlightEdges();
  highlightAdjacentNodes();
});
]]></script>
</svg>
