<?xml version="1.0" encoding="UTF-8" standalone="no"?>
<!DOCTYPE svg PUBLIC "-//W3C//DTD SVG 1.1//EN"
 "http://www.w3.org/Graphics/SVG/1.1/DTD/svg11.dtd">
<!-- Generated by graphviz version 14.1.5 (0)
 -->
<!-- Title: source/scara_kinematics.h Pages: 1 -->
<!--zoomable 237 -->

<svg id="main" version="1.1" xmlns="http://www.w3.org/2000/svg" xmlns:xlink="http://www.w3.org/1999/xlink" xml:space="preserve" onload="init(evt)">

<style type="text/css"><![CDATA[
.node, .edge {opacity: 0.7;}
.node.selected, .edge.selected {opacity: 1;}
.edge:hover path { stroke: red; }
.edge:hover polygon { stroke: red; fill: red; }
]]></style>

<defs>
  <circle id="rim" cx="0" cy="0" r="7"/>
  <circle id="rim2" cx="0" cy="0" r="3.5"/>
  <g id="zoomPlus">
    <use xlink:href="#rim" fill="#404040"><set attributeName="fill" to="#808080" begin="zoomplus.mouseover" end="zoomplus.mouseout"/></use>
    <path d="M-4,0h8M0,-4v8" fill="none" stroke="white" stroke-width="1.5" pointer-events="none"/>
  </g>
  <g id="zoomMin">
    <use xlink:href="#rim" fill="#404040"><set attributeName="fill" to="#808080" begin="zoomminus.mouseover" end="zoomminus.mouseout"/></use>
    <path d="M-4,0h8" fill="none" stroke="white" stroke-width="1.5" pointer-events="none"/>
  </g>
  <g id="arrowUp" transform="translate(30 24)">
    <use xlink:href="#rim"/>
    <path pointer-events="none" fill="none" stroke="white" stroke-width="1.5" d="M0,-3.0v7 M-2.5,-0.5L0,-3.0L2.5,-0.5"/>
  </g>
  <g id="arrowRight" transform="rotate(90) translate(36 -43)">
    <use xlink:href="#rim"/>
    <path pointer-events="none" fill="none" stroke="white" stroke-width="1.5" d="M0,-3.0v7 M-2.5,-0.5L0,-3.0L2.5,-0.5"/>
  </g>
  <g id="arrowDown" transform="rotate(180) translate(-30 -48)">
    <use xlink:href="#rim"/>
    <path pointer-events="none" fill="none" stroke="white" stroke-width="1.5" d="M0,-3.0v7 M-2.5,-0.5L0,-3.0L2.5,-0.5"/>
  </g>
  <g id="arrowLeft" transform="rotate(270) translate(-36 17)">
    <use xlink:href="#rim"/>
    <path pointer-events="none" fill="none" stroke="white" stroke-width="1.5" d="M0,-3.0v7 M-2.5,-0.5L0,-3.0L2.5,-0.5"/>
  </g>
  <g id="resetDef">
    <use xlink:href="#rim2" fill="#404040"><set attributeName="fill" to="#808080" begin="reset.mouseover" end="reset.mouseout"/></use>
  </g>
</defs>
<script type="application/ecmascript">
var viewWidth = 707;
var viewHeight = 237;
var sectionId = 'dynsection-1';
</script>
<script type="application/ecmascript" xlink:href="svg.min.js"/>
<svg id="graph" class="graph">
<g id="viewport">
<title>source/scara_kinematics.h</title>
<!-- Node1 -->
<g id="Node000001" class="node">
<title>Node1</title>
<g id="a_Node000001"><a xlink:title=" ">
<polygon fill="#999999" stroke="#666666" points="431.62,-229.25 285.88,-229.25 285.88,-208.5 431.62,-208.5 431.62,-229.25"/>
<text xml:space="preserve" text-anchor="middle" x="358.75" y="-215.75" font-family="Helvetica,sans-Serif" font-size="10.00">source/scara_kinematics.h</text>
</a>
</g>
</g>
<!-- Node2 -->
<g id="Node000002" class="node">
<title>Node2</title>
<g id="a_Node000002"><a xlink:href="application_8c.html" target="_top" xlink:title=" ">
<polygon fill="white" stroke="#666666" points="113.5,-166.12 0,-166.12 0,-145.38 113.5,-145.38 113.5,-166.12"/>
<text xml:space="preserve" text-anchor="middle" x="56.75" y="-152.62" font-family="Helvetica,sans-Serif" font-size="10.00">source/application.c</text>
</a>
</g>
</g>
<!-- Node1&#45;&gt;Node2 -->
<g id="edge1_Node000001_Node000002" class="edge">
<title>Node1&#45;&gt;Node2</title>
<g id="a_edge1_Node000001_Node000002"><a xlink:title=" ">
<path fill="none" stroke="#63b8ff" d="M292.43,-206.07C244.82,-197.37 179.17,-184.95 121.75,-172.5 113.35,-170.68 104.38,-168.6 95.86,-166.55"/>
<polygon fill="#63b8ff" stroke="#63b8ff" points="291.57,-209.47 302.04,-207.82 292.82,-202.58 291.57,-209.47"/>
</a>
</g>
</g>
<!-- Node3 -->
<g id="Node000003" class="node">
<title>Node3</title>
<g id="a_Node000003"><a xlink:href="motorCmd_8c.html" target="_top" xlink:title=" ">
<polygon fill="white" stroke="#666666" points="242.38,-166.12 131.12,-166.12 131.12,-145.38 242.38,-145.38 242.38,-166.12"/>
<text xml:space="preserve" text-anchor="middle" x="186.75" y="-152.62" font-family="Helvetica,sans-Serif" font-size="10.00">source/motorCmd.c</text>
</a>
</g>
</g>
<!-- Node1&#45;&gt;Node3 -->
<g id="edge2_Node000001_Node000003" class="edge">
<title>Node1&#45;&gt;Node3</title>
<g id="a_edge2_Node000001_Node000003"><a xlink:title=" ">
<path fill="none" stroke="#63b8ff" d="M320.32,-204.22C288.14,-192.78 243,-176.74 214.32,-166.55"/>
<polygon fill="#63b8ff" stroke="#63b8ff" points="319.09,-207.5 329.69,-207.55 321.44,-200.9 319.09,-207.5"/>
</a>
</g>
</g>
<!-- Node4 -->
<g id="Node000004" class="node">
<title>Node4</title>
<g id="a_Node000004"><a xlink:href="motor__test_8c.html" target="_top" xlink:title=" ">
<polygon fill="white" stroke="#666666" points="373.12,-166.12 260.38,-166.12 260.38,-145.38 373.12,-145.38 373.12,-166.12"/>
<text xml:space="preserve" text-anchor="middle" x="316.75" y="-152.62" font-family="Helvetica,sans-Serif" font-size="10.00">source/motor_test.c</text>
</a>
</g>
</g>
<!-- Node1&#45;&gt;Node4 -->
<g id="edge3_Node000001_Node000004" class="edge">
<title>Node1&#45;&gt;Node4</title>
<g id="a_edge3_Node000001_Node000004"><a xlink:title=" ">
<path fill="none" stroke="#63b8ff" d="M345.53,-198.63C338.14,-187.88 329.27,-174.97 323.34,-166.34"/>
<polygon fill="#63b8ff" stroke="#63b8ff" points="342.6,-200.55 351.14,-206.81 348.37,-196.58 342.6,-200.55"/>
</a>
</g>
</g>
<!-- Node5 -->
<g id="Node000005" class="node">
<title>Node5</title>
<g id="a_Node000005"><a xlink:href="scara__kinematics_8c.html" target="_top" xlink:title=" ">
<polygon fill="white" stroke="#666666" points="511.25,-27.12 366.25,-27.12 366.25,-6.38 511.25,-6.38 511.25,-27.12"/>
<text xml:space="preserve" text-anchor="middle" x="438.75" y="-13.62" font-family="Helvetica,sans-Serif" font-size="10.00">source/scara_kinematics.c</text>
</a>
</g>
</g>
<!-- Node1&#45;&gt;Node5 -->
<g id="edge4_Node000001_Node000005" class="edge">
<title>Node1&#45;&gt;Node5</title>
<g id="a_edge4_Node000001_Node000005"><a xlink:title=" ">
<path fill="none" stroke="#63b8ff" d="M369.33,-198.24C373.42,-190.34 378.01,-181.08 381.75,-172.5 405.2,-118.7 427.65,-51.83 435.66,-27.32"/>
<polygon fill="#63b8ff" stroke="#63b8ff" points="366.3,-196.48 364.72,-206.96 372.49,-199.75 366.3,-196.48"/>
</a>
</g>
</g>
<!-- Node6 -->
<g id="Node000006" class="node">
<title>Node6</title>
<g id="a_Node000006"><a xlink:href="scara__kinematics__internal_8h.html" target="_top" xlink:title=" ">
<polygon fill="white" stroke="#666666" points="584.12,-172.5 447.38,-172.5 447.38,-139 584.12,-139 584.12,-172.5"/>
<text xml:space="preserve" text-anchor="start" x="455.38" y="-159" font-family="Helvetica,sans-Serif" font-size="10.00">source/scara_kinematics</text>
<text xml:space="preserve" text-anchor="middle" x="515.75" y="-146.25" font-family="Helvetica,sans-Serif" font-size="10.00">_internal.h</text>
</a>
</g>
</g>
<!-- Node1&#45;&gt;Node6 -->
<g id="edge5_Node000001_Node000006" class="edge">
<title>Node1&#45;&gt;Node6</title>
<g id="a_edge5_Node000001_Node000006"><a xlink:title=" ">
<path fill="none" stroke="#63b8ff" d="M394.6,-203.92C418.24,-194.71 449.3,-182.62 474.05,-172.98"/>
<polygon fill="#63b8ff" stroke="#63b8ff" points="393.43,-200.62 385.39,-207.51 395.97,-207.14 393.43,-200.62"/>
</a>
</g>
</g>
<!-- Node7 -->
<g id="Node000007" class="node">
<title>Node7</title>
<g id="a_Node000007"><a xlink:href="scara__kinematics__process_8c.html" target="_top" xlink:title=" ">
<polygon fill="white" stroke="#666666" points="699.12,-33.5 562.38,-33.5 562.38,0 699.12,0 699.12,-33.5"/>
<text xml:space="preserve" text-anchor="start" x="570.38" y="-20" font-family="Helvetica,sans-Serif" font-size="10.00">source/scara_kinematics</text>
<text xml:space="preserve" text-anchor="middle" x="630.75" y="-7.25" font-family="Helvetica,sans-Serif" font-size="10.00">_process.c</text>
</a>
</g>
</g>
<!-- Node1&#45;&gt;Node7 -->
<g id="edge11_Node000001_Node000007" class="edge">
<title>Node1&#45;&gt;Node7</title>
<g id="a_edge11_Node000001_Node000007"><a xlink:title=" ">
<path fill="none" stroke="#63b8ff" d="M443.22,-208.95C500.11,-201.55 568.95,-189.49 592.75,-172.5 621.76,-151.79 623.55,-137.43 632.75,-103 636.59,-88.62 633.04,-84.39 632.75,-69.5 632.52,-57.45 631.98,-43.84 631.52,-33.6"/>
<polygon fill="#63b8ff" stroke="#63b8ff" points="443,-205.45 433.52,-210.17 443.88,-212.39 443,-205.45"/>
</a>
</g>
</g>
<!-- Node6&#45;&gt;Node5 -->
<g id="edge6_Node000006_Node000005" class="edge">
<title>Node6&#45;&gt;Node5</title>
<g id="a_edge6_Node000006_Node000005"><a xlink:title=" ">
<path fill="none" stroke="#63b8ff" d="M482.48,-131.35C473.23,-123.34 464.01,-113.67 457.75,-103 443.32,-78.42 439.84,-43.96 439,-27.4"/>
<polygon fill="#63b8ff" stroke="#63b8ff" points="480.13,-133.95 490.1,-137.55 484.55,-128.52 480.13,-133.95"/>
</a>
</g>
</g>
<!-- Node6&#45;&gt;Node7 -->
<g id="edge7_Node000006_Node000007" class="edge">
<title>Node6&#45;&gt;Node7</title>
<g id="a_edge7_Node000006_Node000007"><a xlink:title=" ">
<path fill="none" stroke="#63b8ff" d="M574.28,-133.37C588.36,-125.73 602.1,-115.76 611.75,-103 627.12,-82.69 630.5,-52.32 631.01,-33.84"/>
<polygon fill="#63b8ff" stroke="#63b8ff" points="572.74,-130.22 565.38,-137.84 575.89,-136.48 572.74,-130.22"/>
</a>
</g>
</g>
<!-- Node8 -->
<g id="Node000008" class="node">
<title>Node8</title>
<g id="a_Node000008"><a xlink:href="scara__kinematics__process_8h.html" target="_top" xlink:title=" ">
<polygon fill="white" stroke="#666666" points="603.12,-103 466.38,-103 466.38,-69.5 603.12,-69.5 603.12,-103"/>
<text xml:space="preserve" text-anchor="start" x="474.38" y="-89.5" font-family="Helvetica,sans-Serif" font-size="10.00">source/scara_kinematics</text>
<text xml:space="preserve" text-anchor="middle" x="534.75" y="-76.75" font-family="Helvetica,sans-Serif" font-size="10.00">_process.h</text>
</a>
</g>
</g>
<!-- Node6&#45;&gt;Node8 -->
<g id="edge8_Node000006_Node000008" class="edge">
<title>Node6&#45;&gt;Node8</title>
<g id="a_edge8_Node000006_Node000008"><a xlink:title=" ">
<path fill="none" stroke="#63b8ff" d="M523.31,-127.89C525.67,-119.5 528.2,-110.51 530.28,-103.13"/>
<polygon fill="#63b8ff" stroke="#63b8ff" points="520,-126.72 520.66,-137.3 526.74,-128.62 520,-126.72"/>
</a>
</g>
</g>
<!-- Node8&#45;&gt;Node5 -->
<g id="edge9_Node000008_Node000005" class="edge">
<title>Node8&#45;&gt;Node5</title>
<g id="a_edge9_Node000008_Node000005"><a xlink:title=" ">
<path fill="none" stroke="#63b8ff" d="M502.93,-62.87C485.91,-50.91 465.83,-36.79 452.72,-27.57"/>
<polygon fill="#63b8ff" stroke="#63b8ff" points="500.57,-65.49 510.76,-68.38 504.59,-59.77 500.57,-65.49"/>
</a>
</g>
</g>
<!-- Node8&#45;&gt;Node7 -->
<g id="edge10_Node000008_Node000007" class="edge">
<title>Node8&#45;&gt;Node7</title>
<g id="a_edge10_Node000008_Node000007"><a xlink:title=" ">
<path fill="none" stroke="#63b8ff" d="M566.87,-62.66C580.29,-53.23 595.58,-42.48 607.83,-33.87"/>
<polygon fill="#63b8ff" stroke="#63b8ff" points="564.91,-59.77 558.74,-68.38 568.93,-65.49 564.91,-59.77"/>
</a>
</g>
</g>
</g>
</svg>

<g id="navigator" transform="translate(0 0)" fill="#404254">
  <rect fill="#f2f5e9" fill-opacity="0.5" stroke="#606060" stroke-width=".5" x="0" y="0" width="60" height="60"/>
  <use id="zoomplus" xlink:href="#zoomPlus" x="17" y="9" onmousedown="handleZoom(evt,'in')"/>
  <use id="zoomminus" xlink:href="#zoomMin" x="42" y="9" onmousedown="handleZoom(evt,'out')"/>
  <use id="reset" xlink:href="#resetDef" x="30" y="36" onmousedown="handleReset()"/>
   <use id="arrowup" xlink:href="#arrowUp" x="0" y="0" onmousedown="handlePan(0,-1)"/>
  <use id="arrowright" xlink:href="#arrowRight" x="0" y="0" onmousedown="handlePan(1,0)"/>
  <use id="arrowdown" xlink:href="#arrowDown" x="0" y="0" onmousedown="handlePan(0,1)"/>
  <use id="arrowleft" xlink:href="#arrowLeft" x="0" y="0" onmousedown="handlePan(-1,0)"/>
</g>
<svg viewBox="0 0 15 15" width="100%" height="30px" preserveAspectRatio="xMaxYMin meet">
 <g id="arrow_out" transform="scale(0.3 0.3)">
  <a xlink:href="scara__kinematics_8h__dep__incl_org.svg" target="_base">
   <rect id="button" ry="5" rx="5" y="6" x="6" height="38" width="38"
        fill="#f2f5e9" fill-opacity="0.5" stroke="#606060" stroke-width="1.0"/>
   <path id="arrow"
     d="M 11.500037,31.436501 C 11.940474,20.09759 22.043105,11.32322 32.158766,21.979434 L 37.068811,17.246167 C 37.068811,17.246167 37.088388,32 37.088388,32 L 22.160133,31.978069 C 22.160133,31.978069 26.997745,27.140456 26.997745,27.140456 C 18.528582,18.264221 13.291696,25.230495 11.500037,31.436501 z"
     style="fill:#404040;"/>
  </a>
 </g>
</svg>

<style type='text/css'>
<![CDATA[
[data-mouse-over-selected='false'] { opacity: 0.7; }
[data-mouse-over-selected='true']  { opacity: 1.0; }
]]>
</style>
<script type="application/ecmascript"><![CDATA[
document.addEventListener('DOMContentLoaded', (event) => {
  highlightEdges();
  highlightAdjacentNodes();
});
]]></script>
</svg>
