<?xml version="1.0" encoding="UTF-8" standalone="no"?>
<!DOCTYPE svg PUBLIC "-//W3C//DTD SVG 1.1//EN"
 "http://www.w3.org/Graphics/SVG/1.1/DTD/svg11.dtd">
<!-- Generated by graphviz version 14.1.5 (0)
 -->
<!-- Title: source/scara_kinematics_process.h Pages: 1 -->
<svg width="308pt" height="111pt"
 viewBox="0.00 0.00 308.00 111.00" xmlns="http://www.w3.org/2000/svg" xmlns:xlink="http://www.w3.org/1999/xlink">
<g id="graph0" class="graph" transform="scale(1 1) rotate(0) translate(4 107)">
<title>source/scara_kinematics_process.h</title>
<!-- Node1 -->
<g id="Node000001" class="node">
<title>Node1</title>
<g id="a_Node000001"><a xlink:title=" ">
<polygon fill="#999999" stroke="#666666" points="219.88,-103 83.12,-103 83.12,-69.5 219.88,-69.5 219.88,-103"/>
<text xml:space="preserve" text-anchor="start" x="91.12" y="-89.5" font-family="Helvetica,sans-Serif" font-size="10.00">source/scara_kinematics</text>
<text xml:space="preserve" text-anchor="middle" x="151.5" y="-76.75" font-family="Helvetica,sans-Serif" font-size="10.00">_process.h</text>
</a>
</g>
</g>
<!-- Node2 -->
<g id="Node000002" class="node">
<title>Node2</title>
<g id="a_Node000002"><a xlink:href="scara__kinematics_8c.html" target="_top" xlink:title=" ">
<polygon fill="white" stroke="#666666" points="145,-27.12 0,-27.12 0,-6.38 145,-6.38 145,-27.12"/>
<text xml:space="preserve" text-anchor="middle" x="72.5" y="-13.62" font-family="Helvetica,sans-Serif" font-size="10.00">source/scara_kinematics.c</text>
</a>
</g>
</g>
<!-- Node1&#45;&gt;Node2 -->
<g id="edge1_Node000001_Node000002" class="edge">
<title>Node1&#45;&gt;Node2</title>
<g id="a_edge1_Node000001_Node000002"><a xlink:title=" ">
<path fill="none" stroke="#63b8ff" d="M124.14,-61.87C110.4,-50.13 94.48,-36.53 84,-27.57"/>
<polygon fill="#63b8ff" stroke="#63b8ff" points="121.75,-64.44 131.63,-68.27 126.3,-59.11 121.75,-64.44"/>
</a>
</g>
</g>
<!-- Node3 -->
<g id="Node000003" class="node">
<title>Node3</title>
<g id="a_Node000003"><a xlink:href="scara__kinematics__process_8c.html" target="_top" xlink:title=" ">
<polygon fill="white" stroke="#666666" points="299.88,-33.5 163.12,-33.5 163.12,0 299.88,0 299.88,-33.5"/>
<text xml:space="preserve" text-anchor="start" x="171.12" y="-20" font-family="Helvetica,sans-Serif" font-size="10.00">source/scara_kinematics</text>
<text xml:space="preserve" text-anchor="middle" x="231.5" y="-7.25" font-family="Helvetica,sans-Serif" font-size="10.00">_process.c</text>
</a>
</g>
</g>
<!-- Node1&#45;&gt;Node3 -->
<g id="edge2_Node000001_Node000003" class="edge">
<title>Node1&#45;&gt;Node3</title>
<g id="a_edge2_Node000001_Node000003"><a xlink:title=" ">
<path fill="none" stroke="#63b8ff" d="M179.25,-61.84C190.19,-52.6 202.49,-42.23 212.4,-33.87"/>
<polygon fill="#63b8ff" stroke="#63b8ff" points="177,-59.15 171.62,-68.28 181.52,-64.5 177,-59.15"/>
</a>
</g>
</g>
</g>
</svg>
