<?xml version="1.0" encoding="UTF-8" standalone="no"?>
<!DOCTYPE svg PUBLIC "-//W3C//DTD SVG 1.1//EN"
 "http://www.w3.org/Graphics/SVG/1.1/DTD/svg11.dtd">
<!-- Generated by graphviz version 14.1.5 (0)
 -->
<!-- Title: source/motion/scara_kinematics/scara_kinematics_process.c Pages: 1 -->
<!--zoomable 547 -->

<svg id="main" version="1.1" xmlns="http://www.w3.org/2000/svg" xmlns:xlink="http://www.w3.org/1999/xlink" xml:space="preserve" onload="init(evt)">

<style type="text/css"><![CDATA[
.node, .edge {opacity: 0.7;}
.node.selected, .edge.selected {opacity: 1;}
.edge:hover path { stroke: red; }
.edge:hover polygon { stroke: red; fill: red; }
]]></style>

<defs>
  <circle id="rim" cx="0" cy="0" r="7"/>
  <circle id="rim2" cx="0" cy="0" r="3.5"/>
  <g id="zoomPlus">
    <use xlink:href="#rim" fill="#404040"><set attributeName="fill" to="#808080" begin="zoomplus.mouseover" end="zoomplus.mouseout"/></use>
    <path d="M-4,0h8M0,-4v8" fill="none" stroke="white" stroke-width="1.5" pointer-events="none"/>
  </g>
  <g id="zoomMin">
    <use xlink:href="#rim" fill="#404040"><set attributeName="fill" to="#808080" begin="zoomminus.mouseover" end="zoomminus.mouseout"/></use>
    <path d="M-4,0h8" fill="none" stroke="white" stroke-width="1.5" pointer-events="none"/>
  </g>
  <g id="arrowUp" transform="translate(30 24)">
    <use xlink:href="#rim"/>
    <path pointer-events="none" fill="none" stroke="white" stroke-width="1.5" d="M0,-3.0v7 M-2.5,-0.5L0,-3.0L2.5,-0.5"/>
  </g>
  <g id="arrowRight" transform="rotate(90) translate(36 -43)">
    <use xlink:href="#rim"/>
    <path pointer-events="none" fill="none" stroke="white" stroke-width="1.5" d="M0,-3.0v7 M-2.5,-0.5L0,-3.0L2.5,-0.5"/>
  </g>
  <g id="arrowDown" transform="rotate(180) translate(-30 -48)">
    <use xlink:href="#rim"/>
    <path pointer-events="none" fill="none" stroke="white" stroke-width="1.5" d="M0,-3.0v7 M-2.5,-0.5L0,-3.0L2.5,-0.5"/>
  </g>
  <g id="arrowLeft" transform="rotate(270) translate(-36 17)">
    <use xlink:href="#rim"/>
    <path pointer-events="none" fill="none" stroke="white" stroke-width="1.5" d="M0,-3.0v7 M-2.5,-0.5L0,-3.0L2.5,-0.5"/>
  </g>
  <g id="resetDef">
    <use xlink:href="#rim2" fill="#404040"><set attributeName="fill" to="#808080" begin="reset.mouseover" end="reset.mouseout"/></use>
  </g>
</defs>
<script type="application/ecmascript">
var viewWidth = 1527;
var viewHeight = 547;
var sectionId = 'dynsection-0';
</script>
<script type="application/ecmascript" xlink:href="svg.min.js"/>
<svg id="graph" class="graph">
<g id="viewport">
<title>source/motion/scara_kinematics/scara_kinematics_process.c</title>
<!-- Node1 -->
<g id="Node000001" class="node">
<title>Node1</title>
<g id="a_Node000001"><a xlink:title=" ">
<polygon fill="#999999" stroke="#666666" points="490.75,-538.5 327,-538.5 327,-492.25 490.75,-492.25 490.75,-538.5"/>
<text xml:space="preserve" text-anchor="start" x="335" y="-525" font-family="Helvetica,sans-Serif" font-size="10.00">source/motion/scara</text>
<text xml:space="preserve" text-anchor="start" x="335" y="-512.25" font-family="Helvetica,sans-Serif" font-size="10.00">_kinematics/scara_kinematics</text>
<text xml:space="preserve" text-anchor="middle" x="408.88" y="-499.5" font-family="Helvetica,sans-Serif" font-size="10.00">_process.c</text>
</a>
</g>
</g>
<!-- Node2 -->
<g id="Node000002" class="node">
<title>Node2</title>
<g id="a_Node000002"><a xlink:href="scara__kinematics_8h.html" target="_top" xlink:title=" ">
<polygon fill="white" stroke="#666666" points="580.38,-317.25 441.38,-317.25 441.38,-283.75 580.38,-283.75 580.38,-317.25"/>
<text xml:space="preserve" text-anchor="start" x="449.38" y="-303.75" font-family="Helvetica,sans-Serif" font-size="10.00">motion/scara_kinematics</text>
<text xml:space="preserve" text-anchor="middle" x="510.88" y="-291" font-family="Helvetica,sans-Serif" font-size="10.00">/scara_kinematics.h</text>
</a>
</g>
</g>
<!-- Node1&#45;&gt;Node2 -->
<g id="edge1_Node000001_Node000002" class="edge">
<title>Node1&#45;&gt;Node2</title>
<g id="a_edge1_Node000001_Node000002"><a xlink:title=" ">
<path fill="none" stroke="#63b8ff" d="M458.31,-491.89C472.75,-482.88 487.01,-471.06 495.88,-456.25 519.47,-416.82 518.32,-361.39 514.9,-328.68"/>
<polygon fill="#63b8ff" stroke="#63b8ff" points="518.38,-328.35 513.7,-318.84 511.43,-329.19 518.38,-328.35"/>
</a>
</g>
</g>
<!-- Node24 -->
<g id="Node000024" class="node">
<title>Node24</title>
<g id="a_Node000024"><a xlink:href="scara__kinematics__internal_8h.html" target="_top" xlink:title=" ">
<polygon fill="white" stroke="#666666" points="412,-386.75 255.75,-386.75 255.75,-353.25 412,-353.25 412,-386.75"/>
<text xml:space="preserve" text-anchor="start" x="263.75" y="-373.25" font-family="Helvetica,sans-Serif" font-size="10.00">motion/scara_kinematics</text>
<text xml:space="preserve" text-anchor="middle" x="333.88" y="-360.5" font-family="Helvetica,sans-Serif" font-size="10.00">/scara_kinematics_internal.h</text>
</a>
</g>
</g>
<!-- Node1&#45;&gt;Node24 -->
<g id="edge45_Node000001_Node000024" class="edge">
<title>Node1&#45;&gt;Node24</title>
<g id="a_edge45_Node000001_Node000024"><a xlink:title=" ">
<path fill="none" stroke="#63b8ff" d="M408.03,-491.94C406.45,-472.52 402.03,-444.24 389.88,-422.75 383.85,-412.1 374.87,-402.39 365.86,-394.33"/>
<polygon fill="#63b8ff" stroke="#63b8ff" points="368.37,-391.87 358.47,-388.11 363.87,-397.23 368.37,-391.87"/>
</a>
</g>
</g>
<!-- Node26 -->
<g id="Node000026" class="node">
<title>Node26</title>
<g id="a_Node000026"><a xlink:href="scara__kinematics__process_8h.html" target="_top" xlink:title=" ">
<polygon fill="white" stroke="#666666" points="381,-456.25 224.75,-456.25 224.75,-422.75 381,-422.75 381,-456.25"/>
<text xml:space="preserve" text-anchor="start" x="232.75" y="-442.75" font-family="Helvetica,sans-Serif" font-size="10.00">motion/scara_kinematics</text>
<text xml:space="preserve" text-anchor="middle" x="302.88" y="-430" font-family="Helvetica,sans-Serif" font-size="10.00">/scara_kinematics_process.h</text>
</a>
</g>
</g>
<!-- Node1&#45;&gt;Node26 -->
<g id="edge52_Node000001_Node000026" class="edge">
<title>Node1&#45;&gt;Node26</title>
<g id="a_edge52_Node000001_Node000026"><a xlink:title=" ">
<path fill="none" stroke="#63b8ff" d="M376.5,-491.81C363.37,-482.66 348.24,-472.11 335.12,-462.97"/>
<polygon fill="#63b8ff" stroke="#63b8ff" points="337.43,-460.32 327.22,-457.47 333.43,-466.06 337.43,-460.32"/>
</a>
</g>
</g>
<!-- Node27 -->
<g id="Node000027" class="node">
<title>Node27</title>
<g id="a_Node000027"><a xlink:href="cmd__dispatch_8h.html" target="_top" xlink:title=" ">
<polygon fill="white" stroke="#666666" points="334.12,-191 241.62,-191 241.62,-170.25 334.12,-170.25 334.12,-191"/>
<text xml:space="preserve" text-anchor="middle" x="287.88" y="-177.5" font-family="Helvetica,sans-Serif" font-size="10.00">cmd_dispatch.h</text>
</a>
</g>
</g>
<!-- Node1&#45;&gt;Node27 -->
<g id="edge54_Node000001_Node000027" class="edge">
<title>Node1&#45;&gt;Node27</title>
<g id="a_edge54_Node000001_Node000027"><a xlink:title=" ">
<path fill="none" stroke="#63b8ff" d="M326.59,-499.72C280.53,-489.66 229.65,-474.79 215.88,-456.25 155.63,-375.18 237.97,-247.93 273.23,-200.38"/>
<polygon fill="#63b8ff" stroke="#63b8ff" points="275.8,-202.78 279.05,-192.69 270.22,-198.55 275.8,-202.78"/>
</a>
</g>
</g>
<!-- Node28 -->
<g id="Node000028" class="node">
<title>Node28</title>
<g id="a_Node000028"><a xlink:title=" ">
<polygon fill="#e0e0e0" stroke="#999999" points="487.12,-449.88 436.62,-449.88 436.62,-429.12 487.12,-429.12 487.12,-449.88"/>
<text xml:space="preserve" text-anchor="middle" x="461.88" y="-436.38" font-family="Helvetica,sans-Serif" font-size="10.00">math.h</text>
</a>
</g>
</g>
<!-- Node1&#45;&gt;Node28 -->
<g id="edge59_Node000001_Node000028" class="edge">
<title>Node1&#45;&gt;Node28</title>
<g id="a_edge59_Node000001_Node000028"><a xlink:title=" ">
<path fill="none" stroke="#63b8ff" d="M425.06,-491.81C432.48,-481.48 441.16,-469.37 448.23,-459.51"/>
<polygon fill="#63b8ff" stroke="#63b8ff" points="451.03,-461.62 454.02,-451.45 445.34,-457.54 451.03,-461.62"/>
</a>
</g>
</g>
<!-- Node29 -->
<g id="Node000029" class="node">
<title>Node29</title>
<g id="a_Node000029"><a xlink:href="sync__wait_8h.html" target="_top" xlink:title=" ">
<polygon fill="white" stroke="#666666" points="73.75,-191 0,-191 0,-170.25 73.75,-170.25 73.75,-191"/>
<text xml:space="preserve" text-anchor="middle" x="36.88" y="-177.5" font-family="Helvetica,sans-Serif" font-size="10.00">sync_wait.h</text>
</a>
</g>
</g>
<!-- Node1&#45;&gt;Node29 -->
<g id="edge60_Node000001_Node000029" class="edge">
<title>Node1&#45;&gt;Node29</title>
<g id="a_edge60_Node000001_Node000029"><a xlink:title=" ">
<path fill="none" stroke="#63b8ff" d="M326.74,-498.58C221.05,-475.85 50.88,-430.09 50.88,-371 50.88,-371 50.88,-371 50.88,-299.5 50.88,-265.42 45.03,-226.18 40.9,-202.67"/>
<polygon fill="#63b8ff" stroke="#63b8ff" points="44.34,-202.05 39.09,-192.85 37.46,-203.31 44.34,-202.05"/>
</a>
</g>
</g>
<!-- Node30 -->
<g id="Node000030" class="node">
<title>Node30</title>
<g id="a_Node000030"><a xlink:href="motor__configs_8h.html" target="_top" xlink:title=" ">
<polygon fill="white" stroke="#666666" points="1370.88,-310.88 1276.88,-310.88 1276.88,-290.12 1370.88,-290.12 1370.88,-310.88"/>
<text xml:space="preserve" text-anchor="middle" x="1323.88" y="-297.38" font-family="Helvetica,sans-Serif" font-size="10.00">motor_configs.h</text>
</a>
</g>
</g>
<!-- Node1&#45;&gt;Node30 -->
<g id="edge66_Node000001_Node000030" class="edge">
<title>Node1&#45;&gt;Node30</title>
<g id="a_edge66_Node000001_Node000030"><a xlink:title=" ">
<path fill="none" stroke="#63b8ff" d="M490.88,-495.3C675.11,-452.44 1117.6,-349.49 1270.69,-313.87"/>
<polygon fill="#63b8ff" stroke="#63b8ff" points="1271.21,-317.35 1280.16,-311.67 1269.62,-310.53 1271.21,-317.35"/>
</a>
</g>
</g>
<!-- Node3 -->
<g id="Node000003" class="node">
<title>Node3</title>
<g id="a_Node000003"><a xlink:title=" ">
<polygon fill="#e0e0e0" stroke="#999999" points="442.38,-247.75 381.38,-247.75 381.38,-227 442.38,-227 442.38,-247.75"/>
<text xml:space="preserve" text-anchor="middle" x="411.88" y="-234.25" font-family="Helvetica,sans-Serif" font-size="10.00">stdbool.h</text>
</a>
</g>
</g>
<!-- Node2&#45;&gt;Node3 -->
<g id="edge2_Node000002_Node000003" class="edge">
<title>Node2&#45;&gt;Node3</title>
<g id="a_edge2_Node000002_Node000003"><a xlink:title=" ">
<path fill="none" stroke="#63b8ff" d="M484.6,-283.28C469.9,-274.2 451.65,-262.93 437.11,-253.96"/>
<polygon fill="#63b8ff" stroke="#63b8ff" points="439.37,-251.24 429.02,-248.96 435.69,-257.19 439.37,-251.24"/>
</a>
</g>
</g>
<!-- Node4 -->
<g id="Node000004" class="node">
<title>Node4</title>
<g id="a_Node000004"><a xlink:title=" ">
<polygon fill="#e0e0e0" stroke="#999999" points="521.25,-77.5 468.5,-77.5 468.5,-56.75 521.25,-56.75 521.25,-77.5"/>
<text xml:space="preserve" text-anchor="middle" x="494.88" y="-64" font-family="Helvetica,sans-Serif" font-size="10.00">stdint.h</text>
</a>
</g>
</g>
<!-- Node2&#45;&gt;Node4 -->
<g id="edge3_Node000002_Node000004" class="edge">
<title>Node2&#45;&gt;Node4</title>
<g id="a_edge3_Node000002_Node000004"><a xlink:title=" ">
<path fill="none" stroke="#63b8ff" d="M509.78,-283.6C506.95,-242.81 499.46,-134.49 496.31,-88.85"/>
<polygon fill="#63b8ff" stroke="#63b8ff" points="499.81,-88.77 495.63,-79.03 492.83,-89.25 499.81,-88.77"/>
</a>
</g>
</g>
<!-- Node5 -->
<g id="Node000005" class="node">
<title>Node5</title>
<g id="a_Node000005"><a xlink:title=" ">
<polygon fill="#e0e0e0" stroke="#999999" points="293.62,-77.5 222.12,-77.5 222.12,-56.75 293.62,-56.75 293.62,-77.5"/>
<text xml:space="preserve" text-anchor="middle" x="257.88" y="-64" font-family="Helvetica,sans-Serif" font-size="10.00">FreeRTOS.h</text>
</a>
</g>
</g>
<!-- Node2&#45;&gt;Node5 -->
<g id="edge4_Node000002_Node000005" class="edge">
<title>Node2&#45;&gt;Node5</title>
<g id="a_edge4_Node000002_Node000005"><a xlink:title=" ">
<path fill="none" stroke="#63b8ff" d="M502.41,-283.31C492.64,-266.35 474.9,-240.35 451.88,-227 366.54,-177.53 296.72,-266.19 232.88,-191 207.86,-161.54 229.57,-113.84 245.22,-87.37"/>
<polygon fill="#63b8ff" stroke="#63b8ff" points="248.1,-89.37 250.41,-79.03 242.16,-85.67 248.1,-89.37"/>
</a>
</g>
</g>
<!-- Node6 -->
<g id="Node000006" class="node">
<title>Node6</title>
<g id="a_Node000006"><a xlink:title=" ">
<polygon fill="#e0e0e0" stroke="#999999" points="824.38,-20.75 739.38,-20.75 739.38,0 824.38,0 824.38,-20.75"/>
<text xml:space="preserve" text-anchor="middle" x="781.88" y="-7.25" font-family="Helvetica,sans-Serif" font-size="10.00">fsl_common.h</text>
</a>
</g>
</g>
<!-- Node2&#45;&gt;Node6 -->
<g id="edge5_Node000002_Node000006" class="edge">
<title>Node2&#45;&gt;Node6</title>
<g id="a_edge5_Node000002_Node000006"><a xlink:title=" ">
<path fill="none" stroke="#63b8ff" d="M541.53,-283.37C573.77,-263.94 619.88,-228.03 619.88,-181.62 619.88,-181.62 619.88,-181.62 619.88,-122.88 619.88,-92.3 617.55,-78.67 638.88,-56.75 662.15,-32.83 697.95,-21.49 727.9,-16.12"/>
<polygon fill="#63b8ff" stroke="#63b8ff" points="728.24,-19.61 737.57,-14.59 727.14,-12.7 728.24,-19.61"/>
</a>
</g>
</g>
<!-- Node7 -->
<g id="Node000007" class="node">
<title>Node7</title>
<g id="a_Node000007"><a xlink:href="cmd__handle_8h.html" target="_top" xlink:title=" ">
<polygon fill="white" stroke="#666666" points="402,-134.25 317.75,-134.25 317.75,-113.5 402,-113.5 402,-134.25"/>
<text xml:space="preserve" text-anchor="middle" x="359.88" y="-120.75" font-family="Helvetica,sans-Serif" font-size="10.00">cmd_handle.h</text>
</a>
</g>
</g>
<!-- Node2&#45;&gt;Node7 -->
<g id="edge6_Node000002_Node000007" class="edge">
<title>Node2&#45;&gt;Node7</title>
<g id="a_edge6_Node000002_Node000007"><a xlink:title=" ">
<path fill="none" stroke="#63b8ff" d="M507.72,-283.35C504.11,-267.83 497.07,-244.26 484.88,-227 458.38,-189.49 414.58,-158.16 386.49,-140.46"/>
<polygon fill="#63b8ff" stroke="#63b8ff" points="388.56,-137.62 378.21,-135.36 384.89,-143.58 388.56,-137.62"/>
</a>
</g>
</g>
<!-- Node10 -->
<g id="Node000010" class="node">
<title>Node10</title>
<g id="a_Node000010"><a xlink:href="motor__core_8h.html" target="_top" xlink:title=" ">
<polygon fill="white" stroke="#666666" points="1301.12,-247.75 1220.62,-247.75 1220.62,-227 1301.12,-227 1301.12,-247.75"/>
<text xml:space="preserve" text-anchor="middle" x="1260.88" y="-234.25" font-family="Helvetica,sans-Serif" font-size="10.00">motor_core.h</text>
</a>
</g>
</g>
<!-- Node2&#45;&gt;Node10 -->
<g id="edge12_Node000002_Node000010" class="edge">
<title>Node2&#45;&gt;Node10</title>
<g id="a_edge12_Node000002_Node000010"><a xlink:title=" ">
<path fill="none" stroke="#63b8ff" d="M580.76,-293.8C730.08,-281.64 1077.32,-253.34 1208.99,-242.6"/>
<polygon fill="#63b8ff" stroke="#63b8ff" points="1209.12,-246.1 1218.8,-241.8 1208.55,-239.13 1209.12,-246.1"/>
</a>
</g>
</g>
<!-- Node7&#45;&gt;Node4 -->
<g id="edge7_Node000007_Node000004" class="edge">
<title>Node7&#45;&gt;Node4</title>
<g id="a_edge7_Node000007_Node000004"><a xlink:title=" ">
<path fill="none" stroke="#63b8ff" d="M384.01,-113.09C405.32,-104.44 436.63,-91.75 460.54,-82.05"/>
<polygon fill="#63b8ff" stroke="#63b8ff" points="461.59,-85.4 469.55,-78.4 458.96,-78.91 461.59,-85.4"/>
</a>
</g>
</g>
<!-- Node7&#45;&gt;Node5 -->
<g id="edge8_Node000007_Node000005" class="edge">
<title>Node7&#45;&gt;Node5</title>
<g id="a_edge8_Node000007_Node000005"><a xlink:title=" ">
<path fill="none" stroke="#63b8ff" d="M341.64,-113.09C326.19,-104.8 303.79,-92.77 286.04,-83.24"/>
<polygon fill="#63b8ff" stroke="#63b8ff" points="287.75,-80.19 277.29,-78.54 284.44,-86.36 287.75,-80.19"/>
</a>
</g>
</g>
<!-- Node7&#45;&gt;Node6 -->
<g id="edge10_Node000007_Node000006" class="edge">
<title>Node7&#45;&gt;Node6</title>
<g id="a_edge10_Node000007_Node000006"><a xlink:title=" ">
<path fill="none" stroke="#63b8ff" d="M359.56,-113.01C359.67,-98.28 362.27,-70.78 378.88,-56.75 404.99,-34.68 623.54,-19.98 727.42,-14.17"/>
<polygon fill="#63b8ff" stroke="#63b8ff" points="727.6,-17.66 737.4,-13.62 727.22,-10.67 727.6,-17.66"/>
</a>
</g>
</g>
<!-- Node8 -->
<g id="Node000008" class="node">
<title>Node8</title>
<g id="a_Node000008"><a xlink:title=" ">
<polygon fill="#e0e0e0" stroke="#999999" points="140.38,-77.5 49.38,-77.5 49.38,-56.75 140.38,-56.75 140.38,-77.5"/>
<text xml:space="preserve" text-anchor="middle" x="94.88" y="-64" font-family="Helvetica,sans-Serif" font-size="10.00">event_groups.h</text>
</a>
</g>
</g>
<!-- Node7&#45;&gt;Node8 -->
<g id="edge9_Node000007_Node000008" class="edge">
<title>Node7&#45;&gt;Node8</title>
<g id="a_edge9_Node000007_Node000008"><a xlink:title=" ">
<path fill="none" stroke="#63b8ff" d="M317.3,-114.08C272.37,-104.8 201.32,-90.12 151.65,-79.86"/>
<polygon fill="#63b8ff" stroke="#63b8ff" points="152.44,-76.44 141.94,-77.85 151.02,-83.3 152.44,-76.44"/>
</a>
</g>
</g>
<!-- Node9 -->
<g id="Node000009" class="node">
<title>Node9</title>
<g id="a_Node000009"><a xlink:title=" ">
<polygon fill="#e0e0e0" stroke="#999999" points="439.88,-77.5 387.88,-77.5 387.88,-56.75 439.88,-56.75 439.88,-77.5"/>
<text xml:space="preserve" text-anchor="middle" x="413.88" y="-64" font-family="Helvetica,sans-Serif" font-size="10.00">stdlib.h</text>
</a>
</g>
</g>
<!-- Node7&#45;&gt;Node9 -->
<g id="edge11_Node000007_Node000009" class="edge">
<title>Node7&#45;&gt;Node9</title>
<g id="a_edge11_Node000007_Node000009"><a xlink:title=" ">
<path fill="none" stroke="#63b8ff" d="M369.53,-113.09C376.98,-105.53 387.48,-94.89 396.4,-85.85"/>
<polygon fill="#63b8ff" stroke="#63b8ff" points="398.71,-88.48 403.24,-78.91 393.73,-83.57 398.71,-88.48"/>
</a>
</g>
</g>
<!-- Node11 -->
<g id="Node000011" class="node">
<title>Node11</title>
<g id="a_Node000011"><a xlink:href="pca9555a_8h.html" target="_top" xlink:title=" ">
<polygon fill="white" stroke="#666666" points="1039.88,-77.5 885.88,-77.5 885.88,-56.75 1039.88,-56.75 1039.88,-77.5"/>
<text xml:space="preserve" text-anchor="middle" x="962.88" y="-64" font-family="Helvetica,sans-Serif" font-size="10.00">driver/pca9555a/pca9555a.h</text>
</a>
</g>
</g>
<!-- Node10&#45;&gt;Node11 -->
<g id="edge13_Node000010_Node000011" class="edge">
<title>Node10&#45;&gt;Node11</title>
<g id="a_edge13_Node000010_Node000011"><a xlink:title=" ">
<path fill="none" stroke="#63b8ff" d="M1220.53,-234.65C1174.65,-231.24 1098.63,-221.1 1040.88,-191 1008.33,-174.03 999.73,-165.74 980.88,-134.25 972.55,-120.34 967.98,-102.5 965.54,-88.86"/>
<polygon fill="#63b8ff" stroke="#63b8ff" points="969.04,-88.59 964.07,-79.24 962.12,-89.65 969.04,-88.59"/>
</a>
</g>
</g>
<!-- Node13 -->
<g id="Node000013" class="node">
<title>Node13</title>
<g id="a_Node000013"><a xlink:title=" ">
<polygon fill="#e0e0e0" stroke="#999999" points="1491.25,-191 1402.5,-191 1402.5,-170.25 1491.25,-170.25 1491.25,-191"/>
<text xml:space="preserve" text-anchor="middle" x="1446.88" y="-177.5" font-family="Helvetica,sans-Serif" font-size="10.00">MK22F51212.h</text>
</a>
</g>
</g>
<!-- Node10&#45;&gt;Node13 -->
<g id="edge16_Node000010_Node000013" class="edge">
<title>Node10&#45;&gt;Node13</title>
<g id="a_edge16_Node000010_Node000013"><a xlink:title=" ">
<path fill="none" stroke="#63b8ff" d="M1294.13,-226.59C1324.45,-217.66 1369.47,-204.41 1402.79,-194.6"/>
<polygon fill="#63b8ff" stroke="#63b8ff" points="1403.54,-198.03 1412.14,-191.85 1401.56,-191.31 1403.54,-198.03"/>
</a>
</g>
</g>
<!-- Node14 -->
<g id="Node000014" class="node">
<title>Node14</title>
<g id="a_Node000014"><a xlink:href="step__core_8h.html" target="_top" xlink:title=" ">
<polygon fill="white" stroke="#666666" points="1122,-191 1049.75,-191 1049.75,-170.25 1122,-170.25 1122,-191"/>
<text xml:space="preserve" text-anchor="middle" x="1085.88" y="-177.5" font-family="Helvetica,sans-Serif" font-size="10.00">step_core.h</text>
</a>
</g>
</g>
<!-- Node10&#45;&gt;Node14 -->
<g id="edge17_Node000010_Node000014" class="edge">
<title>Node10&#45;&gt;Node14</title>
<g id="a_edge17_Node000010_Node000014"><a xlink:title=" ">
<path fill="none" stroke="#63b8ff" d="M1229.59,-226.59C1201.18,-217.7 1159.07,-204.52 1127.77,-194.73"/>
<polygon fill="#63b8ff" stroke="#63b8ff" points="1129.22,-191.52 1118.63,-191.87 1127.13,-198.2 1129.22,-191.52"/>
</a>
</g>
</g>
<!-- Node16 -->
<g id="Node000016" class="node">
<title>Node16</title>
<g id="a_Node000016"><a xlink:title=" ">
<polygon fill="#e0e0e0" stroke="#999999" points="1374.25,-77.5 1315.5,-77.5 1315.5,-56.75 1374.25,-56.75 1374.25,-77.5"/>
<text xml:space="preserve" text-anchor="middle" x="1344.88" y="-64" font-family="Helvetica,sans-Serif" font-size="10.00">fsl_ftm.h</text>
</a>
</g>
</g>
<!-- Node10&#45;&gt;Node16 -->
<g id="edge42_Node000010_Node000016" class="edge">
<title>Node10&#45;&gt;Node16</title>
<g id="a_edge42_Node000010_Node000016"><a xlink:title=" ">
<path fill="none" stroke="#63b8ff" d="M1265.63,-226.85C1278.97,-200.14 1316.92,-124.12 1335.03,-87.85"/>
<polygon fill="#63b8ff" stroke="#63b8ff" points="1337.95,-89.83 1339.28,-79.32 1331.69,-86.71 1337.95,-89.83"/>
</a>
</g>
</g>
<!-- Node17 -->
<g id="Node000017" class="node">
<title>Node17</title>
<g id="a_Node000017"><a xlink:title=" ">
<polygon fill="#e0e0e0" stroke="#999999" points="1455.5,-77.5 1392.25,-77.5 1392.25,-56.75 1455.5,-56.75 1455.5,-77.5"/>
<text xml:space="preserve" text-anchor="middle" x="1423.88" y="-64" font-family="Helvetica,sans-Serif" font-size="10.00">fsl_gpio.h</text>
</a>
</g>
</g>
<!-- Node10&#45;&gt;Node17 -->
<g id="edge43_Node000010_Node000017" class="edge">
<title>Node10&#45;&gt;Node17</title>
<g id="a_edge43_Node000010_Node000017"><a xlink:title=" ">
<path fill="none" stroke="#63b8ff" d="M1270.11,-226.85C1296.43,-199.67 1372.18,-121.48 1406.55,-86.01"/>
<polygon fill="#63b8ff" stroke="#63b8ff" points="1408.84,-88.67 1413.29,-79.05 1403.81,-83.8 1408.84,-88.67"/>
</a>
</g>
</g>
<!-- Node18 -->
<g id="Node000018" class="node">
<title>Node18</title>
<g id="a_Node000018"><a xlink:title=" ">
<polygon fill="#e0e0e0" stroke="#999999" points="1297.75,-77.5 1236,-77.5 1236,-56.75 1297.75,-56.75 1297.75,-77.5"/>
<text xml:space="preserve" text-anchor="middle" x="1266.88" y="-64" font-family="Helvetica,sans-Serif" font-size="10.00">fsl_port.h</text>
</a>
</g>
</g>
<!-- Node10&#45;&gt;Node18 -->
<g id="edge44_Node000010_Node000018" class="edge">
<title>Node10&#45;&gt;Node18</title>
<g id="a_edge44_Node000010_Node000018"><a xlink:title=" ">
<path fill="none" stroke="#63b8ff" d="M1261.21,-226.85C1262.16,-200.48 1264.81,-126.08 1266.12,-89.28"/>
<polygon fill="#63b8ff" stroke="#63b8ff" points="1269.61,-89.6 1266.47,-79.48 1262.62,-89.35 1269.61,-89.6"/>
</a>
</g>
</g>
<!-- Node21 -->
<g id="Node000021" class="node">
<title>Node21</title>
<g id="a_Node000021"><a xlink:href="tmc2209__core_8h.html" target="_top" xlink:title=" ">
<polygon fill="white" stroke="#666666" points="788.88,-191 694.88,-191 694.88,-170.25 788.88,-170.25 788.88,-191"/>
<text xml:space="preserve" text-anchor="middle" x="741.88" y="-177.5" font-family="Helvetica,sans-Serif" font-size="10.00">tmc2209_core.h</text>
</a>
</g>
</g>
<!-- Node10&#45;&gt;Node21 -->
<g id="edge34_Node000010_Node000021" class="edge">
<title>Node10&#45;&gt;Node21</title>
<g id="a_edge34_Node000010_Node000021"><a xlink:title=" ">
<path fill="none" stroke="#63b8ff" d="M1220.15,-232.08C1128.62,-222.42 906.35,-198.98 800.19,-187.78"/>
<polygon fill="#63b8ff" stroke="#63b8ff" points="800.88,-184.33 790.57,-186.76 800.15,-191.29 800.88,-184.33"/>
</a>
</g>
</g>
<!-- Node11&#45;&gt;Node6 -->
<g id="edge14_Node000011_Node000006" class="edge">
<title>Node11&#45;&gt;Node6</title>
<g id="a_edge14_Node000011_Node000006"><a xlink:title=" ">
<path fill="none" stroke="#63b8ff" d="M930.52,-56.34C901.14,-47.45 857.58,-34.27 825.2,-24.48"/>
<polygon fill="#63b8ff" stroke="#63b8ff" points="826.29,-21.15 815.71,-21.61 824.27,-27.85 826.29,-21.15"/>
</a>
</g>
</g>
<!-- Node12 -->
<g id="Node000012" class="node">
<title>Node12</title>
<g id="a_Node000012"><a xlink:title=" ">
<polygon fill="#e0e0e0" stroke="#999999" points="1002.75,-20.75 923,-20.75 923,0 1002.75,0 1002.75,-20.75"/>
<text xml:space="preserve" text-anchor="middle" x="962.88" y="-7.25" font-family="Helvetica,sans-Serif" font-size="10.00">peripherals.h</text>
</a>
</g>
</g>
<!-- Node11&#45;&gt;Node12 -->
<g id="edge15_Node000011_Node000012" class="edge">
<title>Node11&#45;&gt;Node12</title>
<g id="a_edge15_Node000011_Node000012"><a xlink:title=" ">
<path fill="none" stroke="#63b8ff" d="M962.88,-56.34C962.88,-49.72 962.88,-40.72 962.88,-32.52"/>
<polygon fill="#63b8ff" stroke="#63b8ff" points="966.38,-32.59 962.88,-22.59 959.38,-32.59 966.38,-32.59"/>
</a>
</g>
</g>
<!-- Node14&#45;&gt;Node5 -->
<g id="edge19_Node000014_Node000005" class="edge">
<title>Node14&#45;&gt;Node5</title>
<g id="a_edge19_Node000014_Node000005"><a xlink:title=" ">
<path fill="none" stroke="#63b8ff" d="M1049.27,-176.79C972.82,-170.68 790.73,-155.11 638.88,-134.25 517.98,-117.64 376.67,-91.28 304.9,-77.39"/>
<polygon fill="#63b8ff" stroke="#63b8ff" points="305.96,-74.03 295.48,-75.56 304.62,-80.9 305.96,-74.03"/>
</a>
</g>
</g>
<!-- Node14&#45;&gt;Node6 -->
<g id="edge21_Node000014_Node000006" class="edge">
<title>Node14&#45;&gt;Node6</title>
<g id="a_edge21_Node000014_Node000006"><a xlink:title=" ">
<path fill="none" stroke="#63b8ff" d="M1061.4,-169.79C1039.94,-161 1008.01,-147.48 980.88,-134.25 933.55,-111.17 921.66,-105.19 876.88,-77.5 851.23,-61.64 823.02,-41.66 804.05,-27.83"/>
<polygon fill="#63b8ff" stroke="#63b8ff" points="806.14,-25.03 796.01,-21.93 802,-30.67 806.14,-25.03"/>
</a>
</g>
</g>
<!-- Node14&#45;&gt;Node7 -->
<g id="edge25_Node000014_Node000007" class="edge">
<title>Node14&#45;&gt;Node7</title>
<g id="a_edge25_Node000014_Node000007"><a xlink:title=" ">
<path fill="none" stroke="#63b8ff" d="M1049.38,-176.87C930.51,-167.91 554.12,-139.52 413.54,-128.92"/>
<polygon fill="#63b8ff" stroke="#63b8ff" points="413.99,-125.45 403.76,-128.18 413.47,-132.43 413.99,-125.45"/>
</a>
</g>
</g>
<!-- Node14&#45;&gt;Node11 -->
<g id="edge18_Node000014_Node000011" class="edge">
<title>Node14&#45;&gt;Node11</title>
<g id="a_edge18_Node000014_Node000011"><a xlink:title=" ">
<path fill="none" stroke="#63b8ff" d="M1058.13,-169.8C1039.89,-162.26 1016.43,-150.4 999.88,-134.25 986.63,-121.33 976.78,-102.65 970.58,-88.44"/>
<polygon fill="#63b8ff" stroke="#63b8ff" points="973.82,-87.12 966.81,-79.18 967.34,-89.76 973.82,-87.12"/>
</a>
</g>
</g>
<!-- Node15 -->
<g id="Node000015" class="node">
<title>Node15</title>
<g id="a_Node000015"><a xlink:title=" ">
<polygon fill="#e0e0e0" stroke="#999999" points="1194.88,-134.25 1148.88,-134.25 1148.88,-113.5 1194.88,-113.5 1194.88,-134.25"/>
<text xml:space="preserve" text-anchor="middle" x="1171.88" y="-120.75" font-family="Helvetica,sans-Serif" font-size="10.00">task.h</text>
</a>
</g>
</g>
<!-- Node14&#45;&gt;Node15 -->
<g id="edge20_Node000014_Node000015" class="edge">
<title>Node14&#45;&gt;Node15</title>
<g id="a_edge20_Node000014_Node000015"><a xlink:title=" ">
<path fill="none" stroke="#63b8ff" d="M1101.25,-169.84C1113.97,-161.74 1132.28,-150.08 1147.07,-140.67"/>
<polygon fill="#63b8ff" stroke="#63b8ff" points="1148.8,-143.71 1155.36,-135.39 1145.04,-137.81 1148.8,-143.71"/>
</a>
</g>
</g>
<!-- Node14&#45;&gt;Node16 -->
<g id="edge22_Node000014_Node000016" class="edge">
<title>Node14&#45;&gt;Node16</title>
<g id="a_edge22_Node000014_Node000016"><a xlink:title=" ">
<path fill="none" stroke="#63b8ff" d="M1112.81,-169.89C1136.87,-161.05 1172.98,-147.41 1203.88,-134.25 1242.69,-117.71 1286.58,-96.76 1314.94,-82.93"/>
<polygon fill="#63b8ff" stroke="#63b8ff" points="1316.2,-86.21 1323.64,-78.66 1313.12,-79.92 1316.2,-86.21"/>
</a>
</g>
</g>
<!-- Node14&#45;&gt;Node17 -->
<g id="edge23_Node000014_Node000017" class="edge">
<title>Node14&#45;&gt;Node17</title>
<g id="a_edge23_Node000014_Node000017"><a xlink:title=" ">
<path fill="none" stroke="#63b8ff" d="M1121.53,-169.76C1152.86,-160.94 1199.6,-147.41 1239.88,-134.25 1291.49,-117.39 1350.44,-95.78 1387.4,-81.94"/>
<polygon fill="#63b8ff" stroke="#63b8ff" points="1388.59,-85.24 1396.72,-78.44 1386.13,-78.68 1388.59,-85.24"/>
</a>
</g>
</g>
<!-- Node14&#45;&gt;Node18 -->
<g id="edge24_Node000014_Node000018" class="edge">
<title>Node14&#45;&gt;Node18</title>
<g id="a_edge24_Node000014_Node000018"><a xlink:title=" ">
<path fill="none" stroke="#63b8ff" d="M1091.28,-170.14C1099.84,-155.91 1117.84,-129.05 1139.88,-113.5 1153.91,-103.6 1193.56,-90.14 1224.87,-80.46"/>
<polygon fill="#63b8ff" stroke="#63b8ff" points="1225.54,-83.91 1234.09,-77.65 1223.5,-77.22 1225.54,-83.91"/>
</a>
</g>
</g>
<!-- Node19 -->
<g id="Node000019" class="node">
<title>Node19</title>
<g id="a_Node000019"><a xlink:href="step__shared_8h.html" target="_top" xlink:title=" ">
<polygon fill="white" stroke="#666666" points="1093,-134.25 1008.75,-134.25 1008.75,-113.5 1093,-113.5 1093,-134.25"/>
<text xml:space="preserve" text-anchor="middle" x="1050.88" y="-120.75" font-family="Helvetica,sans-Serif" font-size="10.00">step_shared.h</text>
</a>
</g>
</g>
<!-- Node14&#45;&gt;Node19 -->
<g id="edge26_Node000014_Node000019" class="edge">
<title>Node14&#45;&gt;Node19</title>
<g id="a_edge26_Node000014_Node000019"><a xlink:title=" ">
<path fill="none" stroke="#63b8ff" d="M1079.62,-169.84C1075.04,-162.67 1068.68,-152.73 1063.11,-144.01"/>
<polygon fill="#63b8ff" stroke="#63b8ff" points="1066.23,-142.39 1057.89,-135.85 1060.33,-146.16 1066.23,-142.39"/>
</a>
</g>
</g>
<!-- Node19&#45;&gt;Node4 -->
<g id="edge27_Node000019_Node000004" class="edge">
<title>Node19&#45;&gt;Node4</title>
<g id="a_edge27_Node000019_Node000004"><a xlink:title=" ">
<path fill="none" stroke="#63b8ff" d="M1008.63,-118.71C903.79,-108.39 632.98,-81.72 532.83,-71.86"/>
<polygon fill="#63b8ff" stroke="#63b8ff" points="533.29,-68.39 523,-70.89 532.61,-75.36 533.29,-68.39"/>
</a>
</g>
</g>
<!-- Node19&#45;&gt;Node6 -->
<g id="edge30_Node000019_Node000006" class="edge">
<title>Node19&#45;&gt;Node6</title>
<g id="a_edge30_Node000019_Node000006"><a xlink:title=" ">
<path fill="none" stroke="#63b8ff" d="M1053.91,-113.45C1057.82,-99.29 1062.6,-72.52 1048.88,-56.75 1035.06,-40.89 910.13,-25.03 836.15,-16.92"/>
<polygon fill="#63b8ff" stroke="#63b8ff" points="836.56,-13.45 826.24,-15.85 835.81,-20.41 836.56,-13.45"/>
</a>
</g>
</g>
<!-- Node19&#45;&gt;Node11 -->
<g id="edge28_Node000019_Node000011" class="edge">
<title>Node19&#45;&gt;Node11</title>
<g id="a_edge28_Node000019_Node000011"><a xlink:title=" ">
<path fill="none" stroke="#63b8ff" d="M1035.14,-113.09C1022,-104.91 1003.03,-93.11 987.82,-83.65"/>
<polygon fill="#63b8ff" stroke="#63b8ff" points="990.1,-80.94 979.76,-78.63 986.4,-86.88 990.1,-80.94"/>
</a>
</g>
</g>
<!-- Node19&#45;&gt;Node16 -->
<g id="edge31_Node000019_Node000016" class="edge">
<title>Node19&#45;&gt;Node16</title>
<g id="a_edge31_Node000019_Node000016"><a xlink:title=" ">
<path fill="none" stroke="#63b8ff" d="M1093.17,-116.26C1141.78,-108.47 1224.2,-94.66 1303.83,-78.05"/>
<polygon fill="#63b8ff" stroke="#63b8ff" points="1304.5,-81.48 1313.57,-75.99 1303.06,-74.63 1304.5,-81.48"/>
</a>
</g>
</g>
<!-- Node19&#45;&gt;Node17 -->
<g id="edge32_Node000019_Node000017" class="edge">
<title>Node19&#45;&gt;Node17</title>
<g id="a_edge32_Node000019_Node000017"><a xlink:title=" ">
<path fill="none" stroke="#63b8ff" d="M1093.25,-118.31C1154.45,-111.44 1271.33,-97.33 1380.89,-77.71"/>
<polygon fill="#63b8ff" stroke="#63b8ff" points="1381.44,-81.17 1390.66,-75.94 1380.2,-74.28 1381.44,-81.17"/>
</a>
</g>
</g>
<!-- Node19&#45;&gt;Node18 -->
<g id="edge33_Node000019_Node000018" class="edge">
<title>Node19&#45;&gt;Node18</title>
<g id="a_edge33_Node000019_Node000018"><a xlink:title=" ">
<path fill="none" stroke="#63b8ff" d="M1089.49,-113.09C1127.48,-103.46 1185.34,-88.79 1224.56,-78.85"/>
<polygon fill="#63b8ff" stroke="#63b8ff" points="1225.3,-82.27 1234.13,-76.43 1223.58,-75.49 1225.3,-82.27"/>
</a>
</g>
</g>
<!-- Node20 -->
<g id="Node000020" class="node">
<title>Node20</title>
<g id="a_Node000020"><a xlink:title=" ">
<polygon fill="#e0e0e0" stroke="#999999" points="1218.12,-77.5 1095.62,-77.5 1095.62,-56.75 1218.12,-56.75 1218.12,-77.5"/>
<text xml:space="preserve" text-anchor="middle" x="1156.88" y="-64" font-family="Helvetica,sans-Serif" font-size="10.00">fsl_device_registers.h</text>
</a>
</g>
</g>
<!-- Node19&#45;&gt;Node20 -->
<g id="edge29_Node000019_Node000020" class="edge">
<title>Node19&#45;&gt;Node20</title>
<g id="a_edge29_Node000019_Node000020"><a xlink:title=" ">
<path fill="none" stroke="#63b8ff" d="M1069.83,-113.09C1085.95,-104.76 1109.38,-92.66 1127.87,-83.11"/>
<polygon fill="#63b8ff" stroke="#63b8ff" points="1129.46,-86.22 1136.74,-78.52 1126.25,-80 1129.46,-86.22"/>
</a>
</g>
</g>
<!-- Node21&#45;&gt;Node4 -->
<g id="edge35_Node000021_Node000004" class="edge">
<title>Node21&#45;&gt;Node4</title>
<g id="a_edge35_Node000021_Node000004"><a xlink:title=" ">
<path fill="none" stroke="#63b8ff" d="M719.33,-169.81C698.43,-160.69 666.5,-146.68 638.88,-134.25 599.94,-116.74 555.3,-96.16 526.17,-82.67"/>
<polygon fill="#63b8ff" stroke="#63b8ff" points="527.73,-79.53 517.19,-78.5 524.79,-85.88 527.73,-79.53"/>
</a>
</g>
</g>
<!-- Node21&#45;&gt;Node6 -->
<g id="edge39_Node000021_Node000006" class="edge">
<title>Node21&#45;&gt;Node6</title>
<g id="a_edge39_Node000021_Node000006"><a xlink:title=" ">
<path fill="none" stroke="#63b8ff" d="M747.38,-169.85C752.19,-160.87 759.01,-147.05 762.88,-134.25 773.4,-99.41 778.3,-57.16 780.42,-32.38"/>
<polygon fill="#63b8ff" stroke="#63b8ff" points="783.9,-32.89 781.18,-22.65 776.92,-32.35 783.9,-32.89"/>
</a>
</g>
</g>
<!-- Node21&#45;&gt;Node7 -->
<g id="edge40_Node000021_Node000007" class="edge">
<title>Node21&#45;&gt;Node7</title>
<g id="a_edge40_Node000021_Node000007"><a xlink:title=" ">
<path fill="none" stroke="#63b8ff" d="M694.65,-172.86C623.26,-162.62 488.26,-143.28 413.35,-132.54"/>
<polygon fill="#63b8ff" stroke="#63b8ff" points="414.2,-129.12 403.8,-131.17 413.2,-136.05 414.2,-129.12"/>
</a>
</g>
</g>
<!-- Node21&#45;&gt;Node12 -->
<g id="edge41_Node000021_Node000012" class="edge">
<title>Node21&#45;&gt;Node12</title>
<g id="a_edge41_Node000021_Node000012"><a xlink:title=" ">
<path fill="none" stroke="#63b8ff" d="M750.98,-169.79C771.78,-147.68 824.99,-93.16 876.88,-56.75 893.65,-44.98 913.86,-34.16 930.47,-26.05"/>
<polygon fill="#63b8ff" stroke="#63b8ff" points="931.91,-29.24 939.42,-21.78 928.89,-22.92 931.91,-29.24"/>
</a>
</g>
</g>
<!-- Node22 -->
<g id="Node000022" class="node">
<title>Node22</title>
<g id="a_Node000022"><a xlink:href="tmc2209__shared_8h.html" target="_top" xlink:title=" ">
<polygon fill="white" stroke="#666666" points="753.88,-134.25 647.88,-134.25 647.88,-113.5 753.88,-113.5 753.88,-134.25"/>
<text xml:space="preserve" text-anchor="middle" x="700.88" y="-120.75" font-family="Helvetica,sans-Serif" font-size="10.00">tmc2209_shared.h</text>
</a>
</g>
</g>
<!-- Node21&#45;&gt;Node22 -->
<g id="edge36_Node000021_Node000022" class="edge">
<title>Node21&#45;&gt;Node22</title>
<g id="a_edge36_Node000021_Node000022"><a xlink:title=" ">
<path fill="none" stroke="#63b8ff" d="M734.55,-169.84C729.12,-162.6 721.57,-152.51 714.99,-143.72"/>
<polygon fill="#63b8ff" stroke="#63b8ff" points="717.84,-141.7 709.05,-135.79 712.24,-145.89 717.84,-141.7"/>
</a>
</g>
</g>
<!-- Node22&#45;&gt;Node4 -->
<g id="edge37_Node000022_Node000004" class="edge">
<title>Node22&#45;&gt;Node4</title>
<g id="a_edge37_Node000022_Node000004"><a xlink:title=" ">
<path fill="none" stroke="#63b8ff" d="M664.05,-113.09C626.92,-103.22 569.9,-88.06 532.49,-78.12"/>
<polygon fill="#63b8ff" stroke="#63b8ff" points="533.58,-74.79 523.02,-75.61 531.79,-81.56 533.58,-74.79"/>
</a>
</g>
</g>
<!-- Node23 -->
<g id="Node000023" class="node">
<title>Node23</title>
<g id="a_Node000023"><a xlink:title=" ">
<polygon fill="#e0e0e0" stroke="#999999" points="753.5,-77.5 648.25,-77.5 648.25,-56.75 753.5,-56.75 753.5,-77.5"/>
<text xml:space="preserve" text-anchor="middle" x="700.88" y="-64" font-family="Helvetica,sans-Serif" font-size="10.00">fsl_uart_freertos.h</text>
</a>
</g>
</g>
<!-- Node22&#45;&gt;Node23 -->
<g id="edge38_Node000022_Node000023" class="edge">
<title>Node22&#45;&gt;Node23</title>
<g id="a_edge38_Node000022_Node000023"><a xlink:title=" ">
<path fill="none" stroke="#63b8ff" d="M700.88,-113.09C700.88,-106.47 700.88,-97.47 700.88,-89.27"/>
<polygon fill="#63b8ff" stroke="#63b8ff" points="704.38,-89.34 700.88,-79.34 697.38,-89.34 704.38,-89.34"/>
</a>
</g>
</g>
<!-- Node24&#45;&gt;Node2 -->
<g id="edge51_Node000024_Node000002" class="edge">
<title>Node24&#45;&gt;Node2</title>
<g id="a_edge51_Node000024_Node000002"><a xlink:title=" ">
<path fill="none" stroke="#63b8ff" d="M376.27,-352.83C400.81,-343.47 431.91,-331.61 458.03,-321.65"/>
<polygon fill="#63b8ff" stroke="#63b8ff" points="459.01,-325.03 467.1,-318.19 456.51,-318.49 459.01,-325.03"/>
</a>
</g>
</g>
<!-- Node24&#45;&gt;Node3 -->
<g id="edge46_Node000024_Node000003" class="edge">
<title>Node24&#45;&gt;Node3</title>
<g id="a_edge46_Node000024_Node000003"><a xlink:title=" ">
<path fill="none" stroke="#63b8ff" d="M344.49,-352.81C351.06,-342.67 359.61,-329.29 366.88,-317.25 378.92,-297.29 392.07,-274.07 401.02,-258.02"/>
<polygon fill="#63b8ff" stroke="#63b8ff" points="403.96,-259.94 405.75,-249.5 397.84,-256.55 403.96,-259.94"/>
</a>
</g>
</g>
<!-- Node24&#45;&gt;Node4 -->
<g id="edge47_Node000024_Node000004" class="edge">
<title>Node24&#45;&gt;Node4</title>
<g id="a_edge47_Node000024_Node000004"><a xlink:title=" ">
<path fill="none" stroke="#63b8ff" d="M336.21,-352.94C340.59,-325.84 351.59,-269.81 372.88,-227 387.88,-196.83 450.07,-121.3 479.42,-86.37"/>
<polygon fill="#63b8ff" stroke="#63b8ff" points="482.01,-88.72 485.78,-78.82 476.66,-84.21 482.01,-88.72"/>
</a>
</g>
</g>
<!-- Node24&#45;&gt;Node5 -->
<g id="edge48_Node000024_Node000005" class="edge">
<title>Node24&#45;&gt;Node5</title>
<g id="a_edge48_Node000024_Node000005"><a xlink:title=" ">
<path fill="none" stroke="#63b8ff" d="M255.33,-357.78C188.03,-343.22 101.88,-310.48 101.88,-238.38 101.88,-238.38 101.88,-238.38 101.88,-179.62 101.88,-149.05 99.69,-135.55 120.88,-113.5 144.24,-89.18 180.92,-77.89 210.45,-72.65"/>
<polygon fill="#63b8ff" stroke="#63b8ff" points="210.95,-76.11 220.29,-71.1 209.87,-69.2 210.95,-76.11"/>
</a>
</g>
</g>
<!-- Node24&#45;&gt;Node7 -->
<g id="edge50_Node000024_Node000007" class="edge">
<title>Node24&#45;&gt;Node7</title>
<g id="a_edge50_Node000024_Node000007"><a xlink:title=" ">
<path fill="none" stroke="#63b8ff" d="M333.57,-353.17C333.26,-326.88 333.43,-272.56 338.88,-227 342.27,-198.57 349.49,-166.29 354.51,-145.76"/>
<polygon fill="#63b8ff" stroke="#63b8ff" points="357.89,-146.66 356.93,-136.11 351.1,-144.96 357.89,-146.66"/>
</a>
</g>
</g>
<!-- Node25 -->
<g id="Node000025" class="node">
<title>Node25</title>
<g id="a_Node000025"><a xlink:title=" ">
<polygon fill="#e0e0e0" stroke="#999999" points="185.38,-134.25 130.38,-134.25 130.38,-113.5 185.38,-113.5 185.38,-134.25"/>
<text xml:space="preserve" text-anchor="middle" x="157.88" y="-120.75" font-family="Helvetica,sans-Serif" font-size="10.00">queue.h</text>
</a>
</g>
</g>
<!-- Node24&#45;&gt;Node25 -->
<g id="edge49_Node000024_Node000025" class="edge">
<title>Node24&#45;&gt;Node25</title>
<g id="a_edge49_Node000024_Node000025"><a xlink:title=" ">
<path fill="none" stroke="#63b8ff" d="M321.24,-353.12C296.95,-322.38 242.37,-252.38 199.88,-191 189.12,-175.47 177.68,-157.33 169.45,-143.98"/>
<polygon fill="#63b8ff" stroke="#63b8ff" points="172.62,-142.44 164.41,-135.74 166.64,-146.1 172.62,-142.44"/>
</a>
</g>
</g>
<!-- Node26&#45;&gt;Node24 -->
<g id="edge53_Node000026_Node000024" class="edge">
<title>Node26&#45;&gt;Node24</title>
<g id="a_edge53_Node000026_Node000024"><a xlink:title=" ">
<path fill="none" stroke="#63b8ff" d="M310.22,-422.5C313.7,-414.94 317.93,-405.71 321.86,-397.16"/>
<polygon fill="#63b8ff" stroke="#63b8ff" points="324.96,-398.81 325.95,-388.26 318.6,-395.88 324.96,-398.81"/>
</a>
</g>
</g>
<!-- Node27&#45;&gt;Node4 -->
<g id="edge55_Node000027_Node000004" class="edge">
<title>Node27&#45;&gt;Node4</title>
<g id="a_edge55_Node000027_Node000004"><a xlink:title=" ">
<path fill="none" stroke="#63b8ff" d="M323.35,-169.79C348.64,-162.01 382.97,-149.87 410.88,-134.25 435.47,-120.49 460.45,-99.78 476.7,-85.21"/>
<polygon fill="#63b8ff" stroke="#63b8ff" points="478.63,-88.19 483.65,-78.86 473.91,-83.02 478.63,-88.19"/>
</a>
</g>
</g>
<!-- Node27&#45;&gt;Node5 -->
<g id="edge56_Node000027_Node000005" class="edge">
<title>Node27&#45;&gt;Node5</title>
<g id="a_edge56_Node000027_Node000005"><a xlink:title=" ">
<path fill="none" stroke="#63b8ff" d="M285.32,-170.12C280.49,-152.19 269.95,-113 263.43,-88.76"/>
<polygon fill="#63b8ff" stroke="#63b8ff" points="266.88,-88.13 260.91,-79.39 260.12,-89.95 266.88,-88.13"/>
</a>
</g>
</g>
<!-- Node27&#45;&gt;Node7 -->
<g id="edge58_Node000027_Node000007" class="edge">
<title>Node27&#45;&gt;Node7</title>
<g id="a_edge58_Node000027_Node000007"><a xlink:title=" ">
<path fill="none" stroke="#63b8ff" d="M300.75,-169.84C311.09,-161.97 325.84,-150.75 338.03,-141.49"/>
<polygon fill="#63b8ff" stroke="#63b8ff" points="340.07,-144.33 345.91,-135.49 335.83,-138.76 340.07,-144.33"/>
</a>
</g>
</g>
<!-- Node27&#45;&gt;Node25 -->
<g id="edge57_Node000027_Node000025" class="edge">
<title>Node27&#45;&gt;Node25</title>
<g id="a_edge57_Node000027_Node000025"><a xlink:title=" ">
<path fill="none" stroke="#63b8ff" d="M264.63,-169.84C244.21,-161.23 214.24,-148.61 191.25,-138.93"/>
<polygon fill="#63b8ff" stroke="#63b8ff" points="192.88,-135.82 182.31,-135.17 190.17,-142.27 192.88,-135.82"/>
</a>
</g>
</g>
<!-- Node29&#45;&gt;Node4 -->
<g id="edge61_Node000029_Node000004" class="edge">
<title>Node29&#45;&gt;Node4</title>
<g id="a_edge61_Node000029_Node000004"><a xlink:title=" ">
<path fill="none" stroke="#63b8ff" d="M73.97,-170.59C159.68,-149.73 370.75,-98.34 457.11,-77.32"/>
<polygon fill="#63b8ff" stroke="#63b8ff" points="457.85,-80.74 466.74,-74.97 456.19,-73.94 457.85,-80.74"/>
</a>
</g>
</g>
<!-- Node29&#45;&gt;Node5 -->
<g id="edge62_Node000029_Node000005" class="edge">
<title>Node29&#45;&gt;Node5</title>
<g id="a_edge62_Node000029_Node000005"><a xlink:title=" ">
<path fill="none" stroke="#63b8ff" d="M41.69,-169.91C49.4,-155.37 65.91,-128.12 87.88,-113.5 124.82,-88.91 174.58,-77.62 210.71,-72.45"/>
<polygon fill="#63b8ff" stroke="#63b8ff" points="210.97,-75.94 220.43,-71.17 210.06,-69 210.97,-75.94"/>
</a>
</g>
</g>
<!-- Node29&#45;&gt;Node6 -->
<g id="edge64_Node000029_Node000006" class="edge">
<title>Node29&#45;&gt;Node6</title>
<g id="a_edge64_Node000029_Node000006"><a xlink:title=" ">
<path fill="none" stroke="#63b8ff" d="M33.32,-169.99C25.47,-146.86 9.64,-87.77 39.88,-56.75 63.83,-32.17 560.52,-17.1 727.59,-12.72"/>
<polygon fill="#63b8ff" stroke="#63b8ff" points="727.62,-16.22 737.53,-12.46 727.44,-9.22 727.62,-16.22"/>
</a>
</g>
</g>
<!-- Node29&#45;&gt;Node7 -->
<g id="edge65_Node000029_Node000007" class="edge">
<title>Node29&#45;&gt;Node7</title>
<g id="a_edge65_Node000029_Node000007"><a xlink:title=" ">
<path fill="none" stroke="#63b8ff" d="M74.24,-173.29C131.34,-163.61 240.58,-145.1 306.17,-133.98"/>
<polygon fill="#63b8ff" stroke="#63b8ff" points="306.72,-137.43 316,-132.31 305.55,-130.53 306.72,-137.43"/>
</a>
</g>
</g>
<!-- Node29&#45;&gt;Node8 -->
<g id="edge63_Node000029_Node000008" class="edge">
<title>Node29&#45;&gt;Node8</title>
<g id="a_edge63_Node000029_Node000008"><a xlink:title=" ">
<path fill="none" stroke="#63b8ff" d="M37.04,-170.07C37.64,-156.68 40.12,-131.9 49.88,-113.5 55.59,-102.73 64.68,-92.85 73.2,-85.08"/>
<polygon fill="#63b8ff" stroke="#63b8ff" points="75.24,-87.94 80.56,-78.78 70.69,-82.62 75.24,-87.94"/>
</a>
</g>
</g>
<!-- Node30&#45;&gt;Node10 -->
<g id="edge68_Node000030_Node000010" class="edge">
<title>Node30&#45;&gt;Node10</title>
<g id="a_edge68_Node000030_Node000010"><a xlink:title=" ">
<path fill="none" stroke="#63b8ff" d="M1313.75,-289.68C1304.33,-280.54 1290.07,-266.7 1278.74,-255.7"/>
<polygon fill="#63b8ff" stroke="#63b8ff" points="1281.46,-253.48 1271.85,-249.02 1276.59,-258.5 1281.46,-253.48"/>
</a>
</g>
</g>
<!-- Node30&#45;&gt;Node12 -->
<g id="edge69_Node000030_Node000012" class="edge">
<title>Node30&#45;&gt;Node12</title>
<g id="a_edge69_Node000030_Node000012"><a xlink:title=" ">
<path fill="none" stroke="#63b8ff" d="M1371.08,-292.15C1428.79,-280.18 1518.88,-250.46 1518.88,-181.62 1518.88,-181.62 1518.88,-181.62 1518.88,-122.88 1518.88,-84.93 1498.39,-74.54 1464.88,-56.75 1387.8,-15.83 1126.13,-11.13 1014.27,-11.05"/>
<polygon fill="#63b8ff" stroke="#63b8ff" points="1014.48,-7.55 1004.49,-11.06 1014.49,-14.55 1014.48,-7.55"/>
</a>
</g>
</g>
<!-- Node30&#45;&gt;Node13 -->
<g id="edge67_Node000030_Node000013" class="edge">
<title>Node30&#45;&gt;Node13</title>
<g id="a_edge67_Node000030_Node000013"><a xlink:title=" ">
<path fill="none" stroke="#63b8ff" d="M1333.94,-289.85C1354.66,-269.99 1402.35,-224.3 1428.64,-199.1"/>
<polygon fill="#63b8ff" stroke="#63b8ff" points="1430.78,-201.9 1435.58,-192.45 1425.94,-196.84 1430.78,-201.9"/>
</a>
</g>
</g>
</g>
</svg>

<g id="navigator" transform="translate(0 0)" fill="#404254">
  <rect fill="#f2f5e9" fill-opacity="0.5" stroke="#606060" stroke-width=".5" x="0" y="0" width="60" height="60"/>
  <use id="zoomplus" xlink:href="#zoomPlus" x="17" y="9" onmousedown="handleZoom(evt,'in')"/>
  <use id="zoomminus" xlink:href="#zoomMin" x="42" y="9" onmousedown="handleZoom(evt,'out')"/>
  <use id="reset" xlink:href="#resetDef" x="30" y="36" onmousedown="handleReset()"/>
   <use id="arrowup" xlink:href="#arrowUp" x="0" y="0" onmousedown="handlePan(0,-1)"/>
  <use id="arrowright" xlink:href="#arrowRight" x="0" y="0" onmousedown="handlePan(1,0)"/>
  <use id="arrowdown" xlink:href="#arrowDown" x="0" y="0" onmousedown="handlePan(0,1)"/>
  <use id="arrowleft" xlink:href="#arrowLeft" x="0" y="0" onmousedown="handlePan(-1,0)"/>
</g>
<svg viewBox="0 0 15 15" width="100%" height="30px" preserveAspectRatio="xMaxYMin meet">
 <g id="arrow_out" transform="scale(0.3 0.3)">
  <a xlink:href="scara__kinematics__process_8c__incl_org.svg" target="_base">
   <rect id="button" ry="5" rx="5" y="6" x="6" height="38" width="38"
        fill="#f2f5e9" fill-opacity="0.5" stroke="#606060" stroke-width="1.0"/>
   <path id="arrow"
     d="M 11.500037,31.436501 C 11.940474,20.09759 22.043105,11.32322 32.158766,21.979434 L 37.068811,17.246167 C 37.068811,17.246167 37.088388,32 37.088388,32 L 22.160133,31.978069 C 22.160133,31.978069 26.997745,27.140456 26.997745,27.140456 C 18.528582,18.264221 13.291696,25.230495 11.500037,31.436501 z"
     style="fill:#404040;"/>
  </a>
 </g>
</svg>

<style type='text/css'>
<![CDATA[
[data-mouse-over-selected='false'] { opacity: 0.7; }
[data-mouse-over-selected='true']  { opacity: 1.0; }
]]>
</style>
<script type="application/ecmascript"><![CDATA[
document.addEventListener('DOMContentLoaded', (event) => {
  highlightEdges();
  highlightAdjacentNodes();
});
]]></script>
</svg>
