<?xml version="1.0" encoding="UTF-8" standalone="no"?>
<!DOCTYPE svg PUBLIC "-//W3C//DTD SVG 1.1//EN"
 "http://www.w3.org/Graphics/SVG/1.1/DTD/svg11.dtd">
<!-- Generated by graphviz version 14.1.5 (0)
 -->
<!-- Title: source/motion/scara_kinematics/scara_kinematics_process.h Pages: 1 -->
<svg width="1348pt" height="477pt"
 viewBox="0.00 0.00 1348.00 477.00" xmlns="http://www.w3.org/2000/svg" xmlns:xlink="http://www.w3.org/1999/xlink">
<g id="graph0" class="graph" transform="scale(1 1) rotate(0) translate(4 473)">
<title>source/motion/scara_kinematics/scara_kinematics_process.h</title>
<!-- Node1 -->
<g id="Node000001" class="node">
<title>Node1</title>
<g id="a_Node000001"><a xlink:title=" ">
<polygon fill="#999999" stroke="#666666" points="1243.38,-469 1079.62,-469 1079.62,-422.75 1243.38,-422.75 1243.38,-469"/>
<text xml:space="preserve" text-anchor="start" x="1087.62" y="-455.5" font-family="Helvetica,sans-Serif" font-size="10.00">source/motion/scara</text>
<text xml:space="preserve" text-anchor="start" x="1087.62" y="-442.75" font-family="Helvetica,sans-Serif" font-size="10.00">_kinematics/scara_kinematics</text>
<text xml:space="preserve" text-anchor="middle" x="1161.5" y="-430" font-family="Helvetica,sans-Serif" font-size="10.00">_process.h</text>
</a>
</g>
</g>
<!-- Node2 -->
<g id="Node000002" class="node">
<title>Node2</title>
<g id="a_Node000002"><a xlink:href="scara__kinematics__internal_8h.html" target="_top" xlink:title=" ">
<polygon fill="white" stroke="#666666" points="1239.62,-386.75 1083.38,-386.75 1083.38,-353.25 1239.62,-353.25 1239.62,-386.75"/>
<text xml:space="preserve" text-anchor="start" x="1091.38" y="-373.25" font-family="Helvetica,sans-Serif" font-size="10.00">motion/scara_kinematics</text>
<text xml:space="preserve" text-anchor="middle" x="1161.5" y="-360.5" font-family="Helvetica,sans-Serif" font-size="10.00">/scara_kinematics_internal.h</text>
</a>
</g>
</g>
<!-- Node1&#45;&gt;Node2 -->
<g id="edge1_Node000001_Node000002" class="edge">
<title>Node1&#45;&gt;Node2</title>
<g id="a_edge1_Node000001_Node000002"><a xlink:title=" ">
<path fill="none" stroke="#63b8ff" d="M1161.5,-422.31C1161.5,-414.76 1161.5,-406.26 1161.5,-398.38"/>
<polygon fill="#63b8ff" stroke="#63b8ff" points="1165,-398.62 1161.5,-388.62 1158,-398.62 1165,-398.62"/>
</a>
</g>
</g>
<!-- Node3 -->
<g id="Node000003" class="node">
<title>Node3</title>
<g id="a_Node000003"><a xlink:title=" ">
<polygon fill="#e0e0e0" stroke="#999999" points="61,-247.75 0,-247.75 0,-227 61,-227 61,-247.75"/>
<text xml:space="preserve" text-anchor="middle" x="30.5" y="-234.25" font-family="Helvetica,sans-Serif" font-size="10.00">stdbool.h</text>
</a>
</g>
</g>
<!-- Node2&#45;&gt;Node3 -->
<g id="edge2_Node000002_Node000003" class="edge">
<title>Node2&#45;&gt;Node3</title>
<g id="a_edge2_Node000002_Node000003"><a xlink:title=" ">
<path fill="none" stroke="#63b8ff" d="M1083.13,-362.8C903.96,-348.07 450.89,-307.67 75.5,-247.75 74.5,-247.59 73.49,-247.42 72.47,-247.25"/>
<polygon fill="#63b8ff" stroke="#63b8ff" points="73.37,-243.86 62.9,-245.49 72.1,-250.74 73.37,-243.86"/>
</a>
</g>
</g>
<!-- Node4 -->
<g id="Node000004" class="node">
<title>Node4</title>
<g id="a_Node000004"><a xlink:title=" ">
<polygon fill="#e0e0e0" stroke="#999999" points="995.88,-77.5 943.12,-77.5 943.12,-56.75 995.88,-56.75 995.88,-77.5"/>
<text xml:space="preserve" text-anchor="middle" x="969.5" y="-64" font-family="Helvetica,sans-Serif" font-size="10.00">stdint.h</text>
</a>
</g>
</g>
<!-- Node2&#45;&gt;Node4 -->
<g id="edge3_Node000002_Node000004" class="edge">
<title>Node2&#45;&gt;Node4</title>
<g id="a_edge3_Node000002_Node000004"><a xlink:title=" ">
<path fill="none" stroke="#63b8ff" d="M1151.18,-352.82C1118.46,-301.56 1017.17,-142.82 981.82,-87.43"/>
<polygon fill="#63b8ff" stroke="#63b8ff" points="984.81,-85.62 976.48,-79.07 978.91,-89.38 984.81,-85.62"/>
</a>
</g>
</g>
<!-- Node5 -->
<g id="Node000005" class="node">
<title>Node5</title>
<g id="a_Node000005"><a xlink:title=" ">
<polygon fill="#e0e0e0" stroke="#999999" points="1303.25,-77.5 1231.75,-77.5 1231.75,-56.75 1303.25,-56.75 1303.25,-77.5"/>
<text xml:space="preserve" text-anchor="middle" x="1267.5" y="-64" font-family="Helvetica,sans-Serif" font-size="10.00">FreeRTOS.h</text>
</a>
</g>
</g>
<!-- Node2&#45;&gt;Node5 -->
<g id="edge4_Node000002_Node000005" class="edge">
<title>Node2&#45;&gt;Node5</title>
<g id="a_edge4_Node000002_Node000005"><a xlink:title=" ">
<path fill="none" stroke="#63b8ff" d="M1184.01,-352.78C1212.11,-330.47 1256.5,-287.45 1256.5,-238.38 1256.5,-238.38 1256.5,-238.38 1256.5,-179.62 1256.5,-147.93 1260.96,-111.42 1264.2,-89.05"/>
<polygon fill="#63b8ff" stroke="#63b8ff" points="1267.62,-89.84 1265.65,-79.43 1260.69,-88.8 1267.62,-89.84"/>
</a>
</g>
</g>
<!-- Node6 -->
<g id="Node000006" class="node">
<title>Node6</title>
<g id="a_Node000006"><a xlink:title=" ">
<polygon fill="#e0e0e0" stroke="#999999" points="1340,-310.88 1285,-310.88 1285,-290.12 1340,-290.12 1340,-310.88"/>
<text xml:space="preserve" text-anchor="middle" x="1312.5" y="-297.38" font-family="Helvetica,sans-Serif" font-size="10.00">queue.h</text>
</a>
</g>
</g>
<!-- Node2&#45;&gt;Node6 -->
<g id="edge5_Node000002_Node000006" class="edge">
<title>Node2&#45;&gt;Node6</title>
<g id="a_edge5_Node000002_Node000006"><a xlink:title=" ">
<path fill="none" stroke="#63b8ff" d="M1197.67,-352.83C1222.79,-341.6 1255.97,-326.77 1280.2,-315.94"/>
<polygon fill="#63b8ff" stroke="#63b8ff" points="1281.56,-319.17 1289.26,-311.89 1278.7,-312.77 1281.56,-319.17"/>
</a>
</g>
</g>
<!-- Node7 -->
<g id="Node000007" class="node">
<title>Node7</title>
<g id="a_Node000007"><a xlink:href="cmd__handle_8h.html" target="_top" xlink:title=" ">
<polygon fill="white" stroke="#666666" points="1141.62,-134.25 1057.38,-134.25 1057.38,-113.5 1141.62,-113.5 1141.62,-134.25"/>
<text xml:space="preserve" text-anchor="middle" x="1099.5" y="-120.75" font-family="Helvetica,sans-Serif" font-size="10.00">cmd_handle.h</text>
</a>
</g>
</g>
<!-- Node2&#45;&gt;Node7 -->
<g id="edge6_Node000002_Node000007" class="edge">
<title>Node2&#45;&gt;Node7</title>
<g id="a_edge6_Node000002_Node000007"><a xlink:title=" ">
<path fill="none" stroke="#63b8ff" d="M1157.43,-352.98C1146.58,-310.23 1116.92,-193.47 1104.78,-145.68"/>
<polygon fill="#63b8ff" stroke="#63b8ff" points="1108.2,-144.92 1102.35,-136.09 1101.42,-146.64 1108.2,-144.92"/>
</a>
</g>
</g>
<!-- Node11 -->
<g id="Node000011" class="node">
<title>Node11</title>
<g id="a_Node000011"><a xlink:href="scara__kinematics_8h.html" target="_top" xlink:title=" ">
<polygon fill="white" stroke="#666666" points="1061,-317.25 922,-317.25 922,-283.75 1061,-283.75 1061,-317.25"/>
<text xml:space="preserve" text-anchor="start" x="930" y="-303.75" font-family="Helvetica,sans-Serif" font-size="10.00">motion/scara_kinematics</text>
<text xml:space="preserve" text-anchor="middle" x="991.5" y="-291" font-family="Helvetica,sans-Serif" font-size="10.00">/scara_kinematics.h</text>
</a>
</g>
</g>
<!-- Node2&#45;&gt;Node11 -->
<g id="edge12_Node000002_Node000011" class="edge">
<title>Node2&#45;&gt;Node11</title>
<g id="a_edge12_Node000002_Node000011"><a xlink:title=" ">
<path fill="none" stroke="#63b8ff" d="M1120.78,-352.83C1097.32,-343.52 1067.61,-331.72 1042.59,-321.78"/>
<polygon fill="#63b8ff" stroke="#63b8ff" points="1044.17,-318.65 1033.59,-318.21 1041.59,-325.15 1044.17,-318.65"/>
</a>
</g>
</g>
<!-- Node7&#45;&gt;Node4 -->
<g id="edge7_Node000007_Node000004" class="edge">
<title>Node7&#45;&gt;Node4</title>
<g id="a_edge7_Node000007_Node000004"><a xlink:title=" ">
<path fill="none" stroke="#63b8ff" d="M1076.26,-113.09C1055.83,-104.48 1025.86,-91.86 1002.87,-82.18"/>
<polygon fill="#63b8ff" stroke="#63b8ff" points="1004.51,-79.07 993.94,-78.42 1001.79,-85.52 1004.51,-79.07"/>
</a>
</g>
</g>
<!-- Node7&#45;&gt;Node5 -->
<g id="edge8_Node000007_Node000005" class="edge">
<title>Node7&#45;&gt;Node5</title>
<g id="a_edge8_Node000007_Node000005"><a xlink:title=" ">
<path fill="none" stroke="#63b8ff" d="M1129.54,-113.09C1156.69,-104.24 1196.88,-91.14 1226.89,-81.36"/>
<polygon fill="#63b8ff" stroke="#63b8ff" points="1227.58,-84.82 1236,-78.39 1225.41,-78.16 1227.58,-84.82"/>
</a>
</g>
</g>
<!-- Node8 -->
<g id="Node000008" class="node">
<title>Node8</title>
<g id="a_Node000008"><a xlink:title=" ">
<polygon fill="#e0e0e0" stroke="#999999" points="1143,-77.5 1052,-77.5 1052,-56.75 1143,-56.75 1143,-77.5"/>
<text xml:space="preserve" text-anchor="middle" x="1097.5" y="-64" font-family="Helvetica,sans-Serif" font-size="10.00">event_groups.h</text>
</a>
</g>
</g>
<!-- Node7&#45;&gt;Node8 -->
<g id="edge9_Node000007_Node000008" class="edge">
<title>Node7&#45;&gt;Node8</title>
<g id="a_edge9_Node000007_Node000008"><a xlink:title=" ">
<path fill="none" stroke="#63b8ff" d="M1099.14,-113.09C1098.9,-106.47 1098.57,-97.47 1098.27,-89.27"/>
<polygon fill="#63b8ff" stroke="#63b8ff" points="1101.77,-89.21 1097.91,-79.34 1094.78,-89.46 1101.77,-89.21"/>
</a>
</g>
</g>
<!-- Node9 -->
<g id="Node000009" class="node">
<title>Node9</title>
<g id="a_Node000009"><a xlink:title=" ">
<polygon fill="#e0e0e0" stroke="#999999" points="621,-20.75 536,-20.75 536,0 621,0 621,-20.75"/>
<text xml:space="preserve" text-anchor="middle" x="578.5" y="-7.25" font-family="Helvetica,sans-Serif" font-size="10.00">fsl_common.h</text>
</a>
</g>
</g>
<!-- Node7&#45;&gt;Node9 -->
<g id="edge10_Node000007_Node000009" class="edge">
<title>Node7&#45;&gt;Node9</title>
<g id="a_edge10_Node000007_Node000009"><a xlink:title=" ">
<path fill="none" stroke="#63b8ff" d="M1087.04,-113.02C1065.59,-96.27 1022.29,-63.39 1004.5,-56.75 1000.17,-55.14 745.98,-28.7 632.36,-16.94"/>
<polygon fill="#63b8ff" stroke="#63b8ff" points="632.98,-13.48 622.67,-15.94 632.26,-20.45 632.98,-13.48"/>
</a>
</g>
</g>
<!-- Node10 -->
<g id="Node000010" class="node">
<title>Node10</title>
<g id="a_Node000010"><a xlink:title=" ">
<polygon fill="#e0e0e0" stroke="#999999" points="1213.5,-77.5 1161.5,-77.5 1161.5,-56.75 1213.5,-56.75 1213.5,-77.5"/>
<text xml:space="preserve" text-anchor="middle" x="1187.5" y="-64" font-family="Helvetica,sans-Serif" font-size="10.00">stdlib.h</text>
</a>
</g>
</g>
<!-- Node7&#45;&gt;Node10 -->
<g id="edge11_Node000007_Node000010" class="edge">
<title>Node7&#45;&gt;Node10</title>
<g id="a_edge11_Node000007_Node000010"><a xlink:title=" ">
<path fill="none" stroke="#63b8ff" d="M1115.23,-113.09C1128.37,-104.91 1147.34,-93.11 1162.55,-83.65"/>
<polygon fill="#63b8ff" stroke="#63b8ff" points="1163.98,-86.88 1170.62,-78.63 1160.28,-80.94 1163.98,-86.88"/>
</a>
</g>
</g>
<!-- Node11&#45;&gt;Node3 -->
<g id="edge13_Node000011_Node000003" class="edge">
<title>Node11&#45;&gt;Node3</title>
<g id="a_edge13_Node000011_Node000003"><a xlink:title=" ">
<path fill="none" stroke="#63b8ff" d="M921.63,-296.9C736.97,-289.82 238.95,-269.27 75.5,-247.75 74.5,-247.62 73.48,-247.48 72.46,-247.33"/>
<polygon fill="#63b8ff" stroke="#63b8ff" points="73.32,-243.92 62.87,-245.69 72.14,-250.82 73.32,-243.92"/>
</a>
</g>
</g>
<!-- Node11&#45;&gt;Node4 -->
<g id="edge14_Node000011_Node000004" class="edge">
<title>Node11&#45;&gt;Node4</title>
<g id="a_edge14_Node000011_Node000004"><a xlink:title=" ">
<path fill="none" stroke="#63b8ff" d="M989.99,-283.6C986.11,-242.81 975.81,-134.49 971.47,-88.85"/>
<polygon fill="#63b8ff" stroke="#63b8ff" points="974.97,-88.66 970.54,-79.03 968,-89.32 974.97,-88.66"/>
</a>
</g>
</g>
<!-- Node11&#45;&gt;Node5 -->
<g id="edge15_Node000011_Node000005" class="edge">
<title>Node11&#45;&gt;Node5</title>
<g id="a_edge15_Node000011_Node000005"><a xlink:title=" ">
<path fill="none" stroke="#63b8ff" d="M1010.47,-283.6C1060.57,-241.59 1196.1,-127.98 1247.43,-84.95"/>
<polygon fill="#63b8ff" stroke="#63b8ff" points="1249.42,-87.85 1254.84,-78.74 1244.92,-82.48 1249.42,-87.85"/>
</a>
</g>
</g>
<!-- Node11&#45;&gt;Node7 -->
<g id="edge17_Node000011_Node000007" class="edge">
<title>Node11&#45;&gt;Node7</title>
<g id="a_edge17_Node000011_Node000007"><a xlink:title=" ">
<path fill="none" stroke="#63b8ff" d="M1001.47,-283.38C1021.44,-251.09 1066.27,-178.6 1087.68,-143.99"/>
<polygon fill="#63b8ff" stroke="#63b8ff" points="1090.44,-146.18 1092.72,-135.83 1084.49,-142.49 1090.44,-146.18"/>
</a>
</g>
</g>
<!-- Node11&#45;&gt;Node9 -->
<g id="edge16_Node000011_Node000009" class="edge">
<title>Node11&#45;&gt;Node9</title>
<g id="a_edge16_Node000011_Node000009"><a xlink:title=" ">
<path fill="none" stroke="#63b8ff" d="M921.85,-297.7C710.27,-291.33 89.5,-265.48 89.5,-181.62 89.5,-181.62 89.5,-181.62 89.5,-122.88 89.5,-92.3 84.99,-76.3 108.5,-56.75 139.92,-30.62 407.55,-17.67 524.35,-13.22"/>
<polygon fill="#63b8ff" stroke="#63b8ff" points="524.46,-16.72 534.32,-12.84 524.19,-9.72 524.46,-16.72"/>
</a>
</g>
</g>
<!-- Node12 -->
<g id="Node000012" class="node">
<title>Node12</title>
<g id="a_Node000012"><a xlink:href="motor__core_8h.html" target="_top" xlink:title=" ">
<polygon fill="white" stroke="#666666" points="647.75,-247.75 567.25,-247.75 567.25,-227 647.75,-227 647.75,-247.75"/>
<text xml:space="preserve" text-anchor="middle" x="607.5" y="-234.25" font-family="Helvetica,sans-Serif" font-size="10.00">motor_core.h</text>
</a>
</g>
</g>
<!-- Node11&#45;&gt;Node12 -->
<g id="edge18_Node000011_Node000012" class="edge">
<title>Node11&#45;&gt;Node12</title>
<g id="a_edge18_Node000011_Node000012"><a xlink:title=" ">
<path fill="none" stroke="#63b8ff" d="M921.51,-288.36C845.85,-276.32 727.02,-257.4 659.31,-246.62"/>
<polygon fill="#63b8ff" stroke="#63b8ff" points="660.01,-243.19 649.59,-245.07 658.91,-250.1 660.01,-243.19"/>
</a>
</g>
</g>
<!-- Node13 -->
<g id="Node000013" class="node">
<title>Node13</title>
<g id="a_Node000013"><a xlink:href="pca9555a_8h.html" target="_top" xlink:title=" ">
<polygon fill="white" stroke="#666666" points="725.5,-77.5 571.5,-77.5 571.5,-56.75 725.5,-56.75 725.5,-77.5"/>
<text xml:space="preserve" text-anchor="middle" x="648.5" y="-64" font-family="Helvetica,sans-Serif" font-size="10.00">driver/pca9555a/pca9555a.h</text>
</a>
</g>
</g>
<!-- Node12&#45;&gt;Node13 -->
<g id="edge19_Node000012_Node000013" class="edge">
<title>Node12&#45;&gt;Node13</title>
<g id="a_edge19_Node000012_Node000013"><a xlink:title=" ">
<path fill="none" stroke="#63b8ff" d="M646.96,-226.59C665.39,-219.83 685.63,-208.75 696.5,-191 717.61,-156.54 686.81,-111.21 665.64,-86.36"/>
<polygon fill="#63b8ff" stroke="#63b8ff" points="668.39,-84.19 659.13,-79.04 663.16,-88.84 668.39,-84.19"/>
</a>
</g>
</g>
<!-- Node15 -->
<g id="Node000015" class="node">
<title>Node15</title>
<g id="a_Node000015"><a xlink:title=" ">
<polygon fill="#e0e0e0" stroke="#999999" points="687.88,-191 599.12,-191 599.12,-170.25 687.88,-170.25 687.88,-191"/>
<text xml:space="preserve" text-anchor="middle" x="643.5" y="-177.5" font-family="Helvetica,sans-Serif" font-size="10.00">MK22F51212.h</text>
</a>
</g>
</g>
<!-- Node12&#45;&gt;Node15 -->
<g id="edge22_Node000012_Node000015" class="edge">
<title>Node12&#45;&gt;Node15</title>
<g id="a_edge22_Node000012_Node000015"><a xlink:title=" ">
<path fill="none" stroke="#63b8ff" d="M613.94,-226.59C618.65,-219.42 625.19,-209.48 630.92,-200.76"/>
<polygon fill="#63b8ff" stroke="#63b8ff" points="633.72,-202.87 636.29,-192.59 627.87,-199.03 633.72,-202.87"/>
</a>
</g>
</g>
<!-- Node16 -->
<g id="Node000016" class="node">
<title>Node16</title>
<g id="a_Node000016"><a xlink:href="step__core_8h.html" target="_top" xlink:title=" ">
<polygon fill="white" stroke="#666666" points="522.62,-191 450.38,-191 450.38,-170.25 522.62,-170.25 522.62,-191"/>
<text xml:space="preserve" text-anchor="middle" x="486.5" y="-177.5" font-family="Helvetica,sans-Serif" font-size="10.00">step_core.h</text>
</a>
</g>
</g>
<!-- Node12&#45;&gt;Node16 -->
<g id="edge23_Node000012_Node000016" class="edge">
<title>Node12&#45;&gt;Node16</title>
<g id="a_edge23_Node000012_Node000016"><a xlink:title=" ">
<path fill="none" stroke="#63b8ff" d="M585.87,-226.59C567.03,-218.06 539.46,-205.59 518.14,-195.94"/>
<polygon fill="#63b8ff" stroke="#63b8ff" points="519.88,-192.89 509.32,-191.95 516.99,-199.26 519.88,-192.89"/>
</a>
</g>
</g>
<!-- Node18 -->
<g id="Node000018" class="node">
<title>Node18</title>
<g id="a_Node000018"><a xlink:title=" ">
<polygon fill="#e0e0e0" stroke="#999999" points="553.88,-77.5 495.12,-77.5 495.12,-56.75 553.88,-56.75 553.88,-77.5"/>
<text xml:space="preserve" text-anchor="middle" x="524.5" y="-64" font-family="Helvetica,sans-Serif" font-size="10.00">fsl_ftm.h</text>
</a>
</g>
</g>
<!-- Node12&#45;&gt;Node18 -->
<g id="edge48_Node000012_Node000018" class="edge">
<title>Node12&#45;&gt;Node18</title>
<g id="a_edge48_Node000012_Node000018"><a xlink:title=" ">
<path fill="none" stroke="#63b8ff" d="M602.8,-226.85C589.62,-200.14 552.12,-124.12 534.23,-87.85"/>
<polygon fill="#63b8ff" stroke="#63b8ff" points="537.59,-86.74 530.03,-79.32 531.31,-89.84 537.59,-86.74"/>
</a>
</g>
</g>
<!-- Node19 -->
<g id="Node000019" class="node">
<title>Node19</title>
<g id="a_Node000019"><a xlink:title=" ">
<polygon fill="#e0e0e0" stroke="#999999" points="261.12,-77.5 197.88,-77.5 197.88,-56.75 261.12,-56.75 261.12,-77.5"/>
<text xml:space="preserve" text-anchor="middle" x="229.5" y="-64" font-family="Helvetica,sans-Serif" font-size="10.00">fsl_gpio.h</text>
</a>
</g>
</g>
<!-- Node12&#45;&gt;Node19 -->
<g id="edge49_Node000012_Node000019" class="edge">
<title>Node12&#45;&gt;Node19</title>
<g id="a_edge49_Node000012_Node000019"><a xlink:title=" ">
<path fill="none" stroke="#63b8ff" d="M566.79,-235.86C494.78,-232.78 344.16,-216.21 255.5,-134.25 242.62,-122.34 236.03,-103.26 232.71,-88.65"/>
<polygon fill="#63b8ff" stroke="#63b8ff" points="236.21,-88.35 230.91,-79.17 229.34,-89.65 236.21,-88.35"/>
</a>
</g>
</g>
<!-- Node20 -->
<g id="Node000020" class="node">
<title>Node20</title>
<g id="a_Node000020"><a xlink:title=" ">
<polygon fill="#e0e0e0" stroke="#999999" points="179.38,-77.5 117.62,-77.5 117.62,-56.75 179.38,-56.75 179.38,-77.5"/>
<text xml:space="preserve" text-anchor="middle" x="148.5" y="-64" font-family="Helvetica,sans-Serif" font-size="10.00">fsl_port.h</text>
</a>
</g>
</g>
<!-- Node12&#45;&gt;Node20 -->
<g id="edge50_Node000012_Node000020" class="edge">
<title>Node12&#45;&gt;Node20</title>
<g id="a_edge50_Node000012_Node000020"><a xlink:title=" ">
<path fill="none" stroke="#63b8ff" d="M567.18,-236.93C507.02,-236.34 391.34,-229.67 302.5,-191 245.02,-165.98 190.91,-113.8 164.81,-86.18"/>
<polygon fill="#63b8ff" stroke="#63b8ff" points="167.46,-83.89 158.09,-78.94 162.32,-88.65 167.46,-83.89"/>
</a>
</g>
</g>
<!-- Node23 -->
<g id="Node000023" class="node">
<title>Node23</title>
<g id="a_Node000023"><a xlink:href="tmc2209__core_8h.html" target="_top" xlink:title=" ">
<polygon fill="white" stroke="#666666" points="878.5,-191 784.5,-191 784.5,-170.25 878.5,-170.25 878.5,-191"/>
<text xml:space="preserve" text-anchor="middle" x="831.5" y="-177.5" font-family="Helvetica,sans-Serif" font-size="10.00">tmc2209_core.h</text>
</a>
</g>
</g>
<!-- Node12&#45;&gt;Node23 -->
<g id="edge40_Node000012_Node000023" class="edge">
<title>Node12&#45;&gt;Node23</title>
<g id="a_edge40_Node000012_Node000023"><a xlink:title=" ">
<path fill="none" stroke="#63b8ff" d="M647.81,-226.52C684.8,-217.48 739.8,-204.04 779.97,-194.22"/>
<polygon fill="#63b8ff" stroke="#63b8ff" points="780.79,-197.62 789.67,-191.85 779.13,-190.82 780.79,-197.62"/>
</a>
</g>
</g>
<!-- Node13&#45;&gt;Node9 -->
<g id="edge20_Node000013_Node000009" class="edge">
<title>Node13&#45;&gt;Node9</title>
<g id="a_edge20_Node000013_Node000009"><a xlink:title=" ">
<path fill="none" stroke="#63b8ff" d="M635.99,-56.34C625.93,-48.47 611.59,-37.25 599.74,-27.99"/>
<polygon fill="#63b8ff" stroke="#63b8ff" points="602.13,-25.41 592.1,-22.01 597.82,-30.93 602.13,-25.41"/>
</a>
</g>
</g>
<!-- Node14 -->
<g id="Node000014" class="node">
<title>Node14</title>
<g id="a_Node000014"><a xlink:title=" ">
<polygon fill="#e0e0e0" stroke="#999999" points="758.38,-20.75 678.62,-20.75 678.62,0 758.38,0 758.38,-20.75"/>
<text xml:space="preserve" text-anchor="middle" x="718.5" y="-7.25" font-family="Helvetica,sans-Serif" font-size="10.00">peripherals.h</text>
</a>
</g>
</g>
<!-- Node13&#45;&gt;Node14 -->
<g id="edge21_Node000013_Node000014" class="edge">
<title>Node13&#45;&gt;Node14</title>
<g id="a_edge21_Node000013_Node000014"><a xlink:title=" ">
<path fill="none" stroke="#63b8ff" d="M661.01,-56.34C671.07,-48.47 685.41,-37.25 697.26,-27.99"/>
<polygon fill="#63b8ff" stroke="#63b8ff" points="699.18,-30.93 704.9,-22.01 694.87,-25.41 699.18,-30.93"/>
</a>
</g>
</g>
<!-- Node16&#45;&gt;Node5 -->
<g id="edge25_Node000016_Node000005" class="edge">
<title>Node16&#45;&gt;Node5</title>
<g id="a_edge25_Node000016_Node000005"><a xlink:title=" ">
<path fill="none" stroke="#63b8ff" d="M523.06,-176.1C542.99,-174.23 568.09,-171.98 590.5,-170.25 714.83,-160.65 1030.98,-169.83 1150.5,-134.25 1169.42,-128.62 1214.45,-101.54 1242.8,-83.83"/>
<polygon fill="#63b8ff" stroke="#63b8ff" points="1244.53,-86.88 1251.13,-78.59 1240.81,-80.95 1244.53,-86.88"/>
</a>
</g>
</g>
<!-- Node16&#45;&gt;Node7 -->
<g id="edge31_Node000016_Node000007" class="edge">
<title>Node16&#45;&gt;Node7</title>
<g id="a_edge31_Node000016_Node000007"><a xlink:title=" ">
<path fill="none" stroke="#63b8ff" d="M523.08,-176.32C543.01,-174.52 568.11,-172.26 590.5,-170.25 756.38,-155.38 952.68,-137.92 1045.59,-129.66"/>
<polygon fill="#63b8ff" stroke="#63b8ff" points="1045.77,-133.16 1055.43,-128.79 1045.15,-126.19 1045.77,-133.16"/>
</a>
</g>
</g>
<!-- Node16&#45;&gt;Node9 -->
<g id="edge27_Node000016_Node000009" class="edge">
<title>Node16&#45;&gt;Node9</title>
<g id="a_edge27_Node000016_Node000009"><a xlink:title=" ">
<path fill="none" stroke="#63b8ff" d="M483.27,-169.76C476.64,-147.6 463.97,-92.98 486.5,-56.75 495.52,-42.25 510.68,-32.25 526.13,-25.41"/>
<polygon fill="#63b8ff" stroke="#63b8ff" points="527.39,-28.67 535.39,-21.72 524.8,-22.17 527.39,-28.67"/>
</a>
</g>
</g>
<!-- Node16&#45;&gt;Node13 -->
<g id="edge24_Node000016_Node000013" class="edge">
<title>Node16&#45;&gt;Node13</title>
<g id="a_edge24_Node000016_Node000013"><a xlink:title=" ">
<path fill="none" stroke="#63b8ff" d="M500.59,-169.93C528.48,-150.73 590.94,-107.74 625.1,-84.23"/>
<polygon fill="#63b8ff" stroke="#63b8ff" points="626.82,-87.29 633.08,-78.74 622.86,-81.53 626.82,-87.29"/>
</a>
</g>
</g>
<!-- Node17 -->
<g id="Node000017" class="node">
<title>Node17</title>
<g id="a_Node000017"><a xlink:title=" ">
<polygon fill="#e0e0e0" stroke="#999999" points="439.5,-134.25 393.5,-134.25 393.5,-113.5 439.5,-113.5 439.5,-134.25"/>
<text xml:space="preserve" text-anchor="middle" x="416.5" y="-120.75" font-family="Helvetica,sans-Serif" font-size="10.00">task.h</text>
</a>
</g>
</g>
<!-- Node16&#45;&gt;Node17 -->
<g id="edge26_Node000016_Node000017" class="edge">
<title>Node16&#45;&gt;Node17</title>
<g id="a_edge26_Node000016_Node000017"><a xlink:title=" ">
<path fill="none" stroke="#63b8ff" d="M473.99,-169.84C463.93,-161.97 449.59,-150.75 437.74,-141.49"/>
<polygon fill="#63b8ff" stroke="#63b8ff" points="440.13,-138.91 430.1,-135.51 435.82,-144.43 440.13,-138.91"/>
</a>
</g>
</g>
<!-- Node16&#45;&gt;Node18 -->
<g id="edge28_Node000016_Node000018" class="edge">
<title>Node16&#45;&gt;Node18</title>
<g id="a_edge28_Node000016_Node000018"><a xlink:title=" ">
<path fill="none" stroke="#63b8ff" d="M489.74,-170.12C495.85,-152.19 509.21,-113 517.47,-88.76"/>
<polygon fill="#63b8ff" stroke="#63b8ff" points="520.76,-89.95 520.67,-79.36 514.13,-87.69 520.76,-89.95"/>
</a>
</g>
</g>
<!-- Node16&#45;&gt;Node19 -->
<g id="edge29_Node000016_Node000019" class="edge">
<title>Node16&#45;&gt;Node19</title>
<g id="a_edge29_Node000016_Node000019"><a xlink:title=" ">
<path fill="none" stroke="#63b8ff" d="M450.25,-178.72C407.21,-176.11 334.7,-166.76 282.5,-134.25 264.21,-122.86 249.5,-102.86 240.26,-87.83"/>
<polygon fill="#63b8ff" stroke="#63b8ff" points="243.34,-86.16 235.29,-79.27 237.28,-89.67 243.34,-86.16"/>
</a>
</g>
</g>
<!-- Node16&#45;&gt;Node20 -->
<g id="edge30_Node000016_Node000020" class="edge">
<title>Node16&#45;&gt;Node20</title>
<g id="a_edge30_Node000016_Node000020"><a xlink:title=" ">
<path fill="none" stroke="#63b8ff" d="M450.16,-176.55C403.68,-171.71 321.32,-160.07 255.5,-134.25 223.7,-121.78 190.82,-99.86 170.05,-84.7"/>
<polygon fill="#63b8ff" stroke="#63b8ff" points="172.2,-81.94 162.09,-78.77 168.02,-87.55 172.2,-81.94"/>
</a>
</g>
</g>
<!-- Node21 -->
<g id="Node000021" class="node">
<title>Node21</title>
<g id="a_Node000021"><a xlink:href="step__shared_8h.html" target="_top" xlink:title=" ">
<polygon fill="white" stroke="#666666" points="375.62,-134.25 291.38,-134.25 291.38,-113.5 375.62,-113.5 375.62,-134.25"/>
<text xml:space="preserve" text-anchor="middle" x="333.5" y="-120.75" font-family="Helvetica,sans-Serif" font-size="10.00">step_shared.h</text>
</a>
</g>
</g>
<!-- Node16&#45;&gt;Node21 -->
<g id="edge32_Node000016_Node000021" class="edge">
<title>Node16&#45;&gt;Node21</title>
<g id="a_edge32_Node000016_Node000021"><a xlink:title=" ">
<path fill="none" stroke="#63b8ff" d="M459.15,-169.84C434.75,-161.11 398.78,-148.23 371.57,-138.5"/>
<polygon fill="#63b8ff" stroke="#63b8ff" points="372.89,-135.25 362.3,-135.18 370.54,-141.85 372.89,-135.25"/>
</a>
</g>
</g>
<!-- Node21&#45;&gt;Node4 -->
<g id="edge33_Node000021_Node000004" class="edge">
<title>Node21&#45;&gt;Node4</title>
<g id="a_edge33_Node000021_Node000004"><a xlink:title=" ">
<path fill="none" stroke="#63b8ff" d="M376.02,-114.68C378.88,-114.24 381.73,-113.84 384.5,-113.5 623.92,-83.76 690.79,-116.37 931.64,-77.67"/>
<polygon fill="#63b8ff" stroke="#63b8ff" points="932.07,-81.15 941.37,-76.08 930.94,-74.24 932.07,-81.15"/>
</a>
</g>
</g>
<!-- Node21&#45;&gt;Node9 -->
<g id="edge36_Node000021_Node000009" class="edge">
<title>Node21&#45;&gt;Node9</title>
<g id="a_edge36_Node000021_Node000009"><a xlink:title=" ">
<path fill="none" stroke="#63b8ff" d="M324.43,-113.31C312.39,-99.46 294.23,-73.62 308.5,-56.75 335.58,-24.74 453.57,-15.3 524.31,-12.52"/>
<polygon fill="#63b8ff" stroke="#63b8ff" points="524.28,-16.03 534.15,-12.17 524.03,-9.03 524.28,-16.03"/>
</a>
</g>
</g>
<!-- Node21&#45;&gt;Node13 -->
<g id="edge34_Node000021_Node000013" class="edge">
<title>Node21&#45;&gt;Node13</title>
<g id="a_edge34_Node000021_Node000013"><a xlink:title=" ">
<path fill="none" stroke="#63b8ff" d="M376.07,-115.01C378.92,-114.5 381.75,-113.99 384.5,-113.5 450.44,-101.77 525.73,-88.88 578.99,-79.85"/>
<polygon fill="#63b8ff" stroke="#63b8ff" points="579.24,-83.35 588.52,-78.23 578.07,-76.45 579.24,-83.35"/>
</a>
</g>
</g>
<!-- Node21&#45;&gt;Node18 -->
<g id="edge37_Node000021_Node000018" class="edge">
<title>Node21&#45;&gt;Node18</title>
<g id="a_edge37_Node000021_Node000018"><a xlink:title=" ">
<path fill="none" stroke="#63b8ff" d="M367.65,-113.09C400.28,-103.73 449.48,-89.63 484.05,-79.72"/>
<polygon fill="#63b8ff" stroke="#63b8ff" points="484.62,-83.2 493.27,-77.08 482.69,-76.47 484.62,-83.2"/>
</a>
</g>
</g>
<!-- Node21&#45;&gt;Node19 -->
<g id="edge38_Node000021_Node000019" class="edge">
<title>Node21&#45;&gt;Node19</title>
<g id="a_edge38_Node000021_Node000019"><a xlink:title=" ">
<path fill="none" stroke="#63b8ff" d="M314.91,-113.09C299.08,-104.76 276.1,-92.66 257.96,-83.11"/>
<polygon fill="#63b8ff" stroke="#63b8ff" points="259.75,-80.09 249.27,-78.53 256.49,-86.29 259.75,-80.09"/>
</a>
</g>
</g>
<!-- Node21&#45;&gt;Node20 -->
<g id="edge39_Node000021_Node000020" class="edge">
<title>Node21&#45;&gt;Node20</title>
<g id="a_edge39_Node000021_Node000020"><a xlink:title=" ">
<path fill="none" stroke="#63b8ff" d="M300.43,-113.09C269.71,-104 223.82,-90.42 190.52,-80.56"/>
<polygon fill="#63b8ff" stroke="#63b8ff" points="191.78,-77.28 181.2,-77.8 189.79,-84 191.78,-77.28"/>
</a>
</g>
</g>
<!-- Node22 -->
<g id="Node000022" class="node">
<title>Node22</title>
<g id="a_Node000022"><a xlink:title=" ">
<polygon fill="#e0e0e0" stroke="#999999" points="439.75,-77.5 317.25,-77.5 317.25,-56.75 439.75,-56.75 439.75,-77.5"/>
<text xml:space="preserve" text-anchor="middle" x="378.5" y="-64" font-family="Helvetica,sans-Serif" font-size="10.00">fsl_device_registers.h</text>
</a>
</g>
</g>
<!-- Node21&#45;&gt;Node22 -->
<g id="edge35_Node000021_Node000022" class="edge">
<title>Node21&#45;&gt;Node22</title>
<g id="a_edge35_Node000021_Node000022"><a xlink:title=" ">
<path fill="none" stroke="#63b8ff" d="M341.55,-113.09C347.56,-105.77 355.97,-95.54 363.24,-86.69"/>
<polygon fill="#63b8ff" stroke="#63b8ff" points="365.92,-88.95 369.56,-79 360.51,-84.5 365.92,-88.95"/>
</a>
</g>
</g>
<!-- Node23&#45;&gt;Node4 -->
<g id="edge41_Node000023_Node000004" class="edge">
<title>Node23&#45;&gt;Node4</title>
<g id="a_edge41_Node000023_Node000004"><a xlink:title=" ">
<path fill="none" stroke="#63b8ff" d="M868.77,-169.88C890.04,-162.81 916.05,-151.42 934.5,-134.25 947.87,-121.81 957.11,-103.08 962.73,-88.73"/>
<polygon fill="#63b8ff" stroke="#63b8ff" points="966.01,-89.96 966.09,-79.36 959.42,-87.59 966.01,-89.96"/>
</a>
</g>
</g>
<!-- Node23&#45;&gt;Node7 -->
<g id="edge46_Node000023_Node000007" class="edge">
<title>Node23&#45;&gt;Node7</title>
<g id="a_edge46_Node000023_Node000007"><a xlink:title=" ">
<path fill="none" stroke="#63b8ff" d="M878.8,-169.96C925.64,-160.39 997.25,-145.76 1046.11,-135.78"/>
<polygon fill="#63b8ff" stroke="#63b8ff" points="1046.51,-139.27 1055.61,-133.84 1045.11,-132.41 1046.51,-139.27"/>
</a>
</g>
</g>
<!-- Node23&#45;&gt;Node9 -->
<g id="edge45_Node000023_Node000009" class="edge">
<title>Node23&#45;&gt;Node9</title>
<g id="a_edge45_Node000023_Node000009"><a xlink:title=" ">
<path fill="none" stroke="#63b8ff" d="M823.84,-169.76C801.44,-140.93 737.47,-58.75 734.5,-56.75 704.08,-36.26 664.32,-24.88 632.55,-18.64"/>
<polygon fill="#63b8ff" stroke="#63b8ff" points="633.19,-15.2 622.73,-16.84 631.93,-22.08 633.19,-15.2"/>
</a>
</g>
</g>
<!-- Node23&#45;&gt;Node14 -->
<g id="edge47_Node000023_Node000014" class="edge">
<title>Node23&#45;&gt;Node14</title>
<g id="a_edge47_Node000023_Node000014"><a xlink:title=" ">
<path fill="none" stroke="#63b8ff" d="M827.02,-170.02C815.13,-144.66 782.61,-76.54 767.5,-56.75 759.59,-46.38 749.16,-36.36 739.97,-28.39"/>
<polygon fill="#63b8ff" stroke="#63b8ff" points="742.4,-25.86 732.48,-22.13 737.91,-31.23 742.4,-25.86"/>
</a>
</g>
</g>
<!-- Node24 -->
<g id="Node000024" class="node">
<title>Node24</title>
<g id="a_Node000024"><a xlink:href="tmc2209__shared_8h.html" target="_top" xlink:title=" ">
<polygon fill="white" stroke="#666666" points="925.5,-134.25 819.5,-134.25 819.5,-113.5 925.5,-113.5 925.5,-134.25"/>
<text xml:space="preserve" text-anchor="middle" x="872.5" y="-120.75" font-family="Helvetica,sans-Serif" font-size="10.00">tmc2209_shared.h</text>
</a>
</g>
</g>
<!-- Node23&#45;&gt;Node24 -->
<g id="edge42_Node000023_Node000024" class="edge">
<title>Node23&#45;&gt;Node24</title>
<g id="a_edge42_Node000023_Node000024"><a xlink:title=" ">
<path fill="none" stroke="#63b8ff" d="M838.83,-169.84C844.25,-162.6 851.81,-152.51 858.39,-143.72"/>
<polygon fill="#63b8ff" stroke="#63b8ff" points="861.13,-145.89 864.33,-135.79 855.53,-141.7 861.13,-145.89"/>
</a>
</g>
</g>
<!-- Node24&#45;&gt;Node4 -->
<g id="edge43_Node000024_Node000004" class="edge">
<title>Node24&#45;&gt;Node4</title>
<g id="a_edge43_Node000024_Node000004"><a xlink:title=" ">
<path fill="none" stroke="#63b8ff" d="M889.84,-113.09C904.46,-104.83 925.64,-92.88 942.48,-83.38"/>
<polygon fill="#63b8ff" stroke="#63b8ff" points="944,-86.54 950.99,-78.57 940.56,-80.44 944,-86.54"/>
</a>
</g>
</g>
<!-- Node25 -->
<g id="Node000025" class="node">
<title>Node25</title>
<g id="a_Node000025"><a xlink:title=" ">
<polygon fill="#e0e0e0" stroke="#999999" points="925.12,-77.5 819.88,-77.5 819.88,-56.75 925.12,-56.75 925.12,-77.5"/>
<text xml:space="preserve" text-anchor="middle" x="872.5" y="-64" font-family="Helvetica,sans-Serif" font-size="10.00">fsl_uart_freertos.h</text>
</a>
</g>
</g>
<!-- Node24&#45;&gt;Node25 -->
<g id="edge44_Node000024_Node000025" class="edge">
<title>Node24&#45;&gt;Node25</title>
<g id="a_edge44_Node000024_Node000025"><a xlink:title=" ">
<path fill="none" stroke="#63b8ff" d="M872.5,-113.09C872.5,-106.47 872.5,-97.47 872.5,-89.27"/>
<polygon fill="#63b8ff" stroke="#63b8ff" points="876,-89.34 872.5,-79.34 869,-89.34 876,-89.34"/>
</a>
</g>
</g>
</g>
</svg>
