<?xml version="1.0" encoding="UTF-8" standalone="no"?>
<!DOCTYPE svg PUBLIC "-//W3C//DTD SVG 1.1//EN"
 "http://www.w3.org/Graphics/SVG/1.1/DTD/svg11.dtd">
<!-- Generated by graphviz version 14.1.5 (0)
 -->
<!-- Title: source/statemachine.c Pages: 1 -->
<svg width="846pt" height="256pt"
 viewBox="0.00 0.00 846.00 256.00" xmlns="http://www.w3.org/2000/svg" xmlns:xlink="http://www.w3.org/1999/xlink">
<g id="graph0" class="graph" transform="scale(1 1) rotate(0) translate(4 251.75)">
<title>source/statemachine.c</title>
<!-- Node1 -->
<g id="Node000001" class="node">
<title>Node1</title>
<g id="a_Node000001"><a xlink:title=" ">
<polygon fill="#999999" stroke="#666666" points="496.5,-247.75 370.25,-247.75 370.25,-227 496.5,-227 496.5,-247.75"/>
<text xml:space="preserve" text-anchor="middle" x="433.38" y="-234.25" font-family="Helvetica,sans-Serif" font-size="10.00">source/statemachine.c</text>
</a>
</g>
</g>
<!-- Node2 -->
<g id="Node000002" class="node">
<title>Node2</title>
<g id="a_Node000002"><a xlink:href="McuGDisplaySSD1306_8h.html" target="_top" xlink:title="Graphical display driver for LCD or other displays.">
<polygon fill="white" stroke="#666666" points="277,-191 105.75,-191 105.75,-170.25 277,-170.25 277,-191"/>
<text xml:space="preserve" text-anchor="middle" x="191.38" y="-177.5" font-family="Helvetica,sans-Serif" font-size="10.00">display/McuGDisplaySSD1306.h</text>
</a>
</g>
</g>
<!-- Node1&#45;&gt;Node2 -->
<g id="edge1_Node000001_Node000002" class="edge">
<title>Node1&#45;&gt;Node2</title>
<g id="a_edge1_Node000001_Node000002"><a xlink:title=" ">
<path fill="none" stroke="#63b8ff" d="M389.83,-226.52C349.52,-217.4 289.43,-203.81 245.93,-193.97"/>
<polygon fill="#63b8ff" stroke="#63b8ff" points="246.98,-190.62 236.45,-191.82 245.43,-197.44 246.98,-190.62"/>
</a>
</g>
</g>
<!-- Node9 -->
<g id="Node000009" class="node">
<title>Node9</title>
<g id="a_Node000009"><a xlink:href="log_8h.html" target="_top" xlink:title=" ">
<polygon fill="white" stroke="#666666" points="570.88,-191 461.88,-191 461.88,-170.25 570.88,-170.25 570.88,-191"/>
<text xml:space="preserve" text-anchor="middle" x="516.38" y="-177.5" font-family="Helvetica,sans-Serif" font-size="10.00">infrastructure/log.h</text>
</a>
</g>
</g>
<!-- Node1&#45;&gt;Node9 -->
<g id="edge9_Node000001_Node000009" class="edge">
<title>Node1&#45;&gt;Node9</title>
<g id="a_edge9_Node000001_Node000009"><a xlink:title=" ">
<path fill="none" stroke="#63b8ff" d="M448.21,-226.59C460.49,-218.49 478.16,-206.83 492.43,-197.42"/>
<polygon fill="#63b8ff" stroke="#63b8ff" points="493.98,-200.59 500.4,-192.16 490.13,-194.75 493.98,-200.59"/>
</a>
</g>
</g>
<!-- Node10 -->
<g id="Node000010" class="node">
<title>Node10</title>
<g id="a_Node000010"><a xlink:title=" ">
<polygon fill="#e0e0e0" stroke="#999999" points="495.12,-134.25 423.62,-134.25 423.62,-113.5 495.12,-113.5 495.12,-134.25"/>
<text xml:space="preserve" text-anchor="middle" x="459.38" y="-120.75" font-family="Helvetica,sans-Serif" font-size="10.00">FreeRTOS.h</text>
</a>
</g>
</g>
<!-- Node1&#45;&gt;Node10 -->
<g id="edge13_Node000001_Node000010" class="edge">
<title>Node1&#45;&gt;Node10</title>
<g id="a_edge13_Node000001_Node000010"><a xlink:title=" ">
<path fill="none" stroke="#63b8ff" d="M435.59,-226.87C439.75,-209.02 448.83,-170.11 454.49,-145.84"/>
<polygon fill="#63b8ff" stroke="#63b8ff" points="457.88,-146.68 456.75,-136.15 451.07,-145.09 457.88,-146.68"/>
</a>
</g>
</g>
<!-- Node12 -->
<g id="Node000012" class="node">
<title>Node12</title>
<g id="a_Node000012"><a xlink:title=" ">
<polygon fill="#e0e0e0" stroke="#999999" points="728.88,-191 679.88,-191 679.88,-170.25 728.88,-170.25 728.88,-191"/>
<text xml:space="preserve" text-anchor="middle" x="704.38" y="-177.5" font-family="Helvetica,sans-Serif" font-size="10.00">stdio.h</text>
</a>
</g>
</g>
<!-- Node1&#45;&gt;Node12 -->
<g id="edge12_Node000001_Node000012" class="edge">
<title>Node1&#45;&gt;Node12</title>
<g id="a_edge12_Node000001_Node000012"><a xlink:title=" ">
<path fill="none" stroke="#63b8ff" d="M491.6,-226.57C537.21,-218.58 602.46,-206.49 668.52,-191.28"/>
<polygon fill="#63b8ff" stroke="#63b8ff" points="669.13,-194.73 678.08,-189.06 667.54,-187.92 669.13,-194.73"/>
</a>
</g>
</g>
<!-- Node13 -->
<g id="Node000013" class="node">
<title>Node13</title>
<g id="a_Node000013"><a xlink:href="pca9555a_8h.html" target="_top" xlink:title=" ">
<polygon fill="white" stroke="#666666" points="661.5,-191 589.25,-191 589.25,-170.25 661.5,-170.25 661.5,-191"/>
<text xml:space="preserve" text-anchor="middle" x="625.38" y="-177.5" font-family="Helvetica,sans-Serif" font-size="10.00">pca9555a.h</text>
</a>
</g>
</g>
<!-- Node1&#45;&gt;Node13 -->
<g id="edge14_Node000001_Node000013" class="edge">
<title>Node1&#45;&gt;Node13</title>
<g id="a_edge14_Node000001_Node000013"><a xlink:title=" ">
<path fill="none" stroke="#63b8ff" d="M467.7,-226.59C499.14,-217.62 545.88,-204.29 580.31,-194.48"/>
<polygon fill="#63b8ff" stroke="#63b8ff" points="580.91,-197.94 589.57,-191.84 578.99,-191.21 580.91,-197.94"/>
</a>
</g>
</g>
<!-- Node15 -->
<g id="Node000015" class="node">
<title>Node15</title>
<g id="a_Node000015"><a xlink:href="statemachine__helpers_8h.html" target="_top" xlink:title="Helpers for the application state machine (command parsing &amp; utils).">
<polygon fill="white" stroke="#666666" points="316.88,-77.5 183.88,-77.5 183.88,-56.75 316.88,-56.75 316.88,-77.5"/>
<text xml:space="preserve" text-anchor="middle" x="250.38" y="-64" font-family="Helvetica,sans-Serif" font-size="10.00">statemachine_helpers.h</text>
</a>
</g>
</g>
<!-- Node1&#45;&gt;Node15 -->
<g id="edge17_Node000001_Node000015" class="edge">
<title>Node1&#45;&gt;Node15</title>
<g id="a_edge17_Node000001_Node000015"><a xlink:title=" ">
<path fill="none" stroke="#63b8ff" d="M423.06,-226.78C400.74,-206.05 346.28,-155.53 300.38,-113.5 290.26,-104.24 278.95,-93.96 269.64,-85.54"/>
<polygon fill="#63b8ff" stroke="#63b8ff" points="272.01,-82.96 262.25,-78.85 267.32,-88.15 272.01,-82.96"/>
</a>
</g>
</g>
<!-- Node16 -->
<g id="Node000016" class="node">
<title>Node16</title>
<g id="a_Node000016"><a xlink:href="statemachine_8h.html" target="_top" xlink:title=" ">
<polygon fill="white" stroke="#666666" points="838.25,-191 746.5,-191 746.5,-170.25 838.25,-170.25 838.25,-191"/>
<text xml:space="preserve" text-anchor="middle" x="792.38" y="-177.5" font-family="Helvetica,sans-Serif" font-size="10.00">statemachine.h</text>
</a>
</g>
</g>
<!-- Node1&#45;&gt;Node16 -->
<g id="edge20_Node000001_Node000016" class="edge">
<title>Node1&#45;&gt;Node16</title>
<g id="a_edge20_Node000001_Node000016"><a xlink:title=" ">
<path fill="none" stroke="#63b8ff" d="M496.82,-227.39C556.03,-218.91 647.15,-205.59 734.9,-191.53"/>
<polygon fill="#63b8ff" stroke="#63b8ff" points="735.33,-195.01 744.64,-189.97 734.22,-188.1 735.33,-195.01"/>
</a>
</g>
</g>
<!-- Node17 -->
<g id="Node000017" class="node">
<title>Node17</title>
<g id="a_Node000017"><a xlink:href="uart_8h.html" target="_top" xlink:title=" ">
<polygon fill="white" stroke="#666666" points="379.62,-77.5 335.12,-77.5 335.12,-56.75 379.62,-56.75 379.62,-77.5"/>
<text xml:space="preserve" text-anchor="middle" x="357.38" y="-64" font-family="Helvetica,sans-Serif" font-size="10.00">uart.h</text>
</a>
</g>
</g>
<!-- Node1&#45;&gt;Node17 -->
<g id="edge21_Node000001_Node000017" class="edge">
<title>Node1&#45;&gt;Node17</title>
<g id="a_edge21_Node000001_Node000017"><a xlink:title=" ">
<path fill="none" stroke="#63b8ff" d="M429.07,-226.85C417.06,-200.25 382.96,-124.77 366.5,-88.32"/>
<polygon fill="#63b8ff" stroke="#63b8ff" points="369.75,-87.02 362.44,-79.35 363.37,-89.9 369.75,-87.02"/>
</a>
</g>
</g>
<!-- Node18 -->
<g id="Node000018" class="node">
<title>Node18</title>
<g id="a_Node000018"><a xlink:href="estop_8h.html" target="_top" xlink:title=" ">
<polygon fill="white" stroke="#666666" points="449.38,-77.5 397.38,-77.5 397.38,-56.75 449.38,-56.75 449.38,-77.5"/>
<text xml:space="preserve" text-anchor="middle" x="423.38" y="-64" font-family="Helvetica,sans-Serif" font-size="10.00">estop.h</text>
</a>
</g>
</g>
<!-- Node1&#45;&gt;Node18 -->
<g id="edge24_Node000001_Node000018" class="edge">
<title>Node1&#45;&gt;Node18</title>
<g id="a_edge24_Node000001_Node000018"><a xlink:title=" ">
<path fill="none" stroke="#63b8ff" d="M430.15,-226.55C423.71,-205.77 410.22,-155.82 414.38,-113.5 415.17,-105.41 416.74,-96.63 418.35,-88.97"/>
<polygon fill="#63b8ff" stroke="#63b8ff" points="421.76,-89.78 420.55,-79.26 414.93,-88.23 421.76,-89.78"/>
</a>
</g>
</g>
<!-- Node3 -->
<g id="Node000003" class="node">
<title>Node3</title>
<g id="a_Node000003"><a xlink:href="McuGDisplaySSD1306config_8h.html" target="_top" xlink:title="Configuration header file for GDisplay Copyright (c) 2020, Erich Styger SPDX&#45;License&#45;Identifier: BSD&#45;...">
<polygon fill="white" stroke="#666666" points="291.62,-134.25 91.12,-134.25 91.12,-113.5 291.62,-113.5 291.62,-134.25"/>
<text xml:space="preserve" text-anchor="middle" x="191.38" y="-120.75" font-family="Helvetica,sans-Serif" font-size="10.00">display/McuGDisplaySSD1306config.h</text>
</a>
</g>
</g>
<!-- Node2&#45;&gt;Node3 -->
<g id="edge2_Node000002_Node000003" class="edge">
<title>Node2&#45;&gt;Node3</title>
<g id="a_edge2_Node000002_Node000003"><a xlink:title=" ">
<path fill="none" stroke="#63b8ff" d="M191.38,-169.84C191.38,-163.22 191.38,-154.22 191.38,-146.02"/>
<polygon fill="#63b8ff" stroke="#63b8ff" points="194.88,-146.09 191.38,-136.09 187.88,-146.09 194.88,-146.09"/>
</a>
</g>
</g>
<!-- Node4 -->
<g id="Node000004" class="node">
<title>Node4</title>
<g id="a_Node000004"><a xlink:href="McuSSD1306_8h.html" target="_top" xlink:title="Display driver for the SSD1306 OLED module.">
<polygon fill="white" stroke="#666666" points="165.88,-77.5 38.87,-77.5 38.87,-56.75 165.88,-56.75 165.88,-77.5"/>
<text xml:space="preserve" text-anchor="middle" x="102.38" y="-64" font-family="Helvetica,sans-Serif" font-size="10.00">display/McuSSD1306.h</text>
</a>
</g>
</g>
<!-- Node2&#45;&gt;Node4 -->
<g id="edge8_Node000002_Node000004" class="edge">
<title>Node2&#45;&gt;Node4</title>
<g id="a_edge8_Node000002_Node000004"><a xlink:title=" ">
<path fill="none" stroke="#63b8ff" d="M135.38,-169.76C115.19,-163.21 94.43,-152.33 82.38,-134.25 72.94,-120.1 80.1,-101.33 88.36,-87.4"/>
<polygon fill="#63b8ff" stroke="#63b8ff" points="91.24,-89.4 93.81,-79.12 85.39,-85.55 91.24,-89.4"/>
</a>
</g>
</g>
<!-- Node3&#45;&gt;Node4 -->
<g id="edge3_Node000003_Node000004" class="edge">
<title>Node3&#45;&gt;Node4</title>
<g id="a_edge3_Node000003_Node000004"><a xlink:title=" ">
<path fill="none" stroke="#63b8ff" d="M175.46,-113.09C162.17,-104.91 142.99,-93.11 127.61,-83.65"/>
<polygon fill="#63b8ff" stroke="#63b8ff" points="129.79,-80.88 119.44,-78.62 126.12,-86.84 129.79,-80.88"/>
</a>
</g>
</g>
<!-- Node5 -->
<g id="Node000005" class="node">
<title>Node5</title>
<g id="a_Node000005"><a xlink:href="display__config_8h.html" target="_top" xlink:title="Application configuration file for SSD1306 display driver Copyright (c) 2020, Erich Styger SPDX&#45;Licen...">
<polygon fill="white" stroke="#666666" points="94.75,-20.75 0,-20.75 0,0 94.75,0 94.75,-20.75"/>
<text xml:space="preserve" text-anchor="middle" x="47.38" y="-7.25" font-family="Helvetica,sans-Serif" font-size="10.00">display_config.h</text>
</a>
</g>
</g>
<!-- Node4&#45;&gt;Node5 -->
<g id="edge4_Node000004_Node000005" class="edge">
<title>Node4&#45;&gt;Node5</title>
<g id="a_edge4_Node000004_Node000005"><a xlink:title=" ">
<path fill="none" stroke="#63b8ff" d="M92.54,-56.34C84.96,-48.78 74.26,-38.14 65.18,-29.1"/>
<polygon fill="#63b8ff" stroke="#63b8ff" points="67.75,-26.72 58.2,-22.15 62.81,-31.68 67.75,-26.72"/>
</a>
</g>
</g>
<!-- Node6 -->
<g id="Node000006" class="node">
<title>Node6</title>
<g id="a_Node000006"><a xlink:title=" ">
<polygon fill="#e0e0e0" stroke="#999999" points="167.88,-20.75 112.88,-20.75 112.88,0 167.88,0 167.88,-20.75"/>
<text xml:space="preserve" text-anchor="middle" x="140.38" y="-7.25" font-family="Helvetica,sans-Serif" font-size="10.00">stddef.h</text>
</a>
</g>
</g>
<!-- Node4&#45;&gt;Node6 -->
<g id="edge5_Node000004_Node000006" class="edge">
<title>Node4&#45;&gt;Node6</title>
<g id="a_edge5_Node000004_Node000006"><a xlink:title=" ">
<path fill="none" stroke="#63b8ff" d="M109.17,-56.34C114.14,-49.17 121.04,-39.23 127.1,-30.51"/>
<polygon fill="#63b8ff" stroke="#63b8ff" points="129.95,-32.53 132.78,-22.32 124.2,-28.54 129.95,-32.53"/>
</a>
</g>
</g>
<!-- Node7 -->
<g id="Node000007" class="node">
<title>Node7</title>
<g id="a_Node000007"><a xlink:title=" ">
<polygon fill="#e0e0e0" stroke="#999999" points="371.88,-20.75 310.88,-20.75 310.88,0 371.88,0 371.88,-20.75"/>
<text xml:space="preserve" text-anchor="middle" x="341.38" y="-7.25" font-family="Helvetica,sans-Serif" font-size="10.00">stdbool.h</text>
</a>
</g>
</g>
<!-- Node4&#45;&gt;Node7 -->
<g id="edge6_Node000004_Node000007" class="edge">
<title>Node4&#45;&gt;Node7</title>
<g id="a_edge6_Node000004_Node000007"><a xlink:title=" ">
<path fill="none" stroke="#63b8ff" d="M145.38,-56.27C189.05,-46.27 256.24,-30.88 299.5,-20.97"/>
<polygon fill="#63b8ff" stroke="#63b8ff" points="300.05,-24.43 309.02,-18.79 298.49,-17.61 300.05,-24.43"/>
</a>
</g>
</g>
<!-- Node8 -->
<g id="Node000008" class="node">
<title>Node8</title>
<g id="a_Node000008"><a xlink:title=" ">
<polygon fill="#e0e0e0" stroke="#999999" points="276.75,-20.75 224,-20.75 224,0 276.75,0 276.75,-20.75"/>
<text xml:space="preserve" text-anchor="middle" x="250.38" y="-7.25" font-family="Helvetica,sans-Serif" font-size="10.00">stdint.h</text>
</a>
</g>
</g>
<!-- Node4&#45;&gt;Node8 -->
<g id="edge7_Node000004_Node000008" class="edge">
<title>Node4&#45;&gt;Node8</title>
<g id="a_edge7_Node000004_Node000008"><a xlink:title=" ">
<path fill="none" stroke="#63b8ff" d="M128.83,-56.34C152.41,-47.62 187.14,-34.77 213.44,-25.04"/>
<polygon fill="#63b8ff" stroke="#63b8ff" points="214.56,-28.36 222.73,-21.6 212.13,-21.79 214.56,-28.36"/>
</a>
</g>
</g>
<!-- Node9&#45;&gt;Node10 -->
<g id="edge10_Node000009_Node000010" class="edge">
<title>Node9&#45;&gt;Node10</title>
<g id="a_edge10_Node000009_Node000010"><a xlink:title=" ">
<path fill="none" stroke="#63b8ff" d="M506.18,-169.84C498.24,-162.21 487.01,-151.42 477.54,-142.32"/>
<polygon fill="#63b8ff" stroke="#63b8ff" points="480.21,-140.03 470.57,-135.63 475.36,-145.08 480.21,-140.03"/>
</a>
</g>
</g>
<!-- Node11 -->
<g id="Node000011" class="node">
<title>Node11</title>
<g id="a_Node000011"><a xlink:title=" ">
<polygon fill="#e0e0e0" stroke="#999999" points="597.88,-134.25 512.88,-134.25 512.88,-113.5 597.88,-113.5 597.88,-134.25"/>
<text xml:space="preserve" text-anchor="middle" x="555.38" y="-120.75" font-family="Helvetica,sans-Serif" font-size="10.00">fsl_common.h</text>
</a>
</g>
</g>
<!-- Node9&#45;&gt;Node11 -->
<g id="edge11_Node000009_Node000011" class="edge">
<title>Node9&#45;&gt;Node11</title>
<g id="a_edge11_Node000009_Node000011"><a xlink:title=" ">
<path fill="none" stroke="#63b8ff" d="M523.35,-169.84C528.51,-162.6 535.69,-152.51 541.95,-143.72"/>
<polygon fill="#63b8ff" stroke="#63b8ff" points="544.63,-145.99 547.58,-135.81 538.93,-141.93 544.63,-145.99"/>
</a>
</g>
</g>
<!-- Node13&#45;&gt;Node11 -->
<g id="edge15_Node000013_Node000011" class="edge">
<title>Node13&#45;&gt;Node11</title>
<g id="a_edge15_Node000013_Node000011"><a xlink:title=" ">
<path fill="none" stroke="#63b8ff" d="M612.86,-169.84C602.81,-161.97 588.46,-150.75 576.62,-141.49"/>
<polygon fill="#63b8ff" stroke="#63b8ff" points="579.01,-138.91 568.97,-135.51 574.69,-144.43 579.01,-138.91"/>
</a>
</g>
</g>
<!-- Node14 -->
<g id="Node000014" class="node">
<title>Node14</title>
<g id="a_Node000014"><a xlink:title=" ">
<polygon fill="#e0e0e0" stroke="#999999" points="695.25,-134.25 615.5,-134.25 615.5,-113.5 695.25,-113.5 695.25,-134.25"/>
<text xml:space="preserve" text-anchor="middle" x="655.38" y="-120.75" font-family="Helvetica,sans-Serif" font-size="10.00">peripherals.h</text>
</a>
</g>
</g>
<!-- Node13&#45;&gt;Node14 -->
<g id="edge16_Node000013_Node000014" class="edge">
<title>Node13&#45;&gt;Node14</title>
<g id="a_edge16_Node000013_Node000014"><a xlink:title=" ">
<path fill="none" stroke="#63b8ff" d="M630.74,-169.84C634.58,-162.83 639.88,-153.16 644.58,-144.58"/>
<polygon fill="#63b8ff" stroke="#63b8ff" points="647.59,-146.36 649.33,-135.91 641.46,-142.99 647.59,-146.36"/>
</a>
</g>
</g>
<!-- Node15&#45;&gt;Node7 -->
<g id="edge19_Node000015_Node000007" class="edge">
<title>Node15&#45;&gt;Node7</title>
<g id="a_edge19_Node000015_Node000007"><a xlink:title=" ">
<path fill="none" stroke="#63b8ff" d="M266.64,-56.34C280.23,-48.16 299.85,-36.36 315.58,-26.9"/>
<polygon fill="#63b8ff" stroke="#63b8ff" points="317.19,-30.01 323.95,-21.86 313.58,-24.02 317.19,-30.01"/>
</a>
</g>
</g>
<!-- Node15&#45;&gt;Node8 -->
<g id="edge18_Node000015_Node000008" class="edge">
<title>Node15&#45;&gt;Node8</title>
<g id="a_edge18_Node000015_Node000008"><a xlink:title=" ">
<path fill="none" stroke="#63b8ff" d="M250.38,-56.34C250.38,-49.72 250.38,-40.72 250.38,-32.52"/>
<polygon fill="#63b8ff" stroke="#63b8ff" points="253.88,-32.59 250.38,-22.59 246.88,-32.59 253.88,-32.59"/>
</a>
</g>
</g>
<!-- Node17&#45;&gt;Node7 -->
<g id="edge23_Node000017_Node000007" class="edge">
<title>Node17&#45;&gt;Node7</title>
<g id="a_edge23_Node000017_Node000007"><a xlink:title=" ">
<path fill="none" stroke="#63b8ff" d="M354.51,-56.34C352.54,-49.56 349.83,-40.3 347.38,-31.94"/>
<polygon fill="#63b8ff" stroke="#63b8ff" points="350.8,-31.15 344.64,-22.53 344.08,-33.11 350.8,-31.15"/>
</a>
</g>
</g>
<!-- Node17&#45;&gt;Node8 -->
<g id="edge22_Node000017_Node000008" class="edge">
<title>Node17&#45;&gt;Node8</title>
<g id="a_edge22_Node000017_Node000008"><a xlink:title=" ">
<path fill="none" stroke="#63b8ff" d="M338.25,-56.34C321.89,-47.97 298.1,-35.79 279.4,-26.22"/>
<polygon fill="#63b8ff" stroke="#63b8ff" points="281.18,-23.21 270.69,-21.77 277.99,-29.44 281.18,-23.21"/>
</a>
</g>
</g>
<!-- Node18&#45;&gt;Node7 -->
<g id="edge25_Node000018_Node000007" class="edge">
<title>Node18&#45;&gt;Node7</title>
<g id="a_edge25_Node000018_Node000007"><a xlink:title=" ">
<path fill="none" stroke="#63b8ff" d="M408.72,-56.34C396.7,-48.32 379.46,-36.81 365.44,-27.44"/>
<polygon fill="#63b8ff" stroke="#63b8ff" points="367.43,-24.56 357.17,-21.92 363.54,-30.38 367.43,-24.56"/>
</a>
</g>
</g>
</g>
</svg>
