<?xml version="1.0" encoding="UTF-8" standalone="no"?>
<!DOCTYPE svg PUBLIC "-//W3C//DTD SVG 1.1//EN"
 "http://www.w3.org/Graphics/SVG/1.1/DTD/svg11.dtd">
<!-- Generated by graphviz version 14.1.5 (0)
 -->
<!-- Title: source/statemachine_helpers.h Pages: 1 -->
<svg width="140pt" height="98pt"
 viewBox="0.00 0.00 140.00 98.00" xmlns="http://www.w3.org/2000/svg" xmlns:xlink="http://www.w3.org/1999/xlink">
<g id="graph0" class="graph" transform="scale(1 1) rotate(0) translate(4 94.25)">
<title>source/statemachine_helpers.h</title>
<!-- Node1 -->
<g id="Node000001" class="node">
<title>Node1</title>
<g id="a_Node000001"><a xlink:title="Helpers for the application state machine (command parsing &amp; utils).">
<polygon fill="#999999" stroke="#666666" points="122.38,-90.25 4.38,-90.25 4.38,-56.75 122.38,-56.75 122.38,-90.25"/>
<text xml:space="preserve" text-anchor="start" x="12.38" y="-76.75" font-family="Helvetica,sans-Serif" font-size="10.00">source/statemachine</text>
<text xml:space="preserve" text-anchor="middle" x="63.38" y="-64" font-family="Helvetica,sans-Serif" font-size="10.00">_helpers.h</text>
</a>
</g>
</g>
<!-- Node2 -->
<g id="Node000002" class="node">
<title>Node2</title>
<g id="a_Node000002"><a xlink:title=" ">
<polygon fill="#e0e0e0" stroke="#999999" points="52.75,-20.75 0,-20.75 0,0 52.75,0 52.75,-20.75"/>
<text xml:space="preserve" text-anchor="middle" x="26.38" y="-7.25" font-family="Helvetica,sans-Serif" font-size="10.00">stdint.h</text>
</a>
</g>
</g>
<!-- Node1&#45;&gt;Node2 -->
<g id="edge1_Node000001_Node000002" class="edge">
<title>Node1&#45;&gt;Node2</title>
<g id="a_edge1_Node000001_Node000002"><a xlink:title=" ">
<path fill="none" stroke="#63b8ff" d="M53.65,-56.44C48.9,-48.58 43.13,-39.06 38.13,-30.79"/>
<polygon fill="#63b8ff" stroke="#63b8ff" points="41.29,-29.25 33.12,-22.51 35.3,-32.88 41.29,-29.25"/>
</a>
</g>
</g>
<!-- Node3 -->
<g id="Node000003" class="node">
<title>Node3</title>
<g id="a_Node000003"><a xlink:title=" ">
<polygon fill="#e0e0e0" stroke="#999999" points="131.88,-20.75 70.88,-20.75 70.88,0 131.88,0 131.88,-20.75"/>
<text xml:space="preserve" text-anchor="middle" x="101.38" y="-7.25" font-family="Helvetica,sans-Serif" font-size="10.00">stdbool.h</text>
</a>
</g>
</g>
<!-- Node1&#45;&gt;Node3 -->
<g id="edge2_Node000001_Node000003" class="edge">
<title>Node1&#45;&gt;Node3</title>
<g id="a_edge2_Node000001_Node000003"><a xlink:title=" ">
<path fill="none" stroke="#63b8ff" d="M73.36,-56.44C78.24,-48.58 84.17,-39.06 89.3,-30.79"/>
<polygon fill="#63b8ff" stroke="#63b8ff" points="92.15,-32.84 94.46,-22.5 86.21,-29.15 92.15,-32.84"/>
</a>
</g>
</g>
</g>
</svg>
