<?xml version="1.0" encoding="UTF-8" standalone="no"?>
<!DOCTYPE svg PUBLIC "-//W3C//DTD SVG 1.1//EN"
 "http://www.w3.org/Graphics/SVG/1.1/DTD/svg11.dtd">
<!-- Generated by graphviz version 14.1.5 (0)
 -->
<!-- Title: source/statemachine.h Pages: 1 -->
<svg width="266pt" height="86pt"
 viewBox="0.00 0.00 266.00 86.00" xmlns="http://www.w3.org/2000/svg" xmlns:xlink="http://www.w3.org/1999/xlink">
<g id="graph0" class="graph" transform="scale(1 1) rotate(0) translate(4 81.5)">
<title>source/statemachine.h</title>
<!-- Node1 -->
<g id="Node000001" class="node">
<title>Node1</title>
<g id="a_Node000001"><a xlink:title=" ">
<polygon fill="#999999" stroke="#666666" points="189.25,-77.5 62.25,-77.5 62.25,-56.75 189.25,-56.75 189.25,-77.5"/>
<text xml:space="preserve" text-anchor="middle" x="125.75" y="-64" font-family="Helvetica,sans-Serif" font-size="10.00">source/statemachine.h</text>
</a>
</g>
</g>
<!-- Node2 -->
<g id="Node000002" class="node">
<title>Node2</title>
<g id="a_Node000002"><a xlink:href="application_8c.html" target="_top" xlink:title=" ">
<polygon fill="white" stroke="#666666" points="113.5,-20.75 0,-20.75 0,0 113.5,0 113.5,-20.75"/>
<text xml:space="preserve" text-anchor="middle" x="56.75" y="-7.25" font-family="Helvetica,sans-Serif" font-size="10.00">source/application.c</text>
</a>
</g>
</g>
<!-- Node1&#45;&gt;Node2 -->
<g id="edge1_Node000001_Node000002" class="edge">
<title>Node1&#45;&gt;Node2</title>
<g id="a_edge1_Node000001_Node000002"><a xlink:title=" ">
<path fill="none" stroke="#63b8ff" d="M104.69,-49.41C92.99,-40.13 78.86,-28.92 68.98,-21.08"/>
<polygon fill="#63b8ff" stroke="#63b8ff" points="102.22,-51.92 112.23,-55.4 106.57,-46.44 102.22,-51.92"/>
</a>
</g>
</g>
<!-- Node3 -->
<g id="Node000003" class="node">
<title>Node3</title>
<g id="a_Node000003"><a xlink:href="statemachine_8c.html" target="_top" xlink:title=" ">
<polygon fill="white" stroke="#666666" points="257.88,-20.75 131.62,-20.75 131.62,0 257.88,0 257.88,-20.75"/>
<text xml:space="preserve" text-anchor="middle" x="194.75" y="-7.25" font-family="Helvetica,sans-Serif" font-size="10.00">source/statemachine.c</text>
</a>
</g>
</g>
<!-- Node1&#45;&gt;Node3 -->
<g id="edge2_Node000001_Node000003" class="edge">
<title>Node1&#45;&gt;Node3</title>
<g id="a_edge2_Node000001_Node000003"><a xlink:title=" ">
<path fill="none" stroke="#63b8ff" d="M146.81,-49.41C158.51,-40.13 172.64,-28.92 182.52,-21.08"/>
<polygon fill="#63b8ff" stroke="#63b8ff" points="144.93,-46.44 139.27,-55.4 149.28,-51.92 144.93,-46.44"/>
</a>
</g>
</g>
</g>
</svg>
