<?xml version="1.0" encoding="UTF-8" standalone="no"?>
<!DOCTYPE svg PUBLIC "-//W3C//DTD SVG 1.1//EN"
 "http://www.w3.org/Graphics/SVG/1.1/DTD/svg11.dtd">
<!-- Generated by graphviz version 14.1.4 (0)
 -->
<!-- Title: source/motion/stepper/step_internal.h Pages: 1 -->
<svg width="604pt" height="181pt"
 viewBox="0.00 0.00 604.00 181.00" xmlns="http://www.w3.org/2000/svg" xmlns:xlink="http://www.w3.org/1999/xlink">
<g id="graph0" class="graph" transform="scale(1 1) rotate(0) translate(4 176.5)">
<title>source/motion/stepper/step_internal.h</title>
<!-- Node1 -->
<g id="Node000001" class="node">
<title>Node1</title>
<g id="a_Node000001"><a xlink:title=" ">
<polygon fill="#999999" stroke="#666666" points="324.5,-172.5 199,-172.5 199,-139 324.5,-139 324.5,-172.5"/>
<text xml:space="preserve" text-anchor="start" x="207" y="-159" font-family="Helvetica,sans-Serif" font-size="10.00">source/motion/stepper</text>
<text xml:space="preserve" text-anchor="middle" x="261.75" y="-146.25" font-family="Helvetica,sans-Serif" font-size="10.00">/step_internal.h</text>
</a>
</g>
</g>
<!-- Node2 -->
<g id="Node000002" class="node">
<title>Node2</title>
<g id="a_Node000002"><a xlink:href="step__core_8c.html" target="_top" xlink:title=" ">
<polygon fill="white" stroke="#666666" points="125.5,-33.5 0,-33.5 0,0 125.5,0 125.5,-33.5"/>
<text xml:space="preserve" text-anchor="start" x="8" y="-20" font-family="Helvetica,sans-Serif" font-size="10.00">source/motion/stepper</text>
<text xml:space="preserve" text-anchor="middle" x="62.75" y="-7.25" font-family="Helvetica,sans-Serif" font-size="10.00">/step_core.c</text>
</a>
</g>
</g>
<!-- Node1&#45;&gt;Node2 -->
<g id="edge1_Node000001_Node000002" class="edge">
<title>Node1&#45;&gt;Node2</title>
<g id="a_edge1_Node000001_Node000002"><a xlink:title=" ">
<path fill="none" stroke="#63b8ff" d="M187.65,-145.98C134.84,-138.02 70.36,-124.25 53.75,-103 38.26,-83.18 47.14,-52.38 54.97,-33.73"/>
<polygon fill="#63b8ff" stroke="#63b8ff" points="186.83,-149.39 197.23,-147.37 187.84,-142.47 186.83,-149.39"/>
</a>
</g>
</g>
<!-- Node3 -->
<g id="Node000003" class="node">
<title>Node3</title>
<g id="a_Node000003"><a xlink:href="step__process_8c.html" target="_top" xlink:title=" ">
<polygon fill="white" stroke="#666666" points="288.5,-33.5 163,-33.5 163,0 288.5,0 288.5,-33.5"/>
<text xml:space="preserve" text-anchor="start" x="171" y="-20" font-family="Helvetica,sans-Serif" font-size="10.00">source/motion/stepper</text>
<text xml:space="preserve" text-anchor="middle" x="225.75" y="-7.25" font-family="Helvetica,sans-Serif" font-size="10.00">/step_process.c</text>
</a>
</g>
</g>
<!-- Node1&#45;&gt;Node3 -->
<g id="edge2_Node000001_Node000003" class="edge">
<title>Node1&#45;&gt;Node3</title>
<g id="a_edge2_Node000001_Node000003"><a xlink:title=" ">
<path fill="none" stroke="#63b8ff" d="M246.32,-128.46C242.28,-120.51 238.33,-111.61 235.75,-103 228.73,-79.59 226.6,-51.19 225.98,-33.8"/>
<polygon fill="#63b8ff" stroke="#63b8ff" points="243.24,-130.11 251.06,-137.25 249.4,-126.79 243.24,-130.11"/>
</a>
</g>
</g>
<!-- Node4 -->
<g id="Node000004" class="node">
<title>Node4</title>
<g id="a_Node000004"><a xlink:href="step__process_8h.html" target="_top" xlink:title=" ">
<polygon fill="white" stroke="#666666" points="188.5,-103 63,-103 63,-69.5 188.5,-69.5 188.5,-103"/>
<text xml:space="preserve" text-anchor="start" x="71" y="-89.5" font-family="Helvetica,sans-Serif" font-size="10.00">source/motion/stepper</text>
<text xml:space="preserve" text-anchor="middle" x="125.75" y="-76.75" font-family="Helvetica,sans-Serif" font-size="10.00">/step_process.h</text>
</a>
</g>
</g>
<!-- Node1&#45;&gt;Node4 -->
<g id="edge3_Node000001_Node000004" class="edge">
<title>Node1&#45;&gt;Node4</title>
<g id="a_edge3_Node000001_Node000004"><a xlink:title=" ">
<path fill="none" stroke="#63b8ff" d="M218.92,-133.49C199.23,-123.72 176.26,-112.32 158.06,-103.29"/>
<polygon fill="#63b8ff" stroke="#63b8ff" points="217.31,-136.6 227.82,-137.91 220.42,-130.33 217.31,-136.6"/>
</a>
</g>
</g>
<!-- Node5 -->
<g id="Node000005" class="node">
<title>Node5</title>
<g id="a_Node000005"><a xlink:href="step__profile_8h.html" target="_top" xlink:title=" ">
<polygon fill="white" stroke="#666666" points="552.5,-103 427,-103 427,-69.5 552.5,-69.5 552.5,-103"/>
<text xml:space="preserve" text-anchor="start" x="435" y="-89.5" font-family="Helvetica,sans-Serif" font-size="10.00">source/motion/stepper</text>
<text xml:space="preserve" text-anchor="middle" x="489.75" y="-76.75" font-family="Helvetica,sans-Serif" font-size="10.00">/step_profile.h</text>
</a>
</g>
</g>
<!-- Node1&#45;&gt;Node5 -->
<g id="edge6_Node000001_Node000005" class="edge">
<title>Node1&#45;&gt;Node5</title>
<g id="a_edge6_Node000001_Node000005"><a xlink:title=" ">
<path fill="none" stroke="#63b8ff" d="M327.19,-135.38C361.38,-125.25 402.75,-113.01 435.19,-103.4"/>
<polygon fill="#63b8ff" stroke="#63b8ff" points="326.41,-131.96 317.81,-138.15 328.4,-138.67 326.41,-131.96"/>
</a>
</g>
</g>
<!-- Node7 -->
<g id="Node000007" class="node">
<title>Node7</title>
<g id="a_Node000007"><a xlink:href="step__timing_8c.html" target="_top" xlink:title=" ">
<polygon fill="white" stroke="#666666" points="451.5,-33.5 326,-33.5 326,0 451.5,0 451.5,-33.5"/>
<text xml:space="preserve" text-anchor="start" x="334" y="-20" font-family="Helvetica,sans-Serif" font-size="10.00">source/motion/stepper</text>
<text xml:space="preserve" text-anchor="middle" x="388.75" y="-7.25" font-family="Helvetica,sans-Serif" font-size="10.00">/step_timing.c</text>
</a>
</g>
</g>
<!-- Node1&#45;&gt;Node7 -->
<g id="edge10_Node000001_Node000007" class="edge">
<title>Node1&#45;&gt;Node7</title>
<g id="a_edge10_Node000001_Node000007"><a xlink:title=" ">
<path fill="none" stroke="#63b8ff" d="M335.43,-136.39C352.45,-128.76 368.76,-118.03 379.75,-103 394.51,-82.82 393.77,-52.41 391.52,-33.89"/>
<polygon fill="#63b8ff" stroke="#63b8ff" points="334.11,-133.15 326.18,-140.18 336.76,-139.62 334.11,-133.15"/>
</a>
</g>
</g>
<!-- Node8 -->
<g id="Node000008" class="node">
<title>Node8</title>
<g id="a_Node000008"><a xlink:href="step__timing_8h.html" target="_top" xlink:title=" ">
<polygon fill="white" stroke="#666666" points="370.5,-103 245,-103 245,-69.5 370.5,-69.5 370.5,-103"/>
<text xml:space="preserve" text-anchor="start" x="253" y="-89.5" font-family="Helvetica,sans-Serif" font-size="10.00">source/motion/stepper</text>
<text xml:space="preserve" text-anchor="middle" x="307.75" y="-76.75" font-family="Helvetica,sans-Serif" font-size="10.00">/step_timing.h</text>
</a>
</g>
</g>
<!-- Node1&#45;&gt;Node8 -->
<g id="edge11_Node000001_Node000008" class="edge">
<title>Node1&#45;&gt;Node8</title>
<g id="a_edge11_Node000001_Node000008"><a xlink:title=" ">
<path fill="none" stroke="#63b8ff" d="M279.09,-129.31C285.08,-120.52 291.61,-110.93 296.93,-103.13"/>
<polygon fill="#63b8ff" stroke="#63b8ff" points="276.24,-127.27 273.5,-137.5 282.03,-131.21 276.24,-127.27"/>
</a>
</g>
</g>
<!-- Node4&#45;&gt;Node2 -->
<g id="edge4_Node000004_Node000002" class="edge">
<title>Node4&#45;&gt;Node2</title>
<g id="a_edge4_Node000004_Node000002"><a xlink:title=" ">
<path fill="none" stroke="#63b8ff" d="M103.06,-60.94C94.58,-51.85 85.17,-41.77 77.57,-33.63"/>
<polygon fill="#63b8ff" stroke="#63b8ff" points="100.41,-63.22 109.79,-68.15 105.52,-58.45 100.41,-63.22"/>
</a>
</g>
</g>
<!-- Node4&#45;&gt;Node3 -->
<g id="edge5_Node000004_Node000003" class="edge">
<title>Node4&#45;&gt;Node3</title>
<g id="a_edge5_Node000004_Node000003"><a xlink:title=" ">
<path fill="none" stroke="#63b8ff" d="M159.05,-62.77C173.11,-53.28 189.16,-42.45 201.99,-33.79"/>
<polygon fill="#63b8ff" stroke="#63b8ff" points="157.29,-59.74 150.96,-68.24 161.2,-65.54 157.29,-59.74"/>
</a>
</g>
</g>
<!-- Node5&#45;&gt;Node3 -->
<g id="edge7_Node000005_Node000003" class="edge">
<title>Node5&#45;&gt;Node3</title>
<g id="a_edge7_Node000005_Node000003"><a xlink:title=" ">
<path fill="none" stroke="#63b8ff" d="M415.51,-66.27C375.63,-56.07 326.98,-43.63 288.93,-33.9"/>
<polygon fill="#63b8ff" stroke="#63b8ff" points="414.49,-69.62 425.05,-68.71 416.23,-62.84 414.49,-69.62"/>
</a>
</g>
</g>
<!-- Node6 -->
<g id="Node000006" class="node">
<title>Node6</title>
<g id="a_Node000006"><a xlink:href="step__profile_8c.html" target="_top" xlink:title=" ">
<polygon fill="white" stroke="#666666" points="595.5,-33.5 470,-33.5 470,0 595.5,0 595.5,-33.5"/>
<text xml:space="preserve" text-anchor="start" x="478" y="-20" font-family="Helvetica,sans-Serif" font-size="10.00">source/motion/stepper</text>
<text xml:space="preserve" text-anchor="middle" x="532.75" y="-7.25" font-family="Helvetica,sans-Serif" font-size="10.00">/step_profile.c</text>
</a>
</g>
</g>
<!-- Node5&#45;&gt;Node6 -->
<g id="edge8_Node000005_Node000006" class="edge">
<title>Node5&#45;&gt;Node6</title>
<g id="a_edge8_Node000005_Node000006"><a xlink:title=" ">
<path fill="none" stroke="#63b8ff" d="M505.96,-59.81C511.55,-51.02 517.66,-41.43 522.63,-33.63"/>
<polygon fill="#63b8ff" stroke="#63b8ff" points="503.17,-57.66 500.75,-67.98 509.08,-61.42 503.17,-57.66"/>
</a>
</g>
</g>
<!-- Node5&#45;&gt;Node7 -->
<g id="edge9_Node000005_Node000007" class="edge">
<title>Node5&#45;&gt;Node7</title>
<g id="a_edge9_Node000005_Node000007"><a xlink:title=" ">
<path fill="none" stroke="#63b8ff" d="M456.11,-62.77C441.91,-53.28 425.7,-42.45 412.74,-33.79"/>
<polygon fill="#63b8ff" stroke="#63b8ff" points="454.04,-65.59 464.3,-68.24 457.93,-59.77 454.04,-65.59"/>
</a>
</g>
</g>
<!-- Node8&#45;&gt;Node3 -->
<g id="edge12_Node000008_Node000003" class="edge">
<title>Node8&#45;&gt;Node3</title>
<g id="a_edge12_Node000008_Node000003"><a xlink:title=" ">
<path fill="none" stroke="#63b8ff" d="M279.64,-62.11C268.34,-52.81 255.59,-42.31 245.33,-33.87"/>
<polygon fill="#63b8ff" stroke="#63b8ff" points="277.2,-64.64 287.15,-68.29 281.65,-59.23 277.2,-64.64"/>
</a>
</g>
</g>
<!-- Node8&#45;&gt;Node7 -->
<g id="edge13_Node000008_Node000007" class="edge">
<title>Node8&#45;&gt;Node7</title>
<g id="a_edge13_Node000008_Node000007"><a xlink:title=" ">
<path fill="none" stroke="#63b8ff" d="M335.51,-62.11C346.68,-52.81 359.27,-42.31 369.41,-33.87"/>
<polygon fill="#63b8ff" stroke="#63b8ff" points="333.55,-59.19 328.11,-68.28 338.03,-64.57 333.55,-59.19"/>
</a>
</g>
</g>
</g>
</svg>
