<?xml version="1.0" encoding="UTF-8" standalone="no"?>
<!DOCTYPE svg PUBLIC "-//W3C//DTD SVG 1.1//EN"
 "http://www.w3.org/Graphics/SVG/1.1/DTD/svg11.dtd">
<!-- Generated by graphviz version 14.1.2 (0)
 -->
<!-- Title: source/step.h Pages: 1 -->
<svg width="351pt" height="86pt"
 viewBox="0.00 0.00 351.00 86.00" xmlns="http://www.w3.org/2000/svg" xmlns:xlink="http://www.w3.org/1999/xlink">
<g id="graph0" class="graph" transform="scale(1 1) rotate(0) translate(4 81.5)">
<title>source/step.h</title>
<!-- Node1 -->
<g id="Node000001" class="node">
<title>Node1</title>
<g id="a_Node000001"><a xlink:title=" ">
<polygon fill="#999999" stroke="#666666" points="228.38,-77.5 147.12,-77.5 147.12,-56.75 228.38,-56.75 228.38,-77.5"/>
<text xml:space="preserve" text-anchor="middle" x="187.75" y="-64" font-family="Helvetica,sans-Serif" font-size="10.00">source/step.h</text>
</a>
</g>
</g>
<!-- Node2 -->
<g id="Node000002" class="node">
<title>Node2</title>
<g id="a_Node000002"><a xlink:href="application_8c.html" target="_top" xlink:title=" ">
<polygon fill="white" stroke="#666666" points="113.5,-20.75 0,-20.75 0,0 113.5,0 113.5,-20.75"/>
<text xml:space="preserve" text-anchor="middle" x="56.75" y="-7.25" font-family="Helvetica,sans-Serif" font-size="10.00">source/application.c</text>
</a>
</g>
</g>
<!-- Node1&#45;&gt;Node2 -->
<g id="edge1_Node000001_Node000002" class="edge">
<title>Node1&#45;&gt;Node2</title>
<g id="a_edge1_Node000001_Node000002"><a xlink:title=" ">
<path fill="none" stroke="#63b8ff" d="M153.89,-51.97C130.68,-42.27 100.49,-29.66 79.97,-21.08"/>
<polygon fill="#63b8ff" stroke="#63b8ff" points="152.36,-55.13 162.93,-55.75 155.06,-48.67 152.36,-55.13"/>
</a>
</g>
</g>
<!-- Node3 -->
<g id="Node000003" class="node">
<title>Node3</title>
<g id="a_Node000003"><a xlink:href="motor__test_8c.html" target="_top" xlink:title=" ">
<polygon fill="white" stroke="#666666" points="244.12,-20.75 131.38,-20.75 131.38,0 244.12,0 244.12,-20.75"/>
<text xml:space="preserve" text-anchor="middle" x="187.75" y="-7.25" font-family="Helvetica,sans-Serif" font-size="10.00">source/motor_test.c</text>
</a>
</g>
</g>
<!-- Node1&#45;&gt;Node3 -->
<g id="edge2_Node000001_Node000003" class="edge">
<title>Node1&#45;&gt;Node3</title>
<g id="a_edge2_Node000001_Node000003"><a xlink:title=" ">
<path fill="none" stroke="#63b8ff" d="M187.75,-44.88C187.75,-36.66 187.75,-27.68 187.75,-21.08"/>
<polygon fill="#63b8ff" stroke="#63b8ff" points="184.25,-44.82 187.75,-54.82 191.25,-44.82 184.25,-44.82"/>
</a>
</g>
</g>
<!-- Node4 -->
<g id="Node000004" class="node">
<title>Node4</title>
<g id="a_Node000004"><a xlink:href="step_8c.html" target="_top" xlink:title=" ">
<polygon fill="white" stroke="#666666" points="343,-20.75 262.5,-20.75 262.5,0 343,0 343,-20.75"/>
<text xml:space="preserve" text-anchor="middle" x="302.75" y="-7.25" font-family="Helvetica,sans-Serif" font-size="10.00">source/step.c</text>
</a>
</g>
</g>
<!-- Node1&#45;&gt;Node4 -->
<g id="edge3_Node000001_Node000004" class="edge">
<title>Node1&#45;&gt;Node4</title>
<g id="a_edge3_Node000001_Node000004"><a xlink:title=" ">
<path fill="none" stroke="#63b8ff" d="M218.58,-51.45C238.81,-41.82 264.68,-29.5 282.37,-21.08"/>
<polygon fill="#63b8ff" stroke="#63b8ff" points="217.2,-48.23 209.68,-55.69 220.21,-54.55 217.2,-48.23"/>
</a>
</g>
</g>
</g>
</svg>
