<?xml version="1.0" encoding="UTF-8" standalone="no"?>
<!DOCTYPE svg PUBLIC "-//W3C//DTD SVG 1.1//EN"
 "http://www.w3.org/Graphics/SVG/1.1/DTD/svg11.dtd">
<!-- Generated by graphviz version 14.1.4 (0)
 -->
<!-- Title: source/motion/stepper/step_core.h Pages: 1 -->
<!--zoomable 320 -->

<svg id="main" version="1.1" xmlns="http://www.w3.org/2000/svg" xmlns:xlink="http://www.w3.org/1999/xlink" xml:space="preserve" onload="init(evt)">

<style type="text/css"><![CDATA[
.node, .edge {opacity: 0.7;}
.node.selected, .edge.selected {opacity: 1;}
.edge:hover path { stroke: red; }
.edge:hover polygon { stroke: red; fill: red; }
]]></style>

<defs>
  <circle id="rim" cx="0" cy="0" r="7"/>
  <circle id="rim2" cx="0" cy="0" r="3.5"/>
  <g id="zoomPlus">
    <use xlink:href="#rim" fill="#404040"><set attributeName="fill" to="#808080" begin="zoomplus.mouseover" end="zoomplus.mouseout"/></use>
    <path d="M-4,0h8M0,-4v8" fill="none" stroke="white" stroke-width="1.5" pointer-events="none"/>
  </g>
  <g id="zoomMin">
    <use xlink:href="#rim" fill="#404040"><set attributeName="fill" to="#808080" begin="zoomminus.mouseover" end="zoomminus.mouseout"/></use>
    <path d="M-4,0h8" fill="none" stroke="white" stroke-width="1.5" pointer-events="none"/>
  </g>
  <g id="arrowUp" transform="translate(30 24)">
    <use xlink:href="#rim"/>
    <path pointer-events="none" fill="none" stroke="white" stroke-width="1.5" d="M0,-3.0v7 M-2.5,-0.5L0,-3.0L2.5,-0.5"/>
  </g>
  <g id="arrowRight" transform="rotate(90) translate(36 -43)">
    <use xlink:href="#rim"/>
    <path pointer-events="none" fill="none" stroke="white" stroke-width="1.5" d="M0,-3.0v7 M-2.5,-0.5L0,-3.0L2.5,-0.5"/>
  </g>
  <g id="arrowDown" transform="rotate(180) translate(-30 -48)">
    <use xlink:href="#rim"/>
    <path pointer-events="none" fill="none" stroke="white" stroke-width="1.5" d="M0,-3.0v7 M-2.5,-0.5L0,-3.0L2.5,-0.5"/>
  </g>
  <g id="arrowLeft" transform="rotate(270) translate(-36 17)">
    <use xlink:href="#rim"/>
    <path pointer-events="none" fill="none" stroke="white" stroke-width="1.5" d="M0,-3.0v7 M-2.5,-0.5L0,-3.0L2.5,-0.5"/>
  </g>
  <g id="resetDef">
    <use xlink:href="#rim2" fill="#404040"><set attributeName="fill" to="#808080" begin="reset.mouseover" end="reset.mouseout"/></use>
  </g>
</defs>
<script type="application/ecmascript">
var viewWidth = 1377;
var viewHeight = 320;
var sectionId = 'dynsection-1';
</script>
<script type="application/ecmascript" xlink:href="svg.min.js"/>
<svg id="graph" class="graph">
<g id="viewport">
<title>source/motion/stepper/step_core.h</title>
<!-- Node1 -->
<g id="Node000001" class="node">
<title>Node1</title>
<g id="a_Node000001"><a xlink:title=" ">
<polygon fill="#999999" stroke="#666666" points="485.93,-311.5 360.43,-311.5 360.43,-278 485.93,-278 485.93,-311.5"/>
<text xml:space="preserve" text-anchor="start" x="368.43" y="-298" font-family="Helvetica,sans-Serif" font-size="10.00">source/motion/stepper</text>
<text xml:space="preserve" text-anchor="middle" x="423.18" y="-285.25" font-family="Helvetica,sans-Serif" font-size="10.00">/step_core.h</text>
</a>
</g>
</g>
<!-- Node2 -->
<g id="Node000002" class="node">
<title>Node2</title>
<g id="a_Node000002"><a xlink:href="application_8c.html" target="_top" xlink:title=" ">
<polygon fill="white" stroke="#666666" points="160.93,-166.12 47.43,-166.12 47.43,-145.38 160.93,-145.38 160.93,-166.12"/>
<text xml:space="preserve" text-anchor="middle" x="104.18" y="-152.62" font-family="Helvetica,sans-Serif" font-size="10.00">source/application.c</text>
</a>
</g>
</g>
<!-- Node1&#45;&gt;Node2 -->
<g id="edge1_Node000001_Node000002" class="edge">
<title>Node1&#45;&gt;Node2</title>
<g id="a_edge1_Node000001_Node000002"><a xlink:title=" ">
<path fill="none" stroke="#63b8ff" d="M375.36,-273.21C305.52,-243.22 178.33,-188.59 126.78,-166.46"/>
<polygon fill="#63b8ff" stroke="#63b8ff" points="373.69,-276.3 384.26,-277.03 376.45,-269.87 373.69,-276.3"/>
</a>
</g>
</g>
<!-- Node3 -->
<g id="Node000003" class="node">
<title>Node3</title>
<g id="a_Node000003"><a xlink:href="motor__init_8c.html" target="_top" xlink:title=" ">
<polygon fill="white" stroke="#666666" points="1230.18,-33.5 1112.18,-33.5 1112.18,0 1230.18,0 1230.18,-33.5"/>
<text xml:space="preserve" text-anchor="start" x="1120.18" y="-20" font-family="Helvetica,sans-Serif" font-size="10.00">source/motion/motor</text>
<text xml:space="preserve" text-anchor="middle" x="1171.18" y="-7.25" font-family="Helvetica,sans-Serif" font-size="10.00">/motor_init.c</text>
</a>
</g>
</g>
<!-- Node1&#45;&gt;Node3 -->
<g id="edge2_Node000001_Node000003" class="edge">
<title>Node1&#45;&gt;Node3</title>
<g id="a_edge2_Node000001_Node000003"><a xlink:title=" ">
<path fill="none" stroke="#63b8ff" d="M497.62,-286.82C674.12,-268.7 1109.65,-213.48 1196.18,-103 1212.16,-82.6 1196.4,-52.26 1183.67,-33.81"/>
<polygon fill="#63b8ff" stroke="#63b8ff" points="497.48,-283.32 487.89,-287.81 498.19,-290.28 497.48,-283.32"/>
</a>
</g>
</g>
<!-- Node4 -->
<g id="Node000004" class="node">
<title>Node4</title>
<g id="a_Node000004"><a xlink:href="motor__motion_8c.html" target="_top" xlink:title=" ">
<polygon fill="white" stroke="#666666" points="197.18,-33.5 79.18,-33.5 79.18,0 197.18,0 197.18,-33.5"/>
<text xml:space="preserve" text-anchor="start" x="87.18" y="-20" font-family="Helvetica,sans-Serif" font-size="10.00">source/motion/motor</text>
<text xml:space="preserve" text-anchor="middle" x="138.18" y="-7.25" font-family="Helvetica,sans-Serif" font-size="10.00">/motor_motion.c</text>
</a>
</g>
</g>
<!-- Node1&#45;&gt;Node4 -->
<g id="edge3_Node000001_Node000004" class="edge">
<title>Node1&#45;&gt;Node4</title>
<g id="a_edge3_Node000001_Node000004"><a xlink:title=" ">
<path fill="none" stroke="#63b8ff" d="M348.76,-287.88C263.54,-280.2 129.93,-264.96 85.18,-242 46.73,-222.27 33.79,-212.4 17.18,-172.5 -0.41,-130.24 -9.09,-107.67 16.18,-69.5 30.34,-48.11 55.31,-35.54 78.99,-28.16"/>
<polygon fill="#63b8ff" stroke="#63b8ff" points="348.42,-291.36 358.68,-288.76 349.03,-284.39 348.42,-291.36"/>
</a>
</g>
</g>
<!-- Node5 -->
<g id="Node000005" class="node">
<title>Node5</title>
<g id="a_Node000005"><a xlink:href="motor__sync_8c.html" target="_top" xlink:title=" ">
<polygon fill="white" stroke="#666666" points="333.18,-33.5 215.18,-33.5 215.18,0 333.18,0 333.18,-33.5"/>
<text xml:space="preserve" text-anchor="start" x="223.18" y="-20" font-family="Helvetica,sans-Serif" font-size="10.00">source/motion/motor</text>
<text xml:space="preserve" text-anchor="middle" x="274.18" y="-7.25" font-family="Helvetica,sans-Serif" font-size="10.00">/motor_sync.c</text>
</a>
</g>
</g>
<!-- Node1&#45;&gt;Node5 -->
<g id="edge4_Node000001_Node000005" class="edge">
<title>Node1&#45;&gt;Node5</title>
<g id="a_edge4_Node000001_Node000005"><a xlink:title=" ">
<path fill="none" stroke="#63b8ff" d="M348.97,-281.38C247.47,-262.73 73.8,-224.03 38.18,-172.5 12.15,-134.84 9.4,-105.1 38.18,-69.5 86.19,-10.12 131.65,-50.12 206.18,-33.5 209.02,-32.87 211.92,-32.21 214.85,-31.55"/>
<polygon fill="#63b8ff" stroke="#63b8ff" points="348.12,-284.78 358.59,-283.12 349.37,-277.89 348.12,-284.78"/>
</a>
</g>
</g>
<!-- Node6 -->
<g id="Node000006" class="node">
<title>Node6</title>
<g id="a_Node000006"><a xlink:href="step__core_8c.html" target="_top" xlink:title=" ">
<polygon fill="white" stroke="#666666" points="1368.93,-242 1243.43,-242 1243.43,-208.5 1368.93,-208.5 1368.93,-242"/>
<text xml:space="preserve" text-anchor="start" x="1251.43" y="-228.5" font-family="Helvetica,sans-Serif" font-size="10.00">source/motion/stepper</text>
<text xml:space="preserve" text-anchor="middle" x="1306.18" y="-215.75" font-family="Helvetica,sans-Serif" font-size="10.00">/step_core.c</text>
</a>
</g>
</g>
<!-- Node1&#45;&gt;Node6 -->
<g id="edge5_Node000001_Node000006" class="edge">
<title>Node1&#45;&gt;Node6</title>
<g id="a_edge5_Node000001_Node000006"><a xlink:title=" ">
<path fill="none" stroke="#63b8ff" d="M497.35,-292.4C639.78,-289.04 961.25,-277.83 1229.18,-242 1233.78,-241.39 1238.51,-240.66 1243.27,-239.85"/>
<polygon fill="#63b8ff" stroke="#63b8ff" points="497.6,-288.89 487.69,-292.62 497.76,-295.89 497.6,-288.89"/>
</a>
</g>
</g>
<!-- Node7 -->
<g id="Node000007" class="node">
<title>Node7</title>
<g id="a_Node000007"><a xlink:href="motor_8h.html" target="_top" xlink:title=" ">
<polygon fill="white" stroke="#666666" points="467.55,-235.62 378.8,-235.62 378.8,-214.88 467.55,-214.88 467.55,-235.62"/>
<text xml:space="preserve" text-anchor="middle" x="423.18" y="-222.12" font-family="Helvetica,sans-Serif" font-size="10.00">source/motor.h</text>
</a>
</g>
</g>
<!-- Node1&#45;&gt;Node7 -->
<g id="edge6_Node000001_Node000007" class="edge">
<title>Node1&#45;&gt;Node7</title>
<g id="a_edge6_Node000001_Node000007"><a xlink:title=" ">
<path fill="none" stroke="#63b8ff" d="M423.18,-266.28C423.18,-255.58 423.18,-244.01 423.18,-236.07"/>
<polygon fill="#63b8ff" stroke="#63b8ff" points="419.68,-266.24 423.18,-276.24 426.68,-266.24 419.68,-266.24"/>
</a>
</g>
</g>
<!-- Node21 -->
<g id="Node000021" class="node">
<title>Node21</title>
<g id="a_Node000021"><a xlink:href="motorCmd_8c.html" target="_top" xlink:title=" ">
<polygon fill="white" stroke="#666666" points="798.8,-166.12 687.55,-166.12 687.55,-145.38 798.8,-145.38 798.8,-166.12"/>
<text xml:space="preserve" text-anchor="middle" x="743.18" y="-152.62" font-family="Helvetica,sans-Serif" font-size="10.00">source/motorCmd.c</text>
</a>
</g>
</g>
<!-- Node1&#45;&gt;Node21 -->
<g id="edge38_Node000001_Node000021" class="edge">
<title>Node1&#45;&gt;Node21</title>
<g id="a_edge38_Node000001_Node000021"><a xlink:title=" ">
<path fill="none" stroke="#63b8ff" d="M471.15,-273.21C541.21,-243.22 668.8,-188.59 720.51,-166.46"/>
<polygon fill="#63b8ff" stroke="#63b8ff" points="470.04,-269.88 462.22,-277.04 472.79,-276.32 470.04,-269.88"/>
</a>
</g>
</g>
<!-- Node7&#45;&gt;Node2 -->
<g id="edge7_Node000007_Node000002" class="edge">
<title>Node7&#45;&gt;Node2</title>
<g id="a_edge7_Node000007_Node000002"><a xlink:title=" ">
<path fill="none" stroke="#63b8ff" d="M367.35,-213.49C315.81,-203.41 237.17,-187.66 169.18,-172.5 160.91,-170.66 152.07,-168.58 143.65,-166.56"/>
<polygon fill="#63b8ff" stroke="#63b8ff" points="366.6,-216.91 377.08,-215.39 367.94,-210.04 366.6,-216.91"/>
</a>
</g>
</g>
<!-- Node8 -->
<g id="Node000008" class="node">
<title>Node8</title>
<g id="a_Node000008"><a xlink:href="motor__convert_8h.html" target="_top" xlink:title=" ">
<polygon fill="white" stroke="#666666" points="482.18,-172.5 364.18,-172.5 364.18,-139 482.18,-139 482.18,-172.5"/>
<text xml:space="preserve" text-anchor="start" x="372.18" y="-159" font-family="Helvetica,sans-Serif" font-size="10.00">source/motion/motor</text>
<text xml:space="preserve" text-anchor="middle" x="423.18" y="-146.25" font-family="Helvetica,sans-Serif" font-size="10.00">/motor_convert.h</text>
</a>
</g>
</g>
<!-- Node7&#45;&gt;Node8 -->
<g id="edge8_Node000007_Node000008" class="edge">
<title>Node7&#45;&gt;Node8</title>
<g id="a_edge8_Node000007_Node000008"><a xlink:title=" ">
<path fill="none" stroke="#63b8ff" d="M423.18,-203.38C423.18,-193.57 423.18,-182.05 423.18,-172.92"/>
<polygon fill="#63b8ff" stroke="#63b8ff" points="419.68,-203.07 423.18,-213.07 426.68,-203.07 419.68,-203.07"/>
</a>
</g>
</g>
<!-- Node10 -->
<g id="Node000010" class="node">
<title>Node10</title>
<g id="a_Node000010"><a xlink:href="motor__init_8h.html" target="_top" xlink:title=" ">
<polygon fill="white" stroke="#666666" points="1187.18,-103 1069.18,-103 1069.18,-69.5 1187.18,-69.5 1187.18,-103"/>
<text xml:space="preserve" text-anchor="start" x="1077.18" y="-89.5" font-family="Helvetica,sans-Serif" font-size="10.00">source/motion/motor</text>
<text xml:space="preserve" text-anchor="middle" x="1128.18" y="-76.75" font-family="Helvetica,sans-Serif" font-size="10.00">/motor_init.h</text>
</a>
</g>
</g>
<!-- Node7&#45;&gt;Node10 -->
<g id="edge12_Node000007_Node000010" class="edge">
<title>Node7&#45;&gt;Node10</title>
<g id="a_edge12_Node000007_Node000010"><a xlink:title=" ">
<path fill="none" stroke="#63b8ff" d="M479.19,-218.49C524.62,-212.08 589.26,-198.9 640.18,-172.5 660.17,-162.14 657.52,-147.94 678.18,-139 834.69,-71.3 891.85,-130.3 1060.18,-103 1063.05,-102.53 1065.98,-102.02 1068.93,-101.46"/>
<polygon fill="#63b8ff" stroke="#63b8ff" points="478.73,-215.02 469.28,-219.82 479.66,-221.96 478.73,-215.02"/>
</a>
</g>
</g>
<!-- Node12 -->
<g id="Node000012" class="node">
<title>Node12</title>
<g id="a_Node000012"><a xlink:href="motor__internal_8h.html" target="_top" xlink:title=" ">
<polygon fill="white" stroke="#666666" points="631.18,-172.5 513.18,-172.5 513.18,-139 631.18,-139 631.18,-172.5"/>
<text xml:space="preserve" text-anchor="start" x="521.18" y="-159" font-family="Helvetica,sans-Serif" font-size="10.00">source/motion/motor</text>
<text xml:space="preserve" text-anchor="middle" x="572.18" y="-146.25" font-family="Helvetica,sans-Serif" font-size="10.00">/motor_internal.h</text>
</a>
</g>
</g>
<!-- Node7&#45;&gt;Node12 -->
<g id="edge15_Node000007_Node000012" class="edge">
<title>Node7&#45;&gt;Node12</title>
<g id="a_edge15_Node000007_Node000012"><a xlink:title=" ">
<path fill="none" stroke="#63b8ff" d="M455.13,-209.77C478.99,-198.97 511.61,-184.19 536.36,-172.98"/>
<polygon fill="#63b8ff" stroke="#63b8ff" points="453.89,-206.5 446.22,-213.81 456.78,-212.87 453.89,-206.5"/>
</a>
</g>
</g>
<!-- Node7&#45;&gt;Node21 -->
<g id="edge34_Node000007_Node000021" class="edge">
<title>Node7&#45;&gt;Node21</title>
<g id="a_edge34_Node000007_Node000021"><a xlink:title=" ">
<path fill="none" stroke="#63b8ff" d="M478.98,-212.99C529.68,-202.68 606.52,-186.9 673.18,-172.5 681.82,-170.63 691.06,-168.59 699.89,-166.61"/>
<polygon fill="#63b8ff" stroke="#63b8ff" points="478.52,-209.51 469.42,-214.93 479.92,-216.37 478.52,-209.51"/>
</a>
</g>
</g>
<!-- Node22 -->
<g id="Node000022" class="node">
<title>Node22</title>
<g id="a_Node000022"><a xlink:href="motor__configs_8h.html" target="_top" xlink:title=" ">
<polygon fill="white" stroke="#666666" points="307.8,-166.12 178.55,-166.12 178.55,-145.38 307.8,-145.38 307.8,-166.12"/>
<text xml:space="preserve" text-anchor="middle" x="243.18" y="-152.62" font-family="Helvetica,sans-Serif" font-size="10.00">source/motor_configs.h</text>
</a>
</g>
</g>
<!-- Node7&#45;&gt;Node22 -->
<g id="edge35_Node000007_Node000022" class="edge">
<title>Node7&#45;&gt;Node22</title>
<g id="a_edge35_Node000007_Node000022"><a xlink:title=" ">
<path fill="none" stroke="#63b8ff" d="M386.33,-210.43C351.53,-197.38 300.19,-178.13 269.38,-166.58"/>
<polygon fill="#63b8ff" stroke="#63b8ff" points="385,-213.67 395.59,-213.9 387.45,-207.12 385,-213.67"/>
</a>
</g>
</g>
<!-- Node23 -->
<g id="Node000023" class="node">
<title>Node23</title>
<g id="a_Node000023"><a xlink:href="motor__test_8c.html" target="_top" xlink:title=" ">
<polygon fill="white" stroke="#666666" points="159.55,-96.62 46.8,-96.62 46.8,-75.88 159.55,-75.88 159.55,-96.62"/>
<text xml:space="preserve" text-anchor="middle" x="103.18" y="-83.12" font-family="Helvetica,sans-Serif" font-size="10.00">source/motor_test.c</text>
</a>
</g>
</g>
<!-- Node7&#45;&gt;Node23 -->
<g id="edge37_Node000007_Node000023" class="edge">
<title>Node7&#45;&gt;Node23</title>
<g id="a_edge37_Node000007_Node000023"><a xlink:title=" ">
<path fill="none" stroke="#63b8ff" d="M400.68,-207.76C387.28,-197.79 370.05,-184.68 355.18,-172.5 337.77,-158.23 337.15,-149.39 317.18,-139 302.3,-131.26 207.25,-109.81 148.94,-97.09"/>
<polygon fill="#63b8ff" stroke="#63b8ff" points="398.33,-210.38 408.45,-213.51 402.49,-204.75 398.33,-210.38"/>
</a>
</g>
</g>
<!-- Node8&#45;&gt;Node4 -->
<g id="edge10_Node000008_Node000004" class="edge">
<title>Node8&#45;&gt;Node4</title>
<g id="a_edge10_Node000008_Node000004"><a xlink:title=" ">
<path fill="none" stroke="#63b8ff" d="M352.71,-138.99C307.99,-128.31 254.79,-114.17 234.18,-103 200.67,-84.84 169.09,-52.9 151.82,-33.7"/>
<polygon fill="#63b8ff" stroke="#63b8ff" points="351.86,-142.39 362.4,-141.28 353.47,-135.57 351.86,-142.39"/>
</a>
</g>
</g>
<!-- Node8&#45;&gt;Node5 -->
<g id="edge11_Node000008_Node000005" class="edge">
<title>Node8&#45;&gt;Node5</title>
<g id="a_edge11_Node000008_Node000005"><a xlink:title=" ">
<path fill="none" stroke="#63b8ff" d="M352.98,-138.7C305.84,-127.22 251.11,-112.22 244.18,-103 228.43,-82.06 246,-52.16 260.11,-33.9"/>
<polygon fill="#63b8ff" stroke="#63b8ff" points="352.13,-142.1 362.67,-141.04 353.77,-135.29 352.13,-142.1"/>
</a>
</g>
</g>
<!-- Node9 -->
<g id="Node000009" class="node">
<title>Node9</title>
<g id="a_Node000009"><a xlink:href="motor__convert_8c.html" target="_top" xlink:title=" ">
<polygon fill="white" stroke="#666666" points="371.18,-103 253.18,-103 253.18,-69.5 371.18,-69.5 371.18,-103"/>
<text xml:space="preserve" text-anchor="start" x="261.18" y="-89.5" font-family="Helvetica,sans-Serif" font-size="10.00">source/motion/motor</text>
<text xml:space="preserve" text-anchor="middle" x="312.18" y="-76.75" font-family="Helvetica,sans-Serif" font-size="10.00">/motor_convert.c</text>
</a>
</g>
</g>
<!-- Node8&#45;&gt;Node9 -->
<g id="edge9_Node000008_Node000009" class="edge">
<title>Node8&#45;&gt;Node9</title>
<g id="a_edge9_Node000008_Node000009"><a xlink:title=" ">
<path fill="none" stroke="#63b8ff" d="M387.11,-132.82C371.29,-123.2 353.07,-112.11 338.55,-103.29"/>
<polygon fill="#63b8ff" stroke="#63b8ff" points="384.94,-135.59 395.3,-137.8 388.57,-129.61 384.94,-135.59"/>
</a>
</g>
</g>
<!-- Node10&#45;&gt;Node3 -->
<g id="edge13_Node000010_Node000003" class="edge">
<title>Node10&#45;&gt;Node3</title>
<g id="a_edge13_Node000010_Node000003"><a xlink:title=" ">
<path fill="none" stroke="#63b8ff" d="M1144.39,-59.81C1149.98,-51.02 1156.09,-41.43 1161.06,-33.63"/>
<polygon fill="#63b8ff" stroke="#63b8ff" points="1141.6,-57.66 1139.18,-67.98 1147.51,-61.42 1141.6,-57.66"/>
</a>
</g>
</g>
<!-- Node11 -->
<g id="Node000011" class="node">
<title>Node11</title>
<g id="a_Node000011"><a xlink:href="motor__process_8c.html" target="_top" xlink:title=" ">
<polygon fill="white" stroke="#666666" points="779.18,-33.5 661.18,-33.5 661.18,0 779.18,0 779.18,-33.5"/>
<text xml:space="preserve" text-anchor="start" x="669.18" y="-20" font-family="Helvetica,sans-Serif" font-size="10.00">source/motion/motor</text>
<text xml:space="preserve" text-anchor="middle" x="720.18" y="-7.25" font-family="Helvetica,sans-Serif" font-size="10.00">/motor_process.c</text>
</a>
</g>
</g>
<!-- Node10&#45;&gt;Node11 -->
<g id="edge14_Node000010_Node000011" class="edge">
<title>Node10&#45;&gt;Node11</title>
<g id="a_edge14_Node000010_Node000011"><a xlink:title=" ">
<path fill="none" stroke="#63b8ff" d="M1057.75,-69.16C941.31,-48.39 908.76,-53.11 795.18,-33.5 790.07,-32.62 784.77,-31.64 779.47,-30.61"/>
<polygon fill="#63b8ff" stroke="#63b8ff" points="1056.96,-72.57 1067.42,-70.91 1058.2,-65.68 1056.96,-72.57"/>
</a>
</g>
</g>
<!-- Node12&#45;&gt;Node9 -->
<g id="edge16_Node000012_Node000009" class="edge">
<title>Node12&#45;&gt;Node9</title>
<g id="a_edge16_Node000012_Node000009"><a xlink:title=" ">
<path fill="none" stroke="#63b8ff" d="M501.88,-136.5C461,-125.89 410.05,-112.66 371.25,-102.59"/>
<polygon fill="#63b8ff" stroke="#63b8ff" points="500.83,-139.84 511.39,-138.97 502.59,-133.07 500.83,-139.84"/>
</a>
</g>
</g>
<!-- Node12&#45;&gt;Node10 -->
<g id="edge20_Node000012_Node000010" class="edge">
<title>Node12&#45;&gt;Node10</title>
<g id="a_edge20_Node000012_Node000010"><a xlink:title=" ">
<path fill="none" stroke="#63b8ff" d="M642.64,-139.39C643.49,-139.26 644.34,-139.13 645.18,-139 828.25,-111.42 877.32,-131.96 1060.18,-103 1063.05,-102.55 1065.98,-102.04 1068.94,-101.49"/>
<polygon fill="#63b8ff" stroke="#63b8ff" points="642.18,-135.92 632.92,-141.06 643.37,-142.82 642.18,-135.92"/>
</a>
</g>
</g>
<!-- Node13 -->
<g id="Node000013" class="node">
<title>Node13</title>
<g id="a_Node000013"><a xlink:href="motor__core_8h.html" target="_top" xlink:title=" ">
<polygon fill="white" stroke="#666666" points="1051.18,-103 933.18,-103 933.18,-69.5 1051.18,-69.5 1051.18,-103"/>
<text xml:space="preserve" text-anchor="start" x="941.18" y="-89.5" font-family="Helvetica,sans-Serif" font-size="10.00">source/motion/motor</text>
<text xml:space="preserve" text-anchor="middle" x="992.18" y="-76.75" font-family="Helvetica,sans-Serif" font-size="10.00">/motor_core.h</text>
</a>
</g>
</g>
<!-- Node12&#45;&gt;Node13 -->
<g id="edge17_Node000012_Node000013" class="edge">
<title>Node12&#45;&gt;Node13</title>
<g id="a_edge17_Node000012_Node000013"><a xlink:title=" ">
<path fill="none" stroke="#63b8ff" d="M642.65,-139.44C643.5,-139.29 644.34,-139.14 645.18,-139 768.4,-117.8 801.13,-125.13 924.18,-103 927.04,-102.49 929.97,-101.93 932.91,-101.34"/>
<polygon fill="#63b8ff" stroke="#63b8ff" points="642.14,-135.98 632.95,-141.25 643.42,-142.86 642.14,-135.98"/>
</a>
</g>
</g>
<!-- Node16 -->
<g id="Node000016" class="node">
<title>Node16</title>
<g id="a_Node000016"><a xlink:href="motor__motion_8h.html" target="_top" xlink:title=" ">
<polygon fill="white" stroke="#666666" points="507.18,-103 389.18,-103 389.18,-69.5 507.18,-69.5 507.18,-103"/>
<text xml:space="preserve" text-anchor="start" x="397.18" y="-89.5" font-family="Helvetica,sans-Serif" font-size="10.00">source/motion/motor</text>
<text xml:space="preserve" text-anchor="middle" x="448.18" y="-76.75" font-family="Helvetica,sans-Serif" font-size="10.00">/motor_motion.h</text>
</a>
</g>
</g>
<!-- Node12&#45;&gt;Node16 -->
<g id="edge21_Node000012_Node000016" class="edge">
<title>Node12&#45;&gt;Node16</title>
<g id="a_edge21_Node000012_Node000016"><a xlink:title=" ">
<path fill="none" stroke="#63b8ff" d="M532.38,-133.09C514.6,-123.41 494.01,-112.2 477.64,-103.29"/>
<polygon fill="#63b8ff" stroke="#63b8ff" points="530.69,-136.15 541.15,-137.86 534.04,-130 530.69,-136.15"/>
</a>
</g>
</g>
<!-- Node18 -->
<g id="Node000018" class="node">
<title>Node18</title>
<g id="a_Node000018"><a xlink:href="motor__process_8h.html" target="_top" xlink:title=" ">
<polygon fill="white" stroke="#666666" points="915.18,-103 797.18,-103 797.18,-69.5 915.18,-69.5 915.18,-103"/>
<text xml:space="preserve" text-anchor="start" x="805.18" y="-89.5" font-family="Helvetica,sans-Serif" font-size="10.00">source/motion/motor</text>
<text xml:space="preserve" text-anchor="middle" x="856.18" y="-76.75" font-family="Helvetica,sans-Serif" font-size="10.00">/motor_process.h</text>
</a>
</g>
</g>
<!-- Node12&#45;&gt;Node18 -->
<g id="edge25_Node000012_Node000018" class="edge">
<title>Node12&#45;&gt;Node18</title>
<g id="a_edge25_Node000012_Node000018"><a xlink:title=" ">
<path fill="none" stroke="#63b8ff" d="M642.5,-138.04C690.03,-126.74 752.09,-111.99 797.07,-101.3"/>
<polygon fill="#63b8ff" stroke="#63b8ff" points="641.76,-134.61 632.84,-140.33 643.38,-141.42 641.76,-134.61"/>
</a>
</g>
</g>
<!-- Node19 -->
<g id="Node000019" class="node">
<title>Node19</title>
<g id="a_Node000019"><a xlink:href="motor__sync_8h.html" target="_top" xlink:title=" ">
<polygon fill="white" stroke="#666666" points="643.18,-103 525.18,-103 525.18,-69.5 643.18,-69.5 643.18,-103"/>
<text xml:space="preserve" text-anchor="start" x="533.18" y="-89.5" font-family="Helvetica,sans-Serif" font-size="10.00">source/motion/motor</text>
<text xml:space="preserve" text-anchor="middle" x="584.18" y="-76.75" font-family="Helvetica,sans-Serif" font-size="10.00">/motor_sync.h</text>
</a>
</g>
</g>
<!-- Node12&#45;&gt;Node19 -->
<g id="edge28_Node000012_Node000019" class="edge">
<title>Node12&#45;&gt;Node19</title>
<g id="a_edge28_Node000012_Node000019"><a xlink:title=" ">
<path fill="none" stroke="#63b8ff" d="M577.01,-127.6C578.48,-119.29 580.06,-110.43 581.36,-103.13"/>
<polygon fill="#63b8ff" stroke="#63b8ff" points="573.59,-126.8 575.29,-137.26 580.48,-128.03 573.59,-126.8"/>
</a>
</g>
</g>
<!-- Node20 -->
<g id="Node000020" class="node">
<title>Node20</title>
<g id="a_Node000020"><a xlink:href="motor__tmc_8h.html" target="_top" xlink:title=" ">
<polygon fill="white" stroke="#666666" points="779.18,-103 661.18,-103 661.18,-69.5 779.18,-69.5 779.18,-103"/>
<text xml:space="preserve" text-anchor="start" x="669.18" y="-89.5" font-family="Helvetica,sans-Serif" font-size="10.00">source/motion/motor</text>
<text xml:space="preserve" text-anchor="middle" x="720.18" y="-76.75" font-family="Helvetica,sans-Serif" font-size="10.00">/motor_tmc.h</text>
</a>
</g>
</g>
<!-- Node12&#45;&gt;Node20 -->
<g id="edge31_Node000012_Node000020" class="edge">
<title>Node12&#45;&gt;Node20</title>
<g id="a_edge31_Node000012_Node000020"><a xlink:title=" ">
<path fill="none" stroke="#63b8ff" d="M617.86,-133.92C639.4,-124.09 664.71,-112.55 684.76,-103.4"/>
<polygon fill="#63b8ff" stroke="#63b8ff" points="616.65,-130.62 609.01,-137.95 619.56,-136.99 616.65,-130.62"/>
</a>
</g>
</g>
<!-- Node14 -->
<g id="Node000014" class="node">
<title>Node14</title>
<g id="a_Node000014"><a xlink:href="motor__core_8c.html" target="_top" xlink:title=" ">
<polygon fill="white" stroke="#666666" points="922.18,-33.5 804.18,-33.5 804.18,0 922.18,0 922.18,-33.5"/>
<text xml:space="preserve" text-anchor="start" x="812.18" y="-20" font-family="Helvetica,sans-Serif" font-size="10.00">source/motion/motor</text>
<text xml:space="preserve" text-anchor="middle" x="863.18" y="-7.25" font-family="Helvetica,sans-Serif" font-size="10.00">/motor_core.c</text>
</a>
</g>
</g>
<!-- Node13&#45;&gt;Node14 -->
<g id="edge18_Node000013_Node000014" class="edge">
<title>Node13&#45;&gt;Node14</title>
<g id="a_edge18_Node000013_Node000014"><a xlink:title=" ">
<path fill="none" stroke="#63b8ff" d="M951.3,-63.86C932.68,-54.12 911.01,-42.78 893.83,-33.79"/>
<polygon fill="#63b8ff" stroke="#63b8ff" points="949.46,-66.85 959.94,-68.38 952.7,-60.64 949.46,-66.85"/>
</a>
</g>
</g>
<!-- Node15 -->
<g id="Node000015" class="node">
<title>Node15</title>
<g id="a_Node000015"><a xlink:href="motor_8c.html" target="_top" xlink:title=" ">
<polygon fill="white" stroke="#666666" points="1036.18,-27.12 948.18,-27.12 948.18,-6.38 1036.18,-6.38 1036.18,-27.12"/>
<text xml:space="preserve" text-anchor="middle" x="992.18" y="-13.62" font-family="Helvetica,sans-Serif" font-size="10.00">source/motor.c</text>
</a>
</g>
</g>
<!-- Node13&#45;&gt;Node15 -->
<g id="edge19_Node000013_Node000015" class="edge">
<title>Node13&#45;&gt;Node15</title>
<g id="a_edge19_Node000013_Node000015"><a xlink:title=" ">
<path fill="none" stroke="#63b8ff" d="M992.18,-57.78C992.18,-47.08 992.18,-35.51 992.18,-27.57"/>
<polygon fill="#63b8ff" stroke="#63b8ff" points="988.68,-57.74 992.18,-67.74 995.68,-57.74 988.68,-57.74"/>
</a>
</g>
</g>
<!-- Node16&#45;&gt;Node4 -->
<g id="edge22_Node000016_Node000004" class="edge">
<title>Node16&#45;&gt;Node4</title>
<g id="a_edge22_Node000016_Node000004"><a xlink:title=" ">
<path fill="none" stroke="#63b8ff" d="M377.68,-68.98C301.15,-52.36 279.85,-49.65 206.18,-33.5 203.34,-32.88 200.43,-32.23 197.5,-31.58"/>
<polygon fill="#63b8ff" stroke="#63b8ff" points="376.86,-72.39 387.38,-71.1 378.36,-65.55 376.86,-72.39"/>
</a>
</g>
</g>
<!-- Node16&#45;&gt;Node11 -->
<g id="edge23_Node000016_Node000011" class="edge">
<title>Node16&#45;&gt;Node11</title>
<g id="a_edge23_Node000016_Node000011"><a xlink:title=" ">
<path fill="none" stroke="#63b8ff" d="M518.49,-67.8C562.68,-56.84 619.05,-42.85 660.95,-32.45"/>
<polygon fill="#63b8ff" stroke="#63b8ff" points="517.87,-64.35 509,-70.16 519.55,-71.14 517.87,-64.35"/>
</a>
</g>
</g>
<!-- Node17 -->
<g id="Node000017" class="node">
<title>Node17</title>
<g id="a_Node000017"><a xlink:href="motor__tmc_8c.html" target="_top" xlink:title=" ">
<polygon fill="white" stroke="#666666" points="575.18,-33.5 457.18,-33.5 457.18,0 575.18,0 575.18,-33.5"/>
<text xml:space="preserve" text-anchor="start" x="465.18" y="-20" font-family="Helvetica,sans-Serif" font-size="10.00">source/motion/motor</text>
<text xml:space="preserve" text-anchor="middle" x="516.18" y="-7.25" font-family="Helvetica,sans-Serif" font-size="10.00">/motor_tmc.c</text>
</a>
</g>
</g>
<!-- Node16&#45;&gt;Node17 -->
<g id="edge24_Node000016_Node000017" class="edge">
<title>Node16&#45;&gt;Node17</title>
<g id="a_edge24_Node000016_Node000017"><a xlink:title=" ">
<path fill="none" stroke="#63b8ff" d="M472.39,-61.22C481.62,-52.06 491.9,-41.85 500.18,-33.63"/>
<polygon fill="#63b8ff" stroke="#63b8ff" points="470,-58.66 465.37,-68.19 474.93,-63.63 470,-58.66"/>
</a>
</g>
</g>
<!-- Node18&#45;&gt;Node11 -->
<g id="edge27_Node000018_Node000011" class="edge">
<title>Node18&#45;&gt;Node11</title>
<g id="a_edge27_Node000018_Node000011"><a xlink:title=" ">
<path fill="none" stroke="#63b8ff" d="M813.35,-63.99C793.66,-54.22 770.69,-42.82 752.49,-33.79"/>
<polygon fill="#63b8ff" stroke="#63b8ff" points="811.73,-67.1 822.25,-68.41 814.85,-60.83 811.73,-67.1"/>
</a>
</g>
</g>
<!-- Node18&#45;&gt;Node14 -->
<g id="edge26_Node000018_Node000014" class="edge">
<title>Node18&#45;&gt;Node14</title>
<g id="a_edge26_Node000018_Node000014"><a xlink:title=" ">
<path fill="none" stroke="#63b8ff" d="M859.02,-57.81C859.88,-49.59 860.78,-40.84 861.53,-33.63"/>
<polygon fill="#63b8ff" stroke="#63b8ff" points="855.54,-57.44 857.99,-67.75 862.51,-58.16 855.54,-57.44"/>
</a>
</g>
</g>
<!-- Node19&#45;&gt;Node5 -->
<g id="edge30_Node000019_Node000005" class="edge">
<title>Node19&#45;&gt;Node5</title>
<g id="a_edge30_Node000019_Node000005"><a xlink:title=" ">
<path fill="none" stroke="#63b8ff" d="M513.63,-68.95C446.43,-54.04 379.86,-39.89 333.42,-30.13"/>
<polygon fill="#63b8ff" stroke="#63b8ff" points="512.86,-72.36 523.38,-71.12 514.38,-65.53 512.86,-72.36"/>
</a>
</g>
</g>
<!-- Node19&#45;&gt;Node11 -->
<g id="edge29_Node000019_Node000011" class="edge">
<title>Node19&#45;&gt;Node11</title>
<g id="a_edge29_Node000019_Node000011"><a xlink:title=" ">
<path fill="none" stroke="#63b8ff" d="M627.01,-63.99C646.7,-54.22 669.66,-42.82 687.87,-33.79"/>
<polygon fill="#63b8ff" stroke="#63b8ff" points="625.51,-60.83 618.11,-68.41 628.62,-67.1 625.51,-60.83"/>
</a>
</g>
</g>
<!-- Node20&#45;&gt;Node11 -->
<g id="edge32_Node000020_Node000011" class="edge">
<title>Node20&#45;&gt;Node11</title>
<g id="a_edge32_Node000020_Node000011"><a xlink:title=" ">
<path fill="none" stroke="#63b8ff" d="M720.18,-57.81C720.18,-49.59 720.18,-40.84 720.18,-33.63"/>
<polygon fill="#63b8ff" stroke="#63b8ff" points="716.68,-57.74 720.18,-67.74 723.68,-57.74 716.68,-57.74"/>
</a>
</g>
</g>
<!-- Node20&#45;&gt;Node17 -->
<g id="edge33_Node000020_Node000017" class="edge">
<title>Node20&#45;&gt;Node17</title>
<g id="a_edge33_Node000020_Node000017"><a xlink:title=" ">
<path fill="none" stroke="#63b8ff" d="M660.43,-65.48C630.07,-55.44 593.65,-43.38 565,-33.9"/>
<polygon fill="#63b8ff" stroke="#63b8ff" points="659.29,-68.79 669.88,-68.61 661.49,-62.14 659.29,-68.79"/>
</a>
</g>
</g>
<!-- Node22&#45;&gt;Node23 -->
<g id="edge36_Node000022_Node000023" class="edge">
<title>Node22&#45;&gt;Node23</title>
<g id="a_edge36_Node000022_Node000023"><a xlink:title=" ">
<path fill="none" stroke="#63b8ff" d="M212.75,-140.08C185.73,-127.05 147,-108.38 123.56,-97.08"/>
<polygon fill="#63b8ff" stroke="#63b8ff" points="210.93,-143.09 221.46,-144.28 213.97,-136.78 210.93,-143.09"/>
</a>
</g>
</g>
</g>
</svg>

<g id="navigator" transform="translate(0 0)" fill="#404254">
  <rect fill="#f2f5e9" fill-opacity="0.5" stroke="#606060" stroke-width=".5" x="0" y="0" width="60" height="60"/>
  <use id="zoomplus" xlink:href="#zoomPlus" x="17" y="9" onmousedown="handleZoom(evt,'in')"/>
  <use id="zoomminus" xlink:href="#zoomMin" x="42" y="9" onmousedown="handleZoom(evt,'out')"/>
  <use id="reset" xlink:href="#resetDef" x="30" y="36" onmousedown="handleReset()"/>
   <use id="arrowup" xlink:href="#arrowUp" x="0" y="0" onmousedown="handlePan(0,-1)"/>
  <use id="arrowright" xlink:href="#arrowRight" x="0" y="0" onmousedown="handlePan(1,0)"/>
  <use id="arrowdown" xlink:href="#arrowDown" x="0" y="0" onmousedown="handlePan(0,1)"/>
  <use id="arrowleft" xlink:href="#arrowLeft" x="0" y="0" onmousedown="handlePan(-1,0)"/>
</g>
<svg viewBox="0 0 15 15" width="100%" height="30px" preserveAspectRatio="xMaxYMin meet">
 <g id="arrow_out" transform="scale(0.3 0.3)">
  <a xlink:href="step__core_8h__dep__incl_org.svg" target="_base">
   <rect id="button" ry="5" rx="5" y="6" x="6" height="38" width="38"
        fill="#f2f5e9" fill-opacity="0.5" stroke="#606060" stroke-width="1.0"/>
   <path id="arrow"
     d="M 11.500037,31.436501 C 11.940474,20.09759 22.043105,11.32322 32.158766,21.979434 L 37.068811,17.246167 C 37.068811,17.246167 37.088388,32 37.088388,32 L 22.160133,31.978069 C 22.160133,31.978069 26.997745,27.140456 26.997745,27.140456 C 18.528582,18.264221 13.291696,25.230495 11.500037,31.436501 z"
     style="fill:#404040;"/>
  </a>
 </g>
</svg>

<style type='text/css'>
<![CDATA[
[data-mouse-over-selected='false'] { opacity: 0.7; }
[data-mouse-over-selected='true']  { opacity: 1.0; }
]]>
</style>
<script type="application/ecmascript"><![CDATA[
document.addEventListener('DOMContentLoaded', (event) => {
  highlightEdges();
  highlightAdjacentNodes();
});
]]></script>
</svg>
