<?xml version="1.0" encoding="UTF-8" standalone="no"?>
<!DOCTYPE svg PUBLIC "-//W3C//DTD SVG 1.1//EN"
 "http://www.w3.org/Graphics/SVG/1.1/DTD/svg11.dtd">
<!-- Generated by graphviz version 14.1.5 (0)
 -->
<!-- Title: source/motion/stepper/step_core.h Pages: 1 -->
<svg width="2301pt" height="427pt"
 viewBox="0.00 0.00 2301.00 427.00" xmlns="http://www.w3.org/2000/svg" xmlns:xlink="http://www.w3.org/1999/xlink">
<g id="graph0" class="graph" transform="scale(1 1) rotate(0) translate(4 423.25)">
<title>source/motion/stepper/step_core.h</title>
<!-- Node1 -->
<g id="Node000001" class="node">
<title>Node1</title>
<g id="a_Node000001"><a xlink:title=" ">
<polygon fill="#999999" stroke="#666666" points="1189.75,-419.25 1064.25,-419.25 1064.25,-385.75 1189.75,-385.75 1189.75,-419.25"/>
<text xml:space="preserve" text-anchor="start" x="1072.25" y="-405.75" font-family="Helvetica,sans-Serif" font-size="10.00">source/motion/stepper</text>
<text xml:space="preserve" text-anchor="middle" x="1127" y="-393" font-family="Helvetica,sans-Serif" font-size="10.00">/step_core.h</text>
</a>
</g>
</g>
<!-- Node2 -->
<g id="Node000002" class="node">
<title>Node2</title>
<g id="a_Node000002"><a xlink:href="application_8c.html" target="_top" xlink:title=" ">
<polygon fill="white" stroke="#666666" points="2110.75,-198 1997.25,-198 1997.25,-177.25 2110.75,-177.25 2110.75,-198"/>
<text xml:space="preserve" text-anchor="middle" x="2054" y="-184.5" font-family="Helvetica,sans-Serif" font-size="10.00">source/application.c</text>
</a>
</g>
</g>
<!-- Node1&#45;&gt;Node2 -->
<g id="edge1_Node000001_Node000002" class="edge">
<title>Node1&#45;&gt;Node2</title>
<g id="a_edge1_Node000001_Node000002"><a xlink:title=" ">
<path fill="none" stroke="#63b8ff" d="M1201.35,-394.56C1332.17,-381.1 1611.12,-346.73 1838,-280.25 1913.64,-258.09 1998.34,-217.08 2035.19,-198.38"/>
<polygon fill="#63b8ff" stroke="#63b8ff" points="1201.02,-391.08 1191.42,-395.57 1201.73,-398.04 1201.02,-391.08"/>
</a>
</g>
</g>
<!-- Node3 -->
<g id="Node000003" class="node">
<title>Node3</title>
<g id="a_Node000003"><a xlink:href="motor__homing_8c.html" target="_top" xlink:title=" ">
<polygon fill="white" stroke="#666666" points="1125.75,-122.12 1000.25,-122.12 1000.25,-88.62 1125.75,-88.62 1125.75,-122.12"/>
<text xml:space="preserve" text-anchor="start" x="1008.25" y="-108.62" font-family="Helvetica,sans-Serif" font-size="10.00">source/motion/homing</text>
<text xml:space="preserve" text-anchor="middle" x="1063" y="-95.88" font-family="Helvetica,sans-Serif" font-size="10.00">/motor_homing.c</text>
</a>
</g>
</g>
<!-- Node1&#45;&gt;Node3 -->
<g id="edge2_Node000001_Node000003" class="edge">
<title>Node1&#45;&gt;Node3</title>
<g id="a_edge2_Node000001_Node000003"><a xlink:title=" ">
<path fill="none" stroke="#63b8ff" d="M1114.16,-375.61C1097.11,-339.66 1067.91,-272.13 1057,-210.75 1051.51,-179.83 1056.18,-143.04 1059.78,-122.43"/>
<polygon fill="#63b8ff" stroke="#63b8ff" points="1110.87,-376.85 1118.36,-384.34 1117.18,-373.81 1110.87,-376.85"/>
</a>
</g>
</g>
<!-- Node4 -->
<g id="Node000004" class="node">
<title>Node4</title>
<g id="a_Node000004"><a xlink:href="motor__core_8h.html" target="_top" xlink:title=" ">
<polygon fill="white" stroke="#666666" points="1296,-349.75 1178,-349.75 1178,-316.25 1296,-316.25 1296,-349.75"/>
<text xml:space="preserve" text-anchor="start" x="1186" y="-336.25" font-family="Helvetica,sans-Serif" font-size="10.00">source/motion/motor</text>
<text xml:space="preserve" text-anchor="middle" x="1237" y="-323.5" font-family="Helvetica,sans-Serif" font-size="10.00">/motor_core.h</text>
</a>
</g>
</g>
<!-- Node1&#45;&gt;Node4 -->
<g id="edge3_Node000001_Node000004" class="edge">
<title>Node1&#45;&gt;Node4</title>
<g id="a_edge3_Node000001_Node000004"><a xlink:title=" ">
<path fill="none" stroke="#63b8ff" d="M1162.74,-379.57C1178.42,-369.95 1196.48,-358.86 1210.87,-350.04"/>
<polygon fill="#63b8ff" stroke="#63b8ff" points="1161.33,-376.33 1154.64,-384.54 1164.99,-382.29 1161.33,-376.33"/>
</a>
</g>
</g>
<!-- Node8 -->
<g id="Node000008" class="node">
<title>Node8</title>
<g id="a_Node000008"><a xlink:href="motor__motion_8c.html" target="_top" xlink:title=" ">
<polygon fill="white" stroke="#666666" points="710,-122.12 592,-122.12 592,-88.62 710,-88.62 710,-122.12"/>
<text xml:space="preserve" text-anchor="start" x="600" y="-108.62" font-family="Helvetica,sans-Serif" font-size="10.00">source/motion/motor</text>
<text xml:space="preserve" text-anchor="middle" x="651" y="-95.88" font-family="Helvetica,sans-Serif" font-size="10.00">/motor_motion.c</text>
</a>
</g>
</g>
<!-- Node1&#45;&gt;Node8 -->
<g id="edge61_Node000001_Node000008" class="edge">
<title>Node1&#45;&gt;Node8</title>
<g id="a_edge61_Node000001_Node000008"><a xlink:title=" ">
<path fill="none" stroke="#63b8ff" d="M1061.47,-381.67C1037.64,-373.28 1010.94,-362.49 988,-349.75 870.2,-284.34 859.32,-240.43 748,-164.5 725.78,-149.34 699.56,-133.76 679.99,-122.55"/>
<polygon fill="#63b8ff" stroke="#63b8ff" points="1060.17,-384.92 1070.76,-384.85 1062.44,-378.3 1060.17,-384.92"/>
</a>
</g>
</g>
<!-- Node9 -->
<g id="Node000009" class="node">
<title>Node9</title>
<g id="a_Node000009"><a xlink:href="motor__sync_8c.html" target="_top" xlink:title=" ">
<polygon fill="white" stroke="#666666" points="846,-122.12 728,-122.12 728,-88.62 846,-88.62 846,-122.12"/>
<text xml:space="preserve" text-anchor="start" x="736" y="-108.62" font-family="Helvetica,sans-Serif" font-size="10.00">source/motion/motor</text>
<text xml:space="preserve" text-anchor="middle" x="787" y="-95.88" font-family="Helvetica,sans-Serif" font-size="10.00">/motor_sync.c</text>
</a>
</g>
</g>
<!-- Node1&#45;&gt;Node9 -->
<g id="edge62_Node000001_Node000009" class="edge">
<title>Node1&#45;&gt;Node9</title>
<g id="a_edge62_Node000001_Node000009"><a xlink:title=" ">
<path fill="none" stroke="#63b8ff" d="M1088.93,-379.57C1034.67,-347.16 933.71,-282.51 862,-210.75 834.24,-182.97 809.2,-144.05 796.26,-122.44"/>
<polygon fill="#63b8ff" stroke="#63b8ff" points="1087.13,-382.57 1097.52,-384.66 1090.7,-376.55 1087.13,-382.57"/>
</a>
</g>
</g>
<!-- Node10 -->
<g id="Node000010" class="node">
<title>Node10</title>
<g id="a_Node000010"><a xlink:href="motorCmd_8c.html" target="_top" xlink:title=" ">
<polygon fill="white" stroke="#666666" points="1682.62,-115.75 1571.38,-115.75 1571.38,-95 1682.62,-95 1682.62,-115.75"/>
<text xml:space="preserve" text-anchor="middle" x="1627" y="-102.25" font-family="Helvetica,sans-Serif" font-size="10.00">source/motorCmd.c</text>
</a>
</g>
</g>
<!-- Node1&#45;&gt;Node10 -->
<g id="edge64_Node000001_Node000010" class="edge">
<title>Node1&#45;&gt;Node10</title>
<g id="a_edge64_Node000001_Node000010"><a xlink:title=" ">
<path fill="none" stroke="#63b8ff" d="M1201.42,-399.61C1413.18,-392.43 2010.82,-359.14 2120,-210.75 2199.23,-103.07 2130.72,-189.81 1730,-128.5 1709.21,-125.32 1686.31,-120.53 1667.4,-116.22"/>
<polygon fill="#63b8ff" stroke="#63b8ff" points="1201.52,-396.1 1191.64,-399.93 1201.75,-403.1 1201.52,-396.1"/>
</a>
</g>
</g>
<!-- Node13 -->
<g id="Node000013" class="node">
<title>Node13</title>
<g id="a_Node000013"><a xlink:href="motor__init_8c.html" target="_top" xlink:title=" ">
<polygon fill="white" stroke="#666666" points="118,-122.12 0,-122.12 0,-88.62 118,-88.62 118,-122.12"/>
<text xml:space="preserve" text-anchor="start" x="8" y="-108.62" font-family="Helvetica,sans-Serif" font-size="10.00">source/motion/motor</text>
<text xml:space="preserve" text-anchor="middle" x="59" y="-95.88" font-family="Helvetica,sans-Serif" font-size="10.00">/motor_init.c</text>
</a>
</g>
</g>
<!-- Node1&#45;&gt;Node13 -->
<g id="edge60_Node000001_Node000013" class="edge">
<title>Node1&#45;&gt;Node13</title>
<g id="a_edge60_Node000001_Node000013"><a xlink:title=" ">
<path fill="none" stroke="#63b8ff" d="M1052.48,-396.89C854.38,-383.89 318.59,-343.71 154,-280.25 103.84,-260.91 79.79,-258.45 55,-210.75 40.28,-182.43 47.69,-143.72 53.76,-122.29"/>
<polygon fill="#63b8ff" stroke="#63b8ff" points="1052.2,-400.38 1062.4,-397.53 1052.65,-393.39 1052.2,-400.38"/>
</a>
</g>
</g>
<!-- Node30 -->
<g id="Node000030" class="node">
<title>Node30</title>
<g id="a_Node000030"><a xlink:href="step__core_8c.html" target="_top" xlink:title=" ">
<polygon fill="white" stroke="#666666" points="2292.75,-349.75 2167.25,-349.75 2167.25,-316.25 2292.75,-316.25 2292.75,-349.75"/>
<text xml:space="preserve" text-anchor="start" x="2175.25" y="-336.25" font-family="Helvetica,sans-Serif" font-size="10.00">source/motion/stepper</text>
<text xml:space="preserve" text-anchor="middle" x="2230" y="-323.5" font-family="Helvetica,sans-Serif" font-size="10.00">/step_core.c</text>
</a>
</g>
</g>
<!-- Node1&#45;&gt;Node30 -->
<g id="edge63_Node000001_Node000030" class="edge">
<title>Node1&#45;&gt;Node30</title>
<g id="a_edge63_Node000001_Node000030"><a xlink:title=" ">
<path fill="none" stroke="#63b8ff" d="M1201.31,-401.6C1370.79,-400.98 1798.64,-394.67 2153,-349.75 2157.6,-349.17 2162.34,-348.46 2167.1,-347.67"/>
<polygon fill="#63b8ff" stroke="#63b8ff" points="1201.55,-398.1 1191.56,-401.63 1201.57,-405.1 1201.55,-398.1"/>
</a>
</g>
</g>
<!-- Node4&#45;&gt;Node2 -->
<g id="edge4_Node000004_Node000002" class="edge">
<title>Node4&#45;&gt;Node2</title>
<g id="a_edge4_Node000004_Node000002"><a xlink:title=" ">
<path fill="none" stroke="#63b8ff" d="M1307.7,-329.68C1409.34,-325.31 1602.2,-313.11 1763,-280.25 1863.93,-259.63 1979.47,-217.45 2029.16,-198.38"/>
<polygon fill="#63b8ff" stroke="#63b8ff" points="1307.72,-326.18 1297.88,-330.09 1308.01,-333.17 1307.72,-326.18"/>
</a>
</g>
</g>
<!-- Node4&#45;&gt;Node3 -->
<g id="edge6_Node000004_Node000003" class="edge">
<title>Node4&#45;&gt;Node3</title>
<g id="a_edge6_Node000004_Node000003"><a xlink:title=" ">
<path fill="none" stroke="#63b8ff" d="M1190.55,-310.89C1152.35,-290.89 1100.38,-257.02 1074,-210.75 1058.12,-182.89 1058.87,-144 1060.9,-122.42"/>
<polygon fill="#63b8ff" stroke="#63b8ff" points="1188.58,-313.82 1199.08,-315.23 1191.75,-307.58 1188.58,-313.82"/>
</a>
</g>
</g>
<!-- Node5 -->
<g id="Node000005" class="node">
<title>Node5</title>
<g id="a_Node000005"><a xlink:href="grabber_8c.html" target="_top" xlink:title=" ">
<polygon fill="white" stroke="#666666" points="1308.12,-122.12 1181.88,-122.12 1181.88,-88.62 1308.12,-88.62 1308.12,-122.12"/>
<text xml:space="preserve" text-anchor="start" x="1189.88" y="-108.62" font-family="Helvetica,sans-Serif" font-size="10.00">source/motion/grabber</text>
<text xml:space="preserve" text-anchor="middle" x="1245" y="-95.88" font-family="Helvetica,sans-Serif" font-size="10.00">/grabber.c</text>
</a>
</g>
</g>
<!-- Node4&#45;&gt;Node5 -->
<g id="edge5_Node000004_Node000005" class="edge">
<title>Node4&#45;&gt;Node5</title>
<g id="a_edge5_Node000004_Node000005"><a xlink:title=" ">
<path fill="none" stroke="#63b8ff" d="M1237.97,-304.52C1239.66,-256.93 1243.08,-160.6 1244.43,-122.45"/>
<polygon fill="#63b8ff" stroke="#63b8ff" points="1234.49,-304.14 1237.63,-314.26 1241.48,-304.39 1234.49,-304.14"/>
</a>
</g>
</g>
<!-- Node6 -->
<g id="Node000006" class="node">
<title>Node6</title>
<g id="a_Node000006"><a xlink:href="motor__convert_8h.html" target="_top" xlink:title=" ">
<polygon fill="white" stroke="#666666" points="989,-204.38 871,-204.38 871,-170.88 989,-170.88 989,-204.38"/>
<text xml:space="preserve" text-anchor="start" x="879" y="-190.88" font-family="Helvetica,sans-Serif" font-size="10.00">source/motion/motor</text>
<text xml:space="preserve" text-anchor="middle" x="930" y="-178.12" font-family="Helvetica,sans-Serif" font-size="10.00">/motor_convert.h</text>
</a>
</g>
</g>
<!-- Node4&#45;&gt;Node6 -->
<g id="edge7_Node000004_Node000006" class="edge">
<title>Node4&#45;&gt;Node6</title>
<g id="a_edge7_Node000004_Node000006"><a xlink:title=" ">
<path fill="none" stroke="#63b8ff" d="M1166.72,-312.86C1138.85,-304.28 1106.86,-293.16 1079,-280.25 1031.75,-258.35 980.93,-224.67 952.54,-204.83"/>
<polygon fill="#63b8ff" stroke="#63b8ff" points="1165.55,-316.16 1176.14,-315.71 1167.58,-309.46 1165.55,-316.16"/>
</a>
</g>
</g>
<!-- Node4&#45;&gt;Node10 -->
<g id="edge53_Node000004_Node000010" class="edge">
<title>Node4&#45;&gt;Node10</title>
<g id="a_edge53_Node000004_Node000010"><a xlink:title=" ">
<path fill="none" stroke="#63b8ff" d="M1307.58,-329.62C1435.88,-324.56 1696.68,-310.63 1724,-280.25 1741.26,-261.06 1729.4,-196.51 1709,-164.5 1694.65,-141.98 1668.17,-125.62 1649.17,-116.1"/>
<polygon fill="#63b8ff" stroke="#63b8ff" points="1307.7,-326.11 1297.85,-330 1307.97,-333.11 1307.7,-326.11"/>
</a>
</g>
</g>
<!-- Node11 -->
<g id="Node000011" class="node">
<title>Node11</title>
<g id="a_Node000011"><a xlink:href="motor__core_8c.html" target="_top" xlink:title=" ">
<polygon fill="white" stroke="#666666" points="302,-122.12 184,-122.12 184,-88.62 302,-88.62 302,-122.12"/>
<text xml:space="preserve" text-anchor="start" x="192" y="-108.62" font-family="Helvetica,sans-Serif" font-size="10.00">source/motion/motor</text>
<text xml:space="preserve" text-anchor="middle" x="243" y="-95.88" font-family="Helvetica,sans-Serif" font-size="10.00">/motor_core.c</text>
</a>
</g>
</g>
<!-- Node4&#45;&gt;Node11 -->
<g id="edge13_Node000004_Node000011" class="edge">
<title>Node4&#45;&gt;Node11</title>
<g id="a_edge13_Node000004_Node000011"><a xlink:title=" ">
<path fill="none" stroke="#63b8ff" d="M1166.39,-330.43C923.83,-324.29 135.91,-297.73 68,-210.75 55.35,-194.55 55.97,-181.17 68,-164.5 81.91,-145.22 138.57,-128.75 183.7,-118.32"/>
<polygon fill="#63b8ff" stroke="#63b8ff" points="1166.26,-333.93 1176.35,-330.68 1166.44,-326.93 1166.26,-333.93"/>
</a>
</g>
</g>
<!-- Node12 -->
<g id="Node000012" class="node">
<title>Node12</title>
<g id="a_Node000012"><a xlink:href="motor__init_8h.html" target="_top" xlink:title=" ">
<polygon fill="white" stroke="#666666" points="195,-204.38 77,-204.38 77,-170.88 195,-170.88 195,-204.38"/>
<text xml:space="preserve" text-anchor="start" x="85" y="-190.88" font-family="Helvetica,sans-Serif" font-size="10.00">source/motion/motor</text>
<text xml:space="preserve" text-anchor="middle" x="136" y="-178.12" font-family="Helvetica,sans-Serif" font-size="10.00">/motor_init.h</text>
</a>
</g>
</g>
<!-- Node4&#45;&gt;Node12 -->
<g id="edge14_Node000004_Node000012" class="edge">
<title>Node4&#45;&gt;Node12</title>
<g id="a_edge14_Node000004_Node000012"><a xlink:title=" ">
<path fill="none" stroke="#63b8ff" d="M1166.53,-329.7C1040.92,-324.93 770.26,-311.69 544,-280.25 391.23,-259.02 353.13,-250.12 204,-210.75 197.28,-208.98 190.24,-206.92 183.35,-204.79"/>
<polygon fill="#63b8ff" stroke="#63b8ff" points="1166.23,-333.19 1176.35,-330.06 1166.49,-326.19 1166.23,-333.19"/>
</a>
</g>
</g>
<!-- Node15 -->
<g id="Node000015" class="node">
<title>Node15</title>
<g id="a_Node000015"><a xlink:href="motor__internal_8h.html" target="_top" xlink:title=" ">
<polygon fill="white" stroke="#666666" points="671,-280.25 553,-280.25 553,-246.75 671,-246.75 671,-280.25"/>
<text xml:space="preserve" text-anchor="start" x="561" y="-266.75" font-family="Helvetica,sans-Serif" font-size="10.00">source/motion/motor</text>
<text xml:space="preserve" text-anchor="middle" x="612" y="-254" font-family="Helvetica,sans-Serif" font-size="10.00">/motor_internal.h</text>
</a>
</g>
</g>
<!-- Node4&#45;&gt;Node15 -->
<g id="edge17_Node000004_Node000015" class="edge">
<title>Node4&#45;&gt;Node15</title>
<g id="a_edge17_Node000004_Node000015"><a xlink:title=" ">
<path fill="none" stroke="#63b8ff" d="M1166.4,-324.38C1042.28,-310.97 787.15,-283.42 671.42,-270.92"/>
<polygon fill="#63b8ff" stroke="#63b8ff" points="1165.82,-327.83 1176.13,-325.43 1166.57,-320.87 1165.82,-327.83"/>
</a>
</g>
</g>
<!-- Node17 -->
<g id="Node000017" class="node">
<title>Node17</title>
<g id="a_Node000017"><a xlink:href="scara__kinematics_8c.html" target="_top" xlink:title=" ">
<polygon fill="white" stroke="#666666" points="1629,-39.88 1457,-39.88 1457,-6.38 1629,-6.38 1629,-39.88"/>
<text xml:space="preserve" text-anchor="start" x="1465" y="-26.38" font-family="Helvetica,sans-Serif" font-size="10.00">source/motion/scara</text>
<text xml:space="preserve" text-anchor="middle" x="1543" y="-13.62" font-family="Helvetica,sans-Serif" font-size="10.00">_kinematics/scara_kinematics.c</text>
</a>
</g>
</g>
<!-- Node4&#45;&gt;Node17 -->
<g id="edge39_Node000004_Node000017" class="edge">
<title>Node4&#45;&gt;Node17</title>
<g id="a_edge39_Node000004_Node000017"><a xlink:title=" ">
<path fill="none" stroke="#63b8ff" d="M1307.13,-313.92C1329.33,-305.99 1353.02,-295.02 1372,-280.25 1459.97,-211.78 1518.08,-84.95 1536.61,-40.23"/>
<polygon fill="#63b8ff" stroke="#63b8ff" points="1306.14,-310.56 1297.8,-317.09 1308.4,-317.19 1306.14,-310.56"/>
</a>
</g>
</g>
<!-- Node18 -->
<g id="Node000018" class="node">
<title>Node18</title>
<g id="a_Node000018"><a xlink:href="motor__test_8c.html" target="_top" xlink:title=" ">
<polygon fill="white" stroke="#666666" points="1439.38,-115.75 1326.62,-115.75 1326.62,-95 1439.38,-95 1439.38,-115.75"/>
<text xml:space="preserve" text-anchor="middle" x="1383" y="-102.25" font-family="Helvetica,sans-Serif" font-size="10.00">source/motor_test.c</text>
</a>
</g>
</g>
<!-- Node4&#45;&gt;Node18 -->
<g id="edge59_Node000004_Node000018" class="edge">
<title>Node4&#45;&gt;Node18</title>
<g id="a_edge59_Node000004_Node000018"><a xlink:title=" ">
<path fill="none" stroke="#63b8ff" d="M1287.66,-310.97C1327.36,-291.45 1379.8,-258.22 1404,-210.75 1420.28,-178.8 1399.83,-135.33 1388.96,-116.15"/>
<polygon fill="#63b8ff" stroke="#63b8ff" points="1286.24,-307.77 1278.72,-315.23 1289.25,-314.09 1286.24,-307.77"/>
</a>
</g>
</g>
<!-- Node24 -->
<g id="Node000024" class="node">
<title>Node24</title>
<g id="a_Node000024"><a xlink:href="scara__kinematics_8h.html" target="_top" xlink:title=" ">
<polygon fill="white" stroke="#666666" points="1715.38,-280.25 1542.62,-280.25 1542.62,-246.75 1715.38,-246.75 1715.38,-280.25"/>
<text xml:space="preserve" text-anchor="start" x="1550.62" y="-266.75" font-family="Helvetica,sans-Serif" font-size="10.00">source/motion/scara</text>
<text xml:space="preserve" text-anchor="middle" x="1629" y="-254" font-family="Helvetica,sans-Serif" font-size="10.00">_kinematics/scara_kinematics.h</text>
</a>
</g>
</g>
<!-- Node4&#45;&gt;Node24 -->
<g id="edge40_Node000004_Node000024" class="edge">
<title>Node4&#45;&gt;Node24</title>
<g id="a_edge40_Node000004_Node000024"><a xlink:title=" ">
<path fill="none" stroke="#63b8ff" d="M1307.2,-319.91C1373.07,-308.57 1471.77,-291.57 1542.48,-279.4"/>
<polygon fill="#63b8ff" stroke="#63b8ff" points="1306.86,-316.42 1297.6,-321.56 1308.05,-323.32 1306.86,-316.42"/>
</a>
</g>
</g>
<!-- Node29 -->
<g id="Node000029" class="node">
<title>Node29</title>
<g id="a_Node000029"><a xlink:href="motor__configs_8h.html" target="_top" xlink:title=" ">
<polygon fill="white" stroke="#666666" points="1394.62,-198 1265.38,-198 1265.38,-177.25 1394.62,-177.25 1394.62,-198"/>
<text xml:space="preserve" text-anchor="middle" x="1330" y="-184.5" font-family="Helvetica,sans-Serif" font-size="10.00">source/motor_configs.h</text>
</a>
</g>
</g>
<!-- Node4&#45;&gt;Node29 -->
<g id="edge54_Node000004_Node000029" class="edge">
<title>Node4&#45;&gt;Node29</title>
<g id="a_edge54_Node000004_Node000029"><a xlink:title=" ">
<path fill="none" stroke="#63b8ff" d="M1253.5,-306.56C1274.46,-274.24 1309.63,-220.04 1323.8,-198.18"/>
<polygon fill="#63b8ff" stroke="#63b8ff" points="1250.82,-304.27 1248.31,-314.56 1256.69,-308.08 1250.82,-304.27"/>
</a>
</g>
</g>
<!-- Node6&#45;&gt;Node3 -->
<g id="edge8_Node000006_Node000003" class="edge">
<title>Node6&#45;&gt;Node3</title>
<g id="a_edge8_Node000006_Node000003"><a xlink:title=" ">
<path fill="none" stroke="#63b8ff" d="M966.59,-164.55C988.6,-151.27 1016.13,-134.66 1036.13,-122.59"/>
<polygon fill="#63b8ff" stroke="#63b8ff" points="964.96,-161.44 958.21,-169.6 968.58,-167.43 964.96,-161.44"/>
</a>
</g>
</g>
<!-- Node7 -->
<g id="Node000007" class="node">
<title>Node7</title>
<g id="a_Node000007"><a xlink:href="motor__convert_8c.html" target="_top" xlink:title=" ">
<polygon fill="white" stroke="#666666" points="982,-122.12 864,-122.12 864,-88.62 982,-88.62 982,-122.12"/>
<text xml:space="preserve" text-anchor="start" x="872" y="-108.62" font-family="Helvetica,sans-Serif" font-size="10.00">source/motion/motor</text>
<text xml:space="preserve" text-anchor="middle" x="923" y="-95.88" font-family="Helvetica,sans-Serif" font-size="10.00">/motor_convert.c</text>
</a>
</g>
</g>
<!-- Node6&#45;&gt;Node7 -->
<g id="edge9_Node000006_Node000007" class="edge">
<title>Node6&#45;&gt;Node7</title>
<g id="a_edge9_Node000006_Node000007"><a xlink:title=" ">
<path fill="none" stroke="#63b8ff" d="M927.59,-159C926.53,-146.86 925.32,-133.03 924.41,-122.59"/>
<polygon fill="#63b8ff" stroke="#63b8ff" points="924.1,-159.22 928.45,-168.88 931.07,-158.61 924.1,-159.22"/>
</a>
</g>
</g>
<!-- Node6&#45;&gt;Node8 -->
<g id="edge10_Node000006_Node000008" class="edge">
<title>Node6&#45;&gt;Node8</title>
<g id="a_edge10_Node000006_Node000008"><a xlink:title=" ">
<path fill="none" stroke="#63b8ff" d="M859.67,-168.11C818.53,-157.07 765.67,-142.51 719,-128.5 712.82,-126.64 706.34,-124.63 699.94,-122.6"/>
<polygon fill="#63b8ff" stroke="#63b8ff" points="858.65,-171.46 869.21,-170.67 860.46,-164.7 858.65,-171.46"/>
</a>
</g>
</g>
<!-- Node6&#45;&gt;Node9 -->
<g id="edge11_Node000006_Node000009" class="edge">
<title>Node6&#45;&gt;Node9</title>
<g id="a_edge11_Node000006_Node000009"><a xlink:title=" ">
<path fill="none" stroke="#63b8ff" d="M891.3,-164.9C867.53,-151.57 837.59,-134.77 815.9,-122.59"/>
<polygon fill="#63b8ff" stroke="#63b8ff" points="889.31,-167.8 899.74,-169.64 892.73,-161.7 889.31,-167.8"/>
</a>
</g>
</g>
<!-- Node6&#45;&gt;Node10 -->
<g id="edge12_Node000006_Node000010" class="edge">
<title>Node6&#45;&gt;Node10</title>
<g id="a_edge12_Node000006_Node000010"><a xlink:title=" ">
<path fill="none" stroke="#63b8ff" d="M1000.65,-174.96C1023.97,-171.32 1050.06,-167.49 1074,-164.5 1239.7,-143.81 1282.01,-146.74 1448,-128.5 1489.24,-123.97 1535.74,-118.2 1571.01,-113.69"/>
<polygon fill="#63b8ff" stroke="#63b8ff" points="1000.28,-171.47 990.94,-176.48 1001.36,-178.39 1000.28,-171.47"/>
</a>
</g>
</g>
<!-- Node12&#45;&gt;Node13 -->
<g id="edge15_Node000012_Node000013" class="edge">
<title>Node12&#45;&gt;Node13</title>
<g id="a_edge15_Node000012_Node000013"><a xlink:title=" ">
<path fill="none" stroke="#63b8ff" d="M112.72,-162.37C100.36,-149.49 85.51,-134.01 74.56,-122.59"/>
<polygon fill="#63b8ff" stroke="#63b8ff" points="109.92,-164.5 119.37,-169.29 114.97,-159.65 109.92,-164.5"/>
</a>
</g>
</g>
<!-- Node14 -->
<g id="Node000014" class="node">
<title>Node14</title>
<g id="a_Node000014"><a xlink:href="motor__process_8c.html" target="_top" xlink:title=" ">
<polygon fill="white" stroke="#666666" points="438,-122.12 320,-122.12 320,-88.62 438,-88.62 438,-122.12"/>
<text xml:space="preserve" text-anchor="start" x="328" y="-108.62" font-family="Helvetica,sans-Serif" font-size="10.00">source/motion/motor</text>
<text xml:space="preserve" text-anchor="middle" x="379" y="-95.88" font-family="Helvetica,sans-Serif" font-size="10.00">/motor_process.c</text>
</a>
</g>
</g>
<!-- Node12&#45;&gt;Node14 -->
<g id="edge16_Node000012_Node000014" class="edge">
<title>Node12&#45;&gt;Node14</title>
<g id="a_edge16_Node000012_Node000014"><a xlink:title=" ">
<path fill="none" stroke="#63b8ff" d="M195.9,-166.84C237.12,-153.23 291.22,-135.37 329.9,-122.59"/>
<polygon fill="#63b8ff" stroke="#63b8ff" points="195.01,-163.45 186.61,-169.91 197.21,-170.1 195.01,-163.45"/>
</a>
</g>
</g>
<!-- Node15&#45;&gt;Node7 -->
<g id="edge23_Node000015_Node000007" class="edge">
<title>Node15&#45;&gt;Node7</title>
<g id="a_edge23_Node000015_Node000007"><a xlink:title=" ">
<path fill="none" stroke="#63b8ff" d="M671.5,-242.41C695.64,-233.61 723.55,-222.58 748,-210.75 804.2,-183.55 866.09,-144.24 899.11,-122.45"/>
<polygon fill="#63b8ff" stroke="#63b8ff" points="670.35,-239.11 662.12,-245.78 672.71,-245.69 670.35,-239.11"/>
</a>
</g>
</g>
<!-- Node15&#45;&gt;Node12 -->
<g id="edge24_Node000015_Node000012" class="edge">
<title>Node15&#45;&gt;Node12</title>
<g id="a_edge24_Node000015_Node000012"><a xlink:title=" ">
<path fill="none" stroke="#63b8ff" d="M541.19,-257.59C459.27,-250.97 320.67,-236.88 204,-210.75 196.73,-209.12 189.13,-207.04 181.76,-204.81"/>
<polygon fill="#63b8ff" stroke="#63b8ff" points="540.86,-261.07 551.11,-258.37 541.41,-254.09 540.86,-261.07"/>
</a>
</g>
</g>
<!-- Node16 -->
<g id="Node000016" class="node">
<title>Node16</title>
<g id="a_Node000016"><a xlink:href="motor__homing_8h.html" target="_top" xlink:title=" ">
<polygon fill="white" stroke="#666666" points="1208.75,-204.38 1083.25,-204.38 1083.25,-170.88 1208.75,-170.88 1208.75,-204.38"/>
<text xml:space="preserve" text-anchor="start" x="1091.25" y="-190.88" font-family="Helvetica,sans-Serif" font-size="10.00">source/motion/homing</text>
<text xml:space="preserve" text-anchor="middle" x="1146" y="-178.12" font-family="Helvetica,sans-Serif" font-size="10.00">/motor_homing.h</text>
</a>
</g>
</g>
<!-- Node15&#45;&gt;Node16 -->
<g id="edge18_Node000015_Node000016" class="edge">
<title>Node15&#45;&gt;Node16</title>
<g id="a_edge18_Node000015_Node000016"><a xlink:title=" ">
<path fill="none" stroke="#63b8ff" d="M682.27,-253.4C759.66,-243.31 887.78,-226.38 998,-210.75 1025.91,-206.79 1056.75,-202.22 1083.02,-198.26"/>
<polygon fill="#63b8ff" stroke="#63b8ff" points="682.19,-249.88 672.72,-254.65 683.09,-256.83 682.19,-249.88"/>
</a>
</g>
</g>
<!-- Node19 -->
<g id="Node000019" class="node">
<title>Node19</title>
<g id="a_Node000019"><a xlink:href="motor__motion_8h.html" target="_top" xlink:title=" ">
<polygon fill="white" stroke="#666666" points="467,-204.38 349,-204.38 349,-170.88 467,-170.88 467,-204.38"/>
<text xml:space="preserve" text-anchor="start" x="357" y="-190.88" font-family="Helvetica,sans-Serif" font-size="10.00">source/motion/motor</text>
<text xml:space="preserve" text-anchor="middle" x="408" y="-178.12" font-family="Helvetica,sans-Serif" font-size="10.00">/motor_motion.h</text>
</a>
</g>
</g>
<!-- Node15&#45;&gt;Node19 -->
<g id="edge25_Node000015_Node000019" class="edge">
<title>Node15&#45;&gt;Node19</title>
<g id="a_edge25_Node000015_Node000019"><a xlink:title=" ">
<path fill="none" stroke="#63b8ff" d="M556.51,-242.4C523.89,-230.59 483.2,-215.86 452.66,-204.8"/>
<polygon fill="#63b8ff" stroke="#63b8ff" points="555.21,-245.66 565.81,-245.77 557.6,-239.08 555.21,-245.66"/>
</a>
</g>
</g>
<!-- Node21 -->
<g id="Node000021" class="node">
<title>Node21</title>
<g id="a_Node000021"><a xlink:href="motor__process_8h.html" target="_top" xlink:title=" ">
<polygon fill="white" stroke="#666666" points="331,-204.38 213,-204.38 213,-170.88 331,-170.88 331,-204.38"/>
<text xml:space="preserve" text-anchor="start" x="221" y="-190.88" font-family="Helvetica,sans-Serif" font-size="10.00">source/motion/motor</text>
<text xml:space="preserve" text-anchor="middle" x="272" y="-178.12" font-family="Helvetica,sans-Serif" font-size="10.00">/motor_process.h</text>
</a>
</g>
</g>
<!-- Node15&#45;&gt;Node21 -->
<g id="edge30_Node000015_Node000021" class="edge">
<title>Node15&#45;&gt;Node21</title>
<g id="a_edge30_Node000015_Node000021"><a xlink:title=" ">
<path fill="none" stroke="#63b8ff" d="M541.56,-251.61C486.32,-242.48 407.73,-228.14 340,-210.75 333.27,-209.02 326.22,-206.99 319.33,-204.87"/>
<polygon fill="#63b8ff" stroke="#63b8ff" points="540.7,-255.02 551.13,-253.18 541.83,-248.11 540.7,-255.02"/>
</a>
</g>
</g>
<!-- Node22 -->
<g id="Node000022" class="node">
<title>Node22</title>
<g id="a_Node000022"><a xlink:href="motor__sync_8h.html" target="_top" xlink:title=" ">
<polygon fill="white" stroke="#666666" points="739,-204.38 621,-204.38 621,-170.88 739,-170.88 739,-204.38"/>
<text xml:space="preserve" text-anchor="start" x="629" y="-190.88" font-family="Helvetica,sans-Serif" font-size="10.00">source/motion/motor</text>
<text xml:space="preserve" text-anchor="middle" x="680" y="-178.12" font-family="Helvetica,sans-Serif" font-size="10.00">/motor_sync.h</text>
</a>
</g>
</g>
<!-- Node15&#45;&gt;Node22 -->
<g id="edge33_Node000015_Node000022" class="edge">
<title>Node15&#45;&gt;Node22</title>
<g id="a_edge33_Node000015_Node000022"><a xlink:title=" ">
<path fill="none" stroke="#63b8ff" d="M634.47,-238.09C644.6,-227.09 656.28,-214.39 665.27,-204.62"/>
<polygon fill="#63b8ff" stroke="#63b8ff" points="631.98,-235.63 627.78,-245.36 637.13,-240.37 631.98,-235.63"/>
</a>
</g>
</g>
<!-- Node23 -->
<g id="Node000023" class="node">
<title>Node23</title>
<g id="a_Node000023"><a xlink:href="motor__tmc_8h.html" target="_top" xlink:title=" ">
<polygon fill="white" stroke="#666666" points="603,-204.38 485,-204.38 485,-170.88 603,-170.88 603,-204.38"/>
<text xml:space="preserve" text-anchor="start" x="493" y="-190.88" font-family="Helvetica,sans-Serif" font-size="10.00">source/motion/motor</text>
<text xml:space="preserve" text-anchor="middle" x="544" y="-178.12" font-family="Helvetica,sans-Serif" font-size="10.00">/motor_tmc.h</text>
</a>
</g>
</g>
<!-- Node15&#45;&gt;Node23 -->
<g id="edge36_Node000015_Node000023" class="edge">
<title>Node15&#45;&gt;Node23</title>
<g id="a_edge36_Node000015_Node000023"><a xlink:title=" ">
<path fill="none" stroke="#63b8ff" d="M589.53,-238.09C579.4,-227.09 567.72,-214.39 558.73,-204.62"/>
<polygon fill="#63b8ff" stroke="#63b8ff" points="586.87,-240.37 596.22,-245.36 592.02,-235.63 586.87,-240.37"/>
</a>
</g>
</g>
<!-- Node16&#45;&gt;Node3 -->
<g id="edge19_Node000016_Node000003" class="edge">
<title>Node16&#45;&gt;Node3</title>
<g id="a_edge19_Node000016_Node000003"><a xlink:title=" ">
<path fill="none" stroke="#63b8ff" d="M1121.29,-162.73C1107.89,-149.78 1091.69,-134.11 1079.77,-122.59"/>
<polygon fill="#63b8ff" stroke="#63b8ff" points="1118.49,-164.9 1128.12,-169.33 1123.36,-159.87 1118.49,-164.9"/>
</a>
</g>
</g>
<!-- Node16&#45;&gt;Node10 -->
<g id="edge21_Node000016_Node000010" class="edge">
<title>Node16&#45;&gt;Node10</title>
<g id="a_edge21_Node000016_Node000010"><a xlink:title=" ">
<path fill="none" stroke="#63b8ff" d="M1219.96,-171.3C1231.99,-168.93 1244.33,-166.59 1256,-164.5 1367.35,-144.59 1498.18,-124.97 1570.94,-114.39"/>
<polygon fill="#63b8ff" stroke="#63b8ff" points="1219.64,-167.79 1210.51,-173.17 1221,-174.66 1219.64,-167.79"/>
</a>
</g>
</g>
<!-- Node16&#45;&gt;Node17 -->
<g id="edge20_Node000016_Node000017" class="edge">
<title>Node16&#45;&gt;Node17</title>
<g id="a_edge20_Node000016_Node000017"><a xlink:title=" ">
<path fill="none" stroke="#63b8ff" d="M1145.29,-159.01C1146.27,-135.14 1151.75,-101.53 1173,-82.25 1213.52,-45.5 1360.6,-31.95 1456.67,-26.98"/>
<polygon fill="#63b8ff" stroke="#63b8ff" points="1141.79,-158.91 1145.15,-168.96 1148.79,-159.01 1141.79,-158.91"/>
</a>
</g>
</g>
<!-- Node16&#45;&gt;Node18 -->
<g id="edge22_Node000016_Node000018" class="edge">
<title>Node16&#45;&gt;Node18</title>
<g id="a_edge22_Node000016_Node000018"><a xlink:title=" ">
<path fill="none" stroke="#63b8ff" d="M1204.73,-166.74C1252.26,-150.64 1317.17,-128.67 1354.12,-116.15"/>
<polygon fill="#63b8ff" stroke="#63b8ff" points="1203.74,-163.38 1195.39,-169.9 1205.99,-170.01 1203.74,-163.38"/>
</a>
</g>
</g>
<!-- Node19&#45;&gt;Node8 -->
<g id="edge27_Node000019_Node000008" class="edge">
<title>Node19&#45;&gt;Node8</title>
<g id="a_edge27_Node000019_Node000008"><a xlink:title=" ">
<path fill="none" stroke="#63b8ff" d="M467.9,-166.84C509.12,-153.23 563.22,-135.37 601.9,-122.59"/>
<polygon fill="#63b8ff" stroke="#63b8ff" points="467.01,-163.45 458.61,-169.91 469.21,-170.1 467.01,-163.45"/>
</a>
</g>
</g>
<!-- Node19&#45;&gt;Node11 -->
<g id="edge26_Node000019_Node000011" class="edge">
<title>Node19&#45;&gt;Node11</title>
<g id="a_edge26_Node000019_Node000011"><a xlink:title=" ">
<path fill="none" stroke="#63b8ff" d="M364.44,-165.44C336.85,-152.02 301.71,-134.93 276.34,-122.59"/>
<polygon fill="#63b8ff" stroke="#63b8ff" points="362.73,-168.5 373.25,-169.72 365.79,-162.2 362.73,-168.5"/>
</a>
</g>
</g>
<!-- Node19&#45;&gt;Node14 -->
<g id="edge28_Node000019_Node000014" class="edge">
<title>Node19&#45;&gt;Node14</title>
<g id="a_edge28_Node000019_Node000014"><a xlink:title=" ">
<path fill="none" stroke="#63b8ff" d="M398.29,-159.76C393.84,-147.44 388.71,-133.25 384.86,-122.59"/>
<polygon fill="#63b8ff" stroke="#63b8ff" points="394.93,-160.75 401.62,-168.96 401.51,-158.37 394.93,-160.75"/>
</a>
</g>
</g>
<!-- Node20 -->
<g id="Node000020" class="node">
<title>Node20</title>
<g id="a_Node000020"><a xlink:href="motor__tmc_8c.html" target="_top" xlink:title=" ">
<polygon fill="white" stroke="#666666" points="574,-122.12 456,-122.12 456,-88.62 574,-88.62 574,-122.12"/>
<text xml:space="preserve" text-anchor="start" x="464" y="-108.62" font-family="Helvetica,sans-Serif" font-size="10.00">source/motion/motor</text>
<text xml:space="preserve" text-anchor="middle" x="515" y="-95.88" font-family="Helvetica,sans-Serif" font-size="10.00">/motor_tmc.c</text>
</a>
</g>
</g>
<!-- Node19&#45;&gt;Node20 -->
<g id="edge29_Node000019_Node000020" class="edge">
<title>Node19&#45;&gt;Node20</title>
<g id="a_edge29_Node000019_Node000020"><a xlink:title=" ">
<path fill="none" stroke="#63b8ff" d="M438.4,-163.83C455.94,-150.67 477.58,-134.44 493.38,-122.59"/>
<polygon fill="#63b8ff" stroke="#63b8ff" points="436.76,-160.68 430.86,-169.48 440.96,-166.28 436.76,-160.68"/>
</a>
</g>
</g>
<!-- Node21&#45;&gt;Node11 -->
<g id="edge31_Node000021_Node000011" class="edge">
<title>Node21&#45;&gt;Node11</title>
<g id="a_edge31_Node000021_Node000011"><a xlink:title=" ">
<path fill="none" stroke="#63b8ff" d="M262.29,-159.76C257.84,-147.44 252.71,-133.25 248.86,-122.59"/>
<polygon fill="#63b8ff" stroke="#63b8ff" points="258.93,-160.75 265.62,-168.96 265.51,-158.37 258.93,-160.75"/>
</a>
</g>
</g>
<!-- Node21&#45;&gt;Node14 -->
<g id="edge32_Node000021_Node000014" class="edge">
<title>Node21&#45;&gt;Node14</title>
<g id="a_edge32_Node000021_Node000014"><a xlink:title=" ">
<path fill="none" stroke="#63b8ff" d="M302.4,-163.83C319.94,-150.67 341.58,-134.44 357.38,-122.59"/>
<polygon fill="#63b8ff" stroke="#63b8ff" points="300.76,-160.68 294.86,-169.48 304.96,-166.28 300.76,-160.68"/>
</a>
</g>
</g>
<!-- Node22&#45;&gt;Node9 -->
<g id="edge35_Node000022_Node000009" class="edge">
<title>Node22&#45;&gt;Node9</title>
<g id="a_edge35_Node000022_Node000009"><a xlink:title=" ">
<path fill="none" stroke="#63b8ff" d="M710.4,-163.83C727.94,-150.67 749.58,-134.44 765.38,-122.59"/>
<polygon fill="#63b8ff" stroke="#63b8ff" points="708.76,-160.68 702.86,-169.48 712.96,-166.28 708.76,-160.68"/>
</a>
</g>
</g>
<!-- Node22&#45;&gt;Node14 -->
<g id="edge34_Node000022_Node000014" class="edge">
<title>Node22&#45;&gt;Node14</title>
<g id="a_edge34_Node000022_Node000014"><a xlink:title=" ">
<path fill="none" stroke="#63b8ff" d="M621.43,-167.16C618.25,-166.23 615.09,-165.34 612,-164.5 539.56,-144.86 519.44,-148.14 447,-128.5 440.41,-126.71 433.51,-124.67 426.74,-122.57"/>
<polygon fill="#63b8ff" stroke="#63b8ff" points="620.22,-170.45 630.81,-169.99 622.24,-163.75 620.22,-170.45"/>
</a>
</g>
</g>
<!-- Node23&#45;&gt;Node14 -->
<g id="edge37_Node000023_Node000014" class="edge">
<title>Node23&#45;&gt;Node14</title>
<g id="a_edge37_Node000023_Node000014"><a xlink:title=" ">
<path fill="none" stroke="#63b8ff" d="M500.44,-165.44C472.85,-152.02 437.71,-134.93 412.34,-122.59"/>
<polygon fill="#63b8ff" stroke="#63b8ff" points="498.73,-168.5 509.25,-169.72 501.79,-162.2 498.73,-168.5"/>
</a>
</g>
</g>
<!-- Node23&#45;&gt;Node20 -->
<g id="edge38_Node000023_Node000020" class="edge">
<title>Node23&#45;&gt;Node20</title>
<g id="a_edge38_Node000023_Node000020"><a xlink:title=" ">
<path fill="none" stroke="#63b8ff" d="M534.29,-159.76C529.84,-147.44 524.71,-133.25 520.86,-122.59"/>
<polygon fill="#63b8ff" stroke="#63b8ff" points="530.93,-160.75 537.62,-168.96 537.51,-158.37 530.93,-160.75"/>
</a>
</g>
</g>
<!-- Node24&#45;&gt;Node2 -->
<g id="edge41_Node000024_Node000002" class="edge">
<title>Node24&#45;&gt;Node2</title>
<g id="a_edge41_Node000024_Node000002"><a xlink:title=" ">
<path fill="none" stroke="#63b8ff" d="M1726.77,-252.39C1798.28,-243.98 1897.34,-230.23 1983,-210.75 1997.35,-207.49 2013,-202.74 2025.95,-198.48"/>
<polygon fill="#63b8ff" stroke="#63b8ff" points="1726.57,-248.89 1717.04,-253.52 1727.38,-255.84 1726.57,-248.89"/>
</a>
</g>
</g>
<!-- Node24&#45;&gt;Node10 -->
<g id="edge50_Node000024_Node000010" class="edge">
<title>Node24&#45;&gt;Node10</title>
<g id="a_edge50_Node000024_Node000010"><a xlink:title=" ">
<path fill="none" stroke="#63b8ff" d="M1667.64,-239.66C1677.4,-231.82 1686.63,-222.12 1692,-210.75 1700.78,-192.17 1700.39,-183.26 1692,-164.5 1682.36,-142.94 1660.33,-126.07 1644.59,-116.19"/>
<polygon fill="#63b8ff" stroke="#63b8ff" points="1665.8,-236.66 1659.84,-245.42 1669.96,-242.29 1665.8,-236.66"/>
</a>
</g>
</g>
<!-- Node24&#45;&gt;Node17 -->
<g id="edge42_Node000024_Node000017" class="edge">
<title>Node24&#45;&gt;Node17</title>
<g id="a_edge42_Node000024_Node000017"><a xlink:title=" ">
<path fill="none" stroke="#63b8ff" d="M1584.71,-240.36C1573.48,-232.57 1562.72,-222.71 1556,-210.75 1524.58,-154.82 1533.9,-74.11 1539.8,-40.15"/>
<polygon fill="#63b8ff" stroke="#63b8ff" points="1582.58,-243.16 1592.89,-245.61 1586.36,-237.27 1582.58,-243.16"/>
</a>
</g>
</g>
<!-- Node24&#45;&gt;Node18 -->
<g id="edge51_Node000024_Node000018" class="edge">
<title>Node24&#45;&gt;Node18</title>
<g id="a_edge51_Node000024_Node000018"><a xlink:title=" ">
<path fill="none" stroke="#63b8ff" d="M1581.47,-241.61C1562.82,-232.83 1541.5,-222.03 1523,-210.75 1472.52,-179.98 1417.71,-135.53 1394.46,-116.09"/>
<polygon fill="#63b8ff" stroke="#63b8ff" points="1579.89,-244.74 1590.43,-245.77 1582.83,-238.39 1579.89,-244.74"/>
</a>
</g>
</g>
<!-- Node25 -->
<g id="Node000025" class="node">
<title>Node25</title>
<g id="a_Node000025"><a xlink:href="scara__kinematics__internal_8h.html" target="_top" xlink:title=" ">
<polygon fill="white" stroke="#666666" points="1940.88,-210.75 1777.12,-210.75 1777.12,-164.5 1940.88,-164.5 1940.88,-210.75"/>
<text xml:space="preserve" text-anchor="start" x="1785.12" y="-197.25" font-family="Helvetica,sans-Serif" font-size="10.00">source/motion/scara</text>
<text xml:space="preserve" text-anchor="start" x="1785.12" y="-184.5" font-family="Helvetica,sans-Serif" font-size="10.00">_kinematics/scara_kinematics</text>
<text xml:space="preserve" text-anchor="middle" x="1859" y="-171.75" font-family="Helvetica,sans-Serif" font-size="10.00">_internal.h</text>
</a>
</g>
</g>
<!-- Node24&#45;&gt;Node25 -->
<g id="edge43_Node000024_Node000025" class="edge">
<title>Node24&#45;&gt;Node25</title>
<g id="a_edge43_Node000024_Node000025"><a xlink:title=" ">
<path fill="none" stroke="#63b8ff" d="M1690.31,-242.81C1720.55,-233.09 1757.19,-221.33 1788.58,-211.24"/>
<polygon fill="#63b8ff" stroke="#63b8ff" points="1689.37,-239.43 1680.92,-245.82 1691.51,-246.1 1689.37,-239.43"/>
</a>
</g>
</g>
<!-- Node26 -->
<g id="Node000026" class="node">
<title>Node26</title>
<g id="a_Node000026"><a xlink:href="scara__kinematics__process_8c.html" target="_top" xlink:title=" ">
<polygon fill="white" stroke="#666666" points="1957.88,-46.25 1794.12,-46.25 1794.12,0 1957.88,0 1957.88,-46.25"/>
<text xml:space="preserve" text-anchor="start" x="1802.12" y="-32.75" font-family="Helvetica,sans-Serif" font-size="10.00">source/motion/scara</text>
<text xml:space="preserve" text-anchor="start" x="1802.12" y="-20" font-family="Helvetica,sans-Serif" font-size="10.00">_kinematics/scara_kinematics</text>
<text xml:space="preserve" text-anchor="middle" x="1876" y="-7.25" font-family="Helvetica,sans-Serif" font-size="10.00">_process.c</text>
</a>
</g>
</g>
<!-- Node24&#45;&gt;Node26 -->
<g id="edge49_Node000024_Node000026" class="edge">
<title>Node24&#45;&gt;Node26</title>
<g id="a_edge49_Node000024_Node000026"><a xlink:title=" ">
<path fill="none" stroke="#63b8ff" d="M1726.94,-249.82C1818.63,-237.48 1942.67,-219.36 1950,-210.75 1971.15,-185.92 1932.29,-90.19 1928,-82.25 1920.92,-69.15 1910.32,-56.57 1900.54,-46.49"/>
<polygon fill="#63b8ff" stroke="#63b8ff" points="1726.59,-246.34 1717.15,-251.14 1727.52,-253.28 1726.59,-246.34"/>
</a>
</g>
</g>
<!-- Node28 -->
<g id="Node000028" class="node">
<title>Node28</title>
<g id="a_Node000028"><a xlink:href="statemachine__helpers_8c.html" target="_top" xlink:title="Command parsing and helper implementations for the state machine.">
<polygon fill="white" stroke="#666666" points="1683,-204.38 1565,-204.38 1565,-170.88 1683,-170.88 1683,-204.38"/>
<text xml:space="preserve" text-anchor="start" x="1573" y="-190.88" font-family="Helvetica,sans-Serif" font-size="10.00">source/statemachine</text>
<text xml:space="preserve" text-anchor="middle" x="1624" y="-178.12" font-family="Helvetica,sans-Serif" font-size="10.00">_helpers.c</text>
</a>
</g>
</g>
<!-- Node24&#45;&gt;Node28 -->
<g id="edge52_Node000024_Node000028" class="edge">
<title>Node24&#45;&gt;Node28</title>
<g id="a_edge52_Node000024_Node000028"><a xlink:title=" ">
<path fill="none" stroke="#63b8ff" d="M1627.15,-235.11C1626.45,-224.85 1625.69,-213.52 1625.08,-204.62"/>
<polygon fill="#63b8ff" stroke="#63b8ff" points="1623.65,-235.22 1627.81,-244.96 1630.63,-234.75 1623.65,-235.22"/>
</a>
</g>
</g>
<!-- Node25&#45;&gt;Node17 -->
<g id="edge44_Node000025_Node000017" class="edge">
<title>Node25&#45;&gt;Node17</title>
<g id="a_edge44_Node000025_Node000017"><a xlink:title=" ">
<path fill="none" stroke="#63b8ff" d="M1783.32,-159.5C1764.93,-151.07 1745.97,-140.72 1730,-128.5 1708.87,-112.33 1713.54,-97.87 1692,-82.25 1665.93,-63.34 1632.89,-49.63 1604.55,-40.3"/>
<polygon fill="#63b8ff" stroke="#63b8ff" points="1781.81,-162.66 1792.37,-163.5 1784.64,-156.26 1781.81,-162.66"/>
</a>
</g>
</g>
<!-- Node25&#45;&gt;Node26 -->
<g id="edge45_Node000025_Node000026" class="edge">
<title>Node25&#45;&gt;Node26</title>
<g id="a_edge45_Node000025_Node000026"><a xlink:title=" ">
<path fill="none" stroke="#63b8ff" d="M1894.7,-155.76C1901.75,-147.67 1908.16,-138.41 1912,-128.5 1919.43,-109.33 1917.63,-102.02 1912,-82.25 1908.39,-69.58 1901.15,-56.97 1894.09,-46.75"/>
<polygon fill="#63b8ff" stroke="#63b8ff" points="1892.23,-153.27 1887.92,-162.95 1897.32,-158.07 1892.23,-153.27"/>
</a>
</g>
</g>
<!-- Node27 -->
<g id="Node000027" class="node">
<title>Node27</title>
<g id="a_Node000027"><a xlink:href="scara__kinematics__process_8h.html" target="_top" xlink:title=" ">
<polygon fill="white" stroke="#666666" points="1902.88,-128.5 1739.12,-128.5 1739.12,-82.25 1902.88,-82.25 1902.88,-128.5"/>
<text xml:space="preserve" text-anchor="start" x="1747.12" y="-115" font-family="Helvetica,sans-Serif" font-size="10.00">source/motion/scara</text>
<text xml:space="preserve" text-anchor="start" x="1747.12" y="-102.25" font-family="Helvetica,sans-Serif" font-size="10.00">_kinematics/scara_kinematics</text>
<text xml:space="preserve" text-anchor="middle" x="1821" y="-89.5" font-family="Helvetica,sans-Serif" font-size="10.00">_process.h</text>
</a>
</g>
</g>
<!-- Node25&#45;&gt;Node27 -->
<g id="edge46_Node000025_Node000027" class="edge">
<title>Node25&#45;&gt;Node27</title>
<g id="a_edge46_Node000025_Node000027"><a xlink:title=" ">
<path fill="none" stroke="#63b8ff" d="M1843.53,-153.96C1839.55,-145.54 1835.34,-136.66 1831.66,-128.89"/>
<polygon fill="#63b8ff" stroke="#63b8ff" points="1840.32,-155.36 1847.77,-162.9 1846.65,-152.37 1840.32,-155.36"/>
</a>
</g>
</g>
<!-- Node27&#45;&gt;Node17 -->
<g id="edge47_Node000027_Node000017" class="edge">
<title>Node27&#45;&gt;Node17</title>
<g id="a_edge47_Node000027_Node000017"><a xlink:title=" ">
<path fill="none" stroke="#63b8ff" d="M1731.91,-78.66C1688.28,-66.06 1637.09,-51.29 1599.02,-40.3"/>
<polygon fill="#63b8ff" stroke="#63b8ff" points="1730.79,-81.98 1741.37,-81.39 1732.73,-75.25 1730.79,-81.98"/>
</a>
</g>
</g>
<!-- Node27&#45;&gt;Node26 -->
<g id="edge48_Node000027_Node000026" class="edge">
<title>Node27&#45;&gt;Node26</title>
<g id="a_edge48_Node000027_Node000026"><a xlink:title=" ">
<path fill="none" stroke="#63b8ff" d="M1842.81,-72.55C1848.75,-63.88 1855.06,-54.67 1860.57,-46.64"/>
<polygon fill="#63b8ff" stroke="#63b8ff" points="1839.94,-70.55 1837.18,-80.77 1845.72,-74.5 1839.94,-70.55"/>
</a>
</g>
</g>
<!-- Node29&#45;&gt;Node3 -->
<g id="edge56_Node000029_Node000003" class="edge">
<title>Node29&#45;&gt;Node3</title>
<g id="a_edge56_Node000029_Node000003"><a xlink:title=" ">
<path fill="none" stroke="#63b8ff" d="M1286.39,-173.52C1240.13,-159.61 1166.96,-137.62 1117.06,-122.62"/>
<polygon fill="#63b8ff" stroke="#63b8ff" points="1285.23,-176.82 1295.81,-176.35 1287.24,-170.12 1285.23,-176.82"/>
</a>
</g>
</g>
<!-- Node29&#45;&gt;Node5 -->
<g id="edge55_Node000029_Node000005" class="edge">
<title>Node29&#45;&gt;Node5</title>
<g id="a_edge55_Node000029_Node000005"><a xlink:title=" ">
<path fill="none" stroke="#63b8ff" d="M1311.24,-168.91C1296.52,-155.02 1276.21,-135.84 1261.97,-122.4"/>
<polygon fill="#63b8ff" stroke="#63b8ff" points="1308.8,-171.43 1318.48,-175.75 1313.61,-166.34 1308.8,-171.43"/>
</a>
</g>
</g>
<!-- Node29&#45;&gt;Node18 -->
<g id="edge58_Node000029_Node000018" class="edge">
<title>Node29&#45;&gt;Node18</title>
<g id="a_edge58_Node000029_Node000018"><a xlink:title=" ">
<path fill="none" stroke="#63b8ff" d="M1342.55,-167.62C1353.33,-151.3 1368.41,-128.47 1376.78,-115.8"/>
<polygon fill="#63b8ff" stroke="#63b8ff" points="1339.92,-165.25 1337.33,-175.52 1345.76,-169.11 1339.92,-165.25"/>
</a>
</g>
</g>
<!-- Node29&#45;&gt;Node26 -->
<g id="edge57_Node000029_Node000026" class="edge">
<title>Node29&#45;&gt;Node26</title>
<g id="a_edge57_Node000029_Node000026"><a xlink:title=" ">
<path fill="none" stroke="#63b8ff" d="M1360.4,-171.85C1413.65,-146.15 1521.97,-94.76 1562,-82.25 1638.86,-58.23 1729.59,-42.75 1793.7,-33.86"/>
<polygon fill="#63b8ff" stroke="#63b8ff" points="1359.05,-168.61 1351.58,-176.12 1362.1,-174.91 1359.05,-168.61"/>
</a>
</g>
</g>
</g>
</svg>
