<?xml version="1.0" encoding="UTF-8" standalone="no"?>
<!DOCTYPE svg PUBLIC "-//W3C//DTD SVG 1.1//EN"
 "http://www.w3.org/Graphics/SVG/1.1/DTD/svg11.dtd">
<!-- Generated by graphviz version 14.1.4 (0)
 -->
<!-- Title: source/motion/stepper/step_process.c Pages: 1 -->
<svg width="995pt" height="325pt"
 viewBox="0.00 0.00 995.00 325.00" xmlns="http://www.w3.org/2000/svg" xmlns:xlink="http://www.w3.org/1999/xlink">
<g id="graph0" class="graph" transform="scale(1 1) rotate(0) translate(4 321.25)">
<title>source/motion/stepper/step_process.c</title>
<!-- Node1 -->
<g id="Node000001" class="node">
<title>Node1</title>
<g id="a_Node000001"><a xlink:title=" ">
<polygon fill="#999999" stroke="#666666" points="491.12,-317.25 365.62,-317.25 365.62,-283.75 491.12,-283.75 491.12,-317.25"/>
<text xml:space="preserve" text-anchor="start" x="373.62" y="-303.75" font-family="Helvetica,sans-Serif" font-size="10.00">source/motion/stepper</text>
<text xml:space="preserve" text-anchor="middle" x="428.38" y="-291" font-family="Helvetica,sans-Serif" font-size="10.00">/step_process.c</text>
</a>
</g>
</g>
<!-- Node2 -->
<g id="Node000002" class="node">
<title>Node2</title>
<g id="a_Node000002"><a xlink:href="step__process_8h.html" target="_top" xlink:title=" ">
<polygon fill="white" stroke="#666666" points="281.75,-247.75 193,-247.75 193,-227 281.75,-227 281.75,-247.75"/>
<text xml:space="preserve" text-anchor="middle" x="237.38" y="-234.25" font-family="Helvetica,sans-Serif" font-size="10.00">step_process.h</text>
</a>
</g>
</g>
<!-- Node1&#45;&gt;Node2 -->
<g id="edge1_Node000001_Node000002" class="edge">
<title>Node1&#45;&gt;Node2</title>
<g id="a_edge1_Node000001_Node000002"><a xlink:title=" ">
<path fill="none" stroke="#63b8ff" d="M377.69,-283.28C346.72,-273.37 307.63,-260.86 278.57,-251.56"/>
<polygon fill="#63b8ff" stroke="#63b8ff" points="280,-248.34 269.41,-248.63 277.87,-255.01 280,-248.34"/>
</a>
</g>
</g>
<!-- Node3 -->
<g id="Node000003" class="node">
<title>Node3</title>
<g id="a_Node000003"><a xlink:href="step__internal_8h.html" target="_top" xlink:title=" ">
<polygon fill="white" stroke="#666666" points="370.75,-191 282,-191 282,-170.25 370.75,-170.25 370.75,-191"/>
<text xml:space="preserve" text-anchor="middle" x="326.38" y="-177.5" font-family="Helvetica,sans-Serif" font-size="10.00">step_internal.h</text>
</a>
</g>
</g>
<!-- Node1&#45;&gt;Node3 -->
<g id="edge20_Node000001_Node000003" class="edge">
<title>Node1&#45;&gt;Node3</title>
<g id="a_edge20_Node000001_Node000003"><a xlink:title=" ">
<path fill="none" stroke="#63b8ff" d="M373.04,-283.34C355.8,-275.46 338.63,-264.05 328.38,-247.75 320.04,-234.5 320.01,-216.62 321.81,-202.79"/>
<polygon fill="#63b8ff" stroke="#63b8ff" points="325.25,-203.43 323.53,-192.97 318.35,-202.22 325.25,-203.43"/>
</a>
</g>
</g>
<!-- Node11 -->
<g id="Node000011" class="node">
<title>Node11</title>
<g id="a_Node000011"><a xlink:href="step__shared_8h.html" target="_top" xlink:title=" ">
<polygon fill="white" stroke="#666666" points="628.5,-134.25 544.25,-134.25 544.25,-113.5 628.5,-113.5 628.5,-134.25"/>
<text xml:space="preserve" text-anchor="middle" x="586.38" y="-120.75" font-family="Helvetica,sans-Serif" font-size="10.00">step_shared.h</text>
</a>
</g>
</g>
<!-- Node1&#45;&gt;Node11 -->
<g id="edge21_Node000001_Node000011" class="edge">
<title>Node1&#45;&gt;Node11</title>
<g id="a_edge21_Node000001_Node000011"><a xlink:title=" ">
<path fill="none" stroke="#63b8ff" d="M488.83,-283.29C508.76,-275.37 529.58,-263.95 544.38,-247.75 570.77,-218.86 580.68,-172.65 584.33,-145.89"/>
<polygon fill="#63b8ff" stroke="#63b8ff" points="587.8,-146.32 585.48,-135.99 580.85,-145.51 587.8,-146.32"/>
</a>
</g>
</g>
<!-- Node18 -->
<g id="Node000018" class="node">
<title>Node18</title>
<g id="a_Node000018"><a xlink:href="cmd__dispatch_8h.html" target="_top" xlink:title=" ">
<polygon fill="white" stroke="#666666" points="211.62,-191 119.12,-191 119.12,-170.25 211.62,-170.25 211.62,-191"/>
<text xml:space="preserve" text-anchor="middle" x="165.38" y="-177.5" font-family="Helvetica,sans-Serif" font-size="10.00">cmd_dispatch.h</text>
</a>
</g>
</g>
<!-- Node1&#45;&gt;Node18 -->
<g id="edge22_Node000001_Node000018" class="edge">
<title>Node1&#45;&gt;Node18</title>
<g id="a_edge22_Node000001_Node000018"><a xlink:title=" ">
<path fill="none" stroke="#63b8ff" d="M365.39,-293.5C302.06,-286.21 210.2,-271.81 184.38,-247.75 171.95,-236.17 167.46,-217.06 165.93,-202.35"/>
<polygon fill="#63b8ff" stroke="#63b8ff" points="169.45,-202.56 165.33,-192.8 162.47,-203 169.45,-202.56"/>
</a>
</g>
</g>
<!-- Node19 -->
<g id="Node000019" class="node">
<title>Node19</title>
<g id="a_Node000019"><a xlink:href="log_8h.html" target="_top" xlink:title=" ">
<polygon fill="white" stroke="#666666" points="410.38,-134.25 370.38,-134.25 370.38,-113.5 410.38,-113.5 410.38,-134.25"/>
<text xml:space="preserve" text-anchor="middle" x="390.38" y="-120.75" font-family="Helvetica,sans-Serif" font-size="10.00">log.h</text>
</a>
</g>
</g>
<!-- Node1&#45;&gt;Node19 -->
<g id="edge27_Node000001_Node000019" class="edge">
<title>Node1&#45;&gt;Node19</title>
<g id="a_edge27_Node000001_Node000019"><a xlink:title=" ">
<path fill="none" stroke="#63b8ff" d="M483.67,-283.28C513.3,-271.32 541.31,-252.66 528.38,-227 506.04,-182.69 454.39,-152.82 421,-137.35"/>
<polygon fill="#63b8ff" stroke="#63b8ff" points="422.81,-134.32 412.25,-133.45 419.96,-140.72 422.81,-134.32"/>
</a>
</g>
</g>
<!-- Node20 -->
<g id="Node000020" class="node">
<title>Node20</title>
<g id="a_Node000020"><a xlink:href="step__timing_8h.html" target="_top" xlink:title=" ">
<polygon fill="white" stroke="#666666" points="419.75,-247.75 337,-247.75 337,-227 419.75,-227 419.75,-247.75"/>
<text xml:space="preserve" text-anchor="middle" x="378.38" y="-234.25" font-family="Helvetica,sans-Serif" font-size="10.00">step_timing.h</text>
</a>
</g>
</g>
<!-- Node1&#45;&gt;Node20 -->
<g id="edge30_Node000001_Node000020" class="edge">
<title>Node1&#45;&gt;Node20</title>
<g id="a_edge30_Node000001_Node000020"><a xlink:title=" ">
<path fill="none" stroke="#63b8ff" d="M415.24,-283.44C408.6,-275.32 400.5,-265.42 393.59,-256.97"/>
<polygon fill="#63b8ff" stroke="#63b8ff" points="396.42,-254.91 387.38,-249.39 391.01,-259.34 396.42,-254.91"/>
</a>
</g>
</g>
<!-- Node21 -->
<g id="Node000021" class="node">
<title>Node21</title>
<g id="a_Node000021"><a xlink:href="step__profile_8h.html" target="_top" xlink:title=" ">
<polygon fill="white" stroke="#666666" points="519.38,-247.75 437.38,-247.75 437.38,-227 519.38,-227 519.38,-247.75"/>
<text xml:space="preserve" text-anchor="middle" x="478.38" y="-234.25" font-family="Helvetica,sans-Serif" font-size="10.00">step_profile.h</text>
</a>
</g>
</g>
<!-- Node1&#45;&gt;Node21 -->
<g id="edge32_Node000001_Node000021" class="edge">
<title>Node1&#45;&gt;Node21</title>
<g id="a_edge32_Node000001_Node000021"><a xlink:title=" ">
<path fill="none" stroke="#63b8ff" d="M441.51,-283.44C448.15,-275.32 456.25,-265.42 463.16,-256.97"/>
<polygon fill="#63b8ff" stroke="#63b8ff" points="465.74,-259.34 469.37,-249.39 460.33,-254.91 465.74,-259.34"/>
</a>
</g>
</g>
<!-- Node22 -->
<g id="Node000022" class="node">
<title>Node22</title>
<g id="a_Node000022"><a xlink:title=" ">
<polygon fill="#e0e0e0" stroke="#999999" points="662.88,-247.75 613.88,-247.75 613.88,-227 662.88,-227 662.88,-247.75"/>
<text xml:space="preserve" text-anchor="middle" x="638.38" y="-234.25" font-family="Helvetica,sans-Serif" font-size="10.00">stdio.h</text>
</a>
</g>
</g>
<!-- Node1&#45;&gt;Node22 -->
<g id="edge34_Node000001_Node000022" class="edge">
<title>Node1&#45;&gt;Node22</title>
<g id="a_edge34_Node000001_Node000022"><a xlink:title=" ">
<path fill="none" stroke="#63b8ff" d="M484.1,-283.28C521.71,-272.33 570.22,-258.21 602.72,-248.75"/>
<polygon fill="#63b8ff" stroke="#63b8ff" points="603.42,-252.19 612.04,-246.04 601.46,-245.47 603.42,-252.19"/>
</a>
</g>
</g>
<!-- Node2&#45;&gt;Node3 -->
<g id="edge2_Node000002_Node000003" class="edge">
<title>Node2&#45;&gt;Node3</title>
<g id="a_edge2_Node000002_Node000003"><a xlink:title=" ">
<path fill="none" stroke="#63b8ff" d="M253.29,-226.59C266.58,-218.41 285.76,-206.61 301.14,-197.15"/>
<polygon fill="#63b8ff" stroke="#63b8ff" points="302.63,-200.34 309.31,-192.12 298.96,-194.38 302.63,-200.34"/>
</a>
</g>
</g>
<!-- Node4 -->
<g id="Node000004" class="node">
<title>Node4</title>
<g id="a_Node000004"><a xlink:title=" ">
<polygon fill="#e0e0e0" stroke="#999999" points="360.12,-77.5 288.62,-77.5 288.62,-56.75 360.12,-56.75 360.12,-77.5"/>
<text xml:space="preserve" text-anchor="middle" x="324.38" y="-64" font-family="Helvetica,sans-Serif" font-size="10.00">FreeRTOS.h</text>
</a>
</g>
</g>
<!-- Node3&#45;&gt;Node4 -->
<g id="edge3_Node000003_Node000004" class="edge">
<title>Node3&#45;&gt;Node4</title>
<g id="a_edge3_Node000003_Node000004"><a xlink:title=" ">
<path fill="none" stroke="#63b8ff" d="M326.2,-170.12C325.89,-152.35 325.19,-113.72 324.76,-89.43"/>
<polygon fill="#63b8ff" stroke="#63b8ff" points="328.26,-89.37 324.58,-79.44 321.26,-89.5 328.26,-89.37"/>
</a>
</g>
</g>
<!-- Node5 -->
<g id="Node000005" class="node">
<title>Node5</title>
<g id="a_Node000005"><a xlink:title=" ">
<polygon fill="#e0e0e0" stroke="#999999" points="313.88,-134.25 258.88,-134.25 258.88,-113.5 313.88,-113.5 313.88,-134.25"/>
<text xml:space="preserve" text-anchor="middle" x="286.38" y="-120.75" font-family="Helvetica,sans-Serif" font-size="10.00">queue.h</text>
</a>
</g>
</g>
<!-- Node3&#45;&gt;Node5 -->
<g id="edge4_Node000003_Node000005" class="edge">
<title>Node3&#45;&gt;Node5</title>
<g id="a_edge4_Node000003_Node000005"><a xlink:title=" ">
<path fill="none" stroke="#63b8ff" d="M319.22,-169.84C313.93,-162.6 306.56,-152.51 300.15,-143.72"/>
<polygon fill="#63b8ff" stroke="#63b8ff" points="303.08,-141.81 294.36,-135.8 297.43,-145.94 303.08,-141.81"/>
</a>
</g>
</g>
<!-- Node6 -->
<g id="Node000006" class="node">
<title>Node6</title>
<g id="a_Node000006"><a xlink:href="cmd__handle_8h.html" target="_top" xlink:title=" ">
<polygon fill="white" stroke="#666666" points="202.5,-134.25 118.25,-134.25 118.25,-113.5 202.5,-113.5 202.5,-134.25"/>
<text xml:space="preserve" text-anchor="middle" x="160.38" y="-120.75" font-family="Helvetica,sans-Serif" font-size="10.00">cmd_handle.h</text>
</a>
</g>
</g>
<!-- Node3&#45;&gt;Node6 -->
<g id="edge5_Node000003_Node000006" class="edge">
<title>Node3&#45;&gt;Node6</title>
<g id="a_edge5_Node000003_Node000006"><a xlink:title=" ">
<path fill="none" stroke="#63b8ff" d="M296.7,-169.84C269.99,-161.03 230.5,-148 200.89,-138.24"/>
<polygon fill="#63b8ff" stroke="#63b8ff" points="202.11,-134.95 191.51,-135.14 199.91,-141.6 202.11,-134.95"/>
</a>
</g>
</g>
<!-- Node3&#45;&gt;Node11 -->
<g id="edge11_Node000003_Node000011" class="edge">
<title>Node3&#45;&gt;Node11</title>
<g id="a_edge11_Node000003_Node000011"><a xlink:title=" ">
<path fill="none" stroke="#63b8ff" d="M371.07,-170.21C415.97,-160.76 485.16,-146.19 532.93,-136.13"/>
<polygon fill="#63b8ff" stroke="#63b8ff" points="533.44,-139.6 542.5,-134.11 532,-132.75 533.44,-139.6"/>
</a>
</g>
</g>
<!-- Node6&#45;&gt;Node4 -->
<g id="edge7_Node000006_Node000004" class="edge">
<title>Node6&#45;&gt;Node4</title>
<g id="a_edge7_Node000006_Node000004"><a xlink:title=" ">
<path fill="none" stroke="#63b8ff" d="M189.69,-113.09C216.08,-104.28 255.09,-91.25 284.35,-81.49"/>
<polygon fill="#63b8ff" stroke="#63b8ff" points="285.22,-84.89 293.6,-78.4 283,-78.25 285.22,-84.89"/>
</a>
</g>
</g>
<!-- Node7 -->
<g id="Node000007" class="node">
<title>Node7</title>
<g id="a_Node000007"><a xlink:title=" ">
<polygon fill="#e0e0e0" stroke="#999999" points="52.75,-77.5 0,-77.5 0,-56.75 52.75,-56.75 52.75,-77.5"/>
<text xml:space="preserve" text-anchor="middle" x="26.38" y="-64" font-family="Helvetica,sans-Serif" font-size="10.00">stdint.h</text>
</a>
</g>
</g>
<!-- Node6&#45;&gt;Node7 -->
<g id="edge6_Node000006_Node000007" class="edge">
<title>Node6&#45;&gt;Node7</title>
<g id="a_edge6_Node000006_Node000007"><a xlink:title=" ">
<path fill="none" stroke="#63b8ff" d="M136.42,-113.09C115.36,-104.48 84.47,-91.86 60.77,-82.18"/>
<polygon fill="#63b8ff" stroke="#63b8ff" points="62.11,-78.94 51.53,-78.4 59.46,-85.42 62.11,-78.94"/>
</a>
</g>
</g>
<!-- Node8 -->
<g id="Node000008" class="node">
<title>Node8</title>
<g id="a_Node000008"><a xlink:title=" ">
<polygon fill="#e0e0e0" stroke="#999999" points="231.88,-77.5 140.88,-77.5 140.88,-56.75 231.88,-56.75 231.88,-77.5"/>
<text xml:space="preserve" text-anchor="middle" x="186.38" y="-64" font-family="Helvetica,sans-Serif" font-size="10.00">event_groups.h</text>
</a>
</g>
</g>
<!-- Node6&#45;&gt;Node8 -->
<g id="edge8_Node000006_Node000008" class="edge">
<title>Node6&#45;&gt;Node8</title>
<g id="a_edge8_Node000006_Node000008"><a xlink:title=" ">
<path fill="none" stroke="#63b8ff" d="M165.02,-113.09C168.31,-106.16 172.84,-96.62 176.88,-88.11"/>
<polygon fill="#63b8ff" stroke="#63b8ff" points="179.99,-89.73 181.12,-79.2 173.67,-86.73 179.99,-89.73"/>
</a>
</g>
</g>
<!-- Node9 -->
<g id="Node000009" class="node">
<title>Node9</title>
<g id="a_Node000009"><a xlink:title=" ">
<polygon fill="#e0e0e0" stroke="#999999" points="530.88,-20.75 445.88,-20.75 445.88,0 530.88,0 530.88,-20.75"/>
<text xml:space="preserve" text-anchor="middle" x="488.38" y="-7.25" font-family="Helvetica,sans-Serif" font-size="10.00">fsl_common.h</text>
</a>
</g>
</g>
<!-- Node6&#45;&gt;Node9 -->
<g id="edge9_Node000006_Node000009" class="edge">
<title>Node6&#45;&gt;Node9</title>
<g id="a_edge9_Node000006_Node000009"><a xlink:title=" ">
<path fill="none" stroke="#63b8ff" d="M177.96,-113.01C210.43,-94.83 276.71,-57.76 279.38,-56.75 330.3,-37.55 391.41,-25.47 434.36,-18.64"/>
<polygon fill="#63b8ff" stroke="#63b8ff" points="434.85,-22.1 444.2,-17.12 433.79,-15.19 434.85,-22.1"/>
</a>
</g>
</g>
<!-- Node10 -->
<g id="Node000010" class="node">
<title>Node10</title>
<g id="a_Node000010"><a xlink:title=" ">
<polygon fill="#e0e0e0" stroke="#999999" points="122.38,-77.5 70.38,-77.5 70.38,-56.75 122.38,-56.75 122.38,-77.5"/>
<text xml:space="preserve" text-anchor="middle" x="96.38" y="-64" font-family="Helvetica,sans-Serif" font-size="10.00">stdlib.h</text>
</a>
</g>
</g>
<!-- Node6&#45;&gt;Node10 -->
<g id="edge10_Node000006_Node000010" class="edge">
<title>Node6&#45;&gt;Node10</title>
<g id="a_edge10_Node000006_Node000010"><a xlink:title=" ">
<path fill="none" stroke="#63b8ff" d="M148.93,-113.09C139.92,-105.38 127.14,-94.45 116.44,-85.29"/>
<polygon fill="#63b8ff" stroke="#63b8ff" points="118.74,-82.65 108.87,-78.81 114.19,-87.97 118.74,-82.65"/>
</a>
</g>
</g>
<!-- Node11&#45;&gt;Node9 -->
<g id="edge16_Node000011_Node000009" class="edge">
<title>Node11&#45;&gt;Node9</title>
<g id="a_edge16_Node000011_Node000009"><a xlink:title=" ">
<path fill="none" stroke="#63b8ff" d="M586.21,-113.32C585.51,-99.48 582.39,-73.66 569.38,-56.75 558.83,-43.05 542.91,-32.86 527.96,-25.65"/>
<polygon fill="#63b8ff" stroke="#63b8ff" points="529.78,-22.64 519.23,-21.75 526.93,-29.03 529.78,-22.64"/>
</a>
</g>
</g>
<!-- Node12 -->
<g id="Node000012" class="node">
<title>Node12</title>
<g id="a_Node000012"><a xlink:href="pca9555a_8h.html" target="_top" xlink:title=" ">
<polygon fill="white" stroke="#666666" points="987.38,-77.5 833.38,-77.5 833.38,-56.75 987.38,-56.75 987.38,-77.5"/>
<text xml:space="preserve" text-anchor="middle" x="910.38" y="-64" font-family="Helvetica,sans-Serif" font-size="10.00">driver/pca9555a/pca9555a.h</text>
</a>
</g>
</g>
<!-- Node11&#45;&gt;Node12 -->
<g id="edge12_Node000011_Node000012" class="edge">
<title>Node11&#45;&gt;Node12</title>
<g id="a_edge12_Node000011_Node000012"><a xlink:title=" ">
<path fill="none" stroke="#63b8ff" d="M628.73,-115.72C682.62,-106.61 776.4,-90.76 840.84,-79.87"/>
<polygon fill="#63b8ff" stroke="#63b8ff" points="841.35,-83.34 850.62,-78.22 840.18,-76.44 841.35,-83.34"/>
</a>
</g>
</g>
<!-- Node14 -->
<g id="Node000014" class="node">
<title>Node14</title>
<g id="a_Node000014"><a xlink:title=" ">
<polygon fill="#e0e0e0" stroke="#999999" points="738.62,-77.5 616.12,-77.5 616.12,-56.75 738.62,-56.75 738.62,-77.5"/>
<text xml:space="preserve" text-anchor="middle" x="677.38" y="-64" font-family="Helvetica,sans-Serif" font-size="10.00">fsl_device_registers.h</text>
</a>
</g>
</g>
<!-- Node11&#45;&gt;Node14 -->
<g id="edge15_Node000011_Node000014" class="edge">
<title>Node11&#45;&gt;Node14</title>
<g id="a_edge15_Node000011_Node000014"><a xlink:title=" ">
<path fill="none" stroke="#63b8ff" d="M602.64,-113.09C616.23,-104.91 635.85,-93.11 651.58,-83.65"/>
<polygon fill="#63b8ff" stroke="#63b8ff" points="653.19,-86.76 659.95,-78.61 649.58,-80.77 653.19,-86.76"/>
</a>
</g>
</g>
<!-- Node15 -->
<g id="Node000015" class="node">
<title>Node15</title>
<g id="a_Node000015"><a xlink:title=" ">
<polygon fill="#e0e0e0" stroke="#999999" points="815.75,-77.5 757,-77.5 757,-56.75 815.75,-56.75 815.75,-77.5"/>
<text xml:space="preserve" text-anchor="middle" x="786.38" y="-64" font-family="Helvetica,sans-Serif" font-size="10.00">fsl_ftm.h</text>
</a>
</g>
</g>
<!-- Node11&#45;&gt;Node15 -->
<g id="edge17_Node000011_Node000015" class="edge">
<title>Node11&#45;&gt;Node15</title>
<g id="a_edge17_Node000011_Node000015"><a xlink:title=" ">
<path fill="none" stroke="#63b8ff" d="M622.13,-113.09C656.95,-103.55 709.8,-89.09 746.09,-79.15"/>
<polygon fill="#63b8ff" stroke="#63b8ff" points="746.61,-82.64 755.33,-76.62 744.76,-75.89 746.61,-82.64"/>
</a>
</g>
</g>
<!-- Node16 -->
<g id="Node000016" class="node">
<title>Node16</title>
<g id="a_Node000016"><a xlink:title=" ">
<polygon fill="#e0e0e0" stroke="#999999" points="480,-77.5 416.75,-77.5 416.75,-56.75 480,-56.75 480,-77.5"/>
<text xml:space="preserve" text-anchor="middle" x="448.38" y="-64" font-family="Helvetica,sans-Serif" font-size="10.00">fsl_gpio.h</text>
</a>
</g>
</g>
<!-- Node11&#45;&gt;Node16 -->
<g id="edge18_Node000011_Node000016" class="edge">
<title>Node11&#45;&gt;Node16</title>
<g id="a_edge18_Node000011_Node000016"><a xlink:title=" ">
<path fill="none" stroke="#63b8ff" d="M561.7,-113.09C539.92,-104.44 507.92,-91.75 483.47,-82.05"/>
<polygon fill="#63b8ff" stroke="#63b8ff" points="484.83,-78.82 474.24,-78.39 482.24,-85.33 484.83,-78.82"/>
</a>
</g>
</g>
<!-- Node17 -->
<g id="Node000017" class="node">
<title>Node17</title>
<g id="a_Node000017"><a xlink:title=" ">
<polygon fill="#e0e0e0" stroke="#999999" points="560.25,-77.5 498.5,-77.5 498.5,-56.75 560.25,-56.75 560.25,-77.5"/>
<text xml:space="preserve" text-anchor="middle" x="529.38" y="-64" font-family="Helvetica,sans-Serif" font-size="10.00">fsl_port.h</text>
</a>
</g>
</g>
<!-- Node11&#45;&gt;Node17 -->
<g id="edge19_Node000011_Node000017" class="edge">
<title>Node11&#45;&gt;Node17</title>
<g id="a_edge19_Node000011_Node000017"><a xlink:title=" ">
<path fill="none" stroke="#63b8ff" d="M576.18,-113.09C568.24,-105.46 557.01,-94.67 547.54,-85.57"/>
<polygon fill="#63b8ff" stroke="#63b8ff" points="550.21,-83.28 540.57,-78.88 545.36,-88.33 550.21,-83.28"/>
</a>
</g>
</g>
<!-- Node12&#45;&gt;Node9 -->
<g id="edge13_Node000012_Node000009" class="edge">
<title>Node12&#45;&gt;Node9</title>
<g id="a_edge13_Node000012_Node000009"><a xlink:title=" ">
<path fill="none" stroke="#63b8ff" d="M834.44,-56.27C750.31,-45.36 616.76,-28.03 542.57,-18.41"/>
<polygon fill="#63b8ff" stroke="#63b8ff" points="543.06,-14.94 532.69,-17.12 542.16,-21.88 543.06,-14.94"/>
</a>
</g>
</g>
<!-- Node13 -->
<g id="Node000013" class="node">
<title>Node13</title>
<g id="a_Node000013"><a xlink:title=" ">
<polygon fill="#e0e0e0" stroke="#999999" points="950.25,-20.75 870.5,-20.75 870.5,0 950.25,0 950.25,-20.75"/>
<text xml:space="preserve" text-anchor="middle" x="910.38" y="-7.25" font-family="Helvetica,sans-Serif" font-size="10.00">peripherals.h</text>
</a>
</g>
</g>
<!-- Node12&#45;&gt;Node13 -->
<g id="edge14_Node000012_Node000013" class="edge">
<title>Node12&#45;&gt;Node13</title>
<g id="a_edge14_Node000012_Node000013"><a xlink:title=" ">
<path fill="none" stroke="#63b8ff" d="M910.38,-56.34C910.38,-49.72 910.38,-40.72 910.38,-32.52"/>
<polygon fill="#63b8ff" stroke="#63b8ff" points="913.88,-32.59 910.38,-22.59 906.88,-32.59 913.88,-32.59"/>
</a>
</g>
</g>
<!-- Node18&#45;&gt;Node4 -->
<g id="edge24_Node000018_Node000004" class="edge">
<title>Node18&#45;&gt;Node4</title>
<g id="a_edge24_Node000018_Node000004"><a xlink:title=" ">
<path fill="none" stroke="#63b8ff" d="M177.16,-169.78C193.29,-156.46 223.32,-132.23 250.38,-113.5 265.63,-102.94 283.33,-92.04 297.59,-83.57"/>
<polygon fill="#63b8ff" stroke="#63b8ff" points="299.13,-86.73 305.98,-78.64 295.58,-80.69 299.13,-86.73"/>
</a>
</g>
</g>
<!-- Node18&#45;&gt;Node5 -->
<g id="edge25_Node000018_Node000005" class="edge">
<title>Node18&#45;&gt;Node5</title>
<g id="a_edge25_Node000018_Node000005"><a xlink:title=" ">
<path fill="none" stroke="#63b8ff" d="M187.01,-169.84C205.85,-161.31 233.41,-148.84 254.73,-139.19"/>
<polygon fill="#63b8ff" stroke="#63b8ff" points="255.88,-142.51 263.55,-135.2 253,-136.14 255.88,-142.51"/>
</a>
</g>
</g>
<!-- Node18&#45;&gt;Node6 -->
<g id="edge26_Node000018_Node000006" class="edge">
<title>Node18&#45;&gt;Node6</title>
<g id="a_edge26_Node000018_Node000006"><a xlink:title=" ">
<path fill="none" stroke="#63b8ff" d="M164.48,-169.84C163.88,-163.22 163.06,-154.22 162.31,-146.02"/>
<polygon fill="#63b8ff" stroke="#63b8ff" points="165.79,-145.73 161.4,-136.09 158.82,-146.36 165.79,-145.73"/>
</a>
</g>
</g>
<!-- Node18&#45;&gt;Node7 -->
<g id="edge23_Node000018_Node000007" class="edge">
<title>Node18&#45;&gt;Node7</title>
<g id="a_edge23_Node000018_Node000007"><a xlink:title=" ">
<path fill="none" stroke="#63b8ff" d="M153.52,-170.12C129.95,-151.21 76.89,-108.64 47.3,-84.91"/>
<polygon fill="#63b8ff" stroke="#63b8ff" points="49.76,-82.4 39.77,-78.87 45.38,-87.86 49.76,-82.4"/>
</a>
</g>
</g>
<!-- Node19&#45;&gt;Node4 -->
<g id="edge28_Node000019_Node000004" class="edge">
<title>Node19&#45;&gt;Node4</title>
<g id="a_edge28_Node000019_Node000004"><a xlink:title=" ">
<path fill="none" stroke="#63b8ff" d="M378.58,-113.09C369.19,-105.3 355.84,-94.22 344.73,-85.01"/>
<polygon fill="#63b8ff" stroke="#63b8ff" points="347.17,-82.49 337.24,-78.79 342.7,-87.87 347.17,-82.49"/>
</a>
</g>
</g>
<!-- Node19&#45;&gt;Node9 -->
<g id="edge29_Node000019_Node000009" class="edge">
<title>Node19&#45;&gt;Node9</title>
<g id="a_edge29_Node000019_Node000009"><a xlink:title=" ">
<path fill="none" stroke="#63b8ff" d="M390.54,-113.32C391.24,-99.48 394.36,-73.66 407.38,-56.75 417.92,-43.05 433.84,-32.86 448.79,-25.65"/>
<polygon fill="#63b8ff" stroke="#63b8ff" points="449.82,-29.03 457.52,-21.75 446.97,-22.64 449.82,-29.03"/>
</a>
</g>
</g>
<!-- Node20&#45;&gt;Node3 -->
<g id="edge31_Node000020_Node000003" class="edge">
<title>Node20&#45;&gt;Node3</title>
<g id="a_edge31_Node000020_Node000003"><a xlink:title=" ">
<path fill="none" stroke="#63b8ff" d="M369.08,-226.59C361.98,-219.11 352,-208.61 343.47,-199.63"/>
<polygon fill="#63b8ff" stroke="#63b8ff" points="346.06,-197.27 336.63,-192.43 340.98,-202.09 346.06,-197.27"/>
</a>
</g>
</g>
<!-- Node21&#45;&gt;Node3 -->
<g id="edge33_Node000021_Node000003" class="edge">
<title>Node21&#45;&gt;Node3</title>
<g id="a_edge33_Node000021_Node000003"><a xlink:title=" ">
<path fill="none" stroke="#63b8ff" d="M451.2,-226.59C426.96,-217.86 391.22,-204.98 364.19,-195.25"/>
<polygon fill="#63b8ff" stroke="#63b8ff" points="365.59,-192.03 354.99,-191.93 363.22,-198.62 365.59,-192.03"/>
</a>
</g>
</g>
</g>
</svg>
