<?xml version="1.0" encoding="UTF-8" standalone="no"?>
<!DOCTYPE svg PUBLIC "-//W3C//DTD SVG 1.1//EN"
 "http://www.w3.org/Graphics/SVG/1.1/DTD/svg11.dtd">
<!-- Generated by graphviz version 14.1.3 (0)
 -->
<!-- Title: source/step.h Pages: 1 -->
<svg width="487pt" height="142pt"
 viewBox="0.00 0.00 487.00 142.00" xmlns="http://www.w3.org/2000/svg" xmlns:xlink="http://www.w3.org/1999/xlink">
<g id="graph0" class="graph" transform="scale(1 1) rotate(0) translate(4 138.25)">
<title>source/step.h</title>
<!-- Node1 -->
<g id="Node000001" class="node">
<title>Node1</title>
<g id="a_Node000001"><a xlink:title=" ">
<polygon fill="#999999" stroke="#666666" points="288.38,-134.25 207.12,-134.25 207.12,-113.5 288.38,-113.5 288.38,-134.25"/>
<text xml:space="preserve" text-anchor="middle" x="247.75" y="-120.75" font-family="Helvetica,sans-Serif" font-size="10.00">source/step.h</text>
</a>
</g>
</g>
<!-- Node2 -->
<g id="Node000002" class="node">
<title>Node2</title>
<g id="a_Node000002"><a xlink:href="application_8c.html" target="_top" xlink:title=" ">
<polygon fill="white" stroke="#666666" points="113.5,-20.75 0,-20.75 0,0 113.5,0 113.5,-20.75"/>
<text xml:space="preserve" text-anchor="middle" x="56.75" y="-7.25" font-family="Helvetica,sans-Serif" font-size="10.00">source/application.c</text>
</a>
</g>
</g>
<!-- Node1&#45;&gt;Node2 -->
<g id="edge1_Node000001_Node000002" class="edge">
<title>Node1&#45;&gt;Node2</title>
<g id="a_edge1_Node000001_Node000002"><a xlink:title=" ">
<path fill="none" stroke="#63b8ff" d="M221.31,-107.44C181.34,-84.11 106.7,-40.54 73.46,-21.13"/>
<polygon fill="#63b8ff" stroke="#63b8ff" points="219.43,-110.39 229.83,-112.41 222.96,-104.35 219.43,-110.39"/>
</a>
</g>
</g>
<!-- Node3 -->
<g id="Node000003" class="node">
<title>Node3</title>
<g id="a_Node000003"><a xlink:href="motor_8c.html" target="_top" xlink:title=" ">
<polygon fill="white" stroke="#666666" points="219.75,-20.75 131.75,-20.75 131.75,0 219.75,0 219.75,-20.75"/>
<text xml:space="preserve" text-anchor="middle" x="175.75" y="-7.25" font-family="Helvetica,sans-Serif" font-size="10.00">source/motor.c</text>
</a>
</g>
</g>
<!-- Node1&#45;&gt;Node3 -->
<g id="edge2_Node000001_Node000003" class="edge">
<title>Node1&#45;&gt;Node3</title>
<g id="a_edge2_Node000001_Node000003"><a xlink:title=" ">
<path fill="none" stroke="#63b8ff" d="M222.9,-106.5C212.88,-98.78 202,-88.77 194.75,-77.5 183.25,-59.61 178.56,-34.63 176.77,-21.07"/>
<polygon fill="#63b8ff" stroke="#63b8ff" points="220.73,-109.25 230.87,-112.29 224.84,-103.59 220.73,-109.25"/>
</a>
</g>
</g>
<!-- Node4 -->
<g id="Node000004" class="node">
<title>Node4</title>
<g id="a_Node000004"><a xlink:href="motor_8h.html" target="_top" xlink:title=" ">
<polygon fill="white" stroke="#666666" points="292.12,-77.5 203.38,-77.5 203.38,-56.75 292.12,-56.75 292.12,-77.5"/>
<text xml:space="preserve" text-anchor="middle" x="247.75" y="-64" font-family="Helvetica,sans-Serif" font-size="10.00">source/motor.h</text>
</a>
</g>
</g>
<!-- Node1&#45;&gt;Node4 -->
<g id="edge3_Node000001_Node000004" class="edge">
<title>Node1&#45;&gt;Node4</title>
<g id="a_edge3_Node000001_Node000004"><a xlink:title=" ">
<path fill="none" stroke="#63b8ff" d="M247.75,-101.63C247.75,-93.41 247.75,-84.43 247.75,-77.83"/>
<polygon fill="#63b8ff" stroke="#63b8ff" points="244.25,-101.57 247.75,-111.57 251.25,-101.57 244.25,-101.57"/>
</a>
</g>
</g>
<!-- Node5 -->
<g id="Node000005" class="node">
<title>Node5</title>
<g id="a_Node000005"><a xlink:href="motorCmd_8c.html" target="_top" xlink:title=" ">
<polygon fill="white" stroke="#666666" points="479.38,-20.75 368.12,-20.75 368.12,0 479.38,0 479.38,-20.75"/>
<text xml:space="preserve" text-anchor="middle" x="423.75" y="-7.25" font-family="Helvetica,sans-Serif" font-size="10.00">source/motorCmd.c</text>
</a>
</g>
</g>
<!-- Node1&#45;&gt;Node5 -->
<g id="edge8_Node000001_Node000005" class="edge">
<title>Node1&#45;&gt;Node5</title>
<g id="a_edge8_Node000001_Node000005"><a xlink:title=" ">
<path fill="none" stroke="#63b8ff" d="M269.1,-106.06C287.18,-92.15 314.03,-72.23 338.75,-56.75 360.16,-43.35 385.89,-29.97 403.39,-21.25"/>
<polygon fill="#63b8ff" stroke="#63b8ff" points="266.98,-103.28 261.22,-112.18 271.27,-108.81 266.98,-103.28"/>
</a>
</g>
</g>
<!-- Node7 -->
<g id="Node000007" class="node">
<title>Node7</title>
<g id="a_Node000007"><a xlink:href="step_8c.html" target="_top" xlink:title=" ">
<polygon fill="white" stroke="#666666" points="428,-77.5 347.5,-77.5 347.5,-56.75 428,-56.75 428,-77.5"/>
<text xml:space="preserve" text-anchor="middle" x="387.75" y="-64" font-family="Helvetica,sans-Serif" font-size="10.00">source/step.c</text>
</a>
</g>
</g>
<!-- Node1&#45;&gt;Node7 -->
<g id="edge9_Node000001_Node000007" class="edge">
<title>Node1&#45;&gt;Node7</title>
<g id="a_edge9_Node000001_Node000007"><a xlink:title=" ">
<path fill="none" stroke="#63b8ff" d="M283.26,-108.99C308.16,-99.25 340.81,-86.48 362.94,-77.83"/>
<polygon fill="#63b8ff" stroke="#63b8ff" points="282.23,-105.63 274.19,-112.54 284.78,-112.15 282.23,-105.63"/>
</a>
</g>
</g>
<!-- Node4&#45;&gt;Node2 -->
<g id="edge4_Node000004_Node000002" class="edge">
<title>Node4&#45;&gt;Node2</title>
<g id="a_edge4_Node000004_Node000002"><a xlink:title=" ">
<path fill="none" stroke="#63b8ff" d="M202.95,-53.28C168.7,-43.47 122.2,-30.14 90.92,-21.17"/>
<polygon fill="#63b8ff" stroke="#63b8ff" points="201.57,-56.53 212.15,-55.92 203.5,-49.8 201.57,-56.53"/>
</a>
</g>
</g>
<!-- Node4&#45;&gt;Node3 -->
<g id="edge5_Node000004_Node000003" class="edge">
<title>Node4&#45;&gt;Node3</title>
<g id="a_edge5_Node000004_Node000003"><a xlink:title=" ">
<path fill="none" stroke="#63b8ff" d="M225.77,-49.41C213.57,-40.13 198.82,-28.92 188.51,-21.08"/>
<polygon fill="#63b8ff" stroke="#63b8ff" points="223.59,-52.15 233.67,-55.42 227.83,-46.58 223.59,-52.15"/>
</a>
</g>
</g>
<!-- Node4&#45;&gt;Node5 -->
<g id="edge6_Node000004_Node000005" class="edge">
<title>Node4&#45;&gt;Node5</title>
<g id="a_edge6_Node000004_Node000005"><a xlink:title=" ">
<path fill="none" stroke="#63b8ff" d="M289.85,-53.03C321.33,-43.24 363.69,-30.06 392.26,-21.17"/>
<polygon fill="#63b8ff" stroke="#63b8ff" points="289.17,-49.57 280.66,-55.89 291.25,-56.26 289.17,-49.57"/>
</a>
</g>
</g>
<!-- Node6 -->
<g id="Node000006" class="node">
<title>Node6</title>
<g id="a_Node000006"><a xlink:href="motor__test_8c.html" target="_top" xlink:title=" ">
<polygon fill="white" stroke="#666666" points="350.12,-20.75 237.38,-20.75 237.38,0 350.12,0 350.12,-20.75"/>
<text xml:space="preserve" text-anchor="middle" x="293.75" y="-7.25" font-family="Helvetica,sans-Serif" font-size="10.00">source/motor_test.c</text>
</a>
</g>
</g>
<!-- Node4&#45;&gt;Node6 -->
<g id="edge7_Node000004_Node000006" class="edge">
<title>Node4&#45;&gt;Node6</title>
<g id="a_edge7_Node000004_Node000006"><a xlink:title=" ">
<path fill="none" stroke="#63b8ff" d="M263.2,-47.74C270.7,-38.81 279.4,-28.45 285.6,-21.08"/>
<polygon fill="#63b8ff" stroke="#63b8ff" points="260.7,-45.27 256.95,-55.18 266.06,-49.77 260.7,-45.27"/>
</a>
</g>
</g>
</g>
</svg>
