<?xml version="1.0" encoding="UTF-8" standalone="no"?>
<!DOCTYPE svg PUBLIC "-//W3C//DTD SVG 1.1//EN"
 "http://www.w3.org/Graphics/SVG/1.1/DTD/svg11.dtd">
<!-- Generated by graphviz version 14.1.3 (0)
 -->
<!-- Title: source/step.c Pages: 1 -->
<svg width="573pt" height="199pt"
 viewBox="0.00 0.00 573.00 199.00" xmlns="http://www.w3.org/2000/svg" xmlns:xlink="http://www.w3.org/1999/xlink">
<g id="graph0" class="graph" transform="scale(1 1) rotate(0) translate(4 195)">
<title>source/step.c</title>
<!-- Node1 -->
<g id="Node000001" class="node">
<title>Node1</title>
<g id="a_Node000001"><a xlink:title=" ">
<polygon fill="#999999" stroke="#666666" points="318.62,-191 238.12,-191 238.12,-170.25 318.62,-170.25 318.62,-191"/>
<text xml:space="preserve" text-anchor="middle" x="278.38" y="-177.5" font-family="Helvetica,sans-Serif" font-size="10.00">source/step.c</text>
</a>
</g>
</g>
<!-- Node2 -->
<g id="Node000002" class="node">
<title>Node2</title>
<g id="a_Node000002"><a xlink:href="step_8h.html" target="_top" xlink:title=" ">
<polygon fill="white" stroke="#666666" points="301.38,-134.25 255.38,-134.25 255.38,-113.5 301.38,-113.5 301.38,-134.25"/>
<text xml:space="preserve" text-anchor="middle" x="278.38" y="-120.75" font-family="Helvetica,sans-Serif" font-size="10.00">step.h</text>
</a>
</g>
</g>
<!-- Node1&#45;&gt;Node2 -->
<g id="edge1_Node000001_Node000002" class="edge">
<title>Node1&#45;&gt;Node2</title>
<g id="a_edge1_Node000001_Node000002"><a xlink:title=" ">
<path fill="none" stroke="#63b8ff" d="M278.38,-169.84C278.38,-163.22 278.38,-154.22 278.38,-146.02"/>
<polygon fill="#63b8ff" stroke="#63b8ff" points="281.88,-146.09 278.38,-136.09 274.88,-146.09 281.88,-146.09"/>
</a>
</g>
</g>
<!-- Node9 -->
<g id="Node000009" class="node">
<title>Node9</title>
<g id="a_Node000009"><a xlink:href="log_8h.html" target="_top" xlink:title=" ">
<polygon fill="white" stroke="#666666" points="110.38,-77.5 70.38,-77.5 70.38,-56.75 110.38,-56.75 110.38,-77.5"/>
<text xml:space="preserve" text-anchor="middle" x="90.38" y="-64" font-family="Helvetica,sans-Serif" font-size="10.00">log.h</text>
</a>
</g>
</g>
<!-- Node1&#45;&gt;Node9 -->
<g id="edge8_Node000001_Node000009" class="edge">
<title>Node1&#45;&gt;Node9</title>
<g id="a_edge8_Node000001_Node000009"><a xlink:title=" ">
<path fill="none" stroke="#63b8ff" d="M237.96,-178.15C201.93,-174.76 149.86,-164.5 116.38,-134.25 103.36,-122.49 96.78,-103.4 93.5,-88.74"/>
<polygon fill="#63b8ff" stroke="#63b8ff" points="97,-88.41 91.74,-79.22 90.12,-89.69 97,-88.41"/>
</a>
</g>
</g>
<!-- Node10 -->
<g id="Node000010" class="node">
<title>Node10</title>
<g id="a_Node000010"><a xlink:title=" ">
<polygon fill="#e0e0e0" stroke="#999999" points="369.62,-134.25 319.12,-134.25 319.12,-113.5 369.62,-113.5 369.62,-134.25"/>
<text xml:space="preserve" text-anchor="middle" x="344.38" y="-120.75" font-family="Helvetica,sans-Serif" font-size="10.00">math.h</text>
</a>
</g>
</g>
<!-- Node1&#45;&gt;Node10 -->
<g id="edge11_Node000001_Node000010" class="edge">
<title>Node1&#45;&gt;Node10</title>
<g id="a_edge11_Node000001_Node000010"><a xlink:title=" ">
<path fill="none" stroke="#63b8ff" d="M290.17,-169.84C299.56,-162.05 312.91,-150.97 324.02,-141.76"/>
<polygon fill="#63b8ff" stroke="#63b8ff" points="326.05,-144.62 331.51,-135.54 321.58,-139.24 326.05,-144.62"/>
</a>
</g>
</g>
<!-- Node11 -->
<g id="Node000011" class="node">
<title>Node11</title>
<g id="a_Node000011"><a xlink:title=" ">
<polygon fill="#e0e0e0" stroke="#999999" points="467.25,-134.25 387.5,-134.25 387.5,-113.5 467.25,-113.5 467.25,-134.25"/>
<text xml:space="preserve" text-anchor="middle" x="427.38" y="-120.75" font-family="Helvetica,sans-Serif" font-size="10.00">peripherals.h</text>
</a>
</g>
</g>
<!-- Node1&#45;&gt;Node11 -->
<g id="edge12_Node000001_Node000011" class="edge">
<title>Node1&#45;&gt;Node11</title>
<g id="a_edge12_Node000001_Node000011"><a xlink:title=" ">
<path fill="none" stroke="#63b8ff" d="M305.01,-169.84C328.67,-161.14 363.49,-148.35 389.95,-138.63"/>
<polygon fill="#63b8ff" stroke="#63b8ff" points="391.12,-141.93 399.3,-135.19 388.7,-135.36 391.12,-141.93"/>
</a>
</g>
</g>
<!-- Node12 -->
<g id="Node000012" class="node">
<title>Node12</title>
<g id="a_Node000012"><a xlink:title=" ">
<polygon fill="#e0e0e0" stroke="#999999" points="533.88,-134.25 484.88,-134.25 484.88,-113.5 533.88,-113.5 533.88,-134.25"/>
<text xml:space="preserve" text-anchor="middle" x="509.38" y="-120.75" font-family="Helvetica,sans-Serif" font-size="10.00">stdio.h</text>
</a>
</g>
</g>
<!-- Node1&#45;&gt;Node12 -->
<g id="edge13_Node000001_Node000012" class="edge">
<title>Node1&#45;&gt;Node12</title>
<g id="a_edge13_Node000001_Node000012"><a xlink:title=" ">
<path fill="none" stroke="#63b8ff" d="M319.1,-170.94C356.88,-162.73 414.93,-149.77 473.59,-134.88"/>
<polygon fill="#63b8ff" stroke="#63b8ff" points="474.26,-138.32 483.08,-132.45 472.52,-131.54 474.26,-138.32"/>
</a>
</g>
</g>
<!-- Node13 -->
<g id="Node000013" class="node">
<title>Node13</title>
<g id="a_Node000013"><a xlink:title=" ">
<polygon fill="#e0e0e0" stroke="#999999" points="52.75,-77.5 0,-77.5 0,-56.75 52.75,-56.75 52.75,-77.5"/>
<text xml:space="preserve" text-anchor="middle" x="26.38" y="-64" font-family="Helvetica,sans-Serif" font-size="10.00">string.h</text>
</a>
</g>
</g>
<!-- Node1&#45;&gt;Node13 -->
<g id="edge14_Node000001_Node000013" class="edge">
<title>Node1&#45;&gt;Node13</title>
<g id="a_edge14_Node000001_Node000013"><a xlink:title=" ">
<path fill="none" stroke="#63b8ff" d="M237.69,-175.19C199.78,-169.75 142.62,-158.13 98.38,-134.25 75.86,-122.1 54.9,-101.34 41.47,-86.31"/>
<polygon fill="#63b8ff" stroke="#63b8ff" points="44.31,-84.25 35.12,-78.97 39.02,-88.83 44.31,-84.25"/>
</a>
</g>
</g>
<!-- Node14 -->
<g id="Node000014" class="node">
<title>Node14</title>
<g id="a_Node000014"><a xlink:href="task__helpers_8h.html" target="_top" xlink:title=" ">
<polygon fill="white" stroke="#666666" points="213,-134.25 125.75,-134.25 125.75,-113.5 213,-113.5 213,-134.25"/>
<text xml:space="preserve" text-anchor="middle" x="169.38" y="-120.75" font-family="Helvetica,sans-Serif" font-size="10.00">task_helpers.h</text>
</a>
</g>
</g>
<!-- Node1&#45;&gt;Node14 -->
<g id="edge15_Node000001_Node000014" class="edge">
<title>Node1&#45;&gt;Node14</title>
<g id="a_edge15_Node000001_Node000014"><a xlink:title=" ">
<path fill="none" stroke="#63b8ff" d="M258.89,-169.84C242.23,-161.47 217.99,-149.29 198.94,-139.72"/>
<polygon fill="#63b8ff" stroke="#63b8ff" points="200.55,-136.62 190.05,-135.26 197.41,-142.87 200.55,-136.62"/>
</a>
</g>
</g>
<!-- Node3 -->
<g id="Node000003" class="node">
<title>Node3</title>
<g id="a_Node000003"><a xlink:title=" ">
<polygon fill="#e0e0e0" stroke="#999999" points="246.12,-20.75 174.62,-20.75 174.62,0 246.12,0 246.12,-20.75"/>
<text xml:space="preserve" text-anchor="middle" x="210.38" y="-7.25" font-family="Helvetica,sans-Serif" font-size="10.00">FreeRTOS.h</text>
</a>
</g>
</g>
<!-- Node2&#45;&gt;Node3 -->
<g id="edge2_Node000002_Node000003" class="edge">
<title>Node2&#45;&gt;Node3</title>
<g id="a_edge2_Node000002_Node000003"><a xlink:title=" ">
<path fill="none" stroke="#63b8ff" d="M301.76,-115.88C304.65,-115.06 307.58,-114.25 310.38,-113.5 378.84,-95.21 504.77,-111.16 459.38,-56.75 434.15,-26.51 322.18,-16.37 257.31,-13.01"/>
<polygon fill="#63b8ff" stroke="#63b8ff" points="257.83,-9.53 247.67,-12.55 257.49,-16.52 257.83,-9.53"/>
</a>
</g>
</g>
<!-- Node4 -->
<g id="Node000004" class="node">
<title>Node4</title>
<g id="a_Node000004"><a xlink:title=" ">
<polygon fill="#e0e0e0" stroke="#999999" points="250.38,-77.5 204.38,-77.5 204.38,-56.75 250.38,-56.75 250.38,-77.5"/>
<text xml:space="preserve" text-anchor="middle" x="227.38" y="-64" font-family="Helvetica,sans-Serif" font-size="10.00">task.h</text>
</a>
</g>
</g>
<!-- Node2&#45;&gt;Node4 -->
<g id="edge3_Node000002_Node000004" class="edge">
<title>Node2&#45;&gt;Node4</title>
<g id="a_edge3_Node000002_Node000004"><a xlink:title=" ">
<path fill="none" stroke="#63b8ff" d="M269.26,-113.09C262.29,-105.61 252.51,-95.11 244.14,-86.13"/>
<polygon fill="#63b8ff" stroke="#63b8ff" points="246.82,-83.87 237.45,-78.94 241.7,-88.64 246.82,-83.87"/>
</a>
</g>
</g>
<!-- Node5 -->
<g id="Node000005" class="node">
<title>Node5</title>
<g id="a_Node000005"><a xlink:title=" ">
<polygon fill="#e0e0e0" stroke="#999999" points="156.88,-20.75 71.88,-20.75 71.88,0 156.88,0 156.88,-20.75"/>
<text xml:space="preserve" text-anchor="middle" x="114.38" y="-7.25" font-family="Helvetica,sans-Serif" font-size="10.00">fsl_common.h</text>
</a>
</g>
</g>
<!-- Node2&#45;&gt;Node5 -->
<g id="edge4_Node000002_Node000005" class="edge">
<title>Node2&#45;&gt;Node5</title>
<g id="a_edge4_Node000002_Node000005"><a xlink:title=" ">
<path fill="none" stroke="#63b8ff" d="M278.34,-113.39C277.76,-99.16 274.57,-72.3 259.38,-56.75 246.39,-43.45 203.76,-31.05 168.06,-22.58"/>
<polygon fill="#63b8ff" stroke="#63b8ff" points="169.25,-19.26 158.72,-20.42 167.68,-26.08 169.25,-19.26"/>
</a>
</g>
</g>
<!-- Node6 -->
<g id="Node000006" class="node">
<title>Node6</title>
<g id="a_Node000006"><a xlink:title=" ">
<polygon fill="#e0e0e0" stroke="#999999" points="564.75,-77.5 506,-77.5 506,-56.75 564.75,-56.75 564.75,-77.5"/>
<text xml:space="preserve" text-anchor="middle" x="535.38" y="-64" font-family="Helvetica,sans-Serif" font-size="10.00">fsl_ftm.h</text>
</a>
</g>
</g>
<!-- Node2&#45;&gt;Node6 -->
<g id="edge5_Node000002_Node000006" class="edge">
<title>Node2&#45;&gt;Node6</title>
<g id="a_edge5_Node000002_Node000006"><a xlink:title=" ">
<path fill="none" stroke="#63b8ff" d="M301.73,-115.77C304.63,-114.97 307.56,-114.19 310.38,-113.5 390.47,-93.89 411.64,-94.28 492.38,-77.5 493.19,-77.33 494.01,-77.16 494.84,-76.99"/>
<polygon fill="#63b8ff" stroke="#63b8ff" points="495.25,-80.48 504.3,-74.97 493.79,-73.63 495.25,-80.48"/>
</a>
</g>
</g>
<!-- Node7 -->
<g id="Node000007" class="node">
<title>Node7</title>
<g id="a_Node000007"><a xlink:title=" ">
<polygon fill="#e0e0e0" stroke="#999999" points="370,-77.5 306.75,-77.5 306.75,-56.75 370,-56.75 370,-77.5"/>
<text xml:space="preserve" text-anchor="middle" x="338.38" y="-64" font-family="Helvetica,sans-Serif" font-size="10.00">fsl_gpio.h</text>
</a>
</g>
</g>
<!-- Node2&#45;&gt;Node7 -->
<g id="edge6_Node000002_Node000007" class="edge">
<title>Node2&#45;&gt;Node7</title>
<g id="a_edge6_Node000002_Node000007"><a xlink:title=" ">
<path fill="none" stroke="#63b8ff" d="M289.1,-113.09C297.46,-105.46 309.29,-94.67 319.26,-85.57"/>
<polygon fill="#63b8ff" stroke="#63b8ff" points="321.6,-88.17 326.62,-78.85 316.88,-83 321.6,-88.17"/>
</a>
</g>
</g>
<!-- Node8 -->
<g id="Node000008" class="node">
<title>Node8</title>
<g id="a_Node000008"><a xlink:title=" ">
<polygon fill="#e0e0e0" stroke="#999999" points="450.25,-77.5 388.5,-77.5 388.5,-56.75 450.25,-56.75 450.25,-77.5"/>
<text xml:space="preserve" text-anchor="middle" x="419.38" y="-64" font-family="Helvetica,sans-Serif" font-size="10.00">fsl_port.h</text>
</a>
</g>
</g>
<!-- Node2&#45;&gt;Node8 -->
<g id="edge7_Node000002_Node000008" class="edge">
<title>Node2&#45;&gt;Node8</title>
<g id="a_edge7_Node000002_Node000008"><a xlink:title=" ">
<path fill="none" stroke="#63b8ff" d="M301.66,-113.83C323.97,-105.17 357.96,-91.97 383.69,-81.98"/>
<polygon fill="#63b8ff" stroke="#63b8ff" points="384.69,-85.35 392.74,-78.47 382.15,-78.82 384.69,-85.35"/>
</a>
</g>
</g>
<!-- Node9&#45;&gt;Node3 -->
<g id="edge9_Node000009_Node000003" class="edge">
<title>Node9&#45;&gt;Node3</title>
<g id="a_edge9_Node000009_Node000003"><a xlink:title=" ">
<path fill="none" stroke="#63b8ff" d="M110.73,-56.84C129.38,-48.33 157.28,-35.6 178.81,-25.78"/>
<polygon fill="#63b8ff" stroke="#63b8ff" points="180.09,-29.04 187.73,-21.71 177.18,-22.67 180.09,-29.04"/>
</a>
</g>
</g>
<!-- Node9&#45;&gt;Node5 -->
<g id="edge10_Node000009_Node000005" class="edge">
<title>Node9&#45;&gt;Node5</title>
<g id="a_edge10_Node000009_Node000005"><a xlink:title=" ">
<path fill="none" stroke="#63b8ff" d="M94.67,-56.34C97.7,-49.41 101.88,-39.87 105.61,-31.36"/>
<polygon fill="#63b8ff" stroke="#63b8ff" points="108.7,-33.03 109.51,-22.46 102.29,-30.22 108.7,-33.03"/>
</a>
</g>
</g>
<!-- Node14&#45;&gt;Node3 -->
<g id="edge16_Node000014_Node000003" class="edge">
<title>Node14&#45;&gt;Node3</title>
<g id="a_edge16_Node000014_Node000003"><a xlink:title=" ">
<path fill="none" stroke="#63b8ff" d="M172.87,-113.37C179.49,-95.36 194.01,-55.89 202.91,-31.68"/>
<polygon fill="#63b8ff" stroke="#63b8ff" points="206.08,-33.19 206.25,-22.6 199.51,-30.77 206.08,-33.19"/>
</a>
</g>
</g>
<!-- Node14&#45;&gt;Node4 -->
<g id="edge17_Node000014_Node000004" class="edge">
<title>Node14&#45;&gt;Node4</title>
<g id="a_edge17_Node000014_Node000004"><a xlink:title=" ">
<path fill="none" stroke="#63b8ff" d="M179.74,-113.09C187.83,-105.46 199.26,-94.67 208.9,-85.57"/>
<polygon fill="#63b8ff" stroke="#63b8ff" points="211.13,-88.28 215.99,-78.87 206.32,-83.19 211.13,-88.28"/>
</a>
</g>
</g>
<!-- Node14&#45;&gt;Node5 -->
<g id="edge18_Node000014_Node000005" class="edge">
<title>Node14&#45;&gt;Node5</title>
<g id="a_edge18_Node000014_Node000005"><a xlink:title=" ">
<path fill="none" stroke="#63b8ff" d="M164.69,-113.37C155.76,-95.27 136.16,-55.53 124.23,-31.35"/>
<polygon fill="#63b8ff" stroke="#63b8ff" points="127.44,-29.95 119.88,-22.53 121.16,-33.05 127.44,-29.95"/>
</a>
</g>
</g>
<!-- Node14&#45;&gt;Node9 -->
<g id="edge19_Node000014_Node000009" class="edge">
<title>Node14&#45;&gt;Node9</title>
<g id="a_edge19_Node000014_Node000009"><a xlink:title=" ">
<path fill="none" stroke="#63b8ff" d="M155.25,-113.09C143.68,-105.07 127.07,-93.56 113.56,-84.19"/>
<polygon fill="#63b8ff" stroke="#63b8ff" points="115.83,-81.51 105.62,-78.69 111.85,-87.26 115.83,-81.51"/>
</a>
</g>
</g>
<!-- Node14&#45;&gt;Node13 -->
<g id="edge20_Node000014_Node000013" class="edge">
<title>Node14&#45;&gt;Node13</title>
<g id="a_edge20_Node000014_Node000013"><a xlink:title=" ">
<path fill="none" stroke="#63b8ff" d="M143.81,-113.09C121.14,-104.41 87.78,-91.63 62.4,-81.92"/>
<polygon fill="#63b8ff" stroke="#63b8ff" points="63.72,-78.68 53.13,-78.37 61.22,-85.21 63.72,-78.68"/>
</a>
</g>
</g>
</g>
</svg>
