<?xml version="1.0" encoding="UTF-8" standalone="no"?>
<!DOCTYPE svg PUBLIC "-//W3C//DTD SVG 1.1//EN"
 "http://www.w3.org/Graphics/SVG/1.1/DTD/svg11.dtd">
<!-- Generated by graphviz version 14.1.5 (0)
 -->
<!-- Title: source/motion/stepper/step_timing.c Pages: 1 -->
<!--zoomable 325 -->

<svg id="main" version="1.1" xmlns="http://www.w3.org/2000/svg" xmlns:xlink="http://www.w3.org/1999/xlink" xml:space="preserve" onload="init(evt)">

<style type="text/css"><![CDATA[
.node, .edge {opacity: 0.7;}
.node.selected, .edge.selected {opacity: 1;}
.edge:hover path { stroke: red; }
.edge:hover polygon { stroke: red; fill: red; }
]]></style>

<defs>
  <circle id="rim" cx="0" cy="0" r="7"/>
  <circle id="rim2" cx="0" cy="0" r="3.5"/>
  <g id="zoomPlus">
    <use xlink:href="#rim" fill="#404040"><set attributeName="fill" to="#808080" begin="zoomplus.mouseover" end="zoomplus.mouseout"/></use>
    <path d="M-4,0h8M0,-4v8" fill="none" stroke="white" stroke-width="1.5" pointer-events="none"/>
  </g>
  <g id="zoomMin">
    <use xlink:href="#rim" fill="#404040"><set attributeName="fill" to="#808080" begin="zoomminus.mouseover" end="zoomminus.mouseout"/></use>
    <path d="M-4,0h8" fill="none" stroke="white" stroke-width="1.5" pointer-events="none"/>
  </g>
  <g id="arrowUp" transform="translate(30 24)">
    <use xlink:href="#rim"/>
    <path pointer-events="none" fill="none" stroke="white" stroke-width="1.5" d="M0,-3.0v7 M-2.5,-0.5L0,-3.0L2.5,-0.5"/>
  </g>
  <g id="arrowRight" transform="rotate(90) translate(36 -43)">
    <use xlink:href="#rim"/>
    <path pointer-events="none" fill="none" stroke="white" stroke-width="1.5" d="M0,-3.0v7 M-2.5,-0.5L0,-3.0L2.5,-0.5"/>
  </g>
  <g id="arrowDown" transform="rotate(180) translate(-30 -48)">
    <use xlink:href="#rim"/>
    <path pointer-events="none" fill="none" stroke="white" stroke-width="1.5" d="M0,-3.0v7 M-2.5,-0.5L0,-3.0L2.5,-0.5"/>
  </g>
  <g id="arrowLeft" transform="rotate(270) translate(-36 17)">
    <use xlink:href="#rim"/>
    <path pointer-events="none" fill="none" stroke="white" stroke-width="1.5" d="M0,-3.0v7 M-2.5,-0.5L0,-3.0L2.5,-0.5"/>
  </g>
  <g id="resetDef">
    <use xlink:href="#rim2" fill="#404040"><set attributeName="fill" to="#808080" begin="reset.mouseover" end="reset.mouseout"/></use>
  </g>
</defs>
<script type="application/ecmascript">
var viewWidth = 972;
var viewHeight = 325;
var sectionId = 'dynsection-0';
</script>
<script type="application/ecmascript" xlink:href="svg.min.js"/>
<svg id="graph" class="graph">
<g id="viewport">
<title>source/motion/stepper/step_timing.c</title>
<!-- Node1 -->
<g id="Node000001" class="node">
<title>Node1</title>
<g id="a_Node000001"><a xlink:title=" ">
<polygon fill="#999999" stroke="#666666" points="715.75,-317.25 590.25,-317.25 590.25,-283.75 715.75,-283.75 715.75,-317.25"/>
<text xml:space="preserve" text-anchor="start" x="598.25" y="-303.75" font-family="Helvetica,sans-Serif" font-size="10.00">source/motion/stepper</text>
<text xml:space="preserve" text-anchor="middle" x="653" y="-291" font-family="Helvetica,sans-Serif" font-size="10.00">/step_timing.c</text>
</a>
</g>
</g>
<!-- Node2 -->
<g id="Node000002" class="node">
<title>Node2</title>
<g id="a_Node000002"><a xlink:href="step__timing_8h.html" target="_top" xlink:title=" ">
<polygon fill="white" stroke="#666666" points="572.38,-247.75 489.62,-247.75 489.62,-227 572.38,-227 572.38,-247.75"/>
<text xml:space="preserve" text-anchor="middle" x="531" y="-234.25" font-family="Helvetica,sans-Serif" font-size="10.00">step_timing.h</text>
</a>
</g>
</g>
<!-- Node1&#45;&gt;Node2 -->
<g id="edge1_Node000001_Node000002" class="edge">
<title>Node1&#45;&gt;Node2</title>
<g id="a_edge1_Node000001_Node000002"><a xlink:title=" ">
<path fill="none" stroke="#63b8ff" d="M620.63,-283.28C602.07,-273.98 578.93,-262.39 560.82,-253.31"/>
<polygon fill="#63b8ff" stroke="#63b8ff" points="562.4,-250.19 551.89,-248.84 559.27,-256.45 562.4,-250.19"/>
</a>
</g>
</g>
<!-- Node3 -->
<g id="Node000003" class="node">
<title>Node3</title>
<g id="a_Node000003"><a xlink:href="step__internal_8h.html" target="_top" xlink:title=" ">
<polygon fill="white" stroke="#666666" points="650.38,-191 561.62,-191 561.62,-170.25 650.38,-170.25 650.38,-191"/>
<text xml:space="preserve" text-anchor="middle" x="606" y="-177.5" font-family="Helvetica,sans-Serif" font-size="10.00">step_internal.h</text>
</a>
</g>
</g>
<!-- Node1&#45;&gt;Node3 -->
<g id="edge23_Node000001_Node000003" class="edge">
<title>Node1&#45;&gt;Node3</title>
<g id="a_edge23_Node000001_Node000003"><a xlink:title=" ">
<path fill="none" stroke="#63b8ff" d="M640.7,-283.55C633.67,-273.72 625.24,-260.57 620,-247.75 614.08,-233.26 610.53,-215.92 608.48,-202.63"/>
<polygon fill="#63b8ff" stroke="#63b8ff" points="611.97,-202.3 607.16,-192.86 605.03,-203.24 611.97,-202.3"/>
</a>
</g>
</g>
<!-- Node12 -->
<g id="Node000012" class="node">
<title>Node12</title>
<g id="a_Node000012"><a xlink:href="step__shared_8h.html" target="_top" xlink:title=" ">
<polygon fill="white" stroke="#666666" points="498.12,-134.25 413.88,-134.25 413.88,-113.5 498.12,-113.5 498.12,-134.25"/>
<text xml:space="preserve" text-anchor="middle" x="456" y="-120.75" font-family="Helvetica,sans-Serif" font-size="10.00">step_shared.h</text>
</a>
</g>
</g>
<!-- Node1&#45;&gt;Node12 -->
<g id="edge24_Node000001_Node000012" class="edge">
<title>Node1&#45;&gt;Node12</title>
<g id="a_edge24_Node000001_Node000012"><a xlink:title=" ">
<path fill="none" stroke="#63b8ff" d="M590.14,-296.18C553.27,-290.87 508.64,-278.04 481,-247.75 455.41,-219.71 453.08,-172.85 454.2,-145.83"/>
<polygon fill="#63b8ff" stroke="#63b8ff" points="457.67,-146.35 454.82,-136.14 450.69,-145.9 457.67,-146.35"/>
</a>
</g>
</g>
<!-- Node19 -->
<g id="Node000019" class="node">
<title>Node19</title>
<g id="a_Node000019"><a xlink:title=" ">
<polygon fill="#e0e0e0" stroke="#999999" points="677.5,-247.75 628.5,-247.75 628.5,-227 677.5,-227 677.5,-247.75"/>
<text xml:space="preserve" text-anchor="middle" x="653" y="-234.25" font-family="Helvetica,sans-Serif" font-size="10.00">stdio.h</text>
</a>
</g>
</g>
<!-- Node1&#45;&gt;Node19 -->
<g id="edge25_Node000001_Node000019" class="edge">
<title>Node1&#45;&gt;Node19</title>
<g id="a_edge25_Node000001_Node000019"><a xlink:title=" ">
<path fill="none" stroke="#63b8ff" d="M653,-283.44C653,-276.1 653,-267.32 653,-259.46"/>
<polygon fill="#63b8ff" stroke="#63b8ff" points="656.5,-259.73 653,-249.73 649.5,-259.73 656.5,-259.73"/>
</a>
</g>
</g>
<!-- Node20 -->
<g id="Node000020" class="node">
<title>Node20</title>
<g id="a_Node000020"><a xlink:href="step__profile_8h.html" target="_top" xlink:title=" ">
<polygon fill="white" stroke="#666666" points="778,-247.75 696,-247.75 696,-227 778,-227 778,-247.75"/>
<text xml:space="preserve" text-anchor="middle" x="737" y="-234.25" font-family="Helvetica,sans-Serif" font-size="10.00">step_profile.h</text>
</a>
</g>
</g>
<!-- Node1&#45;&gt;Node20 -->
<g id="edge26_Node000001_Node000020" class="edge">
<title>Node1&#45;&gt;Node20</title>
<g id="a_edge26_Node000001_Node000020"><a xlink:title=" ">
<path fill="none" stroke="#63b8ff" d="M675.07,-283.44C687.19,-274.62 702.19,-263.7 714.4,-254.82"/>
<polygon fill="#63b8ff" stroke="#63b8ff" points="716.22,-257.82 722.25,-249.11 712.11,-252.16 716.22,-257.82"/>
</a>
</g>
</g>
<!-- Node21 -->
<g id="Node000021" class="node">
<title>Node21</title>
<g id="a_Node000021"><a xlink:href="cmd__dispatch_8h.html" target="_top" xlink:title=" ">
<polygon fill="white" stroke="#666666" points="834.25,-191 741.75,-191 741.75,-170.25 834.25,-170.25 834.25,-191"/>
<text xml:space="preserve" text-anchor="middle" x="788" y="-177.5" font-family="Helvetica,sans-Serif" font-size="10.00">cmd_dispatch.h</text>
</a>
</g>
</g>
<!-- Node1&#45;&gt;Node21 -->
<g id="edge28_Node000001_Node000021" class="edge">
<title>Node1&#45;&gt;Node21</title>
<g id="a_edge28_Node000001_Node000021"><a xlink:title=" ">
<path fill="none" stroke="#63b8ff" d="M715.94,-290.93C742.39,-283.89 770.74,-271.07 787,-247.75 796.14,-234.64 795.63,-216.23 793.27,-202.17"/>
<polygon fill="#63b8ff" stroke="#63b8ff" points="796.75,-201.69 791.23,-192.65 789.9,-203.16 796.75,-201.69"/>
</a>
</g>
</g>
<!-- Node22 -->
<g id="Node000022" class="node">
<title>Node22</title>
<g id="a_Node000022"><a xlink:href="log_8h.html" target="_top" xlink:title=" ">
<polygon fill="white" stroke="#666666" points="964,-134.25 924,-134.25 924,-113.5 964,-113.5 964,-134.25"/>
<text xml:space="preserve" text-anchor="middle" x="944" y="-120.75" font-family="Helvetica,sans-Serif" font-size="10.00">log.h</text>
</a>
</g>
</g>
<!-- Node1&#45;&gt;Node22 -->
<g id="edge33_Node000001_Node000022" class="edge">
<title>Node1&#45;&gt;Node22</title>
<g id="a_edge33_Node000001_Node000022"><a xlink:title=" ">
<path fill="none" stroke="#63b8ff" d="M716.05,-284.13C744.37,-275.71 777.52,-263.71 805,-247.75 855.33,-218.53 903.86,-169.34 928.06,-142.93"/>
<polygon fill="#63b8ff" stroke="#63b8ff" points="930.45,-145.5 934.55,-135.73 925.25,-140.81 930.45,-145.5"/>
</a>
</g>
</g>
<!-- Node2&#45;&gt;Node3 -->
<g id="edge2_Node000002_Node000003" class="edge">
<title>Node2&#45;&gt;Node3</title>
<g id="a_edge2_Node000002_Node000003"><a xlink:title=" ">
<path fill="none" stroke="#63b8ff" d="M544.41,-226.59C555.29,-218.65 570.86,-207.28 583.62,-197.96"/>
<polygon fill="#63b8ff" stroke="#63b8ff" points="585.47,-200.94 591.49,-192.22 581.34,-195.29 585.47,-200.94"/>
</a>
</g>
</g>
<!-- Node4 -->
<g id="Node000004" class="node">
<title>Node4</title>
<g id="a_Node000004"><a xlink:title=" ">
<polygon fill="#e0e0e0" stroke="#999999" points="641.38,-77.5 588.62,-77.5 588.62,-56.75 641.38,-56.75 641.38,-77.5"/>
<text xml:space="preserve" text-anchor="middle" x="615" y="-64" font-family="Helvetica,sans-Serif" font-size="10.00">stdint.h</text>
</a>
</g>
</g>
<!-- Node3&#45;&gt;Node4 -->
<g id="edge3_Node000003_Node000004" class="edge">
<title>Node3&#45;&gt;Node4</title>
<g id="a_edge3_Node000003_Node000004"><a xlink:title=" ">
<path fill="none" stroke="#63b8ff" d="M606.77,-170.12C608.21,-152.27 611.35,-113.36 613.31,-89.09"/>
<polygon fill="#63b8ff" stroke="#63b8ff" points="616.77,-89.68 614.09,-79.43 609.79,-89.12 616.77,-89.68"/>
</a>
</g>
</g>
<!-- Node5 -->
<g id="Node000005" class="node">
<title>Node5</title>
<g id="a_Node000005"><a xlink:title=" ">
<polygon fill="#e0e0e0" stroke="#999999" points="577.5,-134.25 516.5,-134.25 516.5,-113.5 577.5,-113.5 577.5,-134.25"/>
<text xml:space="preserve" text-anchor="middle" x="547" y="-120.75" font-family="Helvetica,sans-Serif" font-size="10.00">stdbool.h</text>
</a>
</g>
</g>
<!-- Node3&#45;&gt;Node5 -->
<g id="edge4_Node000003_Node000005" class="edge">
<title>Node3&#45;&gt;Node5</title>
<g id="a_edge4_Node000003_Node000005"><a xlink:title=" ">
<path fill="none" stroke="#63b8ff" d="M595.45,-169.84C587.23,-162.21 575.6,-151.42 565.8,-142.32"/>
<polygon fill="#63b8ff" stroke="#63b8ff" points="568.28,-139.84 558.57,-135.61 563.52,-144.98 568.28,-139.84"/>
</a>
</g>
</g>
<!-- Node6 -->
<g id="Node000006" class="node">
<title>Node6</title>
<g id="a_Node000006"><a xlink:title=" ">
<polygon fill="#e0e0e0" stroke="#999999" points="948.75,-77.5 877.25,-77.5 877.25,-56.75 948.75,-56.75 948.75,-77.5"/>
<text xml:space="preserve" text-anchor="middle" x="913" y="-64" font-family="Helvetica,sans-Serif" font-size="10.00">FreeRTOS.h</text>
</a>
</g>
</g>
<!-- Node3&#45;&gt;Node6 -->
<g id="edge5_Node000003_Node000006" class="edge">
<title>Node3&#45;&gt;Node6</title>
<g id="a_edge5_Node000003_Node000006"><a xlink:title=" ">
<path fill="none" stroke="#63b8ff" d="M650.75,-177.93C699.39,-174.53 778.28,-164.39 839,-134.25 862.51,-122.58 884.25,-101.37 898,-86.12"/>
<polygon fill="#63b8ff" stroke="#63b8ff" points="900.56,-88.51 904.48,-78.67 895.27,-83.92 900.56,-88.51"/>
</a>
</g>
</g>
<!-- Node7 -->
<g id="Node000007" class="node">
<title>Node7</title>
<g id="a_Node000007"><a xlink:title=" ">
<polygon fill="#e0e0e0" stroke="#999999" points="689.5,-134.25 634.5,-134.25 634.5,-113.5 689.5,-113.5 689.5,-134.25"/>
<text xml:space="preserve" text-anchor="middle" x="662" y="-120.75" font-family="Helvetica,sans-Serif" font-size="10.00">queue.h</text>
</a>
</g>
</g>
<!-- Node3&#45;&gt;Node7 -->
<g id="edge6_Node000003_Node000007" class="edge">
<title>Node3&#45;&gt;Node7</title>
<g id="a_edge6_Node000003_Node000007"><a xlink:title=" ">
<path fill="none" stroke="#63b8ff" d="M616.01,-169.84C623.74,-162.28 634.63,-151.64 643.87,-142.6"/>
<polygon fill="#63b8ff" stroke="#63b8ff" points="646.29,-145.13 650.99,-135.64 641.4,-140.12 646.29,-145.13"/>
</a>
</g>
</g>
<!-- Node8 -->
<g id="Node000008" class="node">
<title>Node8</title>
<g id="a_Node000008"><a xlink:href="cmd__handle_8h.html" target="_top" xlink:title=" ">
<polygon fill="white" stroke="#666666" points="830.12,-134.25 745.88,-134.25 745.88,-113.5 830.12,-113.5 830.12,-134.25"/>
<text xml:space="preserve" text-anchor="middle" x="788" y="-120.75" font-family="Helvetica,sans-Serif" font-size="10.00">cmd_handle.h</text>
</a>
</g>
</g>
<!-- Node3&#45;&gt;Node8 -->
<g id="edge7_Node000003_Node000008" class="edge">
<title>Node3&#45;&gt;Node8</title>
<g id="a_edge7_Node000003_Node000008"><a xlink:title=" ">
<path fill="none" stroke="#63b8ff" d="M638.54,-169.84C668.08,-160.95 711.88,-147.77 744.43,-137.98"/>
<polygon fill="#63b8ff" stroke="#63b8ff" points="745.42,-141.34 753.99,-135.11 743.4,-134.64 745.42,-141.34"/>
</a>
</g>
</g>
<!-- Node3&#45;&gt;Node12 -->
<g id="edge13_Node000003_Node000012" class="edge">
<title>Node3&#45;&gt;Node12</title>
<g id="a_edge13_Node000003_Node000012"><a xlink:title=" ">
<path fill="none" stroke="#63b8ff" d="M579.18,-169.84C555.26,-161.11 520,-148.23 493.32,-138.5"/>
<polygon fill="#63b8ff" stroke="#63b8ff" points="494.85,-135.33 484.26,-135.19 492.45,-141.91 494.85,-135.33"/>
</a>
</g>
</g>
<!-- Node8&#45;&gt;Node4 -->
<g id="edge8_Node000008_Node000004" class="edge">
<title>Node8&#45;&gt;Node4</title>
<g id="a_edge8_Node000008_Node000004"><a xlink:title=" ">
<path fill="none" stroke="#63b8ff" d="M757.07,-113.09C727.81,-103.83 683.85,-89.91 652.58,-80.02"/>
<polygon fill="#63b8ff" stroke="#63b8ff" points="653.72,-76.71 643.13,-77.03 651.61,-83.38 653.72,-76.71"/>
</a>
</g>
</g>
<!-- Node8&#45;&gt;Node6 -->
<g id="edge9_Node000008_Node000006" class="edge">
<title>Node8&#45;&gt;Node6</title>
<g id="a_edge9_Node000008_Node000006"><a xlink:title=" ">
<path fill="none" stroke="#63b8ff" d="M810.35,-113.09C829.81,-104.56 858.29,-92.09 880.31,-82.44"/>
<polygon fill="#63b8ff" stroke="#63b8ff" points="881.7,-85.65 889.46,-78.44 878.9,-79.24 881.7,-85.65"/>
</a>
</g>
</g>
<!-- Node9 -->
<g id="Node000009" class="node">
<title>Node9</title>
<g id="a_Node000009"><a xlink:title=" ">
<polygon fill="#e0e0e0" stroke="#999999" points="750.5,-77.5 659.5,-77.5 659.5,-56.75 750.5,-56.75 750.5,-77.5"/>
<text xml:space="preserve" text-anchor="middle" x="705" y="-64" font-family="Helvetica,sans-Serif" font-size="10.00">event_groups.h</text>
</a>
</g>
</g>
<!-- Node8&#45;&gt;Node9 -->
<g id="edge10_Node000008_Node000009" class="edge">
<title>Node8&#45;&gt;Node9</title>
<g id="a_edge10_Node000008_Node000009"><a xlink:title=" ">
<path fill="none" stroke="#63b8ff" d="M773.16,-113.09C760.89,-104.99 743.21,-93.33 728.94,-83.92"/>
<polygon fill="#63b8ff" stroke="#63b8ff" points="731.25,-81.25 720.97,-78.66 727.39,-87.09 731.25,-81.25"/>
</a>
</g>
</g>
<!-- Node10 -->
<g id="Node000010" class="node">
<title>Node10</title>
<g id="a_Node000010"><a xlink:title=" ">
<polygon fill="#e0e0e0" stroke="#999999" points="712.5,-20.75 627.5,-20.75 627.5,0 712.5,0 712.5,-20.75"/>
<text xml:space="preserve" text-anchor="middle" x="670" y="-7.25" font-family="Helvetica,sans-Serif" font-size="10.00">fsl_common.h</text>
</a>
</g>
</g>
<!-- Node8&#45;&gt;Node10 -->
<g id="edge11_Node000008_Node000010" class="edge">
<title>Node8&#45;&gt;Node10</title>
<g id="a_edge11_Node000008_Node000010"><a xlink:title=" ">
<path fill="none" stroke="#63b8ff" d="M786.12,-113.18C782.95,-99.17 775.33,-73.14 760,-56.75 747.05,-42.91 728.96,-32.67 712.39,-25.44"/>
<polygon fill="#63b8ff" stroke="#63b8ff" points="713.77,-22.23 703.19,-21.7 711.13,-28.71 713.77,-22.23"/>
</a>
</g>
</g>
<!-- Node11 -->
<g id="Node000011" class="node">
<title>Node11</title>
<g id="a_Node000011"><a xlink:title=" ">
<polygon fill="#e0e0e0" stroke="#999999" points="859,-77.5 807,-77.5 807,-56.75 859,-56.75 859,-77.5"/>
<text xml:space="preserve" text-anchor="middle" x="833" y="-64" font-family="Helvetica,sans-Serif" font-size="10.00">stdlib.h</text>
</a>
</g>
</g>
<!-- Node8&#45;&gt;Node11 -->
<g id="edge12_Node000008_Node000011" class="edge">
<title>Node8&#45;&gt;Node11</title>
<g id="a_edge12_Node000008_Node000011"><a xlink:title=" ">
<path fill="none" stroke="#63b8ff" d="M796.05,-113.09C802.06,-105.77 810.47,-95.54 817.74,-86.69"/>
<polygon fill="#63b8ff" stroke="#63b8ff" points="820.42,-88.95 824.06,-79 815.01,-84.5 820.42,-88.95"/>
</a>
</g>
</g>
<!-- Node12&#45;&gt;Node4 -->
<g id="edge14_Node000012_Node000004" class="edge">
<title>Node12&#45;&gt;Node4</title>
<g id="a_edge14_Node000012_Node000004"><a xlink:title=" ">
<path fill="none" stroke="#63b8ff" d="M484.43,-113.09C510.37,-104.15 548.9,-90.89 577.38,-81.08"/>
<polygon fill="#63b8ff" stroke="#63b8ff" points="578.4,-84.43 586.71,-77.87 576.12,-77.81 578.4,-84.43"/>
</a>
</g>
</g>
<!-- Node12&#45;&gt;Node10 -->
<g id="edge19_Node000012_Node000010" class="edge">
<title>Node12&#45;&gt;Node10</title>
<g id="a_edge19_Node000012_Node000010"><a xlink:title=" ">
<path fill="none" stroke="#63b8ff" d="M474.83,-113.04C492.28,-103.9 518.95,-89.88 542,-77.5 558.95,-68.4 562.96,-65.69 580,-56.75 599.89,-46.31 622.46,-34.93 640.02,-26.18"/>
<polygon fill="#63b8ff" stroke="#63b8ff" points="641.49,-29.36 648.89,-21.78 638.37,-23.09 641.49,-29.36"/>
</a>
</g>
</g>
<!-- Node13 -->
<g id="Node000013" class="node">
<title>Node13</title>
<g id="a_Node000013"><a xlink:href="pca9555a_8h.html" target="_top" xlink:title=" ">
<polygon fill="white" stroke="#666666" points="154,-77.5 0,-77.5 0,-56.75 154,-56.75 154,-77.5"/>
<text xml:space="preserve" text-anchor="middle" x="77" y="-64" font-family="Helvetica,sans-Serif" font-size="10.00">driver/pca9555a/pca9555a.h</text>
</a>
</g>
</g>
<!-- Node12&#45;&gt;Node13 -->
<g id="edge15_Node000012_Node000013" class="edge">
<title>Node12&#45;&gt;Node13</title>
<g id="a_edge15_Node000012_Node000013"><a xlink:title=" ">
<path fill="none" stroke="#63b8ff" d="M413.63,-116.75C351.58,-107.79 234.9,-90.94 156.55,-79.62"/>
<polygon fill="#63b8ff" stroke="#63b8ff" points="157.18,-76.17 146.78,-78.21 156.18,-83.1 157.18,-76.17"/>
</a>
</g>
</g>
<!-- Node15 -->
<g id="Node000015" class="node">
<title>Node15</title>
<g id="a_Node000015"><a xlink:title=" ">
<polygon fill="#e0e0e0" stroke="#999999" points="294.25,-77.5 171.75,-77.5 171.75,-56.75 294.25,-56.75 294.25,-77.5"/>
<text xml:space="preserve" text-anchor="middle" x="233" y="-64" font-family="Helvetica,sans-Serif" font-size="10.00">fsl_device_registers.h</text>
</a>
</g>
</g>
<!-- Node12&#45;&gt;Node15 -->
<g id="edge18_Node000012_Node000015" class="edge">
<title>Node12&#45;&gt;Node15</title>
<g id="a_edge18_Node000012_Node000015"><a xlink:title=" ">
<path fill="none" stroke="#63b8ff" d="M415.87,-113.02C379.05,-103.98 324.29,-90.54 284.3,-80.72"/>
<polygon fill="#63b8ff" stroke="#63b8ff" points="285.19,-77.34 274.65,-78.35 283.53,-84.13 285.19,-77.34"/>
</a>
</g>
</g>
<!-- Node16 -->
<g id="Node000016" class="node">
<title>Node16</title>
<g id="a_Node000016"><a xlink:title=" ">
<polygon fill="#e0e0e0" stroke="#999999" points="371.38,-77.5 312.62,-77.5 312.62,-56.75 371.38,-56.75 371.38,-77.5"/>
<text xml:space="preserve" text-anchor="middle" x="342" y="-64" font-family="Helvetica,sans-Serif" font-size="10.00">fsl_ftm.h</text>
</a>
</g>
</g>
<!-- Node12&#45;&gt;Node16 -->
<g id="edge20_Node000012_Node000016" class="edge">
<title>Node12&#45;&gt;Node16</title>
<g id="a_edge20_Node000012_Node000016"><a xlink:title=" ">
<path fill="none" stroke="#63b8ff" d="M435.62,-113.09C418.03,-104.64 392.37,-92.32 372.37,-82.71"/>
<polygon fill="#63b8ff" stroke="#63b8ff" points="374.1,-79.66 363.57,-78.48 371.07,-85.97 374.1,-79.66"/>
</a>
</g>
</g>
<!-- Node17 -->
<g id="Node000017" class="node">
<title>Node17</title>
<g id="a_Node000017"><a xlink:title=" ">
<polygon fill="#e0e0e0" stroke="#999999" points="452.62,-77.5 389.38,-77.5 389.38,-56.75 452.62,-56.75 452.62,-77.5"/>
<text xml:space="preserve" text-anchor="middle" x="421" y="-64" font-family="Helvetica,sans-Serif" font-size="10.00">fsl_gpio.h</text>
</a>
</g>
</g>
<!-- Node12&#45;&gt;Node17 -->
<g id="edge21_Node000012_Node000017" class="edge">
<title>Node12&#45;&gt;Node17</title>
<g id="a_edge21_Node000012_Node000017"><a xlink:title=" ">
<path fill="none" stroke="#63b8ff" d="M449.74,-113.09C445.16,-105.92 438.8,-95.98 433.23,-87.26"/>
<polygon fill="#63b8ff" stroke="#63b8ff" points="436.35,-85.64 428.02,-79.1 430.46,-89.41 436.35,-85.64"/>
</a>
</g>
</g>
<!-- Node18 -->
<g id="Node000018" class="node">
<title>Node18</title>
<g id="a_Node000018"><a xlink:title=" ">
<polygon fill="#e0e0e0" stroke="#999999" points="532.88,-77.5 471.12,-77.5 471.12,-56.75 532.88,-56.75 532.88,-77.5"/>
<text xml:space="preserve" text-anchor="middle" x="502" y="-64" font-family="Helvetica,sans-Serif" font-size="10.00">fsl_port.h</text>
</a>
</g>
</g>
<!-- Node12&#45;&gt;Node18 -->
<g id="edge22_Node000012_Node000018" class="edge">
<title>Node12&#45;&gt;Node18</title>
<g id="a_edge22_Node000012_Node000018"><a xlink:title=" ">
<path fill="none" stroke="#63b8ff" d="M464.22,-113.09C470.44,-105.69 479.15,-95.32 486.64,-86.41"/>
<polygon fill="#63b8ff" stroke="#63b8ff" points="489.12,-88.9 492.87,-78.99 483.76,-84.39 489.12,-88.9"/>
</a>
</g>
</g>
<!-- Node13&#45;&gt;Node10 -->
<g id="edge16_Node000013_Node000010" class="edge">
<title>Node13&#45;&gt;Node10</title>
<g id="a_edge16_Node000013_Node000010"><a xlink:title=" ">
<path fill="none" stroke="#63b8ff" d="M154.35,-57.62C157.27,-57.32 160.16,-57.03 163,-56.75 327.87,-40.39 523.18,-23.65 615.92,-15.87"/>
<polygon fill="#63b8ff" stroke="#63b8ff" points="616.06,-19.37 625.73,-15.05 615.48,-12.39 616.06,-19.37"/>
</a>
</g>
</g>
<!-- Node14 -->
<g id="Node000014" class="node">
<title>Node14</title>
<g id="a_Node000014"><a xlink:title=" ">
<polygon fill="#e0e0e0" stroke="#999999" points="116.88,-20.75 37.12,-20.75 37.12,0 116.88,0 116.88,-20.75"/>
<text xml:space="preserve" text-anchor="middle" x="77" y="-7.25" font-family="Helvetica,sans-Serif" font-size="10.00">peripherals.h</text>
</a>
</g>
</g>
<!-- Node13&#45;&gt;Node14 -->
<g id="edge17_Node000013_Node000014" class="edge">
<title>Node13&#45;&gt;Node14</title>
<g id="a_edge17_Node000013_Node000014"><a xlink:title=" ">
<path fill="none" stroke="#63b8ff" d="M77,-56.34C77,-49.72 77,-40.72 77,-32.52"/>
<polygon fill="#63b8ff" stroke="#63b8ff" points="80.5,-32.59 77,-22.59 73.5,-32.59 80.5,-32.59"/>
</a>
</g>
</g>
<!-- Node20&#45;&gt;Node3 -->
<g id="edge27_Node000020_Node000003" class="edge">
<title>Node20&#45;&gt;Node3</title>
<g id="a_edge27_Node000020_Node000003"><a xlink:title=" ">
<path fill="none" stroke="#63b8ff" d="M713.58,-226.59C693,-217.98 662.8,-205.36 639.63,-195.68"/>
<polygon fill="#63b8ff" stroke="#63b8ff" points="641.19,-192.54 630.61,-191.91 638.49,-199 641.19,-192.54"/>
</a>
</g>
</g>
<!-- Node21&#45;&gt;Node4 -->
<g id="edge29_Node000021_Node000004" class="edge">
<title>Node21&#45;&gt;Node4</title>
<g id="a_edge29_Node000021_Node000004"><a xlink:title=" ">
<path fill="none" stroke="#63b8ff" d="M776.01,-169.85C759.28,-156.41 727.74,-131.8 699,-113.5 681.68,-102.47 661.46,-91.49 645.19,-83.1"/>
<polygon fill="#63b8ff" stroke="#63b8ff" points="647,-80.09 636.5,-78.66 643.82,-86.32 647,-80.09"/>
</a>
</g>
</g>
<!-- Node21&#45;&gt;Node6 -->
<g id="edge30_Node000021_Node000006" class="edge">
<title>Node21&#45;&gt;Node6</title>
<g id="a_edge30_Node000021_Node000006"><a xlink:title=" ">
<path fill="none" stroke="#63b8ff" d="M814.09,-169.75C831.91,-162.07 855.23,-150.05 872,-134.25 885.97,-121.1 897.05,-102.18 904.16,-87.95"/>
<polygon fill="#63b8ff" stroke="#63b8ff" points="907.23,-89.65 908.34,-79.11 900.9,-86.66 907.23,-89.65"/>
</a>
</g>
</g>
<!-- Node21&#45;&gt;Node7 -->
<g id="edge31_Node000021_Node000007" class="edge">
<title>Node21&#45;&gt;Node7</title>
<g id="a_edge31_Node000021_Node000007"><a xlink:title=" ">
<path fill="none" stroke="#63b8ff" d="M765.47,-169.84C745.76,-161.27 716.89,-148.73 694.65,-139.06"/>
<polygon fill="#63b8ff" stroke="#63b8ff" points="696.29,-135.96 685.72,-135.18 693.5,-142.38 696.29,-135.96"/>
</a>
</g>
</g>
<!-- Node21&#45;&gt;Node8 -->
<g id="edge32_Node000021_Node000008" class="edge">
<title>Node21&#45;&gt;Node8</title>
<g id="a_edge32_Node000021_Node000008"><a xlink:title=" ">
<path fill="none" stroke="#63b8ff" d="M788,-169.84C788,-163.22 788,-154.22 788,-146.02"/>
<polygon fill="#63b8ff" stroke="#63b8ff" points="791.5,-146.09 788,-136.09 784.5,-146.09 791.5,-146.09"/>
</a>
</g>
</g>
<!-- Node22&#45;&gt;Node6 -->
<g id="edge34_Node000022_Node000006" class="edge">
<title>Node22&#45;&gt;Node6</title>
<g id="a_edge34_Node000022_Node000006"><a xlink:title=" ">
<path fill="none" stroke="#63b8ff" d="M938.46,-113.09C934.49,-106.08 929.01,-96.41 924.16,-87.83"/>
<polygon fill="#63b8ff" stroke="#63b8ff" points="927.21,-86.12 919.24,-79.15 921.12,-89.57 927.21,-86.12"/>
</a>
</g>
</g>
<!-- Node22&#45;&gt;Node10 -->
<g id="edge35_Node000022_Node000010" class="edge">
<title>Node22&#45;&gt;Node10</title>
<g id="a_edge35_Node000022_Node000010"><a xlink:title=" ">
<path fill="none" stroke="#63b8ff" d="M950.6,-113.1C959.23,-98.97 971.72,-72.81 958,-56.75 928.48,-22.21 798.72,-13.8 723.83,-11.86"/>
<polygon fill="#63b8ff" stroke="#63b8ff" points="724.35,-8.37 714.27,-11.64 724.19,-15.37 724.35,-8.37"/>
</a>
</g>
</g>
</g>
</svg>

<g id="navigator" transform="translate(0 0)" fill="#404254">
  <rect fill="#f2f5e9" fill-opacity="0.5" stroke="#606060" stroke-width=".5" x="0" y="0" width="60" height="60"/>
  <use id="zoomplus" xlink:href="#zoomPlus" x="17" y="9" onmousedown="handleZoom(evt,'in')"/>
  <use id="zoomminus" xlink:href="#zoomMin" x="42" y="9" onmousedown="handleZoom(evt,'out')"/>
  <use id="reset" xlink:href="#resetDef" x="30" y="36" onmousedown="handleReset()"/>
   <use id="arrowup" xlink:href="#arrowUp" x="0" y="0" onmousedown="handlePan(0,-1)"/>
  <use id="arrowright" xlink:href="#arrowRight" x="0" y="0" onmousedown="handlePan(1,0)"/>
  <use id="arrowdown" xlink:href="#arrowDown" x="0" y="0" onmousedown="handlePan(0,1)"/>
  <use id="arrowleft" xlink:href="#arrowLeft" x="0" y="0" onmousedown="handlePan(-1,0)"/>
</g>
<svg viewBox="0 0 15 15" width="100%" height="30px" preserveAspectRatio="xMaxYMin meet">
 <g id="arrow_out" transform="scale(0.3 0.3)">
  <a xlink:href="step__timing_8c__incl_org.svg" target="_base">
   <rect id="button" ry="5" rx="5" y="6" x="6" height="38" width="38"
        fill="#f2f5e9" fill-opacity="0.5" stroke="#606060" stroke-width="1.0"/>
   <path id="arrow"
     d="M 11.500037,31.436501 C 11.940474,20.09759 22.043105,11.32322 32.158766,21.979434 L 37.068811,17.246167 C 37.068811,17.246167 37.088388,32 37.088388,32 L 22.160133,31.978069 C 22.160133,31.978069 26.997745,27.140456 26.997745,27.140456 C 18.528582,18.264221 13.291696,25.230495 11.500037,31.436501 z"
     style="fill:#404040;"/>
  </a>
 </g>
</svg>

<style type='text/css'>
<![CDATA[
[data-mouse-over-selected='false'] { opacity: 0.7; }
[data-mouse-over-selected='true']  { opacity: 1.0; }
]]>
</style>
<script type="application/ecmascript"><![CDATA[
document.addEventListener('DOMContentLoaded', (event) => {
  highlightEdges();
  highlightAdjacentNodes();
});
]]></script>
</svg>
