<?xml version="1.0" encoding="UTF-8" standalone="no"?>
<!DOCTYPE svg PUBLIC "-//W3C//DTD SVG 1.1//EN"
 "http://www.w3.org/Graphics/SVG/1.1/DTD/svg11.dtd">
<!-- Generated by graphviz version 14.1.4 (0)
 -->
<!-- Title: source/motion/stepper/step_shared.h Pages: 1 -->
<svg width="1875pt" height="389pt"
 viewBox="0.00 0.00 1875.00 389.00" xmlns="http://www.w3.org/2000/svg" xmlns:xlink="http://www.w3.org/1999/xlink">
<g id="graph0" class="graph" transform="scale(1 1) rotate(0) translate(4 385)">
<title>source/motion/stepper/step_shared.h</title>
<!-- Node1 -->
<g id="Node000001" class="node">
<title>Node1</title>
<g id="a_Node000001"><a xlink:title=" ">
<polygon fill="#999999" stroke="#666666" points="1487.75,-381 1362.25,-381 1362.25,-347.5 1487.75,-347.5 1487.75,-381"/>
<text xml:space="preserve" text-anchor="start" x="1370.25" y="-367.5" font-family="Helvetica,sans-Serif" font-size="10.00">source/motion/stepper</text>
<text xml:space="preserve" text-anchor="middle" x="1425" y="-354.75" font-family="Helvetica,sans-Serif" font-size="10.00">/step_shared.h</text>
</a>
</g>
</g>
<!-- Node2 -->
<g id="Node000002" class="node">
<title>Node2</title>
<g id="a_Node000002"><a xlink:href="step__core_8h.html" target="_top" xlink:title=" ">
<polygon fill="white" stroke="#666666" points="1140.75,-311.5 1015.25,-311.5 1015.25,-278 1140.75,-278 1140.75,-311.5"/>
<text xml:space="preserve" text-anchor="start" x="1023.25" y="-298" font-family="Helvetica,sans-Serif" font-size="10.00">source/motion/stepper</text>
<text xml:space="preserve" text-anchor="middle" x="1078" y="-285.25" font-family="Helvetica,sans-Serif" font-size="10.00">/step_core.h</text>
</a>
</g>
</g>
<!-- Node1&#45;&gt;Node2 -->
<g id="edge1_Node000001_Node000002" class="edge">
<title>Node1&#45;&gt;Node2</title>
<g id="a_edge1_Node000001_Node000002"><a xlink:title=" ">
<path fill="none" stroke="#63b8ff" d="M1350.81,-348.82C1288.4,-336.68 1200.16,-319.51 1141.1,-308.02"/>
<polygon fill="#63b8ff" stroke="#63b8ff" points="1349.79,-352.19 1360.27,-350.66 1351.12,-345.31 1349.79,-352.19"/>
</a>
</g>
</g>
<!-- Node25 -->
<g id="Node000025" class="node">
<title>Node25</title>
<g id="a_Node000025"><a xlink:href="step__internal_8h.html" target="_top" xlink:title=" ">
<polygon fill="white" stroke="#666666" points="1597.75,-311.5 1472.25,-311.5 1472.25,-278 1597.75,-278 1597.75,-311.5"/>
<text xml:space="preserve" text-anchor="start" x="1480.25" y="-298" font-family="Helvetica,sans-Serif" font-size="10.00">source/motion/stepper</text>
<text xml:space="preserve" text-anchor="middle" x="1535" y="-285.25" font-family="Helvetica,sans-Serif" font-size="10.00">/step_internal.h</text>
</a>
</g>
</g>
<!-- Node1&#45;&gt;Node25 -->
<g id="edge40_Node000001_Node000025" class="edge">
<title>Node1&#45;&gt;Node25</title>
<g id="a_edge40_Node000001_Node000025"><a xlink:title=" ">
<path fill="none" stroke="#63b8ff" d="M1460.74,-341.32C1476.42,-331.7 1494.48,-320.61 1508.87,-311.79"/>
<polygon fill="#63b8ff" stroke="#63b8ff" points="1459.33,-338.08 1452.64,-346.29 1462.99,-344.04 1459.33,-338.08"/>
</a>
</g>
</g>
<!-- Node26 -->
<g id="Node000026" class="node">
<title>Node26</title>
<g id="a_Node000026"><a xlink:href="step__process_8c.html" target="_top" xlink:title=" ">
<polygon fill="white" stroke="#666666" points="1866.75,-172.5 1741.25,-172.5 1741.25,-139 1866.75,-139 1866.75,-172.5"/>
<text xml:space="preserve" text-anchor="start" x="1749.25" y="-159" font-family="Helvetica,sans-Serif" font-size="10.00">source/motion/stepper</text>
<text xml:space="preserve" text-anchor="middle" x="1804" y="-146.25" font-family="Helvetica,sans-Serif" font-size="10.00">/step_process.c</text>
</a>
</g>
</g>
<!-- Node1&#45;&gt;Node26 -->
<g id="edge54_Node000001_Node000026" class="edge">
<title>Node1&#45;&gt;Node26</title>
<g id="a_edge54_Node000001_Node000026"><a xlink:title=" ">
<path fill="none" stroke="#63b8ff" d="M1499.36,-353.33C1611.55,-336.66 1815.62,-299.16 1859,-242 1876.46,-218.99 1848.98,-190.48 1826.97,-172.95"/>
<polygon fill="#63b8ff" stroke="#63b8ff" points="1499.02,-349.84 1489.64,-354.75 1500.04,-356.77 1499.02,-349.84"/>
</a>
</g>
</g>
<!-- Node30 -->
<g id="Node000030" class="node">
<title>Node30</title>
<g id="a_Node000030"><a xlink:href="step__timing_8c.html" target="_top" xlink:title=" ">
<polygon fill="white" stroke="#666666" points="1578.75,-172.5 1453.25,-172.5 1453.25,-139 1578.75,-139 1578.75,-172.5"/>
<text xml:space="preserve" text-anchor="start" x="1461.25" y="-159" font-family="Helvetica,sans-Serif" font-size="10.00">source/motion/stepper</text>
<text xml:space="preserve" text-anchor="middle" x="1516" y="-146.25" font-family="Helvetica,sans-Serif" font-size="10.00">/step_timing.c</text>
</a>
</g>
</g>
<!-- Node1&#45;&gt;Node30 -->
<g id="edge55_Node000001_Node000030" class="edge">
<title>Node1&#45;&gt;Node30</title>
<g id="a_edge55_Node000001_Node000030"><a xlink:title=" ">
<path fill="none" stroke="#63b8ff" d="M1403.75,-338.65C1378.58,-306.38 1343.45,-249.09 1372,-208.5 1381.93,-194.38 1418.91,-181.25 1452.91,-171.75"/>
<polygon fill="#63b8ff" stroke="#63b8ff" points="1400.88,-340.67 1409.89,-346.26 1406.33,-336.28 1400.88,-340.67"/>
</a>
</g>
</g>
<!-- Node3 -->
<g id="Node000003" class="node">
<title>Node3</title>
<g id="a_Node000003"><a xlink:href="application_8c.html" target="_top" xlink:title=" ">
<polygon fill="white" stroke="#666666" points="1210.75,-166.12 1097.25,-166.12 1097.25,-145.38 1210.75,-145.38 1210.75,-166.12"/>
<text xml:space="preserve" text-anchor="middle" x="1154" y="-152.62" font-family="Helvetica,sans-Serif" font-size="10.00">source/application.c</text>
</a>
</g>
</g>
<!-- Node2&#45;&gt;Node3 -->
<g id="edge2_Node000002_Node000003" class="edge">
<title>Node2&#45;&gt;Node3</title>
<g id="a_edge2_Node000002_Node000003"><a xlink:title=" ">
<path fill="none" stroke="#63b8ff" d="M1092.42,-267.75C1109.48,-237 1137.03,-187.35 1148.6,-166.48"/>
<polygon fill="#63b8ff" stroke="#63b8ff" points="1089.39,-266 1087.6,-276.44 1095.51,-269.4 1089.39,-266"/>
</a>
</g>
</g>
<!-- Node4 -->
<g id="Node000004" class="node">
<title>Node4</title>
<g id="a_Node000004"><a xlink:href="motor__init_8c.html" target="_top" xlink:title=" ">
<polygon fill="white" stroke="#666666" points="1189,-33.5 1071,-33.5 1071,0 1189,0 1189,-33.5"/>
<text xml:space="preserve" text-anchor="start" x="1079" y="-20" font-family="Helvetica,sans-Serif" font-size="10.00">source/motion/motor</text>
<text xml:space="preserve" text-anchor="middle" x="1130" y="-7.25" font-family="Helvetica,sans-Serif" font-size="10.00">/motor_init.c</text>
</a>
</g>
</g>
<!-- Node2&#45;&gt;Node4 -->
<g id="edge3_Node000002_Node000004" class="edge">
<title>Node2&#45;&gt;Node4</title>
<g id="a_edge3_Node000002_Node000004"><a xlink:title=" ">
<path fill="none" stroke="#63b8ff" d="M1119.36,-271.94C1153.45,-251.39 1199.43,-217.11 1220,-172.5 1239.17,-130.93 1242.92,-109.12 1220,-69.5 1210.7,-53.43 1194.32,-41.91 1178.05,-33.89"/>
<polygon fill="#63b8ff" stroke="#63b8ff" points="1117.82,-268.79 1110.95,-276.86 1121.35,-274.83 1117.82,-268.79"/>
</a>
</g>
</g>
<!-- Node5 -->
<g id="Node000005" class="node">
<title>Node5</title>
<g id="a_Node000005"><a xlink:href="motor__motion_8c.html" target="_top" xlink:title=" ">
<polygon fill="white" stroke="#666666" points="118,-33.5 0,-33.5 0,0 118,0 118,-33.5"/>
<text xml:space="preserve" text-anchor="start" x="8" y="-20" font-family="Helvetica,sans-Serif" font-size="10.00">source/motion/motor</text>
<text xml:space="preserve" text-anchor="middle" x="59" y="-7.25" font-family="Helvetica,sans-Serif" font-size="10.00">/motor_motion.c</text>
</a>
</g>
</g>
<!-- Node2&#45;&gt;Node5 -->
<g id="edge4_Node000002_Node000005" class="edge">
<title>Node2&#45;&gt;Node5</title>
<g id="a_edge4_Node000002_Node000005"><a xlink:title=" ">
<path fill="none" stroke="#63b8ff" d="M1003.54,-294.15C818.84,-294.38 343.74,-290.13 194,-242 138.94,-224.3 115.87,-220.75 84,-172.5 55.2,-128.9 55.54,-63.65 57.51,-33.75"/>
<polygon fill="#63b8ff" stroke="#63b8ff" points="1003.51,-297.65 1013.5,-294.13 1003.5,-290.65 1003.51,-297.65"/>
</a>
</g>
</g>
<!-- Node6 -->
<g id="Node000006" class="node">
<title>Node6</title>
<g id="a_Node000006"><a xlink:href="motor__sync_8c.html" target="_top" xlink:title=" ">
<polygon fill="white" stroke="#666666" points="254,-33.5 136,-33.5 136,0 254,0 254,-33.5"/>
<text xml:space="preserve" text-anchor="start" x="144" y="-20" font-family="Helvetica,sans-Serif" font-size="10.00">source/motion/motor</text>
<text xml:space="preserve" text-anchor="middle" x="195" y="-7.25" font-family="Helvetica,sans-Serif" font-size="10.00">/motor_sync.c</text>
</a>
</g>
</g>
<!-- Node2&#45;&gt;Node6 -->
<g id="edge5_Node000002_Node000006" class="edge">
<title>Node2&#45;&gt;Node6</title>
<g id="a_edge5_Node000002_Node000006"><a xlink:title=" ">
<path fill="none" stroke="#63b8ff" d="M1003.81,-290.11C785.98,-278.68 159.79,-240.16 100,-172.5 60.13,-127.38 132.64,-63.45 172.03,-33.89"/>
<polygon fill="#63b8ff" stroke="#63b8ff" points="1003.42,-293.6 1013.59,-290.62 1003.79,-286.61 1003.42,-293.6"/>
</a>
</g>
</g>
<!-- Node7 -->
<g id="Node000007" class="node">
<title>Node7</title>
<g id="a_Node000007"><a xlink:href="step__core_8c.html" target="_top" xlink:title=" ">
<polygon fill="white" stroke="#666666" points="1415.75,-172.5 1290.25,-172.5 1290.25,-139 1415.75,-139 1415.75,-172.5"/>
<text xml:space="preserve" text-anchor="start" x="1298.25" y="-159" font-family="Helvetica,sans-Serif" font-size="10.00">source/motion/stepper</text>
<text xml:space="preserve" text-anchor="middle" x="1353" y="-146.25" font-family="Helvetica,sans-Serif" font-size="10.00">/step_core.c</text>
</a>
</g>
</g>
<!-- Node2&#45;&gt;Node7 -->
<g id="edge6_Node000002_Node000007" class="edge">
<title>Node2&#45;&gt;Node7</title>
<g id="a_edge6_Node000002_Node000007"><a xlink:title=" ">
<path fill="none" stroke="#63b8ff" d="M1152.37,-279.06C1184.53,-270.89 1221.86,-258.88 1253,-242 1287.1,-223.52 1320.01,-191.99 1338.27,-172.89"/>
<polygon fill="#63b8ff" stroke="#63b8ff" points="1151.57,-275.65 1142.69,-281.43 1153.24,-282.45 1151.57,-275.65"/>
</a>
</g>
</g>
<!-- Node8 -->
<g id="Node000008" class="node">
<title>Node8</title>
<g id="a_Node000008"><a xlink:href="motor_8h.html" target="_top" xlink:title=" ">
<polygon fill="white" stroke="#666666" points="937.38,-235.62 848.62,-235.62 848.62,-214.88 937.38,-214.88 937.38,-235.62"/>
<text xml:space="preserve" text-anchor="middle" x="893" y="-222.12" font-family="Helvetica,sans-Serif" font-size="10.00">source/motor.h</text>
</a>
</g>
</g>
<!-- Node2&#45;&gt;Node8 -->
<g id="edge7_Node000002_Node000008" class="edge">
<title>Node2&#45;&gt;Node8</title>
<g id="a_edge7_Node000002_Node000008"><a xlink:title=" ">
<path fill="none" stroke="#63b8ff" d="M1022.98,-273.67C989.02,-261.29 946.96,-245.94 920.05,-236.12"/>
<polygon fill="#63b8ff" stroke="#63b8ff" points="1021.67,-276.92 1032.27,-277.06 1024.07,-270.35 1021.67,-276.92"/>
</a>
</g>
</g>
<!-- Node22 -->
<g id="Node000022" class="node">
<title>Node22</title>
<g id="a_Node000022"><a xlink:href="motorCmd_8c.html" target="_top" xlink:title=" ">
<polygon fill="white" stroke="#666666" points="1079.62,-166.12 968.38,-166.12 968.38,-145.38 1079.62,-145.38 1079.62,-166.12"/>
<text xml:space="preserve" text-anchor="middle" x="1024" y="-152.62" font-family="Helvetica,sans-Serif" font-size="10.00">source/motorCmd.c</text>
</a>
</g>
</g>
<!-- Node2&#45;&gt;Node22 -->
<g id="edge39_Node000002_Node000022" class="edge">
<title>Node2&#45;&gt;Node22</title>
<g id="a_edge39_Node000002_Node000022"><a xlink:title=" ">
<path fill="none" stroke="#63b8ff" d="M1067.59,-267.35C1055.46,-236.57 1036.02,-187.25 1027.83,-166.48"/>
<polygon fill="#63b8ff" stroke="#63b8ff" points="1064.22,-268.34 1071.14,-276.36 1070.73,-265.77 1064.22,-268.34"/>
</a>
</g>
</g>
<!-- Node8&#45;&gt;Node3 -->
<g id="edge8_Node000008_Node000003" class="edge">
<title>Node8&#45;&gt;Node3</title>
<g id="a_edge8_Node000008_Node000003"><a xlink:title=" ">
<path fill="none" stroke="#63b8ff" d="M941.91,-211.6C992.36,-198.55 1069.98,-178.48 1116,-166.58"/>
<polygon fill="#63b8ff" stroke="#63b8ff" points="941.22,-208.16 932.42,-214.06 942.97,-214.94 941.22,-208.16"/>
</a>
</g>
</g>
<!-- Node9 -->
<g id="Node000009" class="node">
<title>Node9</title>
<g id="a_Node000009"><a xlink:href="motor__convert_8h.html" target="_top" xlink:title=" ">
<polygon fill="white" stroke="#666666" points="227,-172.5 109,-172.5 109,-139 227,-139 227,-172.5"/>
<text xml:space="preserve" text-anchor="start" x="117" y="-159" font-family="Helvetica,sans-Serif" font-size="10.00">source/motion/motor</text>
<text xml:space="preserve" text-anchor="middle" x="168" y="-146.25" font-family="Helvetica,sans-Serif" font-size="10.00">/motor_convert.h</text>
</a>
</g>
</g>
<!-- Node8&#45;&gt;Node9 -->
<g id="edge9_Node000008_Node000009" class="edge">
<title>Node8&#45;&gt;Node9</title>
<g id="a_edge9_Node000008_Node000009"><a xlink:title=" ">
<path fill="none" stroke="#63b8ff" d="M837.01,-219.04C702.96,-206.56 364.59,-175.05 227.27,-162.27"/>
<polygon fill="#63b8ff" stroke="#63b8ff" points="836.41,-222.5 846.69,-219.94 837.06,-215.53 836.41,-222.5"/>
</a>
</g>
</g>
<!-- Node11 -->
<g id="Node000011" class="node">
<title>Node11</title>
<g id="a_Node000011"><a xlink:href="motor__init_8h.html" target="_top" xlink:title=" ">
<polygon fill="white" stroke="#666666" points="1081,-103 963,-103 963,-69.5 1081,-69.5 1081,-103"/>
<text xml:space="preserve" text-anchor="start" x="971" y="-89.5" font-family="Helvetica,sans-Serif" font-size="10.00">source/motion/motor</text>
<text xml:space="preserve" text-anchor="middle" x="1022" y="-76.75" font-family="Helvetica,sans-Serif" font-size="10.00">/motor_init.h</text>
</a>
</g>
</g>
<!-- Node8&#45;&gt;Node11 -->
<g id="edge13_Node000008_Node000011" class="edge">
<title>Node8&#45;&gt;Node11</title>
<g id="a_edge13_Node000008_Node000011"><a xlink:title=" ">
<path fill="none" stroke="#63b8ff" d="M837.42,-214.43C813.35,-207.12 787.43,-194.44 773,-172.5 764.82,-160.06 763.55,-150.51 773,-139 825.03,-75.6 873.82,-120.26 954,-103 956.84,-102.39 959.75,-101.75 962.69,-101.1"/>
<polygon fill="#63b8ff" stroke="#63b8ff" points="836.27,-217.74 846.84,-217.02 838.13,-211 836.27,-217.74"/>
</a>
</g>
</g>
<!-- Node13 -->
<g id="Node000013" class="node">
<title>Node13</title>
<g id="a_Node000013"><a xlink:href="motor__internal_8h.html" target="_top" xlink:title=" ">
<polygon fill="white" stroke="#666666" points="699,-172.5 581,-172.5 581,-139 699,-139 699,-172.5"/>
<text xml:space="preserve" text-anchor="start" x="589" y="-159" font-family="Helvetica,sans-Serif" font-size="10.00">source/motion/motor</text>
<text xml:space="preserve" text-anchor="middle" x="640" y="-146.25" font-family="Helvetica,sans-Serif" font-size="10.00">/motor_internal.h</text>
</a>
</g>
</g>
<!-- Node8&#45;&gt;Node13 -->
<g id="edge16_Node000008_Node000013" class="edge">
<title>Node8&#45;&gt;Node13</title>
<g id="a_edge16_Node000008_Node000013"><a xlink:title=" ">
<path fill="none" stroke="#63b8ff" d="M845.33,-211.53C803.95,-200.49 743.85,-184.46 699.36,-172.59"/>
<polygon fill="#63b8ff" stroke="#63b8ff" points="844.18,-214.85 854.75,-214.04 845.99,-208.09 844.18,-214.85"/>
</a>
</g>
</g>
<!-- Node8&#45;&gt;Node22 -->
<g id="edge35_Node000008_Node000022" class="edge">
<title>Node8&#45;&gt;Node22</title>
<g id="a_edge35_Node000008_Node000022"><a xlink:title=" ">
<path fill="none" stroke="#63b8ff" d="M922.15,-209.23C947.4,-196.22 983.19,-177.78 1004.93,-166.58"/>
<polygon fill="#63b8ff" stroke="#63b8ff" points="920.68,-206.05 913.39,-213.74 923.89,-212.27 920.68,-206.05"/>
</a>
</g>
</g>
<!-- Node23 -->
<g id="Node000023" class="node">
<title>Node23</title>
<g id="a_Node000023"><a xlink:href="motor__configs_8h.html" target="_top" xlink:title=" ">
<polygon fill="white" stroke="#666666" points="911.62,-166.12 782.38,-166.12 782.38,-145.38 911.62,-145.38 911.62,-166.12"/>
<text xml:space="preserve" text-anchor="middle" x="847" y="-152.62" font-family="Helvetica,sans-Serif" font-size="10.00">source/motor_configs.h</text>
</a>
</g>
</g>
<!-- Node8&#45;&gt;Node23 -->
<g id="edge36_Node000008_Node000023" class="edge">
<title>Node8&#45;&gt;Node23</title>
<g id="a_edge36_Node000008_Node000023"><a xlink:title=" ">
<path fill="none" stroke="#63b8ff" d="M880.12,-205.35C871.48,-192.68 860.47,-176.52 853.58,-166.4"/>
<polygon fill="#63b8ff" stroke="#63b8ff" points="877.03,-207.04 885.56,-213.33 882.82,-203.09 877.03,-207.04"/>
</a>
</g>
</g>
<!-- Node24 -->
<g id="Node000024" class="node">
<title>Node24</title>
<g id="a_Node000024"><a xlink:href="motor__test_8c.html" target="_top" xlink:title=" ">
<polygon fill="white" stroke="#666666" points="1211.38,-96.62 1098.62,-96.62 1098.62,-75.88 1211.38,-75.88 1211.38,-96.62"/>
<text xml:space="preserve" text-anchor="middle" x="1155" y="-83.12" font-family="Helvetica,sans-Serif" font-size="10.00">source/motor_test.c</text>
</a>
</g>
</g>
<!-- Node8&#45;&gt;Node24 -->
<g id="edge38_Node000008_Node000024" class="edge">
<title>Node8&#45;&gt;Node24</title>
<g id="a_edge38_Node000008_Node000024"><a xlink:title=" ">
<path fill="none" stroke="#63b8ff" d="M903.09,-204.71C914.19,-185.16 933.84,-155.67 959,-139 965.6,-134.63 1059.82,-110.82 1115.18,-97.07"/>
<polygon fill="#63b8ff" stroke="#63b8ff" points="900.11,-202.86 898.42,-213.32 906.26,-206.2 900.11,-202.86"/>
</a>
</g>
</g>
<!-- Node9&#45;&gt;Node5 -->
<g id="edge11_Node000009_Node000005" class="edge">
<title>Node9&#45;&gt;Node5</title>
<g id="a_edge11_Node000009_Node000005"><a xlink:title=" ">
<path fill="none" stroke="#63b8ff" d="M148.29,-129.97C126.02,-101.99 90.46,-57.29 71.64,-33.63"/>
<polygon fill="#63b8ff" stroke="#63b8ff" points="145.38,-131.94 154.34,-137.58 150.85,-127.58 145.38,-131.94"/>
</a>
</g>
</g>
<!-- Node9&#45;&gt;Node6 -->
<g id="edge12_Node000009_Node000006" class="edge">
<title>Node9&#45;&gt;Node6</title>
<g id="a_edge12_Node000009_Node000006"><a xlink:title=" ">
<path fill="none" stroke="#63b8ff" d="M148.96,-129.39C138.51,-112.22 129.29,-89.17 138,-69.5 144.44,-54.96 157.21,-42.75 169.03,-33.85"/>
<polygon fill="#63b8ff" stroke="#63b8ff" points="145.87,-131.06 154.29,-137.49 151.71,-127.21 145.87,-131.06"/>
</a>
</g>
</g>
<!-- Node10 -->
<g id="Node000010" class="node">
<title>Node10</title>
<g id="a_Node000010"><a xlink:href="motor__convert_8c.html" target="_top" xlink:title=" ">
<polygon fill="white" stroke="#666666" points="265,-103 147,-103 147,-69.5 265,-69.5 265,-103"/>
<text xml:space="preserve" text-anchor="start" x="155" y="-89.5" font-family="Helvetica,sans-Serif" font-size="10.00">source/motion/motor</text>
<text xml:space="preserve" text-anchor="middle" x="206" y="-76.75" font-family="Helvetica,sans-Serif" font-size="10.00">/motor_convert.c</text>
</a>
</g>
</g>
<!-- Node9&#45;&gt;Node10 -->
<g id="edge10_Node000009_Node000010" class="edge">
<title>Node9&#45;&gt;Node10</title>
<g id="a_edge10_Node000009_Node000010"><a xlink:title=" ">
<path fill="none" stroke="#63b8ff" d="M182.64,-128.74C187.5,-120.11 192.76,-110.76 197.06,-103.13"/>
<polygon fill="#63b8ff" stroke="#63b8ff" points="179.6,-127 177.75,-137.43 185.7,-130.44 179.6,-127"/>
</a>
</g>
</g>
<!-- Node11&#45;&gt;Node4 -->
<g id="edge14_Node000011_Node000004" class="edge">
<title>Node11&#45;&gt;Node4</title>
<g id="a_edge14_Node000011_Node000004"><a xlink:title=" ">
<path fill="none" stroke="#63b8ff" d="M1057.53,-63.04C1072.82,-53.49 1090.35,-42.53 1104.34,-33.79"/>
<polygon fill="#63b8ff" stroke="#63b8ff" points="1055.78,-60.01 1049.15,-68.28 1059.49,-65.95 1055.78,-60.01"/>
</a>
</g>
</g>
<!-- Node12 -->
<g id="Node000012" class="node">
<title>Node12</title>
<g id="a_Node000012"><a xlink:href="motor__process_8c.html" target="_top" xlink:title=" ">
<polygon fill="white" stroke="#666666" points="673,-33.5 555,-33.5 555,0 673,0 673,-33.5"/>
<text xml:space="preserve" text-anchor="start" x="563" y="-20" font-family="Helvetica,sans-Serif" font-size="10.00">source/motion/motor</text>
<text xml:space="preserve" text-anchor="middle" x="614" y="-7.25" font-family="Helvetica,sans-Serif" font-size="10.00">/motor_process.c</text>
</a>
</g>
</g>
<!-- Node11&#45;&gt;Node12 -->
<g id="edge15_Node000011_Node000012" class="edge">
<title>Node11&#45;&gt;Node12</title>
<g id="a_edge15_Node000011_Node000012"><a xlink:title=" ">
<path fill="none" stroke="#63b8ff" d="M951.57,-69.16C835.14,-48.39 802.58,-53.11 689,-33.5 683.89,-32.62 678.59,-31.64 673.29,-30.61"/>
<polygon fill="#63b8ff" stroke="#63b8ff" points="950.78,-72.57 961.24,-70.91 952.02,-65.68 950.78,-72.57"/>
</a>
</g>
</g>
<!-- Node13&#45;&gt;Node10 -->
<g id="edge17_Node000013_Node000010" class="edge">
<title>Node13&#45;&gt;Node10</title>
<g id="a_edge17_Node000013_Node000010"><a xlink:title=" ">
<path fill="none" stroke="#63b8ff" d="M569.78,-146.67C495.88,-137.73 376.32,-122.05 274,-103 271.14,-102.47 268.22,-101.9 265.27,-101.3"/>
<polygon fill="#63b8ff" stroke="#63b8ff" points="568.94,-150.09 579.29,-147.81 569.78,-143.14 568.94,-150.09"/>
</a>
</g>
</g>
<!-- Node13&#45;&gt;Node11 -->
<g id="edge21_Node000013_Node000011" class="edge">
<title>Node13&#45;&gt;Node11</title>
<g id="a_edge21_Node000013_Node000011"><a xlink:title=" ">
<path fill="none" stroke="#63b8ff" d="M710.34,-143.7C788.18,-131.37 908.61,-111.99 954,-103 956.85,-102.44 959.77,-101.84 962.71,-101.22"/>
<polygon fill="#63b8ff" stroke="#63b8ff" points="710.01,-140.21 700.68,-145.23 711.1,-147.12 710.01,-140.21"/>
</a>
</g>
</g>
<!-- Node14 -->
<g id="Node000014" class="node">
<title>Node14</title>
<g id="a_Node000014"><a xlink:href="motor__core_8h.html" target="_top" xlink:title=" ">
<polygon fill="white" stroke="#666666" points="945,-103 827,-103 827,-69.5 945,-69.5 945,-103"/>
<text xml:space="preserve" text-anchor="start" x="835" y="-89.5" font-family="Helvetica,sans-Serif" font-size="10.00">source/motion/motor</text>
<text xml:space="preserve" text-anchor="middle" x="886" y="-76.75" font-family="Helvetica,sans-Serif" font-size="10.00">/motor_core.h</text>
</a>
</g>
</g>
<!-- Node13&#45;&gt;Node14 -->
<g id="edge18_Node000013_Node000014" class="edge">
<title>Node13&#45;&gt;Node14</title>
<g id="a_edge18_Node000013_Node000014"><a xlink:title=" ">
<path fill="none" stroke="#63b8ff" d="M709.65,-135.64C746.73,-125.47 791.82,-113.09 827.13,-103.4"/>
<polygon fill="#63b8ff" stroke="#63b8ff" points="709.1,-132.16 700.38,-138.18 710.95,-138.91 709.1,-132.16"/>
</a>
</g>
</g>
<!-- Node17 -->
<g id="Node000017" class="node">
<title>Node17</title>
<g id="a_Node000017"><a xlink:href="motor__motion_8h.html" target="_top" xlink:title=" ">
<polygon fill="white" stroke="#666666" points="401,-103 283,-103 283,-69.5 401,-69.5 401,-103"/>
<text xml:space="preserve" text-anchor="start" x="291" y="-89.5" font-family="Helvetica,sans-Serif" font-size="10.00">source/motion/motor</text>
<text xml:space="preserve" text-anchor="middle" x="342" y="-76.75" font-family="Helvetica,sans-Serif" font-size="10.00">/motor_motion.h</text>
</a>
</g>
</g>
<!-- Node13&#45;&gt;Node17 -->
<g id="edge22_Node000013_Node000017" class="edge">
<title>Node13&#45;&gt;Node17</title>
<g id="a_edge22_Node000013_Node000017"><a xlink:title=" ">
<path fill="none" stroke="#63b8ff" d="M569.93,-139.11C524.36,-128.9 463.64,-115.25 410,-103 407.16,-102.35 404.26,-101.69 401.33,-101.02"/>
<polygon fill="#63b8ff" stroke="#63b8ff" points="568.89,-142.46 579.41,-141.23 570.42,-135.63 568.89,-142.46"/>
</a>
</g>
</g>
<!-- Node19 -->
<g id="Node000019" class="node">
<title>Node19</title>
<g id="a_Node000019"><a xlink:href="motor__process_8h.html" target="_top" xlink:title=" ">
<polygon fill="white" stroke="#666666" points="809,-103 691,-103 691,-69.5 809,-69.5 809,-103"/>
<text xml:space="preserve" text-anchor="start" x="699" y="-89.5" font-family="Helvetica,sans-Serif" font-size="10.00">source/motion/motor</text>
<text xml:space="preserve" text-anchor="middle" x="750" y="-76.75" font-family="Helvetica,sans-Serif" font-size="10.00">/motor_process.h</text>
</a>
</g>
</g>
<!-- Node13&#45;&gt;Node19 -->
<g id="edge26_Node000013_Node000019" class="edge">
<title>Node13&#45;&gt;Node19</title>
<g id="a_edge26_Node000013_Node000019"><a xlink:title=" ">
<path fill="none" stroke="#63b8ff" d="M675.74,-132.82C691.42,-123.2 709.48,-112.11 723.87,-103.29"/>
<polygon fill="#63b8ff" stroke="#63b8ff" points="674.33,-129.58 667.64,-137.79 677.99,-135.54 674.33,-129.58"/>
</a>
</g>
</g>
<!-- Node20 -->
<g id="Node000020" class="node">
<title>Node20</title>
<g id="a_Node000020"><a xlink:href="motor__sync_8h.html" target="_top" xlink:title=" ">
<polygon fill="white" stroke="#666666" points="537,-103 419,-103 419,-69.5 537,-69.5 537,-103"/>
<text xml:space="preserve" text-anchor="start" x="427" y="-89.5" font-family="Helvetica,sans-Serif" font-size="10.00">source/motion/motor</text>
<text xml:space="preserve" text-anchor="middle" x="478" y="-76.75" font-family="Helvetica,sans-Serif" font-size="10.00">/motor_sync.h</text>
</a>
</g>
</g>
<!-- Node13&#45;&gt;Node20 -->
<g id="edge29_Node000013_Node000020" class="edge">
<title>Node13&#45;&gt;Node20</title>
<g id="a_edge29_Node000013_Node000020"><a xlink:title=" ">
<path fill="none" stroke="#63b8ff" d="M590.64,-134.18C566.93,-124.3 538.92,-112.63 516.77,-103.4"/>
<polygon fill="#63b8ff" stroke="#63b8ff" points="589.22,-137.38 599.8,-138 591.92,-130.92 589.22,-137.38"/>
</a>
</g>
</g>
<!-- Node21 -->
<g id="Node000021" class="node">
<title>Node21</title>
<g id="a_Node000021"><a xlink:href="motor__tmc_8h.html" target="_top" xlink:title=" ">
<polygon fill="white" stroke="#666666" points="673,-103 555,-103 555,-69.5 673,-69.5 673,-103"/>
<text xml:space="preserve" text-anchor="start" x="563" y="-89.5" font-family="Helvetica,sans-Serif" font-size="10.00">source/motion/motor</text>
<text xml:space="preserve" text-anchor="middle" x="614" y="-76.75" font-family="Helvetica,sans-Serif" font-size="10.00">/motor_tmc.h</text>
</a>
</g>
</g>
<!-- Node13&#45;&gt;Node21 -->
<g id="edge32_Node000013_Node000021" class="edge">
<title>Node13&#45;&gt;Node21</title>
<g id="a_edge32_Node000013_Node000021"><a xlink:title=" ">
<path fill="none" stroke="#63b8ff" d="M629.76,-128.17C626.5,-119.7 622.99,-110.6 620.12,-103.13"/>
<polygon fill="#63b8ff" stroke="#63b8ff" points="626.43,-129.27 633.29,-137.34 632.97,-126.75 626.43,-129.27"/>
</a>
</g>
</g>
<!-- Node15 -->
<g id="Node000015" class="node">
<title>Node15</title>
<g id="a_Node000015"><a xlink:href="motor__core_8c.html" target="_top" xlink:title=" ">
<polygon fill="white" stroke="#666666" points="816,-33.5 698,-33.5 698,0 816,0 816,-33.5"/>
<text xml:space="preserve" text-anchor="start" x="706" y="-20" font-family="Helvetica,sans-Serif" font-size="10.00">source/motion/motor</text>
<text xml:space="preserve" text-anchor="middle" x="757" y="-7.25" font-family="Helvetica,sans-Serif" font-size="10.00">/motor_core.c</text>
</a>
</g>
</g>
<!-- Node14&#45;&gt;Node15 -->
<g id="edge19_Node000014_Node000015" class="edge">
<title>Node14&#45;&gt;Node15</title>
<g id="a_edge19_Node000014_Node000015"><a xlink:title=" ">
<path fill="none" stroke="#63b8ff" d="M845.12,-63.86C826.5,-54.12 804.84,-42.78 787.65,-33.79"/>
<polygon fill="#63b8ff" stroke="#63b8ff" points="843.28,-66.85 853.76,-68.38 846.52,-60.64 843.28,-66.85"/>
</a>
</g>
</g>
<!-- Node16 -->
<g id="Node000016" class="node">
<title>Node16</title>
<g id="a_Node000016"><a xlink:href="motor_8c.html" target="_top" xlink:title=" ">
<polygon fill="white" stroke="#666666" points="930,-27.12 842,-27.12 842,-6.38 930,-6.38 930,-27.12"/>
<text xml:space="preserve" text-anchor="middle" x="886" y="-13.62" font-family="Helvetica,sans-Serif" font-size="10.00">source/motor.c</text>
</a>
</g>
</g>
<!-- Node14&#45;&gt;Node16 -->
<g id="edge20_Node000014_Node000016" class="edge">
<title>Node14&#45;&gt;Node16</title>
<g id="a_edge20_Node000014_Node000016"><a xlink:title=" ">
<path fill="none" stroke="#63b8ff" d="M886,-57.78C886,-47.08 886,-35.51 886,-27.57"/>
<polygon fill="#63b8ff" stroke="#63b8ff" points="882.5,-57.74 886,-67.74 889.5,-57.74 882.5,-57.74"/>
</a>
</g>
</g>
<!-- Node17&#45;&gt;Node5 -->
<g id="edge23_Node000017_Node000005" class="edge">
<title>Node17&#45;&gt;Node5</title>
<g id="a_edge23_Node000017_Node000005"><a xlink:title=" ">
<path fill="none" stroke="#63b8ff" d="M271.61,-68.46C224.41,-57.2 162.94,-42.54 118.25,-31.88"/>
<polygon fill="#63b8ff" stroke="#63b8ff" points="270.66,-71.83 281.2,-70.75 272.29,-65.02 270.66,-71.83"/>
</a>
</g>
</g>
<!-- Node17&#45;&gt;Node12 -->
<g id="edge24_Node000017_Node000012" class="edge">
<title>Node17&#45;&gt;Node12</title>
<g id="a_edge24_Node000017_Node000012"><a xlink:title=" ">
<path fill="none" stroke="#63b8ff" d="M412.31,-67.8C456.5,-56.84 512.87,-42.85 554.77,-32.45"/>
<polygon fill="#63b8ff" stroke="#63b8ff" points="411.69,-64.35 402.82,-70.16 413.37,-71.14 411.69,-64.35"/>
</a>
</g>
</g>
<!-- Node18 -->
<g id="Node000018" class="node">
<title>Node18</title>
<g id="a_Node000018"><a xlink:href="motor__tmc_8c.html" target="_top" xlink:title=" ">
<polygon fill="white" stroke="#666666" points="422,-33.5 304,-33.5 304,0 422,0 422,-33.5"/>
<text xml:space="preserve" text-anchor="start" x="312" y="-20" font-family="Helvetica,sans-Serif" font-size="10.00">source/motion/motor</text>
<text xml:space="preserve" text-anchor="middle" x="363" y="-7.25" font-family="Helvetica,sans-Serif" font-size="10.00">/motor_tmc.c</text>
</a>
</g>
</g>
<!-- Node17&#45;&gt;Node18 -->
<g id="edge25_Node000017_Node000018" class="edge">
<title>Node17&#45;&gt;Node18</title>
<g id="a_edge25_Node000017_Node000018"><a xlink:title=" ">
<path fill="none" stroke="#63b8ff" d="M350.36,-58.39C352.97,-50 355.76,-41.01 358.06,-33.63"/>
<polygon fill="#63b8ff" stroke="#63b8ff" points="347.06,-57.22 347.43,-67.81 353.74,-59.3 347.06,-57.22"/>
</a>
</g>
</g>
<!-- Node19&#45;&gt;Node12 -->
<g id="edge28_Node000019_Node000012" class="edge">
<title>Node19&#45;&gt;Node12</title>
<g id="a_edge28_Node000019_Node000012"><a xlink:title=" ">
<path fill="none" stroke="#63b8ff" d="M707.17,-63.99C687.48,-54.22 664.51,-42.82 646.31,-33.79"/>
<polygon fill="#63b8ff" stroke="#63b8ff" points="705.56,-67.1 716.07,-68.41 708.67,-60.83 705.56,-67.1"/>
</a>
</g>
</g>
<!-- Node19&#45;&gt;Node15 -->
<g id="edge27_Node000019_Node000015" class="edge">
<title>Node19&#45;&gt;Node15</title>
<g id="a_edge27_Node000019_Node000015"><a xlink:title=" ">
<path fill="none" stroke="#63b8ff" d="M752.85,-57.81C753.7,-49.59 754.6,-40.84 755.35,-33.63"/>
<polygon fill="#63b8ff" stroke="#63b8ff" points="749.37,-57.44 751.82,-67.75 756.33,-58.16 749.37,-57.44"/>
</a>
</g>
</g>
<!-- Node20&#45;&gt;Node6 -->
<g id="edge31_Node000020_Node000006" class="edge">
<title>Node20&#45;&gt;Node6</title>
<g id="a_edge31_Node000020_Node000006"><a xlink:title=" ">
<path fill="none" stroke="#63b8ff" d="M407.61,-68.46C360.41,-57.2 298.94,-42.54 254.25,-31.88"/>
<polygon fill="#63b8ff" stroke="#63b8ff" points="406.66,-71.83 417.2,-70.75 408.29,-65.02 406.66,-71.83"/>
</a>
</g>
</g>
<!-- Node20&#45;&gt;Node12 -->
<g id="edge30_Node000020_Node000012" class="edge">
<title>Node20&#45;&gt;Node12</title>
<g id="a_edge30_Node000020_Node000012"><a xlink:title=" ">
<path fill="none" stroke="#63b8ff" d="M520.83,-63.99C540.52,-54.22 563.49,-42.82 581.69,-33.79"/>
<polygon fill="#63b8ff" stroke="#63b8ff" points="519.33,-60.83 511.93,-68.41 522.44,-67.1 519.33,-60.83"/>
</a>
</g>
</g>
<!-- Node21&#45;&gt;Node12 -->
<g id="edge33_Node000021_Node000012" class="edge">
<title>Node21&#45;&gt;Node12</title>
<g id="a_edge33_Node000021_Node000012"><a xlink:title=" ">
<path fill="none" stroke="#63b8ff" d="M614,-57.81C614,-49.59 614,-40.84 614,-33.63"/>
<polygon fill="#63b8ff" stroke="#63b8ff" points="610.5,-57.74 614,-67.74 617.5,-57.74 610.5,-57.74"/>
</a>
</g>
</g>
<!-- Node21&#45;&gt;Node18 -->
<g id="edge34_Node000021_Node000018" class="edge">
<title>Node21&#45;&gt;Node18</title>
<g id="a_edge34_Node000021_Node000018"><a xlink:title=" ">
<path fill="none" stroke="#63b8ff" d="M543.49,-66.29C505.35,-56.03 458.78,-43.51 422.49,-33.75"/>
<polygon fill="#63b8ff" stroke="#63b8ff" points="542.49,-69.64 553.05,-68.86 544.31,-62.88 542.49,-69.64"/>
</a>
</g>
</g>
<!-- Node23&#45;&gt;Node24 -->
<g id="edge37_Node000023_Node000024" class="edge">
<title>Node23&#45;&gt;Node24</title>
<g id="a_edge37_Node000023_Node000024"><a xlink:title=" ">
<path fill="none" stroke="#63b8ff" d="M906.12,-142.64C955.39,-132.43 1027.37,-117.25 1090,-103 1098.15,-101.14 1106.86,-99.09 1115.17,-97.09"/>
<polygon fill="#63b8ff" stroke="#63b8ff" points="905.6,-139.17 896.52,-144.63 907.02,-146.03 905.6,-139.17"/>
</a>
</g>
</g>
<!-- Node25&#45;&gt;Node7 -->
<g id="edge41_Node000025_Node000007" class="edge">
<title>Node25&#45;&gt;Node7</title>
<g id="a_edge41_Node000025_Node000007"><a xlink:title=" ">
<path fill="none" stroke="#63b8ff" d="M1460.95,-286.62C1429.44,-279.87 1394.78,-266.88 1372,-242 1354.59,-222.99 1351.93,-191.63 1352.1,-172.71"/>
<polygon fill="#63b8ff" stroke="#63b8ff" points="1459.97,-289.99 1470.46,-288.47 1461.31,-283.12 1459.97,-289.99"/>
</a>
</g>
</g>
<!-- Node25&#45;&gt;Node26 -->
<g id="edge42_Node000025_Node000026" class="edge">
<title>Node25&#45;&gt;Node26</title>
<g id="a_edge42_Node000025_Node000026"><a xlink:title=" ">
<path fill="none" stroke="#63b8ff" d="M1609.4,-291.86C1690.54,-288.04 1812.79,-276.54 1842,-242 1859.58,-221.21 1837.72,-190.99 1820.61,-172.68"/>
<polygon fill="#63b8ff" stroke="#63b8ff" points="1609.59,-288.35 1599.75,-292.28 1609.89,-295.34 1609.59,-288.35"/>
</a>
</g>
</g>
<!-- Node27 -->
<g id="Node000027" class="node">
<title>Node27</title>
<g id="a_Node000027"><a xlink:href="step__process_8h.html" target="_top" xlink:title=" ">
<polygon fill="white" stroke="#666666" points="1506.75,-242 1381.25,-242 1381.25,-208.5 1506.75,-208.5 1506.75,-242"/>
<text xml:space="preserve" text-anchor="start" x="1389.25" y="-228.5" font-family="Helvetica,sans-Serif" font-size="10.00">source/motion/stepper</text>
<text xml:space="preserve" text-anchor="middle" x="1444" y="-215.75" font-family="Helvetica,sans-Serif" font-size="10.00">/step_process.h</text>
</a>
</g>
</g>
<!-- Node25&#45;&gt;Node27 -->
<g id="edge43_Node000025_Node000027" class="edge">
<title>Node25&#45;&gt;Node27</title>
<g id="a_edge43_Node000025_Node000027"><a xlink:title=" ">
<path fill="none" stroke="#63b8ff" d="M1504.55,-271.16C1491.83,-261.73 1477.34,-250.98 1465.73,-242.37"/>
<polygon fill="#63b8ff" stroke="#63b8ff" points="1502.1,-273.71 1512.22,-276.85 1506.27,-268.08 1502.1,-273.71"/>
</a>
</g>
</g>
<!-- Node28 -->
<g id="Node000028" class="node">
<title>Node28</title>
<g id="a_Node000028"><a xlink:href="step__profile_8h.html" target="_top" xlink:title=" ">
<polygon fill="white" stroke="#666666" points="1688.75,-242 1563.25,-242 1563.25,-208.5 1688.75,-208.5 1688.75,-242"/>
<text xml:space="preserve" text-anchor="start" x="1571.25" y="-228.5" font-family="Helvetica,sans-Serif" font-size="10.00">source/motion/stepper</text>
<text xml:space="preserve" text-anchor="middle" x="1626" y="-215.75" font-family="Helvetica,sans-Serif" font-size="10.00">/step_profile.h</text>
</a>
</g>
</g>
<!-- Node25&#45;&gt;Node28 -->
<g id="edge46_Node000025_Node000028" class="edge">
<title>Node25&#45;&gt;Node28</title>
<g id="a_edge46_Node000025_Node000028"><a xlink:title=" ">
<path fill="none" stroke="#63b8ff" d="M1565.45,-271.16C1578.17,-261.73 1592.66,-250.98 1604.27,-242.37"/>
<polygon fill="#63b8ff" stroke="#63b8ff" points="1563.73,-268.08 1557.78,-276.85 1567.9,-273.71 1563.73,-268.08"/>
</a>
</g>
</g>
<!-- Node25&#45;&gt;Node30 -->
<g id="edge50_Node000025_Node000030" class="edge">
<title>Node25&#45;&gt;Node30</title>
<g id="a_edge50_Node000025_Node000030"><a xlink:title=" ">
<path fill="none" stroke="#63b8ff" d="M1531.2,-266.37C1527.31,-238.29 1521.38,-195.57 1518.2,-172.63"/>
<polygon fill="#63b8ff" stroke="#63b8ff" points="1527.73,-266.84 1532.58,-276.27 1534.67,-265.88 1527.73,-266.84"/>
</a>
</g>
</g>
<!-- Node31 -->
<g id="Node000031" class="node">
<title>Node31</title>
<g id="a_Node000031"><a xlink:href="step__timing_8h.html" target="_top" xlink:title=" ">
<polygon fill="white" stroke="#666666" points="1832.75,-242 1707.25,-242 1707.25,-208.5 1832.75,-208.5 1832.75,-242"/>
<text xml:space="preserve" text-anchor="start" x="1715.25" y="-228.5" font-family="Helvetica,sans-Serif" font-size="10.00">source/motion/stepper</text>
<text xml:space="preserve" text-anchor="middle" x="1770" y="-215.75" font-family="Helvetica,sans-Serif" font-size="10.00">/step_timing.h</text>
</a>
</g>
</g>
<!-- Node25&#45;&gt;Node31 -->
<g id="edge51_Node000025_Node000031" class="edge">
<title>Node25&#45;&gt;Node31</title>
<g id="a_edge51_Node000025_Node000031"><a xlink:title=" ">
<path fill="none" stroke="#63b8ff" d="M1601.99,-274.51C1637.32,-264.36 1680.18,-252.05 1713.76,-242.4"/>
<polygon fill="#63b8ff" stroke="#63b8ff" points="1601.39,-271.04 1592.74,-277.16 1603.32,-277.77 1601.39,-271.04"/>
</a>
</g>
</g>
<!-- Node27&#45;&gt;Node7 -->
<g id="edge44_Node000027_Node000007" class="edge">
<title>Node27&#45;&gt;Node7</title>
<g id="a_edge44_Node000027_Node000007"><a xlink:title=" ">
<path fill="none" stroke="#63b8ff" d="M1413.55,-201.66C1400.83,-192.23 1386.34,-181.48 1374.73,-172.87"/>
<polygon fill="#63b8ff" stroke="#63b8ff" points="1411.1,-204.21 1421.22,-207.35 1415.27,-198.58 1411.1,-204.21"/>
</a>
</g>
</g>
<!-- Node27&#45;&gt;Node26 -->
<g id="edge45_Node000027_Node000026" class="edge">
<title>Node27&#45;&gt;Node26</title>
<g id="a_edge45_Node000027_Node000026"><a xlink:title=" ">
<path fill="none" stroke="#63b8ff" d="M1518.36,-211.68C1576.6,-201.64 1659.6,-186.92 1732,-172.5 1734.89,-171.93 1737.84,-171.33 1740.81,-170.71"/>
<polygon fill="#63b8ff" stroke="#63b8ff" points="1517.81,-208.22 1508.54,-213.37 1518.99,-215.12 1517.81,-208.22"/>
</a>
</g>
</g>
<!-- Node28&#45;&gt;Node26 -->
<g id="edge47_Node000028_Node000026" class="edge">
<title>Node28&#45;&gt;Node26</title>
<g id="a_edge47_Node000028_Node000026"><a xlink:title=" ">
<path fill="none" stroke="#63b8ff" d="M1679.18,-204.08C1705.46,-194.12 1736.73,-182.26 1761.4,-172.9"/>
<polygon fill="#63b8ff" stroke="#63b8ff" points="1678.16,-200.73 1670.05,-207.55 1680.64,-207.27 1678.16,-200.73"/>
</a>
</g>
</g>
<!-- Node29 -->
<g id="Node000029" class="node">
<title>Node29</title>
<g id="a_Node000029"><a xlink:href="step__profile_8c.html" target="_top" xlink:title=" ">
<polygon fill="white" stroke="#666666" points="1722.75,-172.5 1597.25,-172.5 1597.25,-139 1722.75,-139 1722.75,-172.5"/>
<text xml:space="preserve" text-anchor="start" x="1605.25" y="-159" font-family="Helvetica,sans-Serif" font-size="10.00">source/motion/stepper</text>
<text xml:space="preserve" text-anchor="middle" x="1660" y="-146.25" font-family="Helvetica,sans-Serif" font-size="10.00">/step_profile.c</text>
</a>
</g>
</g>
<!-- Node28&#45;&gt;Node29 -->
<g id="edge48_Node000028_Node000029" class="edge">
<title>Node28&#45;&gt;Node29</title>
<g id="a_edge48_Node000028_Node000029"><a xlink:title=" ">
<path fill="none" stroke="#63b8ff" d="M1639.1,-198.24C1643.45,-189.61 1648.16,-180.26 1652,-172.63"/>
<polygon fill="#63b8ff" stroke="#63b8ff" points="1636.11,-196.4 1634.74,-206.9 1642.36,-199.55 1636.11,-196.4"/>
</a>
</g>
</g>
<!-- Node28&#45;&gt;Node30 -->
<g id="edge49_Node000028_Node000030" class="edge">
<title>Node28&#45;&gt;Node30</title>
<g id="a_edge49_Node000028_Node000030"><a xlink:title=" ">
<path fill="none" stroke="#63b8ff" d="M1590.26,-202.32C1574.58,-192.7 1556.52,-181.61 1542.13,-172.79"/>
<polygon fill="#63b8ff" stroke="#63b8ff" points="1588.01,-205.04 1598.36,-207.29 1591.67,-199.08 1588.01,-205.04"/>
</a>
</g>
</g>
<!-- Node31&#45;&gt;Node26 -->
<g id="edge52_Node000031_Node000026" class="edge">
<title>Node31&#45;&gt;Node26</title>
<g id="a_edge52_Node000031_Node000026"><a xlink:title=" ">
<path fill="none" stroke="#63b8ff" d="M1783.1,-198.24C1787.45,-189.61 1792.16,-180.26 1796,-172.63"/>
<polygon fill="#63b8ff" stroke="#63b8ff" points="1780.11,-196.4 1778.74,-206.9 1786.36,-199.55 1780.11,-196.4"/>
</a>
</g>
</g>
<!-- Node31&#45;&gt;Node30 -->
<g id="edge53_Node000031_Node000030" class="edge">
<title>Node31&#45;&gt;Node30</title>
<g id="a_edge53_Node000031_Node000030"><a xlink:title=" ">
<path fill="none" stroke="#63b8ff" d="M1698.08,-205.14C1659.8,-194.97 1613.24,-182.59 1576.78,-172.9"/>
<polygon fill="#63b8ff" stroke="#63b8ff" points="1697.13,-208.51 1707.7,-207.69 1698.93,-201.74 1697.13,-208.51"/>
</a>
</g>
</g>
</g>
</svg>
