<?xml version="1.0" encoding="UTF-8" standalone="no"?>
<!DOCTYPE svg PUBLIC "-//W3C//DTD SVG 1.1//EN"
 "http://www.w3.org/Graphics/SVG/1.1/DTD/svg11.dtd">
<!-- Generated by graphviz version 14.1.4 (0)
 -->
<!-- Title: source/motion/stepper/step_core.h Pages: 1 -->
<svg width="994pt" height="212pt"
 viewBox="0.00 0.00 994.00 212.00" xmlns="http://www.w3.org/2000/svg" xmlns:xlink="http://www.w3.org/1999/xlink">
<g id="graph0" class="graph" transform="scale(1 1) rotate(0) translate(4 207.75)">
<title>source/motion/stepper/step_core.h</title>
<!-- Node1 -->
<g id="Node000001" class="node">
<title>Node1</title>
<g id="a_Node000001"><a xlink:title=" ">
<polygon fill="#999999" stroke="#666666" points="631.5,-203.75 506,-203.75 506,-170.25 631.5,-170.25 631.5,-203.75"/>
<text xml:space="preserve" text-anchor="start" x="514" y="-190.25" font-family="Helvetica,sans-Serif" font-size="10.00">source/motion/stepper</text>
<text xml:space="preserve" text-anchor="middle" x="568.75" y="-177.5" font-family="Helvetica,sans-Serif" font-size="10.00">/step_core.h</text>
</a>
</g>
</g>
<!-- Node2 -->
<g id="Node000002" class="node">
<title>Node2</title>
<g id="a_Node000002"><a xlink:href="pca9555a_8h.html" target="_top" xlink:title=" ">
<polygon fill="white" stroke="#666666" points="645.75,-77.5 491.75,-77.5 491.75,-56.75 645.75,-56.75 645.75,-77.5"/>
<text xml:space="preserve" text-anchor="middle" x="568.75" y="-64" font-family="Helvetica,sans-Serif" font-size="10.00">driver/pca9555a/pca9555a.h</text>
</a>
</g>
</g>
<!-- Node1&#45;&gt;Node2 -->
<g id="edge1_Node000001_Node000002" class="edge">
<title>Node1&#45;&gt;Node2</title>
<g id="a_edge1_Node000001_Node000002"><a xlink:title=" ">
<path fill="none" stroke="#63b8ff" d="M568.75,-170.1C568.75,-149.21 568.75,-112.46 568.75,-89.25"/>
<polygon fill="#63b8ff" stroke="#63b8ff" points="572.25,-89.45 568.75,-79.45 565.25,-89.45 572.25,-89.45"/>
</a>
</g>
</g>
<!-- Node3 -->
<g id="Node000003" class="node">
<title>Node3</title>
<g id="a_Node000003"><a xlink:title=" ">
<polygon fill="#e0e0e0" stroke="#999999" points="471.25,-20.75 386.25,-20.75 386.25,0 471.25,0 471.25,-20.75"/>
<text xml:space="preserve" text-anchor="middle" x="428.75" y="-7.25" font-family="Helvetica,sans-Serif" font-size="10.00">fsl_common.h</text>
</a>
</g>
</g>
<!-- Node1&#45;&gt;Node3 -->
<g id="edge6_Node000001_Node000003" class="edge">
<title>Node1&#45;&gt;Node3</title>
<g id="a_edge6_Node000001_Node000003"><a xlink:title=" ">
<path fill="none" stroke="#63b8ff" d="M523.4,-169.79C484.59,-153.22 431.22,-123.34 406.75,-77.5 398.76,-62.53 406.13,-44.12 414.42,-30.52"/>
<polygon fill="#63b8ff" stroke="#63b8ff" points="417.17,-32.71 419.86,-22.46 411.37,-28.79 417.17,-32.71"/>
</a>
</g>
</g>
<!-- Node5 -->
<g id="Node000005" class="node">
<title>Node5</title>
<g id="a_Node000005"><a xlink:title=" ">
<polygon fill="#e0e0e0" stroke="#999999" points="71.5,-77.5 0,-77.5 0,-56.75 71.5,-56.75 71.5,-77.5"/>
<text xml:space="preserve" text-anchor="middle" x="35.75" y="-64" font-family="Helvetica,sans-Serif" font-size="10.00">FreeRTOS.h</text>
</a>
</g>
</g>
<!-- Node1&#45;&gt;Node5 -->
<g id="edge4_Node000001_Node000005" class="edge">
<title>Node1&#45;&gt;Node5</title>
<g id="a_edge4_Node000001_Node000005"><a xlink:title=" ">
<path fill="none" stroke="#63b8ff" d="M505.8,-181.86C431.6,-175.92 305.05,-162.41 199.75,-134.25 151.26,-121.28 97.8,-97.9 65.51,-82.7"/>
<polygon fill="#63b8ff" stroke="#63b8ff" points="67.31,-79.68 56.77,-78.54 64.3,-86 67.31,-79.68"/>
</a>
</g>
</g>
<!-- Node6 -->
<g id="Node000006" class="node">
<title>Node6</title>
<g id="a_Node000006"><a xlink:title=" ">
<polygon fill="#e0e0e0" stroke="#999999" points="837.75,-134.25 791.75,-134.25 791.75,-113.5 837.75,-113.5 837.75,-134.25"/>
<text xml:space="preserve" text-anchor="middle" x="814.75" y="-120.75" font-family="Helvetica,sans-Serif" font-size="10.00">task.h</text>
</a>
</g>
</g>
<!-- Node1&#45;&gt;Node6 -->
<g id="edge5_Node000001_Node000006" class="edge">
<title>Node1&#45;&gt;Node6</title>
<g id="a_edge5_Node000001_Node000006"><a xlink:title=" ">
<path fill="none" stroke="#63b8ff" d="M631.88,-170.46C673.35,-160.23 728.8,-146.51 777.75,-134.25 778.57,-134.04 779.4,-133.84 780.24,-133.63"/>
<polygon fill="#63b8ff" stroke="#63b8ff" points="780.96,-137.05 789.8,-131.22 779.25,-130.27 780.96,-137.05"/>
</a>
</g>
</g>
<!-- Node7 -->
<g id="Node000007" class="node">
<title>Node7</title>
<g id="a_Node000007"><a xlink:title=" ">
<polygon fill="#e0e0e0" stroke="#999999" points="474.12,-77.5 415.38,-77.5 415.38,-56.75 474.12,-56.75 474.12,-77.5"/>
<text xml:space="preserve" text-anchor="middle" x="444.75" y="-64" font-family="Helvetica,sans-Serif" font-size="10.00">fsl_ftm.h</text>
</a>
</g>
</g>
<!-- Node1&#45;&gt;Node7 -->
<g id="edge7_Node000001_Node000007" class="edge">
<title>Node1&#45;&gt;Node7</title>
<g id="a_edge7_Node000001_Node000007"><a xlink:title=" ">
<path fill="none" stroke="#63b8ff" d="M551.77,-169.86C528.6,-147.83 487.22,-108.5 463.27,-85.73"/>
<polygon fill="#63b8ff" stroke="#63b8ff" points="465.77,-83.28 456.12,-78.93 460.95,-88.36 465.77,-83.28"/>
</a>
</g>
</g>
<!-- Node8 -->
<g id="Node000008" class="node">
<title>Node8</title>
<g id="a_Node000008"><a xlink:title=" ">
<polygon fill="#e0e0e0" stroke="#999999" points="905.38,-77.5 842.12,-77.5 842.12,-56.75 905.38,-56.75 905.38,-77.5"/>
<text xml:space="preserve" text-anchor="middle" x="873.75" y="-64" font-family="Helvetica,sans-Serif" font-size="10.00">fsl_gpio.h</text>
</a>
</g>
</g>
<!-- Node1&#45;&gt;Node8 -->
<g id="edge8_Node000001_Node000008" class="edge">
<title>Node1&#45;&gt;Node8</title>
<g id="a_edge8_Node000001_Node000008"><a xlink:title=" ">
<path fill="none" stroke="#63b8ff" d="M615.17,-169.79C642.14,-160.07 676.64,-147.13 706.75,-134.25 726.26,-125.9 730.21,-121.77 749.75,-113.5 777.4,-101.81 809.2,-90.2 833.68,-81.66"/>
<polygon fill="#63b8ff" stroke="#63b8ff" points="834.64,-85.03 842.94,-78.45 832.35,-78.42 834.64,-85.03"/>
</a>
</g>
</g>
<!-- Node9 -->
<g id="Node000009" class="node">
<title>Node9</title>
<g id="a_Node000009"><a xlink:title=" ">
<polygon fill="#e0e0e0" stroke="#999999" points="985.62,-77.5 923.88,-77.5 923.88,-56.75 985.62,-56.75 985.62,-77.5"/>
<text xml:space="preserve" text-anchor="middle" x="954.75" y="-64" font-family="Helvetica,sans-Serif" font-size="10.00">fsl_port.h</text>
</a>
</g>
</g>
<!-- Node1&#45;&gt;Node9 -->
<g id="edge9_Node000001_Node000009" class="edge">
<title>Node1&#45;&gt;Node9</title>
<g id="a_edge9_Node000001_Node000009"><a xlink:title=" ">
<path fill="none" stroke="#63b8ff" d="M631.74,-170.36C665.23,-161.28 706.81,-148.77 742.75,-134.25 761.32,-126.75 764.07,-120.71 782.75,-113.5 806.29,-104.42 869.85,-88.44 912.76,-78.08"/>
<polygon fill="#63b8ff" stroke="#63b8ff" points="913.34,-81.53 922.25,-75.79 911.71,-74.73 913.34,-81.53"/>
</a>
</g>
</g>
<!-- Node10 -->
<g id="Node000010" class="node">
<title>Node10</title>
<g id="a_Node000010"><a xlink:href="cmd__handle_8h.html" target="_top" xlink:title=" ">
<polygon fill="white" stroke="#666666" points="292.88,-134.25 208.62,-134.25 208.62,-113.5 292.88,-113.5 292.88,-134.25"/>
<text xml:space="preserve" text-anchor="middle" x="250.75" y="-120.75" font-family="Helvetica,sans-Serif" font-size="10.00">cmd_handle.h</text>
</a>
</g>
</g>
<!-- Node1&#45;&gt;Node10 -->
<g id="edge10_Node000001_Node000010" class="edge">
<title>Node1&#45;&gt;Node10</title>
<g id="a_edge10_Node000001_Node000010"><a xlink:title=" ">
<path fill="none" stroke="#63b8ff" d="M505.54,-173.85C446.57,-162.52 359.57,-145.79 304.04,-135.12"/>
<polygon fill="#63b8ff" stroke="#63b8ff" points="304.99,-131.74 294.51,-133.29 303.67,-138.61 304.99,-131.74"/>
</a>
</g>
</g>
<!-- Node14 -->
<g id="Node000014" class="node">
<title>Node14</title>
<g id="a_Node000014"><a xlink:href="step__shared_8h.html" target="_top" xlink:title=" ">
<polygon fill="white" stroke="#666666" points="697.88,-134.25 613.62,-134.25 613.62,-113.5 697.88,-113.5 697.88,-134.25"/>
<text xml:space="preserve" text-anchor="middle" x="655.75" y="-120.75" font-family="Helvetica,sans-Serif" font-size="10.00">step_shared.h</text>
</a>
</g>
</g>
<!-- Node1&#45;&gt;Node14 -->
<g id="edge16_Node000001_Node000014" class="edge">
<title>Node1&#45;&gt;Node14</title>
<g id="a_edge16_Node000001_Node000014"><a xlink:title=" ">
<path fill="none" stroke="#63b8ff" d="M591.61,-169.94C604.16,-161.12 619.7,-150.2 632.34,-141.32"/>
<polygon fill="#63b8ff" stroke="#63b8ff" points="634.33,-144.2 640.5,-135.59 630.31,-138.47 634.33,-144.2"/>
</a>
</g>
</g>
<!-- Node2&#45;&gt;Node3 -->
<g id="edge2_Node000002_Node000003" class="edge">
<title>Node2&#45;&gt;Node3</title>
<g id="a_edge2_Node000002_Node000003"><a xlink:title=" ">
<path fill="none" stroke="#63b8ff" d="M543.72,-56.34C521.52,-47.66 488.86,-34.88 464.02,-25.17"/>
<polygon fill="#63b8ff" stroke="#63b8ff" points="465.56,-22.01 454.97,-21.63 463.01,-28.53 465.56,-22.01"/>
</a>
</g>
</g>
<!-- Node4 -->
<g id="Node000004" class="node">
<title>Node4</title>
<g id="a_Node000004"><a xlink:title=" ">
<polygon fill="#e0e0e0" stroke="#999999" points="608.62,-20.75 528.88,-20.75 528.88,0 608.62,0 608.62,-20.75"/>
<text xml:space="preserve" text-anchor="middle" x="568.75" y="-7.25" font-family="Helvetica,sans-Serif" font-size="10.00">peripherals.h</text>
</a>
</g>
</g>
<!-- Node2&#45;&gt;Node4 -->
<g id="edge3_Node000002_Node000004" class="edge">
<title>Node2&#45;&gt;Node4</title>
<g id="a_edge3_Node000002_Node000004"><a xlink:title=" ">
<path fill="none" stroke="#63b8ff" d="M568.75,-56.34C568.75,-49.72 568.75,-40.72 568.75,-32.52"/>
<polygon fill="#63b8ff" stroke="#63b8ff" points="572.25,-32.59 568.75,-22.59 565.25,-32.59 572.25,-32.59"/>
</a>
</g>
</g>
<!-- Node10&#45;&gt;Node3 -->
<g id="edge14_Node000010_Node000003" class="edge">
<title>Node10&#45;&gt;Node3</title>
<g id="a_edge14_Node000010_Node000003"><a xlink:title=" ">
<path fill="none" stroke="#63b8ff" d="M268.78,-113.17C285.14,-104.24 309.85,-90.45 330.75,-77.5 356.9,-61.3 386.02,-41.4 405.67,-27.69"/>
<polygon fill="#63b8ff" stroke="#63b8ff" points="407.6,-30.61 413.78,-22.01 403.58,-24.88 407.6,-30.61"/>
</a>
</g>
</g>
<!-- Node10&#45;&gt;Node5 -->
<g id="edge12_Node000010_Node000005" class="edge">
<title>Node10&#45;&gt;Node5</title>
<g id="a_edge12_Node000010_Node000005"><a xlink:title=" ">
<path fill="none" stroke="#63b8ff" d="M212.31,-113.09C176.03,-103.85 121.56,-89.98 82.72,-80.09"/>
<polygon fill="#63b8ff" stroke="#63b8ff" points="83.73,-76.73 73.18,-77.66 82,-83.52 83.73,-76.73"/>
</a>
</g>
</g>
<!-- Node11 -->
<g id="Node000011" class="node">
<title>Node11</title>
<g id="a_Node000011"><a xlink:title=" ">
<polygon fill="#e0e0e0" stroke="#999999" points="142.12,-77.5 89.38,-77.5 89.38,-56.75 142.12,-56.75 142.12,-77.5"/>
<text xml:space="preserve" text-anchor="middle" x="115.75" y="-64" font-family="Helvetica,sans-Serif" font-size="10.00">stdint.h</text>
</a>
</g>
</g>
<!-- Node10&#45;&gt;Node11 -->
<g id="edge11_Node000010_Node000011" class="edge">
<title>Node10&#45;&gt;Node11</title>
<g id="a_edge11_Node000010_Node000011"><a xlink:title=" ">
<path fill="none" stroke="#63b8ff" d="M226.61,-113.09C205.31,-104.44 174,-91.75 150.08,-82.05"/>
<polygon fill="#63b8ff" stroke="#63b8ff" points="151.66,-78.91 141.08,-78.4 149.03,-85.4 151.66,-78.91"/>
</a>
</g>
</g>
<!-- Node12 -->
<g id="Node000012" class="node">
<title>Node12</title>
<g id="a_Node000012"><a xlink:title=" ">
<polygon fill="#e0e0e0" stroke="#999999" points="251.25,-77.5 160.25,-77.5 160.25,-56.75 251.25,-56.75 251.25,-77.5"/>
<text xml:space="preserve" text-anchor="middle" x="205.75" y="-64" font-family="Helvetica,sans-Serif" font-size="10.00">event_groups.h</text>
</a>
</g>
</g>
<!-- Node10&#45;&gt;Node12 -->
<g id="edge13_Node000010_Node000012" class="edge">
<title>Node10&#45;&gt;Node12</title>
<g id="a_edge13_Node000010_Node000012"><a xlink:title=" ">
<path fill="none" stroke="#63b8ff" d="M242.7,-113.09C236.69,-105.77 228.28,-95.54 221.01,-86.69"/>
<polygon fill="#63b8ff" stroke="#63b8ff" points="223.74,-84.5 214.69,-79 218.33,-88.95 223.74,-84.5"/>
</a>
</g>
</g>
<!-- Node13 -->
<g id="Node000013" class="node">
<title>Node13</title>
<g id="a_Node000013"><a xlink:title=" ">
<polygon fill="#e0e0e0" stroke="#999999" points="321.75,-77.5 269.75,-77.5 269.75,-56.75 321.75,-56.75 321.75,-77.5"/>
<text xml:space="preserve" text-anchor="middle" x="295.75" y="-64" font-family="Helvetica,sans-Serif" font-size="10.00">stdlib.h</text>
</a>
</g>
</g>
<!-- Node10&#45;&gt;Node13 -->
<g id="edge15_Node000010_Node000013" class="edge">
<title>Node10&#45;&gt;Node13</title>
<g id="a_edge15_Node000010_Node000013"><a xlink:title=" ">
<path fill="none" stroke="#63b8ff" d="M258.8,-113.09C264.81,-105.77 273.22,-95.54 280.49,-86.69"/>
<polygon fill="#63b8ff" stroke="#63b8ff" points="283.17,-88.95 286.81,-79 277.76,-84.5 283.17,-88.95"/>
</a>
</g>
</g>
<!-- Node14&#45;&gt;Node2 -->
<g id="edge17_Node000014_Node000002" class="edge">
<title>Node14&#45;&gt;Node2</title>
<g id="a_edge17_Node000014_Node000002"><a xlink:title=" ">
<path fill="none" stroke="#63b8ff" d="M640.2,-113.09C627.33,-104.99 608.81,-93.33 593.84,-83.92"/>
<polygon fill="#63b8ff" stroke="#63b8ff" points="595.78,-81 585.45,-78.63 592.05,-86.92 595.78,-81"/>
</a>
</g>
</g>
<!-- Node14&#45;&gt;Node3 -->
<g id="edge19_Node000014_Node000003" class="edge">
<title>Node14&#45;&gt;Node3</title>
<g id="a_edge19_Node000014_Node000003"><a xlink:title=" ">
<path fill="none" stroke="#63b8ff" d="M659.03,-113.05C663.09,-98.87 667.97,-72.64 654.75,-56.75 643.79,-43.57 546.27,-27.71 482.96,-18.66"/>
<polygon fill="#63b8ff" stroke="#63b8ff" points="483.46,-15.19 473.06,-17.26 482.48,-22.12 483.46,-15.19"/>
</a>
</g>
</g>
<!-- Node14&#45;&gt;Node7 -->
<g id="edge20_Node000014_Node000007" class="edge">
<title>Node14&#45;&gt;Node7</title>
<g id="a_edge20_Node000014_Node000007"><a xlink:title=" ">
<path fill="none" stroke="#63b8ff" d="M618.03,-113.09C580.59,-103.37 523.41,-88.53 485.08,-78.59"/>
<polygon fill="#63b8ff" stroke="#63b8ff" points="486.35,-75.3 475.79,-76.18 484.59,-82.08 486.35,-75.3"/>
</a>
</g>
</g>
<!-- Node14&#45;&gt;Node8 -->
<g id="edge21_Node000014_Node000008" class="edge">
<title>Node14&#45;&gt;Node8</title>
<g id="a_edge21_Node000014_Node000008"><a xlink:title=" ">
<path fill="none" stroke="#63b8ff" d="M694.98,-113.02C733.24,-103.41 791.31,-88.83 830.8,-78.91"/>
<polygon fill="#63b8ff" stroke="#63b8ff" points="831.6,-82.32 840.45,-76.49 829.9,-75.53 831.6,-82.32"/>
</a>
</g>
</g>
<!-- Node14&#45;&gt;Node9 -->
<g id="edge22_Node000014_Node000009" class="edge">
<title>Node14&#45;&gt;Node9</title>
<g id="a_edge22_Node000014_Node000009"><a xlink:title=" ">
<path fill="none" stroke="#63b8ff" d="M698.06,-116.22C747.2,-108.32 830.95,-94.35 912.54,-77.86"/>
<polygon fill="#63b8ff" stroke="#63b8ff" points="913.2,-81.3 922.3,-75.87 911.8,-74.44 913.2,-81.3"/>
</a>
</g>
</g>
<!-- Node15 -->
<g id="Node000015" class="node">
<title>Node15</title>
<g id="a_Node000015"><a xlink:title=" ">
<polygon fill="#e0e0e0" stroke="#999999" points="824,-77.5 701.5,-77.5 701.5,-56.75 824,-56.75 824,-77.5"/>
<text xml:space="preserve" text-anchor="middle" x="762.75" y="-64" font-family="Helvetica,sans-Serif" font-size="10.00">fsl_device_registers.h</text>
</a>
</g>
</g>
<!-- Node14&#45;&gt;Node15 -->
<g id="edge18_Node000014_Node000015" class="edge">
<title>Node14&#45;&gt;Node15</title>
<g id="a_edge18_Node000014_Node000015"><a xlink:title=" ">
<path fill="none" stroke="#63b8ff" d="M674.88,-113.09C691.24,-104.72 715.03,-92.54 733.73,-82.97"/>
<polygon fill="#63b8ff" stroke="#63b8ff" points="735.13,-86.19 742.44,-78.52 731.94,-79.96 735.13,-86.19"/>
</a>
</g>
</g>
</g>
</svg>
