<?xml version="1.0" encoding="UTF-8" standalone="no"?>
<!DOCTYPE svg PUBLIC "-//W3C//DTD SVG 1.1//EN"
 "http://www.w3.org/Graphics/SVG/1.1/DTD/svg11.dtd">
<!-- Generated by graphviz version 14.1.4 (0)
 -->
<!-- Title: source/step.h Pages: 1 -->
<svg width="542pt" height="199pt"
 viewBox="0.00 0.00 542.00 199.00" xmlns="http://www.w3.org/2000/svg" xmlns:xlink="http://www.w3.org/1999/xlink">
<g id="graph0" class="graph" transform="scale(1 1) rotate(0) translate(4 195)">
<title>source/step.h</title>
<!-- Node1 -->
<g id="Node000001" class="node">
<title>Node1</title>
<g id="a_Node000001"><a xlink:title=" ">
<polygon fill="#999999" stroke="#666666" points="288.38,-191 207.12,-191 207.12,-170.25 288.38,-170.25 288.38,-191"/>
<text xml:space="preserve" text-anchor="middle" x="247.75" y="-177.5" font-family="Helvetica,sans-Serif" font-size="10.00">source/step.h</text>
</a>
</g>
</g>
<!-- Node2 -->
<g id="Node000002" class="node">
<title>Node2</title>
<g id="a_Node000002"><a xlink:href="application_8c.html" target="_top" xlink:title=" ">
<polygon fill="white" stroke="#666666" points="113.5,-77.5 0,-77.5 0,-56.75 113.5,-56.75 113.5,-77.5"/>
<text xml:space="preserve" text-anchor="middle" x="56.75" y="-64" font-family="Helvetica,sans-Serif" font-size="10.00">source/application.c</text>
</a>
</g>
</g>
<!-- Node1&#45;&gt;Node2 -->
<g id="edge1_Node000001_Node000002" class="edge">
<title>Node1&#45;&gt;Node2</title>
<g id="a_edge1_Node000001_Node000002"><a xlink:title=" ">
<path fill="none" stroke="#63b8ff" d="M221.31,-164.19C181.34,-140.86 106.7,-97.29 73.46,-77.88"/>
<polygon fill="#63b8ff" stroke="#63b8ff" points="219.43,-167.14 229.83,-169.16 222.96,-161.1 219.43,-167.14"/>
</a>
</g>
</g>
<!-- Node3 -->
<g id="Node000003" class="node">
<title>Node3</title>
<g id="a_Node000003"><a xlink:href="motor_8c.html" target="_top" xlink:title=" ">
<polygon fill="white" stroke="#666666" points="219.75,-77.5 131.75,-77.5 131.75,-56.75 219.75,-56.75 219.75,-77.5"/>
<text xml:space="preserve" text-anchor="middle" x="175.75" y="-64" font-family="Helvetica,sans-Serif" font-size="10.00">source/motor.c</text>
</a>
</g>
</g>
<!-- Node1&#45;&gt;Node3 -->
<g id="edge2_Node000001_Node000003" class="edge">
<title>Node1&#45;&gt;Node3</title>
<g id="a_edge2_Node000001_Node000003"><a xlink:title=" ">
<path fill="none" stroke="#63b8ff" d="M222.9,-163.25C212.88,-155.53 202,-145.52 194.75,-134.25 183.25,-116.36 178.56,-91.38 176.77,-77.82"/>
<polygon fill="#63b8ff" stroke="#63b8ff" points="220.73,-166 230.87,-169.04 224.84,-160.34 220.73,-166"/>
</a>
</g>
</g>
<!-- Node4 -->
<g id="Node000004" class="node">
<title>Node4</title>
<g id="a_Node000004"><a xlink:href="motor_8h.html" target="_top" xlink:title=" ">
<polygon fill="white" stroke="#666666" points="292.12,-134.25 203.38,-134.25 203.38,-113.5 292.12,-113.5 292.12,-134.25"/>
<text xml:space="preserve" text-anchor="middle" x="247.75" y="-120.75" font-family="Helvetica,sans-Serif" font-size="10.00">source/motor.h</text>
</a>
</g>
</g>
<!-- Node1&#45;&gt;Node4 -->
<g id="edge3_Node000001_Node000004" class="edge">
<title>Node1&#45;&gt;Node4</title>
<g id="a_edge3_Node000001_Node000004"><a xlink:title=" ">
<path fill="none" stroke="#63b8ff" d="M247.75,-158.38C247.75,-150.16 247.75,-141.18 247.75,-134.58"/>
<polygon fill="#63b8ff" stroke="#63b8ff" points="244.25,-158.32 247.75,-168.32 251.25,-158.32 244.25,-158.32"/>
</a>
</g>
</g>
<!-- Node5 -->
<g id="Node000005" class="node">
<title>Node5</title>
<g id="a_Node000005"><a xlink:href="motorCmd_8c.html" target="_top" xlink:title=" ">
<polygon fill="white" stroke="#666666" points="534.38,-77.5 423.12,-77.5 423.12,-56.75 534.38,-56.75 534.38,-77.5"/>
<text xml:space="preserve" text-anchor="middle" x="478.75" y="-64" font-family="Helvetica,sans-Serif" font-size="10.00">source/motorCmd.c</text>
</a>
</g>
</g>
<!-- Node1&#45;&gt;Node5 -->
<g id="edge10_Node000001_Node000005" class="edge">
<title>Node1&#45;&gt;Node5</title>
<g id="a_edge10_Node000001_Node000005"><a xlink:title=" ">
<path fill="none" stroke="#63b8ff" d="M267.55,-162.38C285.22,-147.72 312.32,-126.96 338.75,-113.5 370.17,-97.5 408.4,-85.57 436.96,-77.96"/>
<polygon fill="#63b8ff" stroke="#63b8ff" points="265.29,-159.71 259.92,-168.84 269.82,-165.05 265.29,-159.71"/>
</a>
</g>
</g>
<!-- Node8 -->
<g id="Node000008" class="node">
<title>Node8</title>
<g id="a_Node000008"><a xlink:href="step_8c.html" target="_top" xlink:title=" ">
<polygon fill="white" stroke="#666666" points="428,-134.25 347.5,-134.25 347.5,-113.5 428,-113.5 428,-134.25"/>
<text xml:space="preserve" text-anchor="middle" x="387.75" y="-120.75" font-family="Helvetica,sans-Serif" font-size="10.00">source/step.c</text>
</a>
</g>
</g>
<!-- Node1&#45;&gt;Node8 -->
<g id="edge11_Node000001_Node000008" class="edge">
<title>Node1&#45;&gt;Node8</title>
<g id="a_edge11_Node000001_Node000008"><a xlink:title=" ">
<path fill="none" stroke="#63b8ff" d="M283.26,-165.74C308.16,-156 340.81,-143.23 362.94,-134.58"/>
<polygon fill="#63b8ff" stroke="#63b8ff" points="282.23,-162.38 274.19,-169.29 284.78,-168.9 282.23,-162.38"/>
</a>
</g>
</g>
<!-- Node4&#45;&gt;Node2 -->
<g id="edge4_Node000004_Node000002" class="edge">
<title>Node4&#45;&gt;Node2</title>
<g id="a_edge4_Node000004_Node000002"><a xlink:title=" ">
<path fill="none" stroke="#63b8ff" d="M202.95,-110.03C168.7,-100.22 122.2,-86.89 90.92,-77.92"/>
<polygon fill="#63b8ff" stroke="#63b8ff" points="201.57,-113.28 212.15,-112.67 203.5,-106.55 201.57,-113.28"/>
</a>
</g>
</g>
<!-- Node4&#45;&gt;Node3 -->
<g id="edge5_Node000004_Node000003" class="edge">
<title>Node4&#45;&gt;Node3</title>
<g id="a_edge5_Node000004_Node000003"><a xlink:title=" ">
<path fill="none" stroke="#63b8ff" d="M225.77,-106.16C213.57,-96.88 198.82,-85.67 188.51,-77.83"/>
<polygon fill="#63b8ff" stroke="#63b8ff" points="223.59,-108.9 233.67,-112.17 227.83,-103.33 223.59,-108.9"/>
</a>
</g>
</g>
<!-- Node4&#45;&gt;Node5 -->
<g id="edge6_Node000004_Node000005" class="edge">
<title>Node4&#45;&gt;Node5</title>
<g id="a_edge6_Node000004_Node000005"><a xlink:title=" ">
<path fill="none" stroke="#63b8ff" d="M300.3,-110.42C341.76,-100.59 398.8,-87.07 437.13,-77.99"/>
<polygon fill="#63b8ff" stroke="#63b8ff" points="299.71,-106.96 290.79,-112.67 301.33,-113.77 299.71,-106.96"/>
</a>
</g>
</g>
<!-- Node6 -->
<g id="Node000006" class="node">
<title>Node6</title>
<g id="a_Node000006"><a xlink:href="motor__configs_8h.html" target="_top" xlink:title=" ">
<polygon fill="white" stroke="#666666" points="405.38,-77.5 276.12,-77.5 276.12,-56.75 405.38,-56.75 405.38,-77.5"/>
<text xml:space="preserve" text-anchor="middle" x="340.75" y="-64" font-family="Helvetica,sans-Serif" font-size="10.00">source/motor_configs.h</text>
</a>
</g>
</g>
<!-- Node4&#45;&gt;Node6 -->
<g id="edge7_Node000004_Node000006" class="edge">
<title>Node4&#45;&gt;Node6</title>
<g id="a_edge7_Node000004_Node000006"><a xlink:title=" ">
<path fill="none" stroke="#63b8ff" d="M274.28,-107.26C290.38,-97.78 310.42,-85.98 324.27,-77.83"/>
<polygon fill="#63b8ff" stroke="#63b8ff" points="272.52,-104.23 265.68,-112.32 276.07,-110.26 272.52,-104.23"/>
</a>
</g>
</g>
<!-- Node7 -->
<g id="Node000007" class="node">
<title>Node7</title>
<g id="a_Node000007"><a xlink:href="motor__test_8c.html" target="_top" xlink:title=" ">
<polygon fill="white" stroke="#666666" points="350.12,-20.75 237.38,-20.75 237.38,0 350.12,0 350.12,-20.75"/>
<text xml:space="preserve" text-anchor="middle" x="293.75" y="-7.25" font-family="Helvetica,sans-Serif" font-size="10.00">source/motor_test.c</text>
</a>
</g>
</g>
<!-- Node4&#45;&gt;Node7 -->
<g id="edge9_Node000004_Node000007" class="edge">
<title>Node4&#45;&gt;Node7</title>
<g id="a_edge9_Node000004_Node000007"><a xlink:title=" ">
<path fill="none" stroke="#63b8ff" d="M252.2,-102.37C255.43,-89.06 260.36,-71.52 266.75,-56.75 272.35,-43.79 280.99,-30.01 286.98,-21.07"/>
<polygon fill="#63b8ff" stroke="#63b8ff" points="248.88,-101.19 250.05,-111.72 255.7,-102.75 248.88,-101.19"/>
</a>
</g>
</g>
<!-- Node6&#45;&gt;Node7 -->
<g id="edge8_Node000006_Node000007" class="edge">
<title>Node6&#45;&gt;Node7</title>
<g id="a_edge8_Node000006_Node000007"><a xlink:title=" ">
<path fill="none" stroke="#63b8ff" d="M324.97,-47.74C317.3,-38.81 308.41,-28.45 302.08,-21.08"/>
<polygon fill="#63b8ff" stroke="#63b8ff" points="322.19,-49.88 331.36,-55.19 327.5,-45.32 322.19,-49.88"/>
</a>
</g>
</g>
</g>
</svg>
