<?xml version="1.0" encoding="UTF-8" standalone="no"?>
<!DOCTYPE svg PUBLIC "-//W3C//DTD SVG 1.1//EN"
 "http://www.w3.org/Graphics/SVG/1.1/DTD/svg11.dtd">
<!-- Generated by graphviz version 14.1.4 (0)
 -->
<!-- Title: source/motion/stepper/step_profile.c Pages: 1 -->
<svg width="996pt" height="325pt"
 viewBox="0.00 0.00 996.00 325.00" xmlns="http://www.w3.org/2000/svg" xmlns:xlink="http://www.w3.org/1999/xlink">
<g id="graph0" class="graph" transform="scale(1 1) rotate(0) translate(4 321.25)">
<title>source/motion/stepper/step_profile.c</title>
<!-- Node1 -->
<g id="Node000001" class="node">
<title>Node1</title>
<g id="a_Node000001"><a xlink:title=" ">
<polygon fill="#999999" stroke="#666666" points="945.62,-317.25 820.12,-317.25 820.12,-283.75 945.62,-283.75 945.62,-317.25"/>
<text xml:space="preserve" text-anchor="start" x="828.12" y="-303.75" font-family="Helvetica,sans-Serif" font-size="10.00">source/motion/stepper</text>
<text xml:space="preserve" text-anchor="middle" x="882.88" y="-291" font-family="Helvetica,sans-Serif" font-size="10.00">/step_profile.c</text>
</a>
</g>
</g>
<!-- Node2 -->
<g id="Node000002" class="node">
<title>Node2</title>
<g id="a_Node000002"><a xlink:href="step__profile_8h.html" target="_top" xlink:title=" ">
<polygon fill="white" stroke="#666666" points="807.88,-247.75 725.88,-247.75 725.88,-227 807.88,-227 807.88,-247.75"/>
<text xml:space="preserve" text-anchor="middle" x="766.88" y="-234.25" font-family="Helvetica,sans-Serif" font-size="10.00">step_profile.h</text>
</a>
</g>
</g>
<!-- Node1&#45;&gt;Node2 -->
<g id="edge1_Node000001_Node000002" class="edge">
<title>Node1&#45;&gt;Node2</title>
<g id="a_edge1_Node000001_Node000002"><a xlink:title=" ">
<path fill="none" stroke="#63b8ff" d="M852.09,-283.28C834.53,-274.02 812.66,-262.5 795.47,-253.44"/>
<polygon fill="#63b8ff" stroke="#63b8ff" points="797.27,-250.44 786.79,-248.87 794.01,-256.63 797.27,-250.44"/>
</a>
</g>
</g>
<!-- Node18 -->
<g id="Node000018" class="node">
<title>Node18</title>
<g id="a_Node000018"><a xlink:title=" ">
<polygon fill="#e0e0e0" stroke="#999999" points="881.38,-247.75 832.38,-247.75 832.38,-227 881.38,-227 881.38,-247.75"/>
<text xml:space="preserve" text-anchor="middle" x="856.88" y="-234.25" font-family="Helvetica,sans-Serif" font-size="10.00">stdio.h</text>
</a>
</g>
</g>
<!-- Node1&#45;&gt;Node18 -->
<g id="edge20_Node000001_Node000018" class="edge">
<title>Node1&#45;&gt;Node18</title>
<g id="a_edge20_Node000001_Node000018"><a xlink:title=" ">
<path fill="none" stroke="#63b8ff" d="M876.04,-283.44C872.81,-275.84 868.92,-266.69 865.49,-258.62"/>
<polygon fill="#63b8ff" stroke="#63b8ff" points="868.79,-257.44 861.65,-249.61 862.35,-260.18 868.79,-257.44"/>
</a>
</g>
</g>
<!-- Node19 -->
<g id="Node000019" class="node">
<title>Node19</title>
<g id="a_Node000019"><a xlink:href="log_8h.html" target="_top" xlink:title=" ">
<polygon fill="white" stroke="#666666" points="932.88,-134.25 892.88,-134.25 892.88,-113.5 932.88,-113.5 932.88,-134.25"/>
<text xml:space="preserve" text-anchor="middle" x="912.88" y="-120.75" font-family="Helvetica,sans-Serif" font-size="10.00">log.h</text>
</a>
</g>
</g>
<!-- Node1&#45;&gt;Node19 -->
<g id="edge21_Node000001_Node000019" class="edge">
<title>Node1&#45;&gt;Node19</title>
<g id="a_edge21_Node000001_Node000019"><a xlink:title=" ">
<path fill="none" stroke="#63b8ff" d="M885.64,-283.38C891.1,-251.65 903.22,-181.09 909.28,-145.81"/>
<polygon fill="#63b8ff" stroke="#63b8ff" points="912.71,-146.48 910.96,-136.04 905.81,-145.3 912.71,-146.48"/>
</a>
</g>
</g>
<!-- Node20 -->
<g id="Node000020" class="node">
<title>Node20</title>
<g id="a_Node000020"><a xlink:title=" ">
<polygon fill="#e0e0e0" stroke="#999999" points="988.12,-247.75 937.62,-247.75 937.62,-227 988.12,-227 988.12,-247.75"/>
<text xml:space="preserve" text-anchor="middle" x="962.88" y="-234.25" font-family="Helvetica,sans-Serif" font-size="10.00">math.h</text>
</a>
</g>
</g>
<!-- Node1&#45;&gt;Node20 -->
<g id="edge24_Node000001_Node000020" class="edge">
<title>Node1&#45;&gt;Node20</title>
<g id="a_edge24_Node000001_Node000020"><a xlink:title=" ">
<path fill="none" stroke="#63b8ff" d="M903.89,-283.44C915.32,-274.71 929.44,-263.92 941,-255.09"/>
<polygon fill="#63b8ff" stroke="#63b8ff" points="942.97,-257.99 948.79,-249.14 938.72,-252.43 942.97,-257.99"/>
</a>
</g>
</g>
<!-- Node3 -->
<g id="Node000003" class="node">
<title>Node3</title>
<g id="a_Node000003"><a xlink:href="step__internal_8h.html" target="_top" xlink:title=" ">
<polygon fill="white" stroke="#666666" points="809.25,-191 720.5,-191 720.5,-170.25 809.25,-170.25 809.25,-191"/>
<text xml:space="preserve" text-anchor="middle" x="764.88" y="-177.5" font-family="Helvetica,sans-Serif" font-size="10.00">step_internal.h</text>
</a>
</g>
</g>
<!-- Node2&#45;&gt;Node3 -->
<g id="edge2_Node000002_Node000003" class="edge">
<title>Node2&#45;&gt;Node3</title>
<g id="a_edge2_Node000002_Node000003"><a xlink:title=" ">
<path fill="none" stroke="#63b8ff" d="M766.52,-226.59C766.28,-219.97 765.95,-210.97 765.65,-202.77"/>
<polygon fill="#63b8ff" stroke="#63b8ff" points="769.15,-202.71 765.28,-192.84 762.15,-202.96 769.15,-202.71"/>
</a>
</g>
</g>
<!-- Node4 -->
<g id="Node000004" class="node">
<title>Node4</title>
<g id="a_Node000004"><a xlink:title=" ">
<polygon fill="#e0e0e0" stroke="#999999" points="948.62,-77.5 877.12,-77.5 877.12,-56.75 948.62,-56.75 948.62,-77.5"/>
<text xml:space="preserve" text-anchor="middle" x="912.88" y="-64" font-family="Helvetica,sans-Serif" font-size="10.00">FreeRTOS.h</text>
</a>
</g>
</g>
<!-- Node3&#45;&gt;Node4 -->
<g id="edge3_Node000003_Node000004" class="edge">
<title>Node3&#45;&gt;Node4</title>
<g id="a_edge3_Node000003_Node000004"><a xlink:title=" ">
<path fill="none" stroke="#63b8ff" d="M777.75,-169.93C803.12,-150.81 859.8,-108.11 891.09,-84.54"/>
<polygon fill="#63b8ff" stroke="#63b8ff" points="892.83,-87.61 898.72,-78.79 888.62,-82.01 892.83,-87.61"/>
</a>
</g>
</g>
<!-- Node5 -->
<g id="Node000005" class="node">
<title>Node5</title>
<g id="a_Node000005"><a xlink:title=" ">
<polygon fill="#e0e0e0" stroke="#999999" points="704.38,-134.25 649.38,-134.25 649.38,-113.5 704.38,-113.5 704.38,-134.25"/>
<text xml:space="preserve" text-anchor="middle" x="676.88" y="-120.75" font-family="Helvetica,sans-Serif" font-size="10.00">queue.h</text>
</a>
</g>
</g>
<!-- Node3&#45;&gt;Node5 -->
<g id="edge4_Node000003_Node000005" class="edge">
<title>Node3&#45;&gt;Node5</title>
<g id="a_edge4_Node000003_Node000005"><a xlink:title=" ">
<path fill="none" stroke="#63b8ff" d="M749.14,-169.84C736,-161.66 717.03,-149.86 701.82,-140.4"/>
<polygon fill="#63b8ff" stroke="#63b8ff" points="704.1,-137.69 693.76,-135.38 700.4,-143.63 704.1,-137.69"/>
</a>
</g>
</g>
<!-- Node6 -->
<g id="Node000006" class="node">
<title>Node6</title>
<g id="a_Node000006"><a xlink:href="cmd__handle_8h.html" target="_top" xlink:title=" ">
<polygon fill="white" stroke="#666666" points="807,-134.25 722.75,-134.25 722.75,-113.5 807,-113.5 807,-134.25"/>
<text xml:space="preserve" text-anchor="middle" x="764.88" y="-120.75" font-family="Helvetica,sans-Serif" font-size="10.00">cmd_handle.h</text>
</a>
</g>
</g>
<!-- Node3&#45;&gt;Node6 -->
<g id="edge5_Node000003_Node000006" class="edge">
<title>Node3&#45;&gt;Node6</title>
<g id="a_edge5_Node000003_Node000006"><a xlink:title=" ">
<path fill="none" stroke="#63b8ff" d="M764.88,-169.84C764.88,-163.22 764.88,-154.22 764.88,-146.02"/>
<polygon fill="#63b8ff" stroke="#63b8ff" points="768.38,-146.09 764.88,-136.09 761.38,-146.09 768.38,-146.09"/>
</a>
</g>
</g>
<!-- Node11 -->
<g id="Node000011" class="node">
<title>Node11</title>
<g id="a_Node000011"><a xlink:href="step__shared_8h.html" target="_top" xlink:title=" ">
<polygon fill="white" stroke="#666666" points="464,-134.25 379.75,-134.25 379.75,-113.5 464,-113.5 464,-134.25"/>
<text xml:space="preserve" text-anchor="middle" x="421.88" y="-120.75" font-family="Helvetica,sans-Serif" font-size="10.00">step_shared.h</text>
</a>
</g>
</g>
<!-- Node3&#45;&gt;Node11 -->
<g id="edge11_Node000003_Node000011" class="edge">
<title>Node3&#45;&gt;Node11</title>
<g id="a_edge11_Node000003_Node000011"><a xlink:title=" ">
<path fill="none" stroke="#63b8ff" d="M720.03,-172.47C657.12,-162.43 542.83,-144.18 475.5,-133.43"/>
<polygon fill="#63b8ff" stroke="#63b8ff" points="476.22,-130.01 465.8,-131.89 475.12,-136.92 476.22,-130.01"/>
</a>
</g>
</g>
<!-- Node6&#45;&gt;Node4 -->
<g id="edge7_Node000006_Node000004" class="edge">
<title>Node6&#45;&gt;Node4</title>
<g id="a_edge7_Node000006_Node000004"><a xlink:title=" ">
<path fill="none" stroke="#63b8ff" d="M791.33,-113.09C814.91,-104.37 849.64,-91.52 875.94,-81.79"/>
<polygon fill="#63b8ff" stroke="#63b8ff" points="877.06,-85.11 885.23,-78.35 874.63,-78.54 877.06,-85.11"/>
</a>
</g>
</g>
<!-- Node7 -->
<g id="Node000007" class="node">
<title>Node7</title>
<g id="a_Node000007"><a xlink:title=" ">
<polygon fill="#e0e0e0" stroke="#999999" points="859.25,-77.5 806.5,-77.5 806.5,-56.75 859.25,-56.75 859.25,-77.5"/>
<text xml:space="preserve" text-anchor="middle" x="832.88" y="-64" font-family="Helvetica,sans-Serif" font-size="10.00">stdint.h</text>
</a>
</g>
</g>
<!-- Node6&#45;&gt;Node7 -->
<g id="edge6_Node000006_Node000007" class="edge">
<title>Node6&#45;&gt;Node7</title>
<g id="a_edge6_Node000006_Node000007"><a xlink:title=" ">
<path fill="none" stroke="#63b8ff" d="M777.03,-113.09C786.7,-105.3 800.46,-94.22 811.9,-85.01"/>
<polygon fill="#63b8ff" stroke="#63b8ff" points="814.05,-87.78 819.64,-78.78 809.66,-82.32 814.05,-87.78"/>
</a>
</g>
</g>
<!-- Node8 -->
<g id="Node000008" class="node">
<title>Node8</title>
<g id="a_Node000008"><a xlink:title=" ">
<polygon fill="#e0e0e0" stroke="#999999" points="680.38,-77.5 589.38,-77.5 589.38,-56.75 680.38,-56.75 680.38,-77.5"/>
<text xml:space="preserve" text-anchor="middle" x="634.88" y="-64" font-family="Helvetica,sans-Serif" font-size="10.00">event_groups.h</text>
</a>
</g>
</g>
<!-- Node6&#45;&gt;Node8 -->
<g id="edge8_Node000006_Node000008" class="edge">
<title>Node6&#45;&gt;Node8</title>
<g id="a_edge8_Node000006_Node000008"><a xlink:title=" ">
<path fill="none" stroke="#63b8ff" d="M741.63,-113.09C721.21,-104.48 691.24,-91.86 668.25,-82.18"/>
<polygon fill="#63b8ff" stroke="#63b8ff" points="669.88,-79.07 659.31,-78.42 667.17,-85.52 669.88,-79.07"/>
</a>
</g>
</g>
<!-- Node9 -->
<g id="Node000009" class="node">
<title>Node9</title>
<g id="a_Node000009"><a xlink:title=" ">
<polygon fill="#e0e0e0" stroke="#999999" points="677.38,-20.75 592.38,-20.75 592.38,0 677.38,0 677.38,-20.75"/>
<text xml:space="preserve" text-anchor="middle" x="634.88" y="-7.25" font-family="Helvetica,sans-Serif" font-size="10.00">fsl_common.h</text>
</a>
</g>
</g>
<!-- Node6&#45;&gt;Node9 -->
<g id="edge9_Node000006_Node000009" class="edge">
<title>Node6&#45;&gt;Node9</title>
<g id="a_edge9_Node000006_Node000009"><a xlink:title=" ">
<path fill="none" stroke="#63b8ff" d="M753.85,-113.18C739.11,-100.24 712.14,-76.64 688.88,-56.75 677.76,-47.25 665.26,-36.73 655.09,-28.22"/>
<polygon fill="#63b8ff" stroke="#63b8ff" points="657.59,-25.75 647.67,-22.02 653.1,-31.12 657.59,-25.75"/>
</a>
</g>
</g>
<!-- Node10 -->
<g id="Node000010" class="node">
<title>Node10</title>
<g id="a_Node000010"><a xlink:title=" ">
<polygon fill="#e0e0e0" stroke="#999999" points="788.88,-77.5 736.88,-77.5 736.88,-56.75 788.88,-56.75 788.88,-77.5"/>
<text xml:space="preserve" text-anchor="middle" x="762.88" y="-64" font-family="Helvetica,sans-Serif" font-size="10.00">stdlib.h</text>
</a>
</g>
</g>
<!-- Node6&#45;&gt;Node10 -->
<g id="edge10_Node000006_Node000010" class="edge">
<title>Node6&#45;&gt;Node10</title>
<g id="a_edge10_Node000006_Node000010"><a xlink:title=" ">
<path fill="none" stroke="#63b8ff" d="M764.52,-113.09C764.28,-106.47 763.95,-97.47 763.65,-89.27"/>
<polygon fill="#63b8ff" stroke="#63b8ff" points="767.15,-89.21 763.28,-79.34 760.15,-89.46 767.15,-89.21"/>
</a>
</g>
</g>
<!-- Node11&#45;&gt;Node9 -->
<g id="edge16_Node000011_Node000009" class="edge">
<title>Node11&#45;&gt;Node9</title>
<g id="a_edge16_Node000011_Node000009"><a xlink:title=" ">
<path fill="none" stroke="#63b8ff" d="M454.43,-113.08C479.14,-105.06 513.57,-92.59 541.88,-77.5 568.52,-63.29 596.41,-42.56 614.61,-28.11"/>
<polygon fill="#63b8ff" stroke="#63b8ff" points="616.42,-31.15 622.01,-22.15 612.03,-25.7 616.42,-31.15"/>
</a>
</g>
</g>
<!-- Node12 -->
<g id="Node000012" class="node">
<title>Node12</title>
<g id="a_Node000012"><a xlink:href="pca9555a_8h.html" target="_top" xlink:title=" ">
<polygon fill="white" stroke="#666666" points="233.88,-77.5 79.88,-77.5 79.88,-56.75 233.88,-56.75 233.88,-77.5"/>
<text xml:space="preserve" text-anchor="middle" x="156.88" y="-64" font-family="Helvetica,sans-Serif" font-size="10.00">driver/pca9555a/pca9555a.h</text>
</a>
</g>
</g>
<!-- Node11&#45;&gt;Node12 -->
<g id="edge12_Node000011_Node000012" class="edge">
<title>Node11&#45;&gt;Node12</title>
<g id="a_edge12_Node000011_Node000012"><a xlink:title=" ">
<path fill="none" stroke="#63b8ff" d="M379.3,-114.08C334.91,-104.91 265.04,-90.47 215.46,-80.23"/>
<polygon fill="#63b8ff" stroke="#63b8ff" points="216.25,-76.82 205.75,-78.22 214.84,-83.67 216.25,-76.82"/>
</a>
</g>
</g>
<!-- Node14 -->
<g id="Node000014" class="node">
<title>Node14</title>
<g id="a_Node000014"><a xlink:title=" ">
<polygon fill="#e0e0e0" stroke="#999999" points="374.12,-77.5 251.62,-77.5 251.62,-56.75 374.12,-56.75 374.12,-77.5"/>
<text xml:space="preserve" text-anchor="middle" x="312.88" y="-64" font-family="Helvetica,sans-Serif" font-size="10.00">fsl_device_registers.h</text>
</a>
</g>
</g>
<!-- Node11&#45;&gt;Node14 -->
<g id="edge15_Node000011_Node000014" class="edge">
<title>Node11&#45;&gt;Node14</title>
<g id="a_edge15_Node000011_Node000014"><a xlink:title=" ">
<path fill="none" stroke="#63b8ff" d="M402.39,-113.09C385.73,-104.72 361.49,-92.54 342.44,-82.97"/>
<polygon fill="#63b8ff" stroke="#63b8ff" points="344.05,-79.87 333.55,-78.51 340.91,-86.12 344.05,-79.87"/>
</a>
</g>
</g>
<!-- Node15 -->
<g id="Node000015" class="node">
<title>Node15</title>
<g id="a_Node000015"><a xlink:title=" ">
<polygon fill="#e0e0e0" stroke="#999999" points="451.25,-77.5 392.5,-77.5 392.5,-56.75 451.25,-56.75 451.25,-77.5"/>
<text xml:space="preserve" text-anchor="middle" x="421.88" y="-64" font-family="Helvetica,sans-Serif" font-size="10.00">fsl_ftm.h</text>
</a>
</g>
</g>
<!-- Node11&#45;&gt;Node15 -->
<g id="edge17_Node000011_Node000015" class="edge">
<title>Node11&#45;&gt;Node15</title>
<g id="a_edge17_Node000011_Node000015"><a xlink:title=" ">
<path fill="none" stroke="#63b8ff" d="M421.88,-113.09C421.88,-106.47 421.88,-97.47 421.88,-89.27"/>
<polygon fill="#63b8ff" stroke="#63b8ff" points="425.38,-89.34 421.88,-79.34 418.38,-89.34 425.38,-89.34"/>
</a>
</g>
</g>
<!-- Node16 -->
<g id="Node000016" class="node">
<title>Node16</title>
<g id="a_Node000016"><a xlink:title=" ">
<polygon fill="#e0e0e0" stroke="#999999" points="532.5,-77.5 469.25,-77.5 469.25,-56.75 532.5,-56.75 532.5,-77.5"/>
<text xml:space="preserve" text-anchor="middle" x="500.88" y="-64" font-family="Helvetica,sans-Serif" font-size="10.00">fsl_gpio.h</text>
</a>
</g>
</g>
<!-- Node11&#45;&gt;Node16 -->
<g id="edge18_Node000011_Node000016" class="edge">
<title>Node11&#45;&gt;Node16</title>
<g id="a_edge18_Node000011_Node000016"><a xlink:title=" ">
<path fill="none" stroke="#63b8ff" d="M436,-113.09C447.57,-105.07 464.18,-93.56 477.69,-84.19"/>
<polygon fill="#63b8ff" stroke="#63b8ff" points="479.4,-87.26 485.63,-78.69 475.42,-81.51 479.4,-87.26"/>
</a>
</g>
</g>
<!-- Node17 -->
<g id="Node000017" class="node">
<title>Node17</title>
<g id="a_Node000017"><a xlink:title=" ">
<polygon fill="#e0e0e0" stroke="#999999" points="61.75,-77.5 0,-77.5 0,-56.75 61.75,-56.75 61.75,-77.5"/>
<text xml:space="preserve" text-anchor="middle" x="30.88" y="-64" font-family="Helvetica,sans-Serif" font-size="10.00">fsl_port.h</text>
</a>
</g>
</g>
<!-- Node11&#45;&gt;Node17 -->
<g id="edge19_Node000011_Node000017" class="edge">
<title>Node11&#45;&gt;Node17</title>
<g id="a_edge19_Node000011_Node000017"><a xlink:title=" ">
<path fill="none" stroke="#63b8ff" d="M379.52,-118.8C315.4,-112.34 189.69,-98.47 73.07,-77.73"/>
<polygon fill="#63b8ff" stroke="#63b8ff" points="73.77,-74.3 63.31,-75.97 72.53,-81.19 73.77,-74.3"/>
</a>
</g>
</g>
<!-- Node12&#45;&gt;Node9 -->
<g id="edge13_Node000012_Node000009" class="edge">
<title>Node12&#45;&gt;Node9</title>
<g id="a_edge13_Node000012_Node000009"><a xlink:title=" ">
<path fill="none" stroke="#63b8ff" d="M234.21,-57.27C331.36,-46.14 495.62,-27.32 580.49,-17.6"/>
<polygon fill="#63b8ff" stroke="#63b8ff" points="580.89,-21.08 590.42,-16.47 580.09,-14.13 580.89,-21.08"/>
</a>
</g>
</g>
<!-- Node13 -->
<g id="Node000013" class="node">
<title>Node13</title>
<g id="a_Node000013"><a xlink:title=" ">
<polygon fill="#e0e0e0" stroke="#999999" points="196.75,-20.75 117,-20.75 117,0 196.75,0 196.75,-20.75"/>
<text xml:space="preserve" text-anchor="middle" x="156.88" y="-7.25" font-family="Helvetica,sans-Serif" font-size="10.00">peripherals.h</text>
</a>
</g>
</g>
<!-- Node12&#45;&gt;Node13 -->
<g id="edge14_Node000012_Node000013" class="edge">
<title>Node12&#45;&gt;Node13</title>
<g id="a_edge14_Node000012_Node000013"><a xlink:title=" ">
<path fill="none" stroke="#63b8ff" d="M156.88,-56.34C156.88,-49.72 156.88,-40.72 156.88,-32.52"/>
<polygon fill="#63b8ff" stroke="#63b8ff" points="160.38,-32.59 156.88,-22.59 153.38,-32.59 160.38,-32.59"/>
</a>
</g>
</g>
<!-- Node19&#45;&gt;Node4 -->
<g id="edge22_Node000019_Node000004" class="edge">
<title>Node19&#45;&gt;Node4</title>
<g id="a_edge22_Node000019_Node000004"><a xlink:title=" ">
<path fill="none" stroke="#63b8ff" d="M912.88,-113.09C912.88,-106.47 912.88,-97.47 912.88,-89.27"/>
<polygon fill="#63b8ff" stroke="#63b8ff" points="916.38,-89.34 912.88,-79.34 909.38,-89.34 916.38,-89.34"/>
</a>
</g>
</g>
<!-- Node19&#45;&gt;Node9 -->
<g id="edge23_Node000019_Node000009" class="edge">
<title>Node19&#45;&gt;Node9</title>
<g id="a_edge23_Node000019_Node000009"><a xlink:title=" ">
<path fill="none" stroke="#63b8ff" d="M927.69,-113.17C946.32,-99.81 974,-75.3 957.88,-56.75 923.71,-17.45 771.95,-11.2 689.17,-10.79"/>
<polygon fill="#63b8ff" stroke="#63b8ff" points="689.25,-7.29 679.24,-10.78 689.23,-14.29 689.25,-7.29"/>
</a>
</g>
</g>
</g>
</svg>
