<?xml version="1.0" encoding="UTF-8" standalone="no"?>
<!DOCTYPE svg PUBLIC "-//W3C//DTD SVG 1.1//EN"
 "http://www.w3.org/Graphics/SVG/1.1/DTD/svg11.dtd">
<!-- Generated by graphviz version 14.1.5 (0)
 -->
<!-- Title: source/motion/stepper/step_internal.h Pages: 1 -->
<svg width="957pt" height="212pt"
 viewBox="0.00 0.00 957.00 212.00" xmlns="http://www.w3.org/2000/svg" xmlns:xlink="http://www.w3.org/1999/xlink">
<g id="graph0" class="graph" transform="scale(1 1) rotate(0) translate(4 207.75)">
<title>source/motion/stepper/step_internal.h</title>
<!-- Node1 -->
<g id="Node000001" class="node">
<title>Node1</title>
<g id="a_Node000001"><a xlink:title=" ">
<polygon fill="#999999" stroke="#666666" points="304.5,-203.75 179,-203.75 179,-170.25 304.5,-170.25 304.5,-203.75"/>
<text xml:space="preserve" text-anchor="start" x="187" y="-190.25" font-family="Helvetica,sans-Serif" font-size="10.00">source/motion/stepper</text>
<text xml:space="preserve" text-anchor="middle" x="241.75" y="-177.5" font-family="Helvetica,sans-Serif" font-size="10.00">/step_internal.h</text>
</a>
</g>
</g>
<!-- Node2 -->
<g id="Node000002" class="node">
<title>Node2</title>
<g id="a_Node000002"><a xlink:title=" ">
<polygon fill="#e0e0e0" stroke="#999999" points="360.12,-77.5 307.38,-77.5 307.38,-56.75 360.12,-56.75 360.12,-77.5"/>
<text xml:space="preserve" text-anchor="middle" x="333.75" y="-64" font-family="Helvetica,sans-Serif" font-size="10.00">stdint.h</text>
</a>
</g>
</g>
<!-- Node1&#45;&gt;Node2 -->
<g id="edge1_Node000001_Node000002" class="edge">
<title>Node1&#45;&gt;Node2</title>
<g id="a_edge1_Node000001_Node000002"><a xlink:title=" ">
<path fill="none" stroke="#63b8ff" d="M280.45,-169.88C295.96,-161.49 312.54,-149.71 322.75,-134.25 331.49,-121.01 334.04,-103.13 334.52,-89.3"/>
<polygon fill="#63b8ff" stroke="#63b8ff" points="338.02,-89.49 334.49,-79.5 331.02,-89.51 338.02,-89.49"/>
</a>
</g>
</g>
<!-- Node3 -->
<g id="Node000003" class="node">
<title>Node3</title>
<g id="a_Node000003"><a xlink:title=" ">
<polygon fill="#e0e0e0" stroke="#999999" points="137.25,-134.25 76.25,-134.25 76.25,-113.5 137.25,-113.5 137.25,-134.25"/>
<text xml:space="preserve" text-anchor="middle" x="106.75" y="-120.75" font-family="Helvetica,sans-Serif" font-size="10.00">stdbool.h</text>
</a>
</g>
</g>
<!-- Node1&#45;&gt;Node3 -->
<g id="edge2_Node000001_Node000003" class="edge">
<title>Node1&#45;&gt;Node3</title>
<g id="a_edge2_Node000001_Node000003"><a xlink:title=" ">
<path fill="none" stroke="#63b8ff" d="M205.93,-169.78C185,-160.31 158.83,-148.45 138.62,-139.31"/>
<polygon fill="#63b8ff" stroke="#63b8ff" points="140.3,-136.23 129.75,-135.29 137.42,-142.6 140.3,-136.23"/>
</a>
</g>
</g>
<!-- Node4 -->
<g id="Node000004" class="node">
<title>Node4</title>
<g id="a_Node000004"><a xlink:title=" ">
<polygon fill="#e0e0e0" stroke="#999999" points="71.5,-77.5 0,-77.5 0,-56.75 71.5,-56.75 71.5,-77.5"/>
<text xml:space="preserve" text-anchor="middle" x="35.75" y="-64" font-family="Helvetica,sans-Serif" font-size="10.00">FreeRTOS.h</text>
</a>
</g>
</g>
<!-- Node1&#45;&gt;Node4 -->
<g id="edge3_Node000001_Node000004" class="edge">
<title>Node1&#45;&gt;Node4</title>
<g id="a_edge3_Node000001_Node000004"><a xlink:title=" ">
<path fill="none" stroke="#63b8ff" d="M178.58,-180.17C142.28,-173.92 97.87,-160.99 66.75,-134.25 53.08,-122.5 45.03,-103.4 40.58,-88.75"/>
<polygon fill="#63b8ff" stroke="#63b8ff" points="43.99,-87.96 38.03,-79.2 37.23,-89.76 43.99,-87.96"/>
</a>
</g>
</g>
<!-- Node5 -->
<g id="Node000005" class="node">
<title>Node5</title>
<g id="a_Node000005"><a xlink:title=" ">
<polygon fill="#e0e0e0" stroke="#999999" points="313.25,-134.25 258.25,-134.25 258.25,-113.5 313.25,-113.5 313.25,-134.25"/>
<text xml:space="preserve" text-anchor="middle" x="285.75" y="-120.75" font-family="Helvetica,sans-Serif" font-size="10.00">queue.h</text>
</a>
</g>
</g>
<!-- Node1&#45;&gt;Node5 -->
<g id="edge4_Node000001_Node000005" class="edge">
<title>Node1&#45;&gt;Node5</title>
<g id="a_edge4_Node000001_Node000005"><a xlink:title=" ">
<path fill="none" stroke="#63b8ff" d="M253.31,-169.94C259.03,-161.99 265.98,-152.34 271.97,-144.02"/>
<polygon fill="#63b8ff" stroke="#63b8ff" points="274.78,-146.11 277.78,-135.95 269.1,-142.02 274.78,-146.11"/>
</a>
</g>
</g>
<!-- Node6 -->
<g id="Node000006" class="node">
<title>Node6</title>
<g id="a_Node000006"><a xlink:href="cmd__handle_8h.html" target="_top" xlink:title=" ">
<polygon fill="white" stroke="#666666" points="239.88,-134.25 155.62,-134.25 155.62,-113.5 239.88,-113.5 239.88,-134.25"/>
<text xml:space="preserve" text-anchor="middle" x="197.75" y="-120.75" font-family="Helvetica,sans-Serif" font-size="10.00">cmd_handle.h</text>
</a>
</g>
</g>
<!-- Node1&#45;&gt;Node6 -->
<g id="edge5_Node000001_Node000006" class="edge">
<title>Node1&#45;&gt;Node6</title>
<g id="a_edge5_Node000001_Node000006"><a xlink:title=" ">
<path fill="none" stroke="#63b8ff" d="M230.19,-169.94C224.47,-161.99 217.52,-152.34 211.53,-144.02"/>
<polygon fill="#63b8ff" stroke="#63b8ff" points="214.4,-142.02 205.72,-135.95 208.72,-146.11 214.4,-142.02"/>
</a>
</g>
</g>
<!-- Node10 -->
<g id="Node000010" class="node">
<title>Node10</title>
<g id="a_Node000010"><a xlink:href="step__shared_8h.html" target="_top" xlink:title=" ">
<polygon fill="white" stroke="#666666" points="529.88,-134.25 445.62,-134.25 445.62,-113.5 529.88,-113.5 529.88,-134.25"/>
<text xml:space="preserve" text-anchor="middle" x="487.75" y="-120.75" font-family="Helvetica,sans-Serif" font-size="10.00">step_shared.h</text>
</a>
</g>
</g>
<!-- Node1&#45;&gt;Node10 -->
<g id="edge11_Node000001_Node000010" class="edge">
<title>Node1&#45;&gt;Node10</title>
<g id="a_edge11_Node000001_Node000010"><a xlink:title=" ">
<path fill="none" stroke="#63b8ff" d="M304.78,-170.34C345.98,-160.1 399.07,-146.91 437.44,-137.38"/>
<polygon fill="#63b8ff" stroke="#63b8ff" points="438.02,-140.84 446.88,-135.03 436.33,-134.05 438.02,-140.84"/>
</a>
</g>
</g>
<!-- Node6&#45;&gt;Node2 -->
<g id="edge6_Node000006_Node000002" class="edge">
<title>Node6&#45;&gt;Node2</title>
<g id="a_edge6_Node000006_Node000002"><a xlink:title=" ">
<path fill="none" stroke="#63b8ff" d="M222.06,-113.09C243.53,-104.44 275.07,-91.75 299.16,-82.05"/>
<polygon fill="#63b8ff" stroke="#63b8ff" points="300.27,-85.38 308.24,-78.39 297.66,-78.88 300.27,-85.38"/>
</a>
</g>
</g>
<!-- Node6&#45;&gt;Node4 -->
<g id="edge7_Node000006_Node000004" class="edge">
<title>Node6&#45;&gt;Node4</title>
<g id="a_edge7_Node000006_Node000004"><a xlink:title=" ">
<path fill="none" stroke="#63b8ff" d="M168.79,-113.09C142.72,-104.28 104.19,-91.25 75.29,-81.49"/>
<polygon fill="#63b8ff" stroke="#63b8ff" points="76.76,-78.29 66.17,-78.41 74.52,-84.92 76.76,-78.29"/>
</a>
</g>
</g>
<!-- Node7 -->
<g id="Node000007" class="node">
<title>Node7</title>
<g id="a_Node000007"><a xlink:title=" ">
<polygon fill="#e0e0e0" stroke="#999999" points="251.25,-77.5 160.25,-77.5 160.25,-56.75 251.25,-56.75 251.25,-77.5"/>
<text xml:space="preserve" text-anchor="middle" x="205.75" y="-64" font-family="Helvetica,sans-Serif" font-size="10.00">event_groups.h</text>
</a>
</g>
</g>
<!-- Node6&#45;&gt;Node7 -->
<g id="edge8_Node000006_Node000007" class="edge">
<title>Node6&#45;&gt;Node7</title>
<g id="a_edge8_Node000006_Node000007"><a xlink:title=" ">
<path fill="none" stroke="#63b8ff" d="M199.18,-113.09C200.16,-106.39 201.49,-97.26 202.7,-88.98"/>
<polygon fill="#63b8ff" stroke="#63b8ff" points="206.13,-89.73 204.11,-79.33 199.2,-88.71 206.13,-89.73"/>
</a>
</g>
</g>
<!-- Node8 -->
<g id="Node000008" class="node">
<title>Node8</title>
<g id="a_Node000008"><a xlink:title=" ">
<polygon fill="#e0e0e0" stroke="#999999" points="430.25,-20.75 345.25,-20.75 345.25,0 430.25,0 430.25,-20.75"/>
<text xml:space="preserve" text-anchor="middle" x="387.75" y="-7.25" font-family="Helvetica,sans-Serif" font-size="10.00">fsl_common.h</text>
</a>
</g>
</g>
<!-- Node6&#45;&gt;Node8 -->
<g id="edge9_Node000006_Node000008" class="edge">
<title>Node6&#45;&gt;Node8</title>
<g id="a_edge9_Node000006_Node000008"><a xlink:title=" ">
<path fill="none" stroke="#63b8ff" d="M211.5,-113.19C230.66,-99.85 266.66,-75.36 298.75,-56.75 317.63,-45.8 339.47,-34.64 356.78,-26.14"/>
<polygon fill="#63b8ff" stroke="#63b8ff" points="358.09,-29.39 365.55,-21.87 355.03,-23.1 358.09,-29.39"/>
</a>
</g>
</g>
<!-- Node9 -->
<g id="Node000009" class="node">
<title>Node9</title>
<g id="a_Node000009"><a xlink:title=" ">
<polygon fill="#e0e0e0" stroke="#999999" points="141.75,-77.5 89.75,-77.5 89.75,-56.75 141.75,-56.75 141.75,-77.5"/>
<text xml:space="preserve" text-anchor="middle" x="115.75" y="-64" font-family="Helvetica,sans-Serif" font-size="10.00">stdlib.h</text>
</a>
</g>
</g>
<!-- Node6&#45;&gt;Node9 -->
<g id="edge10_Node000006_Node000009" class="edge">
<title>Node6&#45;&gt;Node9</title>
<g id="a_edge10_Node000006_Node000009"><a xlink:title=" ">
<path fill="none" stroke="#63b8ff" d="M183.09,-113.09C171.08,-105.07 153.84,-93.56 139.81,-84.19"/>
<polygon fill="#63b8ff" stroke="#63b8ff" points="141.8,-81.31 131.54,-78.67 137.91,-87.13 141.8,-81.31"/>
</a>
</g>
</g>
<!-- Node10&#45;&gt;Node2 -->
<g id="edge12_Node000010_Node000002" class="edge">
<title>Node10&#45;&gt;Node2</title>
<g id="a_edge12_Node000010_Node000002"><a xlink:title=" ">
<path fill="none" stroke="#63b8ff" d="M460.22,-113.09C435.43,-104.27 398.78,-91.24 371.31,-81.48"/>
<polygon fill="#63b8ff" stroke="#63b8ff" points="372.55,-78.2 361.95,-78.15 370.2,-84.8 372.55,-78.2"/>
</a>
</g>
</g>
<!-- Node10&#45;&gt;Node8 -->
<g id="edge17_Node000010_Node000008" class="edge">
<title>Node10&#45;&gt;Node8</title>
<g id="a_edge17_Node000010_Node000008"><a xlink:title=" ">
<path fill="none" stroke="#63b8ff" d="M458.84,-113.15C441.41,-105.89 420.06,-94.3 406.75,-77.5 396.42,-64.47 391.71,-46.05 389.56,-31.96"/>
<polygon fill="#63b8ff" stroke="#63b8ff" points="393.08,-31.96 388.43,-22.45 386.13,-32.79 393.08,-31.96"/>
</a>
</g>
</g>
<!-- Node11 -->
<g id="Node000011" class="node">
<title>Node11</title>
<g id="a_Node000011"><a xlink:href="pca9555a_8h.html" target="_top" xlink:title=" ">
<polygon fill="white" stroke="#666666" points="731.75,-77.5 577.75,-77.5 577.75,-56.75 731.75,-56.75 731.75,-77.5"/>
<text xml:space="preserve" text-anchor="middle" x="654.75" y="-64" font-family="Helvetica,sans-Serif" font-size="10.00">driver/pca9555a/pca9555a.h</text>
</a>
</g>
</g>
<!-- Node10&#45;&gt;Node11 -->
<g id="edge13_Node000010_Node000011" class="edge">
<title>Node10&#45;&gt;Node11</title>
<g id="a_edge13_Node000010_Node000011"><a xlink:title=" ">
<path fill="none" stroke="#63b8ff" d="M517.61,-113.09C544.48,-104.28 584.2,-91.25 613.99,-81.49"/>
<polygon fill="#63b8ff" stroke="#63b8ff" points="615.02,-84.83 623.43,-78.39 612.84,-78.18 615.02,-84.83"/>
</a>
</g>
</g>
<!-- Node13 -->
<g id="Node000013" class="node">
<title>Node13</title>
<g id="a_Node000013"><a xlink:title=" ">
<polygon fill="#e0e0e0" stroke="#999999" points="872,-77.5 749.5,-77.5 749.5,-56.75 872,-56.75 872,-77.5"/>
<text xml:space="preserve" text-anchor="middle" x="810.75" y="-64" font-family="Helvetica,sans-Serif" font-size="10.00">fsl_device_registers.h</text>
</a>
</g>
</g>
<!-- Node10&#45;&gt;Node13 -->
<g id="edge16_Node000010_Node000013" class="edge">
<title>Node10&#45;&gt;Node13</title>
<g id="a_edge16_Node000010_Node000013"><a xlink:title=" ">
<path fill="none" stroke="#63b8ff" d="M530.31,-115.66C584.04,-106.55 677.19,-90.76 741.3,-79.9"/>
<polygon fill="#63b8ff" stroke="#63b8ff" points="741.75,-83.37 751.02,-78.25 740.58,-76.47 741.75,-83.37"/>
</a>
</g>
</g>
<!-- Node14 -->
<g id="Node000014" class="node">
<title>Node14</title>
<g id="a_Node000014"><a xlink:title=" ">
<polygon fill="#e0e0e0" stroke="#999999" points="949.12,-77.5 890.38,-77.5 890.38,-56.75 949.12,-56.75 949.12,-77.5"/>
<text xml:space="preserve" text-anchor="middle" x="919.75" y="-64" font-family="Helvetica,sans-Serif" font-size="10.00">fsl_ftm.h</text>
</a>
</g>
</g>
<!-- Node10&#45;&gt;Node14 -->
<g id="edge18_Node000010_Node000014" class="edge">
<title>Node10&#45;&gt;Node14</title>
<g id="a_edge18_Node000010_Node000014"><a xlink:title=" ">
<path fill="none" stroke="#63b8ff" d="M530.16,-119.67C600.5,-113.99 745.88,-100.7 878.84,-77.63"/>
<polygon fill="#63b8ff" stroke="#63b8ff" points="879.29,-81.11 888.53,-75.93 878.07,-74.21 879.29,-81.11"/>
</a>
</g>
</g>
<!-- Node15 -->
<g id="Node000015" class="node">
<title>Node15</title>
<g id="a_Node000015"><a xlink:title=" ">
<polygon fill="#e0e0e0" stroke="#999999" points="479.38,-77.5 416.12,-77.5 416.12,-56.75 479.38,-56.75 479.38,-77.5"/>
<text xml:space="preserve" text-anchor="middle" x="447.75" y="-64" font-family="Helvetica,sans-Serif" font-size="10.00">fsl_gpio.h</text>
</a>
</g>
</g>
<!-- Node10&#45;&gt;Node15 -->
<g id="edge19_Node000010_Node000015" class="edge">
<title>Node10&#45;&gt;Node15</title>
<g id="a_edge19_Node000010_Node000015"><a xlink:title=" ">
<path fill="none" stroke="#63b8ff" d="M480.6,-113.09C475.31,-105.85 467.94,-95.76 461.52,-86.97"/>
<polygon fill="#63b8ff" stroke="#63b8ff" points="464.46,-85.06 455.73,-79.05 458.81,-89.19 464.46,-85.06"/>
</a>
</g>
</g>
<!-- Node16 -->
<g id="Node000016" class="node">
<title>Node16</title>
<g id="a_Node000016"><a xlink:title=" ">
<polygon fill="#e0e0e0" stroke="#999999" points="559.62,-77.5 497.88,-77.5 497.88,-56.75 559.62,-56.75 559.62,-77.5"/>
<text xml:space="preserve" text-anchor="middle" x="528.75" y="-64" font-family="Helvetica,sans-Serif" font-size="10.00">fsl_port.h</text>
</a>
</g>
</g>
<!-- Node10&#45;&gt;Node16 -->
<g id="edge20_Node000010_Node000016" class="edge">
<title>Node10&#45;&gt;Node16</title>
<g id="a_edge20_Node000010_Node000016"><a xlink:title=" ">
<path fill="none" stroke="#63b8ff" d="M495.08,-113.09C500.5,-105.85 508.06,-95.76 514.64,-86.97"/>
<polygon fill="#63b8ff" stroke="#63b8ff" points="517.38,-89.14 520.58,-79.04 511.78,-84.95 517.38,-89.14"/>
</a>
</g>
</g>
<!-- Node11&#45;&gt;Node8 -->
<g id="edge14_Node000011_Node000008" class="edge">
<title>Node11&#45;&gt;Node8</title>
<g id="a_edge14_Node000011_Node000008"><a xlink:title=" ">
<path fill="none" stroke="#63b8ff" d="M606.71,-56.27C560.28,-46.75 490.07,-32.36 441.74,-22.45"/>
<polygon fill="#63b8ff" stroke="#63b8ff" points="442.54,-19.04 432.04,-20.46 441.13,-25.89 442.54,-19.04"/>
</a>
</g>
</g>
<!-- Node12 -->
<g id="Node000012" class="node">
<title>Node12</title>
<g id="a_Node000012"><a xlink:title=" ">
<polygon fill="#e0e0e0" stroke="#999999" points="694.62,-20.75 614.88,-20.75 614.88,0 694.62,0 694.62,-20.75"/>
<text xml:space="preserve" text-anchor="middle" x="654.75" y="-7.25" font-family="Helvetica,sans-Serif" font-size="10.00">peripherals.h</text>
</a>
</g>
</g>
<!-- Node11&#45;&gt;Node12 -->
<g id="edge15_Node000011_Node000012" class="edge">
<title>Node11&#45;&gt;Node12</title>
<g id="a_edge15_Node000011_Node000012"><a xlink:title=" ">
<path fill="none" stroke="#63b8ff" d="M654.75,-56.34C654.75,-49.72 654.75,-40.72 654.75,-32.52"/>
<polygon fill="#63b8ff" stroke="#63b8ff" points="658.25,-32.59 654.75,-22.59 651.25,-32.59 658.25,-32.59"/>
</a>
</g>
</g>
</g>
</svg>
