<?xml version="1.0" encoding="UTF-8" standalone="no"?>
<!DOCTYPE svg PUBLIC "-//W3C//DTD SVG 1.1//EN"
 "http://www.w3.org/Graphics/SVG/1.1/DTD/svg11.dtd">
<!-- Generated by graphviz version 14.1.4 (0)
 -->
<!-- Title: source/motion/stepper/step_shared.h Pages: 1 -->
<svg width="608pt" height="155pt"
 viewBox="0.00 0.00 608.00 155.00" xmlns="http://www.w3.org/2000/svg" xmlns:xlink="http://www.w3.org/1999/xlink">
<g id="graph0" class="graph" transform="scale(1 1) rotate(0) translate(4 151)">
<title>source/motion/stepper/step_shared.h</title>
<!-- Node1 -->
<g id="Node000001" class="node">
<title>Node1</title>
<g id="a_Node000001"><a xlink:title=" ">
<polygon fill="#999999" stroke="#666666" points="417.25,-147 291.75,-147 291.75,-113.5 417.25,-113.5 417.25,-147"/>
<text xml:space="preserve" text-anchor="start" x="299.75" y="-133.5" font-family="Helvetica,sans-Serif" font-size="10.00">source/motion/stepper</text>
<text xml:space="preserve" text-anchor="middle" x="354.5" y="-120.75" font-family="Helvetica,sans-Serif" font-size="10.00">/step_shared.h</text>
</a>
</g>
</g>
<!-- Node2 -->
<g id="Node000002" class="node">
<title>Node2</title>
<g id="a_Node000002"><a xlink:href="pca9555a_8h.html" target="_top" xlink:title=" ">
<polygon fill="white" stroke="#666666" points="221.5,-77.5 67.5,-77.5 67.5,-56.75 221.5,-56.75 221.5,-77.5"/>
<text xml:space="preserve" text-anchor="middle" x="144.5" y="-64" font-family="Helvetica,sans-Serif" font-size="10.00">driver/pca9555a/pca9555a.h</text>
</a>
</g>
</g>
<!-- Node1&#45;&gt;Node2 -->
<g id="edge1_Node000001_Node000002" class="edge">
<title>Node1&#45;&gt;Node2</title>
<g id="a_edge1_Node000001_Node000002"><a xlink:title=" ">
<path fill="none" stroke="#63b8ff" d="M298.78,-113.03C264.43,-103.03 220.98,-90.39 188.95,-81.06"/>
<polygon fill="#63b8ff" stroke="#63b8ff" points="190.17,-77.77 179.59,-78.34 188.21,-84.49 190.17,-77.77"/>
</a>
</g>
</g>
<!-- Node3 -->
<g id="Node000003" class="node">
<title>Node3</title>
<g id="a_Node000003"><a xlink:title=" ">
<polygon fill="#e0e0e0" stroke="#999999" points="85,-20.75 0,-20.75 0,0 85,0 85,-20.75"/>
<text xml:space="preserve" text-anchor="middle" x="42.5" y="-7.25" font-family="Helvetica,sans-Serif" font-size="10.00">fsl_common.h</text>
</a>
</g>
</g>
<!-- Node1&#45;&gt;Node3 -->
<g id="edge5_Node000001_Node000003" class="edge">
<title>Node1&#45;&gt;Node3</title>
<g id="a_edge5_Node000001_Node000003"><a xlink:title=" ">
<path fill="none" stroke="#63b8ff" d="M291.38,-126.17C214.67,-121.11 91.37,-108.32 58.5,-77.5 46.25,-66.01 42.67,-46.89 41.91,-32.15"/>
<polygon fill="#63b8ff" stroke="#63b8ff" points="45.42,-32.55 41.82,-22.58 38.42,-32.62 45.42,-32.55"/>
</a>
</g>
</g>
<!-- Node5 -->
<g id="Node000005" class="node">
<title>Node5</title>
<g id="a_Node000005"><a xlink:title=" ">
<polygon fill="#e0e0e0" stroke="#999999" points="361.75,-77.5 239.25,-77.5 239.25,-56.75 361.75,-56.75 361.75,-77.5"/>
<text xml:space="preserve" text-anchor="middle" x="300.5" y="-64" font-family="Helvetica,sans-Serif" font-size="10.00">fsl_device_registers.h</text>
</a>
</g>
</g>
<!-- Node1&#45;&gt;Node5 -->
<g id="edge4_Node000001_Node000005" class="edge">
<title>Node1&#45;&gt;Node5</title>
<g id="a_edge4_Node000001_Node000005"><a xlink:title=" ">
<path fill="none" stroke="#63b8ff" d="M340.31,-113.19C333.06,-104.98 324.2,-94.96 316.69,-86.45"/>
<polygon fill="#63b8ff" stroke="#63b8ff" points="319.44,-84.28 310.2,-79.1 314.19,-88.91 319.44,-84.28"/>
</a>
</g>
</g>
<!-- Node6 -->
<g id="Node000006" class="node">
<title>Node6</title>
<g id="a_Node000006"><a xlink:title=" ">
<polygon fill="#e0e0e0" stroke="#999999" points="438.88,-77.5 380.12,-77.5 380.12,-56.75 438.88,-56.75 438.88,-77.5"/>
<text xml:space="preserve" text-anchor="middle" x="409.5" y="-64" font-family="Helvetica,sans-Serif" font-size="10.00">fsl_ftm.h</text>
</a>
</g>
</g>
<!-- Node1&#45;&gt;Node6 -->
<g id="edge6_Node000001_Node000006" class="edge">
<title>Node1&#45;&gt;Node6</title>
<g id="a_edge6_Node000001_Node000006"><a xlink:title=" ">
<path fill="none" stroke="#63b8ff" d="M368.95,-113.19C376.34,-104.98 385.36,-94.96 393.01,-86.45"/>
<polygon fill="#63b8ff" stroke="#63b8ff" points="395.54,-88.87 399.63,-79.09 390.34,-84.18 395.54,-88.87"/>
</a>
</g>
</g>
<!-- Node7 -->
<g id="Node000007" class="node">
<title>Node7</title>
<g id="a_Node000007"><a xlink:title=" ">
<polygon fill="#e0e0e0" stroke="#999999" points="520.12,-77.5 456.88,-77.5 456.88,-56.75 520.12,-56.75 520.12,-77.5"/>
<text xml:space="preserve" text-anchor="middle" x="488.5" y="-64" font-family="Helvetica,sans-Serif" font-size="10.00">fsl_gpio.h</text>
</a>
</g>
</g>
<!-- Node1&#45;&gt;Node7 -->
<g id="edge7_Node000001_Node000007" class="edge">
<title>Node1&#45;&gt;Node7</title>
<g id="a_edge7_Node000001_Node000007"><a xlink:title=" ">
<path fill="none" stroke="#63b8ff" d="M390.06,-113.03C410.73,-103.6 436.57,-91.81 456.59,-82.68"/>
<polygon fill="#63b8ff" stroke="#63b8ff" points="458.02,-85.88 465.66,-78.54 455.11,-79.51 458.02,-85.88"/>
</a>
</g>
</g>
<!-- Node8 -->
<g id="Node000008" class="node">
<title>Node8</title>
<g id="a_Node000008"><a xlink:title=" ">
<polygon fill="#e0e0e0" stroke="#999999" points="600.38,-77.5 538.62,-77.5 538.62,-56.75 600.38,-56.75 600.38,-77.5"/>
<text xml:space="preserve" text-anchor="middle" x="569.5" y="-64" font-family="Helvetica,sans-Serif" font-size="10.00">fsl_port.h</text>
</a>
</g>
</g>
<!-- Node1&#45;&gt;Node8 -->
<g id="edge8_Node000001_Node000008" class="edge">
<title>Node1&#45;&gt;Node8</title>
<g id="a_edge8_Node000001_Node000008"><a xlink:title=" ">
<path fill="none" stroke="#63b8ff" d="M411.55,-113.03C447.99,-102.67 494.43,-89.47 527.5,-80.07"/>
<polygon fill="#63b8ff" stroke="#63b8ff" points="528.05,-83.55 536.71,-77.45 526.14,-76.82 528.05,-83.55"/>
</a>
</g>
</g>
<!-- Node2&#45;&gt;Node3 -->
<g id="edge2_Node000002_Node000003" class="edge">
<title>Node2&#45;&gt;Node3</title>
<g id="a_edge2_Node000002_Node000003"><a xlink:title=" ">
<path fill="none" stroke="#63b8ff" d="M126.26,-56.34C110.82,-48.05 88.41,-36.02 70.66,-26.49"/>
<polygon fill="#63b8ff" stroke="#63b8ff" points="72.38,-23.44 61.91,-21.79 69.07,-29.61 72.38,-23.44"/>
</a>
</g>
</g>
<!-- Node4 -->
<g id="Node000004" class="node">
<title>Node4</title>
<g id="a_Node000004"><a xlink:title=" ">
<polygon fill="#e0e0e0" stroke="#999999" points="184.38,-20.75 104.62,-20.75 104.62,0 184.38,0 184.38,-20.75"/>
<text xml:space="preserve" text-anchor="middle" x="144.5" y="-7.25" font-family="Helvetica,sans-Serif" font-size="10.00">peripherals.h</text>
</a>
</g>
</g>
<!-- Node2&#45;&gt;Node4 -->
<g id="edge3_Node000002_Node000004" class="edge">
<title>Node2&#45;&gt;Node4</title>
<g id="a_edge3_Node000002_Node000004"><a xlink:title=" ">
<path fill="none" stroke="#63b8ff" d="M144.5,-56.34C144.5,-49.72 144.5,-40.72 144.5,-32.52"/>
<polygon fill="#63b8ff" stroke="#63b8ff" points="148,-32.59 144.5,-22.59 141,-32.59 148,-32.59"/>
</a>
</g>
</g>
</g>
</svg>
