<?xml version="1.0" encoding="UTF-8" standalone="no"?>
<!DOCTYPE svg PUBLIC "-//W3C//DTD SVG 1.1//EN"
 "http://www.w3.org/Graphics/SVG/1.1/DTD/svg11.dtd">
<!-- Generated by graphviz version 14.1.5 (0)
 -->
<!-- Title: source/motion/stepper/step_process.c Pages: 1 -->
<!--zoomable 325 -->

<svg id="main" version="1.1" xmlns="http://www.w3.org/2000/svg" xmlns:xlink="http://www.w3.org/1999/xlink" xml:space="preserve" onload="init(evt)">

<style type="text/css"><![CDATA[
.node, .edge {opacity: 0.7;}
.node.selected, .edge.selected {opacity: 1;}
.edge:hover path { stroke: red; }
.edge:hover polygon { stroke: red; fill: red; }
]]></style>

<defs>
  <circle id="rim" cx="0" cy="0" r="7"/>
  <circle id="rim2" cx="0" cy="0" r="3.5"/>
  <g id="zoomPlus">
    <use xlink:href="#rim" fill="#404040"><set attributeName="fill" to="#808080" begin="zoomplus.mouseover" end="zoomplus.mouseout"/></use>
    <path d="M-4,0h8M0,-4v8" fill="none" stroke="white" stroke-width="1.5" pointer-events="none"/>
  </g>
  <g id="zoomMin">
    <use xlink:href="#rim" fill="#404040"><set attributeName="fill" to="#808080" begin="zoomminus.mouseover" end="zoomminus.mouseout"/></use>
    <path d="M-4,0h8" fill="none" stroke="white" stroke-width="1.5" pointer-events="none"/>
  </g>
  <g id="arrowUp" transform="translate(30 24)">
    <use xlink:href="#rim"/>
    <path pointer-events="none" fill="none" stroke="white" stroke-width="1.5" d="M0,-3.0v7 M-2.5,-0.5L0,-3.0L2.5,-0.5"/>
  </g>
  <g id="arrowRight" transform="rotate(90) translate(36 -43)">
    <use xlink:href="#rim"/>
    <path pointer-events="none" fill="none" stroke="white" stroke-width="1.5" d="M0,-3.0v7 M-2.5,-0.5L0,-3.0L2.5,-0.5"/>
  </g>
  <g id="arrowDown" transform="rotate(180) translate(-30 -48)">
    <use xlink:href="#rim"/>
    <path pointer-events="none" fill="none" stroke="white" stroke-width="1.5" d="M0,-3.0v7 M-2.5,-0.5L0,-3.0L2.5,-0.5"/>
  </g>
  <g id="arrowLeft" transform="rotate(270) translate(-36 17)">
    <use xlink:href="#rim"/>
    <path pointer-events="none" fill="none" stroke="white" stroke-width="1.5" d="M0,-3.0v7 M-2.5,-0.5L0,-3.0L2.5,-0.5"/>
  </g>
  <g id="resetDef">
    <use xlink:href="#rim2" fill="#404040"><set attributeName="fill" to="#808080" begin="reset.mouseover" end="reset.mouseout"/></use>
  </g>
</defs>
<script type="application/ecmascript">
var viewWidth = 985;
var viewHeight = 325;
var sectionId = 'dynsection-0';
</script>
<script type="application/ecmascript" xlink:href="svg.min.js"/>
<svg id="graph" class="graph">
<g id="viewport">
<title>source/motion/stepper/step_process.c</title>
<!-- Node1 -->
<g id="Node000001" class="node">
<title>Node1</title>
<g id="a_Node000001"><a xlink:title=" ">
<polygon fill="#999999" stroke="#666666" points="365.75,-317.25 240.25,-317.25 240.25,-283.75 365.75,-283.75 365.75,-317.25"/>
<text xml:space="preserve" text-anchor="start" x="248.25" y="-303.75" font-family="Helvetica,sans-Serif" font-size="10.00">source/motion/stepper</text>
<text xml:space="preserve" text-anchor="middle" x="303" y="-291" font-family="Helvetica,sans-Serif" font-size="10.00">/step_process.c</text>
</a>
</g>
</g>
<!-- Node2 -->
<g id="Node000002" class="node">
<title>Node2</title>
<g id="a_Node000002"><a xlink:href="step__process_8h.html" target="_top" xlink:title=" ">
<polygon fill="white" stroke="#666666" points="241.38,-247.75 152.62,-247.75 152.62,-227 241.38,-227 241.38,-247.75"/>
<text xml:space="preserve" text-anchor="middle" x="197" y="-234.25" font-family="Helvetica,sans-Serif" font-size="10.00">step_process.h</text>
</a>
</g>
</g>
<!-- Node1&#45;&gt;Node2 -->
<g id="edge1_Node000001_Node000002" class="edge">
<title>Node1&#45;&gt;Node2</title>
<g id="a_edge1_Node000001_Node000002"><a xlink:title=" ">
<path fill="none" stroke="#63b8ff" d="M274.87,-283.28C258.97,-274.11 239.21,-262.72 223.58,-253.7"/>
<polygon fill="#63b8ff" stroke="#63b8ff" points="225.7,-250.88 215.29,-248.92 222.2,-256.95 225.7,-250.88"/>
</a>
</g>
</g>
<!-- Node3 -->
<g id="Node000003" class="node">
<title>Node3</title>
<g id="a_Node000003"><a xlink:href="step__internal_8h.html" target="_top" xlink:title=" ">
<polygon fill="white" stroke="#666666" points="347.38,-191 258.62,-191 258.62,-170.25 347.38,-170.25 347.38,-191"/>
<text xml:space="preserve" text-anchor="middle" x="303" y="-177.5" font-family="Helvetica,sans-Serif" font-size="10.00">step_internal.h</text>
</a>
</g>
</g>
<!-- Node1&#45;&gt;Node3 -->
<g id="edge23_Node000001_Node000003" class="edge">
<title>Node1&#45;&gt;Node3</title>
<g id="a_edge23_Node000001_Node000003"><a xlink:title=" ">
<path fill="none" stroke="#63b8ff" d="M296.26,-283.45C290.92,-268.81 284.85,-246.54 288,-227 289.35,-218.62 292.01,-209.7 294.73,-202"/>
<polygon fill="#63b8ff" stroke="#63b8ff" points="297.9,-203.49 298.18,-192.9 291.36,-201.01 297.9,-203.49"/>
</a>
</g>
</g>
<!-- Node12 -->
<g id="Node000012" class="node">
<title>Node12</title>
<g id="a_Node000012"><a xlink:href="step__shared_8h.html" target="_top" xlink:title=" ">
<polygon fill="white" stroke="#666666" points="550.12,-134.25 465.88,-134.25 465.88,-113.5 550.12,-113.5 550.12,-134.25"/>
<text xml:space="preserve" text-anchor="middle" x="508" y="-120.75" font-family="Helvetica,sans-Serif" font-size="10.00">step_shared.h</text>
</a>
</g>
</g>
<!-- Node1&#45;&gt;Node12 -->
<g id="edge24_Node000001_Node000012" class="edge">
<title>Node1&#45;&gt;Node12</title>
<g id="a_edge24_Node000001_Node000012"><a xlink:title=" ">
<path fill="none" stroke="#63b8ff" d="M366.02,-298.43C406.7,-294.23 457.54,-281.81 488,-247.75 513.13,-219.66 513.3,-172.82 510.86,-145.81"/>
<polygon fill="#63b8ff" stroke="#63b8ff" points="514.37,-145.67 509.76,-136.13 507.41,-146.46 514.37,-145.67"/>
</a>
</g>
</g>
<!-- Node19 -->
<g id="Node000019" class="node">
<title>Node19</title>
<g id="a_Node000019"><a xlink:href="cmd__dispatch_8h.html" target="_top" xlink:title=" ">
<polygon fill="white" stroke="#666666" points="171.25,-191 78.75,-191 78.75,-170.25 171.25,-170.25 171.25,-191"/>
<text xml:space="preserve" text-anchor="middle" x="125" y="-177.5" font-family="Helvetica,sans-Serif" font-size="10.00">cmd_dispatch.h</text>
</a>
</g>
</g>
<!-- Node1&#45;&gt;Node19 -->
<g id="edge25_Node000001_Node000019" class="edge">
<title>Node1&#45;&gt;Node19</title>
<g id="a_edge25_Node000001_Node000019"><a xlink:title=" ">
<path fill="none" stroke="#63b8ff" d="M240.11,-293.14C207.4,-286.7 169.11,-273.75 144,-247.75 132.32,-235.66 127.74,-216.87 125.98,-202.41"/>
<polygon fill="#63b8ff" stroke="#63b8ff" points="129.48,-202.28 125.18,-192.6 122.51,-202.85 129.48,-202.28"/>
</a>
</g>
</g>
<!-- Node20 -->
<g id="Node000020" class="node">
<title>Node20</title>
<g id="a_Node000020"><a xlink:href="log_8h.html" target="_top" xlink:title=" ">
<polygon fill="white" stroke="#666666" points="40,-134.25 0,-134.25 0,-113.5 40,-113.5 40,-134.25"/>
<text xml:space="preserve" text-anchor="middle" x="20" y="-120.75" font-family="Helvetica,sans-Serif" font-size="10.00">log.h</text>
</a>
</g>
</g>
<!-- Node1&#45;&gt;Node20 -->
<g id="edge30_Node000001_Node000020" class="edge">
<title>Node1&#45;&gt;Node20</title>
<g id="a_edge30_Node000001_Node000020"><a xlink:title=" ">
<path fill="none" stroke="#63b8ff" d="M240.08,-288.66C205.35,-280.82 162.42,-267.97 128,-247.75 84.11,-221.97 48.74,-172.07 31.48,-144.45"/>
<polygon fill="#63b8ff" stroke="#63b8ff" points="34.55,-142.76 26.36,-136.03 28.56,-146.4 34.55,-142.76"/>
</a>
</g>
</g>
<!-- Node21 -->
<g id="Node000021" class="node">
<title>Node21</title>
<g id="a_Node000021"><a xlink:href="step__timing_8h.html" target="_top" xlink:title=" ">
<polygon fill="white" stroke="#666666" points="379.38,-247.75 296.62,-247.75 296.62,-227 379.38,-227 379.38,-247.75"/>
<text xml:space="preserve" text-anchor="middle" x="338" y="-234.25" font-family="Helvetica,sans-Serif" font-size="10.00">step_timing.h</text>
</a>
</g>
</g>
<!-- Node1&#45;&gt;Node21 -->
<g id="edge33_Node000001_Node000021" class="edge">
<title>Node1&#45;&gt;Node21</title>
<g id="a_edge33_Node000001_Node000021"><a xlink:title=" ">
<path fill="none" stroke="#63b8ff" d="M312.2,-283.44C316.65,-275.67 322.03,-266.27 326.72,-258.07"/>
<polygon fill="#63b8ff" stroke="#63b8ff" points="329.68,-259.95 331.61,-249.53 323.61,-256.47 329.68,-259.95"/>
</a>
</g>
</g>
<!-- Node22 -->
<g id="Node000022" class="node">
<title>Node22</title>
<g id="a_Node000022"><a xlink:href="step__profile_8h.html" target="_top" xlink:title=" ">
<polygon fill="white" stroke="#666666" points="479,-247.75 397,-247.75 397,-227 479,-227 479,-247.75"/>
<text xml:space="preserve" text-anchor="middle" x="438" y="-234.25" font-family="Helvetica,sans-Serif" font-size="10.00">step_profile.h</text>
</a>
</g>
</g>
<!-- Node1&#45;&gt;Node22 -->
<g id="edge35_Node000001_Node000022" class="edge">
<title>Node1&#45;&gt;Node22</title>
<g id="a_edge35_Node000001_Node000022"><a xlink:title=" ">
<path fill="none" stroke="#63b8ff" d="M338.82,-283.28C359.75,-273.81 385.92,-261.95 406.13,-252.81"/>
<polygon fill="#63b8ff" stroke="#63b8ff" points="407.33,-256.1 415,-248.79 404.45,-249.73 407.33,-256.1"/>
</a>
</g>
</g>
<!-- Node23 -->
<g id="Node000023" class="node">
<title>Node23</title>
<g id="a_Node000023"><a xlink:title=" ">
<polygon fill="#e0e0e0" stroke="#999999" points="584.5,-247.75 535.5,-247.75 535.5,-227 584.5,-227 584.5,-247.75"/>
<text xml:space="preserve" text-anchor="middle" x="560" y="-234.25" font-family="Helvetica,sans-Serif" font-size="10.00">stdio.h</text>
</a>
</g>
</g>
<!-- Node1&#45;&gt;Node23 -->
<g id="edge37_Node000001_Node000023" class="edge">
<title>Node1&#45;&gt;Node23</title>
<g id="a_edge37_Node000001_Node000023"><a xlink:title=" ">
<path fill="none" stroke="#63b8ff" d="M365.97,-284.6C409.52,-274.29 468.79,-260.22 521,-247.75 522.01,-247.51 523.03,-247.26 524.06,-247.02"/>
<polygon fill="#63b8ff" stroke="#63b8ff" points="524.86,-250.42 533.77,-244.69 523.23,-243.62 524.86,-250.42"/>
</a>
</g>
</g>
<!-- Node2&#45;&gt;Node3 -->
<g id="edge2_Node000002_Node000003" class="edge">
<title>Node2&#45;&gt;Node3</title>
<g id="a_edge2_Node000002_Node000003"><a xlink:title=" ">
<path fill="none" stroke="#63b8ff" d="M215.95,-226.59C232.08,-218.26 255.5,-206.16 273.99,-196.61"/>
<polygon fill="#63b8ff" stroke="#63b8ff" points="275.59,-199.72 282.87,-192.02 272.38,-193.5 275.59,-199.72"/>
</a>
</g>
</g>
<!-- Node4 -->
<g id="Node000004" class="node">
<title>Node4</title>
<g id="a_Node000004"><a xlink:title=" ">
<polygon fill="#e0e0e0" stroke="#999999" points="388.38,-77.5 335.62,-77.5 335.62,-56.75 388.38,-56.75 388.38,-77.5"/>
<text xml:space="preserve" text-anchor="middle" x="362" y="-64" font-family="Helvetica,sans-Serif" font-size="10.00">stdint.h</text>
</a>
</g>
</g>
<!-- Node3&#45;&gt;Node4 -->
<g id="edge3_Node000003_Node000004" class="edge">
<title>Node3&#45;&gt;Node4</title>
<g id="a_edge3_Node000003_Node000004"><a xlink:title=" ">
<path fill="none" stroke="#63b8ff" d="M310.49,-169.9C317.17,-160.95 326.96,-147.14 334,-134.25 342.14,-119.36 349.54,-101.61 354.68,-88.25"/>
<polygon fill="#63b8ff" stroke="#63b8ff" points="357.83,-89.83 358.06,-79.24 351.27,-87.37 357.83,-89.83"/>
</a>
</g>
</g>
<!-- Node5 -->
<g id="Node000005" class="node">
<title>Node5</title>
<g id="a_Node000005"><a xlink:title=" ">
<polygon fill="#e0e0e0" stroke="#999999" points="447.5,-134.25 386.5,-134.25 386.5,-113.5 447.5,-113.5 447.5,-134.25"/>
<text xml:space="preserve" text-anchor="middle" x="417" y="-120.75" font-family="Helvetica,sans-Serif" font-size="10.00">stdbool.h</text>
</a>
</g>
</g>
<!-- Node3&#45;&gt;Node5 -->
<g id="edge4_Node000003_Node000005" class="edge">
<title>Node3&#45;&gt;Node5</title>
<g id="a_edge4_Node000003_Node000005"><a xlink:title=" ">
<path fill="none" stroke="#63b8ff" d="M323.38,-169.84C340.97,-161.39 366.63,-149.07 386.63,-139.46"/>
<polygon fill="#63b8ff" stroke="#63b8ff" points="387.93,-142.72 395.43,-135.23 384.9,-136.41 387.93,-142.72"/>
</a>
</g>
</g>
<!-- Node6 -->
<g id="Node000006" class="node">
<title>Node6</title>
<g id="a_Node000006"><a xlink:title=" ">
<polygon fill="#e0e0e0" stroke="#999999" points="99.75,-77.5 28.25,-77.5 28.25,-56.75 99.75,-56.75 99.75,-77.5"/>
<text xml:space="preserve" text-anchor="middle" x="64" y="-64" font-family="Helvetica,sans-Serif" font-size="10.00">FreeRTOS.h</text>
</a>
</g>
</g>
<!-- Node3&#45;&gt;Node6 -->
<g id="edge5_Node000003_Node000006" class="edge">
<title>Node3&#45;&gt;Node6</title>
<g id="a_edge5_Node000003_Node000006"><a xlink:title=" ">
<path fill="none" stroke="#63b8ff" d="M278.77,-169.77C257.51,-160.95 225.89,-147.42 199,-134.25 181.72,-125.78 178.17,-122.19 161,-113.5 139.55,-102.64 115.01,-91.17 95.99,-82.48"/>
<polygon fill="#63b8ff" stroke="#63b8ff" points="97.69,-79.41 87.14,-78.46 94.8,-85.78 97.69,-79.41"/>
</a>
</g>
</g>
<!-- Node7 -->
<g id="Node000007" class="node">
<title>Node7</title>
<g id="a_Node000007"><a xlink:title=" ">
<polygon fill="#e0e0e0" stroke="#999999" points="151.5,-134.25 96.5,-134.25 96.5,-113.5 151.5,-113.5 151.5,-134.25"/>
<text xml:space="preserve" text-anchor="middle" x="124" y="-120.75" font-family="Helvetica,sans-Serif" font-size="10.00">queue.h</text>
</a>
</g>
</g>
<!-- Node3&#45;&gt;Node7 -->
<g id="edge6_Node000003_Node000007" class="edge">
<title>Node3&#45;&gt;Node7</title>
<g id="a_edge6_Node000003_Node000007"><a xlink:title=" ">
<path fill="none" stroke="#63b8ff" d="M271,-169.84C240.68,-160.56 195.11,-146.62 162.75,-136.73"/>
<polygon fill="#63b8ff" stroke="#63b8ff" points="163.94,-133.43 153.35,-133.85 161.89,-140.12 163.94,-133.43"/>
</a>
</g>
</g>
<!-- Node8 -->
<g id="Node000008" class="node">
<title>Node8</title>
<g id="a_Node000008"><a xlink:href="cmd__handle_8h.html" target="_top" xlink:title=" ">
<polygon fill="white" stroke="#666666" points="292.12,-134.25 207.88,-134.25 207.88,-113.5 292.12,-113.5 292.12,-134.25"/>
<text xml:space="preserve" text-anchor="middle" x="250" y="-120.75" font-family="Helvetica,sans-Serif" font-size="10.00">cmd_handle.h</text>
</a>
</g>
</g>
<!-- Node3&#45;&gt;Node8 -->
<g id="edge7_Node000003_Node000008" class="edge">
<title>Node3&#45;&gt;Node8</title>
<g id="a_edge7_Node000003_Node000008"><a xlink:title=" ">
<path fill="none" stroke="#63b8ff" d="M293.52,-169.84C286.21,-162.28 275.91,-151.64 267.16,-142.6"/>
<polygon fill="#63b8ff" stroke="#63b8ff" points="269.92,-140.42 260.45,-135.67 264.89,-145.29 269.92,-140.42"/>
</a>
</g>
</g>
<!-- Node3&#45;&gt;Node12 -->
<g id="edge13_Node000003_Node000012" class="edge">
<title>Node3&#45;&gt;Node12</title>
<g id="a_edge13_Node000003_Node000012"><a xlink:title=" ">
<path fill="none" stroke="#63b8ff" d="M339.65,-169.84C373.36,-160.83 423.55,-147.43 460.36,-137.6"/>
<polygon fill="#63b8ff" stroke="#63b8ff" points="461.1,-141.02 469.86,-135.06 459.3,-134.26 461.1,-141.02"/>
</a>
</g>
</g>
<!-- Node8&#45;&gt;Node4 -->
<g id="edge8_Node000008_Node000004" class="edge">
<title>Node8&#45;&gt;Node4</title>
<g id="a_edge8_Node000008_Node000004"><a xlink:title=" ">
<path fill="none" stroke="#63b8ff" d="M270.02,-113.09C287.22,-104.68 312.28,-92.43 331.9,-82.84"/>
<polygon fill="#63b8ff" stroke="#63b8ff" points="333.34,-86.03 340.79,-78.49 330.27,-79.74 333.34,-86.03"/>
</a>
</g>
</g>
<!-- Node8&#45;&gt;Node6 -->
<g id="edge9_Node000008_Node000006" class="edge">
<title>Node8&#45;&gt;Node6</title>
<g id="a_edge9_Node000008_Node000006"><a xlink:title=" ">
<path fill="none" stroke="#63b8ff" d="M216.75,-113.09C186.42,-104.16 141.4,-90.91 108.09,-81.1"/>
<polygon fill="#63b8ff" stroke="#63b8ff" points="109.31,-77.81 98.73,-78.35 107.33,-84.53 109.31,-77.81"/>
</a>
</g>
</g>
<!-- Node9 -->
<g id="Node000009" class="node">
<title>Node9</title>
<g id="a_Node000009"><a xlink:title=" ">
<polygon fill="#e0e0e0" stroke="#999999" points="279.5,-77.5 188.5,-77.5 188.5,-56.75 279.5,-56.75 279.5,-77.5"/>
<text xml:space="preserve" text-anchor="middle" x="234" y="-64" font-family="Helvetica,sans-Serif" font-size="10.00">event_groups.h</text>
</a>
</g>
</g>
<!-- Node8&#45;&gt;Node9 -->
<g id="edge10_Node000008_Node000009" class="edge">
<title>Node8&#45;&gt;Node9</title>
<g id="a_edge10_Node000008_Node000009"><a xlink:title=" ">
<path fill="none" stroke="#63b8ff" d="M247.14,-113.09C245.16,-106.31 242.45,-97.05 240.01,-88.69"/>
<polygon fill="#63b8ff" stroke="#63b8ff" points="243.42,-87.9 237.26,-79.28 236.71,-89.86 243.42,-87.9"/>
</a>
</g>
</g>
<!-- Node10 -->
<g id="Node000010" class="node">
<title>Node10</title>
<g id="a_Node000010"><a xlink:title=" ">
<polygon fill="#e0e0e0" stroke="#999999" points="404.5,-20.75 319.5,-20.75 319.5,0 404.5,0 404.5,-20.75"/>
<text xml:space="preserve" text-anchor="middle" x="362" y="-7.25" font-family="Helvetica,sans-Serif" font-size="10.00">fsl_common.h</text>
</a>
</g>
</g>
<!-- Node8&#45;&gt;Node10 -->
<g id="edge11_Node000008_Node000010" class="edge">
<title>Node8&#45;&gt;Node10</title>
<g id="a_edge11_Node000008_Node000010"><a xlink:title=" ">
<path fill="none" stroke="#63b8ff" d="M259.55,-113.37C278.3,-94.7 320.19,-52.99 344.2,-29.1"/>
<polygon fill="#63b8ff" stroke="#63b8ff" points="346.47,-31.78 351.08,-22.24 341.53,-26.82 346.47,-31.78"/>
</a>
</g>
</g>
<!-- Node11 -->
<g id="Node000011" class="node">
<title>Node11</title>
<g id="a_Node000011"><a xlink:title=" ">
<polygon fill="#e0e0e0" stroke="#999999" points="170,-77.5 118,-77.5 118,-56.75 170,-56.75 170,-77.5"/>
<text xml:space="preserve" text-anchor="middle" x="144" y="-64" font-family="Helvetica,sans-Serif" font-size="10.00">stdlib.h</text>
</a>
</g>
</g>
<!-- Node8&#45;&gt;Node11 -->
<g id="edge12_Node000008_Node000011" class="edge">
<title>Node8&#45;&gt;Node11</title>
<g id="a_edge12_Node000008_Node000011"><a xlink:title=" ">
<path fill="none" stroke="#63b8ff" d="M231.05,-113.09C214.92,-104.76 191.5,-92.66 173.01,-83.11"/>
<polygon fill="#63b8ff" stroke="#63b8ff" points="174.62,-80 164.13,-78.52 171.41,-86.22 174.62,-80"/>
</a>
</g>
</g>
<!-- Node12&#45;&gt;Node4 -->
<g id="edge14_Node000012_Node000004" class="edge">
<title>Node12&#45;&gt;Node4</title>
<g id="a_edge14_Node000012_Node000004"><a xlink:title=" ">
<path fill="none" stroke="#63b8ff" d="M481.9,-113.09C458.65,-104.37 424.38,-91.52 398.43,-81.79"/>
<polygon fill="#63b8ff" stroke="#63b8ff" points="399.89,-78.59 389.29,-78.36 397.43,-85.15 399.89,-78.59"/>
</a>
</g>
</g>
<!-- Node12&#45;&gt;Node10 -->
<g id="edge19_Node000012_Node000010" class="edge">
<title>Node12&#45;&gt;Node10</title>
<g id="a_edge19_Node000012_Node000010"><a xlink:title=" ">
<path fill="none" stroke="#63b8ff" d="M490.31,-113.08C475.16,-104.42 452.99,-91.07 435,-77.5 414.87,-62.32 393.72,-42.7 379.4,-28.78"/>
<polygon fill="#63b8ff" stroke="#63b8ff" points="382.09,-26.53 372.51,-22.01 377.19,-31.52 382.09,-26.53"/>
</a>
</g>
</g>
<!-- Node13 -->
<g id="Node000013" class="node">
<title>Node13</title>
<g id="a_Node000013"><a xlink:href="pca9555a_8h.html" target="_top" xlink:title=" ">
<polygon fill="white" stroke="#666666" points="977,-77.5 823,-77.5 823,-56.75 977,-56.75 977,-77.5"/>
<text xml:space="preserve" text-anchor="middle" x="900" y="-64" font-family="Helvetica,sans-Serif" font-size="10.00">driver/pca9555a/pca9555a.h</text>
</a>
</g>
</g>
<!-- Node12&#45;&gt;Node13 -->
<g id="edge15_Node000012_Node000013" class="edge">
<title>Node12&#45;&gt;Node13</title>
<g id="a_edge15_Node000012_Node000013"><a xlink:title=" ">
<path fill="none" stroke="#63b8ff" d="M550.32,-116.96C614.23,-108.04 736.56,-90.95 818.23,-79.55"/>
<polygon fill="#63b8ff" stroke="#63b8ff" points="818.56,-83.03 827.98,-78.18 817.59,-76.1 818.56,-83.03"/>
</a>
</g>
</g>
<!-- Node15 -->
<g id="Node000015" class="node">
<title>Node15</title>
<g id="a_Node000015"><a xlink:title=" ">
<polygon fill="#e0e0e0" stroke="#999999" points="566.25,-77.5 443.75,-77.5 443.75,-56.75 566.25,-56.75 566.25,-77.5"/>
<text xml:space="preserve" text-anchor="middle" x="505" y="-64" font-family="Helvetica,sans-Serif" font-size="10.00">fsl_device_registers.h</text>
</a>
</g>
</g>
<!-- Node12&#45;&gt;Node15 -->
<g id="edge18_Node000012_Node000015" class="edge">
<title>Node12&#45;&gt;Node15</title>
<g id="a_edge18_Node000012_Node000015"><a xlink:title=" ">
<path fill="none" stroke="#63b8ff" d="M507.46,-113.09C507.1,-106.47 506.61,-97.47 506.16,-89.27"/>
<polygon fill="#63b8ff" stroke="#63b8ff" points="509.66,-89.13 505.61,-79.34 502.67,-89.52 509.66,-89.13"/>
</a>
</g>
</g>
<!-- Node16 -->
<g id="Node000016" class="node">
<title>Node16</title>
<g id="a_Node000016"><a xlink:title=" ">
<polygon fill="#e0e0e0" stroke="#999999" points="643.38,-77.5 584.62,-77.5 584.62,-56.75 643.38,-56.75 643.38,-77.5"/>
<text xml:space="preserve" text-anchor="middle" x="614" y="-64" font-family="Helvetica,sans-Serif" font-size="10.00">fsl_ftm.h</text>
</a>
</g>
</g>
<!-- Node12&#45;&gt;Node16 -->
<g id="edge20_Node000012_Node000016" class="edge">
<title>Node12&#45;&gt;Node16</title>
<g id="a_edge20_Node000012_Node000016"><a xlink:title=" ">
<path fill="none" stroke="#63b8ff" d="M526.95,-113.09C543.08,-104.76 566.5,-92.66 584.99,-83.11"/>
<polygon fill="#63b8ff" stroke="#63b8ff" points="586.59,-86.22 593.87,-78.52 583.38,-80 586.59,-86.22"/>
</a>
</g>
</g>
<!-- Node17 -->
<g id="Node000017" class="node">
<title>Node17</title>
<g id="a_Node000017"><a xlink:title=" ">
<polygon fill="#e0e0e0" stroke="#999999" points="724.62,-77.5 661.38,-77.5 661.38,-56.75 724.62,-56.75 724.62,-77.5"/>
<text xml:space="preserve" text-anchor="middle" x="693" y="-64" font-family="Helvetica,sans-Serif" font-size="10.00">fsl_gpio.h</text>
</a>
</g>
</g>
<!-- Node12&#45;&gt;Node17 -->
<g id="edge21_Node000012_Node000017" class="edge">
<title>Node12&#45;&gt;Node17</title>
<g id="a_edge21_Node000012_Node000017"><a xlink:title=" ">
<path fill="none" stroke="#63b8ff" d="M541.07,-113.09C571.61,-104.05 617.12,-90.58 650.37,-80.74"/>
<polygon fill="#63b8ff" stroke="#63b8ff" points="651.09,-84.18 659.69,-77.98 649.11,-77.47 651.09,-84.18"/>
</a>
</g>
</g>
<!-- Node18 -->
<g id="Node000018" class="node">
<title>Node18</title>
<g id="a_Node000018"><a xlink:title=" ">
<polygon fill="#e0e0e0" stroke="#999999" points="804.88,-77.5 743.12,-77.5 743.12,-56.75 804.88,-56.75 804.88,-77.5"/>
<text xml:space="preserve" text-anchor="middle" x="774" y="-64" font-family="Helvetica,sans-Serif" font-size="10.00">fsl_port.h</text>
</a>
</g>
</g>
<!-- Node12&#45;&gt;Node18 -->
<g id="edge22_Node000012_Node000018" class="edge">
<title>Node12&#45;&gt;Node18</title>
<g id="a_edge22_Node000012_Node000018"><a xlink:title=" ">
<path fill="none" stroke="#63b8ff" d="M550.57,-114.75C593.76,-106.41 662.8,-92.83 731.92,-77.9"/>
<polygon fill="#63b8ff" stroke="#63b8ff" points="732.5,-81.35 741.53,-75.81 731.02,-74.51 732.5,-81.35"/>
</a>
</g>
</g>
<!-- Node13&#45;&gt;Node10 -->
<g id="edge16_Node000013_Node000010" class="edge">
<title>Node13&#45;&gt;Node10</title>
<g id="a_edge16_Node000013_Node000010"><a xlink:title=" ">
<path fill="none" stroke="#63b8ff" d="M822.65,-57.66C819.73,-57.35 816.84,-57.05 814,-56.75 670.35,-41.71 500.91,-24.97 416.1,-16.66"/>
<polygon fill="#63b8ff" stroke="#63b8ff" points="416.5,-13.18 406.21,-15.69 415.82,-20.14 416.5,-13.18"/>
</a>
</g>
</g>
<!-- Node14 -->
<g id="Node000014" class="node">
<title>Node14</title>
<g id="a_Node000014"><a xlink:title=" ">
<polygon fill="#e0e0e0" stroke="#999999" points="939.88,-20.75 860.12,-20.75 860.12,0 939.88,0 939.88,-20.75"/>
<text xml:space="preserve" text-anchor="middle" x="900" y="-7.25" font-family="Helvetica,sans-Serif" font-size="10.00">peripherals.h</text>
</a>
</g>
</g>
<!-- Node13&#45;&gt;Node14 -->
<g id="edge17_Node000013_Node000014" class="edge">
<title>Node13&#45;&gt;Node14</title>
<g id="a_edge17_Node000013_Node000014"><a xlink:title=" ">
<path fill="none" stroke="#63b8ff" d="M900,-56.34C900,-49.72 900,-40.72 900,-32.52"/>
<polygon fill="#63b8ff" stroke="#63b8ff" points="903.5,-32.59 900,-22.59 896.5,-32.59 903.5,-32.59"/>
</a>
</g>
</g>
<!-- Node19&#45;&gt;Node4 -->
<g id="edge26_Node000019_Node000004" class="edge">
<title>Node19&#45;&gt;Node4</title>
<g id="a_edge26_Node000019_Node000004"><a xlink:title=" ">
<path fill="none" stroke="#63b8ff" d="M171.52,-174.96C208.71,-169.56 261.06,-158.14 301,-134.25 320.82,-122.4 338.1,-102.17 349.15,-87.2"/>
<polygon fill="#63b8ff" stroke="#63b8ff" points="351.98,-89.27 354.9,-79.08 346.27,-85.23 351.98,-89.27"/>
</a>
</g>
</g>
<!-- Node19&#45;&gt;Node6 -->
<g id="edge27_Node000019_Node000006" class="edge">
<title>Node19&#45;&gt;Node6</title>
<g id="a_edge27_Node000019_Node000006"><a xlink:title=" ">
<path fill="none" stroke="#63b8ff" d="M115.1,-169.97C106.66,-161.28 94.71,-147.84 87,-134.25 78.83,-119.84 72.84,-102.03 69.02,-88.53"/>
<polygon fill="#63b8ff" stroke="#63b8ff" points="72.45,-87.8 66.52,-79.02 65.68,-89.58 72.45,-87.8"/>
</a>
</g>
</g>
<!-- Node19&#45;&gt;Node7 -->
<g id="edge28_Node000019_Node000007" class="edge">
<title>Node19&#45;&gt;Node7</title>
<g id="a_edge28_Node000019_Node000007"><a xlink:title=" ">
<path fill="none" stroke="#63b8ff" d="M124.82,-169.84C124.7,-163.22 124.54,-154.22 124.39,-146.02"/>
<polygon fill="#63b8ff" stroke="#63b8ff" points="127.89,-146.03 124.2,-136.09 120.89,-146.15 127.89,-146.03"/>
</a>
</g>
</g>
<!-- Node19&#45;&gt;Node8 -->
<g id="edge29_Node000019_Node000008" class="edge">
<title>Node19&#45;&gt;Node8</title>
<g id="a_edge29_Node000019_Node000008"><a xlink:title=" ">
<path fill="none" stroke="#63b8ff" d="M147.35,-169.84C166.81,-161.31 195.29,-148.84 217.31,-139.19"/>
<polygon fill="#63b8ff" stroke="#63b8ff" points="218.7,-142.4 226.46,-135.19 215.9,-135.99 218.7,-142.4"/>
</a>
</g>
</g>
<!-- Node20&#45;&gt;Node6 -->
<g id="edge31_Node000020_Node000006" class="edge">
<title>Node20&#45;&gt;Node6</title>
<g id="a_edge31_Node000020_Node000006"><a xlink:title=" ">
<path fill="none" stroke="#63b8ff" d="M27.87,-113.09C33.75,-105.77 41.97,-95.54 49.08,-86.69"/>
<polygon fill="#63b8ff" stroke="#63b8ff" points="51.72,-89 55.25,-79.01 46.26,-84.61 51.72,-89"/>
</a>
</g>
</g>
<!-- Node20&#45;&gt;Node10 -->
<g id="edge32_Node000020_Node000010" class="edge">
<title>Node20&#45;&gt;Node10</title>
<g id="a_edge32_Node000020_Node000010"><a xlink:title=" ">
<path fill="none" stroke="#63b8ff" d="M16.35,-113.43C11.54,-99.26 5.23,-72.46 19,-56.75 37.72,-35.39 216.05,-20.82 307.89,-14.67"/>
<polygon fill="#63b8ff" stroke="#63b8ff" points="307.92,-18.18 317.67,-14.03 307.46,-11.19 307.92,-18.18"/>
</a>
</g>
</g>
<!-- Node21&#45;&gt;Node3 -->
<g id="edge34_Node000021_Node000003" class="edge">
<title>Node21&#45;&gt;Node3</title>
<g id="a_edge34_Node000021_Node000003"><a xlink:title=" ">
<path fill="none" stroke="#63b8ff" d="M331.74,-226.59C327.16,-219.42 320.8,-209.48 315.23,-200.76"/>
<polygon fill="#63b8ff" stroke="#63b8ff" points="318.35,-199.14 310.02,-192.6 312.46,-202.91 318.35,-199.14"/>
</a>
</g>
</g>
<!-- Node22&#45;&gt;Node3 -->
<g id="edge36_Node000022_Node000003" class="edge">
<title>Node22&#45;&gt;Node3</title>
<g id="a_edge36_Node000022_Node000003"><a xlink:title=" ">
<path fill="none" stroke="#63b8ff" d="M413.86,-226.59C392.56,-217.94 361.25,-205.25 337.33,-195.55"/>
<polygon fill="#63b8ff" stroke="#63b8ff" points="338.91,-192.41 328.33,-191.9 336.28,-198.9 338.91,-192.41"/>
</a>
</g>
</g>
</g>
</svg>

<g id="navigator" transform="translate(0 0)" fill="#404254">
  <rect fill="#f2f5e9" fill-opacity="0.5" stroke="#606060" stroke-width=".5" x="0" y="0" width="60" height="60"/>
  <use id="zoomplus" xlink:href="#zoomPlus" x="17" y="9" onmousedown="handleZoom(evt,'in')"/>
  <use id="zoomminus" xlink:href="#zoomMin" x="42" y="9" onmousedown="handleZoom(evt,'out')"/>
  <use id="reset" xlink:href="#resetDef" x="30" y="36" onmousedown="handleReset()"/>
   <use id="arrowup" xlink:href="#arrowUp" x="0" y="0" onmousedown="handlePan(0,-1)"/>
  <use id="arrowright" xlink:href="#arrowRight" x="0" y="0" onmousedown="handlePan(1,0)"/>
  <use id="arrowdown" xlink:href="#arrowDown" x="0" y="0" onmousedown="handlePan(0,1)"/>
  <use id="arrowleft" xlink:href="#arrowLeft" x="0" y="0" onmousedown="handlePan(-1,0)"/>
</g>
<svg viewBox="0 0 15 15" width="100%" height="30px" preserveAspectRatio="xMaxYMin meet">
 <g id="arrow_out" transform="scale(0.3 0.3)">
  <a xlink:href="step__process_8c__incl_org.svg" target="_base">
   <rect id="button" ry="5" rx="5" y="6" x="6" height="38" width="38"
        fill="#f2f5e9" fill-opacity="0.5" stroke="#606060" stroke-width="1.0"/>
   <path id="arrow"
     d="M 11.500037,31.436501 C 11.940474,20.09759 22.043105,11.32322 32.158766,21.979434 L 37.068811,17.246167 C 37.068811,17.246167 37.088388,32 37.088388,32 L 22.160133,31.978069 C 22.160133,31.978069 26.997745,27.140456 26.997745,27.140456 C 18.528582,18.264221 13.291696,25.230495 11.500037,31.436501 z"
     style="fill:#404040;"/>
  </a>
 </g>
</svg>

<style type='text/css'>
<![CDATA[
[data-mouse-over-selected='false'] { opacity: 0.7; }
[data-mouse-over-selected='true']  { opacity: 1.0; }
]]>
</style>
<script type="application/ecmascript"><![CDATA[
document.addEventListener('DOMContentLoaded', (event) => {
  highlightEdges();
  highlightAdjacentNodes();
});
]]></script>
</svg>
