<?xml version="1.0" encoding="UTF-8" standalone="no"?>
<!DOCTYPE svg PUBLIC "-//W3C//DTD SVG 1.1//EN"
 "http://www.w3.org/Graphics/SVG/1.1/DTD/svg11.dtd">
<!-- Generated by graphviz version 14.1.3 (0)
 -->
<!-- Title: source/step.h Pages: 1 -->
<svg width="486pt" height="86pt"
 viewBox="0.00 0.00 486.00 86.00" xmlns="http://www.w3.org/2000/svg" xmlns:xlink="http://www.w3.org/1999/xlink">
<g id="graph0" class="graph" transform="scale(1 1) rotate(0) translate(4 81.5)">
<title>source/step.h</title>
<!-- Node1 -->
<g id="Node000001" class="node">
<title>Node1</title>
<g id="a_Node000001"><a xlink:title=" ">
<polygon fill="#999999" stroke="#666666" points="282.38,-77.5 201.12,-77.5 201.12,-56.75 282.38,-56.75 282.38,-77.5"/>
<text xml:space="preserve" text-anchor="middle" x="241.75" y="-64" font-family="Helvetica,sans-Serif" font-size="10.00">source/step.h</text>
</a>
</g>
</g>
<!-- Node2 -->
<g id="Node000002" class="node">
<title>Node2</title>
<g id="a_Node000002"><a xlink:title=" ">
<polygon fill="#e0e0e0" stroke="#999999" points="71.5,-20.75 0,-20.75 0,0 71.5,0 71.5,-20.75"/>
<text xml:space="preserve" text-anchor="middle" x="35.75" y="-7.25" font-family="Helvetica,sans-Serif" font-size="10.00">FreeRTOS.h</text>
</a>
</g>
</g>
<!-- Node1&#45;&gt;Node2 -->
<g id="edge1_Node000001_Node000002" class="edge">
<title>Node1&#45;&gt;Node2</title>
<g id="a_edge1_Node000001_Node000002"><a xlink:title=" ">
<path fill="none" stroke="#63b8ff" d="M204.92,-56.34C170.84,-47.28 119.98,-33.76 82.94,-23.92"/>
<polygon fill="#63b8ff" stroke="#63b8ff" points="83.94,-20.56 73.38,-21.38 82.14,-27.33 83.94,-20.56"/>
</a>
</g>
</g>
<!-- Node3 -->
<g id="Node000003" class="node">
<title>Node3</title>
<g id="a_Node000003"><a xlink:title=" ">
<polygon fill="#e0e0e0" stroke="#999999" points="135.75,-20.75 89.75,-20.75 89.75,0 135.75,0 135.75,-20.75"/>
<text xml:space="preserve" text-anchor="middle" x="112.75" y="-7.25" font-family="Helvetica,sans-Serif" font-size="10.00">task.h</text>
</a>
</g>
</g>
<!-- Node1&#45;&gt;Node3 -->
<g id="edge2_Node000001_Node000003" class="edge">
<title>Node1&#45;&gt;Node3</title>
<g id="a_edge2_Node000001_Node000003"><a xlink:title=" ">
<path fill="none" stroke="#63b8ff" d="M218.69,-56.34C198.51,-47.77 168.95,-35.23 146.18,-25.56"/>
<polygon fill="#63b8ff" stroke="#63b8ff" points="147.58,-22.35 137.01,-21.67 144.84,-28.8 147.58,-22.35"/>
</a>
</g>
</g>
<!-- Node4 -->
<g id="Node000004" class="node">
<title>Node4</title>
<g id="a_Node000004"><a xlink:title=" ">
<polygon fill="#e0e0e0" stroke="#999999" points="239.25,-20.75 154.25,-20.75 154.25,0 239.25,0 239.25,-20.75"/>
<text xml:space="preserve" text-anchor="middle" x="196.75" y="-7.25" font-family="Helvetica,sans-Serif" font-size="10.00">fsl_common.h</text>
</a>
</g>
</g>
<!-- Node1&#45;&gt;Node4 -->
<g id="edge3_Node000001_Node000004" class="edge">
<title>Node1&#45;&gt;Node4</title>
<g id="a_edge3_Node000001_Node000004"><a xlink:title=" ">
<path fill="none" stroke="#63b8ff" d="M233.7,-56.34C227.69,-49.02 219.28,-38.79 212.01,-29.94"/>
<polygon fill="#63b8ff" stroke="#63b8ff" points="214.74,-27.75 205.69,-22.25 209.33,-32.2 214.74,-27.75"/>
</a>
</g>
</g>
<!-- Node5 -->
<g id="Node000005" class="node">
<title>Node5</title>
<g id="a_Node000005"><a xlink:title=" ">
<polygon fill="#e0e0e0" stroke="#999999" points="316.12,-20.75 257.38,-20.75 257.38,0 316.12,0 316.12,-20.75"/>
<text xml:space="preserve" text-anchor="middle" x="286.75" y="-7.25" font-family="Helvetica,sans-Serif" font-size="10.00">fsl_ftm.h</text>
</a>
</g>
</g>
<!-- Node1&#45;&gt;Node5 -->
<g id="edge4_Node000001_Node000005" class="edge">
<title>Node1&#45;&gt;Node5</title>
<g id="a_edge4_Node000001_Node000005"><a xlink:title=" ">
<path fill="none" stroke="#63b8ff" d="M249.8,-56.34C255.81,-49.02 264.22,-38.79 271.49,-29.94"/>
<polygon fill="#63b8ff" stroke="#63b8ff" points="274.17,-32.2 277.81,-22.25 268.76,-27.75 274.17,-32.2"/>
</a>
</g>
</g>
<!-- Node6 -->
<g id="Node000006" class="node">
<title>Node6</title>
<g id="a_Node000006"><a xlink:title=" ">
<polygon fill="#e0e0e0" stroke="#999999" points="397.38,-20.75 334.12,-20.75 334.12,0 397.38,0 397.38,-20.75"/>
<text xml:space="preserve" text-anchor="middle" x="365.75" y="-7.25" font-family="Helvetica,sans-Serif" font-size="10.00">fsl_gpio.h</text>
</a>
</g>
</g>
<!-- Node1&#45;&gt;Node6 -->
<g id="edge5_Node000001_Node000006" class="edge">
<title>Node1&#45;&gt;Node6</title>
<g id="a_edge5_Node000001_Node000006"><a xlink:title=" ">
<path fill="none" stroke="#63b8ff" d="M263.92,-56.34C283.23,-47.81 311.47,-35.34 333.32,-25.69"/>
<polygon fill="#63b8ff" stroke="#63b8ff" points="334.65,-28.93 342.39,-21.69 331.83,-22.53 334.65,-28.93"/>
</a>
</g>
</g>
<!-- Node7 -->
<g id="Node000007" class="node">
<title>Node7</title>
<g id="a_Node000007"><a xlink:title=" ">
<polygon fill="#e0e0e0" stroke="#999999" points="477.62,-20.75 415.88,-20.75 415.88,0 477.62,0 477.62,-20.75"/>
<text xml:space="preserve" text-anchor="middle" x="446.75" y="-7.25" font-family="Helvetica,sans-Serif" font-size="10.00">fsl_port.h</text>
</a>
</g>
</g>
<!-- Node1&#45;&gt;Node7 -->
<g id="edge6_Node000001_Node000007" class="edge">
<title>Node1&#45;&gt;Node7</title>
<g id="a_edge6_Node000001_Node000007"><a xlink:title=" ">
<path fill="none" stroke="#63b8ff" d="M278.4,-56.34C313.78,-46.89 367.32,-32.59 404.48,-22.66"/>
<polygon fill="#63b8ff" stroke="#63b8ff" points="405.23,-26.09 413.99,-20.13 403.42,-19.32 405.23,-26.09"/>
</a>
</g>
</g>
</g>
</svg>
