<?xml version="1.0" encoding="UTF-8" standalone="no"?>
<!DOCTYPE svg PUBLIC "-//W3C//DTD SVG 1.1//EN"
 "http://www.w3.org/Graphics/SVG/1.1/DTD/svg11.dtd">
<!-- Generated by graphviz version 14.1.5 (0)
 -->
<!-- Title: source/motion/stepper/step_profile.c Pages: 1 -->
<svg width="983pt" height="325pt"
 viewBox="0.00 0.00 983.00 325.00" xmlns="http://www.w3.org/2000/svg" xmlns:xlink="http://www.w3.org/1999/xlink">
<g id="graph0" class="graph" transform="scale(1 1) rotate(0) translate(4 321.25)">
<title>source/motion/stepper/step_profile.c</title>
<!-- Node1 -->
<g id="Node000001" class="node">
<title>Node1</title>
<g id="a_Node000001"><a xlink:title=" ">
<polygon fill="#999999" stroke="#666666" points="305.25,-317.25 179.75,-317.25 179.75,-283.75 305.25,-283.75 305.25,-317.25"/>
<text xml:space="preserve" text-anchor="start" x="187.75" y="-303.75" font-family="Helvetica,sans-Serif" font-size="10.00">source/motion/stepper</text>
<text xml:space="preserve" text-anchor="middle" x="242.5" y="-291" font-family="Helvetica,sans-Serif" font-size="10.00">/step_profile.c</text>
</a>
</g>
</g>
<!-- Node2 -->
<g id="Node000002" class="node">
<title>Node2</title>
<g id="a_Node000002"><a xlink:href="log_8h.html" target="_top" xlink:title=" ">
<polygon fill="white" stroke="#666666" points="109,-134.25 0,-134.25 0,-113.5 109,-113.5 109,-134.25"/>
<text xml:space="preserve" text-anchor="middle" x="54.5" y="-120.75" font-family="Helvetica,sans-Serif" font-size="10.00">infrastructure/log.h</text>
</a>
</g>
</g>
<!-- Node1&#45;&gt;Node2 -->
<g id="edge1_Node000001_Node000002" class="edge">
<title>Node1&#45;&gt;Node2</title>
<g id="a_edge1_Node000001_Node000002"><a xlink:title=" ">
<path fill="none" stroke="#63b8ff" d="M206.31,-283.34C188.43,-274.35 167.18,-262.08 150.5,-247.75 114.39,-216.72 82.59,-170.33 66.21,-144.33"/>
<polygon fill="#63b8ff" stroke="#63b8ff" points="69.2,-142.5 60.97,-135.83 63.24,-146.18 69.2,-142.5"/>
</a>
</g>
</g>
<!-- Node5 -->
<g id="Node000005" class="node">
<title>Node5</title>
<g id="a_Node000005"><a xlink:href="step__profile_8h.html" target="_top" xlink:title=" ">
<polygon fill="white" stroke="#666666" points="241.5,-247.75 159.5,-247.75 159.5,-227 241.5,-227 241.5,-247.75"/>
<text xml:space="preserve" text-anchor="middle" x="200.5" y="-234.25" font-family="Helvetica,sans-Serif" font-size="10.00">step_profile.h</text>
</a>
</g>
</g>
<!-- Node1&#45;&gt;Node5 -->
<g id="edge4_Node000001_Node000005" class="edge">
<title>Node1&#45;&gt;Node5</title>
<g id="a_edge4_Node000001_Node000005"><a xlink:title=" ">
<path fill="none" stroke="#63b8ff" d="M231.46,-283.44C226,-275.49 219.37,-265.84 213.65,-257.52"/>
<polygon fill="#63b8ff" stroke="#63b8ff" points="216.67,-255.72 208.12,-249.46 210.9,-259.69 216.67,-255.72"/>
</a>
</g>
</g>
<!-- Node20 -->
<g id="Node000020" class="node">
<title>Node20</title>
<g id="a_Node000020"><a xlink:title=" ">
<polygon fill="#e0e0e0" stroke="#999999" points="309,-247.75 260,-247.75 260,-227 309,-227 309,-247.75"/>
<text xml:space="preserve" text-anchor="middle" x="284.5" y="-234.25" font-family="Helvetica,sans-Serif" font-size="10.00">stdio.h</text>
</a>
</g>
</g>
<!-- Node1&#45;&gt;Node20 -->
<g id="edge26_Node000001_Node000020" class="edge">
<title>Node1&#45;&gt;Node20</title>
<g id="a_edge26_Node000001_Node000020"><a xlink:title=" ">
<path fill="none" stroke="#63b8ff" d="M253.54,-283.44C259,-275.49 265.63,-265.84 271.35,-257.52"/>
<polygon fill="#63b8ff" stroke="#63b8ff" points="274.1,-259.69 276.88,-249.46 268.33,-255.72 274.1,-259.69"/>
</a>
</g>
</g>
<!-- Node21 -->
<g id="Node000021" class="node">
<title>Node21</title>
<g id="a_Node000021"><a xlink:title=" ">
<polygon fill="#e0e0e0" stroke="#999999" points="377.75,-247.75 327.25,-247.75 327.25,-227 377.75,-227 377.75,-247.75"/>
<text xml:space="preserve" text-anchor="middle" x="352.5" y="-234.25" font-family="Helvetica,sans-Serif" font-size="10.00">math.h</text>
</a>
</g>
</g>
<!-- Node1&#45;&gt;Node21 -->
<g id="edge27_Node000001_Node000021" class="edge">
<title>Node1&#45;&gt;Node21</title>
<g id="a_edge27_Node000001_Node000021"><a xlink:title=" ">
<path fill="none" stroke="#63b8ff" d="M271.69,-283.28C288.19,-274.11 308.69,-262.72 324.92,-253.7"/>
<polygon fill="#63b8ff" stroke="#63b8ff" points="326.52,-256.82 333.56,-248.9 323.12,-250.7 326.52,-256.82"/>
</a>
</g>
</g>
<!-- Node3 -->
<g id="Node000003" class="node">
<title>Node3</title>
<g id="a_Node000003"><a xlink:title=" ">
<polygon fill="#e0e0e0" stroke="#999999" points="98.25,-77.5 26.75,-77.5 26.75,-56.75 98.25,-56.75 98.25,-77.5"/>
<text xml:space="preserve" text-anchor="middle" x="62.5" y="-64" font-family="Helvetica,sans-Serif" font-size="10.00">FreeRTOS.h</text>
</a>
</g>
</g>
<!-- Node2&#45;&gt;Node3 -->
<g id="edge2_Node000002_Node000003" class="edge">
<title>Node2&#45;&gt;Node3</title>
<g id="a_edge2_Node000002_Node000003"><a xlink:title=" ">
<path fill="none" stroke="#63b8ff" d="M55.93,-113.09C56.91,-106.39 58.24,-97.26 59.45,-88.98"/>
<polygon fill="#63b8ff" stroke="#63b8ff" points="62.88,-89.73 60.86,-79.33 55.95,-88.71 62.88,-89.73"/>
</a>
</g>
</g>
<!-- Node4 -->
<g id="Node000004" class="node">
<title>Node4</title>
<g id="a_Node000004"><a xlink:title=" ">
<polygon fill="#e0e0e0" stroke="#999999" points="313,-20.75 228,-20.75 228,0 313,0 313,-20.75"/>
<text xml:space="preserve" text-anchor="middle" x="270.5" y="-7.25" font-family="Helvetica,sans-Serif" font-size="10.00">fsl_common.h</text>
</a>
</g>
</g>
<!-- Node2&#45;&gt;Node4 -->
<g id="edge3_Node000002_Node000004" class="edge">
<title>Node2&#45;&gt;Node4</title>
<g id="a_edge3_Node000002_Node000004"><a xlink:title=" ">
<path fill="none" stroke="#63b8ff" d="M42.1,-113.2C26.23,-99.66 2.47,-74.71 17.5,-56.75 42.37,-27.02 149.97,-16.75 216.58,-13.21"/>
<polygon fill="#63b8ff" stroke="#63b8ff" points="216.38,-16.73 226.19,-12.74 216.03,-9.73 216.38,-16.73"/>
</a>
</g>
</g>
<!-- Node6 -->
<g id="Node000006" class="node">
<title>Node6</title>
<g id="a_Node000006"><a xlink:href="step__internal_8h.html" target="_top" xlink:title=" ">
<polygon fill="white" stroke="#666666" points="321.88,-191 233.12,-191 233.12,-170.25 321.88,-170.25 321.88,-191"/>
<text xml:space="preserve" text-anchor="middle" x="277.5" y="-177.5" font-family="Helvetica,sans-Serif" font-size="10.00">step_internal.h</text>
</a>
</g>
</g>
<!-- Node5&#45;&gt;Node6 -->
<g id="edge5_Node000005_Node000006" class="edge">
<title>Node5&#45;&gt;Node6</title>
<g id="a_edge5_Node000005_Node000006"><a xlink:title=" ">
<path fill="none" stroke="#63b8ff" d="M214.27,-226.59C225.43,-218.65 241.42,-207.28 254.52,-197.96"/>
<polygon fill="#63b8ff" stroke="#63b8ff" points="256.5,-200.85 262.62,-192.21 252.44,-195.15 256.5,-200.85"/>
</a>
</g>
</g>
<!-- Node6&#45;&gt;Node3 -->
<g id="edge8_Node000006_Node000003" class="edge">
<title>Node6&#45;&gt;Node3</title>
<g id="a_edge8_Node000006_Node000003"><a xlink:title=" ">
<path fill="none" stroke="#63b8ff" d="M244.69,-169.83C219.78,-161.81 185.07,-149.34 156.5,-134.25 129.73,-120.11 101.67,-99.5 83.26,-85.06"/>
<polygon fill="#63b8ff" stroke="#63b8ff" points="85.51,-82.38 75.51,-78.89 81.15,-87.86 85.51,-82.38"/>
</a>
</g>
</g>
<!-- Node7 -->
<g id="Node000007" class="node">
<title>Node7</title>
<g id="a_Node000007"><a xlink:title=" ">
<polygon fill="#e0e0e0" stroke="#999999" points="386.88,-77.5 334.12,-77.5 334.12,-56.75 386.88,-56.75 386.88,-77.5"/>
<text xml:space="preserve" text-anchor="middle" x="360.5" y="-64" font-family="Helvetica,sans-Serif" font-size="10.00">stdint.h</text>
</a>
</g>
</g>
<!-- Node6&#45;&gt;Node7 -->
<g id="edge6_Node000006_Node000007" class="edge">
<title>Node6&#45;&gt;Node7</title>
<g id="a_edge6_Node000006_Node000007"><a xlink:title=" ">
<path fill="none" stroke="#63b8ff" d="M278.48,-169.79C280.27,-156.06 285.09,-130.87 297.5,-113.5 306.19,-101.33 319.18,-91.19 331.11,-83.6"/>
<polygon fill="#63b8ff" stroke="#63b8ff" points="332.67,-86.74 339.47,-78.61 329.08,-80.73 332.67,-86.74"/>
</a>
</g>
</g>
<!-- Node8 -->
<g id="Node000008" class="node">
<title>Node8</title>
<g id="a_Node000008"><a xlink:title=" ">
<polygon fill="#e0e0e0" stroke="#999999" points="367,-134.25 306,-134.25 306,-113.5 367,-113.5 367,-134.25"/>
<text xml:space="preserve" text-anchor="middle" x="336.5" y="-120.75" font-family="Helvetica,sans-Serif" font-size="10.00">stdbool.h</text>
</a>
</g>
</g>
<!-- Node6&#45;&gt;Node8 -->
<g id="edge7_Node000006_Node000008" class="edge">
<title>Node6&#45;&gt;Node8</title>
<g id="a_edge7_Node000006_Node000008"><a xlink:title=" ">
<path fill="none" stroke="#63b8ff" d="M288.05,-169.84C296.27,-162.21 307.9,-151.42 317.7,-142.32"/>
<polygon fill="#63b8ff" stroke="#63b8ff" points="319.98,-144.98 324.93,-135.61 315.22,-139.84 319.98,-144.98"/>
</a>
</g>
</g>
<!-- Node9 -->
<g id="Node000009" class="node">
<title>Node9</title>
<g id="a_Node000009"><a xlink:title=" ">
<polygon fill="#e0e0e0" stroke="#999999" points="440,-134.25 385,-134.25 385,-113.5 440,-113.5 440,-134.25"/>
<text xml:space="preserve" text-anchor="middle" x="412.5" y="-120.75" font-family="Helvetica,sans-Serif" font-size="10.00">queue.h</text>
</a>
</g>
</g>
<!-- Node6&#45;&gt;Node9 -->
<g id="edge9_Node000006_Node000009" class="edge">
<title>Node6&#45;&gt;Node9</title>
<g id="a_edge9_Node000006_Node000009"><a xlink:title=" ">
<path fill="none" stroke="#63b8ff" d="M301.64,-169.84C322.94,-161.19 354.25,-148.5 378.17,-138.8"/>
<polygon fill="#63b8ff" stroke="#63b8ff" points="379.22,-142.15 387.17,-135.15 376.59,-135.66 379.22,-142.15"/>
</a>
</g>
</g>
<!-- Node10 -->
<g id="Node000010" class="node">
<title>Node10</title>
<g id="a_Node000010"><a xlink:href="cmd__handle_8h.html" target="_top" xlink:title=" ">
<polygon fill="white" stroke="#666666" points="249.62,-134.25 165.38,-134.25 165.38,-113.5 249.62,-113.5 249.62,-134.25"/>
<text xml:space="preserve" text-anchor="middle" x="207.5" y="-120.75" font-family="Helvetica,sans-Serif" font-size="10.00">cmd_handle.h</text>
</a>
</g>
</g>
<!-- Node6&#45;&gt;Node10 -->
<g id="edge10_Node000006_Node000010" class="edge">
<title>Node6&#45;&gt;Node10</title>
<g id="a_edge10_Node000006_Node000010"><a xlink:title=" ">
<path fill="none" stroke="#63b8ff" d="M264.99,-169.84C254.93,-161.97 240.59,-150.75 228.74,-141.49"/>
<polygon fill="#63b8ff" stroke="#63b8ff" points="231.13,-138.91 221.1,-135.51 226.82,-144.43 231.13,-138.91"/>
</a>
</g>
</g>
<!-- Node13 -->
<g id="Node000013" class="node">
<title>Node13</title>
<g id="a_Node000013"><a xlink:href="step__shared_8h.html" target="_top" xlink:title=" ">
<polygon fill="white" stroke="#666666" points="639.62,-134.25 555.38,-134.25 555.38,-113.5 639.62,-113.5 639.62,-134.25"/>
<text xml:space="preserve" text-anchor="middle" x="597.5" y="-120.75" font-family="Helvetica,sans-Serif" font-size="10.00">step_shared.h</text>
</a>
</g>
</g>
<!-- Node6&#45;&gt;Node13 -->
<g id="edge16_Node000006_Node000013" class="edge">
<title>Node6&#45;&gt;Node13</title>
<g id="a_edge16_Node000006_Node000013"><a xlink:title=" ">
<path fill="none" stroke="#63b8ff" d="M322.33,-171.95C380.46,-162.01 481.75,-144.68 543.88,-134.05"/>
<polygon fill="#63b8ff" stroke="#63b8ff" points="544.25,-137.54 553.52,-132.4 543.07,-130.64 544.25,-137.54"/>
</a>
</g>
</g>
<!-- Node10&#45;&gt;Node3 -->
<g id="edge12_Node000010_Node000003" class="edge">
<title>Node10&#45;&gt;Node3</title>
<g id="a_edge12_Node000010_Node000003"><a xlink:title=" ">
<path fill="none" stroke="#63b8ff" d="M181.58,-113.09C158.48,-104.37 124.46,-91.52 98.68,-81.79"/>
<polygon fill="#63b8ff" stroke="#63b8ff" points="100.21,-78.62 89.61,-78.36 97.73,-85.17 100.21,-78.62"/>
</a>
</g>
</g>
<!-- Node10&#45;&gt;Node4 -->
<g id="edge14_Node000010_Node000004" class="edge">
<title>Node10&#45;&gt;Node4</title>
<g id="a_edge14_Node000010_Node000004"><a xlink:title=" ">
<path fill="none" stroke="#63b8ff" d="M186.73,-113.09C163.56,-100.79 131.2,-78.64 146.5,-56.75 162.34,-34.08 190.79,-22.7 216.45,-17"/>
<polygon fill="#63b8ff" stroke="#63b8ff" points="216.98,-20.47 226.12,-15.12 215.64,-13.6 216.98,-20.47"/>
</a>
</g>
</g>
<!-- Node10&#45;&gt;Node7 -->
<g id="edge11_Node000010_Node000007" class="edge">
<title>Node10&#45;&gt;Node7</title>
<g id="a_edge11_Node000010_Node000007"><a xlink:title=" ">
<path fill="none" stroke="#63b8ff" d="M234.85,-113.09C259.41,-104.3 295.67,-91.32 322.94,-81.57"/>
<polygon fill="#63b8ff" stroke="#63b8ff" points="323.98,-84.91 332.22,-78.25 321.62,-78.32 323.98,-84.91"/>
</a>
</g>
</g>
<!-- Node11 -->
<g id="Node000011" class="node">
<title>Node11</title>
<g id="a_Node000011"><a xlink:title=" ">
<polygon fill="#e0e0e0" stroke="#999999" points="246,-77.5 155,-77.5 155,-56.75 246,-56.75 246,-77.5"/>
<text xml:space="preserve" text-anchor="middle" x="200.5" y="-64" font-family="Helvetica,sans-Serif" font-size="10.00">event_groups.h</text>
</a>
</g>
</g>
<!-- Node10&#45;&gt;Node11 -->
<g id="edge13_Node000010_Node000011" class="edge">
<title>Node10&#45;&gt;Node11</title>
<g id="a_edge13_Node000010_Node000011"><a xlink:title=" ">
<path fill="none" stroke="#63b8ff" d="M206.25,-113.09C205.39,-106.39 204.23,-97.26 203.17,-88.98"/>
<polygon fill="#63b8ff" stroke="#63b8ff" points="206.67,-88.81 201.93,-79.33 199.73,-89.69 206.67,-88.81"/>
</a>
</g>
</g>
<!-- Node12 -->
<g id="Node000012" class="node">
<title>Node12</title>
<g id="a_Node000012"><a xlink:title=" ">
<polygon fill="#e0e0e0" stroke="#999999" points="316.5,-77.5 264.5,-77.5 264.5,-56.75 316.5,-56.75 316.5,-77.5"/>
<text xml:space="preserve" text-anchor="middle" x="290.5" y="-64" font-family="Helvetica,sans-Serif" font-size="10.00">stdlib.h</text>
</a>
</g>
</g>
<!-- Node10&#45;&gt;Node12 -->
<g id="edge15_Node000010_Node000012" class="edge">
<title>Node10&#45;&gt;Node12</title>
<g id="a_edge15_Node000010_Node000012"><a xlink:title=" ">
<path fill="none" stroke="#63b8ff" d="M222.34,-113.09C234.61,-104.99 252.29,-93.33 266.56,-83.92"/>
<polygon fill="#63b8ff" stroke="#63b8ff" points="268.11,-87.09 274.53,-78.66 264.25,-81.25 268.11,-87.09"/>
</a>
</g>
</g>
<!-- Node13&#45;&gt;Node4 -->
<g id="edge22_Node000013_Node000004" class="edge">
<title>Node13&#45;&gt;Node4</title>
<g id="a_edge22_Node000013_Node000004"><a xlink:title=" ">
<path fill="none" stroke="#63b8ff" d="M555.17,-113.99C521.52,-106.26 473.61,-93.75 433.5,-77.5 415.66,-70.28 413.04,-64.67 395.5,-56.75 368.4,-44.52 336.94,-33.11 312.35,-24.79"/>
<polygon fill="#63b8ff" stroke="#63b8ff" points="313.61,-21.52 303.02,-21.68 311.4,-28.16 313.61,-21.52"/>
</a>
</g>
</g>
<!-- Node13&#45;&gt;Node7 -->
<g id="edge17_Node000013_Node000007" class="edge">
<title>Node13&#45;&gt;Node7</title>
<g id="a_edge17_Node000013_Node000007"><a xlink:title=" ">
<path fill="none" stroke="#63b8ff" d="M555.22,-113.19C515.32,-104.03 453.83,-89.89 400.5,-77.5 399.69,-77.31 398.88,-77.12 398.05,-76.93"/>
<polygon fill="#63b8ff" stroke="#63b8ff" points="399.18,-73.6 388.65,-74.74 397.59,-80.42 399.18,-73.6"/>
</a>
</g>
</g>
<!-- Node14 -->
<g id="Node000014" class="node">
<title>Node14</title>
<g id="a_Node000014"><a xlink:href="pca9555a_8h.html" target="_top" xlink:title=" ">
<polygon fill="white" stroke="#666666" points="596.5,-77.5 442.5,-77.5 442.5,-56.75 596.5,-56.75 596.5,-77.5"/>
<text xml:space="preserve" text-anchor="middle" x="519.5" y="-64" font-family="Helvetica,sans-Serif" font-size="10.00">driver/pca9555a/pca9555a.h</text>
</a>
</g>
</g>
<!-- Node13&#45;&gt;Node14 -->
<g id="edge18_Node000013_Node000014" class="edge">
<title>Node13&#45;&gt;Node14</title>
<g id="a_edge18_Node000013_Node000014"><a xlink:title=" ">
<path fill="none" stroke="#63b8ff" d="M583.56,-113.09C572.13,-105.07 555.73,-93.56 542.39,-84.19"/>
<polygon fill="#63b8ff" stroke="#63b8ff" points="544.76,-81.58 534.56,-78.7 540.74,-87.31 544.76,-81.58"/>
</a>
</g>
</g>
<!-- Node16 -->
<g id="Node000016" class="node">
<title>Node16</title>
<g id="a_Node000016"><a xlink:title=" ">
<polygon fill="#e0e0e0" stroke="#999999" points="736.75,-77.5 614.25,-77.5 614.25,-56.75 736.75,-56.75 736.75,-77.5"/>
<text xml:space="preserve" text-anchor="middle" x="675.5" y="-64" font-family="Helvetica,sans-Serif" font-size="10.00">fsl_device_registers.h</text>
</a>
</g>
</g>
<!-- Node13&#45;&gt;Node16 -->
<g id="edge21_Node000013_Node000016" class="edge">
<title>Node13&#45;&gt;Node16</title>
<g id="a_edge21_Node000013_Node000016"><a xlink:title=" ">
<path fill="none" stroke="#63b8ff" d="M611.44,-113.09C622.87,-105.07 639.27,-93.56 652.61,-84.19"/>
<polygon fill="#63b8ff" stroke="#63b8ff" points="654.26,-87.31 660.44,-78.7 650.24,-81.58 654.26,-87.31"/>
</a>
</g>
</g>
<!-- Node17 -->
<g id="Node000017" class="node">
<title>Node17</title>
<g id="a_Node000017"><a xlink:title=" ">
<polygon fill="#e0e0e0" stroke="#999999" points="813.88,-77.5 755.12,-77.5 755.12,-56.75 813.88,-56.75 813.88,-77.5"/>
<text xml:space="preserve" text-anchor="middle" x="784.5" y="-64" font-family="Helvetica,sans-Serif" font-size="10.00">fsl_ftm.h</text>
</a>
</g>
</g>
<!-- Node13&#45;&gt;Node17 -->
<g id="edge23_Node000013_Node000017" class="edge">
<title>Node13&#45;&gt;Node17</title>
<g id="a_edge23_Node000013_Node000017"><a xlink:title=" ">
<path fill="none" stroke="#63b8ff" d="M630.93,-113.09C662.55,-103.83 710.06,-89.92 743.86,-80.02"/>
<polygon fill="#63b8ff" stroke="#63b8ff" points="744.68,-83.43 753.3,-77.26 742.72,-76.71 744.68,-83.43"/>
</a>
</g>
</g>
<!-- Node18 -->
<g id="Node000018" class="node">
<title>Node18</title>
<g id="a_Node000018"><a xlink:title=" ">
<polygon fill="#e0e0e0" stroke="#999999" points="895.12,-77.5 831.88,-77.5 831.88,-56.75 895.12,-56.75 895.12,-77.5"/>
<text xml:space="preserve" text-anchor="middle" x="863.5" y="-64" font-family="Helvetica,sans-Serif" font-size="10.00">fsl_gpio.h</text>
</a>
</g>
</g>
<!-- Node13&#45;&gt;Node18 -->
<g id="edge24_Node000013_Node000018" class="edge">
<title>Node13&#45;&gt;Node18</title>
<g id="a_edge24_Node000013_Node000018"><a xlink:title=" ">
<path fill="none" stroke="#63b8ff" d="M639.87,-114.67C682.85,-106.27 751.57,-92.63 820.65,-77.85"/>
<polygon fill="#63b8ff" stroke="#63b8ff" points="821.21,-81.31 830.25,-75.79 819.74,-74.47 821.21,-81.31"/>
</a>
</g>
</g>
<!-- Node19 -->
<g id="Node000019" class="node">
<title>Node19</title>
<g id="a_Node000019"><a xlink:title=" ">
<polygon fill="#e0e0e0" stroke="#999999" points="975.38,-77.5 913.62,-77.5 913.62,-56.75 975.38,-56.75 975.38,-77.5"/>
<text xml:space="preserve" text-anchor="middle" x="944.5" y="-64" font-family="Helvetica,sans-Serif" font-size="10.00">fsl_port.h</text>
</a>
</g>
</g>
<!-- Node13&#45;&gt;Node19 -->
<g id="edge25_Node000013_Node000019" class="edge">
<title>Node13&#45;&gt;Node19</title>
<g id="a_edge25_Node000013_Node000019"><a xlink:title=" ">
<path fill="none" stroke="#63b8ff" d="M639.9,-117.75C697.15,-110.57 802.59,-96.48 902.35,-77.77"/>
<polygon fill="#63b8ff" stroke="#63b8ff" points="902.89,-81.23 912.06,-75.93 901.58,-74.36 902.89,-81.23"/>
</a>
</g>
</g>
<!-- Node14&#45;&gt;Node4 -->
<g id="edge19_Node000014_Node000004" class="edge">
<title>Node14&#45;&gt;Node4</title>
<g id="a_edge19_Node000014_Node000004"><a xlink:title=" ">
<path fill="none" stroke="#63b8ff" d="M474.7,-56.27C432.49,-46.99 369.2,-33.08 324.28,-23.2"/>
<polygon fill="#63b8ff" stroke="#63b8ff" points="325.28,-19.84 314.76,-21.11 323.77,-26.67 325.28,-19.84"/>
</a>
</g>
</g>
<!-- Node15 -->
<g id="Node000015" class="node">
<title>Node15</title>
<g id="a_Node000015"><a xlink:title=" ">
<polygon fill="#e0e0e0" stroke="#999999" points="559.38,-20.75 479.62,-20.75 479.62,0 559.38,0 559.38,-20.75"/>
<text xml:space="preserve" text-anchor="middle" x="519.5" y="-7.25" font-family="Helvetica,sans-Serif" font-size="10.00">peripherals.h</text>
</a>
</g>
</g>
<!-- Node14&#45;&gt;Node15 -->
<g id="edge20_Node000014_Node000015" class="edge">
<title>Node14&#45;&gt;Node15</title>
<g id="a_edge20_Node000014_Node000015"><a xlink:title=" ">
<path fill="none" stroke="#63b8ff" d="M519.5,-56.34C519.5,-49.72 519.5,-40.72 519.5,-32.52"/>
<polygon fill="#63b8ff" stroke="#63b8ff" points="523,-32.59 519.5,-22.59 516,-32.59 523,-32.59"/>
</a>
</g>
</g>
</g>
</svg>
