<?xml version="1.0" encoding="UTF-8" standalone="no"?>
<!DOCTYPE svg PUBLIC "-//W3C//DTD SVG 1.1//EN"
 "http://www.w3.org/Graphics/SVG/1.1/DTD/svg11.dtd">
<!-- Generated by graphviz version 14.1.4 (0)
 -->
<!-- Title: source/motion/stepper/step_core.c Pages: 1 -->
<!--zoomable 325 -->

<svg id="main" version="1.1" xmlns="http://www.w3.org/2000/svg" xmlns:xlink="http://www.w3.org/1999/xlink" xml:space="preserve" onload="init(evt)">

<style type="text/css"><![CDATA[
.node, .edge {opacity: 0.7;}
.node.selected, .edge.selected {opacity: 1;}
.edge:hover path { stroke: red; }
.edge:hover polygon { stroke: red; fill: red; }
]]></style>

<defs>
  <circle id="rim" cx="0" cy="0" r="7"/>
  <circle id="rim2" cx="0" cy="0" r="3.5"/>
  <g id="zoomPlus">
    <use xlink:href="#rim" fill="#404040"><set attributeName="fill" to="#808080" begin="zoomplus.mouseover" end="zoomplus.mouseout"/></use>
    <path d="M-4,0h8M0,-4v8" fill="none" stroke="white" stroke-width="1.5" pointer-events="none"/>
  </g>
  <g id="zoomMin">
    <use xlink:href="#rim" fill="#404040"><set attributeName="fill" to="#808080" begin="zoomminus.mouseover" end="zoomminus.mouseout"/></use>
    <path d="M-4,0h8" fill="none" stroke="white" stroke-width="1.5" pointer-events="none"/>
  </g>
  <g id="arrowUp" transform="translate(30 24)">
    <use xlink:href="#rim"/>
    <path pointer-events="none" fill="none" stroke="white" stroke-width="1.5" d="M0,-3.0v7 M-2.5,-0.5L0,-3.0L2.5,-0.5"/>
  </g>
  <g id="arrowRight" transform="rotate(90) translate(36 -43)">
    <use xlink:href="#rim"/>
    <path pointer-events="none" fill="none" stroke="white" stroke-width="1.5" d="M0,-3.0v7 M-2.5,-0.5L0,-3.0L2.5,-0.5"/>
  </g>
  <g id="arrowDown" transform="rotate(180) translate(-30 -48)">
    <use xlink:href="#rim"/>
    <path pointer-events="none" fill="none" stroke="white" stroke-width="1.5" d="M0,-3.0v7 M-2.5,-0.5L0,-3.0L2.5,-0.5"/>
  </g>
  <g id="arrowLeft" transform="rotate(270) translate(-36 17)">
    <use xlink:href="#rim"/>
    <path pointer-events="none" fill="none" stroke="white" stroke-width="1.5" d="M0,-3.0v7 M-2.5,-0.5L0,-3.0L2.5,-0.5"/>
  </g>
  <g id="resetDef">
    <use xlink:href="#rim2" fill="#404040"><set attributeName="fill" to="#808080" begin="reset.mouseover" end="reset.mouseout"/></use>
  </g>
</defs>
<script type="application/ecmascript">
var viewWidth = 1037;
var viewHeight = 325;
var sectionId = 'dynsection-0';
</script>
<script type="application/ecmascript" xlink:href="svg.min.js"/>
<svg id="graph" class="graph">
<g id="viewport">
<title>source/motion/stepper/step_core.c</title>
<!-- Node1 -->
<g id="Node000001" class="node">
<title>Node1</title>
<g id="a_Node000001"><a xlink:title=" ">
<polygon fill="#999999" stroke="#666666" points="705.81,-317.25 580.31,-317.25 580.31,-283.75 705.81,-283.75 705.81,-317.25"/>
<text xml:space="preserve" text-anchor="start" x="588.31" y="-303.75" font-family="Helvetica,sans-Serif" font-size="10.00">source/motion/stepper</text>
<text xml:space="preserve" text-anchor="middle" x="643.06" y="-291" font-family="Helvetica,sans-Serif" font-size="10.00">/step_core.c</text>
</a>
</g>
</g>
<!-- Node2 -->
<g id="Node000002" class="node">
<title>Node2</title>
<g id="a_Node000002"><a xlink:href="step__core_8h.html" target="_top" xlink:title=" ">
<polygon fill="white" stroke="#666666" points="442.18,-191 369.93,-191 369.93,-170.25 442.18,-170.25 442.18,-191"/>
<text xml:space="preserve" text-anchor="middle" x="406.06" y="-177.5" font-family="Helvetica,sans-Serif" font-size="10.00">step_core.h</text>
</a>
</g>
</g>
<!-- Node1&#45;&gt;Node2 -->
<g id="edge1_Node000001_Node000002" class="edge">
<title>Node1&#45;&gt;Node2</title>
<g id="a_edge1_Node000001_Node000002"><a xlink:title=" ">
<path fill="none" stroke="#63b8ff" d="M610.6,-283.36C564.46,-260.41 480.54,-218.67 435.89,-196.46"/>
<polygon fill="#63b8ff" stroke="#63b8ff" points="437.55,-193.38 427.04,-192.06 434.43,-199.65 437.55,-193.38"/>
</a>
</g>
</g>
<!-- Node4 -->
<g id="Node000004" class="node">
<title>Node4</title>
<g id="a_Node000004"><a xlink:title=" ">
<polygon fill="#e0e0e0" stroke="#999999" points="423.56,-20.75 338.56,-20.75 338.56,0 423.56,0 423.56,-20.75"/>
<text xml:space="preserve" text-anchor="middle" x="381.06" y="-7.25" font-family="Helvetica,sans-Serif" font-size="10.00">fsl_common.h</text>
</a>
</g>
</g>
<!-- Node1&#45;&gt;Node4 -->
<g id="edge29_Node000001_Node000004" class="edge">
<title>Node1&#45;&gt;Node4</title>
<g id="a_edge29_Node000001_Node000004"><a xlink:title=" ">
<path fill="none" stroke="#63b8ff" d="M580.04,-294.52C418.28,-280.9 1.06,-240.09 1.06,-181.62 1.06,-181.62 1.06,-181.62 1.06,-122.88 1.06,-92.3 -3.17,-76.64 20.06,-56.75 42.92,-37.18 231.76,-21.6 326.82,-14.92"/>
<polygon fill="#63b8ff" stroke="#63b8ff" points="326.96,-18.42 336.7,-14.23 326.48,-11.43 326.96,-18.42"/>
</a>
</g>
</g>
<!-- Node8 -->
<g id="Node000008" class="node">
<title>Node8</title>
<g id="a_Node000008"><a xlink:title=" ">
<polygon fill="#e0e0e0" stroke="#999999" points="637.43,-77.5 578.68,-77.5 578.68,-56.75 637.43,-56.75 637.43,-77.5"/>
<text xml:space="preserve" text-anchor="middle" x="608.06" y="-64" font-family="Helvetica,sans-Serif" font-size="10.00">fsl_ftm.h</text>
</a>
</g>
</g>
<!-- Node1&#45;&gt;Node8 -->
<g id="edge30_Node000001_Node000008" class="edge">
<title>Node1&#45;&gt;Node8</title>
<g id="a_edge30_Node000001_Node000008"><a xlink:title=" ">
<path fill="none" stroke="#63b8ff" d="M636.78,-283.43C633.08,-273.34 628.64,-259.96 626.06,-247.75 614.08,-191.2 610.02,-122.9 608.68,-89.13"/>
<polygon fill="#63b8ff" stroke="#63b8ff" points="612.19,-89.36 608.35,-79.49 605.2,-89.6 612.19,-89.36"/>
</a>
</g>
</g>
<!-- Node17 -->
<g id="Node000017" class="node">
<title>Node17</title>
<g id="a_Node000017"><a xlink:href="step__internal_8h.html" target="_top" xlink:title=" ">
<polygon fill="white" stroke="#666666" points="795.43,-191 706.68,-191 706.68,-170.25 795.43,-170.25 795.43,-191"/>
<text xml:space="preserve" text-anchor="middle" x="751.06" y="-177.5" font-family="Helvetica,sans-Serif" font-size="10.00">step_internal.h</text>
</a>
</g>
</g>
<!-- Node1&#45;&gt;Node17 -->
<g id="edge24_Node000001_Node000017" class="edge">
<title>Node1&#45;&gt;Node17</title>
<g id="a_edge24_Node000001_Node000017"><a xlink:title=" ">
<path fill="none" stroke="#63b8ff" d="M685.09,-283.34C701.84,-274.99 719.97,-263.26 732.06,-247.75 742.18,-234.77 746.91,-216.6 749.12,-202.59"/>
<polygon fill="#63b8ff" stroke="#63b8ff" points="752.59,-203.02 750.34,-192.67 745.64,-202.16 752.59,-203.02"/>
</a>
</g>
</g>
<!-- Node19 -->
<g id="Node000019" class="node">
<title>Node19</title>
<g id="a_Node000019"><a xlink:href="step__process_8h.html" target="_top" xlink:title=" ">
<polygon fill="white" stroke="#666666" points="723.43,-247.75 634.68,-247.75 634.68,-227 723.43,-227 723.43,-247.75"/>
<text xml:space="preserve" text-anchor="middle" x="679.06" y="-234.25" font-family="Helvetica,sans-Serif" font-size="10.00">step_process.h</text>
</a>
</g>
</g>
<!-- Node1&#45;&gt;Node19 -->
<g id="edge31_Node000001_Node000019" class="edge">
<title>Node1&#45;&gt;Node19</title>
<g id="a_edge31_Node000001_Node000019"><a xlink:title=" ">
<path fill="none" stroke="#63b8ff" d="M652.52,-283.44C657.09,-275.67 662.63,-266.27 667.46,-258.07"/>
<polygon fill="#63b8ff" stroke="#63b8ff" points="670.43,-259.91 672.49,-249.52 664.4,-256.36 670.43,-259.91"/>
</a>
</g>
</g>
<!-- Node20 -->
<g id="Node000020" class="node">
<title>Node20</title>
<g id="a_Node000020"><a xlink:href="log_8h.html" target="_top" xlink:title=" ">
<polygon fill="white" stroke="#666666" points="1001.06,-134.25 961.06,-134.25 961.06,-113.5 1001.06,-113.5 1001.06,-134.25"/>
<text xml:space="preserve" text-anchor="middle" x="981.06" y="-120.75" font-family="Helvetica,sans-Serif" font-size="10.00">log.h</text>
</a>
</g>
</g>
<!-- Node1&#45;&gt;Node20 -->
<g id="edge33_Node000001_Node000020" class="edge">
<title>Node1&#45;&gt;Node20</title>
<g id="a_edge33_Node000001_Node000020"><a xlink:title=" ">
<path fill="none" stroke="#63b8ff" d="M677.78,-283.34C699.05,-273.32 726.76,-260.05 751.06,-247.75 824.78,-210.42 910.3,-163.85 953.32,-140.2"/>
<polygon fill="#63b8ff" stroke="#63b8ff" points="954.91,-143.32 961.98,-135.43 951.53,-137.19 954.91,-143.32"/>
</a>
</g>
</g>
<!-- Node3 -->
<g id="Node000003" class="node">
<title>Node3</title>
<g id="a_Node000003"><a xlink:href="pca9555a_8h.html" target="_top" xlink:title=" ">
<polygon fill="white" stroke="#666666" points="183.06,-77.5 29.06,-77.5 29.06,-56.75 183.06,-56.75 183.06,-77.5"/>
<text xml:space="preserve" text-anchor="middle" x="106.06" y="-64" font-family="Helvetica,sans-Serif" font-size="10.00">driver/pca9555a/pca9555a.h</text>
</a>
</g>
</g>
<!-- Node2&#45;&gt;Node3 -->
<g id="edge2_Node000002_Node000003" class="edge">
<title>Node2&#45;&gt;Node3</title>
<g id="a_edge2_Node000002_Node000003"><a xlink:title=" ">
<path fill="none" stroke="#63b8ff" d="M369.58,-178.26C302.66,-175.02 163.84,-164.74 128.06,-134.25 114.96,-123.09 109.63,-103.93 107.47,-89.1"/>
<polygon fill="#63b8ff" stroke="#63b8ff" points="110.98,-89.02 106.46,-79.43 104.02,-89.74 110.98,-89.02"/>
</a>
</g>
</g>
<!-- Node2&#45;&gt;Node4 -->
<g id="edge7_Node000002_Node000004" class="edge">
<title>Node2&#45;&gt;Node4</title>
<g id="a_edge7_Node000002_Node000004"><a xlink:title=" ">
<path fill="none" stroke="#63b8ff" d="M369.72,-170.55C327.33,-157.77 259.32,-129.94 230.06,-77.5 207.25,-36.64 275.17,-21 327.23,-15.03"/>
<polygon fill="#63b8ff" stroke="#63b8ff" points="327.3,-18.54 336.89,-14.03 326.58,-11.58 327.3,-18.54"/>
</a>
</g>
</g>
<!-- Node6 -->
<g id="Node000006" class="node">
<title>Node6</title>
<g id="a_Node000006"><a xlink:title=" ">
<polygon fill="#e0e0e0" stroke="#999999" points="1014.81,-77.5 943.31,-77.5 943.31,-56.75 1014.81,-56.75 1014.81,-77.5"/>
<text xml:space="preserve" text-anchor="middle" x="979.06" y="-64" font-family="Helvetica,sans-Serif" font-size="10.00">FreeRTOS.h</text>
</a>
</g>
</g>
<!-- Node2&#45;&gt;Node6 -->
<g id="edge5_Node000002_Node000006" class="edge">
<title>Node2&#45;&gt;Node6</title>
<g id="a_edge5_Node000002_Node000006"><a xlink:title=" ">
<path fill="none" stroke="#63b8ff" d="M442.48,-179.94C513.38,-179.59 674.2,-174.02 802.06,-134.25 820.81,-128.42 823,-121.21 841.06,-113.5 870.93,-100.76 905.66,-89.35 932.81,-81.17"/>
<polygon fill="#63b8ff" stroke="#63b8ff" points="933.52,-84.6 942.11,-78.4 931.53,-77.89 933.52,-84.6"/>
</a>
</g>
</g>
<!-- Node7 -->
<g id="Node000007" class="node">
<title>Node7</title>
<g id="a_Node000007"><a xlink:title=" ">
<polygon fill="#e0e0e0" stroke="#999999" points="183.06,-134.25 137.06,-134.25 137.06,-113.5 183.06,-113.5 183.06,-134.25"/>
<text xml:space="preserve" text-anchor="middle" x="160.06" y="-120.75" font-family="Helvetica,sans-Serif" font-size="10.00">task.h</text>
</a>
</g>
</g>
<!-- Node2&#45;&gt;Node7 -->
<g id="edge6_Node000002_Node000007" class="edge">
<title>Node2&#45;&gt;Node7</title>
<g id="a_edge6_Node000002_Node000007"><a xlink:title=" ">
<path fill="none" stroke="#63b8ff" d="M369.73,-172.13C327.97,-163.43 257.42,-148.44 197.06,-134.25 196.23,-134.06 195.4,-133.86 194.56,-133.66"/>
<polygon fill="#63b8ff" stroke="#63b8ff" points="195.53,-130.29 184.99,-131.31 193.86,-137.09 195.53,-130.29"/>
</a>
</g>
</g>
<!-- Node2&#45;&gt;Node8 -->
<g id="edge8_Node000002_Node000008" class="edge">
<title>Node2&#45;&gt;Node8</title>
<g id="a_edge8_Node000002_Node000008"><a xlink:title=" ">
<path fill="none" stroke="#63b8ff" d="M425.53,-169.76C443.24,-160.72 470.05,-146.86 493.06,-134.25 523.71,-117.45 558.43,-97.33 581.63,-83.73"/>
<polygon fill="#63b8ff" stroke="#63b8ff" points="583.27,-86.83 590.11,-78.75 579.72,-80.8 583.27,-86.83"/>
</a>
</g>
</g>
<!-- Node9 -->
<g id="Node000009" class="node">
<title>Node9</title>
<g id="a_Node000009"><a xlink:title=" ">
<polygon fill="#e0e0e0" stroke="#999999" points="382.68,-77.5 319.43,-77.5 319.43,-56.75 382.68,-56.75 382.68,-77.5"/>
<text xml:space="preserve" text-anchor="middle" x="351.06" y="-64" font-family="Helvetica,sans-Serif" font-size="10.00">fsl_gpio.h</text>
</a>
</g>
</g>
<!-- Node2&#45;&gt;Node9 -->
<g id="edge9_Node000002_Node000009" class="edge">
<title>Node2&#45;&gt;Node9</title>
<g id="a_edge9_Node000002_Node000009"><a xlink:title=" ">
<path fill="none" stroke="#63b8ff" d="M401.37,-170.12C392.44,-152.02 372.84,-112.28 360.91,-88.1"/>
<polygon fill="#63b8ff" stroke="#63b8ff" points="364.12,-86.7 356.56,-79.28 357.85,-89.8 364.12,-86.7"/>
</a>
</g>
</g>
<!-- Node10 -->
<g id="Node000010" class="node">
<title>Node10</title>
<g id="a_Node000010"><a xlink:title=" ">
<polygon fill="#e0e0e0" stroke="#999999" points="300.93,-77.5 239.18,-77.5 239.18,-56.75 300.93,-56.75 300.93,-77.5"/>
<text xml:space="preserve" text-anchor="middle" x="270.06" y="-64" font-family="Helvetica,sans-Serif" font-size="10.00">fsl_port.h</text>
</a>
</g>
</g>
<!-- Node2&#45;&gt;Node10 -->
<g id="edge10_Node000002_Node000010" class="edge">
<title>Node2&#45;&gt;Node10</title>
<g id="a_edge10_Node000002_Node000010"><a xlink:title=" ">
<path fill="none" stroke="#63b8ff" d="M394.46,-170.12C371.49,-151.29 319.93,-109.01 290.91,-85.22"/>
<polygon fill="#63b8ff" stroke="#63b8ff" points="293.13,-82.52 283.18,-78.88 288.7,-87.93 293.13,-82.52"/>
</a>
</g>
</g>
<!-- Node11 -->
<g id="Node000011" class="node">
<title>Node11</title>
<g id="a_Node000011"><a xlink:href="cmd__handle_8h.html" target="_top" xlink:title=" ">
<polygon fill="white" stroke="#666666" points="793.18,-134.25 708.93,-134.25 708.93,-113.5 793.18,-113.5 793.18,-134.25"/>
<text xml:space="preserve" text-anchor="middle" x="751.06" y="-120.75" font-family="Helvetica,sans-Serif" font-size="10.00">cmd_handle.h</text>
</a>
</g>
</g>
<!-- Node2&#45;&gt;Node11 -->
<g id="edge11_Node000002_Node000011" class="edge">
<title>Node2&#45;&gt;Node11</title>
<g id="a_edge11_Node000002_Node000011"><a xlink:title=" ">
<path fill="none" stroke="#63b8ff" d="M442.65,-173.82C503.68,-164.13 626.51,-144.64 697.36,-133.4"/>
<polygon fill="#63b8ff" stroke="#63b8ff" points="697.86,-136.86 707.19,-131.84 696.77,-129.95 697.86,-136.86"/>
</a>
</g>
</g>
<!-- Node15 -->
<g id="Node000015" class="node">
<title>Node15</title>
<g id="a_Node000015"><a xlink:href="step__shared_8h.html" target="_top" xlink:title=" ">
<polygon fill="white" stroke="#666666" points="484.18,-134.25 399.93,-134.25 399.93,-113.5 484.18,-113.5 484.18,-134.25"/>
<text xml:space="preserve" text-anchor="middle" x="442.06" y="-120.75" font-family="Helvetica,sans-Serif" font-size="10.00">step_shared.h</text>
</a>
</g>
</g>
<!-- Node2&#45;&gt;Node15 -->
<g id="edge17_Node000002_Node000015" class="edge">
<title>Node2&#45;&gt;Node15</title>
<g id="a_edge17_Node000002_Node000015"><a xlink:title=" ">
<path fill="none" stroke="#63b8ff" d="M412.49,-169.84C417.2,-162.67 423.74,-152.73 429.48,-144.01"/>
<polygon fill="#63b8ff" stroke="#63b8ff" points="432.28,-146.12 434.85,-135.84 426.43,-142.28 432.28,-146.12"/>
</a>
</g>
</g>
<!-- Node3&#45;&gt;Node4 -->
<g id="edge3_Node000003_Node000004" class="edge">
<title>Node3&#45;&gt;Node4</title>
<g id="a_edge3_Node000003_Node000004"><a xlink:title=" ">
<path fill="none" stroke="#63b8ff" d="M155.54,-56.27C203.89,-46.65 277.28,-32.04 327.1,-22.12"/>
<polygon fill="#63b8ff" stroke="#63b8ff" points="327.68,-25.57 336.81,-20.18 326.32,-18.7 327.68,-25.57"/>
</a>
</g>
</g>
<!-- Node5 -->
<g id="Node000005" class="node">
<title>Node5</title>
<g id="a_Node000005"><a xlink:title=" ">
<polygon fill="#e0e0e0" stroke="#999999" points="145.93,-20.75 66.18,-20.75 66.18,0 145.93,0 145.93,-20.75"/>
<text xml:space="preserve" text-anchor="middle" x="106.06" y="-7.25" font-family="Helvetica,sans-Serif" font-size="10.00">peripherals.h</text>
</a>
</g>
</g>
<!-- Node3&#45;&gt;Node5 -->
<g id="edge4_Node000003_Node000005" class="edge">
<title>Node3&#45;&gt;Node5</title>
<g id="a_edge4_Node000003_Node000005"><a xlink:title=" ">
<path fill="none" stroke="#63b8ff" d="M106.06,-56.34C106.06,-49.72 106.06,-40.72 106.06,-32.52"/>
<polygon fill="#63b8ff" stroke="#63b8ff" points="109.56,-32.59 106.06,-22.59 102.56,-32.59 109.56,-32.59"/>
</a>
</g>
</g>
<!-- Node11&#45;&gt;Node4 -->
<g id="edge15_Node000011_Node000004" class="edge">
<title>Node11&#45;&gt;Node4</title>
<g id="a_edge15_Node000011_Node000004"><a xlink:title=" ">
<path fill="none" stroke="#63b8ff" d="M793.47,-115.33C831.71,-107.56 883.76,-94.24 896.06,-77.5 901.52,-70.07 902.29,-63.55 896.06,-56.75 865.38,-23.25 561.2,-14.36 435.24,-12.1"/>
<polygon fill="#63b8ff" stroke="#63b8ff" points="435.55,-8.61 425.49,-11.94 435.43,-15.61 435.55,-8.61"/>
</a>
</g>
</g>
<!-- Node11&#45;&gt;Node6 -->
<g id="edge13_Node000011_Node000006" class="edge">
<title>Node11&#45;&gt;Node6</title>
<g id="a_edge13_Node000011_Node000006"><a xlink:title=" ">
<path fill="none" stroke="#63b8ff" d="M792.08,-113.02C831.34,-103.6 890.52,-89.39 931.75,-79.49"/>
<polygon fill="#63b8ff" stroke="#63b8ff" points="932.49,-82.91 941.4,-77.17 930.86,-76.1 932.49,-82.91"/>
</a>
</g>
</g>
<!-- Node12 -->
<g id="Node000012" class="node">
<title>Node12</title>
<g id="a_Node000012"><a xlink:title=" ">
<polygon fill="#e0e0e0" stroke="#999999" points="777.43,-77.5 724.68,-77.5 724.68,-56.75 777.43,-56.75 777.43,-77.5"/>
<text xml:space="preserve" text-anchor="middle" x="751.06" y="-64" font-family="Helvetica,sans-Serif" font-size="10.00">stdint.h</text>
</a>
</g>
</g>
<!-- Node11&#45;&gt;Node12 -->
<g id="edge12_Node000011_Node000012" class="edge">
<title>Node11&#45;&gt;Node12</title>
<g id="a_edge12_Node000011_Node000012"><a xlink:title=" ">
<path fill="none" stroke="#63b8ff" d="M751.06,-113.09C751.06,-106.47 751.06,-97.47 751.06,-89.27"/>
<polygon fill="#63b8ff" stroke="#63b8ff" points="754.56,-89.34 751.06,-79.34 747.56,-89.34 754.56,-89.34"/>
</a>
</g>
</g>
<!-- Node13 -->
<g id="Node000013" class="node">
<title>Node13</title>
<g id="a_Node000013"><a xlink:title=" ">
<polygon fill="#e0e0e0" stroke="#999999" points="886.56,-77.5 795.56,-77.5 795.56,-56.75 886.56,-56.75 886.56,-77.5"/>
<text xml:space="preserve" text-anchor="middle" x="841.06" y="-64" font-family="Helvetica,sans-Serif" font-size="10.00">event_groups.h</text>
</a>
</g>
</g>
<!-- Node11&#45;&gt;Node13 -->
<g id="edge14_Node000011_Node000013" class="edge">
<title>Node11&#45;&gt;Node13</title>
<g id="a_edge14_Node000011_Node000013"><a xlink:title=" ">
<path fill="none" stroke="#63b8ff" d="M767.15,-113.09C780.59,-104.91 799.99,-93.11 815.54,-83.65"/>
<polygon fill="#63b8ff" stroke="#63b8ff" points="817.09,-86.8 823.81,-78.62 813.45,-80.82 817.09,-86.8"/>
</a>
</g>
</g>
<!-- Node14 -->
<g id="Node000014" class="node">
<title>Node14</title>
<g id="a_Node000014"><a xlink:title=" ">
<polygon fill="#e0e0e0" stroke="#999999" points="707.06,-77.5 655.06,-77.5 655.06,-56.75 707.06,-56.75 707.06,-77.5"/>
<text xml:space="preserve" text-anchor="middle" x="681.06" y="-64" font-family="Helvetica,sans-Serif" font-size="10.00">stdlib.h</text>
</a>
</g>
</g>
<!-- Node11&#45;&gt;Node14 -->
<g id="edge16_Node000011_Node000014" class="edge">
<title>Node11&#45;&gt;Node14</title>
<g id="a_edge16_Node000011_Node000014"><a xlink:title=" ">
<path fill="none" stroke="#63b8ff" d="M738.54,-113.09C728.49,-105.22 714.14,-94 702.3,-84.74"/>
<polygon fill="#63b8ff" stroke="#63b8ff" points="704.69,-82.16 694.66,-78.76 700.38,-87.68 704.69,-82.16"/>
</a>
</g>
</g>
<!-- Node15&#45;&gt;Node3 -->
<g id="edge18_Node000015_Node000003" class="edge">
<title>Node15&#45;&gt;Node3</title>
<g id="a_edge18_Node000015_Node000003"><a xlink:title=" ">
<path fill="none" stroke="#63b8ff" d="M399.5,-115.94C343.63,-106.84 244.76,-90.73 177.36,-79.74"/>
<polygon fill="#63b8ff" stroke="#63b8ff" points="178.34,-76.36 167.91,-78.2 177.21,-83.27 178.34,-76.36"/>
</a>
</g>
</g>
<!-- Node15&#45;&gt;Node4 -->
<g id="edge20_Node000015_Node000004" class="edge">
<title>Node15&#45;&gt;Node4</title>
<g id="a_edge20_Node000015_Node000004"><a xlink:title=" ">
<path fill="none" stroke="#63b8ff" d="M476.53,-113.08C509.27,-101.98 550.92,-82.11 532.06,-56.75 509.9,-26.95 468.82,-15.99 435.09,-12.27"/>
<polygon fill="#63b8ff" stroke="#63b8ff" points="435.76,-8.82 425.49,-11.41 435.13,-15.79 435.76,-8.82"/>
</a>
</g>
</g>
<!-- Node15&#45;&gt;Node8 -->
<g id="edge21_Node000015_Node000008" class="edge">
<title>Node15&#45;&gt;Node8</title>
<g id="a_edge21_Node000015_Node000008"><a xlink:title=" ">
<path fill="none" stroke="#63b8ff" d="M471.73,-113.09C498.44,-104.28 537.93,-91.25 567.54,-81.49"/>
<polygon fill="#63b8ff" stroke="#63b8ff" points="568.52,-84.85 576.92,-78.39 566.33,-78.2 568.52,-84.85"/>
</a>
</g>
</g>
<!-- Node15&#45;&gt;Node9 -->
<g id="edge22_Node000015_Node000009" class="edge">
<title>Node15&#45;&gt;Node9</title>
<g id="a_edge22_Node000015_Node000009"><a xlink:title=" ">
<path fill="none" stroke="#63b8ff" d="M425.79,-113.09C412.2,-104.91 392.58,-93.11 376.86,-83.65"/>
<polygon fill="#63b8ff" stroke="#63b8ff" points="378.86,-80.77 368.48,-78.61 375.25,-86.76 378.86,-80.77"/>
</a>
</g>
</g>
<!-- Node15&#45;&gt;Node10 -->
<g id="edge23_Node000015_Node000010" class="edge">
<title>Node15&#45;&gt;Node10</title>
<g id="a_edge23_Node000015_Node000010"><a xlink:title=" ">
<path fill="none" stroke="#63b8ff" d="M411.31,-113.09C383.51,-104.24 342.36,-91.14 311.63,-81.36"/>
<polygon fill="#63b8ff" stroke="#63b8ff" points="312.86,-78.08 302.27,-78.38 310.74,-84.75 312.86,-78.08"/>
</a>
</g>
</g>
<!-- Node16 -->
<g id="Node000016" class="node">
<title>Node16</title>
<g id="a_Node000016"><a xlink:title=" ">
<polygon fill="#e0e0e0" stroke="#999999" points="523.31,-77.5 400.81,-77.5 400.81,-56.75 523.31,-56.75 523.31,-77.5"/>
<text xml:space="preserve" text-anchor="middle" x="462.06" y="-64" font-family="Helvetica,sans-Serif" font-size="10.00">fsl_device_registers.h</text>
</a>
</g>
</g>
<!-- Node15&#45;&gt;Node16 -->
<g id="edge19_Node000015_Node000016" class="edge">
<title>Node15&#45;&gt;Node16</title>
<g id="a_edge19_Node000015_Node000016"><a xlink:title=" ">
<path fill="none" stroke="#63b8ff" d="M445.63,-113.09C448.14,-106.24 451.57,-96.84 454.65,-88.4"/>
<polygon fill="#63b8ff" stroke="#63b8ff" points="457.85,-89.84 457.99,-79.25 451.27,-87.44 457.85,-89.84"/>
</a>
</g>
</g>
<!-- Node17&#45;&gt;Node6 -->
<g id="edge25_Node000017_Node000006" class="edge">
<title>Node17&#45;&gt;Node6</title>
<g id="a_edge25_Node000017_Node000006"><a xlink:title=" ">
<path fill="none" stroke="#63b8ff" d="M795.72,-173.63C829.95,-167.57 877.37,-155.88 914.06,-134.25 934.76,-122.04 953.42,-101.58 965.38,-86.65"/>
<polygon fill="#63b8ff" stroke="#63b8ff" points="967.97,-89.03 971.31,-78.97 962.43,-84.75 967.97,-89.03"/>
</a>
</g>
</g>
<!-- Node17&#45;&gt;Node11 -->
<g id="edge27_Node000017_Node000011" class="edge">
<title>Node17&#45;&gt;Node11</title>
<g id="a_edge27_Node000017_Node000011"><a xlink:title=" ">
<path fill="none" stroke="#63b8ff" d="M751.06,-169.84C751.06,-163.22 751.06,-154.22 751.06,-146.02"/>
<polygon fill="#63b8ff" stroke="#63b8ff" points="754.56,-146.09 751.06,-136.09 747.56,-146.09 754.56,-146.09"/>
</a>
</g>
</g>
<!-- Node17&#45;&gt;Node15 -->
<g id="edge28_Node000017_Node000015" class="edge">
<title>Node17&#45;&gt;Node15</title>
<g id="a_edge28_Node000017_Node000015"><a xlink:title=" ">
<path fill="none" stroke="#63b8ff" d="M706.46,-171.72C650.72,-161.85 555.41,-144.96 495.73,-134.39"/>
<polygon fill="#63b8ff" stroke="#63b8ff" points="496.6,-130.99 486.15,-132.69 495.38,-137.88 496.6,-130.99"/>
</a>
</g>
</g>
<!-- Node18 -->
<g id="Node000018" class="node">
<title>Node18</title>
<g id="a_Node000018"><a xlink:title=" ">
<polygon fill="#e0e0e0" stroke="#999999" points="904.56,-134.25 849.56,-134.25 849.56,-113.5 904.56,-113.5 904.56,-134.25"/>
<text xml:space="preserve" text-anchor="middle" x="877.06" y="-120.75" font-family="Helvetica,sans-Serif" font-size="10.00">queue.h</text>
</a>
</g>
</g>
<!-- Node17&#45;&gt;Node18 -->
<g id="edge26_Node000017_Node000018" class="edge">
<title>Node17&#45;&gt;Node18</title>
<g id="a_edge26_Node000017_Node000018"><a xlink:title=" ">
<path fill="none" stroke="#63b8ff" d="M773.58,-169.84C793.29,-161.27 822.17,-148.73 844.41,-139.06"/>
<polygon fill="#63b8ff" stroke="#63b8ff" points="845.56,-142.38 853.34,-135.18 842.77,-135.96 845.56,-142.38"/>
</a>
</g>
</g>
<!-- Node19&#45;&gt;Node17 -->
<g id="edge32_Node000019_Node000017" class="edge">
<title>Node19&#45;&gt;Node17</title>
<g id="a_edge32_Node000019_Node000017"><a xlink:title=" ">
<path fill="none" stroke="#63b8ff" d="M691.93,-226.59C702.27,-218.72 717.03,-207.5 729.21,-198.24"/>
<polygon fill="#63b8ff" stroke="#63b8ff" points="731.25,-201.08 737.09,-192.24 727.01,-195.51 731.25,-201.08"/>
</a>
</g>
</g>
<!-- Node20&#45;&gt;Node4 -->
<g id="edge35_Node000020_Node000004" class="edge">
<title>Node20&#45;&gt;Node4</title>
<g id="a_edge35_Node000020_Node000004"><a xlink:title=" ">
<path fill="none" stroke="#63b8ff" d="M995.23,-113.17C1013.4,-99.59 1040.68,-74.58 1024.06,-56.75 984.32,-14.1 583.32,-10.82 435.45,-11.07"/>
<polygon fill="#63b8ff" stroke="#63b8ff" points="435.51,-7.57 425.52,-11.1 435.53,-14.57 435.51,-7.57"/>
</a>
</g>
</g>
<!-- Node20&#45;&gt;Node6 -->
<g id="edge34_Node000020_Node000006" class="edge">
<title>Node20&#45;&gt;Node6</title>
<g id="a_edge34_Node000020_Node000006"><a xlink:title=" ">
<path fill="none" stroke="#63b8ff" d="M980.7,-113.09C980.46,-106.47 980.13,-97.47 979.83,-89.27"/>
<polygon fill="#63b8ff" stroke="#63b8ff" points="983.33,-89.21 979.47,-79.34 976.33,-89.46 983.33,-89.21"/>
</a>
</g>
</g>
</g>
</svg>

<g id="navigator" transform="translate(0 0)" fill="#404254">
  <rect fill="#f2f5e9" fill-opacity="0.5" stroke="#606060" stroke-width=".5" x="0" y="0" width="60" height="60"/>
  <use id="zoomplus" xlink:href="#zoomPlus" x="17" y="9" onmousedown="handleZoom(evt,'in')"/>
  <use id="zoomminus" xlink:href="#zoomMin" x="42" y="9" onmousedown="handleZoom(evt,'out')"/>
  <use id="reset" xlink:href="#resetDef" x="30" y="36" onmousedown="handleReset()"/>
   <use id="arrowup" xlink:href="#arrowUp" x="0" y="0" onmousedown="handlePan(0,-1)"/>
  <use id="arrowright" xlink:href="#arrowRight" x="0" y="0" onmousedown="handlePan(1,0)"/>
  <use id="arrowdown" xlink:href="#arrowDown" x="0" y="0" onmousedown="handlePan(0,1)"/>
  <use id="arrowleft" xlink:href="#arrowLeft" x="0" y="0" onmousedown="handlePan(-1,0)"/>
</g>
<svg viewBox="0 0 15 15" width="100%" height="30px" preserveAspectRatio="xMaxYMin meet">
 <g id="arrow_out" transform="scale(0.3 0.3)">
  <a xlink:href="step__core_8c__incl_org.svg" target="_base">
   <rect id="button" ry="5" rx="5" y="6" x="6" height="38" width="38"
        fill="#f2f5e9" fill-opacity="0.5" stroke="#606060" stroke-width="1.0"/>
   <path id="arrow"
     d="M 11.500037,31.436501 C 11.940474,20.09759 22.043105,11.32322 32.158766,21.979434 L 37.068811,17.246167 C 37.068811,17.246167 37.088388,32 37.088388,32 L 22.160133,31.978069 C 22.160133,31.978069 26.997745,27.140456 26.997745,27.140456 C 18.528582,18.264221 13.291696,25.230495 11.500037,31.436501 z"
     style="fill:#404040;"/>
  </a>
 </g>
</svg>

<style type='text/css'>
<![CDATA[
[data-mouse-over-selected='false'] { opacity: 0.7; }
[data-mouse-over-selected='true']  { opacity: 1.0; }
]]>
</style>
<script type="application/ecmascript"><![CDATA[
document.addEventListener('DOMContentLoaded', (event) => {
  highlightEdges();
  highlightAdjacentNodes();
});
]]></script>
</svg>
