<?xml version="1.0" encoding="UTF-8" standalone="no"?>
<!DOCTYPE svg PUBLIC "-//W3C//DTD SVG 1.1//EN"
 "http://www.w3.org/Graphics/SVG/1.1/DTD/svg11.dtd">
<!-- Generated by graphviz version 14.1.5 (0)
 -->
<!-- Title: source/motion/stepper/step_core.c Pages: 1 -->
<!--zoomable 325 -->

<svg id="main" version="1.1" xmlns="http://www.w3.org/2000/svg" xmlns:xlink="http://www.w3.org/1999/xlink" xml:space="preserve" onload="init(evt)">

<style type="text/css"><![CDATA[
.node, .edge {opacity: 0.7;}
.node.selected, .edge.selected {opacity: 1;}
.edge:hover path { stroke: red; }
.edge:hover polygon { stroke: red; fill: red; }
]]></style>

<defs>
  <circle id="rim" cx="0" cy="0" r="7"/>
  <circle id="rim2" cx="0" cy="0" r="3.5"/>
  <g id="zoomPlus">
    <use xlink:href="#rim" fill="#404040"><set attributeName="fill" to="#808080" begin="zoomplus.mouseover" end="zoomplus.mouseout"/></use>
    <path d="M-4,0h8M0,-4v8" fill="none" stroke="white" stroke-width="1.5" pointer-events="none"/>
  </g>
  <g id="zoomMin">
    <use xlink:href="#rim" fill="#404040"><set attributeName="fill" to="#808080" begin="zoomminus.mouseover" end="zoomminus.mouseout"/></use>
    <path d="M-4,0h8" fill="none" stroke="white" stroke-width="1.5" pointer-events="none"/>
  </g>
  <g id="arrowUp" transform="translate(30 24)">
    <use xlink:href="#rim"/>
    <path pointer-events="none" fill="none" stroke="white" stroke-width="1.5" d="M0,-3.0v7 M-2.5,-0.5L0,-3.0L2.5,-0.5"/>
  </g>
  <g id="arrowRight" transform="rotate(90) translate(36 -43)">
    <use xlink:href="#rim"/>
    <path pointer-events="none" fill="none" stroke="white" stroke-width="1.5" d="M0,-3.0v7 M-2.5,-0.5L0,-3.0L2.5,-0.5"/>
  </g>
  <g id="arrowDown" transform="rotate(180) translate(-30 -48)">
    <use xlink:href="#rim"/>
    <path pointer-events="none" fill="none" stroke="white" stroke-width="1.5" d="M0,-3.0v7 M-2.5,-0.5L0,-3.0L2.5,-0.5"/>
  </g>
  <g id="arrowLeft" transform="rotate(270) translate(-36 17)">
    <use xlink:href="#rim"/>
    <path pointer-events="none" fill="none" stroke="white" stroke-width="1.5" d="M0,-3.0v7 M-2.5,-0.5L0,-3.0L2.5,-0.5"/>
  </g>
  <g id="resetDef">
    <use xlink:href="#rim2" fill="#404040"><set attributeName="fill" to="#808080" begin="reset.mouseover" end="reset.mouseout"/></use>
  </g>
</defs>
<script type="application/ecmascript">
var viewWidth = 1119;
var viewHeight = 325;
var sectionId = 'dynsection-0';
</script>
<script type="application/ecmascript" xlink:href="svg.min.js"/>
<svg id="graph" class="graph">
<g id="viewport">
<title>source/motion/stepper/step_core.c</title>
<!-- Node1 -->
<g id="Node000001" class="node">
<title>Node1</title>
<g id="a_Node000001"><a xlink:title=" ">
<polygon fill="#999999" stroke="#666666" points="685.81,-317.25 560.31,-317.25 560.31,-283.75 685.81,-283.75 685.81,-317.25"/>
<text xml:space="preserve" text-anchor="start" x="568.31" y="-303.75" font-family="Helvetica,sans-Serif" font-size="10.00">source/motion/stepper</text>
<text xml:space="preserve" text-anchor="middle" x="623.06" y="-291" font-family="Helvetica,sans-Serif" font-size="10.00">/step_core.c</text>
</a>
</g>
</g>
<!-- Node2 -->
<g id="Node000002" class="node">
<title>Node2</title>
<g id="a_Node000002"><a xlink:href="log_8h.html" target="_top" xlink:title=" ">
<polygon fill="white" stroke="#666666" points="1110.56,-134.25 1001.56,-134.25 1001.56,-113.5 1110.56,-113.5 1110.56,-134.25"/>
<text xml:space="preserve" text-anchor="middle" x="1056.06" y="-120.75" font-family="Helvetica,sans-Serif" font-size="10.00">infrastructure/log.h</text>
</a>
</g>
</g>
<!-- Node1&#45;&gt;Node2 -->
<g id="edge1_Node000001_Node000002" class="edge">
<title>Node1&#45;&gt;Node2</title>
<g id="a_edge1_Node000001_Node000002"><a xlink:title=" ">
<path fill="none" stroke="#63b8ff" d="M670.33,-283.28C698.55,-273.4 735.03,-260.3 767.06,-247.75 861.13,-210.88 970.45,-163 1023.64,-139.37"/>
<polygon fill="#63b8ff" stroke="#63b8ff" points="1025.02,-142.59 1032.73,-135.33 1022.18,-136.19 1025.02,-142.59"/>
</a>
</g>
</g>
<!-- Node4 -->
<g id="Node000004" class="node">
<title>Node4</title>
<g id="a_Node000004"><a xlink:title=" ">
<polygon fill="#e0e0e0" stroke="#999999" points="423.56,-20.75 338.56,-20.75 338.56,0 423.56,0 423.56,-20.75"/>
<text xml:space="preserve" text-anchor="middle" x="381.06" y="-7.25" font-family="Helvetica,sans-Serif" font-size="10.00">fsl_common.h</text>
</a>
</g>
</g>
<!-- Node1&#45;&gt;Node4 -->
<g id="edge35_Node000001_Node000004" class="edge">
<title>Node1&#45;&gt;Node4</title>
<g id="a_edge35_Node000001_Node000004"><a xlink:title=" ">
<path fill="none" stroke="#63b8ff" d="M559.99,-294.14C401.86,-279.86 1.06,-238.09 1.06,-181.62 1.06,-181.62 1.06,-181.62 1.06,-122.88 1.06,-92.3 -3.17,-76.64 20.06,-56.75 42.92,-37.18 231.76,-21.6 326.82,-14.92"/>
<polygon fill="#63b8ff" stroke="#63b8ff" points="326.96,-18.42 336.7,-14.23 326.48,-11.43 326.96,-18.42"/>
</a>
</g>
</g>
<!-- Node5 -->
<g id="Node000005" class="node">
<title>Node5</title>
<g id="a_Node000005"><a xlink:href="step__core_8h.html" target="_top" xlink:title=" ">
<polygon fill="white" stroke="#666666" points="472.18,-191 399.93,-191 399.93,-170.25 472.18,-170.25 472.18,-191"/>
<text xml:space="preserve" text-anchor="middle" x="436.06" y="-177.5" font-family="Helvetica,sans-Serif" font-size="10.00">step_core.h</text>
</a>
</g>
</g>
<!-- Node1&#45;&gt;Node5 -->
<g id="edge4_Node000001_Node000005" class="edge">
<title>Node1&#45;&gt;Node5</title>
<g id="a_edge4_Node000001_Node000005"><a xlink:title=" ">
<path fill="none" stroke="#63b8ff" d="M597.45,-283.36C561.58,-260.75 496.78,-219.9 461.18,-197.46"/>
<polygon fill="#63b8ff" stroke="#63b8ff" points="463.15,-194.57 452.82,-192.19 459.42,-200.49 463.15,-194.57"/>
</a>
</g>
</g>
<!-- Node9 -->
<g id="Node000009" class="node">
<title>Node9</title>
<g id="a_Node000009"><a xlink:title=" ">
<polygon fill="#e0e0e0" stroke="#999999" points="637.43,-77.5 578.68,-77.5 578.68,-56.75 637.43,-56.75 637.43,-77.5"/>
<text xml:space="preserve" text-anchor="middle" x="608.06" y="-64" font-family="Helvetica,sans-Serif" font-size="10.00">fsl_ftm.h</text>
</a>
</g>
</g>
<!-- Node1&#45;&gt;Node9 -->
<g id="edge36_Node000001_Node000009" class="edge">
<title>Node1&#45;&gt;Node9</title>
<g id="a_edge36_Node000001_Node000009"><a xlink:title=" ">
<path fill="none" stroke="#63b8ff" d="M622.03,-283.6C619.38,-242.81 612.36,-134.49 609.4,-88.85"/>
<polygon fill="#63b8ff" stroke="#63b8ff" points="612.9,-88.79 608.76,-79.03 605.92,-89.24 612.9,-88.79"/>
</a>
</g>
</g>
<!-- Node18 -->
<g id="Node000018" class="node">
<title>Node18</title>
<g id="a_Node000018"><a xlink:href="step__internal_8h.html" target="_top" xlink:title=" ">
<polygon fill="white" stroke="#666666" points="758.43,-191 669.68,-191 669.68,-170.25 758.43,-170.25 758.43,-191"/>
<text xml:space="preserve" text-anchor="middle" x="714.06" y="-177.5" font-family="Helvetica,sans-Serif" font-size="10.00">step_internal.h</text>
</a>
</g>
</g>
<!-- Node1&#45;&gt;Node18 -->
<g id="edge28_Node000001_Node000018" class="edge">
<title>Node1&#45;&gt;Node18</title>
<g id="a_edge28_Node000001_Node000018"><a xlink:title=" ">
<path fill="none" stroke="#63b8ff" d="M629.35,-283.48C635.87,-268.06 647.07,-244.56 661.06,-227 669.64,-216.23 681.05,-206.08 691.08,-198.12"/>
<polygon fill="#63b8ff" stroke="#63b8ff" points="693.11,-200.98 698.94,-192.13 688.87,-195.41 693.11,-200.98"/>
</a>
</g>
</g>
<!-- Node21 -->
<g id="Node000021" class="node">
<title>Node21</title>
<g id="a_Node000021"><a xlink:href="step__process_8h.html" target="_top" xlink:title=" ">
<polygon fill="white" stroke="#666666" points="758.43,-247.75 669.68,-247.75 669.68,-227 758.43,-227 758.43,-247.75"/>
<text xml:space="preserve" text-anchor="middle" x="714.06" y="-234.25" font-family="Helvetica,sans-Serif" font-size="10.00">step_process.h</text>
</a>
</g>
</g>
<!-- Node1&#45;&gt;Node21 -->
<g id="edge37_Node000001_Node000021" class="edge">
<title>Node1&#45;&gt;Node21</title>
<g id="a_edge37_Node000001_Node000021"><a xlink:title=" ">
<path fill="none" stroke="#63b8ff" d="M646.97,-283.44C660.23,-274.53 676.67,-263.49 689.96,-254.56"/>
<polygon fill="#63b8ff" stroke="#63b8ff" points="691.8,-257.54 698.15,-249.06 687.9,-251.73 691.8,-257.54"/>
</a>
</g>
</g>
<!-- Node3 -->
<g id="Node000003" class="node">
<title>Node3</title>
<g id="a_Node000003"><a xlink:title=" ">
<polygon fill="#e0e0e0" stroke="#999999" points="1015.81,-77.5 944.31,-77.5 944.31,-56.75 1015.81,-56.75 1015.81,-77.5"/>
<text xml:space="preserve" text-anchor="middle" x="980.06" y="-64" font-family="Helvetica,sans-Serif" font-size="10.00">FreeRTOS.h</text>
</a>
</g>
</g>
<!-- Node2&#45;&gt;Node3 -->
<g id="edge2_Node000002_Node000003" class="edge">
<title>Node2&#45;&gt;Node3</title>
<g id="a_edge2_Node000002_Node000003"><a xlink:title=" ">
<path fill="none" stroke="#63b8ff" d="M1042.47,-113.09C1031.45,-105.15 1015.67,-93.78 1002.74,-84.46"/>
<polygon fill="#63b8ff" stroke="#63b8ff" points="1004.91,-81.72 994.75,-78.71 1000.82,-87.4 1004.91,-81.72"/>
</a>
</g>
</g>
<!-- Node2&#45;&gt;Node4 -->
<g id="edge3_Node000002_Node000004" class="edge">
<title>Node2&#45;&gt;Node4</title>
<g id="a_edge3_Node000002_Node000004"><a xlink:title=" ">
<path fill="none" stroke="#63b8ff" d="M1054.6,-113.01C1051.81,-98.03 1044.19,-69.88 1025.06,-56.75 976.97,-23.76 581.46,-14.42 435.18,-12.08"/>
<polygon fill="#63b8ff" stroke="#63b8ff" points="435.42,-8.58 425.37,-11.93 435.31,-15.58 435.42,-8.58"/>
</a>
</g>
</g>
<!-- Node5&#45;&gt;Node3 -->
<g id="edge8_Node000005_Node000003" class="edge">
<title>Node5&#45;&gt;Node3</title>
<g id="a_edge8_Node000005_Node000003"><a xlink:title=" ">
<path fill="none" stroke="#63b8ff" d="M472.19,-179.54C533.91,-178.34 662.78,-171.15 764.06,-134.25 780.34,-128.32 781.11,-120.28 797.06,-113.5 841.28,-94.69 894.97,-82.53 932.72,-75.58"/>
<polygon fill="#63b8ff" stroke="#63b8ff" points="933.17,-79.06 942.4,-73.86 931.94,-72.16 933.17,-79.06"/>
</a>
</g>
</g>
<!-- Node5&#45;&gt;Node4 -->
<g id="edge10_Node000005_Node000004" class="edge">
<title>Node5&#45;&gt;Node4</title>
<g id="a_edge10_Node000005_Node000004"><a xlink:title=" ">
<path fill="none" stroke="#63b8ff" d="M399.74,-175.22C348.9,-166.76 259.45,-142.85 230.06,-77.5 211.07,-35.28 276.37,-20.01 327.02,-14.5"/>
<polygon fill="#63b8ff" stroke="#63b8ff" points="327.1,-18 336.71,-13.55 326.42,-11.04 327.1,-18"/>
</a>
</g>
</g>
<!-- Node6 -->
<g id="Node000006" class="node">
<title>Node6</title>
<g id="a_Node000006"><a xlink:href="pca9555a_8h.html" target="_top" xlink:title=" ">
<polygon fill="white" stroke="#666666" points="183.06,-77.5 29.06,-77.5 29.06,-56.75 183.06,-56.75 183.06,-77.5"/>
<text xml:space="preserve" text-anchor="middle" x="106.06" y="-64" font-family="Helvetica,sans-Serif" font-size="10.00">driver/pca9555a/pca9555a.h</text>
</a>
</g>
</g>
<!-- Node5&#45;&gt;Node6 -->
<g id="edge5_Node000005_Node000006" class="edge">
<title>Node5&#45;&gt;Node6</title>
<g id="a_edge5_Node000005_Node000006"><a xlink:title=" ">
<path fill="none" stroke="#63b8ff" d="M399.79,-177.68C351.67,-174.01 264.9,-163.58 197.06,-134.25 169.27,-122.24 141.78,-100.54 124.4,-85.28"/>
<polygon fill="#63b8ff" stroke="#63b8ff" points="127.19,-83.08 117.42,-78.98 122.51,-88.28 127.19,-83.08"/>
</a>
</g>
</g>
<!-- Node8 -->
<g id="Node000008" class="node">
<title>Node8</title>
<g id="a_Node000008"><a xlink:title=" ">
<polygon fill="#e0e0e0" stroke="#999999" points="373.06,-134.25 327.06,-134.25 327.06,-113.5 373.06,-113.5 373.06,-134.25"/>
<text xml:space="preserve" text-anchor="middle" x="350.06" y="-120.75" font-family="Helvetica,sans-Serif" font-size="10.00">task.h</text>
</a>
</g>
</g>
<!-- Node5&#45;&gt;Node8 -->
<g id="edge9_Node000005_Node000008" class="edge">
<title>Node5&#45;&gt;Node8</title>
<g id="a_edge9_Node000005_Node000008"><a xlink:title=" ">
<path fill="none" stroke="#63b8ff" d="M420.68,-169.84C407.96,-161.74 389.65,-150.08 374.86,-140.67"/>
<polygon fill="#63b8ff" stroke="#63b8ff" points="376.89,-137.81 366.58,-135.39 373.13,-143.71 376.89,-137.81"/>
</a>
</g>
</g>
<!-- Node5&#45;&gt;Node9 -->
<g id="edge11_Node000005_Node000009" class="edge">
<title>Node5&#45;&gt;Node9</title>
<g id="a_edge11_Node000005_Node000009"><a xlink:title=" ">
<path fill="none" stroke="#63b8ff" d="M457.12,-169.76C474.88,-161.15 500.75,-147.92 522.06,-134.25 545.73,-119.06 571.05,-99.09 588.04,-85.08"/>
<polygon fill="#63b8ff" stroke="#63b8ff" points="589.95,-88.05 595.4,-78.96 585.47,-82.67 589.95,-88.05"/>
</a>
</g>
</g>
<!-- Node10 -->
<g id="Node000010" class="node">
<title>Node10</title>
<g id="a_Node000010"><a xlink:title=" ">
<polygon fill="#e0e0e0" stroke="#999999" points="302.68,-77.5 239.43,-77.5 239.43,-56.75 302.68,-56.75 302.68,-77.5"/>
<text xml:space="preserve" text-anchor="middle" x="271.06" y="-64" font-family="Helvetica,sans-Serif" font-size="10.00">fsl_gpio.h</text>
</a>
</g>
</g>
<!-- Node5&#45;&gt;Node10 -->
<g id="edge12_Node000005_Node000010" class="edge">
<title>Node5&#45;&gt;Node10</title>
<g id="a_edge12_Node000005_Node000010"><a xlink:title=" ">
<path fill="none" stroke="#63b8ff" d="M399.48,-171.5C374.64,-164.64 342.07,-152.89 318.06,-134.25 301.92,-121.73 288.98,-102.17 280.8,-87.57"/>
<polygon fill="#63b8ff" stroke="#63b8ff" points="283.98,-86.1 276.2,-78.9 277.8,-89.38 283.98,-86.1"/>
</a>
</g>
</g>
<!-- Node11 -->
<g id="Node000011" class="node">
<title>Node11</title>
<g id="a_Node000011"><a xlink:title=" ">
<polygon fill="#e0e0e0" stroke="#999999" points="382.93,-77.5 321.18,-77.5 321.18,-56.75 382.93,-56.75 382.93,-77.5"/>
<text xml:space="preserve" text-anchor="middle" x="352.06" y="-64" font-family="Helvetica,sans-Serif" font-size="10.00">fsl_port.h</text>
</a>
</g>
</g>
<!-- Node5&#45;&gt;Node11 -->
<g id="edge13_Node000005_Node000011" class="edge">
<title>Node5&#45;&gt;Node11</title>
<g id="a_edge13_Node000005_Node000011"><a xlink:title=" ">
<path fill="none" stroke="#63b8ff" d="M428.9,-170.12C415.02,-151.7 384.24,-110.84 366.13,-86.8"/>
<polygon fill="#63b8ff" stroke="#63b8ff" points="369.16,-85.02 360.35,-79.13 363.57,-89.23 369.16,-85.02"/>
</a>
</g>
</g>
<!-- Node12 -->
<g id="Node000012" class="node">
<title>Node12</title>
<g id="a_Node000012"><a xlink:href="cmd__handle_8h.html" target="_top" xlink:title=" ">
<polygon fill="white" stroke="#666666" points="755.18,-134.25 670.93,-134.25 670.93,-113.5 755.18,-113.5 755.18,-134.25"/>
<text xml:space="preserve" text-anchor="middle" x="713.06" y="-120.75" font-family="Helvetica,sans-Serif" font-size="10.00">cmd_handle.h</text>
</a>
</g>
</g>
<!-- Node5&#45;&gt;Node12 -->
<g id="edge14_Node000005_Node000012" class="edge">
<title>Node5&#45;&gt;Node12</title>
<g id="a_edge14_Node000005_Node000012"><a xlink:title=" ">
<path fill="none" stroke="#63b8ff" d="M472.55,-172.41C520.28,-162.98 604.28,-146.38 659.3,-135.5"/>
<polygon fill="#63b8ff" stroke="#63b8ff" points="659.96,-138.94 669.09,-133.57 658.6,-132.07 659.96,-138.94"/>
</a>
</g>
</g>
<!-- Node16 -->
<g id="Node000016" class="node">
<title>Node16</title>
<g id="a_Node000016"><a xlink:href="step__shared_8h.html" target="_top" xlink:title=" ">
<polygon fill="white" stroke="#666666" points="513.18,-134.25 428.93,-134.25 428.93,-113.5 513.18,-113.5 513.18,-134.25"/>
<text xml:space="preserve" text-anchor="middle" x="471.06" y="-120.75" font-family="Helvetica,sans-Serif" font-size="10.00">step_shared.h</text>
</a>
</g>
</g>
<!-- Node5&#45;&gt;Node16 -->
<g id="edge20_Node000005_Node000016" class="edge">
<title>Node5&#45;&gt;Node16</title>
<g id="a_edge20_Node000005_Node000016"><a xlink:title=" ">
<path fill="none" stroke="#63b8ff" d="M442.31,-169.84C446.89,-162.67 453.25,-152.73 458.83,-144.01"/>
<polygon fill="#63b8ff" stroke="#63b8ff" points="461.6,-146.16 464.04,-135.85 455.7,-142.39 461.6,-146.16"/>
</a>
</g>
</g>
<!-- Node6&#45;&gt;Node4 -->
<g id="edge6_Node000006_Node000004" class="edge">
<title>Node6&#45;&gt;Node4</title>
<g id="a_edge6_Node000006_Node000004"><a xlink:title=" ">
<path fill="none" stroke="#63b8ff" d="M155.54,-56.27C203.89,-46.65 277.28,-32.04 327.1,-22.12"/>
<polygon fill="#63b8ff" stroke="#63b8ff" points="327.68,-25.57 336.81,-20.18 326.32,-18.7 327.68,-25.57"/>
</a>
</g>
</g>
<!-- Node7 -->
<g id="Node000007" class="node">
<title>Node7</title>
<g id="a_Node000007"><a xlink:title=" ">
<polygon fill="#e0e0e0" stroke="#999999" points="145.93,-20.75 66.18,-20.75 66.18,0 145.93,0 145.93,-20.75"/>
<text xml:space="preserve" text-anchor="middle" x="106.06" y="-7.25" font-family="Helvetica,sans-Serif" font-size="10.00">peripherals.h</text>
</a>
</g>
</g>
<!-- Node6&#45;&gt;Node7 -->
<g id="edge7_Node000006_Node000007" class="edge">
<title>Node6&#45;&gt;Node7</title>
<g id="a_edge7_Node000006_Node000007"><a xlink:title=" ">
<path fill="none" stroke="#63b8ff" d="M106.06,-56.34C106.06,-49.72 106.06,-40.72 106.06,-32.52"/>
<polygon fill="#63b8ff" stroke="#63b8ff" points="109.56,-32.59 106.06,-22.59 102.56,-32.59 109.56,-32.59"/>
</a>
</g>
</g>
<!-- Node12&#45;&gt;Node3 -->
<g id="edge16_Node000012_Node000003" class="edge">
<title>Node12&#45;&gt;Node3</title>
<g id="a_edge16_Node000012_Node000003"><a xlink:title=" ">
<path fill="none" stroke="#63b8ff" d="M755.66,-114.14C804.01,-104.22 882.66,-88.1 932.85,-77.81"/>
<polygon fill="#63b8ff" stroke="#63b8ff" points="933.45,-81.25 942.55,-75.82 932.05,-74.4 933.45,-81.25"/>
</a>
</g>
</g>
<!-- Node12&#45;&gt;Node4 -->
<g id="edge18_Node000012_Node000004" class="edge">
<title>Node12&#45;&gt;Node4</title>
<g id="a_edge18_Node000012_Node000004"><a xlink:title=" ">
<path fill="none" stroke="#63b8ff" d="M755.33,-115.28C806.87,-105.58 888.26,-88.73 897.06,-77.5 902.74,-70.24 903.29,-63.55 897.06,-56.75 866.28,-23.15 560.82,-14.31 434.89,-12.09"/>
<polygon fill="#63b8ff" stroke="#63b8ff" points="435.21,-8.59 425.15,-11.92 435.09,-15.59 435.21,-8.59"/>
</a>
</g>
</g>
<!-- Node13 -->
<g id="Node000013" class="node">
<title>Node13</title>
<g id="a_Node000013"><a xlink:title=" ">
<polygon fill="#e0e0e0" stroke="#999999" points="708.43,-77.5 655.68,-77.5 655.68,-56.75 708.43,-56.75 708.43,-77.5"/>
<text xml:space="preserve" text-anchor="middle" x="682.06" y="-64" font-family="Helvetica,sans-Serif" font-size="10.00">stdint.h</text>
</a>
</g>
</g>
<!-- Node12&#45;&gt;Node13 -->
<g id="edge15_Node000012_Node000013" class="edge">
<title>Node12&#45;&gt;Node13</title>
<g id="a_edge15_Node000012_Node000013"><a xlink:title=" ">
<path fill="none" stroke="#63b8ff" d="M707.51,-113.09C703.55,-106.08 698.07,-96.41 693.21,-87.83"/>
<polygon fill="#63b8ff" stroke="#63b8ff" points="696.27,-86.12 688.3,-79.15 690.18,-89.57 696.27,-86.12"/>
</a>
</g>
</g>
<!-- Node14 -->
<g id="Node000014" class="node">
<title>Node14</title>
<g id="a_Node000014"><a xlink:title=" ">
<polygon fill="#e0e0e0" stroke="#999999" points="817.56,-77.5 726.56,-77.5 726.56,-56.75 817.56,-56.75 817.56,-77.5"/>
<text xml:space="preserve" text-anchor="middle" x="772.06" y="-64" font-family="Helvetica,sans-Serif" font-size="10.00">event_groups.h</text>
</a>
</g>
</g>
<!-- Node12&#45;&gt;Node14 -->
<g id="edge17_Node000012_Node000014" class="edge">
<title>Node12&#45;&gt;Node14</title>
<g id="a_edge17_Node000012_Node000014"><a xlink:title=" ">
<path fill="none" stroke="#63b8ff" d="M723.61,-113.09C731.83,-105.46 743.46,-94.67 753.26,-85.57"/>
<polygon fill="#63b8ff" stroke="#63b8ff" points="755.54,-88.23 760.49,-78.86 750.78,-83.09 755.54,-88.23"/>
</a>
</g>
</g>
<!-- Node15 -->
<g id="Node000015" class="node">
<title>Node15</title>
<g id="a_Node000015"><a xlink:title=" ">
<polygon fill="#e0e0e0" stroke="#999999" points="888.06,-77.5 836.06,-77.5 836.06,-56.75 888.06,-56.75 888.06,-77.5"/>
<text xml:space="preserve" text-anchor="middle" x="862.06" y="-64" font-family="Helvetica,sans-Serif" font-size="10.00">stdlib.h</text>
</a>
</g>
</g>
<!-- Node12&#45;&gt;Node15 -->
<g id="edge19_Node000012_Node000015" class="edge">
<title>Node12&#45;&gt;Node15</title>
<g id="a_edge19_Node000012_Node000015"><a xlink:title=" ">
<path fill="none" stroke="#63b8ff" d="M739.7,-113.09C763.43,-104.37 798.39,-91.52 824.88,-81.79"/>
<polygon fill="#63b8ff" stroke="#63b8ff" points="826.05,-85.08 834.23,-78.35 823.64,-78.51 826.05,-85.08"/>
</a>
</g>
</g>
<!-- Node16&#45;&gt;Node4 -->
<g id="edge24_Node000016_Node000004" class="edge">
<title>Node16&#45;&gt;Node4</title>
<g id="a_edge24_Node000016_Node000004"><a xlink:title=" ">
<path fill="none" stroke="#63b8ff" d="M491.63,-113.15C515.04,-100.75 548.09,-78.31 532.06,-56.75 509.9,-26.95 468.82,-15.99 435.09,-12.27"/>
<polygon fill="#63b8ff" stroke="#63b8ff" points="435.76,-8.82 425.49,-11.41 435.13,-15.79 435.76,-8.82"/>
</a>
</g>
</g>
<!-- Node16&#45;&gt;Node6 -->
<g id="edge22_Node000016_Node000006" class="edge">
<title>Node16&#45;&gt;Node6</title>
<g id="a_edge22_Node000016_Node000006"><a xlink:title=" ">
<path fill="none" stroke="#63b8ff" d="M428.47,-116.49C368.37,-107.47 257.68,-90.87 182.97,-79.66"/>
<polygon fill="#63b8ff" stroke="#63b8ff" points="183.67,-76.23 173.26,-78.2 182.63,-83.15 183.67,-76.23"/>
</a>
</g>
</g>
<!-- Node16&#45;&gt;Node9 -->
<g id="edge25_Node000016_Node000009" class="edge">
<title>Node16&#45;&gt;Node9</title>
<g id="a_edge25_Node000016_Node000009"><a xlink:title=" ">
<path fill="none" stroke="#63b8ff" d="M495.55,-113.09C517.17,-104.44 548.95,-91.75 573.22,-82.05"/>
<polygon fill="#63b8ff" stroke="#63b8ff" points="574.38,-85.35 582.37,-78.39 571.79,-78.85 574.38,-85.35"/>
</a>
</g>
</g>
<!-- Node16&#45;&gt;Node10 -->
<g id="edge26_Node000016_Node000010" class="edge">
<title>Node16&#45;&gt;Node10</title>
<g id="a_edge26_Node000016_Node000010"><a xlink:title=" ">
<path fill="none" stroke="#63b8ff" d="M435.3,-113.09C401.19,-103.75 349.78,-89.68 313.59,-79.77"/>
<polygon fill="#63b8ff" stroke="#63b8ff" points="314.91,-76.5 304.34,-77.24 313.06,-83.25 314.91,-76.5"/>
</a>
</g>
</g>
<!-- Node16&#45;&gt;Node11 -->
<g id="edge27_Node000016_Node000011" class="edge">
<title>Node16&#45;&gt;Node11</title>
<g id="a_edge27_Node000016_Node000011"><a xlink:title=" ">
<path fill="none" stroke="#63b8ff" d="M449.78,-113.09C431.34,-104.6 404.39,-92.2 383.47,-82.58"/>
<polygon fill="#63b8ff" stroke="#63b8ff" points="385.07,-79.46 374.52,-78.46 382.14,-85.82 385.07,-79.46"/>
</a>
</g>
</g>
<!-- Node16&#45;&gt;Node13 -->
<g id="edge21_Node000016_Node000013" class="edge">
<title>Node16&#45;&gt;Node13</title>
<g id="a_edge21_Node000016_Node000013"><a xlink:title=" ">
<path fill="none" stroke="#63b8ff" d="M508.95,-113.06C542.12,-104.47 591.88,-91.57 644.43,-77.92"/>
<polygon fill="#63b8ff" stroke="#63b8ff" points="645.06,-81.37 653.86,-75.47 643.3,-74.6 645.06,-81.37"/>
</a>
</g>
</g>
<!-- Node17 -->
<g id="Node000017" class="node">
<title>Node17</title>
<g id="a_Node000017"><a xlink:title=" ">
<polygon fill="#e0e0e0" stroke="#999999" points="523.31,-77.5 400.81,-77.5 400.81,-56.75 523.31,-56.75 523.31,-77.5"/>
<text xml:space="preserve" text-anchor="middle" x="462.06" y="-64" font-family="Helvetica,sans-Serif" font-size="10.00">fsl_device_registers.h</text>
</a>
</g>
</g>
<!-- Node16&#45;&gt;Node17 -->
<g id="edge23_Node000016_Node000017" class="edge">
<title>Node16&#45;&gt;Node17</title>
<g id="a_edge23_Node000016_Node000017"><a xlink:title=" ">
<path fill="none" stroke="#63b8ff" d="M469.45,-113.09C468.35,-106.39 466.85,-97.26 465.48,-88.98"/>
<polygon fill="#63b8ff" stroke="#63b8ff" points="468.97,-88.62 463.9,-79.32 462.07,-89.76 468.97,-88.62"/>
</a>
</g>
</g>
<!-- Node18&#45;&gt;Node3 -->
<g id="edge31_Node000018_Node000003" class="edge">
<title>Node18&#45;&gt;Node3</title>
<g id="a_edge31_Node000018_Node000003"><a xlink:title=" ">
<path fill="none" stroke="#63b8ff" d="M732.09,-169.77C761.74,-153.64 819.63,-122.5 841.06,-113.5 871.29,-100.79 906.41,-89.36 933.79,-81.14"/>
<polygon fill="#63b8ff" stroke="#63b8ff" points="934.58,-84.56 943.18,-78.37 932.6,-77.85 934.58,-84.56"/>
</a>
</g>
</g>
<!-- Node18&#45;&gt;Node12 -->
<g id="edge33_Node000018_Node000012" class="edge">
<title>Node18&#45;&gt;Node12</title>
<g id="a_edge33_Node000018_Node000012"><a xlink:title=" ">
<path fill="none" stroke="#63b8ff" d="M713.88,-169.84C713.76,-163.22 713.59,-154.22 713.44,-146.02"/>
<polygon fill="#63b8ff" stroke="#63b8ff" points="716.94,-146.03 713.26,-136.09 709.95,-146.15 716.94,-146.03"/>
</a>
</g>
</g>
<!-- Node18&#45;&gt;Node13 -->
<g id="edge29_Node000018_Node000013" class="edge">
<title>Node18&#45;&gt;Node13</title>
<g id="a_edge29_Node000018_Node000013"><a xlink:title=" ">
<path fill="none" stroke="#63b8ff" d="M696.49,-169.86C684.33,-162.01 669.1,-149.74 662.06,-134.25 655.16,-119.09 661.64,-100.92 669,-87.46"/>
<polygon fill="#63b8ff" stroke="#63b8ff" points="671.86,-89.49 674.07,-79.12 665.88,-85.85 671.86,-89.49"/>
</a>
</g>
</g>
<!-- Node18&#45;&gt;Node16 -->
<g id="edge34_Node000018_Node000016" class="edge">
<title>Node18&#45;&gt;Node16</title>
<g id="a_edge34_Node000018_Node000016"><a xlink:title=" ">
<path fill="none" stroke="#63b8ff" d="M670.33,-169.77C629.48,-160.57 568.39,-146.8 524.63,-136.94"/>
<polygon fill="#63b8ff" stroke="#63b8ff" points="525.62,-133.58 515.09,-134.8 524.08,-140.41 525.62,-133.58"/>
</a>
</g>
</g>
<!-- Node19 -->
<g id="Node000019" class="node">
<title>Node19</title>
<g id="a_Node000019"><a xlink:title=" ">
<polygon fill="#e0e0e0" stroke="#999999" points="910.56,-134.25 849.56,-134.25 849.56,-113.5 910.56,-113.5 910.56,-134.25"/>
<text xml:space="preserve" text-anchor="middle" x="880.06" y="-120.75" font-family="Helvetica,sans-Serif" font-size="10.00">stdbool.h</text>
</a>
</g>
</g>
<!-- Node18&#45;&gt;Node19 -->
<g id="edge30_Node000018_Node000019" class="edge">
<title>Node18&#45;&gt;Node19</title>
<g id="a_edge30_Node000018_Node000019"><a xlink:title=" ">
<path fill="none" stroke="#63b8ff" d="M743.73,-169.84C770.44,-161.03 809.93,-148 839.54,-138.24"/>
<polygon fill="#63b8ff" stroke="#63b8ff" points="840.52,-141.6 848.92,-135.14 838.33,-134.95 840.52,-141.6"/>
</a>
</g>
</g>
<!-- Node20 -->
<g id="Node000020" class="node">
<title>Node20</title>
<g id="a_Node000020"><a xlink:title=" ">
<polygon fill="#e0e0e0" stroke="#999999" points="983.56,-134.25 928.56,-134.25 928.56,-113.5 983.56,-113.5 983.56,-134.25"/>
<text xml:space="preserve" text-anchor="middle" x="956.06" y="-120.75" font-family="Helvetica,sans-Serif" font-size="10.00">queue.h</text>
</a>
</g>
</g>
<!-- Node18&#45;&gt;Node20 -->
<g id="edge32_Node000018_Node000020" class="edge">
<title>Node18&#45;&gt;Node20</title>
<g id="a_edge32_Node000018_Node000020"><a xlink:title=" ">
<path fill="none" stroke="#63b8ff" d="M758.77,-170.29C798.13,-161.95 857.25,-149.16 917.01,-134.92"/>
<polygon fill="#63b8ff" stroke="#63b8ff" points="917.79,-138.33 926.7,-132.6 916.16,-131.53 917.79,-138.33"/>
</a>
</g>
</g>
<!-- Node21&#45;&gt;Node18 -->
<g id="edge38_Node000021_Node000018" class="edge">
<title>Node21&#45;&gt;Node18</title>
<g id="a_edge38_Node000021_Node000018"><a xlink:title=" ">
<path fill="none" stroke="#63b8ff" d="M714.06,-226.59C714.06,-219.97 714.06,-210.97 714.06,-202.77"/>
<polygon fill="#63b8ff" stroke="#63b8ff" points="717.56,-202.84 714.06,-192.84 710.56,-202.84 717.56,-202.84"/>
</a>
</g>
</g>
</g>
</svg>

<g id="navigator" transform="translate(0 0)" fill="#404254">
  <rect fill="#f2f5e9" fill-opacity="0.5" stroke="#606060" stroke-width=".5" x="0" y="0" width="60" height="60"/>
  <use id="zoomplus" xlink:href="#zoomPlus" x="17" y="9" onmousedown="handleZoom(evt,'in')"/>
  <use id="zoomminus" xlink:href="#zoomMin" x="42" y="9" onmousedown="handleZoom(evt,'out')"/>
  <use id="reset" xlink:href="#resetDef" x="30" y="36" onmousedown="handleReset()"/>
   <use id="arrowup" xlink:href="#arrowUp" x="0" y="0" onmousedown="handlePan(0,-1)"/>
  <use id="arrowright" xlink:href="#arrowRight" x="0" y="0" onmousedown="handlePan(1,0)"/>
  <use id="arrowdown" xlink:href="#arrowDown" x="0" y="0" onmousedown="handlePan(0,1)"/>
  <use id="arrowleft" xlink:href="#arrowLeft" x="0" y="0" onmousedown="handlePan(-1,0)"/>
</g>
<svg viewBox="0 0 15 15" width="100%" height="30px" preserveAspectRatio="xMaxYMin meet">
 <g id="arrow_out" transform="scale(0.3 0.3)">
  <a xlink:href="step__core_8c__incl_org.svg" target="_base">
   <rect id="button" ry="5" rx="5" y="6" x="6" height="38" width="38"
        fill="#f2f5e9" fill-opacity="0.5" stroke="#606060" stroke-width="1.0"/>
   <path id="arrow"
     d="M 11.500037,31.436501 C 11.940474,20.09759 22.043105,11.32322 32.158766,21.979434 L 37.068811,17.246167 C 37.068811,17.246167 37.088388,32 37.088388,32 L 22.160133,31.978069 C 22.160133,31.978069 26.997745,27.140456 26.997745,27.140456 C 18.528582,18.264221 13.291696,25.230495 11.500037,31.436501 z"
     style="fill:#404040;"/>
  </a>
 </g>
</svg>

<style type='text/css'>
<![CDATA[
[data-mouse-over-selected='false'] { opacity: 0.7; }
[data-mouse-over-selected='true']  { opacity: 1.0; }
]]>
</style>
<script type="application/ecmascript"><![CDATA[
document.addEventListener('DOMContentLoaded', (event) => {
  highlightEdges();
  highlightAdjacentNodes();
});
]]></script>
</svg>
