<?xml version="1.0" encoding="UTF-8" standalone="no"?>
<!DOCTYPE svg PUBLIC "-//W3C//DTD SVG 1.1//EN"
 "http://www.w3.org/Graphics/SVG/1.1/DTD/svg11.dtd">
<!-- Generated by graphviz version 14.1.5 (0)
 -->
<!-- Title: source/motion/stepper/step_core.c Pages: 1 -->
<!--zoomable 325 -->

<svg id="main" version="1.1" xmlns="http://www.w3.org/2000/svg" xmlns:xlink="http://www.w3.org/1999/xlink" xml:space="preserve" onload="init(evt)">

<style type="text/css"><![CDATA[
.node, .edge {opacity: 0.7;}
.node.selected, .edge.selected {opacity: 1;}
.edge:hover path { stroke: red; }
.edge:hover polygon { stroke: red; fill: red; }
]]></style>

<defs>
  <circle id="rim" cx="0" cy="0" r="7"/>
  <circle id="rim2" cx="0" cy="0" r="3.5"/>
  <g id="zoomPlus">
    <use xlink:href="#rim" fill="#404040"><set attributeName="fill" to="#808080" begin="zoomplus.mouseover" end="zoomplus.mouseout"/></use>
    <path d="M-4,0h8M0,-4v8" fill="none" stroke="white" stroke-width="1.5" pointer-events="none"/>
  </g>
  <g id="zoomMin">
    <use xlink:href="#rim" fill="#404040"><set attributeName="fill" to="#808080" begin="zoomminus.mouseover" end="zoomminus.mouseout"/></use>
    <path d="M-4,0h8" fill="none" stroke="white" stroke-width="1.5" pointer-events="none"/>
  </g>
  <g id="arrowUp" transform="translate(30 24)">
    <use xlink:href="#rim"/>
    <path pointer-events="none" fill="none" stroke="white" stroke-width="1.5" d="M0,-3.0v7 M-2.5,-0.5L0,-3.0L2.5,-0.5"/>
  </g>
  <g id="arrowRight" transform="rotate(90) translate(36 -43)">
    <use xlink:href="#rim"/>
    <path pointer-events="none" fill="none" stroke="white" stroke-width="1.5" d="M0,-3.0v7 M-2.5,-0.5L0,-3.0L2.5,-0.5"/>
  </g>
  <g id="arrowDown" transform="rotate(180) translate(-30 -48)">
    <use xlink:href="#rim"/>
    <path pointer-events="none" fill="none" stroke="white" stroke-width="1.5" d="M0,-3.0v7 M-2.5,-0.5L0,-3.0L2.5,-0.5"/>
  </g>
  <g id="arrowLeft" transform="rotate(270) translate(-36 17)">
    <use xlink:href="#rim"/>
    <path pointer-events="none" fill="none" stroke="white" stroke-width="1.5" d="M0,-3.0v7 M-2.5,-0.5L0,-3.0L2.5,-0.5"/>
  </g>
  <g id="resetDef">
    <use xlink:href="#rim2" fill="#404040"><set attributeName="fill" to="#808080" begin="reset.mouseover" end="reset.mouseout"/></use>
  </g>
</defs>
<script type="application/ecmascript">
var viewWidth = 1064;
var viewHeight = 325;
var sectionId = 'dynsection-0';
</script>
<script type="application/ecmascript" xlink:href="svg.min.js"/>
<svg id="graph" class="graph">
<g id="viewport">
<title>source/motion/stepper/step_core.c</title>
<!-- Node1 -->
<g id="Node000001" class="node">
<title>Node1</title>
<g id="a_Node000001"><a xlink:title=" ">
<polygon fill="#999999" stroke="#666666" points="699.81,-317.25 574.31,-317.25 574.31,-283.75 699.81,-283.75 699.81,-317.25"/>
<text xml:space="preserve" text-anchor="start" x="582.31" y="-303.75" font-family="Helvetica,sans-Serif" font-size="10.00">source/motion/stepper</text>
<text xml:space="preserve" text-anchor="middle" x="637.06" y="-291" font-family="Helvetica,sans-Serif" font-size="10.00">/step_core.c</text>
</a>
</g>
</g>
<!-- Node2 -->
<g id="Node000002" class="node">
<title>Node2</title>
<g id="a_Node000002"><a xlink:href="step__core_8h.html" target="_top" xlink:title=" ">
<polygon fill="white" stroke="#666666" points="449.18,-191 376.93,-191 376.93,-170.25 449.18,-170.25 449.18,-191"/>
<text xml:space="preserve" text-anchor="middle" x="413.06" y="-177.5" font-family="Helvetica,sans-Serif" font-size="10.00">step_core.h</text>
</a>
</g>
</g>
<!-- Node1&#45;&gt;Node2 -->
<g id="edge1_Node000001_Node000002" class="edge">
<title>Node1&#45;&gt;Node2</title>
<g id="a_edge1_Node000001_Node000002"><a xlink:title=" ">
<path fill="none" stroke="#63b8ff" d="M606.38,-283.36C562.95,-260.5 484.13,-219.03 441.79,-196.74"/>
<polygon fill="#63b8ff" stroke="#63b8ff" points="443.43,-193.65 432.95,-192.09 440.17,-199.85 443.43,-193.65"/>
</a>
</g>
</g>
<!-- Node4 -->
<g id="Node000004" class="node">
<title>Node4</title>
<g id="a_Node000004"><a xlink:title=" ">
<polygon fill="#e0e0e0" stroke="#999999" points="423.56,-20.75 338.56,-20.75 338.56,0 423.56,0 423.56,-20.75"/>
<text xml:space="preserve" text-anchor="middle" x="381.06" y="-7.25" font-family="Helvetica,sans-Serif" font-size="10.00">fsl_common.h</text>
</a>
</g>
</g>
<!-- Node1&#45;&gt;Node4 -->
<g id="edge32_Node000001_Node000004" class="edge">
<title>Node1&#45;&gt;Node4</title>
<g id="a_edge32_Node000001_Node000004"><a xlink:title=" ">
<path fill="none" stroke="#63b8ff" d="M574.04,-294.41C413.38,-280.59 1.06,-239.49 1.06,-181.62 1.06,-181.62 1.06,-181.62 1.06,-122.88 1.06,-92.3 -3.17,-76.64 20.06,-56.75 42.92,-37.18 231.76,-21.6 326.82,-14.92"/>
<polygon fill="#63b8ff" stroke="#63b8ff" points="326.96,-18.42 336.7,-14.23 326.48,-11.43 326.96,-18.42"/>
</a>
</g>
</g>
<!-- Node8 -->
<g id="Node000008" class="node">
<title>Node8</title>
<g id="a_Node000008"><a xlink:title=" ">
<polygon fill="#e0e0e0" stroke="#999999" points="637.43,-77.5 578.68,-77.5 578.68,-56.75 637.43,-56.75 637.43,-77.5"/>
<text xml:space="preserve" text-anchor="middle" x="608.06" y="-64" font-family="Helvetica,sans-Serif" font-size="10.00">fsl_ftm.h</text>
</a>
</g>
</g>
<!-- Node1&#45;&gt;Node8 -->
<g id="edge33_Node000001_Node000008" class="edge">
<title>Node1&#45;&gt;Node8</title>
<g id="a_edge33_Node000001_Node000008"><a xlink:title=" ">
<path fill="none" stroke="#63b8ff" d="M630.63,-283.46C626.89,-273.38 622.44,-260 620.06,-247.75 609.05,-191.16 607.68,-122.88 607.77,-89.12"/>
<polygon fill="#63b8ff" stroke="#63b8ff" points="611.26,-89.51 607.84,-79.48 604.26,-89.46 611.26,-89.51"/>
</a>
</g>
</g>
<!-- Node17 -->
<g id="Node000017" class="node">
<title>Node17</title>
<g id="a_Node000017"><a xlink:href="step__internal_8h.html" target="_top" xlink:title=" ">
<polygon fill="white" stroke="#666666" points="783.43,-191 694.68,-191 694.68,-170.25 783.43,-170.25 783.43,-191"/>
<text xml:space="preserve" text-anchor="middle" x="739.06" y="-177.5" font-family="Helvetica,sans-Serif" font-size="10.00">step_internal.h</text>
</a>
</g>
</g>
<!-- Node1&#45;&gt;Node17 -->
<g id="edge25_Node000001_Node000017" class="edge">
<title>Node1&#45;&gt;Node17</title>
<g id="a_edge25_Node000001_Node000017"><a xlink:title=" ">
<path fill="none" stroke="#63b8ff" d="M680.67,-283.37C697.26,-275.14 714.85,-263.47 726.06,-247.75 735.41,-234.62 738.46,-216.46 739.29,-202.5"/>
<polygon fill="#63b8ff" stroke="#63b8ff" points="742.78,-202.7 739.5,-192.63 735.78,-202.55 742.78,-202.7"/>
</a>
</g>
</g>
<!-- Node20 -->
<g id="Node000020" class="node">
<title>Node20</title>
<g id="a_Node000020"><a xlink:href="step__process_8h.html" target="_top" xlink:title=" ">
<polygon fill="white" stroke="#666666" points="717.43,-247.75 628.68,-247.75 628.68,-227 717.43,-227 717.43,-247.75"/>
<text xml:space="preserve" text-anchor="middle" x="673.06" y="-234.25" font-family="Helvetica,sans-Serif" font-size="10.00">step_process.h</text>
</a>
</g>
</g>
<!-- Node1&#45;&gt;Node20 -->
<g id="edge34_Node000001_Node000020" class="edge">
<title>Node1&#45;&gt;Node20</title>
<g id="a_edge34_Node000001_Node000020"><a xlink:title=" ">
<path fill="none" stroke="#63b8ff" d="M646.52,-283.44C651.09,-275.67 656.63,-266.27 661.46,-258.07"/>
<polygon fill="#63b8ff" stroke="#63b8ff" points="664.43,-259.91 666.49,-249.52 658.4,-256.36 664.43,-259.91"/>
</a>
</g>
</g>
<!-- Node21 -->
<g id="Node000021" class="node">
<title>Node21</title>
<g id="a_Node000021"><a xlink:href="log_8h.html" target="_top" xlink:title=" ">
<polygon fill="white" stroke="#666666" points="1056.06,-134.25 1016.06,-134.25 1016.06,-113.5 1056.06,-113.5 1056.06,-134.25"/>
<text xml:space="preserve" text-anchor="middle" x="1036.06" y="-120.75" font-family="Helvetica,sans-Serif" font-size="10.00">log.h</text>
</a>
</g>
</g>
<!-- Node1&#45;&gt;Node21 -->
<g id="edge36_Node000001_Node000021" class="edge">
<title>Node1&#45;&gt;Node21</title>
<g id="a_edge36_Node000001_Node000021"><a xlink:title=" ">
<path fill="none" stroke="#63b8ff" d="M673.88,-283.38C752.05,-249.17 933.33,-169.83 1005.56,-138.22"/>
<polygon fill="#63b8ff" stroke="#63b8ff" points="1006.65,-141.57 1014.4,-134.35 1003.84,-135.15 1006.65,-141.57"/>
</a>
</g>
</g>
<!-- Node3 -->
<g id="Node000003" class="node">
<title>Node3</title>
<g id="a_Node000003"><a xlink:href="pca9555a_8h.html" target="_top" xlink:title=" ">
<polygon fill="white" stroke="#666666" points="183.06,-77.5 29.06,-77.5 29.06,-56.75 183.06,-56.75 183.06,-77.5"/>
<text xml:space="preserve" text-anchor="middle" x="106.06" y="-64" font-family="Helvetica,sans-Serif" font-size="10.00">driver/pca9555a/pca9555a.h</text>
</a>
</g>
</g>
<!-- Node2&#45;&gt;Node3 -->
<g id="edge2_Node000002_Node000003" class="edge">
<title>Node2&#45;&gt;Node3</title>
<g id="a_edge2_Node000002_Node000003"><a xlink:title=" ">
<path fill="none" stroke="#63b8ff" d="M376.73,-174.27C337.39,-167.73 273.29,-154.93 221.06,-134.25 187.45,-120.94 151.82,-99.1 129.28,-84.18"/>
<polygon fill="#63b8ff" stroke="#63b8ff" points="131.41,-81.4 121.16,-78.72 127.51,-87.21 131.41,-81.4"/>
</a>
</g>
</g>
<!-- Node2&#45;&gt;Node4 -->
<g id="edge7_Node000002_Node000004" class="edge">
<title>Node2&#45;&gt;Node4</title>
<g id="a_edge7_Node000002_Node000004"><a xlink:title=" ">
<path fill="none" stroke="#63b8ff" d="M395.31,-169.87C349.59,-144.73 231.25,-79.52 230.06,-77.5 206.37,-37.15 274.53,-21.37 326.88,-15.23"/>
<polygon fill="#63b8ff" stroke="#63b8ff" points="327.03,-18.73 336.61,-14.19 326.29,-11.77 327.03,-18.73"/>
</a>
</g>
</g>
<!-- Node6 -->
<g id="Node000006" class="node">
<title>Node6</title>
<g id="a_Node000006"><a xlink:title=" ">
<polygon fill="#e0e0e0" stroke="#999999" points="1015.81,-77.5 944.31,-77.5 944.31,-56.75 1015.81,-56.75 1015.81,-77.5"/>
<text xml:space="preserve" text-anchor="middle" x="980.06" y="-64" font-family="Helvetica,sans-Serif" font-size="10.00">FreeRTOS.h</text>
</a>
</g>
</g>
<!-- Node2&#45;&gt;Node6 -->
<g id="edge5_Node000002_Node000006" class="edge">
<title>Node2&#45;&gt;Node6</title>
<g id="a_edge5_Node000002_Node000006"><a xlink:title=" ">
<path fill="none" stroke="#63b8ff" d="M449.47,-179.44C516.21,-178.17 661.92,-170.98 778.06,-134.25 796.78,-128.33 798.83,-120.79 817.06,-113.5 855,-98.34 899.83,-86.25 932.87,-78.38"/>
<polygon fill="#63b8ff" stroke="#63b8ff" points="933.61,-81.8 942.55,-76.12 932.02,-74.99 933.61,-81.8"/>
</a>
</g>
</g>
<!-- Node7 -->
<g id="Node000007" class="node">
<title>Node7</title>
<g id="a_Node000007"><a xlink:title=" ">
<polygon fill="#e0e0e0" stroke="#999999" points="284.06,-134.25 238.06,-134.25 238.06,-113.5 284.06,-113.5 284.06,-134.25"/>
<text xml:space="preserve" text-anchor="middle" x="261.06" y="-120.75" font-family="Helvetica,sans-Serif" font-size="10.00">task.h</text>
</a>
</g>
</g>
<!-- Node2&#45;&gt;Node7 -->
<g id="edge6_Node000002_Node000007" class="edge">
<title>Node2&#45;&gt;Node7</title>
<g id="a_edge6_Node000002_Node000007"><a xlink:title=" ">
<path fill="none" stroke="#63b8ff" d="M385.88,-169.84C360.52,-160.7 322.56,-147.03 295.17,-137.16"/>
<polygon fill="#63b8ff" stroke="#63b8ff" points="296.53,-133.93 285.93,-133.83 294.15,-140.52 296.53,-133.93"/>
</a>
</g>
</g>
<!-- Node2&#45;&gt;Node8 -->
<g id="edge8_Node000002_Node000008" class="edge">
<title>Node2&#45;&gt;Node8</title>
<g id="a_edge8_Node000002_Node000008"><a xlink:title=" ">
<path fill="none" stroke="#63b8ff" d="M437.92,-169.83C458.54,-161.36 488.36,-148.29 513.06,-134.25 539.41,-119.26 567.7,-98.97 586.49,-84.84"/>
<polygon fill="#63b8ff" stroke="#63b8ff" points="588.59,-87.63 594.43,-78.79 584.35,-82.06 588.59,-87.63"/>
</a>
</g>
</g>
<!-- Node9 -->
<g id="Node000009" class="node">
<title>Node9</title>
<g id="a_Node000009"><a xlink:title=" ">
<polygon fill="#e0e0e0" stroke="#999999" points="302.68,-77.5 239.43,-77.5 239.43,-56.75 302.68,-56.75 302.68,-77.5"/>
<text xml:space="preserve" text-anchor="middle" x="271.06" y="-64" font-family="Helvetica,sans-Serif" font-size="10.00">fsl_gpio.h</text>
</a>
</g>
</g>
<!-- Node2&#45;&gt;Node9 -->
<g id="edge9_Node000002_Node000009" class="edge">
<title>Node2&#45;&gt;Node9</title>
<g id="a_edge9_Node000002_Node000009"><a xlink:title=" ">
<path fill="none" stroke="#63b8ff" d="M376.43,-175.88C328.1,-170.09 247.01,-157.17 229.06,-134.25 216.6,-118.35 232.73,-98.65 248.47,-84.9"/>
<polygon fill="#63b8ff" stroke="#63b8ff" points="250.29,-87.94 255.82,-78.9 245.86,-82.51 250.29,-87.94"/>
</a>
</g>
</g>
<!-- Node10 -->
<g id="Node000010" class="node">
<title>Node10</title>
<g id="a_Node000010"><a xlink:title=" ">
<polygon fill="#e0e0e0" stroke="#999999" points="382.93,-77.5 321.18,-77.5 321.18,-56.75 382.93,-56.75 382.93,-77.5"/>
<text xml:space="preserve" text-anchor="middle" x="352.06" y="-64" font-family="Helvetica,sans-Serif" font-size="10.00">fsl_port.h</text>
</a>
</g>
</g>
<!-- Node2&#45;&gt;Node10 -->
<g id="edge10_Node000002_Node000010" class="edge">
<title>Node2&#45;&gt;Node10</title>
<g id="a_edge10_Node000002_Node000010"><a xlink:title=" ">
<path fill="none" stroke="#63b8ff" d="M407.86,-170.12C397.91,-151.94 376.02,-111.92 362.81,-87.77"/>
<polygon fill="#63b8ff" stroke="#63b8ff" points="366.02,-86.35 358.15,-79.25 359.87,-89.71 366.02,-86.35"/>
</a>
</g>
</g>
<!-- Node11 -->
<g id="Node000011" class="node">
<title>Node11</title>
<g id="a_Node000011"><a xlink:href="cmd__handle_8h.html" target="_top" xlink:title=" ">
<polygon fill="white" stroke="#666666" points="769.18,-134.25 684.93,-134.25 684.93,-113.5 769.18,-113.5 769.18,-134.25"/>
<text xml:space="preserve" text-anchor="middle" x="727.06" y="-120.75" font-family="Helvetica,sans-Serif" font-size="10.00">cmd_handle.h</text>
</a>
</g>
</g>
<!-- Node2&#45;&gt;Node11 -->
<g id="edge11_Node000002_Node000011" class="edge">
<title>Node2&#45;&gt;Node11</title>
<g id="a_edge11_Node000002_Node000011"><a xlink:title=" ">
<path fill="none" stroke="#63b8ff" d="M449.38,-173.29C504.51,-163.68 609.63,-145.35 673.53,-134.21"/>
<polygon fill="#63b8ff" stroke="#63b8ff" points="673.83,-137.71 683.08,-132.54 672.63,-130.81 673.83,-137.71"/>
</a>
</g>
</g>
<!-- Node15 -->
<g id="Node000015" class="node">
<title>Node15</title>
<g id="a_Node000015"><a xlink:href="step__shared_8h.html" target="_top" xlink:title=" ">
<polygon fill="white" stroke="#666666" points="504.18,-134.25 419.93,-134.25 419.93,-113.5 504.18,-113.5 504.18,-134.25"/>
<text xml:space="preserve" text-anchor="middle" x="462.06" y="-120.75" font-family="Helvetica,sans-Serif" font-size="10.00">step_shared.h</text>
</a>
</g>
</g>
<!-- Node2&#45;&gt;Node15 -->
<g id="edge17_Node000002_Node000015" class="edge">
<title>Node2&#45;&gt;Node15</title>
<g id="a_edge17_Node000002_Node000015"><a xlink:title=" ">
<path fill="none" stroke="#63b8ff" d="M421.82,-169.84C428.51,-162.36 437.91,-151.86 445.95,-142.88"/>
<polygon fill="#63b8ff" stroke="#63b8ff" points="448.3,-145.49 452.36,-135.71 443.09,-140.82 448.3,-145.49"/>
</a>
</g>
</g>
<!-- Node3&#45;&gt;Node4 -->
<g id="edge3_Node000003_Node000004" class="edge">
<title>Node3&#45;&gt;Node4</title>
<g id="a_edge3_Node000003_Node000004"><a xlink:title=" ">
<path fill="none" stroke="#63b8ff" d="M155.54,-56.27C203.89,-46.65 277.28,-32.04 327.1,-22.12"/>
<polygon fill="#63b8ff" stroke="#63b8ff" points="327.68,-25.57 336.81,-20.18 326.32,-18.7 327.68,-25.57"/>
</a>
</g>
</g>
<!-- Node5 -->
<g id="Node000005" class="node">
<title>Node5</title>
<g id="a_Node000005"><a xlink:title=" ">
<polygon fill="#e0e0e0" stroke="#999999" points="145.93,-20.75 66.18,-20.75 66.18,0 145.93,0 145.93,-20.75"/>
<text xml:space="preserve" text-anchor="middle" x="106.06" y="-7.25" font-family="Helvetica,sans-Serif" font-size="10.00">peripherals.h</text>
</a>
</g>
</g>
<!-- Node3&#45;&gt;Node5 -->
<g id="edge4_Node000003_Node000005" class="edge">
<title>Node3&#45;&gt;Node5</title>
<g id="a_edge4_Node000003_Node000005"><a xlink:title=" ">
<path fill="none" stroke="#63b8ff" d="M106.06,-56.34C106.06,-49.72 106.06,-40.72 106.06,-32.52"/>
<polygon fill="#63b8ff" stroke="#63b8ff" points="109.56,-32.59 106.06,-22.59 102.56,-32.59 109.56,-32.59"/>
</a>
</g>
</g>
<!-- Node11&#45;&gt;Node4 -->
<g id="edge15_Node000011_Node000004" class="edge">
<title>Node11&#45;&gt;Node4</title>
<g id="a_edge15_Node000011_Node000004"><a xlink:title=" ">
<path fill="none" stroke="#63b8ff" d="M769.47,-114.35C817.2,-104.33 889.17,-87.77 897.06,-77.5 902.67,-70.19 903.29,-63.55 897.06,-56.75 866.28,-23.15 560.82,-14.31 434.89,-12.09"/>
<polygon fill="#63b8ff" stroke="#63b8ff" points="435.21,-8.59 425.15,-11.92 435.09,-15.59 435.21,-8.59"/>
</a>
</g>
</g>
<!-- Node11&#45;&gt;Node6 -->
<g id="edge13_Node000011_Node000006" class="edge">
<title>Node11&#45;&gt;Node6</title>
<g id="a_edge13_Node000011_Node000006"><a xlink:title=" ">
<path fill="none" stroke="#63b8ff" d="M769.4,-113.71C814.63,-103.92 886.11,-88.45 933.05,-78.3"/>
<polygon fill="#63b8ff" stroke="#63b8ff" points="933.62,-81.76 942.65,-76.22 932.14,-74.91 933.62,-81.76"/>
</a>
</g>
</g>
<!-- Node12 -->
<g id="Node000012" class="node">
<title>Node12</title>
<g id="a_Node000012"><a xlink:title=" ">
<polygon fill="#e0e0e0" stroke="#999999" points="708.43,-77.5 655.68,-77.5 655.68,-56.75 708.43,-56.75 708.43,-77.5"/>
<text xml:space="preserve" text-anchor="middle" x="682.06" y="-64" font-family="Helvetica,sans-Serif" font-size="10.00">stdint.h</text>
</a>
</g>
</g>
<!-- Node11&#45;&gt;Node12 -->
<g id="edge12_Node000011_Node000012" class="edge">
<title>Node11&#45;&gt;Node12</title>
<g id="a_edge12_Node000011_Node000012"><a xlink:title=" ">
<path fill="none" stroke="#63b8ff" d="M719.01,-113.09C713,-105.77 704.59,-95.54 697.32,-86.69"/>
<polygon fill="#63b8ff" stroke="#63b8ff" points="700.05,-84.5 690.99,-79 694.64,-88.95 700.05,-84.5"/>
</a>
</g>
</g>
<!-- Node13 -->
<g id="Node000013" class="node">
<title>Node13</title>
<g id="a_Node000013"><a xlink:title=" ">
<polygon fill="#e0e0e0" stroke="#999999" points="887.56,-77.5 796.56,-77.5 796.56,-56.75 887.56,-56.75 887.56,-77.5"/>
<text xml:space="preserve" text-anchor="middle" x="842.06" y="-64" font-family="Helvetica,sans-Serif" font-size="10.00">event_groups.h</text>
</a>
</g>
</g>
<!-- Node11&#45;&gt;Node13 -->
<g id="edge14_Node000011_Node000013" class="edge">
<title>Node11&#45;&gt;Node13</title>
<g id="a_edge14_Node000011_Node000013"><a xlink:title=" ">
<path fill="none" stroke="#63b8ff" d="M747.62,-113.09C765.36,-104.64 791.24,-92.32 811.43,-82.71"/>
<polygon fill="#63b8ff" stroke="#63b8ff" points="812.78,-85.94 820.31,-78.48 809.78,-79.62 812.78,-85.94"/>
</a>
</g>
</g>
<!-- Node14 -->
<g id="Node000014" class="node">
<title>Node14</title>
<g id="a_Node000014"><a xlink:title=" ">
<polygon fill="#e0e0e0" stroke="#999999" points="778.06,-77.5 726.06,-77.5 726.06,-56.75 778.06,-56.75 778.06,-77.5"/>
<text xml:space="preserve" text-anchor="middle" x="752.06" y="-64" font-family="Helvetica,sans-Serif" font-size="10.00">stdlib.h</text>
</a>
</g>
</g>
<!-- Node11&#45;&gt;Node14 -->
<g id="edge16_Node000011_Node000014" class="edge">
<title>Node11&#45;&gt;Node14</title>
<g id="a_edge16_Node000011_Node000014"><a xlink:title=" ">
<path fill="none" stroke="#63b8ff" d="M731.53,-113.09C734.69,-106.16 739.05,-96.62 742.93,-88.11"/>
<polygon fill="#63b8ff" stroke="#63b8ff" points="746.03,-89.76 747,-79.21 739.66,-86.85 746.03,-89.76"/>
</a>
</g>
</g>
<!-- Node15&#45;&gt;Node3 -->
<g id="edge19_Node000015_Node000003" class="edge">
<title>Node15&#45;&gt;Node3</title>
<g id="a_edge19_Node000015_Node000003"><a xlink:title=" ">
<path fill="none" stroke="#63b8ff" d="M419.47,-116.33C360.69,-107.29 253.78,-90.84 181.35,-79.7"/>
<polygon fill="#63b8ff" stroke="#63b8ff" points="181.95,-76.26 171.53,-78.19 180.89,-83.17 181.95,-76.26"/>
</a>
</g>
</g>
<!-- Node15&#45;&gt;Node4 -->
<g id="edge21_Node000015_Node000004" class="edge">
<title>Node15&#45;&gt;Node4</title>
<g id="a_edge21_Node000015_Node000004"><a xlink:title=" ">
<path fill="none" stroke="#63b8ff" d="M486.66,-113.01C513.01,-100.98 548.92,-79.42 532.06,-56.75 509.9,-26.95 468.82,-15.99 435.09,-12.27"/>
<polygon fill="#63b8ff" stroke="#63b8ff" points="435.76,-8.82 425.49,-11.41 435.13,-15.79 435.76,-8.82"/>
</a>
</g>
</g>
<!-- Node15&#45;&gt;Node8 -->
<g id="edge22_Node000015_Node000008" class="edge">
<title>Node15&#45;&gt;Node8</title>
<g id="a_edge22_Node000015_Node000008"><a xlink:title=" ">
<path fill="none" stroke="#63b8ff" d="M488.16,-113.09C511.41,-104.37 545.67,-91.52 571.62,-81.79"/>
<polygon fill="#63b8ff" stroke="#63b8ff" points="572.63,-85.15 580.76,-78.36 570.17,-78.59 572.63,-85.15"/>
</a>
</g>
</g>
<!-- Node15&#45;&gt;Node9 -->
<g id="edge23_Node000015_Node000009" class="edge">
<title>Node15&#45;&gt;Node9</title>
<g id="a_edge23_Node000015_Node000009"><a xlink:title=" ">
<path fill="none" stroke="#63b8ff" d="M427.91,-113.09C395.96,-103.93 348.12,-90.21 313.68,-80.34"/>
<polygon fill="#63b8ff" stroke="#63b8ff" points="315.04,-77.09 304.46,-77.7 313.11,-83.82 315.04,-77.09"/>
</a>
</g>
</g>
<!-- Node15&#45;&gt;Node10 -->
<g id="edge24_Node000015_Node000010" class="edge">
<title>Node15&#45;&gt;Node10</title>
<g id="a_edge24_Node000015_Node000010"><a xlink:title=" ">
<path fill="none" stroke="#63b8ff" d="M442.39,-113.09C425.5,-104.68 400.89,-92.43 381.62,-82.84"/>
<polygon fill="#63b8ff" stroke="#63b8ff" points="383.42,-79.83 372.91,-78.5 380.3,-86.09 383.42,-79.83"/>
</a>
</g>
</g>
<!-- Node15&#45;&gt;Node12 -->
<g id="edge18_Node000015_Node000012" class="edge">
<title>Node15&#45;&gt;Node12</title>
<g id="a_edge18_Node000015_Node000012"><a xlink:title=" ">
<path fill="none" stroke="#63b8ff" d="M502.66,-113.02C537.63,-104.5 589.76,-91.71 644.38,-77.9"/>
<polygon fill="#63b8ff" stroke="#63b8ff" points="645.03,-81.35 653.86,-75.5 643.31,-74.56 645.03,-81.35"/>
</a>
</g>
</g>
<!-- Node16 -->
<g id="Node000016" class="node">
<title>Node16</title>
<g id="a_Node000016"><a xlink:title=" ">
<polygon fill="#e0e0e0" stroke="#999999" points="523.31,-77.5 400.81,-77.5 400.81,-56.75 523.31,-56.75 523.31,-77.5"/>
<text xml:space="preserve" text-anchor="middle" x="462.06" y="-64" font-family="Helvetica,sans-Serif" font-size="10.00">fsl_device_registers.h</text>
</a>
</g>
</g>
<!-- Node15&#45;&gt;Node16 -->
<g id="edge20_Node000015_Node000016" class="edge">
<title>Node15&#45;&gt;Node16</title>
<g id="a_edge20_Node000015_Node000016"><a xlink:title=" ">
<path fill="none" stroke="#63b8ff" d="M462.06,-113.09C462.06,-106.47 462.06,-97.47 462.06,-89.27"/>
<polygon fill="#63b8ff" stroke="#63b8ff" points="465.56,-89.34 462.06,-79.34 458.56,-89.34 465.56,-89.34"/>
</a>
</g>
</g>
<!-- Node17&#45;&gt;Node6 -->
<g id="edge28_Node000017_Node000006" class="edge">
<title>Node17&#45;&gt;Node6</title>
<g id="a_edge28_Node000017_Node000006"><a xlink:title=" ">
<path fill="none" stroke="#63b8ff" d="M783.83,-176.73C843.34,-171.93 943.94,-160.13 969.06,-134.25 980.47,-122.49 982.65,-103.67 982.31,-89.11"/>
<polygon fill="#63b8ff" stroke="#63b8ff" points="985.81,-88.94 981.63,-79.21 978.83,-89.42 985.81,-88.94"/>
</a>
</g>
</g>
<!-- Node17&#45;&gt;Node11 -->
<g id="edge30_Node000017_Node000011" class="edge">
<title>Node17&#45;&gt;Node11</title>
<g id="a_edge30_Node000017_Node000011"><a xlink:title=" ">
<path fill="none" stroke="#63b8ff" d="M736.91,-169.84C735.44,-163.14 733.44,-154.01 731.63,-145.73"/>
<polygon fill="#63b8ff" stroke="#63b8ff" points="735.07,-145.08 729.51,-136.06 728.23,-146.57 735.07,-145.08"/>
</a>
</g>
</g>
<!-- Node17&#45;&gt;Node12 -->
<g id="edge26_Node000017_Node000012" class="edge">
<title>Node17&#45;&gt;Node12</title>
<g id="a_edge26_Node000017_Node000012"><a xlink:title=" ">
<path fill="none" stroke="#63b8ff" d="M716.01,-169.82C701.67,-162.35 684.41,-150.57 676.06,-134.25 668.82,-120.12 671.11,-102.07 674.76,-88.39"/>
<polygon fill="#63b8ff" stroke="#63b8ff" points="678,-89.75 677.67,-79.16 671.33,-87.65 678,-89.75"/>
</a>
</g>
</g>
<!-- Node17&#45;&gt;Node15 -->
<g id="edge31_Node000017_Node000015" class="edge">
<title>Node17&#45;&gt;Node15</title>
<g id="a_edge31_Node000017_Node000015"><a xlink:title=" ">
<path fill="none" stroke="#63b8ff" d="M694.24,-170.77C645.46,-161.12 567.47,-145.71 515.52,-135.44"/>
<polygon fill="#63b8ff" stroke="#63b8ff" points="516.51,-132.07 506.02,-133.56 515.15,-138.94 516.51,-132.07"/>
</a>
</g>
</g>
<!-- Node18 -->
<g id="Node000018" class="node">
<title>Node18</title>
<g id="a_Node000018"><a xlink:title=" ">
<polygon fill="#e0e0e0" stroke="#999999" points="886.56,-134.25 825.56,-134.25 825.56,-113.5 886.56,-113.5 886.56,-134.25"/>
<text xml:space="preserve" text-anchor="middle" x="856.06" y="-120.75" font-family="Helvetica,sans-Serif" font-size="10.00">stdbool.h</text>
</a>
</g>
</g>
<!-- Node17&#45;&gt;Node18 -->
<g id="edge27_Node000017_Node000018" class="edge">
<title>Node17&#45;&gt;Node18</title>
<g id="a_edge27_Node000017_Node000018"><a xlink:title=" ">
<path fill="none" stroke="#63b8ff" d="M759.97,-169.84C778.03,-161.39 804.36,-149.07 824.89,-139.46"/>
<polygon fill="#63b8ff" stroke="#63b8ff" points="826.38,-142.63 833.95,-135.22 823.41,-136.29 826.38,-142.63"/>
</a>
</g>
</g>
<!-- Node19 -->
<g id="Node000019" class="node">
<title>Node19</title>
<g id="a_Node000019"><a xlink:title=" ">
<polygon fill="#e0e0e0" stroke="#999999" points="959.56,-134.25 904.56,-134.25 904.56,-113.5 959.56,-113.5 959.56,-134.25"/>
<text xml:space="preserve" text-anchor="middle" x="932.06" y="-120.75" font-family="Helvetica,sans-Serif" font-size="10.00">queue.h</text>
</a>
</g>
</g>
<!-- Node17&#45;&gt;Node19 -->
<g id="edge29_Node000017_Node000019" class="edge">
<title>Node17&#45;&gt;Node19</title>
<g id="a_edge29_Node000017_Node000019"><a xlink:title=" ">
<path fill="none" stroke="#63b8ff" d="M773.56,-169.84C807.22,-160.29 858.32,-145.79 893.35,-135.86"/>
<polygon fill="#63b8ff" stroke="#63b8ff" points="893.99,-139.31 902.65,-133.22 892.08,-132.58 893.99,-139.31"/>
</a>
</g>
</g>
<!-- Node20&#45;&gt;Node17 -->
<g id="edge35_Node000020_Node000017" class="edge">
<title>Node20&#45;&gt;Node17</title>
<g id="a_edge35_Node000020_Node000017"><a xlink:title=" ">
<path fill="none" stroke="#63b8ff" d="M684.86,-226.59C694.24,-218.8 707.59,-207.72 718.7,-198.51"/>
<polygon fill="#63b8ff" stroke="#63b8ff" points="720.73,-201.37 726.19,-192.29 716.26,-195.99 720.73,-201.37"/>
</a>
</g>
</g>
<!-- Node21&#45;&gt;Node4 -->
<g id="edge38_Node000021_Node000004" class="edge">
<title>Node21&#45;&gt;Node4</title>
<g id="a_edge38_Node000021_Node000004"><a xlink:title=" ">
<path fill="none" stroke="#63b8ff" d="M1037.76,-113.07C1039.67,-98.41 1040.72,-71 1025.06,-56.75 981.87,-17.46 582.38,-12.07 435.18,-11.42"/>
<polygon fill="#63b8ff" stroke="#63b8ff" points="435.32,-7.92 425.3,-11.39 435.29,-14.92 435.32,-7.92"/>
</a>
</g>
</g>
<!-- Node21&#45;&gt;Node6 -->
<g id="edge37_Node000021_Node000006" class="edge">
<title>Node21&#45;&gt;Node6</title>
<g id="a_edge37_Node000021_Node000006"><a xlink:title=" ">
<path fill="none" stroke="#63b8ff" d="M1026.05,-113.09C1018.32,-105.53 1007.43,-94.89 998.18,-85.85"/>
<polygon fill="#63b8ff" stroke="#63b8ff" points="1000.66,-83.37 991.06,-78.89 995.77,-88.38 1000.66,-83.37"/>
</a>
</g>
</g>
</g>
</svg>

<g id="navigator" transform="translate(0 0)" fill="#404254">
  <rect fill="#f2f5e9" fill-opacity="0.5" stroke="#606060" stroke-width=".5" x="0" y="0" width="60" height="60"/>
  <use id="zoomplus" xlink:href="#zoomPlus" x="17" y="9" onmousedown="handleZoom(evt,'in')"/>
  <use id="zoomminus" xlink:href="#zoomMin" x="42" y="9" onmousedown="handleZoom(evt,'out')"/>
  <use id="reset" xlink:href="#resetDef" x="30" y="36" onmousedown="handleReset()"/>
   <use id="arrowup" xlink:href="#arrowUp" x="0" y="0" onmousedown="handlePan(0,-1)"/>
  <use id="arrowright" xlink:href="#arrowRight" x="0" y="0" onmousedown="handlePan(1,0)"/>
  <use id="arrowdown" xlink:href="#arrowDown" x="0" y="0" onmousedown="handlePan(0,1)"/>
  <use id="arrowleft" xlink:href="#arrowLeft" x="0" y="0" onmousedown="handlePan(-1,0)"/>
</g>
<svg viewBox="0 0 15 15" width="100%" height="30px" preserveAspectRatio="xMaxYMin meet">
 <g id="arrow_out" transform="scale(0.3 0.3)">
  <a xlink:href="step__core_8c__incl_org.svg" target="_base">
   <rect id="button" ry="5" rx="5" y="6" x="6" height="38" width="38"
        fill="#f2f5e9" fill-opacity="0.5" stroke="#606060" stroke-width="1.0"/>
   <path id="arrow"
     d="M 11.500037,31.436501 C 11.940474,20.09759 22.043105,11.32322 32.158766,21.979434 L 37.068811,17.246167 C 37.068811,17.246167 37.088388,32 37.088388,32 L 22.160133,31.978069 C 22.160133,31.978069 26.997745,27.140456 26.997745,27.140456 C 18.528582,18.264221 13.291696,25.230495 11.500037,31.436501 z"
     style="fill:#404040;"/>
  </a>
 </g>
</svg>

<style type='text/css'>
<![CDATA[
[data-mouse-over-selected='false'] { opacity: 0.7; }
[data-mouse-over-selected='true']  { opacity: 1.0; }
]]>
</style>
<script type="application/ecmascript"><![CDATA[
document.addEventListener('DOMContentLoaded', (event) => {
  highlightEdges();
  highlightAdjacentNodes();
});
]]></script>
</svg>
