<?xml version="1.0" encoding="UTF-8" standalone="no"?>
<!DOCTYPE svg PUBLIC "-//W3C//DTD SVG 1.1//EN"
 "http://www.w3.org/Graphics/SVG/1.1/DTD/svg11.dtd">
<!-- Generated by graphviz version 14.1.2 (0)
 -->
<!-- Title: source/step.c Pages: 1 -->
<svg width="606pt" height="142pt"
 viewBox="0.00 0.00 606.00 142.00" xmlns="http://www.w3.org/2000/svg" xmlns:xlink="http://www.w3.org/1999/xlink">
<g id="graph0" class="graph" transform="scale(1 1) rotate(0) translate(4 138.25)">
<title>source/step.c</title>
<!-- Node1 -->
<g id="Node000001" class="node">
<title>Node1</title>
<g id="a_Node000001"><a xlink:title=" ">
<polygon fill="#999999" stroke="#666666" points="418.62,-134.25 338.12,-134.25 338.12,-113.5 418.62,-113.5 418.62,-134.25"/>
<text xml:space="preserve" text-anchor="middle" x="378.38" y="-120.75" font-family="Helvetica,sans-Serif" font-size="10.00">source/step.c</text>
</a>
</g>
</g>
<!-- Node2 -->
<g id="Node000002" class="node">
<title>Node2</title>
<g id="a_Node000002"><a xlink:href="step_8h.html" target="_top" xlink:title=" ">
<polygon fill="white" stroke="#666666" points="172.38,-77.5 126.38,-77.5 126.38,-56.75 172.38,-56.75 172.38,-77.5"/>
<text xml:space="preserve" text-anchor="middle" x="149.38" y="-64" font-family="Helvetica,sans-Serif" font-size="10.00">step.h</text>
</a>
</g>
</g>
<!-- Node1&#45;&gt;Node2 -->
<g id="edge1_Node000001_Node000002" class="edge">
<title>Node1&#45;&gt;Node2</title>
<g id="a_edge1_Node000001_Node000002"><a xlink:title=" ">
<path fill="none" stroke="#63b8ff" d="M337.7,-113.15C293.85,-102.67 224.83,-86.17 183.65,-76.32"/>
<polygon fill="#63b8ff" stroke="#63b8ff" points="184.58,-72.94 174.04,-74.02 182.95,-79.75 184.58,-72.94"/>
</a>
</g>
</g>
<!-- Node6 -->
<g id="Node000006" class="node">
<title>Node6</title>
<g id="a_Node000006"><a xlink:href="log_8h.html" target="_top" xlink:title=" ">
<polygon fill="white" stroke="#666666" points="294.38,-77.5 254.38,-77.5 254.38,-56.75 294.38,-56.75 294.38,-77.5"/>
<text xml:space="preserve" text-anchor="middle" x="274.38" y="-64" font-family="Helvetica,sans-Serif" font-size="10.00">log.h</text>
</a>
</g>
</g>
<!-- Node1&#45;&gt;Node6 -->
<g id="edge5_Node000001_Node000006" class="edge">
<title>Node1&#45;&gt;Node6</title>
<g id="a_edge5_Node000001_Node000006"><a xlink:title=" ">
<path fill="none" stroke="#63b8ff" d="M359.78,-113.09C343.96,-104.76 320.98,-92.66 302.84,-83.11"/>
<polygon fill="#63b8ff" stroke="#63b8ff" points="304.63,-80.09 294.15,-78.53 301.36,-86.29 304.63,-80.09"/>
</a>
</g>
</g>
<!-- Node9 -->
<g id="Node000009" class="node">
<title>Node9</title>
<g id="a_Node000009"><a xlink:title=" ">
<polygon fill="#e0e0e0" stroke="#999999" points="362.62,-77.5 312.12,-77.5 312.12,-56.75 362.62,-56.75 362.62,-77.5"/>
<text xml:space="preserve" text-anchor="middle" x="337.38" y="-64" font-family="Helvetica,sans-Serif" font-size="10.00">math.h</text>
</a>
</g>
</g>
<!-- Node1&#45;&gt;Node9 -->
<g id="edge8_Node000001_Node000009" class="edge">
<title>Node1&#45;&gt;Node9</title>
<g id="a_edge8_Node000001_Node000009"><a xlink:title=" ">
<path fill="none" stroke="#63b8ff" d="M371.05,-113.09C365.62,-105.85 358.07,-95.76 351.49,-86.97"/>
<polygon fill="#63b8ff" stroke="#63b8ff" points="354.34,-84.95 345.55,-79.04 348.74,-89.14 354.34,-84.95"/>
</a>
</g>
</g>
<!-- Node10 -->
<g id="Node000010" class="node">
<title>Node10</title>
<g id="a_Node000010"><a xlink:title=" ">
<polygon fill="#e0e0e0" stroke="#999999" points="460.25,-77.5 380.5,-77.5 380.5,-56.75 460.25,-56.75 460.25,-77.5"/>
<text xml:space="preserve" text-anchor="middle" x="420.38" y="-64" font-family="Helvetica,sans-Serif" font-size="10.00">peripherals.h</text>
</a>
</g>
</g>
<!-- Node1&#45;&gt;Node10 -->
<g id="edge9_Node000001_Node000010" class="edge">
<title>Node1&#45;&gt;Node10</title>
<g id="a_edge9_Node000001_Node000010"><a xlink:title=" ">
<path fill="none" stroke="#63b8ff" d="M385.88,-113.09C391.5,-105.77 399.34,-95.54 406.13,-86.69"/>
<polygon fill="#63b8ff" stroke="#63b8ff" points="408.7,-89.09 412.01,-79.03 403.15,-84.83 408.7,-89.09"/>
</a>
</g>
</g>
<!-- Node11 -->
<g id="Node000011" class="node">
<title>Node11</title>
<g id="a_Node000011"><a xlink:title=" ">
<polygon fill="#e0e0e0" stroke="#999999" points="526.88,-77.5 477.88,-77.5 477.88,-56.75 526.88,-56.75 526.88,-77.5"/>
<text xml:space="preserve" text-anchor="middle" x="502.38" y="-64" font-family="Helvetica,sans-Serif" font-size="10.00">stdio.h</text>
</a>
</g>
</g>
<!-- Node1&#45;&gt;Node11 -->
<g id="edge10_Node000001_Node000011" class="edge">
<title>Node1&#45;&gt;Node11</title>
<g id="a_edge10_Node000001_Node000011"><a xlink:title=" ">
<path fill="none" stroke="#63b8ff" d="M400.54,-113.09C419.85,-104.56 448.1,-92.09 469.95,-82.44"/>
<polygon fill="#63b8ff" stroke="#63b8ff" points="471.28,-85.68 479.01,-78.44 468.45,-79.28 471.28,-85.68"/>
</a>
</g>
</g>
<!-- Node12 -->
<g id="Node000012" class="node">
<title>Node12</title>
<g id="a_Node000012"><a xlink:title=" ">
<polygon fill="#e0e0e0" stroke="#999999" points="597.75,-77.5 545,-77.5 545,-56.75 597.75,-56.75 597.75,-77.5"/>
<text xml:space="preserve" text-anchor="middle" x="571.38" y="-64" font-family="Helvetica,sans-Serif" font-size="10.00">string.h</text>
</a>
</g>
</g>
<!-- Node1&#45;&gt;Node12 -->
<g id="edge11_Node000001_Node000012" class="edge">
<title>Node1&#45;&gt;Node12</title>
<g id="a_edge11_Node000001_Node000012"><a xlink:title=" ">
<path fill="none" stroke="#63b8ff" d="M412.88,-113.09C446.93,-103.43 498.83,-88.7 533.88,-78.76"/>
<polygon fill="#63b8ff" stroke="#63b8ff" points="534.5,-82.22 543.17,-76.13 532.59,-75.49 534.5,-82.22"/>
</a>
</g>
</g>
<!-- Node3 -->
<g id="Node000003" class="node">
<title>Node3</title>
<g id="a_Node000003"><a xlink:title=" ">
<polygon fill="#e0e0e0" stroke="#999999" points="58.75,-20.75 0,-20.75 0,0 58.75,0 58.75,-20.75"/>
<text xml:space="preserve" text-anchor="middle" x="29.38" y="-7.25" font-family="Helvetica,sans-Serif" font-size="10.00">fsl_ftm.h</text>
</a>
</g>
</g>
<!-- Node2&#45;&gt;Node3 -->
<g id="edge2_Node000002_Node000003" class="edge">
<title>Node2&#45;&gt;Node3</title>
<g id="a_edge2_Node000002_Node000003"><a xlink:title=" ">
<path fill="none" stroke="#63b8ff" d="M127.92,-56.34C109.32,-47.85 82.15,-35.45 61.05,-25.83"/>
<polygon fill="#63b8ff" stroke="#63b8ff" points="62.57,-22.67 52.02,-21.71 59.66,-29.04 62.57,-22.67"/>
</a>
</g>
</g>
<!-- Node4 -->
<g id="Node000004" class="node">
<title>Node4</title>
<g id="a_Node000004"><a xlink:title=" ">
<polygon fill="#e0e0e0" stroke="#999999" points="140,-20.75 76.75,-20.75 76.75,0 140,0 140,-20.75"/>
<text xml:space="preserve" text-anchor="middle" x="108.38" y="-7.25" font-family="Helvetica,sans-Serif" font-size="10.00">fsl_gpio.h</text>
</a>
</g>
</g>
<!-- Node2&#45;&gt;Node4 -->
<g id="edge3_Node000002_Node000004" class="edge">
<title>Node2&#45;&gt;Node4</title>
<g id="a_edge3_Node000002_Node000004"><a xlink:title=" ">
<path fill="none" stroke="#63b8ff" d="M142.05,-56.34C136.62,-49.1 129.07,-39.01 122.49,-30.22"/>
<polygon fill="#63b8ff" stroke="#63b8ff" points="125.34,-28.2 116.55,-22.29 119.74,-32.39 125.34,-28.2"/>
</a>
</g>
</g>
<!-- Node5 -->
<g id="Node000005" class="node">
<title>Node5</title>
<g id="a_Node000005"><a xlink:title=" ">
<polygon fill="#e0e0e0" stroke="#999999" points="220.25,-20.75 158.5,-20.75 158.5,0 220.25,0 220.25,-20.75"/>
<text xml:space="preserve" text-anchor="middle" x="189.38" y="-7.25" font-family="Helvetica,sans-Serif" font-size="10.00">fsl_port.h</text>
</a>
</g>
</g>
<!-- Node2&#45;&gt;Node5 -->
<g id="edge4_Node000002_Node000005" class="edge">
<title>Node2&#45;&gt;Node5</title>
<g id="a_edge4_Node000002_Node000005"><a xlink:title=" ">
<path fill="none" stroke="#63b8ff" d="M156.53,-56.34C161.82,-49.1 169.19,-39.01 175.6,-30.22"/>
<polygon fill="#63b8ff" stroke="#63b8ff" points="178.32,-32.44 181.39,-22.3 172.67,-28.31 178.32,-32.44"/>
</a>
</g>
</g>
<!-- Node7 -->
<g id="Node000007" class="node">
<title>Node7</title>
<g id="a_Node000007"><a xlink:title=" ">
<polygon fill="#e0e0e0" stroke="#999999" points="310.12,-20.75 238.62,-20.75 238.62,0 310.12,0 310.12,-20.75"/>
<text xml:space="preserve" text-anchor="middle" x="274.38" y="-7.25" font-family="Helvetica,sans-Serif" font-size="10.00">FreeRTOS.h</text>
</a>
</g>
</g>
<!-- Node6&#45;&gt;Node7 -->
<g id="edge6_Node000006_Node000007" class="edge">
<title>Node6&#45;&gt;Node7</title>
<g id="a_edge6_Node000006_Node000007"><a xlink:title=" ">
<path fill="none" stroke="#63b8ff" d="M274.38,-56.34C274.38,-49.72 274.38,-40.72 274.38,-32.52"/>
<polygon fill="#63b8ff" stroke="#63b8ff" points="277.88,-32.59 274.38,-22.59 270.88,-32.59 277.88,-32.59"/>
</a>
</g>
</g>
<!-- Node8 -->
<g id="Node000008" class="node">
<title>Node8</title>
<g id="a_Node000008"><a xlink:title=" ">
<polygon fill="#e0e0e0" stroke="#999999" points="412.88,-20.75 327.88,-20.75 327.88,0 412.88,0 412.88,-20.75"/>
<text xml:space="preserve" text-anchor="middle" x="370.38" y="-7.25" font-family="Helvetica,sans-Serif" font-size="10.00">fsl_common.h</text>
</a>
</g>
</g>
<!-- Node6&#45;&gt;Node8 -->
<g id="edge7_Node000006_Node000008" class="edge">
<title>Node6&#45;&gt;Node8</title>
<g id="a_edge7_Node000006_Node000008"><a xlink:title=" ">
<path fill="none" stroke="#63b8ff" d="M291.54,-56.34C306.01,-48.08 326.96,-36.13 343.63,-26.63"/>
<polygon fill="#63b8ff" stroke="#63b8ff" points="345.09,-29.82 352.05,-21.83 341.63,-23.74 345.09,-29.82"/>
</a>
</g>
</g>
</g>
</svg>
