<?xml version="1.0" encoding="UTF-8" standalone="no"?>
<!DOCTYPE svg PUBLIC "-//W3C//DTD SVG 1.1//EN"
 "http://www.w3.org/Graphics/SVG/1.1/DTD/svg11.dtd">
<!-- Generated by graphviz version 14.1.4 (0)
 -->
<!-- Title: source/step.h Pages: 1 -->
<!--zoomable 199 -->

<svg id="main" version="1.1" xmlns="http://www.w3.org/2000/svg" xmlns:xlink="http://www.w3.org/1999/xlink" xml:space="preserve" onload="init(evt)">

<style type="text/css"><![CDATA[
.node, .edge {opacity: 0.7;}
.node.selected, .edge.selected {opacity: 1;}
.edge:hover path { stroke: red; }
.edge:hover polygon { stroke: red; fill: red; }
]]></style>

<defs>
  <circle id="rim" cx="0" cy="0" r="7"/>
  <circle id="rim2" cx="0" cy="0" r="3.5"/>
  <g id="zoomPlus">
    <use xlink:href="#rim" fill="#404040"><set attributeName="fill" to="#808080" begin="zoomplus.mouseover" end="zoomplus.mouseout"/></use>
    <path d="M-4,0h8M0,-4v8" fill="none" stroke="white" stroke-width="1.5" pointer-events="none"/>
  </g>
  <g id="zoomMin">
    <use xlink:href="#rim" fill="#404040"><set attributeName="fill" to="#808080" begin="zoomminus.mouseover" end="zoomminus.mouseout"/></use>
    <path d="M-4,0h8" fill="none" stroke="white" stroke-width="1.5" pointer-events="none"/>
  </g>
  <g id="arrowUp" transform="translate(30 24)">
    <use xlink:href="#rim"/>
    <path pointer-events="none" fill="none" stroke="white" stroke-width="1.5" d="M0,-3.0v7 M-2.5,-0.5L0,-3.0L2.5,-0.5"/>
  </g>
  <g id="arrowRight" transform="rotate(90) translate(36 -43)">
    <use xlink:href="#rim"/>
    <path pointer-events="none" fill="none" stroke="white" stroke-width="1.5" d="M0,-3.0v7 M-2.5,-0.5L0,-3.0L2.5,-0.5"/>
  </g>
  <g id="arrowDown" transform="rotate(180) translate(-30 -48)">
    <use xlink:href="#rim"/>
    <path pointer-events="none" fill="none" stroke="white" stroke-width="1.5" d="M0,-3.0v7 M-2.5,-0.5L0,-3.0L2.5,-0.5"/>
  </g>
  <g id="arrowLeft" transform="rotate(270) translate(-36 17)">
    <use xlink:href="#rim"/>
    <path pointer-events="none" fill="none" stroke="white" stroke-width="1.5" d="M0,-3.0v7 M-2.5,-0.5L0,-3.0L2.5,-0.5"/>
  </g>
  <g id="resetDef">
    <use xlink:href="#rim2" fill="#404040"><set attributeName="fill" to="#808080" begin="reset.mouseover" end="reset.mouseout"/></use>
  </g>
</defs>
<script type="application/ecmascript">
var viewWidth = 628;
var viewHeight = 199;
var sectionId = 'dynsection-0';
</script>
<script type="application/ecmascript" xlink:href="svg.min.js"/>
<svg id="graph" class="graph">
<g id="viewport">
<title>source/step.h</title>
<!-- Node1 -->
<g id="Node000001" class="node">
<title>Node1</title>
<g id="a_Node000001"><a xlink:title=" ">
<polygon fill="#999999" stroke="#666666" points="334.56,-191 253.31,-191 253.31,-170.25 334.56,-170.25 334.56,-191"/>
<text xml:space="preserve" text-anchor="middle" x="293.94" y="-177.5" font-family="Helvetica,sans-Serif" font-size="10.00">source/step.h</text>
</a>
</g>
</g>
<!-- Node2 -->
<g id="Node000002" class="node">
<title>Node2</title>
<g id="a_Node000002"><a xlink:title=" ">
<polygon fill="#e0e0e0" stroke="#999999" points="121.69,-20.75 50.19,-20.75 50.19,0 121.69,0 121.69,-20.75"/>
<text xml:space="preserve" text-anchor="middle" x="85.94" y="-7.25" font-family="Helvetica,sans-Serif" font-size="10.00">FreeRTOS.h</text>
</a>
</g>
</g>
<!-- Node1&#45;&gt;Node2 -->
<g id="edge1_Node000001_Node000002" class="edge">
<title>Node1&#45;&gt;Node2</title>
<g id="a_edge1_Node000001_Node000002"><a xlink:title=" ">
<path fill="none" stroke="#63b8ff" d="M253.05,-176.54C208.12,-171.93 134.66,-160.73 76.94,-134.25 39.27,-116.97 21.27,-114.67 2.94,-77.5 -8.49,-54.34 17.49,-36.71 43.33,-25.51"/>
<polygon fill="#63b8ff" stroke="#63b8ff" points="44.54,-28.8 52.5,-21.81 41.92,-22.3 44.54,-28.8"/>
</a>
</g>
</g>
<!-- Node3 -->
<g id="Node000003" class="node">
<title>Node3</title>
<g id="a_Node000003"><a xlink:title=" ">
<polygon fill="#e0e0e0" stroke="#999999" points="57.94,-77.5 11.94,-77.5 11.94,-56.75 57.94,-56.75 57.94,-77.5"/>
<text xml:space="preserve" text-anchor="middle" x="34.94" y="-64" font-family="Helvetica,sans-Serif" font-size="10.00">task.h</text>
</a>
</g>
</g>
<!-- Node1&#45;&gt;Node3 -->
<g id="edge2_Node000001_Node000003" class="edge">
<title>Node1&#45;&gt;Node3</title>
<g id="a_edge2_Node000001_Node000003"><a xlink:title=" ">
<path fill="none" stroke="#63b8ff" d="M253.09,-175.1C214.66,-169.58 156.39,-157.88 110.94,-134.25 87.33,-121.97 64.94,-100.93 50.66,-85.88"/>
<polygon fill="#63b8ff" stroke="#63b8ff" points="53.61,-83.92 44.26,-78.94 48.46,-88.67 53.61,-83.92"/>
</a>
</g>
</g>
<!-- Node4 -->
<g id="Node000004" class="node">
<title>Node4</title>
<g id="a_Node000004"><a xlink:title=" ">
<polygon fill="#e0e0e0" stroke="#999999" points="497.44,-20.75 412.44,-20.75 412.44,0 497.44,0 497.44,-20.75"/>
<text xml:space="preserve" text-anchor="middle" x="454.94" y="-7.25" font-family="Helvetica,sans-Serif" font-size="10.00">fsl_common.h</text>
</a>
</g>
</g>
<!-- Node1&#45;&gt;Node4 -->
<g id="edge3_Node000001_Node000004" class="edge">
<title>Node1&#45;&gt;Node4</title>
<g id="a_edge3_Node000001_Node000004"><a xlink:title=" ">
<path fill="none" stroke="#63b8ff" d="M335.02,-173.74C377.77,-166.68 440.48,-153.35 454.94,-134.25 477.38,-104.6 469.26,-58.36 461.8,-31.87"/>
<polygon fill="#63b8ff" stroke="#63b8ff" points="465.25,-31.2 458.97,-22.67 458.56,-33.25 465.25,-31.2"/>
</a>
</g>
</g>
<!-- Node5 -->
<g id="Node000005" class="node">
<title>Node5</title>
<g id="a_Node000005"><a xlink:title=" ">
<polygon fill="#e0e0e0" stroke="#999999" points="284.31,-134.25 225.56,-134.25 225.56,-113.5 284.31,-113.5 284.31,-134.25"/>
<text xml:space="preserve" text-anchor="middle" x="254.94" y="-120.75" font-family="Helvetica,sans-Serif" font-size="10.00">fsl_ftm.h</text>
</a>
</g>
</g>
<!-- Node1&#45;&gt;Node5 -->
<g id="edge4_Node000001_Node000005" class="edge">
<title>Node1&#45;&gt;Node5</title>
<g id="a_edge4_Node000001_Node000005"><a xlink:title=" ">
<path fill="none" stroke="#63b8ff" d="M286.97,-169.84C281.81,-162.6 274.62,-152.51 268.36,-143.72"/>
<polygon fill="#63b8ff" stroke="#63b8ff" points="271.38,-141.93 262.73,-135.81 265.68,-145.99 271.38,-141.93"/>
</a>
</g>
</g>
<!-- Node6 -->
<g id="Node000006" class="node">
<title>Node6</title>
<g id="a_Node000006"><a xlink:title=" ">
<polygon fill="#e0e0e0" stroke="#999999" points="365.56,-134.25 302.31,-134.25 302.31,-113.5 365.56,-113.5 365.56,-134.25"/>
<text xml:space="preserve" text-anchor="middle" x="333.94" y="-120.75" font-family="Helvetica,sans-Serif" font-size="10.00">fsl_gpio.h</text>
</a>
</g>
</g>
<!-- Node1&#45;&gt;Node6 -->
<g id="edge5_Node000001_Node000006" class="edge">
<title>Node1&#45;&gt;Node6</title>
<g id="a_edge5_Node000001_Node000006"><a xlink:title=" ">
<path fill="none" stroke="#63b8ff" d="M301.09,-169.84C306.38,-162.6 313.75,-152.51 320.17,-143.72"/>
<polygon fill="#63b8ff" stroke="#63b8ff" points="322.88,-145.94 325.96,-135.8 317.23,-141.81 322.88,-145.94"/>
</a>
</g>
</g>
<!-- Node7 -->
<g id="Node000007" class="node">
<title>Node7</title>
<g id="a_Node000007"><a xlink:title=" ">
<polygon fill="#e0e0e0" stroke="#999999" points="445.81,-134.25 384.06,-134.25 384.06,-113.5 445.81,-113.5 445.81,-134.25"/>
<text xml:space="preserve" text-anchor="middle" x="414.94" y="-120.75" font-family="Helvetica,sans-Serif" font-size="10.00">fsl_port.h</text>
</a>
</g>
</g>
<!-- Node1&#45;&gt;Node7 -->
<g id="edge6_Node000001_Node000007" class="edge">
<title>Node1&#45;&gt;Node7</title>
<g id="a_edge6_Node000001_Node000007"><a xlink:title=" ">
<path fill="none" stroke="#63b8ff" d="M315.57,-169.84C334.41,-161.31 361.97,-148.84 383.29,-139.19"/>
<polygon fill="#63b8ff" stroke="#63b8ff" points="384.45,-142.51 392.11,-135.2 381.56,-136.14 384.45,-142.51"/>
</a>
</g>
</g>
<!-- Node8 -->
<g id="Node000008" class="node">
<title>Node8</title>
<g id="a_Node000008"><a xlink:href="task__helpers_8h.html" target="_top" xlink:title=" ">
<polygon fill="white" stroke="#666666" points="207.56,-134.25 120.31,-134.25 120.31,-113.5 207.56,-113.5 207.56,-134.25"/>
<text xml:space="preserve" text-anchor="middle" x="163.94" y="-120.75" font-family="Helvetica,sans-Serif" font-size="10.00">task_helpers.h</text>
</a>
</g>
</g>
<!-- Node1&#45;&gt;Node8 -->
<g id="edge7_Node000001_Node000008" class="edge">
<title>Node1&#45;&gt;Node8</title>
<g id="a_edge7_Node000001_Node000008"><a xlink:title=" ">
<path fill="none" stroke="#63b8ff" d="M270.7,-169.84C250.27,-161.23 220.3,-148.61 197.31,-138.93"/>
<polygon fill="#63b8ff" stroke="#63b8ff" points="198.95,-135.82 188.37,-135.17 196.23,-142.27 198.95,-135.82"/>
</a>
</g>
</g>
<!-- Node13 -->
<g id="Node000013" class="node">
<title>Node13</title>
<g id="a_Node000013"><a xlink:href="pca9555a_8h.html" target="_top" xlink:title=" ">
<polygon fill="white" stroke="#666666" points="574.06,-134.25 501.81,-134.25 501.81,-113.5 574.06,-113.5 574.06,-134.25"/>
<text xml:space="preserve" text-anchor="middle" x="537.94" y="-120.75" font-family="Helvetica,sans-Serif" font-size="10.00">pca9555a.h</text>
</a>
</g>
</g>
<!-- Node1&#45;&gt;Node13 -->
<g id="edge17_Node000001_Node000013" class="edge">
<title>Node1&#45;&gt;Node13</title>
<g id="a_edge17_Node000001_Node000013"><a xlink:title=" ">
<path fill="none" stroke="#63b8ff" d="M335.05,-170.4C378,-160.76 445.28,-145.67 490.46,-135.53"/>
<polygon fill="#63b8ff" stroke="#63b8ff" points="490.98,-139 499.97,-133.4 489.44,-132.17 490.98,-139"/>
</a>
</g>
</g>
<!-- Node8&#45;&gt;Node2 -->
<g id="edge8_Node000008_Node000002" class="edge">
<title>Node8&#45;&gt;Node2</title>
<g id="a_edge8_Node000008_Node000002"><a xlink:title=" ">
<path fill="none" stroke="#63b8ff" d="M146.32,-113.14C133.39,-105.15 116.34,-92.69 105.94,-77.5 96.7,-64.01 91.63,-46.15 88.91,-32.38"/>
<polygon fill="#63b8ff" stroke="#63b8ff" points="92.38,-31.92 87.27,-22.64 85.48,-33.08 92.38,-31.92"/>
</a>
</g>
</g>
<!-- Node8&#45;&gt;Node3 -->
<g id="edge9_Node000008_Node000003" class="edge">
<title>Node8&#45;&gt;Node3</title>
<g id="a_edge9_Node000008_Node000003"><a xlink:title=" ">
<path fill="none" stroke="#63b8ff" d="M140.88,-113.09C120.7,-104.52 91.13,-91.98 68.36,-82.31"/>
<polygon fill="#63b8ff" stroke="#63b8ff" points="69.77,-79.1 59.19,-78.42 67.03,-85.55 69.77,-79.1"/>
</a>
</g>
</g>
<!-- Node8&#45;&gt;Node4 -->
<g id="edge10_Node000008_Node000004" class="edge">
<title>Node8&#45;&gt;Node4</title>
<g id="a_edge10_Node000008_Node000004"><a xlink:title=" ">
<path fill="none" stroke="#63b8ff" d="M207.89,-115.05C280.21,-102.17 416.4,-77.88 416.94,-77.5 432.66,-66.43 442.77,-46.65 448.58,-31.6"/>
<polygon fill="#63b8ff" stroke="#63b8ff" points="451.86,-32.82 451.84,-22.23 445.25,-30.52 451.86,-32.82"/>
</a>
</g>
</g>
<!-- Node9 -->
<g id="Node000009" class="node">
<title>Node9</title>
<g id="a_Node000009"><a xlink:href="log_8h.html" target="_top" xlink:title=" ">
<polygon fill="white" stroke="#666666" points="227.94,-77.5 187.94,-77.5 187.94,-56.75 227.94,-56.75 227.94,-77.5"/>
<text xml:space="preserve" text-anchor="middle" x="207.94" y="-64" font-family="Helvetica,sans-Serif" font-size="10.00">log.h</text>
</a>
</g>
</g>
<!-- Node8&#45;&gt;Node9 -->
<g id="edge11_Node000008_Node000009" class="edge">
<title>Node8&#45;&gt;Node9</title>
<g id="a_edge11_Node000008_Node000009"><a xlink:title=" ">
<path fill="none" stroke="#63b8ff" d="M171.8,-113.09C177.69,-105.77 185.9,-95.54 193.02,-86.69"/>
<polygon fill="#63b8ff" stroke="#63b8ff" points="195.66,-89 199.19,-79.01 190.2,-84.61 195.66,-89"/>
</a>
</g>
</g>
<!-- Node10 -->
<g id="Node000010" class="node">
<title>Node10</title>
<g id="a_Node000010"><a xlink:title=" ">
<polygon fill="#e0e0e0" stroke="#999999" points="298.31,-77.5 245.56,-77.5 245.56,-56.75 298.31,-56.75 298.31,-77.5"/>
<text xml:space="preserve" text-anchor="middle" x="271.94" y="-64" font-family="Helvetica,sans-Serif" font-size="10.00">string.h</text>
</a>
</g>
</g>
<!-- Node8&#45;&gt;Node10 -->
<g id="edge14_Node000008_Node000010" class="edge">
<title>Node8&#45;&gt;Node10</title>
<g id="a_edge14_Node000008_Node000010"><a xlink:title=" ">
<path fill="none" stroke="#63b8ff" d="M183.25,-113.09C199.76,-104.72 223.77,-92.54 242.65,-82.97"/>
<polygon fill="#63b8ff" stroke="#63b8ff" points="244.11,-86.16 251.45,-78.51 240.94,-79.91 244.11,-86.16"/>
</a>
</g>
</g>
<!-- Node11 -->
<g id="Node000011" class="node">
<title>Node11</title>
<g id="a_Node000011"><a xlink:title=" ">
<polygon fill="#e0e0e0" stroke="#999999" points="407.44,-77.5 316.44,-77.5 316.44,-56.75 407.44,-56.75 407.44,-77.5"/>
<text xml:space="preserve" text-anchor="middle" x="361.94" y="-64" font-family="Helvetica,sans-Serif" font-size="10.00">event_groups.h</text>
</a>
</g>
</g>
<!-- Node8&#45;&gt;Node11 -->
<g id="edge15_Node000008_Node000011" class="edge">
<title>Node8&#45;&gt;Node11</title>
<g id="a_edge15_Node000008_Node000011"><a xlink:title=" ">
<path fill="none" stroke="#63b8ff" d="M199.34,-113.09C231.76,-104.12 279.96,-90.79 315.47,-80.98"/>
<polygon fill="#63b8ff" stroke="#63b8ff" points="316.35,-84.36 325.05,-78.32 314.48,-77.62 316.35,-84.36"/>
</a>
</g>
</g>
<!-- Node12 -->
<g id="Node000012" class="node">
<title>Node12</title>
<g id="a_Node000012"><a xlink:title=" ">
<polygon fill="#e0e0e0" stroke="#999999" points="169.44,-77.5 114.44,-77.5 114.44,-56.75 169.44,-56.75 169.44,-77.5"/>
<text xml:space="preserve" text-anchor="middle" x="141.94" y="-64" font-family="Helvetica,sans-Serif" font-size="10.00">queue.h</text>
</a>
</g>
</g>
<!-- Node8&#45;&gt;Node12 -->
<g id="edge16_Node000008_Node000012" class="edge">
<title>Node8&#45;&gt;Node12</title>
<g id="a_edge16_Node000008_Node000012"><a xlink:title=" ">
<path fill="none" stroke="#63b8ff" d="M160,-113.09C157.25,-106.24 153.47,-96.84 150.09,-88.4"/>
<polygon fill="#63b8ff" stroke="#63b8ff" points="153.38,-87.21 146.4,-79.23 146.88,-89.82 153.38,-87.21"/>
</a>
</g>
</g>
<!-- Node9&#45;&gt;Node2 -->
<g id="edge12_Node000009_Node000002" class="edge">
<title>Node9&#45;&gt;Node2</title>
<g id="a_edge12_Node000009_Node000002"><a xlink:title=" ">
<path fill="none" stroke="#63b8ff" d="M187.52,-56.96C168.51,-48.43 139.89,-35.59 117.87,-25.71"/>
<polygon fill="#63b8ff" stroke="#63b8ff" points="119.6,-22.64 109.04,-21.74 116.73,-29.03 119.6,-22.64"/>
</a>
</g>
</g>
<!-- Node9&#45;&gt;Node4 -->
<g id="edge13_Node000009_Node000004" class="edge">
<title>Node9&#45;&gt;Node4</title>
<g id="a_edge13_Node000009_Node000004"><a xlink:title=" ">
<path fill="none" stroke="#63b8ff" d="M228.14,-59.29C231.07,-58.38 234.07,-57.51 236.94,-56.75 292.28,-42.09 356.56,-29.2 400.9,-20.95"/>
<polygon fill="#63b8ff" stroke="#63b8ff" points="401.32,-24.43 410.52,-19.17 400.05,-17.55 401.32,-24.43"/>
</a>
</g>
</g>
<!-- Node13&#45;&gt;Node4 -->
<g id="edge18_Node000013_Node000004" class="edge">
<title>Node13&#45;&gt;Node4</title>
<g id="a_edge18_Node000013_Node000004"><a xlink:title=" ">
<path fill="none" stroke="#63b8ff" d="M530.86,-113.37C517.21,-95.03 487,-54.45 469.08,-30.37"/>
<polygon fill="#63b8ff" stroke="#63b8ff" points="471.92,-28.32 463.14,-22.39 466.3,-32.5 471.92,-28.32"/>
</a>
</g>
</g>
<!-- Node14 -->
<g id="Node000014" class="node">
<title>Node14</title>
<g id="a_Node000014"><a xlink:title=" ">
<polygon fill="#e0e0e0" stroke="#999999" points="619.81,-77.5 540.06,-77.5 540.06,-56.75 619.81,-56.75 619.81,-77.5"/>
<text xml:space="preserve" text-anchor="middle" x="579.94" y="-64" font-family="Helvetica,sans-Serif" font-size="10.00">peripherals.h</text>
</a>
</g>
</g>
<!-- Node13&#45;&gt;Node14 -->
<g id="edge19_Node000013_Node000014" class="edge">
<title>Node13&#45;&gt;Node14</title>
<g id="a_edge19_Node000013_Node000014"><a xlink:title=" ">
<path fill="none" stroke="#63b8ff" d="M545.45,-113.09C551.06,-105.77 558.91,-95.54 565.7,-86.69"/>
<polygon fill="#63b8ff" stroke="#63b8ff" points="568.26,-89.09 571.57,-79.03 562.71,-84.83 568.26,-89.09"/>
</a>
</g>
</g>
</g>
</svg>

<g id="navigator" transform="translate(0 0)" fill="#404254">
  <rect fill="#f2f5e9" fill-opacity="0.5" stroke="#606060" stroke-width=".5" x="0" y="0" width="60" height="60"/>
  <use id="zoomplus" xlink:href="#zoomPlus" x="17" y="9" onmousedown="handleZoom(evt,'in')"/>
  <use id="zoomminus" xlink:href="#zoomMin" x="42" y="9" onmousedown="handleZoom(evt,'out')"/>
  <use id="reset" xlink:href="#resetDef" x="30" y="36" onmousedown="handleReset()"/>
   <use id="arrowup" xlink:href="#arrowUp" x="0" y="0" onmousedown="handlePan(0,-1)"/>
  <use id="arrowright" xlink:href="#arrowRight" x="0" y="0" onmousedown="handlePan(1,0)"/>
  <use id="arrowdown" xlink:href="#arrowDown" x="0" y="0" onmousedown="handlePan(0,1)"/>
  <use id="arrowleft" xlink:href="#arrowLeft" x="0" y="0" onmousedown="handlePan(-1,0)"/>
</g>
<svg viewBox="0 0 15 15" width="100%" height="30px" preserveAspectRatio="xMaxYMin meet">
 <g id="arrow_out" transform="scale(0.3 0.3)">
  <a xlink:href="step_8h__incl_org.svg" target="_base">
   <rect id="button" ry="5" rx="5" y="6" x="6" height="38" width="38"
        fill="#f2f5e9" fill-opacity="0.5" stroke="#606060" stroke-width="1.0"/>
   <path id="arrow"
     d="M 11.500037,31.436501 C 11.940474,20.09759 22.043105,11.32322 32.158766,21.979434 L 37.068811,17.246167 C 37.068811,17.246167 37.088388,32 37.088388,32 L 22.160133,31.978069 C 22.160133,31.978069 26.997745,27.140456 26.997745,27.140456 C 18.528582,18.264221 13.291696,25.230495 11.500037,31.436501 z"
     style="fill:#404040;"/>
  </a>
 </g>
</svg>

<style type='text/css'>
<![CDATA[
[data-mouse-over-selected='false'] { opacity: 0.7; }
[data-mouse-over-selected='true']  { opacity: 1.0; }
]]>
</style>
<script type="application/ecmascript"><![CDATA[
document.addEventListener('DOMContentLoaded', (event) => {
  highlightEdges();
  highlightAdjacentNodes();
});
]]></script>
</svg>
