<?xml version="1.0" encoding="UTF-8" standalone="no"?>
<!DOCTYPE svg PUBLIC "-//W3C//DTD SVG 1.1//EN"
 "http://www.w3.org/Graphics/SVG/1.1/DTD/svg11.dtd">
<!-- Generated by graphviz version 14.1.4 (0)
 -->
<!-- Title: source/step.c Pages: 1 -->
<svg width="986pt" height="256pt"
 viewBox="0.00 0.00 986.00 256.00" xmlns="http://www.w3.org/2000/svg" xmlns:xlink="http://www.w3.org/1999/xlink">
<g id="graph0" class="graph" transform="scale(1 1) rotate(0) translate(4 251.75)">
<title>source/step.c</title>
<!-- Node1 -->
<g id="Node000001" class="node">
<title>Node1</title>
<g id="a_Node000001"><a xlink:title=" ">
<polygon fill="#999999" stroke="#666666" points="706.25,-247.75 625.75,-247.75 625.75,-227 706.25,-227 706.25,-247.75"/>
<text xml:space="preserve" text-anchor="middle" x="666" y="-234.25" font-family="Helvetica,sans-Serif" font-size="10.00">source/step.c</text>
</a>
</g>
</g>
<!-- Node2 -->
<g id="Node000002" class="node">
<title>Node2</title>
<g id="a_Node000002"><a xlink:href="step_8h.html" target="_top" xlink:title=" ">
<polygon fill="white" stroke="#666666" points="588,-191 542,-191 542,-170.25 588,-170.25 588,-191"/>
<text xml:space="preserve" text-anchor="middle" x="565" y="-177.5" font-family="Helvetica,sans-Serif" font-size="10.00">step.h</text>
</a>
</g>
</g>
<!-- Node1&#45;&gt;Node2 -->
<g id="edge1_Node000001_Node000002" class="edge">
<title>Node1&#45;&gt;Node2</title>
<g id="a_edge1_Node000001_Node000002"><a xlink:title=" ">
<path fill="none" stroke="#63b8ff" d="M647.94,-226.59C632.58,-218.26 610.26,-206.16 592.64,-196.61"/>
<polygon fill="#63b8ff" stroke="#63b8ff" points="594.69,-193.74 584.23,-192.05 591.35,-199.89 594.69,-193.74"/>
</a>
</g>
</g>
<!-- Node9 -->
<g id="Node000009" class="node">
<title>Node9</title>
<g id="a_Node000009"><a xlink:href="task__helpers_8h.html" target="_top" xlink:title=" ">
<polygon fill="white" stroke="#666666" points="323.62,-134.25 236.38,-134.25 236.38,-113.5 323.62,-113.5 323.62,-134.25"/>
<text xml:space="preserve" text-anchor="middle" x="280" y="-120.75" font-family="Helvetica,sans-Serif" font-size="10.00">task_helpers.h</text>
</a>
</g>
</g>
<!-- Node1&#45;&gt;Node9 -->
<g id="edge26_Node000001_Node000009" class="edge">
<title>Node1&#45;&gt;Node9</title>
<g id="a_edge26_Node000001_Node000009"><a xlink:title=" ">
<path fill="none" stroke="#63b8ff" d="M625.35,-234.28C548.88,-229.77 386.9,-217.34 338,-191 317.9,-180.17 301.5,-159.44 291.33,-144.06"/>
<polygon fill="#63b8ff" stroke="#63b8ff" points="294.39,-142.36 286.12,-135.75 288.46,-146.08 294.39,-142.36"/>
</a>
</g>
</g>
<!-- Node10 -->
<g id="Node000010" class="node">
<title>Node10</title>
<g id="a_Node000010"><a xlink:href="log_8h.html" target="_top" xlink:title=" ">
<polygon fill="white" stroke="#666666" points="40,-77.5 0,-77.5 0,-56.75 40,-56.75 40,-77.5"/>
<text xml:space="preserve" text-anchor="middle" x="20" y="-64" font-family="Helvetica,sans-Serif" font-size="10.00">log.h</text>
</a>
</g>
</g>
<!-- Node1&#45;&gt;Node10 -->
<g id="edge21_Node000001_Node000010" class="edge">
<title>Node1&#45;&gt;Node10</title>
<g id="a_edge21_Node000001_Node000010"><a xlink:title=" ">
<path fill="none" stroke="#63b8ff" d="M625.29,-234.88C558.12,-231.6 420.32,-221.44 308,-191 208.53,-164.04 98.43,-109.62 48.01,-83.2"/>
<polygon fill="#63b8ff" stroke="#63b8ff" points="49.71,-80.14 39.24,-78.56 46.44,-86.33 49.71,-80.14"/>
</a>
</g>
</g>
<!-- Node11 -->
<g id="Node000011" class="node">
<title>Node11</title>
<g id="a_Node000011"><a xlink:title=" ">
<polygon fill="#e0e0e0" stroke="#999999" points="369.38,-77.5 316.62,-77.5 316.62,-56.75 369.38,-56.75 369.38,-77.5"/>
<text xml:space="preserve" text-anchor="middle" x="343" y="-64" font-family="Helvetica,sans-Serif" font-size="10.00">string.h</text>
</a>
</g>
</g>
<!-- Node1&#45;&gt;Node11 -->
<g id="edge25_Node000001_Node000011" class="edge">
<title>Node1&#45;&gt;Node11</title>
<g id="a_edge25_Node000001_Node000011"><a xlink:title=" ">
<path fill="none" stroke="#63b8ff" d="M625.31,-227.53C570.6,-214.17 472.11,-184.89 402,-134.25 383.76,-121.07 367.1,-101.37 356.18,-86.9"/>
<polygon fill="#63b8ff" stroke="#63b8ff" points="359.19,-85.1 350.47,-79.08 353.54,-89.22 359.19,-85.1"/>
</a>
</g>
</g>
<!-- Node14 -->
<g id="Node000014" class="node">
<title>Node14</title>
<g id="a_Node000014"><a xlink:href="pca9555a_8h.html" target="_top" xlink:title=" ">
<polygon fill="white" stroke="#666666" points="804.12,-134.25 731.88,-134.25 731.88,-113.5 804.12,-113.5 804.12,-134.25"/>
<text xml:space="preserve" text-anchor="middle" x="768" y="-120.75" font-family="Helvetica,sans-Serif" font-size="10.00">pca9555a.h</text>
</a>
</g>
</g>
<!-- Node1&#45;&gt;Node14 -->
<g id="edge27_Node000001_Node000014" class="edge">
<title>Node1&#45;&gt;Node14</title>
<g id="a_edge27_Node000001_Node000014"><a xlink:title=" ">
<path fill="none" stroke="#63b8ff" d="M674.7,-226.87C691.7,-208.28 729.59,-166.86 751.5,-142.91"/>
<polygon fill="#63b8ff" stroke="#63b8ff" points="753.85,-145.53 758.01,-135.79 748.68,-140.81 753.85,-145.53"/>
</a>
</g>
</g>
<!-- Node15 -->
<g id="Node000015" class="node">
<title>Node15</title>
<g id="a_Node000015"><a xlink:title=" ">
<polygon fill="#e0e0e0" stroke="#999999" points="865.88,-77.5 786.12,-77.5 786.12,-56.75 865.88,-56.75 865.88,-77.5"/>
<text xml:space="preserve" text-anchor="middle" x="826" y="-64" font-family="Helvetica,sans-Serif" font-size="10.00">peripherals.h</text>
</a>
</g>
</g>
<!-- Node1&#45;&gt;Node15 -->
<g id="edge23_Node000001_Node000015" class="edge">
<title>Node1&#45;&gt;Node15</title>
<g id="a_edge23_Node000001_Node000015"><a xlink:title=" ">
<path fill="none" stroke="#63b8ff" d="M690.2,-226.61C723.49,-211.84 782.74,-180.55 813,-134.25 821.72,-120.9 824.84,-103.03 825.85,-89.23"/>
<polygon fill="#63b8ff" stroke="#63b8ff" points="829.34,-89.59 826.23,-79.46 822.35,-89.32 829.34,-89.59"/>
</a>
</g>
</g>
<!-- Node16 -->
<g id="Node000016" class="node">
<title>Node16</title>
<g id="a_Node000016"><a xlink:title=" ">
<polygon fill="#e0e0e0" stroke="#999999" points="910.25,-191 859.75,-191 859.75,-170.25 910.25,-170.25 910.25,-191"/>
<text xml:space="preserve" text-anchor="middle" x="885" y="-177.5" font-family="Helvetica,sans-Serif" font-size="10.00">math.h</text>
</a>
</g>
</g>
<!-- Node1&#45;&gt;Node16 -->
<g id="edge22_Node000001_Node000016" class="edge">
<title>Node1&#45;&gt;Node16</title>
<g id="a_edge22_Node000001_Node000016"><a xlink:title=" ">
<path fill="none" stroke="#63b8ff" d="M705.41,-226.52C745.98,-216.38 808.71,-200.7 848.27,-190.81"/>
<polygon fill="#63b8ff" stroke="#63b8ff" points="848.95,-194.25 857.8,-188.43 847.25,-187.46 848.95,-194.25"/>
</a>
</g>
</g>
<!-- Node17 -->
<g id="Node000017" class="node">
<title>Node17</title>
<g id="a_Node000017"><a xlink:title=" ">
<polygon fill="#e0e0e0" stroke="#999999" points="977.5,-191 928.5,-191 928.5,-170.25 977.5,-170.25 977.5,-191"/>
<text xml:space="preserve" text-anchor="middle" x="953" y="-177.5" font-family="Helvetica,sans-Serif" font-size="10.00">stdio.h</text>
</a>
</g>
</g>
<!-- Node1&#45;&gt;Node17 -->
<g id="edge24_Node000001_Node000017" class="edge">
<title>Node1&#45;&gt;Node17</title>
<g id="a_edge24_Node000001_Node000017"><a xlink:title=" ">
<path fill="none" stroke="#63b8ff" d="M706.54,-230.28C754.55,-222.8 837.1,-209.13 917.39,-191.19"/>
<polygon fill="#63b8ff" stroke="#63b8ff" points="917.73,-194.7 926.71,-189.08 916.18,-187.88 917.73,-194.7"/>
</a>
</g>
</g>
<!-- Node3 -->
<g id="Node000003" class="node">
<title>Node3</title>
<g id="a_Node000003"><a xlink:title=" ">
<polygon fill="#e0e0e0" stroke="#999999" points="103.75,-20.75 32.25,-20.75 32.25,0 103.75,0 103.75,-20.75"/>
<text xml:space="preserve" text-anchor="middle" x="68" y="-7.25" font-family="Helvetica,sans-Serif" font-size="10.00">FreeRTOS.h</text>
</a>
</g>
</g>
<!-- Node2&#45;&gt;Node3 -->
<g id="edge2_Node000002_Node000003" class="edge">
<title>Node2&#45;&gt;Node3</title>
<g id="a_edge2_Node000002_Node000003"><a xlink:title=" ">
<path fill="none" stroke="#63b8ff" d="M541.97,-177.94C514.41,-174.57 469.23,-164.49 447,-134.25 426.55,-106.44 465.71,-81.83 442,-56.75 419.92,-33.39 211.28,-19.15 115.57,-13.8"/>
<polygon fill="#63b8ff" stroke="#63b8ff" points="115.89,-10.31 105.71,-13.26 115.51,-17.3 115.89,-10.31"/>
</a>
</g>
</g>
<!-- Node4 -->
<g id="Node000004" class="node">
<title>Node4</title>
<g id="a_Node000004"><a xlink:title=" ">
<polygon fill="#e0e0e0" stroke="#999999" points="433,-77.5 387,-77.5 387,-56.75 433,-56.75 433,-77.5"/>
<text xml:space="preserve" text-anchor="middle" x="410" y="-64" font-family="Helvetica,sans-Serif" font-size="10.00">task.h</text>
</a>
</g>
</g>
<!-- Node2&#45;&gt;Node4 -->
<g id="edge3_Node000002_Node000004" class="edge">
<title>Node2&#45;&gt;Node4</title>
<g id="a_edge3_Node000002_Node000004"><a xlink:title=" ">
<path fill="none" stroke="#63b8ff" d="M541.63,-180.23C507.5,-179.69 444.75,-173.1 414,-134.25 404.06,-121.7 403.75,-103.24 405.53,-89.01"/>
<polygon fill="#63b8ff" stroke="#63b8ff" points="408.95,-89.8 407.19,-79.35 402.05,-88.61 408.95,-89.8"/>
</a>
</g>
</g>
<!-- Node5 -->
<g id="Node000005" class="node">
<title>Node5</title>
<g id="a_Node000005"><a xlink:title=" ">
<polygon fill="#e0e0e0" stroke="#999999" points="534.5,-20.75 449.5,-20.75 449.5,0 534.5,0 534.5,-20.75"/>
<text xml:space="preserve" text-anchor="middle" x="492" y="-7.25" font-family="Helvetica,sans-Serif" font-size="10.00">fsl_common.h</text>
</a>
</g>
</g>
<!-- Node2&#45;&gt;Node5 -->
<g id="edge4_Node000002_Node000005" class="edge">
<title>Node2&#45;&gt;Node5</title>
<g id="a_edge4_Node000002_Node000005"><a xlink:title=" ">
<path fill="none" stroke="#63b8ff" d="M588.49,-176.58C629.69,-170.17 708.5,-152.52 685,-113.5 655.01,-63.7 591.69,-36.92 545.74,-23.44"/>
<polygon fill="#63b8ff" stroke="#63b8ff" points="546.78,-20.1 536.21,-20.79 544.9,-26.85 546.78,-20.1"/>
</a>
</g>
</g>
<!-- Node6 -->
<g id="Node000006" class="node">
<title>Node6</title>
<g id="a_Node000006"><a xlink:title=" ">
<polygon fill="#e0e0e0" stroke="#999999" points="594.38,-134.25 535.62,-134.25 535.62,-113.5 594.38,-113.5 594.38,-134.25"/>
<text xml:space="preserve" text-anchor="middle" x="565" y="-120.75" font-family="Helvetica,sans-Serif" font-size="10.00">fsl_ftm.h</text>
</a>
</g>
</g>
<!-- Node2&#45;&gt;Node6 -->
<g id="edge5_Node000002_Node000006" class="edge">
<title>Node2&#45;&gt;Node6</title>
<g id="a_edge5_Node000002_Node000006"><a xlink:title=" ">
<path fill="none" stroke="#63b8ff" d="M565,-169.84C565,-163.22 565,-154.22 565,-146.02"/>
<polygon fill="#63b8ff" stroke="#63b8ff" points="568.5,-146.09 565,-136.09 561.5,-146.09 568.5,-146.09"/>
</a>
</g>
</g>
<!-- Node7 -->
<g id="Node000007" class="node">
<title>Node7</title>
<g id="a_Node000007"><a xlink:title=" ">
<polygon fill="#e0e0e0" stroke="#999999" points="675.62,-134.25 612.38,-134.25 612.38,-113.5 675.62,-113.5 675.62,-134.25"/>
<text xml:space="preserve" text-anchor="middle" x="644" y="-120.75" font-family="Helvetica,sans-Serif" font-size="10.00">fsl_gpio.h</text>
</a>
</g>
</g>
<!-- Node2&#45;&gt;Node7 -->
<g id="edge6_Node000002_Node000007" class="edge">
<title>Node2&#45;&gt;Node7</title>
<g id="a_edge6_Node000002_Node000007"><a xlink:title=" ">
<path fill="none" stroke="#63b8ff" d="M579.12,-169.84C590.69,-161.82 607.3,-150.31 620.82,-140.94"/>
<polygon fill="#63b8ff" stroke="#63b8ff" points="622.53,-144.01 628.75,-135.44 618.54,-138.26 622.53,-144.01"/>
</a>
</g>
</g>
<!-- Node8 -->
<g id="Node000008" class="node">
<title>Node8</title>
<g id="a_Node000008"><a xlink:title=" ">
<polygon fill="#e0e0e0" stroke="#999999" points="517.88,-134.25 456.12,-134.25 456.12,-113.5 517.88,-113.5 517.88,-134.25"/>
<text xml:space="preserve" text-anchor="middle" x="487" y="-120.75" font-family="Helvetica,sans-Serif" font-size="10.00">fsl_port.h</text>
</a>
</g>
</g>
<!-- Node2&#45;&gt;Node8 -->
<g id="edge7_Node000002_Node000008" class="edge">
<title>Node2&#45;&gt;Node8</title>
<g id="a_edge7_Node000002_Node000008"><a xlink:title=" ">
<path fill="none" stroke="#63b8ff" d="M551.06,-169.84C539.63,-161.82 523.23,-150.31 509.89,-140.94"/>
<polygon fill="#63b8ff" stroke="#63b8ff" points="512.26,-138.33 502.06,-135.45 508.24,-144.06 512.26,-138.33"/>
</a>
</g>
</g>
<!-- Node2&#45;&gt;Node9 -->
<g id="edge8_Node000002_Node000009" class="edge">
<title>Node2&#45;&gt;Node9</title>
<g id="a_edge8_Node000002_Node000009"><a xlink:title=" ">
<path fill="none" stroke="#63b8ff" d="M541.68,-175.14C496.94,-166.55 397.95,-147.53 335.36,-135.51"/>
<polygon fill="#63b8ff" stroke="#63b8ff" points="336.09,-132.09 325.61,-133.64 334.77,-138.96 336.09,-132.09"/>
</a>
</g>
</g>
<!-- Node2&#45;&gt;Node14 -->
<g id="edge18_Node000002_Node000014" class="edge">
<title>Node2&#45;&gt;Node14</title>
<g id="a_edge18_Node000002_Node000014"><a xlink:title=" ">
<path fill="none" stroke="#63b8ff" d="M588.29,-173.34C620.44,-164.67 679.15,-148.84 720.7,-137.63"/>
<polygon fill="#63b8ff" stroke="#63b8ff" points="721.46,-141.05 730.21,-135.07 719.64,-134.29 721.46,-141.05"/>
</a>
</g>
</g>
<!-- Node9&#45;&gt;Node3 -->
<g id="edge9_Node000009_Node000003" class="edge">
<title>Node9&#45;&gt;Node3</title>
<g id="a_edge9_Node000009_Node000003"><a xlink:title=" ">
<path fill="none" stroke="#63b8ff" d="M236.02,-117.72C185.89,-110.99 108.13,-97.62 87,-77.5 74.82,-65.9 70.29,-47.07 68.68,-32.46"/>
<polygon fill="#63b8ff" stroke="#63b8ff" points="72.18,-32.25 68,-22.51 65.19,-32.72 72.18,-32.25"/>
</a>
</g>
</g>
<!-- Node9&#45;&gt;Node4 -->
<g id="edge10_Node000009_Node000004" class="edge">
<title>Node9&#45;&gt;Node4</title>
<g id="a_edge10_Node000009_Node000004"><a xlink:title=" ">
<path fill="none" stroke="#63b8ff" d="M303.24,-113.09C323.67,-104.48 353.64,-91.86 376.63,-82.18"/>
<polygon fill="#63b8ff" stroke="#63b8ff" points="377.71,-85.52 385.56,-78.42 374.99,-79.07 377.71,-85.52"/>
</a>
</g>
</g>
<!-- Node9&#45;&gt;Node5 -->
<g id="edge11_Node000009_Node000005" class="edge">
<title>Node9&#45;&gt;Node5</title>
<g id="a_edge11_Node000009_Node000005"><a xlink:title=" ">
<path fill="none" stroke="#63b8ff" d="M281.34,-113.18C283.87,-98.68 290.73,-71.47 308,-56.75 344,-26.05 397.62,-15.52 437.7,-12.19"/>
<polygon fill="#63b8ff" stroke="#63b8ff" points="437.9,-15.69 447.63,-11.51 437.42,-8.7 437.9,-15.69"/>
</a>
</g>
</g>
<!-- Node9&#45;&gt;Node10 -->
<g id="edge12_Node000009_Node000010" class="edge">
<title>Node9&#45;&gt;Node10</title>
<g id="a_edge12_Node000009_Node000010"><a xlink:title=" ">
<path fill="none" stroke="#63b8ff" d="M236.05,-115.01C190.36,-106.6 116.88,-92.46 54,-77.5 53.17,-77.3 52.34,-77.1 51.49,-76.89"/>
<polygon fill="#63b8ff" stroke="#63b8ff" points="52.46,-73.53 41.9,-74.39 50.7,-80.3 52.46,-73.53"/>
</a>
</g>
</g>
<!-- Node9&#45;&gt;Node11 -->
<g id="edge15_Node000009_Node000011" class="edge">
<title>Node9&#45;&gt;Node11</title>
<g id="a_edge15_Node000009_Node000011"><a xlink:title=" ">
<path fill="none" stroke="#63b8ff" d="M291.26,-113.09C300.13,-105.38 312.71,-94.45 323.25,-85.29"/>
<polygon fill="#63b8ff" stroke="#63b8ff" points="325.44,-88.02 330.69,-78.82 320.85,-82.74 325.44,-88.02"/>
</a>
</g>
</g>
<!-- Node12 -->
<g id="Node000012" class="node">
<title>Node12</title>
<g id="a_Node000012"><a xlink:title=" ">
<polygon fill="#e0e0e0" stroke="#999999" points="260.5,-77.5 169.5,-77.5 169.5,-56.75 260.5,-56.75 260.5,-77.5"/>
<text xml:space="preserve" text-anchor="middle" x="215" y="-64" font-family="Helvetica,sans-Serif" font-size="10.00">event_groups.h</text>
</a>
</g>
</g>
<!-- Node9&#45;&gt;Node12 -->
<g id="edge16_Node000009_Node000012" class="edge">
<title>Node9&#45;&gt;Node12</title>
<g id="a_edge16_Node000009_Node000012"><a xlink:title=" ">
<path fill="none" stroke="#63b8ff" d="M268.38,-113.09C259.14,-105.3 245.99,-94.22 235.05,-85.01"/>
<polygon fill="#63b8ff" stroke="#63b8ff" points="237.58,-82.57 227.68,-78.8 233.07,-87.92 237.58,-82.57"/>
</a>
</g>
</g>
<!-- Node13 -->
<g id="Node000013" class="node">
<title>Node13</title>
<g id="a_Node000013"><a xlink:title=" ">
<polygon fill="#e0e0e0" stroke="#999999" points="151.5,-77.5 96.5,-77.5 96.5,-56.75 151.5,-56.75 151.5,-77.5"/>
<text xml:space="preserve" text-anchor="middle" x="124" y="-64" font-family="Helvetica,sans-Serif" font-size="10.00">queue.h</text>
</a>
</g>
</g>
<!-- Node9&#45;&gt;Node13 -->
<g id="edge17_Node000009_Node000013" class="edge">
<title>Node9&#45;&gt;Node13</title>
<g id="a_edge17_Node000009_Node000013"><a xlink:title=" ">
<path fill="none" stroke="#63b8ff" d="M252.11,-113.09C227.12,-104.32 190.23,-91.37 162.44,-81.62"/>
<polygon fill="#63b8ff" stroke="#63b8ff" points="163.93,-78.43 153.34,-78.42 161.62,-85.04 163.93,-78.43"/>
</a>
</g>
</g>
<!-- Node10&#45;&gt;Node3 -->
<g id="edge13_Node000010_Node000003" class="edge">
<title>Node10&#45;&gt;Node3</title>
<g id="a_edge13_Node000010_Node000003"><a xlink:title=" ">
<path fill="none" stroke="#63b8ff" d="M28.58,-56.34C35.07,-48.94 44.15,-38.57 51.97,-29.66"/>
<polygon fill="#63b8ff" stroke="#63b8ff" points="54.53,-32.04 58.5,-22.22 49.27,-27.43 54.53,-32.04"/>
</a>
</g>
</g>
<!-- Node10&#45;&gt;Node5 -->
<g id="edge14_Node000010_Node000005" class="edge">
<title>Node10&#45;&gt;Node5</title>
<g id="a_edge14_Node000010_Node000005"><a xlink:title=" ">
<path fill="none" stroke="#63b8ff" d="M40.21,-63.15C53.5,-61.23 71.27,-58.73 87,-56.75 212.36,-40.96 359.91,-25.12 437.68,-16.98"/>
<polygon fill="#63b8ff" stroke="#63b8ff" points="438.01,-20.47 447.59,-15.95 437.28,-13.51 438.01,-20.47"/>
</a>
</g>
</g>
<!-- Node14&#45;&gt;Node5 -->
<g id="edge19_Node000014_Node000005" class="edge">
<title>Node14&#45;&gt;Node5</title>
<g id="a_edge19_Node000014_Node000005"><a xlink:title=" ">
<path fill="none" stroke="#63b8ff" d="M763.68,-113.47C756.44,-98.83 740.43,-70.83 718,-56.75 665.87,-24.01 594.79,-14.23 546.36,-11.64"/>
<polygon fill="#63b8ff" stroke="#63b8ff" points="546.52,-8.15 536.38,-11.21 546.21,-15.14 546.52,-8.15"/>
</a>
</g>
</g>
<!-- Node14&#45;&gt;Node15 -->
<g id="edge20_Node000014_Node000015" class="edge">
<title>Node14&#45;&gt;Node15</title>
<g id="a_edge20_Node000014_Node000015"><a xlink:title=" ">
<path fill="none" stroke="#63b8ff" d="M778.37,-113.09C786.45,-105.46 797.88,-94.67 807.52,-85.57"/>
<polygon fill="#63b8ff" stroke="#63b8ff" points="809.75,-88.28 814.62,-78.87 804.95,-83.19 809.75,-88.28"/>
</a>
</g>
</g>
</g>
</svg>
