<?xml version="1.0" encoding="UTF-8" standalone="no"?>
<!DOCTYPE svg PUBLIC "-//W3C//DTD SVG 1.1//EN"
 "http://www.w3.org/Graphics/SVG/1.1/DTD/svg11.dtd">
<!-- Generated by graphviz version 14.1.5 (0)
 -->
<!-- Title: source/motion/stepper/step_core.h Pages: 1 -->
<!--zoomable 212 -->

<svg id="main" version="1.1" xmlns="http://www.w3.org/2000/svg" xmlns:xlink="http://www.w3.org/1999/xlink" xml:space="preserve" onload="init(evt)">

<style type="text/css"><![CDATA[
.node, .edge {opacity: 0.7;}
.node.selected, .edge.selected {opacity: 1;}
.edge:hover path { stroke: red; }
.edge:hover polygon { stroke: red; fill: red; }
]]></style>

<defs>
  <circle id="rim" cx="0" cy="0" r="7"/>
  <circle id="rim2" cx="0" cy="0" r="3.5"/>
  <g id="zoomPlus">
    <use xlink:href="#rim" fill="#404040"><set attributeName="fill" to="#808080" begin="zoomplus.mouseover" end="zoomplus.mouseout"/></use>
    <path d="M-4,0h8M0,-4v8" fill="none" stroke="white" stroke-width="1.5" pointer-events="none"/>
  </g>
  <g id="zoomMin">
    <use xlink:href="#rim" fill="#404040"><set attributeName="fill" to="#808080" begin="zoomminus.mouseover" end="zoomminus.mouseout"/></use>
    <path d="M-4,0h8" fill="none" stroke="white" stroke-width="1.5" pointer-events="none"/>
  </g>
  <g id="arrowUp" transform="translate(30 24)">
    <use xlink:href="#rim"/>
    <path pointer-events="none" fill="none" stroke="white" stroke-width="1.5" d="M0,-3.0v7 M-2.5,-0.5L0,-3.0L2.5,-0.5"/>
  </g>
  <g id="arrowRight" transform="rotate(90) translate(36 -43)">
    <use xlink:href="#rim"/>
    <path pointer-events="none" fill="none" stroke="white" stroke-width="1.5" d="M0,-3.0v7 M-2.5,-0.5L0,-3.0L2.5,-0.5"/>
  </g>
  <g id="arrowDown" transform="rotate(180) translate(-30 -48)">
    <use xlink:href="#rim"/>
    <path pointer-events="none" fill="none" stroke="white" stroke-width="1.5" d="M0,-3.0v7 M-2.5,-0.5L0,-3.0L2.5,-0.5"/>
  </g>
  <g id="arrowLeft" transform="rotate(270) translate(-36 17)">
    <use xlink:href="#rim"/>
    <path pointer-events="none" fill="none" stroke="white" stroke-width="1.5" d="M0,-3.0v7 M-2.5,-0.5L0,-3.0L2.5,-0.5"/>
  </g>
  <g id="resetDef">
    <use xlink:href="#rim2" fill="#404040"><set attributeName="fill" to="#808080" begin="reset.mouseover" end="reset.mouseout"/></use>
  </g>
</defs>
<script type="application/ecmascript">
var viewWidth = 994;
var viewHeight = 212;
var sectionId = 'dynsection-0';
</script>
<script type="application/ecmascript" xlink:href="svg.min.js"/>
<svg id="graph" class="graph">
<g id="viewport">
<title>source/motion/stepper/step_core.h</title>
<!-- Node1 -->
<g id="Node000001" class="node">
<title>Node1</title>
<g id="a_Node000001"><a xlink:title=" ">
<polygon fill="#999999" stroke="#666666" points="394.75,-203.75 269.25,-203.75 269.25,-170.25 394.75,-170.25 394.75,-203.75"/>
<text xml:space="preserve" text-anchor="start" x="277.25" y="-190.25" font-family="Helvetica,sans-Serif" font-size="10.00">source/motion/stepper</text>
<text xml:space="preserve" text-anchor="middle" x="332" y="-177.5" font-family="Helvetica,sans-Serif" font-size="10.00">/step_core.h</text>
</a>
</g>
</g>
<!-- Node2 -->
<g id="Node000002" class="node">
<title>Node2</title>
<g id="a_Node000002"><a xlink:href="pca9555a_8h.html" target="_top" xlink:title=" ">
<polygon fill="white" stroke="#666666" points="154,-77.5 0,-77.5 0,-56.75 154,-56.75 154,-77.5"/>
<text xml:space="preserve" text-anchor="middle" x="77" y="-64" font-family="Helvetica,sans-Serif" font-size="10.00">driver/pca9555a/pca9555a.h</text>
</a>
</g>
</g>
<!-- Node1&#45;&gt;Node2 -->
<g id="edge1_Node000001_Node000002" class="edge">
<title>Node1&#45;&gt;Node2</title>
<g id="a_edge1_Node000001_Node000002"><a xlink:title=" ">
<path fill="none" stroke="#63b8ff" d="M269.02,-171.25C237.71,-162.66 199.86,-150.31 168,-134.25 141.52,-120.9 114.43,-100.11 96.77,-85.42"/>
<polygon fill="#63b8ff" stroke="#63b8ff" points="99.04,-82.75 89.15,-78.94 94.51,-88.09 99.04,-82.75"/>
</a>
</g>
</g>
<!-- Node3 -->
<g id="Node000003" class="node">
<title>Node3</title>
<g id="a_Node000003"><a xlink:title=" ">
<polygon fill="#e0e0e0" stroke="#999999" points="322.5,-20.75 237.5,-20.75 237.5,0 322.5,0 322.5,-20.75"/>
<text xml:space="preserve" text-anchor="middle" x="280" y="-7.25" font-family="Helvetica,sans-Serif" font-size="10.00">fsl_common.h</text>
</a>
</g>
</g>
<!-- Node1&#45;&gt;Node3 -->
<g id="edge6_Node000001_Node000003" class="edge">
<title>Node1&#45;&gt;Node3</title>
<g id="a_edge6_Node000001_Node000003"><a xlink:title=" ">
<path fill="none" stroke="#63b8ff" d="M292.11,-169.85C273.91,-161.16 252.91,-149.13 237,-134.25 215.19,-113.84 209.33,-106.18 201,-77.5 198.43,-68.64 196.38,-64.73 201,-56.75 209.1,-42.76 223.32,-32.71 237.49,-25.68"/>
<polygon fill="#63b8ff" stroke="#63b8ff" points="238.64,-29 246.32,-21.71 235.77,-22.62 238.64,-29"/>
</a>
</g>
</g>
<!-- Node5 -->
<g id="Node000005" class="node">
<title>Node5</title>
<g id="a_Node000005"><a xlink:title=" ">
<polygon fill="#e0e0e0" stroke="#999999" points="767.75,-77.5 696.25,-77.5 696.25,-56.75 767.75,-56.75 767.75,-77.5"/>
<text xml:space="preserve" text-anchor="middle" x="732" y="-64" font-family="Helvetica,sans-Serif" font-size="10.00">FreeRTOS.h</text>
</a>
</g>
</g>
<!-- Node1&#45;&gt;Node5 -->
<g id="edge4_Node000001_Node000005" class="edge">
<title>Node1&#45;&gt;Node5</title>
<g id="a_edge4_Node000001_Node000005"><a xlink:title=" ">
<path fill="none" stroke="#63b8ff" d="M386.78,-169.86C466.86,-146.26 614.35,-102.8 687.89,-81.12"/>
<polygon fill="#63b8ff" stroke="#63b8ff" points="688.56,-84.58 697.16,-78.39 686.58,-77.86 688.56,-84.58"/>
</a>
</g>
</g>
<!-- Node6 -->
<g id="Node000006" class="node">
<title>Node6</title>
<g id="a_Node000006"><a xlink:title=" ">
<polygon fill="#e0e0e0" stroke="#999999" points="304,-134.25 258,-134.25 258,-113.5 304,-113.5 304,-134.25"/>
<text xml:space="preserve" text-anchor="middle" x="281" y="-120.75" font-family="Helvetica,sans-Serif" font-size="10.00">task.h</text>
</a>
</g>
</g>
<!-- Node1&#45;&gt;Node6 -->
<g id="edge5_Node000001_Node000006" class="edge">
<title>Node1&#45;&gt;Node6</title>
<g id="a_edge5_Node000001_Node000006"><a xlink:title=" ">
<path fill="none" stroke="#63b8ff" d="M318.6,-169.94C311.82,-161.82 303.56,-151.92 296.51,-143.47"/>
<polygon fill="#63b8ff" stroke="#63b8ff" points="299.28,-141.32 290.18,-135.88 293.9,-145.8 299.28,-141.32"/>
</a>
</g>
</g>
<!-- Node7 -->
<g id="Node000007" class="node">
<title>Node7</title>
<g id="a_Node000007"><a xlink:title=" ">
<polygon fill="#e0e0e0" stroke="#999999" points="268.38,-77.5 209.62,-77.5 209.62,-56.75 268.38,-56.75 268.38,-77.5"/>
<text xml:space="preserve" text-anchor="middle" x="239" y="-64" font-family="Helvetica,sans-Serif" font-size="10.00">fsl_ftm.h</text>
</a>
</g>
</g>
<!-- Node1&#45;&gt;Node7 -->
<g id="edge7_Node000001_Node000007" class="edge">
<title>Node1&#45;&gt;Node7</title>
<g id="a_edge7_Node000001_Node000007"><a xlink:title=" ">
<path fill="none" stroke="#63b8ff" d="M291.82,-169.93C276.03,-161.61 259.26,-149.86 249,-134.25 240.31,-121.03 238.03,-103.15 237.81,-89.31"/>
<polygon fill="#63b8ff" stroke="#63b8ff" points="241.31,-89.58 238.02,-79.5 234.31,-89.43 241.31,-89.58"/>
</a>
</g>
</g>
<!-- Node8 -->
<g id="Node000008" class="node">
<title>Node8</title>
<g id="a_Node000008"><a xlink:title=" ">
<polygon fill="#e0e0e0" stroke="#999999" points="349.62,-77.5 286.38,-77.5 286.38,-56.75 349.62,-56.75 349.62,-77.5"/>
<text xml:space="preserve" text-anchor="middle" x="318" y="-64" font-family="Helvetica,sans-Serif" font-size="10.00">fsl_gpio.h</text>
</a>
</g>
</g>
<!-- Node1&#45;&gt;Node8 -->
<g id="edge8_Node000001_Node000008" class="edge">
<title>Node1&#45;&gt;Node8</title>
<g id="a_edge8_Node000001_Node000008"><a xlink:title=" ">
<path fill="none" stroke="#63b8ff" d="M330.11,-170.1C327.63,-149.21 323.27,-112.46 320.51,-89.25"/>
<polygon fill="#63b8ff" stroke="#63b8ff" points="324,-88.95 319.34,-79.44 317.05,-89.78 324,-88.95"/>
</a>
</g>
</g>
<!-- Node9 -->
<g id="Node000009" class="node">
<title>Node9</title>
<g id="a_Node000009"><a xlink:title=" ">
<polygon fill="#e0e0e0" stroke="#999999" points="607.88,-77.5 546.12,-77.5 546.12,-56.75 607.88,-56.75 607.88,-77.5"/>
<text xml:space="preserve" text-anchor="middle" x="577" y="-64" font-family="Helvetica,sans-Serif" font-size="10.00">fsl_port.h</text>
</a>
</g>
</g>
<!-- Node1&#45;&gt;Node9 -->
<g id="edge9_Node000001_Node000009" class="edge">
<title>Node1&#45;&gt;Node9</title>
<g id="a_edge9_Node000001_Node000009"><a xlink:title=" ">
<path fill="none" stroke="#63b8ff" d="M372.17,-169.84C395.91,-160.03 426.42,-146.99 453,-134.25 487.07,-117.92 525.3,-97.14 550.19,-83.28"/>
<polygon fill="#63b8ff" stroke="#63b8ff" points="551.65,-86.47 558.67,-78.54 548.23,-80.37 551.65,-86.47"/>
</a>
</g>
</g>
<!-- Node10 -->
<g id="Node000010" class="node">
<title>Node10</title>
<g id="a_Node000010"><a xlink:href="cmd__handle_8h.html" target="_top" xlink:title=" ">
<polygon fill="white" stroke="#666666" points="806.12,-134.25 721.88,-134.25 721.88,-113.5 806.12,-113.5 806.12,-134.25"/>
<text xml:space="preserve" text-anchor="middle" x="764" y="-120.75" font-family="Helvetica,sans-Serif" font-size="10.00">cmd_handle.h</text>
</a>
</g>
</g>
<!-- Node1&#45;&gt;Node10 -->
<g id="edge10_Node000001_Node000010" class="edge">
<title>Node1&#45;&gt;Node10</title>
<g id="a_edge10_Node000001_Node000010"><a xlink:title=" ">
<path fill="none" stroke="#63b8ff" d="M394.82,-177.11C479.91,-165.07 630.34,-143.79 710.39,-132.46"/>
<polygon fill="#63b8ff" stroke="#63b8ff" points="710.76,-135.94 720.17,-131.08 709.78,-129.01 710.76,-135.94"/>
</a>
</g>
</g>
<!-- Node14 -->
<g id="Node000014" class="node">
<title>Node14</title>
<g id="a_Node000014"><a xlink:href="step__shared_8h.html" target="_top" xlink:title=" ">
<polygon fill="white" stroke="#666666" points="444.12,-134.25 359.88,-134.25 359.88,-113.5 444.12,-113.5 444.12,-134.25"/>
<text xml:space="preserve" text-anchor="middle" x="402" y="-120.75" font-family="Helvetica,sans-Serif" font-size="10.00">step_shared.h</text>
</a>
</g>
</g>
<!-- Node1&#45;&gt;Node14 -->
<g id="edge16_Node000001_Node000014" class="edge">
<title>Node1&#45;&gt;Node14</title>
<g id="a_edge16_Node000001_Node000014"><a xlink:title=" ">
<path fill="none" stroke="#63b8ff" d="M350.39,-169.94C360.19,-161.38 372.25,-150.85 382.25,-142.12"/>
<polygon fill="#63b8ff" stroke="#63b8ff" points="384.36,-144.93 389.59,-135.71 379.75,-139.65 384.36,-144.93"/>
</a>
</g>
</g>
<!-- Node2&#45;&gt;Node3 -->
<g id="edge2_Node000002_Node000003" class="edge">
<title>Node2&#45;&gt;Node3</title>
<g id="a_edge2_Node000002_Node000003"><a xlink:title=" ">
<path fill="none" stroke="#63b8ff" d="M113.29,-56.34C146.67,-47.33 196.38,-33.93 232.83,-24.1"/>
<polygon fill="#63b8ff" stroke="#63b8ff" points="233.48,-27.55 242.22,-21.56 231.65,-20.79 233.48,-27.55"/>
</a>
</g>
</g>
<!-- Node4 -->
<g id="Node000004" class="node">
<title>Node4</title>
<g id="a_Node000004"><a xlink:title=" ">
<polygon fill="#e0e0e0" stroke="#999999" points="116.88,-20.75 37.12,-20.75 37.12,0 116.88,0 116.88,-20.75"/>
<text xml:space="preserve" text-anchor="middle" x="77" y="-7.25" font-family="Helvetica,sans-Serif" font-size="10.00">peripherals.h</text>
</a>
</g>
</g>
<!-- Node2&#45;&gt;Node4 -->
<g id="edge3_Node000002_Node000004" class="edge">
<title>Node2&#45;&gt;Node4</title>
<g id="a_edge3_Node000002_Node000004"><a xlink:title=" ">
<path fill="none" stroke="#63b8ff" d="M77,-56.34C77,-49.72 77,-40.72 77,-32.52"/>
<polygon fill="#63b8ff" stroke="#63b8ff" points="80.5,-32.59 77,-22.59 73.5,-32.59 80.5,-32.59"/>
</a>
</g>
</g>
<!-- Node10&#45;&gt;Node3 -->
<g id="edge14_Node000010_Node000003" class="edge">
<title>Node10&#45;&gt;Node3</title>
<g id="a_edge14_Node000010_Node000003"><a xlink:title=" ">
<path fill="none" stroke="#63b8ff" d="M770.23,-113.44C778.73,-99.26 791.36,-72.48 777,-56.75 747.57,-24.51 456.56,-14.91 333.98,-12.29"/>
<polygon fill="#63b8ff" stroke="#63b8ff" points="334.25,-8.79 324.18,-12.08 334.1,-15.79 334.25,-8.79"/>
</a>
</g>
</g>
<!-- Node10&#45;&gt;Node5 -->
<g id="edge12_Node000010_Node000005" class="edge">
<title>Node10&#45;&gt;Node5</title>
<g id="a_edge12_Node000010_Node000005"><a xlink:title=" ">
<path fill="none" stroke="#63b8ff" d="M758.28,-113.09C754.14,-106 748.4,-96.19 743.35,-87.54"/>
<polygon fill="#63b8ff" stroke="#63b8ff" points="746.5,-86 738.44,-79.14 740.46,-89.53 746.5,-86"/>
</a>
</g>
</g>
<!-- Node11 -->
<g id="Node000011" class="node">
<title>Node11</title>
<g id="a_Node000011"><a xlink:title=" ">
<polygon fill="#e0e0e0" stroke="#999999" points="678.38,-77.5 625.62,-77.5 625.62,-56.75 678.38,-56.75 678.38,-77.5"/>
<text xml:space="preserve" text-anchor="middle" x="652" y="-64" font-family="Helvetica,sans-Serif" font-size="10.00">stdint.h</text>
</a>
</g>
</g>
<!-- Node10&#45;&gt;Node11 -->
<g id="edge11_Node000010_Node000011" class="edge">
<title>Node10&#45;&gt;Node11</title>
<g id="a_edge11_Node000010_Node000011"><a xlink:title=" ">
<path fill="none" stroke="#63b8ff" d="M743.98,-113.09C726.78,-104.68 701.72,-92.43 682.1,-82.84"/>
<polygon fill="#63b8ff" stroke="#63b8ff" points="683.73,-79.74 673.21,-78.49 680.66,-86.03 683.73,-79.74"/>
</a>
</g>
</g>
<!-- Node12 -->
<g id="Node000012" class="node">
<title>Node12</title>
<g id="a_Node000012"><a xlink:title=" ">
<polygon fill="#e0e0e0" stroke="#999999" points="915.5,-77.5 824.5,-77.5 824.5,-56.75 915.5,-56.75 915.5,-77.5"/>
<text xml:space="preserve" text-anchor="middle" x="870" y="-64" font-family="Helvetica,sans-Serif" font-size="10.00">event_groups.h</text>
</a>
</g>
</g>
<!-- Node10&#45;&gt;Node12 -->
<g id="edge13_Node000010_Node000012" class="edge">
<title>Node10&#45;&gt;Node12</title>
<g id="a_edge13_Node000010_Node000012"><a xlink:title=" ">
<path fill="none" stroke="#63b8ff" d="M782.95,-113.09C799.08,-104.76 822.5,-92.66 840.99,-83.11"/>
<polygon fill="#63b8ff" stroke="#63b8ff" points="842.59,-86.22 849.87,-78.52 839.38,-80 842.59,-86.22"/>
</a>
</g>
</g>
<!-- Node13 -->
<g id="Node000013" class="node">
<title>Node13</title>
<g id="a_Node000013"><a xlink:title=" ">
<polygon fill="#e0e0e0" stroke="#999999" points="986,-77.5 934,-77.5 934,-56.75 986,-56.75 986,-77.5"/>
<text xml:space="preserve" text-anchor="middle" x="960" y="-64" font-family="Helvetica,sans-Serif" font-size="10.00">stdlib.h</text>
</a>
</g>
</g>
<!-- Node10&#45;&gt;Node13 -->
<g id="edge15_Node000010_Node000013" class="edge">
<title>Node10&#45;&gt;Node13</title>
<g id="a_edge15_Node000010_Node000013"><a xlink:title=" ">
<path fill="none" stroke="#63b8ff" d="M799.04,-113.09C833.92,-103.35 887.24,-88.45 922.84,-78.51"/>
<polygon fill="#63b8ff" stroke="#63b8ff" points="923.58,-81.93 932.27,-75.87 921.7,-75.19 923.58,-81.93"/>
</a>
</g>
</g>
<!-- Node14&#45;&gt;Node2 -->
<g id="edge18_Node000014_Node000002" class="edge">
<title>Node14&#45;&gt;Node2</title>
<g id="a_edge18_Node000014_Node000002"><a xlink:title=" ">
<path fill="none" stroke="#63b8ff" d="M359.51,-115.72C305.46,-106.61 211.39,-90.76 146.75,-79.87"/>
<polygon fill="#63b8ff" stroke="#63b8ff" points="147.37,-76.43 136.93,-78.22 146.21,-83.33 147.37,-76.43"/>
</a>
</g>
</g>
<!-- Node14&#45;&gt;Node3 -->
<g id="edge20_Node000014_Node000003" class="edge">
<title>Node14&#45;&gt;Node3</title>
<g id="a_edge20_Node000014_Node000003"><a xlink:title=" ">
<path fill="none" stroke="#63b8ff" d="M397.61,-113.33C390.89,-99.5 376.9,-73.69 359,-56.75 345.75,-44.21 328.39,-33.75 313.33,-26.05"/>
<polygon fill="#63b8ff" stroke="#63b8ff" points="315.22,-23.08 304.7,-21.84 312.15,-29.37 315.22,-23.08"/>
</a>
</g>
</g>
<!-- Node14&#45;&gt;Node7 -->
<g id="edge21_Node000014_Node000007" class="edge">
<title>Node14&#45;&gt;Node7</title>
<g id="a_edge21_Node000014_Node000007"><a xlink:title=" ">
<path fill="none" stroke="#63b8ff" d="M372.86,-113.09C346.63,-104.28 307.86,-91.25 278.79,-81.49"/>
<polygon fill="#63b8ff" stroke="#63b8ff" points="280.19,-78.27 269.6,-78.4 277.96,-84.9 280.19,-78.27"/>
</a>
</g>
</g>
<!-- Node14&#45;&gt;Node8 -->
<g id="edge22_Node000014_Node000008" class="edge">
<title>Node14&#45;&gt;Node8</title>
<g id="a_edge22_Node000014_Node000008"><a xlink:title=" ">
<path fill="none" stroke="#63b8ff" d="M386.98,-113.09C374.56,-104.99 356.68,-93.33 342.23,-83.92"/>
<polygon fill="#63b8ff" stroke="#63b8ff" points="344.44,-81.18 334.16,-78.65 340.62,-87.05 344.44,-81.18"/>
</a>
</g>
</g>
<!-- Node14&#45;&gt;Node9 -->
<g id="edge23_Node000014_Node000009" class="edge">
<title>Node14&#45;&gt;Node9</title>
<g id="a_edge23_Node000014_Node000009"><a xlink:title=" ">
<path fill="none" stroke="#63b8ff" d="M433.29,-113.09C461.69,-104.2 503.81,-91.02 535.11,-81.23"/>
<polygon fill="#63b8ff" stroke="#63b8ff" points="535.75,-84.7 544.25,-78.37 533.66,-78.02 535.75,-84.7"/>
</a>
</g>
</g>
<!-- Node14&#45;&gt;Node11 -->
<g id="edge17_Node000014_Node000011" class="edge">
<title>Node14&#45;&gt;Node11</title>
<g id="a_edge17_Node000014_Node000011"><a xlink:title=" ">
<path fill="none" stroke="#63b8ff" d="M444.58,-114.59C485.68,-106.44 549.94,-93.29 614.15,-78.1"/>
<polygon fill="#63b8ff" stroke="#63b8ff" points="614.9,-81.51 623.81,-75.79 613.27,-74.71 614.9,-81.51"/>
</a>
</g>
</g>
<!-- Node15 -->
<g id="Node000015" class="node">
<title>Node15</title>
<g id="a_Node000015"><a xlink:title=" ">
<polygon fill="#e0e0e0" stroke="#999999" points="528.25,-77.5 405.75,-77.5 405.75,-56.75 528.25,-56.75 528.25,-77.5"/>
<text xml:space="preserve" text-anchor="middle" x="467" y="-64" font-family="Helvetica,sans-Serif" font-size="10.00">fsl_device_registers.h</text>
</a>
</g>
</g>
<!-- Node14&#45;&gt;Node15 -->
<g id="edge19_Node000014_Node000015" class="edge">
<title>Node14&#45;&gt;Node15</title>
<g id="a_edge19_Node000014_Node000015"><a xlink:title=" ">
<path fill="none" stroke="#63b8ff" d="M413.62,-113.09C422.86,-105.3 436.01,-94.22 446.95,-85.01"/>
<polygon fill="#63b8ff" stroke="#63b8ff" points="448.93,-87.92 454.32,-78.8 444.42,-82.57 448.93,-87.92"/>
</a>
</g>
</g>
</g>
</svg>

<g id="navigator" transform="translate(0 0)" fill="#404254">
  <rect fill="#f2f5e9" fill-opacity="0.5" stroke="#606060" stroke-width=".5" x="0" y="0" width="60" height="60"/>
  <use id="zoomplus" xlink:href="#zoomPlus" x="17" y="9" onmousedown="handleZoom(evt,'in')"/>
  <use id="zoomminus" xlink:href="#zoomMin" x="42" y="9" onmousedown="handleZoom(evt,'out')"/>
  <use id="reset" xlink:href="#resetDef" x="30" y="36" onmousedown="handleReset()"/>
   <use id="arrowup" xlink:href="#arrowUp" x="0" y="0" onmousedown="handlePan(0,-1)"/>
  <use id="arrowright" xlink:href="#arrowRight" x="0" y="0" onmousedown="handlePan(1,0)"/>
  <use id="arrowdown" xlink:href="#arrowDown" x="0" y="0" onmousedown="handlePan(0,1)"/>
  <use id="arrowleft" xlink:href="#arrowLeft" x="0" y="0" onmousedown="handlePan(-1,0)"/>
</g>
<svg viewBox="0 0 15 15" width="100%" height="30px" preserveAspectRatio="xMaxYMin meet">
 <g id="arrow_out" transform="scale(0.3 0.3)">
  <a xlink:href="step__core_8h__incl_org.svg" target="_base">
   <rect id="button" ry="5" rx="5" y="6" x="6" height="38" width="38"
        fill="#f2f5e9" fill-opacity="0.5" stroke="#606060" stroke-width="1.0"/>
   <path id="arrow"
     d="M 11.500037,31.436501 C 11.940474,20.09759 22.043105,11.32322 32.158766,21.979434 L 37.068811,17.246167 C 37.068811,17.246167 37.088388,32 37.088388,32 L 22.160133,31.978069 C 22.160133,31.978069 26.997745,27.140456 26.997745,27.140456 C 18.528582,18.264221 13.291696,25.230495 11.500037,31.436501 z"
     style="fill:#404040;"/>
  </a>
 </g>
</svg>

<style type='text/css'>
<![CDATA[
[data-mouse-over-selected='false'] { opacity: 0.7; }
[data-mouse-over-selected='true']  { opacity: 1.0; }
]]>
</style>
<script type="application/ecmascript"><![CDATA[
document.addEventListener('DOMContentLoaded', (event) => {
  highlightEdges();
  highlightAdjacentNodes();
});
]]></script>
</svg>
