<?xml version="1.0" encoding="UTF-8" standalone="no"?>
<!DOCTYPE svg PUBLIC "-//W3C//DTD SVG 1.1//EN"
 "http://www.w3.org/Graphics/SVG/1.1/DTD/svg11.dtd">
<!-- Generated by graphviz version 14.1.2 (0)
 -->
<!-- Title: source/step.h Pages: 1 -->
<svg width="228pt" height="86pt"
 viewBox="0.00 0.00 228.00 86.00" xmlns="http://www.w3.org/2000/svg" xmlns:xlink="http://www.w3.org/1999/xlink">
<g id="graph0" class="graph" transform="scale(1 1) rotate(0) translate(4 81.5)">
<title>source/step.h</title>
<!-- Node1 -->
<g id="Node000001" class="node">
<title>Node1</title>
<g id="a_Node000001"><a xlink:title=" ">
<polygon fill="#999999" stroke="#666666" points="149,-77.5 67.75,-77.5 67.75,-56.75 149,-56.75 149,-77.5"/>
<text xml:space="preserve" text-anchor="middle" x="108.38" y="-64" font-family="Helvetica,sans-Serif" font-size="10.00">source/step.h</text>
</a>
</g>
</g>
<!-- Node2 -->
<g id="Node000002" class="node">
<title>Node2</title>
<g id="a_Node000002"><a xlink:title=" ">
<polygon fill="#e0e0e0" stroke="#999999" points="58.75,-20.75 0,-20.75 0,0 58.75,0 58.75,-20.75"/>
<text xml:space="preserve" text-anchor="middle" x="29.38" y="-7.25" font-family="Helvetica,sans-Serif" font-size="10.00">fsl_ftm.h</text>
</a>
</g>
</g>
<!-- Node1&#45;&gt;Node2 -->
<g id="edge1_Node000001_Node000002" class="edge">
<title>Node1&#45;&gt;Node2</title>
<g id="a_edge1_Node000001_Node000002"><a xlink:title=" ">
<path fill="none" stroke="#63b8ff" d="M94.25,-56.34C82.68,-48.32 66.07,-36.81 52.56,-27.44"/>
<polygon fill="#63b8ff" stroke="#63b8ff" points="54.83,-24.76 44.62,-21.94 50.85,-30.51 54.83,-24.76"/>
</a>
</g>
</g>
<!-- Node3 -->
<g id="Node000003" class="node">
<title>Node3</title>
<g id="a_Node000003"><a xlink:title=" ">
<polygon fill="#e0e0e0" stroke="#999999" points="140,-20.75 76.75,-20.75 76.75,0 140,0 140,-20.75"/>
<text xml:space="preserve" text-anchor="middle" x="108.38" y="-7.25" font-family="Helvetica,sans-Serif" font-size="10.00">fsl_gpio.h</text>
</a>
</g>
</g>
<!-- Node1&#45;&gt;Node3 -->
<g id="edge2_Node000001_Node000003" class="edge">
<title>Node1&#45;&gt;Node3</title>
<g id="a_edge2_Node000001_Node000003"><a xlink:title=" ">
<path fill="none" stroke="#63b8ff" d="M108.38,-56.34C108.38,-49.72 108.38,-40.72 108.38,-32.52"/>
<polygon fill="#63b8ff" stroke="#63b8ff" points="111.88,-32.59 108.38,-22.59 104.88,-32.59 111.88,-32.59"/>
</a>
</g>
</g>
<!-- Node4 -->
<g id="Node000004" class="node">
<title>Node4</title>
<g id="a_Node000004"><a xlink:title=" ">
<polygon fill="#e0e0e0" stroke="#999999" points="220.25,-20.75 158.5,-20.75 158.5,0 220.25,0 220.25,-20.75"/>
<text xml:space="preserve" text-anchor="middle" x="189.38" y="-7.25" font-family="Helvetica,sans-Serif" font-size="10.00">fsl_port.h</text>
</a>
</g>
</g>
<!-- Node1&#45;&gt;Node4 -->
<g id="edge3_Node000001_Node000004" class="edge">
<title>Node1&#45;&gt;Node4</title>
<g id="a_edge3_Node000001_Node000004"><a xlink:title=" ">
<path fill="none" stroke="#63b8ff" d="M122.86,-56.34C134.72,-48.32 151.75,-36.81 165.61,-27.44"/>
<polygon fill="#63b8ff" stroke="#63b8ff" points="167.44,-30.43 173.77,-21.93 163.52,-24.63 167.44,-30.43"/>
</a>
</g>
</g>
</g>
</svg>
