<?xml version="1.0" encoding="UTF-8" standalone="no"?>
<!DOCTYPE svg PUBLIC "-//W3C//DTD SVG 1.1//EN"
 "http://www.w3.org/Graphics/SVG/1.1/DTD/svg11.dtd">
<!-- Generated by graphviz version 14.1.5 (0)
 -->
<!-- Title: source/motion/stepper/step_process.c Pages: 1 -->
<svg width="1040pt" height="325pt"
 viewBox="0.00 0.00 1040.00 325.00" xmlns="http://www.w3.org/2000/svg" xmlns:xlink="http://www.w3.org/1999/xlink">
<g id="graph0" class="graph" transform="scale(1 1) rotate(0) translate(4 321.25)">
<title>source/motion/stepper/step_process.c</title>
<!-- Node1 -->
<g id="Node000001" class="node">
<title>Node1</title>
<g id="a_Node000001"><a xlink:title=" ">
<polygon fill="#999999" stroke="#666666" points="435.25,-317.25 309.75,-317.25 309.75,-283.75 435.25,-283.75 435.25,-317.25"/>
<text xml:space="preserve" text-anchor="start" x="317.75" y="-303.75" font-family="Helvetica,sans-Serif" font-size="10.00">source/motion/stepper</text>
<text xml:space="preserve" text-anchor="middle" x="372.5" y="-291" font-family="Helvetica,sans-Serif" font-size="10.00">/step_process.c</text>
</a>
</g>
</g>
<!-- Node2 -->
<g id="Node000002" class="node">
<title>Node2</title>
<g id="a_Node000002"><a xlink:href="log_8h.html" target="_top" xlink:title=" ">
<polygon fill="white" stroke="#666666" points="109,-134.25 0,-134.25 0,-113.5 109,-113.5 109,-134.25"/>
<text xml:space="preserve" text-anchor="middle" x="54.5" y="-120.75" font-family="Helvetica,sans-Serif" font-size="10.00">infrastructure/log.h</text>
</a>
</g>
</g>
<!-- Node1&#45;&gt;Node2 -->
<g id="edge1_Node000001_Node000002" class="edge">
<title>Node1&#45;&gt;Node2</title>
<g id="a_edge1_Node000001_Node000002"><a xlink:title=" ">
<path fill="none" stroke="#63b8ff" d="M309.66,-287.69C275.16,-279.58 232.42,-266.77 197.5,-247.75 145.56,-219.46 95.7,-169.89 70.86,-143.17"/>
<polygon fill="#63b8ff" stroke="#63b8ff" points="73.51,-140.88 64.17,-135.87 68.34,-145.61 73.51,-140.88"/>
</a>
</g>
</g>
<!-- Node5 -->
<g id="Node000005" class="node">
<title>Node5</title>
<g id="a_Node000005"><a xlink:href="step__process_8h.html" target="_top" xlink:title=" ">
<polygon fill="white" stroke="#666666" points="310.88,-247.75 222.12,-247.75 222.12,-227 310.88,-227 310.88,-247.75"/>
<text xml:space="preserve" text-anchor="middle" x="266.5" y="-234.25" font-family="Helvetica,sans-Serif" font-size="10.00">step_process.h</text>
</a>
</g>
</g>
<!-- Node1&#45;&gt;Node5 -->
<g id="edge4_Node000001_Node000005" class="edge">
<title>Node1&#45;&gt;Node5</title>
<g id="a_edge4_Node000001_Node000005"><a xlink:title=" ">
<path fill="none" stroke="#63b8ff" d="M344.37,-283.28C328.47,-274.11 308.71,-262.72 293.08,-253.7"/>
<polygon fill="#63b8ff" stroke="#63b8ff" points="295.2,-250.88 284.79,-248.92 291.7,-256.95 295.2,-250.88"/>
</a>
</g>
</g>
<!-- Node6 -->
<g id="Node000006" class="node">
<title>Node6</title>
<g id="a_Node000006"><a xlink:href="step__internal_8h.html" target="_top" xlink:title=" ">
<polygon fill="white" stroke="#666666" points="416.88,-191 328.12,-191 328.12,-170.25 416.88,-170.25 416.88,-191"/>
<text xml:space="preserve" text-anchor="middle" x="372.5" y="-177.5" font-family="Helvetica,sans-Serif" font-size="10.00">step_internal.h</text>
</a>
</g>
</g>
<!-- Node1&#45;&gt;Node6 -->
<g id="edge26_Node000001_Node000006" class="edge">
<title>Node1&#45;&gt;Node6</title>
<g id="a_edge26_Node000001_Node000006"><a xlink:title=" ">
<path fill="none" stroke="#63b8ff" d="M365.76,-283.45C360.42,-268.81 354.35,-246.54 357.5,-227 358.85,-218.62 361.51,-209.7 364.23,-202"/>
<polygon fill="#63b8ff" stroke="#63b8ff" points="367.4,-203.49 367.68,-192.9 360.86,-201.01 367.4,-203.49"/>
</a>
</g>
</g>
<!-- Node13 -->
<g id="Node000013" class="node">
<title>Node13</title>
<g id="a_Node000013"><a xlink:href="step__shared_8h.html" target="_top" xlink:title=" ">
<polygon fill="white" stroke="#666666" points="619.62,-134.25 535.38,-134.25 535.38,-113.5 619.62,-113.5 619.62,-134.25"/>
<text xml:space="preserve" text-anchor="middle" x="577.5" y="-120.75" font-family="Helvetica,sans-Serif" font-size="10.00">step_shared.h</text>
</a>
</g>
</g>
<!-- Node1&#45;&gt;Node13 -->
<g id="edge27_Node000001_Node000013" class="edge">
<title>Node1&#45;&gt;Node13</title>
<g id="a_edge27_Node000001_Node000013"><a xlink:title=" ">
<path fill="none" stroke="#63b8ff" d="M435.52,-298.43C476.2,-294.23 527.04,-281.81 557.5,-247.75 582.63,-219.66 582.8,-172.82 580.36,-145.81"/>
<polygon fill="#63b8ff" stroke="#63b8ff" points="583.87,-145.67 579.26,-136.13 576.91,-146.46 583.87,-145.67"/>
</a>
</g>
</g>
<!-- Node20 -->
<g id="Node000020" class="node">
<title>Node20</title>
<g id="a_Node000020"><a xlink:href="cmd__dispatch_8h.html" target="_top" xlink:title=" ">
<polygon fill="white" stroke="#666666" points="240.75,-191 148.25,-191 148.25,-170.25 240.75,-170.25 240.75,-191"/>
<text xml:space="preserve" text-anchor="middle" x="194.5" y="-177.5" font-family="Helvetica,sans-Serif" font-size="10.00">cmd_dispatch.h</text>
</a>
</g>
</g>
<!-- Node1&#45;&gt;Node20 -->
<g id="edge28_Node000001_Node000020" class="edge">
<title>Node1&#45;&gt;Node20</title>
<g id="a_edge28_Node000001_Node000020"><a xlink:title=" ">
<path fill="none" stroke="#63b8ff" d="M309.61,-293.14C276.9,-286.7 238.61,-273.75 213.5,-247.75 201.82,-235.66 197.24,-216.87 195.48,-202.41"/>
<polygon fill="#63b8ff" stroke="#63b8ff" points="198.98,-202.28 194.68,-192.6 192.01,-202.85 198.98,-202.28"/>
</a>
</g>
</g>
<!-- Node21 -->
<g id="Node000021" class="node">
<title>Node21</title>
<g id="a_Node000021"><a xlink:href="step__timing_8h.html" target="_top" xlink:title=" ">
<polygon fill="white" stroke="#666666" points="448.88,-247.75 366.12,-247.75 366.12,-227 448.88,-227 448.88,-247.75"/>
<text xml:space="preserve" text-anchor="middle" x="407.5" y="-234.25" font-family="Helvetica,sans-Serif" font-size="10.00">step_timing.h</text>
</a>
</g>
</g>
<!-- Node1&#45;&gt;Node21 -->
<g id="edge33_Node000001_Node000021" class="edge">
<title>Node1&#45;&gt;Node21</title>
<g id="a_edge33_Node000001_Node000021"><a xlink:title=" ">
<path fill="none" stroke="#63b8ff" d="M381.7,-283.44C386.15,-275.67 391.53,-266.27 396.22,-258.07"/>
<polygon fill="#63b8ff" stroke="#63b8ff" points="399.18,-259.95 401.11,-249.53 393.11,-256.47 399.18,-259.95"/>
</a>
</g>
</g>
<!-- Node22 -->
<g id="Node000022" class="node">
<title>Node22</title>
<g id="a_Node000022"><a xlink:href="step__profile_8h.html" target="_top" xlink:title=" ">
<polygon fill="white" stroke="#666666" points="548.5,-247.75 466.5,-247.75 466.5,-227 548.5,-227 548.5,-247.75"/>
<text xml:space="preserve" text-anchor="middle" x="507.5" y="-234.25" font-family="Helvetica,sans-Serif" font-size="10.00">step_profile.h</text>
</a>
</g>
</g>
<!-- Node1&#45;&gt;Node22 -->
<g id="edge35_Node000001_Node000022" class="edge">
<title>Node1&#45;&gt;Node22</title>
<g id="a_edge35_Node000001_Node000022"><a xlink:title=" ">
<path fill="none" stroke="#63b8ff" d="M408.32,-283.28C429.25,-273.81 455.42,-261.95 475.63,-252.81"/>
<polygon fill="#63b8ff" stroke="#63b8ff" points="476.83,-256.1 484.5,-248.79 473.95,-249.73 476.83,-256.1"/>
</a>
</g>
</g>
<!-- Node23 -->
<g id="Node000023" class="node">
<title>Node23</title>
<g id="a_Node000023"><a xlink:title=" ">
<polygon fill="#e0e0e0" stroke="#999999" points="654,-247.75 605,-247.75 605,-227 654,-227 654,-247.75"/>
<text xml:space="preserve" text-anchor="middle" x="629.5" y="-234.25" font-family="Helvetica,sans-Serif" font-size="10.00">stdio.h</text>
</a>
</g>
</g>
<!-- Node1&#45;&gt;Node23 -->
<g id="edge37_Node000001_Node000023" class="edge">
<title>Node1&#45;&gt;Node23</title>
<g id="a_edge37_Node000001_Node000023"><a xlink:title=" ">
<path fill="none" stroke="#63b8ff" d="M435.47,-284.6C479.02,-274.29 538.29,-260.22 590.5,-247.75 591.51,-247.51 592.53,-247.26 593.56,-247.02"/>
<polygon fill="#63b8ff" stroke="#63b8ff" points="594.36,-250.42 603.27,-244.69 592.73,-243.62 594.36,-250.42"/>
</a>
</g>
</g>
<!-- Node3 -->
<g id="Node000003" class="node">
<title>Node3</title>
<g id="a_Node000003"><a xlink:title=" ">
<polygon fill="#e0e0e0" stroke="#999999" points="155.25,-77.5 83.75,-77.5 83.75,-56.75 155.25,-56.75 155.25,-77.5"/>
<text xml:space="preserve" text-anchor="middle" x="119.5" y="-64" font-family="Helvetica,sans-Serif" font-size="10.00">FreeRTOS.h</text>
</a>
</g>
</g>
<!-- Node2&#45;&gt;Node3 -->
<g id="edge2_Node000002_Node000003" class="edge">
<title>Node2&#45;&gt;Node3</title>
<g id="a_edge2_Node000002_Node000003"><a xlink:title=" ">
<path fill="none" stroke="#63b8ff" d="M66.12,-113.09C75.36,-105.3 88.51,-94.22 99.45,-85.01"/>
<polygon fill="#63b8ff" stroke="#63b8ff" points="101.43,-87.92 106.82,-78.8 96.92,-82.57 101.43,-87.92"/>
</a>
</g>
</g>
<!-- Node4 -->
<g id="Node000004" class="node">
<title>Node4</title>
<g id="a_Node000004"><a xlink:title=" ">
<polygon fill="#e0e0e0" stroke="#999999" points="370,-20.75 285,-20.75 285,0 370,0 370,-20.75"/>
<text xml:space="preserve" text-anchor="middle" x="327.5" y="-7.25" font-family="Helvetica,sans-Serif" font-size="10.00">fsl_common.h</text>
</a>
</g>
</g>
<!-- Node2&#45;&gt;Node4 -->
<g id="edge3_Node000002_Node000004" class="edge">
<title>Node2&#45;&gt;Node4</title>
<g id="a_edge3_Node000002_Node000004"><a xlink:title=" ">
<path fill="none" stroke="#63b8ff" d="M54.46,-113.13C54.96,-98.56 58.19,-71.26 74.5,-56.75 103.23,-31.18 208.01,-19.47 273.37,-14.55"/>
<polygon fill="#63b8ff" stroke="#63b8ff" points="273.46,-18.05 283.18,-13.84 272.96,-11.07 273.46,-18.05"/>
</a>
</g>
</g>
<!-- Node5&#45;&gt;Node6 -->
<g id="edge5_Node000005_Node000006" class="edge">
<title>Node5&#45;&gt;Node6</title>
<g id="a_edge5_Node000005_Node000006"><a xlink:title=" ">
<path fill="none" stroke="#63b8ff" d="M285.45,-226.59C301.58,-218.26 325,-206.16 343.49,-196.61"/>
<polygon fill="#63b8ff" stroke="#63b8ff" points="345.09,-199.72 352.37,-192.02 341.88,-193.5 345.09,-199.72"/>
</a>
</g>
</g>
<!-- Node6&#45;&gt;Node3 -->
<g id="edge8_Node000006_Node000003" class="edge">
<title>Node6&#45;&gt;Node3</title>
<g id="a_edge8_Node000006_Node000003"><a xlink:title=" ">
<path fill="none" stroke="#63b8ff" d="M348.27,-169.77C327.01,-160.95 295.39,-147.42 268.5,-134.25 251.22,-125.78 247.88,-121.76 230.5,-113.5 206.21,-101.95 178.17,-90.5 156.35,-82"/>
<polygon fill="#63b8ff" stroke="#63b8ff" points="157.88,-78.83 147.29,-78.49 155.35,-85.36 157.88,-78.83"/>
</a>
</g>
</g>
<!-- Node7 -->
<g id="Node000007" class="node">
<title>Node7</title>
<g id="a_Node000007"><a xlink:title=" ">
<polygon fill="#e0e0e0" stroke="#999999" points="443.88,-77.5 391.12,-77.5 391.12,-56.75 443.88,-56.75 443.88,-77.5"/>
<text xml:space="preserve" text-anchor="middle" x="417.5" y="-64" font-family="Helvetica,sans-Serif" font-size="10.00">stdint.h</text>
</a>
</g>
</g>
<!-- Node6&#45;&gt;Node7 -->
<g id="edge6_Node000006_Node000007" class="edge">
<title>Node6&#45;&gt;Node7</title>
<g id="a_edge6_Node000006_Node000007"><a xlink:title=" ">
<path fill="none" stroke="#63b8ff" d="M380.87,-169.85C387.94,-161.08 397.8,-147.58 403.5,-134.25 409.65,-119.86 413.19,-102.51 415.18,-89.2"/>
<polygon fill="#63b8ff" stroke="#63b8ff" points="418.63,-89.76 416.44,-79.4 411.69,-88.87 418.63,-89.76"/>
</a>
</g>
</g>
<!-- Node8 -->
<g id="Node000008" class="node">
<title>Node8</title>
<g id="a_Node000008"><a xlink:title=" ">
<polygon fill="#e0e0e0" stroke="#999999" points="517,-134.25 456,-134.25 456,-113.5 517,-113.5 517,-134.25"/>
<text xml:space="preserve" text-anchor="middle" x="486.5" y="-120.75" font-family="Helvetica,sans-Serif" font-size="10.00">stdbool.h</text>
</a>
</g>
</g>
<!-- Node6&#45;&gt;Node8 -->
<g id="edge7_Node000006_Node000008" class="edge">
<title>Node6&#45;&gt;Node8</title>
<g id="a_edge7_Node000006_Node000008"><a xlink:title=" ">
<path fill="none" stroke="#63b8ff" d="M392.88,-169.84C410.47,-161.39 436.13,-149.07 456.13,-139.46"/>
<polygon fill="#63b8ff" stroke="#63b8ff" points="457.43,-142.72 464.93,-135.23 454.4,-136.41 457.43,-142.72"/>
</a>
</g>
</g>
<!-- Node9 -->
<g id="Node000009" class="node">
<title>Node9</title>
<g id="a_Node000009"><a xlink:title=" ">
<polygon fill="#e0e0e0" stroke="#999999" points="221,-134.25 166,-134.25 166,-113.5 221,-113.5 221,-134.25"/>
<text xml:space="preserve" text-anchor="middle" x="193.5" y="-120.75" font-family="Helvetica,sans-Serif" font-size="10.00">queue.h</text>
</a>
</g>
</g>
<!-- Node6&#45;&gt;Node9 -->
<g id="edge9_Node000006_Node000009" class="edge">
<title>Node6&#45;&gt;Node9</title>
<g id="a_edge9_Node000006_Node000009"><a xlink:title=" ">
<path fill="none" stroke="#63b8ff" d="M340.5,-169.84C310.18,-160.56 264.61,-146.62 232.25,-136.73"/>
<polygon fill="#63b8ff" stroke="#63b8ff" points="233.44,-133.43 222.85,-133.85 231.39,-140.12 233.44,-133.43"/>
</a>
</g>
</g>
<!-- Node10 -->
<g id="Node000010" class="node">
<title>Node10</title>
<g id="a_Node000010"><a xlink:href="cmd__handle_8h.html" target="_top" xlink:title=" ">
<polygon fill="white" stroke="#666666" points="361.62,-134.25 277.38,-134.25 277.38,-113.5 361.62,-113.5 361.62,-134.25"/>
<text xml:space="preserve" text-anchor="middle" x="319.5" y="-120.75" font-family="Helvetica,sans-Serif" font-size="10.00">cmd_handle.h</text>
</a>
</g>
</g>
<!-- Node6&#45;&gt;Node10 -->
<g id="edge10_Node000006_Node000010" class="edge">
<title>Node6&#45;&gt;Node10</title>
<g id="a_edge10_Node000006_Node000010"><a xlink:title=" ">
<path fill="none" stroke="#63b8ff" d="M363.02,-169.84C355.71,-162.28 345.41,-151.64 336.66,-142.6"/>
<polygon fill="#63b8ff" stroke="#63b8ff" points="339.42,-140.42 329.95,-135.67 334.39,-145.29 339.42,-140.42"/>
</a>
</g>
</g>
<!-- Node6&#45;&gt;Node13 -->
<g id="edge16_Node000006_Node000013" class="edge">
<title>Node6&#45;&gt;Node13</title>
<g id="a_edge16_Node000006_Node000013"><a xlink:title=" ">
<path fill="none" stroke="#63b8ff" d="M409.15,-169.84C442.86,-160.83 493.05,-147.43 529.86,-137.6"/>
<polygon fill="#63b8ff" stroke="#63b8ff" points="530.6,-141.02 539.36,-135.06 528.8,-134.26 530.6,-141.02"/>
</a>
</g>
</g>
<!-- Node10&#45;&gt;Node3 -->
<g id="edge12_Node000010_Node000003" class="edge">
<title>Node10&#45;&gt;Node3</title>
<g id="a_edge12_Node000010_Node000003"><a xlink:title=" ">
<path fill="none" stroke="#63b8ff" d="M283.74,-113.09C250.85,-104.08 201.89,-90.68 165.98,-80.85"/>
<polygon fill="#63b8ff" stroke="#63b8ff" points="167.31,-77.58 156.74,-78.32 165.46,-84.34 167.31,-77.58"/>
</a>
</g>
</g>
<!-- Node10&#45;&gt;Node4 -->
<g id="edge14_Node000010_Node000004" class="edge">
<title>Node10&#45;&gt;Node4</title>
<g id="a_edge14_Node000010_Node000004"><a xlink:title=" ">
<path fill="none" stroke="#63b8ff" d="M276.89,-115.47C235.45,-106.28 181.72,-87.91 203.5,-56.75 219.34,-34.08 247.79,-22.7 273.45,-17"/>
<polygon fill="#63b8ff" stroke="#63b8ff" points="273.98,-20.47 283.12,-15.12 272.64,-13.6 273.98,-20.47"/>
</a>
</g>
</g>
<!-- Node10&#45;&gt;Node7 -->
<g id="edge11_Node000010_Node000007" class="edge">
<title>Node10&#45;&gt;Node7</title>
<g id="a_edge11_Node000010_Node000007"><a xlink:title=" ">
<path fill="none" stroke="#63b8ff" d="M337.02,-113.09C351.79,-104.83 373.18,-92.88 390.2,-83.38"/>
<polygon fill="#63b8ff" stroke="#63b8ff" points="391.79,-86.5 398.81,-78.57 388.37,-80.39 391.79,-86.5"/>
</a>
</g>
</g>
<!-- Node11 -->
<g id="Node000011" class="node">
<title>Node11</title>
<g id="a_Node000011"><a xlink:title=" ">
<polygon fill="#e0e0e0" stroke="#999999" points="303,-77.5 212,-77.5 212,-56.75 303,-56.75 303,-77.5"/>
<text xml:space="preserve" text-anchor="middle" x="257.5" y="-64" font-family="Helvetica,sans-Serif" font-size="10.00">event_groups.h</text>
</a>
</g>
</g>
<!-- Node10&#45;&gt;Node11 -->
<g id="edge13_Node000010_Node000011" class="edge">
<title>Node10&#45;&gt;Node11</title>
<g id="a_edge13_Node000010_Node000011"><a xlink:title=" ">
<path fill="none" stroke="#63b8ff" d="M308.42,-113.09C299.69,-105.38 287.31,-94.45 276.94,-85.29"/>
<polygon fill="#63b8ff" stroke="#63b8ff" points="279.44,-82.83 269.62,-78.83 274.8,-88.07 279.44,-82.83"/>
</a>
</g>
</g>
<!-- Node12 -->
<g id="Node000012" class="node">
<title>Node12</title>
<g id="a_Node000012"><a xlink:title=" ">
<polygon fill="#e0e0e0" stroke="#999999" points="373.5,-77.5 321.5,-77.5 321.5,-56.75 373.5,-56.75 373.5,-77.5"/>
<text xml:space="preserve" text-anchor="middle" x="347.5" y="-64" font-family="Helvetica,sans-Serif" font-size="10.00">stdlib.h</text>
</a>
</g>
</g>
<!-- Node10&#45;&gt;Node12 -->
<g id="edge15_Node000010_Node000012" class="edge">
<title>Node10&#45;&gt;Node12</title>
<g id="a_edge15_Node000010_Node000012"><a xlink:title=" ">
<path fill="none" stroke="#63b8ff" d="M324.51,-113.09C328.09,-106.08 333.04,-96.41 337.42,-87.83"/>
<polygon fill="#63b8ff" stroke="#63b8ff" points="340.41,-89.67 341.85,-79.18 334.18,-86.49 340.41,-89.67"/>
</a>
</g>
</g>
<!-- Node13&#45;&gt;Node4 -->
<g id="edge22_Node000013_Node000004" class="edge">
<title>Node13&#45;&gt;Node4</title>
<g id="a_edge22_Node000013_Node000004"><a xlink:title=" ">
<path fill="none" stroke="#63b8ff" d="M558.44,-113.07C540.77,-103.94 513.79,-89.93 490.5,-77.5 473.52,-68.44 470.04,-64.67 452.5,-56.75 425.4,-44.52 393.94,-33.11 369.35,-24.79"/>
<polygon fill="#63b8ff" stroke="#63b8ff" points="370.61,-21.52 360.02,-21.68 368.4,-28.16 370.61,-21.52"/>
</a>
</g>
</g>
<!-- Node13&#45;&gt;Node7 -->
<g id="edge17_Node000013_Node000007" class="edge">
<title>Node13&#45;&gt;Node7</title>
<g id="a_edge17_Node000013_Node000007"><a xlink:title=" ">
<path fill="none" stroke="#63b8ff" d="M548.9,-113.09C522.71,-104.13 483.78,-90.81 455.09,-80.99"/>
<polygon fill="#63b8ff" stroke="#63b8ff" points="456.29,-77.7 445.69,-77.77 454.02,-84.32 456.29,-77.7"/>
</a>
</g>
</g>
<!-- Node14 -->
<g id="Node000014" class="node">
<title>Node14</title>
<g id="a_Node000014"><a xlink:href="pca9555a_8h.html" target="_top" xlink:title=" ">
<polygon fill="white" stroke="#666666" points="653.5,-77.5 499.5,-77.5 499.5,-56.75 653.5,-56.75 653.5,-77.5"/>
<text xml:space="preserve" text-anchor="middle" x="576.5" y="-64" font-family="Helvetica,sans-Serif" font-size="10.00">driver/pca9555a/pca9555a.h</text>
</a>
</g>
</g>
<!-- Node13&#45;&gt;Node14 -->
<g id="edge18_Node000013_Node000014" class="edge">
<title>Node13&#45;&gt;Node14</title>
<g id="a_edge18_Node000013_Node000014"><a xlink:title=" ">
<path fill="none" stroke="#63b8ff" d="M577.32,-113.09C577.2,-106.47 577.04,-97.47 576.89,-89.27"/>
<polygon fill="#63b8ff" stroke="#63b8ff" points="580.39,-89.28 576.7,-79.34 573.39,-89.4 580.39,-89.28"/>
</a>
</g>
</g>
<!-- Node16 -->
<g id="Node000016" class="node">
<title>Node16</title>
<g id="a_Node000016"><a xlink:title=" ">
<polygon fill="#e0e0e0" stroke="#999999" points="793.75,-77.5 671.25,-77.5 671.25,-56.75 793.75,-56.75 793.75,-77.5"/>
<text xml:space="preserve" text-anchor="middle" x="732.5" y="-64" font-family="Helvetica,sans-Serif" font-size="10.00">fsl_device_registers.h</text>
</a>
</g>
</g>
<!-- Node13&#45;&gt;Node16 -->
<g id="edge21_Node000013_Node000016" class="edge">
<title>Node13&#45;&gt;Node16</title>
<g id="a_edge21_Node000013_Node000016"><a xlink:title=" ">
<path fill="none" stroke="#63b8ff" d="M605.21,-113.09C629.93,-104.36 666.37,-91.48 693.93,-81.75"/>
<polygon fill="#63b8ff" stroke="#63b8ff" points="695.08,-85.06 703.34,-78.42 692.75,-78.46 695.08,-85.06"/>
</a>
</g>
</g>
<!-- Node17 -->
<g id="Node000017" class="node">
<title>Node17</title>
<g id="a_Node000017"><a xlink:title=" ">
<polygon fill="#e0e0e0" stroke="#999999" points="870.88,-77.5 812.12,-77.5 812.12,-56.75 870.88,-56.75 870.88,-77.5"/>
<text xml:space="preserve" text-anchor="middle" x="841.5" y="-64" font-family="Helvetica,sans-Serif" font-size="10.00">fsl_ftm.h</text>
</a>
</g>
</g>
<!-- Node13&#45;&gt;Node17 -->
<g id="edge23_Node000013_Node000017" class="edge">
<title>Node13&#45;&gt;Node17</title>
<g id="a_edge23_Node000013_Node000017"><a xlink:title=" ">
<path fill="none" stroke="#63b8ff" d="M619.9,-114.81C662.9,-106.52 731.65,-92.98 800.64,-77.85"/>
<polygon fill="#63b8ff" stroke="#63b8ff" points="801.23,-81.3 810.24,-75.73 799.72,-74.47 801.23,-81.3"/>
</a>
</g>
</g>
<!-- Node18 -->
<g id="Node000018" class="node">
<title>Node18</title>
<g id="a_Node000018"><a xlink:title=" ">
<polygon fill="#e0e0e0" stroke="#999999" points="952.12,-77.5 888.88,-77.5 888.88,-56.75 952.12,-56.75 952.12,-77.5"/>
<text xml:space="preserve" text-anchor="middle" x="920.5" y="-64" font-family="Helvetica,sans-Serif" font-size="10.00">fsl_gpio.h</text>
</a>
</g>
</g>
<!-- Node13&#45;&gt;Node18 -->
<g id="edge24_Node000013_Node000018" class="edge">
<title>Node13&#45;&gt;Node18</title>
<g id="a_edge24_Node000013_Node000018"><a xlink:title=" ">
<path fill="none" stroke="#63b8ff" d="M619.69,-117.56C676.11,-110.23 779.48,-96.02 877.74,-77.71"/>
<polygon fill="#63b8ff" stroke="#63b8ff" points="878.1,-81.2 887.28,-75.91 876.8,-74.32 878.1,-81.2"/>
</a>
</g>
</g>
<!-- Node19 -->
<g id="Node000019" class="node">
<title>Node19</title>
<g id="a_Node000019"><a xlink:title=" ">
<polygon fill="#e0e0e0" stroke="#999999" points="1032.38,-77.5 970.62,-77.5 970.62,-56.75 1032.38,-56.75 1032.38,-77.5"/>
<text xml:space="preserve" text-anchor="middle" x="1001.5" y="-64" font-family="Helvetica,sans-Serif" font-size="10.00">fsl_port.h</text>
</a>
</g>
</g>
<!-- Node13&#45;&gt;Node19 -->
<g id="edge25_Node000013_Node000019" class="edge">
<title>Node13&#45;&gt;Node19</title>
<g id="a_edge25_Node000013_Node000019"><a xlink:title=" ">
<path fill="none" stroke="#63b8ff" d="M620.06,-119.42C689.13,-113.48 830.08,-99.93 958.9,-77.79"/>
<polygon fill="#63b8ff" stroke="#63b8ff" points="959.38,-81.26 968.63,-76.09 958.18,-74.36 959.38,-81.26"/>
</a>
</g>
</g>
<!-- Node14&#45;&gt;Node4 -->
<g id="edge19_Node000014_Node000004" class="edge">
<title>Node14&#45;&gt;Node4</title>
<g id="a_edge19_Node000014_Node000004"><a xlink:title=" ">
<path fill="none" stroke="#63b8ff" d="M531.7,-56.27C489.49,-46.99 426.2,-33.08 381.28,-23.2"/>
<polygon fill="#63b8ff" stroke="#63b8ff" points="382.28,-19.84 371.76,-21.11 380.77,-26.67 382.28,-19.84"/>
</a>
</g>
</g>
<!-- Node15 -->
<g id="Node000015" class="node">
<title>Node15</title>
<g id="a_Node000015"><a xlink:title=" ">
<polygon fill="#e0e0e0" stroke="#999999" points="616.38,-20.75 536.62,-20.75 536.62,0 616.38,0 616.38,-20.75"/>
<text xml:space="preserve" text-anchor="middle" x="576.5" y="-7.25" font-family="Helvetica,sans-Serif" font-size="10.00">peripherals.h</text>
</a>
</g>
</g>
<!-- Node14&#45;&gt;Node15 -->
<g id="edge20_Node000014_Node000015" class="edge">
<title>Node14&#45;&gt;Node15</title>
<g id="a_edge20_Node000014_Node000015"><a xlink:title=" ">
<path fill="none" stroke="#63b8ff" d="M576.5,-56.34C576.5,-49.72 576.5,-40.72 576.5,-32.52"/>
<polygon fill="#63b8ff" stroke="#63b8ff" points="580,-32.59 576.5,-22.59 573,-32.59 580,-32.59"/>
</a>
</g>
</g>
<!-- Node20&#45;&gt;Node3 -->
<g id="edge30_Node000020_Node000003" class="edge">
<title>Node20&#45;&gt;Node3</title>
<g id="a_edge30_Node000020_Node000003"><a xlink:title=" ">
<path fill="none" stroke="#63b8ff" d="M185.49,-169.96C177.41,-161.05 165.48,-147.28 156.5,-134.25 146.23,-119.36 136.32,-101.39 129.34,-87.94"/>
<polygon fill="#63b8ff" stroke="#63b8ff" points="132.57,-86.56 124.92,-79.23 126.33,-89.73 132.57,-86.56"/>
</a>
</g>
</g>
<!-- Node20&#45;&gt;Node7 -->
<g id="edge29_Node000020_Node000007" class="edge">
<title>Node20&#45;&gt;Node7</title>
<g id="a_edge29_Node000020_Node000007"><a xlink:title=" ">
<path fill="none" stroke="#63b8ff" d="M241.12,-176.39C278.86,-171.82 331.89,-160.81 370.5,-134.25 387.33,-122.67 400.17,-102.99 408.15,-88.1"/>
<polygon fill="#63b8ff" stroke="#63b8ff" points="411.25,-89.73 412.6,-79.22 404.99,-86.59 411.25,-89.73"/>
</a>
</g>
</g>
<!-- Node20&#45;&gt;Node9 -->
<g id="edge31_Node000020_Node000009" class="edge">
<title>Node20&#45;&gt;Node9</title>
<g id="a_edge31_Node000020_Node000009"><a xlink:title=" ">
<path fill="none" stroke="#63b8ff" d="M194.32,-169.84C194.2,-163.22 194.04,-154.22 193.89,-146.02"/>
<polygon fill="#63b8ff" stroke="#63b8ff" points="197.39,-146.03 193.7,-136.09 190.39,-146.15 197.39,-146.03"/>
</a>
</g>
</g>
<!-- Node20&#45;&gt;Node10 -->
<g id="edge32_Node000020_Node000010" class="edge">
<title>Node20&#45;&gt;Node10</title>
<g id="a_edge32_Node000020_Node000010"><a xlink:title=" ">
<path fill="none" stroke="#63b8ff" d="M216.85,-169.84C236.31,-161.31 264.79,-148.84 286.81,-139.19"/>
<polygon fill="#63b8ff" stroke="#63b8ff" points="288.2,-142.4 295.96,-135.19 285.4,-135.99 288.2,-142.4"/>
</a>
</g>
</g>
<!-- Node21&#45;&gt;Node6 -->
<g id="edge34_Node000021_Node000006" class="edge">
<title>Node21&#45;&gt;Node6</title>
<g id="a_edge34_Node000021_Node000006"><a xlink:title=" ">
<path fill="none" stroke="#63b8ff" d="M401.24,-226.59C396.66,-219.42 390.3,-209.48 384.73,-200.76"/>
<polygon fill="#63b8ff" stroke="#63b8ff" points="387.85,-199.14 379.52,-192.6 381.96,-202.91 387.85,-199.14"/>
</a>
</g>
</g>
<!-- Node22&#45;&gt;Node6 -->
<g id="edge36_Node000022_Node000006" class="edge">
<title>Node22&#45;&gt;Node6</title>
<g id="a_edge36_Node000022_Node000006"><a xlink:title=" ">
<path fill="none" stroke="#63b8ff" d="M483.36,-226.59C462.06,-217.94 430.75,-205.25 406.83,-195.55"/>
<polygon fill="#63b8ff" stroke="#63b8ff" points="408.41,-192.41 397.83,-191.9 405.78,-198.9 408.41,-192.41"/>
</a>
</g>
</g>
</g>
</svg>
