<?xml version="1.0" encoding="UTF-8" standalone="no"?>
<!DOCTYPE svg PUBLIC "-//W3C//DTD SVG 1.1//EN"
 "http://www.w3.org/Graphics/SVG/1.1/DTD/svg11.dtd">
<!-- Generated by graphviz version 14.1.4 (0)
 -->
<!-- Title: source/motion/stepper/step_timing.c Pages: 1 -->
<svg width="979pt" height="325pt"
 viewBox="0.00 0.00 979.00 325.00" xmlns="http://www.w3.org/2000/svg" xmlns:xlink="http://www.w3.org/1999/xlink">
<g id="graph0" class="graph" transform="scale(1 1) rotate(0) translate(4 321.25)">
<title>source/motion/stepper/step_timing.c</title>
<!-- Node1 -->
<g id="Node000001" class="node">
<title>Node1</title>
<g id="a_Node000001"><a xlink:title=" ">
<polygon fill="#999999" stroke="#666666" points="305.75,-317.25 180.25,-317.25 180.25,-283.75 305.75,-283.75 305.75,-317.25"/>
<text xml:space="preserve" text-anchor="start" x="188.25" y="-303.75" font-family="Helvetica,sans-Serif" font-size="10.00">source/motion/stepper</text>
<text xml:space="preserve" text-anchor="middle" x="243" y="-291" font-family="Helvetica,sans-Serif" font-size="10.00">/step_timing.c</text>
</a>
</g>
</g>
<!-- Node2 -->
<g id="Node000002" class="node">
<title>Node2</title>
<g id="a_Node000002"><a xlink:href="step__timing_8h.html" target="_top" xlink:title=" ">
<polygon fill="white" stroke="#666666" points="284.38,-247.75 201.62,-247.75 201.62,-227 284.38,-227 284.38,-247.75"/>
<text xml:space="preserve" text-anchor="middle" x="243" y="-234.25" font-family="Helvetica,sans-Serif" font-size="10.00">step_timing.h</text>
</a>
</g>
</g>
<!-- Node1&#45;&gt;Node2 -->
<g id="edge1_Node000001_Node000002" class="edge">
<title>Node1&#45;&gt;Node2</title>
<g id="a_edge1_Node000001_Node000002"><a xlink:title=" ">
<path fill="none" stroke="#63b8ff" d="M243,-283.44C243,-276.1 243,-267.32 243,-259.46"/>
<polygon fill="#63b8ff" stroke="#63b8ff" points="246.5,-259.73 243,-249.73 239.5,-259.73 246.5,-259.73"/>
</a>
</g>
</g>
<!-- Node3 -->
<g id="Node000003" class="node">
<title>Node3</title>
<g id="a_Node000003"><a xlink:href="step__internal_8h.html" target="_top" xlink:title=" ">
<polygon fill="white" stroke="#666666" points="288.38,-191 199.62,-191 199.62,-170.25 288.38,-170.25 288.38,-191"/>
<text xml:space="preserve" text-anchor="middle" x="244" y="-177.5" font-family="Helvetica,sans-Serif" font-size="10.00">step_internal.h</text>
</a>
</g>
</g>
<!-- Node1&#45;&gt;Node3 -->
<g id="edge20_Node000001_Node000003" class="edge">
<title>Node1&#45;&gt;Node3</title>
<g id="a_edge20_Node000001_Node000003"><a xlink:title=" ">
<path fill="none" stroke="#63b8ff" d="M219.55,-283.27C202.39,-269.22 183.61,-247.92 193,-227 198.17,-215.48 207.86,-205.7 217.42,-198.19"/>
<polygon fill="#63b8ff" stroke="#63b8ff" points="219.46,-201.04 225.54,-192.36 215.38,-195.35 219.46,-201.04"/>
</a>
</g>
</g>
<!-- Node11 -->
<g id="Node000011" class="node">
<title>Node11</title>
<g id="a_Node000011"><a xlink:href="step__shared_8h.html" target="_top" xlink:title=" ">
<polygon fill="white" stroke="#666666" points="576.12,-134.25 491.88,-134.25 491.88,-113.5 576.12,-113.5 576.12,-134.25"/>
<text xml:space="preserve" text-anchor="middle" x="534" y="-120.75" font-family="Helvetica,sans-Serif" font-size="10.00">step_shared.h</text>
</a>
</g>
</g>
<!-- Node1&#45;&gt;Node11 -->
<g id="edge21_Node000001_Node000011" class="edge">
<title>Node1&#45;&gt;Node11</title>
<g id="a_edge21_Node000001_Node000011"><a xlink:title=" ">
<path fill="none" stroke="#63b8ff" d="M305.9,-283.69C333.67,-275.25 366.06,-263.34 393,-247.75 443.78,-218.37 493.13,-169.25 517.76,-142.89"/>
<polygon fill="#63b8ff" stroke="#63b8ff" points="520.18,-145.43 524.38,-135.7 515.03,-140.69 520.18,-145.43"/>
</a>
</g>
</g>
<!-- Node18 -->
<g id="Node000018" class="node">
<title>Node18</title>
<g id="a_Node000018"><a xlink:title=" ">
<polygon fill="#e0e0e0" stroke="#999999" points="489.5,-247.75 440.5,-247.75 440.5,-227 489.5,-227 489.5,-247.75"/>
<text xml:space="preserve" text-anchor="middle" x="465" y="-234.25" font-family="Helvetica,sans-Serif" font-size="10.00">stdio.h</text>
</a>
</g>
</g>
<!-- Node1&#45;&gt;Node18 -->
<g id="edge22_Node000001_Node000018" class="edge">
<title>Node1&#45;&gt;Node18</title>
<g id="a_edge22_Node000001_Node000018"><a xlink:title=" ">
<path fill="none" stroke="#63b8ff" d="M301.91,-283.28C342.42,-272.13 394.9,-257.68 429.23,-248.22"/>
<polygon fill="#63b8ff" stroke="#63b8ff" points="429.97,-251.65 438.68,-245.62 428.11,-244.9 429.97,-251.65"/>
</a>
</g>
</g>
<!-- Node19 -->
<g id="Node000019" class="node">
<title>Node19</title>
<g id="a_Node000019"><a xlink:href="step__profile_8h.html" target="_top" xlink:title=" ">
<polygon fill="white" stroke="#666666" points="384,-247.75 302,-247.75 302,-227 384,-227 384,-247.75"/>
<text xml:space="preserve" text-anchor="middle" x="343" y="-234.25" font-family="Helvetica,sans-Serif" font-size="10.00">step_profile.h</text>
</a>
</g>
</g>
<!-- Node1&#45;&gt;Node19 -->
<g id="edge23_Node000001_Node000019" class="edge">
<title>Node1&#45;&gt;Node19</title>
<g id="a_edge23_Node000001_Node000019"><a xlink:title=" ">
<path fill="none" stroke="#63b8ff" d="M269.54,-283.28C284.39,-274.2 302.82,-262.93 317.51,-253.96"/>
<polygon fill="#63b8ff" stroke="#63b8ff" points="318.99,-257.16 325.69,-248.95 315.33,-251.18 318.99,-257.16"/>
</a>
</g>
</g>
<!-- Node20 -->
<g id="Node000020" class="node">
<title>Node20</title>
<g id="a_Node000020"><a xlink:href="cmd__dispatch_8h.html" target="_top" xlink:title=" ">
<polygon fill="white" stroke="#666666" points="181.25,-191 88.75,-191 88.75,-170.25 181.25,-170.25 181.25,-191"/>
<text xml:space="preserve" text-anchor="middle" x="135" y="-177.5" font-family="Helvetica,sans-Serif" font-size="10.00">cmd_dispatch.h</text>
</a>
</g>
</g>
<!-- Node1&#45;&gt;Node20 -->
<g id="edge25_Node000001_Node000020" class="edge">
<title>Node1&#45;&gt;Node20</title>
<g id="a_edge25_Node000001_Node000020"><a xlink:title=" ">
<path fill="none" stroke="#63b8ff" d="M224.14,-283.42C212.93,-273.54 198.67,-260.39 187,-247.75 172.97,-232.55 158.55,-213.93 148.46,-200.33"/>
<polygon fill="#63b8ff" stroke="#63b8ff" points="151.57,-198.66 142.85,-192.65 145.92,-202.79 151.57,-198.66"/>
</a>
</g>
</g>
<!-- Node21 -->
<g id="Node000021" class="node">
<title>Node21</title>
<g id="a_Node000021"><a xlink:href="log_8h.html" target="_top" xlink:title=" ">
<polygon fill="white" stroke="#666666" points="40,-134.25 0,-134.25 0,-113.5 40,-113.5 40,-134.25"/>
<text xml:space="preserve" text-anchor="middle" x="20" y="-120.75" font-family="Helvetica,sans-Serif" font-size="10.00">log.h</text>
</a>
</g>
</g>
<!-- Node1&#45;&gt;Node21 -->
<g id="edge30_Node000001_Node000021" class="edge">
<title>Node1&#45;&gt;Node21</title>
<g id="a_edge30_Node000001_Node000021"><a xlink:title=" ">
<path fill="none" stroke="#63b8ff" d="M214.41,-283.41C180.63,-263.76 123.55,-228.47 80,-191 63.01,-176.38 46.06,-157.17 34.54,-143.23"/>
<polygon fill="#63b8ff" stroke="#63b8ff" points="37.46,-141.28 28.44,-135.71 32.02,-145.68 37.46,-141.28"/>
</a>
</g>
</g>
<!-- Node2&#45;&gt;Node3 -->
<g id="edge2_Node000002_Node000003" class="edge">
<title>Node2&#45;&gt;Node3</title>
<g id="a_edge2_Node000002_Node000003"><a xlink:title=" ">
<path fill="none" stroke="#63b8ff" d="M243.18,-226.59C243.3,-219.97 243.46,-210.97 243.61,-202.77"/>
<polygon fill="#63b8ff" stroke="#63b8ff" points="247.11,-202.9 243.8,-192.84 240.11,-202.78 247.11,-202.9"/>
</a>
</g>
</g>
<!-- Node4 -->
<g id="Node000004" class="node">
<title>Node4</title>
<g id="a_Node000004"><a xlink:title=" ">
<polygon fill="#e0e0e0" stroke="#999999" points="93.75,-77.5 22.25,-77.5 22.25,-56.75 93.75,-56.75 93.75,-77.5"/>
<text xml:space="preserve" text-anchor="middle" x="58" y="-64" font-family="Helvetica,sans-Serif" font-size="10.00">FreeRTOS.h</text>
</a>
</g>
</g>
<!-- Node3&#45;&gt;Node4 -->
<g id="edge3_Node000003_Node000004" class="edge">
<title>Node3&#45;&gt;Node4</title>
<g id="a_edge3_Node000003_Node000004"><a xlink:title=" ">
<path fill="none" stroke="#63b8ff" d="M239.97,-170.04C233.44,-155.67 219.24,-128.64 199,-113.5 183.9,-102.21 139.84,-88.96 104.95,-79.71"/>
<polygon fill="#63b8ff" stroke="#63b8ff" points="106.02,-76.37 95.46,-77.24 104.25,-83.14 106.02,-76.37"/>
</a>
</g>
</g>
<!-- Node5 -->
<g id="Node000005" class="node">
<title>Node5</title>
<g id="a_Node000005"><a xlink:title=" ">
<polygon fill="#e0e0e0" stroke="#999999" points="189.5,-134.25 134.5,-134.25 134.5,-113.5 189.5,-113.5 189.5,-134.25"/>
<text xml:space="preserve" text-anchor="middle" x="162" y="-120.75" font-family="Helvetica,sans-Serif" font-size="10.00">queue.h</text>
</a>
</g>
</g>
<!-- Node3&#45;&gt;Node5 -->
<g id="edge4_Node000003_Node000005" class="edge">
<title>Node3&#45;&gt;Node5</title>
<g id="a_edge4_Node000003_Node000005"><a xlink:title=" ">
<path fill="none" stroke="#63b8ff" d="M229.34,-169.84C217.33,-161.82 200.09,-150.31 186.06,-140.94"/>
<polygon fill="#63b8ff" stroke="#63b8ff" points="188.05,-138.06 177.79,-135.42 184.16,-143.88 188.05,-138.06"/>
</a>
</g>
</g>
<!-- Node6 -->
<g id="Node000006" class="node">
<title>Node6</title>
<g id="a_Node000006"><a xlink:href="cmd__handle_8h.html" target="_top" xlink:title=" ">
<polygon fill="white" stroke="#666666" points="330.12,-134.25 245.88,-134.25 245.88,-113.5 330.12,-113.5 330.12,-134.25"/>
<text xml:space="preserve" text-anchor="middle" x="288" y="-120.75" font-family="Helvetica,sans-Serif" font-size="10.00">cmd_handle.h</text>
</a>
</g>
</g>
<!-- Node3&#45;&gt;Node6 -->
<g id="edge5_Node000003_Node000006" class="edge">
<title>Node3&#45;&gt;Node6</title>
<g id="a_edge5_Node000003_Node000006"><a xlink:title=" ">
<path fill="none" stroke="#63b8ff" d="M251.87,-169.84C257.75,-162.52 265.97,-152.29 273.08,-143.44"/>
<polygon fill="#63b8ff" stroke="#63b8ff" points="275.72,-145.75 279.25,-135.76 270.26,-141.36 275.72,-145.75"/>
</a>
</g>
</g>
<!-- Node3&#45;&gt;Node11 -->
<g id="edge11_Node000003_Node000011" class="edge">
<title>Node3&#45;&gt;Node11</title>
<g id="a_edge11_Node000003_Node000011"><a xlink:title=" ">
<path fill="none" stroke="#63b8ff" d="M288.68,-171.19C340.3,-161.44 425.19,-145.42 480.34,-135.01"/>
<polygon fill="#63b8ff" stroke="#63b8ff" points="480.97,-138.45 490.15,-133.15 479.67,-131.57 480.97,-138.45"/>
</a>
</g>
</g>
<!-- Node6&#45;&gt;Node4 -->
<g id="edge7_Node000006_Node000004" class="edge">
<title>Node6&#45;&gt;Node4</title>
<g id="a_edge7_Node000006_Node000004"><a xlink:title=" ">
<path fill="none" stroke="#63b8ff" d="M246.61,-113.02C206.81,-103.55 146.7,-89.24 105.09,-79.33"/>
<polygon fill="#63b8ff" stroke="#63b8ff" points="106.15,-75.99 95.61,-77.08 104.53,-82.8 106.15,-75.99"/>
</a>
</g>
</g>
<!-- Node7 -->
<g id="Node000007" class="node">
<title>Node7</title>
<g id="a_Node000007"><a xlink:title=" ">
<polygon fill="#e0e0e0" stroke="#999999" points="164.38,-77.5 111.62,-77.5 111.62,-56.75 164.38,-56.75 164.38,-77.5"/>
<text xml:space="preserve" text-anchor="middle" x="138" y="-64" font-family="Helvetica,sans-Serif" font-size="10.00">stdint.h</text>
</a>
</g>
</g>
<!-- Node6&#45;&gt;Node7 -->
<g id="edge6_Node000006_Node000007" class="edge">
<title>Node6&#45;&gt;Node7</title>
<g id="a_edge6_Node000006_Node000007"><a xlink:title=" ">
<path fill="none" stroke="#63b8ff" d="M261.18,-113.09C237.26,-104.36 202,-91.48 175.32,-81.75"/>
<polygon fill="#63b8ff" stroke="#63b8ff" points="176.85,-78.58 166.26,-78.44 174.45,-85.16 176.85,-78.58"/>
</a>
</g>
</g>
<!-- Node8 -->
<g id="Node000008" class="node">
<title>Node8</title>
<g id="a_Node000008"><a xlink:title=" ">
<polygon fill="#e0e0e0" stroke="#999999" points="343.5,-77.5 252.5,-77.5 252.5,-56.75 343.5,-56.75 343.5,-77.5"/>
<text xml:space="preserve" text-anchor="middle" x="298" y="-64" font-family="Helvetica,sans-Serif" font-size="10.00">event_groups.h</text>
</a>
</g>
</g>
<!-- Node6&#45;&gt;Node8 -->
<g id="edge8_Node000006_Node000008" class="edge">
<title>Node6&#45;&gt;Node8</title>
<g id="a_edge8_Node000006_Node000008"><a xlink:title=" ">
<path fill="none" stroke="#63b8ff" d="M289.79,-113.09C291.01,-106.39 292.68,-97.26 294.19,-88.98"/>
<polygon fill="#63b8ff" stroke="#63b8ff" points="297.6,-89.78 295.96,-79.32 290.72,-88.53 297.6,-89.78"/>
</a>
</g>
</g>
<!-- Node9 -->
<g id="Node000009" class="node">
<title>Node9</title>
<g id="a_Node000009"><a xlink:title=" ">
<polygon fill="#e0e0e0" stroke="#999999" points="473.5,-20.75 388.5,-20.75 388.5,0 473.5,0 473.5,-20.75"/>
<text xml:space="preserve" text-anchor="middle" x="431" y="-7.25" font-family="Helvetica,sans-Serif" font-size="10.00">fsl_common.h</text>
</a>
</g>
</g>
<!-- Node6&#45;&gt;Node9 -->
<g id="edge9_Node000006_Node000009" class="edge">
<title>Node6&#45;&gt;Node9</title>
<g id="a_edge9_Node000006_Node000009"><a xlink:title=" ">
<path fill="none" stroke="#63b8ff" d="M302.74,-113.16C316.1,-104.23 336.21,-90.43 353,-77.5 373.69,-61.56 396.36,-42.1 411.9,-28.43"/>
<polygon fill="#63b8ff" stroke="#63b8ff" points="413.86,-31.38 419.03,-22.13 409.22,-26.14 413.86,-31.38"/>
</a>
</g>
</g>
<!-- Node10 -->
<g id="Node000010" class="node">
<title>Node10</title>
<g id="a_Node000010"><a xlink:title=" ">
<polygon fill="#e0e0e0" stroke="#999999" points="234,-77.5 182,-77.5 182,-56.75 234,-56.75 234,-77.5"/>
<text xml:space="preserve" text-anchor="middle" x="208" y="-64" font-family="Helvetica,sans-Serif" font-size="10.00">stdlib.h</text>
</a>
</g>
</g>
<!-- Node6&#45;&gt;Node10 -->
<g id="edge10_Node000006_Node000010" class="edge">
<title>Node6&#45;&gt;Node10</title>
<g id="a_edge10_Node000006_Node000010"><a xlink:title=" ">
<path fill="none" stroke="#63b8ff" d="M273.7,-113.09C261.98,-105.07 245.16,-93.56 231.47,-84.19"/>
<polygon fill="#63b8ff" stroke="#63b8ff" points="233.66,-81.44 223.43,-78.68 229.7,-87.22 233.66,-81.44"/>
</a>
</g>
</g>
<!-- Node11&#45;&gt;Node9 -->
<g id="edge16_Node000011_Node000009" class="edge">
<title>Node11&#45;&gt;Node9</title>
<g id="a_edge16_Node000011_Node000009"><a xlink:title=" ">
<path fill="none" stroke="#63b8ff" d="M525.22,-113.37C508.05,-94.78 469.78,-53.36 447.66,-29.41"/>
<polygon fill="#63b8ff" stroke="#63b8ff" points="450.44,-27.26 441.08,-22.29 445.29,-32.01 450.44,-27.26"/>
</a>
</g>
</g>
<!-- Node12 -->
<g id="Node000012" class="node">
<title>Node12</title>
<g id="a_Node000012"><a xlink:href="pca9555a_8h.html" target="_top" xlink:title=" ">
<polygon fill="white" stroke="#666666" points="971,-77.5 817,-77.5 817,-56.75 971,-56.75 971,-77.5"/>
<text xml:space="preserve" text-anchor="middle" x="894" y="-64" font-family="Helvetica,sans-Serif" font-size="10.00">driver/pca9555a/pca9555a.h</text>
</a>
</g>
</g>
<!-- Node11&#45;&gt;Node12 -->
<g id="edge12_Node000011_Node000012" class="edge">
<title>Node11&#45;&gt;Node12</title>
<g id="a_edge12_Node000011_Node000012"><a xlink:title=" ">
<path fill="none" stroke="#63b8ff" d="M576.36,-116.43C635.76,-107.4 744.77,-90.82 818.31,-79.64"/>
<polygon fill="#63b8ff" stroke="#63b8ff" points="818.48,-83.15 827.84,-78.19 817.43,-76.23 818.48,-83.15"/>
</a>
</g>
</g>
<!-- Node14 -->
<g id="Node000014" class="node">
<title>Node14</title>
<g id="a_Node000014"><a xlink:title=" ">
<polygon fill="#e0e0e0" stroke="#999999" points="640.25,-77.5 517.75,-77.5 517.75,-56.75 640.25,-56.75 640.25,-77.5"/>
<text xml:space="preserve" text-anchor="middle" x="579" y="-64" font-family="Helvetica,sans-Serif" font-size="10.00">fsl_device_registers.h</text>
</a>
</g>
</g>
<!-- Node11&#45;&gt;Node14 -->
<g id="edge15_Node000011_Node000014" class="edge">
<title>Node11&#45;&gt;Node14</title>
<g id="a_edge15_Node000011_Node000014"><a xlink:title=" ">
<path fill="none" stroke="#63b8ff" d="M542.05,-113.09C548.06,-105.77 556.47,-95.54 563.74,-86.69"/>
<polygon fill="#63b8ff" stroke="#63b8ff" points="566.42,-88.95 570.06,-79 561.01,-84.5 566.42,-88.95"/>
</a>
</g>
</g>
<!-- Node15 -->
<g id="Node000015" class="node">
<title>Node15</title>
<g id="a_Node000015"><a xlink:title=" ">
<polygon fill="#e0e0e0" stroke="#999999" points="717.38,-77.5 658.62,-77.5 658.62,-56.75 717.38,-56.75 717.38,-77.5"/>
<text xml:space="preserve" text-anchor="middle" x="688" y="-64" font-family="Helvetica,sans-Serif" font-size="10.00">fsl_ftm.h</text>
</a>
</g>
</g>
<!-- Node11&#45;&gt;Node15 -->
<g id="edge17_Node000011_Node000015" class="edge">
<title>Node11&#45;&gt;Node15</title>
<g id="a_edge17_Node000011_Node000015"><a xlink:title=" ">
<path fill="none" stroke="#63b8ff" d="M561.53,-113.09C586.09,-104.36 622.3,-91.48 649.68,-81.75"/>
<polygon fill="#63b8ff" stroke="#63b8ff" points="650.77,-85.08 659.02,-78.43 648.43,-78.48 650.77,-85.08"/>
</a>
</g>
</g>
<!-- Node16 -->
<g id="Node000016" class="node">
<title>Node16</title>
<g id="a_Node000016"><a xlink:title=" ">
<polygon fill="#e0e0e0" stroke="#999999" points="798.62,-77.5 735.38,-77.5 735.38,-56.75 798.62,-56.75 798.62,-77.5"/>
<text xml:space="preserve" text-anchor="middle" x="767" y="-64" font-family="Helvetica,sans-Serif" font-size="10.00">fsl_gpio.h</text>
</a>
</g>
</g>
<!-- Node11&#45;&gt;Node16 -->
<g id="edge18_Node000011_Node000016" class="edge">
<title>Node11&#45;&gt;Node16</title>
<g id="a_edge18_Node000011_Node000016"><a xlink:title=" ">
<path fill="none" stroke="#63b8ff" d="M575.92,-113.02C617.81,-103.18 681.88,-88.13 724.11,-78.2"/>
<polygon fill="#63b8ff" stroke="#63b8ff" points="724.73,-81.65 733.66,-75.96 723.13,-74.84 724.73,-81.65"/>
</a>
</g>
</g>
<!-- Node17 -->
<g id="Node000017" class="node">
<title>Node17</title>
<g id="a_Node000017"><a xlink:title=" ">
<polygon fill="#e0e0e0" stroke="#999999" points="461.88,-77.5 400.12,-77.5 400.12,-56.75 461.88,-56.75 461.88,-77.5"/>
<text xml:space="preserve" text-anchor="middle" x="431" y="-64" font-family="Helvetica,sans-Serif" font-size="10.00">fsl_port.h</text>
</a>
</g>
</g>
<!-- Node11&#45;&gt;Node17 -->
<g id="edge19_Node000011_Node000017" class="edge">
<title>Node11&#45;&gt;Node17</title>
<g id="a_edge19_Node000011_Node000017"><a xlink:title=" ">
<path fill="none" stroke="#63b8ff" d="M515.59,-113.09C499.91,-104.76 477.15,-92.66 459.19,-83.11"/>
<polygon fill="#63b8ff" stroke="#63b8ff" points="461.06,-80.14 450.59,-78.54 457.78,-86.32 461.06,-80.14"/>
</a>
</g>
</g>
<!-- Node12&#45;&gt;Node9 -->
<g id="edge13_Node000012_Node000009" class="edge">
<title>Node12&#45;&gt;Node9</title>
<g id="a_edge13_Node000012_Node000009"><a xlink:title=" ">
<path fill="none" stroke="#63b8ff" d="M816.5,-56.96C722.68,-45.87 567.09,-27.47 485.21,-17.79"/>
<polygon fill="#63b8ff" stroke="#63b8ff" points="485.76,-14.33 475.42,-16.63 484.94,-21.28 485.76,-14.33"/>
</a>
</g>
</g>
<!-- Node13 -->
<g id="Node000013" class="node">
<title>Node13</title>
<g id="a_Node000013"><a xlink:title=" ">
<polygon fill="#e0e0e0" stroke="#999999" points="933.88,-20.75 854.12,-20.75 854.12,0 933.88,0 933.88,-20.75"/>
<text xml:space="preserve" text-anchor="middle" x="894" y="-7.25" font-family="Helvetica,sans-Serif" font-size="10.00">peripherals.h</text>
</a>
</g>
</g>
<!-- Node12&#45;&gt;Node13 -->
<g id="edge14_Node000012_Node000013" class="edge">
<title>Node12&#45;&gt;Node13</title>
<g id="a_edge14_Node000012_Node000013"><a xlink:title=" ">
<path fill="none" stroke="#63b8ff" d="M894,-56.34C894,-49.72 894,-40.72 894,-32.52"/>
<polygon fill="#63b8ff" stroke="#63b8ff" points="897.5,-32.59 894,-22.59 890.5,-32.59 897.5,-32.59"/>
</a>
</g>
</g>
<!-- Node19&#45;&gt;Node3 -->
<g id="edge24_Node000019_Node000003" class="edge">
<title>Node19&#45;&gt;Node3</title>
<g id="a_edge24_Node000019_Node000003"><a xlink:title=" ">
<path fill="none" stroke="#63b8ff" d="M325.3,-226.59C310.38,-218.33 288.77,-206.38 271.58,-196.88"/>
<polygon fill="#63b8ff" stroke="#63b8ff" points="273.32,-193.84 262.87,-192.06 269.93,-199.96 273.32,-193.84"/>
</a>
</g>
</g>
<!-- Node20&#45;&gt;Node4 -->
<g id="edge27_Node000020_Node000004" class="edge">
<title>Node20&#45;&gt;Node4</title>
<g id="a_edge27_Node000020_Node000004"><a xlink:title=" ">
<path fill="none" stroke="#63b8ff" d="M128.44,-170.12C115.77,-151.78 87.75,-111.2 71.12,-87.12"/>
<polygon fill="#63b8ff" stroke="#63b8ff" points="74.19,-85.41 65.63,-79.17 68.43,-89.39 74.19,-85.41"/>
</a>
</g>
</g>
<!-- Node20&#45;&gt;Node5 -->
<g id="edge28_Node000020_Node000005" class="edge">
<title>Node20&#45;&gt;Node5</title>
<g id="a_edge28_Node000020_Node000005"><a xlink:title=" ">
<path fill="none" stroke="#63b8ff" d="M139.83,-169.84C143.24,-162.91 147.95,-153.37 152.14,-144.86"/>
<polygon fill="#63b8ff" stroke="#63b8ff" points="155.26,-146.45 156.55,-135.94 148.98,-143.36 155.26,-146.45"/>
</a>
</g>
</g>
<!-- Node20&#45;&gt;Node6 -->
<g id="edge29_Node000020_Node000006" class="edge">
<title>Node20&#45;&gt;Node6</title>
<g id="a_edge29_Node000020_Node000006"><a xlink:title=" ">
<path fill="none" stroke="#63b8ff" d="M162.35,-169.84C186.75,-161.11 222.72,-148.23 249.93,-138.5"/>
<polygon fill="#63b8ff" stroke="#63b8ff" points="250.96,-141.85 259.2,-135.18 248.61,-135.25 250.96,-141.85"/>
</a>
</g>
</g>
<!-- Node20&#45;&gt;Node7 -->
<g id="edge26_Node000020_Node000007" class="edge">
<title>Node20&#45;&gt;Node7</title>
<g id="a_edge26_Node000020_Node000007"><a xlink:title=" ">
<path fill="none" stroke="#63b8ff" d="M132.02,-169.77C128.49,-156.85 123.4,-133.49 126,-113.5 127.08,-105.23 129.21,-96.32 131.38,-88.6"/>
<polygon fill="#63b8ff" stroke="#63b8ff" points="134.69,-89.75 134.25,-79.16 127.99,-87.72 134.69,-89.75"/>
</a>
</g>
</g>
<!-- Node21&#45;&gt;Node4 -->
<g id="edge31_Node000021_Node000004" class="edge">
<title>Node21&#45;&gt;Node4</title>
<g id="a_edge31_Node000021_Node000004"><a xlink:title=" ">
<path fill="none" stroke="#63b8ff" d="M26.79,-113.09C31.77,-105.92 38.67,-95.98 44.72,-87.26"/>
<polygon fill="#63b8ff" stroke="#63b8ff" points="47.58,-89.28 50.4,-79.07 41.82,-85.29 47.58,-89.28"/>
</a>
</g>
</g>
<!-- Node21&#45;&gt;Node9 -->
<g id="edge32_Node000021_Node000009" class="edge">
<title>Node21&#45;&gt;Node9</title>
<g id="a_edge32_Node000021_Node000009"><a xlink:title=" ">
<path fill="none" stroke="#63b8ff" d="M15.07,-113.41C8.43,-99.21 -1.03,-72.39 13,-56.75 36.9,-30.11 269.47,-17.66 376.99,-13.29"/>
<polygon fill="#63b8ff" stroke="#63b8ff" points="376.86,-16.8 386.71,-12.9 376.58,-9.8 376.86,-16.8"/>
</a>
</g>
</g>
</g>
</svg>
