<?xml version="1.0" encoding="UTF-8" standalone="no"?>
<!DOCTYPE svg PUBLIC "-//W3C//DTD SVG 1.1//EN"
 "http://www.w3.org/Graphics/SVG/1.1/DTD/svg11.dtd">
<!-- Generated by graphviz version 14.1.4 (0)
 -->
<!-- Title: source/motion/stepper/step_core.h Pages: 1 -->
<!--zoomable 320 -->

<svg id="main" version="1.1" xmlns="http://www.w3.org/2000/svg" xmlns:xlink="http://www.w3.org/1999/xlink" xml:space="preserve" onload="init(evt)">

<style type="text/css"><![CDATA[
.node, .edge {opacity: 0.7;}
.node.selected, .edge.selected {opacity: 1;}
.edge:hover path { stroke: red; }
.edge:hover polygon { stroke: red; fill: red; }
]]></style>

<defs>
  <circle id="rim" cx="0" cy="0" r="7"/>
  <circle id="rim2" cx="0" cy="0" r="3.5"/>
  <g id="zoomPlus">
    <use xlink:href="#rim" fill="#404040"><set attributeName="fill" to="#808080" begin="zoomplus.mouseover" end="zoomplus.mouseout"/></use>
    <path d="M-4,0h8M0,-4v8" fill="none" stroke="white" stroke-width="1.5" pointer-events="none"/>
  </g>
  <g id="zoomMin">
    <use xlink:href="#rim" fill="#404040"><set attributeName="fill" to="#808080" begin="zoomminus.mouseover" end="zoomminus.mouseout"/></use>
    <path d="M-4,0h8" fill="none" stroke="white" stroke-width="1.5" pointer-events="none"/>
  </g>
  <g id="arrowUp" transform="translate(30 24)">
    <use xlink:href="#rim"/>
    <path pointer-events="none" fill="none" stroke="white" stroke-width="1.5" d="M0,-3.0v7 M-2.5,-0.5L0,-3.0L2.5,-0.5"/>
  </g>
  <g id="arrowRight" transform="rotate(90) translate(36 -43)">
    <use xlink:href="#rim"/>
    <path pointer-events="none" fill="none" stroke="white" stroke-width="1.5" d="M0,-3.0v7 M-2.5,-0.5L0,-3.0L2.5,-0.5"/>
  </g>
  <g id="arrowDown" transform="rotate(180) translate(-30 -48)">
    <use xlink:href="#rim"/>
    <path pointer-events="none" fill="none" stroke="white" stroke-width="1.5" d="M0,-3.0v7 M-2.5,-0.5L0,-3.0L2.5,-0.5"/>
  </g>
  <g id="arrowLeft" transform="rotate(270) translate(-36 17)">
    <use xlink:href="#rim"/>
    <path pointer-events="none" fill="none" stroke="white" stroke-width="1.5" d="M0,-3.0v7 M-2.5,-0.5L0,-3.0L2.5,-0.5"/>
  </g>
  <g id="resetDef">
    <use xlink:href="#rim2" fill="#404040"><set attributeName="fill" to="#808080" begin="reset.mouseover" end="reset.mouseout"/></use>
  </g>
</defs>
<script type="application/ecmascript">
var viewWidth = 1627;
var viewHeight = 320;
var sectionId = 'dynsection-1';
</script>
<script type="application/ecmascript" xlink:href="svg.min.js"/>
<svg id="graph" class="graph">
<g id="viewport">
<title>source/motion/stepper/step_core.h</title>
<!-- Node1 -->
<g id="Node000001" class="node">
<title>Node1</title>
<g id="a_Node000001"><a xlink:title=" ">
<polygon fill="#999999" stroke="#666666" points="609.08,-311.5 483.58,-311.5 483.58,-278 609.08,-278 609.08,-311.5"/>
<text xml:space="preserve" text-anchor="start" x="491.58" y="-298" font-family="Helvetica,sans-Serif" font-size="10.00">source/motion/stepper</text>
<text xml:space="preserve" text-anchor="middle" x="546.33" y="-285.25" font-family="Helvetica,sans-Serif" font-size="10.00">/step_core.h</text>
</a>
</g>
</g>
<!-- Node2 -->
<g id="Node000002" class="node">
<title>Node2</title>
<g id="a_Node000002"><a xlink:href="application_8c.html" target="_top" xlink:title=" ">
<polygon fill="white" stroke="#666666" points="129.08,-166.12 15.58,-166.12 15.58,-145.38 129.08,-145.38 129.08,-166.12"/>
<text xml:space="preserve" text-anchor="middle" x="72.33" y="-152.62" font-family="Helvetica,sans-Serif" font-size="10.00">source/application.c</text>
</a>
</g>
</g>
<!-- Node1&#45;&gt;Node2 -->
<g id="edge1_Node000001_Node000002" class="edge">
<title>Node1&#45;&gt;Node2</title>
<g id="a_edge1_Node000001_Node000002"><a xlink:title=" ">
<path fill="none" stroke="#63b8ff" d="M472.02,-280.68C423.8,-271.51 359.83,-258.04 304.33,-242 226.42,-219.48 137.1,-183.74 95.68,-166.58"/>
<polygon fill="#63b8ff" stroke="#63b8ff" points="471.34,-284.12 481.82,-282.52 472.64,-277.24 471.34,-284.12"/>
</a>
</g>
</g>
<!-- Node3 -->
<g id="Node000003" class="node">
<title>Node3</title>
<g id="a_Node000003"><a xlink:href="motor__core_8h.html" target="_top" xlink:title=" ">
<polygon fill="white" stroke="#666666" points="431.33,-242 313.33,-242 313.33,-208.5 431.33,-208.5 431.33,-242"/>
<text xml:space="preserve" text-anchor="start" x="321.33" y="-228.5" font-family="Helvetica,sans-Serif" font-size="10.00">source/motion/motor</text>
<text xml:space="preserve" text-anchor="middle" x="372.33" y="-215.75" font-family="Helvetica,sans-Serif" font-size="10.00">/motor_core.h</text>
</a>
</g>
</g>
<!-- Node1&#45;&gt;Node3 -->
<g id="edge2_Node000001_Node000003" class="edge">
<title>Node1&#45;&gt;Node3</title>
<g id="a_edge2_Node000001_Node000003"><a xlink:title=" ">
<path fill="none" stroke="#63b8ff" d="M494,-273.45C468.39,-263.51 437.98,-251.72 413.97,-242.4"/>
<polygon fill="#63b8ff" stroke="#63b8ff" points="492.66,-276.68 503.24,-277.03 495.19,-270.15 492.66,-276.68"/>
</a>
</g>
</g>
<!-- Node6 -->
<g id="Node000006" class="node">
<title>Node6</title>
<g id="a_Node000006"><a xlink:href="motor__motion_8c.html" target="_top" xlink:title=" ">
<polygon fill="white" stroke="#666666" points="893.33,-33.5 775.33,-33.5 775.33,0 893.33,0 893.33,-33.5"/>
<text xml:space="preserve" text-anchor="start" x="783.33" y="-20" font-family="Helvetica,sans-Serif" font-size="10.00">source/motion/motor</text>
<text xml:space="preserve" text-anchor="middle" x="834.33" y="-7.25" font-family="Helvetica,sans-Serif" font-size="10.00">/motor_motion.c</text>
</a>
</g>
</g>
<!-- Node1&#45;&gt;Node6 -->
<g id="edge41_Node000001_Node000006" class="edge">
<title>Node1&#45;&gt;Node6</title>
<g id="a_edge41_Node000001_Node000006"><a xlink:title=" ">
<path fill="none" stroke="#63b8ff" d="M569.82,-269.95C578.48,-261.17 588.36,-251.14 597.33,-242 672.56,-165.44 685.86,-140.52 766.33,-69.5 780.68,-56.84 797.84,-43.8 811.33,-33.97"/>
<polygon fill="#63b8ff" stroke="#63b8ff" points="567.56,-267.25 563.03,-276.83 572.55,-272.17 567.56,-267.25"/>
</a>
</g>
</g>
<!-- Node7 -->
<g id="Node000007" class="node">
<title>Node7</title>
<g id="a_Node000007"><a xlink:href="motor__sync_8c.html" target="_top" xlink:title=" ">
<polygon fill="white" stroke="#666666" points="757.33,-33.5 639.33,-33.5 639.33,0 757.33,0 757.33,-33.5"/>
<text xml:space="preserve" text-anchor="start" x="647.33" y="-20" font-family="Helvetica,sans-Serif" font-size="10.00">source/motion/motor</text>
<text xml:space="preserve" text-anchor="middle" x="698.33" y="-7.25" font-family="Helvetica,sans-Serif" font-size="10.00">/motor_sync.c</text>
</a>
</g>
</g>
<!-- Node1&#45;&gt;Node7 -->
<g id="edge42_Node000001_Node000007" class="edge">
<title>Node1&#45;&gt;Node7</title>
<g id="a_edge42_Node000001_Node000007"><a xlink:title=" ">
<path fill="none" stroke="#63b8ff" d="M560.61,-267.83C591.59,-211.58 664.21,-79.71 689.48,-33.83"/>
<polygon fill="#63b8ff" stroke="#63b8ff" points="557.65,-265.94 555.89,-276.39 563.78,-269.32 557.65,-265.94"/>
</a>
</g>
</g>
<!-- Node8 -->
<g id="Node000008" class="node">
<title>Node8</title>
<g id="a_Node000008"><a xlink:href="motorCmd_8c.html" target="_top" xlink:title=" ">
<polygon fill="white" stroke="#666666" points="336.96,-27.12 225.71,-27.12 225.71,-6.38 336.96,-6.38 336.96,-27.12"/>
<text xml:space="preserve" text-anchor="middle" x="281.33" y="-13.62" font-family="Helvetica,sans-Serif" font-size="10.00">source/motorCmd.c</text>
</a>
</g>
</g>
<!-- Node1&#45;&gt;Node8 -->
<g id="edge44_Node000001_Node000008" class="edge">
<title>Node1&#45;&gt;Node8</title>
<g id="a_edge44_Node000001_Node000008"><a xlink:title=" ">
<path fill="none" stroke="#63b8ff" d="M471.75,-288.91C336.45,-278.32 59.59,-247.76 6.33,-172.5 -2.27,-160.35 -1.8,-151.47 6.33,-139 34.26,-96.17 180.62,-47.85 247.7,-27.55"/>
<polygon fill="#63b8ff" stroke="#63b8ff" points="471.46,-292.4 481.7,-289.67 472,-285.42 471.46,-292.4"/>
</a>
</g>
</g>
<!-- Node9 -->
<g id="Node000009" class="node">
<title>Node9</title>
<g id="a_Node000009"><a xlink:href="motor__homing_8c.html" target="_top" xlink:title=" ">
<polygon fill="white" stroke="#666666" points="485.71,-27.12 354.96,-27.12 354.96,-6.38 485.71,-6.38 485.71,-27.12"/>
<text xml:space="preserve" text-anchor="middle" x="420.33" y="-13.62" font-family="Helvetica,sans-Serif" font-size="10.00">source/motor_homing.c</text>
</a>
</g>
</g>
<!-- Node1&#45;&gt;Node9 -->
<g id="edge45_Node000001_Node000009" class="edge">
<title>Node1&#45;&gt;Node9</title>
<g id="a_edge45_Node000001_Node000009"><a xlink:title=" ">
<path fill="none" stroke="#63b8ff" d="M534.26,-267.31C507.16,-207.93 442.43,-66.16 424.82,-27.59"/>
<polygon fill="#63b8ff" stroke="#63b8ff" points="531.05,-268.7 538.39,-276.34 537.42,-265.79 531.05,-268.7"/>
</a>
</g>
</g>
<!-- Node12 -->
<g id="Node000012" class="node">
<title>Node12</title>
<g id="a_Node000012"><a xlink:href="motor__init_8c.html" target="_top" xlink:title=" ">
<polygon fill="white" stroke="#666666" points="1480.33,-33.5 1362.33,-33.5 1362.33,0 1480.33,0 1480.33,-33.5"/>
<text xml:space="preserve" text-anchor="start" x="1370.33" y="-20" font-family="Helvetica,sans-Serif" font-size="10.00">source/motion/motor</text>
<text xml:space="preserve" text-anchor="middle" x="1421.33" y="-7.25" font-family="Helvetica,sans-Serif" font-size="10.00">/motor_init.c</text>
</a>
</g>
</g>
<!-- Node1&#45;&gt;Node12 -->
<g id="edge40_Node000001_Node000012" class="edge">
<title>Node1&#45;&gt;Node12</title>
<g id="a_edge40_Node000001_Node000012"><a xlink:title=" ">
<path fill="none" stroke="#63b8ff" d="M620.84,-289.6C817.42,-276.94 1342.2,-231.52 1446.33,-103 1462.65,-82.87 1446.78,-52.44 1433.95,-33.91"/>
<polygon fill="#63b8ff" stroke="#63b8ff" points="620.75,-286.1 611,-290.22 621.2,-293.08 620.75,-286.1"/>
</a>
</g>
</g>
<!-- Node23 -->
<g id="Node000023" class="node">
<title>Node23</title>
<g id="a_Node000023"><a xlink:href="step__core_8c.html" target="_top" xlink:title=" ">
<polygon fill="white" stroke="#666666" points="1619.08,-242 1493.58,-242 1493.58,-208.5 1619.08,-208.5 1619.08,-242"/>
<text xml:space="preserve" text-anchor="start" x="1501.58" y="-228.5" font-family="Helvetica,sans-Serif" font-size="10.00">source/motion/stepper</text>
<text xml:space="preserve" text-anchor="middle" x="1556.33" y="-215.75" font-family="Helvetica,sans-Serif" font-size="10.00">/step_core.c</text>
</a>
</g>
</g>
<!-- Node1&#45;&gt;Node23 -->
<g id="edge43_Node000001_Node000023" class="edge">
<title>Node1&#45;&gt;Node23</title>
<g id="a_edge43_Node000001_Node000023"><a xlink:title=" ">
<path fill="none" stroke="#63b8ff" d="M620.9,-293.31C779.53,-291.56 1161.88,-283.05 1479.33,-242 1483.93,-241.41 1488.67,-240.69 1493.43,-239.9"/>
<polygon fill="#63b8ff" stroke="#63b8ff" points="620.89,-289.81 610.93,-293.41 620.97,-296.81 620.89,-289.81"/>
</a>
</g>
</g>
<!-- Node3&#45;&gt;Node2 -->
<g id="edge3_Node000003_Node000002" class="edge">
<title>Node3&#45;&gt;Node2</title>
<g id="a_edge3_Node000003_Node000002"><a xlink:title=" ">
<path fill="none" stroke="#63b8ff" d="M301.85,-208.39C244.25,-195.43 164.65,-177.52 115.93,-166.56"/>
<polygon fill="#63b8ff" stroke="#63b8ff" points="301.06,-211.8 311.59,-210.58 302.6,-204.97 301.06,-211.8"/>
</a>
</g>
</g>
<!-- Node4 -->
<g id="Node000004" class="node">
<title>Node4</title>
<g id="a_Node000004"><a xlink:href="motor__convert_8h.html" target="_top" xlink:title=" ">
<polygon fill="white" stroke="#666666" points="605.33,-103 487.33,-103 487.33,-69.5 605.33,-69.5 605.33,-103"/>
<text xml:space="preserve" text-anchor="start" x="495.33" y="-89.5" font-family="Helvetica,sans-Serif" font-size="10.00">source/motion/motor</text>
<text xml:space="preserve" text-anchor="middle" x="546.33" y="-76.75" font-family="Helvetica,sans-Serif" font-size="10.00">/motor_convert.h</text>
</a>
</g>
</g>
<!-- Node3&#45;&gt;Node4 -->
<g id="edge4_Node000003_Node000004" class="edge">
<title>Node3&#45;&gt;Node4</title>
<g id="a_edge4_Node000003_Node000004"><a xlink:title=" ">
<path fill="none" stroke="#63b8ff" d="M401.49,-201.29C436.73,-173.55 495.11,-127.58 525.89,-103.34"/>
<polygon fill="#63b8ff" stroke="#63b8ff" points="399.51,-198.39 393.82,-207.33 403.84,-203.89 399.51,-198.39"/>
</a>
</g>
</g>
<!-- Node3&#45;&gt;Node8 -->
<g id="edge35_Node000003_Node000008" class="edge">
<title>Node3&#45;&gt;Node8</title>
<g id="a_edge35_Node000003_Node000008"><a xlink:title=" ">
<path fill="none" stroke="#63b8ff" d="M362.3,-197.68C354.29,-179.34 341.55,-155.39 324.33,-139 298.42,-114.33 271.14,-133.43 252.33,-103 236.96,-78.13 259.52,-44.11 272.8,-27.57"/>
<polygon fill="#63b8ff" stroke="#63b8ff" points="359.04,-198.96 366.09,-206.86 365.51,-196.29 359.04,-198.96"/>
</a>
</g>
</g>
<!-- Node3&#45;&gt;Node9 -->
<g id="edge38_Node000003_Node000009" class="edge">
<title>Node3&#45;&gt;Node9</title>
<g id="a_edge38_Node000003_Node000009"><a xlink:title=" ">
<path fill="none" stroke="#63b8ff" d="M379.29,-197.26C385.55,-172.73 394.88,-135.51 402.33,-103 408.59,-75.72 415.2,-43.35 418.39,-27.49"/>
<polygon fill="#63b8ff" stroke="#63b8ff" points="375.96,-196.19 376.86,-206.74 382.74,-197.92 375.96,-196.19"/>
</a>
</g>
</g>
<!-- Node10 -->
<g id="Node000010" class="node">
<title>Node10</title>
<g id="a_Node000010"><a xlink:href="motor__core_8c.html" target="_top" xlink:title=" ">
<polygon fill="white" stroke="#666666" points="1029.33,-33.5 911.33,-33.5 911.33,0 1029.33,0 1029.33,-33.5"/>
<text xml:space="preserve" text-anchor="start" x="919.33" y="-20" font-family="Helvetica,sans-Serif" font-size="10.00">source/motion/motor</text>
<text xml:space="preserve" text-anchor="middle" x="970.33" y="-7.25" font-family="Helvetica,sans-Serif" font-size="10.00">/motor_core.c</text>
</a>
</g>
</g>
<!-- Node3&#45;&gt;Node10 -->
<g id="edge10_Node000003_Node000010" class="edge">
<title>Node3&#45;&gt;Node10</title>
<g id="a_edge10_Node000003_Node000010"><a xlink:title=" ">
<path fill="none" stroke="#63b8ff" d="M419.23,-203.6C492.37,-171.91 638.48,-110.64 766.33,-69.5 793.03,-60.91 861.05,-44.01 911.25,-31.86"/>
<polygon fill="#63b8ff" stroke="#63b8ff" points="418.14,-200.26 410.37,-207.45 420.94,-206.68 418.14,-200.26"/>
</a>
</g>
</g>
<!-- Node11 -->
<g id="Node000011" class="node">
<title>Node11</title>
<g id="a_Node000011"><a xlink:href="motor__init_8h.html" target="_top" xlink:title=" ">
<polygon fill="white" stroke="#666666" points="1437.33,-103 1319.33,-103 1319.33,-69.5 1437.33,-69.5 1437.33,-103"/>
<text xml:space="preserve" text-anchor="start" x="1327.33" y="-89.5" font-family="Helvetica,sans-Serif" font-size="10.00">source/motion/motor</text>
<text xml:space="preserve" text-anchor="middle" x="1378.33" y="-76.75" font-family="Helvetica,sans-Serif" font-size="10.00">/motor_init.h</text>
</a>
</g>
</g>
<!-- Node3&#45;&gt;Node11 -->
<g id="edge11_Node000003_Node000011" class="edge">
<title>Node3&#45;&gt;Node11</title>
<g id="a_edge11_Node000003_Node000011"><a xlink:title=" ">
<path fill="none" stroke="#63b8ff" d="M443.07,-220.78C555.29,-214.67 780.84,-199.97 970.33,-172.5 1122.97,-150.37 1159.64,-135.85 1310.33,-103 1313.17,-102.38 1316.08,-101.74 1319.02,-101.08"/>
<polygon fill="#63b8ff" stroke="#63b8ff" points="442.89,-217.28 433.09,-221.31 443.27,-224.27 442.89,-217.28"/>
</a>
</g>
</g>
<!-- Node14 -->
<g id="Node000014" class="node">
<title>Node14</title>
<g id="a_Node000014"><a xlink:href="motor__internal_8h.html" target="_top" xlink:title=" ">
<polygon fill="white" stroke="#666666" points="961.33,-172.5 843.33,-172.5 843.33,-139 961.33,-139 961.33,-172.5"/>
<text xml:space="preserve" text-anchor="start" x="851.33" y="-159" font-family="Helvetica,sans-Serif" font-size="10.00">source/motion/motor</text>
<text xml:space="preserve" text-anchor="middle" x="902.33" y="-146.25" font-family="Helvetica,sans-Serif" font-size="10.00">/motor_internal.h</text>
</a>
</g>
</g>
<!-- Node3&#45;&gt;Node14 -->
<g id="edge14_Node000003_Node000014" class="edge">
<title>Node3&#45;&gt;Node14</title>
<g id="a_edge14_Node000003_Node000014"><a xlink:title=" ">
<path fill="none" stroke="#63b8ff" d="M442.72,-215.28C548.02,-201.87 744.65,-176.83 843.05,-164.3"/>
<polygon fill="#63b8ff" stroke="#63b8ff" points="442.57,-211.78 433.09,-216.51 443.45,-218.72 442.57,-211.78"/>
</a>
</g>
</g>
<!-- Node21 -->
<g id="Node000021" class="node">
<title>Node21</title>
<g id="a_Node000021"><a xlink:href="motor__test_8c.html" target="_top" xlink:title=" ">
<polygon fill="white" stroke="#666666" points="207.71,-27.12 94.96,-27.12 94.96,-6.38 207.71,-6.38 207.71,-27.12"/>
<text xml:space="preserve" text-anchor="middle" x="151.33" y="-13.62" font-family="Helvetica,sans-Serif" font-size="10.00">source/motor_test.c</text>
</a>
</g>
</g>
<!-- Node3&#45;&gt;Node21 -->
<g id="edge39_Node000003_Node000021" class="edge">
<title>Node3&#45;&gt;Node21</title>
<g id="a_edge39_Node000003_Node000021"><a xlink:title=" ">
<path fill="none" stroke="#63b8ff" d="M301.7,-213.86C252.69,-205.17 193.27,-191.19 176.33,-172.5 138.31,-130.56 145.57,-54.61 149.63,-27.61"/>
<polygon fill="#63b8ff" stroke="#63b8ff" points="301,-217.29 311.45,-215.54 302.19,-210.39 301,-217.29"/>
</a>
</g>
</g>
<!-- Node22 -->
<g id="Node000022" class="node">
<title>Node22</title>
<g id="a_Node000022"><a xlink:href="motor__configs_8h.html" target="_top" xlink:title=" ">
<polygon fill="white" stroke="#666666" points="314.96,-166.12 185.71,-166.12 185.71,-145.38 314.96,-145.38 314.96,-166.12"/>
<text xml:space="preserve" text-anchor="middle" x="250.33" y="-152.62" font-family="Helvetica,sans-Serif" font-size="10.00">source/motor_configs.h</text>
</a>
</g>
</g>
<!-- Node3&#45;&gt;Node22 -->
<g id="edge36_Node000003_Node000022" class="edge">
<title>Node3&#45;&gt;Node22</title>
<g id="a_edge36_Node000003_Node000022"><a xlink:title=" ">
<path fill="none" stroke="#63b8ff" d="M333.08,-202.53C311.17,-190.41 284.96,-175.91 267.99,-166.52"/>
<polygon fill="#63b8ff" stroke="#63b8ff" points="331.34,-205.57 341.79,-207.35 334.73,-199.45 331.34,-205.57"/>
</a>
</g>
</g>
<!-- Node5 -->
<g id="Node000005" class="node">
<title>Node5</title>
<g id="a_Node000005"><a xlink:href="motor__convert_8c.html" target="_top" xlink:title=" ">
<polygon fill="white" stroke="#666666" points="621.33,-33.5 503.33,-33.5 503.33,0 621.33,0 621.33,-33.5"/>
<text xml:space="preserve" text-anchor="start" x="511.33" y="-20" font-family="Helvetica,sans-Serif" font-size="10.00">source/motion/motor</text>
<text xml:space="preserve" text-anchor="middle" x="562.33" y="-7.25" font-family="Helvetica,sans-Serif" font-size="10.00">/motor_convert.c</text>
</a>
</g>
</g>
<!-- Node4&#45;&gt;Node5 -->
<g id="edge5_Node000004_Node000005" class="edge">
<title>Node4&#45;&gt;Node5</title>
<g id="a_edge5_Node000004_Node000005"><a xlink:title=" ">
<path fill="none" stroke="#63b8ff" d="M552.77,-58.1C554.74,-49.79 556.84,-40.93 558.57,-33.63"/>
<polygon fill="#63b8ff" stroke="#63b8ff" points="549.37,-57.24 550.47,-67.78 556.19,-58.86 549.37,-57.24"/>
</a>
</g>
</g>
<!-- Node4&#45;&gt;Node6 -->
<g id="edge6_Node000004_Node000006" class="edge">
<title>Node4&#45;&gt;Node6</title>
<g id="a_edge6_Node000004_Node000006"><a xlink:title=" ">
<path fill="none" stroke="#63b8ff" d="M616.71,-68.75C665.28,-57.37 729.12,-42.41 775.09,-31.64"/>
<polygon fill="#63b8ff" stroke="#63b8ff" points="616.07,-65.31 607.13,-71 617.67,-72.13 616.07,-65.31"/>
</a>
</g>
</g>
<!-- Node4&#45;&gt;Node7 -->
<g id="edge7_Node000004_Node000007" class="edge">
<title>Node4&#45;&gt;Node7</title>
<g id="a_edge7_Node000004_Node000007"><a xlink:title=" ">
<path fill="none" stroke="#63b8ff" d="M593.25,-64.42C615.37,-54.59 641.36,-43.05 661.96,-33.9"/>
<polygon fill="#63b8ff" stroke="#63b8ff" points="591.84,-61.21 584.12,-68.47 594.68,-67.61 591.84,-61.21"/>
</a>
</g>
</g>
<!-- Node4&#45;&gt;Node8 -->
<g id="edge8_Node000004_Node000008" class="edge">
<title>Node4&#45;&gt;Node8</title>
<g id="a_edge8_Node000004_Node000008"><a xlink:title=" ">
<path fill="none" stroke="#63b8ff" d="M475.78,-67.28C425.73,-54.53 360.45,-37.9 319.71,-27.53"/>
<polygon fill="#63b8ff" stroke="#63b8ff" points="474.84,-70.65 485.4,-69.73 476.57,-63.87 474.84,-70.65"/>
</a>
</g>
</g>
<!-- Node4&#45;&gt;Node9 -->
<g id="edge9_Node000004_Node000009" class="edge">
<title>Node4&#45;&gt;Node9</title>
<g id="a_edge9_Node000004_Node000009"><a xlink:title=" ">
<path fill="none" stroke="#63b8ff" d="M506.1,-63.7C483.41,-51.54 456.17,-36.95 438.57,-27.52"/>
<polygon fill="#63b8ff" stroke="#63b8ff" points="504.35,-66.73 514.82,-68.37 507.66,-60.56 504.35,-66.73"/>
</a>
</g>
</g>
<!-- Node11&#45;&gt;Node12 -->
<g id="edge12_Node000011_Node000012" class="edge">
<title>Node11&#45;&gt;Node12</title>
<g id="a_edge12_Node000011_Node000012"><a xlink:title=" ">
<path fill="none" stroke="#63b8ff" d="M1394.54,-59.81C1400.14,-51.02 1406.25,-41.43 1411.22,-33.63"/>
<polygon fill="#63b8ff" stroke="#63b8ff" points="1391.76,-57.66 1389.34,-67.98 1397.66,-61.42 1391.76,-57.66"/>
</a>
</g>
</g>
<!-- Node13 -->
<g id="Node000013" class="node">
<title>Node13</title>
<g id="a_Node000013"><a xlink:href="motor__process_8c.html" target="_top" xlink:title=" ">
<polygon fill="white" stroke="#666666" points="1165.33,-33.5 1047.33,-33.5 1047.33,0 1165.33,0 1165.33,-33.5"/>
<text xml:space="preserve" text-anchor="start" x="1055.33" y="-20" font-family="Helvetica,sans-Serif" font-size="10.00">source/motion/motor</text>
<text xml:space="preserve" text-anchor="middle" x="1106.33" y="-7.25" font-family="Helvetica,sans-Serif" font-size="10.00">/motor_process.c</text>
</a>
</g>
</g>
<!-- Node11&#45;&gt;Node13 -->
<g id="edge13_Node000011_Node000013" class="edge">
<title>Node11&#45;&gt;Node13</title>
<g id="a_edge13_Node000011_Node000013"><a xlink:title=" ">
<path fill="none" stroke="#63b8ff" d="M1308.02,-67.8C1263.83,-56.84 1207.47,-42.85 1165.56,-32.45"/>
<polygon fill="#63b8ff" stroke="#63b8ff" points="1306.96,-71.14 1317.51,-70.16 1308.65,-64.35 1306.96,-71.14"/>
</a>
</g>
</g>
<!-- Node14&#45;&gt;Node5 -->
<g id="edge15_Node000014_Node000005" class="edge">
<title>Node14&#45;&gt;Node5</title>
<g id="a_edge15_Node000014_Node000005"><a xlink:title=" ">
<path fill="none" stroke="#63b8ff" d="M847.98,-134.53C823.04,-125.13 793.11,-113.69 766.33,-103 708.04,-79.74 641,-51.42 600.16,-33.99"/>
<polygon fill="#63b8ff" stroke="#63b8ff" points="846.7,-137.78 857.29,-138.03 849.16,-131.23 846.7,-137.78"/>
</a>
</g>
</g>
<!-- Node14&#45;&gt;Node11 -->
<g id="edge16_Node000014_Node000011" class="edge">
<title>Node14&#45;&gt;Node11</title>
<g id="a_edge16_Node000014_Node000011"><a xlink:title=" ">
<path fill="none" stroke="#63b8ff" d="M972.87,-148C1054.47,-139.68 1192.69,-124.03 1310.33,-103 1313.2,-102.49 1316.12,-101.93 1319.07,-101.35"/>
<polygon fill="#63b8ff" stroke="#63b8ff" points="972.84,-144.48 963.25,-148.97 973.55,-151.45 972.84,-144.48"/>
</a>
</g>
</g>
<!-- Node15 -->
<g id="Node000015" class="node">
<title>Node15</title>
<g id="a_Node000015"><a xlink:href="motor__motion_8h.html" target="_top" xlink:title=" ">
<polygon fill="white" stroke="#666666" points="1165.33,-103 1047.33,-103 1047.33,-69.5 1165.33,-69.5 1165.33,-103"/>
<text xml:space="preserve" text-anchor="start" x="1055.33" y="-89.5" font-family="Helvetica,sans-Serif" font-size="10.00">source/motion/motor</text>
<text xml:space="preserve" text-anchor="middle" x="1106.33" y="-76.75" font-family="Helvetica,sans-Serif" font-size="10.00">/motor_motion.h</text>
</a>
</g>
</g>
<!-- Node14&#45;&gt;Node15 -->
<g id="edge17_Node000014_Node000015" class="edge">
<title>Node14&#45;&gt;Node15</title>
<g id="a_edge17_Node000014_Node000015"><a xlink:title=" ">
<path fill="none" stroke="#63b8ff" d="M962.08,-134.98C992.44,-124.94 1028.86,-112.88 1057.52,-103.4"/>
<polygon fill="#63b8ff" stroke="#63b8ff" points="961.03,-131.64 952.63,-138.11 963.23,-138.29 961.03,-131.64"/>
</a>
</g>
</g>
<!-- Node17 -->
<g id="Node000017" class="node">
<title>Node17</title>
<g id="a_Node000017"><a xlink:href="motor__process_8h.html" target="_top" xlink:title=" ">
<polygon fill="white" stroke="#666666" points="1029.33,-103 911.33,-103 911.33,-69.5 1029.33,-69.5 1029.33,-103"/>
<text xml:space="preserve" text-anchor="start" x="919.33" y="-89.5" font-family="Helvetica,sans-Serif" font-size="10.00">source/motion/motor</text>
<text xml:space="preserve" text-anchor="middle" x="970.33" y="-76.75" font-family="Helvetica,sans-Serif" font-size="10.00">/motor_process.h</text>
</a>
</g>
</g>
<!-- Node14&#45;&gt;Node17 -->
<g id="edge22_Node000014_Node000017" class="edge">
<title>Node14&#45;&gt;Node17</title>
<g id="a_edge22_Node000014_Node000017"><a xlink:title=" ">
<path fill="none" stroke="#63b8ff" d="M926.54,-130.72C935.77,-121.56 946.05,-111.35 954.33,-103.13"/>
<polygon fill="#63b8ff" stroke="#63b8ff" points="924.15,-128.16 919.52,-137.69 929.09,-133.13 924.15,-128.16"/>
</a>
</g>
</g>
<!-- Node18 -->
<g id="Node000018" class="node">
<title>Node18</title>
<g id="a_Node000018"><a xlink:href="motor__sync_8h.html" target="_top" xlink:title=" ">
<polygon fill="white" stroke="#666666" points="893.33,-103 775.33,-103 775.33,-69.5 893.33,-69.5 893.33,-103"/>
<text xml:space="preserve" text-anchor="start" x="783.33" y="-89.5" font-family="Helvetica,sans-Serif" font-size="10.00">source/motion/motor</text>
<text xml:space="preserve" text-anchor="middle" x="834.33" y="-76.75" font-family="Helvetica,sans-Serif" font-size="10.00">/motor_sync.h</text>
</a>
</g>
</g>
<!-- Node14&#45;&gt;Node18 -->
<g id="edge25_Node000014_Node000018" class="edge">
<title>Node14&#45;&gt;Node18</title>
<g id="a_edge25_Node000014_Node000018"><a xlink:title=" ">
<path fill="none" stroke="#63b8ff" d="M878.13,-130.72C868.9,-121.56 858.61,-111.35 850.33,-103.13"/>
<polygon fill="#63b8ff" stroke="#63b8ff" points="875.58,-133.13 885.14,-137.69 880.51,-128.16 875.58,-133.13"/>
</a>
</g>
</g>
<!-- Node19 -->
<g id="Node000019" class="node">
<title>Node19</title>
<g id="a_Node000019"><a xlink:href="motor__tmc_8h.html" target="_top" xlink:title=" ">
<polygon fill="white" stroke="#666666" points="1301.33,-103 1183.33,-103 1183.33,-69.5 1301.33,-69.5 1301.33,-103"/>
<text xml:space="preserve" text-anchor="start" x="1191.33" y="-89.5" font-family="Helvetica,sans-Serif" font-size="10.00">source/motion/motor</text>
<text xml:space="preserve" text-anchor="middle" x="1242.33" y="-76.75" font-family="Helvetica,sans-Serif" font-size="10.00">/motor_tmc.h</text>
</a>
</g>
</g>
<!-- Node14&#45;&gt;Node19 -->
<g id="edge28_Node000014_Node000019" class="edge">
<title>Node14&#45;&gt;Node19</title>
<g id="a_edge28_Node000014_Node000019"><a xlink:title=" ">
<path fill="none" stroke="#63b8ff" d="M972.66,-142.16C1027.67,-132.12 1106.02,-117.4 1174.33,-103 1177.18,-102.4 1180.09,-101.77 1183.03,-101.13"/>
<polygon fill="#63b8ff" stroke="#63b8ff" points="972.33,-138.66 963.12,-143.9 973.58,-145.55 972.33,-138.66"/>
</a>
</g>
</g>
<!-- Node20 -->
<g id="Node000020" class="node">
<title>Node20</title>
<g id="a_Node000020"><a xlink:href="motor__homing_8h.html" target="_top" xlink:title=" ">
<polygon fill="white" stroke="#666666" points="393.08,-96.62 261.58,-96.62 261.58,-75.88 393.08,-75.88 393.08,-96.62"/>
<text xml:space="preserve" text-anchor="middle" x="327.33" y="-83.12" font-family="Helvetica,sans-Serif" font-size="10.00">source/motor_homing.h</text>
</a>
</g>
</g>
<!-- Node14&#45;&gt;Node20 -->
<g id="edge31_Node000014_Node000020" class="edge">
<title>Node14&#45;&gt;Node20</title>
<g id="a_edge31_Node000014_Node000020"><a xlink:title=" ">
<path fill="none" stroke="#63b8ff" d="M831.8,-146.47C719.75,-133.32 502.6,-107.83 393.41,-95.01"/>
<polygon fill="#63b8ff" stroke="#63b8ff" points="831.12,-149.91 841.46,-147.6 831.94,-142.96 831.12,-149.91"/>
</a>
</g>
</g>
<!-- Node15&#45;&gt;Node6 -->
<g id="edge19_Node000015_Node000006" class="edge">
<title>Node15&#45;&gt;Node6</title>
<g id="a_edge19_Node000015_Node000006"><a xlink:title=" ">
<path fill="none" stroke="#63b8ff" d="M1036.02,-67.8C991.83,-56.84 935.47,-42.85 893.56,-32.45"/>
<polygon fill="#63b8ff" stroke="#63b8ff" points="1034.96,-71.14 1045.51,-70.16 1036.65,-64.35 1034.96,-71.14"/>
</a>
</g>
</g>
<!-- Node15&#45;&gt;Node10 -->
<g id="edge18_Node000015_Node000010" class="edge">
<title>Node15&#45;&gt;Node10</title>
<g id="a_edge18_Node000015_Node000010"><a xlink:title=" ">
<path fill="none" stroke="#63b8ff" d="M1063.51,-63.99C1043.82,-54.22 1020.85,-42.82 1002.64,-33.79"/>
<polygon fill="#63b8ff" stroke="#63b8ff" points="1061.89,-67.1 1072.4,-68.41 1065,-60.83 1061.89,-67.1"/>
</a>
</g>
</g>
<!-- Node15&#45;&gt;Node13 -->
<g id="edge20_Node000015_Node000013" class="edge">
<title>Node15&#45;&gt;Node13</title>
<g id="a_edge20_Node000015_Node000013"><a xlink:title=" ">
<path fill="none" stroke="#63b8ff" d="M1106.33,-57.81C1106.33,-49.59 1106.33,-40.84 1106.33,-33.63"/>
<polygon fill="#63b8ff" stroke="#63b8ff" points="1102.83,-57.74 1106.33,-67.74 1109.83,-57.74 1102.83,-57.74"/>
</a>
</g>
</g>
<!-- Node16 -->
<g id="Node000016" class="node">
<title>Node16</title>
<g id="a_Node000016"><a xlink:href="motor__tmc_8c.html" target="_top" xlink:title=" ">
<polygon fill="white" stroke="#666666" points="1301.33,-33.5 1183.33,-33.5 1183.33,0 1301.33,0 1301.33,-33.5"/>
<text xml:space="preserve" text-anchor="start" x="1191.33" y="-20" font-family="Helvetica,sans-Serif" font-size="10.00">source/motion/motor</text>
<text xml:space="preserve" text-anchor="middle" x="1242.33" y="-7.25" font-family="Helvetica,sans-Serif" font-size="10.00">/motor_tmc.c</text>
</a>
</g>
</g>
<!-- Node15&#45;&gt;Node16 -->
<g id="edge21_Node000015_Node000016" class="edge">
<title>Node15&#45;&gt;Node16</title>
<g id="a_edge21_Node000015_Node000016"><a xlink:title=" ">
<path fill="none" stroke="#63b8ff" d="M1149.16,-63.99C1168.85,-54.22 1191.82,-42.82 1210.02,-33.79"/>
<polygon fill="#63b8ff" stroke="#63b8ff" points="1147.67,-60.83 1140.26,-68.41 1150.78,-67.1 1147.67,-60.83"/>
</a>
</g>
</g>
<!-- Node17&#45;&gt;Node10 -->
<g id="edge23_Node000017_Node000010" class="edge">
<title>Node17&#45;&gt;Node10</title>
<g id="a_edge23_Node000017_Node000010"><a xlink:title=" ">
<path fill="none" stroke="#63b8ff" d="M970.33,-57.81C970.33,-49.59 970.33,-40.84 970.33,-33.63"/>
<polygon fill="#63b8ff" stroke="#63b8ff" points="966.83,-57.74 970.33,-67.74 973.83,-57.74 966.83,-57.74"/>
</a>
</g>
</g>
<!-- Node17&#45;&gt;Node13 -->
<g id="edge24_Node000017_Node000013" class="edge">
<title>Node17&#45;&gt;Node13</title>
<g id="a_edge24_Node000017_Node000013"><a xlink:title=" ">
<path fill="none" stroke="#63b8ff" d="M1013.16,-63.99C1032.85,-54.22 1055.82,-42.82 1074.02,-33.79"/>
<polygon fill="#63b8ff" stroke="#63b8ff" points="1011.67,-60.83 1004.26,-68.41 1014.78,-67.1 1011.67,-60.83"/>
</a>
</g>
</g>
<!-- Node18&#45;&gt;Node7 -->
<g id="edge27_Node000018_Node000007" class="edge">
<title>Node18&#45;&gt;Node7</title>
<g id="a_edge27_Node000018_Node000007"><a xlink:title=" ">
<path fill="none" stroke="#63b8ff" d="M791.51,-63.99C771.82,-54.22 748.85,-42.82 730.64,-33.79"/>
<polygon fill="#63b8ff" stroke="#63b8ff" points="789.89,-67.1 800.4,-68.41 793,-60.83 789.89,-67.1"/>
</a>
</g>
</g>
<!-- Node18&#45;&gt;Node13 -->
<g id="edge26_Node000018_Node000013" class="edge">
<title>Node18&#45;&gt;Node13</title>
<g id="a_edge26_Node000018_Node000013"><a xlink:title=" ">
<path fill="none" stroke="#63b8ff" d="M904.64,-67.8C948.83,-56.84 1005.2,-42.85 1047.1,-32.45"/>
<polygon fill="#63b8ff" stroke="#63b8ff" points="904.02,-64.35 895.16,-70.16 905.71,-71.14 904.02,-64.35"/>
</a>
</g>
</g>
<!-- Node19&#45;&gt;Node13 -->
<g id="edge29_Node000019_Node000013" class="edge">
<title>Node19&#45;&gt;Node13</title>
<g id="a_edge29_Node000019_Node000013"><a xlink:title=" ">
<path fill="none" stroke="#63b8ff" d="M1199.51,-63.99C1179.82,-54.22 1156.85,-42.82 1138.64,-33.79"/>
<polygon fill="#63b8ff" stroke="#63b8ff" points="1197.89,-67.1 1208.4,-68.41 1201,-60.83 1197.89,-67.1"/>
</a>
</g>
</g>
<!-- Node19&#45;&gt;Node16 -->
<g id="edge30_Node000019_Node000016" class="edge">
<title>Node19&#45;&gt;Node16</title>
<g id="a_edge30_Node000019_Node000016"><a xlink:title=" ">
<path fill="none" stroke="#63b8ff" d="M1242.33,-57.81C1242.33,-49.59 1242.33,-40.84 1242.33,-33.63"/>
<polygon fill="#63b8ff" stroke="#63b8ff" points="1238.83,-57.74 1242.33,-67.74 1245.83,-57.74 1238.83,-57.74"/>
</a>
</g>
</g>
<!-- Node20&#45;&gt;Node8 -->
<g id="edge32_Node000020_Node000008" class="edge">
<title>Node20&#45;&gt;Node8</title>
<g id="a_edge32_Node000020_Node000008"><a xlink:title=" ">
<path fill="none" stroke="#63b8ff" d="M314.45,-66.35C305.82,-53.68 294.81,-37.52 287.91,-27.4"/>
<polygon fill="#63b8ff" stroke="#63b8ff" points="311.37,-68.04 319.89,-74.33 317.15,-64.09 311.37,-68.04"/>
</a>
</g>
</g>
<!-- Node20&#45;&gt;Node9 -->
<g id="edge33_Node000020_Node000009" class="edge">
<title>Node20&#45;&gt;Node9</title>
<g id="a_edge33_Node000020_Node000009"><a xlink:title=" ">
<path fill="none" stroke="#63b8ff" d="M349.76,-68.97C367.54,-56.07 391.78,-38.47 406.73,-27.62"/>
<polygon fill="#63b8ff" stroke="#63b8ff" points="347.92,-65.98 341.88,-74.69 352.03,-71.65 347.92,-65.98"/>
</a>
</g>
</g>
<!-- Node20&#45;&gt;Node21 -->
<g id="edge34_Node000020_Node000021" class="edge">
<title>Node20&#45;&gt;Node21</title>
<g id="a_edge34_Node000020_Node000021"><a xlink:title=" ">
<path fill="none" stroke="#63b8ff" d="M291.31,-71.43C257.27,-58.38 207.08,-39.13 176.96,-27.58"/>
<polygon fill="#63b8ff" stroke="#63b8ff" points="289.74,-74.58 300.33,-74.89 292.24,-68.04 289.74,-74.58"/>
</a>
</g>
</g>
<!-- Node22&#45;&gt;Node21 -->
<g id="edge37_Node000022_Node000021" class="edge">
<title>Node22&#45;&gt;Node21</title>
<g id="a_edge37_Node000022_Node000021"><a xlink:title=" ">
<path fill="none" stroke="#63b8ff" d="M236.5,-135.61C215.08,-105.97 174.66,-50.04 158.39,-27.51"/>
<polygon fill="#63b8ff" stroke="#63b8ff" points="233.63,-137.62 242.33,-143.67 239.31,-133.52 233.63,-137.62"/>
</a>
</g>
</g>
</g>
</svg>

<g id="navigator" transform="translate(0 0)" fill="#404254">
  <rect fill="#f2f5e9" fill-opacity="0.5" stroke="#606060" stroke-width=".5" x="0" y="0" width="60" height="60"/>
  <use id="zoomplus" xlink:href="#zoomPlus" x="17" y="9" onmousedown="handleZoom(evt,'in')"/>
  <use id="zoomminus" xlink:href="#zoomMin" x="42" y="9" onmousedown="handleZoom(evt,'out')"/>
  <use id="reset" xlink:href="#resetDef" x="30" y="36" onmousedown="handleReset()"/>
   <use id="arrowup" xlink:href="#arrowUp" x="0" y="0" onmousedown="handlePan(0,-1)"/>
  <use id="arrowright" xlink:href="#arrowRight" x="0" y="0" onmousedown="handlePan(1,0)"/>
  <use id="arrowdown" xlink:href="#arrowDown" x="0" y="0" onmousedown="handlePan(0,1)"/>
  <use id="arrowleft" xlink:href="#arrowLeft" x="0" y="0" onmousedown="handlePan(-1,0)"/>
</g>
<svg viewBox="0 0 15 15" width="100%" height="30px" preserveAspectRatio="xMaxYMin meet">
 <g id="arrow_out" transform="scale(0.3 0.3)">
  <a xlink:href="step__core_8h__dep__incl_org.svg" target="_base">
   <rect id="button" ry="5" rx="5" y="6" x="6" height="38" width="38"
        fill="#f2f5e9" fill-opacity="0.5" stroke="#606060" stroke-width="1.0"/>
   <path id="arrow"
     d="M 11.500037,31.436501 C 11.940474,20.09759 22.043105,11.32322 32.158766,21.979434 L 37.068811,17.246167 C 37.068811,17.246167 37.088388,32 37.088388,32 L 22.160133,31.978069 C 22.160133,31.978069 26.997745,27.140456 26.997745,27.140456 C 18.528582,18.264221 13.291696,25.230495 11.500037,31.436501 z"
     style="fill:#404040;"/>
  </a>
 </g>
</svg>

<style type='text/css'>
<![CDATA[
[data-mouse-over-selected='false'] { opacity: 0.7; }
[data-mouse-over-selected='true']  { opacity: 1.0; }
]]>
</style>
<script type="application/ecmascript"><![CDATA[
document.addEventListener('DOMContentLoaded', (event) => {
  highlightEdges();
  highlightAdjacentNodes();
});
]]></script>
</svg>
