<?xml version="1.0" encoding="UTF-8" standalone="no"?>
<!DOCTYPE svg PUBLIC "-//W3C//DTD SVG 1.1//EN"
 "http://www.w3.org/Graphics/SVG/1.1/DTD/svg11.dtd">
<!-- Generated by graphviz version 14.1.4 (0)
 -->
<!-- Title: source/motion/stepper/step_shared.h Pages: 1 -->
<svg width="2054pt" height="389pt"
 viewBox="0.00 0.00 2054.00 389.00" xmlns="http://www.w3.org/2000/svg" xmlns:xlink="http://www.w3.org/1999/xlink">
<g id="graph0" class="graph" transform="scale(1 1) rotate(0) translate(4 385)">
<title>source/motion/stepper/step_shared.h</title>
<!-- Node1 -->
<g id="Node000001" class="node">
<title>Node1</title>
<g id="a_Node000001"><a xlink:title=" ">
<polygon fill="#999999" stroke="#666666" points="1609.75,-381 1484.25,-381 1484.25,-347.5 1609.75,-347.5 1609.75,-381"/>
<text xml:space="preserve" text-anchor="start" x="1492.25" y="-367.5" font-family="Helvetica,sans-Serif" font-size="10.00">source/motion/stepper</text>
<text xml:space="preserve" text-anchor="middle" x="1547" y="-354.75" font-family="Helvetica,sans-Serif" font-size="10.00">/step_shared.h</text>
</a>
</g>
</g>
<!-- Node2 -->
<g id="Node000002" class="node">
<title>Node2</title>
<g id="a_Node000002"><a xlink:href="step__core_8h.html" target="_top" xlink:title=" ">
<polygon fill="white" stroke="#666666" points="1159.75,-311.5 1034.25,-311.5 1034.25,-278 1159.75,-278 1159.75,-311.5"/>
<text xml:space="preserve" text-anchor="start" x="1042.25" y="-298" font-family="Helvetica,sans-Serif" font-size="10.00">source/motion/stepper</text>
<text xml:space="preserve" text-anchor="middle" x="1097" y="-285.25" font-family="Helvetica,sans-Serif" font-size="10.00">/step_core.h</text>
</a>
</g>
</g>
<!-- Node1&#45;&gt;Node2 -->
<g id="edge1_Node000001_Node000002" class="edge">
<title>Node1&#45;&gt;Node2</title>
<g id="a_edge1_Node000001_Node000002"><a xlink:title=" ">
<path fill="none" stroke="#63b8ff" d="M1472.81,-352.12C1385.52,-339.03 1242.1,-317.51 1159.98,-305.2"/>
<polygon fill="#63b8ff" stroke="#63b8ff" points="1472.05,-355.55 1482.46,-353.57 1473.09,-348.62 1472.05,-355.55"/>
</a>
</g>
</g>
<!-- Node25 -->
<g id="Node000025" class="node">
<title>Node25</title>
<g id="a_Node000025"><a xlink:href="step__internal_8h.html" target="_top" xlink:title=" ">
<polygon fill="white" stroke="#666666" points="1719.75,-311.5 1594.25,-311.5 1594.25,-278 1719.75,-278 1719.75,-311.5"/>
<text xml:space="preserve" text-anchor="start" x="1602.25" y="-298" font-family="Helvetica,sans-Serif" font-size="10.00">source/motion/stepper</text>
<text xml:space="preserve" text-anchor="middle" x="1657" y="-285.25" font-family="Helvetica,sans-Serif" font-size="10.00">/step_internal.h</text>
</a>
</g>
</g>
<!-- Node1&#45;&gt;Node25 -->
<g id="edge47_Node000001_Node000025" class="edge">
<title>Node1&#45;&gt;Node25</title>
<g id="a_edge47_Node000001_Node000025"><a xlink:title=" ">
<path fill="none" stroke="#63b8ff" d="M1582.74,-341.32C1598.42,-331.7 1616.48,-320.61 1630.87,-311.79"/>
<polygon fill="#63b8ff" stroke="#63b8ff" points="1581.33,-338.08 1574.64,-346.29 1584.99,-344.04 1581.33,-338.08"/>
</a>
</g>
</g>
<!-- Node26 -->
<g id="Node000026" class="node">
<title>Node26</title>
<g id="a_Node000026"><a xlink:href="step__process_8c.html" target="_top" xlink:title=" ">
<polygon fill="white" stroke="#666666" points="1719.75,-172.5 1594.25,-172.5 1594.25,-139 1719.75,-139 1719.75,-172.5"/>
<text xml:space="preserve" text-anchor="start" x="1602.25" y="-159" font-family="Helvetica,sans-Serif" font-size="10.00">source/motion/stepper</text>
<text xml:space="preserve" text-anchor="middle" x="1657" y="-146.25" font-family="Helvetica,sans-Serif" font-size="10.00">/step_process.c</text>
</a>
</g>
</g>
<!-- Node1&#45;&gt;Node26 -->
<g id="edge61_Node000001_Node000026" class="edge">
<title>Node1&#45;&gt;Node26</title>
<g id="a_edge61_Node000001_Node000026"><a xlink:title=" ">
<path fill="none" stroke="#63b8ff" d="M1525.52,-338.48C1500.09,-306.03 1464.7,-248.55 1494,-208.5 1506.23,-191.79 1553.53,-177.92 1594.05,-168.76"/>
<polygon fill="#63b8ff" stroke="#63b8ff" points="1522.71,-340.58 1531.73,-346.15 1528.15,-336.17 1522.71,-340.58"/>
</a>
</g>
</g>
<!-- Node30 -->
<g id="Node000030" class="node">
<title>Node30</title>
<g id="a_Node000030"><a xlink:href="step__timing_8c.html" target="_top" xlink:title=" ">
<polygon fill="white" stroke="#666666" points="2045.75,-172.5 1920.25,-172.5 1920.25,-139 2045.75,-139 2045.75,-172.5"/>
<text xml:space="preserve" text-anchor="start" x="1928.25" y="-159" font-family="Helvetica,sans-Serif" font-size="10.00">source/motion/stepper</text>
<text xml:space="preserve" text-anchor="middle" x="1983" y="-146.25" font-family="Helvetica,sans-Serif" font-size="10.00">/step_timing.c</text>
</a>
</g>
</g>
<!-- Node1&#45;&gt;Node30 -->
<g id="edge62_Node000001_Node000030" class="edge">
<title>Node1&#45;&gt;Node30</title>
<g id="a_edge62_Node000001_Node000030"><a xlink:title=" ">
<path fill="none" stroke="#63b8ff" d="M1621.48,-353.62C1735,-337.23 1942.84,-299.97 1987,-242 2002.17,-222.08 1995.57,-191.31 1989.33,-172.69"/>
<polygon fill="#63b8ff" stroke="#63b8ff" points="1621.03,-350.14 1611.62,-355.02 1622.02,-357.07 1621.03,-350.14"/>
</a>
</g>
</g>
<!-- Node3 -->
<g id="Node000003" class="node">
<title>Node3</title>
<g id="a_Node000003"><a xlink:href="application_8c.html" target="_top" xlink:title=" ">
<polygon fill="white" stroke="#666666" points="530.75,-166.12 417.25,-166.12 417.25,-145.38 530.75,-145.38 530.75,-166.12"/>
<text xml:space="preserve" text-anchor="middle" x="474" y="-152.62" font-family="Helvetica,sans-Serif" font-size="10.00">source/application.c</text>
</a>
</g>
</g>
<!-- Node2&#45;&gt;Node3 -->
<g id="edge2_Node000002_Node000003" class="edge">
<title>Node2&#45;&gt;Node3</title>
<g id="a_edge2_Node000002_Node000003"><a xlink:title=" ">
<path fill="none" stroke="#63b8ff" d="M1022.85,-291.34C900.23,-286.52 660.98,-273.33 583,-242 539.98,-224.71 499.87,-185.04 482.74,-166.56"/>
<polygon fill="#63b8ff" stroke="#63b8ff" points="1022.35,-294.83 1032.47,-291.71 1022.62,-287.83 1022.35,-294.83"/>
</a>
</g>
</g>
<!-- Node4 -->
<g id="Node000004" class="node">
<title>Node4</title>
<g id="a_Node000004"><a xlink:href="motor__core_8h.html" target="_top" xlink:title=" ">
<polygon fill="white" stroke="#666666" points="978,-242 860,-242 860,-208.5 978,-208.5 978,-242"/>
<text xml:space="preserve" text-anchor="start" x="868" y="-228.5" font-family="Helvetica,sans-Serif" font-size="10.00">source/motion/motor</text>
<text xml:space="preserve" text-anchor="middle" x="919" y="-215.75" font-family="Helvetica,sans-Serif" font-size="10.00">/motor_core.h</text>
</a>
</g>
</g>
<!-- Node2&#45;&gt;Node4 -->
<g id="edge3_Node000002_Node000004" class="edge">
<title>Node2&#45;&gt;Node4</title>
<g id="a_edge3_Node000002_Node000004"><a xlink:title=" ">
<path fill="none" stroke="#63b8ff" d="M1043.82,-273.58C1017.54,-263.62 986.27,-251.76 961.6,-242.4"/>
<polygon fill="#63b8ff" stroke="#63b8ff" points="1042.36,-276.77 1052.95,-277.05 1044.84,-270.23 1042.36,-276.77"/>
</a>
</g>
</g>
<!-- Node7 -->
<g id="Node000007" class="node">
<title>Node7</title>
<g id="a_Node000007"><a xlink:href="motor__motion_8c.html" target="_top" xlink:title=" ">
<polygon fill="white" stroke="#666666" points="705,-33.5 587,-33.5 587,0 705,0 705,-33.5"/>
<text xml:space="preserve" text-anchor="start" x="595" y="-20" font-family="Helvetica,sans-Serif" font-size="10.00">source/motion/motor</text>
<text xml:space="preserve" text-anchor="middle" x="646" y="-7.25" font-family="Helvetica,sans-Serif" font-size="10.00">/motor_motion.c</text>
</a>
</g>
</g>
<!-- Node2&#45;&gt;Node7 -->
<g id="edge42_Node000002_Node000007" class="edge">
<title>Node2&#45;&gt;Node7</title>
<g id="a_edge42_Node000002_Node000007"><a xlink:title=" ">
<path fill="none" stroke="#63b8ff" d="M1022.77,-286.28C900.24,-272.21 664.36,-237.23 616,-172.5 584.39,-130.19 617.49,-63.72 635.7,-33.57"/>
<polygon fill="#63b8ff" stroke="#63b8ff" points="1022.07,-289.72 1032.4,-287.36 1022.86,-282.76 1022.07,-289.72"/>
</a>
</g>
</g>
<!-- Node8 -->
<g id="Node000008" class="node">
<title>Node8</title>
<g id="a_Node000008"><a xlink:href="motor__sync_8c.html" target="_top" xlink:title=" ">
<polygon fill="white" stroke="#666666" points="977,-33.5 859,-33.5 859,0 977,0 977,-33.5"/>
<text xml:space="preserve" text-anchor="start" x="867" y="-20" font-family="Helvetica,sans-Serif" font-size="10.00">source/motion/motor</text>
<text xml:space="preserve" text-anchor="middle" x="918" y="-7.25" font-family="Helvetica,sans-Serif" font-size="10.00">/motor_sync.c</text>
</a>
</g>
</g>
<!-- Node2&#45;&gt;Node8 -->
<g id="edge43_Node000002_Node000008" class="edge">
<title>Node2&#45;&gt;Node8</title>
<g id="a_edge43_Node000002_Node000008"><a xlink:title=" ">
<path fill="none" stroke="#63b8ff" d="M1090.94,-267.02C1082.82,-234.83 1066.31,-179.99 1040,-139 1011.93,-95.27 965.66,-54.97 938.89,-33.64"/>
<polygon fill="#63b8ff" stroke="#63b8ff" points="1087.44,-267.42 1093.2,-276.32 1094.24,-265.77 1087.44,-267.42"/>
</a>
</g>
</g>
<!-- Node9 -->
<g id="Node000009" class="node">
<title>Node9</title>
<g id="a_Node000009"><a xlink:href="motorCmd_8c.html" target="_top" xlink:title=" ">
<polygon fill="white" stroke="#666666" points="1239.62,-27.12 1128.38,-27.12 1128.38,-6.38 1239.62,-6.38 1239.62,-27.12"/>
<text xml:space="preserve" text-anchor="middle" x="1184" y="-13.62" font-family="Helvetica,sans-Serif" font-size="10.00">source/motorCmd.c</text>
</a>
</g>
</g>
<!-- Node2&#45;&gt;Node9 -->
<g id="edge45_Node000002_Node000009" class="edge">
<title>Node2&#45;&gt;Node9</title>
<g id="a_edge45_Node000002_Node000009"><a xlink:title=" ">
<path fill="none" stroke="#63b8ff" d="M1124.1,-270.16C1159.86,-237.04 1221.05,-172.94 1245,-103 1249.82,-88.91 1251.26,-83.01 1245,-69.5 1236.31,-50.72 1217.07,-36.27 1202.5,-27.47"/>
<polygon fill="#63b8ff" stroke="#63b8ff" points="1122.18,-267.17 1117.15,-276.49 1126.9,-272.35 1122.18,-267.17"/>
</a>
</g>
</g>
<!-- Node10 -->
<g id="Node000010" class="node">
<title>Node10</title>
<g id="a_Node000010"><a xlink:href="motor__homing_8c.html" target="_top" xlink:title=" ">
<polygon fill="white" stroke="#666666" points="1388.38,-27.12 1257.62,-27.12 1257.62,-6.38 1388.38,-6.38 1388.38,-27.12"/>
<text xml:space="preserve" text-anchor="middle" x="1323" y="-13.62" font-family="Helvetica,sans-Serif" font-size="10.00">source/motor_homing.c</text>
</a>
</g>
</g>
<!-- Node2&#45;&gt;Node10 -->
<g id="edge46_Node000002_Node000010" class="edge">
<title>Node2&#45;&gt;Node10</title>
<g id="a_edge46_Node000002_Node000010"><a xlink:title=" ">
<path fill="none" stroke="#63b8ff" d="M1139.19,-272.05C1153.53,-263.66 1169.17,-253.35 1182,-242 1241.01,-189.81 1253.6,-171.79 1292,-103 1306.35,-77.29 1316.28,-43.65 1320.59,-27.39"/>
<polygon fill="#63b8ff" stroke="#63b8ff" points="1137.8,-268.81 1130.82,-276.79 1141.25,-274.9 1137.8,-268.81"/>
</a>
</g>
</g>
<!-- Node13 -->
<g id="Node000013" class="node">
<title>Node13</title>
<g id="a_Node000013"><a xlink:href="motor__init_8c.html" target="_top" xlink:title=" ">
<polygon fill="white" stroke="#666666" points="118,-33.5 0,-33.5 0,0 118,0 118,-33.5"/>
<text xml:space="preserve" text-anchor="start" x="8" y="-20" font-family="Helvetica,sans-Serif" font-size="10.00">source/motion/motor</text>
<text xml:space="preserve" text-anchor="middle" x="59" y="-7.25" font-family="Helvetica,sans-Serif" font-size="10.00">/motor_init.c</text>
</a>
</g>
</g>
<!-- Node2&#45;&gt;Node13 -->
<g id="edge41_Node000002_Node000013" class="edge">
<title>Node2&#45;&gt;Node13</title>
<g id="a_edge41_Node000002_Node000013"><a xlink:title=" ">
<path fill="none" stroke="#63b8ff" d="M1022.89,-291.46C913.11,-287.09 701.14,-274.83 524,-242 301.42,-200.75 170.49,-283.59 34,-103 18.38,-82.33 34.03,-52.07 46.63,-33.72"/>
<polygon fill="#63b8ff" stroke="#63b8ff" points="1022.52,-294.95 1032.65,-291.84 1022.79,-287.96 1022.52,-294.95"/>
</a>
</g>
</g>
<!-- Node24 -->
<g id="Node000024" class="node">
<title>Node24</title>
<g id="a_Node000024"><a xlink:href="step__core_8c.html" target="_top" xlink:title=" ">
<polygon fill="white" stroke="#666666" points="1537.75,-172.5 1412.25,-172.5 1412.25,-139 1537.75,-139 1537.75,-172.5"/>
<text xml:space="preserve" text-anchor="start" x="1420.25" y="-159" font-family="Helvetica,sans-Serif" font-size="10.00">source/motion/stepper</text>
<text xml:space="preserve" text-anchor="middle" x="1475" y="-146.25" font-family="Helvetica,sans-Serif" font-size="10.00">/step_core.c</text>
</a>
</g>
</g>
<!-- Node2&#45;&gt;Node24 -->
<g id="edge44_Node000002_Node000024" class="edge">
<title>Node2&#45;&gt;Node24</title>
<g id="a_edge44_Node000002_Node000024"><a xlink:title=" ">
<path fill="none" stroke="#63b8ff" d="M1171.3,-290.36C1229.22,-285.31 1310.4,-272.81 1375,-242 1393.43,-233.21 1434.98,-195.03 1458.3,-172.86"/>
<polygon fill="#63b8ff" stroke="#63b8ff" points="1171.23,-286.86 1161.54,-291.16 1171.79,-293.83 1171.23,-286.86"/>
</a>
</g>
</g>
<!-- Node4&#45;&gt;Node3 -->
<g id="edge4_Node000004_Node000003" class="edge">
<title>Node4&#45;&gt;Node3</title>
<g id="a_edge4_Node000004_Node000003"><a xlink:title=" ">
<path fill="none" stroke="#63b8ff" d="M848.6,-216.23C773.22,-207.24 650.24,-191.42 545,-172.5 535.43,-170.78 525.2,-168.67 515.56,-166.56"/>
<polygon fill="#63b8ff" stroke="#63b8ff" points="847.98,-219.68 858.32,-217.38 848.8,-212.73 847.98,-219.68"/>
</a>
</g>
</g>
<!-- Node5 -->
<g id="Node000005" class="node">
<title>Node5</title>
<g id="a_Node000005"><a xlink:href="motor__convert_8h.html" target="_top" xlink:title=" ">
<polygon fill="white" stroke="#666666" points="955,-103 837,-103 837,-69.5 955,-69.5 955,-103"/>
<text xml:space="preserve" text-anchor="start" x="845" y="-89.5" font-family="Helvetica,sans-Serif" font-size="10.00">source/motion/motor</text>
<text xml:space="preserve" text-anchor="middle" x="896" y="-76.75" font-family="Helvetica,sans-Serif" font-size="10.00">/motor_convert.h</text>
</a>
</g>
</g>
<!-- Node4&#45;&gt;Node5 -->
<g id="edge5_Node000004_Node000005" class="edge">
<title>Node4&#45;&gt;Node5</title>
<g id="a_edge5_Node000004_Node000005"><a xlink:title=" ">
<path fill="none" stroke="#63b8ff" d="M902.46,-198.47C898.19,-190.46 894.18,-181.4 892,-172.5 886.21,-148.9 889.48,-120.55 892.58,-103.22"/>
<polygon fill="#63b8ff" stroke="#63b8ff" points="899.33,-200.04 907.34,-206.97 905.4,-196.55 899.33,-200.04"/>
</a>
</g>
</g>
<!-- Node4&#45;&gt;Node9 -->
<g id="edge36_Node000004_Node000009" class="edge">
<title>Node4&#45;&gt;Node9</title>
<g id="a_edge36_Node000004_Node000009"><a xlink:title=" ">
<path fill="none" stroke="#63b8ff" d="M989.33,-219.07C1063.12,-209.42 1175.54,-181.83 1228,-103 1245.16,-77.21 1214.16,-43.89 1195.92,-27.6"/>
<polygon fill="#63b8ff" stroke="#63b8ff" points="989.29,-215.55 979.78,-220.23 990.13,-222.5 989.29,-215.55"/>
</a>
</g>
</g>
<!-- Node4&#45;&gt;Node10 -->
<g id="edge39_Node000004_Node000010" class="edge">
<title>Node4&#45;&gt;Node10</title>
<g id="a_edge39_Node000004_Node000010"><a xlink:title=" ">
<path fill="none" stroke="#63b8ff" d="M989.51,-222.72C1045.73,-218.75 1124.75,-206.79 1185,-172.5 1250.7,-135.11 1301.47,-54.93 1317.6,-27.32"/>
<polygon fill="#63b8ff" stroke="#63b8ff" points="989.5,-219.22 979.74,-223.34 989.94,-226.2 989.5,-219.22"/>
</a>
</g>
</g>
<!-- Node11 -->
<g id="Node000011" class="node">
<title>Node11</title>
<g id="a_Node000011"><a xlink:href="motor__core_8c.html" target="_top" xlink:title=" ">
<polygon fill="white" stroke="#666666" points="569,-33.5 451,-33.5 451,0 569,0 569,-33.5"/>
<text xml:space="preserve" text-anchor="start" x="459" y="-20" font-family="Helvetica,sans-Serif" font-size="10.00">source/motion/motor</text>
<text xml:space="preserve" text-anchor="middle" x="510" y="-7.25" font-family="Helvetica,sans-Serif" font-size="10.00">/motor_core.c</text>
</a>
</g>
</g>
<!-- Node4&#45;&gt;Node11 -->
<g id="edge11_Node000004_Node000011" class="edge">
<title>Node4&#45;&gt;Node11</title>
<g id="a_edge11_Node000004_Node000011"><a xlink:title=" ">
<path fill="none" stroke="#63b8ff" d="M901.13,-198.76C872.83,-159.13 818.02,-85.62 790,-69.5 707.16,-21.84 671.71,-52.29 578,-33.5 575.15,-32.93 572.23,-32.33 569.29,-31.7"/>
<polygon fill="#63b8ff" stroke="#63b8ff" points="898.21,-200.69 906.85,-206.81 903.92,-196.63 898.21,-200.69"/>
</a>
</g>
</g>
<!-- Node12 -->
<g id="Node000012" class="node">
<title>Node12</title>
<g id="a_Node000012"><a xlink:href="motor__init_8h.html" target="_top" xlink:title=" ">
<polygon fill="white" stroke="#666666" points="161,-103 43,-103 43,-69.5 161,-69.5 161,-103"/>
<text xml:space="preserve" text-anchor="start" x="51" y="-89.5" font-family="Helvetica,sans-Serif" font-size="10.00">source/motion/motor</text>
<text xml:space="preserve" text-anchor="middle" x="102" y="-76.75" font-family="Helvetica,sans-Serif" font-size="10.00">/motor_init.h</text>
</a>
</g>
</g>
<!-- Node4&#45;&gt;Node12 -->
<g id="edge12_Node000004_Node000012" class="edge">
<title>Node4&#45;&gt;Node12</title>
<g id="a_edge12_Node000004_Node000012"><a xlink:title=" ">
<path fill="none" stroke="#63b8ff" d="M848.4,-217.17C786.26,-209.78 693.82,-195.91 616,-172.5 580.65,-161.87 575.71,-148.35 540,-139 380.17,-97.15 333.05,-129.7 170,-103 167.13,-102.53 164.2,-102.01 161.25,-101.45"/>
<polygon fill="#63b8ff" stroke="#63b8ff" points="847.8,-220.63 858.14,-218.31 848.61,-213.67 847.8,-220.63"/>
</a>
</g>
</g>
<!-- Node15 -->
<g id="Node000015" class="node">
<title>Node15</title>
<g id="a_Node000015"><a xlink:href="motor__internal_8h.html" target="_top" xlink:title=" ">
<polygon fill="white" stroke="#666666" points="743,-172.5 625,-172.5 625,-139 743,-139 743,-172.5"/>
<text xml:space="preserve" text-anchor="start" x="633" y="-159" font-family="Helvetica,sans-Serif" font-size="10.00">source/motion/motor</text>
<text xml:space="preserve" text-anchor="middle" x="684" y="-146.25" font-family="Helvetica,sans-Serif" font-size="10.00">/motor_internal.h</text>
</a>
</g>
</g>
<!-- Node4&#45;&gt;Node15 -->
<g id="edge15_Node000004_Node000015" class="edge">
<title>Node4&#45;&gt;Node15</title>
<g id="a_edge15_Node000004_Node000015"><a xlink:title=" ">
<path fill="none" stroke="#63b8ff" d="M852.01,-205.01C816.68,-194.86 773.82,-182.55 740.24,-172.9"/>
<polygon fill="#63b8ff" stroke="#63b8ff" points="850.68,-208.27 861.26,-207.66 852.61,-201.54 850.68,-208.27"/>
</a>
</g>
</g>
<!-- Node22 -->
<g id="Node000022" class="node">
<title>Node22</title>
<g id="a_Node000022"><a xlink:href="motor__test_8c.html" target="_top" xlink:title=" ">
<polygon fill="white" stroke="#666666" points="1110.38,-27.12 997.62,-27.12 997.62,-6.38 1110.38,-6.38 1110.38,-27.12"/>
<text xml:space="preserve" text-anchor="middle" x="1054" y="-13.62" font-family="Helvetica,sans-Serif" font-size="10.00">source/motor_test.c</text>
</a>
</g>
</g>
<!-- Node4&#45;&gt;Node22 -->
<g id="edge40_Node000004_Node000022" class="edge">
<title>Node4&#45;&gt;Node22</title>
<g id="a_edge40_Node000004_Node000022"><a xlink:title=" ">
<path fill="none" stroke="#63b8ff" d="M989.16,-208.67C1008.55,-200.96 1027.65,-189.5 1040,-172.5 1072.83,-127.33 1061.72,-54.03 1056.27,-27.62"/>
<polygon fill="#63b8ff" stroke="#63b8ff" points="988.02,-205.36 979.81,-212.07 990.41,-211.94 988.02,-205.36"/>
</a>
</g>
</g>
<!-- Node23 -->
<g id="Node000023" class="node">
<title>Node23</title>
<g id="a_Node000023"><a xlink:href="motor__configs_8h.html" target="_top" xlink:title=" ">
<polygon fill="white" stroke="#666666" points="1030.62,-166.12 901.38,-166.12 901.38,-145.38 1030.62,-145.38 1030.62,-166.12"/>
<text xml:space="preserve" text-anchor="middle" x="966" y="-152.62" font-family="Helvetica,sans-Serif" font-size="10.00">source/motor_configs.h</text>
</a>
</g>
</g>
<!-- Node4&#45;&gt;Node23 -->
<g id="edge37_Node000004_Node000023" class="edge">
<title>Node4&#45;&gt;Node23</title>
<g id="a_edge37_Node000004_Node000023"><a xlink:title=" ">
<path fill="none" stroke="#63b8ff" d="M936.69,-198.84C944.52,-187.59 953.28,-175.02 959.16,-166.57"/>
<polygon fill="#63b8ff" stroke="#63b8ff" points="933.85,-196.8 931,-207.01 939.59,-200.8 933.85,-196.8"/>
</a>
</g>
</g>
<!-- Node6 -->
<g id="Node000006" class="node">
<title>Node6</title>
<g id="a_Node000006"><a xlink:href="motor__convert_8c.html" target="_top" xlink:title=" ">
<polygon fill="white" stroke="#666666" points="841,-33.5 723,-33.5 723,0 841,0 841,-33.5"/>
<text xml:space="preserve" text-anchor="start" x="731" y="-20" font-family="Helvetica,sans-Serif" font-size="10.00">source/motion/motor</text>
<text xml:space="preserve" text-anchor="middle" x="782" y="-7.25" font-family="Helvetica,sans-Serif" font-size="10.00">/motor_convert.c</text>
</a>
</g>
</g>
<!-- Node5&#45;&gt;Node6 -->
<g id="edge6_Node000005_Node000006" class="edge">
<title>Node5&#45;&gt;Node6</title>
<g id="a_edge6_Node000005_Node000006"><a xlink:title=" ">
<path fill="none" stroke="#63b8ff" d="M858.96,-63.32C842.71,-53.7 823.99,-42.61 809.08,-33.79"/>
<polygon fill="#63b8ff" stroke="#63b8ff" points="857,-66.23 867.39,-68.31 860.57,-60.2 857,-66.23"/>
</a>
</g>
</g>
<!-- Node5&#45;&gt;Node7 -->
<g id="edge7_Node000005_Node000007" class="edge">
<title>Node5&#45;&gt;Node7</title>
<g id="a_edge7_Node000005_Node000007"><a xlink:title=" ">
<path fill="none" stroke="#63b8ff" d="M825.77,-66.29C787.79,-56.03 741.4,-43.51 705.25,-33.75"/>
<polygon fill="#63b8ff" stroke="#63b8ff" points="824.73,-69.63 835.29,-68.86 826.55,-62.87 824.73,-69.63"/>
</a>
</g>
</g>
<!-- Node5&#45;&gt;Node8 -->
<g id="edge8_Node000005_Node000008" class="edge">
<title>Node5&#45;&gt;Node8</title>
<g id="a_edge8_Node000005_Node000008"><a xlink:title=" ">
<path fill="none" stroke="#63b8ff" d="M904.76,-58.39C907.49,-50 910.42,-41.01 912.82,-33.63"/>
<polygon fill="#63b8ff" stroke="#63b8ff" points="901.45,-57.22 901.68,-67.81 908.11,-59.39 901.45,-57.22"/>
</a>
</g>
</g>
<!-- Node5&#45;&gt;Node9 -->
<g id="edge9_Node000005_Node000009" class="edge">
<title>Node5&#45;&gt;Node9</title>
<g id="a_edge9_Node000005_Node000009"><a xlink:title=" ">
<path fill="none" stroke="#63b8ff" d="M966.34,-69.11C1010.25,-58.99 1067.95,-45.61 1119,-33.5 1127.02,-31.6 1135.59,-29.54 1143.79,-27.56"/>
<polygon fill="#63b8ff" stroke="#63b8ff" points="965.63,-65.68 956.67,-71.34 967.2,-72.5 965.63,-65.68"/>
</a>
</g>
</g>
<!-- Node5&#45;&gt;Node10 -->
<g id="edge10_Node000005_Node000010" class="edge">
<title>Node5&#45;&gt;Node10</title>
<g id="a_edge10_Node000005_Node000010"><a xlink:title=" ">
<path fill="none" stroke="#63b8ff" d="M966.3,-76.3C1037.69,-66.88 1151.35,-51.03 1249,-33.5 1258.83,-31.74 1269.34,-29.63 1279.27,-27.54"/>
<polygon fill="#63b8ff" stroke="#63b8ff" points="966.17,-72.78 956.71,-77.55 967.08,-79.72 966.17,-72.78"/>
</a>
</g>
</g>
<!-- Node12&#45;&gt;Node13 -->
<g id="edge13_Node000012_Node000013" class="edge">
<title>Node12&#45;&gt;Node13</title>
<g id="a_edge13_Node000012_Node000013"><a xlink:title=" ">
<path fill="none" stroke="#63b8ff" d="M85.79,-59.81C80.2,-51.02 74.09,-41.43 69.12,-33.63"/>
<polygon fill="#63b8ff" stroke="#63b8ff" points="82.67,-61.42 91,-67.98 88.58,-57.66 82.67,-61.42"/>
</a>
</g>
</g>
<!-- Node14 -->
<g id="Node000014" class="node">
<title>Node14</title>
<g id="a_Node000014"><a xlink:href="motor__process_8c.html" target="_top" xlink:title=" ">
<polygon fill="white" stroke="#666666" points="297,-33.5 179,-33.5 179,0 297,0 297,-33.5"/>
<text xml:space="preserve" text-anchor="start" x="187" y="-20" font-family="Helvetica,sans-Serif" font-size="10.00">source/motion/motor</text>
<text xml:space="preserve" text-anchor="middle" x="238" y="-7.25" font-family="Helvetica,sans-Serif" font-size="10.00">/motor_process.c</text>
</a>
</g>
</g>
<!-- Node12&#45;&gt;Node14 -->
<g id="edge14_Node000012_Node000014" class="edge">
<title>Node12&#45;&gt;Node14</title>
<g id="a_edge14_Node000012_Node000014"><a xlink:title=" ">
<path fill="none" stroke="#63b8ff" d="M144.83,-63.99C164.52,-54.22 187.49,-42.82 205.69,-33.79"/>
<polygon fill="#63b8ff" stroke="#63b8ff" points="143.33,-60.83 135.93,-68.41 146.44,-67.1 143.33,-60.83"/>
</a>
</g>
</g>
<!-- Node15&#45;&gt;Node6 -->
<g id="edge16_Node000015_Node000006" class="edge">
<title>Node15&#45;&gt;Node6</title>
<g id="a_edge16_Node000015_Node000006"><a xlink:title=" ">
<path fill="none" stroke="#63b8ff" d="M663.55,-129.34C651.85,-111.52 641.71,-87.72 654,-69.5 662.61,-56.73 694.83,-43.74 724.78,-33.97"/>
<polygon fill="#63b8ff" stroke="#63b8ff" points="660.57,-131.19 669.21,-137.32 666.28,-127.14 660.57,-131.19"/>
</a>
</g>
</g>
<!-- Node15&#45;&gt;Node12 -->
<g id="edge17_Node000015_Node000012" class="edge">
<title>Node15&#45;&gt;Node12</title>
<g id="a_edge17_Node000015_Node000012"><a xlink:title=" ">
<path fill="none" stroke="#63b8ff" d="M613.59,-144.2C600.13,-142.34 586.14,-140.52 573,-139 394.36,-118.36 347.57,-131.36 170,-103 167.13,-102.54 164.2,-102.03 161.24,-101.48"/>
<polygon fill="#63b8ff" stroke="#63b8ff" points="612.85,-147.63 623.24,-145.55 613.82,-140.7 612.85,-147.63"/>
</a>
</g>
</g>
<!-- Node16 -->
<g id="Node000016" class="node">
<title>Node16</title>
<g id="a_Node000016"><a xlink:href="motor__motion_8h.html" target="_top" xlink:title=" ">
<polygon fill="white" stroke="#666666" points="569,-103 451,-103 451,-69.5 569,-69.5 569,-103"/>
<text xml:space="preserve" text-anchor="start" x="459" y="-89.5" font-family="Helvetica,sans-Serif" font-size="10.00">source/motion/motor</text>
<text xml:space="preserve" text-anchor="middle" x="510" y="-76.75" font-family="Helvetica,sans-Serif" font-size="10.00">/motor_motion.h</text>
</a>
</g>
</g>
<!-- Node15&#45;&gt;Node16 -->
<g id="edge18_Node000015_Node000016" class="edge">
<title>Node15&#45;&gt;Node16</title>
<g id="a_edge18_Node000015_Node000016"><a xlink:title=" ">
<path fill="none" stroke="#63b8ff" d="M631.67,-134.45C606.06,-124.51 575.65,-112.72 551.64,-103.4"/>
<polygon fill="#63b8ff" stroke="#63b8ff" points="630.32,-137.68 640.91,-138.03 632.85,-131.15 630.32,-137.68"/>
</a>
</g>
</g>
<!-- Node18 -->
<g id="Node000018" class="node">
<title>Node18</title>
<g id="a_Node000018"><a xlink:href="motor__process_8h.html" target="_top" xlink:title=" ">
<polygon fill="white" stroke="#666666" points="433,-103 315,-103 315,-69.5 433,-69.5 433,-103"/>
<text xml:space="preserve" text-anchor="start" x="323" y="-89.5" font-family="Helvetica,sans-Serif" font-size="10.00">source/motion/motor</text>
<text xml:space="preserve" text-anchor="middle" x="374" y="-76.75" font-family="Helvetica,sans-Serif" font-size="10.00">/motor_process.h</text>
</a>
</g>
</g>
<!-- Node15&#45;&gt;Node18 -->
<g id="edge23_Node000015_Node000018" class="edge">
<title>Node15&#45;&gt;Node18</title>
<g id="a_edge23_Node000015_Node000018"><a xlink:title=" ">
<path fill="none" stroke="#63b8ff" d="M613.79,-140.06C565.45,-129.87 499.78,-115.87 442,-103 439.16,-102.37 436.26,-101.72 433.32,-101.05"/>
<polygon fill="#63b8ff" stroke="#63b8ff" points="612.78,-143.43 623.28,-142.06 614.22,-136.58 612.78,-143.43"/>
</a>
</g>
</g>
<!-- Node19 -->
<g id="Node000019" class="node">
<title>Node19</title>
<g id="a_Node000019"><a xlink:href="motor__sync_8h.html" target="_top" xlink:title=" ">
<polygon fill="white" stroke="#666666" points="781,-103 663,-103 663,-69.5 781,-69.5 781,-103"/>
<text xml:space="preserve" text-anchor="start" x="671" y="-89.5" font-family="Helvetica,sans-Serif" font-size="10.00">source/motion/motor</text>
<text xml:space="preserve" text-anchor="middle" x="722" y="-76.75" font-family="Helvetica,sans-Serif" font-size="10.00">/motor_sync.h</text>
</a>
</g>
</g>
<!-- Node15&#45;&gt;Node19 -->
<g id="edge26_Node000015_Node000019" class="edge">
<title>Node15&#45;&gt;Node19</title>
<g id="a_edge26_Node000015_Node000019"><a xlink:title=" ">
<path fill="none" stroke="#63b8ff" d="M698.64,-128.74C703.5,-120.11 708.76,-110.76 713.06,-103.13"/>
<polygon fill="#63b8ff" stroke="#63b8ff" points="695.6,-127 693.75,-137.43 701.7,-130.44 695.6,-127"/>
</a>
</g>
</g>
<!-- Node20 -->
<g id="Node000020" class="node">
<title>Node20</title>
<g id="a_Node000020"><a xlink:href="motor__tmc_8h.html" target="_top" xlink:title=" ">
<polygon fill="white" stroke="#666666" points="297,-103 179,-103 179,-69.5 297,-69.5 297,-103"/>
<text xml:space="preserve" text-anchor="start" x="187" y="-89.5" font-family="Helvetica,sans-Serif" font-size="10.00">source/motion/motor</text>
<text xml:space="preserve" text-anchor="middle" x="238" y="-76.75" font-family="Helvetica,sans-Serif" font-size="10.00">/motor_tmc.h</text>
</a>
</g>
</g>
<!-- Node15&#45;&gt;Node20 -->
<g id="edge29_Node000015_Node000020" class="edge">
<title>Node15&#45;&gt;Node20</title>
<g id="a_edge29_Node000015_Node000020"><a xlink:title=" ">
<path fill="none" stroke="#63b8ff" d="M613.53,-144.68C600.08,-142.77 586.1,-140.81 573,-139 454.39,-122.59 423.79,-124.53 306,-103 303.14,-102.48 300.22,-101.91 297.27,-101.32"/>
<polygon fill="#63b8ff" stroke="#63b8ff" points="612.79,-148.11 623.18,-146.04 613.77,-141.17 612.79,-148.11"/>
</a>
</g>
</g>
<!-- Node21 -->
<g id="Node000021" class="node">
<title>Node21</title>
<g id="a_Node000021"><a xlink:href="motor__homing_8h.html" target="_top" xlink:title=" ">
<polygon fill="white" stroke="#666666" points="1218.75,-96.62 1087.25,-96.62 1087.25,-75.88 1218.75,-75.88 1218.75,-96.62"/>
<text xml:space="preserve" text-anchor="middle" x="1153" y="-83.12" font-family="Helvetica,sans-Serif" font-size="10.00">source/motor_homing.h</text>
</a>
</g>
</g>
<!-- Node15&#45;&gt;Node21 -->
<g id="edge32_Node000015_Node000021" class="edge">
<title>Node15&#45;&gt;Node21</title>
<g id="a_edge32_Node000015_Node000021"><a xlink:title=" ">
<path fill="none" stroke="#63b8ff" d="M754.59,-144.59C844.61,-131.63 999.11,-109.4 1086.92,-96.76"/>
<polygon fill="#63b8ff" stroke="#63b8ff" points="754.3,-141.1 744.9,-145.99 755.29,-148.03 754.3,-141.1"/>
</a>
</g>
</g>
<!-- Node16&#45;&gt;Node7 -->
<g id="edge20_Node000016_Node000007" class="edge">
<title>Node16&#45;&gt;Node7</title>
<g id="a_edge20_Node000016_Node000007"><a xlink:title=" ">
<path fill="none" stroke="#63b8ff" d="M552.83,-63.99C572.52,-54.22 595.49,-42.82 613.69,-33.79"/>
<polygon fill="#63b8ff" stroke="#63b8ff" points="551.33,-60.83 543.93,-68.41 554.44,-67.1 551.33,-60.83"/>
</a>
</g>
</g>
<!-- Node16&#45;&gt;Node11 -->
<g id="edge19_Node000016_Node000011" class="edge">
<title>Node16&#45;&gt;Node11</title>
<g id="a_edge19_Node000016_Node000011"><a xlink:title=" ">
<path fill="none" stroke="#63b8ff" d="M510,-57.81C510,-49.59 510,-40.84 510,-33.63"/>
<polygon fill="#63b8ff" stroke="#63b8ff" points="506.5,-57.74 510,-67.74 513.5,-57.74 506.5,-57.74"/>
</a>
</g>
</g>
<!-- Node16&#45;&gt;Node14 -->
<g id="edge21_Node000016_Node000014" class="edge">
<title>Node16&#45;&gt;Node14</title>
<g id="a_edge21_Node000016_Node000014"><a xlink:title=" ">
<path fill="none" stroke="#63b8ff" d="M439.69,-67.8C395.5,-56.84 339.13,-42.85 297.23,-32.45"/>
<polygon fill="#63b8ff" stroke="#63b8ff" points="438.63,-71.14 449.18,-70.16 440.31,-64.35 438.63,-71.14"/>
</a>
</g>
</g>
<!-- Node17 -->
<g id="Node000017" class="node">
<title>Node17</title>
<g id="a_Node000017"><a xlink:href="motor__tmc_8c.html" target="_top" xlink:title=" ">
<polygon fill="white" stroke="#666666" points="433,-33.5 315,-33.5 315,0 433,0 433,-33.5"/>
<text xml:space="preserve" text-anchor="start" x="323" y="-20" font-family="Helvetica,sans-Serif" font-size="10.00">source/motion/motor</text>
<text xml:space="preserve" text-anchor="middle" x="374" y="-7.25" font-family="Helvetica,sans-Serif" font-size="10.00">/motor_tmc.c</text>
</a>
</g>
</g>
<!-- Node16&#45;&gt;Node17 -->
<g id="edge22_Node000016_Node000017" class="edge">
<title>Node16&#45;&gt;Node17</title>
<g id="a_edge22_Node000016_Node000017"><a xlink:title=" ">
<path fill="none" stroke="#63b8ff" d="M467.17,-63.99C447.48,-54.22 424.51,-42.82 406.31,-33.79"/>
<polygon fill="#63b8ff" stroke="#63b8ff" points="465.56,-67.1 476.07,-68.41 468.67,-60.83 465.56,-67.1"/>
</a>
</g>
</g>
<!-- Node18&#45;&gt;Node11 -->
<g id="edge24_Node000018_Node000011" class="edge">
<title>Node18&#45;&gt;Node11</title>
<g id="a_edge24_Node000018_Node000011"><a xlink:title=" ">
<path fill="none" stroke="#63b8ff" d="M416.83,-63.99C436.52,-54.22 459.49,-42.82 477.69,-33.79"/>
<polygon fill="#63b8ff" stroke="#63b8ff" points="415.33,-60.83 407.93,-68.41 418.44,-67.1 415.33,-60.83"/>
</a>
</g>
</g>
<!-- Node18&#45;&gt;Node14 -->
<g id="edge25_Node000018_Node000014" class="edge">
<title>Node18&#45;&gt;Node14</title>
<g id="a_edge25_Node000018_Node000014"><a xlink:title=" ">
<path fill="none" stroke="#63b8ff" d="M331.17,-63.99C311.48,-54.22 288.51,-42.82 270.31,-33.79"/>
<polygon fill="#63b8ff" stroke="#63b8ff" points="329.56,-67.1 340.07,-68.41 332.67,-60.83 329.56,-67.1"/>
</a>
</g>
</g>
<!-- Node19&#45;&gt;Node8 -->
<g id="edge28_Node000019_Node000008" class="edge">
<title>Node19&#45;&gt;Node8</title>
<g id="a_edge28_Node000019_Node000008"><a xlink:title=" ">
<path fill="none" stroke="#63b8ff" d="M779.79,-65.35C808.88,-55.33 843.69,-43.34 871.1,-33.9"/>
<polygon fill="#63b8ff" stroke="#63b8ff" points="778.69,-62.02 770.38,-68.59 780.97,-68.64 778.69,-62.02"/>
</a>
</g>
</g>
<!-- Node19&#45;&gt;Node14 -->
<g id="edge27_Node000019_Node000014" class="edge">
<title>Node19&#45;&gt;Node14</title>
<g id="a_edge27_Node000019_Node000014"><a xlink:title=" ">
<path fill="none" stroke="#63b8ff" d="M651.34,-77.36C550.56,-65.95 370.6,-44.97 306,-33.5 303.14,-32.99 300.21,-32.44 297.26,-31.86"/>
<polygon fill="#63b8ff" stroke="#63b8ff" points="650.79,-80.82 661.12,-78.46 651.58,-73.86 650.79,-80.82"/>
</a>
</g>
</g>
<!-- Node20&#45;&gt;Node14 -->
<g id="edge30_Node000020_Node000014" class="edge">
<title>Node20&#45;&gt;Node14</title>
<g id="a_edge30_Node000020_Node000014"><a xlink:title=" ">
<path fill="none" stroke="#63b8ff" d="M238,-57.81C238,-49.59 238,-40.84 238,-33.63"/>
<polygon fill="#63b8ff" stroke="#63b8ff" points="234.5,-57.74 238,-67.74 241.5,-57.74 234.5,-57.74"/>
</a>
</g>
</g>
<!-- Node20&#45;&gt;Node17 -->
<g id="edge31_Node000020_Node000017" class="edge">
<title>Node20&#45;&gt;Node17</title>
<g id="a_edge31_Node000020_Node000017"><a xlink:title=" ">
<path fill="none" stroke="#63b8ff" d="M280.83,-63.99C300.52,-54.22 323.49,-42.82 341.69,-33.79"/>
<polygon fill="#63b8ff" stroke="#63b8ff" points="279.33,-60.83 271.93,-68.41 282.44,-67.1 279.33,-60.83"/>
</a>
</g>
</g>
<!-- Node21&#45;&gt;Node9 -->
<g id="edge33_Node000021_Node000009" class="edge">
<title>Node21&#45;&gt;Node9</title>
<g id="a_edge33_Node000021_Node000009"><a xlink:title=" ">
<path fill="none" stroke="#63b8ff" d="M1162.2,-65.21C1167.94,-52.72 1175.06,-37.22 1179.57,-27.4"/>
<polygon fill="#63b8ff" stroke="#63b8ff" points="1159.07,-63.66 1158.07,-74.2 1165.43,-66.58 1159.07,-63.66"/>
</a>
</g>
</g>
<!-- Node21&#45;&gt;Node10 -->
<g id="edge34_Node000021_Node000010" class="edge">
<title>Node21&#45;&gt;Node10</title>
<g id="a_edge34_Node000021_Node000010"><a xlink:title=" ">
<path fill="none" stroke="#63b8ff" d="M1188.23,-71.26C1221.09,-58.21 1269.28,-39.08 1298.25,-27.58"/>
<polygon fill="#63b8ff" stroke="#63b8ff" points="1187.13,-67.93 1179.13,-74.88 1189.71,-74.44 1187.13,-67.93"/>
</a>
</g>
</g>
<!-- Node21&#45;&gt;Node22 -->
<g id="edge35_Node000021_Node000022" class="edge">
<title>Node21&#45;&gt;Node22</title>
<g id="a_edge35_Node000021_Node000022"><a xlink:title=" ">
<path fill="none" stroke="#63b8ff" d="M1129.38,-69.15C1110.44,-56.23 1084.47,-38.52 1068.48,-27.62"/>
<polygon fill="#63b8ff" stroke="#63b8ff" points="1127.33,-71.98 1137.57,-74.73 1131.27,-66.2 1127.33,-71.98"/>
</a>
</g>
</g>
<!-- Node23&#45;&gt;Node22 -->
<g id="edge38_Node000023_Node000022" class="edge">
<title>Node23&#45;&gt;Node22</title>
<g id="a_edge38_Node000023_Node000022"><a xlink:title=" ">
<path fill="none" stroke="#63b8ff" d="M978.55,-135.22C997.65,-105.48 1033.32,-49.94 1047.73,-27.51"/>
<polygon fill="#63b8ff" stroke="#63b8ff" points="975.61,-133.32 973.15,-143.62 981.5,-137.1 975.61,-133.32"/>
</a>
</g>
</g>
<!-- Node25&#45;&gt;Node24 -->
<g id="edge48_Node000025_Node000024" class="edge">
<title>Node25&#45;&gt;Node24</title>
<g id="a_edge48_Node000025_Node000024"><a xlink:title=" ">
<path fill="none" stroke="#63b8ff" d="M1582.95,-286.62C1551.44,-279.87 1516.78,-266.88 1494,-242 1476.59,-222.99 1473.93,-191.63 1474.1,-172.71"/>
<polygon fill="#63b8ff" stroke="#63b8ff" points="1581.97,-289.99 1592.46,-288.47 1583.31,-283.12 1581.97,-289.99"/>
</a>
</g>
</g>
<!-- Node25&#45;&gt;Node26 -->
<g id="edge49_Node000025_Node000026" class="edge">
<title>Node25&#45;&gt;Node26</title>
<g id="a_edge49_Node000025_Node000026"><a xlink:title=" ">
<path fill="none" stroke="#63b8ff" d="M1657,-266.37C1657,-238.29 1657,-195.57 1657,-172.63"/>
<polygon fill="#63b8ff" stroke="#63b8ff" points="1653.5,-266.25 1657,-276.25 1660.5,-266.25 1653.5,-266.25"/>
</a>
</g>
</g>
<!-- Node27 -->
<g id="Node000027" class="node">
<title>Node27</title>
<g id="a_Node000027"><a xlink:href="step__process_8h.html" target="_top" xlink:title=" ">
<polygon fill="white" stroke="#666666" points="1628.75,-242 1503.25,-242 1503.25,-208.5 1628.75,-208.5 1628.75,-242"/>
<text xml:space="preserve" text-anchor="start" x="1511.25" y="-228.5" font-family="Helvetica,sans-Serif" font-size="10.00">source/motion/stepper</text>
<text xml:space="preserve" text-anchor="middle" x="1566" y="-215.75" font-family="Helvetica,sans-Serif" font-size="10.00">/step_process.h</text>
</a>
</g>
</g>
<!-- Node25&#45;&gt;Node27 -->
<g id="edge50_Node000025_Node000027" class="edge">
<title>Node25&#45;&gt;Node27</title>
<g id="a_edge50_Node000025_Node000027"><a xlink:title=" ">
<path fill="none" stroke="#63b8ff" d="M1626.55,-271.16C1613.83,-261.73 1599.34,-250.98 1587.73,-242.37"/>
<polygon fill="#63b8ff" stroke="#63b8ff" points="1624.1,-273.71 1634.22,-276.85 1628.27,-268.08 1624.1,-273.71"/>
</a>
</g>
</g>
<!-- Node28 -->
<g id="Node000028" class="node">
<title>Node28</title>
<g id="a_Node000028"><a xlink:href="step__profile_8h.html" target="_top" xlink:title=" ">
<polygon fill="white" stroke="#666666" points="1954.75,-242 1829.25,-242 1829.25,-208.5 1954.75,-208.5 1954.75,-242"/>
<text xml:space="preserve" text-anchor="start" x="1837.25" y="-228.5" font-family="Helvetica,sans-Serif" font-size="10.00">source/motion/stepper</text>
<text xml:space="preserve" text-anchor="middle" x="1892" y="-215.75" font-family="Helvetica,sans-Serif" font-size="10.00">/step_profile.h</text>
</a>
</g>
</g>
<!-- Node25&#45;&gt;Node28 -->
<g id="edge53_Node000025_Node000028" class="edge">
<title>Node25&#45;&gt;Node28</title>
<g id="a_edge53_Node000025_Node000028"><a xlink:title=" ">
<path fill="none" stroke="#63b8ff" d="M1723.99,-274.51C1759.32,-264.36 1802.18,-252.05 1835.76,-242.4"/>
<polygon fill="#63b8ff" stroke="#63b8ff" points="1723.39,-271.04 1714.74,-277.16 1725.32,-277.77 1723.39,-271.04"/>
</a>
</g>
</g>
<!-- Node25&#45;&gt;Node30 -->
<g id="edge57_Node000025_Node000030" class="edge">
<title>Node25&#45;&gt;Node30</title>
<g id="a_edge57_Node000025_Node000030"><a xlink:title=" ">
<path fill="none" stroke="#63b8ff" d="M1731.62,-290.54C1811.57,-285.52 1931.4,-272.94 1964,-242 1982.81,-224.15 1984.97,-192.11 1984.33,-172.8"/>
<polygon fill="#63b8ff" stroke="#63b8ff" points="1731.42,-287.04 1721.64,-291.14 1731.84,-294.03 1731.42,-287.04"/>
</a>
</g>
</g>
<!-- Node31 -->
<g id="Node000031" class="node">
<title>Node31</title>
<g id="a_Node000031"><a xlink:href="step__timing_8h.html" target="_top" xlink:title=" ">
<polygon fill="white" stroke="#666666" points="1810.75,-242 1685.25,-242 1685.25,-208.5 1810.75,-208.5 1810.75,-242"/>
<text xml:space="preserve" text-anchor="start" x="1693.25" y="-228.5" font-family="Helvetica,sans-Serif" font-size="10.00">source/motion/stepper</text>
<text xml:space="preserve" text-anchor="middle" x="1748" y="-215.75" font-family="Helvetica,sans-Serif" font-size="10.00">/step_timing.h</text>
</a>
</g>
</g>
<!-- Node25&#45;&gt;Node31 -->
<g id="edge58_Node000025_Node000031" class="edge">
<title>Node25&#45;&gt;Node31</title>
<g id="a_edge58_Node000025_Node000031"><a xlink:title=" ">
<path fill="none" stroke="#63b8ff" d="M1687.45,-271.16C1700.17,-261.73 1714.66,-250.98 1726.27,-242.37"/>
<polygon fill="#63b8ff" stroke="#63b8ff" points="1685.73,-268.08 1679.78,-276.85 1689.9,-273.71 1685.73,-268.08"/>
</a>
</g>
</g>
<!-- Node27&#45;&gt;Node24 -->
<g id="edge51_Node000027_Node000024" class="edge">
<title>Node27&#45;&gt;Node24</title>
<g id="a_edge51_Node000027_Node000024"><a xlink:title=" ">
<path fill="none" stroke="#63b8ff" d="M1535.55,-201.66C1522.83,-192.23 1508.34,-181.48 1496.73,-172.87"/>
<polygon fill="#63b8ff" stroke="#63b8ff" points="1533.1,-204.21 1543.22,-207.35 1537.27,-198.58 1533.1,-204.21"/>
</a>
</g>
</g>
<!-- Node27&#45;&gt;Node26 -->
<g id="edge52_Node000027_Node000026" class="edge">
<title>Node27&#45;&gt;Node26</title>
<g id="a_edge52_Node000027_Node000026"><a xlink:title=" ">
<path fill="none" stroke="#63b8ff" d="M1596.45,-201.66C1609.17,-192.23 1623.66,-181.48 1635.27,-172.87"/>
<polygon fill="#63b8ff" stroke="#63b8ff" points="1594.73,-198.58 1588.78,-207.35 1598.9,-204.21 1594.73,-198.58"/>
</a>
</g>
</g>
<!-- Node28&#45;&gt;Node26 -->
<g id="edge54_Node000028_Node000026" class="edge">
<title>Node28&#45;&gt;Node26</title>
<g id="a_edge54_Node000028_Node000026"><a xlink:title=" ">
<path fill="none" stroke="#63b8ff" d="M1825.01,-205.01C1789.68,-194.86 1746.82,-182.55 1713.24,-172.9"/>
<polygon fill="#63b8ff" stroke="#63b8ff" points="1823.68,-208.27 1834.26,-207.66 1825.61,-201.54 1823.68,-208.27"/>
</a>
</g>
</g>
<!-- Node29 -->
<g id="Node000029" class="node">
<title>Node29</title>
<g id="a_Node000029"><a xlink:href="step__profile_8c.html" target="_top" xlink:title=" ">
<polygon fill="white" stroke="#666666" points="1901.75,-172.5 1776.25,-172.5 1776.25,-139 1901.75,-139 1901.75,-172.5"/>
<text xml:space="preserve" text-anchor="start" x="1784.25" y="-159" font-family="Helvetica,sans-Serif" font-size="10.00">source/motion/stepper</text>
<text xml:space="preserve" text-anchor="middle" x="1839" y="-146.25" font-family="Helvetica,sans-Serif" font-size="10.00">/step_profile.c</text>
</a>
</g>
</g>
<!-- Node28&#45;&gt;Node29 -->
<g id="edge55_Node000028_Node000029" class="edge">
<title>Node28&#45;&gt;Node29</title>
<g id="a_edge55_Node000028_Node000029"><a xlink:title=" ">
<path fill="none" stroke="#63b8ff" d="M1872.47,-199.38C1865.45,-190.44 1857.73,-180.6 1851.47,-172.63"/>
<polygon fill="#63b8ff" stroke="#63b8ff" points="1869.58,-201.36 1878.51,-207.06 1875.08,-197.04 1869.58,-201.36"/>
</a>
</g>
</g>
<!-- Node28&#45;&gt;Node30 -->
<g id="edge56_Node000028_Node000030" class="edge">
<title>Node28&#45;&gt;Node30</title>
<g id="a_edge56_Node000028_Node000030"><a xlink:title=" ">
<path fill="none" stroke="#63b8ff" d="M1922.45,-201.66C1935.17,-192.23 1949.66,-181.48 1961.27,-172.87"/>
<polygon fill="#63b8ff" stroke="#63b8ff" points="1920.73,-198.58 1914.78,-207.35 1924.9,-204.21 1920.73,-198.58"/>
</a>
</g>
</g>
<!-- Node31&#45;&gt;Node26 -->
<g id="edge59_Node000031_Node000026" class="edge">
<title>Node31&#45;&gt;Node26</title>
<g id="a_edge59_Node000031_Node000026"><a xlink:title=" ">
<path fill="none" stroke="#63b8ff" d="M1717.55,-201.66C1704.83,-192.23 1690.34,-181.48 1678.73,-172.87"/>
<polygon fill="#63b8ff" stroke="#63b8ff" points="1715.1,-204.21 1725.22,-207.35 1719.27,-198.58 1715.1,-204.21"/>
</a>
</g>
</g>
<!-- Node31&#45;&gt;Node30 -->
<g id="edge60_Node000031_Node000030" class="edge">
<title>Node31&#45;&gt;Node30</title>
<g id="a_edge60_Node000031_Node000030"><a xlink:title=" ">
<path fill="none" stroke="#63b8ff" d="M1814.99,-205.01C1850.32,-194.86 1893.18,-182.55 1926.76,-172.9"/>
<polygon fill="#63b8ff" stroke="#63b8ff" points="1814.39,-201.54 1805.74,-207.66 1816.32,-208.27 1814.39,-201.54"/>
</a>
</g>
</g>
</g>
</svg>
