<?xml version="1.0" encoding="UTF-8" standalone="no"?>
<!DOCTYPE svg PUBLIC "-//W3C//DTD SVG 1.1//EN"
 "http://www.w3.org/Graphics/SVG/1.1/DTD/svg11.dtd">
<!-- Generated by graphviz version 14.1.5 (0)
 -->
<!-- Title: source/motion/stepper/step_core.h Pages: 1 -->
<!--zoomable 389 -->

<svg id="main" version="1.1" xmlns="http://www.w3.org/2000/svg" xmlns:xlink="http://www.w3.org/1999/xlink" xml:space="preserve" onload="init(evt)">

<style type="text/css"><![CDATA[
.node, .edge {opacity: 0.7;}
.node.selected, .edge.selected {opacity: 1;}
.edge:hover path { stroke: red; }
.edge:hover polygon { stroke: red; fill: red; }
]]></style>

<defs>
  <circle id="rim" cx="0" cy="0" r="7"/>
  <circle id="rim2" cx="0" cy="0" r="3.5"/>
  <g id="zoomPlus">
    <use xlink:href="#rim" fill="#404040"><set attributeName="fill" to="#808080" begin="zoomplus.mouseover" end="zoomplus.mouseout"/></use>
    <path d="M-4,0h8M0,-4v8" fill="none" stroke="white" stroke-width="1.5" pointer-events="none"/>
  </g>
  <g id="zoomMin">
    <use xlink:href="#rim" fill="#404040"><set attributeName="fill" to="#808080" begin="zoomminus.mouseover" end="zoomminus.mouseout"/></use>
    <path d="M-4,0h8" fill="none" stroke="white" stroke-width="1.5" pointer-events="none"/>
  </g>
  <g id="arrowUp" transform="translate(30 24)">
    <use xlink:href="#rim"/>
    <path pointer-events="none" fill="none" stroke="white" stroke-width="1.5" d="M0,-3.0v7 M-2.5,-0.5L0,-3.0L2.5,-0.5"/>
  </g>
  <g id="arrowRight" transform="rotate(90) translate(36 -43)">
    <use xlink:href="#rim"/>
    <path pointer-events="none" fill="none" stroke="white" stroke-width="1.5" d="M0,-3.0v7 M-2.5,-0.5L0,-3.0L2.5,-0.5"/>
  </g>
  <g id="arrowDown" transform="rotate(180) translate(-30 -48)">
    <use xlink:href="#rim"/>
    <path pointer-events="none" fill="none" stroke="white" stroke-width="1.5" d="M0,-3.0v7 M-2.5,-0.5L0,-3.0L2.5,-0.5"/>
  </g>
  <g id="arrowLeft" transform="rotate(270) translate(-36 17)">
    <use xlink:href="#rim"/>
    <path pointer-events="none" fill="none" stroke="white" stroke-width="1.5" d="M0,-3.0v7 M-2.5,-0.5L0,-3.0L2.5,-0.5"/>
  </g>
  <g id="resetDef">
    <use xlink:href="#rim2" fill="#404040"><set attributeName="fill" to="#808080" begin="reset.mouseover" end="reset.mouseout"/></use>
  </g>
</defs>
<script type="application/ecmascript">
var viewWidth = 2177;
var viewHeight = 389;
var sectionId = 'dynsection-1';
</script>
<script type="application/ecmascript" xlink:href="svg.min.js"/>
<svg id="graph" class="graph">
<g id="viewport">
<title>source/motion/stepper/step_core.h</title>
<!-- Node1 -->
<g id="Node000001" class="node">
<title>Node1</title>
<g id="a_Node000001"><a xlink:title=" ">
<polygon fill="#999999" stroke="#666666" points="1207.75,-381 1082.25,-381 1082.25,-347.5 1207.75,-347.5 1207.75,-381"/>
<text xml:space="preserve" text-anchor="start" x="1090.25" y="-367.5" font-family="Helvetica,sans-Serif" font-size="10.00">source/motion/stepper</text>
<text xml:space="preserve" text-anchor="middle" x="1145" y="-354.75" font-family="Helvetica,sans-Serif" font-size="10.00">/step_core.h</text>
</a>
</g>
</g>
<!-- Node2 -->
<g id="Node000002" class="node">
<title>Node2</title>
<g id="a_Node000002"><a xlink:href="application_8c.html" target="_top" xlink:title=" ">
<polygon fill="white" stroke="#666666" points="1910.75,-166.12 1797.25,-166.12 1797.25,-145.38 1910.75,-145.38 1910.75,-166.12"/>
<text xml:space="preserve" text-anchor="middle" x="1854" y="-152.62" font-family="Helvetica,sans-Serif" font-size="10.00">source/application.c</text>
</a>
</g>
</g>
<!-- Node1&#45;&gt;Node2 -->
<g id="edge1_Node000001_Node000002" class="edge">
<title>Node1&#45;&gt;Node2</title>
<g id="a_edge1_Node000001_Node000002"><a xlink:title=" ">
<path fill="none" stroke="#63b8ff" d="M1219.34,-356.38C1331.03,-344.11 1547.14,-312.77 1717,-242 1766.39,-221.42 1818.34,-184.1 1841.54,-166.47"/>
<polygon fill="#63b8ff" stroke="#63b8ff" points="1219.28,-352.86 1209.71,-357.41 1220.03,-359.82 1219.28,-352.86"/>
</a>
</g>
</g>
<!-- Node3 -->
<g id="Node000003" class="node">
<title>Node3</title>
<g id="a_Node000003"><a xlink:href="motor__core_8h.html" target="_top" xlink:title=" ">
<polygon fill="white" stroke="#666666" points="1415,-311.5 1297,-311.5 1297,-278 1415,-278 1415,-311.5"/>
<text xml:space="preserve" text-anchor="start" x="1305" y="-298" font-family="Helvetica,sans-Serif" font-size="10.00">source/motion/motor</text>
<text xml:space="preserve" text-anchor="middle" x="1356" y="-285.25" font-family="Helvetica,sans-Serif" font-size="10.00">/motor_core.h</text>
</a>
</g>
</g>
<!-- Node1&#45;&gt;Node3 -->
<g id="edge2_Node000001_Node000003" class="edge">
<title>Node1&#45;&gt;Node3</title>
<g id="a_edge2_Node000001_Node000003"><a xlink:title=" ">
<path fill="none" stroke="#63b8ff" d="M1206.39,-343.61C1237.87,-333.54 1275.74,-321.42 1305.51,-311.9"/>
<polygon fill="#63b8ff" stroke="#63b8ff" points="1205.44,-340.24 1196.98,-346.62 1207.57,-346.91 1205.44,-340.24"/>
</a>
</g>
</g>
<!-- Node7 -->
<g id="Node000007" class="node">
<title>Node7</title>
<g id="a_Node000007"><a xlink:href="motor__motion_8c.html" target="_top" xlink:title=" ">
<polygon fill="white" stroke="#666666" points="849,-103 731,-103 731,-69.5 849,-69.5 849,-103"/>
<text xml:space="preserve" text-anchor="start" x="739" y="-89.5" font-family="Helvetica,sans-Serif" font-size="10.00">source/motion/motor</text>
<text xml:space="preserve" text-anchor="middle" x="790" y="-76.75" font-family="Helvetica,sans-Serif" font-size="10.00">/motor_motion.c</text>
</a>
</g>
</g>
<!-- Node1&#45;&gt;Node7 -->
<g id="edge59_Node000001_Node000007" class="edge">
<title>Node1&#45;&gt;Node7</title>
<g id="a_edge59_Node000001_Node000007"><a xlink:title=" ">
<path fill="none" stroke="#63b8ff" d="M1104.38,-341.63C1046.09,-309.47 937.04,-244.97 858,-172.5 834.7,-151.13 812.86,-121.37 800.49,-103.25"/>
<polygon fill="#63b8ff" stroke="#63b8ff" points="1102.54,-344.61 1112.99,-346.34 1105.9,-338.47 1102.54,-344.61"/>
</a>
</g>
</g>
<!-- Node8 -->
<g id="Node000008" class="node">
<title>Node8</title>
<g id="a_Node000008"><a xlink:href="motor__sync_8c.html" target="_top" xlink:title=" ">
<polygon fill="white" stroke="#666666" points="305,-103 187,-103 187,-69.5 305,-69.5 305,-103"/>
<text xml:space="preserve" text-anchor="start" x="195" y="-89.5" font-family="Helvetica,sans-Serif" font-size="10.00">source/motion/motor</text>
<text xml:space="preserve" text-anchor="middle" x="246" y="-76.75" font-family="Helvetica,sans-Serif" font-size="10.00">/motor_sync.c</text>
</a>
</g>
</g>
<!-- Node1&#45;&gt;Node8 -->
<g id="edge60_Node000001_Node000008" class="edge">
<title>Node1&#45;&gt;Node8</title>
<g id="a_edge60_Node000001_Node000008"><a xlink:title=" ">
<path fill="none" stroke="#63b8ff" d="M1070.55,-363.87C842.98,-363.84 166.06,-348.75 68,-172.5 40.14,-122.42 124.66,-101.39 186.61,-92.83"/>
<polygon fill="#63b8ff" stroke="#63b8ff" points="1070.5,-367.37 1080.5,-363.86 1070.49,-360.37 1070.5,-367.37"/>
</a>
</g>
</g>
<!-- Node9 -->
<g id="Node000009" class="node">
<title>Node9</title>
<g id="a_Node000009"><a xlink:href="motorCmd_8c.html" target="_top" xlink:title=" ">
<polygon fill="white" stroke="#666666" points="1114.62,-96.62 1003.38,-96.62 1003.38,-75.88 1114.62,-75.88 1114.62,-96.62"/>
<text xml:space="preserve" text-anchor="middle" x="1059" y="-83.12" font-family="Helvetica,sans-Serif" font-size="10.00">source/motorCmd.c</text>
</a>
</g>
</g>
<!-- Node1&#45;&gt;Node9 -->
<g id="edge62_Node000001_Node000009" class="edge">
<title>Node1&#45;&gt;Node9</title>
<g id="a_edge62_Node000001_Node000009"><a xlink:title=" ">
<path fill="none" stroke="#63b8ff" d="M1128.83,-337.72C1107.43,-302.28 1070.81,-235.4 1057,-172.5 1051.13,-145.75 1054.79,-113.14 1057.27,-97.11"/>
<polygon fill="#63b8ff" stroke="#63b8ff" points="1125.68,-339.28 1133.89,-345.97 1131.65,-335.62 1125.68,-339.28"/>
</a>
</g>
</g>
<!-- Node10 -->
<g id="Node000010" class="node">
<title>Node10</title>
<g id="a_Node000010"><a xlink:href="motor__homing_8c.html" target="_top" xlink:title=" ">
<polygon fill="white" stroke="#666666" points="1342.38,-96.62 1211.62,-96.62 1211.62,-75.88 1342.38,-75.88 1342.38,-96.62"/>
<text xml:space="preserve" text-anchor="middle" x="1277" y="-83.12" font-family="Helvetica,sans-Serif" font-size="10.00">source/motor_homing.c</text>
</a>
</g>
</g>
<!-- Node1&#45;&gt;Node10 -->
<g id="edge63_Node000001_Node000010" class="edge">
<title>Node1&#45;&gt;Node10</title>
<g id="a_edge63_Node000001_Node000010"><a xlink:title=" ">
<path fill="none" stroke="#63b8ff" d="M1163.34,-338.26C1188.34,-303.03 1232.87,-235.96 1258,-172.5 1268.38,-146.28 1273.71,-113.16 1275.84,-97"/>
<polygon fill="#63b8ff" stroke="#63b8ff" points="1160.7,-335.93 1157.72,-346.09 1166.39,-340.01 1160.7,-335.93"/>
</a>
</g>
</g>
<!-- Node13 -->
<g id="Node000013" class="node">
<title>Node13</title>
<g id="a_Node000013"><a xlink:href="motor__init_8c.html" target="_top" xlink:title=" ">
<polygon fill="white" stroke="#666666" points="118,-103 0,-103 0,-69.5 118,-69.5 118,-103"/>
<text xml:space="preserve" text-anchor="start" x="8" y="-89.5" font-family="Helvetica,sans-Serif" font-size="10.00">source/motion/motor</text>
<text xml:space="preserve" text-anchor="middle" x="59" y="-76.75" font-family="Helvetica,sans-Serif" font-size="10.00">/motor_init.c</text>
</a>
</g>
</g>
<!-- Node1&#45;&gt;Node13 -->
<g id="edge58_Node000001_Node000013" class="edge">
<title>Node1&#45;&gt;Node13</title>
<g id="a_edge58_Node000001_Node000013"><a xlink:title=" ">
<path fill="none" stroke="#63b8ff" d="M1070.5,-362.97C882.18,-361.63 390.97,-354.03 234,-311.5 168.48,-293.75 146.92,-289.05 98,-242 72.47,-217.45 67.96,-206.77 59,-172.5 52.86,-149.02 54.59,-120.63 56.62,-103.27"/>
<polygon fill="#63b8ff" stroke="#63b8ff" points="1070.39,-366.47 1080.41,-363.04 1070.43,-359.47 1070.39,-366.47"/>
</a>
</g>
</g>
<!-- Node29 -->
<g id="Node000029" class="node">
<title>Node29</title>
<g id="a_Node000029"><a xlink:href="step__core_8c.html" target="_top" xlink:title=" ">
<polygon fill="white" stroke="#666666" points="2168.75,-311.5 2043.25,-311.5 2043.25,-278 2168.75,-278 2168.75,-311.5"/>
<text xml:space="preserve" text-anchor="start" x="2051.25" y="-298" font-family="Helvetica,sans-Serif" font-size="10.00">source/motion/stepper</text>
<text xml:space="preserve" text-anchor="middle" x="2106" y="-285.25" font-family="Helvetica,sans-Serif" font-size="10.00">/step_core.c</text>
</a>
</g>
</g>
<!-- Node1&#45;&gt;Node29 -->
<g id="edge61_Node000001_Node000029" class="edge">
<title>Node1&#45;&gt;Node29</title>
<g id="a_edge61_Node000001_Node000029"><a xlink:title=" ">
<path fill="none" stroke="#63b8ff" d="M1219.49,-362.48C1372.04,-360.13 1730.76,-350.53 2029,-311.5 2033.6,-310.9 2038.34,-310.18 2043.09,-309.38"/>
<polygon fill="#63b8ff" stroke="#63b8ff" points="1219.45,-358.98 1209.51,-362.63 1219.56,-365.98 1219.45,-358.98"/>
</a>
</g>
</g>
<!-- Node3&#45;&gt;Node2 -->
<g id="edge3_Node000003_Node000002" class="edge">
<title>Node3&#45;&gt;Node2</title>
<g id="a_edge3_Node000003_Node000002"><a xlink:title=" ">
<path fill="none" stroke="#63b8ff" d="M1426.58,-286.62C1488.71,-279.18 1581.15,-265.29 1659,-242 1726.61,-221.78 1801.88,-184.28 1835.75,-166.54"/>
<polygon fill="#63b8ff" stroke="#63b8ff" points="1426.37,-283.12 1416.84,-287.75 1427.18,-290.07 1426.37,-283.12"/>
</a>
</g>
</g>
<!-- Node4 -->
<g id="Node000004" class="node">
<title>Node4</title>
<g id="a_Node000004"><a xlink:href="grabber_8c.html" target="_top" xlink:title=" ">
<polygon fill="white" stroke="#666666" points="1940.12,-96.62 1843.88,-96.62 1843.88,-75.88 1940.12,-75.88 1940.12,-96.62"/>
<text xml:space="preserve" text-anchor="middle" x="1892" y="-83.12" font-family="Helvetica,sans-Serif" font-size="10.00">source/grabber.c</text>
</a>
</g>
</g>
<!-- Node3&#45;&gt;Node4 -->
<g id="edge4_Node000003_Node000004" class="edge">
<title>Node3&#45;&gt;Node4</title>
<g id="a_edge4_Node000003_Node000004"><a xlink:title=" ">
<path fill="none" stroke="#63b8ff" d="M1426.58,-289.95C1564.91,-280.79 1863.15,-252.05 1920,-172.5 1937.03,-148.67 1913.95,-113.87 1900.48,-97.06"/>
<polygon fill="#63b8ff" stroke="#63b8ff" points="1426.57,-286.44 1416.81,-290.58 1427.02,-293.43 1426.57,-286.44"/>
</a>
</g>
</g>
<!-- Node5 -->
<g id="Node000005" class="node">
<title>Node5</title>
<g id="a_Node000005"><a xlink:href="motor__convert_8h.html" target="_top" xlink:title=" ">
<polygon fill="white" stroke="#666666" points="985,-172.5 867,-172.5 867,-139 985,-139 985,-172.5"/>
<text xml:space="preserve" text-anchor="start" x="875" y="-159" font-family="Helvetica,sans-Serif" font-size="10.00">source/motion/motor</text>
<text xml:space="preserve" text-anchor="middle" x="926" y="-146.25" font-family="Helvetica,sans-Serif" font-size="10.00">/motor_convert.h</text>
</a>
</g>
</g>
<!-- Node3&#45;&gt;Node5 -->
<g id="edge5_Node000003_Node000005" class="edge">
<title>Node3&#45;&gt;Node5</title>
<g id="a_edge5_Node000003_Node000005"><a xlink:title=" ">
<path fill="none" stroke="#63b8ff" d="M1285.35,-292.15C1218.81,-288.41 1117.58,-276.82 1037,-242 998.64,-225.42 961.72,-192.64 941.62,-172.91"/>
<polygon fill="#63b8ff" stroke="#63b8ff" points="1284.87,-295.63 1295.03,-292.65 1285.23,-288.64 1284.87,-295.63"/>
</a>
</g>
</g>
<!-- Node3&#45;&gt;Node9 -->
<g id="edge37_Node000003_Node000009" class="edge">
<title>Node3&#45;&gt;Node9</title>
<g id="a_edge37_Node000003_Node000009"><a xlink:title=" ">
<path fill="none" stroke="#63b8ff" d="M1285.71,-282.59C1220.89,-268.46 1127.07,-237.62 1075,-172.5 1057.13,-150.15 1056.97,-114.02 1058.08,-96.87"/>
<polygon fill="#63b8ff" stroke="#63b8ff" points="1284.67,-285.94 1295.17,-284.56 1286.1,-279.09 1284.67,-285.94"/>
</a>
</g>
</g>
<!-- Node3&#45;&gt;Node10 -->
<g id="edge43_Node000003_Node000010" class="edge">
<title>Node3&#45;&gt;Node10</title>
<g id="a_edge43_Node000003_Node000010"><a xlink:title=" ">
<path fill="none" stroke="#63b8ff" d="M1345.79,-267.07C1328,-220.57 1292.12,-126.76 1280.63,-96.73"/>
<polygon fill="#63b8ff" stroke="#63b8ff" points="1342.42,-268.04 1349.26,-276.13 1348.96,-265.54 1342.42,-268.04"/>
</a>
</g>
</g>
<!-- Node11 -->
<g id="Node000011" class="node">
<title>Node11</title>
<g id="a_Node000011"><a xlink:href="motor__core_8c.html" target="_top" xlink:title=" ">
<polygon fill="white" stroke="#666666" points="441,-103 323,-103 323,-69.5 441,-69.5 441,-103"/>
<text xml:space="preserve" text-anchor="start" x="331" y="-89.5" font-family="Helvetica,sans-Serif" font-size="10.00">source/motion/motor</text>
<text xml:space="preserve" text-anchor="middle" x="382" y="-76.75" font-family="Helvetica,sans-Serif" font-size="10.00">/motor_core.c</text>
</a>
</g>
</g>
<!-- Node3&#45;&gt;Node11 -->
<g id="edge11_Node000003_Node000011" class="edge">
<title>Node3&#45;&gt;Node11</title>
<g id="a_edge11_Node000003_Node000011"><a xlink:title=" ">
<path fill="none" stroke="#63b8ff" d="M1285.42,-292.7C1031.54,-288.15 175.81,-265.95 102,-172.5 5.4,-50.21 -8.72,-167.72 314,-103 316.85,-102.43 319.77,-101.83 322.71,-101.2"/>
<polygon fill="#63b8ff" stroke="#63b8ff" points="1285.12,-296.19 1295.18,-292.87 1285.25,-289.19 1285.12,-296.19"/>
</a>
</g>
</g>
<!-- Node12 -->
<g id="Node000012" class="node">
<title>Node12</title>
<g id="a_Node000012"><a xlink:href="motor__init_8h.html" target="_top" xlink:title=" ">
<polygon fill="white" stroke="#666666" points="229,-172.5 111,-172.5 111,-139 229,-139 229,-172.5"/>
<text xml:space="preserve" text-anchor="start" x="119" y="-159" font-family="Helvetica,sans-Serif" font-size="10.00">source/motion/motor</text>
<text xml:space="preserve" text-anchor="middle" x="170" y="-146.25" font-family="Helvetica,sans-Serif" font-size="10.00">/motor_init.h</text>
</a>
</g>
</g>
<!-- Node3&#45;&gt;Node12 -->
<g id="edge12_Node000003_Node000012" class="edge">
<title>Node3&#45;&gt;Node12</title>
<g id="a_edge12_Node000003_Node000012"><a xlink:title=" ">
<path fill="none" stroke="#63b8ff" d="M1285.55,-292.25C1148.65,-288.63 837.34,-276.97 578,-242 452.68,-225.1 308.34,-191.55 229.34,-171.95"/>
<polygon fill="#63b8ff" stroke="#63b8ff" points="1285.08,-295.74 1295.17,-292.5 1285.26,-288.74 1285.08,-295.74"/>
</a>
</g>
</g>
<!-- Node15 -->
<g id="Node000015" class="node">
<title>Node15</title>
<g id="a_Node000015"><a xlink:href="motor__internal_8h.html" target="_top" xlink:title=" ">
<polygon fill="white" stroke="#666666" points="705,-242 587,-242 587,-208.5 705,-208.5 705,-242"/>
<text xml:space="preserve" text-anchor="start" x="595" y="-228.5" font-family="Helvetica,sans-Serif" font-size="10.00">source/motion/motor</text>
<text xml:space="preserve" text-anchor="middle" x="646" y="-215.75" font-family="Helvetica,sans-Serif" font-size="10.00">/motor_internal.h</text>
</a>
</g>
</g>
<!-- Node3&#45;&gt;Node15 -->
<g id="edge15_Node000003_Node000015" class="edge">
<title>Node3&#45;&gt;Node15</title>
<g id="a_edge15_Node000003_Node000015"><a xlink:title=" ">
<path fill="none" stroke="#63b8ff" d="M1285.3,-287.03C1145.39,-273.73 835.54,-244.27 705.39,-231.9"/>
<polygon fill="#63b8ff" stroke="#63b8ff" points="1284.89,-290.51 1295.18,-287.97 1285.56,-283.54 1284.89,-290.51"/>
</a>
</g>
</g>
<!-- Node22 -->
<g id="Node000022" class="node">
<title>Node22</title>
<g id="a_Node000022"><a xlink:href="motor__test_8c.html" target="_top" xlink:title=" ">
<polygon fill="white" stroke="#666666" points="1473.38,-96.62 1360.62,-96.62 1360.62,-75.88 1473.38,-75.88 1473.38,-96.62"/>
<text xml:space="preserve" text-anchor="middle" x="1417" y="-83.12" font-family="Helvetica,sans-Serif" font-size="10.00">source/motor_test.c</text>
</a>
</g>
</g>
<!-- Node3&#45;&gt;Node22 -->
<g id="edge44_Node000003_Node000022" class="edge">
<title>Node3&#45;&gt;Node22</title>
<g id="a_edge44_Node000003_Node000022"><a xlink:title=" ">
<path fill="none" stroke="#63b8ff" d="M1353.98,-266.49C1352.69,-234.57 1353.89,-180.74 1372,-139 1379.39,-121.96 1394.49,-106.47 1405.15,-96.97"/>
<polygon fill="#63b8ff" stroke="#63b8ff" points="1350.46,-266.27 1354.49,-276.07 1357.45,-265.9 1350.46,-266.27"/>
</a>
</g>
</g>
<!-- Node23 -->
<g id="Node000023" class="node">
<title>Node23</title>
<g id="a_Node000023"><a xlink:href="scara__kinematics_8c.html" target="_top" xlink:title=" ">
<polygon fill="white" stroke="#666666" points="1649.5,-27.12 1504.5,-27.12 1504.5,-6.38 1649.5,-6.38 1649.5,-27.12"/>
<text xml:space="preserve" text-anchor="middle" x="1577" y="-13.62" font-family="Helvetica,sans-Serif" font-size="10.00">source/scara_kinematics.c</text>
</a>
</g>
</g>
<!-- Node3&#45;&gt;Node23 -->
<g id="edge45_Node000003_Node000023" class="edge">
<title>Node3&#45;&gt;Node23</title>
<g id="a_edge45_Node000003_Node000023"><a xlink:title=" ">
<path fill="none" stroke="#63b8ff" d="M1426.43,-290.81C1542.57,-285.2 1768.81,-270.88 1843,-242 1891.42,-223.15 1909.73,-216.72 1937,-172.5 1961.19,-133.27 1979.39,-104.15 1949,-69.5 1908.5,-23.33 1735.77,-42.37 1675,-33.5 1662.55,-31.68 1649.24,-29.62 1636.56,-27.6"/>
<polygon fill="#63b8ff" stroke="#63b8ff" points="1426.54,-287.3 1416.71,-291.27 1426.87,-294.29 1426.54,-287.3"/>
</a>
</g>
</g>
<!-- Node24 -->
<g id="Node000024" class="node">
<title>Node24</title>
<g id="a_Node000024"><a xlink:href="motor__configs_8h.html" target="_top" xlink:title=" ">
<polygon fill="white" stroke="#666666" points="1510.62,-166.12 1381.38,-166.12 1381.38,-145.38 1510.62,-145.38 1510.62,-166.12"/>
<text xml:space="preserve" text-anchor="middle" x="1446" y="-152.62" font-family="Helvetica,sans-Serif" font-size="10.00">source/motor_configs.h</text>
</a>
</g>
</g>
<!-- Node3&#45;&gt;Node24 -->
<g id="edge38_Node000003_Node000024" class="edge">
<title>Node3&#45;&gt;Node24</title>
<g id="a_edge38_Node000003_Node000024"><a xlink:title=" ">
<path fill="none" stroke="#63b8ff" d="M1372.81,-268.16C1393,-237.43 1425.84,-187.44 1439.61,-166.48"/>
<polygon fill="#63b8ff" stroke="#63b8ff" points="1369.9,-266.22 1367.33,-276.5 1375.75,-270.07 1369.9,-266.22"/>
</a>
</g>
</g>
<!-- Node26 -->
<g id="Node000026" class="node">
<title>Node26</title>
<g id="a_Node000026"><a xlink:href="scara__kinematics_8h.html" target="_top" xlink:title=" ">
<polygon fill="white" stroke="#666666" points="1649.88,-235.62 1504.12,-235.62 1504.12,-214.88 1649.88,-214.88 1649.88,-235.62"/>
<text xml:space="preserve" text-anchor="middle" x="1577" y="-222.12" font-family="Helvetica,sans-Serif" font-size="10.00">source/scara_kinematics.h</text>
</a>
</g>
</g>
<!-- Node3&#45;&gt;Node26 -->
<g id="edge46_Node000003_Node000026" class="edge">
<title>Node3&#45;&gt;Node26</title>
<g id="a_edge46_Node000003_Node000026"><a xlink:title=" ">
<path fill="none" stroke="#63b8ff" d="M1419.89,-274.24C1460.76,-261.75 1512.05,-246.09 1544.69,-236.12"/>
<polygon fill="#63b8ff" stroke="#63b8ff" points="1418.92,-270.87 1410.38,-277.14 1420.97,-277.57 1418.92,-270.87"/>
</a>
</g>
</g>
<!-- Node6 -->
<g id="Node000006" class="node">
<title>Node6</title>
<g id="a_Node000006"><a xlink:href="motor__convert_8c.html" target="_top" xlink:title=" ">
<polygon fill="white" stroke="#666666" points="985,-103 867,-103 867,-69.5 985,-69.5 985,-103"/>
<text xml:space="preserve" text-anchor="start" x="875" y="-89.5" font-family="Helvetica,sans-Serif" font-size="10.00">source/motion/motor</text>
<text xml:space="preserve" text-anchor="middle" x="926" y="-76.75" font-family="Helvetica,sans-Serif" font-size="10.00">/motor_convert.c</text>
</a>
</g>
</g>
<!-- Node5&#45;&gt;Node6 -->
<g id="edge6_Node000005_Node000006" class="edge">
<title>Node5&#45;&gt;Node6</title>
<g id="a_edge6_Node000005_Node000006"><a xlink:title=" ">
<path fill="none" stroke="#63b8ff" d="M926,-127.31C926,-119.09 926,-110.34 926,-103.13"/>
<polygon fill="#63b8ff" stroke="#63b8ff" points="922.5,-127.24 926,-137.24 929.5,-127.24 922.5,-127.24"/>
</a>
</g>
</g>
<!-- Node5&#45;&gt;Node7 -->
<g id="edge7_Node000005_Node000007" class="edge">
<title>Node5&#45;&gt;Node7</title>
<g id="a_edge7_Node000005_Node000007"><a xlink:title=" ">
<path fill="none" stroke="#63b8ff" d="M883.17,-133.49C863.48,-123.72 840.51,-112.32 822.31,-103.29"/>
<polygon fill="#63b8ff" stroke="#63b8ff" points="881.56,-136.6 892.07,-137.91 884.67,-130.33 881.56,-136.6"/>
</a>
</g>
</g>
<!-- Node5&#45;&gt;Node8 -->
<g id="edge8_Node000005_Node000008" class="edge">
<title>Node5&#45;&gt;Node8</title>
<g id="a_edge8_Node000005_Node000008"><a xlink:title=" ">
<path fill="none" stroke="#63b8ff" d="M855.6,-146.59C832.2,-144 805.99,-141.23 782,-139 574.28,-119.66 520.2,-134.63 314,-103 311.13,-102.56 308.19,-102.06 305.24,-101.52"/>
<polygon fill="#63b8ff" stroke="#63b8ff" points="855.01,-150.05 865.34,-147.68 855.79,-143.09 855.01,-150.05"/>
</a>
</g>
</g>
<!-- Node5&#45;&gt;Node9 -->
<g id="edge9_Node000005_Node000009" class="edge">
<title>Node5&#45;&gt;Node9</title>
<g id="a_edge9_Node000005_Node000009"><a xlink:title=" ">
<path fill="none" stroke="#63b8ff" d="M967.82,-133.52C991.9,-121.31 1021,-106.53 1039.75,-97.02"/>
<polygon fill="#63b8ff" stroke="#63b8ff" points="966.54,-130.25 959.21,-137.9 969.71,-136.49 966.54,-130.25"/>
</a>
</g>
</g>
<!-- Node5&#45;&gt;Node10 -->
<g id="edge10_Node000005_Node000010" class="edge">
<title>Node5&#45;&gt;Node10</title>
<g id="a_edge10_Node000005_Node000010"><a xlink:title=" ">
<path fill="none" stroke="#63b8ff" d="M996.16,-141.26C1064.05,-128.2 1165.32,-108.73 1225.9,-97.08"/>
<polygon fill="#63b8ff" stroke="#63b8ff" points="995.79,-137.76 986.63,-143.09 997.11,-144.64 995.79,-137.76"/>
</a>
</g>
</g>
<!-- Node12&#45;&gt;Node13 -->
<g id="edge13_Node000012_Node000013" class="edge">
<title>Node12&#45;&gt;Node13</title>
<g id="a_edge13_Node000012_Node000013"><a xlink:title=" ">
<path fill="none" stroke="#63b8ff" d="M133.93,-132.82C118.11,-123.2 99.89,-112.11 85.37,-103.29"/>
<polygon fill="#63b8ff" stroke="#63b8ff" points="131.76,-135.59 142.12,-137.8 135.39,-129.61 131.76,-135.59"/>
</a>
</g>
</g>
<!-- Node14 -->
<g id="Node000014" class="node">
<title>Node14</title>
<g id="a_Node000014"><a xlink:href="motor__process_8c.html" target="_top" xlink:title=" ">
<polygon fill="white" stroke="#666666" points="577,-103 459,-103 459,-69.5 577,-69.5 577,-103"/>
<text xml:space="preserve" text-anchor="start" x="467" y="-89.5" font-family="Helvetica,sans-Serif" font-size="10.00">source/motion/motor</text>
<text xml:space="preserve" text-anchor="middle" x="518" y="-76.75" font-family="Helvetica,sans-Serif" font-size="10.00">/motor_process.c</text>
</a>
</g>
</g>
<!-- Node12&#45;&gt;Node14 -->
<g id="edge14_Node000012_Node000014" class="edge">
<title>Node12&#45;&gt;Node14</title>
<g id="a_edge14_Node000012_Node000014"><a xlink:title=" ">
<path fill="none" stroke="#63b8ff" d="M240.38,-138.6C333.63,-120.3 359.77,-121.09 450,-103 452.85,-102.43 455.77,-101.83 458.71,-101.2"/>
<polygon fill="#63b8ff" stroke="#63b8ff" points="239.9,-135.12 230.78,-140.5 241.27,-141.99 239.9,-135.12"/>
</a>
</g>
</g>
<!-- Node15&#45;&gt;Node6 -->
<g id="edge16_Node000015_Node000006" class="edge">
<title>Node15&#45;&gt;Node6</title>
<g id="a_edge16_Node000015_Node000006"><a xlink:title=" ">
<path fill="none" stroke="#63b8ff" d="M705.48,-204.12C729.62,-195.31 757.53,-184.29 782,-172.5 825.71,-151.44 873.67,-121.58 901.74,-103.36"/>
<polygon fill="#63b8ff" stroke="#63b8ff" points="704.33,-200.82 696.1,-207.5 706.7,-207.4 704.33,-200.82"/>
</a>
</g>
</g>
<!-- Node15&#45;&gt;Node12 -->
<g id="edge17_Node000015_Node000012" class="edge">
<title>Node15&#45;&gt;Node12</title>
<g id="a_edge17_Node000015_Node000012"><a xlink:title=" ">
<path fill="none" stroke="#63b8ff" d="M575.46,-217.5C493.86,-209.18 355.64,-193.53 238,-172.5 235.14,-171.99 232.21,-171.43 229.27,-170.85"/>
<polygon fill="#63b8ff" stroke="#63b8ff" points="574.79,-220.95 585.09,-218.47 575.49,-213.98 574.79,-220.95"/>
</a>
</g>
</g>
<!-- Node16 -->
<g id="Node000016" class="node">
<title>Node16</title>
<g id="a_Node000016"><a xlink:href="motor__motion_8h.html" target="_top" xlink:title=" ">
<polygon fill="white" stroke="#666666" points="637,-172.5 519,-172.5 519,-139 637,-139 637,-172.5"/>
<text xml:space="preserve" text-anchor="start" x="527" y="-159" font-family="Helvetica,sans-Serif" font-size="10.00">source/motion/motor</text>
<text xml:space="preserve" text-anchor="middle" x="578" y="-146.25" font-family="Helvetica,sans-Serif" font-size="10.00">/motor_motion.h</text>
</a>
</g>
</g>
<!-- Node15&#45;&gt;Node16 -->
<g id="edge18_Node000015_Node000016" class="edge">
<title>Node15&#45;&gt;Node16</title>
<g id="a_edge18_Node000015_Node000016"><a xlink:title=" ">
<path fill="none" stroke="#63b8ff" d="M621.79,-200.22C612.56,-191.06 602.28,-180.85 594,-172.63"/>
<polygon fill="#63b8ff" stroke="#63b8ff" points="619.25,-202.63 628.81,-207.19 624.18,-197.66 619.25,-202.63"/>
</a>
</g>
</g>
<!-- Node18 -->
<g id="Node000018" class="node">
<title>Node18</title>
<g id="a_Node000018"><a xlink:href="motor__process_8h.html" target="_top" xlink:title=" ">
<polygon fill="white" stroke="#666666" points="501,-172.5 383,-172.5 383,-139 501,-139 501,-172.5"/>
<text xml:space="preserve" text-anchor="start" x="391" y="-159" font-family="Helvetica,sans-Serif" font-size="10.00">source/motion/motor</text>
<text xml:space="preserve" text-anchor="middle" x="442" y="-146.25" font-family="Helvetica,sans-Serif" font-size="10.00">/motor_process.h</text>
</a>
</g>
</g>
<!-- Node15&#45;&gt;Node18 -->
<g id="edge23_Node000015_Node000018" class="edge">
<title>Node15&#45;&gt;Node18</title>
<g id="a_edge23_Node000015_Node000018"><a xlink:title=" ">
<path fill="none" stroke="#63b8ff" d="M586.25,-204.48C555.89,-194.44 519.47,-182.38 490.82,-172.9"/>
<polygon fill="#63b8ff" stroke="#63b8ff" points="585.11,-207.79 595.7,-207.61 587.31,-201.14 585.11,-207.79"/>
</a>
</g>
</g>
<!-- Node19 -->
<g id="Node000019" class="node">
<title>Node19</title>
<g id="a_Node000019"><a xlink:href="motor__sync_8h.html" target="_top" xlink:title=" ">
<polygon fill="white" stroke="#666666" points="365,-172.5 247,-172.5 247,-139 365,-139 365,-172.5"/>
<text xml:space="preserve" text-anchor="start" x="255" y="-159" font-family="Helvetica,sans-Serif" font-size="10.00">source/motion/motor</text>
<text xml:space="preserve" text-anchor="middle" x="306" y="-146.25" font-family="Helvetica,sans-Serif" font-size="10.00">/motor_sync.h</text>
</a>
</g>
</g>
<!-- Node15&#45;&gt;Node19 -->
<g id="edge26_Node000015_Node000019" class="edge">
<title>Node15&#45;&gt;Node19</title>
<g id="a_edge26_Node000015_Node000019"><a xlink:title=" ">
<path fill="none" stroke="#63b8ff" d="M575.68,-211.66C520.67,-201.62 442.32,-186.9 374,-172.5 371.15,-171.9 368.24,-171.27 365.31,-170.63"/>
<polygon fill="#63b8ff" stroke="#63b8ff" points="574.75,-215.05 585.21,-213.4 576,-208.16 574.75,-215.05"/>
</a>
</g>
</g>
<!-- Node20 -->
<g id="Node000020" class="node">
<title>Node20</title>
<g id="a_Node000020"><a xlink:href="motor__tmc_8h.html" target="_top" xlink:title=" ">
<polygon fill="white" stroke="#666666" points="773,-172.5 655,-172.5 655,-139 773,-139 773,-172.5"/>
<text xml:space="preserve" text-anchor="start" x="663" y="-159" font-family="Helvetica,sans-Serif" font-size="10.00">source/motion/motor</text>
<text xml:space="preserve" text-anchor="middle" x="714" y="-146.25" font-family="Helvetica,sans-Serif" font-size="10.00">/motor_tmc.h</text>
</a>
</g>
</g>
<!-- Node15&#45;&gt;Node20 -->
<g id="edge29_Node000015_Node000020" class="edge">
<title>Node15&#45;&gt;Node20</title>
<g id="a_edge29_Node000015_Node000020"><a xlink:title=" ">
<path fill="none" stroke="#63b8ff" d="M670.21,-200.22C679.44,-191.06 689.72,-180.85 698,-172.63"/>
<polygon fill="#63b8ff" stroke="#63b8ff" points="667.82,-197.66 663.19,-207.19 672.75,-202.63 667.82,-197.66"/>
</a>
</g>
</g>
<!-- Node21 -->
<g id="Node000021" class="node">
<title>Node21</title>
<g id="a_Node000021"><a xlink:href="motor__homing_8h.html" target="_top" xlink:title=" ">
<polygon fill="white" stroke="#666666" points="1248.75,-166.12 1117.25,-166.12 1117.25,-145.38 1248.75,-145.38 1248.75,-166.12"/>
<text xml:space="preserve" text-anchor="middle" x="1183" y="-152.62" font-family="Helvetica,sans-Serif" font-size="10.00">source/motor_homing.h</text>
</a>
</g>
</g>
<!-- Node15&#45;&gt;Node21 -->
<g id="edge32_Node000015_Node000021" class="edge">
<title>Node15&#45;&gt;Node21</title>
<g id="a_edge32_Node000015_Node000021"><a xlink:title=" ">
<path fill="none" stroke="#63b8ff" d="M716.61,-215.37C821,-202.25 1015.1,-177.85 1116.86,-165.06"/>
<polygon fill="#63b8ff" stroke="#63b8ff" points="716.25,-211.89 706.76,-216.61 717.12,-218.84 716.25,-211.89"/>
</a>
</g>
</g>
<!-- Node16&#45;&gt;Node7 -->
<g id="edge20_Node000016_Node000007" class="edge">
<title>Node16&#45;&gt;Node7</title>
<g id="a_edge20_Node000016_Node000007"><a xlink:title=" ">
<path fill="none" stroke="#63b8ff" d="M639.68,-135.11C671.31,-125.04 709.36,-112.92 739.27,-103.4"/>
<polygon fill="#63b8ff" stroke="#63b8ff" points="638.69,-131.75 630.22,-138.12 640.81,-138.42 638.69,-131.75"/>
</a>
</g>
</g>
<!-- Node16&#45;&gt;Node11 -->
<g id="edge19_Node000016_Node000011" class="edge">
<title>Node16&#45;&gt;Node11</title>
<g id="a_edge19_Node000016_Node000011"><a xlink:title=" ">
<path fill="none" stroke="#63b8ff" d="M520.21,-134.85C491.12,-124.83 456.31,-112.84 428.9,-103.4"/>
<polygon fill="#63b8ff" stroke="#63b8ff" points="519.03,-138.14 529.62,-138.09 521.31,-131.52 519.03,-138.14"/>
</a>
</g>
</g>
<!-- Node16&#45;&gt;Node14 -->
<g id="edge21_Node000016_Node000014" class="edge">
<title>Node16&#45;&gt;Node14</title>
<g id="a_edge21_Node000016_Node000014"><a xlink:title=" ">
<path fill="none" stroke="#63b8ff" d="M556.14,-130.16C548.13,-121.14 539.27,-111.18 532.12,-103.13"/>
<polygon fill="#63b8ff" stroke="#63b8ff" points="553.52,-132.47 562.78,-137.62 558.75,-127.82 553.52,-132.47"/>
</a>
</g>
</g>
<!-- Node17 -->
<g id="Node000017" class="node">
<title>Node17</title>
<g id="a_Node000017"><a xlink:href="motor__tmc_8c.html" target="_top" xlink:title=" ">
<polygon fill="white" stroke="#666666" points="713,-103 595,-103 595,-69.5 713,-69.5 713,-103"/>
<text xml:space="preserve" text-anchor="start" x="603" y="-89.5" font-family="Helvetica,sans-Serif" font-size="10.00">source/motion/motor</text>
<text xml:space="preserve" text-anchor="middle" x="654" y="-76.75" font-family="Helvetica,sans-Serif" font-size="10.00">/motor_tmc.c</text>
</a>
</g>
</g>
<!-- Node16&#45;&gt;Node17 -->
<g id="edge22_Node000016_Node000017" class="edge">
<title>Node16&#45;&gt;Node17</title>
<g id="a_edge22_Node000016_Node000017"><a xlink:title=" ">
<path fill="none" stroke="#63b8ff" d="M604.36,-131.34C614.76,-122.1 626.44,-111.73 635.85,-103.37"/>
<polygon fill="#63b8ff" stroke="#63b8ff" points="602.3,-128.49 597.14,-137.75 606.94,-133.72 602.3,-128.49"/>
</a>
</g>
</g>
<!-- Node18&#45;&gt;Node11 -->
<g id="edge24_Node000018_Node000011" class="edge">
<title>Node18&#45;&gt;Node11</title>
<g id="a_edge24_Node000018_Node000011"><a xlink:title=" ">
<path fill="none" stroke="#63b8ff" d="M420.14,-130.16C412.13,-121.14 403.27,-111.18 396.12,-103.13"/>
<polygon fill="#63b8ff" stroke="#63b8ff" points="417.52,-132.47 426.78,-137.62 422.75,-127.82 417.52,-132.47"/>
</a>
</g>
</g>
<!-- Node18&#45;&gt;Node14 -->
<g id="edge25_Node000018_Node000014" class="edge">
<title>Node18&#45;&gt;Node14</title>
<g id="a_edge25_Node000018_Node000014"><a xlink:title=" ">
<path fill="none" stroke="#63b8ff" d="M468.36,-131.34C478.76,-122.1 490.44,-111.73 499.85,-103.37"/>
<polygon fill="#63b8ff" stroke="#63b8ff" points="466.3,-128.49 461.14,-137.75 470.94,-133.72 466.3,-128.49"/>
</a>
</g>
</g>
<!-- Node19&#45;&gt;Node8 -->
<g id="edge28_Node000019_Node000008" class="edge">
<title>Node19&#45;&gt;Node8</title>
<g id="a_edge28_Node000019_Node000008"><a xlink:title=" ">
<path fill="none" stroke="#63b8ff" d="M284.14,-130.16C276.13,-121.14 267.27,-111.18 260.12,-103.13"/>
<polygon fill="#63b8ff" stroke="#63b8ff" points="281.52,-132.47 290.78,-137.62 286.75,-127.82 281.52,-132.47"/>
</a>
</g>
</g>
<!-- Node19&#45;&gt;Node14 -->
<g id="edge27_Node000019_Node000014" class="edge">
<title>Node19&#45;&gt;Node14</title>
<g id="a_edge27_Node000019_Node000014"><a xlink:title=" ">
<path fill="none" stroke="#63b8ff" d="M367.68,-135.11C399.31,-125.04 437.36,-112.92 467.27,-103.4"/>
<polygon fill="#63b8ff" stroke="#63b8ff" points="366.69,-131.75 358.22,-138.12 368.81,-138.42 366.69,-131.75"/>
</a>
</g>
</g>
<!-- Node20&#45;&gt;Node14 -->
<g id="edge30_Node000020_Node000014" class="edge">
<title>Node20&#45;&gt;Node14</title>
<g id="a_edge30_Node000020_Node000014"><a xlink:title=" ">
<path fill="none" stroke="#63b8ff" d="M656.21,-134.85C627.12,-124.83 592.31,-112.84 564.9,-103.4"/>
<polygon fill="#63b8ff" stroke="#63b8ff" points="655.03,-138.14 665.62,-138.09 657.31,-131.52 655.03,-138.14"/>
</a>
</g>
</g>
<!-- Node20&#45;&gt;Node17 -->
<g id="edge31_Node000020_Node000017" class="edge">
<title>Node20&#45;&gt;Node17</title>
<g id="a_edge31_Node000020_Node000017"><a xlink:title=" ">
<path fill="none" stroke="#63b8ff" d="M692.14,-130.16C684.13,-121.14 675.27,-111.18 668.12,-103.13"/>
<polygon fill="#63b8ff" stroke="#63b8ff" points="689.52,-132.47 698.78,-137.62 694.75,-127.82 689.52,-132.47"/>
</a>
</g>
</g>
<!-- Node21&#45;&gt;Node9 -->
<g id="edge33_Node000021_Node000009" class="edge">
<title>Node21&#45;&gt;Node9</title>
<g id="a_edge33_Node000021_Node000009"><a xlink:title=" ">
<path fill="none" stroke="#63b8ff" d="M1155.09,-139.55C1131.21,-126.56 1097.54,-108.23 1077.05,-97.08"/>
<polygon fill="#63b8ff" stroke="#63b8ff" points="1153.18,-142.5 1163.64,-144.21 1156.53,-136.36 1153.18,-142.5"/>
</a>
</g>
</g>
<!-- Node21&#45;&gt;Node10 -->
<g id="edge34_Node000021_Node000010" class="edge">
<title>Node21&#45;&gt;Node10</title>
<g id="a_edge34_Node000021_Node000010"><a xlink:title=" ">
<path fill="none" stroke="#63b8ff" d="M1205.67,-138.47C1223.63,-125.57 1248.14,-107.97 1263.25,-97.12"/>
<polygon fill="#63b8ff" stroke="#63b8ff" points="1203.78,-135.52 1197.7,-144.2 1207.86,-141.21 1203.78,-135.52"/>
</a>
</g>
</g>
<!-- Node21&#45;&gt;Node22 -->
<g id="edge35_Node000021_Node000022" class="edge">
<title>Node21&#45;&gt;Node22</title>
<g id="a_edge35_Node000021_Node000022"><a xlink:title=" ">
<path fill="none" stroke="#63b8ff" d="M1227.99,-141.77C1273.25,-128.72 1342.02,-108.88 1382.93,-97.08"/>
<polygon fill="#63b8ff" stroke="#63b8ff" points="1227.12,-138.38 1218.48,-144.52 1229.06,-145.11 1227.12,-138.38"/>
</a>
</g>
</g>
<!-- Node21&#45;&gt;Node23 -->
<g id="edge36_Node000021_Node000023" class="edge">
<title>Node21&#45;&gt;Node23</title>
<g id="a_edge36_Node000021_Node000023"><a xlink:title=" ">
<path fill="none" stroke="#63b8ff" d="M1181.74,-133.76C1181.81,-114.18 1185.3,-85.63 1203,-69.5 1245.88,-30.43 1408.25,-20.65 1504.38,-18.33"/>
<polygon fill="#63b8ff" stroke="#63b8ff" points="1178.24,-133.71 1182.03,-143.6 1185.24,-133.5 1178.24,-133.71"/>
</a>
</g>
</g>
<!-- Node24&#45;&gt;Node4 -->
<g id="edge39_Node000024_Node000004" class="edge">
<title>Node24&#45;&gt;Node4</title>
<g id="a_edge39_Node000024_Node000004"><a xlink:title=" ">
<path fill="none" stroke="#63b8ff" d="M1522.04,-143.24C1614.03,-129.32 1766.16,-106.29 1843.55,-94.58"/>
<polygon fill="#63b8ff" stroke="#63b8ff" points="1521.71,-139.75 1512.35,-144.71 1522.76,-146.67 1521.71,-139.75"/>
</a>
</g>
</g>
<!-- Node24&#45;&gt;Node10 -->
<g id="edge40_Node000024_Node000010" class="edge">
<title>Node24&#45;&gt;Node10</title>
<g id="a_edge40_Node000024_Node000010"><a xlink:title=" ">
<path fill="none" stroke="#63b8ff" d="M1410.98,-140.76C1378.31,-127.71 1330.4,-108.58 1301.6,-97.08"/>
<polygon fill="#63b8ff" stroke="#63b8ff" points="1409.44,-143.91 1420.02,-144.37 1412.03,-137.41 1409.44,-143.91"/>
</a>
</g>
</g>
<!-- Node24&#45;&gt;Node22 -->
<g id="edge41_Node000024_Node000022" class="edge">
<title>Node24&#45;&gt;Node22</title>
<g id="a_edge41_Node000024_Node000022"><a xlink:title=" ">
<path fill="none" stroke="#63b8ff" d="M1437.39,-134.71C1432.03,-122.22 1425.37,-106.72 1421.15,-96.9"/>
<polygon fill="#63b8ff" stroke="#63b8ff" points="1434.08,-135.88 1441.25,-143.69 1440.52,-133.12 1434.08,-135.88"/>
</a>
</g>
</g>
<!-- Node25 -->
<g id="Node000025" class="node">
<title>Node25</title>
<g id="a_Node000025"><a xlink:href="scara__kinematics__process_8c.html" target="_top" xlink:title=" ">
<polygon fill="white" stroke="#666666" points="1820.38,-33.5 1683.62,-33.5 1683.62,0 1820.38,0 1820.38,-33.5"/>
<text xml:space="preserve" text-anchor="start" x="1691.62" y="-20" font-family="Helvetica,sans-Serif" font-size="10.00">source/scara_kinematics</text>
<text xml:space="preserve" text-anchor="middle" x="1752" y="-7.25" font-family="Helvetica,sans-Serif" font-size="10.00">_process.c</text>
</a>
</g>
</g>
<!-- Node24&#45;&gt;Node25 -->
<g id="edge42_Node000024_Node000025" class="edge">
<title>Node24&#45;&gt;Node25</title>
<g id="a_edge42_Node000024_Node000025"><a xlink:title=" ">
<path fill="none" stroke="#63b8ff" d="M1470.14,-139.06C1499.15,-120.66 1549.73,-90.08 1596,-69.5 1627.68,-55.41 1664.42,-43.04 1694.3,-33.93"/>
<polygon fill="#63b8ff" stroke="#63b8ff" points="1468.63,-135.86 1462.09,-144.2 1472.4,-141.76 1468.63,-135.86"/>
</a>
</g>
</g>
<!-- Node26&#45;&gt;Node2 -->
<g id="edge47_Node000026_Node000002" class="edge">
<title>Node26&#45;&gt;Node2</title>
<g id="a_edge47_Node000026_Node000002"><a xlink:title=" ">
<path fill="none" stroke="#63b8ff" d="M1628.23,-211.77C1681.76,-198.72 1764.62,-178.53 1813.67,-166.58"/>
<polygon fill="#63b8ff" stroke="#63b8ff" points="1627.64,-208.31 1618.75,-214.08 1629.29,-215.11 1627.64,-208.31"/>
</a>
</g>
</g>
<!-- Node26&#45;&gt;Node9 -->
<g id="edge48_Node000026_Node000009" class="edge">
<title>Node26&#45;&gt;Node9</title>
<g id="a_edge48_Node000026_Node000009"><a xlink:title=" ">
<path fill="none" stroke="#63b8ff" d="M1492.44,-223.93C1374.84,-221.98 1169.44,-212.71 1108,-172.5 1080.43,-154.46 1066.58,-115.17 1061.43,-96.92"/>
<polygon fill="#63b8ff" stroke="#63b8ff" points="1492.32,-227.43 1502.37,-224.08 1492.42,-220.43 1492.32,-227.43"/>
</a>
</g>
</g>
<!-- Node26&#45;&gt;Node22 -->
<g id="edge49_Node000026_Node000022" class="edge">
<title>Node26&#45;&gt;Node22</title>
<g id="a_edge49_Node000026_Node000022"><a xlink:title=" ">
<path fill="none" stroke="#63b8ff" d="M1567.62,-204.55C1557.87,-185.76 1541.09,-157.63 1520,-139 1498.1,-119.66 1467.68,-105.55 1445.58,-96.99"/>
<polygon fill="#63b8ff" stroke="#63b8ff" points="1564.38,-205.89 1571.97,-213.28 1570.64,-202.77 1564.38,-205.89"/>
</a>
</g>
</g>
<!-- Node26&#45;&gt;Node23 -->
<g id="edge50_Node000026_Node000023" class="edge">
<title>Node26&#45;&gt;Node23</title>
<g id="a_edge50_Node000026_Node000023"><a xlink:title=" ">
<path fill="none" stroke="#63b8ff" d="M1577,-203.3C1577,-159.23 1577,-58.44 1577,-27.17"/>
<polygon fill="#63b8ff" stroke="#63b8ff" points="1573.5,-203.05 1577,-213.05 1580.5,-203.05 1573.5,-203.05"/>
</a>
</g>
</g>
<!-- Node26&#45;&gt;Node25 -->
<g id="edge57_Node000026_Node000025" class="edge">
<title>Node26&#45;&gt;Node25</title>
<g id="a_edge57_Node000026_Node000025"><a xlink:title=" ">
<path fill="none" stroke="#63b8ff" d="M1628.34,-211.62C1676.14,-199.42 1741.32,-181.51 1750,-172.5 1782.24,-139.03 1774.94,-115.45 1768,-69.5 1766.15,-57.23 1761.95,-43.85 1758.32,-33.77"/>
<polygon fill="#63b8ff" stroke="#63b8ff" points="1627.52,-208.21 1618.68,-214.06 1629.24,-215 1627.52,-208.21"/>
</a>
</g>
</g>
<!-- Node27 -->
<g id="Node000027" class="node">
<title>Node27</title>
<g id="a_Node000027"><a xlink:href="scara__kinematics__internal_8h.html" target="_top" xlink:title=" ">
<polygon fill="white" stroke="#666666" points="1741.38,-172.5 1604.62,-172.5 1604.62,-139 1741.38,-139 1741.38,-172.5"/>
<text xml:space="preserve" text-anchor="start" x="1612.62" y="-159" font-family="Helvetica,sans-Serif" font-size="10.00">source/scara_kinematics</text>
<text xml:space="preserve" text-anchor="middle" x="1673" y="-146.25" font-family="Helvetica,sans-Serif" font-size="10.00">_internal.h</text>
</a>
</g>
</g>
<!-- Node26&#45;&gt;Node27 -->
<g id="edge51_Node000026_Node000027" class="edge">
<title>Node26&#45;&gt;Node27</title>
<g id="a_edge51_Node000026_Node000027"><a xlink:title=" ">
<path fill="none" stroke="#63b8ff" d="M1599.94,-208.12C1615.08,-197.47 1634.85,-183.57 1650,-172.92"/>
<polygon fill="#63b8ff" stroke="#63b8ff" points="1598.16,-205.09 1591.99,-213.71 1602.19,-210.82 1598.16,-205.09"/>
</a>
</g>
</g>
<!-- Node27&#45;&gt;Node23 -->
<g id="edge52_Node000027_Node000023" class="edge">
<title>Node27&#45;&gt;Node23</title>
<g id="a_edge52_Node000027_Node000023"><a xlink:title=" ">
<path fill="none" stroke="#63b8ff" d="M1628.15,-132.78C1616.11,-124.91 1604.17,-114.96 1596,-103 1579.92,-79.46 1577.21,-44.52 1576.91,-27.62"/>
<polygon fill="#63b8ff" stroke="#63b8ff" points="1626.11,-135.64 1636.47,-137.85 1629.76,-129.66 1626.11,-135.64"/>
</a>
</g>
</g>
<!-- Node27&#45;&gt;Node25 -->
<g id="edge53_Node000027_Node000025" class="edge">
<title>Node27&#45;&gt;Node25</title>
<g id="a_edge53_Node000027_Node000025"><a xlink:title=" ">
<path fill="none" stroke="#63b8ff" d="M1720.99,-132.65C1732.49,-124.96 1743.35,-115.14 1750,-103 1761.81,-81.45 1759.14,-52 1755.81,-33.96"/>
<polygon fill="#63b8ff" stroke="#63b8ff" points="1719.25,-129.61 1712.55,-137.82 1722.91,-135.58 1719.25,-129.61"/>
</a>
</g>
</g>
<!-- Node28 -->
<g id="Node000028" class="node">
<title>Node28</title>
<g id="a_Node000028"><a xlink:href="scara__kinematics__process_8h.html" target="_top" xlink:title=" ">
<polygon fill="white" stroke="#666666" points="1741.38,-103 1604.62,-103 1604.62,-69.5 1741.38,-69.5 1741.38,-103"/>
<text xml:space="preserve" text-anchor="start" x="1612.62" y="-89.5" font-family="Helvetica,sans-Serif" font-size="10.00">source/scara_kinematics</text>
<text xml:space="preserve" text-anchor="middle" x="1673" y="-76.75" font-family="Helvetica,sans-Serif" font-size="10.00">_process.h</text>
</a>
</g>
</g>
<!-- Node27&#45;&gt;Node28 -->
<g id="edge54_Node000027_Node000028" class="edge">
<title>Node27&#45;&gt;Node28</title>
<g id="a_edge54_Node000027_Node000028"><a xlink:title=" ">
<path fill="none" stroke="#63b8ff" d="M1673,-127.31C1673,-119.09 1673,-110.34 1673,-103.13"/>
<polygon fill="#63b8ff" stroke="#63b8ff" points="1669.5,-127.24 1673,-137.24 1676.5,-127.24 1669.5,-127.24"/>
</a>
</g>
</g>
<!-- Node28&#45;&gt;Node23 -->
<g id="edge55_Node000028_Node000023" class="edge">
<title>Node28&#45;&gt;Node23</title>
<g id="a_edge55_Node000028_Node000023"><a xlink:title=" ">
<path fill="none" stroke="#63b8ff" d="M1641.18,-62.87C1624.16,-50.91 1604.08,-36.79 1590.97,-27.57"/>
<polygon fill="#63b8ff" stroke="#63b8ff" points="1638.82,-65.49 1649.01,-68.38 1642.84,-59.77 1638.82,-65.49"/>
</a>
</g>
</g>
<!-- Node28&#45;&gt;Node25 -->
<g id="edge56_Node000028_Node000025" class="edge">
<title>Node28&#45;&gt;Node25</title>
<g id="a_edge56_Node000028_Node000025"><a xlink:title=" ">
<path fill="none" stroke="#63b8ff" d="M1700.4,-61.84C1711.21,-52.6 1723.35,-42.23 1733.14,-33.87"/>
<polygon fill="#63b8ff" stroke="#63b8ff" points="1698.2,-59.11 1692.87,-68.27 1702.75,-64.44 1698.2,-59.11"/>
</a>
</g>
</g>
</g>
</svg>

<g id="navigator" transform="translate(0 0)" fill="#404254">
  <rect fill="#f2f5e9" fill-opacity="0.5" stroke="#606060" stroke-width=".5" x="0" y="0" width="60" height="60"/>
  <use id="zoomplus" xlink:href="#zoomPlus" x="17" y="9" onmousedown="handleZoom(evt,'in')"/>
  <use id="zoomminus" xlink:href="#zoomMin" x="42" y="9" onmousedown="handleZoom(evt,'out')"/>
  <use id="reset" xlink:href="#resetDef" x="30" y="36" onmousedown="handleReset()"/>
   <use id="arrowup" xlink:href="#arrowUp" x="0" y="0" onmousedown="handlePan(0,-1)"/>
  <use id="arrowright" xlink:href="#arrowRight" x="0" y="0" onmousedown="handlePan(1,0)"/>
  <use id="arrowdown" xlink:href="#arrowDown" x="0" y="0" onmousedown="handlePan(0,1)"/>
  <use id="arrowleft" xlink:href="#arrowLeft" x="0" y="0" onmousedown="handlePan(-1,0)"/>
</g>
<svg viewBox="0 0 15 15" width="100%" height="30px" preserveAspectRatio="xMaxYMin meet">
 <g id="arrow_out" transform="scale(0.3 0.3)">
  <a xlink:href="step__core_8h__dep__incl_org.svg" target="_base">
   <rect id="button" ry="5" rx="5" y="6" x="6" height="38" width="38"
        fill="#f2f5e9" fill-opacity="0.5" stroke="#606060" stroke-width="1.0"/>
   <path id="arrow"
     d="M 11.500037,31.436501 C 11.940474,20.09759 22.043105,11.32322 32.158766,21.979434 L 37.068811,17.246167 C 37.068811,17.246167 37.088388,32 37.088388,32 L 22.160133,31.978069 C 22.160133,31.978069 26.997745,27.140456 26.997745,27.140456 C 18.528582,18.264221 13.291696,25.230495 11.500037,31.436501 z"
     style="fill:#404040;"/>
  </a>
 </g>
</svg>

<style type='text/css'>
<![CDATA[
[data-mouse-over-selected='false'] { opacity: 0.7; }
[data-mouse-over-selected='true']  { opacity: 1.0; }
]]>
</style>
<script type="application/ecmascript"><![CDATA[
document.addEventListener('DOMContentLoaded', (event) => {
  highlightEdges();
  highlightAdjacentNodes();
});
]]></script>
</svg>
