<?xml version="1.0" encoding="UTF-8" standalone="no"?>
<!DOCTYPE svg PUBLIC "-//W3C//DTD SVG 1.1//EN"
 "http://www.w3.org/Graphics/SVG/1.1/DTD/svg11.dtd">
<!-- Generated by graphviz version 14.1.4 (0)
 -->
<!-- Title: _MTR_CmdQueueItem Pages: 1 -->
<svg width="1425pt" height="650pt"
 viewBox="0.00 0.00 1425.00 650.00" xmlns="http://www.w3.org/2000/svg" xmlns:xlink="http://www.w3.org/1999/xlink">
<g id="graph0" class="graph" transform="scale(1 1) rotate(0) translate(4 646.05)">
<title>_MTR_CmdQueueItem</title>
<!-- Node1 -->
<g id="Node000001" class="node">
<title>Node1</title>
<g id="a_Node000001"><a xlink:title=" ">
<polygon fill="#999999" stroke="#666666" points="1416.75,-333.67 1292,-333.67 1292,-312.92 1416.75,-312.92 1416.75,-333.67"/>
<text xml:space="preserve" text-anchor="middle" x="1354.38" y="-320.17" font-family="Helvetica,sans-Serif" font-size="10.00">_MTR_CmdQueueItem</text>
</a>
</g>
</g>
<!-- Node2 -->
<g id="Node000002" class="node">
<title>Node2</title>
<g id="a_Node000002"><a xlink:href="struct__MTR__MotorHandleImpl.html" target="_top" xlink:title=" ">
<polygon fill="white" stroke="#666666" points="880,-568.67 747,-568.67 747,-547.92 880,-547.92 880,-568.67"/>
<text xml:space="preserve" text-anchor="middle" x="813.5" y="-555.17" font-family="Helvetica,sans-Serif" font-size="10.00">_MTR_MotorHandleImpl</text>
</a>
</g>
</g>
<!-- Node2&#45;&gt;Node1 -->
<g id="edge1_Node000001_Node000002" class="edge">
<title>Node2&#45;&gt;Node1</title>
<g id="a_edge1_Node000001_Node000002"><a xlink:title=" ">
<path fill="none" stroke="#9a32cd" stroke-dasharray="5,2" d="M891.47,-569.59C1006.2,-584.69 1214.91,-604.93 1274,-562.3 1351.11,-506.65 1354.49,-373.04 1353.76,-334.11"/>
<polygon fill="#9a32cd" stroke="#9a32cd" points="892.2,-566.16 881.83,-568.3 891.28,-573.1 892.2,-566.16"/>
</a>
</g>
<text xml:space="preserve" text-anchor="start" x="1038.38" y="-593.85" font-family="Helvetica,sans-Serif" font-size="10.00" fill="grey">handle</text>
</g>
<!-- Node14 -->
<g id="Node000014" class="node">
<title>Node14</title>
<g id="a_Node000014"><a xlink:href="struct__MTR__SynchronizedMoveCmdData.html" target="_top" xlink:title=" ">
<polygon fill="white" stroke="#666666" points="1148,-540.67 961.75,-540.67 961.75,-519.92 1148,-519.92 1148,-540.67"/>
<text xml:space="preserve" text-anchor="middle" x="1054.88" y="-527.17" font-family="Helvetica,sans-Serif" font-size="10.00">_MTR_SynchronizedMoveCmdData</text>
</a>
</g>
</g>
<!-- Node2&#45;&gt;Node14 -->
<g id="edge15_Node000014_Node000002" class="edge">
<title>Node2&#45;&gt;Node14</title>
<g id="a_edge15_Node000014_Node000002"><a xlink:title=" ">
<path fill="none" stroke="#9a32cd" stroke-dasharray="5,2" d="M882.99,-545.69C888.06,-544.91 893.11,-544.19 898,-543.55 918.47,-540.88 940.52,-538.62 961.41,-536.78"/>
<polygon fill="#9a32cd" stroke="#9a32cd" points="882.71,-542.19 873.38,-547.22 883.81,-549.1 882.71,-542.19"/>
</a>
</g>
<text xml:space="preserve" text-anchor="start" x="901" y="-549.55" font-family="Helvetica,sans-Serif" font-size="10.00" fill="grey">handles</text>
</g>
<!-- Node3 -->
<g id="Node000003" class="node">
<title>Node3</title>
<g id="a_Node000003"><a xlink:href="struct__STP__StepperHandleImpl.html" target="_top" xlink:title="Handle structure for a stepper motor instance.">
<polygon fill="white" stroke="#666666" points="630.38,-591.67 492.12,-591.67 492.12,-570.92 630.38,-570.92 630.38,-591.67"/>
<text xml:space="preserve" text-anchor="middle" x="561.25" y="-578.17" font-family="Helvetica,sans-Serif" font-size="10.00">_STP_StepperHandleImpl</text>
</a>
</g>
</g>
<!-- Node3&#45;&gt;Node2 -->
<g id="edge2_Node000002_Node000003" class="edge">
<title>Node3&#45;&gt;Node2</title>
<g id="a_edge2_Node000002_Node000003"><a xlink:title=" ">
<path fill="none" stroke="#9a32cd" stroke-dasharray="5,2" d="M641.89,-573.98C675.7,-570.87 714.65,-567.29 746.79,-564.34"/>
<polygon fill="#9a32cd" stroke="#9a32cd" points="641.78,-570.47 632.14,-574.87 642.42,-577.44 641.78,-570.47"/>
</a>
</g>
<text xml:space="preserve" text-anchor="start" x="654.75" y="-578.53" font-family="Helvetica,sans-Serif" font-size="10.00" fill="grey">stepperHandle</text>
</g>
<!-- Node4 -->
<g id="Node000004" class="node">
<title>Node4</title>
<g id="a_Node000004"><a xlink:href="struct__STP__StepperMovement.html" target="_top" xlink:title="Structure for tracking stepper motor movement state and parameters.">
<polygon fill="white" stroke="#666666" points="359,-594.67 224.5,-594.67 224.5,-573.92 359,-573.92 359,-594.67"/>
<text xml:space="preserve" text-anchor="middle" x="291.75" y="-581.17" font-family="Helvetica,sans-Serif" font-size="10.00">_STP_StepperMovement</text>
</a>
</g>
</g>
<!-- Node4&#45;&gt;Node3 -->
<g id="edge3_Node000003_Node000004" class="edge">
<title>Node4&#45;&gt;Node3</title>
<g id="a_edge3_Node000003_Node000004"><a xlink:title=" ">
<path fill="none" stroke="#9a32cd" stroke-dasharray="5,2" d="M370.35,-583.43C408.76,-583 454.71,-582.48 491.8,-582.07"/>
<polygon fill="#9a32cd" stroke="#9a32cd" points="370.69,-579.92 360.73,-583.54 370.77,-586.92 370.69,-579.92"/>
</a>
</g>
<text xml:space="preserve" text-anchor="start" x="380" y="-589.33" font-family="Helvetica,sans-Serif" font-size="10.00" fill="grey">movementHandle</text>
</g>
<!-- Node5 -->
<g id="Node000005" class="node">
<title>Node5</title>
<g id="a_Node000005"><a xlink:href="struct__CHD__CmdHandleImpl.html" target="_top" xlink:title=" ">
<polygon fill="white" stroke="#666666" points="127,-614.67 0,-614.67 0,-593.92 127,-593.92 127,-614.67"/>
<text xml:space="preserve" text-anchor="middle" x="63.5" y="-601.17" font-family="Helvetica,sans-Serif" font-size="10.00">_CHD_CmdHandleImpl</text>
</a>
</g>
</g>
<!-- Node5&#45;&gt;Node1 -->
<g id="edge6_Node000001_Node000005" class="edge">
<title>Node5&#45;&gt;Node1</title>
<g id="a_edge6_Node000001_Node000005"><a xlink:title=" ">
<path fill="none" stroke="#9a32cd" stroke-dasharray="5,2" d="M138.5,-613.66C182.63,-618.46 239.8,-623.3 290.75,-623.3 290.75,-623.3 290.75,-623.3 1055.88,-623.3 1079.82,-623.3 1272.91,-589.26 1274,-588.3 1352.83,-518.67 1354.88,-374.24 1353.82,-333.94"/>
<polygon fill="#9a32cd" stroke="#9a32cd" points="139.12,-610.21 128.79,-612.58 138.34,-617.16 139.12,-610.21"/>
</a>
</g>
<text xml:space="preserve" text-anchor="start" x="662.62" y="-629.3" font-family="Helvetica,sans-Serif" font-size="10.00" fill="grey">cmdHandle</text>
</g>
<!-- Node5&#45;&gt;Node4 -->
<g id="edge4_Node000004_Node000005" class="edge">
<title>Node5&#45;&gt;Node4</title>
<g id="a_edge4_Node000004_Node000005"><a xlink:title=" ">
<path fill="none" stroke="#9a32cd" stroke-dasharray="5,2" d="M134.02,-591.86C137.73,-591.37 141.4,-590.93 145,-590.55 170.81,-587.8 199.32,-586.25 224.23,-585.38"/>
<polygon fill="#9a32cd" stroke="#9a32cd" points="133.77,-588.36 124.35,-593.23 134.75,-595.29 133.77,-588.36"/>
</a>
</g>
<text xml:space="preserve" text-anchor="start" x="148" y="-596.55" font-family="Helvetica,sans-Serif" font-size="10.00" fill="grey">cmdHandle</text>
</g>
<!-- Node6 -->
<g id="Node000006" class="node">
<title>Node6</title>
<g id="a_Node000006"><a xlink:href="struct__TMC__HandleImpl.html" target="_top" xlink:title=" ">
<polygon fill="white" stroke="#666666" points="613.5,-549.67 509,-549.67 509,-528.92 613.5,-528.92 613.5,-549.67"/>
<text xml:space="preserve" text-anchor="middle" x="561.25" y="-536.17" font-family="Helvetica,sans-Serif" font-size="10.00">_TMC_HandleImpl</text>
</a>
</g>
</g>
<!-- Node6&#45;&gt;Node2 -->
<g id="edge5_Node000002_Node000006" class="edge">
<title>Node6&#45;&gt;Node2</title>
<g id="a_edge5_Node000002_Node000006"><a xlink:title=" ">
<path fill="none" stroke="#9a32cd" stroke-dasharray="5,2" d="M625.06,-536.78C656.38,-536.29 694.78,-536.82 729,-540.55 742.41,-542.01 756.83,-544.67 769.86,-547.5"/>
<polygon fill="#9a32cd" stroke="#9a32cd" points="625.3,-533.28 615.37,-536.98 625.44,-540.28 625.3,-533.28"/>
</a>
</g>
<text xml:space="preserve" text-anchor="start" x="663.75" y="-546.55" font-family="Helvetica,sans-Serif" font-size="10.00" fill="grey">tmcHandle</text>
</g>
<!-- Node7 -->
<g id="Node000007" class="node">
<title>Node7</title>
<g id="a_Node000007"><a xlink:href="struct__MTR__MoveAngleCmdData.html" target="_top" xlink:title=" ">
<polygon fill="white" stroke="#666666" points="1129.25,-501.67 980.5,-501.67 980.5,-480.92 1129.25,-480.92 1129.25,-501.67"/>
<text xml:space="preserve" text-anchor="middle" x="1054.88" y="-488.17" font-family="Helvetica,sans-Serif" font-size="10.00">_MTR_MoveAngleCmdData</text>
</a>
</g>
</g>
<!-- Node7&#45;&gt;Node1 -->
<g id="edge7_Node000001_Node000007" class="edge">
<title>Node7&#45;&gt;Node1</title>
<g id="a_edge7_Node000001_Node000007"><a xlink:title=" ">
<path fill="none" stroke="#9a32cd" stroke-dasharray="5,2" d="M1140.76,-490.33C1192.42,-488.23 1252.48,-482.63 1274,-468.3 1323.21,-435.53 1344.62,-361.61 1351.11,-333.98"/>
<polygon fill="#9a32cd" stroke="#9a32cd" points="1140.92,-486.82 1131.06,-490.68 1141.18,-493.81 1140.92,-486.82"/>
</a>
</g>
<text xml:space="preserve" text-anchor="start" x="1193" y="-494.92" font-family="Helvetica,sans-Serif" font-size="10.00" fill="grey">moveAngle</text>
</g>
<!-- Node8 -->
<g id="Node000008" class="node">
<title>Node8</title>
<g id="a_Node000008"><a xlink:href="struct__MTR__MoveRevolutionsCmdData.html" target="_top" xlink:title=" ">
<polygon fill="white" stroke="#666666" points="1144.25,-459.67 965.5,-459.67 965.5,-438.92 1144.25,-438.92 1144.25,-459.67"/>
<text xml:space="preserve" text-anchor="middle" x="1054.88" y="-446.17" font-family="Helvetica,sans-Serif" font-size="10.00">_MTR_MoveRevolutionsCmdData</text>
</a>
</g>
</g>
<!-- Node8&#45;&gt;Node1 -->
<g id="edge8_Node000001_Node000008" class="edge">
<title>Node8&#45;&gt;Node1</title>
<g id="a_edge8_Node000001_Node000008"><a xlink:title=" ">
<path fill="none" stroke="#9a32cd" stroke-dasharray="5,2" d="M1155.97,-446.3C1203.26,-443.38 1253.73,-437.63 1274,-426.3 1312.63,-404.71 1338.63,-355.8 1348.7,-334.06"/>
<polygon fill="#9a32cd" stroke="#9a32cd" points="1155.97,-442.8 1146.18,-446.86 1156.37,-449.79 1155.97,-442.8"/>
</a>
</g>
<text xml:space="preserve" text-anchor="start" x="1178" y="-451.14" font-family="Helvetica,sans-Serif" font-size="10.00" fill="grey">moveRevolutions</text>
</g>
<!-- Node9 -->
<g id="Node000009" class="node">
<title>Node9</title>
<g id="a_Node000009"><a xlink:href="struct__MTR__SetVelocityCmdData.html" target="_top" xlink:title=" ">
<polygon fill="white" stroke="#666666" points="1129.25,-417.67 980.5,-417.67 980.5,-396.92 1129.25,-396.92 1129.25,-417.67"/>
<text xml:space="preserve" text-anchor="middle" x="1054.88" y="-404.17" font-family="Helvetica,sans-Serif" font-size="10.00">_MTR_SetVelocityCmdData</text>
</a>
</g>
</g>
<!-- Node9&#45;&gt;Node1 -->
<g id="edge9_Node000001_Node000009" class="edge">
<title>Node9&#45;&gt;Node1</title>
<g id="a_edge9_Node000001_Node000009"><a xlink:title=" ">
<path fill="none" stroke="#9a32cd" stroke-dasharray="5,2" d="M1140.94,-405.91C1182.27,-402.88 1231.96,-395.65 1274,-379.3 1301.03,-368.78 1327.57,-347.12 1342.08,-334.03"/>
<polygon fill="#9a32cd" stroke="#9a32cd" points="1140.78,-402.42 1131.03,-406.56 1141.24,-409.4 1140.78,-402.42"/>
</a>
</g>
<text xml:space="preserve" text-anchor="start" x="1193.75" y="-409.25" font-family="Helvetica,sans-Serif" font-size="10.00" fill="grey">setVelocity</text>
</g>
<!-- Node10 -->
<g id="Node000010" class="node">
<title>Node10</title>
<g id="a_Node000010"><a xlink:href="struct__MTR__SetAccelerationCmdData.html" target="_top" xlink:title=" ">
<polygon fill="white" stroke="#666666" points="1140.12,-375.67 969.62,-375.67 969.62,-354.92 1140.12,-354.92 1140.12,-375.67"/>
<text xml:space="preserve" text-anchor="middle" x="1054.88" y="-362.17" font-family="Helvetica,sans-Serif" font-size="10.00">_MTR_SetAccelerationCmdData</text>
</a>
</g>
</g>
<!-- Node10&#45;&gt;Node1 -->
<g id="edge10_Node000001_Node000010" class="edge">
<title>Node10&#45;&gt;Node1</title>
<g id="a_edge10_Node000001_Node000010"><a xlink:title=" ">
<path fill="none" stroke="#9a32cd" stroke-dasharray="5,2" d="M1151.57,-358.7C1189.82,-355.26 1234.16,-350.29 1274,-343.3 1287.58,-340.92 1302.26,-337.47 1315.26,-334.1"/>
<polygon fill="#9a32cd" stroke="#9a32cd" points="1151.6,-355.18 1141.94,-359.54 1152.2,-362.15 1151.6,-355.18"/>
</a>
</g>
<text xml:space="preserve" text-anchor="start" x="1182.88" y="-362.68" font-family="Helvetica,sans-Serif" font-size="10.00" fill="grey">setAcceleration</text>
</g>
<!-- Node11 -->
<g id="Node000011" class="node">
<title>Node11</title>
<g id="a_Node000011"><a xlink:href="struct__MTR__StopCmdData.html" target="_top" xlink:title=" ">
<polygon fill="white" stroke="#666666" points="1112.75,-333.67 997,-333.67 997,-312.92 1112.75,-312.92 1112.75,-333.67"/>
<text xml:space="preserve" text-anchor="middle" x="1054.88" y="-320.17" font-family="Helvetica,sans-Serif" font-size="10.00">_MTR_StopCmdData</text>
</a>
</g>
</g>
<!-- Node11&#45;&gt;Node1 -->
<g id="edge11_Node000001_Node000011" class="edge">
<title>Node11&#45;&gt;Node1</title>
<g id="a_edge11_Node000001_Node000011"><a xlink:title=" ">
<path fill="none" stroke="#9a32cd" stroke-dasharray="5,2" d="M1124.68,-323.3C1175.08,-323.3 1242.9,-323.3 1291.57,-323.3"/>
<polygon fill="#9a32cd" stroke="#9a32cd" points="1124.75,-319.8 1114.75,-323.3 1124.75,-326.8 1124.75,-319.8"/>
</a>
</g>
<text xml:space="preserve" text-anchor="start" x="1210.25" y="-329.3" font-family="Helvetica,sans-Serif" font-size="10.00" fill="grey">stop</text>
</g>
<!-- Node12 -->
<g id="Node000012" class="node">
<title>Node12</title>
<g id="a_Node000012"><a xlink:href="struct__MTR__GetCurrentAngleCmdData.html" target="_top" xlink:title=" ">
<polygon fill="white" stroke="#666666" points="1142.38,-291.67 967.38,-291.67 967.38,-270.92 1142.38,-270.92 1142.38,-291.67"/>
<text xml:space="preserve" text-anchor="middle" x="1054.88" y="-278.17" font-family="Helvetica,sans-Serif" font-size="10.00">_MTR_GetCurrentAngleCmdData</text>
</a>
</g>
</g>
<!-- Node12&#45;&gt;Node1 -->
<g id="edge12_Node000001_Node000012" class="edge">
<title>Node12&#45;&gt;Node1</title>
<g id="a_edge12_Node000001_Node000012"><a xlink:title=" ">
<path fill="none" stroke="#9a32cd" stroke-dasharray="5,2" d="M1153.66,-285.93C1191.47,-288.76 1234.96,-293.3 1274,-300.55 1289.64,-303.45 1306.65,-308.12 1320.88,-312.47"/>
<polygon fill="#9a32cd" stroke="#9a32cd" points="1154.37,-282.47 1144.15,-285.25 1153.87,-289.45 1154.37,-282.47"/>
</a>
</g>
<text xml:space="preserve" text-anchor="start" x="1181" y="-306.55" font-family="Helvetica,sans-Serif" font-size="10.00" fill="grey">getCurrentAngle</text>
</g>
<!-- Node13 -->
<g id="Node000013" class="node">
<title>Node13</title>
<g id="a_Node000013"><a xlink:href="struct__MTR__GetMovementStateCmdData.html" target="_top" xlink:title=" ">
<polygon fill="white" stroke="#666666" points="1149.5,-249.67 960.25,-249.67 960.25,-228.92 1149.5,-228.92 1149.5,-249.67"/>
<text xml:space="preserve" text-anchor="middle" x="1054.88" y="-236.17" font-family="Helvetica,sans-Serif" font-size="10.00">_MTR_GetMovementStateCmdData</text>
</a>
</g>
</g>
<!-- Node13&#45;&gt;Node1 -->
<g id="edge13_Node000001_Node000013" class="edge">
<title>Node13&#45;&gt;Node1</title>
<g id="a_edge13_Node000001_Node000013"><a xlink:title=" ">
<path fill="none" stroke="#9a32cd" stroke-dasharray="5,2" d="M1161,-240.43C1197.76,-243.67 1238.66,-250.59 1274,-264.55 1301.75,-275.51 1328.44,-298.71 1342.7,-312.45"/>
<polygon fill="#9a32cd" stroke="#9a32cd" points="1161.49,-236.96 1151.24,-239.66 1160.94,-243.93 1161.49,-236.96"/>
</a>
</g>
<text xml:space="preserve" text-anchor="start" x="1173.88" y="-270.55" font-family="Helvetica,sans-Serif" font-size="10.00" fill="grey">getMovementState</text>
</g>
<!-- Node14&#45;&gt;Node1 -->
<g id="edge14_Node000001_Node000014" class="edge">
<title>Node14&#45;&gt;Node1</title>
<g id="a_edge14_Node000001_Node000014"><a xlink:title=" ">
<path fill="none" stroke="#9a32cd" stroke-dasharray="5,2" d="M1131.45,-542.04C1176.85,-544.94 1233.48,-540.78 1274,-511.3 1334.73,-467.1 1349.31,-367.18 1352.53,-334.13"/>
<polygon fill="#9a32cd" stroke="#9a32cd" points="1131.91,-538.56 1121.67,-541.27 1131.37,-545.54 1131.91,-538.56"/>
</a>
</g>
<text xml:space="preserve" text-anchor="start" x="1175" y="-548.54" font-family="Helvetica,sans-Serif" font-size="10.00" fill="grey">synchronizedMove</text>
</g>
<!-- Node15 -->
<g id="Node000015" class="node">
<title>Node15</title>
<g id="a_Node000015"><a xlink:href="struct__MTR__SetRunCurrentCmdData.html" target="_top" xlink:title=" ">
<polygon fill="white" stroke="#666666" points="1137.12,-207.67 972.62,-207.67 972.62,-186.92 1137.12,-186.92 1137.12,-207.67"/>
<text xml:space="preserve" text-anchor="middle" x="1054.88" y="-194.17" font-family="Helvetica,sans-Serif" font-size="10.00">_MTR_SetRunCurrentCmdData</text>
</a>
</g>
</g>
<!-- Node15&#45;&gt;Node1 -->
<g id="edge16_Node000001_Node000015" class="edge">
<title>Node15&#45;&gt;Node1</title>
<g id="a_edge16_Node000001_Node000015"><a xlink:title=" ">
<path fill="none" stroke="#9a32cd" stroke-dasharray="5,2" d="M1148.77,-190.14C1189.48,-190.96 1236.43,-197.55 1274,-218.55 1313.24,-240.48 1339.09,-290.69 1348.92,-312.67"/>
<polygon fill="#9a32cd" stroke="#9a32cd" points="1149,-186.64 1138.98,-190.07 1148.95,-193.64 1149,-186.64"/>
</a>
</g>
<text xml:space="preserve" text-anchor="start" x="1185.88" y="-224.55" font-family="Helvetica,sans-Serif" font-size="10.00" fill="grey">setRunCurrent</text>
</g>
<!-- Node16 -->
<g id="Node000016" class="node">
<title>Node16</title>
<g id="a_Node000016"><a xlink:href="struct__MTR__SetHoldCurrentCmdData.html" target="_top" xlink:title=" ">
<polygon fill="white" stroke="#666666" points="1139,-165.67 970.75,-165.67 970.75,-144.92 1139,-144.92 1139,-165.67"/>
<text xml:space="preserve" text-anchor="middle" x="1054.88" y="-152.17" font-family="Helvetica,sans-Serif" font-size="10.00">_MTR_SetHoldCurrentCmdData</text>
</a>
</g>
</g>
<!-- Node16&#45;&gt;Node1 -->
<g id="edge17_Node000001_Node000016" class="edge">
<title>Node16&#45;&gt;Node1</title>
<g id="a_edge17_Node000001_Node000016"><a xlink:title=" ">
<path fill="none" stroke="#9a32cd" stroke-dasharray="5,2" d="M1122.13,-143.11C1168.36,-138.25 1229.5,-139.47 1274,-168.55 1326.58,-202.9 1346.12,-283.59 1351.59,-312.64"/>
<polygon fill="#9a32cd" stroke="#9a32cd" points="1121.74,-139.63 1112.22,-144.29 1122.57,-146.58 1121.74,-139.63"/>
</a>
</g>
<text xml:space="preserve" text-anchor="start" x="1184" y="-174.55" font-family="Helvetica,sans-Serif" font-size="10.00" fill="grey">setHoldCurrent</text>
</g>
<!-- Node17 -->
<g id="Node000017" class="node">
<title>Node17</title>
<g id="a_Node000017"><a xlink:href="struct__MTR__InitMotorCmdData.html" target="_top" xlink:title=" ">
<polygon fill="white" stroke="#666666" points="1124,-126.67 985.75,-126.67 985.75,-105.92 1124,-105.92 1124,-126.67"/>
<text xml:space="preserve" text-anchor="middle" x="1054.88" y="-113.17" font-family="Helvetica,sans-Serif" font-size="10.00">_MTR_InitMotorCmdData</text>
</a>
</g>
</g>
<!-- Node17&#45;&gt;Node1 -->
<g id="edge18_Node000001_Node000017" class="edge">
<title>Node17&#45;&gt;Node1</title>
<g id="a_edge18_Node000001_Node000017"><a xlink:title=" ">
<path fill="none" stroke="#9a32cd" stroke-dasharray="5,2" d="M1135.72,-108.01C1188.61,-104.2 1252.14,-103.41 1274,-118.55 1341.39,-165.21 1351.57,-277.91 1353.1,-312.82"/>
<polygon fill="#9a32cd" stroke="#9a32cd" points="1135.48,-104.51 1125.78,-108.77 1136.01,-111.49 1135.48,-104.51"/>
</a>
</g>
<text xml:space="preserve" text-anchor="start" x="1198.62" y="-124.55" font-family="Helvetica,sans-Serif" font-size="10.00" fill="grey">initMotor</text>
</g>
<!-- Node18 -->
<g id="Node000018" class="node">
<title>Node18</title>
<g id="a_Node000018"><a xlink:href="struct__MTR__MotorConfig.html" target="_top" xlink:title="Configuration structure for initializing one motor instance.">
<polygon fill="white" stroke="#666666" points="867.25,-126.67 759.75,-126.67 759.75,-105.92 867.25,-105.92 867.25,-126.67"/>
<text xml:space="preserve" text-anchor="middle" x="813.5" y="-113.17" font-family="Helvetica,sans-Serif" font-size="10.00">_MTR_MotorConfig</text>
</a>
</g>
</g>
<!-- Node18&#45;&gt;Node17 -->
<g id="edge19_Node000017_Node000018" class="edge">
<title>Node18&#45;&gt;Node17</title>
<g id="a_edge19_Node000017_Node000018"><a xlink:title=" ">
<path fill="none" stroke="#9a32cd" stroke-dasharray="5,2" d="M878.95,-116.3C911.88,-116.3 951.94,-116.3 985.42,-116.3"/>
<polygon fill="#9a32cd" stroke="#9a32cd" points="879.14,-112.8 869.14,-116.3 879.14,-119.8 879.14,-112.8"/>
</a>
</g>
<text xml:space="preserve" text-anchor="start" x="905.5" y="-122.3" font-family="Helvetica,sans-Serif" font-size="10.00" fill="grey">config</text>
</g>
<!-- Node19 -->
<g id="Node000019" class="node">
<title>Node19</title>
<g id="a_Node000019"><a xlink:href="struct__MTR__MotorTmcConfig.html" target="_top" xlink:title="TMC2209&#45;related configuration values for one motor.">
<polygon fill="white" stroke="#666666" points="625.5,-147.67 497,-147.67 497,-126.92 625.5,-126.92 625.5,-147.67"/>
<text xml:space="preserve" text-anchor="middle" x="561.25" y="-134.17" font-family="Helvetica,sans-Serif" font-size="10.00">_MTR_MotorTmcConfig</text>
</a>
</g>
</g>
<!-- Node19&#45;&gt;Node18 -->
<g id="edge20_Node000018_Node000019" class="edge">
<title>Node19&#45;&gt;Node18</title>
<g id="a_edge20_Node000018_Node000019"><a xlink:title=" ">
<path fill="none" stroke="#9a32cd" stroke-dasharray="5,2" d="M637.16,-131.01C676.62,-127.7 724.07,-123.72 759.66,-120.73"/>
<polygon fill="#9a32cd" stroke="#9a32cd" points="636.9,-127.52 627.23,-131.85 637.49,-134.5 636.9,-127.52"/>
</a>
</g>
<text xml:space="preserve" text-anchor="start" x="665.62" y="-135.3" font-family="Helvetica,sans-Serif" font-size="10.00" fill="grey">tmcConfig</text>
</g>
<!-- Node20 -->
<g id="Node000020" class="node">
<title>Node20</title>
<g id="a_Node000020"><a xlink:href="struct__MTR__MotorStepperConfig.html" target="_top" xlink:title="Step&#45;generation hardware configuration for one motor.">
<polygon fill="white" stroke="#666666" points="633.75,-105.67 488.75,-105.67 488.75,-84.92 633.75,-84.92 633.75,-105.67"/>
<text xml:space="preserve" text-anchor="middle" x="561.25" y="-92.17" font-family="Helvetica,sans-Serif" font-size="10.00">_MTR_MotorStepperConfig</text>
</a>
</g>
</g>
<!-- Node20&#45;&gt;Node18 -->
<g id="edge21_Node000018_Node000020" class="edge">
<title>Node20&#45;&gt;Node18</title>
<g id="a_edge21_Node000018_Node000020"><a xlink:title=" ">
<path fill="none" stroke="#9a32cd" stroke-dasharray="5,2" d="M645.5,-95.39C672.22,-96.09 701.92,-97.59 729,-100.55 739.71,-101.72 751.09,-103.5 761.91,-105.46"/>
<polygon fill="#9a32cd" stroke="#9a32cd" points="645.83,-91.89 635.75,-95.17 645.67,-98.89 645.83,-91.89"/>
</a>
</g>
<text xml:space="preserve" text-anchor="start" x="656.62" y="-106.55" font-family="Helvetica,sans-Serif" font-size="10.00" fill="grey">stepperConfig</text>
</g>
<!-- Node21 -->
<g id="Node000021" class="node">
<title>Node21</title>
<g id="a_Node000021"><a xlink:href="struct__MTR__EnableFreewheellingCmdData.html" target="_top" xlink:title=" ">
<polygon fill="white" stroke="#666666" points="1129.62,-88.05 980.12,-88.05 980.12,-54.55 1129.62,-54.55 1129.62,-88.05"/>
<text xml:space="preserve" text-anchor="start" x="988.12" y="-74.55" font-family="Helvetica,sans-Serif" font-size="10.00">_MTR_EnableFreewheelling</text>
<text xml:space="preserve" text-anchor="middle" x="1054.88" y="-61.8" font-family="Helvetica,sans-Serif" font-size="10.00">CmdData</text>
</a>
</g>
</g>
<!-- Node21&#45;&gt;Node1 -->
<g id="edge22_Node000001_Node000021" class="edge">
<title>Node21&#45;&gt;Node1</title>
<g id="a_edge22_Node000001_Node000021"><a xlink:title=" ">
<path fill="none" stroke="#9a32cd" stroke-dasharray="5,2" d="M1141.26,-54.34C1185.09,-50.55 1236.91,-54.24 1274,-82.55 1350.09,-140.62 1354.18,-273.8 1353.69,-312.54"/>
<polygon fill="#9a32cd" stroke="#9a32cd" points="1141.11,-50.84 1131.52,-55.34 1141.82,-57.8 1141.11,-50.84"/>
</a>
</g>
<text xml:space="preserve" text-anchor="start" x="1171.62" y="-88.55" font-family="Helvetica,sans-Serif" font-size="10.00" fill="grey">enableFreewheeling</text>
</g>
<!-- Node22 -->
<g id="Node000022" class="node">
<title>Node22</title>
<g id="a_Node000022"><a xlink:href="struct__MTR__DisableFreewheellingCmdData.html" target="_top" xlink:title=" ">
<polygon fill="white" stroke="#666666" points="1131.5,-36.05 978.25,-36.05 978.25,-2.55 1131.5,-2.55 1131.5,-36.05"/>
<text xml:space="preserve" text-anchor="start" x="986.25" y="-22.55" font-family="Helvetica,sans-Serif" font-size="10.00">_MTR_DisableFreewheelling</text>
<text xml:space="preserve" text-anchor="middle" x="1054.88" y="-9.8" font-family="Helvetica,sans-Serif" font-size="10.00">CmdData</text>
</a>
</g>
</g>
<!-- Node22&#45;&gt;Node1 -->
<g id="edge23_Node000001_Node000022" class="edge">
<title>Node22&#45;&gt;Node1</title>
<g id="a_edge23_Node000001_Node000022"><a xlink:title=" ">
<path fill="none" stroke="#9a32cd" stroke-dasharray="5,2" d="M1143.12,-1.43C1186.86,2.41 1238.03,-1.53 1274,-30.55 1319.91,-67.58 1346.25,-263.94 1352.12,-312.45"/>
<polygon fill="#9a32cd" stroke="#9a32cd" points="1142.97,2.07 1133.39,-2.45 1143.7,-4.89 1142.97,2.07"/>
</a>
</g>
<text xml:space="preserve" text-anchor="start" x="1170.5" y="-36.55" font-family="Helvetica,sans-Serif" font-size="10.00" fill="grey">disableFreewheeling</text>
</g>
</g>
</svg>
