<?xml version="1.0" encoding="UTF-8" standalone="no"?>
<!DOCTYPE svg PUBLIC "-//W3C//DTD SVG 1.1//EN"
 "http://www.w3.org/Graphics/SVG/1.1/DTD/svg11.dtd">
<!-- Generated by graphviz version 14.1.5 (0)
 -->
<!-- Title: _SK_CmdQueueItem Pages: 1 -->
<!--zoomable 297 -->

<svg id="main" version="1.1" xmlns="http://www.w3.org/2000/svg" xmlns:xlink="http://www.w3.org/1999/xlink" xml:space="preserve" onload="init(evt)">

<style type="text/css"><![CDATA[
.node, .edge {opacity: 0.7;}
.node.selected, .edge.selected {opacity: 1;}
.edge:hover path { stroke: red; }
.edge:hover polygon { stroke: red; fill: red; }
]]></style>

<defs>
  <circle id="rim" cx="0" cy="0" r="7"/>
  <circle id="rim2" cx="0" cy="0" r="3.5"/>
  <g id="zoomPlus">
    <use xlink:href="#rim" fill="#404040"><set attributeName="fill" to="#808080" begin="zoomplus.mouseover" end="zoomplus.mouseout"/></use>
    <path d="M-4,0h8M0,-4v8" fill="none" stroke="white" stroke-width="1.5" pointer-events="none"/>
  </g>
  <g id="zoomMin">
    <use xlink:href="#rim" fill="#404040"><set attributeName="fill" to="#808080" begin="zoomminus.mouseover" end="zoomminus.mouseout"/></use>
    <path d="M-4,0h8" fill="none" stroke="white" stroke-width="1.5" pointer-events="none"/>
  </g>
  <g id="arrowUp" transform="translate(30 24)">
    <use xlink:href="#rim"/>
    <path pointer-events="none" fill="none" stroke="white" stroke-width="1.5" d="M0,-3.0v7 M-2.5,-0.5L0,-3.0L2.5,-0.5"/>
  </g>
  <g id="arrowRight" transform="rotate(90) translate(36 -43)">
    <use xlink:href="#rim"/>
    <path pointer-events="none" fill="none" stroke="white" stroke-width="1.5" d="M0,-3.0v7 M-2.5,-0.5L0,-3.0L2.5,-0.5"/>
  </g>
  <g id="arrowDown" transform="rotate(180) translate(-30 -48)">
    <use xlink:href="#rim"/>
    <path pointer-events="none" fill="none" stroke="white" stroke-width="1.5" d="M0,-3.0v7 M-2.5,-0.5L0,-3.0L2.5,-0.5"/>
  </g>
  <g id="arrowLeft" transform="rotate(270) translate(-36 17)">
    <use xlink:href="#rim"/>
    <path pointer-events="none" fill="none" stroke="white" stroke-width="1.5" d="M0,-3.0v7 M-2.5,-0.5L0,-3.0L2.5,-0.5"/>
  </g>
  <g id="resetDef">
    <use xlink:href="#rim2" fill="#404040"><set attributeName="fill" to="#808080" begin="reset.mouseover" end="reset.mouseout"/></use>
  </g>
</defs>
<script type="application/ecmascript">
var viewWidth = 887;
var viewHeight = 297;
var sectionId = 'dynsection-0';
</script>
<script type="application/ecmascript" xlink:href="svg.min.js"/>
<svg id="graph" class="graph">
<g id="viewport">
<title>_SK_CmdQueueItem</title>
<!-- Node1 -->
<g id="Node000001" class="node">
<title>Node1</title>
<g id="a_Node000001"><a xlink:title=" ">
<polygon fill="#999999" stroke="#666666" points="878.5,-146.75 762.75,-146.75 762.75,-126 878.5,-126 878.5,-146.75"/>
<text xml:space="preserve" text-anchor="middle" x="820.62" y="-133.25" font-family="Helvetica,sans-Serif" font-size="10.00">_SK_CmdQueueItem</text>
</a>
</g>
</g>
<!-- Node2 -->
<g id="Node000002" class="node">
<title>Node2</title>
<g id="a_Node000002"><a xlink:href="struct__CHD__CmdHandleImpl.html" target="_top" xlink:title=" ">
<polygon fill="white" stroke="#666666" points="578.62,-272.75 451.62,-272.75 451.62,-252 578.62,-252 578.62,-272.75"/>
<text xml:space="preserve" text-anchor="middle" x="515.12" y="-259.25" font-family="Helvetica,sans-Serif" font-size="10.00">_CHD_CmdHandleImpl</text>
</a>
</g>
</g>
<!-- Node2&#45;&gt;Node1 -->
<g id="edge1_Node000001_Node000002" class="edge">
<title>Node2&#45;&gt;Node1</title>
<g id="a_edge1_Node000001_Node000002"><a xlink:title=" ">
<path fill="none" stroke="#9a32cd" stroke-dasharray="5,2" d="M590.4,-270.27C637.57,-271.8 698.27,-267.07 744.75,-240.38 782.76,-218.55 806.61,-168.73 815.58,-146.92"/>
<polygon fill="#9a32cd" stroke="#9a32cd" points="590.68,-266.78 580.53,-269.83 590.37,-273.77 590.68,-266.78"/>
</a>
</g>
<text xml:space="preserve" text-anchor="start" x="655.88" y="-276.08" font-family="Helvetica,sans-Serif" font-size="10.00" fill="grey">cmdHandle</text>
</g>
<!-- Node3 -->
<g id="Node000003" class="node">
<title>Node3</title>
<g id="a_Node000003"><a xlink:href="struct__SK__SetTransformData.html" target="_top" xlink:title=" ">
<polygon fill="white" stroke="#666666" points="578.62,-230.75 451.62,-230.75 451.62,-210 578.62,-210 578.62,-230.75"/>
<text xml:space="preserve" text-anchor="middle" x="515.12" y="-217.25" font-family="Helvetica,sans-Serif" font-size="10.00">_SK_SetTransformData</text>
</a>
</g>
</g>
<!-- Node3&#45;&gt;Node1 -->
<g id="edge2_Node000001_Node000003" class="edge">
<title>Node3&#45;&gt;Node1</title>
<g id="a_edge2_Node000001_Node000003"><a xlink:title=" ">
<path fill="none" stroke="#9a32cd" stroke-dasharray="5,2" d="M590.4,-221.97C636.38,-220.55 695.8,-214.28 744.75,-194.38 771.25,-183.6 796.32,-160.68 809.66,-147.1"/>
<polygon fill="#9a32cd" stroke="#9a32cd" points="590.44,-218.47 580.52,-222.2 590.6,-225.47 590.44,-218.47"/>
</a>
</g>
<text xml:space="preserve" text-anchor="start" x="651.75" y="-226.17" font-family="Helvetica,sans-Serif" font-size="10.00" fill="grey">setTransform</text>
</g>
<!-- Node4 -->
<g id="Node000004" class="node">
<title>Node4</title>
<g id="a_Node000004"><a xlink:href="struct__SK__Transform.html" target="_top" xlink:title="Coordinate transformation parameters for workspace scaling and offset.">
<polygon fill="white" stroke="#666666" points="312.5,-230.75 224.5,-230.75 224.5,-210 312.5,-210 312.5,-230.75"/>
<text xml:space="preserve" text-anchor="middle" x="268.5" y="-217.25" font-family="Helvetica,sans-Serif" font-size="10.00">_SK_Transform</text>
</a>
</g>
</g>
<!-- Node4&#45;&gt;Node3 -->
<g id="edge3_Node000003_Node000004" class="edge">
<title>Node4&#45;&gt;Node3</title>
<g id="a_edge3_Node000003_Node000004"><a xlink:title=" ">
<path fill="none" stroke="#9a32cd" stroke-dasharray="5,2" d="M324.22,-220.38C361.88,-220.38 412.02,-220.38 451.32,-220.38"/>
<polygon fill="#9a32cd" stroke="#9a32cd" points="324.47,-216.88 314.47,-220.38 324.47,-223.88 324.47,-216.88"/>
</a>
</g>
<text xml:space="preserve" text-anchor="start" x="353.75" y="-226.38" font-family="Helvetica,sans-Serif" font-size="10.00" fill="grey">transform</text>
</g>
<!-- Node5 -->
<g id="Node000005" class="node">
<title>Node5</title>
<g id="a_Node000005"><a xlink:href="struct__SK__SetWorkspaceLimitsData.html" target="_top" xlink:title=" ">
<polygon fill="white" stroke="#666666" points="595.88,-188.75 434.38,-188.75 434.38,-168 595.88,-168 595.88,-188.75"/>
<text xml:space="preserve" text-anchor="middle" x="515.12" y="-175.25" font-family="Helvetica,sans-Serif" font-size="10.00">_SK_SetWorkspaceLimitsData</text>
</a>
</g>
</g>
<!-- Node5&#45;&gt;Node1 -->
<g id="edge4_Node000001_Node000005" class="edge">
<title>Node5&#45;&gt;Node1</title>
<g id="a_edge4_Node000001_Node000005"><a xlink:title=" ">
<path fill="none" stroke="#9a32cd" stroke-dasharray="5,2" d="M607.52,-173.05C649.54,-169.72 699.91,-164.46 744.75,-156.38 757.73,-154.03 771.74,-150.55 784.1,-147.15"/>
<polygon fill="#9a32cd" stroke="#9a32cd" points="607.4,-169.55 597.7,-173.8 607.93,-176.53 607.4,-169.55"/>
</a>
</g>
<text xml:space="preserve" text-anchor="start" x="634.5" y="-177.43" font-family="Helvetica,sans-Serif" font-size="10.00" fill="grey">setWorkspaceLimits</text>
</g>
<!-- Node6 -->
<g id="Node000006" class="node">
<title>Node6</title>
<g id="a_Node000006"><a xlink:href="struct__SK__WorkspaceLimits.html" target="_top" xlink:title="Defines a collection of rectangular workspace limits.">
<polygon fill="white" stroke="#666666" points="329.75,-188.75 207.25,-188.75 207.25,-168 329.75,-168 329.75,-188.75"/>
<text xml:space="preserve" text-anchor="middle" x="268.5" y="-175.25" font-family="Helvetica,sans-Serif" font-size="10.00">_SK_WorkspaceLimits</text>
</a>
</g>
</g>
<!-- Node6&#45;&gt;Node5 -->
<g id="edge5_Node000005_Node000006" class="edge">
<title>Node6&#45;&gt;Node5</title>
<g id="a_edge5_Node000005_Node000006"><a xlink:title=" ">
<path fill="none" stroke="#9a32cd" stroke-dasharray="5,2" d="M341.3,-178.38C370.4,-178.38 404.14,-178.38 434.04,-178.38"/>
<polygon fill="#9a32cd" stroke="#9a32cd" points="341.48,-174.88 331.48,-178.38 341.48,-181.88 341.48,-174.88"/>
</a>
</g>
<text xml:space="preserve" text-anchor="start" x="363.88" y="-184.38" font-family="Helvetica,sans-Serif" font-size="10.00" fill="grey">limits</text>
</g>
<!-- Node7 -->
<g id="Node000007" class="node">
<title>Node7</title>
<g id="a_Node000007"><a xlink:href="struct__SK__WorkspaceRect.html" target="_top" xlink:title="Defines a rectangular region within the workspace.">
<polygon fill="white" stroke="#666666" points="114.25,-188.75 0,-188.75 0,-168 114.25,-168 114.25,-188.75"/>
<text xml:space="preserve" text-anchor="middle" x="57.12" y="-175.25" font-family="Helvetica,sans-Serif" font-size="10.00">_SK_WorkspaceRect</text>
</a>
</g>
</g>
<!-- Node7&#45;&gt;Node6 -->
<g id="edge6_Node000006_Node000007" class="edge">
<title>Node7&#45;&gt;Node6</title>
<g id="a_edge6_Node000006_Node000007"><a xlink:title=" ">
<path fill="none" stroke="#9a32cd" stroke-dasharray="5,2" d="M125.84,-178.38C151.96,-178.38 181.59,-178.38 206.98,-178.38"/>
<polygon fill="#9a32cd" stroke="#9a32cd" points="126.02,-174.88 116.02,-178.38 126.02,-181.88 126.02,-174.88"/>
</a>
</g>
<text xml:space="preserve" text-anchor="start" x="135.25" y="-184.38" font-family="Helvetica,sans-Serif" font-size="10.00" fill="grey">rectangles</text>
</g>
<!-- Node8 -->
<g id="Node000008" class="node">
<title>Node8</title>
<g id="a_Node000008"><a xlink:href="struct__SK__EnableWorkspaceLimitsData.html" target="_top" xlink:title=" ">
<polygon fill="white" stroke="#666666" points="604.5,-146.75 425.75,-146.75 425.75,-126 604.5,-126 604.5,-146.75"/>
<text xml:space="preserve" text-anchor="middle" x="515.12" y="-133.25" font-family="Helvetica,sans-Serif" font-size="10.00">_SK_EnableWorkspaceLimitsData</text>
</a>
</g>
</g>
<!-- Node8&#45;&gt;Node1 -->
<g id="edge7_Node000001_Node000008" class="edge">
<title>Node8&#45;&gt;Node1</title>
<g id="a_edge7_Node000001_Node000008"><a xlink:title=" ">
<path fill="none" stroke="#9a32cd" stroke-dasharray="5,2" d="M615.93,-136.38C664.57,-136.38 721.31,-136.38 762.53,-136.38"/>
<polygon fill="#9a32cd" stroke="#9a32cd" points="616.24,-132.88 606.24,-136.38 616.24,-139.88 616.24,-132.88"/>
</a>
</g>
<text xml:space="preserve" text-anchor="start" x="625.5" y="-142.38" font-family="Helvetica,sans-Serif" font-size="10.00" fill="grey">enableWorkspaceLimits</text>
</g>
<!-- Node9 -->
<g id="Node000009" class="node">
<title>Node9</title>
<g id="a_Node000009"><a xlink:href="struct__SK__SetOriginOffsetData.html" target="_top" xlink:title=" ">
<polygon fill="white" stroke="#666666" points="583.5,-104.75 446.75,-104.75 446.75,-84 583.5,-84 583.5,-104.75"/>
<text xml:space="preserve" text-anchor="middle" x="515.12" y="-91.25" font-family="Helvetica,sans-Serif" font-size="10.00">_SK_SetOriginOffsetData</text>
</a>
</g>
</g>
<!-- Node9&#45;&gt;Node1 -->
<g id="edge8_Node000001_Node000009" class="edge">
<title>Node9&#45;&gt;Node1</title>
<g id="a_edge8_Node000001_Node000009"><a xlink:title=" ">
<path fill="none" stroke="#9a32cd" stroke-dasharray="5,2" d="M595.2,-96.92C639.48,-99.38 695.54,-104.19 744.75,-113.62 759.69,-116.49 775.89,-121.2 789.39,-125.6"/>
<polygon fill="#9a32cd" stroke="#9a32cd" points="595.59,-93.44 585.42,-96.41 595.23,-100.43 595.59,-93.44"/>
</a>
</g>
<text xml:space="preserve" text-anchor="start" x="646.88" y="-119.62" font-family="Helvetica,sans-Serif" font-size="10.00" fill="grey">setOriginOffset</text>
</g>
<!-- Node10 -->
<g id="Node000010" class="node">
<title>Node10</title>
<g id="a_Node000010"><a xlink:href="struct__SK__Point.html" target="_top" xlink:title="Represents a 2D Cartesian point in top&#45;level coordinates.">
<polygon fill="white" stroke="#666666" points="300.5,-62.75 236.5,-62.75 236.5,-42 300.5,-42 300.5,-62.75"/>
<text xml:space="preserve" text-anchor="middle" x="268.5" y="-49.25" font-family="Helvetica,sans-Serif" font-size="10.00">_SK_Point</text>
</a>
</g>
</g>
<!-- Node10&#45;&gt;Node9 -->
<g id="edge9_Node000009_Node000010" class="edge">
<title>Node10&#45;&gt;Node9</title>
<g id="a_edge9_Node000009_Node000010"><a xlink:title=" ">
<path fill="none" stroke="#9a32cd" stroke-dasharray="5,2" d="M312.04,-64.22C323.56,-67.17 336.08,-70.12 347.75,-72.38 380.08,-78.62 416.28,-83.64 446.64,-87.3"/>
<polygon fill="#9a32cd" stroke="#9a32cd" points="312.93,-60.84 302.37,-61.69 311.16,-67.61 312.93,-60.84"/>
</a>
</g>
<text xml:space="preserve" text-anchor="start" x="363.88" y="-88.11" font-family="Helvetica,sans-Serif" font-size="10.00" fill="grey">offset</text>
</g>
<!-- Node11 -->
<g id="Node000011" class="node">
<title>Node11</title>
<g id="a_Node000011"><a xlink:href="struct__SK__MoveToXYData.html" target="_top" xlink:title=" ">
<polygon fill="white" stroke="#666666" points="571.5,-62.75 458.75,-62.75 458.75,-42 571.5,-42 571.5,-62.75"/>
<text xml:space="preserve" text-anchor="middle" x="515.12" y="-49.25" font-family="Helvetica,sans-Serif" font-size="10.00">_SK_MoveToXYData</text>
</a>
</g>
</g>
<!-- Node10&#45;&gt;Node11 -->
<g id="edge11_Node000011_Node000010" class="edge">
<title>Node10&#45;&gt;Node11</title>
<g id="a_edge11_Node000011_Node000010"><a xlink:title=" ">
<path fill="none" stroke="#9a32cd" stroke-dasharray="5,2" d="M312.37,-52.38C352.97,-52.38 414.16,-52.38 458.51,-52.38"/>
<polygon fill="#9a32cd" stroke="#9a32cd" points="312.49,-48.88 302.49,-52.38 312.49,-55.88 312.49,-48.88"/>
</a>
</g>
<text xml:space="preserve" text-anchor="start" x="350.75" y="-58.38" font-family="Helvetica,sans-Serif" font-size="10.00" fill="grey">targetPoint</text>
</g>
<!-- Node12 -->
<g id="Node000012" class="node">
<title>Node12</title>
<g id="a_Node000012"><a xlink:href="struct__SK__HomeData.html" target="_top" xlink:title=" ">
<polygon fill="white" stroke="#666666" points="561,-20.75 469.25,-20.75 469.25,0 561,0 561,-20.75"/>
<text xml:space="preserve" text-anchor="middle" x="515.12" y="-7.25" font-family="Helvetica,sans-Serif" font-size="10.00">_SK_HomeData</text>
</a>
</g>
</g>
<!-- Node10&#45;&gt;Node12 -->
<g id="edge13_Node000012_Node000010" class="edge">
<title>Node10&#45;&gt;Node12</title>
<g id="a_edge13_Node000012_Node000010"><a xlink:title=" ">
<path fill="none" stroke="#9a32cd" stroke-dasharray="5,2" d="M311.56,-38.74C323.19,-35.36 335.87,-32.02 347.75,-29.62 388.37,-21.43 435.32,-16.39 468.96,-13.54"/>
<polygon fill="#9a32cd" stroke="#9a32cd" points="310.82,-35.31 302.25,-41.53 312.84,-42.01 310.82,-35.31"/>
</a>
</g>
<text xml:space="preserve" text-anchor="start" x="352.62" y="-35.62" font-family="Helvetica,sans-Serif" font-size="10.00" fill="grey">zeroOffset</text>
</g>
<!-- Node11&#45;&gt;Node1 -->
<g id="edge10_Node000001_Node000011" class="edge">
<title>Node11&#45;&gt;Node1</title>
<g id="a_edge10_Node000001_Node000011"><a xlink:title=" ">
<path fill="none" stroke="#9a32cd" stroke-dasharray="5,2" d="M583.07,-49.73C629.98,-50.18 693.24,-55.48 744.75,-76.62 771.83,-87.74 797.06,-111.81 810.19,-125.77"/>
<polygon fill="#9a32cd" stroke="#9a32cd" points="583.34,-46.23 573.33,-49.72 583.33,-53.23 583.34,-46.23"/>
</a>
</g>
<text xml:space="preserve" text-anchor="start" x="658.12" y="-82.62" font-family="Helvetica,sans-Serif" font-size="10.00" fill="grey">moveToXY</text>
</g>
<!-- Node12&#45;&gt;Node1 -->
<g id="edge12_Node000001_Node000012" class="edge">
<title>Node12&#45;&gt;Node1</title>
<g id="a_edge12_Node000001_Node000012"><a xlink:title=" ">
<path fill="none" stroke="#9a32cd" stroke-dasharray="5,2" d="M572.4,-2.06C621.24,2.31 692.17,1.59 744.75,-28.62 783.86,-51.1 807.26,-103.26 815.86,-125.75"/>
<polygon fill="#9a32cd" stroke="#9a32cd" points="572.21,1.44 562.61,-3.04 572.91,-5.52 572.21,1.44"/>
</a>
</g>
<text xml:space="preserve" text-anchor="start" x="669.75" y="-34.62" font-family="Helvetica,sans-Serif" font-size="10.00" fill="grey">home</text>
</g>
</g>
</svg>

<g id="navigator" transform="translate(0 0)" fill="#404254">
  <rect fill="#f2f5e9" fill-opacity="0.5" stroke="#606060" stroke-width=".5" x="0" y="0" width="60" height="60"/>
  <use id="zoomplus" xlink:href="#zoomPlus" x="17" y="9" onmousedown="handleZoom(evt,'in')"/>
  <use id="zoomminus" xlink:href="#zoomMin" x="42" y="9" onmousedown="handleZoom(evt,'out')"/>
  <use id="reset" xlink:href="#resetDef" x="30" y="36" onmousedown="handleReset()"/>
   <use id="arrowup" xlink:href="#arrowUp" x="0" y="0" onmousedown="handlePan(0,-1)"/>
  <use id="arrowright" xlink:href="#arrowRight" x="0" y="0" onmousedown="handlePan(1,0)"/>
  <use id="arrowdown" xlink:href="#arrowDown" x="0" y="0" onmousedown="handlePan(0,1)"/>
  <use id="arrowleft" xlink:href="#arrowLeft" x="0" y="0" onmousedown="handlePan(-1,0)"/>
</g>
<svg viewBox="0 0 15 15" width="100%" height="30px" preserveAspectRatio="xMaxYMin meet">
 <g id="arrow_out" transform="scale(0.3 0.3)">
  <a xlink:href="struct__SK__CmdQueueItem__coll__graph_org.svg" target="_base">
   <rect id="button" ry="5" rx="5" y="6" x="6" height="38" width="38"
        fill="#f2f5e9" fill-opacity="0.5" stroke="#606060" stroke-width="1.0"/>
   <path id="arrow"
     d="M 11.500037,31.436501 C 11.940474,20.09759 22.043105,11.32322 32.158766,21.979434 L 37.068811,17.246167 C 37.068811,17.246167 37.088388,32 37.088388,32 L 22.160133,31.978069 C 22.160133,31.978069 26.997745,27.140456 26.997745,27.140456 C 18.528582,18.264221 13.291696,25.230495 11.500037,31.436501 z"
     style="fill:#404040;"/>
  </a>
 </g>
</svg>

<style type='text/css'>
<![CDATA[
[data-mouse-over-selected='false'] { opacity: 0.7; }
[data-mouse-over-selected='true']  { opacity: 1.0; }
]]>
</style>
<script type="application/ecmascript"><![CDATA[
document.addEventListener('DOMContentLoaded', (event) => {
  highlightEdges();
  highlightAdjacentNodes();
});
]]></script>
</svg>
