<?xml version="1.0" encoding="UTF-8" standalone="no"?>
<!DOCTYPE svg PUBLIC "-//W3C//DTD SVG 1.1//EN"
 "http://www.w3.org/Graphics/SVG/1.1/DTD/svg11.dtd">
<!-- Generated by graphviz version 14.1.2 (0)
 -->
<!-- Title: _lpuart_edma_handle Pages: 1 -->
<svg width="259pt" height="197pt"
 viewBox="0.00 0.00 259.00 197.00" xmlns="http://www.w3.org/2000/svg" xmlns:xlink="http://www.w3.org/1999/xlink">
<g id="graph0" class="graph" transform="scale(1 1) rotate(0) translate(4 192.5)">
<title>_lpuart_edma_handle</title>
<!-- Node1 -->
<g id="Node000001" class="node">
<title>Node1</title>
<g id="a_Node000001"><a xlink:title="LPUART eDMA handle.">
<polygon fill="#999999" stroke="#666666" points="136.12,-20.75 15.12,-20.75 15.12,0 136.12,0 136.12,-20.75"/>
<text xml:space="preserve" text-anchor="middle" x="75.62" y="-7.25" font-family="Helvetica,sans-Serif" font-size="10.00">_lpuart_edma_handle</text>
</a>
</g>
</g>
<!-- Node2 -->
<g id="Node000002" class="node">
<title>Node2</title>
<g id="a_Node000002"><a xlink:href="structLPUART__Type.html" target="_top" xlink:title=" ">
<polygon fill="white" stroke="#666666" points="81.25,-113 0,-113 0,-92.25 81.25,-92.25 81.25,-113"/>
<text xml:space="preserve" text-anchor="middle" x="40.62" y="-99.5" font-family="Helvetica,sans-Serif" font-size="10.00">LPUART_Type</text>
</a>
</g>
</g>
<!-- Node2&#45;&gt;Node1 -->
<g id="edge1_Node000001_Node000002" class="edge">
<title>Node2&#45;&gt;Node1</title>
<g id="a_edge1_Node000001_Node000002"><a xlink:title=" ">
<path fill="none" stroke="#9a32cd" stroke-dasharray="5,2" d="M44.77,-80.84C47.66,-68.33 52.09,-52.25 58.12,-38.75 60.89,-32.57 64.9,-26.17 68.39,-21.11"/>
<polygon fill="#9a32cd" stroke="#9a32cd" points="41.38,-79.95 42.7,-90.47 48.23,-81.42 41.38,-79.95"/>
</a>
</g>
<text xml:space="preserve" text-anchor="start" x="61.12" y="-53.38" font-family="Helvetica,sans-Serif" font-size="10.00" fill="grey">callback</text>
</g>
<!-- Node3 -->
<g id="Node000003" class="node">
<title>Node3</title>
<g id="a_Node000003"><a xlink:href="struct__edma__handle.html" target="_top" xlink:title="eDMA transfer handle structure">
<polygon fill="white" stroke="#666666" points="186.25,-113 99,-113 99,-92.25 186.25,-92.25 186.25,-113"/>
<text xml:space="preserve" text-anchor="middle" x="142.62" y="-99.5" font-family="Helvetica,sans-Serif" font-size="10.00">_edma_handle</text>
</a>
</g>
</g>
<!-- Node3&#45;&gt;Node1 -->
<g id="edge2_Node000001_Node000003" class="edge">
<title>Node3&#45;&gt;Node1</title>
<g id="a_edge2_Node000001_Node000003"><a xlink:title=" ">
<path fill="none" stroke="#9a32cd" stroke-dasharray="5,2" d="M132.6,-82.07C125.58,-69.18 115.53,-52.26 104.62,-38.75 99.49,-32.39 92.93,-26.08 87.35,-21.12"/>
<polygon fill="#9a32cd" stroke="#9a32cd" points="129.47,-83.62 137.23,-90.82 135.65,-80.35 129.47,-83.62"/>
</a>
</g>
<text xml:space="preserve" text-anchor="start" x="130.79" y="-61.75" font-family="Helvetica,sans-Serif" font-size="10.00" fill="grey">rxEdmaHandle</text>
<text xml:space="preserve" text-anchor="start" x="130.79" y="-45" font-family="Helvetica,sans-Serif" font-size="10.00" fill="grey">txEdmaHandle</text>
</g>
<!-- Node3&#45;&gt;Node3 -->
<g id="edge3_Node000003_Node000003" class="edge">
<title>Node3&#45;&gt;Node3</title>
<g id="a_edge3_Node000003_Node000003"><a xlink:title=" ">
<path fill="none" stroke="#9a32cd" stroke-dasharray="5,2" d="M198.03,-107.78C201.89,-106.6 204.25,-104.89 204.25,-102.62 204.25,-98.61 196.8,-96.3 186.66,-95.7"/>
<polygon fill="#9a32cd" stroke="#9a32cd" points="197.5,-104.32 188.16,-109.31 198.58,-111.24 197.5,-104.32"/>
</a>
</g>
<text xml:space="preserve" text-anchor="start" x="207.25" y="-99.5" font-family="Helvetica,sans-Serif" font-size="10.00" fill="grey">callback</text>
</g>
<!-- Node4 -->
<g id="Node000004" class="node">
<title>Node4</title>
<g id="a_Node000004"><a xlink:href="structDMA__Type.html" target="_top" xlink:title=" ">
<polygon fill="white" stroke="#666666" points="133.12,-188.5 66.12,-188.5 66.12,-167.75 133.12,-167.75 133.12,-188.5"/>
<text xml:space="preserve" text-anchor="middle" x="99.62" y="-175" font-family="Helvetica,sans-Serif" font-size="10.00">DMA_Type</text>
</a>
</g>
</g>
<!-- Node4&#45;&gt;Node3 -->
<g id="edge4_Node000003_Node000004" class="edge">
<title>Node4&#45;&gt;Node3</title>
<g id="a_edge4_Node000003_Node000004"><a xlink:title=" ">
<path fill="none" stroke="#9a32cd" stroke-dasharray="5,2" d="M110.99,-157.71C119.31,-143.47 130.27,-124.74 136.86,-113.47"/>
<polygon fill="#9a32cd" stroke="#9a32cd" points="108.04,-155.81 106.01,-166.21 114.08,-159.35 108.04,-155.81"/>
</a>
</g>
<text xml:space="preserve" text-anchor="start" x="129.24" y="-137.25" font-family="Helvetica,sans-Serif" font-size="10.00" fill="grey">base</text>
</g>
<!-- Node5 -->
<g id="Node000005" class="node">
<title>Node5</title>
<g id="a_Node000005"><a xlink:href="struct__edma__tcd.html" target="_top" xlink:title="eDMA TCD.">
<polygon fill="white" stroke="#666666" points="220.25,-188.5 151,-188.5 151,-167.75 220.25,-167.75 220.25,-188.5"/>
<text xml:space="preserve" text-anchor="middle" x="185.62" y="-175" font-family="Helvetica,sans-Serif" font-size="10.00">_edma_tcd</text>
</a>
</g>
</g>
<!-- Node5&#45;&gt;Node3 -->
<g id="edge5_Node000003_Node000005" class="edge">
<title>Node5&#45;&gt;Node3</title>
<g id="a_edge5_Node000003_Node000005"><a xlink:title=" ">
<path fill="none" stroke="#9a32cd" stroke-dasharray="5,2" d="M174.91,-157.69C170.29,-149.42 164.77,-139.69 159.62,-131 156.15,-125.13 152.12,-118.63 148.86,-113.45"/>
<polygon fill="#9a32cd" stroke="#9a32cd" points="171.72,-159.15 179.63,-166.19 177.84,-155.75 171.72,-159.15"/>
</a>
</g>
<text xml:space="preserve" text-anchor="start" x="172.82" y="-137.25" font-family="Helvetica,sans-Serif" font-size="10.00" fill="grey">tcdPool</text>
</g>
</g>
</svg>
