<?xml version="1.0" encoding="UTF-8" standalone="no"?>
<!DOCTYPE svg PUBLIC "-//W3C//DTD SVG 1.1//EN"
 "http://www.w3.org/Graphics/SVG/1.1/DTD/svg11.dtd">
<!-- Generated by graphviz version 14.1.3 (0)
 -->
<!-- Title: _STP_HandlesArrayItem Pages: 1 -->
<svg width="171pt" height="180pt"
 viewBox="0.00 0.00 171.00 180.00" xmlns="http://www.w3.org/2000/svg" xmlns:xlink="http://www.w3.org/1999/xlink">
<g id="graph0" class="graph" transform="scale(1 1) rotate(0) translate(4 175.75)">
<title>_STP_HandlesArrayItem</title>
<!-- Node1 -->
<g id="Node000001" class="node">
<title>Node1</title>
<g id="a_Node000001"><a xlink:title=" ">
<polygon fill="#999999" stroke="#666666" points="135.62,-20.75 2.62,-20.75 2.62,0 135.62,0 135.62,-20.75"/>
<text xml:space="preserve" text-anchor="middle" x="69.12" y="-7.25" font-family="Helvetica,sans-Serif" font-size="10.00">_STP_HandlesArrayItem</text>
</a>
</g>
</g>
<!-- Node2 -->
<g id="Node000002" class="node">
<title>Node2</title>
<g id="a_Node000002"><a xlink:href="struct__STP__StepperHandleImpl.html" target="_top" xlink:title="Handle structure for a stepper motor instance.">
<polygon fill="white" stroke="#666666" points="138.25,-96.25 0,-96.25 0,-75.5 138.25,-75.5 138.25,-96.25"/>
<text xml:space="preserve" text-anchor="middle" x="69.12" y="-82.75" font-family="Helvetica,sans-Serif" font-size="10.00">_STP_StepperHandleImpl</text>
</a>
</g>
</g>
<!-- Node2&#45;&gt;Node1 -->
<g id="edge1_Node000001_Node000002" class="edge">
<title>Node2&#45;&gt;Node1</title>
<g id="a_edge1_Node000001_Node000002"><a xlink:title=" ">
<path fill="none" stroke="#9a32cd" stroke-dasharray="5,2" d="M69.12,-63.76C69.12,-49.76 69.12,-32.05 69.12,-21.22"/>
<polygon fill="#9a32cd" stroke="#9a32cd" points="65.63,-63.75 69.13,-73.75 72.63,-63.75 65.63,-63.75"/>
</a>
</g>
<text xml:space="preserve" text-anchor="start" x="72.12" y="-44.75" font-family="Helvetica,sans-Serif" font-size="10.00" fill="grey">handle</text>
</g>
<!-- Node3 -->
<g id="Node000003" class="node">
<title>Node3</title>
<g id="a_Node000003"><a xlink:href="struct__STP__StepperMovement.html" target="_top" xlink:title="Structure for tracking stepper motor movement state and parameters.">
<polygon fill="white" stroke="#666666" points="136.38,-171.75 1.88,-171.75 1.88,-151 136.38,-151 136.38,-171.75"/>
<text xml:space="preserve" text-anchor="middle" x="69.12" y="-158.25" font-family="Helvetica,sans-Serif" font-size="10.00">_STP_StepperMovement</text>
</a>
</g>
</g>
<!-- Node3&#45;&gt;Node2 -->
<g id="edge2_Node000002_Node000003" class="edge">
<title>Node3&#45;&gt;Node2</title>
<g id="a_edge2_Node000002_Node000003"><a xlink:title=" ">
<path fill="none" stroke="#9a32cd" stroke-dasharray="5,2" d="M69.12,-139.26C69.12,-125.26 69.12,-107.55 69.12,-96.72"/>
<polygon fill="#9a32cd" stroke="#9a32cd" points="65.63,-139.25 69.13,-149.25 72.63,-139.25 65.63,-139.25"/>
</a>
</g>
<text xml:space="preserve" text-anchor="start" x="72.12" y="-120.25" font-family="Helvetica,sans-Serif" font-size="10.00" fill="grey">movementHandle</text>
</g>
</g>
</svg>
