<?xml version="1.0" encoding="UTF-8" standalone="no"?>
<!DOCTYPE svg PUBLIC "-//W3C//DTD SVG 1.1//EN"
 "http://www.w3.org/Graphics/SVG/1.1/DTD/svg11.dtd">
<!-- Generated by graphviz version 14.1.4 (0)
 -->
<!-- Title: _MTR_MotorHandleImpl Pages: 1 -->
<svg width="268pt" height="255pt"
 viewBox="0.00 0.00 268.00 255.00" xmlns="http://www.w3.org/2000/svg" xmlns:xlink="http://www.w3.org/1999/xlink">
<g id="graph0" class="graph" transform="scale(1 1) rotate(0) translate(4 251.25)">
<title>_MTR_MotorHandleImpl</title>
<!-- Node1 -->
<g id="Node000001" class="node">
<title>Node1</title>
<g id="a_Node000001"><a xlink:title=" ">
<polygon fill="#999999" stroke="#666666" points="223.62,-20.75 90.62,-20.75 90.62,0 223.62,0 223.62,-20.75"/>
<text xml:space="preserve" text-anchor="middle" x="157.12" y="-7.25" font-family="Helvetica,sans-Serif" font-size="10.00">_MTR_MotorHandleImpl</text>
</a>
</g>
</g>
<!-- Node2 -->
<g id="Node000002" class="node">
<title>Node2</title>
<g id="a_Node000002"><a xlink:href="struct__STP__StepperHandleImpl.html" target="_top" xlink:title="Handle structure for a stepper motor instance.">
<polygon fill="white" stroke="#666666" points="138.25,-96.25 0,-96.25 0,-75.5 138.25,-75.5 138.25,-96.25"/>
<text xml:space="preserve" text-anchor="middle" x="69.12" y="-82.75" font-family="Helvetica,sans-Serif" font-size="10.00">_STP_StepperHandleImpl</text>
</a>
</g>
</g>
<!-- Node2&#45;&gt;Node1 -->
<g id="edge1_Node000001_Node000002" class="edge">
<title>Node2&#45;&gt;Node1</title>
<g id="a_edge1_Node000001_Node000002"><a xlink:title=" ">
<path fill="none" stroke="#9a32cd" stroke-dasharray="5,2" d="M76.82,-64.84C81.05,-55.93 87.05,-45.87 94.88,-38.75 103.26,-31.12 114.11,-25.37 124.4,-21.15"/>
<polygon fill="#9a32cd" stroke="#9a32cd" points="73.7,-63.24 72.99,-73.81 80.14,-65.99 73.7,-63.24"/>
</a>
</g>
<text xml:space="preserve" text-anchor="start" x="97.88" y="-44.75" font-family="Helvetica,sans-Serif" font-size="10.00" fill="grey">stepperHandle</text>
</g>
<!-- Node3 -->
<g id="Node000003" class="node">
<title>Node3</title>
<g id="a_Node000003"><a xlink:href="struct__STP__StepperMovement.html" target="_top" xlink:title="Structure for tracking stepper motor movement state and parameters.">
<polygon fill="white" stroke="#666666" points="136.38,-171.75 1.88,-171.75 1.88,-151 136.38,-151 136.38,-171.75"/>
<text xml:space="preserve" text-anchor="middle" x="69.12" y="-158.25" font-family="Helvetica,sans-Serif" font-size="10.00">_STP_StepperMovement</text>
</a>
</g>
</g>
<!-- Node3&#45;&gt;Node2 -->
<g id="edge2_Node000002_Node000003" class="edge">
<title>Node3&#45;&gt;Node2</title>
<g id="a_edge2_Node000002_Node000003"><a xlink:title=" ">
<path fill="none" stroke="#9a32cd" stroke-dasharray="5,2" d="M69.12,-139.26C69.12,-125.26 69.12,-107.55 69.12,-96.72"/>
<polygon fill="#9a32cd" stroke="#9a32cd" points="65.63,-139.25 69.13,-149.25 72.63,-139.25 65.63,-139.25"/>
</a>
</g>
<text xml:space="preserve" text-anchor="start" x="72.12" y="-120.25" font-family="Helvetica,sans-Serif" font-size="10.00" fill="grey">movementHandle</text>
</g>
<!-- Node4 -->
<g id="Node000004" class="node">
<title>Node4</title>
<g id="a_Node000004"><a xlink:href="struct__THE__CmdHandleImpl.html" target="_top" xlink:title=" ">
<polygon fill="white" stroke="#666666" points="131.5,-247.25 6.75,-247.25 6.75,-226.5 131.5,-226.5 131.5,-247.25"/>
<text xml:space="preserve" text-anchor="middle" x="69.12" y="-233.75" font-family="Helvetica,sans-Serif" font-size="10.00">_THE_CmdHandleImpl</text>
</a>
</g>
</g>
<!-- Node4&#45;&gt;Node3 -->
<g id="edge3_Node000003_Node000004" class="edge">
<title>Node4&#45;&gt;Node3</title>
<g id="a_edge3_Node000003_Node000004"><a xlink:title=" ">
<path fill="none" stroke="#9a32cd" stroke-dasharray="5,2" d="M69.12,-214.76C69.12,-200.76 69.12,-183.05 69.12,-172.22"/>
<polygon fill="#9a32cd" stroke="#9a32cd" points="65.63,-214.75 69.13,-224.75 72.63,-214.75 65.63,-214.75"/>
</a>
</g>
<text xml:space="preserve" text-anchor="start" x="72.12" y="-195.75" font-family="Helvetica,sans-Serif" font-size="10.00" fill="grey">cmdHandle</text>
</g>
<!-- Node5 -->
<g id="Node000005" class="node">
<title>Node5</title>
<g id="a_Node000005"><a xlink:href="struct__TMC__HandleImpl.html" target="_top" xlink:title=" ">
<polygon fill="white" stroke="#666666" points="260.38,-96.25 155.88,-96.25 155.88,-75.5 260.38,-75.5 260.38,-96.25"/>
<text xml:space="preserve" text-anchor="middle" x="208.12" y="-82.75" font-family="Helvetica,sans-Serif" font-size="10.00">_TMC_HandleImpl</text>
</a>
</g>
</g>
<!-- Node5&#45;&gt;Node1 -->
<g id="edge4_Node000001_Node000005" class="edge">
<title>Node5&#45;&gt;Node1</title>
<g id="a_edge4_Node000001_Node000005"><a xlink:title=" ">
<path fill="none" stroke="#9a32cd" stroke-dasharray="5,2" d="M194.94,-65.87C185.03,-51.59 171.85,-32.6 163.96,-21.22"/>
<polygon fill="#9a32cd" stroke="#9a32cd" points="192.02,-67.8 200.59,-74.02 197.77,-63.81 192.02,-67.8"/>
</a>
</g>
<text xml:space="preserve" text-anchor="start" x="191.69" y="-44.75" font-family="Helvetica,sans-Serif" font-size="10.00" fill="grey">tmcHandle</text>
</g>
</g>
</svg>
