<?xml version="1.0" encoding="UTF-8" standalone="no"?>
<!DOCTYPE svg PUBLIC "-//W3C//DTD SVG 1.1//EN"
 "http://www.w3.org/Graphics/SVG/1.1/DTD/svg11.dtd">
<!-- Generated by graphviz version 14.1.3 (0)
 -->
<!-- Title: _MTR_MotorConfig Pages: 1 -->
<svg width="300pt" height="104pt"
 viewBox="0.00 0.00 300.00 104.00" xmlns="http://www.w3.org/2000/svg" xmlns:xlink="http://www.w3.org/1999/xlink">
<g id="graph0" class="graph" transform="scale(1 1) rotate(0) translate(4 100.25)">
<title>_MTR_MotorConfig</title>
<!-- Node1 -->
<g id="Node000001" class="node">
<title>Node1</title>
<g id="a_Node000001"><a xlink:title="Configuration structure for initializing one motor instance.">
<polygon fill="#999999" stroke="#666666" points="195,-20.75 87.5,-20.75 87.5,0 195,0 195,-20.75"/>
<text xml:space="preserve" text-anchor="middle" x="141.25" y="-7.25" font-family="Helvetica,sans-Serif" font-size="10.00">_MTR_MotorConfig</text>
</a>
</g>
</g>
<!-- Node2 -->
<g id="Node000002" class="node">
<title>Node2</title>
<g id="a_Node000002"><a xlink:href="struct__MTR__MotorTmcConfig.html" target="_top" xlink:title="TMC2209&#45;related configuration values for one motor.">
<polygon fill="white" stroke="#666666" points="128.5,-96.25 0,-96.25 0,-75.5 128.5,-75.5 128.5,-96.25"/>
<text xml:space="preserve" text-anchor="middle" x="64.25" y="-82.75" font-family="Helvetica,sans-Serif" font-size="10.00">_MTR_MotorTmcConfig</text>
</a>
</g>
</g>
<!-- Node2&#45;&gt;Node1 -->
<g id="edge1_Node000001_Node000002" class="edge">
<title>Node2&#45;&gt;Node1</title>
<g id="a_edge1_Node000001_Node000002"><a xlink:title=" ">
<path fill="none" stroke="#9a32cd" stroke-dasharray="5,2" d="M82.44,-67.52C97.56,-53.08 118.55,-33.04 130.94,-21.22"/>
<polygon fill="#9a32cd" stroke="#9a32cd" points="80.23,-64.78 75.41,-74.22 85.06,-69.85 80.23,-64.78"/>
</a>
</g>
<text xml:space="preserve" text-anchor="start" x="114.91" y="-44.75" font-family="Helvetica,sans-Serif" font-size="10.00" fill="grey">tmcConfig</text>
</g>
<!-- Node3 -->
<g id="Node000003" class="node">
<title>Node3</title>
<g id="a_Node000003"><a xlink:href="struct__MTR__MotorStepperConfig.html" target="_top" xlink:title="Step generation hardware configuration for one motor.">
<polygon fill="white" stroke="#666666" points="291.75,-96.25 146.75,-96.25 146.75,-75.5 291.75,-75.5 291.75,-96.25"/>
<text xml:space="preserve" text-anchor="middle" x="219.25" y="-82.75" font-family="Helvetica,sans-Serif" font-size="10.00">_MTR_MotorStepperConfig</text>
</a>
</g>
</g>
<!-- Node3&#45;&gt;Node1 -->
<g id="edge2_Node000001_Node000003" class="edge">
<title>Node3&#45;&gt;Node1</title>
<g id="a_edge2_Node000001_Node000003"><a xlink:title=" ">
<path fill="none" stroke="#9a32cd" stroke-dasharray="5,2" d="M201.23,-67.35C192.27,-58.69 181.25,-48.11 171.25,-38.75 164.97,-32.87 157.86,-26.38 152.14,-21.19"/>
<polygon fill="#9a32cd" stroke="#9a32cd" points="198.69,-69.76 208.31,-74.21 203.56,-64.73 198.69,-69.76"/>
</a>
</g>
<text xml:space="preserve" text-anchor="start" x="192.84" y="-44.75" font-family="Helvetica,sans-Serif" font-size="10.00" fill="grey">stepperConfig</text>
</g>
</g>
</svg>
