<?xml version="1.0" encoding="UTF-8" standalone="no"?>
<!DOCTYPE svg PUBLIC "-//W3C//DTD SVG 1.1//EN"
 "http://www.w3.org/Graphics/SVG/1.1/DTD/svg11.dtd">
<!-- Generated by graphviz version 14.1.4 (0)
 -->
<!-- Title: _TMC_CommandQueueItem Pages: 1 -->
<svg width="355pt" height="104pt"
 viewBox="0.00 0.00 355.00 104.00" xmlns="http://www.w3.org/2000/svg" xmlns:xlink="http://www.w3.org/1999/xlink">
<g id="graph0" class="graph" transform="scale(1 1) rotate(0) translate(4 100.25)">
<title>_TMC_CommandQueueItem</title>
<!-- Node1 -->
<g id="Node000001" class="node">
<title>Node1</title>
<g id="a_Node000001"><a xlink:title=" ">
<polygon fill="#999999" stroke="#666666" points="262.5,-20.75 110,-20.75 110,0 262.5,0 262.5,-20.75"/>
<text xml:space="preserve" text-anchor="middle" x="186.25" y="-7.25" font-family="Helvetica,sans-Serif" font-size="10.00">_TMC_CommandQueueItem</text>
</a>
</g>
</g>
<!-- Node2 -->
<g id="Node000002" class="node">
<title>Node2</title>
<g id="a_Node000002"><a xlink:href="struct__TMC__HandleImpl.html" target="_top" xlink:title=" ">
<polygon fill="white" stroke="#666666" points="104.5,-96.25 0,-96.25 0,-75.5 104.5,-75.5 104.5,-96.25"/>
<text xml:space="preserve" text-anchor="middle" x="52.25" y="-82.75" font-family="Helvetica,sans-Serif" font-size="10.00">_TMC_HandleImpl</text>
</a>
</g>
</g>
<!-- Node2&#45;&gt;Node1 -->
<g id="edge1_Node000001_Node000002" class="edge">
<title>Node2&#45;&gt;Node1</title>
<g id="a_edge1_Node000001_Node000002"><a xlink:title=" ">
<path fill="none" stroke="#9a32cd" stroke-dasharray="5,2" d="M79.87,-69.73C106.4,-55.17 145.72,-33.61 168.38,-21.18"/>
<polygon fill="#9a32cd" stroke="#9a32cd" points="78.46,-66.51 71.37,-74.39 81.82,-72.65 78.46,-66.51"/>
</a>
</g>
<text xml:space="preserve" text-anchor="start" x="138.19" y="-44.75" font-family="Helvetica,sans-Serif" font-size="10.00" fill="grey">handle</text>
</g>
<!-- Node3 -->
<g id="Node000003" class="node">
<title>Node3</title>
<g id="a_Node000003"><a xlink:href="struct__CHD__CmdHandleImpl.html" target="_top" xlink:title=" ">
<polygon fill="white" stroke="#666666" points="249.75,-96.25 122.75,-96.25 122.75,-75.5 249.75,-75.5 249.75,-96.25"/>
<text xml:space="preserve" text-anchor="middle" x="186.25" y="-82.75" font-family="Helvetica,sans-Serif" font-size="10.00">_CHD_CmdHandleImpl</text>
</a>
</g>
</g>
<!-- Node3&#45;&gt;Node1 -->
<g id="edge2_Node000001_Node000003" class="edge">
<title>Node3&#45;&gt;Node1</title>
<g id="a_edge2_Node000001_Node000003"><a xlink:title=" ">
<path fill="none" stroke="#9a32cd" stroke-dasharray="5,2" d="M186.25,-63.76C186.25,-49.76 186.25,-32.05 186.25,-21.22"/>
<polygon fill="#9a32cd" stroke="#9a32cd" points="182.75,-63.75 186.25,-73.75 189.75,-63.75 182.75,-63.75"/>
</a>
</g>
<text xml:space="preserve" text-anchor="start" x="189.25" y="-44.75" font-family="Helvetica,sans-Serif" font-size="10.00" fill="grey">cmdHandle</text>
</g>
<!-- Node4 -->
<g id="Node000004" class="node">
<title>Node4</title>
<g id="a_Node000004"><a xlink:href="struct__TMC__Config.html" target="_top" xlink:title="Configuration structure for initializing a TMC2209 driver handle.">
<polygon fill="white" stroke="#666666" points="346.75,-96.25 267.75,-96.25 267.75,-75.5 346.75,-75.5 346.75,-96.25"/>
<text xml:space="preserve" text-anchor="middle" x="307.25" y="-82.75" font-family="Helvetica,sans-Serif" font-size="10.00">_TMC_Config</text>
</a>
</g>
</g>
<!-- Node4&#45;&gt;Node1 -->
<g id="edge3_Node000001_Node000004" class="edge">
<title>Node4&#45;&gt;Node1</title>
<g id="a_edge3_Node000001_Node000004"><a xlink:title=" ">
<path fill="none" stroke="#9a32cd" stroke-dasharray="5,2" d="M289.32,-67.42C279.06,-58.07 265.6,-46.85 252.25,-38.75 240.69,-31.73 227.01,-25.73 215.11,-21.15"/>
<polygon fill="#9a32cd" stroke="#9a32cd" points="286.64,-69.7 296.33,-73.99 291.42,-64.59 286.64,-69.7"/>
</a>
</g>
<text xml:space="preserve" text-anchor="start" x="280.65" y="-44.75" font-family="Helvetica,sans-Serif" font-size="10.00" fill="grey">config</text>
</g>
</g>
</svg>
