<?xml version="1.0" encoding="UTF-8" standalone="no"?>
<!DOCTYPE svg PUBLIC "-//W3C//DTD SVG 1.1//EN"
 "http://www.w3.org/Graphics/SVG/1.1/DTD/svg11.dtd">
<!-- Generated by graphviz version 14.1.3 (0)
 -->
<!-- Title: _MTR_CmdQueueItem Pages: 1 -->
<!--zoomable 602 -->

<svg id="main" version="1.1" xmlns="http://www.w3.org/2000/svg" xmlns:xlink="http://www.w3.org/1999/xlink" xml:space="preserve" onload="init(evt)">

<style type="text/css"><![CDATA[
.node, .edge {opacity: 0.7;}
.node.selected, .edge.selected {opacity: 1;}
.edge:hover path { stroke: red; }
.edge:hover polygon { stroke: red; fill: red; }
]]></style>

<defs>
  <circle id="rim" cx="0" cy="0" r="7"/>
  <circle id="rim2" cx="0" cy="0" r="3.5"/>
  <g id="zoomPlus">
    <use xlink:href="#rim" fill="#404040"><set attributeName="fill" to="#808080" begin="zoomplus.mouseover" end="zoomplus.mouseout"/></use>
    <path d="M-4,0h8M0,-4v8" fill="none" stroke="white" stroke-width="1.5" pointer-events="none"/>
  </g>
  <g id="zoomMin">
    <use xlink:href="#rim" fill="#404040"><set attributeName="fill" to="#808080" begin="zoomminus.mouseover" end="zoomminus.mouseout"/></use>
    <path d="M-4,0h8" fill="none" stroke="white" stroke-width="1.5" pointer-events="none"/>
  </g>
  <g id="arrowUp" transform="translate(30 24)">
    <use xlink:href="#rim"/>
    <path pointer-events="none" fill="none" stroke="white" stroke-width="1.5" d="M0,-3.0v7 M-2.5,-0.5L0,-3.0L2.5,-0.5"/>
  </g>
  <g id="arrowRight" transform="rotate(90) translate(36 -43)">
    <use xlink:href="#rim"/>
    <path pointer-events="none" fill="none" stroke="white" stroke-width="1.5" d="M0,-3.0v7 M-2.5,-0.5L0,-3.0L2.5,-0.5"/>
  </g>
  <g id="arrowDown" transform="rotate(180) translate(-30 -48)">
    <use xlink:href="#rim"/>
    <path pointer-events="none" fill="none" stroke="white" stroke-width="1.5" d="M0,-3.0v7 M-2.5,-0.5L0,-3.0L2.5,-0.5"/>
  </g>
  <g id="arrowLeft" transform="rotate(270) translate(-36 17)">
    <use xlink:href="#rim"/>
    <path pointer-events="none" fill="none" stroke="white" stroke-width="1.5" d="M0,-3.0v7 M-2.5,-0.5L0,-3.0L2.5,-0.5"/>
  </g>
  <g id="resetDef">
    <use xlink:href="#rim2" fill="#404040"><set attributeName="fill" to="#808080" begin="reset.mouseover" end="reset.mouseout"/></use>
  </g>
</defs>
<script type="application/ecmascript">
var viewWidth = 1194;
var viewHeight = 602;
var sectionId = 'dynsection-0';
</script>
<script type="application/ecmascript" xlink:href="svg.min.js"/>
<svg id="graph" class="graph">
<g id="viewport">
<title>_MTR_CmdQueueItem</title>
<!-- Node1 -->
<g id="Node000001" class="node">
<title>Node1</title>
<g id="a_Node000001"><a xlink:title=" ">
<polygon fill="#999999" stroke="#666666" points="1185.5,-293.75 1060.75,-293.75 1060.75,-273 1185.5,-273 1185.5,-293.75"/>
<text xml:space="preserve" text-anchor="middle" x="1123.12" y="-280.25" font-family="Helvetica,sans-Serif" font-size="10.00">_MTR_CmdQueueItem</text>
</a>
</g>
</g>
<!-- Node2 -->
<g id="Node000002" class="node">
<title>Node2</title>
<g id="a_Node000002"><a xlink:href="struct__MTR__MotorHandleImpl.html" target="_top" xlink:title=" ">
<polygon fill="white" stroke="#666666" points="655.5,-530.75 522.5,-530.75 522.5,-510 655.5,-510 655.5,-530.75"/>
<text xml:space="preserve" text-anchor="middle" x="589" y="-517.25" font-family="Helvetica,sans-Serif" font-size="10.00">_MTR_MotorHandleImpl</text>
</a>
</g>
</g>
<!-- Node2&#45;&gt;Node1 -->
<g id="edge1_Node000001_Node000002" class="edge">
<title>Node2&#45;&gt;Node1</title>
<g id="a_edge1_Node000001_Node000002"><a xlink:title=" ">
<path fill="none" stroke="#9a32cd" stroke-dasharray="5,2" d="M629.94,-534.86C715.02,-562.95 916.68,-614.46 1042.75,-523.38 1120.12,-467.47 1123.32,-333.32 1122.53,-294.23"/>
<polygon fill="#9a32cd" stroke="#9a32cd" points="631.23,-531.6 620.63,-531.72 628.98,-538.23 631.23,-531.6"/>
</a>
</g>
<text xml:space="preserve" text-anchor="start" x="813.88" y="-580.98" font-family="Helvetica,sans-Serif" font-size="10.00" fill="grey">handle</text>
</g>
<!-- Node14 -->
<g id="Node000014" class="node">
<title>Node14</title>
<g id="a_Node000014"><a xlink:href="struct__MTR__SynchronizedMoveCmdData.html" target="_top" xlink:title=" ">
<polygon fill="white" stroke="#666666" points="923.5,-501.75 737.25,-501.75 737.25,-481 923.5,-481 923.5,-501.75"/>
<text xml:space="preserve" text-anchor="middle" x="830.38" y="-488.25" font-family="Helvetica,sans-Serif" font-size="10.00">_MTR_SynchronizedMoveCmdData</text>
</a>
</g>
</g>
<!-- Node2&#45;&gt;Node14 -->
<g id="edge14_Node000014_Node000002" class="edge">
<title>Node2&#45;&gt;Node14</title>
<g id="a_edge14_Node000014_Node000002"><a xlink:title=" ">
<path fill="none" stroke="#9a32cd" stroke-dasharray="5,2" d="M653.92,-507.63C660.51,-506.52 667.13,-505.49 673.5,-504.62 693.95,-501.83 716,-499.53 736.89,-497.68"/>
<polygon fill="#9a32cd" stroke="#9a32cd" points="653.61,-504.13 644.37,-509.3 654.82,-511.03 653.61,-504.13"/>
</a>
</g>
<text xml:space="preserve" text-anchor="start" x="676.5" y="-510.62" font-family="Helvetica,sans-Serif" font-size="10.00" fill="grey">handles</text>
</g>
<!-- Node3 -->
<g id="Node000003" class="node">
<title>Node3</title>
<g id="a_Node000003"><a xlink:href="struct__STP__StepperHandleImpl.html" target="_top" xlink:title="Handle structure for a stepper motor instance.">
<polygon fill="white" stroke="#666666" points="405.88,-551.75 267.62,-551.75 267.62,-531 405.88,-531 405.88,-551.75"/>
<text xml:space="preserve" text-anchor="middle" x="336.75" y="-538.25" font-family="Helvetica,sans-Serif" font-size="10.00">_STP_StepperHandleImpl</text>
</a>
</g>
</g>
<!-- Node3&#45;&gt;Node2 -->
<g id="edge2_Node000002_Node000003" class="edge">
<title>Node3&#45;&gt;Node2</title>
<g id="a_edge2_Node000002_Node000003"><a xlink:title=" ">
<path fill="none" stroke="#9a32cd" stroke-dasharray="5,2" d="M417.39,-534.69C451.2,-531.85 490.15,-528.59 522.29,-525.89"/>
<polygon fill="#9a32cd" stroke="#9a32cd" points="417.31,-531.19 407.64,-535.51 417.9,-538.16 417.31,-531.19"/>
</a>
</g>
<text xml:space="preserve" text-anchor="start" x="430.25" y="-539.37" font-family="Helvetica,sans-Serif" font-size="10.00" fill="grey">stepperHandle</text>
</g>
<!-- Node4 -->
<g id="Node000004" class="node">
<title>Node4</title>
<g id="a_Node000004"><a xlink:href="struct__STP__StepperMovement.html" target="_top" xlink:title="Structure for tracking stepper motor movement state and parameters.">
<polygon fill="white" stroke="#666666" points="134.5,-551.75 0,-551.75 0,-531 134.5,-531 134.5,-551.75"/>
<text xml:space="preserve" text-anchor="middle" x="67.25" y="-538.25" font-family="Helvetica,sans-Serif" font-size="10.00">_STP_StepperMovement</text>
</a>
</g>
</g>
<!-- Node4&#45;&gt;Node3 -->
<g id="edge3_Node000003_Node000004" class="edge">
<title>Node4&#45;&gt;Node3</title>
<g id="a_edge3_Node000003_Node000004"><a xlink:title=" ">
<path fill="none" stroke="#9a32cd" stroke-dasharray="5,2" d="M145.85,-541.38C184.26,-541.38 230.21,-541.38 267.3,-541.38"/>
<polygon fill="#9a32cd" stroke="#9a32cd" points="146.23,-537.88 136.23,-541.38 146.23,-544.88 146.23,-537.88"/>
</a>
</g>
<text xml:space="preserve" text-anchor="start" x="155.5" y="-547.38" font-family="Helvetica,sans-Serif" font-size="10.00" fill="grey">movementHandle</text>
</g>
<!-- Node5 -->
<g id="Node000005" class="node">
<title>Node5</title>
<g id="a_Node000005"><a xlink:href="struct__TMC__HandleImpl.html" target="_top" xlink:title=" ">
<polygon fill="white" stroke="#666666" points="389,-509.75 284.5,-509.75 284.5,-489 389,-489 389,-509.75"/>
<text xml:space="preserve" text-anchor="middle" x="336.75" y="-496.25" font-family="Helvetica,sans-Serif" font-size="10.00">_TMC_HandleImpl</text>
</a>
</g>
</g>
<!-- Node5&#45;&gt;Node2 -->
<g id="edge4_Node000002_Node000005" class="edge">
<title>Node5&#45;&gt;Node2</title>
<g id="a_edge4_Node000002_Node000005"><a xlink:title=" ">
<path fill="none" stroke="#9a32cd" stroke-dasharray="5,2" d="M400.55,-499.06C431.86,-499.48 470.27,-500.88 504.5,-504.62 515.21,-505.8 526.59,-507.58 537.41,-509.53"/>
<polygon fill="#9a32cd" stroke="#9a32cd" points="400.9,-495.56 390.86,-498.96 400.83,-502.56 400.9,-495.56"/>
</a>
</g>
<text xml:space="preserve" text-anchor="start" x="439.25" y="-510.62" font-family="Helvetica,sans-Serif" font-size="10.00" fill="grey">tmcHandle</text>
</g>
<!-- Node6 -->
<g id="Node000006" class="node">
<title>Node6</title>
<g id="a_Node000006"><a xlink:href="struct__MTR__MoveAngleCmdData.html" target="_top" xlink:title=" ">
<polygon fill="white" stroke="#666666" points="904.75,-461.75 756,-461.75 756,-441 904.75,-441 904.75,-461.75"/>
<text xml:space="preserve" text-anchor="middle" x="830.38" y="-448.25" font-family="Helvetica,sans-Serif" font-size="10.00">_MTR_MoveAngleCmdData</text>
</a>
</g>
</g>
<!-- Node6&#45;&gt;Node1 -->
<g id="edge5_Node000001_Node000006" class="edge">
<title>Node6&#45;&gt;Node1</title>
<g id="a_edge5_Node000001_Node000006"><a xlink:title=" ">
<path fill="none" stroke="#9a32cd" stroke-dasharray="5,2" d="M916.6,-449.55C965.98,-447 1022.32,-441.05 1042.75,-427.38 1091.61,-394.66 1113.23,-321.35 1119.82,-293.96"/>
<polygon fill="#9a32cd" stroke="#9a32cd" points="916.54,-446.05 906.71,-450.01 916.87,-453.04 916.54,-446.05"/>
</a>
</g>
<text xml:space="preserve" text-anchor="start" x="965.12" y="-453.67" font-family="Helvetica,sans-Serif" font-size="10.00" fill="grey">moveAngle</text>
</g>
<!-- Node7 -->
<g id="Node000007" class="node">
<title>Node7</title>
<g id="a_Node000007"><a xlink:href="struct__MTR__MoveRevolutionsCmdData.html" target="_top" xlink:title=" ">
<polygon fill="white" stroke="#666666" points="919.75,-419.75 741,-419.75 741,-399 919.75,-399 919.75,-419.75"/>
<text xml:space="preserve" text-anchor="middle" x="830.38" y="-406.25" font-family="Helvetica,sans-Serif" font-size="10.00">_MTR_MoveRevolutionsCmdData</text>
</a>
</g>
</g>
<!-- Node7&#45;&gt;Node1 -->
<g id="edge6_Node000001_Node000007" class="edge">
<title>Node7&#45;&gt;Node1</title>
<g id="a_edge6_Node000001_Node000007"><a xlink:title=" ">
<path fill="none" stroke="#9a32cd" stroke-dasharray="5,2" d="M931.55,-405.36C976.44,-402.08 1023.56,-396.14 1042.75,-385.38 1081.11,-363.86 1107.26,-315.5 1117.41,-294.01"/>
<polygon fill="#9a32cd" stroke="#9a32cd" points="931.45,-401.86 921.72,-406.04 931.93,-408.84 931.45,-401.86"/>
</a>
</g>
<text xml:space="preserve" text-anchor="start" x="950.12" y="-410.32" font-family="Helvetica,sans-Serif" font-size="10.00" fill="grey">moveRevolutions</text>
</g>
<!-- Node8 -->
<g id="Node000008" class="node">
<title>Node8</title>
<g id="a_Node000008"><a xlink:href="struct__MTR__SetVelocityCmdData.html" target="_top" xlink:title=" ">
<polygon fill="white" stroke="#666666" points="904.75,-377.75 756,-377.75 756,-357 904.75,-357 904.75,-377.75"/>
<text xml:space="preserve" text-anchor="middle" x="830.38" y="-364.25" font-family="Helvetica,sans-Serif" font-size="10.00">_MTR_SetVelocityCmdData</text>
</a>
</g>
</g>
<!-- Node8&#45;&gt;Node1 -->
<g id="edge7_Node000001_Node000008" class="edge">
<title>Node8&#45;&gt;Node1</title>
<g id="a_edge7_Node000001_Node000008"><a xlink:title=" ">
<path fill="none" stroke="#9a32cd" stroke-dasharray="5,2" d="M916.42,-365.42C955.95,-362.19 1002.9,-354.97 1042.75,-339.38 1069.76,-328.8 1096.31,-307.16 1110.82,-294.09"/>
<polygon fill="#9a32cd" stroke="#9a32cd" points="916.18,-361.93 906.46,-366.15 916.69,-368.91 916.18,-361.93"/>
</a>
</g>
<text xml:space="preserve" text-anchor="start" x="965.88" y="-368.23" font-family="Helvetica,sans-Serif" font-size="10.00" fill="grey">setVelocity</text>
</g>
<!-- Node9 -->
<g id="Node000009" class="node">
<title>Node9</title>
<g id="a_Node000009"><a xlink:href="struct__MTR__SetAccelerationCmdData.html" target="_top" xlink:title=" ">
<polygon fill="white" stroke="#666666" points="915.62,-335.75 745.12,-335.75 745.12,-315 915.62,-315 915.62,-335.75"/>
<text xml:space="preserve" text-anchor="middle" x="830.38" y="-322.25" font-family="Helvetica,sans-Serif" font-size="10.00">_MTR_SetAccelerationCmdData</text>
</a>
</g>
</g>
<!-- Node9&#45;&gt;Node1 -->
<g id="edge8_Node000001_Node000009" class="edge">
<title>Node9&#45;&gt;Node1</title>
<g id="a_edge8_Node000001_Node000009"><a xlink:title=" ">
<path fill="none" stroke="#9a32cd" stroke-dasharray="5,2" d="M927.2,-318.33C963.55,-314.89 1005.22,-310.02 1042.75,-303.38 1056.32,-300.97 1071.01,-297.52 1084.01,-294.16"/>
<polygon fill="#9a32cd" stroke="#9a32cd" points="927.25,-314.81 917.61,-319.21 927.89,-321.78 927.25,-314.81"/>
</a>
</g>
<text xml:space="preserve" text-anchor="start" x="955" y="-322.59" font-family="Helvetica,sans-Serif" font-size="10.00" fill="grey">setAcceleration</text>
</g>
<!-- Node10 -->
<g id="Node000010" class="node">
<title>Node10</title>
<g id="a_Node000010"><a xlink:href="struct__MTR__StopCmdData.html" target="_top" xlink:title=" ">
<polygon fill="white" stroke="#666666" points="888.25,-293.75 772.5,-293.75 772.5,-273 888.25,-273 888.25,-293.75"/>
<text xml:space="preserve" text-anchor="middle" x="830.38" y="-280.25" font-family="Helvetica,sans-Serif" font-size="10.00">_MTR_StopCmdData</text>
</a>
</g>
</g>
<!-- Node10&#45;&gt;Node1 -->
<g id="edge9_Node000001_Node000010" class="edge">
<title>Node10&#45;&gt;Node1</title>
<g id="a_edge9_Node000001_Node000010"><a xlink:title=" ">
<path fill="none" stroke="#9a32cd" stroke-dasharray="5,2" d="M899.85,-283.38C948.51,-283.38 1013.31,-283.38 1060.38,-283.38"/>
<polygon fill="#9a32cd" stroke="#9a32cd" points="899.98,-279.88 889.98,-283.38 899.98,-286.88 899.98,-279.88"/>
</a>
</g>
<text xml:space="preserve" text-anchor="start" x="982.38" y="-289.38" font-family="Helvetica,sans-Serif" font-size="10.00" fill="grey">stop</text>
</g>
<!-- Node11 -->
<g id="Node000011" class="node">
<title>Node11</title>
<g id="a_Node000011"><a xlink:href="struct__MTR__GetCurrentAngleCmdData.html" target="_top" xlink:title=" ">
<polygon fill="white" stroke="#666666" points="917.88,-251.75 742.88,-251.75 742.88,-231 917.88,-231 917.88,-251.75"/>
<text xml:space="preserve" text-anchor="middle" x="830.38" y="-238.25" font-family="Helvetica,sans-Serif" font-size="10.00">_MTR_GetCurrentAngleCmdData</text>
</a>
</g>
</g>
<!-- Node11&#45;&gt;Node1 -->
<g id="edge10_Node000001_Node000011" class="edge">
<title>Node11&#45;&gt;Node1</title>
<g id="a_edge10_Node000001_Node000011"><a xlink:title=" ">
<path fill="none" stroke="#9a32cd" stroke-dasharray="5,2" d="M929.71,-246.47C965.5,-249.33 1006.14,-253.78 1042.75,-260.62 1058.39,-263.55 1075.39,-268.22 1089.63,-272.56"/>
<polygon fill="#9a32cd" stroke="#9a32cd" points="930.02,-242.98 919.78,-245.71 929.48,-249.96 930.02,-242.98"/>
</a>
</g>
<text xml:space="preserve" text-anchor="start" x="953.12" y="-266.62" font-family="Helvetica,sans-Serif" font-size="10.00" fill="grey">getCurrentAngle</text>
</g>
<!-- Node12 -->
<g id="Node000012" class="node">
<title>Node12</title>
<g id="a_Node000012"><a xlink:href="struct__MTR__GetMovementStateCmdData.html" target="_top" xlink:title=" ">
<polygon fill="white" stroke="#666666" points="925,-209.75 735.75,-209.75 735.75,-189 925,-189 925,-209.75"/>
<text xml:space="preserve" text-anchor="middle" x="830.38" y="-196.25" font-family="Helvetica,sans-Serif" font-size="10.00">_MTR_GetMovementStateCmdData</text>
</a>
</g>
</g>
<!-- Node12&#45;&gt;Node1 -->
<g id="edge11_Node000001_Node000012" class="edge">
<title>Node12&#45;&gt;Node1</title>
<g id="a_edge11_Node000001_Node000012"><a xlink:title=" ">
<path fill="none" stroke="#9a32cd" stroke-dasharray="5,2" d="M936.63,-201.23C971.37,-204.63 1009.59,-211.45 1042.75,-224.62 1070.48,-235.64 1097.18,-258.82 1111.44,-272.54"/>
<polygon fill="#9a32cd" stroke="#9a32cd" points="937.26,-197.77 926.99,-200.38 936.65,-204.75 937.26,-197.77"/>
</a>
</g>
<text xml:space="preserve" text-anchor="start" x="946" y="-230.62" font-family="Helvetica,sans-Serif" font-size="10.00" fill="grey">getMovementState</text>
</g>
<!-- Node13 -->
<g id="Node000013" class="node">
<title>Node13</title>
<g id="a_Node000013"><a xlink:href="struct__MTR__WaitUntilStoppedCmdData.html" target="_top" xlink:title=" ">
<polygon fill="white" stroke="#666666" points="919.75,-167.75 741,-167.75 741,-147 919.75,-147 919.75,-167.75"/>
<text xml:space="preserve" text-anchor="middle" x="830.38" y="-154.25" font-family="Helvetica,sans-Serif" font-size="10.00">_MTR_WaitUntilStoppedCmdData</text>
</a>
</g>
</g>
<!-- Node13&#45;&gt;Node1 -->
<g id="edge12_Node000001_Node000013" class="edge">
<title>Node13&#45;&gt;Node1</title>
<g id="a_edge12_Node000001_Node000013"><a xlink:title=" ">
<path fill="none" stroke="#9a32cd" stroke-dasharray="5,2" d="M931.54,-151.76C968.49,-153.72 1009.43,-160.93 1042.75,-179.62 1081.52,-201.38 1107.45,-250.64 1117.48,-272.53"/>
<polygon fill="#9a32cd" stroke="#9a32cd" points="931.85,-148.27 921.72,-151.37 931.58,-155.26 931.85,-148.27"/>
</a>
</g>
<text xml:space="preserve" text-anchor="start" x="950.88" y="-185.62" font-family="Helvetica,sans-Serif" font-size="10.00" fill="grey">waitUntilStopped</text>
</g>
<!-- Node14&#45;&gt;Node1 -->
<g id="edge13_Node000001_Node000014" class="edge">
<title>Node14&#45;&gt;Node1</title>
<g id="a_edge13_Node000001_Node000014"><a xlink:title=" ">
<path fill="none" stroke="#9a32cd" stroke-dasharray="5,2" d="M935.24,-501.94C972.24,-500.62 1012.26,-492.8 1042.75,-470.38 1102.98,-426.07 1117.89,-326.9 1121.23,-294.12"/>
<polygon fill="#9a32cd" stroke="#9a32cd" points="935.31,-498.44 925.38,-502.12 935.44,-505.44 935.31,-498.44"/>
</a>
</g>
<text xml:space="preserve" text-anchor="start" x="947.12" y="-507.33" font-family="Helvetica,sans-Serif" font-size="10.00" fill="grey">synchronizedMove</text>
</g>
<!-- Node15 -->
<g id="Node000015" class="node">
<title>Node15</title>
<g id="a_Node000015"><a xlink:href="struct__MTR__SetRunCurrentCmdData.html" target="_top" xlink:title=" ">
<polygon fill="white" stroke="#666666" points="912.62,-125.75 748.12,-125.75 748.12,-105 912.62,-105 912.62,-125.75"/>
<text xml:space="preserve" text-anchor="middle" x="830.38" y="-112.25" font-family="Helvetica,sans-Serif" font-size="10.00">_MTR_SetRunCurrentCmdData</text>
</a>
</g>
</g>
<!-- Node15&#45;&gt;Node1 -->
<g id="edge15_Node000001_Node000015" class="edge">
<title>Node15&#45;&gt;Node1</title>
<g id="a_edge15_Node000001_Node000015"><a xlink:title=" ">
<path fill="none" stroke="#9a32cd" stroke-dasharray="5,2" d="M902.9,-103.47C946.69,-100 1001.96,-102.86 1042.75,-129.62 1094.99,-163.91 1114.74,-243.98 1120.31,-272.8"/>
<polygon fill="#9a32cd" stroke="#9a32cd" points="902.59,-99.98 892.96,-104.39 903.24,-106.95 902.59,-99.98"/>
</a>
</g>
<text xml:space="preserve" text-anchor="start" x="958" y="-135.62" font-family="Helvetica,sans-Serif" font-size="10.00" fill="grey">setRunCurrent</text>
</g>
<!-- Node16 -->
<g id="Node000016" class="node">
<title>Node16</title>
<g id="a_Node000016"><a xlink:href="struct__MTR__SetHoldCurrentCmdData.html" target="_top" xlink:title=" ">
<polygon fill="white" stroke="#666666" points="914.5,-83.75 746.25,-83.75 746.25,-63 914.5,-63 914.5,-83.75"/>
<text xml:space="preserve" text-anchor="middle" x="830.38" y="-70.25" font-family="Helvetica,sans-Serif" font-size="10.00">_MTR_SetHoldCurrentCmdData</text>
</a>
</g>
</g>
<!-- Node16&#45;&gt;Node1 -->
<g id="edge16_Node000001_Node000016" class="edge">
<title>Node16&#45;&gt;Node1</title>
<g id="a_edge16_Node000001_Node000016"><a xlink:title=" ">
<path fill="none" stroke="#9a32cd" stroke-dasharray="5,2" d="M882.11,-60.26C928.28,-51.47 996.15,-46.75 1042.75,-79.62 1109.13,-126.46 1120,-237.37 1121.78,-272.5"/>
<polygon fill="#9a32cd" stroke="#9a32cd" points="881.44,-56.83 872.34,-62.26 882.84,-63.69 881.44,-56.83"/>
</a>
</g>
<text xml:space="preserve" text-anchor="start" x="956.12" y="-85.62" font-family="Helvetica,sans-Serif" font-size="10.00" fill="grey">setHoldCurrent</text>
</g>
<!-- Node17 -->
<g id="Node000017" class="node">
<title>Node17</title>
<g id="a_Node000017"><a xlink:href="struct__MTR__InitMotorCmdData.html" target="_top" xlink:title=" ">
<polygon fill="white" stroke="#666666" points="899.5,-41.75 761.25,-41.75 761.25,-21 899.5,-21 899.5,-41.75"/>
<text xml:space="preserve" text-anchor="middle" x="830.38" y="-28.25" font-family="Helvetica,sans-Serif" font-size="10.00">_MTR_InitMotorCmdData</text>
</a>
</g>
</g>
<!-- Node17&#45;&gt;Node1 -->
<g id="edge17_Node000001_Node000017" class="edge">
<title>Node17&#45;&gt;Node1</title>
<g id="a_edge17_Node000001_Node000017"><a xlink:title=" ">
<path fill="none" stroke="#9a32cd" stroke-dasharray="5,2" d="M874.09,-17.55C920.33,-5.45 993.97,5.19 1042.75,-30.62 1123.76,-90.09 1124.31,-232.17 1122.73,-272.52"/>
<polygon fill="#9a32cd" stroke="#9a32cd" points="873.41,-14.11 864.7,-20.15 875.27,-20.86 873.41,-14.11"/>
</a>
</g>
<text xml:space="preserve" text-anchor="start" x="970.75" y="-36.62" font-family="Helvetica,sans-Serif" font-size="10.00" fill="grey">initMotor</text>
</g>
<!-- Node18 -->
<g id="Node000018" class="node">
<title>Node18</title>
<g id="a_Node000018"><a xlink:href="struct__MTR__MotorConfig.html" target="_top" xlink:title="Configuration structure for initializing one motor instance.">
<polygon fill="white" stroke="#666666" points="642.75,-41.75 535.25,-41.75 535.25,-21 642.75,-21 642.75,-41.75"/>
<text xml:space="preserve" text-anchor="middle" x="589" y="-28.25" font-family="Helvetica,sans-Serif" font-size="10.00">_MTR_MotorConfig</text>
</a>
</g>
</g>
<!-- Node18&#45;&gt;Node17 -->
<g id="edge18_Node000017_Node000018" class="edge">
<title>Node18&#45;&gt;Node17</title>
<g id="a_edge18_Node000017_Node000018"><a xlink:title=" ">
<path fill="none" stroke="#9a32cd" stroke-dasharray="5,2" d="M654.45,-31.38C687.38,-31.38 727.44,-31.38 760.92,-31.38"/>
<polygon fill="#9a32cd" stroke="#9a32cd" points="654.64,-27.88 644.64,-31.38 654.64,-34.88 654.64,-27.88"/>
</a>
</g>
<text xml:space="preserve" text-anchor="start" x="681" y="-37.38" font-family="Helvetica,sans-Serif" font-size="10.00" fill="grey">config</text>
</g>
<!-- Node19 -->
<g id="Node000019" class="node">
<title>Node19</title>
<g id="a_Node000019"><a xlink:href="struct__MTR__MotorTmcConfig.html" target="_top" xlink:title="TMC2209&#45;related configuration values for one motor.">
<polygon fill="white" stroke="#666666" points="401,-62.75 272.5,-62.75 272.5,-42 401,-42 401,-62.75"/>
<text xml:space="preserve" text-anchor="middle" x="336.75" y="-49.25" font-family="Helvetica,sans-Serif" font-size="10.00">_MTR_MotorTmcConfig</text>
</a>
</g>
</g>
<!-- Node19&#45;&gt;Node18 -->
<g id="edge19_Node000018_Node000019" class="edge">
<title>Node19&#45;&gt;Node18</title>
<g id="a_edge19_Node000018_Node000019"><a xlink:title=" ">
<path fill="none" stroke="#9a32cd" stroke-dasharray="5,2" d="M412.66,-46.09C452.12,-42.78 499.57,-38.8 535.16,-35.81"/>
<polygon fill="#9a32cd" stroke="#9a32cd" points="412.4,-42.6 402.73,-46.92 412.99,-49.57 412.4,-42.6"/>
</a>
</g>
<text xml:space="preserve" text-anchor="start" x="441.12" y="-50.37" font-family="Helvetica,sans-Serif" font-size="10.00" fill="grey">tmcConfig</text>
</g>
<!-- Node20 -->
<g id="Node000020" class="node">
<title>Node20</title>
<g id="a_Node000020"><a xlink:href="struct__MTR__MotorStepperConfig.html" target="_top" xlink:title="Step generation hardware configuration for one motor.">
<polygon fill="white" stroke="#666666" points="409.25,-20.75 264.25,-20.75 264.25,0 409.25,0 409.25,-20.75"/>
<text xml:space="preserve" text-anchor="middle" x="336.75" y="-7.25" font-family="Helvetica,sans-Serif" font-size="10.00">_MTR_MotorStepperConfig</text>
</a>
</g>
</g>
<!-- Node20&#45;&gt;Node18 -->
<g id="edge20_Node000018_Node000020" class="edge">
<title>Node20&#45;&gt;Node18</title>
<g id="a_edge20_Node000018_Node000020"><a xlink:title=" ">
<path fill="none" stroke="#9a32cd" stroke-dasharray="5,2" d="M421,-10.46C447.72,-11.17 477.42,-12.66 504.5,-15.62 515.21,-16.8 526.59,-18.58 537.41,-20.53"/>
<polygon fill="#9a32cd" stroke="#9a32cd" points="421.33,-6.97 411.25,-10.24 421.17,-13.97 421.33,-6.97"/>
</a>
</g>
<text xml:space="preserve" text-anchor="start" x="432.12" y="-21.62" font-family="Helvetica,sans-Serif" font-size="10.00" fill="grey">stepperConfig</text>
</g>
</g>
</svg>

<g id="navigator" transform="translate(0 0)" fill="#404254">
  <rect fill="#f2f5e9" fill-opacity="0.5" stroke="#606060" stroke-width=".5" x="0" y="0" width="60" height="60"/>
  <use id="zoomplus" xlink:href="#zoomPlus" x="17" y="9" onmousedown="handleZoom(evt,'in')"/>
  <use id="zoomminus" xlink:href="#zoomMin" x="42" y="9" onmousedown="handleZoom(evt,'out')"/>
  <use id="reset" xlink:href="#resetDef" x="30" y="36" onmousedown="handleReset()"/>
   <use id="arrowup" xlink:href="#arrowUp" x="0" y="0" onmousedown="handlePan(0,-1)"/>
  <use id="arrowright" xlink:href="#arrowRight" x="0" y="0" onmousedown="handlePan(1,0)"/>
  <use id="arrowdown" xlink:href="#arrowDown" x="0" y="0" onmousedown="handlePan(0,1)"/>
  <use id="arrowleft" xlink:href="#arrowLeft" x="0" y="0" onmousedown="handlePan(-1,0)"/>
</g>
<svg viewBox="0 0 15 15" width="100%" height="30px" preserveAspectRatio="xMaxYMin meet">
 <g id="arrow_out" transform="scale(0.3 0.3)">
  <a xlink:href="struct__MTR__CmdQueueItem__coll__graph_org.svg" target="_base">
   <rect id="button" ry="5" rx="5" y="6" x="6" height="38" width="38"
        fill="#f2f5e9" fill-opacity="0.5" stroke="#606060" stroke-width="1.0"/>
   <path id="arrow"
     d="M 11.500037,31.436501 C 11.940474,20.09759 22.043105,11.32322 32.158766,21.979434 L 37.068811,17.246167 C 37.068811,17.246167 37.088388,32 37.088388,32 L 22.160133,31.978069 C 22.160133,31.978069 26.997745,27.140456 26.997745,27.140456 C 18.528582,18.264221 13.291696,25.230495 11.500037,31.436501 z"
     style="fill:#404040;"/>
  </a>
 </g>
</svg>

<style type='text/css'>
<![CDATA[
[data-mouse-over-selected='false'] { opacity: 0.7; }
[data-mouse-over-selected='true']  { opacity: 1.0; }
]]>
</style>
<script type="application/ecmascript"><![CDATA[
document.addEventListener('DOMContentLoaded', (event) => {
  highlightEdges();
  highlightAdjacentNodes();
});
]]></script>
</svg>
