<?xml version="1.0" encoding="UTF-8" standalone="no"?>
<!DOCTYPE svg PUBLIC "-//W3C//DTD SVG 1.1//EN"
 "http://www.w3.org/Graphics/SVG/1.1/DTD/svg11.dtd">
<!-- Generated by graphviz version 14.1.4 (0)
 -->
<!-- Title: _STP_CmdQueueItem Pages: 1 -->
<!--zoomable 323 -->

<svg id="main" version="1.1" xmlns="http://www.w3.org/2000/svg" xmlns:xlink="http://www.w3.org/1999/xlink" xml:space="preserve" onload="init(evt)">

<style type="text/css"><![CDATA[
.node, .edge {opacity: 0.7;}
.node.selected, .edge.selected {opacity: 1;}
.edge:hover path { stroke: red; }
.edge:hover polygon { stroke: red; fill: red; }
]]></style>

<defs>
  <circle id="rim" cx="0" cy="0" r="7"/>
  <circle id="rim2" cx="0" cy="0" r="3.5"/>
  <g id="zoomPlus">
    <use xlink:href="#rim" fill="#404040"><set attributeName="fill" to="#808080" begin="zoomplus.mouseover" end="zoomplus.mouseout"/></use>
    <path d="M-4,0h8M0,-4v8" fill="none" stroke="white" stroke-width="1.5" pointer-events="none"/>
  </g>
  <g id="zoomMin">
    <use xlink:href="#rim" fill="#404040"><set attributeName="fill" to="#808080" begin="zoomminus.mouseover" end="zoomminus.mouseout"/></use>
    <path d="M-4,0h8" fill="none" stroke="white" stroke-width="1.5" pointer-events="none"/>
  </g>
  <g id="arrowUp" transform="translate(30 24)">
    <use xlink:href="#rim"/>
    <path pointer-events="none" fill="none" stroke="white" stroke-width="1.5" d="M0,-3.0v7 M-2.5,-0.5L0,-3.0L2.5,-0.5"/>
  </g>
  <g id="arrowRight" transform="rotate(90) translate(36 -43)">
    <use xlink:href="#rim"/>
    <path pointer-events="none" fill="none" stroke="white" stroke-width="1.5" d="M0,-3.0v7 M-2.5,-0.5L0,-3.0L2.5,-0.5"/>
  </g>
  <g id="arrowDown" transform="rotate(180) translate(-30 -48)">
    <use xlink:href="#rim"/>
    <path pointer-events="none" fill="none" stroke="white" stroke-width="1.5" d="M0,-3.0v7 M-2.5,-0.5L0,-3.0L2.5,-0.5"/>
  </g>
  <g id="arrowLeft" transform="rotate(270) translate(-36 17)">
    <use xlink:href="#rim"/>
    <path pointer-events="none" fill="none" stroke="white" stroke-width="1.5" d="M0,-3.0v7 M-2.5,-0.5L0,-3.0L2.5,-0.5"/>
  </g>
  <g id="resetDef">
    <use xlink:href="#rim2" fill="#404040"><set attributeName="fill" to="#808080" begin="reset.mouseover" end="reset.mouseout"/></use>
  </g>
</defs>
<script type="application/ecmascript">
var viewWidth = 900;
var viewHeight = 323;
var sectionId = 'dynsection-0';
</script>
<script type="application/ecmascript" xlink:href="svg.min.js"/>
<svg id="graph" class="graph">
<g id="viewport">
<title>_STP_CmdQueueItem</title>
<!-- Node1 -->
<g id="Node000001" class="node">
<title>Node1</title>
<g id="a_Node000001"><a xlink:title=" ">
<polygon fill="#999999" stroke="#666666" points="892,-146.75 771,-146.75 771,-126 892,-126 892,-146.75"/>
<text xml:space="preserve" text-anchor="middle" x="831.5" y="-133.25" font-family="Helvetica,sans-Serif" font-size="10.00">_STP_CmdQueueItem</text>
</a>
</g>
</g>
<!-- Node2 -->
<g id="Node000002" class="node">
<title>Node2</title>
<g id="a_Node000002"><a xlink:href="struct__STP__StepperHandleImpl.html" target="_top" xlink:title="Handle structure for a stepper motor instance.">
<polygon fill="white" stroke="#666666" points="639,-228.75 500.75,-228.75 500.75,-208 639,-208 639,-228.75"/>
<text xml:space="preserve" text-anchor="middle" x="569.88" y="-215.25" font-family="Helvetica,sans-Serif" font-size="10.00">_STP_StepperHandleImpl</text>
</a>
</g>
</g>
<!-- Node2&#45;&gt;Node1 -->
<g id="edge1_Node000001_Node000002" class="edge">
<title>Node2&#45;&gt;Node1</title>
<g id="a_edge1_Node000001_Node000002"><a xlink:title=" ">
<path fill="none" stroke="#9a32cd" stroke-dasharray="5,2" d="M650.77,-214.67C683.38,-211.1 720.9,-204.28 753,-191.38 779.33,-180.79 805.26,-159.6 819.45,-146.84"/>
<polygon fill="#9a32cd" stroke="#9a32cd" points="650.57,-211.17 640.97,-215.65 651.27,-218.14 650.57,-211.17"/>
</a>
</g>
<text xml:space="preserve" text-anchor="start" x="695.62" y="-217.45" font-family="Helvetica,sans-Serif" font-size="10.00" fill="grey">handle</text>
</g>
<!-- Node3 -->
<g id="Node000003" class="node">
<title>Node3</title>
<g id="a_Node000003"><a xlink:href="struct__STP__StepperMovement.html" target="_top" xlink:title="Structure for tracking stepper motor movement state and parameters.">
<polygon fill="white" stroke="#666666" points="356.75,-228.75 222.25,-228.75 222.25,-208 356.75,-208 356.75,-228.75"/>
<text xml:space="preserve" text-anchor="middle" x="289.5" y="-215.25" font-family="Helvetica,sans-Serif" font-size="10.00">_STP_StepperMovement</text>
</a>
</g>
</g>
<!-- Node3&#45;&gt;Node2 -->
<g id="edge2_Node000002_Node000003" class="edge">
<title>Node3&#45;&gt;Node2</title>
<g id="a_edge2_Node000002_Node000003"><a xlink:title=" ">
<path fill="none" stroke="#9a32cd" stroke-dasharray="5,2" d="M368.52,-217.66C370.62,-217.64 372.7,-217.63 374.75,-217.62 416.42,-217.44 426.83,-217.47 468.5,-217.62 478.78,-217.66 489.66,-217.72 500.3,-217.79"/>
<polygon fill="#9a32cd" stroke="#9a32cd" points="368.67,-214.15 358.7,-217.72 368.72,-221.15 368.67,-214.15"/>
</a>
</g>
<text xml:space="preserve" text-anchor="start" x="377.75" y="-223.62" font-family="Helvetica,sans-Serif" font-size="10.00" fill="grey">movementHandle</text>
</g>
<!-- Node4 -->
<g id="Node000004" class="node">
<title>Node4</title>
<g id="a_Node000004"><a xlink:href="struct__THE__CmdHandleImpl.html" target="_top" xlink:title=" ">
<polygon fill="white" stroke="#666666" points="124.75,-247.75 0,-247.75 0,-227 124.75,-227 124.75,-247.75"/>
<text xml:space="preserve" text-anchor="middle" x="62.38" y="-234.25" font-family="Helvetica,sans-Serif" font-size="10.00">_THE_CmdHandleImpl</text>
</a>
</g>
</g>
<!-- Node4&#45;&gt;Node1 -->
<g id="edge4_Node000001_Node000004" class="edge">
<title>Node4&#45;&gt;Node1</title>
<g id="a_edge4_Node000001_Node000004"><a xlink:title=" ">
<path fill="none" stroke="#9a32cd" stroke-dasharray="5,2" d="M111.91,-251.09C229.48,-281.47 535.86,-343.55 753,-234.38 790.79,-215.37 815.98,-168.46 825.83,-147.18"/>
<polygon fill="#9a32cd" stroke="#9a32cd" points="112.82,-247.71 102.26,-248.55 111.04,-254.48 112.82,-247.71"/>
</a>
</g>
<text xml:space="preserve" text-anchor="start" x="393.88" y="-302.35" font-family="Helvetica,sans-Serif" font-size="10.00" fill="grey">cmdHandle</text>
</g>
<!-- Node4&#45;&gt;Node3 -->
<g id="edge3_Node000003_Node000004" class="edge">
<title>Node4&#45;&gt;Node3</title>
<g id="a_edge3_Node000003_Node000004"><a xlink:title=" ">
<path fill="none" stroke="#9a32cd" stroke-dasharray="5,2" d="M136.12,-226.32C138.35,-226.07 140.57,-225.84 142.75,-225.62 168.59,-223.08 197.11,-221.41 222.01,-220.32"/>
<polygon fill="#9a32cd" stroke="#9a32cd" points="135.85,-222.83 126.34,-227.49 136.68,-229.78 135.85,-222.83"/>
</a>
</g>
<text xml:space="preserve" text-anchor="start" x="145.75" y="-231.62" font-family="Helvetica,sans-Serif" font-size="10.00" fill="grey">cmdHandle</text>
</g>
<!-- Node5 -->
<g id="Node000005" class="node">
<title>Node5</title>
<g id="a_Node000005"><a xlink:href="struct__STP__MoveCmdData.html" target="_top" xlink:title=" ">
<polygon fill="white" stroke="#666666" points="628.5,-188.75 511.25,-188.75 511.25,-168 628.5,-168 628.5,-188.75"/>
<text xml:space="preserve" text-anchor="middle" x="569.88" y="-175.25" font-family="Helvetica,sans-Serif" font-size="10.00">_STP_MoveCmdData</text>
</a>
</g>
</g>
<!-- Node5&#45;&gt;Node1 -->
<g id="edge5_Node000001_Node000005" class="edge">
<title>Node5&#45;&gt;Node1</title>
<g id="a_edge5_Node000001_Node000005"><a xlink:title=" ">
<path fill="none" stroke="#9a32cd" stroke-dasharray="5,2" d="M639.88,-172.21C674.07,-168.61 715.88,-163.37 753,-156.38 766.11,-153.9 780.28,-150.47 792.88,-147.15"/>
<polygon fill="#9a32cd" stroke="#9a32cd" points="639.69,-168.71 630.1,-173.22 640.4,-175.68 639.69,-168.71"/>
</a>
</g>
<text xml:space="preserve" text-anchor="start" x="698.25" y="-174.4" font-family="Helvetica,sans-Serif" font-size="10.00" fill="grey">move</text>
</g>
<!-- Node6 -->
<g id="Node000006" class="node">
<title>Node6</title>
<g id="a_Node000006"><a xlink:href="struct__STP__StopCmdData.html" target="_top" xlink:title=" ">
<polygon fill="white" stroke="#666666" points="625.88,-146.75 513.88,-146.75 513.88,-126 625.88,-126 625.88,-146.75"/>
<text xml:space="preserve" text-anchor="middle" x="569.88" y="-133.25" font-family="Helvetica,sans-Serif" font-size="10.00">_STP_StopCmdData</text>
</a>
</g>
</g>
<!-- Node6&#45;&gt;Node1 -->
<g id="edge6_Node000001_Node000006" class="edge">
<title>Node6&#45;&gt;Node1</title>
<g id="a_edge6_Node000001_Node000006"><a xlink:title=" ">
<path fill="none" stroke="#9a32cd" stroke-dasharray="5,2" d="M637.53,-136.38C678.64,-136.38 730.91,-136.38 770.68,-136.38"/>
<polygon fill="#9a32cd" stroke="#9a32cd" points="637.77,-132.88 627.77,-136.38 637.77,-139.88 637.77,-132.88"/>
</a>
</g>
<text xml:space="preserve" text-anchor="start" x="701.62" y="-142.38" font-family="Helvetica,sans-Serif" font-size="10.00" fill="grey">stop</text>
</g>
<!-- Node7 -->
<g id="Node000007" class="node">
<title>Node7</title>
<g id="a_Node000007"><a xlink:href="struct__STP__InitHandleCmdData.html" target="_top" xlink:title=" ">
<polygon fill="white" stroke="#666666" points="640.12,-104.75 499.62,-104.75 499.62,-84 640.12,-84 640.12,-104.75"/>
<text xml:space="preserve" text-anchor="middle" x="569.88" y="-91.25" font-family="Helvetica,sans-Serif" font-size="10.00">_STP_InitHandleCmdData</text>
</a>
</g>
</g>
<!-- Node7&#45;&gt;Node1 -->
<g id="edge7_Node000001_Node000007" class="edge">
<title>Node7&#45;&gt;Node1</title>
<g id="a_edge7_Node000001_Node000007"><a xlink:title=" ">
<path fill="none" stroke="#9a32cd" stroke-dasharray="5,2" d="M651.95,-99.79C683.66,-102.73 720.22,-107.14 753,-113.62 768.13,-116.62 784.57,-121.24 798.39,-125.54"/>
<polygon fill="#9a32cd" stroke="#9a32cd" points="652.28,-96.31 642.01,-98.91 651.66,-103.28 652.28,-96.31"/>
</a>
</g>
<text xml:space="preserve" text-anchor="start" x="697.5" y="-119.62" font-family="Helvetica,sans-Serif" font-size="10.00" fill="grey">config</text>
</g>
<!-- Node8 -->
<g id="Node000008" class="node">
<title>Node8</title>
<g id="a_Node000008"><a xlink:href="struct__STP__StepperConfig.html" target="_top" xlink:title="Configuration structure for initializing a stepper motor.">
<polygon fill="white" stroke="#666666" points="345.88,-104.75 233.12,-104.75 233.12,-84 345.88,-84 345.88,-104.75"/>
<text xml:space="preserve" text-anchor="middle" x="289.5" y="-91.25" font-family="Helvetica,sans-Serif" font-size="10.00">_STP_StepperConfig</text>
</a>
</g>
</g>
<!-- Node8&#45;&gt;Node7 -->
<g id="edge8_Node000007_Node000008" class="edge">
<title>Node8&#45;&gt;Node7</title>
<g id="a_edge8_Node000007_Node000008"><a xlink:title=" ">
<path fill="none" stroke="#9a32cd" stroke-dasharray="5,2" d="M357.61,-94.38C400.46,-94.38 455.89,-94.38 499.22,-94.38"/>
<polygon fill="#9a32cd" stroke="#9a32cd" points="357.68,-90.88 347.68,-94.38 357.68,-97.88 357.68,-90.88"/>
</a>
</g>
<text xml:space="preserve" text-anchor="start" x="407" y="-100.38" font-family="Helvetica,sans-Serif" font-size="10.00" fill="grey">config</text>
</g>
<!-- Node9 -->
<g id="Node000009" class="node">
<title>Node9</title>
<g id="a_Node000009"><a xlink:href="struct__STP__SetAccelerationCmdData.html" target="_top" xlink:title=" ">
<polygon fill="white" stroke="#666666" points="653.25,-62.75 486.5,-62.75 486.5,-42 653.25,-42 653.25,-62.75"/>
<text xml:space="preserve" text-anchor="middle" x="569.88" y="-49.25" font-family="Helvetica,sans-Serif" font-size="10.00">_STP_SetAccelerationCmdData</text>
</a>
</g>
</g>
<!-- Node9&#45;&gt;Node1 -->
<g id="edge9_Node000001_Node000009" class="edge">
<title>Node9&#45;&gt;Node1</title>
<g id="a_edge9_Node000001_Node000009"><a xlink:title=" ">
<path fill="none" stroke="#9a32cd" stroke-dasharray="5,2" d="M664.4,-57.62C693.58,-61.54 725.34,-68.25 753,-79.62 779.53,-90.54 805.39,-112.4 819.51,-125.58"/>
<polygon fill="#9a32cd" stroke="#9a32cd" points="665.22,-54.2 654.86,-56.44 664.35,-61.14 665.22,-54.2"/>
</a>
</g>
<text xml:space="preserve" text-anchor="start" x="674.25" y="-85.62" font-family="Helvetica,sans-Serif" font-size="10.00" fill="grey">setAcceleration</text>
</g>
<!-- Node10 -->
<g id="Node000010" class="node">
<title>Node10</title>
<g id="a_Node000010"><a xlink:href="struct__STP__SetEndVelocityCmdData.html" target="_top" xlink:title=" ">
<polygon fill="white" stroke="#666666" points="651.38,-20.75 488.38,-20.75 488.38,0 651.38,0 651.38,-20.75"/>
<text xml:space="preserve" text-anchor="middle" x="569.88" y="-7.25" font-family="Helvetica,sans-Serif" font-size="10.00">_STP_SetEndVelocityCmdData</text>
</a>
</g>
</g>
<!-- Node10&#45;&gt;Node1 -->
<g id="edge10_Node000001_Node000010" class="edge">
<title>Node10&#45;&gt;Node1</title>
<g id="a_edge10_Node000001_Node000010"><a xlink:title=" ">
<path fill="none" stroke="#9a32cd" stroke-dasharray="5,2" d="M663.28,-10.14C693.51,-13.49 726.19,-21.03 753,-36.62 789.97,-58.12 815.58,-104.75 825.69,-125.74"/>
<polygon fill="#9a32cd" stroke="#9a32cd" points="663.63,-6.66 653.34,-9.19 662.96,-13.62 663.63,-6.66"/>
</a>
</g>
<text xml:space="preserve" text-anchor="start" x="676.12" y="-42.62" font-family="Helvetica,sans-Serif" font-size="10.00" fill="grey">setEndVelocity</text>
</g>
</g>
</svg>

<g id="navigator" transform="translate(0 0)" fill="#404254">
  <rect fill="#f2f5e9" fill-opacity="0.5" stroke="#606060" stroke-width=".5" x="0" y="0" width="60" height="60"/>
  <use id="zoomplus" xlink:href="#zoomPlus" x="17" y="9" onmousedown="handleZoom(evt,'in')"/>
  <use id="zoomminus" xlink:href="#zoomMin" x="42" y="9" onmousedown="handleZoom(evt,'out')"/>
  <use id="reset" xlink:href="#resetDef" x="30" y="36" onmousedown="handleReset()"/>
   <use id="arrowup" xlink:href="#arrowUp" x="0" y="0" onmousedown="handlePan(0,-1)"/>
  <use id="arrowright" xlink:href="#arrowRight" x="0" y="0" onmousedown="handlePan(1,0)"/>
  <use id="arrowdown" xlink:href="#arrowDown" x="0" y="0" onmousedown="handlePan(0,1)"/>
  <use id="arrowleft" xlink:href="#arrowLeft" x="0" y="0" onmousedown="handlePan(-1,0)"/>
</g>
<svg viewBox="0 0 15 15" width="100%" height="30px" preserveAspectRatio="xMaxYMin meet">
 <g id="arrow_out" transform="scale(0.3 0.3)">
  <a xlink:href="struct__STP__CmdQueueItem__coll__graph_org.svg" target="_base">
   <rect id="button" ry="5" rx="5" y="6" x="6" height="38" width="38"
        fill="#f2f5e9" fill-opacity="0.5" stroke="#606060" stroke-width="1.0"/>
   <path id="arrow"
     d="M 11.500037,31.436501 C 11.940474,20.09759 22.043105,11.32322 32.158766,21.979434 L 37.068811,17.246167 C 37.068811,17.246167 37.088388,32 37.088388,32 L 22.160133,31.978069 C 22.160133,31.978069 26.997745,27.140456 26.997745,27.140456 C 18.528582,18.264221 13.291696,25.230495 11.500037,31.436501 z"
     style="fill:#404040;"/>
  </a>
 </g>
</svg>

<style type='text/css'>
<![CDATA[
[data-mouse-over-selected='false'] { opacity: 0.7; }
[data-mouse-over-selected='true']  { opacity: 1.0; }
]]>
</style>
<script type="application/ecmascript"><![CDATA[
document.addEventListener('DOMContentLoaded', (event) => {
  highlightEdges();
  highlightAdjacentNodes();
});
]]></script>
</svg>
