<?xml version="1.0" encoding="UTF-8" standalone="no"?>
<!DOCTYPE svg PUBLIC "-//W3C//DTD SVG 1.1//EN"
 "http://www.w3.org/Graphics/SVG/1.1/DTD/svg11.dtd">
<!-- Generated by graphviz version 14.1.4 (0)
 -->
<!-- Title: _STP_CmdQueueItem Pages: 1 -->
<svg width="902pt" height="323pt"
 viewBox="0.00 0.00 902.00 323.00" xmlns="http://www.w3.org/2000/svg" xmlns:xlink="http://www.w3.org/1999/xlink">
<g id="graph0" class="graph" transform="scale(1 1) rotate(0) translate(4 319.2)">
<title>_STP_CmdQueueItem</title>
<!-- Node1 -->
<g id="Node000001" class="node">
<title>Node1</title>
<g id="a_Node000001"><a xlink:title=" ">
<polygon fill="#999999" stroke="#666666" points="894.25,-146.75 773.25,-146.75 773.25,-126 894.25,-126 894.25,-146.75"/>
<text xml:space="preserve" text-anchor="middle" x="833.75" y="-133.25" font-family="Helvetica,sans-Serif" font-size="10.00">_STP_CmdQueueItem</text>
</a>
</g>
</g>
<!-- Node2 -->
<g id="Node000002" class="node">
<title>Node2</title>
<g id="a_Node000002"><a xlink:href="struct__STP__StepperHandleImpl.html" target="_top" xlink:title="Handle structure for a stepper motor instance.">
<polygon fill="white" stroke="#666666" points="641.25,-228.75 503,-228.75 503,-208 641.25,-208 641.25,-228.75"/>
<text xml:space="preserve" text-anchor="middle" x="572.12" y="-215.25" font-family="Helvetica,sans-Serif" font-size="10.00">_STP_StepperHandleImpl</text>
</a>
</g>
</g>
<!-- Node2&#45;&gt;Node1 -->
<g id="edge1_Node000001_Node000002" class="edge">
<title>Node2&#45;&gt;Node1</title>
<g id="a_edge1_Node000001_Node000002"><a xlink:title=" ">
<path fill="none" stroke="#9a32cd" stroke-dasharray="5,2" d="M653.02,-214.67C685.63,-211.1 723.15,-204.28 755.25,-191.38 781.58,-180.79 807.51,-159.6 821.7,-146.84"/>
<polygon fill="#9a32cd" stroke="#9a32cd" points="652.82,-211.17 643.22,-215.65 653.52,-218.14 652.82,-211.17"/>
</a>
</g>
<text xml:space="preserve" text-anchor="start" x="697.88" y="-217.45" font-family="Helvetica,sans-Serif" font-size="10.00" fill="grey">handle</text>
</g>
<!-- Node3 -->
<g id="Node000003" class="node">
<title>Node3</title>
<g id="a_Node000003"><a xlink:href="struct__STP__StepperMovement.html" target="_top" xlink:title="Structure for tracking stepper motor movement state and parameters.">
<polygon fill="white" stroke="#666666" points="359,-228.75 224.5,-228.75 224.5,-208 359,-208 359,-228.75"/>
<text xml:space="preserve" text-anchor="middle" x="291.75" y="-215.25" font-family="Helvetica,sans-Serif" font-size="10.00">_STP_StepperMovement</text>
</a>
</g>
</g>
<!-- Node3&#45;&gt;Node2 -->
<g id="edge2_Node000002_Node000003" class="edge">
<title>Node3&#45;&gt;Node2</title>
<g id="a_edge2_Node000002_Node000003"><a xlink:title=" ">
<path fill="none" stroke="#9a32cd" stroke-dasharray="5,2" d="M370.77,-217.66C372.87,-217.64 374.95,-217.63 377,-217.62 418.67,-217.44 429.08,-217.47 470.75,-217.62 481.03,-217.66 491.91,-217.72 502.55,-217.79"/>
<polygon fill="#9a32cd" stroke="#9a32cd" points="370.92,-214.15 360.95,-217.72 370.97,-221.15 370.92,-214.15"/>
</a>
</g>
<text xml:space="preserve" text-anchor="start" x="380" y="-223.62" font-family="Helvetica,sans-Serif" font-size="10.00" fill="grey">movementHandle</text>
</g>
<!-- Node4 -->
<g id="Node000004" class="node">
<title>Node4</title>
<g id="a_Node000004"><a xlink:href="struct__CHD__CmdHandleImpl.html" target="_top" xlink:title=" ">
<polygon fill="white" stroke="#666666" points="127,-247.75 0,-247.75 0,-227 127,-227 127,-247.75"/>
<text xml:space="preserve" text-anchor="middle" x="63.5" y="-234.25" font-family="Helvetica,sans-Serif" font-size="10.00">_CHD_CmdHandleImpl</text>
</a>
</g>
</g>
<!-- Node4&#45;&gt;Node1 -->
<g id="edge4_Node000001_Node000004" class="edge">
<title>Node4&#45;&gt;Node1</title>
<g id="a_edge4_Node000001_Node000004"><a xlink:title=" ">
<path fill="none" stroke="#9a32cd" stroke-dasharray="5,2" d="M113.11,-251.11C230.88,-281.55 537.76,-343.73 755.25,-234.38 793.04,-215.37 818.23,-168.46 828.08,-147.18"/>
<polygon fill="#9a32cd" stroke="#9a32cd" points="114.01,-247.73 103.45,-248.57 112.23,-254.5 114.01,-247.73"/>
</a>
</g>
<text xml:space="preserve" text-anchor="start" x="396.12" y="-302.45" font-family="Helvetica,sans-Serif" font-size="10.00" fill="grey">cmdHandle</text>
</g>
<!-- Node4&#45;&gt;Node3 -->
<g id="edge3_Node000003_Node000004" class="edge">
<title>Node4&#45;&gt;Node3</title>
<g id="a_edge3_Node000003_Node000004"><a xlink:title=" ">
<path fill="none" stroke="#9a32cd" stroke-dasharray="5,2" d="M138.44,-226.31C140.65,-226.06 142.84,-225.84 145,-225.62 170.85,-223.1 199.36,-221.44 224.26,-220.35"/>
<polygon fill="#9a32cd" stroke="#9a32cd" points="138.3,-222.8 128.77,-227.45 139.12,-229.75 138.3,-222.8"/>
</a>
</g>
<text xml:space="preserve" text-anchor="start" x="148" y="-231.62" font-family="Helvetica,sans-Serif" font-size="10.00" fill="grey">cmdHandle</text>
</g>
<!-- Node5 -->
<g id="Node000005" class="node">
<title>Node5</title>
<g id="a_Node000005"><a xlink:href="struct__STP__MoveCmdData.html" target="_top" xlink:title=" ">
<polygon fill="white" stroke="#666666" points="630.75,-188.75 513.5,-188.75 513.5,-168 630.75,-168 630.75,-188.75"/>
<text xml:space="preserve" text-anchor="middle" x="572.12" y="-175.25" font-family="Helvetica,sans-Serif" font-size="10.00">_STP_MoveCmdData</text>
</a>
</g>
</g>
<!-- Node5&#45;&gt;Node1 -->
<g id="edge5_Node000001_Node000005" class="edge">
<title>Node5&#45;&gt;Node1</title>
<g id="a_edge5_Node000001_Node000005"><a xlink:title=" ">
<path fill="none" stroke="#9a32cd" stroke-dasharray="5,2" d="M642.13,-172.21C676.32,-168.61 718.13,-163.37 755.25,-156.38 768.36,-153.9 782.53,-150.47 795.13,-147.15"/>
<polygon fill="#9a32cd" stroke="#9a32cd" points="641.94,-168.71 632.35,-173.22 642.65,-175.68 641.94,-168.71"/>
</a>
</g>
<text xml:space="preserve" text-anchor="start" x="700.5" y="-174.4" font-family="Helvetica,sans-Serif" font-size="10.00" fill="grey">move</text>
</g>
<!-- Node6 -->
<g id="Node000006" class="node">
<title>Node6</title>
<g id="a_Node000006"><a xlink:href="struct__STP__StopCmdData.html" target="_top" xlink:title=" ">
<polygon fill="white" stroke="#666666" points="628.12,-146.75 516.12,-146.75 516.12,-126 628.12,-126 628.12,-146.75"/>
<text xml:space="preserve" text-anchor="middle" x="572.12" y="-133.25" font-family="Helvetica,sans-Serif" font-size="10.00">_STP_StopCmdData</text>
</a>
</g>
</g>
<!-- Node6&#45;&gt;Node1 -->
<g id="edge6_Node000001_Node000006" class="edge">
<title>Node6&#45;&gt;Node1</title>
<g id="a_edge6_Node000001_Node000006"><a xlink:title=" ">
<path fill="none" stroke="#9a32cd" stroke-dasharray="5,2" d="M639.78,-136.38C680.89,-136.38 733.16,-136.38 772.93,-136.38"/>
<polygon fill="#9a32cd" stroke="#9a32cd" points="640.02,-132.88 630.02,-136.38 640.02,-139.88 640.02,-132.88"/>
</a>
</g>
<text xml:space="preserve" text-anchor="start" x="703.88" y="-142.38" font-family="Helvetica,sans-Serif" font-size="10.00" fill="grey">stop</text>
</g>
<!-- Node7 -->
<g id="Node000007" class="node">
<title>Node7</title>
<g id="a_Node000007"><a xlink:href="struct__STP__InitHandleCmdData.html" target="_top" xlink:title=" ">
<polygon fill="white" stroke="#666666" points="642.38,-104.75 501.88,-104.75 501.88,-84 642.38,-84 642.38,-104.75"/>
<text xml:space="preserve" text-anchor="middle" x="572.12" y="-91.25" font-family="Helvetica,sans-Serif" font-size="10.00">_STP_InitHandleCmdData</text>
</a>
</g>
</g>
<!-- Node7&#45;&gt;Node1 -->
<g id="edge7_Node000001_Node000007" class="edge">
<title>Node7&#45;&gt;Node1</title>
<g id="a_edge7_Node000001_Node000007"><a xlink:title=" ">
<path fill="none" stroke="#9a32cd" stroke-dasharray="5,2" d="M654.2,-99.79C685.91,-102.73 722.47,-107.14 755.25,-113.62 770.38,-116.62 786.82,-121.24 800.64,-125.54"/>
<polygon fill="#9a32cd" stroke="#9a32cd" points="654.53,-96.31 644.26,-98.91 653.91,-103.28 654.53,-96.31"/>
</a>
</g>
<text xml:space="preserve" text-anchor="start" x="699.75" y="-119.62" font-family="Helvetica,sans-Serif" font-size="10.00" fill="grey">config</text>
</g>
<!-- Node8 -->
<g id="Node000008" class="node">
<title>Node8</title>
<g id="a_Node000008"><a xlink:href="struct__STP__StepperConfig.html" target="_top" xlink:title="Configuration structure for initializing a stepper motor.">
<polygon fill="white" stroke="#666666" points="348.12,-104.75 235.38,-104.75 235.38,-84 348.12,-84 348.12,-104.75"/>
<text xml:space="preserve" text-anchor="middle" x="291.75" y="-91.25" font-family="Helvetica,sans-Serif" font-size="10.00">_STP_StepperConfig</text>
</a>
</g>
</g>
<!-- Node8&#45;&gt;Node7 -->
<g id="edge8_Node000007_Node000008" class="edge">
<title>Node8&#45;&gt;Node7</title>
<g id="a_edge8_Node000007_Node000008"><a xlink:title=" ">
<path fill="none" stroke="#9a32cd" stroke-dasharray="5,2" d="M359.86,-94.38C402.71,-94.38 458.14,-94.38 501.47,-94.38"/>
<polygon fill="#9a32cd" stroke="#9a32cd" points="359.93,-90.88 349.93,-94.38 359.93,-97.88 359.93,-90.88"/>
</a>
</g>
<text xml:space="preserve" text-anchor="start" x="409.25" y="-100.38" font-family="Helvetica,sans-Serif" font-size="10.00" fill="grey">config</text>
</g>
<!-- Node9 -->
<g id="Node000009" class="node">
<title>Node9</title>
<g id="a_Node000009"><a xlink:href="struct__STP__SetAccelerationCmdData.html" target="_top" xlink:title=" ">
<polygon fill="white" stroke="#666666" points="655.5,-62.75 488.75,-62.75 488.75,-42 655.5,-42 655.5,-62.75"/>
<text xml:space="preserve" text-anchor="middle" x="572.12" y="-49.25" font-family="Helvetica,sans-Serif" font-size="10.00">_STP_SetAccelerationCmdData</text>
</a>
</g>
</g>
<!-- Node9&#45;&gt;Node1 -->
<g id="edge9_Node000001_Node000009" class="edge">
<title>Node9&#45;&gt;Node1</title>
<g id="a_edge9_Node000001_Node000009"><a xlink:title=" ">
<path fill="none" stroke="#9a32cd" stroke-dasharray="5,2" d="M666.65,-57.62C695.83,-61.54 727.59,-68.25 755.25,-79.62 781.78,-90.54 807.64,-112.4 821.76,-125.58"/>
<polygon fill="#9a32cd" stroke="#9a32cd" points="667.47,-54.2 657.11,-56.44 666.6,-61.14 667.47,-54.2"/>
</a>
</g>
<text xml:space="preserve" text-anchor="start" x="676.5" y="-85.62" font-family="Helvetica,sans-Serif" font-size="10.00" fill="grey">setAcceleration</text>
</g>
<!-- Node10 -->
<g id="Node000010" class="node">
<title>Node10</title>
<g id="a_Node000010"><a xlink:href="struct__STP__SetEndVelocityCmdData.html" target="_top" xlink:title=" ">
<polygon fill="white" stroke="#666666" points="653.62,-20.75 490.62,-20.75 490.62,0 653.62,0 653.62,-20.75"/>
<text xml:space="preserve" text-anchor="middle" x="572.12" y="-7.25" font-family="Helvetica,sans-Serif" font-size="10.00">_STP_SetEndVelocityCmdData</text>
</a>
</g>
</g>
<!-- Node10&#45;&gt;Node1 -->
<g id="edge10_Node000001_Node000010" class="edge">
<title>Node10&#45;&gt;Node1</title>
<g id="a_edge10_Node000001_Node000010"><a xlink:title=" ">
<path fill="none" stroke="#9a32cd" stroke-dasharray="5,2" d="M665.53,-10.14C695.76,-13.49 728.44,-21.03 755.25,-36.62 792.22,-58.12 817.83,-104.75 827.94,-125.74"/>
<polygon fill="#9a32cd" stroke="#9a32cd" points="665.88,-6.66 655.59,-9.19 665.21,-13.62 665.88,-6.66"/>
</a>
</g>
<text xml:space="preserve" text-anchor="start" x="678.38" y="-42.62" font-family="Helvetica,sans-Serif" font-size="10.00" fill="grey">setEndVelocity</text>
</g>
</g>
</svg>
