<?xml version="1.0" encoding="UTF-8" standalone="no"?>
<!DOCTYPE svg PUBLIC "-//W3C//DTD SVG 1.1//EN"
 "http://www.w3.org/Graphics/SVG/1.1/DTD/svg11.dtd">
<!-- Generated by graphviz version 14.1.4 (0)
 -->
<!-- Title: _MTR_CmdQueueItem Pages: 1 -->
<svg width="1423pt" height="694pt"
 viewBox="0.00 0.00 1423.00 694.00" xmlns="http://www.w3.org/2000/svg" xmlns:xlink="http://www.w3.org/1999/xlink">
<g id="graph0" class="graph" transform="scale(1 1) rotate(0) translate(4 690.08)">
<title>_MTR_CmdQueueItem</title>
<!-- Node1 -->
<g id="Node000001" class="node">
<title>Node1</title>
<g id="a_Node000001"><a xlink:title=" ">
<polygon fill="#999999" stroke="#666666" points="1414.5,-356.7 1289.75,-356.7 1289.75,-335.95 1414.5,-335.95 1414.5,-356.7"/>
<text xml:space="preserve" text-anchor="middle" x="1352.12" y="-343.2" font-family="Helvetica,sans-Serif" font-size="10.00">_MTR_CmdQueueItem</text>
</a>
</g>
</g>
<!-- Node2 -->
<g id="Node000002" class="node">
<title>Node2</title>
<g id="a_Node000002"><a xlink:href="struct__MTR__MotorHandleImpl.html" target="_top" xlink:title=" ">
<polygon fill="white" stroke="#666666" points="877.75,-612.7 744.75,-612.7 744.75,-591.95 877.75,-591.95 877.75,-612.7"/>
<text xml:space="preserve" text-anchor="middle" x="811.25" y="-599.2" font-family="Helvetica,sans-Serif" font-size="10.00">_MTR_MotorHandleImpl</text>
</a>
</g>
</g>
<!-- Node2&#45;&gt;Node1 -->
<g id="edge1_Node000001_Node000002" class="edge">
<title>Node2&#45;&gt;Node1</title>
<g id="a_edge1_Node000001_Node000002"><a xlink:title=" ">
<path fill="none" stroke="#9a32cd" stroke-dasharray="5,2" d="M889.35,-613.8C1004.25,-629.13 1213.19,-649.68 1271.75,-606.33 1313.95,-575.09 1342.75,-401.75 1349.57,-356.92"/>
<polygon fill="#9a32cd" stroke="#9a32cd" points="890.07,-610.36 879.69,-612.49 889.13,-617.3 890.07,-610.36"/>
</a>
</g>
<text xml:space="preserve" text-anchor="start" x="1036.12" y="-638.33" font-family="Helvetica,sans-Serif" font-size="10.00" fill="grey">handle</text>
</g>
<!-- Node15 -->
<g id="Node000015" class="node">
<title>Node15</title>
<g id="a_Node000015"><a xlink:href="struct__MTR__SynchronizedMoveCmdData.html" target="_top" xlink:title=" ">
<polygon fill="white" stroke="#666666" points="1145.75,-584.7 959.5,-584.7 959.5,-563.95 1145.75,-563.95 1145.75,-584.7"/>
<text xml:space="preserve" text-anchor="middle" x="1052.62" y="-571.2" font-family="Helvetica,sans-Serif" font-size="10.00">_MTR_SynchronizedMoveCmdData</text>
</a>
</g>
</g>
<!-- Node2&#45;&gt;Node15 -->
<g id="edge16_Node000015_Node000002" class="edge">
<title>Node2&#45;&gt;Node15</title>
<g id="a_edge16_Node000015_Node000002"><a xlink:title=" ">
<path fill="none" stroke="#9a32cd" stroke-dasharray="5,2" d="M880.74,-589.72C885.81,-588.94 890.86,-588.22 895.75,-587.58 916.22,-584.91 938.27,-582.65 959.16,-580.81"/>
<polygon fill="#9a32cd" stroke="#9a32cd" points="880.46,-586.22 871.13,-591.25 881.56,-593.13 880.46,-586.22"/>
</a>
</g>
<text xml:space="preserve" text-anchor="start" x="898.75" y="-593.58" font-family="Helvetica,sans-Serif" font-size="10.00" fill="grey">handles</text>
</g>
<!-- Node3 -->
<g id="Node000003" class="node">
<title>Node3</title>
<g id="a_Node000003"><a xlink:href="struct__STP__StepperHandleImpl.html" target="_top" xlink:title="Handle structure for a stepper motor instance.">
<polygon fill="white" stroke="#666666" points="628.12,-635.7 489.88,-635.7 489.88,-614.95 628.12,-614.95 628.12,-635.7"/>
<text xml:space="preserve" text-anchor="middle" x="559" y="-622.2" font-family="Helvetica,sans-Serif" font-size="10.00">_STP_StepperHandleImpl</text>
</a>
</g>
</g>
<!-- Node3&#45;&gt;Node2 -->
<g id="edge2_Node000002_Node000003" class="edge">
<title>Node3&#45;&gt;Node2</title>
<g id="a_edge2_Node000002_Node000003"><a xlink:title=" ">
<path fill="none" stroke="#9a32cd" stroke-dasharray="5,2" d="M639.64,-618.01C673.45,-614.9 712.4,-611.32 744.54,-608.37"/>
<polygon fill="#9a32cd" stroke="#9a32cd" points="639.53,-614.51 629.89,-618.91 640.17,-621.48 639.53,-614.51"/>
</a>
</g>
<text xml:space="preserve" text-anchor="start" x="652.5" y="-622.57" font-family="Helvetica,sans-Serif" font-size="10.00" fill="grey">stepperHandle</text>
</g>
<!-- Node4 -->
<g id="Node000004" class="node">
<title>Node4</title>
<g id="a_Node000004"><a xlink:href="struct__STP__StepperMovement.html" target="_top" xlink:title="Structure for tracking stepper motor movement state and parameters.">
<polygon fill="white" stroke="#666666" points="356.75,-638.7 222.25,-638.7 222.25,-617.95 356.75,-617.95 356.75,-638.7"/>
<text xml:space="preserve" text-anchor="middle" x="289.5" y="-625.2" font-family="Helvetica,sans-Serif" font-size="10.00">_STP_StepperMovement</text>
</a>
</g>
</g>
<!-- Node4&#45;&gt;Node3 -->
<g id="edge3_Node000003_Node000004" class="edge">
<title>Node4&#45;&gt;Node3</title>
<g id="a_edge3_Node000003_Node000004"><a xlink:title=" ">
<path fill="none" stroke="#9a32cd" stroke-dasharray="5,2" d="M368.1,-627.46C406.51,-627.03 452.46,-626.51 489.55,-626.1"/>
<polygon fill="#9a32cd" stroke="#9a32cd" points="368.44,-623.95 358.48,-627.57 368.52,-630.95 368.44,-623.95"/>
</a>
</g>
<text xml:space="preserve" text-anchor="start" x="377.75" y="-633.36" font-family="Helvetica,sans-Serif" font-size="10.00" fill="grey">movementHandle</text>
</g>
<!-- Node5 -->
<g id="Node000005" class="node">
<title>Node5</title>
<g id="a_Node000005"><a xlink:href="struct__THE__CmdHandleImpl.html" target="_top" xlink:title=" ">
<polygon fill="white" stroke="#666666" points="124.75,-658.7 0,-658.7 0,-637.95 124.75,-637.95 124.75,-658.7"/>
<text xml:space="preserve" text-anchor="middle" x="62.38" y="-645.2" font-family="Helvetica,sans-Serif" font-size="10.00">_THE_CmdHandleImpl</text>
</a>
</g>
</g>
<!-- Node5&#45;&gt;Node1 -->
<g id="edge6_Node000001_Node000005" class="edge">
<title>Node5&#45;&gt;Node1</title>
<g id="a_edge6_Node000001_Node000005"><a xlink:title=" ">
<path fill="none" stroke="#9a32cd" stroke-dasharray="5,2" d="M136.07,-657.59C180.1,-662.42 237.44,-667.33 288.5,-667.33 288.5,-667.33 288.5,-667.33 1053.62,-667.33 1077.58,-667.33 1270.68,-633.3 1271.75,-632.33 1314.52,-593.77 1343.11,-404.55 1349.68,-357.12"/>
<polygon fill="#9a32cd" stroke="#9a32cd" points="136.72,-654.14 126.39,-656.5 135.94,-661.09 136.72,-654.14"/>
</a>
</g>
<text xml:space="preserve" text-anchor="start" x="660.38" y="-673.33" font-family="Helvetica,sans-Serif" font-size="10.00" fill="grey">cmdHandle</text>
</g>
<!-- Node5&#45;&gt;Node4 -->
<g id="edge4_Node000004_Node000005" class="edge">
<title>Node5&#45;&gt;Node4</title>
<g id="a_edge4_Node000004_Node000005"><a xlink:title=" ">
<path fill="none" stroke="#9a32cd" stroke-dasharray="5,2" d="M132.26,-635.84C135.8,-635.38 139.31,-634.95 142.75,-634.58 168.56,-631.8 197.07,-630.25 221.98,-629.38"/>
<polygon fill="#9a32cd" stroke="#9a32cd" points="131.81,-632.37 122.41,-637.25 132.8,-639.3 131.81,-632.37"/>
</a>
</g>
<text xml:space="preserve" text-anchor="start" x="145.75" y="-640.58" font-family="Helvetica,sans-Serif" font-size="10.00" fill="grey">cmdHandle</text>
</g>
<!-- Node6 -->
<g id="Node000006" class="node">
<title>Node6</title>
<g id="a_Node000006"><a xlink:href="struct__TMC__HandleImpl.html" target="_top" xlink:title=" ">
<polygon fill="white" stroke="#666666" points="611.25,-593.7 506.75,-593.7 506.75,-572.95 611.25,-572.95 611.25,-593.7"/>
<text xml:space="preserve" text-anchor="middle" x="559" y="-580.2" font-family="Helvetica,sans-Serif" font-size="10.00">_TMC_HandleImpl</text>
</a>
</g>
</g>
<!-- Node6&#45;&gt;Node2 -->
<g id="edge5_Node000002_Node000006" class="edge">
<title>Node6&#45;&gt;Node2</title>
<g id="a_edge5_Node000002_Node000006"><a xlink:title=" ">
<path fill="none" stroke="#9a32cd" stroke-dasharray="5,2" d="M622.81,-580.81C654.13,-580.32 692.53,-580.85 726.75,-584.58 740.16,-586.04 754.58,-588.7 767.61,-591.53"/>
<polygon fill="#9a32cd" stroke="#9a32cd" points="623.05,-577.31 613.12,-581.01 623.19,-584.31 623.05,-577.31"/>
</a>
</g>
<text xml:space="preserve" text-anchor="start" x="661.5" y="-590.58" font-family="Helvetica,sans-Serif" font-size="10.00" fill="grey">tmcHandle</text>
</g>
<!-- Node7 -->
<g id="Node000007" class="node">
<title>Node7</title>
<g id="a_Node000007"><a xlink:href="struct__MTR__MoveAngleCmdData.html" target="_top" xlink:title=" ">
<polygon fill="white" stroke="#666666" points="1127,-545.7 978.25,-545.7 978.25,-524.95 1127,-524.95 1127,-545.7"/>
<text xml:space="preserve" text-anchor="middle" x="1052.62" y="-532.2" font-family="Helvetica,sans-Serif" font-size="10.00">_MTR_MoveAngleCmdData</text>
</a>
</g>
</g>
<!-- Node7&#45;&gt;Node1 -->
<g id="edge7_Node000001_Node000007" class="edge">
<title>Node7&#45;&gt;Node1</title>
<g id="a_edge7_Node000001_Node000007"><a xlink:title=" ">
<path fill="none" stroke="#9a32cd" stroke-dasharray="5,2" d="M1138.51,-535.19C1190.34,-533.52 1250.59,-528.24 1271.75,-513.33 1326.86,-474.5 1344.97,-387 1349.7,-356.81"/>
<polygon fill="#9a32cd" stroke="#9a32cd" points="1138.67,-531.68 1128.77,-535.46 1138.86,-538.68 1138.67,-531.68"/>
</a>
</g>
<text xml:space="preserve" text-anchor="start" x="1190.75" y="-539.97" font-family="Helvetica,sans-Serif" font-size="10.00" fill="grey">moveAngle</text>
</g>
<!-- Node8 -->
<g id="Node000008" class="node">
<title>Node8</title>
<g id="a_Node000008"><a xlink:href="struct__MTR__MoveRevolutionsCmdData.html" target="_top" xlink:title=" ">
<polygon fill="white" stroke="#666666" points="1142,-503.7 963.25,-503.7 963.25,-482.95 1142,-482.95 1142,-503.7"/>
<text xml:space="preserve" text-anchor="middle" x="1052.62" y="-490.2" font-family="Helvetica,sans-Serif" font-size="10.00">_MTR_MoveRevolutionsCmdData</text>
</a>
</g>
</g>
<!-- Node8&#45;&gt;Node1 -->
<g id="edge8_Node000001_Node000008" class="edge">
<title>Node8&#45;&gt;Node1</title>
<g id="a_edge8_Node000001_Node000008"><a xlink:title=" ">
<path fill="none" stroke="#9a32cd" stroke-dasharray="5,2" d="M1153.6,-491.6C1201.17,-489.13 1251.92,-483.56 1271.75,-471.33 1315.94,-444.06 1339.81,-382 1347.92,-357.03"/>
<polygon fill="#9a32cd" stroke="#9a32cd" points="1153.58,-488.1 1143.75,-492.07 1153.91,-495.09 1153.58,-488.1"/>
</a>
</g>
<text xml:space="preserve" text-anchor="start" x="1175.75" y="-496.55" font-family="Helvetica,sans-Serif" font-size="10.00" fill="grey">moveRevolutions</text>
</g>
<!-- Node9 -->
<g id="Node000009" class="node">
<title>Node9</title>
<g id="a_Node000009"><a xlink:href="struct__MTR__SetVelocityCmdData.html" target="_top" xlink:title=" ">
<polygon fill="white" stroke="#666666" points="1127,-461.7 978.25,-461.7 978.25,-440.95 1127,-440.95 1127,-461.7"/>
<text xml:space="preserve" text-anchor="middle" x="1052.62" y="-448.2" font-family="Helvetica,sans-Serif" font-size="10.00">_MTR_SetVelocityCmdData</text>
</a>
</g>
</g>
<!-- Node9&#45;&gt;Node1 -->
<g id="edge9_Node000001_Node000009" class="edge">
<title>Node9&#45;&gt;Node1</title>
<g id="a_edge9_Node000001_Node000009"><a xlink:title=" ">
<path fill="none" stroke="#9a32cd" stroke-dasharray="5,2" d="M1138.71,-453.39C1180.59,-451.34 1230.75,-444.13 1271.75,-424.33 1304.11,-408.7 1331.35,-374.61 1343.82,-357.13"/>
<polygon fill="#9a32cd" stroke="#9a32cd" points="1138.78,-449.88 1128.93,-453.77 1139.06,-456.88 1138.78,-449.88"/>
</a>
</g>
<text xml:space="preserve" text-anchor="start" x="1191.5" y="-457.1" font-family="Helvetica,sans-Serif" font-size="10.00" fill="grey">setVelocity</text>
</g>
<!-- Node10 -->
<g id="Node000010" class="node">
<title>Node10</title>
<g id="a_Node000010"><a xlink:href="struct__MTR__SetAccelerationCmdData.html" target="_top" xlink:title=" ">
<polygon fill="white" stroke="#666666" points="1137.88,-419.7 967.38,-419.7 967.38,-398.95 1137.88,-398.95 1137.88,-419.7"/>
<text xml:space="preserve" text-anchor="middle" x="1052.62" y="-406.2" font-family="Helvetica,sans-Serif" font-size="10.00">_MTR_SetAccelerationCmdData</text>
</a>
</g>
</g>
<!-- Node10&#45;&gt;Node1 -->
<g id="edge10_Node000001_Node000010" class="edge">
<title>Node10&#45;&gt;Node1</title>
<g id="a_edge10_Node000001_Node000010"><a xlink:title=" ">
<path fill="none" stroke="#9a32cd" stroke-dasharray="5,2" d="M1149.41,-403.78C1187.94,-399.92 1232.47,-393.39 1271.75,-382.33 1293.16,-376.3 1316.15,-365.33 1331.85,-357.07"/>
<polygon fill="#9a32cd" stroke="#9a32cd" points="1149.31,-400.27 1139.69,-404.7 1149.97,-407.24 1149.31,-400.27"/>
</a>
</g>
<text xml:space="preserve" text-anchor="start" x="1180.62" y="-408.02" font-family="Helvetica,sans-Serif" font-size="10.00" fill="grey">setAcceleration</text>
</g>
<!-- Node11 -->
<g id="Node000011" class="node">
<title>Node11</title>
<g id="a_Node000011"><a xlink:href="struct__MTR__StopCmdData.html" target="_top" xlink:title=" ">
<polygon fill="white" stroke="#666666" points="1110.5,-377.7 994.75,-377.7 994.75,-356.95 1110.5,-356.95 1110.5,-377.7"/>
<text xml:space="preserve" text-anchor="middle" x="1052.62" y="-364.2" font-family="Helvetica,sans-Serif" font-size="10.00">_MTR_StopCmdData</text>
</a>
</g>
</g>
<!-- Node11&#45;&gt;Node1 -->
<g id="edge11_Node000001_Node000011" class="edge">
<title>Node11&#45;&gt;Node1</title>
<g id="a_edge11_Node000001_Node000011"><a xlink:title=" ">
<path fill="none" stroke="#9a32cd" stroke-dasharray="5,2" d="M1122.43,-362.47C1172.83,-358.91 1240.65,-354.13 1289.32,-350.69"/>
<polygon fill="#9a32cd" stroke="#9a32cd" points="1122.22,-358.98 1112.5,-363.17 1122.72,-365.96 1122.22,-358.98"/>
</a>
</g>
<text xml:space="preserve" text-anchor="start" x="1208" y="-365.33" font-family="Helvetica,sans-Serif" font-size="10.00" fill="grey">stop</text>
</g>
<!-- Node12 -->
<g id="Node000012" class="node">
<title>Node12</title>
<g id="a_Node000012"><a xlink:href="struct__MTR__GetCurrentAngleCmdData.html" target="_top" xlink:title=" ">
<polygon fill="white" stroke="#666666" points="1140.12,-335.7 965.12,-335.7 965.12,-314.95 1140.12,-314.95 1140.12,-335.7"/>
<text xml:space="preserve" text-anchor="middle" x="1052.62" y="-322.2" font-family="Helvetica,sans-Serif" font-size="10.00">_MTR_GetCurrentAngleCmdData</text>
</a>
</g>
</g>
<!-- Node12&#45;&gt;Node1 -->
<g id="edge12_Node000001_Node000012" class="edge">
<title>Node12&#45;&gt;Node1</title>
<g id="a_edge12_Node000001_Node000012"><a xlink:title=" ">
<path fill="none" stroke="#9a32cd" stroke-dasharray="5,2" d="M1151.86,-323.32C1189.47,-323.58 1232.7,-325.12 1271.75,-329.58 1283.36,-330.91 1295.79,-333.13 1307.28,-335.54"/>
<polygon fill="#9a32cd" stroke="#9a32cd" points="1151.91,-319.82 1141.9,-323.28 1151.89,-326.82 1151.91,-319.82"/>
</a>
</g>
<text xml:space="preserve" text-anchor="start" x="1178.75" y="-335.58" font-family="Helvetica,sans-Serif" font-size="10.00" fill="grey">getCurrentAngle</text>
</g>
<!-- Node13 -->
<g id="Node000013" class="node">
<title>Node13</title>
<g id="a_Node000013"><a xlink:href="struct__MTR__GetMovementStateCmdData.html" target="_top" xlink:title=" ">
<polygon fill="white" stroke="#666666" points="1147.25,-293.7 958,-293.7 958,-272.95 1147.25,-272.95 1147.25,-293.7"/>
<text xml:space="preserve" text-anchor="middle" x="1052.62" y="-280.2" font-family="Helvetica,sans-Serif" font-size="10.00">_MTR_GetMovementStateCmdData</text>
</a>
</g>
</g>
<!-- Node13&#45;&gt;Node1 -->
<g id="edge13_Node000001_Node000013" class="edge">
<title>Node13&#45;&gt;Node1</title>
<g id="a_edge13_Node000001_Node000013"><a xlink:title=" ">
<path fill="none" stroke="#9a32cd" stroke-dasharray="5,2" d="M1158.83,-282.27C1195.25,-284.35 1235.91,-289.46 1271.75,-300.58 1296.51,-308.26 1321.92,-324.71 1337.11,-335.64"/>
<polygon fill="#9a32cd" stroke="#9a32cd" points="1159.35,-278.79 1149.19,-281.8 1159,-285.79 1159.35,-278.79"/>
</a>
</g>
<text xml:space="preserve" text-anchor="start" x="1171.62" y="-306.58" font-family="Helvetica,sans-Serif" font-size="10.00" fill="grey">getMovementState</text>
</g>
<!-- Node14 -->
<g id="Node000014" class="node">
<title>Node14</title>
<g id="a_Node000014"><a xlink:href="struct__MTR__WaitUntilStoppedCmdData.html" target="_top" xlink:title=" ">
<polygon fill="white" stroke="#666666" points="1142,-251.7 963.25,-251.7 963.25,-230.95 1142,-230.95 1142,-251.7"/>
<text xml:space="preserve" text-anchor="middle" x="1052.62" y="-238.2" font-family="Helvetica,sans-Serif" font-size="10.00">_MTR_WaitUntilStoppedCmdData</text>
</a>
</g>
</g>
<!-- Node14&#45;&gt;Node1 -->
<g id="edge14_Node000001_Node000014" class="edge">
<title>Node14&#45;&gt;Node1</title>
<g id="a_edge14_Node000001_Node000014"><a xlink:title=" ">
<path fill="none" stroke="#9a32cd" stroke-dasharray="5,2" d="M1153.75,-234.5C1192.33,-235.69 1235.74,-241.89 1271.75,-259.58 1306.75,-276.77 1333.71,-316.6 1345.14,-335.72"/>
<polygon fill="#9a32cd" stroke="#9a32cd" points="1154.06,-231.01 1143.99,-234.32 1153.93,-238.01 1154.06,-231.01"/>
</a>
</g>
<text xml:space="preserve" text-anchor="start" x="1176.5" y="-265.58" font-family="Helvetica,sans-Serif" font-size="10.00" fill="grey">waitUntilStopped</text>
</g>
<!-- Node15&#45;&gt;Node1 -->
<g id="edge15_Node000001_Node000015" class="edge">
<title>Node15&#45;&gt;Node1</title>
<g id="a_edge15_Node000001_Node000015"><a xlink:title=" ">
<path fill="none" stroke="#9a32cd" stroke-dasharray="5,2" d="M1124.55,-586.21C1170.9,-589.96 1230.29,-586.67 1271.75,-555.33 1338.32,-505 1349.06,-391.79 1350.79,-356.82"/>
<polygon fill="#9a32cd" stroke="#9a32cd" points="1125.17,-582.75 1114.88,-585.3 1124.51,-589.72 1125.17,-582.75"/>
</a>
</g>
<text xml:space="preserve" text-anchor="start" x="1172.75" y="-593.19" font-family="Helvetica,sans-Serif" font-size="10.00" fill="grey">synchronizedMove</text>
</g>
<!-- Node16 -->
<g id="Node000016" class="node">
<title>Node16</title>
<g id="a_Node000016"><a xlink:href="struct__MTR__SetRunCurrentCmdData.html" target="_top" xlink:title=" ">
<polygon fill="white" stroke="#666666" points="1134.88,-209.7 970.38,-209.7 970.38,-188.95 1134.88,-188.95 1134.88,-209.7"/>
<text xml:space="preserve" text-anchor="middle" x="1052.62" y="-196.2" font-family="Helvetica,sans-Serif" font-size="10.00">_MTR_SetRunCurrentCmdData</text>
</a>
</g>
</g>
<!-- Node16&#45;&gt;Node1 -->
<g id="edge17_Node000001_Node000016" class="edge">
<title>Node16&#45;&gt;Node1</title>
<g id="a_edge17_Node000001_Node000016"><a xlink:title=" ">
<path fill="none" stroke="#9a32cd" stroke-dasharray="5,2" d="M1125.79,-187.42C1170.91,-183.72 1228.46,-186.16 1271.75,-212.58 1318.77,-241.27 1341.26,-309.17 1348.45,-335.57"/>
<polygon fill="#9a32cd" stroke="#9a32cd" points="1125.73,-183.91 1116.11,-188.34 1126.4,-190.88 1125.73,-183.91"/>
</a>
</g>
<text xml:space="preserve" text-anchor="start" x="1183.62" y="-218.58" font-family="Helvetica,sans-Serif" font-size="10.00" fill="grey">setRunCurrent</text>
</g>
<!-- Node17 -->
<g id="Node000017" class="node">
<title>Node17</title>
<g id="a_Node000017"><a xlink:href="struct__MTR__SetHoldCurrentCmdData.html" target="_top" xlink:title=" ">
<polygon fill="white" stroke="#666666" points="1136.75,-167.7 968.5,-167.7 968.5,-146.95 1136.75,-146.95 1136.75,-167.7"/>
<text xml:space="preserve" text-anchor="middle" x="1052.62" y="-154.2" font-family="Helvetica,sans-Serif" font-size="10.00">_MTR_SetHoldCurrentCmdData</text>
</a>
</g>
</g>
<!-- Node17&#45;&gt;Node1 -->
<g id="edge18_Node000001_Node000017" class="edge">
<title>Node17&#45;&gt;Node1</title>
<g id="a_edge18_Node000001_Node000017"><a xlink:title=" ">
<path fill="none" stroke="#9a32cd" stroke-dasharray="5,2" d="M1105.37,-144.23C1152.81,-135.36 1222.91,-130.53 1271.75,-163.58 1332.49,-204.67 1347.06,-303.03 1350.28,-335.63"/>
<polygon fill="#9a32cd" stroke="#9a32cd" points="1104.72,-140.79 1095.61,-146.19 1106.1,-147.65 1104.72,-140.79"/>
</a>
</g>
<text xml:space="preserve" text-anchor="start" x="1181.75" y="-169.58" font-family="Helvetica,sans-Serif" font-size="10.00" fill="grey">setHoldCurrent</text>
</g>
<!-- Node18 -->
<g id="Node000018" class="node">
<title>Node18</title>
<g id="a_Node000018"><a xlink:href="struct__MTR__InitMotorCmdData.html" target="_top" xlink:title=" ">
<polygon fill="white" stroke="#666666" points="1121.75,-128.7 983.5,-128.7 983.5,-107.95 1121.75,-107.95 1121.75,-128.7"/>
<text xml:space="preserve" text-anchor="middle" x="1052.62" y="-115.2" font-family="Helvetica,sans-Serif" font-size="10.00">_MTR_InitMotorCmdData</text>
</a>
</g>
</g>
<!-- Node18&#45;&gt;Node1 -->
<g id="edge19_Node000001_Node000018" class="edge">
<title>Node18&#45;&gt;Node1</title>
<g id="a_edge19_Node000001_Node000018"><a xlink:title=" ">
<path fill="none" stroke="#9a32cd" stroke-dasharray="5,2" d="M1133.27,-107.31C1186.3,-101.76 1250.06,-99.08 1271.75,-114.58 1346.84,-168.23 1351.66,-297.44 1351.39,-335.57"/>
<polygon fill="#9a32cd" stroke="#9a32cd" points="1133.2,-103.8 1123.64,-108.37 1133.97,-110.75 1133.2,-103.8"/>
</a>
</g>
<text xml:space="preserve" text-anchor="start" x="1196.38" y="-120.58" font-family="Helvetica,sans-Serif" font-size="10.00" fill="grey">initMotor</text>
</g>
<!-- Node19 -->
<g id="Node000019" class="node">
<title>Node19</title>
<g id="a_Node000019"><a xlink:href="struct__MTR__MotorConfig.html" target="_top" xlink:title="Configuration structure for initializing one motor instance.">
<polygon fill="white" stroke="#666666" points="865,-128.7 757.5,-128.7 757.5,-107.95 865,-107.95 865,-128.7"/>
<text xml:space="preserve" text-anchor="middle" x="811.25" y="-115.2" font-family="Helvetica,sans-Serif" font-size="10.00">_MTR_MotorConfig</text>
</a>
</g>
</g>
<!-- Node19&#45;&gt;Node18 -->
<g id="edge20_Node000018_Node000019" class="edge">
<title>Node19&#45;&gt;Node18</title>
<g id="a_edge20_Node000018_Node000019"><a xlink:title=" ">
<path fill="none" stroke="#9a32cd" stroke-dasharray="5,2" d="M876.7,-118.33C909.63,-118.33 949.69,-118.33 983.17,-118.33"/>
<polygon fill="#9a32cd" stroke="#9a32cd" points="876.89,-114.83 866.89,-118.33 876.89,-121.83 876.89,-114.83"/>
</a>
</g>
<text xml:space="preserve" text-anchor="start" x="903.25" y="-124.33" font-family="Helvetica,sans-Serif" font-size="10.00" fill="grey">config</text>
</g>
<!-- Node20 -->
<g id="Node000020" class="node">
<title>Node20</title>
<g id="a_Node000020"><a xlink:href="struct__MTR__MotorTmcConfig.html" target="_top" xlink:title="TMC2209&#45;related configuration values for one motor.">
<polygon fill="white" stroke="#666666" points="623.25,-149.7 494.75,-149.7 494.75,-128.95 623.25,-128.95 623.25,-149.7"/>
<text xml:space="preserve" text-anchor="middle" x="559" y="-136.2" font-family="Helvetica,sans-Serif" font-size="10.00">_MTR_MotorTmcConfig</text>
</a>
</g>
</g>
<!-- Node20&#45;&gt;Node19 -->
<g id="edge21_Node000019_Node000020" class="edge">
<title>Node20&#45;&gt;Node19</title>
<g id="a_edge21_Node000019_Node000020"><a xlink:title=" ">
<path fill="none" stroke="#9a32cd" stroke-dasharray="5,2" d="M634.91,-133.04C674.37,-129.73 721.82,-125.75 757.41,-122.76"/>
<polygon fill="#9a32cd" stroke="#9a32cd" points="634.65,-129.55 624.98,-133.88 635.24,-136.53 634.65,-129.55"/>
</a>
</g>
<text xml:space="preserve" text-anchor="start" x="663.38" y="-137.33" font-family="Helvetica,sans-Serif" font-size="10.00" fill="grey">tmcConfig</text>
</g>
<!-- Node21 -->
<g id="Node000021" class="node">
<title>Node21</title>
<g id="a_Node000021"><a xlink:href="struct__MTR__MotorStepperConfig.html" target="_top" xlink:title="Step generation hardware configuration for one motor.">
<polygon fill="white" stroke="#666666" points="631.5,-107.7 486.5,-107.7 486.5,-86.95 631.5,-86.95 631.5,-107.7"/>
<text xml:space="preserve" text-anchor="middle" x="559" y="-94.2" font-family="Helvetica,sans-Serif" font-size="10.00">_MTR_MotorStepperConfig</text>
</a>
</g>
</g>
<!-- Node21&#45;&gt;Node19 -->
<g id="edge22_Node000019_Node000021" class="edge">
<title>Node21&#45;&gt;Node19</title>
<g id="a_edge22_Node000019_Node000021"><a xlink:title=" ">
<path fill="none" stroke="#9a32cd" stroke-dasharray="5,2" d="M643.25,-97.42C669.97,-98.12 699.67,-99.62 726.75,-102.58 737.46,-103.75 748.84,-105.53 759.66,-107.49"/>
<polygon fill="#9a32cd" stroke="#9a32cd" points="643.58,-93.92 633.5,-97.2 643.42,-100.92 643.58,-93.92"/>
</a>
</g>
<text xml:space="preserve" text-anchor="start" x="654.38" y="-108.58" font-family="Helvetica,sans-Serif" font-size="10.00" fill="grey">stepperConfig</text>
</g>
<!-- Node22 -->
<g id="Node000022" class="node">
<title>Node22</title>
<g id="a_Node000022"><a xlink:href="struct__MTR__EnableFreewheellingCmdData.html" target="_top" xlink:title=" ">
<polygon fill="white" stroke="#666666" points="1127.38,-90.08 977.88,-90.08 977.88,-56.58 1127.38,-56.58 1127.38,-90.08"/>
<text xml:space="preserve" text-anchor="start" x="985.88" y="-76.58" font-family="Helvetica,sans-Serif" font-size="10.00">_MTR_EnableFreewheelling</text>
<text xml:space="preserve" text-anchor="middle" x="1052.62" y="-63.83" font-family="Helvetica,sans-Serif" font-size="10.00">CmdData</text>
</a>
</g>
</g>
<!-- Node22&#45;&gt;Node1 -->
<g id="edge23_Node000001_Node000022" class="edge">
<title>Node22&#45;&gt;Node1</title>
<g id="a_edge23_Node000001_Node000022"><a xlink:title=" ">
<path fill="none" stroke="#9a32cd" stroke-dasharray="5,2" d="M1135.19,-54.58C1179.87,-49.19 1233.72,-51.25 1271.75,-80.58 1314.17,-113.29 1342.81,-289.89 1349.58,-335.55"/>
<polygon fill="#9a32cd" stroke="#9a32cd" points="1134.98,-51.08 1125.55,-55.9 1135.93,-58.01 1134.98,-51.08"/>
</a>
</g>
<text xml:space="preserve" text-anchor="start" x="1169.38" y="-86.58" font-family="Helvetica,sans-Serif" font-size="10.00" fill="grey">enableFreewheeling</text>
</g>
<!-- Node23 -->
<g id="Node000023" class="node">
<title>Node23</title>
<g id="a_Node000023"><a xlink:href="struct__MTR__DisableFreewheellingCmdData.html" target="_top" xlink:title=" ">
<polygon fill="white" stroke="#666666" points="1129.25,-38.08 976,-38.08 976,-4.58 1129.25,-4.58 1129.25,-38.08"/>
<text xml:space="preserve" text-anchor="start" x="984" y="-24.58" font-family="Helvetica,sans-Serif" font-size="10.00">_MTR_DisableFreewheelling</text>
<text xml:space="preserve" text-anchor="middle" x="1052.62" y="-11.83" font-family="Helvetica,sans-Serif" font-size="10.00">CmdData</text>
</a>
</g>
</g>
<!-- Node23&#45;&gt;Node1 -->
<g id="edge24_Node000001_Node000023" class="edge">
<title>Node23&#45;&gt;Node1</title>
<g id="a_edge24_Node000001_Node000023"><a xlink:title=" ">
<path fill="none" stroke="#9a32cd" stroke-dasharray="5,2" d="M1134.53,-2.52C1179.62,3.04 1234.11,0.96 1271.75,-29.58 1321.39,-69.85 1345.17,-284.94 1350.13,-335.63"/>
<polygon fill="#9a32cd" stroke="#9a32cd" points="1134.2,0.96 1124.78,-3.88 1135.17,-5.97 1134.2,0.96"/>
</a>
</g>
<text xml:space="preserve" text-anchor="start" x="1168.25" y="-35.58" font-family="Helvetica,sans-Serif" font-size="10.00" fill="grey">disableFreewheeling</text>
</g>
</g>
</svg>
