<?xml version="1.0" encoding="UTF-8" standalone="no"?>
<!DOCTYPE svg PUBLIC "-//W3C//DTD SVG 1.1//EN"
 "http://www.w3.org/Graphics/SVG/1.1/DTD/svg11.dtd">
<!-- Generated by graphviz version 14.1.2 (0)
 -->
<!-- Title: _i2c_master_handle Pages: 1 -->
<svg width="263pt" height="104pt"
 viewBox="0.00 0.00 263.00 104.00" xmlns="http://www.w3.org/2000/svg" xmlns:xlink="http://www.w3.org/1999/xlink">
<g id="graph0" class="graph" transform="scale(1 1) rotate(0) translate(4 100.25)">
<title>_i2c_master_handle</title>
<!-- Node1 -->
<g id="Node000001" class="node">
<title>Node1</title>
<g id="a_Node000001"><a xlink:title="I2C master handle structure.">
<polygon fill="#999999" stroke="#666666" points="169.12,-20.75 55.62,-20.75 55.62,0 169.12,0 169.12,-20.75"/>
<text xml:space="preserve" text-anchor="middle" x="112.38" y="-7.25" font-family="Helvetica,sans-Serif" font-size="10.00">_i2c_master_handle</text>
</a>
</g>
</g>
<!-- Node2 -->
<g id="Node000002" class="node">
<title>Node2</title>
<g id="a_Node000002"><a xlink:href="struct__i2c__master__transfer.html" target="_top" xlink:title="I2C master transfer structure.">
<polygon fill="white" stroke="#666666" points="118.75,-96.25 0,-96.25 0,-75.5 118.75,-75.5 118.75,-96.25"/>
<text xml:space="preserve" text-anchor="middle" x="59.38" y="-82.75" font-family="Helvetica,sans-Serif" font-size="10.00">_i2c_master_transfer</text>
</a>
</g>
</g>
<!-- Node2&#45;&gt;Node1 -->
<g id="edge1_Node000001_Node000002" class="edge">
<title>Node2&#45;&gt;Node1</title>
<g id="a_edge1_Node000001_Node000002"><a xlink:title=" ">
<path fill="none" stroke="#9a32cd" stroke-dasharray="5,2" d="M72.78,-66.29C83.11,-51.96 96.99,-32.71 105.28,-21.22"/>
<polygon fill="#9a32cd" stroke="#9a32cd" points="70.2,-63.88 67.19,-74.04 75.88,-67.97 70.2,-63.88"/>
</a>
</g>
<text xml:space="preserve" text-anchor="start" x="95.18" y="-45" font-family="Helvetica,sans-Serif" font-size="10.00" fill="grey">transfer</text>
</g>
<!-- Node3 -->
<g id="Node000003" class="node">
<title>Node3</title>
<g id="a_Node000003"><a xlink:href="structI2C__Type.html" target="_top" xlink:title=" ">
<polygon fill="white" stroke="#666666" points="196.12,-96.25 136.62,-96.25 136.62,-75.5 196.12,-75.5 196.12,-96.25"/>
<text xml:space="preserve" text-anchor="middle" x="166.38" y="-82.75" font-family="Helvetica,sans-Serif" font-size="10.00">I2C_Type</text>
</a>
</g>
</g>
<!-- Node3&#45;&gt;Node1 -->
<g id="edge2_Node000001_Node000003" class="edge">
<title>Node3&#45;&gt;Node1</title>
<g id="a_edge2_Node000001_Node000003"><a xlink:title=" ">
<path fill="none" stroke="#9a32cd" stroke-dasharray="5,2" d="M156.81,-65.09C152.33,-56.63 146.6,-46.86 140.38,-38.75 135.49,-32.39 129.16,-26.07 123.75,-21.12"/>
<polygon fill="#9a32cd" stroke="#9a32cd" points="153.61,-66.51 161.24,-73.85 159.85,-63.35 153.61,-66.51"/>
</a>
</g>
<text xml:space="preserve" text-anchor="start" x="155.31" y="-45" font-family="Helvetica,sans-Serif" font-size="10.00" fill="grey">completionCallback</text>
</g>
</g>
</svg>
