<?xml version="1.0" encoding="UTF-8" standalone="no"?>
<!DOCTYPE svg PUBLIC "-//W3C//DTD SVG 1.1//EN"
 "http://www.w3.org/Graphics/SVG/1.1/DTD/svg11.dtd">
<!-- Generated by graphviz version 14.1.2 (0)
 -->
<!-- Title: _uart_edma_handle Pages: 1 -->
<svg width="248pt" height="197pt"
 viewBox="0.00 0.00 248.00 197.00" xmlns="http://www.w3.org/2000/svg" xmlns:xlink="http://www.w3.org/1999/xlink">

<svg id="main" version="1.1" xmlns="http://www.w3.org/2000/svg" xmlns:xlink="http://www.w3.org/1999/xlink" xml:space="preserve">

<style type="text/css"><![CDATA[
.node, .edge {opacity: 0.7;}
.node.selected, .edge.selected {opacity: 1;}
.edge:hover path { stroke: red; }
.edge:hover polygon { stroke: red; fill: red; }
]]></style>
<script type="application/ecmascript" xlink:href="svg.min.js"/>
<svg id="graph" class="graph">
<g id="graph0" class="graph" transform="scale(1 1) rotate(0) translate(4 192.5)">
<title>_uart_edma_handle</title>
<!-- Node1 -->
<g id="Node000001" class="node">
<title>Node1</title>
<g id="a_Node000001"><a xlink:title="UART eDMA handle.">
<polygon fill="#999999" stroke="#666666" points="126,-20.75 14,-20.75 14,0 126,0 126,-20.75"/>
<text xml:space="preserve" text-anchor="middle" x="70" y="-7.25" font-family="Helvetica,sans-Serif" font-size="10.00">_uart_edma_handle</text>
</a>
</g>
</g>
<!-- Node2 -->
<g id="Node000002" class="node">
<title>Node2</title>
<g id="a_Node000002"><a xlink:href="structUART__Type.html" target="_top" xlink:title=" ">
<polygon fill="white" stroke="#666666" points="70,-113 0,-113 0,-92.25 70,-92.25 70,-113"/>
<text xml:space="preserve" text-anchor="middle" x="35" y="-99.5" font-family="Helvetica,sans-Serif" font-size="10.00">UART_Type</text>
</a>
</g>
</g>
<!-- Node2&#45;&gt;Node1 -->
<g id="edge1_Node000001_Node000002" class="edge">
<title>Node2&#45;&gt;Node1</title>
<g id="a_edge1_Node000001_Node000002"><a xlink:title=" ">
<path fill="none" stroke="#9a32cd" stroke-dasharray="5,2" d="M37.6,-80.67C39.7,-68.09 43.34,-52.01 49.5,-38.75 52.45,-32.4 57.04,-26.08 61.12,-21.12"/>
<polygon fill="#9a32cd" stroke="#9a32cd" points="34.17,-79.95 36.2,-90.35 41.09,-80.95 34.17,-79.95"/>
</a>
</g>
<text xml:space="preserve" text-anchor="start" x="52.5" y="-53.38" font-family="Helvetica,sans-Serif" font-size="10.00" fill="grey">callback</text>
</g>
<!-- Node3 -->
<g id="Node000003" class="node">
<title>Node3</title>
<g id="a_Node000003"><a xlink:href="struct__edma__handle.html" target="_top" xlink:title="eDMA transfer handle structure">
<polygon fill="white" stroke="#666666" points="175.62,-113 88.38,-113 88.38,-92.25 175.62,-92.25 175.62,-113"/>
<text xml:space="preserve" text-anchor="middle" x="132" y="-99.5" font-family="Helvetica,sans-Serif" font-size="10.00">_edma_handle</text>
</a>
</g>
</g>
<!-- Node3&#45;&gt;Node1 -->
<g id="edge2_Node000001_Node000003" class="edge">
<title>Node3&#45;&gt;Node1</title>
<g id="a_edge2_Node000001_Node000003"><a xlink:title=" ">
<path fill="none" stroke="#9a32cd" stroke-dasharray="5,2" d="M122.21,-81.77C115.54,-69.01 106.11,-52.33 96,-38.75 91.3,-32.44 85.3,-26.03 80.24,-21"/>
<polygon fill="#9a32cd" stroke="#9a32cd" points="118.97,-83.13 126.62,-90.46 125.21,-79.96 118.97,-83.13"/>
</a>
</g>
<text xml:space="preserve" text-anchor="start" x="120.87" y="-61.75" font-family="Helvetica,sans-Serif" font-size="10.00" fill="grey">rxEdmaHandle</text>
<text xml:space="preserve" text-anchor="start" x="120.87" y="-45" font-family="Helvetica,sans-Serif" font-size="10.00" fill="grey">txEdmaHandle</text>
</g>
<!-- Node3&#45;&gt;Node3 -->
<g id="edge3_Node000003_Node000003" class="edge">
<title>Node3&#45;&gt;Node3</title>
<g id="a_edge3_Node000003_Node000003"><a xlink:title=" ">
<path fill="none" stroke="#9a32cd" stroke-dasharray="5,2" d="M187.4,-107.78C191.27,-106.6 193.62,-104.89 193.62,-102.62 193.62,-98.61 186.18,-96.3 176.04,-95.7"/>
<polygon fill="#9a32cd" stroke="#9a32cd" points="186.88,-104.32 177.53,-109.31 187.95,-111.24 186.88,-104.32"/>
</a>
</g>
<text xml:space="preserve" text-anchor="start" x="196.62" y="-99.5" font-family="Helvetica,sans-Serif" font-size="10.00" fill="grey">callback</text>
</g>
<!-- Node4 -->
<g id="Node000004" class="node">
<title>Node4</title>
<g id="a_Node000004"><a xlink:href="structDMA__Type.html" target="_top" xlink:title=" ">
<polygon fill="white" stroke="#666666" points="122.5,-188.5 55.5,-188.5 55.5,-167.75 122.5,-167.75 122.5,-188.5"/>
<text xml:space="preserve" text-anchor="middle" x="89" y="-175" font-family="Helvetica,sans-Serif" font-size="10.00">DMA_Type</text>
</a>
</g>
</g>
<!-- Node4&#45;&gt;Node3 -->
<g id="edge4_Node000003_Node000004" class="edge">
<title>Node4&#45;&gt;Node3</title>
<g id="a_edge4_Node000003_Node000004"><a xlink:title=" ">
<path fill="none" stroke="#9a32cd" stroke-dasharray="5,2" d="M100.36,-157.71C108.69,-143.47 119.65,-124.74 126.24,-113.47"/>
<polygon fill="#9a32cd" stroke="#9a32cd" points="97.41,-155.81 95.39,-166.21 103.46,-159.35 97.41,-155.81"/>
</a>
</g>
<text xml:space="preserve" text-anchor="start" x="118.62" y="-137.25" font-family="Helvetica,sans-Serif" font-size="10.00" fill="grey">base</text>
</g>
<!-- Node5 -->
<g id="Node000005" class="node">
<title>Node5</title>
<g id="a_Node000005"><a xlink:href="struct__edma__tcd.html" target="_top" xlink:title="eDMA TCD.">
<polygon fill="white" stroke="#666666" points="209.62,-188.5 140.38,-188.5 140.38,-167.75 209.62,-167.75 209.62,-188.5"/>
<text xml:space="preserve" text-anchor="middle" x="175" y="-175" font-family="Helvetica,sans-Serif" font-size="10.00">_edma_tcd</text>
</a>
</g>
</g>
<!-- Node5&#45;&gt;Node3 -->
<g id="edge5_Node000003_Node000005" class="edge">
<title>Node5&#45;&gt;Node3</title>
<g id="a_edge5_Node000003_Node000005"><a xlink:title=" ">
<path fill="none" stroke="#9a32cd" stroke-dasharray="5,2" d="M164.28,-157.69C159.66,-149.42 154.14,-139.69 149,-131 145.52,-125.13 141.5,-118.63 138.24,-113.45"/>
<polygon fill="#9a32cd" stroke="#9a32cd" points="161.09,-159.15 169,-166.19 167.21,-155.75 161.09,-159.15"/>
</a>
</g>
<text xml:space="preserve" text-anchor="start" x="162.19" y="-137.25" font-family="Helvetica,sans-Serif" font-size="10.00" fill="grey">tcdPool</text>
</g>
</g>
</svg>
</svg>

<style type='text/css'>
<![CDATA[
[data-mouse-over-selected='false'] { opacity: 0.7; }
[data-mouse-over-selected='true']  { opacity: 1.0; }
]]>
</style>
<script type="application/ecmascript"><![CDATA[
document.addEventListener('DOMContentLoaded', (event) => {
  highlightEdges();
  highlightAdjacentNodes();
});
]]></script>
</svg>
