<?xml version="1.0" encoding="UTF-8" standalone="no"?>
<!DOCTYPE svg PUBLIC "-//W3C//DTD SVG 1.1//EN"
 "http://www.w3.org/Graphics/SVG/1.1/DTD/svg11.dtd">
<!-- Generated by graphviz version 14.1.2 (0)
 -->
<!-- Title: _lpuart_edma_private_handle Pages: 1 -->
<svg width="269pt" height="285pt"
 viewBox="0.00 0.00 269.00 285.00" xmlns="http://www.w3.org/2000/svg" xmlns:xlink="http://www.w3.org/1999/xlink">

<svg id="main" version="1.1" xmlns="http://www.w3.org/2000/svg" xmlns:xlink="http://www.w3.org/1999/xlink" xml:space="preserve">

<style type="text/css"><![CDATA[
.node, .edge {opacity: 0.7;}
.node.selected, .edge.selected {opacity: 1;}
.edge:hover path { stroke: red; }
.edge:hover polygon { stroke: red; fill: red; }
]]></style>
<script type="application/ecmascript" xlink:href="svg.min.js"/>
<svg id="graph" class="graph">
<g id="graph0" class="graph" transform="scale(1 1) rotate(0) translate(4 280.75)">
<title>_lpuart_edma_private_handle</title>
<!-- Node1 -->
<g id="Node000001" class="node">
<title>Node1</title>
<g id="a_Node000001"><a xlink:title=" ">
<polygon fill="#999999" stroke="#666666" points="122.5,-33.5 0,-33.5 0,0 122.5,0 122.5,-33.5"/>
<text xml:space="preserve" text-anchor="start" x="8" y="-20" font-family="Helvetica,sans-Serif" font-size="10.00">_lpuart_edma_private</text>
<text xml:space="preserve" text-anchor="middle" x="61.25" y="-7.25" font-family="Helvetica,sans-Serif" font-size="10.00">_handle</text>
</a>
</g>
</g>
<!-- Node2 -->
<g id="Node000002" class="node">
<title>Node2</title>
<g id="a_Node000002"><a xlink:href="structLPUART__Type.html" target="_top" xlink:title=" ">
<polygon fill="white" stroke="#666666" points="88.88,-201.25 7.62,-201.25 7.62,-180.5 88.88,-180.5 88.88,-201.25"/>
<text xml:space="preserve" text-anchor="middle" x="48.25" y="-187.75" font-family="Helvetica,sans-Serif" font-size="10.00">LPUART_Type</text>
</a>
</g>
</g>
<!-- Node2&#45;&gt;Node1 -->
<g id="edge1_Node000001_Node000002" class="edge">
<title>Node2&#45;&gt;Node1</title>
<g id="a_edge1_Node000001_Node000002"><a xlink:title=" ">
<path fill="none" stroke="#9a32cd" stroke-dasharray="5,2" d="M49.17,-168.61C50.12,-148.04 51.79,-115.98 54,-88.25 55.49,-69.61 57.76,-48.25 59.37,-33.97"/>
<polygon fill="#9a32cd" stroke="#9a32cd" points="45.67,-168.4 48.72,-178.54 52.67,-168.71 45.67,-168.4"/>
</a>
</g>
<text xml:space="preserve" text-anchor="start" x="57" y="-95.5" font-family="Helvetica,sans-Serif" font-size="10.00" fill="grey">base</text>
</g>
<!-- Node3 -->
<g id="Node000003" class="node">
<title>Node3</title>
<g id="a_Node000003"><a xlink:href="struct__lpuart__edma__handle.html" target="_top" xlink:title="LPUART eDMA handle.">
<polygon fill="white" stroke="#666666" points="213.75,-109 92.75,-109 92.75,-88.25 213.75,-88.25 213.75,-109"/>
<text xml:space="preserve" text-anchor="middle" x="153.25" y="-95.5" font-family="Helvetica,sans-Serif" font-size="10.00">_lpuart_edma_handle</text>
</a>
</g>
</g>
<!-- Node2&#45;&gt;Node3 -->
<g id="edge3_Node000003_Node000002" class="edge">
<title>Node2&#45;&gt;Node3</title>
<g id="a_edge3_Node000003_Node000002"><a xlink:title=" ">
<path fill="none" stroke="#9a32cd" stroke-dasharray="5,2" d="M61.57,-171.17C71.77,-157.75 86.77,-139.83 102.75,-127 111.3,-120.13 121.83,-114.11 131.05,-109.48"/>
<polygon fill="#9a32cd" stroke="#9a32cd" points="58.77,-169.06 55.66,-179.19 64.41,-173.21 58.77,-169.06"/>
</a>
</g>
<text xml:space="preserve" text-anchor="start" x="105.75" y="-141.62" font-family="Helvetica,sans-Serif" font-size="10.00" fill="grey">callback</text>
</g>
<!-- Node3&#45;&gt;Node1 -->
<g id="edge2_Node000001_Node000003" class="edge">
<title>Node3&#45;&gt;Node1</title>
<g id="a_edge2_Node000001_Node000003"><a xlink:title=" ">
<path fill="none" stroke="#9a32cd" stroke-dasharray="5,2" d="M133.45,-80.44C117.6,-66.67 95.52,-47.51 79.96,-34"/>
<polygon fill="#9a32cd" stroke="#9a32cd" points="130.98,-82.93 140.83,-86.84 135.57,-77.64 130.98,-82.93"/>
</a>
</g>
<text xml:space="preserve" text-anchor="start" x="123.87" y="-57.75" font-family="Helvetica,sans-Serif" font-size="10.00" fill="grey">handle</text>
</g>
<!-- Node4 -->
<g id="Node000004" class="node">
<title>Node4</title>
<g id="a_Node000004"><a xlink:href="struct__edma__handle.html" target="_top" xlink:title="eDMA transfer handle structure">
<polygon fill="white" stroke="#666666" points="196.88,-201.25 109.62,-201.25 109.62,-180.5 196.88,-180.5 196.88,-201.25"/>
<text xml:space="preserve" text-anchor="middle" x="153.25" y="-187.75" font-family="Helvetica,sans-Serif" font-size="10.00">_edma_handle</text>
</a>
</g>
</g>
<!-- Node4&#45;&gt;Node3 -->
<g id="edge4_Node000003_Node000004" class="edge">
<title>Node4&#45;&gt;Node3</title>
<g id="a_edge4_Node000003_Node000004"><a xlink:title=" ">
<path fill="none" stroke="#9a32cd" stroke-dasharray="5,2" d="M153.25,-168.77C153.25,-150.08 153.25,-123.65 153.25,-109.49"/>
<polygon fill="#9a32cd" stroke="#9a32cd" points="149.75,-168.7 153.25,-178.7 156.75,-168.7 149.75,-168.7"/>
</a>
</g>
<text xml:space="preserve" text-anchor="start" x="156.25" y="-150" font-family="Helvetica,sans-Serif" font-size="10.00" fill="grey">rxEdmaHandle</text>
<text xml:space="preserve" text-anchor="start" x="156.25" y="-133.25" font-family="Helvetica,sans-Serif" font-size="10.00" fill="grey">txEdmaHandle</text>
</g>
<!-- Node4&#45;&gt;Node4 -->
<g id="edge5_Node000004_Node000004" class="edge">
<title>Node4&#45;&gt;Node4</title>
<g id="a_edge5_Node000004_Node000004"><a xlink:title=" ">
<path fill="none" stroke="#9a32cd" stroke-dasharray="5,2" d="M208.65,-196.03C212.52,-194.85 214.88,-193.14 214.88,-190.88 214.88,-186.86 207.43,-184.55 197.29,-183.95"/>
<polygon fill="#9a32cd" stroke="#9a32cd" points="208.13,-192.57 198.78,-197.56 209.2,-199.49 208.13,-192.57"/>
</a>
</g>
<text xml:space="preserve" text-anchor="start" x="217.88" y="-187.75" font-family="Helvetica,sans-Serif" font-size="10.00" fill="grey">callback</text>
</g>
<!-- Node5 -->
<g id="Node000005" class="node">
<title>Node5</title>
<g id="a_Node000005"><a xlink:href="structDMA__Type.html" target="_top" xlink:title=" ">
<polygon fill="white" stroke="#666666" points="143.75,-276.75 76.75,-276.75 76.75,-256 143.75,-256 143.75,-276.75"/>
<text xml:space="preserve" text-anchor="middle" x="110.25" y="-263.25" font-family="Helvetica,sans-Serif" font-size="10.00">DMA_Type</text>
</a>
</g>
</g>
<!-- Node5&#45;&gt;Node4 -->
<g id="edge6_Node000004_Node000005" class="edge">
<title>Node5&#45;&gt;Node4</title>
<g id="a_edge6_Node000004_Node000005"><a xlink:title=" ">
<path fill="none" stroke="#9a32cd" stroke-dasharray="5,2" d="M121.61,-245.96C129.94,-231.72 140.9,-212.99 147.49,-201.72"/>
<polygon fill="#9a32cd" stroke="#9a32cd" points="118.66,-244.06 116.64,-254.46 124.71,-247.6 118.66,-244.06"/>
</a>
</g>
<text xml:space="preserve" text-anchor="start" x="139.87" y="-225.5" font-family="Helvetica,sans-Serif" font-size="10.00" fill="grey">base</text>
</g>
<!-- Node6 -->
<g id="Node000006" class="node">
<title>Node6</title>
<g id="a_Node000006"><a xlink:href="struct__edma__tcd.html" target="_top" xlink:title="eDMA TCD.">
<polygon fill="white" stroke="#666666" points="230.88,-276.75 161.62,-276.75 161.62,-256 230.88,-256 230.88,-276.75"/>
<text xml:space="preserve" text-anchor="middle" x="196.25" y="-263.25" font-family="Helvetica,sans-Serif" font-size="10.00">_edma_tcd</text>
</a>
</g>
</g>
<!-- Node6&#45;&gt;Node4 -->
<g id="edge7_Node000004_Node000006" class="edge">
<title>Node6&#45;&gt;Node4</title>
<g id="a_edge7_Node000004_Node000006"><a xlink:title=" ">
<path fill="none" stroke="#9a32cd" stroke-dasharray="5,2" d="M185.53,-245.94C180.91,-237.67 175.39,-227.94 170.25,-219.25 166.77,-213.38 162.75,-206.88 159.49,-201.7"/>
<polygon fill="#9a32cd" stroke="#9a32cd" points="182.34,-247.4 190.25,-254.44 188.46,-244 182.34,-247.4"/>
</a>
</g>
<text xml:space="preserve" text-anchor="start" x="183.44" y="-225.5" font-family="Helvetica,sans-Serif" font-size="10.00" fill="grey">tcdPool</text>
</g>
</g>
</svg>
</svg>

<style type='text/css'>
<![CDATA[
[data-mouse-over-selected='false'] { opacity: 0.7; }
[data-mouse-over-selected='true']  { opacity: 1.0; }
]]>
</style>
<script type="application/ecmascript"><![CDATA[
document.addEventListener('DOMContentLoaded', (event) => {
  highlightEdges();
  highlightAdjacentNodes();
});
]]></script>
</svg>
