<?xml version="1.0" encoding="UTF-8" standalone="no"?>
<!DOCTYPE svg PUBLIC "-//W3C//DTD SVG 1.1//EN"
 "http://www.w3.org/Graphics/SVG/1.1/DTD/svg11.dtd">
<!-- Generated by graphviz version 14.1.2 (0)
 -->
<!-- Title: _STP_CmdQueueItem Pages: 1 -->
<svg width="417pt" height="180pt"
 viewBox="0.00 0.00 417.00 180.00" xmlns="http://www.w3.org/2000/svg" xmlns:xlink="http://www.w3.org/1999/xlink">
<g id="graph0" class="graph" transform="scale(1 1) rotate(0) translate(4 175.75)">
<title>_STP_CmdQueueItem</title>
<!-- Node1 -->
<g id="Node000001" class="node">
<title>Node1</title>
<g id="a_Node000001"><a xlink:title=" ">
<polygon fill="#999999" stroke="#666666" points="280,-20.75 159,-20.75 159,0 280,0 280,-20.75"/>
<text xml:space="preserve" text-anchor="middle" x="219.5" y="-7.25" font-family="Helvetica,sans-Serif" font-size="10.00">_STP_CmdQueueItem</text>
</a>
</g>
</g>
<!-- Node2 -->
<g id="Node000002" class="node">
<title>Node2</title>
<g id="a_Node000002"><a xlink:href="struct__STP__StepperHandle.html" target="_top" xlink:title="Handle structure for a stepper motor instance.">
<polygon fill="white" stroke="#666666" points="142.75,-96.25 26.25,-96.25 26.25,-75.5 142.75,-75.5 142.75,-96.25"/>
<text xml:space="preserve" text-anchor="middle" x="84.5" y="-82.75" font-family="Helvetica,sans-Serif" font-size="10.00">_STP_StepperHandle</text>
</a>
</g>
</g>
<!-- Node2&#45;&gt;Node1 -->
<g id="edge1_Node000001_Node000002" class="edge">
<title>Node2&#45;&gt;Node1</title>
<g id="a_edge1_Node000001_Node000002"><a xlink:title=" ">
<path fill="none" stroke="#9a32cd" stroke-dasharray="5,2" d="M112.32,-69.73C139.06,-55.17 178.67,-33.61 201.5,-21.18"/>
<polygon fill="#9a32cd" stroke="#9a32cd" points="110.87,-66.54 103.76,-74.39 114.21,-72.68 110.87,-66.54"/>
</a>
</g>
<text xml:space="preserve" text-anchor="start" x="171.06" y="-45" font-family="Helvetica,sans-Serif" font-size="10.00" fill="grey">handle</text>
</g>
<!-- Node3 -->
<g id="Node000003" class="node">
<title>Node3</title>
<g id="a_Node000003"><a xlink:href="struct__STP__StepperMovementHandle.html" target="_top" xlink:title="Structure for tracking stepper motor movement state and parameters.">
<polygon fill="white" stroke="#666666" points="169,-171.75 0,-171.75 0,-151 169,-151 169,-171.75"/>
<text xml:space="preserve" text-anchor="middle" x="84.5" y="-158.25" font-family="Helvetica,sans-Serif" font-size="10.00">_STP_StepperMovementHandle</text>
</a>
</g>
</g>
<!-- Node3&#45;&gt;Node2 -->
<g id="edge2_Node000002_Node000003" class="edge">
<title>Node3&#45;&gt;Node2</title>
<g id="a_edge2_Node000002_Node000003"><a xlink:title=" ">
<path fill="none" stroke="#9a32cd" stroke-dasharray="5,2" d="M84.5,-139.26C84.5,-125.26 84.5,-107.55 84.5,-96.72"/>
<polygon fill="#9a32cd" stroke="#9a32cd" points="81,-139.25 84.5,-149.25 88,-139.25 81,-139.25"/>
</a>
</g>
<text xml:space="preserve" text-anchor="start" x="87.5" y="-120.5" font-family="Helvetica,sans-Serif" font-size="10.00" fill="grey">movementHandle</text>
</g>
<!-- Node4 -->
<g id="Node000004" class="node">
<title>Node4</title>
<g id="a_Node000004"><a xlink:href="struct__STP__MoveCmdData.html" target="_top" xlink:title=" ">
<polygon fill="white" stroke="#666666" points="278.12,-96.25 160.88,-96.25 160.88,-75.5 278.12,-75.5 278.12,-96.25"/>
<text xml:space="preserve" text-anchor="middle" x="219.5" y="-82.75" font-family="Helvetica,sans-Serif" font-size="10.00">_STP_MoveCmdData</text>
</a>
</g>
</g>
<!-- Node4&#45;&gt;Node1 -->
<g id="edge3_Node000001_Node000004" class="edge">
<title>Node4&#45;&gt;Node1</title>
<g id="a_edge3_Node000001_Node000004"><a xlink:title=" ">
<path fill="none" stroke="#9a32cd" stroke-dasharray="5,2" d="M219.5,-63.76C219.5,-49.76 219.5,-32.05 219.5,-21.22"/>
<polygon fill="#9a32cd" stroke="#9a32cd" points="216,-63.75 219.5,-73.75 223,-63.75 216,-63.75"/>
</a>
</g>
<text xml:space="preserve" text-anchor="start" x="222.5" y="-45" font-family="Helvetica,sans-Serif" font-size="10.00" fill="grey">move</text>
</g>
<!-- Node5 -->
<g id="Node000005" class="node">
<title>Node5</title>
<g id="a_Node000005"><a xlink:href="struct__STP__StopCmdData.html" target="_top" xlink:title=" ">
<polygon fill="white" stroke="#666666" points="408.5,-96.25 296.5,-96.25 296.5,-75.5 408.5,-75.5 408.5,-96.25"/>
<text xml:space="preserve" text-anchor="middle" x="352.5" y="-82.75" font-family="Helvetica,sans-Serif" font-size="10.00">_STP_StopCmdData</text>
</a>
</g>
</g>
<!-- Node5&#45;&gt;Node1 -->
<g id="edge4_Node000001_Node000005" class="edge">
<title>Node5&#45;&gt;Node1</title>
<g id="a_edge4_Node000001_Node000005"><a xlink:title=" ">
<path fill="none" stroke="#9a32cd" stroke-dasharray="5,2" d="M325.09,-69.73C298.75,-55.17 259.73,-33.61 237.23,-21.18"/>
<polygon fill="#9a32cd" stroke="#9a32cd" points="323.07,-72.61 333.51,-74.38 326.45,-66.48 323.07,-72.61"/>
</a>
</g>
<text xml:space="preserve" text-anchor="start" x="304.82" y="-45" font-family="Helvetica,sans-Serif" font-size="10.00" fill="grey">stop</text>
</g>
</g>
</svg>
