<?xml version="1.0" encoding="UTF-8" standalone="no"?>
<!DOCTYPE svg PUBLIC "-//W3C//DTD SVG 1.1//EN"
 "http://www.w3.org/Graphics/SVG/1.1/DTD/svg11.dtd">
<!-- Generated by graphviz version 14.1.3 (0)
 -->
<!-- Title: _STP_CmdQueueItem Pages: 1 -->
<svg width="678pt" height="247pt"
 viewBox="0.00 0.00 678.00 247.00" xmlns="http://www.w3.org/2000/svg" xmlns:xlink="http://www.w3.org/1999/xlink">
<g id="graph0" class="graph" transform="scale(1 1) rotate(0) translate(4 243.12)">
<title>_STP_CmdQueueItem</title>
<!-- Node1 -->
<g id="Node000001" class="node">
<title>Node1</title>
<g id="a_Node000001"><a xlink:title=" ">
<polygon fill="#999999" stroke="#666666" points="669.75,-125.75 548.75,-125.75 548.75,-105 669.75,-105 669.75,-125.75"/>
<text xml:space="preserve" text-anchor="middle" x="609.25" y="-112.25" font-family="Helvetica,sans-Serif" font-size="10.00">_STP_CmdQueueItem</text>
</a>
</g>
</g>
<!-- Node2 -->
<g id="Node000002" class="node">
<title>Node2</title>
<g id="a_Node000002"><a xlink:href="struct__STP__StepperHandleImpl.html" target="_top" xlink:title="Handle structure for a stepper motor instance.">
<polygon fill="white" stroke="#666666" points="416.75,-230.75 278.5,-230.75 278.5,-210 416.75,-210 416.75,-230.75"/>
<text xml:space="preserve" text-anchor="middle" x="347.62" y="-217.25" font-family="Helvetica,sans-Serif" font-size="10.00">_STP_StepperHandleImpl</text>
</a>
</g>
</g>
<!-- Node2&#45;&gt;Node1 -->
<g id="edge1_Node000001_Node000002" class="edge">
<title>Node2&#45;&gt;Node1</title>
<g id="a_edge1_Node000001_Node000002"><a xlink:title=" ">
<path fill="none" stroke="#9a32cd" stroke-dasharray="5,2" d="M427.99,-217.7C461.17,-213.99 499.24,-206.23 530.75,-190.38 561.53,-174.89 588.1,-142.92 600.61,-126.16"/>
<polygon fill="#9a32cd" stroke="#9a32cd" points="428.05,-214.17 418.45,-218.65 428.75,-221.14 428.05,-214.17"/>
</a>
</g>
<text xml:space="preserve" text-anchor="start" x="473.38" y="-220.8" font-family="Helvetica,sans-Serif" font-size="10.00" fill="grey">handle</text>
</g>
<!-- Node3 -->
<g id="Node000003" class="node">
<title>Node3</title>
<g id="a_Node000003"><a xlink:href="struct__STP__StepperMovement.html" target="_top" xlink:title="Structure for tracking stepper motor movement state and parameters.">
<polygon fill="white" stroke="#666666" points="134.5,-230.75 0,-230.75 0,-210 134.5,-210 134.5,-230.75"/>
<text xml:space="preserve" text-anchor="middle" x="67.25" y="-217.25" font-family="Helvetica,sans-Serif" font-size="10.00">_STP_StepperMovement</text>
</a>
</g>
</g>
<!-- Node3&#45;&gt;Node2 -->
<g id="edge2_Node000002_Node000003" class="edge">
<title>Node3&#45;&gt;Node2</title>
<g id="a_edge2_Node000002_Node000003"><a xlink:title=" ">
<path fill="none" stroke="#9a32cd" stroke-dasharray="5,2" d="M146.35,-220.38C187.77,-220.38 238.18,-220.38 278.07,-220.38"/>
<polygon fill="#9a32cd" stroke="#9a32cd" points="146.44,-216.88 136.44,-220.38 146.44,-223.88 146.44,-216.88"/>
</a>
</g>
<text xml:space="preserve" text-anchor="start" x="155.5" y="-226.38" font-family="Helvetica,sans-Serif" font-size="10.00" fill="grey">movementHandle</text>
</g>
<!-- Node4 -->
<g id="Node000004" class="node">
<title>Node4</title>
<g id="a_Node000004"><a xlink:href="struct__STP__MoveCmdData.html" target="_top" xlink:title=" ">
<polygon fill="white" stroke="#666666" points="406.25,-188.75 289,-188.75 289,-168 406.25,-168 406.25,-188.75"/>
<text xml:space="preserve" text-anchor="middle" x="347.62" y="-175.25" font-family="Helvetica,sans-Serif" font-size="10.00">_STP_MoveCmdData</text>
</a>
</g>
</g>
<!-- Node4&#45;&gt;Node1 -->
<g id="edge3_Node000001_Node000004" class="edge">
<title>Node4&#45;&gt;Node1</title>
<g id="a_edge3_Node000001_Node000004"><a xlink:title=" ">
<path fill="none" stroke="#9a32cd" stroke-dasharray="5,2" d="M417.88,-172.21C452.3,-168.02 494.24,-161.21 530.75,-150.38 551.13,-144.33 573.11,-134.01 588.43,-126.14"/>
<polygon fill="#9a32cd" stroke="#9a32cd" points="417.55,-168.72 408.02,-173.35 418.36,-175.68 417.55,-168.72"/>
</a>
</g>
<text xml:space="preserve" text-anchor="start" x="476" y="-173.48" font-family="Helvetica,sans-Serif" font-size="10.00" fill="grey">move</text>
</g>
<!-- Node5 -->
<g id="Node000005" class="node">
<title>Node5</title>
<g id="a_Node000005"><a xlink:href="struct__STP__StopCmdData.html" target="_top" xlink:title=" ">
<polygon fill="white" stroke="#666666" points="403.62,-146.75 291.62,-146.75 291.62,-126 403.62,-126 403.62,-146.75"/>
<text xml:space="preserve" text-anchor="middle" x="347.62" y="-133.25" font-family="Helvetica,sans-Serif" font-size="10.00">_STP_StopCmdData</text>
</a>
</g>
</g>
<!-- Node5&#45;&gt;Node1 -->
<g id="edge4_Node000001_Node000005" class="edge">
<title>Node5&#45;&gt;Node1</title>
<g id="a_edge4_Node000001_Node000005"><a xlink:title=" ">
<path fill="none" stroke="#9a32cd" stroke-dasharray="5,2" d="M415.28,-130.98C456.39,-127.66 508.66,-123.43 548.43,-120.21"/>
<polygon fill="#9a32cd" stroke="#9a32cd" points="415.2,-127.48 405.51,-131.77 415.76,-134.46 415.2,-127.48"/>
</a>
</g>
<text xml:space="preserve" text-anchor="start" x="479.38" y="-133.76" font-family="Helvetica,sans-Serif" font-size="10.00" fill="grey">stop</text>
</g>
<!-- Node6 -->
<g id="Node000006" class="node">
<title>Node6</title>
<g id="a_Node000006"><a xlink:href="struct__STP__InitHandleCmdData.html" target="_top" xlink:title=" ">
<polygon fill="white" stroke="#666666" points="417.88,-104.75 277.38,-104.75 277.38,-84 417.88,-84 417.88,-104.75"/>
<text xml:space="preserve" text-anchor="middle" x="347.62" y="-91.25" font-family="Helvetica,sans-Serif" font-size="10.00">_STP_InitHandleCmdData</text>
</a>
</g>
</g>
<!-- Node6&#45;&gt;Node1 -->
<g id="edge5_Node000001_Node000006" class="edge">
<title>Node6&#45;&gt;Node1</title>
<g id="a_edge5_Node000001_Node000006"><a xlink:title=" ">
<path fill="none" stroke="#9a32cd" stroke-dasharray="5,2" d="M429.44,-93.73C461.12,-94.26 497.72,-95.82 530.75,-99.62 540.84,-100.79 551.58,-102.59 561.74,-104.57"/>
<polygon fill="#9a32cd" stroke="#9a32cd" points="429.57,-90.23 419.52,-93.6 429.48,-97.23 429.57,-90.23"/>
</a>
</g>
<text xml:space="preserve" text-anchor="start" x="475.25" y="-105.62" font-family="Helvetica,sans-Serif" font-size="10.00" fill="grey">config</text>
</g>
<!-- Node7 -->
<g id="Node000007" class="node">
<title>Node7</title>
<g id="a_Node000007"><a xlink:href="struct__STP__StepperConfig.html" target="_top" xlink:title="Configuration structure for initializing a stepper motor.">
<polygon fill="white" stroke="#666666" points="123.62,-104.75 10.88,-104.75 10.88,-84 123.62,-84 123.62,-104.75"/>
<text xml:space="preserve" text-anchor="middle" x="67.25" y="-91.25" font-family="Helvetica,sans-Serif" font-size="10.00">_STP_StepperConfig</text>
</a>
</g>
</g>
<!-- Node7&#45;&gt;Node6 -->
<g id="edge6_Node000006_Node000007" class="edge">
<title>Node7&#45;&gt;Node6</title>
<g id="a_edge6_Node000006_Node000007"><a xlink:title=" ">
<path fill="none" stroke="#9a32cd" stroke-dasharray="5,2" d="M135.36,-94.38C178.21,-94.38 233.64,-94.38 276.97,-94.38"/>
<polygon fill="#9a32cd" stroke="#9a32cd" points="135.43,-90.88 125.43,-94.38 135.43,-97.88 135.43,-90.88"/>
</a>
</g>
<text xml:space="preserve" text-anchor="start" x="184.75" y="-100.38" font-family="Helvetica,sans-Serif" font-size="10.00" fill="grey">config</text>
</g>
<!-- Node8 -->
<g id="Node000008" class="node">
<title>Node8</title>
<g id="a_Node000008"><a xlink:href="struct__STP__SetAccelerationCmdData.html" target="_top" xlink:title=" ">
<polygon fill="white" stroke="#666666" points="431,-62.75 264.25,-62.75 264.25,-42 431,-42 431,-62.75"/>
<text xml:space="preserve" text-anchor="middle" x="347.62" y="-49.25" font-family="Helvetica,sans-Serif" font-size="10.00">_STP_SetAccelerationCmdData</text>
</a>
</g>
</g>
<!-- Node8&#45;&gt;Node1 -->
<g id="edge7_Node000001_Node000008" class="edge">
<title>Node8&#45;&gt;Node1</title>
<g id="a_edge7_Node000001_Node000008"><a xlink:title=" ">
<path fill="none" stroke="#9a32cd" stroke-dasharray="5,2" d="M442.55,-54.96C471.36,-57.69 502.81,-62.69 530.75,-71.62 554.15,-79.11 578.38,-94.17 593.38,-104.52"/>
<polygon fill="#9a32cd" stroke="#9a32cd" points="443.01,-51.48 432.74,-54.11 442.41,-58.46 443.01,-51.48"/>
</a>
</g>
<text xml:space="preserve" text-anchor="start" x="452" y="-77.62" font-family="Helvetica,sans-Serif" font-size="10.00" fill="grey">setAcceleration</text>
</g>
<!-- Node9 -->
<g id="Node000009" class="node">
<title>Node9</title>
<g id="a_Node000009"><a xlink:href="struct__STP__SetEndVelocityCmdData.html" target="_top" xlink:title=" ">
<polygon fill="white" stroke="#666666" points="429.12,-20.75 266.12,-20.75 266.12,0 429.12,0 429.12,-20.75"/>
<text xml:space="preserve" text-anchor="middle" x="347.62" y="-7.25" font-family="Helvetica,sans-Serif" font-size="10.00">_STP_SetEndVelocityCmdData</text>
</a>
</g>
</g>
<!-- Node9&#45;&gt;Node1 -->
<g id="edge8_Node000001_Node000009" class="edge">
<title>Node9&#45;&gt;Node1</title>
<g id="a_edge8_Node000001_Node000009"><a xlink:title=" ">
<path fill="none" stroke="#9a32cd" stroke-dasharray="5,2" d="M440.95,-10.02C470.89,-13.02 503.4,-19.75 530.75,-33.62 563.54,-50.26 589.96,-86.55 601.69,-104.66"/>
<polygon fill="#9a32cd" stroke="#9a32cd" points="441.39,-6.55 431.13,-9.18 440.79,-13.52 441.39,-6.55"/>
</a>
</g>
<text xml:space="preserve" text-anchor="start" x="453.88" y="-39.62" font-family="Helvetica,sans-Serif" font-size="10.00" fill="grey">setEndVelocity</text>
</g>
</g>
</svg>
