<?xml version="1.0" encoding="UTF-8" standalone="no"?>
<!DOCTYPE svg PUBLIC "-//W3C//DTD SVG 1.1//EN"
 "http://www.w3.org/Graphics/SVG/1.1/DTD/svg11.dtd">
<!-- Generated by graphviz version 14.1.4 (0)
 -->
<!-- Title: _TMC_CommandQueueItem Pages: 1 -->
<svg width="353pt" height="104pt"
 viewBox="0.00 0.00 353.00 104.00" xmlns="http://www.w3.org/2000/svg" xmlns:xlink="http://www.w3.org/1999/xlink">
<g id="graph0" class="graph" transform="scale(1 1) rotate(0) translate(4 100.25)">
<title>_TMC_CommandQueueItem</title>
<!-- Node1 -->
<g id="Node000001" class="node">
<title>Node1</title>
<g id="a_Node000001"><a xlink:title=" ">
<polygon fill="#999999" stroke="#666666" points="261.5,-20.75 109,-20.75 109,0 261.5,0 261.5,-20.75"/>
<text xml:space="preserve" text-anchor="middle" x="185.25" y="-7.25" font-family="Helvetica,sans-Serif" font-size="10.00">_TMC_CommandQueueItem</text>
</a>
</g>
</g>
<!-- Node2 -->
<g id="Node000002" class="node">
<title>Node2</title>
<g id="a_Node000002"><a xlink:href="struct__TMC__HandleImpl.html" target="_top" xlink:title=" ">
<polygon fill="white" stroke="#666666" points="104.5,-96.25 0,-96.25 0,-75.5 104.5,-75.5 104.5,-96.25"/>
<text xml:space="preserve" text-anchor="middle" x="52.25" y="-82.75" font-family="Helvetica,sans-Serif" font-size="10.00">_TMC_HandleImpl</text>
</a>
</g>
</g>
<!-- Node2&#45;&gt;Node1 -->
<g id="edge1_Node000001_Node000002" class="edge">
<title>Node2&#45;&gt;Node1</title>
<g id="a_edge1_Node000001_Node000002"><a xlink:title=" ">
<path fill="none" stroke="#9a32cd" stroke-dasharray="5,2" d="M79.66,-69.73C106,-55.17 145.02,-33.61 167.52,-21.18"/>
<polygon fill="#9a32cd" stroke="#9a32cd" points="78.3,-66.48 71.24,-74.38 81.68,-72.61 78.3,-66.48"/>
</a>
</g>
<text xml:space="preserve" text-anchor="start" x="137.57" y="-44.75" font-family="Helvetica,sans-Serif" font-size="10.00" fill="grey">handle</text>
</g>
<!-- Node3 -->
<g id="Node000003" class="node">
<title>Node3</title>
<g id="a_Node000003"><a xlink:href="struct__THE__CmdHandleImpl.html" target="_top" xlink:title=" ">
<polygon fill="white" stroke="#666666" points="247.62,-96.25 122.88,-96.25 122.88,-75.5 247.62,-75.5 247.62,-96.25"/>
<text xml:space="preserve" text-anchor="middle" x="185.25" y="-82.75" font-family="Helvetica,sans-Serif" font-size="10.00">_THE_CmdHandleImpl</text>
</a>
</g>
</g>
<!-- Node3&#45;&gt;Node1 -->
<g id="edge2_Node000001_Node000003" class="edge">
<title>Node3&#45;&gt;Node1</title>
<g id="a_edge2_Node000001_Node000003"><a xlink:title=" ">
<path fill="none" stroke="#9a32cd" stroke-dasharray="5,2" d="M185.25,-63.76C185.25,-49.76 185.25,-32.05 185.25,-21.22"/>
<polygon fill="#9a32cd" stroke="#9a32cd" points="181.75,-63.75 185.25,-73.75 188.75,-63.75 181.75,-63.75"/>
</a>
</g>
<text xml:space="preserve" text-anchor="start" x="188.25" y="-44.75" font-family="Helvetica,sans-Serif" font-size="10.00" fill="grey">cmdHandle</text>
</g>
<!-- Node4 -->
<g id="Node000004" class="node">
<title>Node4</title>
<g id="a_Node000004"><a xlink:href="struct__TMC__Config.html" target="_top" xlink:title="Configuration structure for initializing a TMC2209 driver handle.">
<polygon fill="white" stroke="#666666" points="344.75,-96.25 265.75,-96.25 265.75,-75.5 344.75,-75.5 344.75,-96.25"/>
<text xml:space="preserve" text-anchor="middle" x="305.25" y="-82.75" font-family="Helvetica,sans-Serif" font-size="10.00">_TMC_Config</text>
</a>
</g>
</g>
<!-- Node4&#45;&gt;Node1 -->
<g id="edge3_Node000001_Node000004" class="edge">
<title>Node4&#45;&gt;Node1</title>
<g id="a_edge3_Node000001_Node000004"><a xlink:title=" ">
<path fill="none" stroke="#9a32cd" stroke-dasharray="5,2" d="M287.39,-67.11C277.37,-57.82 264.29,-46.74 251.25,-38.75 239.83,-31.75 226.3,-25.78 214.47,-21.22"/>
<polygon fill="#9a32cd" stroke="#9a32cd" points="284.9,-69.58 294.55,-73.96 289.74,-64.52 284.9,-69.58"/>
</a>
</g>
<text xml:space="preserve" text-anchor="start" x="279.24" y="-44.75" font-family="Helvetica,sans-Serif" font-size="10.00" fill="grey">config</text>
</g>
</g>
</svg>
