<?xml version="1.0" encoding="UTF-8" standalone="no"?>
<!DOCTYPE svg PUBLIC "-//W3C//DTD SVG 1.1//EN"
 "http://www.w3.org/Graphics/SVG/1.1/DTD/svg11.dtd">
<!-- Generated by graphviz version 14.1.4 (0)
 -->
<!-- Title: _MTR_HandlesArrayItem Pages: 1 -->
<svg width="268pt" height="331pt"
 viewBox="0.00 0.00 268.00 331.00" xmlns="http://www.w3.org/2000/svg" xmlns:xlink="http://www.w3.org/1999/xlink">

<svg id="main" version="1.1" xmlns="http://www.w3.org/2000/svg" xmlns:xlink="http://www.w3.org/1999/xlink" xml:space="preserve">

<style type="text/css"><![CDATA[
.node, .edge {opacity: 0.7;}
.node.selected, .edge.selected {opacity: 1;}
.edge:hover path { stroke: red; }
.edge:hover polygon { stroke: red; fill: red; }
]]></style>
<script type="application/ecmascript" xlink:href="svg.min.js"/>
<svg id="graph" class="graph">
<g id="graph0" class="graph" transform="scale(1 1) rotate(0) translate(4 326.75)">
<title>_MTR_HandlesArrayItem</title>
<!-- Node1 -->
<g id="Node000001" class="node">
<title>Node1</title>
<g id="a_Node000001"><a xlink:title=" ">
<polygon fill="#999999" stroke="#666666" points="225.5,-20.75 88.75,-20.75 88.75,0 225.5,0 225.5,-20.75"/>
<text xml:space="preserve" text-anchor="middle" x="157.12" y="-7.25" font-family="Helvetica,sans-Serif" font-size="10.00">_MTR_HandlesArrayItem</text>
</a>
</g>
</g>
<!-- Node2 -->
<g id="Node000002" class="node">
<title>Node2</title>
<g id="a_Node000002"><a xlink:href="struct__MTR__MotorHandleImpl.html" target="_top" xlink:title=" ">
<polygon fill="white" stroke="#666666" points="223.62,-96.25 90.62,-96.25 90.62,-75.5 223.62,-75.5 223.62,-96.25"/>
<text xml:space="preserve" text-anchor="middle" x="157.12" y="-82.75" font-family="Helvetica,sans-Serif" font-size="10.00">_MTR_MotorHandleImpl</text>
</a>
</g>
</g>
<!-- Node2&#45;&gt;Node1 -->
<g id="edge1_Node000001_Node000002" class="edge">
<title>Node2&#45;&gt;Node1</title>
<g id="a_edge1_Node000001_Node000002"><a xlink:title=" ">
<path fill="none" stroke="#9a32cd" stroke-dasharray="5,2" d="M157.12,-63.76C157.12,-49.76 157.12,-32.05 157.12,-21.22"/>
<polygon fill="#9a32cd" stroke="#9a32cd" points="153.63,-63.75 157.13,-73.75 160.63,-63.75 153.63,-63.75"/>
</a>
</g>
<text xml:space="preserve" text-anchor="start" x="160.12" y="-44.75" font-family="Helvetica,sans-Serif" font-size="10.00" fill="grey">handle</text>
</g>
<!-- Node3 -->
<g id="Node000003" class="node">
<title>Node3</title>
<g id="a_Node000003"><a xlink:href="struct__STP__StepperHandleImpl.html" target="_top" xlink:title="Handle structure for a stepper motor instance.">
<polygon fill="white" stroke="#666666" points="138.25,-171.75 0,-171.75 0,-151 138.25,-151 138.25,-171.75"/>
<text xml:space="preserve" text-anchor="middle" x="69.12" y="-158.25" font-family="Helvetica,sans-Serif" font-size="10.00">_STP_StepperHandleImpl</text>
</a>
</g>
</g>
<!-- Node3&#45;&gt;Node2 -->
<g id="edge2_Node000002_Node000003" class="edge">
<title>Node3&#45;&gt;Node2</title>
<g id="a_edge2_Node000002_Node000003"><a xlink:title=" ">
<path fill="none" stroke="#9a32cd" stroke-dasharray="5,2" d="M76.82,-140.34C81.05,-131.43 87.05,-121.37 94.88,-114.25 103.26,-106.62 114.11,-100.87 124.4,-96.65"/>
<polygon fill="#9a32cd" stroke="#9a32cd" points="73.7,-138.74 72.99,-149.31 80.14,-141.49 73.7,-138.74"/>
</a>
</g>
<text xml:space="preserve" text-anchor="start" x="97.88" y="-120.25" font-family="Helvetica,sans-Serif" font-size="10.00" fill="grey">stepperHandle</text>
</g>
<!-- Node4 -->
<g id="Node000004" class="node">
<title>Node4</title>
<g id="a_Node000004"><a xlink:href="struct__STP__StepperMovement.html" target="_top" xlink:title="Structure for tracking stepper motor movement state and parameters.">
<polygon fill="white" stroke="#666666" points="136.38,-247.25 1.88,-247.25 1.88,-226.5 136.38,-226.5 136.38,-247.25"/>
<text xml:space="preserve" text-anchor="middle" x="69.12" y="-233.75" font-family="Helvetica,sans-Serif" font-size="10.00">_STP_StepperMovement</text>
</a>
</g>
</g>
<!-- Node4&#45;&gt;Node3 -->
<g id="edge3_Node000003_Node000004" class="edge">
<title>Node4&#45;&gt;Node3</title>
<g id="a_edge3_Node000003_Node000004"><a xlink:title=" ">
<path fill="none" stroke="#9a32cd" stroke-dasharray="5,2" d="M69.12,-214.76C69.12,-200.76 69.12,-183.05 69.12,-172.22"/>
<polygon fill="#9a32cd" stroke="#9a32cd" points="65.63,-214.75 69.13,-224.75 72.63,-214.75 65.63,-214.75"/>
</a>
</g>
<text xml:space="preserve" text-anchor="start" x="72.12" y="-195.75" font-family="Helvetica,sans-Serif" font-size="10.00" fill="grey">movementHandle</text>
</g>
<!-- Node5 -->
<g id="Node000005" class="node">
<title>Node5</title>
<g id="a_Node000005"><a xlink:href="struct__THE__CmdHandleImpl.html" target="_top" xlink:title=" ">
<polygon fill="white" stroke="#666666" points="131.5,-322.75 6.75,-322.75 6.75,-302 131.5,-302 131.5,-322.75"/>
<text xml:space="preserve" text-anchor="middle" x="69.12" y="-309.25" font-family="Helvetica,sans-Serif" font-size="10.00">_THE_CmdHandleImpl</text>
</a>
</g>
</g>
<!-- Node5&#45;&gt;Node4 -->
<g id="edge4_Node000004_Node000005" class="edge">
<title>Node5&#45;&gt;Node4</title>
<g id="a_edge4_Node000004_Node000005"><a xlink:title=" ">
<path fill="none" stroke="#9a32cd" stroke-dasharray="5,2" d="M69.12,-290.26C69.12,-276.26 69.12,-258.55 69.12,-247.72"/>
<polygon fill="#9a32cd" stroke="#9a32cd" points="65.63,-290.25 69.13,-300.25 72.63,-290.25 65.63,-290.25"/>
</a>
</g>
<text xml:space="preserve" text-anchor="start" x="72.12" y="-271.25" font-family="Helvetica,sans-Serif" font-size="10.00" fill="grey">cmdHandle</text>
</g>
<!-- Node6 -->
<g id="Node000006" class="node">
<title>Node6</title>
<g id="a_Node000006"><a xlink:href="struct__TMC__HandleImpl.html" target="_top" xlink:title=" ">
<polygon fill="white" stroke="#666666" points="260.38,-171.75 155.88,-171.75 155.88,-151 260.38,-151 260.38,-171.75"/>
<text xml:space="preserve" text-anchor="middle" x="208.12" y="-158.25" font-family="Helvetica,sans-Serif" font-size="10.00">_TMC_HandleImpl</text>
</a>
</g>
</g>
<!-- Node6&#45;&gt;Node2 -->
<g id="edge5_Node000002_Node000006" class="edge">
<title>Node6&#45;&gt;Node2</title>
<g id="a_edge5_Node000002_Node000006"><a xlink:title=" ">
<path fill="none" stroke="#9a32cd" stroke-dasharray="5,2" d="M194.94,-141.37C185.03,-127.09 171.85,-108.1 163.96,-96.72"/>
<polygon fill="#9a32cd" stroke="#9a32cd" points="192.02,-143.3 200.59,-149.52 197.77,-139.31 192.02,-143.3"/>
</a>
</g>
<text xml:space="preserve" text-anchor="start" x="191.69" y="-120.25" font-family="Helvetica,sans-Serif" font-size="10.00" fill="grey">tmcHandle</text>
</g>
</g>
</svg>
</svg>

<style type='text/css'>
<![CDATA[
[data-mouse-over-selected='false'] { opacity: 0.7; }
[data-mouse-over-selected='true']  { opacity: 1.0; }
]]>
</style>
<script type="application/ecmascript"><![CDATA[
document.addEventListener('DOMContentLoaded', (event) => {
  highlightEdges();
  highlightAdjacentNodes();
});
]]></script>
</svg>
