<?xml version="1.0" encoding="UTF-8" standalone="no"?>
<!DOCTYPE svg PUBLIC "-//W3C//DTD SVG 1.1//EN"
 "http://www.w3.org/Graphics/SVG/1.1/DTD/svg11.dtd">
<!-- Generated by graphviz version 14.1.2 (0)
 -->
<!-- Title: _edma_handle Pages: 1 -->
<svg width="193pt" height="104pt"
 viewBox="0.00 0.00 193.00 104.00" xmlns="http://www.w3.org/2000/svg" xmlns:xlink="http://www.w3.org/1999/xlink">
<g id="graph0" class="graph" transform="scale(1 1) rotate(0) translate(4 100.25)">
<title>_edma_handle</title>
<!-- Node1 -->
<g id="Node000001" class="node">
<title>Node1</title>
<g id="a_Node000001"><a xlink:title="eDMA transfer handle structure">
<polygon fill="#999999" stroke="#666666" points="120.12,-20.75 32.88,-20.75 32.88,0 120.12,0 120.12,-20.75"/>
<text xml:space="preserve" text-anchor="middle" x="76.5" y="-7.25" font-family="Helvetica,sans-Serif" font-size="10.00">_edma_handle</text>
</a>
</g>
</g>
<!-- Node1&#45;&gt;Node1 -->
<g id="edge1_Node000001_Node000001" class="edge">
<title>Node1&#45;&gt;Node1</title>
<g id="a_edge1_Node000001_Node000001"><a xlink:title=" ">
<path fill="none" stroke="#9a32cd" stroke-dasharray="5,2" d="M131.9,-15.53C135.77,-14.35 138.12,-12.64 138.12,-10.38 138.12,-6.36 130.68,-4.05 120.54,-3.45"/>
<polygon fill="#9a32cd" stroke="#9a32cd" points="131.38,-12.07 122.03,-17.06 132.45,-18.99 131.38,-12.07"/>
</a>
</g>
<text xml:space="preserve" text-anchor="start" x="141.12" y="-7.25" font-family="Helvetica,sans-Serif" font-size="10.00" fill="grey">callback</text>
</g>
<!-- Node2 -->
<g id="Node000002" class="node">
<title>Node2</title>
<g id="a_Node000002"><a xlink:href="structDMA__Type.html" target="_top" xlink:title=" ">
<polygon fill="white" stroke="#666666" points="67,-96.25 0,-96.25 0,-75.5 67,-75.5 67,-96.25"/>
<text xml:space="preserve" text-anchor="middle" x="33.5" y="-82.75" font-family="Helvetica,sans-Serif" font-size="10.00">DMA_Type</text>
</a>
</g>
</g>
<!-- Node2&#45;&gt;Node1 -->
<g id="edge2_Node000001_Node000002" class="edge">
<title>Node2&#45;&gt;Node1</title>
<g id="a_edge2_Node000001_Node000002"><a xlink:title=" ">
<path fill="none" stroke="#9a32cd" stroke-dasharray="5,2" d="M44.86,-65.46C53.19,-51.22 64.15,-32.49 70.74,-21.22"/>
<polygon fill="#9a32cd" stroke="#9a32cd" points="41.91,-63.56 39.89,-73.96 47.96,-67.1 41.91,-63.56"/>
</a>
</g>
<text xml:space="preserve" text-anchor="start" x="63.12" y="-45" font-family="Helvetica,sans-Serif" font-size="10.00" fill="grey">base</text>
</g>
<!-- Node3 -->
<g id="Node000003" class="node">
<title>Node3</title>
<g id="a_Node000003"><a xlink:href="struct__edma__tcd.html" target="_top" xlink:title="eDMA TCD.">
<polygon fill="white" stroke="#666666" points="154.12,-96.25 84.88,-96.25 84.88,-75.5 154.12,-75.5 154.12,-96.25"/>
<text xml:space="preserve" text-anchor="middle" x="119.5" y="-82.75" font-family="Helvetica,sans-Serif" font-size="10.00">_edma_tcd</text>
</a>
</g>
</g>
<!-- Node3&#45;&gt;Node1 -->
<g id="edge3_Node000001_Node000003" class="edge">
<title>Node3&#45;&gt;Node1</title>
<g id="a_edge3_Node000001_Node000003"><a xlink:title=" ">
<path fill="none" stroke="#9a32cd" stroke-dasharray="5,2" d="M108.78,-65.44C104.16,-57.17 98.64,-47.44 93.5,-38.75 90.02,-32.88 86,-26.38 82.74,-21.2"/>
<polygon fill="#9a32cd" stroke="#9a32cd" points="105.59,-66.9 113.5,-73.94 111.71,-63.5 105.59,-66.9"/>
</a>
</g>
<text xml:space="preserve" text-anchor="start" x="106.69" y="-45" font-family="Helvetica,sans-Serif" font-size="10.00" fill="grey">tcdPool</text>
</g>
</g>
</svg>
