<?xml version="1.0" encoding="UTF-8" standalone="no"?>
<!DOCTYPE svg PUBLIC "-//W3C//DTD SVG 1.1//EN"
 "http://www.w3.org/Graphics/SVG/1.1/DTD/svg11.dtd">
<!-- Generated by graphviz version 14.1.2 (0)
 -->
<!-- Title: _TMC_Handle Pages: 1 -->
<svg width="109pt" height="180pt"
 viewBox="0.00 0.00 109.00 180.00" xmlns="http://www.w3.org/2000/svg" xmlns:xlink="http://www.w3.org/1999/xlink">
<g id="graph0" class="graph" transform="scale(1 1) rotate(0) translate(4 175.75)">
<title>_TMC_Handle</title>
<!-- Node1 -->
<g id="Node000001" class="node">
<title>Node1</title>
<g id="a_Node000001"><a xlink:title="Handle structure for managing a TMC2209 motor driver instance.">
<polygon fill="#999999" stroke="#666666" points="82.75,-20.75 0,-20.75 0,0 82.75,0 82.75,-20.75"/>
<text xml:space="preserve" text-anchor="middle" x="41.38" y="-7.25" font-family="Helvetica,sans-Serif" font-size="10.00">_TMC_Handle</text>
</a>
</g>
</g>
<!-- Node2 -->
<g id="Node000002" class="node">
<title>Node2</title>
<g id="a_Node000002"><a xlink:href="struct__uart__handle.html" target="_top" xlink:title="UART handle structure.">
<polygon fill="white" stroke="#666666" points="80.88,-96.25 1.88,-96.25 1.88,-75.5 80.88,-75.5 80.88,-96.25"/>
<text xml:space="preserve" text-anchor="middle" x="41.38" y="-82.75" font-family="Helvetica,sans-Serif" font-size="10.00">_uart_handle</text>
</a>
</g>
</g>
<!-- Node2&#45;&gt;Node1 -->
<g id="edge1_Node000001_Node000002" class="edge">
<title>Node2&#45;&gt;Node1</title>
<g id="a_edge1_Node000001_Node000002"><a xlink:title=" ">
<path fill="none" stroke="#9a32cd" stroke-dasharray="5,2" d="M41.38,-63.76C41.38,-49.76 41.38,-32.05 41.38,-21.22"/>
<polygon fill="#9a32cd" stroke="#9a32cd" points="37.88,-63.75 41.38,-73.75 44.88,-63.75 37.88,-63.75"/>
</a>
</g>
<text xml:space="preserve" text-anchor="start" x="44.38" y="-45" font-family="Helvetica,sans-Serif" font-size="10.00" fill="grey">uartHandle</text>
</g>
<!-- Node3 -->
<g id="Node000003" class="node">
<title>Node3</title>
<g id="a_Node000003"><a xlink:href="structUART__Type.html" target="_top" xlink:title=" ">
<polygon fill="white" stroke="#666666" points="76.38,-171.75 6.38,-171.75 6.38,-151 76.38,-151 76.38,-171.75"/>
<text xml:space="preserve" text-anchor="middle" x="41.38" y="-158.25" font-family="Helvetica,sans-Serif" font-size="10.00">UART_Type</text>
</a>
</g>
</g>
<!-- Node3&#45;&gt;Node2 -->
<g id="edge2_Node000002_Node000003" class="edge">
<title>Node3&#45;&gt;Node2</title>
<g id="a_edge2_Node000002_Node000003"><a xlink:title=" ">
<path fill="none" stroke="#9a32cd" stroke-dasharray="5,2" d="M41.38,-139.26C41.38,-125.26 41.38,-107.55 41.38,-96.72"/>
<polygon fill="#9a32cd" stroke="#9a32cd" points="37.88,-139.25 41.38,-149.25 44.88,-139.25 37.88,-139.25"/>
</a>
</g>
<text xml:space="preserve" text-anchor="start" x="44.38" y="-120.5" font-family="Helvetica,sans-Serif" font-size="10.00" fill="grey">callback</text>
</g>
</g>
</svg>
