<?xml version="1.0" encoding="UTF-8" standalone="no"?>
<!DOCTYPE svg PUBLIC "-//W3C//DTD SVG 1.1//EN"
 "http://www.w3.org/Graphics/SVG/1.1/DTD/svg11.dtd">
<!-- Generated by graphviz version 14.1.3 (0)
 -->
<!-- Title: _STP_CmdQueueItem Pages: 1 -->
<!--zoomable 247 -->

<svg id="main" version="1.1" xmlns="http://www.w3.org/2000/svg" xmlns:xlink="http://www.w3.org/1999/xlink" xml:space="preserve" onload="init(evt)">

<style type="text/css"><![CDATA[
.node, .edge {opacity: 0.7;}
.node.selected, .edge.selected {opacity: 1;}
.edge:hover path { stroke: red; }
.edge:hover polygon { stroke: red; fill: red; }
]]></style>

<defs>
  <circle id="rim" cx="0" cy="0" r="7"/>
  <circle id="rim2" cx="0" cy="0" r="3.5"/>
  <g id="zoomPlus">
    <use xlink:href="#rim" fill="#404040"><set attributeName="fill" to="#808080" begin="zoomplus.mouseover" end="zoomplus.mouseout"/></use>
    <path d="M-4,0h8M0,-4v8" fill="none" stroke="white" stroke-width="1.5" pointer-events="none"/>
  </g>
  <g id="zoomMin">
    <use xlink:href="#rim" fill="#404040"><set attributeName="fill" to="#808080" begin="zoomminus.mouseover" end="zoomminus.mouseout"/></use>
    <path d="M-4,0h8" fill="none" stroke="white" stroke-width="1.5" pointer-events="none"/>
  </g>
  <g id="arrowUp" transform="translate(30 24)">
    <use xlink:href="#rim"/>
    <path pointer-events="none" fill="none" stroke="white" stroke-width="1.5" d="M0,-3.0v7 M-2.5,-0.5L0,-3.0L2.5,-0.5"/>
  </g>
  <g id="arrowRight" transform="rotate(90) translate(36 -43)">
    <use xlink:href="#rim"/>
    <path pointer-events="none" fill="none" stroke="white" stroke-width="1.5" d="M0,-3.0v7 M-2.5,-0.5L0,-3.0L2.5,-0.5"/>
  </g>
  <g id="arrowDown" transform="rotate(180) translate(-30 -48)">
    <use xlink:href="#rim"/>
    <path pointer-events="none" fill="none" stroke="white" stroke-width="1.5" d="M0,-3.0v7 M-2.5,-0.5L0,-3.0L2.5,-0.5"/>
  </g>
  <g id="arrowLeft" transform="rotate(270) translate(-36 17)">
    <use xlink:href="#rim"/>
    <path pointer-events="none" fill="none" stroke="white" stroke-width="1.5" d="M0,-3.0v7 M-2.5,-0.5L0,-3.0L2.5,-0.5"/>
  </g>
  <g id="resetDef">
    <use xlink:href="#rim2" fill="#404040"><set attributeName="fill" to="#808080" begin="reset.mouseover" end="reset.mouseout"/></use>
  </g>
</defs>
<script type="application/ecmascript">
var viewWidth = 678;
var viewHeight = 247;
var sectionId = 'dynsection-0';
</script>
<script type="application/ecmascript" xlink:href="svg.min.js"/>
<svg id="graph" class="graph">
<g id="viewport">
<title>_STP_CmdQueueItem</title>
<!-- Node1 -->
<g id="Node000001" class="node">
<title>Node1</title>
<g id="a_Node000001"><a xlink:title=" ">
<polygon fill="#999999" stroke="#666666" points="669.75,-125.75 548.75,-125.75 548.75,-105 669.75,-105 669.75,-125.75"/>
<text xml:space="preserve" text-anchor="middle" x="609.25" y="-112.25" font-family="Helvetica,sans-Serif" font-size="10.00">_STP_CmdQueueItem</text>
</a>
</g>
</g>
<!-- Node2 -->
<g id="Node000002" class="node">
<title>Node2</title>
<g id="a_Node000002"><a xlink:href="struct__STP__StepperHandleImpl.html" target="_top" xlink:title="Handle structure for a stepper motor instance.">
<polygon fill="white" stroke="#666666" points="416.75,-230.75 278.5,-230.75 278.5,-210 416.75,-210 416.75,-230.75"/>
<text xml:space="preserve" text-anchor="middle" x="347.62" y="-217.25" font-family="Helvetica,sans-Serif" font-size="10.00">_STP_StepperHandleImpl</text>
</a>
</g>
</g>
<!-- Node2&#45;&gt;Node1 -->
<g id="edge1_Node000001_Node000002" class="edge">
<title>Node2&#45;&gt;Node1</title>
<g id="a_edge1_Node000001_Node000002"><a xlink:title=" ">
<path fill="none" stroke="#9a32cd" stroke-dasharray="5,2" d="M427.99,-217.7C461.17,-213.99 499.24,-206.23 530.75,-190.38 561.53,-174.89 588.1,-142.92 600.61,-126.16"/>
<polygon fill="#9a32cd" stroke="#9a32cd" points="428.05,-214.17 418.45,-218.65 428.75,-221.14 428.05,-214.17"/>
</a>
</g>
<text xml:space="preserve" text-anchor="start" x="473.38" y="-220.8" font-family="Helvetica,sans-Serif" font-size="10.00" fill="grey">handle</text>
</g>
<!-- Node3 -->
<g id="Node000003" class="node">
<title>Node3</title>
<g id="a_Node000003"><a xlink:href="struct__STP__StepperMovement.html" target="_top" xlink:title="Structure for tracking stepper motor movement state and parameters.">
<polygon fill="white" stroke="#666666" points="134.5,-230.75 0,-230.75 0,-210 134.5,-210 134.5,-230.75"/>
<text xml:space="preserve" text-anchor="middle" x="67.25" y="-217.25" font-family="Helvetica,sans-Serif" font-size="10.00">_STP_StepperMovement</text>
</a>
</g>
</g>
<!-- Node3&#45;&gt;Node2 -->
<g id="edge2_Node000002_Node000003" class="edge">
<title>Node3&#45;&gt;Node2</title>
<g id="a_edge2_Node000002_Node000003"><a xlink:title=" ">
<path fill="none" stroke="#9a32cd" stroke-dasharray="5,2" d="M146.35,-220.38C187.77,-220.38 238.18,-220.38 278.07,-220.38"/>
<polygon fill="#9a32cd" stroke="#9a32cd" points="146.44,-216.88 136.44,-220.38 146.44,-223.88 146.44,-216.88"/>
</a>
</g>
<text xml:space="preserve" text-anchor="start" x="155.5" y="-226.38" font-family="Helvetica,sans-Serif" font-size="10.00" fill="grey">movementHandle</text>
</g>
<!-- Node4 -->
<g id="Node000004" class="node">
<title>Node4</title>
<g id="a_Node000004"><a xlink:href="struct__STP__MoveCmdData.html" target="_top" xlink:title=" ">
<polygon fill="white" stroke="#666666" points="406.25,-188.75 289,-188.75 289,-168 406.25,-168 406.25,-188.75"/>
<text xml:space="preserve" text-anchor="middle" x="347.62" y="-175.25" font-family="Helvetica,sans-Serif" font-size="10.00">_STP_MoveCmdData</text>
</a>
</g>
</g>
<!-- Node4&#45;&gt;Node1 -->
<g id="edge3_Node000001_Node000004" class="edge">
<title>Node4&#45;&gt;Node1</title>
<g id="a_edge3_Node000001_Node000004"><a xlink:title=" ">
<path fill="none" stroke="#9a32cd" stroke-dasharray="5,2" d="M417.88,-172.21C452.3,-168.02 494.24,-161.21 530.75,-150.38 551.13,-144.33 573.11,-134.01 588.43,-126.14"/>
<polygon fill="#9a32cd" stroke="#9a32cd" points="417.55,-168.72 408.02,-173.35 418.36,-175.68 417.55,-168.72"/>
</a>
</g>
<text xml:space="preserve" text-anchor="start" x="476" y="-173.48" font-family="Helvetica,sans-Serif" font-size="10.00" fill="grey">move</text>
</g>
<!-- Node5 -->
<g id="Node000005" class="node">
<title>Node5</title>
<g id="a_Node000005"><a xlink:href="struct__STP__StopCmdData.html" target="_top" xlink:title=" ">
<polygon fill="white" stroke="#666666" points="403.62,-146.75 291.62,-146.75 291.62,-126 403.62,-126 403.62,-146.75"/>
<text xml:space="preserve" text-anchor="middle" x="347.62" y="-133.25" font-family="Helvetica,sans-Serif" font-size="10.00">_STP_StopCmdData</text>
</a>
</g>
</g>
<!-- Node5&#45;&gt;Node1 -->
<g id="edge4_Node000001_Node000005" class="edge">
<title>Node5&#45;&gt;Node1</title>
<g id="a_edge4_Node000001_Node000005"><a xlink:title=" ">
<path fill="none" stroke="#9a32cd" stroke-dasharray="5,2" d="M415.28,-130.98C456.39,-127.66 508.66,-123.43 548.43,-120.21"/>
<polygon fill="#9a32cd" stroke="#9a32cd" points="415.2,-127.48 405.51,-131.77 415.76,-134.46 415.2,-127.48"/>
</a>
</g>
<text xml:space="preserve" text-anchor="start" x="479.38" y="-133.76" font-family="Helvetica,sans-Serif" font-size="10.00" fill="grey">stop</text>
</g>
<!-- Node6 -->
<g id="Node000006" class="node">
<title>Node6</title>
<g id="a_Node000006"><a xlink:href="struct__STP__InitHandleCmdData.html" target="_top" xlink:title=" ">
<polygon fill="white" stroke="#666666" points="417.88,-104.75 277.38,-104.75 277.38,-84 417.88,-84 417.88,-104.75"/>
<text xml:space="preserve" text-anchor="middle" x="347.62" y="-91.25" font-family="Helvetica,sans-Serif" font-size="10.00">_STP_InitHandleCmdData</text>
</a>
</g>
</g>
<!-- Node6&#45;&gt;Node1 -->
<g id="edge5_Node000001_Node000006" class="edge">
<title>Node6&#45;&gt;Node1</title>
<g id="a_edge5_Node000001_Node000006"><a xlink:title=" ">
<path fill="none" stroke="#9a32cd" stroke-dasharray="5,2" d="M429.44,-93.73C461.12,-94.26 497.72,-95.82 530.75,-99.62 540.84,-100.79 551.58,-102.59 561.74,-104.57"/>
<polygon fill="#9a32cd" stroke="#9a32cd" points="429.57,-90.23 419.52,-93.6 429.48,-97.23 429.57,-90.23"/>
</a>
</g>
<text xml:space="preserve" text-anchor="start" x="475.25" y="-105.62" font-family="Helvetica,sans-Serif" font-size="10.00" fill="grey">config</text>
</g>
<!-- Node7 -->
<g id="Node000007" class="node">
<title>Node7</title>
<g id="a_Node000007"><a xlink:href="struct__STP__StepperConfig.html" target="_top" xlink:title="Configuration structure for initializing a stepper motor.">
<polygon fill="white" stroke="#666666" points="123.62,-104.75 10.88,-104.75 10.88,-84 123.62,-84 123.62,-104.75"/>
<text xml:space="preserve" text-anchor="middle" x="67.25" y="-91.25" font-family="Helvetica,sans-Serif" font-size="10.00">_STP_StepperConfig</text>
</a>
</g>
</g>
<!-- Node7&#45;&gt;Node6 -->
<g id="edge6_Node000006_Node000007" class="edge">
<title>Node7&#45;&gt;Node6</title>
<g id="a_edge6_Node000006_Node000007"><a xlink:title=" ">
<path fill="none" stroke="#9a32cd" stroke-dasharray="5,2" d="M135.36,-94.38C178.21,-94.38 233.64,-94.38 276.97,-94.38"/>
<polygon fill="#9a32cd" stroke="#9a32cd" points="135.43,-90.88 125.43,-94.38 135.43,-97.88 135.43,-90.88"/>
</a>
</g>
<text xml:space="preserve" text-anchor="start" x="184.75" y="-100.38" font-family="Helvetica,sans-Serif" font-size="10.00" fill="grey">config</text>
</g>
<!-- Node8 -->
<g id="Node000008" class="node">
<title>Node8</title>
<g id="a_Node000008"><a xlink:href="struct__STP__SetAccelerationCmdData.html" target="_top" xlink:title=" ">
<polygon fill="white" stroke="#666666" points="431,-62.75 264.25,-62.75 264.25,-42 431,-42 431,-62.75"/>
<text xml:space="preserve" text-anchor="middle" x="347.62" y="-49.25" font-family="Helvetica,sans-Serif" font-size="10.00">_STP_SetAccelerationCmdData</text>
</a>
</g>
</g>
<!-- Node8&#45;&gt;Node1 -->
<g id="edge7_Node000001_Node000008" class="edge">
<title>Node8&#45;&gt;Node1</title>
<g id="a_edge7_Node000001_Node000008"><a xlink:title=" ">
<path fill="none" stroke="#9a32cd" stroke-dasharray="5,2" d="M442.55,-54.96C471.36,-57.69 502.81,-62.69 530.75,-71.62 554.15,-79.11 578.38,-94.17 593.38,-104.52"/>
<polygon fill="#9a32cd" stroke="#9a32cd" points="443.01,-51.48 432.74,-54.11 442.41,-58.46 443.01,-51.48"/>
</a>
</g>
<text xml:space="preserve" text-anchor="start" x="452" y="-77.62" font-family="Helvetica,sans-Serif" font-size="10.00" fill="grey">setAcceleration</text>
</g>
<!-- Node9 -->
<g id="Node000009" class="node">
<title>Node9</title>
<g id="a_Node000009"><a xlink:href="struct__STP__SetEndVelocityCmdData.html" target="_top" xlink:title=" ">
<polygon fill="white" stroke="#666666" points="429.12,-20.75 266.12,-20.75 266.12,0 429.12,0 429.12,-20.75"/>
<text xml:space="preserve" text-anchor="middle" x="347.62" y="-7.25" font-family="Helvetica,sans-Serif" font-size="10.00">_STP_SetEndVelocityCmdData</text>
</a>
</g>
</g>
<!-- Node9&#45;&gt;Node1 -->
<g id="edge8_Node000001_Node000009" class="edge">
<title>Node9&#45;&gt;Node1</title>
<g id="a_edge8_Node000001_Node000009"><a xlink:title=" ">
<path fill="none" stroke="#9a32cd" stroke-dasharray="5,2" d="M440.95,-10.02C470.89,-13.02 503.4,-19.75 530.75,-33.62 563.54,-50.26 589.96,-86.55 601.69,-104.66"/>
<polygon fill="#9a32cd" stroke="#9a32cd" points="441.39,-6.55 431.13,-9.18 440.79,-13.52 441.39,-6.55"/>
</a>
</g>
<text xml:space="preserve" text-anchor="start" x="453.88" y="-39.62" font-family="Helvetica,sans-Serif" font-size="10.00" fill="grey">setEndVelocity</text>
</g>
</g>
</svg>

<g id="navigator" transform="translate(0 0)" fill="#404254">
  <rect fill="#f2f5e9" fill-opacity="0.5" stroke="#606060" stroke-width=".5" x="0" y="0" width="60" height="60"/>
  <use id="zoomplus" xlink:href="#zoomPlus" x="17" y="9" onmousedown="handleZoom(evt,'in')"/>
  <use id="zoomminus" xlink:href="#zoomMin" x="42" y="9" onmousedown="handleZoom(evt,'out')"/>
  <use id="reset" xlink:href="#resetDef" x="30" y="36" onmousedown="handleReset()"/>
   <use id="arrowup" xlink:href="#arrowUp" x="0" y="0" onmousedown="handlePan(0,-1)"/>
  <use id="arrowright" xlink:href="#arrowRight" x="0" y="0" onmousedown="handlePan(1,0)"/>
  <use id="arrowdown" xlink:href="#arrowDown" x="0" y="0" onmousedown="handlePan(0,1)"/>
  <use id="arrowleft" xlink:href="#arrowLeft" x="0" y="0" onmousedown="handlePan(-1,0)"/>
</g>
<svg viewBox="0 0 15 15" width="100%" height="30px" preserveAspectRatio="xMaxYMin meet">
 <g id="arrow_out" transform="scale(0.3 0.3)">
  <a xlink:href="struct__STP__CmdQueueItem__coll__graph_org.svg" target="_base">
   <rect id="button" ry="5" rx="5" y="6" x="6" height="38" width="38"
        fill="#f2f5e9" fill-opacity="0.5" stroke="#606060" stroke-width="1.0"/>
   <path id="arrow"
     d="M 11.500037,31.436501 C 11.940474,20.09759 22.043105,11.32322 32.158766,21.979434 L 37.068811,17.246167 C 37.068811,17.246167 37.088388,32 37.088388,32 L 22.160133,31.978069 C 22.160133,31.978069 26.997745,27.140456 26.997745,27.140456 C 18.528582,18.264221 13.291696,25.230495 11.500037,31.436501 z"
     style="fill:#404040;"/>
  </a>
 </g>
</svg>

<style type='text/css'>
<![CDATA[
[data-mouse-over-selected='false'] { opacity: 0.7; }
[data-mouse-over-selected='true']  { opacity: 1.0; }
]]>
</style>
<script type="application/ecmascript"><![CDATA[
document.addEventListener('DOMContentLoaded', (event) => {
  highlightEdges();
  highlightAdjacentNodes();
});
]]></script>
</svg>
