<?xml version="1.0" encoding="UTF-8" standalone="no"?>
<!DOCTYPE svg PUBLIC "-//W3C//DTD SVG 1.1//EN"
 "http://www.w3.org/Graphics/SVG/1.1/DTD/svg11.dtd">
<!-- Generated by graphviz version 14.1.5 (0)
 -->
<!-- Title: source/task_helpers/sync_wait.h Pages: 1 -->
<svg width="1722pt" height="124pt"
 viewBox="0.00 0.00 1722.00 124.00" xmlns="http://www.w3.org/2000/svg" xmlns:xlink="http://www.w3.org/1999/xlink">
<g id="graph0" class="graph" transform="scale(1 1) rotate(0) translate(4 119.75)">
<title>source/task_helpers/sync_wait.h</title>
<!-- Node1 -->
<g id="Node000001" class="node">
<title>Node1</title>
<g id="a_Node000001"><a xlink:title=" ">
<polygon fill="#999999" stroke="#666666" points="892.88,-115.75 779.38,-115.75 779.38,-82.25 892.88,-82.25 892.88,-115.75"/>
<text xml:space="preserve" text-anchor="start" x="787.38" y="-102.25" font-family="Helvetica,sans-Serif" font-size="10.00">source/task_helpers</text>
<text xml:space="preserve" text-anchor="middle" x="836.12" y="-89.5" font-family="Helvetica,sans-Serif" font-size="10.00">/sync_wait.h</text>
</a>
</g>
</g>
<!-- Node2 -->
<g id="Node000002" class="node">
<title>Node2</title>
<g id="a_Node000002"><a xlink:href="grabber_8c.html" target="_top" xlink:title=" ">
<polygon fill="white" stroke="#666666" points="126.25,-39.88 0,-39.88 0,-6.38 126.25,-6.38 126.25,-39.88"/>
<text xml:space="preserve" text-anchor="start" x="8" y="-26.38" font-family="Helvetica,sans-Serif" font-size="10.00">source/motion/grabber</text>
<text xml:space="preserve" text-anchor="middle" x="63.12" y="-13.62" font-family="Helvetica,sans-Serif" font-size="10.00">/grabber.c</text>
</a>
</g>
</g>
<!-- Node1&#45;&gt;Node2 -->
<g id="edge1_Node000001_Node000002" class="edge">
<title>Node1&#45;&gt;Node2</title>
<g id="a_edge1_Node000001_Node000002"><a xlink:title=" ">
<path fill="none" stroke="#63b8ff" d="M767.87,-98.02C641.77,-96.94 364.23,-89.34 135.12,-46.25 127.03,-44.73 118.56,-42.61 110.38,-40.29"/>
<polygon fill="#63b8ff" stroke="#63b8ff" points="767.69,-101.52 777.72,-98.09 767.75,-94.52 767.69,-101.52"/>
</a>
</g>
</g>
<!-- Node3 -->
<g id="Node000003" class="node">
<title>Node3</title>
<g id="a_Node000003"><a xlink:href="motor__homing_8c.html" target="_top" xlink:title=" ">
<polygon fill="white" stroke="#666666" points="269.88,-39.88 144.38,-39.88 144.38,-6.38 269.88,-6.38 269.88,-39.88"/>
<text xml:space="preserve" text-anchor="start" x="152.38" y="-26.38" font-family="Helvetica,sans-Serif" font-size="10.00">source/motion/homing</text>
<text xml:space="preserve" text-anchor="middle" x="207.12" y="-13.62" font-family="Helvetica,sans-Serif" font-size="10.00">/motor_homing.c</text>
</a>
</g>
</g>
<!-- Node1&#45;&gt;Node3 -->
<g id="edge2_Node000001_Node000003" class="edge">
<title>Node1&#45;&gt;Node3</title>
<g id="a_edge2_Node000001_Node000003"><a xlink:title=" ">
<path fill="none" stroke="#63b8ff" d="M767.59,-96.16C661.84,-92.3 452.91,-80.64 279.12,-46.25 271.17,-44.68 262.85,-42.57 254.8,-40.27"/>
<polygon fill="#63b8ff" stroke="#63b8ff" points="767.41,-99.65 777.53,-96.5 767.66,-92.66 767.41,-99.65"/>
</a>
</g>
</g>
<!-- Node4 -->
<g id="Node000004" class="node">
<title>Node4</title>
<g id="a_Node000004"><a xlink:href="motor__init_8c.html" target="_top" xlink:title=" ">
<polygon fill="white" stroke="#666666" points="406.12,-39.88 288.12,-39.88 288.12,-6.38 406.12,-6.38 406.12,-39.88"/>
<text xml:space="preserve" text-anchor="start" x="296.12" y="-26.38" font-family="Helvetica,sans-Serif" font-size="10.00">source/motion/motor</text>
<text xml:space="preserve" text-anchor="middle" x="347.12" y="-13.62" font-family="Helvetica,sans-Serif" font-size="10.00">/motor_init.c</text>
</a>
</g>
</g>
<!-- Node1&#45;&gt;Node4 -->
<g id="edge3_Node000001_Node000004" class="edge">
<title>Node1&#45;&gt;Node4</title>
<g id="a_edge3_Node000001_Node000004"><a xlink:title=" ">
<path fill="none" stroke="#63b8ff" d="M767.6,-93.64C683.71,-87.38 537.68,-73.46 415.12,-46.25 407.85,-44.64 400.25,-42.56 392.88,-40.33"/>
<polygon fill="#63b8ff" stroke="#63b8ff" points="767.28,-97.13 777.51,-94.36 767.79,-90.15 767.28,-97.13"/>
</a>
</g>
</g>
<!-- Node5 -->
<g id="Node000005" class="node">
<title>Node5</title>
<g id="a_Node000005"><a xlink:href="motor__process_8c.html" target="_top" xlink:title=" ">
<polygon fill="white" stroke="#666666" points="542.12,-39.88 424.12,-39.88 424.12,-6.38 542.12,-6.38 542.12,-39.88"/>
<text xml:space="preserve" text-anchor="start" x="432.12" y="-26.38" font-family="Helvetica,sans-Serif" font-size="10.00">source/motion/motor</text>
<text xml:space="preserve" text-anchor="middle" x="483.12" y="-13.62" font-family="Helvetica,sans-Serif" font-size="10.00">/motor_process.c</text>
</a>
</g>
</g>
<!-- Node1&#45;&gt;Node5 -->
<g id="edge4_Node000001_Node000005" class="edge">
<title>Node1&#45;&gt;Node5</title>
<g id="a_edge4_Node000001_Node000005"><a xlink:title=" ">
<path fill="none" stroke="#63b8ff" d="M767.89,-88.26C709.81,-79.34 624.38,-64.73 551.12,-46.25 544.26,-44.52 537.09,-42.46 530.07,-40.31"/>
<polygon fill="#63b8ff" stroke="#63b8ff" points="767.23,-91.7 777.64,-89.74 768.28,-84.78 767.23,-91.7"/>
</a>
</g>
</g>
<!-- Node6 -->
<g id="Node000006" class="node">
<title>Node6</title>
<g id="a_Node000006"><a xlink:href="motor__sync_8c.html" target="_top" xlink:title=" ">
<polygon fill="white" stroke="#666666" points="678.12,-39.88 560.12,-39.88 560.12,-6.38 678.12,-6.38 678.12,-39.88"/>
<text xml:space="preserve" text-anchor="start" x="568.12" y="-26.38" font-family="Helvetica,sans-Serif" font-size="10.00">source/motion/motor</text>
<text xml:space="preserve" text-anchor="middle" x="619.12" y="-13.62" font-family="Helvetica,sans-Serif" font-size="10.00">/motor_sync.c</text>
</a>
</g>
</g>
<!-- Node1&#45;&gt;Node6 -->
<g id="edge5_Node000001_Node000006" class="edge">
<title>Node1&#45;&gt;Node6</title>
<g id="a_edge5_Node000001_Node000006"><a xlink:title=" ">
<path fill="none" stroke="#63b8ff" d="M778,-78.21C743.15,-66.35 699.4,-51.45 666.64,-40.3"/>
<polygon fill="#63b8ff" stroke="#63b8ff" points="776.48,-81.39 787.07,-81.3 778.73,-74.76 776.48,-81.39"/>
</a>
</g>
</g>
<!-- Node7 -->
<g id="Node000007" class="node">
<title>Node7</title>
<g id="a_Node000007"><a xlink:href="motor__tmc_8c.html" target="_top" xlink:title=" ">
<polygon fill="white" stroke="#666666" points="814.12,-39.88 696.12,-39.88 696.12,-6.38 814.12,-6.38 814.12,-39.88"/>
<text xml:space="preserve" text-anchor="start" x="704.12" y="-26.38" font-family="Helvetica,sans-Serif" font-size="10.00">source/motion/motor</text>
<text xml:space="preserve" text-anchor="middle" x="755.12" y="-13.62" font-family="Helvetica,sans-Serif" font-size="10.00">/motor_tmc.c</text>
</a>
</g>
</g>
<!-- Node1&#45;&gt;Node7 -->
<g id="edge6_Node000001_Node000007" class="edge">
<title>Node1&#45;&gt;Node7</title>
<g id="a_edge6_Node000001_Node000007"><a xlink:title=" ">
<path fill="none" stroke="#63b8ff" d="M810.08,-74.24C797.85,-63.09 783.59,-50.09 772.67,-40.12"/>
<polygon fill="#63b8ff" stroke="#63b8ff" points="807.68,-76.8 817.43,-80.95 812.4,-71.63 807.68,-76.8"/>
</a>
</g>
</g>
<!-- Node8 -->
<g id="Node000008" class="node">
<title>Node8</title>
<g id="a_Node000008"><a xlink:href="scara__kinematics_8c.html" target="_top" xlink:title=" ">
<polygon fill="white" stroke="#666666" points="1004.12,-39.88 832.12,-39.88 832.12,-6.38 1004.12,-6.38 1004.12,-39.88"/>
<text xml:space="preserve" text-anchor="start" x="840.12" y="-26.38" font-family="Helvetica,sans-Serif" font-size="10.00">source/motion/scara</text>
<text xml:space="preserve" text-anchor="middle" x="918.12" y="-13.62" font-family="Helvetica,sans-Serif" font-size="10.00">_kinematics/scara_kinematics.c</text>
</a>
</g>
</g>
<!-- Node1&#45;&gt;Node8 -->
<g id="edge7_Node000001_Node000008" class="edge">
<title>Node1&#45;&gt;Node8</title>
<g id="a_edge7_Node000001_Node000008"><a xlink:title=" ">
<path fill="none" stroke="#63b8ff" d="M862.13,-74.57C874.6,-63.34 889.2,-50.19 900.37,-40.12"/>
<polygon fill="#63b8ff" stroke="#63b8ff" points="860.13,-71.66 855.04,-80.96 864.81,-76.86 860.13,-71.66"/>
</a>
</g>
</g>
<!-- Node9 -->
<g id="Node000009" class="node">
<title>Node9</title>
<g id="a_Node000009"><a xlink:href="scara__kinematics__process_8c.html" target="_top" xlink:title=" ">
<polygon fill="white" stroke="#666666" points="1186,-46.25 1022.25,-46.25 1022.25,0 1186,0 1186,-46.25"/>
<text xml:space="preserve" text-anchor="start" x="1030.25" y="-32.75" font-family="Helvetica,sans-Serif" font-size="10.00">source/motion/scara</text>
<text xml:space="preserve" text-anchor="start" x="1030.25" y="-20" font-family="Helvetica,sans-Serif" font-size="10.00">_kinematics/scara_kinematics</text>
<text xml:space="preserve" text-anchor="middle" x="1104.12" y="-7.25" font-family="Helvetica,sans-Serif" font-size="10.00">_process.c</text>
</a>
</g>
</g>
<!-- Node1&#45;&gt;Node9 -->
<g id="edge8_Node000001_Node000009" class="edge">
<title>Node1&#45;&gt;Node9</title>
<g id="a_edge8_Node000001_Node000009"><a xlink:title=" ">
<path fill="none" stroke="#63b8ff" d="M904.14,-79.25C940.04,-69.36 984.35,-57.14 1022.13,-46.73"/>
<polygon fill="#63b8ff" stroke="#63b8ff" points="903.46,-75.81 894.75,-81.84 905.32,-82.56 903.46,-75.81"/>
</a>
</g>
</g>
<!-- Node10 -->
<g id="Node000010" class="node">
<title>Node10</title>
<g id="a_Node000010"><a xlink:href="motorCmd_8c.html" target="_top" xlink:title=" ">
<polygon fill="white" stroke="#666666" points="1315.75,-33.5 1204.5,-33.5 1204.5,-12.75 1315.75,-12.75 1315.75,-33.5"/>
<text xml:space="preserve" text-anchor="middle" x="1260.12" y="-20" font-family="Helvetica,sans-Serif" font-size="10.00">source/motorCmd.c</text>
</a>
</g>
</g>
<!-- Node1&#45;&gt;Node10 -->
<g id="edge9_Node000001_Node000010" class="edge">
<title>Node1&#45;&gt;Node10</title>
<g id="a_edge9_Node000001_Node000010"><a xlink:title=" ">
<path fill="none" stroke="#63b8ff" d="M904.6,-91.93C977.37,-84.6 1095.45,-70.18 1195.12,-46.25 1208.45,-43.05 1222.93,-38.26 1234.82,-33.95"/>
<polygon fill="#63b8ff" stroke="#63b8ff" points="904.43,-88.43 894.83,-92.9 905.12,-95.4 904.43,-88.43"/>
</a>
</g>
</g>
<!-- Node11 -->
<g id="Node000011" class="node">
<title>Node11</title>
<g id="a_Node000011"><a xlink:href="motor__test_8c.html" target="_top" xlink:title=" ">
<polygon fill="white" stroke="#666666" points="1446.5,-33.5 1333.75,-33.5 1333.75,-12.75 1446.5,-12.75 1446.5,-33.5"/>
<text xml:space="preserve" text-anchor="middle" x="1390.12" y="-20" font-family="Helvetica,sans-Serif" font-size="10.00">source/motor_test.c</text>
</a>
</g>
</g>
<!-- Node1&#45;&gt;Node11 -->
<g id="edge10_Node000001_Node000011" class="edge">
<title>Node1&#45;&gt;Node11</title>
<g id="a_edge10_Node000001_Node000011"><a xlink:title=" ">
<path fill="none" stroke="#63b8ff" d="M904.75,-95.55C1000.06,-91.06 1177.46,-78.77 1325.12,-46.25 1338.75,-43.25 1353.49,-38.37 1365.49,-33.96"/>
<polygon fill="#63b8ff" stroke="#63b8ff" points="904.6,-92.05 894.77,-96 904.92,-99.05 904.6,-92.05"/>
</a>
</g>
</g>
<!-- Node12 -->
<g id="Node000012" class="node">
<title>Node12</title>
<g id="a_Node000012"><a xlink:href="statemachine__helpers_8c.html" target="_top" xlink:title="Command parsing and helper implementations for the state machine.">
<polygon fill="white" stroke="#666666" points="1582.12,-39.88 1464.12,-39.88 1464.12,-6.38 1582.12,-6.38 1582.12,-39.88"/>
<text xml:space="preserve" text-anchor="start" x="1472.12" y="-26.38" font-family="Helvetica,sans-Serif" font-size="10.00">source/statemachine</text>
<text xml:space="preserve" text-anchor="middle" x="1523.12" y="-13.62" font-family="Helvetica,sans-Serif" font-size="10.00">_helpers.c</text>
</a>
</g>
</g>
<!-- Node1&#45;&gt;Node12 -->
<g id="edge11_Node000001_Node000012" class="edge">
<title>Node1&#45;&gt;Node12</title>
<g id="a_edge11_Node000001_Node000012"><a xlink:title=" ">
<path fill="none" stroke="#63b8ff" d="M904.46,-97.42C1019.32,-95.31 1257.87,-86.03 1455.12,-46.25 1462.67,-44.73 1470.55,-42.65 1478.16,-40.36"/>
<polygon fill="#63b8ff" stroke="#63b8ff" points="904.52,-93.92 894.58,-97.59 904.64,-100.92 904.52,-93.92"/>
</a>
</g>
</g>
<!-- Node13 -->
<g id="Node000013" class="node">
<title>Node13</title>
<g id="a_Node000013"><a xlink:href="sync__wait_8c.html" target="_top" xlink:title=" ">
<polygon fill="white" stroke="#666666" points="1713.88,-39.88 1600.38,-39.88 1600.38,-6.38 1713.88,-6.38 1713.88,-39.88"/>
<text xml:space="preserve" text-anchor="start" x="1608.38" y="-26.38" font-family="Helvetica,sans-Serif" font-size="10.00">source/task_helpers</text>
<text xml:space="preserve" text-anchor="middle" x="1657.12" y="-13.62" font-family="Helvetica,sans-Serif" font-size="10.00">/sync_wait.c</text>
</a>
</g>
</g>
<!-- Node1&#45;&gt;Node13 -->
<g id="edge12_Node000001_Node000013" class="edge">
<title>Node1&#45;&gt;Node13</title>
<g id="a_edge12_Node000001_Node000013"><a xlink:title=" ">
<path fill="none" stroke="#63b8ff" d="M904.42,-95.55C1064.6,-89.44 1460.71,-72.14 1591.12,-46.25 1598.59,-44.77 1606.38,-42.68 1613.88,-40.36"/>
<polygon fill="#63b8ff" stroke="#63b8ff" points="904.68,-92.04 894.82,-95.91 904.94,-99.03 904.68,-92.04"/>
</a>
</g>
</g>
</g>
</svg>
