<?xml version="1.0" encoding="UTF-8" standalone="no"?>
<!DOCTYPE svg PUBLIC "-//W3C//DTD SVG 1.1//EN"
 "http://www.w3.org/Graphics/SVG/1.1/DTD/svg11.dtd">
<!-- Generated by graphviz version 14.1.4 (0)
 -->
<!-- Title: source/task_helpers/sync_wait.h Pages: 1 -->
<svg width="433pt" height="155pt"
 viewBox="0.00 0.00 433.00 155.00" xmlns="http://www.w3.org/2000/svg" xmlns:xlink="http://www.w3.org/1999/xlink">

<svg id="main" version="1.1" xmlns="http://www.w3.org/2000/svg" xmlns:xlink="http://www.w3.org/1999/xlink" xml:space="preserve">

<style type="text/css"><![CDATA[
.node, .edge {opacity: 0.7;}
.node.selected, .edge.selected {opacity: 1;}
.edge:hover path { stroke: red; }
.edge:hover polygon { stroke: red; fill: red; }
]]></style>
<script type="application/ecmascript" xlink:href="svg.min.js"/>
<svg id="graph" class="graph">
<g id="graph0" class="graph" transform="scale(1 1) rotate(0) translate(4 151)">
<title>source/task_helpers/sync_wait.h</title>
<!-- Node1 -->
<g id="Node000001" class="node">
<title>Node1</title>
<g id="a_Node000001"><a xlink:title=" ">
<polygon fill="#999999" stroke="#666666" points="243.12,-147 129.62,-147 129.62,-113.5 243.12,-113.5 243.12,-147"/>
<text xml:space="preserve" text-anchor="start" x="137.62" y="-133.5" font-family="Helvetica,sans-Serif" font-size="10.00">source/task_helpers</text>
<text xml:space="preserve" text-anchor="middle" x="186.38" y="-120.75" font-family="Helvetica,sans-Serif" font-size="10.00">/sync_wait.h</text>
</a>
</g>
</g>
<!-- Node2 -->
<g id="Node000002" class="node">
<title>Node2</title>
<g id="a_Node000002"><a xlink:title=" ">
<polygon fill="#e0e0e0" stroke="#999999" points="52.75,-20.75 0,-20.75 0,0 52.75,0 52.75,-20.75"/>
<text xml:space="preserve" text-anchor="middle" x="26.38" y="-7.25" font-family="Helvetica,sans-Serif" font-size="10.00">stdint.h</text>
</a>
</g>
</g>
<!-- Node1&#45;&gt;Node2 -->
<g id="edge1_Node000001_Node000002" class="edge">
<title>Node1&#45;&gt;Node2</title>
<g id="a_edge1_Node000001_Node000002"><a xlink:title=" ">
<path fill="none" stroke="#63b8ff" d="M164.46,-113.11C134.04,-90.69 79.28,-50.35 48.66,-27.79"/>
<polygon fill="#63b8ff" stroke="#63b8ff" points="50.97,-25.15 40.84,-22.03 46.82,-30.78 50.97,-25.15"/>
</a>
</g>
</g>
<!-- Node3 -->
<g id="Node000003" class="node">
<title>Node3</title>
<g id="a_Node000003"><a xlink:title=" ">
<polygon fill="#e0e0e0" stroke="#999999" points="142.12,-20.75 70.62,-20.75 70.62,0 142.12,0 142.12,-20.75"/>
<text xml:space="preserve" text-anchor="middle" x="106.38" y="-7.25" font-family="Helvetica,sans-Serif" font-size="10.00">FreeRTOS.h</text>
</a>
</g>
</g>
<!-- Node1&#45;&gt;Node3 -->
<g id="edge2_Node000001_Node000003" class="edge">
<title>Node1&#45;&gt;Node3</title>
<g id="a_edge2_Node000001_Node000003"><a xlink:title=" ">
<path fill="none" stroke="#63b8ff" d="M167.67,-113.4C157.18,-103.8 144.43,-90.86 135.38,-77.5 125.69,-63.21 118.04,-45.17 113.03,-31.54"/>
<polygon fill="#63b8ff" stroke="#63b8ff" points="116.42,-30.63 109.82,-22.34 109.81,-32.93 116.42,-30.63"/>
</a>
</g>
</g>
<!-- Node4 -->
<g id="Node000004" class="node">
<title>Node4</title>
<g id="a_Node000004"><a xlink:title=" ">
<polygon fill="#e0e0e0" stroke="#999999" points="321.88,-20.75 230.88,-20.75 230.88,0 321.88,0 321.88,-20.75"/>
<text xml:space="preserve" text-anchor="middle" x="276.38" y="-7.25" font-family="Helvetica,sans-Serif" font-size="10.00">event_groups.h</text>
</a>
</g>
</g>
<!-- Node1&#45;&gt;Node4 -->
<g id="edge3_Node000001_Node000004" class="edge">
<title>Node1&#45;&gt;Node4</title>
<g id="a_edge3_Node000001_Node000004"><a xlink:title=" ">
<path fill="none" stroke="#63b8ff" d="M204.01,-113.43C214.38,-103.64 227.38,-90.5 237.38,-77.5 248.67,-62.81 259.2,-44.56 266.47,-30.96"/>
<polygon fill="#63b8ff" stroke="#63b8ff" points="269.54,-32.64 271.05,-22.16 263.33,-29.41 269.54,-32.64"/>
</a>
</g>
</g>
<!-- Node5 -->
<g id="Node000005" class="node">
<title>Node5</title>
<g id="a_Node000005"><a xlink:title=" ">
<polygon fill="#e0e0e0" stroke="#999999" points="424.88,-20.75 339.88,-20.75 339.88,0 424.88,0 424.88,-20.75"/>
<text xml:space="preserve" text-anchor="middle" x="382.38" y="-7.25" font-family="Helvetica,sans-Serif" font-size="10.00">fsl_common.h</text>
</a>
</g>
</g>
<!-- Node1&#45;&gt;Node5 -->
<g id="edge4_Node000001_Node000005" class="edge">
<title>Node1&#45;&gt;Node5</title>
<g id="a_edge4_Node000001_Node000005"><a xlink:title=" ">
<path fill="none" stroke="#63b8ff" d="M213.22,-113.11C250.98,-90.4 319.31,-49.3 356.52,-26.92"/>
<polygon fill="#63b8ff" stroke="#63b8ff" points="358.08,-30.07 364.85,-21.92 354.47,-24.07 358.08,-30.07"/>
</a>
</g>
</g>
<!-- Node6 -->
<g id="Node000006" class="node">
<title>Node6</title>
<g id="a_Node000006"><a xlink:href="cmd__handle_8h.html" target="_top" xlink:title=" ">
<polygon fill="white" stroke="#666666" points="228.5,-77.5 144.25,-77.5 144.25,-56.75 228.5,-56.75 228.5,-77.5"/>
<text xml:space="preserve" text-anchor="middle" x="186.38" y="-64" font-family="Helvetica,sans-Serif" font-size="10.00">cmd_handle.h</text>
</a>
</g>
</g>
<!-- Node1&#45;&gt;Node6 -->
<g id="edge5_Node000001_Node000006" class="edge">
<title>Node1&#45;&gt;Node6</title>
<g id="a_edge5_Node000001_Node000006"><a xlink:title=" ">
<path fill="none" stroke="#63b8ff" d="M186.38,-113.19C186.38,-105.85 186.38,-97.07 186.38,-89.21"/>
<polygon fill="#63b8ff" stroke="#63b8ff" points="189.88,-89.48 186.38,-79.48 182.88,-89.48 189.88,-89.48"/>
</a>
</g>
</g>
<!-- Node6&#45;&gt;Node2 -->
<g id="edge6_Node000006_Node000002" class="edge">
<title>Node6&#45;&gt;Node2</title>
<g id="a_edge6_Node000006_Node000002"><a xlink:title=" ">
<path fill="none" stroke="#63b8ff" d="M157.77,-56.34C131.58,-47.38 92.66,-34.06 63.97,-24.24"/>
<polygon fill="#63b8ff" stroke="#63b8ff" points="65.16,-20.95 54.57,-21.02 62.9,-27.57 65.16,-20.95"/>
</a>
</g>
</g>
<!-- Node6&#45;&gt;Node3 -->
<g id="edge7_Node000006_Node000003" class="edge">
<title>Node6&#45;&gt;Node3</title>
<g id="a_edge7_Node000006_Node000003"><a xlink:title=" ">
<path fill="none" stroke="#63b8ff" d="M172.07,-56.34C160.36,-48.32 143.54,-36.81 129.85,-27.44"/>
<polygon fill="#63b8ff" stroke="#63b8ff" points="132.03,-24.69 121.8,-21.93 128.08,-30.47 132.03,-24.69"/>
</a>
</g>
</g>
<!-- Node6&#45;&gt;Node4 -->
<g id="edge8_Node000006_Node000004" class="edge">
<title>Node6&#45;&gt;Node4</title>
<g id="a_edge8_Node000006_Node000004"><a xlink:title=" ">
<path fill="none" stroke="#63b8ff" d="M202.47,-56.34C215.9,-48.16 235.31,-36.36 250.86,-26.9"/>
<polygon fill="#63b8ff" stroke="#63b8ff" points="252.41,-30.05 259.13,-21.87 248.77,-24.07 252.41,-30.05"/>
</a>
</g>
</g>
<!-- Node6&#45;&gt;Node5 -->
<g id="edge9_Node000006_Node000005" class="edge">
<title>Node6&#45;&gt;Node5</title>
<g id="a_edge9_Node000006_Node000005"><a xlink:title=" ">
<path fill="none" stroke="#63b8ff" d="M221.42,-56.34C253.51,-47.37 301.22,-34.04 336.37,-24.23"/>
<polygon fill="#63b8ff" stroke="#63b8ff" points="337.16,-27.64 345.85,-21.58 335.28,-20.9 337.16,-27.64"/>
</a>
</g>
</g>
<!-- Node7 -->
<g id="Node000007" class="node">
<title>Node7</title>
<g id="a_Node000007"><a xlink:title=" ">
<polygon fill="#e0e0e0" stroke="#999999" points="212.38,-20.75 160.38,-20.75 160.38,0 212.38,0 212.38,-20.75"/>
<text xml:space="preserve" text-anchor="middle" x="186.38" y="-7.25" font-family="Helvetica,sans-Serif" font-size="10.00">stdlib.h</text>
</a>
</g>
</g>
<!-- Node6&#45;&gt;Node7 -->
<g id="edge10_Node000006_Node000007" class="edge">
<title>Node6&#45;&gt;Node7</title>
<g id="a_edge10_Node000006_Node000007"><a xlink:title=" ">
<path fill="none" stroke="#63b8ff" d="M186.38,-56.34C186.38,-49.72 186.38,-40.72 186.38,-32.52"/>
<polygon fill="#63b8ff" stroke="#63b8ff" points="189.88,-32.59 186.38,-22.59 182.88,-32.59 189.88,-32.59"/>
</a>
</g>
</g>
</g>
</svg>
</svg>

<style type='text/css'>
<![CDATA[
[data-mouse-over-selected='false'] { opacity: 0.7; }
[data-mouse-over-selected='true']  { opacity: 1.0; }
]]>
</style>
<script type="application/ecmascript"><![CDATA[
document.addEventListener('DOMContentLoaded', (event) => {
  highlightEdges();
  highlightAdjacentNodes();
});
]]></script>
</svg>
