<?xml version="1.0" encoding="UTF-8" standalone="no"?>
<!DOCTYPE svg PUBLIC "-//W3C//DTD SVG 1.1//EN"
 "http://www.w3.org/Graphics/SVG/1.1/DTD/svg11.dtd">
<!-- Generated by graphviz version 14.1.4 (0)
 -->
<!-- Title: source/task_helpers/sync_wait.c Pages: 1 -->
<svg width="433pt" height="212pt"
 viewBox="0.00 0.00 433.00 212.00" xmlns="http://www.w3.org/2000/svg" xmlns:xlink="http://www.w3.org/1999/xlink">
<g id="graph0" class="graph" transform="scale(1 1) rotate(0) translate(4 207.75)">
<title>source/task_helpers/sync_wait.c</title>
<!-- Node1 -->
<g id="Node000001" class="node">
<title>Node1</title>
<g id="a_Node000001"><a xlink:title=" ">
<polygon fill="#999999" stroke="#666666" points="243.12,-203.75 129.62,-203.75 129.62,-170.25 243.12,-170.25 243.12,-203.75"/>
<text xml:space="preserve" text-anchor="start" x="137.62" y="-190.25" font-family="Helvetica,sans-Serif" font-size="10.00">source/task_helpers</text>
<text xml:space="preserve" text-anchor="middle" x="186.38" y="-177.5" font-family="Helvetica,sans-Serif" font-size="10.00">/sync_wait.c</text>
</a>
</g>
</g>
<!-- Node2 -->
<g id="Node000002" class="node">
<title>Node2</title>
<g id="a_Node000002"><a xlink:href="sync__wait_8h.html" target="_top" xlink:title=" ">
<polygon fill="white" stroke="#666666" points="223.25,-134.25 149.5,-134.25 149.5,-113.5 223.25,-113.5 223.25,-134.25"/>
<text xml:space="preserve" text-anchor="middle" x="186.38" y="-120.75" font-family="Helvetica,sans-Serif" font-size="10.00">sync_wait.h</text>
</a>
</g>
</g>
<!-- Node1&#45;&gt;Node2 -->
<g id="edge1_Node000001_Node000002" class="edge">
<title>Node1&#45;&gt;Node2</title>
<g id="a_edge1_Node000001_Node000002"><a xlink:title=" ">
<path fill="none" stroke="#63b8ff" d="M186.38,-169.94C186.38,-162.6 186.38,-153.82 186.38,-145.96"/>
<polygon fill="#63b8ff" stroke="#63b8ff" points="189.88,-146.23 186.38,-136.23 182.88,-146.23 189.88,-146.23"/>
</a>
</g>
</g>
<!-- Node3 -->
<g id="Node000003" class="node">
<title>Node3</title>
<g id="a_Node000003"><a xlink:title=" ">
<polygon fill="#e0e0e0" stroke="#999999" points="52.75,-20.75 0,-20.75 0,0 52.75,0 52.75,-20.75"/>
<text xml:space="preserve" text-anchor="middle" x="26.38" y="-7.25" font-family="Helvetica,sans-Serif" font-size="10.00">stdint.h</text>
</a>
</g>
</g>
<!-- Node2&#45;&gt;Node3 -->
<g id="edge2_Node000002_Node000003" class="edge">
<title>Node2&#45;&gt;Node3</title>
<g id="a_edge2_Node000002_Node000003"><a xlink:title=" ">
<path fill="none" stroke="#63b8ff" d="M171.67,-113.06C158.05,-103.93 137.26,-89.92 119.38,-77.5 95.23,-60.74 67.84,-41.2 49.07,-27.73"/>
<polygon fill="#63b8ff" stroke="#63b8ff" points="51.25,-24.99 41.09,-21.99 47.17,-30.67 51.25,-24.99"/>
</a>
</g>
</g>
<!-- Node4 -->
<g id="Node000004" class="node">
<title>Node4</title>
<g id="a_Node000004"><a xlink:title=" ">
<polygon fill="#e0e0e0" stroke="#999999" points="142.12,-20.75 70.62,-20.75 70.62,0 142.12,0 142.12,-20.75"/>
<text xml:space="preserve" text-anchor="middle" x="106.38" y="-7.25" font-family="Helvetica,sans-Serif" font-size="10.00">FreeRTOS.h</text>
</a>
</g>
</g>
<!-- Node2&#45;&gt;Node4 -->
<g id="edge3_Node000002_Node000004" class="edge">
<title>Node2&#45;&gt;Node4</title>
<g id="a_edge3_Node000002_Node000004"><a xlink:title=" ">
<path fill="none" stroke="#63b8ff" d="M172.31,-113.04C161.12,-104.64 145.69,-91.69 135.38,-77.5 125.23,-63.54 117.61,-45.47 112.73,-31.75"/>
<polygon fill="#63b8ff" stroke="#63b8ff" points="116.12,-30.84 109.64,-22.46 109.48,-33.05 116.12,-30.84"/>
</a>
</g>
</g>
<!-- Node5 -->
<g id="Node000005" class="node">
<title>Node5</title>
<g id="a_Node000005"><a xlink:title=" ">
<polygon fill="#e0e0e0" stroke="#999999" points="321.88,-20.75 230.88,-20.75 230.88,0 321.88,0 321.88,-20.75"/>
<text xml:space="preserve" text-anchor="middle" x="276.38" y="-7.25" font-family="Helvetica,sans-Serif" font-size="10.00">event_groups.h</text>
</a>
</g>
</g>
<!-- Node2&#45;&gt;Node5 -->
<g id="edge4_Node000002_Node000005" class="edge">
<title>Node2&#45;&gt;Node5</title>
<g id="a_edge4_Node000002_Node000005"><a xlink:title=" ">
<path fill="none" stroke="#63b8ff" d="M199.56,-113.04C210.51,-104.45 226.08,-91.23 237.38,-77.5 249.15,-63.19 259.64,-44.91 266.77,-31.2"/>
<polygon fill="#63b8ff" stroke="#63b8ff" points="269.88,-32.81 271.24,-22.3 263.62,-29.67 269.88,-32.81"/>
</a>
</g>
</g>
<!-- Node6 -->
<g id="Node000006" class="node">
<title>Node6</title>
<g id="a_Node000006"><a xlink:title=" ">
<polygon fill="#e0e0e0" stroke="#999999" points="424.88,-20.75 339.88,-20.75 339.88,0 424.88,0 424.88,-20.75"/>
<text xml:space="preserve" text-anchor="middle" x="382.38" y="-7.25" font-family="Helvetica,sans-Serif" font-size="10.00">fsl_common.h</text>
</a>
</g>
</g>
<!-- Node2&#45;&gt;Node6 -->
<g id="edge5_Node000002_Node000006" class="edge">
<title>Node2&#45;&gt;Node6</title>
<g id="a_edge5_Node000002_Node000006"><a xlink:title=" ">
<path fill="none" stroke="#63b8ff" d="M203.43,-113.18C237.53,-93.78 314.36,-50.06 355.38,-26.73"/>
<polygon fill="#63b8ff" stroke="#63b8ff" points="356.95,-29.87 363.91,-21.88 353.49,-23.78 356.95,-29.87"/>
</a>
</g>
</g>
<!-- Node7 -->
<g id="Node000007" class="node">
<title>Node7</title>
<g id="a_Node000007"><a xlink:href="cmd__handle_8h.html" target="_top" xlink:title=" ">
<polygon fill="white" stroke="#666666" points="228.5,-77.5 144.25,-77.5 144.25,-56.75 228.5,-56.75 228.5,-77.5"/>
<text xml:space="preserve" text-anchor="middle" x="186.38" y="-64" font-family="Helvetica,sans-Serif" font-size="10.00">cmd_handle.h</text>
</a>
</g>
</g>
<!-- Node2&#45;&gt;Node7 -->
<g id="edge6_Node000002_Node000007" class="edge">
<title>Node2&#45;&gt;Node7</title>
<g id="a_edge6_Node000002_Node000007"><a xlink:title=" ">
<path fill="none" stroke="#63b8ff" d="M186.38,-113.09C186.38,-106.47 186.38,-97.47 186.38,-89.27"/>
<polygon fill="#63b8ff" stroke="#63b8ff" points="189.88,-89.34 186.38,-79.34 182.88,-89.34 189.88,-89.34"/>
</a>
</g>
</g>
<!-- Node7&#45;&gt;Node3 -->
<g id="edge7_Node000007_Node000003" class="edge">
<title>Node7&#45;&gt;Node3</title>
<g id="a_edge7_Node000007_Node000003"><a xlink:title=" ">
<path fill="none" stroke="#63b8ff" d="M157.77,-56.34C131.58,-47.38 92.66,-34.06 63.97,-24.24"/>
<polygon fill="#63b8ff" stroke="#63b8ff" points="65.16,-20.95 54.57,-21.02 62.9,-27.57 65.16,-20.95"/>
</a>
</g>
</g>
<!-- Node7&#45;&gt;Node4 -->
<g id="edge8_Node000007_Node000004" class="edge">
<title>Node7&#45;&gt;Node4</title>
<g id="a_edge8_Node000007_Node000004"><a xlink:title=" ">
<path fill="none" stroke="#63b8ff" d="M172.07,-56.34C160.36,-48.32 143.54,-36.81 129.85,-27.44"/>
<polygon fill="#63b8ff" stroke="#63b8ff" points="132.03,-24.69 121.8,-21.93 128.08,-30.47 132.03,-24.69"/>
</a>
</g>
</g>
<!-- Node7&#45;&gt;Node5 -->
<g id="edge9_Node000007_Node000005" class="edge">
<title>Node7&#45;&gt;Node5</title>
<g id="a_edge9_Node000007_Node000005"><a xlink:title=" ">
<path fill="none" stroke="#63b8ff" d="M202.47,-56.34C215.9,-48.16 235.31,-36.36 250.86,-26.9"/>
<polygon fill="#63b8ff" stroke="#63b8ff" points="252.41,-30.05 259.13,-21.87 248.77,-24.07 252.41,-30.05"/>
</a>
</g>
</g>
<!-- Node7&#45;&gt;Node6 -->
<g id="edge10_Node000007_Node000006" class="edge">
<title>Node7&#45;&gt;Node6</title>
<g id="a_edge10_Node000007_Node000006"><a xlink:title=" ">
<path fill="none" stroke="#63b8ff" d="M221.42,-56.34C253.51,-47.37 301.22,-34.04 336.37,-24.23"/>
<polygon fill="#63b8ff" stroke="#63b8ff" points="337.16,-27.64 345.85,-21.58 335.28,-20.9 337.16,-27.64"/>
</a>
</g>
</g>
<!-- Node8 -->
<g id="Node000008" class="node">
<title>Node8</title>
<g id="a_Node000008"><a xlink:title=" ">
<polygon fill="#e0e0e0" stroke="#999999" points="212.38,-20.75 160.38,-20.75 160.38,0 212.38,0 212.38,-20.75"/>
<text xml:space="preserve" text-anchor="middle" x="186.38" y="-7.25" font-family="Helvetica,sans-Serif" font-size="10.00">stdlib.h</text>
</a>
</g>
</g>
<!-- Node7&#45;&gt;Node8 -->
<g id="edge11_Node000007_Node000008" class="edge">
<title>Node7&#45;&gt;Node8</title>
<g id="a_edge11_Node000007_Node000008"><a xlink:title=" ">
<path fill="none" stroke="#63b8ff" d="M186.38,-56.34C186.38,-49.72 186.38,-40.72 186.38,-32.52"/>
<polygon fill="#63b8ff" stroke="#63b8ff" points="189.88,-32.59 186.38,-22.59 182.88,-32.59 189.88,-32.59"/>
</a>
</g>
</g>
</g>
</svg>
