<?xml version="1.0" encoding="UTF-8" standalone="no"?>
<!DOCTYPE svg PUBLIC "-//W3C//DTD SVG 1.1//EN"
 "http://www.w3.org/Graphics/SVG/1.1/DTD/svg11.dtd">
<!-- Generated by graphviz version 14.1.4 (0)
 -->
<!-- Title: source/task_helpers/sync_wait.h Pages: 1 -->
<svg width="1075pt" height="111pt"
 viewBox="0.00 0.00 1075.00 111.00" xmlns="http://www.w3.org/2000/svg" xmlns:xlink="http://www.w3.org/1999/xlink">
<g id="graph0" class="graph" transform="scale(1 1) rotate(0) translate(4 107)">
<title>source/task_helpers/sync_wait.h</title>
<!-- Node1 -->
<g id="Node000001" class="node">
<title>Node1</title>
<g id="a_Node000001"><a xlink:title=" ">
<polygon fill="#999999" stroke="#666666" points="589.75,-103 476.25,-103 476.25,-69.5 589.75,-69.5 589.75,-103"/>
<text xml:space="preserve" text-anchor="start" x="484.25" y="-89.5" font-family="Helvetica,sans-Serif" font-size="10.00">source/task_helpers</text>
<text xml:space="preserve" text-anchor="middle" x="533" y="-76.75" font-family="Helvetica,sans-Serif" font-size="10.00">/sync_wait.h</text>
</a>
</g>
</g>
<!-- Node2 -->
<g id="Node000002" class="node">
<title>Node2</title>
<g id="a_Node000002"><a xlink:href="motor__init_8c.html" target="_top" xlink:title=" ">
<polygon fill="white" stroke="#666666" points="118,-33.5 0,-33.5 0,0 118,0 118,-33.5"/>
<text xml:space="preserve" text-anchor="start" x="8" y="-20" font-family="Helvetica,sans-Serif" font-size="10.00">source/motion/motor</text>
<text xml:space="preserve" text-anchor="middle" x="59" y="-7.25" font-family="Helvetica,sans-Serif" font-size="10.00">/motor_init.c</text>
</a>
</g>
</g>
<!-- Node1&#45;&gt;Node2 -->
<g id="edge1_Node000001_Node000002" class="edge">
<title>Node1&#45;&gt;Node2</title>
<g id="a_edge1_Node000001_Node000002"><a xlink:title=" ">
<path fill="none" stroke="#63b8ff" d="M464.88,-78.69C383.97,-70.4 245.07,-54.64 127,-33.5 124.14,-32.99 121.21,-32.43 118.27,-31.85"/>
<polygon fill="#63b8ff" stroke="#63b8ff" points="464.1,-82.13 474.4,-79.65 464.81,-75.16 464.1,-82.13"/>
</a>
</g>
</g>
<!-- Node3 -->
<g id="Node000003" class="node">
<title>Node3</title>
<g id="a_Node000003"><a xlink:href="motor__process_8c.html" target="_top" xlink:title=" ">
<polygon fill="white" stroke="#666666" points="254,-33.5 136,-33.5 136,0 254,0 254,-33.5"/>
<text xml:space="preserve" text-anchor="start" x="144" y="-20" font-family="Helvetica,sans-Serif" font-size="10.00">source/motion/motor</text>
<text xml:space="preserve" text-anchor="middle" x="195" y="-7.25" font-family="Helvetica,sans-Serif" font-size="10.00">/motor_process.c</text>
</a>
</g>
</g>
<!-- Node1&#45;&gt;Node3 -->
<g id="edge2_Node000001_Node000003" class="edge">
<title>Node1&#45;&gt;Node3</title>
<g id="a_edge2_Node000001_Node000003"><a xlink:title=" ">
<path fill="none" stroke="#63b8ff" d="M464.69,-72.9C410.02,-62.84 331.44,-47.98 263,-33.5 260.15,-32.9 257.25,-32.27 254.31,-31.63"/>
<polygon fill="#63b8ff" stroke="#63b8ff" points="464.03,-76.34 474.5,-74.7 465.29,-69.46 464.03,-76.34"/>
</a>
</g>
</g>
<!-- Node4 -->
<g id="Node000004" class="node">
<title>Node4</title>
<g id="a_Node000004"><a xlink:href="motor__sync_8c.html" target="_top" xlink:title=" ">
<polygon fill="white" stroke="#666666" points="390,-33.5 272,-33.5 272,0 390,0 390,-33.5"/>
<text xml:space="preserve" text-anchor="start" x="280" y="-20" font-family="Helvetica,sans-Serif" font-size="10.00">source/motion/motor</text>
<text xml:space="preserve" text-anchor="middle" x="331" y="-7.25" font-family="Helvetica,sans-Serif" font-size="10.00">/motor_sync.c</text>
</a>
</g>
</g>
<!-- Node1&#45;&gt;Node4 -->
<g id="edge3_Node000001_Node000004" class="edge">
<title>Node1&#45;&gt;Node4</title>
<g id="a_edge3_Node000001_Node000004"><a xlink:title=" ">
<path fill="none" stroke="#63b8ff" d="M473.84,-65.48C443.78,-55.44 407.71,-43.38 379.34,-33.9"/>
<polygon fill="#63b8ff" stroke="#63b8ff" points="472.59,-68.75 483.18,-68.6 474.81,-62.11 472.59,-68.75"/>
</a>
</g>
</g>
<!-- Node5 -->
<g id="Node000005" class="node">
<title>Node5</title>
<g id="a_Node000005"><a xlink:href="motor__tmc_8c.html" target="_top" xlink:title=" ">
<polygon fill="white" stroke="#666666" points="526,-33.5 408,-33.5 408,0 526,0 526,-33.5"/>
<text xml:space="preserve" text-anchor="start" x="416" y="-20" font-family="Helvetica,sans-Serif" font-size="10.00">source/motion/motor</text>
<text xml:space="preserve" text-anchor="middle" x="467" y="-7.25" font-family="Helvetica,sans-Serif" font-size="10.00">/motor_tmc.c</text>
</a>
</g>
</g>
<!-- Node1&#45;&gt;Node5 -->
<g id="edge4_Node000001_Node000005" class="edge">
<title>Node1&#45;&gt;Node5</title>
<g id="a_edge4_Node000001_Node000005"><a xlink:title=" ">
<path fill="none" stroke="#63b8ff" d="M509.5,-61.22C500.55,-52.06 490.57,-41.85 482.53,-33.63"/>
<polygon fill="#63b8ff" stroke="#63b8ff" points="506.81,-63.47 516.3,-68.17 511.81,-58.57 506.81,-63.47"/>
</a>
</g>
</g>
<!-- Node6 -->
<g id="Node000006" class="node">
<title>Node6</title>
<g id="a_Node000006"><a xlink:href="motorCmd_8c.html" target="_top" xlink:title=" ">
<polygon fill="white" stroke="#666666" points="655.62,-27.12 544.38,-27.12 544.38,-6.38 655.62,-6.38 655.62,-27.12"/>
<text xml:space="preserve" text-anchor="middle" x="600" y="-13.62" font-family="Helvetica,sans-Serif" font-size="10.00">source/motorCmd.c</text>
</a>
</g>
</g>
<!-- Node1&#45;&gt;Node6 -->
<g id="edge5_Node000001_Node000006" class="edge">
<title>Node1&#45;&gt;Node6</title>
<g id="a_edge5_Node000001_Node000006"><a xlink:title=" ">
<path fill="none" stroke="#63b8ff" d="M556.87,-61.2C568.37,-49.61 581.52,-36.36 590.25,-27.57"/>
<polygon fill="#63b8ff" stroke="#63b8ff" points="554.51,-58.62 549.94,-68.18 559.47,-63.55 554.51,-58.62"/>
</a>
</g>
</g>
<!-- Node7 -->
<g id="Node000007" class="node">
<title>Node7</title>
<g id="a_Node000007"><a xlink:href="motor__homing_8c.html" target="_top" xlink:title=" ">
<polygon fill="white" stroke="#666666" points="804.38,-27.12 673.62,-27.12 673.62,-6.38 804.38,-6.38 804.38,-27.12"/>
<text xml:space="preserve" text-anchor="middle" x="739" y="-13.62" font-family="Helvetica,sans-Serif" font-size="10.00">source/motor_homing.c</text>
</a>
</g>
</g>
<!-- Node1&#45;&gt;Node7 -->
<g id="edge6_Node000001_Node000007" class="edge">
<title>Node1&#45;&gt;Node7</title>
<g id="a_edge6_Node000001_Node000007"><a xlink:title=" ">
<path fill="none" stroke="#63b8ff" d="M592.8,-65.66C630.86,-53.19 678.53,-37.57 708.88,-27.62"/>
<polygon fill="#63b8ff" stroke="#63b8ff" points="592.19,-62.17 583.78,-68.61 594.37,-68.82 592.19,-62.17"/>
</a>
</g>
</g>
<!-- Node8 -->
<g id="Node000008" class="node">
<title>Node8</title>
<g id="a_Node000008"><a xlink:href="motor__test_8c.html" target="_top" xlink:title=" ">
<polygon fill="white" stroke="#666666" points="935.38,-27.12 822.62,-27.12 822.62,-6.38 935.38,-6.38 935.38,-27.12"/>
<text xml:space="preserve" text-anchor="middle" x="879" y="-13.62" font-family="Helvetica,sans-Serif" font-size="10.00">source/motor_test.c</text>
</a>
</g>
</g>
<!-- Node1&#45;&gt;Node8 -->
<g id="edge7_Node000001_Node000008" class="edge">
<title>Node1&#45;&gt;Node8</title>
<g id="a_edge7_Node000001_Node000008"><a xlink:title=" ">
<path fill="none" stroke="#63b8ff" d="M601.02,-73.69C657.84,-63.79 740.91,-48.75 813,-33.5 821.53,-31.7 830.64,-29.62 839.29,-27.58"/>
<polygon fill="#63b8ff" stroke="#63b8ff" points="600.76,-70.18 591.51,-75.34 601.96,-77.08 600.76,-70.18"/>
</a>
</g>
</g>
<!-- Node9 -->
<g id="Node000009" class="node">
<title>Node9</title>
<g id="a_Node000009"><a xlink:href="sync__wait_8c.html" target="_top" xlink:title=" ">
<polygon fill="white" stroke="#666666" points="1066.75,-33.5 953.25,-33.5 953.25,0 1066.75,0 1066.75,-33.5"/>
<text xml:space="preserve" text-anchor="start" x="961.25" y="-20" font-family="Helvetica,sans-Serif" font-size="10.00">source/task_helpers</text>
<text xml:space="preserve" text-anchor="middle" x="1010" y="-7.25" font-family="Helvetica,sans-Serif" font-size="10.00">/sync_wait.c</text>
</a>
</g>
</g>
<!-- Node1&#45;&gt;Node9 -->
<g id="edge8_Node000001_Node000009" class="edge">
<title>Node1&#45;&gt;Node9</title>
<g id="a_edge8_Node000001_Node000009"><a xlink:title=" ">
<path fill="none" stroke="#63b8ff" d="M601.54,-78.93C683.41,-70.84 824.34,-55.24 944,-33.5 946.9,-32.97 949.86,-32.4 952.84,-31.79"/>
<polygon fill="#63b8ff" stroke="#63b8ff" points="601.26,-75.44 591.65,-79.89 601.94,-82.4 601.26,-75.44"/>
</a>
</g>
</g>
</g>
</svg>
