<?xml version="1.0" encoding="UTF-8" standalone="no"?>
<!DOCTYPE svg PUBLIC "-//W3C//DTD SVG 1.1//EN"
 "http://www.w3.org/Graphics/SVG/1.1/DTD/svg11.dtd">
<!-- Generated by graphviz version 14.1.5 (0)
 -->
<!-- Title: source/task_helpers/sync_wait.h Pages: 1 -->
<svg width="1507pt" height="111pt"
 viewBox="0.00 0.00 1507.00 111.00" xmlns="http://www.w3.org/2000/svg" xmlns:xlink="http://www.w3.org/1999/xlink">
<g id="graph0" class="graph" transform="scale(1 1) rotate(0) translate(4 107)">
<title>source/task_helpers/sync_wait.h</title>
<!-- Node1 -->
<g id="Node000001" class="node">
<title>Node1</title>
<g id="a_Node000001"><a xlink:title=" ">
<polygon fill="#999999" stroke="#666666" points="770.88,-103 657.38,-103 657.38,-69.5 770.88,-69.5 770.88,-103"/>
<text xml:space="preserve" text-anchor="start" x="665.38" y="-89.5" font-family="Helvetica,sans-Serif" font-size="10.00">source/task_helpers</text>
<text xml:space="preserve" text-anchor="middle" x="714.12" y="-76.75" font-family="Helvetica,sans-Serif" font-size="10.00">/sync_wait.h</text>
</a>
</g>
</g>
<!-- Node2 -->
<g id="Node000002" class="node">
<title>Node2</title>
<g id="a_Node000002"><a xlink:href="grabber_8c.html" target="_top" xlink:title=" ">
<polygon fill="white" stroke="#666666" points="96.25,-27.12 0,-27.12 0,-6.38 96.25,-6.38 96.25,-27.12"/>
<text xml:space="preserve" text-anchor="middle" x="48.12" y="-13.62" font-family="Helvetica,sans-Serif" font-size="10.00">source/grabber.c</text>
</a>
</g>
</g>
<!-- Node1&#45;&gt;Node2 -->
<g id="edge1_Node000001_Node000002" class="edge">
<title>Node1&#45;&gt;Node2</title>
<g id="a_edge1_Node000001_Node000002"><a xlink:title=" ">
<path fill="none" stroke="#63b8ff" d="M645.76,-83.55C532.52,-79.83 299.26,-68.26 105.12,-33.5 96.74,-32 87.8,-29.81 79.54,-27.55"/>
<polygon fill="#63b8ff" stroke="#63b8ff" points="645.38,-87.04 655.48,-83.86 645.6,-80.05 645.38,-87.04"/>
</a>
</g>
</g>
<!-- Node3 -->
<g id="Node000003" class="node">
<title>Node3</title>
<g id="a_Node000003"><a xlink:href="motor__init_8c.html" target="_top" xlink:title=" ">
<polygon fill="white" stroke="#666666" points="232.12,-33.5 114.12,-33.5 114.12,0 232.12,0 232.12,-33.5"/>
<text xml:space="preserve" text-anchor="start" x="122.12" y="-20" font-family="Helvetica,sans-Serif" font-size="10.00">source/motion/motor</text>
<text xml:space="preserve" text-anchor="middle" x="173.12" y="-7.25" font-family="Helvetica,sans-Serif" font-size="10.00">/motor_init.c</text>
</a>
</g>
</g>
<!-- Node1&#45;&gt;Node3 -->
<g id="edge2_Node000001_Node000003" class="edge">
<title>Node1&#45;&gt;Node3</title>
<g id="a_edge2_Node000001_Node000003"><a xlink:title=" ">
<path fill="none" stroke="#63b8ff" d="M645.62,-80.32C553.3,-73.09 384.05,-57.78 241.12,-33.5 238.26,-33.01 235.33,-32.48 232.38,-31.91"/>
<polygon fill="#63b8ff" stroke="#63b8ff" points="645.28,-83.8 655.52,-81.09 645.82,-76.82 645.28,-83.8"/>
</a>
</g>
</g>
<!-- Node4 -->
<g id="Node000004" class="node">
<title>Node4</title>
<g id="a_Node000004"><a xlink:href="motor__process_8c.html" target="_top" xlink:title=" ">
<polygon fill="white" stroke="#666666" points="368.12,-33.5 250.12,-33.5 250.12,0 368.12,0 368.12,-33.5"/>
<text xml:space="preserve" text-anchor="start" x="258.12" y="-20" font-family="Helvetica,sans-Serif" font-size="10.00">source/motion/motor</text>
<text xml:space="preserve" text-anchor="middle" x="309.12" y="-7.25" font-family="Helvetica,sans-Serif" font-size="10.00">/motor_process.c</text>
</a>
</g>
</g>
<!-- Node1&#45;&gt;Node4 -->
<g id="edge3_Node000001_Node000004" class="edge">
<title>Node1&#45;&gt;Node4</title>
<g id="a_edge3_Node000001_Node000004"><a xlink:title=" ">
<path fill="none" stroke="#63b8ff" d="M645.93,-76.31C577.68,-67.01 469.77,-51.32 377.12,-33.5 374.27,-32.95 371.35,-32.37 368.41,-31.76"/>
<polygon fill="#63b8ff" stroke="#63b8ff" points="645.08,-79.73 655.46,-77.6 646.02,-72.79 645.08,-79.73"/>
</a>
</g>
</g>
<!-- Node5 -->
<g id="Node000005" class="node">
<title>Node5</title>
<g id="a_Node000005"><a xlink:href="motor__sync_8c.html" target="_top" xlink:title=" ">
<polygon fill="white" stroke="#666666" points="504.12,-33.5 386.12,-33.5 386.12,0 504.12,0 504.12,-33.5"/>
<text xml:space="preserve" text-anchor="start" x="394.12" y="-20" font-family="Helvetica,sans-Serif" font-size="10.00">source/motion/motor</text>
<text xml:space="preserve" text-anchor="middle" x="445.12" y="-7.25" font-family="Helvetica,sans-Serif" font-size="10.00">/motor_sync.c</text>
</a>
</g>
</g>
<!-- Node1&#45;&gt;Node5 -->
<g id="edge4_Node000001_Node000005" class="edge">
<title>Node1&#45;&gt;Node5</title>
<g id="a_edge4_Node000001_Node000005"><a xlink:title=" ">
<path fill="none" stroke="#63b8ff" d="M645.98,-68.15C602.32,-57.2 546.23,-43.12 504.42,-32.63"/>
<polygon fill="#63b8ff" stroke="#63b8ff" points="645.06,-71.53 655.61,-70.57 646.76,-64.74 645.06,-71.53"/>
</a>
</g>
</g>
<!-- Node6 -->
<g id="Node000006" class="node">
<title>Node6</title>
<g id="a_Node000006"><a xlink:href="motor__tmc_8c.html" target="_top" xlink:title=" ">
<polygon fill="white" stroke="#666666" points="640.12,-33.5 522.12,-33.5 522.12,0 640.12,0 640.12,-33.5"/>
<text xml:space="preserve" text-anchor="start" x="530.12" y="-20" font-family="Helvetica,sans-Serif" font-size="10.00">source/motion/motor</text>
<text xml:space="preserve" text-anchor="middle" x="581.12" y="-7.25" font-family="Helvetica,sans-Serif" font-size="10.00">/motor_tmc.c</text>
</a>
</g>
</g>
<!-- Node1&#45;&gt;Node6 -->
<g id="edge5_Node000001_Node000006" class="edge">
<title>Node1&#45;&gt;Node6</title>
<g id="a_edge5_Node000001_Node000006"><a xlink:title=" ">
<path fill="none" stroke="#63b8ff" d="M672.24,-63.99C652.99,-54.22 630.53,-42.82 612.72,-33.79"/>
<polygon fill="#63b8ff" stroke="#63b8ff" points="670.42,-66.99 680.92,-68.4 673.59,-60.75 670.42,-66.99"/>
</a>
</g>
</g>
<!-- Node7 -->
<g id="Node000007" class="node">
<title>Node7</title>
<g id="a_Node000007"><a xlink:href="motorCmd_8c.html" target="_top" xlink:title=" ">
<polygon fill="white" stroke="#666666" points="769.75,-27.12 658.5,-27.12 658.5,-6.38 769.75,-6.38 769.75,-27.12"/>
<text xml:space="preserve" text-anchor="middle" x="714.12" y="-13.62" font-family="Helvetica,sans-Serif" font-size="10.00">source/motorCmd.c</text>
</a>
</g>
</g>
<!-- Node1&#45;&gt;Node7 -->
<g id="edge6_Node000001_Node000007" class="edge">
<title>Node1&#45;&gt;Node7</title>
<g id="a_edge6_Node000001_Node000007"><a xlink:title=" ">
<path fill="none" stroke="#63b8ff" d="M714.12,-57.78C714.12,-47.08 714.12,-35.51 714.12,-27.57"/>
<polygon fill="#63b8ff" stroke="#63b8ff" points="710.63,-57.74 714.13,-67.74 717.63,-57.74 710.63,-57.74"/>
</a>
</g>
</g>
<!-- Node8 -->
<g id="Node000008" class="node">
<title>Node8</title>
<g id="a_Node000008"><a xlink:href="motor__homing_8c.html" target="_top" xlink:title=" ">
<polygon fill="white" stroke="#666666" points="918.5,-27.12 787.75,-27.12 787.75,-6.38 918.5,-6.38 918.5,-27.12"/>
<text xml:space="preserve" text-anchor="middle" x="853.12" y="-13.62" font-family="Helvetica,sans-Serif" font-size="10.00">source/motor_homing.c</text>
</a>
</g>
</g>
<!-- Node1&#45;&gt;Node8 -->
<g id="edge7_Node000001_Node000008" class="edge">
<title>Node1&#45;&gt;Node8</title>
<g id="a_edge7_Node000001_Node000008"><a xlink:title=" ">
<path fill="none" stroke="#63b8ff" d="M757.5,-64.19C782.72,-51.94 813.33,-37.08 833,-27.52"/>
<polygon fill="#63b8ff" stroke="#63b8ff" points="756.25,-60.9 748.78,-68.42 759.3,-67.2 756.25,-60.9"/>
</a>
</g>
</g>
<!-- Node9 -->
<g id="Node000009" class="node">
<title>Node9</title>
<g id="a_Node000009"><a xlink:href="motor__test_8c.html" target="_top" xlink:title=" ">
<polygon fill="white" stroke="#666666" points="1049.5,-27.12 936.75,-27.12 936.75,-6.38 1049.5,-6.38 1049.5,-27.12"/>
<text xml:space="preserve" text-anchor="middle" x="993.12" y="-13.62" font-family="Helvetica,sans-Serif" font-size="10.00">source/motor_test.c</text>
</a>
</g>
</g>
<!-- Node1&#45;&gt;Node9 -->
<g id="edge8_Node000001_Node000009" class="edge">
<title>Node1&#45;&gt;Node9</title>
<g id="a_edge8_Node000001_Node000009"><a xlink:title=" ">
<path fill="none" stroke="#63b8ff" d="M782.31,-68.75C835.55,-55.87 907.75,-38.41 952.34,-27.62"/>
<polygon fill="#63b8ff" stroke="#63b8ff" points="781.63,-65.32 772.73,-71.07 783.27,-72.12 781.63,-65.32"/>
</a>
</g>
</g>
<!-- Node10 -->
<g id="Node000010" class="node">
<title>Node10</title>
<g id="a_Node000010"><a xlink:href="scara__kinematics_8c.html" target="_top" xlink:title=" ">
<polygon fill="white" stroke="#666666" points="1212.62,-27.12 1067.62,-27.12 1067.62,-6.38 1212.62,-6.38 1212.62,-27.12"/>
<text xml:space="preserve" text-anchor="middle" x="1140.12" y="-13.62" font-family="Helvetica,sans-Serif" font-size="10.00">source/scara_kinematics.c</text>
</a>
</g>
</g>
<!-- Node1&#45;&gt;Node10 -->
<g id="edge9_Node000001_Node000010" class="edge">
<title>Node1&#45;&gt;Node10</title>
<g id="a_edge9_Node000001_Node000010"><a xlink:title=" ">
<path fill="none" stroke="#63b8ff" d="M782.36,-75.81C851.87,-66.01 962.69,-49.84 1058.12,-33.5 1068.7,-31.69 1080.01,-29.61 1090.75,-27.57"/>
<polygon fill="#63b8ff" stroke="#63b8ff" points="782.06,-72.32 772.65,-77.18 783.04,-79.25 782.06,-72.32"/>
</a>
</g>
</g>
<!-- Node11 -->
<g id="Node000011" class="node">
<title>Node11</title>
<g id="a_Node000011"><a xlink:href="scara__kinematics__process_8c.html" target="_top" xlink:title=" ">
<polygon fill="white" stroke="#666666" points="1367.5,-33.5 1230.75,-33.5 1230.75,0 1367.5,0 1367.5,-33.5"/>
<text xml:space="preserve" text-anchor="start" x="1238.75" y="-20" font-family="Helvetica,sans-Serif" font-size="10.00">source/scara_kinematics</text>
<text xml:space="preserve" text-anchor="middle" x="1299.12" y="-7.25" font-family="Helvetica,sans-Serif" font-size="10.00">_process.c</text>
</a>
</g>
</g>
<!-- Node1&#45;&gt;Node11 -->
<g id="edge10_Node000001_Node000011" class="edge">
<title>Node1&#45;&gt;Node11</title>
<g id="a_edge10_Node000001_Node000011"><a xlink:title=" ">
<path fill="none" stroke="#63b8ff" d="M782.31,-80.49C880.07,-73.16 1065.55,-57.43 1222.12,-33.5 1224.82,-33.09 1227.57,-32.64 1230.34,-32.18"/>
<polygon fill="#63b8ff" stroke="#63b8ff" points="782.34,-76.98 772.63,-81.21 782.86,-83.96 782.34,-76.98"/>
</a>
</g>
</g>
<!-- Node12 -->
<g id="Node000012" class="node">
<title>Node12</title>
<g id="a_Node000012"><a xlink:href="sync__wait_8c.html" target="_top" xlink:title=" ">
<polygon fill="white" stroke="#666666" points="1498.88,-33.5 1385.38,-33.5 1385.38,0 1498.88,0 1498.88,-33.5"/>
<text xml:space="preserve" text-anchor="start" x="1393.38" y="-20" font-family="Helvetica,sans-Serif" font-size="10.00">source/task_helpers</text>
<text xml:space="preserve" text-anchor="middle" x="1442.12" y="-7.25" font-family="Helvetica,sans-Serif" font-size="10.00">/sync_wait.c</text>
</a>
</g>
</g>
<!-- Node1&#45;&gt;Node12 -->
<g id="edge11_Node000001_Node000012" class="edge">
<title>Node1&#45;&gt;Node12</title>
<g id="a_edge11_Node000001_Node000012"><a xlink:title=" ">
<path fill="none" stroke="#63b8ff" d="M782.38,-83.43C902.89,-79.43 1161,-67.36 1376.12,-33.5 1379.03,-33.04 1382,-32.52 1385,-31.96"/>
<polygon fill="#63b8ff" stroke="#63b8ff" points="782.54,-79.92 772.66,-83.74 782.77,-86.92 782.54,-79.92"/>
</a>
</g>
</g>
</g>
</svg>
