<?xml version="1.0" encoding="UTF-8" standalone="no"?>
<!DOCTYPE svg PUBLIC "-//W3C//DTD SVG 1.1//EN"
 "http://www.w3.org/Graphics/SVG/1.1/DTD/svg11.dtd">
<!-- Generated by graphviz version 14.1.4 (0)
 -->
<!-- Title: source/task_helpers.h Pages: 1 -->
<svg width="434pt" height="142pt"
 viewBox="0.00 0.00 434.00 142.00" xmlns="http://www.w3.org/2000/svg" xmlns:xlink="http://www.w3.org/1999/xlink">
<g id="graph0" class="graph" transform="scale(1 1) rotate(0) translate(4 138.25)">
<title>source/task_helpers.h</title>
<!-- Node1 -->
<g id="Node000001" class="node">
<title>Node1</title>
<g id="a_Node000001"><a xlink:title=" ">
<polygon fill="#999999" stroke="#666666" points="225,-134.25 102.5,-134.25 102.5,-113.5 225,-113.5 225,-134.25"/>
<text xml:space="preserve" text-anchor="middle" x="163.75" y="-120.75" font-family="Helvetica,sans-Serif" font-size="10.00">source/task_helpers.h</text>
</a>
</g>
</g>
<!-- Node2 -->
<g id="Node000002" class="node">
<title>Node2</title>
<g id="a_Node000002"><a xlink:title=" ">
<polygon fill="#e0e0e0" stroke="#999999" points="71.5,-20.75 0,-20.75 0,0 71.5,0 71.5,-20.75"/>
<text xml:space="preserve" text-anchor="middle" x="35.75" y="-7.25" font-family="Helvetica,sans-Serif" font-size="10.00">FreeRTOS.h</text>
</a>
</g>
</g>
<!-- Node1&#45;&gt;Node2 -->
<g id="edge1_Node000001_Node000002" class="edge">
<title>Node1&#45;&gt;Node2</title>
<g id="a_edge1_Node000001_Node000002"><a xlink:title=" ">
<path fill="none" stroke="#63b8ff" d="M102.04,-119.18C73.04,-113.97 40.92,-102.44 22.75,-77.5 12.96,-64.07 18.04,-45.19 24.5,-31.04"/>
<polygon fill="#63b8ff" stroke="#63b8ff" points="27.56,-32.74 29.02,-22.24 21.33,-29.53 27.56,-32.74"/>
</a>
</g>
</g>
<!-- Node3 -->
<g id="Node000003" class="node">
<title>Node3</title>
<g id="a_Node000003"><a xlink:title=" ">
<polygon fill="#e0e0e0" stroke="#999999" points="77.75,-77.5 31.75,-77.5 31.75,-56.75 77.75,-56.75 77.75,-77.5"/>
<text xml:space="preserve" text-anchor="middle" x="54.75" y="-64" font-family="Helvetica,sans-Serif" font-size="10.00">task.h</text>
</a>
</g>
</g>
<!-- Node1&#45;&gt;Node3 -->
<g id="edge2_Node000001_Node000003" class="edge">
<title>Node1&#45;&gt;Node3</title>
<g id="a_edge2_Node000001_Node000003"><a xlink:title=" ">
<path fill="none" stroke="#63b8ff" d="M144.26,-113.09C127.6,-104.72 103.37,-92.54 84.31,-82.97"/>
<polygon fill="#63b8ff" stroke="#63b8ff" points="85.93,-79.87 75.42,-78.51 82.79,-86.12 85.93,-79.87"/>
</a>
</g>
</g>
<!-- Node4 -->
<g id="Node000004" class="node">
<title>Node4</title>
<g id="a_Node000004"><a xlink:title=" ">
<polygon fill="#e0e0e0" stroke="#999999" points="182.25,-20.75 97.25,-20.75 97.25,0 182.25,0 182.25,-20.75"/>
<text xml:space="preserve" text-anchor="middle" x="139.75" y="-7.25" font-family="Helvetica,sans-Serif" font-size="10.00">fsl_common.h</text>
</a>
</g>
</g>
<!-- Node1&#45;&gt;Node4 -->
<g id="edge3_Node000001_Node000004" class="edge">
<title>Node1&#45;&gt;Node4</title>
<g id="a_edge3_Node000001_Node000004"><a xlink:title=" ">
<path fill="none" stroke="#63b8ff" d="M161.7,-113.37C157.86,-95.52 149.49,-56.61 144.26,-32.34"/>
<polygon fill="#63b8ff" stroke="#63b8ff" points="147.7,-31.69 142.18,-22.65 140.86,-33.17 147.7,-31.69"/>
</a>
</g>
</g>
<!-- Node5 -->
<g id="Node000005" class="node">
<title>Node5</title>
<g id="a_Node000005"><a xlink:href="log_8h.html" target="_top" xlink:title=" ">
<polygon fill="white" stroke="#666666" points="135.75,-77.5 95.75,-77.5 95.75,-56.75 135.75,-56.75 135.75,-77.5"/>
<text xml:space="preserve" text-anchor="middle" x="115.75" y="-64" font-family="Helvetica,sans-Serif" font-size="10.00">log.h</text>
</a>
</g>
</g>
<!-- Node1&#45;&gt;Node5 -->
<g id="edge4_Node000001_Node000005" class="edge">
<title>Node1&#45;&gt;Node5</title>
<g id="a_edge4_Node000001_Node000005"><a xlink:title=" ">
<path fill="none" stroke="#63b8ff" d="M155.17,-113.09C148.68,-105.69 139.6,-95.32 131.78,-86.41"/>
<polygon fill="#63b8ff" stroke="#63b8ff" points="134.48,-84.18 125.25,-78.97 129.22,-88.79 134.48,-84.18"/>
</a>
</g>
</g>
<!-- Node6 -->
<g id="Node000006" class="node">
<title>Node6</title>
<g id="a_Node000006"><a xlink:title=" ">
<polygon fill="#e0e0e0" stroke="#999999" points="244.12,-77.5 191.38,-77.5 191.38,-56.75 244.12,-56.75 244.12,-77.5"/>
<text xml:space="preserve" text-anchor="middle" x="217.75" y="-64" font-family="Helvetica,sans-Serif" font-size="10.00">string.h</text>
</a>
</g>
</g>
<!-- Node1&#45;&gt;Node6 -->
<g id="edge7_Node000001_Node000006" class="edge">
<title>Node1&#45;&gt;Node6</title>
<g id="a_edge7_Node000001_Node000006"><a xlink:title=" ">
<path fill="none" stroke="#63b8ff" d="M173.4,-113.09C180.85,-105.53 191.36,-94.89 200.27,-85.85"/>
<polygon fill="#63b8ff" stroke="#63b8ff" points="202.59,-88.48 207.12,-78.91 197.6,-83.57 202.59,-88.48"/>
</a>
</g>
</g>
<!-- Node7 -->
<g id="Node000007" class="node">
<title>Node7</title>
<g id="a_Node000007"><a xlink:title=" ">
<polygon fill="#e0e0e0" stroke="#999999" points="353.25,-77.5 262.25,-77.5 262.25,-56.75 353.25,-56.75 353.25,-77.5"/>
<text xml:space="preserve" text-anchor="middle" x="307.75" y="-64" font-family="Helvetica,sans-Serif" font-size="10.00">event_groups.h</text>
</a>
</g>
</g>
<!-- Node1&#45;&gt;Node7 -->
<g id="edge8_Node000001_Node000007" class="edge">
<title>Node1&#45;&gt;Node7</title>
<g id="a_edge8_Node000001_Node000007"><a xlink:title=" ">
<path fill="none" stroke="#63b8ff" d="M189.49,-113.09C212.33,-104.41 245.92,-91.63 271.47,-81.92"/>
<polygon fill="#63b8ff" stroke="#63b8ff" points="272.71,-85.19 280.81,-78.37 270.22,-78.65 272.71,-85.19"/>
</a>
</g>
</g>
<!-- Node8 -->
<g id="Node000008" class="node">
<title>Node8</title>
<g id="a_Node000008"><a xlink:title=" ">
<polygon fill="#e0e0e0" stroke="#999999" points="426.25,-77.5 371.25,-77.5 371.25,-56.75 426.25,-56.75 426.25,-77.5"/>
<text xml:space="preserve" text-anchor="middle" x="398.75" y="-64" font-family="Helvetica,sans-Serif" font-size="10.00">queue.h</text>
</a>
</g>
</g>
<!-- Node1&#45;&gt;Node8 -->
<g id="edge9_Node000001_Node000008" class="edge">
<title>Node1&#45;&gt;Node8</title>
<g id="a_edge9_Node000001_Node000008"><a xlink:title=" ">
<path fill="none" stroke="#63b8ff" d="M208.5,-113.08C246.44,-104.69 302.6,-92.05 359.8,-78.17"/>
<polygon fill="#63b8ff" stroke="#63b8ff" points="360.51,-81.6 369.39,-75.84 358.85,-74.8 360.51,-81.6"/>
</a>
</g>
</g>
<!-- Node5&#45;&gt;Node2 -->
<g id="edge5_Node000005_Node000002" class="edge">
<title>Node5&#45;&gt;Node2</title>
<g id="a_edge5_Node000005_Node000002"><a xlink:title=" ">
<path fill="none" stroke="#63b8ff" d="M101.45,-56.34C89.73,-48.32 72.91,-36.81 59.22,-27.44"/>
<polygon fill="#63b8ff" stroke="#63b8ff" points="61.41,-24.69 51.18,-21.93 57.45,-30.47 61.41,-24.69"/>
</a>
</g>
</g>
<!-- Node5&#45;&gt;Node4 -->
<g id="edge6_Node000005_Node000004" class="edge">
<title>Node5&#45;&gt;Node4</title>
<g id="a_edge6_Node000005_Node000004"><a xlink:title=" ">
<path fill="none" stroke="#63b8ff" d="M120.04,-56.34C123.08,-49.41 127.26,-39.87 130.99,-31.36"/>
<polygon fill="#63b8ff" stroke="#63b8ff" points="134.08,-33.03 134.89,-22.46 127.67,-30.22 134.08,-33.03"/>
</a>
</g>
</g>
</g>
</svg>
