<?xml version="1.0" encoding="UTF-8" standalone="no"?>
<!DOCTYPE svg PUBLIC "-//W3C//DTD SVG 1.1//EN"
 "http://www.w3.org/Graphics/SVG/1.1/DTD/svg11.dtd">
<!-- Generated by graphviz version 14.1.4 (0)
 -->
<!-- Title: source/task_helpers.h Pages: 1 -->
<svg width="616pt" height="256pt"
 viewBox="0.00 0.00 616.00 256.00" xmlns="http://www.w3.org/2000/svg" xmlns:xlink="http://www.w3.org/1999/xlink">
<g id="graph0" class="graph" transform="scale(1 1) rotate(0) translate(4 251.75)">
<title>source/task_helpers.h</title>
<!-- Node1 -->
<g id="Node000001" class="node">
<title>Node1</title>
<g id="a_Node000001"><a xlink:title=" ">
<polygon fill="#999999" stroke="#666666" points="254.54,-247.75 132.04,-247.75 132.04,-227 254.54,-227 254.54,-247.75"/>
<text xml:space="preserve" text-anchor="middle" x="193.29" y="-234.25" font-family="Helvetica,sans-Serif" font-size="10.00">source/task_helpers.h</text>
</a>
</g>
</g>
<!-- Node2 -->
<g id="Node000002" class="node">
<title>Node2</title>
<g id="a_Node000002"><a xlink:href="motor_8c.html" target="_top" xlink:title=" ">
<polygon fill="white" stroke="#666666" points="240.29,-77.5 152.29,-77.5 152.29,-56.75 240.29,-56.75 240.29,-77.5"/>
<text xml:space="preserve" text-anchor="middle" x="196.29" y="-64" font-family="Helvetica,sans-Serif" font-size="10.00">source/motor.c</text>
</a>
</g>
</g>
<!-- Node1&#45;&gt;Node2 -->
<g id="edge1_Node000001_Node000002" class="edge">
<title>Node1&#45;&gt;Node2</title>
<g id="a_edge1_Node000001_Node000002"><a xlink:title=" ">
<path fill="none" stroke="#63b8ff" d="M168.84,-220.22C136.92,-197.03 87.74,-152.77 111.29,-113.5 121.87,-95.85 141.91,-84.69 159.87,-77.85"/>
<polygon fill="#63b8ff" stroke="#63b8ff" points="166.65,-222.96 176.85,-225.84 170.67,-217.23 166.65,-222.96"/>
</a>
</g>
</g>
<!-- Node3 -->
<g id="Node000003" class="node">
<title>Node3</title>
<g id="a_Node000003"><a xlink:href="motorCmd_8c.html" target="_top" xlink:title=" ">
<polygon fill="white" stroke="#666666" points="133.91,-77.5 22.66,-77.5 22.66,-56.75 133.91,-56.75 133.91,-77.5"/>
<text xml:space="preserve" text-anchor="middle" x="78.29" y="-64" font-family="Helvetica,sans-Serif" font-size="10.00">source/motorCmd.c</text>
</a>
</g>
</g>
<!-- Node1&#45;&gt;Node3 -->
<g id="edge2_Node000001_Node000003" class="edge">
<title>Node1&#45;&gt;Node3</title>
<g id="a_edge2_Node000001_Node000003"><a xlink:title=" ">
<path fill="none" stroke="#63b8ff" d="M155.14,-221.83C140.52,-214.56 124.84,-204.4 114.29,-191 86.64,-155.9 80.22,-100.17 78.73,-77.84"/>
<polygon fill="#63b8ff" stroke="#63b8ff" points="153.58,-224.97 164.13,-225.99 156.52,-218.62 153.58,-224.97"/>
</a>
</g>
</g>
<!-- Node4 -->
<g id="Node000004" class="node">
<title>Node4</title>
<g id="a_Node000004"><a xlink:href="motor__test_8c.html" target="_top" xlink:title=" ">
<polygon fill="white" stroke="#666666" points="324.66,-20.75 211.91,-20.75 211.91,0 324.66,0 324.66,-20.75"/>
<text xml:space="preserve" text-anchor="middle" x="268.29" y="-7.25" font-family="Helvetica,sans-Serif" font-size="10.00">source/motor_test.c</text>
</a>
</g>
</g>
<!-- Node1&#45;&gt;Node4 -->
<g id="edge3_Node000001_Node000004" class="edge">
<title>Node1&#45;&gt;Node4</title>
<g id="a_edge3_Node000001_Node000004"><a xlink:title=" ">
<path fill="none" stroke="#63b8ff" d="M158.71,-222.16C92.22,-192.86 -42.17,-122.95 13.29,-56.75 38.09,-27.15 144.39,-16.84 211.67,-13.27"/>
<polygon fill="#63b8ff" stroke="#63b8ff" points="157.18,-225.31 167.75,-226.06 159.96,-218.88 157.18,-225.31"/>
</a>
</g>
</g>
<!-- Node5 -->
<g id="Node000005" class="node">
<title>Node5</title>
<g id="a_Node000005"><a xlink:href="step_8c.html" target="_top" xlink:title=" ">
<polygon fill="white" stroke="#666666" points="200.54,-134.25 120.04,-134.25 120.04,-113.5 200.54,-113.5 200.54,-134.25"/>
<text xml:space="preserve" text-anchor="middle" x="160.29" y="-120.75" font-family="Helvetica,sans-Serif" font-size="10.00">source/step.c</text>
</a>
</g>
</g>
<!-- Node1&#45;&gt;Node5 -->
<g id="edge4_Node000001_Node000005" class="edge">
<title>Node1&#45;&gt;Node5</title>
<g id="a_edge4_Node000001_Node000005"><a xlink:title=" ">
<path fill="none" stroke="#63b8ff" d="M186.3,-216.03C183.7,-208.23 180.77,-199.23 178.29,-191 172.25,-170.95 166.01,-147.21 162.69,-134.34"/>
<polygon fill="#63b8ff" stroke="#63b8ff" points="182.91,-216.91 189.43,-225.25 189.54,-214.66 182.91,-216.91"/>
</a>
</g>
</g>
<!-- Node6 -->
<g id="Node000006" class="node">
<title>Node6</title>
<g id="a_Node000006"><a xlink:href="step_8h.html" target="_top" xlink:title=" ">
<polygon fill="white" stroke="#666666" points="268.91,-191 187.66,-191 187.66,-170.25 268.91,-170.25 268.91,-191"/>
<text xml:space="preserve" text-anchor="middle" x="228.29" y="-177.5" font-family="Helvetica,sans-Serif" font-size="10.00">source/step.h</text>
</a>
</g>
</g>
<!-- Node1&#45;&gt;Node6 -->
<g id="edge5_Node000001_Node000006" class="edge">
<title>Node1&#45;&gt;Node6</title>
<g id="a_edge5_Node000001_Node000006"><a xlink:title=" ">
<path fill="none" stroke="#63b8ff" d="M205.59,-217.14C211.16,-208.41 217.52,-198.47 222.09,-191.33"/>
<polygon fill="#63b8ff" stroke="#63b8ff" points="202.8,-215 200.36,-225.31 208.7,-218.77 202.8,-215"/>
</a>
</g>
</g>
<!-- Node10 -->
<g id="Node000010" class="node">
<title>Node10</title>
<g id="a_Node000010"><a xlink:href="task__helpers_8c.html" target="_top" xlink:title=" ">
<polygon fill="white" stroke="#666666" points="409.16,-191 287.41,-191 287.41,-170.25 409.16,-170.25 409.16,-191"/>
<text xml:space="preserve" text-anchor="middle" x="348.29" y="-177.5" font-family="Helvetica,sans-Serif" font-size="10.00">source/task_helpers.c</text>
</a>
</g>
</g>
<!-- Node1&#45;&gt;Node10 -->
<g id="edge17_Node000001_Node000010" class="edge">
<title>Node1&#45;&gt;Node10</title>
<g id="a_edge17_Node000001_Node000010"><a xlink:title=" ">
<path fill="none" stroke="#63b8ff" d="M231.83,-222.76C259.39,-213.03 295.83,-200.15 320.56,-191.42"/>
<polygon fill="#63b8ff" stroke="#63b8ff" points="230.69,-219.45 222.43,-226.08 233.02,-226.05 230.69,-219.45"/>
</a>
</g>
</g>
<!-- Node11 -->
<g id="Node000011" class="node">
<title>Node11</title>
<g id="a_Node000011"><a xlink:href="tmc2209_8c.html" target="_top" xlink:title=" ">
<polygon fill="white" stroke="#666666" points="608.41,-134.25 506.16,-134.25 506.16,-113.5 608.41,-113.5 608.41,-134.25"/>
<text xml:space="preserve" text-anchor="middle" x="557.29" y="-120.75" font-family="Helvetica,sans-Serif" font-size="10.00">source/tmc2209.c</text>
</a>
</g>
</g>
<!-- Node1&#45;&gt;Node11 -->
<g id="edge18_Node000001_Node000011" class="edge">
<title>Node1&#45;&gt;Node11</title>
<g id="a_edge18_Node000001_Node000011"><a xlink:title=" ">
<path fill="none" stroke="#63b8ff" d="M266.12,-236.03C355.41,-234.09 499.77,-225.5 539.29,-191 555.6,-176.76 557.82,-149.35 557.73,-134.69"/>
<polygon fill="#63b8ff" stroke="#63b8ff" points="266.15,-232.53 256.22,-236.22 266.29,-239.53 266.15,-232.53"/>
</a>
</g>
</g>
<!-- Node12 -->
<g id="Node000012" class="node">
<title>Node12</title>
<g id="a_Node000012"><a xlink:href="tmc2209_8h.html" target="_top" xlink:title=" ">
<polygon fill="white" stroke="#666666" points="529.79,-191 426.79,-191 426.79,-170.25 529.79,-170.25 529.79,-191"/>
<text xml:space="preserve" text-anchor="middle" x="478.29" y="-177.5" font-family="Helvetica,sans-Serif" font-size="10.00">source/tmc2209.h</text>
</a>
</g>
</g>
<!-- Node1&#45;&gt;Node12 -->
<g id="edge19_Node000001_Node000012" class="edge">
<title>Node1&#45;&gt;Node12</title>
<g id="a_edge19_Node000001_Node000012"><a xlink:title=" ">
<path fill="none" stroke="#63b8ff" d="M255.84,-224.36C307.17,-214.5 378.94,-200.71 426.94,-191.49"/>
<polygon fill="#63b8ff" stroke="#63b8ff" points="255.22,-220.91 246.06,-226.24 256.54,-227.79 255.22,-220.91"/>
</a>
</g>
</g>
<!-- Node6&#45;&gt;Node2 -->
<g id="edge7_Node000006_Node000002" class="edge">
<title>Node6&#45;&gt;Node2</title>
<g id="a_edge7_Node000006_Node000002"><a xlink:title=" ">
<path fill="none" stroke="#63b8ff" d="M238.51,-159.81C244.01,-146.36 248.51,-128.39 242.29,-113.5 235.97,-98.39 221.9,-85.76 210.97,-77.69"/>
<polygon fill="#63b8ff" stroke="#63b8ff" points="235.51,-157.95 234.5,-168.5 241.87,-160.88 235.51,-157.95"/>
</a>
</g>
</g>
<!-- Node6&#45;&gt;Node3 -->
<g id="edge15_Node000006_Node000003" class="edge">
<title>Node6&#45;&gt;Node3</title>
<g id="a_edge15_Node000006_Node000003"><a xlink:title=" ">
<path fill="none" stroke="#63b8ff" d="M227.24,-158.91C225.45,-144.48 220.85,-125.7 209.29,-113.5 189.67,-92.8 160.14,-81.54 134.09,-75.42"/>
<polygon fill="#63b8ff" stroke="#63b8ff" points="223.73,-159.02 228.06,-168.69 230.71,-158.43 223.73,-159.02"/>
</a>
</g>
</g>
<!-- Node6&#45;&gt;Node5 -->
<g id="edge16_Node000006_Node000005" class="edge">
<title>Node6&#45;&gt;Node5</title>
<g id="a_edge16_Node000006_Node000005"><a xlink:title=" ">
<path fill="none" stroke="#63b8ff" d="M207.19,-162.64C195.73,-153.41 181.98,-142.34 172.34,-134.58"/>
<polygon fill="#63b8ff" stroke="#63b8ff" points="204.97,-165.34 214.95,-168.89 209.36,-159.89 204.97,-165.34"/>
</a>
</g>
</g>
<!-- Node7 -->
<g id="Node000007" class="node">
<title>Node7</title>
<g id="a_Node000007"><a xlink:href="application_8c.html" target="_top" xlink:title=" ">
<polygon fill="white" stroke="#666666" points="557.04,-77.5 443.54,-77.5 443.54,-56.75 557.04,-56.75 557.04,-77.5"/>
<text xml:space="preserve" text-anchor="middle" x="500.29" y="-64" font-family="Helvetica,sans-Serif" font-size="10.00">source/application.c</text>
</a>
</g>
</g>
<!-- Node6&#45;&gt;Node7 -->
<g id="edge6_Node000006_Node000007" class="edge">
<title>Node6&#45;&gt;Node7</title>
<g id="a_edge6_Node000006_Node000007"><a xlink:title=" ">
<path fill="none" stroke="#63b8ff" d="M280.3,-168.98C312.94,-161.38 355.48,-149.75 391.29,-134.25 427.85,-118.43 466.89,-92.16 486.84,-77.96"/>
<polygon fill="#63b8ff" stroke="#63b8ff" points="279.65,-165.54 270.67,-171.17 281.2,-172.37 279.65,-165.54"/>
</a>
</g>
</g>
<!-- Node8 -->
<g id="Node000008" class="node">
<title>Node8</title>
<g id="a_Node000008"><a xlink:href="motor_8h.html" target="_top" xlink:title=" ">
<polygon fill="white" stroke="#666666" points="382.66,-134.25 293.91,-134.25 293.91,-113.5 382.66,-113.5 382.66,-134.25"/>
<text xml:space="preserve" text-anchor="middle" x="338.29" y="-120.75" font-family="Helvetica,sans-Serif" font-size="10.00">source/motor.h</text>
</a>
</g>
</g>
<!-- Node6&#45;&gt;Node8 -->
<g id="edge8_Node000006_Node000008" class="edge">
<title>Node6&#45;&gt;Node8</title>
<g id="a_edge8_Node000006_Node000008"><a xlink:title=" ">
<path fill="none" stroke="#63b8ff" d="M258.05,-164.81C277.35,-155.2 301.95,-142.96 318.79,-134.58"/>
<polygon fill="#63b8ff" stroke="#63b8ff" points="256.7,-161.57 249.31,-169.16 259.82,-167.84 256.7,-161.57"/>
</a>
</g>
</g>
<!-- Node8&#45;&gt;Node2 -->
<g id="edge10_Node000008_Node000002" class="edge">
<title>Node8&#45;&gt;Node2</title>
<g id="a_edge10_Node000008_Node000002"><a xlink:title=" ">
<path fill="none" stroke="#63b8ff" d="M302.27,-108.99C277.02,-99.25 243.9,-86.48 221.46,-77.83"/>
<polygon fill="#63b8ff" stroke="#63b8ff" points="300.9,-112.21 311.49,-112.54 303.42,-105.68 300.9,-112.21"/>
</a>
</g>
</g>
<!-- Node8&#45;&gt;Node3 -->
<g id="edge11_Node000008_Node000003" class="edge">
<title>Node8&#45;&gt;Node3</title>
<g id="a_edge11_Node000008_Node000003"><a xlink:title=" ">
<path fill="none" stroke="#63b8ff" d="M282.4,-111.11C235.47,-101.22 169.19,-87.27 125.03,-77.97"/>
<polygon fill="#63b8ff" stroke="#63b8ff" points="281.61,-114.52 292.11,-113.15 283.05,-107.67 281.61,-114.52"/>
</a>
</g>
</g>
<!-- Node8&#45;&gt;Node4 -->
<g id="edge14_Node000008_Node000004" class="edge">
<title>Node8&#45;&gt;Node4</title>
<g id="a_edge14_Node000008_Node000004"><a xlink:title=" ">
<path fill="none" stroke="#63b8ff" d="M314.09,-106.09C304.53,-98.37 294.2,-88.48 287.29,-77.5 275.96,-59.51 271.2,-34.57 269.35,-21.04"/>
<polygon fill="#63b8ff" stroke="#63b8ff" points="311.95,-108.87 322.03,-112.14 316.19,-103.3 311.95,-108.87"/>
</a>
</g>
</g>
<!-- Node8&#45;&gt;Node7 -->
<g id="edge9_Node000008_Node000007" class="edge">
<title>Node8&#45;&gt;Node7</title>
<g id="a_edge9_Node000008_Node000007"><a xlink:title=" ">
<path fill="none" stroke="#63b8ff" d="M377.81,-109.52C406.7,-99.76 445.23,-86.73 471.3,-77.92"/>
<polygon fill="#63b8ff" stroke="#63b8ff" points="377.04,-106.08 368.68,-112.6 379.28,-112.72 377.04,-106.08"/>
</a>
</g>
</g>
<!-- Node9 -->
<g id="Node000009" class="node">
<title>Node9</title>
<g id="a_Node000009"><a xlink:href="motor__configs_8h.html" target="_top" xlink:title=" ">
<polygon fill="white" stroke="#666666" points="425.91,-77.5 296.66,-77.5 296.66,-56.75 425.91,-56.75 425.91,-77.5"/>
<text xml:space="preserve" text-anchor="middle" x="361.29" y="-64" font-family="Helvetica,sans-Serif" font-size="10.00">source/motor_configs.h</text>
</a>
</g>
</g>
<!-- Node8&#45;&gt;Node9 -->
<g id="edge12_Node000008_Node000009" class="edge">
<title>Node8&#45;&gt;Node9</title>
<g id="a_edge12_Node000008_Node000009"><a xlink:title=" ">
<path fill="none" stroke="#63b8ff" d="M346.85,-102.49C350.4,-94.05 354.34,-84.66 357.21,-77.83"/>
<polygon fill="#63b8ff" stroke="#63b8ff" points="343.63,-101.12 342.99,-111.69 350.09,-103.83 343.63,-101.12"/>
</a>
</g>
</g>
<!-- Node9&#45;&gt;Node4 -->
<g id="edge13_Node000009_Node000004" class="edge">
<title>Node9&#45;&gt;Node4</title>
<g id="a_edge13_Node000009_Node000004"><a xlink:title=" ">
<path fill="none" stroke="#63b8ff" d="M334.76,-50.51C318.66,-41.03 298.61,-29.23 284.77,-21.08"/>
<polygon fill="#63b8ff" stroke="#63b8ff" points="332.96,-53.51 343.36,-55.57 336.52,-47.48 332.96,-53.51"/>
</a>
</g>
</g>
<!-- Node12&#45;&gt;Node7 -->
<g id="edge20_Node000012_Node000007" class="edge">
<title>Node12&#45;&gt;Node7</title>
<g id="a_edge20_Node000012_Node000007"><a xlink:title=" ">
<path fill="none" stroke="#63b8ff" d="M482.35,-159.05C487.1,-134.95 494.79,-96 498.35,-77.93"/>
<polygon fill="#63b8ff" stroke="#63b8ff" points="478.96,-158.15 480.46,-168.63 485.83,-159.5 478.96,-158.15"/>
</a>
</g>
</g>
<!-- Node12&#45;&gt;Node8 -->
<g id="edge21_Node000012_Node000008" class="edge">
<title>Node12&#45;&gt;Node8</title>
<g id="a_edge21_Node000012_Node000008"><a xlink:title=" ">
<path fill="none" stroke="#63b8ff" d="M442.78,-165.74C417.88,-156 385.23,-143.23 363.1,-134.58"/>
<polygon fill="#63b8ff" stroke="#63b8ff" points="441.26,-168.9 451.85,-169.29 443.81,-162.38 441.26,-168.9"/>
</a>
</g>
</g>
<!-- Node12&#45;&gt;Node11 -->
<g id="edge22_Node000012_Node000011" class="edge">
<title>Node12&#45;&gt;Node11</title>
<g id="a_edge22_Node000012_Node000011"><a xlink:title=" ">
<path fill="none" stroke="#63b8ff" d="M501.61,-163.46C515.15,-154.08 531.75,-142.57 543.29,-134.58"/>
<polygon fill="#63b8ff" stroke="#63b8ff" points="499.88,-160.4 493.66,-168.97 503.87,-166.16 499.88,-160.4"/>
</a>
</g>
</g>
</g>
</svg>
