<?xml version="1.0" encoding="UTF-8" standalone="no"?>
<!DOCTYPE svg PUBLIC "-//W3C//DTD SVG 1.1//EN"
 "http://www.w3.org/Graphics/SVG/1.1/DTD/svg11.dtd">
<!-- Generated by graphviz version 14.1.4 (0)
 -->
<!-- Title: source/task_helpers.c Pages: 1 -->
<svg width="466pt" height="199pt"
 viewBox="0.00 0.00 466.00 199.00" xmlns="http://www.w3.org/2000/svg" xmlns:xlink="http://www.w3.org/1999/xlink">
<g id="graph0" class="graph" transform="scale(1 1) rotate(0) translate(4 195)">
<title>source/task_helpers.c</title>
<!-- Node1 -->
<g id="Node000001" class="node">
<title>Node1</title>
<g id="a_Node000001"><a xlink:title=" ">
<polygon fill="#999999" stroke="#666666" points="318.62,-191 196.88,-191 196.88,-170.25 318.62,-170.25 318.62,-191"/>
<text xml:space="preserve" text-anchor="middle" x="257.75" y="-177.5" font-family="Helvetica,sans-Serif" font-size="10.00">source/task_helpers.c</text>
</a>
</g>
</g>
<!-- Node2 -->
<g id="Node000002" class="node">
<title>Node2</title>
<g id="a_Node000002"><a xlink:href="task__helpers_8h.html" target="_top" xlink:title=" ">
<polygon fill="white" stroke="#666666" points="229.38,-134.25 142.12,-134.25 142.12,-113.5 229.38,-113.5 229.38,-134.25"/>
<text xml:space="preserve" text-anchor="middle" x="185.75" y="-120.75" font-family="Helvetica,sans-Serif" font-size="10.00">task_helpers.h</text>
</a>
</g>
</g>
<!-- Node1&#45;&gt;Node2 -->
<g id="edge1_Node000001_Node000002" class="edge">
<title>Node1&#45;&gt;Node2</title>
<g id="a_edge1_Node000001_Node000002"><a xlink:title=" ">
<path fill="none" stroke="#63b8ff" d="M244.88,-169.84C234.54,-161.97 219.78,-150.75 207.6,-141.49"/>
<polygon fill="#63b8ff" stroke="#63b8ff" points="209.79,-138.76 199.72,-135.49 205.56,-144.33 209.79,-138.76"/>
</a>
</g>
</g>
<!-- Node3 -->
<g id="Node000003" class="node">
<title>Node3</title>
<g id="a_Node000003"><a xlink:title=" ">
<polygon fill="#e0e0e0" stroke="#999999" points="71.5,-20.75 0,-20.75 0,0 71.5,0 71.5,-20.75"/>
<text xml:space="preserve" text-anchor="middle" x="35.75" y="-7.25" font-family="Helvetica,sans-Serif" font-size="10.00">FreeRTOS.h</text>
</a>
</g>
</g>
<!-- Node1&#45;&gt;Node3 -->
<g id="edge11_Node000001_Node000003" class="edge">
<title>Node1&#45;&gt;Node3</title>
<g id="a_edge11_Node000001_Node000003"><a xlink:title=" ">
<path fill="none" stroke="#63b8ff" d="M196.62,-170.3C144.08,-158.62 71.72,-132.94 38.75,-77.5 30.75,-64.04 30.41,-46.17 31.85,-32.4"/>
<polygon fill="#63b8ff" stroke="#63b8ff" points="35.29,-33.05 33.28,-22.65 28.37,-32.04 35.29,-33.05"/>
</a>
</g>
</g>
<!-- Node4 -->
<g id="Node000004" class="node">
<title>Node4</title>
<g id="a_Node000004"><a xlink:title=" ">
<polygon fill="#e0e0e0" stroke="#999999" points="275.75,-77.5 229.75,-77.5 229.75,-56.75 275.75,-56.75 275.75,-77.5"/>
<text xml:space="preserve" text-anchor="middle" x="252.75" y="-64" font-family="Helvetica,sans-Serif" font-size="10.00">task.h</text>
</a>
</g>
</g>
<!-- Node1&#45;&gt;Node4 -->
<g id="edge12_Node000001_Node000004" class="edge">
<title>Node1&#45;&gt;Node4</title>
<g id="a_edge12_Node000001_Node000004"><a xlink:title=" ">
<path fill="none" stroke="#63b8ff" d="M257.32,-170.12C256.53,-152.35 254.79,-113.72 253.71,-89.43"/>
<polygon fill="#63b8ff" stroke="#63b8ff" points="257.2,-89.27 253.26,-79.44 250.21,-89.58 257.2,-89.27"/>
</a>
</g>
</g>
<!-- Node8 -->
<g id="Node000008" class="node">
<title>Node8</title>
<g id="a_Node000008"><a xlink:title=" ">
<polygon fill="#e0e0e0" stroke="#999999" points="385.25,-77.5 294.25,-77.5 294.25,-56.75 385.25,-56.75 385.25,-77.5"/>
<text xml:space="preserve" text-anchor="middle" x="339.75" y="-64" font-family="Helvetica,sans-Serif" font-size="10.00">event_groups.h</text>
</a>
</g>
</g>
<!-- Node1&#45;&gt;Node8 -->
<g id="edge14_Node000001_Node000008" class="edge">
<title>Node1&#45;&gt;Node8</title>
<g id="a_edge14_Node000001_Node000008"><a xlink:title=" ">
<path fill="none" stroke="#63b8ff" d="M264.74,-170.12C278.23,-151.78 308.07,-111.2 325.78,-87.12"/>
<polygon fill="#63b8ff" stroke="#63b8ff" points="328.54,-89.27 331.65,-79.14 322.9,-85.13 328.54,-89.27"/>
</a>
</g>
</g>
<!-- Node9 -->
<g id="Node000009" class="node">
<title>Node9</title>
<g id="a_Node000009"><a xlink:title=" ">
<polygon fill="#e0e0e0" stroke="#999999" points="458.25,-77.5 403.25,-77.5 403.25,-56.75 458.25,-56.75 458.25,-77.5"/>
<text xml:space="preserve" text-anchor="middle" x="430.75" y="-64" font-family="Helvetica,sans-Serif" font-size="10.00">queue.h</text>
</a>
</g>
</g>
<!-- Node1&#45;&gt;Node9 -->
<g id="edge13_Node000001_Node000009" class="edge">
<title>Node1&#45;&gt;Node9</title>
<g id="a_edge13_Node000001_Node000009"><a xlink:title=" ">
<path fill="none" stroke="#63b8ff" d="M272.8,-169.93C302.71,-150.65 369.86,-107.37 406.23,-83.93"/>
<polygon fill="#63b8ff" stroke="#63b8ff" points="407.83,-87.06 414.34,-78.7 404.04,-81.18 407.83,-87.06"/>
</a>
</g>
</g>
<!-- Node2&#45;&gt;Node3 -->
<g id="edge2_Node000002_Node000003" class="edge">
<title>Node2&#45;&gt;Node3</title>
<g id="a_edge2_Node000002_Node000003"><a xlink:title=" ">
<path fill="none" stroke="#63b8ff" d="M141.85,-118.09C113.36,-112.75 77.43,-101.43 54.75,-77.5 43.18,-65.3 38.59,-46.52 36.8,-32.09"/>
<polygon fill="#63b8ff" stroke="#63b8ff" points="40.31,-31.98 35.97,-22.31 33.33,-32.57 40.31,-31.98"/>
</a>
</g>
</g>
<!-- Node2&#45;&gt;Node4 -->
<g id="edge3_Node000002_Node000004" class="edge">
<title>Node2&#45;&gt;Node4</title>
<g id="a_edge3_Node000002_Node000004"><a xlink:title=" ">
<path fill="none" stroke="#63b8ff" d="M197.73,-113.09C207.26,-105.3 220.81,-94.22 232.08,-85.01"/>
<polygon fill="#63b8ff" stroke="#63b8ff" points="234.17,-87.82 239.7,-78.79 229.75,-82.4 234.17,-87.82"/>
</a>
</g>
</g>
<!-- Node5 -->
<g id="Node000005" class="node">
<title>Node5</title>
<g id="a_Node000005"><a xlink:title=" ">
<polygon fill="#e0e0e0" stroke="#999999" points="174.25,-20.75 89.25,-20.75 89.25,0 174.25,0 174.25,-20.75"/>
<text xml:space="preserve" text-anchor="middle" x="131.75" y="-7.25" font-family="Helvetica,sans-Serif" font-size="10.00">fsl_common.h</text>
</a>
</g>
</g>
<!-- Node2&#45;&gt;Node5 -->
<g id="edge4_Node000002_Node000005" class="edge">
<title>Node2&#45;&gt;Node5</title>
<g id="a_edge4_Node000002_Node000005"><a xlink:title=" ">
<path fill="none" stroke="#63b8ff" d="M176.49,-113.17C168.64,-104.46 157.58,-90.99 150.75,-77.5 143.48,-63.14 138.6,-45.58 135.61,-32.16"/>
<polygon fill="#63b8ff" stroke="#63b8ff" points="139.11,-31.8 133.68,-22.7 132.25,-33.2 139.11,-31.8"/>
</a>
</g>
</g>
<!-- Node6 -->
<g id="Node000006" class="node">
<title>Node6</title>
<g id="a_Node000006"><a xlink:href="log_8h.html" target="_top" xlink:title=" ">
<polygon fill="white" stroke="#666666" points="103.75,-77.5 63.75,-77.5 63.75,-56.75 103.75,-56.75 103.75,-77.5"/>
<text xml:space="preserve" text-anchor="middle" x="83.75" y="-64" font-family="Helvetica,sans-Serif" font-size="10.00">log.h</text>
</a>
</g>
</g>
<!-- Node2&#45;&gt;Node6 -->
<g id="edge5_Node000002_Node000006" class="edge">
<title>Node2&#45;&gt;Node6</title>
<g id="a_edge5_Node000002_Node000006"><a xlink:title=" ">
<path fill="none" stroke="#63b8ff" d="M167.51,-113.09C152.07,-104.8 129.66,-92.77 111.91,-83.24"/>
<polygon fill="#63b8ff" stroke="#63b8ff" points="113.63,-80.19 103.16,-78.54 110.32,-86.36 113.63,-80.19"/>
</a>
</g>
</g>
<!-- Node7 -->
<g id="Node000007" class="node">
<title>Node7</title>
<g id="a_Node000007"><a xlink:title=" ">
<polygon fill="#e0e0e0" stroke="#999999" points="212.12,-77.5 159.38,-77.5 159.38,-56.75 212.12,-56.75 212.12,-77.5"/>
<text xml:space="preserve" text-anchor="middle" x="185.75" y="-64" font-family="Helvetica,sans-Serif" font-size="10.00">string.h</text>
</a>
</g>
</g>
<!-- Node2&#45;&gt;Node7 -->
<g id="edge8_Node000002_Node000007" class="edge">
<title>Node2&#45;&gt;Node7</title>
<g id="a_edge8_Node000002_Node000007"><a xlink:title=" ">
<path fill="none" stroke="#63b8ff" d="M185.75,-113.09C185.75,-106.47 185.75,-97.47 185.75,-89.27"/>
<polygon fill="#63b8ff" stroke="#63b8ff" points="189.25,-89.34 185.75,-79.34 182.25,-89.34 189.25,-89.34"/>
</a>
</g>
</g>
<!-- Node2&#45;&gt;Node8 -->
<g id="edge9_Node000002_Node000008" class="edge">
<title>Node2&#45;&gt;Node8</title>
<g id="a_edge9_Node000002_Node000008"><a xlink:title=" ">
<path fill="none" stroke="#63b8ff" d="M213.28,-113.09C237.84,-104.36 274.05,-91.48 301.43,-81.75"/>
<polygon fill="#63b8ff" stroke="#63b8ff" points="302.52,-85.08 310.77,-78.43 300.18,-78.48 302.52,-85.08"/>
</a>
</g>
</g>
<!-- Node2&#45;&gt;Node9 -->
<g id="edge10_Node000002_Node000009" class="edge">
<title>Node2&#45;&gt;Node9</title>
<g id="a_edge10_Node000002_Node000009"><a xlink:title=" ">
<path fill="none" stroke="#63b8ff" d="M229.5,-113.92C269.47,-105.62 330.47,-92.65 391.82,-78.14"/>
<polygon fill="#63b8ff" stroke="#63b8ff" points="392.48,-81.58 401.4,-75.86 390.86,-74.77 392.48,-81.58"/>
</a>
</g>
</g>
<!-- Node6&#45;&gt;Node3 -->
<g id="edge6_Node000006_Node000003" class="edge">
<title>Node6&#45;&gt;Node3</title>
<g id="a_edge6_Node000006_Node000003"><a xlink:title=" ">
<path fill="none" stroke="#63b8ff" d="M75.17,-56.34C68.68,-48.94 59.6,-38.57 51.78,-29.66"/>
<polygon fill="#63b8ff" stroke="#63b8ff" points="54.48,-27.43 45.25,-22.22 49.22,-32.04 54.48,-27.43"/>
</a>
</g>
</g>
<!-- Node6&#45;&gt;Node5 -->
<g id="edge7_Node000006_Node000005" class="edge">
<title>Node6&#45;&gt;Node5</title>
<g id="a_edge7_Node000006_Node000005"><a xlink:title=" ">
<path fill="none" stroke="#63b8ff" d="M92.33,-56.34C98.82,-48.94 107.9,-38.57 115.72,-29.66"/>
<polygon fill="#63b8ff" stroke="#63b8ff" points="118.28,-32.04 122.25,-22.22 113.02,-27.43 118.28,-32.04"/>
</a>
</g>
</g>
</g>
</svg>
