<?xml version="1.0" encoding="UTF-8" standalone="no"?>
<!DOCTYPE svg PUBLIC "-//W3C//DTD SVG 1.1//EN"
 "http://www.w3.org/Graphics/SVG/1.1/DTD/svg11.dtd">
<!-- Generated by graphviz version 14.1.3 (0)
 -->
<!-- Title: source/task_helpers.h Pages: 1 -->
<svg width="276pt" height="142pt"
 viewBox="0.00 0.00 276.00 142.00" xmlns="http://www.w3.org/2000/svg" xmlns:xlink="http://www.w3.org/1999/xlink">

<svg id="main" version="1.1" xmlns="http://www.w3.org/2000/svg" xmlns:xlink="http://www.w3.org/1999/xlink" xml:space="preserve">

<style type="text/css"><![CDATA[
.node, .edge {opacity: 0.7;}
.node.selected, .edge.selected {opacity: 1;}
.edge:hover path { stroke: red; }
.edge:hover polygon { stroke: red; fill: red; }
]]></style>
<script type="application/ecmascript" xlink:href="svg.min.js"/>
<svg id="graph" class="graph">
<g id="graph0" class="graph" transform="scale(1 1) rotate(0) translate(4 138.25)">
<title>source/task_helpers.h</title>
<!-- Node1 -->
<g id="Node000001" class="node">
<title>Node1</title>
<g id="a_Node000001"><a xlink:title=" ">
<polygon fill="#999999" stroke="#666666" points="201,-134.25 78.5,-134.25 78.5,-113.5 201,-113.5 201,-134.25"/>
<text xml:space="preserve" text-anchor="middle" x="139.75" y="-120.75" font-family="Helvetica,sans-Serif" font-size="10.00">source/task_helpers.h</text>
</a>
</g>
</g>
<!-- Node2 -->
<g id="Node000002" class="node">
<title>Node2</title>
<g id="a_Node000002"><a xlink:title=" ">
<polygon fill="#e0e0e0" stroke="#999999" points="71.5,-20.75 0,-20.75 0,0 71.5,0 71.5,-20.75"/>
<text xml:space="preserve" text-anchor="middle" x="35.75" y="-7.25" font-family="Helvetica,sans-Serif" font-size="10.00">FreeRTOS.h</text>
</a>
</g>
</g>
<!-- Node1&#45;&gt;Node2 -->
<g id="edge1_Node000001_Node000002" class="edge">
<title>Node1&#45;&gt;Node2</title>
<g id="a_edge1_Node000001_Node000002"><a xlink:title=" ">
<path fill="none" stroke="#63b8ff" d="M100.75,-113.03C81.59,-106.2 59.85,-95.07 46.75,-77.5 37.16,-64.64 34.71,-46.47 34.49,-32.42"/>
<polygon fill="#63b8ff" stroke="#63b8ff" points="37.99,-32.56 34.73,-22.47 30.99,-32.38 37.99,-32.56"/>
</a>
</g>
</g>
<!-- Node3 -->
<g id="Node000003" class="node">
<title>Node3</title>
<g id="a_Node000003"><a xlink:title=" ">
<polygon fill="#e0e0e0" stroke="#999999" points="101.75,-77.5 55.75,-77.5 55.75,-56.75 101.75,-56.75 101.75,-77.5"/>
<text xml:space="preserve" text-anchor="middle" x="78.75" y="-64" font-family="Helvetica,sans-Serif" font-size="10.00">task.h</text>
</a>
</g>
</g>
<!-- Node1&#45;&gt;Node3 -->
<g id="edge2_Node000001_Node000003" class="edge">
<title>Node1&#45;&gt;Node3</title>
<g id="a_edge2_Node000001_Node000003"><a xlink:title=" ">
<path fill="none" stroke="#63b8ff" d="M128.84,-113.09C120.26,-105.38 108.08,-94.45 97.87,-85.29"/>
<polygon fill="#63b8ff" stroke="#63b8ff" points="100.47,-82.91 90.69,-78.84 95.79,-88.12 100.47,-82.91"/>
</a>
</g>
</g>
<!-- Node4 -->
<g id="Node000004" class="node">
<title>Node4</title>
<g id="a_Node000004"><a xlink:title=" ">
<polygon fill="#e0e0e0" stroke="#999999" points="206.25,-20.75 121.25,-20.75 121.25,0 206.25,0 206.25,-20.75"/>
<text xml:space="preserve" text-anchor="middle" x="163.75" y="-7.25" font-family="Helvetica,sans-Serif" font-size="10.00">fsl_common.h</text>
</a>
</g>
</g>
<!-- Node1&#45;&gt;Node4 -->
<g id="edge3_Node000001_Node000004" class="edge">
<title>Node1&#45;&gt;Node4</title>
<g id="a_edge3_Node000001_Node000004"><a xlink:title=" ">
<path fill="none" stroke="#63b8ff" d="M148.25,-113.25C155.29,-104.58 164.76,-91.14 168.75,-77.5 173.06,-62.76 171.52,-45.43 169.06,-32.21"/>
<polygon fill="#63b8ff" stroke="#63b8ff" points="172.48,-31.5 166.9,-22.49 165.65,-33.01 172.48,-31.5"/>
</a>
</g>
</g>
<!-- Node5 -->
<g id="Node000005" class="node">
<title>Node5</title>
<g id="a_Node000005"><a xlink:href="log_8h.html" target="_top" xlink:title=" ">
<polygon fill="white" stroke="#666666" points="159.75,-77.5 119.75,-77.5 119.75,-56.75 159.75,-56.75 159.75,-77.5"/>
<text xml:space="preserve" text-anchor="middle" x="139.75" y="-64" font-family="Helvetica,sans-Serif" font-size="10.00">log.h</text>
</a>
</g>
</g>
<!-- Node1&#45;&gt;Node5 -->
<g id="edge4_Node000001_Node000005" class="edge">
<title>Node1&#45;&gt;Node5</title>
<g id="a_edge4_Node000001_Node000005"><a xlink:title=" ">
<path fill="none" stroke="#63b8ff" d="M139.75,-113.09C139.75,-106.47 139.75,-97.47 139.75,-89.27"/>
<polygon fill="#63b8ff" stroke="#63b8ff" points="143.25,-89.34 139.75,-79.34 136.25,-89.34 143.25,-89.34"/>
</a>
</g>
</g>
<!-- Node6 -->
<g id="Node000006" class="node">
<title>Node6</title>
<g id="a_Node000006"><a xlink:title=" ">
<polygon fill="#e0e0e0" stroke="#999999" points="268.12,-77.5 215.38,-77.5 215.38,-56.75 268.12,-56.75 268.12,-77.5"/>
<text xml:space="preserve" text-anchor="middle" x="241.75" y="-64" font-family="Helvetica,sans-Serif" font-size="10.00">string.h</text>
</a>
</g>
</g>
<!-- Node1&#45;&gt;Node6 -->
<g id="edge7_Node000001_Node000006" class="edge">
<title>Node1&#45;&gt;Node6</title>
<g id="a_edge7_Node000001_Node000006"><a xlink:title=" ">
<path fill="none" stroke="#63b8ff" d="M157.99,-113.09C173.43,-104.8 195.84,-92.77 213.59,-83.24"/>
<polygon fill="#63b8ff" stroke="#63b8ff" points="215.18,-86.36 222.34,-78.54 211.87,-80.19 215.18,-86.36"/>
</a>
</g>
</g>
<!-- Node5&#45;&gt;Node2 -->
<g id="edge5_Node000005_Node000002" class="edge">
<title>Node5&#45;&gt;Node2</title>
<g id="a_edge5_Node000005_Node000002"><a xlink:title=" ">
<path fill="none" stroke="#63b8ff" d="M121.16,-56.34C105.33,-48.01 82.35,-35.91 64.21,-26.36"/>
<polygon fill="#63b8ff" stroke="#63b8ff" points="66,-23.34 55.52,-21.78 62.74,-29.54 66,-23.34"/>
</a>
</g>
</g>
<!-- Node5&#45;&gt;Node4 -->
<g id="edge6_Node000005_Node000004" class="edge">
<title>Node5&#45;&gt;Node4</title>
<g id="a_edge6_Node000005_Node000004"><a xlink:title=" ">
<path fill="none" stroke="#63b8ff" d="M144.04,-56.34C147.08,-49.41 151.26,-39.87 154.99,-31.36"/>
<polygon fill="#63b8ff" stroke="#63b8ff" points="158.08,-33.03 158.89,-22.46 151.67,-30.22 158.08,-33.03"/>
</a>
</g>
</g>
</g>
</svg>
</svg>

<style type='text/css'>
<![CDATA[
[data-mouse-over-selected='false'] { opacity: 0.7; }
[data-mouse-over-selected='true']  { opacity: 1.0; }
]]>
</style>
<script type="application/ecmascript"><![CDATA[
document.addEventListener('DOMContentLoaded', (event) => {
  highlightEdges();
  highlightAdjacentNodes();
});
]]></script>
</svg>
