<?xml version="1.0" encoding="UTF-8" standalone="no"?>
<!DOCTYPE svg PUBLIC "-//W3C//DTD SVG 1.1//EN"
 "http://www.w3.org/Graphics/SVG/1.1/DTD/svg11.dtd">
<!-- Generated by graphviz version 14.1.5 (0)
 -->
<!-- Title: source/driver/tmc2209/tmc2209_setup.c Pages: 1 -->
<svg width="626pt" height="269pt"
 viewBox="0.00 0.00 626.00 269.00" xmlns="http://www.w3.org/2000/svg" xmlns:xlink="http://www.w3.org/1999/xlink">
<g id="graph0" class="graph" transform="scale(1 1) rotate(0) translate(4 264.5)">
<title>source/driver/tmc2209/tmc2209_setup.c</title>
<!-- Node1 -->
<g id="Node000001" class="node">
<title>Node1</title>
<g id="a_Node000001"><a xlink:title=" ">
<polygon fill="#999999" stroke="#666666" points="381.25,-260.5 255.75,-260.5 255.75,-227 381.25,-227 381.25,-260.5"/>
<text xml:space="preserve" text-anchor="start" x="263.75" y="-247" font-family="Helvetica,sans-Serif" font-size="10.00">source/driver/tmc2209</text>
<text xml:space="preserve" text-anchor="middle" x="318.5" y="-234.25" font-family="Helvetica,sans-Serif" font-size="10.00">/tmc2209_setup.c</text>
</a>
</g>
</g>
<!-- Node2 -->
<g id="Node000002" class="node">
<title>Node2</title>
<g id="a_Node000002"><a xlink:href="log_8h.html" target="_top" xlink:title=" ">
<polygon fill="white" stroke="#666666" points="178,-77.5 69,-77.5 69,-56.75 178,-56.75 178,-77.5"/>
<text xml:space="preserve" text-anchor="middle" x="123.5" y="-64" font-family="Helvetica,sans-Serif" font-size="10.00">infrastructure/log.h</text>
</a>
</g>
</g>
<!-- Node1&#45;&gt;Node2 -->
<g id="edge1_Node000001_Node000002" class="edge">
<title>Node1&#45;&gt;Node2</title>
<g id="a_edge1_Node000001_Node000002"><a xlink:title=" ">
<path fill="none" stroke="#63b8ff" d="M287.12,-226.62C253.04,-207.92 198.52,-174.48 161.5,-134.25 149.03,-120.7 138.9,-102.36 132.24,-88.43"/>
<polygon fill="#63b8ff" stroke="#63b8ff" points="135.44,-87.01 128.11,-79.35 129.06,-89.9 135.44,-87.01"/>
</a>
</g>
</g>
<!-- Node4 -->
<g id="Node000004" class="node">
<title>Node4</title>
<g id="a_Node000004"><a xlink:title=" ">
<polygon fill="#e0e0e0" stroke="#999999" points="85,-20.75 0,-20.75 0,0 85,0 85,-20.75"/>
<text xml:space="preserve" text-anchor="middle" x="42.5" y="-7.25" font-family="Helvetica,sans-Serif" font-size="10.00">fsl_common.h</text>
</a>
</g>
</g>
<!-- Node1&#45;&gt;Node4 -->
<g id="edge25_Node000001_Node000004" class="edge">
<title>Node1&#45;&gt;Node4</title>
<g id="a_edge25_Node000001_Node000004"><a xlink:title=" ">
<path fill="none" stroke="#63b8ff" d="M270.41,-226.52C210.3,-203.52 109.28,-155.36 59.5,-77.5 50.8,-63.89 46.54,-46.03 44.47,-32.3"/>
<polygon fill="#63b8ff" stroke="#63b8ff" points="47.97,-32.11 43.29,-22.6 41.02,-32.95 47.97,-32.11"/>
</a>
</g>
</g>
<!-- Node5 -->
<g id="Node000005" class="node">
<title>Node5</title>
<g id="a_Node000005"><a xlink:href="tmc2209__setup_8h.html" target="_top" xlink:title=" ">
<polygon fill="white" stroke="#666666" points="474.5,-134.25 374.5,-134.25 374.5,-113.5 474.5,-113.5 474.5,-134.25"/>
<text xml:space="preserve" text-anchor="middle" x="424.5" y="-120.75" font-family="Helvetica,sans-Serif" font-size="10.00">tmc2209_setup.h</text>
</a>
</g>
</g>
<!-- Node1&#45;&gt;Node5 -->
<g id="edge4_Node000001_Node000005" class="edge">
<title>Node1&#45;&gt;Node5</title>
<g id="a_edge4_Node000001_Node000005"><a xlink:title=" ">
<path fill="none" stroke="#63b8ff" d="M337.04,-226.66C348.05,-216.78 362.05,-203.63 373.5,-191 387.16,-175.94 401.16,-157.53 411.03,-143.97"/>
<polygon fill="#63b8ff" stroke="#63b8ff" points="413.82,-146.07 416.81,-135.9 408.14,-141.99 413.82,-146.07"/>
</a>
</g>
</g>
<!-- Node7 -->
<g id="Node000007" class="node">
<title>Node7</title>
<g id="a_Node000007"><a xlink:href="tmc2209__shared_8h.html" target="_top" xlink:title=" ">
<polygon fill="white" stroke="#666666" points="556.5,-77.5 450.5,-77.5 450.5,-56.75 556.5,-56.75 556.5,-77.5"/>
<text xml:space="preserve" text-anchor="middle" x="503.5" y="-64" font-family="Helvetica,sans-Serif" font-size="10.00">tmc2209_shared.h</text>
</a>
</g>
</g>
<!-- Node1&#45;&gt;Node7 -->
<g id="edge10_Node000001_Node000007" class="edge">
<title>Node1&#45;&gt;Node7</title>
<g id="a_edge10_Node000001_Node000007"><a xlink:title=" ">
<path fill="none" stroke="#63b8ff" d="M374.87,-226.64C418.56,-210.86 476.11,-182.07 503.5,-134.25 511.28,-120.67 510.77,-102.81 508.6,-89.08"/>
<polygon fill="#63b8ff" stroke="#63b8ff" points="512.05,-88.45 506.63,-79.35 505.19,-89.84 512.05,-88.45"/>
</a>
</g>
</g>
<!-- Node9 -->
<g id="Node000009" class="node">
<title>Node9</title>
<g id="a_Node000009"><a xlink:href="tmc2209__internal_8h.html" target="_top" xlink:title=" ">
<polygon fill="white" stroke="#666666" points="280.75,-134.25 170.25,-134.25 170.25,-113.5 280.75,-113.5 280.75,-134.25"/>
<text xml:space="preserve" text-anchor="middle" x="225.5" y="-120.75" font-family="Helvetica,sans-Serif" font-size="10.00">tmc2209_internal.h</text>
</a>
</g>
</g>
<!-- Node1&#45;&gt;Node9 -->
<g id="edge11_Node000001_Node000009" class="edge">
<title>Node1&#45;&gt;Node9</title>
<g id="a_edge11_Node000001_Node000009"><a xlink:title=" ">
<path fill="none" stroke="#63b8ff" d="M298.54,-226.52C287.44,-216.9 273.82,-204.06 263.5,-191 252.08,-176.55 241.86,-158.29 234.9,-144.62"/>
<polygon fill="#63b8ff" stroke="#63b8ff" points="238.09,-143.18 230.53,-135.76 231.81,-146.28 238.09,-143.18"/>
</a>
</g>
</g>
<!-- Node13 -->
<g id="Node000013" class="node">
<title>Node13</title>
<g id="a_Node000013"><a xlink:href="tmc2209__uart_8h.html" target="_top" xlink:title=" ">
<polygon fill="white" stroke="#666666" points="364.75,-191 272.25,-191 272.25,-170.25 364.75,-170.25 364.75,-191"/>
<text xml:space="preserve" text-anchor="middle" x="318.5" y="-177.5" font-family="Helvetica,sans-Serif" font-size="10.00">tmc2209_uart.h</text>
</a>
</g>
</g>
<!-- Node1&#45;&gt;Node13 -->
<g id="edge19_Node000001_Node000013" class="edge">
<title>Node1&#45;&gt;Node13</title>
<g id="a_edge19_Node000001_Node000013"><a xlink:title=" ">
<path fill="none" stroke="#63b8ff" d="M318.5,-226.69C318.5,-219.35 318.5,-210.57 318.5,-202.71"/>
<polygon fill="#63b8ff" stroke="#63b8ff" points="322,-202.98 318.5,-192.98 315,-202.98 322,-202.98"/>
</a>
</g>
</g>
<!-- Node14 -->
<g id="Node000014" class="node">
<title>Node14</title>
<g id="a_Node000014"><a xlink:title=" ">
<polygon fill="#e0e0e0" stroke="#999999" points="618,-191 569,-191 569,-170.25 618,-170.25 618,-191"/>
<text xml:space="preserve" text-anchor="middle" x="593.5" y="-177.5" font-family="Helvetica,sans-Serif" font-size="10.00">stdio.h</text>
</a>
</g>
</g>
<!-- Node1&#45;&gt;Node14 -->
<g id="edge24_Node000001_Node000014" class="edge">
<title>Node1&#45;&gt;Node14</title>
<g id="a_edge24_Node000001_Node000014"><a xlink:title=" ">
<path fill="none" stroke="#63b8ff" d="M381.68,-229.26C429.25,-219.01 496.04,-204.43 554.5,-191 555.51,-190.77 556.53,-190.53 557.57,-190.29"/>
<polygon fill="#63b8ff" stroke="#63b8ff" points="558.36,-193.7 567.29,-188 556.75,-186.89 558.36,-193.7"/>
</a>
</g>
</g>
<!-- Node3 -->
<g id="Node000003" class="node">
<title>Node3</title>
<g id="a_Node000003"><a xlink:title=" ">
<polygon fill="#e0e0e0" stroke="#999999" points="354.25,-20.75 282.75,-20.75 282.75,0 354.25,0 354.25,-20.75"/>
<text xml:space="preserve" text-anchor="middle" x="318.5" y="-7.25" font-family="Helvetica,sans-Serif" font-size="10.00">FreeRTOS.h</text>
</a>
</g>
</g>
<!-- Node2&#45;&gt;Node3 -->
<g id="edge2_Node000002_Node000003" class="edge">
<title>Node2&#45;&gt;Node3</title>
<g id="a_edge2_Node000002_Node000003"><a xlink:title=" ">
<path fill="none" stroke="#63b8ff" d="M158.36,-56.34C190.29,-47.37 237.76,-34.04 272.73,-24.23"/>
<polygon fill="#63b8ff" stroke="#63b8ff" points="273.47,-27.65 282.15,-21.58 271.58,-20.91 273.47,-27.65"/>
</a>
</g>
</g>
<!-- Node2&#45;&gt;Node4 -->
<g id="edge3_Node000002_Node000004" class="edge">
<title>Node2&#45;&gt;Node4</title>
<g id="a_edge3_Node000002_Node000004"><a xlink:title=" ">
<path fill="none" stroke="#63b8ff" d="M109.02,-56.34C97.15,-48.32 80.13,-36.81 66.27,-27.44"/>
<polygon fill="#63b8ff" stroke="#63b8ff" points="68.35,-24.63 58.11,-21.93 64.43,-30.43 68.35,-24.63"/>
</a>
</g>
</g>
<!-- Node5&#45;&gt;Node3 -->
<g id="edge6_Node000005_Node000003" class="edge">
<title>Node5&#45;&gt;Node3</title>
<g id="a_edge6_Node000005_Node000003"><a xlink:title=" ">
<path fill="none" stroke="#63b8ff" d="M415.46,-113.37C397.79,-94.78 358.41,-53.36 335.65,-29.41"/>
<polygon fill="#63b8ff" stroke="#63b8ff" points="338.29,-27.11 328.86,-22.27 333.21,-31.93 338.29,-27.11"/>
</a>
</g>
</g>
<!-- Node6 -->
<g id="Node000006" class="node">
<title>Node6</title>
<g id="a_Node000006"><a xlink:title=" ">
<polygon fill="#e0e0e0" stroke="#999999" points="428.88,-20.75 376.12,-20.75 376.12,0 428.88,0 428.88,-20.75"/>
<text xml:space="preserve" text-anchor="middle" x="402.5" y="-7.25" font-family="Helvetica,sans-Serif" font-size="10.00">stdint.h</text>
</a>
</g>
</g>
<!-- Node5&#45;&gt;Node6 -->
<g id="edge5_Node000005_Node000006" class="edge">
<title>Node5&#45;&gt;Node6</title>
<g id="a_edge5_Node000005_Node000006"><a xlink:title=" ">
<path fill="none" stroke="#63b8ff" d="M422.62,-113.37C419.1,-95.52 411.43,-56.61 406.64,-32.34"/>
<polygon fill="#63b8ff" stroke="#63b8ff" points="410.1,-31.79 404.73,-22.66 403.23,-33.15 410.1,-31.79"/>
</a>
</g>
</g>
<!-- Node5&#45;&gt;Node7 -->
<g id="edge7_Node000005_Node000007" class="edge">
<title>Node5&#45;&gt;Node7</title>
<g id="a_edge7_Node000005_Node000007"><a xlink:title=" ">
<path fill="none" stroke="#63b8ff" d="M438.62,-113.09C450.19,-105.07 466.8,-93.56 480.32,-84.19"/>
<polygon fill="#63b8ff" stroke="#63b8ff" points="482.03,-87.26 488.25,-78.69 478.04,-81.51 482.03,-87.26"/>
</a>
</g>
</g>
<!-- Node7&#45;&gt;Node6 -->
<g id="edge8_Node000007_Node000006" class="edge">
<title>Node7&#45;&gt;Node6</title>
<g id="a_edge8_Node000007_Node000006"><a xlink:title=" ">
<path fill="none" stroke="#63b8ff" d="M485.44,-56.34C470.08,-48.01 447.76,-35.91 430.14,-26.36"/>
<polygon fill="#63b8ff" stroke="#63b8ff" points="432.19,-23.49 421.73,-21.8 428.85,-29.64 432.19,-23.49"/>
</a>
</g>
</g>
<!-- Node8 -->
<g id="Node000008" class="node">
<title>Node8</title>
<g id="a_Node000008"><a xlink:title=" ">
<polygon fill="#e0e0e0" stroke="#999999" points="556.12,-20.75 450.88,-20.75 450.88,0 556.12,0 556.12,-20.75"/>
<text xml:space="preserve" text-anchor="middle" x="503.5" y="-7.25" font-family="Helvetica,sans-Serif" font-size="10.00">fsl_uart_freertos.h</text>
</a>
</g>
</g>
<!-- Node7&#45;&gt;Node8 -->
<g id="edge9_Node000007_Node000008" class="edge">
<title>Node7&#45;&gt;Node8</title>
<g id="a_edge9_Node000007_Node000008"><a xlink:title=" ">
<path fill="none" stroke="#63b8ff" d="M503.5,-56.34C503.5,-49.72 503.5,-40.72 503.5,-32.52"/>
<polygon fill="#63b8ff" stroke="#63b8ff" points="507,-32.59 503.5,-22.59 500,-32.59 507,-32.59"/>
</a>
</g>
</g>
<!-- Node9&#45;&gt;Node7 -->
<g id="edge12_Node000009_Node000007" class="edge">
<title>Node9&#45;&gt;Node7</title>
<g id="a_edge12_Node000009_Node000007"><a xlink:title=" ">
<path fill="none" stroke="#63b8ff" d="M275.52,-113.02C322.32,-103.81 392.33,-90.02 442.41,-80.16"/>
<polygon fill="#63b8ff" stroke="#63b8ff" points="442.79,-83.65 451.93,-78.28 441.44,-76.78 442.79,-83.65"/>
</a>
</g>
</g>
<!-- Node10 -->
<g id="Node000010" class="node">
<title>Node10</title>
<g id="a_Node000010"><a xlink:href="cmd__handle_8h.html" target="_top" xlink:title=" ">
<polygon fill="white" stroke="#666666" points="280.62,-77.5 196.38,-77.5 196.38,-56.75 280.62,-56.75 280.62,-77.5"/>
<text xml:space="preserve" text-anchor="middle" x="238.5" y="-64" font-family="Helvetica,sans-Serif" font-size="10.00">cmd_handle.h</text>
</a>
</g>
</g>
<!-- Node9&#45;&gt;Node10 -->
<g id="edge13_Node000009_Node000010" class="edge">
<title>Node9&#45;&gt;Node10</title>
<g id="a_edge13_Node000009_Node000010"><a xlink:title=" ">
<path fill="none" stroke="#63b8ff" d="M227.82,-113.09C229.41,-106.39 231.58,-97.26 233.55,-88.98"/>
<polygon fill="#63b8ff" stroke="#63b8ff" points="236.94,-89.84 235.85,-79.3 230.13,-88.22 236.94,-89.84"/>
</a>
</g>
</g>
<!-- Node10&#45;&gt;Node3 -->
<g id="edge15_Node000010_Node000003" class="edge">
<title>Node10&#45;&gt;Node3</title>
<g id="a_edge15_Node000010_Node000003"><a xlink:title=" ">
<path fill="none" stroke="#63b8ff" d="M252.8,-56.34C264.52,-48.32 281.34,-36.81 295.03,-27.44"/>
<polygon fill="#63b8ff" stroke="#63b8ff" points="296.8,-30.47 303.07,-21.93 292.84,-24.69 296.8,-30.47"/>
</a>
</g>
</g>
<!-- Node10&#45;&gt;Node4 -->
<g id="edge17_Node000010_Node000004" class="edge">
<title>Node10&#45;&gt;Node4</title>
<g id="a_edge17_Node000010_Node000004"><a xlink:title=" ">
<path fill="none" stroke="#63b8ff" d="M203.46,-56.34C171.37,-47.37 123.65,-34.04 88.5,-24.23"/>
<polygon fill="#63b8ff" stroke="#63b8ff" points="89.6,-20.9 79.03,-21.58 87.71,-27.64 89.6,-20.9"/>
</a>
</g>
</g>
<!-- Node10&#45;&gt;Node6 -->
<g id="edge14_Node000010_Node000006" class="edge">
<title>Node10&#45;&gt;Node6</title>
<g id="a_edge14_Node000010_Node000006"><a xlink:title=" ">
<path fill="none" stroke="#63b8ff" d="M267.82,-56.34C295.02,-47.25 335.65,-33.69 365.16,-23.84"/>
<polygon fill="#63b8ff" stroke="#63b8ff" points="366.06,-27.23 374.44,-20.74 363.85,-20.59 366.06,-27.23"/>
</a>
</g>
</g>
<!-- Node11 -->
<g id="Node000011" class="node">
<title>Node11</title>
<g id="a_Node000011"><a xlink:title=" ">
<polygon fill="#e0e0e0" stroke="#999999" points="194,-20.75 103,-20.75 103,0 194,0 194,-20.75"/>
<text xml:space="preserve" text-anchor="middle" x="148.5" y="-7.25" font-family="Helvetica,sans-Serif" font-size="10.00">event_groups.h</text>
</a>
</g>
</g>
<!-- Node10&#45;&gt;Node11 -->
<g id="edge16_Node000010_Node000011" class="edge">
<title>Node10&#45;&gt;Node11</title>
<g id="a_edge16_Node000010_Node000011"><a xlink:title=" ">
<path fill="none" stroke="#63b8ff" d="M222.41,-56.34C208.97,-48.16 189.57,-36.36 174.01,-26.9"/>
<polygon fill="#63b8ff" stroke="#63b8ff" points="176.11,-24.07 165.74,-21.87 172.47,-30.05 176.11,-24.07"/>
</a>
</g>
</g>
<!-- Node12 -->
<g id="Node000012" class="node">
<title>Node12</title>
<g id="a_Node000012"><a xlink:title=" ">
<polygon fill="#e0e0e0" stroke="#999999" points="264.5,-20.75 212.5,-20.75 212.5,0 264.5,0 264.5,-20.75"/>
<text xml:space="preserve" text-anchor="middle" x="238.5" y="-7.25" font-family="Helvetica,sans-Serif" font-size="10.00">stdlib.h</text>
</a>
</g>
</g>
<!-- Node10&#45;&gt;Node12 -->
<g id="edge18_Node000010_Node000012" class="edge">
<title>Node10&#45;&gt;Node12</title>
<g id="a_edge18_Node000010_Node000012"><a xlink:title=" ">
<path fill="none" stroke="#63b8ff" d="M238.5,-56.34C238.5,-49.72 238.5,-40.72 238.5,-32.52"/>
<polygon fill="#63b8ff" stroke="#63b8ff" points="242,-32.59 238.5,-22.59 235,-32.59 242,-32.59"/>
</a>
</g>
</g>
<!-- Node13&#45;&gt;Node3 -->
<g id="edge23_Node000013_Node000003" class="edge">
<title>Node13&#45;&gt;Node3</title>
<g id="a_edge23_Node000013_Node000003"><a xlink:title=" ">
<path fill="none" stroke="#63b8ff" d="M318.5,-170.1C318.5,-143.73 318.5,-69.33 318.5,-32.53"/>
<polygon fill="#63b8ff" stroke="#63b8ff" points="322,-32.73 318.5,-22.73 315,-32.73 322,-32.73"/>
</a>
</g>
</g>
<!-- Node13&#45;&gt;Node6 -->
<g id="edge20_Node000013_Node000006" class="edge">
<title>Node13&#45;&gt;Node6</title>
<g id="a_edge20_Node000013_Node000006"><a xlink:title=" ">
<path fill="none" stroke="#63b8ff" d="M323.26,-170.1C336.59,-143.39 374.54,-67.37 392.65,-31.1"/>
<polygon fill="#63b8ff" stroke="#63b8ff" points="395.57,-33.08 396.91,-22.57 389.31,-29.96 395.57,-33.08"/>
</a>
</g>
</g>
<!-- Node13&#45;&gt;Node7 -->
<g id="edge21_Node000013_Node000007" class="edge">
<title>Node13&#45;&gt;Node7</title>
<g id="a_edge21_Node000013_Node000007"><a xlink:title=" ">
<path fill="none" stroke="#63b8ff" d="M365.01,-178.6C401.79,-175.31 452.02,-164.94 483.5,-134.25 495.59,-122.46 500.43,-103.65 502.34,-89.09"/>
<polygon fill="#63b8ff" stroke="#63b8ff" points="505.82,-89.47 503.23,-79.19 498.85,-88.84 505.82,-89.47"/>
</a>
</g>
</g>
<!-- Node13&#45;&gt;Node9 -->
<g id="edge22_Node000013_Node000009" class="edge">
<title>Node13&#45;&gt;Node9</title>
<g id="a_edge22_Node000013_Node000009"><a xlink:title=" ">
<path fill="none" stroke="#63b8ff" d="M301.87,-169.84C287.99,-161.66 267.94,-149.86 251.87,-140.4"/>
<polygon fill="#63b8ff" stroke="#63b8ff" points="253.68,-137.4 243.29,-135.35 250.13,-143.44 253.68,-137.4"/>
</a>
</g>
</g>
</g>
</svg>
