<?xml version="1.0" encoding="UTF-8" standalone="no"?>
<!DOCTYPE svg PUBLIC "-//W3C//DTD SVG 1.1//EN"
 "http://www.w3.org/Graphics/SVG/1.1/DTD/svg11.dtd">
<!-- Generated by graphviz version 14.1.4 (0)
 -->
<!-- Title: source/driver/tmc2209/tmc2209_core.h Pages: 1 -->
<svg width="556pt" height="155pt"
 viewBox="0.00 0.00 556.00 155.00" xmlns="http://www.w3.org/2000/svg" xmlns:xlink="http://www.w3.org/1999/xlink">
<g id="graph0" class="graph" transform="scale(1 1) rotate(0) translate(4 151)">
<title>source/driver/tmc2209/tmc2209_core.h</title>
<!-- Node1 -->
<g id="Node000001" class="node">
<title>Node1</title>
<g id="a_Node000001"><a xlink:title=" ">
<polygon fill="#999999" stroke="#666666" points="279.38,-147 153.88,-147 153.88,-113.5 279.38,-113.5 279.38,-147"/>
<text xml:space="preserve" text-anchor="start" x="161.88" y="-133.5" font-family="Helvetica,sans-Serif" font-size="10.00">source/driver/tmc2209</text>
<text xml:space="preserve" text-anchor="middle" x="216.62" y="-120.75" font-family="Helvetica,sans-Serif" font-size="10.00">/tmc2209_core.h</text>
</a>
</g>
</g>
<!-- Node2 -->
<g id="Node000002" class="node">
<title>Node2</title>
<g id="a_Node000002"><a xlink:href="tmc2209__shared_8h.html" target="_top" xlink:title=" ">
<polygon fill="white" stroke="#666666" points="129.62,-77.5 23.62,-77.5 23.62,-56.75 129.62,-56.75 129.62,-77.5"/>
<text xml:space="preserve" text-anchor="middle" x="76.62" y="-64" font-family="Helvetica,sans-Serif" font-size="10.00">tmc2209_shared.h</text>
</a>
</g>
</g>
<!-- Node1&#45;&gt;Node2 -->
<g id="edge1_Node000001_Node000002" class="edge">
<title>Node1&#45;&gt;Node2</title>
<g id="a_edge1_Node000001_Node000002"><a xlink:title=" ">
<path fill="none" stroke="#63b8ff" d="M179.48,-113.03C157.68,-103.51 130.38,-91.6 109.39,-82.43"/>
<polygon fill="#63b8ff" stroke="#63b8ff" points="111,-79.31 100.44,-78.52 108.2,-85.73 111,-79.31"/>
</a>
</g>
</g>
<!-- Node4 -->
<g id="Node000004" class="node">
<title>Node4</title>
<g id="a_Node000004"><a xlink:title=" ">
<polygon fill="#e0e0e0" stroke="#999999" points="208.12,-20.75 123.12,-20.75 123.12,0 208.12,0 208.12,-20.75"/>
<text xml:space="preserve" text-anchor="middle" x="165.62" y="-7.25" font-family="Helvetica,sans-Serif" font-size="10.00">fsl_common.h</text>
</a>
</g>
</g>
<!-- Node1&#45;&gt;Node4 -->
<g id="edge3_Node000001_Node000004" class="edge">
<title>Node1&#45;&gt;Node4</title>
<g id="a_edge3_Node000001_Node000004"><a xlink:title=" ">
<path fill="none" stroke="#63b8ff" d="M209.75,-113.35C200.58,-92.17 184.36,-54.68 174.35,-31.54"/>
<polygon fill="#63b8ff" stroke="#63b8ff" points="177.65,-30.36 170.47,-22.57 171.23,-33.14 177.65,-30.36"/>
</a>
</g>
</g>
<!-- Node5 -->
<g id="Node000005" class="node">
<title>Node5</title>
<g id="a_Node000005"><a xlink:href="cmd__handle_8h.html" target="_top" xlink:title=" ">
<polygon fill="white" stroke="#666666" points="294.75,-77.5 210.5,-77.5 210.5,-56.75 294.75,-56.75 294.75,-77.5"/>
<text xml:space="preserve" text-anchor="middle" x="252.62" y="-64" font-family="Helvetica,sans-Serif" font-size="10.00">cmd_handle.h</text>
</a>
</g>
</g>
<!-- Node1&#45;&gt;Node5 -->
<g id="edge4_Node000001_Node000005" class="edge">
<title>Node1&#45;&gt;Node5</title>
<g id="a_edge4_Node000001_Node000005"><a xlink:title=" ">
<path fill="none" stroke="#63b8ff" d="M226.08,-113.19C230.66,-105.42 236.2,-96.02 241.03,-87.82"/>
<polygon fill="#63b8ff" stroke="#63b8ff" points="244,-89.66 246.06,-79.27 237.97,-86.11 244,-89.66"/>
</a>
</g>
</g>
<!-- Node10 -->
<g id="Node000010" class="node">
<title>Node10</title>
<g id="a_Node000010"><a xlink:title=" ">
<polygon fill="#e0e0e0" stroke="#999999" points="392.5,-77.5 312.75,-77.5 312.75,-56.75 392.5,-56.75 392.5,-77.5"/>
<text xml:space="preserve" text-anchor="middle" x="352.62" y="-64" font-family="Helvetica,sans-Serif" font-size="10.00">peripherals.h</text>
</a>
</g>
</g>
<!-- Node1&#45;&gt;Node10 -->
<g id="edge10_Node000001_Node000010" class="edge">
<title>Node1&#45;&gt;Node10</title>
<g id="a_edge10_Node000001_Node000010"><a xlink:title=" ">
<path fill="none" stroke="#63b8ff" d="M252.71,-113.03C273.79,-103.56 300.16,-91.7 320.52,-82.56"/>
<polygon fill="#63b8ff" stroke="#63b8ff" points="321.78,-85.83 329.46,-78.54 318.91,-79.44 321.78,-85.83"/>
</a>
</g>
</g>
<!-- Node3 -->
<g id="Node000003" class="node">
<title>Node3</title>
<g id="a_Node000003"><a xlink:title=" ">
<polygon fill="#e0e0e0" stroke="#999999" points="105.25,-20.75 0,-20.75 0,0 105.25,0 105.25,-20.75"/>
<text xml:space="preserve" text-anchor="middle" x="52.62" y="-7.25" font-family="Helvetica,sans-Serif" font-size="10.00">fsl_uart_freertos.h</text>
</a>
</g>
</g>
<!-- Node2&#45;&gt;Node3 -->
<g id="edge2_Node000002_Node000003" class="edge">
<title>Node2&#45;&gt;Node3</title>
<g id="a_edge2_Node000002_Node000003"><a xlink:title=" ">
<path fill="none" stroke="#63b8ff" d="M72.33,-56.34C69.3,-49.41 65.12,-39.87 61.39,-31.36"/>
<polygon fill="#63b8ff" stroke="#63b8ff" points="64.71,-30.22 57.49,-22.46 58.3,-33.03 64.71,-30.22"/>
</a>
</g>
</g>
<!-- Node5&#45;&gt;Node4 -->
<g id="edge8_Node000005_Node000004" class="edge">
<title>Node5&#45;&gt;Node4</title>
<g id="a_edge8_Node000005_Node000004"><a xlink:title=" ">
<path fill="none" stroke="#63b8ff" d="M237.07,-56.34C224.2,-48.24 205.68,-36.58 190.72,-27.17"/>
<polygon fill="#63b8ff" stroke="#63b8ff" points="192.65,-24.25 182.33,-21.88 188.92,-30.17 192.65,-24.25"/>
</a>
</g>
</g>
<!-- Node6 -->
<g id="Node000006" class="node">
<title>Node6</title>
<g id="a_Node000006"><a xlink:title=" ">
<polygon fill="#e0e0e0" stroke="#999999" points="279,-20.75 226.25,-20.75 226.25,0 279,0 279,-20.75"/>
<text xml:space="preserve" text-anchor="middle" x="252.62" y="-7.25" font-family="Helvetica,sans-Serif" font-size="10.00">stdint.h</text>
</a>
</g>
</g>
<!-- Node5&#45;&gt;Node6 -->
<g id="edge5_Node000005_Node000006" class="edge">
<title>Node5&#45;&gt;Node6</title>
<g id="a_edge5_Node000005_Node000006"><a xlink:title=" ">
<path fill="none" stroke="#63b8ff" d="M252.62,-56.34C252.62,-49.72 252.62,-40.72 252.62,-32.52"/>
<polygon fill="#63b8ff" stroke="#63b8ff" points="256.13,-32.59 252.63,-22.59 249.13,-32.59 256.13,-32.59"/>
</a>
</g>
</g>
<!-- Node7 -->
<g id="Node000007" class="node">
<title>Node7</title>
<g id="a_Node000007"><a xlink:title=" ">
<polygon fill="#e0e0e0" stroke="#999999" points="368.38,-20.75 296.88,-20.75 296.88,0 368.38,0 368.38,-20.75"/>
<text xml:space="preserve" text-anchor="middle" x="332.62" y="-7.25" font-family="Helvetica,sans-Serif" font-size="10.00">FreeRTOS.h</text>
</a>
</g>
</g>
<!-- Node5&#45;&gt;Node7 -->
<g id="edge6_Node000005_Node000007" class="edge">
<title>Node5&#45;&gt;Node7</title>
<g id="a_edge6_Node000005_Node000007"><a xlink:title=" ">
<path fill="none" stroke="#63b8ff" d="M266.93,-56.34C278.64,-48.32 295.46,-36.81 309.15,-27.44"/>
<polygon fill="#63b8ff" stroke="#63b8ff" points="310.92,-30.47 317.2,-21.93 306.97,-24.69 310.92,-30.47"/>
</a>
</g>
</g>
<!-- Node8 -->
<g id="Node000008" class="node">
<title>Node8</title>
<g id="a_Node000008"><a xlink:title=" ">
<polygon fill="#e0e0e0" stroke="#999999" points="477.12,-20.75 386.12,-20.75 386.12,0 477.12,0 477.12,-20.75"/>
<text xml:space="preserve" text-anchor="middle" x="431.62" y="-7.25" font-family="Helvetica,sans-Serif" font-size="10.00">event_groups.h</text>
</a>
</g>
</g>
<!-- Node5&#45;&gt;Node8 -->
<g id="edge7_Node000005_Node000008" class="edge">
<title>Node5&#45;&gt;Node8</title>
<g id="a_edge7_Node000005_Node000008"><a xlink:title=" ">
<path fill="none" stroke="#63b8ff" d="M284.63,-56.34C313.68,-47.45 356.76,-34.27 388.78,-24.48"/>
<polygon fill="#63b8ff" stroke="#63b8ff" points="389.61,-27.89 398.15,-21.61 387.57,-21.19 389.61,-27.89"/>
</a>
</g>
</g>
<!-- Node9 -->
<g id="Node000009" class="node">
<title>Node9</title>
<g id="a_Node000009"><a xlink:title=" ">
<polygon fill="#e0e0e0" stroke="#999999" points="547.62,-20.75 495.62,-20.75 495.62,0 547.62,0 547.62,-20.75"/>
<text xml:space="preserve" text-anchor="middle" x="521.62" y="-7.25" font-family="Helvetica,sans-Serif" font-size="10.00">stdlib.h</text>
</a>
</g>
</g>
<!-- Node5&#45;&gt;Node9 -->
<g id="edge9_Node000005_Node000009" class="edge">
<title>Node5&#45;&gt;Node9</title>
<g id="a_edge9_Node000005_Node000009"><a xlink:title=" ">
<path fill="none" stroke="#63b8ff" d="M295.04,-58.27C347.83,-48.44 436.05,-31.79 484.24,-21.14"/>
<polygon fill="#63b8ff" stroke="#63b8ff" points="484.85,-24.59 493.83,-18.97 483.3,-17.77 484.85,-24.59"/>
</a>
</g>
</g>
</g>
</svg>
