<?xml version="1.0" encoding="UTF-8" standalone="no"?>
<!DOCTYPE svg PUBLIC "-//W3C//DTD SVG 1.1//EN"
 "http://www.w3.org/Graphics/SVG/1.1/DTD/svg11.dtd">
<!-- Generated by graphviz version 14.1.5 (0)
 -->
<!-- Title: source/driver/tmc2209/tmc2209_process.c Pages: 1 -->
<svg width="693pt" height="269pt"
 viewBox="0.00 0.00 693.00 269.00" xmlns="http://www.w3.org/2000/svg" xmlns:xlink="http://www.w3.org/1999/xlink">
<g id="graph0" class="graph" transform="scale(1 1) rotate(0) translate(4 264.5)">
<title>source/driver/tmc2209/tmc2209_process.c</title>
<!-- Node1 -->
<g id="Node000001" class="node">
<title>Node1</title>
<g id="a_Node000001"><a xlink:title=" ">
<polygon fill="#999999" stroke="#666666" points="385.25,-260.5 259.75,-260.5 259.75,-227 385.25,-227 385.25,-260.5"/>
<text xml:space="preserve" text-anchor="start" x="267.75" y="-247" font-family="Helvetica,sans-Serif" font-size="10.00">source/driver/tmc2209</text>
<text xml:space="preserve" text-anchor="middle" x="322.5" y="-234.25" font-family="Helvetica,sans-Serif" font-size="10.00">/tmc2209_process.c</text>
</a>
</g>
</g>
<!-- Node2 -->
<g id="Node000002" class="node">
<title>Node2</title>
<g id="a_Node000002"><a xlink:href="log_8h.html" target="_top" xlink:title=" ">
<polygon fill="white" stroke="#666666" points="179,-77.5 70,-77.5 70,-56.75 179,-56.75 179,-77.5"/>
<text xml:space="preserve" text-anchor="middle" x="124.5" y="-64" font-family="Helvetica,sans-Serif" font-size="10.00">infrastructure/log.h</text>
</a>
</g>
</g>
<!-- Node1&#45;&gt;Node2 -->
<g id="edge1_Node000001_Node000002" class="edge">
<title>Node1&#45;&gt;Node2</title>
<g id="a_edge1_Node000001_Node000002"><a xlink:title=" ">
<path fill="none" stroke="#63b8ff" d="M259.29,-234.53C208.14,-226.43 141.97,-212.18 125.5,-191 102.66,-161.63 110.47,-115.26 117.78,-88.68"/>
<polygon fill="#63b8ff" stroke="#63b8ff" points="121.12,-89.71 120.65,-79.13 114.42,-87.7 121.12,-89.71"/>
</a>
</g>
</g>
<!-- Node3 -->
<g id="Node000003" class="node">
<title>Node3</title>
<g id="a_Node000003"><a xlink:title=" ">
<polygon fill="#e0e0e0" stroke="#999999" points="354.25,-20.75 282.75,-20.75 282.75,0 354.25,0 354.25,-20.75"/>
<text xml:space="preserve" text-anchor="middle" x="318.5" y="-7.25" font-family="Helvetica,sans-Serif" font-size="10.00">FreeRTOS.h</text>
</a>
</g>
</g>
<!-- Node1&#45;&gt;Node3 -->
<g id="edge24_Node000001_Node000003" class="edge">
<title>Node1&#45;&gt;Node3</title>
<g id="a_edge24_Node000001_Node000003"><a xlink:title=" ">
<path fill="none" stroke="#63b8ff" d="M322.23,-226.85C321.52,-186.06 319.65,-77.74 318.86,-32.1"/>
<polygon fill="#63b8ff" stroke="#63b8ff" points="322.36,-32.23 318.69,-22.29 315.36,-32.35 322.36,-32.23"/>
</a>
</g>
</g>
<!-- Node5 -->
<g id="Node000005" class="node">
<title>Node5</title>
<g id="a_Node000005"><a xlink:href="tmc2209__process_8h.html" target="_top" xlink:title=" ">
<polygon fill="white" stroke="#666666" points="256.75,-191 146.25,-191 146.25,-170.25 256.75,-170.25 256.75,-191"/>
<text xml:space="preserve" text-anchor="middle" x="201.5" y="-177.5" font-family="Helvetica,sans-Serif" font-size="10.00">tmc2209_process.h</text>
</a>
</g>
</g>
<!-- Node1&#45;&gt;Node5 -->
<g id="edge4_Node000001_Node000005" class="edge">
<title>Node1&#45;&gt;Node5</title>
<g id="a_edge4_Node000001_Node000005"><a xlink:title=" ">
<path fill="none" stroke="#63b8ff" d="M290.39,-226.53C271.98,-217.23 249.04,-205.64 231.07,-196.56"/>
<polygon fill="#63b8ff" stroke="#63b8ff" points="232.73,-193.48 222.23,-192.1 229.58,-199.73 232.73,-193.48"/>
</a>
</g>
</g>
<!-- Node6 -->
<g id="Node000006" class="node">
<title>Node6</title>
<g id="a_Node000006"><a xlink:href="tmc2209__shared_8h.html" target="_top" xlink:title=" ">
<polygon fill="white" stroke="#666666" points="452.5,-77.5 346.5,-77.5 346.5,-56.75 452.5,-56.75 452.5,-77.5"/>
<text xml:space="preserve" text-anchor="middle" x="399.5" y="-64" font-family="Helvetica,sans-Serif" font-size="10.00">tmc2209_shared.h</text>
</a>
</g>
</g>
<!-- Node1&#45;&gt;Node6 -->
<g id="edge18_Node000001_Node000006" class="edge">
<title>Node1&#45;&gt;Node6</title>
<g id="a_edge18_Node000001_Node000006"><a xlink:title=" ">
<path fill="none" stroke="#63b8ff" d="M329.61,-226.63C343.72,-194.62 375.26,-123.1 390.67,-88.14"/>
<polygon fill="#63b8ff" stroke="#63b8ff" points="393.79,-89.74 394.63,-79.18 387.39,-86.92 393.79,-89.74"/>
</a>
</g>
</g>
<!-- Node9 -->
<g id="Node000009" class="node">
<title>Node9</title>
<g id="a_Node000009"><a xlink:href="cmd__handle_8h.html" target="_top" xlink:title=" ">
<polygon fill="white" stroke="#666666" points="281.62,-77.5 197.38,-77.5 197.38,-56.75 281.62,-56.75 281.62,-77.5"/>
<text xml:space="preserve" text-anchor="middle" x="239.5" y="-64" font-family="Helvetica,sans-Serif" font-size="10.00">cmd_handle.h</text>
</a>
</g>
</g>
<!-- Node1&#45;&gt;Node9 -->
<g id="edge26_Node000001_Node000009" class="edge">
<title>Node1&#45;&gt;Node9</title>
<g id="a_edge26_Node000001_Node000009"><a xlink:title=" ">
<path fill="none" stroke="#63b8ff" d="M259.47,-233.39C211.92,-224.89 152.42,-210.66 137.5,-191 107.27,-151.16 170.28,-106.46 210.15,-83.53"/>
<polygon fill="#63b8ff" stroke="#63b8ff" points="211.85,-86.59 218.87,-78.66 208.44,-80.47 211.85,-86.59"/>
</a>
</g>
</g>
<!-- Node12 -->
<g id="Node000012" class="node">
<title>Node12</title>
<g id="a_Node000012"><a xlink:href="tmc2209__internal_8h.html" target="_top" xlink:title=" ">
<polygon fill="white" stroke="#666666" points="294.75,-134.25 184.25,-134.25 184.25,-113.5 294.75,-113.5 294.75,-134.25"/>
<text xml:space="preserve" text-anchor="middle" x="239.5" y="-120.75" font-family="Helvetica,sans-Serif" font-size="10.00">tmc2209_internal.h</text>
</a>
</g>
</g>
<!-- Node1&#45;&gt;Node12 -->
<g id="edge19_Node000001_Node000012" class="edge">
<title>Node1&#45;&gt;Node12</title>
<g id="a_edge19_Node000001_Node000012"><a xlink:title=" ">
<path fill="none" stroke="#63b8ff" d="M311.31,-226.85C296.19,-205.38 269.27,-167.15 253.03,-144.1"/>
<polygon fill="#63b8ff" stroke="#63b8ff" points="255.9,-142.08 247.28,-135.92 250.17,-146.11 255.9,-142.08"/>
</a>
</g>
</g>
<!-- Node13 -->
<g id="Node000013" class="node">
<title>Node13</title>
<g id="a_Node000013"><a xlink:href="tmc2209__setup_8h.html" target="_top" xlink:title=" ">
<polygon fill="white" stroke="#666666" points="526.5,-134.25 426.5,-134.25 426.5,-113.5 526.5,-113.5 526.5,-134.25"/>
<text xml:space="preserve" text-anchor="middle" x="476.5" y="-120.75" font-family="Helvetica,sans-Serif" font-size="10.00">tmc2209_setup.h</text>
</a>
</g>
</g>
<!-- Node1&#45;&gt;Node13 -->
<g id="edge20_Node000001_Node000013" class="edge">
<title>Node1&#45;&gt;Node13</title>
<g id="a_edge20_Node000001_Node000013"><a xlink:title=" ">
<path fill="none" stroke="#63b8ff" d="M355.55,-226.62C373.2,-217.31 394.87,-204.73 412.5,-191 430.9,-176.66 449.13,-157.17 461.4,-143.07"/>
<polygon fill="#63b8ff" stroke="#63b8ff" points="463.74,-145.72 467.56,-135.84 458.41,-141.18 463.74,-145.72"/>
</a>
</g>
</g>
<!-- Node14 -->
<g id="Node000014" class="node">
<title>Node14</title>
<g id="a_Node000014"><a xlink:title=" ">
<polygon fill="#e0e0e0" stroke="#999999" points="685,-77.5 630,-77.5 630,-56.75 685,-56.75 685,-77.5"/>
<text xml:space="preserve" text-anchor="middle" x="657.5" y="-64" font-family="Helvetica,sans-Serif" font-size="10.00">queue.h</text>
</a>
</g>
</g>
<!-- Node1&#45;&gt;Node14 -->
<g id="edge25_Node000001_Node000014" class="edge">
<title>Node1&#45;&gt;Node14</title>
<g id="a_edge25_Node000001_Node000014"><a xlink:title=" ">
<path fill="none" stroke="#63b8ff" d="M385.74,-239.93C459.57,-233.06 579.9,-210.09 645.5,-134.25 656.13,-121.96 658.74,-103.49 658.92,-89.18"/>
<polygon fill="#63b8ff" stroke="#63b8ff" points="662.43,-89.35 658.63,-79.46 655.43,-89.56 662.43,-89.35"/>
</a>
</g>
</g>
<!-- Node15 -->
<g id="Node000015" class="node">
<title>Node15</title>
<g id="a_Node000015"><a xlink:href="cmd__dispatch_8h.html" target="_top" xlink:title=" ">
<polygon fill="white" stroke="#666666" points="636.75,-134.25 544.25,-134.25 544.25,-113.5 636.75,-113.5 636.75,-134.25"/>
<text xml:space="preserve" text-anchor="middle" x="590.5" y="-120.75" font-family="Helvetica,sans-Serif" font-size="10.00">cmd_dispatch.h</text>
</a>
</g>
</g>
<!-- Node1&#45;&gt;Node15 -->
<g id="edge27_Node000001_Node000015" class="edge">
<title>Node1&#45;&gt;Node15</title>
<g id="a_edge27_Node000001_Node000015"><a xlink:title=" ">
<path fill="none" stroke="#63b8ff" d="M359.2,-226.61C411.82,-203.46 507.88,-161.22 558.04,-139.15"/>
<polygon fill="#63b8ff" stroke="#63b8ff" points="559.18,-142.48 566.92,-135.25 556.36,-136.07 559.18,-142.48"/>
</a>
</g>
</g>
<!-- Node2&#45;&gt;Node3 -->
<g id="edge2_Node000002_Node000003" class="edge">
<title>Node2&#45;&gt;Node3</title>
<g id="a_edge2_Node000002_Node000003"><a xlink:title=" ">
<path fill="none" stroke="#63b8ff" d="M159.18,-56.34C190.95,-47.37 238.17,-34.04 272.97,-24.23"/>
<polygon fill="#63b8ff" stroke="#63b8ff" points="273.66,-27.67 282.33,-21.58 271.76,-20.93 273.66,-27.67"/>
</a>
</g>
</g>
<!-- Node4 -->
<g id="Node000004" class="node">
<title>Node4</title>
<g id="a_Node000004"><a xlink:title=" ">
<polygon fill="#e0e0e0" stroke="#999999" points="85,-20.75 0,-20.75 0,0 85,0 85,-20.75"/>
<text xml:space="preserve" text-anchor="middle" x="42.5" y="-7.25" font-family="Helvetica,sans-Serif" font-size="10.00">fsl_common.h</text>
</a>
</g>
</g>
<!-- Node2&#45;&gt;Node4 -->
<g id="edge3_Node000002_Node000004" class="edge">
<title>Node2&#45;&gt;Node4</title>
<g id="a_edge3_Node000002_Node000004"><a xlink:title=" ">
<path fill="none" stroke="#63b8ff" d="M109.84,-56.34C97.83,-48.32 80.59,-36.81 66.56,-27.44"/>
<polygon fill="#63b8ff" stroke="#63b8ff" points="68.55,-24.56 58.29,-21.92 64.66,-30.38 68.55,-24.56"/>
</a>
</g>
</g>
<!-- Node5&#45;&gt;Node4 -->
<g id="edge14_Node000005_Node000004" class="edge">
<title>Node5&#45;&gt;Node4</title>
<g id="a_edge14_Node000005_Node000004"><a xlink:title=" ">
<path fill="none" stroke="#63b8ff" d="M179.78,-169.8C148.58,-154.56 91.44,-122.25 60.5,-77.5 51.28,-64.16 46.78,-46.29 44.58,-32.48"/>
<polygon fill="#63b8ff" stroke="#63b8ff" points="48.07,-32.18 43.33,-22.7 41.12,-33.06 48.07,-32.18"/>
</a>
</g>
</g>
<!-- Node5&#45;&gt;Node6 -->
<g id="edge5_Node000005_Node000006" class="edge">
<title>Node5&#45;&gt;Node6</title>
<g id="a_edge5_Node000005_Node000006"><a xlink:title=" ">
<path fill="none" stroke="#63b8ff" d="M226.86,-169.87C247.89,-161.42 278.31,-148.37 303.5,-134.25 330.26,-119.25 358.99,-98.83 377.97,-84.67"/>
<polygon fill="#63b8ff" stroke="#63b8ff" points="379.86,-87.62 385.74,-78.81 375.65,-82.04 379.86,-87.62"/>
</a>
</g>
</g>
<!-- Node5&#45;&gt;Node9 -->
<g id="edge8_Node000005_Node000009" class="edge">
<title>Node5&#45;&gt;Node9</title>
<g id="a_edge8_Node000005_Node000009"><a xlink:title=" ">
<path fill="none" stroke="#63b8ff" d="M192.55,-169.94C181.56,-156.81 165.53,-132.79 175.5,-113.5 182.14,-100.64 194.3,-90.64 206.24,-83.34"/>
<polygon fill="#63b8ff" stroke="#63b8ff" points="207.75,-86.51 214.78,-78.58 204.34,-80.39 207.75,-86.51"/>
</a>
</g>
</g>
<!-- Node5&#45;&gt;Node12 -->
<g id="edge15_Node000005_Node000012" class="edge">
<title>Node5&#45;&gt;Node12</title>
<g id="a_edge15_Node000005_Node000012"><a xlink:title=" ">
<path fill="none" stroke="#63b8ff" d="M208.29,-169.84C213.27,-162.67 220.17,-152.73 226.22,-144.01"/>
<polygon fill="#63b8ff" stroke="#63b8ff" points="229.08,-146.03 231.9,-135.82 223.32,-142.04 229.08,-146.03"/>
</a>
</g>
</g>
<!-- Node7 -->
<g id="Node000007" class="node">
<title>Node7</title>
<g id="a_Node000007"><a xlink:title=" ">
<polygon fill="#e0e0e0" stroke="#999999" points="547.88,-20.75 495.12,-20.75 495.12,0 547.88,0 547.88,-20.75"/>
<text xml:space="preserve" text-anchor="middle" x="521.5" y="-7.25" font-family="Helvetica,sans-Serif" font-size="10.00">stdint.h</text>
</a>
</g>
</g>
<!-- Node6&#45;&gt;Node7 -->
<g id="edge6_Node000006_Node000007" class="edge">
<title>Node6&#45;&gt;Node7</title>
<g id="a_edge6_Node000006_Node000007"><a xlink:title=" ">
<path fill="none" stroke="#63b8ff" d="M421.31,-56.34C440.31,-47.81 468.1,-35.34 489.59,-25.69"/>
<polygon fill="#63b8ff" stroke="#63b8ff" points="490.81,-28.99 498.5,-21.7 487.94,-22.6 490.81,-28.99"/>
</a>
</g>
</g>
<!-- Node8 -->
<g id="Node000008" class="node">
<title>Node8</title>
<g id="a_Node000008"><a xlink:title=" ">
<polygon fill="#e0e0e0" stroke="#999999" points="477.12,-20.75 371.88,-20.75 371.88,0 477.12,0 477.12,-20.75"/>
<text xml:space="preserve" text-anchor="middle" x="424.5" y="-7.25" font-family="Helvetica,sans-Serif" font-size="10.00">fsl_uart_freertos.h</text>
</a>
</g>
</g>
<!-- Node6&#45;&gt;Node8 -->
<g id="edge7_Node000006_Node000008" class="edge">
<title>Node6&#45;&gt;Node8</title>
<g id="a_edge7_Node000006_Node000008"><a xlink:title=" ">
<path fill="none" stroke="#63b8ff" d="M403.97,-56.34C407.13,-49.41 411.49,-39.87 415.37,-31.36"/>
<polygon fill="#63b8ff" stroke="#63b8ff" points="418.47,-33.01 419.44,-22.46 412.1,-30.1 418.47,-33.01"/>
</a>
</g>
</g>
<!-- Node9&#45;&gt;Node3 -->
<g id="edge10_Node000009_Node000003" class="edge">
<title>Node9&#45;&gt;Node3</title>
<g id="a_edge10_Node000009_Node000003"><a xlink:title=" ">
<path fill="none" stroke="#63b8ff" d="M253.62,-56.34C265.19,-48.32 281.8,-36.81 295.32,-27.44"/>
<polygon fill="#63b8ff" stroke="#63b8ff" points="297.03,-30.51 303.25,-21.94 293.04,-24.76 297.03,-30.51"/>
</a>
</g>
</g>
<!-- Node9&#45;&gt;Node4 -->
<g id="edge12_Node000009_Node000004" class="edge">
<title>Node9&#45;&gt;Node4</title>
<g id="a_edge12_Node000009_Node000004"><a xlink:title=" ">
<path fill="none" stroke="#63b8ff" d="M204.28,-56.34C172.02,-47.37 124.07,-34.04 88.74,-24.23"/>
<polygon fill="#63b8ff" stroke="#63b8ff" points="89.78,-20.88 79.2,-21.58 87.9,-27.63 89.78,-20.88"/>
</a>
</g>
</g>
<!-- Node9&#45;&gt;Node7 -->
<g id="edge9_Node000009_Node000007" class="edge">
<title>Node9&#45;&gt;Node7</title>
<g id="a_edge9_Node000009_Node000007"><a xlink:title=" ">
<path fill="none" stroke="#63b8ff" d="M282.11,-59.36C329.19,-51.66 407.48,-38.15 483.59,-21.28"/>
<polygon fill="#63b8ff" stroke="#63b8ff" points="484.33,-24.7 493.32,-19.09 482.8,-17.87 484.33,-24.7"/>
</a>
</g>
</g>
<!-- Node10 -->
<g id="Node000010" class="node">
<title>Node10</title>
<g id="a_Node000010"><a xlink:title=" ">
<polygon fill="#e0e0e0" stroke="#999999" points="194,-20.75 103,-20.75 103,0 194,0 194,-20.75"/>
<text xml:space="preserve" text-anchor="middle" x="148.5" y="-7.25" font-family="Helvetica,sans-Serif" font-size="10.00">event_groups.h</text>
</a>
</g>
</g>
<!-- Node9&#45;&gt;Node10 -->
<g id="edge11_Node000009_Node000010" class="edge">
<title>Node9&#45;&gt;Node10</title>
<g id="a_edge11_Node000009_Node000010"><a xlink:title=" ">
<path fill="none" stroke="#63b8ff" d="M223.23,-56.34C209.64,-48.16 190.03,-36.36 174.3,-26.9"/>
<polygon fill="#63b8ff" stroke="#63b8ff" points="176.3,-24.02 165.93,-21.86 172.69,-30.01 176.3,-24.02"/>
</a>
</g>
</g>
<!-- Node11 -->
<g id="Node000011" class="node">
<title>Node11</title>
<g id="a_Node000011"><a xlink:title=" ">
<polygon fill="#e0e0e0" stroke="#999999" points="264.5,-20.75 212.5,-20.75 212.5,0 264.5,0 264.5,-20.75"/>
<text xml:space="preserve" text-anchor="middle" x="238.5" y="-7.25" font-family="Helvetica,sans-Serif" font-size="10.00">stdlib.h</text>
</a>
</g>
</g>
<!-- Node9&#45;&gt;Node11 -->
<g id="edge13_Node000009_Node000011" class="edge">
<title>Node9&#45;&gt;Node11</title>
<g id="a_edge13_Node000009_Node000011"><a xlink:title=" ">
<path fill="none" stroke="#63b8ff" d="M239.32,-56.34C239.2,-49.72 239.04,-40.72 238.89,-32.52"/>
<polygon fill="#63b8ff" stroke="#63b8ff" points="242.39,-32.53 238.7,-22.59 235.39,-32.65 242.39,-32.53"/>
</a>
</g>
</g>
<!-- Node12&#45;&gt;Node6 -->
<g id="edge16_Node000012_Node000006" class="edge">
<title>Node12&#45;&gt;Node6</title>
<g id="a_edge16_Node000012_Node000006"><a xlink:title=" ">
<path fill="none" stroke="#63b8ff" d="M268.1,-113.09C293.74,-104.32 331.57,-91.37 360.07,-81.62"/>
<polygon fill="#63b8ff" stroke="#63b8ff" points="361.11,-84.96 369.44,-78.41 358.85,-78.34 361.11,-84.96"/>
</a>
</g>
</g>
<!-- Node12&#45;&gt;Node9 -->
<g id="edge17_Node000012_Node000009" class="edge">
<title>Node12&#45;&gt;Node9</title>
<g id="a_edge17_Node000012_Node000009"><a xlink:title=" ">
<path fill="none" stroke="#63b8ff" d="M239.5,-113.09C239.5,-106.47 239.5,-97.47 239.5,-89.27"/>
<polygon fill="#63b8ff" stroke="#63b8ff" points="243,-89.34 239.5,-79.34 236,-89.34 243,-89.34"/>
</a>
</g>
</g>
<!-- Node13&#45;&gt;Node3 -->
<g id="edge22_Node000013_Node000003" class="edge">
<title>Node13&#45;&gt;Node3</title>
<g id="a_edge22_Node000013_Node000003"><a xlink:title=" ">
<path fill="none" stroke="#63b8ff" d="M477.1,-113.45C477.46,-99.29 476,-72.52 461.5,-56.75 454.73,-49.38 404.55,-34.51 365.52,-23.79"/>
<polygon fill="#63b8ff" stroke="#63b8ff" points="366.62,-20.47 356.06,-21.22 364.79,-27.22 366.62,-20.47"/>
</a>
</g>
</g>
<!-- Node13&#45;&gt;Node6 -->
<g id="edge23_Node000013_Node000006" class="edge">
<title>Node13&#45;&gt;Node6</title>
<g id="a_edge23_Node000013_Node000006"><a xlink:title=" ">
<path fill="none" stroke="#63b8ff" d="M462.73,-113.09C451.57,-105.15 435.58,-93.78 422.48,-84.46"/>
<polygon fill="#63b8ff" stroke="#63b8ff" points="424.56,-81.65 414.38,-78.71 420.5,-87.35 424.56,-81.65"/>
</a>
</g>
</g>
<!-- Node13&#45;&gt;Node7 -->
<g id="edge21_Node000013_Node000007" class="edge">
<title>Node13&#45;&gt;Node7</title>
<g id="a_edge21_Node000013_Node000007"><a xlink:title=" ">
<path fill="none" stroke="#63b8ff" d="M480.34,-113.37C487.61,-95.36 503.53,-55.89 513.31,-31.68"/>
<polygon fill="#63b8ff" stroke="#63b8ff" points="516.48,-33.16 516.98,-22.58 509.99,-30.54 516.48,-33.16"/>
</a>
</g>
</g>
<!-- Node15&#45;&gt;Node3 -->
<g id="edge29_Node000015_Node000003" class="edge">
<title>Node15&#45;&gt;Node3</title>
<g id="a_edge29_Node000015_Node000003"><a xlink:title=" ">
<path fill="none" stroke="#63b8ff" d="M577.05,-113.04C557.1,-98.84 518.06,-72.57 481.5,-56.75 460.74,-47.77 405.96,-33.17 365.61,-22.96"/>
<polygon fill="#63b8ff" stroke="#63b8ff" points="366.67,-19.62 356.12,-20.58 364.96,-26.41 366.67,-19.62"/>
</a>
</g>
</g>
<!-- Node15&#45;&gt;Node7 -->
<g id="edge28_Node000015_Node000007" class="edge">
<title>Node15&#45;&gt;Node7</title>
<g id="a_edge28_Node000015_Node000007"><a xlink:title=" ">
<path fill="none" stroke="#63b8ff" d="M589.21,-113.24C587.07,-99.75 581.82,-74.85 570.5,-56.75 563.68,-45.84 553.56,-35.86 544.29,-28.05"/>
<polygon fill="#63b8ff" stroke="#63b8ff" points="546.64,-25.45 536.63,-21.96 542.28,-30.93 546.64,-25.45"/>
</a>
</g>
</g>
<!-- Node15&#45;&gt;Node9 -->
<g id="edge31_Node000015_Node000009" class="edge">
<title>Node15&#45;&gt;Node9</title>
<g id="a_edge31_Node000015_Node000009"><a xlink:title=" ">
<path fill="none" stroke="#63b8ff" d="M544,-114.89C541.12,-114.42 538.27,-113.95 535.5,-113.5 450.82,-99.79 352.33,-84.91 293.02,-76.05"/>
<polygon fill="#63b8ff" stroke="#63b8ff" points="293.59,-72.6 283.19,-74.59 292.56,-79.52 293.59,-72.6"/>
</a>
</g>
</g>
<!-- Node15&#45;&gt;Node14 -->
<g id="edge30_Node000015_Node000014" class="edge">
<title>Node15&#45;&gt;Node14</title>
<g id="a_edge30_Node000015_Node000014"><a xlink:title=" ">
<path fill="none" stroke="#63b8ff" d="M602.48,-113.09C612.01,-105.3 625.56,-94.22 636.83,-85.01"/>
<polygon fill="#63b8ff" stroke="#63b8ff" points="638.92,-87.82 644.45,-78.79 634.5,-82.4 638.92,-87.82"/>
</a>
</g>
</g>
</g>
</svg>
