<?xml version="1.0" encoding="UTF-8" standalone="no"?>
<!DOCTYPE svg PUBLIC "-//W3C//DTD SVG 1.1//EN"
 "http://www.w3.org/Graphics/SVG/1.1/DTD/svg11.dtd">
<!-- Generated by graphviz version 14.1.5 (0)
 -->
<!-- Title: source/driver/tmc2209/tmc2209_shared.h Pages: 1 -->
<svg width="184pt" height="98pt"
 viewBox="0.00 0.00 184.00 98.00" xmlns="http://www.w3.org/2000/svg" xmlns:xlink="http://www.w3.org/1999/xlink">
<g id="graph0" class="graph" transform="scale(1 1) rotate(0) translate(4 94.25)">
<title>source/driver/tmc2209/tmc2209_shared.h</title>
<!-- Node1 -->
<g id="Node000001" class="node">
<title>Node1</title>
<g id="a_Node000001"><a xlink:title=" ">
<polygon fill="#999999" stroke="#666666" points="137.12,-90.25 11.62,-90.25 11.62,-56.75 137.12,-56.75 137.12,-90.25"/>
<text xml:space="preserve" text-anchor="start" x="19.62" y="-76.75" font-family="Helvetica,sans-Serif" font-size="10.00">source/driver/tmc2209</text>
<text xml:space="preserve" text-anchor="middle" x="74.38" y="-64" font-family="Helvetica,sans-Serif" font-size="10.00">/tmc2209_shared.h</text>
</a>
</g>
</g>
<!-- Node2 -->
<g id="Node000002" class="node">
<title>Node2</title>
<g id="a_Node000002"><a xlink:title=" ">
<polygon fill="#e0e0e0" stroke="#999999" points="52.75,-20.75 0,-20.75 0,0 52.75,0 52.75,-20.75"/>
<text xml:space="preserve" text-anchor="middle" x="26.38" y="-7.25" font-family="Helvetica,sans-Serif" font-size="10.00">stdint.h</text>
</a>
</g>
</g>
<!-- Node1&#45;&gt;Node2 -->
<g id="edge1_Node000001_Node000002" class="edge">
<title>Node1&#45;&gt;Node2</title>
<g id="a_edge1_Node000001_Node000002"><a xlink:title=" ">
<path fill="none" stroke="#63b8ff" d="M61.76,-56.44C55.45,-48.41 47.78,-38.63 41.19,-30.24"/>
<polygon fill="#63b8ff" stroke="#63b8ff" points="43.97,-28.11 35.04,-22.41 38.46,-32.43 43.97,-28.11"/>
</a>
</g>
</g>
<!-- Node3 -->
<g id="Node000003" class="node">
<title>Node3</title>
<g id="a_Node000003"><a xlink:title=" ">
<polygon fill="#e0e0e0" stroke="#999999" points="176,-20.75 70.75,-20.75 70.75,0 176,0 176,-20.75"/>
<text xml:space="preserve" text-anchor="middle" x="123.38" y="-7.25" font-family="Helvetica,sans-Serif" font-size="10.00">fsl_uart_freertos.h</text>
</a>
</g>
</g>
<!-- Node1&#45;&gt;Node3 -->
<g id="edge2_Node000001_Node000003" class="edge">
<title>Node1&#45;&gt;Node3</title>
<g id="a_edge2_Node000001_Node000003"><a xlink:title=" ">
<path fill="none" stroke="#63b8ff" d="M87.25,-56.44C93.76,-48.32 101.7,-38.42 108.47,-29.97"/>
<polygon fill="#63b8ff" stroke="#63b8ff" points="111.01,-32.39 114.54,-22.4 105.55,-28.01 111.01,-32.39"/>
</a>
</g>
</g>
</g>
</svg>
