<?xml version="1.0" encoding="UTF-8" standalone="no"?>
<!DOCTYPE svg PUBLIC "-//W3C//DTD SVG 1.1//EN"
 "http://www.w3.org/Graphics/SVG/1.1/DTD/svg11.dtd">
<!-- Generated by graphviz version 14.1.4 (0)
 -->
<!-- Title: source/driver/tmc2209/tmc2209_process.c Pages: 1 -->
<!--zoomable 269 -->

<svg id="main" version="1.1" xmlns="http://www.w3.org/2000/svg" xmlns:xlink="http://www.w3.org/1999/xlink" xml:space="preserve" onload="init(evt)">

<style type="text/css"><![CDATA[
.node, .edge {opacity: 0.7;}
.node.selected, .edge.selected {opacity: 1;}
.edge:hover path { stroke: red; }
.edge:hover polygon { stroke: red; fill: red; }
]]></style>

<defs>
  <circle id="rim" cx="0" cy="0" r="7"/>
  <circle id="rim2" cx="0" cy="0" r="3.5"/>
  <g id="zoomPlus">
    <use xlink:href="#rim" fill="#404040"><set attributeName="fill" to="#808080" begin="zoomplus.mouseover" end="zoomplus.mouseout"/></use>
    <path d="M-4,0h8M0,-4v8" fill="none" stroke="white" stroke-width="1.5" pointer-events="none"/>
  </g>
  <g id="zoomMin">
    <use xlink:href="#rim" fill="#404040"><set attributeName="fill" to="#808080" begin="zoomminus.mouseover" end="zoomminus.mouseout"/></use>
    <path d="M-4,0h8" fill="none" stroke="white" stroke-width="1.5" pointer-events="none"/>
  </g>
  <g id="arrowUp" transform="translate(30 24)">
    <use xlink:href="#rim"/>
    <path pointer-events="none" fill="none" stroke="white" stroke-width="1.5" d="M0,-3.0v7 M-2.5,-0.5L0,-3.0L2.5,-0.5"/>
  </g>
  <g id="arrowRight" transform="rotate(90) translate(36 -43)">
    <use xlink:href="#rim"/>
    <path pointer-events="none" fill="none" stroke="white" stroke-width="1.5" d="M0,-3.0v7 M-2.5,-0.5L0,-3.0L2.5,-0.5"/>
  </g>
  <g id="arrowDown" transform="rotate(180) translate(-30 -48)">
    <use xlink:href="#rim"/>
    <path pointer-events="none" fill="none" stroke="white" stroke-width="1.5" d="M0,-3.0v7 M-2.5,-0.5L0,-3.0L2.5,-0.5"/>
  </g>
  <g id="arrowLeft" transform="rotate(270) translate(-36 17)">
    <use xlink:href="#rim"/>
    <path pointer-events="none" fill="none" stroke="white" stroke-width="1.5" d="M0,-3.0v7 M-2.5,-0.5L0,-3.0L2.5,-0.5"/>
  </g>
  <g id="resetDef">
    <use xlink:href="#rim2" fill="#404040"><set attributeName="fill" to="#808080" begin="reset.mouseover" end="reset.mouseout"/></use>
  </g>
</defs>
<script type="application/ecmascript">
var viewWidth = 672;
var viewHeight = 269;
var sectionId = 'dynsection-0';
</script>
<script type="application/ecmascript" xlink:href="svg.min.js"/>
<svg id="graph" class="graph">
<g id="viewport">
<title>source/driver/tmc2209/tmc2209_process.c</title>
<!-- Node1 -->
<g id="Node000001" class="node">
<title>Node1</title>
<g id="a_Node000001"><a xlink:title=" ">
<polygon fill="#999999" stroke="#666666" points="473.75,-260.5 348.25,-260.5 348.25,-227 473.75,-227 473.75,-260.5"/>
<text xml:space="preserve" text-anchor="start" x="356.25" y="-247" font-family="Helvetica,sans-Serif" font-size="10.00">source/driver/tmc2209</text>
<text xml:space="preserve" text-anchor="middle" x="411" y="-234.25" font-family="Helvetica,sans-Serif" font-size="10.00">/tmc2209_process.c</text>
</a>
</g>
</g>
<!-- Node2 -->
<g id="Node000002" class="node">
<title>Node2</title>
<g id="a_Node000002"><a xlink:href="tmc2209__process_8h.html" target="_top" xlink:title=" ">
<polygon fill="white" stroke="#666666" points="222.25,-191 111.75,-191 111.75,-170.25 222.25,-170.25 222.25,-191"/>
<text xml:space="preserve" text-anchor="middle" x="167" y="-177.5" font-family="Helvetica,sans-Serif" font-size="10.00">tmc2209_process.h</text>
</a>
</g>
</g>
<!-- Node1&#45;&gt;Node2 -->
<g id="edge1_Node000001_Node000002" class="edge">
<title>Node1&#45;&gt;Node2</title>
<g id="a_edge1_Node000001_Node000002"><a xlink:title=" ">
<path fill="none" stroke="#63b8ff" d="M347.85,-226.93C307.11,-216.72 254.85,-203.63 217,-194.15"/>
<polygon fill="#63b8ff" stroke="#63b8ff" points="218.26,-190.86 207.71,-191.82 216.56,-197.65 218.26,-190.86"/>
</a>
</g>
</g>
<!-- Node3 -->
<g id="Node000003" class="node">
<title>Node3</title>
<g id="a_Node000003"><a xlink:href="tmc2209__shared_8h.html" target="_top" xlink:title=" ">
<polygon fill="white" stroke="#666666" points="106,-77.5 0,-77.5 0,-56.75 106,-56.75 106,-77.5"/>
<text xml:space="preserve" text-anchor="middle" x="53" y="-64" font-family="Helvetica,sans-Serif" font-size="10.00">tmc2209_shared.h</text>
</a>
</g>
</g>
<!-- Node1&#45;&gt;Node3 -->
<g id="edge14_Node000001_Node000003" class="edge">
<title>Node1&#45;&gt;Node3</title>
<g id="a_edge14_Node000001_Node000003"><a xlink:title=" ">
<path fill="none" stroke="#63b8ff" d="M347.77,-239.3C268.87,-233.8 139.82,-220.49 103,-191 71.36,-165.65 59.59,-117.06 55.33,-89.18"/>
<polygon fill="#63b8ff" stroke="#63b8ff" points="58.82,-88.94 54.05,-79.49 51.88,-89.86 58.82,-88.94"/>
</a>
</g>
</g>
<!-- Node5 -->
<g id="Node000005" class="node">
<title>Node5</title>
<g id="a_Node000005"><a xlink:href="cmd__handle_8h.html" target="_top" xlink:title=" ">
<polygon fill="white" stroke="#666666" points="375.12,-77.5 290.88,-77.5 290.88,-56.75 375.12,-56.75 375.12,-77.5"/>
<text xml:space="preserve" text-anchor="middle" x="333" y="-64" font-family="Helvetica,sans-Serif" font-size="10.00">cmd_handle.h</text>
</a>
</g>
</g>
<!-- Node1&#45;&gt;Node5 -->
<g id="edge21_Node000001_Node000005" class="edge">
<title>Node1&#45;&gt;Node5</title>
<g id="a_edge21_Node000001_Node000005"><a xlink:title=" ">
<path fill="none" stroke="#63b8ff" d="M400.85,-226.75C388.06,-206.06 366.07,-168.57 352,-134.25 345.96,-119.51 341.06,-102.18 337.74,-88.96"/>
<polygon fill="#63b8ff" stroke="#63b8ff" points="341.15,-88.15 335.42,-79.23 334.34,-89.77 341.15,-88.15"/>
</a>
</g>
</g>
<!-- Node7 -->
<g id="Node000007" class="node">
<title>Node7</title>
<g id="a_Node000007"><a xlink:title=" ">
<polygon fill="#e0e0e0" stroke="#999999" points="573.75,-20.75 502.25,-20.75 502.25,0 573.75,0 573.75,-20.75"/>
<text xml:space="preserve" text-anchor="middle" x="538" y="-7.25" font-family="Helvetica,sans-Serif" font-size="10.00">FreeRTOS.h</text>
</a>
</g>
</g>
<!-- Node1&#45;&gt;Node7 -->
<g id="edge19_Node000001_Node000007" class="edge">
<title>Node1&#45;&gt;Node7</title>
<g id="a_edge19_Node000001_Node000007"><a xlink:title=" ">
<path fill="none" stroke="#63b8ff" d="M473.84,-234.05C509.84,-226.83 554.55,-213.88 589,-191 616.05,-173.04 618.93,-162.46 635,-134.25 652.66,-103.24 676.2,-86.17 656,-56.75 640.09,-33.58 610.57,-22.24 585.04,-16.69"/>
<polygon fill="#63b8ff" stroke="#63b8ff" points="585.99,-13.31 575.51,-14.87 584.68,-20.18 585.99,-13.31"/>
</a>
</g>
</g>
<!-- Node11 -->
<g id="Node000011" class="node">
<title>Node11</title>
<g id="a_Node000011"><a xlink:href="tmc2209__internal_8h.html" target="_top" xlink:title=" ">
<polygon fill="white" stroke="#666666" points="305.25,-134.25 194.75,-134.25 194.75,-113.5 305.25,-113.5 305.25,-134.25"/>
<text xml:space="preserve" text-anchor="middle" x="250" y="-120.75" font-family="Helvetica,sans-Serif" font-size="10.00">tmc2209_internal.h</text>
</a>
</g>
</g>
<!-- Node1&#45;&gt;Node11 -->
<g id="edge15_Node000001_Node000011" class="edge">
<title>Node1&#45;&gt;Node11</title>
<g id="a_edge15_Node000001_Node000011"><a xlink:title=" ">
<path fill="none" stroke="#63b8ff" d="M377.84,-226.69C359.76,-217.31 337.4,-204.65 319,-191 299.54,-176.57 279.83,-157.09 266.49,-143.01"/>
<polygon fill="#63b8ff" stroke="#63b8ff" points="269.11,-140.69 259.74,-135.76 263.99,-145.46 269.11,-140.69"/>
</a>
</g>
</g>
<!-- Node12 -->
<g id="Node000012" class="node">
<title>Node12</title>
<g id="a_Node000012"><a xlink:href="tmc2209__setup_8h.html" target="_top" xlink:title=" ">
<polygon fill="white" stroke="#666666" points="461,-134.25 361,-134.25 361,-113.5 461,-113.5 461,-134.25"/>
<text xml:space="preserve" text-anchor="middle" x="411" y="-120.75" font-family="Helvetica,sans-Serif" font-size="10.00">tmc2209_setup.h</text>
</a>
</g>
</g>
<!-- Node1&#45;&gt;Node12 -->
<g id="edge16_Node000001_Node000012" class="edge">
<title>Node1&#45;&gt;Node12</title>
<g id="a_edge16_Node000001_Node000012"><a xlink:title=" ">
<path fill="none" stroke="#63b8ff" d="M411,-226.85C411,-205.96 411,-169.21 411,-146"/>
<polygon fill="#63b8ff" stroke="#63b8ff" points="414.5,-146.2 411,-136.2 407.5,-146.2 414.5,-146.2"/>
</a>
</g>
</g>
<!-- Node13 -->
<g id="Node000013" class="node">
<title>Node13</title>
<g id="a_Node000013"><a xlink:title=" ">
<polygon fill="#e0e0e0" stroke="#999999" points="646.5,-77.5 591.5,-77.5 591.5,-56.75 646.5,-56.75 646.5,-77.5"/>
<text xml:space="preserve" text-anchor="middle" x="619" y="-64" font-family="Helvetica,sans-Serif" font-size="10.00">queue.h</text>
</a>
</g>
</g>
<!-- Node1&#45;&gt;Node13 -->
<g id="edge20_Node000001_Node000013" class="edge">
<title>Node1&#45;&gt;Node13</title>
<g id="a_edge20_Node000001_Node000013"><a xlink:title=" ">
<path fill="none" stroke="#63b8ff" d="M474.24,-229.21C523.57,-214.88 588.5,-186.79 618,-134.25 625.66,-120.61 625.45,-102.75 623.57,-89.03"/>
<polygon fill="#63b8ff" stroke="#63b8ff" points="627.04,-88.55 621.83,-79.33 620.15,-89.79 627.04,-88.55"/>
</a>
</g>
</g>
<!-- Node14 -->
<g id="Node000014" class="node">
<title>Node14</title>
<g id="a_Node000014"><a xlink:href="log_8h.html" target="_top" xlink:title=" ">
<polygon fill="white" stroke="#666666" points="459,-77.5 419,-77.5 419,-56.75 459,-56.75 459,-77.5"/>
<text xml:space="preserve" text-anchor="middle" x="439" y="-64" font-family="Helvetica,sans-Serif" font-size="10.00">log.h</text>
</a>
</g>
</g>
<!-- Node1&#45;&gt;Node14 -->
<g id="edge22_Node000001_Node000014" class="edge">
<title>Node1&#45;&gt;Node14</title>
<g id="a_edge22_Node000001_Node000014"><a xlink:title=" ">
<path fill="none" stroke="#63b8ff" d="M423.21,-226.56C437.67,-206.26 460.96,-169.78 470,-134.25 472.27,-125.31 472.72,-122.31 470,-113.5 467.03,-103.89 461.24,-94.49 455.47,-86.77"/>
<polygon fill="#63b8ff" stroke="#63b8ff" points="458.33,-84.74 449.32,-79.17 452.89,-89.14 458.33,-84.74"/>
</a>
</g>
</g>
<!-- Node15 -->
<g id="Node000015" class="node">
<title>Node15</title>
<g id="a_Node000015"><a xlink:href="cmd__dispatch_8h.html" target="_top" xlink:title=" ">
<polygon fill="white" stroke="#666666" points="609.25,-134.25 516.75,-134.25 516.75,-113.5 609.25,-113.5 609.25,-134.25"/>
<text xml:space="preserve" text-anchor="middle" x="563" y="-120.75" font-family="Helvetica,sans-Serif" font-size="10.00">cmd_dispatch.h</text>
</a>
</g>
</g>
<!-- Node1&#45;&gt;Node15 -->
<g id="edge25_Node000001_Node000015" class="edge">
<title>Node1&#45;&gt;Node15</title>
<g id="a_edge25_Node000001_Node000015"><a xlink:title=" ">
<path fill="none" stroke="#63b8ff" d="M445.86,-226.51C463.81,-217.35 485.52,-204.94 503,-191 520.73,-176.87 537.78,-157.3 549.15,-143.12"/>
<polygon fill="#63b8ff" stroke="#63b8ff" points="551.71,-145.52 555.11,-135.49 546.19,-141.21 551.71,-145.52"/>
</a>
</g>
</g>
<!-- Node2&#45;&gt;Node3 -->
<g id="edge2_Node000002_Node000003" class="edge">
<title>Node2&#45;&gt;Node3</title>
<g id="a_edge2_Node000002_Node000003"><a xlink:title=" ">
<path fill="none" stroke="#63b8ff" d="M155.14,-169.86C144.4,-160.88 128.28,-147.06 115,-134.25 98.81,-118.62 81.36,-99.82 69.11,-86.27"/>
<polygon fill="#63b8ff" stroke="#63b8ff" points="71.83,-84.06 62.55,-78.95 66.62,-88.74 71.83,-84.06"/>
</a>
</g>
</g>
<!-- Node2&#45;&gt;Node5 -->
<g id="edge4_Node000002_Node000005" class="edge">
<title>Node2&#45;&gt;Node5</title>
<g id="a_edge4_Node000002_Node000005"><a xlink:title=" ">
<path fill="none" stroke="#63b8ff" d="M167.03,-170.13C167.6,-155.9 170.78,-129.02 186,-113.5 210.48,-88.53 248.37,-77.24 279.55,-72.16"/>
<polygon fill="#63b8ff" stroke="#63b8ff" points="279.8,-75.66 289.2,-70.77 278.8,-68.73 279.8,-75.66"/>
</a>
</g>
</g>
<!-- Node9 -->
<g id="Node000009" class="node">
<title>Node9</title>
<g id="a_Node000009"><a xlink:title=" ">
<polygon fill="#e0e0e0" stroke="#999999" points="413.5,-20.75 328.5,-20.75 328.5,0 413.5,0 413.5,-20.75"/>
<text xml:space="preserve" text-anchor="middle" x="371" y="-7.25" font-family="Helvetica,sans-Serif" font-size="10.00">fsl_common.h</text>
</a>
</g>
</g>
<!-- Node2&#45;&gt;Node9 -->
<g id="edge10_Node000002_Node000009" class="edge">
<title>Node2&#45;&gt;Node9</title>
<g id="a_edge10_Node000002_Node000009"><a xlink:title=" ">
<path fill="none" stroke="#63b8ff" d="M164.67,-170.2C161.86,-156.51 158.79,-130.88 170,-113.5 202.91,-62.5 269.7,-35.81 317.25,-22.7"/>
<polygon fill="#63b8ff" stroke="#63b8ff" points="318.04,-26.11 326.82,-20.18 316.26,-19.34 318.04,-26.11"/>
</a>
</g>
</g>
<!-- Node2&#45;&gt;Node11 -->
<g id="edge11_Node000002_Node000011" class="edge">
<title>Node2&#45;&gt;Node11</title>
<g id="a_edge11_Node000002_Node000011"><a xlink:title=" ">
<path fill="none" stroke="#63b8ff" d="M181.84,-169.84C194.11,-161.74 211.79,-150.08 226.06,-140.67"/>
<polygon fill="#63b8ff" stroke="#63b8ff" points="227.61,-143.84 234.03,-135.41 223.75,-138 227.61,-143.84"/>
</a>
</g>
</g>
<!-- Node4 -->
<g id="Node000004" class="node">
<title>Node4</title>
<g id="a_Node000004"><a xlink:title=" ">
<polygon fill="#e0e0e0" stroke="#999999" points="105.62,-20.75 0.38,-20.75 0.38,0 105.62,0 105.62,-20.75"/>
<text xml:space="preserve" text-anchor="middle" x="53" y="-7.25" font-family="Helvetica,sans-Serif" font-size="10.00">fsl_uart_freertos.h</text>
</a>
</g>
</g>
<!-- Node3&#45;&gt;Node4 -->
<g id="edge3_Node000003_Node000004" class="edge">
<title>Node3&#45;&gt;Node4</title>
<g id="a_edge3_Node000003_Node000004"><a xlink:title=" ">
<path fill="none" stroke="#63b8ff" d="M53,-56.34C53,-49.72 53,-40.72 53,-32.52"/>
<polygon fill="#63b8ff" stroke="#63b8ff" points="56.5,-32.59 53,-22.59 49.5,-32.59 56.5,-32.59"/>
</a>
</g>
</g>
<!-- Node6 -->
<g id="Node000006" class="node">
<title>Node6</title>
<g id="a_Node000006"><a xlink:title=" ">
<polygon fill="#e0e0e0" stroke="#999999" points="484.38,-20.75 431.62,-20.75 431.62,0 484.38,0 484.38,-20.75"/>
<text xml:space="preserve" text-anchor="middle" x="458" y="-7.25" font-family="Helvetica,sans-Serif" font-size="10.00">stdint.h</text>
</a>
</g>
</g>
<!-- Node5&#45;&gt;Node6 -->
<g id="edge5_Node000005_Node000006" class="edge">
<title>Node5&#45;&gt;Node6</title>
<g id="a_edge5_Node000005_Node000006"><a xlink:title=" ">
<path fill="none" stroke="#63b8ff" d="M355.35,-56.34C374.81,-47.81 403.29,-35.34 425.31,-25.69"/>
<polygon fill="#63b8ff" stroke="#63b8ff" points="426.7,-28.9 434.46,-21.69 423.9,-22.49 426.7,-28.9"/>
</a>
</g>
</g>
<!-- Node5&#45;&gt;Node7 -->
<g id="edge6_Node000005_Node000007" class="edge">
<title>Node5&#45;&gt;Node7</title>
<g id="a_edge6_Node000005_Node000007"><a xlink:title=" ">
<path fill="none" stroke="#63b8ff" d="M369.65,-56.34C403.57,-47.28 454.18,-33.76 491.04,-23.92"/>
<polygon fill="#63b8ff" stroke="#63b8ff" points="491.79,-27.34 500.55,-21.38 489.98,-20.58 491.79,-27.34"/>
</a>
</g>
</g>
<!-- Node8 -->
<g id="Node000008" class="node">
<title>Node8</title>
<g id="a_Node000008"><a xlink:title=" ">
<polygon fill="#e0e0e0" stroke="#999999" points="239.5,-20.75 148.5,-20.75 148.5,0 239.5,0 239.5,-20.75"/>
<text xml:space="preserve" text-anchor="middle" x="194" y="-7.25" font-family="Helvetica,sans-Serif" font-size="10.00">event_groups.h</text>
</a>
</g>
</g>
<!-- Node5&#45;&gt;Node8 -->
<g id="edge7_Node000005_Node000008" class="edge">
<title>Node5&#45;&gt;Node8</title>
<g id="a_edge7_Node000005_Node000008"><a xlink:title=" ">
<path fill="none" stroke="#63b8ff" d="M308.15,-56.34C286.11,-47.66 253.68,-34.88 229.02,-25.17"/>
<polygon fill="#63b8ff" stroke="#63b8ff" points="230.63,-22.04 220.04,-21.63 228.07,-28.55 230.63,-22.04"/>
</a>
</g>
</g>
<!-- Node5&#45;&gt;Node9 -->
<g id="edge8_Node000005_Node000009" class="edge">
<title>Node5&#45;&gt;Node9</title>
<g id="a_edge8_Node000005_Node000009"><a xlink:title=" ">
<path fill="none" stroke="#63b8ff" d="M339.79,-56.34C344.77,-49.17 351.67,-39.23 357.72,-30.51"/>
<polygon fill="#63b8ff" stroke="#63b8ff" points="360.58,-32.53 363.4,-22.32 354.82,-28.54 360.58,-32.53"/>
</a>
</g>
</g>
<!-- Node10 -->
<g id="Node000010" class="node">
<title>Node10</title>
<g id="a_Node000010"><a xlink:title=" ">
<polygon fill="#e0e0e0" stroke="#999999" points="310,-20.75 258,-20.75 258,0 310,0 310,-20.75"/>
<text xml:space="preserve" text-anchor="middle" x="284" y="-7.25" font-family="Helvetica,sans-Serif" font-size="10.00">stdlib.h</text>
</a>
</g>
</g>
<!-- Node5&#45;&gt;Node10 -->
<g id="edge9_Node000005_Node000010" class="edge">
<title>Node5&#45;&gt;Node10</title>
<g id="a_edge9_Node000005_Node000010"><a xlink:title=" ">
<path fill="none" stroke="#63b8ff" d="M324.24,-56.34C317.55,-48.86 308.15,-38.36 300.11,-29.38"/>
<polygon fill="#63b8ff" stroke="#63b8ff" points="302.97,-27.32 293.69,-22.21 297.75,-31.99 302.97,-27.32"/>
</a>
</g>
</g>
<!-- Node11&#45;&gt;Node3 -->
<g id="edge12_Node000011_Node000003" class="edge">
<title>Node11&#45;&gt;Node3</title>
<g id="a_edge12_Node000011_Node000003"><a xlink:title=" ">
<path fill="none" stroke="#63b8ff" d="M214.78,-113.09C182.52,-104.12 134.57,-90.79 99.24,-80.98"/>
<polygon fill="#63b8ff" stroke="#63b8ff" points="100.28,-77.63 89.7,-78.33 98.4,-84.38 100.28,-77.63"/>
</a>
</g>
</g>
<!-- Node11&#45;&gt;Node5 -->
<g id="edge13_Node000011_Node000005" class="edge">
<title>Node11&#45;&gt;Node5</title>
<g id="a_edge13_Node000011_Node000005"><a xlink:title=" ">
<path fill="none" stroke="#63b8ff" d="M264.84,-113.09C277.11,-104.99 294.79,-93.33 309.06,-83.92"/>
<polygon fill="#63b8ff" stroke="#63b8ff" points="310.61,-87.09 317.03,-78.66 306.75,-81.25 310.61,-87.09"/>
</a>
</g>
</g>
<!-- Node12&#45;&gt;Node3 -->
<g id="edge18_Node000012_Node000003" class="edge">
<title>Node12&#45;&gt;Node3</title>
<g id="a_edge18_Node000012_Node000003"><a xlink:title=" ">
<path fill="none" stroke="#63b8ff" d="M360.84,-115.2C297.23,-105.48 187.42,-88.68 117.59,-78"/>
<polygon fill="#63b8ff" stroke="#63b8ff" points="118.23,-74.56 107.81,-76.51 117.17,-81.48 118.23,-74.56"/>
</a>
</g>
</g>
<!-- Node12&#45;&gt;Node7 -->
<g id="edge17_Node000012_Node000007" class="edge">
<title>Node12&#45;&gt;Node7</title>
<g id="a_edge17_Node000012_Node000007"><a xlink:title=" ">
<path fill="none" stroke="#63b8ff" d="M423.93,-113.08C435.65,-104.09 453.29,-90.27 468,-77.5 486.23,-61.68 506.16,-42.67 520.08,-29.11"/>
<polygon fill="#63b8ff" stroke="#63b8ff" points="522.51,-31.62 527.2,-22.12 517.61,-26.63 522.51,-31.62"/>
</a>
</g>
</g>
<!-- Node14&#45;&gt;Node7 -->
<g id="edge23_Node000014_Node000007" class="edge">
<title>Node14&#45;&gt;Node7</title>
<g id="a_edge23_Node000014_Node000007"><a xlink:title=" ">
<path fill="none" stroke="#63b8ff" d="M456.7,-56.34C471.62,-48.08 493.23,-36.13 510.42,-26.63"/>
<polygon fill="#63b8ff" stroke="#63b8ff" points="512.07,-29.71 519.13,-21.81 508.68,-23.59 512.07,-29.71"/>
</a>
</g>
</g>
<!-- Node14&#45;&gt;Node9 -->
<g id="edge24_Node000014_Node000009" class="edge">
<title>Node14&#45;&gt;Node9</title>
<g id="a_edge24_Node000014_Node000009"><a xlink:title=" ">
<path fill="none" stroke="#63b8ff" d="M426.84,-56.34C417.17,-48.55 403.42,-37.47 391.98,-28.26"/>
<polygon fill="#63b8ff" stroke="#63b8ff" points="394.21,-25.57 384.23,-22.03 389.82,-31.03 394.21,-25.57"/>
</a>
</g>
</g>
<!-- Node15&#45;&gt;Node5 -->
<g id="edge29_Node000015_Node000005" class="edge">
<title>Node15&#45;&gt;Node5</title>
<g id="a_edge29_Node000015_Node000005"><a xlink:title=" ">
<path fill="none" stroke="#63b8ff" d="M521.61,-113.02C483.47,-103.94 426.68,-90.42 385.38,-80.59"/>
<polygon fill="#63b8ff" stroke="#63b8ff" points="386.45,-77.25 375.91,-78.34 384.83,-84.06 386.45,-77.25"/>
</a>
</g>
</g>
<!-- Node15&#45;&gt;Node6 -->
<g id="edge26_Node000015_Node000006" class="edge">
<title>Node15&#45;&gt;Node6</title>
<g id="a_edge26_Node000015_Node000006"><a xlink:title=" ">
<path fill="none" stroke="#63b8ff" d="M554.05,-113.37C536.55,-94.78 497.54,-53.36 474.99,-29.41"/>
<polygon fill="#63b8ff" stroke="#63b8ff" points="477.67,-27.16 468.27,-22.28 472.57,-31.96 477.67,-27.16"/>
</a>
</g>
</g>
<!-- Node15&#45;&gt;Node7 -->
<g id="edge27_Node000015_Node000007" class="edge">
<title>Node15&#45;&gt;Node7</title>
<g id="a_edge27_Node000015_Node000007"><a xlink:title=" ">
<path fill="none" stroke="#63b8ff" d="M560.87,-113.37C556.87,-95.52 548.14,-56.61 542.7,-32.34"/>
<polygon fill="#63b8ff" stroke="#63b8ff" points="546.13,-31.64 540.53,-22.65 539.3,-33.18 546.13,-31.64"/>
</a>
</g>
</g>
<!-- Node15&#45;&gt;Node13 -->
<g id="edge28_Node000015_Node000013" class="edge">
<title>Node15&#45;&gt;Node13</title>
<g id="a_edge28_Node000015_Node000013"><a xlink:title=" ">
<path fill="none" stroke="#63b8ff" d="M573.01,-113.09C580.74,-105.53 591.63,-94.89 600.87,-85.85"/>
<polygon fill="#63b8ff" stroke="#63b8ff" points="603.29,-88.38 607.99,-78.89 598.4,-83.37 603.29,-88.38"/>
</a>
</g>
</g>
</g>
</svg>

<g id="navigator" transform="translate(0 0)" fill="#404254">
  <rect fill="#f2f5e9" fill-opacity="0.5" stroke="#606060" stroke-width=".5" x="0" y="0" width="60" height="60"/>
  <use id="zoomplus" xlink:href="#zoomPlus" x="17" y="9" onmousedown="handleZoom(evt,'in')"/>
  <use id="zoomminus" xlink:href="#zoomMin" x="42" y="9" onmousedown="handleZoom(evt,'out')"/>
  <use id="reset" xlink:href="#resetDef" x="30" y="36" onmousedown="handleReset()"/>
   <use id="arrowup" xlink:href="#arrowUp" x="0" y="0" onmousedown="handlePan(0,-1)"/>
  <use id="arrowright" xlink:href="#arrowRight" x="0" y="0" onmousedown="handlePan(1,0)"/>
  <use id="arrowdown" xlink:href="#arrowDown" x="0" y="0" onmousedown="handlePan(0,1)"/>
  <use id="arrowleft" xlink:href="#arrowLeft" x="0" y="0" onmousedown="handlePan(-1,0)"/>
</g>
<svg viewBox="0 0 15 15" width="100%" height="30px" preserveAspectRatio="xMaxYMin meet">
 <g id="arrow_out" transform="scale(0.3 0.3)">
  <a xlink:href="tmc2209__process_8c__incl_org.svg" target="_base">
   <rect id="button" ry="5" rx="5" y="6" x="6" height="38" width="38"
        fill="#f2f5e9" fill-opacity="0.5" stroke="#606060" stroke-width="1.0"/>
   <path id="arrow"
     d="M 11.500037,31.436501 C 11.940474,20.09759 22.043105,11.32322 32.158766,21.979434 L 37.068811,17.246167 C 37.068811,17.246167 37.088388,32 37.088388,32 L 22.160133,31.978069 C 22.160133,31.978069 26.997745,27.140456 26.997745,27.140456 C 18.528582,18.264221 13.291696,25.230495 11.500037,31.436501 z"
     style="fill:#404040;"/>
  </a>
 </g>
</svg>

<style type='text/css'>
<![CDATA[
[data-mouse-over-selected='false'] { opacity: 0.7; }
[data-mouse-over-selected='true']  { opacity: 1.0; }
]]>
</style>
<script type="application/ecmascript"><![CDATA[
document.addEventListener('DOMContentLoaded', (event) => {
  highlightEdges();
  highlightAdjacentNodes();
});
]]></script>
</svg>
