<?xml version="1.0" encoding="UTF-8" standalone="no"?>
<!DOCTYPE svg PUBLIC "-//W3C//DTD SVG 1.1//EN"
 "http://www.w3.org/Graphics/SVG/1.1/DTD/svg11.dtd">
<!-- Generated by graphviz version 14.1.4 (0)
 -->
<!-- Title: source/driver/tmc2209/tmc2209_setup.c Pages: 1 -->
<!--zoomable 269 -->

<svg id="main" version="1.1" xmlns="http://www.w3.org/2000/svg" xmlns:xlink="http://www.w3.org/1999/xlink" xml:space="preserve" onload="init(evt)">

<style type="text/css"><![CDATA[
.node, .edge {opacity: 0.7;}
.node.selected, .edge.selected {opacity: 1;}
.edge:hover path { stroke: red; }
.edge:hover polygon { stroke: red; fill: red; }
]]></style>

<defs>
  <circle id="rim" cx="0" cy="0" r="7"/>
  <circle id="rim2" cx="0" cy="0" r="3.5"/>
  <g id="zoomPlus">
    <use xlink:href="#rim" fill="#404040"><set attributeName="fill" to="#808080" begin="zoomplus.mouseover" end="zoomplus.mouseout"/></use>
    <path d="M-4,0h8M0,-4v8" fill="none" stroke="white" stroke-width="1.5" pointer-events="none"/>
  </g>
  <g id="zoomMin">
    <use xlink:href="#rim" fill="#404040"><set attributeName="fill" to="#808080" begin="zoomminus.mouseover" end="zoomminus.mouseout"/></use>
    <path d="M-4,0h8" fill="none" stroke="white" stroke-width="1.5" pointer-events="none"/>
  </g>
  <g id="arrowUp" transform="translate(30 24)">
    <use xlink:href="#rim"/>
    <path pointer-events="none" fill="none" stroke="white" stroke-width="1.5" d="M0,-3.0v7 M-2.5,-0.5L0,-3.0L2.5,-0.5"/>
  </g>
  <g id="arrowRight" transform="rotate(90) translate(36 -43)">
    <use xlink:href="#rim"/>
    <path pointer-events="none" fill="none" stroke="white" stroke-width="1.5" d="M0,-3.0v7 M-2.5,-0.5L0,-3.0L2.5,-0.5"/>
  </g>
  <g id="arrowDown" transform="rotate(180) translate(-30 -48)">
    <use xlink:href="#rim"/>
    <path pointer-events="none" fill="none" stroke="white" stroke-width="1.5" d="M0,-3.0v7 M-2.5,-0.5L0,-3.0L2.5,-0.5"/>
  </g>
  <g id="arrowLeft" transform="rotate(270) translate(-36 17)">
    <use xlink:href="#rim"/>
    <path pointer-events="none" fill="none" stroke="white" stroke-width="1.5" d="M0,-3.0v7 M-2.5,-0.5L0,-3.0L2.5,-0.5"/>
  </g>
  <g id="resetDef">
    <use xlink:href="#rim2" fill="#404040"><set attributeName="fill" to="#808080" begin="reset.mouseover" end="reset.mouseout"/></use>
  </g>
</defs>
<script type="application/ecmascript">
var viewWidth = 611;
var viewHeight = 269;
var sectionId = 'dynsection-0';
</script>
<script type="application/ecmascript" xlink:href="svg.min.js"/>
<svg id="graph" class="graph">
<g id="viewport">
<title>source/driver/tmc2209/tmc2209_setup.c</title>
<!-- Node1 -->
<g id="Node000001" class="node">
<title>Node1</title>
<g id="a_Node000001"><a xlink:title=" ">
<polygon fill="#999999" stroke="#666666" points="424.12,-260.5 298.62,-260.5 298.62,-227 424.12,-227 424.12,-260.5"/>
<text xml:space="preserve" text-anchor="start" x="306.62" y="-247" font-family="Helvetica,sans-Serif" font-size="10.00">source/driver/tmc2209</text>
<text xml:space="preserve" text-anchor="middle" x="361.38" y="-234.25" font-family="Helvetica,sans-Serif" font-size="10.00">/tmc2209_setup.c</text>
</a>
</g>
</g>
<!-- Node2 -->
<g id="Node000002" class="node">
<title>Node2</title>
<g id="a_Node000002"><a xlink:href="tmc2209__setup_8h.html" target="_top" xlink:title=" ">
<polygon fill="white" stroke="#666666" points="411.38,-134.25 311.38,-134.25 311.38,-113.5 411.38,-113.5 411.38,-134.25"/>
<text xml:space="preserve" text-anchor="middle" x="361.38" y="-120.75" font-family="Helvetica,sans-Serif" font-size="10.00">tmc2209_setup.h</text>
</a>
</g>
</g>
<!-- Node1&#45;&gt;Node2 -->
<g id="edge1_Node000001_Node000002" class="edge">
<title>Node1&#45;&gt;Node2</title>
<g id="a_edge1_Node000001_Node000002"><a xlink:title=" ">
<path fill="none" stroke="#63b8ff" d="M361.38,-226.85C361.38,-205.96 361.38,-169.21 361.38,-146"/>
<polygon fill="#63b8ff" stroke="#63b8ff" points="364.88,-146.2 361.38,-136.2 357.88,-146.2 364.88,-146.2"/>
</a>
</g>
</g>
<!-- Node4 -->
<g id="Node000004" class="node">
<title>Node4</title>
<g id="a_Node000004"><a xlink:href="tmc2209__shared_8h.html" target="_top" xlink:title=" ">
<polygon fill="white" stroke="#666666" points="336.38,-77.5 230.38,-77.5 230.38,-56.75 336.38,-56.75 336.38,-77.5"/>
<text xml:space="preserve" text-anchor="middle" x="283.38" y="-64" font-family="Helvetica,sans-Serif" font-size="10.00">tmc2209_shared.h</text>
</a>
</g>
</g>
<!-- Node1&#45;&gt;Node4 -->
<g id="edge5_Node000001_Node000004" class="edge">
<title>Node1&#45;&gt;Node4</title>
<g id="a_edge5_Node000001_Node000004"><a xlink:title=" ">
<path fill="none" stroke="#63b8ff" d="M351.23,-226.75C338.44,-206.06 316.44,-168.57 302.38,-134.25 296.33,-119.51 291.43,-102.18 288.12,-88.96"/>
<polygon fill="#63b8ff" stroke="#63b8ff" points="291.52,-88.15 285.8,-79.23 284.72,-89.77 291.52,-88.15"/>
</a>
</g>
</g>
<!-- Node6 -->
<g id="Node000006" class="node">
<title>Node6</title>
<g id="a_Node000006"><a xlink:href="tmc2209__internal_8h.html" target="_top" xlink:title=" ">
<polygon fill="white" stroke="#666666" points="217.62,-134.25 107.12,-134.25 107.12,-113.5 217.62,-113.5 217.62,-134.25"/>
<text xml:space="preserve" text-anchor="middle" x="162.38" y="-120.75" font-family="Helvetica,sans-Serif" font-size="10.00">tmc2209_internal.h</text>
</a>
</g>
</g>
<!-- Node1&#45;&gt;Node6 -->
<g id="edge6_Node000001_Node000006" class="edge">
<title>Node1&#45;&gt;Node6</title>
<g id="a_edge6_Node000001_Node000006"><a xlink:title=" ">
<path fill="none" stroke="#63b8ff" d="M298.13,-233.72C248.51,-225.25 185.13,-210.91 168.38,-191 158.04,-178.72 157.17,-160.24 158.53,-145.94"/>
<polygon fill="#63b8ff" stroke="#63b8ff" points="161.97,-146.59 159.9,-136.2 155.04,-145.61 161.97,-146.59"/>
</a>
</g>
</g>
<!-- Node10 -->
<g id="Node000010" class="node">
<title>Node10</title>
<g id="a_Node000010"><a xlink:title=" ">
<polygon fill="#e0e0e0" stroke="#999999" points="547.88,-20.75 462.88,-20.75 462.88,0 547.88,0 547.88,-20.75"/>
<text xml:space="preserve" text-anchor="middle" x="505.38" y="-7.25" font-family="Helvetica,sans-Serif" font-size="10.00">fsl_common.h</text>
</a>
</g>
</g>
<!-- Node1&#45;&gt;Node10 -->
<g id="edge20_Node000001_Node000010" class="edge">
<title>Node1&#45;&gt;Node10</title>
<g id="a_edge20_Node000001_Node000010"><a xlink:title=" ">
<path fill="none" stroke="#63b8ff" d="M388.87,-226.67C403.39,-217.37 420.94,-204.8 434.38,-191 476.05,-148.2 490.45,-135.08 506.38,-77.5 510.46,-62.74 510.01,-45.41 508.65,-32.2"/>
<polygon fill="#63b8ff" stroke="#63b8ff" points="512.15,-31.97 507.38,-22.51 505.21,-32.88 512.15,-31.97"/>
</a>
</g>
</g>
<!-- Node12 -->
<g id="Node000012" class="node">
<title>Node12</title>
<g id="a_Node000012"><a xlink:href="tmc2209__uart_8h.html" target="_top" xlink:title=" ">
<polygon fill="white" stroke="#666666" points="269.62,-191 177.12,-191 177.12,-170.25 269.62,-170.25 269.62,-191"/>
<text xml:space="preserve" text-anchor="middle" x="223.38" y="-177.5" font-family="Helvetica,sans-Serif" font-size="10.00">tmc2209_uart.h</text>
</a>
</g>
</g>
<!-- Node1&#45;&gt;Node12 -->
<g id="edge14_Node000001_Node000012" class="edge">
<title>Node1&#45;&gt;Node12</title>
<g id="a_edge14_Node000001_Node000012"><a xlink:title=" ">
<path fill="none" stroke="#63b8ff" d="M324.76,-226.53C303.37,-217.06 276.61,-205.2 255.96,-196.06"/>
<polygon fill="#63b8ff" stroke="#63b8ff" points="257.42,-192.88 246.86,-192.03 254.59,-199.28 257.42,-192.88"/>
</a>
</g>
</g>
<!-- Node13 -->
<g id="Node000013" class="node">
<title>Node13</title>
<g id="a_Node000013"><a xlink:title=" ">
<polygon fill="#e0e0e0" stroke="#999999" points="602.88,-191 553.88,-191 553.88,-170.25 602.88,-170.25 602.88,-191"/>
<text xml:space="preserve" text-anchor="middle" x="578.38" y="-177.5" font-family="Helvetica,sans-Serif" font-size="10.00">stdio.h</text>
</a>
</g>
</g>
<!-- Node1&#45;&gt;Node13 -->
<g id="edge19_Node000001_Node000013" class="edge">
<title>Node1&#45;&gt;Node13</title>
<g id="a_edge19_Node000001_Node000013"><a xlink:title=" ">
<path fill="none" stroke="#63b8ff" d="M418.96,-226.53C458.33,-215.44 509.27,-201.09 542.84,-191.64"/>
<polygon fill="#63b8ff" stroke="#63b8ff" points="543.38,-195.12 552.06,-189.04 541.48,-188.38 543.38,-195.12"/>
</a>
</g>
</g>
<!-- Node14 -->
<g id="Node000014" class="node">
<title>Node14</title>
<g id="a_Node000014"><a xlink:href="log_8h.html" target="_top" xlink:title=" ">
<polygon fill="white" stroke="#666666" points="497.38,-77.5 457.38,-77.5 457.38,-56.75 497.38,-56.75 497.38,-77.5"/>
<text xml:space="preserve" text-anchor="middle" x="477.38" y="-64" font-family="Helvetica,sans-Serif" font-size="10.00">log.h</text>
</a>
</g>
</g>
<!-- Node1&#45;&gt;Node14 -->
<g id="edge21_Node000001_Node000014" class="edge">
<title>Node1&#45;&gt;Node14</title>
<g id="a_edge21_Node000001_Node000014"><a xlink:title=" ">
<path fill="none" stroke="#63b8ff" d="M378.41,-226.54C398.65,-206.5 432.31,-170.57 453.38,-134.25 461.73,-119.85 467.99,-102.05 472.02,-88.54"/>
<polygon fill="#63b8ff" stroke="#63b8ff" points="475.36,-89.59 474.68,-79.02 468.62,-87.71 475.36,-89.59"/>
</a>
</g>
</g>
<!-- Node3 -->
<g id="Node000003" class="node">
<title>Node3</title>
<g id="a_Node000003"><a xlink:title=" ">
<polygon fill="#e0e0e0" stroke="#999999" points="445.12,-20.75 373.62,-20.75 373.62,0 445.12,0 445.12,-20.75"/>
<text xml:space="preserve" text-anchor="middle" x="409.38" y="-7.25" font-family="Helvetica,sans-Serif" font-size="10.00">FreeRTOS.h</text>
</a>
</g>
</g>
<!-- Node2&#45;&gt;Node3 -->
<g id="edge2_Node000002_Node000003" class="edge">
<title>Node2&#45;&gt;Node3</title>
<g id="a_edge2_Node000002_Node000003"><a xlink:title=" ">
<path fill="none" stroke="#63b8ff" d="M365.47,-113.37C373.22,-95.36 390.21,-55.89 400.63,-31.68"/>
<polygon fill="#63b8ff" stroke="#63b8ff" points="403.82,-33.13 404.56,-22.57 397.39,-30.37 403.82,-33.13"/>
</a>
</g>
</g>
<!-- Node2&#45;&gt;Node4 -->
<g id="edge3_Node000002_Node000004" class="edge">
<title>Node2&#45;&gt;Node4</title>
<g id="a_edge3_Node000002_Node000004"><a xlink:title=" ">
<path fill="none" stroke="#63b8ff" d="M347.43,-113.09C336.01,-105.07 319.61,-93.56 306.26,-84.19"/>
<polygon fill="#63b8ff" stroke="#63b8ff" points="308.63,-81.58 298.44,-78.7 304.61,-87.31 308.63,-81.58"/>
</a>
</g>
</g>
<!-- Node5 -->
<g id="Node000005" class="node">
<title>Node5</title>
<g id="a_Node000005"><a xlink:title=" ">
<polygon fill="#e0e0e0" stroke="#999999" points="356,-20.75 250.75,-20.75 250.75,0 356,0 356,-20.75"/>
<text xml:space="preserve" text-anchor="middle" x="303.38" y="-7.25" font-family="Helvetica,sans-Serif" font-size="10.00">fsl_uart_freertos.h</text>
</a>
</g>
</g>
<!-- Node4&#45;&gt;Node5 -->
<g id="edge4_Node000004_Node000005" class="edge">
<title>Node4&#45;&gt;Node5</title>
<g id="a_edge4_Node000004_Node000005"><a xlink:title=" ">
<path fill="none" stroke="#63b8ff" d="M286.95,-56.34C289.45,-49.49 292.89,-40.09 295.97,-31.65"/>
<polygon fill="#63b8ff" stroke="#63b8ff" points="299.17,-33.09 299.31,-22.5 292.59,-30.69 299.17,-33.09"/>
</a>
</g>
</g>
<!-- Node6&#45;&gt;Node4 -->
<g id="edge7_Node000006_Node000004" class="edge">
<title>Node6&#45;&gt;Node4</title>
<g id="a_edge7_Node000006_Node000004"><a xlink:title=" ">
<path fill="none" stroke="#63b8ff" d="M184.01,-113.09C202.85,-104.56 230.41,-92.09 251.73,-82.44"/>
<polygon fill="#63b8ff" stroke="#63b8ff" points="252.88,-85.76 260.55,-78.45 250,-79.39 252.88,-85.76"/>
</a>
</g>
</g>
<!-- Node7 -->
<g id="Node000007" class="node">
<title>Node7</title>
<g id="a_Node000007"><a xlink:href="cmd__handle_8h.html" target="_top" xlink:title=" ">
<polygon fill="white" stroke="#666666" points="208.5,-77.5 124.25,-77.5 124.25,-56.75 208.5,-56.75 208.5,-77.5"/>
<text xml:space="preserve" text-anchor="middle" x="166.38" y="-64" font-family="Helvetica,sans-Serif" font-size="10.00">cmd_handle.h</text>
</a>
</g>
</g>
<!-- Node6&#45;&gt;Node7 -->
<g id="edge8_Node000006_Node000007" class="edge">
<title>Node6&#45;&gt;Node7</title>
<g id="a_edge8_Node000006_Node000007"><a xlink:title=" ">
<path fill="none" stroke="#63b8ff" d="M163.09,-113.09C163.57,-106.47 164.23,-97.47 164.83,-89.27"/>
<polygon fill="#63b8ff" stroke="#63b8ff" points="168.32,-89.57 165.56,-79.34 161.34,-89.06 168.32,-89.57"/>
</a>
</g>
</g>
<!-- Node7&#45;&gt;Node3 -->
<g id="edge10_Node000007_Node000003" class="edge">
<title>Node7&#45;&gt;Node3</title>
<g id="a_edge10_Node000007_Node000003"><a xlink:title=" ">
<path fill="none" stroke="#63b8ff" d="M208.98,-56.53C251.8,-46.88 317.67,-32.04 362.08,-22.03"/>
<polygon fill="#63b8ff" stroke="#63b8ff" points="362.7,-25.48 371.69,-19.87 361.16,-18.65 362.7,-25.48"/>
</a>
</g>
</g>
<!-- Node8 -->
<g id="Node000008" class="node">
<title>Node8</title>
<g id="a_Node000008"><a xlink:title=" ">
<polygon fill="#e0e0e0" stroke="#999999" points="52.75,-20.75 0,-20.75 0,0 52.75,0 52.75,-20.75"/>
<text xml:space="preserve" text-anchor="middle" x="26.38" y="-7.25" font-family="Helvetica,sans-Serif" font-size="10.00">stdint.h</text>
</a>
</g>
</g>
<!-- Node7&#45;&gt;Node8 -->
<g id="edge9_Node000007_Node000008" class="edge">
<title>Node7&#45;&gt;Node8</title>
<g id="a_edge9_Node000007_Node000008"><a xlink:title=" ">
<path fill="none" stroke="#63b8ff" d="M141.35,-56.34C119.15,-47.66 86.49,-34.88 61.64,-25.17"/>
<polygon fill="#63b8ff" stroke="#63b8ff" points="63.19,-22.01 52.6,-21.63 60.64,-28.53 63.19,-22.01"/>
</a>
</g>
</g>
<!-- Node9 -->
<g id="Node000009" class="node">
<title>Node9</title>
<g id="a_Node000009"><a xlink:title=" ">
<polygon fill="#e0e0e0" stroke="#999999" points="161.88,-20.75 70.88,-20.75 70.88,0 161.88,0 161.88,-20.75"/>
<text xml:space="preserve" text-anchor="middle" x="116.38" y="-7.25" font-family="Helvetica,sans-Serif" font-size="10.00">event_groups.h</text>
</a>
</g>
</g>
<!-- Node7&#45;&gt;Node9 -->
<g id="edge11_Node000007_Node000009" class="edge">
<title>Node7&#45;&gt;Node9</title>
<g id="a_edge11_Node000007_Node000009"><a xlink:title=" ">
<path fill="none" stroke="#63b8ff" d="M157.44,-56.34C150.61,-48.86 141.01,-38.36 132.82,-29.38"/>
<polygon fill="#63b8ff" stroke="#63b8ff" points="135.59,-27.22 126.26,-22.2 130.42,-31.94 135.59,-27.22"/>
</a>
</g>
</g>
<!-- Node7&#45;&gt;Node10 -->
<g id="edge12_Node000007_Node000010" class="edge">
<title>Node7&#45;&gt;Node10</title>
<g id="a_edge12_Node000007_Node000010"><a xlink:title=" ">
<path fill="none" stroke="#63b8ff" d="M208.7,-58.84C212.98,-58.13 217.26,-57.42 221.38,-56.75 321.27,-40.52 349.17,-38.36 451.4,-21.22"/>
<polygon fill="#63b8ff" stroke="#63b8ff" points="451.77,-24.71 461.05,-19.59 450.6,-17.8 451.77,-24.71"/>
</a>
</g>
</g>
<!-- Node11 -->
<g id="Node000011" class="node">
<title>Node11</title>
<g id="a_Node000011"><a xlink:title=" ">
<polygon fill="#e0e0e0" stroke="#999999" points="232.38,-20.75 180.38,-20.75 180.38,0 232.38,0 232.38,-20.75"/>
<text xml:space="preserve" text-anchor="middle" x="206.38" y="-7.25" font-family="Helvetica,sans-Serif" font-size="10.00">stdlib.h</text>
</a>
</g>
</g>
<!-- Node7&#45;&gt;Node11 -->
<g id="edge13_Node000007_Node000011" class="edge">
<title>Node7&#45;&gt;Node11</title>
<g id="a_edge13_Node000007_Node000011"><a xlink:title=" ">
<path fill="none" stroke="#63b8ff" d="M173.53,-56.34C178.82,-49.1 186.19,-39.01 192.6,-30.22"/>
<polygon fill="#63b8ff" stroke="#63b8ff" points="195.32,-32.44 198.39,-22.3 189.67,-28.31 195.32,-32.44"/>
</a>
</g>
</g>
<!-- Node12&#45;&gt;Node3 -->
<g id="edge18_Node000012_Node000003" class="edge">
<title>Node12&#45;&gt;Node3</title>
<g id="a_edge18_Node000012_Node000003"><a xlink:title=" ">
<path fill="none" stroke="#63b8ff" d="M269.77,-175.51C321.97,-169.8 401.91,-157.45 420.38,-134.25 443.84,-104.76 429.85,-57.76 418.81,-31.25"/>
<polygon fill="#63b8ff" stroke="#63b8ff" points="422.11,-30.05 414.85,-22.33 415.71,-32.89 422.11,-30.05"/>
</a>
</g>
</g>
<!-- Node12&#45;&gt;Node4 -->
<g id="edge15_Node000012_Node000004" class="edge">
<title>Node12&#45;&gt;Node4</title>
<g id="a_edge15_Node000012_Node000004"><a xlink:title=" ">
<path fill="none" stroke="#63b8ff" d="M228.49,-170.12C238.27,-151.94 259.81,-111.92 272.8,-87.77"/>
<polygon fill="#63b8ff" stroke="#63b8ff" points="275.73,-89.72 277.38,-79.26 269.56,-86.41 275.73,-89.72"/>
</a>
</g>
</g>
<!-- Node12&#45;&gt;Node6 -->
<g id="edge16_Node000012_Node000006" class="edge">
<title>Node12&#45;&gt;Node6</title>
<g id="a_edge16_Node000012_Node000006"><a xlink:title=" ">
<path fill="none" stroke="#63b8ff" d="M212.47,-169.84C203.88,-162.13 191.7,-151.2 181.5,-142.04"/>
<polygon fill="#63b8ff" stroke="#63b8ff" points="184.09,-139.66 174.31,-135.59 179.42,-144.87 184.09,-139.66"/>
</a>
</g>
</g>
<!-- Node12&#45;&gt;Node8 -->
<g id="edge17_Node000012_Node000008" class="edge">
<title>Node12&#45;&gt;Node8</title>
<g id="a_edge17_Node000012_Node000008"><a xlink:title=" ">
<path fill="none" stroke="#63b8ff" d="M176.7,-170.81C151.36,-164.15 120.73,-152.87 98.38,-134.25 64.95,-106.41 43.46,-58.79 33.29,-31.73"/>
<polygon fill="#63b8ff" stroke="#63b8ff" points="36.69,-30.86 30.02,-22.63 30.1,-33.22 36.69,-30.86"/>
</a>
</g>
</g>
<!-- Node14&#45;&gt;Node3 -->
<g id="edge22_Node000014_Node000003" class="edge">
<title>Node14&#45;&gt;Node3</title>
<g id="a_edge22_Node000014_Node000003"><a xlink:title=" ">
<path fill="none" stroke="#63b8ff" d="M465.22,-56.34C455.55,-48.55 441.79,-37.47 430.35,-28.26"/>
<polygon fill="#63b8ff" stroke="#63b8ff" points="432.59,-25.57 422.61,-22.03 428.2,-31.03 432.59,-25.57"/>
</a>
</g>
</g>
<!-- Node14&#45;&gt;Node10 -->
<g id="edge23_Node000014_Node000010" class="edge">
<title>Node14&#45;&gt;Node10</title>
<g id="a_edge23_Node000014_Node000010"><a xlink:title=" ">
<path fill="none" stroke="#63b8ff" d="M482.38,-56.34C485.96,-49.33 490.91,-39.66 495.3,-31.08"/>
<polygon fill="#63b8ff" stroke="#63b8ff" points="498.29,-32.92 499.72,-22.43 492.05,-29.74 498.29,-32.92"/>
</a>
</g>
</g>
</g>
</svg>

<g id="navigator" transform="translate(0 0)" fill="#404254">
  <rect fill="#f2f5e9" fill-opacity="0.5" stroke="#606060" stroke-width=".5" x="0" y="0" width="60" height="60"/>
  <use id="zoomplus" xlink:href="#zoomPlus" x="17" y="9" onmousedown="handleZoom(evt,'in')"/>
  <use id="zoomminus" xlink:href="#zoomMin" x="42" y="9" onmousedown="handleZoom(evt,'out')"/>
  <use id="reset" xlink:href="#resetDef" x="30" y="36" onmousedown="handleReset()"/>
   <use id="arrowup" xlink:href="#arrowUp" x="0" y="0" onmousedown="handlePan(0,-1)"/>
  <use id="arrowright" xlink:href="#arrowRight" x="0" y="0" onmousedown="handlePan(1,0)"/>
  <use id="arrowdown" xlink:href="#arrowDown" x="0" y="0" onmousedown="handlePan(0,1)"/>
  <use id="arrowleft" xlink:href="#arrowLeft" x="0" y="0" onmousedown="handlePan(-1,0)"/>
</g>
<svg viewBox="0 0 15 15" width="100%" height="30px" preserveAspectRatio="xMaxYMin meet">
 <g id="arrow_out" transform="scale(0.3 0.3)">
  <a xlink:href="tmc2209__setup_8c__incl_org.svg" target="_base">
   <rect id="button" ry="5" rx="5" y="6" x="6" height="38" width="38"
        fill="#f2f5e9" fill-opacity="0.5" stroke="#606060" stroke-width="1.0"/>
   <path id="arrow"
     d="M 11.500037,31.436501 C 11.940474,20.09759 22.043105,11.32322 32.158766,21.979434 L 37.068811,17.246167 C 37.068811,17.246167 37.088388,32 37.088388,32 L 22.160133,31.978069 C 22.160133,31.978069 26.997745,27.140456 26.997745,27.140456 C 18.528582,18.264221 13.291696,25.230495 11.500037,31.436501 z"
     style="fill:#404040;"/>
  </a>
 </g>
</svg>

<style type='text/css'>
<![CDATA[
[data-mouse-over-selected='false'] { opacity: 0.7; }
[data-mouse-over-selected='true']  { opacity: 1.0; }
]]>
</style>
<script type="application/ecmascript"><![CDATA[
document.addEventListener('DOMContentLoaded', (event) => {
  highlightEdges();
  highlightAdjacentNodes();
});
]]></script>
</svg>
