<?xml version="1.0" encoding="UTF-8" standalone="no"?>
<!DOCTYPE svg PUBLIC "-//W3C//DTD SVG 1.1//EN"
 "http://www.w3.org/Graphics/SVG/1.1/DTD/svg11.dtd">
<!-- Generated by graphviz version 14.1.5 (0)
 -->
<!-- Title: source/driver/tmc2209/tmc2209_core.c Pages: 1 -->
<!--zoomable 269 -->

<svg id="main" version="1.1" xmlns="http://www.w3.org/2000/svg" xmlns:xlink="http://www.w3.org/1999/xlink" xml:space="preserve" onload="init(evt)">

<style type="text/css"><![CDATA[
.node, .edge {opacity: 0.7;}
.node.selected, .edge.selected {opacity: 1;}
.edge:hover path { stroke: red; }
.edge:hover polygon { stroke: red; fill: red; }
]]></style>

<defs>
  <circle id="rim" cx="0" cy="0" r="7"/>
  <circle id="rim2" cx="0" cy="0" r="3.5"/>
  <g id="zoomPlus">
    <use xlink:href="#rim" fill="#404040"><set attributeName="fill" to="#808080" begin="zoomplus.mouseover" end="zoomplus.mouseout"/></use>
    <path d="M-4,0h8M0,-4v8" fill="none" stroke="white" stroke-width="1.5" pointer-events="none"/>
  </g>
  <g id="zoomMin">
    <use xlink:href="#rim" fill="#404040"><set attributeName="fill" to="#808080" begin="zoomminus.mouseover" end="zoomminus.mouseout"/></use>
    <path d="M-4,0h8" fill="none" stroke="white" stroke-width="1.5" pointer-events="none"/>
  </g>
  <g id="arrowUp" transform="translate(30 24)">
    <use xlink:href="#rim"/>
    <path pointer-events="none" fill="none" stroke="white" stroke-width="1.5" d="M0,-3.0v7 M-2.5,-0.5L0,-3.0L2.5,-0.5"/>
  </g>
  <g id="arrowRight" transform="rotate(90) translate(36 -43)">
    <use xlink:href="#rim"/>
    <path pointer-events="none" fill="none" stroke="white" stroke-width="1.5" d="M0,-3.0v7 M-2.5,-0.5L0,-3.0L2.5,-0.5"/>
  </g>
  <g id="arrowDown" transform="rotate(180) translate(-30 -48)">
    <use xlink:href="#rim"/>
    <path pointer-events="none" fill="none" stroke="white" stroke-width="1.5" d="M0,-3.0v7 M-2.5,-0.5L0,-3.0L2.5,-0.5"/>
  </g>
  <g id="arrowLeft" transform="rotate(270) translate(-36 17)">
    <use xlink:href="#rim"/>
    <path pointer-events="none" fill="none" stroke="white" stroke-width="1.5" d="M0,-3.0v7 M-2.5,-0.5L0,-3.0L2.5,-0.5"/>
  </g>
  <g id="resetDef">
    <use xlink:href="#rim2" fill="#404040"><set attributeName="fill" to="#808080" begin="reset.mouseover" end="reset.mouseout"/></use>
  </g>
</defs>
<script type="application/ecmascript">
var viewWidth = 1115;
var viewHeight = 269;
var sectionId = 'dynsection-0';
</script>
<script type="application/ecmascript" xlink:href="svg.min.js"/>
<svg id="graph" class="graph">
<g id="viewport">
<title>source/driver/tmc2209/tmc2209_core.c</title>
<!-- Node1 -->
<g id="Node000001" class="node">
<title>Node1</title>
<g id="a_Node000001"><a xlink:title=" ">
<polygon fill="#999999" stroke="#666666" points="687.58,-260.5 562.08,-260.5 562.08,-227 687.58,-227 687.58,-260.5"/>
<text xml:space="preserve" text-anchor="start" x="570.08" y="-247" font-family="Helvetica,sans-Serif" font-size="10.00">source/driver/tmc2209</text>
<text xml:space="preserve" text-anchor="middle" x="624.83" y="-234.25" font-family="Helvetica,sans-Serif" font-size="10.00">/tmc2209_core.c</text>
</a>
</g>
</g>
<!-- Node2 -->
<g id="Node000002" class="node">
<title>Node2</title>
<g id="a_Node000002"><a xlink:href="log_8h.html" target="_top" xlink:title=" ">
<polygon fill="white" stroke="#666666" points="123.33,-77.5 14.33,-77.5 14.33,-56.75 123.33,-56.75 123.33,-77.5"/>
<text xml:space="preserve" text-anchor="middle" x="68.83" y="-64" font-family="Helvetica,sans-Serif" font-size="10.00">infrastructure/log.h</text>
</a>
</g>
</g>
<!-- Node1&#45;&gt;Node2 -->
<g id="edge1_Node000001_Node000002" class="edge">
<title>Node1&#45;&gt;Node2</title>
<g id="a_edge1_Node000001_Node000002"><a xlink:title=" ">
<path fill="none" stroke="#63b8ff" d="M561.63,-241.58C422.55,-238.34 99.64,-227 66.83,-191 41.54,-163.26 51.96,-115.6 60.95,-88.51"/>
<polygon fill="#63b8ff" stroke="#63b8ff" points="64.14,-89.99 64.21,-79.39 57.55,-87.63 64.14,-89.99"/>
</a>
</g>
</g>
<!-- Node3 -->
<g id="Node000003" class="node">
<title>Node3</title>
<g id="a_Node000003"><a xlink:title=" ">
<polygon fill="#e0e0e0" stroke="#999999" points="287.58,-20.75 216.08,-20.75 216.08,0 287.58,0 287.58,-20.75"/>
<text xml:space="preserve" text-anchor="middle" x="251.83" y="-7.25" font-family="Helvetica,sans-Serif" font-size="10.00">FreeRTOS.h</text>
</a>
</g>
</g>
<!-- Node1&#45;&gt;Node3 -->
<g id="edge33_Node000001_Node000003" class="edge">
<title>Node1&#45;&gt;Node3</title>
<g id="a_edge33_Node000001_Node000003"><a xlink:title=" ">
<path fill="none" stroke="#63b8ff" d="M561.87,-238.56C463.49,-231.38 278.21,-215.13 216.83,-191 176.59,-175.18 157.56,-172.72 137.83,-134.25 114.31,-88.4 177.88,-47.19 219.3,-26.13"/>
<polygon fill="#63b8ff" stroke="#63b8ff" points="220.75,-29.32 228.19,-21.77 217.67,-23.04 220.75,-29.32"/>
</a>
</g>
</g>
<!-- Node5 -->
<g id="Node000005" class="node">
<title>Node5</title>
<g id="a_Node000005"><a xlink:href="tmc2209__core_8h.html" target="_top" xlink:title=" ">
<polygon fill="white" stroke="#666666" points="240.83,-134.25 146.83,-134.25 146.83,-113.5 240.83,-113.5 240.83,-134.25"/>
<text xml:space="preserve" text-anchor="middle" x="193.83" y="-120.75" font-family="Helvetica,sans-Serif" font-size="10.00">tmc2209_core.h</text>
</a>
</g>
</g>
<!-- Node1&#45;&gt;Node5 -->
<g id="edge4_Node000001_Node000005" class="edge">
<title>Node1&#45;&gt;Node5</title>
<g id="a_edge4_Node000001_Node000005"><a xlink:title=" ">
<path fill="none" stroke="#63b8ff" d="M561.83,-240.11C467.62,-235.18 295.47,-222.12 242.83,-191 224.62,-180.23 211.08,-159.8 202.9,-144.49"/>
<polygon fill="#63b8ff" stroke="#63b8ff" points="206.17,-143.2 198.58,-135.8 199.9,-146.32 206.17,-143.2"/>
</a>
</g>
</g>
<!-- Node7 -->
<g id="Node000007" class="node">
<title>Node7</title>
<g id="a_Node000007"><a xlink:href="tmc2209__shared_8h.html" target="_top" xlink:title=" ">
<polygon fill="white" stroke="#666666" points="638.83,-77.5 532.83,-77.5 532.83,-56.75 638.83,-56.75 638.83,-77.5"/>
<text xml:space="preserve" text-anchor="middle" x="585.83" y="-64" font-family="Helvetica,sans-Serif" font-size="10.00">tmc2209_shared.h</text>
</a>
</g>
</g>
<!-- Node1&#45;&gt;Node7 -->
<g id="edge17_Node000001_Node000007" class="edge">
<title>Node1&#45;&gt;Node7</title>
<g id="a_edge17_Node000001_Node000007"><a xlink:title=" ">
<path fill="none" stroke="#63b8ff" d="M621.23,-226.63C614.11,-194.76 598.25,-123.72 590.4,-88.6"/>
<polygon fill="#63b8ff" stroke="#63b8ff" points="593.91,-88.27 588.32,-79.27 587.08,-89.79 593.91,-88.27"/>
</a>
</g>
</g>
<!-- Node8 -->
<g id="Node000008" class="node">
<title>Node8</title>
<g id="a_Node000008"><a xlink:title=" ">
<polygon fill="#e0e0e0" stroke="#999999" points="730.45,-20.75 625.2,-20.75 625.2,0 730.45,0 730.45,-20.75"/>
<text xml:space="preserve" text-anchor="middle" x="677.83" y="-7.25" font-family="Helvetica,sans-Serif" font-size="10.00">fsl_uart_freertos.h</text>
</a>
</g>
</g>
<!-- Node1&#45;&gt;Node8 -->
<g id="edge31_Node000001_Node000008" class="edge">
<title>Node1&#45;&gt;Node8</title>
<g id="a_edge31_Node000001_Node000008"><a xlink:title=" ">
<path fill="none" stroke="#63b8ff" d="M636.51,-226.53C647.72,-211.38 665.46,-188.43 682.83,-170.25 699.58,-152.71 713.83,-156.34 723.83,-134.25 740.18,-98.14 713.04,-54.34 693.99,-30"/>
<polygon fill="#63b8ff" stroke="#63b8ff" points="696.71,-27.8 687.67,-22.28 691.3,-32.24 696.71,-27.8"/>
</a>
</g>
</g>
<!-- Node13 -->
<g id="Node000013" class="node">
<title>Node13</title>
<g id="a_Node000013"><a xlink:href="tmc2209__internal_8h.html" target="_top" xlink:title=" ">
<polygon fill="white" stroke="#666666" points="445.08,-134.25 334.58,-134.25 334.58,-113.5 445.08,-113.5 445.08,-134.25"/>
<text xml:space="preserve" text-anchor="middle" x="389.83" y="-120.75" font-family="Helvetica,sans-Serif" font-size="10.00">tmc2209_internal.h</text>
</a>
</g>
</g>
<!-- Node1&#45;&gt;Node13 -->
<g id="edge18_Node000001_Node000013" class="edge">
<title>Node1&#45;&gt;Node13</title>
<g id="a_edge18_Node000001_Node000013"><a xlink:title=" ">
<path fill="none" stroke="#63b8ff" d="M561.97,-231.21C528.77,-223.27 488.3,-210.54 455.83,-191 435.08,-178.51 416.09,-158.1 403.86,-143.25"/>
<polygon fill="#63b8ff" stroke="#63b8ff" points="406.75,-141.27 397.79,-135.63 401.27,-145.63 406.75,-141.27"/>
</a>
</g>
</g>
<!-- Node14 -->
<g id="Node000014" class="node">
<title>Node14</title>
<g id="a_Node000014"><a xlink:href="tmc2209__uart_8h.html" target="_top" xlink:title=" ">
<polygon fill="white" stroke="#666666" points="557.08,-191 464.58,-191 464.58,-170.25 557.08,-170.25 557.08,-191"/>
<text xml:space="preserve" text-anchor="middle" x="510.83" y="-177.5" font-family="Helvetica,sans-Serif" font-size="10.00">tmc2209_uart.h</text>
</a>
</g>
</g>
<!-- Node1&#45;&gt;Node14 -->
<g id="edge21_Node000001_Node000014" class="edge">
<title>Node1&#45;&gt;Node14</title>
<g id="a_edge21_Node000001_Node000014"><a xlink:title=" ">
<path fill="none" stroke="#63b8ff" d="M594.58,-226.53C577.32,-217.27 555.82,-205.75 538.93,-196.69"/>
<polygon fill="#63b8ff" stroke="#63b8ff" points="540.89,-193.77 530.42,-192.13 537.58,-199.94 540.89,-193.77"/>
</a>
</g>
</g>
<!-- Node15 -->
<g id="Node000015" class="node">
<title>Node15</title>
<g id="a_Node000015"><a xlink:href="tmc2209__setup_8h.html" target="_top" xlink:title=" ">
<polygon fill="white" stroke="#666666" points="714.83,-134.25 614.83,-134.25 614.83,-113.5 714.83,-113.5 714.83,-134.25"/>
<text xml:space="preserve" text-anchor="middle" x="664.83" y="-120.75" font-family="Helvetica,sans-Serif" font-size="10.00">tmc2209_setup.h</text>
</a>
</g>
</g>
<!-- Node1&#45;&gt;Node15 -->
<g id="edge26_Node000001_Node000015" class="edge">
<title>Node1&#45;&gt;Node15</title>
<g id="a_edge26_Node000001_Node000015"><a xlink:title=" ">
<path fill="none" stroke="#63b8ff" d="M630.08,-226.59C634.88,-211.88 642.23,-189.57 648.83,-170.25 651.63,-162.06 654.78,-153.07 657.54,-145.27"/>
<polygon fill="#63b8ff" stroke="#63b8ff" points="660.78,-146.61 660.83,-136.02 654.18,-144.27 660.78,-146.61"/>
</a>
</g>
</g>
<!-- Node16 -->
<g id="Node000016" class="node">
<title>Node16</title>
<g id="a_Node000016"><a xlink:title=" ">
<polygon fill="#e0e0e0" stroke="#999999" points="740.33,-191 691.33,-191 691.33,-170.25 740.33,-170.25 740.33,-191"/>
<text xml:space="preserve" text-anchor="middle" x="715.83" y="-177.5" font-family="Helvetica,sans-Serif" font-size="10.00">stdio.h</text>
</a>
</g>
</g>
<!-- Node1&#45;&gt;Node16 -->
<g id="edge30_Node000001_Node000016" class="edge">
<title>Node1&#45;&gt;Node16</title>
<g id="a_edge30_Node000001_Node000016"><a xlink:title=" ">
<path fill="none" stroke="#63b8ff" d="M648.74,-226.69C662,-217.78 678.44,-206.74 691.73,-197.81"/>
<polygon fill="#63b8ff" stroke="#63b8ff" points="693.57,-200.79 699.92,-192.31 689.67,-194.98 693.57,-200.79"/>
</a>
</g>
</g>
<!-- Node17 -->
<g id="Node000017" class="node">
<title>Node17</title>
<g id="a_Node000017"><a xlink:title=" ">
<polygon fill="#e0e0e0" stroke="#999999" points="821.45,-191 758.2,-191 758.2,-170.25 821.45,-170.25 821.45,-191"/>
<text xml:space="preserve" text-anchor="middle" x="789.83" y="-177.5" font-family="Helvetica,sans-Serif" font-size="10.00">fsl_gpio.h</text>
</a>
</g>
</g>
<!-- Node1&#45;&gt;Node17 -->
<g id="edge32_Node000001_Node000017" class="edge">
<title>Node1&#45;&gt;Node17</title>
<g id="a_edge32_Node000001_Node000017"><a xlink:title=" ">
<path fill="none" stroke="#63b8ff" d="M668.61,-226.53C694.89,-216.79 727.95,-204.55 752.9,-195.3"/>
<polygon fill="#63b8ff" stroke="#63b8ff" points="753.82,-198.7 761.98,-191.94 751.39,-192.13 753.82,-198.7"/>
</a>
</g>
</g>
<!-- Node18 -->
<g id="Node000018" class="node">
<title>Node18</title>
<g id="a_Node000018"><a xlink:title=" ">
<polygon fill="#e0e0e0" stroke="#999999" points="894.33,-191 839.33,-191 839.33,-170.25 894.33,-170.25 894.33,-191"/>
<text xml:space="preserve" text-anchor="middle" x="866.83" y="-177.5" font-family="Helvetica,sans-Serif" font-size="10.00">queue.h</text>
</a>
</g>
</g>
<!-- Node1&#45;&gt;Node18 -->
<g id="edge34_Node000001_Node000018" class="edge">
<title>Node1&#45;&gt;Node18</title>
<g id="a_edge34_Node000001_Node000018"><a xlink:title=" ">
<path fill="none" stroke="#63b8ff" d="M687.98,-227.04C726.05,-217.53 775.82,-205.04 827.8,-191.76"/>
<polygon fill="#63b8ff" stroke="#63b8ff" points="828.64,-195.16 837.46,-189.29 826.91,-188.38 828.64,-195.16"/>
</a>
</g>
</g>
<!-- Node19 -->
<g id="Node000019" class="node">
<title>Node19</title>
<g id="a_Node000019"><a xlink:title=" ">
<polygon fill="#e0e0e0" stroke="#999999" points="958.83,-191 912.83,-191 912.83,-170.25 958.83,-170.25 958.83,-191"/>
<text xml:space="preserve" text-anchor="middle" x="935.83" y="-177.5" font-family="Helvetica,sans-Serif" font-size="10.00">task.h</text>
</a>
</g>
</g>
<!-- Node1&#45;&gt;Node19 -->
<g id="edge35_Node000001_Node000019" class="edge">
<title>Node1&#45;&gt;Node19</title>
<g id="a_edge35_Node000001_Node000019"><a xlink:title=" ">
<path fill="none" stroke="#63b8ff" d="M687.82,-232.94C742.07,-224.08 822.64,-209.89 901.39,-191.4"/>
<polygon fill="#63b8ff" stroke="#63b8ff" points="902.09,-194.83 911.01,-189.11 900.47,-188.02 902.09,-194.83"/>
</a>
</g>
</g>
<!-- Node20 -->
<g id="Node000020" class="node">
<title>Node20</title>
<g id="a_Node000020"><a xlink:title=" ">
<polygon fill="#e0e0e0" stroke="#999999" points="1038.7,-191 976.95,-191 976.95,-170.25 1038.7,-170.25 1038.7,-191"/>
<text xml:space="preserve" text-anchor="middle" x="1007.83" y="-177.5" font-family="Helvetica,sans-Serif" font-size="10.00">fsl_port.h</text>
</a>
</g>
</g>
<!-- Node1&#45;&gt;Node20 -->
<g id="edge36_Node000001_Node000020" class="edge">
<title>Node1&#45;&gt;Node20</title>
<g id="a_edge36_Node000001_Node000020"><a xlink:title=" ">
<path fill="none" stroke="#63b8ff" d="M687.99,-234.77C754.58,-226.01 862.75,-210.8 965.65,-191.29"/>
<polygon fill="#63b8ff" stroke="#63b8ff" points="966.22,-194.74 975.39,-189.42 964.91,-187.87 966.22,-194.74"/>
</a>
</g>
</g>
<!-- Node21 -->
<g id="Node000021" class="node">
<title>Node21</title>
<g id="a_Node000021"><a xlink:href="tmc2209__process_8h.html" target="_top" xlink:title=" ">
<polygon fill="white" stroke="#666666" points="362.08,-191 251.58,-191 251.58,-170.25 362.08,-170.25 362.08,-191"/>
<text xml:space="preserve" text-anchor="middle" x="306.83" y="-177.5" font-family="Helvetica,sans-Serif" font-size="10.00">tmc2209_process.h</text>
</a>
</g>
</g>
<!-- Node1&#45;&gt;Node21 -->
<g id="edge37_Node000001_Node000021" class="edge">
<title>Node1&#45;&gt;Node21</title>
<g id="a_edge37_Node000001_Node000021"><a xlink:title=" ">
<path fill="none" stroke="#63b8ff" d="M561.62,-230.6C505.79,-219.87 424.82,-204.31 369.23,-193.62"/>
<polygon fill="#63b8ff" stroke="#63b8ff" points="370.09,-190.22 359.61,-191.77 368.77,-197.09 370.09,-190.22"/>
</a>
</g>
</g>
<!-- Node22 -->
<g id="Node000022" class="node">
<title>Node22</title>
<g id="a_Node000022"><a xlink:title=" ">
<polygon fill="#e0e0e0" stroke="#999999" points="1107.08,-191 1056.58,-191 1056.58,-170.25 1107.08,-170.25 1107.08,-191"/>
<text xml:space="preserve" text-anchor="middle" x="1081.83" y="-177.5" font-family="Helvetica,sans-Serif" font-size="10.00">math.h</text>
</a>
</g>
</g>
<!-- Node1&#45;&gt;Node22 -->
<g id="edge42_Node000001_Node000022" class="edge">
<title>Node1&#45;&gt;Node22</title>
<g id="a_edge42_Node000001_Node000022"><a xlink:title=" ">
<path fill="none" stroke="#63b8ff" d="M688,-237.95C768.81,-231.15 913.19,-216.84 1045.2,-191.28"/>
<polygon fill="#63b8ff" stroke="#63b8ff" points="1045.68,-194.75 1054.82,-189.39 1044.33,-187.88 1045.68,-194.75"/>
</a>
</g>
</g>
<!-- Node2&#45;&gt;Node3 -->
<g id="edge2_Node000002_Node000003" class="edge">
<title>Node2&#45;&gt;Node3</title>
<g id="a_edge2_Node000002_Node000003"><a xlink:title=" ">
<path fill="none" stroke="#63b8ff" d="M101.55,-56.34C131.38,-47.41 175.67,-34.16 208.45,-24.35"/>
<polygon fill="#63b8ff" stroke="#63b8ff" points="209.06,-27.82 217.64,-21.6 207.05,-21.12 209.06,-27.82"/>
</a>
</g>
</g>
<!-- Node4 -->
<g id="Node000004" class="node">
<title>Node4</title>
<g id="a_Node000004"><a xlink:title=" ">
<polygon fill="#e0e0e0" stroke="#999999" points="158.33,-20.75 73.33,-20.75 73.33,0 158.33,0 158.33,-20.75"/>
<text xml:space="preserve" text-anchor="middle" x="115.83" y="-7.25" font-family="Helvetica,sans-Serif" font-size="10.00">fsl_common.h</text>
</a>
</g>
</g>
<!-- Node2&#45;&gt;Node4 -->
<g id="edge3_Node000002_Node000004" class="edge">
<title>Node2&#45;&gt;Node4</title>
<g id="a_edge3_Node000002_Node000004"><a xlink:title=" ">
<path fill="none" stroke="#63b8ff" d="M77.23,-56.34C83.58,-48.94 92.48,-38.57 100.13,-29.66"/>
<polygon fill="#63b8ff" stroke="#63b8ff" points="102.65,-32.09 106.51,-22.23 97.34,-27.53 102.65,-32.09"/>
</a>
</g>
</g>
<!-- Node5&#45;&gt;Node4 -->
<g id="edge9_Node000005_Node000004" class="edge">
<title>Node5&#45;&gt;Node4</title>
<g id="a_edge9_Node000005_Node000004"><a xlink:title=" ">
<path fill="none" stroke="#63b8ff" d="M187.18,-113.37C174.35,-95.03 145.96,-54.45 129.12,-30.37"/>
<polygon fill="#63b8ff" stroke="#63b8ff" points="132.15,-28.6 123.55,-22.42 126.42,-32.62 132.15,-28.6"/>
</a>
</g>
</g>
<!-- Node6 -->
<g id="Node000006" class="node">
<title>Node6</title>
<g id="a_Node000006"><a xlink:title=" ">
<polygon fill="#e0e0e0" stroke="#999999" points="537.2,-20.75 484.45,-20.75 484.45,0 537.2,0 537.2,-20.75"/>
<text xml:space="preserve" text-anchor="middle" x="510.83" y="-7.25" font-family="Helvetica,sans-Serif" font-size="10.00">stdint.h</text>
</a>
</g>
</g>
<!-- Node5&#45;&gt;Node6 -->
<g id="edge5_Node000005_Node000006" class="edge">
<title>Node5&#45;&gt;Node6</title>
<g id="a_edge5_Node000005_Node000006"><a xlink:title=" ">
<path fill="none" stroke="#63b8ff" d="M241.01,-117.97C285.58,-112.17 353.65,-100.29 408.83,-77.5 439.2,-64.96 470.36,-43.21 490.11,-28.1"/>
<polygon fill="#63b8ff" stroke="#63b8ff" points="492.17,-30.93 497.89,-22.01 487.86,-25.42 492.17,-30.93"/>
</a>
</g>
</g>
<!-- Node5&#45;&gt;Node7 -->
<g id="edge6_Node000005_Node000007" class="edge">
<title>Node5&#45;&gt;Node7</title>
<g id="a_edge6_Node000005_Node000007"><a xlink:title=" ">
<path fill="none" stroke="#63b8ff" d="M241.11,-116.27C311.08,-106.5 442.39,-88.16 521.19,-77.15"/>
<polygon fill="#63b8ff" stroke="#63b8ff" points="521.51,-80.64 530.93,-75.79 520.54,-73.71 521.51,-80.64"/>
</a>
</g>
</g>
<!-- Node9 -->
<g id="Node000009" class="node">
<title>Node9</title>
<g id="a_Node000009"><a xlink:href="cmd__handle_8h.html" target="_top" xlink:title=" ">
<polygon fill="white" stroke="#666666" points="399.95,-77.5 315.7,-77.5 315.7,-56.75 399.95,-56.75 399.95,-77.5"/>
<text xml:space="preserve" text-anchor="middle" x="357.83" y="-64" font-family="Helvetica,sans-Serif" font-size="10.00">cmd_handle.h</text>
</a>
</g>
</g>
<!-- Node5&#45;&gt;Node9 -->
<g id="edge10_Node000005_Node000009" class="edge">
<title>Node5&#45;&gt;Node9</title>
<g id="a_edge10_Node000005_Node000009"><a xlink:title=" ">
<path fill="none" stroke="#63b8ff" d="M223.15,-113.09C249.54,-104.28 288.55,-91.25 317.8,-81.49"/>
<polygon fill="#63b8ff" stroke="#63b8ff" points="318.67,-84.89 327.05,-78.4 316.46,-78.25 318.67,-84.89"/>
</a>
</g>
</g>
<!-- Node12 -->
<g id="Node000012" class="node">
<title>Node12</title>
<g id="a_Node000012"><a xlink:title=" ">
<polygon fill="#e0e0e0" stroke="#999999" points="297.7,-77.5 217.95,-77.5 217.95,-56.75 297.7,-56.75 297.7,-77.5"/>
<text xml:space="preserve" text-anchor="middle" x="257.83" y="-64" font-family="Helvetica,sans-Serif" font-size="10.00">peripherals.h</text>
</a>
</g>
</g>
<!-- Node5&#45;&gt;Node12 -->
<g id="edge16_Node000005_Node000012" class="edge">
<title>Node5&#45;&gt;Node12</title>
<g id="a_edge16_Node000005_Node000012"><a xlink:title=" ">
<path fill="none" stroke="#63b8ff" d="M205.27,-113.09C214.28,-105.38 227.06,-94.45 237.76,-85.29"/>
<polygon fill="#63b8ff" stroke="#63b8ff" points="240.01,-87.97 245.34,-78.81 235.46,-82.65 240.01,-87.97"/>
</a>
</g>
</g>
<!-- Node7&#45;&gt;Node6 -->
<g id="edge7_Node000007_Node000006" class="edge">
<title>Node7&#45;&gt;Node6</title>
<g id="a_edge7_Node000007_Node000006"><a xlink:title=" ">
<path fill="none" stroke="#63b8ff" d="M572.42,-56.34C561.54,-48.4 545.97,-37.03 533.21,-27.71"/>
<polygon fill="#63b8ff" stroke="#63b8ff" points="535.48,-25.04 525.34,-21.97 531.36,-30.69 535.48,-25.04"/>
</a>
</g>
</g>
<!-- Node7&#45;&gt;Node8 -->
<g id="edge8_Node000007_Node000008" class="edge">
<title>Node7&#45;&gt;Node8</title>
<g id="a_edge8_Node000007_Node000008"><a xlink:title=" ">
<path fill="none" stroke="#63b8ff" d="M602.28,-56.34C616.01,-48.16 635.85,-36.36 651.75,-26.9"/>
<polygon fill="#63b8ff" stroke="#63b8ff" points="653.42,-29.97 660.22,-21.85 649.84,-23.96 653.42,-29.97"/>
</a>
</g>
</g>
<!-- Node9&#45;&gt;Node3 -->
<g id="edge12_Node000009_Node000003" class="edge">
<title>Node9&#45;&gt;Node3</title>
<g id="a_edge12_Node000009_Node000003"><a xlink:title=" ">
<path fill="none" stroke="#63b8ff" d="M338.88,-56.34C322.75,-48.01 299.33,-35.91 280.84,-26.36"/>
<polygon fill="#63b8ff" stroke="#63b8ff" points="282.45,-23.25 271.96,-21.77 279.24,-29.47 282.45,-23.25"/>
</a>
</g>
</g>
<!-- Node9&#45;&gt;Node4 -->
<g id="edge14_Node000009_Node000004" class="edge">
<title>Node9&#45;&gt;Node4</title>
<g id="a_edge14_Node000009_Node000004"><a xlink:title=" ">
<path fill="none" stroke="#63b8ff" d="M315.4,-56.53C274.87,-47.36 213.62,-33.5 169.68,-23.56"/>
<polygon fill="#63b8ff" stroke="#63b8ff" points="170.62,-20.18 160.09,-21.39 169.07,-27.01 170.62,-20.18"/>
</a>
</g>
</g>
<!-- Node9&#45;&gt;Node6 -->
<g id="edge11_Node000009_Node000006" class="edge">
<title>Node9&#45;&gt;Node6</title>
<g id="a_edge11_Node000009_Node000006"><a xlink:title=" ">
<path fill="none" stroke="#63b8ff" d="M385.18,-56.34C409.73,-47.55 446,-34.57 473.27,-24.82"/>
<polygon fill="#63b8ff" stroke="#63b8ff" points="474.31,-28.16 482.54,-21.5 471.95,-21.57 474.31,-28.16"/>
</a>
</g>
</g>
<!-- Node10 -->
<g id="Node000010" class="node">
<title>Node10</title>
<g id="a_Node000010"><a xlink:title=" ">
<polygon fill="#e0e0e0" stroke="#999999" points="396.33,-20.75 305.33,-20.75 305.33,0 396.33,0 396.33,-20.75"/>
<text xml:space="preserve" text-anchor="middle" x="350.83" y="-7.25" font-family="Helvetica,sans-Serif" font-size="10.00">event_groups.h</text>
</a>
</g>
</g>
<!-- Node9&#45;&gt;Node10 -->
<g id="edge13_Node000009_Node000010" class="edge">
<title>Node9&#45;&gt;Node10</title>
<g id="a_edge13_Node000009_Node000010"><a xlink:title=" ">
<path fill="none" stroke="#63b8ff" d="M356.58,-56.34C355.72,-49.64 354.55,-40.51 353.49,-32.23"/>
<polygon fill="#63b8ff" stroke="#63b8ff" points="357,-32.06 352.26,-22.58 350.06,-32.94 357,-32.06"/>
</a>
</g>
</g>
<!-- Node11 -->
<g id="Node000011" class="node">
<title>Node11</title>
<g id="a_Node000011"><a xlink:title=" ">
<polygon fill="#e0e0e0" stroke="#999999" points="466.83,-20.75 414.83,-20.75 414.83,0 466.83,0 466.83,-20.75"/>
<text xml:space="preserve" text-anchor="middle" x="440.83" y="-7.25" font-family="Helvetica,sans-Serif" font-size="10.00">stdlib.h</text>
</a>
</g>
</g>
<!-- Node9&#45;&gt;Node11 -->
<g id="edge15_Node000009_Node000011" class="edge">
<title>Node9&#45;&gt;Node11</title>
<g id="a_edge15_Node000009_Node000011"><a xlink:title=" ">
<path fill="none" stroke="#63b8ff" d="M372.67,-56.34C384.94,-48.24 402.61,-36.58 416.89,-27.17"/>
<polygon fill="#63b8ff" stroke="#63b8ff" points="418.43,-30.34 424.86,-21.91 414.58,-24.5 418.43,-30.34"/>
</a>
</g>
</g>
<!-- Node13&#45;&gt;Node7 -->
<g id="edge19_Node000013_Node000007" class="edge">
<title>Node13&#45;&gt;Node7</title>
<g id="a_edge19_Node000013_Node000007"><a xlink:title=" ">
<path fill="none" stroke="#63b8ff" d="M424.87,-113.09C456.96,-104.12 504.68,-90.79 539.83,-80.98"/>
<polygon fill="#63b8ff" stroke="#63b8ff" points="540.61,-84.39 549.3,-78.33 538.73,-77.65 540.61,-84.39"/>
</a>
</g>
</g>
<!-- Node13&#45;&gt;Node9 -->
<g id="edge20_Node000013_Node000009" class="edge">
<title>Node13&#45;&gt;Node9</title>
<g id="a_edge20_Node000013_Node000009"><a xlink:title=" ">
<path fill="none" stroke="#63b8ff" d="M384.11,-113.09C379.97,-106 374.23,-96.19 369.18,-87.54"/>
<polygon fill="#63b8ff" stroke="#63b8ff" points="372.33,-86 364.26,-79.14 366.29,-89.53 372.33,-86"/>
</a>
</g>
</g>
<!-- Node14&#45;&gt;Node3 -->
<g id="edge25_Node000014_Node000003" class="edge">
<title>Node14&#45;&gt;Node3</title>
<g id="a_edge25_Node000014_Node000003"><a xlink:title=" ">
<path fill="none" stroke="#63b8ff" d="M505.58,-169.97C492.46,-146.78 455.92,-87.58 408.83,-56.75 390.73,-44.9 338.51,-31.08 299.23,-21.83"/>
<polygon fill="#63b8ff" stroke="#63b8ff" points="300.02,-18.42 289.49,-19.57 298.44,-25.24 300.02,-18.42"/>
</a>
</g>
</g>
<!-- Node14&#45;&gt;Node6 -->
<g id="edge22_Node000014_Node000006" class="edge">
<title>Node14&#45;&gt;Node6</title>
<g id="a_edge22_Node000014_Node000006"><a xlink:title=" ">
<path fill="none" stroke="#63b8ff" d="M510.83,-170.1C510.83,-143.73 510.83,-69.33 510.83,-32.53"/>
<polygon fill="#63b8ff" stroke="#63b8ff" points="514.33,-32.73 510.83,-22.73 507.33,-32.73 514.33,-32.73"/>
</a>
</g>
</g>
<!-- Node14&#45;&gt;Node7 -->
<g id="edge23_Node000014_Node000007" class="edge">
<title>Node14&#45;&gt;Node7</title>
<g id="a_edge23_Node000014_Node000007"><a xlink:title=" ">
<path fill="none" stroke="#63b8ff" d="M517.22,-170.12C529.5,-151.86 556.61,-111.56 572.83,-87.45"/>
<polygon fill="#63b8ff" stroke="#63b8ff" points="575.71,-89.43 578.39,-79.18 569.91,-85.53 575.71,-89.43"/>
</a>
</g>
</g>
<!-- Node14&#45;&gt;Node13 -->
<g id="edge24_Node000014_Node000013" class="edge">
<title>Node14&#45;&gt;Node13</title>
<g id="a_edge24_Node000014_Node000013"><a xlink:title=" ">
<path fill="none" stroke="#63b8ff" d="M489.2,-169.84C470.36,-161.31 442.79,-148.84 421.47,-139.19"/>
<polygon fill="#63b8ff" stroke="#63b8ff" points="423.21,-136.14 412.65,-135.2 420.32,-142.51 423.21,-136.14"/>
</a>
</g>
</g>
<!-- Node15&#45;&gt;Node3 -->
<g id="edge28_Node000015_Node000003" class="edge">
<title>Node15&#45;&gt;Node3</title>
<g id="a_edge28_Node000015_Node000003"><a xlink:title=" ">
<path fill="none" stroke="#63b8ff" d="M665.49,-113.02C665.87,-98.31 664.18,-70.82 647.83,-56.75 590.84,-7.7 391.61,-30.67 298.92,-20.65"/>
<polygon fill="#63b8ff" stroke="#63b8ff" points="299.5,-17.2 289.13,-19.38 298.59,-24.14 299.5,-17.2"/>
</a>
</g>
</g>
<!-- Node15&#45;&gt;Node6 -->
<g id="edge27_Node000015_Node000006" class="edge">
<title>Node15&#45;&gt;Node6</title>
<g id="a_edge27_Node000015_Node000006"><a xlink:title=" ">
<path fill="none" stroke="#63b8ff" d="M671.65,-113.31C680.61,-99.45 693.78,-73.61 680.83,-56.75 664.86,-35.96 593.87,-22.65 548.83,-16.13"/>
<polygon fill="#63b8ff" stroke="#63b8ff" points="549.32,-12.67 538.93,-14.76 548.35,-19.6 549.32,-12.67"/>
</a>
</g>
</g>
<!-- Node15&#45;&gt;Node7 -->
<g id="edge29_Node000015_Node000007" class="edge">
<title>Node15&#45;&gt;Node7</title>
<g id="a_edge29_Node000015_Node000007"><a xlink:title=" ">
<path fill="none" stroke="#63b8ff" d="M650.71,-113.09C639.13,-105.07 622.52,-93.56 609.01,-84.19"/>
<polygon fill="#63b8ff" stroke="#63b8ff" points="611.29,-81.51 601.07,-78.69 607.3,-87.26 611.29,-81.51"/>
</a>
</g>
</g>
<!-- Node21&#45;&gt;Node4 -->
<g id="edge40_Node000021_Node000004" class="edge">
<title>Node21&#45;&gt;Node4</title>
<g id="a_edge40_Node000021_Node000004"><a xlink:title=" ">
<path fill="none" stroke="#63b8ff" d="M251.29,-179.7C179.74,-176.37 58.21,-158.32 4.83,-77.5 -13.29,-50.07 25.7,-32.38 62.36,-22.26"/>
<polygon fill="#63b8ff" stroke="#63b8ff" points="62.82,-25.76 71.63,-19.86 61.07,-18.98 62.82,-25.76"/>
</a>
</g>
</g>
<!-- Node21&#45;&gt;Node7 -->
<g id="edge38_Node000021_Node000007" class="edge">
<title>Node21&#45;&gt;Node7</title>
<g id="a_edge38_Node000021_Node000007"><a xlink:title=" ">
<path fill="none" stroke="#63b8ff" d="M306.62,-169.89C306.88,-155.32 309.66,-128.03 325.83,-113.5 340.23,-100.57 448.88,-84.94 521.09,-75.81"/>
<polygon fill="#63b8ff" stroke="#63b8ff" points="521.36,-79.3 530.85,-74.59 520.49,-72.36 521.36,-79.3"/>
</a>
</g>
</g>
<!-- Node21&#45;&gt;Node9 -->
<g id="edge39_Node000021_Node000009" class="edge">
<title>Node21&#45;&gt;Node9</title>
<g id="a_edge39_Node000021_Node000009"><a xlink:title=" ">
<path fill="none" stroke="#63b8ff" d="M301.03,-170.11C293.71,-156.75 283.17,-132.02 292.83,-113.5 299.54,-100.63 311.75,-90.66 323.8,-83.39"/>
<polygon fill="#63b8ff" stroke="#63b8ff" points="325.35,-86.53 332.42,-78.64 321.98,-80.4 325.35,-86.53"/>
</a>
</g>
</g>
<!-- Node21&#45;&gt;Node13 -->
<g id="edge41_Node000021_Node000013" class="edge">
<title>Node21&#45;&gt;Node13</title>
<g id="a_edge41_Node000021_Node000013"><a xlink:title=" ">
<path fill="none" stroke="#63b8ff" d="M321.67,-169.84C333.94,-161.74 351.61,-150.08 365.89,-140.67"/>
<polygon fill="#63b8ff" stroke="#63b8ff" points="367.43,-143.84 373.86,-135.41 363.58,-138 367.43,-143.84"/>
</a>
</g>
</g>
</g>
</svg>

<g id="navigator" transform="translate(0 0)" fill="#404254">
  <rect fill="#f2f5e9" fill-opacity="0.5" stroke="#606060" stroke-width=".5" x="0" y="0" width="60" height="60"/>
  <use id="zoomplus" xlink:href="#zoomPlus" x="17" y="9" onmousedown="handleZoom(evt,'in')"/>
  <use id="zoomminus" xlink:href="#zoomMin" x="42" y="9" onmousedown="handleZoom(evt,'out')"/>
  <use id="reset" xlink:href="#resetDef" x="30" y="36" onmousedown="handleReset()"/>
   <use id="arrowup" xlink:href="#arrowUp" x="0" y="0" onmousedown="handlePan(0,-1)"/>
  <use id="arrowright" xlink:href="#arrowRight" x="0" y="0" onmousedown="handlePan(1,0)"/>
  <use id="arrowdown" xlink:href="#arrowDown" x="0" y="0" onmousedown="handlePan(0,1)"/>
  <use id="arrowleft" xlink:href="#arrowLeft" x="0" y="0" onmousedown="handlePan(-1,0)"/>
</g>
<svg viewBox="0 0 15 15" width="100%" height="30px" preserveAspectRatio="xMaxYMin meet">
 <g id="arrow_out" transform="scale(0.3 0.3)">
  <a xlink:href="tmc2209__core_8c__incl_org.svg" target="_base">
   <rect id="button" ry="5" rx="5" y="6" x="6" height="38" width="38"
        fill="#f2f5e9" fill-opacity="0.5" stroke="#606060" stroke-width="1.0"/>
   <path id="arrow"
     d="M 11.500037,31.436501 C 11.940474,20.09759 22.043105,11.32322 32.158766,21.979434 L 37.068811,17.246167 C 37.068811,17.246167 37.088388,32 37.088388,32 L 22.160133,31.978069 C 22.160133,31.978069 26.997745,27.140456 26.997745,27.140456 C 18.528582,18.264221 13.291696,25.230495 11.500037,31.436501 z"
     style="fill:#404040;"/>
  </a>
 </g>
</svg>

<style type='text/css'>
<![CDATA[
[data-mouse-over-selected='false'] { opacity: 0.7; }
[data-mouse-over-selected='true']  { opacity: 1.0; }
]]>
</style>
<script type="application/ecmascript"><![CDATA[
document.addEventListener('DOMContentLoaded', (event) => {
  highlightEdges();
  highlightAdjacentNodes();
});
]]></script>
</svg>
