<?xml version="1.0" encoding="UTF-8" standalone="no"?>
<!DOCTYPE svg PUBLIC "-//W3C//DTD SVG 1.1//EN"
 "http://www.w3.org/Graphics/SVG/1.1/DTD/svg11.dtd">
<!-- Generated by graphviz version 14.1.4 (0)
 -->
<!-- Title: source/driver/tmc2209/tmc2209_internal.h Pages: 1 -->
<svg width="556pt" height="155pt"
 viewBox="0.00 0.00 556.00 155.00" xmlns="http://www.w3.org/2000/svg" xmlns:xlink="http://www.w3.org/1999/xlink">
<g id="graph0" class="graph" transform="scale(1 1) rotate(0) translate(4 151)">
<title>source/driver/tmc2209/tmc2209_internal.h</title>
<!-- Node1 -->
<g id="Node000001" class="node">
<title>Node1</title>
<g id="a_Node000001"><a xlink:title=" ">
<polygon fill="#999999" stroke="#666666" points="252.38,-147 126.88,-147 126.88,-113.5 252.38,-113.5 252.38,-147"/>
<text xml:space="preserve" text-anchor="start" x="134.88" y="-133.5" font-family="Helvetica,sans-Serif" font-size="10.00">source/driver/tmc2209</text>
<text xml:space="preserve" text-anchor="middle" x="189.62" y="-120.75" font-family="Helvetica,sans-Serif" font-size="10.00">/tmc2209_internal.h</text>
</a>
</g>
</g>
<!-- Node2 -->
<g id="Node000002" class="node">
<title>Node2</title>
<g id="a_Node000002"><a xlink:href="tmc2209__shared_8h.html" target="_top" xlink:title=" ">
<polygon fill="white" stroke="#666666" points="186.62,-77.5 80.62,-77.5 80.62,-56.75 186.62,-56.75 186.62,-77.5"/>
<text xml:space="preserve" text-anchor="middle" x="133.62" y="-64" font-family="Helvetica,sans-Serif" font-size="10.00">tmc2209_shared.h</text>
</a>
</g>
</g>
<!-- Node1&#45;&gt;Node2 -->
<g id="edge1_Node000001_Node000002" class="edge">
<title>Node1&#45;&gt;Node2</title>
<g id="a_edge1_Node000001_Node000002"><a xlink:title=" ">
<path fill="none" stroke="#63b8ff" d="M174.91,-113.19C167.39,-104.98 158.21,-94.96 150.41,-86.45"/>
<polygon fill="#63b8ff" stroke="#63b8ff" points="153,-84.09 143.66,-79.08 147.84,-88.82 153,-84.09"/>
</a>
</g>
</g>
<!-- Node4 -->
<g id="Node000004" class="node">
<title>Node4</title>
<g id="a_Node000004"><a xlink:href="cmd__handle_8h.html" target="_top" xlink:title=" ">
<polygon fill="white" stroke="#666666" points="320.75,-77.5 236.5,-77.5 236.5,-56.75 320.75,-56.75 320.75,-77.5"/>
<text xml:space="preserve" text-anchor="middle" x="278.62" y="-64" font-family="Helvetica,sans-Serif" font-size="10.00">cmd_handle.h</text>
</a>
</g>
</g>
<!-- Node1&#45;&gt;Node4 -->
<g id="edge3_Node000001_Node000004" class="edge">
<title>Node1&#45;&gt;Node4</title>
<g id="a_edge3_Node000001_Node000004"><a xlink:title=" ">
<path fill="none" stroke="#63b8ff" d="M213.01,-113.19C225.98,-104.28 242.06,-93.24 255.06,-84.31"/>
<polygon fill="#63b8ff" stroke="#63b8ff" points="256.79,-87.37 263.05,-78.82 252.82,-81.6 256.79,-87.37"/>
</a>
</g>
</g>
<!-- Node3 -->
<g id="Node000003" class="node">
<title>Node3</title>
<g id="a_Node000003"><a xlink:title=" ">
<polygon fill="#e0e0e0" stroke="#999999" points="105.25,-20.75 0,-20.75 0,0 105.25,0 105.25,-20.75"/>
<text xml:space="preserve" text-anchor="middle" x="52.62" y="-7.25" font-family="Helvetica,sans-Serif" font-size="10.00">fsl_uart_freertos.h</text>
</a>
</g>
</g>
<!-- Node2&#45;&gt;Node3 -->
<g id="edge2_Node000002_Node000003" class="edge">
<title>Node2&#45;&gt;Node3</title>
<g id="a_edge2_Node000002_Node000003"><a xlink:title=" ">
<path fill="none" stroke="#63b8ff" d="M119.14,-56.34C107.28,-48.32 90.25,-36.81 76.39,-27.44"/>
<polygon fill="#63b8ff" stroke="#63b8ff" points="78.48,-24.63 68.23,-21.93 74.56,-30.43 78.48,-24.63"/>
</a>
</g>
</g>
<!-- Node5 -->
<g id="Node000005" class="node">
<title>Node5</title>
<g id="a_Node000005"><a xlink:title=" ">
<polygon fill="#e0e0e0" stroke="#999999" points="176,-20.75 123.25,-20.75 123.25,0 176,0 176,-20.75"/>
<text xml:space="preserve" text-anchor="middle" x="149.62" y="-7.25" font-family="Helvetica,sans-Serif" font-size="10.00">stdint.h</text>
</a>
</g>
</g>
<!-- Node4&#45;&gt;Node5 -->
<g id="edge4_Node000004_Node000005" class="edge">
<title>Node4&#45;&gt;Node5</title>
<g id="a_edge4_Node000004_Node000005"><a xlink:title=" ">
<path fill="none" stroke="#63b8ff" d="M255.56,-56.34C235.38,-47.77 205.82,-35.23 183.05,-25.56"/>
<polygon fill="#63b8ff" stroke="#63b8ff" points="184.45,-22.35 173.88,-21.67 181.72,-28.8 184.45,-22.35"/>
</a>
</g>
</g>
<!-- Node6 -->
<g id="Node000006" class="node">
<title>Node6</title>
<g id="a_Node000006"><a xlink:title=" ">
<polygon fill="#e0e0e0" stroke="#999999" points="265.38,-20.75 193.88,-20.75 193.88,0 265.38,0 265.38,-20.75"/>
<text xml:space="preserve" text-anchor="middle" x="229.62" y="-7.25" font-family="Helvetica,sans-Serif" font-size="10.00">FreeRTOS.h</text>
</a>
</g>
</g>
<!-- Node4&#45;&gt;Node6 -->
<g id="edge5_Node000004_Node000006" class="edge">
<title>Node4&#45;&gt;Node6</title>
<g id="a_edge5_Node000004_Node000006"><a xlink:title=" ">
<path fill="none" stroke="#63b8ff" d="M269.86,-56.34C263.18,-48.86 253.77,-38.36 245.74,-29.38"/>
<polygon fill="#63b8ff" stroke="#63b8ff" points="248.6,-27.32 239.32,-22.21 243.38,-31.99 248.6,-27.32"/>
</a>
</g>
</g>
<!-- Node7 -->
<g id="Node000007" class="node">
<title>Node7</title>
<g id="a_Node000007"><a xlink:title=" ">
<polygon fill="#e0e0e0" stroke="#999999" points="374.12,-20.75 283.12,-20.75 283.12,0 374.12,0 374.12,-20.75"/>
<text xml:space="preserve" text-anchor="middle" x="328.62" y="-7.25" font-family="Helvetica,sans-Serif" font-size="10.00">event_groups.h</text>
</a>
</g>
</g>
<!-- Node4&#45;&gt;Node7 -->
<g id="edge6_Node000004_Node000007" class="edge">
<title>Node4&#45;&gt;Node7</title>
<g id="a_edge6_Node000004_Node000007"><a xlink:title=" ">
<path fill="none" stroke="#63b8ff" d="M287.56,-56.34C294.39,-48.86 303.99,-38.36 312.18,-29.38"/>
<polygon fill="#63b8ff" stroke="#63b8ff" points="314.58,-31.94 318.74,-22.2 309.41,-27.22 314.58,-31.94"/>
</a>
</g>
</g>
<!-- Node8 -->
<g id="Node000008" class="node">
<title>Node8</title>
<g id="a_Node000008"><a xlink:title=" ">
<polygon fill="#e0e0e0" stroke="#999999" points="477.12,-20.75 392.12,-20.75 392.12,0 477.12,0 477.12,-20.75"/>
<text xml:space="preserve" text-anchor="middle" x="434.62" y="-7.25" font-family="Helvetica,sans-Serif" font-size="10.00">fsl_common.h</text>
</a>
</g>
</g>
<!-- Node4&#45;&gt;Node8 -->
<g id="edge7_Node000004_Node000008" class="edge">
<title>Node4&#45;&gt;Node8</title>
<g id="a_edge7_Node000004_Node000008"><a xlink:title=" ">
<path fill="none" stroke="#63b8ff" d="M306.51,-56.34C331.5,-47.57 368.4,-34.62 396.18,-24.87"/>
<polygon fill="#63b8ff" stroke="#63b8ff" points="397.01,-28.29 405.29,-21.67 394.69,-21.68 397.01,-28.29"/>
</a>
</g>
</g>
<!-- Node9 -->
<g id="Node000009" class="node">
<title>Node9</title>
<g id="a_Node000009"><a xlink:title=" ">
<polygon fill="#e0e0e0" stroke="#999999" points="547.62,-20.75 495.62,-20.75 495.62,0 547.62,0 547.62,-20.75"/>
<text xml:space="preserve" text-anchor="middle" x="521.62" y="-7.25" font-family="Helvetica,sans-Serif" font-size="10.00">stdlib.h</text>
</a>
</g>
</g>
<!-- Node4&#45;&gt;Node9 -->
<g id="edge8_Node000004_Node000009" class="edge">
<title>Node4&#45;&gt;Node9</title>
<g id="a_edge8_Node000004_Node000009"><a xlink:title=" ">
<path fill="none" stroke="#63b8ff" d="M320.99,-57.49C360.73,-49.26 422.07,-36.2 484.11,-21.28"/>
<polygon fill="#63b8ff" stroke="#63b8ff" points="484.92,-24.68 493.81,-18.93 483.27,-17.88 484.92,-24.68"/>
</a>
</g>
</g>
</g>
</svg>
