<?xml version="1.0" encoding="UTF-8" standalone="no"?>
<!DOCTYPE svg PUBLIC "-//W3C//DTD SVG 1.1//EN"
 "http://www.w3.org/Graphics/SVG/1.1/DTD/svg11.dtd">
<!-- Generated by graphviz version 14.1.2 (0)
 -->
<!-- Title: source/tmc2209.c Pages: 1 -->
<svg width="351pt" height="142pt"
 viewBox="0.00 0.00 351.00 142.00" xmlns="http://www.w3.org/2000/svg" xmlns:xlink="http://www.w3.org/1999/xlink">

<svg id="main" version="1.1" xmlns="http://www.w3.org/2000/svg" xmlns:xlink="http://www.w3.org/1999/xlink" xml:space="preserve">

<style type="text/css"><![CDATA[
.node, .edge {opacity: 0.7;}
.node.selected, .edge.selected {opacity: 1;}
.edge:hover path { stroke: red; }
.edge:hover polygon { stroke: red; fill: red; }
]]></style>
<script type="application/ecmascript" xlink:href="svg.min.js"/>
<svg id="graph" class="graph">
<g id="graph0" class="graph" transform="scale(1 1) rotate(0) translate(4 138.25)">
<title>source/tmc2209.c</title>
<!-- Node1 -->
<g id="Node000001" class="node">
<title>Node1</title>
<g id="a_Node000001"><a xlink:title=" ">
<polygon fill="#999999" stroke="#666666" points="262,-134.25 159.75,-134.25 159.75,-113.5 262,-113.5 262,-134.25"/>
<text xml:space="preserve" text-anchor="middle" x="210.88" y="-120.75" font-family="Helvetica,sans-Serif" font-size="10.00">source/tmc2209.c</text>
</a>
</g>
</g>
<!-- Node2 -->
<g id="Node000002" class="node">
<title>Node2</title>
<g id="a_Node000002"><a xlink:href="tmc2209_8h.html" target="_top" xlink:title=" ">
<polygon fill="white" stroke="#666666" points="165.75,-77.5 98,-77.5 98,-56.75 165.75,-56.75 165.75,-77.5"/>
<text xml:space="preserve" text-anchor="middle" x="131.88" y="-64" font-family="Helvetica,sans-Serif" font-size="10.00">tmc2209.h</text>
</a>
</g>
</g>
<!-- Node1&#45;&gt;Node2 -->
<g id="edge1_Node000001_Node000002" class="edge">
<title>Node1&#45;&gt;Node2</title>
<g id="a_edge1_Node000001_Node000002"><a xlink:title=" ">
<path fill="none" stroke="#63b8ff" d="M196.75,-113.09C185.18,-105.07 168.57,-93.56 155.06,-84.19"/>
<polygon fill="#63b8ff" stroke="#63b8ff" points="157.33,-81.51 147.12,-78.69 153.35,-87.26 157.33,-81.51"/>
</a>
</g>
</g>
<!-- Node6 -->
<g id="Node000006" class="node">
<title>Node6</title>
<g id="a_Node000006"><a xlink:href="log_8h.html" target="_top" xlink:title=" ">
<polygon fill="white" stroke="#666666" points="230.88,-77.5 190.88,-77.5 190.88,-56.75 230.88,-56.75 230.88,-77.5"/>
<text xml:space="preserve" text-anchor="middle" x="210.88" y="-64" font-family="Helvetica,sans-Serif" font-size="10.00">log.h</text>
</a>
</g>
</g>
<!-- Node1&#45;&gt;Node6 -->
<g id="edge5_Node000001_Node000006" class="edge">
<title>Node1&#45;&gt;Node6</title>
<g id="a_edge5_Node000001_Node000006"><a xlink:title=" ">
<path fill="none" stroke="#63b8ff" d="M210.88,-113.09C210.88,-106.47 210.88,-97.47 210.88,-89.27"/>
<polygon fill="#63b8ff" stroke="#63b8ff" points="214.38,-89.34 210.88,-79.34 207.38,-89.34 214.38,-89.34"/>
</a>
</g>
</g>
<!-- Node8 -->
<g id="Node000008" class="node">
<title>Node8</title>
<g id="a_Node000008"><a xlink:title=" ">
<polygon fill="#e0e0e0" stroke="#999999" points="298.38,-77.5 249.38,-77.5 249.38,-56.75 298.38,-56.75 298.38,-77.5"/>
<text xml:space="preserve" text-anchor="middle" x="273.88" y="-64" font-family="Helvetica,sans-Serif" font-size="10.00">stdio.h</text>
</a>
</g>
</g>
<!-- Node1&#45;&gt;Node8 -->
<g id="edge8_Node000001_Node000008" class="edge">
<title>Node1&#45;&gt;Node8</title>
<g id="a_edge8_Node000001_Node000008"><a xlink:title=" ">
<path fill="none" stroke="#63b8ff" d="M222.14,-113.09C231.01,-105.38 243.59,-94.45 254.12,-85.29"/>
<polygon fill="#63b8ff" stroke="#63b8ff" points="256.31,-88.02 261.57,-78.82 251.72,-82.74 256.31,-88.02"/>
</a>
</g>
</g>
<!-- Node3 -->
<g id="Node000003" class="node">
<title>Node3</title>
<g id="a_Node000003"><a xlink:title=" ">
<polygon fill="#e0e0e0" stroke="#999999" points="253.38,-20.75 168.38,-20.75 168.38,0 253.38,0 253.38,-20.75"/>
<text xml:space="preserve" text-anchor="middle" x="210.88" y="-7.25" font-family="Helvetica,sans-Serif" font-size="10.00">fsl_common.h</text>
</a>
</g>
</g>
<!-- Node2&#45;&gt;Node3 -->
<g id="edge2_Node000002_Node000003" class="edge">
<title>Node2&#45;&gt;Node3</title>
<g id="a_edge2_Node000002_Node000003"><a xlink:title=" ">
<path fill="none" stroke="#63b8ff" d="M146,-56.34C157.57,-48.32 174.18,-36.81 187.69,-27.44"/>
<polygon fill="#63b8ff" stroke="#63b8ff" points="189.4,-30.51 195.63,-21.94 185.42,-24.76 189.4,-30.51"/>
</a>
</g>
</g>
<!-- Node4 -->
<g id="Node000004" class="node">
<title>Node4</title>
<g id="a_Node000004"><a xlink:title=" ">
<polygon fill="#e0e0e0" stroke="#999999" points="79.75,-20.75 0,-20.75 0,0 79.75,0 79.75,-20.75"/>
<text xml:space="preserve" text-anchor="middle" x="39.88" y="-7.25" font-family="Helvetica,sans-Serif" font-size="10.00">peripherals.h</text>
</a>
</g>
</g>
<!-- Node2&#45;&gt;Node4 -->
<g id="edge3_Node000002_Node000004" class="edge">
<title>Node2&#45;&gt;Node4</title>
<g id="a_edge3_Node000002_Node000004"><a xlink:title=" ">
<path fill="none" stroke="#63b8ff" d="M115.43,-56.34C101.69,-48.16 81.86,-36.36 65.96,-26.9"/>
<polygon fill="#63b8ff" stroke="#63b8ff" points="67.86,-23.96 57.48,-21.85 64.28,-29.97 67.86,-23.96"/>
</a>
</g>
</g>
<!-- Node5 -->
<g id="Node000005" class="node">
<title>Node5</title>
<g id="a_Node000005"><a xlink:title=" ">
<polygon fill="#e0e0e0" stroke="#999999" points="150.25,-20.75 97.5,-20.75 97.5,0 150.25,0 150.25,-20.75"/>
<text xml:space="preserve" text-anchor="middle" x="123.88" y="-7.25" font-family="Helvetica,sans-Serif" font-size="10.00">stdint.h</text>
</a>
</g>
</g>
<!-- Node2&#45;&gt;Node5 -->
<g id="edge4_Node000002_Node000005" class="edge">
<title>Node2&#45;&gt;Node5</title>
<g id="a_edge4_Node000002_Node000005"><a xlink:title=" ">
<path fill="none" stroke="#63b8ff" d="M130.44,-56.34C129.47,-49.64 128.13,-40.51 126.92,-32.23"/>
<polygon fill="#63b8ff" stroke="#63b8ff" points="130.42,-31.96 125.51,-22.58 123.49,-32.98 130.42,-31.96"/>
</a>
</g>
</g>
<!-- Node6&#45;&gt;Node3 -->
<g id="edge7_Node000006_Node000003" class="edge">
<title>Node6&#45;&gt;Node3</title>
<g id="a_edge7_Node000006_Node000003"><a xlink:title=" ">
<path fill="none" stroke="#63b8ff" d="M210.88,-56.34C210.88,-49.72 210.88,-40.72 210.88,-32.52"/>
<polygon fill="#63b8ff" stroke="#63b8ff" points="214.38,-32.59 210.88,-22.59 207.38,-32.59 214.38,-32.59"/>
</a>
</g>
</g>
<!-- Node7 -->
<g id="Node000007" class="node">
<title>Node7</title>
<g id="a_Node000007"><a xlink:title=" ">
<polygon fill="#e0e0e0" stroke="#999999" points="342.62,-20.75 271.12,-20.75 271.12,0 342.62,0 342.62,-20.75"/>
<text xml:space="preserve" text-anchor="middle" x="306.88" y="-7.25" font-family="Helvetica,sans-Serif" font-size="10.00">FreeRTOS.h</text>
</a>
</g>
</g>
<!-- Node6&#45;&gt;Node7 -->
<g id="edge6_Node000006_Node000007" class="edge">
<title>Node6&#45;&gt;Node7</title>
<g id="a_edge6_Node000006_Node000007"><a xlink:title=" ">
<path fill="none" stroke="#63b8ff" d="M228.04,-56.34C242.51,-48.08 263.46,-36.13 280.13,-26.63"/>
<polygon fill="#63b8ff" stroke="#63b8ff" points="281.59,-29.82 288.55,-21.83 278.13,-23.74 281.59,-29.82"/>
</a>
</g>
</g>
</g>
</svg>
</svg>

<style type='text/css'>
<![CDATA[
[data-mouse-over-selected='false'] { opacity: 0.7; }
[data-mouse-over-selected='true']  { opacity: 1.0; }
]]>
</style>
<script type="application/ecmascript"><![CDATA[
document.addEventListener('DOMContentLoaded', (event) => {
  highlightEdges();
  highlightAdjacentNodes();
});
]]></script>
</svg>
