<?xml version="1.0" encoding="UTF-8" standalone="no"?>
<!DOCTYPE svg PUBLIC "-//W3C//DTD SVG 1.1//EN"
 "http://www.w3.org/Graphics/SVG/1.1/DTD/svg11.dtd">
<!-- Generated by graphviz version 14.1.5 (0)
 -->
<!-- Title: source/driver/tmc2209/tmc2209_process.h Pages: 1 -->
<svg width="556pt" height="212pt"
 viewBox="0.00 0.00 556.00 212.00" xmlns="http://www.w3.org/2000/svg" xmlns:xlink="http://www.w3.org/1999/xlink">
<g id="graph0" class="graph" transform="scale(1 1) rotate(0) translate(4 207.75)">
<title>source/driver/tmc2209/tmc2209_process.h</title>
<!-- Node1 -->
<g id="Node000001" class="node">
<title>Node1</title>
<g id="a_Node000001"><a xlink:title=" ">
<polygon fill="#999999" stroke="#666666" points="347.38,-203.75 221.88,-203.75 221.88,-170.25 347.38,-170.25 347.38,-203.75"/>
<text xml:space="preserve" text-anchor="start" x="229.88" y="-190.25" font-family="Helvetica,sans-Serif" font-size="10.00">source/driver/tmc2209</text>
<text xml:space="preserve" text-anchor="middle" x="284.62" y="-177.5" font-family="Helvetica,sans-Serif" font-size="10.00">/tmc2209_process.h</text>
</a>
</g>
</g>
<!-- Node2 -->
<g id="Node000002" class="node">
<title>Node2</title>
<g id="a_Node000002"><a xlink:href="tmc2209__shared_8h.html" target="_top" xlink:title=" ">
<polygon fill="white" stroke="#666666" points="204.62,-77.5 98.62,-77.5 98.62,-56.75 204.62,-56.75 204.62,-77.5"/>
<text xml:space="preserve" text-anchor="middle" x="151.62" y="-64" font-family="Helvetica,sans-Serif" font-size="10.00">tmc2209_shared.h</text>
</a>
</g>
</g>
<!-- Node1&#45;&gt;Node2 -->
<g id="edge1_Node000001_Node000002" class="edge">
<title>Node1&#45;&gt;Node2</title>
<g id="a_edge1_Node000001_Node000002"><a xlink:title=" ">
<path fill="none" stroke="#63b8ff" d="M234.22,-169.77C215.15,-161.59 194.48,-149.99 179.62,-134.25 167.71,-121.63 160.47,-103.18 156.35,-88.97"/>
<polygon fill="#63b8ff" stroke="#63b8ff" points="159.74,-88.12 153.87,-79.3 152.96,-89.86 159.74,-88.12"/>
</a>
</g>
</g>
<!-- Node5 -->
<g id="Node000005" class="node">
<title>Node5</title>
<g id="a_Node000005"><a xlink:href="cmd__handle_8h.html" target="_top" xlink:title=" ">
<polygon fill="white" stroke="#666666" points="368.75,-77.5 284.5,-77.5 284.5,-56.75 368.75,-56.75 368.75,-77.5"/>
<text xml:space="preserve" text-anchor="middle" x="326.62" y="-64" font-family="Helvetica,sans-Serif" font-size="10.00">cmd_handle.h</text>
</a>
</g>
</g>
<!-- Node1&#45;&gt;Node5 -->
<g id="edge4_Node000001_Node000005" class="edge">
<title>Node1&#45;&gt;Node5</title>
<g id="a_edge4_Node000001_Node000005"><a xlink:title=" ">
<path fill="none" stroke="#63b8ff" d="M292.46,-169.92C297.21,-159.82 303.19,-146.45 307.62,-134.25 313.07,-119.28 318,-101.96 321.47,-88.8"/>
<polygon fill="#63b8ff" stroke="#63b8ff" points="324.86,-89.7 323.95,-79.14 318.08,-87.96 324.86,-89.7"/>
</a>
</g>
</g>
<!-- Node8 -->
<g id="Node000008" class="node">
<title>Node8</title>
<g id="a_Node000008"><a xlink:title=" ">
<polygon fill="#e0e0e0" stroke="#999999" points="548.12,-20.75 463.12,-20.75 463.12,0 548.12,0 548.12,-20.75"/>
<text xml:space="preserve" text-anchor="middle" x="505.62" y="-7.25" font-family="Helvetica,sans-Serif" font-size="10.00">fsl_common.h</text>
</a>
</g>
</g>
<!-- Node1&#45;&gt;Node8 -->
<g id="edge10_Node000001_Node000008" class="edge">
<title>Node1&#45;&gt;Node8</title>
<g id="a_edge10_Node000001_Node000008"><a xlink:title=" ">
<path fill="none" stroke="#63b8ff" d="M305.02,-169.88C346.76,-136.91 441.55,-62 484.17,-28.33"/>
<polygon fill="#63b8ff" stroke="#63b8ff" points="486.27,-31.13 491.94,-22.19 481.93,-25.64 486.27,-31.13"/>
</a>
</g>
</g>
<!-- Node10 -->
<g id="Node000010" class="node">
<title>Node10</title>
<g id="a_Node000010"><a xlink:href="tmc2209__internal_8h.html" target="_top" xlink:title=" ">
<polygon fill="white" stroke="#666666" points="298.88,-134.25 188.38,-134.25 188.38,-113.5 298.88,-113.5 298.88,-134.25"/>
<text xml:space="preserve" text-anchor="middle" x="243.62" y="-120.75" font-family="Helvetica,sans-Serif" font-size="10.00">tmc2209_internal.h</text>
</a>
</g>
</g>
<!-- Node1&#45;&gt;Node10 -->
<g id="edge11_Node000001_Node000010" class="edge">
<title>Node1&#45;&gt;Node10</title>
<g id="a_edge11_Node000001_Node000010"><a xlink:title=" ">
<path fill="none" stroke="#63b8ff" d="M273.85,-169.94C268.52,-161.99 262.05,-152.34 256.46,-144.02"/>
<polygon fill="#63b8ff" stroke="#63b8ff" points="259.55,-142.33 251.07,-135.97 253.73,-146.23 259.55,-142.33"/>
</a>
</g>
</g>
<!-- Node3 -->
<g id="Node000003" class="node">
<title>Node3</title>
<g id="a_Node000003"><a xlink:title=" ">
<polygon fill="#e0e0e0" stroke="#999999" points="176,-20.75 123.25,-20.75 123.25,0 176,0 176,-20.75"/>
<text xml:space="preserve" text-anchor="middle" x="149.62" y="-7.25" font-family="Helvetica,sans-Serif" font-size="10.00">stdint.h</text>
</a>
</g>
</g>
<!-- Node2&#45;&gt;Node3 -->
<g id="edge2_Node000002_Node000003" class="edge">
<title>Node2&#45;&gt;Node3</title>
<g id="a_edge2_Node000002_Node000003"><a xlink:title=" ">
<path fill="none" stroke="#63b8ff" d="M151.27,-56.34C151.03,-49.72 150.7,-40.72 150.4,-32.52"/>
<polygon fill="#63b8ff" stroke="#63b8ff" points="153.9,-32.46 150.03,-22.59 146.9,-32.71 153.9,-32.46"/>
</a>
</g>
</g>
<!-- Node4 -->
<g id="Node000004" class="node">
<title>Node4</title>
<g id="a_Node000004"><a xlink:title=" ">
<polygon fill="#e0e0e0" stroke="#999999" points="105.25,-20.75 0,-20.75 0,0 105.25,0 105.25,-20.75"/>
<text xml:space="preserve" text-anchor="middle" x="52.62" y="-7.25" font-family="Helvetica,sans-Serif" font-size="10.00">fsl_uart_freertos.h</text>
</a>
</g>
</g>
<!-- Node2&#45;&gt;Node4 -->
<g id="edge3_Node000002_Node000004" class="edge">
<title>Node2&#45;&gt;Node4</title>
<g id="a_edge3_Node000002_Node000004"><a xlink:title=" ">
<path fill="none" stroke="#63b8ff" d="M133.93,-56.34C119,-48.08 97.39,-36.13 80.2,-26.63"/>
<polygon fill="#63b8ff" stroke="#63b8ff" points="81.94,-23.59 71.5,-21.81 78.55,-29.71 81.94,-23.59"/>
</a>
</g>
</g>
<!-- Node5&#45;&gt;Node3 -->
<g id="edge5_Node000005_Node000003" class="edge">
<title>Node5&#45;&gt;Node3</title>
<g id="a_edge5_Node000005_Node000003"><a xlink:title=" ">
<path fill="none" stroke="#63b8ff" d="M294.98,-56.34C264.74,-46.98 219.13,-32.88 187.09,-22.96"/>
<polygon fill="#63b8ff" stroke="#63b8ff" points="188.4,-19.71 177.82,-20.09 186.33,-26.39 188.4,-19.71"/>
</a>
</g>
</g>
<!-- Node6 -->
<g id="Node000006" class="node">
<title>Node6</title>
<g id="a_Node000006"><a xlink:title=" ">
<polygon fill="#e0e0e0" stroke="#999999" points="265.38,-20.75 193.88,-20.75 193.88,0 265.38,0 265.38,-20.75"/>
<text xml:space="preserve" text-anchor="middle" x="229.62" y="-7.25" font-family="Helvetica,sans-Serif" font-size="10.00">FreeRTOS.h</text>
</a>
</g>
</g>
<!-- Node5&#45;&gt;Node6 -->
<g id="edge6_Node000005_Node000006" class="edge">
<title>Node5&#45;&gt;Node6</title>
<g id="a_edge6_Node000005_Node000006"><a xlink:title=" ">
<path fill="none" stroke="#63b8ff" d="M309.28,-56.34C294.66,-48.08 273.49,-36.13 256.65,-26.63"/>
<polygon fill="#63b8ff" stroke="#63b8ff" points="258.56,-23.69 248.13,-21.82 255.12,-29.79 258.56,-23.69"/>
</a>
</g>
</g>
<!-- Node7 -->
<g id="Node000007" class="node">
<title>Node7</title>
<g id="a_Node000007"><a xlink:title=" ">
<polygon fill="#e0e0e0" stroke="#999999" points="374.12,-20.75 283.12,-20.75 283.12,0 374.12,0 374.12,-20.75"/>
<text xml:space="preserve" text-anchor="middle" x="328.62" y="-7.25" font-family="Helvetica,sans-Serif" font-size="10.00">event_groups.h</text>
</a>
</g>
</g>
<!-- Node5&#45;&gt;Node7 -->
<g id="edge7_Node000005_Node000007" class="edge">
<title>Node5&#45;&gt;Node7</title>
<g id="a_edge7_Node000005_Node000007"><a xlink:title=" ">
<path fill="none" stroke="#63b8ff" d="M326.98,-56.34C327.22,-49.72 327.55,-40.72 327.85,-32.52"/>
<polygon fill="#63b8ff" stroke="#63b8ff" points="331.35,-32.71 328.22,-22.59 324.35,-32.46 331.35,-32.71"/>
</a>
</g>
</g>
<!-- Node5&#45;&gt;Node8 -->
<g id="edge8_Node000005_Node000008" class="edge">
<title>Node5&#45;&gt;Node8</title>
<g id="a_edge8_Node000005_Node000008"><a xlink:title=" ">
<path fill="none" stroke="#63b8ff" d="M358.63,-56.34C387.68,-47.45 430.76,-34.27 462.78,-24.48"/>
<polygon fill="#63b8ff" stroke="#63b8ff" points="463.61,-27.89 472.15,-21.61 461.57,-21.19 463.61,-27.89"/>
</a>
</g>
</g>
<!-- Node9 -->
<g id="Node000009" class="node">
<title>Node9</title>
<g id="a_Node000009"><a xlink:title=" ">
<polygon fill="#e0e0e0" stroke="#999999" points="444.62,-20.75 392.62,-20.75 392.62,0 444.62,0 444.62,-20.75"/>
<text xml:space="preserve" text-anchor="middle" x="418.62" y="-7.25" font-family="Helvetica,sans-Serif" font-size="10.00">stdlib.h</text>
</a>
</g>
</g>
<!-- Node5&#45;&gt;Node9 -->
<g id="edge9_Node000005_Node000009" class="edge">
<title>Node5&#45;&gt;Node9</title>
<g id="a_edge9_Node000005_Node000009"><a xlink:title=" ">
<path fill="none" stroke="#63b8ff" d="M343.07,-56.34C356.81,-48.16 376.64,-36.36 392.54,-26.9"/>
<polygon fill="#63b8ff" stroke="#63b8ff" points="394.22,-29.97 401.02,-21.85 390.64,-23.96 394.22,-29.97"/>
</a>
</g>
</g>
<!-- Node10&#45;&gt;Node2 -->
<g id="edge12_Node000010_Node000002" class="edge">
<title>Node10&#45;&gt;Node2</title>
<g id="a_edge12_Node000010_Node000002"><a xlink:title=" ">
<path fill="none" stroke="#63b8ff" d="M227.18,-113.09C213.44,-104.91 193.61,-93.11 177.71,-83.65"/>
<polygon fill="#63b8ff" stroke="#63b8ff" points="179.61,-80.71 169.23,-78.6 176.03,-86.72 179.61,-80.71"/>
</a>
</g>
</g>
<!-- Node10&#45;&gt;Node5 -->
<g id="edge13_Node000010_Node000005" class="edge">
<title>Node10&#45;&gt;Node5</title>
<g id="a_edge13_Node000010_Node000005"><a xlink:title=" ">
<path fill="none" stroke="#63b8ff" d="M258.46,-113.09C270.74,-104.99 288.41,-93.33 302.68,-83.92"/>
<polygon fill="#63b8ff" stroke="#63b8ff" points="304.23,-87.09 310.65,-78.66 300.38,-81.25 304.23,-87.09"/>
</a>
</g>
</g>
</g>
</svg>
