<?xml version="1.0" encoding="UTF-8" standalone="no"?>
<!DOCTYPE svg PUBLIC "-//W3C//DTD SVG 1.1//EN"
 "http://www.w3.org/Graphics/SVG/1.1/DTD/svg11.dtd">
<!-- Generated by graphviz version 14.1.5 (0)
 -->
<!-- Title: source/driver/tmc2209/tmc2209_core.h Pages: 1 -->
<svg width="2036pt" height="427pt"
 viewBox="0.00 0.00 2036.00 427.00" xmlns="http://www.w3.org/2000/svg" xmlns:xlink="http://www.w3.org/1999/xlink">
<g id="graph0" class="graph" transform="scale(1 1) rotate(0) translate(4 423.25)">
<title>source/driver/tmc2209/tmc2209_core.h</title>
<!-- Node1 -->
<g id="Node000001" class="node">
<title>Node1</title>
<g id="a_Node000001"><a xlink:title=" ">
<polygon fill="#999999" stroke="#666666" points="855.75,-419.25 730.25,-419.25 730.25,-385.75 855.75,-385.75 855.75,-419.25"/>
<text xml:space="preserve" text-anchor="start" x="738.25" y="-405.75" font-family="Helvetica,sans-Serif" font-size="10.00">source/driver/tmc2209</text>
<text xml:space="preserve" text-anchor="middle" x="793" y="-393" font-family="Helvetica,sans-Serif" font-size="10.00">/tmc2209_core.h</text>
</a>
</g>
</g>
<!-- Node2 -->
<g id="Node000002" class="node">
<title>Node2</title>
<g id="a_Node000002"><a xlink:href="application_8c.html" target="_top" xlink:title=" ">
<polygon fill="white" stroke="#666666" points="1836.75,-198 1723.25,-198 1723.25,-177.25 1836.75,-177.25 1836.75,-198"/>
<text xml:space="preserve" text-anchor="middle" x="1780" y="-184.5" font-family="Helvetica,sans-Serif" font-size="10.00">source/application.c</text>
</a>
</g>
</g>
<!-- Node1&#45;&gt;Node2 -->
<g id="edge1_Node000001_Node000002" class="edge">
<title>Node1&#45;&gt;Node2</title>
<g id="a_edge1_Node000001_Node000002"><a xlink:title=" ">
<path fill="none" stroke="#63b8ff" d="M867.08,-400.33C1013.83,-395.91 1350.01,-375.29 1613,-280.25 1673.34,-258.45 1738.13,-217.07 1765.98,-198.31"/>
<polygon fill="#63b8ff" stroke="#63b8ff" points="867.41,-396.82 857.52,-400.6 867.61,-403.81 867.41,-396.82"/>
</a>
</g>
</g>
<!-- Node3 -->
<g id="Node000003" class="node">
<title>Node3</title>
<g id="a_Node000003"><a xlink:href="tmc2209__core_8c.html" target="_top" xlink:title=" ">
<polygon fill="white" stroke="#666666" points="764.75,-349.75 639.25,-349.75 639.25,-316.25 764.75,-316.25 764.75,-349.75"/>
<text xml:space="preserve" text-anchor="start" x="647.25" y="-336.25" font-family="Helvetica,sans-Serif" font-size="10.00">source/driver/tmc2209</text>
<text xml:space="preserve" text-anchor="middle" x="702" y="-323.5" font-family="Helvetica,sans-Serif" font-size="10.00">/tmc2209_core.c</text>
</a>
</g>
</g>
<!-- Node1&#45;&gt;Node3 -->
<g id="edge2_Node000001_Node000003" class="edge">
<title>Node1&#45;&gt;Node3</title>
<g id="a_edge2_Node000001_Node000003"><a xlink:title=" ">
<path fill="none" stroke="#63b8ff" d="M762.55,-378.91C749.83,-369.48 735.34,-358.73 723.73,-350.12"/>
<polygon fill="#63b8ff" stroke="#63b8ff" points="760.1,-381.46 770.22,-384.6 764.27,-375.83 760.1,-381.46"/>
</a>
</g>
</g>
<!-- Node4 -->
<g id="Node000004" class="node">
<title>Node4</title>
<g id="a_Node000004"><a xlink:href="motor__core_8h.html" target="_top" xlink:title=" ">
<polygon fill="white" stroke="#666666" points="1246,-349.75 1128,-349.75 1128,-316.25 1246,-316.25 1246,-349.75"/>
<text xml:space="preserve" text-anchor="start" x="1136" y="-336.25" font-family="Helvetica,sans-Serif" font-size="10.00">source/motion/motor</text>
<text xml:space="preserve" text-anchor="middle" x="1187" y="-323.5" font-family="Helvetica,sans-Serif" font-size="10.00">/motor_core.h</text>
</a>
</g>
</g>
<!-- Node1&#45;&gt;Node4 -->
<g id="edge3_Node000001_Node000004" class="edge">
<title>Node1&#45;&gt;Node4</title>
<g id="a_edge3_Node000001_Node000004"><a xlink:title=" ">
<path fill="none" stroke="#63b8ff" d="M867.15,-388.8C942.57,-375.88 1057.97,-356.11 1127.58,-344.18"/>
<polygon fill="#63b8ff" stroke="#63b8ff" points="866.62,-385.34 857.36,-390.47 867.81,-392.24 866.62,-385.34"/>
</a>
</g>
</g>
<!-- Node14 -->
<g id="Node000014" class="node">
<title>Node14</title>
<g id="a_Node000014"><a xlink:href="motor__init_8c.html" target="_top" xlink:title=" ">
<polygon fill="white" stroke="#666666" points="526,-122.12 408,-122.12 408,-88.62 526,-88.62 526,-122.12"/>
<text xml:space="preserve" text-anchor="start" x="416" y="-108.62" font-family="Helvetica,sans-Serif" font-size="10.00">source/motion/motor</text>
<text xml:space="preserve" text-anchor="middle" x="467" y="-95.88" font-family="Helvetica,sans-Serif" font-size="10.00">/motor_init.c</text>
</a>
</g>
</g>
<!-- Node1&#45;&gt;Node14 -->
<g id="edge60_Node000001_Node000014" class="edge">
<title>Node1&#45;&gt;Node14</title>
<g id="a_edge60_Node000001_Node000014"><a xlink:title=" ">
<path fill="none" stroke="#63b8ff" d="M795.27,-373.96C797.72,-324.26 795.02,-219.63 736,-164.5 669.68,-102.55 623.02,-150.59 535,-128.5 528.14,-126.78 520.96,-124.73 513.95,-122.58"/>
<polygon fill="#63b8ff" stroke="#63b8ff" points="791.79,-373.64 794.66,-383.84 798.77,-374.07 791.79,-373.64"/>
</a>
</g>
</g>
<!-- Node21 -->
<g id="Node000021" class="node">
<title>Node21</title>
<g id="a_Node000021"><a xlink:href="motor__tmc_8c.html" target="_top" xlink:title=" ">
<polygon fill="white" stroke="#666666" points="118,-122.12 0,-122.12 0,-88.62 118,-88.62 118,-122.12"/>
<text xml:space="preserve" text-anchor="start" x="8" y="-108.62" font-family="Helvetica,sans-Serif" font-size="10.00">source/motion/motor</text>
<text xml:space="preserve" text-anchor="middle" x="59" y="-95.88" font-family="Helvetica,sans-Serif" font-size="10.00">/motor_tmc.c</text>
</a>
</g>
</g>
<!-- Node1&#45;&gt;Node21 -->
<g id="edge61_Node000001_Node000021" class="edge">
<title>Node1&#45;&gt;Node21</title>
<g id="a_edge61_Node000001_Node000021"><a xlink:title=" ">
<path fill="none" stroke="#63b8ff" d="M718.51,-398.04C594.22,-390.02 338.67,-363.91 141,-280.25 91.83,-259.44 67.51,-258.19 43,-210.75 28.27,-182.25 41.16,-143.94 50.78,-122.55"/>
<polygon fill="#63b8ff" stroke="#63b8ff" points="718.05,-401.52 728.25,-398.64 718.49,-394.53 718.05,-401.52"/>
</a>
</g>
</g>
<!-- Node4&#45;&gt;Node2 -->
<g id="edge4_Node000004_Node000002" class="edge">
<title>Node4&#45;&gt;Node2</title>
<g id="a_edge4_Node000004_Node000002"><a xlink:title=" ">
<path fill="none" stroke="#63b8ff" d="M1257.22,-327.03C1331.26,-320.63 1450.84,-306.99 1551,-280.25 1631.26,-258.82 1721.39,-217.25 1760.33,-198.37"/>
<polygon fill="#63b8ff" stroke="#63b8ff" points="1257.36,-323.51 1247.69,-327.83 1257.95,-330.48 1257.36,-323.51"/>
</a>
</g>
</g>
<!-- Node5 -->
<g id="Node000005" class="node">
<title>Node5</title>
<g id="a_Node000005"><a xlink:href="grabber_8c.html" target="_top" xlink:title=" ">
<polygon fill="white" stroke="#666666" points="2028.12,-122.12 1901.88,-122.12 1901.88,-88.62 2028.12,-88.62 2028.12,-122.12"/>
<text xml:space="preserve" text-anchor="start" x="1909.88" y="-108.62" font-family="Helvetica,sans-Serif" font-size="10.00">source/motion/grabber</text>
<text xml:space="preserve" text-anchor="middle" x="1965" y="-95.88" font-family="Helvetica,sans-Serif" font-size="10.00">/grabber.c</text>
</a>
</g>
</g>
<!-- Node4&#45;&gt;Node5 -->
<g id="edge5_Node000004_Node000005" class="edge">
<title>Node4&#45;&gt;Node5</title>
<g id="a_edge5_Node000004_Node000005"><a xlink:title=" ">
<path fill="none" stroke="#63b8ff" d="M1257.82,-326.78C1445.98,-312.16 1947.22,-268.14 1993,-210.75 2013.83,-184.64 1992.15,-144.38 1977.01,-122.27"/>
<polygon fill="#63b8ff" stroke="#63b8ff" points="1257.63,-323.28 1247.92,-327.54 1258.16,-330.26 1257.63,-323.28"/>
</a>
</g>
</g>
<!-- Node6 -->
<g id="Node000006" class="node">
<title>Node6</title>
<g id="a_Node000006"><a xlink:href="motor__homing_8c.html" target="_top" xlink:title=" ">
<polygon fill="white" stroke="#666666" points="1245.75,-122.12 1120.25,-122.12 1120.25,-88.62 1245.75,-88.62 1245.75,-122.12"/>
<text xml:space="preserve" text-anchor="start" x="1128.25" y="-108.62" font-family="Helvetica,sans-Serif" font-size="10.00">source/motion/homing</text>
<text xml:space="preserve" text-anchor="middle" x="1183" y="-95.88" font-family="Helvetica,sans-Serif" font-size="10.00">/motor_homing.c</text>
</a>
</g>
</g>
<!-- Node4&#45;&gt;Node6 -->
<g id="edge6_Node000004_Node000006" class="edge">
<title>Node4&#45;&gt;Node6</title>
<g id="a_edge6_Node000004_Node000006"><a xlink:title=" ">
<path fill="none" stroke="#63b8ff" d="M1186.51,-304.52C1185.67,-256.93 1183.96,-160.6 1183.29,-122.45"/>
<polygon fill="#63b8ff" stroke="#63b8ff" points="1183.01,-304.32 1186.69,-314.26 1190.01,-304.2 1183.01,-304.32"/>
</a>
</g>
</g>
<!-- Node7 -->
<g id="Node000007" class="node">
<title>Node7</title>
<g id="a_Node000007"><a xlink:href="motor__convert_8h.html" target="_top" xlink:title=" ">
<polygon fill="white" stroke="#666666" points="939,-204.38 821,-204.38 821,-170.88 939,-170.88 939,-204.38"/>
<text xml:space="preserve" text-anchor="start" x="829" y="-190.88" font-family="Helvetica,sans-Serif" font-size="10.00">source/motion/motor</text>
<text xml:space="preserve" text-anchor="middle" x="880" y="-178.12" font-family="Helvetica,sans-Serif" font-size="10.00">/motor_convert.h</text>
</a>
</g>
</g>
<!-- Node4&#45;&gt;Node7 -->
<g id="edge7_Node000004_Node000007" class="edge">
<title>Node4&#45;&gt;Node7</title>
<g id="a_edge7_Node000004_Node000007"><a xlink:title=" ">
<path fill="none" stroke="#63b8ff" d="M1116.14,-328.67C1067.14,-323.55 1002.18,-310.94 953,-280.25 922.8,-261.41 899.78,-225.51 888.23,-204.68"/>
<polygon fill="#63b8ff" stroke="#63b8ff" points="1115.81,-332.16 1126.09,-329.62 1116.47,-325.19 1115.81,-332.16"/>
</a>
</g>
</g>
<!-- Node11 -->
<g id="Node000011" class="node">
<title>Node11</title>
<g id="a_Node000011"><a xlink:href="motorCmd_8c.html" target="_top" xlink:title=" ">
<polygon fill="white" stroke="#666666" points="1063.62,-115.75 952.38,-115.75 952.38,-95 1063.62,-95 1063.62,-115.75"/>
<text xml:space="preserve" text-anchor="middle" x="1008" y="-102.25" font-family="Helvetica,sans-Serif" font-size="10.00">source/motorCmd.c</text>
</a>
</g>
</g>
<!-- Node4&#45;&gt;Node11 -->
<g id="edge53_Node000004_Node000011" class="edge">
<title>Node4&#45;&gt;Node11</title>
<g id="a_edge53_Node000004_Node000011"><a xlink:title=" ">
<path fill="none" stroke="#63b8ff" d="M1128,-311.56C1083.98,-292.83 1026.97,-260.37 1000,-210.75 983.08,-179.61 996.58,-135.35 1003.97,-116.03"/>
<polygon fill="#63b8ff" stroke="#63b8ff" points="1126.62,-314.78 1137.2,-315.34 1129.28,-308.3 1126.62,-314.78"/>
</a>
</g>
</g>
<!-- Node12 -->
<g id="Node000012" class="node">
<title>Node12</title>
<g id="a_Node000012"><a xlink:href="motor__core_8c.html" target="_top" xlink:title=" ">
<polygon fill="white" stroke="#666666" points="254,-122.12 136,-122.12 136,-88.62 254,-88.62 254,-122.12"/>
<text xml:space="preserve" text-anchor="start" x="144" y="-108.62" font-family="Helvetica,sans-Serif" font-size="10.00">source/motion/motor</text>
<text xml:space="preserve" text-anchor="middle" x="195" y="-95.88" font-family="Helvetica,sans-Serif" font-size="10.00">/motor_core.c</text>
</a>
</g>
</g>
<!-- Node4&#45;&gt;Node12 -->
<g id="edge13_Node000004_Node000012" class="edge">
<title>Node4&#45;&gt;Node12</title>
<g id="a_edge13_Node000004_Node000012"><a xlink:title=" ">
<path fill="none" stroke="#63b8ff" d="M1116.57,-329.91C880.13,-322.16 125.61,-291.27 56,-210.75 42.56,-195.2 44.61,-181.61 56,-164.5 61.6,-156.09 111.07,-136.66 149.42,-122.58"/>
<polygon fill="#63b8ff" stroke="#63b8ff" points="1116.14,-333.4 1126.25,-330.22 1116.37,-326.4 1116.14,-333.4"/>
</a>
</g>
</g>
<!-- Node13 -->
<g id="Node000013" class="node">
<title>Node13</title>
<g id="a_Node000013"><a xlink:href="motor__init_8h.html" target="_top" xlink:title=" ">
<polygon fill="white" stroke="#666666" points="591,-204.38 473,-204.38 473,-170.88 591,-170.88 591,-204.38"/>
<text xml:space="preserve" text-anchor="start" x="481" y="-190.88" font-family="Helvetica,sans-Serif" font-size="10.00">source/motion/motor</text>
<text xml:space="preserve" text-anchor="middle" x="532" y="-178.12" font-family="Helvetica,sans-Serif" font-size="10.00">/motor_init.h</text>
</a>
</g>
</g>
<!-- Node4&#45;&gt;Node13 -->
<g id="edge14_Node000004_Node000013" class="edge">
<title>Node4&#45;&gt;Node13</title>
<g id="a_edge14_Node000004_Node000013"><a xlink:title=" ">
<path fill="none" stroke="#63b8ff" d="M1116.66,-320.4C1005.82,-301.48 784.18,-260.97 600,-210.75 593.41,-208.95 586.52,-206.91 579.75,-204.8"/>
<polygon fill="#63b8ff" stroke="#63b8ff" points="1115.75,-323.8 1126.19,-322.02 1116.92,-316.9 1115.75,-323.8"/>
</a>
</g>
</g>
<!-- Node16 -->
<g id="Node000016" class="node">
<title>Node16</title>
<g id="a_Node000016"><a xlink:href="motor__internal_8h.html" target="_top" xlink:title=" ">
<polygon fill="white" stroke="#666666" points="659,-280.25 541,-280.25 541,-246.75 659,-246.75 659,-280.25"/>
<text xml:space="preserve" text-anchor="start" x="549" y="-266.75" font-family="Helvetica,sans-Serif" font-size="10.00">source/motion/motor</text>
<text xml:space="preserve" text-anchor="middle" x="600" y="-254" font-family="Helvetica,sans-Serif" font-size="10.00">/motor_internal.h</text>
</a>
</g>
</g>
<!-- Node4&#45;&gt;Node16 -->
<g id="edge17_Node000004_Node000016" class="edge">
<title>Node4&#45;&gt;Node16</title>
<g id="a_edge17_Node000004_Node000016"><a xlink:title=" ">
<path fill="none" stroke="#63b8ff" d="M1116.48,-323.89C999.69,-310.46 768.23,-283.85 659.3,-271.32"/>
<polygon fill="#63b8ff" stroke="#63b8ff" points="1115.92,-327.35 1126.25,-325.01 1116.72,-320.4 1115.92,-327.35"/>
</a>
</g>
</g>
<!-- Node18 -->
<g id="Node000018" class="node">
<title>Node18</title>
<g id="a_Node000018"><a xlink:href="scara__kinematics_8c.html" target="_top" xlink:title=" ">
<polygon fill="white" stroke="#666666" points="1528,-39.88 1356,-39.88 1356,-6.38 1528,-6.38 1528,-39.88"/>
<text xml:space="preserve" text-anchor="start" x="1364" y="-26.38" font-family="Helvetica,sans-Serif" font-size="10.00">source/motion/scara</text>
<text xml:space="preserve" text-anchor="middle" x="1442" y="-13.62" font-family="Helvetica,sans-Serif" font-size="10.00">_kinematics/scara_kinematics.c</text>
</a>
</g>
</g>
<!-- Node4&#45;&gt;Node18 -->
<g id="edge39_Node000004_Node000018" class="edge">
<title>Node4&#45;&gt;Node18</title>
<g id="a_edge39_Node000004_Node000018"><a xlink:title=" ">
<path fill="none" stroke="#63b8ff" d="M1195.48,-305.05C1214.06,-247.43 1259.39,-114.85 1293,-82.25 1313.53,-62.34 1341.66,-49.04 1367.95,-40.25"/>
<polygon fill="#63b8ff" stroke="#63b8ff" points="1192.2,-303.8 1192.49,-314.39 1198.87,-305.93 1192.2,-303.8"/>
</a>
</g>
</g>
<!-- Node19 -->
<g id="Node000019" class="node">
<title>Node19</title>
<g id="a_Node000019"><a xlink:href="motor__test_8c.html" target="_top" xlink:title=" ">
<polygon fill="white" stroke="#666666" points="1414.38,-115.75 1301.62,-115.75 1301.62,-95 1414.38,-95 1414.38,-115.75"/>
<text xml:space="preserve" text-anchor="middle" x="1358" y="-102.25" font-family="Helvetica,sans-Serif" font-size="10.00">source/motor_test.c</text>
</a>
</g>
</g>
<!-- Node4&#45;&gt;Node19 -->
<g id="edge59_Node000004_Node000019" class="edge">
<title>Node4&#45;&gt;Node19</title>
<g id="a_edge59_Node000004_Node000019"><a xlink:title=" ">
<path fill="none" stroke="#63b8ff" d="M1215.2,-308.28C1223.7,-300.07 1232.49,-290.37 1239,-280.25 1268.7,-234.1 1249.37,-208.62 1282,-164.5 1297.61,-143.4 1322.9,-126.2 1339.98,-116.13"/>
<polygon fill="#63b8ff" stroke="#63b8ff" points="1212.97,-305.57 1208,-314.93 1217.72,-310.72 1212.97,-305.57"/>
</a>
</g>
</g>
<!-- Node25 -->
<g id="Node000025" class="node">
<title>Node25</title>
<g id="a_Node000025"><a xlink:href="scara__kinematics_8h.html" target="_top" xlink:title=" ">
<polygon fill="white" stroke="#666666" points="1542.38,-280.25 1369.62,-280.25 1369.62,-246.75 1542.38,-246.75 1542.38,-280.25"/>
<text xml:space="preserve" text-anchor="start" x="1377.62" y="-266.75" font-family="Helvetica,sans-Serif" font-size="10.00">source/motion/scara</text>
<text xml:space="preserve" text-anchor="middle" x="1456" y="-254" font-family="Helvetica,sans-Serif" font-size="10.00">_kinematics/scara_kinematics.h</text>
</a>
</g>
</g>
<!-- Node4&#45;&gt;Node25 -->
<g id="edge40_Node000004_Node000025" class="edge">
<title>Node4&#45;&gt;Node25</title>
<g id="a_edge40_Node000004_Node000025"><a xlink:title=" ">
<path fill="none" stroke="#63b8ff" d="M1257.51,-314.31C1299.04,-303.89 1351.19,-290.8 1391.61,-280.66"/>
<polygon fill="#63b8ff" stroke="#63b8ff" points="1256.68,-310.91 1247.83,-316.73 1258.39,-317.7 1256.68,-310.91"/>
</a>
</g>
</g>
<!-- Node30 -->
<g id="Node000030" class="node">
<title>Node30</title>
<g id="a_Node000030"><a xlink:href="motor__configs_8h.html" target="_top" xlink:title=" ">
<polygon fill="white" stroke="#666666" points="1983.62,-198 1854.38,-198 1854.38,-177.25 1983.62,-177.25 1983.62,-198"/>
<text xml:space="preserve" text-anchor="middle" x="1919" y="-184.5" font-family="Helvetica,sans-Serif" font-size="10.00">source/motor_configs.h</text>
</a>
</g>
</g>
<!-- Node4&#45;&gt;Node30 -->
<g id="edge54_Node000004_Node000030" class="edge">
<title>Node4&#45;&gt;Node30</title>
<g id="a_edge54_Node000004_Node000030"><a xlink:title=" ">
<path fill="none" stroke="#63b8ff" d="M1257.76,-327.08C1342.77,-320.33 1489.4,-306 1613,-280.25 1718.79,-258.21 1742.51,-241.87 1846,-210.75 1859.32,-206.75 1873.99,-202.3 1886.67,-198.46"/>
<polygon fill="#63b8ff" stroke="#63b8ff" points="1257.64,-323.58 1247.94,-327.85 1258.18,-330.56 1257.64,-323.58"/>
</a>
</g>
</g>
<!-- Node7&#45;&gt;Node6 -->
<g id="edge8_Node000007_Node000006" class="edge">
<title>Node7&#45;&gt;Node6</title>
<g id="a_edge8_Node000007_Node000006"><a xlink:title=" ">
<path fill="none" stroke="#63b8ff" d="M950.25,-168.02C1002.12,-154.28 1072.04,-135.76 1121.67,-122.62"/>
<polygon fill="#63b8ff" stroke="#63b8ff" points="949.37,-164.63 940.6,-170.57 951.17,-171.4 949.37,-164.63"/>
</a>
</g>
</g>
<!-- Node8 -->
<g id="Node000008" class="node">
<title>Node8</title>
<g id="a_Node000008"><a xlink:href="motor__convert_8c.html" target="_top" xlink:title=" ">
<polygon fill="white" stroke="#666666" points="934,-122.12 816,-122.12 816,-88.62 934,-88.62 934,-122.12"/>
<text xml:space="preserve" text-anchor="start" x="824" y="-108.62" font-family="Helvetica,sans-Serif" font-size="10.00">source/motion/motor</text>
<text xml:space="preserve" text-anchor="middle" x="875" y="-95.88" font-family="Helvetica,sans-Serif" font-size="10.00">/motor_convert.c</text>
</a>
</g>
</g>
<!-- Node7&#45;&gt;Node8 -->
<g id="edge9_Node000007_Node000008" class="edge">
<title>Node7&#45;&gt;Node8</title>
<g id="a_edge9_Node000007_Node000008"><a xlink:title=" ">
<path fill="none" stroke="#63b8ff" d="M878.28,-159C877.52,-146.86 876.66,-133.03 876.01,-122.59"/>
<polygon fill="#63b8ff" stroke="#63b8ff" points="874.78,-159.11 878.89,-168.87 881.77,-158.68 874.78,-159.11"/>
</a>
</g>
</g>
<!-- Node9 -->
<g id="Node000009" class="node">
<title>Node9</title>
<g id="a_Node000009"><a xlink:href="motor__motion_8c.html" target="_top" xlink:title=" ">
<polygon fill="white" stroke="#666666" points="662,-122.12 544,-122.12 544,-88.62 662,-88.62 662,-122.12"/>
<text xml:space="preserve" text-anchor="start" x="552" y="-108.62" font-family="Helvetica,sans-Serif" font-size="10.00">source/motion/motor</text>
<text xml:space="preserve" text-anchor="middle" x="603" y="-95.88" font-family="Helvetica,sans-Serif" font-size="10.00">/motor_motion.c</text>
</a>
</g>
</g>
<!-- Node7&#45;&gt;Node9 -->
<g id="edge10_Node000007_Node000009" class="edge">
<title>Node7&#45;&gt;Node9</title>
<g id="a_edge10_Node000007_Node000009"><a xlink:title=" ">
<path fill="none" stroke="#63b8ff" d="M816.49,-167.23C813.28,-166.3 810.11,-165.38 807,-164.5 746.85,-147.43 730.97,-146.18 671,-128.5 664.69,-126.64 658.08,-124.6 651.56,-122.54"/>
<polygon fill="#63b8ff" stroke="#63b8ff" points="815.4,-170.56 825.98,-170.02 817.38,-163.84 815.4,-170.56"/>
</a>
</g>
</g>
<!-- Node10 -->
<g id="Node000010" class="node">
<title>Node10</title>
<g id="a_Node000010"><a xlink:href="motor__sync_8c.html" target="_top" xlink:title=" ">
<polygon fill="white" stroke="#666666" points="798,-122.12 680,-122.12 680,-88.62 798,-88.62 798,-122.12"/>
<text xml:space="preserve" text-anchor="start" x="688" y="-108.62" font-family="Helvetica,sans-Serif" font-size="10.00">source/motion/motor</text>
<text xml:space="preserve" text-anchor="middle" x="739" y="-95.88" font-family="Helvetica,sans-Serif" font-size="10.00">/motor_sync.c</text>
</a>
</g>
</g>
<!-- Node7&#45;&gt;Node10 -->
<g id="edge11_Node000007_Node000010" class="edge">
<title>Node7&#45;&gt;Node10</title>
<g id="a_edge11_Node000007_Node000010"><a xlink:title=" ">
<path fill="none" stroke="#63b8ff" d="M841.52,-164.73C818.14,-151.42 788.79,-134.71 767.49,-122.59"/>
<polygon fill="#63b8ff" stroke="#63b8ff" points="839.73,-167.73 850.15,-169.64 843.19,-161.65 839.73,-167.73"/>
</a>
</g>
</g>
<!-- Node7&#45;&gt;Node11 -->
<g id="edge12_Node000007_Node000011" class="edge">
<title>Node7&#45;&gt;Node11</title>
<g id="a_edge12_Node000007_Node000011"><a xlink:title=" ">
<path fill="none" stroke="#63b8ff" d="M915.54,-164.34C940.85,-148.47 973.63,-127.93 992.58,-116.04"/>
<polygon fill="#63b8ff" stroke="#63b8ff" points="913.8,-161.3 907.19,-169.58 917.52,-167.23 913.8,-161.3"/>
</a>
</g>
</g>
<!-- Node13&#45;&gt;Node14 -->
<g id="edge15_Node000013_Node000014" class="edge">
<title>Node13&#45;&gt;Node14</title>
<g id="a_edge15_Node000013_Node000014"><a xlink:title=" ">
<path fill="none" stroke="#63b8ff" d="M511.75,-161.63C501.44,-148.9 489.2,-133.79 480.13,-122.59"/>
<polygon fill="#63b8ff" stroke="#63b8ff" points="508.88,-163.64 517.89,-169.21 514.32,-159.24 508.88,-163.64"/>
</a>
</g>
</g>
<!-- Node15 -->
<g id="Node000015" class="node">
<title>Node15</title>
<g id="a_Node000015"><a xlink:href="motor__process_8c.html" target="_top" xlink:title=" ">
<polygon fill="white" stroke="#666666" points="390,-122.12 272,-122.12 272,-88.62 390,-88.62 390,-122.12"/>
<text xml:space="preserve" text-anchor="start" x="280" y="-108.62" font-family="Helvetica,sans-Serif" font-size="10.00">source/motion/motor</text>
<text xml:space="preserve" text-anchor="middle" x="331" y="-95.88" font-family="Helvetica,sans-Serif" font-size="10.00">/motor_process.c</text>
</a>
</g>
</g>
<!-- Node13&#45;&gt;Node15 -->
<g id="edge16_Node000013_Node000015" class="edge">
<title>Node13&#45;&gt;Node15</title>
<g id="a_edge16_Node000013_Node000015"><a xlink:title=" ">
<path fill="none" stroke="#63b8ff" d="M480.7,-166.14C446.83,-152.62 403.07,-135.15 371.61,-122.59"/>
<polygon fill="#63b8ff" stroke="#63b8ff" points="479.33,-169.37 489.92,-169.82 481.93,-162.87 479.33,-169.37"/>
</a>
</g>
</g>
<!-- Node16&#45;&gt;Node8 -->
<g id="edge23_Node000016_Node000008" class="edge">
<title>Node16&#45;&gt;Node8</title>
<g id="a_edge23_Node000016_Node000008"><a xlink:title=" ">
<path fill="none" stroke="#63b8ff" d="M663.41,-242.54C686.87,-234.09 713.27,-223.28 736,-210.75 783.04,-184.82 831.87,-144.49 857.25,-122.32"/>
<polygon fill="#63b8ff" stroke="#63b8ff" points="662.56,-239.13 654.29,-245.76 664.89,-245.73 662.56,-239.13"/>
</a>
</g>
</g>
<!-- Node16&#45;&gt;Node13 -->
<g id="edge24_Node000016_Node000013" class="edge">
<title>Node16&#45;&gt;Node13</title>
<g id="a_edge24_Node000016_Node000013"><a xlink:title=" ">
<path fill="none" stroke="#63b8ff" d="M577.53,-238.09C567.4,-227.09 555.72,-214.39 546.73,-204.62"/>
<polygon fill="#63b8ff" stroke="#63b8ff" points="574.87,-240.37 584.22,-245.36 580.02,-235.63 574.87,-240.37"/>
</a>
</g>
</g>
<!-- Node17 -->
<g id="Node000017" class="node">
<title>Node17</title>
<g id="a_Node000017"><a xlink:href="motor__homing_8h.html" target="_top" xlink:title=" ">
<polygon fill="white" stroke="#666666" points="1158.75,-204.38 1033.25,-204.38 1033.25,-170.88 1158.75,-170.88 1158.75,-204.38"/>
<text xml:space="preserve" text-anchor="start" x="1041.25" y="-190.88" font-family="Helvetica,sans-Serif" font-size="10.00">source/motion/homing</text>
<text xml:space="preserve" text-anchor="middle" x="1096" y="-178.12" font-family="Helvetica,sans-Serif" font-size="10.00">/motor_homing.h</text>
</a>
</g>
</g>
<!-- Node16&#45;&gt;Node17 -->
<g id="edge18_Node000016_Node000017" class="edge">
<title>Node16&#45;&gt;Node17</title>
<g id="a_edge18_Node000016_Node000017"><a xlink:title=" ">
<path fill="none" stroke="#63b8ff" d="M670.78,-251.99C741.1,-241.55 852,-225.06 948,-210.75 975.88,-206.59 1006.71,-201.99 1032.99,-198.06"/>
<polygon fill="#63b8ff" stroke="#63b8ff" points="670.3,-248.52 660.92,-253.46 671.33,-255.45 670.3,-248.52"/>
</a>
</g>
</g>
<!-- Node20 -->
<g id="Node000020" class="node">
<title>Node20</title>
<g id="a_Node000020"><a xlink:href="motor__motion_8h.html" target="_top" xlink:title=" ">
<polygon fill="white" stroke="#666666" points="455,-204.38 337,-204.38 337,-170.88 455,-170.88 455,-204.38"/>
<text xml:space="preserve" text-anchor="start" x="345" y="-190.88" font-family="Helvetica,sans-Serif" font-size="10.00">source/motion/motor</text>
<text xml:space="preserve" text-anchor="middle" x="396" y="-178.12" font-family="Helvetica,sans-Serif" font-size="10.00">/motor_motion.h</text>
</a>
</g>
</g>
<!-- Node16&#45;&gt;Node20 -->
<g id="edge25_Node000016_Node000020" class="edge">
<title>Node16&#45;&gt;Node20</title>
<g id="a_edge25_Node000016_Node000020"><a xlink:title=" ">
<path fill="none" stroke="#63b8ff" d="M544.51,-242.4C511.89,-230.59 471.2,-215.86 440.66,-204.8"/>
<polygon fill="#63b8ff" stroke="#63b8ff" points="543.21,-245.66 553.81,-245.77 545.6,-239.08 543.21,-245.66"/>
</a>
</g>
</g>
<!-- Node22 -->
<g id="Node000022" class="node">
<title>Node22</title>
<g id="a_Node000022"><a xlink:href="motor__process_8h.html" target="_top" xlink:title=" ">
<polygon fill="white" stroke="#666666" points="319,-204.38 201,-204.38 201,-170.88 319,-170.88 319,-204.38"/>
<text xml:space="preserve" text-anchor="start" x="209" y="-190.88" font-family="Helvetica,sans-Serif" font-size="10.00">source/motion/motor</text>
<text xml:space="preserve" text-anchor="middle" x="260" y="-178.12" font-family="Helvetica,sans-Serif" font-size="10.00">/motor_process.h</text>
</a>
</g>
</g>
<!-- Node16&#45;&gt;Node22 -->
<g id="edge30_Node000016_Node000022" class="edge">
<title>Node16&#45;&gt;Node22</title>
<g id="a_edge30_Node000016_Node000022"><a xlink:title=" ">
<path fill="none" stroke="#63b8ff" d="M529.56,-251.61C474.32,-242.48 395.73,-228.14 328,-210.75 321.27,-209.02 314.22,-206.99 307.33,-204.87"/>
<polygon fill="#63b8ff" stroke="#63b8ff" points="528.7,-255.02 539.13,-253.18 529.83,-248.11 528.7,-255.02"/>
</a>
</g>
</g>
<!-- Node23 -->
<g id="Node000023" class="node">
<title>Node23</title>
<g id="a_Node000023"><a xlink:href="motor__sync_8h.html" target="_top" xlink:title=" ">
<polygon fill="white" stroke="#666666" points="727,-204.38 609,-204.38 609,-170.88 727,-170.88 727,-204.38"/>
<text xml:space="preserve" text-anchor="start" x="617" y="-190.88" font-family="Helvetica,sans-Serif" font-size="10.00">source/motion/motor</text>
<text xml:space="preserve" text-anchor="middle" x="668" y="-178.12" font-family="Helvetica,sans-Serif" font-size="10.00">/motor_sync.h</text>
</a>
</g>
</g>
<!-- Node16&#45;&gt;Node23 -->
<g id="edge33_Node000016_Node000023" class="edge">
<title>Node16&#45;&gt;Node23</title>
<g id="a_edge33_Node000016_Node000023"><a xlink:title=" ">
<path fill="none" stroke="#63b8ff" d="M622.47,-238.09C632.6,-227.09 644.28,-214.39 653.27,-204.62"/>
<polygon fill="#63b8ff" stroke="#63b8ff" points="619.98,-235.63 615.78,-245.36 625.13,-240.37 619.98,-235.63"/>
</a>
</g>
</g>
<!-- Node24 -->
<g id="Node000024" class="node">
<title>Node24</title>
<g id="a_Node000024"><a xlink:href="motor__tmc_8h.html" target="_top" xlink:title=" ">
<polygon fill="white" stroke="#666666" points="183,-204.38 65,-204.38 65,-170.88 183,-170.88 183,-204.38"/>
<text xml:space="preserve" text-anchor="start" x="73" y="-190.88" font-family="Helvetica,sans-Serif" font-size="10.00">source/motion/motor</text>
<text xml:space="preserve" text-anchor="middle" x="124" y="-178.12" font-family="Helvetica,sans-Serif" font-size="10.00">/motor_tmc.h</text>
</a>
</g>
</g>
<!-- Node16&#45;&gt;Node24 -->
<g id="edge36_Node000016_Node000024" class="edge">
<title>Node16&#45;&gt;Node24</title>
<g id="a_edge36_Node000016_Node000024"><a xlink:title=" ">
<path fill="none" stroke="#63b8ff" d="M529.19,-257.59C447.27,-250.97 308.67,-236.88 192,-210.75 184.73,-209.12 177.13,-207.04 169.76,-204.81"/>
<polygon fill="#63b8ff" stroke="#63b8ff" points="528.86,-261.07 539.11,-258.37 529.41,-254.09 528.86,-261.07"/>
</a>
</g>
</g>
<!-- Node17&#45;&gt;Node6 -->
<g id="edge19_Node000017_Node000006" class="edge">
<title>Node17&#45;&gt;Node6</title>
<g id="a_edge19_Node000017_Node000006"><a xlink:title=" ">
<path fill="none" stroke="#63b8ff" d="M1121.9,-162.73C1135.94,-149.78 1152.93,-134.11 1165.42,-122.59"/>
<polygon fill="#63b8ff" stroke="#63b8ff" points="1119.7,-160.01 1114.72,-169.36 1124.44,-165.15 1119.7,-160.01"/>
</a>
</g>
</g>
<!-- Node17&#45;&gt;Node11 -->
<g id="edge21_Node000017_Node000011" class="edge">
<title>Node17&#45;&gt;Node11</title>
<g id="a_edge21_Node000017_Node000011"><a xlink:title=" ">
<path fill="none" stroke="#63b8ff" d="M1069.7,-162.64C1052.58,-147.03 1031.17,-127.5 1018.6,-116.04"/>
<polygon fill="#63b8ff" stroke="#63b8ff" points="1067.33,-165.21 1077.07,-169.37 1072.04,-160.04 1067.33,-165.21"/>
</a>
</g>
</g>
<!-- Node17&#45;&gt;Node18 -->
<g id="edge20_Node000017_Node000018" class="edge">
<title>Node17&#45;&gt;Node18</title>
<g id="a_edge20_Node000017_Node000018"><a xlink:title=" ">
<path fill="none" stroke="#63b8ff" d="M1091.87,-159.43C1089.95,-135.84 1091.47,-102.4 1111,-82.25 1144.1,-48.11 1269.24,-33.88 1355.79,-28.05"/>
<polygon fill="#63b8ff" stroke="#63b8ff" points="1088.38,-159.68 1092.95,-169.24 1095.34,-158.92 1088.38,-159.68"/>
</a>
</g>
</g>
<!-- Node17&#45;&gt;Node19 -->
<g id="edge22_Node000017_Node000019" class="edge">
<title>Node17&#45;&gt;Node19</title>
<g id="a_edge22_Node000017_Node000019"><a xlink:title=" ">
<path fill="none" stroke="#63b8ff" d="M1159.93,-167.04C1212.56,-150.92 1284.96,-128.75 1326.07,-116.15"/>
<polygon fill="#63b8ff" stroke="#63b8ff" points="1159,-163.67 1150.47,-169.94 1161.05,-170.36 1159,-163.67"/>
</a>
</g>
</g>
<!-- Node20&#45;&gt;Node9 -->
<g id="edge27_Node000020_Node000009" class="edge">
<title>Node20&#45;&gt;Node9</title>
<g id="a_edge27_Node000020_Node000009"><a xlink:title=" ">
<path fill="none" stroke="#63b8ff" d="M448.37,-166.32C483.32,-152.77 528.64,-135.2 561.17,-122.59"/>
<polygon fill="#63b8ff" stroke="#63b8ff" points="447.36,-162.96 439.3,-169.84 449.89,-169.49 447.36,-162.96"/>
</a>
</g>
</g>
<!-- Node20&#45;&gt;Node12 -->
<g id="edge26_Node000020_Node000012" class="edge">
<title>Node20&#45;&gt;Node12</title>
<g id="a_edge26_Node000020_Node000012"><a xlink:title=" ">
<path fill="none" stroke="#63b8ff" d="M344.7,-166.14C310.83,-152.62 267.07,-135.15 235.61,-122.59"/>
<polygon fill="#63b8ff" stroke="#63b8ff" points="343.33,-169.37 353.92,-169.82 345.93,-162.87 343.33,-169.37"/>
</a>
</g>
</g>
<!-- Node20&#45;&gt;Node15 -->
<g id="edge28_Node000020_Node000015" class="edge">
<title>Node20&#45;&gt;Node15</title>
<g id="a_edge28_Node000020_Node000015"><a xlink:title=" ">
<path fill="none" stroke="#63b8ff" d="M375.75,-161.63C365.44,-148.9 353.2,-133.79 344.13,-122.59"/>
<polygon fill="#63b8ff" stroke="#63b8ff" points="372.88,-163.64 381.89,-169.21 378.32,-159.24 372.88,-163.64"/>
</a>
</g>
</g>
<!-- Node20&#45;&gt;Node21 -->
<g id="edge29_Node000020_Node000021" class="edge">
<title>Node20&#45;&gt;Node21</title>
<g id="a_edge29_Node000020_Node000021"><a xlink:title=" ">
<path fill="none" stroke="#63b8ff" d="M338.14,-167.21C334.72,-166.25 331.32,-165.33 328,-164.5 239.98,-142.41 215.02,-150.59 127,-128.5 120.14,-126.78 112.96,-124.73 105.95,-122.58"/>
<polygon fill="#63b8ff" stroke="#63b8ff" points="337.02,-170.53 347.6,-170 339,-163.81 337.02,-170.53"/>
</a>
</g>
</g>
<!-- Node22&#45;&gt;Node12 -->
<g id="edge31_Node000022_Node000012" class="edge">
<title>Node22&#45;&gt;Node12</title>
<g id="a_edge31_Node000022_Node000012"><a xlink:title=" ">
<path fill="none" stroke="#63b8ff" d="M239.75,-161.63C229.44,-148.9 217.2,-133.79 208.13,-122.59"/>
<polygon fill="#63b8ff" stroke="#63b8ff" points="236.88,-163.64 245.89,-169.21 242.32,-159.24 236.88,-163.64"/>
</a>
</g>
</g>
<!-- Node22&#45;&gt;Node15 -->
<g id="edge32_Node000022_Node000015" class="edge">
<title>Node22&#45;&gt;Node15</title>
<g id="a_edge32_Node000022_Node000015"><a xlink:title=" ">
<path fill="none" stroke="#63b8ff" d="M281.79,-162C293.12,-149.19 306.65,-133.9 316.65,-122.59"/>
<polygon fill="#63b8ff" stroke="#63b8ff" points="279.38,-159.44 275.37,-169.25 284.62,-164.08 279.38,-159.44"/>
</a>
</g>
</g>
<!-- Node23&#45;&gt;Node10 -->
<g id="edge35_Node000023_Node000010" class="edge">
<title>Node23&#45;&gt;Node10</title>
<g id="a_edge35_Node000023_Node000010"><a xlink:title=" ">
<path fill="none" stroke="#63b8ff" d="M689.79,-162C701.12,-149.19 714.65,-133.9 724.65,-122.59"/>
<polygon fill="#63b8ff" stroke="#63b8ff" points="687.38,-159.44 683.37,-169.25 692.62,-164.08 687.38,-159.44"/>
</a>
</g>
</g>
<!-- Node23&#45;&gt;Node15 -->
<g id="edge34_Node000023_Node000015" class="edge">
<title>Node23&#45;&gt;Node15</title>
<g id="a_edge34_Node000023_Node000015"><a xlink:title=" ">
<path fill="none" stroke="#63b8ff" d="M610.14,-167.21C606.72,-166.25 603.32,-165.33 600,-164.5 511.98,-142.41 487.02,-150.59 399,-128.5 392.14,-126.78 384.96,-124.73 377.95,-122.58"/>
<polygon fill="#63b8ff" stroke="#63b8ff" points="609.02,-170.53 619.6,-170 611,-163.81 609.02,-170.53"/>
</a>
</g>
</g>
<!-- Node24&#45;&gt;Node15 -->
<g id="edge37_Node000024_Node000015" class="edge">
<title>Node24&#45;&gt;Node15</title>
<g id="a_edge37_Node000024_Node000015"><a xlink:title=" ">
<path fill="none" stroke="#63b8ff" d="M176.37,-166.32C211.32,-152.77 256.64,-135.2 289.17,-122.59"/>
<polygon fill="#63b8ff" stroke="#63b8ff" points="175.36,-162.96 167.3,-169.84 177.89,-169.49 175.36,-162.96"/>
</a>
</g>
</g>
<!-- Node24&#45;&gt;Node21 -->
<g id="edge38_Node000024_Node000021" class="edge">
<title>Node24&#45;&gt;Node21</title>
<g id="a_edge38_Node000024_Node000021"><a xlink:title=" ">
<path fill="none" stroke="#63b8ff" d="M103.75,-161.63C93.44,-148.9 81.2,-133.79 72.13,-122.59"/>
<polygon fill="#63b8ff" stroke="#63b8ff" points="100.88,-163.64 109.89,-169.21 106.32,-159.24 100.88,-163.64"/>
</a>
</g>
</g>
<!-- Node25&#45;&gt;Node2 -->
<g id="edge41_Node000025_Node000002" class="edge">
<title>Node25&#45;&gt;Node2</title>
<g id="a_edge41_Node000025_Node000002"><a xlink:title=" ">
<path fill="none" stroke="#63b8ff" d="M1553.98,-244.83C1601.11,-235.73 1658.25,-223.81 1709,-210.75 1722.88,-207.18 1738.07,-202.54 1750.83,-198.44"/>
<polygon fill="#63b8ff" stroke="#63b8ff" points="1553.5,-241.36 1544.34,-246.68 1554.82,-248.24 1553.5,-241.36"/>
</a>
</g>
</g>
<!-- Node25&#45;&gt;Node11 -->
<g id="edge50_Node000025_Node000011" class="edge">
<title>Node25&#45;&gt;Node11</title>
<g id="a_edge50_Node000025_Node000011"><a xlink:title=" ">
<path fill="none" stroke="#63b8ff" d="M1357.96,-256.96C1237.93,-249.23 1047.57,-233.55 1024,-210.75 997.91,-185.51 1002.61,-136.87 1006.07,-116.13"/>
<polygon fill="#63b8ff" stroke="#63b8ff" points="1357.64,-260.45 1367.84,-257.59 1358.09,-253.46 1357.64,-260.45"/>
</a>
</g>
</g>
<!-- Node25&#45;&gt;Node18 -->
<g id="edge42_Node000025_Node000018" class="edge">
<title>Node25&#45;&gt;Node18</title>
<g id="a_edge42_Node000025_Node000018"><a xlink:title=" ">
<path fill="none" stroke="#63b8ff" d="M1454.4,-235.31C1451.46,-185.28 1445.29,-80.11 1442.94,-40.07"/>
<polygon fill="#63b8ff" stroke="#63b8ff" points="1450.89,-235.2 1454.97,-244.98 1457.88,-234.79 1450.89,-235.2"/>
</a>
</g>
</g>
<!-- Node25&#45;&gt;Node19 -->
<g id="edge51_Node000025_Node000019" class="edge">
<title>Node25&#45;&gt;Node19</title>
<g id="a_edge51_Node000025_Node000019"><a xlink:title=" ">
<path fill="none" stroke="#63b8ff" d="M1449.05,-235.77C1442.91,-215.18 1432.65,-186.6 1418,-164.5 1405.01,-144.92 1384.44,-126.84 1371.08,-116.21"/>
<polygon fill="#63b8ff" stroke="#63b8ff" points="1445.6,-236.45 1451.7,-245.12 1452.34,-234.54 1445.6,-236.45"/>
</a>
</g>
</g>
<!-- Node26 -->
<g id="Node000026" class="node">
<title>Node26</title>
<g id="a_Node000026"><a xlink:href="scara__kinematics__internal_8h.html" target="_top" xlink:title=" ">
<polygon fill="white" stroke="#666666" points="1666.88,-210.75 1503.12,-210.75 1503.12,-164.5 1666.88,-164.5 1666.88,-210.75"/>
<text xml:space="preserve" text-anchor="start" x="1511.12" y="-197.25" font-family="Helvetica,sans-Serif" font-size="10.00">source/motion/scara</text>
<text xml:space="preserve" text-anchor="start" x="1511.12" y="-184.5" font-family="Helvetica,sans-Serif" font-size="10.00">_kinematics/scara_kinematics</text>
<text xml:space="preserve" text-anchor="middle" x="1585" y="-171.75" font-family="Helvetica,sans-Serif" font-size="10.00">_internal.h</text>
</a>
</g>
</g>
<!-- Node25&#45;&gt;Node26 -->
<g id="edge43_Node000025_Node000026" class="edge">
<title>Node25&#45;&gt;Node26</title>
<g id="a_edge43_Node000025_Node000026"><a xlink:title=" ">
<path fill="none" stroke="#63b8ff" d="M1494.01,-240.73C1510.22,-231.45 1529.13,-220.62 1545.5,-211.24"/>
<polygon fill="#63b8ff" stroke="#63b8ff" points="1492.56,-237.53 1485.62,-245.54 1496.04,-243.6 1492.56,-237.53"/>
</a>
</g>
</g>
<!-- Node27 -->
<g id="Node000027" class="node">
<title>Node27</title>
<g id="a_Node000027"><a xlink:href="scara__kinematics__process_8c.html" target="_top" xlink:title=" ">
<polygon fill="white" stroke="#666666" points="1800.88,-46.25 1637.12,-46.25 1637.12,0 1800.88,0 1800.88,-46.25"/>
<text xml:space="preserve" text-anchor="start" x="1645.12" y="-32.75" font-family="Helvetica,sans-Serif" font-size="10.00">source/motion/scara</text>
<text xml:space="preserve" text-anchor="start" x="1645.12" y="-20" font-family="Helvetica,sans-Serif" font-size="10.00">_kinematics/scara_kinematics</text>
<text xml:space="preserve" text-anchor="middle" x="1719" y="-7.25" font-family="Helvetica,sans-Serif" font-size="10.00">_process.c</text>
</a>
</g>
</g>
<!-- Node25&#45;&gt;Node27 -->
<g id="edge49_Node000025_Node000027" class="edge">
<title>Node25&#45;&gt;Node27</title>
<g id="a_edge49_Node000025_Node000027"><a xlink:title=" ">
<path fill="none" stroke="#63b8ff" d="M1553.24,-244.01C1607.54,-232.91 1666.23,-219.33 1676,-210.75 1723.47,-169.06 1724.16,-86.45 1721.36,-46.63"/>
<polygon fill="#63b8ff" stroke="#63b8ff" points="1552.69,-240.55 1543.58,-245.96 1554.08,-247.41 1552.69,-240.55"/>
</a>
</g>
</g>
<!-- Node29 -->
<g id="Node000029" class="node">
<title>Node29</title>
<g id="a_Node000029"><a xlink:href="statemachine__helpers_8c.html" target="_top" xlink:title="Command parsing and helper implementations for the state machine.">
<polygon fill="white" stroke="#666666" points="1409,-204.38 1291,-204.38 1291,-170.88 1409,-170.88 1409,-204.38"/>
<text xml:space="preserve" text-anchor="start" x="1299" y="-190.88" font-family="Helvetica,sans-Serif" font-size="10.00">source/statemachine</text>
<text xml:space="preserve" text-anchor="middle" x="1350" y="-178.12" font-family="Helvetica,sans-Serif" font-size="10.00">_helpers.c</text>
</a>
</g>
</g>
<!-- Node25&#45;&gt;Node29 -->
<g id="edge52_Node000025_Node000029" class="edge">
<title>Node25&#45;&gt;Node29</title>
<g id="a_edge52_Node000025_Node000029"><a xlink:title=" ">
<path fill="none" stroke="#63b8ff" d="M1423.57,-239.9C1407.3,-228.56 1387.97,-215.09 1373.21,-204.8"/>
<polygon fill="#63b8ff" stroke="#63b8ff" points="1421.29,-242.58 1431.5,-245.42 1425.29,-236.83 1421.29,-242.58"/>
</a>
</g>
</g>
<!-- Node26&#45;&gt;Node18 -->
<g id="edge44_Node000026_Node000018" class="edge">
<title>Node26&#45;&gt;Node18</title>
<g id="a_edge44_Node000026_Node000018"><a xlink:title=" ">
<path fill="none" stroke="#63b8ff" d="M1533.99,-157.99C1521.61,-149.53 1509.05,-139.55 1499,-128.5 1474.41,-101.47 1456.57,-61.92 1447.91,-40.09"/>
<polygon fill="#63b8ff" stroke="#63b8ff" points="1531.84,-160.76 1542.12,-163.32 1535.68,-154.91 1531.84,-160.76"/>
</a>
</g>
</g>
<!-- Node26&#45;&gt;Node27 -->
<g id="edge45_Node000026_Node000027" class="edge">
<title>Node26&#45;&gt;Node27</title>
<g id="a_edge45_Node000026_Node000027"><a xlink:title=" ">
<path fill="none" stroke="#63b8ff" d="M1646.05,-158.21C1658.9,-150.05 1671.44,-140.14 1681,-128.5 1700.71,-104.51 1710.66,-69.41 1715.33,-46.67"/>
<polygon fill="#63b8ff" stroke="#63b8ff" points="1644.29,-155.19 1637.51,-163.33 1647.89,-161.19 1644.29,-155.19"/>
</a>
</g>
</g>
<!-- Node28 -->
<g id="Node000028" class="node">
<title>Node28</title>
<g id="a_Node000028"><a xlink:href="scara__kinematics__process_8h.html" target="_top" xlink:title=" ">
<polygon fill="white" stroke="#666666" points="1671.88,-128.5 1508.12,-128.5 1508.12,-82.25 1671.88,-82.25 1671.88,-128.5"/>
<text xml:space="preserve" text-anchor="start" x="1516.12" y="-115" font-family="Helvetica,sans-Serif" font-size="10.00">source/motion/scara</text>
<text xml:space="preserve" text-anchor="start" x="1516.12" y="-102.25" font-family="Helvetica,sans-Serif" font-size="10.00">_kinematics/scara_kinematics</text>
<text xml:space="preserve" text-anchor="middle" x="1590" y="-89.5" font-family="Helvetica,sans-Serif" font-size="10.00">_process.h</text>
</a>
</g>
</g>
<!-- Node26&#45;&gt;Node28 -->
<g id="edge46_Node000026_Node000028" class="edge">
<title>Node26&#45;&gt;Node28</title>
<g id="a_edge46_Node000026_Node000028"><a xlink:title=" ">
<path fill="none" stroke="#63b8ff" d="M1587.11,-152.84C1587.61,-144.75 1588.13,-136.32 1588.6,-128.89"/>
<polygon fill="#63b8ff" stroke="#63b8ff" points="1583.62,-152.56 1586.49,-162.76 1590.6,-153 1583.62,-152.56"/>
</a>
</g>
</g>
<!-- Node28&#45;&gt;Node18 -->
<g id="edge47_Node000028_Node000018" class="edge">
<title>Node28&#45;&gt;Node18</title>
<g id="a_edge47_Node000028_Node000018"><a xlink:title=" ">
<path fill="none" stroke="#63b8ff" d="M1538.36,-76.37C1516.02,-64.26 1490.68,-50.52 1471.59,-40.17"/>
<polygon fill="#63b8ff" stroke="#63b8ff" points="1536.59,-79.4 1547.05,-81.09 1539.93,-73.24 1536.59,-79.4"/>
</a>
</g>
</g>
<!-- Node28&#45;&gt;Node27 -->
<g id="edge48_Node000028_Node000027" class="edge">
<title>Node28&#45;&gt;Node27</title>
<g id="a_edge48_Node000028_Node000027"><a xlink:title=" ">
<path fill="none" stroke="#63b8ff" d="M1635.7,-75.95C1651.22,-66.29 1668.34,-55.64 1683,-46.52"/>
<polygon fill="#63b8ff" stroke="#63b8ff" points="1634.2,-72.75 1627.56,-81.01 1637.9,-78.7 1634.2,-72.75"/>
</a>
</g>
</g>
<!-- Node30&#45;&gt;Node5 -->
<g id="edge55_Node000030_Node000005" class="edge">
<title>Node30&#45;&gt;Node5</title>
<g id="a_edge55_Node000030_Node000005"><a xlink:title=" ">
<path fill="none" stroke="#63b8ff" d="M1930.3,-166.91C1938.15,-153.22 1948.47,-135.21 1955.82,-122.4"/>
<polygon fill="#63b8ff" stroke="#63b8ff" points="1927.33,-165.06 1925.39,-175.47 1933.4,-168.54 1927.33,-165.06"/>
</a>
</g>
</g>
<!-- Node30&#45;&gt;Node6 -->
<g id="edge56_Node000030_Node000006" class="edge">
<title>Node30&#45;&gt;Node6</title>
<g id="a_edge56_Node000030_Node000006"><a xlink:title=" ">
<path fill="none" stroke="#63b8ff" d="M1881.23,-173.38C1870.02,-169.94 1857.63,-166.61 1846,-164.5 1603.67,-120.49 1537.16,-160.86 1293,-128.5 1277.74,-126.48 1261.43,-123.6 1246.16,-120.58"/>
<polygon fill="#63b8ff" stroke="#63b8ff" points="1879.95,-176.64 1890.54,-176.36 1882.08,-169.98 1879.95,-176.64"/>
</a>
</g>
</g>
<!-- Node30&#45;&gt;Node19 -->
<g id="edge58_Node000030_Node000019" class="edge">
<title>Node30&#45;&gt;Node19</title>
<g id="a_edge58_Node000030_Node000019"><a xlink:title=" ">
<path fill="none" stroke="#63b8ff" d="M1880.27,-173.39C1869.3,-170.05 1857.27,-166.77 1846,-164.5 1694,-133.87 1652.75,-148.52 1499,-128.5 1471.23,-124.88 1440.51,-120.15 1414.85,-115.99"/>
<polygon fill="#63b8ff" stroke="#63b8ff" points="1879.21,-176.72 1889.8,-176.39 1881.31,-170.05 1879.21,-176.72"/>
</a>
</g>
</g>
<!-- Node30&#45;&gt;Node27 -->
<g id="edge57_Node000030_Node000027" class="edge">
<title>Node30&#45;&gt;Node27</title>
<g id="a_edge57_Node000030_Node000027"><a xlink:title=" ">
<path fill="none" stroke="#63b8ff" d="M1898.38,-169.87C1862.26,-140.52 1787.51,-79.79 1746.84,-46.74"/>
<polygon fill="#63b8ff" stroke="#63b8ff" points="1895.95,-172.4 1905.91,-175.99 1900.36,-166.97 1895.95,-172.4"/>
</a>
</g>
</g>
</g>
</svg>
