<?xml version="1.0" encoding="UTF-8" standalone="no"?>
<!DOCTYPE svg PUBLIC "-//W3C//DTD SVG 1.1//EN"
 "http://www.w3.org/Graphics/SVG/1.1/DTD/svg11.dtd">
<!-- Generated by graphviz version 14.1.5 (0)
 -->
<!-- Title: source/driver/tmc2209/tmc2209_process.c Pages: 1 -->
<svg width="624pt" height="269pt"
 viewBox="0.00 0.00 624.00 269.00" xmlns="http://www.w3.org/2000/svg" xmlns:xlink="http://www.w3.org/1999/xlink">
<g id="graph0" class="graph" transform="scale(1 1) rotate(0) translate(4 264.5)">
<title>source/driver/tmc2209/tmc2209_process.c</title>
<!-- Node1 -->
<g id="Node000001" class="node">
<title>Node1</title>
<g id="a_Node000001"><a xlink:title=" ">
<polygon fill="#999999" stroke="#666666" points="470.75,-260.5 345.25,-260.5 345.25,-227 470.75,-227 470.75,-260.5"/>
<text xml:space="preserve" text-anchor="start" x="353.25" y="-247" font-family="Helvetica,sans-Serif" font-size="10.00">source/driver/tmc2209</text>
<text xml:space="preserve" text-anchor="middle" x="408" y="-234.25" font-family="Helvetica,sans-Serif" font-size="10.00">/tmc2209_process.c</text>
</a>
</g>
</g>
<!-- Node2 -->
<g id="Node000002" class="node">
<title>Node2</title>
<g id="a_Node000002"><a xlink:href="tmc2209__process_8h.html" target="_top" xlink:title=" ">
<polygon fill="white" stroke="#666666" points="380.25,-191 269.75,-191 269.75,-170.25 380.25,-170.25 380.25,-191"/>
<text xml:space="preserve" text-anchor="middle" x="325" y="-177.5" font-family="Helvetica,sans-Serif" font-size="10.00">tmc2209_process.h</text>
</a>
</g>
</g>
<!-- Node1&#45;&gt;Node2 -->
<g id="edge1_Node000001_Node000002" class="edge">
<title>Node1&#45;&gt;Node2</title>
<g id="a_edge1_Node000001_Node000002"><a xlink:title=" ">
<path fill="none" stroke="#63b8ff" d="M386.19,-226.69C374.22,-217.87 359.39,-206.95 347.33,-198.07"/>
<polygon fill="#63b8ff" stroke="#63b8ff" points="349.71,-195.48 339.58,-192.36 345.56,-201.11 349.71,-195.48"/>
</a>
</g>
</g>
<!-- Node3 -->
<g id="Node000003" class="node">
<title>Node3</title>
<g id="a_Node000003"><a xlink:href="tmc2209__shared_8h.html" target="_top" xlink:title=" ">
<polygon fill="white" stroke="#666666" points="219,-77.5 113,-77.5 113,-56.75 219,-56.75 219,-77.5"/>
<text xml:space="preserve" text-anchor="middle" x="166" y="-64" font-family="Helvetica,sans-Serif" font-size="10.00">tmc2209_shared.h</text>
</a>
</g>
</g>
<!-- Node1&#45;&gt;Node3 -->
<g id="edge15_Node000001_Node000003" class="edge">
<title>Node1&#45;&gt;Node3</title>
<g id="a_edge15_Node000001_Node000003"><a xlink:title=" ">
<path fill="none" stroke="#63b8ff" d="M345.02,-235.15C286.42,-224.21 203.17,-197.76 169,-134.25 161.58,-120.46 161.21,-102.61 162.49,-88.93"/>
<polygon fill="#63b8ff" stroke="#63b8ff" points="165.92,-89.66 163.77,-79.28 158.98,-88.74 165.92,-89.66"/>
</a>
</g>
</g>
<!-- Node6 -->
<g id="Node000006" class="node">
<title>Node6</title>
<g id="a_Node000006"><a xlink:href="cmd__handle_8h.html" target="_top" xlink:title=" ">
<polygon fill="white" stroke="#666666" points="366.12,-77.5 281.88,-77.5 281.88,-56.75 366.12,-56.75 366.12,-77.5"/>
<text xml:space="preserve" text-anchor="middle" x="324" y="-64" font-family="Helvetica,sans-Serif" font-size="10.00">cmd_handle.h</text>
</a>
</g>
</g>
<!-- Node1&#45;&gt;Node6 -->
<g id="edge23_Node000001_Node000006" class="edge">
<title>Node1&#45;&gt;Node6</title>
<g id="a_edge23_Node000001_Node000006"><a xlink:title=" ">
<path fill="none" stroke="#63b8ff" d="M405.28,-226.72C402.4,-211.71 397.12,-188.85 389,-170.25 375.47,-139.25 353.26,-106.86 338.63,-87.09"/>
<polygon fill="#63b8ff" stroke="#63b8ff" points="341.49,-85.06 332.67,-79.18 335.9,-89.27 341.49,-85.06"/>
</a>
</g>
</g>
<!-- Node7 -->
<g id="Node000007" class="node">
<title>Node7</title>
<g id="a_Node000007"><a xlink:title=" ">
<polygon fill="#e0e0e0" stroke="#999999" points="563.75,-20.75 492.25,-20.75 492.25,0 563.75,0 563.75,-20.75"/>
<text xml:space="preserve" text-anchor="middle" x="528" y="-7.25" font-family="Helvetica,sans-Serif" font-size="10.00">FreeRTOS.h</text>
</a>
</g>
</g>
<!-- Node1&#45;&gt;Node7 -->
<g id="edge21_Node000001_Node000007" class="edge">
<title>Node1&#45;&gt;Node7</title>
<g id="a_edge21_Node000001_Node000007"><a xlink:title=" ">
<path fill="none" stroke="#63b8ff" d="M470.77,-226.56C493.87,-218.49 519.2,-206.96 539,-191 585.88,-153.21 596.2,-135.33 613,-77.5 615.57,-68.64 617.74,-64.66 613,-56.75 604.33,-42.3 589.32,-32.19 574.3,-25.25"/>
<polygon fill="#63b8ff" stroke="#63b8ff" points="575.95,-22.15 565.38,-21.52 573.26,-28.61 575.95,-22.15"/>
</a>
</g>
</g>
<!-- Node11 -->
<g id="Node000011" class="node">
<title>Node11</title>
<g id="a_Node000011"><a xlink:href="tmc2209__internal_8h.html" target="_top" xlink:title=" ">
<polygon fill="white" stroke="#666666" points="304.25,-134.25 193.75,-134.25 193.75,-113.5 304.25,-113.5 304.25,-134.25"/>
<text xml:space="preserve" text-anchor="middle" x="249" y="-120.75" font-family="Helvetica,sans-Serif" font-size="10.00">tmc2209_internal.h</text>
</a>
</g>
</g>
<!-- Node1&#45;&gt;Node11 -->
<g id="edge16_Node000001_Node000011" class="edge">
<title>Node1&#45;&gt;Node11</title>
<g id="a_edge16_Node000001_Node000011"><a xlink:title=" ">
<path fill="none" stroke="#63b8ff" d="M345.08,-235.29C315.4,-228.52 281.97,-215.61 261,-191 250.46,-178.64 247.84,-160.17 247.63,-145.88"/>
<polygon fill="#63b8ff" stroke="#63b8ff" points="251.13,-146.28 247.9,-136.19 244.13,-146.09 251.13,-146.28"/>
</a>
</g>
</g>
<!-- Node12 -->
<g id="Node000012" class="node">
<title>Node12</title>
<g id="a_Node000012"><a xlink:href="tmc2209__setup_8h.html" target="_top" xlink:title=" ">
<polygon fill="white" stroke="#666666" points="100,-134.25 0,-134.25 0,-113.5 100,-113.5 100,-134.25"/>
<text xml:space="preserve" text-anchor="middle" x="50" y="-120.75" font-family="Helvetica,sans-Serif" font-size="10.00">tmc2209_setup.h</text>
</a>
</g>
</g>
<!-- Node1&#45;&gt;Node12 -->
<g id="edge17_Node000001_Node000012" class="edge">
<title>Node1&#45;&gt;Node12</title>
<g id="a_edge17_Node000001_Node000012"><a xlink:title=" ">
<path fill="none" stroke="#63b8ff" d="M345,-242.74C282.87,-240.27 186.9,-229.7 114,-191 92.7,-179.69 74.27,-158.73 62.73,-143.43"/>
<polygon fill="#63b8ff" stroke="#63b8ff" points="65.75,-141.64 57.06,-135.58 60.08,-145.74 65.75,-141.64"/>
</a>
</g>
</g>
<!-- Node13 -->
<g id="Node000013" class="node">
<title>Node13</title>
<g id="a_Node000013"><a xlink:title=" ">
<polygon fill="#e0e0e0" stroke="#999999" points="545.5,-77.5 490.5,-77.5 490.5,-56.75 545.5,-56.75 545.5,-77.5"/>
<text xml:space="preserve" text-anchor="middle" x="518" y="-64" font-family="Helvetica,sans-Serif" font-size="10.00">queue.h</text>
</a>
</g>
</g>
<!-- Node1&#45;&gt;Node13 -->
<g id="edge22_Node000001_Node000013" class="edge">
<title>Node1&#45;&gt;Node13</title>
<g id="a_edge22_Node000001_Node000013"><a xlink:title=" ">
<path fill="none" stroke="#63b8ff" d="M439.89,-226.66C471.22,-208.87 517.11,-176.96 537,-134.25 544,-119.21 537.82,-101.03 530.69,-87.54"/>
<polygon fill="#63b8ff" stroke="#63b8ff" points="533.86,-86.03 525.77,-79.18 527.83,-89.58 533.86,-86.03"/>
</a>
</g>
</g>
<!-- Node14 -->
<g id="Node000014" class="node">
<title>Node14</title>
<g id="a_Node000014"><a xlink:href="log_8h.html" target="_top" xlink:title=" ">
<polygon fill="white" stroke="#666666" points="604,-77.5 564,-77.5 564,-56.75 604,-56.75 604,-77.5"/>
<text xml:space="preserve" text-anchor="middle" x="584" y="-64" font-family="Helvetica,sans-Serif" font-size="10.00">log.h</text>
</a>
</g>
</g>
<!-- Node1&#45;&gt;Node14 -->
<g id="edge24_Node000001_Node000014" class="edge">
<title>Node1&#45;&gt;Node14</title>
<g id="a_edge24_Node000001_Node000014"><a xlink:title=" ">
<path fill="none" stroke="#63b8ff" d="M455.72,-226.51C475.84,-218.07 498.57,-206.28 516,-191 548.11,-162.84 568.12,-115.69 577.55,-88.72"/>
<polygon fill="#63b8ff" stroke="#63b8ff" points="580.84,-89.92 580.67,-79.32 574.19,-87.71 580.84,-89.92"/>
</a>
</g>
</g>
<!-- Node15 -->
<g id="Node000015" class="node">
<title>Node15</title>
<g id="a_Node000015"><a xlink:href="cmd__dispatch_8h.html" target="_top" xlink:title=" ">
<polygon fill="white" stroke="#666666" points="528.25,-134.25 435.75,-134.25 435.75,-113.5 528.25,-113.5 528.25,-134.25"/>
<text xml:space="preserve" text-anchor="middle" x="482" y="-120.75" font-family="Helvetica,sans-Serif" font-size="10.00">cmd_dispatch.h</text>
</a>
</g>
</g>
<!-- Node1&#45;&gt;Node15 -->
<g id="edge27_Node000001_Node000015" class="edge">
<title>Node1&#45;&gt;Node15</title>
<g id="a_edge27_Node000001_Node000015"><a xlink:title=" ">
<path fill="none" stroke="#63b8ff" d="M417.98,-226.85C431.4,-205.48 455.24,-167.5 469.74,-144.41"/>
<polygon fill="#63b8ff" stroke="#63b8ff" points="472.69,-146.3 475.04,-135.96 466.76,-142.57 472.69,-146.3"/>
</a>
</g>
</g>
<!-- Node2&#45;&gt;Node3 -->
<g id="edge2_Node000002_Node000003" class="edge">
<title>Node2&#45;&gt;Node3</title>
<g id="a_edge2_Node000002_Node000003"><a xlink:title=" ">
<path fill="none" stroke="#63b8ff" d="M269.29,-174.04C240.56,-168.38 207.02,-157.03 185,-134.25 173.31,-122.16 168.73,-103.38 166.98,-88.91"/>
<polygon fill="#63b8ff" stroke="#63b8ff" points="170.48,-88.78 166.18,-79.1 163.5,-89.35 170.48,-88.78"/>
</a>
</g>
</g>
<!-- Node2&#45;&gt;Node6 -->
<g id="edge5_Node000002_Node000006" class="edge">
<title>Node2&#45;&gt;Node6</title>
<g id="a_edge5_Node000002_Node000006"><a xlink:title=" ">
<path fill="none" stroke="#63b8ff" d="M324.91,-170.12C324.76,-152.35 324.41,-113.72 324.19,-89.43"/>
<polygon fill="#63b8ff" stroke="#63b8ff" points="327.69,-89.41 324.1,-79.44 320.69,-89.47 327.69,-89.41"/>
</a>
</g>
</g>
<!-- Node9 -->
<g id="Node000009" class="node">
<title>Node9</title>
<g id="a_Node000009"><a xlink:title=" ">
<polygon fill="#e0e0e0" stroke="#999999" points="474.5,-20.75 389.5,-20.75 389.5,0 474.5,0 474.5,-20.75"/>
<text xml:space="preserve" text-anchor="middle" x="432" y="-7.25" font-family="Helvetica,sans-Serif" font-size="10.00">fsl_common.h</text>
</a>
</g>
</g>
<!-- Node2&#45;&gt;Node9 -->
<g id="edge11_Node000002_Node000009" class="edge">
<title>Node2&#45;&gt;Node9</title>
<g id="a_edge11_Node000002_Node000009"><a xlink:title=" ">
<path fill="none" stroke="#63b8ff" d="M331.06,-170.1C348.12,-143.27 396.81,-66.71 419.75,-30.63"/>
<polygon fill="#63b8ff" stroke="#63b8ff" points="422.52,-32.81 424.93,-22.49 416.61,-29.05 422.52,-32.81"/>
</a>
</g>
</g>
<!-- Node2&#45;&gt;Node11 -->
<g id="edge12_Node000002_Node000011" class="edge">
<title>Node2&#45;&gt;Node11</title>
<g id="a_edge12_Node000002_Node000011"><a xlink:title=" ">
<path fill="none" stroke="#63b8ff" d="M311.41,-169.84C300.39,-161.9 284.61,-150.53 271.68,-141.21"/>
<polygon fill="#63b8ff" stroke="#63b8ff" points="273.86,-138.47 263.7,-135.46 269.77,-144.15 273.86,-138.47"/>
</a>
</g>
</g>
<!-- Node4 -->
<g id="Node000004" class="node">
<title>Node4</title>
<g id="a_Node000004"><a xlink:title=" ">
<polygon fill="#e0e0e0" stroke="#999999" points="192.38,-20.75 139.62,-20.75 139.62,0 192.38,0 192.38,-20.75"/>
<text xml:space="preserve" text-anchor="middle" x="166" y="-7.25" font-family="Helvetica,sans-Serif" font-size="10.00">stdint.h</text>
</a>
</g>
</g>
<!-- Node3&#45;&gt;Node4 -->
<g id="edge3_Node000003_Node000004" class="edge">
<title>Node3&#45;&gt;Node4</title>
<g id="a_edge3_Node000003_Node000004"><a xlink:title=" ">
<path fill="none" stroke="#63b8ff" d="M166,-56.34C166,-49.72 166,-40.72 166,-32.52"/>
<polygon fill="#63b8ff" stroke="#63b8ff" points="169.5,-32.59 166,-22.59 162.5,-32.59 169.5,-32.59"/>
</a>
</g>
</g>
<!-- Node5 -->
<g id="Node000005" class="node">
<title>Node5</title>
<g id="a_Node000005"><a xlink:title=" ">
<polygon fill="#e0e0e0" stroke="#999999" points="121.62,-20.75 16.38,-20.75 16.38,0 121.62,0 121.62,-20.75"/>
<text xml:space="preserve" text-anchor="middle" x="69" y="-7.25" font-family="Helvetica,sans-Serif" font-size="10.00">fsl_uart_freertos.h</text>
</a>
</g>
</g>
<!-- Node3&#45;&gt;Node5 -->
<g id="edge4_Node000003_Node000005" class="edge">
<title>Node3&#45;&gt;Node5</title>
<g id="a_edge4_Node000003_Node000005"><a xlink:title=" ">
<path fill="none" stroke="#63b8ff" d="M148.66,-56.34C134.04,-48.08 112.86,-36.13 96.02,-26.63"/>
<polygon fill="#63b8ff" stroke="#63b8ff" points="97.94,-23.69 87.51,-21.82 94.5,-29.79 97.94,-23.69"/>
</a>
</g>
</g>
<!-- Node6&#45;&gt;Node4 -->
<g id="edge6_Node000006_Node000004" class="edge">
<title>Node6&#45;&gt;Node4</title>
<g id="a_edge6_Node000006_Node000004"><a xlink:title=" ">
<path fill="none" stroke="#63b8ff" d="M295.75,-56.34C269.97,-47.4 231.69,-34.14 203.38,-24.33"/>
<polygon fill="#63b8ff" stroke="#63b8ff" points="204.71,-21.09 194.12,-21.12 202.42,-27.7 204.71,-21.09"/>
</a>
</g>
</g>
<!-- Node6&#45;&gt;Node7 -->
<g id="edge7_Node000006_Node000007" class="edge">
<title>Node6&#45;&gt;Node7</title>
<g id="a_edge7_Node000006_Node000007"><a xlink:title=" ">
<path fill="none" stroke="#63b8ff" d="M360.47,-56.34C394.12,-47.31 444.27,-33.85 480.93,-24.01"/>
<polygon fill="#63b8ff" stroke="#63b8ff" points="481.63,-27.44 490.38,-21.47 479.82,-20.68 481.63,-27.44"/>
</a>
</g>
</g>
<!-- Node8 -->
<g id="Node000008" class="node">
<title>Node8</title>
<g id="a_Node000008"><a xlink:title=" ">
<polygon fill="#e0e0e0" stroke="#999999" points="371.5,-20.75 280.5,-20.75 280.5,0 371.5,0 371.5,-20.75"/>
<text xml:space="preserve" text-anchor="middle" x="326" y="-7.25" font-family="Helvetica,sans-Serif" font-size="10.00">event_groups.h</text>
</a>
</g>
</g>
<!-- Node6&#45;&gt;Node8 -->
<g id="edge8_Node000006_Node000008" class="edge">
<title>Node6&#45;&gt;Node8</title>
<g id="a_edge8_Node000006_Node000008"><a xlink:title=" ">
<path fill="none" stroke="#63b8ff" d="M324.36,-56.34C324.6,-49.72 324.93,-40.72 325.23,-32.52"/>
<polygon fill="#63b8ff" stroke="#63b8ff" points="328.72,-32.71 325.59,-22.59 321.73,-32.46 328.72,-32.71"/>
</a>
</g>
</g>
<!-- Node6&#45;&gt;Node9 -->
<g id="edge9_Node000006_Node000009" class="edge">
<title>Node6&#45;&gt;Node9</title>
<g id="a_edge9_Node000006_Node000009"><a xlink:title=" ">
<path fill="none" stroke="#63b8ff" d="M343.31,-56.34C359.82,-47.97 383.83,-35.79 402.71,-26.22"/>
<polygon fill="#63b8ff" stroke="#63b8ff" points="404.17,-29.41 411.51,-21.76 401.01,-23.16 404.17,-29.41"/>
</a>
</g>
</g>
<!-- Node10 -->
<g id="Node000010" class="node">
<title>Node10</title>
<g id="a_Node000010"><a xlink:title=" ">
<polygon fill="#e0e0e0" stroke="#999999" points="262,-20.75 210,-20.75 210,0 262,0 262,-20.75"/>
<text xml:space="preserve" text-anchor="middle" x="236" y="-7.25" font-family="Helvetica,sans-Serif" font-size="10.00">stdlib.h</text>
</a>
</g>
</g>
<!-- Node6&#45;&gt;Node10 -->
<g id="edge10_Node000006_Node000010" class="edge">
<title>Node6&#45;&gt;Node10</title>
<g id="a_edge10_Node000006_Node000010"><a xlink:title=" ">
<path fill="none" stroke="#63b8ff" d="M308.27,-56.34C295.13,-48.16 276.16,-36.36 260.95,-26.9"/>
<polygon fill="#63b8ff" stroke="#63b8ff" points="263.22,-24.19 252.88,-21.88 259.52,-30.13 263.22,-24.19"/>
</a>
</g>
</g>
<!-- Node11&#45;&gt;Node3 -->
<g id="edge13_Node000011_Node000003" class="edge">
<title>Node11&#45;&gt;Node3</title>
<g id="a_edge13_Node000011_Node000003"><a xlink:title=" ">
<path fill="none" stroke="#63b8ff" d="M234.16,-113.09C221.89,-104.99 204.21,-93.33 189.94,-83.92"/>
<polygon fill="#63b8ff" stroke="#63b8ff" points="192.25,-81.25 181.97,-78.66 188.39,-87.09 192.25,-81.25"/>
</a>
</g>
</g>
<!-- Node11&#45;&gt;Node6 -->
<g id="edge14_Node000011_Node000006" class="edge">
<title>Node11&#45;&gt;Node6</title>
<g id="a_edge14_Node000011_Node000006"><a xlink:title=" ">
<path fill="none" stroke="#63b8ff" d="M262.41,-113.09C273.29,-105.15 288.86,-93.78 301.62,-84.46"/>
<polygon fill="#63b8ff" stroke="#63b8ff" points="303.47,-87.44 309.49,-78.72 299.34,-81.79 303.47,-87.44"/>
</a>
</g>
</g>
<!-- Node12&#45;&gt;Node3 -->
<g id="edge20_Node000012_Node000003" class="edge">
<title>Node12&#45;&gt;Node3</title>
<g id="a_edge20_Node000012_Node000003"><a xlink:title=" ">
<path fill="none" stroke="#63b8ff" d="M70.74,-113.09C88.64,-104.64 114.74,-92.32 135.1,-82.71"/>
<polygon fill="#63b8ff" stroke="#63b8ff" points="136.52,-85.91 144.07,-78.47 133.54,-79.58 136.52,-85.91"/>
</a>
</g>
</g>
<!-- Node12&#45;&gt;Node4 -->
<g id="edge18_Node000012_Node000004" class="edge">
<title>Node12&#45;&gt;Node4</title>
<g id="a_edge18_Node000012_Node000004"><a xlink:title=" ">
<path fill="none" stroke="#63b8ff" d="M50.69,-113.18C52.16,-99.15 56.76,-73.1 71,-56.75 79.29,-47.23 106.29,-34.77 129.4,-25.32"/>
<polygon fill="#63b8ff" stroke="#63b8ff" points="130.6,-28.61 138.59,-21.64 128,-22.11 130.6,-28.61"/>
</a>
</g>
</g>
<!-- Node12&#45;&gt;Node7 -->
<g id="edge19_Node000012_Node000007" class="edge">
<title>Node12&#45;&gt;Node7</title>
<g id="a_edge19_Node000012_Node000007"><a xlink:title=" ">
<path fill="none" stroke="#63b8ff" d="M54.7,-113.17C62.57,-98.13 79.94,-69.59 104,-56.75 175.91,-18.37 383.09,-32.38 480.7,-20.92"/>
<polygon fill="#63b8ff" stroke="#63b8ff" points="481.1,-24.4 490.54,-19.59 480.17,-17.46 481.1,-24.4"/>
</a>
</g>
</g>
<!-- Node14&#45;&gt;Node7 -->
<g id="edge25_Node000014_Node000007" class="edge">
<title>Node14&#45;&gt;Node7</title>
<g id="a_edge25_Node000014_Node000007"><a xlink:title=" ">
<path fill="none" stroke="#63b8ff" d="M573.99,-56.34C566.26,-48.78 555.37,-38.14 546.13,-29.1"/>
<polygon fill="#63b8ff" stroke="#63b8ff" points="548.6,-26.62 539.01,-22.14 543.71,-31.63 548.6,-26.62"/>
</a>
</g>
</g>
<!-- Node14&#45;&gt;Node9 -->
<g id="edge26_Node000014_Node000009" class="edge">
<title>Node14&#45;&gt;Node9</title>
<g id="a_edge26_Node000014_Node000009"><a xlink:title=" ">
<path fill="none" stroke="#63b8ff" d="M563.5,-58.74C539.64,-50.15 499.75,-35.78 470.14,-25.11"/>
<polygon fill="#63b8ff" stroke="#63b8ff" points="471.37,-21.84 460.78,-21.74 469,-28.42 471.37,-21.84"/>
</a>
</g>
</g>
<!-- Node15&#45;&gt;Node4 -->
<g id="edge28_Node000015_Node000004" class="edge">
<title>Node15&#45;&gt;Node4</title>
<g id="a_edge28_Node000015_Node000004"><a xlink:title=" ">
<path fill="none" stroke="#63b8ff" d="M435.41,-117.38C392.15,-111.21 326.54,-99.11 273,-77.5 241.33,-64.71 208.42,-42.87 187.6,-27.81"/>
<polygon fill="#63b8ff" stroke="#63b8ff" points="189.76,-25.05 179.63,-21.93 185.6,-30.68 189.76,-25.05"/>
</a>
</g>
</g>
<!-- Node15&#45;&gt;Node6 -->
<g id="edge31_Node000015_Node000006" class="edge">
<title>Node15&#45;&gt;Node6</title>
<g id="a_edge31_Node000015_Node000006"><a xlink:title=" ">
<path fill="none" stroke="#63b8ff" d="M453.75,-113.09C428.44,-104.32 391.08,-91.37 362.94,-81.62"/>
<polygon fill="#63b8ff" stroke="#63b8ff" points="364.29,-78.38 353.7,-78.42 362,-85 364.29,-78.38"/>
</a>
</g>
</g>
<!-- Node15&#45;&gt;Node7 -->
<g id="edge29_Node000015_Node000007" class="edge">
<title>Node15&#45;&gt;Node7</title>
<g id="a_edge29_Node000015_Node000007"><a xlink:title=" ">
<path fill="none" stroke="#63b8ff" d="M479.8,-113.45C477.2,-100.21 474.12,-75.6 482,-56.75 486.69,-45.54 495.65,-35.69 504.43,-28.05"/>
<polygon fill="#63b8ff" stroke="#63b8ff" points="506.52,-30.87 512.14,-21.88 502.14,-25.4 506.52,-30.87"/>
</a>
</g>
</g>
<!-- Node15&#45;&gt;Node13 -->
<g id="edge30_Node000015_Node000013" class="edge">
<title>Node15&#45;&gt;Node13</title>
<g id="a_edge30_Node000015_Node000013"><a xlink:title=" ">
<path fill="none" stroke="#63b8ff" d="M488.44,-113.09C493.15,-105.92 499.69,-95.98 505.42,-87.26"/>
<polygon fill="#63b8ff" stroke="#63b8ff" points="508.22,-89.37 510.79,-79.09 502.37,-85.53 508.22,-89.37"/>
</a>
</g>
</g>
</g>
</svg>
