<?xml version="1.0" encoding="UTF-8" standalone="no"?>
<!DOCTYPE svg PUBLIC "-//W3C//DTD SVG 1.1//EN"
 "http://www.w3.org/Graphics/SVG/1.1/DTD/svg11.dtd">
<!-- Generated by graphviz version 14.1.5 (0)
 -->
<!-- Title: source/driver/tmc2209/tmc2209_internal.h Pages: 1 -->
<svg width="556pt" height="155pt"
 viewBox="0.00 0.00 556.00 155.00" xmlns="http://www.w3.org/2000/svg" xmlns:xlink="http://www.w3.org/1999/xlink">
<g id="graph0" class="graph" transform="scale(1 1) rotate(0) translate(4 151)">
<title>source/driver/tmc2209/tmc2209_internal.h</title>
<!-- Node1 -->
<g id="Node000001" class="node">
<title>Node1</title>
<g id="a_Node000001"><a xlink:title=" ">
<polygon fill="#999999" stroke="#666666" points="268.38,-147 142.88,-147 142.88,-113.5 268.38,-113.5 268.38,-147"/>
<text xml:space="preserve" text-anchor="start" x="150.88" y="-133.5" font-family="Helvetica,sans-Serif" font-size="10.00">source/driver/tmc2209</text>
<text xml:space="preserve" text-anchor="middle" x="205.62" y="-120.75" font-family="Helvetica,sans-Serif" font-size="10.00">/tmc2209_internal.h</text>
</a>
</g>
</g>
<!-- Node2 -->
<g id="Node000002" class="node">
<title>Node2</title>
<g id="a_Node000002"><a xlink:href="tmc2209__shared_8h.html" target="_top" xlink:title=" ">
<polygon fill="white" stroke="#666666" points="202.62,-77.5 96.62,-77.5 96.62,-56.75 202.62,-56.75 202.62,-77.5"/>
<text xml:space="preserve" text-anchor="middle" x="149.62" y="-64" font-family="Helvetica,sans-Serif" font-size="10.00">tmc2209_shared.h</text>
</a>
</g>
</g>
<!-- Node1&#45;&gt;Node2 -->
<g id="edge1_Node000001_Node000002" class="edge">
<title>Node1&#45;&gt;Node2</title>
<g id="a_edge1_Node000001_Node000002"><a xlink:title=" ">
<path fill="none" stroke="#63b8ff" d="M190.91,-113.19C183.39,-104.98 174.21,-94.96 166.41,-86.45"/>
<polygon fill="#63b8ff" stroke="#63b8ff" points="169,-84.09 159.66,-79.08 163.84,-88.82 169,-84.09"/>
</a>
</g>
</g>
<!-- Node5 -->
<g id="Node000005" class="node">
<title>Node5</title>
<g id="a_Node000005"><a xlink:href="cmd__handle_8h.html" target="_top" xlink:title=" ">
<polygon fill="white" stroke="#666666" points="337.75,-77.5 253.5,-77.5 253.5,-56.75 337.75,-56.75 337.75,-77.5"/>
<text xml:space="preserve" text-anchor="middle" x="295.62" y="-64" font-family="Helvetica,sans-Serif" font-size="10.00">cmd_handle.h</text>
</a>
</g>
</g>
<!-- Node1&#45;&gt;Node5 -->
<g id="edge4_Node000001_Node000005" class="edge">
<title>Node1&#45;&gt;Node5</title>
<g id="a_edge4_Node000001_Node000005"><a xlink:title=" ">
<path fill="none" stroke="#63b8ff" d="M229.27,-113.19C242.39,-104.28 258.65,-93.24 271.79,-84.31"/>
<polygon fill="#63b8ff" stroke="#63b8ff" points="273.58,-87.33 279.88,-78.82 269.64,-81.54 273.58,-87.33"/>
</a>
</g>
</g>
<!-- Node3 -->
<g id="Node000003" class="node">
<title>Node3</title>
<g id="a_Node000003"><a xlink:title=" ">
<polygon fill="#e0e0e0" stroke="#999999" points="176,-20.75 123.25,-20.75 123.25,0 176,0 176,-20.75"/>
<text xml:space="preserve" text-anchor="middle" x="149.62" y="-7.25" font-family="Helvetica,sans-Serif" font-size="10.00">stdint.h</text>
</a>
</g>
</g>
<!-- Node2&#45;&gt;Node3 -->
<g id="edge2_Node000002_Node000003" class="edge">
<title>Node2&#45;&gt;Node3</title>
<g id="a_edge2_Node000002_Node000003"><a xlink:title=" ">
<path fill="none" stroke="#63b8ff" d="M149.62,-56.34C149.62,-49.72 149.62,-40.72 149.62,-32.52"/>
<polygon fill="#63b8ff" stroke="#63b8ff" points="153.13,-32.59 149.63,-22.59 146.13,-32.59 153.13,-32.59"/>
</a>
</g>
</g>
<!-- Node4 -->
<g id="Node000004" class="node">
<title>Node4</title>
<g id="a_Node000004"><a xlink:title=" ">
<polygon fill="#e0e0e0" stroke="#999999" points="105.25,-20.75 0,-20.75 0,0 105.25,0 105.25,-20.75"/>
<text xml:space="preserve" text-anchor="middle" x="52.62" y="-7.25" font-family="Helvetica,sans-Serif" font-size="10.00">fsl_uart_freertos.h</text>
</a>
</g>
</g>
<!-- Node2&#45;&gt;Node4 -->
<g id="edge3_Node000002_Node000004" class="edge">
<title>Node2&#45;&gt;Node4</title>
<g id="a_edge3_Node000002_Node000004"><a xlink:title=" ">
<path fill="none" stroke="#63b8ff" d="M132.28,-56.34C117.66,-48.08 96.49,-36.13 79.65,-26.63"/>
<polygon fill="#63b8ff" stroke="#63b8ff" points="81.56,-23.69 71.13,-21.82 78.12,-29.79 81.56,-23.69"/>
</a>
</g>
</g>
<!-- Node5&#45;&gt;Node3 -->
<g id="edge5_Node000005_Node000003" class="edge">
<title>Node5&#45;&gt;Node3</title>
<g id="a_edge5_Node000005_Node000003"><a xlink:title=" ">
<path fill="none" stroke="#63b8ff" d="M269.52,-56.34C246.27,-47.62 212.01,-34.77 186.06,-25.04"/>
<polygon fill="#63b8ff" stroke="#63b8ff" points="187.51,-21.84 176.92,-21.61 185.05,-28.4 187.51,-21.84"/>
</a>
</g>
</g>
<!-- Node6 -->
<g id="Node000006" class="node">
<title>Node6</title>
<g id="a_Node000006"><a xlink:title=" ">
<polygon fill="#e0e0e0" stroke="#999999" points="265.38,-20.75 193.88,-20.75 193.88,0 265.38,0 265.38,-20.75"/>
<text xml:space="preserve" text-anchor="middle" x="229.62" y="-7.25" font-family="Helvetica,sans-Serif" font-size="10.00">FreeRTOS.h</text>
</a>
</g>
</g>
<!-- Node5&#45;&gt;Node6 -->
<g id="edge6_Node000005_Node000006" class="edge">
<title>Node5&#45;&gt;Node6</title>
<g id="a_edge6_Node000005_Node000006"><a xlink:title=" ">
<path fill="none" stroke="#63b8ff" d="M283.83,-56.34C274.44,-48.55 261.09,-37.47 249.98,-28.26"/>
<polygon fill="#63b8ff" stroke="#63b8ff" points="252.42,-25.74 242.49,-22.04 247.95,-31.12 252.42,-25.74"/>
</a>
</g>
</g>
<!-- Node7 -->
<g id="Node000007" class="node">
<title>Node7</title>
<g id="a_Node000007"><a xlink:title=" ">
<polygon fill="#e0e0e0" stroke="#999999" points="374.12,-20.75 283.12,-20.75 283.12,0 374.12,0 374.12,-20.75"/>
<text xml:space="preserve" text-anchor="middle" x="328.62" y="-7.25" font-family="Helvetica,sans-Serif" font-size="10.00">event_groups.h</text>
</a>
</g>
</g>
<!-- Node5&#45;&gt;Node7 -->
<g id="edge7_Node000005_Node000007" class="edge">
<title>Node5&#45;&gt;Node7</title>
<g id="a_edge7_Node000005_Node000007"><a xlink:title=" ">
<path fill="none" stroke="#63b8ff" d="M301.52,-56.34C305.8,-49.25 311.71,-39.44 316.92,-30.79"/>
<polygon fill="#63b8ff" stroke="#63b8ff" points="319.83,-32.75 322,-22.37 313.84,-29.13 319.83,-32.75"/>
</a>
</g>
</g>
<!-- Node8 -->
<g id="Node000008" class="node">
<title>Node8</title>
<g id="a_Node000008"><a xlink:title=" ">
<polygon fill="#e0e0e0" stroke="#999999" points="477.12,-20.75 392.12,-20.75 392.12,0 477.12,0 477.12,-20.75"/>
<text xml:space="preserve" text-anchor="middle" x="434.62" y="-7.25" font-family="Helvetica,sans-Serif" font-size="10.00">fsl_common.h</text>
</a>
</g>
</g>
<!-- Node5&#45;&gt;Node8 -->
<g id="edge8_Node000005_Node000008" class="edge">
<title>Node5&#45;&gt;Node8</title>
<g id="a_edge8_Node000005_Node000008"><a xlink:title=" ">
<path fill="none" stroke="#63b8ff" d="M320.48,-56.34C342.51,-47.66 374.94,-34.88 399.61,-25.17"/>
<polygon fill="#63b8ff" stroke="#63b8ff" points="400.56,-28.55 408.58,-21.63 397.99,-22.04 400.56,-28.55"/>
</a>
</g>
</g>
<!-- Node9 -->
<g id="Node000009" class="node">
<title>Node9</title>
<g id="a_Node000009"><a xlink:title=" ">
<polygon fill="#e0e0e0" stroke="#999999" points="547.62,-20.75 495.62,-20.75 495.62,0 547.62,0 547.62,-20.75"/>
<text xml:space="preserve" text-anchor="middle" x="521.62" y="-7.25" font-family="Helvetica,sans-Serif" font-size="10.00">stdlib.h</text>
</a>
</g>
</g>
<!-- Node5&#45;&gt;Node9 -->
<g id="edge9_Node000005_Node000009" class="edge">
<title>Node5&#45;&gt;Node9</title>
<g id="a_edge9_Node000005_Node000009"><a xlink:title=" ">
<path fill="none" stroke="#63b8ff" d="M338.19,-56.38C374.53,-47.98 428.47,-35.31 484.12,-21.33"/>
<polygon fill="#63b8ff" stroke="#63b8ff" points="484.97,-24.73 493.81,-18.89 483.25,-17.94 484.97,-24.73"/>
</a>
</g>
</g>
</g>
</svg>
