<?xml version="1.0" encoding="UTF-8" standalone="no"?>
<!DOCTYPE svg PUBLIC "-//W3C//DTD SVG 1.1//EN"
 "http://www.w3.org/Graphics/SVG/1.1/DTD/svg11.dtd">
<!-- Generated by graphviz version 14.1.4 (0)
 -->
<!-- Title: source/driver/tmc2209/tmc2209_process.h Pages: 1 -->
<svg width="556pt" height="212pt"
 viewBox="0.00 0.00 556.00 212.00" xmlns="http://www.w3.org/2000/svg" xmlns:xlink="http://www.w3.org/1999/xlink">
<g id="graph0" class="graph" transform="scale(1 1) rotate(0) translate(4 207.75)">
<title>source/driver/tmc2209/tmc2209_process.h</title>
<!-- Node1 -->
<g id="Node000001" class="node">
<title>Node1</title>
<g id="a_Node000001"><a xlink:title=" ">
<polygon fill="#999999" stroke="#666666" points="365.38,-203.75 239.88,-203.75 239.88,-170.25 365.38,-170.25 365.38,-203.75"/>
<text xml:space="preserve" text-anchor="start" x="247.88" y="-190.25" font-family="Helvetica,sans-Serif" font-size="10.00">source/driver/tmc2209</text>
<text xml:space="preserve" text-anchor="middle" x="302.62" y="-177.5" font-family="Helvetica,sans-Serif" font-size="10.00">/tmc2209_process.h</text>
</a>
</g>
</g>
<!-- Node2 -->
<g id="Node000002" class="node">
<title>Node2</title>
<g id="a_Node000002"><a xlink:href="tmc2209__shared_8h.html" target="_top" xlink:title=" ">
<polygon fill="white" stroke="#666666" points="231.62,-77.5 125.62,-77.5 125.62,-56.75 231.62,-56.75 231.62,-77.5"/>
<text xml:space="preserve" text-anchor="middle" x="178.62" y="-64" font-family="Helvetica,sans-Serif" font-size="10.00">tmc2209_shared.h</text>
</a>
</g>
</g>
<!-- Node1&#45;&gt;Node2 -->
<g id="edge1_Node000001_Node000002" class="edge">
<title>Node1&#45;&gt;Node2</title>
<g id="a_edge1_Node000001_Node000002"><a xlink:title=" ">
<path fill="none" stroke="#63b8ff" d="M249.33,-169.85C230.67,-161.82 211.05,-150.31 197.62,-134.25 186.96,-121.49 182.27,-103.05 180.22,-88.89"/>
<polygon fill="#63b8ff" stroke="#63b8ff" points="183.74,-88.85 179.17,-79.29 176.78,-89.61 183.74,-88.85"/>
</a>
</g>
</g>
<!-- Node4 -->
<g id="Node000004" class="node">
<title>Node4</title>
<g id="a_Node000004"><a xlink:href="cmd__handle_8h.html" target="_top" xlink:title=" ">
<polygon fill="white" stroke="#666666" points="370.75,-77.5 286.5,-77.5 286.5,-56.75 370.75,-56.75 370.75,-77.5"/>
<text xml:space="preserve" text-anchor="middle" x="328.62" y="-64" font-family="Helvetica,sans-Serif" font-size="10.00">cmd_handle.h</text>
</a>
</g>
</g>
<!-- Node1&#45;&gt;Node4 -->
<g id="edge3_Node000001_Node000004" class="edge">
<title>Node1&#45;&gt;Node4</title>
<g id="a_edge3_Node000001_Node000004"><a xlink:title=" ">
<path fill="none" stroke="#63b8ff" d="M311.72,-169.77C316.8,-159.84 322.69,-146.69 325.62,-134.25 329.15,-119.33 329.81,-102.01 329.64,-88.84"/>
<polygon fill="#63b8ff" stroke="#63b8ff" points="333.15,-89.09 329.34,-79.21 326.16,-89.31 333.15,-89.09"/>
</a>
</g>
</g>
<!-- Node8 -->
<g id="Node000008" class="node">
<title>Node8</title>
<g id="a_Node000008"><a xlink:title=" ">
<polygon fill="#e0e0e0" stroke="#999999" points="548.12,-20.75 463.12,-20.75 463.12,0 548.12,0 548.12,-20.75"/>
<text xml:space="preserve" text-anchor="middle" x="505.62" y="-7.25" font-family="Helvetica,sans-Serif" font-size="10.00">fsl_common.h</text>
</a>
</g>
</g>
<!-- Node1&#45;&gt;Node8 -->
<g id="edge9_Node000001_Node000008" class="edge">
<title>Node1&#45;&gt;Node8</title>
<g id="a_edge9_Node000001_Node000008"><a xlink:title=" ">
<path fill="none" stroke="#63b8ff" d="M321.36,-169.88C359.71,-136.9 446.82,-61.96 485.95,-28.3"/>
<polygon fill="#63b8ff" stroke="#63b8ff" points="487.94,-31.21 493.24,-22.03 483.37,-25.9 487.94,-31.21"/>
</a>
</g>
</g>
<!-- Node10 -->
<g id="Node000010" class="node">
<title>Node10</title>
<g id="a_Node000010"><a xlink:href="tmc2209__internal_8h.html" target="_top" xlink:title=" ">
<polygon fill="white" stroke="#666666" points="316.88,-134.25 206.38,-134.25 206.38,-113.5 316.88,-113.5 316.88,-134.25"/>
<text xml:space="preserve" text-anchor="middle" x="261.62" y="-120.75" font-family="Helvetica,sans-Serif" font-size="10.00">tmc2209_internal.h</text>
</a>
</g>
</g>
<!-- Node1&#45;&gt;Node10 -->
<g id="edge10_Node000001_Node000010" class="edge">
<title>Node1&#45;&gt;Node10</title>
<g id="a_edge10_Node000001_Node000010"><a xlink:title=" ">
<path fill="none" stroke="#63b8ff" d="M291.85,-169.94C286.52,-161.99 280.05,-152.34 274.46,-144.02"/>
<polygon fill="#63b8ff" stroke="#63b8ff" points="277.55,-142.33 269.07,-135.97 271.73,-146.23 277.55,-142.33"/>
</a>
</g>
</g>
<!-- Node3 -->
<g id="Node000003" class="node">
<title>Node3</title>
<g id="a_Node000003"><a xlink:title=" ">
<polygon fill="#e0e0e0" stroke="#999999" points="105.25,-20.75 0,-20.75 0,0 105.25,0 105.25,-20.75"/>
<text xml:space="preserve" text-anchor="middle" x="52.62" y="-7.25" font-family="Helvetica,sans-Serif" font-size="10.00">fsl_uart_freertos.h</text>
</a>
</g>
</g>
<!-- Node2&#45;&gt;Node3 -->
<g id="edge2_Node000002_Node000003" class="edge">
<title>Node2&#45;&gt;Node3</title>
<g id="a_edge2_Node000002_Node000003"><a xlink:title=" ">
<path fill="none" stroke="#63b8ff" d="M156.1,-56.34C136.39,-47.77 107.52,-35.23 85.27,-25.56"/>
<polygon fill="#63b8ff" stroke="#63b8ff" points="86.91,-22.46 76.34,-21.68 84.12,-28.88 86.91,-22.46"/>
</a>
</g>
</g>
<!-- Node5 -->
<g id="Node000005" class="node">
<title>Node5</title>
<g id="a_Node000005"><a xlink:title=" ">
<polygon fill="#e0e0e0" stroke="#999999" points="176,-20.75 123.25,-20.75 123.25,0 176,0 176,-20.75"/>
<text xml:space="preserve" text-anchor="middle" x="149.62" y="-7.25" font-family="Helvetica,sans-Serif" font-size="10.00">stdint.h</text>
</a>
</g>
</g>
<!-- Node4&#45;&gt;Node5 -->
<g id="edge4_Node000004_Node000005" class="edge">
<title>Node4&#45;&gt;Node5</title>
<g id="a_edge4_Node000004_Node000005"><a xlink:title=" ">
<path fill="none" stroke="#63b8ff" d="M296.62,-56.34C265.95,-46.95 219.65,-32.79 187.23,-22.88"/>
<polygon fill="#63b8ff" stroke="#63b8ff" points="188.42,-19.58 177.84,-20 186.37,-26.28 188.42,-19.58"/>
</a>
</g>
</g>
<!-- Node6 -->
<g id="Node000006" class="node">
<title>Node6</title>
<g id="a_Node000006"><a xlink:title=" ">
<polygon fill="#e0e0e0" stroke="#999999" points="265.38,-20.75 193.88,-20.75 193.88,0 265.38,0 265.38,-20.75"/>
<text xml:space="preserve" text-anchor="middle" x="229.62" y="-7.25" font-family="Helvetica,sans-Serif" font-size="10.00">FreeRTOS.h</text>
</a>
</g>
</g>
<!-- Node4&#45;&gt;Node6 -->
<g id="edge5_Node000004_Node000006" class="edge">
<title>Node4&#45;&gt;Node6</title>
<g id="a_edge5_Node000004_Node000006"><a xlink:title=" ">
<path fill="none" stroke="#63b8ff" d="M310.93,-56.34C296,-48.08 274.39,-36.13 257.2,-26.63"/>
<polygon fill="#63b8ff" stroke="#63b8ff" points="258.94,-23.59 248.5,-21.81 255.55,-29.71 258.94,-23.59"/>
</a>
</g>
</g>
<!-- Node7 -->
<g id="Node000007" class="node">
<title>Node7</title>
<g id="a_Node000007"><a xlink:title=" ">
<polygon fill="#e0e0e0" stroke="#999999" points="374.12,-20.75 283.12,-20.75 283.12,0 374.12,0 374.12,-20.75"/>
<text xml:space="preserve" text-anchor="middle" x="328.62" y="-7.25" font-family="Helvetica,sans-Serif" font-size="10.00">event_groups.h</text>
</a>
</g>
</g>
<!-- Node4&#45;&gt;Node7 -->
<g id="edge6_Node000004_Node000007" class="edge">
<title>Node4&#45;&gt;Node7</title>
<g id="a_edge6_Node000004_Node000007"><a xlink:title=" ">
<path fill="none" stroke="#63b8ff" d="M328.62,-56.34C328.62,-49.72 328.62,-40.72 328.62,-32.52"/>
<polygon fill="#63b8ff" stroke="#63b8ff" points="332.13,-32.59 328.63,-22.59 325.13,-32.59 332.13,-32.59"/>
</a>
</g>
</g>
<!-- Node4&#45;&gt;Node8 -->
<g id="edge7_Node000004_Node000008" class="edge">
<title>Node4&#45;&gt;Node8</title>
<g id="a_edge7_Node000004_Node000008"><a xlink:title=" ">
<path fill="none" stroke="#63b8ff" d="M360.27,-56.34C389,-47.45 431.59,-34.27 463.25,-24.48"/>
<polygon fill="#63b8ff" stroke="#63b8ff" points="463.99,-27.92 472.51,-21.62 461.92,-21.23 463.99,-27.92"/>
</a>
</g>
</g>
<!-- Node9 -->
<g id="Node000009" class="node">
<title>Node9</title>
<g id="a_Node000009"><a xlink:title=" ">
<polygon fill="#e0e0e0" stroke="#999999" points="444.62,-20.75 392.62,-20.75 392.62,0 444.62,0 444.62,-20.75"/>
<text xml:space="preserve" text-anchor="middle" x="418.62" y="-7.25" font-family="Helvetica,sans-Serif" font-size="10.00">stdlib.h</text>
</a>
</g>
</g>
<!-- Node4&#45;&gt;Node9 -->
<g id="edge8_Node000004_Node000009" class="edge">
<title>Node4&#45;&gt;Node9</title>
<g id="a_edge8_Node000004_Node000009"><a xlink:title=" ">
<path fill="none" stroke="#63b8ff" d="M344.72,-56.34C358.15,-48.16 377.56,-36.36 393.11,-26.9"/>
<polygon fill="#63b8ff" stroke="#63b8ff" points="394.66,-30.05 401.38,-21.87 391.02,-24.07 394.66,-30.05"/>
</a>
</g>
</g>
<!-- Node10&#45;&gt;Node2 -->
<g id="edge11_Node000010_Node000002" class="edge">
<title>Node10&#45;&gt;Node2</title>
<g id="a_edge11_Node000010_Node000002"><a xlink:title=" ">
<path fill="none" stroke="#63b8ff" d="M246.79,-113.09C234.51,-104.99 216.84,-93.33 202.57,-83.92"/>
<polygon fill="#63b8ff" stroke="#63b8ff" points="204.87,-81.25 194.6,-78.66 201.02,-87.09 204.87,-81.25"/>
</a>
</g>
</g>
<!-- Node10&#45;&gt;Node4 -->
<g id="edge12_Node000010_Node000004" class="edge">
<title>Node10&#45;&gt;Node4</title>
<g id="a_edge12_Node000010_Node000004"><a xlink:title=" ">
<path fill="none" stroke="#63b8ff" d="M273.6,-113.09C283.13,-105.3 296.69,-94.22 307.96,-85.01"/>
<polygon fill="#63b8ff" stroke="#63b8ff" points="310.05,-87.82 315.58,-78.79 305.62,-82.4 310.05,-87.82"/>
</a>
</g>
</g>
</g>
</svg>
