<?xml version="1.0" encoding="UTF-8" standalone="no"?>
<!DOCTYPE svg PUBLIC "-//W3C//DTD SVG 1.1//EN"
 "http://www.w3.org/Graphics/SVG/1.1/DTD/svg11.dtd">
<!-- Generated by graphviz version 14.1.5 (0)
 -->
<!-- Title: source/driver/tmc2209/tmc2209_core.c Pages: 1 -->
<svg width="1074pt" height="269pt"
 viewBox="0.00 0.00 1074.00 269.00" xmlns="http://www.w3.org/2000/svg" xmlns:xlink="http://www.w3.org/1999/xlink">
<g id="graph0" class="graph" transform="scale(1 1) rotate(0) translate(4 264.5)">
<title>source/driver/tmc2209/tmc2209_core.c</title>
<!-- Node1 -->
<g id="Node000001" class="node">
<title>Node1</title>
<g id="a_Node000001"><a xlink:title=" ">
<polygon fill="#999999" stroke="#666666" points="646.38,-260.5 520.88,-260.5 520.88,-227 646.38,-227 646.38,-260.5"/>
<text xml:space="preserve" text-anchor="start" x="528.88" y="-247" font-family="Helvetica,sans-Serif" font-size="10.00">source/driver/tmc2209</text>
<text xml:space="preserve" text-anchor="middle" x="583.62" y="-234.25" font-family="Helvetica,sans-Serif" font-size="10.00">/tmc2209_core.c</text>
</a>
</g>
</g>
<!-- Node2 -->
<g id="Node000002" class="node">
<title>Node2</title>
<g id="a_Node000002"><a xlink:href="tmc2209__core_8h.html" target="_top" xlink:title=" ">
<polygon fill="white" stroke="#666666" points="479.62,-134.25 385.62,-134.25 385.62,-113.5 479.62,-113.5 479.62,-134.25"/>
<text xml:space="preserve" text-anchor="middle" x="432.62" y="-120.75" font-family="Helvetica,sans-Serif" font-size="10.00">tmc2209_core.h</text>
</a>
</g>
</g>
<!-- Node1&#45;&gt;Node2 -->
<g id="edge1_Node000001_Node000002" class="edge">
<title>Node1&#45;&gt;Node2</title>
<g id="a_edge1_Node000001_Node000002"><a xlink:title=" ">
<path fill="none" stroke="#63b8ff" d="M520.77,-240.79C484.05,-236 440.4,-223.25 416.62,-191 406.57,-177.36 412.81,-158.25 420.24,-144.08"/>
<polygon fill="#63b8ff" stroke="#63b8ff" points="423.12,-146.08 425.13,-135.68 417.07,-142.55 423.12,-146.08"/>
</a>
</g>
</g>
<!-- Node4 -->
<g id="Node000004" class="node">
<title>Node4</title>
<g id="a_Node000004"><a xlink:href="tmc2209__shared_8h.html" target="_top" xlink:title=" ">
<polygon fill="white" stroke="#666666" points="211.62,-77.5 105.62,-77.5 105.62,-56.75 211.62,-56.75 211.62,-77.5"/>
<text xml:space="preserve" text-anchor="middle" x="158.62" y="-64" font-family="Helvetica,sans-Serif" font-size="10.00">tmc2209_shared.h</text>
</a>
</g>
</g>
<!-- Node1&#45;&gt;Node4 -->
<g id="edge14_Node000001_Node000004" class="edge">
<title>Node1&#45;&gt;Node4</title>
<g id="a_edge14_Node000001_Node000004"><a xlink:title=" ">
<path fill="none" stroke="#63b8ff" d="M520.47,-240.05C402.85,-234.36 159.85,-219.3 134.62,-191 108.95,-162.19 130.43,-114.24 146.01,-87.56"/>
<polygon fill="#63b8ff" stroke="#63b8ff" points="148.93,-89.49 151.18,-79.14 142.96,-85.83 148.93,-89.49"/>
</a>
</g>
</g>
<!-- Node5 -->
<g id="Node000005" class="node">
<title>Node5</title>
<g id="a_Node000005"><a xlink:title=" ">
<polygon fill="#e0e0e0" stroke="#999999" points="105.25,-20.75 0,-20.75 0,0 105.25,0 105.25,-20.75"/>
<text xml:space="preserve" text-anchor="middle" x="52.62" y="-7.25" font-family="Helvetica,sans-Serif" font-size="10.00">fsl_uart_freertos.h</text>
</a>
</g>
</g>
<!-- Node1&#45;&gt;Node5 -->
<g id="edge31_Node000001_Node000005" class="edge">
<title>Node1&#45;&gt;Node5</title>
<g id="a_edge31_Node000001_Node000005"><a xlink:title=" ">
<path fill="none" stroke="#63b8ff" d="M520.6,-243.6C408.75,-243.85 181.56,-238.3 120.62,-191 70.22,-151.87 57.17,-70.87 53.8,-32.46"/>
<polygon fill="#63b8ff" stroke="#63b8ff" points="57.31,-32.42 53.1,-22.7 50.33,-32.93 57.31,-32.42"/>
</a>
</g>
</g>
<!-- Node8 -->
<g id="Node000008" class="node">
<title>Node8</title>
<g id="a_Node000008"><a xlink:title=" ">
<polygon fill="#e0e0e0" stroke="#999999" points="685.38,-20.75 613.88,-20.75 613.88,0 685.38,0 685.38,-20.75"/>
<text xml:space="preserve" text-anchor="middle" x="649.62" y="-7.25" font-family="Helvetica,sans-Serif" font-size="10.00">FreeRTOS.h</text>
</a>
</g>
</g>
<!-- Node1&#45;&gt;Node8 -->
<g id="edge33_Node000001_Node000008" class="edge">
<title>Node1&#45;&gt;Node8</title>
<g id="a_edge33_Node000001_Node000008"><a xlink:title=" ">
<path fill="none" stroke="#63b8ff" d="M646.68,-238.76C750.43,-231.54 947.79,-214.83 968.62,-191 1053.3,-94.18 804.74,-38.18 696.9,-18.97"/>
<polygon fill="#63b8ff" stroke="#63b8ff" points="697.64,-15.55 687.18,-17.28 696.43,-22.44 697.64,-15.55"/>
</a>
</g>
</g>
<!-- Node12 -->
<g id="Node000012" class="node">
<title>Node12</title>
<g id="a_Node000012"><a xlink:href="tmc2209__internal_8h.html" target="_top" xlink:title=" ">
<polygon fill="white" stroke="#666666" points="329.88,-134.25 219.38,-134.25 219.38,-113.5 329.88,-113.5 329.88,-134.25"/>
<text xml:space="preserve" text-anchor="middle" x="274.62" y="-120.75" font-family="Helvetica,sans-Serif" font-size="10.00">tmc2209_internal.h</text>
</a>
</g>
</g>
<!-- Node1&#45;&gt;Node12 -->
<g id="edge15_Node000001_Node000012" class="edge">
<title>Node1&#45;&gt;Node12</title>
<g id="a_edge15_Node000001_Node000012"><a xlink:title=" ">
<path fill="none" stroke="#63b8ff" d="M520.42,-227.05C486.49,-217.91 444.24,-205.36 407.62,-191 369.86,-176.19 328.28,-154.61 301.84,-140.17"/>
<polygon fill="#63b8ff" stroke="#63b8ff" points="303.59,-137.14 293.15,-135.38 300.21,-143.27 303.59,-137.14"/>
</a>
</g>
</g>
<!-- Node13 -->
<g id="Node000013" class="node">
<title>Node13</title>
<g id="a_Node000013"><a xlink:href="tmc2209__uart_8h.html" target="_top" xlink:title=" ">
<polygon fill="white" stroke="#666666" points="517.88,-191 425.38,-191 425.38,-170.25 517.88,-170.25 517.88,-191"/>
<text xml:space="preserve" text-anchor="middle" x="471.62" y="-177.5" font-family="Helvetica,sans-Serif" font-size="10.00">tmc2209_uart.h</text>
</a>
</g>
</g>
<!-- Node1&#45;&gt;Node13 -->
<g id="edge18_Node000001_Node000013" class="edge">
<title>Node1&#45;&gt;Node13</title>
<g id="a_edge18_Node000001_Node000013"><a xlink:title=" ">
<path fill="none" stroke="#63b8ff" d="M553.91,-226.53C536.95,-217.27 515.83,-205.75 499.23,-196.69"/>
<polygon fill="#63b8ff" stroke="#63b8ff" points="501.35,-193.86 490.89,-192.14 497.99,-200 501.35,-193.86"/>
</a>
</g>
</g>
<!-- Node14 -->
<g id="Node000014" class="node">
<title>Node14</title>
<g id="a_Node000014"><a xlink:href="tmc2209__setup_8h.html" target="_top" xlink:title=" ">
<polygon fill="white" stroke="#666666" points="673.62,-134.25 573.62,-134.25 573.62,-113.5 673.62,-113.5 673.62,-134.25"/>
<text xml:space="preserve" text-anchor="middle" x="623.62" y="-120.75" font-family="Helvetica,sans-Serif" font-size="10.00">tmc2209_setup.h</text>
</a>
</g>
</g>
<!-- Node1&#45;&gt;Node14 -->
<g id="edge23_Node000001_Node000014" class="edge">
<title>Node1&#45;&gt;Node14</title>
<g id="a_edge23_Node000001_Node000014"><a xlink:title=" ">
<path fill="none" stroke="#63b8ff" d="M587.34,-226.7C590.94,-211.87 596.83,-189.32 603.62,-170.25 606.65,-161.75 610.55,-152.6 614.11,-144.77"/>
<polygon fill="#63b8ff" stroke="#63b8ff" points="617.22,-146.36 618.28,-135.82 610.88,-143.4 617.22,-146.36"/>
</a>
</g>
</g>
<!-- Node15 -->
<g id="Node000015" class="node">
<title>Node15</title>
<g id="a_Node000015"><a xlink:href="log_8h.html" target="_top" xlink:title=" ">
<polygon fill="white" stroke="#666666" points="583.62,-77.5 543.62,-77.5 543.62,-56.75 583.62,-56.75 583.62,-77.5"/>
<text xml:space="preserve" text-anchor="middle" x="563.62" y="-64" font-family="Helvetica,sans-Serif" font-size="10.00">log.h</text>
</a>
</g>
</g>
<!-- Node1&#45;&gt;Node15 -->
<g id="edge27_Node000001_Node000015" class="edge">
<title>Node1&#45;&gt;Node15</title>
<g id="a_edge27_Node000001_Node000015"><a xlink:title=" ">
<path fill="none" stroke="#63b8ff" d="M579.99,-226.68C575.41,-205.6 567.76,-167.38 564.62,-134.25 563.2,-119.16 562.98,-102.05 563.1,-89.02"/>
<polygon fill="#63b8ff" stroke="#63b8ff" points="566.6,-89.14 563.27,-79.08 559.6,-89.02 566.6,-89.14"/>
</a>
</g>
</g>
<!-- Node16 -->
<g id="Node000016" class="node">
<title>Node16</title>
<g id="a_Node000016"><a xlink:title=" ">
<polygon fill="#e0e0e0" stroke="#999999" points="661.12,-191 612.12,-191 612.12,-170.25 661.12,-170.25 661.12,-191"/>
<text xml:space="preserve" text-anchor="middle" x="636.62" y="-177.5" font-family="Helvetica,sans-Serif" font-size="10.00">stdio.h</text>
</a>
</g>
</g>
<!-- Node1&#45;&gt;Node16 -->
<g id="edge30_Node000001_Node000016" class="edge">
<title>Node1&#45;&gt;Node16</title>
<g id="a_edge30_Node000001_Node000016"><a xlink:title=" ">
<path fill="none" stroke="#63b8ff" d="M597.55,-226.69C604.67,-218.48 613.36,-208.46 620.74,-199.95"/>
<polygon fill="#63b8ff" stroke="#63b8ff" points="623.19,-202.46 627.1,-192.61 617.9,-197.87 623.19,-202.46"/>
</a>
</g>
</g>
<!-- Node17 -->
<g id="Node000017" class="node">
<title>Node17</title>
<g id="a_Node000017"><a xlink:title=" ">
<polygon fill="#e0e0e0" stroke="#999999" points="742.25,-191 679,-191 679,-170.25 742.25,-170.25 742.25,-191"/>
<text xml:space="preserve" text-anchor="middle" x="710.62" y="-177.5" font-family="Helvetica,sans-Serif" font-size="10.00">fsl_gpio.h</text>
</a>
</g>
</g>
<!-- Node1&#45;&gt;Node17 -->
<g id="edge32_Node000001_Node000017" class="edge">
<title>Node1&#45;&gt;Node17</title>
<g id="a_edge32_Node000001_Node000017"><a xlink:title=" ">
<path fill="none" stroke="#63b8ff" d="M617.33,-226.53C636.83,-217.14 661.18,-205.42 680.11,-196.31"/>
<polygon fill="#63b8ff" stroke="#63b8ff" points="681.43,-199.56 688.92,-192.07 678.39,-193.25 681.43,-199.56"/>
</a>
</g>
</g>
<!-- Node18 -->
<g id="Node000018" class="node">
<title>Node18</title>
<g id="a_Node000018"><a xlink:title=" ">
<polygon fill="#e0e0e0" stroke="#999999" points="815.12,-191 760.12,-191 760.12,-170.25 815.12,-170.25 815.12,-191"/>
<text xml:space="preserve" text-anchor="middle" x="787.62" y="-177.5" font-family="Helvetica,sans-Serif" font-size="10.00">queue.h</text>
</a>
</g>
</g>
<!-- Node1&#45;&gt;Node18 -->
<g id="edge34_Node000001_Node000018" class="edge">
<title>Node1&#45;&gt;Node18</title>
<g id="a_edge34_Node000001_Node000018"><a xlink:title=" ">
<path fill="none" stroke="#63b8ff" d="M637.76,-226.53C672.77,-216.04 717.5,-202.64 748.95,-193.21"/>
<polygon fill="#63b8ff" stroke="#63b8ff" points="749.87,-196.59 758.44,-190.37 747.86,-189.89 749.87,-196.59"/>
</a>
</g>
</g>
<!-- Node19 -->
<g id="Node000019" class="node">
<title>Node19</title>
<g id="a_Node000019"><a xlink:title=" ">
<polygon fill="#e0e0e0" stroke="#999999" points="879.62,-191 833.62,-191 833.62,-170.25 879.62,-170.25 879.62,-191"/>
<text xml:space="preserve" text-anchor="middle" x="856.62" y="-177.5" font-family="Helvetica,sans-Serif" font-size="10.00">task.h</text>
</a>
</g>
</g>
<!-- Node1&#45;&gt;Node19 -->
<g id="edge35_Node000001_Node000019" class="edge">
<title>Node1&#45;&gt;Node19</title>
<g id="a_edge35_Node000001_Node000019"><a xlink:title=" ">
<path fill="none" stroke="#63b8ff" d="M646.84,-230.5C693.05,-221.24 757.46,-207.71 822.41,-191.43"/>
<polygon fill="#63b8ff" stroke="#63b8ff" points="822.96,-194.9 831.79,-189.06 821.24,-188.12 822.96,-194.9"/>
</a>
</g>
</g>
<!-- Node20 -->
<g id="Node000020" class="node">
<title>Node20</title>
<g id="a_Node000020"><a xlink:title=" ">
<polygon fill="#e0e0e0" stroke="#999999" points="959.5,-191 897.75,-191 897.75,-170.25 959.5,-170.25 959.5,-191"/>
<text xml:space="preserve" text-anchor="middle" x="928.62" y="-177.5" font-family="Helvetica,sans-Serif" font-size="10.00">fsl_port.h</text>
</a>
</g>
</g>
<!-- Node1&#45;&gt;Node20 -->
<g id="edge36_Node000001_Node000020" class="edge">
<title>Node1&#45;&gt;Node20</title>
<g id="a_edge36_Node000001_Node000020"><a xlink:title=" ">
<path fill="none" stroke="#63b8ff" d="M646.63,-233.23C705.98,-224 797.61,-209.07 886.55,-191.32"/>
<polygon fill="#63b8ff" stroke="#63b8ff" points="887.06,-194.79 896.17,-189.38 885.68,-187.92 887.06,-194.79"/>
</a>
</g>
</g>
<!-- Node21 -->
<g id="Node000021" class="node">
<title>Node21</title>
<g id="a_Node000021"><a xlink:href="tmc2209__process_8h.html" target="_top" xlink:title=" ">
<polygon fill="white" stroke="#666666" points="253.88,-191 143.38,-191 143.38,-170.25 253.88,-170.25 253.88,-191"/>
<text xml:space="preserve" text-anchor="middle" x="198.62" y="-177.5" font-family="Helvetica,sans-Serif" font-size="10.00">tmc2209_process.h</text>
</a>
</g>
</g>
<!-- Node1&#45;&gt;Node21 -->
<g id="edge37_Node000001_Node000021" class="edge">
<title>Node1&#45;&gt;Node21</title>
<g id="a_edge37_Node000001_Node000021"><a xlink:title=" ">
<path fill="none" stroke="#63b8ff" d="M520.48,-232.72C450.22,-221.57 337.15,-203.62 265.44,-192.23"/>
<polygon fill="#63b8ff" stroke="#63b8ff" points="266.22,-188.81 255.79,-190.7 265.12,-195.73 266.22,-188.81"/>
</a>
</g>
</g>
<!-- Node22 -->
<g id="Node000022" class="node">
<title>Node22</title>
<g id="a_Node000022"><a xlink:title=" ">
<polygon fill="#e0e0e0" stroke="#999999" points="1065.88,-191 1015.38,-191 1015.38,-170.25 1065.88,-170.25 1065.88,-191"/>
<text xml:space="preserve" text-anchor="middle" x="1040.62" y="-177.5" font-family="Helvetica,sans-Serif" font-size="10.00">math.h</text>
</a>
</g>
</g>
<!-- Node1&#45;&gt;Node22 -->
<g id="edge42_Node000001_Node000022" class="edge">
<title>Node1&#45;&gt;Node22</title>
<g id="a_edge42_Node000001_Node000022"><a xlink:title=" ">
<path fill="none" stroke="#63b8ff" d="M646.63,-237.18C728.75,-229.42 876.62,-213.69 1001.62,-191 1002.45,-190.85 1003.28,-190.69 1004.11,-190.53"/>
<polygon fill="#63b8ff" stroke="#63b8ff" points="1004.59,-194.01 1013.64,-188.51 1003.13,-187.16 1004.59,-194.01"/>
</a>
</g>
</g>
<!-- Node3 -->
<g id="Node000003" class="node">
<title>Node3</title>
<g id="a_Node000003"><a xlink:title=" ">
<polygon fill="#e0e0e0" stroke="#999999" points="504,-20.75 451.25,-20.75 451.25,0 504,0 504,-20.75"/>
<text xml:space="preserve" text-anchor="middle" x="477.62" y="-7.25" font-family="Helvetica,sans-Serif" font-size="10.00">stdint.h</text>
</a>
</g>
</g>
<!-- Node2&#45;&gt;Node3 -->
<g id="edge2_Node000002_Node000003" class="edge">
<title>Node2&#45;&gt;Node3</title>
<g id="a_edge2_Node000002_Node000003"><a xlink:title=" ">
<path fill="none" stroke="#63b8ff" d="M439.13,-113.14C444.88,-104.18 453.18,-90.38 458.62,-77.5 464.89,-62.68 469.83,-45.14 473.09,-31.85"/>
<polygon fill="#63b8ff" stroke="#63b8ff" points="476.41,-33.05 475.27,-22.51 469.59,-31.46 476.41,-33.05"/>
</a>
</g>
</g>
<!-- Node2&#45;&gt;Node4 -->
<g id="edge3_Node000002_Node000004" class="edge">
<title>Node2&#45;&gt;Node4</title>
<g id="a_edge3_Node000002_Node000004"><a xlink:title=" ">
<path fill="none" stroke="#63b8ff" d="M385.21,-113.4C339.07,-104.18 268.8,-90.14 218.75,-80.14"/>
<polygon fill="#63b8ff" stroke="#63b8ff" points="219.74,-76.77 209.25,-78.24 218.37,-83.63 219.74,-76.77"/>
</a>
</g>
</g>
<!-- Node6 -->
<g id="Node000006" class="node">
<title>Node6</title>
<g id="a_Node000006"><a xlink:title=" ">
<polygon fill="#e0e0e0" stroke="#999999" points="392.12,-20.75 307.12,-20.75 307.12,0 392.12,0 392.12,-20.75"/>
<text xml:space="preserve" text-anchor="middle" x="349.62" y="-7.25" font-family="Helvetica,sans-Serif" font-size="10.00">fsl_common.h</text>
</a>
</g>
</g>
<!-- Node2&#45;&gt;Node6 -->
<g id="edge6_Node000002_Node000006" class="edge">
<title>Node2&#45;&gt;Node6</title>
<g id="a_edge6_Node000002_Node000006"><a xlink:title=" ">
<path fill="none" stroke="#63b8ff" d="M406.62,-113.02C390.8,-105.65 371.59,-93.99 360.62,-77.5 351.85,-64.29 349.3,-46.41 348.83,-32.57"/>
<polygon fill="#63b8ff" stroke="#63b8ff" points="352.33,-32.77 348.87,-22.76 345.33,-32.75 352.33,-32.77"/>
</a>
</g>
</g>
<!-- Node7 -->
<g id="Node000007" class="node">
<title>Node7</title>
<g id="a_Node000007"><a xlink:href="cmd__handle_8h.html" target="_top" xlink:title=" ">
<polygon fill="white" stroke="#666666" points="313.75,-77.5 229.5,-77.5 229.5,-56.75 313.75,-56.75 313.75,-77.5"/>
<text xml:space="preserve" text-anchor="middle" x="271.62" y="-64" font-family="Helvetica,sans-Serif" font-size="10.00">cmd_handle.h</text>
</a>
</g>
</g>
<!-- Node2&#45;&gt;Node7 -->
<g id="edge7_Node000002_Node000007" class="edge">
<title>Node2&#45;&gt;Node7</title>
<g id="a_edge7_Node000002_Node000007"><a xlink:title=" ">
<path fill="none" stroke="#63b8ff" d="M403.84,-113.09C378.05,-104.32 339.98,-91.37 311.3,-81.62"/>
<polygon fill="#63b8ff" stroke="#63b8ff" points="312.46,-78.31 301.86,-78.41 310.2,-84.94 312.46,-78.31"/>
</a>
</g>
</g>
<!-- Node11 -->
<g id="Node000011" class="node">
<title>Node11</title>
<g id="a_Node000011"><a xlink:title=" ">
<polygon fill="#e0e0e0" stroke="#999999" points="449.5,-77.5 369.75,-77.5 369.75,-56.75 449.5,-56.75 449.5,-77.5"/>
<text xml:space="preserve" text-anchor="middle" x="409.62" y="-64" font-family="Helvetica,sans-Serif" font-size="10.00">peripherals.h</text>
</a>
</g>
</g>
<!-- Node2&#45;&gt;Node11 -->
<g id="edge13_Node000002_Node000011" class="edge">
<title>Node2&#45;&gt;Node11</title>
<g id="a_edge13_Node000002_Node000011"><a xlink:title=" ">
<path fill="none" stroke="#63b8ff" d="M428.51,-113.09C425.63,-106.24 421.69,-96.84 418.14,-88.4"/>
<polygon fill="#63b8ff" stroke="#63b8ff" points="421.39,-87.09 414.29,-79.22 414.93,-89.8 421.39,-87.09"/>
</a>
</g>
</g>
<!-- Node4&#45;&gt;Node3 -->
<g id="edge4_Node000004_Node000003" class="edge">
<title>Node4&#45;&gt;Node3</title>
<g id="a_edge4_Node000004_Node000003"><a xlink:title=" ">
<path fill="none" stroke="#63b8ff" d="M212.02,-56.96C276.43,-45.91 383.1,-27.6 439.67,-17.89"/>
<polygon fill="#63b8ff" stroke="#63b8ff" points="440.19,-21.35 449.46,-16.21 439.01,-14.45 440.19,-21.35"/>
</a>
</g>
</g>
<!-- Node4&#45;&gt;Node5 -->
<g id="edge5_Node000004_Node000005" class="edge">
<title>Node4&#45;&gt;Node5</title>
<g id="a_edge5_Node000004_Node000005"><a xlink:title=" ">
<path fill="none" stroke="#63b8ff" d="M139.67,-56.34C123.55,-48.01 100.12,-35.91 81.63,-26.36"/>
<polygon fill="#63b8ff" stroke="#63b8ff" points="83.25,-23.25 72.76,-21.77 80.04,-29.47 83.25,-23.25"/>
</a>
</g>
</g>
<!-- Node7&#45;&gt;Node3 -->
<g id="edge8_Node000007_Node000003" class="edge">
<title>Node7&#45;&gt;Node3</title>
<g id="a_edge8_Node000007_Node000003"><a xlink:title=" ">
<path fill="none" stroke="#63b8ff" d="M308.45,-56.34C345.58,-46.47 402.6,-31.31 440.01,-21.37"/>
<polygon fill="#63b8ff" stroke="#63b8ff" points="440.71,-24.81 449.48,-18.86 438.92,-18.04 440.71,-24.81"/>
</a>
</g>
</g>
<!-- Node7&#45;&gt;Node6 -->
<g id="edge11_Node000007_Node000006" class="edge">
<title>Node7&#45;&gt;Node6</title>
<g id="a_edge11_Node000007_Node000006"><a xlink:title=" ">
<path fill="none" stroke="#63b8ff" d="M285.57,-56.34C296.99,-48.32 313.39,-36.81 326.74,-27.44"/>
<polygon fill="#63b8ff" stroke="#63b8ff" points="328.39,-30.56 334.56,-21.95 324.37,-24.83 328.39,-30.56"/>
</a>
</g>
</g>
<!-- Node7&#45;&gt;Node8 -->
<g id="edge9_Node000007_Node000008" class="edge">
<title>Node7&#45;&gt;Node8</title>
<g id="a_edge9_Node000007_Node000008"><a xlink:title=" ">
<path fill="none" stroke="#63b8ff" d="M313.89,-60C384.93,-49.71 527.81,-29.02 602.18,-18.25"/>
<polygon fill="#63b8ff" stroke="#63b8ff" points="602.62,-21.72 612.01,-16.82 601.61,-14.79 602.62,-21.72"/>
</a>
</g>
</g>
<!-- Node9 -->
<g id="Node000009" class="node">
<title>Node9</title>
<g id="a_Node000009"><a xlink:title=" ">
<polygon fill="#e0e0e0" stroke="#999999" points="218.12,-20.75 127.12,-20.75 127.12,0 218.12,0 218.12,-20.75"/>
<text xml:space="preserve" text-anchor="middle" x="172.62" y="-7.25" font-family="Helvetica,sans-Serif" font-size="10.00">event_groups.h</text>
</a>
</g>
</g>
<!-- Node7&#45;&gt;Node9 -->
<g id="edge10_Node000007_Node000009" class="edge">
<title>Node7&#45;&gt;Node9</title>
<g id="a_edge10_Node000007_Node000009"><a xlink:title=" ">
<path fill="none" stroke="#63b8ff" d="M253.93,-56.34C239,-48.08 217.39,-36.13 200.2,-26.63"/>
<polygon fill="#63b8ff" stroke="#63b8ff" points="201.94,-23.59 191.5,-21.81 198.55,-29.71 201.94,-23.59"/>
</a>
</g>
</g>
<!-- Node10 -->
<g id="Node000010" class="node">
<title>Node10</title>
<g id="a_Node000010"><a xlink:title=" ">
<polygon fill="#e0e0e0" stroke="#999999" points="288.62,-20.75 236.62,-20.75 236.62,0 288.62,0 288.62,-20.75"/>
<text xml:space="preserve" text-anchor="middle" x="262.62" y="-7.25" font-family="Helvetica,sans-Serif" font-size="10.00">stdlib.h</text>
</a>
</g>
</g>
<!-- Node7&#45;&gt;Node10 -->
<g id="edge12_Node000007_Node000010" class="edge">
<title>Node7&#45;&gt;Node10</title>
<g id="a_edge12_Node000007_Node000010"><a xlink:title=" ">
<path fill="none" stroke="#63b8ff" d="M270.02,-56.34C268.92,-49.64 267.41,-40.51 266.05,-32.23"/>
<polygon fill="#63b8ff" stroke="#63b8ff" points="269.54,-31.87 264.47,-22.57 262.63,-33.01 269.54,-31.87"/>
</a>
</g>
</g>
<!-- Node12&#45;&gt;Node4 -->
<g id="edge16_Node000012_Node000004" class="edge">
<title>Node12&#45;&gt;Node4</title>
<g id="a_edge16_Node000012_Node000004"><a xlink:title=" ">
<path fill="none" stroke="#63b8ff" d="M253.89,-113.09C235.99,-104.64 209.88,-92.32 189.52,-82.71"/>
<polygon fill="#63b8ff" stroke="#63b8ff" points="191.09,-79.58 180.55,-78.47 188.1,-85.91 191.09,-79.58"/>
</a>
</g>
</g>
<!-- Node12&#45;&gt;Node7 -->
<g id="edge17_Node000012_Node000007" class="edge">
<title>Node12&#45;&gt;Node7</title>
<g id="a_edge17_Node000012_Node000007"><a xlink:title=" ">
<path fill="none" stroke="#63b8ff" d="M274.09,-113.09C273.73,-106.47 273.23,-97.47 272.78,-89.27"/>
<polygon fill="#63b8ff" stroke="#63b8ff" points="276.28,-89.13 272.24,-79.34 269.29,-89.52 276.28,-89.13"/>
</a>
</g>
</g>
<!-- Node13&#45;&gt;Node3 -->
<g id="edge19_Node000013_Node000003" class="edge">
<title>Node13&#45;&gt;Node3</title>
<g id="a_edge19_Node000013_Node000003"><a xlink:title=" ">
<path fill="none" stroke="#63b8ff" d="M476.47,-169.83C480.63,-160.83 486.32,-147 488.62,-134.25 495.06,-98.72 488.25,-56.69 482.85,-32.13"/>
<polygon fill="#63b8ff" stroke="#63b8ff" points="486.27,-31.42 480.57,-22.49 479.46,-33.02 486.27,-31.42"/>
</a>
</g>
</g>
<!-- Node13&#45;&gt;Node4 -->
<g id="edge20_Node000013_Node000004" class="edge">
<title>Node13&#45;&gt;Node4</title>
<g id="a_edge20_Node000013_Node000004"><a xlink:title=" ">
<path fill="none" stroke="#63b8ff" d="M450.33,-169.86C430.97,-160.88 401.69,-147.07 376.62,-134.25 359.49,-125.49 356.54,-120.52 338.62,-113.5 301.39,-98.91 257.97,-87.81 223.1,-80.24"/>
<polygon fill="#63b8ff" stroke="#63b8ff" points="224.09,-76.87 213.58,-78.22 222.64,-83.72 224.09,-76.87"/>
</a>
</g>
</g>
<!-- Node13&#45;&gt;Node8 -->
<g id="edge22_Node000013_Node000008" class="edge">
<title>Node13&#45;&gt;Node8</title>
<g id="a_edge22_Node000013_Node000008"><a xlink:title=" ">
<path fill="none" stroke="#63b8ff" d="M518.33,-176.27C574.09,-171.18 662.38,-159.32 682.62,-134.25 707.25,-103.76 681.89,-56.5 664,-30.37"/>
<polygon fill="#63b8ff" stroke="#63b8ff" points="666.96,-28.49 658.29,-22.4 661.27,-32.57 666.96,-28.49"/>
</a>
</g>
</g>
<!-- Node13&#45;&gt;Node12 -->
<g id="edge21_Node000013_Node000012" class="edge">
<title>Node13&#45;&gt;Node12</title>
<g id="a_edge21_Node000013_Node000012"><a xlink:title=" ">
<path fill="none" stroke="#63b8ff" d="M436.41,-169.84C404.15,-160.87 356.19,-147.54 320.86,-137.73"/>
<polygon fill="#63b8ff" stroke="#63b8ff" points="321.9,-134.38 311.33,-135.08 320.03,-141.13 321.9,-134.38"/>
</a>
</g>
</g>
<!-- Node14&#45;&gt;Node3 -->
<g id="edge24_Node000014_Node000003" class="edge">
<title>Node14&#45;&gt;Node3</title>
<g id="a_edge24_Node000014_Node000003"><a xlink:title=" ">
<path fill="none" stroke="#63b8ff" d="M621.57,-113.45C618.02,-99.31 609.44,-72.55 592.62,-56.75 571.29,-36.71 540.04,-25.14 515.5,-18.71"/>
<polygon fill="#63b8ff" stroke="#63b8ff" points="516.43,-15.33 505.88,-16.38 514.78,-22.14 516.43,-15.33"/>
</a>
</g>
</g>
<!-- Node14&#45;&gt;Node4 -->
<g id="edge26_Node000014_Node000004" class="edge">
<title>Node14&#45;&gt;Node4</title>
<g id="a_edge26_Node000014_Node000004"><a xlink:title=" ">
<path fill="none" stroke="#63b8ff" d="M573.29,-117.83C499.02,-110.24 355.45,-95.06 223.17,-77.79"/>
<polygon fill="#63b8ff" stroke="#63b8ff" points="223.91,-74.36 213.54,-76.53 223,-81.3 223.91,-74.36"/>
</a>
</g>
</g>
<!-- Node14&#45;&gt;Node8 -->
<g id="edge25_Node000014_Node000008" class="edge">
<title>Node14&#45;&gt;Node8</title>
<g id="a_edge25_Node000014_Node000008"><a xlink:title=" ">
<path fill="none" stroke="#63b8ff" d="M625.84,-113.37C630,-95.52 639.08,-56.61 644.74,-32.34"/>
<polygon fill="#63b8ff" stroke="#63b8ff" points="648.13,-33.18 647,-22.65 641.32,-31.59 648.13,-33.18"/>
</a>
</g>
</g>
<!-- Node15&#45;&gt;Node6 -->
<g id="edge29_Node000015_Node000006" class="edge">
<title>Node15&#45;&gt;Node6</title>
<g id="a_edge29_Node000015_Node000006"><a xlink:title=" ">
<path fill="none" stroke="#63b8ff" d="M543.49,-60.97C510.71,-52.59 444.88,-35.74 399.07,-24.03"/>
<polygon fill="#63b8ff" stroke="#63b8ff" points="400.2,-20.7 389.65,-21.61 398.47,-27.48 400.2,-20.7"/>
</a>
</g>
</g>
<!-- Node15&#45;&gt;Node8 -->
<g id="edge28_Node000015_Node000008" class="edge">
<title>Node15&#45;&gt;Node8</title>
<g id="a_edge28_Node000015_Node000008"><a xlink:title=" ">
<path fill="none" stroke="#63b8ff" d="M579,-56.34C591.72,-48.24 610.03,-36.58 624.82,-27.17"/>
<polygon fill="#63b8ff" stroke="#63b8ff" points="626.55,-30.21 633.11,-21.89 622.79,-24.31 626.55,-30.21"/>
</a>
</g>
</g>
<!-- Node21&#45;&gt;Node4 -->
<g id="edge38_Node000021_Node000004" class="edge">
<title>Node21&#45;&gt;Node4</title>
<g id="a_edge38_Node000021_Node000004"><a xlink:title=" ">
<path fill="none" stroke="#63b8ff" d="M193.68,-170.07C189.12,-161.01 182.35,-146.94 177.62,-134.25 172.06,-119.32 167.14,-102 163.7,-88.83"/>
<polygon fill="#63b8ff" stroke="#63b8ff" points="167.1,-87.99 161.25,-79.16 160.31,-89.71 167.1,-87.99"/>
</a>
</g>
</g>
<!-- Node21&#45;&gt;Node6 -->
<g id="edge40_Node000021_Node000006" class="edge">
<title>Node21&#45;&gt;Node6</title>
<g id="a_edge40_Node000021_Node000006"><a xlink:title=" ">
<path fill="none" stroke="#63b8ff" d="M179.58,-169.89C141.27,-149.08 61.48,-98.74 96.62,-56.75 123.87,-24.19 236.97,-28.07 295.5,-20.78"/>
<polygon fill="#63b8ff" stroke="#63b8ff" points="295.91,-24.26 305.28,-19.33 294.87,-17.34 295.91,-24.26"/>
</a>
</g>
</g>
<!-- Node21&#45;&gt;Node7 -->
<g id="edge39_Node000021_Node000007" class="edge">
<title>Node21&#45;&gt;Node7</title>
<g id="a_edge39_Node000021_Node000007"><a xlink:title=" ">
<path fill="none" stroke="#63b8ff" d="M198.24,-169.86C198.15,-156.22 199.67,-131.15 210.62,-113.5 218.16,-101.36 230.23,-91.37 241.66,-83.88"/>
<polygon fill="#63b8ff" stroke="#63b8ff" points="243.38,-86.93 250.11,-78.75 239.75,-80.95 243.38,-86.93"/>
</a>
</g>
</g>
<!-- Node21&#45;&gt;Node12 -->
<g id="edge41_Node000021_Node000012" class="edge">
<title>Node21&#45;&gt;Node12</title>
<g id="a_edge41_Node000021_Node000012"><a xlink:title=" ">
<path fill="none" stroke="#63b8ff" d="M212.21,-169.84C223.24,-161.9 239.01,-150.53 251.95,-141.21"/>
<polygon fill="#63b8ff" stroke="#63b8ff" points="253.86,-144.15 259.93,-135.46 249.77,-138.47 253.86,-144.15"/>
</a>
</g>
</g>
</g>
</svg>
