<?xml version="1.0" encoding="UTF-8" standalone="no"?>
<!DOCTYPE svg PUBLIC "-//W3C//DTD SVG 1.1//EN"
 "http://www.w3.org/Graphics/SVG/1.1/DTD/svg11.dtd">
<!-- Generated by graphviz version 14.1.5 (0)
 -->
<!-- Title: source/driver/tmc2209/tmc2209_core.h Pages: 1 -->
<svg width="556pt" height="155pt"
 viewBox="0.00 0.00 556.00 155.00" xmlns="http://www.w3.org/2000/svg" xmlns:xlink="http://www.w3.org/1999/xlink">
<g id="graph0" class="graph" transform="scale(1 1) rotate(0) translate(4 151)">
<title>source/driver/tmc2209/tmc2209_core.h</title>
<!-- Node1 -->
<g id="Node000001" class="node">
<title>Node1</title>
<g id="a_Node000001"><a xlink:title=" ">
<polygon fill="#999999" stroke="#666666" points="299.38,-147 173.88,-147 173.88,-113.5 299.38,-113.5 299.38,-147"/>
<text xml:space="preserve" text-anchor="start" x="181.88" y="-133.5" font-family="Helvetica,sans-Serif" font-size="10.00">source/driver/tmc2209</text>
<text xml:space="preserve" text-anchor="middle" x="236.62" y="-120.75" font-family="Helvetica,sans-Serif" font-size="10.00">/tmc2209_core.h</text>
</a>
</g>
</g>
<!-- Node2 -->
<g id="Node000002" class="node">
<title>Node2</title>
<g id="a_Node000002"><a xlink:title=" ">
<polygon fill="#e0e0e0" stroke="#999999" points="176,-20.75 123.25,-20.75 123.25,0 176,0 176,-20.75"/>
<text xml:space="preserve" text-anchor="middle" x="149.62" y="-7.25" font-family="Helvetica,sans-Serif" font-size="10.00">stdint.h</text>
</a>
</g>
</g>
<!-- Node1&#45;&gt;Node2 -->
<g id="edge1_Node000001_Node000002" class="edge">
<title>Node1&#45;&gt;Node2</title>
<g id="a_edge1_Node000001_Node000002"><a xlink:title=" ">
<path fill="none" stroke="#63b8ff" d="M224.89,-113.35C208.97,-91.78 180.58,-53.31 163.58,-30.28"/>
<polygon fill="#63b8ff" stroke="#63b8ff" points="166.52,-28.37 157.76,-22.4 160.89,-32.52 166.52,-28.37"/>
</a>
</g>
</g>
<!-- Node3 -->
<g id="Node000003" class="node">
<title>Node3</title>
<g id="a_Node000003"><a xlink:href="tmc2209__shared_8h.html" target="_top" xlink:title=" ">
<polygon fill="white" stroke="#666666" points="170.62,-77.5 64.62,-77.5 64.62,-56.75 170.62,-56.75 170.62,-77.5"/>
<text xml:space="preserve" text-anchor="middle" x="117.62" y="-64" font-family="Helvetica,sans-Serif" font-size="10.00">tmc2209_shared.h</text>
</a>
</g>
</g>
<!-- Node1&#45;&gt;Node3 -->
<g id="edge2_Node000001_Node000003" class="edge">
<title>Node1&#45;&gt;Node3</title>
<g id="a_edge2_Node000001_Node000003"><a xlink:title=" ">
<path fill="none" stroke="#63b8ff" d="M205.05,-113.03C186.86,-103.69 164.17,-92.03 146.46,-82.94"/>
<polygon fill="#63b8ff" stroke="#63b8ff" points="148.53,-80.06 138.03,-78.61 145.33,-86.29 148.53,-80.06"/>
</a>
</g>
</g>
<!-- Node5 -->
<g id="Node000005" class="node">
<title>Node5</title>
<g id="a_Node000005"><a xlink:title=" ">
<polygon fill="#e0e0e0" stroke="#999999" points="279.12,-20.75 194.12,-20.75 194.12,0 279.12,0 279.12,-20.75"/>
<text xml:space="preserve" text-anchor="middle" x="236.62" y="-7.25" font-family="Helvetica,sans-Serif" font-size="10.00">fsl_common.h</text>
</a>
</g>
</g>
<!-- Node1&#45;&gt;Node5 -->
<g id="edge5_Node000001_Node000005" class="edge">
<title>Node1&#45;&gt;Node5</title>
<g id="a_edge5_Node000001_Node000005"><a xlink:title=" ">
<path fill="none" stroke="#63b8ff" d="M236.62,-113.35C236.62,-92.46 236.62,-55.71 236.62,-32.5"/>
<polygon fill="#63b8ff" stroke="#63b8ff" points="240.13,-32.7 236.63,-22.7 233.13,-32.7 240.13,-32.7"/>
</a>
</g>
</g>
<!-- Node6 -->
<g id="Node000006" class="node">
<title>Node6</title>
<g id="a_Node000006"><a xlink:href="cmd__handle_8h.html" target="_top" xlink:title=" ">
<polygon fill="white" stroke="#666666" points="348.75,-77.5 264.5,-77.5 264.5,-56.75 348.75,-56.75 348.75,-77.5"/>
<text xml:space="preserve" text-anchor="middle" x="306.62" y="-64" font-family="Helvetica,sans-Serif" font-size="10.00">cmd_handle.h</text>
</a>
</g>
</g>
<!-- Node1&#45;&gt;Node6 -->
<g id="edge6_Node000001_Node000006" class="edge">
<title>Node1&#45;&gt;Node6</title>
<g id="a_edge6_Node000001_Node000006"><a xlink:title=" ">
<path fill="none" stroke="#63b8ff" d="M255.02,-113.19C264.82,-104.63 276.88,-94.1 286.88,-85.37"/>
<polygon fill="#63b8ff" stroke="#63b8ff" points="288.98,-88.18 294.21,-78.96 284.38,-82.9 288.98,-88.18"/>
</a>
</g>
</g>
<!-- Node10 -->
<g id="Node000010" class="node">
<title>Node10</title>
<g id="a_Node000010"><a xlink:title=" ">
<polygon fill="#e0e0e0" stroke="#999999" points="446.5,-77.5 366.75,-77.5 366.75,-56.75 446.5,-56.75 446.5,-77.5"/>
<text xml:space="preserve" text-anchor="middle" x="406.62" y="-64" font-family="Helvetica,sans-Serif" font-size="10.00">peripherals.h</text>
</a>
</g>
</g>
<!-- Node1&#45;&gt;Node10 -->
<g id="edge12_Node000001_Node000010" class="edge">
<title>Node1&#45;&gt;Node10</title>
<g id="a_edge12_Node000001_Node000010"><a xlink:title=" ">
<path fill="none" stroke="#63b8ff" d="M281.74,-113.03C308.81,-103.29 342.87,-91.05 368.58,-81.8"/>
<polygon fill="#63b8ff" stroke="#63b8ff" points="369.75,-85.1 377.97,-78.43 367.38,-78.52 369.75,-85.1"/>
</a>
</g>
</g>
<!-- Node3&#45;&gt;Node2 -->
<g id="edge3_Node000003_Node000002" class="edge">
<title>Node3&#45;&gt;Node2</title>
<g id="a_edge3_Node000003_Node000002"><a xlink:title=" ">
<path fill="none" stroke="#63b8ff" d="M123.35,-56.34C127.49,-49.25 133.22,-39.44 138.28,-30.79"/>
<polygon fill="#63b8ff" stroke="#63b8ff" points="141.17,-32.78 143.19,-22.39 135.12,-29.25 141.17,-32.78"/>
</a>
</g>
</g>
<!-- Node4 -->
<g id="Node000004" class="node">
<title>Node4</title>
<g id="a_Node000004"><a xlink:title=" ">
<polygon fill="#e0e0e0" stroke="#999999" points="105.25,-20.75 0,-20.75 0,0 105.25,0 105.25,-20.75"/>
<text xml:space="preserve" text-anchor="middle" x="52.62" y="-7.25" font-family="Helvetica,sans-Serif" font-size="10.00">fsl_uart_freertos.h</text>
</a>
</g>
</g>
<!-- Node3&#45;&gt;Node4 -->
<g id="edge4_Node000003_Node000004" class="edge">
<title>Node3&#45;&gt;Node4</title>
<g id="a_edge4_Node000003_Node000004"><a xlink:title=" ">
<path fill="none" stroke="#63b8ff" d="M106,-56.34C96.76,-48.55 83.61,-37.47 72.68,-28.26"/>
<polygon fill="#63b8ff" stroke="#63b8ff" points="75.21,-25.82 65.3,-22.05 70.7,-31.17 75.21,-25.82"/>
</a>
</g>
</g>
<!-- Node6&#45;&gt;Node2 -->
<g id="edge7_Node000006_Node000002" class="edge">
<title>Node6&#45;&gt;Node2</title>
<g id="a_edge7_Node000006_Node000002"><a xlink:title=" ">
<path fill="none" stroke="#63b8ff" d="M278.56,-56.34C253.02,-47.43 215.13,-34.22 187.02,-24.42"/>
<polygon fill="#63b8ff" stroke="#63b8ff" points="188.43,-21.2 177.83,-21.21 186.12,-27.81 188.43,-21.2"/>
</a>
</g>
</g>
<!-- Node6&#45;&gt;Node5 -->
<g id="edge10_Node000006_Node000005" class="edge">
<title>Node6&#45;&gt;Node5</title>
<g id="a_edge10_Node000006_Node000005"><a xlink:title=" ">
<path fill="none" stroke="#63b8ff" d="M294.11,-56.34C284.06,-48.47 269.71,-37.25 257.87,-27.99"/>
<polygon fill="#63b8ff" stroke="#63b8ff" points="260.26,-25.41 250.22,-22.01 255.94,-30.93 260.26,-25.41"/>
</a>
</g>
</g>
<!-- Node7 -->
<g id="Node000007" class="node">
<title>Node7</title>
<g id="a_Node000007"><a xlink:title=" ">
<polygon fill="#e0e0e0" stroke="#999999" points="368.38,-20.75 296.88,-20.75 296.88,0 368.38,0 368.38,-20.75"/>
<text xml:space="preserve" text-anchor="middle" x="332.62" y="-7.25" font-family="Helvetica,sans-Serif" font-size="10.00">FreeRTOS.h</text>
</a>
</g>
</g>
<!-- Node6&#45;&gt;Node7 -->
<g id="edge8_Node000006_Node000007" class="edge">
<title>Node6&#45;&gt;Node7</title>
<g id="a_edge8_Node000006_Node000007"><a xlink:title=" ">
<path fill="none" stroke="#63b8ff" d="M311.27,-56.34C314.56,-49.41 319.09,-39.87 323.13,-31.36"/>
<polygon fill="#63b8ff" stroke="#63b8ff" points="326.24,-32.98 327.37,-22.45 319.92,-29.98 326.24,-32.98"/>
</a>
</g>
</g>
<!-- Node8 -->
<g id="Node000008" class="node">
<title>Node8</title>
<g id="a_Node000008"><a xlink:title=" ">
<polygon fill="#e0e0e0" stroke="#999999" points="477.12,-20.75 386.12,-20.75 386.12,0 477.12,0 477.12,-20.75"/>
<text xml:space="preserve" text-anchor="middle" x="431.62" y="-7.25" font-family="Helvetica,sans-Serif" font-size="10.00">event_groups.h</text>
</a>
</g>
</g>
<!-- Node6&#45;&gt;Node8 -->
<g id="edge9_Node000006_Node000008" class="edge">
<title>Node6&#45;&gt;Node8</title>
<g id="a_edge9_Node000006_Node000008"><a xlink:title=" ">
<path fill="none" stroke="#63b8ff" d="M328.97,-56.34C348.44,-47.81 376.91,-35.34 398.93,-25.69"/>
<polygon fill="#63b8ff" stroke="#63b8ff" points="400.33,-28.9 408.08,-21.69 397.52,-22.49 400.33,-28.9"/>
</a>
</g>
</g>
<!-- Node9 -->
<g id="Node000009" class="node">
<title>Node9</title>
<g id="a_Node000009"><a xlink:title=" ">
<polygon fill="#e0e0e0" stroke="#999999" points="547.62,-20.75 495.62,-20.75 495.62,0 547.62,0 547.62,-20.75"/>
<text xml:space="preserve" text-anchor="middle" x="521.62" y="-7.25" font-family="Helvetica,sans-Serif" font-size="10.00">stdlib.h</text>
</a>
</g>
</g>
<!-- Node6&#45;&gt;Node9 -->
<g id="edge11_Node000006_Node000009" class="edge">
<title>Node6&#45;&gt;Node9</title>
<g id="a_edge11_Node000006_Node000009"><a xlink:title=" ">
<path fill="none" stroke="#63b8ff" d="M346.35,-56.29C380.5,-47.8 431.35,-35.05 484.29,-21.33"/>
<polygon fill="#63b8ff" stroke="#63b8ff" points="485,-24.76 493.8,-18.86 483.24,-17.99 485,-24.76"/>
</a>
</g>
</g>
</g>
</svg>
