<?xml version="1.0" encoding="UTF-8" standalone="no"?>
<!DOCTYPE svg PUBLIC "-//W3C//DTD SVG 1.1//EN"
 "http://www.w3.org/Graphics/SVG/1.1/DTD/svg11.dtd">
<!-- Generated by graphviz version 14.1.5 (0)
 -->
<!-- Title: source/driver/tmc2209/tmc2209_uart.c Pages: 1 -->
<!--zoomable 269 -->

<svg id="main" version="1.1" xmlns="http://www.w3.org/2000/svg" xmlns:xlink="http://www.w3.org/1999/xlink" xml:space="preserve" onload="init(evt)">

<style type="text/css"><![CDATA[
.node, .edge {opacity: 0.7;}
.node.selected, .edge.selected {opacity: 1;}
.edge:hover path { stroke: red; }
.edge:hover polygon { stroke: red; fill: red; }
]]></style>

<defs>
  <circle id="rim" cx="0" cy="0" r="7"/>
  <circle id="rim2" cx="0" cy="0" r="3.5"/>
  <g id="zoomPlus">
    <use xlink:href="#rim" fill="#404040"><set attributeName="fill" to="#808080" begin="zoomplus.mouseover" end="zoomplus.mouseout"/></use>
    <path d="M-4,0h8M0,-4v8" fill="none" stroke="white" stroke-width="1.5" pointer-events="none"/>
  </g>
  <g id="zoomMin">
    <use xlink:href="#rim" fill="#404040"><set attributeName="fill" to="#808080" begin="zoomminus.mouseover" end="zoomminus.mouseout"/></use>
    <path d="M-4,0h8" fill="none" stroke="white" stroke-width="1.5" pointer-events="none"/>
  </g>
  <g id="arrowUp" transform="translate(30 24)">
    <use xlink:href="#rim"/>
    <path pointer-events="none" fill="none" stroke="white" stroke-width="1.5" d="M0,-3.0v7 M-2.5,-0.5L0,-3.0L2.5,-0.5"/>
  </g>
  <g id="arrowRight" transform="rotate(90) translate(36 -43)">
    <use xlink:href="#rim"/>
    <path pointer-events="none" fill="none" stroke="white" stroke-width="1.5" d="M0,-3.0v7 M-2.5,-0.5L0,-3.0L2.5,-0.5"/>
  </g>
  <g id="arrowDown" transform="rotate(180) translate(-30 -48)">
    <use xlink:href="#rim"/>
    <path pointer-events="none" fill="none" stroke="white" stroke-width="1.5" d="M0,-3.0v7 M-2.5,-0.5L0,-3.0L2.5,-0.5"/>
  </g>
  <g id="arrowLeft" transform="rotate(270) translate(-36 17)">
    <use xlink:href="#rim"/>
    <path pointer-events="none" fill="none" stroke="white" stroke-width="1.5" d="M0,-3.0v7 M-2.5,-0.5L0,-3.0L2.5,-0.5"/>
  </g>
  <g id="resetDef">
    <use xlink:href="#rim2" fill="#404040"><set attributeName="fill" to="#808080" begin="reset.mouseover" end="reset.mouseout"/></use>
  </g>
</defs>
<script type="application/ecmascript">
var viewWidth = 681;
var viewHeight = 269;
var sectionId = 'dynsection-0';
</script>
<script type="application/ecmascript" xlink:href="svg.min.js"/>
<svg id="graph" class="graph">
<g id="viewport">
<title>source/driver/tmc2209/tmc2209_uart.c</title>
<!-- Node1 -->
<g id="Node000001" class="node">
<title>Node1</title>
<g id="a_Node000001"><a xlink:title=" ">
<polygon fill="#999999" stroke="#666666" points="443.38,-260.5 317.88,-260.5 317.88,-227 443.38,-227 443.38,-260.5"/>
<text xml:space="preserve" text-anchor="start" x="325.88" y="-247" font-family="Helvetica,sans-Serif" font-size="10.00">source/driver/tmc2209</text>
<text xml:space="preserve" text-anchor="middle" x="380.62" y="-234.25" font-family="Helvetica,sans-Serif" font-size="10.00">/tmc2209_uart.c</text>
</a>
</g>
</g>
<!-- Node2 -->
<g id="Node000002" class="node">
<title>Node2</title>
<g id="a_Node000002"><a xlink:href="tmc2209__uart_8h.html" target="_top" xlink:title=" ">
<polygon fill="white" stroke="#666666" points="380.88,-191 288.38,-191 288.38,-170.25 380.88,-170.25 380.88,-191"/>
<text xml:space="preserve" text-anchor="middle" x="334.62" y="-177.5" font-family="Helvetica,sans-Serif" font-size="10.00">tmc2209_uart.h</text>
</a>
</g>
</g>
<!-- Node1&#45;&gt;Node2 -->
<g id="edge1_Node000001_Node000002" class="edge">
<title>Node1&#45;&gt;Node2</title>
<g id="a_edge1_Node000001_Node000002"><a xlink:title=" ">
<path fill="none" stroke="#63b8ff" d="M368.54,-226.69C362.49,-218.66 355.14,-208.88 348.82,-200.49"/>
<polygon fill="#63b8ff" stroke="#63b8ff" points="351.75,-198.56 342.94,-192.68 346.16,-202.77 351.75,-198.56"/>
</a>
</g>
</g>
<!-- Node3 -->
<g id="Node000003" class="node">
<title>Node3</title>
<g id="a_Node000003"><a xlink:title=" ">
<polygon fill="#e0e0e0" stroke="#999999" points="186,-20.75 133.25,-20.75 133.25,0 186,0 186,-20.75"/>
<text xml:space="preserve" text-anchor="middle" x="159.62" y="-7.25" font-family="Helvetica,sans-Serif" font-size="10.00">stdint.h</text>
</a>
</g>
</g>
<!-- Node1&#45;&gt;Node3 -->
<g id="edge17_Node000001_Node000003" class="edge">
<title>Node1&#45;&gt;Node3</title>
<g id="a_edge17_Node000001_Node000003"><a xlink:title=" ">
<path fill="none" stroke="#63b8ff" d="M317.62,-234.17C280.51,-226.95 233.89,-213.97 197.62,-191 141.07,-155.19 122.12,-140.18 98.62,-77.5 95.39,-68.86 94.48,-64.99 98.62,-56.75 104.9,-44.25 116.44,-34.33 127.8,-26.99"/>
<polygon fill="#63b8ff" stroke="#63b8ff" points="129.46,-30.07 136.3,-21.97 125.91,-24.04 129.46,-30.07"/>
</a>
</g>
</g>
<!-- Node4 -->
<g id="Node000004" class="node">
<title>Node4</title>
<g id="a_Node000004"><a xlink:href="tmc2209__shared_8h.html" target="_top" xlink:title=" ">
<polygon fill="white" stroke="#666666" points="213.62,-77.5 107.62,-77.5 107.62,-56.75 213.62,-56.75 213.62,-77.5"/>
<text xml:space="preserve" text-anchor="middle" x="160.62" y="-64" font-family="Helvetica,sans-Serif" font-size="10.00">tmc2209_shared.h</text>
</a>
</g>
</g>
<!-- Node1&#45;&gt;Node4 -->
<g id="edge15_Node000001_Node000004" class="edge">
<title>Node1&#45;&gt;Node4</title>
<g id="a_edge15_Node000001_Node000004"><a xlink:title=" ">
<path fill="none" stroke="#63b8ff" d="M317.51,-228.7C267.96,-214.06 201.97,-185.81 168.62,-134.25 160.07,-121.02 158.35,-103.13 158.62,-89.3"/>
<polygon fill="#63b8ff" stroke="#63b8ff" points="162.11,-89.69 159.2,-79.5 155.12,-89.27 162.11,-89.69"/>
</a>
</g>
</g>
<!-- Node5 -->
<g id="Node000005" class="node">
<title>Node5</title>
<g id="a_Node000005"><a xlink:title=" ">
<polygon fill="#e0e0e0" stroke="#999999" points="105.25,-20.75 0,-20.75 0,0 105.25,0 105.25,-20.75"/>
<text xml:space="preserve" text-anchor="middle" x="52.62" y="-7.25" font-family="Helvetica,sans-Serif" font-size="10.00">fsl_uart_freertos.h</text>
</a>
</g>
</g>
<!-- Node1&#45;&gt;Node5 -->
<g id="edge22_Node000001_Node000005" class="edge">
<title>Node1&#45;&gt;Node5</title>
<g id="a_edge22_Node000001_Node000005"><a xlink:title=" ">
<path fill="none" stroke="#63b8ff" d="M317.77,-237.75C272.12,-231.84 210.25,-218.97 162.62,-191 101.74,-155.24 70.12,-71.23 58.26,-32.1"/>
<polygon fill="#63b8ff" stroke="#63b8ff" points="61.64,-31.19 55.51,-22.55 54.91,-33.13 61.64,-31.19"/>
</a>
</g>
</g>
<!-- Node6 -->
<g id="Node000006" class="node">
<title>Node6</title>
<g id="a_Node000006"><a xlink:href="tmc2209__internal_8h.html" target="_top" xlink:title=" ">
<polygon fill="white" stroke="#666666" points="306.88,-134.25 196.38,-134.25 196.38,-113.5 306.88,-113.5 306.88,-134.25"/>
<text xml:space="preserve" text-anchor="middle" x="251.62" y="-120.75" font-family="Helvetica,sans-Serif" font-size="10.00">tmc2209_internal.h</text>
</a>
</g>
</g>
<!-- Node1&#45;&gt;Node6 -->
<g id="edge16_Node000001_Node000006" class="edge">
<title>Node1&#45;&gt;Node6</title>
<g id="a_edge16_Node000001_Node000006"><a xlink:title=" ">
<path fill="none" stroke="#63b8ff" d="M333.17,-226.6C314.54,-218.34 294.18,-206.66 279.62,-191 267.81,-178.29 260.56,-159.85 256.41,-145.67"/>
<polygon fill="#63b8ff" stroke="#63b8ff" points="259.81,-144.82 253.9,-136.02 253.03,-146.58 259.81,-144.82"/>
</a>
</g>
</g>
<!-- Node8 -->
<g id="Node000008" class="node">
<title>Node8</title>
<g id="a_Node000008"><a xlink:title=" ">
<polygon fill="#e0e0e0" stroke="#999999" points="455.38,-20.75 383.88,-20.75 383.88,0 455.38,0 455.38,-20.75"/>
<text xml:space="preserve" text-anchor="middle" x="419.62" y="-7.25" font-family="Helvetica,sans-Serif" font-size="10.00">FreeRTOS.h</text>
</a>
</g>
</g>
<!-- Node1&#45;&gt;Node8 -->
<g id="edge19_Node000001_Node000008" class="edge">
<title>Node1&#45;&gt;Node8</title>
<g id="a_edge19_Node000001_Node000008"><a xlink:title=" ">
<path fill="none" stroke="#63b8ff" d="M383.41,-226.9C385.2,-216.66 387.57,-203.05 389.62,-191 399.42,-133.52 410.68,-65.63 416.2,-32.16"/>
<polygon fill="#63b8ff" stroke="#63b8ff" points="419.6,-33.04 417.78,-22.61 412.69,-31.9 419.6,-33.04"/>
</a>
</g>
</g>
<!-- Node10 -->
<g id="Node000010" class="node">
<title>Node10</title>
<g id="a_Node000010"><a xlink:title=" ">
<polygon fill="#e0e0e0" stroke="#999999" points="558.12,-20.75 473.12,-20.75 473.12,0 558.12,0 558.12,-20.75"/>
<text xml:space="preserve" text-anchor="middle" x="515.62" y="-7.25" font-family="Helvetica,sans-Serif" font-size="10.00">fsl_common.h</text>
</a>
</g>
</g>
<!-- Node1&#45;&gt;Node10 -->
<g id="edge20_Node000001_Node000010" class="edge">
<title>Node1&#45;&gt;Node10</title>
<g id="a_edge20_Node000001_Node000010"><a xlink:title=" ">
<path fill="none" stroke="#63b8ff" d="M410.78,-226.6C425.07,-217.69 441.41,-205.49 452.62,-191 490.64,-141.89 506.79,-68.09 512.69,-32.31"/>
<polygon fill="#63b8ff" stroke="#63b8ff" points="516.15,-32.87 514.2,-22.46 509.23,-31.82 516.15,-32.87"/>
</a>
</g>
</g>
<!-- Node12 -->
<g id="Node000012" class="node">
<title>Node12</title>
<g id="a_Node000012"><a xlink:title=" ">
<polygon fill="#e0e0e0" stroke="#999999" points="593.12,-191 544.12,-191 544.12,-170.25 593.12,-170.25 593.12,-191"/>
<text xml:space="preserve" text-anchor="middle" x="568.62" y="-177.5" font-family="Helvetica,sans-Serif" font-size="10.00">stdio.h</text>
</a>
</g>
</g>
<!-- Node1&#45;&gt;Node12 -->
<g id="edge18_Node000001_Node000012" class="edge">
<title>Node1&#45;&gt;Node12</title>
<g id="a_edge18_Node000001_Node000012"><a xlink:title=" ">
<path fill="none" stroke="#63b8ff" d="M430.51,-226.53C462.78,-216.04 504.02,-202.63 533,-193.21"/>
<polygon fill="#63b8ff" stroke="#63b8ff" points="533.97,-196.57 542.4,-190.15 531.81,-189.91 533.97,-196.57"/>
</a>
</g>
</g>
<!-- Node13 -->
<g id="Node000013" class="node">
<title>Node13</title>
<g id="a_Node000013"><a xlink:title=" ">
<polygon fill="#e0e0e0" stroke="#999999" points="672.5,-191 610.75,-191 610.75,-170.25 672.5,-170.25 672.5,-191"/>
<text xml:space="preserve" text-anchor="middle" x="641.62" y="-177.5" font-family="Helvetica,sans-Serif" font-size="10.00">fsl_port.h</text>
</a>
</g>
</g>
<!-- Node1&#45;&gt;Node13 -->
<g id="edge21_Node000001_Node000013" class="edge">
<title>Node1&#45;&gt;Node13</title>
<g id="a_edge21_Node000001_Node000013"><a xlink:title=" ">
<path fill="none" stroke="#63b8ff" d="M443.81,-228.14C485.56,-218.46 541.79,-205.37 599.4,-191.75"/>
<polygon fill="#63b8ff" stroke="#63b8ff" points="600.15,-195.17 609.08,-189.46 598.54,-188.36 600.15,-195.17"/>
</a>
</g>
</g>
<!-- Node14 -->
<g id="Node000014" class="node">
<title>Node14</title>
<g id="a_Node000014"><a xlink:href="log_8h.html" target="_top" xlink:title=" ">
<polygon fill="white" stroke="#666666" points="487.62,-77.5 447.62,-77.5 447.62,-56.75 487.62,-56.75 487.62,-77.5"/>
<text xml:space="preserve" text-anchor="middle" x="467.62" y="-64" font-family="Helvetica,sans-Serif" font-size="10.00">log.h</text>
</a>
</g>
</g>
<!-- Node1&#45;&gt;Node14 -->
<g id="edge23_Node000001_Node000014" class="edge">
<title>Node1&#45;&gt;Node14</title>
<g id="a_edge23_Node000001_Node000014"><a xlink:title=" ">
<path fill="none" stroke="#63b8ff" d="M401.9,-226.61C412.83,-217.3 425.51,-204.73 433.62,-191 452.89,-158.4 461.59,-114.49 465.24,-88.95"/>
<polygon fill="#63b8ff" stroke="#63b8ff" points="468.69,-89.59 466.5,-79.22 461.75,-88.69 468.69,-89.59"/>
</a>
</g>
</g>
<!-- Node2&#45;&gt;Node3 -->
<g id="edge2_Node000002_Node000003" class="edge">
<title>Node2&#45;&gt;Node3</title>
<g id="a_edge2_Node000002_Node000003"><a xlink:title=" ">
<path fill="none" stroke="#63b8ff" d="M333.97,-170.18C332.6,-156.46 328.39,-130.8 315.62,-113.5 315.62,-113.5 227.84,-56.03 183.97,-27.31"/>
<polygon fill="#63b8ff" stroke="#63b8ff" points="186.13,-24.55 175.85,-22 182.3,-30.4 186.13,-24.55"/>
</a>
</g>
</g>
<!-- Node2&#45;&gt;Node4 -->
<g id="edge3_Node000002_Node000004" class="edge">
<title>Node2&#45;&gt;Node4</title>
<g id="a_edge3_Node000002_Node000004"><a xlink:title=" ">
<path fill="none" stroke="#63b8ff" d="M288.08,-175.62C256.29,-170.62 215.11,-159.41 187.62,-134.25 174.62,-122.34 167.73,-103.27 164.18,-88.65"/>
<polygon fill="#63b8ff" stroke="#63b8ff" points="167.67,-88.26 162.22,-79.17 160.81,-89.67 167.67,-88.26"/>
</a>
</g>
</g>
<!-- Node2&#45;&gt;Node6 -->
<g id="edge6_Node000002_Node000006" class="edge">
<title>Node2&#45;&gt;Node6</title>
<g id="a_edge6_Node000002_Node000006"><a xlink:title=" ">
<path fill="none" stroke="#63b8ff" d="M319.79,-169.84C307.51,-161.74 289.84,-150.08 275.57,-140.67"/>
<polygon fill="#63b8ff" stroke="#63b8ff" points="277.87,-138 267.6,-135.41 274.02,-143.84 277.87,-138"/>
</a>
</g>
</g>
<!-- Node2&#45;&gt;Node8 -->
<g id="edge14_Node000002_Node000008" class="edge">
<title>Node2&#45;&gt;Node8</title>
<g id="a_edge14_Node000002_Node000008"><a xlink:title=" ">
<path fill="none" stroke="#63b8ff" d="M339.44,-170.1C352.93,-143.39 391.34,-67.37 409.66,-31.1"/>
<polygon fill="#63b8ff" stroke="#63b8ff" points="412.58,-33.07 413.97,-22.57 406.34,-29.92 412.58,-33.07"/>
</a>
</g>
</g>
<!-- Node4&#45;&gt;Node3 -->
<g id="edge4_Node000004_Node000003" class="edge">
<title>Node4&#45;&gt;Node3</title>
<g id="a_edge4_Node000004_Node000003"><a xlink:title=" ">
<path fill="none" stroke="#63b8ff" d="M160.45,-56.34C160.33,-49.72 160.16,-40.72 160.01,-32.52"/>
<polygon fill="#63b8ff" stroke="#63b8ff" points="163.51,-32.53 159.83,-22.59 156.51,-32.65 163.51,-32.53"/>
</a>
</g>
</g>
<!-- Node4&#45;&gt;Node5 -->
<g id="edge5_Node000004_Node000005" class="edge">
<title>Node4&#45;&gt;Node5</title>
<g id="a_edge5_Node000004_Node000005"><a xlink:title=" ">
<path fill="none" stroke="#63b8ff" d="M141.32,-56.34C124.81,-47.97 100.79,-35.79 81.92,-26.22"/>
<polygon fill="#63b8ff" stroke="#63b8ff" points="83.62,-23.16 73.12,-21.76 80.45,-29.41 83.62,-23.16"/>
</a>
</g>
</g>
<!-- Node6&#45;&gt;Node4 -->
<g id="edge7_Node000006_Node000004" class="edge">
<title>Node6&#45;&gt;Node4</title>
<g id="a_edge7_Node000006_Node000004"><a xlink:title=" ">
<path fill="none" stroke="#63b8ff" d="M235.36,-113.09C221.77,-104.91 202.15,-93.11 186.42,-83.65"/>
<polygon fill="#63b8ff" stroke="#63b8ff" points="188.42,-80.77 178.05,-78.61 184.81,-86.76 188.42,-80.77"/>
</a>
</g>
</g>
<!-- Node7 -->
<g id="Node000007" class="node">
<title>Node7</title>
<g id="a_Node000007"><a xlink:href="cmd__handle_8h.html" target="_top" xlink:title=" ">
<polygon fill="white" stroke="#666666" points="353.75,-77.5 269.5,-77.5 269.5,-56.75 353.75,-56.75 353.75,-77.5"/>
<text xml:space="preserve" text-anchor="middle" x="311.62" y="-64" font-family="Helvetica,sans-Serif" font-size="10.00">cmd_handle.h</text>
</a>
</g>
</g>
<!-- Node6&#45;&gt;Node7 -->
<g id="edge8_Node000006_Node000007" class="edge">
<title>Node6&#45;&gt;Node7</title>
<g id="a_edge8_Node000006_Node000007"><a xlink:title=" ">
<path fill="none" stroke="#63b8ff" d="M262.35,-113.09C270.71,-105.46 282.54,-94.67 292.51,-85.57"/>
<polygon fill="#63b8ff" stroke="#63b8ff" points="294.85,-88.17 299.87,-78.85 290.13,-83 294.85,-88.17"/>
</a>
</g>
</g>
<!-- Node7&#45;&gt;Node3 -->
<g id="edge9_Node000007_Node000003" class="edge">
<title>Node7&#45;&gt;Node3</title>
<g id="a_edge9_Node000007_Node000003"><a xlink:title=" ">
<path fill="none" stroke="#63b8ff" d="M284.45,-56.34C260.06,-47.55 224.03,-34.57 196.94,-24.82"/>
<polygon fill="#63b8ff" stroke="#63b8ff" points="198.33,-21.6 187.73,-21.5 195.96,-28.18 198.33,-21.6"/>
</a>
</g>
</g>
<!-- Node7&#45;&gt;Node8 -->
<g id="edge10_Node000007_Node000008" class="edge">
<title>Node7&#45;&gt;Node8</title>
<g id="a_edge10_Node000007_Node000008"><a xlink:title=" ">
<path fill="none" stroke="#63b8ff" d="M330.93,-56.34C347.44,-47.97 371.46,-35.79 390.33,-26.22"/>
<polygon fill="#63b8ff" stroke="#63b8ff" points="391.8,-29.41 399.13,-21.76 388.63,-23.16 391.8,-29.41"/>
</a>
</g>
</g>
<!-- Node9 -->
<g id="Node000009" class="node">
<title>Node9</title>
<g id="a_Node000009"><a xlink:title=" ">
<polygon fill="#e0e0e0" stroke="#999999" points="295.12,-20.75 204.12,-20.75 204.12,0 295.12,0 295.12,-20.75"/>
<text xml:space="preserve" text-anchor="middle" x="249.62" y="-7.25" font-family="Helvetica,sans-Serif" font-size="10.00">event_groups.h</text>
</a>
</g>
</g>
<!-- Node7&#45;&gt;Node9 -->
<g id="edge11_Node000007_Node000009" class="edge">
<title>Node7&#45;&gt;Node9</title>
<g id="a_edge11_Node000007_Node000009"><a xlink:title=" ">
<path fill="none" stroke="#63b8ff" d="M300.54,-56.34C291.81,-48.63 279.43,-37.7 269.06,-28.54"/>
<polygon fill="#63b8ff" stroke="#63b8ff" points="271.56,-26.08 261.75,-22.08 266.93,-31.32 271.56,-26.08"/>
</a>
</g>
</g>
<!-- Node7&#45;&gt;Node10 -->
<g id="edge12_Node000007_Node000010" class="edge">
<title>Node7&#45;&gt;Node10</title>
<g id="a_edge12_Node000007_Node000010"><a xlink:title=" ">
<path fill="none" stroke="#63b8ff" d="M348.1,-56.34C381.64,-47.33 431.59,-33.93 468.22,-24.1"/>
<polygon fill="#63b8ff" stroke="#63b8ff" points="468.91,-27.54 477.66,-21.56 467.1,-20.77 468.91,-27.54"/>
</a>
</g>
</g>
<!-- Node11 -->
<g id="Node000011" class="node">
<title>Node11</title>
<g id="a_Node000011"><a xlink:title=" ">
<polygon fill="#e0e0e0" stroke="#999999" points="365.62,-20.75 313.62,-20.75 313.62,0 365.62,0 365.62,-20.75"/>
<text xml:space="preserve" text-anchor="middle" x="339.62" y="-7.25" font-family="Helvetica,sans-Serif" font-size="10.00">stdlib.h</text>
</a>
</g>
</g>
<!-- Node7&#45;&gt;Node11 -->
<g id="edge13_Node000007_Node000011" class="edge">
<title>Node7&#45;&gt;Node11</title>
<g id="a_edge13_Node000007_Node000011"><a xlink:title=" ">
<path fill="none" stroke="#63b8ff" d="M316.63,-56.34C320.21,-49.33 325.16,-39.66 329.55,-31.08"/>
<polygon fill="#63b8ff" stroke="#63b8ff" points="332.54,-32.92 333.97,-22.43 326.3,-29.74 332.54,-32.92"/>
</a>
</g>
</g>
<!-- Node14&#45;&gt;Node8 -->
<g id="edge24_Node000014_Node000008" class="edge">
<title>Node14&#45;&gt;Node8</title>
<g id="a_edge24_Node000014_Node000008"><a xlink:title=" ">
<path fill="none" stroke="#63b8ff" d="M459.04,-56.34C452.56,-48.94 443.47,-38.57 435.65,-29.66"/>
<polygon fill="#63b8ff" stroke="#63b8ff" points="438.35,-27.43 429.13,-22.22 433.09,-32.04 438.35,-27.43"/>
</a>
</g>
</g>
<!-- Node14&#45;&gt;Node10 -->
<g id="edge25_Node000014_Node000010" class="edge">
<title>Node14&#45;&gt;Node10</title>
<g id="a_edge25_Node000014_Node000010"><a xlink:title=" ">
<path fill="none" stroke="#63b8ff" d="M476.21,-56.34C482.69,-48.94 491.78,-38.57 499.6,-29.66"/>
<polygon fill="#63b8ff" stroke="#63b8ff" points="502.16,-32.04 506.12,-22.22 496.9,-27.43 502.16,-32.04"/>
</a>
</g>
</g>
</g>
</svg>

<g id="navigator" transform="translate(0 0)" fill="#404254">
  <rect fill="#f2f5e9" fill-opacity="0.5" stroke="#606060" stroke-width=".5" x="0" y="0" width="60" height="60"/>
  <use id="zoomplus" xlink:href="#zoomPlus" x="17" y="9" onmousedown="handleZoom(evt,'in')"/>
  <use id="zoomminus" xlink:href="#zoomMin" x="42" y="9" onmousedown="handleZoom(evt,'out')"/>
  <use id="reset" xlink:href="#resetDef" x="30" y="36" onmousedown="handleReset()"/>
   <use id="arrowup" xlink:href="#arrowUp" x="0" y="0" onmousedown="handlePan(0,-1)"/>
  <use id="arrowright" xlink:href="#arrowRight" x="0" y="0" onmousedown="handlePan(1,0)"/>
  <use id="arrowdown" xlink:href="#arrowDown" x="0" y="0" onmousedown="handlePan(0,1)"/>
  <use id="arrowleft" xlink:href="#arrowLeft" x="0" y="0" onmousedown="handlePan(-1,0)"/>
</g>
<svg viewBox="0 0 15 15" width="100%" height="30px" preserveAspectRatio="xMaxYMin meet">
 <g id="arrow_out" transform="scale(0.3 0.3)">
  <a xlink:href="tmc2209__uart_8c__incl_org.svg" target="_base">
   <rect id="button" ry="5" rx="5" y="6" x="6" height="38" width="38"
        fill="#f2f5e9" fill-opacity="0.5" stroke="#606060" stroke-width="1.0"/>
   <path id="arrow"
     d="M 11.500037,31.436501 C 11.940474,20.09759 22.043105,11.32322 32.158766,21.979434 L 37.068811,17.246167 C 37.068811,17.246167 37.088388,32 37.088388,32 L 22.160133,31.978069 C 22.160133,31.978069 26.997745,27.140456 26.997745,27.140456 C 18.528582,18.264221 13.291696,25.230495 11.500037,31.436501 z"
     style="fill:#404040;"/>
  </a>
 </g>
</svg>

<style type='text/css'>
<![CDATA[
[data-mouse-over-selected='false'] { opacity: 0.7; }
[data-mouse-over-selected='true']  { opacity: 1.0; }
]]>
</style>
<script type="application/ecmascript"><![CDATA[
document.addEventListener('DOMContentLoaded', (event) => {
  highlightEdges();
  highlightAdjacentNodes();
});
]]></script>
</svg>
