<?xml version="1.0" encoding="UTF-8" standalone="no"?>
<!DOCTYPE svg PUBLIC "-//W3C//DTD SVG 1.1//EN"
 "http://www.w3.org/Graphics/SVG/1.1/DTD/svg11.dtd">
<!-- Generated by graphviz version 14.1.4 (0)
 -->
<!-- Title: source/tmc2209.h Pages: 1 -->
<svg width="473pt" height="199pt"
 viewBox="0.00 0.00 473.00 199.00" xmlns="http://www.w3.org/2000/svg" xmlns:xlink="http://www.w3.org/1999/xlink">
<g id="graph0" class="graph" transform="scale(1 1) rotate(0) translate(4 195)">
<title>source/tmc2209.h</title>
<!-- Node1 -->
<g id="Node000001" class="node">
<title>Node1</title>
<g id="a_Node000001"><a xlink:title=" ">
<polygon fill="#999999" stroke="#666666" points="266,-191 163,-191 163,-170.25 266,-170.25 266,-191"/>
<text xml:space="preserve" text-anchor="middle" x="214.5" y="-177.5" font-family="Helvetica,sans-Serif" font-size="10.00">source/tmc2209.h</text>
</a>
</g>
</g>
<!-- Node2 -->
<g id="Node000002" class="node">
<title>Node2</title>
<g id="a_Node000002"><a xlink:title=" ">
<polygon fill="#e0e0e0" stroke="#999999" points="85,-20.75 0,-20.75 0,0 85,0 85,-20.75"/>
<text xml:space="preserve" text-anchor="middle" x="42.5" y="-7.25" font-family="Helvetica,sans-Serif" font-size="10.00">fsl_common.h</text>
</a>
</g>
</g>
<!-- Node1&#45;&gt;Node2 -->
<g id="edge1_Node000001_Node000002" class="edge">
<title>Node1&#45;&gt;Node2</title>
<g id="a_edge1_Node000001_Node000002"><a xlink:title=" ">
<path fill="none" stroke="#63b8ff" d="M176.75,-169.76C135.34,-156.6 71.44,-128.76 46.5,-77.5 39.64,-63.41 38.95,-45.58 39.81,-31.99"/>
<polygon fill="#63b8ff" stroke="#63b8ff" points="43.25,-32.72 40.75,-22.43 36.28,-32.04 43.25,-32.72"/>
</a>
</g>
</g>
<!-- Node3 -->
<g id="Node000003" class="node">
<title>Node3</title>
<g id="a_Node000003"><a xlink:title=" ">
<polygon fill="#e0e0e0" stroke="#999999" points="305.38,-134.25 225.62,-134.25 225.62,-113.5 305.38,-113.5 305.38,-134.25"/>
<text xml:space="preserve" text-anchor="middle" x="265.5" y="-120.75" font-family="Helvetica,sans-Serif" font-size="10.00">peripherals.h</text>
</a>
</g>
</g>
<!-- Node1&#45;&gt;Node3 -->
<g id="edge2_Node000001_Node000003" class="edge">
<title>Node1&#45;&gt;Node3</title>
<g id="a_edge2_Node000001_Node000003"><a xlink:title=" ">
<path fill="none" stroke="#63b8ff" d="M223.62,-169.84C230.58,-162.36 240.37,-151.86 248.73,-142.88"/>
<polygon fill="#63b8ff" stroke="#63b8ff" points="251.17,-145.39 255.43,-135.69 246.05,-140.62 251.17,-145.39"/>
</a>
</g>
</g>
<!-- Node4 -->
<g id="Node000004" class="node">
<title>Node4</title>
<g id="a_Node000004"><a xlink:title=" ">
<polygon fill="#e0e0e0" stroke="#999999" points="375.88,-134.25 323.12,-134.25 323.12,-113.5 375.88,-113.5 375.88,-134.25"/>
<text xml:space="preserve" text-anchor="middle" x="349.5" y="-120.75" font-family="Helvetica,sans-Serif" font-size="10.00">stdint.h</text>
</a>
</g>
</g>
<!-- Node1&#45;&gt;Node4 -->
<g id="edge3_Node000001_Node000004" class="edge">
<title>Node1&#45;&gt;Node4</title>
<g id="a_edge3_Node000001_Node000004"><a xlink:title=" ">
<path fill="none" stroke="#63b8ff" d="M238.64,-169.84C259.94,-161.19 291.25,-148.5 315.17,-138.8"/>
<polygon fill="#63b8ff" stroke="#63b8ff" points="316.22,-142.15 324.17,-135.15 313.59,-135.66 316.22,-142.15"/>
</a>
</g>
</g>
<!-- Node5 -->
<g id="Node000005" class="node">
<title>Node5</title>
<g id="a_Node000005"><a xlink:href="task__helpers_8h.html" target="_top" xlink:title=" ">
<polygon fill="white" stroke="#666666" points="207.12,-134.25 119.88,-134.25 119.88,-113.5 207.12,-113.5 207.12,-134.25"/>
<text xml:space="preserve" text-anchor="middle" x="163.5" y="-120.75" font-family="Helvetica,sans-Serif" font-size="10.00">task_helpers.h</text>
</a>
</g>
</g>
<!-- Node1&#45;&gt;Node5 -->
<g id="edge4_Node000001_Node000005" class="edge">
<title>Node1&#45;&gt;Node5</title>
<g id="a_edge4_Node000001_Node000005"><a xlink:title=" ">
<path fill="none" stroke="#63b8ff" d="M205.38,-169.84C198.42,-162.36 188.63,-151.86 180.27,-142.88"/>
<polygon fill="#63b8ff" stroke="#63b8ff" points="182.95,-140.62 173.57,-135.69 177.83,-145.39 182.95,-140.62"/>
</a>
</g>
</g>
<!-- Node5&#45;&gt;Node2 -->
<g id="edge7_Node000005_Node000002" class="edge">
<title>Node5&#45;&gt;Node2</title>
<g id="a_edge7_Node000005_Node000002"><a xlink:title=" ">
<path fill="none" stroke="#63b8ff" d="M120.91,-113C100.33,-106.21 76.83,-95.12 61.5,-77.5 50.58,-64.95 45.92,-46.5 43.94,-32.27"/>
<polygon fill="#63b8ff" stroke="#63b8ff" points="47.45,-32.21 42.95,-22.62 40.49,-32.92 47.45,-32.21"/>
</a>
</g>
</g>
<!-- Node6 -->
<g id="Node000006" class="node">
<title>Node6</title>
<g id="a_Node000006"><a xlink:title=" ">
<polygon fill="#e0e0e0" stroke="#999999" points="174.25,-20.75 102.75,-20.75 102.75,0 174.25,0 174.25,-20.75"/>
<text xml:space="preserve" text-anchor="middle" x="138.5" y="-7.25" font-family="Helvetica,sans-Serif" font-size="10.00">FreeRTOS.h</text>
</a>
</g>
</g>
<!-- Node5&#45;&gt;Node6 -->
<g id="edge5_Node000005_Node000006" class="edge">
<title>Node5&#45;&gt;Node6</title>
<g id="a_edge5_Node000005_Node000006"><a xlink:title=" ">
<path fill="none" stroke="#63b8ff" d="M161.37,-113.37C157.37,-95.52 148.64,-56.61 143.2,-32.34"/>
<polygon fill="#63b8ff" stroke="#63b8ff" points="146.63,-31.64 141.03,-22.65 139.8,-33.18 146.63,-31.64"/>
</a>
</g>
</g>
<!-- Node7 -->
<g id="Node000007" class="node">
<title>Node7</title>
<g id="a_Node000007"><a xlink:title=" ">
<polygon fill="#e0e0e0" stroke="#999999" points="212.5,-77.5 166.5,-77.5 166.5,-56.75 212.5,-56.75 212.5,-77.5"/>
<text xml:space="preserve" text-anchor="middle" x="189.5" y="-64" font-family="Helvetica,sans-Serif" font-size="10.00">task.h</text>
</a>
</g>
</g>
<!-- Node5&#45;&gt;Node7 -->
<g id="edge6_Node000005_Node000007" class="edge">
<title>Node5&#45;&gt;Node7</title>
<g id="a_edge6_Node000005_Node000007"><a xlink:title=" ">
<path fill="none" stroke="#63b8ff" d="M168.15,-113.09C171.44,-106.16 175.97,-96.62 180.01,-88.11"/>
<polygon fill="#63b8ff" stroke="#63b8ff" points="183.11,-89.73 184.24,-79.2 176.79,-86.73 183.11,-89.73"/>
</a>
</g>
</g>
<!-- Node8 -->
<g id="Node000008" class="node">
<title>Node8</title>
<g id="a_Node000008"><a xlink:href="log_8h.html" target="_top" xlink:title=" ">
<polygon fill="white" stroke="#666666" points="110.5,-77.5 70.5,-77.5 70.5,-56.75 110.5,-56.75 110.5,-77.5"/>
<text xml:space="preserve" text-anchor="middle" x="90.5" y="-64" font-family="Helvetica,sans-Serif" font-size="10.00">log.h</text>
</a>
</g>
</g>
<!-- Node5&#45;&gt;Node8 -->
<g id="edge8_Node000005_Node000008" class="edge">
<title>Node5&#45;&gt;Node8</title>
<g id="a_edge8_Node000005_Node000008"><a xlink:title=" ">
<path fill="none" stroke="#63b8ff" d="M150.45,-113.09C139.86,-105.15 124.71,-93.78 112.28,-84.46"/>
<polygon fill="#63b8ff" stroke="#63b8ff" points="114.75,-81.94 104.65,-78.74 110.55,-87.54 114.75,-81.94"/>
</a>
</g>
</g>
<!-- Node9 -->
<g id="Node000009" class="node">
<title>Node9</title>
<g id="a_Node000009"><a xlink:title=" ">
<polygon fill="#e0e0e0" stroke="#999999" points="282.88,-77.5 230.12,-77.5 230.12,-56.75 282.88,-56.75 282.88,-77.5"/>
<text xml:space="preserve" text-anchor="middle" x="256.5" y="-64" font-family="Helvetica,sans-Serif" font-size="10.00">string.h</text>
</a>
</g>
</g>
<!-- Node5&#45;&gt;Node9 -->
<g id="edge11_Node000005_Node000009" class="edge">
<title>Node5&#45;&gt;Node9</title>
<g id="a_edge11_Node000005_Node000009"><a xlink:title=" ">
<path fill="none" stroke="#63b8ff" d="M180.13,-113.09C194.01,-104.91 214.06,-93.11 230.13,-83.65"/>
<polygon fill="#63b8ff" stroke="#63b8ff" points="231.87,-86.69 238.71,-78.6 228.32,-80.65 231.87,-86.69"/>
</a>
</g>
</g>
<!-- Node10 -->
<g id="Node000010" class="node">
<title>Node10</title>
<g id="a_Node000010"><a xlink:title=" ">
<polygon fill="#e0e0e0" stroke="#999999" points="392,-77.5 301,-77.5 301,-56.75 392,-56.75 392,-77.5"/>
<text xml:space="preserve" text-anchor="middle" x="346.5" y="-64" font-family="Helvetica,sans-Serif" font-size="10.00">event_groups.h</text>
</a>
</g>
</g>
<!-- Node5&#45;&gt;Node10 -->
<g id="edge12_Node000005_Node000010" class="edge">
<title>Node5&#45;&gt;Node10</title>
<g id="a_edge12_Node000005_Node000010"><a xlink:title=" ">
<path fill="none" stroke="#63b8ff" d="M196.22,-113.09C226.05,-104.16 270.34,-90.91 303.12,-81.1"/>
<polygon fill="#63b8ff" stroke="#63b8ff" points="303.73,-84.57 312.31,-78.35 301.72,-77.87 303.73,-84.57"/>
</a>
</g>
</g>
<!-- Node11 -->
<g id="Node000011" class="node">
<title>Node11</title>
<g id="a_Node000011"><a xlink:title=" ">
<polygon fill="#e0e0e0" stroke="#999999" points="465,-77.5 410,-77.5 410,-56.75 465,-56.75 465,-77.5"/>
<text xml:space="preserve" text-anchor="middle" x="437.5" y="-64" font-family="Helvetica,sans-Serif" font-size="10.00">queue.h</text>
</a>
</g>
</g>
<!-- Node5&#45;&gt;Node11 -->
<g id="edge13_Node000005_Node000011" class="edge">
<title>Node5&#45;&gt;Node11</title>
<g id="a_edge13_Node000005_Node000011"><a xlink:title=" ">
<path fill="none" stroke="#63b8ff" d="M207.62,-114.83C261.44,-104.95 350.38,-88.43 398.59,-78.02"/>
<polygon fill="#63b8ff" stroke="#63b8ff" points="399.15,-81.48 408.16,-75.9 397.64,-74.64 399.15,-81.48"/>
</a>
</g>
</g>
<!-- Node8&#45;&gt;Node2 -->
<g id="edge10_Node000008_Node000002" class="edge">
<title>Node8&#45;&gt;Node2</title>
<g id="a_edge10_Node000008_Node000002"><a xlink:title=" ">
<path fill="none" stroke="#63b8ff" d="M81.92,-56.34C75.43,-48.94 66.35,-38.57 58.53,-29.66"/>
<polygon fill="#63b8ff" stroke="#63b8ff" points="61.23,-27.43 52,-22.22 55.97,-32.04 61.23,-27.43"/>
</a>
</g>
</g>
<!-- Node8&#45;&gt;Node6 -->
<g id="edge9_Node000008_Node000006" class="edge">
<title>Node8&#45;&gt;Node6</title>
<g id="a_edge9_Node000008_Node000006"><a xlink:title=" ">
<path fill="none" stroke="#63b8ff" d="M99.08,-56.34C105.57,-48.94 114.65,-38.57 122.47,-29.66"/>
<polygon fill="#63b8ff" stroke="#63b8ff" points="125.03,-32.04 129,-22.22 119.77,-27.43 125.03,-32.04"/>
</a>
</g>
</g>
</g>
</svg>
