<?xml version="1.0" encoding="UTF-8" standalone="no"?>
<!DOCTYPE svg PUBLIC "-//W3C//DTD SVG 1.1//EN"
 "http://www.w3.org/Graphics/SVG/1.1/DTD/svg11.dtd">
<!-- Generated by graphviz version 14.1.5 (0)
 -->
<!-- Title: source/driver/tmc2209/tmc2209_core.h Pages: 1 -->
<!--zoomable 389 -->

<svg id="main" version="1.1" xmlns="http://www.w3.org/2000/svg" xmlns:xlink="http://www.w3.org/1999/xlink" xml:space="preserve" onload="init(evt)">

<style type="text/css"><![CDATA[
.node, .edge {opacity: 0.7;}
.node.selected, .edge.selected {opacity: 1;}
.edge:hover path { stroke: red; }
.edge:hover polygon { stroke: red; fill: red; }
]]></style>

<defs>
  <circle id="rim" cx="0" cy="0" r="7"/>
  <circle id="rim2" cx="0" cy="0" r="3.5"/>
  <g id="zoomPlus">
    <use xlink:href="#rim" fill="#404040"><set attributeName="fill" to="#808080" begin="zoomplus.mouseover" end="zoomplus.mouseout"/></use>
    <path d="M-4,0h8M0,-4v8" fill="none" stroke="white" stroke-width="1.5" pointer-events="none"/>
  </g>
  <g id="zoomMin">
    <use xlink:href="#rim" fill="#404040"><set attributeName="fill" to="#808080" begin="zoomminus.mouseover" end="zoomminus.mouseout"/></use>
    <path d="M-4,0h8" fill="none" stroke="white" stroke-width="1.5" pointer-events="none"/>
  </g>
  <g id="arrowUp" transform="translate(30 24)">
    <use xlink:href="#rim"/>
    <path pointer-events="none" fill="none" stroke="white" stroke-width="1.5" d="M0,-3.0v7 M-2.5,-0.5L0,-3.0L2.5,-0.5"/>
  </g>
  <g id="arrowRight" transform="rotate(90) translate(36 -43)">
    <use xlink:href="#rim"/>
    <path pointer-events="none" fill="none" stroke="white" stroke-width="1.5" d="M0,-3.0v7 M-2.5,-0.5L0,-3.0L2.5,-0.5"/>
  </g>
  <g id="arrowDown" transform="rotate(180) translate(-30 -48)">
    <use xlink:href="#rim"/>
    <path pointer-events="none" fill="none" stroke="white" stroke-width="1.5" d="M0,-3.0v7 M-2.5,-0.5L0,-3.0L2.5,-0.5"/>
  </g>
  <g id="arrowLeft" transform="rotate(270) translate(-36 17)">
    <use xlink:href="#rim"/>
    <path pointer-events="none" fill="none" stroke="white" stroke-width="1.5" d="M0,-3.0v7 M-2.5,-0.5L0,-3.0L2.5,-0.5"/>
  </g>
  <g id="resetDef">
    <use xlink:href="#rim2" fill="#404040"><set attributeName="fill" to="#808080" begin="reset.mouseover" end="reset.mouseout"/></use>
  </g>
</defs>
<script type="application/ecmascript">
var viewWidth = 1939;
var viewHeight = 389;
var sectionId = 'dynsection-1';
</script>
<script type="application/ecmascript" xlink:href="svg.min.js"/>
<svg id="graph" class="graph">
<g id="viewport">
<title>source/driver/tmc2209/tmc2209_core.h</title>
<!-- Node1 -->
<g id="Node000001" class="node">
<title>Node1</title>
<g id="a_Node000001"><a xlink:title=" ">
<polygon fill="#999999" stroke="#666666" points="1078.25,-381 952.75,-381 952.75,-347.5 1078.25,-347.5 1078.25,-381"/>
<text xml:space="preserve" text-anchor="start" x="960.75" y="-367.5" font-family="Helvetica,sans-Serif" font-size="10.00">source/driver/tmc2209</text>
<text xml:space="preserve" text-anchor="middle" x="1015.5" y="-354.75" font-family="Helvetica,sans-Serif" font-size="10.00">/tmc2209_core.h</text>
</a>
</g>
</g>
<!-- Node2 -->
<g id="Node000002" class="node">
<title>Node2</title>
<g id="a_Node000002"><a xlink:href="application_8c.html" target="_top" xlink:title=" ">
<polygon fill="white" stroke="#666666" points="938.25,-166.12 824.75,-166.12 824.75,-145.38 938.25,-145.38 938.25,-166.12"/>
<text xml:space="preserve" text-anchor="middle" x="881.5" y="-152.62" font-family="Helvetica,sans-Serif" font-size="10.00">source/application.c</text>
</a>
</g>
</g>
<!-- Node1&#45;&gt;Node2 -->
<g id="edge1_Node000001_Node000002" class="edge">
<title>Node1&#45;&gt;Node2</title>
<g id="a_edge1_Node000001_Node000002"><a xlink:title=" ">
<path fill="none" stroke="#63b8ff" d="M1013.18,-335.93C1010.82,-318.53 1006.06,-295.97 996.5,-278 970.33,-228.83 918.73,-185.21 894.56,-166.48"/>
<polygon fill="#63b8ff" stroke="#63b8ff" points="1009.7,-336.25 1014.32,-345.78 1016.65,-335.45 1009.7,-336.25"/>
</a>
</g>
</g>
<!-- Node3 -->
<g id="Node000003" class="node">
<title>Node3</title>
<g id="a_Node000003"><a xlink:href="tmc2209__core_8c.html" target="_top" xlink:title=" ">
<polygon fill="white" stroke="#666666" points="987.25,-311.5 861.75,-311.5 861.75,-278 987.25,-278 987.25,-311.5"/>
<text xml:space="preserve" text-anchor="start" x="869.75" y="-298" font-family="Helvetica,sans-Serif" font-size="10.00">source/driver/tmc2209</text>
<text xml:space="preserve" text-anchor="middle" x="924.5" y="-285.25" font-family="Helvetica,sans-Serif" font-size="10.00">/tmc2209_core.c</text>
</a>
</g>
</g>
<!-- Node1&#45;&gt;Node3 -->
<g id="edge2_Node000001_Node000003" class="edge">
<title>Node1&#45;&gt;Node3</title>
<g id="a_edge2_Node000001_Node000003"><a xlink:title=" ">
<path fill="none" stroke="#63b8ff" d="M985.05,-340.66C972.33,-331.23 957.84,-320.48 946.23,-311.87"/>
<polygon fill="#63b8ff" stroke="#63b8ff" points="982.6,-343.21 992.72,-346.35 986.77,-337.58 982.6,-343.21"/>
</a>
</g>
</g>
<!-- Node4 -->
<g id="Node000004" class="node">
<title>Node4</title>
<g id="a_Node000004"><a xlink:href="motor__core_8h.html" target="_top" xlink:title=" ">
<polygon fill="white" stroke="#666666" points="843.5,-311.5 725.5,-311.5 725.5,-278 843.5,-278 843.5,-311.5"/>
<text xml:space="preserve" text-anchor="start" x="733.5" y="-298" font-family="Helvetica,sans-Serif" font-size="10.00">source/motion/motor</text>
<text xml:space="preserve" text-anchor="middle" x="784.5" y="-285.25" font-family="Helvetica,sans-Serif" font-size="10.00">/motor_core.h</text>
</a>
</g>
</g>
<!-- Node1&#45;&gt;Node4 -->
<g id="edge3_Node000001_Node000004" class="edge">
<title>Node1&#45;&gt;Node4</title>
<g id="a_edge3_Node000001_Node000004"><a xlink:title=" ">
<path fill="none" stroke="#63b8ff" d="M949.2,-343.88C914.55,-333.75 872.65,-321.51 839.78,-311.9"/>
<polygon fill="#63b8ff" stroke="#63b8ff" points="948.14,-347.21 958.72,-346.66 950.1,-340.49 948.14,-347.21"/>
</a>
</g>
</g>
<!-- Node14 -->
<g id="Node000014" class="node">
<title>Node14</title>
<g id="a_Node000014"><a xlink:href="motor__init_8c.html" target="_top" xlink:title=" ">
<polygon fill="white" stroke="#666666" points="1930.5,-103 1812.5,-103 1812.5,-69.5 1930.5,-69.5 1930.5,-103"/>
<text xml:space="preserve" text-anchor="start" x="1820.5" y="-89.5" font-family="Helvetica,sans-Serif" font-size="10.00">source/motion/motor</text>
<text xml:space="preserve" text-anchor="middle" x="1871.5" y="-76.75" font-family="Helvetica,sans-Serif" font-size="10.00">/motor_init.c</text>
</a>
</g>
</g>
<!-- Node1&#45;&gt;Node14 -->
<g id="edge59_Node000001_Node000014" class="edge">
<title>Node1&#45;&gt;Node14</title>
<g id="a_edge59_Node000001_Node000014"><a xlink:title=" ">
<path fill="none" stroke="#63b8ff" d="M1089.73,-361.31C1199.16,-357.37 1409.81,-345.65 1585.5,-311.5 1690.33,-291.12 1722.17,-293.9 1815.5,-242 1856.37,-219.27 1875.23,-215.11 1894.5,-172.5 1904.86,-149.59 1892.51,-121.05 1882.29,-103.49"/>
<polygon fill="#63b8ff" stroke="#63b8ff" points="1089.89,-357.8 1080.01,-361.64 1090.13,-364.8 1089.89,-357.8"/>
</a>
</g>
</g>
<!-- Node18 -->
<g id="Node000018" class="node">
<title>Node18</title>
<g id="a_Node000018"><a xlink:href="motor__tmc_8c.html" target="_top" xlink:title=" ">
<polygon fill="white" stroke="#666666" points="1732.5,-103 1614.5,-103 1614.5,-69.5 1732.5,-69.5 1732.5,-103"/>
<text xml:space="preserve" text-anchor="start" x="1622.5" y="-89.5" font-family="Helvetica,sans-Serif" font-size="10.00">source/motion/motor</text>
<text xml:space="preserve" text-anchor="middle" x="1673.5" y="-76.75" font-family="Helvetica,sans-Serif" font-size="10.00">/motor_tmc.c</text>
</a>
</g>
</g>
<!-- Node1&#45;&gt;Node18 -->
<g id="edge60_Node000001_Node000018" class="edge">
<title>Node1&#45;&gt;Node18</title>
<g id="a_edge60_Node000001_Node000018"><a xlink:title=" ">
<path fill="none" stroke="#63b8ff" d="M1089.88,-358.36C1280.53,-344.12 1778.64,-295.63 1877.5,-172.5 1886.82,-160.89 1886.64,-150.75 1877.5,-139 1859.8,-116.25 1786.45,-101.89 1732.76,-94.22"/>
<polygon fill="#63b8ff" stroke="#63b8ff" points="1089.81,-354.85 1080.09,-359.08 1090.32,-361.84 1089.81,-354.85"/>
</a>
</g>
</g>
<!-- Node4&#45;&gt;Node2 -->
<g id="edge4_Node000004_Node000002" class="edge">
<title>Node4&#45;&gt;Node2</title>
<g id="a_edge4_Node000004_Node000002"><a xlink:title=" ">
<path fill="none" stroke="#63b8ff" d="M802.34,-268.56C824.07,-237.87 859.71,-187.53 874.61,-166.48"/>
<polygon fill="#63b8ff" stroke="#63b8ff" points="799.61,-266.35 796.69,-276.53 805.33,-270.39 799.61,-266.35"/>
</a>
</g>
</g>
<!-- Node5 -->
<g id="Node000005" class="node">
<title>Node5</title>
<g id="a_Node000005"><a xlink:href="grabber_8c.html" target="_top" xlink:title=" ">
<polygon fill="white" stroke="#666666" points="557.62,-96.62 461.38,-96.62 461.38,-75.88 557.62,-75.88 557.62,-96.62"/>
<text xml:space="preserve" text-anchor="middle" x="509.5" y="-83.12" font-family="Helvetica,sans-Serif" font-size="10.00">source/grabber.c</text>
</a>
</g>
</g>
<!-- Node4&#45;&gt;Node5 -->
<g id="edge5_Node000004_Node000005" class="edge">
<title>Node4&#45;&gt;Node5</title>
<g id="a_edge5_Node000004_Node000005"><a xlink:title=" ">
<path fill="none" stroke="#63b8ff" d="M714.01,-284.58C666.77,-276.88 603.88,-263.59 551.5,-242 498.04,-219.96 469.41,-223.15 441.5,-172.5 434.31,-159.46 434.89,-152.34 441.5,-139 451.12,-119.59 471.88,-105.49 487.95,-96.95"/>
<polygon fill="#63b8ff" stroke="#63b8ff" points="713.44,-288.03 723.86,-286.13 714.53,-281.12 713.44,-288.03"/>
</a>
</g>
</g>
<!-- Node6 -->
<g id="Node000006" class="node">
<title>Node6</title>
<g id="a_Node000006"><a xlink:href="motor__convert_8h.html" target="_top" xlink:title=" ">
<polygon fill="white" stroke="#666666" points="1112.5,-172.5 994.5,-172.5 994.5,-139 1112.5,-139 1112.5,-172.5"/>
<text xml:space="preserve" text-anchor="start" x="1002.5" y="-159" font-family="Helvetica,sans-Serif" font-size="10.00">source/motion/motor</text>
<text xml:space="preserve" text-anchor="middle" x="1053.5" y="-146.25" font-family="Helvetica,sans-Serif" font-size="10.00">/motor_convert.h</text>
</a>
</g>
</g>
<!-- Node4&#45;&gt;Node6 -->
<g id="edge6_Node000004_Node000006" class="edge">
<title>Node4&#45;&gt;Node6</title>
<g id="a_edge6_Node000004_Node000006"><a xlink:title=" ">
<path fill="none" stroke="#63b8ff" d="M854.92,-277.32C906.57,-264.91 969.55,-248.87 980.5,-242 1008.72,-224.29 1031.81,-192.2 1044.04,-172.85"/>
<polygon fill="#63b8ff" stroke="#63b8ff" points="854.14,-273.91 845.23,-279.64 855.77,-280.72 854.14,-273.91"/>
</a>
</g>
</g>
<!-- Node10 -->
<g id="Node000010" class="node">
<title>Node10</title>
<g id="a_Node000010"><a xlink:href="motorCmd_8c.html" target="_top" xlink:title=" ">
<polygon fill="white" stroke="#666666" points="914.12,-96.62 802.88,-96.62 802.88,-75.88 914.12,-75.88 914.12,-96.62"/>
<text xml:space="preserve" text-anchor="middle" x="858.5" y="-83.12" font-family="Helvetica,sans-Serif" font-size="10.00">source/motorCmd.c</text>
</a>
</g>
</g>
<!-- Node4&#45;&gt;Node10 -->
<g id="edge38_Node000004_Node000010" class="edge">
<title>Node4&#45;&gt;Node10</title>
<g id="a_edge38_Node000004_Node000010"><a xlink:title=" ">
<path fill="none" stroke="#63b8ff" d="M833.63,-272.59C872.44,-252.9 923.88,-219.51 947.5,-172.5 954.18,-159.2 954.92,-151.91 947.5,-139 935.47,-118.08 911.38,-104.84 891.29,-96.99"/>
<polygon fill="#63b8ff" stroke="#63b8ff" points="832.34,-269.32 824.91,-276.87 835.43,-275.6 832.34,-269.32"/>
</a>
</g>
</g>
<!-- Node11 -->
<g id="Node000011" class="node">
<title>Node11</title>
<g id="a_Node000011"><a xlink:href="motor__homing_8c.html" target="_top" xlink:title=" ">
<polygon fill="white" stroke="#666666" points="743.88,-96.62 613.12,-96.62 613.12,-75.88 743.88,-75.88 743.88,-96.62"/>
<text xml:space="preserve" text-anchor="middle" x="678.5" y="-83.12" font-family="Helvetica,sans-Serif" font-size="10.00">source/motor_homing.c</text>
</a>
</g>
</g>
<!-- Node4&#45;&gt;Node11 -->
<g id="edge44_Node000004_Node000011" class="edge">
<title>Node4&#45;&gt;Node11</title>
<g id="a_edge44_Node000004_Node000011"><a xlink:title=" ">
<path fill="none" stroke="#63b8ff" d="M737.68,-272.41C700.2,-252.48 650.26,-218.84 627.5,-172.5 620.94,-159.14 621.85,-152.78 627.5,-139 634.87,-121.03 651.83,-105.95 664.17,-96.79"/>
<polygon fill="#63b8ff" stroke="#63b8ff" points="736.05,-275.51 746.55,-276.98 739.26,-269.29 736.05,-275.51"/>
</a>
</g>
</g>
<!-- Node12 -->
<g id="Node000012" class="node">
<title>Node12</title>
<g id="a_Node000012"><a xlink:href="motor__core_8c.html" target="_top" xlink:title=" ">
<polygon fill="white" stroke="#666666" points="1460.5,-103 1342.5,-103 1342.5,-69.5 1460.5,-69.5 1460.5,-103"/>
<text xml:space="preserve" text-anchor="start" x="1350.5" y="-89.5" font-family="Helvetica,sans-Serif" font-size="10.00">source/motion/motor</text>
<text xml:space="preserve" text-anchor="middle" x="1401.5" y="-76.75" font-family="Helvetica,sans-Serif" font-size="10.00">/motor_core.c</text>
</a>
</g>
</g>
<!-- Node4&#45;&gt;Node12 -->
<g id="edge12_Node000004_Node000012" class="edge">
<title>Node4&#45;&gt;Node12</title>
<g id="a_edge12_Node000004_Node000012"><a xlink:title=" ">
<path fill="none" stroke="#63b8ff" d="M854.67,-277.58C925.62,-262.29 947.6,-266.78 1012.5,-242 1100.42,-208.44 1110.04,-173.75 1197.5,-139 1211.04,-133.62 1286.9,-114.86 1342.16,-101.47"/>
<polygon fill="#63b8ff" stroke="#63b8ff" points="854.31,-274.07 845.31,-279.66 855.83,-280.91 854.31,-274.07"/>
</a>
</g>
</g>
<!-- Node13 -->
<g id="Node000013" class="node">
<title>Node13</title>
<g id="a_Node000013"><a xlink:href="motor__init_8h.html" target="_top" xlink:title=" ">
<polygon fill="white" stroke="#666666" points="1868.5,-172.5 1750.5,-172.5 1750.5,-139 1868.5,-139 1868.5,-172.5"/>
<text xml:space="preserve" text-anchor="start" x="1758.5" y="-159" font-family="Helvetica,sans-Serif" font-size="10.00">source/motion/motor</text>
<text xml:space="preserve" text-anchor="middle" x="1809.5" y="-146.25" font-family="Helvetica,sans-Serif" font-size="10.00">/motor_init.h</text>
</a>
</g>
</g>
<!-- Node4&#45;&gt;Node13 -->
<g id="edge13_Node000004_Node000013" class="edge">
<title>Node4&#45;&gt;Node13</title>
<g id="a_edge13_Node000004_Node000013"><a xlink:title=" ">
<path fill="none" stroke="#63b8ff" d="M854.99,-277.8C1096.4,-243.26 1162.82,-274.07 1401.5,-242 1526.83,-225.16 1671.17,-191.59 1750.17,-171.97"/>
<polygon fill="#63b8ff" stroke="#63b8ff" points="854.62,-274.31 845.23,-279.22 855.63,-281.24 854.62,-274.31"/>
</a>
</g>
</g>
<!-- Node16 -->
<g id="Node000016" class="node">
<title>Node16</title>
<g id="a_Node000016"><a xlink:href="motor__internal_8h.html" target="_top" xlink:title=" ">
<polygon fill="white" stroke="#666666" points="1392.5,-242 1274.5,-242 1274.5,-208.5 1392.5,-208.5 1392.5,-242"/>
<text xml:space="preserve" text-anchor="start" x="1282.5" y="-228.5" font-family="Helvetica,sans-Serif" font-size="10.00">source/motion/motor</text>
<text xml:space="preserve" text-anchor="middle" x="1333.5" y="-215.75" font-family="Helvetica,sans-Serif" font-size="10.00">/motor_internal.h</text>
</a>
</g>
</g>
<!-- Node4&#45;&gt;Node16 -->
<g id="edge16_Node000004_Node000016" class="edge">
<title>Node4&#45;&gt;Node16</title>
<g id="a_edge16_Node000004_Node000016"><a xlink:title=" ">
<path fill="none" stroke="#63b8ff" d="M855.05,-277.74C950.58,-262.75 1168.42,-241.64 1274.11,-231.74"/>
<polygon fill="#63b8ff" stroke="#63b8ff" points="854.55,-274.28 845.25,-279.34 855.68,-281.18 854.55,-274.28"/>
</a>
</g>
</g>
<!-- Node23 -->
<g id="Node000023" class="node">
<title>Node23</title>
<g id="a_Node000023"><a xlink:href="motor__test_8c.html" target="_top" xlink:title=" ">
<polygon fill="white" stroke="#666666" points="442.88,-96.62 330.12,-96.62 330.12,-75.88 442.88,-75.88 442.88,-96.62"/>
<text xml:space="preserve" text-anchor="middle" x="386.5" y="-83.12" font-family="Helvetica,sans-Serif" font-size="10.00">source/motor_test.c</text>
</a>
</g>
</g>
<!-- Node4&#45;&gt;Node23 -->
<g id="edge45_Node000004_Node000023" class="edge">
<title>Node4&#45;&gt;Node23</title>
<g id="a_edge45_Node000004_Node000023"><a xlink:title=" ">
<path fill="none" stroke="#63b8ff" d="M713.89,-289.52C632.76,-283.42 505.88,-269.7 467.5,-242 415.86,-204.73 394.44,-124.47 388.4,-96.83"/>
<polygon fill="#63b8ff" stroke="#63b8ff" points="713.28,-292.98 723.51,-290.22 713.79,-286 713.28,-292.98"/>
</a>
</g>
</g>
<!-- Node24 -->
<g id="Node000024" class="node">
<title>Node24</title>
<g id="a_Node000024"><a xlink:href="scara__kinematics_8c.html" target="_top" xlink:title=" ">
<polygon fill="white" stroke="#666666" points="145,-27.12 0,-27.12 0,-6.38 145,-6.38 145,-27.12"/>
<text xml:space="preserve" text-anchor="middle" x="72.5" y="-13.62" font-family="Helvetica,sans-Serif" font-size="10.00">source/scara_kinematics.c</text>
</a>
</g>
</g>
<!-- Node4&#45;&gt;Node24 -->
<g id="edge46_Node000004_Node000024" class="edge">
<title>Node4&#45;&gt;Node24</title>
<g id="a_edge46_Node000004_Node000024"><a xlink:title=" ">
<path fill="none" stroke="#63b8ff" d="M713.72,-291.24C580,-285.88 295.26,-271.33 201.5,-242 141.94,-223.37 116.06,-223.07 79.5,-172.5 46.73,-127.16 62.59,-53.34 69.69,-27.25"/>
<polygon fill="#63b8ff" stroke="#63b8ff" points="713.37,-294.73 723.5,-291.63 713.65,-287.73 713.37,-294.73"/>
</a>
</g>
</g>
<!-- Node25 -->
<g id="Node000025" class="node">
<title>Node25</title>
<g id="a_Node000025"><a xlink:href="motor__configs_8h.html" target="_top" xlink:title=" ">
<polygon fill="white" stroke="#666666" points="580.12,-166.12 450.88,-166.12 450.88,-145.38 580.12,-145.38 580.12,-166.12"/>
<text xml:space="preserve" text-anchor="middle" x="515.5" y="-152.62" font-family="Helvetica,sans-Serif" font-size="10.00">source/motor_configs.h</text>
</a>
</g>
</g>
<!-- Node4&#45;&gt;Node25 -->
<g id="edge39_Node000004_Node000025" class="edge">
<title>Node4&#45;&gt;Node25</title>
<g id="a_edge39_Node000004_Node000025"><a xlink:title=" ">
<path fill="none" stroke="#63b8ff" d="M714.18,-284.22C676.64,-276.84 630.83,-264.01 594.5,-242 561.54,-222.03 533.78,-184.4 521.82,-166.58"/>
<polygon fill="#63b8ff" stroke="#63b8ff" points="713.08,-287.58 723.55,-285.98 714.37,-280.7 713.08,-287.58"/>
</a>
</g>
</g>
<!-- Node27 -->
<g id="Node000027" class="node">
<title>Node27</title>
<g id="a_Node000027"><a xlink:href="scara__kinematics_8h.html" target="_top" xlink:title=" ">
<polygon fill="white" stroke="#666666" points="356.38,-235.62 210.62,-235.62 210.62,-214.88 356.38,-214.88 356.38,-235.62"/>
<text xml:space="preserve" text-anchor="middle" x="283.5" y="-222.12" font-family="Helvetica,sans-Serif" font-size="10.00">source/scara_kinematics.h</text>
</a>
</g>
</g>
<!-- Node4&#45;&gt;Node27 -->
<g id="edge47_Node000004_Node000027" class="edge">
<title>Node4&#45;&gt;Node27</title>
<g id="a_edge47_Node000004_Node000027"><a xlink:title=" ">
<path fill="none" stroke="#63b8ff" d="M713.8,-286.11C631.25,-276.9 490.69,-260.38 370.5,-242 358.97,-240.24 346.62,-238.13 334.95,-236.04"/>
<polygon fill="#63b8ff" stroke="#63b8ff" points="713.23,-289.56 723.55,-287.19 714,-282.61 713.23,-289.56"/>
</a>
</g>
</g>
<!-- Node7 -->
<g id="Node000007" class="node">
<title>Node7</title>
<g id="a_Node000007"><a xlink:href="motor__convert_8c.html" target="_top" xlink:title=" ">
<polygon fill="white" stroke="#666666" points="1052.5,-103 934.5,-103 934.5,-69.5 1052.5,-69.5 1052.5,-103"/>
<text xml:space="preserve" text-anchor="start" x="942.5" y="-89.5" font-family="Helvetica,sans-Serif" font-size="10.00">source/motion/motor</text>
<text xml:space="preserve" text-anchor="middle" x="993.5" y="-76.75" font-family="Helvetica,sans-Serif" font-size="10.00">/motor_convert.c</text>
</a>
</g>
</g>
<!-- Node6&#45;&gt;Node7 -->
<g id="edge7_Node000006_Node000007" class="edge">
<title>Node6&#45;&gt;Node7</title>
<g id="a_edge7_Node000006_Node000007"><a xlink:title=" ">
<path fill="none" stroke="#63b8ff" d="M1031.64,-130.16C1023.63,-121.14 1014.77,-111.18 1007.62,-103.13"/>
<polygon fill="#63b8ff" stroke="#63b8ff" points="1029.02,-132.47 1038.28,-137.62 1034.25,-127.82 1029.02,-132.47"/>
</a>
</g>
</g>
<!-- Node8 -->
<g id="Node000008" class="node">
<title>Node8</title>
<g id="a_Node000008"><a xlink:href="motor__motion_8c.html" target="_top" xlink:title=" ">
<polygon fill="white" stroke="#666666" points="1324.5,-103 1206.5,-103 1206.5,-69.5 1324.5,-69.5 1324.5,-103"/>
<text xml:space="preserve" text-anchor="start" x="1214.5" y="-89.5" font-family="Helvetica,sans-Serif" font-size="10.00">source/motion/motor</text>
<text xml:space="preserve" text-anchor="middle" x="1265.5" y="-76.75" font-family="Helvetica,sans-Serif" font-size="10.00">/motor_motion.c</text>
</a>
</g>
</g>
<!-- Node6&#45;&gt;Node8 -->
<g id="edge8_Node000006_Node000008" class="edge">
<title>Node6&#45;&gt;Node8</title>
<g id="a_edge8_Node000006_Node000008"><a xlink:title=" ">
<path fill="none" stroke="#63b8ff" d="M1115.18,-135.11C1146.81,-125.04 1184.86,-112.92 1214.77,-103.4"/>
<polygon fill="#63b8ff" stroke="#63b8ff" points="1114.19,-131.75 1105.72,-138.12 1116.31,-138.42 1114.19,-131.75"/>
</a>
</g>
</g>
<!-- Node9 -->
<g id="Node000009" class="node">
<title>Node9</title>
<g id="a_Node000009"><a xlink:href="motor__sync_8c.html" target="_top" xlink:title=" ">
<polygon fill="white" stroke="#666666" points="1188.5,-103 1070.5,-103 1070.5,-69.5 1188.5,-69.5 1188.5,-103"/>
<text xml:space="preserve" text-anchor="start" x="1078.5" y="-89.5" font-family="Helvetica,sans-Serif" font-size="10.00">source/motion/motor</text>
<text xml:space="preserve" text-anchor="middle" x="1129.5" y="-76.75" font-family="Helvetica,sans-Serif" font-size="10.00">/motor_sync.c</text>
</a>
</g>
</g>
<!-- Node6&#45;&gt;Node9 -->
<g id="edge9_Node000006_Node000009" class="edge">
<title>Node6&#45;&gt;Node9</title>
<g id="a_edge9_Node000006_Node000009"><a xlink:title=" ">
<path fill="none" stroke="#63b8ff" d="M1079.86,-131.34C1090.26,-122.1 1101.94,-111.73 1111.35,-103.37"/>
<polygon fill="#63b8ff" stroke="#63b8ff" points="1077.8,-128.49 1072.64,-137.75 1082.44,-133.72 1077.8,-128.49"/>
</a>
</g>
</g>
<!-- Node6&#45;&gt;Node10 -->
<g id="edge10_Node000006_Node000010" class="edge">
<title>Node6&#45;&gt;Node10</title>
<g id="a_edge10_Node000006_Node000010"><a xlink:title=" ">
<path fill="none" stroke="#63b8ff" d="M995.97,-134.84C960.1,-122.42 915.5,-106.98 887.01,-97.12"/>
<polygon fill="#63b8ff" stroke="#63b8ff" points="994.77,-138.12 1005.36,-138.09 997.06,-131.51 994.77,-138.12"/>
</a>
</g>
</g>
<!-- Node6&#45;&gt;Node11 -->
<g id="edge11_Node000006_Node000011" class="edge">
<title>Node6&#45;&gt;Node11</title>
<g id="a_edge11_Node000006_Node000011"><a xlink:title=" ">
<path fill="none" stroke="#63b8ff" d="M982.79,-142.02C910.28,-128.97 799.06,-108.95 733.07,-97.07"/>
<polygon fill="#63b8ff" stroke="#63b8ff" points="982.13,-145.46 992.59,-143.79 983.37,-138.57 982.13,-145.46"/>
</a>
</g>
</g>
<!-- Node13&#45;&gt;Node14 -->
<g id="edge14_Node000013_Node000014" class="edge">
<title>Node13&#45;&gt;Node14</title>
<g id="a_edge14_Node000013_Node000014"><a xlink:title=" ">
<path fill="none" stroke="#63b8ff" d="M1831.83,-130.44C1840.18,-121.35 1849.44,-111.27 1856.91,-103.13"/>
<polygon fill="#63b8ff" stroke="#63b8ff" points="1829.4,-127.91 1825.22,-137.64 1834.56,-132.64 1829.4,-127.91"/>
</a>
</g>
</g>
<!-- Node15 -->
<g id="Node000015" class="node">
<title>Node15</title>
<g id="a_Node000015"><a xlink:href="motor__process_8c.html" target="_top" xlink:title=" ">
<polygon fill="white" stroke="#666666" points="1596.5,-103 1478.5,-103 1478.5,-69.5 1596.5,-69.5 1596.5,-103"/>
<text xml:space="preserve" text-anchor="start" x="1486.5" y="-89.5" font-family="Helvetica,sans-Serif" font-size="10.00">source/motion/motor</text>
<text xml:space="preserve" text-anchor="middle" x="1537.5" y="-76.75" font-family="Helvetica,sans-Serif" font-size="10.00">/motor_process.c</text>
</a>
</g>
</g>
<!-- Node13&#45;&gt;Node15 -->
<g id="edge15_Node000013_Node000015" class="edge">
<title>Node13&#45;&gt;Node15</title>
<g id="a_edge15_Node000013_Node000015"><a xlink:title=" ">
<path fill="none" stroke="#63b8ff" d="M1739.19,-137.3C1695,-126.34 1638.63,-112.35 1596.73,-101.95"/>
<polygon fill="#63b8ff" stroke="#63b8ff" points="1738.13,-140.64 1748.68,-139.66 1739.81,-133.85 1738.13,-140.64"/>
</a>
</g>
</g>
<!-- Node16&#45;&gt;Node7 -->
<g id="edge17_Node000016_Node000007" class="edge">
<title>Node16&#45;&gt;Node7</title>
<g id="a_edge17_Node000016_Node000007"><a xlink:title=" ">
<path fill="none" stroke="#63b8ff" d="M1278.48,-204.05C1253.63,-194.74 1223.97,-183.36 1197.5,-172.5 1163.35,-158.49 1155.5,-153.36 1121.5,-139 1092.57,-126.78 1059.73,-113.52 1034.56,-103.48"/>
<polygon fill="#63b8ff" stroke="#63b8ff" points="1277.16,-207.29 1287.76,-207.51 1279.61,-200.74 1277.16,-207.29"/>
</a>
</g>
</g>
<!-- Node16&#45;&gt;Node13 -->
<g id="edge18_Node000016_Node000013" class="edge">
<title>Node16&#45;&gt;Node13</title>
<g id="a_edge18_Node000016_Node000013"><a xlink:title=" ">
<path fill="none" stroke="#63b8ff" d="M1404.04,-217.5C1485.64,-209.18 1623.86,-193.53 1741.5,-172.5 1744.36,-171.99 1747.29,-171.43 1750.23,-170.85"/>
<polygon fill="#63b8ff" stroke="#63b8ff" points="1404.01,-213.98 1394.41,-218.47 1404.71,-220.95 1404.01,-213.98"/>
</a>
</g>
</g>
<!-- Node17 -->
<g id="Node000017" class="node">
<title>Node17</title>
<g id="a_Node000017"><a xlink:href="motor__motion_8h.html" target="_top" xlink:title=" ">
<polygon fill="white" stroke="#666666" points="1460.5,-172.5 1342.5,-172.5 1342.5,-139 1460.5,-139 1460.5,-172.5"/>
<text xml:space="preserve" text-anchor="start" x="1350.5" y="-159" font-family="Helvetica,sans-Serif" font-size="10.00">source/motion/motor</text>
<text xml:space="preserve" text-anchor="middle" x="1401.5" y="-146.25" font-family="Helvetica,sans-Serif" font-size="10.00">/motor_motion.h</text>
</a>
</g>
</g>
<!-- Node16&#45;&gt;Node17 -->
<g id="edge19_Node000016_Node000017" class="edge">
<title>Node16&#45;&gt;Node17</title>
<g id="a_edge19_Node000016_Node000017"><a xlink:title=" ">
<path fill="none" stroke="#63b8ff" d="M1357.71,-200.22C1366.94,-191.06 1377.22,-180.85 1385.5,-172.63"/>
<polygon fill="#63b8ff" stroke="#63b8ff" points="1355.32,-197.66 1350.69,-207.19 1360.25,-202.63 1355.32,-197.66"/>
</a>
</g>
</g>
<!-- Node19 -->
<g id="Node000019" class="node">
<title>Node19</title>
<g id="a_Node000019"><a xlink:href="motor__process_8h.html" target="_top" xlink:title=" ">
<polygon fill="white" stroke="#666666" points="1596.5,-172.5 1478.5,-172.5 1478.5,-139 1596.5,-139 1596.5,-172.5"/>
<text xml:space="preserve" text-anchor="start" x="1486.5" y="-159" font-family="Helvetica,sans-Serif" font-size="10.00">source/motion/motor</text>
<text xml:space="preserve" text-anchor="middle" x="1537.5" y="-146.25" font-family="Helvetica,sans-Serif" font-size="10.00">/motor_process.h</text>
</a>
</g>
</g>
<!-- Node16&#45;&gt;Node19 -->
<g id="edge24_Node000016_Node000019" class="edge">
<title>Node16&#45;&gt;Node19</title>
<g id="a_edge24_Node000016_Node000019"><a xlink:title=" ">
<path fill="none" stroke="#63b8ff" d="M1393.25,-204.48C1423.61,-194.44 1460.03,-182.38 1488.68,-172.9"/>
<polygon fill="#63b8ff" stroke="#63b8ff" points="1392.19,-201.14 1383.8,-207.61 1394.39,-207.79 1392.19,-201.14"/>
</a>
</g>
</g>
<!-- Node20 -->
<g id="Node000020" class="node">
<title>Node20</title>
<g id="a_Node000020"><a xlink:href="motor__sync_8h.html" target="_top" xlink:title=" ">
<polygon fill="white" stroke="#666666" points="1324.5,-172.5 1206.5,-172.5 1206.5,-139 1324.5,-139 1324.5,-172.5"/>
<text xml:space="preserve" text-anchor="start" x="1214.5" y="-159" font-family="Helvetica,sans-Serif" font-size="10.00">source/motion/motor</text>
<text xml:space="preserve" text-anchor="middle" x="1265.5" y="-146.25" font-family="Helvetica,sans-Serif" font-size="10.00">/motor_sync.h</text>
</a>
</g>
</g>
<!-- Node16&#45;&gt;Node20 -->
<g id="edge27_Node000016_Node000020" class="edge">
<title>Node16&#45;&gt;Node20</title>
<g id="a_edge27_Node000016_Node000020"><a xlink:title=" ">
<path fill="none" stroke="#63b8ff" d="M1309.29,-200.22C1300.06,-191.06 1289.78,-180.85 1281.5,-172.63"/>
<polygon fill="#63b8ff" stroke="#63b8ff" points="1306.75,-202.63 1316.31,-207.19 1311.68,-197.66 1306.75,-202.63"/>
</a>
</g>
</g>
<!-- Node21 -->
<g id="Node000021" class="node">
<title>Node21</title>
<g id="a_Node000021"><a xlink:href="motor__tmc_8h.html" target="_top" xlink:title=" ">
<polygon fill="white" stroke="#666666" points="1732.5,-172.5 1614.5,-172.5 1614.5,-139 1732.5,-139 1732.5,-172.5"/>
<text xml:space="preserve" text-anchor="start" x="1622.5" y="-159" font-family="Helvetica,sans-Serif" font-size="10.00">source/motion/motor</text>
<text xml:space="preserve" text-anchor="middle" x="1673.5" y="-146.25" font-family="Helvetica,sans-Serif" font-size="10.00">/motor_tmc.h</text>
</a>
</g>
</g>
<!-- Node16&#45;&gt;Node21 -->
<g id="edge30_Node000016_Node000021" class="edge">
<title>Node16&#45;&gt;Node21</title>
<g id="a_edge30_Node000016_Node000021"><a xlink:title=" ">
<path fill="none" stroke="#63b8ff" d="M1403.82,-211.66C1458.83,-201.62 1537.18,-186.9 1605.5,-172.5 1608.35,-171.9 1611.26,-171.27 1614.19,-170.63"/>
<polygon fill="#63b8ff" stroke="#63b8ff" points="1403.5,-208.16 1394.29,-213.4 1404.75,-215.05 1403.5,-208.16"/>
</a>
</g>
</g>
<!-- Node22 -->
<g id="Node000022" class="node">
<title>Node22</title>
<g id="a_Node000022"><a xlink:href="motor__homing_8h.html" target="_top" xlink:title=" ">
<polygon fill="white" stroke="#666666" points="768.25,-166.12 636.75,-166.12 636.75,-145.38 768.25,-145.38 768.25,-166.12"/>
<text xml:space="preserve" text-anchor="middle" x="702.5" y="-152.62" font-family="Helvetica,sans-Serif" font-size="10.00">source/motor_homing.h</text>
</a>
</g>
</g>
<!-- Node16&#45;&gt;Node22 -->
<g id="edge33_Node000016_Node000022" class="edge">
<title>Node16&#45;&gt;Node22</title>
<g id="a_edge33_Node000016_Node000022"><a xlink:title=" ">
<path fill="none" stroke="#63b8ff" d="M1262.95,-218.08C1163.17,-209.15 975.19,-191.6 815.5,-172.5 800.26,-170.68 783.89,-168.51 768.47,-166.38"/>
<polygon fill="#63b8ff" stroke="#63b8ff" points="1262.6,-221.56 1272.87,-218.96 1263.22,-214.59 1262.6,-221.56"/>
</a>
</g>
</g>
<!-- Node17&#45;&gt;Node8 -->
<g id="edge21_Node000017_Node000008" class="edge">
<title>Node17&#45;&gt;Node8</title>
<g id="a_edge21_Node000017_Node000008"><a xlink:title=" ">
<path fill="none" stroke="#63b8ff" d="M1358.67,-133.49C1338.98,-123.72 1316.01,-112.32 1297.81,-103.29"/>
<polygon fill="#63b8ff" stroke="#63b8ff" points="1357.06,-136.6 1367.57,-137.91 1360.17,-130.33 1357.06,-136.6"/>
</a>
</g>
</g>
<!-- Node17&#45;&gt;Node12 -->
<g id="edge20_Node000017_Node000012" class="edge">
<title>Node17&#45;&gt;Node12</title>
<g id="a_edge20_Node000017_Node000012"><a xlink:title=" ">
<path fill="none" stroke="#63b8ff" d="M1401.5,-127.31C1401.5,-119.09 1401.5,-110.34 1401.5,-103.13"/>
<polygon fill="#63b8ff" stroke="#63b8ff" points="1398,-127.24 1401.5,-137.24 1405,-127.24 1398,-127.24"/>
</a>
</g>
</g>
<!-- Node17&#45;&gt;Node15 -->
<g id="edge22_Node000017_Node000015" class="edge">
<title>Node17&#45;&gt;Node15</title>
<g id="a_edge22_Node000017_Node000015"><a xlink:title=" ">
<path fill="none" stroke="#63b8ff" d="M1444.33,-133.49C1464.02,-123.72 1486.99,-112.32 1505.19,-103.29"/>
<polygon fill="#63b8ff" stroke="#63b8ff" points="1442.83,-130.33 1435.43,-137.91 1445.94,-136.6 1442.83,-130.33"/>
</a>
</g>
</g>
<!-- Node17&#45;&gt;Node18 -->
<g id="edge23_Node000017_Node000018" class="edge">
<title>Node17&#45;&gt;Node18</title>
<g id="a_edge23_Node000017_Node000018"><a xlink:title=" ">
<path fill="none" stroke="#63b8ff" d="M1471.81,-137.3C1516,-126.34 1572.37,-112.35 1614.27,-101.95"/>
<polygon fill="#63b8ff" stroke="#63b8ff" points="1471.19,-133.85 1462.32,-139.66 1472.87,-140.64 1471.19,-133.85"/>
</a>
</g>
</g>
<!-- Node19&#45;&gt;Node12 -->
<g id="edge25_Node000019_Node000012" class="edge">
<title>Node19&#45;&gt;Node12</title>
<g id="a_edge25_Node000019_Node000012"><a xlink:title=" ">
<path fill="none" stroke="#63b8ff" d="M1494.67,-133.49C1474.98,-123.72 1452.01,-112.32 1433.81,-103.29"/>
<polygon fill="#63b8ff" stroke="#63b8ff" points="1493.06,-136.6 1503.57,-137.91 1496.17,-130.33 1493.06,-136.6"/>
</a>
</g>
</g>
<!-- Node19&#45;&gt;Node15 -->
<g id="edge26_Node000019_Node000015" class="edge">
<title>Node19&#45;&gt;Node15</title>
<g id="a_edge26_Node000019_Node000015"><a xlink:title=" ">
<path fill="none" stroke="#63b8ff" d="M1537.5,-127.31C1537.5,-119.09 1537.5,-110.34 1537.5,-103.13"/>
<polygon fill="#63b8ff" stroke="#63b8ff" points="1534,-127.24 1537.5,-137.24 1541,-127.24 1534,-127.24"/>
</a>
</g>
</g>
<!-- Node20&#45;&gt;Node9 -->
<g id="edge29_Node000020_Node000009" class="edge">
<title>Node20&#45;&gt;Node9</title>
<g id="a_edge29_Node000020_Node000009"><a xlink:title=" ">
<path fill="none" stroke="#63b8ff" d="M1222.67,-133.49C1202.98,-123.72 1180.01,-112.32 1161.81,-103.29"/>
<polygon fill="#63b8ff" stroke="#63b8ff" points="1221.06,-136.6 1231.57,-137.91 1224.17,-130.33 1221.06,-136.6"/>
</a>
</g>
</g>
<!-- Node20&#45;&gt;Node15 -->
<g id="edge28_Node000020_Node000015" class="edge">
<title>Node20&#45;&gt;Node15</title>
<g id="a_edge28_Node000020_Node000015"><a xlink:title=" ">
<path fill="none" stroke="#63b8ff" d="M1335.81,-137.3C1380,-126.34 1436.37,-112.35 1478.27,-101.95"/>
<polygon fill="#63b8ff" stroke="#63b8ff" points="1335.19,-133.85 1326.32,-139.66 1336.87,-140.64 1335.19,-133.85"/>
</a>
</g>
</g>
<!-- Node21&#45;&gt;Node15 -->
<g id="edge31_Node000021_Node000015" class="edge">
<title>Node21&#45;&gt;Node15</title>
<g id="a_edge31_Node000021_Node000015"><a xlink:title=" ">
<path fill="none" stroke="#63b8ff" d="M1630.67,-133.49C1610.98,-123.72 1588.01,-112.32 1569.81,-103.29"/>
<polygon fill="#63b8ff" stroke="#63b8ff" points="1629.06,-136.6 1639.57,-137.91 1632.17,-130.33 1629.06,-136.6"/>
</a>
</g>
</g>
<!-- Node21&#45;&gt;Node18 -->
<g id="edge32_Node000021_Node000018" class="edge">
<title>Node21&#45;&gt;Node18</title>
<g id="a_edge32_Node000021_Node000018"><a xlink:title=" ">
<path fill="none" stroke="#63b8ff" d="M1673.5,-127.31C1673.5,-119.09 1673.5,-110.34 1673.5,-103.13"/>
<polygon fill="#63b8ff" stroke="#63b8ff" points="1670,-127.24 1673.5,-137.24 1677,-127.24 1670,-127.24"/>
</a>
</g>
</g>
<!-- Node22&#45;&gt;Node10 -->
<g id="edge34_Node000022_Node000010" class="edge">
<title>Node22&#45;&gt;Node10</title>
<g id="a_edge34_Node000022_Node000010"><a xlink:title=" ">
<path fill="none" stroke="#63b8ff" d="M735.62,-140.42C765.75,-127.38 809.44,-108.48 835.79,-97.08"/>
<polygon fill="#63b8ff" stroke="#63b8ff" points="734.36,-137.15 726.57,-144.33 737.14,-143.57 734.36,-137.15"/>
</a>
</g>
</g>
<!-- Node22&#45;&gt;Node11 -->
<g id="edge35_Node000022_Node000011" class="edge">
<title>Node22&#45;&gt;Node11</title>
<g id="a_edge35_Node000022_Node000011"><a xlink:title=" ">
<path fill="none" stroke="#63b8ff" d="M695.24,-134.33C690.82,-121.91 685.39,-106.62 681.93,-96.9"/>
<polygon fill="#63b8ff" stroke="#63b8ff" points="691.91,-135.4 698.55,-143.65 698.5,-133.06 691.91,-135.4"/>
</a>
</g>
</g>
<!-- Node22&#45;&gt;Node23 -->
<g id="edge36_Node000022_Node000023" class="edge">
<title>Node22&#45;&gt;Node23</title>
<g id="a_edge36_Node000022_Node000023"><a xlink:title=" ">
<path fill="none" stroke="#63b8ff" d="M641.51,-142.66C590.83,-132.48 516.85,-117.34 452.5,-103 444.22,-101.16 435.38,-99.1 426.94,-97.11"/>
<polygon fill="#63b8ff" stroke="#63b8ff" points="640.62,-146.05 651.12,-144.58 642,-139.19 640.62,-146.05"/>
</a>
</g>
</g>
<!-- Node22&#45;&gt;Node24 -->
<g id="edge37_Node000022_Node000024" class="edge">
<title>Node22&#45;&gt;Node24</title>
<g id="a_edge37_Node000022_Node000024"><a xlink:title=" ">
<path fill="none" stroke="#63b8ff" d="M724.49,-137.76C745.64,-119.43 771.79,-90.1 752.5,-69.5 710.95,-25.12 267.04,-39.05 206.5,-33.5 186.67,-31.68 165.24,-29.34 145.45,-27.01"/>
<polygon fill="#63b8ff" stroke="#63b8ff" points="722.52,-134.85 717.04,-143.92 726.98,-140.24 722.52,-134.85"/>
</a>
</g>
</g>
<!-- Node25&#45;&gt;Node5 -->
<g id="edge40_Node000025_Node000005" class="edge">
<title>Node25&#45;&gt;Node5</title>
<g id="a_edge40_Node000025_Node000005"><a xlink:title=" ">
<path fill="none" stroke="#63b8ff" d="M513.65,-133.94C512.55,-121.59 511.21,-106.52 510.36,-96.9"/>
<polygon fill="#63b8ff" stroke="#63b8ff" points="510.13,-133.92 514.51,-143.57 517.11,-133.3 510.13,-133.92"/>
</a>
</g>
</g>
<!-- Node25&#45;&gt;Node11 -->
<g id="edge41_Node000025_Node000011" class="edge">
<title>Node25&#45;&gt;Node11</title>
<g id="a_edge41_Node000025_Node000011"><a xlink:title=" ">
<path fill="none" stroke="#63b8ff" d="M549.69,-140.59C581.19,-127.55 627.11,-108.53 654.77,-97.08"/>
<polygon fill="#63b8ff" stroke="#63b8ff" points="548.5,-137.3 540.6,-144.36 551.18,-143.76 548.5,-137.3"/>
</a>
</g>
</g>
<!-- Node25&#45;&gt;Node23 -->
<g id="edge42_Node000025_Node000023" class="edge">
<title>Node25&#45;&gt;Node23</title>
<g id="a_edge42_Node000025_Node000023"><a xlink:title=" ">
<path fill="none" stroke="#63b8ff" d="M486.79,-139.73C461.93,-126.72 426.69,-108.28 405.28,-97.08"/>
<polygon fill="#63b8ff" stroke="#63b8ff" points="484.92,-142.7 495.4,-144.23 488.16,-136.5 484.92,-142.7"/>
</a>
</g>
</g>
<!-- Node26 -->
<g id="Node000026" class="node">
<title>Node26</title>
<g id="a_Node000026"><a xlink:href="scara__kinematics__process_8c.html" target="_top" xlink:title=" ">
<polygon fill="white" stroke="#666666" points="351.88,-33.5 215.12,-33.5 215.12,0 351.88,0 351.88,-33.5"/>
<text xml:space="preserve" text-anchor="start" x="223.12" y="-20" font-family="Helvetica,sans-Serif" font-size="10.00">source/scara_kinematics</text>
<text xml:space="preserve" text-anchor="middle" x="283.5" y="-7.25" font-family="Helvetica,sans-Serif" font-size="10.00">_process.c</text>
</a>
</g>
</g>
<!-- Node25&#45;&gt;Node26 -->
<g id="edge43_Node000025_Node000026" class="edge">
<title>Node25&#45;&gt;Node26</title>
<g id="a_edge43_Node000025_Node000026"><a xlink:title=" ">
<path fill="none" stroke="#63b8ff" d="M537.97,-137.69C558.94,-119.71 584.49,-91.08 566.5,-69.5 539.75,-37.42 427.16,-25.17 352.31,-20.53"/>
<polygon fill="#63b8ff" stroke="#63b8ff" points="535.83,-134.92 530.29,-143.95 540.25,-140.34 535.83,-134.92"/>
</a>
</g>
</g>
<!-- Node27&#45;&gt;Node2 -->
<g id="edge48_Node000027_Node000002" class="edge">
<title>Node27&#45;&gt;Node2</title>
<g id="a_edge48_Node000027_Node000002"><a xlink:title=" ">
<path fill="none" stroke="#63b8ff" d="M368.15,-219.09C472.6,-212 655.4,-197.23 810.5,-172.5 820.47,-170.91 831.15,-168.78 841.11,-166.59"/>
<polygon fill="#63b8ff" stroke="#63b8ff" points="368,-215.59 358.25,-219.75 368.47,-222.58 368,-215.59"/>
</a>
</g>
</g>
<!-- Node27&#45;&gt;Node10 -->
<g id="edge49_Node000027_Node000010" class="edge">
<title>Node27&#45;&gt;Node10</title>
<g id="a_edge49_Node000027_Node000010"><a xlink:title=" ">
<path fill="none" stroke="#63b8ff" d="M368,-222.4C489.74,-218.56 707.52,-206.97 777.5,-172.5 795.63,-163.57 834.17,-117.46 850.7,-97.02"/>
<polygon fill="#63b8ff" stroke="#63b8ff" points="367.93,-218.9 358.04,-222.7 368.15,-225.9 367.93,-218.9"/>
</a>
</g>
</g>
<!-- Node27&#45;&gt;Node23 -->
<g id="edge50_Node000027_Node000023" class="edge">
<title>Node27&#45;&gt;Node23</title>
<g id="a_edge50_Node000027_Node000023"><a xlink:title=" ">
<path fill="none" stroke="#63b8ff" d="M297.6,-205.49C319.81,-175.96 362.15,-119.64 379.16,-97.01"/>
<polygon fill="#63b8ff" stroke="#63b8ff" points="295.03,-203.09 291.82,-213.19 300.62,-207.3 295.03,-203.09"/>
</a>
</g>
</g>
<!-- Node27&#45;&gt;Node24 -->
<g id="edge51_Node000027_Node000024" class="edge">
<title>Node27&#45;&gt;Node24</title>
<g id="a_edge51_Node000027_Node000024"><a xlink:title=" ">
<path fill="none" stroke="#63b8ff" d="M199.42,-212.98C168.85,-205.51 135.67,-193.11 110.5,-172.5 83.43,-150.33 82.17,-136.9 73.5,-103 66.68,-76.33 69.24,-43.41 71.15,-27.4"/>
<polygon fill="#63b8ff" stroke="#63b8ff" points="198.54,-216.37 209.07,-215.17 200.1,-209.54 198.54,-216.37"/>
</a>
</g>
</g>
<!-- Node27&#45;&gt;Node26 -->
<g id="edge58_Node000027_Node000026" class="edge">
<title>Node27&#45;&gt;Node26</title>
<g id="a_edge58_Node000027_Node000026"><a xlink:title=" ">
<path fill="none" stroke="#63b8ff" d="M283.5,-203.24C283.5,-161.92 283.5,-70.89 283.5,-33.88"/>
<polygon fill="#63b8ff" stroke="#63b8ff" points="280,-203.05 283.5,-213.05 287,-203.05 280,-203.05"/>
</a>
</g>
</g>
<!-- Node28 -->
<g id="Node000028" class="node">
<title>Node28</title>
<g id="a_Node000028"><a xlink:href="scara__kinematics__internal_8h.html" target="_top" xlink:title=" ">
<polygon fill="white" stroke="#666666" points="255.88,-172.5 119.12,-172.5 119.12,-139 255.88,-139 255.88,-172.5"/>
<text xml:space="preserve" text-anchor="start" x="127.12" y="-159" font-family="Helvetica,sans-Serif" font-size="10.00">source/scara_kinematics</text>
<text xml:space="preserve" text-anchor="middle" x="187.5" y="-146.25" font-family="Helvetica,sans-Serif" font-size="10.00">_internal.h</text>
</a>
</g>
</g>
<!-- Node27&#45;&gt;Node28 -->
<g id="edge52_Node000027_Node000028" class="edge">
<title>Node27&#45;&gt;Node28</title>
<g id="a_edge52_Node000027_Node000028"><a xlink:title=" ">
<path fill="none" stroke="#63b8ff" d="M260.56,-208.12C245.42,-197.47 225.65,-183.57 210.5,-172.92"/>
<polygon fill="#63b8ff" stroke="#63b8ff" points="258.31,-210.82 268.51,-213.71 262.34,-205.09 258.31,-210.82"/>
</a>
</g>
</g>
<!-- Node28&#45;&gt;Node24 -->
<g id="edge53_Node000028_Node000024" class="edge">
<title>Node28&#45;&gt;Node24</title>
<g id="a_edge53_Node000028_Node000024"><a xlink:title=" ">
<path fill="none" stroke="#63b8ff" d="M128.97,-133.37C114.89,-125.73 101.15,-115.76 91.5,-103 74.21,-80.15 72.09,-44.57 72.17,-27.52"/>
<polygon fill="#63b8ff" stroke="#63b8ff" points="127.36,-136.48 137.87,-137.84 130.51,-130.22 127.36,-136.48"/>
</a>
</g>
</g>
<!-- Node28&#45;&gt;Node26 -->
<g id="edge54_Node000028_Node000026" class="edge">
<title>Node28&#45;&gt;Node26</title>
<g id="a_edge54_Node000028_Node000026"><a xlink:title=" ">
<path fill="none" stroke="#63b8ff" d="M218.28,-131.56C227.85,-123.29 237.88,-113.43 245.5,-103 261.36,-81.28 272.63,-51.88 278.59,-33.9"/>
<polygon fill="#63b8ff" stroke="#63b8ff" points="216.34,-128.63 210.87,-137.7 220.8,-134.02 216.34,-128.63"/>
</a>
</g>
</g>
<!-- Node29 -->
<g id="Node000029" class="node">
<title>Node29</title>
<g id="a_Node000029"><a xlink:href="scara__kinematics__process_8h.html" target="_top" xlink:title=" ">
<polygon fill="white" stroke="#666666" points="236.88,-103 100.12,-103 100.12,-69.5 236.88,-69.5 236.88,-103"/>
<text xml:space="preserve" text-anchor="start" x="108.12" y="-89.5" font-family="Helvetica,sans-Serif" font-size="10.00">source/scara_kinematics</text>
<text xml:space="preserve" text-anchor="middle" x="168.5" y="-76.75" font-family="Helvetica,sans-Serif" font-size="10.00">_process.h</text>
</a>
</g>
</g>
<!-- Node28&#45;&gt;Node29 -->
<g id="edge55_Node000028_Node000029" class="edge">
<title>Node28&#45;&gt;Node29</title>
<g id="a_edge55_Node000028_Node000029"><a xlink:title=" ">
<path fill="none" stroke="#63b8ff" d="M179.94,-127.89C177.58,-119.5 175.05,-110.51 172.97,-103.13"/>
<polygon fill="#63b8ff" stroke="#63b8ff" points="176.51,-128.62 182.59,-137.3 183.25,-126.72 176.51,-128.62"/>
</a>
</g>
</g>
<!-- Node29&#45;&gt;Node24 -->
<g id="edge56_Node000029_Node000024" class="edge">
<title>Node29&#45;&gt;Node24</title>
<g id="a_edge56_Node000029_Node000024"><a xlink:title=" ">
<path fill="none" stroke="#63b8ff" d="M136.68,-62.87C119.66,-50.91 99.58,-36.79 86.47,-27.57"/>
<polygon fill="#63b8ff" stroke="#63b8ff" points="134.32,-65.49 144.51,-68.38 138.34,-59.77 134.32,-65.49"/>
</a>
</g>
</g>
<!-- Node29&#45;&gt;Node26 -->
<g id="edge57_Node000029_Node000026" class="edge">
<title>Node29&#45;&gt;Node26</title>
<g id="a_edge57_Node000029_Node000026"><a xlink:title=" ">
<path fill="none" stroke="#63b8ff" d="M205.87,-63.32C222.26,-53.7 241.14,-42.61 256.18,-33.79"/>
<polygon fill="#63b8ff" stroke="#63b8ff" points="204.2,-60.24 197.35,-68.32 207.75,-66.27 204.2,-60.24"/>
</a>
</g>
</g>
</g>
</svg>

<g id="navigator" transform="translate(0 0)" fill="#404254">
  <rect fill="#f2f5e9" fill-opacity="0.5" stroke="#606060" stroke-width=".5" x="0" y="0" width="60" height="60"/>
  <use id="zoomplus" xlink:href="#zoomPlus" x="17" y="9" onmousedown="handleZoom(evt,'in')"/>
  <use id="zoomminus" xlink:href="#zoomMin" x="42" y="9" onmousedown="handleZoom(evt,'out')"/>
  <use id="reset" xlink:href="#resetDef" x="30" y="36" onmousedown="handleReset()"/>
   <use id="arrowup" xlink:href="#arrowUp" x="0" y="0" onmousedown="handlePan(0,-1)"/>
  <use id="arrowright" xlink:href="#arrowRight" x="0" y="0" onmousedown="handlePan(1,0)"/>
  <use id="arrowdown" xlink:href="#arrowDown" x="0" y="0" onmousedown="handlePan(0,1)"/>
  <use id="arrowleft" xlink:href="#arrowLeft" x="0" y="0" onmousedown="handlePan(-1,0)"/>
</g>
<svg viewBox="0 0 15 15" width="100%" height="30px" preserveAspectRatio="xMaxYMin meet">
 <g id="arrow_out" transform="scale(0.3 0.3)">
  <a xlink:href="tmc2209__core_8h__dep__incl_org.svg" target="_base">
   <rect id="button" ry="5" rx="5" y="6" x="6" height="38" width="38"
        fill="#f2f5e9" fill-opacity="0.5" stroke="#606060" stroke-width="1.0"/>
   <path id="arrow"
     d="M 11.500037,31.436501 C 11.940474,20.09759 22.043105,11.32322 32.158766,21.979434 L 37.068811,17.246167 C 37.068811,17.246167 37.088388,32 37.088388,32 L 22.160133,31.978069 C 22.160133,31.978069 26.997745,27.140456 26.997745,27.140456 C 18.528582,18.264221 13.291696,25.230495 11.500037,31.436501 z"
     style="fill:#404040;"/>
  </a>
 </g>
</svg>

<style type='text/css'>
<![CDATA[
[data-mouse-over-selected='false'] { opacity: 0.7; }
[data-mouse-over-selected='true']  { opacity: 1.0; }
]]>
</style>
<script type="application/ecmascript"><![CDATA[
document.addEventListener('DOMContentLoaded', (event) => {
  highlightEdges();
  highlightAdjacentNodes();
});
]]></script>
</svg>
