<?xml version="1.0" encoding="UTF-8" standalone="no"?>
<!DOCTYPE svg PUBLIC "-//W3C//DTD SVG 1.1//EN"
 "http://www.w3.org/Graphics/SVG/1.1/DTD/svg11.dtd">
<!-- Generated by graphviz version 14.1.4 (0)
 -->
<!-- Title: source/driver/tmc2209/tmc2209_core.c Pages: 1 -->
<!--zoomable 269 -->

<svg id="main" version="1.1" xmlns="http://www.w3.org/2000/svg" xmlns:xlink="http://www.w3.org/1999/xlink" xml:space="preserve" onload="init(evt)">

<style type="text/css"><![CDATA[
.node, .edge {opacity: 0.7;}
.node.selected, .edge.selected {opacity: 1;}
.edge:hover path { stroke: red; }
.edge:hover polygon { stroke: red; fill: red; }
]]></style>

<defs>
  <circle id="rim" cx="0" cy="0" r="7"/>
  <circle id="rim2" cx="0" cy="0" r="3.5"/>
  <g id="zoomPlus">
    <use xlink:href="#rim" fill="#404040"><set attributeName="fill" to="#808080" begin="zoomplus.mouseover" end="zoomplus.mouseout"/></use>
    <path d="M-4,0h8M0,-4v8" fill="none" stroke="white" stroke-width="1.5" pointer-events="none"/>
  </g>
  <g id="zoomMin">
    <use xlink:href="#rim" fill="#404040"><set attributeName="fill" to="#808080" begin="zoomminus.mouseover" end="zoomminus.mouseout"/></use>
    <path d="M-4,0h8" fill="none" stroke="white" stroke-width="1.5" pointer-events="none"/>
  </g>
  <g id="arrowUp" transform="translate(30 24)">
    <use xlink:href="#rim"/>
    <path pointer-events="none" fill="none" stroke="white" stroke-width="1.5" d="M0,-3.0v7 M-2.5,-0.5L0,-3.0L2.5,-0.5"/>
  </g>
  <g id="arrowRight" transform="rotate(90) translate(36 -43)">
    <use xlink:href="#rim"/>
    <path pointer-events="none" fill="none" stroke="white" stroke-width="1.5" d="M0,-3.0v7 M-2.5,-0.5L0,-3.0L2.5,-0.5"/>
  </g>
  <g id="arrowDown" transform="rotate(180) translate(-30 -48)">
    <use xlink:href="#rim"/>
    <path pointer-events="none" fill="none" stroke="white" stroke-width="1.5" d="M0,-3.0v7 M-2.5,-0.5L0,-3.0L2.5,-0.5"/>
  </g>
  <g id="arrowLeft" transform="rotate(270) translate(-36 17)">
    <use xlink:href="#rim"/>
    <path pointer-events="none" fill="none" stroke="white" stroke-width="1.5" d="M0,-3.0v7 M-2.5,-0.5L0,-3.0L2.5,-0.5"/>
  </g>
  <g id="resetDef">
    <use xlink:href="#rim2" fill="#404040"><set attributeName="fill" to="#808080" begin="reset.mouseover" end="reset.mouseout"/></use>
  </g>
</defs>
<script type="application/ecmascript">
var viewWidth = 1071;
var viewHeight = 269;
var sectionId = 'dynsection-0';
</script>
<script type="application/ecmascript" xlink:href="svg.min.js"/>
<svg id="graph" class="graph">
<g id="viewport">
<title>source/driver/tmc2209/tmc2209_core.c</title>
<!-- Node1 -->
<g id="Node000001" class="node">
<title>Node1</title>
<g id="a_Node000001"><a xlink:title=" ">
<polygon fill="#999999" stroke="#666666" points="688.38,-260.5 562.88,-260.5 562.88,-227 688.38,-227 688.38,-260.5"/>
<text xml:space="preserve" text-anchor="start" x="570.88" y="-247" font-family="Helvetica,sans-Serif" font-size="10.00">source/driver/tmc2209</text>
<text xml:space="preserve" text-anchor="middle" x="625.62" y="-234.25" font-family="Helvetica,sans-Serif" font-size="10.00">/tmc2209_core.c</text>
</a>
</g>
</g>
<!-- Node2 -->
<g id="Node000002" class="node">
<title>Node2</title>
<g id="a_Node000002"><a xlink:href="tmc2209__core_8h.html" target="_top" xlink:title=" ">
<polygon fill="white" stroke="#666666" points="181.62,-134.25 87.62,-134.25 87.62,-113.5 181.62,-113.5 181.62,-134.25"/>
<text xml:space="preserve" text-anchor="middle" x="134.62" y="-120.75" font-family="Helvetica,sans-Serif" font-size="10.00">tmc2209_core.h</text>
</a>
</g>
</g>
<!-- Node1&#45;&gt;Node2 -->
<g id="edge1_Node000001_Node000002" class="edge">
<title>Node1&#45;&gt;Node2</title>
<g id="a_edge1_Node000001_Node000002"><a xlink:title=" ">
<path fill="none" stroke="#63b8ff" d="M562.79,-241.46C456.5,-238.3 246.64,-227.49 183.62,-191 165.42,-180.46 151.94,-160.16 143.78,-144.83"/>
<polygon fill="#63b8ff" stroke="#63b8ff" points="147.03,-143.51 139.46,-136.1 140.76,-146.61 147.03,-143.51"/>
</a>
</g>
</g>
<!-- Node3 -->
<g id="Node000003" class="node">
<title>Node3</title>
<g id="a_Node000003"><a xlink:href="tmc2209__shared_8h.html" target="_top" xlink:title=" ">
<polygon fill="white" stroke="#666666" points="461.62,-77.5 355.62,-77.5 355.62,-56.75 461.62,-56.75 461.62,-77.5"/>
<text xml:space="preserve" text-anchor="middle" x="408.62" y="-64" font-family="Helvetica,sans-Serif" font-size="10.00">tmc2209_shared.h</text>
</a>
</g>
</g>
<!-- Node1&#45;&gt;Node3 -->
<g id="edge12_Node000001_Node000003" class="edge">
<title>Node1&#45;&gt;Node3</title>
<g id="a_edge12_Node000001_Node000003"><a xlink:title=" ">
<path fill="none" stroke="#63b8ff" d="M562.51,-241.9C520.54,-237.89 467.31,-225.58 434.62,-191 408.5,-163.37 405.9,-116.37 406.9,-89.2"/>
<polygon fill="#63b8ff" stroke="#63b8ff" points="410.38,-89.65 407.48,-79.46 403.39,-89.23 410.38,-89.65"/>
</a>
</g>
</g>
<!-- Node4 -->
<g id="Node000004" class="node">
<title>Node4</title>
<g id="a_Node000004"><a xlink:title=" ">
<polygon fill="#e0e0e0" stroke="#999999" points="105.25,-20.75 0,-20.75 0,0 105.25,0 105.25,-20.75"/>
<text xml:space="preserve" text-anchor="middle" x="52.62" y="-7.25" font-family="Helvetica,sans-Serif" font-size="10.00">fsl_uart_freertos.h</text>
</a>
</g>
</g>
<!-- Node1&#45;&gt;Node4 -->
<g id="edge28_Node000001_Node000004" class="edge">
<title>Node1&#45;&gt;Node4</title>
<g id="a_edge28_Node000001_Node000004"><a xlink:title=" ">
<path fill="none" stroke="#63b8ff" d="M562.44,-239.16C452.39,-232.33 230.24,-215.93 156.62,-191 110.4,-175.35 88.32,-175.74 62.62,-134.25 43.26,-102.97 45.39,-58.31 48.88,-32.33"/>
<polygon fill="#63b8ff" stroke="#63b8ff" points="52.3,-33.13 50.38,-22.71 45.38,-32.05 52.3,-33.13"/>
</a>
</g>
</g>
<!-- Node8 -->
<g id="Node000008" class="node">
<title>Node8</title>
<g id="a_Node000008"><a xlink:title=" ">
<polygon fill="#e0e0e0" stroke="#999999" points="651.38,-20.75 579.88,-20.75 579.88,0 651.38,0 651.38,-20.75"/>
<text xml:space="preserve" text-anchor="middle" x="615.62" y="-7.25" font-family="Helvetica,sans-Serif" font-size="10.00">FreeRTOS.h</text>
</a>
</g>
</g>
<!-- Node1&#45;&gt;Node8 -->
<g id="edge30_Node000001_Node000008" class="edge">
<title>Node1&#45;&gt;Node8</title>
<g id="a_edge30_Node000001_Node000008"><a xlink:title=" ">
<path fill="none" stroke="#63b8ff" d="M635.73,-226.67C641.33,-216.79 647.73,-203.64 650.62,-191 657.38,-161.47 685.18,-161.95 649.62,-56.75 646.26,-46.81 639.8,-37.27 633.41,-29.53"/>
<polygon fill="#63b8ff" stroke="#63b8ff" points="636.13,-27.33 626.86,-22.2 630.91,-31.99 636.13,-27.33"/>
</a>
</g>
</g>
<!-- Node12 -->
<g id="Node000012" class="node">
<title>Node12</title>
<g id="a_Node000012"><a xlink:href="tmc2209__internal_8h.html" target="_top" xlink:title=" ">
<polygon fill="white" stroke="#666666" points="385.88,-134.25 275.38,-134.25 275.38,-113.5 385.88,-113.5 385.88,-134.25"/>
<text xml:space="preserve" text-anchor="middle" x="330.62" y="-120.75" font-family="Helvetica,sans-Serif" font-size="10.00">tmc2209_internal.h</text>
</a>
</g>
</g>
<!-- Node1&#45;&gt;Node12 -->
<g id="edge13_Node000001_Node000012" class="edge">
<title>Node1&#45;&gt;Node12</title>
<g id="a_edge13_Node000001_Node000012"><a xlink:title=" ">
<path fill="none" stroke="#63b8ff" d="M562.5,-237.44C515.32,-231.36 450.46,-218.42 399.62,-191 377.61,-179.13 357.6,-158.32 344.87,-143.2"/>
<polygon fill="#63b8ff" stroke="#63b8ff" points="347.9,-141.39 338.88,-135.84 342.47,-145.81 347.9,-141.39"/>
</a>
</g>
</g>
<!-- Node13 -->
<g id="Node000013" class="node">
<title>Node13</title>
<g id="a_Node000013"><a xlink:href="tmc2209__uart_8h.html" target="_top" xlink:title=" ">
<polygon fill="white" stroke="#666666" points="535.88,-191 443.38,-191 443.38,-170.25 535.88,-170.25 535.88,-191"/>
<text xml:space="preserve" text-anchor="middle" x="489.62" y="-177.5" font-family="Helvetica,sans-Serif" font-size="10.00">tmc2209_uart.h</text>
</a>
</g>
</g>
<!-- Node1&#45;&gt;Node13 -->
<g id="edge16_Node000001_Node000013" class="edge">
<title>Node1&#45;&gt;Node13</title>
<g id="a_edge16_Node000001_Node000013"><a xlink:title=" ">
<path fill="none" stroke="#63b8ff" d="M589.54,-226.53C568.46,-217.06 542.09,-205.2 521.73,-196.06"/>
<polygon fill="#63b8ff" stroke="#63b8ff" points="523.34,-192.94 512.79,-192.04 520.47,-199.33 523.34,-192.94"/>
</a>
</g>
</g>
<!-- Node14 -->
<g id="Node000014" class="node">
<title>Node14</title>
<g id="a_Node000014"><a xlink:href="tmc2209__setup_8h.html" target="_top" xlink:title=" ">
<polygon fill="white" stroke="#666666" points="617.62,-134.25 517.62,-134.25 517.62,-113.5 617.62,-113.5 617.62,-134.25"/>
<text xml:space="preserve" text-anchor="middle" x="567.62" y="-120.75" font-family="Helvetica,sans-Serif" font-size="10.00">tmc2209_setup.h</text>
</a>
</g>
</g>
<!-- Node1&#45;&gt;Node14 -->
<g id="edge21_Node000001_Node000014" class="edge">
<title>Node1&#45;&gt;Node14</title>
<g id="a_edge21_Node000001_Node000014"><a xlink:title=" ">
<path fill="none" stroke="#63b8ff" d="M617.8,-226.85C607.33,-205.58 588.77,-167.84 577.39,-144.72"/>
<polygon fill="#63b8ff" stroke="#63b8ff" points="580.67,-143.47 573.12,-136.04 574.39,-146.56 580.67,-143.47"/>
</a>
</g>
</g>
<!-- Node15 -->
<g id="Node000015" class="node">
<title>Node15</title>
<g id="a_Node000015"><a xlink:href="log_8h.html" target="_top" xlink:title=" ">
<polygon fill="white" stroke="#666666" points="587.62,-77.5 547.62,-77.5 547.62,-56.75 587.62,-56.75 587.62,-77.5"/>
<text xml:space="preserve" text-anchor="middle" x="567.62" y="-64" font-family="Helvetica,sans-Serif" font-size="10.00">log.h</text>
</a>
</g>
</g>
<!-- Node1&#45;&gt;Node15 -->
<g id="edge24_Node000001_Node000015" class="edge">
<title>Node1&#45;&gt;Node15</title>
<g id="a_edge24_Node000001_Node000015"><a xlink:title=" ">
<path fill="none" stroke="#63b8ff" d="M630.15,-226.62C636.37,-201.11 644.87,-150.54 626.62,-113.5 620.44,-100.95 608.94,-90.9 597.71,-83.48"/>
<polygon fill="#63b8ff" stroke="#63b8ff" points="599.73,-80.6 589.36,-78.42 596.1,-86.59 599.73,-80.6"/>
</a>
</g>
</g>
<!-- Node16 -->
<g id="Node000016" class="node">
<title>Node16</title>
<g id="a_Node000016"><a xlink:title=" ">
<polygon fill="#e0e0e0" stroke="#999999" points="761.12,-191 712.12,-191 712.12,-170.25 761.12,-170.25 761.12,-191"/>
<text xml:space="preserve" text-anchor="middle" x="736.62" y="-177.5" font-family="Helvetica,sans-Serif" font-size="10.00">stdio.h</text>
</a>
</g>
</g>
<!-- Node1&#45;&gt;Node16 -->
<g id="edge27_Node000001_Node000016" class="edge">
<title>Node1&#45;&gt;Node16</title>
<g id="a_edge27_Node000001_Node000016"><a xlink:title=" ">
<path fill="none" stroke="#63b8ff" d="M655.08,-226.53C671.73,-217.36 692.42,-205.97 708.8,-196.95"/>
<polygon fill="#63b8ff" stroke="#63b8ff" points="710.45,-200.03 717.52,-192.15 707.07,-193.9 710.45,-200.03"/>
</a>
</g>
</g>
<!-- Node17 -->
<g id="Node000017" class="node">
<title>Node17</title>
<g id="a_Node000017"><a xlink:title=" ">
<polygon fill="#e0e0e0" stroke="#999999" points="842.25,-191 779,-191 779,-170.25 842.25,-170.25 842.25,-191"/>
<text xml:space="preserve" text-anchor="middle" x="810.62" y="-177.5" font-family="Helvetica,sans-Serif" font-size="10.00">fsl_gpio.h</text>
</a>
</g>
</g>
<!-- Node1&#45;&gt;Node17 -->
<g id="edge29_Node000001_Node000017" class="edge">
<title>Node1&#45;&gt;Node17</title>
<g id="a_edge29_Node000001_Node000017"><a xlink:title=" ">
<path fill="none" stroke="#63b8ff" d="M674.72,-226.53C704.58,-216.66 742.25,-204.22 770.35,-194.93"/>
<polygon fill="#63b8ff" stroke="#63b8ff" points="771.16,-198.35 779.56,-191.89 768.96,-191.7 771.16,-198.35"/>
</a>
</g>
</g>
<!-- Node18 -->
<g id="Node000018" class="node">
<title>Node18</title>
<g id="a_Node000018"><a xlink:title=" ">
<polygon fill="#e0e0e0" stroke="#999999" points="915.12,-191 860.12,-191 860.12,-170.25 915.12,-170.25 915.12,-191"/>
<text xml:space="preserve" text-anchor="middle" x="887.62" y="-177.5" font-family="Helvetica,sans-Serif" font-size="10.00">queue.h</text>
</a>
</g>
</g>
<!-- Node1&#45;&gt;Node18 -->
<g id="edge31_Node000001_Node000018" class="edge">
<title>Node1&#45;&gt;Node18</title>
<g id="a_edge31_Node000001_Node000018"><a xlink:title=" ">
<path fill="none" stroke="#63b8ff" d="M688.58,-228.86C731.32,-219.31 789.4,-206.1 848.66,-191.68"/>
<polygon fill="#63b8ff" stroke="#63b8ff" points="849.38,-195.11 858.27,-189.33 847.72,-188.31 849.38,-195.11"/>
</a>
</g>
</g>
<!-- Node19 -->
<g id="Node000019" class="node">
<title>Node19</title>
<g id="a_Node000019"><a xlink:title=" ">
<polygon fill="#e0e0e0" stroke="#999999" points="994.5,-191 932.75,-191 932.75,-170.25 994.5,-170.25 994.5,-191"/>
<text xml:space="preserve" text-anchor="middle" x="963.62" y="-177.5" font-family="Helvetica,sans-Serif" font-size="10.00">fsl_port.h</text>
</a>
</g>
</g>
<!-- Node1&#45;&gt;Node19 -->
<g id="edge32_Node000001_Node000019" class="edge">
<title>Node1&#45;&gt;Node19</title>
<g id="a_edge32_Node000001_Node000019"><a xlink:title=" ">
<path fill="none" stroke="#63b8ff" d="M688.85,-233.02C746.97,-223.81 835.78,-209.03 921.35,-191.59"/>
<polygon fill="#63b8ff" stroke="#63b8ff" points="922.01,-195.02 931.1,-189.58 920.6,-188.17 922.01,-195.02"/>
</a>
</g>
</g>
<!-- Node20 -->
<g id="Node000020" class="node">
<title>Node20</title>
<g id="a_Node000020"><a xlink:href="tmc2209__process_8h.html" target="_top" xlink:title=" ">
<polygon fill="white" stroke="#666666" points="302.88,-191 192.38,-191 192.38,-170.25 302.88,-170.25 302.88,-191"/>
<text xml:space="preserve" text-anchor="middle" x="247.62" y="-177.5" font-family="Helvetica,sans-Serif" font-size="10.00">tmc2209_process.h</text>
</a>
</g>
</g>
<!-- Node1&#45;&gt;Node20 -->
<g id="edge33_Node000001_Node000020" class="edge">
<title>Node1&#45;&gt;Node20</title>
<g id="a_edge33_Node000001_Node000020"><a xlink:title=" ">
<path fill="none" stroke="#63b8ff" d="M562.78,-232.59C494.17,-221.49 384.75,-203.8 314.57,-192.45"/>
<polygon fill="#63b8ff" stroke="#63b8ff" points="315.15,-189 304.72,-190.86 314.03,-195.91 315.15,-189"/>
</a>
</g>
</g>
<!-- Node21 -->
<g id="Node000021" class="node">
<title>Node21</title>
<g id="a_Node000021"><a xlink:title=" ">
<polygon fill="#e0e0e0" stroke="#999999" points="1062.88,-191 1012.38,-191 1012.38,-170.25 1062.88,-170.25 1062.88,-191"/>
<text xml:space="preserve" text-anchor="middle" x="1037.62" y="-177.5" font-family="Helvetica,sans-Serif" font-size="10.00">math.h</text>
</a>
</g>
</g>
<!-- Node1&#45;&gt;Node21 -->
<g id="edge38_Node000001_Node000021" class="edge">
<title>Node1&#45;&gt;Node21</title>
<g id="a_edge38_Node000001_Node000021"><a xlink:title=" ">
<path fill="none" stroke="#63b8ff" d="M688.6,-236.72C761.62,-229.15 885.75,-214.5 1000.97,-191.33"/>
<polygon fill="#63b8ff" stroke="#63b8ff" points="1001.51,-194.79 1010.61,-189.36 1000.11,-187.93 1001.51,-194.79"/>
</a>
</g>
</g>
<!-- Node2&#45;&gt;Node3 -->
<g id="edge2_Node000002_Node000003" class="edge">
<title>Node2&#45;&gt;Node3</title>
<g id="a_edge2_Node000002_Node000003"><a xlink:title=" ">
<path fill="none" stroke="#63b8ff" d="M182.04,-113.4C228.18,-104.18 298.45,-90.14 348.5,-80.14"/>
<polygon fill="#63b8ff" stroke="#63b8ff" points="348.88,-83.63 358,-78.24 347.51,-76.77 348.88,-83.63"/>
</a>
</g>
</g>
<!-- Node5 -->
<g id="Node000005" class="node">
<title>Node5</title>
<g id="a_Node000005"><a xlink:title=" ">
<polygon fill="#e0e0e0" stroke="#999999" points="235.12,-20.75 150.12,-20.75 150.12,0 235.12,0 235.12,-20.75"/>
<text xml:space="preserve" text-anchor="middle" x="192.62" y="-7.25" font-family="Helvetica,sans-Serif" font-size="10.00">fsl_common.h</text>
</a>
</g>
</g>
<!-- Node2&#45;&gt;Node5 -->
<g id="edge4_Node000002_Node000005" class="edge">
<title>Node2&#45;&gt;Node5</title>
<g id="a_edge4_Node000002_Node000005"><a xlink:title=" ">
<path fill="none" stroke="#63b8ff" d="M146.35,-113.28C155.91,-104.83 169.02,-91.69 176.62,-77.5 184.23,-63.31 188.27,-45.49 190.39,-31.93"/>
<polygon fill="#63b8ff" stroke="#63b8ff" points="193.81,-32.76 191.64,-22.39 186.87,-31.85 193.81,-32.76"/>
</a>
</g>
</g>
<!-- Node6 -->
<g id="Node000006" class="node">
<title>Node6</title>
<g id="a_Node000006"><a xlink:href="cmd__handle_8h.html" target="_top" xlink:title=" ">
<polygon fill="white" stroke="#666666" points="337.75,-77.5 253.5,-77.5 253.5,-56.75 337.75,-56.75 337.75,-77.5"/>
<text xml:space="preserve" text-anchor="middle" x="295.62" y="-64" font-family="Helvetica,sans-Serif" font-size="10.00">cmd_handle.h</text>
</a>
</g>
</g>
<!-- Node2&#45;&gt;Node6 -->
<g id="edge5_Node000002_Node000006" class="edge">
<title>Node2&#45;&gt;Node6</title>
<g id="a_edge5_Node000002_Node000006"><a xlink:title=" ">
<path fill="none" stroke="#63b8ff" d="M163.41,-113.09C189.2,-104.32 227.27,-91.37 255.95,-81.62"/>
<polygon fill="#63b8ff" stroke="#63b8ff" points="257.05,-84.94 265.39,-78.41 254.79,-78.31 257.05,-84.94"/>
</a>
</g>
</g>
<!-- Node11 -->
<g id="Node000011" class="node">
<title>Node11</title>
<g id="a_Node000011"><a xlink:title=" ">
<polygon fill="#e0e0e0" stroke="#999999" points="167.5,-77.5 87.75,-77.5 87.75,-56.75 167.5,-56.75 167.5,-77.5"/>
<text xml:space="preserve" text-anchor="middle" x="127.62" y="-64" font-family="Helvetica,sans-Serif" font-size="10.00">peripherals.h</text>
</a>
</g>
</g>
<!-- Node2&#45;&gt;Node11 -->
<g id="edge11_Node000002_Node000011" class="edge">
<title>Node2&#45;&gt;Node11</title>
<g id="a_edge11_Node000002_Node000011"><a xlink:title=" ">
<path fill="none" stroke="#63b8ff" d="M133.37,-113.09C132.52,-106.39 131.35,-97.26 130.29,-88.98"/>
<polygon fill="#63b8ff" stroke="#63b8ff" points="133.8,-88.81 129.06,-79.33 126.85,-89.69 133.8,-88.81"/>
</a>
</g>
</g>
<!-- Node3&#45;&gt;Node4 -->
<g id="edge3_Node000003_Node000004" class="edge">
<title>Node3&#45;&gt;Node4</title>
<g id="a_edge3_Node000003_Node000004"><a xlink:title=" ">
<path fill="none" stroke="#63b8ff" d="M355.33,-57.93C291.57,-48.12 184.92,-31.72 116.72,-21.23"/>
<polygon fill="#63b8ff" stroke="#63b8ff" points="117.62,-17.83 107.2,-19.77 116.55,-24.75 117.62,-17.83"/>
</a>
</g>
</g>
<!-- Node6&#45;&gt;Node5 -->
<g id="edge9_Node000006_Node000005" class="edge">
<title>Node6&#45;&gt;Node5</title>
<g id="a_edge9_Node000006_Node000005"><a xlink:title=" ">
<path fill="none" stroke="#63b8ff" d="M277.21,-56.34C261.54,-48.01 238.78,-35.91 220.81,-26.36"/>
<polygon fill="#63b8ff" stroke="#63b8ff" points="222.69,-23.39 212.22,-21.79 219.4,-29.57 222.69,-23.39"/>
</a>
</g>
</g>
<!-- Node7 -->
<g id="Node000007" class="node">
<title>Node7</title>
<g id="a_Node000007"><a xlink:title=" ">
<polygon fill="#e0e0e0" stroke="#999999" points="499,-20.75 446.25,-20.75 446.25,0 499,0 499,-20.75"/>
<text xml:space="preserve" text-anchor="middle" x="472.62" y="-7.25" font-family="Helvetica,sans-Serif" font-size="10.00">stdint.h</text>
</a>
</g>
</g>
<!-- Node6&#45;&gt;Node7 -->
<g id="edge6_Node000006_Node000007" class="edge">
<title>Node6&#45;&gt;Node7</title>
<g id="a_edge6_Node000006_Node000007"><a xlink:title=" ">
<path fill="none" stroke="#63b8ff" d="M327.27,-56.34C357.51,-46.98 403.12,-32.88 435.16,-22.96"/>
<polygon fill="#63b8ff" stroke="#63b8ff" points="435.92,-26.39 444.43,-20.09 433.85,-19.71 435.92,-26.39"/>
</a>
</g>
</g>
<!-- Node6&#45;&gt;Node8 -->
<g id="edge7_Node000006_Node000008" class="edge">
<title>Node6&#45;&gt;Node8</title>
<g id="a_edge7_Node000006_Node000008"><a xlink:title=" ">
<path fill="none" stroke="#63b8ff" d="M338.19,-58.25C341.05,-57.74 343.88,-57.23 346.62,-56.75 424.19,-43.08 514.5,-28.02 568.26,-19.15"/>
<polygon fill="#63b8ff" stroke="#63b8ff" points="568.69,-22.62 577.99,-17.54 567.55,-15.72 568.69,-22.62"/>
</a>
</g>
</g>
<!-- Node9 -->
<g id="Node000009" class="node">
<title>Node9</title>
<g id="a_Node000009"><a xlink:title=" ">
<polygon fill="#e0e0e0" stroke="#999999" points="344.12,-20.75 253.12,-20.75 253.12,0 344.12,0 344.12,-20.75"/>
<text xml:space="preserve" text-anchor="middle" x="298.62" y="-7.25" font-family="Helvetica,sans-Serif" font-size="10.00">event_groups.h</text>
</a>
</g>
</g>
<!-- Node6&#45;&gt;Node9 -->
<g id="edge8_Node000006_Node000009" class="edge">
<title>Node6&#45;&gt;Node9</title>
<g id="a_edge8_Node000006_Node000009"><a xlink:title=" ">
<path fill="none" stroke="#63b8ff" d="M296.16,-56.34C296.52,-49.72 297.02,-40.72 297.47,-32.52"/>
<polygon fill="#63b8ff" stroke="#63b8ff" points="300.96,-32.77 298.01,-22.59 293.97,-32.38 300.96,-32.77"/>
</a>
</g>
</g>
<!-- Node10 -->
<g id="Node000010" class="node">
<title>Node10</title>
<g id="a_Node000010"><a xlink:title=" ">
<polygon fill="#e0e0e0" stroke="#999999" points="414.62,-20.75 362.62,-20.75 362.62,0 414.62,0 414.62,-20.75"/>
<text xml:space="preserve" text-anchor="middle" x="388.62" y="-7.25" font-family="Helvetica,sans-Serif" font-size="10.00">stdlib.h</text>
</a>
</g>
</g>
<!-- Node6&#45;&gt;Node10 -->
<g id="edge10_Node000006_Node000010" class="edge">
<title>Node6&#45;&gt;Node10</title>
<g id="a_edge10_Node000006_Node000010"><a xlink:title=" ">
<path fill="none" stroke="#63b8ff" d="M312.25,-56.34C326.14,-48.16 346.19,-36.36 362.26,-26.9"/>
<polygon fill="#63b8ff" stroke="#63b8ff" points="364,-29.94 370.84,-21.85 360.44,-23.9 364,-29.94"/>
</a>
</g>
</g>
<!-- Node12&#45;&gt;Node3 -->
<g id="edge14_Node000012_Node000003" class="edge">
<title>Node12&#45;&gt;Node3</title>
<g id="a_edge14_Node000012_Node000003"><a xlink:title=" ">
<path fill="none" stroke="#63b8ff" d="M344.57,-113.09C355.99,-105.07 372.39,-93.56 385.74,-84.19"/>
<polygon fill="#63b8ff" stroke="#63b8ff" points="387.39,-87.31 393.56,-78.7 383.37,-81.58 387.39,-87.31"/>
</a>
</g>
</g>
<!-- Node12&#45;&gt;Node6 -->
<g id="edge15_Node000012_Node000006" class="edge">
<title>Node12&#45;&gt;Node6</title>
<g id="a_edge15_Node000012_Node000006"><a xlink:title=" ">
<path fill="none" stroke="#63b8ff" d="M324.37,-113.09C319.79,-105.92 313.43,-95.98 307.86,-87.26"/>
<polygon fill="#63b8ff" stroke="#63b8ff" points="310.98,-85.64 302.64,-79.1 305.08,-89.41 310.98,-85.64"/>
</a>
</g>
</g>
<!-- Node13&#45;&gt;Node3 -->
<g id="edge17_Node000013_Node000003" class="edge">
<title>Node13&#45;&gt;Node3</title>
<g id="a_edge17_Node000013_Node000003"><a xlink:title=" ">
<path fill="none" stroke="#63b8ff" d="M482.72,-170.12C469.4,-151.78 439.92,-111.2 422.43,-87.12"/>
<polygon fill="#63b8ff" stroke="#63b8ff" points="425.34,-85.18 416.63,-79.15 419.68,-89.3 425.34,-85.18"/>
</a>
</g>
</g>
<!-- Node13&#45;&gt;Node7 -->
<g id="edge19_Node000013_Node000007" class="edge">
<title>Node13&#45;&gt;Node7</title>
<g id="a_edge19_Node000013_Node000007"><a xlink:title=" ">
<path fill="none" stroke="#63b8ff" d="M488.66,-170.1C486,-143.73 478.48,-69.33 474.76,-32.53"/>
<polygon fill="#63b8ff" stroke="#63b8ff" points="478.26,-32.32 473.77,-22.72 471.29,-33.02 478.26,-32.32"/>
</a>
</g>
</g>
<!-- Node13&#45;&gt;Node8 -->
<g id="edge20_Node000013_Node000008" class="edge">
<title>Node13&#45;&gt;Node8</title>
<g id="a_edge20_Node000013_Node000008"><a xlink:title=" ">
<path fill="none" stroke="#63b8ff" d="M536.2,-177.59C567.32,-173.51 606.16,-162.59 626.62,-134.25 648.48,-103.99 635.48,-57.97 624.95,-31.68"/>
<polygon fill="#63b8ff" stroke="#63b8ff" points="628.17,-30.32 621.02,-22.51 621.74,-33.08 628.17,-30.32"/>
</a>
</g>
</g>
<!-- Node13&#45;&gt;Node12 -->
<g id="edge18_Node000013_Node000012" class="edge">
<title>Node13&#45;&gt;Node12</title>
<g id="a_edge18_Node000013_Node000012"><a xlink:title=" ">
<path fill="none" stroke="#63b8ff" d="M461.2,-169.84C435.73,-161.07 398.13,-148.12 369.81,-138.37"/>
<polygon fill="#63b8ff" stroke="#63b8ff" points="371.1,-135.11 360.5,-135.16 368.82,-141.73 371.1,-135.11"/>
</a>
</g>
</g>
<!-- Node14&#45;&gt;Node3 -->
<g id="edge23_Node000014_Node000003" class="edge">
<title>Node14&#45;&gt;Node3</title>
<g id="a_edge23_Node000014_Node000003"><a xlink:title=" ">
<path fill="none" stroke="#63b8ff" d="M539.2,-113.09C513.73,-104.32 476.13,-91.37 447.81,-81.62"/>
<polygon fill="#63b8ff" stroke="#63b8ff" points="449.1,-78.36 438.5,-78.41 446.82,-84.98 449.1,-78.36"/>
</a>
</g>
</g>
<!-- Node14&#45;&gt;Node8 -->
<g id="edge22_Node000014_Node000008" class="edge">
<title>Node14&#45;&gt;Node8</title>
<g id="a_edge22_Node000014_Node000008"><a xlink:title=" ">
<path fill="none" stroke="#63b8ff" d="M574.95,-113.25C581.41,-104.38 590.7,-90.62 596.62,-77.5 603.25,-62.83 608.17,-45.28 611.33,-31.95"/>
<polygon fill="#63b8ff" stroke="#63b8ff" points="614.67,-33.1 613.42,-22.58 607.83,-31.58 614.67,-33.1"/>
</a>
</g>
</g>
<!-- Node15&#45;&gt;Node5 -->
<g id="edge26_Node000015_Node000005" class="edge">
<title>Node15&#45;&gt;Node5</title>
<g id="a_edge26_Node000015_Node000005"><a xlink:title=" ">
<path fill="none" stroke="#63b8ff" d="M547.18,-63.53C497.62,-57.19 366.93,-40.11 246.68,-21.03"/>
<polygon fill="#63b8ff" stroke="#63b8ff" points="247.37,-17.59 236.95,-19.47 246.27,-24.5 247.37,-17.59"/>
</a>
</g>
</g>
<!-- Node15&#45;&gt;Node8 -->
<g id="edge25_Node000015_Node000008" class="edge">
<title>Node15&#45;&gt;Node8</title>
<g id="a_edge25_Node000015_Node000008"><a xlink:title=" ">
<path fill="none" stroke="#63b8ff" d="M576.21,-56.34C582.69,-48.94 591.78,-38.57 599.6,-29.66"/>
<polygon fill="#63b8ff" stroke="#63b8ff" points="602.16,-32.04 606.12,-22.22 596.9,-27.43 602.16,-32.04"/>
</a>
</g>
</g>
<!-- Node20&#45;&gt;Node3 -->
<g id="edge34_Node000020_Node000003" class="edge">
<title>Node20&#45;&gt;Node3</title>
<g id="a_edge34_Node000020_Node000003"><a xlink:title=" ">
<path fill="none" stroke="#63b8ff" d="M247.67,-170.15C248.27,-155.94 251.48,-129.1 266.62,-113.5 278.79,-100.98 317.56,-89.05 351.52,-80.57"/>
<polygon fill="#63b8ff" stroke="#63b8ff" points="351.98,-84.06 360.87,-78.3 350.33,-77.26 351.98,-84.06"/>
</a>
</g>
</g>
<!-- Node20&#45;&gt;Node5 -->
<g id="edge36_Node000020_Node000005" class="edge">
<title>Node20&#45;&gt;Node5</title>
<g id="a_edge36_Node000020_Node000005"><a xlink:title=" ">
<path fill="none" stroke="#63b8ff" d="M192.26,-172.1C148.5,-164.88 92.54,-152.39 78.62,-134.25 57.66,-106.92 59.29,-85.26 78.62,-56.75 92.24,-36.68 116.3,-25.48 138.81,-19.24"/>
<polygon fill="#63b8ff" stroke="#63b8ff" points="139.35,-22.71 148.22,-16.92 137.67,-15.92 139.35,-22.71"/>
</a>
</g>
</g>
<!-- Node20&#45;&gt;Node6 -->
<g id="edge35_Node000020_Node000006" class="edge">
<title>Node20&#45;&gt;Node6</title>
<g id="a_edge35_Node000020_Node000006"><a xlink:title=" ">
<path fill="none" stroke="#63b8ff" d="M241.89,-170.14C234.63,-156.82 224.17,-132.13 233.62,-113.5 240.02,-100.9 251.74,-90.95 263.29,-83.63"/>
<polygon fill="#63b8ff" stroke="#63b8ff" points="265.04,-86.66 271.94,-78.62 261.53,-80.6 265.04,-86.66"/>
</a>
</g>
</g>
<!-- Node20&#45;&gt;Node12 -->
<g id="edge37_Node000020_Node000012" class="edge">
<title>Node20&#45;&gt;Node12</title>
<g id="a_edge37_Node000020_Node000012"><a xlink:title=" ">
<path fill="none" stroke="#63b8ff" d="M262.46,-169.84C274.74,-161.74 292.41,-150.08 306.68,-140.67"/>
<polygon fill="#63b8ff" stroke="#63b8ff" points="308.23,-143.84 314.65,-135.41 304.38,-138 308.23,-143.84"/>
</a>
</g>
</g>
</g>
</svg>

<g id="navigator" transform="translate(0 0)" fill="#404254">
  <rect fill="#f2f5e9" fill-opacity="0.5" stroke="#606060" stroke-width=".5" x="0" y="0" width="60" height="60"/>
  <use id="zoomplus" xlink:href="#zoomPlus" x="17" y="9" onmousedown="handleZoom(evt,'in')"/>
  <use id="zoomminus" xlink:href="#zoomMin" x="42" y="9" onmousedown="handleZoom(evt,'out')"/>
  <use id="reset" xlink:href="#resetDef" x="30" y="36" onmousedown="handleReset()"/>
   <use id="arrowup" xlink:href="#arrowUp" x="0" y="0" onmousedown="handlePan(0,-1)"/>
  <use id="arrowright" xlink:href="#arrowRight" x="0" y="0" onmousedown="handlePan(1,0)"/>
  <use id="arrowdown" xlink:href="#arrowDown" x="0" y="0" onmousedown="handlePan(0,1)"/>
  <use id="arrowleft" xlink:href="#arrowLeft" x="0" y="0" onmousedown="handlePan(-1,0)"/>
</g>
<svg viewBox="0 0 15 15" width="100%" height="30px" preserveAspectRatio="xMaxYMin meet">
 <g id="arrow_out" transform="scale(0.3 0.3)">
  <a xlink:href="tmc2209__core_8c__incl_org.svg" target="_base">
   <rect id="button" ry="5" rx="5" y="6" x="6" height="38" width="38"
        fill="#f2f5e9" fill-opacity="0.5" stroke="#606060" stroke-width="1.0"/>
   <path id="arrow"
     d="M 11.500037,31.436501 C 11.940474,20.09759 22.043105,11.32322 32.158766,21.979434 L 37.068811,17.246167 C 37.068811,17.246167 37.088388,32 37.088388,32 L 22.160133,31.978069 C 22.160133,31.978069 26.997745,27.140456 26.997745,27.140456 C 18.528582,18.264221 13.291696,25.230495 11.500037,31.436501 z"
     style="fill:#404040;"/>
  </a>
 </g>
</svg>

<style type='text/css'>
<![CDATA[
[data-mouse-over-selected='false'] { opacity: 0.7; }
[data-mouse-over-selected='true']  { opacity: 1.0; }
]]>
</style>
<script type="application/ecmascript"><![CDATA[
document.addEventListener('DOMContentLoaded', (event) => {
  highlightEdges();
  highlightAdjacentNodes();
});
]]></script>
</svg>
