<?xml version="1.0" encoding="UTF-8" standalone="no"?>
<!DOCTYPE svg PUBLIC "-//W3C//DTD SVG 1.1//EN"
 "http://www.w3.org/Graphics/SVG/1.1/DTD/svg11.dtd">
<!-- Generated by graphviz version 14.1.4 (0)
 -->
<!-- Title: source/driver/tmc2209/tmc2209_uart.c Pages: 1 -->
<svg width="645pt" height="269pt"
 viewBox="0.00 0.00 645.00 269.00" xmlns="http://www.w3.org/2000/svg" xmlns:xlink="http://www.w3.org/1999/xlink">
<g id="graph0" class="graph" transform="scale(1 1) rotate(0) translate(4 264.5)">
<title>source/driver/tmc2209/tmc2209_uart.c</title>
<!-- Node1 -->
<g id="Node000001" class="node">
<title>Node1</title>
<g id="a_Node000001"><a xlink:title=" ">
<polygon fill="#999999" stroke="#666666" points="444.38,-260.5 318.88,-260.5 318.88,-227 444.38,-227 444.38,-260.5"/>
<text xml:space="preserve" text-anchor="start" x="326.88" y="-247" font-family="Helvetica,sans-Serif" font-size="10.00">source/driver/tmc2209</text>
<text xml:space="preserve" text-anchor="middle" x="381.62" y="-234.25" font-family="Helvetica,sans-Serif" font-size="10.00">/tmc2209_uart.c</text>
</a>
</g>
</g>
<!-- Node2 -->
<g id="Node000002" class="node">
<title>Node2</title>
<g id="a_Node000002"><a xlink:href="tmc2209__uart_8h.html" target="_top" xlink:title=" ">
<polygon fill="white" stroke="#666666" points="381.88,-191 289.38,-191 289.38,-170.25 381.88,-170.25 381.88,-191"/>
<text xml:space="preserve" text-anchor="middle" x="335.62" y="-177.5" font-family="Helvetica,sans-Serif" font-size="10.00">tmc2209_uart.h</text>
</a>
</g>
</g>
<!-- Node1&#45;&gt;Node2 -->
<g id="edge1_Node000001_Node000002" class="edge">
<title>Node1&#45;&gt;Node2</title>
<g id="a_edge1_Node000001_Node000002"><a xlink:title=" ">
<path fill="none" stroke="#63b8ff" d="M369.54,-226.69C363.49,-218.66 356.14,-208.88 349.82,-200.49"/>
<polygon fill="#63b8ff" stroke="#63b8ff" points="352.75,-198.56 343.94,-192.68 347.16,-202.77 352.75,-198.56"/>
</a>
</g>
</g>
<!-- Node3 -->
<g id="Node000003" class="node">
<title>Node3</title>
<g id="a_Node000003"><a xlink:href="tmc2209__shared_8h.html" target="_top" xlink:title=" ">
<polygon fill="white" stroke="#666666" points="214.62,-77.5 108.62,-77.5 108.62,-56.75 214.62,-56.75 214.62,-77.5"/>
<text xml:space="preserve" text-anchor="middle" x="161.62" y="-64" font-family="Helvetica,sans-Serif" font-size="10.00">tmc2209_shared.h</text>
</a>
</g>
</g>
<!-- Node1&#45;&gt;Node3 -->
<g id="edge14_Node000001_Node000003" class="edge">
<title>Node1&#45;&gt;Node3</title>
<g id="a_edge14_Node000001_Node000003"><a xlink:title=" ">
<path fill="none" stroke="#63b8ff" d="M318.51,-228.7C268.96,-214.06 202.97,-185.81 169.62,-134.25 161.07,-121.02 159.35,-103.13 159.62,-89.3"/>
<polygon fill="#63b8ff" stroke="#63b8ff" points="163.11,-89.69 160.2,-79.5 156.12,-89.27 163.11,-89.69"/>
</a>
</g>
</g>
<!-- Node4 -->
<g id="Node000004" class="node">
<title>Node4</title>
<g id="a_Node000004"><a xlink:title=" ">
<polygon fill="#e0e0e0" stroke="#999999" points="105.25,-20.75 0,-20.75 0,0 105.25,0 105.25,-20.75"/>
<text xml:space="preserve" text-anchor="middle" x="52.62" y="-7.25" font-family="Helvetica,sans-Serif" font-size="10.00">fsl_uart_freertos.h</text>
</a>
</g>
</g>
<!-- Node1&#45;&gt;Node4 -->
<g id="edge21_Node000001_Node000004" class="edge">
<title>Node1&#45;&gt;Node4</title>
<g id="a_edge21_Node000001_Node000004"><a xlink:title=" ">
<path fill="none" stroke="#63b8ff" d="M318.77,-237.75C273.12,-231.84 211.25,-218.97 163.62,-191 102.59,-155.15 70.47,-71.18 58.38,-32.08"/>
<polygon fill="#63b8ff" stroke="#63b8ff" points="61.75,-31.14 55.57,-22.54 55.04,-33.12 61.75,-31.14"/>
</a>
</g>
</g>
<!-- Node5 -->
<g id="Node000005" class="node">
<title>Node5</title>
<g id="a_Node000005"><a xlink:href="tmc2209__internal_8h.html" target="_top" xlink:title=" ">
<polygon fill="white" stroke="#666666" points="307.88,-134.25 197.38,-134.25 197.38,-113.5 307.88,-113.5 307.88,-134.25"/>
<text xml:space="preserve" text-anchor="middle" x="252.62" y="-120.75" font-family="Helvetica,sans-Serif" font-size="10.00">tmc2209_internal.h</text>
</a>
</g>
</g>
<!-- Node1&#45;&gt;Node5 -->
<g id="edge15_Node000001_Node000005" class="edge">
<title>Node1&#45;&gt;Node5</title>
<g id="a_edge15_Node000001_Node000005"><a xlink:title=" ">
<path fill="none" stroke="#63b8ff" d="M334.17,-226.6C315.54,-218.34 295.18,-206.66 280.62,-191 268.81,-178.29 261.56,-159.85 257.41,-145.67"/>
<polygon fill="#63b8ff" stroke="#63b8ff" points="260.81,-144.82 254.9,-136.02 254.03,-146.58 260.81,-144.82"/>
</a>
</g>
</g>
<!-- Node7 -->
<g id="Node000007" class="node">
<title>Node7</title>
<g id="a_Node000007"><a xlink:title=" ">
<polygon fill="#e0e0e0" stroke="#999999" points="181,-20.75 128.25,-20.75 128.25,0 181,0 181,-20.75"/>
<text xml:space="preserve" text-anchor="middle" x="154.62" y="-7.25" font-family="Helvetica,sans-Serif" font-size="10.00">stdint.h</text>
</a>
</g>
</g>
<!-- Node1&#45;&gt;Node7 -->
<g id="edge16_Node000001_Node000007" class="edge">
<title>Node1&#45;&gt;Node7</title>
<g id="a_edge16_Node000001_Node000007"><a xlink:title=" ">
<path fill="none" stroke="#63b8ff" d="M318.62,-234.17C281.51,-226.95 234.89,-213.97 198.62,-191 142.07,-155.19 123.12,-140.18 99.62,-77.5 96.39,-68.86 95.69,-65.09 99.62,-56.75 105.28,-44.75 115.84,-34.84 126.21,-27.38"/>
<polygon fill="#63b8ff" stroke="#63b8ff" points="127.85,-30.49 134.27,-22.06 124,-24.65 127.85,-30.49"/>
</a>
</g>
</g>
<!-- Node8 -->
<g id="Node000008" class="node">
<title>Node8</title>
<g id="a_Node000008"><a xlink:title=" ">
<polygon fill="#e0e0e0" stroke="#999999" points="450.38,-20.75 378.88,-20.75 378.88,0 450.38,0 450.38,-20.75"/>
<text xml:space="preserve" text-anchor="middle" x="414.62" y="-7.25" font-family="Helvetica,sans-Serif" font-size="10.00">FreeRTOS.h</text>
</a>
</g>
</g>
<!-- Node1&#45;&gt;Node8 -->
<g id="edge18_Node000001_Node000008" class="edge">
<title>Node1&#45;&gt;Node8</title>
<g id="a_edge18_Node000001_Node000008"><a xlink:title=" ">
<path fill="none" stroke="#63b8ff" d="M384.54,-226.92C386.39,-216.69 388.77,-203.08 390.62,-191 399.44,-133.65 408.01,-65.7 412.11,-32.19"/>
<polygon fill="#63b8ff" stroke="#63b8ff" points="415.54,-32.98 413.28,-22.63 408.59,-32.14 415.54,-32.98"/>
</a>
</g>
</g>
<!-- Node10 -->
<g id="Node000010" class="node">
<title>Node10</title>
<g id="a_Node000010"><a xlink:title=" ">
<polygon fill="#e0e0e0" stroke="#999999" points="553.12,-20.75 468.12,-20.75 468.12,0 553.12,0 553.12,-20.75"/>
<text xml:space="preserve" text-anchor="middle" x="510.62" y="-7.25" font-family="Helvetica,sans-Serif" font-size="10.00">fsl_common.h</text>
</a>
</g>
</g>
<!-- Node1&#45;&gt;Node10 -->
<g id="edge19_Node000001_Node000010" class="edge">
<title>Node1&#45;&gt;Node10</title>
<g id="a_edge19_Node000001_Node000010"><a xlink:title=" ">
<path fill="none" stroke="#63b8ff" d="M444.6,-238.15C508.9,-232 602.37,-218.49 624.62,-191 669.87,-135.1 580.34,-60.32 534.88,-27.72"/>
<polygon fill="#63b8ff" stroke="#63b8ff" points="537.09,-24.99 526.89,-22.12 533.07,-30.73 537.09,-24.99"/>
</a>
</g>
</g>
<!-- Node12 -->
<g id="Node000012" class="node">
<title>Node12</title>
<g id="a_Node000012"><a xlink:title=" ">
<polygon fill="#e0e0e0" stroke="#999999" points="536.12,-191 487.12,-191 487.12,-170.25 536.12,-170.25 536.12,-191"/>
<text xml:space="preserve" text-anchor="middle" x="511.62" y="-177.5" font-family="Helvetica,sans-Serif" font-size="10.00">stdio.h</text>
</a>
</g>
</g>
<!-- Node1&#45;&gt;Node12 -->
<g id="edge17_Node000001_Node000012" class="edge">
<title>Node1&#45;&gt;Node12</title>
<g id="a_edge17_Node000001_Node000012"><a xlink:title=" ">
<path fill="none" stroke="#63b8ff" d="M416.12,-226.53C436.08,-217.14 461.01,-205.42 480.39,-196.31"/>
<polygon fill="#63b8ff" stroke="#63b8ff" points="481.87,-199.48 489.43,-192.06 478.9,-193.15 481.87,-199.48"/>
</a>
</g>
</g>
<!-- Node13 -->
<g id="Node000013" class="node">
<title>Node13</title>
<g id="a_Node000013"><a xlink:title=" ">
<polygon fill="#e0e0e0" stroke="#999999" points="615.5,-191 553.75,-191 553.75,-170.25 615.5,-170.25 615.5,-191"/>
<text xml:space="preserve" text-anchor="middle" x="584.62" y="-177.5" font-family="Helvetica,sans-Serif" font-size="10.00">fsl_port.h</text>
</a>
</g>
</g>
<!-- Node1&#45;&gt;Node13 -->
<g id="edge20_Node000001_Node000013" class="edge">
<title>Node1&#45;&gt;Node13</title>
<g id="a_edge20_Node000001_Node000013"><a xlink:title=" ">
<path fill="none" stroke="#63b8ff" d="M435.49,-226.53C468.97,-216.45 511.38,-203.68 542.42,-194.33"/>
<polygon fill="#63b8ff" stroke="#63b8ff" points="543.28,-197.73 551.85,-191.49 541.26,-191.03 543.28,-197.73"/>
</a>
</g>
</g>
<!-- Node14 -->
<g id="Node000014" class="node">
<title>Node14</title>
<g id="a_Node000014"><a xlink:href="log_8h.html" target="_top" xlink:title=" ">
<polygon fill="white" stroke="#666666" points="488.62,-77.5 448.62,-77.5 448.62,-56.75 488.62,-56.75 488.62,-77.5"/>
<text xml:space="preserve" text-anchor="middle" x="468.62" y="-64" font-family="Helvetica,sans-Serif" font-size="10.00">log.h</text>
</a>
</g>
</g>
<!-- Node1&#45;&gt;Node14 -->
<g id="edge22_Node000001_Node000014" class="edge">
<title>Node1&#45;&gt;Node14</title>
<g id="a_edge22_Node000001_Node000014"><a xlink:title=" ">
<path fill="none" stroke="#63b8ff" d="M402.9,-226.61C413.83,-217.3 426.51,-204.73 434.62,-191 453.89,-158.4 462.59,-114.49 466.24,-88.95"/>
<polygon fill="#63b8ff" stroke="#63b8ff" points="469.69,-89.59 467.5,-79.22 462.75,-88.69 469.69,-89.59"/>
</a>
</g>
</g>
<!-- Node2&#45;&gt;Node3 -->
<g id="edge2_Node000002_Node000003" class="edge">
<title>Node2&#45;&gt;Node3</title>
<g id="a_edge2_Node000002_Node000003"><a xlink:title=" ">
<path fill="none" stroke="#63b8ff" d="M289.08,-175.62C257.29,-170.62 216.11,-159.41 188.62,-134.25 175.62,-122.34 168.73,-103.27 165.18,-88.65"/>
<polygon fill="#63b8ff" stroke="#63b8ff" points="168.67,-88.26 163.22,-79.17 161.81,-89.67 168.67,-88.26"/>
</a>
</g>
</g>
<!-- Node2&#45;&gt;Node5 -->
<g id="edge4_Node000002_Node000005" class="edge">
<title>Node2&#45;&gt;Node5</title>
<g id="a_edge4_Node000002_Node000005"><a xlink:title=" ">
<path fill="none" stroke="#63b8ff" d="M320.79,-169.84C308.51,-161.74 290.84,-150.08 276.57,-140.67"/>
<polygon fill="#63b8ff" stroke="#63b8ff" points="278.87,-138 268.6,-135.41 275.02,-143.84 278.87,-138"/>
</a>
</g>
</g>
<!-- Node2&#45;&gt;Node7 -->
<g id="edge12_Node000002_Node000007" class="edge">
<title>Node2&#45;&gt;Node7</title>
<g id="a_edge12_Node000002_Node000007"><a xlink:title=" ">
<path fill="none" stroke="#63b8ff" d="M335.01,-170.15C333.68,-156.4 329.53,-130.69 316.62,-113.5 314.24,-110.32 225.13,-54.97 180.11,-27.12"/>
<polygon fill="#63b8ff" stroke="#63b8ff" points="182.09,-24.23 171.74,-21.94 178.41,-30.18 182.09,-24.23"/>
</a>
</g>
</g>
<!-- Node2&#45;&gt;Node8 -->
<g id="edge13_Node000002_Node000008" class="edge">
<title>Node2&#45;&gt;Node8</title>
<g id="a_edge13_Node000002_Node000008"><a xlink:title=" ">
<path fill="none" stroke="#63b8ff" d="M340.1,-170.1C352.59,-143.5 388.03,-68.02 405.14,-31.57"/>
<polygon fill="#63b8ff" stroke="#63b8ff" points="408.28,-33.13 409.36,-22.59 401.94,-30.15 408.28,-33.13"/>
</a>
</g>
</g>
<!-- Node3&#45;&gt;Node4 -->
<g id="edge3_Node000003_Node000004" class="edge">
<title>Node3&#45;&gt;Node4</title>
<g id="a_edge3_Node000003_Node000004"><a xlink:title=" ">
<path fill="none" stroke="#63b8ff" d="M142.14,-56.34C125.48,-47.97 101.24,-35.79 82.19,-26.22"/>
<polygon fill="#63b8ff" stroke="#63b8ff" points="83.8,-23.12 73.3,-21.76 80.66,-29.37 83.8,-23.12"/>
</a>
</g>
</g>
<!-- Node5&#45;&gt;Node3 -->
<g id="edge5_Node000005_Node000003" class="edge">
<title>Node5&#45;&gt;Node3</title>
<g id="a_edge5_Node000005_Node000003"><a xlink:title=" ">
<path fill="none" stroke="#63b8ff" d="M236.36,-113.09C222.77,-104.91 203.15,-93.11 187.42,-83.65"/>
<polygon fill="#63b8ff" stroke="#63b8ff" points="189.42,-80.77 179.05,-78.61 185.81,-86.76 189.42,-80.77"/>
</a>
</g>
</g>
<!-- Node6 -->
<g id="Node000006" class="node">
<title>Node6</title>
<g id="a_Node000006"><a xlink:href="cmd__handle_8h.html" target="_top" xlink:title=" ">
<polygon fill="white" stroke="#666666" points="354.75,-77.5 270.5,-77.5 270.5,-56.75 354.75,-56.75 354.75,-77.5"/>
<text xml:space="preserve" text-anchor="middle" x="312.62" y="-64" font-family="Helvetica,sans-Serif" font-size="10.00">cmd_handle.h</text>
</a>
</g>
</g>
<!-- Node5&#45;&gt;Node6 -->
<g id="edge6_Node000005_Node000006" class="edge">
<title>Node5&#45;&gt;Node6</title>
<g id="a_edge6_Node000005_Node000006"><a xlink:title=" ">
<path fill="none" stroke="#63b8ff" d="M263.35,-113.09C271.71,-105.46 283.54,-94.67 293.51,-85.57"/>
<polygon fill="#63b8ff" stroke="#63b8ff" points="295.85,-88.17 300.87,-78.85 291.13,-83 295.85,-88.17"/>
</a>
</g>
</g>
<!-- Node6&#45;&gt;Node7 -->
<g id="edge7_Node000006_Node000007" class="edge">
<title>Node6&#45;&gt;Node7</title>
<g id="a_edge7_Node000006_Node000007"><a xlink:title=" ">
<path fill="none" stroke="#63b8ff" d="M284.38,-56.34C258.6,-47.4 220.31,-34.14 192,-24.33"/>
<polygon fill="#63b8ff" stroke="#63b8ff" points="193.34,-21.09 182.74,-21.12 191.04,-27.7 193.34,-21.09"/>
</a>
</g>
</g>
<!-- Node6&#45;&gt;Node8 -->
<g id="edge8_Node000006_Node000008" class="edge">
<title>Node6&#45;&gt;Node8</title>
<g id="a_edge8_Node000006_Node000008"><a xlink:title=" ">
<path fill="none" stroke="#63b8ff" d="M330.86,-56.34C346.31,-48.05 368.71,-36.02 386.46,-26.49"/>
<polygon fill="#63b8ff" stroke="#63b8ff" points="388.06,-29.61 395.21,-21.79 384.75,-23.44 388.06,-29.61"/>
</a>
</g>
</g>
<!-- Node9 -->
<g id="Node000009" class="node">
<title>Node9</title>
<g id="a_Node000009"><a xlink:title=" ">
<polygon fill="#e0e0e0" stroke="#999999" points="290.12,-20.75 199.12,-20.75 199.12,0 290.12,0 290.12,-20.75"/>
<text xml:space="preserve" text-anchor="middle" x="244.62" y="-7.25" font-family="Helvetica,sans-Serif" font-size="10.00">event_groups.h</text>
</a>
</g>
</g>
<!-- Node6&#45;&gt;Node9 -->
<g id="edge9_Node000006_Node000009" class="edge">
<title>Node6&#45;&gt;Node9</title>
<g id="a_edge9_Node000006_Node000009"><a xlink:title=" ">
<path fill="none" stroke="#63b8ff" d="M300.47,-56.34C290.8,-48.55 277.04,-37.47 265.6,-28.26"/>
<polygon fill="#63b8ff" stroke="#63b8ff" points="267.84,-25.57 257.86,-22.03 263.45,-31.03 267.84,-25.57"/>
</a>
</g>
</g>
<!-- Node6&#45;&gt;Node10 -->
<g id="edge10_Node000006_Node000010" class="edge">
<title>Node6&#45;&gt;Node10</title>
<g id="a_edge10_Node000006_Node000010"><a xlink:title=" ">
<path fill="none" stroke="#63b8ff" d="M348.02,-56.34C380.44,-47.37 428.64,-34.04 464.15,-24.23"/>
<polygon fill="#63b8ff" stroke="#63b8ff" points="465.04,-27.61 473.74,-21.57 463.17,-20.87 465.04,-27.61"/>
</a>
</g>
</g>
<!-- Node11 -->
<g id="Node000011" class="node">
<title>Node11</title>
<g id="a_Node000011"><a xlink:title=" ">
<polygon fill="#e0e0e0" stroke="#999999" points="360.62,-20.75 308.62,-20.75 308.62,0 360.62,0 360.62,-20.75"/>
<text xml:space="preserve" text-anchor="middle" x="334.62" y="-7.25" font-family="Helvetica,sans-Serif" font-size="10.00">stdlib.h</text>
</a>
</g>
</g>
<!-- Node6&#45;&gt;Node11 -->
<g id="edge11_Node000006_Node000011" class="edge">
<title>Node6&#45;&gt;Node11</title>
<g id="a_edge11_Node000006_Node000011"><a xlink:title=" ">
<path fill="none" stroke="#63b8ff" d="M316.56,-56.34C319.31,-49.49 323.09,-40.09 326.48,-31.65"/>
<polygon fill="#63b8ff" stroke="#63b8ff" points="329.68,-33.07 330.16,-22.48 323.19,-30.46 329.68,-33.07"/>
</a>
</g>
</g>
<!-- Node14&#45;&gt;Node8 -->
<g id="edge23_Node000014_Node000008" class="edge">
<title>Node14&#45;&gt;Node8</title>
<g id="a_edge23_Node000014_Node000008"><a xlink:title=" ">
<path fill="none" stroke="#63b8ff" d="M458.97,-56.34C451.52,-48.78 441.02,-38.14 432.1,-29.1"/>
<polygon fill="#63b8ff" stroke="#63b8ff" points="434.77,-26.82 425.26,-22.16 429.79,-31.73 434.77,-26.82"/>
</a>
</g>
</g>
<!-- Node14&#45;&gt;Node10 -->
<g id="edge24_Node000014_Node000010" class="edge">
<title>Node14&#45;&gt;Node10</title>
<g id="a_edge24_Node000014_Node000010"><a xlink:title=" ">
<path fill="none" stroke="#63b8ff" d="M476.13,-56.34C481.75,-49.02 489.59,-38.79 496.38,-29.94"/>
<polygon fill="#63b8ff" stroke="#63b8ff" points="498.95,-32.34 502.26,-22.28 493.4,-28.08 498.95,-32.34"/>
</a>
</g>
</g>
</g>
</svg>
