<?xml version="1.0" encoding="UTF-8" standalone="no"?>
<!DOCTYPE svg PUBLIC "-//W3C//DTD SVG 1.1//EN"
 "http://www.w3.org/Graphics/SVG/1.1/DTD/svg11.dtd">
<!-- Generated by graphviz version 14.1.4 (0)
 -->
<!-- Title: source/tmc2209.h Pages: 1 -->
<svg width="542pt" height="199pt"
 viewBox="0.00 0.00 542.00 199.00" xmlns="http://www.w3.org/2000/svg" xmlns:xlink="http://www.w3.org/1999/xlink">
<g id="graph0" class="graph" transform="scale(1 1) rotate(0) translate(4 195)">
<title>source/tmc2209.h</title>
<!-- Node1 -->
<g id="Node000001" class="node">
<title>Node1</title>
<g id="a_Node000001"><a xlink:title=" ">
<polygon fill="#999999" stroke="#666666" points="286.25,-191 183.25,-191 183.25,-170.25 286.25,-170.25 286.25,-191"/>
<text xml:space="preserve" text-anchor="middle" x="234.75" y="-177.5" font-family="Helvetica,sans-Serif" font-size="10.00">source/tmc2209.h</text>
</a>
</g>
</g>
<!-- Node2 -->
<g id="Node000002" class="node">
<title>Node2</title>
<g id="a_Node000002"><a xlink:href="application_8c.html" target="_top" xlink:title=" ">
<polygon fill="white" stroke="#666666" points="113.5,-77.5 0,-77.5 0,-56.75 113.5,-56.75 113.5,-77.5"/>
<text xml:space="preserve" text-anchor="middle" x="56.75" y="-64" font-family="Helvetica,sans-Serif" font-size="10.00">source/application.c</text>
</a>
</g>
</g>
<!-- Node1&#45;&gt;Node2 -->
<g id="edge1_Node000001_Node000002" class="edge">
<title>Node1&#45;&gt;Node2</title>
<g id="a_edge1_Node000001_Node000002"><a xlink:title=" ">
<path fill="none" stroke="#63b8ff" d="M209.63,-163.89C172.27,-140.49 103.17,-97.2 72.33,-77.88"/>
<polygon fill="#63b8ff" stroke="#63b8ff" points="207.65,-166.78 217.98,-169.12 211.37,-160.85 207.65,-166.78"/>
</a>
</g>
</g>
<!-- Node3 -->
<g id="Node000003" class="node">
<title>Node3</title>
<g id="a_Node000003"><a xlink:href="motor_8h.html" target="_top" xlink:title=" ">
<polygon fill="white" stroke="#666666" points="279.12,-134.25 190.38,-134.25 190.38,-113.5 279.12,-113.5 279.12,-134.25"/>
<text xml:space="preserve" text-anchor="middle" x="234.75" y="-120.75" font-family="Helvetica,sans-Serif" font-size="10.00">source/motor.h</text>
</a>
</g>
</g>
<!-- Node1&#45;&gt;Node3 -->
<g id="edge2_Node000001_Node000003" class="edge">
<title>Node1&#45;&gt;Node3</title>
<g id="a_edge2_Node000001_Node000003"><a xlink:title=" ">
<path fill="none" stroke="#63b8ff" d="M234.75,-158.38C234.75,-150.16 234.75,-141.18 234.75,-134.58"/>
<polygon fill="#63b8ff" stroke="#63b8ff" points="231.25,-158.32 234.75,-168.32 238.25,-158.32 231.25,-158.32"/>
</a>
</g>
</g>
<!-- Node8 -->
<g id="Node000008" class="node">
<title>Node8</title>
<g id="a_Node000008"><a xlink:href="tmc2209_8c.html" target="_top" xlink:title=" ">
<polygon fill="white" stroke="#666666" points="399.88,-134.25 297.62,-134.25 297.62,-113.5 399.88,-113.5 399.88,-134.25"/>
<text xml:space="preserve" text-anchor="middle" x="348.75" y="-120.75" font-family="Helvetica,sans-Serif" font-size="10.00">source/tmc2209.c</text>
</a>
</g>
</g>
<!-- Node1&#45;&gt;Node8 -->
<g id="edge9_Node000001_Node000008" class="edge">
<title>Node1&#45;&gt;Node8</title>
<g id="a_edge9_Node000001_Node000008"><a xlink:title=" ">
<path fill="none" stroke="#63b8ff" d="M265.32,-164.95C285.36,-155.32 311.01,-143 328.55,-134.58"/>
<polygon fill="#63b8ff" stroke="#63b8ff" points="263.99,-161.7 256.5,-169.18 267.02,-168.01 263.99,-161.7"/>
</a>
</g>
</g>
<!-- Node3&#45;&gt;Node2 -->
<g id="edge3_Node000003_Node000002" class="edge">
<title>Node3&#45;&gt;Node2</title>
<g id="a_edge3_Node000003_Node000002"><a xlink:title=" ">
<path fill="none" stroke="#63b8ff" d="M192.17,-109.78C160.33,-99.99 117.5,-86.81 88.6,-77.92"/>
<polygon fill="#63b8ff" stroke="#63b8ff" points="190.89,-113.05 201.48,-112.64 192.95,-106.36 190.89,-113.05"/>
</a>
</g>
</g>
<!-- Node4 -->
<g id="Node000004" class="node">
<title>Node4</title>
<g id="a_Node000004"><a xlink:href="motor_8c.html" target="_top" xlink:title=" ">
<polygon fill="white" stroke="#666666" points="219.75,-77.5 131.75,-77.5 131.75,-56.75 219.75,-56.75 219.75,-77.5"/>
<text xml:space="preserve" text-anchor="middle" x="175.75" y="-64" font-family="Helvetica,sans-Serif" font-size="10.00">source/motor.c</text>
</a>
</g>
</g>
<!-- Node3&#45;&gt;Node4 -->
<g id="edge4_Node000003_Node000004" class="edge">
<title>Node3&#45;&gt;Node4</title>
<g id="a_edge4_Node000003_Node000004"><a xlink:title=" ">
<path fill="none" stroke="#63b8ff" d="M215.84,-105.33C206.03,-96.22 194.4,-85.43 186.21,-77.83"/>
<polygon fill="#63b8ff" stroke="#63b8ff" points="213.38,-107.82 223.09,-112.06 218.14,-102.69 213.38,-107.82"/>
</a>
</g>
</g>
<!-- Node5 -->
<g id="Node000005" class="node">
<title>Node5</title>
<g id="a_Node000005"><a xlink:href="motorCmd_8c.html" target="_top" xlink:title=" ">
<polygon fill="white" stroke="#666666" points="349.38,-77.5 238.12,-77.5 238.12,-56.75 349.38,-56.75 349.38,-77.5"/>
<text xml:space="preserve" text-anchor="middle" x="293.75" y="-64" font-family="Helvetica,sans-Serif" font-size="10.00">source/motorCmd.c</text>
</a>
</g>
</g>
<!-- Node3&#45;&gt;Node5 -->
<g id="edge5_Node000003_Node000005" class="edge">
<title>Node3&#45;&gt;Node5</title>
<g id="a_edge5_Node000003_Node000005"><a xlink:title=" ">
<path fill="none" stroke="#63b8ff" d="M253.66,-105.33C263.47,-96.22 275.1,-85.43 283.29,-77.83"/>
<polygon fill="#63b8ff" stroke="#63b8ff" points="251.36,-102.69 246.41,-112.06 256.12,-107.82 251.36,-102.69"/>
</a>
</g>
</g>
<!-- Node6 -->
<g id="Node000006" class="node">
<title>Node6</title>
<g id="a_Node000006"><a xlink:href="motor__configs_8h.html" target="_top" xlink:title=" ">
<polygon fill="white" stroke="#666666" points="496.38,-77.5 367.12,-77.5 367.12,-56.75 496.38,-56.75 496.38,-77.5"/>
<text xml:space="preserve" text-anchor="middle" x="431.75" y="-64" font-family="Helvetica,sans-Serif" font-size="10.00">source/motor_configs.h</text>
</a>
</g>
</g>
<!-- Node3&#45;&gt;Node6 -->
<g id="edge6_Node000003_Node000006" class="edge">
<title>Node3&#45;&gt;Node6</title>
<g id="a_edge6_Node000003_Node000006"><a xlink:title=" ">
<path fill="none" stroke="#63b8ff" d="M280.96,-110.03C316.28,-100.22 364.24,-86.89 396.5,-77.92"/>
<polygon fill="#63b8ff" stroke="#63b8ff" points="280.13,-106.63 271.43,-112.68 282,-113.38 280.13,-106.63"/>
</a>
</g>
</g>
<!-- Node7 -->
<g id="Node000007" class="node">
<title>Node7</title>
<g id="a_Node000007"><a xlink:href="motor__test_8c.html" target="_top" xlink:title=" ">
<polygon fill="white" stroke="#666666" points="534.12,-20.75 421.38,-20.75 421.38,0 534.12,0 534.12,-20.75"/>
<text xml:space="preserve" text-anchor="middle" x="477.75" y="-7.25" font-family="Helvetica,sans-Serif" font-size="10.00">source/motor_test.c</text>
</a>
</g>
</g>
<!-- Node3&#45;&gt;Node7 -->
<g id="edge8_Node000003_Node000007" class="edge">
<title>Node3&#45;&gt;Node7</title>
<g id="a_edge8_Node000003_Node000007"><a xlink:title=" ">
<path fill="none" stroke="#63b8ff" d="M290.8,-113.5C353.17,-106.29 476.05,-112.53 505.75,-77.5 520.26,-60.38 500.52,-34.65 487.52,-20.87"/>
<polygon fill="#63b8ff" stroke="#63b8ff" points="290.45,-110.01 281.03,-114.86 291.42,-116.95 290.45,-110.01"/>
</a>
</g>
</g>
<!-- Node6&#45;&gt;Node7 -->
<g id="edge7_Node000006_Node000007" class="edge">
<title>Node6&#45;&gt;Node7</title>
<g id="a_edge7_Node000006_Node000007"><a xlink:title=" ">
<path fill="none" stroke="#63b8ff" d="M447.2,-47.74C454.7,-38.81 463.4,-28.45 469.6,-21.08"/>
<polygon fill="#63b8ff" stroke="#63b8ff" points="444.7,-45.27 440.95,-55.18 450.06,-49.77 444.7,-45.27"/>
</a>
</g>
</g>
</g>
</svg>
