<?xml version="1.0" encoding="UTF-8" standalone="no"?>
<!DOCTYPE svg PUBLIC "-//W3C//DTD SVG 1.1//EN"
 "http://www.w3.org/Graphics/SVG/1.1/DTD/svg11.dtd">
<!-- Generated by graphviz version 14.1.4 (0)
 -->
<!-- Title: source/driver/tmc2209/tmc2209_core.h Pages: 1 -->
<svg width="1353pt" height="320pt"
 viewBox="0.00 0.00 1353.00 320.00" xmlns="http://www.w3.org/2000/svg" xmlns:xlink="http://www.w3.org/1999/xlink">
<g id="graph0" class="graph" transform="scale(1 1) rotate(0) translate(4 315.5)">
<title>source/driver/tmc2209/tmc2209_core.h</title>
<!-- Node1 -->
<g id="Node000001" class="node">
<title>Node1</title>
<g id="a_Node000001"><a xlink:title=" ">
<polygon fill="#999999" stroke="#666666" points="518.11,-311.5 392.61,-311.5 392.61,-278 518.11,-278 518.11,-311.5"/>
<text xml:space="preserve" text-anchor="start" x="400.61" y="-298" font-family="Helvetica,sans-Serif" font-size="10.00">source/driver/tmc2209</text>
<text xml:space="preserve" text-anchor="middle" x="455.36" y="-285.25" font-family="Helvetica,sans-Serif" font-size="10.00">/tmc2209_core.h</text>
</a>
</g>
</g>
<!-- Node2 -->
<g id="Node000002" class="node">
<title>Node2</title>
<g id="a_Node000002"><a xlink:href="application_8c.html" target="_top" xlink:title=" ">
<polygon fill="white" stroke="#666666" points="151.11,-166.12 37.61,-166.12 37.61,-145.38 151.11,-145.38 151.11,-166.12"/>
<text xml:space="preserve" text-anchor="middle" x="94.36" y="-152.62" font-family="Helvetica,sans-Serif" font-size="10.00">source/application.c</text>
</a>
</g>
</g>
<!-- Node1&#45;&gt;Node2 -->
<g id="edge1_Node000001_Node000002" class="edge">
<title>Node1&#45;&gt;Node2</title>
<g id="a_edge1_Node000001_Node000002"><a xlink:title=" ">
<path fill="none" stroke="#63b8ff" d="M402.22,-273.58C323.4,-243.67 178.51,-188.68 119.94,-166.46"/>
<polygon fill="#63b8ff" stroke="#63b8ff" points="400.89,-276.82 411.48,-277.09 403.37,-270.27 400.89,-276.82"/>
</a>
</g>
</g>
<!-- Node3 -->
<g id="Node000003" class="node">
<title>Node3</title>
<g id="a_Node000003"><a xlink:href="tmc2209__core_8c.html" target="_top" xlink:title=" ">
<polygon fill="white" stroke="#666666" points="1345.11,-242 1219.61,-242 1219.61,-208.5 1345.11,-208.5 1345.11,-242"/>
<text xml:space="preserve" text-anchor="start" x="1227.61" y="-228.5" font-family="Helvetica,sans-Serif" font-size="10.00">source/driver/tmc2209</text>
<text xml:space="preserve" text-anchor="middle" x="1282.36" y="-215.75" font-family="Helvetica,sans-Serif" font-size="10.00">/tmc2209_core.c</text>
</a>
</g>
</g>
<!-- Node1&#45;&gt;Node3 -->
<g id="edge2_Node000001_Node000003" class="edge">
<title>Node1&#45;&gt;Node3</title>
<g id="a_edge2_Node000001_Node000003"><a xlink:title=" ">
<path fill="none" stroke="#63b8ff" d="M529.78,-291.89C664.9,-287.78 959.38,-275.49 1205.36,-242 1209.96,-241.37 1214.7,-240.64 1219.45,-239.83"/>
<polygon fill="#63b8ff" stroke="#63b8ff" points="529.78,-288.39 519.88,-292.18 529.98,-295.38 529.78,-288.39"/>
</a>
</g>
</g>
<!-- Node4 -->
<g id="Node000004" class="node">
<title>Node4</title>
<g id="a_Node000004"><a xlink:href="motor__init_8c.html" target="_top" xlink:title=" ">
<polygon fill="white" stroke="#666666" points="163.36,-33.5 45.36,-33.5 45.36,0 163.36,0 163.36,-33.5"/>
<text xml:space="preserve" text-anchor="start" x="53.36" y="-20" font-family="Helvetica,sans-Serif" font-size="10.00">source/motion/motor</text>
<text xml:space="preserve" text-anchor="middle" x="104.36" y="-7.25" font-family="Helvetica,sans-Serif" font-size="10.00">/motor_init.c</text>
</a>
</g>
</g>
<!-- Node1&#45;&gt;Node4 -->
<g id="edge3_Node000001_Node000004" class="edge">
<title>Node1&#45;&gt;Node4</title>
<g id="a_edge3_Node000001_Node000004"><a xlink:title=" ">
<path fill="none" stroke="#63b8ff" d="M381.05,-282.55C271.49,-264.46 74.55,-225.42 28.36,-172.5 -2.01,-137.69 -8.77,-109.49 14.36,-69.5 23.66,-53.43 40.05,-41.91 56.31,-33.89"/>
<polygon fill="#63b8ff" stroke="#63b8ff" points="380.42,-285.99 390.85,-284.14 381.55,-279.08 380.42,-285.99"/>
</a>
</g>
</g>
<!-- Node5 -->
<g id="Node000005" class="node">
<title>Node5</title>
<g id="a_Node000005"><a xlink:href="motor__tmc_8c.html" target="_top" xlink:title=" ">
<polygon fill="white" stroke="#666666" points="951.36,-33.5 833.36,-33.5 833.36,0 951.36,0 951.36,-33.5"/>
<text xml:space="preserve" text-anchor="start" x="841.36" y="-20" font-family="Helvetica,sans-Serif" font-size="10.00">source/motion/motor</text>
<text xml:space="preserve" text-anchor="middle" x="892.36" y="-7.25" font-family="Helvetica,sans-Serif" font-size="10.00">/motor_tmc.c</text>
</a>
</g>
</g>
<!-- Node1&#45;&gt;Node5 -->
<g id="edge4_Node000001_Node000005" class="edge">
<title>Node1&#45;&gt;Node5</title>
<g id="a_edge4_Node000001_Node000005"><a xlink:title=" ">
<path fill="none" stroke="#63b8ff" d="M529.75,-291.99C689.65,-286.47 1057.84,-263.9 1134.36,-172.5 1153.39,-149.77 1124.66,-79.28 1114.36,-69.5 1091.27,-47.56 1009.42,-32.75 951.85,-24.77"/>
<polygon fill="#63b8ff" stroke="#63b8ff" points="530,-288.48 520.12,-292.31 530.23,-295.47 530,-288.48"/>
</a>
</g>
</g>
<!-- Node6 -->
<g id="Node000006" class="node">
<title>Node6</title>
<g id="a_Node000006"><a xlink:href="motor_8h.html" target="_top" xlink:title=" ">
<polygon fill="white" stroke="#666666" points="499.74,-235.62 410.99,-235.62 410.99,-214.88 499.74,-214.88 499.74,-235.62"/>
<text xml:space="preserve" text-anchor="middle" x="455.36" y="-222.12" font-family="Helvetica,sans-Serif" font-size="10.00">source/motor.h</text>
</a>
</g>
</g>
<!-- Node1&#45;&gt;Node6 -->
<g id="edge5_Node000001_Node000006" class="edge">
<title>Node1&#45;&gt;Node6</title>
<g id="a_edge5_Node000001_Node000006"><a xlink:title=" ">
<path fill="none" stroke="#63b8ff" d="M455.36,-266.28C455.36,-255.58 455.36,-244.01 455.36,-236.07"/>
<polygon fill="#63b8ff" stroke="#63b8ff" points="451.86,-266.24 455.36,-276.24 458.86,-266.24 451.86,-266.24"/>
</a>
</g>
</g>
<!-- Node6&#45;&gt;Node2 -->
<g id="edge6_Node000006_Node000002" class="edge">
<title>Node6&#45;&gt;Node2</title>
<g id="a_edge6_Node000006_Node000002"><a xlink:title=" ">
<path fill="none" stroke="#63b8ff" d="M399.51,-215.59C339.84,-206.08 242.61,-189.84 159.36,-172.5 150.84,-170.72 141.73,-168.64 133.11,-166.57"/>
<polygon fill="#63b8ff" stroke="#63b8ff" points="398.64,-219 409.07,-217.11 399.74,-212.08 398.64,-219"/>
</a>
</g>
</g>
<!-- Node7 -->
<g id="Node000007" class="node">
<title>Node7</title>
<g id="a_Node000007"><a xlink:href="motor__convert_8h.html" target="_top" xlink:title=" ">
<polygon fill="white" stroke="#666666" points="1125.36,-172.5 1007.36,-172.5 1007.36,-139 1125.36,-139 1125.36,-172.5"/>
<text xml:space="preserve" text-anchor="start" x="1015.36" y="-159" font-family="Helvetica,sans-Serif" font-size="10.00">source/motion/motor</text>
<text xml:space="preserve" text-anchor="middle" x="1066.36" y="-146.25" font-family="Helvetica,sans-Serif" font-size="10.00">/motor_convert.h</text>
</a>
</g>
</g>
<!-- Node6&#45;&gt;Node7 -->
<g id="edge7_Node000006_Node000007" class="edge">
<title>Node6&#45;&gt;Node7</title>
<g id="a_edge7_Node000006_Node000007"><a xlink:title=" ">
<path fill="none" stroke="#63b8ff" d="M511.12,-218.09C626.23,-205.37 889.23,-176.32 1007.2,-163.29"/>
<polygon fill="#63b8ff" stroke="#63b8ff" points="510.86,-214.6 501.3,-219.17 511.63,-221.56 510.86,-214.6"/>
</a>
</g>
</g>
<!-- Node11 -->
<g id="Node000011" class="node">
<title>Node11</title>
<g id="a_Node000011"><a xlink:href="motor__init_8h.html" target="_top" xlink:title=" ">
<polygon fill="white" stroke="#666666" points="271.36,-103 153.36,-103 153.36,-69.5 271.36,-69.5 271.36,-103"/>
<text xml:space="preserve" text-anchor="start" x="161.36" y="-89.5" font-family="Helvetica,sans-Serif" font-size="10.00">source/motion/motor</text>
<text xml:space="preserve" text-anchor="middle" x="212.36" y="-76.75" font-family="Helvetica,sans-Serif" font-size="10.00">/motor_init.h</text>
</a>
</g>
</g>
<!-- Node6&#45;&gt;Node11 -->
<g id="edge11_Node000006_Node000011" class="edge">
<title>Node6&#45;&gt;Node11</title>
<g id="a_edge11_Node000006_Node000011"><a xlink:title=" ">
<path fill="none" stroke="#63b8ff" d="M466.58,-204.39C475.59,-185.48 484.48,-157.27 469.36,-139 442.11,-106.06 322.2,-111.83 280.36,-103 277.52,-102.4 274.61,-101.77 271.67,-101.13"/>
<polygon fill="#63b8ff" stroke="#63b8ff" points="463.5,-202.72 462,-213.21 469.71,-205.95 463.5,-202.72"/>
</a>
</g>
</g>
<!-- Node13 -->
<g id="Node000013" class="node">
<title>Node13</title>
<g id="a_Node000013"><a xlink:href="motor__internal_8h.html" target="_top" xlink:title=" ">
<polygon fill="white" stroke="#666666" points="652.36,-172.5 534.36,-172.5 534.36,-139 652.36,-139 652.36,-172.5"/>
<text xml:space="preserve" text-anchor="start" x="542.36" y="-159" font-family="Helvetica,sans-Serif" font-size="10.00">source/motion/motor</text>
<text xml:space="preserve" text-anchor="middle" x="593.36" y="-146.25" font-family="Helvetica,sans-Serif" font-size="10.00">/motor_internal.h</text>
</a>
</g>
</g>
<!-- Node6&#45;&gt;Node13 -->
<g id="edge14_Node000006_Node000013" class="edge">
<title>Node6&#45;&gt;Node13</title>
<g id="a_edge14_Node000006_Node000013"><a xlink:title=" ">
<path fill="none" stroke="#63b8ff" d="M485.56,-209.48C507.6,-198.7 537.48,-184.09 560.19,-172.98"/>
<polygon fill="#63b8ff" stroke="#63b8ff" points="484.24,-206.23 476.79,-213.77 487.31,-212.52 484.24,-206.23"/>
</a>
</g>
</g>
<!-- Node21 -->
<g id="Node000021" class="node">
<title>Node21</title>
<g id="a_Node000021"><a xlink:href="motorCmd_8c.html" target="_top" xlink:title=" ">
<polygon fill="white" stroke="#666666" points="279.99,-166.12 168.74,-166.12 168.74,-145.38 279.99,-145.38 279.99,-166.12"/>
<text xml:space="preserve" text-anchor="middle" x="224.36" y="-152.62" font-family="Helvetica,sans-Serif" font-size="10.00">source/motorCmd.c</text>
</a>
</g>
</g>
<!-- Node6&#45;&gt;Node21 -->
<g id="edge33_Node000006_Node000021" class="edge">
<title>Node6&#45;&gt;Node21</title>
<g id="a_edge33_Node000006_Node000021"><a xlink:title=" ">
<path fill="none" stroke="#63b8ff" d="M410.95,-211.27C366.28,-198.22 298.39,-178.38 257.99,-166.58"/>
<polygon fill="#63b8ff" stroke="#63b8ff" points="409.74,-214.57 420.32,-214.01 411.71,-207.85 409.74,-214.57"/>
</a>
</g>
</g>
<!-- Node22 -->
<g id="Node000022" class="node">
<title>Node22</title>
<g id="a_Node000022"><a xlink:href="motor__configs_8h.html" target="_top" xlink:title=" ">
<polygon fill="white" stroke="#666666" points="426.99,-166.12 297.74,-166.12 297.74,-145.38 426.99,-145.38 426.99,-166.12"/>
<text xml:space="preserve" text-anchor="middle" x="362.36" y="-152.62" font-family="Helvetica,sans-Serif" font-size="10.00">source/motor_configs.h</text>
</a>
</g>
</g>
<!-- Node6&#45;&gt;Node22 -->
<g id="edge34_Node000006_Node000022" class="edge">
<title>Node6&#45;&gt;Node22</title>
<g id="a_edge34_Node000006_Node000022"><a xlink:title=" ">
<path fill="none" stroke="#63b8ff" d="M432.93,-207.97C415.16,-195.07 390.92,-177.47 375.97,-166.62"/>
<polygon fill="#63b8ff" stroke="#63b8ff" points="430.67,-210.65 440.82,-213.69 434.78,-204.98 430.67,-210.65"/>
</a>
</g>
</g>
<!-- Node23 -->
<g id="Node000023" class="node">
<title>Node23</title>
<g id="a_Node000023"><a xlink:href="motor__test_8c.html" target="_top" xlink:title=" ">
<polygon fill="white" stroke="#666666" points="135.74,-96.62 22.99,-96.62 22.99,-75.88 135.74,-75.88 135.74,-96.62"/>
<text xml:space="preserve" text-anchor="middle" x="79.36" y="-83.12" font-family="Helvetica,sans-Serif" font-size="10.00">source/motor_test.c</text>
</a>
</g>
</g>
<!-- Node6&#45;&gt;Node23 -->
<g id="edge36_Node000006_Node000023" class="edge">
<title>Node6&#45;&gt;Node23</title>
<g id="a_edge36_Node000006_Node000023"><a xlink:title=" ">
<path fill="none" stroke="#63b8ff" d="M456.94,-203.23C457.16,-183.62 454.05,-155.05 436.36,-139 387.96,-95.06 208.69,-114.72 144.36,-103 135.34,-101.36 125.7,-99.23 116.67,-97.07"/>
<polygon fill="#63b8ff" stroke="#63b8ff" points="453.45,-202.94 456.51,-213.09 460.45,-203.25 453.45,-202.94"/>
</a>
</g>
</g>
<!-- Node8 -->
<g id="Node000008" class="node">
<title>Node8</title>
<g id="a_Node000008"><a xlink:href="motor__convert_8c.html" target="_top" xlink:title=" ">
<polygon fill="white" stroke="#666666" points="1087.36,-103 969.36,-103 969.36,-69.5 1087.36,-69.5 1087.36,-103"/>
<text xml:space="preserve" text-anchor="start" x="977.36" y="-89.5" font-family="Helvetica,sans-Serif" font-size="10.00">source/motion/motor</text>
<text xml:space="preserve" text-anchor="middle" x="1028.36" y="-76.75" font-family="Helvetica,sans-Serif" font-size="10.00">/motor_convert.c</text>
</a>
</g>
</g>
<!-- Node7&#45;&gt;Node8 -->
<g id="edge8_Node000007_Node000008" class="edge">
<title>Node7&#45;&gt;Node8</title>
<g id="a_edge8_Node000007_Node000008"><a xlink:title=" ">
<path fill="none" stroke="#63b8ff" d="M1051.72,-128.74C1046.86,-120.11 1041.6,-110.76 1037.31,-103.13"/>
<polygon fill="#63b8ff" stroke="#63b8ff" points="1048.66,-130.44 1056.62,-137.43 1054.76,-127 1048.66,-130.44"/>
</a>
</g>
</g>
<!-- Node9 -->
<g id="Node000009" class="node">
<title>Node9</title>
<g id="a_Node000009"><a xlink:href="motor__motion_8c.html" target="_top" xlink:title=" ">
<polygon fill="white" stroke="#666666" points="1149.36,-33.5 1031.36,-33.5 1031.36,0 1149.36,0 1149.36,-33.5"/>
<text xml:space="preserve" text-anchor="start" x="1039.36" y="-20" font-family="Helvetica,sans-Serif" font-size="10.00">source/motion/motor</text>
<text xml:space="preserve" text-anchor="middle" x="1090.36" y="-7.25" font-family="Helvetica,sans-Serif" font-size="10.00">/motor_motion.c</text>
</a>
</g>
</g>
<!-- Node7&#45;&gt;Node9 -->
<g id="edge9_Node000007_Node000009" class="edge">
<title>Node7&#45;&gt;Node9</title>
<g id="a_edge9_Node000007_Node000009"><a xlink:title=" ">
<path fill="none" stroke="#63b8ff" d="M1105,-131.91C1114.77,-124.07 1123.99,-114.37 1129.36,-103 1140.7,-79.02 1121.79,-51.01 1106.55,-33.83"/>
<polygon fill="#63b8ff" stroke="#63b8ff" points="1103.17,-128.91 1097.2,-137.67 1107.33,-134.54 1103.17,-128.91"/>
</a>
</g>
</g>
<!-- Node10 -->
<g id="Node000010" class="node">
<title>Node10</title>
<g id="a_Node000010"><a xlink:href="motor__sync_8c.html" target="_top" xlink:title=" ">
<polygon fill="white" stroke="#666666" points="815.36,-33.5 697.36,-33.5 697.36,0 815.36,0 815.36,-33.5"/>
<text xml:space="preserve" text-anchor="start" x="705.36" y="-20" font-family="Helvetica,sans-Serif" font-size="10.00">source/motion/motor</text>
<text xml:space="preserve" text-anchor="middle" x="756.36" y="-7.25" font-family="Helvetica,sans-Serif" font-size="10.00">/motor_sync.c</text>
</a>
</g>
</g>
<!-- Node7&#45;&gt;Node10 -->
<g id="edge10_Node000007_Node000010" class="edge">
<title>Node7&#45;&gt;Node10</title>
<g id="a_edge10_Node000007_Node000010"><a xlink:title=" ">
<path fill="none" stroke="#63b8ff" d="M1087.14,-129.8C1099.92,-111.31 1111.25,-86.48 1096.36,-69.5 1056.18,-23.65 884.36,-44.39 824.36,-33.5 821.5,-32.98 818.58,-32.42 815.63,-31.83"/>
<polygon fill="#63b8ff" stroke="#63b8ff" points="1084.5,-127.48 1081.36,-137.6 1090.13,-131.65 1084.5,-127.48"/>
</a>
</g>
</g>
<!-- Node11&#45;&gt;Node4 -->
<g id="edge12_Node000011_Node000004" class="edge">
<title>Node11&#45;&gt;Node4</title>
<g id="a_edge12_Node000011_Node000004"><a xlink:title=" ">
<path fill="none" stroke="#63b8ff" d="M176.83,-63.04C161.55,-53.49 144.01,-42.53 130.02,-33.79"/>
<polygon fill="#63b8ff" stroke="#63b8ff" points="174.88,-65.95 185.21,-68.28 178.59,-60.01 174.88,-65.95"/>
</a>
</g>
</g>
<!-- Node12 -->
<g id="Node000012" class="node">
<title>Node12</title>
<g id="a_Node000012"><a xlink:href="motor__process_8c.html" target="_top" xlink:title=" ">
<polygon fill="white" stroke="#666666" points="679.36,-33.5 561.36,-33.5 561.36,0 679.36,0 679.36,-33.5"/>
<text xml:space="preserve" text-anchor="start" x="569.36" y="-20" font-family="Helvetica,sans-Serif" font-size="10.00">source/motion/motor</text>
<text xml:space="preserve" text-anchor="middle" x="620.36" y="-7.25" font-family="Helvetica,sans-Serif" font-size="10.00">/motor_process.c</text>
</a>
</g>
</g>
<!-- Node11&#45;&gt;Node12 -->
<g id="edge13_Node000011_Node000012" class="edge">
<title>Node11&#45;&gt;Node12</title>
<g id="a_edge13_Node000011_Node000012"><a xlink:title=" ">
<path fill="none" stroke="#63b8ff" d="M282.79,-69.16C399.23,-48.39 431.78,-53.11 545.36,-33.5 550.48,-32.62 555.77,-31.64 561.08,-30.61"/>
<polygon fill="#63b8ff" stroke="#63b8ff" points="282.34,-65.68 273.12,-70.91 283.59,-72.57 282.34,-65.68"/>
</a>
</g>
</g>
<!-- Node13&#45;&gt;Node8 -->
<g id="edge15_Node000013_Node000008" class="edge">
<title>Node13&#45;&gt;Node8</title>
<g id="a_edge15_Node000013_Node000008"><a xlink:title=" ">
<path fill="none" stroke="#63b8ff" d="M663.78,-146.68C737.88,-137.75 857.77,-122.08 960.36,-103 963.22,-102.47 966.14,-101.9 969.09,-101.3"/>
<polygon fill="#63b8ff" stroke="#63b8ff" points="663.75,-143.16 654.24,-147.82 664.59,-150.11 663.75,-143.16"/>
</a>
</g>
</g>
<!-- Node13&#45;&gt;Node11 -->
<g id="edge19_Node000013_Node000011" class="edge">
<title>Node13&#45;&gt;Node11</title>
<g id="a_edge19_Node000013_Node000011"><a xlink:title=" ">
<path fill="none" stroke="#63b8ff" d="M523.19,-141.76C517.84,-140.81 512.52,-139.88 507.36,-139 406.67,-121.8 380.63,-122.54 280.36,-103 277.51,-102.44 274.59,-101.85 271.65,-101.24"/>
<polygon fill="#63b8ff" stroke="#63b8ff" points="522.23,-145.14 532.69,-143.45 523.46,-138.25 522.23,-145.14"/>
</a>
</g>
</g>
<!-- Node14 -->
<g id="Node000014" class="node">
<title>Node14</title>
<g id="a_Node000014"><a xlink:href="motor__core_8h.html" target="_top" xlink:title=" ">
<polygon fill="white" stroke="#666666" points="407.36,-103 289.36,-103 289.36,-69.5 407.36,-69.5 407.36,-103"/>
<text xml:space="preserve" text-anchor="start" x="297.36" y="-89.5" font-family="Helvetica,sans-Serif" font-size="10.00">source/motion/motor</text>
<text xml:space="preserve" text-anchor="middle" x="348.36" y="-76.75" font-family="Helvetica,sans-Serif" font-size="10.00">/motor_core.h</text>
</a>
</g>
</g>
<!-- Node13&#45;&gt;Node14 -->
<g id="edge16_Node000013_Node000014" class="edge">
<title>Node13&#45;&gt;Node14</title>
<g id="a_edge16_Node000013_Node000014"><a xlink:title=" ">
<path fill="none" stroke="#63b8ff" d="M524,-135.64C487.07,-125.47 442.16,-113.09 406.99,-103.4"/>
<polygon fill="#63b8ff" stroke="#63b8ff" points="522.65,-138.9 533.22,-138.18 524.51,-132.15 522.65,-138.9"/>
</a>
</g>
</g>
<!-- Node17 -->
<g id="Node000017" class="node">
<title>Node17</title>
<g id="a_Node000017"><a xlink:href="motor__motion_8h.html" target="_top" xlink:title=" ">
<polygon fill="white" stroke="#666666" points="951.36,-103 833.36,-103 833.36,-69.5 951.36,-69.5 951.36,-103"/>
<text xml:space="preserve" text-anchor="start" x="841.36" y="-89.5" font-family="Helvetica,sans-Serif" font-size="10.00">source/motion/motor</text>
<text xml:space="preserve" text-anchor="middle" x="892.36" y="-76.75" font-family="Helvetica,sans-Serif" font-size="10.00">/motor_motion.h</text>
</a>
</g>
</g>
<!-- Node13&#45;&gt;Node17 -->
<g id="edge20_Node000013_Node000017" class="edge">
<title>Node13&#45;&gt;Node17</title>
<g id="a_edge20_Node000013_Node000017"><a xlink:title=" ">
<path fill="none" stroke="#63b8ff" d="M663.74,-139.12C709.52,-128.92 770.5,-115.27 824.36,-103 827.2,-102.35 830.1,-101.69 833.03,-101.02"/>
<polygon fill="#63b8ff" stroke="#63b8ff" points="663.21,-135.65 654.21,-141.24 664.74,-142.49 663.21,-135.65"/>
</a>
</g>
</g>
<!-- Node18 -->
<g id="Node000018" class="node">
<title>Node18</title>
<g id="a_Node000018"><a xlink:href="motor__process_8h.html" target="_top" xlink:title=" ">
<polygon fill="white" stroke="#666666" points="543.36,-103 425.36,-103 425.36,-69.5 543.36,-69.5 543.36,-103"/>
<text xml:space="preserve" text-anchor="start" x="433.36" y="-89.5" font-family="Helvetica,sans-Serif" font-size="10.00">source/motion/motor</text>
<text xml:space="preserve" text-anchor="middle" x="484.36" y="-76.75" font-family="Helvetica,sans-Serif" font-size="10.00">/motor_process.h</text>
</a>
</g>
</g>
<!-- Node13&#45;&gt;Node18 -->
<g id="edge24_Node000013_Node000018" class="edge">
<title>Node13&#45;&gt;Node18</title>
<g id="a_edge24_Node000013_Node000018"><a xlink:title=" ">
<path fill="none" stroke="#63b8ff" d="M557.5,-132.54C542.08,-122.99 524.38,-112.03 510.26,-103.29"/>
<polygon fill="#63b8ff" stroke="#63b8ff" points="555.62,-135.5 565.97,-137.79 559.31,-129.54 555.62,-135.5"/>
</a>
</g>
</g>
<!-- Node19 -->
<g id="Node000019" class="node">
<title>Node19</title>
<g id="a_Node000019"><a xlink:href="motor__sync_8h.html" target="_top" xlink:title=" ">
<polygon fill="white" stroke="#666666" points="679.36,-103 561.36,-103 561.36,-69.5 679.36,-69.5 679.36,-103"/>
<text xml:space="preserve" text-anchor="start" x="569.36" y="-89.5" font-family="Helvetica,sans-Serif" font-size="10.00">source/motion/motor</text>
<text xml:space="preserve" text-anchor="middle" x="620.36" y="-76.75" font-family="Helvetica,sans-Serif" font-size="10.00">/motor_sync.h</text>
</a>
</g>
</g>
<!-- Node13&#45;&gt;Node19 -->
<g id="edge27_Node000013_Node000019" class="edge">
<title>Node13&#45;&gt;Node19</title>
<g id="a_edge27_Node000013_Node000019"><a xlink:title=" ">
<path fill="none" stroke="#63b8ff" d="M604,-128.17C607.38,-119.7 611.03,-110.6 614.01,-103.13"/>
<polygon fill="#63b8ff" stroke="#63b8ff" points="600.79,-126.76 600.33,-137.35 607.29,-129.36 600.79,-126.76"/>
</a>
</g>
</g>
<!-- Node20 -->
<g id="Node000020" class="node">
<title>Node20</title>
<g id="a_Node000020"><a xlink:href="motor__tmc_8h.html" target="_top" xlink:title=" ">
<polygon fill="white" stroke="#666666" points="815.36,-103 697.36,-103 697.36,-69.5 815.36,-69.5 815.36,-103"/>
<text xml:space="preserve" text-anchor="start" x="705.36" y="-89.5" font-family="Helvetica,sans-Serif" font-size="10.00">source/motion/motor</text>
<text xml:space="preserve" text-anchor="middle" x="756.36" y="-76.75" font-family="Helvetica,sans-Serif" font-size="10.00">/motor_tmc.h</text>
</a>
</g>
</g>
<!-- Node13&#45;&gt;Node20 -->
<g id="edge30_Node000013_Node000020" class="edge">
<title>Node13&#45;&gt;Node20</title>
<g id="a_edge30_Node000013_Node000020"><a xlink:title=" ">
<path fill="none" stroke="#63b8ff" d="M643.03,-134.18C666.89,-124.3 695.07,-112.63 717.36,-103.4"/>
<polygon fill="#63b8ff" stroke="#63b8ff" points="641.71,-130.94 633.81,-138 644.38,-137.41 641.71,-130.94"/>
</a>
</g>
</g>
<!-- Node15 -->
<g id="Node000015" class="node">
<title>Node15</title>
<g id="a_Node000015"><a xlink:href="motor__core_8c.html" target="_top" xlink:title=" ">
<polygon fill="white" stroke="#666666" points="536.36,-33.5 418.36,-33.5 418.36,0 536.36,0 536.36,-33.5"/>
<text xml:space="preserve" text-anchor="start" x="426.36" y="-20" font-family="Helvetica,sans-Serif" font-size="10.00">source/motion/motor</text>
<text xml:space="preserve" text-anchor="middle" x="477.36" y="-7.25" font-family="Helvetica,sans-Serif" font-size="10.00">/motor_core.c</text>
</a>
</g>
</g>
<!-- Node14&#45;&gt;Node15 -->
<g id="edge17_Node000014_Node000015" class="edge">
<title>Node14&#45;&gt;Node15</title>
<g id="a_edge17_Node000014_Node000015"><a xlink:title=" ">
<path fill="none" stroke="#63b8ff" d="M389.25,-63.86C407.86,-54.12 429.53,-42.78 446.72,-33.79"/>
<polygon fill="#63b8ff" stroke="#63b8ff" points="387.84,-60.64 380.6,-68.38 391.09,-66.85 387.84,-60.64"/>
</a>
</g>
</g>
<!-- Node16 -->
<g id="Node000016" class="node">
<title>Node16</title>
<g id="a_Node000016"><a xlink:href="motor_8c.html" target="_top" xlink:title=" ">
<polygon fill="white" stroke="#666666" points="392.36,-27.12 304.36,-27.12 304.36,-6.38 392.36,-6.38 392.36,-27.12"/>
<text xml:space="preserve" text-anchor="middle" x="348.36" y="-13.62" font-family="Helvetica,sans-Serif" font-size="10.00">source/motor.c</text>
</a>
</g>
</g>
<!-- Node14&#45;&gt;Node16 -->
<g id="edge18_Node000014_Node000016" class="edge">
<title>Node14&#45;&gt;Node16</title>
<g id="a_edge18_Node000014_Node000016"><a xlink:title=" ">
<path fill="none" stroke="#63b8ff" d="M348.36,-57.78C348.36,-47.08 348.36,-35.51 348.36,-27.57"/>
<polygon fill="#63b8ff" stroke="#63b8ff" points="344.86,-57.74 348.36,-67.74 351.86,-57.74 344.86,-57.74"/>
</a>
</g>
</g>
<!-- Node17&#45;&gt;Node5 -->
<g id="edge23_Node000017_Node000005" class="edge">
<title>Node17&#45;&gt;Node5</title>
<g id="a_edge23_Node000017_Node000005"><a xlink:title=" ">
<path fill="none" stroke="#63b8ff" d="M892.36,-57.81C892.36,-49.59 892.36,-40.84 892.36,-33.63"/>
<polygon fill="#63b8ff" stroke="#63b8ff" points="888.86,-57.74 892.36,-67.74 895.86,-57.74 888.86,-57.74"/>
</a>
</g>
</g>
<!-- Node17&#45;&gt;Node9 -->
<g id="edge21_Node000017_Node000009" class="edge">
<title>Node17&#45;&gt;Node9</title>
<g id="a_edge21_Node000017_Node000009"><a xlink:title=" ">
<path fill="none" stroke="#63b8ff" d="M950.36,-65.48C979.82,-55.44 1015.17,-43.38 1042.98,-33.9"/>
<polygon fill="#63b8ff" stroke="#63b8ff" points="949.56,-62.05 941.22,-68.59 951.82,-68.68 949.56,-62.05"/>
</a>
</g>
</g>
<!-- Node17&#45;&gt;Node12 -->
<g id="edge22_Node000017_Node000012" class="edge">
<title>Node17&#45;&gt;Node12</title>
<g id="a_edge22_Node000017_Node000012"><a xlink:title=" ">
<path fill="none" stroke="#63b8ff" d="M822.05,-67.8C777.86,-56.84 721.5,-42.85 679.59,-32.45"/>
<polygon fill="#63b8ff" stroke="#63b8ff" points="820.99,-71.14 831.54,-70.16 822.68,-64.35 820.99,-71.14"/>
</a>
</g>
</g>
<!-- Node18&#45;&gt;Node12 -->
<g id="edge26_Node000018_Node000012" class="edge">
<title>Node18&#45;&gt;Node12</title>
<g id="a_edge26_Node000018_Node000012"><a xlink:title=" ">
<path fill="none" stroke="#63b8ff" d="M527.19,-63.99C546.88,-54.22 569.85,-42.82 588.05,-33.79"/>
<polygon fill="#63b8ff" stroke="#63b8ff" points="525.7,-60.83 518.3,-68.41 528.81,-67.1 525.7,-60.83"/>
</a>
</g>
</g>
<!-- Node18&#45;&gt;Node15 -->
<g id="edge25_Node000018_Node000015" class="edge">
<title>Node18&#45;&gt;Node15</title>
<g id="a_edge25_Node000018_Node000015"><a xlink:title=" ">
<path fill="none" stroke="#63b8ff" d="M481.52,-57.81C480.67,-49.59 479.76,-40.84 479.01,-33.63"/>
<polygon fill="#63b8ff" stroke="#63b8ff" points="478.04,-58.16 482.55,-67.75 485,-57.44 478.04,-58.16"/>
</a>
</g>
</g>
<!-- Node19&#45;&gt;Node10 -->
<g id="edge29_Node000019_Node000010" class="edge">
<title>Node19&#45;&gt;Node10</title>
<g id="a_edge29_Node000019_Node000010"><a xlink:title=" ">
<path fill="none" stroke="#63b8ff" d="M663.19,-63.99C682.88,-54.22 705.85,-42.82 724.05,-33.79"/>
<polygon fill="#63b8ff" stroke="#63b8ff" points="661.7,-60.83 654.3,-68.41 664.81,-67.1 661.7,-60.83"/>
</a>
</g>
</g>
<!-- Node19&#45;&gt;Node12 -->
<g id="edge28_Node000019_Node000012" class="edge">
<title>Node19&#45;&gt;Node12</title>
<g id="a_edge28_Node000019_Node000012"><a xlink:title=" ">
<path fill="none" stroke="#63b8ff" d="M620.36,-57.81C620.36,-49.59 620.36,-40.84 620.36,-33.63"/>
<polygon fill="#63b8ff" stroke="#63b8ff" points="616.86,-57.74 620.36,-67.74 623.86,-57.74 616.86,-57.74"/>
</a>
</g>
</g>
<!-- Node20&#45;&gt;Node5 -->
<g id="edge32_Node000020_Node000005" class="edge">
<title>Node20&#45;&gt;Node5</title>
<g id="a_edge32_Node000020_Node000005"><a xlink:title=" ">
<path fill="none" stroke="#63b8ff" d="M799.19,-63.99C818.88,-54.22 841.85,-42.82 860.05,-33.79"/>
<polygon fill="#63b8ff" stroke="#63b8ff" points="797.7,-60.83 790.3,-68.41 800.81,-67.1 797.7,-60.83"/>
</a>
</g>
</g>
<!-- Node20&#45;&gt;Node12 -->
<g id="edge31_Node000020_Node000012" class="edge">
<title>Node20&#45;&gt;Node12</title>
<g id="a_edge31_Node000020_Node000012"><a xlink:title=" ">
<path fill="none" stroke="#63b8ff" d="M713.54,-63.99C693.85,-54.22 670.88,-42.82 652.67,-33.79"/>
<polygon fill="#63b8ff" stroke="#63b8ff" points="711.92,-67.1 722.43,-68.41 715.03,-60.83 711.92,-67.1"/>
</a>
</g>
</g>
<!-- Node22&#45;&gt;Node23 -->
<g id="edge35_Node000022_Node000023" class="edge">
<title>Node22&#45;&gt;Node23</title>
<g id="a_edge35_Node000022_Node000023"><a xlink:title=" ">
<path fill="none" stroke="#63b8ff" d="M309.51,-142.28C265.35,-131.84 200.74,-116.52 144.36,-103 136.46,-101.1 128.02,-99.07 119.93,-97.11"/>
<polygon fill="#63b8ff" stroke="#63b8ff" points="308.55,-145.64 319.09,-144.54 310.16,-138.83 308.55,-145.64"/>
</a>
</g>
</g>
</g>
</svg>
