<?xml version="1.0" encoding="UTF-8" standalone="no"?>
<!DOCTYPE svg PUBLIC "-//W3C//DTD SVG 1.1//EN"
 "http://www.w3.org/Graphics/SVG/1.1/DTD/svg11.dtd">
<!-- Generated by graphviz version 14.1.4 (0)
 -->
<!-- Title: source/tmc2209.c Pages: 1 -->
<svg width="909pt" height="256pt"
 viewBox="0.00 0.00 909.00 256.00" xmlns="http://www.w3.org/2000/svg" xmlns:xlink="http://www.w3.org/1999/xlink">
<g id="graph0" class="graph" transform="scale(1 1) rotate(0) translate(4 251.75)">
<title>source/tmc2209.c</title>
<!-- Node1 -->
<g id="Node000001" class="node">
<title>Node1</title>
<g id="a_Node000001"><a xlink:title=" ">
<polygon fill="#999999" stroke="#666666" points="620.12,-247.75 517.88,-247.75 517.88,-227 620.12,-227 620.12,-247.75"/>
<text xml:space="preserve" text-anchor="middle" x="569" y="-234.25" font-family="Helvetica,sans-Serif" font-size="10.00">source/tmc2209.c</text>
</a>
</g>
</g>
<!-- Node2 -->
<g id="Node000002" class="node">
<title>Node2</title>
<g id="a_Node000002"><a xlink:href="tmc2209_8h.html" target="_top" xlink:title=" ">
<polygon fill="white" stroke="#666666" points="457.88,-191 390.12,-191 390.12,-170.25 457.88,-170.25 457.88,-191"/>
<text xml:space="preserve" text-anchor="middle" x="424" y="-177.5" font-family="Helvetica,sans-Serif" font-size="10.00">tmc2209.h</text>
</a>
</g>
</g>
<!-- Node1&#45;&gt;Node2 -->
<g id="edge1_Node000001_Node000002" class="edge">
<title>Node1&#45;&gt;Node2</title>
<g id="a_edge1_Node000001_Node000002"><a xlink:title=" ">
<path fill="none" stroke="#63b8ff" d="M543.08,-226.59C519.98,-217.87 485.96,-205.02 460.18,-195.29"/>
<polygon fill="#63b8ff" stroke="#63b8ff" points="461.71,-192.12 451.11,-191.86 459.23,-198.67 461.71,-192.12"/>
</a>
</g>
</g>
<!-- Node3 -->
<g id="Node000003" class="node">
<title>Node3</title>
<g id="a_Node000003"><a xlink:title=" ">
<polygon fill="#e0e0e0" stroke="#999999" points="487.5,-20.75 402.5,-20.75 402.5,0 487.5,0 487.5,-20.75"/>
<text xml:space="preserve" text-anchor="middle" x="445" y="-7.25" font-family="Helvetica,sans-Serif" font-size="10.00">fsl_common.h</text>
</a>
</g>
</g>
<!-- Node1&#45;&gt;Node3 -->
<g id="edge19_Node000001_Node000003" class="edge">
<title>Node1&#45;&gt;Node3</title>
<g id="a_edge19_Node000001_Node000003"><a xlink:title=" ">
<path fill="none" stroke="#63b8ff" d="M561.06,-226.68C553.96,-217.75 543.55,-203.96 536,-191 503,-134.38 506.73,-114.1 475,-56.75 470.1,-47.9 464.06,-38.52 458.68,-30.59"/>
<polygon fill="#63b8ff" stroke="#63b8ff" points="461.58,-28.64 453,-22.43 455.83,-32.64 461.58,-28.64"/>
</a>
</g>
</g>
<!-- Node6 -->
<g id="Node000006" class="node">
<title>Node6</title>
<g id="a_Node000006"><a xlink:href="task__helpers_8h.html" target="_top" xlink:title=" ">
<polygon fill="white" stroke="#666666" points="243.62,-134.25 156.38,-134.25 156.38,-113.5 243.62,-113.5 243.62,-134.25"/>
<text xml:space="preserve" text-anchor="middle" x="200" y="-120.75" font-family="Helvetica,sans-Serif" font-size="10.00">task_helpers.h</text>
</a>
</g>
</g>
<!-- Node1&#45;&gt;Node6 -->
<g id="edge18_Node000001_Node000006" class="edge">
<title>Node1&#45;&gt;Node6</title>
<g id="a_edge18_Node000001_Node000006"><a xlink:title=" ">
<path fill="none" stroke="#63b8ff" d="M517.63,-233.18C441.17,-227.71 301.75,-214.78 258,-191 237.94,-180.1 221.53,-159.38 211.35,-144.03"/>
<polygon fill="#63b8ff" stroke="#63b8ff" points="214.41,-142.33 206.13,-135.72 208.49,-146.05 214.41,-142.33"/>
</a>
</g>
</g>
<!-- Node9 -->
<g id="Node000009" class="node">
<title>Node9</title>
<g id="a_Node000009"><a xlink:href="log_8h.html" target="_top" xlink:title=" ">
<polygon fill="white" stroke="#666666" points="433,-77.5 393,-77.5 393,-56.75 433,-56.75 433,-77.5"/>
<text xml:space="preserve" text-anchor="middle" x="413" y="-64" font-family="Helvetica,sans-Serif" font-size="10.00">log.h</text>
</a>
</g>
</g>
<!-- Node1&#45;&gt;Node9 -->
<g id="edge15_Node000001_Node000009" class="edge">
<title>Node1&#45;&gt;Node9</title>
<g id="a_edge15_Node000001_Node000009"><a xlink:title=" ">
<path fill="none" stroke="#63b8ff" d="M517.62,-235.92C450.04,-232.1 334.77,-213.6 291,-134.25 286.55,-126.17 285.74,-121.07 291,-113.5 296.42,-105.71 347.27,-88.6 381.59,-77.76"/>
<polygon fill="#63b8ff" stroke="#63b8ff" points="382.56,-81.12 391.06,-74.8 380.47,-74.44 382.56,-81.12"/>
</a>
</g>
</g>
<!-- Node13 -->
<g id="Node000013" class="node">
<title>Node13</title>
<g id="a_Node000013"><a xlink:title=" ">
<polygon fill="#e0e0e0" stroke="#999999" points="593.5,-191 544.5,-191 544.5,-170.25 593.5,-170.25 593.5,-191"/>
<text xml:space="preserve" text-anchor="middle" x="569" y="-177.5" font-family="Helvetica,sans-Serif" font-size="10.00">stdio.h</text>
</a>
</g>
</g>
<!-- Node1&#45;&gt;Node13 -->
<g id="edge16_Node000001_Node000013" class="edge">
<title>Node1&#45;&gt;Node13</title>
<g id="a_edge16_Node000001_Node000013"><a xlink:title=" ">
<path fill="none" stroke="#63b8ff" d="M569,-226.59C569,-219.97 569,-210.97 569,-202.77"/>
<polygon fill="#63b8ff" stroke="#63b8ff" points="572.5,-202.84 569,-192.84 565.5,-202.84 572.5,-202.84"/>
</a>
</g>
</g>
<!-- Node14 -->
<g id="Node000014" class="node">
<title>Node14</title>
<g id="a_Node000014"><a xlink:title=" ">
<polygon fill="#e0e0e0" stroke="#999999" points="662.25,-191 611.75,-191 611.75,-170.25 662.25,-170.25 662.25,-191"/>
<text xml:space="preserve" text-anchor="middle" x="637" y="-177.5" font-family="Helvetica,sans-Serif" font-size="10.00">math.h</text>
</a>
</g>
</g>
<!-- Node1&#45;&gt;Node14 -->
<g id="edge17_Node000001_Node000014" class="edge">
<title>Node1&#45;&gt;Node14</title>
<g id="a_edge17_Node000001_Node000014"><a xlink:title=" ">
<path fill="none" stroke="#63b8ff" d="M581.16,-226.59C590.83,-218.8 604.58,-207.72 616.02,-198.51"/>
<polygon fill="#63b8ff" stroke="#63b8ff" points="618.18,-201.28 623.77,-192.28 613.79,-195.82 618.18,-201.28"/>
</a>
</g>
</g>
<!-- Node15 -->
<g id="Node000015" class="node">
<title>Node15</title>
<g id="a_Node000015"><a xlink:title=" ">
<polygon fill="#e0e0e0" stroke="#999999" points="739.38,-191 680.62,-191 680.62,-170.25 739.38,-170.25 739.38,-191"/>
<text xml:space="preserve" text-anchor="middle" x="710" y="-177.5" font-family="Helvetica,sans-Serif" font-size="10.00">fsl_ftm.h</text>
</a>
</g>
</g>
<!-- Node1&#45;&gt;Node15 -->
<g id="edge20_Node000001_Node000015" class="edge">
<title>Node1&#45;&gt;Node15</title>
<g id="a_edge20_Node000001_Node000015"><a xlink:title=" ">
<path fill="none" stroke="#63b8ff" d="M594.21,-226.59C616.56,-217.91 649.46,-205.13 674.48,-195.42"/>
<polygon fill="#63b8ff" stroke="#63b8ff" points="675.54,-198.76 683.6,-191.88 673.01,-192.23 675.54,-198.76"/>
</a>
</g>
</g>
<!-- Node16 -->
<g id="Node000016" class="node">
<title>Node16</title>
<g id="a_Node000016"><a xlink:title=" ">
<polygon fill="#e0e0e0" stroke="#999999" points="820.62,-191 757.38,-191 757.38,-170.25 820.62,-170.25 820.62,-191"/>
<text xml:space="preserve" text-anchor="middle" x="789" y="-177.5" font-family="Helvetica,sans-Serif" font-size="10.00">fsl_gpio.h</text>
</a>
</g>
</g>
<!-- Node1&#45;&gt;Node16 -->
<g id="edge21_Node000001_Node000016" class="edge">
<title>Node1&#45;&gt;Node16</title>
<g id="a_edge21_Node000001_Node000016"><a xlink:title=" ">
<path fill="none" stroke="#63b8ff" d="M608.59,-226.52C647.29,-216.89 706.06,-202.27 745.92,-192.35"/>
<polygon fill="#63b8ff" stroke="#63b8ff" points="746.55,-195.8 755.41,-189.98 744.86,-189 746.55,-195.8"/>
</a>
</g>
</g>
<!-- Node17 -->
<g id="Node000017" class="node">
<title>Node17</title>
<g id="a_Node000017"><a xlink:title=" ">
<polygon fill="#e0e0e0" stroke="#999999" points="900.88,-191 839.12,-191 839.12,-170.25 900.88,-170.25 900.88,-191"/>
<text xml:space="preserve" text-anchor="middle" x="870" y="-177.5" font-family="Helvetica,sans-Serif" font-size="10.00">fsl_port.h</text>
</a>
</g>
</g>
<!-- Node1&#45;&gt;Node17 -->
<g id="edge22_Node000001_Node000017" class="edge">
<title>Node1&#45;&gt;Node17</title>
<g id="a_edge22_Node000001_Node000017"><a xlink:title=" ">
<path fill="none" stroke="#63b8ff" d="M620.18,-228.38C670.55,-220.31 749.92,-207.05 828.02,-191.31"/>
<polygon fill="#63b8ff" stroke="#63b8ff" points="828.44,-194.79 837.55,-189.37 827.05,-187.93 828.44,-194.79"/>
</a>
</g>
</g>
<!-- Node2&#45;&gt;Node3 -->
<g id="edge2_Node000002_Node000003" class="edge">
<title>Node2&#45;&gt;Node3</title>
<g id="a_edge2_Node000002_Node000003"><a xlink:title=" ">
<path fill="none" stroke="#63b8ff" d="M434.56,-169.99C443,-161.53 454.19,-148.38 459,-134.25 470.79,-99.67 460.72,-56.77 452.64,-31.89"/>
<polygon fill="#63b8ff" stroke="#63b8ff" points="456.03,-30.97 449.44,-22.67 449.41,-33.27 456.03,-30.97"/>
</a>
</g>
</g>
<!-- Node4 -->
<g id="Node000004" class="node">
<title>Node4</title>
<g id="a_Node000004"><a xlink:title=" ">
<polygon fill="#e0e0e0" stroke="#999999" points="379.88,-134.25 300.12,-134.25 300.12,-113.5 379.88,-113.5 379.88,-134.25"/>
<text xml:space="preserve" text-anchor="middle" x="340" y="-120.75" font-family="Helvetica,sans-Serif" font-size="10.00">peripherals.h</text>
</a>
</g>
</g>
<!-- Node2&#45;&gt;Node4 -->
<g id="edge3_Node000002_Node000004" class="edge">
<title>Node2&#45;&gt;Node4</title>
<g id="a_edge3_Node000002_Node000004"><a xlink:title=" ">
<path fill="none" stroke="#63b8ff" d="M408.98,-169.84C396.56,-161.74 378.68,-150.08 364.23,-140.67"/>
<polygon fill="#63b8ff" stroke="#63b8ff" points="366.44,-137.93 356.16,-135.4 362.62,-143.8 366.44,-137.93"/>
</a>
</g>
</g>
<!-- Node5 -->
<g id="Node000005" class="node">
<title>Node5</title>
<g id="a_Node000005"><a xlink:title=" ">
<polygon fill="#e0e0e0" stroke="#999999" points="450.38,-134.25 397.62,-134.25 397.62,-113.5 450.38,-113.5 450.38,-134.25"/>
<text xml:space="preserve" text-anchor="middle" x="424" y="-120.75" font-family="Helvetica,sans-Serif" font-size="10.00">stdint.h</text>
</a>
</g>
</g>
<!-- Node2&#45;&gt;Node5 -->
<g id="edge4_Node000002_Node000005" class="edge">
<title>Node2&#45;&gt;Node5</title>
<g id="a_edge4_Node000002_Node000005"><a xlink:title=" ">
<path fill="none" stroke="#63b8ff" d="M424,-169.84C424,-163.22 424,-154.22 424,-146.02"/>
<polygon fill="#63b8ff" stroke="#63b8ff" points="427.5,-146.09 424,-136.09 420.5,-146.09 427.5,-146.09"/>
</a>
</g>
</g>
<!-- Node2&#45;&gt;Node6 -->
<g id="edge5_Node000002_Node000006" class="edge">
<title>Node2&#45;&gt;Node6</title>
<g id="a_edge5_Node000002_Node000006"><a xlink:title=" ">
<path fill="none" stroke="#63b8ff" d="M389.98,-171.31C353.02,-162.28 293.56,-147.74 251,-137.34"/>
<polygon fill="#63b8ff" stroke="#63b8ff" points="252.04,-133.99 241.5,-135.02 250.38,-140.79 252.04,-133.99"/>
</a>
</g>
</g>
<!-- Node6&#45;&gt;Node3 -->
<g id="edge8_Node000006_Node000003" class="edge">
<title>Node6&#45;&gt;Node3</title>
<g id="a_edge8_Node000006_Node000003"><a xlink:title=" ">
<path fill="none" stroke="#63b8ff" d="M242.75,-113.06C272.52,-105.4 312.7,-93.39 346,-77.5 374.59,-63.86 404.44,-42.85 423.79,-28.18"/>
<polygon fill="#63b8ff" stroke="#63b8ff" points="425.9,-30.97 431.68,-22.09 421.63,-25.42 425.9,-30.97"/>
</a>
</g>
</g>
<!-- Node7 -->
<g id="Node000007" class="node">
<title>Node7</title>
<g id="a_Node000007"><a xlink:title=" ">
<polygon fill="#e0e0e0" stroke="#999999" points="298.75,-20.75 227.25,-20.75 227.25,0 298.75,0 298.75,-20.75"/>
<text xml:space="preserve" text-anchor="middle" x="263" y="-7.25" font-family="Helvetica,sans-Serif" font-size="10.00">FreeRTOS.h</text>
</a>
</g>
</g>
<!-- Node6&#45;&gt;Node7 -->
<g id="edge6_Node000006_Node000007" class="edge">
<title>Node6&#45;&gt;Node7</title>
<g id="a_edge6_Node000006_Node000007"><a xlink:title=" ">
<path fill="none" stroke="#63b8ff" d="M187.49,-113.02C172.4,-99.9 150.53,-76.1 163,-56.75 174.85,-38.36 196.17,-27.34 216.09,-20.78"/>
<polygon fill="#63b8ff" stroke="#63b8ff" points="216.89,-24.19 225.49,-18 214.91,-17.48 216.89,-24.19"/>
</a>
</g>
</g>
<!-- Node8 -->
<g id="Node000008" class="node">
<title>Node8</title>
<g id="a_Node000008"><a xlink:title=" ">
<polygon fill="#e0e0e0" stroke="#999999" points="46,-77.5 0,-77.5 0,-56.75 46,-56.75 46,-77.5"/>
<text xml:space="preserve" text-anchor="middle" x="23" y="-64" font-family="Helvetica,sans-Serif" font-size="10.00">task.h</text>
</a>
</g>
</g>
<!-- Node6&#45;&gt;Node8 -->
<g id="edge7_Node000006_Node000008" class="edge">
<title>Node6&#45;&gt;Node8</title>
<g id="a_edge7_Node000006_Node000008"><a xlink:title=" ">
<path fill="none" stroke="#63b8ff" d="M168.36,-113.09C137.05,-103.4 89.27,-88.62 57.12,-78.68"/>
<polygon fill="#63b8ff" stroke="#63b8ff" points="58.49,-75.44 47.9,-75.83 56.42,-82.13 58.49,-75.44"/>
</a>
</g>
</g>
<!-- Node6&#45;&gt;Node9 -->
<g id="edge9_Node000006_Node000009" class="edge">
<title>Node6&#45;&gt;Node9</title>
<g id="a_edge9_Node000006_Node000009"><a xlink:title=" ">
<path fill="none" stroke="#63b8ff" d="M239.87,-113.02C276.19,-103.98 331.27,-90.13 379,-77.5 379.82,-77.28 380.65,-77.06 381.49,-76.84"/>
<polygon fill="#63b8ff" stroke="#63b8ff" points="382.33,-80.24 391.06,-74.24 380.49,-73.48 382.33,-80.24"/>
</a>
</g>
</g>
<!-- Node10 -->
<g id="Node000010" class="node">
<title>Node10</title>
<g id="a_Node000010"><a xlink:title=" ">
<polygon fill="#e0e0e0" stroke="#999999" points="116.38,-77.5 63.62,-77.5 63.62,-56.75 116.38,-56.75 116.38,-77.5"/>
<text xml:space="preserve" text-anchor="middle" x="90" y="-64" font-family="Helvetica,sans-Serif" font-size="10.00">string.h</text>
</a>
</g>
</g>
<!-- Node6&#45;&gt;Node10 -->
<g id="edge12_Node000006_Node000010" class="edge">
<title>Node6&#45;&gt;Node10</title>
<g id="a_edge12_Node000006_Node000010"><a xlink:title=" ">
<path fill="none" stroke="#63b8ff" d="M180.33,-113.09C163.44,-104.68 138.83,-92.43 119.57,-82.84"/>
<polygon fill="#63b8ff" stroke="#63b8ff" points="121.36,-79.83 110.85,-78.5 118.24,-86.09 121.36,-79.83"/>
</a>
</g>
</g>
<!-- Node11 -->
<g id="Node000011" class="node">
<title>Node11</title>
<g id="a_Node000011"><a xlink:title=" ">
<polygon fill="#e0e0e0" stroke="#999999" points="263.5,-77.5 172.5,-77.5 172.5,-56.75 263.5,-56.75 263.5,-77.5"/>
<text xml:space="preserve" text-anchor="middle" x="218" y="-64" font-family="Helvetica,sans-Serif" font-size="10.00">event_groups.h</text>
</a>
</g>
</g>
<!-- Node6&#45;&gt;Node11 -->
<g id="edge13_Node000006_Node000011" class="edge">
<title>Node6&#45;&gt;Node11</title>
<g id="a_edge13_Node000006_Node000011"><a xlink:title=" ">
<path fill="none" stroke="#63b8ff" d="M203.22,-113.09C205.44,-106.31 208.49,-97.05 211.24,-88.69"/>
<polygon fill="#63b8ff" stroke="#63b8ff" points="214.54,-89.86 214.34,-79.27 207.89,-87.67 214.54,-89.86"/>
</a>
</g>
</g>
<!-- Node12 -->
<g id="Node000012" class="node">
<title>Node12</title>
<g id="a_Node000012"><a xlink:title=" ">
<polygon fill="#e0e0e0" stroke="#999999" points="336.5,-77.5 281.5,-77.5 281.5,-56.75 336.5,-56.75 336.5,-77.5"/>
<text xml:space="preserve" text-anchor="middle" x="309" y="-64" font-family="Helvetica,sans-Serif" font-size="10.00">queue.h</text>
</a>
</g>
</g>
<!-- Node6&#45;&gt;Node12 -->
<g id="edge14_Node000006_Node000012" class="edge">
<title>Node6&#45;&gt;Node12</title>
<g id="a_edge14_Node000006_Node000012"><a xlink:title=" ">
<path fill="none" stroke="#63b8ff" d="M219.49,-113.09C236.15,-104.72 260.38,-92.54 279.44,-82.97"/>
<polygon fill="#63b8ff" stroke="#63b8ff" points="280.96,-86.12 288.33,-78.51 277.82,-79.87 280.96,-86.12"/>
</a>
</g>
</g>
<!-- Node9&#45;&gt;Node3 -->
<g id="edge11_Node000009_Node000003" class="edge">
<title>Node9&#45;&gt;Node3</title>
<g id="a_edge11_Node000009_Node000003"><a xlink:title=" ">
<path fill="none" stroke="#63b8ff" d="M418.72,-56.34C422.86,-49.25 428.6,-39.44 433.65,-30.79"/>
<polygon fill="#63b8ff" stroke="#63b8ff" points="436.54,-32.78 438.56,-22.39 430.5,-29.25 436.54,-32.78"/>
</a>
</g>
</g>
<!-- Node9&#45;&gt;Node7 -->
<g id="edge10_Node000009_Node000007" class="edge">
<title>Node9&#45;&gt;Node7</title>
<g id="a_edge10_Node000009_Node000007"><a xlink:title=" ">
<path fill="none" stroke="#63b8ff" d="M392.77,-58.74C369.23,-50.15 329.86,-35.78 300.64,-25.11"/>
<polygon fill="#63b8ff" stroke="#63b8ff" points="302.01,-21.89 291.42,-21.75 299.61,-28.46 302.01,-21.89"/>
</a>
</g>
</g>
</g>
</svg>
