<?xml version="1.0" encoding="UTF-8" standalone="no"?>
<!DOCTYPE svg PUBLIC "-//W3C//DTD SVG 1.1//EN"
 "http://www.w3.org/Graphics/SVG/1.1/DTD/svg11.dtd">
<!-- Generated by graphviz version 14.1.3 (0)
 -->
<!-- Title: source/tmc2209.c Pages: 1 -->
<svg width="464pt" height="199pt"
 viewBox="0.00 0.00 464.00 199.00" xmlns="http://www.w3.org/2000/svg" xmlns:xlink="http://www.w3.org/1999/xlink">
<g id="graph0" class="graph" transform="scale(1 1) rotate(0) translate(4 195)">
<title>source/tmc2209.c</title>
<!-- Node1 -->
<g id="Node000001" class="node">
<title>Node1</title>
<g id="a_Node000001"><a xlink:title=" ">
<polygon fill="#999999" stroke="#666666" points="329.12,-191 226.88,-191 226.88,-170.25 329.12,-170.25 329.12,-191"/>
<text xml:space="preserve" text-anchor="middle" x="278" y="-177.5" font-family="Helvetica,sans-Serif" font-size="10.00">source/tmc2209.c</text>
</a>
</g>
</g>
<!-- Node2 -->
<g id="Node000002" class="node">
<title>Node2</title>
<g id="a_Node000002"><a xlink:href="tmc2209_8h.html" target="_top" xlink:title=" ">
<polygon fill="white" stroke="#666666" points="311.88,-134.25 244.12,-134.25 244.12,-113.5 311.88,-113.5 311.88,-134.25"/>
<text xml:space="preserve" text-anchor="middle" x="278" y="-120.75" font-family="Helvetica,sans-Serif" font-size="10.00">tmc2209.h</text>
</a>
</g>
</g>
<!-- Node1&#45;&gt;Node2 -->
<g id="edge1_Node000001_Node000002" class="edge">
<title>Node1&#45;&gt;Node2</title>
<g id="a_edge1_Node000001_Node000002"><a xlink:title=" ">
<path fill="none" stroke="#63b8ff" d="M278,-169.84C278,-163.22 278,-154.22 278,-146.02"/>
<polygon fill="#63b8ff" stroke="#63b8ff" points="281.5,-146.09 278,-136.09 274.5,-146.09 281.5,-146.09"/>
</a>
</g>
</g>
<!-- Node6 -->
<g id="Node000006" class="node">
<title>Node6</title>
<g id="a_Node000006"><a xlink:href="log_8h.html" target="_top" xlink:title=" ">
<polygon fill="white" stroke="#666666" points="40,-77.5 0,-77.5 0,-56.75 40,-56.75 40,-77.5"/>
<text xml:space="preserve" text-anchor="middle" x="20" y="-64" font-family="Helvetica,sans-Serif" font-size="10.00">log.h</text>
</a>
</g>
</g>
<!-- Node1&#45;&gt;Node6 -->
<g id="edge5_Node000001_Node000006" class="edge">
<title>Node1&#45;&gt;Node6</title>
<g id="a_edge5_Node000001_Node000006"><a xlink:title=" ">
<path fill="none" stroke="#63b8ff" d="M226.45,-172.84C189.46,-166.5 139.25,-154.83 99,-134.25 74.77,-121.86 51.44,-100.84 36.49,-85.83"/>
<polygon fill="#63b8ff" stroke="#63b8ff" points="39.24,-83.63 29.77,-78.88 34.21,-88.5 39.24,-83.63"/>
</a>
</g>
</g>
<!-- Node8 -->
<g id="Node000008" class="node">
<title>Node8</title>
<g id="a_Node000008"><a xlink:title=" ">
<polygon fill="#e0e0e0" stroke="#999999" points="378.5,-134.25 329.5,-134.25 329.5,-113.5 378.5,-113.5 378.5,-134.25"/>
<text xml:space="preserve" text-anchor="middle" x="354" y="-120.75" font-family="Helvetica,sans-Serif" font-size="10.00">stdio.h</text>
</a>
</g>
</g>
<!-- Node1&#45;&gt;Node8 -->
<g id="edge8_Node000001_Node000008" class="edge">
<title>Node1&#45;&gt;Node8</title>
<g id="a_edge8_Node000001_Node000008"><a xlink:title=" ">
<path fill="none" stroke="#63b8ff" d="M291.59,-169.84C302.61,-161.9 318.39,-150.53 331.32,-141.21"/>
<polygon fill="#63b8ff" stroke="#63b8ff" points="333.23,-144.15 339.3,-135.46 329.14,-138.47 333.23,-144.15"/>
</a>
</g>
</g>
<!-- Node9 -->
<g id="Node000009" class="node">
<title>Node9</title>
<g id="a_Node000009"><a xlink:title=" ">
<polygon fill="#e0e0e0" stroke="#999999" points="447.25,-134.25 396.75,-134.25 396.75,-113.5 447.25,-113.5 447.25,-134.25"/>
<text xml:space="preserve" text-anchor="middle" x="422" y="-120.75" font-family="Helvetica,sans-Serif" font-size="10.00">math.h</text>
</a>
</g>
</g>
<!-- Node1&#45;&gt;Node9 -->
<g id="edge9_Node000001_Node000009" class="edge">
<title>Node1&#45;&gt;Node9</title>
<g id="a_edge9_Node000001_Node000009"><a xlink:title=" ">
<path fill="none" stroke="#63b8ff" d="M303.74,-169.84C326.58,-161.16 360.17,-148.38 385.72,-138.67"/>
<polygon fill="#63b8ff" stroke="#63b8ff" points="386.96,-141.94 395.06,-135.12 384.47,-135.4 386.96,-141.94"/>
</a>
</g>
</g>
<!-- Node10 -->
<g id="Node000010" class="node">
<title>Node10</title>
<g id="a_Node000010"><a xlink:href="task__helpers_8h.html" target="_top" xlink:title=" ">
<polygon fill="white" stroke="#666666" points="195.62,-134.25 108.38,-134.25 108.38,-113.5 195.62,-113.5 195.62,-134.25"/>
<text xml:space="preserve" text-anchor="middle" x="152" y="-120.75" font-family="Helvetica,sans-Serif" font-size="10.00">task_helpers.h</text>
</a>
</g>
</g>
<!-- Node1&#45;&gt;Node10 -->
<g id="edge10_Node000001_Node000010" class="edge">
<title>Node1&#45;&gt;Node10</title>
<g id="a_edge10_Node000001_Node000010"><a xlink:title=" ">
<path fill="none" stroke="#63b8ff" d="M255.47,-169.84C235.76,-161.27 206.89,-148.73 184.65,-139.06"/>
<polygon fill="#63b8ff" stroke="#63b8ff" points="186.29,-135.96 175.72,-135.18 183.5,-142.38 186.29,-135.96"/>
</a>
</g>
</g>
<!-- Node3 -->
<g id="Node000003" class="node">
<title>Node3</title>
<g id="a_Node000003"><a xlink:title=" ">
<polygon fill="#e0e0e0" stroke="#999999" points="282.5,-20.75 197.5,-20.75 197.5,0 282.5,0 282.5,-20.75"/>
<text xml:space="preserve" text-anchor="middle" x="240" y="-7.25" font-family="Helvetica,sans-Serif" font-size="10.00">fsl_common.h</text>
</a>
</g>
</g>
<!-- Node2&#45;&gt;Node3 -->
<g id="edge2_Node000002_Node000003" class="edge">
<title>Node2&#45;&gt;Node3</title>
<g id="a_edge2_Node000002_Node000003"><a xlink:title=" ">
<path fill="none" stroke="#63b8ff" d="M274.76,-113.37C268.65,-95.44 255.29,-56.25 247.03,-32.01"/>
<polygon fill="#63b8ff" stroke="#63b8ff" points="250.37,-30.94 243.83,-22.61 243.74,-33.2 250.37,-30.94"/>
</a>
</g>
</g>
<!-- Node4 -->
<g id="Node000004" class="node">
<title>Node4</title>
<g id="a_Node000004"><a xlink:title=" ">
<polygon fill="#e0e0e0" stroke="#999999" points="385.88,-77.5 306.12,-77.5 306.12,-56.75 385.88,-56.75 385.88,-77.5"/>
<text xml:space="preserve" text-anchor="middle" x="346" y="-64" font-family="Helvetica,sans-Serif" font-size="10.00">peripherals.h</text>
</a>
</g>
</g>
<!-- Node2&#45;&gt;Node4 -->
<g id="edge3_Node000002_Node000004" class="edge">
<title>Node2&#45;&gt;Node4</title>
<g id="a_edge3_Node000002_Node000004"><a xlink:title=" ">
<path fill="none" stroke="#63b8ff" d="M290.16,-113.09C299.83,-105.3 313.58,-94.22 325.02,-85.01"/>
<polygon fill="#63b8ff" stroke="#63b8ff" points="327.18,-87.78 332.77,-78.78 322.79,-82.32 327.18,-87.78"/>
</a>
</g>
</g>
<!-- Node5 -->
<g id="Node000005" class="node">
<title>Node5</title>
<g id="a_Node000005"><a xlink:title=" ">
<polygon fill="#e0e0e0" stroke="#999999" points="456.38,-77.5 403.62,-77.5 403.62,-56.75 456.38,-56.75 456.38,-77.5"/>
<text xml:space="preserve" text-anchor="middle" x="430" y="-64" font-family="Helvetica,sans-Serif" font-size="10.00">stdint.h</text>
</a>
</g>
</g>
<!-- Node2&#45;&gt;Node5 -->
<g id="edge4_Node000002_Node000005" class="edge">
<title>Node2&#45;&gt;Node5</title>
<g id="a_edge4_Node000002_Node000005"><a xlink:title=" ">
<path fill="none" stroke="#63b8ff" d="M305.17,-113.09C329.57,-104.3 365.59,-91.32 392.68,-81.57"/>
<polygon fill="#63b8ff" stroke="#63b8ff" points="393.67,-84.93 401.89,-78.25 391.3,-78.35 393.67,-84.93"/>
</a>
</g>
</g>
<!-- Node6&#45;&gt;Node3 -->
<g id="edge7_Node000006_Node000003" class="edge">
<title>Node6&#45;&gt;Node3</title>
<g id="a_edge7_Node000006_Node000003"><a xlink:title=" ">
<path fill="none" stroke="#63b8ff" d="M40.3,-61.07C73.98,-52.69 142.37,-35.67 189.67,-23.9"/>
<polygon fill="#63b8ff" stroke="#63b8ff" points="190.28,-27.36 199.14,-21.54 188.59,-20.56 190.28,-27.36"/>
</a>
</g>
</g>
<!-- Node7 -->
<g id="Node000007" class="node">
<title>Node7</title>
<g id="a_Node000007"><a xlink:title=" ">
<polygon fill="#e0e0e0" stroke="#999999" points="79.75,-20.75 8.25,-20.75 8.25,0 79.75,0 79.75,-20.75"/>
<text xml:space="preserve" text-anchor="middle" x="44" y="-7.25" font-family="Helvetica,sans-Serif" font-size="10.00">FreeRTOS.h</text>
</a>
</g>
</g>
<!-- Node6&#45;&gt;Node7 -->
<g id="edge6_Node000006_Node000007" class="edge">
<title>Node6&#45;&gt;Node7</title>
<g id="a_edge6_Node000006_Node000007"><a xlink:title=" ">
<path fill="none" stroke="#63b8ff" d="M24.29,-56.34C27.33,-49.41 31.51,-39.87 35.24,-31.36"/>
<polygon fill="#63b8ff" stroke="#63b8ff" points="38.33,-33.03 39.14,-22.46 31.92,-30.22 38.33,-33.03"/>
</a>
</g>
</g>
<!-- Node10&#45;&gt;Node3 -->
<g id="edge13_Node000010_Node000003" class="edge">
<title>Node10&#45;&gt;Node3</title>
<g id="a_edge13_Node000010_Node000003"><a xlink:title=" ">
<path fill="none" stroke="#63b8ff" d="M174.66,-113.16C189.86,-105.55 209.19,-93.55 221,-77.5 230.76,-64.24 235.52,-46.1 237.83,-32.17"/>
<polygon fill="#63b8ff" stroke="#63b8ff" points="241.29,-32.69 239.14,-22.32 234.35,-31.77 241.29,-32.69"/>
</a>
</g>
</g>
<!-- Node10&#45;&gt;Node6 -->
<g id="edge14_Node000010_Node000006" class="edge">
<title>Node10&#45;&gt;Node6</title>
<g id="a_edge14_Node000010_Node000006"><a xlink:title=" ">
<path fill="none" stroke="#63b8ff" d="M128.4,-113.09C106.76,-104.11 74.58,-90.76 50.9,-80.94"/>
<polygon fill="#63b8ff" stroke="#63b8ff" points="52.34,-77.75 41.76,-77.15 49.66,-84.22 52.34,-77.75"/>
</a>
</g>
</g>
<!-- Node10&#45;&gt;Node7 -->
<g id="edge11_Node000010_Node000007" class="edge">
<title>Node10&#45;&gt;Node7</title>
<g id="a_edge11_Node000010_Node000007"><a xlink:title=" ">
<path fill="none" stroke="#63b8ff" d="M134.33,-113.11C120.41,-104.84 101.07,-92.04 87,-77.5 73.63,-63.68 61.98,-45.12 54.2,-31.18"/>
<polygon fill="#63b8ff" stroke="#63b8ff" points="57.35,-29.66 49.54,-22.51 51.19,-32.97 57.35,-29.66"/>
</a>
</g>
</g>
<!-- Node11 -->
<g id="Node000011" class="node">
<title>Node11</title>
<g id="a_Node000011"><a xlink:title=" ">
<polygon fill="#e0e0e0" stroke="#999999" points="212,-77.5 166,-77.5 166,-56.75 212,-56.75 212,-77.5"/>
<text xml:space="preserve" text-anchor="middle" x="189" y="-64" font-family="Helvetica,sans-Serif" font-size="10.00">task.h</text>
</a>
</g>
</g>
<!-- Node10&#45;&gt;Node11 -->
<g id="edge12_Node000010_Node000011" class="edge">
<title>Node10&#45;&gt;Node11</title>
<g id="a_edge12_Node000010_Node000011"><a xlink:title=" ">
<path fill="none" stroke="#63b8ff" d="M158.61,-113.09C163.46,-105.92 170.18,-95.98 176.07,-87.26"/>
<polygon fill="#63b8ff" stroke="#63b8ff" points="178.9,-89.33 181.59,-79.08 173.1,-85.41 178.9,-89.33"/>
</a>
</g>
</g>
<!-- Node12 -->
<g id="Node000012" class="node">
<title>Node12</title>
<g id="a_Node000012"><a xlink:title=" ">
<polygon fill="#e0e0e0" stroke="#999999" points="148.38,-77.5 95.62,-77.5 95.62,-56.75 148.38,-56.75 148.38,-77.5"/>
<text xml:space="preserve" text-anchor="middle" x="122" y="-64" font-family="Helvetica,sans-Serif" font-size="10.00">string.h</text>
</a>
</g>
</g>
<!-- Node10&#45;&gt;Node12 -->
<g id="edge15_Node000010_Node000012" class="edge">
<title>Node10&#45;&gt;Node12</title>
<g id="a_edge15_Node000010_Node000012"><a xlink:title=" ">
<path fill="none" stroke="#63b8ff" d="M146.64,-113.09C142.8,-106.08 137.5,-96.41 132.8,-87.83"/>
<polygon fill="#63b8ff" stroke="#63b8ff" points="135.92,-86.24 128.04,-79.16 129.78,-89.61 135.92,-86.24"/>
</a>
</g>
</g>
</g>
</svg>
