<?xml version="1.0" encoding="UTF-8" standalone="no"?>
<!DOCTYPE svg PUBLIC "-//W3C//DTD SVG 1.1//EN"
 "http://www.w3.org/Graphics/SVG/1.1/DTD/svg11.dtd">
<!-- Generated by graphviz version 14.1.5 (0)
 -->
<!-- Title: source/driver/tmc2209/tmc2209_uart.c Pages: 1 -->
<svg width="694pt" height="269pt"
 viewBox="0.00 0.00 694.00 269.00" xmlns="http://www.w3.org/2000/svg" xmlns:xlink="http://www.w3.org/1999/xlink">
<g id="graph0" class="graph" transform="scale(1 1) rotate(0) translate(4 264.5)">
<title>source/driver/tmc2209/tmc2209_uart.c</title>
<!-- Node1 -->
<g id="Node000001" class="node">
<title>Node1</title>
<g id="a_Node000001"><a xlink:title=" ">
<polygon fill="#999999" stroke="#666666" points="495.5,-260.5 370,-260.5 370,-227 495.5,-227 495.5,-260.5"/>
<text xml:space="preserve" text-anchor="start" x="378" y="-247" font-family="Helvetica,sans-Serif" font-size="10.00">source/driver/tmc2209</text>
<text xml:space="preserve" text-anchor="middle" x="432.75" y="-234.25" font-family="Helvetica,sans-Serif" font-size="10.00">/tmc2209_uart.c</text>
</a>
</g>
</g>
<!-- Node2 -->
<g id="Node000002" class="node">
<title>Node2</title>
<g id="a_Node000002"><a xlink:href="log_8h.html" target="_top" xlink:title=" ">
<polygon fill="white" stroke="#666666" points="160.25,-77.5 51.25,-77.5 51.25,-56.75 160.25,-56.75 160.25,-77.5"/>
<text xml:space="preserve" text-anchor="middle" x="105.75" y="-64" font-family="Helvetica,sans-Serif" font-size="10.00">infrastructure/log.h</text>
</a>
</g>
</g>
<!-- Node1&#45;&gt;Node2 -->
<g id="edge1_Node000001_Node000002" class="edge">
<title>Node1&#45;&gt;Node2</title>
<g id="a_edge1_Node000001_Node000002"><a xlink:title=" ">
<path fill="none" stroke="#63b8ff" d="M369.68,-236.18C303.6,-228.25 205.24,-213.16 174.75,-191 139.75,-165.56 120.18,-116.64 111.42,-88.81"/>
<polygon fill="#63b8ff" stroke="#63b8ff" points="114.85,-88.04 108.66,-79.44 108.13,-90.02 114.85,-88.04"/>
</a>
</g>
</g>
<!-- Node3 -->
<g id="Node000003" class="node">
<title>Node3</title>
<g id="a_Node000003"><a xlink:title=" ">
<polygon fill="#e0e0e0" stroke="#999999" points="71.5,-20.75 0,-20.75 0,0 71.5,0 71.5,-20.75"/>
<text xml:space="preserve" text-anchor="middle" x="35.75" y="-7.25" font-family="Helvetica,sans-Serif" font-size="10.00">FreeRTOS.h</text>
</a>
</g>
</g>
<!-- Node1&#45;&gt;Node3 -->
<g id="edge22_Node000001_Node000003" class="edge">
<title>Node1&#45;&gt;Node3</title>
<g id="a_edge22_Node000001_Node000003"><a xlink:title=" ">
<path fill="none" stroke="#63b8ff" d="M369.56,-239.86C310.26,-235.19 220.24,-222.97 148.75,-191 82.03,-161.16 54.16,-146.39 29.75,-77.5 24.56,-62.86 26.5,-45.31 29.5,-31.97"/>
<polygon fill="#63b8ff" stroke="#63b8ff" points="32.81,-33.14 31.99,-22.57 26.04,-31.34 32.81,-33.14"/>
</a>
</g>
</g>
<!-- Node4 -->
<g id="Node000004" class="node">
<title>Node4</title>
<g id="a_Node000004"><a xlink:title=" ">
<polygon fill="#e0e0e0" stroke="#999999" points="186.25,-20.75 101.25,-20.75 101.25,0 186.25,0 186.25,-20.75"/>
<text xml:space="preserve" text-anchor="middle" x="143.75" y="-7.25" font-family="Helvetica,sans-Serif" font-size="10.00">fsl_common.h</text>
</a>
</g>
</g>
<!-- Node1&#45;&gt;Node4 -->
<g id="edge23_Node000001_Node000004" class="edge">
<title>Node1&#45;&gt;Node4</title>
<g id="a_edge23_Node000001_Node000004"><a xlink:title=" ">
<path fill="none" stroke="#63b8ff" d="M369.78,-231.17C339.59,-223.4 304.13,-210.84 276.75,-191 245.38,-168.28 182.06,-71.77 155.7,-30.37"/>
<polygon fill="#63b8ff" stroke="#63b8ff" points="158.81,-28.75 150.51,-22.17 152.9,-32.49 158.81,-28.75"/>
</a>
</g>
</g>
<!-- Node5 -->
<g id="Node000005" class="node">
<title>Node5</title>
<g id="a_Node000005"><a xlink:href="tmc2209__uart_8h.html" target="_top" xlink:title=" ">
<polygon fill="white" stroke="#666666" points="378,-191 285.5,-191 285.5,-170.25 378,-170.25 378,-191"/>
<text xml:space="preserve" text-anchor="middle" x="331.75" y="-177.5" font-family="Helvetica,sans-Serif" font-size="10.00">tmc2209_uart.h</text>
</a>
</g>
</g>
<!-- Node1&#45;&gt;Node5 -->
<g id="edge4_Node000001_Node000005" class="edge">
<title>Node1&#45;&gt;Node5</title>
<g id="a_edge4_Node000001_Node000005"><a xlink:title=" ">
<path fill="none" stroke="#63b8ff" d="M405.95,-226.53C390.94,-217.45 372.33,-206.18 357.5,-197.21"/>
<polygon fill="#63b8ff" stroke="#63b8ff" points="359.59,-194.38 349.22,-192.2 355.96,-200.37 359.59,-194.38"/>
</a>
</g>
</g>
<!-- Node6 -->
<g id="Node000006" class="node">
<title>Node6</title>
<g id="a_Node000006"><a xlink:title=" ">
<polygon fill="#e0e0e0" stroke="#999999" points="436.12,-20.75 383.38,-20.75 383.38,0 436.12,0 436.12,-20.75"/>
<text xml:space="preserve" text-anchor="middle" x="409.75" y="-7.25" font-family="Helvetica,sans-Serif" font-size="10.00">stdint.h</text>
</a>
</g>
</g>
<!-- Node1&#45;&gt;Node6 -->
<g id="edge20_Node000001_Node000006" class="edge">
<title>Node1&#45;&gt;Node6</title>
<g id="a_edge20_Node000001_Node000006"><a xlink:title=" ">
<path fill="none" stroke="#63b8ff" d="M442.84,-226.65C462.41,-193.21 501.08,-114.57 471.75,-56.75 465.36,-44.15 453.63,-34.2 442.09,-26.88"/>
<polygon fill="#63b8ff" stroke="#63b8ff" points="443.84,-23.85 433.44,-21.87 440.34,-29.91 443.84,-23.85"/>
</a>
</g>
</g>
<!-- Node7 -->
<g id="Node000007" class="node">
<title>Node7</title>
<g id="a_Node000007"><a xlink:href="tmc2209__shared_8h.html" target="_top" xlink:title=" ">
<polygon fill="white" stroke="#666666" points="462.75,-77.5 356.75,-77.5 356.75,-56.75 462.75,-56.75 462.75,-77.5"/>
<text xml:space="preserve" text-anchor="middle" x="409.75" y="-64" font-family="Helvetica,sans-Serif" font-size="10.00">tmc2209_shared.h</text>
</a>
</g>
</g>
<!-- Node1&#45;&gt;Node7 -->
<g id="edge18_Node000001_Node000007" class="edge">
<title>Node1&#45;&gt;Node7</title>
<g id="a_edge18_Node000001_Node000007"><a xlink:title=" ">
<path fill="none" stroke="#63b8ff" d="M430.63,-226.63C426.45,-194.9 417.15,-124.34 412.51,-89.06"/>
<polygon fill="#63b8ff" stroke="#63b8ff" points="416,-88.75 411.22,-79.29 409.06,-89.67 416,-88.75"/>
</a>
</g>
</g>
<!-- Node8 -->
<g id="Node000008" class="node">
<title>Node8</title>
<g id="a_Node000008"><a xlink:title=" ">
<polygon fill="#e0e0e0" stroke="#999999" points="570.38,-20.75 465.12,-20.75 465.12,0 570.38,0 570.38,-20.75"/>
<text xml:space="preserve" text-anchor="middle" x="517.75" y="-7.25" font-family="Helvetica,sans-Serif" font-size="10.00">fsl_uart_freertos.h</text>
</a>
</g>
</g>
<!-- Node1&#45;&gt;Node8 -->
<g id="edge25_Node000001_Node000008" class="edge">
<title>Node1&#45;&gt;Node8</title>
<g id="a_edge25_Node000001_Node000008"><a xlink:title=" ">
<path fill="none" stroke="#63b8ff" d="M451.15,-226.66C460.95,-217.18 472.45,-204.44 479.75,-191 508.22,-138.62 515.37,-66.9 517.16,-32.06"/>
<polygon fill="#63b8ff" stroke="#63b8ff" points="520.64,-32.64 517.55,-22.51 513.65,-32.36 520.64,-32.64"/>
</a>
</g>
</g>
<!-- Node9 -->
<g id="Node000009" class="node">
<title>Node9</title>
<g id="a_Node000009"><a xlink:href="tmc2209__internal_8h.html" target="_top" xlink:title=" ">
<polygon fill="white" stroke="#666666" points="387,-134.25 276.5,-134.25 276.5,-113.5 387,-113.5 387,-134.25"/>
<text xml:space="preserve" text-anchor="middle" x="331.75" y="-120.75" font-family="Helvetica,sans-Serif" font-size="10.00">tmc2209_internal.h</text>
</a>
</g>
</g>
<!-- Node1&#45;&gt;Node9 -->
<g id="edge19_Node000001_Node000009" class="edge">
<title>Node1&#45;&gt;Node9</title>
<g id="a_edge19_Node000001_Node000009"><a xlink:title=" ">
<path fill="none" stroke="#63b8ff" d="M424.54,-226.77C416.21,-211.39 402.34,-187.91 386.75,-170.25 377.34,-159.59 365.31,-149.37 354.89,-141.33"/>
<polygon fill="#63b8ff" stroke="#63b8ff" points="357.23,-138.7 347.12,-135.52 353.04,-144.31 357.23,-138.7"/>
</a>
</g>
</g>
<!-- Node13 -->
<g id="Node000013" class="node">
<title>Node13</title>
<g id="a_Node000013"><a xlink:title=" ">
<polygon fill="#e0e0e0" stroke="#999999" points="606.25,-191 557.25,-191 557.25,-170.25 606.25,-170.25 606.25,-191"/>
<text xml:space="preserve" text-anchor="middle" x="581.75" y="-177.5" font-family="Helvetica,sans-Serif" font-size="10.00">stdio.h</text>
</a>
</g>
</g>
<!-- Node1&#45;&gt;Node13 -->
<g id="edge21_Node000001_Node000013" class="edge">
<title>Node1&#45;&gt;Node13</title>
<g id="a_edge21_Node000001_Node000013"><a xlink:title=" ">
<path fill="none" stroke="#63b8ff" d="M472.29,-226.53C495.7,-216.93 525.07,-204.88 547.49,-195.68"/>
<polygon fill="#63b8ff" stroke="#63b8ff" points="548.56,-199.02 556.49,-191.99 545.91,-192.55 548.56,-199.02"/>
</a>
</g>
</g>
<!-- Node14 -->
<g id="Node000014" class="node">
<title>Node14</title>
<g id="a_Node000014"><a xlink:title=" ">
<polygon fill="#e0e0e0" stroke="#999999" points="685.62,-191 623.88,-191 623.88,-170.25 685.62,-170.25 685.62,-191"/>
<text xml:space="preserve" text-anchor="middle" x="654.75" y="-177.5" font-family="Helvetica,sans-Serif" font-size="10.00">fsl_port.h</text>
</a>
</g>
</g>
<!-- Node1&#45;&gt;Node14 -->
<g id="edge24_Node000001_Node000014" class="edge">
<title>Node1&#45;&gt;Node14</title>
<g id="a_edge24_Node000001_Node000014"><a xlink:title=" ">
<path fill="none" stroke="#63b8ff" d="M491.66,-226.53C529.74,-216.04 578.41,-202.64 612.63,-193.22"/>
<polygon fill="#63b8ff" stroke="#63b8ff" points="613.47,-196.62 622.19,-190.59 611.62,-189.87 613.47,-196.62"/>
</a>
</g>
</g>
<!-- Node2&#45;&gt;Node3 -->
<g id="edge2_Node000002_Node000003" class="edge">
<title>Node2&#45;&gt;Node3</title>
<g id="a_edge2_Node000002_Node000003"><a xlink:title=" ">
<path fill="none" stroke="#63b8ff" d="M93.24,-56.34C83.18,-48.47 68.84,-37.25 56.99,-27.99"/>
<polygon fill="#63b8ff" stroke="#63b8ff" points="59.38,-25.41 49.35,-22.01 55.07,-30.93 59.38,-25.41"/>
</a>
</g>
</g>
<!-- Node2&#45;&gt;Node4 -->
<g id="edge3_Node000002_Node000004" class="edge">
<title>Node2&#45;&gt;Node4</title>
<g id="a_edge3_Node000002_Node000004"><a xlink:title=" ">
<path fill="none" stroke="#63b8ff" d="M112.54,-56.34C117.52,-49.17 124.42,-39.23 130.47,-30.51"/>
<polygon fill="#63b8ff" stroke="#63b8ff" points="133.33,-32.53 136.15,-22.32 127.57,-28.54 133.33,-32.53"/>
</a>
</g>
</g>
<!-- Node5&#45;&gt;Node3 -->
<g id="edge17_Node000005_Node000003" class="edge">
<title>Node5&#45;&gt;Node3</title>
<g id="a_edge17_Node000005_Node000003"><a xlink:title=" ">
<path fill="none" stroke="#63b8ff" d="M285.03,-177.95C219.17,-172.84 100.51,-153.01 41.75,-77.5 31.89,-64.84 30.98,-46.39 32.2,-32.2"/>
<polygon fill="#63b8ff" stroke="#63b8ff" points="35.64,-32.94 33.46,-22.57 28.69,-32.03 35.64,-32.94"/>
</a>
</g>
</g>
<!-- Node5&#45;&gt;Node6 -->
<g id="edge5_Node000005_Node000006" class="edge">
<title>Node5&#45;&gt;Node6</title>
<g id="a_edge5_Node000005_Node000006"><a xlink:title=" ">
<path fill="none" stroke="#63b8ff" d="M309.51,-169.81C286.52,-158.15 255.58,-137.24 267.75,-113.5 274.19,-100.94 346.15,-52.77 385.08,-27.33"/>
<polygon fill="#63b8ff" stroke="#63b8ff" points="386.92,-30.31 393.39,-21.92 383.1,-24.45 386.92,-30.31"/>
</a>
</g>
</g>
<!-- Node5&#45;&gt;Node7 -->
<g id="edge6_Node000005_Node000007" class="edge">
<title>Node5&#45;&gt;Node7</title>
<g id="a_edge6_Node000005_Node000007"><a xlink:title=" ">
<path fill="none" stroke="#63b8ff" d="M353.12,-169.77C367.38,-162.09 385.35,-150.07 395.75,-134.25 404.53,-120.89 407.93,-103.01 409.19,-89.21"/>
<polygon fill="#63b8ff" stroke="#63b8ff" points="412.67,-89.63 409.75,-79.45 405.68,-89.23 412.67,-89.63"/>
</a>
</g>
</g>
<!-- Node5&#45;&gt;Node9 -->
<g id="edge9_Node000005_Node000009" class="edge">
<title>Node5&#45;&gt;Node9</title>
<g id="a_edge9_Node000005_Node000009"><a xlink:title=" ">
<path fill="none" stroke="#63b8ff" d="M331.75,-169.84C331.75,-163.22 331.75,-154.22 331.75,-146.02"/>
<polygon fill="#63b8ff" stroke="#63b8ff" points="335.25,-146.09 331.75,-136.09 328.25,-146.09 335.25,-146.09"/>
</a>
</g>
</g>
<!-- Node7&#45;&gt;Node6 -->
<g id="edge7_Node000007_Node000006" class="edge">
<title>Node7&#45;&gt;Node6</title>
<g id="a_edge7_Node000007_Node000006"><a xlink:title=" ">
<path fill="none" stroke="#63b8ff" d="M409.75,-56.34C409.75,-49.72 409.75,-40.72 409.75,-32.52"/>
<polygon fill="#63b8ff" stroke="#63b8ff" points="413.25,-32.59 409.75,-22.59 406.25,-32.59 413.25,-32.59"/>
</a>
</g>
</g>
<!-- Node7&#45;&gt;Node8 -->
<g id="edge8_Node000007_Node000008" class="edge">
<title>Node7&#45;&gt;Node8</title>
<g id="a_edge8_Node000007_Node000008"><a xlink:title=" ">
<path fill="none" stroke="#63b8ff" d="M429.06,-56.34C445.57,-47.97 469.58,-35.79 488.46,-26.22"/>
<polygon fill="#63b8ff" stroke="#63b8ff" points="489.92,-29.41 497.26,-21.76 486.76,-23.16 489.92,-29.41"/>
</a>
</g>
</g>
<!-- Node9&#45;&gt;Node7 -->
<g id="edge10_Node000009_Node000007" class="edge">
<title>Node9&#45;&gt;Node7</title>
<g id="a_edge10_Node000009_Node000007"><a xlink:title=" ">
<path fill="none" stroke="#63b8ff" d="M345.69,-113.09C357.12,-105.07 373.52,-93.56 386.86,-84.19"/>
<polygon fill="#63b8ff" stroke="#63b8ff" points="388.51,-87.31 394.69,-78.7 384.49,-81.58 388.51,-87.31"/>
</a>
</g>
</g>
<!-- Node10 -->
<g id="Node000010" class="node">
<title>Node10</title>
<g id="a_Node000010"><a xlink:href="cmd__handle_8h.html" target="_top" xlink:title=" ">
<polygon fill="white" stroke="#666666" points="300.88,-77.5 216.62,-77.5 216.62,-56.75 300.88,-56.75 300.88,-77.5"/>
<text xml:space="preserve" text-anchor="middle" x="258.75" y="-64" font-family="Helvetica,sans-Serif" font-size="10.00">cmd_handle.h</text>
</a>
</g>
</g>
<!-- Node9&#45;&gt;Node10 -->
<g id="edge11_Node000009_Node000010" class="edge">
<title>Node9&#45;&gt;Node10</title>
<g id="a_edge11_Node000009_Node000010"><a xlink:title=" ">
<path fill="none" stroke="#63b8ff" d="M318.7,-113.09C308.11,-105.15 292.96,-93.78 280.53,-84.46"/>
<polygon fill="#63b8ff" stroke="#63b8ff" points="283,-81.94 272.9,-78.74 278.8,-87.54 283,-81.94"/>
</a>
</g>
</g>
<!-- Node10&#45;&gt;Node3 -->
<g id="edge13_Node000010_Node000003" class="edge">
<title>Node10&#45;&gt;Node3</title>
<g id="a_edge13_Node000010_Node000003"><a xlink:title=" ">
<path fill="none" stroke="#63b8ff" d="M218.62,-56.27C180.54,-46.92 123.28,-32.87 83,-22.98"/>
<polygon fill="#63b8ff" stroke="#63b8ff" points="83.88,-19.59 73.34,-20.6 82.21,-26.39 83.88,-19.59"/>
</a>
</g>
</g>
<!-- Node10&#45;&gt;Node4 -->
<g id="edge15_Node000010_Node000004" class="edge">
<title>Node10&#45;&gt;Node4</title>
<g id="a_edge15_Node000010_Node000004"><a xlink:title=" ">
<path fill="none" stroke="#63b8ff" d="M238.19,-56.34C220.45,-47.89 194.57,-35.57 174.38,-25.96"/>
<polygon fill="#63b8ff" stroke="#63b8ff" points="176.03,-22.87 165.5,-21.73 173.02,-29.19 176.03,-22.87"/>
</a>
</g>
</g>
<!-- Node10&#45;&gt;Node6 -->
<g id="edge12_Node000010_Node000006" class="edge">
<title>Node10&#45;&gt;Node6</title>
<g id="a_edge12_Node000010_Node000006"><a xlink:title=" ">
<path fill="none" stroke="#63b8ff" d="M285.75,-56.34C309.9,-47.58 345.55,-34.65 372.43,-24.91"/>
<polygon fill="#63b8ff" stroke="#63b8ff" points="373.36,-28.29 381.57,-21.59 370.97,-21.71 373.36,-28.29"/>
</a>
</g>
</g>
<!-- Node11 -->
<g id="Node000011" class="node">
<title>Node11</title>
<g id="a_Node000011"><a xlink:title=" ">
<polygon fill="#e0e0e0" stroke="#999999" points="295.25,-20.75 204.25,-20.75 204.25,0 295.25,0 295.25,-20.75"/>
<text xml:space="preserve" text-anchor="middle" x="249.75" y="-7.25" font-family="Helvetica,sans-Serif" font-size="10.00">event_groups.h</text>
</a>
</g>
</g>
<!-- Node10&#45;&gt;Node11 -->
<g id="edge14_Node000010_Node000011" class="edge">
<title>Node10&#45;&gt;Node11</title>
<g id="a_edge14_Node000010_Node000011"><a xlink:title=" ">
<path fill="none" stroke="#63b8ff" d="M257.14,-56.34C256.04,-49.64 254.54,-40.51 253.18,-32.23"/>
<polygon fill="#63b8ff" stroke="#63b8ff" points="256.67,-31.87 251.59,-22.57 249.76,-33.01 256.67,-31.87"/>
</a>
</g>
</g>
<!-- Node12 -->
<g id="Node000012" class="node">
<title>Node12</title>
<g id="a_Node000012"><a xlink:title=" ">
<polygon fill="#e0e0e0" stroke="#999999" points="365.75,-20.75 313.75,-20.75 313.75,0 365.75,0 365.75,-20.75"/>
<text xml:space="preserve" text-anchor="middle" x="339.75" y="-7.25" font-family="Helvetica,sans-Serif" font-size="10.00">stdlib.h</text>
</a>
</g>
</g>
<!-- Node10&#45;&gt;Node12 -->
<g id="edge16_Node000010_Node000012" class="edge">
<title>Node10&#45;&gt;Node12</title>
<g id="a_edge16_Node000010_Node000012"><a xlink:title=" ">
<path fill="none" stroke="#63b8ff" d="M273.23,-56.34C285.1,-48.32 302.12,-36.81 315.98,-27.44"/>
<polygon fill="#63b8ff" stroke="#63b8ff" points="317.82,-30.43 324.14,-21.93 313.9,-24.63 317.82,-30.43"/>
</a>
</g>
</g>
</g>
</svg>
