<?xml version="1.0" encoding="UTF-8" standalone="no"?>
<!DOCTYPE svg PUBLIC "-//W3C//DTD SVG 1.1//EN"
 "http://www.w3.org/Graphics/SVG/1.1/DTD/svg11.dtd">
<!-- Generated by graphviz version 14.1.5 (0)
 -->
<!-- Title: source/driver/tmc2209/tmc2209_uart.h Pages: 1 -->
<svg width="556pt" height="212pt"
 viewBox="0.00 0.00 556.00 212.00" xmlns="http://www.w3.org/2000/svg" xmlns:xlink="http://www.w3.org/1999/xlink">
<g id="graph0" class="graph" transform="scale(1 1) rotate(0) translate(4 207.75)">
<title>source/driver/tmc2209/tmc2209_uart.h</title>
<!-- Node1 -->
<g id="Node000001" class="node">
<title>Node1</title>
<g id="a_Node000001"><a xlink:title=" ">
<polygon fill="#999999" stroke="#666666" points="274.38,-203.75 148.88,-203.75 148.88,-170.25 274.38,-170.25 274.38,-203.75"/>
<text xml:space="preserve" text-anchor="start" x="156.88" y="-190.25" font-family="Helvetica,sans-Serif" font-size="10.00">source/driver/tmc2209</text>
<text xml:space="preserve" text-anchor="middle" x="211.62" y="-177.5" font-family="Helvetica,sans-Serif" font-size="10.00">/tmc2209_uart.h</text>
</a>
</g>
</g>
<!-- Node2 -->
<g id="Node000002" class="node">
<title>Node2</title>
<g id="a_Node000002"><a xlink:title=" ">
<polygon fill="#e0e0e0" stroke="#999999" points="176,-20.75 123.25,-20.75 123.25,0 176,0 176,-20.75"/>
<text xml:space="preserve" text-anchor="middle" x="149.62" y="-7.25" font-family="Helvetica,sans-Serif" font-size="10.00">stdint.h</text>
</a>
</g>
</g>
<!-- Node1&#45;&gt;Node2 -->
<g id="edge1_Node000001_Node000002" class="edge">
<title>Node1&#45;&gt;Node2</title>
<g id="a_edge1_Node000001_Node000002"><a xlink:title=" ">
<path fill="none" stroke="#63b8ff" d="M222.96,-169.75C231.81,-154.97 241.54,-132.62 234.62,-113.5 221.91,-78.35 191.24,-46.79 170.44,-28.35"/>
<polygon fill="#63b8ff" stroke="#63b8ff" points="172.96,-25.9 163.09,-22.04 168.4,-31.21 172.96,-25.9"/>
</a>
</g>
</g>
<!-- Node3 -->
<g id="Node000003" class="node">
<title>Node3</title>
<g id="a_Node000003"><a xlink:href="tmc2209__shared_8h.html" target="_top" xlink:title=" ">
<polygon fill="white" stroke="#666666" points="171.62,-77.5 65.62,-77.5 65.62,-56.75 171.62,-56.75 171.62,-77.5"/>
<text xml:space="preserve" text-anchor="middle" x="118.62" y="-64" font-family="Helvetica,sans-Serif" font-size="10.00">tmc2209_shared.h</text>
</a>
</g>
</g>
<!-- Node1&#45;&gt;Node3 -->
<g id="edge2_Node000001_Node000003" class="edge">
<title>Node1&#45;&gt;Node3</title>
<g id="a_edge2_Node000001_Node000003"><a xlink:title=" ">
<path fill="none" stroke="#63b8ff" d="M151.37,-169.79C133.91,-162 116.82,-150.64 106.62,-134.25 98.06,-120.47 102.34,-102.15 108.04,-88.29"/>
<polygon fill="#63b8ff" stroke="#63b8ff" points="111.19,-89.8 112.26,-79.26 104.85,-86.83 111.19,-89.8"/>
</a>
</g>
</g>
<!-- Node5 -->
<g id="Node000005" class="node">
<title>Node5</title>
<g id="a_Node000005"><a xlink:href="tmc2209__internal_8h.html" target="_top" xlink:title=" ">
<polygon fill="white" stroke="#666666" points="225.88,-134.25 115.38,-134.25 115.38,-113.5 225.88,-113.5 225.88,-134.25"/>
<text xml:space="preserve" text-anchor="middle" x="170.62" y="-120.75" font-family="Helvetica,sans-Serif" font-size="10.00">tmc2209_internal.h</text>
</a>
</g>
</g>
<!-- Node1&#45;&gt;Node5 -->
<g id="edge5_Node000001_Node000005" class="edge">
<title>Node1&#45;&gt;Node5</title>
<g id="a_edge5_Node000001_Node000005"><a xlink:title=" ">
<path fill="none" stroke="#63b8ff" d="M200.85,-169.94C195.52,-161.99 189.05,-152.34 183.46,-144.02"/>
<polygon fill="#63b8ff" stroke="#63b8ff" points="186.55,-142.33 178.07,-135.97 180.73,-146.23 186.55,-142.33"/>
</a>
</g>
</g>
<!-- Node7 -->
<g id="Node000007" class="node">
<title>Node7</title>
<g id="a_Node000007"><a xlink:title=" ">
<polygon fill="#e0e0e0" stroke="#999999" points="548.38,-20.75 476.88,-20.75 476.88,0 548.38,0 548.38,-20.75"/>
<text xml:space="preserve" text-anchor="middle" x="512.62" y="-7.25" font-family="Helvetica,sans-Serif" font-size="10.00">FreeRTOS.h</text>
</a>
</g>
</g>
<!-- Node1&#45;&gt;Node7 -->
<g id="edge13_Node000001_Node000007" class="edge">
<title>Node1&#45;&gt;Node7</title>
<g id="a_edge13_Node000001_Node000007"><a xlink:title=" ">
<path fill="none" stroke="#63b8ff" d="M239.4,-169.88C297.08,-136.42 429.18,-59.78 485.92,-26.87"/>
<polygon fill="#63b8ff" stroke="#63b8ff" points="487.4,-30.05 494.3,-22.01 483.89,-24 487.4,-30.05"/>
</a>
</g>
</g>
<!-- Node3&#45;&gt;Node2 -->
<g id="edge3_Node000003_Node000002" class="edge">
<title>Node3&#45;&gt;Node2</title>
<g id="a_edge3_Node000003_Node000002"><a xlink:title=" ">
<path fill="none" stroke="#63b8ff" d="M124.17,-56.34C128.13,-49.33 133.61,-39.66 138.47,-31.08"/>
<polygon fill="#63b8ff" stroke="#63b8ff" points="141.5,-32.82 143.39,-22.4 135.41,-29.37 141.5,-32.82"/>
</a>
</g>
</g>
<!-- Node4 -->
<g id="Node000004" class="node">
<title>Node4</title>
<g id="a_Node000004"><a xlink:title=" ">
<polygon fill="#e0e0e0" stroke="#999999" points="105.25,-20.75 0,-20.75 0,0 105.25,0 105.25,-20.75"/>
<text xml:space="preserve" text-anchor="middle" x="52.62" y="-7.25" font-family="Helvetica,sans-Serif" font-size="10.00">fsl_uart_freertos.h</text>
</a>
</g>
</g>
<!-- Node3&#45;&gt;Node4 -->
<g id="edge4_Node000003_Node000004" class="edge">
<title>Node3&#45;&gt;Node4</title>
<g id="a_edge4_Node000003_Node000004"><a xlink:title=" ">
<path fill="none" stroke="#63b8ff" d="M106.83,-56.34C97.44,-48.55 84.09,-37.47 72.98,-28.26"/>
<polygon fill="#63b8ff" stroke="#63b8ff" points="75.42,-25.74 65.49,-22.04 70.95,-31.12 75.42,-25.74"/>
</a>
</g>
</g>
<!-- Node5&#45;&gt;Node3 -->
<g id="edge6_Node000005_Node000003" class="edge">
<title>Node5&#45;&gt;Node3</title>
<g id="a_edge6_Node000005_Node000003"><a xlink:title=" ">
<path fill="none" stroke="#63b8ff" d="M161.33,-113.09C154.23,-105.61 144.25,-95.11 135.72,-86.13"/>
<polygon fill="#63b8ff" stroke="#63b8ff" points="138.31,-83.77 128.88,-78.93 133.23,-88.59 138.31,-83.77"/>
</a>
</g>
</g>
<!-- Node6 -->
<g id="Node000006" class="node">
<title>Node6</title>
<g id="a_Node000006"><a xlink:href="cmd__handle_8h.html" target="_top" xlink:title=" ">
<polygon fill="white" stroke="#666666" points="365.75,-77.5 281.5,-77.5 281.5,-56.75 365.75,-56.75 365.75,-77.5"/>
<text xml:space="preserve" text-anchor="middle" x="323.62" y="-64" font-family="Helvetica,sans-Serif" font-size="10.00">cmd_handle.h</text>
</a>
</g>
</g>
<!-- Node5&#45;&gt;Node6 -->
<g id="edge7_Node000005_Node000006" class="edge">
<title>Node5&#45;&gt;Node6</title>
<g id="a_edge7_Node000005_Node000006"><a xlink:title=" ">
<path fill="none" stroke="#63b8ff" d="M197.98,-113.09C222.38,-104.36 258.35,-91.48 285.56,-81.75"/>
<polygon fill="#63b8ff" stroke="#63b8ff" points="286.59,-85.1 294.83,-78.43 284.23,-78.5 286.59,-85.1"/>
</a>
</g>
</g>
<!-- Node6&#45;&gt;Node2 -->
<g id="edge8_Node000006_Node000002" class="edge">
<title>Node6&#45;&gt;Node2</title>
<g id="a_edge8_Node000006_Node000002"><a xlink:title=" ">
<path fill="none" stroke="#63b8ff" d="M292.52,-56.34C263.09,-47.08 218.87,-33.16 187.43,-23.27"/>
<polygon fill="#63b8ff" stroke="#63b8ff" points="188.5,-19.94 177.91,-20.28 186.4,-26.62 188.5,-19.94"/>
</a>
</g>
</g>
<!-- Node6&#45;&gt;Node7 -->
<g id="edge9_Node000006_Node000007" class="edge">
<title>Node6&#45;&gt;Node7</title>
<g id="a_edge9_Node000006_Node000007"><a xlink:title=" ">
<path fill="none" stroke="#63b8ff" d="M357.41,-56.34C388.23,-47.41 433.97,-34.16 467.82,-24.35"/>
<polygon fill="#63b8ff" stroke="#63b8ff" points="468.73,-27.74 477.36,-21.59 466.78,-21.01 468.73,-27.74"/>
</a>
</g>
</g>
<!-- Node8 -->
<g id="Node000008" class="node">
<title>Node8</title>
<g id="a_Node000008"><a xlink:title=" ">
<polygon fill="#e0e0e0" stroke="#999999" points="459.12,-20.75 368.12,-20.75 368.12,0 459.12,0 459.12,-20.75"/>
<text xml:space="preserve" text-anchor="middle" x="413.62" y="-7.25" font-family="Helvetica,sans-Serif" font-size="10.00">event_groups.h</text>
</a>
</g>
</g>
<!-- Node6&#45;&gt;Node8 -->
<g id="edge10_Node000006_Node000008" class="edge">
<title>Node6&#45;&gt;Node8</title>
<g id="a_edge10_Node000006_Node000008"><a xlink:title=" ">
<path fill="none" stroke="#63b8ff" d="M339.72,-56.34C353.15,-48.16 372.56,-36.36 388.11,-26.9"/>
<polygon fill="#63b8ff" stroke="#63b8ff" points="389.66,-30.05 396.38,-21.87 386.02,-24.07 389.66,-30.05"/>
</a>
</g>
</g>
<!-- Node9 -->
<g id="Node000009" class="node">
<title>Node9</title>
<g id="a_Node000009"><a xlink:title=" ">
<polygon fill="#e0e0e0" stroke="#999999" points="279.12,-20.75 194.12,-20.75 194.12,0 279.12,0 279.12,-20.75"/>
<text xml:space="preserve" text-anchor="middle" x="236.62" y="-7.25" font-family="Helvetica,sans-Serif" font-size="10.00">fsl_common.h</text>
</a>
</g>
</g>
<!-- Node6&#45;&gt;Node9 -->
<g id="edge11_Node000006_Node000009" class="edge">
<title>Node6&#45;&gt;Node9</title>
<g id="a_edge11_Node000006_Node000009"><a xlink:title=" ">
<path fill="none" stroke="#63b8ff" d="M308.07,-56.34C295.2,-48.24 276.68,-36.58 261.72,-27.17"/>
<polygon fill="#63b8ff" stroke="#63b8ff" points="263.65,-24.25 253.33,-21.88 259.92,-30.17 263.65,-24.25"/>
</a>
</g>
</g>
<!-- Node10 -->
<g id="Node000010" class="node">
<title>Node10</title>
<g id="a_Node000010"><a xlink:title=" ">
<polygon fill="#e0e0e0" stroke="#999999" points="349.62,-20.75 297.62,-20.75 297.62,0 349.62,0 349.62,-20.75"/>
<text xml:space="preserve" text-anchor="middle" x="323.62" y="-7.25" font-family="Helvetica,sans-Serif" font-size="10.00">stdlib.h</text>
</a>
</g>
</g>
<!-- Node6&#45;&gt;Node10 -->
<g id="edge12_Node000006_Node000010" class="edge">
<title>Node6&#45;&gt;Node10</title>
<g id="a_edge12_Node000006_Node000010"><a xlink:title=" ">
<path fill="none" stroke="#63b8ff" d="M323.62,-56.34C323.62,-49.72 323.62,-40.72 323.62,-32.52"/>
<polygon fill="#63b8ff" stroke="#63b8ff" points="327.13,-32.59 323.63,-22.59 320.13,-32.59 327.13,-32.59"/>
</a>
</g>
</g>
</g>
</svg>
