<?xml version="1.0" encoding="UTF-8" standalone="no"?>
<!DOCTYPE svg PUBLIC "-//W3C//DTD SVG 1.1//EN"
 "http://www.w3.org/Graphics/SVG/1.1/DTD/svg11.dtd">
<!-- Generated by graphviz version 14.1.3 (0)
 -->
<!-- Title: source/tmc2209.h Pages: 1 -->
<svg width="488pt" height="142pt"
 viewBox="0.00 0.00 488.00 142.00" xmlns="http://www.w3.org/2000/svg" xmlns:xlink="http://www.w3.org/1999/xlink">
<g id="graph0" class="graph" transform="scale(1 1) rotate(0) translate(4 138.25)">
<title>source/tmc2209.h</title>
<!-- Node1 -->
<g id="Node000001" class="node">
<title>Node1</title>
<g id="a_Node000001"><a xlink:title=" ">
<polygon fill="#999999" stroke="#666666" points="227.25,-134.25 124.25,-134.25 124.25,-113.5 227.25,-113.5 227.25,-134.25"/>
<text xml:space="preserve" text-anchor="middle" x="175.75" y="-120.75" font-family="Helvetica,sans-Serif" font-size="10.00">source/tmc2209.h</text>
</a>
</g>
</g>
<!-- Node2 -->
<g id="Node000002" class="node">
<title>Node2</title>
<g id="a_Node000002"><a xlink:href="application_8c.html" target="_top" xlink:title=" ">
<polygon fill="white" stroke="#666666" points="113.5,-20.75 0,-20.75 0,0 113.5,0 113.5,-20.75"/>
<text xml:space="preserve" text-anchor="middle" x="56.75" y="-7.25" font-family="Helvetica,sans-Serif" font-size="10.00">source/application.c</text>
</a>
</g>
</g>
<!-- Node1&#45;&gt;Node2 -->
<g id="edge1_Node000001_Node000002" class="edge">
<title>Node1&#45;&gt;Node2</title>
<g id="a_edge1_Node000001_Node000002"><a xlink:title=" ">
<path fill="none" stroke="#63b8ff" d="M154.96,-105.72C145.05,-97.38 133.12,-87.11 122.75,-77.5 101.81,-58.1 78.47,-34.12 65.92,-21.03"/>
<polygon fill="#63b8ff" stroke="#63b8ff" points="152.65,-108.35 162.57,-112.07 157.13,-102.98 152.65,-108.35"/>
</a>
</g>
</g>
<!-- Node3 -->
<g id="Node000003" class="node">
<title>Node3</title>
<g id="a_Node000003"><a xlink:href="motor_8h.html" target="_top" xlink:title=" ">
<polygon fill="white" stroke="#666666" points="220.12,-77.5 131.38,-77.5 131.38,-56.75 220.12,-56.75 220.12,-77.5"/>
<text xml:space="preserve" text-anchor="middle" x="175.75" y="-64" font-family="Helvetica,sans-Serif" font-size="10.00">source/motor.h</text>
</a>
</g>
</g>
<!-- Node1&#45;&gt;Node3 -->
<g id="edge2_Node000001_Node000003" class="edge">
<title>Node1&#45;&gt;Node3</title>
<g id="a_edge2_Node000001_Node000003"><a xlink:title=" ">
<path fill="none" stroke="#63b8ff" d="M175.75,-101.63C175.75,-93.41 175.75,-84.43 175.75,-77.83"/>
<polygon fill="#63b8ff" stroke="#63b8ff" points="172.25,-101.57 175.75,-111.57 179.25,-101.57 172.25,-101.57"/>
</a>
</g>
</g>
<!-- Node7 -->
<g id="Node000007" class="node">
<title>Node7</title>
<g id="a_Node000007"><a xlink:href="tmc2209_8c.html" target="_top" xlink:title=" ">
<polygon fill="white" stroke="#666666" points="340.88,-77.5 238.62,-77.5 238.62,-56.75 340.88,-56.75 340.88,-77.5"/>
<text xml:space="preserve" text-anchor="middle" x="289.75" y="-64" font-family="Helvetica,sans-Serif" font-size="10.00">source/tmc2209.c</text>
</a>
</g>
</g>
<!-- Node1&#45;&gt;Node7 -->
<g id="edge7_Node000001_Node000007" class="edge">
<title>Node1&#45;&gt;Node7</title>
<g id="a_edge7_Node000001_Node000007"><a xlink:title=" ">
<path fill="none" stroke="#63b8ff" d="M206.32,-108.2C226.36,-98.57 252.01,-86.25 269.55,-77.83"/>
<polygon fill="#63b8ff" stroke="#63b8ff" points="204.99,-104.95 197.5,-112.43 208.02,-111.26 204.99,-104.95"/>
</a>
</g>
</g>
<!-- Node3&#45;&gt;Node2 -->
<g id="edge3_Node000003_Node000002" class="edge">
<title>Node3&#45;&gt;Node2</title>
<g id="a_edge3_Node000003_Node000002"><a xlink:title=" ">
<path fill="none" stroke="#63b8ff" d="M144.13,-51.58C123.16,-41.93 96.23,-29.54 77.84,-21.08"/>
<polygon fill="#63b8ff" stroke="#63b8ff" points="142.55,-54.7 153.1,-55.7 145.48,-48.34 142.55,-54.7"/>
</a>
</g>
</g>
<!-- Node4 -->
<g id="Node000004" class="node">
<title>Node4</title>
<g id="a_Node000004"><a xlink:href="motor_8c.html" target="_top" xlink:title=" ">
<polygon fill="white" stroke="#666666" points="219.75,-20.75 131.75,-20.75 131.75,0 219.75,0 219.75,-20.75"/>
<text xml:space="preserve" text-anchor="middle" x="175.75" y="-7.25" font-family="Helvetica,sans-Serif" font-size="10.00">source/motor.c</text>
</a>
</g>
</g>
<!-- Node3&#45;&gt;Node4 -->
<g id="edge4_Node000003_Node000004" class="edge">
<title>Node3&#45;&gt;Node4</title>
<g id="a_edge4_Node000003_Node000004"><a xlink:title=" ">
<path fill="none" stroke="#63b8ff" d="M175.75,-44.88C175.75,-36.66 175.75,-27.68 175.75,-21.08"/>
<polygon fill="#63b8ff" stroke="#63b8ff" points="172.25,-44.82 175.75,-54.82 179.25,-44.82 172.25,-44.82"/>
</a>
</g>
</g>
<!-- Node5 -->
<g id="Node000005" class="node">
<title>Node5</title>
<g id="a_Node000005"><a xlink:href="motorCmd_8c.html" target="_top" xlink:title=" ">
<polygon fill="white" stroke="#666666" points="349.38,-20.75 238.12,-20.75 238.12,0 349.38,0 349.38,-20.75"/>
<text xml:space="preserve" text-anchor="middle" x="293.75" y="-7.25" font-family="Helvetica,sans-Serif" font-size="10.00">source/motorCmd.c</text>
</a>
</g>
</g>
<!-- Node3&#45;&gt;Node5 -->
<g id="edge5_Node000003_Node000005" class="edge">
<title>Node3&#45;&gt;Node5</title>
<g id="a_edge5_Node000003_Node000005"><a xlink:title=" ">
<path fill="none" stroke="#63b8ff" d="M207.1,-51.58C227.89,-41.93 254.6,-29.54 272.84,-21.08"/>
<polygon fill="#63b8ff" stroke="#63b8ff" points="205.82,-48.32 198.22,-55.7 208.76,-54.67 205.82,-48.32"/>
</a>
</g>
</g>
<!-- Node6 -->
<g id="Node000006" class="node">
<title>Node6</title>
<g id="a_Node000006"><a xlink:href="motor__test_8c.html" target="_top" xlink:title=" ">
<polygon fill="white" stroke="#666666" points="480.12,-20.75 367.38,-20.75 367.38,0 480.12,0 480.12,-20.75"/>
<text xml:space="preserve" text-anchor="middle" x="423.75" y="-7.25" font-family="Helvetica,sans-Serif" font-size="10.00">source/motor_test.c</text>
</a>
</g>
</g>
<!-- Node3&#45;&gt;Node6 -->
<g id="edge6_Node000003_Node000006" class="edge">
<title>Node3&#45;&gt;Node6</title>
<g id="a_edge6_Node000003_Node000006"><a xlink:title=" ">
<path fill="none" stroke="#63b8ff" d="M231.6,-53.8C276.15,-43.96 337.74,-30.36 379.07,-21.24"/>
<polygon fill="#63b8ff" stroke="#63b8ff" points="230.86,-50.37 221.85,-55.95 232.37,-57.21 230.86,-50.37"/>
</a>
</g>
</g>
</g>
</svg>
