<?xml version="1.0" encoding="UTF-8" standalone="no"?>
<!DOCTYPE svg PUBLIC "-//W3C//DTD SVG 1.1//EN"
 "http://www.w3.org/Graphics/SVG/1.1/DTD/svg11.dtd">
<!-- Generated by graphviz version 14.1.4 (0)
 -->
<!-- Title: source/driver/tmc2209/tmc2209_shared.h Pages: 1 -->
<svg width="2158pt" height="389pt"
 viewBox="0.00 0.00 2158.00 389.00" xmlns="http://www.w3.org/2000/svg" xmlns:xlink="http://www.w3.org/1999/xlink">
<g id="graph0" class="graph" transform="scale(1 1) rotate(0) translate(4 385)">
<title>source/driver/tmc2209/tmc2209_shared.h</title>
<!-- Node1 -->
<g id="Node000001" class="node">
<title>Node1</title>
<g id="a_Node000001"><a xlink:title=" ">
<polygon fill="#999999" stroke="#666666" points="1801.38,-381 1675.88,-381 1675.88,-347.5 1801.38,-347.5 1801.38,-381"/>
<text xml:space="preserve" text-anchor="start" x="1683.88" y="-367.5" font-family="Helvetica,sans-Serif" font-size="10.00">source/driver/tmc2209</text>
<text xml:space="preserve" text-anchor="middle" x="1738.62" y="-354.75" font-family="Helvetica,sans-Serif" font-size="10.00">/tmc2209_shared.h</text>
</a>
</g>
</g>
<!-- Node2 -->
<g id="Node000002" class="node">
<title>Node2</title>
<g id="a_Node000002"><a xlink:href="tmc2209__core_8c.html" target="_top" xlink:title=" ">
<polygon fill="white" stroke="#666666" points="1600.38,-172.5 1474.88,-172.5 1474.88,-139 1600.38,-139 1600.38,-172.5"/>
<text xml:space="preserve" text-anchor="start" x="1482.88" y="-159" font-family="Helvetica,sans-Serif" font-size="10.00">source/driver/tmc2209</text>
<text xml:space="preserve" text-anchor="middle" x="1537.62" y="-146.25" font-family="Helvetica,sans-Serif" font-size="10.00">/tmc2209_core.c</text>
</a>
</g>
</g>
<!-- Node1&#45;&gt;Node2 -->
<g id="edge1_Node000001_Node000002" class="edge">
<title>Node1&#45;&gt;Node2</title>
<g id="a_edge1_Node000001_Node000002"><a xlink:title=" ">
<path fill="none" stroke="#63b8ff" d="M1664.46,-356.39C1593.92,-345.37 1492.02,-316.69 1446.62,-242 1438.89,-229.28 1439.14,-221.37 1446.62,-208.5 1456.04,-192.32 1472.61,-180.78 1489.05,-172.77"/>
<polygon fill="#63b8ff" stroke="#63b8ff" points="1663.6,-359.8 1674,-357.79 1664.62,-352.87 1663.6,-359.8"/>
</a>
</g>
</g>
<!-- Node3 -->
<g id="Node000003" class="node">
<title>Node3</title>
<g id="a_Node000003"><a xlink:href="tmc2209__core_8h.html" target="_top" xlink:title=" ">
<polygon fill="white" stroke="#666666" points="1388.38,-311.5 1262.88,-311.5 1262.88,-278 1388.38,-278 1388.38,-311.5"/>
<text xml:space="preserve" text-anchor="start" x="1270.88" y="-298" font-family="Helvetica,sans-Serif" font-size="10.00">source/driver/tmc2209</text>
<text xml:space="preserve" text-anchor="middle" x="1325.62" y="-285.25" font-family="Helvetica,sans-Serif" font-size="10.00">/tmc2209_core.h</text>
</a>
</g>
</g>
<!-- Node1&#45;&gt;Node3 -->
<g id="edge2_Node000001_Node000003" class="edge">
<title>Node1&#45;&gt;Node3</title>
<g id="a_edge2_Node000001_Node000003"><a xlink:title=" ">
<path fill="none" stroke="#63b8ff" d="M1664.56,-351.87C1598.64,-341.64 1499.63,-326.04 1413.62,-311.5 1405.51,-310.13 1396.99,-308.65 1388.57,-307.17"/>
<polygon fill="#63b8ff" stroke="#63b8ff" points="1663.74,-355.29 1674.16,-353.36 1664.81,-348.37 1663.74,-355.29"/>
</a>
</g>
</g>
<!-- Node25 -->
<g id="Node000025" class="node">
<title>Node25</title>
<g id="a_Node000025"><a xlink:href="tmc2209__internal_8h.html" target="_top" xlink:title=" ">
<polygon fill="white" stroke="#666666" points="1892.38,-311.5 1766.88,-311.5 1766.88,-278 1892.38,-278 1892.38,-311.5"/>
<text xml:space="preserve" text-anchor="start" x="1774.88" y="-298" font-family="Helvetica,sans-Serif" font-size="10.00">source/driver/tmc2209</text>
<text xml:space="preserve" text-anchor="middle" x="1829.62" y="-285.25" font-family="Helvetica,sans-Serif" font-size="10.00">/tmc2209_internal.h</text>
</a>
</g>
</g>
<!-- Node1&#45;&gt;Node25 -->
<g id="edge45_Node000001_Node000025" class="edge">
<title>Node1&#45;&gt;Node25</title>
<g id="a_edge45_Node000001_Node000025"><a xlink:title=" ">
<path fill="none" stroke="#63b8ff" d="M1769.07,-340.66C1781.79,-331.23 1796.28,-320.48 1807.9,-311.87"/>
<polygon fill="#63b8ff" stroke="#63b8ff" points="1767.35,-337.58 1761.41,-346.35 1771.52,-343.21 1767.35,-337.58"/>
</a>
</g>
</g>
<!-- Node26 -->
<g id="Node000026" class="node">
<title>Node26</title>
<g id="a_Node000026"><a xlink:href="tmc2209__process_8c.html" target="_top" xlink:title=" ">
<polygon fill="white" stroke="#666666" points="1782.38,-172.5 1656.88,-172.5 1656.88,-139 1782.38,-139 1782.38,-172.5"/>
<text xml:space="preserve" text-anchor="start" x="1664.88" y="-159" font-family="Helvetica,sans-Serif" font-size="10.00">source/driver/tmc2209</text>
<text xml:space="preserve" text-anchor="middle" x="1719.62" y="-146.25" font-family="Helvetica,sans-Serif" font-size="10.00">/tmc2209_process.c</text>
</a>
</g>
</g>
<!-- Node1&#45;&gt;Node26 -->
<g id="edge57_Node000001_Node000026" class="edge">
<title>Node1&#45;&gt;Node26</title>
<g id="a_edge57_Node000001_Node000026"><a xlink:title=" ">
<path fill="none" stroke="#63b8ff" d="M1718.43,-338.47C1700.85,-315.18 1676.65,-278.52 1666.62,-242 1662.68,-227.64 1660.85,-222.22 1666.62,-208.5 1672.67,-194.16 1684.84,-181.81 1695.99,-172.78"/>
<polygon fill="#63b8ff" stroke="#63b8ff" points="1715.45,-340.34 1724.34,-346.1 1720.99,-336.05 1715.45,-340.34"/>
</a>
</g>
</g>
<!-- Node27 -->
<g id="Node000027" class="node">
<title>Node27</title>
<g id="a_Node000027"><a xlink:href="tmc2209__process_8h.html" target="_top" xlink:title=" ">
<polygon fill="white" stroke="#666666" points="1581.38,-242 1455.88,-242 1455.88,-208.5 1581.38,-208.5 1581.38,-242"/>
<text xml:space="preserve" text-anchor="start" x="1463.88" y="-228.5" font-family="Helvetica,sans-Serif" font-size="10.00">source/driver/tmc2209</text>
<text xml:space="preserve" text-anchor="middle" x="1518.62" y="-215.75" font-family="Helvetica,sans-Serif" font-size="10.00">/tmc2209_process.h</text>
</a>
</g>
</g>
<!-- Node1&#45;&gt;Node27 -->
<g id="edge58_Node000001_Node000027" class="edge">
<title>Node1&#45;&gt;Node27</title>
<g id="a_edge58_Node000001_Node000027"><a xlink:title=" ">
<path fill="none" stroke="#63b8ff" d="M1691.57,-342.28C1673.1,-333.49 1651.98,-322.7 1633.62,-311.5 1598.41,-290.01 1560.51,-260.54 1538.21,-242.48"/>
<polygon fill="#63b8ff" stroke="#63b8ff" points="1689.9,-345.36 1700.43,-346.44 1692.87,-339.03 1689.9,-345.36"/>
</a>
</g>
</g>
<!-- Node28 -->
<g id="Node000028" class="node">
<title>Node28</title>
<g id="a_Node000028"><a xlink:href="tmc2209__setup_8c.html" target="_top" xlink:title=" ">
<polygon fill="white" stroke="#666666" points="2150.38,-172.5 2024.88,-172.5 2024.88,-139 2150.38,-139 2150.38,-172.5"/>
<text xml:space="preserve" text-anchor="start" x="2032.88" y="-159" font-family="Helvetica,sans-Serif" font-size="10.00">source/driver/tmc2209</text>
<text xml:space="preserve" text-anchor="middle" x="2087.62" y="-146.25" font-family="Helvetica,sans-Serif" font-size="10.00">/tmc2209_setup.c</text>
</a>
</g>
</g>
<!-- Node1&#45;&gt;Node28 -->
<g id="edge59_Node000001_Node000028" class="edge">
<title>Node1&#45;&gt;Node28</title>
<g id="a_edge59_Node000001_Node000028"><a xlink:title=" ">
<path fill="none" stroke="#63b8ff" d="M1812.92,-360.88C1867.22,-356.29 1940.96,-343.93 1997.62,-311.5 2033.55,-290.94 2038.95,-277.86 2059.62,-242 2072.46,-219.73 2080.38,-190.75 2084.39,-172.97"/>
<polygon fill="#63b8ff" stroke="#63b8ff" points="1812.85,-357.37 1803.15,-361.63 1813.38,-364.35 1812.85,-357.37"/>
</a>
</g>
</g>
<!-- Node29 -->
<g id="Node000029" class="node">
<title>Node29</title>
<g id="a_Node000029"><a xlink:href="tmc2209__uart_8c.html" target="_top" xlink:title=" ">
<polygon fill="white" stroke="#666666" points="2006.38,-172.5 1880.88,-172.5 1880.88,-139 2006.38,-139 2006.38,-172.5"/>
<text xml:space="preserve" text-anchor="start" x="1888.88" y="-159" font-family="Helvetica,sans-Serif" font-size="10.00">source/driver/tmc2209</text>
<text xml:space="preserve" text-anchor="middle" x="1943.62" y="-146.25" font-family="Helvetica,sans-Serif" font-size="10.00">/tmc2209_uart.c</text>
</a>
</g>
</g>
<!-- Node1&#45;&gt;Node29 -->
<g id="edge64_Node000001_Node000029" class="edge">
<title>Node1&#45;&gt;Node29</title>
<g id="a_edge64_Node000001_Node000029"><a xlink:title=" ">
<path fill="none" stroke="#63b8ff" d="M1812.96,-357.84C1885.19,-347.96 1989.77,-320.15 2030.62,-242 2037.52,-228.81 2037.99,-221.44 2030.62,-208.5 2021.5,-192.46 2005.23,-180.87 1989.2,-172.78"/>
<polygon fill="#63b8ff" stroke="#63b8ff" points="1812.64,-354.35 1803.17,-359.09 1813.53,-361.3 1812.64,-354.35"/>
</a>
</g>
</g>
<!-- Node30 -->
<g id="Node000030" class="node">
<title>Node30</title>
<g id="a_Node000030"><a xlink:href="tmc2209__uart_8h.html" target="_top" xlink:title=" ">
<polygon fill="white" stroke="#666666" points="2021.38,-242 1895.88,-242 1895.88,-208.5 2021.38,-208.5 2021.38,-242"/>
<text xml:space="preserve" text-anchor="start" x="1903.88" y="-228.5" font-family="Helvetica,sans-Serif" font-size="10.00">source/driver/tmc2209</text>
<text xml:space="preserve" text-anchor="middle" x="1958.62" y="-215.75" font-family="Helvetica,sans-Serif" font-size="10.00">/tmc2209_uart.h</text>
</a>
</g>
</g>
<!-- Node1&#45;&gt;Node30 -->
<g id="edge65_Node000001_Node000030" class="edge">
<title>Node1&#45;&gt;Node30</title>
<g id="a_edge65_Node000001_Node000030"><a xlink:title=" ">
<path fill="none" stroke="#63b8ff" d="M1812.46,-350.91C1842.3,-343.23 1875.73,-330.96 1901.62,-311.5 1925.82,-293.32 1943.02,-261.69 1951.84,-242.49"/>
<polygon fill="#63b8ff" stroke="#63b8ff" points="1812.02,-347.42 1803.12,-353.18 1813.67,-354.22 1812.02,-347.42"/>
</a>
</g>
</g>
<!-- Node31 -->
<g id="Node000031" class="node">
<title>Node31</title>
<g id="a_Node000031"><a xlink:href="tmc2209__setup_8h.html" target="_top" xlink:title=" ">
<polygon fill="white" stroke="#666666" points="1801.38,-242 1675.88,-242 1675.88,-208.5 1801.38,-208.5 1801.38,-242"/>
<text xml:space="preserve" text-anchor="start" x="1683.88" y="-228.5" font-family="Helvetica,sans-Serif" font-size="10.00">source/driver/tmc2209</text>
<text xml:space="preserve" text-anchor="middle" x="1738.62" y="-215.75" font-family="Helvetica,sans-Serif" font-size="10.00">/tmc2209_setup.h</text>
</a>
</g>
</g>
<!-- Node1&#45;&gt;Node31 -->
<g id="edge60_Node000001_Node000031" class="edge">
<title>Node1&#45;&gt;Node31</title>
<g id="a_edge60_Node000001_Node000031"><a xlink:title=" ">
<path fill="none" stroke="#63b8ff" d="M1738.62,-335.87C1738.62,-307.79 1738.62,-265.07 1738.62,-242.13"/>
<polygon fill="#63b8ff" stroke="#63b8ff" points="1735.13,-335.75 1738.63,-345.75 1742.13,-335.75 1735.13,-335.75"/>
</a>
</g>
</g>
<!-- Node3&#45;&gt;Node2 -->
<g id="edge4_Node000003_Node000002" class="edge">
<title>Node3&#45;&gt;Node2</title>
<g id="a_edge4_Node000003_Node000002"><a xlink:title=" ">
<path fill="none" stroke="#63b8ff" d="M1346.3,-269.23C1362.98,-250.64 1387.83,-225.49 1413.62,-208.5 1436.22,-193.62 1463.8,-181.59 1487.21,-172.9"/>
<polygon fill="#63b8ff" stroke="#63b8ff" points="1343.78,-266.8 1339.8,-276.62 1349.04,-271.42 1343.78,-266.8"/>
</a>
</g>
</g>
<!-- Node4 -->
<g id="Node000004" class="node">
<title>Node4</title>
<g id="a_Node000004"><a xlink:href="application_8c.html" target="_top" xlink:title=" ">
<polygon fill="white" stroke="#666666" points="1226.38,-166.12 1112.88,-166.12 1112.88,-145.38 1226.38,-145.38 1226.38,-166.12"/>
<text xml:space="preserve" text-anchor="middle" x="1169.62" y="-152.62" font-family="Helvetica,sans-Serif" font-size="10.00">source/application.c</text>
</a>
</g>
</g>
<!-- Node3&#45;&gt;Node4 -->
<g id="edge3_Node000003_Node000004" class="edge">
<title>Node3&#45;&gt;Node4</title>
<g id="a_edge3_Node000003_Node000004"><a xlink:title=" ">
<path fill="none" stroke="#63b8ff" d="M1299.17,-270.52C1264.49,-240.06 1205.19,-187.98 1180.7,-166.48"/>
<polygon fill="#63b8ff" stroke="#63b8ff" points="1296.46,-272.8 1306.29,-276.77 1301.08,-267.54 1296.46,-272.8"/>
</a>
</g>
</g>
<!-- Node5 -->
<g id="Node000005" class="node">
<title>Node5</title>
<g id="a_Node000005"><a xlink:href="motor__core_8h.html" target="_top" xlink:title=" ">
<polygon fill="white" stroke="#666666" points="585.62,-242 467.62,-242 467.62,-208.5 585.62,-208.5 585.62,-242"/>
<text xml:space="preserve" text-anchor="start" x="475.62" y="-228.5" font-family="Helvetica,sans-Serif" font-size="10.00">source/motion/motor</text>
<text xml:space="preserve" text-anchor="middle" x="526.62" y="-215.75" font-family="Helvetica,sans-Serif" font-size="10.00">/motor_core.h</text>
</a>
</g>
</g>
<!-- Node3&#45;&gt;Node5 -->
<g id="edge5_Node000003_Node000005" class="edge">
<title>Node3&#45;&gt;Node5</title>
<g id="a_edge5_Node000003_Node000005"><a xlink:title=" ">
<path fill="none" stroke="#63b8ff" d="M1251.16,-287.46C1093.6,-274.15 729.19,-243.36 585.97,-231.26"/>
<polygon fill="#63b8ff" stroke="#63b8ff" points="1250.83,-290.94 1261.09,-288.3 1251.42,-283.97 1250.83,-290.94"/>
</a>
</g>
</g>
<!-- Node14 -->
<g id="Node000014" class="node">
<title>Node14</title>
<g id="a_Node000014"><a xlink:href="motor__init_8c.html" target="_top" xlink:title=" ">
<polygon fill="white" stroke="#666666" points="1393.62,-33.5 1275.62,-33.5 1275.62,0 1393.62,0 1393.62,-33.5"/>
<text xml:space="preserve" text-anchor="start" x="1283.62" y="-20" font-family="Helvetica,sans-Serif" font-size="10.00">source/motion/motor</text>
<text xml:space="preserve" text-anchor="middle" x="1334.62" y="-7.25" font-family="Helvetica,sans-Serif" font-size="10.00">/motor_init.c</text>
</a>
</g>
</g>
<!-- Node3&#45;&gt;Node14 -->
<g id="edge43_Node000003_Node000014" class="edge">
<title>Node3&#45;&gt;Node14</title>
<g id="a_edge43_Node000003_Node000014"><a xlink:title=" ">
<path fill="none" stroke="#63b8ff" d="M1326.71,-266.62C1327.02,-258.69 1327.35,-250 1327.62,-242 1330.35,-163.95 1333.1,-70.6 1334.17,-33.79"/>
<polygon fill="#63b8ff" stroke="#63b8ff" points="1323.22,-266.25 1326.33,-276.38 1330.22,-266.53 1323.22,-266.25"/>
</a>
</g>
</g>
<!-- Node18 -->
<g id="Node000018" class="node">
<title>Node18</title>
<g id="a_Node000018"><a xlink:href="motor__tmc_8c.html" target="_top" xlink:title=" ">
<polygon fill="white" stroke="#666666" points="1252.62,-33.5 1134.62,-33.5 1134.62,0 1252.62,0 1252.62,-33.5"/>
<text xml:space="preserve" text-anchor="start" x="1142.62" y="-20" font-family="Helvetica,sans-Serif" font-size="10.00">source/motion/motor</text>
<text xml:space="preserve" text-anchor="middle" x="1193.62" y="-7.25" font-family="Helvetica,sans-Serif" font-size="10.00">/motor_tmc.c</text>
</a>
</g>
</g>
<!-- Node3&#45;&gt;Node18 -->
<g id="edge44_Node000003_Node000018" class="edge">
<title>Node3&#45;&gt;Node18</title>
<g id="a_edge44_Node000003_Node000018"><a xlink:title=" ">
<path fill="none" stroke="#63b8ff" d="M1324.93,-266.09C1323.11,-213.28 1316.69,-100.58 1294.62,-69.5 1283.16,-53.35 1265.13,-41.91 1247.46,-33.96"/>
<polygon fill="#63b8ff" stroke="#63b8ff" points="1321.43,-266.16 1325.24,-276.05 1328.43,-265.95 1321.43,-266.16"/>
</a>
</g>
</g>
<!-- Node5&#45;&gt;Node4 -->
<g id="edge6_Node000005_Node000004" class="edge">
<title>Node5&#45;&gt;Node4</title>
<g id="a_edge6_Node000005_Node000004"><a xlink:title=" ">
<path fill="none" stroke="#63b8ff" d="M597.2,-216.84C725.64,-203.36 995.16,-175.06 1112.74,-162.72"/>
<polygon fill="#63b8ff" stroke="#63b8ff" points="597.05,-213.34 587.47,-217.86 597.78,-220.3 597.05,-213.34"/>
</a>
</g>
</g>
<!-- Node6 -->
<g id="Node000006" class="node">
<title>Node6</title>
<g id="a_Node000006"><a xlink:href="motor__convert_8h.html" target="_top" xlink:title=" ">
<polygon fill="white" stroke="#666666" points="529.62,-103 411.62,-103 411.62,-69.5 529.62,-69.5 529.62,-103"/>
<text xml:space="preserve" text-anchor="start" x="419.62" y="-89.5" font-family="Helvetica,sans-Serif" font-size="10.00">source/motion/motor</text>
<text xml:space="preserve" text-anchor="middle" x="470.62" y="-76.75" font-family="Helvetica,sans-Serif" font-size="10.00">/motor_convert.h</text>
</a>
</g>
</g>
<!-- Node5&#45;&gt;Node6 -->
<g id="edge7_Node000005_Node000006" class="edge">
<title>Node5&#45;&gt;Node6</title>
<g id="a_edge7_Node000005_Node000006"><a xlink:title=" ">
<path fill="none" stroke="#63b8ff" d="M515.74,-197.62C504.27,-169.56 486.58,-126.27 477.12,-103.13"/>
<polygon fill="#63b8ff" stroke="#63b8ff" points="512.5,-198.93 519.52,-206.87 518.97,-196.28 512.5,-198.93"/>
</a>
</g>
</g>
<!-- Node10 -->
<g id="Node000010" class="node">
<title>Node10</title>
<g id="a_Node000010"><a xlink:href="motorCmd_8c.html" target="_top" xlink:title=" ">
<polygon fill="white" stroke="#666666" points="288.25,-27.12 177,-27.12 177,-6.38 288.25,-6.38 288.25,-27.12"/>
<text xml:space="preserve" text-anchor="middle" x="232.62" y="-13.62" font-family="Helvetica,sans-Serif" font-size="10.00">source/motorCmd.c</text>
</a>
</g>
</g>
<!-- Node5&#45;&gt;Node10 -->
<g id="edge38_Node000005_Node000010" class="edge">
<title>Node5&#45;&gt;Node10</title>
<g id="a_edge38_Node000005_Node000010"><a xlink:title=" ">
<path fill="none" stroke="#63b8ff" d="M456.3,-219.1C382.11,-209.48 268.63,-181.92 214.62,-103 198.48,-79.41 215.99,-44.18 226.25,-27.36"/>
<polygon fill="#63b8ff" stroke="#63b8ff" points="455.55,-222.53 465.9,-220.26 456.4,-215.58 455.55,-222.53"/>
</a>
</g>
</g>
<!-- Node11 -->
<g id="Node000011" class="node">
<title>Node11</title>
<g id="a_Node000011"><a xlink:href="motor__homing_8c.html" target="_top" xlink:title=" ">
<polygon fill="white" stroke="#666666" points="437,-27.12 306.25,-27.12 306.25,-6.38 437,-6.38 437,-27.12"/>
<text xml:space="preserve" text-anchor="middle" x="371.62" y="-13.62" font-family="Helvetica,sans-Serif" font-size="10.00">source/motor_homing.c</text>
</a>
</g>
</g>
<!-- Node5&#45;&gt;Node11 -->
<g id="edge41_Node000005_Node000011" class="edge">
<title>Node5&#45;&gt;Node11</title>
<g id="a_edge41_Node000005_Node000011"><a xlink:title=" ">
<path fill="none" stroke="#63b8ff" d="M495.99,-201.02C468.26,-178.6 427.98,-142.33 402.62,-103 386.67,-78.25 377.48,-44.17 373.69,-27.6"/>
<polygon fill="#63b8ff" stroke="#63b8ff" points="493.68,-203.66 503.69,-207.14 498.04,-198.18 493.68,-203.66"/>
</a>
</g>
</g>
<!-- Node12 -->
<g id="Node000012" class="node">
<title>Node12</title>
<g id="a_Node000012"><a xlink:href="motor__core_8c.html" target="_top" xlink:title=" ">
<polygon fill="white" stroke="#666666" points="980.62,-33.5 862.62,-33.5 862.62,0 980.62,0 980.62,-33.5"/>
<text xml:space="preserve" text-anchor="start" x="870.62" y="-20" font-family="Helvetica,sans-Serif" font-size="10.00">source/motion/motor</text>
<text xml:space="preserve" text-anchor="middle" x="921.62" y="-7.25" font-family="Helvetica,sans-Serif" font-size="10.00">/motor_core.c</text>
</a>
</g>
</g>
<!-- Node5&#45;&gt;Node12 -->
<g id="edge13_Node000005_Node000012" class="edge">
<title>Node5&#45;&gt;Node12</title>
<g id="a_edge13_Node000005_Node000012"><a xlink:title=" ">
<path fill="none" stroke="#63b8ff" d="M533.96,-197.16C545.1,-161.64 569.87,-100.22 614.62,-69.5 703.18,-8.7 748.11,-53.63 853.62,-33.5 856.48,-32.95 859.4,-32.37 862.34,-31.77"/>
<polygon fill="#63b8ff" stroke="#63b8ff" points="530.63,-196.1 531.13,-206.69 537.34,-198.1 530.63,-196.1"/>
</a>
</g>
</g>
<!-- Node13 -->
<g id="Node000013" class="node">
<title>Node13</title>
<g id="a_Node000013"><a xlink:href="motor__init_8h.html" target="_top" xlink:title=" ">
<polygon fill="white" stroke="#666666" points="1285.62,-103 1167.62,-103 1167.62,-69.5 1285.62,-69.5 1285.62,-103"/>
<text xml:space="preserve" text-anchor="start" x="1175.62" y="-89.5" font-family="Helvetica,sans-Serif" font-size="10.00">source/motion/motor</text>
<text xml:space="preserve" text-anchor="middle" x="1226.62" y="-76.75" font-family="Helvetica,sans-Serif" font-size="10.00">/motor_init.h</text>
</a>
</g>
</g>
<!-- Node5&#45;&gt;Node13 -->
<g id="edge14_Node000005_Node000013" class="edge">
<title>Node5&#45;&gt;Node13</title>
<g id="a_edge14_Node000005_Node000013"><a xlink:title=" ">
<path fill="none" stroke="#63b8ff" d="M597.3,-211.6C714.3,-190.45 955.53,-145.99 1158.62,-103 1161.47,-102.4 1164.38,-101.77 1167.32,-101.13"/>
<polygon fill="#63b8ff" stroke="#63b8ff" points="596.73,-208.14 587.52,-213.36 597.98,-215.03 596.73,-208.14"/>
</a>
</g>
</g>
<!-- Node16 -->
<g id="Node000016" class="node">
<title>Node16</title>
<g id="a_Node000016"><a xlink:href="motor__internal_8h.html" target="_top" xlink:title=" ">
<polygon fill="white" stroke="#666666" points="776.62,-172.5 658.62,-172.5 658.62,-139 776.62,-139 776.62,-172.5"/>
<text xml:space="preserve" text-anchor="start" x="666.62" y="-159" font-family="Helvetica,sans-Serif" font-size="10.00">source/motion/motor</text>
<text xml:space="preserve" text-anchor="middle" x="717.62" y="-146.25" font-family="Helvetica,sans-Serif" font-size="10.00">/motor_internal.h</text>
</a>
</g>
</g>
<!-- Node5&#45;&gt;Node16 -->
<g id="edge17_Node000005_Node000016" class="edge">
<title>Node5&#45;&gt;Node16</title>
<g id="a_edge17_Node000005_Node000016"><a xlink:title=" ">
<path fill="none" stroke="#63b8ff" d="M582.94,-204.35C611.29,-194.33 645.21,-182.34 671.92,-172.9"/>
<polygon fill="#63b8ff" stroke="#63b8ff" points="582.06,-200.95 573.8,-207.58 584.4,-207.55 582.06,-200.95"/>
</a>
</g>
</g>
<!-- Node23 -->
<g id="Node000023" class="node">
<title>Node23</title>
<g id="a_Node000023"><a xlink:href="motor__test_8c.html" target="_top" xlink:title=" ">
<polygon fill="white" stroke="#666666" points="159,-27.12 46.25,-27.12 46.25,-6.38 159,-6.38 159,-27.12"/>
<text xml:space="preserve" text-anchor="middle" x="102.62" y="-13.62" font-family="Helvetica,sans-Serif" font-size="10.00">source/motor_test.c</text>
</a>
</g>
</g>
<!-- Node5&#45;&gt;Node23 -->
<g id="edge42_Node000005_Node000023" class="edge">
<title>Node5&#45;&gt;Node23</title>
<g id="a_edge42_Node000005_Node000023"><a xlink:title=" ">
<path fill="none" stroke="#63b8ff" d="M456.16,-223.61C396.45,-220.3 310.31,-208.81 244.62,-172.5 177.61,-135.46 124.99,-55.06 108.24,-27.36"/>
<polygon fill="#63b8ff" stroke="#63b8ff" points="455.69,-227.09 465.85,-224.08 456.03,-220.1 455.69,-227.09"/>
</a>
</g>
</g>
<!-- Node24 -->
<g id="Node000024" class="node">
<title>Node24</title>
<g id="a_Node000024"><a xlink:href="motor__configs_8h.html" target="_top" xlink:title=" ">
<polygon fill="white" stroke="#666666" points="129.25,-166.12 0,-166.12 0,-145.38 129.25,-145.38 129.25,-166.12"/>
<text xml:space="preserve" text-anchor="middle" x="64.62" y="-152.62" font-family="Helvetica,sans-Serif" font-size="10.00">source/motor_configs.h</text>
</a>
</g>
</g>
<!-- Node5&#45;&gt;Node24 -->
<g id="edge39_Node000005_Node000024" class="edge">
<title>Node5&#45;&gt;Node24</title>
<g id="a_edge39_Node000005_Node000024"><a xlink:title=" ">
<path fill="none" stroke="#63b8ff" d="M456.42,-216.1C379.46,-206.85 252.43,-190.68 143.62,-172.5 133.14,-170.75 121.92,-168.65 111.32,-166.56"/>
<polygon fill="#63b8ff" stroke="#63b8ff" points="455.55,-219.52 465.9,-217.23 456.39,-212.57 455.55,-219.52"/>
</a>
</g>
</g>
<!-- Node7 -->
<g id="Node000007" class="node">
<title>Node7</title>
<g id="a_Node000007"><a xlink:href="motor__convert_8c.html" target="_top" xlink:title=" ">
<polygon fill="white" stroke="#666666" points="572.62,-33.5 454.62,-33.5 454.62,0 572.62,0 572.62,-33.5"/>
<text xml:space="preserve" text-anchor="start" x="462.62" y="-20" font-family="Helvetica,sans-Serif" font-size="10.00">source/motion/motor</text>
<text xml:space="preserve" text-anchor="middle" x="513.62" y="-7.25" font-family="Helvetica,sans-Serif" font-size="10.00">/motor_convert.c</text>
</a>
</g>
</g>
<!-- Node6&#45;&gt;Node7 -->
<g id="edge8_Node000006_Node000007" class="edge">
<title>Node6&#45;&gt;Node7</title>
<g id="a_edge8_Node000006_Node000007"><a xlink:title=" ">
<path fill="none" stroke="#63b8ff" d="M486.83,-59.81C492.43,-51.02 498.54,-41.43 503.51,-33.63"/>
<polygon fill="#63b8ff" stroke="#63b8ff" points="484.05,-57.66 481.63,-67.98 489.95,-61.42 484.05,-57.66"/>
</a>
</g>
</g>
<!-- Node8 -->
<g id="Node000008" class="node">
<title>Node8</title>
<g id="a_Node000008"><a xlink:href="motor__motion_8c.html" target="_top" xlink:title=" ">
<polygon fill="white" stroke="#666666" points="844.62,-33.5 726.62,-33.5 726.62,0 844.62,0 844.62,-33.5"/>
<text xml:space="preserve" text-anchor="start" x="734.62" y="-20" font-family="Helvetica,sans-Serif" font-size="10.00">source/motion/motor</text>
<text xml:space="preserve" text-anchor="middle" x="785.62" y="-7.25" font-family="Helvetica,sans-Serif" font-size="10.00">/motor_motion.c</text>
</a>
</g>
</g>
<!-- Node6&#45;&gt;Node8 -->
<g id="edge9_Node000006_Node000008" class="edge">
<title>Node6&#45;&gt;Node8</title>
<g id="a_edge9_Node000006_Node000008"><a xlink:title=" ">
<path fill="none" stroke="#63b8ff" d="M541.11,-70.03C541.95,-69.85 542.79,-69.68 543.62,-69.5 620.89,-53.17 640.49,-50.41 717.62,-33.5 720.47,-32.88 723.37,-32.23 726.31,-31.58"/>
<polygon fill="#63b8ff" stroke="#63b8ff" points="540.51,-66.58 531.46,-72.09 541.97,-73.43 540.51,-66.58"/>
</a>
</g>
</g>
<!-- Node9 -->
<g id="Node000009" class="node">
<title>Node9</title>
<g id="a_Node000009"><a xlink:href="motor__sync_8c.html" target="_top" xlink:title=" ">
<polygon fill="white" stroke="#666666" points="708.62,-33.5 590.62,-33.5 590.62,0 708.62,0 708.62,-33.5"/>
<text xml:space="preserve" text-anchor="start" x="598.62" y="-20" font-family="Helvetica,sans-Serif" font-size="10.00">source/motion/motor</text>
<text xml:space="preserve" text-anchor="middle" x="649.62" y="-7.25" font-family="Helvetica,sans-Serif" font-size="10.00">/motor_sync.c</text>
</a>
</g>
</g>
<!-- Node6&#45;&gt;Node9 -->
<g id="edge10_Node000006_Node000009" class="edge">
<title>Node6&#45;&gt;Node9</title>
<g id="a_edge10_Node000006_Node000009"><a xlink:title=" ">
<path fill="none" stroke="#63b8ff" d="M524.1,-65.08C550.53,-55.12 581.98,-43.26 606.79,-33.9"/>
<polygon fill="#63b8ff" stroke="#63b8ff" points="523.04,-61.74 514.92,-68.55 525.51,-68.29 523.04,-61.74"/>
</a>
</g>
</g>
<!-- Node6&#45;&gt;Node10 -->
<g id="edge11_Node000006_Node000010" class="edge">
<title>Node6&#45;&gt;Node10</title>
<g id="a_edge11_Node000006_Node000010"><a xlink:title=" ">
<path fill="none" stroke="#63b8ff" d="M402.66,-65.97C358.51,-53.45 302.79,-37.65 267.42,-27.62"/>
<polygon fill="#63b8ff" stroke="#63b8ff" points="401.59,-69.31 412.16,-68.67 403.5,-62.57 401.59,-69.31"/>
</a>
</g>
</g>
<!-- Node6&#45;&gt;Node11 -->
<g id="edge12_Node000006_Node000011" class="edge">
<title>Node6&#45;&gt;Node11</title>
<g id="a_edge12_Node000006_Node000011"><a xlink:title=" ">
<path fill="none" stroke="#63b8ff" d="M437.56,-62.71C420.04,-50.76 399.41,-36.69 385.96,-27.52"/>
<polygon fill="#63b8ff" stroke="#63b8ff" points="435.43,-65.49 445.66,-68.23 439.37,-59.7 435.43,-65.49"/>
</a>
</g>
</g>
<!-- Node13&#45;&gt;Node14 -->
<g id="edge15_Node000013_Node000014" class="edge">
<title>Node13&#45;&gt;Node14</title>
<g id="a_edge15_Node000013_Node000014"><a xlink:title=" ">
<path fill="none" stroke="#63b8ff" d="M1262.16,-63.04C1277.44,-53.49 1294.98,-42.53 1308.97,-33.79"/>
<polygon fill="#63b8ff" stroke="#63b8ff" points="1260.4,-60.01 1253.78,-68.28 1264.11,-65.95 1260.4,-60.01"/>
</a>
</g>
</g>
<!-- Node15 -->
<g id="Node000015" class="node">
<title>Node15</title>
<g id="a_Node000015"><a xlink:href="motor__process_8c.html" target="_top" xlink:title=" ">
<polygon fill="white" stroke="#666666" points="1116.62,-33.5 998.62,-33.5 998.62,0 1116.62,0 1116.62,-33.5"/>
<text xml:space="preserve" text-anchor="start" x="1006.62" y="-20" font-family="Helvetica,sans-Serif" font-size="10.00">source/motion/motor</text>
<text xml:space="preserve" text-anchor="middle" x="1057.62" y="-7.25" font-family="Helvetica,sans-Serif" font-size="10.00">/motor_process.c</text>
</a>
</g>
</g>
<!-- Node13&#45;&gt;Node15 -->
<g id="edge16_Node000013_Node000015" class="edge">
<title>Node13&#45;&gt;Node15</title>
<g id="a_edge16_Node000013_Node000015"><a xlink:title=" ">
<path fill="none" stroke="#63b8ff" d="M1175.47,-64.82C1150.66,-54.91 1121.28,-43.18 1098.07,-33.9"/>
<polygon fill="#63b8ff" stroke="#63b8ff" points="1174.15,-68.06 1184.74,-68.52 1176.75,-61.56 1174.15,-68.06"/>
</a>
</g>
</g>
<!-- Node16&#45;&gt;Node7 -->
<g id="edge18_Node000016_Node000007" class="edge">
<title>Node16&#45;&gt;Node7</title>
<g id="a_edge18_Node000016_Node000007"><a xlink:title=" ">
<path fill="none" stroke="#63b8ff" d="M670,-133.72C652.12,-125.08 631.94,-114.43 614.62,-103 582.64,-81.89 549.41,-52.05 530.16,-33.84"/>
<polygon fill="#63b8ff" stroke="#63b8ff" points="668.33,-136.8 678.86,-137.92 671.32,-130.47 668.33,-136.8"/>
</a>
</g>
</g>
<!-- Node16&#45;&gt;Node13 -->
<g id="edge19_Node000016_Node000013" class="edge">
<title>Node16&#45;&gt;Node13</title>
<g id="a_edge19_Node000016_Node000013"><a xlink:title=" ">
<path fill="none" stroke="#63b8ff" d="M788.13,-148.9C875.49,-141.1 1028.7,-125.6 1158.62,-103 1161.49,-102.5 1164.42,-101.96 1167.37,-101.38"/>
<polygon fill="#63b8ff" stroke="#63b8ff" points="787.94,-145.41 778.28,-149.77 788.55,-152.38 787.94,-145.41"/>
</a>
</g>
</g>
<!-- Node17 -->
<g id="Node000017" class="node">
<title>Node17</title>
<g id="a_Node000017"><a xlink:href="motor__motion_8h.html" target="_top" xlink:title=" ">
<polygon fill="white" stroke="#666666" points="877.62,-103 759.62,-103 759.62,-69.5 877.62,-69.5 877.62,-103"/>
<text xml:space="preserve" text-anchor="start" x="767.62" y="-89.5" font-family="Helvetica,sans-Serif" font-size="10.00">source/motion/motor</text>
<text xml:space="preserve" text-anchor="middle" x="818.62" y="-76.75" font-family="Helvetica,sans-Serif" font-size="10.00">/motor_motion.h</text>
</a>
</g>
</g>
<!-- Node16&#45;&gt;Node17 -->
<g id="edge20_Node000016_Node000017" class="edge">
<title>Node16&#45;&gt;Node17</title>
<g id="a_edge20_Node000016_Node000017"><a xlink:title=" ">
<path fill="none" stroke="#63b8ff" d="M751.26,-132.27C765.46,-122.78 781.67,-111.95 794.63,-103.29"/>
<polygon fill="#63b8ff" stroke="#63b8ff" points="749.44,-129.27 743.08,-137.74 753.33,-135.09 749.44,-129.27"/>
</a>
</g>
</g>
<!-- Node19 -->
<g id="Node000019" class="node">
<title>Node19</title>
<g id="a_Node000019"><a xlink:href="motor__process_8h.html" target="_top" xlink:title=" ">
<polygon fill="white" stroke="#666666" points="1013.62,-103 895.62,-103 895.62,-69.5 1013.62,-69.5 1013.62,-103"/>
<text xml:space="preserve" text-anchor="start" x="903.62" y="-89.5" font-family="Helvetica,sans-Serif" font-size="10.00">source/motion/motor</text>
<text xml:space="preserve" text-anchor="middle" x="954.62" y="-76.75" font-family="Helvetica,sans-Serif" font-size="10.00">/motor_process.h</text>
</a>
</g>
</g>
<!-- Node16&#45;&gt;Node19 -->
<g id="edge25_Node000016_Node000019" class="edge">
<title>Node16&#45;&gt;Node19</title>
<g id="a_edge25_Node000016_Node000019"><a xlink:title=" ">
<path fill="none" stroke="#63b8ff" d="M785.19,-135.51C820.82,-125.36 864.04,-113.05 897.91,-103.4"/>
<polygon fill="#63b8ff" stroke="#63b8ff" points="784.51,-132.06 775.85,-138.17 786.42,-138.79 784.51,-132.06"/>
</a>
</g>
</g>
<!-- Node20 -->
<g id="Node000020" class="node">
<title>Node20</title>
<g id="a_Node000020"><a xlink:href="motor__sync_8h.html" target="_top" xlink:title=" ">
<polygon fill="white" stroke="#666666" points="741.62,-103 623.62,-103 623.62,-69.5 741.62,-69.5 741.62,-103"/>
<text xml:space="preserve" text-anchor="start" x="631.62" y="-89.5" font-family="Helvetica,sans-Serif" font-size="10.00">source/motion/motor</text>
<text xml:space="preserve" text-anchor="middle" x="682.62" y="-76.75" font-family="Helvetica,sans-Serif" font-size="10.00">/motor_sync.h</text>
</a>
</g>
</g>
<!-- Node16&#45;&gt;Node20 -->
<g id="edge28_Node000016_Node000020" class="edge">
<title>Node16&#45;&gt;Node20</title>
<g id="a_edge28_Node000016_Node000020"><a xlink:title=" ">
<path fill="none" stroke="#63b8ff" d="M704.14,-128.74C699.66,-120.11 694.82,-110.76 690.86,-103.13"/>
<polygon fill="#63b8ff" stroke="#63b8ff" points="700.92,-130.14 708.63,-137.41 707.14,-126.92 700.92,-130.14"/>
</a>
</g>
</g>
<!-- Node21 -->
<g id="Node000021" class="node">
<title>Node21</title>
<g id="a_Node000021"><a xlink:href="motor__tmc_8h.html" target="_top" xlink:title=" ">
<polygon fill="white" stroke="#666666" points="1149.62,-103 1031.62,-103 1031.62,-69.5 1149.62,-69.5 1149.62,-103"/>
<text xml:space="preserve" text-anchor="start" x="1039.62" y="-89.5" font-family="Helvetica,sans-Serif" font-size="10.00">source/motion/motor</text>
<text xml:space="preserve" text-anchor="middle" x="1090.62" y="-76.75" font-family="Helvetica,sans-Serif" font-size="10.00">/motor_tmc.h</text>
</a>
</g>
</g>
<!-- Node16&#45;&gt;Node21 -->
<g id="edge31_Node000016_Node000021" class="edge">
<title>Node16&#45;&gt;Node21</title>
<g id="a_edge31_Node000016_Node000021"><a xlink:title=" ">
<path fill="none" stroke="#63b8ff" d="M788.06,-144.02C850.02,-134.29 942.56,-119.05 1022.62,-103 1025.48,-102.43 1028.39,-101.83 1031.33,-101.2"/>
<polygon fill="#63b8ff" stroke="#63b8ff" points="787.69,-140.53 778.35,-145.54 788.77,-147.45 787.69,-140.53"/>
</a>
</g>
</g>
<!-- Node22 -->
<g id="Node000022" class="node">
<title>Node22</title>
<g id="a_Node000022"><a xlink:href="motor__homing_8h.html" target="_top" xlink:title=" ">
<polygon fill="white" stroke="#666666" points="355.38,-96.62 223.88,-96.62 223.88,-75.88 355.38,-75.88 355.38,-96.62"/>
<text xml:space="preserve" text-anchor="middle" x="289.62" y="-83.12" font-family="Helvetica,sans-Serif" font-size="10.00">source/motor_homing.h</text>
</a>
</g>
</g>
<!-- Node16&#45;&gt;Node22 -->
<g id="edge34_Node000016_Node000022" class="edge">
<title>Node16&#45;&gt;Node22</title>
<g id="a_edge34_Node000016_Node000022"><a xlink:title=" ">
<path fill="none" stroke="#63b8ff" d="M647.33,-143.66C565.16,-130.7 430.45,-109.46 351.9,-97.07"/>
<polygon fill="#63b8ff" stroke="#63b8ff" points="646.64,-147.1 657.07,-145.2 647.74,-140.18 646.64,-147.1"/>
</a>
</g>
</g>
<!-- Node17&#45;&gt;Node8 -->
<g id="edge22_Node000017_Node000008" class="edge">
<title>Node17&#45;&gt;Node8</title>
<g id="a_edge22_Node000017_Node000008"><a xlink:title=" ">
<path fill="none" stroke="#63b8ff" d="M805.77,-58.96C801.59,-50.41 797.08,-41.18 793.39,-33.63"/>
<polygon fill="#63b8ff" stroke="#63b8ff" points="802.6,-60.45 810.14,-67.89 808.89,-57.37 802.6,-60.45"/>
</a>
</g>
</g>
<!-- Node17&#45;&gt;Node12 -->
<g id="edge21_Node000017_Node000012" class="edge">
<title>Node17&#45;&gt;Node12</title>
<g id="a_edge21_Node000017_Node000012"><a xlink:title=" ">
<path fill="none" stroke="#63b8ff" d="M852.51,-63.04C867.09,-53.49 883.81,-42.53 897.16,-33.79"/>
<polygon fill="#63b8ff" stroke="#63b8ff" points="851.01,-59.84 844.56,-68.25 854.84,-65.7 851.01,-59.84"/>
</a>
</g>
</g>
<!-- Node17&#45;&gt;Node15 -->
<g id="edge23_Node000017_Node000015" class="edge">
<title>Node17&#45;&gt;Node15</title>
<g id="a_edge23_Node000017_Node000015"><a xlink:title=" ">
<path fill="none" stroke="#63b8ff" d="M886.76,-66.01C922.69,-55.86 966.28,-43.55 1000.43,-33.9"/>
<polygon fill="#63b8ff" stroke="#63b8ff" points="886,-62.58 877.33,-68.67 887.9,-69.32 886,-62.58"/>
</a>
</g>
</g>
<!-- Node17&#45;&gt;Node18 -->
<g id="edge24_Node000017_Node000018" class="edge">
<title>Node17&#45;&gt;Node18</title>
<g id="a_edge24_Node000017_Node000018"><a xlink:title=" ">
<path fill="none" stroke="#63b8ff" d="M889.01,-69.14C994.08,-49.62 1023.61,-52.97 1125.62,-33.5 1128.48,-32.95 1131.4,-32.37 1134.34,-31.77"/>
<polygon fill="#63b8ff" stroke="#63b8ff" points="888.57,-65.66 879.39,-70.95 889.87,-72.54 888.57,-65.66"/>
</a>
</g>
</g>
<!-- Node19&#45;&gt;Node12 -->
<g id="edge26_Node000019_Node000012" class="edge">
<title>Node19&#45;&gt;Node12</title>
<g id="a_edge26_Node000019_Node000012"><a xlink:title=" ">
<path fill="none" stroke="#63b8ff" d="M941.77,-58.96C937.59,-50.41 933.08,-41.18 929.39,-33.63"/>
<polygon fill="#63b8ff" stroke="#63b8ff" points="938.6,-60.45 946.14,-67.89 944.89,-57.37 938.6,-60.45"/>
</a>
</g>
</g>
<!-- Node19&#45;&gt;Node15 -->
<g id="edge27_Node000019_Node000015" class="edge">
<title>Node19&#45;&gt;Node15</title>
<g id="a_edge27_Node000019_Node000015"><a xlink:title=" ">
<path fill="none" stroke="#63b8ff" d="M988.51,-63.04C1003.09,-53.49 1019.81,-42.53 1033.16,-33.79"/>
<polygon fill="#63b8ff" stroke="#63b8ff" points="987.01,-59.84 980.56,-68.25 990.84,-65.7 987.01,-59.84"/>
</a>
</g>
</g>
<!-- Node20&#45;&gt;Node9 -->
<g id="edge30_Node000020_Node000009" class="edge">
<title>Node20&#45;&gt;Node9</title>
<g id="a_edge30_Node000020_Node000009"><a xlink:title=" ">
<path fill="none" stroke="#63b8ff" d="M669.77,-58.96C665.59,-50.41 661.08,-41.18 657.39,-33.63"/>
<polygon fill="#63b8ff" stroke="#63b8ff" points="666.6,-60.45 674.14,-67.89 672.89,-57.37 666.6,-60.45"/>
</a>
</g>
</g>
<!-- Node20&#45;&gt;Node15 -->
<g id="edge29_Node000020_Node000015" class="edge">
<title>Node20&#45;&gt;Node15</title>
<g id="a_edge29_Node000020_Node000015"><a xlink:title=" ">
<path fill="none" stroke="#63b8ff" d="M753.01,-69.14C858.08,-49.62 887.61,-52.97 989.62,-33.5 992.48,-32.95 995.4,-32.37 998.34,-31.77"/>
<polygon fill="#63b8ff" stroke="#63b8ff" points="752.57,-65.66 743.39,-70.95 753.87,-72.54 752.57,-65.66"/>
</a>
</g>
</g>
<!-- Node21&#45;&gt;Node15 -->
<g id="edge32_Node000021_Node000015" class="edge">
<title>Node21&#45;&gt;Node15</title>
<g id="a_edge32_Node000021_Node000015"><a xlink:title=" ">
<path fill="none" stroke="#63b8ff" d="M1077.77,-58.96C1073.59,-50.41 1069.08,-41.18 1065.39,-33.63"/>
<polygon fill="#63b8ff" stroke="#63b8ff" points="1074.6,-60.45 1082.14,-67.89 1080.89,-57.37 1074.6,-60.45"/>
</a>
</g>
</g>
<!-- Node21&#45;&gt;Node18 -->
<g id="edge33_Node000021_Node000018" class="edge">
<title>Node21&#45;&gt;Node18</title>
<g id="a_edge33_Node000021_Node000018"><a xlink:title=" ">
<path fill="none" stroke="#63b8ff" d="M1124.51,-63.04C1139.09,-53.49 1155.81,-42.53 1169.16,-33.79"/>
<polygon fill="#63b8ff" stroke="#63b8ff" points="1123.01,-59.84 1116.56,-68.25 1126.84,-65.7 1123.01,-59.84"/>
</a>
</g>
</g>
<!-- Node22&#45;&gt;Node10 -->
<g id="edge35_Node000022_Node000010" class="edge">
<title>Node22&#45;&gt;Node10</title>
<g id="a_edge35_Node000022_Node000010"><a xlink:title=" ">
<path fill="none" stroke="#63b8ff" d="M274.29,-67.1C263.51,-54.32 249.49,-37.72 240.78,-27.4"/>
<polygon fill="#63b8ff" stroke="#63b8ff" points="271.36,-69.04 280.48,-74.42 276.7,-64.52 271.36,-69.04"/>
</a>
</g>
</g>
<!-- Node22&#45;&gt;Node11 -->
<g id="edge36_Node000022_Node000011" class="edge">
<title>Node22&#45;&gt;Node11</title>
<g id="a_edge36_Node000022_Node000011"><a xlink:title=" ">
<path fill="none" stroke="#63b8ff" d="M309.84,-68.61C325.47,-55.75 346.57,-38.37 359.63,-27.62"/>
<polygon fill="#63b8ff" stroke="#63b8ff" points="308.04,-65.56 302.54,-74.62 312.49,-70.96 308.04,-65.56"/>
</a>
</g>
</g>
<!-- Node22&#45;&gt;Node23 -->
<g id="edge37_Node000022_Node000023" class="edge">
<title>Node22&#45;&gt;Node23</title>
<g id="a_edge37_Node000022_Node000023"><a xlink:title=" ">
<path fill="none" stroke="#63b8ff" d="M251.81,-71.6C215.65,-58.55 161.99,-39.18 129.85,-27.58"/>
<polygon fill="#63b8ff" stroke="#63b8ff" points="250.42,-74.82 261.01,-74.92 252.79,-68.23 250.42,-74.82"/>
</a>
</g>
</g>
<!-- Node24&#45;&gt;Node23 -->
<g id="edge40_Node000024_Node000023" class="edge">
<title>Node24&#45;&gt;Node23</title>
<g id="a_edge40_Node000024_Node000023"><a xlink:title=" ">
<path fill="none" stroke="#63b8ff" d="M70.37,-134.03C78.7,-104.02 93.78,-49.64 99.92,-27.51"/>
<polygon fill="#63b8ff" stroke="#63b8ff" points="67.06,-132.87 67.76,-143.44 73.81,-134.74 67.06,-132.87"/>
</a>
</g>
</g>
<!-- Node25&#45;&gt;Node2 -->
<g id="edge46_Node000025_Node000002" class="edge">
<title>Node25&#45;&gt;Node2</title>
<g id="a_edge46_Node000025_Node000002"><a xlink:title=" ">
<path fill="none" stroke="#63b8ff" d="M1755.82,-275.02C1727.28,-266.58 1694.78,-255.45 1666.62,-242 1625.69,-222.44 1582.58,-191.55 1558.01,-172.82"/>
<polygon fill="#63b8ff" stroke="#63b8ff" points="1754.51,-278.29 1765.09,-277.71 1756.46,-271.56 1754.51,-278.29"/>
</a>
</g>
</g>
<!-- Node25&#45;&gt;Node26 -->
<g id="edge47_Node000025_Node000026" class="edge">
<title>Node25&#45;&gt;Node26</title>
<g id="a_edge47_Node000025_Node000026"><a xlink:title=" ">
<path fill="none" stroke="#63b8ff" d="M1829.11,-266.25C1827.51,-248.28 1822.93,-225.14 1810.62,-208.5 1798.96,-192.72 1780.94,-181.04 1764,-172.81"/>
<polygon fill="#63b8ff" stroke="#63b8ff" points="1825.62,-266.43 1829.71,-276.21 1832.6,-266.01 1825.62,-266.43"/>
</a>
</g>
</g>
<!-- Node25&#45;&gt;Node27 -->
<g id="edge48_Node000025_Node000027" class="edge">
<title>Node25&#45;&gt;Node27</title>
<g id="a_edge48_Node000025_Node000027"><a xlink:title=" ">
<path fill="none" stroke="#63b8ff" d="M1755.66,-277.7C1702.67,-266.2 1632.07,-250.87 1581.73,-239.95"/>
<polygon fill="#63b8ff" stroke="#63b8ff" points="1754.7,-281.07 1765.21,-279.77 1756.18,-274.23 1754.7,-281.07"/>
</a>
</g>
</g>
<!-- Node25&#45;&gt;Node28 -->
<g id="edge51_Node000025_Node000028" class="edge">
<title>Node25&#45;&gt;Node28</title>
<g id="a_edge51_Node000025_Node000028"><a xlink:title=" ">
<path fill="none" stroke="#63b8ff" d="M1903.69,-287.6C1944.21,-281.23 1993.54,-268.29 2030.62,-242 2055.46,-224.39 2072.55,-192.27 2081.16,-172.88"/>
<polygon fill="#63b8ff" stroke="#63b8ff" points="1903.4,-284.11 1894.01,-289.01 1904.41,-291.04 1903.4,-284.11"/>
</a>
</g>
</g>
<!-- Node25&#45;&gt;Node29 -->
<g id="edge52_Node000025_Node000029" class="edge">
<title>Node25&#45;&gt;Node29</title>
<g id="a_edge52_Node000025_Node000029"><a xlink:title=" ">
<path fill="none" stroke="#63b8ff" d="M1844.58,-267.94C1855.29,-250.4 1870.59,-227.1 1886.62,-208.5 1897.8,-195.54 1912.05,-182.6 1923.5,-172.91"/>
<polygon fill="#63b8ff" stroke="#63b8ff" points="1841.76,-265.85 1839.62,-276.23 1847.76,-269.45 1841.76,-265.85"/>
</a>
</g>
</g>
<!-- Node25&#45;&gt;Node30 -->
<g id="edge53_Node000025_Node000030" class="edge">
<title>Node25&#45;&gt;Node30</title>
<g id="a_edge53_Node000025_Node000030"><a xlink:title=" ">
<path fill="none" stroke="#63b8ff" d="M1870.51,-272.36C1889.12,-262.62 1910.79,-251.28 1927.98,-242.29"/>
<polygon fill="#63b8ff" stroke="#63b8ff" points="1869.1,-269.14 1861.86,-276.88 1872.35,-275.35 1869.1,-269.14"/>
</a>
</g>
</g>
<!-- Node27&#45;&gt;Node2 -->
<g id="edge49_Node000027_Node000002" class="edge">
<title>Node27&#45;&gt;Node2</title>
<g id="a_edge49_Node000027_Node000002"><a xlink:title=" ">
<path fill="none" stroke="#63b8ff" d="M1526.19,-197.39C1528.55,-189 1531.08,-180.01 1533.15,-172.63"/>
<polygon fill="#63b8ff" stroke="#63b8ff" points="1522.88,-196.22 1523.54,-206.8 1529.62,-198.12 1522.88,-196.22"/>
</a>
</g>
</g>
<!-- Node27&#45;&gt;Node26 -->
<g id="edge50_Node000027_Node000026" class="edge">
<title>Node27&#45;&gt;Node26</title>
<g id="a_edge50_Node000027_Node000026"><a xlink:title=" ">
<path fill="none" stroke="#63b8ff" d="M1577.49,-204.48C1607.41,-194.44 1643.29,-182.38 1671.53,-172.9"/>
<polygon fill="#63b8ff" stroke="#63b8ff" points="1576.57,-201.1 1568.2,-207.6 1578.8,-207.73 1576.57,-201.1"/>
</a>
</g>
</g>
<!-- Node30&#45;&gt;Node2 -->
<g id="edge54_Node000030_Node000002" class="edge">
<title>Node30&#45;&gt;Node2</title>
<g id="a_edge54_Node000030_Node000002"><a xlink:title=" ">
<path fill="none" stroke="#63b8ff" d="M1884.55,-212.37C1804.02,-199.46 1676.69,-179.05 1600.74,-166.87"/>
<polygon fill="#63b8ff" stroke="#63b8ff" points="1883.67,-215.78 1894.1,-213.9 1884.78,-208.87 1883.67,-215.78"/>
</a>
</g>
</g>
<!-- Node30&#45;&gt;Node28 -->
<g id="edge55_Node000030_Node000028" class="edge">
<title>Node30&#45;&gt;Node28</title>
<g id="a_edge55_Node000030_Node000028"><a xlink:title=" ">
<path fill="none" stroke="#63b8ff" d="M1999.51,-202.86C2018.12,-193.12 2039.79,-181.78 2056.98,-172.79"/>
<polygon fill="#63b8ff" stroke="#63b8ff" points="1998.1,-199.64 1990.86,-207.38 2001.35,-205.85 1998.1,-199.64"/>
</a>
</g>
</g>
<!-- Node30&#45;&gt;Node29 -->
<g id="edge56_Node000030_Node000029" class="edge">
<title>Node30&#45;&gt;Node29</title>
<g id="a_edge56_Node000030_Node000029"><a xlink:title=" ">
<path fill="none" stroke="#63b8ff" d="M1952.59,-197.1C1950.75,-188.79 1948.78,-179.93 1947.15,-172.63"/>
<polygon fill="#63b8ff" stroke="#63b8ff" points="1949.16,-197.77 1954.74,-206.78 1955.99,-196.25 1949.16,-197.77"/>
</a>
</g>
</g>
<!-- Node31&#45;&gt;Node2 -->
<g id="edge61_Node000031_Node000002" class="edge">
<title>Node31&#45;&gt;Node2</title>
<g id="a_edge61_Node000031_Node000002"><a xlink:title=" ">
<path fill="none" stroke="#63b8ff" d="M1679.76,-204.48C1649.84,-194.44 1613.96,-182.38 1585.72,-172.9"/>
<polygon fill="#63b8ff" stroke="#63b8ff" points="1678.45,-207.73 1689.05,-207.6 1680.68,-201.1 1678.45,-207.73"/>
</a>
</g>
</g>
<!-- Node31&#45;&gt;Node26 -->
<g id="edge62_Node000031_Node000026" class="edge">
<title>Node31&#45;&gt;Node26</title>
<g id="a_edge62_Node000031_Node000026"><a xlink:title=" ">
<path fill="none" stroke="#63b8ff" d="M1731.06,-197.39C1728.7,-189 1726.17,-180.01 1724.1,-172.63"/>
<polygon fill="#63b8ff" stroke="#63b8ff" points="1727.63,-198.12 1733.71,-206.8 1734.37,-196.22 1727.63,-198.12"/>
</a>
</g>
</g>
<!-- Node31&#45;&gt;Node28 -->
<g id="edge63_Node000031_Node000028" class="edge">
<title>Node31&#45;&gt;Node28</title>
<g id="a_edge63_Node000031_Node000028"><a xlink:title=" ">
<path fill="none" stroke="#63b8ff" d="M1812.93,-211.01C1868.77,-200.9 1947.11,-186.39 2015.62,-172.5 2018.51,-171.92 2021.46,-171.31 2024.43,-170.69"/>
<polygon fill="#63b8ff" stroke="#63b8ff" points="1812.42,-207.54 1803.2,-212.76 1813.67,-214.43 1812.42,-207.54"/>
</a>
</g>
</g>
</g>
</svg>
