<?xml version="1.0" encoding="UTF-8" standalone="no"?>
<!DOCTYPE svg PUBLIC "-//W3C//DTD SVG 1.1//EN"
 "http://www.w3.org/Graphics/SVG/1.1/DTD/svg11.dtd">
<!-- Generated by graphviz version 14.1.4 (0)
 -->
<!-- Title: source/driver/tmc2209/tmc2209_internal.h Pages: 1 -->
<svg width="566pt" height="181pt"
 viewBox="0.00 0.00 566.00 181.00" xmlns="http://www.w3.org/2000/svg" xmlns:xlink="http://www.w3.org/1999/xlink">
<g id="graph0" class="graph" transform="scale(1 1) rotate(0) translate(4 176.5)">
<title>source/driver/tmc2209/tmc2209_internal.h</title>
<!-- Node1 -->
<g id="Node000001" class="node">
<title>Node1</title>
<g id="a_Node000001"><a xlink:title=" ">
<polygon fill="#999999" stroke="#666666" points="352.5,-172.5 227,-172.5 227,-139 352.5,-139 352.5,-172.5"/>
<text xml:space="preserve" text-anchor="start" x="235" y="-159" font-family="Helvetica,sans-Serif" font-size="10.00">source/driver/tmc2209</text>
<text xml:space="preserve" text-anchor="middle" x="289.75" y="-146.25" font-family="Helvetica,sans-Serif" font-size="10.00">/tmc2209_internal.h</text>
</a>
</g>
</g>
<!-- Node2 -->
<g id="Node000002" class="node">
<title>Node2</title>
<g id="a_Node000002"><a xlink:href="tmc2209__core_8c.html" target="_top" xlink:title=" ">
<polygon fill="white" stroke="#666666" points="125.5,-33.5 0,-33.5 0,0 125.5,0 125.5,-33.5"/>
<text xml:space="preserve" text-anchor="start" x="8" y="-20" font-family="Helvetica,sans-Serif" font-size="10.00">source/driver/tmc2209</text>
<text xml:space="preserve" text-anchor="middle" x="62.75" y="-7.25" font-family="Helvetica,sans-Serif" font-size="10.00">/tmc2209_core.c</text>
</a>
</g>
</g>
<!-- Node1&#45;&gt;Node2 -->
<g id="edge1_Node000001_Node000002" class="edge">
<title>Node1&#45;&gt;Node2</title>
<g id="a_edge1_Node000001_Node000002"><a xlink:title=" ">
<path fill="none" stroke="#63b8ff" d="M215.32,-144.62C163.47,-136.05 100.39,-122.11 81.75,-103 63.75,-84.55 61.28,-53.01 61.65,-33.9"/>
<polygon fill="#63b8ff" stroke="#63b8ff" points="214.61,-148.05 225.04,-146.18 215.72,-141.14 214.61,-148.05"/>
</a>
</g>
</g>
<!-- Node3 -->
<g id="Node000003" class="node">
<title>Node3</title>
<g id="a_Node000003"><a xlink:href="tmc2209__process_8c.html" target="_top" xlink:title=" ">
<polygon fill="white" stroke="#666666" points="269.5,-33.5 144,-33.5 144,0 269.5,0 269.5,-33.5"/>
<text xml:space="preserve" text-anchor="start" x="152" y="-20" font-family="Helvetica,sans-Serif" font-size="10.00">source/driver/tmc2209</text>
<text xml:space="preserve" text-anchor="middle" x="206.75" y="-7.25" font-family="Helvetica,sans-Serif" font-size="10.00">/tmc2209_process.c</text>
</a>
</g>
</g>
<!-- Node1&#45;&gt;Node3 -->
<g id="edge2_Node000001_Node000003" class="edge">
<title>Node1&#45;&gt;Node3</title>
<g id="a_edge2_Node000001_Node000003"><a xlink:title=" ">
<path fill="none" stroke="#63b8ff" d="M274.29,-129.24C257.32,-101.22 230.58,-57.08 216.37,-33.63"/>
<polygon fill="#63b8ff" stroke="#63b8ff" points="271.11,-130.73 279.28,-137.47 277.09,-127.11 271.11,-130.73"/>
</a>
</g>
</g>
<!-- Node4 -->
<g id="Node000004" class="node">
<title>Node4</title>
<g id="a_Node000004"><a xlink:href="tmc2209__process_8h.html" target="_top" xlink:title=" ">
<polygon fill="white" stroke="#666666" points="216.5,-103 91,-103 91,-69.5 216.5,-69.5 216.5,-103"/>
<text xml:space="preserve" text-anchor="start" x="99" y="-89.5" font-family="Helvetica,sans-Serif" font-size="10.00">source/driver/tmc2209</text>
<text xml:space="preserve" text-anchor="middle" x="153.75" y="-76.75" font-family="Helvetica,sans-Serif" font-size="10.00">/tmc2209_process.h</text>
</a>
</g>
</g>
<!-- Node1&#45;&gt;Node4 -->
<g id="edge3_Node000001_Node000004" class="edge">
<title>Node1&#45;&gt;Node4</title>
<g id="a_edge3_Node000001_Node000004"><a xlink:title=" ">
<path fill="none" stroke="#63b8ff" d="M246.92,-133.49C227.23,-123.72 204.26,-112.32 186.06,-103.29"/>
<polygon fill="#63b8ff" stroke="#63b8ff" points="245.31,-136.6 255.82,-137.91 248.42,-130.33 245.31,-136.6"/>
</a>
</g>
</g>
<!-- Node5 -->
<g id="Node000005" class="node">
<title>Node5</title>
<g id="a_Node000005"><a xlink:href="tmc2209__setup_8c.html" target="_top" xlink:title=" ">
<polygon fill="white" stroke="#666666" points="413.5,-33.5 288,-33.5 288,0 413.5,0 413.5,-33.5"/>
<text xml:space="preserve" text-anchor="start" x="296" y="-20" font-family="Helvetica,sans-Serif" font-size="10.00">source/driver/tmc2209</text>
<text xml:space="preserve" text-anchor="middle" x="350.75" y="-7.25" font-family="Helvetica,sans-Serif" font-size="10.00">/tmc2209_setup.c</text>
</a>
</g>
</g>
<!-- Node1&#45;&gt;Node5 -->
<g id="edge6_Node000001_Node000005" class="edge">
<title>Node1&#45;&gt;Node5</title>
<g id="a_edge6_Node000001_Node000005"><a xlink:title=" ">
<path fill="none" stroke="#63b8ff" d="M363.28,-137.71C380.74,-130.04 397.32,-118.97 407.75,-103 415.89,-90.54 413.78,-83.11 407.75,-69.5 401.31,-54.96 388.54,-42.75 376.72,-33.85"/>
<polygon fill="#63b8ff" stroke="#63b8ff" points="362.33,-134.32 354.34,-141.28 364.92,-140.82 362.33,-134.32"/>
</a>
</g>
</g>
<!-- Node6 -->
<g id="Node000006" class="node">
<title>Node6</title>
<g id="a_Node000006"><a xlink:href="tmc2209__uart_8c.html" target="_top" xlink:title=" ">
<polygon fill="white" stroke="#666666" points="557.5,-33.5 432,-33.5 432,0 557.5,0 557.5,-33.5"/>
<text xml:space="preserve" text-anchor="start" x="440" y="-20" font-family="Helvetica,sans-Serif" font-size="10.00">source/driver/tmc2209</text>
<text xml:space="preserve" text-anchor="middle" x="494.75" y="-7.25" font-family="Helvetica,sans-Serif" font-size="10.00">/tmc2209_uart.c</text>
</a>
</g>
</g>
<!-- Node1&#45;&gt;Node6 -->
<g id="edge7_Node000001_Node000006" class="edge">
<title>Node1&#45;&gt;Node6</title>
<g id="a_edge7_Node000001_Node000006"><a xlink:title=" ">
<path fill="none" stroke="#63b8ff" d="M362.24,-134.75C383.54,-126.88 406.11,-116.44 424.75,-103 451.16,-83.96 473.36,-52.61 485.3,-33.7"/>
<polygon fill="#63b8ff" stroke="#63b8ff" points="361.26,-131.39 353,-138.02 363.59,-137.99 361.26,-131.39"/>
</a>
</g>
</g>
<!-- Node7 -->
<g id="Node000007" class="node">
<title>Node7</title>
<g id="a_Node000007"><a xlink:href="tmc2209__uart_8h.html" target="_top" xlink:title=" ">
<polygon fill="white" stroke="#666666" points="398.5,-103 273,-103 273,-69.5 398.5,-69.5 398.5,-103"/>
<text xml:space="preserve" text-anchor="start" x="281" y="-89.5" font-family="Helvetica,sans-Serif" font-size="10.00">source/driver/tmc2209</text>
<text xml:space="preserve" text-anchor="middle" x="335.75" y="-76.75" font-family="Helvetica,sans-Serif" font-size="10.00">/tmc2209_uart.h</text>
</a>
</g>
</g>
<!-- Node1&#45;&gt;Node7 -->
<g id="edge8_Node000001_Node000007" class="edge">
<title>Node1&#45;&gt;Node7</title>
<g id="a_edge8_Node000001_Node000007"><a xlink:title=" ">
<path fill="none" stroke="#63b8ff" d="M307.09,-129.31C313.08,-120.52 319.61,-110.93 324.93,-103.13"/>
<polygon fill="#63b8ff" stroke="#63b8ff" points="304.24,-127.27 301.5,-137.5 310.03,-131.21 304.24,-127.27"/>
</a>
</g>
</g>
<!-- Node4&#45;&gt;Node2 -->
<g id="edge4_Node000004_Node000002" class="edge">
<title>Node4&#45;&gt;Node2</title>
<g id="a_edge4_Node000004_Node000002"><a xlink:title=" ">
<path fill="none" stroke="#63b8ff" d="M123.3,-62.66C110.58,-53.23 96.09,-42.48 84.48,-33.87"/>
<polygon fill="#63b8ff" stroke="#63b8ff" points="120.85,-65.21 130.97,-68.35 125.02,-59.58 120.85,-65.21"/>
</a>
</g>
</g>
<!-- Node4&#45;&gt;Node3 -->
<g id="edge5_Node000004_Node000003" class="edge">
<title>Node4&#45;&gt;Node3</title>
<g id="a_edge5_Node000004_Node000003"><a xlink:title=" ">
<path fill="none" stroke="#63b8ff" d="M173.28,-60.38C180.3,-51.44 188.02,-41.6 194.28,-33.63"/>
<polygon fill="#63b8ff" stroke="#63b8ff" points="170.67,-58.04 167.24,-68.06 176.17,-62.36 170.67,-58.04"/>
</a>
</g>
</g>
<!-- Node7&#45;&gt;Node2 -->
<g id="edge9_Node000007_Node000002" class="edge">
<title>Node7&#45;&gt;Node2</title>
<g id="a_edge9_Node000007_Node000002"><a xlink:title=" ">
<path fill="none" stroke="#63b8ff" d="M261.65,-66.93C219.16,-56.42 166.39,-43.37 125.88,-33.36"/>
<polygon fill="#63b8ff" stroke="#63b8ff" points="260.76,-70.31 271.31,-69.32 262.44,-63.52 260.76,-70.31"/>
</a>
</g>
</g>
<!-- Node7&#45;&gt;Node5 -->
<g id="edge10_Node000007_Node000005" class="edge">
<title>Node7&#45;&gt;Node5</title>
<g id="a_edge10_Node000007_Node000005"><a xlink:title=" ">
<path fill="none" stroke="#63b8ff" d="M341.78,-58.1C343.63,-49.79 345.6,-40.93 347.22,-33.63"/>
<polygon fill="#63b8ff" stroke="#63b8ff" points="338.39,-57.25 339.63,-67.78 345.22,-58.77 338.39,-57.25"/>
</a>
</g>
</g>
<!-- Node7&#45;&gt;Node6 -->
<g id="edge11_Node000007_Node000006" class="edge">
<title>Node7&#45;&gt;Node6</title>
<g id="a_edge11_Node000007_Node000006"><a xlink:title=" ">
<path fill="none" stroke="#63b8ff" d="M384.2,-64.68C407.47,-54.8 434.96,-43.13 456.7,-33.9"/>
<polygon fill="#63b8ff" stroke="#63b8ff" points="383.06,-61.36 375.23,-68.49 385.8,-67.8 383.06,-61.36"/>
</a>
</g>
</g>
</g>
</svg>
