<?xml version="1.0" encoding="UTF-8" standalone="no"?>
<!DOCTYPE svg PUBLIC "-//W3C//DTD SVG 1.1//EN"
 "http://www.w3.org/Graphics/SVG/1.1/DTD/svg11.dtd">
<!-- Generated by graphviz version 14.1.5 (0)
 -->
<!-- Title: source/driver/tmc2209/tmc2209_setup.c Pages: 1 -->
<svg width="595pt" height="269pt"
 viewBox="0.00 0.00 595.00 269.00" xmlns="http://www.w3.org/2000/svg" xmlns:xlink="http://www.w3.org/1999/xlink">
<g id="graph0" class="graph" transform="scale(1 1) rotate(0) translate(4 264.5)">
<title>source/driver/tmc2209/tmc2209_setup.c</title>
<!-- Node1 -->
<g id="Node000001" class="node">
<title>Node1</title>
<g id="a_Node000001"><a xlink:title=" ">
<polygon fill="#999999" stroke="#666666" points="408.38,-260.5 282.88,-260.5 282.88,-227 408.38,-227 408.38,-260.5"/>
<text xml:space="preserve" text-anchor="start" x="290.88" y="-247" font-family="Helvetica,sans-Serif" font-size="10.00">source/driver/tmc2209</text>
<text xml:space="preserve" text-anchor="middle" x="345.62" y="-234.25" font-family="Helvetica,sans-Serif" font-size="10.00">/tmc2209_setup.c</text>
</a>
</g>
</g>
<!-- Node2 -->
<g id="Node000002" class="node">
<title>Node2</title>
<g id="a_Node000002"><a xlink:href="tmc2209__setup_8h.html" target="_top" xlink:title=" ">
<polygon fill="white" stroke="#666666" points="395.62,-134.25 295.62,-134.25 295.62,-113.5 395.62,-113.5 395.62,-134.25"/>
<text xml:space="preserve" text-anchor="middle" x="345.62" y="-120.75" font-family="Helvetica,sans-Serif" font-size="10.00">tmc2209_setup.h</text>
</a>
</g>
</g>
<!-- Node1&#45;&gt;Node2 -->
<g id="edge1_Node000001_Node000002" class="edge">
<title>Node1&#45;&gt;Node2</title>
<g id="a_edge1_Node000001_Node000002"><a xlink:title=" ">
<path fill="none" stroke="#63b8ff" d="M345.62,-226.85C345.62,-205.96 345.62,-169.21 345.62,-146"/>
<polygon fill="#63b8ff" stroke="#63b8ff" points="349.13,-146.2 345.63,-136.2 342.13,-146.2 349.13,-146.2"/>
</a>
</g>
</g>
<!-- Node5 -->
<g id="Node000005" class="node">
<title>Node5</title>
<g id="a_Node000005"><a xlink:href="tmc2209__shared_8h.html" target="_top" xlink:title=" ">
<polygon fill="white" stroke="#666666" points="116.62,-77.5 10.62,-77.5 10.62,-56.75 116.62,-56.75 116.62,-77.5"/>
<text xml:space="preserve" text-anchor="middle" x="63.62" y="-64" font-family="Helvetica,sans-Serif" font-size="10.00">tmc2209_shared.h</text>
</a>
</g>
</g>
<!-- Node1&#45;&gt;Node5 -->
<g id="edge7_Node000001_Node000005" class="edge">
<title>Node1&#45;&gt;Node5</title>
<g id="a_edge7_Node000001_Node000005"><a xlink:title=" ">
<path fill="none" stroke="#63b8ff" d="M282.7,-231.01C247.51,-222.86 203.63,-210 167.62,-191 132.51,-172.47 123.74,-165.01 98.62,-134.25 87.2,-120.26 77.86,-101.96 71.71,-88.15"/>
<polygon fill="#63b8ff" stroke="#63b8ff" points="75.04,-87.04 67.91,-79.21 68.6,-89.78 75.04,-87.04"/>
</a>
</g>
</g>
<!-- Node7 -->
<g id="Node000007" class="node">
<title>Node7</title>
<g id="a_Node000007"><a xlink:href="tmc2209__internal_8h.html" target="_top" xlink:title=" ">
<polygon fill="white" stroke="#666666" points="277.88,-134.25 167.38,-134.25 167.38,-113.5 277.88,-113.5 277.88,-134.25"/>
<text xml:space="preserve" text-anchor="middle" x="222.62" y="-120.75" font-family="Helvetica,sans-Serif" font-size="10.00">tmc2209_internal.h</text>
</a>
</g>
</g>
<!-- Node1&#45;&gt;Node7 -->
<g id="edge8_Node000001_Node000007" class="edge">
<title>Node1&#45;&gt;Node7</title>
<g id="a_edge8_Node000001_Node000007"><a xlink:title=" ">
<path fill="none" stroke="#63b8ff" d="M331.59,-226.64C318.21,-211.56 297.26,-188.67 277.62,-170.25 266.98,-160.26 254.48,-149.85 244.08,-141.52"/>
<polygon fill="#63b8ff" stroke="#63b8ff" points="246.44,-138.93 236.43,-135.47 242.1,-144.42 246.44,-138.93"/>
</a>
</g>
</g>
<!-- Node10 -->
<g id="Node000010" class="node">
<title>Node10</title>
<g id="a_Node000010"><a xlink:title=" ">
<polygon fill="#e0e0e0" stroke="#999999" points="548.12,-20.75 463.12,-20.75 463.12,0 548.12,0 548.12,-20.75"/>
<text xml:space="preserve" text-anchor="middle" x="505.62" y="-7.25" font-family="Helvetica,sans-Serif" font-size="10.00">fsl_common.h</text>
</a>
</g>
</g>
<!-- Node1&#45;&gt;Node10 -->
<g id="edge22_Node000001_Node000010" class="edge">
<title>Node1&#45;&gt;Node10</title>
<g id="a_edge22_Node000001_Node000010"><a xlink:title=" ">
<path fill="none" stroke="#63b8ff" d="M373.12,-226.67C387.64,-217.37 405.19,-204.8 418.62,-191 460.3,-148.2 468.39,-132.95 490.62,-77.5 496.47,-62.93 500.3,-45.59 502.62,-32.33"/>
<polygon fill="#63b8ff" stroke="#63b8ff" points="506.06,-33 504.17,-22.57 499.14,-31.9 506.06,-33"/>
</a>
</g>
</g>
<!-- Node12 -->
<g id="Node000012" class="node">
<title>Node12</title>
<g id="a_Node000012"><a xlink:href="tmc2209__uart_8h.html" target="_top" xlink:title=" ">
<polygon fill="white" stroke="#666666" points="268.88,-191 176.38,-191 176.38,-170.25 268.88,-170.25 268.88,-191"/>
<text xml:space="preserve" text-anchor="middle" x="222.62" y="-177.5" font-family="Helvetica,sans-Serif" font-size="10.00">tmc2209_uart.h</text>
</a>
</g>
</g>
<!-- Node1&#45;&gt;Node12 -->
<g id="edge16_Node000001_Node000012" class="edge">
<title>Node1&#45;&gt;Node12</title>
<g id="a_edge16_Node000001_Node000012"><a xlink:title=" ">
<path fill="none" stroke="#63b8ff" d="M312.99,-226.53C294.19,-217.19 270.73,-205.53 252.43,-196.44"/>
<polygon fill="#63b8ff" stroke="#63b8ff" points="254.19,-193.4 243.68,-192.09 251.08,-199.67 254.19,-193.4"/>
</a>
</g>
</g>
<!-- Node13 -->
<g id="Node000013" class="node">
<title>Node13</title>
<g id="a_Node000013"><a xlink:title=" ">
<polygon fill="#e0e0e0" stroke="#999999" points="587.12,-191 538.12,-191 538.12,-170.25 587.12,-170.25 587.12,-191"/>
<text xml:space="preserve" text-anchor="middle" x="562.62" y="-177.5" font-family="Helvetica,sans-Serif" font-size="10.00">stdio.h</text>
</a>
</g>
</g>
<!-- Node1&#45;&gt;Node13 -->
<g id="edge21_Node000001_Node000013" class="edge">
<title>Node1&#45;&gt;Node13</title>
<g id="a_edge21_Node000001_Node000013"><a xlink:title=" ">
<path fill="none" stroke="#63b8ff" d="M403.21,-226.53C442.58,-215.44 493.52,-201.09 527.09,-191.64"/>
<polygon fill="#63b8ff" stroke="#63b8ff" points="527.63,-195.12 536.31,-189.04 525.73,-188.38 527.63,-195.12"/>
</a>
</g>
</g>
<!-- Node14 -->
<g id="Node000014" class="node">
<title>Node14</title>
<g id="a_Node000014"><a xlink:href="log_8h.html" target="_top" xlink:title=" ">
<polygon fill="white" stroke="#666666" points="481.62,-77.5 441.62,-77.5 441.62,-56.75 481.62,-56.75 481.62,-77.5"/>
<text xml:space="preserve" text-anchor="middle" x="461.62" y="-64" font-family="Helvetica,sans-Serif" font-size="10.00">log.h</text>
</a>
</g>
</g>
<!-- Node1&#45;&gt;Node14 -->
<g id="edge23_Node000001_Node000014" class="edge">
<title>Node1&#45;&gt;Node14</title>
<g id="a_edge23_Node000001_Node000014"><a xlink:title=" ">
<path fill="none" stroke="#63b8ff" d="M362.66,-226.54C382.9,-206.5 416.56,-170.57 437.62,-134.25 445.98,-119.85 452.24,-102.05 456.27,-88.54"/>
<polygon fill="#63b8ff" stroke="#63b8ff" points="459.61,-89.59 458.93,-79.02 452.87,-87.71 459.61,-89.59"/>
</a>
</g>
</g>
<!-- Node3 -->
<g id="Node000003" class="node">
<title>Node3</title>
<g id="a_Node000003"><a xlink:title=" ">
<polygon fill="#e0e0e0" stroke="#999999" points="176,-20.75 123.25,-20.75 123.25,0 176,0 176,-20.75"/>
<text xml:space="preserve" text-anchor="middle" x="149.62" y="-7.25" font-family="Helvetica,sans-Serif" font-size="10.00">stdint.h</text>
</a>
</g>
</g>
<!-- Node2&#45;&gt;Node3 -->
<g id="edge2_Node000002_Node000003" class="edge">
<title>Node2&#45;&gt;Node3</title>
<g id="a_edge2_Node000002_Node000003"><a xlink:title=" ">
<path fill="none" stroke="#63b8ff" d="M315.07,-113.13C291.92,-105.13 259.75,-92.67 233.62,-77.5 209.38,-63.43 184.51,-42.94 168.18,-28.51"/>
<polygon fill="#63b8ff" stroke="#63b8ff" points="170.95,-26.3 161.18,-22.21 166.27,-31.5 170.95,-26.3"/>
</a>
</g>
</g>
<!-- Node4 -->
<g id="Node000004" class="node">
<title>Node4</title>
<g id="a_Node000004"><a xlink:title=" ">
<polygon fill="#e0e0e0" stroke="#999999" points="445.38,-20.75 373.88,-20.75 373.88,0 445.38,0 445.38,-20.75"/>
<text xml:space="preserve" text-anchor="middle" x="409.62" y="-7.25" font-family="Helvetica,sans-Serif" font-size="10.00">FreeRTOS.h</text>
</a>
</g>
</g>
<!-- Node2&#45;&gt;Node4 -->
<g id="edge3_Node000002_Node000004" class="edge">
<title>Node2&#45;&gt;Node4</title>
<g id="a_edge3_Node000002_Node000004"><a xlink:title=" ">
<path fill="none" stroke="#63b8ff" d="M351.08,-113.37C361.51,-95.19 384.48,-55.17 398.35,-31.02"/>
<polygon fill="#63b8ff" stroke="#63b8ff" points="401.3,-32.9 403.25,-22.49 395.23,-29.42 401.3,-32.9"/>
</a>
</g>
</g>
<!-- Node2&#45;&gt;Node5 -->
<g id="edge4_Node000002_Node000005" class="edge">
<title>Node2&#45;&gt;Node5</title>
<g id="a_edge4_Node000002_Node000005"><a xlink:title=" ">
<path fill="none" stroke="#63b8ff" d="M295.21,-113.09C247.64,-103.85 176.2,-89.98 125.27,-80.09"/>
<polygon fill="#63b8ff" stroke="#63b8ff" points="126.05,-76.68 115.56,-78.21 124.71,-83.55 126.05,-76.68"/>
</a>
</g>
</g>
<!-- Node5&#45;&gt;Node3 -->
<g id="edge5_Node000005_Node000003" class="edge">
<title>Node5&#45;&gt;Node3</title>
<g id="a_edge5_Node000005_Node000003"><a xlink:title=" ">
<path fill="none" stroke="#63b8ff" d="M79,-56.34C91.72,-48.24 110.03,-36.58 124.82,-27.17"/>
<polygon fill="#63b8ff" stroke="#63b8ff" points="126.55,-30.21 133.11,-21.89 122.79,-24.31 126.55,-30.21"/>
</a>
</g>
</g>
<!-- Node6 -->
<g id="Node000006" class="node">
<title>Node6</title>
<g id="a_Node000006"><a xlink:title=" ">
<polygon fill="#e0e0e0" stroke="#999999" points="105.25,-20.75 0,-20.75 0,0 105.25,0 105.25,-20.75"/>
<text xml:space="preserve" text-anchor="middle" x="52.62" y="-7.25" font-family="Helvetica,sans-Serif" font-size="10.00">fsl_uart_freertos.h</text>
</a>
</g>
</g>
<!-- Node5&#45;&gt;Node6 -->
<g id="edge6_Node000005_Node000006" class="edge">
<title>Node5&#45;&gt;Node6</title>
<g id="a_edge6_Node000005_Node000006"><a xlink:title=" ">
<path fill="none" stroke="#63b8ff" d="M61.66,-56.34C60.31,-49.64 58.48,-40.51 56.81,-32.23"/>
<polygon fill="#63b8ff" stroke="#63b8ff" points="60.27,-31.68 54.87,-22.56 53.41,-33.06 60.27,-31.68"/>
</a>
</g>
</g>
<!-- Node7&#45;&gt;Node5 -->
<g id="edge9_Node000007_Node000005" class="edge">
<title>Node7&#45;&gt;Node5</title>
<g id="a_edge9_Node000007_Node000005"><a xlink:title=" ">
<path fill="none" stroke="#63b8ff" d="M194.2,-113.09C168.73,-104.32 131.13,-91.37 102.81,-81.62"/>
<polygon fill="#63b8ff" stroke="#63b8ff" points="104.1,-78.36 93.5,-78.41 101.82,-84.98 104.1,-78.36"/>
</a>
</g>
</g>
<!-- Node8 -->
<g id="Node000008" class="node">
<title>Node8</title>
<g id="a_Node000008"><a xlink:href="cmd__handle_8h.html" target="_top" xlink:title=" ">
<polygon fill="white" stroke="#666666" points="326.75,-77.5 242.5,-77.5 242.5,-56.75 326.75,-56.75 326.75,-77.5"/>
<text xml:space="preserve" text-anchor="middle" x="284.62" y="-64" font-family="Helvetica,sans-Serif" font-size="10.00">cmd_handle.h</text>
</a>
</g>
</g>
<!-- Node7&#45;&gt;Node8 -->
<g id="edge10_Node000007_Node000008" class="edge">
<title>Node7&#45;&gt;Node8</title>
<g id="a_edge10_Node000007_Node000008"><a xlink:title=" ">
<path fill="none" stroke="#63b8ff" d="M233.71,-113.09C242.44,-105.38 254.82,-94.45 265.19,-85.29"/>
<polygon fill="#63b8ff" stroke="#63b8ff" points="267.32,-88.07 272.5,-78.83 262.69,-82.83 267.32,-88.07"/>
</a>
</g>
</g>
<!-- Node8&#45;&gt;Node3 -->
<g id="edge11_Node000008_Node000003" class="edge">
<title>Node8&#45;&gt;Node3</title>
<g id="a_edge11_Node000008_Node000003"><a xlink:title=" ">
<path fill="none" stroke="#63b8ff" d="M260.49,-56.34C239.18,-47.69 207.87,-35 183.96,-25.3"/>
<polygon fill="#63b8ff" stroke="#63b8ff" points="185.54,-22.16 174.95,-21.65 182.91,-28.65 185.54,-22.16"/>
</a>
</g>
</g>
<!-- Node8&#45;&gt;Node4 -->
<g id="edge12_Node000008_Node000004" class="edge">
<title>Node8&#45;&gt;Node4</title>
<g id="a_edge12_Node000008_Node000004"><a xlink:title=" ">
<path fill="none" stroke="#63b8ff" d="M306.97,-56.34C326.44,-47.81 354.91,-35.34 376.93,-25.69"/>
<polygon fill="#63b8ff" stroke="#63b8ff" points="378.33,-28.9 386.08,-21.69 375.52,-22.49 378.33,-28.9"/>
</a>
</g>
</g>
<!-- Node9 -->
<g id="Node000009" class="node">
<title>Node9</title>
<g id="a_Node000009"><a xlink:title=" ">
<polygon fill="#e0e0e0" stroke="#999999" points="285.12,-20.75 194.12,-20.75 194.12,0 285.12,0 285.12,-20.75"/>
<text xml:space="preserve" text-anchor="middle" x="239.62" y="-7.25" font-family="Helvetica,sans-Serif" font-size="10.00">event_groups.h</text>
</a>
</g>
</g>
<!-- Node8&#45;&gt;Node9 -->
<g id="edge13_Node000008_Node000009" class="edge">
<title>Node8&#45;&gt;Node9</title>
<g id="a_edge13_Node000008_Node000009"><a xlink:title=" ">
<path fill="none" stroke="#63b8ff" d="M276.58,-56.34C270.56,-49.02 262.16,-38.79 254.88,-29.94"/>
<polygon fill="#63b8ff" stroke="#63b8ff" points="257.62,-27.75 248.56,-22.25 252.21,-32.2 257.62,-27.75"/>
</a>
</g>
</g>
<!-- Node8&#45;&gt;Node10 -->
<g id="edge14_Node000008_Node000010" class="edge">
<title>Node8&#45;&gt;Node10</title>
<g id="a_edge14_Node000008_Node000010"><a xlink:title=" ">
<path fill="none" stroke="#63b8ff" d="M324.39,-56.27C360.89,-47.23 415.15,-33.79 454.79,-23.97"/>
<polygon fill="#63b8ff" stroke="#63b8ff" points="455.47,-27.41 464.34,-21.6 453.79,-20.61 455.47,-27.41"/>
</a>
</g>
</g>
<!-- Node11 -->
<g id="Node000011" class="node">
<title>Node11</title>
<g id="a_Node000011"><a xlink:title=" ">
<polygon fill="#e0e0e0" stroke="#999999" points="355.62,-20.75 303.62,-20.75 303.62,0 355.62,0 355.62,-20.75"/>
<text xml:space="preserve" text-anchor="middle" x="329.62" y="-7.25" font-family="Helvetica,sans-Serif" font-size="10.00">stdlib.h</text>
</a>
</g>
</g>
<!-- Node8&#45;&gt;Node11 -->
<g id="edge15_Node000008_Node000011" class="edge">
<title>Node8&#45;&gt;Node11</title>
<g id="a_edge15_Node000008_Node000011"><a xlink:title=" ">
<path fill="none" stroke="#63b8ff" d="M292.67,-56.34C298.69,-49.02 307.09,-38.79 314.37,-29.94"/>
<polygon fill="#63b8ff" stroke="#63b8ff" points="317.04,-32.2 320.69,-22.25 311.63,-27.75 317.04,-32.2"/>
</a>
</g>
</g>
<!-- Node12&#45;&gt;Node3 -->
<g id="edge17_Node000012_Node000003" class="edge">
<title>Node12&#45;&gt;Node3</title>
<g id="a_edge17_Node000012_Node000003"><a xlink:title=" ">
<path fill="none" stroke="#63b8ff" d="M199.94,-169.86C185.48,-162.35 167.79,-150.5 158.62,-134.25 140.64,-102.38 142.68,-58.22 146,-32.44"/>
<polygon fill="#63b8ff" stroke="#63b8ff" points="149.46,-33 147.49,-22.59 142.54,-31.96 149.46,-33"/>
</a>
</g>
</g>
<!-- Node12&#45;&gt;Node4 -->
<g id="edge20_Node000012_Node000004" class="edge">
<title>Node12&#45;&gt;Node4</title>
<g id="a_edge20_Node000012_Node000004"><a xlink:title=" ">
<path fill="none" stroke="#63b8ff" d="M269.27,-174.34C317.38,-167.83 387.71,-155.02 404.62,-134.25 428.14,-105.38 421.94,-58.83 415.59,-32.08"/>
<polygon fill="#63b8ff" stroke="#63b8ff" points="419,-31.25 413.07,-22.47 412.23,-33.03 419,-31.25"/>
</a>
</g>
</g>
<!-- Node12&#45;&gt;Node5 -->
<g id="edge18_Node000012_Node000005" class="edge">
<title>Node12&#45;&gt;Node5</title>
<g id="a_edge18_Node000012_Node000005"><a xlink:title=" ">
<path fill="none" stroke="#63b8ff" d="M194.76,-169.87C174.5,-162.02 146.99,-149.75 125.62,-134.25 106.99,-120.74 89.42,-101.08 77.77,-86.71"/>
<polygon fill="#63b8ff" stroke="#63b8ff" points="80.58,-84.63 71.65,-78.94 75.08,-88.96 80.58,-84.63"/>
</a>
</g>
</g>
<!-- Node12&#45;&gt;Node7 -->
<g id="edge19_Node000012_Node000007" class="edge">
<title>Node12&#45;&gt;Node7</title>
<g id="a_edge19_Node000012_Node000007"><a xlink:title=" ">
<path fill="none" stroke="#63b8ff" d="M222.62,-169.84C222.62,-163.22 222.62,-154.22 222.62,-146.02"/>
<polygon fill="#63b8ff" stroke="#63b8ff" points="226.13,-146.09 222.63,-136.09 219.13,-146.09 226.13,-146.09"/>
</a>
</g>
</g>
<!-- Node14&#45;&gt;Node4 -->
<g id="edge24_Node000014_Node000004" class="edge">
<title>Node14&#45;&gt;Node4</title>
<g id="a_edge24_Node000014_Node000004"><a xlink:title=" ">
<path fill="none" stroke="#63b8ff" d="M452.33,-56.34C445.23,-48.86 435.25,-38.36 426.72,-29.38"/>
<polygon fill="#63b8ff" stroke="#63b8ff" points="429.31,-27.02 419.88,-22.18 424.23,-31.84 429.31,-27.02"/>
</a>
</g>
</g>
<!-- Node14&#45;&gt;Node10 -->
<g id="edge25_Node000014_Node000010" class="edge">
<title>Node14&#45;&gt;Node10</title>
<g id="a_edge25_Node000014_Node000010"><a xlink:title=" ">
<path fill="none" stroke="#63b8ff" d="M469.49,-56.34C475.37,-49.02 483.59,-38.79 490.7,-29.94"/>
<polygon fill="#63b8ff" stroke="#63b8ff" points="493.34,-32.25 496.88,-22.26 487.89,-27.86 493.34,-32.25"/>
</a>
</g>
</g>
</g>
</svg>
