<?xml version="1.0" encoding="UTF-8" standalone="no"?>
<!DOCTYPE svg PUBLIC "-//W3C//DTD SVG 1.1//EN"
 "http://www.w3.org/Graphics/SVG/1.1/DTD/svg11.dtd">
<!-- Generated by graphviz version 14.1.4 (0)
 -->
<!-- Title: source/driver/tmc2209/tmc2209_core.h Pages: 1 -->
<svg width="1402pt" height="320pt"
 viewBox="0.00 0.00 1402.00 320.00" xmlns="http://www.w3.org/2000/svg" xmlns:xlink="http://www.w3.org/1999/xlink">
<g id="graph0" class="graph" transform="scale(1 1) rotate(0) translate(4 315.5)">
<title>source/driver/tmc2209/tmc2209_core.h</title>
<!-- Node1 -->
<g id="Node000001" class="node">
<title>Node1</title>
<g id="a_Node000001"><a xlink:title=" ">
<polygon fill="#999999" stroke="#666666" points="860.75,-311.5 735.25,-311.5 735.25,-278 860.75,-278 860.75,-311.5"/>
<text xml:space="preserve" text-anchor="start" x="743.25" y="-298" font-family="Helvetica,sans-Serif" font-size="10.00">source/driver/tmc2209</text>
<text xml:space="preserve" text-anchor="middle" x="798" y="-285.25" font-family="Helvetica,sans-Serif" font-size="10.00">/tmc2209_core.h</text>
</a>
</g>
</g>
<!-- Node2 -->
<g id="Node000002" class="node">
<title>Node2</title>
<g id="a_Node000002"><a xlink:href="application_8c.html" target="_top" xlink:title=" ">
<polygon fill="white" stroke="#666666" points="183.75,-166.12 70.25,-166.12 70.25,-145.38 183.75,-145.38 183.75,-166.12"/>
<text xml:space="preserve" text-anchor="middle" x="127" y="-152.62" font-family="Helvetica,sans-Serif" font-size="10.00">source/application.c</text>
</a>
</g>
</g>
<!-- Node1&#45;&gt;Node2 -->
<g id="edge1_Node000001_Node000002" class="edge">
<title>Node1&#45;&gt;Node2</title>
<g id="a_edge1_Node000001_Node000002"><a xlink:title=" ">
<path fill="none" stroke="#63b8ff" d="M723.9,-279.24C610.5,-256.94 387.15,-212.59 198,-172.5 189.11,-170.62 179.6,-168.54 170.53,-166.54"/>
<polygon fill="#63b8ff" stroke="#63b8ff" points="722.89,-282.61 733.37,-281.11 724.24,-275.74 722.89,-282.61"/>
</a>
</g>
</g>
<!-- Node3 -->
<g id="Node000003" class="node">
<title>Node3</title>
<g id="a_Node000003"><a xlink:href="tmc2209__core_8c.html" target="_top" xlink:title=" ">
<polygon fill="white" stroke="#666666" points="1087.75,-242 962.25,-242 962.25,-208.5 1087.75,-208.5 1087.75,-242"/>
<text xml:space="preserve" text-anchor="start" x="970.25" y="-228.5" font-family="Helvetica,sans-Serif" font-size="10.00">source/driver/tmc2209</text>
<text xml:space="preserve" text-anchor="middle" x="1025" y="-215.75" font-family="Helvetica,sans-Serif" font-size="10.00">/tmc2209_core.c</text>
</a>
</g>
</g>
<!-- Node1&#45;&gt;Node3 -->
<g id="edge2_Node000001_Node000003" class="edge">
<title>Node1&#45;&gt;Node3</title>
<g id="a_edge2_Node000001_Node000003"><a xlink:title=" ">
<path fill="none" stroke="#63b8ff" d="M863.15,-274.38C897.2,-264.25 938.38,-252.01 970.68,-242.4"/>
<polygon fill="#63b8ff" stroke="#63b8ff" points="862.41,-270.95 853.82,-277.15 864.41,-277.66 862.41,-270.95"/>
</a>
</g>
</g>
<!-- Node4 -->
<g id="Node000004" class="node">
<title>Node4</title>
<g id="a_Node000004"><a xlink:href="motor__core_8h.html" target="_top" xlink:title=" ">
<polygon fill="white" stroke="#666666" points="944,-242 826,-242 826,-208.5 944,-208.5 944,-242"/>
<text xml:space="preserve" text-anchor="start" x="834" y="-228.5" font-family="Helvetica,sans-Serif" font-size="10.00">source/motion/motor</text>
<text xml:space="preserve" text-anchor="middle" x="885" y="-215.75" font-family="Helvetica,sans-Serif" font-size="10.00">/motor_core.h</text>
</a>
</g>
</g>
<!-- Node1&#45;&gt;Node4 -->
<g id="edge3_Node000001_Node000004" class="edge">
<title>Node1&#45;&gt;Node4</title>
<g id="a_edge3_Node000001_Node000004"><a xlink:title=" ">
<path fill="none" stroke="#63b8ff" d="M827.47,-270.89C839.54,-261.52 853.23,-250.9 864.23,-242.37"/>
<polygon fill="#63b8ff" stroke="#63b8ff" points="825.57,-267.93 819.81,-276.83 829.86,-273.46 825.57,-267.93"/>
</a>
</g>
</g>
<!-- Node13 -->
<g id="Node000013" class="node">
<title>Node13</title>
<g id="a_Node000013"><a xlink:href="motor__init_8c.html" target="_top" xlink:title=" ">
<polygon fill="white" stroke="#666666" points="118,-33.5 0,-33.5 0,0 118,0 118,-33.5"/>
<text xml:space="preserve" text-anchor="start" x="8" y="-20" font-family="Helvetica,sans-Serif" font-size="10.00">source/motion/motor</text>
<text xml:space="preserve" text-anchor="middle" x="59" y="-7.25" font-family="Helvetica,sans-Serif" font-size="10.00">/motor_init.c</text>
</a>
</g>
</g>
<!-- Node1&#45;&gt;Node13 -->
<g id="edge41_Node000001_Node000013" class="edge">
<title>Node1&#45;&gt;Node13</title>
<g id="a_edge41_Node000001_Node000013"><a xlink:title=" ">
<path fill="none" stroke="#63b8ff" d="M723.52,-293.39C553.18,-290.79 143.5,-273.9 61,-172.5 28.27,-132.27 43.76,-64.75 53.36,-33.94"/>
<polygon fill="#63b8ff" stroke="#63b8ff" points="723.32,-296.89 733.36,-293.52 723.41,-289.89 723.32,-296.89"/>
</a>
</g>
</g>
<!-- Node17 -->
<g id="Node000017" class="node">
<title>Node17</title>
<g id="a_Node000017"><a xlink:href="motor__tmc_8c.html" target="_top" xlink:title=" ">
<polygon fill="white" stroke="#666666" points="531,-33.5 413,-33.5 413,0 531,0 531,-33.5"/>
<text xml:space="preserve" text-anchor="start" x="421" y="-20" font-family="Helvetica,sans-Serif" font-size="10.00">source/motion/motor</text>
<text xml:space="preserve" text-anchor="middle" x="472" y="-7.25" font-family="Helvetica,sans-Serif" font-size="10.00">/motor_tmc.c</text>
</a>
</g>
</g>
<!-- Node1&#45;&gt;Node17 -->
<g id="edge42_Node000001_Node000017" class="edge">
<title>Node1&#45;&gt;Node17</title>
<g id="a_edge42_Node000001_Node000017"><a xlink:title=" ">
<path fill="none" stroke="#63b8ff" d="M805.22,-266.47C815.85,-219.51 829.38,-123.27 779,-69.5 742.27,-30.31 592.76,-43.57 540,-33.5 537.14,-32.95 534.22,-32.37 531.28,-31.77"/>
<polygon fill="#63b8ff" stroke="#63b8ff" points="801.85,-265.54 802.91,-276.08 808.65,-267.18 801.85,-265.54"/>
</a>
</g>
</g>
<!-- Node4&#45;&gt;Node2 -->
<g id="edge4_Node000004_Node000002" class="edge">
<title>Node4&#45;&gt;Node2</title>
<g id="a_edge4_Node000004_Node000002"><a xlink:title=" ">
<path fill="none" stroke="#63b8ff" d="M814.61,-222.27C689.79,-218.02 421.75,-205.57 198,-172.5 187.76,-170.99 176.79,-168.83 166.62,-166.59"/>
<polygon fill="#63b8ff" stroke="#63b8ff" points="814.25,-225.76 824.36,-222.59 814.48,-218.76 814.25,-225.76"/>
</a>
</g>
</g>
<!-- Node5 -->
<g id="Node000005" class="node">
<title>Node5</title>
<g id="a_Node000005"><a xlink:href="motor__convert_8h.html" target="_top" xlink:title=" ">
<polygon fill="white" stroke="#666666" points="982,-103 864,-103 864,-69.5 982,-69.5 982,-103"/>
<text xml:space="preserve" text-anchor="start" x="872" y="-89.5" font-family="Helvetica,sans-Serif" font-size="10.00">source/motion/motor</text>
<text xml:space="preserve" text-anchor="middle" x="923" y="-76.75" font-family="Helvetica,sans-Serif" font-size="10.00">/motor_convert.h</text>
</a>
</g>
</g>
<!-- Node4&#45;&gt;Node5 -->
<g id="edge5_Node000004_Node000005" class="edge">
<title>Node4&#45;&gt;Node5</title>
<g id="a_edge5_Node000004_Node000005"><a xlink:title=" ">
<path fill="none" stroke="#63b8ff" d="M892.49,-197.25C900.28,-169.17 912.2,-126.17 918.59,-103.13"/>
<polygon fill="#63b8ff" stroke="#63b8ff" points="889.14,-196.24 889.84,-206.81 895.88,-198.11 889.14,-196.24"/>
</a>
</g>
</g>
<!-- Node9 -->
<g id="Node000009" class="node">
<title>Node9</title>
<g id="a_Node000009"><a xlink:href="motorCmd_8c.html" target="_top" xlink:title=" ">
<polygon fill="white" stroke="#666666" points="1216.62,-27.12 1105.38,-27.12 1105.38,-6.38 1216.62,-6.38 1216.62,-27.12"/>
<text xml:space="preserve" text-anchor="middle" x="1161" y="-13.62" font-family="Helvetica,sans-Serif" font-size="10.00">source/motorCmd.c</text>
</a>
</g>
</g>
<!-- Node4&#45;&gt;Node9 -->
<g id="edge36_Node000004_Node000009" class="edge">
<title>Node4&#45;&gt;Node9</title>
<g id="a_edge36_Node000004_Node000009"><a xlink:title=" ">
<path fill="none" stroke="#63b8ff" d="M955.06,-205.11C1033.5,-182.1 1153.08,-141.73 1179,-103 1194.82,-79.37 1177.7,-44.47 1167.48,-27.6"/>
<polygon fill="#63b8ff" stroke="#63b8ff" points="954.36,-201.67 945.73,-207.82 956.31,-208.39 954.36,-201.67"/>
</a>
</g>
</g>
<!-- Node10 -->
<g id="Node000010" class="node">
<title>Node10</title>
<g id="a_Node000010"><a xlink:href="motor__homing_8c.html" target="_top" xlink:title=" ">
<polygon fill="white" stroke="#666666" points="1087.38,-27.12 956.62,-27.12 956.62,-6.38 1087.38,-6.38 1087.38,-27.12"/>
<text xml:space="preserve" text-anchor="middle" x="1022" y="-13.62" font-family="Helvetica,sans-Serif" font-size="10.00">source/motor_homing.c</text>
</a>
</g>
</g>
<!-- Node4&#45;&gt;Node10 -->
<g id="edge39_Node000004_Node000010" class="edge">
<title>Node4&#45;&gt;Node10</title>
<g id="a_edge39_Node000004_Node000010"><a xlink:title=" ">
<path fill="none" stroke="#63b8ff" d="M910.8,-200.33C934.37,-177.3 968.83,-140.52 991,-103 1005.98,-77.64 1015.62,-43.84 1019.72,-27.46"/>
<polygon fill="#63b8ff" stroke="#63b8ff" points="908.52,-197.66 903.74,-207.12 913.37,-202.71 908.52,-197.66"/>
</a>
</g>
</g>
<!-- Node11 -->
<g id="Node000011" class="node">
<title>Node11</title>
<g id="a_Node000011"><a xlink:href="motor__core_8c.html" target="_top" xlink:title=" ">
<polygon fill="white" stroke="#666666" points="259,-33.5 141,-33.5 141,0 259,0 259,-33.5"/>
<text xml:space="preserve" text-anchor="start" x="149" y="-20" font-family="Helvetica,sans-Serif" font-size="10.00">source/motion/motor</text>
<text xml:space="preserve" text-anchor="middle" x="200" y="-7.25" font-family="Helvetica,sans-Serif" font-size="10.00">/motor_core.c</text>
</a>
</g>
</g>
<!-- Node4&#45;&gt;Node11 -->
<g id="edge11_Node000004_Node000011" class="edge">
<title>Node4&#45;&gt;Node11</title>
<g id="a_edge11_Node000004_Node000011"><a xlink:title=" ">
<path fill="none" stroke="#63b8ff" d="M814.41,-219.36C719.85,-212.21 547.01,-197.02 401,-172.5 367.04,-166.8 120.44,-129.94 99,-103 89.73,-91.35 91.23,-82.2 99,-69.5 108.97,-53.19 125.88,-41.81 143.05,-33.97"/>
<polygon fill="#63b8ff" stroke="#63b8ff" points="814.09,-222.85 824.32,-220.1 814.61,-215.87 814.09,-222.85"/>
</a>
</g>
</g>
<!-- Node12 -->
<g id="Node000012" class="node">
<title>Node12</title>
<g id="a_Node000012"><a xlink:href="motor__init_8h.html" target="_top" xlink:title=" ">
<polygon fill="white" stroke="#666666" points="226,-103 108,-103 108,-69.5 226,-69.5 226,-103"/>
<text xml:space="preserve" text-anchor="start" x="116" y="-89.5" font-family="Helvetica,sans-Serif" font-size="10.00">source/motion/motor</text>
<text xml:space="preserve" text-anchor="middle" x="167" y="-76.75" font-family="Helvetica,sans-Serif" font-size="10.00">/motor_init.h</text>
</a>
</g>
</g>
<!-- Node4&#45;&gt;Node12 -->
<g id="edge12_Node000004_Node000012" class="edge">
<title>Node4&#45;&gt;Node12</title>
<g id="a_edge12_Node000004_Node000012"><a xlink:title=" ">
<path fill="none" stroke="#63b8ff" d="M814.38,-213.21C751.46,-203.19 656.94,-187.71 575,-172.5 423.35,-144.35 385.7,-135.85 235,-103 232.16,-102.38 229.25,-101.74 226.32,-101.08"/>
<polygon fill="#63b8ff" stroke="#63b8ff" points="813.83,-216.66 824.25,-214.78 814.93,-209.75 813.83,-216.66"/>
</a>
</g>
</g>
<!-- Node15 -->
<g id="Node000015" class="node">
<title>Node15</title>
<g id="a_Node000015"><a xlink:href="motor__internal_8h.html" target="_top" xlink:title=" ">
<polygon fill="white" stroke="#666666" points="702,-172.5 584,-172.5 584,-139 702,-139 702,-172.5"/>
<text xml:space="preserve" text-anchor="start" x="592" y="-159" font-family="Helvetica,sans-Serif" font-size="10.00">source/motion/motor</text>
<text xml:space="preserve" text-anchor="middle" x="643" y="-146.25" font-family="Helvetica,sans-Serif" font-size="10.00">/motor_internal.h</text>
</a>
</g>
</g>
<!-- Node4&#45;&gt;Node15 -->
<g id="edge15_Node000004_Node000015" class="edge">
<title>Node4&#45;&gt;Node15</title>
<g id="a_edge15_Node000004_Node000015"><a xlink:title=" ">
<path fill="none" stroke="#63b8ff" d="M816.01,-205.01C779.63,-194.86 735.5,-182.55 700.91,-172.9"/>
<polygon fill="#63b8ff" stroke="#63b8ff" points="815,-208.36 825.58,-207.68 816.89,-201.62 815,-208.36"/>
</a>
</g>
</g>
<!-- Node22 -->
<g id="Node000022" class="node">
<title>Node22</title>
<g id="a_Node000022"><a xlink:href="motor__test_8c.html" target="_top" xlink:title=" ">
<polygon fill="white" stroke="#666666" points="1347.38,-27.12 1234.62,-27.12 1234.62,-6.38 1347.38,-6.38 1347.38,-27.12"/>
<text xml:space="preserve" text-anchor="middle" x="1291" y="-13.62" font-family="Helvetica,sans-Serif" font-size="10.00">source/motor_test.c</text>
</a>
</g>
</g>
<!-- Node4&#45;&gt;Node22 -->
<g id="edge40_Node000004_Node000022" class="edge">
<title>Node4&#45;&gt;Node22</title>
<g id="a_edge40_Node000004_Node000022"><a xlink:title=" ">
<path fill="none" stroke="#63b8ff" d="M955.47,-207.92C1020.73,-192.79 1107.78,-172.61 1108,-172.5 1186.74,-134.63 1259.44,-54.76 1283.02,-27.28"/>
<polygon fill="#63b8ff" stroke="#63b8ff" points="954.81,-204.48 945.86,-210.15 956.39,-211.3 954.81,-204.48"/>
</a>
</g>
</g>
<!-- Node23 -->
<g id="Node000023" class="node">
<title>Node23</title>
<g id="a_Node000023"><a xlink:href="motor__configs_8h.html" target="_top" xlink:title=" ">
<polygon fill="white" stroke="#666666" points="1393.62,-166.12 1264.38,-166.12 1264.38,-145.38 1393.62,-145.38 1393.62,-166.12"/>
<text xml:space="preserve" text-anchor="middle" x="1329" y="-152.62" font-family="Helvetica,sans-Serif" font-size="10.00">source/motor_configs.h</text>
</a>
</g>
</g>
<!-- Node4&#45;&gt;Node23 -->
<g id="edge37_Node000004_Node000023" class="edge">
<title>Node4&#45;&gt;Node23</title>
<g id="a_edge37_Node000004_Node000023"><a xlink:title=" ">
<path fill="none" stroke="#63b8ff" d="M955.49,-208.18C1085.93,-185.88 1122.29,-192.94 1250,-172.5 1260.63,-170.8 1272.02,-168.7 1282.74,-166.59"/>
<polygon fill="#63b8ff" stroke="#63b8ff" points="955.01,-204.71 945.75,-209.87 956.2,-211.61 955.01,-204.71"/>
</a>
</g>
</g>
<!-- Node6 -->
<g id="Node000006" class="node">
<title>Node6</title>
<g id="a_Node000006"><a xlink:href="motor__convert_8c.html" target="_top" xlink:title=" ">
<polygon fill="white" stroke="#666666" points="939,-33.5 821,-33.5 821,0 939,0 939,-33.5"/>
<text xml:space="preserve" text-anchor="start" x="829" y="-20" font-family="Helvetica,sans-Serif" font-size="10.00">source/motion/motor</text>
<text xml:space="preserve" text-anchor="middle" x="880" y="-7.25" font-family="Helvetica,sans-Serif" font-size="10.00">/motor_convert.c</text>
</a>
</g>
</g>
<!-- Node5&#45;&gt;Node6 -->
<g id="edge6_Node000005_Node000006" class="edge">
<title>Node5&#45;&gt;Node6</title>
<g id="a_edge6_Node000005_Node000006"><a xlink:title=" ">
<path fill="none" stroke="#63b8ff" d="M906.79,-59.81C901.2,-51.02 895.09,-41.43 890.12,-33.63"/>
<polygon fill="#63b8ff" stroke="#63b8ff" points="903.67,-61.42 912,-67.98 909.58,-57.66 903.67,-61.42"/>
</a>
</g>
</g>
<!-- Node7 -->
<g id="Node000007" class="node">
<title>Node7</title>
<g id="a_Node000007"><a xlink:href="motor__motion_8c.html" target="_top" xlink:title=" ">
<polygon fill="white" stroke="#666666" points="667,-33.5 549,-33.5 549,0 667,0 667,-33.5"/>
<text xml:space="preserve" text-anchor="start" x="557" y="-20" font-family="Helvetica,sans-Serif" font-size="10.00">source/motion/motor</text>
<text xml:space="preserve" text-anchor="middle" x="608" y="-7.25" font-family="Helvetica,sans-Serif" font-size="10.00">/motor_motion.c</text>
</a>
</g>
</g>
<!-- Node5&#45;&gt;Node7 -->
<g id="edge7_Node000005_Node000007" class="edge">
<title>Node5&#45;&gt;Node7</title>
<g id="a_edge7_Node000005_Node000007"><a xlink:title=" ">
<path fill="none" stroke="#63b8ff" d="M852.32,-70.85C802.88,-60.68 735.34,-46.59 676,-33.5 673.16,-32.87 670.25,-32.23 667.32,-31.57"/>
<polygon fill="#63b8ff" stroke="#63b8ff" points="851.55,-74.27 862.05,-72.85 852.96,-67.41 851.55,-74.27"/>
</a>
</g>
</g>
<!-- Node8 -->
<g id="Node000008" class="node">
<title>Node8</title>
<g id="a_Node000008"><a xlink:href="motor__sync_8c.html" target="_top" xlink:title=" ">
<polygon fill="white" stroke="#666666" points="803,-33.5 685,-33.5 685,0 803,0 803,-33.5"/>
<text xml:space="preserve" text-anchor="start" x="693" y="-20" font-family="Helvetica,sans-Serif" font-size="10.00">source/motion/motor</text>
<text xml:space="preserve" text-anchor="middle" x="744" y="-7.25" font-family="Helvetica,sans-Serif" font-size="10.00">/motor_sync.c</text>
</a>
</g>
</g>
<!-- Node5&#45;&gt;Node8 -->
<g id="edge8_Node000005_Node000008" class="edge">
<title>Node5&#45;&gt;Node8</title>
<g id="a_edge8_Node000005_Node000008"><a xlink:title=" ">
<path fill="none" stroke="#63b8ff" d="M869.52,-65.08C843.1,-55.12 811.64,-43.26 786.83,-33.9"/>
<polygon fill="#63b8ff" stroke="#63b8ff" points="868.12,-68.29 878.71,-68.55 870.59,-61.74 868.12,-68.29"/>
</a>
</g>
</g>
<!-- Node5&#45;&gt;Node9 -->
<g id="edge9_Node000005_Node000009" class="edge">
<title>Node5&#45;&gt;Node9</title>
<g id="a_edge9_Node000005_Node000009"><a xlink:title=" ">
<path fill="none" stroke="#63b8ff" d="M990.96,-65.97C1035.12,-53.45 1090.83,-37.65 1126.2,-27.62"/>
<polygon fill="#63b8ff" stroke="#63b8ff" points="990.13,-62.57 981.46,-68.67 992.04,-69.31 990.13,-62.57"/>
</a>
</g>
</g>
<!-- Node5&#45;&gt;Node10 -->
<g id="edge10_Node000005_Node000010" class="edge">
<title>Node5&#45;&gt;Node10</title>
<g id="a_edge10_Node000005_Node000010"><a xlink:title=" ">
<path fill="none" stroke="#63b8ff" d="M956.06,-62.71C973.59,-50.76 994.21,-36.69 1007.67,-27.52"/>
<polygon fill="#63b8ff" stroke="#63b8ff" points="954.25,-59.7 947.96,-68.23 958.2,-65.49 954.25,-59.7"/>
</a>
</g>
</g>
<!-- Node12&#45;&gt;Node13 -->
<g id="edge13_Node000012_Node000013" class="edge">
<title>Node12&#45;&gt;Node13</title>
<g id="a_edge13_Node000012_Node000013"><a xlink:title=" ">
<path fill="none" stroke="#63b8ff" d="M131.47,-63.04C116.18,-53.49 98.65,-42.53 84.66,-33.79"/>
<polygon fill="#63b8ff" stroke="#63b8ff" points="129.51,-65.95 139.85,-68.28 133.22,-60.01 129.51,-65.95"/>
</a>
</g>
</g>
<!-- Node14 -->
<g id="Node000014" class="node">
<title>Node14</title>
<g id="a_Node000014"><a xlink:href="motor__process_8c.html" target="_top" xlink:title=" ">
<polygon fill="white" stroke="#666666" points="395,-33.5 277,-33.5 277,0 395,0 395,-33.5"/>
<text xml:space="preserve" text-anchor="start" x="285" y="-20" font-family="Helvetica,sans-Serif" font-size="10.00">source/motion/motor</text>
<text xml:space="preserve" text-anchor="middle" x="336" y="-7.25" font-family="Helvetica,sans-Serif" font-size="10.00">/motor_process.c</text>
</a>
</g>
</g>
<!-- Node12&#45;&gt;Node14 -->
<g id="edge14_Node000012_Node000014" class="edge">
<title>Node12&#45;&gt;Node14</title>
<g id="a_edge14_Node000012_Node000014"><a xlink:title=" ">
<path fill="none" stroke="#63b8ff" d="M218.16,-64.82C242.97,-54.91 272.34,-43.18 295.56,-33.9"/>
<polygon fill="#63b8ff" stroke="#63b8ff" points="216.87,-61.56 208.89,-68.52 219.47,-68.06 216.87,-61.56"/>
</a>
</g>
</g>
<!-- Node15&#45;&gt;Node6 -->
<g id="edge16_Node000015_Node000006" class="edge">
<title>Node15&#45;&gt;Node6</title>
<g id="a_edge16_Node000015_Node000006"><a xlink:title=" ">
<path fill="none" stroke="#63b8ff" d="M708.61,-134.84C731.65,-126.55 757.2,-115.84 779,-103 812.41,-83.32 845.73,-52.47 864.51,-33.78"/>
<polygon fill="#63b8ff" stroke="#63b8ff" points="707.59,-131.49 699.31,-138.09 709.9,-138.09 707.59,-131.49"/>
</a>
</g>
</g>
<!-- Node15&#45;&gt;Node12 -->
<g id="edge17_Node000015_Node000012" class="edge">
<title>Node15&#45;&gt;Node12</title>
<g id="a_edge17_Node000015_Node000012"><a xlink:title=" ">
<path fill="none" stroke="#63b8ff" d="M572.46,-148C490.86,-139.68 352.64,-124.03 235,-103 232.14,-102.49 229.21,-101.93 226.27,-101.35"/>
<polygon fill="#63b8ff" stroke="#63b8ff" points="571.79,-151.45 582.09,-148.97 572.49,-144.48 571.79,-151.45"/>
</a>
</g>
</g>
<!-- Node16 -->
<g id="Node000016" class="node">
<title>Node16</title>
<g id="a_Node000016"><a xlink:href="motor__motion_8h.html" target="_top" xlink:title=" ">
<polygon fill="white" stroke="#666666" points="634,-103 516,-103 516,-69.5 634,-69.5 634,-103"/>
<text xml:space="preserve" text-anchor="start" x="524" y="-89.5" font-family="Helvetica,sans-Serif" font-size="10.00">source/motion/motor</text>
<text xml:space="preserve" text-anchor="middle" x="575" y="-76.75" font-family="Helvetica,sans-Serif" font-size="10.00">/motor_motion.h</text>
</a>
</g>
</g>
<!-- Node15&#45;&gt;Node16 -->
<g id="edge18_Node000015_Node000016" class="edge">
<title>Node15&#45;&gt;Node16</title>
<g id="a_edge18_Node000015_Node000016"><a xlink:title=" ">
<path fill="none" stroke="#63b8ff" d="M618.79,-130.72C609.56,-121.56 599.28,-111.35 591,-103.13"/>
<polygon fill="#63b8ff" stroke="#63b8ff" points="616.25,-133.13 625.81,-137.69 621.18,-128.16 616.25,-133.13"/>
</a>
</g>
</g>
<!-- Node18 -->
<g id="Node000018" class="node">
<title>Node18</title>
<g id="a_Node000018"><a xlink:href="motor__process_8h.html" target="_top" xlink:title=" ">
<polygon fill="white" stroke="#666666" points="362,-103 244,-103 244,-69.5 362,-69.5 362,-103"/>
<text xml:space="preserve" text-anchor="start" x="252" y="-89.5" font-family="Helvetica,sans-Serif" font-size="10.00">source/motion/motor</text>
<text xml:space="preserve" text-anchor="middle" x="303" y="-76.75" font-family="Helvetica,sans-Serif" font-size="10.00">/motor_process.h</text>
</a>
</g>
</g>
<!-- Node15&#45;&gt;Node18 -->
<g id="edge23_Node000015_Node000018" class="edge">
<title>Node15&#45;&gt;Node18</title>
<g id="a_edge23_Node000015_Node000018"><a xlink:title=" ">
<path fill="none" stroke="#63b8ff" d="M572.68,-142.16C517.67,-132.12 439.32,-117.4 371,-103 368.15,-102.4 365.24,-101.77 362.31,-101.13"/>
<polygon fill="#63b8ff" stroke="#63b8ff" points="571.75,-145.55 582.21,-143.9 573,-138.66 571.75,-145.55"/>
</a>
</g>
</g>
<!-- Node19 -->
<g id="Node000019" class="node">
<title>Node19</title>
<g id="a_Node000019"><a xlink:href="motor__sync_8h.html" target="_top" xlink:title=" ">
<polygon fill="white" stroke="#666666" points="770,-103 652,-103 652,-69.5 770,-69.5 770,-103"/>
<text xml:space="preserve" text-anchor="start" x="660" y="-89.5" font-family="Helvetica,sans-Serif" font-size="10.00">source/motion/motor</text>
<text xml:space="preserve" text-anchor="middle" x="711" y="-76.75" font-family="Helvetica,sans-Serif" font-size="10.00">/motor_sync.h</text>
</a>
</g>
</g>
<!-- Node15&#45;&gt;Node19 -->
<g id="edge26_Node000015_Node000019" class="edge">
<title>Node15&#45;&gt;Node19</title>
<g id="a_edge26_Node000015_Node000019"><a xlink:title=" ">
<path fill="none" stroke="#63b8ff" d="M667.21,-130.72C676.44,-121.56 686.72,-111.35 695,-103.13"/>
<polygon fill="#63b8ff" stroke="#63b8ff" points="664.82,-128.16 660.19,-137.69 669.75,-133.13 664.82,-128.16"/>
</a>
</g>
</g>
<!-- Node20 -->
<g id="Node000020" class="node">
<title>Node20</title>
<g id="a_Node000020"><a xlink:href="motor__tmc_8h.html" target="_top" xlink:title=" ">
<polygon fill="white" stroke="#666666" points="498,-103 380,-103 380,-69.5 498,-69.5 498,-103"/>
<text xml:space="preserve" text-anchor="start" x="388" y="-89.5" font-family="Helvetica,sans-Serif" font-size="10.00">source/motion/motor</text>
<text xml:space="preserve" text-anchor="middle" x="439" y="-76.75" font-family="Helvetica,sans-Serif" font-size="10.00">/motor_tmc.h</text>
</a>
</g>
</g>
<!-- Node15&#45;&gt;Node20 -->
<g id="edge29_Node000015_Node000020" class="edge">
<title>Node15&#45;&gt;Node20</title>
<g id="a_edge29_Node000015_Node000020"><a xlink:title=" ">
<path fill="none" stroke="#63b8ff" d="M583.25,-134.98C552.89,-124.94 516.47,-112.88 487.82,-103.4"/>
<polygon fill="#63b8ff" stroke="#63b8ff" points="582.11,-138.29 592.7,-138.11 584.31,-131.64 582.11,-138.29"/>
</a>
</g>
</g>
<!-- Node21 -->
<g id="Node000021" class="node">
<title>Node21</title>
<g id="a_Node000021"><a xlink:href="motor__homing_8h.html" target="_top" xlink:title=" ">
<polygon fill="white" stroke="#666666" points="1169.75,-96.62 1038.25,-96.62 1038.25,-75.88 1169.75,-75.88 1169.75,-96.62"/>
<text xml:space="preserve" text-anchor="middle" x="1104" y="-83.12" font-family="Helvetica,sans-Serif" font-size="10.00">source/motor_homing.h</text>
</a>
</g>
</g>
<!-- Node15&#45;&gt;Node21 -->
<g id="edge32_Node000015_Node000021" class="edge">
<title>Node15&#45;&gt;Node21</title>
<g id="a_edge32_Node000015_Node000021"><a xlink:title=" ">
<path fill="none" stroke="#63b8ff" d="M713.56,-144.42C801.8,-131.5 951.7,-109.55 1037.83,-96.94"/>
<polygon fill="#63b8ff" stroke="#63b8ff" points="713.21,-140.93 703.82,-145.84 714.22,-147.86 713.21,-140.93"/>
</a>
</g>
</g>
<!-- Node16&#45;&gt;Node7 -->
<g id="edge20_Node000016_Node000007" class="edge">
<title>Node16&#45;&gt;Node7</title>
<g id="a_edge20_Node000016_Node000007"><a xlink:title=" ">
<path fill="none" stroke="#63b8ff" d="M587.85,-58.96C592.04,-50.41 596.55,-41.18 600.24,-33.63"/>
<polygon fill="#63b8ff" stroke="#63b8ff" points="584.73,-57.37 583.49,-67.89 591.02,-60.45 584.73,-57.37"/>
</a>
</g>
</g>
<!-- Node16&#45;&gt;Node11 -->
<g id="edge19_Node000016_Node000011" class="edge">
<title>Node16&#45;&gt;Node11</title>
<g id="a_edge19_Node000016_Node000011"><a xlink:title=" ">
<path fill="none" stroke="#63b8ff" d="M504.62,-69.14C399.54,-49.62 370.01,-52.97 268,-33.5 265.14,-32.95 262.22,-32.37 259.28,-31.77"/>
<polygon fill="#63b8ff" stroke="#63b8ff" points="503.76,-72.54 514.23,-70.95 505.05,-65.66 503.76,-72.54"/>
</a>
</g>
</g>
<!-- Node16&#45;&gt;Node14 -->
<g id="edge21_Node000016_Node000014" class="edge">
<title>Node16&#45;&gt;Node14</title>
<g id="a_edge21_Node000016_Node000014"><a xlink:title=" ">
<path fill="none" stroke="#63b8ff" d="M506.87,-66.01C470.93,-55.86 427.35,-43.55 393.19,-33.9"/>
<polygon fill="#63b8ff" stroke="#63b8ff" points="505.72,-69.32 516.3,-68.67 507.62,-62.58 505.72,-69.32"/>
</a>
</g>
</g>
<!-- Node16&#45;&gt;Node17 -->
<g id="edge22_Node000016_Node000017" class="edge">
<title>Node16&#45;&gt;Node17</title>
<g id="a_edge22_Node000016_Node000017"><a xlink:title=" ">
<path fill="none" stroke="#63b8ff" d="M541.11,-63.04C526.53,-53.49 509.81,-42.53 496.47,-33.79"/>
<polygon fill="#63b8ff" stroke="#63b8ff" points="538.78,-65.7 549.06,-68.25 542.62,-59.84 538.78,-65.7"/>
</a>
</g>
</g>
<!-- Node18&#45;&gt;Node11 -->
<g id="edge24_Node000018_Node000011" class="edge">
<title>Node18&#45;&gt;Node11</title>
<g id="a_edge24_Node000018_Node000011"><a xlink:title=" ">
<path fill="none" stroke="#63b8ff" d="M269.11,-63.04C254.53,-53.49 237.81,-42.53 224.47,-33.79"/>
<polygon fill="#63b8ff" stroke="#63b8ff" points="266.78,-65.7 277.06,-68.25 270.62,-59.84 266.78,-65.7"/>
</a>
</g>
</g>
<!-- Node18&#45;&gt;Node14 -->
<g id="edge25_Node000018_Node000014" class="edge">
<title>Node18&#45;&gt;Node14</title>
<g id="a_edge25_Node000018_Node000014"><a xlink:title=" ">
<path fill="none" stroke="#63b8ff" d="M315.85,-58.96C320.04,-50.41 324.55,-41.18 328.24,-33.63"/>
<polygon fill="#63b8ff" stroke="#63b8ff" points="312.73,-57.37 311.49,-67.89 319.02,-60.45 312.73,-57.37"/>
</a>
</g>
</g>
<!-- Node19&#45;&gt;Node8 -->
<g id="edge28_Node000019_Node000008" class="edge">
<title>Node19&#45;&gt;Node8</title>
<g id="a_edge28_Node000019_Node000008"><a xlink:title=" ">
<path fill="none" stroke="#63b8ff" d="M723.85,-58.96C728.04,-50.41 732.55,-41.18 736.24,-33.63"/>
<polygon fill="#63b8ff" stroke="#63b8ff" points="720.73,-57.37 719.49,-67.89 727.02,-60.45 720.73,-57.37"/>
</a>
</g>
</g>
<!-- Node19&#45;&gt;Node14 -->
<g id="edge27_Node000019_Node000014" class="edge">
<title>Node19&#45;&gt;Node14</title>
<g id="a_edge27_Node000019_Node000014"><a xlink:title=" ">
<path fill="none" stroke="#63b8ff" d="M640.62,-69.14C535.54,-49.62 506.01,-52.97 404,-33.5 401.14,-32.95 398.22,-32.37 395.28,-31.77"/>
<polygon fill="#63b8ff" stroke="#63b8ff" points="639.76,-72.54 650.23,-70.95 641.05,-65.66 639.76,-72.54"/>
</a>
</g>
</g>
<!-- Node20&#45;&gt;Node14 -->
<g id="edge30_Node000020_Node000014" class="edge">
<title>Node20&#45;&gt;Node14</title>
<g id="a_edge30_Node000020_Node000014"><a xlink:title=" ">
<path fill="none" stroke="#63b8ff" d="M405.11,-63.04C390.53,-53.49 373.81,-42.53 360.47,-33.79"/>
<polygon fill="#63b8ff" stroke="#63b8ff" points="402.78,-65.7 413.06,-68.25 406.62,-59.84 402.78,-65.7"/>
</a>
</g>
</g>
<!-- Node20&#45;&gt;Node17 -->
<g id="edge31_Node000020_Node000017" class="edge">
<title>Node20&#45;&gt;Node17</title>
<g id="a_edge31_Node000020_Node000017"><a xlink:title=" ">
<path fill="none" stroke="#63b8ff" d="M451.85,-58.96C456.04,-50.41 460.55,-41.18 464.24,-33.63"/>
<polygon fill="#63b8ff" stroke="#63b8ff" points="448.73,-57.37 447.49,-67.89 455.02,-60.45 448.73,-57.37"/>
</a>
</g>
</g>
<!-- Node21&#45;&gt;Node9 -->
<g id="edge33_Node000021_Node000009" class="edge">
<title>Node21&#45;&gt;Node9</title>
<g id="a_edge33_Node000021_Node000009"><a xlink:title=" ">
<path fill="none" stroke="#63b8ff" d="M1119.33,-67.1C1130.12,-54.32 1144.14,-37.72 1152.85,-27.4"/>
<polygon fill="#63b8ff" stroke="#63b8ff" points="1116.92,-64.52 1113.14,-74.42 1122.27,-69.04 1116.92,-64.52"/>
</a>
</g>
</g>
<!-- Node21&#45;&gt;Node10 -->
<g id="edge34_Node000021_Node000010" class="edge">
<title>Node21&#45;&gt;Node10</title>
<g id="a_edge34_Node000021_Node000010"><a xlink:title=" ">
<path fill="none" stroke="#63b8ff" d="M1083.79,-68.61C1068.16,-55.75 1047.05,-38.37 1033.99,-27.62"/>
<polygon fill="#63b8ff" stroke="#63b8ff" points="1081.14,-70.96 1091.08,-74.62 1085.59,-65.56 1081.14,-70.96"/>
</a>
</g>
</g>
<!-- Node21&#45;&gt;Node22 -->
<g id="edge35_Node000021_Node000022" class="edge">
<title>Node21&#45;&gt;Node22</title>
<g id="a_edge35_Node000021_Node000022"><a xlink:title=" ">
<path fill="none" stroke="#63b8ff" d="M1141.81,-71.6C1177.98,-58.55 1231.63,-39.18 1263.78,-27.58"/>
<polygon fill="#63b8ff" stroke="#63b8ff" points="1140.83,-68.23 1132.62,-74.92 1143.21,-74.82 1140.83,-68.23"/>
</a>
</g>
</g>
<!-- Node23&#45;&gt;Node22 -->
<g id="edge38_Node000023_Node000022" class="edge">
<title>Node23&#45;&gt;Node22</title>
<g id="a_edge38_Node000023_Node000022"><a xlink:title=" ">
<path fill="none" stroke="#63b8ff" d="M1323.25,-134.03C1314.93,-104.02 1299.85,-49.64 1293.71,-27.51"/>
<polygon fill="#63b8ff" stroke="#63b8ff" points="1319.82,-134.74 1325.86,-143.44 1326.56,-132.87 1319.82,-134.74"/>
</a>
</g>
</g>
</g>
</svg>
