<?xml version="1.0" encoding="UTF-8" standalone="no"?>
<!DOCTYPE svg PUBLIC "-//W3C//DTD SVG 1.1//EN"
 "http://www.w3.org/Graphics/SVG/1.1/DTD/svg11.dtd">
<!-- Generated by graphviz version 14.1.4 (0)
 -->
<!-- Title: source/driver/tmc2209/tmc2209_shared.h Pages: 1 -->
<!--zoomable 389 -->

<svg id="main" version="1.1" xmlns="http://www.w3.org/2000/svg" xmlns:xlink="http://www.w3.org/1999/xlink" xml:space="preserve" onload="init(evt)">

<style type="text/css"><![CDATA[
.node, .edge {opacity: 0.7;}
.node.selected, .edge.selected {opacity: 1;}
.edge:hover path { stroke: red; }
.edge:hover polygon { stroke: red; fill: red; }
]]></style>

<defs>
  <circle id="rim" cx="0" cy="0" r="7"/>
  <circle id="rim2" cx="0" cy="0" r="3.5"/>
  <g id="zoomPlus">
    <use xlink:href="#rim" fill="#404040"><set attributeName="fill" to="#808080" begin="zoomplus.mouseover" end="zoomplus.mouseout"/></use>
    <path d="M-4,0h8M0,-4v8" fill="none" stroke="white" stroke-width="1.5" pointer-events="none"/>
  </g>
  <g id="zoomMin">
    <use xlink:href="#rim" fill="#404040"><set attributeName="fill" to="#808080" begin="zoomminus.mouseover" end="zoomminus.mouseout"/></use>
    <path d="M-4,0h8" fill="none" stroke="white" stroke-width="1.5" pointer-events="none"/>
  </g>
  <g id="arrowUp" transform="translate(30 24)">
    <use xlink:href="#rim"/>
    <path pointer-events="none" fill="none" stroke="white" stroke-width="1.5" d="M0,-3.0v7 M-2.5,-0.5L0,-3.0L2.5,-0.5"/>
  </g>
  <g id="arrowRight" transform="rotate(90) translate(36 -43)">
    <use xlink:href="#rim"/>
    <path pointer-events="none" fill="none" stroke="white" stroke-width="1.5" d="M0,-3.0v7 M-2.5,-0.5L0,-3.0L2.5,-0.5"/>
  </g>
  <g id="arrowDown" transform="rotate(180) translate(-30 -48)">
    <use xlink:href="#rim"/>
    <path pointer-events="none" fill="none" stroke="white" stroke-width="1.5" d="M0,-3.0v7 M-2.5,-0.5L0,-3.0L2.5,-0.5"/>
  </g>
  <g id="arrowLeft" transform="rotate(270) translate(-36 17)">
    <use xlink:href="#rim"/>
    <path pointer-events="none" fill="none" stroke="white" stroke-width="1.5" d="M0,-3.0v7 M-2.5,-0.5L0,-3.0L2.5,-0.5"/>
  </g>
  <g id="resetDef">
    <use xlink:href="#rim2" fill="#404040"><set attributeName="fill" to="#808080" begin="reset.mouseover" end="reset.mouseout"/></use>
  </g>
</defs>
<script type="application/ecmascript">
var viewWidth = 1793;
var viewHeight = 389;
var sectionId = 'dynsection-1';
</script>
<script type="application/ecmascript" xlink:href="svg.min.js"/>
<svg id="graph" class="graph">
<g id="viewport">
<title>source/driver/tmc2209/tmc2209_shared.h</title>
<!-- Node1 -->
<g id="Node000001" class="node">
<title>Node1</title>
<g id="a_Node000001"><a xlink:title=" ">
<polygon fill="#999999" stroke="#666666" points="1435.75,-381 1310.25,-381 1310.25,-347.5 1435.75,-347.5 1435.75,-381"/>
<text xml:space="preserve" text-anchor="start" x="1318.25" y="-367.5" font-family="Helvetica,sans-Serif" font-size="10.00">source/driver/tmc2209</text>
<text xml:space="preserve" text-anchor="middle" x="1373" y="-354.75" font-family="Helvetica,sans-Serif" font-size="10.00">/tmc2209_shared.h</text>
</a>
</g>
</g>
<!-- Node2 -->
<g id="Node000002" class="node">
<title>Node2</title>
<g id="a_Node000002"><a xlink:href="tmc2209__core_8c.html" target="_top" xlink:title=" ">
<polygon fill="white" stroke="#666666" points="1299.75,-172.5 1174.25,-172.5 1174.25,-139 1299.75,-139 1299.75,-172.5"/>
<text xml:space="preserve" text-anchor="start" x="1182.25" y="-159" font-family="Helvetica,sans-Serif" font-size="10.00">source/driver/tmc2209</text>
<text xml:space="preserve" text-anchor="middle" x="1237" y="-146.25" font-family="Helvetica,sans-Serif" font-size="10.00">/tmc2209_core.c</text>
</a>
</g>
</g>
<!-- Node1&#45;&gt;Node2 -->
<g id="edge1_Node000001_Node000002" class="edge">
<title>Node1&#45;&gt;Node2</title>
<g id="a_edge1_Node000001_Node000002"><a xlink:title=" ">
<path fill="none" stroke="#63b8ff" d="M1298.84,-356.39C1228.29,-345.37 1126.4,-316.69 1081,-242 1073.27,-229.28 1072.29,-220.57 1081,-208.5 1092.36,-192.77 1135.67,-179.15 1173.79,-169.83"/>
<polygon fill="#63b8ff" stroke="#63b8ff" points="1297.97,-359.8 1308.38,-357.79 1298.99,-352.87 1297.97,-359.8"/>
</a>
</g>
</g>
<!-- Node3 -->
<g id="Node000003" class="node">
<title>Node3</title>
<g id="a_Node000003"><a xlink:href="tmc2209__core_8h.html" target="_top" xlink:title=" ">
<polygon fill="white" stroke="#666666" points="720.75,-311.5 595.25,-311.5 595.25,-278 720.75,-278 720.75,-311.5"/>
<text xml:space="preserve" text-anchor="start" x="603.25" y="-298" font-family="Helvetica,sans-Serif" font-size="10.00">source/driver/tmc2209</text>
<text xml:space="preserve" text-anchor="middle" x="658" y="-285.25" font-family="Helvetica,sans-Serif" font-size="10.00">/tmc2209_core.h</text>
</a>
</g>
</g>
<!-- Node1&#45;&gt;Node3 -->
<g id="edge2_Node000001_Node000003" class="edge">
<title>Node1&#45;&gt;Node3</title>
<g id="a_edge2_Node000001_Node000003"><a xlink:title=" ">
<path fill="none" stroke="#63b8ff" d="M1298.77,-356.24C1157.67,-342.92 853.11,-314.17 721.12,-301.71"/>
<polygon fill="#63b8ff" stroke="#63b8ff" points="1298.07,-359.69 1308.36,-357.15 1298.73,-352.72 1298.07,-359.69"/>
</a>
</g>
</g>
<!-- Node25 -->
<g id="Node000025" class="node">
<title>Node25</title>
<g id="a_Node000025"><a xlink:href="tmc2209__internal_8h.html" target="_top" xlink:title=" ">
<polygon fill="white" stroke="#666666" points="1526.75,-311.5 1401.25,-311.5 1401.25,-278 1526.75,-278 1526.75,-311.5"/>
<text xml:space="preserve" text-anchor="start" x="1409.25" y="-298" font-family="Helvetica,sans-Serif" font-size="10.00">source/driver/tmc2209</text>
<text xml:space="preserve" text-anchor="middle" x="1464" y="-285.25" font-family="Helvetica,sans-Serif" font-size="10.00">/tmc2209_internal.h</text>
</a>
</g>
</g>
<!-- Node1&#45;&gt;Node25 -->
<g id="edge39_Node000001_Node000025" class="edge">
<title>Node1&#45;&gt;Node25</title>
<g id="a_edge39_Node000001_Node000025"><a xlink:title=" ">
<path fill="none" stroke="#63b8ff" d="M1403.45,-340.66C1416.17,-331.23 1430.66,-320.48 1442.27,-311.87"/>
<polygon fill="#63b8ff" stroke="#63b8ff" points="1401.73,-337.58 1395.78,-346.35 1405.9,-343.21 1401.73,-337.58"/>
</a>
</g>
</g>
<!-- Node26 -->
<g id="Node000026" class="node">
<title>Node26</title>
<g id="a_Node000026"><a xlink:href="tmc2209__process_8c.html" target="_top" xlink:title=" ">
<polygon fill="white" stroke="#666666" points="1443.75,-172.5 1318.25,-172.5 1318.25,-139 1443.75,-139 1443.75,-172.5"/>
<text xml:space="preserve" text-anchor="start" x="1326.25" y="-159" font-family="Helvetica,sans-Serif" font-size="10.00">source/driver/tmc2209</text>
<text xml:space="preserve" text-anchor="middle" x="1381" y="-146.25" font-family="Helvetica,sans-Serif" font-size="10.00">/tmc2209_process.c</text>
</a>
</g>
</g>
<!-- Node1&#45;&gt;Node26 -->
<g id="edge51_Node000001_Node000026" class="edge">
<title>Node1&#45;&gt;Node26</title>
<g id="a_edge51_Node000001_Node000026"><a xlink:title=" ">
<path fill="none" stroke="#63b8ff" d="M1347.35,-339.07C1317.88,-308.22 1276.53,-253.47 1301,-208.5 1309.54,-192.81 1325.11,-181.15 1340.26,-172.91"/>
<polygon fill="#63b8ff" stroke="#63b8ff" points="1344.71,-341.37 1354.22,-346.03 1349.69,-336.45 1344.71,-341.37"/>
</a>
</g>
</g>
<!-- Node27 -->
<g id="Node000027" class="node">
<title>Node27</title>
<g id="a_Node000027"><a xlink:href="tmc2209__process_8h.html" target="_top" xlink:title=" ">
<polygon fill="white" stroke="#666666" points="1215.75,-242 1090.25,-242 1090.25,-208.5 1215.75,-208.5 1215.75,-242"/>
<text xml:space="preserve" text-anchor="start" x="1098.25" y="-228.5" font-family="Helvetica,sans-Serif" font-size="10.00">source/driver/tmc2209</text>
<text xml:space="preserve" text-anchor="middle" x="1153" y="-215.75" font-family="Helvetica,sans-Serif" font-size="10.00">/tmc2209_process.h</text>
</a>
</g>
</g>
<!-- Node1&#45;&gt;Node27 -->
<g id="edge52_Node000001_Node000027" class="edge">
<title>Node1&#45;&gt;Node27</title>
<g id="a_edge52_Node000001_Node000027"><a xlink:title=" ">
<path fill="none" stroke="#63b8ff" d="M1325.94,-342.28C1307.48,-333.49 1286.36,-322.7 1268,-311.5 1232.78,-290.01 1194.88,-260.54 1172.59,-242.48"/>
<polygon fill="#63b8ff" stroke="#63b8ff" points="1324.27,-345.36 1334.81,-346.44 1327.24,-339.03 1324.27,-345.36"/>
</a>
</g>
</g>
<!-- Node28 -->
<g id="Node000028" class="node">
<title>Node28</title>
<g id="a_Node000028"><a xlink:href="tmc2209__setup_8c.html" target="_top" xlink:title=" ">
<polygon fill="white" stroke="#666666" points="1617.75,-172.5 1492.25,-172.5 1492.25,-139 1617.75,-139 1617.75,-172.5"/>
<text xml:space="preserve" text-anchor="start" x="1500.25" y="-159" font-family="Helvetica,sans-Serif" font-size="10.00">source/driver/tmc2209</text>
<text xml:space="preserve" text-anchor="middle" x="1555" y="-146.25" font-family="Helvetica,sans-Serif" font-size="10.00">/tmc2209_setup.c</text>
</a>
</g>
</g>
<!-- Node1&#45;&gt;Node28 -->
<g id="edge53_Node000001_Node000028" class="edge">
<title>Node1&#45;&gt;Node28</title>
<g id="a_edge53_Node000001_Node000028"><a xlink:title=" ">
<path fill="none" stroke="#63b8ff" d="M1447.34,-357.84C1519.57,-347.96 1624.14,-320.15 1665,-242 1671.9,-228.81 1672.98,-221.07 1665,-208.5 1654.26,-191.57 1636.34,-180.08 1618.05,-172.32"/>
<polygon fill="#63b8ff" stroke="#63b8ff" points="1447.02,-354.35 1437.54,-359.09 1447.9,-361.3 1447.02,-354.35"/>
</a>
</g>
</g>
<!-- Node29 -->
<g id="Node000029" class="node">
<title>Node29</title>
<g id="a_Node000029"><a xlink:href="tmc2209__uart_8c.html" target="_top" xlink:title=" ">
<polygon fill="white" stroke="#666666" points="1784.75,-172.5 1659.25,-172.5 1659.25,-139 1784.75,-139 1784.75,-172.5"/>
<text xml:space="preserve" text-anchor="start" x="1667.25" y="-159" font-family="Helvetica,sans-Serif" font-size="10.00">source/driver/tmc2209</text>
<text xml:space="preserve" text-anchor="middle" x="1722" y="-146.25" font-family="Helvetica,sans-Serif" font-size="10.00">/tmc2209_uart.c</text>
</a>
</g>
</g>
<!-- Node1&#45;&gt;Node29 -->
<g id="edge58_Node000001_Node000029" class="edge">
<title>Node1&#45;&gt;Node29</title>
<g id="a_edge58_Node000001_Node000029"><a xlink:title=" ">
<path fill="none" stroke="#63b8ff" d="M1447.29,-360.88C1501.59,-356.29 1575.34,-343.93 1632,-311.5 1667.93,-290.94 1673.33,-277.86 1694,-242 1706.84,-219.73 1714.76,-190.75 1718.77,-172.97"/>
<polygon fill="#63b8ff" stroke="#63b8ff" points="1447.22,-357.37 1437.52,-361.63 1447.76,-364.35 1447.22,-357.37"/>
</a>
</g>
</g>
<!-- Node30 -->
<g id="Node000030" class="node">
<title>Node30</title>
<g id="a_Node000030"><a xlink:href="tmc2209__uart_8h.html" target="_top" xlink:title=" ">
<polygon fill="white" stroke="#666666" points="1655.75,-242 1530.25,-242 1530.25,-208.5 1655.75,-208.5 1655.75,-242"/>
<text xml:space="preserve" text-anchor="start" x="1538.25" y="-228.5" font-family="Helvetica,sans-Serif" font-size="10.00">source/driver/tmc2209</text>
<text xml:space="preserve" text-anchor="middle" x="1593" y="-215.75" font-family="Helvetica,sans-Serif" font-size="10.00">/tmc2209_uart.h</text>
</a>
</g>
</g>
<!-- Node1&#45;&gt;Node30 -->
<g id="edge59_Node000001_Node000030" class="edge">
<title>Node1&#45;&gt;Node30</title>
<g id="a_edge59_Node000001_Node000030"><a xlink:title=" ">
<path fill="none" stroke="#63b8ff" d="M1446.84,-350.91C1476.68,-343.23 1510.1,-330.96 1536,-311.5 1560.2,-293.32 1577.39,-261.69 1586.22,-242.49"/>
<polygon fill="#63b8ff" stroke="#63b8ff" points="1446.39,-347.42 1437.5,-353.18 1448.04,-354.22 1446.39,-347.42"/>
</a>
</g>
</g>
<!-- Node31 -->
<g id="Node000031" class="node">
<title>Node31</title>
<g id="a_Node000031"><a xlink:href="tmc2209__setup_8h.html" target="_top" xlink:title=" ">
<polygon fill="white" stroke="#666666" points="1435.75,-242 1310.25,-242 1310.25,-208.5 1435.75,-208.5 1435.75,-242"/>
<text xml:space="preserve" text-anchor="start" x="1318.25" y="-228.5" font-family="Helvetica,sans-Serif" font-size="10.00">source/driver/tmc2209</text>
<text xml:space="preserve" text-anchor="middle" x="1373" y="-215.75" font-family="Helvetica,sans-Serif" font-size="10.00">/tmc2209_setup.h</text>
</a>
</g>
</g>
<!-- Node1&#45;&gt;Node31 -->
<g id="edge54_Node000001_Node000031" class="edge">
<title>Node1&#45;&gt;Node31</title>
<g id="a_edge54_Node000001_Node000031"><a xlink:title=" ">
<path fill="none" stroke="#63b8ff" d="M1373,-335.87C1373,-307.79 1373,-265.07 1373,-242.13"/>
<polygon fill="#63b8ff" stroke="#63b8ff" points="1369.5,-335.75 1373,-345.75 1376.5,-335.75 1369.5,-335.75"/>
</a>
</g>
</g>
<!-- Node3&#45;&gt;Node2 -->
<g id="edge4_Node000003_Node000002" class="edge">
<title>Node3&#45;&gt;Node2</title>
<g id="a_edge4_Node000003_Node000002"><a xlink:title=" ">
<path fill="none" stroke="#63b8ff" d="M732.2,-276.19C847.16,-248.99 1066.28,-197.14 1174.01,-171.65"/>
<polygon fill="#63b8ff" stroke="#63b8ff" points="731.46,-272.77 722.54,-278.48 733.08,-279.58 731.46,-272.77"/>
</a>
</g>
</g>
<!-- Node4 -->
<g id="Node000004" class="node">
<title>Node4</title>
<g id="a_Node000004"><a xlink:href="application_8c.html" target="_top" xlink:title=" ">
<polygon fill="white" stroke="#666666" points="530.75,-166.12 417.25,-166.12 417.25,-145.38 530.75,-145.38 530.75,-166.12"/>
<text xml:space="preserve" text-anchor="middle" x="474" y="-152.62" font-family="Helvetica,sans-Serif" font-size="10.00">source/application.c</text>
</a>
</g>
</g>
<!-- Node3&#45;&gt;Node4 -->
<g id="edge3_Node000003_Node000004" class="edge">
<title>Node3&#45;&gt;Node4</title>
<g id="a_edge3_Node000003_Node000004"><a xlink:title=" ">
<path fill="none" stroke="#63b8ff" d="M627.32,-270.91C586.49,-240.5 516.07,-188.07 487.07,-166.48"/>
<polygon fill="#63b8ff" stroke="#63b8ff" points="625.21,-273.7 635.32,-276.86 629.39,-268.08 625.21,-273.7"/>
</a>
</g>
</g>
<!-- Node5 -->
<g id="Node000005" class="node">
<title>Node5</title>
<g id="a_Node000005"><a xlink:href="motor__init_8c.html" target="_top" xlink:title=" ">
<polygon fill="white" stroke="#666666" points="118,-33.5 0,-33.5 0,0 118,0 118,-33.5"/>
<text xml:space="preserve" text-anchor="start" x="8" y="-20" font-family="Helvetica,sans-Serif" font-size="10.00">source/motion/motor</text>
<text xml:space="preserve" text-anchor="middle" x="59" y="-7.25" font-family="Helvetica,sans-Serif" font-size="10.00">/motor_init.c</text>
</a>
</g>
</g>
<!-- Node3&#45;&gt;Node5 -->
<g id="edge5_Node000003_Node000005" class="edge">
<title>Node3&#45;&gt;Node5</title>
<g id="a_edge5_Node000003_Node000005"><a xlink:title=" ">
<path fill="none" stroke="#63b8ff" d="M583.77,-289.86C503.16,-284.3 371.19,-271.3 261,-242 182.51,-221.13 155.73,-222.85 92,-172.5 62.14,-148.91 53.67,-139.22 42,-103 34.41,-79.44 43.52,-51.08 51.05,-33.74"/>
<polygon fill="#63b8ff" stroke="#63b8ff" points="583.07,-293.32 593.28,-290.49 583.54,-286.33 583.07,-293.32"/>
</a>
</g>
</g>
<!-- Node6 -->
<g id="Node000006" class="node">
<title>Node6</title>
<g id="a_Node000006"><a xlink:href="motor__tmc_8c.html" target="_top" xlink:title=" ">
<polygon fill="white" stroke="#666666" points="316,-33.5 198,-33.5 198,0 316,0 316,-33.5"/>
<text xml:space="preserve" text-anchor="start" x="206" y="-20" font-family="Helvetica,sans-Serif" font-size="10.00">source/motion/motor</text>
<text xml:space="preserve" text-anchor="middle" x="257" y="-7.25" font-family="Helvetica,sans-Serif" font-size="10.00">/motor_tmc.c</text>
</a>
</g>
</g>
<!-- Node3&#45;&gt;Node6 -->
<g id="edge6_Node000003_Node000006" class="edge">
<title>Node3&#45;&gt;Node6</title>
<g id="a_edge6_Node000003_Node000006"><a xlink:title=" ">
<path fill="none" stroke="#63b8ff" d="M583.61,-281.43C436.42,-255.38 116.71,-189.88 53,-103 44.2,-90.99 43.86,-81.25 53,-69.5 70.7,-46.75 144.05,-32.39 197.74,-24.72"/>
<polygon fill="#63b8ff" stroke="#63b8ff" points="582.81,-284.85 593.27,-283.13 584.02,-277.95 582.81,-284.85"/>
</a>
</g>
</g>
<!-- Node7 -->
<g id="Node000007" class="node">
<title>Node7</title>
<g id="a_Node000007"><a xlink:href="motor_8h.html" target="_top" xlink:title=" ">
<polygon fill="white" stroke="#666666" points="767.38,-235.62 678.62,-235.62 678.62,-214.88 767.38,-214.88 767.38,-235.62"/>
<text xml:space="preserve" text-anchor="middle" x="723" y="-222.12" font-family="Helvetica,sans-Serif" font-size="10.00">source/motor.h</text>
</a>
</g>
</g>
<!-- Node3&#45;&gt;Node7 -->
<g id="edge7_Node000003_Node000007" class="edge">
<title>Node3&#45;&gt;Node7</title>
<g id="a_edge7_Node000003_Node000007"><a xlink:title=" ">
<path fill="none" stroke="#63b8ff" d="M681.16,-269.7C692.32,-258.11 705.08,-244.86 713.54,-236.07"/>
<polygon fill="#63b8ff" stroke="#63b8ff" points="678.87,-267.03 674.45,-276.66 683.91,-271.89 678.87,-267.03"/>
</a>
</g>
</g>
<!-- Node7&#45;&gt;Node4 -->
<g id="edge8_Node000007_Node000004" class="edge">
<title>Node7&#45;&gt;Node4</title>
<g id="a_edge8_Node000007_Node000004"><a xlink:title=" ">
<path fill="none" stroke="#63b8ff" d="M675.73,-211.44C627.59,-198.39 553.98,-178.43 510.25,-166.58"/>
<polygon fill="#63b8ff" stroke="#63b8ff" points="674.77,-214.8 685.33,-214.04 676.6,-208.04 674.77,-214.8"/>
</a>
</g>
</g>
<!-- Node8 -->
<g id="Node000008" class="node">
<title>Node8</title>
<g id="a_Node000008"><a xlink:href="motor__convert_8h.html" target="_top" xlink:title=" ">
<polygon fill="white" stroke="#666666" points="841,-172.5 723,-172.5 723,-139 841,-139 841,-172.5"/>
<text xml:space="preserve" text-anchor="start" x="731" y="-159" font-family="Helvetica,sans-Serif" font-size="10.00">source/motion/motor</text>
<text xml:space="preserve" text-anchor="middle" x="782" y="-146.25" font-family="Helvetica,sans-Serif" font-size="10.00">/motor_convert.h</text>
</a>
</g>
</g>
<!-- Node7&#45;&gt;Node8 -->
<g id="edge9_Node000007_Node000008" class="edge">
<title>Node7&#45;&gt;Node8</title>
<g id="a_edge9_Node000007_Node000008"><a xlink:title=" ">
<path fill="none" stroke="#63b8ff" d="M739,-205.95C748.01,-195.63 759.17,-182.86 767.87,-172.92"/>
<polygon fill="#63b8ff" stroke="#63b8ff" points="736.4,-203.61 732.45,-213.44 741.67,-208.21 736.4,-203.61"/>
</a>
</g>
</g>
<!-- Node12 -->
<g id="Node000012" class="node">
<title>Node12</title>
<g id="a_Node000012"><a xlink:href="motor__init_8h.html" target="_top" xlink:title=" ">
<polygon fill="white" stroke="#666666" points="180,-103 62,-103 62,-69.5 180,-69.5 180,-103"/>
<text xml:space="preserve" text-anchor="start" x="70" y="-89.5" font-family="Helvetica,sans-Serif" font-size="10.00">source/motion/motor</text>
<text xml:space="preserve" text-anchor="middle" x="121" y="-76.75" font-family="Helvetica,sans-Serif" font-size="10.00">/motor_init.h</text>
</a>
</g>
</g>
<!-- Node7&#45;&gt;Node12 -->
<g id="edge13_Node000007_Node000012" class="edge">
<title>Node7&#45;&gt;Node12</title>
<g id="a_edge13_Node000007_Node000012"><a xlink:title=" ">
<path fill="none" stroke="#63b8ff" d="M672.01,-211.23C643.23,-202.64 607.27,-189.76 578,-172.5 558.6,-161.07 560.63,-148.02 540,-139 396.33,-76.15 343.69,-128.74 189,-103 186.13,-102.52 183.2,-102 180.25,-101.43"/>
<polygon fill="#63b8ff" stroke="#63b8ff" points="671.03,-214.59 681.61,-214 672.97,-207.86 671.03,-214.59"/>
</a>
</g>
</g>
<!-- Node14 -->
<g id="Node000014" class="node">
<title>Node14</title>
<g id="a_Node000014"><a xlink:href="motor__internal_8h.html" target="_top" xlink:title=" ">
<polygon fill="white" stroke="#666666" points="705,-172.5 587,-172.5 587,-139 705,-139 705,-172.5"/>
<text xml:space="preserve" text-anchor="start" x="595" y="-159" font-family="Helvetica,sans-Serif" font-size="10.00">source/motion/motor</text>
<text xml:space="preserve" text-anchor="middle" x="646" y="-146.25" font-family="Helvetica,sans-Serif" font-size="10.00">/motor_internal.h</text>
</a>
</g>
</g>
<!-- Node7&#45;&gt;Node14 -->
<g id="edge16_Node000007_Node000014" class="edge">
<title>Node7&#45;&gt;Node14</title>
<g id="a_edge16_Node000007_Node000014"><a xlink:title=" ">
<path fill="none" stroke="#63b8ff" d="M703.55,-207.2C691.55,-196.68 676.25,-183.27 664.44,-172.92"/>
<polygon fill="#63b8ff" stroke="#63b8ff" points="701,-209.62 710.83,-213.58 705.62,-204.36 701,-209.62"/>
</a>
</g>
</g>
<!-- Node22 -->
<g id="Node000022" class="node">
<title>Node22</title>
<g id="a_Node000022"><a xlink:href="motorCmd_8c.html" target="_top" xlink:title=" ">
<polygon fill="white" stroke="#666666" points="970.62,-166.12 859.38,-166.12 859.38,-145.38 970.62,-145.38 970.62,-166.12"/>
<text xml:space="preserve" text-anchor="middle" x="915" y="-152.62" font-family="Helvetica,sans-Serif" font-size="10.00">source/motorCmd.c</text>
</a>
</g>
</g>
<!-- Node7&#45;&gt;Node22 -->
<g id="edge35_Node000007_Node000022" class="edge">
<title>Node7&#45;&gt;Node22</title>
<g id="a_edge35_Node000007_Node000022"><a xlink:title=" ">
<path fill="none" stroke="#63b8ff" d="M761.34,-210.77C798.48,-197.71 853.9,-178.23 887.05,-166.58"/>
<polygon fill="#63b8ff" stroke="#63b8ff" points="760.62,-207.31 752.35,-213.93 762.94,-213.92 760.62,-207.31"/>
</a>
</g>
</g>
<!-- Node23 -->
<g id="Node000023" class="node">
<title>Node23</title>
<g id="a_Node000023"><a xlink:href="motor__configs_8h.html" target="_top" xlink:title=" ">
<polygon fill="white" stroke="#666666" points="1117.62,-166.12 988.38,-166.12 988.38,-145.38 1117.62,-145.38 1117.62,-166.12"/>
<text xml:space="preserve" text-anchor="middle" x="1053" y="-152.62" font-family="Helvetica,sans-Serif" font-size="10.00">source/motor_configs.h</text>
</a>
</g>
</g>
<!-- Node7&#45;&gt;Node23 -->
<g id="edge36_Node000007_Node000023" class="edge">
<title>Node7&#45;&gt;Node23</title>
<g id="a_edge36_Node000007_Node000023"><a xlink:title=" ">
<path fill="none" stroke="#63b8ff" d="M778.61,-213.28C830.69,-202.96 910.68,-186.96 980,-172.5 989.01,-170.62 998.64,-168.57 1007.85,-166.59"/>
<polygon fill="#63b8ff" stroke="#63b8ff" points="778.22,-209.79 769.09,-215.17 779.58,-216.66 778.22,-209.79"/>
</a>
</g>
</g>
<!-- Node24 -->
<g id="Node000024" class="node">
<title>Node24</title>
<g id="a_Node000024"><a xlink:href="motor__test_8c.html" target="_top" xlink:title=" ">
<polygon fill="white" stroke="#666666" points="1202.38,-96.62 1089.62,-96.62 1089.62,-75.88 1202.38,-75.88 1202.38,-96.62"/>
<text xml:space="preserve" text-anchor="middle" x="1146" y="-83.12" font-family="Helvetica,sans-Serif" font-size="10.00">source/motor_test.c</text>
</a>
</g>
</g>
<!-- Node7&#45;&gt;Node24 -->
<g id="edge38_Node000007_Node000024" class="edge">
<title>Node7&#45;&gt;Node24</title>
<g id="a_edge38_Node000007_Node000024"><a xlink:title=" ">
<path fill="none" stroke="#63b8ff" d="M778.97,-220.62C883.85,-213.32 1101.73,-195.55 1127,-172.5 1148.51,-152.88 1148.44,-114.74 1147.06,-96.89"/>
<polygon fill="#63b8ff" stroke="#63b8ff" points="778.91,-217.12 769.18,-221.3 779.39,-224.1 778.91,-217.12"/>
</a>
</g>
</g>
<!-- Node9 -->
<g id="Node000009" class="node">
<title>Node9</title>
<g id="a_Node000009"><a xlink:href="motor__convert_8c.html" target="_top" xlink:title=" ">
<polygon fill="white" stroke="#666666" points="860,-103 742,-103 742,-69.5 860,-69.5 860,-103"/>
<text xml:space="preserve" text-anchor="start" x="750" y="-89.5" font-family="Helvetica,sans-Serif" font-size="10.00">source/motion/motor</text>
<text xml:space="preserve" text-anchor="middle" x="801" y="-76.75" font-family="Helvetica,sans-Serif" font-size="10.00">/motor_convert.c</text>
</a>
</g>
</g>
<!-- Node8&#45;&gt;Node9 -->
<g id="edge10_Node000008_Node000009" class="edge">
<title>Node8&#45;&gt;Node9</title>
<g id="a_edge10_Node000008_Node000009"><a xlink:title=" ">
<path fill="none" stroke="#63b8ff" d="M789.56,-127.89C791.92,-119.5 794.45,-110.51 796.53,-103.13"/>
<polygon fill="#63b8ff" stroke="#63b8ff" points="786.25,-126.72 786.91,-137.3 792.99,-128.62 786.25,-126.72"/>
</a>
</g>
</g>
<!-- Node10 -->
<g id="Node000010" class="node">
<title>Node10</title>
<g id="a_Node000010"><a xlink:href="motor__motion_8c.html" target="_top" xlink:title=" ">
<polygon fill="white" stroke="#666666" points="627,-33.5 509,-33.5 509,0 627,0 627,-33.5"/>
<text xml:space="preserve" text-anchor="start" x="517" y="-20" font-family="Helvetica,sans-Serif" font-size="10.00">source/motion/motor</text>
<text xml:space="preserve" text-anchor="middle" x="568" y="-7.25" font-family="Helvetica,sans-Serif" font-size="10.00">/motor_motion.c</text>
</a>
</g>
</g>
<!-- Node8&#45;&gt;Node10 -->
<g id="edge11_Node000008_Node000010" class="edge">
<title>Node8&#45;&gt;Node10</title>
<g id="a_edge11_Node000008_Node000010"><a xlink:title=" ">
<path fill="none" stroke="#63b8ff" d="M837.31,-133.35C849.92,-125.74 861.73,-115.78 869,-103 876.36,-90.06 878.59,-80.89 869,-69.5 853.6,-51.23 710.66,-33.03 627.42,-23.86"/>
<polygon fill="#63b8ff" stroke="#63b8ff" points="835.97,-130.09 828.9,-137.99 839.35,-136.22 835.97,-130.09"/>
</a>
</g>
</g>
<!-- Node11 -->
<g id="Node000011" class="node">
<title>Node11</title>
<g id="a_Node000011"><a xlink:href="motor__sync_8c.html" target="_top" xlink:title=" ">
<polygon fill="white" stroke="#666666" points="1121,-33.5 1003,-33.5 1003,0 1121,0 1121,-33.5"/>
<text xml:space="preserve" text-anchor="start" x="1011" y="-20" font-family="Helvetica,sans-Serif" font-size="10.00">source/motion/motor</text>
<text xml:space="preserve" text-anchor="middle" x="1062" y="-7.25" font-family="Helvetica,sans-Serif" font-size="10.00">/motor_sync.c</text>
</a>
</g>
</g>
<!-- Node8&#45;&gt;Node11 -->
<g id="edge12_Node000008_Node000011" class="edge">
<title>Node8&#45;&gt;Node11</title>
<g id="a_edge12_Node000008_Node000011"><a xlink:title=" ">
<path fill="none" stroke="#63b8ff" d="M852.38,-138.78C939.03,-124.39 982.75,-161.19 1043,-103 1061.65,-84.99 1063.86,-53 1063.28,-33.75"/>
<polygon fill="#63b8ff" stroke="#63b8ff" points="851.97,-135.29 842.79,-140.58 853.27,-142.17 851.97,-135.29"/>
</a>
</g>
</g>
<!-- Node12&#45;&gt;Node5 -->
<g id="edge14_Node000012_Node000005" class="edge">
<title>Node12&#45;&gt;Node5</title>
<g id="a_edge14_Node000012_Node000005"><a xlink:title=" ">
<path fill="none" stroke="#63b8ff" d="M98.67,-60.94C90.32,-51.85 81.06,-41.77 73.59,-33.63"/>
<polygon fill="#63b8ff" stroke="#63b8ff" points="95.94,-63.14 105.28,-68.14 101.1,-58.41 95.94,-63.14"/>
</a>
</g>
</g>
<!-- Node13 -->
<g id="Node000013" class="node">
<title>Node13</title>
<g id="a_Node000013"><a xlink:href="motor__process_8c.html" target="_top" xlink:title=" ">
<polygon fill="white" stroke="#666666" points="452,-33.5 334,-33.5 334,0 452,0 452,-33.5"/>
<text xml:space="preserve" text-anchor="start" x="342" y="-20" font-family="Helvetica,sans-Serif" font-size="10.00">source/motion/motor</text>
<text xml:space="preserve" text-anchor="middle" x="393" y="-7.25" font-family="Helvetica,sans-Serif" font-size="10.00">/motor_process.c</text>
</a>
</g>
</g>
<!-- Node12&#45;&gt;Node13 -->
<g id="edge15_Node000012_Node000013" class="edge">
<title>Node12&#45;&gt;Node13</title>
<g id="a_edge15_Node000012_Node000013"><a xlink:title=" ">
<path fill="none" stroke="#63b8ff" d="M191.31,-67.8C235.5,-56.84 291.87,-42.85 333.77,-32.45"/>
<polygon fill="#63b8ff" stroke="#63b8ff" points="190.69,-64.35 181.82,-70.16 192.37,-71.14 190.69,-64.35"/>
</a>
</g>
</g>
<!-- Node14&#45;&gt;Node9 -->
<g id="edge17_Node000014_Node000009" class="edge">
<title>Node14&#45;&gt;Node9</title>
<g id="a_edge17_Node000014_Node000009"><a xlink:title=" ">
<path fill="none" stroke="#63b8ff" d="M693.53,-134.05C716.16,-124.2 742.81,-112.59 763.91,-103.4"/>
<polygon fill="#63b8ff" stroke="#63b8ff" points="692.28,-130.78 684.51,-137.98 695.08,-137.19 692.28,-130.78"/>
</a>
</g>
</g>
<!-- Node14&#45;&gt;Node12 -->
<g id="edge21_Node000014_Node000012" class="edge">
<title>Node14&#45;&gt;Node12</title>
<g id="a_edge21_Node000014_Node000012"><a xlink:title=" ">
<path fill="none" stroke="#63b8ff" d="M575.54,-139.4C574.69,-139.26 573.84,-139.13 573,-139 403.59,-112.88 358.21,-130.4 189,-103 186.13,-102.54 183.2,-102.02 180.25,-101.47"/>
<polygon fill="#63b8ff" stroke="#63b8ff" points="574.8,-142.82 585.26,-141.09 576,-135.93 574.8,-142.82"/>
</a>
</g>
</g>
<!-- Node15 -->
<g id="Node000015" class="node">
<title>Node15</title>
<g id="a_Node000015"><a xlink:href="motor__core_8h.html" target="_top" xlink:title=" ">
<polygon fill="white" stroke="#666666" points="1034,-103 916,-103 916,-69.5 1034,-69.5 1034,-103"/>
<text xml:space="preserve" text-anchor="start" x="924" y="-89.5" font-family="Helvetica,sans-Serif" font-size="10.00">source/motion/motor</text>
<text xml:space="preserve" text-anchor="middle" x="975" y="-76.75" font-family="Helvetica,sans-Serif" font-size="10.00">/motor_core.h</text>
</a>
</g>
</g>
<!-- Node14&#45;&gt;Node15 -->
<g id="edge18_Node000014_Node000015" class="edge">
<title>Node14&#45;&gt;Node15</title>
<g id="a_edge18_Node000014_Node000015"><a xlink:title=" ">
<path fill="none" stroke="#63b8ff" d="M716.25,-138.55C790.39,-122.73 865.05,-108.14 915.54,-98.48"/>
<polygon fill="#63b8ff" stroke="#63b8ff" points="715.84,-135.06 706.79,-140.58 717.3,-141.9 715.84,-135.06"/>
</a>
</g>
</g>
<!-- Node18 -->
<g id="Node000018" class="node">
<title>Node18</title>
<g id="a_Node000018"><a xlink:href="motor__motion_8h.html" target="_top" xlink:title=" ">
<polygon fill="white" stroke="#666666" points="452,-103 334,-103 334,-69.5 452,-69.5 452,-103"/>
<text xml:space="preserve" text-anchor="start" x="342" y="-89.5" font-family="Helvetica,sans-Serif" font-size="10.00">source/motion/motor</text>
<text xml:space="preserve" text-anchor="middle" x="393" y="-76.75" font-family="Helvetica,sans-Serif" font-size="10.00">/motor_motion.h</text>
</a>
</g>
</g>
<!-- Node14&#45;&gt;Node18 -->
<g id="edge22_Node000014_Node000018" class="edge">
<title>Node14&#45;&gt;Node18</title>
<g id="a_edge22_Node000014_Node000018"><a xlink:title=" ">
<path fill="none" stroke="#63b8ff" d="M575.98,-136.07C537.15,-125.71 489.38,-112.96 452.38,-103.09"/>
<polygon fill="#63b8ff" stroke="#63b8ff" points="574.66,-139.34 585.22,-138.53 576.46,-132.57 574.66,-139.34"/>
</a>
</g>
</g>
<!-- Node19 -->
<g id="Node000019" class="node">
<title>Node19</title>
<g id="a_Node000019"><a xlink:href="motor__process_8h.html" target="_top" xlink:title=" ">
<polygon fill="white" stroke="#666666" points="588,-103 470,-103 470,-69.5 588,-69.5 588,-103"/>
<text xml:space="preserve" text-anchor="start" x="478" y="-89.5" font-family="Helvetica,sans-Serif" font-size="10.00">source/motion/motor</text>
<text xml:space="preserve" text-anchor="middle" x="529" y="-76.75" font-family="Helvetica,sans-Serif" font-size="10.00">/motor_process.h</text>
</a>
</g>
</g>
<!-- Node14&#45;&gt;Node19 -->
<g id="edge26_Node000014_Node000019" class="edge">
<title>Node14&#45;&gt;Node19</title>
<g id="a_edge26_Node000014_Node000019"><a xlink:title=" ">
<path fill="none" stroke="#63b8ff" d="M608.45,-133.09C591.67,-123.41 572.24,-112.2 556.8,-103.29"/>
<polygon fill="#63b8ff" stroke="#63b8ff" points="606.25,-135.86 616.66,-137.83 609.75,-129.8 606.25,-135.86"/>
</a>
</g>
</g>
<!-- Node20 -->
<g id="Node000020" class="node">
<title>Node20</title>
<g id="a_Node000020"><a xlink:href="motor__sync_8h.html" target="_top" xlink:title=" ">
<polygon fill="white" stroke="#666666" points="724,-103 606,-103 606,-69.5 724,-69.5 724,-103"/>
<text xml:space="preserve" text-anchor="start" x="614" y="-89.5" font-family="Helvetica,sans-Serif" font-size="10.00">source/motion/motor</text>
<text xml:space="preserve" text-anchor="middle" x="665" y="-76.75" font-family="Helvetica,sans-Serif" font-size="10.00">/motor_sync.h</text>
</a>
</g>
</g>
<!-- Node14&#45;&gt;Node20 -->
<g id="edge29_Node000014_Node000020" class="edge">
<title>Node14&#45;&gt;Node20</title>
<g id="a_edge29_Node000014_Node000020"><a xlink:title=" ">
<path fill="none" stroke="#63b8ff" d="M653.56,-127.89C655.92,-119.5 658.45,-110.51 660.53,-103.13"/>
<polygon fill="#63b8ff" stroke="#63b8ff" points="650.25,-126.72 650.91,-137.3 656.99,-128.62 650.25,-126.72"/>
</a>
</g>
</g>
<!-- Node21 -->
<g id="Node000021" class="node">
<title>Node21</title>
<g id="a_Node000021"><a xlink:href="motor__tmc_8h.html" target="_top" xlink:title=" ">
<polygon fill="white" stroke="#666666" points="316,-103 198,-103 198,-69.5 316,-69.5 316,-103"/>
<text xml:space="preserve" text-anchor="start" x="206" y="-89.5" font-family="Helvetica,sans-Serif" font-size="10.00">source/motion/motor</text>
<text xml:space="preserve" text-anchor="middle" x="257" y="-76.75" font-family="Helvetica,sans-Serif" font-size="10.00">/motor_tmc.h</text>
</a>
</g>
</g>
<!-- Node14&#45;&gt;Node21 -->
<g id="edge32_Node000014_Node000021" class="edge">
<title>Node14&#45;&gt;Node21</title>
<g id="a_edge32_Node000014_Node000021"><a xlink:title=" ">
<path fill="none" stroke="#63b8ff" d="M575.53,-139.46C574.68,-139.3 573.84,-139.15 573,-139 463.39,-119.24 434.46,-123.58 325,-103 322.14,-102.46 319.22,-101.89 316.28,-101.29"/>
<polygon fill="#63b8ff" stroke="#63b8ff" points="574.74,-142.87 585.22,-141.32 576.06,-136 574.74,-142.87"/>
</a>
</g>
</g>
<!-- Node16 -->
<g id="Node000016" class="node">
<title>Node16</title>
<g id="a_Node000016"><a xlink:href="motor__core_8c.html" target="_top" xlink:title=" ">
<polygon fill="white" stroke="#666666" points="840,-33.5 722,-33.5 722,0 840,0 840,-33.5"/>
<text xml:space="preserve" text-anchor="start" x="730" y="-20" font-family="Helvetica,sans-Serif" font-size="10.00">source/motion/motor</text>
<text xml:space="preserve" text-anchor="middle" x="781" y="-7.25" font-family="Helvetica,sans-Serif" font-size="10.00">/motor_core.c</text>
</a>
</g>
</g>
<!-- Node15&#45;&gt;Node16 -->
<g id="edge19_Node000015_Node000016" class="edge">
<title>Node15&#45;&gt;Node16</title>
<g id="a_edge19_Node000015_Node000016"><a xlink:title=" ">
<path fill="none" stroke="#63b8ff" d="M917.8,-65.35C889.01,-55.33 854.55,-43.34 827.42,-33.9"/>
<polygon fill="#63b8ff" stroke="#63b8ff" points="916.51,-68.6 927.1,-68.58 918.81,-61.99 916.51,-68.6"/>
</a>
</g>
</g>
<!-- Node17 -->
<g id="Node000017" class="node">
<title>Node17</title>
<g id="a_Node000017"><a xlink:href="motor_8c.html" target="_top" xlink:title=" ">
<polygon fill="white" stroke="#666666" points="985,-27.12 897,-27.12 897,-6.38 985,-6.38 985,-27.12"/>
<text xml:space="preserve" text-anchor="middle" x="941" y="-13.62" font-family="Helvetica,sans-Serif" font-size="10.00">source/motor.c</text>
</a>
</g>
</g>
<!-- Node15&#45;&gt;Node17 -->
<g id="edge20_Node000015_Node000017" class="edge">
<title>Node15&#45;&gt;Node17</title>
<g id="a_edge20_Node000015_Node000017"><a xlink:title=" ">
<path fill="none" stroke="#63b8ff" d="M961.86,-59.16C956.28,-48.09 950.12,-35.85 945.95,-27.57"/>
<polygon fill="#63b8ff" stroke="#63b8ff" points="958.64,-60.55 966.26,-67.9 964.89,-57.4 958.64,-60.55"/>
</a>
</g>
</g>
<!-- Node18&#45;&gt;Node6 -->
<g id="edge25_Node000018_Node000006" class="edge">
<title>Node18&#45;&gt;Node6</title>
<g id="a_edge25_Node000018_Node000006"><a xlink:title=" ">
<path fill="none" stroke="#63b8ff" d="M350.17,-63.99C330.48,-54.22 307.51,-42.82 289.31,-33.79"/>
<polygon fill="#63b8ff" stroke="#63b8ff" points="348.56,-67.1 359.07,-68.41 351.67,-60.83 348.56,-67.1"/>
</a>
</g>
</g>
<!-- Node18&#45;&gt;Node10 -->
<g id="edge23_Node000018_Node000010" class="edge">
<title>Node18&#45;&gt;Node10</title>
<g id="a_edge23_Node000018_Node000010"><a xlink:title=" ">
<path fill="none" stroke="#63b8ff" d="M445.63,-64.95C471.39,-55.01 501.97,-43.22 526.12,-33.9"/>
<polygon fill="#63b8ff" stroke="#63b8ff" points="444.4,-61.67 436.33,-68.54 446.92,-68.2 444.4,-61.67"/>
</a>
</g>
</g>
<!-- Node18&#45;&gt;Node13 -->
<g id="edge24_Node000018_Node000013" class="edge">
<title>Node18&#45;&gt;Node13</title>
<g id="a_edge24_Node000018_Node000013"><a xlink:title=" ">
<path fill="none" stroke="#63b8ff" d="M393,-57.81C393,-49.59 393,-40.84 393,-33.63"/>
<polygon fill="#63b8ff" stroke="#63b8ff" points="389.5,-57.74 393,-67.74 396.5,-57.74 389.5,-57.74"/>
</a>
</g>
</g>
<!-- Node19&#45;&gt;Node13 -->
<g id="edge28_Node000019_Node000013" class="edge">
<title>Node19&#45;&gt;Node13</title>
<g id="a_edge28_Node000019_Node000013"><a xlink:title=" ">
<path fill="none" stroke="#63b8ff" d="M486.17,-63.99C466.48,-54.22 443.51,-42.82 425.31,-33.79"/>
<polygon fill="#63b8ff" stroke="#63b8ff" points="484.56,-67.1 495.07,-68.41 487.67,-60.83 484.56,-67.1"/>
</a>
</g>
</g>
<!-- Node19&#45;&gt;Node16 -->
<g id="edge27_Node000019_Node000016" class="edge">
<title>Node19&#45;&gt;Node16</title>
<g id="a_edge27_Node000019_Node000016"><a xlink:title=" ">
<path fill="none" stroke="#63b8ff" d="M599.51,-66.36C637.95,-56.07 685,-43.46 721.56,-33.67"/>
<polygon fill="#63b8ff" stroke="#63b8ff" points="598.62,-62.98 589.86,-68.95 600.43,-69.74 598.62,-62.98"/>
</a>
</g>
</g>
<!-- Node20&#45;&gt;Node11 -->
<g id="edge31_Node000020_Node000011" class="edge">
<title>Node20&#45;&gt;Node11</title>
<g id="a_edge31_Node000020_Node000011"><a xlink:title=" ">
<path fill="none" stroke="#63b8ff" d="M735.27,-69.19C850.09,-48.63 882.33,-54.09 994,-33.5 996.86,-32.97 999.78,-32.41 1002.73,-31.81"/>
<polygon fill="#63b8ff" stroke="#63b8ff" points="734.97,-65.68 725.76,-70.92 736.23,-72.57 734.97,-65.68"/>
</a>
</g>
</g>
<!-- Node20&#45;&gt;Node13 -->
<g id="edge30_Node000020_Node000013" class="edge">
<title>Node20&#45;&gt;Node13</title>
<g id="a_edge30_Node000020_Node000013"><a xlink:title=" ">
<path fill="none" stroke="#63b8ff" d="M594.69,-67.8C550.5,-56.84 494.13,-42.85 452.23,-32.45"/>
<polygon fill="#63b8ff" stroke="#63b8ff" points="593.63,-71.14 604.18,-70.16 595.31,-64.35 593.63,-71.14"/>
</a>
</g>
</g>
<!-- Node21&#45;&gt;Node6 -->
<g id="edge34_Node000021_Node000006" class="edge">
<title>Node21&#45;&gt;Node6</title>
<g id="a_edge34_Node000021_Node000006"><a xlink:title=" ">
<path fill="none" stroke="#63b8ff" d="M257,-57.81C257,-49.59 257,-40.84 257,-33.63"/>
<polygon fill="#63b8ff" stroke="#63b8ff" points="253.5,-57.74 257,-67.74 260.5,-57.74 253.5,-57.74"/>
</a>
</g>
</g>
<!-- Node21&#45;&gt;Node13 -->
<g id="edge33_Node000021_Node000013" class="edge">
<title>Node21&#45;&gt;Node13</title>
<g id="a_edge33_Node000021_Node000013"><a xlink:title=" ">
<path fill="none" stroke="#63b8ff" d="M299.83,-63.99C319.52,-54.22 342.49,-42.82 360.69,-33.79"/>
<polygon fill="#63b8ff" stroke="#63b8ff" points="298.33,-60.83 290.93,-68.41 301.44,-67.1 298.33,-60.83"/>
</a>
</g>
</g>
<!-- Node23&#45;&gt;Node24 -->
<g id="edge37_Node000023_Node000024" class="edge">
<title>Node23&#45;&gt;Node24</title>
<g id="a_edge37_Node000023_Node000024"><a xlink:title=" ">
<path fill="none" stroke="#63b8ff" d="M1075.43,-138.47C1093.2,-125.57 1117.45,-107.97 1132.4,-97.12"/>
<polygon fill="#63b8ff" stroke="#63b8ff" points="1073.59,-135.48 1067.55,-144.19 1077.7,-141.15 1073.59,-135.48"/>
</a>
</g>
</g>
<!-- Node25&#45;&gt;Node2 -->
<g id="edge40_Node000025_Node000002" class="edge">
<title>Node25&#45;&gt;Node2</title>
<g id="a_edge40_Node000025_Node000002"><a xlink:title=" ">
<path fill="none" stroke="#63b8ff" d="M1389.92,-280.5C1360.36,-272.71 1327.19,-260.59 1301,-242 1275.34,-223.79 1255.54,-192.17 1245.13,-172.98"/>
<polygon fill="#63b8ff" stroke="#63b8ff" points="1389.04,-283.89 1399.59,-282.92 1390.73,-277.1 1389.04,-283.89"/>
</a>
</g>
</g>
<!-- Node25&#45;&gt;Node26 -->
<g id="edge41_Node000025_Node000026" class="edge">
<title>Node25&#45;&gt;Node26</title>
<g id="a_edge41_Node000025_Node000026"><a xlink:title=" ">
<path fill="none" stroke="#63b8ff" d="M1462.54,-266.55C1460.53,-248.89 1455.84,-225.99 1445,-208.5 1436.04,-194.05 1421.58,-181.85 1408.67,-172.93"/>
<polygon fill="#63b8ff" stroke="#63b8ff" points="1459.03,-266.65 1463.41,-276.3 1466.01,-266.03 1459.03,-266.65"/>
</a>
</g>
</g>
<!-- Node25&#45;&gt;Node27 -->
<g id="edge42_Node000025_Node000027" class="edge">
<title>Node25&#45;&gt;Node27</title>
<g id="a_edge42_Node000025_Node000027"><a xlink:title=" ">
<path fill="none" stroke="#63b8ff" d="M1390.04,-277.7C1337.05,-266.2 1266.45,-250.87 1216.11,-239.95"/>
<polygon fill="#63b8ff" stroke="#63b8ff" points="1389.07,-281.07 1399.59,-279.77 1390.56,-274.23 1389.07,-281.07"/>
</a>
</g>
</g>
<!-- Node25&#45;&gt;Node28 -->
<g id="edge45_Node000025_Node000028" class="edge">
<title>Node25&#45;&gt;Node28</title>
<g id="a_edge45_Node000025_Node000028"><a xlink:title=" ">
<path fill="none" stroke="#63b8ff" d="M1480.95,-268.24C1499.56,-240.22 1528.87,-196.08 1544.45,-172.63"/>
<polygon fill="#63b8ff" stroke="#63b8ff" points="1478.07,-266.24 1475.45,-276.51 1483.9,-270.11 1478.07,-266.24"/>
</a>
</g>
</g>
<!-- Node25&#45;&gt;Node29 -->
<g id="edge46_Node000025_Node000029" class="edge">
<title>Node25&#45;&gt;Node29</title>
<g id="a_edge46_Node000025_Node000029"><a xlink:title=" ">
<path fill="none" stroke="#63b8ff" d="M1538.07,-287.6C1578.58,-281.23 1627.92,-268.29 1665,-242 1689.84,-224.39 1706.93,-192.27 1715.54,-172.88"/>
<polygon fill="#63b8ff" stroke="#63b8ff" points="1537.78,-284.11 1528.39,-289.01 1538.79,-291.04 1537.78,-284.11"/>
</a>
</g>
</g>
<!-- Node25&#45;&gt;Node30 -->
<g id="edge47_Node000025_Node000030" class="edge">
<title>Node25&#45;&gt;Node30</title>
<g id="a_edge47_Node000025_Node000030"><a xlink:title=" ">
<path fill="none" stroke="#63b8ff" d="M1504.88,-272.36C1523.5,-262.62 1545.16,-251.28 1562.35,-242.29"/>
<polygon fill="#63b8ff" stroke="#63b8ff" points="1503.48,-269.14 1496.24,-276.88 1506.72,-275.35 1503.48,-269.14"/>
</a>
</g>
</g>
<!-- Node27&#45;&gt;Node2 -->
<g id="edge43_Node000027_Node000002" class="edge">
<title>Node27&#45;&gt;Node2</title>
<g id="a_edge43_Node000027_Node000002"><a xlink:title=" ">
<path fill="none" stroke="#63b8ff" d="M1181.79,-201.11C1193.37,-191.81 1206.43,-181.31 1216.94,-172.87"/>
<polygon fill="#63b8ff" stroke="#63b8ff" points="1179.69,-198.31 1174.09,-207.31 1184.07,-203.77 1179.69,-198.31"/>
</a>
</g>
</g>
<!-- Node27&#45;&gt;Node26 -->
<g id="edge44_Node000027_Node000026" class="edge">
<title>Node27&#45;&gt;Node26</title>
<g id="a_edge44_Node000027_Node000026"><a xlink:title=" ">
<path fill="none" stroke="#63b8ff" d="M1218.44,-204.88C1252.63,-194.75 1294,-182.51 1326.44,-172.9"/>
<polygon fill="#63b8ff" stroke="#63b8ff" points="1217.66,-201.46 1209.06,-207.65 1219.65,-208.17 1217.66,-201.46"/>
</a>
</g>
</g>
<!-- Node30&#45;&gt;Node2 -->
<g id="edge48_Node000030_Node000002" class="edge">
<title>Node30&#45;&gt;Node2</title>
<g id="a_edge48_Node000030_Node000002"><a xlink:title=" ">
<path fill="none" stroke="#63b8ff" d="M1518.85,-211.47C1461.46,-201.41 1380.06,-186.74 1309,-172.5 1306.11,-171.92 1303.17,-171.32 1300.19,-170.7"/>
<polygon fill="#63b8ff" stroke="#63b8ff" points="1518.05,-214.89 1528.5,-213.16 1519.25,-207.99 1518.05,-214.89"/>
</a>
</g>
</g>
<!-- Node30&#45;&gt;Node28 -->
<g id="edge49_Node000030_Node000028" class="edge">
<title>Node30&#45;&gt;Node28</title>
<g id="a_edge49_Node000030_Node000028"><a xlink:title=" ">
<path fill="none" stroke="#63b8ff" d="M1578.36,-198.24C1573.5,-189.61 1568.24,-180.26 1563.94,-172.63"/>
<polygon fill="#63b8ff" stroke="#63b8ff" points="1575.3,-199.94 1583.25,-206.93 1581.4,-196.5 1575.3,-199.94"/>
</a>
</g>
</g>
<!-- Node30&#45;&gt;Node29 -->
<g id="edge50_Node000030_Node000029" class="edge">
<title>Node30&#45;&gt;Node29</title>
<g id="a_edge50_Node000030_Node000029"><a xlink:title=" ">
<path fill="none" stroke="#63b8ff" d="M1633.88,-202.86C1652.5,-193.12 1674.16,-181.78 1691.35,-172.79"/>
<polygon fill="#63b8ff" stroke="#63b8ff" points="1632.48,-199.64 1625.24,-207.38 1635.72,-205.85 1632.48,-199.64"/>
</a>
</g>
</g>
<!-- Node31&#45;&gt;Node2 -->
<g id="edge55_Node000031_Node000002" class="edge">
<title>Node31&#45;&gt;Node2</title>
<g id="a_edge55_Node000031_Node000002"><a xlink:title=" ">
<path fill="none" stroke="#63b8ff" d="M1330.17,-202.99C1310.48,-193.22 1287.51,-181.82 1269.31,-172.79"/>
<polygon fill="#63b8ff" stroke="#63b8ff" points="1328.56,-206.1 1339.07,-207.41 1331.67,-199.83 1328.56,-206.1"/>
</a>
</g>
</g>
<!-- Node31&#45;&gt;Node26 -->
<g id="edge56_Node000031_Node000026" class="edge">
<title>Node31&#45;&gt;Node26</title>
<g id="a_edge56_Node000031_Node000026"><a xlink:title=" ">
<path fill="none" stroke="#63b8ff" d="M1376.22,-197.1C1377.2,-188.79 1378.25,-179.93 1379.12,-172.63"/>
<polygon fill="#63b8ff" stroke="#63b8ff" points="1372.78,-196.41 1375.07,-206.75 1379.73,-197.23 1372.78,-196.41"/>
</a>
</g>
</g>
<!-- Node31&#45;&gt;Node28 -->
<g id="edge57_Node000031_Node000028" class="edge">
<title>Node31&#45;&gt;Node28</title>
<g id="a_edge57_Node000031_Node000028"><a xlink:title=" ">
<path fill="none" stroke="#63b8ff" d="M1427.38,-204.08C1454.24,-194.12 1486.22,-182.26 1511.45,-172.9"/>
<polygon fill="#63b8ff" stroke="#63b8ff" points="1426.17,-200.8 1418.01,-207.56 1428.61,-207.36 1426.17,-200.8"/>
</a>
</g>
</g>
</g>
</svg>

<g id="navigator" transform="translate(0 0)" fill="#404254">
  <rect fill="#f2f5e9" fill-opacity="0.5" stroke="#606060" stroke-width=".5" x="0" y="0" width="60" height="60"/>
  <use id="zoomplus" xlink:href="#zoomPlus" x="17" y="9" onmousedown="handleZoom(evt,'in')"/>
  <use id="zoomminus" xlink:href="#zoomMin" x="42" y="9" onmousedown="handleZoom(evt,'out')"/>
  <use id="reset" xlink:href="#resetDef" x="30" y="36" onmousedown="handleReset()"/>
   <use id="arrowup" xlink:href="#arrowUp" x="0" y="0" onmousedown="handlePan(0,-1)"/>
  <use id="arrowright" xlink:href="#arrowRight" x="0" y="0" onmousedown="handlePan(1,0)"/>
  <use id="arrowdown" xlink:href="#arrowDown" x="0" y="0" onmousedown="handlePan(0,1)"/>
  <use id="arrowleft" xlink:href="#arrowLeft" x="0" y="0" onmousedown="handlePan(-1,0)"/>
</g>
<svg viewBox="0 0 15 15" width="100%" height="30px" preserveAspectRatio="xMaxYMin meet">
 <g id="arrow_out" transform="scale(0.3 0.3)">
  <a xlink:href="tmc2209__shared_8h__dep__incl_org.svg" target="_base">
   <rect id="button" ry="5" rx="5" y="6" x="6" height="38" width="38"
        fill="#f2f5e9" fill-opacity="0.5" stroke="#606060" stroke-width="1.0"/>
   <path id="arrow"
     d="M 11.500037,31.436501 C 11.940474,20.09759 22.043105,11.32322 32.158766,21.979434 L 37.068811,17.246167 C 37.068811,17.246167 37.088388,32 37.088388,32 L 22.160133,31.978069 C 22.160133,31.978069 26.997745,27.140456 26.997745,27.140456 C 18.528582,18.264221 13.291696,25.230495 11.500037,31.436501 z"
     style="fill:#404040;"/>
  </a>
 </g>
</svg>

<style type='text/css'>
<![CDATA[
[data-mouse-over-selected='false'] { opacity: 0.7; }
[data-mouse-over-selected='true']  { opacity: 1.0; }
]]>
</style>
<script type="application/ecmascript"><![CDATA[
document.addEventListener('DOMContentLoaded', (event) => {
  highlightEdges();
  highlightAdjacentNodes();
});
]]></script>
</svg>
