<?xml version="1.0" encoding="UTF-8" standalone="no"?>
<!DOCTYPE svg PUBLIC "-//W3C//DTD SVG 1.1//EN"
 "http://www.w3.org/Graphics/SVG/1.1/DTD/svg11.dtd">
<!-- Generated by graphviz version 14.1.4 (0)
 -->
<!-- Title: source/driver/tmc2209/tmc2209_uart.h Pages: 1 -->
<svg width="556pt" height="212pt"
 viewBox="0.00 0.00 556.00 212.00" xmlns="http://www.w3.org/2000/svg" xmlns:xlink="http://www.w3.org/1999/xlink">
<g id="graph0" class="graph" transform="scale(1 1) rotate(0) translate(4 207.75)">
<title>source/driver/tmc2209/tmc2209_uart.h</title>
<!-- Node1 -->
<g id="Node000001" class="node">
<title>Node1</title>
<g id="a_Node000001"><a xlink:title=" ">
<polygon fill="#999999" stroke="#666666" points="448.38,-203.75 322.88,-203.75 322.88,-170.25 448.38,-170.25 448.38,-203.75"/>
<text xml:space="preserve" text-anchor="start" x="330.88" y="-190.25" font-family="Helvetica,sans-Serif" font-size="10.00">source/driver/tmc2209</text>
<text xml:space="preserve" text-anchor="middle" x="385.62" y="-177.5" font-family="Helvetica,sans-Serif" font-size="10.00">/tmc2209_uart.h</text>
</a>
</g>
</g>
<!-- Node2 -->
<g id="Node000002" class="node">
<title>Node2</title>
<g id="a_Node000002"><a xlink:href="tmc2209__shared_8h.html" target="_top" xlink:title=" ">
<polygon fill="white" stroke="#666666" points="284.62,-77.5 178.62,-77.5 178.62,-56.75 284.62,-56.75 284.62,-77.5"/>
<text xml:space="preserve" text-anchor="middle" x="231.62" y="-64" font-family="Helvetica,sans-Serif" font-size="10.00">tmc2209_shared.h</text>
</a>
</g>
</g>
<!-- Node1&#45;&gt;Node2 -->
<g id="edge1_Node000001_Node000002" class="edge">
<title>Node1&#45;&gt;Node2</title>
<g id="a_edge1_Node000001_Node000002"><a xlink:title=" ">
<path fill="none" stroke="#63b8ff" d="M341.48,-169.83C321.58,-161.19 298.57,-149.23 280.62,-134.25 264.89,-121.12 251.4,-101.94 242.59,-87.62"/>
<polygon fill="#63b8ff" stroke="#63b8ff" points="245.66,-85.93 237.56,-79.09 239.63,-89.49 245.66,-85.93"/>
</a>
</g>
</g>
<!-- Node4 -->
<g id="Node000004" class="node">
<title>Node4</title>
<g id="a_Node000004"><a xlink:href="tmc2209__internal_8h.html" target="_top" xlink:title=" ">
<polygon fill="white" stroke="#666666" points="399.88,-134.25 289.38,-134.25 289.38,-113.5 399.88,-113.5 399.88,-134.25"/>
<text xml:space="preserve" text-anchor="middle" x="344.62" y="-120.75" font-family="Helvetica,sans-Serif" font-size="10.00">tmc2209_internal.h</text>
</a>
</g>
</g>
<!-- Node1&#45;&gt;Node4 -->
<g id="edge3_Node000001_Node000004" class="edge">
<title>Node1&#45;&gt;Node4</title>
<g id="a_edge3_Node000001_Node000004"><a xlink:title=" ">
<path fill="none" stroke="#63b8ff" d="M374.85,-169.94C369.52,-161.99 363.05,-152.34 357.46,-144.02"/>
<polygon fill="#63b8ff" stroke="#63b8ff" points="360.55,-142.33 352.07,-135.97 354.73,-146.23 360.55,-142.33"/>
</a>
</g>
</g>
<!-- Node6 -->
<g id="Node000006" class="node">
<title>Node6</title>
<g id="a_Node000006"><a xlink:title=" ">
<polygon fill="#e0e0e0" stroke="#999999" points="459,-20.75 406.25,-20.75 406.25,0 459,0 459,-20.75"/>
<text xml:space="preserve" text-anchor="middle" x="432.62" y="-7.25" font-family="Helvetica,sans-Serif" font-size="10.00">stdint.h</text>
</a>
</g>
</g>
<!-- Node1&#45;&gt;Node6 -->
<g id="edge11_Node000001_Node000006" class="edge">
<title>Node1&#45;&gt;Node6</title>
<g id="a_edge11_Node000001_Node000006"><a xlink:title=" ">
<path fill="none" stroke="#63b8ff" d="M393.84,-170.05C398.73,-160 404.72,-146.63 408.62,-134.25 419.65,-99.3 426.56,-57.09 430,-32.34"/>
<polygon fill="#63b8ff" stroke="#63b8ff" points="433.44,-32.99 431.28,-22.62 426.5,-32.07 433.44,-32.99"/>
</a>
</g>
</g>
<!-- Node7 -->
<g id="Node000007" class="node">
<title>Node7</title>
<g id="a_Node000007"><a xlink:title=" ">
<polygon fill="#e0e0e0" stroke="#999999" points="548.38,-20.75 476.88,-20.75 476.88,0 548.38,0 548.38,-20.75"/>
<text xml:space="preserve" text-anchor="middle" x="512.62" y="-7.25" font-family="Helvetica,sans-Serif" font-size="10.00">FreeRTOS.h</text>
</a>
</g>
</g>
<!-- Node1&#45;&gt;Node7 -->
<g id="edge12_Node000001_Node000007" class="edge">
<title>Node1&#45;&gt;Node7</title>
<g id="a_edge12_Node000001_Node000007"><a xlink:title=" ">
<path fill="none" stroke="#63b8ff" d="M398.41,-169.82C406.35,-159.68 416.71,-146.3 425.62,-134.25 452.56,-97.85 482.89,-54.44 499.67,-30.18"/>
<polygon fill="#63b8ff" stroke="#63b8ff" points="502.33,-32.5 505.13,-22.28 496.57,-28.52 502.33,-32.5"/>
</a>
</g>
</g>
<!-- Node3 -->
<g id="Node000003" class="node">
<title>Node3</title>
<g id="a_Node000003"><a xlink:title=" ">
<polygon fill="#e0e0e0" stroke="#999999" points="105.25,-20.75 0,-20.75 0,0 105.25,0 105.25,-20.75"/>
<text xml:space="preserve" text-anchor="middle" x="52.62" y="-7.25" font-family="Helvetica,sans-Serif" font-size="10.00">fsl_uart_freertos.h</text>
</a>
</g>
</g>
<!-- Node2&#45;&gt;Node3 -->
<g id="edge2_Node000002_Node000003" class="edge">
<title>Node2&#45;&gt;Node3</title>
<g id="a_edge2_Node000002_Node000003"><a xlink:title=" ">
<path fill="none" stroke="#63b8ff" d="M199.62,-56.34C170.57,-47.45 127.49,-34.27 95.47,-24.48"/>
<polygon fill="#63b8ff" stroke="#63b8ff" points="96.68,-21.19 86.1,-21.61 94.64,-27.89 96.68,-21.19"/>
</a>
</g>
</g>
<!-- Node4&#45;&gt;Node2 -->
<g id="edge4_Node000004_Node000002" class="edge">
<title>Node4&#45;&gt;Node2</title>
<g id="a_edge4_Node000004_Node000002"><a xlink:title=" ">
<path fill="none" stroke="#63b8ff" d="M324.42,-113.09C307.07,-104.68 281.79,-92.43 262,-82.84"/>
<polygon fill="#63b8ff" stroke="#63b8ff" points="263.54,-79.7 253.01,-78.49 260.49,-86 263.54,-79.7"/>
</a>
</g>
</g>
<!-- Node5 -->
<g id="Node000005" class="node">
<title>Node5</title>
<g id="a_Node000005"><a xlink:href="cmd__handle_8h.html" target="_top" xlink:title=" ">
<polygon fill="white" stroke="#666666" points="386.75,-77.5 302.5,-77.5 302.5,-56.75 386.75,-56.75 386.75,-77.5"/>
<text xml:space="preserve" text-anchor="middle" x="344.62" y="-64" font-family="Helvetica,sans-Serif" font-size="10.00">cmd_handle.h</text>
</a>
</g>
</g>
<!-- Node4&#45;&gt;Node5 -->
<g id="edge5_Node000004_Node000005" class="edge">
<title>Node4&#45;&gt;Node5</title>
<g id="a_edge5_Node000004_Node000005"><a xlink:title=" ">
<path fill="none" stroke="#63b8ff" d="M344.62,-113.09C344.62,-106.47 344.62,-97.47 344.62,-89.27"/>
<polygon fill="#63b8ff" stroke="#63b8ff" points="348.13,-89.34 344.63,-79.34 341.13,-89.34 348.13,-89.34"/>
</a>
</g>
</g>
<!-- Node5&#45;&gt;Node6 -->
<g id="edge6_Node000005_Node000006" class="edge">
<title>Node5&#45;&gt;Node6</title>
<g id="a_edge6_Node000005_Node000006"><a xlink:title=" ">
<path fill="none" stroke="#63b8ff" d="M360.36,-56.34C373.5,-48.16 392.47,-36.36 407.68,-26.9"/>
<polygon fill="#63b8ff" stroke="#63b8ff" points="409.1,-30.13 415.74,-21.88 405.4,-24.19 409.1,-30.13"/>
</a>
</g>
</g>
<!-- Node5&#45;&gt;Node7 -->
<g id="edge7_Node000005_Node000007" class="edge">
<title>Node5&#45;&gt;Node7</title>
<g id="a_edge7_Node000005_Node000007"><a xlink:title=" ">
<path fill="none" stroke="#63b8ff" d="M374.66,-56.34C401.81,-47.49 442.01,-34.39 472.01,-24.61"/>
<polygon fill="#63b8ff" stroke="#63b8ff" points="472.7,-28.07 481.13,-21.64 470.54,-21.41 472.7,-28.07"/>
</a>
</g>
</g>
<!-- Node8 -->
<g id="Node000008" class="node">
<title>Node8</title>
<g id="a_Node000008"><a xlink:title=" ">
<polygon fill="#e0e0e0" stroke="#999999" points="388.12,-20.75 297.12,-20.75 297.12,0 388.12,0 388.12,-20.75"/>
<text xml:space="preserve" text-anchor="middle" x="342.62" y="-7.25" font-family="Helvetica,sans-Serif" font-size="10.00">event_groups.h</text>
</a>
</g>
</g>
<!-- Node5&#45;&gt;Node8 -->
<g id="edge8_Node000005_Node000008" class="edge">
<title>Node5&#45;&gt;Node8</title>
<g id="a_edge8_Node000005_Node000008"><a xlink:title=" ">
<path fill="none" stroke="#63b8ff" d="M344.27,-56.34C344.03,-49.72 343.7,-40.72 343.4,-32.52"/>
<polygon fill="#63b8ff" stroke="#63b8ff" points="346.9,-32.46 343.03,-22.59 339.9,-32.71 346.9,-32.46"/>
</a>
</g>
</g>
<!-- Node9 -->
<g id="Node000009" class="node">
<title>Node9</title>
<g id="a_Node000009"><a xlink:title=" ">
<polygon fill="#e0e0e0" stroke="#999999" points="208.12,-20.75 123.12,-20.75 123.12,0 208.12,0 208.12,-20.75"/>
<text xml:space="preserve" text-anchor="middle" x="165.62" y="-7.25" font-family="Helvetica,sans-Serif" font-size="10.00">fsl_common.h</text>
</a>
</g>
</g>
<!-- Node5&#45;&gt;Node9 -->
<g id="edge9_Node000005_Node000009" class="edge">
<title>Node5&#45;&gt;Node9</title>
<g id="a_edge9_Node000005_Node000009"><a xlink:title=" ">
<path fill="none" stroke="#63b8ff" d="M312.62,-56.34C283.57,-47.45 240.49,-34.27 208.47,-24.48"/>
<polygon fill="#63b8ff" stroke="#63b8ff" points="209.68,-21.19 199.1,-21.61 207.64,-27.89 209.68,-21.19"/>
</a>
</g>
</g>
<!-- Node10 -->
<g id="Node000010" class="node">
<title>Node10</title>
<g id="a_Node000010"><a xlink:title=" ">
<polygon fill="#e0e0e0" stroke="#999999" points="278.62,-20.75 226.62,-20.75 226.62,0 278.62,0 278.62,-20.75"/>
<text xml:space="preserve" text-anchor="middle" x="252.62" y="-7.25" font-family="Helvetica,sans-Serif" font-size="10.00">stdlib.h</text>
</a>
</g>
</g>
<!-- Node5&#45;&gt;Node10 -->
<g id="edge10_Node000005_Node000010" class="edge">
<title>Node5&#45;&gt;Node10</title>
<g id="a_edge10_Node000005_Node000010"><a xlink:title=" ">
<path fill="none" stroke="#63b8ff" d="M328.18,-56.34C314.44,-48.16 294.61,-36.36 278.71,-26.9"/>
<polygon fill="#63b8ff" stroke="#63b8ff" points="280.61,-23.96 270.23,-21.85 277.03,-29.97 280.61,-23.96"/>
</a>
</g>
</g>
</g>
</svg>
