<?xml version="1.0" encoding="UTF-8" standalone="no"?>
<!DOCTYPE svg PUBLIC "-//W3C//DTD SVG 1.1//EN"
 "http://www.w3.org/Graphics/SVG/1.1/DTD/svg11.dtd">
<!-- Generated by graphviz version 14.1.4 (0)
 -->
<!-- Title: source/driver/tmc2209/tmc2209_process.h Pages: 1 -->
<svg width="278pt" height="111pt"
 viewBox="0.00 0.00 278.00 111.00" xmlns="http://www.w3.org/2000/svg" xmlns:xlink="http://www.w3.org/1999/xlink">
<g id="graph0" class="graph" transform="scale(1 1) rotate(0) translate(4 107)">
<title>source/driver/tmc2209/tmc2209_process.h</title>
<!-- Node1 -->
<g id="Node000001" class="node">
<title>Node1</title>
<g id="a_Node000001"><a xlink:title=" ">
<polygon fill="#999999" stroke="#666666" points="197.5,-103 72,-103 72,-69.5 197.5,-69.5 197.5,-103"/>
<text xml:space="preserve" text-anchor="start" x="80" y="-89.5" font-family="Helvetica,sans-Serif" font-size="10.00">source/driver/tmc2209</text>
<text xml:space="preserve" text-anchor="middle" x="134.75" y="-76.75" font-family="Helvetica,sans-Serif" font-size="10.00">/tmc2209_process.h</text>
</a>
</g>
</g>
<!-- Node2 -->
<g id="Node000002" class="node">
<title>Node2</title>
<g id="a_Node000002"><a xlink:href="tmc2209__core_8c.html" target="_top" xlink:title=" ">
<polygon fill="white" stroke="#666666" points="125.5,-33.5 0,-33.5 0,0 125.5,0 125.5,-33.5"/>
<text xml:space="preserve" text-anchor="start" x="8" y="-20" font-family="Helvetica,sans-Serif" font-size="10.00">source/driver/tmc2209</text>
<text xml:space="preserve" text-anchor="middle" x="62.75" y="-7.25" font-family="Helvetica,sans-Serif" font-size="10.00">/tmc2209_core.c</text>
</a>
</g>
</g>
<!-- Node1&#45;&gt;Node2 -->
<g id="edge1_Node000001_Node000002" class="edge">
<title>Node1&#45;&gt;Node2</title>
<g id="a_edge1_Node000001_Node000002"><a xlink:title=" ">
<path fill="none" stroke="#63b8ff" d="M109.42,-61.5C99.57,-52.27 88.55,-41.94 79.69,-33.63"/>
<polygon fill="#63b8ff" stroke="#63b8ff" points="106.89,-63.93 116.58,-68.22 111.68,-58.83 106.89,-63.93"/>
</a>
</g>
</g>
<!-- Node3 -->
<g id="Node000003" class="node">
<title>Node3</title>
<g id="a_Node000003"><a xlink:href="tmc2209__process_8c.html" target="_top" xlink:title=" ">
<polygon fill="white" stroke="#666666" points="269.5,-33.5 144,-33.5 144,0 269.5,0 269.5,-33.5"/>
<text xml:space="preserve" text-anchor="start" x="152" y="-20" font-family="Helvetica,sans-Serif" font-size="10.00">source/driver/tmc2209</text>
<text xml:space="preserve" text-anchor="middle" x="206.75" y="-7.25" font-family="Helvetica,sans-Serif" font-size="10.00">/tmc2209_process.c</text>
</a>
</g>
</g>
<!-- Node1&#45;&gt;Node3 -->
<g id="edge2_Node000001_Node000003" class="edge">
<title>Node1&#45;&gt;Node3</title>
<g id="a_edge2_Node000001_Node000003"><a xlink:title=" ">
<path fill="none" stroke="#63b8ff" d="M160.08,-61.5C169.93,-52.27 180.95,-41.94 189.81,-33.63"/>
<polygon fill="#63b8ff" stroke="#63b8ff" points="157.82,-58.83 152.92,-68.22 162.61,-63.93 157.82,-58.83"/>
</a>
</g>
</g>
</g>
</svg>
