<?xml version="1.0" encoding="UTF-8" standalone="no"?>
<!DOCTYPE svg PUBLIC "-//W3C//DTD SVG 1.1//EN"
 "http://www.w3.org/Graphics/SVG/1.1/DTD/svg11.dtd">
<!-- Generated by graphviz version 14.1.5 (0)
 -->
<!-- Title: source/uart2.c Pages: 1 -->
<svg width="221pt" height="142pt"
 viewBox="0.00 0.00 221.00 142.00" xmlns="http://www.w3.org/2000/svg" xmlns:xlink="http://www.w3.org/1999/xlink">
<g id="graph0" class="graph" transform="scale(1 1) rotate(0) translate(4 138.25)">
<title>source/uart2.c</title>
<!-- Node1 -->
<g id="Node000001" class="node">
<title>Node1</title>
<g id="a_Node000001"><a xlink:title=" ">
<polygon fill="#999999" stroke="#666666" points="162.38,-134.25 77.38,-134.25 77.38,-113.5 162.38,-113.5 162.38,-134.25"/>
<text xml:space="preserve" text-anchor="middle" x="119.88" y="-120.75" font-family="Helvetica,sans-Serif" font-size="10.00">source/uart2.c</text>
</a>
</g>
</g>
<!-- Node2 -->
<g id="Node000002" class="node">
<title>Node2</title>
<g id="a_Node000002"><a xlink:title=" ">
<polygon fill="#e0e0e0" stroke="#999999" points="79.75,-77.5 0,-77.5 0,-56.75 79.75,-56.75 79.75,-77.5"/>
<text xml:space="preserve" text-anchor="middle" x="39.88" y="-64" font-family="Helvetica,sans-Serif" font-size="10.00">peripherals.h</text>
</a>
</g>
</g>
<!-- Node1&#45;&gt;Node2 -->
<g id="edge1_Node000001_Node000002" class="edge">
<title>Node1&#45;&gt;Node2</title>
<g id="a_edge1_Node000001_Node000002"><a xlink:title=" ">
<path fill="none" stroke="#63b8ff" d="M105.57,-113.09C93.86,-105.07 77.04,-93.56 63.35,-84.19"/>
<polygon fill="#63b8ff" stroke="#63b8ff" points="65.53,-81.44 55.3,-78.68 61.58,-87.22 65.53,-81.44"/>
</a>
</g>
</g>
<!-- Node3 -->
<g id="Node000003" class="node">
<title>Node3</title>
<g id="a_Node000003"><a xlink:href="uart_8h.html" target="_top" xlink:title=" ">
<polygon fill="white" stroke="#666666" points="142.12,-77.5 97.62,-77.5 97.62,-56.75 142.12,-56.75 142.12,-77.5"/>
<text xml:space="preserve" text-anchor="middle" x="119.88" y="-64" font-family="Helvetica,sans-Serif" font-size="10.00">uart.h</text>
</a>
</g>
</g>
<!-- Node1&#45;&gt;Node3 -->
<g id="edge2_Node000001_Node000003" class="edge">
<title>Node1&#45;&gt;Node3</title>
<g id="a_edge2_Node000001_Node000003"><a xlink:title=" ">
<path fill="none" stroke="#63b8ff" d="M119.88,-113.09C119.88,-106.47 119.88,-97.47 119.88,-89.27"/>
<polygon fill="#63b8ff" stroke="#63b8ff" points="123.38,-89.34 119.88,-79.34 116.38,-89.34 123.38,-89.34"/>
</a>
</g>
</g>
<!-- Node6 -->
<g id="Node000006" class="node">
<title>Node6</title>
<g id="a_Node000006"><a xlink:title=" ">
<polygon fill="#e0e0e0" stroke="#999999" points="213.25,-77.5 160.5,-77.5 160.5,-56.75 213.25,-56.75 213.25,-77.5"/>
<text xml:space="preserve" text-anchor="middle" x="186.88" y="-64" font-family="Helvetica,sans-Serif" font-size="10.00">string.h</text>
</a>
</g>
</g>
<!-- Node1&#45;&gt;Node6 -->
<g id="edge5_Node000001_Node000006" class="edge">
<title>Node1&#45;&gt;Node6</title>
<g id="a_edge5_Node000001_Node000006"><a xlink:title=" ">
<path fill="none" stroke="#63b8ff" d="M131.85,-113.09C141.38,-105.3 154.94,-94.22 166.21,-85.01"/>
<polygon fill="#63b8ff" stroke="#63b8ff" points="168.3,-87.82 173.83,-78.79 163.87,-82.4 168.3,-87.82"/>
</a>
</g>
</g>
<!-- Node4 -->
<g id="Node000004" class="node">
<title>Node4</title>
<g id="a_Node000004"><a xlink:title=" ">
<polygon fill="#e0e0e0" stroke="#999999" points="108.25,-20.75 55.5,-20.75 55.5,0 108.25,0 108.25,-20.75"/>
<text xml:space="preserve" text-anchor="middle" x="81.88" y="-7.25" font-family="Helvetica,sans-Serif" font-size="10.00">stdint.h</text>
</a>
</g>
</g>
<!-- Node3&#45;&gt;Node4 -->
<g id="edge3_Node000003_Node000004" class="edge">
<title>Node3&#45;&gt;Node4</title>
<g id="a_edge3_Node000003_Node000004"><a xlink:title=" ">
<path fill="none" stroke="#63b8ff" d="M113.08,-56.34C108.11,-49.17 101.21,-39.23 95.15,-30.51"/>
<polygon fill="#63b8ff" stroke="#63b8ff" points="98.05,-28.54 89.47,-22.32 92.3,-32.53 98.05,-28.54"/>
</a>
</g>
</g>
<!-- Node5 -->
<g id="Node000005" class="node">
<title>Node5</title>
<g id="a_Node000005"><a xlink:title=" ">
<polygon fill="#e0e0e0" stroke="#999999" points="187.38,-20.75 126.38,-20.75 126.38,0 187.38,0 187.38,-20.75"/>
<text xml:space="preserve" text-anchor="middle" x="156.88" y="-7.25" font-family="Helvetica,sans-Serif" font-size="10.00">stdbool.h</text>
</a>
</g>
</g>
<!-- Node3&#45;&gt;Node5 -->
<g id="edge4_Node000003_Node000005" class="edge">
<title>Node3&#45;&gt;Node5</title>
<g id="a_edge4_Node000003_Node000005"><a xlink:title=" ">
<path fill="none" stroke="#63b8ff" d="M126.49,-56.34C131.33,-49.17 138.05,-39.23 143.95,-30.51"/>
<polygon fill="#63b8ff" stroke="#63b8ff" points="146.77,-32.58 149.47,-22.33 140.97,-28.66 146.77,-32.58"/>
</a>
</g>
</g>
</g>
</svg>
