<?xml version="1.0" encoding="UTF-8" standalone="no"?>
<!DOCTYPE svg PUBLIC "-//W3C//DTD SVG 1.1//EN"
 "http://www.w3.org/Graphics/SVG/1.1/DTD/svg11.dtd">
<!-- Generated by graphviz version 14.1.5 (0)
 -->
<!-- Title: source/uart.h Pages: 1 -->
<svg width="374pt" height="98pt"
 viewBox="0.00 0.00 374.00 98.00" xmlns="http://www.w3.org/2000/svg" xmlns:xlink="http://www.w3.org/1999/xlink">
<g id="graph0" class="graph" transform="scale(1 1) rotate(0) translate(4 94.25)">
<title>source/uart.h</title>
<!-- Node1 -->
<g id="Node000001" class="node">
<title>Node1</title>
<g id="a_Node000001"><a xlink:title=" ">
<polygon fill="#999999" stroke="#666666" points="243,-90.25 163.25,-90.25 163.25,-69.5 243,-69.5 243,-90.25"/>
<text xml:space="preserve" text-anchor="middle" x="203.12" y="-76.75" font-family="Helvetica,sans-Serif" font-size="10.00">source/uart.h</text>
</a>
</g>
</g>
<!-- Node2 -->
<g id="Node000002" class="node">
<title>Node2</title>
<g id="a_Node000002"><a xlink:href="statemachine_8c.html" target="_top" xlink:title=" ">
<polygon fill="white" stroke="#666666" points="126.25,-27.12 0,-27.12 0,-6.38 126.25,-6.38 126.25,-27.12"/>
<text xml:space="preserve" text-anchor="middle" x="63.12" y="-13.62" font-family="Helvetica,sans-Serif" font-size="10.00">source/statemachine.c</text>
</a>
</g>
</g>
<!-- Node1&#45;&gt;Node2 -->
<g id="edge1_Node000001_Node000002" class="edge">
<title>Node1&#45;&gt;Node2</title>
<g id="a_edge1_Node000001_Node000002"><a xlink:title=" ">
<path fill="none" stroke="#63b8ff" d="M170.12,-64.46C144.06,-53.09 108.4,-37.52 85.56,-27.55"/>
<polygon fill="#63b8ff" stroke="#63b8ff" points="168.68,-67.65 179.24,-68.45 171.48,-61.24 168.68,-67.65"/>
</a>
</g>
</g>
<!-- Node3 -->
<g id="Node000003" class="node">
<title>Node3</title>
<g id="a_Node000003"><a xlink:href="statemachine__helpers_8c.html" target="_top" xlink:title="Command parsing and helper implementations for the state machine.">
<polygon fill="white" stroke="#666666" points="262.12,-33.5 144.12,-33.5 144.12,0 262.12,0 262.12,-33.5"/>
<text xml:space="preserve" text-anchor="start" x="152.12" y="-20" font-family="Helvetica,sans-Serif" font-size="10.00">source/statemachine</text>
<text xml:space="preserve" text-anchor="middle" x="203.12" y="-7.25" font-family="Helvetica,sans-Serif" font-size="10.00">_helpers.c</text>
</a>
</g>
</g>
<!-- Node1&#45;&gt;Node3 -->
<g id="edge2_Node000001_Node000003" class="edge">
<title>Node1&#45;&gt;Node3</title>
<g id="a_edge2_Node000001_Node000003"><a xlink:title=" ">
<path fill="none" stroke="#63b8ff" d="M203.12,-57.59C203.12,-49.85 203.12,-41.22 203.12,-33.98"/>
<polygon fill="#63b8ff" stroke="#63b8ff" points="199.63,-57.54 203.13,-67.54 206.63,-57.54 199.63,-57.54"/>
</a>
</g>
</g>
<!-- Node4 -->
<g id="Node000004" class="node">
<title>Node4</title>
<g id="a_Node000004"><a xlink:href="uart2_8c.html" target="_top" xlink:title=" ">
<polygon fill="white" stroke="#666666" points="365.62,-27.12 280.62,-27.12 280.62,-6.38 365.62,-6.38 365.62,-27.12"/>
<text xml:space="preserve" text-anchor="middle" x="323.12" y="-13.62" font-family="Helvetica,sans-Serif" font-size="10.00">source/uart2.c</text>
</a>
</g>
</g>
<!-- Node1&#45;&gt;Node4 -->
<g id="edge3_Node000001_Node000004" class="edge">
<title>Node1&#45;&gt;Node4</title>
<g id="a_edge3_Node000001_Node000004"><a xlink:title=" ">
<path fill="none" stroke="#63b8ff" d="M232.62,-63.85C254.84,-52.53 284.67,-37.34 303.89,-27.55"/>
<polygon fill="#63b8ff" stroke="#63b8ff" points="231.08,-60.71 223.75,-68.37 234.25,-66.95 231.08,-60.71"/>
</a>
</g>
</g>
</g>
</svg>
